<?xml version="1.0" encoding="UTF-8" standalone="no"?><!DOCTYPE svg PUBLIC "-//W3C//DTD SVG 1.1//EN" "http://www.w3.org/Graphics/SVG/1.1/DTD/svg11.dtd"><svg width="100%" height="100%" viewBox="0 0 396 478" version="1.1" xmlns="http://www.w3.org/2000/svg" xmlns:xlink="http://www.w3.org/1999/xlink" xml:space="preserve" style="fill-rule:evenodd;clip-rule:evenodd;stroke-linejoin:round;stroke-miterlimit:1.41421;"><g id="back"><path d="M170.74,3.393c-1.461,8.554 -2.108,17.161 -5.923,25.107c-2.992,6.233 -7.212,10.309 -12.635,14.361c-4.495,3.359 -11.472,6.349 -17.598,8.631c-7.564,2.817 -15.377,4.943 -23.167,7.026c-16.409,4.388 -32.804,8.709 -48.009,16.487c-7.325,3.748 -14.344,8.552 -20.031,14.521c-4.374,4.591 -7.846,9.538 -10.697,15.221c-1.439,2.87 -2.599,6.01 -3.289,9.143c-0.528,2.394 -2.195,7.208 -1.177,9.558c0.146,0.335 0.291,0.67 0.436,1.006c0.866,1.997 3.323,1.32 4.637,0.246c2.518,-2.057 3.644,-4.909 5.612,-7.433c2.053,-2.633 3.744,-5.63 5.597,-8.409c2.923,-4.386 6.401,-8.387 10.376,-11.839c5.438,-4.72 11.146,-8.052 18.707,-11.484c5.853,-2.657 14.913,-5.535 22.172,-7.68c8.031,-2.373 16.077,-4.719 24.077,-7.196c15.148,-4.691 30.578,-10.466 42.388,-21.433c5.583,-5.185 9.863,-11.704 12.329,-18.914c1.257,-3.676 2.131,-7.393 2.439,-11.272c0.323,-4.078 1.138,-9.151 -0.258,-13.057c-0.482,-1.349 -0.868,-2.735 -1.342,-4.089c-0.849,-2.427 -4.354,-0.202 -4.644,1.499Z" style="fill:#010101;fill-rule:nonzero;"/><path d="M258.001,2.295c-0.933,3.814 -1.83,7.043 -2.107,10.968c-0.268,3.794 -0.382,7.6 -0.141,11.397c0.451,7.099 2.455,14.113 6.201,20.174c10.039,16.243 26.595,26.253 43.419,34.234c16.432,7.795 33.108,14.754 45.31,28.775c4.926,5.659 8.498,12.212 11.643,18.983c1.689,3.638 3.216,7.371 4.646,11.118c1.339,3.504 3.276,7.981 5.66,10.875c2.24,2.719 6.943,-0.576 7.334,-3.289c1.113,-7.732 -1.11,-16.398 -3.601,-23.714c-2.5,-7.346 -6.201,-14.128 -10.757,-20.398c-10.438,-14.368 -26.283,-23.301 -42.188,-30.362c-17.45,-7.747 -34.432,-15.268 -47.488,-29.728c-4.888,-5.412 -8.145,-11.702 -10.094,-18.694c-0.965,-3.465 -1.453,-7.062 -1.933,-10.619c-0.524,-3.897 -1.402,-7.071 -2.464,-10.83c-0.539,-1.917 -3.164,-0.014 -3.44,1.11Z" style="fill:#010101;fill-rule:nonzero;"/><path d="M61.351,169.005c-2.727,22.498 7.523,44.9 16.976,64.739c10.082,21.16 21.808,41.524 30.499,63.335c8.495,21.32 13.755,44.736 10.358,67.718c-1.829,12.368 -5.747,24.419 -10.319,36.017c-2.34,5.936 -4.896,11.787 -7.3,17.696c-2.324,5.717 -3.435,11.675 -5.636,17.403c-1.391,3.62 2.882,3.887 4.736,1.647c3.819,-4.611 7.844,-8.84 11.08,-13.892c3.513,-5.485 6.197,-11.449 8.694,-17.447c5.109,-12.271 9.244,-25.138 11.752,-38.197c4.63,-24.101 0.34,-48.647 -8.084,-71.406c-8.304,-22.434 -20.598,-43.086 -31.803,-64.129c-5.65,-10.61 -10.985,-21.343 -16.041,-32.249c-4.827,-10.413 -8.105,-21.457 -13.019,-31.846c-0.425,-0.897 -1.798,-0.169 -1.893,0.611Z" style="fill:#010101;fill-rule:nonzero;"/><path d="M339.745,168.709c-2.927,6.228 -5.642,12.2 -7.717,18.775c-2.14,6.776 -4.018,13.626 -5.853,20.489c-3.801,14.222 -7.663,28.4 -11.208,42.691c-6.646,26.789 -16.188,52.736 -17.744,80.531c-1.454,25.969 8.289,49.689 21.294,71.629c12.966,21.875 28.523,43.686 46.983,61.229c2.502,2.379 7.188,-1.253 6.061,-4.326c-8.448,-23.042 -25.009,-42.804 -37.81,-63.555c-13.213,-21.42 -22.415,-44.213 -21.777,-69.705c0.65,-26.03 9.354,-51.45 14.648,-76.747c2.814,-13.45 4.619,-27.105 7.44,-40.551c1.432,-6.824 3.006,-13.615 4.55,-20.415c1.518,-6.685 2.482,-13.187 3.579,-19.932c0.278,-1.702 -1.943,-1.182 -2.446,-0.113Z" style="fill:#010101;fill-rule:nonzero;"/><path d="M194.101,97.429c-13.481,27.888 -17.054,60.219 -18.36,90.831c-1.286,30.137 0.672,60.905 5.489,90.684c3.422,21.158 9.325,41.837 13.067,62.939c3.704,20.887 5.788,42.929 -0.511,63.524c-3.729,12.194 -11.54,24.085 -20.812,32.746c-1.803,1.684 -0.56,4.704 1.896,3.159c9.229,-5.808 16.73,-12.735 22.325,-22.138c5.185,-8.712 7.954,-18.903 9.36,-28.869c3.047,-21.59 -0.604,-43.619 -4.969,-64.76c-4.413,-21.372 -9.851,-42.411 -12.467,-64.114c-3.793,-31.47 -5.227,-63.395 -2.934,-95.035c1.685,-23.239 6.595,-45.879 9.864,-68.877c0.192,-1.359 -1.537,-0.939 -1.948,-0.09Z" style="fill:#010101;fill-rule:nonzero;"/><path d="M211.394,182.943c1.104,12.129 10.101,19.1 20.65,23.6c5.695,2.43 11.714,3.982 17.76,5.247c4.793,1.003 11.975,3.353 16.721,1.707c1.957,-0.679 5.702,-4.479 3.177,-6.624c-3.244,-2.755 -9.675,-2.269 -13.798,-2.839c-5.494,-0.76 -10.924,-1.873 -16.286,-3.286c-10.297,-2.713 -21.741,-8.367 -25.905,-18.83c-0.5,-1.255 -2.413,-0.007 -2.319,1.025Z" style="fill:#010101;fill-rule:nonzero;"/><path d="M155.021,183.743c-1.224,7.626 -8.266,13.798 -13.711,18.624c-5.072,4.495 -13.008,8.257 -16.183,14.456c-0.618,1.207 0.11,2.437 1.461,2.39c7.665,-0.261 16.014,-9.066 20.996,-14.123c6.224,-6.317 10.087,-13.187 10.709,-22.008c0.139,-1.969 -3.043,-0.766 -3.272,0.661Z" style="fill:#010101;fill-rule:nonzero;"/><path d="M159.486,466.104c-1.112,0.934 -2.096,1.997 -3.159,2.984c-0.203,0.189 -0.407,0.377 -0.612,0.563c-0.104,0.094 -0.208,0.188 -0.312,0.281c0.529,-0.411 0.292,-0.247 -0.71,0.491c-0.931,0.813 -1.638,1.669 -2.232,2.761c-0.565,1.038 -0.591,2.525 0.218,3.447c1.097,1.25 3.075,1.002 4.366,0.233c1.084,-0.646 1.946,-1.432 2.654,-2.472c0.431,-0.561 0.726,-1.184 0.884,-1.871c-0.213,0.715 0.367,-0.429 0.377,-0.447c0.623,-1.116 1.278,-2.035 2.183,-3.072c0.725,-0.83 1.03,-2.324 0.248,-3.216c-1.052,-1.196 -2.888,-0.536 -3.905,0.318Z" style="fill:#010101;fill-rule:nonzero;"/><path d="M24.19,135.965c-4.91,6.923 -8.715,13.553 -11.272,21.711c-2.87,9.158 -4.49,18.728 -5.75,28.222c-1.293,9.741 -2.123,19.541 -3.047,29.321c-0.855,9.056 -1.224,18.736 -3.708,27.523c3.274,-0.661 6.548,-1.323 9.822,-1.984c-0.012,-2.971 -0.291,-5.655 -3.051,-7.224c-1.462,-0.831 -3.13,0.291 -4.073,1.353c-2.348,2.648 -2.785,5.61 -2.799,9.053c-0.011,2.756 3.026,3.619 5.206,2.923c2.748,-0.879 4.533,-3.289 4.717,-6.104c0.534,-8.151 1.724,-16.276 2.245,-24.446c0.585,-9.176 1.028,-18.36 1.765,-27.527c0.744,-9.256 1.839,-18.517 3.743,-27.61c1.694,-8.091 3.748,-17.435 8.016,-24.58c0.744,-1.247 -1.171,-1.539 -1.814,-0.631Z" style="fill:#010101;fill-rule:nonzero;"/><path d="M380.771,156.399c-3.799,15.875 -0.987,32.961 0.857,48.947c1.92,16.637 4.472,33.403 3.509,50.188c3.424,-1.098 6.848,-2.195 10.271,-3.293c-0.384,-2.779 -1.182,-5.438 -3.816,-6.788c-1.742,-0.893 -4.128,0.177 -5.15,1.711c-2.03,3.047 -1.672,4.878 -1.305,8.37c0.699,6.636 10.651,2.004 10.271,-3.293c-1.189,-16.575 -3.575,-32.899 -6.363,-49.272c-2.654,-15.587 -3.62,-31.581 -6.841,-47.031c-0.168,-0.813 -1.326,0.012 -1.433,0.461Z" style="fill:#010101;fill-rule:nonzero;"/></g></svg>