<?xml version="1.0" encoding="UTF-8" standalone="no"?><!DOCTYPE svg PUBLIC "-//W3C//DTD SVG 1.1//EN" "http://www.w3.org/Graphics/SVG/1.1/DTD/svg11.dtd"><svg width="100%" height="100%" viewBox="0 0 514 441" version="1.1" xmlns="http://www.w3.org/2000/svg" xmlns:xlink="http://www.w3.org/1999/xlink" xml:space="preserve" style="fill-rule:evenodd;clip-rule:evenodd;stroke-linejoin:round;stroke-miterlimit:1.41421;"><g id="bank"><path d="M461.501,146.502c-1.576,4.117 -1.328,9.277 -1.618,13.631c-0.141,2.107 -0.223,4.547 -0.941,6.551c-0.783,2.18 -2.099,3.697 -1.324,6.17c0.457,1.461 2.142,2.1 3.535,1.973c6.961,-0.635 7.123,-8.004 7.367,-13.287c0.212,-4.574 0.653,-11.979 -1.687,-16.123c-1.257,-2.227 -4.54,-0.984 -5.332,1.085Z" style="fill:#010101;fill-rule:nonzero;"/><path d="M50.796,183.284c32.278,0.066 64.604,-1.77 96.89,-2.234c32.599,-0.469 65.203,-0.602 97.805,-0.877c65.583,-0.553 131.083,-3.473 196.649,-4.419c6.638,-0.096 13.259,0.063 19.893,0.071c4.711,0.004 7.915,-8.412 1.805,-8.424c-3.568,-0.008 -6.854,0.145 -10.373,0.778c-2.716,0.489 -6.954,5.89 -2.335,6.827c3.692,0.748 7.143,0.826 10.903,0.818c0.602,-2.809 1.203,-5.617 1.805,-8.424c-33.283,0.098 -66.575,2.01 -99.833,3.203c-32.486,1.164 -64.981,1.91 -97.485,2.383c-65.109,0.945 -130.361,0.705 -195.39,4.488c-6.497,0.377 -12.955,0.865 -19.424,1.568c-2.274,0.248 -4.055,4.236 -0.91,4.242Z" style="fill:#010101;fill-rule:nonzero;"/><path d="M43.896,155.555c-1.706,4.014 -0.888,8.529 -0.421,12.727c0.256,2.299 0.529,4.598 0.749,6.9c0.212,2.229 -0.495,3.012 0.257,5.363c0.817,2.552 3.979,2.943 6.159,2.246c2.905,-0.929 4.827,-3.244 5.712,-6.072c0.895,-2.859 -0.905,-7.418 -1.611,-10.957c-0.822,-4.115 -0.977,-9.092 -3.193,-12.717c-1.846,-3.019 -6.766,0.426 -7.652,2.51Z" style="fill:#010101;fill-rule:nonzero;"/><path d="M11.157,128.358c4.679,-1.622 8.834,-4.488 13.165,-6.855c4.781,-2.613 9.572,-5.197 14.431,-7.664c10.028,-5.095 20.276,-9.778 30.525,-14.41c20.385,-9.21 41.041,-17.834 61.006,-27.947c20.844,-10.559 41.635,-21.078 62.747,-31.109c10.236,-4.863 20.452,-9.77 30.554,-14.907c4.613,-2.347 9.222,-4.7 13.781,-7.149c4.412,-2.371 9.847,-3.666 13.921,-6.486c2.499,-1.731 4.824,-4.178 4.649,-7.472c-0.143,-2.675 -2.619,-4.721 -5.31,-4.282c-1.966,0.32 -3.858,0.762 -5.729,1.443c-3.243,1.184 -6.35,4.256 -6.152,7.963c0.195,3.676 3.778,4.607 6.791,3.813c0.811,-0.215 1.498,-0.313 2.337,-0.367c-0.22,-3.918 -0.44,-7.836 -0.66,-11.754c-4.174,2.409 -7.328,6.176 -11.53,8.625c-4.447,2.594 -8.961,5.086 -13.516,7.484c-9.984,5.258 -20.161,10.158 -30.318,15.068c-21.095,10.195 -42.05,20.541 -62.85,31.318c-19.833,10.275 -40.459,18.973 -60.775,28.227c-10.272,4.68 -20.445,9.541 -30.438,14.795c-9.336,4.909 -20.826,10.012 -28.149,17.76c-1.469,1.55 -1.454,4.937 1.52,3.906Z" style="fill:#010101;fill-rule:nonzero;"/><path d="M255.359,6.116c8.1,6.109 18.063,10.094 27.096,14.638c9.365,4.712 18.698,9.485 28.034,14.255c19.595,10.014 39.156,20.088 58.84,29.928c19.641,9.818 39.446,19.289 59.459,28.326c21.02,9.49 42.703,17.465 63.702,26.945c1.7,-2.793 3.399,-5.586 5.1,-8.38c-2.758,-0.354 -5.39,-0.298 -8.15,-0.381c-2.43,-0.072 -4.795,3.253 -3.292,5.349c2.035,2.836 5.098,3.686 8.441,3.807c4.271,0.152 8.195,-7.172 3.001,-8.774c-21.661,-6.684 -42.645,-16.565 -63.302,-25.825c-20.603,-9.236 -40.963,-19.016 -61.27,-28.878c-19.304,-9.376 -38.522,-18.925 -57.79,-28.372c-9.448,-4.633 -18.917,-9.221 -28.411,-13.758c-9.451,-4.518 -19.085,-9.869 -29.287,-12.445c-1.799,-0.457 -3.867,2.283 -2.171,3.565Z" style="fill:#010101;fill-rule:nonzero;"/><path d="M60.307,182.41c-1.193,7.776 -0.283,15.706 -1.396,23.458c-0.358,2.491 1.557,3.759 3.866,3.121c10.492,-2.899 20.941,-4.496 31.825,-5.008c10.879,-0.512 23.542,-0.773 34.023,2.678c3.195,1.051 6.482,-2.882 6.51,-5.715c0.067,-6.766 0.086,-13.521 -0.924,-20.229c-0.907,-6.028 -10.25,-1.826 -9.414,3.018c1.148,6.648 1.271,13.365 1.344,20.096c2.171,-1.905 4.341,-3.81 6.511,-5.715c-12.204,-1.57 -24.009,-2.594 -36.357,-2.033c-11.564,0.525 -24.171,1.713 -34.848,6.494c1.634,0.598 3.269,1.193 4.903,1.791c-1.176,-7.553 -0.16,-15.311 -1.426,-22.889c-0.465,-2.78 -4.296,-1.166 -4.617,0.933Z" style="fill:#010101;fill-rule:nonzero;"/><path d="M377.326,175.21c-2.161,7.939 -1.307,16.36 -1.065,24.489c0.05,1.693 1.598,2.73 3.195,2.576c19.503,-1.887 42.78,-8.58 61.501,0.109c3.715,1.723 7.353,-2.008 7.647,-5.499c0.387,-4.582 0.477,-9.138 0.195,-13.728c-0.226,-3.674 0.037,-8.775 -3.615,-10.702c-3.003,-1.585 -6.053,1.423 -6.938,4.032c-1.094,3.223 0.551,6.471 0.941,9.75c0.536,4.501 0.473,9.08 0.219,13.596c2.549,-1.832 5.098,-3.666 7.647,-5.498c-9.744,-4.262 -20.507,-4.524 -30.974,-4.055c-11.688,0.523 -23.44,2.318 -34.969,4.26c1.065,0.859 2.131,1.719 3.195,2.578c-0.757,-7.619 -0.617,-15.4 -1.781,-22.959c-0.508,-3.307 -4.614,-1.094 -5.198,1.051Z" style="fill:#010101;fill-rule:nonzero;"/><path d="M48.127,405.87c15.816,-0.189 31.627,-1.438 47.441,-1.902c16.028,-0.469 32.069,-0.631 48.104,-0.637c32.235,-0.012 64.465,0.994 96.69,1.709c64.975,1.445 129.859,0.594 194.838,0.572c5.921,-0.004 11.842,0.006 17.763,0.023c2.632,0.008 5.264,0.02 7.896,0.033c3.305,0.016 6.404,0.826 9.72,0.754c0.952,-4.441 1.903,-8.883 2.855,-13.324c-2.992,0.365 -5.637,1.398 -8.535,2.117c-4.188,1.041 -9.483,11.023 -2.456,11.463c2.777,0.174 5.37,-0.055 8.136,-0.256c7.294,-0.531 12.639,-13.115 2.855,-13.324c-3.979,-0.084 -7.99,0.76 -12.03,0.805c-3.961,0.043 -7.922,0.094 -11.882,0.146c-8.582,0.117 -17.163,0.26 -25.745,0.41c-16.479,0.287 -32.963,0.436 -49.444,0.604c-32.336,0.33 -64.661,0.363 -96.995,-0.189c-64.36,-1.1 -128.797,-3.277 -193.127,0.111c-11.474,0.604 -23.001,1.234 -34.375,2.914c-4.15,0.613 -7.696,8.041 -1.709,7.971Z" style="fill:#010101;fill-rule:nonzero;"/><path d="M40.95,401.002c-0.573,6.049 0.659,12.117 0.415,18.213c-0.143,3.561 -0.267,7.121 -0.387,10.684c-0.048,1.428 -0.167,2.852 -0.271,4.277c0.36,-4.891 -0.304,0.609 -0.204,1.895c0.617,7.98 12.921,2.475 12.422,-3.982c-0.251,-3.254 -3.331,-5.332 -6.458,-4.332c-3.558,1.139 -5.705,4.793 -5.964,8.314c-0.257,3.482 3.966,4.473 6.518,3.658c3.461,-1.107 5.645,-4.115 5.904,-7.641c0.1,-1.346 -0.234,-2.346 -0.969,-3.506c1.799,2.844 0.64,0.34 0.521,-1.559c-0.233,-3.736 -0.26,-7.496 -0.414,-11.238c-0.252,-6.119 -0.716,-12.629 -4.093,-17.93c-1.819,-2.855 -6.794,0.753 -7.02,3.147Z" style="fill:#010101;fill-rule:nonzero;"/><path d="M44.893,438.243c5.236,2.871 10.806,2.223 16.662,2.348c7.119,0.152 14.246,0.113 21.365,0.141c14.389,0.059 28.783,-0.166 43.171,-0.295c30.152,-0.268 60.304,-0.609 90.456,-0.857c63.042,-0.52 126.1,0.291 189.122,-1.703c22.772,-0.719 45.563,-2.533 68.322,-2.842c7.426,-0.102 12.402,-13.594 2.838,-13.242c-2.777,0.102 -5.405,0.453 -8.14,0.939c-2.811,0.5 -5.259,2.029 -6.512,4.693c-1.238,2.633 -0.535,5.967 2.646,6.604c3.084,0.617 6.026,0.889 9.167,1.006c0.946,-4.414 1.892,-8.828 2.838,-13.242c-32.394,4.137 -65.599,4.451 -98.233,5.326c-32.282,0.867 -64.569,0.934 -96.859,1.102c-59.886,0.314 -119.761,1.529 -179.642,2.232c-9.561,0.113 -19.12,0.244 -28.681,0.404c-8.86,0.146 -18.557,-0.922 -26.836,2.486c-1.567,0.646 -4.116,3.568 -1.684,4.9Z" style="fill:#010101;fill-rule:nonzero;"/><path d="M475.464,397.911c-1.183,4.949 -0.994,10.205 -1.308,15.266c-0.164,2.646 -0.548,5.273 -1.162,7.852c-0.92,3.861 4.582,-3.738 0.283,0.035c-0.973,0.848 -1.738,1.85 -2.297,3.01c-0.862,2.342 -0.72,2.172 0.428,-0.506c-4.415,5.334 1.061,9.664 6.388,7.279c-0.196,0.107 -0.392,0.215 -0.588,0.322c2.702,-0.803 5.783,-3.568 6.133,-6.52c-0.162,1.371 0.429,-1.561 0.532,-1.92c0.331,-1.152 0.406,-2.426 0.519,-3.611c0.253,-2.684 0.217,-5.342 0.059,-8.029c-0.301,-5.113 -0.915,-10.393 -2.378,-15.307c-1.086,-3.655 -6.084,-0.067 -6.609,2.129Z" style="fill:#010101;fill-rule:nonzero;"/><path d="M56.843,398.557c1.3,-4.072 1.23,-8.057 1.229,-12.287c-0.001,-3.623 -0.89,-10.354 1.392,-13.408c-1.724,0.783 -3.447,1.566 -5.172,2.35c4.424,1.428 9.42,1.223 14.038,1.318c5.703,0.119 11.403,-0.193 17.081,-0.699c10.811,-0.965 21.481,-2.957 32.121,-5.035c-1.375,-1.109 -2.749,-2.219 -4.124,-3.326c-0.035,9.486 1.694,19.199 -1.795,28.229c-2.193,5.676 3.726,7.275 7.604,4.166c4.742,-3.801 5.098,-10.352 5.332,-15.967c0.275,-6.592 -0.61,-13.174 -0.755,-19.758c-0.067,-3.049 -3.097,-3.568 -5.449,-3.059c-10.18,2.203 -20.478,3.893 -30.838,4.967c-5.065,0.525 -10.157,0.826 -15.247,0.965c-5.036,0.135 -10.141,-0.547 -15.146,-0.051c-3.003,0.299 -5.936,3.385 -5.007,6.496c0.485,1.625 -0.371,4.061 -0.463,5.742c-0.133,2.434 -0.163,4.852 -0.112,7.289c0.094,4.436 0.15,9.029 1.852,13.184c0.769,1.878 3.085,0.058 3.459,-1.116Z" style="fill:#010101;fill-rule:nonzero;"/><path d="M388.504,395.299c1.398,-4.686 1.215,-9.617 1.402,-14.465c0.2,-5.156 0.4,-10.314 0.6,-15.473c-2.601,1.871 -5.201,3.74 -7.802,5.609c22.941,8.438 48.358,5.967 72.331,6.307c-1.406,-1.135 -2.813,-2.268 -4.219,-3.402c-0.012,3.287 0.207,6.57 0.32,9.854c0.052,1.486 0.114,3.018 -0.015,4.5c-0.07,0.811 -1.292,3.557 -0.924,2.883c-1.865,3.408 1.304,7.381 5.046,5.748c10.284,-4.482 6.468,-17.514 6.199,-26.391c-0.072,-2.363 -2.109,-3.441 -4.219,-3.404c-23.042,0.422 -47.057,2.756 -69.31,-4.656c-3.228,-1.074 -6.911,2.988 -6.792,5.961c0.199,5.029 0.399,10.059 0.6,15.09c0.18,4.535 -0.078,9.225 1.473,13.551c1.054,2.933 4.789,0.038 5.31,-1.712Z" style="fill:#010101;fill-rule:nonzero;"/><path d="M68.474,205.398c-2.554,6.103 -2.384,12.418 -2.552,18.938c-0.202,7.811 -0.412,15.621 -0.525,23.436c-0.201,14.027 -0.631,28.082 -0.277,42.109c0.322,12.771 1.165,25.521 1.28,38.299c0.116,12.811 -0.016,26.602 -4.453,38.779c3.655,-0.295 7.312,-0.592 10.967,-0.887c-0.409,-4.525 -2.468,-7.984 -7.276,-8.143c-1.654,-0.053 -3.563,1.541 -4.158,2.998c-1.31,3.203 -0.251,5.59 -0.137,8.854c0.254,7.262 10.457,2.393 11.453,-2.314c5.317,-25.105 3.086,-50.332 1.59,-75.709c-0.838,-14.213 -0.727,-28.463 -0.934,-42.693c-0.112,-7.701 -0.277,-15.398 -0.479,-23.1c-0.18,-6.857 0.764,-14.75 -2.594,-20.955c-0.446,-0.824 -1.607,-0.322 -1.905,0.388Z" style="fill:#010101;fill-rule:nonzero;"/><path d="M112.071,199.42c-1.435,12.707 -1.204,25.615 -1.656,38.387c-0.493,13.92 -1.064,27.838 -1.754,41.75c-1.398,28.201 -2.871,56.471 -5.393,84.598c3.254,-1.891 6.508,-3.781 9.762,-5.674c-1.458,-0.65 -2.424,-1.865 -3.929,-2.488c-4.256,-1.764 -9.648,2.777 -8.323,7.305c0.695,2.375 1.945,4.676 4.373,5.586c4.723,1.768 9.723,-2.23 9.882,-7.105c0.886,-27.088 2.229,-54.15 2.838,-81.25c0.31,-13.785 0.501,-27.576 0.548,-41.367c0.046,-13.523 0.698,-27.394 -0.912,-40.838c-0.393,-3.286 -5.158,-1.366 -5.436,1.096Z" style="fill:#010101;fill-rule:nonzero;"/><path d="M386.576,197.295c-1.5,13.961 -0.911,28.141 -0.948,42.174c-0.041,15.604 -0.01,31.207 -0.02,46.813c-0.01,14.395 0.18,28.793 0.289,43.189c0.051,6.566 0.082,13.135 0.091,19.703c0.005,4.26 -2.395,15.084 2.866,16.922c1.743,0.609 3.399,0.244 4.806,-1c4.911,-4.346 3.313,-10.701 3.226,-16.539c-0.098,-6.449 -0.23,-12.898 -0.373,-19.348c-0.328,-14.764 -0.693,-29.535 -1.281,-44.291c-0.592,-14.854 -1.148,-29.709 -1.631,-44.568c-0.476,-14.66 -0.002,-29.564 -1.686,-44.135c-0.373,-3.222 -5.08,-1.343 -5.339,1.08Z" style="fill:#010101;fill-rule:nonzero;"/><path d="M436.079,192.067c-8.295,-1.375 -8.783,18.074 -8.893,22.607c-0.289,11.949 2.203,23.809 2.555,35.73c0.584,19.803 0.284,39.674 0.766,59.492c0.512,21.07 0.66,42.105 0.214,63.18c2.464,-2.621 4.929,-5.24 7.394,-7.859c-2.445,-0.053 -4.689,-0.576 -7.149,-0.518c-3.431,0.084 -6.808,4.486 -4.659,7.57c1.879,2.699 4.621,4.031 7.801,4.664c4.527,0.9 8.736,-3.537 8.876,-7.789c1.276,-38.887 -2.631,-77.867 -3.495,-116.732c-0.24,-10.781 -2.158,-21.381 -3.219,-32.098c-0.559,-5.647 -0.93,-11.328 -0.893,-17.002c0.023,-3.576 1.415,-7.354 1.15,-10.736c-0.022,-0.254 -0.189,-0.466 -0.448,-0.509Z" style="fill:#010101;fill-rule:nonzero;"/><path d="M296.21,201.608c-8.932,-8.584 -20.758,-11.592 -32.798,-13.11c-12.971,-1.636 -26.126,-0.692 -38.85,2.155c-21.828,4.885 -40.027,18.16 -52.514,36.545c-12.26,18.051 -18.604,39.547 -19.99,61.193c-1.298,20.262 2.373,40.93 14.818,57.355c12.387,16.348 31.586,27.006 50.658,33.553c19.188,6.588 39.408,9.266 59.625,7.482c22.034,-1.943 42.129,-11.613 56.798,-28.186c13.774,-15.563 20.521,-36.574 22.696,-56.918c2.273,-21.248 -1.729,-41.672 -10.097,-61.285c-6.858,-16.076 -22.312,-40.957 -43.307,-31.854c-2.274,0.985 -4.286,2.577 -4.836,5.14c-0.563,2.632 1.312,4.833 4.021,4.582c16.097,-1.486 25.451,14.195 31.297,26.9c6.665,14.486 11.464,31.033 11.25,47.088c-0.269,20.236 -5.121,41.264 -17.451,57.652c-12.631,16.791 -32.149,23.828 -52.496,25.316c-19.896,1.455 -40.571,-2.768 -58.91,-10.375c-18.216,-7.555 -35.944,-19.678 -45.141,-37.629c-9.247,-18.051 -8.485,-41.023 -4.531,-60.361c4.176,-20.42 14.081,-39.99 30.242,-53.453c12.395,-10.325 28.747,-14.906 44.526,-16.529c18.264,-1.877 35.695,2.334 53.158,7.135c1.05,0.289 2.817,-1.449 1.832,-2.396Z" style="fill:#010101;fill-rule:nonzero;"/><path d="M290.042,265.918c7.157,-16.521 -12.63,-30.805 -26.204,-35.256c-16.535,-5.422 -34.234,-1.123 -43.503,14.236c-4.398,7.289 -5.245,18.033 -2.149,25.902c3.063,7.781 10.718,12.443 18.176,15.258c14.957,5.646 36.266,4.541 44.049,20.805c2.707,5.656 1.51,11.477 -1.563,15.693c-3.373,4.629 -9.768,7.738 -16.764,8.391c-7.437,0.691 -16.346,-1.07 -22.742,-4.904c-2.599,-1.559 -5.053,-4.814 -6.349,-7.51c-0.716,-1.49 -1.229,-3.068 -1.432,-4.705c0.031,-1.111 -0.005,-1.377 -0.109,-0.797c-0.092,0.189 -0.184,0.381 -0.276,0.57c1.146,-1.936 0.231,-1.109 -2.743,2.479c3.835,-2.553 9.473,-12.602 1.122,-13.701c-6.272,-0.826 -12.479,3.043 -14.656,9.014c-2.049,5.617 -1.234,11.422 1.063,16.85c4.576,10.816 14.98,16.281 25.942,18.521c22.764,4.65 49.144,-5.34 56.339,-29.139c3.207,-10.609 0.138,-21.295 -7.148,-29.434c-6.329,-7.068 -14.487,-9.973 -23.403,-12.24c-7.837,-1.992 -15.956,-3.314 -23.401,-6.578c-6.834,-2.994 -10.858,-6.842 -10.767,-14.275c0.04,-3.27 0.774,-5.156 1.953,-7.377c-1.126,2.121 2.534,-2.6 0.398,-0.471c0.296,-0.295 2.287,-1.85 0.33,-0.457c0.622,-0.443 1.294,-0.811 1.963,-1.178c0.925,-0.453 0.915,-0.459 -0.032,-0.018c0.727,-0.301 1.48,-0.527 2.231,-0.752c1.791,-0.541 1.095,-0.352 3.481,-0.58c3.271,-0.311 5.723,0.014 9.277,0.754c6.182,1.285 12.498,4.324 17.325,8.398c5.083,4.289 7.801,10.68 12.791,14.73c2.3,1.867 5.685,0.348 6.801,-2.229Z" style="fill:#010101;fill-rule:nonzero;"/><path d="M250.278,207.334c-3.82,6.691 -4.443,15.129 -4.917,22.688c-0.547,8.727 -0.501,17.488 -0.378,26.227c0.24,16.885 1.064,33.787 2.014,50.646c0.635,11.281 1.646,22.574 1.805,33.875c0.064,4.604 0.059,9.207 -0.264,13.801c-0.127,1.816 -1.533,6.512 -0.832,9.533c-0.072,-1.291 -0.144,-2.584 -0.216,-3.875c2.278,-2.457 4.556,-4.914 6.833,-7.373c-4.378,1.834 -8.188,5.875 -6.811,10.943c2.033,7.48 12.717,2.531 15.351,-1.58c3.028,-4.729 3.339,-9.807 3.659,-15.285c0.604,-10.334 -0.429,-20.561 -1.215,-30.844c-1.416,-18.545 -2.975,-37.078 -4.426,-55.619c-0.714,-9.135 -1.602,-18.244 -2.009,-27.4c-0.215,-4.83 -0.204,-9.666 -0.376,-14.498c-0.152,-4.293 0.157,-8.541 -1.289,-12.65c-1.265,-3.594 -5.827,-0.521 -6.929,1.411Z" style="fill:#010101;fill-rule:nonzero;"/><path d="M5.17,125.352c-2.301,5.637 -1.565,12.203 -2.218,18.158c0.825,-1.34 1.649,-2.68 2.475,-4.021c-2.291,2.215 -4.972,6.949 -2.063,9.859c2.815,2.816 7.896,0.986 9.841,-2.045c1.678,-2.613 3.03,-7.629 -0.855,-9.254c0.643,1.058 1.285,2.115 1.928,3.174c-0.623,-5.318 0.428,-12.453 -2.114,-17.297c-1.597,-3.045 -5.935,-1.168 -6.994,1.426Z" style="fill:#010101;fill-rule:nonzero;"/><path d="M7.129,132.452c4.98,3.606 11.904,4.317 17.833,4.896c9.239,0.904 18.629,0.619 27.889,0.256c19.117,-0.752 38.14,-2.92 57.243,-3.84c12.758,-0.613 25.619,-0.082 38.387,0.031c16.283,0.143 32.564,0.365 48.848,0.563c32.619,0.395 65.232,0.49 97.854,0.26c34.801,-0.246 69.607,-0.418 104.406,-0.855c17.098,-0.216 34.195,-0.404 51.294,-0.535c8.542,-0.066 17.037,0.174 25.572,0.504c4.688,0.182 9.41,0.229 14.08,0.678c1.417,0.137 3.06,0.475 4.482,0.348c2.788,-0.248 3.118,0.652 -0.108,-0.799c-0.202,-2.951 -0.403,-5.9 -0.604,-8.85c2.417,-2.029 2.872,-2.492 1.363,-1.389c-2.817,1.975 -5.884,5.391 -4.438,9.164c1.337,3.487 5.891,3.41 8.604,1.73c1.784,-1.105 3.553,-2.188 4.841,-3.9c1.929,-2.566 2.799,-7.008 -0.604,-8.85c-3.953,-2.141 -11.095,0.055 -15.222,0.23c-8.654,0.367 -17.306,0.82 -25.961,1.156c-16.41,0.638 -32.925,0.266 -49.349,0.458c-32.88,0.386 -65.746,1.241 -98.626,1.595c-65.382,0.701 -130.732,-0.857 -196.107,-0.563c-18.498,0.084 -37.047,2.877 -55.486,4.147c-10.191,0.702 -20.422,1.192 -30.637,0.888c-6.58,-0.197 -14.809,-0.244 -20.574,-3.895c-3.37,-2.131 -8.598,3.952 -4.98,6.572Z" style="fill:#010101;fill-rule:nonzero;"/><path d="M100.384,107.93c8.174,1.17 16.071,-2.021 23.542,-5.039c8.758,-3.537 17.156,-7.91 25.432,-12.441c13.794,-7.555 27.635,-15.084 41.34,-22.789c11.41,-6.415 22.586,-13.234 34.026,-19.598c5.137,-2.856 10.336,-5.607 15.689,-8.037c0.872,-0.396 1.767,-0.746 2.658,-1.098c0.435,-0.168 0.871,-0.33 1.311,-0.484c0.534,-0.193 -1.224,-0.594 -0.319,-0.123c1.216,0.634 2.855,0.581 4.137,0.172c0.973,-0.322 1.844,-0.822 2.611,-1.502c-1.176,0.922 -0.42,0.297 -0.056,0.109c2.068,-1.064 4.215,-4.486 2.303,-6.612c-3.497,-3.89 -7.358,-0.091 -10.384,1.116c-5.291,2.111 -10.318,4.859 -15.318,7.57c-12.003,6.506 -23.684,13.62 -35.417,20.596c-12.71,7.555 -25.768,14.539 -38.594,21.898c-8.486,4.869 -17.072,9.571 -25.938,13.717c-8.752,4.092 -18.107,6.578 -26.865,10.617c-0.662,0.305 -1.242,1.772 -0.158,1.928Z" style="fill:#010101;fill-rule:nonzero;"/><path d="M249.105,34.446c23.255,12.374 46.61,24.492 69.562,37.463c11.531,6.516 23.102,12.947 34.784,19.188c6.095,3.258 12.226,6.447 18.388,9.576c2.791,1.416 5.596,2.807 8.404,4.189c3.049,1.5 8.279,2.898 10.282,5.787c2.563,-2.75 5.126,-5.5 7.689,-8.25c-3.067,-1.273 -5.794,-0.273 -8.862,0.457c-2.206,0.525 -4.575,4.271 -2,5.818c1.979,1.191 2.98,3.576 6.412,3.129c5.195,-0.676 9.444,-10.027 2.109,-9.844c-2.783,0.07 -6.091,-2.268 -8.537,-3.416c-2.84,-1.332 -5.664,-2.697 -8.485,-4.067c-6.228,-3.026 -12.403,-6.155 -18.562,-9.319c-11.813,-6.071 -23.52,-12.348 -35.282,-18.514c-23.962,-12.557 -47.88,-26.035 -73.107,-35.887c-1.976,-0.771 -5.081,2.474 -2.795,3.69Z" style="fill:#010101;fill-rule:nonzero;"/><path d="M103.14,108.838c23.144,2.199 46.657,-0.916 69.838,-2.004c23.998,-1.127 47.813,-0.084 71.796,0.768c48.775,1.73 97.808,1.707 146.458,5.701c1.229,-3.594 2.459,-7.188 3.688,-10.783c-3.803,-0.064 -7.252,0.578 -10.924,1.521c-3.414,0.875 -6.19,6.623 -1.71,7.977c3.503,1.059 6.657,1.41 10.31,1.348c6.139,-0.104 10.078,-11.395 2.324,-10.846c-23.711,1.682 -47.908,-0.58 -71.637,-1.406c-24.25,-0.847 -48.505,-1.447 -72.764,-1.926c-24.066,-0.475 -48.199,-0.764 -72.235,0.68c-24.579,1.476 -49.312,2.709 -73.799,5.035c-1.674,0.158 -3.908,3.691 -1.345,3.935Z" style="fill:#010101;fill-rule:nonzero;"/><path d="M2.776,157.895c15.028,2.906 31.104,1.967 46.348,1.816c16.098,-0.16 32.207,-1.035 48.277,-1.906c32.344,-1.75 64.652,-4.139 97.027,-5.276c32.446,-1.14 64.942,-0.491 97.402,-0.796c32.527,-0.305 64.984,-1.317 97.451,-3.301c12.503,-0.764 25.019,-1.244 37.543,-0.785c8.905,0.326 17.792,1.84 26.62,2.961c9.277,1.18 18.463,2.477 27.828,2.736c3.936,0.109 7.87,-0.084 11.771,-0.615c2.039,-0.277 4.066,-0.736 6.059,-1.246c1.688,-0.432 3.771,0.279 5.49,0.408c4.332,0.326 8.852,-3.072 8.759,-7.686c-0.143,-7.088 -2.945,-13.791 -9.561,-17.025c-5.538,-2.709 -13.784,6.373 -7.834,10.34c3.507,2.34 5.04,6.529 5.295,10.564c2.432,-2.584 4.864,-5.169 7.296,-7.754c-2.529,-0.084 -4.959,-0.504 -7.494,-0.182c-2.318,0.294 -4.54,1.297 -6.856,1.703c-5.876,1.033 -11.945,0.988 -17.887,0.801c-12.368,-0.389 -24.587,-2.455 -36.866,-3.789c-30.674,-3.335 -62.111,1.279 -92.829,2.307c-64.944,2.174 -129.874,0.297 -194.772,4.119c-24.574,1.447 -49.137,3.126 -73.731,4.216c-12.196,0.54 -24.401,0.886 -36.606,1.122c-12.141,0.234 -24.393,-0.449 -36.484,0.709c-2.827,0.27 -6.515,5.733 -2.246,6.559Z" style="fill:#010101;fill-rule:nonzero;"/></g></svg>