<?xml version="1.0" encoding="UTF-8" standalone="no"?><!DOCTYPE svg PUBLIC "-//W3C//DTD SVG 1.1//EN" "http://www.w3.org/Graphics/SVG/1.1/DTD/svg11.dtd"><svg width="100%" height="100%" viewBox="0 0 325 502" version="1.1" xmlns="http://www.w3.org/2000/svg" xmlns:xlink="http://www.w3.org/1999/xlink" xml:space="preserve" style="fill-rule:evenodd;clip-rule:evenodd;stroke-linejoin:round;stroke-miterlimit:1.41421;"><g id="basketball"><path d="M11.176,283.491c50.474,0.607 101.047,4.561 151.502,1.439c24.591,-1.521 49.101,-3.848 73.724,-5.002c25.116,-1.178 50.262,-1.738 75.405,-1.753c4.1,-0.003 8.185,-3.579 9.837,-7.092c1.684,-3.578 0.98,-9.557 -3.999,-9.975c-5.569,-0.466 -9.481,-1.602 -14.642,1.493c-3.467,2.08 -5.824,6.211 -3.457,9.929c2.335,3.666 5.731,5.179 10.101,5.545c1.946,-5.688 3.893,-11.378 5.838,-17.066c-24.498,0.015 -48.989,0.575 -73.464,1.665c-25.275,1.124 -50.431,3.43 -75.665,5.091c-50.519,3.323 -101.039,-1.593 -151.574,-1.103c-9.392,0.091 -15.828,16.682 -3.606,16.829Z" style="fill:#010101;fill-rule:nonzero;"/><path d="M64.68,358.034c-1.378,10.848 -0.766,22.002 -0.807,32.918c-0.045,11.771 -0.088,23.542 -0.132,35.313c-0.084,22.568 -0.233,45.165 -0.85,67.718c4.4,-1.946 8.801,-3.893 13.201,-5.839c-0.865,-3.967 -4.93,-5.584 -8.65,-4.395c-4.397,1.406 -5.138,6.395 -4.551,10.233c1.349,8.825 13.704,2.521 13.513,-4.332c-0.604,-21.724 -0.639,-43.479 -0.839,-65.218c-0.103,-11.087 -0.087,-22.177 -0.128,-33.266c-0.043,-11.59 0.855,-23.66 -0.719,-35.161c-0.827,-6.06 -9.459,-2.524 -10.038,2.029Z" style="fill:#010101;fill-rule:nonzero;"/><path d="M253.515,349.67c-8.456,2.834 -7.896,17.637 -8.06,24.666c-0.249,10.732 1.329,21.462 1.261,32.203c-0.1,15.696 -0.701,31.384 -0.943,47.078c-0.121,7.864 -0.111,15.729 0.064,23.593c0.152,6.802 -0.424,13.635 0.464,20.406c1.124,8.58 14.716,2.564 13.361,-4.283c-0.503,-2.54 -1.037,-3.632 -3.09,-5.239c-3.603,-2.82 -9.569,2.404 -10.121,5.882c-0.198,1.246 -0.312,2.386 -0.15,3.641c4.351,-1.925 8.702,-3.849 13.053,-5.773c-1.683,-5.42 -1.857,-11.153 -1.889,-16.792c-0.042,-7.723 -0.261,-15.438 -0.219,-23.163c0.082,-14.999 0.597,-29.991 0.659,-44.99c0.045,-10.66 -0.953,-21.224 -1.441,-31.862c-0.221,-4.823 -0.445,-9.668 -0.225,-14.494c0.14,-3.055 1.898,-7.828 -0.313,-10.398c-0.585,-0.685 -1.612,-0.743 -2.411,-0.475Z" style="fill:#010101;fill-rule:nonzero;"/><path d="M24.139,281.548c2.229,2.581 3.855,5.603 6.003,8.244c2.521,3.101 5.35,5.963 7.858,9.089c5.651,7.043 10.923,14.288 15.255,22.228c4.218,7.729 7.638,15.856 9.616,24.453c0.878,3.813 1.139,7.807 1.055,11.708c-0.039,1.807 -0.207,3.604 -0.25,5.408c-0.043,1.781 0.936,2.748 1.251,4.336c0.54,2.724 3.411,1.703 4.763,0.231c3.25,-3.536 4.842,-6.227 5.382,-11.114c0.478,-4.324 -0.045,-8.708 -0.845,-12.96c-1.773,-9.431 -5.538,-18.289 -10.17,-26.649c-4.719,-8.517 -10.606,-16.566 -17.332,-23.601c-3.031,-3.169 -6.47,-5.938 -9.961,-8.577c-3.281,-2.479 -7.442,-3.395 -11.332,-4.49c-0.789,-0.222 -1.907,0.984 -1.293,1.694Z" style="fill:#010101;fill-rule:nonzero;"/><path d="M295.921,271.537c-4.098,0.377 -7.209,3.541 -10.405,5.827c-4.109,2.939 -7.789,7.631 -11.164,11.374c-6.95,7.708 -13.119,15.683 -17.78,24.993c-4.045,8.082 -6.368,16.959 -8.259,25.755c-1.9,8.842 -4.877,18.688 -1.786,27.389c0.721,2.027 3.516,0.835 4.387,-0.355c2.678,-3.66 4.275,-6.792 5.606,-11.161c1.212,-3.98 1.712,-8.253 2.487,-12.334c1.591,-8.375 3.592,-16.607 6.66,-24.572c3.503,-9.094 9.063,-16.672 15.208,-24.138c3.055,-3.712 6.146,-7.382 9.363,-10.954c2.591,-2.878 6.115,-6.679 6.707,-10.656c0.1,-0.67 -0.3,-1.235 -1.024,-1.168Z" style="fill:#010101;fill-rule:nonzero;"/><path d="M115.924,283.15c-3.273,8.831 2.062,20.05 3.737,28.842c1.371,7.193 1.497,14.831 2.028,22.126c0.536,7.344 0.982,14.641 0.517,21.982c-0.462,7.279 13.572,2.993 12.218,-3.916c-0.467,-2.385 -1,-4.005 -3.395,-4.959c-1.714,-0.682 -3.602,-0.244 -4.954,1.03c-1.976,1.862 -3.261,3.651 -3.745,6.372c-1.557,8.741 12.605,5.287 12.094,-2.443c-0.927,-14.006 -3.197,-28.31 -5.607,-42.152c-0.809,-4.645 -2.637,-9.13 -4.147,-13.574c-1.599,-4.701 -2.756,-9.497 -4.066,-14.26c-0.643,-2.335 -4.147,-0.486 -4.68,0.952Z" style="fill:#010101;fill-rule:nonzero;"/><path d="M209.859,276.284c-12.463,7.549 -18.644,22.12 -23.114,35.498c-2.919,8.734 -3.637,18.271 -5.39,27.284c-0.826,4.252 -0.412,10.101 -1.337,13.657c1.378,-1.789 2.755,-3.577 4.133,-5.365c-0.023,0.014 -0.048,0.027 -0.071,0.041c2.565,0.517 5.132,1.032 7.697,1.549c-0.426,-0.796 -0.801,-1.595 -1.34,-2.342c-3.145,-4.362 -9.502,1.313 -10.384,4.655c-0.403,1.527 -0.407,2.824 0.056,4.337c0.752,2.455 4.031,3.055 6.136,2.238c6.374,-2.474 6.115,-8.073 6.097,-13.766c-0.025,-7.512 2.142,-15.389 3.049,-22.872c0.99,-8.158 3.191,-15.725 6.285,-23.312c2.655,-6.512 5.332,-14.244 9.762,-19.806c0.975,-1.223 -0.237,-2.609 -1.579,-1.796Z" style="fill:#010101;fill-rule:nonzero;"/><path d="M128.071,352.199c-4.709,2.659 -8.399,8.155 -12.209,11.958c-4.665,4.655 -8.877,9.681 -13.333,14.53c-9.924,10.802 -20.858,20.622 -31.544,30.652c-5.126,4.812 -1.739,12.124 5.186,8.646c3.221,-1.619 5.656,-4.055 6.444,-7.638c0.346,-1.573 -0.467,-3.7 -2.335,-3.819c-2.952,-0.189 -5.142,0.561 -7.819,1.756c1.729,2.883 3.457,5.764 5.186,8.646c11.277,-11.053 22.727,-21.942 33.279,-33.704c4.73,-5.271 9.109,-10.791 13.929,-15.994c3.061,-3.304 8.895,-9.264 6.98,-14.275c-0.598,-1.567 -2.555,-1.441 -3.764,-0.758Z" style="fill:#010101;fill-rule:nonzero;"/><path d="M187.347,353.612c-5.479,-0.332 -11.131,5.031 -15.082,8.352c-5.762,4.842 -11.12,10.068 -16.374,15.449c-11.203,11.474 -22.537,22.779 -33.91,34.084c-11.443,11.375 -22.652,22.999 -33.236,35.183c-4.655,5.358 -8.66,11.748 -13.613,16.761c-3.273,3.313 -7.512,7.189 -7.857,12.086c-0.179,2.521 2.654,4.299 4.908,3.959c0.064,-0.01 0.129,-0.02 0.194,-0.029c3.402,-0.514 6.575,-2.931 7.324,-6.428c0.654,-3.055 -1.55,-5.844 -4.78,-5.447c-0.064,0.008 -0.129,0.016 -0.193,0.023c1.595,1.817 3.188,3.634 4.783,5.45c-0.243,2.429 -1.206,2.378 0.224,0.615c0.661,-0.814 1.368,-1.593 2.067,-2.374c1.617,-1.805 3.201,-3.519 4.679,-5.458c4.429,-5.815 9.087,-11.45 13.858,-16.985c9.765,-11.326 20.197,-22.06 30.697,-32.7c9.971,-10.104 20.068,-20.046 29.583,-30.587c4.693,-5.201 9.429,-10.377 14.311,-15.403c2.341,-2.411 4.906,-4.592 7.338,-6.907c2.182,-2.076 4.987,-4.236 6.111,-7.068c0.362,-0.913 0.307,-2.494 -1.032,-2.576Z" style="fill:#010101;fill-rule:nonzero;"/><path d="M183.918,353.738c5.232,16.246 19.865,26.464 31.128,38.558c10.985,11.795 20.402,25.368 33.243,35.302c1.759,-3.716 3.518,-7.433 5.275,-11.148c-1.584,0.151 -2.695,0.656 -4.167,1.196c-2.801,1.027 -7.779,6.921 -3.13,9.102c1.163,0.545 1.975,1.168 3.328,1.305c5.256,0.528 12.586,-6.943 6.744,-11.081c-12.728,-9.014 -22.246,-20.819 -33.082,-31.881c-5.651,-5.769 -11.94,-10.866 -17.718,-16.51c-6.195,-6.051 -11.868,-12.125 -18.689,-17.416c-1.354,-1.053 -3.358,1.247 -2.932,2.573Z" style="fill:#010101;fill-rule:nonzero;"/><path d="M124.703,357.293c9.756,17.632 24.259,32.196 38.021,46.865c12.39,13.207 24.804,26.324 37.598,39.139c8.565,8.578 16.874,17.373 24.951,26.409c3.685,4.122 7.321,8.288 10.847,12.547c1.42,1.716 2.806,3.46 4.135,5.248c0.139,0.187 1.268,1.974 0.914,1.366c0.99,1.699 -0.018,1.82 0.523,-0.842c2.863,-2.064 5.728,-4.13 8.592,-6.195c-2.501,-0.175 -4.227,0.446 -6.305,1.768c-2.525,1.604 -4.199,4.431 -2.513,7.213c0.829,1.367 1.722,2.261 3.427,2.455c3.645,0.414 8.047,-2.344 8.592,-6.195c0.538,-3.805 -2.131,-6.548 -4.303,-9.362c-3.36,-4.356 -7.045,-8.473 -10.702,-12.579c-7.669,-8.608 -15.565,-16.978 -23.763,-25.086c-13.238,-13.095 -26.425,-26.16 -39.408,-39.511c-15.16,-15.59 -29.413,-32.4 -45.685,-46.751c-1.941,-1.712 -6.275,1.066 -4.921,3.511Z" style="fill:#010101;fill-rule:nonzero;"/><path d="M119.025,484.844c-0.282,0.046 -0.565,0.093 -0.849,0.139c0.941,0.525 1.884,1.052 2.825,1.577c-0.075,-0.188 -0.15,-0.378 -0.226,-0.566c-1.748,-4.384 -7.771,0.149 -7.771,3.438c0,1.703 0.194,3.333 1.844,4.251c1.867,-2.464 3.733,-4.929 5.601,-7.393c-1.267,-0.682 -2.299,-0.789 -3.722,-0.726c0.596,2.766 1.19,5.531 1.786,8.297c25.925,-21.745 48.061,-47.661 72.638,-70.85c12.335,-11.637 26.467,-21.239 38.698,-32.941c4.776,-4.57 9.191,-9.518 14.069,-13.977c2.784,-2.545 6.276,-5 8.265,-8.235c-2.395,-1.294 -4.789,-2.588 -7.184,-3.882c-0.062,0.101 -0.123,0.201 -0.186,0.302c-2.531,4.121 0.348,7.895 4.922,5.609c0.105,-0.053 0.209,-0.104 0.314,-0.156c5.455,-2.727 3.325,-10.743 -2.917,-7.627c-3.175,1.585 -5.665,4.428 -8.262,6.805c-5.108,4.677 -9.791,9.798 -14.757,14.628c-12.117,11.786 -26.27,21.439 -38.669,32.974c-24.782,23.052 -47.526,48.104 -72.662,70.821c-6.214,5.616 1.689,11.559 6.794,5.389c-0.214,0.21 -0.428,0.421 -0.643,0.631c2.604,-1.454 4.675,-6.353 0.604,-7.376c0.412,0.005 0.824,0.012 1.236,0.019c-2.144,1.881 -4.287,3.762 -6.431,5.643c0.183,0.095 0.366,0.188 0.549,0.283c1.507,0.775 3.39,0.116 4.571,-0.951c0.245,-0.222 0.49,-0.442 0.735,-0.664c1.712,-1.544 2.421,-6.054 -1.172,-5.462Z" style="fill:#010101;fill-rule:nonzero;"/><path d="M187.987,492.191c1.296,0 2.702,-0.81 3.64,-1.632c1.008,-0.885 1.807,-2.071 2.09,-3.396c0.235,-1.098 0.081,-2.301 -0.683,-3.172c-0.813,-0.926 -1.897,-1.089 -3.057,-1.089c-1.296,0 -2.702,0.81 -3.64,1.632c-1.008,0.885 -1.807,2.071 -2.09,3.396c-0.235,1.098 -0.081,2.301 0.683,3.172c0.814,0.926 1.898,1.089 3.057,1.089Z" style="fill:#010101;fill-rule:nonzero;"/><path d="M73.271,369.526c-1.191,7.503 6.922,16.075 11.294,21.229c6.466,7.622 13.697,14.532 20.773,21.577c13.59,13.529 26.067,28.377 39.197,42.367c13.32,14.193 26.649,28.411 39.873,42.68c1.84,-2.99 3.681,-5.98 5.521,-8.971c-2.833,-0.104 -4.911,0.716 -7.123,2.431c-1.178,0.914 -2.146,2.886 -1.521,4.365c0.98,2.324 2.778,3.009 5.188,3.307c3.758,0.466 10.655,-5.04 6.799,-8.911c-26.259,-26.356 -51.746,-53.633 -77.473,-80.533c-6.595,-6.896 -13.926,-13.148 -20.813,-19.755c-4.002,-3.839 -7.916,-7.758 -11.728,-11.786c-2.049,-2.164 -5.823,-5.615 -6.245,-8.757c-0.305,-2.288 -3.477,-0.909 -3.742,0.757Z" style="fill:#010101;fill-rule:nonzero;"/><path d="M191.558,490.815c5.685,-1.592 10.484,-6.136 14.761,-10.006c5.345,-4.838 10.113,-10.375 14.91,-15.742c9.342,-10.453 18.5,-21.005 30.695,-28.206c-1.857,-2.116 -3.715,-4.233 -5.572,-6.351c-0.896,1.354 -1.597,2.625 -1.894,4.231c-0.244,1.322 0.349,2.546 1.732,2.835c1.605,0.336 2.764,0.297 4.385,-0.12c7.283,-1.873 5.559,-13.265 -1.87,-9.012c-12.104,6.931 -21.684,17.869 -30.816,28.198c-4.546,5.139 -9.01,10.354 -13.791,15.277c-4.623,4.762 -10.134,8.605 -14.688,13.373c-2.211,2.317 -2.027,6.693 2.148,5.523Z" style="fill:#010101;fill-rule:nonzero;"/><path d="M71.13,449.059c0.346,4.426 3.329,8.168 6.028,11.53c3.868,4.82 7.733,9.627 11.711,14.358c3.237,3.849 6.465,7.706 9.69,11.563c1.828,2.187 4.74,4.491 5.638,7.255c0.365,1.127 1.52,1.955 2.656,2.133c2.001,0.313 3.725,-0.4 5.223,-1.714c1.614,-1.416 3.017,-3.94 2.135,-6.126c-1.063,-2.638 -3.146,-4.764 -5.045,-6.819c-3.222,-3.49 -6.357,-7.059 -9.527,-10.599c-4.198,-4.689 -8.328,-9.452 -12.6,-14.073c-3.374,-3.649 -7.093,-8.226 -11.401,-10.75c-1.914,-1.121 -4.663,1.254 -4.508,3.242Z" style="fill:#010101;fill-rule:nonzero;"/><path d="M17.883,254.373c-5.224,-2.595 -10.904,1.853 -14.088,5.688c-3.654,4.401 -4.238,10.33 -2.62,15.634c1.282,4.2 6.887,3.656 9.831,1.977c2.956,-1.687 7.173,-6.721 5.071,-10.472c-0.258,-0.423 -0.483,-0.862 -0.679,-1.318c-0.042,-0.091 -0.489,-2.07 -0.339,-0.981c0,-0.807 -0.038,-0.875 -0.115,-0.205c0.019,-0.198 0.48,-2.109 -0.007,-0.758c0.361,-0.729 0.352,-0.771 -0.032,-0.124c0.064,-0.1 1.464,-1.657 0.507,-0.687c0.968,-0.982 1.961,-1.93 2.865,-2.979c1.336,-1.548 1.786,-4.693 -0.394,-5.775Z" style="fill:#010101;fill-rule:nonzero;"/><path d="M306.961,252.846c-0.774,2.945 1.443,5.426 2.252,8.146c0.595,2.002 0.013,-0.995 0.284,1.041c0.026,0.199 -0.143,2.217 0.049,0.886c-0.285,1.981 0.64,-1.164 -0.207,0.624c0.801,-1.691 -0.007,-0.127 -0.396,0.299c-2.475,2.713 -2.942,8.046 0.684,10.01c4.005,2.168 8.465,-0.715 11.046,-3.67c3.919,-4.487 5.041,-11.003 2.76,-16.506c-2.72,-6.562 -14.226,-9.366 -16.472,-0.83Z" style="fill:#010101;fill-rule:nonzero;"/><path d="M13.475,260.344c7.446,3.59 15.828,3.688 23.938,3.646c9.923,-0.052 19.803,-1.103 29.712,-1.496c11.811,-0.469 23.723,0.664 35.521,1.163c14.286,0.604 28.577,1.071 42.877,0.753c27.33,-0.609 54.678,-3.694 81.947,-5.515c28.095,-1.876 56.25,-3.042 84.409,-2.274c0.279,-3.339 0.56,-6.679 0.839,-10.018c-2.225,0.588 -4.467,0.86 -6.652,1.617c-2.225,0.771 -4.186,2.629 -4.691,4.988c-0.513,2.392 1.258,4.909 3.902,4.446c2.67,-0.468 5.327,-0.632 7.969,-1.31c4.983,-1.277 7.676,-9.886 0.839,-10.018c-54.485,-1.057 -108.359,6.27 -162.675,8.682c-25.872,1.149 -51.667,-1.446 -77.524,-1.233c-9.684,0.08 -19.378,1.318 -29.023,2.07c-8.581,0.669 -18.759,1.751 -27.04,-1.241c-3.076,-1.108 -7.963,3.996 -4.348,5.74Z" style="fill:#010101;fill-rule:nonzero;"/><path d="M140.274,10.067c-22.575,-4.261 -47.361,5.962 -65.316,19.099c-19.417,14.208 -34.019,34.592 -40.126,57.952c-3.105,11.878 -2.831,24.167 -1.548,36.277c1.341,12.659 4.278,25.259 9.407,36.931c10.973,24.969 33.107,41.337 58.322,50.213c43.713,15.388 98.682,12.793 137.128,-14.839c19.452,-13.98 27.897,-36.438 31.618,-59.316c3.688,-22.677 4.127,-48.861 -3.593,-70.806c-7.803,-22.18 -26.628,-40.167 -46.577,-51.697c-19.958,-11.535 -46.971,-18.383 -68.503,-7.361c-5.857,2.999 -5.642,12.486 2.202,10.614c21.495,-5.131 41.751,-0.031 60.374,11.361c18.217,11.143 34.354,28.59 40.335,49.423c3.113,10.843 3.637,22.705 3.695,33.915c0.066,12.609 -1.352,25.193 -4.28,37.457c-2.501,10.474 -6.444,20.682 -13.46,28.963c-6.302,7.438 -15.445,12.856 -24.268,16.738c-19.827,8.723 -42.063,11.926 -63.599,10.697c-26.965,-1.537 -54.563,-8.788 -75.871,-26.058c-20.571,-16.673 -28.213,-42.879 -30.318,-68.268c-1.973,-23.771 6.284,-46.089 22.577,-63.509c8.852,-9.463 19.147,-17.125 30.791,-22.81c12.364,-6.036 25.546,-8.244 39.122,-9.462c2.385,-0.213 5.47,-4.837 1.888,-5.514Z" style="fill:#010101;fill-rule:nonzero;"/><path d="M166.662,15.487c8.936,1.747 16.439,3.714 23.693,9.485c7.114,5.661 12.313,13.613 16.293,21.678c7.897,16.001 12.402,34.428 12.438,52.288c0.055,27.665 -8.066,55.676 -24.075,78.334c-5.974,8.456 -13.338,15.759 -22.151,21.221c-9.614,5.959 -20.071,7.8 -30.448,11.723c-1.447,0.547 -2.861,1.24 -4.28,1.857c-2.036,0.885 -6.129,6.586 -1.49,6.955c11.012,0.876 21.928,-3.532 31.729,-8.214c9.342,-4.462 17.791,-10.88 24.918,-18.355c17.491,-18.349 28.424,-43.263 32.913,-68.005c3.737,-20.598 2.53,-42.06 -3.411,-62.094c-5.055,-17.05 -14.212,-35.028 -29.816,-44.628c-7.572,-4.658 -17.577,-6.445 -26.025,-3.573c-0.486,0.164 -1.11,1.168 -0.288,1.328Z" style="fill:#010101;fill-rule:nonzero;"/><path d="M48.114,69.97c2.639,7.014 9.595,12.103 15.038,16.926c6.448,5.714 14.114,10.374 21.513,14.724c15.986,9.398 33.15,16.668 50.589,22.886c17.528,6.25 35.451,11.477 53.235,16.938c20.874,6.41 43.53,12.646 65.591,10.906c-0.144,-2.565 -0.288,-5.132 -0.432,-7.697c-1.015,0.522 -1.939,1.133 -2.965,1.631c-1.799,0.873 -3.297,3.987 -1.136,5.299c1.983,1.203 3.447,1.197 5.65,0.543c3.931,-1.169 6.38,-8.151 0.687,-8.191c-21.982,-0.161 -42.498,-4.507 -63.532,-10.688c-17.576,-5.164 -35.252,-10.223 -52.588,-16.152c-16.831,-5.758 -33.415,-12.502 -49.165,-20.792c-7.542,-3.969 -14.856,-8.407 -21.821,-13.316c-6.385,-4.499 -12.218,-10.829 -19.192,-14.308c-0.709,-0.354 -1.759,0.529 -1.472,1.291Z" style="fill:#010101;fill-rule:nonzero;"/><path d="M58.418,153.303c17.093,21.848 48.156,32.244 74.897,34.213c7.223,0.531 14.488,0.422 21.685,-0.382c7.918,-0.883 15.489,-3.174 23.274,-4.729c7.703,-1.539 15.23,-1.272 22.13,2.703c5.905,3.404 10.511,9.012 15.423,13.639c1.863,-3.027 3.727,-6.055 5.59,-9.082c-2.869,-0.019 -5.074,1.117 -7.777,1.407c-2.437,0.262 -5.637,3.978 -2.775,5.865c1.114,0.735 1.805,1.733 3.006,2.422c1.483,0.85 3.71,0.593 5.342,0.593c3.426,0.002 9.054,-5.865 5.59,-9.08c-4.952,-4.596 -9.609,-9.455 -15.104,-13.424c-5.707,-4.122 -12.263,-5.545 -19.17,-5.824c-7.829,-0.317 -15.722,2.32 -23.223,4.201c-7.522,1.885 -15.311,2.69 -23.045,3.023c-15.069,0.65 -30.219,-1.954 -44.518,-6.619c-14.548,-4.746 -27.195,-12.414 -40.314,-20.009c-0.561,-0.324 -1.43,0.547 -1.011,1.083Z" style="fill:#010101;fill-rule:nonzero;"/><path d="M96.576,33.345c9.048,5.638 19.681,8.519 29.655,12.083c10.65,3.806 20.733,8.348 30.646,13.795c9.127,5.015 18.907,10.811 26.089,18.443c5.981,6.355 8.683,15.02 12.253,22.793c6.687,14.56 18.344,25.098 35.104,23.882c14.992,-1.087 28.604,-11.425 37.344,-23.056c1.725,-2.293 1.331,-6.61 -2.431,-6.102c-1.654,0.224 -2.884,0.423 -4.432,0.994c-1.994,0.734 -5.526,4.911 -2.225,6.469c1.35,0.637 2.216,0.846 3.737,1.07c-0.451,-2.018 -0.901,-4.035 -1.352,-6.053c-7.977,10.613 -20.81,19.678 -34.699,18.077c-16.949,-1.954 -22.458,-19.635 -28.99,-32.652c-8.073,-16.086 -24.933,-24.93 -40.485,-32.567c-8.776,-4.311 -17.89,-7.607 -27.156,-10.684c-10.492,-3.483 -21.309,-6.921 -32.377,-7.612c-0.497,-0.029 -1.316,0.725 -0.681,1.12Z" style="fill:#010101;fill-rule:nonzero;"/></g></svg>