<?xml version="1.0" encoding="UTF-8" standalone="no"?><!DOCTYPE svg PUBLIC "-//W3C//DTD SVG 1.1//EN" "http://www.w3.org/Graphics/SVG/1.1/DTD/svg11.dtd"><svg width="100%" height="100%" viewBox="0 0 294 483" version="1.1" xmlns="http://www.w3.org/2000/svg" xmlns:xlink="http://www.w3.org/1999/xlink" xml:space="preserve" style="fill-rule:evenodd;clip-rule:evenodd;stroke-linejoin:round;stroke-miterlimit:1.41421;"><g id="bear"><g id="Layer_1_2_"><path d="M78.087,34.767c7.945,-8.323 16.785,-15.414 27.636,-19.598c10.759,-4.147 22.399,-5.133 33.834,-4.576c23.188,1.129 46.411,10.19 65.233,23.563c0,-3.346 0,-6.692 0,-10.038c-2.724,1.254 -0.874,0.153 -0.409,0.228c-2.943,-0.474 -5.537,2.244 -3.943,5.131c0.959,1.734 2.593,3.698 4.354,4.68c6.6,3.674 12.088,-5.934 5.867,-10.038c-21.316,-14.071 -46.758,-22.772 -72.36,-23.459c-24.445,-0.656 -51.377,8.971 -63.229,31.779c-0.983,1.887 1.459,3.96 3.017,2.328Z" style="fill:#010101;fill-rule:nonzero;"/><path d="M75.7,50.157c-15.881,12.203 -26.382,30.306 -33.899,48.593c-7.97,19.383 -11.813,40.382 -12.27,61.289c-0.897,41.08 13.054,83.564 43.601,111.972c30.071,27.969 74.209,39.762 113.758,27.757c40.416,-12.269 66.691,-47.521 73.918,-88.164c4.674,-26.289 3.196,-53.647 -3.402,-79.473c-6.304,-24.666 -18.6,-51.941 -38.932,-68.179c-5.084,-4.06 -11.815,2.267 -7.26,7.259c7.899,8.652 15.155,17.463 21.008,27.656c6.018,10.481 10.381,21.784 13.675,33.388c6.604,23.267 8.298,48.303 4.911,72.251c-2.978,21.051 -10.526,41.191 -24.623,57.346c-12.527,14.356 -29.291,24.216 -47.683,28.938c-39.794,10.224 -83.063,-6.597 -109.183,-37.367c-26.888,-31.677 -35.036,-77.179 -29.125,-117.438c2.252,-15.341 6.591,-30.434 13.12,-44.502c6.453,-13.904 15.385,-26.156 24.856,-38.121c1.305,-1.65 -0.477,-4.736 -2.47,-3.205Z" style="fill:#010101;fill-rule:nonzero;"/><path d="M214.416,33.407c-0.216,-9.74 4.681,-25.094 16.782,-24.875c8.418,0.152 9.044,11.039 8.602,17.044c-0.695,9.441 -4.558,18.921 -9.496,26.899c-1.951,3.151 -4.323,6.377 -7.338,8.594c-3.127,2.299 -4.729,1.762 -8.287,2.345c-4.234,0.694 -4.223,6.576 -1.113,8.525c9.846,6.172 20.932,-8.836 25.003,-15.686c6.321,-10.632 10.635,-24.096 9.666,-36.56c-0.898,-11.585 -9.548,-21.797 -22.101,-18.075c-6.719,1.992 -11.315,8.251 -13.877,14.417c-2.152,5.186 -3.522,13.396 0.459,18.074c0.572,0.675 1.719,0.125 1.7,-0.702Z" style="fill:#010101;fill-rule:nonzero;"/><path d="M95.331,76.77c-0.027,0.061 -2.605,1.8 -3.253,2.604c-1.926,2.393 -2.609,5.139 -2.938,8.143c-0.204,1.865 1.641,3.12 3.253,3.253c1.422,0.115 2.846,0.183 4.271,0.253c2.42,0.12 3.798,-2.316 3.381,-4.438c-0.667,-3.394 -1.258,-6.824 -2.51,-10.06c-1.322,-3.416 -6.313,-3.918 -7.438,0c-0.666,2.319 -1.172,4.687 -1.735,7.034c-0.537,2.237 0.678,4.488 2.919,5.141c1.878,0.546 3.778,1.02 5.67,1.516c2.708,0.711 5.379,-1.322 5.411,-4.122c0.026,-2.342 0.159,-4.752 -0.394,-7.051c-0.465,-1.928 -1.876,-3.518 -2.925,-5.141c-1.408,-2.182 -5.042,-3.202 -6.92,-0.893c-2.595,3.191 -4.998,6.741 -4.763,11.045c0.208,3.806 2.336,7.238 5.54,9.223c1.842,1.141 4.349,0.4 5.416,-1.42c1.149,-1.962 0.21,-4.425 -0.738,-6.255c-0.696,-1.345 -0.995,-1.865 -1.01,-2.618c-0.028,-1.397 1.576,-3.4 2.476,-4.633c-2.536,0 -5.072,0 -7.608,0c0.798,1.127 1.724,2.218 2.364,3.446c-0.352,-0.674 -0.085,0.233 -0.069,0.473c0.083,1.271 0.068,2.552 0.083,3.823c1.804,-1.374 3.606,-2.748 5.411,-4.121c-1.904,-0.453 -3.806,-0.93 -5.722,-1.332c0.974,1.713 1.946,3.427 2.92,5.141c0.44,-2.739 0.929,-5.474 1.25,-8.23c-2.396,0.649 -4.791,1.299 -7.188,1.946c1.578,2.677 1.918,5.999 2.796,8.953c1.127,-1.479 2.254,-2.959 3.381,-4.438c-1.425,0.07 -2.849,0.138 -4.271,0.254c1.084,1.084 2.168,2.168 3.253,3.253c-0.134,-2.461 0.183,-4.541 1.565,-6.599c0.719,-1.067 1.162,-2.48 0.94,-3.778c-0.217,-1.285 -2.276,-1.55 -2.818,-0.372Z" style="fill:#010101;fill-rule:nonzero;"/><path d="M177.865,73.892c-2.043,3.033 -4.076,5.889 -4.185,9.667c-0.146,5.08 6.381,6.94 10.232,7.685c2.234,0.432 3.953,-0.613 4.758,-2.701c1.721,-4.457 2.397,-9.749 0.232,-14.157c-1.81,-3.684 -5.822,-4.875 -9.596,-4.346c-3.646,0.512 -6.468,3.678 -7.746,6.917c-1.705,4.32 -0.244,9.223 2.229,12.914c2.01,2.997 6.059,3.007 8.063,0c2.847,-4.265 4.841,-8.543 4.979,-13.748c0.122,-4.5 -6.83,-6.771 -8.833,-2.393c-0.908,1.985 -1.547,3.961 -1.896,6.117c-0.424,2.622 -0.123,4.469 0.598,6.943c0.508,1.737 2.336,2.306 3.875,1.576c1.97,-0.937 3.109,-2.107 3.986,-4.132c0.795,-1.834 0.82,-3.911 1.622,-5.719c-2.944,-0.798 -5.89,-1.596 -8.833,-2.394c-0.056,3.499 -1.697,6.167 -3.563,9.035c2.688,0 5.375,0 8.063,0c-0.482,-0.704 -0.92,-1.42 -1.313,-2.179c-0.235,-0.518 -0.264,-0.562 -0.077,-0.132c-0.158,-0.385 -0.277,-0.783 -0.396,-1.184c-0.377,-1.299 -0.109,0.277 -0.154,-0.988c-0.049,-1.335 -0.223,0.479 0.063,-0.76c0.285,-1.23 -0.354,0.463 0.226,-0.613c0.58,-1.078 -0.482,0.403 0.334,-0.469c0.824,-0.88 -0.604,0.309 0.392,-0.331c1.003,-0.644 -0.722,0.153 0.396,-0.2c1.133,-0.358 -0.818,-0.039 0.354,-0.06c0.454,0.024 0.326,-0.004 -0.384,-0.086c0.241,0.034 0.477,0.108 0.708,0.183c-0.604,-0.274 -0.711,-0.312 -0.314,-0.111c0.776,0.409 -0.688,-0.635 -0.006,-0.034c0.29,0.316 0.256,0.25 -0.104,-0.202c0.182,0.235 0.317,0.5 0.455,0.76c-0.451,-0.853 0.147,0.65 0.215,0.979c-0.127,-0.624 0.026,1.145 0.021,1.475c-0.033,1.8 -0.6,3.539 -1.054,5.279c1.242,-0.946 2.484,-1.894 3.729,-2.839c-1.63,-0.128 -3.212,-0.354 -4.758,-0.901c-0.361,-0.128 -0.527,-0.55 -0.549,-0.635c-0.377,-1.565 0.813,-5.046 1.153,-6.987c0.322,-1.781 -1.88,-2.782 -2.922,-1.229Z" style="fill:#010101;fill-rule:nonzero;"/><path d="M145.074,266.113c-40.633,-4.484 -52.437,-53.192 -44.85,-87.312c4.638,-20.858 19.406,-41.085 41.794,-43.944c10.96,-1.4 23.128,1.382 32.523,7.127c8.615,5.268 14.499,14.128 18.206,23.333c8.111,20.145 8.544,46.107 1.688,66.661c-3.674,11.011 -10.969,20.5 -20.874,26.561c-10.885,6.66 -22.58,6.203 -34.716,7.875c-2.079,0.287 -1.741,3.352 0,3.864c18.631,5.5 41.323,-4.935 52.543,-19.931c12.125,-16.205 14.354,-37.741 13.177,-57.393c-1.14,-18.976 -6.892,-39.403 -21.777,-52.212c-15.328,-13.189 -39.466,-15.571 -57.319,-6.577c-28.181,14.196 -35.276,50.596 -31.238,79.047c3.687,25.979 20.454,57.131 50.844,54.518c1.05,-0.089 1.03,-1.502 -0.001,-1.617Z" style="fill:#010101;fill-rule:nonzero;"/><path d="M66.248,260.785c-15.062,3.198 -20.219,26.889 -20.485,39.676c-0.171,8.217 -0.754,16.938 -0.754,24.651c0,6.021 9.336,6.021 9.336,0c0,-2.184 -0.571,-4.999 -2.349,-6.403c-1.534,-1.213 -3.105,-1.213 -4.641,0c-1.777,1.404 -2.348,4.223 -2.348,6.403c0,6.021 9.336,6.021 9.336,0c0,-7.118 -0.558,-15.177 -0.716,-22.786c-0.118,-5.692 0.721,-11.4 1.931,-16.955c0.907,-4.166 2.355,-8.136 4.469,-11.838c2.139,-3.746 5.337,-6.313 8.102,-9.517c1.277,-1.477 0.062,-3.643 -1.881,-3.231Z" style="fill:#010101;fill-rule:nonzero;"/><path d="M250.189,257.416c0.819,4.965 2.294,9.793 3.058,14.785c0.945,6.195 1.399,12.494 1.565,18.756c0.151,5.728 -0.02,11.539 -0.931,17.201c-0.354,2.178 -0.802,4.479 -1.674,6.516c-0.728,1.695 -1.93,3.121 -2.424,4.923c-0.766,2.782 2.002,6.056 4.97,4.971c4.649,-1.699 5.778,-7.01 6.593,-11.382c1.211,-6.488 1.151,-13.194 0.798,-19.758c-0.395,-7.275 -1.404,-14.533 -2.978,-21.646c-1.19,-5.395 -2.604,-11.617 -6.072,-16.056c-1.198,-1.534 -3.152,0.197 -2.905,1.69Z" style="fill:#010101;fill-rule:nonzero;"/><path d="M48.756,328.093c5.893,13.281 19.9,21.937 32.75,27.335c16.396,6.893 34.111,9.917 51.786,11.021c34.521,2.16 73.81,-2.743 103.716,-21.309c4.379,-2.721 8.521,-5.906 12.244,-9.475c3.186,-3.051 8.666,-8.065 7.48,-12.883c-0.678,-2.754 -3.352,-3.688 -5.861,-3.328c-1.943,0.278 -3.529,1.67 -5.143,2.653c-2.775,1.694 -2.176,5.796 0.882,6.747c2.182,0.68 3.651,0.1 5.526,-0.039c-1.531,-1.166 -3.063,-2.333 -4.596,-3.499c-0.563,-2.209 0.137,-2.21 -0.829,-0.969c-0.471,0.604 -0.971,1.187 -1.471,1.767c-1.026,1.192 -2.138,2.311 -3.269,3.403c-2.53,2.448 -5.322,4.57 -8.238,6.534c-6.465,4.354 -13.583,7.715 -20.855,10.465c-17.026,6.44 -35.245,9.656 -53.354,10.92c-18.558,1.296 -37.339,0.282 -55.54,-3.633c-15.209,-3.271 -30.538,-9.035 -42.399,-19.386c-3.089,-2.694 -5.647,-5.836 -8.143,-9.069c-2.13,-2.759 -6.125,-0.496 -4.686,2.745Z" style="fill:#010101;fill-rule:nonzero;"/><path d="M71.99,280.888c-9.405,2.24 -11.167,17.22 -11.851,24.883c-0.536,6 -2.043,21.301 5.271,24.177c3.598,1.415 5.309,-3.436 3.379,-5.805c-0.211,-0.261 -1.21,-3.528 -1.537,-5.183c-0.785,-3.979 -0.908,-8.107 -0.869,-12.153c0.083,-8.511 1.682,-16.479 7.317,-22.979c1.144,-1.321 0.064,-3.362 -1.71,-2.94Z" style="fill:#010101;fill-rule:nonzero;"/><path d="M83.906,288.904c-6.067,8.055 -9.255,17.825 -10.895,27.684c-0.781,4.699 -1.2,9.455 -1.508,14.205c-0.275,4.268 -1.861,10.021 2.253,12.729c2.247,1.479 5.482,0.02 6.134,-2.495c0.687,-2.656 0.167,-8.307 -3.72,-7.861c-1.681,0.191 -3.183,1.013 -3.644,2.773c-0.241,0.923 -0.329,1.987 -0.69,2.866c2.046,-0.83 4.09,-1.662 6.135,-2.494c-0.186,-0.127 -0.37,-0.256 -0.556,-0.383c0.69,1.203 1.382,2.406 2.072,3.611c-0.603,-17.273 1.726,-33.09 7.311,-49.414c0.629,-1.838 -1.895,-2.543 -2.892,-1.221Z" style="fill:#010101;fill-rule:nonzero;"/><path d="M90.697,300.626c-2.325,15.144 -3.573,30.711 -3.928,46.029c-0.125,5.418 8.54,5.415 8.397,0c-0.049,-1.873 -0.103,-3.851 -0.313,-5.695c-0.14,-1.221 -1.019,-2.607 -2.461,-2.461c-4.201,0.434 -5.469,4.381 -5.623,8.156c2.799,0 5.599,0 8.397,0c-0.24,-15.289 1.133,-30.857 -1.081,-46.029c-0.245,-1.69 -3.13,-1.68 -3.388,0Z" style="fill:#010101;fill-rule:nonzero;"/><path d="M114.703,303.941c-1.927,15.578 -3.264,31.297 -3.844,46.987c2.876,0 5.753,0 8.63,0c-0.134,-3.022 -0.183,-6.732 -2.671,-8.764c-1.061,-0.865 -2.227,-0.865 -3.287,0c-2.489,2.029 -2.537,5.739 -2.671,8.764c-0.247,5.557 8.795,5.575 8.63,0c-0.463,-15.646 0.815,-31.409 -0.997,-46.987c-0.285,-2.443 -3.491,-2.428 -3.79,0Z" style="fill:#010101;fill-rule:nonzero;"/><path d="M132.141,309.637c-1.383,10.45 -1.771,20.896 -2.28,31.425c-0.195,4.03 -1.003,8.507 -0.253,12.501c1.005,5.354 9.153,3.08 8.153,-2.248c-0.118,-0.629 -0.251,-1.237 -0.43,-1.854c-1.043,-3.61 -6.251,-3.61 -7.295,0c-0.178,0.615 -0.311,1.226 -0.429,1.854c-1,5.328 7.148,7.604 8.153,2.248c0.75,-3.994 -0.06,-8.471 -0.253,-12.501c-0.511,-10.528 -0.897,-20.975 -2.28,-31.425c-0.263,-1.983 -2.823,-1.983 -3.086,0Z" style="fill:#010101;fill-rule:nonzero;"/><path d="M151.86,311.062c-0.754,6.9 -0.013,13.9 0.154,20.822c0.177,7.308 0.127,14.587 0.154,21.894c2.67,-0.724 5.339,-1.445 8.008,-2.17c-1.137,-2.438 -2.271,-4.935 -3.566,-7.291c-0.642,-1.169 -2.501,-1.193 -3.137,0c-1.818,3.421 -2.446,6.9 -1.151,10.604c1.56,4.457 8.459,3.896 8.44,-1.144c-0.027,-7.306 -0.8,-14.641 -1.625,-21.894c-0.81,-7.098 -1.643,-14.477 -3.825,-21.291c-0.634,-1.981 -3.241,-1.457 -3.452,0.47Z" style="fill:#010101;fill-rule:nonzero;"/><path d="M167.711,311.979c5.518,12.953 3.594,28.143 2.976,41.799c2.664,-0.723 5.328,-1.442 7.992,-2.165c-1.247,-2.443 -1.879,-5.122 -3.339,-7.425c-0.841,-1.32 -2.743,-1.353 -3.576,0c-1.979,3.215 -2.021,7.188 -0.924,10.729c1.396,4.513 8.613,3.836 8.425,-1.142c-0.583,-15.219 0.057,-30.306 -8.416,-43.633c-1.291,-2.028 -4.033,-0.268 -3.138,1.837Z" style="fill:#010101;fill-rule:nonzero;"/><path d="M186.34,307.636c5.229,12.289 6.449,26.188 4.563,39.341c2.721,0.368 5.439,0.736 8.16,1.104c0.058,-3.032 -0.226,-5.868 -1.709,-8.55c-1.021,-1.841 -3.871,-1.841 -4.892,0c-1.483,2.682 -1.767,5.518 -1.709,8.55c0.103,5.371 8.095,5.34 8.31,0c0.603,-15.069 -1.43,-29.337 -9.823,-42.141c-1.217,-1.857 -3.731,-0.255 -2.9,1.696Z" style="fill:#010101;fill-rule:nonzero;"/><path d="M204.817,301.96c7.915,12.106 8.105,27.875 8.521,41.849c2.852,-0.386 5.701,-0.771 8.553,-1.156c-1.226,-3.748 -1.815,-7.908 -3.615,-11.406c-0.775,-1.51 -3.239,-1.521 -4.014,0c-2.18,4.287 -2.021,9.174 -0.769,13.722c1.521,5.522 9.283,3.108 8.396,-2.313c-2.491,-15.241 -2.416,-31.383 -14.372,-42.772c-1.38,-1.32 -3.798,0.397 -2.7,2.076Z" style="fill:#010101;fill-rule:nonzero;"/><path d="M225.99,287.832c7.362,13.539 4.853,31.252 4.431,46.012c2.854,-0.387 5.709,-0.771 8.563,-1.158c-1.104,-3.772 -1.563,-8.014 -3.653,-11.387c-0.912,-1.471 -3.038,-1.481 -3.947,0c-2.567,4.19 -2.211,9.164 -0.805,13.703c1.43,4.612 8.68,3.885 8.563,-1.158c-0.368,-15.846 1.289,-35.715 -10.111,-48.354c-1.521,-1.682 -4.064,0.463 -3.041,2.342Z" style="fill:#010101;fill-rule:nonzero;"/><path d="M237.863,276.652c11.765,9.676 13.588,32.396 5.36,44.656c-2.176,3.243 2.293,8.057 5.557,5.557c7.93,-6.074 8.123,-17.943 6.789,-27.078c-1.465,-10.022 -6.063,-21.125 -15.671,-25.771c-1.611,-0.781 -3.599,1.351 -2.035,2.636Z" style="fill:#010101;fill-rule:nonzero;"/><path d="M222.647,43.858c0.484,-0.993 0.742,-2.156 0.873,-3.249c0.087,-0.733 -0.107,0.726 -0.008,0.047c0.025,-0.179 0.059,-0.355 0.091,-0.534c0.082,-0.455 0.26,-1.853 0.071,-0.517c0.03,-0.219 0.07,-0.436 0.111,-0.651c0.109,-0.576 0.291,-1.131 0.46,-1.691c0.036,-0.124 0.081,-0.245 0.125,-0.367c0.202,-0.567 -0.451,1.027 -0.214,0.495c0.104,-0.234 0.229,-0.458 0.367,-0.675c0.413,-0.646 -0.814,0.945 -0.217,0.282c0.274,-0.303 0.981,-0.801 -0.377,0.233c0.136,-0.104 0.283,-0.18 0.43,-0.267c0.585,-0.352 -1.336,0.457 -0.418,0.188c0.882,-0.259 -0.945,0.09 -0.602,0.055c0.16,-0.016 0.322,-0.014 0.481,-0.006c0.74,0.034 -1.461,-0.256 -0.603,-0.079c0.192,0.04 0.381,0.1 0.566,0.166c0.354,0.127 -1.381,-0.646 -0.521,-0.207c0.16,0.081 0.313,0.175 0.461,0.271c0.83,0.54 -0.707,-0.574 -0.422,-0.339c0.168,0.138 0.322,0.288 0.474,0.443c0.133,0.136 0.254,0.281 0.373,0.429c-1.194,-1.486 -0.604,-0.804 -0.356,-0.414c0.104,0.163 0.192,0.333 0.28,0.505c0.358,0.714 -0.56,-1.511 -0.194,-0.442c0.063,0.186 0.11,0.376 0.153,0.567c0.239,1.077 -0.119,-1.059 -0.071,-0.633c0.022,0.201 0.028,0.403 0.025,0.605c0,0.104 -0.008,0.207 -0.016,0.31c-0.058,0.859 0.229,-1.49 0.112,-0.819c-0.036,0.214 -0.095,0.425 -0.155,0.633c-0.033,0.107 -0.072,0.214 -0.112,0.32c-0.235,0.638 0.623,-1.418 0.333,-0.799c-0.104,0.222 -0.227,0.433 -0.354,0.64c-0.067,0.108 -0.143,0.215 -0.216,0.319c-0.413,0.592 1.026,-1.27 0.398,-0.526c-0.389,0.461 -0.84,0.867 -1.309,1.244c1.639,-1.317 0.536,-0.421 0.104,-0.14c-0.372,0.243 -0.742,0.485 -1.124,0.714c-0.75,0.452 -1.541,0.834 -2.342,1.188c2.597,-1.146 -1.104,0.473 -0.675,0.282c-0.229,0.103 -0.459,0.209 -0.688,0.313c-0.563,0.257 -1.082,0.622 -1.648,0.887c-0.478,0.222 -1.008,0.734 -1.385,1.167c0.174,-0.128 0.349,-0.255 0.521,-0.382c-0.164,0.111 -0.327,0.221 -0.492,0.329c-1.49,0.986 -2.074,2.219 -2.281,3.943c-0.171,1.422 1.068,3.067 2.281,3.625c0.878,0.404 1.542,0.563 2.51,0.614c0.956,0.048 -1.196,-0.186 0.063,0.013c1.146,0.18 1.85,0.162 2.988,-0.052c0.393,-0.073 1.43,-0.222 -0.325,-0.005c0.927,-0.114 1.781,-0.198 2.646,-0.516c1.284,-0.47 2.567,-1.071 3.768,-1.737c3.237,-1.799 6.084,-4.768 7.084,-8.405c0.934,-3.393 -0.056,-6.564 -2.146,-9.254c-2.516,-3.239 -7.559,-4.665 -11.188,-2.534c-2.418,1.418 -3.338,3.906 -3.688,6.531c-0.166,1.247 0.114,2.585 0.385,3.798c0.345,1.558 1.213,3.465 2.478,4.486c0.929,0.747 2.523,0.853 3.135,-0.402Z" style="fill:#010101;fill-rule:nonzero;"/><path d="M163.119,361.355c-4.529,10.856 -4.002,24.638 -4.289,36.198c-0.315,12.765 -0.066,25.534 -0.268,38.3c-0.038,2.393 2.015,4.349 4.365,4.364c12.886,0.093 25.893,-1.56 38.714,0.3c3.076,0.445 6.093,-1.228 6.123,-4.664c0.14,-15.741 1.182,-31.439 0.964,-47.195c-0.087,-6.203 1.103,-41.162 -12.931,-34.446c-3.646,1.743 -2.035,6.528 1.008,7.711c-1.554,-0.604 -3.086,-3.004 -1.115,-0.313c0.814,1.113 0.357,0.443 0.742,1.629c0.771,2.373 1.121,4.898 1.401,7.369c0.92,8.088 0.991,16.285 1.017,24.414c0.041,13.615 -0.79,27.223 -0.762,40.834c2.043,-1.556 4.084,-3.109 6.124,-4.666c-13.786,-1.854 -27.47,0.018 -41.285,0.301c1.455,1.455 2.909,2.91 4.364,4.365c-0.238,-12.156 -0.932,-24.297 -1.229,-36.451c-0.148,-6.104 -0.146,-12.207 0.042,-18.309c0.196,-6.371 1.114,-12.879 0.695,-19.24c-0.143,-2.223 -2.881,-2.418 -3.68,-0.501Z" style="fill:#010101;fill-rule:nonzero;"/><path d="M170.734,421.896c4.084,2.457 9.195,2.438 13.818,2.336c3.897,-0.088 8.96,-0.198 12.11,-2.691c2.393,-1.895 0.336,-5.827 -2.396,-5.78c-3.189,0.056 -6.472,1.417 -9.717,1.716c-4.217,0.388 -8.414,-0.158 -12.625,0.012c-2.328,0.091 -3.257,3.166 -1.19,4.407Z" style="fill:#010101;fill-rule:nonzero;"/><path d="M168.7,405.08c2.929,3.213 7.639,4.191 11.8,4.642c3.674,0.396 9.573,1.057 12.3,-2.106c2.002,-2.321 0.938,-7.053 -2.774,-6.7c-2.851,0.271 -5.502,1.274 -8.425,1.424c-3.901,0.197 -7.786,-0.509 -11.673,-0.218c-1.517,0.11 -2.287,1.795 -1.228,2.958Z" style="fill:#010101;fill-rule:nonzero;"/><path d="M172.685,389.979c2.396,1.644 5.838,1.576 8.631,1.896c3.014,0.345 6.688,0.451 9.636,-0.379c4.732,-1.333 3.948,-9.123 -1.188,-8.763c-2.817,0.199 -5.631,0.709 -8.448,0.979c-2.723,0.261 -6.318,0.429 -8.631,2.017c-1.578,1.084 -1.578,3.166 0,4.25Z" style="fill:#010101;fill-rule:nonzero;"/><path d="M175.159,377.633c5.83,0.956 11.898,-0.548 17.809,-0.172c6.224,0.396 5.959,-8.847 0,-9.523c-5.885,-0.668 -13.391,1.568 -18.495,4.427c-2.03,1.134 -1.843,4.852 0.686,5.268Z" style="fill:#010101;fill-rule:nonzero;"/><path d="M147.583,364.61c-8.342,1.136 -12.966,14.877 -15.505,21.415c-4.023,10.367 -6.518,21.255 -10.56,31.612c-1.059,2.71 1.637,5.938 4.408,5.786c7.394,-0.406 14.912,0.657 22.207,1.771c4.948,0.757 11.051,3.342 15.627,0.793c1.803,-1.004 2.186,-3.234 1.303,-4.971c-2.542,-5 -10.679,-4.771 -15.566,-5.464c-7.768,-1.099 -15.725,-2.028 -23.57,-1.273c1.469,1.93 2.938,3.856 4.407,5.786c3.141,-9.129 5.25,-18.581 7.979,-27.836c1.497,-5.077 3.365,-9.945 5.483,-14.791c1.584,-3.625 4.692,-7.353 5.373,-11.245c0.183,-1.042 -0.573,-1.721 -1.586,-1.583Z" style="fill:#010101;fill-rule:nonzero;"/><path d="M132.367,397.283c1.22,3.892 6.622,5.632 10.076,6.996c5.255,2.076 10.978,3.854 16.658,2.875c4.699,-0.812 3.617,-8.727 -1.126,-8.319c-4.717,0.402 -9.034,-0.424 -13.583,-1.625c-3.271,-0.863 -7.546,-3.149 -10.896,-1.915c-0.802,0.294 -1.41,1.094 -1.129,1.988Z" style="fill:#010101;fill-rule:nonzero;"/><path d="M137.285,386.182c3.443,1.411 7.131,2.067 10.796,2.631c3.498,0.539 6.963,1.545 9.769,-1.036c1.078,-0.992 1.032,-2.848 0,-3.847c-2.484,-2.406 -5.593,-1.763 -8.846,-1.936c-3.692,-0.195 -7.375,-0.781 -11.076,-0.557c-2.855,0.176 -3.118,3.729 -0.643,4.745Z" style="fill:#010101;fill-rule:nonzero;"/><path d="M145.927,376.548c1.464,0.101 2.89,0.279 4.344,0.466c1.677,0.213 3.396,0.963 5.082,0.831c3.155,-0.247 4.305,-4.106 1.599,-5.903c-2.917,-1.937 -7.722,-1.006 -11.024,-0.783c-3.474,0.232 -3.473,5.154 -0.001,5.389Z" style="fill:#010101;fill-rule:nonzero;"/><path d="M48.328,332.917c-9.9,21.994 -9.688,47.427 -7.563,71.048c1.688,18.758 0.974,39.002 6.735,57.069c3.531,11.071 16.5,29.254 28.906,17.334c4.59,-4.409 6.813,-11.358 8.457,-17.313c1.798,-6.509 2.875,-13.444 2.949,-20.203c-2.451,1.406 -4.902,2.813 -7.354,4.221c9.4,6.971 21.629,9.695 32.952,11.593c13.172,2.206 26.596,3.019 39.935,3.256c31.216,0.556 64.22,5.769 92.178,-11.623c-2.581,-1.48 -5.163,-2.963 -7.745,-4.444c-0.058,10.994 -1.717,24.311 5.966,33.313c4.377,5.131 11.814,4.799 17.553,2.656c6.948,-2.595 10.484,-9.587 11.72,-16.487c3.002,-16.79 -2.628,-35.921 -6.304,-52.15c-5.713,-25.223 -13.734,-49.834 -23.34,-73.832c-1.162,-2.907 -3.703,-4.761 -6.947,-3.943c-2.742,0.688 -3.982,2.338 -6.125,3.952c-5.244,3.954 -0.83,12.191 5.252,8.985c1.303,-0.688 2.434,-1.838 3.877,-2.047c-2.127,-0.864 -4.254,-1.729 -6.379,-2.597c8.789,19.07 15.215,39.087 20.512,59.385c4.186,16.031 8.482,32.744 9.684,49.338c0.397,5.515 0.483,11.738 -2.246,16.718c-1.689,3.08 -7.119,5.61 -9.969,2.737c-2.788,-2.813 -2.831,-8.741 -3.021,-12.39c-0.236,-4.546 0.043,-9.092 0.066,-13.639c0.02,-3.825 -4.414,-6.519 -7.745,-4.444c-26.198,16.31 -57.757,10.683 -86.982,10.245c-11.993,-0.18 -24.029,-0.705 -35.913,-2.408c-10.99,-1.574 -22.914,-3.907 -32.04,-10.611c-3.097,-2.274 -7.331,0.817 -7.353,4.221c-0.066,9.897 -1.992,21.725 -7.754,29.983c-2.63,3.771 -5.394,0.759 -7.813,-1.994c-5.014,-5.702 -6.957,-13.071 -8.31,-20.354c-1.521,-8.188 -1.962,-16.591 -2.573,-24.886c-0.614,-8.324 -1.739,-16.578 -2.568,-24.884c-2.15,-21.55 -1.678,-43.111 2.691,-64.376c0.394,-1.941 -2.481,-3.443 -3.389,-1.429Z" style="fill:#010101;fill-rule:nonzero;"/><path d="M38.822,324.749c-8.847,7.078 -17.487,14.438 -25.082,22.875c-6.627,7.36 -15.407,18.368 -12.396,29.033c6.219,22.032 37.66,-0.597 45.688,-9.699c2.528,-2.867 -1.666,-7.095 -4.21,-4.21c-5.07,5.749 -35.831,28.84 -36.126,9.563c-0.146,-9.5 9.532,-18.896 15.605,-25.109c6.438,-6.588 13.547,-12.492 20.73,-18.242c2.999,-2.4 -1.243,-6.586 -4.209,-4.211Z" style="fill:#010101;fill-rule:nonzero;"/><path d="M255.357,380.355c5.17,7.496 12.739,13.511 21.616,15.905c6.938,1.871 14.742,-0.169 16.414,-7.935c2.366,-10.981 -5.987,-23.486 -12.854,-31.149c-9.313,-10.393 -22.103,-17.152 -34.104,-23.895c-3.351,-1.883 -6.351,3.26 -3.004,5.141c18.196,10.222 40.086,22.054 44.158,44.623c1.2,6.651 -3.204,8.824 -9.027,7.474c-7.297,-1.692 -13.883,-7.113 -18.059,-13.168c-2.164,-3.138 -7.327,-0.165 -5.14,3.004Z" style="fill:#010101;fill-rule:nonzero;"/><path d="M245.926,256.83c3.84,0 3.84,-5.953 0,-5.953c-3.838,0 -3.838,5.953 0,5.953Z" style="fill:#010101;fill-rule:nonzero;"/><path d="M79.797,29.062c-2.63,-15.134 -20.519,-27.051 -33.541,-15.021c-7.347,6.785 -7.701,17.61 -3.809,26.166c4.528,9.947 15.652,17.252 26.479,17.623c3.841,0.131 3.828,-5.822 0,-5.953c-15.373,-0.525 -31.181,-20.353 -18.461,-33.626c3.719,-3.881 9.536,-3.907 14.102,-1.682c5.506,2.684 8.48,8.264 9.49,14.076c0.655,3.776 6.392,2.17 5.74,-1.583Z" style="fill:#010101;fill-rule:nonzero;"/><path d="M56.057,35.646c0.74,2.359 0.638,5.081 3.014,6.554c1.459,0.906 3.137,0.9 4.779,0.666c2.531,-0.36 3.127,-2.432 3.855,-4.574c0.747,-2.195 1.114,-5.273 -0.946,-6.918c-1.96,-1.563 -4.44,-1.496 -6.832,-1.496c-3.839,-0.001 -3.839,5.952 0,5.953c0.843,0 1.686,-0.001 2.527,0.049c0.932,0.056 -0.323,-0.109 0.486,0.072c0.118,0.029 0.234,0.063 0.348,0.104c-0.831,-0.271 0.082,0.184 -0.623,-0.379c0.174,0.139 -0.316,-0.663 -0.25,-0.387c-0.266,-1.093 -0.178,0.687 -0.049,-0.081c-0.181,1.072 -0.589,2.146 -1.01,3.144c0.593,-0.456 1.186,-0.912 1.779,-1.368c-0.58,0.104 -0.299,0.064 -0.818,0.089c-0.911,0.042 0.37,0.153 -0.349,-0.026c0.134,0.033 0.798,0.599 0.403,0.209c0.25,0.344 0.292,0.375 0.125,0.097c0.154,0.386 0.176,0.419 0.065,0.099c-0.355,-1.102 -0.417,-2.279 -0.765,-3.388c-1.143,-3.653 -6.891,-2.094 -5.739,1.581Z" style="fill:#010101;fill-rule:nonzero;"/><path d="M138.353,203.854c0.207,-1.569 0.671,-2.608 1.474,-4.024c1.312,-2.313 -1.098,1.056 0.608,-0.804c0.97,-1.058 -0.801,0.271 1.252,-0.95c2.133,-1.271 -1.735,0.514 0.616,-0.252c2.463,-0.804 -0.144,-0.199 1.36,-0.297c0.486,-0.032 3.781,0.291 1.519,-0.061c1.097,0.17 2.164,0.496 3.217,0.837c2.567,0.831 -1.569,-0.821 0.87,0.401c1.035,0.52 1.996,1.17 2.939,1.835c-1.443,-1.018 1.115,1.18 1.38,1.453c0.706,0.837 0.782,0.892 0.226,0.163c0.354,0.488 0.686,0.989 0.998,1.504c1.736,2.739 2.185,6.171 1.387,9.459c-0.052,0.215 -1.102,2.867 -0.276,1.058c-0.175,0.382 -2.026,3.186 -0.768,1.584c-0.499,0.635 -1.083,1.194 -1.663,1.751c-1.024,0.985 0.783,-0.39 -1.287,0.875c-0.295,0.181 -2.643,1.249 -0.598,0.415c-0.978,0.399 -2.003,0.665 -3.026,0.911c-1.52,0.366 1.246,0.018 -1.405,0.163c-1.048,0.059 -2.096,-0.017 -3.138,-0.109c2.729,0.244 -4.239,-1.71 -1.896,-0.613c-0.415,-0.194 -3.094,-1.962 -1.29,-0.567c-0.806,-0.623 -1.5,-1.374 -2.169,-2.138c1.411,1.611 -0.063,-0.321 -0.266,-0.678c-0.469,-0.961 -0.478,-0.955 -0.023,0.019c-0.187,-0.535 -0.344,-1.078 -0.476,-1.628c-0.208,-1.093 -0.236,-1.142 -0.087,-0.146c-0.055,-0.635 -0.081,-1.271 -0.076,-1.907c-0.032,-1.774 0.02,-1.504 0.262,-2.747c-6.06,0 -12.119,0 -18.178,0c7.701,19.839 31.613,13.634 44.754,3.159c-4.936,-0.637 -9.869,-1.272 -14.805,-1.908c0.403,0.64 0.771,1.298 1.104,1.976c-0.763,-1.458 0.126,2.139 -0.126,-0.716c-0.09,-1.02 0.406,-2.181 2.17,-3.499c-1.942,1.45 0.89,-0.022 -1.635,0.798c-1.289,0.419 -2.628,0.689 -3.953,0.962c-6.122,1.26 -12.182,1.728 -17.086,6.058c-5.19,4.582 -2.582,14.31 4.159,15.754c5.807,1.244 11.204,1.244 17.012,0c11.884,-2.546 6.843,-20.718 -5.012,-18.178c-2.4,0.514 -4.589,0.514 -6.988,0c1.386,5.251 2.772,10.502 4.159,15.754c-2.343,2.065 0.736,0.009 -1.858,1.075c0.617,-0.254 1.272,-0.42 1.913,-0.597c1.5,-0.412 3.049,-0.664 4.58,-0.938c3.446,-0.615 6.936,-1.138 10.188,-2.484c11.234,-4.652 13.716,-15.247 7.65,-25.479c-3.355,-5.664 -10.106,-5.652 -14.804,-1.908c1.855,-1.479 -0.428,0.2 -0.704,0.378c-0.808,0.518 -1.658,0.966 -2.503,1.417c-1.886,1.005 -3.243,1.467 -5.762,2.175c-2.086,0.587 -2.269,0.603 -4.757,0.512c1.884,0.068 -1.473,-0.701 0.281,0.113c-1.587,-0.737 -0.11,-0.229 0.198,0.564c-1.541,-3.97 -4.569,-6.92 -9.089,-6.92c-3.948,0 -8.297,2.848 -9.089,6.92c-2.999,15.419 4.293,31.098 20.918,33.833c14.96,2.461 30.135,-5.682 33.837,-20.951c3.988,-16.451 -6.354,-32.303 -21.983,-37.364c-6.911,-2.238 -14.89,-1.371 -21.113,2.334c-7.834,4.664 -10.87,13.096 -11.997,21.654c-0.672,5.107 4.797,9.426 9.427,9.426c5.648,-0.002 8.757,-4.335 9.428,-9.427Z" style="fill:#010101;fill-rule:nonzero;"/></g></g></svg>