<?xml version="1.0" encoding="UTF-8" standalone="no"?><!DOCTYPE svg PUBLIC "-//W3C//DTD SVG 1.1//EN" "http://www.w3.org/Graphics/SVG/1.1/DTD/svg11.dtd"><svg width="100%" height="100%" viewBox="0 0 493 397" version="1.1" xmlns="http://www.w3.org/2000/svg" xmlns:xlink="http://www.w3.org/1999/xlink" xml:space="preserve" style="fill-rule:evenodd;clip-rule:evenodd;stroke-linejoin:round;stroke-miterlimit:1.41421;"><g id="bed"><path d="M9.944,146.176c-1.073,0.459 -2.146,0.918 -3.22,1.377c-0.797,-3.572 -1.594,-7.143 -2.391,-10.713c-5.524,13.789 -1.179,28.001 -0.652,42.228c0.682,18.454 -1.163,37.136 -2.021,55.562c-0.885,19.002 -0.89,38.035 -0.839,57.053c0.025,9.699 0.071,19.396 0.046,29.096c-0.01,3.598 -0.732,8.277 0.818,11.604c5.854,12.551 27.3,-1.502 22.12,-12.609c-0.145,-0.309 -0.289,-0.619 -0.434,-0.928c-4.277,-9.172 -17.836,-3.289 -20.604,4.195c-0.136,0.367 -0.271,0.734 -0.407,1.102c-1.925,5.203 -1.435,11.721 5.192,12.949c5.987,1.111 13.47,-3.381 15.576,-9.076c1.713,-4.635 1.513,-9.096 1.497,-13.939c-0.027,-8.686 -0.114,-17.371 -0.198,-26.055c-0.184,-18.965 -0.301,-37.93 0.297,-56.887c0.573,-18.178 1.72,-36.316 1.826,-54.51c0.041,-6.852 -0.789,-13.514 -1.674,-20.297c-0.773,-5.924 -2.207,-13.654 -1.269,-18.586c0.999,-5.25 -2.507,-9.504 -7.953,-9.063c-5.94,0.48 -10.593,5.193 -12.188,10.694c-0.002,0.009 -0.005,0.018 -0.007,0.026c1.721,-2.234 3.441,-4.467 5.162,-6.701c-0.445,0.225 -0.891,0.449 -1.336,0.673c-6.905,3.477 -6.772,15.712 2.659,12.805Z" style="fill:#010101;fill-rule:nonzero;"/><path d="M217.572,173.059c0.394,0.188 0.786,0.377 1.179,0.564c-0.72,-0.818 -1.438,-1.639 -2.158,-2.459c0.391,0.641 0.691,1.32 0.904,2.041c0.19,-2.32 0.381,-4.643 0.571,-6.963c-3.437,9.301 -3.407,18.486 -2.721,28.254c0.642,9.117 1.053,17.953 0.545,27.102c-0.998,17.992 -1.277,36.049 -2.586,54.018c-1.279,17.568 -3.545,35.051 -4.742,52.629c-0.575,8.453 -0.612,16.922 -1.128,25.377c-0.523,8.617 -1.096,17.264 0.477,25.807c7.68,-3.396 15.36,-6.793 23.041,-10.191c-0.531,-1.977 -1.729,-3.93 -3.678,-4.83c-0.734,-0.34 -8.324,-2.299 -4.691,-1.334c-5.653,-1.502 -10.835,3.496 -13.399,7.809c-2.179,3.664 -1.789,7.25 -0.728,11.178c1.341,4.967 7.819,5.598 11.828,4.316c5.329,-1.703 12.389,-8.164 11.212,-14.508c-1.366,-7.367 -1.129,-14.799 -0.72,-22.246c0.459,-8.387 0.642,-16.773 1.08,-25.158c0.918,-17.566 3.163,-35.049 4.605,-52.578c1.475,-17.914 1.406,-35.904 2.411,-53.85c0.505,-9.033 0.649,-18.003 -0.343,-27.006c-0.977,-8.855 -1.995,-17.357 -1.893,-26.291c0.063,-5.352 -6.019,-7.271 -10.28,-5.771c-1.573,0.553 -3.048,1.412 -4.61,1.945c-3.865,1.313 -10.273,9.217 -4.176,12.145Z" style="fill:#010101;fill-rule:nonzero;"/><path d="M10.306,293.543c5.136,4.68 14.418,6.209 21.027,7.684c9.009,2.012 17.835,4.813 26.584,7.729c16.589,5.527 33.077,11.225 49.964,15.791c33.271,8.998 68.352,12.963 100.045,27.117c4.363,-7.168 8.727,-14.338 13.09,-21.506c-3.959,-0.721 -7.256,-0.408 -11.15,0.439c-8.169,1.781 -13.742,13.23 -6.503,18.912c1.462,1.146 2.818,1.541 4.563,2.154c6.313,2.225 12.605,-0.191 16.656,-5.533c2.997,-3.951 5.097,-12.523 -1.031,-15.092c-33.342,-13.979 -69.563,-18.234 -104.551,-26.283c-17.681,-4.066 -34.842,-9.77 -52.303,-14.627c-8.984,-2.5 -18.041,-4.73 -27.224,-6.371c-8.46,-1.512 -18.803,-1.852 -26.606,2.229c-2.069,1.082 -4.948,5.182 -2.561,7.357Z" style="fill:#010101;fill-rule:nonzero;"/><path d="M7.654,193.872c6.429,5.137 14.207,6.902 21.942,9.42c8.741,2.844 17.419,5.891 26.028,9.107c16.971,6.346 34.195,12.021 51.495,17.381c35.631,11.039 71.872,20.209 107.085,32.57c3.442,-7.273 6.885,-14.549 10.327,-21.824c-2.151,-0.074 -4.096,0.396 -6.153,0.994c-6.732,1.949 -13.686,11.209 -8.537,17.801c1.888,2.416 4.008,3.24 6.921,3.918c12.078,2.809 25.248,-17.596 10.644,-22.58c-35.661,-12.172 -72.213,-21.332 -108.458,-31.537c-17.359,-4.887 -34.362,-10.76 -51.625,-15.943c-9.081,-2.727 -18.273,-5.281 -27.583,-7.094c-9.42,-1.834 -18.665,-3.264 -28.04,-0.65c-2.52,0.702 -7.263,5.866 -4.046,8.437Z" style="fill:#010101;fill-rule:nonzero;"/><path d="M23.719,199.845c-7.831,16.925 -7.664,36.976 -6.98,55.267c0.331,8.836 1.582,17.461 3.476,26.09c1.654,7.535 5.707,15.096 14.925,12.225c14.037,-4.373 14.558,-23.059 15.736,-35.078c0.304,-3.09 0.558,-6.186 0.818,-9.281c0.096,-1.141 0.063,-0.744 -0.101,1.189c0.132,-1.557 0.558,-3.156 0.843,-4.689c0.508,-2.729 1.047,-5.449 1.564,-8.176c2.217,-11.689 4.231,-24.072 1.88,-35.887c-7.436,3.289 -14.871,6.578 -22.308,9.867c1.939,7.965 9.053,9.854 16.104,11.184c1.156,0.311 1.224,0.287 0.202,-0.07c0.993,0.576 1.07,0.541 0.232,-0.104c-0.33,-0.365 -0.467,-0.791 -0.411,-1.273c0.226,1.102 0.212,2.256 0.221,3.373c0.022,2.803 -1.016,6.918 -1.753,10.275c-4.354,19.834 -2.991,41.236 -2.067,61.43c0.215,4.699 4.672,8.416 9.403,7.584c10.936,-1.92 18.702,-7.693 24.291,-17.215c4.417,-7.525 5.045,-17.273 5.314,-25.756c0.27,-8.473 -0.424,-16.961 -0.811,-25.418c-0.186,-4.084 -0.292,-8.172 -0.169,-12.26c0.027,-0.92 0.087,-1.836 0.149,-2.754c-0.184,2.709 0.066,-0.094 0.13,-0.559c0.208,-1.521 0.556,-3.016 0.998,-4.482c-6.486,3.77 -12.973,7.537 -19.459,11.307c2.731,1.908 6.155,2.764 9.327,3.66c1.607,0.455 3.234,0.844 4.85,1.266c0.775,0.205 1.546,0.422 2.313,0.654c-0.775,-0.297 -0.625,-0.225 0.451,0.215c1.814,0.766 -0.722,-2.164 0.139,-0.102c-0.124,-0.947 -0.117,-0.76 0.02,0.561c0.037,0.807 0.03,1.609 -0.022,2.414c-0.06,1.619 -1.227,6.033 -1.801,8.613c-4.402,19.777 -3.918,40.461 -6.345,60.516c-0.786,6.492 2.631,10.385 9.169,10.449c9.94,0.098 18.479,-0.285 25.419,-8.67c6.12,-7.396 6.62,-16.186 5.647,-25.322c-0.356,-3.348 -1.192,-6.939 -0.904,-10.318c0.438,-5.154 1.529,-10.252 2.612,-15.303c2.418,-11.275 4.868,-22.467 4.518,-34.078c-7.265,4.174 -14.529,8.348 -21.795,12.521c1.803,2.773 4.501,4.859 7.602,6.004c1.928,0.711 3.805,1.262 5.797,1.715c1.278,0.289 2.665,1.223 1.127,-0.047c1.536,1.268 0.065,-1.115 0.164,0.744c0.066,1.242 -0.067,1.477 -0.385,3.367c-0.545,3.246 -1.423,6.434 -2.156,9.639c-1.979,8.646 -2.632,17.889 -3.696,26.691c-1.244,10.287 -2.038,20.658 -1.65,31.021c0.132,3.543 2.855,7.092 6.55,7.463c8.97,0.904 18.107,0.221 25.029,-6.295c6.51,-6.127 8.114,-14.098 7.84,-22.691c-0.629,-19.682 -0.86,-39.129 3.096,-58.553c-7.19,3.223 -14.38,6.447 -21.57,9.67c2.487,2.553 5.256,4.42 8.604,5.602c2.033,0.717 4.058,1.348 6.129,1.934c0.553,0.156 2.002,1.031 1.262,0.369c-0.477,-0.426 -0.466,-1.631 -0.311,-0.166c0.158,1.5 0.11,3.027 0.084,4.531c-0.06,3.381 -0.316,5.627 -0.53,8.111c-1.575,18.287 -2.936,38.006 -2.094,57.164c0.173,3.924 2.867,6.602 6.555,7.469c4.633,1.09 9.216,1.584 13.972,1.719c5.065,0.145 11.385,-4.801 13.074,-9.424c4.945,-13.539 2.924,-26.377 2.123,-40.373c-0.779,-13.623 2.938,-27.084 2.292,-40.746c-6.582,4.732 -13.163,9.465 -19.745,14.197c6.266,2.512 12.551,3.895 19.207,4.852c-2.186,-2.49 -4.372,-4.982 -6.558,-7.473c3.851,26.461 -3.802,52.803 -3.176,79.297c0.089,3.762 2.909,6.824 6.56,7.475c10.664,1.898 21.709,-1.674 27.985,-10.881c5.687,-8.342 6.473,-18.379 6.012,-28.197c-0.448,-9.557 -2.156,-19.031 -3.48,-28.492c-0.577,-4.117 -1.087,-8.248 -1.349,-12.398c-0.108,-1.727 -0.131,-3.457 -0.075,-5.186c0.067,-2.088 -0.379,2.684 0.06,-0.277c0.106,-0.721 0.288,-1.426 0.494,-2.125c-5.654,4.078 -11.308,8.154 -16.961,12.23c3.432,0.309 6.885,0.256 10.309,0.596c0.242,0.023 2.791,0.777 2.417,0.596c-0.217,-0.488 0.073,-0.148 0.87,1.021c-0.621,-0.951 -0.676,-0.852 -0.164,0.301c-0.578,-1.66 0.143,1.74 0.148,1.813c0.129,1.717 0.021,3.453 -0.073,5.17c-0.103,1.85 -0.661,5.188 -1.012,7.592c-2.479,17.002 -3.196,35.195 -2.409,52.354c5.736,-5.035 11.473,-10.068 17.209,-15.102c-1.076,-0.223 -2.096,-0.572 -3.172,-0.795c-12.137,-2.502 -25.643,19.49 -10.645,22.582c1.076,0.223 2.096,0.572 3.172,0.795c8.3,1.711 17.589,-6.828 17.209,-15.102c-0.837,-18.199 0.962,-36.34 2.941,-54.385c0.886,-8.066 1.109,-15.607 -3.281,-22.707c-4.724,-7.639 -15.331,-6.625 -22.879,-7.303c-8.043,-0.721 -14.73,4.66 -16.961,12.23c-1.879,6.381 -1.081,13.637 -0.334,20.139c0.937,8.156 2.359,16.25 3.343,24.402c0.461,3.824 0.798,7.662 0.941,11.512c0.065,1.76 0.048,3.518 -0.019,5.275c-0.105,2.844 0.277,-2.342 -0.013,0.391c-0.106,1.012 -0.285,2.012 -0.481,3.008c-0.137,0.699 -0.329,1.385 -0.524,2.068c0.949,-3.324 0.419,-1.256 0.058,-0.443c-0.996,2.236 1.822,-2.666 0.481,-0.699c-1.247,1.828 2.9,-2.555 0.398,-0.463c3.302,-2.76 -0.276,-0.449 3.332,-1.945c-0.828,0.344 -2.921,0.604 0.524,0.023c-0.711,0.119 -1.438,0.129 -2.156,0.143c3.076,-0.061 -0.549,-0.176 -1.279,-0.307c2.187,2.492 4.373,4.984 6.56,7.477c-0.629,-26.5 7.025,-52.809 3.168,-79.295c-0.534,-3.672 -2.562,-6.898 -6.558,-7.473c-4.744,-0.682 -9.623,-1.281 -14.097,-3.074c-8.874,-3.559 -20.205,4.479 -19.745,14.197c0.592,12.496 -2.218,24.789 -2.377,37.268c-0.131,10.236 4.074,22.346 0.449,32.273c4.358,-3.143 8.717,-6.283 13.074,-9.426c-1.781,-0.051 -5.712,-0.861 -8.231,-1.453c2.185,2.49 4.37,4.98 6.555,7.471c-0.451,-10.252 -0.351,-20.494 0.151,-30.742c0.236,-4.814 0.581,-9.627 1.012,-14.43c0.186,-2.082 0.373,-4.156 0.47,-6.244c0.036,-0.615 0.079,-1.23 0.129,-1.844c-0.173,2.293 0.142,-1.617 0.144,-1.639c0.567,-6.602 2.189,-15.26 -0.871,-21.492c-2.124,-4.326 -5.957,-6.352 -10.314,-7.834c-2.955,-1.006 -5.749,-1.158 -7.708,-3.168c-7.305,-7.494 -19.868,1.311 -21.569,9.67c-3.518,17.279 -4.543,35.346 -4.169,52.957c0.059,2.727 0.262,5.451 0.432,8.174c0.086,1.379 0.152,2.758 0.196,4.139c0.018,0.547 -0.161,4.594 0.104,1.662c-0.088,0.965 -1.16,4.127 0.113,0.771c-0.593,1.209 -0.364,0.855 0.688,-1.059c0.867,-1.158 1.924,-2.105 3.168,-2.844c1.887,-0.754 2.15,-0.904 0.789,-0.451c1.527,-0.279 1.576,-0.326 0.145,-0.141c-1.625,0.17 -2.178,0.055 -3.564,-0.084c2.184,2.488 4.367,4.977 6.55,7.463c-0.366,-9.77 0.415,-19.404 1.633,-29.092c1.149,-9.148 2.146,-18.393 4.281,-27.367c1.804,-7.582 3.55,-15.982 -0.698,-22.998c-2.188,-3.617 -5.784,-5.053 -9.611,-6.346c-3.97,-1.342 -4.218,-0.047 -6.248,-3.17c-2.805,-4.311 -10.01,-2.744 -13.552,-0.725c-4.663,2.662 -8.411,7.705 -8.243,13.248c0.51,16.883 -6.117,33.129 -7.135,49.955c-0.166,2.748 0.438,5.658 0.758,8.379c0.215,1.82 0.396,3.641 0.538,5.469c0.042,0.535 0.035,4.617 0.164,3.389c-0.321,3.057 1.04,-1.492 -0.221,0.771c1.37,-2.459 3.999,-4.146 6.763,-4.59c-3.088,0.494 -6.457,-0.031 -9.566,-0.063c3.057,3.482 6.113,6.967 9.169,10.449c2.589,-21.402 2.528,-43.105 7.163,-64.229c1.606,-7.322 3.564,-18.518 -3.068,-24.115c-3.361,-2.838 -7.255,-4.006 -11.459,-5.154c-3.951,-1.078 -6.487,-1.342 -9.079,-3.152c-3.228,-2.254 -8.421,-0.807 -11.463,0.93c-4.095,2.336 -6.659,5.941 -7.996,10.379c-4.021,13.342 -1.252,28.777 -0.817,42.443c0.115,3.617 0.117,7.236 -0.035,10.854c-0.033,0.689 -0.074,1.379 -0.123,2.068c0.153,-2.344 -0.127,0.893 -0.156,1.131c-0.191,1.566 -0.489,3.113 -0.83,4.652c-0.136,0.582 -0.286,1.162 -0.451,1.736c-0.785,2.877 0.943,-2.359 -0.134,0.316c-0.212,0.502 -0.441,0.998 -0.689,1.484c-1.241,2.553 1.674,-2.41 0.07,-0.15c-0.904,1.115 -0.599,0.832 0.916,-0.852c-0.696,0.73 -2.836,2.113 0.513,-0.158c-0.752,0.51 -3.074,1.352 0.209,0.051c-0.62,0.246 -3.251,0.746 -0.286,0.225c3.135,2.529 6.269,5.057 9.403,7.584c-0.527,-11.521 -0.697,-23.049 -0.508,-34.584c0.076,-4.627 -0.149,-10.047 0.496,-14.27c0.552,-3.605 1.385,-7.172 2,-10.768c1.223,-7.154 3.121,-18.57 -3.144,-24.043c-3.06,-2.672 -6.636,-3.791 -10.593,-4.443c-0.406,-0.066 -4.072,-0.936 -2.062,-0.213c-0.992,-0.566 -1.054,-0.51 -0.183,0.17c0.979,0.85 -0.196,-0.5 -0.439,-1.484c-1.199,-4.834 -7.648,-5.395 -11.453,-4.178c-5.079,1.623 -12.096,7.939 -10.854,14.045c3.348,16.469 -2.77,32.428 -4.098,48.734c-0.13,1.594 0.188,-2.117 -0.081,0.936c-0.1,1.125 -0.207,2.25 -0.315,3.373c-0.264,2.732 -0.573,5.459 -0.927,8.18c-0.297,2.281 -0.656,4.555 -1.07,6.816c-0.176,0.955 -0.389,1.9 -0.618,2.844c-0.754,3.098 0.979,-2.018 -0.121,0.375c2.909,-5.811 8.646,-7.617 17.21,-5.42c-0.57,-0.682 -0.391,-0.32 0.54,1.082c-0.468,-0.795 -0.763,-1.703 -1.071,-2.564c-0.754,-2.109 -1.723,-6.293 -1.92,-7.279c-1.439,-7.172 -2.322,-14.516 -3.03,-21.791c-1.372,-14.115 -1.903,-29.645 1.385,-43.555c0.759,-3.207 -0.973,-6.44 -4.314,-7.061c-4.435,-0.819 -9.096,2.453 -10.901,6.352Z" style="fill:#010101;fill-rule:nonzero;"/><path d="M77.273,298.393c1.675,0 3.493,-1.047 4.704,-2.109c1.303,-1.143 2.335,-2.678 2.701,-4.391c0.305,-1.418 0.105,-2.973 -0.882,-4.1c-1.051,-1.197 -2.452,-1.406 -3.95,-1.406c-1.675,0 -3.492,1.045 -4.704,2.107c-1.303,1.145 -2.335,2.678 -2.702,4.391c-0.304,1.42 -0.104,2.975 0.883,4.1c1.051,1.197 2.452,1.408 3.95,1.408Z" style="fill:#010101;fill-rule:nonzero;"/><path d="M221.694,352.782c4.834,0.664 8.476,-2.531 12.508,-4.77c4.938,-2.742 9.779,-5.654 14.641,-8.527c10.575,-6.256 21.366,-12.115 32.104,-18.082c21.552,-11.979 43.417,-23.383 65.095,-35.129c21.658,-11.734 42.98,-24.055 64.236,-36.496c11.603,-6.793 23.134,-13.715 34.846,-20.318c11.608,-6.545 23.525,-12.283 35.333,-18.41c5.432,-2.818 7.858,-13.436 -0.729,-12.982c-3.064,0.162 -5.355,1.184 -7.924,2.797c-2.304,1.447 -5.542,5.605 -2.881,8.273c1.822,1.826 3.347,2.9 5.978,3.043c0.353,-4.299 0.704,-8.6 1.057,-12.899c-11.347,5.515 -22.304,12.302 -33.219,18.628c-11.642,6.746 -23.23,13.58 -34.826,20.404c-21.263,12.514 -42.608,24.883 -64.271,36.697c-21.658,11.811 -43.473,23.338 -65.024,35.348c-10.784,6.01 -21.384,12.371 -31.875,18.877c-4.832,2.994 -9.703,6.012 -14.295,9.367c-4.279,3.129 -10.113,5.984 -11.934,11.23c-0.396,1.136 -0.367,2.736 1.18,2.949Z" style="fill:#010101;fill-rule:nonzero;"/><path d="M30.756,187.315c1.909,-6.99 3.399,-12.638 9.022,-17.641c5.021,-4.466 11.429,-7.297 17.578,-9.826c18.493,-7.604 37.803,-13.445 56.659,-20.08c43.87,-15.436 87.554,-31.393 131.483,-46.649c2.853,-0.991 5.367,-3.369 6.016,-6.396c0.697,-3.252 -1.628,-6.041 -5.003,-5.701c-4.104,0.416 -7.475,1.919 -10.443,4.807c-2.061,2.006 -3.639,6.711 0.476,7.521c2.445,0.48 4.835,0.255 7.306,0.102c0.337,-4.033 0.675,-8.064 1.013,-12.097c-23.628,8.052 -46.854,17.376 -70.15,26.329c-23.898,9.184 -48.272,17.197 -72.359,25.879c-18.384,6.626 -37.837,12.244 -55.047,21.688c-6.457,3.543 -12.471,8.066 -17.04,13.883c-4.068,5.18 -7.244,13.393 -3.984,19.623c1.157,2.212 3.999,0.294 4.473,-1.442Z" style="fill:#010101;fill-rule:nonzero;"/><path d="M244.082,72.465c1.761,-4.146 2.706,-8.564 5.916,-11.934c3.002,-3.152 7.126,-4.775 11.254,-5.852c10.556,-2.751 22.104,-1.586 32.76,-0.111c11.138,1.543 22.113,4.168 32.956,7.104c10.677,2.893 21.997,5.455 30.557,12.848c1.384,-1.814 2.769,-3.629 4.153,-5.443c-1.453,-0.273 -2.386,-0.074 -3.824,0.287c-1.377,0.346 -3.564,2.91 -2.047,4.266c1.041,0.93 1.604,1.324 2.979,1.582c2.235,0.418 6.625,-3.311 4.153,-5.443c-9.438,-8.139 -21.341,-11.006 -33.089,-14.209c-12.525,-3.414 -25.295,-6.144 -38.217,-7.502c-11.544,-1.214 -24.338,-1.49 -35.193,3.221c-7.731,3.355 -17.104,12.172 -14.215,21.564c0.286,0.933 1.618,0.183 1.857,-0.378Z" style="fill:#010101;fill-rule:nonzero;"/><path d="M238.024,74.04c2.225,2.193 3.251,5.064 5.162,7.486c1.872,2.375 4.443,4.506 6.84,6.334c5.179,3.951 10.862,6.631 16.995,8.753c15.212,5.265 32.197,10.563 48.376,11.021c12.957,0.366 23.424,-2.756 33.603,-10.592c4.674,-3.598 18.323,-14.498 13.686,-21.627c-1.367,-2.102 -4.629,0.631 -4.945,2.218c-1.519,7.614 -9.328,13.462 -15.364,17.624c-10.379,7.156 -23.267,6.904 -35.296,5.102c-13.662,-2.047 -28.085,-6.025 -41.048,-10.791c-5.536,-2.035 -10.597,-5.152 -15.193,-8.819c-3.525,-2.813 -6.813,-7.745 -11.425,-8.529c-0.78,-0.134 -2.168,1.053 -1.391,1.82Z" style="fill:#010101;fill-rule:nonzero;"/><path d="M343.06,111.801c6.949,6.773 18.514,9.027 27.666,11.077c11.227,2.515 22.597,4.201 33.783,6.924c9.337,2.272 19.092,5.013 28.792,4.073c7.668,-0.74 19.583,-6.252 21.216,-14.615c0.502,-2.572 -2.313,-3.727 -4.289,-2.395c-3.467,2.335 -5.402,5.955 -9.086,8.143c-3.447,2.048 -7.598,2.449 -11.512,2.62c-8.938,0.389 -18.104,-2.548 -26.758,-4.421c-9.881,-2.14 -19.963,-3.26 -29.901,-5.092c-9.891,-1.822 -18.704,-5.465 -28.167,-8.6c-1.01,-0.334 -2.652,1.402 -1.744,2.286Z" style="fill:#010101;fill-rule:nonzero;"/><path d="M345.3,110.028c10.199,-5.777 17.395,-16.07 25.867,-23.965c4.417,-4.117 9.324,-7.797 15.219,-9.434c5.362,-1.488 11.854,-1.156 17.345,-0.826c21.949,1.32 48.653,9.305 62.985,27.023c0.124,-1.615 0.249,-3.23 0.373,-4.846c-2.946,3.346 -6.123,6.445 -9.533,9.318c-3.219,2.712 -7.519,4.089 -10.405,7.101c-1.104,1.153 -2.396,3.642 -0.363,4.7c4.521,2.352 9.763,-2.148 13.231,-4.668c5.024,-3.648 9.415,-8.309 13.443,-13.008c1.103,-1.285 1.531,-3.465 0.373,-4.846c-15.807,-18.846 -44.201,-26.552 -67.857,-27.344c-12.119,-0.404 -22.419,2.063 -32.064,9.525c-10.984,8.501 -19.44,20.26 -29.479,29.824c-0.826,0.79 -0.284,2.098 0.865,1.446Z" style="fill:#010101;fill-rule:nonzero;"/><path d="M230.802,97.428c8.696,1.827 17.515,2.947 26.203,4.871c8.832,1.955 17.574,4.284 26.273,6.757c17.813,5.062 35.547,10.512 53.227,16.019c14.424,4.494 28.995,10.227 43.896,12.875c10.258,1.822 22.668,1.693 30.79,8.887c0.115,-1.504 0.231,-3.006 0.347,-4.508c-0.028,0.045 -0.057,0.092 -0.086,0.139c1.245,-0.723 2.489,-1.445 3.733,-2.168c-1.858,0.066 -3.642,0.705 -4.661,2.371c-1.789,2.926 0.295,6.389 3.737,4.26c0.088,-0.054 0.175,-0.107 0.263,-0.162c-1.172,0.096 -2.344,0.189 -3.516,0.285c0.274,0.113 0.537,0.25 0.785,0.414c1.119,0.658 2.734,0.336 3.777,-0.307c0.045,-0.027 0.09,-0.056 0.135,-0.084c2.095,-1.29 3.567,-3.771 2.108,-6.053c-2.237,-3.499 -7.544,-4.875 -11.295,-5.902c-5.962,-1.631 -12.231,-2.24 -18.344,-3.047c-15.482,-2.039 -30.418,-7.286 -45.339,-11.73c-18.367,-5.471 -36.809,-10.788 -55.301,-15.816c-17.861,-4.855 -36.947,-10.271 -55.571,-10.5c-1.578,-0.021 -3.272,2.956 -1.161,3.399Z" style="fill:#010101;fill-rule:nonzero;"/><path d="M416.292,145.84c1.639,6.257 1.844,13.172 2.018,19.592c0.269,9.909 0.111,19.811 -0.333,29.713c-0.42,9.338 -1.126,18.689 -2.476,27.943c-0.464,3.18 -1.032,6.363 -1.852,9.475c-0.261,0.988 -0.353,1.123 -0.793,2.246c-0.224,0.57 -1.544,4.701 -0.254,1.521c-0.616,1.52 -0.352,3.289 1.479,3.691c6.789,1.496 8.445,-9.355 9.16,-13.758c1.564,-9.635 2.047,-19.496 2.335,-29.24c0.323,-10.906 0.119,-21.818 -0.823,-32.691c-0.553,-6.367 -0.809,-15.664 -5.363,-20.703c-1.272,-1.409 -3.486,0.731 -3.098,2.211Z" style="fill:#010101;fill-rule:nonzero;"/><path d="M267.373,2.292c-0.932,7.477 -0.185,15.208 -0.188,22.729c-0.002,4.459 -0.148,8.943 -0.588,13.381c-0.281,2.844 -2.054,6.734 0.363,8.957c1.342,1.234 3.186,0.719 4.462,-0.361c5.093,-4.311 3.483,-15.049 3.132,-21.049c-0.468,-8 -1.057,-17.148 -4.231,-24.607c-0.615,-1.448 -2.803,-0.226 -2.95,0.95Z" style="fill:#010101;fill-rule:nonzero;"/><path d="M486.871,55.431c-1.781,7.995 -1.389,16.528 -1.735,24.685c-0.367,8.623 -0.574,17.262 -0.817,25.891c-0.505,17.881 -1.132,35.762 -1.362,53.65c-0.444,34.427 1.483,68.775 1.253,103.188c2.639,-1.516 5.277,-3.031 7.915,-4.547c-1.139,-1.809 -2.731,-3.117 -3.997,-4.828c-1.868,-2.525 -6.543,0.971 -6.107,3.51c0.434,2.535 1.173,4.568 2.389,6.826c2.355,4.375 8.438,0.125 8.412,-3.721c-0.234,-34.35 -2.184,-68.613 -1.903,-102.98c0.14,-17.141 0.336,-34.279 0.544,-51.419c0.104,-8.552 0.113,-17.104 0.1,-25.655c-0.014,-8.359 0.6,-17.498 -1.445,-25.645c-0.456,-1.807 -3.011,-0.016 -3.247,1.045Z" style="fill:#010101;fill-rule:nonzero;"/><path d="M472.981,211.274c-2.903,7.461 -2.447,16.674 -2.825,24.588c-0.455,9.533 -0.399,19.025 0.753,28.51c0.16,1.318 0.914,2.344 2.278,2.596c4.855,0.896 9.855,-0.139 13.138,-4.092c2.77,-3.334 4.822,-8.963 2.001,-12.754c-1.656,-2.223 -5.424,0.135 -6.172,2.025c-1.49,3.768 0.083,7.84 -5.273,6.984c0.76,0.865 1.52,1.73 2.278,2.596c-1.277,-8.715 -1.564,-17.496 -1.714,-26.291c-0.129,-7.537 1.509,-17.76 -1.862,-24.691c-0.561,-1.155 -2.234,-0.418 -2.602,0.529Z" style="fill:#010101;fill-rule:nonzero;"/><path d="M477.91,210.364c-6.248,14.6 -3.294,32.094 -4.224,47.537c2.484,-0.795 4.969,-1.592 7.453,-2.389c-2.846,-15.318 0.664,-30.91 3.902,-45.887c-2.442,0.197 -4.886,0.395 -7.328,0.594c-3.021,15.521 -2.646,31.234 -2.693,46.969c-0.016,5.096 7.894,1.527 7.957,-2.551c0.249,-15.98 4.635,-31.551 4.688,-47.553c-2.606,0.834 -5.212,1.67 -7.818,2.506c0.113,17.469 -0.891,34.932 -1.003,52.4c2.745,-0.879 5.491,-1.76 8.236,-2.641c0.051,-10.572 0.027,-21.145 0.002,-31.719c-2.747,0.881 -5.493,1.762 -8.24,2.641c0.556,3.908 0.951,7.834 1.195,11.771c0.133,2.139 0.149,4.275 0.071,6.416c-0.031,0.877 -0.148,1.73 -0.284,2.598c-0.085,0.482 -0.197,0.961 -0.339,1.43c-0.606,1.68 0.273,1.131 2.639,-1.645c-2.902,0.406 -6.947,5.922 -2.371,6.932c12.689,2.797 8.127,-24.334 7.329,-30.143c-0.747,-5.443 -8.23,-1.473 -8.24,2.641c-0.025,10.574 -0.05,21.146 0.002,31.719c0.025,5.258 8.25,1.619 8.236,-2.641c-0.056,-17.42 0.421,-34.846 0.585,-52.266c0.047,-4.995 -7.741,-1.504 -7.818,2.506c-0.307,15.996 -4.732,31.563 -4.827,47.598c2.652,-0.85 5.305,-1.699 7.957,-2.551c-0.102,-15.033 -0.985,-30.188 2.064,-45.012c1.056,-5.129 -6.454,-3.252 -7.328,0.594c-3.585,15.764 -7.396,32.404 -3.855,48.514c0.946,4.303 7.196,-0.326 7.281,-3.221c0.442,-15.084 -1.091,-29.916 0.712,-44.963c0.322,-2.694 -3.16,-2.01 -3.941,-0.184Z" style="fill:#010101;fill-rule:nonzero;"/><path d="M470.384,210.042c-1.417,6.102 -1.09,12.418 -0.874,18.635c0.126,3.615 0.142,7.234 0.032,10.852c-0.088,2.924 -1.003,6.037 0.573,8.658c0.781,1.299 2.3,0.715 3.12,-0.252c3.897,-4.596 3.12,-12.051 2.887,-17.705c-0.291,-7.016 -0.875,-14.355 -2.822,-21.127c-0.463,-1.614 -2.691,-0.03 -2.916,0.939Z" style="fill:#010101;fill-rule:nonzero;"/><path d="M474.792,262.586c-0.062,1.502 -0.736,2.943 0.235,4.301c0.984,1.379 2.063,1.98 3.704,2.422c4.041,1.088 8.246,-1.305 10.76,-4.275c0.693,-0.818 1.384,-2.586 0.779,-3.637c-0.036,-0.064 -0.072,-0.127 -0.109,-0.189c-0.594,-1.033 -1.326,-1.451 -2.535,-1.416c-2.852,0.082 -3.672,2.582 -5.776,3.184c-1.851,0.529 -3.567,-0.602 -5.382,-0.5c0.302,0.107 0.604,0.215 0.905,0.322c-0.315,-0.201 -0.486,-0.492 -0.513,-0.873c-0.21,-1.385 -2.027,-0.346 -2.068,0.661Z" style="fill:#010101;fill-rule:nonzero;"/><path d="M268.01,3.989c17.995,5.063 35.759,11.053 53.691,16.365c18.636,5.521 37.747,9.566 56.565,14.438c18.586,4.809 37.178,10.731 56.043,14.303c17.188,3.254 35.104,3.677 51.359,10.751c-0.125,-1.831 -0.25,-3.663 -0.375,-5.495c-0.247,0.322 -0.494,0.646 -0.741,0.969c0.986,-0.709 1.974,-1.418 2.96,-2.127c-0.917,0.376 -1.77,0.742 -2.602,1.284c-3.162,2.06 -3.751,8.899 1.422,6.854c2.344,-0.926 3.632,-1.594 5.4,-3.5c1.275,-1.375 1.709,-4.572 -0.375,-5.495c-15.326,-6.784 -32.061,-7.945 -48.44,-10.364c-19.326,-2.855 -38.372,-8.961 -57.295,-13.738c-19.564,-4.941 -39.397,-8.92 -58.881,-14.141c-18.945,-5.076 -37.42,-11.885 -57.018,-13.742c-1.865,-0.178 -4.205,2.937 -1.713,3.638Z" style="fill:#010101;fill-rule:nonzero;"/><path d="M272.308,7.065c-0.442,8.555 -1.271,17.22 -1.271,25.783c0,5.346 8.299,1.607 8.348,-2.678c0.102,-8.744 0.858,-17.543 -0.651,-26.211c-1.007,-5.784 -8.414,-1.438 -8.629,2.766c-0.633,12.357 1.929,24.732 0.449,37.055c-0.163,1.361 -0.006,3.16 1.506,3.783c3.038,1.254 6.418,1.873 9.692,2.057c3.152,0.175 6.242,-1.795 6.957,-5.018c1.593,-7.18 1.745,-14.941 1.346,-22.254c-0.304,-5.557 -1.119,-14.754 -7.885,-16.125c-0.653,3.047 -1.306,6.094 -1.959,9.141c5.24,-1.057 5.816,1.781 5.316,6.393c-0.584,5.373 -2.073,10.663 -1.818,16.107c0.307,6.543 9.87,1.787 9.967,-3.193c0.101,-5.191 0.775,-10.313 1.475,-15.451c-3.282,0.664 -6.564,1.327 -9.848,1.99c0.416,5.088 0.195,8.613 -3.827,11.879c-3.872,3.143 -7.618,5.964 -10.787,9.885c-2.007,2.48 -1.413,7.437 2.706,6.795c8.101,-1.264 15.45,-1.34 23.098,1.957c4.296,1.854 10.588,-3.738 7.475,-8.02c-5.956,-8.191 -2.506,-21.063 -2.407,-30.432c0.067,-6.322 -9.755,-1.881 -9.879,3.167c-0.092,3.712 -0.68,7.382 -0.771,11.095c-0.155,6.275 9.653,1.863 9.84,-3.154c0.158,-4.271 1.374,-8.398 1.562,-12.68c-1.968,2.092 -3.937,4.184 -5.904,6.275c12.116,-0.808 4.51,23.699 3.178,29.793c3.346,-0.676 6.691,-1.352 10.037,-2.027c-1.514,-10.15 -1.24,-20.377 -3.443,-30.449c-1.179,-5.386 -10.327,-0.055 -9.832,4.35c0.967,8.578 3.563,17.262 0.845,25.75c-0.655,2.047 0.759,3.967 2.705,4.426c6.535,1.545 12.682,3.832 18.705,6.789c4.408,2.166 10.811,-3.969 7.689,-8.25c-5.97,-8.189 -10.748,-17.953 -9.543,-28.359c-2.457,1.771 -4.915,3.543 -7.372,5.316c2.003,0.119 6.54,-0.033 7.729,2.162c0.92,1.697 0.135,4.158 -0.209,5.896c-1.111,5.623 -2.3,11.363 0.138,16.823c2.521,5.646 10.104,-0.138 10.166,-4.497c0.086,-6.09 0.734,-12.152 0.812,-18.244c0.021,-1.678 -1.329,-2.969 -2.884,-3.285c-3.54,-0.725 -6.148,-2.51 -9.178,-4.377c-2.313,3.053 -4.625,6.105 -6.938,9.158c8.426,4.789 17.867,6.605 27.298,8.313c4.309,0.779 11.354,-7.498 5.802,-9.533c-4.497,-1.646 -8.273,-3.961 -10.982,-7.99c-0.929,2.666 -1.857,5.33 -2.785,7.996c0.668,-0.361 2.607,-1.143 2.652,-1.139c-0.479,-0.054 -0.122,-0.215 0.233,0.883c0.769,2.371 -0.089,5.713 -0.493,8.064c-1.09,6.328 -3.514,12.617 -3.723,19.068c3.526,-1.129 7.052,-2.26 10.578,-3.391c-1.504,-7.482 -1.7,-15.139 -3.415,-22.589c-1.386,-6.022 -9.268,0.387 -10.225,3.294c-2.331,7.088 -1.721,14.541 -1.681,21.889c0.013,2.275 2.136,3.508 4.188,3.377c5.227,-0.332 9.329,3.141 13.422,5.929c3.629,2.472 9.177,-2.655 8.843,-6.358c-0.949,-10.531 -1.841,-23.031 -8.735,-31.594c-1.873,3.045 -3.747,6.09 -5.621,9.134c6.122,-0.946 7.767,1.403 7.938,7.258c0.175,5.958 -1.052,11.888 -1.126,17.845c3.598,-1.153 7.195,-2.307 10.793,-3.461c-0.482,-7.72 2.266,-15.027 3.851,-22.486c-3.558,0.719 -7.116,1.438 -10.675,2.157c0.006,3.171 0.01,6.341 0.015,9.511c0.011,6.857 10.765,2.117 10.756,-3.447c-0.008,-5.021 -0.015,-10.04 -0.022,-15.06c-2.585,2.269 -5.169,4.536 -7.753,6.804c11.472,2.701 0.76,21.567 -0.483,28.643c-0.353,2.004 0.519,4.43 2.855,4.674c1.592,0.168 2.93,0.541 4.392,1.191c3.076,1.367 7.188,-0.713 8.378,-3.807c1.912,-4.98 2.23,-10.346 2.51,-15.625c0.221,-4.192 0.847,-9.521 -0.585,-13.586c-2.119,-6.016 -12.212,0.471 -10.307,5.875c0.298,0.848 -0.147,-1.297 0.038,0.408c0.081,0.742 0.104,1.493 0.138,2.238c0.093,2.061 0.062,4.127 0.019,6.187c-0.084,4.017 0.015,8.896 -1.441,12.706c2.793,-1.268 5.586,-2.537 8.378,-3.807c-2.168,-0.958 -4.342,-1.738 -6.71,-1.98c0.952,1.557 1.904,3.115 2.855,4.674c2.16,-12.434 14.078,-33.354 -5.241,-37.965c-3.85,-0.919 -7.747,3.184 -7.753,6.804c-0.008,5.024 -0.015,10.049 -0.022,15.073c-0.01,6.854 10.747,2.115 10.756,-3.447c0.005,-3.174 0.009,-6.348 0.015,-9.521c0.01,-6.753 -9.737,-2.194 -10.675,2.157c-1.8,8.353 -4.628,16.428 -4.079,25.09c0.449,7.1 10.73,1.938 10.793,-3.461c0.088,-7.408 2.091,-15.038 0.64,-22.398c-1.611,-8.178 -8.298,-10.791 -16.028,-9.591c-3.679,0.571 -8.755,5.249 -5.621,9.134c5.78,7.17 6.287,18.287 7.126,27.084c2.947,-2.119 5.896,-4.238 8.843,-6.358c-5.775,-3.888 -11.069,-7.251 -18.301,-6.759c1.396,1.127 2.792,2.252 4.188,3.379c-0.068,-6.564 -0.618,-13.02 1.495,-19.346c-3.408,1.098 -6.816,2.195 -10.225,3.294c1.581,7.038 1.7,14.333 3.17,21.409c1.263,6.082 10.225,-0.439 10.333,-4.57c0.049,-1.881 1.293,-6.584 1.948,-9.462c1.063,-4.667 1.967,-9.337 2.242,-14.124c0.201,-3.494 -0.362,-8.041 -3.679,-10.021c-4.105,-2.452 -9.176,-0.226 -12.939,1.806c-2.813,1.518 -4.708,5.131 -2.785,7.996c3.059,4.557 7.714,7.586 12.807,9.455c1.934,-3.178 3.867,-6.355 5.802,-9.533c-8.68,-1.576 -17.279,-3.131 -25.038,-7.547c-4.801,-2.734 -12.261,5.873 -6.938,9.158c3.74,2.31 7.076,4.258 11.438,5.139c-0.961,-1.095 -1.922,-2.189 -2.884,-3.285c-0.064,6.086 -0.698,12.145 -0.772,18.23c3.389,-1.498 6.777,-2.998 10.166,-4.496c-2.571,-5.723 0.604,-12.191 0.872,-18.131c0.36,-7.967 -7.23,-10.527 -13.831,-10.906c-3.072,-0.176 -6.982,1.875 -7.372,5.316c-1.485,13.1 3.434,24.656 11.074,35.075c2.563,-2.75 5.126,-5.501 7.689,-8.251c-6.715,-3.275 -13.661,-5.803 -20.943,-7.484c0.901,1.477 1.804,2.951 2.705,4.428c2.974,-9.432 0.204,-18.672 -0.743,-28.17c-3.277,1.449 -6.555,2.898 -9.832,4.348c1.931,9.291 1.457,18.87 2.902,28.229c0.961,6.223 9.107,2.321 10.037,-2.027c2.545,-11.906 9.413,-39.697 -11.096,-38.4c-3.238,0.205 -5.757,3.171 -5.904,6.276c-0.203,4.267 -1.434,8.399 -1.608,12.694c3.28,-1.051 6.56,-2.104 9.84,-3.154c0.104,-3.715 0.706,-7.389 0.811,-11.107c-3.293,1.056 -6.586,2.111 -9.879,3.167c-0.162,11.503 -3.37,24.54 3.938,34.591c2.491,-2.674 4.983,-5.348 7.475,-8.021c-9.09,-3.92 -17.955,-4.357 -27.65,-2.799c0.902,2.265 1.805,4.529 2.706,6.795c3.552,-4.432 8.732,-6.992 12.41,-11.279c4.311,-5.025 5.134,-11.297 4.692,-17.707c-0.419,-6.079 -9.21,-2.309 -9.848,1.99c-0.882,5.934 -1.629,11.848 -1.695,17.854c3.322,-1.064 6.645,-2.129 9.967,-3.193c-0.373,-6.736 2.237,-13.293 1.74,-20.058c-0.646,-8.806 -8.607,-9.62 -15.689,-8.192c-3.752,0.758 -7.266,8.066 -1.959,9.142c2.55,0.517 2.53,11.032 2.587,13.239c0.141,5.5 -0.139,11.165 -1.194,16.574c1.926,-1.689 3.852,-3.38 5.778,-5.07c-2.058,-0.061 -4.644,-0.328 -6.576,-1.063c0.502,1.262 1.004,2.522 1.506,3.783c1.228,-13.1 -1.708,-25.98 -1.135,-39.066c-2.876,0.922 -5.753,1.844 -8.629,2.766c1.571,8.621 0.928,17.409 0.933,26.123c2.782,-0.893 5.565,-1.785 8.348,-2.678c0,-8.288 -0.829,-16.686 -1.271,-24.967c-0.215,-3.877 -5.669,-0.963 -5.814,1.857Z" style="fill:#010101;fill-rule:nonzero;"/><path d="M276.348,14.229c-0.983,3.184 -1.119,6.301 -1.217,9.629c-0.086,2.936 -1.002,6.992 -0.142,9.791c1.548,5.029 8.096,-0.043 8.919,-2.875c0.729,-2.502 -0.584,-5.924 -1.08,-8.423c-0.646,-3.249 -1.235,-6.36 -2.466,-9.416c-0.876,-2.177 -3.593,-0.071 -4.014,1.294Z" style="fill:#010101;fill-rule:nonzero;"/><path d="M253.053,87.864c-2.605,0.189 -4.918,0.896 -7.385,1.738c-3.578,1.223 -6.108,7.678 -0.646,7.727c-0.19,-0.002 1.686,0.896 2.15,1.011c2.352,0.583 4.749,0.891 7.112,1.419c2.721,0.607 5.404,-1.908 6.039,-4.355c0.275,-1.059 0.55,-2.117 0.825,-3.176c0.414,-1.596 -0.516,-3.496 -2.268,-3.709c-5.497,-0.668 -10.671,0.48 -16.067,1.398c0.8,2.008 1.6,4.016 2.399,6.022c0.798,-1.075 2.443,-1.612 3.606,-2.188c-1.704,-0.092 -3.407,-0.184 -5.111,-0.273c13.292,11.352 32.115,17.01 48.846,20.764c16.705,3.748 38.494,6.537 52.907,-4.947c2.94,-2.342 3.439,-8.914 -1.776,-8.253c-6.083,0.771 -12.156,1.612 -18.238,2.382c-5.298,0.672 -9.576,10.262 -2.145,10.006c11.394,-0.393 21.486,-6.627 31.201,-11.963c-1.828,-2.084 -3.656,-4.168 -5.485,-6.25c-3.854,6.207 -12.228,8.119 -18.557,10.865c-2.974,1.289 -6.793,5.166 -4.098,8.543c4.932,6.182 12.78,8.049 20.271,9.031c4.211,0.553 11.182,-6.549 5.756,-9.456c-3.241,-1.737 -6.281,-3.806 -9.521,-5.542c-2.287,3.018 -4.572,6.035 -6.859,9.053c10.584,3.709 20.846,8.258 31.37,12.125c9.878,3.631 19.884,5.946 30.153,8.105c6.523,1.373 13.571,3.127 18.874,7.408c6.161,4.973 8.918,12.791 10.407,20.314c3.518,-1.555 7.034,-3.111 10.552,-4.667c-1.511,-5.58 -2.337,-11.362 -4.759,-16.651c-2.73,-5.961 -10.287,0.262 -10.55,4.666c-0.729,12.197 0.021,24.371 1.589,36.475c0.867,6.689 9.701,2.393 10.684,-2.158c1.86,-8.625 5.207,-16.768 5.734,-25.658c0.215,-3.613 -0.178,-7.873 -2.358,-10.892c-2.284,-3.161 -5.463,-5.343 -7.484,-8.772c-2.085,2.704 -4.169,5.408 -6.254,8.113c5.876,-0.094 11.615,-0.918 17.235,-2.656c3.55,-1.1 8.415,-9.229 2.148,-10.026c-5.964,-0.759 -11.95,-0.848 -17.955,-0.851c-0.74,3.453 -1.48,6.906 -2.221,10.361c8.006,-0.825 16.034,-1.166 23.578,-4.246c2.365,-0.965 4.452,-2.711 5.014,-5.328c0.555,-2.59 -1.346,-5.199 -4.17,-4.752c-6.121,0.969 -12.073,2.545 -18.027,4.244c-3.979,1.136 -8.06,8.59 -2.146,10.018c13.561,3.275 26.367,-4.81 38.149,-10.342c-1.894,-2.158 -3.788,-4.316 -5.682,-6.475c-7.096,8.338 -17.113,13.498 -22.993,22.996c-2.104,3.4 -0.907,9.215 4.305,7.08c7.472,-3.063 13.601,-7.807 19.315,-13.453c-2.315,-1.836 -4.631,-3.673 -6.946,-5.51c-6.172,7.586 -13.381,14.18 -20.293,21.068c2.549,1.398 5.099,2.795 7.648,4.191c4.014,-7.252 7.929,-14.525 11.063,-22.209c2.683,-6.575 -5.332,-7.111 -8.659,-3.013c-3.847,4.741 -7.377,9.759 -9.496,15.526c-2.131,5.793 3.645,7.123 7.608,4.168c3.864,-2.879 6.952,-5.896 8.988,-10.334c2.897,-6.314 -5.659,-7.559 -8.707,-3.029c-2.557,3.799 -4.061,7.659 -5.192,12.082c-0.591,2.309 0.754,3.938 2.822,4.619c11.32,3.723 23.307,1.772 34.866,4.014c1.599,-3.393 3.198,-6.783 4.797,-10.176c-8.849,-0.706 -17.594,3.322 -20.698,12.117c3.11,-1.02 6.221,-2.04 9.331,-3.061c-4.829,-7.673 -1.464,-19.327 0.627,-27.381c-3.426,0.277 -6.852,0.555 -10.277,0.832c-3.155,14.537 -7.652,28.792 -9.421,43.604c3.398,-0.687 6.797,-1.373 10.194,-2.06c0.032,-11.654 0.689,-23.381 -1.606,-34.883c-0.951,-4.77 -6.68,-3.693 -8.979,-0.436c-8.639,12.232 -9.07,28.221 -10.134,42.621c3.508,-1.125 7.016,-2.25 10.523,-3.373c0.088,-10.053 0.795,-20.088 0.824,-30.143c0.007,-2.258 -2.158,-3.557 -4.203,-3.391c-3.081,0.25 -5.423,2.678 -6.275,5.508c-3.973,13.189 -5.534,26.899 -7.862,40.435c3.447,-0.696 6.896,-1.394 10.343,-2.089c-0.021,-10.486 -0.044,-21.234 -3.453,-31.275c-1.931,-5.686 -8.968,0.106 -10.021,3.229c-4.148,12.313 -4.062,25.658 -4.036,38.508c0.013,6.584 10.27,2.002 10.297,-3.301c0.05,-9.52 0.678,-19.029 -0.021,-28.539c-0.463,-6.295 -9.437,-2.34 -10.149,2.051c-1.521,9.357 -0.935,18.76 -0.875,28.189c3.403,-1.09 6.806,-2.182 10.209,-3.271c-0.752,-6.579 -0.802,-13.206 -0.81,-19.82c-0.007,-6.084 -9.631,-2.486 -10.072,2.035c-1.393,14.242 0.75,28.686 -1.66,42.826c3.408,-0.689 6.816,-1.379 10.225,-2.066c0.047,-9.164 -0.471,-18.307 1.581,-27.309c-3.477,0.703 -6.953,1.404 -10.43,2.107c0.651,11.406 -1.451,22.701 -1.57,34.094c3.22,-1.852 6.438,-3.701 9.659,-5.551c-1.434,-1.832 -0.429,-5.457 0.014,-7.561c0.916,-4.361 2.516,-8.566 4.13,-12.707c3.007,-7.711 6.739,-15.172 9.261,-23.066c-3.451,0.697 -6.901,1.395 -10.353,2.092c0.589,12.233 -2.219,24.254 -2.36,36.469c-0.077,6.629 10.359,2.041 10.422,-3.342c0.146,-12.414 3.036,-24.537 4.633,-36.803c0.937,-7.199 -9.292,-4.652 -10.172,0.824c-2.395,14.916 -5.518,29.695 -5.646,44.863c3.375,-1.494 6.75,-2.986 10.125,-4.479c-2.127,-3.951 -2.838,-7.869 -2.936,-12.324c-0.146,-6.641 -9.219,-1.932 -10.254,2.07c-1.128,4.365 -1.006,9.545 -0.103,13.936c0.954,4.641 6.864,3.943 9.062,0.441c9.517,-15.174 12.929,-32.596 15.449,-50.088c-3.408,0.689 -6.817,1.379 -10.227,2.066c0.643,12.729 -1.467,25.347 -1.579,38.061c-0.054,6.09 8.273,2.365 9.777,-0.793c5.657,-11.879 6.689,-24.883 8.357,-37.746c0.94,-7.254 -8.886,-4.414 -10.092,0.817c-2.706,11.745 -5.552,24.077 -3.271,36.13c0.961,5.074 6.53,3.322 9.003,0.438c10.919,-12.736 9.23,-33.301 9.204,-48.93c-0.011,-6.57 -10.225,-1.986 -10.266,3.291c-0.109,13.898 -3.596,30.666 5.592,42.568c2.401,3.109 7.853,-0.1 8.891,-2.916c5.64,-15.307 4.427,-31.299 5.981,-47.256c-3.384,0.684 -6.768,1.367 -10.151,2.051c-0.064,13.66 -1.506,27.537 2.61,40.795c1.769,5.695 8.921,-0.176 9.926,-3.199c4.84,-14.557 3.345,-30.197 5.562,-45.198c-3.395,0.687 -6.79,1.372 -10.185,2.058c-0.624,16.823 3.075,33.301 4.746,49.961c0.665,6.637 10.794,2.039 10.313,-3.307c-1.565,-17.404 -0.812,-34.895 -0.78,-52.34c0.012,-6.588 -10.326,-2.031 -10.338,3.314c-0.034,15.602 -0.746,31.231 0.785,46.787c0.655,6.662 10.835,2.051 10.354,-3.318c-2.342,-26.113 -0.821,-52.34 -0.779,-78.508c0.011,-6.633 -10.334,-2.014 -10.381,3.328c-0.131,15.131 -3.048,30.066 -3.18,45.201c3.466,-1.111 6.931,-2.223 10.396,-3.332c0.002,-15.068 0.005,-30.135 0.007,-45.201c0.001,-2.221 -2.117,-3.498 -4.133,-3.334c-3.093,0.25 -5.248,2.645 -6.172,5.416c-4.839,14.512 -9.666,29.026 -14.278,43.611c-0.641,2.027 0.742,4.16 2.771,4.537c2.926,0.543 5.735,-1.607 7.001,-4.08c7.367,-14.389 9.748,-30.599 11.527,-46.48c0.667,-5.947 -6.292,-5.301 -8.996,-1.697c-6.103,8.137 -10.101,17.432 -13.079,27.104c-1.871,6.072 6.654,4.721 8.983,1.693c7.094,-9.215 11.011,-20.15 14.663,-31.063c1.433,-4.278 -3.926,-5.246 -6.659,-3.72c-7.486,4.182 -11.304,11.49 -16.58,17.889c2.591,1.4 5.183,2.801 7.773,4.201c4.595,-5.629 8.048,-11.435 8.425,-18.824c0.144,-2.801 -3.267,-3.869 -5.43,-3.049c-9.526,3.617 -16.018,11.436 -20.234,20.496c-2.931,6.299 5.381,7.072 8.509,2.961c3.484,-4.578 6.187,-9.574 7.525,-15.195c1.237,-5.191 -5.101,-5.206 -7.887,-2.811c-4.685,4.029 -8.794,8.661 -13.478,12.691c1.882,2.145 3.765,4.289 5.646,6.436c9.094,-8.901 20.163,-15.537 28.797,-24.918c2.648,-2.877 1.063,-7.041 -2.805,-7.04c-1.058,0.001 -2.114,0.001 -3.172,0.001c-0.269,3.211 -0.537,6.424 -0.807,9.637c8.233,-2.719 15.069,-9.049 16.695,-17.783c-3.405,0.688 -6.811,1.375 -10.217,2.064c-0.064,9.525 -0.772,19.031 -0.833,28.559c3.468,-1.111 6.935,-2.223 10.402,-3.334c-1.327,-7.826 -0.114,-15.523 0.721,-23.33c-3.455,0.697 -6.909,1.396 -10.364,2.094c-0.009,5.701 -0.088,11.412 -0.646,17.09c-0.346,3.514 -1.245,13.098 -3.669,14.264c-6.117,2.941 -3.732,11.828 3.24,8.475c6.916,-3.326 9.037,-11.998 10.16,-18.887c1.305,-7.998 1.395,-16.213 1.385,-24.299c-0.008,-6.273 -9.881,-2.541 -10.364,2.094c-0.896,8.592 -2.351,17.229 -0.865,25.834c1.182,6.844 10.384,1.878 10.402,-3.334c0.034,-9.518 0.715,-19.018 0.753,-28.535c0.025,-6.367 -9.429,-2.232 -10.217,2.064c-0.74,4.034 -3.281,6.337 -7.092,7.592c-4.483,1.479 -7.602,9.635 -0.807,9.637c1.057,0 2.113,0 3.17,0.001c-0.935,-2.347 -1.869,-4.694 -2.805,-7.04c-7.889,8.563 -18.381,14.514 -26.711,22.66c-5.083,4.971 0.165,11.146 5.646,6.436c4.687,-4.029 8.797,-8.658 13.483,-12.686c-2.629,-0.937 -5.258,-1.873 -7.887,-2.811c-0.913,3.824 -2.796,7.074 -5.162,10.182c2.836,0.986 5.672,1.973 8.509,2.959c2.43,-5.215 5.855,-10.672 11.484,-12.807c-1.811,-1.017 -3.62,-2.033 -5.43,-3.049c-0.232,4.479 -3.135,7.982 -5.849,11.305c-1.53,1.873 -2.035,5.287 0.453,6.634c2.608,1.413 5.669,-0.431 7.32,-2.433c3.789,-4.59 6.626,-10.848 11.967,-13.828c-2.22,-1.239 -4.439,-2.479 -6.659,-3.719c-3.051,9.1 -6.387,18.355 -12.298,26.029c2.994,0.564 5.989,1.129 8.983,1.693c2.422,-7.848 5.76,-15.469 10.71,-22.061c-2.999,-0.566 -5.997,-1.131 -8.996,-1.697c-1.686,14.975 -3.719,30.346 -10.674,43.916c3.258,0.152 6.515,0.305 9.772,0.457c4.619,-14.582 9.432,-29.1 14.267,-43.611c-3.435,0.693 -6.87,1.387 -10.305,2.082c0.002,15.064 0.005,30.13 0.007,45.195c0.002,6.648 10.352,2.014 10.396,-3.332c0.126,-15.129 3.037,-30.064 3.164,-45.197c-3.461,1.109 -6.92,2.219 -10.381,3.328c-0.033,26.164 -1.544,52.389 0.807,78.498c3.451,-1.105 6.902,-2.213 10.354,-3.318c-1.536,-15.555 -0.828,-31.184 -0.801,-46.783c-3.446,1.105 -6.892,2.209 -10.338,3.314c-0.023,17.443 -0.768,34.93 0.806,52.332c3.438,-1.104 6.875,-2.205 10.313,-3.307c-1.679,-16.656 -5.386,-33.131 -4.77,-49.953c0.227,-6.189 -9.529,-2.388 -10.185,2.058c-2.209,14.995 -0.713,30.661 -5.54,45.198c3.309,-1.066 6.617,-2.133 9.926,-3.199c-3.851,-12.38 -2.208,-25.742 -2.147,-38.5c0.029,-6.122 -9.707,-2.511 -10.151,2.051c-1.441,14.801 0.104,30.552 -5.118,44.729c2.963,-0.973 5.927,-1.945 8.891,-2.916c-7.824,-10.135 -4.021,-26.499 -3.924,-38.314c-3.422,1.098 -6.844,2.195 -10.266,3.291c0.009,7.287 0.138,14.594 -0.525,21.859c-0.609,6.684 -1.613,14.342 -6.132,19.607c3.001,0.146 6.002,0.291 9.003,0.438c-2.139,-11.326 0.528,-22.621 3.075,-33.65c-3.364,0.272 -6.728,0.545 -10.092,0.817c-1.548,11.897 -2.267,24.218 -7.504,35.206c3.259,-0.264 6.519,-0.527 9.777,-0.791c0.117,-12.717 2.232,-25.336 1.595,-38.066c-0.315,-6.309 -9.583,-2.391 -10.227,2.066c-2.221,15.361 -4.696,31.684 -13.098,45.068c3.021,0.146 6.041,0.293 9.062,0.439c-0.744,-3.625 -1.038,-7.826 -0.103,-11.439c-3.418,0.691 -6.836,1.381 -10.254,2.072c0.111,5.152 0.949,10.064 3.41,14.639c2.855,5.311 10.084,0.109 10.125,-4.479c0.127,-14.322 3.189,-28.283 5.453,-42.365c-3.391,0.275 -6.781,0.551 -10.172,0.824c-1.727,13.111 -4.715,26.043 -4.883,39.32c3.474,-1.113 6.948,-2.227 10.422,-3.342c0.154,-12.221 2.975,-24.225 2.397,-36.48c-0.104,-2.223 -2.047,-3.52 -4.152,-3.35c-3.082,0.25 -5.307,2.652 -6.2,5.441c-2.845,8.879 -7.356,17.268 -10.496,26.072c-2.456,6.891 -6.643,17.539 -1.473,24.162c3.346,4.285 9.618,-1.777 9.659,-5.549c0.126,-11.396 2.241,-22.689 1.6,-34.103c-0.374,-6.661 -9.46,-2.134 -10.43,2.106c-2.253,9.846 -1.739,19.771 -1.589,29.783c0.095,6.309 9.558,2.357 10.225,-2.064c2.143,-14.203 0.078,-28.57 1.51,-42.813c-3.357,0.679 -6.715,1.356 -10.072,2.034c-0.004,6.617 0.035,13.248 0.776,19.83c0.757,6.727 10.233,1.844 10.209,-3.271c-0.04,-8.59 -0.687,-17.213 0.711,-25.732c-3.383,0.684 -6.767,1.367 -10.149,2.051c0.683,9.518 0.027,19.027 -0.021,28.553c3.432,-1.1 6.865,-2.201 10.297,-3.301c0.029,-12.109 -0.035,-24.428 3.894,-36.029c-3.341,1.076 -6.681,2.152 -10.021,3.229c3.128,9.268 2.904,19.322 2.891,28.99c-0.009,6.426 9.574,2.293 10.343,-2.09c2.373,-13.54 3.98,-27.256 7.997,-40.445c-3.493,0.705 -6.986,1.41 -10.479,2.116c-0.063,10.046 -0.749,20.075 -0.762,30.122c-0.003,2.921 3.203,3.84 5.521,3.1c2.916,-0.934 4.803,-3.488 5.002,-6.473c0.748,-11.262 0.52,-25.49 7.31,-35.088c-2.993,-0.145 -5.986,-0.29 -8.979,-0.436c2.282,11.509 1.611,23.236 1.567,34.896c-0.024,6.196 9.65,2.454 10.194,-2.06c1.785,-14.82 6.201,-29.129 9.608,-43.619c0.63,-2.68 -1.369,-4.844 -4.059,-4.626c-3.007,0.243 -5.438,2.647 -6.219,5.458c-3.083,11.096 -5.94,24.105 0.627,34.467c2.231,3.521 8.378,-0.336 9.331,-3.061c1.084,-3.097 2.955,-3.992 6.263,-3.738c5.182,0.398 11.849,-8.83 4.797,-10.176c-11.576,-2.209 -23.581,-0.229 -34.913,-3.918c0.941,1.54 1.882,3.08 2.822,4.619c0.632,-2.498 1.282,-4.775 2.737,-6.949c-2.902,-1.01 -5.805,-2.02 -8.707,-3.029c-1.172,2.57 -3.065,3.863 -5.285,5.525c2.536,1.391 5.073,2.779 7.608,4.17c1.793,-4.914 4.647,-9 7.947,-13.021c-2.887,-1.005 -5.773,-2.009 -8.659,-3.013c-3.16,7.682 -7.101,14.949 -11.138,22.195c-2.961,5.316 4.232,7.578 7.648,4.191c7.685,-7.616 15.66,-14.947 22.527,-23.336c4.274,-5.223 -2.543,-9.836 -6.946,-5.51c-4.154,4.082 -8.526,8.1 -13.989,10.336c1.436,2.36 2.87,4.721 4.305,7.08c5.76,-9.303 15.958,-14.727 22.997,-22.994c3.961,-4.654 -0.966,-8.689 -5.682,-6.475c-9.204,4.32 -19.448,11.248 -30.044,8.688c-0.716,3.34 -1.432,6.68 -2.146,10.018c5.049,-1.439 10.084,-2.865 15.277,-3.688c0.281,-3.359 0.563,-6.72 0.844,-10.08c-6.7,2.734 -13.719,2.957 -20.826,3.688c-5.573,0.572 -9.891,10.355 -2.221,10.361c5.144,0.002 10.238,0.081 15.348,0.732c0.716,-3.342 1.432,-6.684 2.148,-10.025c-4.756,1.471 -9.518,2.021 -14.483,2.1c-3.097,0.049 -8.272,4.688 -6.254,8.115c1.931,3.279 4.043,5.99 6.8,8.607c2.577,2.449 2.552,5.238 2.541,8.652c-0.024,7.756 -3.898,15.549 -5.52,23.057c3.562,-0.721 7.123,-1.439 10.684,-2.159c-1.566,-12.104 -2.313,-24.278 -1.583,-36.476c-3.517,1.555 -7.033,3.11 -10.55,4.666c2.422,5.29 3.248,11.072 4.757,16.652c1.532,5.662 11.5,0.127 10.552,-4.668c-1.646,-8.33 -4.174,-16.434 -10.03,-22.813c-5.16,-5.621 -12.45,-8.395 -19.641,-10.324c-9.952,-2.672 -20.092,-4.021 -29.944,-7.199c-11.903,-3.84 -23.343,-9.037 -35.131,-13.207c-4.793,-1.697 -12.545,5.992 -6.859,9.053c3.238,1.742 6.272,3.816 9.51,5.559c1.919,-3.152 3.837,-6.305 5.756,-9.457c-5.974,-0.793 -12.246,-1.861 -16.204,-6.828c-1.366,2.848 -2.731,5.697 -4.098,8.545c9.198,-3.985 20.231,-7.059 25.848,-16.096c2.771,-4.459 -0.415,-9.033 -5.485,-6.25c-8.081,4.436 -16.404,9.918 -25.889,10.24c-0.715,3.336 -1.43,6.67 -2.145,10.006c6.082,-0.77 12.155,-1.607 18.236,-2.376c-0.592,-2.751 -1.184,-5.503 -1.776,-8.253c-4.725,3.762 -11.688,4.262 -17.47,4.537c-8.902,0.424 -17.874,-0.943 -26.566,-2.738c-14.857,-3.066 -32.521,-7.879 -44.52,-17.701c-1.604,-1.313 -3.304,-1.207 -5.111,-0.273c-2.836,1.466 -5.603,3.107 -7.495,5.741c-1.547,2.153 -1.397,6.735 2.399,6.022c4.624,-0.871 9.322,-2.258 14.065,-1.773c-0.756,-1.236 -1.512,-2.473 -2.268,-3.709c-0.254,1.057 -0.509,2.113 -0.763,3.17c2.013,-1.453 4.025,-2.904 6.039,-4.355c-2.385,-0.484 -4.8,-0.748 -7.174,-1.287c-1.644,-0.373 -2.426,-1.059 -4.177,-1.043c-0.216,2.576 -0.432,5.152 -0.646,7.727c1.801,-0.648 3.367,-1.258 5.301,-1.434c4.289,-0.385 7.361,-8.23 1.686,-7.814Z" style="fill:#010101;fill-rule:nonzero;"/><path d="M431.671,143.616c-0.387,2.496 -0.759,5.086 -0.249,7.568c0.891,4.338 6.24,3.528 8.326,0.404c9.025,-13.514 -7.535,-21.643 -18.706,-24.271c-4.518,-1.063 -10.604,6.295 -5.725,9.408c17.374,11.082 19.681,35.898 20.546,54.621c0.374,8.109 -9.144,36.549 7.783,32.357c4.136,-1.025 7.901,-4.102 11.248,-6.559c3.479,-2.555 7.066,-5.086 9.541,-8.697c5.06,-7.387 2.085,-17.174 0.733,-25.248c-2.225,-13.279 -5.456,-26.412 -5.479,-39.947c-0.011,-6.645 2.188,-11.217 5.516,-16.729c2.846,-4.713 4.197,-9.485 3.939,-15.011c-1.652,2.137 -3.305,4.275 -4.957,6.412c15.946,-3.949 19.525,-25.543 20.724,-39.253c-3.449,0.696 -6.899,1.394 -10.349,2.091c-0.003,6.609 -0.006,13.217 -0.007,19.826c-0.001,6.676 10.458,2.053 10.469,-3.357c0.008,-4.229 0.263,-8.145 1.481,-12.217c-3.455,0.697 -6.911,1.396 -10.367,2.094c0.734,9.628 -4.515,12.399 -12.097,16.516c-7.407,4.021 -13.467,10.128 -12.493,19.17c0.168,1.559 1.18,3.141 2.896,3.301c24.065,2.256 34.343,-31.334 34.564,-50.279c-3.503,1.123 -7.007,2.246 -10.51,3.369c-0.003,4.494 -0.006,8.989 -0.008,13.484c3.508,-1.125 7.018,-2.25 10.525,-3.375c-1.591,-10.176 -1.438,-21.301 -6.568,-30.523c-2.734,-4.916 -9.128,-0.799 -10.213,3.291c-0.928,3.5 -0.897,7.192 -0.906,10.791c-0.006,2.936 3.222,3.858 5.549,3.115c2.954,-0.945 4.795,-3.502 5.027,-6.506c0.165,-2.145 1.11,-4.148 1.831,-6.143c-3.06,1.002 -6.118,2.006 -9.178,3.01c1.585,1.586 3.17,3.174 4.753,4.762c3.723,3.736 9.748,-1.342 9.741,-5.598c-0.005,-3.514 -0.396,-6.676 -1.803,-9.92c-2.395,-5.525 -10.873,-0.098 -10.41,4.604c0.567,5.761 1.017,12.309 -3.087,16.933c-4.234,4.771 2.178,8.398 6.323,5.016c7.742,-6.32 8.397,-16.066 7.42,-25.364c-3.47,1.534 -6.94,3.069 -10.41,4.604c1.13,2.559 1.347,4.76 1.369,7.525c3.247,-1.866 6.494,-3.732 9.741,-5.598c-1.589,-1.584 -3.176,-3.168 -4.763,-4.754c-2.774,-2.771 -7.99,-0.287 -9.178,3.01c-1.367,3.797 -2.618,7.25 -2.927,11.303c3.525,-1.131 7.051,-2.26 10.576,-3.391c0.002,-2.787 -0.037,-5.527 0.68,-8.24c-3.404,1.098 -6.809,2.195 -10.213,3.291c4.78,8.567 4.627,18.698 6.119,28.156c1.093,6.932 10.529,1.898 10.525,-3.375c-0.002,-4.492 -0.005,-8.985 -0.008,-13.479c-0.004,-6.731 -10.448,-2.022 -10.51,3.369c-0.085,7.525 -2.203,15.365 -4.95,22.318c-2.349,5.945 -6.648,15.352 -14.407,14.627c0.965,1.102 1.931,2.201 2.896,3.301c-0.723,-6.684 6.563,-7.85 12.088,-11.319c8.779,-5.511 13.282,-13.966 12.486,-24.36c-0.523,-6.822 -9.185,-1.862 -10.367,2.094c-1.45,4.852 -1.683,9.709 -1.69,14.744c3.489,-1.119 6.979,-2.238 10.469,-3.357c-0.001,-6.606 -0.004,-13.213 -0.007,-19.82c-0.002,-6.23 -9.943,-2.584 -10.349,2.091c-0.479,5.517 -1.331,10.979 -2.735,16.339c-1.182,4.516 -3.14,11.328 -8.26,12.6c-2.669,0.664 -5.088,3.639 -4.957,6.414c0.229,4.805 -1.688,7.93 -4.126,11.869c-2.998,4.846 -4.646,9.587 -5.184,15.275c-1.14,12.033 1.438,23.959 3.632,35.716c1.053,5.636 2.018,11.281 2.941,16.938c0.449,2.748 1.586,6.785 0.527,9.514c-0.938,2.418 -4.213,4.188 -6.183,5.639c-1.739,1.279 -3.494,2.498 -5.36,3.586c-0.973,0.568 -2.205,0.406 -1.155,0.91c0.741,0.355 0.294,0.217 0.201,-0.592c-0.122,-1.061 -0.083,-2.188 0.009,-3.25c0.313,-3.598 0.958,-7.17 1.434,-10.746c1.075,-8.074 0.597,-15.754 -0.282,-23.824c-1.976,-18.129 -6.637,-37.77 -23.021,-48.188c-1.908,3.137 -3.816,6.271 -5.725,9.408c4.314,1.01 18.887,5.201 15.492,11.754c2.933,-0.597 5.864,-1.193 8.797,-1.791c-0.524,-1.67 -1.212,-3.246 -1.536,-4.975c-0.834,-4.478 -6.966,-1.937 -7.502,1.518Z" style="fill:#010101;fill-rule:nonzero;"/><path d="M361.599,36.729c-0.485,-0.182 -0.972,-0.361 -1.458,-0.543c-0.761,2.211 -1.521,4.422 -2.28,6.633c4.723,-1.387 9.566,-2.279 14.289,-3.666c3.143,-0.924 5.898,-6.211 1.611,-7.521c-2.396,-0.73 -4.822,-0.322 -7.283,-0.223c0.48,2.234 0.962,4.469 1.443,6.701c0.811,-0.771 1.621,-1.545 2.432,-2.318c2.978,-2.836 2.255,-7.775 -2.58,-6.633c-0.187,0.044 -0.373,0.088 -0.559,0.133c1.452,0.529 2.904,1.059 4.356,1.589c-0.002,0.007 -0.004,0.013 -0.006,0.021c-0.248,-5.234 -6.868,-1.949 -8.287,0.672c-0.476,1.049 -1.087,2.006 -1.837,2.871c-2.799,3.613 0.715,8.072 4.742,5.404c2.583,-1.709 5.16,-3.424 7.461,-5.506c1.853,-1.676 3.551,-6.739 -0.451,-7.15c-6.486,-0.666 -11.765,1.805 -16.462,6.189c-2.065,1.928 -3.472,6.491 0.46,7.283c7.776,1.566 15.439,0.92 22.922,-1.674c-0.559,-2.695 -1.118,-5.391 -1.677,-8.086c-3.712,2.158 -7.506,4.129 -11.479,5.761c-2.379,0.978 -4.705,3.077 -4.556,5.896c0.142,2.674 2.804,3.477 5.028,2.822c5.855,-1.723 11.538,-3.955 17.446,-5.506c-0.571,-2.754 -1.142,-5.508 -1.714,-8.261c-6.438,3.055 -13.38,4.849 -19.831,7.908c-2.722,1.291 -5.616,8.099 -0.696,8.503c7.348,0.604 13.936,-1.313 20.659,-4.14c-0.577,-2.782 -1.154,-5.565 -1.731,-8.347c-7.295,3.604 -14.424,7.137 -21.045,11.91c-2.939,2.119 -3.165,8.551 1.69,7.85c6.806,-0.982 13.182,-3.102 19.506,-5.754c-0.591,-2.85 -1.183,-5.701 -1.774,-8.551c-6.762,3.432 -13.188,7.473 -18.678,12.742c-3.063,2.939 -2.684,10.008 3.008,7.732c3.966,-1.584 7.93,-3.17 11.896,-4.754c-0.596,-2.871 -1.191,-5.742 -1.786,-8.611c-5.513,3.624 -11.147,7.029 -16.292,11.18c-3.829,3.09 -2.396,9.148 3.012,7.742c8.216,-2.139 15.092,-7.326 22.7,-10.875c-1.027,-2.686 -2.053,-5.369 -3.08,-8.053c-7.792,4.332 -15.252,8.791 -21.285,15.455c-3.224,3.561 -0.152,7.568 4.044,6.65c5.046,-1.104 9.459,-3.783 14.272,-5.548c-0.597,-2.878 -1.193,-5.755 -1.791,-8.634c-5.299,2.656 -10.367,5.506 -14.707,9.598c-4.035,3.807 -1.084,11.023 4.312,7.189c3.024,-2.148 6.206,-3.887 9.517,-5.549c-1.438,-2.398 -2.875,-4.795 -4.313,-7.191c-7.551,6.922 -11.521,14.766 -12.481,24.967c-0.664,7.047 8.943,4.496 9.887,-0.801c0.52,-2.918 1.071,-5.42 2.801,-7.865c-2.763,-0.961 -5.526,-1.923 -8.29,-2.885c-4.082,7.891 -9.684,14.82 -15.136,21.789c-3.899,4.984 2.387,9.316 6.548,5.193c7.804,-7.73 15.987,-15.255 20.843,-25.287c0.871,-1.801 0.76,-4.268 -1.188,-5.322c-2.641,-1.43 -5.498,0.49 -7.217,2.398c-2.663,2.959 -4.509,6.4 -6.29,9.939c-2.738,5.438 3.907,6.873 7.364,4.035c8.256,-6.775 15.13,-15.005 22.994,-22.205c-2.453,-1.344 -4.906,-2.688 -7.359,-4.031c-3.539,5.953 -9.684,9.945 -14.873,14.324c2.205,1.75 4.41,3.498 6.615,5.248c6.689,-7.26 16.102,-14.499 26.049,-16.203c-0.579,-2.691 -1.158,-5.382 -1.737,-8.072c-5.586,5.107 -13.974,5.908 -20.174,10.221c-2.884,2.005 -5.917,9.895 0.503,8.951c7.058,-1.039 13.674,-3.322 20.331,-5.814c2.546,-0.953 4.995,-3.331 4.839,-6.263c-0.145,-2.726 -2.998,-3.847 -5.341,-2.999c-7.077,2.563 -14.304,4.471 -21.124,7.713c-4.756,2.262 -4.525,10.754 1.801,8.684c9.536,-3.123 19.334,-5.476 28.547,-9.516c3.606,-1.582 7.685,-7.58 2.027,-9.462c-8.707,-2.896 -18.33,-1.81 -26.639,-5.988c-1.482,3.132 -2.965,6.264 -4.446,9.396c8.734,-0.733 17.502,-0.896 26.161,-2.354c4.247,-0.715 9.703,-7.893 3.362,-9.828c-9.961,-3.041 -20.743,-1.693 -30.59,-5.195c-1.499,3.168 -2.999,6.336 -4.497,9.504c12.066,-0.785 24.162,-1.402 36,1.564c1.137,-3.322 2.272,-6.643 3.408,-9.963c-9.228,1.059 -16.991,-4.549 -25.352,-7.508c-5.132,-1.816 -12.654,7.052 -6.951,9.177c10.453,3.896 21.386,5.935 32.049,9.122c1.145,-3.345 2.289,-6.689 3.433,-10.034c-8.036,-0.194 -15.843,-3.205 -22.976,-6.681c-1.943,3.191 -3.885,6.383 -5.827,9.574c20.558,3.299 40.238,10.891 61.062,12.676c1.141,-3.334 2.281,-6.668 3.422,-10.004c-14.913,0.453 -28.523,-6.896 -43.141,-8.662c-4.235,-0.512 -11.305,6.572 -5.813,9.551c11.467,6.221 24.888,6.801 36.476,12.688c1.938,-3.184 3.876,-6.367 5.813,-9.551c-15.831,-1.462 -31.762,-0.049 -47.576,-1.588c-1.142,3.335 -2.282,6.67 -3.423,10.004c14.531,0.102 28.966,2.398 43.133,5.506c1.567,-3.324 3.134,-6.648 4.701,-9.973c-16.306,-0.818 -32.624,-1.568 -48.849,0.746c-2.479,0.354 -4.686,1.857 -5.769,4.158c-1.008,2.144 -0.558,5.543 2.346,5.85c14.299,1.512 28.718,1.747 42.83,4.734c1.136,-3.32 2.271,-6.641 3.407,-9.961c-10.733,-0.072 -21.363,-1.502 -32.053,-2.303c-1.131,3.309 -2.264,6.617 -3.395,9.926c18.531,0.031 36.397,2.047 53.952,8.24c4.835,1.705 12.538,-6.34 6.832,-9.02c-9.584,-4.502 -18.313,-10.956 -28.878,-13.035c-4.127,-0.813 -9.589,4.739 -6.577,8.619c4.583,5.906 11.724,9.84 18.194,13.309c6.922,3.713 14.175,6.844 21.486,9.701c4.557,1.781 11.056,-3.795 7.838,-8.41c-7.284,-10.447 -22.647,-9.973 -33.419,-14.219c-3.998,-1.576 -12.354,4.797 -7.858,8.432c10.436,8.432 25.805,10.443 34.107,21.398c3.206,4.23 9.702,-1.727 9.6,-5.514c-0.5,-18.493 -16.733,-30.244 -30.287,-40.191c-1.944,3.195 -3.889,6.391 -5.833,9.586c11.415,3.447 21.738,9.842 32.151,15.495c4.203,2.28 11.883,-4.632 7.937,-8.515c-7.898,-7.77 -16.882,-14.557 -27.075,-19.002c-1.54,3.254 -3.08,6.508 -4.619,9.762c8.803,-1.477 17.653,-1.527 26.457,-0.033c5.402,0.916 11.587,-8.721 4.783,-10.15c-8.635,-1.814 -16.743,2.787 -17.082,12.156c-0.275,7.609 3.235,14.711 4.806,22.008c1.31,6.086 9.467,-0.35 10.393,-3.348c1.597,-5.176 2.313,-10.528 3.179,-15.861c-3.552,0.719 -7.104,1.436 -10.654,2.152c0,6.873 0,13.745 0,20.617c3.298,-1.895 6.596,-3.789 9.894,-5.684c-4.425,-6.965 -2.243,-16.447 0.308,-23.688c0.753,-2.136 0.787,-5.818 -2.41,-6.011c-9.555,-0.576 -18.027,2.508 -27.238,4.488c-4.678,1.006 -7.048,10.543 -0.791,9.434c7.648,-1.354 15.357,-4.172 23.211,-3.697c-0.804,-2.004 -1.607,-4.008 -2.41,-6.012c-3.852,10.932 -6.275,23.043 0.308,33.404c3.01,4.738 9.894,-2.08 9.894,-5.686c0,-6.871 0,-13.744 0,-20.615c0,-6.586 -9.914,-2.416 -10.654,2.152c-0.864,5.329 -1.578,10.683 -3.165,15.857c3.464,-1.115 6.929,-2.232 10.393,-3.348c-0.958,-4.407 -2.575,-8.652 -3.649,-13.034c-0.459,-1.87 -0.922,-4.079 -0.74,-6.011c0.118,-1.271 -0.101,-0.379 -1.178,0.363c-0.027,0.02 2.34,0.414 2.807,0.512c1.594,-3.385 3.189,-6.768 4.783,-10.15c-9.604,-1.611 -19.446,-1.662 -29.051,-0.035c-3.246,0.551 -10.239,7.324 -4.619,9.762c9.523,4.131 17.868,10.232 25.261,17.475c2.646,-2.838 5.291,-5.676 7.937,-8.515c-11.198,-6.048 -22.197,-12.536 -34.458,-16.222c-4.786,-1.439 -10.395,6.247 -5.833,9.586c11.467,8.393 26.362,18.643 26.807,34.345c3.199,-1.839 6.399,-3.677 9.6,-5.515c-8.629,-11.352 -23.484,-12.82 -34.086,-21.42c-2.62,2.811 -5.239,5.621 -7.858,8.432c9.662,3.83 25.136,3.59 31.604,12.74c2.613,-2.803 5.226,-5.605 7.838,-8.41c-6.919,-2.654 -13.719,-5.604 -20.338,-8.939c-6.297,-3.173 -13.299,-6.764 -17.69,-12.455c-2.192,2.873 -4.385,5.746 -6.577,8.619c9.703,1.937 17.816,8.172 26.626,12.34c2.277,-3.008 4.555,-6.014 6.832,-9.02c-19.192,-6.828 -38.351,-9.148 -58.646,-9.205c-4.621,-0.013 -9.543,9.459 -3.395,9.926c11.527,0.877 22.979,2.365 34.557,2.455c4.624,0.037 9.596,-8.645 3.407,-9.961c-14.103,-3.004 -28.517,-3.254 -42.809,-4.781c-1.141,3.336 -2.282,6.672 -3.423,10.008c15.378,-2.178 30.843,-1.605 46.304,-0.84c2.988,0.148 5.737,-1.316 7.052,-4.109c1.116,-2.373 0.456,-5.25 -2.351,-5.863c-15.026,-3.285 -30.273,-5.498 -45.678,-5.596c-4.638,-0.029 -9.647,9.402 -3.423,10.005c15.826,1.53 31.754,0.122 47.578,1.583c4.103,0.379 11.473,-6.676 5.813,-9.551c-11.604,-5.895 -25.052,-6.49 -36.476,-12.688c-1.938,3.184 -3.875,6.368 -5.813,9.553c15.563,1.881 29.732,9.26 45.67,8.781c4.532,-0.136 9.723,-9.461 3.422,-10.004c-20.82,-1.793 -40.497,-9.392 -61.052,-12.697c-4.279,-0.689 -11.347,6.881 -5.827,9.574c8.757,4.271 17.968,7.352 27.771,7.592c4.847,0.119 9.423,-8.241 3.433,-10.035c-9.882,-2.957 -20.11,-4.734 -29.801,-8.322c-2.316,3.059 -4.635,6.117 -6.951,9.177c10.083,3.546 19.009,9.652 30.156,8.351c4.324,-0.504 9.85,-8.362 3.408,-9.963c-12.613,-3.132 -25.688,-2.467 -38.539,-1.606c-3.348,0.224 -9.853,7.612 -4.497,9.503c10.692,3.777 22.091,2.648 32.848,5.908c1.12,-3.277 2.241,-6.553 3.362,-9.829c-8.662,1.474 -17.436,1.653 -26.173,2.404c-3.542,0.304 -9.466,6.885 -4.446,9.396c9.141,4.572 19.354,3.557 28.867,6.698c0.676,-3.153 1.352,-6.308 2.027,-9.462c-9.204,4.057 -19.012,6.396 -28.547,9.516c0.601,2.895 1.201,5.789 1.801,8.684c5.927,-2.818 12.372,-4.335 18.526,-6.561c-0.167,-3.088 -0.335,-6.174 -0.502,-9.262c-5.786,2.166 -11.591,4.385 -17.731,5.287c0.168,2.984 0.335,5.969 0.503,8.951c7.132,-4.958 16.077,-5.978 22.645,-11.982c2.483,-2.27 3.597,-8.984 -1.737,-8.072c-14.137,2.418 -26.274,11.524 -35.801,21.859c-4.486,4.865 2.301,8.887 6.615,5.246c6.914,-5.83 13.736,-11.084 18.432,-18.979c3.068,-5.16 -4.074,-7.038 -7.359,-4.031c-7.865,7.197 -14.741,15.426 -22.998,22.199c2.455,1.346 4.91,2.689 7.364,4.035c1.375,-2.729 2.757,-5.223 4.812,-7.504c-2.802,-0.975 -5.604,-1.949 -8.404,-2.924c-3.971,8.201 -10.869,14.358 -17.22,20.701c2.183,1.732 4.365,3.463 6.548,5.193c6.005,-7.742 12.051,-15.472 16.583,-24.199c3.085,-5.941 -5.351,-7.027 -8.29,-2.885c-2.809,3.957 -4.273,7.992 -5.129,12.752c3.295,-0.268 6.592,-0.535 9.887,-0.801c0.706,-7.359 2.61,-12.785 8.136,-17.854c4.333,-3.975 1.413,-10.068 -4.313,-7.191c-3.31,1.664 -6.492,3.404 -9.515,5.553c1.437,2.396 2.874,4.793 4.312,7.189c3.621,-3.416 7.834,-5.633 12.252,-7.848c4.613,-2.313 4.469,-10.93 -1.791,-8.633c-4.807,1.764 -9.241,4.451 -14.272,5.553c1.348,2.217 2.696,4.434 4.044,6.65c4.565,-5.045 10.912,-8.242 16.775,-11.504c5.627,-3.132 3.593,-11.168 -3.08,-8.053c-6.746,3.15 -12.845,7.846 -20.118,9.74c1.004,2.581 2.008,5.162 3.012,7.742c4.358,-3.52 9.17,-6.361 13.841,-9.436c1.905,-1.254 3.64,-3.191 3.51,-5.639c-0.141,-2.641 -2.988,-3.896 -5.296,-2.973c-3.965,1.586 -7.929,3.173 -11.894,4.76c1.002,2.577 2.005,5.154 3.008,7.732c4.8,-4.609 10.315,-8.016 16.213,-11.047c4.531,-2.328 4.284,-11.127 -1.774,-8.551c-5.482,2.334 -11.052,4.461 -16.971,5.348c0.563,2.617 1.127,5.234 1.69,7.852c5.742,-4.184 12.271,-7.141 18.604,-10.293c4.484,-2.232 4.164,-10.841 -1.731,-8.348c-5.04,2.131 -10.234,4.236 -15.817,3.791c-0.232,2.834 -0.465,5.668 -0.696,8.502c6.433,-3.068 13.371,-4.877 19.815,-7.951c4.608,-2.199 4.345,-9.865 -1.714,-8.26c-5.914,1.565 -11.591,3.83 -17.442,5.595c0.158,2.905 0.314,5.812 0.473,8.718c4.793,-2.005 9.418,-4.287 13.894,-6.928c4.002,-2.361 4.377,-10.229 -1.677,-8.085c-6.06,2.146 -11.979,2.69 -18.311,1.499c0.154,2.428 0.307,4.855 0.46,7.283c2.17,-2.066 4.149,-3.613 7.327,-3.326c-0.15,-2.383 -0.301,-4.768 -0.451,-7.15c-1.632,1.508 -3.389,2.764 -5.227,4.01c1.58,1.801 3.161,3.604 4.742,5.404c1.214,-1.58 2.063,-3.262 2.921,-5.059c-2.763,0.225 -5.524,0.448 -8.287,0.672c0.071,0.668 0.213,1.279 0.464,1.9c0.725,1.791 2.695,2.074 4.357,1.59c0.186,-0.055 0.371,-0.109 0.557,-0.163c-0.859,-2.212 -1.72,-4.423 -2.58,-6.634c-0.775,0.813 -1.551,1.627 -2.326,2.439c-1.987,2.086 -3.085,7.135 1.443,6.701c1.814,-0.172 3.593,-0.658 5.404,-0.223c0.537,-2.506 1.074,-5.014 1.611,-7.52c-4.709,1.576 -9.55,2.686 -14.258,4.262c-2.438,0.818 -5.268,4.707 -2.28,6.634c1.577,1.017 3.047,1.04 4.886,1.043c3.915,0.013 6.567,-6.782 1.493,-6.997Z" style="fill:#010101;fill-rule:nonzero;"/><path d="M1.931,138.54c7.112,-0.516 13.97,-3.479 21.126,-4.225c-0.99,-1.127 -1.979,-2.256 -2.969,-3.383c-1.398,7.984 -1.248,16.033 -1.084,24.107c0.085,4.199 0.097,8.39 -0.023,12.588c-0.093,3.254 -0.86,6.529 1.147,9.275c1.058,1.445 3.232,0.105 4.04,-0.84c4.336,-5.078 3.222,-13.785 3.087,-20.029c-0.186,-8.586 -0.732,-17.156 0.35,-25.711c0.233,-1.846 -0.836,-3.699 -2.968,-3.381c-7.654,1.139 -16.453,2.854 -22.949,7.277c-1.518,1.035 -2.81,4.543 0.243,4.322Z" style="fill:#010101;fill-rule:nonzero;"/><path d="M227.933,165.149c-2.755,8.582 -1.585,18.766 -1.942,27.719c-0.402,10.043 -1.38,20.059 -1.9,30.096c-0.992,19.117 -1.77,38.242 -2.965,57.35c-1.187,18.957 -1.911,37.939 -2.189,56.934c-0.134,9.168 -0.162,18.338 -0.305,27.506c-0.038,2.398 0.022,4.787 0.064,7.186c0.023,1.365 -0.008,2.729 -0.077,4.092c0.1,-1.225 0.063,-1.27 -0.108,-0.139c0.699,-1.658 0.782,-1.998 0.248,-1.021c1.351,-1.77 2.701,-3.539 4.053,-5.309c0.687,-0.484 1.374,-0.967 2.061,-1.449c1.982,-0.639 3.965,-1.277 5.947,-1.914c-1.169,0.084 -2.318,0.297 -3.45,0.641c-0.992,0.438 -1.984,0.877 -2.977,1.314c2.089,-0.76 2.481,-0.938 1.178,-0.531c-4.023,1.188 -8.441,5.244 -9.021,9.59c-0.173,1.297 -0.472,2.662 -0.26,3.963c0.771,4.74 4.149,8.063 9.254,7.465c20.328,-2.387 15.859,-25.992 15.726,-40.189c-0.191,-20.396 -0.13,-40.768 0.392,-61.16c0.532,-20.826 0.916,-41.678 1.149,-62.51c0.115,-10.381 -0.29,-20.73 -0.906,-31.092c-0.308,-5.174 -0.615,-10.348 -0.953,-15.52c-0.357,-5.484 -0.135,-11.357 -2.653,-16.359c-2.677,-5.317 -9.14,-0.478 -10.366,3.337Z" style="fill:#010101;fill-rule:nonzero;"/><path d="M250.995,246.014c5.784,-1.057 10.992,-5.549 15.989,-8.49c6.158,-3.627 12.409,-7.088 18.709,-10.461c13.168,-7.053 26.678,-13.404 40.012,-20.123c13.395,-6.748 26.317,-14.408 39.513,-21.531c6.308,-3.404 12.699,-6.628 19.214,-9.617c6.878,-3.154 14.243,-6.715 21.87,-7.231c0.338,-4.032 0.676,-8.065 1.014,-12.097c-1.82,0.551 -3.44,1.271 -5.157,2.084c-1.714,0.813 -2.48,2.504 -3.9,3.625c-1.818,1.436 -3.086,6.105 0.406,6.439c1.466,0.142 2.533,1.248 4.112,0.938c1.805,-0.353 3.444,-0.692 5.176,-1.323c3.241,-1.18 6.345,-4.252 6.148,-7.955c-0.239,-4.498 -5.321,-4.829 -8.438,-3.079c-6.178,3.47 -12.838,5.86 -19.296,8.761c-7.069,3.174 -13.946,6.783 -20.77,10.449c-13.261,7.127 -26.145,14.924 -39.349,22.15c-13.103,7.174 -26.427,13.943 -39.546,21.09c-6.832,3.723 -13.61,7.541 -20.291,11.527c-5.443,3.248 -12.919,6.637 -16.548,12.006c-0.691,1.024 -0.685,3.17 1.132,2.838Z" style="fill:#010101;fill-rule:nonzero;"/><path d="M258.609,77.893c10.268,6.266 23.244,9.561 34.949,11.881c12.99,2.576 25.91,2.438 38.973,0.604c2.736,-0.385 8.229,-5.939 3.75,-7.926c-2.371,-1.053 -4.667,-0.333 -6.743,1.016c-1.508,0.979 -3.52,3.541 -1.851,5.313c1.618,1.717 3.68,2.174 5.945,1.376c-0.143,-2.618 -0.283,-5.235 -0.426,-7.854c-23.829,10.374 -50.035,-1.003 -73.524,-6.175c-0.836,-0.184 -2.009,1.193 -1.073,1.765Z" style="fill:#010101;fill-rule:nonzero;"/><path d="M364.388,108.653c10.487,0.277 21.258,1.734 31.655,3.189c10.067,1.409 21.71,3.072 30.586,8.307c-0.095,-1.385 -0.189,-2.77 -0.284,-4.154c-0.746,1.1 -1.59,1.916 -2.196,3.098c-0.403,0.785 -0.204,2.185 0.903,2.254c2.348,0.145 3.766,-0.441 5.502,-2.014c1.345,-1.219 2.518,-4.77 -0.322,-5.104c-10.942,-1.291 -21.688,-4.26 -32.654,-5.643c-11.104,-1.398 -21.821,-1.199 -32.965,-0.984c-0.585,0.012 -0.988,1.029 -0.225,1.051Z" style="fill:#010101;fill-rule:nonzero;"/><path d="M1.553,337.272c2.286,0.883 4.478,1.719 6.542,3.066c1.849,1.207 2.728,3.111 5.051,3.164c2.11,0.049 3.123,-1.791 4.736,-2.789c1.502,-0.926 3.244,-1.223 4.556,-2.469c1.316,-1.25 2.211,-4.111 -0.293,-4.643c-3.666,-0.777 -8.216,3.104 -10.339,5.664c0.99,-0.576 1.979,-1.15 2.97,-1.727c-0.254,0.006 -3.104,-1.943 -4.161,-2.32c-2.233,-0.799 -4.549,-1.314 -6.914,-1.475c-1.443,-0.096 -4.339,2.685 -2.148,3.529Z" style="fill:#010101;fill-rule:nonzero;"/><path d="M203.344,384.237c2.408,3.197 5.848,5.309 9.341,7.166c2.892,1.537 8.257,2.332 10.458,4.65c1.521,1.602 4.476,0.539 5.508,-1.143c2.589,-4.219 8.054,-4.072 12.408,-5.23c2.432,-0.646 5.492,-6.162 1.42,-6.625c-3.004,-0.34 -5.606,0.523 -7.805,2.65c-0.692,0.67 -1.656,2.258 -0.673,3.141c1.989,1.787 2.876,0.59 5.287,0.977c0.474,-2.207 0.946,-4.416 1.42,-6.623c-7.179,1.83 -13.776,2.756 -17.763,9.725c2.003,-0.656 4.007,-1.314 6.01,-1.971c-2.177,-2.072 -5.586,-2.23 -8.403,-3.086c-5.169,-1.572 -9.703,-4.143 -14.495,-6.541c-1.539,-0.77 -3.84,1.416 -2.713,2.91Z" style="fill:#010101;fill-rule:nonzero;"/><path d="M466.871,266.879c2.422,1.586 5.013,2.754 7.633,3.971c2.346,1.088 4.438,2.451 6.492,2.479c2.287,0.031 3.968,-2.539 3.533,-4.584c-0.184,-0.867 -0.873,-1.617 -1.965,-2.178c-1.174,-0.605 -2.547,-0.912 -3.792,-1.352c-3.095,-1.09 -6.164,-2.061 -9.442,-2.375c-1.86,-0.179 -4.668,2.592 -2.459,4.039Z" style="fill:#010101;fill-rule:nonzero;"/></g></svg>