<?xml version="1.0" encoding="UTF-8" standalone="no"?><!DOCTYPE svg PUBLIC "-//W3C//DTD SVG 1.1//EN" "http://www.w3.org/Graphics/SVG/1.1/DTD/svg11.dtd"><svg width="100%" height="100%" viewBox="0 0 331 439" version="1.1" xmlns="http://www.w3.org/2000/svg" xmlns:xlink="http://www.w3.org/1999/xlink" xml:space="preserve" style="fill-rule:evenodd;clip-rule:evenodd;stroke-linejoin:round;stroke-miterlimit:1.41421;"><g id="belly"><path d="M30.557,45.051c-12.035,20.484 -19.84,44.31 -25.443,67.295c-5.764,23.646 -6.966,48.834 -1.057,72.55c5.906,23.703 21.086,43.481 41.662,56.347c20.64,12.906 45.376,19.061 69.26,22.299c28.734,3.896 57.553,1.644 85.519,-5.865c14.005,-3.76 27.521,-8.959 40.688,-14.996c13.156,-6.031 26.829,-12.635 37.875,-22.109c3.528,-3.026 2.58,-9.828 -3.063,-7.877c-13.481,4.662 -25.931,12.148 -39.097,17.647c-13.161,5.497 -26.658,10.204 -40.486,13.716c-27.18,6.903 -55.067,7.659 -82.692,3.224c-23.858,-3.831 -47.99,-10.921 -67.554,-25.578c-19.055,-14.276 -29.407,-37.749 -32.32,-60.847c-2.496,-19.795 -0.077,-40.111 4.007,-59.527c4.032,-19.169 11.119,-37.281 16.248,-56.111c0.689,-2.537 -2.779,-1.473 -3.547,-0.168Z" style="fill:#010101;fill-rule:nonzero;"/><path d="M279.93,10.475c-0.386,4.29 -1.318,8.436 -1.662,12.744c-0.418,5.249 -0.374,10.554 -0.508,15.817c-0.258,10.197 -0.193,20.705 -1.917,30.769c-0.313,1.832 0.159,3.354 1.748,4.393c16.126,10.541 24.06,31.499 29.616,49.031c6.15,19.404 9.695,39.783 11.146,60.071c1.104,15.423 -1.186,30.802 -2.74,46.109c-1.574,15.506 -1.323,30.894 -1.087,46.45c0.206,13.505 -0.869,26.552 -2.976,39.872c-1.254,7.925 -2.136,17.124 -5.531,24.415c1.311,-1.088 2.622,-2.177 3.934,-3.266c-6.834,1.465 -7.986,12.811 0.594,10.973c7.992,-1.713 9.384,-14.267 10.637,-20.621c1.993,-10.109 3.633,-20.553 4.41,-30.823c1.177,-15.552 0.237,-31.114 0.253,-46.686c0.017,-15.823 2.435,-31.469 3.721,-47.209c1.823,-22.3 -1.392,-44.596 -6.269,-66.333c-4.539,-20.232 -11.2,-41.397 -23.822,-58.158c-4,-5.312 -8.924,-9.962 -14.567,-13.486c0.62,1.021 1.24,2.041 1.86,3.061c-1.771,-9.425 -1.685,-19.289 -1.979,-28.865c-0.14,-4.521 -0.233,-9.042 -0.351,-13.563c-0.134,-5.212 -1.352,-10.098 -1.841,-15.234c-0.153,-1.611 -2.56,-0.674 -2.669,0.539Z" style="fill:#010101;fill-rule:nonzero;"/><path d="M152.594,258.473c-7.525,12.021 -7.398,28.088 -6.637,41.777c0.838,15.053 3.543,30.088 5.172,45.079c0.203,1.865 1.373,3.604 3.381,3.853c22.747,2.822 45.318,7.062 68.204,8.695c11.038,0.789 21.335,-0.599 32.234,-2.312c12.396,-1.948 24.767,-4.193 37.013,-6.938c3.869,-0.867 7.8,-1.74 11.529,-3.111c1.682,-0.618 3.545,-1.612 4.803,-2.923c1.233,-1.286 2.323,-2.592 2.709,-4.389c0.213,-0.924 0.162,-1.832 -0.152,-2.726c0.565,2.527 0.188,0.3 -0.058,-0.271c-2.737,-6.357 -13.517,0.666 -11.084,6.318c-0.075,-0.366 -0.151,-0.732 -0.227,-1.099c0.877,-1.828 1.754,-3.656 2.632,-5.485c0.808,-0.757 3.424,-1.8 0.76,-0.799c-1.337,0.503 -2.711,0.898 -4.087,1.282c-4.233,1.184 -8.546,2.102 -12.846,3.006c-11.044,2.322 -22.191,4.216 -33.349,5.895c-10.344,1.555 -19.55,2.138 -30.037,1.258c-20.96,-1.76 -41.667,-5.713 -62.564,-8.031c1.127,1.284 2.254,2.568 3.381,3.853c-1.67,-13.662 -4.964,-27.132 -6.891,-40.774c-1.006,-7.125 -1.607,-14.307 -1.611,-21.504c-0.004,-6.868 1.493,-13.623 1.588,-20.467c0.03,-2.202 -3.107,-1.394 -3.863,-0.187Z" style="fill:#010101;fill-rule:nonzero;"/><path d="M17.96,213.634c-2.659,18.442 -1.632,37.782 -0.764,56.338c0.901,19.26 3.256,38.267 6.005,57.335c0.178,1.236 0.682,2.872 2.039,3.354c40.278,14.309 86.59,12.824 126.318,-2.606c2.748,-1.068 5.172,-3.181 5.815,-6.183c0.694,-3.239 -1.59,-5.713 -4.837,-5.512c-4.943,0.307 -8.912,2.068 -12.353,5.654c-1.772,1.847 -2.721,4.931 0.375,5.939c3.178,1.036 6.13,0.626 9.403,0.422c0.326,-3.898 0.652,-7.796 0.979,-11.694c-38.384,14.927 -79.828,14.716 -118.983,2.94c1.021,0.819 2.041,1.639 3.062,2.457c-4.043,-17.554 -5.77,-35.731 -7.059,-53.672c-1.334,-18.573 -0.457,-37.715 -3.353,-56.115c-0.628,-4.006 -6.211,-1.677 -6.647,1.343Z" style="fill:#010101;fill-rule:nonzero;"/><path d="M5.931,161.12c2.381,8.261 9.196,14.171 15.884,19.236c7.387,5.597 16.001,9.638 24.652,12.836c19.307,7.138 39.963,10.111 60.428,11.304c42.862,2.497 86.148,-3.3 127.408,-14.889c29.34,-8.241 57.467,-20.326 84.302,-34.697c3.347,-1.792 4.685,-7.865 -0.438,-7.815c-3.061,0.03 -5.428,0.666 -8.159,2.022c-3.814,1.895 -3.688,8.384 1.444,6.962c1.595,-0.441 3.247,-0.42 4.883,-0.438c-0.146,-2.605 -0.292,-5.211 -0.438,-7.815c-45.812,24.597 -95.409,40.857 -147.157,46.621c-40.051,4.461 -84.461,4.99 -122.443,-10.239c-7.234,-2.9 -14.063,-6.489 -20.529,-10.835c-6.321,-4.246 -11.406,-9.875 -17.599,-14.216c-1.085,-0.759 -2.537,0.926 -2.238,1.963Z" style="fill:#010101;fill-rule:nonzero;"/><path d="M77.561,163.23c0.563,7.874 8.513,10.336 15.311,9.724c7.818,-0.705 16.521,-5.82 20.676,-12.518c4.065,-6.552 -3.58,-9.195 -7.822,-4.228c-2.884,3.376 -6.272,6.079 -10.76,6.972c-4.902,0.975 -8.607,-1.358 -12.932,-3.166c-1.971,-0.824 -4.629,1.03 -4.473,3.216Z" style="fill:#010101;fill-rule:nonzero;"/><path d="M30.653,0.686c-8.041,8.005 -10.442,20.826 -7.818,31.713c1.211,5.023 3.63,9.646 6.002,14.203c0.977,1.877 1.844,4.563 3.242,6.157c0.566,0.646 1.608,1.299 2.455,1.456c0.662,0.122 4.713,0.17 1.471,-0.234c0.783,0.098 1.512,-0.055 2.199,-0.447c2.799,-1.597 -3.574,1.234 -0.746,0.33c1.512,-0.483 2.973,-2.104 3.608,-3.456c2.067,-4.396 -3.39,-9.494 -5.638,-12.864c-7.364,-11.041 -8.137,-23.624 -3.199,-35.993c0.441,-1.108 -0.812,-1.626 -1.576,-0.865Z" style="fill:#010101;fill-rule:nonzero;"/><path d="M47.272,25.979c0.392,0.235 0.822,0.361 1.26,0.496c0.127,0.039 0.255,0.078 0.383,0.117c-1.172,-0.36 0.742,0.301 0.566,0.278c0.363,0.047 0.728,0.094 1.091,0.142c0.945,0.121 1.783,0.045 2.698,-0.222c1.367,-0.397 2.584,-1.518 3.185,-2.794c0.54,-1.148 0.675,-3.382 -0.875,-3.922c-0.788,-0.275 -1.419,-0.49 -2.279,-0.42c-0.39,0.031 -0.778,0.093 -1.166,0.14c-0.399,0.042 -0.794,0.114 -1.184,0.219c-0.077,0.03 -0.154,0.061 -0.231,0.091c-1.067,0.488 -1.219,0.547 -0.452,0.176c-0.401,0.104 -0.784,0.206 -1.163,0.373c-1.086,0.479 -2.002,1.104 -2.525,2.217c-0.519,1.1 -0.425,2.435 0.692,3.109Z" style="fill:#010101;fill-rule:nonzero;"/><path d="M193.049,28.273c1.205,0.54 2.428,0.625 3.728,0.71c1.724,0.113 3.55,0.018 5.013,-1c1.485,-1.033 3.246,-3.232 1.752,-5.03c-1.057,-1.272 -2.761,-1.269 -4.276,-1.243c-1.378,0.023 -2.882,0.179 -4.179,0.639c-1.211,0.429 -2.256,1.289 -2.809,2.465c-0.518,1.1 -0.551,2.867 0.771,3.459Z" style="fill:#010101;fill-rule:nonzero;"/><path d="M60.858,333.921c-2.62,6.227 -2.06,14.058 -2.25,20.718c-0.217,7.617 0.093,15.297 0.336,22.911c0.499,15.638 1.943,31.12 3.516,46.674c0.777,7.688 11.48,2.017 11.582,-3.713c0.068,-3.882 -0.119,-6.823 -2.749,-9.813c-1.998,-2.271 -5.195,0.201 -6.291,2.063c-2.235,3.798 -2.62,7.113 -2.542,11.462c3.86,-1.237 7.722,-2.476 11.582,-3.713c-2.635,-14.605 -3.713,-29.587 -4.646,-44.383c-0.477,-7.558 -0.833,-15.122 -1.107,-22.688c-0.223,-6.123 0.501,-15.055 -2.489,-20.525c-1.167,-2.13 -4.165,-0.84 -4.942,1.007Z" style="fill:#010101;fill-rule:nonzero;"/><path d="M120.149,331.495c-5.979,2.189 -8.208,11.941 -9.795,17.339c-2.605,8.861 -3.888,18.065 -4.786,27.237c-1.733,17.705 -1.747,35.487 -1.422,53.254c3.976,-1.759 7.951,-3.518 11.927,-5.275c-0.514,-2.442 -1.666,-3.654 -3.945,-4.479c-2.176,-0.787 -4.84,-0.009 -6.133,2.037c-1.645,2.601 -1.94,4.675 -1.849,7.717c0.233,7.753 12.594,2.51 12.209,-3.914c-0.97,-16.192 -0.895,-32.495 0.058,-48.69c0.516,-8.768 1.508,-17.503 2.92,-26.171c0.575,-3.536 1.342,-7.061 2.193,-10.541c0.583,-2.383 2.077,-5.956 0.451,-8.155c-0.391,-0.53 -1.269,-0.564 -1.828,-0.359Z" style="fill:#010101;fill-rule:nonzero;"/><path d="M265.4,354.051c-1.962,4.946 -1.894,10.525 -2.269,15.771c-0.487,6.833 -0.586,13.751 -0.667,20.599c-0.084,7.102 -0.093,14.213 0.153,21.313c0.108,3.137 0.294,6.271 0.504,9.402c0.181,2.705 1.427,6.795 0.965,9.379c3.383,-1.966 6.765,-3.931 10.147,-5.896c-1.831,-0.676 -3.281,-0.922 -5.226,-0.784c-2.148,0.152 -3.76,1.878 -4.36,3.826c-0.755,2.45 -1.595,4.685 0.312,6.908c3.529,4.117 10.549,-0.847 11.23,-5.034c0.933,-5.723 -0.961,-12.68 -1.351,-18.49c-0.468,-6.99 -0.775,-13.991 -0.991,-20.993c-0.209,-6.831 -0.404,-13.664 -0.578,-20.497c-0.132,-5.173 0.383,-11.956 -1.986,-16.7c-1.294,-2.595 -5.028,-0.958 -5.883,1.196Z" style="fill:#010101;fill-rule:nonzero;"/><path d="M269.924,265.479c-6.462,-3.59 -13.818,3.95 -16.783,8.945c-3.831,6.454 -2.357,13.684 1.533,19.644c5.66,8.667 15.462,5.06 21.254,-1.161c5.544,-5.953 9.111,-15.519 7.342,-23.591c-2.316,-10.571 -17.554,-8.255 -23.004,-2.021c-0.939,1.074 -0.967,3.347 0.801,3.584c3.448,0.463 6.685,-1.441 10.109,-1.229c2.271,0.141 3.467,1.072 4.201,2.857c1.717,4.169 -0.58,10.491 -2.873,14.153c-1.529,2.442 -2.902,3.94 -4.741,4.976c-1.103,0.62 -2.653,0.766 -4.69,-0.513c-3.238,-2.032 -5.959,-6.798 -6.245,-10.455c-0.595,-7.607 6.395,-11.439 12.473,-13.378c0.627,-0.199 1.483,-1.333 0.623,-1.811Z" style="fill:#010101;fill-rule:nonzero;"/><path d="M170.746,306.095c-3.1,4.096 -3.435,8.975 -0.771,13.388c2.997,4.967 9.25,6.084 14.481,4.885c6.726,-1.54 13.328,-7.254 10.235,-14.626c-2.401,-5.724 -9.032,-10.086 -15.138,-10.495c-3.228,-0.217 -6.387,0.762 -8.735,3.037c-2.637,2.553 -4.798,7.41 -3.19,11.01c0.66,1.478 2.664,0.415 3.147,-0.642c1.842,-4.024 1.691,-9.166 7.405,-8.74c4.407,0.328 8.83,3.093 11.476,6.552c3.025,3.959 1.6,7.404 -2.622,9.447c-4.373,2.115 -9.304,2.261 -13.121,-1.018c-3.691,-3.171 -4.114,-8.227 -2.06,-12.413c0.398,-0.812 -0.704,-0.918 -1.107,-0.385Z" style="fill:#010101;fill-rule:nonzero;"/><path d="M276.774,172.824c-6.146,5.258 -3.523,12.451 2.953,15.795c4.934,2.546 10.595,1.395 14.639,-2.186c3.866,-3.423 5.744,-9.028 4.938,-14.079c-0.795,-4.979 -5.657,-10.838 -11.137,-9.525c-1.18,0.283 -1.992,1.73 -1.335,2.783c0.906,1.454 2.552,1.965 3.963,2.857c1.432,0.906 2.484,2.373 3.19,3.879c1.437,3.063 0.796,6.599 -0.739,9.467c-1.545,2.891 -4.709,4.281 -7.869,3.959c-2.215,-0.227 -4.225,-1.399 -6.068,-2.557c-3.9,-2.446 -2.638,-6.283 -1.277,-9.704c0.366,-0.922 -0.627,-1.229 -1.258,-0.689Z" style="fill:#010101;fill-rule:nonzero;"/><path d="M188.856,246.568c-3.165,-1.781 -6.152,-2.918 -7.992,-6.313c-1.786,-3.297 -1.014,-6.829 1.127,-9.711c2.649,-3.568 6.7,-3.609 10.357,-1.633c3.411,1.843 6.121,5.236 7.233,8.932c1.117,3.71 -1.712,5.142 -4.716,6.521c-0.843,0.388 -1.342,1.905 -0.18,2.202c5.922,1.512 10.897,-3.709 10.035,-9.654c-0.81,-5.591 -5.431,-10.621 -10.474,-12.842c-6.354,-2.8 -12.702,0.215 -16.236,5.831c-2.418,3.844 -2.874,8.334 -0.751,12.408c1.975,3.787 6.515,6.547 10.802,5.938c0.635,-0.091 1.684,-1.179 0.795,-1.679Z" style="fill:#010101;fill-rule:nonzero;"/><path d="M66.043,238.672c-4.045,-6.382 -1.613,-14.828 5.359,-17.867c4.092,-1.783 8.466,-1.381 11.661,1.826c2.745,2.755 3.459,6.943 2.803,10.639c-0.998,5.626 -5.787,7.555 -9.444,11.154c-0.858,0.846 -1.002,2.351 0.517,2.397c6.983,0.214 12.508,-7.879 13.843,-13.949c1.292,-5.871 -1.033,-12.129 -5.936,-15.56c-12.89,-9.021 -31.128,10.617 -20.389,22.75c0.717,0.812 2.131,-0.529 1.586,-1.39Z" style="fill:#010101;fill-rule:nonzero;"/><path d="M119.446,282.459c-4.617,-0.206 -9.65,4.092 -10.77,8.428c-1.08,4.183 0.594,8.611 3.311,11.842c3.489,4.15 8.906,2.867 12.291,-0.682c3.491,-3.662 5.749,-8.946 5.531,-14.05c-0.238,-5.571 -4.698,-8.228 -9.93,-7.48c-3.313,0.474 -6.524,1.749 -8.804,4.216c-0.812,0.877 -0.317,2.133 0.853,2.139c2.931,0.018 5.638,-1.566 8.613,-1.631c1.612,-0.035 2.729,0.585 3.584,1.828c1.646,2.394 0.349,6.904 -1.046,9.652c-0.387,0.764 -0.657,1.178 -1.288,2.002c-0.385,0.502 -0.4,0.501 -0.546,0.649c-0.165,0.169 -1.186,1.014 -0.728,0.687c-1.1,0.784 -1.698,0.98 -2.855,0.46c-1.983,-0.893 -3.156,-3.104 -4.029,-4.977c-2.697,-5.779 1.045,-9.021 5.905,-11.421c0.774,-0.382 0.951,-1.616 -0.092,-1.662Z" style="fill:#010101;fill-rule:nonzero;"/><path d="M43.774,300.824c-3.333,2.901 -4.211,7.71 -2.866,11.773c1.729,5.225 7.225,6.937 12.194,6.828c7.143,-0.155 13.14,-4.772 11.355,-12.337c-1.446,-6.128 -7.318,-11.877 -13.154,-13.89c-6.318,-2.179 -15.176,2.583 -13.626,10.065c0.291,1.405 2.332,0.406 2.812,-0.228c2.57,-3.396 3.468,-6.876 8.394,-5.114c4.274,1.529 8.04,5.208 10.101,9.197c1.873,3.625 1.785,6.961 -2.674,7.852c-3.857,0.771 -7.982,0.345 -10.801,-2.612c-2.967,-3.112 -2.172,-7.413 -0.477,-10.846c0.451,-0.914 -0.667,-1.203 -1.258,-0.688Z" style="fill:#010101;fill-rule:nonzero;"/><path d="M23.06,245.256c5.915,0.063 12.69,1.393 15.079,7.555c2.973,7.668 -7.084,8.266 -10.9,11.404c-0.714,0.586 -1.375,2.232 -0.214,2.771c3.746,1.737 9.394,-1.938 12.159,-4.432c2.737,-2.468 4.284,-6.151 3.674,-9.819c-1.463,-8.785 -12.357,-11.341 -19.653,-9.208c-0.835,0.244 -1.343,1.717 -0.145,1.729Z" style="fill:#010101;fill-rule:nonzero;"/><path d="M249.333,347.75c-0.853,-3.295 -1.786,-8.203 0.974,-10.925c2.106,-2.077 5.69,-2.274 8.456,-2.007c2.793,0.27 5.881,1.207 7.763,3.398c2.081,2.424 -1.071,4.275 -1.092,6.733c-0.007,0.761 0.744,1.239 1.443,1.164c4.595,-0.494 6.57,-7.149 4.384,-10.688c-2.176,-3.52 -6.98,-4.855 -10.848,-5.154c-4.522,-0.352 -9.552,0.771 -12.757,4.181c-4.006,4.263 -3.153,9.785 -0.487,14.532c0.685,1.222 2.456,-0.102 2.164,-1.234Z" style="fill:#010101;fill-rule:nonzero;"/><path d="M320.446,212.459c-7.783,-0.143 -12.918,9.159 -14.429,15.659c-1.471,6.331 1.698,18.052 10.329,16.008c1.146,-0.272 2.519,-2.091 1.525,-3.181c-1.627,-1.786 -4.139,-1.992 -5.861,-3.874c-1.989,-2.173 -2.32,-5.562 -2.082,-8.358c0.554,-6.458 4.471,-11.938 10.369,-14.485c0.758,-0.327 1.443,-1.745 0.149,-1.769Z" style="fill:#010101;fill-rule:nonzero;"/><path d="M317.45,297.439c-6.348,0.708 -10.573,6.124 -11.41,12.223c-0.772,5.631 2.872,14.536 9.787,13.685c1.274,-0.156 3.517,-2.14 2.15,-3.493c-1.508,-1.494 -3.593,-1.944 -5.139,-3.496c-1.558,-1.563 -2.285,-3.718 -2.544,-5.857c-0.604,-5.007 2.279,-9.645 7.004,-11.253c0.793,-0.271 1.439,-1.953 0.152,-1.809Z" style="fill:#010101;fill-rule:nonzero;"/><path d="M174.739,341.924c2.938,-3.095 7.502,-4.088 11.57,-3.164c1.828,0.416 3.265,1.563 4.377,3.019c1.188,1.552 0.738,3.805 2.715,4.711c0.688,0.315 1.359,-0.09 1.812,-0.603c4.287,-4.85 -2.647,-10.204 -7.052,-11.056c-5.495,-1.063 -11.635,1.453 -14.58,6.174c-0.564,0.904 0.406,1.712 1.158,0.919Z" style="fill:#010101;fill-rule:nonzero;"/><path d="M127.242,202.45c-1.802,12.187 10.214,13.484 18.778,9.739c3.622,-1.585 7.473,-3.857 9.807,-7.144c1.83,-2.577 0.955,-6.016 -2.643,-4.901c-0.669,0.208 -1.622,1.172 -1.217,1.955c0.539,1.038 0.188,1.29 -0.922,2.365c-2.062,1.998 -4.75,3.434 -7.395,4.487c-2.77,1.104 -6.148,1.896 -9.055,0.865c-3.521,-1.249 -4.326,-4.842 -5.363,-8.009c-0.341,-1.04 -1.882,-0.09 -1.99,0.643Z" style="fill:#010101;fill-rule:nonzero;"/><path d="M17.062,195.247c5.718,-0.797 11.659,0.291 16.452,3.63c1.756,1.223 3.574,3.387 3.282,5.665c-0.39,3.04 -4.206,4.077 -5.09,6.951c-0.194,0.631 0.228,1.236 0.839,1.372c3.615,0.806 7.296,-4.011 8.463,-6.97c1.275,-3.235 0.197,-6.456 -2.183,-8.83c-5.303,-5.289 -15.215,-6.563 -21.854,-3.426c-0.66,0.313 -0.968,1.754 0.091,1.608Z" style="fill:#010101;fill-rule:nonzero;"/><path d="M11.409,153.666c6.143,17.872 30.102,25.593 46.362,30.349c23.805,6.961 48.931,10.099 73.688,9.943c30.384,-0.19 60.321,-6.269 89.727,-13.428c28.502,-6.938 56.589,-15.873 82.568,-29.679c4.767,-2.533 9.399,-5.306 14.029,-8.076c2.271,-1.359 2.432,-5.201 -0.913,-4.404c-2.724,0.648 -5.389,1.114 -8.04,2.025c-1.881,0.646 -3.362,4.846 -0.36,4.305c2.909,-0.524 5.804,-0.821 8.654,-1.635c-0.305,-1.468 -0.609,-2.937 -0.913,-4.404c-24.645,16.304 -53.151,26.257 -81.46,34.063c-29.818,8.223 -60.378,14.943 -91.325,16.676c-26.091,1.46 -52.339,-1.486 -77.692,-7.699c-19.359,-4.744 -40.803,-12.087 -52.234,-29.527c-0.679,-1.034 -2.425,0.523 -2.091,1.491Z" style="fill:#010101;fill-rule:nonzero;"/><path d="M215.878,351.626c-3.699,4.976 -3.255,13.56 -3.55,19.417c-0.494,9.771 -0.372,19.562 -0.245,29.341c0.111,8.556 0.245,17.112 0.529,25.664c0.042,1.28 0.078,2.556 0.079,3.837c-0.004,-3.75 -0.007,-1.335 -0.187,0.327c-0.176,1.621 -0.189,2.703 0.224,4.291c0.963,3.701 4.134,4.999 7.799,4.095c-2.033,-0.398 -4.066,-0.797 -6.1,-1.195c0.011,0.01 0.021,0.021 0.031,0.03c1.688,1.611 3.902,1.921 6.1,1.195c0.01,-0.004 0.02,-0.007 0.03,-0.011c3.464,-1.145 6.737,-4.599 6.532,-8.453c-0.199,-3.75 -4.034,-5.098 -7.21,-4.047c-0.01,0.003 -0.021,0.006 -0.03,0.01c2.033,0.398 4.066,0.797 6.1,1.195c-0.011,-0.01 -0.021,-0.02 -0.031,-0.029c-0.201,2.613 -0.402,5.228 -0.604,7.842c0.804,-0.92 2.382,-5.525 1.229,-2.281c0.586,-1.65 0.725,-3.136 0.818,-4.838c0.047,-0.844 -0.169,-1.663 -0.459,-2.453c-0.609,-1.656 -0.709,-3.178 -0.29,-0.15c-0.205,-1.481 -0.322,-2.964 -0.436,-4.455c-0.621,-8.194 -1.085,-16.401 -1.542,-24.606c-0.516,-9.233 -0.899,-18.491 -1.837,-27.693c-0.381,-3.737 -0.702,-7.488 -1.517,-11.161c-0.451,-2.034 -0.792,-5.073 -2.53,-6.474c-0.946,-0.765 -2.21,-0.329 -2.903,0.602Z" style="fill:#010101;fill-rule:nonzero;"/></g></svg>