<?xml version="1.0" encoding="UTF-8" standalone="no"?><!DOCTYPE svg PUBLIC "-//W3C//DTD SVG 1.1//EN" "http://www.w3.org/Graphics/SVG/1.1/DTD/svg11.dtd"><svg width="100%" height="100%" viewBox="0 0 407 404" version="1.1" xmlns="http://www.w3.org/2000/svg" xmlns:xlink="http://www.w3.org/1999/xlink" xml:space="preserve" style="fill-rule:evenodd;clip-rule:evenodd;stroke-linejoin:round;stroke-miterlimit:1.41421;"><g id="berry"><g id="Layer_16"><path d="M173.226,81.685c-1.88,-5.601 -5.151,-10.82 -9.006,-15.26c-5.25,-6.046 -10.956,-8.192 -18.269,-10.754c-2.527,-0.885 -6.307,2.718 -3.556,4.694c4.535,3.257 8.798,8.215 12.662,12.318c3.912,4.156 6.763,9.05 8.737,14.381c3.761,10.152 2.643,21.517 -1.509,31.344c-8.872,21.002 -31.799,34.524 -54.119,34.854c-19.493,0.288 -38.279,-10.373 -49.387,-26.081c-12.024,-17 -11.343,-38.856 -0.207,-56.051c19.353,-29.883 61.179,-40.666 91.995,-22.805c0.685,0.396 1.99,-0.822 1.309,-1.409c-18.22,-15.736 -45.208,-14.403 -66.211,-5.172c-0.252,0.111 -0.502,0.229 -0.754,0.344c-2.297,1.307 -4.637,2.542 -6.962,3.804c-0.37,0.201 -0.734,0.319 -1.094,0.403c-16.941,10.099 -30.469,26.522 -34.554,46c-8.493,40.497 32.106,73.161 69.932,69.968c25.604,-2.162 50.454,-20.885 59.863,-44.683c4.545,-11.496 5.067,-24.167 1.13,-35.895Z" style="fill:#010101;fill-rule:nonzero;"/><path d="M251.321,48.199c-9.802,-3.907 -18.8,-4.231 -28.98,-1.211c-10.754,3.191 -20.466,9.582 -28.434,17.374c-15.772,15.425 -24.789,38.906 -15.806,60.179c8.235,19.501 30.819,30.444 50.091,35.491c21.383,5.599 43.5,3.475 61.467,-9.961c22.318,-16.69 28.317,-44.642 15.914,-69.365c-5.97,-11.897 -15.384,-21.725 -26.51,-28.92c-12.397,-8.018 -25.769,-10.37 -40.264,-8.37c-1.934,0.268 -4.82,4.438 -1.633,4.775c19.599,2.07 39.235,12.346 51.675,27.593c11.417,13.994 17.24,33.907 9.6,51.016c-8.732,19.554 -30.919,27.646 -50.974,25.997c-21.144,-1.74 -44.28,-11.21 -56.897,-28.907c-11.682,-16.382 -5.272,-37.595 6.532,-51.775c12.166,-14.614 33.669,-24.524 52.819,-21.613c1.016,0.15 2.758,-1.761 1.4,-2.303Z" style="fill:#010101;fill-rule:nonzero;"/><path d="M60.187,48.061c-5.019,-6.529 -14.302,-5.255 -21.218,-2.993c-8.946,2.926 -17.362,9.673 -23.896,16.271c-10.95,11.056 -16.608,25.339 -13.14,40.751c3.167,14.067 14.238,25.409 25.223,33.949c11.904,9.254 27.713,17.959 43.282,16.845c1.956,-0.142 4.631,-3.337 2.259,-4.775c-10.542,-6.392 -22.411,-10.227 -32.831,-16.989c-10.221,-6.632 -19.754,-15.592 -25.221,-26.612c-5.258,-10.6 -4.651,-22.141 2.054,-31.922c4.494,-6.555 11.139,-12.103 17.784,-16.361c7.627,-4.888 15.181,-5.288 23.943,-5.305c1.253,-0.001 2.627,-1.732 1.761,-2.859Z" style="fill:#010101;fill-rule:nonzero;"/><path d="M325.492,43.494c20.189,-5.827 40.36,5.606 54.261,19.746c9.555,9.721 13.992,22.464 10.972,35.857c-6.458,28.64 -36.317,44.332 -57.893,60.252c-1.957,1.443 -1.059,4.249 1.431,3.675c16.896,-3.888 31.693,-15.356 43.769,-27.458c11.085,-11.108 20.715,-24.861 23.422,-40.605c2.728,-15.855 -3.966,-30.38 -15.442,-41.096c-15.963,-14.906 -40.948,-25.732 -60.97,-12.555c-1.04,0.682 -1.246,2.673 0.45,2.184Z" style="fill:#010101;fill-rule:nonzero;"/><path d="M99.641,164.412c-17.981,-4.879 -33.391,11.774 -38.449,27.139c-5.583,16.961 -1.292,37.354 9.821,51.111c13.055,16.166 37.469,22.823 57.421,20.202c22.865,-3.004 40.778,-19.011 47.878,-40.667c7.265,-22.156 -2.961,-43.452 -21.371,-56.193c-16.703,-11.56 -45.46,-18.981 -63.848,-7.233c-1.836,1.173 -2.825,4.517 0.256,4.571c4.532,0.08 9.02,-0.442 13.57,-0.435c5.32,0.007 10.59,0.327 15.843,1.203c10.186,1.7 19.845,5.75 28.321,11.619c18.158,12.574 23.923,34.221 14.258,54.054c-10.018,20.559 -33.715,26.76 -54.669,22.04c-19.989,-4.502 -35.592,-18.595 -39.304,-39.022c-1.79,-9.851 -0.753,-20.353 3.937,-29.266c5.425,-10.313 15.139,-13.145 25.639,-15.875c1.351,-0.351 2.56,-2.743 0.697,-3.248Z" style="fill:#010101;fill-rule:nonzero;"/><path d="M235.764,157.056c-42.432,-9.87 -77.378,42.985 -57.432,79.774c14.278,26.333 48.245,39.177 75.721,27.085c22.671,-9.977 40.526,-32.881 43.24,-57.721c1.295,-11.849 -1.223,-23.509 -8.183,-33.279c-8.314,-11.671 -22.279,-17.879 -35.814,-21.078c-10.82,-2.558 -21.005,-1.795 -31.922,-0.386c-1.972,0.253 -4.849,4.425 -1.646,4.813c9.63,1.163 19.493,3.207 28.964,5.339c7.39,1.661 14.468,4.427 20.854,8.519c9.583,6.141 16.061,16.104 17.489,27.404c2.857,22.571 -12.05,45.317 -30.946,55.662c-22.286,12.199 -47.459,2.609 -63.321,-15.494c-12.343,-14.085 -12.651,-33.833 -4.392,-49.964c8.724,-17.038 27.302,-26.251 45.979,-26.559c1.901,-0.031 3.973,-3.521 1.409,-4.115Z" style="fill:#010101;fill-rule:nonzero;"/><path d="M61.162,149.017c-12.467,-1.755 -24.26,3.293 -32.212,13.059c-7.471,9.172 -9.187,21.945 -7.451,33.316c1.973,12.927 8.189,24.999 16.681,34.846c4.336,5.029 9.542,9.427 15.161,12.952c5.589,3.505 13.689,7.339 20.444,6.196c1.921,-0.325 5.691,-3.389 3.415,-5.55c-3.746,-3.554 -9.682,-5.357 -14.173,-7.895c-5.164,-2.918 -9.801,-6.657 -13.956,-10.872c-7.985,-8.101 -13.648,-18.248 -16.556,-29.222c-2.368,-8.938 -2.205,-18.968 2.102,-27.276c4.99,-9.628 16.3,-13.752 25.969,-16.872c0.946,-0.305 2.255,-2.447 0.576,-2.682Z" style="fill:#010101;fill-rule:nonzero;"/><path d="M355.845,148.926c6.07,0.745 12.499,1.981 17.921,4.919c5.636,3.054 9.642,8.262 13.064,13.547c7.845,12.114 11.384,26.65 8.784,40.904c-2.389,13.104 -10.164,24.535 -20.069,33.167c-5.175,4.509 -11.123,7.928 -17.316,10.827c-5.903,2.761 -13.331,4.009 -18.438,8.131c-1.038,0.839 -1.689,2.798 -0.28,3.622c5.526,3.229 15.222,-0.821 20.531,-3.007c7.712,-3.174 14.769,-7.802 21.145,-13.146c12.292,-10.305 21.246,-24.688 24.509,-40.411c3.512,-16.924 -1.458,-33.124 -10.573,-47.365c-8.725,-13.634 -22.854,-19.479 -38.428,-15.154c-1.446,0.401 -3.297,3.666 -0.85,3.966Z" style="fill:#010101;fill-rule:nonzero;"/><path d="M111.006,262.71c-22.955,6.898 -25.552,34.171 -13.639,51.872c9.027,13.411 25.33,23.101 41.46,23.845c25.622,1.179 47.913,-23.788 50.009,-48.098c0.903,-10.474 -1.979,-21.122 -10.174,-28.159c-11.724,-10.067 -27.487,-10.21 -41.583,-5.981c-1.62,0.485 -3.872,4.318 -0.988,4.609c12.905,1.296 29.344,2.042 37.984,13.2c6.355,8.208 5.48,20.033 1.863,29.163c-4.064,10.262 -11.765,19.167 -21.944,23.203c-13.172,5.225 -26.614,0.221 -37.312,-8.007c-8.214,-6.319 -14.617,-14.252 -17.229,-24.402c-3.049,-11.852 3.066,-22.483 12.182,-29.623c0.795,-0.624 0.502,-1.96 -0.629,-1.622Z" style="fill:#010101;fill-rule:nonzero;"/><path d="M213.008,265.324c-20.272,-1.913 -32.134,17.397 -31.835,35.624c0.303,18.447 13.381,33.629 29.576,41.146c25.901,12.027 52.9,-6.828 61.978,-31.36c4.701,-12.712 5.018,-27.171 -2.845,-38.688c-3.948,-5.783 -10.215,-9.804 -16.717,-12.125c-9.799,-3.499 -19.033,-2.778 -28.944,-0.263c-1.743,0.441 -3.826,4.279 -0.995,4.646c7.8,1.012 16.45,2.272 23.89,4.93c5.714,2.041 10.572,5.474 14.116,10.405c6.29,8.757 5.437,21.147 1.743,30.724c-3.996,10.356 -11.611,19.624 -21.807,23.615c-12.97,5.075 -26.396,-0.531 -36.388,-9.162c-9.449,-8.164 -14.547,-18.789 -14.051,-31.378c0.521,-13.195 9.116,-21.569 21.512,-24.524c1.339,-0.322 2.952,-3.383 0.767,-3.59Z" style="fill:#010101;fill-rule:nonzero;"/><path d="M332.559,265.061c5.926,6.961 12.966,10.895 15.948,20.1c2.84,8.766 0.667,18.735 -2.772,26.986c-3.791,9.094 -9.823,17.146 -17.299,23.528c-7.973,6.806 -17.303,8.729 -26.5,12.953c-1.391,0.639 -3.028,3.668 -0.982,4.585c10.114,4.539 23.551,-3.86 31.269,-9.733c9.903,-7.537 17.719,-18.244 22.573,-29.644c4.432,-10.401 6.271,-22.033 3.312,-33.069c-2.772,-10.338 -12.372,-19.616 -23.575,-18.912c-1.314,0.083 -3.06,1.932 -1.974,3.206Z" style="fill:#010101;fill-rule:nonzero;"/><path d="M128.211,350.437c-6.941,11.945 -2.683,26.928 6.49,36.268c9.715,9.895 23.932,15.067 37.463,16.674c29.404,3.489 63.458,-11.265 65.818,-44.271c0.228,-3.2 -0.313,-5.546 -1.786,-8.343c-1.702,-3.229 -5.577,-0.317 -6.363,2.051c-2.194,6.604 -2.204,13.687 -5.023,20.145c-2.214,5.071 -5.922,9.524 -10.46,12.689c-10.27,7.167 -23.592,9.147 -35.847,8.133c-12.271,-1.017 -25.143,-4.951 -34.521,-13.217c-4.226,-3.723 -7.292,-8.263 -9.43,-13.443c-2.28,-5.521 -1.782,-11.22 -2.067,-17.033c-0.134,-2.737 -3.52,-0.952 -4.274,0.347Z" style="fill:#010101;fill-rule:nonzero;"/><path d="M82.194,43.599c0.518,0.229 1.035,0.459 1.56,0.68c3.105,1.304 7.431,-1.999 7.821,-4.986c-1.681,0.676 -3.399,1.282 -5.114,1.896c-1.403,0.833 -2.83,1.63 -4.267,2.41Z" style="fill:#010101;fill-rule:nonzero;"/><path d="M295.291,45.154c6.035,1.689 12.196,2.332 17.958,4.98c5.568,2.558 10.621,5.72 15.05,9.983c9.164,8.825 14.865,21.194 16.983,33.639c2.08,12.225 0.549,24.994 -5.388,35.951c-2.793,5.153 -7.034,9.74 -11.822,13.096c-6.521,4.571 -14.225,6.426 -21.021,10.335c-1.747,1.004 -3.581,4.867 -0.443,5.428c8.066,1.444 17.008,-2.883 23.688,-7.161c6.577,-4.214 12.235,-9.832 16.478,-16.387c8.129,-12.565 10.688,-27.831 8.62,-42.528c-2.019,-14.359 -8.534,-28.143 -18.995,-38.265c-10.295,-9.959 -26.57,-16.64 -40.654,-11.188c-0.799,0.311 -1.732,1.759 -0.454,2.117Z" style="fill:#010101;fill-rule:nonzero;"/><path d="M308.833,159.288c10.354,3.592 20.393,7.567 25.794,17.791c5.255,9.944 5.025,21.8 2.547,32.481c-2.769,11.919 -9.056,23.355 -17.683,32.031c-4.374,4.396 -9.366,7.888 -14.861,10.733c-6.229,3.228 -13.03,4.244 -19.435,6.889c-2.175,0.899 -4.461,4.446 -1.19,5.553c6.734,2.277 15.61,-0.645 21.823,-3.405c6.882,-3.057 13.08,-7.452 18.534,-12.628c11.042,-10.48 18.748,-24.284 22.436,-39.005c3.077,-12.286 3.074,-26.467 -3.1,-37.819c-6.616,-12.166 -19.916,-18.725 -33.537,-16.501c-1.742,0.281 -3.768,3.034 -1.328,3.88Z" style="fill:#010101;fill-rule:nonzero;"/><path d="M287.279,261.546c3.069,4.008 8.003,6.587 11.474,10.302c3.159,3.384 5.635,6.995 7.413,11.281c3.265,7.867 2.52,16.979 -0.454,24.806c-3.325,8.756 -9.463,16.09 -16.726,21.871c-8.642,6.88 -19.114,9.038 -28.848,13.676c-1.787,0.852 -2.789,3.933 -0.378,4.612c11.437,3.22 24.979,-4.745 33.802,-11.192c9.336,-6.821 16.874,-16.539 21.082,-27.301c3.838,-9.811 4.515,-20.575 0.696,-30.492c-3.876,-10.062 -14.868,-20.547 -26.131,-20.7c-1.382,-0.018 -2.87,1.912 -1.93,3.137Z" style="fill:#010101;fill-rule:nonzero;"/><path d="M68.132,88.793c-2.395,3.395 -4.997,6.048 -6.594,9.975c-1.477,3.631 -1.729,7.959 -1.211,11.804c1.111,8.235 6.383,14.883 12.854,19.78c14.807,11.205 35.591,12.241 52.002,4.255c3.001,-1.46 9.993,-6.599 7.555,-10.887c-3.056,-5.377 -9.564,-0.492 -13.304,1.016c-8.141,3.283 -17.219,2.821 -25.538,0.53c-7.72,-2.125 -15.064,-6.89 -19.821,-13.337c-4.162,-5.64 -6.687,-15.631 -3.537,-22.297c0.831,-1.753 -1.548,-2.056 -2.406,-0.839Z" style="fill:#010101;fill-rule:nonzero;"/><path d="M211.299,93.653c-6.233,6.016 -6.106,16.739 -2.731,24.1c3.92,8.55 13.133,13.938 21.628,16.976c9.659,3.455 20.155,4.656 30.347,3.501c10.188,-1.157 21.917,-4.729 27.166,-14.234c1.884,-3.412 -1.304,-7.255 -5.002,-5.7c-6.477,2.725 -12.281,6.114 -19.424,7.146c-8.42,1.215 -17.003,0.47 -25.195,-1.714c-6.937,-1.848 -13.833,-5.166 -18.787,-10.462c-2.354,-2.517 -3.99,-5.201 -4.926,-8.527c-0.991,-3.529 0.023,-7.181 -0.685,-10.62c-0.248,-1.19 -1.59,-1.238 -2.391,-0.466Z" style="fill:#010101;fill-rule:nonzero;"/><path d="M91.013,200.457c-11.583,13.257 -7.114,30.131 6.643,39.635c12.686,8.761 38.058,10.67 46.987,-4.404c1.74,-2.938 -0.378,-6.57 -3.804,-6.223c-5.683,0.575 -10.523,3.758 -16.375,4.116c-5.978,0.367 -12.02,-1.496 -17.296,-4.165c-10.954,-5.543 -17.05,-16.453 -14.141,-28.581c0.34,-1.415 -1.456,-1.019 -2.014,-0.378Z" style="fill:#010101;fill-rule:nonzero;"/><path d="M203.183,209.804c-4.046,12.885 -0.84,25.806 11.37,32.755c12.179,6.933 28.876,4.705 40.047,-2.959c2.271,-1.558 4.378,-3.797 4.219,-6.778c-0.166,-3.129 -3.605,-4.743 -6.366,-3.572c-9.013,3.815 -18.932,6.344 -28.479,2.729c-9.733,-3.684 -15.54,-12.911 -16.77,-22.987c-0.323,-2.637 -3.534,-0.745 -4.021,0.812Z" style="fill:#010101;fill-rule:nonzero;"/><path d="M39.452,197.09c-2.949,7.101 -2.949,15.225 2.492,21.177c4.927,5.39 16.042,8.188 21.051,1.43c0.598,-0.806 1.161,-2.135 0.673,-3.137c-2.03,-4.155 -9.4,-3.13 -12.943,-5.997c-4.301,-3.481 -6.09,-9.095 -7.366,-14.268c-0.495,-2.01 -3.44,-0.328 -3.907,0.795Z" style="fill:#010101;fill-rule:nonzero;"/><path d="M111.023,291.701c-0.672,2.947 -1.839,5.088 -1.567,8.3c0.252,2.979 1.21,5.569 2.82,8.069c3.056,4.75 8.714,7.449 14.12,8.508c11.785,2.308 30.713,-3.355 34.642,-15.863c1.146,-3.649 -2.773,-5.617 -5.763,-4.652c-4.026,1.303 -6.979,4.408 -10.841,6.04c-3.779,1.598 -8.029,2.283 -12.115,1.907c-4.268,-0.393 -7.398,-1.951 -10.856,-4.362c-2.37,-1.653 -6.063,-6.385 -6.933,-9.075c-0.615,-1.911 -3.233,-0.073 -3.507,1.128Z" style="fill:#010101;fill-rule:nonzero;"/><path d="M62.251,289.957c-0.895,7.703 0.374,14.834 7.042,19.687c6.112,4.448 16.344,6.712 22.526,1.25c1.021,-0.9 2.093,-2.942 0.892,-4.159c-3.437,-3.478 -10.573,-2.513 -15.051,-4.146c-5.779,-2.109 -10.695,-7.174 -11.87,-13.348c-0.397,-2.08 -3.347,-0.947 -3.539,0.716Z" style="fill:#010101;fill-rule:nonzero;"/><path d="M70.375,248.216c-4.05,-2.046 -9.178,1.231 -12.423,3.576c-5.361,3.872 -9.06,9.514 -11.891,15.397c-5.652,11.75 -3.962,26.166 0.836,37.899c4.879,11.931 14.268,21.797 26.585,25.737c5.917,1.892 12.788,4.351 19.013,4.313c2.456,-0.016 4.943,-0.673 7.331,-1.176c0.859,-0.18 1.69,-0.356 2.559,-0.482c1.172,-0.17 -1.901,-4.411 -2.074,-0.628c-0.125,2.732 3.285,2.671 4.93,1.8c2.914,-1.543 6.09,-5.164 4.643,-8.708c-1.65,-4.037 -7.542,-2.032 -10.566,-1.393c-5.542,1.174 -9.807,-0.52 -15.187,-1.844c-6.663,-1.642 -11.967,-3.457 -17.138,-8.109c-9.433,-8.489 -14.497,-20.844 -15.014,-33.369c-0.277,-6.717 1.562,-12.452 4.81,-18.266c1.623,-2.901 3.735,-5.461 6.263,-7.611c2.183,-1.858 4.944,-2.688 7.125,-4.549c0.675,-0.576 1.268,-2.046 0.198,-2.587Z" style="fill:#010101;fill-rule:nonzero;"/><path d="M207.962,296.842c-1.715,5.479 -2.863,10.283 -0.068,15.676c2.266,4.37 6.436,7.461 11.027,9.026c10.021,3.414 24.461,1.164 30.536,-8.313c2.251,-3.516 -0.408,-7.574 -4.47,-5.093c-6.783,4.143 -12.842,6.795 -20.972,4.957c-7.479,-1.69 -14.095,-8.71 -14.646,-16.536c-0.066,-0.934 -1.243,-0.243 -1.407,0.283Z" style="fill:#010101;fill-rule:nonzero;"/><path d="M215.838,388.758c5.125,7.038 13.896,8.014 21.678,4.87c8.188,-3.31 14.117,-10.159 18.514,-17.588c3.564,-6.021 6.157,-13.504 5.753,-20.578c-0.142,-2.48 -0.946,-5.543 -2.906,-7.23c-1.662,-1.428 -3.444,-1.955 -5.616,-1.374c-0.897,0.242 -2.979,0.631 -0.342,0.239c-1.058,0.158 -1.969,0.444 -2.883,1.008c-1.472,0.905 -3.401,3.462 -1.789,5.14c0.499,0.521 1.073,0.844 1.664,1.236c-0.456,-0.751 -0.912,-1.502 -1.37,-2.253c0.455,3.968 3.24,3.927 3.296,8.36c0.06,4.812 -2.062,9.713 -4.266,13.875c-2.476,4.669 -6.149,8.784 -10.831,11.278c-5.587,2.978 -12.751,1.12 -18.552,-0.064c-1.513,-0.31 -3.366,1.683 -2.35,3.081Z" style="fill:#010101;fill-rule:nonzero;"/><path d="M270.527,326.524c5.742,1.594 12.385,-2.31 16.246,-6.265c3.553,-3.642 10.001,-13.121 5.535,-18.026c-0.742,-0.816 -2.174,-0.478 -2.871,0.231c-3.542,3.603 -4.243,8.889 -7.219,12.918c-2.872,3.893 -7.457,5.321 -11.412,7.735c-1.185,0.723 -2.168,2.883 -0.279,3.407Z" style="fill:#010101;fill-rule:nonzero;"/><path d="M289.063,241.262c8.757,4.337 18.253,-0.534 24.165,-7.507c5.556,-6.553 12.36,-18.97 6.813,-27.245c-0.874,-1.302 -2.814,0.207 -3.275,1.074c-3.485,6.547 -4.283,14.029 -8.385,20.315c-3.981,6.107 -10.267,8.746 -17.341,9.184c-1.599,0.1 -4.19,3.084 -1.977,4.179Z" style="fill:#010101;fill-rule:nonzero;"/><path d="M376.394,199.61c0.725,10.943 -4.038,21.281 -12.106,28.518c-8.532,7.653 -19.391,7.832 -29.213,12.511c-1.522,0.723 -2.759,3.352 -0.953,4.449c5.198,3.16 12.882,1.212 18.194,-0.651c6.815,-2.389 13.03,-6.328 18.168,-11.382c9.659,-9.498 12.703,-21.839 8.489,-34.587c-0.476,-1.441 -2.653,0.026 -2.579,1.142Z" style="fill:#010101;fill-rule:nonzero;"/><path d="M325.058,100.522c0.913,7.932 1.175,14.534 -2.44,21.902c-3.313,6.752 -10.137,10.756 -14.704,16.516c-1.017,1.283 -0.678,3.539 1.328,3.332c17.876,-1.846 31.691,-29.492 19.702,-43.982c-1.294,-1.563 -4.075,0.585 -3.886,2.232Z" style="fill:#010101;fill-rule:nonzero;"/><path d="M369.33,103.443c-1.813,10.227 -3.622,18.897 -10.522,26.971c-1.145,1.338 -0.131,3.08 1.574,2.592c11.661,-3.337 17.446,-20.212 11.736,-30.461c-0.713,-1.281 -2.578,-0.283 -2.788,0.898Z" style="fill:#010101;fill-rule:nonzero;"/><path d="M147.431,359.688c-1.845,12.383 12.421,21.335 22.701,23.956c6.315,1.612 13.325,1.013 19.295,-1.533c4.217,-1.797 13.72,-7.695 11.216,-13.519c-0.342,-0.794 -1.086,-1.111 -1.915,-1.067c-4.194,0.221 -7.224,4.313 -10.931,5.93c-4.619,2.02 -9.675,1.661 -14.454,0.508c-4.5,-1.086 -8.674,-3.383 -12.384,-6.107c-3.798,-2.79 -6.335,-6.79 -9.873,-9.807c-1.27,-1.085 -3.421,0.064 -3.655,1.639Z" style="fill:#010101;fill-rule:nonzero;"/><path d="M97.693,331.424c-4.94,9.027 -1.819,19.106 4.561,26.526c4.225,4.913 15.243,12.89 22.131,9.089c3.404,-1.877 5.179,-5.423 1.738,-8.11c-1.129,-0.884 -3.782,-0.738 -5.161,-1.081c-1.936,-0.484 -3.744,-1.466 -5.47,-2.438c-9.735,-5.481 -12.165,-14.607 -15.394,-24.476c-0.41,-1.252 -2.04,-0.176 -2.405,0.49Z" style="fill:#010101;fill-rule:nonzero;"/><path d="M258.001,352.942c-0.926,13.624 16.21,17.314 26.651,15.322c6.044,-1.153 11.768,-3.903 16.169,-8.248c3.082,-3.043 9.928,-12.29 4.252,-15.728c-1.357,-0.823 -3.125,-0.005 -4.204,0.874c-3.175,2.582 -3.081,6.823 -5.915,9.677c-2.758,2.778 -6.746,4.32 -10.535,5.023c-9.801,1.816 -16.918,-2.262 -24.216,-8.188c-0.932,-0.757 -2.131,0.243 -2.202,1.268Z" style="fill:#010101;fill-rule:nonzero;"/></g><path d="M57.665,51.066c2.042,-2.786 3.491,-5.959 5.507,-8.767c2.27,-3.161 5.294,-5.731 8.374,-8.065c6.693,-5.072 15.136,-7.896 23.304,-9.418c8.548,-1.594 17.387,-1.53 25.836,0.571c3.684,0.917 7.118,2.555 10.258,4.672c3.188,2.148 4.829,6.153 8.687,7.112c3.106,0.772 7.268,-2.385 7.628,-5.5c1.102,-9.52 -12.946,-15.283 -20.31,-17.38c-10.464,-2.979 -21.793,-1.979 -32.266,0.345c-10.235,2.272 -20.179,7.1 -28.278,13.74c-5.312,4.354 -14.457,15.301 -10.494,22.833c0.385,0.733 1.348,0.411 1.754,-0.143Z" style="fill:#010101;fill-rule:nonzero;"/><path d="M149.71,34.693c3.817,-7.884 6.674,-14.25 14.928,-17.465c9.211,-3.588 19.271,-3.819 29.001,-2.99c10.769,0.917 21.511,3.533 31.396,7.909c7.621,3.373 16.629,8.78 20.035,15.135c4.267,7.958 18.145,-1.254 14.371,-8.191c-11.551,-21.233 -42.234,-27.427 -64.207,-28.338c-12,-0.498 -25.135,1.648 -35.536,7.877c-8.447,5.058 -18.616,16.265 -14.594,27.002c0.856,2.283 3.921,0.476 4.606,-0.939Z" style="fill:#010101;fill-rule:nonzero;"/><path d="M255.206,36.242c2.842,-2.746 4.43,-6.523 7.535,-9.176c3.173,-2.711 6.898,-4.343 10.866,-5.524c9.845,-2.931 20.74,-2.9 30.856,-1.75c9.813,1.116 19.861,3.414 28.732,7.852c3.416,1.709 5.786,3.199 8.056,5.929c1.01,1.215 0.833,0.856 1.351,2.803c-0.364,-1.37 -0.098,0.657 -0.099,1.08c-0.002,1.048 0.605,2.68 1.352,3.398c2.413,2.321 5.49,1.059 7.827,-0.634c10.15,-7.356 -1.734,-18.772 -8.418,-22.465c-10.399,-5.746 -22.854,-8.083 -34.569,-8.996c-12.662,-0.986 -26.021,-0.346 -37.829,4.719c-5.312,2.279 -10.246,5.348 -13.998,9.804c-2.382,2.829 -6.148,9.458 -3.604,13.118c0.435,0.624 1.515,0.254 1.942,-0.158Z" style="fill:#010101;fill-rule:nonzero;"/></g></svg>