<?xml version="1.0" encoding="UTF-8" standalone="no"?><!DOCTYPE svg PUBLIC "-//W3C//DTD SVG 1.1//EN" "http://www.w3.org/Graphics/SVG/1.1/DTD/svg11.dtd"><svg width="100%" height="100%" viewBox="0 0 485 488" version="1.1" xmlns="http://www.w3.org/2000/svg" xmlns:xlink="http://www.w3.org/1999/xlink" xml:space="preserve" style="fill-rule:evenodd;clip-rule:evenodd;stroke-linejoin:round;stroke-miterlimit:1.41421;"><g id="bird"><path d="M51.462,80.103c8.615,-6.674 13.696,-17.737 19.766,-26.606c6.193,-9.049 13.631,-17.269 22.673,-23.549c18.625,-12.935 43.431,-16.474 65.61,-14.778c23.185,1.772 45.589,9.523 65.418,21.537c9.356,5.668 17.759,12.465 25.676,19.983c8.42,7.997 17.515,17.335 19.577,29.2c3.19,-3.39 6.381,-6.781 9.57,-10.171c-4.415,0.633 -6.678,2.792 -10.195,5.151c-2.404,1.612 -4.666,5.258 -1.593,7.431c2.671,1.888 5.228,2.738 8.521,2.672c4.918,-0.098 9.77,-5.304 9.57,-10.171c-0.528,-12.891 -10.229,-24.113 -18.818,-32.848c-8.461,-8.604 -17.82,-16.381 -27.977,-22.902c-20.856,-13.391 -45.391,-21.619 -70.025,-23.985c-24.59,-2.362 -51.059,1.275 -72.834,13.486c-11.338,6.358 -20.901,15.33 -28.813,25.573c-3.578,4.631 -6.746,9.604 -9.605,14.705c-2.922,5.21 -6.33,10.884 -7.848,16.708c-0.718,2.757 -1.344,5.215 -1.209,8.066c0.071,1.452 1.776,1.087 2.536,0.498Z" style="fill-rule:nonzero;"/><path d="M46.096,78.628c9.436,5.208 17.737,11.982 23.22,21.386c5.52,9.468 8.236,20.465 8.837,31.339c0.737,13.371 -3.043,26.475 -6.783,39.163c-4.257,14.443 -7.945,28.575 -7.592,43.76c0.612,26.229 10.518,53.329 25.014,75.007c10.625,15.888 24.68,29.163 40.227,40.166c32.457,22.972 72.664,34.439 111.908,38.023c40.291,3.679 81.826,-0.747 119.972,-14.472c20.062,-7.219 41.144,-16.989 56.472,-32.13c7.779,-7.685 15.475,-15.833 21.617,-24.912c2.921,-4.318 5.627,-8.905 6.053,-14.188c0.125,-1.554 -0.085,-3.31 -0.881,-4.667c-0.916,-1.563 -1.254,-2.055 -2.748,-3.108c-0.575,-0.405 -3.695,-1.452 -1.617,-0.711c-3.994,-1.424 -7.998,0.132 -10.559,3.508c-1.791,2.363 -3.334,8.145 0.654,9.567c0.365,0.13 -0.448,-0.502 -0.528,-1.422c-0.212,-2.44 -0.955,2.245 -0.21,0.311c-1.313,3.407 -2.311,4.474 -4.939,7.993c-5.127,6.865 -9.918,11.914 -15.637,17.607c-1.918,1.91 -3.873,3.788 -5.904,5.578c-1.355,1.193 2.346,-1.565 -0.422,0.375c-0.872,0.612 -1.756,1.206 -2.641,1.8c-2.081,1.399 -4.207,2.73 -6.349,4.034c-7.542,4.594 -15.465,8.609 -23.605,12.026c-36.118,15.159 -76.47,20.553 -115.427,18.017c-39.375,-2.563 -78.654,-13.432 -111.78,-35.289c-37.449,-24.709 -63.659,-67.358 -64.013,-112.915c-0.121,-15.401 5.166,-30.471 8.5,-45.344c2.773,-12.367 3.789,-25.205 1.469,-37.719c-3.742,-20.188 -17.43,-44.714 -40.24,-46.179c-1.455,-0.091 -4.068,2.292 -2.068,3.396Z" style="fill-rule:nonzero;"/><path d="M219.229,352.293c-7.051,13.981 -5.039,31.221 -3.381,46.295c1.767,16.059 4.939,32.229 4.175,48.445c4.134,-1.326 8.269,-2.651 12.402,-3.977c0.026,-1.845 -0.167,-3.342 -0.86,-5.063c-2.383,-5.922 -9.643,-0.129 -10.826,3.489c-0.612,1.869 -0.744,3.589 -0.716,5.55c0.05,3.433 3.734,4.539 6.507,3.653c3.314,-1.06 5.832,-4.13 5.896,-7.629c0.285,-15.59 -3.173,-31 -5.693,-46.303c-2.47,-14.994 -3.47,-29.733 -2.345,-44.878c0.24,-3.252 -4.382,-1.125 -5.159,0.418Z" style="fill-rule:nonzero;"/><path d="M373.09,340.408c-2.526,7.643 -2.164,16.236 -2.493,24.204c-0.376,9.124 -0.202,18.307 0.009,27.434c0.213,9.156 0.635,18.317 1.535,27.433c0.412,4.181 0.934,8.35 1.512,12.511c0.326,2.347 0.701,4.686 1.11,7.02c0.271,1.55 1.534,4.547 1.414,5.947c1.932,-2.054 3.864,-4.107 5.796,-6.161c-0.043,0.017 -0.086,0.033 -0.129,0.049c2.082,0.76 4.165,1.52 6.248,2.28c-1.23,-2.178 -2.227,-3.428 -4.73,-4.109c-1.986,-0.541 -4.792,0.966 -5.815,2.642c-1.466,2.401 -2.874,5.488 -1.337,8.24c1.283,2.299 3.688,3.242 6.248,2.279c0.043,-0.016 0.086,-0.032 0.129,-0.048c2.48,-0.933 5.533,-3.249 5.796,-6.161c0.321,-3.558 -0.825,-7.19 -1.423,-10.707c-0.8,-4.699 -1.506,-9.406 -2.113,-14.134c-1.154,-8.992 -2.008,-18.036 -2.678,-27.076c-0.67,-9.014 -1.098,-18.049 -1.443,-27.08c-0.32,-8.297 0.281,-18.302 -2.895,-26.089c-1.055,-2.59 -4.215,-0.061 -4.741,1.526Z" style="fill-rule:nonzero;"/><path d="M179.688,459.746c7.18,1.056 15.395,-1.8 22.334,-3.466c7.711,-1.852 15.754,-3.641 23.737,-3.135c-0.915,-2.282 -1.829,-4.563 -2.744,-6.845c-3.044,6.717 -7.104,12.835 -10.913,19.127c-2.541,4.198 -5.695,9.356 -6.31,13.91c0.874,-1.421 1.749,-2.842 2.624,-4.263c-0.037,0.037 -0.074,0.074 -0.111,0.112c2.775,-0.225 5.551,-0.45 8.326,-0.675c-0.063,-0.061 -0.125,-0.123 -0.187,-0.184c-4.177,-4.132 -10.858,1.472 -10.861,6.241c-0.001,0.097 -0.001,0.194 -0.001,0.292c-0.001,2.383 2.457,4.275 4.772,3.849c7.132,-1.315 7.017,-7.286 10.038,-12.418c4.657,-7.909 9.884,-15.521 13.599,-23.943c1.055,-2.39 0.748,-6.663 -2.744,-6.845c-8.438,-0.441 -16.476,0.836 -24.69,2.675c-8.629,1.931 -18.126,3.766 -26.199,7.392c-2.846,1.276 -5.238,7.505 -0.67,8.176Z" style="fill-rule:nonzero;"/><path d="M350.918,457.548c-0.482,-0.015 -0.967,-0.03 -1.451,-0.045c0.693,0.559 1.386,1.117 2.078,1.676c-0.042,-0.245 -0.084,-0.491 -0.126,-0.736c-1.399,1.81 -2.798,3.619 -4.196,5.429c7.223,-2.073 13.979,-6.041 21.148,-8.438c7.438,-2.486 15.146,-3.944 22.957,-4.528c-1.107,-2.778 -2.214,-5.556 -3.32,-8.334c-4.127,6.293 -7.248,13.145 -10.482,19.92c-1.629,3.415 -3.279,6.874 -5.305,10.075c-1.632,2.578 -3.753,4.266 -5.684,6.564c-3.471,4.134 -0.352,8.913 4.686,7.707c7.281,-1.744 11.859,-11.336 14.996,-17.327c3.781,-7.22 6.552,-15.108 10.941,-21.991c2.123,-3.33 2,-8.808 -3.32,-8.334c-8.924,0.794 -17.588,2.771 -26.038,5.733c-7.954,2.788 -16.948,6.404 -23.21,12.189c-4.514,4.17 0.553,9.869 4.828,5.502c0.374,-0.188 0.748,-0.377 1.122,-0.565c2.277,-0.546 3.414,-4.402 0.376,-4.497Z" style="fill-rule:nonzero;"/><path d="M307.77,166.56c-18.338,-7.337 -39.684,-0.446 -54.355,11.729c-16.509,13.7 -23.691,35.931 -20.77,56.876c5.059,36.257 42.436,54.266 75.549,56.215c26.436,1.556 50.895,-7.453 72.138,-23.022c11.257,-8.25 17.75,-18.843 22.24,-31.787c1.615,-4.656 3.546,-9.986 2.929,-15.002c-0.807,-6.558 -7.627,-5.875 -11.702,-2.786c-1.705,1.292 -3.401,5.626 -0.522,6.76c0.702,0.276 -0.326,-0.619 -0.45,-1.429c0.117,0.764 0.206,1.548 0.391,2.317c-0.053,-0.218 -0.274,2.083 -0.405,2.775c-0.811,4.286 -2.454,8.408 -4.132,12.414c-3.97,9.479 -10.163,15.761 -18.778,21.439c-15.648,10.315 -32.842,16.397 -51.586,16.542c-31.857,0.248 -69.742,-16.365 -74.373,-51.412c-2.198,-16.635 3.139,-33.342 15.826,-44.523c12.666,-11.161 30.144,-14.31 46.531,-14c1.196,0.023 3.121,-2.445 1.469,-3.106Z" style="fill-rule:nonzero;"/><path d="M105.991,56.63c-2.336,11.533 8.566,23.71 18.982,26.816c12.605,3.758 26.27,-0.731 36.789,-7.89c2.35,-1.599 4.404,-4.14 3.465,-7.156c-0.093,-0.299 -0.186,-0.597 -0.279,-0.896c-1.107,-3.554 -5.916,-2.096 -7.881,-0.419c-1.561,1.331 -2.332,2.767 -2.795,4.736c-0.899,3.827 3.181,4.514 5.797,3.238c-0.404,0.116 -0.807,0.231 -1.211,0.347c-1.39,-1.121 -2.779,-2.242 -4.17,-3.363c0.037,0.324 0.072,0.647 0.109,0.971c1.236,-1.988 2.475,-3.977 3.711,-5.965c-8.377,5.455 -17.742,9.108 -27.817,6.885c-4.528,-0.999 -8.741,-3.389 -12.093,-6.558c-3.751,-3.546 -5.591,-8.883 -9.398,-12.186c-1.149,-0.994 -2.938,0.098 -3.209,1.44Z" style="fill-rule:nonzero;"/><path d="M55.399,61.748c-0.275,9.252 15.686,9.868 21.969,9.134c3.952,-0.461 9.674,-1.252 11.303,-5.617c1.233,-3.304 -0.506,-6.686 -4.453,-5.242c-2.139,0.783 -3.486,2.483 -3.661,4.738c0.003,-0.146 0.005,-0.293 0.008,-0.439c0.983,-1.277 1.968,-2.553 2.95,-3.83c2.332,-1.433 3.498,-1.043 0.775,-0.551c-1.086,0.196 -1.988,0.539 -3.029,0.866c-2.297,0.721 -4.687,1.126 -7.074,1.387c-5.659,0.62 -10.361,-2.474 -15.623,-3.223c-1.621,-0.23 -3.118,1.195 -3.165,2.777Z" style="fill-rule:nonzero;"/><path d="M281.095,97.044c7.958,42.574 24.269,86.184 61.876,110.993c15.177,10.012 32.387,13.754 50.263,15.041c9.163,0.659 18.19,0.387 27.171,-1.636c3.859,-0.869 7.607,-2.426 11.055,-4.348c1.804,-1.005 3.479,-2.3 5.07,-3.606c1.037,-0.85 2.024,-1.964 2.895,-2.952c1.419,-1.61 3.204,-2.515 -0.314,-0.743c-2.287,0.186 -4.574,0.371 -6.861,0.556c0.025,0.015 0.051,0.03 0.075,0.044c-0.206,-3.026 -0.413,-6.052 -0.62,-9.078c-0.021,0.027 -0.043,0.054 -0.063,0.081c2.259,-1.313 4.518,-2.625 6.777,-3.937c-0.059,0.003 -0.118,0.006 -0.178,0.009c1.076,0.202 2.152,0.404 3.229,0.606c0.67,0.609 0.617,0.444 -0.159,-0.497c-3.81,-5.434 -11.999,2.285 -11.897,6.836c0.068,3.119 0.994,5.786 4.373,6.59c3.201,0.763 6.617,-1.476 8.493,-3.858c0.021,-0.027 0.042,-0.054 0.063,-0.081c2.238,-2.841 2.586,-6.894 -0.62,-9.079c-0.023,-0.016 -0.048,-0.032 -0.071,-0.049c-2.041,-1.391 -4.92,-0.388 -6.861,0.556c-3.133,1.523 -4.484,4.776 -6.859,6.728c-2.013,1.655 -5.531,2.556 -8.229,3.239c-7.23,1.83 -15.268,1.488 -22.637,0.9c-7.133,-0.57 -14.223,-1.731 -21.232,-3.153c-8.831,-1.792 -17.272,-6.497 -24.73,-11.401c-16.237,-10.678 -28.598,-26.774 -38.113,-43.479c-5.294,-9.294 -8.814,-19.485 -12.492,-29.485c-3.642,-9.902 -7.561,-19.869 -15.538,-27.019c-1.369,-1.221 -4.211,0.372 -3.866,2.222Z" style="fill-rule:nonzero;"/><path d="M3.009,90.593c8.571,-3.681 15.5,-9.078 25.091,-10.077c4.893,-0.509 9.746,0.465 14.437,1.779c5.308,1.487 9.978,4.23 15.616,4.206c1.711,-0.007 4.102,-2.37 3.217,-4.173c-4.889,-9.973 -21.452,-11.944 -31.274,-11.125c-10.687,0.892 -23.134,7.051 -29.019,16.211c-0.967,1.506 -0.38,4.172 1.932,3.179Z" style="fill-rule:nonzero;"/><path d="M1.618,91.652c3.396,2.724 7.559,4.66 11.309,6.894c4.186,2.492 8.33,5.122 12.419,7.77c7.767,5.028 14.739,10.995 21.651,17.106c4.211,3.723 9.003,6.869 12.627,11.212c1.75,2.096 -1.051,0.17 1.096,-2.535c-0.646,0.813 -1.171,2.001 -1.115,3.053c0.148,2.785 3.246,3.123 5.338,2.484c5.811,-1.772 6.11,-8.112 2.619,-12.01c-3.777,-4.215 -8.883,-7.184 -13.1,-10.925c-7.049,-6.253 -14.627,-11.961 -22.572,-17.023c-7.488,-4.77 -17.953,-12.165 -27.266,-10.911c-1.579,0.212 -5.156,3.161 -3.006,4.885Z" style="fill-rule:nonzero;"/><path d="M39.573,117.143c-2.719,1.335 -4.113,5.276 -5.558,7.786c-2.508,4.358 -5.353,8.539 -8.019,12.802c-2.777,4.443 -5.538,8.896 -8.152,13.438c-2.316,4.025 -3.797,8.753 -6.282,12.62c-1.985,3.089 -1.55,7.013 2.804,7.036c15.809,0.083 31.022,-6.668 44.186,-14.948c4.372,-2.75 8.629,-5.671 12.822,-8.686c3.461,-2.488 8.369,-5.574 9.962,-9.733c1.464,-3.821 -0.935,-6.29 -4.806,-5.476c-0.304,0.039 -0.594,0.126 -0.869,0.262c-2.088,0.818 -4.425,3.858 -1.935,5.625c-0.028,-0.017 -0.056,-0.034 -0.083,-0.051c0.629,-1.808 1.259,-3.617 1.889,-5.425c-2.789,1.512 -5.066,4.372 -7.576,6.317c-3.598,2.788 -7.416,5.296 -11.234,7.769c-12.236,7.925 -25.48,13.847 -40.236,14.45c1.363,1.099 2.727,2.198 4.089,3.297c0.036,-3.635 3.501,-8.457 5.161,-11.586c2.474,-4.666 5.196,-9.2 7.878,-13.748c2.456,-4.165 4.777,-8.388 6.836,-12.764c0.978,-2.078 3.622,-6.854 1.573,-8.855c-0.712,-0.694 -1.634,-0.531 -2.45,-0.13Z" style="fill-rule:nonzero;"/><path d="M11.342,169.185c1.232,4.839 8.107,7.126 12.396,8.257c6.448,1.702 13.454,1.377 19.997,0.51c12.398,-1.644 26.42,-5.774 37.094,-12.463c4.317,-2.706 4.982,-11.073 -1.853,-8.93c-3.141,0.985 -6.511,3.763 -6.914,7.25c-0.118,1.024 0.217,2.164 1.419,2.323c1.542,0.204 3.123,0.313 4.676,0.216c0.273,-3.263 0.546,-6.526 0.819,-9.79c-10.479,4.513 -20.43,9.169 -31.739,11.413c-5.979,1.186 -12.173,1.705 -18.257,1.274c-5.206,-0.368 -10.345,-3.029 -15.444,-2.907c-1.375,0.034 -2.526,1.545 -2.194,2.847Z" style="fill-rule:nonzero;"/><path d="M401.588,199.885c1.627,-5.711 3.646,-11.134 4.945,-16.974c1.262,-5.675 2.516,-11.349 3.59,-17.063c2.236,-11.9 3.12,-23.886 4.874,-35.817c-2.606,2.287 -5.213,4.574 -7.819,6.861c21.994,0.399 45.239,6.335 66.646,-1.234c-2.295,-0.837 -4.59,-1.675 -6.885,-2.512c6.213,19.916 4.139,42.291 -0.107,62.378c-3.846,18.197 -10.611,39.701 -24.541,52.567c-2.434,2.249 -4.676,6.564 -2.048,9.558c2.538,2.893 7.32,1.475 9.743,-0.79c16.813,-15.712 25.216,-39.164 30.15,-61.095c5.068,-22.521 6.916,-47.771 -0.105,-70.083c-0.881,-2.799 -4.483,-3.366 -6.885,-2.512c-19.883,7.077 -42.703,0.942 -63.252,1.045c-3.777,0.019 -8.529,4.485 -7.953,8.452c1.613,11.132 -0.373,22.896 -1.846,33.992c-0.75,5.649 -1.488,11.3 -2.221,16.952c-0.757,5.852 -0.582,11.32 -0.668,17.158c-0.041,2.863 3.914,0.764 4.382,-0.883Z" style="fill-rule:nonzero;"/></g></svg>