<?xml version="1.0" encoding="UTF-8" standalone="no"?><!DOCTYPE svg PUBLIC "-//W3C//DTD SVG 1.1//EN" "http://www.w3.org/Graphics/SVG/1.1/DTD/svg11.dtd"><svg width="100%" height="100%" viewBox="0 0 555 490" version="1.1" xmlns="http://www.w3.org/2000/svg" xmlns:xlink="http://www.w3.org/1999/xlink" xml:space="preserve" style="fill-rule:evenodd;clip-rule:evenodd;stroke-linejoin:round;stroke-miterlimit:1.41421;"><g id="books"><path d="M144.148,76.803c8.207,-2.842 16.104,-6.817 24.093,-10.223c8.698,-3.708 17.462,-7.262 26.244,-10.766c17.084,-6.818 34.28,-13.349 51.365,-20.166c8.53,-3.404 17.105,-6.697 25.723,-9.874c5.961,-2.198 12.745,-4.599 16.992,-6.353c3.887,-1.605 7.802,-3.143 11.711,-4.691c0.176,-0.069 3.274,-0.125 4.021,-0.364c2.854,-0.912 5.311,-3.21 6.615,-5.905c3.498,-7.225 -5.456,-10.149 -10.192,-5.585c-0.688,0.661 -1.33,1.403 -1.969,2.121c-2.609,2.938 -2.095,7.744 1.966,8.802c0.591,0.153 1.655,0.544 -0.816,-0.335c2.047,-4.324 4.093,-8.649 6.14,-12.974c2.084,-0.093 2.021,0.154 1.232,-0.011c-2.627,-0.553 -5.501,0.73 -7.43,2.438c-0.342,0.304 -0.682,0.608 -1.022,0.912c-2.446,2.183 2.53,-0.858 0.093,0.182c-4.152,1.771 -8.303,3.546 -12.43,5.376c-14.072,6.24 -28.742,11.353 -43.002,17.207c-17.036,6.994 -34.193,13.683 -51.257,20.608c-16.525,6.707 -34.297,12.886 -49.637,22.071c-3.704,2.217 -4.108,9.493 1.56,7.53Z" style="fill-rule:nonzero;"/><path d="M140.613,78.381c5.316,2.824 12.41,3.557 18.201,5.299c6.961,2.095 13.77,4.669 20.531,7.329c13.61,5.355 26.861,11.566 40.497,16.856c14.533,5.639 28.901,11.562 43.249,17.663c7.052,2.999 14.127,5.945 21.245,8.785c3.528,1.407 7.084,2.745 10.645,4.066c3.92,1.453 8.564,2.515 11.971,4.947c7.187,5.134 18.666,-10.872 8.316,-13.665c-3.08,-0.832 -6.065,0.238 -8.779,1.713c-2.332,1.268 -5.868,6.093 -2.994,8.598c0.805,0.7 1.479,1.479 2.144,2.311c2.606,-4.235 5.213,-8.47 7.819,-12.705c-3.569,-0.093 -7.799,-2.104 -11.17,-3.202c-3.79,-1.235 -7.555,-2.546 -11.316,-3.864c-7.324,-2.569 -14.597,-5.287 -21.862,-8.018c-14.653,-5.508 -29.293,-10.976 -44.042,-16.208c-13.935,-4.944 -27.609,-10.585 -41.469,-15.726c-6.369,-2.362 -12.804,-4.548 -19.313,-6.49c-6.359,-1.898 -14.08,-4.55 -20.768,-3.824c-2.325,0.254 -6.16,4.407 -2.905,6.135Z" style="fill-rule:nonzero;"/><path d="M299.021,7.422c8.793,3.715 17.858,6.561 26.929,9.525c15.474,5.056 30.908,10.221 46.426,15.14c16.153,5.12 32.355,10.083 48.556,15.052c6.452,1.979 12.906,3.949 19.367,5.9c2.399,0.725 4.801,1.445 7.203,2.16c0.993,0.295 1.987,0.588 2.981,0.881c1.219,0.357 2.323,0.758 1.797,0.526c4.755,2.097 11.81,2.659 14.188,-3.708c-2.848,1.66 -5.695,3.319 -8.543,4.979c3.061,0.313 5.854,-0.999 7.752,-3.47c1.803,-2.346 2.557,-6.461 -0.557,-8.146c-3.133,-1.696 -7.054,0.468 -8.988,2.986c-0.003,0.003 -0.006,0.007 -0.008,0.01c2.027,-1.178 4.055,-2.354 6.082,-3.532c-0.021,0.005 -0.043,0.007 -0.065,0.004c1.341,0.478 2.682,0.955 4.022,1.433c-0.412,-0.501 -1.02,-0.831 -1.535,-1.23c2.361,1.829 -1.267,-0.929 -2.191,-1.078c-1.457,-0.237 -2.924,-0.319 -4.353,-0.71c-4.695,-1.281 -9.376,-2.619 -14.056,-3.956c-14.686,-4.195 -29.348,-8.475 -44.008,-12.756c-29.468,-8.604 -59.033,-16.914 -88.705,-24.79c-2.74,-0.729 -5.612,-1.127 -8.404,-1.612c-2.859,-0.496 -7.613,4.819 -3.89,6.392Z" style="fill-rule:nonzero;"/><path d="M316.345,135.288c-0.898,0.455 -1.8,0.905 -2.714,1.328c-1.203,0.558 -2.593,1 -3.678,1.75c-0.221,0.152 -0.377,0.593 0.033,0.591c1.128,-0.005 2.481,-0.579 3.517,-1.02c1.107,-0.472 2.188,-1.002 3.268,-1.533c0.801,-0.394 0.484,-1.578 -0.426,-1.116Z" style="fill-rule:nonzero;"/><path d="M313.94,135.995c-0.61,0.23 -1.093,0.125 -1.445,-0.316c-1.398,2.271 -2.797,4.544 -4.195,6.816c6.635,-0.963 13.103,-5.44 18.902,-8.639c6.685,-3.687 13.315,-7.467 19.981,-11.186c13.664,-7.625 27.656,-14.361 41.718,-21.193c12.896,-6.268 25.097,-13.901 37.245,-21.482c12.125,-7.568 24.275,-15.987 37.545,-21.422c-0.822,-3.965 -1.646,-7.93 -2.468,-11.895c-3.356,1.813 -7.03,4.675 -7.544,8.748c-0.244,1.931 0.426,4.207 2.727,4.464c3.382,0.376 6.045,-0.682 9.065,-2.104c8.048,-3.79 4.586,-16.151 -4.248,-11.108c-25.045,14.298 -48.848,31.006 -74.477,44.23c-13.855,7.149 -27.896,13.73 -41.501,21.392c-6.673,3.757 -13.287,7.61 -19.869,11.524c-6.488,3.859 -14.193,7.512 -19.265,13.18c-4.211,4.705 4.521,7.939 6.612,2.3c0.245,-0.661 1.245,-1.629 1.658,-2.2c0.351,-0.482 0.219,-1.103 -0.441,-1.109Z" style="fill-rule:nonzero;"/><path d="M143.13,78.733c2.507,4.373 7.157,6.684 9.353,11.438c2.158,4.67 2.202,10.129 1.482,15.125c-1.46,10.129 -6.465,21.152 -14.039,28.173c2.551,1.397 5.102,2.795 7.652,4.192c1.28,-2.213 3.945,-5.131 2.028,-7.756c-0.523,-0.716 -1.804,-1.111 -2.649,-0.944c-3.758,0.741 -5.974,2.454 -8.109,5.663c-3.584,5.387 2.369,9.94 6.882,5.458c9.462,-9.396 15.836,-22.345 17.648,-35.549c0.891,-6.483 0.48,-13.257 -2.359,-19.229c-2.656,-5.587 -8.253,-11.164 -14.868,-10.492c-1.468,0.149 -4.022,2.175 -3.021,3.921Z" style="fill-rule:nonzero;"/><path d="M303.047,140.708c4.147,4.39 8.261,7.948 10.933,13.525c2.957,6.176 4.153,13.287 4.137,20.085c-0.014,5.727 -2.032,11.495 -5.199,16.216c-3.141,4.682 -8.092,6.77 -11.701,10.865c-3.487,3.957 -0.22,8.387 4.47,7.352c6.314,-1.394 11.94,-8.74 15.42,-13.791c4.221,-6.125 6.794,-13.46 7.224,-20.888c0.818,-14.15 -5.642,-34.945 -21.656,-38.116c-2.108,-0.418 -5.541,2.728 -3.628,4.752Z" style="fill-rule:nonzero;"/><path d="M459.501,53.366c0.946,2.459 3.391,4.13 5.353,5.798c2.485,2.113 4.706,4.685 6.675,7.275c3.716,4.891 6.243,10.934 7.33,16.962c2.147,11.922 -1.359,24.521 -12.598,30.357c-6.871,3.568 -3.938,14.136 3.699,9.673c14.559,-8.511 21.699,-24.633 19.595,-41.196c-0.97,-7.637 -3.925,-15.04 -8.567,-21.178c-4.215,-5.572 -12.089,-12.418 -19.602,-10.721c-1.176,0.266 -2.351,1.819 -1.885,3.03Z" style="fill-rule:nonzero;"/><path d="M301.154,212.69c13.952,-1.939 26.424,-10.589 37.848,-18.287c12.867,-8.672 25.265,-17.143 39.009,-24.404c31.081,-16.424 61.69,-33.32 93.673,-47.942c7.136,-3.262 3.51,-14.398 -3.664,-9.582c-1.529,1.026 -2.7,2.243 -3.87,3.458c-1.532,1.592 -2.479,3.864 -0.42,5.438c0.65,0.497 1.426,0.748 2.136,1.158c0.718,-3.352 1.436,-6.703 2.154,-10.054c-30.942,13.683 -60.274,31.314 -89.855,47.648c-13.2,7.288 -25.555,14.891 -37.654,23.91c-12.342,9.198 -24.506,18.099 -38.944,23.751c-2.021,0.789 -3.968,5.4 -0.413,4.906Z" style="fill-rule:nonzero;"/><path d="M136.331,136.242c-0.208,-0.41 -0.417,-0.821 -0.626,-1.231c-1.763,-3.465 -7.448,0.34 -6.191,3.529c2.095,5.313 9.743,8.654 14.559,11.068c6.334,3.178 12.887,5.973 19.503,8.503c13.853,5.298 27.941,9.986 41.443,16.159c15.351,7.02 31.136,13.041 46.89,19.08c15.654,6 31.839,11.55 46.751,19.263c4.793,2.479 13.358,-5.088 8.974,-9.628c-2.372,-2.455 -5.163,-3.061 -8.495,-2.88c-5.067,0.275 -10.266,8.729 -3.686,10.775c1.172,0.364 2.171,1.104 3.207,1.732c2.643,-3.487 5.283,-6.974 7.926,-10.461c-15.16,-5.927 -30.111,-12.352 -45.326,-18.158c-15.778,-6.021 -31.561,-12.036 -46.992,-18.911c-13.645,-6.079 -27.68,-11.013 -41.671,-16.219c-6.727,-2.502 -13.454,-5.003 -20.046,-7.847c-5.943,-2.563 -12.718,-7.21 -19.273,-7.361c0.369,1.714 0.738,3.429 1.107,5.143c0.516,-0.471 1.032,-0.941 1.548,-1.412c0.274,-0.25 0.596,-0.755 0.398,-1.144Z" style="fill-rule:nonzero;"/><path d="M148.043,131.972c12.385,7.2 26.322,12.501 39.395,18.343c13.435,6.005 26.954,11.811 40.517,17.518c13.568,5.711 27.241,11.15 41.023,16.32c7.137,2.677 14.308,5.261 21.501,7.781c3.166,1.107 6.341,2.193 9.519,3.27c1.644,0.558 9.011,2.554 9.05,2.878c1.383,-1.214 2.767,-2.428 4.149,-3.642c-1.003,-0.224 -2.018,-0.353 -3.044,-0.385c-1.928,-0.154 -4.832,2.649 -2.548,4.187c0.749,0.567 1.552,1.043 2.409,1.429c1.783,0.928 4.488,-0.809 4.707,-2.735c0.063,-0.547 0.115,-1.083 0.102,-1.634c-0.022,-0.945 -0.715,-1.64 -1.606,-1.831c-13.854,-2.968 -27.524,-8.954 -40.792,-13.868c-13.828,-5.121 -27.558,-10.52 -41.226,-16.052c-13.66,-5.528 -27.197,-11.365 -40.688,-17.293c-13.223,-5.81 -26.311,-12.795 -39.892,-17.687c-1.8,-0.65 -4.684,2.176 -2.576,3.401Z" style="fill-rule:nonzero;"/><path d="M155.939,121.141c12.82,7.325 27.222,12.388 40.874,17.967c13.936,5.693 27.931,11.244 41.923,16.801c26.622,10.574 52.014,23.961 79.255,32.978c2.578,0.854 6.355,-4.077 3.358,-5.519c-1.931,-0.928 -3.619,-0.762 -5.687,-1.258c-1.934,-0.463 -4.35,2.566 -2.392,3.932c1.388,0.967 2.501,1.984 4.068,2.619c1.12,-1.84 2.239,-3.68 3.358,-5.518c-14.218,-3.615 -27.708,-9.754 -41.063,-15.727c-13.041,-5.832 -26.057,-11.548 -39.426,-16.592c-14.149,-5.338 -28.288,-10.7 -42.376,-16.197c-13.448,-5.248 -26.732,-11.464 -40.514,-15.756c-1.07,-0.333 -2.57,1.588 -1.378,2.27Z" style="fill-rule:nonzero;"/><path d="M159.237,108.686c26.85,10.255 53.542,20.604 79.972,31.927c27.063,11.595 54.027,23.49 81.85,33.181c0.875,-1.85 1.75,-3.698 2.625,-5.548c-1.417,-0.007 -2.86,0.161 -4.256,-0.171c-1.841,-0.439 -4.196,2.13 -2.905,3.808c1.53,1.987 3.546,2.133 5.917,2.171c2.835,0.045 5.363,-4.644 1.975,-5.773c-27.818,-9.279 -54.847,-20.678 -81.82,-32.136c-26.556,-11.28 -53.354,-23.358 -81.276,-30.878c-1.605,-0.433 -3.999,2.687 -2.082,3.419Z" style="fill-rule:nonzero;"/><path d="M153.907,91.641c15.69,7.609 32.234,13.651 48.126,20.879c16.57,7.536 33.224,14.794 49.937,22.003c13.827,5.964 27.437,13.114 41.705,17.962c4.075,1.385 8.163,2.73 12.236,4.122c1.986,0.679 3.906,1.573 5.813,2.448c0.752,0.346 1.481,0.713 2.255,1.01c0.266,0.107 0.527,0.222 0.787,0.345c1.904,1.079 2.723,-0.703 2.453,-5.347c-2.415,0.386 -6.232,5.683 -2.095,6.124c2.8,0.299 8.041,-2.774 5.211,-5.974c-2.419,-2.735 -7.504,-3.072 -10.773,-4.059c-13.764,-4.15 -26.688,-9.582 -39.872,-15.355c-19.057,-8.345 -38.306,-16.199 -57.274,-24.749c-18.251,-8.228 -37.113,-18.056 -56.835,-22.157c-1.258,-0.262 -3.226,1.995 -1.674,2.748Z" style="fill-rule:nonzero;"/><path d="M129.356,138.946c3.343,-0.017 6.981,-1.596 10.056,-2.761c3.306,-1.251 8.271,-2.113 9.391,-5.984c-0.427,0.693 -0.854,1.388 -1.281,2.081c0.27,-0.247 1.751,-2.356 0.975,-1.132c0.504,-0.796 0.966,-1.931 0.212,-2.756c-0.189,-0.206 -0.427,-0.362 -0.649,-0.53c-0.901,-0.355 -0.818,-0.261 0.251,0.285c-0.349,-0.504 -1.026,-0.648 -1.577,-0.765c-1.953,-0.411 -4.545,1.195 -6.285,1.909c-3.993,1.641 -8.524,3.245 -11.863,6.073c-1.376,1.166 -1.432,3.591 0.77,3.58Z" style="fill-rule:nonzero;"/><path d="M98.361,170.278c1.158,3.242 3.573,5.747 5.669,8.42c2.782,3.549 4.741,7.881 6.344,12.064c3.661,9.553 4.802,20.376 3.646,30.504c-0.485,4.25 -1.243,9.054 -3.566,12.719c-2.067,3.26 -4.596,6.238 -7.097,9.166c-2.861,3.352 -10.553,9.169 -9.539,14.255c0.73,3.668 3.972,3.997 6.973,2.545c-2.377,1.15 2.261,-1.39 2.785,-1.887c1.237,-1.176 2.276,-2.572 3.365,-3.882c2.579,-3.1 5.2,-6.152 7.667,-9.344c6.576,-8.506 9.387,-16.709 10.273,-27.443c0.886,-10.739 -1.269,-21.938 -5.303,-31.879c-3.146,-7.75 -9.692,-18.098 -19.114,-17.968c-1.226,0.017 -2.539,1.507 -2.103,2.73Z" style="fill-rule:nonzero;"/><path d="M98.924,164.628c10.253,12.769 26.724,18.865 41.677,24.509c16.628,6.274 33.299,11.853 49.516,19.176c20.315,9.175 40.768,18.051 61.395,26.503c20.64,8.457 41.804,15.661 61.932,25.286c2.258,-3.712 4.517,-7.423 6.775,-11.134c-3,-0.276 -5.542,-0.332 -8.502,0.279c-2.407,0.497 -4.363,3.49 -3.637,5.843c1.021,3.309 3.279,5 6.676,5.469c4.858,0.668 13.395,-8.411 6.775,-11.135c-20.151,-8.29 -40.745,-15.446 -61.002,-23.482c-20.762,-8.235 -41.353,-16.892 -61.823,-25.824c-16.413,-7.161 -33.028,-12.867 -49.973,-18.611c-15.956,-5.409 -31.726,-11.987 -46.054,-20.906c-2.047,-1.274 -5.325,2.071 -3.755,4.027Z" style="fill-rule:nonzero;"/><path d="M89.169,263.16c4.246,5.424 10.914,8.655 17.001,11.558c8.175,3.898 16.737,6.976 25.254,10.031c18.026,6.468 35.606,13.42 53.249,20.885c22.275,9.426 44.65,18.609 66.965,27.94c20.588,8.608 42.683,16.006 61.668,27.865c5.341,3.336 13.963,-6.808 7.873,-10.391c-3.578,-2.105 -6.5,-1.754 -10.498,-1.77c-2.198,-0.009 -5.247,3.048 -4.122,5.349c1.655,3.387 3.48,4.996 6.747,6.812c2.625,-3.463 5.248,-6.928 7.873,-10.391c-19.563,-10.041 -40.182,-17.879 -60.489,-26.255c-22.416,-9.245 -44.894,-18.334 -67.377,-27.411c-17.899,-7.227 -35.558,-14.32 -54.001,-20.046c-16.057,-4.985 -31.154,-10.664 -45.91,-18.718c-2.362,-1.289 -6.012,2.269 -4.233,4.542Z" style="fill-rule:nonzero;"/><path d="M314.754,256.214c16.841,8.908 21.861,27.92 20.774,45.566c-1.078,17.503 -8.373,38.154 -22.361,49.455c2.681,2.126 5.361,4.252 8.042,6.378c1.427,-1.683 2.654,-3.558 2.864,-5.796c0.223,-2.376 -1.061,-5.08 -3.975,-4.529c-3.746,0.707 -5.779,2.428 -8.192,5.298c-1.563,1.858 -2.287,5.088 -0.545,7.073c2.331,2.656 6.323,1.15 8.587,-0.695c17.424,-14.201 25.711,-38.068 27.192,-59.855c0.708,-10.409 -0.683,-21.313 -5.444,-30.688c-2.26,-4.449 -5.364,-8.796 -9.383,-11.815c-4.582,-3.442 -9.007,-4.495 -14.537,-5.356c-2.236,-0.35 -5.847,3.471 -3.022,4.964Z" style="fill-rule:nonzero;"/><path d="M320.779,259.314c4.398,-4.409 11.563,-5.126 17.142,-7.343c8.494,-3.377 16.573,-8.179 24.589,-12.539c17.514,-9.525 34.639,-19.784 51.959,-29.655c17.595,-10.027 34.934,-20.498 52.15,-31.159c8.363,-5.178 16.688,-10.419 24.996,-15.686c4.418,-2.801 8.828,-5.613 13.235,-8.432c4.092,-2.615 8.247,-6.362 12.744,-8.229c-1.466,-3.77 -2.933,-7.539 -4.398,-11.308c-2.501,1.976 -4.764,3.879 -6.646,6.481c-4.151,5.74 0.87,11.779 7.184,8.187c2.734,-1.557 5.318,-3.224 7.533,-5.472c2.439,-2.475 4.981,-6.796 2.148,-10.024c-3.448,-3.929 -9.087,-0.524 -11.719,2.435c-1.001,1.126 -3.22,2.013 -4.491,2.822c-2.189,1.394 -4.293,2.916 -6.48,4.318c-4.405,2.822 -8.816,5.635 -13.232,8.44c-8.856,5.628 -17.743,11.21 -26.662,16.741c-17.756,11.009 -35.679,21.751 -53.84,32.08c-17.318,9.849 -34.426,20.077 -51.905,29.645c-7.962,4.357 -15.942,8.787 -24.312,12.299c-6.629,2.781 -13.598,5.728 -16.224,12.983c-1.572,4.344 3.134,6.518 6.229,3.416Z" style="fill-rule:nonzero;"/><path d="M317.66,362.135c9.854,-6.047 18.613,-13.762 28.479,-19.87c10.721,-6.637 21.781,-12.711 32.861,-18.718c23.634,-12.813 45.925,-27.491 68.913,-41.384c15.276,-9.232 30.994,-17.047 46.986,-24.873c7.192,-3.52 14.365,-7.121 21.273,-11.177c4.631,-2.719 11.369,-6.387 13.477,-11.691c-3.377,1.968 -6.754,3.936 -10.131,5.904c0.587,0.08 1.173,0.16 1.759,0.239c1.691,-4.945 3.384,-9.892 5.075,-14.837c-5.553,-0.151 -9.654,2.648 -12.38,7.333c-1.242,2.135 -0.615,4.695 1.349,6.044c2.423,1.666 5.001,1.595 7.834,1.547c8.544,-0.145 13.741,-15.951 3.197,-14.924c-0.635,0.063 -1.27,0.124 -1.903,0.186c-3.973,0.387 -8.295,3.735 -8.941,7.847c0.14,-0.893 0.95,-2.134 1.637,-2.777c-0.438,0.411 -3.17,2.427 -1.839,1.501c-2.704,1.882 -5.562,3.551 -8.412,5.197c-6.83,3.947 -13.853,7.563 -20.877,11.146c-16.522,8.433 -32.706,17.257 -48.502,27.021c-11.414,7.057 -22.536,14.579 -33.985,21.574c-10.217,6.241 -20.781,11.903 -31.254,17.696c-10.575,5.851 -21.107,11.774 -31.137,18.532c-9.771,6.583 -20.928,13.852 -27.602,23.783c-2.176,3.239 0.433,6.966 4.123,4.701Z" style="fill-rule:nonzero;"/><path d="M517.27,139.475c18.306,8.574 24.04,29.454 23.966,48.314c-0.039,10.043 -2.608,19.797 -7.377,28.608c-2.232,4.126 -5.322,7.866 -8.616,11.182c-3.997,4.023 -9.527,7.146 -11.75,12.551c-0.754,1.833 -0.475,4.265 1.869,4.663c6.197,1.051 11.938,-3.9 16.262,-7.773c4.656,-4.169 8.615,-9.106 11.864,-14.432c6.716,-11.006 9.912,-23.281 10.558,-36.097c0.62,-12.313 -1.657,-24.872 -7.197,-35.9c-4.8,-9.554 -13.963,-20.905 -25.976,-18.73c-2.575,0.466 -7.936,5.584 -3.603,7.614Z" style="fill-rule:nonzero;"/><path d="M98.48,167.229c3.114,0.429 5.408,-1.791 8.097,-2.942c3.822,-1.637 7.746,-3.048 11.681,-4.383c8.184,-2.776 16.617,-4.97 24.615,-8.269c-2.153,-0.785 -4.306,-1.57 -6.458,-2.356c0.055,0.116 0.108,0.231 0.163,0.348c0.437,-2.038 0.873,-4.077 1.311,-6.115c-1.593,2.034 -3.915,5.706 -1.753,8.169c2.733,3.114 7.693,0.54 10.111,-1.54c1.862,-1.602 3.874,-4.98 2.62,-7.519c-0.057,-0.114 -0.113,-0.229 -0.169,-0.343c-1.162,-2.353 -3.967,-3.431 -6.458,-2.356c-8.752,3.774 -18.019,6.338 -26.926,9.725c-5.489,2.088 -21.556,7.32 -19.199,15.682c0.276,0.987 1.388,1.765 2.365,1.899Z" style="fill-rule:nonzero;"/><path d="M471.953,122.763c7.536,2.231 15.025,4.55 22.391,7.351c4.145,1.575 8.233,3.297 12.312,5.035c3.891,1.658 8.363,3.019 11.712,5.629c6.767,5.273 16.563,-11.051 7.438,-12.221c-3.9,-0.5 -7.627,-2.4 -11.293,-3.778c-4.607,-1.731 -9.244,-3.382 -13.908,-4.95c-8.231,-2.768 -17.422,-5.668 -26.16,-4.348c-3.172,0.479 -7.175,5.895 -2.492,7.282Z" style="fill-rule:nonzero;"/><path d="M237.855,357.906c-9.582,2.487 -14.917,16.088 -17.948,24.316c-4.356,11.826 -6.683,24.184 -7.738,36.719c-1.139,13.513 -0.705,27.126 2.484,40.348c1.309,5.425 4.08,10.295 6.965,15.012c1.857,3.037 3.64,6.495 6.078,9.137c-0.398,-1.022 -0.796,-2.044 -1.194,-3.066c-0.001,0.022 -0.002,0.043 -0.003,0.065c4.086,-2.938 8.173,-5.877 12.259,-8.815c-1.697,-0.788 -3.199,-1.034 -5.067,-0.935c-3.15,0.169 -6.994,3.184 -7.362,6.461c-0.272,2.427 -0.277,4.39 1.361,6.349c3.738,4.475 10.97,-0.187 12.782,-4.191c1.863,-4.115 -0.219,-6.773 -2.567,-9.896c-2.645,-3.515 -4.967,-7.452 -6.908,-11.395c-5.204,-10.57 -5.398,-23.755 -5.264,-35.285c0.134,-11.579 1.803,-22.979 4.434,-34.239c2.148,-9.197 5.157,-17.727 10.94,-25.235c2.207,-2.87 0.374,-6.292 -3.252,-5.35Z" style="fill-rule:nonzero;"/><path d="M245.623,478.804c-1.888,0.813 -3.776,1.626 -5.665,2.439c0.918,1.283 3.041,1.322 4.364,0.856c2.961,-1.046 6.186,-1.605 9.255,-2.259c5.1,-1.084 9.869,-2.987 14.776,-4.75c13.392,-4.811 26.873,-9.369 40.256,-14.205c25.991,-9.391 51.642,-19.898 77.479,-29.721c25.649,-9.751 50.967,-20.361 76.805,-29.615c12.646,-4.529 25.369,-8.842 38.148,-12.982c13.087,-4.24 26.316,-8.754 39.795,-11.59c5.552,-1.168 11.666,-13.33 3.072,-14.335c-5.795,-0.679 -10.713,0.537 -14.951,4.675c-1.954,1.908 -4.473,6.922 -0.664,8.597c3.542,1.558 6.701,1.916 10.575,1.46c0.403,-4.808 0.806,-9.614 1.208,-14.422c-12.436,4.695 -25.289,8.38 -37.888,12.614c-13.391,4.5 -26.697,9.249 -39.937,14.177c-25.758,9.584 -51.13,20.13 -76.784,29.982c-25.864,9.933 -51.562,20.343 -77.454,30.18c-13.359,5.076 -26.834,9.846 -40.221,14.848c-4.905,1.833 -9.683,3.904 -14.752,5.216c-3.644,0.943 -7.089,2.042 -10.46,3.739c-1.817,0.915 -3.683,3.345 -3.419,5.494c0.243,1.981 1.415,3.127 3.495,2.752c1.423,-0.255 3.153,-1.485 2.967,-3.15Z" style="fill-rule:nonzero;"/><path d="M546.305,264.639c-2.991,0.237 -4.552,0.28 -7.226,2.027c-2.935,1.919 -5.412,4.114 -7.738,6.741c-4.976,5.62 -8.726,12.375 -11.02,19.516c-4.4,13.694 -3.606,29.858 -1.066,43.828c1.775,9.76 6.537,18.076 11.619,26.5c2.043,3.388 3.133,7.45 7.487,8.512c5.969,1.454 14.441,-6.937 9.741,-12.451c-3.103,-3.64 -8.646,-0.567 -10.967,2.278c0.966,-0.844 1.933,-1.688 2.899,-2.531c2.309,-0.187 4.618,-0.374 6.927,-0.562c-0.021,-0.01 -0.044,-0.02 -0.065,-0.029c0.702,0.8 1.404,1.6 2.106,2.4c-0.352,-0.645 -1.758,-3.401 -0.65,-1.364c-0.896,-1.647 -2.297,-2.711 -2.843,-3.255c-2.308,-2.295 -3.941,-5.651 -5.596,-8.438c-4.185,-7.049 -6.837,-13.364 -8.142,-21.54c-1.719,-10.766 -1.938,-22.061 0.361,-32.746c1.253,-5.825 3.658,-10.993 7.002,-15.905c1.363,-2.003 2.954,-3.906 4.475,-5.791c1.446,-1.793 2.2,-3.523 3.415,-5.381c0.479,-0.729 0.426,-1.9 -0.719,-1.809Z" style="fill-rule:nonzero;"/><path d="M20.991,400.03c2.366,5.519 9.558,7.844 14.597,10.217c8.412,3.962 16.888,7.542 25.432,11.226c20.124,8.677 39.66,18.716 60.038,26.807c18.707,7.428 38,13.265 56.935,20.063c9.557,3.432 19.027,7.141 28.229,11.443c4.483,2.097 8.87,4.39 13.184,6.814c4.253,2.391 7.686,4.203 12.41,1.519c3.691,-2.098 8.705,-12.166 1.044,-12.751c-4.315,-0.33 -8.426,1.941 -10.26,5.947c-1.344,2.938 -0.551,6.296 2.852,7.111c0.096,0.023 0.191,0.046 0.287,0.069c-0.873,-0.479 -1.745,-0.957 -2.617,-1.436c-0.277,-0.806 -0.554,-1.611 -0.831,-2.417c4.474,-2.571 8.947,-5.142 13.421,-7.712c-1.994,-2.555 -6.117,-3.898 -8.974,-5.382c-4.43,-2.3 -8.982,-4.356 -13.561,-6.339c-8.85,-3.834 -17.923,-7.106 -27.035,-10.257c-18.585,-6.427 -37.5,-11.867 -55.922,-18.769c-19.45,-7.285 -38.27,-16.262 -57.571,-23.946c-8.674,-3.453 -17.417,-6.629 -26.034,-10.199c-6.242,-2.586 -13.279,-4.249 -19.098,-7.733c-3.005,-1.798 -7.899,2.523 -6.526,5.725Z" style="fill-rule:nonzero;"/><path d="M28.652,283.954c4.029,5.726 11.887,8.97 17.956,12.046c7.614,3.859 15.689,6.85 23.672,9.843c16.048,6.019 32.641,10.869 48.196,18.132c35.768,16.7 73.528,28.672 109.293,45.391c2.891,-4.75 5.781,-9.5 8.672,-14.249c-2.615,-0.317 -5.138,-0.671 -7.778,-0.47c-3.696,0.281 -9.49,5.229 -7.274,9.438c1.779,3.38 4.147,5.442 8.062,5.863c3.683,0.396 7.125,-1.31 9.354,-4.249c2.041,-2.691 3.32,-8.195 -0.683,-10c-36.121,-16.276 -74.1,-27.949 -110.276,-44.094c-15.188,-6.777 -31.257,-11.68 -47.032,-16.879c-8.291,-2.732 -16.425,-5.796 -24.569,-8.925c-7.304,-2.807 -14.391,-7.444 -22.038,-9.126c-3.632,-0.799 -7.871,3.989 -5.555,7.279Z" style="fill-rule:nonzero;"/><path d="M33.217,275.601c-10.568,5.116 -18.118,12.17 -23.887,22.584c-5.835,10.535 -7.823,22.854 -8.296,34.738c-0.943,23.726 6.086,48.374 16.142,69.681c3.604,7.638 16.76,-0.997 13.469,-7.678c-16.454,-33.397 -30.67,-88.596 5.125,-115.067c2.91,-2.152 0.71,-5.838 -2.553,-4.258Z" style="fill-rule:nonzero;"/><path d="M228.464,365.197c8.602,1.596 17.794,-1.377 26.067,-3.505c4.918,-1.265 9.779,-2.718 14.631,-4.213c4.601,-1.419 9.649,-3.841 14.442,-4.365c3.647,-0.399 7.083,-3.256 7.864,-6.901c0.696,-3.251 -1.661,-6.313 -5.132,-5.849c-3.373,0.452 -5.783,1.513 -8.479,3.563c-1.842,1.4 -2.718,4.179 -1.314,6.131c1.399,1.945 3.136,2.645 5.458,2.982c0.316,-3.862 0.633,-7.724 0.949,-11.586c-3.789,2.003 -8.515,2.927 -12.585,4.246c-4.848,1.57 -9.713,3.089 -14.585,4.585c-8.914,2.735 -18.295,4.339 -26.775,8.306c-2.349,1.098 -4.188,5.929 -0.541,6.606Z" style="fill-rule:nonzero;"/><path d="M397.586,305.546c5.068,0.58 10.002,-1.377 14.822,-2.777c5.937,-1.725 11.813,-3.686 17.727,-5.487c12.685,-3.863 25.346,-7.804 38.065,-11.553c12.831,-3.782 25.716,-7.38 38.662,-10.748c12.749,-3.316 25.982,-5.51 38.582,-9.271c3.51,-1.047 6.789,-4.715 6.586,-8.522c-0.2,-3.774 -4.068,-5.15 -7.27,-4.081c-4.854,1.621 -12.314,9.021 -4.251,12.365c2.007,-4.24 4.013,-8.481 6.02,-12.722c-12.939,2.026 -25.88,6.358 -38.462,9.949c-12.95,3.696 -25.813,7.709 -38.607,11.907c-12.754,4.186 -25.43,8.601 -38.016,13.268c-5.92,2.195 -11.803,4.494 -17.688,6.78c-5.636,2.188 -11.755,4.292 -16.331,8.335c-0.683,0.604 -1.255,2.395 0.161,2.557Z" style="fill-rule:nonzero;"/><path d="M26.85,283.468c4.926,1.127 10.572,-0.869 15.328,-2.107c5.745,-1.496 11.437,-3.207 17.082,-5.037c11.821,-3.833 23.702,-7.157 35.598,-10.635c7.592,-2.22 9.07,-15.246 -0.681,-12.561c-1.467,0.404 -2.667,0.945 -3.911,1.824c-2.555,1.807 -5.494,5.457 -2.984,8.57c1.174,1.457 2.417,1.879 4.144,2.443c0.917,-4.279 1.834,-8.559 2.751,-12.838c-11.441,2.737 -22.73,7.665 -33.796,11.65c-5.675,2.044 -11.341,4.115 -17.054,6.049c-5.272,1.782 -11.229,2.921 -15.933,5.984c-2.12,1.384 -4.397,5.775 -0.544,6.658Z" style="fill-rule:nonzero;"/><path d="M511.416,245.345c3.063,3.905 10.246,5.492 14.639,7.42c2.832,1.242 5.599,2.653 8.307,4.145c2.519,1.388 4.294,3.662 6.744,4.942c4.628,2.417 13.808,-4.116 10.734,-9.418c-3.011,-5.194 -11.05,-7.804 -16.458,-9.77c-6.207,-2.255 -14.51,-5.482 -21.114,-3.266c-2.196,0.737 -4.619,3.692 -2.852,5.947Z" style="fill-rule:nonzero;"/><path d="M434.603,343.167c-1.146,13.556 5.723,27.534 11.687,39.274c1.363,2.685 4.281,1.727 6.233,0.331c9.326,-6.669 16.584,-16.132 23.702,-25c-2.025,0.673 -4.052,1.346 -6.077,2.019c4.704,2.766 9.466,5.432 14.186,8.17c3.519,2.041 7.63,5.848 11.655,6.608c3.028,0.573 6.321,-2.785 5.424,-5.779c-1.103,-3.68 -7.083,-5.979 -10.123,-7.747c-5.118,-2.978 -10.318,-5.808 -15.44,-8.777c-2.1,-1.217 -4.774,0.38 -6.077,2.019c-6.599,8.302 -13.243,16.907 -21.794,23.311c2.078,0.11 4.156,0.221 6.233,0.331c-6.319,-11.587 -10.129,-24.216 -16.053,-35.903c-0.82,-1.619 -3.426,-0.381 -3.556,1.143Z" style="fill-rule:nonzero;"/><path d="M493.431,326.949c-5.336,12.554 0.857,28.271 3.787,40.775c0.6,-1.721 1.199,-3.442 1.799,-5.163c0.149,-0.022 0.299,-0.044 0.447,-0.065c1.311,0.256 2.621,0.513 3.932,0.77c-0.173,-0.143 -0.72,-0.961 -0.959,-1.318c-0.785,-1.172 -2.519,-0.978 -3.653,-0.716c-2.877,0.663 -4.204,3.744 -3.866,6.438c0.656,5.229 6.583,2.464 8.941,0.408c1.541,-1.344 2.275,-3.173 1.799,-5.163c-1.416,-5.919 -3.213,-11.733 -4.711,-17.632c-1.578,-6.212 -2.018,-13.013 -4.407,-18.967c-0.595,-1.482 -2.673,-0.395 -3.109,0.633Z" style="fill-rule:nonzero;"/><path d="M220.533,415.191c24.116,-3.368 47.835,-12.881 70.539,-21.309c25.218,-9.362 50.62,-18.106 76.204,-26.422c25.835,-8.396 52.075,-15.699 77.758,-24.522c24.852,-8.538 49.819,-19.481 76.122,-22.563c3.586,-0.42 6.442,-6.798 1.441,-6.73c-3.017,0.04 -5.474,0.529 -8.047,2.14c-1.671,1.046 -3.054,5.207 0.268,4.753c2.069,-0.283 4.244,-0.164 6.338,-0.162c0.48,-2.243 0.961,-4.487 1.441,-6.73c-25.604,5.043 -49.8,13.917 -74.326,22.615c-25.568,9.069 -51.811,16.203 -77.523,24.877c-25.602,8.635 -51.183,17.283 -76.46,26.83c-12.215,4.613 -24.442,9.215 -36.797,13.441c-12.101,4.141 -24.401,7.306 -36.703,10.743c-1.416,0.395 -2.35,3.332 -0.255,3.039Z" style="fill-rule:nonzero;"/><path d="M227.1,390.741c12.113,-2.194 23.849,-6.605 35.544,-10.375c13.001,-4.19 25.945,-8.557 38.892,-12.915c25.379,-8.543 50.71,-17.23 76.136,-25.632c25.102,-8.294 50.285,-16.485 75.807,-23.396c23.78,-6.439 48.202,-12.17 71.352,-20.654c2.798,-1.024 5.046,-6.363 0.527,-6.287c-3.734,0.064 -6.497,0.438 -9.811,2.184c-1.871,0.985 -2.608,4.401 0.245,4.358c2.725,-0.041 5.455,-0.104 8.181,-0.081c0.176,-2.096 0.352,-4.191 0.527,-6.287c-11.275,4.15 -22.398,8.219 -33.941,11.602c-12.395,3.632 -24.875,6.972 -37.341,10.354c-25.524,6.927 -50.698,15.167 -75.802,23.472c-25.439,8.415 -50.77,17.152 -76.127,25.808c-12.33,4.208 -24.682,8.347 -37.03,12.502c-12.443,4.186 -25.282,7.695 -37.288,13.033c-0.963,0.426 -1.376,2.586 0.129,2.314Z" style="fill-rule:nonzero;"/><path d="M220.919,441.528c17.03,-7.249 33.629,-15.378 50.876,-22.141c18.165,-7.123 36.694,-13.275 55.327,-19.047c18.699,-5.792 37.535,-11.14 56.355,-16.523c9.161,-2.62 18.322,-5.243 27.47,-7.915c9.696,-2.832 19.468,-6.563 29.416,-8.308c3.256,-0.571 6.218,-6.623 1.373,-6.408c-2.792,0.124 -4.517,0.836 -6.681,2.596c-1.417,1.152 -1.619,4.134 0.841,3.907c1.474,-0.137 2.987,-0.127 4.467,-0.095c0.174,-2.079 0.349,-4.158 0.522,-6.237c-37.303,11.656 -75.068,21.865 -112.369,33.572c-19.188,6.021 -38.246,12.5 -56.972,19.846c-17.552,6.886 -35.394,14.262 -50.998,24.96c-0.792,0.544 -0.979,2.368 0.373,1.793Z" style="fill-rule:nonzero;"/><path d="M498.737,350.177c10.693,-2.479 21.165,-5.817 31.651,-9.034c3.453,-1.06 3.684,-7.153 -0.299,-5.53c-10.509,4.281 -21.729,6.628 -31.968,11.601c-1.67,0.811 -1.557,3.467 0.616,2.963Z" style="fill-rule:nonzero;"/><path d="M220.588,460.458c9.458,-1.668 18.636,-4.918 27.769,-7.82c10.415,-3.311 20.792,-6.752 31.128,-10.299c20.655,-7.088 41.187,-14.537 61.597,-22.305c19.771,-7.525 39.313,-15.655 59.416,-22.281c9.897,-3.262 19.697,-6.784 29.623,-9.971c3.057,-0.98 6.174,-1.811 9.047,-3.266c1.09,-0.551 2.146,-1.172 3.214,-1.766c0.519,-0.29 1.041,-0.572 1.566,-0.85c0.234,-0.118 0.469,-0.237 0.703,-0.355c1.375,-0.413 0.709,-1.248 -1.998,-2.504c-2.229,3.545 1.921,4.923 4.227,2.283c3.655,-4.183 0.276,-6.66 -4.077,-4.615c-2.235,1.051 -4.246,2.623 -6.545,3.529c-5.382,2.123 -11.065,3.629 -16.536,5.515c-22.268,7.675 -44.363,15.692 -66.276,24.356c-22.131,8.751 -44.459,16.998 -66.907,24.897c-10.952,3.854 -21.93,7.638 -32.934,11.343c-11.069,3.727 -22.479,6.937 -33.15,11.719c-0.992,0.446 -1.423,2.665 0.133,2.39Z" style="fill-rule:nonzero;"/><path d="M454.69,377.855c12.83,-0.658 24.334,-7.746 36.853,-9.709c4.467,-0.7 4.409,-7.367 -0.291,-5.171c-11.557,5.401 -24.49,7.581 -36.336,12.181c-1.151,0.446 -2.194,2.801 -0.226,2.699Z" style="fill-rule:nonzero;"/><path d="M500.237,363.797c8.123,-0.698 15.747,-4.333 23.794,-5.07c3.122,-0.286 8.33,-0.541 10.771,-2.739c1.32,-1.189 2.444,-4.639 -0.314,-4.973c-1.804,-0.218 -3.255,0.604 -4.66,1.628c-1.129,0.82 -1.647,2.838 -0.284,3.673c0.237,0.146 2.138,0.904 1.435,0.467c0.378,-1.761 0.755,-3.522 1.133,-5.283c0.621,-0.314 -2.898,0.763 -3.75,0.974c-1.562,0.387 -3.23,0.507 -4.768,0.946c-7.817,2.236 -15.66,4.737 -23.15,7.914c-0.989,0.419 -2.032,2.621 -0.207,2.463Z" style="fill-rule:nonzero;"/><path d="M113.196,251.522c-0.628,0.006 -1.502,-0.137 -2.051,0.203c-0.134,0.084 -0.325,0.329 -0.168,0.483c0.255,0.248 0.556,0.207 0.894,0.21c0.377,0.004 0.754,0.008 1.131,0.012c0.509,0.006 0.852,-0.915 0.194,-0.908Z" style="fill-rule:nonzero;"/><path d="M112.845,251.383c-0.307,-0.357 -0.615,-0.71 -1.102,-0.796c-0.672,-0.117 -1.381,0.273 -1.772,0.806c-3.574,4.863 16.939,10.977 19.896,11.989c9.506,3.256 18.715,7.855 28.021,11.686c11.225,4.619 22.349,9.475 33.603,14.021c22.973,9.28 45.891,18.695 68.885,27.922c11.379,4.566 22.799,9.025 34.24,13.43c10.431,4.016 20.225,8.795 30.366,13.395c1.191,-2.518 2.382,-5.035 3.573,-7.552c-2.371,0.18 -4.579,0.559 -6.91,0.97c-1.635,0.287 -3.254,1.966 -2.231,3.625c1.526,2.475 3.645,3.005 6.453,3.265c3.269,0.301 8.946,-5.128 4.568,-7.507c-8.813,-4.787 -18.75,-8.5 -28.237,-11.723c-11.307,-3.842 -22.434,-8.266 -33.573,-12.565c-22.554,-8.707 -44.963,-17.772 -67.402,-26.77c-21.361,-8.565 -42.81,-17.089 -63.951,-26.186c-4.57,-1.968 -9.449,-3.325 -14.117,-5.068c-2.446,-0.913 -4.859,-1.895 -7.33,-2.739c-0.911,-0.311 -1.924,-0.835 -2.868,-1.01c-1.962,-0.364 -1.085,2.29 -0.542,2.042c0.407,-0.186 0.767,-0.841 0.43,-1.235Z" style="fill-rule:nonzero;"/><path d="M118.441,233.069c17.164,8.899 35.239,15.999 53.112,23.33c18.655,7.651 37.389,15.103 56.085,22.652c18.031,7.281 36.021,14.669 53.864,22.399c9.111,3.947 18.165,8.027 27.176,12.198c8.074,3.737 16.615,7.257 24.2,11.921c1.264,-2.076 2.527,-4.152 3.791,-6.229c-2.64,-0.13 -5.274,-0.475 -7.882,-0.904c-1.646,-0.271 -4.971,2.456 -3.1,4.062c2.427,2.082 4.713,3.083 7.925,3.327c2.727,0.206 7.386,-4.141 3.791,-6.229c-7.159,-4.157 -15.292,-7.279 -22.838,-10.723c-9.047,-4.128 -18.161,-8.108 -27.306,-12.016c-18.479,-7.896 -37.096,-15.46 -55.762,-22.903c-18.177,-7.249 -36.399,-14.386 -54.587,-21.61c-18.715,-7.433 -37.221,-15.462 -56.148,-22.341c-1.632,-0.592 -4.245,2.069 -2.321,3.066Z" style="fill-rule:nonzero;"/><path d="M123.123,201.872c0.02,0.6 -0.013,1.238 0.084,1.831c0.021,0.134 0.207,0.056 0.222,-0.045c0.093,-0.624 0.065,-1.282 0.086,-1.913c0.007,-0.242 -0.4,-0.085 -0.392,0.127Z" style="fill-rule:nonzero;"/><path d="M123.22,201.551c-0.484,0.346 -1.714,1.964 -2.393,1.426c-1.528,-1.213 -4.417,2.204 -2.452,3.236c35.853,18.828 74.194,33.143 111.64,48.433c18.609,7.599 37.185,15.281 55.616,23.301c9.164,3.987 18.276,8.088 27.329,12.323c8.913,4.171 17.646,8.676 27.126,11.459c0.757,-2.214 1.515,-4.427 2.271,-6.64c-1.442,0.067 -2.649,-0.023 -4.057,-0.357c-2.587,-0.614 -5.936,3.508 -3.236,5.317c1.686,1.131 3.007,1.534 5.021,1.68c3.331,0.239 7.7,-5.452 3.111,-6.602c-9.679,-2.424 -18.593,-7.225 -27.636,-11.316c-9.125,-4.127 -18.3,-8.146 -27.503,-12.094c-18.5,-7.936 -37.16,-15.493 -55.835,-23.007c-37.246,-14.985 -74.229,-30.57 -111.396,-45.733c-0.071,0.924 -0.143,1.848 -0.214,2.771c1.203,-1.009 1.676,-2.846 2.881,-3.739c0.3,-0.221 0.056,-0.692 -0.273,-0.458Z" style="fill-rule:nonzero;"/><path d="M40.195,290.839c-0.171,-2.443 -3.547,-1.094 -4.819,-0.523c-3.34,1.496 -5.285,5.541 -6.595,8.696c-3.646,8.785 -4.345,19.01 -4.878,28.395c-0.789,13.896 0.57,27.769 3.532,41.349c1.422,6.519 3.42,12.9 5.803,19.128c2.175,5.683 4.831,13.673 9.386,17.855c2.474,2.271 6.478,-1.16 5.674,-4.05c-1.391,-5 -4.953,-9.808 -7.073,-14.606c-2.454,-5.558 -4.367,-11.343 -5.999,-17.188c-3.273,-11.727 -4.651,-23.895 -5.02,-36.036c-0.286,-9.399 0.366,-18.88 1.847,-28.166c0.629,-3.946 1.504,-7.965 3.73,-11.343c0.704,-1.067 4.515,-2.039 4.412,-3.511Z" style="fill-rule:nonzero;"/><path d="M26.394,307.872c11.688,10.183 26.7,16.916 40.728,23.229c15.763,7.094 31.916,13.279 47.877,19.901c17.741,7.36 35.295,15.179 53.041,22.538c8.72,3.615 17.447,7.215 26.159,10.85c4.563,1.903 9.121,3.819 13.674,5.746c3.696,1.565 7.107,4.133 10.841,5.508c2.781,1.025 7.132,-3.227 3.96,-5.227c-0.302,-0.191 -0.604,-0.381 -0.905,-0.571c-2.437,-1.536 -5.483,2.222 -4.143,4.445c0.188,0.313 0.376,0.624 0.564,0.937c1.669,-1.465 3.338,-2.93 5.008,-4.395c-2.245,-2.372 -5.25,-3.093 -8.252,-4.144c-4.675,-1.636 -9.223,-3.606 -13.809,-5.476c-8.739,-3.563 -17.495,-7.087 -26.241,-10.632c-18.029,-7.308 -35.887,-14.991 -53.838,-22.481c-15.906,-6.637 -32.032,-12.727 -47.851,-19.574c-15.488,-6.705 -29.945,-14.743 -44.604,-23.024c-1.159,-0.654 -3.356,1.371 -2.209,2.37Z" style="fill-rule:nonzero;"/><path d="M27.786,332.893c7.75,5.341 16.89,8.899 25.401,12.854c9.307,4.322 18.653,8.557 28.033,12.718c18.666,8.281 37.489,16.172 56.354,23.983c18.087,7.489 36.326,14.665 53.985,23.124c6.178,2.959 12.069,6.56 18.497,8.874c2.756,0.992 6.58,3.514 9.486,3.7c0.664,-1.941 1.327,-3.882 1.991,-5.822c-0.674,0.06 -1.374,0.014 -2.049,0.013c-1.515,-0.001 -3.864,2.504 -2.414,3.922c0.593,0.581 1.166,1.144 1.815,1.659c2.277,1.807 6.577,-2.649 4.574,-4.907c-1.635,-1.843 -6.531,-2.62 -8.779,-3.434c-6.129,-2.22 -11.723,-5.377 -17.613,-8.212c-18.253,-8.785 -37.24,-15.939 -56.02,-23.504c-19.014,-7.66 -38.052,-15.238 -56.937,-23.214c-9.49,-4.008 -18.947,-8.095 -28.349,-12.301c-8.799,-3.937 -17.48,-8.673 -26.687,-11.576c-1.038,-0.328 -2.325,1.407 -1.288,2.123Z" style="fill-rule:nonzero;"/><path d="M27.776,357.059c7.217,4.863 15.877,7.994 23.838,11.433c8.184,3.534 16.436,6.91 24.691,10.272c17.217,7.015 34.324,14.253 51.459,21.459c16.794,7.063 34.034,13.073 50.402,21.124c14.743,7.253 28.976,16.179 45.026,20.319c0.677,-1.979 1.354,-3.959 2.032,-5.939c-1.271,0.032 -2.516,0.149 -3.779,0.295c-2.229,0.257 -5.369,4.917 -1.832,5.354c1.448,0.179 2.873,0.289 4.33,0.326c2.826,0.07 5.635,-4.981 2.032,-5.939c-16.236,-4.32 -30.59,-12.888 -45.605,-20.145c-16.509,-7.978 -33.999,-13.761 -50.953,-20.686c-16.684,-6.815 -33.391,-13.507 -50.2,-20.013c-8.354,-3.234 -16.693,-6.508 -24.996,-9.871c-8.313,-3.368 -16.535,-7.586 -25.139,-10.137c-1.048,-0.311 -2.372,1.429 -1.306,2.148Z" style="fill-rule:nonzero;"/><path d="M31.668,380.981c31.741,11.372 62.992,23.694 93.969,37.044c31.221,13.453 62.388,27.083 94.749,37.616c0.686,-2.007 1.373,-4.013 2.059,-6.02c-1.883,0.077 -3.604,0.342 -5.412,0.849c-1.927,0.54 -3.429,3.628 -0.955,4.454c1.733,0.578 3.257,0.676 5.069,0.752c2.946,0.124 5.601,-4.899 2.059,-6.02c-32.661,-10.327 -64.196,-23.8 -95.789,-36.954c-30.821,-12.832 -62.074,-26.143 -94.738,-33.384c-0.769,-0.17 -1.96,1.323 -1.011,1.663Z" style="fill-rule:nonzero;"/><path d="M357.607,242.858c11.234,8.686 15.423,24.432 16.43,37.929c0.59,7.911 -0.124,15.922 -1.821,23.663c-0.735,3.354 -1.843,6.543 -3.317,9.641c-0.659,1.386 -2.051,3.234 -2.186,4.771c-0.113,1.292 0.372,3.766 0.377,3.787c0.408,1.593 2.35,1.563 3.57,1.302c7.498,-1.605 10.474,-12.333 12.141,-19.293c2.113,-8.824 2.031,-18.037 1.009,-27.004c-1.662,-14.582 -6.694,-34.407 -21.448,-41.073c-3.441,-1.555 -8.193,3.619 -4.755,6.277Z" style="fill-rule:nonzero;"/><path d="M366.72,228.574c7.45,13.517 15.785,25.929 20.484,40.822c2.305,7.303 3.609,14.986 3.213,22.653c-0.169,3.267 -1.167,6.382 -2.42,9.366c-1.355,3.23 -4.152,6.357 -3.577,10.103c0.267,1.734 1.448,2.703 3.226,2.602c9.028,-0.515 13.043,-12.426 14.244,-19.806c1.404,-8.63 -0.152,-17.49 -2.82,-25.715c-2.836,-8.744 -7.232,-16.972 -12.024,-24.784c-4.188,-6.83 -8.842,-13.817 -14.95,-19.078c-2.128,-1.834 -6.86,1.142 -5.376,3.837Z" style="fill-rule:nonzero;"/><path d="M468.306,173.746c2.547,6.073 6.703,11.487 9.55,17.462c3.466,7.273 5.87,15.067 7.165,23.015c1.197,7.347 1.238,15.042 -0.076,22.368c-0.654,3.65 -1.826,7.084 -3.424,10.421c-1.596,3.335 -4.006,6.036 -5.094,9.616c-1.294,4.266 3.824,5.242 6.621,3.698c7.482,-4.13 10.938,-14.321 12.728,-22.168c1.952,-8.559 1.52,-17.417 0.034,-25.994c-1.505,-8.698 -4.355,-17.098 -8.297,-24.985c-3.227,-6.457 -7.849,-14.295 -14.677,-17.408c-2.128,-0.972 -5.533,1.58 -4.53,3.975Z" style="fill-rule:nonzero;"/><path d="M478.636,165.717c4.597,5.578 9.405,10.734 13.086,17.034c4.151,7.104 7.517,14.57 9.701,22.513c2.029,7.374 2.6,15.258 0.896,22.74c-0.724,3.175 -2.171,6.139 -4.036,8.792c-1.986,2.824 -5.131,5.602 -5.456,9.218c-0.146,1.618 0.317,2.777 1.981,3.244c4.219,1.182 8.939,-2.677 11.48,-5.657c3.128,-3.669 5.375,-7.812 6.865,-12.388c2.92,-8.964 2.281,-18.333 0.294,-27.41c-1.999,-9.127 -6.079,-17.865 -11.117,-25.694c-4.4,-6.837 -10.926,-14.647 -18.604,-17.853c-2.811,-1.173 -7.437,2.613 -5.09,5.461Z" style="fill-rule:nonzero;"/><path d="M195.869,67.1c-1.388,-2.593 -5.793,-0.643 -7.493,0.643c-1.98,1.496 -3.142,4.309 -2.821,6.774c0.526,4.048 4.66,4.493 7.933,3.802c3.535,-0.746 6.901,-3.169 8.001,-6.689c0.492,-1.574 -0.003,-3.534 -1.255,-4.624c-0.74,-0.645 -1.503,-1.14 -2.399,-1.526c-0.85,-0.367 -1.693,-0.688 -2.64,-0.533c-1.513,0.246 -2.816,0.774 -3.774,2.039c-0.534,0.703 -0.857,1.618 -0.764,2.508c0.082,0.768 0.691,2.021 1.535,2.316c0.66,0.23 1.298,0.497 1.898,0.856c0.095,0.058 0.188,0.119 0.278,0.184c0.508,0.347 -0.621,-0.536 -0.195,-0.146c0.156,0.143 0.303,0.295 0.436,0.46c0.231,0.286 -0.384,-0.868 -0.122,-0.145c0.114,0.316 -0.081,-0.979 -0.088,-0.236c0.079,-0.708 0.092,-0.901 0.039,-0.581c-0.088,0.507 0.377,-0.981 0.169,-0.498c-0.3,0.696 0.641,-0.922 0.176,-0.288c-0.565,0.771 0.597,-0.586 0.235,-0.236c-0.156,0.151 -0.327,0.287 -0.5,0.42c1.313,-1.012 -0.026,-0.03 -0.47,0.189c-0.379,0.188 1.021,-0.406 0.08,-0.047c-0.229,0.088 -0.463,0.161 -0.699,0.23c-0.29,0.084 -1.222,0.251 0.033,0.018c-0.23,0.043 -0.462,0.068 -0.694,0.09c-0.28,0.023 -1.151,-0.015 0.025,0.045c-0.208,-0.01 -0.415,-0.043 -0.619,-0.082c-0.768,-0.15 0.324,0.15 0.061,0.036c-0.17,-0.074 -0.33,-0.165 -0.483,-0.269c0.793,0.539 0.32,0.266 0.117,0.006c-0.145,-0.184 0.317,0.717 0.062,0.016c-0.236,-0.646 0.063,0.681 0.003,-0.063c-0.011,-0.184 -0.016,-0.367 -0.013,-0.551c0.002,0.629 0.015,-0.063 0.041,-0.199c0.086,-0.335 0.059,-0.283 -0.082,0.152c0.088,-0.246 0.455,-0.706 -0.061,0.038c0.226,-0.277 0.154,-0.206 -0.216,0.215c0.507,-0.499 -0.679,0.419 -0.054,0.016c0.317,-0.205 0.669,-0.349 1.006,-0.517c0.292,-0.137 0.293,-0.139 0.002,-0.005c0.389,-0.166 0.799,-0.293 1.171,-0.496c0.895,-0.488 2.844,-2.007 2.141,-3.322Z" style="fill-rule:nonzero;"/><path d="M306.606,18.938c-4.357,0.725 -7.089,3.836 -6.691,8.307c0.104,1.159 0.804,1.924 1.924,2.192c2.849,0.683 5.517,0.337 8.136,-0.957c2.952,-1.459 4.469,-4.392 5.466,-7.346c0.432,-1.279 -0.256,-2.596 -1.307,-3.283c-2.247,-1.47 -5.103,-1.38 -7.574,-0.634c-2.99,0.902 -6.933,4.004 -6.654,7.479c0.131,-0.611 0.262,-1.223 0.393,-1.834c-0.298,0.83 -0.643,1.595 -0.471,2.495c0.33,1.726 1.69,2.37 3.356,1.885c0.586,-0.171 1.121,-0.419 1.629,-0.755c-0.641,0.206 -1.28,0.412 -1.921,0.618c1.345,-0.139 2.306,-0.614 3.376,-1.421c-0.657,0.495 0.9,-0.364 1.034,-0.44c-0.414,0.234 0.045,0.037 0.351,0.006c0.586,-0.059 1.104,0.021 1.898,0.131c-0.76,-0.865 -1.519,-1.731 -2.278,-2.597c-0.004,0.075 -0.337,0.517 0.083,-0.142c0.374,-0.345 0.373,-0.346 -0.002,-0.003c0.417,-0.278 0.406,-0.287 -0.031,-0.024c0.752,-0.426 -0.844,0.139 -0.424,0.076c-0.631,0.095 -1.302,0.168 -1.94,0.128c0.588,0.472 1.175,0.943 1.763,1.415c-0.019,-0.071 -0.141,-0.959 -0.175,-0.564c-0.033,0.38 -1.234,1.59 -0.561,0.882c0.677,-0.71 1.464,-1.21 2.052,-2.024c0.944,-1.313 0.822,-3.965 -1.432,-3.59Z" style="fill-rule:nonzero;"/><path d="M425.265,53.157c-1.621,-1.518 -5.133,-0.046 -6.714,1.055c-2.363,1.644 -4.028,4.011 -4.444,6.904c-0.221,1.529 0.357,3.307 2.148,3.518c6.516,0.768 12.237,-3.07 13.719,-9.542c0.459,-2.005 -0.606,-3.508 -2.484,-4.066c-1.553,-0.462 -3.309,-0.306 -4.794,0.327c-0.856,0.283 -1.623,0.724 -2.3,1.322c0.535,-0.392 0.551,-0.409 0.047,-0.053c-0.713,0.495 -1.421,0.996 -2.111,1.521c-2.35,1.791 -2.574,6.766 1.361,6.323c0.912,-0.103 1.795,-0.33 2.677,-0.571c-1.508,0.413 1.931,-0.346 0.368,-0.058c0.949,-0.175 -0.508,-0.19 0.568,0.062c-0.828,-1.355 -1.656,-2.711 -2.484,-4.066c-0.034,0.264 -0.077,0.526 -0.128,0.787c-0.046,0.258 -0.471,1.31 -0.037,0.234c-0.421,1.043 0.637,-0.846 0.003,0.032c0.756,-1.047 0.402,-0.401 0.035,-0.097c1.374,-1.143 -0.58,0.148 0.792,-0.458c-0.315,0.139 -0.648,0.233 -0.979,0.329c-1.122,0.326 0.846,-0.111 -0.383,0.066c-0.41,0.059 -0.817,0.131 -1.229,0.186c1.069,0.862 2.14,1.725 3.209,2.588c-0.028,-0.243 -0.05,-0.486 -0.067,-0.729c-0.081,-0.997 -0.144,0.556 0.023,-0.354c0.168,-0.913 -0.305,0.617 0.104,-0.195c-0.497,0.986 0.481,-0.391 -0.266,0.376c1.132,-1.162 2.862,-1.761 3.491,-3.43c0.233,-0.609 0.436,-1.487 -0.125,-2.011Z" style="fill-rule:nonzero;"/><path d="M316.478,114.677c-0.684,-0.845 -2.036,-1.051 -3.064,-1.276c-1.213,-0.266 -2.734,-0.029 -3.892,0.333c-3.2,1 -5.37,4.154 -5.685,7.404c-0.118,1.228 -0.029,2.877 1.367,3.434c3.713,1.481 7.518,1.56 11.123,-0.271c2.814,-1.429 5.195,-4.513 5.643,-7.668c0.446,-3.149 -0.916,-6.305 -4.37,-6.82c-2.124,-0.317 -4.19,0.313 -6.063,1.274c-0.236,0.121 -0.457,0.276 -0.676,0.424c-0.468,0.331 -0.934,0.665 -1.399,1c-0.618,0.636 -2.197,1.979 -0.471,0.491c-0.838,0.722 -1.762,1.666 -2.187,2.717c-0.188,0.428 -0.071,0.275 0.348,-0.458c-0.314,0.487 -0.612,0.985 -0.901,1.488c-0.652,1.132 -0.641,2.825 0.243,3.831c1.252,1.428 3.376,1.057 4.852,0.26c0.454,-0.245 1.03,-0.281 -0.233,0.07c0.646,-0.18 1.289,-0.453 1.847,-0.832c0.792,-0.536 -1.298,0.497 -0.486,0.172c0.693,-0.277 1.211,-0.545 1.828,-0.87c0.167,-0.088 0.339,-0.163 0.51,-0.242c0.767,-0.355 -1.561,0.608 -0.531,0.259c0.955,-0.323 -1.295,0.207 -0.602,0.102c0.426,-0.064 1.229,0.036 -0.607,-0.074c0.112,0.007 0.223,0.028 0.332,0.051c0.592,0.121 -1.296,-0.539 -0.601,-0.199c0.836,0.408 -0.881,-0.909 -0.28,-0.211c0.69,0.803 -0.46,-0.963 -0.141,-0.307c0.06,0.121 0.102,0.251 0.141,0.38c0.17,0.556 -0.219,-1.349 -0.128,-0.569c0.131,1.126 0.22,-1.012 0.055,-0.259c-0.083,0.38 -0.356,1.009 0.255,-0.702c-0.057,0.158 -0.129,0.311 -0.205,0.461c-0.314,0.628 0.807,-1.267 0.413,-0.673c-0.101,0.151 -0.217,0.292 -0.334,0.43c1.276,-1.497 0.824,-0.853 0.436,-0.517c-0.779,0.674 1.166,-0.776 0.504,-0.36c-0.137,0.086 -0.28,0.159 -0.423,0.231c1.564,-0.799 0.822,-0.348 0.377,-0.197c-0.356,0.121 -1.321,0.292 0.253,-0.009c-0.267,0.051 -0.538,0.077 -0.809,0.101c-0.217,0.018 -0.436,0.021 -0.653,0.023c-0.688,0.008 1.051,0.098 -0.105,-0.02c-0.725,-0.073 -1.448,-0.226 -2.158,-0.383c0.794,0.906 1.588,1.811 2.383,2.717c-0.011,-0.185 0.024,-1.285 -0.073,-0.237c0.021,-0.175 0.054,-0.349 0.097,-0.521c-0.24,0.633 -0.273,0.755 -0.099,0.367c-0.034,0.07 -1.301,1.535 -0.749,1.049c-0.697,0.464 -0.845,0.569 -0.442,0.316c0.379,-0.199 0.257,-0.151 -0.366,0.143c1.341,-0.556 2.994,-0.593 4.194,-1.44c1.309,-0.928 2.827,-2.813 1.532,-4.413Z" style="fill-rule:nonzero;"/><path d="M206.676,62.993c4.677,0.572 7.82,1.861 7.266,7.262c-0.204,1.979 -0.857,4.009 -1.919,5.692c-1.079,1.711 -2.152,1.693 -3.708,2.709c-1.656,1.081 -2.898,3.789 -0.38,4.638c5.813,1.957 9.87,-9.523 10.325,-13.389c0.794,-6.734 -3.925,-12.164 -10.94,-9.908c-1.045,0.335 -2.528,2.764 -0.644,2.996Z" style="fill-rule:nonzero;"/><path d="M289.759,28.654c0.946,8.144 11.486,8.946 17.766,7.719c6.962,-1.361 14.423,-5.485 15.31,-13.127c0.104,-0.896 -0.04,-1.63 -0.852,-2.14c-0.145,-0.091 -0.288,-0.182 -0.433,-0.272c-1.238,-0.778 -2.989,0.476 -3.492,1.588c-0.948,2.095 -0.066,3.725 -1.897,5.537c-1.964,1.944 -4.74,2.957 -7.338,3.702c-6.524,1.873 -11.767,0.285 -16.051,-4.738c-1.017,-1.192 -3.163,0.44 -3.013,1.731Z" style="fill-rule:nonzero;"/><path d="M295.608,116.417c3.794,-7.149 9.332,-8.668 17.134,-8.01c5.43,0.459 11.352,1.69 16.5,3.525c3.909,1.393 6.725,-5.259 3.299,-5.421c-7.514,-0.354 -14.593,-3.022 -22.264,-2.746c-7.594,0.272 -16.556,4.149 -17.9,12.5c-0.371,2.3 2.524,1.484 3.231,0.152Z" style="fill-rule:nonzero;"/><path d="M413.018,47.135c-6.899,3.127 -17.149,22.734 -3.527,23.006c1.953,0.039 5.175,-4.117 2.423,-5.119c-1.533,-0.558 -3.135,-0.656 -3.841,-2.313c-0.64,-1.501 0.069,-3.576 0.579,-5.003c1.228,-3.426 3.488,-6.233 5.682,-9.071c0.858,-1.111 -0.191,-2.01 -1.316,-1.5Z" style="fill-rule:nonzero;"/><path d="M207.906,62.203c1.537,0.021 2.88,-1.224 4.146,-1.96c2.925,-1.701 6.104,-2.99 9.234,-4.252c6.339,-2.555 12.837,-4.692 19.199,-7.189c6.72,-2.637 13.104,-6.091 19.672,-9.074c4.768,-2.166 9.597,-4.207 14.469,-6.127c4.488,-1.769 9.415,-4.143 14.211,-4.854c-0.495,-1.24 -0.99,-2.482 -1.484,-3.724c-0.561,0.413 -1.072,0.88 -1.534,1.399c-1.072,1.097 -0.915,3.032 0.994,2.556c0.812,-0.202 1.866,-0.193 2.72,-0.371c3.691,-0.771 3.031,-6.778 -0.965,-4.649c-8.271,4.406 -17.808,7.079 -26.405,10.891c-8.157,3.615 -16.016,7.85 -24.296,11.179c-6.541,2.63 -13.209,4.953 -19.646,7.835c-2.86,1.281 -10.79,3.877 -10.926,7.848c-0.013,0.347 0.323,0.488 0.611,0.492Z" style="fill-rule:nonzero;"/><path d="M332.813,110.978c10.114,-2.654 19.162,-9.347 27.737,-15.071c9.481,-6.33 18.985,-12.279 29.229,-17.324c5.248,-2.584 10.979,-3.725 16.244,-6.229c3.716,-1.766 4.41,-7.476 -0.729,-5.482c-1.313,0.509 -3.067,2.676 -1.298,3.775c2.263,1.406 -1.785,-1.377 1.37,-3.076c-0.764,0.411 -1.567,0.732 -2.372,1.053c-2.145,0.854 -4.346,1.575 -6.535,2.301c-6.387,2.117 -12.32,5.585 -18.162,8.881c-7.669,4.327 -14.81,9.439 -22.079,14.39c-7.716,5.255 -15.778,9.553 -23.994,13.938c-1.527,0.815 -1.53,3.401 0.589,2.844Z" style="fill-rule:nonzero;"/><path d="M208.883,82.553c7.566,2.272 15.287,3.476 22.8,6.122c7.243,2.552 14.271,5.657 21.496,8.25c12.925,4.639 27.806,8.534 37.133,19.326c2.137,2.473 7.135,-2.117 4.838,-4.246c-10.423,-9.661 -24.774,-14.501 -38.088,-18.66c-7.837,-2.448 -15.434,-5.604 -23.204,-8.243c-7.506,-2.55 -16.176,-5.881 -24.224,-4.744c-0.966,0.137 -2.152,1.774 -0.751,2.195Z" style="fill-rule:nonzero;"/><path d="M319.183,23.959c6.803,3.469 14.316,5.78 21.395,8.647c7.721,3.127 15.393,6.371 23.135,9.444c14.967,5.939 30.377,11.307 46.397,13.477c0.627,-1.832 1.254,-3.664 1.88,-5.497c-1.719,0.059 -3.065,0.262 -4.586,1.034c-1.316,0.669 -2.162,2.63 -0.778,3.631c1.245,0.9 2.698,0.813 4.181,0.864c2.57,0.089 5.287,-5.059 1.88,-5.497c-16.448,-2.118 -32.114,-6.855 -47.612,-12.65c-7.287,-2.724 -14.512,-5.609 -21.772,-8.4c-7.317,-2.812 -14.891,-6.104 -22.641,-7.48c-1.102,-0.196 -2.858,1.725 -1.479,2.427Z" style="fill-rule:nonzero;"/></g></svg>