<?xml version="1.0" encoding="UTF-8" standalone="no"?><!DOCTYPE svg PUBLIC "-//W3C//DTD SVG 1.1//EN" "http://www.w3.org/Graphics/SVG/1.1/DTD/svg11.dtd"><svg width="100%" height="100%" viewBox="0 0 402 286" version="1.1" xmlns="http://www.w3.org/2000/svg" xmlns:xlink="http://www.w3.org/1999/xlink" xml:space="preserve" style="fill-rule:evenodd;clip-rule:evenodd;stroke-linejoin:round;stroke-miterlimit:1.41421;"><g id="book"><path d="M14.318,130.871c2.776,2.155 6.046,2.852 9.331,4.244c6.021,2.555 11.863,5.679 17.64,8.737c12.008,6.361 23.676,13.341 35.584,19.882c16.301,8.953 33.377,16.779 50.129,24.854c20.656,9.956 41.734,18.991 63.605,25.938c6.199,1.971 9.82,-7.137 4.355,-10.33c-4.994,-2.918 -10.094,-4.304 -15.854,-4.701c-3.031,-0.21 -4.867,4.121 -2.533,6.114c4.385,3.744 8.713,6.681 14.031,8.917c1,-3.634 2.002,-7.267 3.004,-10.899c-22.615,-5.584 -44.041,-15.166 -65.098,-24.955c-16.557,-7.698 -33.418,-15.092 -49.574,-23.608c-12.625,-6.653 -25.074,-13.623 -37.946,-19.8c-5.564,-2.67 -11.242,-5.104 -17.165,-6.867c-3.217,-0.958 -7.499,-2.122 -9.689,1.115c-0.25,0.377 -0.194,1.069 0.18,1.359Z" style="fill:#010101;fill-rule:nonzero;"/><path d="M21.201,133.213c-5.051,-3.274 -8.923,-5.388 -14.297,-1.081c-4.671,3.742 -5.764,10.938 -6.414,16.462c-1.489,12.638 0.767,29.547 10.222,38.883c4.826,4.765 11.239,-0.244 10.396,-6.052c-0.44,-3.035 -0.612,-5.432 -2.143,-8.156c-2.411,-4.295 -7.85,-2.632 -9.45,1.235c-1.421,3.434 -1.444,6.684 -0.403,10.228c3.046,-2.341 6.092,-4.683 9.136,-7.023c-5.563,-3.719 -7.648,-17.271 -8.024,-24.582c-0.221,-4.313 0.134,-20.479 8.794,-16.183c2.493,1.235 4.532,-2.21 2.183,-3.731Z" style="fill:#010101;fill-rule:nonzero;"/><path d="M22.896,135.468c-3.676,8.821 -4.447,18.095 -4.727,27.585c-0.146,4.945 -0.089,9.895 -0.123,14.84c-0.028,4.112 -1.264,9.371 1.009,13.018c3.801,6.091 13.196,2.133 11.498,-4.848c-0.675,-2.772 -2.89,-4.43 -5.442,-5.331c-2.73,-0.964 -5.825,1.067 -6.545,3.717c-0.153,0.564 -0.495,3.787 -0.144,1.614c3.833,-0.501 7.665,-1.002 11.497,-1.503c1.208,2.302 0.142,-2.839 0.131,-2.977c-0.195,-2.469 -0.453,-4.934 -0.705,-7.396c-0.44,-4.329 -0.933,-8.651 -1.346,-12.983c-0.792,-8.324 -1.12,-16.774 -0.591,-25.125c0.178,-2.818 -3.598,-2.805 -4.512,-0.611Z" style="fill:#010101;fill-rule:nonzero;"/><path d="M14.274,192.915c9.059,10.578 22.977,16.665 35.332,22.435c13.893,6.486 28.02,12.422 41.836,19.078c33.682,16.229 70.783,27.259 101.504,49.064c2.109,-3.609 4.221,-7.22 6.33,-10.83c-3.039,-1.817 -6.373,-3.07 -9.646,-4.409c-1.666,-0.683 -3.307,-1.126 -5.051,-1.558c-1.936,-0.478 -3.787,0.518 -5.596,0.219c-2.977,-0.492 -5.842,3.058 -3.191,5.483c0.922,0.845 1.203,1.82 2.016,2.806c1.504,1.821 3.232,2.862 5.271,4.034c3.459,1.989 7.639,3.46 11.367,4.888c6.736,2.578 10.928,-8.068 4.832,-11.463c-32.605,-18.142 -67.557,-30.375 -101.455,-45.697c-26.719,-12.076 -56.272,-21.113 -80.4,-38.13c-2.558,-1.804 -4.952,1.973 -3.149,4.08Z" style="fill:#010101;fill-rule:nonzero;"/><path d="M198.215,218.183c-6.709,6.504 -8.646,17.813 -9.881,26.647c-1.191,8.535 -2.596,20.64 2.883,28.106c2.922,3.981 8.676,3.549 10.357,-1.354c1.133,-3.305 0.674,-5.862 -1.51,-8.555c-1.66,-2.047 -5.064,-1.688 -6.783,0c-1.725,1.691 -1.957,3.344 -2.637,5.541c3.158,-0.833 6.316,-1.667 9.473,-2.5c-3.893,-4.473 -2.922,-15.428 -2.613,-21.229c0.406,-7.649 1.436,-16.461 4.92,-23.412c1.346,-2.679 -1.955,-5.428 -4.209,-3.244Z" style="fill:#010101;fill-rule:nonzero;"/><path d="M392.008,66.849c-10.227,21.035 -19.828,44.337 -17.176,68.229c0.877,7.913 12.158,8.242 12.557,0c0.182,-3.785 -0.248,-7.461 -3.107,-10.171c-1.811,-1.716 -4.531,-1.716 -6.342,0c-2.859,2.71 -3.291,6.386 -3.107,10.171c4.109,-0.558 8.223,-1.112 12.332,-1.669c-2.664,-10.267 -1.271,-21.487 0.566,-31.775c1.994,-11.166 4.957,-22.216 8.727,-32.909c0.916,-2.598 -3.245,-4.351 -4.45,-1.876Z" style="fill:#010101;fill-rule:nonzero;"/><path d="M201.733,283.609c5.43,-7.295 13.324,-12.429 20.357,-18.018c8.297,-6.596 16.693,-13.059 24.947,-19.708c17.031,-13.722 33.955,-27.585 51.227,-41.004c30.83,-23.952 65.332,-43.941 93.668,-70.982c5.568,-5.313 -1.711,-14.943 -8.262,-10.707c-2.619,1.694 -5.301,3.281 -7.928,4.96c-3.1,1.979 -5.533,4.545 -8.605,6.552c-3.16,2.063 -2.066,7.325 1.975,7.285c3.385,-0.032 7.268,0.195 10.465,-0.947c4.01,-1.435 7.477,-3.707 10.977,-6.075c-2.754,-3.569 -5.508,-7.139 -8.262,-10.707c-27.721,28.546 -62.68,48.994 -93.828,73.493c-17.188,13.517 -33.979,27.515 -50.766,41.521c-8.018,6.688 -15.945,13.473 -23.811,20.336c-6.863,5.991 -13.609,12.516 -17.395,20.938c-1.618,3.595 2.899,6.208 5.241,3.063Z" style="fill:#010101;fill-rule:nonzero;"/><path d="M205.733,229.141c15.291,-9.179 29.441,-20.224 43.615,-31.021c14.387,-10.96 28.832,-21.976 42.457,-33.883c12.9,-11.274 26.939,-21.18 40.869,-31.122c13.557,-9.677 27.869,-19.098 40.467,-30.006c3.744,-3.241 -1.076,-9.169 -5.193,-6.731c-3.41,2.018 -7.043,3.849 -9.854,6.685c-1.982,2 0,5.587 2.773,4.768c3.889,-1.151 7.902,-1.935 11.404,-4.049c-1.73,-2.244 -3.463,-4.488 -5.193,-6.732c-12.652,11.154 -25.613,21.334 -39.32,31.201c-13.396,9.644 -26.762,19.353 -39.289,30.12c-13.775,11.842 -27.947,23.168 -42.332,34.259c-14.32,11.042 -29.141,21.713 -41.896,34.581c-0.981,0.985 0.281,2.656 1.492,1.93Z" style="fill:#010101;fill-rule:nonzero;"/><path d="M200.672,254.184c13.566,-11.227 26.371,-23.163 40.543,-33.676c14.457,-10.723 29.475,-20.646 44.633,-30.344c14.76,-9.441 28.705,-19.396 42.256,-30.517c14.557,-11.943 29.072,-23.838 45.883,-32.522c4.867,-2.516 1.475,-10.251 -3.688,-8.746c-5.051,1.473 -10.551,3.403 -14.297,7.23c-2.867,2.932 0.113,6.943 3.705,6.366c4.525,-0.728 8.744,-3.053 13.137,-4.369c-1.23,-2.915 -2.459,-5.831 -3.689,-8.746c-16.068,9.013 -30.287,20.927 -44.438,32.63c-14.258,11.793 -28.898,22.363 -44.414,32.427c-15.402,9.989 -30.664,20.218 -45.172,31.479c-13.523,10.499 -27.83,22.161 -36.729,37.035c-0.892,1.492 1.059,2.754 2.27,1.753Z" style="fill:#010101;fill-rule:nonzero;"/><path d="M37.396,161.589c-3.207,-1.567 -8.612,-3.077 -11.084,-5.712c-1.699,-1.813 -4.242,1.468 -2.059,2.668c12.067,6.634 24.862,12.063 37.2,18.186c12.502,6.202 24.936,12.538 37.359,18.895c25.283,12.934 50.854,25.281 76.25,37.957c4.74,2.367 8.313,-3.974 4.098,-7.008c-2.668,-1.92 -5.521,-2.528 -8.734,-1.981c-1.582,0.27 -2.432,2.5 -1.541,3.787c1.465,2.116 3.518,2.854 5.355,4.567c1.316,-2.261 2.633,-4.521 3.949,-6.781c-26.33,-9.741 -51.379,-22.981 -76.484,-35.492c-12.498,-6.229 -24.992,-12.473 -37.604,-18.475c-12.567,-5.98 -25.282,-12.442 -38.541,-16.76c0,1.094 0,2.186 0,3.277c3.718,-1.007 8.048,2.217 11.263,3.851c0.654,0.329 1.227,-0.66 0.573,-0.979Z" style="fill:#010101;fill-rule:nonzero;"/><path d="M37.789,180.824c8.98,3.4 17.595,6.928 26.032,11.594c10.768,5.956 21.176,12.521 31.762,18.792c11.928,7.063 24.277,13.402 36.668,19.605c15.717,7.869 32.08,15.372 46.586,25.372c1.584,-2.71 3.168,-5.421 4.752,-8.131c-5.467,-2.617 -10.867,-5.641 -17.074,-5.102c-3.428,0.298 -4.402,4.229 -1.686,6.224c4.236,3.108 9.225,4.847 14.008,7.009c5.441,2.459 10.25,-5.402 4.752,-8.131c-15.883,-7.88 -31.652,-15.902 -47.691,-23.48c-13.26,-6.266 -26.369,-12.898 -39.102,-20.181c-10.742,-6.143 -21.42,-12.443 -32.537,-17.894c-7.115,-3.486 -18.255,-10.124 -26.469,-7.261c-0.797,0.279 -0.764,1.295 -0.001,1.584Z" style="fill:#010101;fill-rule:nonzero;"/><path d="M6.56,133.557c6.045,-4.322 11.616,-9.226 17.843,-13.324c7.438,-4.896 15.375,-9.066 23.29,-13.131c16.139,-8.285 32.846,-15.537 48.441,-24.845c9.346,-5.578 18.234,-11.956 27.465,-17.729c10.207,-6.381 20.578,-12.493 31.049,-18.429c10.463,-5.932 21.061,-11.612 31.771,-17.083c5.049,-2.58 10.127,-5.101 15.217,-7.595c2.82,-1.381 5.631,-2.783 8.51,-4.036c2.582,-1.124 4.959,-1.542 7.596,-2.399c8.406,-2.734 3.33,-15.129 -4.723,-11.197c-2.242,1.095 -4.186,2.488 -5.789,4.409c-2.41,2.889 -0.723,6.521 2.883,6.954c2.77,0.333 4.902,0.676 7.629,-0.167c-1.574,-3.731 -3.148,-7.465 -4.723,-11.197c-10.021,6.481 -20.727,11.584 -31.324,17.147c-10.643,5.588 -21.197,11.354 -31.648,17.291c-20.355,11.563 -39.477,24.965 -59.535,36.956c-15.627,9.341 -32.457,16.574 -48.63,24.891c-7.885,4.055 -15.609,8.408 -22.945,13.399c-6.209,4.227 -12.989,9.21 -16.303,16.157c-1.116,2.336 1.363,5.762 3.926,3.928Z" style="fill:#010101;fill-rule:nonzero;"/><path d="M194.083,214.051c10.551,-13.572 25.377,-21.212 39.266,-30.785c19.123,-13.179 37.564,-27.293 55.975,-41.438c16.961,-13.032 33.652,-26.403 50.889,-39.074c8.961,-6.587 18.08,-12.943 27.395,-19.021c4.584,-2.991 9.234,-5.883 13.924,-8.708c2.057,-1.238 4.133,-2.444 6.213,-3.646c2.246,-1.297 5.756,-4.157 8.369,-4.395c8.541,-0.774 6.941,-12.836 -1.57,-11.602c-2.881,0.418 -5.184,1.687 -7.178,3.802c-4.207,4.463 1.186,11.857 6.627,8.589c0.635,-0.449 1.342,-0.713 2.121,-0.79c-1.393,-3.36 -2.783,-6.722 -4.178,-10.083c-3.102,3.868 -9.539,6.205 -13.771,8.779c-4.672,2.84 -9.266,5.808 -13.824,8.823c-9.273,6.13 -18.328,12.6 -27.287,19.178c-18.059,13.262 -35.457,27.38 -53.164,41.098c-18.744,14.521 -37.494,29.114 -57.1,42.47c-13.061,8.896 -32.283,17.826 -37.365,34.089c-0.792,2.523 2.904,4.97 4.658,2.714Z" style="fill:#010101;fill-rule:nonzero;"/><path d="M209.383,6.715c15.402,2.283 30.521,4.319 45.623,8.284c15.551,4.083 30.883,8.944 46.318,13.428c14.686,4.265 29.568,7.823 44.492,11.15c7.275,1.622 14.531,3.317 21.709,5.337c3.816,1.072 7.584,2.307 11.316,3.644c3.268,1.171 8.289,2.447 10.627,5.161c0.967,-3.656 1.932,-7.313 2.896,-10.969c-1.27,0.229 -2.531,0.483 -3.797,0.737c-5.553,1.115 -5.553,10.065 0,11.181c1.266,0.254 2.527,0.509 3.797,0.738c9.412,1.701 11.248,-12.056 1.744,-12.892c-2.824,-0.249 -6.453,-2.646 -9.113,-3.679c-3.678,-1.426 -7.447,-2.604 -11.229,-3.719c-7.691,-2.27 -15.553,-3.956 -23.393,-5.612c-15.537,-3.283 -31.049,-6.619 -46.389,-10.742c-15.523,-4.172 -30.906,-8.89 -46.592,-12.444c-15.129,-3.429 -31.734,-7.061 -47.285,-4.975c-2.733,0.368 -4.071,4.876 -0.724,5.372Z" style="fill:#010101;fill-rule:nonzero;"/><path d="M189.413,176.981c-5.111,-2.154 -9.496,3.578 -11.006,7.626c-0.311,0.831 0.338,2.034 1.234,2.176c6.934,1.088 12.781,-1.396 15.318,-8.195c0.445,-1.193 -0.688,-2.417 -1.848,-2.427c-3.637,-0.031 -8.115,0.389 -10.73,3.188c-0.541,0.581 -0.293,1.482 0.455,1.724c3.342,1.076 6.867,-0.903 10.275,-1.076c-0.617,-0.81 -1.232,-1.618 -1.85,-2.428c-1.688,4.787 -5.859,6.473 -10.682,5.806c0.412,0.725 0.824,1.45 1.236,2.175c0.775,-2.199 1.885,-4.021 3.979,-5.141c1.215,-0.651 2.637,-0.769 3.889,-1.349c1.011,-0.468 0.519,-1.747 -0.27,-2.079Z" style="fill:#010101;fill-rule:nonzero;"/><path d="M49.674,118.515c-4.068,-3.544 -9.814,4.767 -11.104,7.663c-0.592,1.33 0.131,2.497 1.541,2.685c7.201,0.957 12.879,-2.086 15.774,-8.745c0.518,-1.188 0.169,-2.649 -1.229,-3.021c-4.452,-1.182 -8.757,0.354 -10.552,4.705c-0.262,0.635 0.39,1.328 1.007,1.32c3.319,-0.042 5.584,-2.436 9,-1.987c-0.661,-0.867 -1.322,-1.734 -1.982,-2.603c-1.598,5.53 -6.724,7.346 -12.018,6.763c0.572,0.753 1.146,1.506 1.72,2.259c0.939,-2.249 2.36,-4.292 4.337,-5.745c1.113,-0.817 2.564,-1.143 3.506,-2.166c0.28,-0.304 0.338,-0.835 0,-1.128Z" style="fill:#010101;fill-rule:nonzero;"/><path d="M225.59,13.187c-3.791,1.813 -6.002,4.646 -6.266,8.892c-0.063,0.991 0.859,1.761 1.785,1.785c2.355,0.065 4.77,0.131 6.992,-0.771c2.748,-1.116 4.361,-3.495 5.824,-5.953c0.854,-1.431 -0.26,-3.083 -1.816,-3.166c-5.209,-0.277 -12.611,2.115 -13.994,7.83c-0.191,0.791 0.494,1.435 1.268,1.27c2.238,-0.48 4.092,-1.811 6.041,-2.952c2.006,-1.176 4.395,-1.72 6.688,-1.938c-0.605,-1.055 -1.211,-2.111 -1.818,-3.166c-0.836,1.846 -1.861,3.547 -3.682,4.538c-1.574,0.856 -3.775,0.688 -5.5,0.738c0.594,0.595 1.189,1.19 1.785,1.786c0.02,-3.277 1.668,-5.138 3.943,-7.271c0.903,-0.848 -0.242,-2.104 -1.25,-1.622Z" style="fill:#010101;fill-rule:nonzero;"/><path d="M371.625,55.198c-2.279,-1.645 -5.189,-2.366 -7.898,-1.393c-2.996,1.077 -4.561,3.906 -5.607,6.723c-0.365,0.983 0.398,2.362 1.443,2.542c2.645,0.456 5.398,0.968 8.078,0.493c2.834,-0.502 4.926,-2.061 7.059,-3.897c1.625,-1.402 0.174,-3.67 -1.588,-3.831c-4.451,-0.406 -10.186,-1.885 -13.938,1.308c-0.785,0.668 -0.311,1.952 0.586,2.213c4.059,1.188 9.154,1.223 13.352,0.968c-0.529,-1.277 -1.059,-2.555 -1.588,-3.831c-3.105,3.347 -6.619,3.238 -10.863,2.594c0.48,0.848 0.963,1.695 1.443,2.542c1.617,-4.627 4.623,-4.955 9.008,-4.53c1.111,0.106 1.244,-1.374 0.513,-1.901Z" style="fill:#010101;fill-rule:nonzero;"/><path d="M170.997,45.66c-5.078,0.979 -9.688,4.547 -14.08,7.394c-4.965,3.217 -10.281,6.39 -14.658,10.408c-0.572,0.525 -0.67,1.478 -0.273,2.131c0.166,0.277 0.361,0.454 0.631,0.631c0.689,0.457 1.551,0.222 2.129,-0.274c4.631,-3.971 9.836,-7.289 14.92,-10.642c4.098,-2.703 8.75,-5.187 11.752,-8.922c0.274,-0.342 0.024,-0.812 -0.421,-0.726Z" style="fill:#010101;fill-rule:nonzero;"/><path d="M167.112,47.144c7.729,0.901 14.67,2.972 21.266,7.188c0,-0.836 0,-1.673 0,-2.511c-4.719,3.153 -10.361,3.556 -15.85,2.748c-1.971,-0.29 -2.764,2.322 -0.832,3.015c3.742,1.341 9.129,3.365 10.732,7.426c1.889,4.781 -8.02,6.846 -10.881,6.835c-4.395,-0.017 -8.855,-1.271 -13.117,-2.244c-2.816,-0.643 -6.262,-1.938 -9.035,-0.749c-0.98,0.421 -0.871,1.994 0,2.449c2.035,1.062 4.557,0.994 6.799,1.431c3.191,0.621 6.357,1.356 9.566,1.903c6.029,1.028 11.223,0.717 16.426,-2.732c10.412,-6.902 -3.406,-15.148 -9.66,-17.333c-0.139,1.023 -0.277,2.047 -0.416,3.07c6.029,0.769 12.58,0.136 17.732,-3.308c0.92,-0.615 0.953,-1.901 0,-2.51c-6.732,-4.306 -14.646,-7.328 -22.732,-6.813c-1.397,0.092 -1.346,1.978 0.002,2.135Z" style="fill:#010101;fill-rule:nonzero;"/><path d="M215.485,63.439c-9.607,-4.097 -26.852,4.157 -28.4,14.947c-1.486,10.356 12.314,15.503 20.225,12.163c7.426,-3.135 14.041,-10.919 15.102,-19.022c1.377,-10.51 -12.09,-6.953 -16.961,-3.583c-1.17,0.811 -0.484,2.863 1.012,2.399c3.389,-1.052 13.576,-5.796 12.285,1.646c-1.023,5.901 -5.939,11.393 -10.92,14.367c-2.689,1.605 -5.824,2.334 -8.91,1.685c-4.059,-0.855 -9.01,-5.034 -8.391,-9.509c1.24,-8.946 16.896,-14.455 24.586,-13.717c0.708,0.07 1.04,-1.089 0.372,-1.376Z" style="fill:#010101;fill-rule:nonzero;"/><path d="M250.84,78.349c-3.967,-3.092 -10.652,-1.655 -15.088,-0.517c-5.229,1.341 -11.654,3.859 -14.941,8.403c-2.664,3.686 -1.631,7.826 1.965,10.457c5.074,3.714 11.354,4.703 17.473,3.84c8.506,-1.2 18.979,-7.936 21.211,-16.721c2.895,-11.389 -15.322,-6.094 -19.402,-2.786c-0.957,0.777 -0.209,2.71 1.055,2.541c2.514,-0.337 16.27,-6.223 14.213,0.49c-1.986,6.485 -10.5,10.985 -16.508,12.468c-4.137,1.021 -8.383,0.538 -12.34,-0.919c-4.463,-1.644 -7.221,-4.86 -3.318,-8.577c6.604,-6.289 16.508,-6.616 24.953,-6.919c0.802,-0.029 1.487,-1.168 0.727,-1.76Z" style="fill:#010101;fill-rule:nonzero;"/><path d="M281.846,87.118c-11.074,4.472 -20.826,11.744 -30.594,18.494c-0.975,0.674 -1.221,2.315 0,2.933c1.615,0.814 3.053,1.337 4.857,1.491c2.498,0.213 2.545,-4.027 0,-3.914c-1.311,0.059 -2.324,-0.229 -3.549,-0.682c0.137,1.035 0.271,2.069 0.406,3.104c9.688,-6.866 19.59,-13.294 29.645,-19.605c0.919,-0.577 0.319,-2.26 -0.765,-1.821Z" style="fill:#010101;fill-rule:nonzero;"/><path d="M272.11,99.851c10.186,0.157 20.725,-0.123 30.59,2.717c0.139,-1.012 0.273,-2.023 0.41,-3.035c-2.572,-0.134 -4.752,-0.032 -7.205,0.8c-0.734,0.25 -0.734,1.242 0,1.491c2.453,0.831 4.633,0.933 7.205,0.8c1.707,-0.088 2.15,-2.574 0.412,-3.036c-10.441,-2.775 -20.777,-1.554 -31.412,-1.283c-0.996,0.025 -0.998,1.531 0,1.546Z" style="fill:#010101;fill-rule:nonzero;"/><path d="M270.297,102.302c0.523,2.399 1.072,4.701 1.355,7.151c0.258,2.194 0.082,4.518 0.539,6.673c0.504,2.377 3.639,1.513 3.893,-0.527c0.293,-2.345 -0.66,-5.143 -1.297,-7.372c-0.662,-2.313 -1.59,-4.837 -3.08,-6.745c-0.562,-0.72 -1.572,0.076 -1.41,0.82Z" style="fill:#010101;fill-rule:nonzero;"/><path d="M168.112,62.199c-4.064,-0.441 -7.979,-1.357 -9.469,3.474c-0.238,0.773 0.275,1.683 1.063,1.873c4.293,1.036 8.531,1.066 12.842,0.117c0.715,-0.157 1.201,-0.882 1.207,-1.585c0.008,-0.686 0.107,-1.322 0.154,-2c0.068,-1.026 -0.873,-1.735 -1.797,-1.797c-2.643,-0.18 -6.154,-0.508 -8.498,0.946c-0.637,0.396 -0.637,1.306 0,1.7c2.344,1.455 5.855,1.126 8.498,0.947c-0.6,-0.6 -1.199,-1.198 -1.797,-1.797c0.045,0.678 0.145,1.314 0.152,2c0.402,-0.528 0.805,-1.058 1.207,-1.585c-3.746,0.903 -7.395,0.945 -11.158,0.116c0.354,0.624 0.709,1.249 1.063,1.873c0.83,-2.893 4.074,-2.319 6.533,-2.525c1.14,-0.096 1.119,-1.636 0,-1.757Z" style="fill:#010101;fill-rule:nonzero;"/><path d="M202.25,72.575c-1.182,2.302 -2.477,6.275 0.436,7.909c3.139,1.76 6.424,-2.385 7.873,-4.561c0.734,-1.103 -0.248,-2.486 -1.447,-2.523c-1.619,-0.049 -3.158,0.145 -4.746,0.428c-1.488,0.265 -3.35,0.274 -4.215,1.688c-0.197,0.32 -0.217,0.806 0,1.124c1.768,2.599 6.475,0.298 8.961,0.115c-0.482,-0.841 -0.967,-1.683 -1.449,-2.523c-0.551,1.049 -2.076,4.101 -3.705,3.787c-1.26,-0.243 -0.068,-4.091 0.113,-4.676c0.334,-1.074 -1.303,-1.778 -1.821,-0.768Z" style="fill:#010101;fill-rule:nonzero;"/><path d="M236.092,82.059c-2.637,2.058 -4.416,3.604 -4.857,7.02c-0.084,0.638 0.416,1.312 0.93,1.621c5.721,3.452 10.896,2.805 15.469,-2.1c1.166,-1.252 0.574,-3.033 -0.949,-3.597c-5.713,-2.115 -14.762,-2.104 -18.645,3.448c-0.527,0.752 0.168,1.931 1.072,1.868c2.383,-0.163 4.688,-1.095 7.025,-1.603c3.109,-0.675 6.35,-0.275 9.402,0.436c-0.316,-1.198 -0.633,-2.397 -0.949,-3.597c-3.113,3.988 -6.209,4.215 -10.531,1.901c0.311,0.54 0.619,1.081 0.93,1.621c0.1,-2.257 1.791,-3.419 3.143,-4.981c1.24,-1.434 -0.596,-3.164 -2.04,-2.037Z" style="fill:#010101;fill-rule:nonzero;"/><path d="M58.111,107.862c5.897,0.705 9.364,4.038 9.303,10.091c-0.043,4.248 -2.59,9.924 -7.16,10.805c-0.771,0.148 -1.329,0.854 -1.559,1.559c-0.038,0.113 -0.075,0.229 -0.111,0.342c-0.176,0.538 0.028,1.144 0.407,1.54c0.093,0.097 0.186,0.192 0.277,0.289c0.739,0.773 1.8,0.771 2.704,0.351c12.072,-5.611 12.566,-29.523 -4.071,-26.516c-0.946,0.169 -0.594,1.444 0.21,1.539Z" style="fill:#010101;fill-rule:nonzero;"/><path d="M206.928,21.184c2.26,4.585 4.867,6.853 9.609,9.074c4.855,2.275 10.34,3.409 15.682,3.575c9.84,0.306 18.406,-5.616 14.824,-16.289c-0.814,-2.43 -4.564,-1.444 -3.865,1.064c5.252,18.814 -29.207,10.938 -35.918,2.318c-0.156,-0.197 -0.429,0.056 -0.332,0.258Z" style="fill:#010101;fill-rule:nonzero;"/><path d="M167.969,183.313c1.895,-5.128 3.318,-8.858 8.721,-11.071c4.354,-1.783 9.279,-1.957 13.918,-1.952c3.941,0.005 7.885,0.29 11.809,0.62c2.799,0.234 4.938,-0.601 5.148,-2.832c0.094,-1.004 -0.994,-1.568 -1.84,-1.401c1.475,1.016 1.854,1.122 1.135,0.318c-0.268,-0.265 -0.58,-0.446 -0.939,-0.549c-0.646,-0.178 -1.359,-0.087 -2.018,-0.086c-1.764,0.003 -3.516,0.215 -5.289,0.153c-5.018,-0.171 -10.006,-0.333 -15.004,0.264c-8.316,0.992 -19.576,6.188 -17.357,16.536c0.199,0.935 1.437,0.763 1.716,0Z" style="fill:#010101;fill-rule:nonzero;"/><path d="M358.11,47.012c-7.754,-0.879 -15.092,7.685 -17.051,14.406c-0.877,3.007 -0.406,6.161 1.684,8.52c2.762,3.118 7.268,2.304 10.885,2.354c2.854,0.04 2.852,-4.386 0,-4.426c-1.455,-0.021 -2.936,0.339 -4.119,1.181c-0.766,0.544 -0.766,1.521 0,2.063c1.184,0.842 2.664,1.201 4.119,1.182c2.852,-0.04 2.854,-4.465 0,-4.426c-2.639,0.036 -5.719,1.125 -7.988,-0.823c-1.875,-1.608 -0.871,-4.911 -0.074,-6.785c2.531,-5.957 7.631,-8.58 13.084,-11.258c1.056,-0.521 0.403,-1.881 -0.54,-1.988Z" style="fill:#010101;fill-rule:nonzero;"/><path d="M62.704,135.775c7.57,3.492 15.594,6.099 23.326,9.22c9.402,3.796 18.656,7.925 27.826,12.251c16.439,7.757 33.424,15.991 48.143,26.737c2.283,1.668 4.584,-2.206 2.229,-3.813c-1.436,-0.979 -2.99,-1.305 -4.65,-1.777c-1.949,-0.555 -2.996,2.148 -1.346,3.191c1.053,0.665 2.381,1.228 3.32,2.054c0.893,-1.156 1.783,-2.313 2.676,-3.468c-16.236,-8.723 -32.049,-17.868 -48.857,-25.512c-8.348,-3.796 -16.828,-7.307 -25.338,-10.718c-8.707,-3.489 -17.6,-7.332 -26.703,-9.645c-0.865,-0.215 -1.484,1.086 -0.626,1.48Z" style="fill:#010101;fill-rule:nonzero;"/><path d="M248.875,22.482c17.043,9.263 34.525,17.019 53.021,22.949c12.775,4.096 25.951,6.192 39.213,7.955c2.518,0.334 2.805,-3.142 1.166,-4.302c-3.43,-2.428 -10.555,-1.75 -14.531,-1.97c-8.168,-0.452 -15.494,-1.63 -23.432,-3.852c-18.848,-5.272 -37.457,-12.879 -54.967,-21.591c-0.536,-0.265 -1.005,0.52 -0.47,0.811Z" style="fill:#010101;fill-rule:nonzero;"/><path d="M212.485,168.716c4.332,-2.123 8.332,-5.056 12.586,-7.369c4.615,-2.511 9.275,-4.938 13.936,-7.368c8.543,-4.451 17.365,-8.928 24.547,-15.459c1.953,-1.775 -0.928,-4.618 -2.883,-2.883c-7.445,6.599 -16.004,11.544 -24.697,16.305c-8.014,4.392 -18.27,8.599 -24.383,15.614c-0.561,0.642 0.13,1.533 0.894,1.16Z" style="fill:#010101;fill-rule:nonzero;"/><path d="M319.715,96.109c6.033,-3.354 11.863,-7.209 17.365,-11.375c-0.775,-0.1 -1.553,-0.199 -2.326,-0.3c0.111,0.145 0.225,0.288 0.336,0.433c-0.156,-0.594 -0.313,-1.187 -0.469,-1.778c-0.068,0.174 -1.146,1.185 -1.225,1.277c-0.57,0.688 -0.057,2.089 0.98,1.684c1.232,-0.48 2.248,-0.33 3.297,-1.183c0.467,-0.38 0.668,-1.223 0.471,-1.778c-0.061,-0.174 -0.123,-0.347 -0.184,-0.521c-0.508,-1.436 -2.063,-1.793 -3.209,-0.847c-5.328,4.396 -11.07,8.234 -16.488,12.512c-1.095,0.866 0.306,2.513 1.452,1.876Z" style="fill:#010101;fill-rule:nonzero;"/><path d="M74.223,107.484c4.545,-1.643 8.787,-5.25 12.996,-7.777c4.504,-2.706 8.943,-5.516 13.422,-8.264c4.439,-2.725 8.883,-5.445 13.373,-8.086c2.047,-1.204 4.111,-2.38 6.205,-3.5c0.738,-0.395 1.477,-0.772 2.26,-1.064c2.164,-0.805 -1.078,-2.135 -1.063,-2.182c-0.609,1.784 1.707,2.787 2.938,1.711c3.145,-2.755 -1.49,-4.303 -3.885,-3.055c-5.586,2.915 -10.932,6.28 -16.271,9.616c-5.172,3.229 -10.303,6.521 -15.465,9.764c-3.846,2.415 -7.697,4.892 -11.32,7.63c-1.842,1.394 -3.51,2.495 -3.723,4.801c-0.025,0.263 0.289,0.495 0.533,0.406Z" style="fill:#010101;fill-rule:nonzero;"/><path d="M191.366,38.005c5.475,-0.785 12.373,-4.526 16.154,-8.518c-0.646,0.172 -1.293,0.343 -1.939,0.514c0.082,0.022 0.164,0.046 0.246,0.068c-0.459,-0.46 -0.92,-0.92 -1.381,-1.381c-0.25,-1.022 -0.832,0.142 -1.205,0.52c-0.705,0.713 -0.295,1.723 0.543,2.057c1.635,0.651 4.174,-0.825 4.475,-2.575c0.139,-0.798 -0.053,-1.864 -0.908,-2.231c-0.076,-0.034 -0.154,-0.067 -0.232,-0.102c-0.883,-0.379 -1.672,-0.341 -2.416,0.313c-2.252,1.976 -4.428,3.847 -6.975,5.452c-2.309,1.454 -4.904,2.523 -7.102,4.128c-0.911,0.663 -0.344,1.91 0.74,1.755Z" style="fill:#010101;fill-rule:nonzero;"/></g></svg>