<?xml version="1.0" encoding="UTF-8" standalone="no"?><!DOCTYPE svg PUBLIC "-//W3C//DTD SVG 1.1//EN" "http://www.w3.org/Graphics/SVG/1.1/DTD/svg11.dtd"><svg width="100%" height="100%" viewBox="0 0 496 413" version="1.1" xmlns="http://www.w3.org/2000/svg" xmlns:xlink="http://www.w3.org/1999/xlink" xml:space="preserve" style="fill-rule:evenodd;clip-rule:evenodd;stroke-linejoin:round;stroke-miterlimit:1.41421;"><g id="box"><path d="M248.524,133.755c8.21,-0.012 16.742,-3.243 24.602,-5.354c14.033,-3.769 27.957,-7.968 41.889,-12.1c32.47,-9.631 64.849,-19.563 97.309,-29.226c9.35,-2.784 18.66,-5.753 28.059,-8.365c3.281,-0.913 6.563,-1.83 9.84,-2.755c1.146,-0.324 2.299,-0.601 3.456,-0.877c0.519,-0.124 1.034,-0.249 1.553,-0.375c1.117,-0.271 -2.364,0.448 -0.528,0.095c3.783,-0.729 7.053,-2.693 8.754,-6.312c1.489,-3.166 0.881,-8.531 -3.559,-8.876c-1.75,-0.136 -3.419,-0.23 -5.17,-0.088c-2.6,0.212 -4.379,1.765 -6.654,2.741c-3.127,1.344 -8.003,6.871 -3.303,9.607c3.638,2.117 5.463,3.261 9.932,2.927c-0.262,-4.656 -0.522,-9.313 -0.785,-13.97c-1.891,0.898 2.037,-0.84 0.265,-0.11c-0.647,0.266 -1.295,0.53 -1.942,0.794c-1.806,0.736 -3.643,1.378 -5.479,2.032c-4.928,1.753 -9.86,3.467 -14.832,5.091c-14,4.571 -28.017,9.097 -42.039,13.6c-32.233,10.352 -64.721,20.013 -97.202,29.556c-14.413,4.233 -29.264,7.722 -43.394,12.81c-4.146,1.493 -7.311,9.165 -0.772,9.155Z" style="fill:#010101;fill-rule:nonzero;"/><path d="M53.244,55.246c8.712,5.348 18.447,9.116 27.833,13.116c9.528,4.061 19.093,8.04 28.725,11.845c19.821,7.831 39.466,15.911 59.091,24.206c15.504,6.553 31.217,12.612 46.839,18.879c4.702,1.886 9.397,3.79 14.051,5.793c2.156,0.929 4.266,1.844 6.247,3.109c0.736,0.471 1.396,1.011 2.219,1.308c2.334,0.843 1.145,1.529 -0.269,-1.45c-0.067,-1.203 -0.134,-2.405 -0.201,-3.608c-0.007,0.039 -0.014,0.078 -0.021,0.117c1.118,-1.815 2.235,-3.633 3.354,-5.449c1.598,-0.751 3.195,-1.503 4.792,-2.254c-3.61,0.609 -6.771,2.632 -8.372,6.035c-1.464,3.112 -0.81,8.042 3.403,8.49c6.995,0.745 15.921,-6.836 10.695,-13.825c-2.833,-3.789 -9.403,-4.912 -13.597,-6.545c-14.569,-5.675 -29.372,-10.745 -43.97,-16.349c-22.275,-8.551 -44.21,-17.862 -66.545,-26.273c-11.622,-4.376 -23.272,-8.676 -34.896,-13.05c-11.336,-4.266 -22.547,-9.271 -34.196,-12.609c-4.074,-1.169 -9.584,5.81 -5.182,8.514Z" style="fill:#010101;fill-rule:nonzero;"/><path d="M54.069,48.746c-8.182,1.645 -15.39,9.441 -21.59,14.663c-7.334,6.175 -14.592,13.049 -22.587,18.361c-3.355,2.23 -6.88,6.393 -5.208,10.755c2.08,5.429 8.709,3.15 12.042,0.641c-1.609,1.212 2.027,-1.468 2.37,-1.75c4.662,-3.86 4.649,-11.801 -2.549,-11.838c-3.353,-0.019 -6.045,1.544 -8.601,3.584c3.471,2.752 6.94,5.504 10.411,8.256c6.478,-7.081 14.385,-13.167 21.464,-19.643c5.853,-5.354 14.834,-11.935 16.999,-19.895c0.451,-1.655 -0.956,-3.496 -2.751,-3.134Z" style="fill:#010101;fill-rule:nonzero;"/><path d="M244.397,127.704c-4.893,2.765 -8.449,8.522 -11.97,12.808c-4.125,5.019 -8.433,9.906 -12.788,14.725c-4.307,4.765 -8.699,9.46 -13.161,14.079c-1.978,2.047 -3.944,4.104 -5.9,6.171c-1.332,1.407 -2.797,2.697 -3.638,4.483c0.018,-0.036 -1.087,5.215 -0.703,2.769c-0.456,2.9 0.703,5.726 3.855,6.311c4.237,0.785 7.748,-2.32 9.734,-5.675c1.189,-2.007 1.522,-4.1 1.475,-6.406c-0.146,-6.831 -8.946,-3.768 -11.479,-0.558c-0.714,0.904 -1.251,1.882 -1.924,2.813c4.229,0.205 8.457,0.411 12.687,0.616c-0.075,-0.318 -0.109,-0.641 -0.104,-0.967c-0.595,1.729 -1.188,3.458 -1.783,5.188c7.354,-8.97 15.105,-17.592 22.522,-26.507c3.739,-4.494 7.276,-9.104 10.595,-13.917c2.715,-3.938 6.922,-9.472 6.608,-14.463c-0.134,-2.137 -2.525,-2.32 -4.026,-1.47Z" style="fill:#010101;fill-rule:nonzero;"/><path d="M0.774,96.413c13.454,10.964 30.386,17.941 45.924,25.47c16.351,7.921 32.949,15.276 49.636,22.458c16.719,7.197 33.531,14.175 50.354,21.124c16.611,6.861 33.8,13.001 49.939,20.917c2.058,-4.351 4.115,-8.698 6.174,-13.048c-2.492,-0.047 -4.844,0.242 -7.318,0.482c-3.967,0.39 -8.867,5.515 -5.808,9.438c2.595,3.329 6.216,3.763 10.199,3.737c6.619,-0.042 12.673,-10.897 4.645,-13.579c-16.657,-5.563 -32.909,-12.843 -49.249,-19.278c-17.01,-6.7 -34.001,-13.45 -50.919,-20.38c-16.902,-6.923 -33.722,-14.064 -50.465,-21.361c-16.25,-7.082 -32.176,-16.051 -49.181,-21.135c-2.168,-0.649 -6.204,3.301 -3.931,5.155Z" style="fill:#010101;fill-rule:nonzero;"/><path d="M247.484,129.393c-3.075,11.449 6.589,24.624 12.642,33.515c7.56,11.104 16.477,21.5 21.326,34.179c2.895,7.564 14.922,0.096 14.104,-6.238c-0.547,-4.234 -3.294,-8.281 -7.793,-8.83c-3.084,-0.377 -5.916,1.531 -7.275,4.24c-0.964,1.92 -1.425,3.493 -1.053,5.633c0.229,1.326 1.48,2.566 1.686,3.586c4.7,-2.08 9.401,-4.159 14.104,-6.238c-5.49,-11.739 -13.948,-21.701 -22.125,-31.628c-4.122,-5.003 -8.047,-10.141 -11.664,-15.521c-3.17,-4.718 -4.805,-10.889 -8.655,-15.068c-1.818,-1.973 -4.779,0.444 -5.297,2.37Z" style="fill:#010101;fill-rule:nonzero;"/><path d="M462.358,64.633c-5.654,7.427 1.486,20.867 5.111,27.76c5.305,10.084 13.617,19.053 17.708,29.71c3.231,-2.307 6.464,-4.614 9.694,-6.921c-2.352,-2.382 -3.449,-2.027 -6.416,-2.394c-1.707,-0.211 -3.076,1.028 -3.566,2.571c0.021,0.027 0.046,0.054 0.068,0.08c-0.892,1.239 -1.869,3.371 -1.053,4.908c0.563,1.057 1.061,1.933 1.896,2.794c4.283,4.406 12.332,-3.036 9.069,-7.96c-5.777,-8.721 -11.593,-17.377 -17.557,-25.982c-3.001,-4.33 -5.634,-8.886 -7.854,-13.662c-1.605,-3.455 -1.986,-9.289 -5.259,-11.518c-0.593,-0.405 -1.482,0.143 -1.841,0.614Z" style="fill:#010101;fill-rule:nonzero;"/><path d="M286.562,199.781c7.835,-0.599 15.794,-4.415 23.075,-7.172c7.974,-3.016 15.894,-6.162 23.781,-9.393c16.522,-6.767 32.953,-13.755 49.485,-20.5c16.517,-6.738 33.152,-13.174 50.045,-18.912c8.082,-2.746 16.236,-5.276 24.445,-7.616c8.614,-2.457 17.737,-5.27 26.676,-6.117c5.042,-0.478 11.685,-10.38 4.021,-11.751c-4.711,-0.842 -10.244,0.399 -14.229,2.984c-2.69,1.746 -5.593,7.351 -0.692,8.457c3.267,0.737 7.596,0.857 10.901,0.311c0.321,-3.834 0.644,-7.669 0.964,-11.503c-8.074,2.588 -16.513,4.184 -24.679,6.504c-8.806,2.505 -17.537,5.234 -26.208,8.169c-16.909,5.722 -33.535,12.267 -50.059,19.012c-16.547,6.756 -32.979,13.794 -49.491,20.637c-7.908,3.277 -15.826,6.533 -23.771,9.723c-8.095,3.25 -17.295,5.783 -24.639,10.551c-2.392,1.551 -4.253,6.97 0.375,6.616Z" style="fill:#010101;fill-rule:nonzero;"/><path d="M53.646,50.387c17.452,-1.361 34.818,-6.426 52.028,-9.631c17.669,-3.29 35.355,-6.446 53.073,-9.461c17.72,-3.017 35.471,-5.838 53.19,-8.847c8.841,-1.502 17.671,-3.069 26.488,-4.707c7.734,-1.438 15.937,-4.089 23.785,-4.462c6.909,-0.328 11.325,-13.049 2.622,-12.234c-3.375,0.315 -5.934,0.769 -8.964,2.28c-2.902,1.448 -4.815,5.867 -1.726,8.052c2.091,1.477 4.007,1.583 6.528,1.832c3.583,0.354 7.015,-1.717 8.551,-4.983c1.159,-2.463 0.729,-6.936 -2.852,-7.108c-7.547,-0.368 -15.823,2.795 -23.203,4.354c-8.955,1.89 -17.935,3.662 -26.922,5.391c-18.387,3.537 -36.817,6.816 -55.267,10.016c-17.553,3.043 -35.128,6.051 -52.59,9.59c-18.063,3.66 -37.153,6.532 -54.219,13.644c-2.55,1.06 -5.16,6.637 -0.522,6.274Z" style="fill:#010101;fill-rule:nonzero;"/><path d="M267.825,5.158c13.7,6.063 28.063,10.876 41.989,16.439c15.173,6.063 30.973,9.76 46.638,14.267c32.305,9.294 64.006,20.537 95.611,31.939c2.387,-3.921 4.773,-7.843 7.159,-11.764c-3.705,-0.202 -7.151,-1.046 -10.878,-0.579c-3.279,0.411 -8.053,4.896 -5.109,8.302c2.701,3.126 6.157,4.24 10.216,4.523c6.285,0.439 14.095,-9.425 5.771,-12.246c-31.744,-10.765 -63.575,-21.328 -95.919,-30.169c-16.057,-4.39 -32.086,-8.152 -47.854,-13.535c-14.757,-5.038 -29.791,-11.62 -45.645,-11.364c-1.603,0.027 -4.205,3.201 -1.979,4.187Z" style="fill:#010101;fill-rule:nonzero;"/><path d="M38.576,120.386c-3.559,15.803 0.223,32.844 2.03,48.7c1.983,17.396 1.455,34.81 1.069,52.276c-0.783,35.424 -2.268,70.835 -2.641,106.268c4.201,-1.347 8.402,-2.694 12.604,-4.041c-0.341,-4.345 -1.965,-6.759 -6.214,-7.814c-2.831,-0.704 -6.171,2.108 -6.655,4.8c-0.464,2.582 0.068,4.541 0.266,7.057c0.647,8.254 12.663,2.322 12.604,-4.041c-0.321,-34.594 0.63,-69.168 0.907,-103.758c0.134,-16.75 0.516,-33.468 -1.676,-50.107c-1.073,-8.153 -2.437,-16.267 -3.553,-24.416c-1.188,-8.677 -1.62,-17.438 -3.163,-26.049c-0.615,-3.441 -5.029,-1.311 -5.578,1.125Z" style="fill:#010101;fill-rule:nonzero;"/><path d="M246.708,133.858c-4.205,8.616 -5.244,18.603 -6.06,28.05c-0.873,10.11 -0.729,20.34 -0.432,30.476c0.604,20.496 2.231,40.899 1.964,61.417c-0.63,48.207 -6.176,96.245 -6.373,144.455c4.353,-1.396 8.705,-2.79 13.058,-4.187c-0.485,-4.404 -2.305,-6.567 -6.318,-8.145c-3.875,-1.521 -7.867,1.881 -8.053,5.789c-0.117,2.494 1.043,4.227 1.313,6.541c1.003,8.613 13.066,2.345 13.058,-4.187c-0.063,-46.582 3.767,-93.046 3.647,-139.618c-0.052,-20.526 -1.997,-41.021 -2.968,-61.515c-0.49,-10.345 -0.783,-20.712 -0.469,-31.066c0.285,-9.35 1.604,-18.973 1.079,-28.291c-0.118,-2.125 -2.879,-0.881 -3.446,0.281Z" style="fill:#010101;fill-rule:nonzero;"/><path d="M464.806,129.287c-4.017,16.438 -4.373,33.811 -5.189,50.66c-0.833,17.173 -1.302,34.367 -1.884,51.551c-1.184,34.921 -2.086,69.846 -3.882,104.743c3.13,-2.746 6.261,-5.492 9.391,-8.24c-1.739,-0.217 -3.022,-1.444 -4.593,-2.211c-3.092,-1.508 -7.883,1.328 -8.205,4.77c-0.484,5.174 1.334,9.146 6.989,9.766c4.842,0.528 9.218,-3.431 9.391,-8.24c1.224,-34.064 1.802,-68.156 2.187,-102.239c0.19,-17.046 0.457,-34.094 0.582,-51.14c0.121,-16.539 1.201,-33.708 -1.691,-50.043c-0.343,-1.927 -2.771,-0.707 -3.096,0.623Z" style="fill:#010101;fill-rule:nonzero;"/><path d="M236.746,410.92c8.7,-1.303 16.979,-6.001 25.087,-9.24c9.059,-3.619 18.051,-7.36 27.188,-10.788c18.023,-6.762 36.273,-12.874 54.393,-19.375c36.833,-13.217 73.646,-28.36 112.588,-34.122c0.34,-4.044 0.679,-8.088 1.018,-12.132c-3.663,1.013 -7.021,1.696 -10.219,3.879c-2.434,1.659 -6.118,8.096 -0.723,8.813c4.063,0.541 7.633,0.189 11.579,-0.895c5.683,-1.561 9.345,-13.35 1.017,-12.132c-39.586,5.784 -76.863,21.059 -114.163,34.836c-18.686,6.899 -37.487,13.467 -56.056,20.683c-9.048,3.518 -18.015,7.252 -26.89,11.184c-8.76,3.88 -18.817,8.013 -25.797,14.742c-1.367,1.317 -2.06,5.002 0.978,4.547Z" style="fill:#010101;fill-rule:nonzero;"/><path d="M38.318,326.725c7.807,11.26 23.438,16.564 35.635,21.324c15.295,5.968 30.639,11.547 45.666,18.182c38.354,16.934 75.724,36.469 116.806,46.111c1.941,-4.12 3.885,-8.241 5.827,-12.361c-5.567,-1.258 -11.293,-2.979 -17.04,-2.62c-3.299,0.206 -8.307,5.216 -5.218,8.477c4.186,4.415 10.748,5.223 16.43,6.506c6.61,1.493 14.019,-10.438 5.827,-12.361c-40.12,-9.417 -77.034,-28.069 -114.69,-44.231c-14.735,-6.325 -29.771,-11.521 -44.849,-16.948c-13.411,-4.827 -27.111,-9.949 -39.162,-17.688c-2.945,-1.893 -7.156,2.832 -5.232,5.609Z" style="fill:#010101;fill-rule:nonzero;"/><path d="M265.258,2.331c-2.046,9.59 -1.505,19.962 -2.212,29.727c-0.749,10.356 -1.729,20.696 -2.538,31.048c-1.632,20.831 -2.479,41.755 0.215,62.536c0.792,6.11 9.186,1.628 9.227,-2.958c0.035,-3.938 -0.104,-7.03 -3.368,-9.486c-2.113,-1.591 -5.083,1.375 -5.563,3.234c-0.792,3.058 -0.352,6.074 -0.294,9.21c3.076,-0.986 6.151,-1.972 9.227,-2.958c-3.125,-20.613 -2.613,-41.407 -1.402,-62.155c0.6,-10.27 1.336,-20.526 1.781,-30.806c0.4,-9.227 1.653,-19.738 -0.969,-28.714c-0.657,-2.245 -3.807,-0.071 -4.104,1.322Z" style="fill:#010101;fill-rule:nonzero;"/></g></svg>