<?xml version="1.0" encoding="UTF-8" standalone="no"?><!DOCTYPE svg PUBLIC "-//W3C//DTD SVG 1.1//EN" "http://www.w3.org/Graphics/SVG/1.1/DTD/svg11.dtd"><svg width="100%" height="100%" viewBox="0 0 556 310" version="1.1" xmlns="http://www.w3.org/2000/svg" xmlns:xlink="http://www.w3.org/1999/xlink" xml:space="preserve" style="fill-rule:evenodd;clip-rule:evenodd;stroke-linejoin:round;stroke-miterlimit:1.41421;"><g id="breeze"><path d="M125.383,146.799c25.743,-11.158 53.41,-18.621 81.51,-19.938c29.356,-1.377 58.437,5.457 84.477,18.926c22.557,11.666 41.526,28.883 61.172,44.705c19.629,15.807 40.447,29.943 64.596,37.803c32.743,10.658 73.581,16.682 105.256,-0.188c17.791,-9.475 30.225,-28.221 32.669,-48.176c2.926,-23.889 -14.766,-41.539 -36.064,-48.482c-11.611,-3.784 -25.802,-3.832 -36.442,2.729c-9.272,5.717 -14.482,15.438 -14.718,26.211c-0.188,8.592 3.942,17.094 10.666,22.316c8.094,6.287 19.771,4.748 27.957,-0.545c3.409,-2.207 8.011,-7.354 5.756,-11.887c-0.968,-1.947 -1.873,-3.166 -3.745,-4.326c-0.859,-0.438 -1.762,-0.693 -2.707,-0.771c-2.282,-0.004 -2.813,-0.053 -1.593,-0.148c1.126,0.619 2.253,1.236 3.38,1.854c-0.189,-0.158 -0.38,-0.316 -0.569,-0.475c-7.132,-5.971 -21.195,5.615 -14.445,12.676c1.199,1.254 2.2,1.9 3.887,2.383c0.519,0.15 1.763,0.891 1.062,0.34c-0.855,-0.973 -1.71,-1.947 -2.564,-2.922c0.127,0.344 0.253,0.689 0.38,1.033c1.919,-3.963 3.837,-7.926 5.756,-11.887c-0.792,0.422 -1.585,0.838 -2.389,1.238c1.881,-0.938 -0.444,0.063 -0.771,0.166c-2.361,0.748 1.699,-0.18 -0.637,0.137c-0.315,0.043 -2.627,0.068 -0.604,0.164c-0.746,-0.035 -4.063,-0.969 -2.499,-0.367c-0.831,-0.32 -3.856,-2.377 -2.75,-1.449c-4.202,-3.525 -5.545,-7.736 -5.731,-12.553c-0.026,-0.693 0.009,-1.388 0.045,-2.08c-0.102,1.959 0.121,-0.285 0.177,-0.594c0.123,-0.682 0.313,-1.348 0.503,-2.014c-0.611,2.135 0.063,0.019 0.244,-0.388c0.213,-0.474 1.439,-2.401 0.084,-0.304c0.387,-0.598 0.842,-1.146 1.295,-1.693c-1.713,2.066 -0.196,0.303 0.275,-0.107c1.201,-1.043 -1.441,0.789 1.051,-0.615c2.299,-1.297 -1.793,0.623 0.793,-0.348c0.848,-0.318 1.728,-0.541 2.604,-0.764c-0.042,0.01 3.549,-0.342 4.846,-0.379c4.576,-0.131 9.58,0.898 13.885,2.408c9.02,3.162 17.879,9.117 22.621,17.617c4.984,8.932 3.989,18.635 0.383,27.867c-1.664,4.26 -3.146,6.797 -5.576,10.047c-0.611,0.816 -1.273,1.592 -1.935,2.367c-2.109,2.473 1.328,-1.283 -0.962,0.984c-0.707,0.699 -1.457,1.355 -2.205,2.01c-0.266,0.232 -3.262,2.561 -1.762,1.49c-6.491,4.627 -13.195,7.133 -20.628,8.607c-17.385,3.447 -35.458,1.645 -52.688,-1.781c-19.905,-3.959 -38.363,-10.797 -55.726,-21.424c-21.862,-13.383 -41.099,-30.625 -61.853,-45.579c-22.647,-16.319 -47.719,-28.536 -75.142,-34.306c-22.319,-4.693 -45.836,-4.695 -68.194,-0.291c-11.298,2.227 -22.249,5.754 -32.945,10c-10.867,4.314 -20.646,9.99 -30.362,16.457c-1.925,1.281 -2.285,5.616 0.876,4.246Z" style="fill:#010101;fill-rule:nonzero;"/><path d="M81.209,114.159c11.646,-5.846 22.592,-12.971 34.446,-18.482c11.688,-5.436 23.94,-9.75 36.4,-13.02c24.88,-6.53 51.195,-8.043 76.726,-5.3c24.701,2.654 49.498,9.217 71.887,20.042c21.88,10.579 42.557,23.354 65.9,30.648c23.338,7.295 47.724,5.201 67.231,-10.313c15.802,-12.567 23.979,-32.396 23.269,-52.343c-0.648,-18.141 -9.041,-36.298 -22.195,-48.731c-14.53,-13.733 -37.246,-21.392 -56.209,-12.642c-17.832,8.229 -31.168,31.662 -22.377,50.795c8.373,18.225 32.844,17.213 45.518,4.428c3.859,-3.893 6.687,-12.182 -0.88,-13.926c-4.972,-1.145 -9.356,-0.686 -14.113,1.145c-3.151,1.213 -10.181,9.178 -3.955,11.502c3.478,1.297 6.537,3.066 10.143,4.17c-0.293,-4.643 -0.587,-9.285 -0.88,-13.926c-2.762,2.488 -4.471,3.438 -8.572,3.546c-3.285,0.087 -6.708,-2.218 -8.904,-4.729c-5.952,-6.801 -3.024,-18.789 2.882,-24.549c12.63,-12.318 34.509,-0.717 44.622,9.527c11.484,11.631 18.471,29.145 17.022,45.363c-1.622,18.16 -12.491,31.895 -30.519,36.613c-21.582,5.652 -45.739,-6.467 -64.448,-15.824c-21.702,-10.857 -42.423,-22.091 -65.879,-28.846c-50.927,-14.67 -106.824,-10.379 -155.137,11.027c-16.147,7.154 -33.067,17.28 -44.675,30.75c-1.865,2.165 0.455,4.201 2.697,3.075Z" style="fill:#010101;fill-rule:nonzero;"/><path d="M63.92,240.737c7.908,-7.076 15.51,-14.572 23.947,-21.027c8.383,-6.414 17.716,-11.637 27.266,-16.09c19.401,-9.049 40.928,-14.191 62.138,-16.535c21.501,-2.377 43.27,-1.803 64.579,1.953c16.755,2.953 37.858,7.555 50.854,18.027c13.78,11.105 24.04,27.273 29.204,44.105c2.335,7.609 3.016,15.766 1.441,22.818c-0.7,3.139 -1.924,5.49 -3.323,7.459c-0.576,0.811 -1.226,1.566 -1.873,2.32c1.599,-1.861 -0.698,0.576 -0.906,0.766c-0.787,0.721 -1.638,1.369 -2.484,2.018c1.546,-1.182 -2.015,1.135 -2.38,1.344c-0.091,0.051 -3.558,1.613 -1.484,0.779c-0.958,0.385 -1.955,0.666 -2.947,0.949c-1.022,0.291 -2.841,0.502 -4.947,0.645c-4.535,0.305 -9.134,-0.576 -13.684,-1.818c-8.878,-2.426 -16.852,-8.031 -22.113,-15.541c-2.276,-3.248 -3.289,-7.102 -3.446,-10.998c-0.052,-1.283 0.208,-2.846 0.712,-4.725c-0.483,1.805 0.48,-0.965 0.554,-1.119c0.588,-1.08 0.575,-1.098 -0.038,-0.053c0.338,-0.504 0.696,-0.992 1.074,-1.467c1.807,-2.359 -1.68,1.543 0.471,-0.477c0.373,-0.352 2.742,-2.039 0.446,-0.475c0.735,-0.502 1.525,-0.918 2.312,-1.332c-2.14,1.129 0.354,-0.104 0.768,-0.25c0.237,-0.084 3.043,-0.775 0.923,-0.361c0.868,-0.17 1.749,-0.244 2.627,-0.316c0.144,-0.012 2.965,0.057 1.142,-0.068c1.171,0.08 2.322,0.32 3.462,0.586c4.327,1.002 6.979,5.086 10.162,9.535c-0.456,-2.113 -0.911,-4.229 -1.366,-6.344c-0.07,0.26 -0.141,0.521 -0.21,0.781c2.145,-2.783 4.289,-5.566 6.434,-8.352c-0.154,0.074 -0.309,0.146 -0.463,0.219c2.371,-0.482 4.741,-0.965 7.112,-1.447c-2.535,-0.521 -4.744,-0.873 -7.296,0.162c-3.958,1.604 -7.45,4.543 -8.387,8.916c-0.97,4.521 2.27,8.438 6.975,7.947c0.22,-0.023 0.438,-0.045 0.656,-0.068c-1.39,-0.262 -2.78,-0.523 -4.17,-0.783c7.352,3.77 13.318,0.387 17.476,-6.527c3.326,-5.535 -1.722,-12.326 -5.662,-16.025c-6.506,-6.107 -15.711,-8.469 -24.447,-7.088c-21.247,3.355 -36.031,24.619 -29.038,45.541c6.849,20.486 30.734,30.633 50.741,30.85c21.271,0.23 40.021,-15.826 45.578,-35.801c4.976,-17.885 -1.822,-37.877 -10.815,-53.291c-8.863,-15.191 -21.4,-29.553 -37.925,-36.469c-40.604,-16.994 -86.75,-18.697 -129.502,-10.014c-21.074,4.279 -41.415,12.004 -59.976,22.873c-17.214,10.08 -35.382,23.73 -44.614,41.832c-1.638,3.201 2.379,4.282 4.442,2.436Z" style="fill:#010101;fill-rule:nonzero;"/><path d="M0.723,181.493c14.646,11.264 35.994,4.574 51.268,-1.879c18.014,-7.611 34.289,-18.668 51.859,-27.157c5.996,-2.897 8.442,-14.729 -0.791,-14.085c-5.605,0.393 -9.939,2.901 -13.479,7.199c-2.435,2.957 -2.353,8.08 2.013,9.016c3.037,0.65 5.252,-0.557 8.166,-0.813c-0.264,-4.695 -0.527,-9.391 -0.791,-14.085c-15.635,7.872 -29.796,18.269 -45.191,26.577c-7.886,4.256 -16.051,7.951 -24.721,10.291c-8.515,2.299 -17.823,2.482 -26.582,2.061c-1.374,-0.067 -3.246,1.726 -1.751,2.875Z" style="fill:#010101;fill-rule:nonzero;"/><path d="M36.612,132.608c2.448,1.307 4.302,2.223 7.172,2.191c3.275,-0.035 6.488,-1.195 9.453,-2.486c6.265,-2.729 14.481,-6.896 12.776,-15.028c-0.46,-2.194 -3.396,-3.175 -5.312,-2.964c-4.821,0.529 -7.398,3.939 -10.901,6.752c-2.101,1.688 -7.026,5.181 -10.204,5.227c-2.551,0.034 -6.176,4.603 -2.984,6.308Z" style="fill:#010101;fill-rule:nonzero;"/></g></svg>