<?xml version="1.0" encoding="UTF-8" standalone="no"?><!DOCTYPE svg PUBLIC "-//W3C//DTD SVG 1.1//EN" "http://www.w3.org/Graphics/SVG/1.1/DTD/svg11.dtd"><svg width="100%" height="100%" viewBox="0 0 548 501" version="1.1" xmlns="http://www.w3.org/2000/svg" xmlns:xlink="http://www.w3.org/1999/xlink" xml:space="preserve" style="fill-rule:evenodd;clip-rule:evenodd;stroke-linejoin:round;stroke-miterlimit:1.41421;"><g id="broad_bean"><path d="M46.374,104.732c5.262,8.256 11.445,16.014 15.09,25.17c4.746,11.926 4.274,25.512 3.656,38.084c-0.753,15.304 -1.854,30.664 1.139,45.806c2.887,14.608 8.704,28.48 15.056,41.878c12,25.308 25.34,49.33 42.604,71.455c17.421,22.328 37.49,42.696 59.342,60.694c21.664,17.844 45.873,32.03 69.992,46.251c26.131,15.406 52.941,29.749 81.051,41.228c14.318,5.847 28.893,10.63 43.766,14.836c15.078,4.263 30.319,8.01 45.961,9.412c14.756,1.323 29.373,0.168 43.619,-3.915c13.147,-3.77 25.586,-9.643 38.55,-13.959c4.455,-1.483 9.007,-2.756 13.633,-3.576c5.295,-0.94 10.567,-0.371 15.838,-1.037c0.967,-4.512 1.934,-9.023 2.9,-13.535c-3.566,0.713 -6.848,1.432 -9.437,4.188c-1.745,1.858 -3.483,4.329 -2.448,7.027c1.237,3.229 5.098,2.791 7.578,1.524c-2.185,0.291 -2.283,0.53 -0.297,0.718c7.11,1.432 15.157,-10.839 6.307,-13.379c-5.886,-1.689 -13.083,-0.3 -19,0.767c-6.976,1.256 -13.735,3.312 -20.405,5.681c-12.91,4.587 -25.35,10.407 -38.617,13.963c-30.172,8.088 -62.471,-2.002 -91.541,-9.955c-29.262,-8.006 -57.238,-22.166 -83.786,-36.585c-25.535,-13.87 -51.21,-28.562 -75.14,-45.074c-45.49,-31.391 -84.256,-74.861 -109.755,-123.825c-6.911,-13.27 -13.813,-26.553 -19.153,-40.553c-5.635,-14.771 -7.936,-29.529 -7.674,-45.299c0.243,-14.672 1.46,-29.307 -1.162,-43.857c-1.729,-9.595 -5.888,-17.422 -12.215,-24.752c-3.759,-4.354 -8.01,-8.27 -12.019,-12.391c-1.634,-1.679 -4.627,1.138 -3.433,3.01Z" style="fill:#010101;fill-rule:nonzero;"/><path d="M83.184,110.196c3.553,5.785 5.585,12.176 8.056,18.473c2.552,6.501 4.169,13.366 5.364,20.23c2.369,13.612 1.905,27.454 3.689,41.121c3.424,26.223 14.316,50.468 28.304,72.668c30.125,47.814 72.361,87.1 117.96,119.928c23.668,17.04 48.845,31.871 74.111,46.391c24.688,14.188 50.495,26.785 78.335,33.375c29.289,6.934 60.392,5.18 90.182,3.406c7.366,-0.438 14.786,-0.183 22.16,-0.017c7.135,0.162 14.791,-0.079 21.765,1.639c0.566,0.17 0.619,0.175 0.157,0.014c3.515,1.279 -8.895,0.446 2.276,-7.115c-2.15,1.456 -4.438,4.104 -3.356,6.93c0.985,2.571 4.499,2.668 6.507,1.309c2.762,-1.869 5.581,-5.345 3.267,-8.674c-1.226,-1.764 -4.155,-1.999 -6.092,-2.219c-7.817,-0.885 -15.698,-1.107 -23.559,-1.268c-23.326,-0.478 -46.541,2.046 -69.878,1.424c-14.985,-0.4 -29.635,-1.963 -44.181,-5.675c-14.077,-3.592 -27.603,-9.045 -40.722,-15.229c-26.098,-12.301 -51.171,-27.606 -75.583,-42.938c-48.945,-30.738 -93.39,-68.578 -128.873,-114.321c-16.43,-21.181 -30.727,-44.134 -39.084,-69.746c-8.403,-25.754 -5.652,-53.297 -14.593,-78.904c-3.094,-8.86 -7.992,-15.687 -13.69,-23.014c-1.049,-1.35 -3.368,0.836 -2.522,2.212Z" style="fill:#010101;fill-rule:nonzero;"/><path d="M98.636,60.174c-1.86,23.521 2.221,51.609 25.884,63.007c10.711,5.158 23.274,5.558 34.823,7.402c12.399,1.979 23.46,6.148 33.136,14.277c8.929,7.501 16.103,16.933 23.561,25.825c8.429,10.051 17.972,19.031 26.96,28.57c20.257,21.498 39.289,44.106 59.269,65.857c18.393,20.024 37.702,39.632 59.479,56.009c20.226,15.209 42.677,27.173 64.303,40.206c10.829,6.525 21.467,13.369 31.607,20.928c10.381,7.736 19.402,16.613 28.421,25.847c18.762,19.208 39.948,36.5 55.359,58.71c1.128,-1.833 2.257,-3.667 3.386,-5.5c-1.744,-0.146 -3.418,-0.554 -5.022,-1.222c-2.19,-0.772 -5.249,2.214 -3.018,3.982c2.06,1.633 3.416,2.725 5.921,3.434c2.751,0.779 5.825,-3.078 4.169,-5.464c-16.017,-23.077 -38.215,-40.965 -57.62,-61.019c-18.267,-18.878 -39.179,-33.516 -61.645,-46.993c-22.756,-13.649 -46.311,-26.275 -67.146,-42.845c-22.811,-18.142 -42.884,-39.701 -62.335,-61.312c-18.561,-20.621 -36.559,-41.753 -55.83,-61.726c-8.08,-8.374 -16.203,-16.478 -23.675,-25.42c-7.147,-8.555 -14.252,-17.195 -22.964,-24.229c-8.198,-6.618 -17.412,-10.481 -27.657,-12.682c-11.605,-2.493 -23.596,-2.612 -35.04,-5.946c-12.014,-3.502 -20.789,-12.593 -25.76,-23.871c-5.062,-11.48 -5.386,-24.218 -6.457,-36.504c-0.124,-1.435 -2.031,-0.315 -2.109,0.679Z" style="fill:#010101;fill-rule:nonzero;"/><path d="M123.802,193.316c0.701,-10.6 3.24,-21.735 14.279,-25.516c11.391,-3.899 24.062,-0.767 32.411,7.807c9.608,9.865 7.293,22.444 8.556,34.895c1.242,12.246 9.62,18.585 20.194,23.277c4.887,2.17 9.859,4.067 14.482,6.785c5.101,3 9.562,8.456 12.39,13.608c3.585,6.53 3.785,13.756 -2.046,18.866c-6.125,5.367 -15.799,6.641 -23.606,6.147c-11.18,-0.706 -20.734,-5.791 -29.536,-12.412c-12.892,-9.698 -22.523,-23.547 -29.026,-38.156c-3.413,-7.665 -5.93,-15.798 -7.578,-24.021c-0.771,-3.849 -1.288,-7.743 -1.688,-11.646c-0.446,-4.352 -0.274,-8.091 -2.492,-11.961c-1.643,-2.862 -5.647,-1.187 -6.741,1.373c-4.54,10.622 -0.476,24.742 2.366,35.506c3.104,11.759 8.213,22.829 14.707,33.084c11.81,18.647 31.331,35.883 53.987,38.367c17.292,1.896 38.157,-4.725 44.2,-22.578c2.946,-8.706 -1.248,-17.869 -6.367,-24.765c-7.408,-9.979 -17.563,-13.652 -28.427,-18.599c-5.506,-2.507 -11.199,-5.882 -13.464,-11.783c-2.637,-6.87 -1.456,-15.147 -2.205,-22.354c-1.364,-13.138 -10.783,-24.566 -23.161,-28.891c-11.309,-3.952 -25.618,-2.304 -35.056,5.387c-8.876,7.233 -9.597,17.531 -7.493,28c0.178,0.882 1.271,0.219 1.314,-0.42Z" style="fill:#010101;fill-rule:nonzero;"/><path d="M263.005,281.229c-9.794,1.638 -17.598,9.217 -21.588,18.072c-4.271,9.48 -3.204,20.531 0.425,30.011c4.082,10.665 11.812,20.693 18.99,29.444c8.047,9.81 17.366,18.671 27.914,25.75c18.842,12.646 46.237,15.735 62.561,-2.928c16.774,-19.18 1.744,-43.611 -18.759,-51.772c-8.657,-3.447 -18.051,-4.794 -25.853,-10.179c-4.024,-2.777 -7.078,-7.223 -8.595,-11.804c-1.383,-4.176 -1.306,-8.646 -2.957,-12.775c-6.664,-16.665 -41.511,-22.36 -44.701,-0.337c-0.697,4.813 5.041,4.063 7.148,1.348c2.797,-3.604 5.514,-5.783 10.264,-5.506c5.759,0.337 11.161,3.105 15.027,7.299c3.115,3.377 3.24,8.115 4.084,12.377c1.135,5.731 3.874,10.56 7.851,14.822c7.084,7.594 17.536,9.918 27.049,12.904c11.439,3.591 21.563,10.764 25.465,22.56c3.313,10.018 -3.646,18.642 -12.594,22.179c-11.465,4.533 -23.611,1.36 -34.041,-4.219c-11.37,-6.082 -20.93,-15.237 -29.393,-24.837c-7.749,-8.789 -15.631,-18.721 -20.364,-29.511c-3.098,-7.063 -4.196,-14.694 -2.528,-22.249c1.858,-8.414 8.58,-13.421 15.101,-18.299c0.844,-0.631 0.967,-2.597 -0.506,-2.35Z" style="fill:#010101;fill-rule:nonzero;"/><path d="M384.554,385.551c-8.875,1.884 -15.853,9.822 -16.598,18.87c-0.808,9.818 4.136,18.64 10.543,25.71c15.386,16.982 42.62,25.55 64.976,22.727c12.166,-1.537 24.329,-7.31 32.207,-16.832c8.581,-10.376 3.795,-23.697 -7.472,-29.623c-4.969,-2.612 -10.802,-1.829 -16.034,-0.727c-4.581,0.965 -10.117,4.022 -14.867,3.018c-5.49,-1.161 -12.093,-6.664 -17.096,-9.875c-8.202,-5.264 -16.854,-10.882 -26.522,-12.939c-8.576,-1.824 -20.898,2.649 -20.645,12.943c0.086,3.494 4.471,2.802 6.261,1.227c1.795,-1.579 3.628,-3.806 4.864,-4.053c3.109,-0.622 6.473,0.406 9.357,1.502c7.877,2.99 15.035,7.875 22.08,12.408c5.314,3.421 11.015,7.801 17.328,9.134c11.113,2.348 22.646,-9.641 32.315,-0.125c12.009,11.819 -6.513,20.648 -16.69,23.1c-12.049,2.901 -25.737,0.263 -37.117,-4.012c-10.529,-3.955 -20.578,-10.159 -27.854,-18.818c-5.647,-6.722 -10.679,-17.242 -5.269,-25.437c1.767,-2.677 4.444,-4.478 6.915,-6.443c0.909,-0.723 0.521,-2.01 -0.682,-1.755Z" style="fill:#010101;fill-rule:nonzero;"/><path d="M94.336,111.813c3.647,10.848 12.372,16.512 22.767,20.2c11.954,4.241 24.565,6.453 36.768,9.854c14.063,3.919 26.129,10.188 36.98,19.977c10.548,9.514 19.439,20.794 28.238,31.89c18.889,23.818 39.911,45.597 59.83,68.536c9.949,11.458 19.121,23.729 29.545,34.746c8.966,9.475 19.29,17.544 29.57,25.521c15.727,12.202 30.739,25.147 47.422,36.067c16.388,10.727 33.572,20.172 50.239,30.447c16.806,10.361 33.051,21.681 47.151,35.574c11.169,11.003 20.132,23.438 29.95,35.584c2.764,3.418 9.546,-2.965 6.424,-5.637c-7.723,-6.607 -13.407,-15.632 -19.964,-23.347c-7.918,-9.318 -17.205,-17.695 -26.737,-25.32c-20.954,-16.762 -44.7,-29.534 -67.567,-43.412c-11.628,-7.057 -23.04,-14.471 -33.852,-22.735c-11.001,-8.409 -21.57,-17.442 -32.467,-26c-10.811,-8.489 -21.146,-17.478 -30.112,-27.933c-10.126,-11.808 -19.827,-23.965 -30.112,-35.654c-14.513,-16.496 -30.096,-32.08 -43.938,-49.149c-13.028,-16.064 -25.359,-32.317 -40.739,-46.261c-14.214,-12.888 -32.766,-17.841 -51.01,-21.949c-16.842,-3.794 -36.891,-6.182 -47.142,-21.89c-0.402,-0.616 -1.437,0.315 -1.244,0.891Z" style="fill:#010101;fill-rule:nonzero;"/><path d="M174.106,259.763c5.869,7.765 14.8,11.999 24.069,14.309c8.882,2.212 21.866,-1.05 23.564,-11.645c0.804,-5.015 -5.324,-3.006 -6.897,-0.322c-1.937,3.302 -2.905,5.022 -6.73,6.229c-3.667,1.158 -8.09,0.619 -11.771,-0.133c-7.048,-1.438 -15.536,-4.637 -20.955,-9.562c-0.625,-0.566 -1.798,0.439 -1.28,1.124Z" style="fill:#010101;fill-rule:nonzero;"/><path d="M292.651,364.046c7.694,7.152 14.019,14.435 24.632,17.314c4.92,1.335 10.078,0.142 14.485,-2.159c3.89,-2.029 10.602,-7.738 8.897,-12.596c-0.436,-1.242 -1.957,-1.493 -3.061,-1.117c-4.114,1.4 -5.6,5.682 -9.279,7.883c-3.332,1.993 -7.807,1.617 -11.449,1.003c-7.761,-1.31 -17.182,-6.189 -23.146,-11.275c-0.537,-0.459 -1.602,0.462 -1.079,0.947Z" style="fill:#010101;fill-rule:nonzero;"/><path d="M439.501,436.879c6.893,1.894 12.501,2.107 19.237,-0.568c2.087,-0.83 4.484,-3.167 3.527,-5.666c-1.226,-3.194 -5.158,-1.089 -6.646,0.538c-3.354,3.668 -11.055,4.636 -15.709,4.498c-0.572,-0.017 -1.131,0.999 -0.409,1.198Z" style="fill:#010101;fill-rule:nonzero;"/><path d="M165.394,248.488c-7.91,-11.55 -15.021,-24.537 -20.322,-37.477c-2.564,-6.26 -5.155,-13.471 -4.263,-20.343c0.355,-2.743 1.688,-5.041 4.112,-6.389c1.44,-0.801 3.193,-1.002 4.801,-1.149c-0.385,0.035 0.074,-2.669 -1.013,-0.358c-0.22,0.467 -0.204,0.965 -0.245,1.467c-0.119,1.45 1.972,1.169 2.617,0.513c1.087,-1.105 2.243,-1.553 2.892,-3.053c0.294,-0.681 0.42,-1.572 -0.138,-2.171c-4.176,-4.491 -13.284,2.644 -15.403,6.608c-3.229,6.035 -0.944,14.188 1.065,20.203c5.259,15.736 15.066,29.814 25.42,42.566c0.202,0.248 0.652,-0.161 0.477,-0.417Z" style="fill:#010101;fill-rule:nonzero;"/><path d="M283.396,353.561c-4.053,-7.478 -9.622,-13.775 -14.576,-20.645c-2.73,-3.784 -5.086,-7.73 -6.819,-12.068c-1.705,-4.267 -1.646,-8.35 -1.733,-12.827c-0.051,-2.624 -3.846,-0.903 -4.18,0.845c-1.568,8.19 2.97,16.373 7.401,22.902c5.524,8.138 12.695,15.044 19.456,22.115c0.171,0.179 0.568,-0.108 0.451,-0.322Z" style="fill:#010101;fill-rule:nonzero;"/><path d="M386.375,412.143c2.023,9.679 13.033,17.02 22.392,18.383c0.729,0.106 1.85,-1.07 0.968,-1.592c-8.145,-4.814 -18.531,-7.616 -21.797,-17.682c-0.312,-0.957 -1.73,0.096 -1.563,0.891Z" style="fill:#010101;fill-rule:nonzero;"/><path d="M42.326,108.459c5.176,1.759 11.69,0.944 16.93,-0.08c7.605,-1.485 14.641,-3.494 21.679,-6.784c12.185,-5.697 26.495,-17.128 26.005,-32.059c-0.268,-8.122 -12.817,-3.302 -13.392,2.706c-0.47,4.916 -1.349,8.036 -4.639,11.842c-3.577,4.139 -8.841,6.906 -13.656,9.287c-10.376,5.131 -21.527,7.401 -32.188,11.64c-1.372,0.545 -2.755,2.762 -0.739,3.448Z" style="fill:#010101;fill-rule:nonzero;"/><path d="M41.937,96.72c15.347,0.333 28.626,-7.131 40.053,-16.91c2.531,-2.167 4.836,-4.321 6.968,-6.911c1.083,-1.315 3.177,-4.782 4.949,-4.933c5.49,-0.465 1.529,5.332 1.125,7.208c0.827,-1.343 1.653,-2.686 2.48,-4.029c-1.746,1.82 -3.29,3.353 -3.96,5.845c-0.194,0.725 -0.083,1.876 0.52,2.414c3.218,2.871 9.086,0.559 11.948,-1.954c3.425,-3.005 5.807,-7.797 5.266,-12.392c-1.083,-9.202 -12.61,-12.669 -20.004,-8.303c-8.062,4.761 -12.049,14.448 -18.984,20.639c-8.122,7.248 -19.417,15.015 -30.194,17.336c-1.016,0.218 -1.508,1.96 -0.167,1.99Z" style="fill:#010101;fill-rule:nonzero;"/><path d="M39.322,85.947c-5.648,1.998 -8.004,8.365 -7.33,13.945c0.696,5.773 4.56,14.169 11.527,12.147c1.985,-0.576 3.603,-2.364 4.089,-4.347c1.033,-4.209 -2.939,-6.9 -4.592,-10.447c-1.341,-2.876 -1.375,-6.028 -0.973,-9.104c0.216,-1.656 -1.083,-2.774 -2.721,-2.194Z" style="fill:#010101;fill-rule:nonzero;"/><path d="M1.901,15.799c4.111,4.441 9.911,7.215 14.464,11.214c6.369,5.595 11.942,12.065 17.186,18.704c9.668,12.238 17.454,25.122 22.651,39.805c1.915,5.409 10.97,0.094 10.148,-4.489c-1.231,-6.86 -5.068,-13.317 -8.633,-19.202c-4.645,-7.67 -9.929,-14.909 -15.775,-21.705c-5.747,-6.68 -12.102,-12.973 -19.085,-18.361c-5.425,-4.188 -12.094,-9.496 -19.393,-8.506c-0.963,0.13 -2.511,1.516 -1.563,2.54Z" style="fill:#010101;fill-rule:nonzero;"/><path d="M2.653,14.997c3.285,-2.327 5.496,-5.56 9.519,-6.809c2.998,-0.932 7.578,0.687 10.386,1.876c9.712,4.113 17.46,12.715 24.077,20.631c7.461,8.925 13.931,18.699 19.679,28.801c3.959,6.957 7.372,14.352 12.042,20.781c1.103,1.52 3.746,-0.362 3.905,-1.75c1.008,-8.803 -4.366,-17.95 -8.583,-25.342c-6.604,-11.577 -14.182,-22.695 -23.016,-32.689c-7.337,-8.3 -16.289,-16.777 -27.317,-19.589c-8.095,-2.063 -21.296,3.908 -22.785,12.919c-0.205,1.227 1.109,1.867 2.093,1.171Z" style="fill:#010101;fill-rule:nonzero;"/><path d="M41.231,89.091c2.569,-0.575 4.968,-1.839 7.474,-2.653c2.519,-0.817 5.165,-0.564 7.549,-1.723c1.261,-0.614 2.684,-2.871 1.441,-4.141c-2.183,-2.232 -5.877,-0.739 -8.345,0.313c-3.413,1.453 -6.813,3.457 -9.344,6.189c-0.989,1.069 -0.038,2.297 1.225,2.015Z" style="fill:#010101;fill-rule:nonzero;"/></g></svg>