<?xml version="1.0" encoding="UTF-8" standalone="no"?><!DOCTYPE svg PUBLIC "-//W3C//DTD SVG 1.1//EN" "http://www.w3.org/Graphics/SVG/1.1/DTD/svg11.dtd"><svg width="100%" height="100%" viewBox="0 0 501 527" version="1.1" xmlns="http://www.w3.org/2000/svg" xmlns:xlink="http://www.w3.org/1999/xlink" xml:space="preserve" style="fill-rule:evenodd;clip-rule:evenodd;stroke-linejoin:round;stroke-miterlimit:1.41421;"><g id="carrot"><path d="M10.105,500.888c5.168,-5.679 8.786,-12.168 12.788,-18.706c4.25,-6.948 8.559,-13.86 12.891,-20.758c8.336,-13.271 16.807,-26.456 25.301,-39.625c17.047,-26.428 34.105,-52.845 50.869,-79.454c31.313,-49.701 57.157,-102.492 96.17,-146.959c23.597,-26.895 55.009,-54.407 92.864,-55.487c10.173,-0.29 21.435,1.37 31.946,3.318c5.698,1.056 11.479,2.327 16.886,4.452c2.206,0.866 4.327,1.941 6.31,3.24c1.025,0.673 1.522,1.173 1.904,2.572c1.797,6.584 11.192,2.3 13.673,-1.107c0.048,-0.066 0.097,-0.133 0.145,-0.198c-4.249,0.883 -8.499,1.766 -12.749,2.648c0.707,0.681 0.646,0.231 -0.181,-1.345c1.214,-2.529 2.427,-5.059 3.641,-7.588c-0.089,0.074 -0.179,0.148 -0.269,0.224c2.016,-0.903 4.031,-1.807 6.046,-2.71c-4.534,0.145 -8.571,0.872 -12.964,1.98c-5.006,1.264 -9.107,9.769 -2.512,11.723c6.331,1.876 12.873,3.077 18.492,-1.195c1.98,-1.504 4.099,-4.971 3.641,-7.587c-0.334,-1.914 -0.825,-4.02 -2.439,-5.309c-4.118,-3.286 -9.776,-1.516 -12.748,2.649c-0.049,0.066 -0.096,0.133 -0.144,0.199c4.558,-0.369 9.115,-0.738 13.673,-1.107c-1.918,-6.711 -9.648,-9.782 -15.586,-11.813c-8.271,-2.83 -16.979,-4.242 -25.632,-5.3c-8.112,-0.991 -16.321,-1.553 -24.495,-1.599c-9.879,-0.055 -19.929,2.452 -29.314,5.325c-26.241,8.032 -48.104,25.657 -66.961,45.022c-19.884,20.421 -36.744,43.482 -52.083,67.445c-12.423,19.407 -23.456,39.579 -34.831,59.602c-12.83,22.584 -26.135,44.927 -39.814,67.006c-13.543,21.861 -27.266,43.609 -40.807,65.471c-6.447,10.408 -12.84,20.849 -19.161,31.334c-6.354,10.541 -14.204,21.204 -17.82,33.018c-0.71,2.313 2.408,1.566 3.27,0.619Z" style="fill:#010101;fill-rule:nonzero;"/><path d="M7.487,493.931c-5.182,5.949 -9.781,14.336 -6.088,22.236c3.151,6.737 11.364,9.394 18.203,10.001c23.917,2.126 45.359,-12.557 63.926,-25.802c23.953,-17.09 45.873,-36.718 70.104,-53.461c12.52,-8.65 25.131,-17.168 37.256,-26.37c12.521,-9.503 24.41,-19.805 37.026,-29.211c24.435,-18.216 49.765,-35.253 75.097,-52.186c22.168,-14.817 46.563,-29.471 64.435,-49.557c13.521,-15.196 22.574,-34.563 28.868,-53.723c6.277,-19.109 9.344,-40.578 3.66,-60.199c-2.272,-7.842 -6.782,-15.208 -12.776,-20.743c-0.469,-0.407 -0.937,-0.817 -1.4,-1.23c0.273,0.242 0.377,1.959 0.257,0.58c-0.145,-1.672 -0.27,-3.936 -1.626,-5.147c-4.408,-3.94 -9.752,-1.569 -14.422,0.606c-2.631,1.226 -6.245,7.561 -1.976,9.222c1.002,0.391 1.933,0.79 2.864,1.327c-1.741,-1.003 -0.72,-0.826 -0.929,-1.861c0.301,1.484 0.285,2.918 0.753,4.414c1.175,3.756 6.203,6.877 8.541,10.051c4.984,6.765 6.999,15.537 7.698,23.756c1.705,20.063 -4.487,40.673 -12.773,58.718c-3.95,8.601 -8.698,16.783 -14.433,24.317c-6.394,8.398 -15.074,15.232 -23.78,22.094c-23.057,18.172 -48.104,33.789 -72.198,50.524c-25.901,17.989 -51.613,36.32 -75.636,56.789c-11.496,9.796 -24.5,18.027 -36.897,26.614c-12.638,8.754 -25.172,17.67 -37.005,27.496c-21.551,17.896 -43.915,37.11 -69.852,48.34c-8.009,3.469 -40.25,9.045 -35.691,-8.09c0.721,-2.711 2.253,-5.402 3.619,-7.827c2,-3.55 -3.034,-3.735 -4.825,-1.678Z" style="fill:#010101;fill-rule:nonzero;"/><path d="M437.014,0.362c-25.379,11.869 -44.907,34.867 -61.585,56.723c-9.392,12.309 -17.058,25.699 -24.22,39.395c-3.483,6.663 -6.736,13.444 -10.246,20.092c-1.604,3.037 -4.031,5.865 -4.987,9.174c-0.287,0.996 -0.492,1.983 -0.674,3.005c-0.105,0.658 -0.213,1.316 -0.321,1.974c-0.4,1.89 0.084,1.079 1.453,-2.433c4.155,-0.863 8.31,-1.726 12.465,-2.589c-0.588,-0.68 -1.363,-1.167 -2.075,-1.708c-4.621,-3.512 -11.017,3.044 -12.111,7.038c-0.425,1.551 -0.618,3.205 0.126,4.706c2.463,4.97 8.221,3.419 11.775,0.626c2.158,-1.695 3.404,-4.261 3.914,-6.9c0.193,-1 0.281,-2.033 0.435,-3.039c0.507,-3.318 -2.487,3.893 0.658,-1.396c3.374,-5.672 6.013,-11.701 8.866,-17.642c6.705,-13.959 13.584,-27.959 22.244,-40.83c16.005,-23.784 34.422,-44.382 56.162,-63.063c2.002,-1.719 0.58,-4.283 -1.879,-3.133Z" style="fill:#010101;fill-rule:nonzero;"/><path d="M389.881,4.686c-32.51,35.217 -53.889,79.622 -73.016,123.163c4.813,-0.391 9.624,-0.78 14.437,-1.17c-0.062,-1.884 -0.156,-3.618 -0.972,-5.346c-2.701,-5.723 -11.131,-2.065 -12.883,2.624c-0.961,2.572 -1.29,4.87 -1.378,7.604c-0.104,3.252 3.178,5.11 6.048,4.878c4.364,-0.354 7.898,-3.842 9.029,-7.924c6.112,-22.062 15.225,-43.323 25.711,-63.634c10.535,-20.403 23.271,-39.744 34.788,-59.583c0.76,-1.307 -1.107,-1.322 -1.764,-0.612Z" style="fill:#010101;fill-rule:nonzero;"/><path d="M362.497,140.044c9.811,-7.605 16.338,-19.886 23.277,-30.021c7.805,-11.399 15.713,-22.728 23.984,-33.795c16.523,-22.109 34.82,-42.985 56.855,-59.771c-2.678,-0.143 -5.354,-0.285 -8.031,-0.427c1.662,5.417 4.362,8.983 8.445,12.689c0.76,0.69 0.389,0.743 0.26,-0.151c-0.059,-0.402 -0.601,1.275 -0.934,1.936c-2.545,5.036 -6.158,9.575 -9.318,14.228c-10.115,14.89 -19.379,30.313 -29.135,45.433c-8.08,12.521 -16.384,24.943 -25.809,36.503c-4.168,5.11 -8.582,9.921 -13.752,14.034c-1.539,1.225 -3.025,2.166 -5.476,3.384c1.28,-0.636 -1.619,0.474 -2.134,0.602c0.955,-0.237 -0.639,-0.097 -0.502,-0.081c-9.501,-1.104 -16.98,14.822 -5.172,15.119c13.798,0.347 25.521,-13.547 33.611,-22.977c10.723,-12.499 19.678,-26.535 28.324,-40.512c10.648,-17.214 20.436,-34.896 31.77,-51.688c3.634,-5.383 11.469,-14.307 9.089,-21.539c-0.606,-1.842 -2.577,-3.127 -3.7,-4.053c-2.816,-2.323 -4.238,-5.33 -5.361,-8.745c-1.206,-3.669 -5.948,-2.063 -8.031,-0.427c-22.063,17.348 -40.364,38.83 -56.886,61.393c-8.151,11.131 -15.847,22.589 -23.494,34.068c-3.919,5.883 -7.917,11.726 -11.676,17.712c-3.291,5.241 -6.814,10.282 -8.468,16.28c-0.422,1.535 1.49,1.407 2.264,0.806Z" style="fill:#010101;fill-rule:nonzero;"/><path d="M497.409,73.43c-16.479,18.516 -31.4,38.966 -49.838,55.639c-17.459,15.788 -38.455,27.051 -57.282,41.041c3.865,2.118 7.73,4.235 11.596,6.353c1.53,-2.797 2.944,-7.461 0.007,-9.91c-2.769,-2.31 -5.955,-1.386 -8.603,0.697c-1.096,0.862 -1.97,1.961 -3,2.86c-2.854,2.49 -5.293,7.56 -2.341,10.924c3.098,3.53 8.102,1.364 11.136,-0.902c19.251,-14.384 40.198,-26.584 57.646,-43.263c18.314,-17.506 32.072,-40.094 43.481,-62.464c1.082,-2.125 -1.75,-2.158 -2.802,-0.975Z" style="fill:#010101;fill-rule:nonzero;"/><path d="M492.866,109.677c-3.143,3.75 -6.63,7.25 -10.408,10.361c-3.989,3.286 -7.328,7.833 -10.988,11.506c-7.712,7.738 -15.881,15.229 -24.471,21.979c-8.039,6.314 -16.309,12.142 -25.279,17.066c-4.404,2.417 -8.939,4.52 -13.633,6.306c-4.74,1.804 -9.969,2.491 -14.424,4.935c-3.37,1.849 -7.896,11.181 -0.949,11.599c10.086,0.606 21.619,-6.305 30.166,-11.118c9.858,-5.553 18.982,-12.527 27.544,-19.89c8.642,-7.433 16.581,-15.786 24.001,-24.421c3.805,-4.429 7.523,-8.929 11.087,-13.553c3.351,-4.348 5.779,-9.41 8.995,-13.883c0.947,-1.319 -0.77,-1.925 -1.641,-0.887Z" style="fill:#010101;fill-rule:nonzero;"/><path d="M20.147,506.265c11.518,3.584 22.631,-5.923 31.459,-12.193c12.244,-8.696 25.634,-15.81 38.259,-23.949c26.117,-16.836 50.183,-36.9 74.433,-56.273c37.815,-30.21 73.885,-62.362 110.99,-93.395c25.191,-21.068 50.602,-42.416 70.898,-68.434c8.769,-11.24 17.322,-23.927 20.461,-38.049c2.568,-11.564 -0.557,-25.358 -12.268,-30.407c-3.534,-1.523 -8.586,3.035 -6.1,6.544c3.239,4.571 6.563,9.023 7.999,14.526c1.347,5.158 0.247,10.905 -1.214,15.9c-4.204,14.378 -14.576,26.995 -24.188,38.117c-20.852,24.128 -45.401,44.813 -69.651,65.389c-15.396,13.063 -30.246,26.766 -45.628,39.853c-21.03,17.893 -42.429,35.35 -64.026,52.551c-21.822,17.381 -43.486,35.067 -66.987,50.157c-11.167,7.17 -23.005,13.45 -33.847,21.098c-9.655,6.812 -18.747,12.715 -30.11,16.325c-0.924,0.292 -1.767,1.839 -0.48,2.24Z" style="fill:#010101;fill-rule:nonzero;"/><path d="M189.519,207.595c8.492,2.596 17.635,2.842 25.931,6.065c3.807,1.479 7.502,3.889 9.623,7.481c1.206,2.044 2.08,4.574 4.762,5.071c2.602,0.481 5.094,-0.995 6.619,-3.008c7.232,-9.537 -9.439,-17.678 -16.293,-19.39c-9.45,-2.361 -19.33,-1.354 -28.938,-1.199c-2.379,0.039 -4.707,4.063 -1.704,4.98Z" style="fill:#010101;fill-rule:nonzero;"/><path d="M189.046,301.478c7.695,2.049 14.722,5.636 21.12,10.354c3.102,2.285 5.795,5.065 8.202,8.059c2.274,2.827 3.015,7.239 5.663,9.56c1.996,1.749 5.372,-0.137 5.756,-2.58c1.203,-7.659 -8.105,-14.559 -13.692,-18.258c-7.62,-5.045 -16.829,-8.176 -25.77,-9.849c-1.439,-0.271 -3.087,2.232 -1.279,2.714Z" style="fill:#010101;fill-rule:nonzero;"/><path d="M283.909,165.771c8.68,1.607 16.754,5.181 23.533,10.861c3.545,2.971 5.841,6.857 9.038,10.082c2.485,2.507 7.026,0.805 8.493,-1.98c4.063,-7.72 -9.193,-14.766 -14.754,-17.664c-7.677,-4.002 -16.607,-5.735 -25.176,-4.619c-1.379,0.18 -3.335,2.911 -1.134,3.32Z" style="fill:#010101;fill-rule:nonzero;"/><path d="M309.286,264.968c4.086,2.386 7.97,5.152 11.717,8.038c2.807,2.161 8.954,6.284 9.499,10.131c0.311,2.195 1.839,3.383 4.056,3.271c1.369,-0.069 2.473,-0.575 3.543,-1.426c-4.402,3.5 0.541,-0.465 1.34,-1.41c1.256,-1.488 1.928,-4.244 0.448,-5.828c-3.476,-3.722 -8.111,-6.763 -12.357,-9.513c-4.678,-3.028 -10.24,-6.527 -15.899,-7.116c-1.722,-0.18 -4.536,2.575 -2.347,3.853Z" style="fill:#010101;fill-rule:nonzero;"/><path d="M99.571,355.485c8.277,1.417 14.264,8.507 22.171,10.817c4.612,1.348 9.838,-7.056 4.121,-8.743c-8.25,-2.436 -15.806,-7.453 -24.664,-6.832c-2.081,0.146 -4.699,4.233 -1.628,4.758Z" style="fill:#010101;fill-rule:nonzero;"/><path d="M126.119,423.188c5.989,2.881 9.331,7.986 13.37,13.011c1.173,1.459 3.074,1.24 4.666,0.914c0.247,-0.05 0.493,-0.101 0.739,-0.151c1.915,-0.392 3.472,-2.387 3.93,-4.177c0.074,-0.29 0.149,-0.581 0.224,-0.871c0.252,-0.988 0.15,-2.739 -0.744,-3.451c-5.754,-4.581 -12.217,-8.356 -19.559,-9.589c-1.934,-0.324 -5.111,3.119 -2.626,4.314Z" style="fill:#010101;fill-rule:nonzero;"/><path d="M69.283,441.292c1.524,0.556 3.028,1.078 4.497,1.772c1.889,0.894 3.623,2.004 5.736,2.174c3.153,0.253 6.551,-3.054 4.685,-6.142c-1.94,-3.211 -7.558,-3.446 -10.892,-4.42c-1.574,-0.459 -3.451,0.797 -4.344,1.973c-0.875,1.156 -1.611,3.941 0.318,4.643Z" style="fill:#010101;fill-rule:nonzero;"/><path d="M47.07,485.253c2.452,1.69 4.739,3.463 7.002,5.396c2.039,1.74 3.737,4.631 6.092,5.855c2.354,1.223 5.842,-1.435 5.567,-4.004c-0.346,-3.234 -3.481,-5.041 -6.005,-6.657c-2.955,-1.893 -6.306,-3.249 -9.424,-4.856c-2.278,-1.175 -5.647,2.601 -3.232,4.266Z" style="fill:#010101;fill-rule:nonzero;"/><path d="M149.708,264.196c3.383,0.895 6.653,1.654 9.893,3.045c2.946,1.265 6.119,2.316 9.334,2.476c1.332,0.065 3.188,-1.426 2.161,-2.833c-4.155,-5.7 -13.251,-8.066 -19.959,-6.864c-1.733,0.311 -4.193,3.446 -1.429,4.176Z" style="fill:#010101;fill-rule:nonzero;"/><path d="M274.848,338.351c0.247,2.363 0.875,5.05 2.215,7.04c0.773,1.147 2.643,1.102 3.774,0.739c1.866,-0.596 3.552,-2.252 3.955,-4.204c0.587,-2.839 -0.76,-5.76 -2.889,-7.63c-2.631,-2.312 -7.408,0.688 -7.055,4.055Z" style="fill:#010101;fill-rule:nonzero;"/><path d="M17.961,500.511c0.747,0.692 1.519,1.349 2.338,1.955c0.635,0.47 1.426,0.933 2.254,0.786c-0.668,0.118 1.105,0.09 0.768,0.083c0.674,0.014 1.193,-0.234 1.795,-0.504c1.005,-0.448 1.555,-1.567 1.618,-2.6c0.05,-0.801 -0.399,-1.38 -0.877,-1.969c0.157,0.402 0.313,0.806 0.471,1.209c-0.077,-0.66 -0.206,-1.199 -0.708,-1.666c-0.607,-0.487 -0.734,-0.587 -0.382,-0.298c-0.178,-0.142 -0.347,-0.294 -0.517,-0.445c-0.464,-0.416 -0.887,-0.877 -1.311,-1.333c-1.233,-1.33 -3.322,-0.672 -4.503,0.364c-1.038,0.913 -2.275,3.187 -0.946,4.418Z" style="fill:#010101;fill-rule:nonzero;"/></g></svg>