<?xml version="1.0" encoding="UTF-8" standalone="no"?><!DOCTYPE svg PUBLIC "-//W3C//DTD SVG 1.1//EN" "http://www.w3.org/Graphics/SVG/1.1/DTD/svg11.dtd"><svg width="100%" height="100%" viewBox="0 0 516 386" version="1.1" xmlns="http://www.w3.org/2000/svg" xmlns:xlink="http://www.w3.org/1999/xlink" xml:space="preserve" style="fill-rule:evenodd;clip-rule:evenodd;stroke-linejoin:round;stroke-miterlimit:1.41421;"><g id="cheese"><path d="M262.047,201.508c5.884,0.099 12.937,3.914 18.04,6.575c6.986,3.645 13.398,8.23 18.648,14.142c4.529,5.102 7.981,11.743 6.527,18.703c-1.701,8.142 -8.66,9.681 -15.9,9.705c-15.627,0.053 -34.87,-6.718 -45.463,-18.49c-14.827,-16.479 13.789,-25.048 24.887,-28.475c2.2,-0.681 4.637,-4.906 1.221,-5.699c-16.324,-3.785 -42.988,10.872 -39.573,30.179c1.787,10.1 11.368,17.139 19.865,21.632c8.217,4.346 17.661,6.961 26.796,8.42c8.577,1.37 18.444,1.6 26.143,-3.011c7.065,-4.23 10.938,-13.357 10.239,-21.376c-1.471,-16.907 -21.271,-29.126 -35.656,-33.989c-5.092,-1.722 -9.771,-2.171 -15.057,-1.661c-1.808,0.174 -3.189,3.304 -0.717,3.345Z" style="fill:#010101;fill-rule:nonzero;"/><path d="M198.546,273.928c5.783,3.094 8.651,9.631 5.968,15.812c-2.541,5.854 -9.999,6.395 -15.057,3.921c-5.217,-2.551 -6.147,-9.308 -0.283,-11.359c5.813,-2.035 12.236,-0.867 18.081,-2.482c1.847,-0.511 3.479,-2.901 2.233,-4.655c-5.527,-7.781 -21.976,-3.546 -28,1.519c-8.829,7.42 -8.611,20.938 2.788,25.446c9.385,3.71 21.307,-0.363 26.038,-9.429c4.913,-9.409 0.475,-18.593 -8.869,-22.595c-2.061,-0.885 -5.236,2.573 -2.899,3.822Z" style="fill:#010101;fill-rule:nonzero;"/><path d="M392.272,78.92c35.795,26.438 57.07,70.476 71.114,111.499c7.796,22.771 13.448,46.307 17.523,70.014c1.974,11.477 3.505,23.032 4.713,34.613c1.136,10.881 1.665,21.86 3.396,32.653c0.261,1.624 0.464,3.26 0.685,4.89c0.595,4.393 6.17,0.963 6.424,-2.06c1.895,-22.616 -0.852,-45.301 -4.434,-67.657c-3.768,-23.519 -9.225,-46.763 -16.605,-69.411c-13.491,-41.399 -34.496,-84.43 -69.283,-112.063c-3.205,-2.546 -6.488,-5.003 -9.826,-7.372c-2.403,-1.702 -6.389,2.913 -3.707,4.894Z" style="fill:#010101;fill-rule:nonzero;"/><path d="M384.652,350.604c12.812,-25.003 -23.658,-36.719 -42.006,-37.298c-15.425,-0.487 -30.453,5.741 -41.396,16.497c-4.744,4.662 -9.067,10.054 -12.507,15.734c-2.228,3.678 -5.477,13.672 1.482,14.396c2.354,0.245 4.266,-1.387 4.936,-3.559c0.531,-1.727 0.246,-3.234 0.117,-4.996c-0.162,-2.26 1.828,-4.949 2.99,-6.707c3.098,-4.682 6.953,-9.155 11.125,-12.895c9.533,-8.543 22.703,-11.732 35.244,-10.977c15.819,0.954 40.413,9.751 37.484,29.684c-0.258,1.789 1.983,1.191 2.531,0.121Z" style="fill:#010101;fill-rule:nonzero;"/><path d="M386.757,353.84c-6.156,-17.823 -31.074,-18.437 -46.457,-16.34c-10.001,1.362 -19.739,4.26 -29.168,7.793c-4.352,1.632 -8.614,3.52 -12.793,5.548c-3.996,1.938 -8.423,3.407 -9.247,8.335c-0.344,2.059 0.519,4.481 2.907,4.757c5.324,0.612 14.302,-0.746 12.785,-7.972c-0.247,-1.181 -1.574,-1.806 -2.588,-2.076c-2.244,-0.604 -4.324,-0.644 -6.627,-0.396c1.446,1.167 2.895,2.334 4.34,3.5c-0.133,-0.723 -0.282,-1.439 -0.441,-2.157c-0.714,2.049 -1.428,4.098 -2.143,6.146c5.024,-4.229 12.798,-6.899 18.858,-9.222c8.04,-3.08 16.409,-5.389 24.931,-6.638c7.74,-1.135 15.604,-1.245 23.268,0.439c7.586,1.667 13.871,5.951 20.234,10.158c1.017,0.675 2.493,-0.856 2.141,-1.875Z" style="fill:#010101;fill-rule:nonzero;"/><path d="M501.562,333.345c-18.248,-2.183 -37.107,2.012 -55.02,5.431c-19.353,3.693 -38.77,6.661 -58.332,9.112c-5.971,0.748 -10.746,11.624 -2.41,11.252c4.549,-0.203 8.549,-1.488 11.968,-4.547c1.169,-1.046 2.661,-4.218 0.396,-5.106c-3.229,-1.268 -6.511,-1.468 -9.952,-1.599c-0.804,3.751 -1.607,7.501 -2.41,11.252c19.212,-3.079 37.531,-8.84 56.489,-12.979c19.347,-4.225 38.873,-6.722 58.343,-10.1c1.053,-0.182 2.781,-2.495 0.928,-2.716Z" style="fill:#010101;fill-rule:nonzero;"/><path d="M298.5,355.387c-15.733,-0.189 -31.584,1.688 -47.257,2.941c-15.956,1.276 -31.899,2.691 -47.833,4.229c-15.91,1.533 -31.806,3.275 -47.651,5.367c-16.176,2.135 -32.36,5.563 -48.615,6.932c-4.292,0.361 -9.791,9.462 -3.396,9.928c4.578,0.334 9.323,0.023 13.696,-1.434c2.063,-0.688 5.932,-5.395 2.361,-6.869c-3.924,-1.622 -8.448,-1.921 -12.663,-1.625c-0.271,3.24 -0.542,6.479 -0.813,9.719c15.433,-4.529 31.854,-6.435 47.735,-8.748c15.905,-2.315 31.851,-4.336 47.82,-6.151c15.963,-1.816 31.959,-3.343 47.958,-4.813c15.863,-1.458 31.955,-2.19 47.667,-4.858c2.37,-0.402 4.494,-4.576 0.991,-4.618Z" style="fill:#010101;fill-rule:nonzero;"/><path d="M395.613,76.175c-9.819,9.663 -18.3,20.665 -28.129,30.375c-10.17,10.046 -20.858,19.569 -31.408,29.212c-21.062,19.25 -39.567,41.417 -62.418,58.578c-4.468,3.354 -2.403,9.588 3.258,8.373c2.508,-0.539 4.479,-1.825 6.42,-3.46c1.931,-1.626 2.648,-4.478 0.474,-6.136c-1.928,-1.47 -3.838,-0.743 -6.038,-0.62c0.621,2.884 1.242,5.769 1.863,8.652c11.131,-8.875 20.777,-19.896 30.57,-30.182c9.843,-10.338 19.98,-20.285 30.449,-29.989c10.494,-9.729 21.023,-19.402 31.039,-29.633c9.752,-9.964 20.854,-20.801 27.032,-33.465c1.071,-2.193 -1.675,-3.118 -3.112,-1.705Z" style="fill:#010101;fill-rule:nonzero;"/><path d="M238.548,233.505c-8.14,3.888 -15.399,10.833 -22.442,16.354c-8.02,6.287 -15.833,12.798 -23.657,19.322c1.099,-0.493 2.197,-0.986 3.297,-1.479c-1.827,0.245 -3.123,0.824 -4.562,1.988c-1.497,1.212 -2.966,3.888 -2.036,5.842c0.575,1.209 1.278,1.662 2.533,2.033c2.207,0.653 4.72,-1.128 5.997,-2.724c0.79,-0.986 1.28,-2.03 1.454,-3.279c-0.631,1.025 -1.263,2.052 -1.894,3.077c13.274,-14.11 30.617,-24.133 43.792,-38.308c1.835,-1.969 -0.471,-3.787 -2.482,-2.826Z" style="fill:#010101;fill-rule:nonzero;"/><path d="M183.281,287.78c-8.151,6.01 -15.629,12.956 -23.56,19.262c-8.245,6.556 -16.709,12.831 -25.036,19.28c-16.277,12.61 -31.236,26.429 -44.167,42.496c-1.728,2.147 -1.926,4.649 -0.535,6.943c4.442,7.325 14.417,12.973 22.436,7.325c2.144,-1.509 4.722,-5.229 1.546,-7.213c-1.975,-1.232 -4.448,-1.539 -6.583,-2.485c-3.236,-1.435 -5.326,-3.621 -7.197,-6.578c0.116,1.83 0.232,3.661 0.349,5.491c9.447,-17.321 26.211,-30.385 41.143,-42.813c7.671,-6.385 15.441,-12.647 23.02,-19.146c7.366,-6.315 15.102,-12.896 20.493,-21.051c1.057,-1.597 -0.57,-2.498 -1.909,-1.511Z" style="fill:#010101;fill-rule:nonzero;"/><path d="M397.274,77.803c-10.885,-8.059 -25.018,-12.772 -37.607,-17.439c-12.606,-4.672 -25.441,-8.71 -38.257,-12.764c-13.427,-4.247 -26.496,-9.313 -39.673,-14.261c-12.557,-4.715 -25.228,-8.104 -38.13,-11.641c-0.813,2.381 -1.628,4.762 -2.442,7.143c1.522,-0.198 3.044,-0.398 4.571,-0.563c2.525,-0.271 6.021,-5.568 2.061,-6.022c-1.399,-0.161 -2.793,-0.359 -4.188,-0.557c-3.971,-0.561 -7.935,6.714 -3.347,7.102c13.282,1.118 26.555,6.235 39.023,10.664c12.58,4.468 25.055,9.181 37.813,13.13c13.02,4.03 26.045,8.044 38.876,12.646c13.161,4.72 25.521,11.292 38.562,16.181c1.964,0.734 4.81,-2.085 2.738,-3.619Z" style="fill:#010101;fill-rule:nonzero;"/><path d="M196.279,101.936c1.49,11.357 -4.354,21.42 -11.587,29.673c-3.688,4.21 -8.063,7.976 -12.648,11.174c-3.777,2.636 -7.288,3.789 -11.598,5.015c-4.679,1.33 -5.615,8.891 0.414,7.667c4.611,-0.937 9.411,-4.864 13.151,-7.533c5.607,-4.001 10.597,-8.722 15.083,-13.942c7.298,-8.491 15.296,-21.849 9.442,-33.052c-0.586,-1.124 -2.398,-0.071 -2.257,0.998Z" style="fill:#010101;fill-rule:nonzero;"/><path d="M239.852,21.89c-2.756,6.703 -4.813,13.568 -8.028,20.103c-3.646,7.41 -8.106,14.389 -12.729,21.218c-4.149,6.13 -8.509,12.116 -12.751,18.183c-4.197,6.002 -7.662,12.642 -12.022,18.49c-3.619,4.854 3.326,7.788 6.226,3.365c1.191,-1.817 1.898,-2.906 2.175,-5.059c0.315,-2.458 -1.938,-3.173 -3.868,-2.161c-2.02,1.061 -3.063,2.107 -4.531,3.854c2.392,0.451 4.783,0.901 7.176,1.354c2.27,-6.917 7.793,-13.589 11.773,-19.611c4.386,-6.634 8.85,-13.214 13.047,-19.969c7.051,-11.342 16.396,-26.071 16.057,-39.971c-0.039,-1.521 -2.157,-0.688 -2.525,0.204Z" style="fill:#010101;fill-rule:nonzero;"/><path d="M194.265,99.088c4.316,2.527 7.139,4.308 9.199,9.137c2.019,4.731 2.151,10.291 2.084,15.356c-0.145,11.078 -2.2,21.438 -10.41,29.477c-5.919,5.796 -13.982,6.779 -21.954,7.029c-3.909,0.123 -7.826,-0.257 -11.608,-1.252c-2.684,-0.705 -4.048,-2.717 -6.401,-3.774c-2.378,-1.07 -4.932,0.961 -5.552,3.226c-2.539,9.275 15.482,9.696 20.73,9.666c11.313,-0.065 21.908,-2.861 30.032,-10.979c10.147,-10.137 12.551,-23.188 12.02,-36.98c-0.341,-8.813 -5.275,-26.556 -17.679,-22.25c-0.466,0.162 -1.094,0.973 -0.461,1.344Z" style="fill:#010101;fill-rule:nonzero;"/><path d="M95.225,374.374c-8.946,-15.01 -24.262,-27.078 -37.767,-37.785c-7.398,-5.865 -15.042,-11.42 -22.774,-16.835c-3.926,-2.75 -7.893,-5.442 -11.873,-8.114c-3.745,-2.513 -8.478,-4.812 -11.511,-8.188c-2.052,2.202 -4.104,4.403 -6.155,6.604c2.352,0.896 3.995,1.325 6.44,0.453c1.707,-0.607 4.542,-3.549 2.598,-5.416c-1.292,-1.241 -2.658,-2.311 -4.483,-2.521c-4.082,-0.469 -8.876,6.039 -3.673,7.789c3.816,1.283 7.486,4.374 10.835,6.56c3.543,2.313 7.063,4.66 10.569,7.029c7.791,5.267 15.444,10.733 22.938,16.416c7.377,5.597 14.563,11.477 21.488,17.623c6.829,6.063 12.939,12.917 19.76,18.958c1.413,1.253 4.656,-0.818 3.608,-2.573Z" style="fill:#010101;fill-rule:nonzero;"/><path d="M153.058,152.963c-21.676,23.093 -49.365,38.839 -71.724,61.115c-3.041,3.029 -0.98,8.638 3.394,5.658c3.228,-2.197 7.537,-4.102 8.914,-8.007c0.51,-1.448 0.005,-2.619 -1.63,-2.667c-3.877,-0.113 -7.739,2.75 -10.677,5.016c1.723,1.367 3.446,2.733 5.169,4.101c20.625,-23.418 50.921,-37.387 68.373,-63.774c0.933,-1.412 -0.661,-2.674 -1.819,-1.442Z" style="fill:#010101;fill-rule:nonzero;"/><path d="M80.786,220.667c5.417,1.14 10.042,3.295 10.497,9.387c0.461,6.172 -2.431,12.536 -5.656,17.631c-3.365,5.314 -7.773,10.224 -13.436,13.107c-1.963,1 -4.194,1.366 -6.355,0.983c-3.149,-0.558 -4.737,-3.577 -7.68,-4.416c-2.585,-0.736 -5.974,2.39 -5.677,4.981c0.966,8.444 13.502,8.747 19.393,6.495c8.394,-3.209 15.078,-10.456 19.782,-17.896c4.268,-6.747 8.366,-15.637 6.941,-23.847c-1.415,-8.154 -8.643,-11.693 -16.425,-10.479c-1.659,0.263 -4.087,3.485 -1.384,4.054Z" style="fill:#010101;fill-rule:nonzero;"/><path d="M55.119,255.148c0.004,-0.595 0.768,-1.229 -0.655,-0.419c-0.667,0.381 -1.332,0.949 -1.938,1.418c-1.656,1.283 -3.207,2.705 -4.779,4.087c-5.029,4.418 -10.056,8.84 -15.033,13.314c-10.482,9.42 -22.368,18.875 -30.79,30.265c-2.69,3.637 0.561,7.037 4.432,5.05c1.858,-0.954 3.612,-2.179 4.137,-4.335c0.276,-1.142 -0.498,-2.726 -0.52,-3.016c-0.083,-1.113 -1.042,-1.879 -2.155,-1.738c-3.204,0.403 -6.729,3.579 -4.948,7.021c0.077,-0.939 0.153,-1.881 0.23,-2.82c-0.033,0.068 -0.064,0.137 -0.098,0.205c0.786,-0.839 1.573,-1.677 2.358,-2.517c-0.163,0.012 -0.328,0.021 -0.492,0.033c1.12,1.841 2.238,3.684 3.358,5.523c10.135,-11.349 20.705,-22.127 31.583,-32.771c4.582,-4.481 9.361,-8.845 13.646,-13.618c1.132,-1.261 4.69,-4.639 3.144,-6.531c-0.522,-0.643 -1.476,0.258 -1.48,0.849Z" style="fill:#010101;fill-rule:nonzero;"/><path d="M414.584,191.292c12.646,0.584 18.163,12.065 18.702,23.352c0.636,13.293 -4.114,27.366 -12.463,37.674c-8.666,10.701 -21.646,13.031 -33.828,6.817c-12.81,-6.535 -14.918,-21.565 -10.59,-34.137c3.554,-10.323 10.549,-19.678 20.189,-24.978c10.704,-5.884 22.854,-2.278 33.54,1.751c2.884,1.088 7.383,-2.506 5.115,-5.489c-10.693,-14.069 -29.64,-13.133 -43.779,-4.8c-13.733,8.095 -23.555,22.731 -27.19,38.101c-3.356,14.189 0.27,29.646 13.189,37.663c13.145,8.155 29.319,6.419 41.467,-2.4c14.516,-10.536 22.002,-30.606 22.152,-48.034c0.064,-7.511 -1.545,-15.419 -5.949,-21.625c-4.497,-6.336 -11.854,-8.231 -19.242,-7.738c-1.706,0.115 -3.739,3.73 -1.313,3.843Z" style="fill:#010101;fill-rule:nonzero;"/><path d="M430.744,303.901c6.033,1.896 10.332,10.55 4.058,15.021c-2.787,1.984 -7.074,2.641 -8.916,-0.823c-1.514,-2.849 -0.89,-6.829 0.744,-9.127c0.742,-1.043 1.81,-1.715 3.478,-2.188c2.905,-0.823 5.749,0.121 8.646,-1.106c1.268,-0.538 3.093,-2.126 2.328,-3.741c-1.994,-4.215 -7.545,-3.594 -11.383,-2.69c-3.83,0.9 -7.326,3.627 -9.493,6.851c-3.63,5.397 -4.366,13.496 0.282,18.572c5.795,6.329 16.029,1.376 20.393,-4.044c6.501,-8.075 1.498,-20.175 -9.024,-19.968c-1.558,0.029 -3.064,2.631 -1.113,3.243Z" style="fill:#010101;fill-rule:nonzero;"/><path d="M272.92,96.141c12.647,-7.298 30.55,-2.78 38.712,9.125c4.547,6.632 2.418,14.481 -2.038,20.446c-4.834,6.471 -13.593,9.706 -21.271,11.082c-7.78,1.394 -17.178,1.11 -23.429,-4.361c-5.227,-4.576 -9.296,-13.693 -6.387,-20.458c2.405,-5.591 9.118,-8.831 14.451,-10.883c6.636,-2.555 13.868,-4.428 20.743,-6.215c2.334,-0.606 4.36,-4.668 1.191,-5.563c-14.728,-4.153 -34.521,4.338 -43.207,16.645c-5.115,7.248 -5.338,15.993 -1.845,23.972c4.032,9.209 11.342,14.794 21.164,16.542c19.069,3.393 41.942,-6.511 50.14,-24.413c7.94,-17.339 -5.972,-32.353 -22.249,-36.365c-9.879,-2.435 -20.84,-0.3 -28.003,7.07c-1.806,1.86 -0.71,4.956 2.028,3.376Z" style="fill:#010101;fill-rule:nonzero;"/><path d="M137.873,211.532c6.051,-1.765 11.864,0.999 14.057,6.824c2.447,6.501 -0.223,14.059 -4.205,19.291c-3.74,4.915 -14.479,11.994 -18.961,4.146c-3.469,-6.074 -1.546,-14.055 1.627,-19.791c5.077,-9.179 14.124,-7.529 22.941,-8.361c1.967,-0.186 4.071,-2.896 2.084,-4.405c-5.183,-3.938 -13.549,-2.721 -19.057,-0.251c-5.432,2.437 -9.502,6.718 -12.446,11.811c-4.45,7.694 -6.033,21.104 1.018,27.864c9.702,9.305 25.039,-4.029 29.96,-12.161c4.008,-6.621 5.144,-15.788 1.726,-22.857c-3.882,-8.027 -11.806,-7.633 -18.879,-4.593c-1.347,0.577 -1.861,3.065 0.135,2.483Z" style="fill:#010101;fill-rule:nonzero;"/><path d="M85.424,318.537c6.079,0.673 8.917,9.885 4.747,14.285c-2.698,2.85 -6.143,1.906 -8.11,-1.033c-1.513,-2.263 -1.703,-6.531 -0.625,-8.183c0.569,-0.87 0.382,-0.55 0.984,-0.892c0.379,-0.215 1.43,-0.341 2.104,-0.38c2.717,-0.159 5.303,0.098 7.984,-0.508c0.939,-0.212 2.388,-1.776 1.758,-2.824c-4.42,-7.355 -15.648,-3.282 -19.097,2.867c-2.853,5.09 -2.023,12.205 2.196,16.306c5.559,5.399 14.56,1.79 18.081,-4.17c4.504,-7.624 0.886,-18.859 -8.914,-18.715c-1.478,0.024 -3.15,3.022 -1.108,3.247Z" style="fill:#010101;fill-rule:nonzero;"/><path d="M162.785,371.34c4.327,-1.654 5.218,-7.403 2.561,-10.85c-3.04,-3.941 -9.489,-4.525 -14.02,-4.404c-5.722,0.151 -11.82,2.229 -15.719,6.545c-2.877,3.185 -5.949,13.96 0.796,14.77c1.698,0.204 3.54,-0.854 4.21,-2.454c1.333,-3.188 -1.552,-6.526 0.634,-9.268c1.788,-2.242 6.061,-2.771 8.671,-3.023c3.287,-0.317 6.882,-0.024 9.748,1.729c2.665,1.631 1.006,4.188 1.907,6.516c0.183,0.471 0.768,0.609 1.212,0.439Z" style="fill:#010101;fill-rule:nonzero;"/><path d="M402.558,63.029c3.426,3.791 7.471,6.897 11.153,10.433c4.219,4.048 8.176,8.506 11.972,12.949c8.561,10.022 16.123,20.834 23.171,31.959c12.634,19.941 23.413,40.623 31.569,62.798c8.991,24.445 15.431,49.925 19.665,75.611c4.138,25.104 7.135,52.057 2.737,77.294c3.434,-1.105 6.866,-2.213 10.3,-3.318c-0.579,-1.219 -0.608,-2.771 -1.08,-4.072c-1.918,-5.298 -10.945,-0.105 -10.019,4.431c0.381,1.862 0.069,3.693 0.937,5.435c2.435,4.896 9.629,0.91 10.3,-3.318c3.999,-25.214 1.5,-51.545 -2.366,-76.629c-4.014,-26.038 -10.475,-51.754 -19.323,-76.567c-7.998,-22.425 -18.707,-43.396 -31.477,-63.463c-7.04,-11.064 -14.645,-21.792 -23.084,-31.838c-7.393,-8.799 -16.335,-17.976 -26.93,-22.851c-1.76,-0.811 -3.545,-1.229 -5.444,-1.579c-1.224,-0.228 -3.153,1.537 -2.081,2.725Z" style="fill:#010101;fill-rule:nonzero;"/><path d="M410.262,63.387c-3.479,-8.206 -14.438,-11.002 -22.108,-13.606c-13.551,-4.6 -26.725,-10.43 -39.971,-15.828c-14.06,-5.729 -28.178,-11.299 -42.313,-16.839c-10.995,-4.31 -21.684,-9.28 -32.926,-12.955c-9.322,-3.047 -21.145,-6.024 -30.785,-2.682c-7.227,2.506 -13.206,8.751 -17.177,15.089c-3.646,5.823 -6.57,12.998 -4.696,19.909c2.08,7.674 11.974,7.866 17.455,4.315c1.567,-1.017 4.43,-5.049 1.348,-6.289c-3.974,-1.6 -8.801,-0.637 -8.807,-5.828c-0.007,-5.012 3.923,-10.278 7.014,-13.867c4.532,-5.262 10.313,-5.588 16.909,-4.82c10.186,1.186 20.014,5.074 29.459,8.861c21.905,8.782 43.952,17.217 65.973,25.715c10.79,4.165 21.563,8.571 32.57,12.135c7.855,2.544 16.726,4.438 22.819,10.427c2.091,2.053 6.345,-1.119 5.236,-3.737Z" style="fill:#010101;fill-rule:nonzero;"/><path d="M404.887,113.804c-10.988,-4.438 -23.368,5.187 -26.555,15.418c-4.229,13.578 9.727,24.13 22.148,22.302c12.24,-1.802 19.923,-14.531 16.957,-26.114c-2.728,-10.648 -17.938,-17.534 -25.809,-7.854c-1.087,1.337 -1.244,4.13 0.985,4.415c2.891,0.369 5.674,-0.739 8.592,-0.167c2.939,0.577 5.399,3.211 6.781,5.722c3.426,6.224 1.021,13.67 -5.811,16.104c-8.195,2.92 -16.996,-3.992 -17.752,-12.072c-0.979,-10.462 11.188,-14.734 19.396,-15.503c0.794,-0.074 2.332,-1.74 1.068,-2.251Z" style="fill:#010101;fill-rule:nonzero;"/></g></svg>