<?xml version="1.0" encoding="UTF-8" standalone="no"?><!DOCTYPE svg PUBLIC "-//W3C//DTD SVG 1.1//EN" "http://www.w3.org/Graphics/SVG/1.1/DTD/svg11.dtd"><svg width="100%" height="100%" viewBox="0 0 477 444" version="1.1" xmlns="http://www.w3.org/2000/svg" xmlns:xlink="http://www.w3.org/1999/xlink" xml:space="preserve" style="fill-rule:evenodd;clip-rule:evenodd;stroke-linejoin:round;stroke-miterlimit:1.41421;"><g id="chickpea"><path d="M191.702,64.22c16.21,-6.368 19.605,-25.87 27.122,-39.734c2.788,-5.143 7.806,-12.441 13.542,-12.124c5.484,0.304 10.443,6.284 13.795,10.546c8.815,11.203 17.105,27.704 18.829,40.641c0.142,1.059 0.202,2.123 0.192,3.189c-0.012,0.964 0.115,1.705 0.42,2.72c0.031,0.104 0.063,0.206 0.094,0.31c-0.394,-1.871 -0.357,-1.689 0.107,0.547c1.65,7.036 -0.326,-7.295 0.015,-0.888c0.131,2.458 1.812,3.835 4.02,4.41c4.739,1.233 9.546,-3.347 11.308,-7.216c1.678,-3.685 0.942,-7.114 -0.064,-10.84c-3.184,-11.777 -9.593,-23.316 -16.178,-33.478c-6.015,-9.281 -15.675,-21.69 -27.936,-21.577c-14.076,0.132 -23.186,13.737 -28.639,24.94c-3.185,6.541 -5.709,13.384 -8.733,19.998c-2.308,5.048 -4.428,12.645 -8.767,16.312c-0.991,0.836 -0.723,2.871 0.873,2.244Z" style="fill:#010101;fill-rule:nonzero;"/><path d="M182.924,66.339c-8.957,7.97 -18.25,15.655 -28.386,22.092c-10.562,6.707 -21.184,13.336 -31.761,20.012c-21.154,13.352 -41.697,27.984 -59.732,45.389c-39.521,38.139 -61.923,90.212 -62.366,145.195c-0.221,27.29 5.513,56.406 19.107,80.288c11.851,20.817 30.101,36.874 51.421,47.553c20.675,10.356 43.025,14.547 65.896,16.092c18.592,1.256 37.381,1.513 55.9,-0.803c28.439,-3.556 62.22,-15.563 68.336,-47.429c0.963,-5.019 -2.401,-9.083 -7.601,-8.662c-5.295,0.43 -10.645,4.93 -11.647,10.221c-0.186,0.98 -0.395,1.947 -0.632,2.916c-0.025,0.104 -1.015,3.092 -0.342,1.246c-0.639,1.752 -1.49,3.419 -2.405,5.039c1.175,-2.079 -0.399,0.461 -0.589,0.727c-0.533,0.745 -1.123,1.448 -1.711,2.15c-1.965,2.345 1.652,-1.616 -0.542,0.54c-0.888,0.873 -1.845,1.674 -2.806,2.464c-0.289,0.236 -2.834,2.052 -0.688,0.563c-0.796,0.553 -1.623,1.059 -2.449,1.565c-1.695,1.041 -3.472,1.946 -5.261,2.813c-2.985,1.446 1.851,-0.742 -1.256,0.548c-0.966,0.401 -1.947,0.763 -2.928,1.126c-2.351,0.87 -4.753,1.595 -7.164,2.274c-16.938,4.774 -36.562,5.302 -54.872,4.895c-19.221,-0.427 -40.385,-2.234 -59.799,-8.477c-21.775,-7.001 -41.653,-20.284 -55.915,-38.175c-16.547,-20.757 -23.406,-48.361 -25.169,-74.387c-1.926,-28.432 3.428,-56.977 14.098,-83.309c9.252,-22.832 23.689,-43.007 41.199,-60.229c17.739,-17.448 38.215,-31.079 58.405,-45.418c10.45,-7.421 21.349,-14.172 31.574,-21.916c9.244,-7 19.13,-14.506 22.612,-26.003c0.505,-1.655 -1.688,-1.646 -2.527,-0.9Z" style="fill:#010101;fill-rule:nonzero;"/><path d="M283.249,66.925c2.197,21.72 26.787,30.748 43.674,39.111c21.458,10.627 42.527,23.674 60.805,39.185c18.936,16.07 34.655,35.548 46.426,57.403c14.06,26.106 19.766,54.008 22.096,83.347c1.102,13.871 2.235,28.049 2.013,41.969c-0.166,10.329 -3.045,20.729 -6.892,30.25c-8.165,20.21 -22.496,39.551 -40.152,51.279c-8.33,5.535 -16.5,8.576 -26.32,10.643c2.014,-0.424 -1.129,0.187 -1.236,0.206c-0.991,0.179 -1.986,0.336 -2.981,0.492c-2.116,0.335 -4.241,0.605 -6.368,0.86c-5.079,0.608 -10.186,0.976 -15.294,1.232c-20.917,1.048 -42.389,-0.263 -62.655,-5.793c-7.699,-2.101 -17.027,-6.09 -22.124,-10.56c-4.132,-3.625 -9.702,-2.327 -13.61,1.102c-3.055,2.682 -6.978,9.74 -2.86,13.352c14.76,12.947 35.531,17.158 54.492,19.411c20.897,2.484 42.508,2.447 63.349,-0.567c22.127,-3.199 41.317,-12.348 57.769,-27.583c18.212,-16.866 31.599,-38.7 38.987,-62.329c3.301,-10.555 4.877,-21.83 4.35,-32.883c-0.697,-14.637 -1.504,-29.302 -2.906,-43.889c-1.397,-14.514 -3.759,-28.949 -7.527,-43.042c-3.781,-14.143 -9.763,-27.129 -17.042,-39.781c-25.06,-43.559 -64.754,-75.892 -110.322,-96.356c-9.454,-4.246 -19.298,-7.532 -28.567,-12.208c-8.427,-4.251 -17.213,-9.374 -22.284,-17.618c-1.363,-2.205 -5.01,0.907 -4.821,2.767Z" style="fill:#010101;fill-rule:nonzero;"/><path d="M185.086,110.32c-24.306,6.924 -43.301,25.033 -54.809,47.217c-4.517,8.705 -8.058,20.171 -1.137,28.603c2.422,2.951 6.39,3.28 9.903,3.334c5.905,0.09 11.79,-0.077 17.708,0.083c12.224,0.33 24.678,-0.921 35.357,-7.344c8.686,-5.225 15.009,-13.748 20.378,-22.162c5.909,-9.261 10.491,-19.376 13.692,-29.874c2.668,-8.751 4.178,-19.654 -0.978,-27.759c-1.138,-1.788 -2.548,-2.839 -4.496,-3.614c-4.02,-1.6 -10.408,2.137 -9.674,6.956c0.983,6.454 2.604,12.04 1.54,18.684c-1.339,8.356 -4.619,16.288 -8.335,23.836c-3.152,6.403 -6.755,12.711 -11.181,18.327c-6.187,7.849 -15.135,10.081 -24.719,10.863c-5.053,0.413 -10.148,0.326 -15.212,0.242c-4.21,-0.069 -8.601,0.782 -12.778,0.414c-2.385,-0.21 -3.549,-3.35 -3.827,-5.39c-0.611,-4.48 1.61,-9.418 3.361,-13.408c8.433,-19.218 25.773,-36.531 45.474,-44.031c2.827,-1.076 3.67,-6.098 -0.267,-4.977Z" style="fill:#010101;fill-rule:nonzero;"/><path d="M55.512,325.394c0.508,18.672 10.886,35.049 23.639,48.081c13.547,13.845 30.558,23.59 48.737,30.014c18.519,6.542 38.841,8.524 58.189,4.954c9.786,-1.806 19.084,-5.067 27.952,-9.569c9.334,-4.738 16.581,-11.488 22.369,-20.063c1.625,-2.406 -0.338,-5.269 -3.092,-3.525c-7.085,4.484 -14.525,8.608 -21.891,12.65c-7.457,4.092 -15.75,6.841 -24.105,8.373c-17.688,3.242 -35.472,0.841 -52.604,-4.025c-16.895,-4.798 -32.787,-13.252 -46.679,-23.933c-13.671,-10.511 -28.299,-25.693 -30.626,-43.562c-0.159,-1.238 -1.915,-0.352 -1.889,0.605Z" style="fill:#010101;fill-rule:nonzero;"/><path d="M291.458,391.404c15.033,10.719 34.365,11.426 52.29,10.091c17.67,-1.315 34.758,-4.678 50.752,-12.546c14.238,-7.003 26.586,-18.125 34.636,-31.824c7.622,-12.972 13.743,-32.186 8.494,-47.053c-1.016,-2.878 -4.934,-0.148 -5.362,1.729c-1.749,7.648 -2.182,15.561 -3.935,23.235c-1.552,6.798 -4.259,13.306 -7.683,19.366c-6.61,11.705 -17.479,20.406 -29.165,26.666c-13.782,7.382 -29.295,10.49 -44.615,12.78c-17.495,2.615 -37.978,4.664 -54.367,-3.823c-0.737,-0.383 -1.815,0.829 -1.045,1.379Z" style="fill:#010101;fill-rule:nonzero;"/></g></svg>