<?xml version="1.0" encoding="utf-8"?>
<!-- Generator: Adobe Illustrator 17.0.0, SVG Export Plug-In . SVG Version: 6.00 Build 0)  -->
<!DOCTYPE svg PUBLIC "-//W3C//DTD SVG 1.0//EN" "http://www.w3.org/TR/2001/REC-SVG-20010904/DTD/svg10.dtd">
<svg version="1.0" id="Layer_1" xmlns="http://www.w3.org/2000/svg" xmlns:xlink="http://www.w3.org/1999/xlink" x="0px" y="0px"
	 width="566.93px" height="566.93px" viewBox="0 0 566.93 566.93" enable-background="new 0 0 566.93 566.93" xml:space="preserve">
<path fill="#010101" d="M117.742,280.879c-1.117,1.339-3.955,4.758-0.897,5.655c0.522,0.153,1.084-0.031,1.541-0.384
	c0.158,0.092,0.361,0.153,0.629,0.159c26.912,0.658,53.854-0.141,80.766-0.5c29.424-0.393,58.852-0.26,88.273-0.784
	c31.516-0.562,63.021-1.595,94.539-2.042c15.697-0.222,31.396-0.11,47.092-0.4c14.838-0.274,29.94-1.284,44.803-0.398
	c0.082,0.475,0.426,0.827,1.173,0.876c1.299,0.084,2.594,0.168,3.893,0.229c0.787,0.038,1.733-0.27,2.442-0.824
	c0.126,0.164,0.269,0.32,0.449,0.464c2.023,1.614,4.654-0.498,4.783-2.748c1.684-29.393-0.412-58.997-0.316-88.427
	c0.049-14.824,0.258-29.646,0.436-44.469c0.082-6.772,0.102-13.545,0.127-20.318c0.021-5.81,1.127-13.441-0.973-18.928
	c-0.23-0.604-0.982-0.01-1.096,0.353c-1.76,5.571-0.965,12.176-1.152,17.965c-0.219,6.781-0.336,13.568-0.486,20.351
	c-0.332,14.842-0.635,29.686-0.846,44.53c-0.209,14.773-0.236,29.55,0.039,44.323c0.26,14.02-0.112,27.778-0.729,41.727
	c-0.148,0.112-0.287,0.236-0.419,0.367c-0.71-0.875-1.796-1.651-2.375-2.171c-0.732-0.657-1.51-1.364-2.335-2.012
	c1.008-2.258,0.757-4.796-1.671-5.614c0.893-0.651,1.673-1.498,2.189-2.444c1.826-3.351,0.311-8.116,0.023-11.757
	c-1.205-15.271-2.549-30.531-3.764-45.802c-1.225-15.405-2.059-30.833-1.969-46.291c0.043-7.506,0.496-14.976,1.123-22.453
	c0.611-7.278,3.15-15.359,2.523-22.609c-0.08-0.924-0.663-1.12-1.305-0.969c-0.502-0.432-1.183-0.767-2.075-0.966
	c-4.148-0.921-8.607-0.279-12.814-0.112c-7.826,0.312-15.699,0.119-23.531,0.19c-15.686,0.143-31.369,0.581-47.047,1.053
	c-30.863,0.928-61.688,2.157-92.572,1.799c-30.24-0.351-60.488-0.111-90.727-0.558c-26.799-0.396-53.895,5.393-80.434-0.061
	c-1.644-0.338-3.336,0.573-4.451,1.877c-0.679,0.395-1.243,1.042-1.346,1.756c-1.889,12.945-0.529,26.805-0.195,39.845
	c0.348,13.629,0.699,27.246,0.51,40.881c-0.188,13.463-0.619,26.919-0.418,40.385c0.098,6.412,0.404,12.818,0.902,19.213
	c0.238,3.049,1.23,6.7,0.787,9.736c-0.275,1.898-1.014,3.822-0.275,5.705c0.129,0.331,0.279,0.618,0.443,0.871
	c-0.107,0.126-0.188,0.22-0.218,0.254C119.752,278.539,118.727,279.696,117.742,280.879z M387.299,279.407
	c-32.184,0.39-64.355,1.472-96.537,2.098c-57.057,1.11-114.137,0.783-171.191,2.218c-0.142,0.004-0.276,0.037-0.407,0.083
	c-0.021-0.04-0.044-0.08-0.071-0.119c-0.001-0.011-0.005-0.036-0.009-0.099c0.01,0.146,0.068-0.321,0.16-0.466
	c0.615-0.946,1.359-1.813,2.078-2.681c0.465-0.563,1.097-1.228,1.664-1.944c2.185,0.352,4.982-1.713,6.345-4.006
	c8.095,2.033,16.903,2.1,25.07,2.287c12.721,0.292,25.445-0.385,38.145-1.008c30.111-1.476,60.32-1.388,90.459-0.936
	c62.865,0.943,125.779,0.704,188.621,2.598c1.329,0.04,2.553-0.508,3.548-1.359c0.598,0.662,1.202,1.318,1.796,1.98
	c0.051,0.057,0.103,0.12,0.154,0.181C447.215,279.226,417.216,279.044,387.299,279.407z M157.979,127.9
	c13.213-0.427,26.375-1.753,39.605-1.546c30.875,0.482,61.75,0.098,92.623,0.666c30.814,0.567,61.684-0.273,92.488-1.105
	c15.67-0.422,31.344-0.802,47.02-0.951c7.818-0.074,15.633-0.037,23.449,0.118c4.895,0.098,9.998,1.2,14.871,0.542
	c0.457-0.001,0.912-0.068,1.36-0.188c-0.629,2.744-1.076,5.54-1.559,8.177c-1.191,6.497-1.842,13.052-2.338,19.633
	c-1.027,13.629-0.844,27.32-0.313,40.966c0.531,13.671,1.563,27.318,2.504,40.965c0.434,6.29,0.844,12.582,1.191,18.878
	c0.113,2.06,0.227,4.104,0.412,6.16c0.062,0.682,0.191,1.45,0.203,2.176c-1.037,1.107-1.607,2.605-1.104,3.99
	c0.163,0.448,0.368,0.815,0.59,1.146c-53.633-0.819-107.282-0.165-160.92-0.559c0.548-0.707,0.973-1.698,0.562-2.483
	c-1.557-2.974-5.316-4.483-7.877-6.479c-4.633-3.611-9.666-6.715-14.701-9.725c-10.43-6.233-21.107-11.99-31.352-18.539
	c-9.129-5.836-18.174-11.554-27.916-16.313c-0.939-0.458-10.589-6.46-11.197-3.717c-0.723,3.264,7.898,6.007,10.096,7.152
	c8.672,4.522,16.85,9.668,24.998,15.076c9.141,6.066,18.559,11.633,28.002,17.209c4.604,2.719,9.141,5.539,13.551,8.563
	c2.252,1.545,4.416,3.217,6.533,4.941c0.579,0.472,3.605,2.668,4.541,3.83c-0.055,0.147-0.1,0.295-0.121,0.438
	c-4.831-0.042-9.662-0.075-14.492-0.137c-29.784-0.383-59.639-0.267-89.395,1.235c0.923-1.628,1.411-3.668,1.971-5.28
	c2.035-5.854,3.859-11.78,5.664-17.708c2.021-6.635,4.014-13.277,5.977-19.931c0.59-1.998,3.994-9.47,2.158-11.341
	c-0.566-0.577-1.414-0.284-1.957,0.158c-2.313,1.878-2.896,7.227-3.758,9.896c-1.951,6.052-4.086,12.046-6.223,18.034
	c-2.045,5.734-4.203,11.433-6.441,17.094c-0.73,1.846-1.479,3.678-2.322,5.475c-0.271,0.577-0.768,1.18-1.039,1.826
	c-0.57,1.362-0.483,1.261-0.175,0.79c-0.193,0.432-0.308,0.891-0.333,1.339c-10.181,0.575-20.36,1.239-30.554,1.504
	c-11.179,0.291-21.988-0.587-33-1.963c-1.926-9.834-1.815-20.913-2.119-30.785c-0.393-12.748-0.162-25.51-0.166-38.262
	c-0.006-12.909-0.475-25.804-1.184-38.692c-0.354-6.455-0.74-12.907-1.102-19.361c-0.288-5.143-0.258-10.41-0.669-15.589
	C134.898,128.399,146.782,128.261,157.979,127.9z"/>
<path fill="#010101" d="M109.388,283.162c-0.312,0.428-0.444,0.928-0.205,1.343c0.379,0.493,0.652,1.031,0.817,1.613
	c0.046,0.201,0.085,0.405,0.132,0.606c0.549,2.027,4.018,0.033,3.742-1.655c-4.744-29.204-1.697-59.018-1.707-88.508
	c-0.011-28.728-0.033-57.437,0.306-86.163c12.533,3.105,25.873,2.28,38.628,1.375c13.943-0.986,27.77-2.586,41.771-2.288
	c32.645,0.693,65.291-1.431,97.939-1.333c32.785,0.098,65.564,0.832,98.348,1.202c16.393,0.186,32.789,0.237,49.182,0.069
	c7.205-0.073,14.426-0.086,21.621-0.486c6.009-0.334,12.093-0.892,18.079-0.177c1.157,0.249,2.285,0.468,3.488,0.559
	c0.003,0.001,0.007,0.001,0.011,0.002c0,0,0,0,0-0.001c2.342,0.174,5.373-3.999,2.174-4.611c-5.9-1.129-11.879-0.913-17.846-0.558
	c-7.557,0.45-15.086,0.739-22.656,0.901c-16.422,0.351-32.852,0.423-49.277,0.39c-32.805-0.065-65.604-0.712-98.406-0.86
	c-32.674-0.148-65.316,1.734-97.984,1.428c-14.209-0.133-28.156,0.798-42.301,2.107c-14.037,1.3-28.061,2.099-42.016-0.38
	c-0.353-0.062-0.719,0.055-1.038,0.267c-0.617-0.394-1.999,0.277-2.071,1.108c-2.557,29.385-1.367,59.086-1.371,88.546
	c0,15.194-0.236,30.372-0.811,45.555C107.442,256.279,106.936,270.164,109.388,283.162z"/>
<path fill="#010101" d="M19.922,159.926c2.588,0.226,5.201,0.317,7.827,0.336c-1.811,5.043-1.291,10.904-1.403,16.151
	c-0.02,0.907,0.947,1.619,1.813,1.461c3.297-0.604,6.584-1.047,9.898-1.526c1.805-0.261,3.291-1.689,3.346-3.556
	c0.082-2.9,0.211-5.804,0.145-8.706c-0.026-1.159-0.043-2.865-0.486-4.263c4.637-0.286,9.26-0.639,13.809-0.87
	c6.248-0.317,12.469-0.501,18.691-0.57c-1.523,4.285-0.111,10.012-0.964,14.184c-0.307,1.496,0.703,2.422,2.129,2.426
	c2.424,0.008,4.85-0.283,7.27-0.369c1.965-0.07,3.678-2.021,3.691-3.923c0.021-3.054,0.027-6.108-0.045-9.162
	c-0.02-0.859,0.034-2.01-0.066-3.127c1.543,0.021,3.085,0.036,4.632,0.07c4.995,1.014,9.068-8.118,2.642-8.281
	c-4.838-0.123-9.696-0.048-14.554,0.126c1.205-4.418,1.156-11.236,1.177-12.287c0.186-9.438,0.621-19.152-0.088-28.575
	c-0.082-1.087-1.064-1.966-2.189-1.766c-2.926,0.52-5.898-0.073-8.752,0.634c-0.28-0.373-0.688-0.642-1.191-0.725
	c-2.86-0.471-11.977-0.77-16.53,1.827c-0.761-3.693-2.195-7.491-5.126-9.546c-4.012-2.811-7.965-0.42-9.76,3.647
	c-0.257,0.584,0.042,0.892,0.454,0.937c-0.856,4.257-0.732,8.691-0.41,13.125c-1.902-0.6-4.021-0.335-6.056-0.397
	c-1.686-0.051-3.061,1.787-3.113,3.311c-0.388,11,0.567,21.888,1.227,32.835c-2.014,0.211-4.022,0.441-6.014,0.724
	C19.563,154.405,16.014,159.585,19.922,159.926z M35.877,166.781c0.064,1.682,0.02,3.364-0.009,5.046
	c-1.669,0.427-3.345,0.834-5.022,1.23c-0.151-4.271-0.281-8.538-0.422-12.806c1.519-0.02,3.039-0.059,4.562-0.12
	c-0.042,0.217-0.063,0.438-0.048,0.664C35.077,162.801,35.798,164.697,35.877,166.781z M79.208,158.366
	c-0.238,1.688,0.114,3.529,0.188,5.175c0.083,1.881,0.116,3.765,0.137,5.649c-0.625,0.101-1.249,0.204-1.874,0.295
	c-0.357-2.409-0.24-5.021-0.34-7.392c-0.049-1.147,0.141-2.457,0.186-3.721C78.073,158.37,78.641,158.366,79.208,158.366z
	 M69.01,150.76c-0.125-2.337,0.271-5.097,0.257-7.037c-0.027-3.817-0.055-7.635-0.084-11.451
	c-0.048-6.677,0.117-13.415-0.186-20.095c1.607,0.078,3.205,0.173,4.79,0.448c-0.439,7.341-0.224,14.785-0.411,22.128
	c-0.105,4.177-0.242,8.354-0.5,12.523c-0.068,1.099-0.221,2.197-0.299,3.295C71.388,150.631,70.199,150.694,69.01,150.76z
	 M62.999,112.687c-0.383,7.194-0.209,14.454-0.263,21.652c-0.027,3.835-0.057,7.67-0.084,11.506
	c-0.012,1.629-0.195,3.471-0.262,5.305c-1.336,0.082-2.671,0.166-4.004,0.248c-2.618,0.161-5.256,0.297-7.9,0.43
	c0.038-12.687,2.211-25.29,0.894-37.991c-0.011-0.108-0.025-0.222-0.037-0.332C54.76,111.703,59.192,111.875,62.999,112.687z
	 M44.037,105.892c1.1,2.099,1.451,4.601,1.801,6.907c0.729,4.808,0.545,9.766,0.307,14.603c-0.408,8.263-1.612,16.482-1.955,24.748
	c-1.016,0.053-2.031,0.11-3.047,0.168c0.245-0.484,0.392-1.019,0.424-1.55c0.031-0.49-0.033-0.846-0.167-1.174
	c-0.804-15.217-0.441-30.998-3.327-46.041C40.733,101.867,42.362,102.7,44.037,105.892z M36.157,121.083
	c0.225,2.71,0.441,5.402,0.466,8.033c0.045,4.855-0.527,9.727-0.631,14.582c-0.053,2.608-0.527,6.291,0.061,8.942
	c-0.659,0.046-1.317,0.1-1.976,0.151c-0.018-0.042-0.033-0.085-0.052-0.128c-1.46-10.215-1.662-20.635-2.041-30.941
	C33.376,121.509,34.764,121.282,36.157,121.083z"/>
<path fill="#010101" d="M302.615,10.316c-5.512-1.469-10.977-1.838-16.426-0.87c-8.471,0.191-17.205,5.89-23.005,11.195
	c-8.479,7.752-14.902,19.443-16.232,30.878c-2.607,22.435,16.754,37.67,37.322,39.984c21.264,2.392,42.076-9.995,48.811-30.42
	c3.451-10.468,1.748-23.82-3.994-33.155C323.196,18.345,313.207,13.138,302.615,10.316z M322.651,61.928
	c-2.43,8.464-9.857,14.606-17.842,17.557c-16.779,6.201-39.885-1.054-46.742-18.389c-3.604-9.109-0.867-19.34,4.066-27.367
	c1.572-2.56,3.368-4.962,5.353-7.196c3.491-0.532,6.819-2.621,9.921-4.18c4.67-2.348,9.277-3.617,14.529-3.058
	c9.721,1.034,19.623,5.578,25.877,13.153C324.301,40.304,325.377,52.434,322.651,61.928z"/>
<path fill="#010101" d="M292.507,51.134c0.187-0.237,0.358-0.49,0.522-0.753c0.114-0.112,0.228-0.233,0.348-0.39
	c0.25-0.33,0.459-0.757,0.666-1.13c0.688-1.244,0.254-3.242-1.375-3.429c-1.233-0.141-2.548-0.025-3.737,0.405
	c-0.281-0.441-0.788-0.769-1.232-1.187c-1.57-1.477-3.348-2.755-5.078-4.033c-3.887-2.874-7.764-5.865-11.826-8.488
	c-0.199-0.128-0.557,0.221-0.379,0.406c2.791,2.908,6.475,5.126,9.68,7.541c2.465,1.857,5.541,3.909,7.502,6.424
	c-0.022,0.014-0.046,0.025-0.067,0.04c-0.553,0.256-0.991,0.655-1.3,1.161c-0.546,0.617-1.023,1.365-1.109,2.141
	c-0.075,0.663-0.035,1.321,0.243,1.863c-0.015,0.276-0.027,0.552-0.038,0.825c-0.033,0.833,0.686,1.517,1.455,1.659
	c0.93,0.172,1.941-0.238,2.621-0.86c0.063-0.057,0.179-0.149,0.288-0.234c0.127-0.036,0.254-0.071,0.378-0.118
	c0.575-0.22,1.064-0.519,1.498-0.874c0.332,3.324,1.659,6.584,2.713,9.71c0.852,2.525,3.113,7.105,1.877,9.785
	c-0.162,0.353,0.109,0.707,0.496,0.565c2.857-1.042,0.924-5.911,0.332-7.776C295.576,59.947,293.593,55.67,292.507,51.134z
	 M291.787,49.299c-0.004,0.016-0.011,0.03-0.015,0.045c0-0.001,0-0.001,0-0.002C291.776,49.327,291.783,49.314,291.787,49.299z"/>
<path fill="#010101" d="M556.108,153.233c-0.125-1.361-1.328-2.495-2.764-2.229c-4.79,0.886-9.751,1.354-14.525,2.343
	c-0.268-1.413-0.565-2.816-0.936-4.187c-0.4-1.477-2.25-1.566-3.424-1.249c-3.614,0.978-7.301,0.754-10.835,1.92
	c-0.742-1.925-1.793-3.671-3.323-5.014c-3.553-3.116-8.701-3.459-12.111,0.269c-0.467,0.509-0.536,1.74,0.27,1.951
	c-2.486,14.695,1.126,29.589,0.195,44.381c-0.125,0.27-0.216,0.549-0.257,0.832c-0.063,0.427-0.101,0.803-0.112,1.176
	c-0.835,0.145-1.67,0.29-2.497,0.456c-1.707,0.342-4.658,4.125-1.979,4.706c-0.317,0.458-0.634,0.911-0.892,1.41
	c-0.506,0.982-0.881,1.965-0.844,3.281c0.027,0.916,0.346,2.088,0.973,2.803c0.031,0.036,0.07,0.057,0.104,0.091
	c0.102,0.298,0.322,0.555,0.717,0.726c0.164,0.071,0.335,0.128,0.501,0.194c-0.682,2.397-0.96,4.975-1.173,7.41
	c-0.074,0.832-0.141,1.664-0.197,2.498c-0.027,0.401-0.047,0.804-0.066,1.206c-0.004,0.1-0.013,0.186-0.023,0.259
	c0.039-0.084,0.086-0.179,0.156-0.295c-0.064,0.107-0.113,0.215-0.161,0.323c-0.042,0.268-0.107,0.343-0.092,0.243
	c-0.248,0.742-0.136,1.47,0.215,2.057c-0.158,0.035-0.318,0.069-0.476,0.103c-1.248,0.272-2.322,2.537-0.635,2.963
	c2.879,0.727,5.727,1.33,8.707,1.447c0.695,0.028,1.335-0.229,1.883-0.636c1.279-0.111,2.691-0.977,3.359-1.854
	c1.809-2.373,1.061-5.305,0.783-8.073c-0.203-2.034-0.436-4.136-0.878-6.173c3.723-0.153,7.458-0.674,10.798-1.019
	c6.4-0.66,12.805-1.493,19.232-1.823c-0.918,3.755-0.426,8.049,0.204,11.673c0.307,1.772,1.579,2.27,2.931,2.02
	c-1.046,0.597-2.484,2.516-0.894,3.246c1.924,0.883,4.029,1.322,6.164,1.281c2.763-0.054,4.785-4.134,2.78-5.456
	c0.799-0.698,1.423-1.53,1.601-2.213c0.506-1.944-0.172-4.469-0.367-6.438c-0.143-1.436-0.273-3.188-0.79-4.696
	c1.981-0.823,3.68-2.568,3.39-4.81c-0.174-1.346-0.394-2.542-1.04-3.422c0.901-0.978,1.522-2.148,1.514-3.183
	c-0.004-0.519-0.123-1.012-0.273-1.508c-0.242-0.796-1.152-1.51-1.977-1.586c-1.187-0.11-2.373-0.195-3.56-0.264
	C554.375,178.012,557.231,165.569,556.108,153.233z M548.906,157.924c-0.959,10.361-1.53,20.799-1.767,31.202
	c-0.17,0.333-0.281,0.69-0.33,1.064c-2.433,0.026-4.866,0.107-7.299,0.235c3.009-4.43,1.45-13.649,1.2-17.691
	c-0.294-4.74-0.529-9.683-1.13-14.532C542.633,158.436,545.851,158.177,548.906,157.924z M531.456,153.863
	c0.952,7.053,1.324,14.231,1.593,21.327c0.146,3.848,0.316,7.785-0.043,11.627c-0.103,1.096-0.411,2.749-0.199,4.052
	c-0.184,0.014-0.369,0.027-0.553,0.041c-2.802,0.224-5.638,0.435-8.48,0.672c2.205-3.348,1.603-8.358,1.806-12.221
	c0.346-6.523,0.484-13.064-0.084-19.579c-0.174-1.99-0.394-4.178-0.836-6.317C526.936,153.554,529.225,153.459,531.456,153.863z
	 M517.147,151.284c1.84,4.974,1.826,10.706,1.783,15.932c-0.043,5.507-0.5,11.011-1.008,16.49c-0.197,2.14-1.305,6.23,0.064,8.412
	c-0.822,0.085-1.645,0.171-2.465,0.267c-1.866-15.069-3.3-30.219-5.375-45.262C513.751,147.145,515.455,146.721,517.147,151.284z
	 M511.223,208.531c-0.388,2.15-0.517,4.355-0.659,6.528c-0.082,1.237-0.411,2.886-0.578,4.484c-0.37,0.04-0.738,0.085-1.106,0.136
	c0.004-0.011,0.013-0.021,0.017-0.032c0.115-0.324,0.24-0.747,0.285-1.171c0.136-0.744,0.039-1.487-0.423-2.053
	c-0.037-0.272-0.071-0.545-0.104-0.818c-0.1-0.874-0.17-1.751-0.24-2.628c-0.119-1.485-0.18-3.209-0.439-4.846
	C509.033,208.331,510.121,208.456,511.223,208.531z M510.082,202.171c-0.076-0.295-0.186-0.588-0.371-0.87
	c-0.392-0.593-1.118-1.074-1.827-1.26c-0.021-0.026-0.039-0.047-0.05-0.058c-0.148-0.397-0.161-0.765-0.316-1.134
	c6.638,0.198,13.427-0.715,20-1.111c8.396-0.507,16.85-0.791,25.232,0.017c-7.05,0.301-14.024,1.289-21.027,2.286
	C524.649,201.05,517.203,201.131,510.082,202.171z M553.377,205.629c-0.585,1.72-0.756,3.632-0.947,5.385
	c-0.086,0.784-0.236,1.679-0.365,2.602c-0.858-2.502-0.916-5.429-1.563-8.026C551.459,205.584,552.418,205.602,553.377,205.629z
	 M551.917,217.573c0.041,0.278,0.096,0.547,0.173,0.802c0.008,0.027,0.021,0.046,0.03,0.072c-0.632,0.137-1.249,0.31-1.854,0.499
	C550.903,218.607,551.484,218.132,551.917,217.573z"/>
<path fill="#010101" d="M502.907,218.467c-0.06,0.129-0.09,0.222-0.097,0.271c0.027-0.081,0.056-0.162,0.092-0.243
	C502.904,218.485,502.906,218.478,502.907,218.467z"/>
<path fill="#010101" d="M197.284,409.821C197.453,409.796,197.446,409.778,197.284,409.821L197.284,409.821z"/>
<path fill="#010101" d="M70.766,434.254c4.063-1.375,8.323-2.088,12.623-2.49c-0.8,2.279-0.637,5.431-0.833,7.625
	c-0.67,7.518-0.033,15.462-0.035,23.022c-0.002,8.9,0.502,17.786,0.441,26.695c-0.031,4.482-0.057,8.965,0,13.448
	c0.068,5.39,1.303,11.381,0.571,16.706c0,0.002-0.001,0.005-0.002,0.007c0,0,0.001,0,0.001,0c0,0,0,0,0,0
	c-0.641,4.646,6.053,2.556,6.256-1.265c0.093-1.707,0.169-2.968-1.143-4.089c-0.809-4.194-0.482-9.043-0.579-12.996
	c-0.123-5.114-0.066-10.233-0.053-15.35c0.029-10.729-0.563-21.437-0.65-32.165c-0.057-6.767,0.035-13.764-0.416-20.498
	c-0.035-0.533-0.148-0.995-0.304-1.39c2.675-0.163,5.35-0.244,7.989-0.305c2.521-0.058,5.042-0.059,7.563-0.042
	c-1.084,10.254-0.362,21.028-0.526,31.278c-0.094,5.942-0.189,11.884-0.283,17.826c-0.096,6.048,0.768,13.149-0.805,19.019
	c-1.285,4.807,8.311,3.073,6.67-2.148c-1.539-4.906-0.6-11.455-0.682-16.565c-0.096-5.88-0.189-11.759-0.285-17.639
	c-0.166-10.334,0.667-21.359-0.432-31.732c0.434,0.006,0.869,0.007,1.303,0.014c2.366,0.038,5.054,0.422,7.582,0.358
	c0.64,3.643,1.733,7.385,3.742,8.17c-0.427,0.63-0.594,1.398-0.068,1.961c4.453,4.769,14.549,4.506,20.57,4.776
	c8.707,0.391,17.451-0.408,26.107-1.28c0.031-0.003,0.062-0.007,0.093-0.01c0.074,5.196,0.226,10.455,0.046,15.661
	c-0.62-0.357-1.338-0.562-2.036-0.542c-3.256,0.092-6.508,0.713-9.732,1.135c-7.211,0.943-14.396,2.146-21.559,3.4
	c-1.508,0.265-3.291,1.376-3.494,3.066c-0.459,3.813-4.459,6.807-6.331,10.336c-0.226,0.172-0.412,0.383-0.56,0.618
	c-0.017,0.001-0.033,0.002-0.05,0.003c-0.497,0.03-0.812,0.418-0.914,0.808c-0.141,0.378-0.075,0.75,0.336,0.795
	c0.033,0.008,0.067,0.012,0.104,0.015c0.008,0.001,0.017,0.001,0.025,0.002c0.014,0.121,0.044,0.237,0.093,0.346
	c-0.914,0.637-1.663,1.47-2.209,2.487c-1.531,2.848,0.078,7.163,3.063,8.328c0.396,0.155,0.791,0.22,1.18,0.224
	c0.005,0.015,0.011,0.031,0.017,0.046c0.242,0.663,0.879,0.834,1.508,0.842c1.182,0.015,2.369,0.002,3.559-0.026
	c-0.444,6.956,1.141,14.263,1.504,21.24c0.232,4.477,0.412,8.952,0.586,13.432c0.049,1.257-0.447,7.999,0.326,12.267
	c-3.352-0.34-6.482,0.918-9.379,2.848c-1.049,0.697-2.604,2.925-0.82,3.824c9.064,4.571,23.674,0.89,32.369-3.104
	c1.799-0.825,3.051-4.327,0.402-4.891c-3.437-0.73-7.928-1.696-11.768-1.071c-0.14-1.176-0.163-2.407-0.293-3.44
	c-0.568-4.462-1.119-8.926-1.654-13.392c-1.11-9.303-1.812-18.887-3.366-28.123c6.432-0.486,12.897-1.243,19.235-1.598
	c12.27-0.689,24.5-1.201,36.783-1.608c5.02-0.166,9.676-0.104,14.666,0.348c0.83,0.075,1.669,0.147,2.511,0.204
	c-3.299,8.591-2.909,18.485-2.8,27.534c0.061,5.018,0.326,10.034,0.334,15.053c0.002,1.392-0.467,3.663-0.404,5.634
	c-3.565-0.25-7.206,0.59-10.62,1.549c-1.336,0.375-2.297,1.672-2.342,3.027c-0.154,4.793,4.988,3.935,8.602,4.096
	c7.32,0.325,14.369-0.59,21.344-2.791c1.227-0.387,2.682-1.63,2.822-3c0.047-0.451,0.109-0.9,0.174-1.349
	c0.174-1.168-0.279-2.691-1.707-2.797c-2.246-0.166-4.526-0.449-6.672-0.235c-0.864-15.584-0.214-31.386-2.256-46.856
	c0.795-0.117,1.585-0.273,2.362-0.503c6.396-1.889,9.9-12.109,3.85-15.402c0.041-0.609-0.11-1.204-0.546-1.707
	c-0.012-0.013-0.021-0.024-0.033-0.037c-0.509-0.588-1.4-0.814-2.188-0.7c-0.179,0.003-0.356,0.01-0.535,0.015
	c0.164-0.454,0.246-0.91,0.194-1.342c-0.518-4.312-4.613-7.884-6.676-11.569c-0.57-1.02-1.555-1.817-2.826-1.578
	c-6.154,1.16-12.885,0.689-19.164,1.262c-5.625,0.513-11.307,1.012-16.873,2.036c-0.348-5.22-0.381-10.496-0.514-15.724
	c14.288-1.859,29.01-4.466,43.222-3.038c0.28,0.036,0.567,0.065,0.867,0.08c0.79,0.039,1.561-0.094,2.289-0.354
	c1.218,0.177,2.651-0.278,3.577-0.745c3.931-1.987,4.979-7.055,5.217-12.034c6.004,0.813,12.759-0.277,18.44-0.528
	c3.975-0.175,7.976-0.434,11.98-0.622c-1.847,10.353-0.878,21.707-0.963,32.122c-0.098,12.13,0.834,24.819-1.109,36.804
	c-0.423,2.611,1.416,3.399,3.353,3.023c-0.927,1.635-1.633,3.313-2.376,5.105c-0.563,1.354-1.145,2.698-1.748,4.034
	c-0.213,0.479-0.449,0.945-0.711,1.399c-0.003,0.004-0.004,0.005-0.006,0.009c-1.581,1.31-2.516,3.53-1.234,5.211
	c0.039,0.051,0.078,0.102,0.117,0.152c1.037,1.36,3.1,0.881,4.357,0.233c4.303-2.216,5.176-9.458,6.438-13.601
	c2.662-8.732,10.82-15.102,13.383-23.966c0.388-1.337-1.37-1.361-2.06-0.732c-0.761,0.694-1.491,1.425-2.198,2.182
	c-1.766-8.27-2.248-16.751-2.47-25.201c-0.235-8.837,0.824-18.094-0.18-26.929c1.108,0.042,2.214,0.1,3.319,0.184
	c2.182,0.165,4.756-1.332,5.104-3.679c0.368-2.5,0.732-6.115-0.465-8.514c0.883-1.393,1.08-2.891-0.356-3.646
	c0.156-1.714,0.677-3.616,0.813-5.148c0.291-3.271,0.434-6.556,0.371-9.84c0.943,0.18,2.069-0.209,2.838-1.467
	c3.261-5.343,8.27-8.937,12.44-13.385c0.487-0.067,1.014-0.42,1.192-0.862c0.108-0.269,0.203-0.558,0.305-0.837
	c0.065-0.078,0.136-0.149,0.201-0.228c0.275-0.337,0.321-0.692,0.218-0.976c1.502-4.723,2.131-10.593,1.523-16.144
	c7.937,0.966,15.553-1.142,23.427-1.307c3.854-0.08,3.939-6.559-0.252-4.485c-3.512,1.735-8.932,1.473-12.76,1.756
	c-3.531,0.262-7.113,0.386-10.654,0.368c-0.12-0.001-0.241,0.021-0.361,0.053c-0.271-1.23-0.612-2.422-1.028-3.564
	c0.629-1.929,1.179-3.872,1.62-5.806c0.467-2.054-1.033-3.661-3.086-3.517c-2.174,0.152-4.383,0.914-6.555,0.542
	c-3.348-0.573-6.83-0.611-10.217-0.602c-7.236,0.021-14.469,1.26-21.594,2.402c-15.918,2.552-31.527,3.05-47.633,3.184
	c-16.662,0.138-33.314,0.828-49.977,1.075c-17.453,0.259-34.98,0.032-52.405,1.161c-1.783,0.118-3.93,3.787-1.543,4.095
	c-0.762,1.115-1.459,2.279-2.128,3.463c-1.219,0.019-2.464-0.093-3.614-0.116c-3.193-0.064-6.383,0.228-9.576,0.258
	c-9.105,0.088-18.174,0.869-27.264,1.357c-18.432,0.99-37.072,0.539-55.449,2.073c-0.809,0.067-1.854,1.77-0.644,1.874
	c20.088,1.721,40.977,0.087,61.08-0.943c9.74-0.499,19.707-1.648,29.445-0.563c0.946,0.105,2.105,0.342,3.316,0.535
	c-0.427,0.756-0.834,1.515-1.221,2.275c-1.302,2.17-2.843,4.545-4.618,5.79c-4.277,3,0.146,7.288,3.006,3.426
	c0.345-0.466,0.707-0.952,1.074-1.447c3.161,1.147,5.18-4.877,6.082-6.775c0.63-1.329,1.41-2.649,2.203-3.98
	c0.594-0.479,1.058-1.158,1.322-2.119c0.017-0.062,0.016-0.121,0.026-0.183c0.845-1.497,1.609-3.023,2.111-4.607
	c31.78,1.722,63.681-0.263,95.473-0.049c16.1,0.107,31.791,0.041,47.732-2.417c7.182-1.106,14.359-2.188,21.629-2.47
	c3.844-0.148,7.605,0.192,11.367,0.964c0.854,0.175,1.766,0.145,2.691,0.04c-2.027,6.527-5.482,14.554-10.027,17.424
	c-1.365,0.862-2.407,2.689-2.352,4.147c-1.366-1.732-5.123-1.121-6.91-1.079c-4.797,0.111-9.588,0.417-14.385,0.544
	c-18.568,0.491-37.232,2.703-55.773,3.914c-19.023,1.242-38.051,2.442-57.092,3.358c-9.859,0.474-19.721,0.813-29.584,1.189
	c-9.854,0.377-19.977-0.055-29.766,1.101c-1.163,0.136-2.695,2.048-2.213,3.042c-3.089,3.869-4.892,9.21-6.611,13.543
	c-2.625,6.613-4.918,13.379-7.885,19.85c-0.495,1.078-0.349,2.432,0.389,3.198c0.083,2.542,0.805,5.1,0.494,7.582
	C67.633,433.695,69.006,434.849,70.766,434.254z M128.755,543.651c0.906-0.165,1.848-0.28,2.858-0.355
	c0.225-0.016,0.452-0.093,0.67-0.205c0.315,0.157,0.675,0.189,1.09,0.056c1.91-0.61,2.418-3,2.338-4.73
	c-0.109-2.344-0.247-4.687-0.373-7.03c0.185,1.946,0.37,3.892,0.555,5.838c0.09,0.945,0.085,1.892,0.111,2.837
	c-0.052,0.059-0.111,0.107-0.162,0.167c-0.672,0.804-0.635,1.835,0.17,2.476c0.096,0.077,0.192,0.126,0.288,0.191
	c0.003,0.015,0.005,0.031,0.009,0.046c0.033,0.143,0.079,0.27,0.132,0.386C133.802,543.731,131.179,543.879,128.755,543.651z
	 M132.356,498.568c-0.379-2.071-0.904-4.071-1.669-5.922c0.822-0.036,1.645-0.073,2.469-0.122
	C132.695,494.478,132.446,496.501,132.356,498.568z M207.98,541.351c-0.347,0.016-0.692,0.031-1.037,0.045
	c0.275-0.061,0.55-0.128,0.825-0.193C207.838,541.253,207.903,541.307,207.98,541.351z M212.418,538.948
	c-0.481,0.548-0.894,1.403-0.936,2.17c-0.542,0.047-1.083,0.091-1.624,0.126c0.184-0.102,0.352-0.223,0.493-0.357
	c2.291-2.187,1.787-4.961,1.521-7.886c-0.434-4.747-0.564-9.544-0.807-14.304c-0.495-9.696-0.143-19.26,0.273-28.926
	c0.699,0.019,1.397,0.013,2.093-0.014C210.526,505.929,212.966,522.594,212.418,538.948z M217.932,482.629
	c-0.793,1.201-4.059,0.744-5.238,0.735c-3.789-0.031-7.547-0.714-11.334-0.778c-10.756-0.186-22.133,0.621-32.836,1.738
	c-9.768,1.02-19.576,1.601-29.354,2.518c-1.095,0.102-7.72,0.37-12.162,1.53c0.077-0.587-0.049-1.154-0.522-1.572
	c-0.924-0.815-3.035-1.69-3.176-3.043c-0.041-0.392,0.958-1.235,1.721-1.786c2.459,0.128,5.094-0.112,7.373-0.093
	c5.105,0.042,10.225-0.171,15.324-0.382c9.527-0.393,18.984-1.642,28.5-2.054c8.781-0.379,17.582-0.453,26.352-1.061
	c3.396-0.236,6.828-1.15,10.229-0.975c1.053,0.054,2.091,0.148,3.125,0.17c0.066,0.095,0.129,0.19,0.216,0.281
	C217.448,479.208,219.295,480.568,217.932,482.629z M187.117,463.846c5.691-0.399,12.787-1.591,18.534-0.253
	c1.467,2.745,3.119,5.6,4.918,8.177c-2.237,0.228-4.476,0.488-6.729,0.72c-8.754,0.904-17.645,0.936-26.432,1.437
	c-9.564,0.546-19.064,2.022-28.633,2.673c-4.484,0.305-8.979,0.498-13.471,0.656c-2.737,0.096-5.696-0.04-8.547,0.127
	c0.387-0.426,0.771-0.864,1.165-1.311c1.041-1.183,1.969-2.434,2.896-3.705c0.828-1.136,0.346-1.895,0.764-1.932
	c3.311-0.301,6.604-0.865,9.898-1.318c4.199-0.577,8.404-1.12,12.623-1.559c2.904-0.301,6.129,0.284,8.955-0.352
	c0.366-0.083,1.103-0.371,1.819-0.819c-0.073,0.781-0.14,1.562-0.237,2.338c-0.028,0.226-0.043,0.441-0.048,0.646
	c-0.014,0.168-0.038,0.327-0.047,0.5c0.02-0.006,0.04-0.013,0.06-0.019c0.377,5.494,9.76,2.462,9.435-3.025
	c-0.015-0.254-0.048-0.503-0.088-0.749c-0.068-0.533-0.13-1.068-0.188-1.604C178.214,464.598,182.69,464.156,187.117,463.846z
	 M109.727,425.228c-4.609-0.057-9.217-0.059-13.826,0.055c-7.792,0.191-16.014,0.625-23.483,3.131
	c-0.45-1.159-0.689-2.521-0.86-3.854c10.18-1.316,20.397-0.563,30.648-0.884c3.511-0.11,7.728,0.182,11.432-0.525
	c0.053,0.467,0.109,0.934,0.179,1.402c0.022,0.15,0.046,0.335,0.071,0.538C112.453,425.145,111.029,425.244,109.727,425.228z
	 M112.822,416.829c0.085-0.056,0.184-0.114,0.301-0.171C113.02,416.709,112.92,416.766,112.822,416.829z M172.699,435.51
	c0.058-5.171,0.25-10.777-0.767-15.704c1.81-0.093,3.623-0.201,5.441-0.337c4.375-0.327,8.834-0.73,13.191-0.09
	c3.541,0.52,6.164,1.02,9.273-1.264c2.82-2.071,3.49-7.157-0.516-8.172c-0.937-0.237-1.826-0.095-2.721,0.137
	c0.321-0.147,0.553-0.225,0.683-0.26c-0.193,0.029-0.613,0.065-1.293,0.022c-1.494-0.096-2.99-0.182-4.488-0.231
	c-5.195-0.172-10.543,0.689-15.689,1.3c-5.984,0.711-11.971,0.919-17.984,1.226c-5.369,0.272-11.299,0.663-15.982,3.503
	c-1.512,0.915-2.891,3.853-0.367,4.477c5.107,1.261,11.176,0.146,16.42,0.092c2.608-0.027,5.201-0.082,7.791-0.158
	c-1.088,5.253-0.804,11.046-0.63,16.518c-7.03,0.925-14.083,1.655-21.173,1.937c-4.477,0.178-8.932,0.301-13.41,0.074
	c-2.87-0.145-5.671-0.536-8.485-0.256c0.539-0.701,0.872-1.538,0.895-2.44c0.063-2.504-1.1-5.392-1.884-7.951
	c0.254-0.794,0.175-1.55-0.544-2.019c-0.487-1.992-0.939-4.011-1.275-6.047c0.747-1.453,0.822-3.181-0.493-4.219
	c-0.028-0.454-0.05-0.909-0.059-1.364c-0.084-4.258,1.451-8.382,2.25-12.578c9.892,1.857,20.951,0.201,30.828-0.502
	c8.289-0.588,16.598-0.718,24.861-1.603c7.309-0.782,14.58-1.801,21.918-2.301c3.238-0.22,6.514-0.355,9.754-0.104
	c2.223,0.172,4.273,1.113,6.449,1.26c0.491,0.033,1.046-0.039,1.617-0.189c1.183,4.456,2.721,8.795,3.276,13.512
	c0.459,3.909,0.299,7.673-0.041,11.574c-0.233,2.665-0.51,5.341-0.995,7.976C203.094,431.42,187.976,433.333,172.699,435.51z
	 M228.072,423.301c-0.022-1.338-0.055-2.58-0.045-3.637c0-0.101-0.001-0.211,0-0.313c6.966,1.199,14.77,0.192,21.625-0.108
	c4.365-0.191,8.723-0.509,13.086-0.76c2.958-0.171,6.096-0.031,9.125-0.225c0.096,0.766,0.256,1.527,0.396,2.301
	c-7.544,0.508-15.106,0.811-22.649,1.332C242.713,422.366,235.03,421.951,228.072,423.301z M267.914,485.433
	c0.035,0.262,0.097,0.49,0.171,0.7c-1.617,2.338-3.15,4.743-4.669,7.119c-1.736-10.992-0.875-22.597-0.965-33.702
	c-0.047-5.886-0.133-11.771-0.227-17.655c-0.08-4.954,0.133-10.056-0.662-14.973c2.032-0.07,4.064-0.113,6.092-0.101
	c-1.173,8.754-1.024,17.87-1.251,26.654C266.131,464.183,266.479,474.808,267.914,485.433z M279.895,377.764
	c6.018-0.039,9.549-6.502,12.074-11.098c0.896-1.631,1.724-3.335,2.492-5.077c0.094,1.331,0.141,2.668,0.164,4.001
	c0.074,4.307-0.854,8.735-0.645,13.051c-5.706,2.333-10.273,8.353-14.29,12.752c-0.168-4.043-0.655-8.895-2.778-11.865
	c0.476-0.661,0.784-1.399,0.795-2.162c0.002-0.137-0.018-0.255-0.029-0.38C278.099,377.466,278.809,377.771,279.895,377.764z
	 M78.586,404.461c1.6-5.511,4.354-10.586,6.299-15.909c7.122,0.629,14.45,0.238,21.564,0.229c9.172-0.013,18.338-0.193,27.506-0.44
	c18.326-0.494,36.654-1.237,54.959-2.274c17.719-1.004,35.428-2.166,53.137-3.306c6.145-0.395,12.273-0.732,18.424-0.979
	c2.457-0.099,4.916-0.187,7.375-0.229c0.423-0.007,2.417,0.233,3.293,0.264c0.484,0.291,1.111,0.358,1.795,0.243
	c-0.486,4.965,0.293,10.383,0.007,15.262c-0.268,4.56-1.015,8.958-1.696,13.405c-1.435,0.117-2.859,0.276-4.224,0.372
	c-4.813,0.341-9.625,0.746-14.426,1.211c-8.213,0.796-16.505,0.906-24.703,1.714c-0.417-7.304-1.994-15.835-6.782-20.739
	c-0.026-0.422-0.14-0.854-0.359-1.292c-2.492-4.98-11.025-4.008-15.658-3.826c-7.828,0.308-15.627,1.558-23.371,2.673
	c-8.217,1.183-16.414,1.841-24.676,2.648c-11.896,1.163-24.084,1.477-35.9,3.083c-0.003,0-0.007,0.002-0.01,0.002
	c-0.559-0.61-2.079,0.209-2.421,0.878c-2.92,5.677-4.757,11.732-5.226,17.935c-1.079,0.106-2.159,0.203-3.239,0.294
	c-2.498,0.211-4.998,0.402-7.5,0.542c-9.419,0.524-18.883,0.121-28.199,1.537C76.034,413.371,77.294,408.912,78.586,404.461z"/>
<path fill="#010101" d="M210.565,255.836c-0.67,1.424-2.037,2.682-2.123,4.297c-0.029,0.529,0.461,1.049,0.973,1.108
	c1.711,0.202,2.916-1.058,3.806-2.77c8.846,0.49,17.833-0.098,26.668-0.313c4.867-0.118,9.732-0.288,14.598-0.502
	c3.279-0.142,6.744,0.102,9.936-0.618c1.029,0.61,2.05,1.234,3.029,1.919c0.248,0.173,2.645,2.135,1.793,1.273
	c0.775,0.784,2.061,0.221,2.621-0.545c1.891-2.584-1.811-3.677-3.461-4.66c-0.538-0.32-1.083-0.626-1.625-0.94
	c-0.036-0.559-0.371-1.007-1.188-1.116c-0.291-0.039-0.584-0.06-0.877-0.079c-3.853-2.176-7.772-4.241-11.662-6.344
	c-10.502-5.679-21.018-11.329-31.111-17.718c-0.638-0.403-1.601,0.379-1.618,1.092c-0.056,0.069-0.106,0.141-0.149,0.219
	c-2.752,4.941-4.189,10.775-5.982,16.113C213.102,249.495,212.022,252.736,210.565,255.836z M221.916,231.857
	c2.381,2.144,5.419,3.728,8.082,5.344c5.67,3.441,11.447,6.705,17.217,9.979c3.591,2.038,7.183,4.074,10.765,6.126
	c-0.48,0.048-0.958,0.091-1.433,0.121c-4.805,0.299-9.613,0.572-14.418,0.86c-9.229,0.553-18.504,0.617-27.729,1.22
	c0.5-1.581,0.855-3.113,1.164-4.031C217.755,244.96,219.471,238.286,221.916,231.857z"/>
<path fill="#010101" d="M77.508,560.456c1.971-0.113,3.672-1.054,5.059-2.359c0.235,0.764,0.812,1.295,1.802,1.628
	c0.145,0.049,0.289,0.097,0.434,0.146c1.311,0.44,3.35-0.462,4.242-1.392c6.393-6.668,9.928-15.28,13.824-23.514
	c2.248-4.747,4.789-9.326,7.664-13.723c3.031-4.633,7.059-9.277,7.686-14.97c0.123-1.098-1.133-0.938-1.635-0.308
	c-6.836,8.558-14.133,16.937-19.311,26.632c-2.391,4.479-4.506,9.092-6.99,13.522c-1.155,2.062-2.476,4.352-4.288,5.904
	c0.176-1.346-0.024-2.655-0.512-3.859c1.02-0.227,2.051-0.716,2.991-1.523c1.303-1.117,2.148-2.352,2.83-3.91
	c0.266-0.606,0.427-1.169,0.503-1.688c3.982-8.477,9.637-16.344,14.458-24.3c2.6-4.289,4.955-8.734,7.125-13.254
	c1.551-3.229,3.568-7.516,2.383-11.126c-0.268-0.814-1.342-0.479-1.803-0.096c-3.146,2.601-5.078,6.5-7.025,10.021
	c-2.572,4.652-5.496,9.1-8.369,13.568c-5.447,8.468-11.164,17.087-17.646,24.802c-0.622,0.74-1.038,1.459-1.285,2.141
	c-0.463-0.165-0.936-0.311-1.426-0.411c-1.783-0.367-4.305,2.536-2.295,3.769c1.582,0.97,3.346,2.012,4.074,3.809
	c0.127,0.313,0.188,0.576,0.227,0.887c0.018,0.137-0.006,1.041,0.027,0.771c-0.012,0.093-0.175,0.711-0.174,0.788
	c-0.088,0.178-0.225,0.439-0.265,0.536c-0.041,0.049-0.083,0.098-0.127,0.148c-0.045,0.008-0.082,0.021-0.091,0.036
	c-0.044-0.017-0.084-0.031-0.112-0.04c-0.017-0.022-0.042-0.05-0.087-0.092c-0.793-0.744-1.215-1.56-2.148-2.206
	c-2.633-1.823-6.215,1.926-6.168,4.435C71.141,558.512,74.496,560.627,77.508,560.456z M79.545,553.256
	c-0.036,0.01-0.054,0.014-0.1,0.028c0.041-0.012,0.072-0.023,0.105-0.034C79.549,553.252,79.547,553.255,79.545,553.256z
	 M79.802,553.218c-0.002-0.001-0.005-0.002-0.007-0.004c0.002-0.002,0.003-0.004,0.005-0.005c0.05,0.008,0.108,0.015,0.18,0.022
	C79.898,553.224,79.852,553.221,79.802,553.218z M79.775,553.054c-0.016,0.016-0.019,0.021-0.033,0.035c0,0-0.001,0-0.002,0
	C79.754,553.075,79.76,553.069,79.775,553.054z"/>
<path fill="#010101" d="M259.272,538.112c0.31-0.603,0.528-1.259,0.627-1.923c0.447-0.131,1.52-2.989,1.492-2.93
	c0.977-2.02,1.9-4.064,2.84-6.102c1.896-4.109,3.75-8.239,5.623-12.359c3.377-7.428,6.734-15.094,10.693-22.217
	c0.77-1.381-1.133-2.051-2.02-1.106c-6.355,6.771-10.945,13.905-15.295,22.09c-2.412,4.541-4.619,9.195-6.953,13.778
	c-1.455,2.861-5.963,8.144-5.281,11.439C251.99,543.59,257.645,541.281,259.272,538.112z"/>
<path fill="#010101" d="M368.211,544.069c6.793-1.341,11.6-6.352,13.383-12.982c1.785-6.636-4.629-12.495-10.738-8.137
	c-1.528,1.091-3.116,2.993-3.313,4.839c-0.673-1-1.354-1.996-2.037-2.988c-6.658-9.664-13.523-19.278-20.414-28.776
	c-0.744-1.025-2.676,0.393-2.479,1.424c1.355,7.091,4.715,13.481,8.404,19.615c2.086,3.468,4.215,6.907,6.402,10.312
	c1.385,2.158,2.746,4.331,4.064,6.531c0.736,1.23,3.043,3.987,2.658,5.526C363.53,541.886,365.518,544.6,368.211,544.069z
	 M369.666,534.148c0.198-0.176,0.373-0.304,0.527-0.406C370.05,533.916,369.882,534.06,369.666,534.148z M370.772,532.816
	c-0.129-0.216-0.332-0.523-0.62-0.996c-0.102-0.166-0.213-0.326-0.316-0.491C371.046,531.825,371.688,531.344,370.772,532.816z"/>
<path fill="#010101" d="M545.774,347.445c-6.436,0.999-12.736,1.651-19.258,1.772c-6.049,0.112-12.211-0.268-18.27,0.155
	c-0.153-0.199-0.306-0.401-0.456-0.594c-3.994-5.117-10.307-7.928-16.512-9.146c-13.314-2.612-28.125,1.009-41.529,1.717
	c-19.207,1.016-38.406,2.185-57.613,3.24c-9.941,0.546-19.885,1.021-29.834,1.404c-9.867,0.38-20.219-0.214-29.975,1.323
	c-0.168,0.026-0.347,0.092-0.527,0.188c-3.952,0.882-4.798,6.065-5.027,9.497c-0.229,3.444-0.107,6.862,0.09,10.305
	c0.1,1.765-0.512,6.053,1.559,6.859c0.356,0.138,0.739,0.119,1.083-0.018c-0.302,3.066,1.496,6.768,4.015,8.43
	c0.69,0.455,1.695,0.175,2.483-0.415c0.212,4.569,1.362,9.414,1.739,13.628c0.543,6.063,0.387,12.164,0.857,18.217
	c0.098,1.264,0.601,1.993,1.302,2.339c-0.195,2.28-0.117,4.595,0.049,6.86c0.084,1.163,1.023,1.767,2.125,1.714
	c3.33-0.157,6.642-0.296,9.959-0.369c-1.49,10.032-1.954,20.341-2.777,30.437c-0.482,5.93-0.645,11.894-0.498,17.84
	c0.078,3.113,0.513,6.216,0.866,9.316c-0.288-0.362-0.587-0.713-0.915-1.041c-1.045-1.044-2.842,0.163-3.074,1.378
	c-1.17,6.096,2.459,12.695,5.242,17.904c3.537,6.626,8.611,12.456,11.738,19.295c2.615,5.723,12.592-1.485,8.787-6.273
	c-0.448-0.563-0.879-1.142-1.32-1.713c-1.047-6.796-0.472-14.085-0.495-20.943c-0.025-7.835-0.023-15.669-0.023-23.504
	c0-7.179-0.02-14.358-0.051-21.537c-0.028-6.678,0.42-13.746-0.473-20.433c1.126,0.01,2.252-0.125,3.165-0.469
	c0.002-0.001,0.004-0.002,0.006-0.003c0.217,4.543,0.771,9.039,1.674,13.729c0.176,0.913,0.471,1.589,0.978,2.094
	c1.089,2.186,3.956,2.012,6.225,0.666c16.237,2.313,33.457-0.131,49.667-1.456c0.5,6.723,0.887,13.37,0.541,20.099
	c-9.441,1.287-18.869,2.651-28.399,3.145c-2.578,0.134-5.982-0.498-8.432,0.285c-2.053,0.656-2.953,2.682-4.051,4.35
	c-2.678,4.067-5.869,8.396-6.954,13.232c-0.386,0.186-0.761,0.4-1.12,0.65c-0.342,0.237-1.023,1.012-0.502,1.439
	c0.361,0.295,0.749,0.518,1.154,0.691c-2.45,2.682-3.474,7.245-0.557,9.846c0.284,0.253,0.604,0.413,0.939,0.506
	c0.025,0.491,0.332,0.911,0.985,0.837c3.477-0.389,6.853-0.868,10.288-1.165c-0.615,6.553,0.496,13.381,1.158,19.838
	c0.424,4.126,0.795,8.255,1.006,12.397c0.143,2.834-0.448,5.866-0.205,8.663c-1.886,0.219-3.91,0.815-5.514,0.852
	c-1.328,0.03-2.891,1.519-2.732,2.903c1.168,10.237,19.795,5.225,25.74,3.187c1.746-0.599,4.139-3.687,1.738-5.06
	c-2.422-1.388-5.407-2.292-8.472-2.636c2.796-4.429,0.862-13.862,0.585-18.018c-0.338-5.061-0.809-10.109-1.297-15.158
	c-0.187-1.938-0.125-4.833-0.677-7.191c4.785,0.103,9.569,0.301,14.356,0.218c16.89-0.293,33.412-3.852,50.209-3.767
	c-1.022,7.137-0.232,14.673,0.177,21.775c0.227,3.91,0.512,7.815,0.771,11.723c0.221,3.336-0.249,7.188,0.766,10.397
	c-0.313,0.144-0.62,0.296-0.916,0.468c-4.709-0.895-9.151,0.055-11.994,4.973c-0.412,0.712-0.299,1.866,0.504,2.262
	c7.684,3.775,22.469,4.701,28.43-2.645c0.889-1.096,1.24-3.19-0.271-3.962c-1.454-0.742-3.161-1.348-4.961-1.756
	c-0.167-3.037-1.263-6.149-1.751-9.142c-0.701-4.314-1.137-8.677-1.523-13.028c-0.584-6.548,0.113-14.192-1.486-20.738
	c1.824,0.148,3.651,0.33,5.485,0.596c1.898,0.275,3.75-0.982,4.561-2.658c1.954-4.049,1.146-8.917-1.523-11.087
	c0.503-1.439,0.085-2.908-1.913-3.124c0.144-5.429-6.496-9.987-10.665-12.954c-3.852-2.74-5.795-3.771-10.609-3.878
	c-6.971-0.154-13.951,0.494-20.869,1.273c-0.494,0.056-0.987,0.12-1.48,0.178c0.668-6.29-0.557-13.135-1.542-19.508
	c6.216-0.454,12.437-0.85,18.665-1.124c4.51-0.199,9.023-0.278,13.539-0.286c2.999-0.005,6.225,0.425,9.264,0.164
	c0.867,0.115,1.739-0.06,2.56-0.429c1.919-0.617,3.227-2.194,3.78-3.873c0.271-0.608,0.443-1.228,0.491-1.825
	c2.37-2.773,3.103-6.819,3.193-10.905c2.963-0.481,5.931-0.887,8.909-1.219c-1.514,9.495-1.023,19.659-1.391,29.143
	c-0.23,5.939-0.467,11.879-0.67,17.818c-0.174,5.131-0.786,10.546-0.498,15.685c-0.1,0.097-0.199,0.193-0.293,0.297
	c-5.1,5.583,3.074,17.325,5.889,22.178c4.232,7.294,9.043,15.22,15.23,21.062c5.711,5.391,16.311-5.35,9.646-10.351
	c0.738,0.554-1.602-1.485-2.055-1.928c-1.254-1.229-2.445-2.524-3.629-3.821c-0.243-0.266-0.478-0.54-0.718-0.808
	c0.269-4.093,0.528-8.184,0.768-12.275c0.205,0.423,0.339,0.869,0.366,1.379c0.029,0.602-0.025,1.224-0.035,1.826
	c-0.007,0.687,1.103,0.226,1.095-0.35c-0.022-1.375-0.463-2.559-1.387-3.527c0.662-11.396,1.164-22.79,1.248-34.226
	c0.061-8.153,0.037-16.309-0.021-24.462c-0.045-6.287,0.197-12.87-0.764-19.148c1.866-0.078,3.727-0.038,5.392,0.383
	c2.709,0.685,5.266-2.237,5.35-4.695c0.059-1.686-1.023-4.28-2.453-6.155c0.208-0.784,0.137-1.688-0.352-2.707
	c-1.025-2.137-1.135-5.066-1.93-7.369c-1.115-3.235-2.541-6.37-3.979-9.471c-2.383-5.134-4.155-11.483-7.273-16.25
	c0.616-1.759,0.333-3.551-1.454-4.005c0-0.003,0.001-0.007,0.001-0.01c0.218-4.957-2.379-10.32-5.354-14.828
	c4.347,0.294,8.736,0.35,13.042,0.424c7.119,0.122,14.564,0.123,21.502-1.661C547.485,351.268,548.735,346.985,545.774,347.445z
	 M395.83,538.834c0.02,0.013,0.03,0.032,0.051,0.045c0.711,0.429,1.396,0.694,2.09,0.857c-1.113-0.075-2.119-0.278-2.947-0.656
	C395.296,539.006,395.564,538.923,395.83,538.834z M402.115,500.01c0.051,4.645,0.369,9.293,0.572,13.933
	c0.172,3.936,0.227,8.078,0.057,12.066c-0.393-3.878-1.383-7.856-1.904-11.042c-1.162-7.096-1.975-14.332-3.321-21.41
	c0.8-0.04,1.604-0.07,2.417-0.078c0.798-0.008,1.597,0.009,2.395,0.014C401.902,495.604,402.094,498.058,402.115,500.01z
	 M453.642,484.723c-10.725,1.024-21.418,3.138-32.172,3.738c-7.254,0.405-14.545,0.071-21.807,0.373
	c-3.234,0.134-7.955,0.133-11.672,1.444c-0.07-0.379-0.242-0.746-0.567-1.078c-0.652-0.666-1.475-1.31-1.598-2.281
	c-0.123-0.973,0.471-1.854,0.907-2.692c1.009-0.043,2.027-0.156,2.991-0.197c4.24-0.177,8.484-0.32,12.721-0.558
	c9.053-0.506,18.102-1.113,27.154-1.631c15.918-0.911,31.838-1.034,47.753-1.585c-0.228,0.974,0.039,1.852,1.406,1.979
	c1.949,0.182,3.463,0.685,3.924,1.892C472.983,483.49,463.362,483.794,453.642,484.723z M477.002,532.544
	c0.012,0.058,0.026,0.115,0.039,0.172c-0.028,0.002-0.055,0.006-0.083,0.008C476.975,532.666,476.987,532.604,477.002,532.544z
	 M468.632,537.215c-0.162,0.626-0.062,1.257,0.63,1.603c0.397,0.199,0.788,0.344,1.178,0.454c-1.914-0.087-3.864-0.33-5.692-0.823
	C465.808,537.769,467.193,537.394,468.632,537.215z M474.272,498.432c-0.246-2.811-0.518-5.617-0.896-8.396
	c0.621,0.019,1.242,0.034,1.864,0.065C474.619,492.765,474.347,495.576,474.272,498.432z M445.022,465.198
	c4.404-0.411,8.822-0.626,13.246-0.688c1.42-0.02,5.357-0.452,6.482,0.361c1.109,0.803,2.234,1.584,3.348,2.385
	c2.348,1.688,4.566,3.495,6.576,5.575c0.335,0.347,0.592,0.684,0.818,1.019c-14.315,0.063-28.786,1.422-42.976,2.376
	c-9.115,0.612-18.223,1.322-27.33,2.036c-4.324,0.339-8.637,0.799-12.953,1.219c-1.3,0.126-2.662,0.181-4.007,0.313
	c2.017-3.77,4.609-6.975,7.335-10.274C412.174,469.798,428.527,466.739,445.022,465.198z M334.199,376.073
	c-0.955-1.012-1.658-2.219-2.633-3.215c-0.198-0.202-0.444-0.265-0.696-0.25c1.206-2.538,0.169-6.266-0.011-8.87
	c-0.231-3.301-1.221-9.374,0.424-13.026c0.678,0.115,1.364,0.201,2.05,0.287c0.012,2.446,1.672,5.047,2.883,7.093
	c1.07,1.805,2.279,5.013,4.111,6.095c0.979,0.578,2.3,0.292,3.383-0.412c-0.409,1.04-0.593,2.013-0.434,3.172
	c0.16,1.173,0.391,2.522,1.346,3.32c1.396,1.167,3.832-0.042,4.059-1.819c0.273-2.154-0.906-4.201-2.037-5.951
	c-0.326-0.503-0.876-0.499-1.408-0.284c0.337-0.582,0.5-1.215,0.384-1.83c-0.414-2.176-2.4-3.821-3.73-5.538
	c-0.793-1.022-1.589-2.245-2.462-3.386c5.285,0.166,10.664-0.135,15.817-0.188c9.24-0.095,18.479-0.313,27.717-0.575
	c18.486-0.527,36.959-1.379,55.438-2.178c7.609-0.33,15.256-0.443,22.848-1.083c6.469-0.545,12.895-1.38,19.4-1.347
	c6.393,0.033,13.746,1.396,18.256,6.294c2.713,2.944,4.779,6.288,6.49,9.892c0.923,1.945,1.51,4.008,2.327,5.962
	c-12.09,0.596-24.344,0.218-36.4,0.559c-14.438,0.409-28.873,0.94-43.307,1.46c-14.439,0.521-28.879,1.062-43.318,1.559
	c-15.098,0.52-30.656,0.098-45.648,1.943c-0.79,0.098-1.745,0.954-2.215,1.843c-0.214,0.259-0.372,0.547-0.434,0.821
	c-0.129,0.576-0.218,1.168-0.287,1.767C335.525,377.456,334.875,376.792,334.199,376.073z M359.969,497.788
	c-1.68-2.354-3.38-4.699-5.009-7.088c2.182-1.016,3.927-3.287,2.246-5.865c-2.721-4.17-2.631-10.554-2.934-15.352
	c-0.34-5.348-0.203-10.709-0.123-16.062c0.139-9.462,1.628-19.462,0.471-28.916c1.286-0.011,2.573-0.012,3.865,0.008
	c2.354,0.038,4.929-0.139,7.257,0.339c-0.861,6.066-0.654,12.311-0.814,18.417c-0.207,7.891-0.357,15.783-0.531,23.676
	c-0.158,7.234-0.318,14.471-0.463,21.706c-0.097,4.804,0.079,9.775-0.005,14.7C362.604,501.495,361.286,499.635,359.969,497.788z
	 M368.448,418.243c-2.881,0.136-5.775,0.229-8.678,0.275c-4.929,0.078-10.024,0.104-14.921,0.933
	c-0.246-1.228-0.414-2.474-0.602-3.713c7.91,1.559,16.441,0.968,24.415,1.736c1.361,0.131,2.583-0.405,3.543-1.234
	c-0.029,0.623-0.042,1.237-0.058,1.854C370.929,418.004,369.66,418.186,368.448,418.243z M462.419,428.227
	c-8.009,0.321-15.999,0.975-23.982,1.689c-0.42-3.019-0.84-6.038-1.218-9.062c-0.173-1.379-0.214-3.505-0.504-5.524
	c5.137-0.442,10.332-1.487,15.399-1.427c2.504,0.029,6.137,0.558,8.336-0.762c2.359-1.414,5.695-7.84,0.68-8.291
	c-1.16-0.105-2.132,0.06-3.038,0.417c0.229-0.319-1.39,0.132-2.112,0.153c-1.502,0.046-2.799,0.102-4.301,0.344
	c-5.975,0.963-11.998,1.541-18.039,1.853c-5.541,0.286-11.102,0.499-16.648,0.537c-4.189,0.028-8.854-0.604-12.721,1.257
	c-0.475,0.228-1.053,1.025-0.766,1.577c1.881,3.591,7.629,3.626,11.178,3.913c5.15,0.417,10.331,0.662,15.502,0.65
	c-0.333,2.121-0.254,4.39-0.32,6.365c-0.096,2.895,0.022,5.817,0.209,8.731c-15.355,1.295-30.92,2.256-46.132,4.561
	c-0.095-0.4-0.218-0.763-0.385-1.067c-0.46-1.097-1.092-1.838-1.812-2.276c-2.673-5.989-2.232-14.926-2.21-20.953
	c0.019-5.24,1.339-11.468,0.986-16.982c15.627,1.112,31.539,0.566,47.202,1.109c16.842,0.584,33.831,1.409,50.673,0.255
	c0.588,0.247,1.258,0.314,1.928,0.259c0.414,5.292,1.233,10.561,1.604,15.861c0.273,3.918,0.307,7.889-0.188,11.789
	c-0.205,1.618-0.87,3.118-1.415,4.62c-1.498,0.031-2.995,0.124-4.353,0.115C471.452,427.909,466.935,428.046,462.419,428.227z
	 M523.445,410.567c0.078,0.043,0.156,0.087,0.24,0.125c0.159,0.616,0.36,1.204,0.607,1.804c-1.829,0.102-3.67,0.114-5.372,0.236
	c-3.662,0.263-7.318,0.576-10.971,0.942c-5.57,0.558-11.401,1.136-16.834,2.75c-0.086-1.329-0.202-2.613-0.317-3.801
	c6.218,0.992,13.371-0.575,19.377-0.772C514.138,411.721,519.805,412.588,523.445,410.567z M518.858,436.959
	c-0.146,8.229-0.324,16.461-0.672,24.686c-0.563,13.375-1.131,26.833-2.586,40.161c-0.774-0.954-1.543-1.911-2.308-2.87
	c-2.613-3.275-5.158-6.676-7.295-10.285c-0.818-1.383-1.767-3.896-3.03-5.629c0.365-0.521,0.611-1.084,0.655-1.635
	c0.854-10.64,0.088-21.753,0.295-32.464c0.182-9.449,1.421-20.062-0.055-29.646c0.98-0.088,1.958-0.183,2.944-0.253
	c3.623-0.261,7.256-0.414,10.885-0.557c0.667-0.026,1.364-0.074,2.074-0.125C518.851,424.463,518.967,430.81,518.858,436.959z
	 M521.36,397.739c0.44,1.283,1.444,3.715,1.801,5.839c-3.267-0.649-8.074,0.754-10.623,0.989
	c-7.133,0.656-15.315,0.812-22.198,3.386c-0.588-5.574-1.553-11.892-4.27-16.794c1.271-2.716,1.033-5.886-3.083-5.592
	c-19.621,1.401-39.193,0.932-58.844,0.843c-4.011-0.018-36.253-0.582-44.51,3.377c-0.6-0.371-1.741,0.163-2.063,0.659
	c-3.479,5.358-4.386,12.923-4.927,19.525c-0.387-0.108-0.825-0.171-1.369-0.132c-8.099,0.589-16.55-0.586-24.638,0.428
	c-0.018-5.512-1.186-11.266-2.188-16.625c-0.828-4.433-1.139-10.969-3.266-15.576c12.558,1.246,25.656,0.526,38.188,0.325
	c14.416-0.231,28.824-0.646,43.234-1.104c14.416-0.461,28.832-0.923,43.252-1.265c13.579-0.321,27.645-1.413,41.298-0.676
	c1.897,1.293,4.645,0.794,7.011,0.18c0.009-0.002,0.018-0.007,0.027-0.01c0.151,4.547,2.479,9.382,3.958,13.373
	C519.24,391.83,520.342,394.77,521.36,397.739z"/>
</svg>
