<?xml version="1.0" encoding="UTF-8" standalone="no"?><!DOCTYPE svg PUBLIC "-//W3C//DTD SVG 1.1//EN" "http://www.w3.org/Graphics/SVG/1.1/DTD/svg11.dtd"><svg width="100%" height="100%" viewBox="0 0 518 292" version="1.1" xmlns="http://www.w3.org/2000/svg" xmlns:xlink="http://www.w3.org/1999/xlink" xml:space="preserve" style="fill-rule:evenodd;clip-rule:evenodd;stroke-linejoin:round;stroke-miterlimit:1.41421;"><g id="cloud"><path d="M23.643,286.686c6.59,2.96 13.723,2.787 20.845,3.199c8.138,0.472 16.276,0.778 24.424,1.001c16.173,0.444 32.347,0.27 48.521,-0.031c32.456,-0.604 64.932,-1.723 97.358,-3.234c32.53,-1.517 65.045,-2.918 97.609,-3.472c32.961,-0.562 65.797,-0.979 98.694,-3.213c7.649,-0.52 15.304,-0.917 22.968,-1.087c1.944,-0.043 3.879,-0.05 5.822,0.006c-2.613,-0.075 -0.902,-0.038 -0.354,-0.005c1.343,0.082 2.684,0.183 4.025,0.283c3.471,0.26 6.938,0.563 10.399,0.929c1.393,0.147 2.791,0.415 4.188,0.486c1.088,0.056 1.996,0.083 3.041,0.05c1.489,-0.049 -1.721,-0.264 -0.822,-0.006c-1.037,-0.568 -2.074,-1.137 -3.112,-1.707c0.021,0.021 0.042,0.041 0.063,0.062c-0.151,-2.393 -0.303,-4.784 -0.455,-7.177c-0.012,0.025 -0.022,0.051 -0.034,0.076c1.563,-1.665 3.125,-3.331 4.688,-4.996c0.235,-0.165 2.195,-0.798 0.155,-0.186c-3.342,1.002 -6.303,4.051 -7.038,7.481c-0.582,2.718 0.794,6.372 4.024,6.585c4.755,0.313 7.869,-0.723 11.292,-4.408c1.71,-1.842 2.538,-5.176 1.617,-7.548c-1.304,-3.36 -5.374,-4.175 -8.525,-4.319c2.678,0.123 -3.541,-0.171 -2.085,-0.107c-0.814,-0.035 -1.63,-0.066 -2.445,-0.094c-2.11,-0.071 -4.222,-0.104 -6.332,-0.131c-10.116,-0.134 -20.237,0.182 -30.336,0.749c-16.152,0.906 -32.232,2.351 -48.412,2.755c-16.642,0.415 -33.288,0.628 -49.933,0.898c-65.271,1.059 -130.324,6.282 -195.548,8.471c-16.888,0.566 -33.779,0.767 -50.674,1.05c-8.421,0.142 -16.846,0.158 -25.269,0.207c-8.851,0.053 -17.73,-0.752 -26.34,1.557c-1.928,0.517 -4.929,4.569 -2.019,5.876Z" style="fill:#010101;fill-rule:nonzero;"/><path d="M65.358,195.067c-2.205,-1.896 -3.025,-2.905 -6.153,-3.454c-3.009,-0.528 -6.402,0.269 -9.369,0.741c-6.682,1.064 -12.734,3.869 -18.752,6.831c-12.463,6.134 -23.043,17.639 -27.71,30.723c-4.292,12.033 -3.978,24.161 0.497,36.064c3.506,9.328 13.172,25.32 25.426,20.821c3.982,-1.462 10.841,-8.435 6.162,-12.851c-2.696,-2.545 -5.924,-2.834 -8.608,-5.519c-2.944,-2.944 -4.889,-6.622 -6.547,-10.392c-3.76,-8.549 -4.794,-17.023 -2.541,-26.104c4.707,-18.972 27.868,-31.562 45.768,-33.89c0.999,-0.129 3.089,-1.886 1.827,-2.97Z" style="fill:#010101;fill-rule:nonzero;"/><path d="M69.316,195.022c-1.628,-4.748 -3.059,-9.27 -5.299,-13.854c-2.13,-4.359 -3.617,-8.929 -4.732,-13.643c-2.469,-10.432 -2.064,-20.91 0.956,-31.197c3.813,-12.988 15.174,-22.343 26.199,-28.679c22.461,-12.907 58.96,-18.831 79.019,1.654c4.469,-4.795 8.938,-9.589 13.406,-14.384c-6.289,-3.785 -20.001,-0.407 -18.176,9.074c0.548,2.846 1.758,4.674 4.723,5.381c0.016,-0.023 0.031,-0.048 0.047,-0.071c7.33,6.49 22.027,-6.119 14.974,-13.139c-26.313,-26.177 -71.103,-18.251 -99.851,-0.736c-15.351,9.353 -28.172,22.812 -33.725,40.143c-3.524,11 -3.105,23.295 -0.247,34.361c1.428,5.529 4.283,10.536 7.096,15.456c1.385,2.423 2.926,4.652 4.66,6.836c2.044,2.575 4.09,3.87 6.556,5.935c1.891,1.583 5.189,-0.815 4.394,-3.137Z" style="fill:#010101;fill-rule:nonzero;"/><path d="M178.251,98.842c4.063,-10.703 4.436,-22.478 7.854,-33.418c3.28,-10.501 9.016,-19.311 17.211,-26.632c16.538,-14.774 39.149,-21.641 60.957,-22.646c21.595,-0.995 44.973,4.78 62.002,18.545c9.617,7.771 16.286,17.231 19.674,29.143c2.623,9.225 2.765,19.89 1.587,28.695c-0.543,4.058 -1.27,7.447 -2.725,10.527c-1.182,2.499 1.018,-1.267 -0.538,0.774c0.205,-0.269 2.845,-2.196 1.089,-1.062c2.867,-1.854 -3.085,1.385 -2.025,0.76c-0.851,0.502 -1.635,1.036 -2.54,1.439c-2.872,1.279 -5.146,5.285 -4.047,8.355c1.925,5.38 6.795,5.973 11.734,4.496c5.682,-1.698 9.621,-6.787 12.269,-11.791c4.172,-7.886 4.92,-17.839 5.23,-26.582c0.421,-11.85 -1.642,-24.051 -6.677,-34.817c-5.288,-11.303 -14.245,-20.002 -24.304,-27.12c-37.903,-26.821 -94.771,-20.492 -130.916,6.014c-12.243,8.978 -22.095,20.83 -27.146,35.253c-4.191,11.964 -6.766,28.714 -1.15,40.566c0.519,1.097 2.123,0.393 2.461,-0.499Z" style="fill:#010101;fill-rule:nonzero;"/><path d="M390.809,151.983c6.633,-5.064 16.448,-7.829 24.602,-9.254c8.465,-1.479 16.997,-1.023 25.338,0.896c16.879,3.881 31.999,15.034 42.737,28.343c10.834,13.427 17.452,31.103 15.713,48.488c-2.021,20.197 -15.541,40.077 -35.538,46.029c-4.489,1.336 -8.683,6.032 -8.424,10.9c0.267,5.015 5.175,6.334 9.297,5.219c24.648,-6.664 43.804,-29.921 50.227,-53.911c5.269,-19.678 1.284,-41.014 -9.095,-58.307c-19.863,-33.098 -65.096,-54.993 -101.158,-34.092c-6.353,3.682 -10.342,8.653 -15.27,13.897c-1.354,1.442 -0.033,3.016 1.571,1.792Z" style="fill:#010101;fill-rule:nonzero;"/><path d="M355.713,94.238c6.31,-4.956 11.832,-9.356 20.219,-9.313c7.462,0.038 14.492,2.411 20.845,6.188c6.969,4.144 12.648,10.335 17.06,17.076c3.749,5.727 7.159,14.822 5.535,21.744c2.721,-2.892 5.441,-5.784 8.162,-8.676c-0.123,0.024 -0.246,0.05 -0.369,0.074c1.447,-0.117 2.895,-0.234 4.343,-0.352c-2.359,-0.562 -4.527,-0.001 -6.823,0.585c-3.306,0.842 -6.278,4.479 -6.127,7.928c0.07,1.602 -0.123,3.056 0.706,4.535c1.51,2.697 3.436,3.695 6.533,3.646c0.121,-0.002 0.242,-0.004 0.363,-0.006c5.926,-0.095 10.149,-5.89 10.579,-11.244c1.706,-21.232 -13.733,-40.617 -32.132,-49.284c-9.332,-4.396 -19.737,-6.162 -29.712,-3.134c-9.133,2.772 -18.777,9.975 -21.054,19.566c-0.299,1.263 1.205,1.192 1.872,0.667Z" style="fill:#010101;fill-rule:nonzero;"/></g></svg>