<?xml version="1.0" encoding="utf-8"?>
<!-- Generator: Adobe Illustrator 17.0.0, SVG Export Plug-In . SVG Version: 6.00 Build 0)  -->
<!DOCTYPE svg PUBLIC "-//W3C//DTD SVG 1.0//EN" "http://www.w3.org/TR/2001/REC-SVG-20010904/DTD/svg10.dtd">
<svg version="1.0" id="Layer_1" xmlns="http://www.w3.org/2000/svg" xmlns:xlink="http://www.w3.org/1999/xlink" x="0px" y="0px"
	 width="566.93px" height="566.93px" viewBox="0 0 566.93 566.93" enable-background="new 0 0 566.93 566.93" xml:space="preserve">
<g id="club">
	<g>
		<g>
			<path fill="#010101" d="M319.843,310.347c13.941-5.201,25.973-16.239,40.938-18.928c2.734-0.491,3.631-5.527,0.438-4.045
				c-14.033,6.513-29.262,11.767-41.699,21.286C318.744,309.254,318.403,310.884,319.843,310.347L319.843,310.347z"/>
		</g>
	</g>
	<g>
		<g>
			<path fill="#010101" d="M317.627,310.003c0.559,0.513,1.512,0.542,2.181,0.912c1.014,0.562,1.635,1.635,2.028,2.678
				c0.4,1.059,0.424,2.215,0.183,3.309c-0.276,1.258-0.852,1.29-2.087,1.573c-1.268,0.291-2.446,1.478-2.742,2.742
				c-0.267,1.141,0.537,2.008,1.703,1.703c4.439-1.161,7.593-5.621,6.567-10.192c-0.696-3.107-4.65-7.136-7.614-3.66
				C317.667,309.277,317.338,309.736,317.627,310.003L317.627,310.003z"/>
		</g>
	</g>
	<g>
		<g>
			<path fill="#010101" d="M320.246,322.454c6.485-2.763,12.46-7.294,18.584-10.782c6.161-3.509,13.624-8.421,20.707-9.628
				c3.191-0.544,3.575-6.119,0.471-4.35c-6.854,3.908-14.38,6.701-21.278,10.651c-6.47,3.704-13.547,7.559-19.081,12.588
				C318.913,321.603,319.031,322.972,320.246,322.454L320.246,322.454z"/>
		</g>
	</g>
	<g>
		<g>
			<path fill="#010101" d="M359.467,290.152c1.641,0.445,3.098,0.698,4.196,2.113c0.781,1.006,0.734,2.804,0.104,3.861
				c-0.953,1.598-2.636,0.994-4.121,1.687c-1.033,0.482-2.099,1.585-2.148,2.777c-0.104,2.508,3.708,1.094,4.624,0.7
				c3.361-1.444,5.975-5.128,5.719-8.839c-0.282-4.098-4.427-5.323-7.793-3.94C359.669,288.667,358.615,289.922,359.467,290.152
				L359.467,290.152z"/>
		</g>
	</g>
	<g>
		<g>
			<path fill="#010101" d="M282.202,314.028c5.112,4.343,13.915,5.245,20.291,6.583c3.77,0.792,7.485,1.828,11.251,2.643
				c0.855,0.185,2.865,0.105,3.466,0.714c0.493,0.501,1.29,0.322,1.852,0.073c0.046-0.021,0.092-0.04,0.138-0.061
				c1.458-0.646,3.241-4.313,0.411-3.8c-0.513,0.093-0.965,0.309-1.443,0.513c-0.729,0.311-1.561,1.295-1.276,2.141
				c0.043,0.268,0.141,0.51,0.292,0.727c1.233-1.042,2.466-2.084,3.699-3.126c-0.911-0.634-2.454-0.377-3.549-0.55
				c-3.594-0.567-7.151-1.281-10.716-2.018c-4.269-0.883-8.578-1.53-12.836-2.479c-3.578-0.798-7.045-2.207-10.686-2.616
				C282.649,312.723,281.714,313.613,282.202,314.028L282.202,314.028z"/>
		</g>
	</g>
	<g>
		<g>
			<path fill="#010101" d="M282.386,301.653c2.851,4.451,10.729,5.056,15.472,5.934c3.816,0.706,7.655,1.272,11.447,2.108
				c2.911,0.643,5.258,2.282,8.015,3.159c1.488,0.474,4.203-2.01,2.898-3.431c-3.352-3.646-12.227-3.737-16.813-4.304
				c-4.006-0.495-8.009-0.971-11.96-1.815c-2.875-0.615-5.563-1.94-8.474-2.339C282.719,300.931,282.213,301.384,282.386,301.653
				L282.386,301.653z"/>
		</g>
	</g>
	<g>
		<g>
			<path fill="#010101" d="M282.44,302.302c0.709,3.189,2.271,7.45,0.911,10.691c-0.47,1.123-0.083,2.424,1.369,2.084
				c1.049-0.245,3.313-2.125,2.473-3.442c-0.958-1.503-0.514-4.343-0.804-6.075c-0.322-1.927-0.996-3.478-2.684-4.523
				C283.088,300.653,282.326,301.788,282.44,302.302L282.44,302.302z"/>
		</g>
	</g>
	<g>
		<g>
			<path fill="#010101" d="M314.923,294.188c1.545,1.009,2.622,1.814,3.469,3.512c0.647,1.3,1.114,3.918,0.169,4.836
				c-0.763,0.742-1.935,2.926-0.359,3.533c1.419,0.548,3.226-0.988,3.715-2.216c1.709-4.293,0.602-12.933-5.896-11.521
				C315.549,292.434,314.146,293.682,314.923,294.188L314.923,294.188z"/>
		</g>
	</g>
	<g>
		<g>
			<path fill="#010101" d="M317.36,294.658c5.814-1.063,11.49-4.878,16.706-7.554c2.738-1.405,5.466-2.832,8.194-4.256
				c3.218-1.68,6.987-4.444,10.619-5.003c1.466-0.226,3.124-2.042,3.033-3.561c-0.008-0.135-0.016-0.269-0.024-0.402
				c-1.383,1.176-2.767,2.352-4.15,3.527c2.532,0.841,6.669,4.99,4.379,7.935c-2.068,2.66,1.216,4.233,3.133,2.012
				c4.261-4.939,2.242-12.62-4.154-14.69c-1.845-0.598-4.273,1.683-4.15,3.527c0.009,0.134,0.018,0.268,0.026,0.4
				c0.389-0.819,0.778-1.639,1.167-2.458c-2.296,2.09-5.626,3.356-8.345,4.807c-3.27,1.744-6.539,3.488-9.817,5.217
				c-5.499,2.899-11.712,5.261-16.664,9.039C316.85,293.552,316.265,294.858,317.36,294.658L317.36,294.658z"/>
		</g>
	</g>
	<g>
		<g>
			<path fill="#010101" d="M319.961,306.896c6.923-2.101,13.453-7.026,19.928-10.24c3.795-1.884,7.674-3.664,11.686-5.037
				c2.355-0.807,5.305-0.385,7.297-1.905c0.641-0.488,1.476-1.461,1.125-2.35c-0.046-0.116-0.092-0.232-0.138-0.35
				c-0.166-0.419-0.609-0.722-1.067-0.695c-6.47,0.369-13.344,4.274-19.001,7.094c-6.676,3.328-14.554,6.786-20.166,11.797
				C319.097,305.681,318.773,307.258,319.961,306.896L319.961,306.896z"/>
		</g>
	</g>
	<g>
		<g>
			<path fill="#010101" d="M290.214,287.096c3.896,3.385,10.396,4.432,15.372,5.529c2.028,0.447,4.053,0.914,6.068,1.417
				c0.608,0.151,1.567,0.258,2.079,0.663c0.318,0.252,1.484,1.011,0.649,0.184c1.132,1.121,2.822-0.707,3.334-1.582
				c0.015-0.026,0.03-0.053,0.046-0.079c0.32-0.548,0.307-1.228-0.069-1.728c-1.179-1.568-6.518-1.625-8.427-1.981
				c-5.968-1.112-12.05-3.647-18.098-3.765C290.709,285.745,289.674,286.627,290.214,287.096L290.214,287.096z"/>
		</g>
	</g>
	<g>
		<g>
			<path fill="#010101" d="M290.835,299.76c3.074,2.663,8.4,2.785,12.239,3.43c3.97,0.666,11.164,0.599,14.15,3.728
				c1.757,1.842,5.682-2.954,3.313-3.92c-3.875-1.579-8.23-1.968-12.348-2.451c-5.48-0.644-11.219-1.733-16.738-1.651
				C291.16,298.898,290.48,299.453,290.835,299.76L290.835,299.76z"/>
		</g>
	</g>
	<g>
		<g>
			<path fill="#010101" d="M289.555,287.479c0.017,1.629,0.949,3.404,1.326,4.989c0.247,1.041,0.437,2.113,0.485,3.184
				c-0.004-0.078-0.079,0.969,0.001,0.752c-0.24,0.49-0.114,0.351,0.375-0.418c-0.396,0.342-0.126,0.154,0.81-0.562
				c-1.04,0.6-3.11,2.538-1.836,3.868c1.396,1.455,3.808-0.676,4.397-1.983c0.545-1.205,0.206-2.212-0.041-3.429
				c-0.438-2.159-0.988-7.262-3.376-8.221C290.725,285.269,289.545,286.586,289.555,287.479L289.555,287.479z"/>
		</g>
	</g>
	<g>
		<g>
			<path fill="#010101" d="M292.035,287.923c7.775-5.758,17.807-7.069,26.405-11.232c2.559-1.238,5.077-2.523,7.685-3.658
				c2.253-0.979,5.655,0.613,7.923,1.021c2.743,0.494,5.492,0.872,8.263,1.177c2.988,0.328,7.135-0.129,9.915,1.078
				c0.744-1.589,1.489-3.177,2.234-4.766c-0.879,0.175-1.478,0.4-2.231,0.91c-0.69,0.467-2.627,3.138-0.835,3.569
				c0.477,0.114,0.853,0.33,1.354,0.386c1.989,0.22,5.126-3.447,2.825-4.829c-2.013-1.209-5.257-0.904-7.552-1.127
				c-3.335-0.324-6.665-0.687-9.979-1.182c-2.213-0.33-6.191-2.251-8.398-1.735c-2.754,0.645-5.689,2.873-8.238,4.165
				c-5.728,2.906-11.479,5.042-17.536,7.15c-4.704,1.638-9.593,3.486-12.981,7.285C289.836,287.315,290.416,289.122,292.035,287.923
				L292.035,287.923z"/>
		</g>
	</g>
	<g>
		<g>
			<path fill="#010101" d="M331.808,299.195c0.963,0,2.266-2.084,0.973-2.084C331.817,297.111,330.515,299.195,331.808,299.195
				L331.808,299.195z"/>
		</g>
	</g>
	<g>
		<g>
			<path fill="#010101" d="M284.018,302.384c2.067-1.062,3.983-2.352,6.111-3.311c1.292-0.581,1.929-3.194-0.072-2.393
				c-2.281,0.915-4.92,2.355-6.672,4.093C282.694,301.457,282.717,303.052,284.018,302.384L284.018,302.384z"/>
		</g>
	</g>
	<g>
		<g>
			<path fill="#010101" d="M220.584,306.728c-0.055,7.607,11.664,8.091,16.852,7.394c4.049-0.545,16.663-3.035,16.706-8.798
				c0.008-0.994-1.041-0.928-1.692-0.688c-1.836,0.678-3.075,2.592-4.884,3.519c-2.908,1.489-6.173,2.248-9.379,2.756
				c-3.158,0.5-6.477,0.368-9.594-0.319c-3.071-0.677-4.782-2.785-7.25-4.402C221.019,305.977,220.586,306.397,220.584,306.728
				L220.584,306.728z"/>
		</g>
	</g>
	<g>
		<g>
			<path fill="#010101" d="M220.97,305.769c-7.287,4.071-7.871,16.126-5.043,23.005c3.403,8.277,13.805,11.598,21.967,10.992
				c8.551-0.635,16.845-5.289,21.395-12.608c4.41-7.095,5.251-20.441-3.915-24.14c-1.727-0.697-5.308,2.955-3.489,4.129
				c6.608,4.263,7.555,12.899,3.466,19.499c-3.384,5.463-10.13,8.096-16.281,8.564c-6.378,0.486-12.613-1.633-17.082-6.229
				c-5.175-5.324-5.833-16.518-0.537-21.986C221.947,306.482,221.958,305.217,220.97,305.769L220.97,305.769z"/>
		</g>
	</g>
	<g>
		<g>
			<path fill="#010101" d="M199.453,305.007c2.237,2.44,6.26,3.851,9.019,5.686c1.912,1.271,4.867,4.885,7.286,4.464
				c0.81-0.141,1.756-1.049,1.875-1.875c0.402-2.788-4.314-4.712-6.329-5.941c-3.11-1.896-7.185-4.388-10.979-3.809
				C199.816,303.608,198.985,304.496,199.453,305.007L199.453,305.007z"/>
		</g>
	</g>
	<g>
		<g>
			<path fill="#010101" d="M199.986,304.015c-0.512,2.344-0.962,5.056-0.893,7.42c0.029,0.986,1.546,1.943,2.125,2.679
				c2.261,2.878,3.003,7.091,4.153,10.485c1.613,4.763,6.265,10.706,11.652,6.664c0.555-0.417,1.822-1.899,0.934-2.611
				c-1.728-1.384-3.869-0.47-5.693-2.139c-1.79-1.638-2.584-4.483-3.393-6.688c-0.904-2.463-1.763-4.909-3.037-7.212
				c-0.509-0.919-1.155-1.753-1.834-2.549c-1.708-2.001-1.902-4.208-2.826-6.606C200.933,302.832,200.062,303.669,199.986,304.015
				L199.986,304.015z"/>
		</g>
	</g>
	<g>
		<g>
			<path fill="#010101" d="M262.212,312.774c5.448-13.842,16.49,3.381,9.684,8.309c-2.575,1.864-6.717,2.591-9.838,2.686
				c-1.993,0.061-3.773,1.35-3.923,3.421c-0.055,0.76,0.585,1.143,1.229,1.229c4.491,0.604,10.097-1.713,13.796-4.051
				c4.071-2.573,5.342-7.6,4.642-12.109c-0.772-4.972-4.258-8.771-9.497-8.306c-4.22,0.374-8.366,4.97-7.895,9.242
				C260.534,314.309,261.987,313.347,262.212,312.774L262.212,312.774z"/>
		</g>
	</g>
	<g>
		<g>
			<path fill="#010101" d="M262.259,316.755c0.978-2.366,2.92-6.853,6.088-4.57c1.654,1.191,2.915,3.613,1.773,5.526
				c-1.919,3.216-7.233,5.058-10.807,4.764c-2.187-0.18-4.84,4.479-2.105,4.506c6.031,0.059,16.266-4.835,16.728-11.744
				c0.246-3.674-3.234-7.033-6.876-6.457c-3.211,0.508-6.119,5.124-5.757,8.199C261.373,317.571,262.135,317.055,262.259,316.755
				L262.259,316.755z"/>
		</g>
	</g>
	<g>
		<g>
			<path fill="#010101" d="M225.627,336.242c-0.975,1.81-2.171,4.203-2.201,6.28c-0.006,0.454,0.248,0.796,0.643,0.985
				c6.91,3.315,16.777,2.767,23.99,0.849c7.347-1.953,10.821-8.261,4.106-13.533c-1.794-1.408-5.479,2.323-3.778,3.779
				c1.451,1.242,4.918,3.678,2.161,4.989c-2.915,1.386-6.553,1.603-9.715,1.769c-3.308,0.174-6.638-0.032-9.912-0.517
				c-1.24-0.183-2.447-0.518-3.619-0.955c0.326,0.122,0.047,0.853-0.007-0.63c-0.041-1.138-0.05-2.229-0.197-3.36
				C226.975,334.952,225.85,335.828,225.627,336.242L225.627,336.242z"/>
		</g>
	</g>
	<g>
		<g>
			<path fill="#010101" d="M236.583,295.532c-0.25-0.396-0.186-0.883-0.481-1.331c-0.275-0.417-0.476-0.975-0.522-1.473
				c-0.042-0.45,0.151-0.385-0.218-0.183c0.549-0.301,1.287-0.261,1.849-0.034c0.964,0.39,1.729,1.383,1.908,2.405
				c0.023,0.131,0.057,0.697,0.063,0.644c-0.045,0.393-0.2,0.513,0.064,0.094c0.222-0.351,1.589-1.04,0.354-0.464
				c-0.68,0.317-1.188,0.834-1.63,1.428c-0.323,0.433-0.769,1.36-0.447,1.911c0.014,0.024,0.028,0.048,0.042,0.072
				c0.502,0.86,1.314,0.775,2.152,0.448c2.664-1.042,3.954-3.791,3.431-6.489c-0.449-2.317-2.629-3.838-4.903-3.779
				c-2.65,0.067-5.517,1.68-5.977,4.499c-0.16,0.983,0.062,1.995,0.782,2.707c0.959,0.946,1.88,0.626,2.909,0.415
				C236.228,296.347,236.791,295.861,236.583,295.532L236.583,295.532z"/>
		</g>
	</g>
	<g>
		<g>
			<path fill="#010101" d="M235.687,295.27c-1.183-0.219-2.598,0.438-3.683,0.827c-1.845,0.663-3.558,1.525-5.233,2.537
				c-1.913,1.155-6.969,4.71-5.333,7.584c1.184,2.079,3.828-0.159,4.322-1.615c0.123-0.362,0.08-1.346,0.075-1.321
				c-0.086,0.467,0.652-0.525,0.802-0.662c2.597-2.369,5.961-3.606,8.854-5.505C236.072,296.732,236.748,295.466,235.687,295.27
				L235.687,295.27z"/>
		</g>
	</g>
	<g>
		<g>
			<path fill="#010101" d="M240.733,298.167c2.085,0.843,3.778,1.843,5.627,3.128c1.518,1.055,2.856,2.509,4.494,3.355
				c0.723,0.374,1.737-0.151,2.319-0.542c0.886-0.595,1.396-1.293,1.666-2.32c0.197-0.747-0.033-1.4-0.711-1.765
				c-3.806-2.049-7.973-4.823-12.502-3.761C241.07,296.393,239.731,297.762,240.733,298.167L240.733,298.167z"/>
		</g>
	</g>
	<g>
		<g>
			<path fill="#010101" d="M239.071,318.492c-2.115-0.58-3.782,0.142-5.347,1.662c-1.817,1.766-2.136,4.23-1.558,6.581
				c0.915,3.718,6.549,3.213,9.108,2.104c2.95-1.279,6.368-6.347,2.738-8.852c-1.647-1.138-3.619-1.072-5.433-0.434
				c-2.167,0.762-4.002,3.632-2.583,5.698c0.531,0.773,1.945,0.123,2.474-0.252c0.867-0.613,1.513-1.549,1.566-2.625
				c0.062-1.236,0.342,0.332-1.333,1.28c0.142-0.08,0.563-0.04,0.769-0.032c0.545,0.021,1.364,0.269,1.654,0.779
				c0.552,0.97,0.034,0.944-0.987,1.198c-1.308,0.325-2.878,0.139-3.901-0.782c-2.508-2.26,0.032-4.685,2.39-5.385
				C238.857,319.367,239.604,318.638,239.071,318.492L239.071,318.492z"/>
		</g>
	</g>
	<g>
		<g>
			<path fill="#010101" d="M228.805,319.578c-0.549-0.357-0.906-0.582-1.616-0.521c-0.668,0.057-1.298,0.217-1.89,0.541
				c-1.348,0.739-2.415,1.925-2.812,3.43c-0.276,1.047,0.036,2.234,0.94,2.871c1.337,0.94,3.097,0.78,4.62,0.475
				c1.421-0.286,2.509-1.706,2.633-3.091c-0.065,0.732,0,0.214,0.056,0.025c0.179-0.601-0.1,0.255,0.037-0.113
				c0.202-0.545,0.408-1.036,0.42-1.634c-0.081,0.346-0.162,0.691-0.243,1.037c0.001-0.003,0.003-0.006,0.004-0.008
				c-1.286,0.455-2.573,0.91-3.859,1.365c0.029,0.052,0.035,0.123,0.047,0.181c0.129,0.616,0.967,0.69,1.44,0.58
				c0.787-0.185,1.415-0.734,1.894-1.36c0.185-0.241,0.348-0.482,0.478-0.766c0.255-0.555,0.416-1.346-0.073-1.835
				c-0.512-0.512-1.254-0.29-1.834-0.072c-1.698,0.636-2.564,2.912-2.656,4.604c0.877-1.03,1.755-2.061,2.633-3.091
				c-0.224,0.053-0.448,0.101-0.674,0.143c-0.247,0.033-0.282,0.041-0.104,0.024c-0.125,0.011-0.251,0.018-0.377,0.021
				c-0.226,0.009-0.45-0.007-0.674-0.028c-0.205-0.03-0.203-0.027,0.006,0.008c-0.087-0.021-0.174-0.046-0.26-0.075
				c-0.157-0.05-0.309-0.111-0.457-0.182c-0.255-0.122,0.234,0.209-0.086-0.083c-0.311-0.282,0.052,0.165-0.065-0.038
				c-0.061-0.105-0.103-0.214-0.138-0.329c0.132,0.435,0.03,0.133,0.035-0.035c-0.019,0.622,0.169-0.275-0.077,0.355
				c0.19-0.486-0.202,0.28,0.004-0.011c-0.501,0.708,0.334-0.255-0.24,0.228c0.145-0.122,0.306-0.224,0.467-0.323
				c-0.331,0.205,0.253-0.122,0.321-0.153c0.473-0.216,0.936-0.476,1.41-0.684C228.433,320.893,229.369,319.944,228.805,319.578
				L228.805,319.578z"/>
		</g>
	</g>
	<g>
		<g>
			<path fill="#010101" d="M248.572,319.776c0.266,0.189,0.543,0.362,0.827,0.523c0.139,0.078,0.316,0.283,0.032,0.015
				c0.106,0.101,0.227,0.183,0.361,0.245c0.241,0.141-0.295-0.216-0.092-0.051c0.267,0.216-0.119-0.272-0.019-0.075
				c0.17,0.338-0.019-0.322-0.009-0.041c0.017,0.497,0.072-0.33,0.012,0.055c-0.042,0.266-0.122,0.525-0.197,0.782
				c1.045-0.89,2.09-1.78,3.135-2.67c-1.5-0.006-2.683,0.385-3.829,1.391c-0.648,0.568-1.272,1.729-0.934,2.606
				c0.339,0.879,1.441,0.778,2.131,0.444c0.081-0.037,0.159-0.077,0.237-0.12c-0.483,0.256-0.223,0.075-0.005,0.032
				c0.482-0.096-0.43,0.026,0.029,0.002c0.113-0.005,0.226-0.005,0.338-0.006c1.657-0.012,3.064-1.62,3.191-3.191
				c0.084-1.041-0.065-1.979-1.017-2.542c-0.393-0.232-0.97-0.202-1.399-0.135c0.553-0.087-0.023-0.016-0.156-0.009
				c-0.229,0.011-0.456,0.012-0.685,0.002c-0.709-0.029-1.396,0.518-1.782,1.063C248.483,318.464,248.053,319.405,248.572,319.776
				L248.572,319.776z"/>
		</g>
	</g>
	<g>
		<g>
			<path fill="#010101" d="M300.813,272.359c-28.63-2.903-59.306-0.831-87.165,6.427c-17.771,4.63-34.463,12.703-47.699,25.658
				c-4.95,4.846-9.621,11.051-9.948,18.216c-0.405,8.858,9.416,13.863,16.004,17.316c11.654,6.108,24.845,8.851,37.762,10.711
				c14.558,2.098,29.359,3.188,44.054,3.573c24.357,0.639,48.486-1.675,72.677-4.138c11.655-1.187,23.311-2.359,34.912-4.004
				c11.088-1.571,22.678-3.157,33.072-7.503c12.669-5.296,29.066-20.135,18.618-34.762c-5.11-7.154-12.627-12.852-20.604-16.449
				c-9.083-4.097-19.235-3.023-28.257-6.803c-2.21-0.926-5.927,3.705-3.377,4.773c5.15,2.157,10.85,2.491,16.324,3.259
				c6.307,0.884,12.423,3.374,17.86,6.642c10.614,6.376,22.491,19.075,11.886,30.694c-9.565,10.481-25.562,12.389-38.732,14.555
				c-16.225,2.669-32.639,4.013-48.979,5.753c-31.532,3.357-62.762,4.126-94.355,1.144c-13.863-1.309-27.703-3.297-40.854-8.039
				c-8.062-2.907-23.179-8.438-23.381-18.886c-0.167-8.635,10.122-16.242,16.224-20.761c6.952-5.147,14.541-9.363,22.643-12.382
				c32.436-12.088,66.755-10.303,100.596-13.454C300.71,273.843,301.86,272.466,300.813,272.359L300.813,272.359z"/>
		</g>
	</g>
	<g>
		<g>
			<path fill="#010101" d="M158.493,327.352c-1.234,3.82-0.393,7.98-0.443,11.901c-0.036,2.777,5.718,0.079,4.633-2.71
				c-1.249-3.21-0.629-7.047-2.115-10.164C160.049,325.291,158.687,326.753,158.493,327.352L158.493,327.352z"/>
		</g>
	</g>
	<g>
		<g>
			<path fill="#010101" d="M159.773,340.531c4.759,7.784,12.85,11.585,21.122,14.789c9.68,3.749,19.908,5.697,30.176,6.93
				c27.783,3.336,56.059,1.148,83.875-0.563c24.304-1.495,48.734-3.021,72.887-6.226c9.647-1.279,19.257-3.275,28.285-6.98
				c7.496-3.077,16.678-8.735,19.46-16.75c1.127-3.247-4.061-1.062-4.787,1.119c-1.318,3.956-6.772,7.196-10.181,9.122
				c-4.02,2.271-8.419,3.842-12.828,5.155c-8.938,2.662-18.31,3.834-27.556,4.814c-23.61,2.503-47.296,4.161-70.992,5.589
				c-24.694,1.489-49.526,2.88-74.207,0.428c-10.203-1.013-20.165-3.056-29.896-6.281c-8.102-2.685-17.323-6.521-23.099-13.054
				C161.256,337.746,159.218,339.623,159.773,340.531L159.773,340.531z"/>
		</g>
	</g>
	<g>
		<g>
			<path fill="#010101" d="M413.555,316.849c-0.603,1.843-0.595,3.975-0.684,5.899c-0.091,1.974-0.299,4.075-0.04,6.042
				c0.377,2.864,4.778-0.19,4.311-2.521c-0.346-1.718-0.544-3.442-0.701-5.188c-0.147-1.644-0.071-3.703-0.774-5.223
				C415.148,314.74,413.75,316.249,413.555,316.849L413.555,316.849z"/>
		</g>
	</g>
	<g>
		<g>
			<path fill="#010101" d="M188.347,357.129c-1.841,13.386,0.042,27.014-2.221,40.44c-2.045,12.132-6.43,23.739-8.768,35.815
				c-0.306,1.577,1.016,2.076,2.304,1.512c15.208-6.661,19.761-25.352,22.211-40.253c1.112-6.761,2.106-13.543,2.69-20.372
				c0.288-3.373,1.938-12.888-2.442-14.525c-1.7-0.637-4.969,2.463-3.384,4.005c2.477,2.411,1.137,9.833,0.927,12.811
				c-0.42,5.94-1.295,11.855-2.226,17.734c-1.995,12.61-4.895,30.732-17.899,36.528c0.768,0.504,1.536,1.008,2.304,1.512
				c2.236-12.012,6.247-23.614,8.203-35.684c1.009-6.223,1.028-12.518,0.994-18.806c-0.039-6.979,0.071-14.402-1.056-21.294
				C189.817,355.538,188.434,356.495,188.347,357.129L188.347,357.129z"/>
		</g>
	</g>
	<g>
		<g>
			<path fill="#010101" d="M356.549,355.61c-1.394,14.959,3.264,30.985,9.235,44.537c5.792,13.145,14.561,25.81,26.12,34.503
				c1.325,0.997,3.813-1.444,2.758-2.756c-0.817-1.016-0.717-0.936-1.793-1.487c-0.899-0.461-2.115,1.046-1.864,1.864
				c0.199,0.715,0.439,1.416,0.722,2.103c0.979-0.826,1.957-1.653,2.936-2.479c-11.202-9.314-19.688-20.683-25.882-33.867
				c-6.516-13.87-8.509-28.153-10.735-43.116C357.893,353.892,356.605,355.012,356.549,355.61L356.549,355.61z"/>
		</g>
	</g>
	<g>
		<g>
			<path fill="#010101" d="M372.414,353.467c-6.253,12.239,0.342,28.892,4.658,40.74c2.66,7.303,5.048,15.15,9.032,21.861
				c1.597,2.689,10.076,12.557,7.542,15.849c0.875-0.313,1.751-0.627,2.626-0.939c-0.543-0.669-0.952-1.408-1.229-2.219
				c-0.636-1.505-2.814,0.615-2.79,1.632c0.038,1.555,0.123,2.267,1.202,3.403c0.791,0.834,2.154-0.326,2.626-0.939
				c2.782-3.616-0.063-8.205-2.005-11.519c-3.495-5.961-6.855-11.309-9.479-17.776c-6.311-15.554-13.753-33.175-10.711-50.252
				C374.088,352.184,372.682,352.943,372.414,353.467L372.414,353.467z"/>
		</g>
	</g>
	<g>
		<g>
			<path fill="#010101" d="M262.292,361.498c-0.815,4.484-0.56,9.136-0.948,13.681c-0.518,6.051-1.949,12.017-3.866,17.765
				c-1.097,3.292,3.71,1.022,4.527-0.489c0.488-0.903,0.734-1.487,0.941-2.475c0.252-1.206-0.767-1.486-1.708-1.121
				c-1.863,0.724-2.634,1.727-3.542,3.465c1.509-0.163,3.018-0.326,4.527-0.489c2.667-8.904,5.719-22.252,1.86-31.176
				C263.69,359.748,262.394,360.938,262.292,361.498L262.292,361.498z"/>
		</g>
	</g>
	<g>
		<g>
			<path fill="#010101" d="M276.002,361.128c-1.339,5.835-1.603,11.544-3.978,17.147c-2.541,5.994-6.954,10.833-12.399,14.305
				c0.938-0.096,1.876-0.19,2.815-0.286c-0.129-0.1-0.259-0.2-0.388-0.3c-0.682,1.438-1.364,2.875-2.046,4.312
				c0.153-0.088,0.306-0.177,0.458-0.266c1.404-0.815,3.828-5.599,0.487-4.501c-0.148,0.049-0.297,0.098-0.445,0.146
				c-1.15,0.378-4.546,3.104-2.679,4.534c0.13,0.1,0.26,0.199,0.39,0.299c0.906,0.693,1.953,0.268,2.815-0.286
				c6.404-4.109,11.292-9.709,14.59-16.555c2.623-5.444,5.072-13.712,2.455-19.522C277.597,359.092,276.147,360.494,276.002,361.128
				L276.002,361.128z"/>
		</g>
	</g>
	<g>
		<g>
			<path fill="#010101" d="M456.295,296.893c3.664-2.101,6.319-5.338,10.216-7.214c4.356-2.098,9.373-2.921,14.146-3.367
				c4.563-0.428,9.173-0.343,13.747-0.159c3.926,0.158,8.024,1.28,11.753-0.122c1.523-0.572,5.104-4.47,2.902-6.116
				c-3.12-2.334-9.906-1.082-13.704-1.059c-5.424,0.034-10.843,0.449-16.191,1.352c-5.222,0.881-10.362,2.589-14.964,5.217
				c-3.646,2.082-9.049,5.792-9.636,10.333C454.426,296.831,455.287,297.471,456.295,296.893L456.295,296.893z"/>
		</g>
	</g>
	<g>
		<g>
			<path fill="#010101" d="M552.323,183.783c-17.452-0.708-32.367,18.055-39.608,31.99c-10.459,20.129-10.983,43.463-8.901,65.524
				c0.419,4.442,7.702,0.021,7.119-3.328c-3.211-18.459-2.342-38.495,4.22-56.146c3.112-8.373,7.919-15.796,13.938-22.355
				c5.885-6.412,13.697-13.085,22.667-14.081C552.374,185.318,553.316,183.823,552.323,183.783L552.323,183.783z"/>
		</g>
	</g>
	<g>
		<g>
			<path fill="#010101" d="M449.164,338.821c-5.688,9.033-3.964,22.336-2.231,32.204c0.794,4.519,6.767-0.27,6.836-3.195
				c0.013-0.552,0.026-1.104,0.039-1.656c0.017-0.687-0.414-1.494-1.109-1.702c-0.319-0.096-0.638-0.191-0.957-0.286
				c-1.178-0.354-2.201,0.555-2.896,1.386c-1.594,1.908-1.973,2.987-1.913,5.454c2.232-1.307,4.465-2.612,6.697-3.919
				c-2.727-4.27-2.331-10.495-2.264-15.371c0.058-4.188,1.74-9.529,0.535-13.554C451.504,336.855,449.54,338.223,449.164,338.821
				L449.164,338.821z"/>
		</g>
	</g>
	<g>
		<g>
			<path fill="#010101" d="M451.699,372.622c1.664-0.817,2.842-2.314,4.294-3.443c2.015-1.565,4.408-2.624,6.754-3.579
				c5.386-2.194,11.214-3.35,16.933-4.27c9.196-1.48,17.208-1.452,26.296,0.363c13.634,2.725,46.385,12.471,51.378-8.3
				c1.4-5.822-6.463-1.973-7.823,0.847c-2.979,6.178-16.373,3.599-21.704,2.985c-9.42-1.082-18.644-3.623-28.089-4.468
				c-9.146-0.817-19.539,1.688-28.266,4.113c-5.163,1.435-10.073,3.466-14.588,6.363c-2.271,1.456-7.863,5.822-6.554,9.103
				C450.554,372.896,451.252,372.842,451.699,372.622L451.699,372.622z"/>
		</g>
	</g>
	<g>
		<g>
			<path fill="#010101" d="M559.975,241.604c-4.04,9.216-7.782,18.056-10.355,27.826c-2.689,10.208-4.151,20.751-4.884,31.271
				c-0.664,9.537-0.015,21.296,3.841,30.199c2.084,4.813,7.008,11.153,3.898,16.094c-0.624,0.991-1.385,2.906,0.158,3.534
				c2.602,1.058,4.953-1.388,6.447-3.201c1.937-2.351,1.449-5.562,0.928-8.295c-0.673-3.523-2.605-6.876-4.236-10.026
				c-2.418-4.671-3.593-9.798-4.504-14.961c-4.151-23.523,1.836-50.205,9.684-72.412
				C561.245,240.803,560.208,241.071,559.975,241.604L559.975,241.604z"/>
		</g>
	</g>
	<g>
		<g>
			<path fill="#010101" d="M455.167,370.183c-1.021,8.426-3.695,16.817,2.805,23.739c1.176,1.251,3.479-0.435,4.12-1.475
				c5.172-8.385,3.562-19.654,3.145-29.051c-0.176-3.974-6.12,0.163-6.176,2.887c-0.173,8.314,2.383,17.444-1.179,25.359
				c1.355-0.809,2.71-1.617,4.065-2.426c-6.084-2.65-5.323-13.8-5.914-19.339C455.976,369.338,455.207,369.852,455.167,370.183
				L455.167,370.183z"/>
		</g>
	</g>
	<g>
		<g>
			<path fill="#010101" d="M532.743,361.892c-2.624,4.185-6.716,29.396,2.576,27.573c5.349-1.049,7.44-7.282,8.155-11.967
				c0.5-3.283,2.255-11.829-1.993-13.235c-1.263-0.417-2.563,0.807-3.075,1.835c-1.354,2.721-1.374,5.313-1.37,8.404
				c0.002,2.113-0.143,4.219-0.475,6.306c-0.13,0.811-0.293,1.604-0.487,2.402c-0.42,1.714-0.442,0.566,0.007,0.666
				c-1.875-0.414-1.271-10.414-1.25-11.794c0.041-2.785,1.187-8.094-0.133-10.647C534.265,360.594,533.085,361.346,532.743,361.892
				L532.743,361.892z"/>
		</g>
	</g>
	<g>
		<g>
			<path fill="#010101" d="M423.107,223.353c-1.562,7.148-2.346,14.813-2.499,22.123c-0.066,3.195-0.65,6.785-0.301,9.94
				c0.259,2.347,3.92-0.013,3.719-1.738c-0.086-0.739-0.312-1.19-1.045-1.413c-0.688-0.208-1.291,0.326-1.695,0.812
				c-0.605,0.727-0.881,1.405-0.979,2.34c-0.232,2.21,3.55-0.045,3.719-1.738c0.286-2.847-0.225-6.061-0.286-8.944
				c-0.153-7.222,0.486-14.403,0.117-21.646C423.833,222.603,423.164,223.094,423.107,223.353L423.107,223.353z"/>
		</g>
	</g>
	<g>
		<g>
			<path fill="#010101" d="M412.601,210.903c-0.833,3.435,0.955,6.262,2.813,9.054c1.044,1.57,2.207,3.06,3.322,4.579
				c0.722,0.983,1.254,2.465,2.413,2.996c1.057,0.484,2.23-0.932,2.482-1.783c0.692-2.339-2.367-4.625-3.742-6.134
				c-2.493-2.735-4.954-5.684-6.515-9.074C413.191,210.145,412.658,210.668,412.601,210.903L412.601,210.903z"/>
		</g>
	</g>
	<g>
		<g>
			<path fill="#010101" d="M412.027,210.039c-3.37,4.319-3.59,10.481-3.996,15.731c-0.604,7.784-0.162,15.911-2.196,23.506
				c1.292-0.455,2.584-0.91,3.876-1.365c0.002-0.22,0.004-0.439,0.007-0.659c-1.104,0.937-2.206,1.875-3.309,2.812
				c2.787,1.382,5.083,3.519,7.213,5.752c0.95,0.997,4.1,4.381,3.938,5.776c-0.16,1.388,1.359,1.196,2.051,0.41
				c5.092-5.797-5.89-13.56-10.525-15.72c-1.476-0.688-3.322,1.495-3.309,2.812c0.003,0.217,0.005,0.435,0.007,0.652
				c0.026,2.427,3.647,0.062,3.876-1.365c0.966-6.022,1.066-12.039,1.115-18.128c0.056-6.914,1.016-13.392,1.97-20.191
				C412.819,209.525,412.211,209.804,412.027,210.039L412.027,210.039z"/>
		</g>
	</g>
	<g>
		<g>
			<path fill="#010101" d="M452.813,242.883c-2.999-1.517-7.817-0.125-10.734,0.965c-3.554,1.327-5.963,4.595-6.058,8.393
				c-0.082,3.269,3.311,4.709,5.96,5.328c3.208,0.749,7.392,1.627,10.362,0.021c0.442-0.239,1.267-0.979,0.946-1.586
				c-1.087-2.053-3.728-1.531-5.829-1.697c-2.32-0.184-5.063-0.421-6.958-1.917c-0.903-0.714-1.092-1.76-0.906-2.842
				c0.313-1.832,1.598-2.522,3.18-3.182c3.044-1.27,6.478-1.029,9.56-2.135C452.752,244.082,453.422,243.19,452.813,242.883
				L452.813,242.883z"/>
		</g>
	</g>
	<g>
		<g>
			<path fill="#010101" d="M421.949,226.818c9.021-2.974,17.776-6.181,27.426-6.053c-0.353-0.537-0.705-1.075-1.058-1.612
				c-0.685,4.112-0.438,8.256-0.354,12.405c0.049,2.394-0.021,4.76-0.506,7.111c-0.289,1.398-0.862,1.957-0.553,3.34
				c0.144,0.642,1.108,0.546,1.52,0.316c7.051-3.931,2.938-17.659,3.959-24.124c0.116-0.731-0.114-1.661-1.058-1.612
				c-10.109,0.516-20.83,3.079-29.43,8.596C421.361,225.529,420.789,227.201,421.949,226.818L421.949,226.818z"/>
		</g>
	</g>
	<g>
		<g>
			<path fill="#010101" d="M419.329,266.79c10.821-2.699,23.99-5.942,34.729-1.37c0.685-1.459,1.368-2.917,2.053-4.376
				c-1.835,0.612-3.174,0.711-4.488,2.164c-0.43,0.475-1.058,1.547-0.2,1.958c1.313,0.629,2.266,0.497,3.657,0.286
				c1.381-0.209,4.27-3.463,2.053-4.376c-5.631-2.32-12.229-2.113-18.167-1.44c-6.647,0.754-13.559,2.061-19.445,5.396
				C418.957,265.352,417.982,267.127,419.329,266.79L419.329,266.79z"/>
		</g>
	</g>
	<g>
		<g>
			<path fill="#010101" d="M454.105,244.62c0.014-0.001,1.082,4.229,1.122,4.448c0.447,2.465-0.362,4.683-0.316,7.092
				c0.035,1.78,2.336,0.364,2.823-0.301c2.018-2.748,1.966-6.866,0.693-9.937c-0.362-0.872-1.103-2.113-2.039-2.475
				c-0.827-0.319-1.499,0.295-2.019,0.421C454.109,243.933,453.645,244.667,454.105,244.62L454.105,244.62z"/>
		</g>
	</g>
	<g>
		<g>
			<path fill="#010101" d="M459.204,242.311c6.229,0.434,12.27-1.91,18.532-1.607c1.021,0.049,2.346-1.073,2.46-2.095
				c0.025-0.225,0.051-0.449,0.075-0.673c-0.856,0.73-1.714,1.46-2.571,2.19c4.092-0.427,8.354-0.489,12.267,0.884
				c4.224,1.482,4.979,4.574,7.136,7.938c0.578,0.902,1.794-0.058,2.104-0.744c5.178-11.478-13.251-13.567-20.266-11.6
				c-0.99,0.278-2.337,1.4-2.19,2.572c0.025,0.207,0.052,0.413,0.077,0.619c0.835-0.834,1.67-1.669,2.505-2.504
				c-6.618,0.633-13.247,1.843-19.647,3.654C459.248,241.067,458.293,242.247,459.204,242.311L459.204,242.311z"/>
		</g>
	</g>
	<g>
		<g>
			<path fill="#010101" d="M516.823,191.875c-9.036-1.314-15.367,8.117-19.053,14.958c-2.771,5.144-4.78,10.671-6.845,16.123
				c-0.916,2.418-1.843,4.831-2.868,7.204c-0.757,1.751-2.104,3.52-2.446,5.395c-0.431,2.361,2.176,1.614,3.236,0.646
				c2.468-2.253,3.491-6.304,4.596-9.354c1.554-4.289,2.95-8.631,4.555-12.901c3.476-9.247,7.76-18.916,18.419-20.916
				C516.843,192.95,517.556,191.982,516.823,191.875L516.823,191.875z"/>
		</g>
	</g>
	<g>
		<g>
			<path fill="#010101" d="M496.364,123.07c-13.938,2.634-18.14,21.481-17.221,33.293c1.189,15.277,19.058,24.841,31.278,13.716
				c9.598-8.737,10.669-25.304,7.973-37.18c-1.571-6.92-6.851-12.595-13.846-14.051c-6.411-1.334-15.093,1.359-18.287,7.349
				c-0.705,1.322,0.02,2.682,1.563,2.381c2.42-0.472,4.321-2.142,6.651-2.943c2.63-0.905,5.385-0.838,8.036-0.111
				c5.019,1.376,8.193,5.966,9.64,10.692c2.619,8.565,1.81,20.951-3.084,28.576c-3.153,4.914-10.289,4.74-15.088,2.828
				c-5.475-2.182-8.875-8.029-9.844-13.589c-2.101-12.062,1.681-23.426,12.262-29.961
				C496.762,123.845,497.085,122.934,496.364,123.07L496.364,123.07z"/>
		</g>
	</g>
	<g>
		<g>
			<path fill="#010101" d="M516.343,143.535c2.29-0.425,4.912,0.355,5.749,2.808c0.14,0.411,0.118,0.964,0.068,1.218
				c-0.026,0.136-0.167,0.394-0.002,0.123c-0.198,0.269-0.188,0.273,0.033,0.014c-0.119,0.131-0.246,0.256-0.378,0.375
				c0.59-0.555-0.604,0.354-0.213,0.132c-0.315,0.179-0.664,0.342-1.009,0.455c-1.417,0.466-2.815,0.918-4.216,1.416
				c-0.862,0.306-3.099,3.111-1.267,3.581c3.106,0.798,6.563-0.314,8.904-2.587c1.656-1.608,2.999-3.978,2.549-6.361
				c-0.378-1.998-1.679-3.476-3.592-4.17c-2.416-0.876-4.751-0.043-6.679,1.442C515.805,142.355,515.173,143.751,516.343,143.535
				L516.343,143.535z"/>
		</g>
	</g>
	<g>
		<g>
			<path fill="#010101" d="M479.823,141.291c-1.804,1.007-2.959,2.215-3.568,4.25c-0.538,1.797,0.036,5.191,1.99,6.028
				c2.344,1.003,4.005-1.226,3.398-3.399c-0.5-1.789-3.143-3.767-1.38-5.759C480.677,141.944,480.748,140.774,479.823,141.291
				L479.823,141.291z"/>
		</g>
	</g>
	<g>
		<g>
			<path fill="#010101" d="M488.435,126.939c1.771-3.427,2.337-7.842,0.312-11.276c-1.961-3.326-6.321-5.365-10.161-4.45
				c-1.487,0.354-3.683,1.494-3.629,3.349c0.053,1.802,2.907,1.311,4.025,1.342c1.095,0.031,2.096,0.406,3.09,0.825
				c4.049,1.706,5.12,6.692,4.819,10.572C486.813,128.314,488.25,127.296,488.435,126.939L488.435,126.939z"/>
		</g>
	</g>
	<g>
		<g>
			<path fill="#010101" d="M496.728,118.783c0.727-2.884-0.687-6.089-2.37-8.378c-0.741-1.007-1.769-1.764-2.842-2.377
				c-1.468-0.839-2.709-0.146-3.894,0.619c-0.783,0.506-1.517,1.674-0.91,2.546c-0.045-0.092-0.09-0.184-0.135-0.276
				c-0.012,0.473,0.273,0.936,0.72,1.105c1.692,0.639,2.762,1.612,3.966,2.944c1.37,1.516,1.961,3.617,3.307,5.093
				C495.295,120.853,496.565,119.425,496.728,118.783L496.728,118.783z"/>
		</g>
	</g>
	<g>
		<g>
			<path fill="#010101" d="M504.048,118.463c-0.459-3.15-0.203-6.24-2.309-8.887c-1.392-1.749-5.396,2.044-3.863,3.864
				c1.559,1.852,2.876,4.198,3.7,6.469C502.041,121.191,504.188,119.423,504.048,118.463L504.048,118.463z"/>
		</g>
	</g>
	<g>
		<g>
			<path fill="#010101" d="M513.327,119.725c0.034-0.933,0.272-1.756,0.173-2.708c-0.105-1.012-0.331-2.022-0.622-2.996
				c-0.653-2.186-5.025,0.909-4.192,2.966c0.314-0.878,0.63-1.757,0.944-2.636c-0.65,0.558-1.297,1.764-0.944,2.636
				c0.269,0.662,0.605,1.287,0.942,1.916c0.299,0.558,0.915,1.468,0.969,2.098c0.064,0.767,0.814,0.844,1.401,0.569
				C512.705,121.241,513.298,120.521,513.327,119.725L513.327,119.725z"/>
		</g>
	</g>
	<g>
		<g>
			<path fill="#010101" d="M515.923,124.325c-0.031-0.406,0.017-0.917-0.251-1.249c-0.187-0.23-0.297-0.458-0.535-0.644
				c-0.333-0.26-0.847,0.061-1.03,0.368c-0.221,0.37-0.354,0.768-0.563,1.136c-0.283,0.497-0.258,1.086-0.298,1.641
				c-0.058,0.783,0.887,0.786,1.375,0.559C515.25,125.842,515.982,125.083,515.923,124.325L515.923,124.325z"/>
		</g>
	</g>
	<g>
		<g>
			<path fill="#010101" d="M488.715,169.97c0.733,6.972,1.646,15.313-1.672,21.756c-2.144,4.162,4.743,3.248,5.534-0.599
				c1.553-7.555,1.539-15.222-1.977-22.26C490.124,167.914,488.637,169.229,488.715,169.97L488.715,169.97z"/>
		</g>
	</g>
	<g>
		<g>
			<path fill="#010101" d="M408.901,230.72c-1.954-0.181-3.611,1.559-4.588,3.068c-1.502,2.321-1.477,4.941-0.92,7.554
				c0.122,0.573,0.759,0.72,1.225,0.799c1.139,0.191,1.817,0.712,3.015,0.376c1.051-0.295,2.09-1.212,2.317-2.318
				c0.427-2.068-1.083-3.02-3.006-3.036c0.408,0.267,0.816,0.533,1.225,0.799c-0.494-1.21-0.838-2.386-0.56-3.691
				c0.168-0.79,1.093-1.563,1.577-2.182C409.538,231.639,409.647,230.79,408.901,230.72L408.901,230.72z"/>
		</g>
	</g>
	<g>
		<g>
			<path fill="#010101" d="M488.139,188.756c-3.977-4.241-14.467,5.244-17.139,7.578c-6.723,5.873-12.323,12.928-19.489,18.285
				c-2.816,2.105-2.149,6.816,1.611,4.185c5.944-4.159,10.603-10.516,15.664-15.653c2.989-3.033,6.105-5.94,9.549-8.453
				c2.796-2.04,5.73-2.405,8.755-3.731C487.74,190.681,488.821,189.484,488.139,188.756L488.139,188.756z"/>
		</g>
	</g>
	<g>
		<g>
			<path fill="#010101" d="M484.434,201.253c0.975,4.044,7.462,6.985,11.262,5.953c1.29-0.35,4.557-3.556,2.135-4.55
				c-1.653-0.679-3.74-0.423-5.507-0.871c-2.136-0.542-3.683-1.987-5.652-2.769C485.521,198.559,484.182,200.204,484.434,201.253
				L484.434,201.253z"/>
		</g>
	</g>
	<g>
		<g>
			<path fill="#010101" d="M508.488,173.427c-1.274,2.232-4.248,18.017,0.237,16.969c3.564-0.833,2.511-4.468,2.173-6.947
				c-0.469-3.436-0.563-6.982-0.597-10.445C510.29,171.787,508.729,173.007,508.488,173.427L508.488,173.427z"/>
		</g>
	</g>
	<g>
		<g>
			<path fill="#010101" d="M509.565,187.441c2.932,1.508,5.986,2.726,8.939,4.189c1.549,0.767,3.036,1.602,4.328,2.759
				c1.264,1.132,0.614,1.433,1.048,2.857c0.72,2.364,4.033-0.169,4.741-1.109c5.938-7.875-12.845-11.379-17.224-11.831
				C510.161,184.179,507.992,186.632,509.565,187.441L509.565,187.441z"/>
		</g>
	</g>
	<g>
		<g>
			<path fill="#010101" d="M474.962,207.102c-2.841,10.55-4.343,21.365-7.155,31.908c0.928-1.09,1.855-2.179,2.783-3.269
				c-2.101,0.864-5.674,2.141-5.59,5.029c0.109,3.75,6.896-0.282,7.828-1.598c1.139-1.607,0.945-3.864,1.065-5.727
				c0.224-3.462,0.923-6.959,1.362-10.403c0.706-5.531,1.107-11.071,1.632-16.618C477.002,205.215,475.134,206.467,474.962,207.102
				L474.962,207.102z"/>
		</g>
	</g>
	<g>
		<g>
			<path fill="#010101" d="M449.963,271.852c-15.113,0.955-26.627,14.569-29.245,28.599c-1.984,10.63,0.942,21.688,2.883,32.1
				c2.123,11.396,2.636,23.022,4.513,34.455c0.674,4.109,5.824,0.021,6.375-2.245c0.375-1.544,0.283-2.395-0.438-3.803
				c-1.318-2.573-5.242,0.653-5.456,2.559c-0.006,0.052-0.078,1.809-0.108,1.893c2.028-0.474,4.058-0.948,6.086-1.423
				c-1.278-9.051-2.184-18.145-3.422-27.2c-1.283-9.392-3.689-18.585-4.624-28.029c-0.832-8.408,0.544-17.164,5.594-24.104
				c4.335-5.958,11.68-8.18,17.737-11.809C450.102,272.698,450.574,271.813,449.963,271.852L449.963,271.852z"/>
		</g>
	</g>
	<g>
		<g>
			<path fill="#010101" d="M423.296,265.51c-7.501-0.619-13.656,7.48-15.824,13.715c-2.692,7.744-0.724,16.736,0.726,24.519
				c0.125,0.669,0.287,1.381,1.052,1.612c0.254,0.077,0.508,0.154,0.762,0.231c1.613,0.489,3.162-0.988,3.843-2.293
				c1.49-2.855,0.25-5.537-0.39-8.535c-0.72-3.369-1.224-6.768-1.369-10.211c-0.142-3.367,0.37-6.589,1.823-9.637
				c1.814-3.807,6.021-5.292,9.191-7.642C423.56,266.936,424.385,265.601,423.296,265.51L423.296,265.51z"/>
		</g>
	</g>
	<g>
		<g>
			<path fill="#010101" d="M428.751,368.087c4.831,4.269,13.489,3.089,16.885-2.587c0.542-0.905,1.27-2.339,0.333-3.275
				c-1.102-1.102-3.172,0.002-3.983,0.931c-2.566,2.938-7.343,3.152-10.929,2.203C429.95,365.065,427.561,367.036,428.751,368.087
				L428.751,368.087z"/>
		</g>
	</g>
	<g>
		<g>
			<path fill="#010101" d="M411.462,338.826c-1.454,8.812,2.6,17.835,1.099,26.728c-0.178,1.054,0.01,1.725,0.924,2.293
				c5.557,3.458,12.414,3.037,16.794-2.105c2.208-2.594,1.146-5.883-2.393-3.727c-3.218,1.961-5.568,1.988-8.913,0.521
				c-1.229-0.539-1.505-8.16-1.742-9.553c-0.816-4.79-1.394-10.845-4.033-14.97C412.705,337.244,411.568,338.18,411.462,338.826
				L411.462,338.826z"/>
		</g>
	</g>
	<g>
		<g>
			<path fill="#010101" d="M433.899,367.396c-2.826,2.433-6.963,8.072-6.804,12.004c0.15,3.703,2.799,7.04,6.664,6.881
				c4.166-0.172,7.951-3.399,10.621-6.314c2.747-2.999,6.348-7.711,6.172-12.018c-0.14-3.442-4.798-0.325-5.448,1.273
				c-1.654,4.065-3.972,9.856-8.748,11.113c-2.535,0.667-4.099-2.982-3.578-4.885c0.721-2.631,3.272-5.187,3.207-7.972
				C435.955,366.189,434.397,366.968,433.899,367.396L433.899,367.396z"/>
		</g>
	</g>
	<g>
		<g>
			<path fill="#010101" d="M420.657,365.175c-3.18-0.196-5.599,1.261-7.179,4.078c-1.261,2.25-1.371,5.191-0.308,7.536
				c3.159,6.97,12.187,4.887,16.045-0.292c0.633-0.849,1.234-2.427,0.338-3.324c-0.95-0.95-2.407-0.213-3.324,0.338
				c-0.968,0.58-1.525,1.179-2.325,1.551c-0.534,0.248-1.105,0.329-1.939,0.27c-1.298-0.094-2.633-1.137-3.524-2.292
				c-0.671-0.869-1.19-2.412-1.077-3.274c0.105-0.801,0.147-0.785,0.472-1.12c0.659-0.681,1.519-1.264,2.393-1.632
				C420.769,366.785,421.819,365.247,420.657,365.175L420.657,365.175z"/>
		</g>
	</g>
	<g>
		<g>
			<path fill="#010101" d="M488.3,142.314c-0.196,1.625-0.375,3.246-0.51,4.877c0.073-0.311,0.146-0.621,0.219-0.932
				c-0.046,0.088-0.091,0.177-0.136,0.266c-0.558,1.098-0.014,2.357,1.34,2.041c1.278-0.299,2.479-1.6,2.503-2.939
				c0.027-1.542,0.026-3.088,0.088-4.629c-1.418,0.663-2.836,1.326-4.254,1.988c-0.04,1.988,0.595,3.919,1.314,5.753
				c0.919,2.344,4.819-1.046,4.248-3.007c-0.466-1.6-1.196-3.045-1.309-4.734c-0.079-1.202-1.284-1.307-2.184-0.888
				c-1.032,0.481-2.122,1.659-2.07,2.876c0.063,1.514,0.061,3.033,0.088,4.547c0.026,1.504,1.815,1.112,2.616,0.545
				c0.839-0.594,2.097-2.213,1.155-3.231c-0.043-0.047-0.086-0.094-0.13-0.141c0.095,0.241,0.189,0.481,0.284,0.721
				c-0.123-1.372-0.288-2.731-0.473-4.097C490.856,139.598,488.43,141.235,488.3,142.314L488.3,142.314z"/>
		</g>
	</g>
	<g>
		<g>
			<path fill="#010101" d="M497.694,141.608c-0.682,2.491-0.956,5.388-1.049,7.971c1.472-0.688,2.944-1.375,4.416-2.063
				c-0.02-1.996-0.554-3.94-0.592-5.929c-0.019-0.972-0.905-1.35-1.755-1.151c-1.301,0.304-2.383,1.467-2.731,2.731
				c-0.562,2.037,0.072,4.108,1.438,5.692c1.48,1.718,4.729-1.76,4.1-3.463c-0.418-1.13-1.439-1.971-1.109-3.264
				c-1.496,0.527-2.991,1.053-4.486,1.58c0.081,1.973,0.658,3.889,0.721,5.869c0.041,1.259,1.365,1.341,2.267,0.921
				c1.076-0.502,2.195-1.72,2.149-2.984c-0.082-2.206-0.315-4.91-1.066-6.986C499.542,139.277,497.864,140.987,497.694,141.608
				L497.694,141.608z"/>
		</g>
	</g>
	<g>
		<g>
			<path fill="#010101" d="M495.914,163.669c0.39-0.07,0.779-0.139,1.171-0.201c0.213-0.034,0.425-0.073,0.638-0.108
				c0.126-0.021,0.252-0.039,0.378-0.057c0.419-0.059-0.344,0.029,0.051-0.008c0.173-0.016,0.347-0.022,0.521-0.021
				c0.061,0.001,0.12,0.004,0.181,0.009c0.314,0.02-0.373-0.097-0.104-0.025c0.039,0.012,0.077,0.027,0.114,0.046
				c-0.848-0.393,0.609,0.466-0.162-0.099c-0.119-0.087-0.212-0.605-0.209-0.502c0.008,0.288,0.05,0.303,0.108,0.479
				c-0.008-0.267-0.017-0.535-0.025-0.802c0.12-0.308,0.135-0.369,0.045-0.183c0.301-0.581-0.093,0.129-0.179,0.332
				c-0.173,0.408-0.246,0.799-0.104,1.224c0.105,0.315,0.385,0.388,0.671,0.438c1.08,0.186,2.018-0.969,2.604-1.712
				c-0.268,0.268-0.535,0.535-0.803,0.803c0.8-0.671,1.894-1.907,1.366-3.072c-0.379-0.84-1.359-0.755-2.11-0.625
				c-1.345,0.232-2.65,0.907-3.87,1.494c-0.614,0.295-1.163,0.875-1.321,1.551C494.7,163.369,495.206,163.796,495.914,163.669
				L495.914,163.669z"/>
		</g>
	</g>
	<g>
		<g>
			<path fill="#010101" d="M418.926,262.472c2.998-1.678,6.457-2.563,9.77-3.382c0.912-0.226,8.605-1.983,8.943-0.859
				c0.576,1.914,3.292-0.855,3.347-1.958c-0.554,0.77-1.108,1.539-1.662,2.309c0.904-0.319,1.616-1.379,1.662-2.309
				c0.292-5.948-20.109,2.182-22.477,4.021C417.572,261.02,417.175,263.451,418.926,262.472L418.926,262.472z"/>
		</g>
	</g>
	<g>
		<g>
			<path fill="#010101" d="M513.674,186.061c7.053-10.369,19.252-11.262,30.222-6.964c4.927,1.93,9.15,5.167,12.431,9.29
				c3.67,4.612,3.203,9.569,4.831,14.807c0.396,1.277,2.183-0.313,2.445-0.865c6.187-13.03-8.789-24.944-19.608-28.22
				c-11.326-3.43-26.551-0.301-31.205,11.784C512.506,186.628,513.377,186.497,513.674,186.061L513.674,186.061z"/>
		</g>
	</g>
	<g>
		<g>
			<path fill="#010101" d="M457.086,292.353c-9.297,1.643-14.464,13.69-15.369,21.916c-0.574,5.218-0.417,10.502,0.427,15.684
				c0.574,3.531,1.076,11.083,4.82,12.907c1.502,0.732,2.309,1.541,4.112,0.699c1.785-0.833,3.144-2.998,3.26-4.925
				c0.315-5.255-0.725-9.722-1.508-14.945c-1.497-9.984-1.874-19.904,4.947-27.886C458.754,294.657,459.641,291.901,457.086,292.353
				L457.086,292.353z"/>
		</g>
	</g>
	<g>
		<g>
			<path fill="#010101" d="M233.284,203.752c5.673,0.87,10.808,1.229,16.273,3.399c4.616,1.833,10.806,4.7,12.45,9.782
				c0.887,2.741,5.711-1.174,5.031-3.56c-1.595-5.591-9.725-8.639-14.54-10.378c-5.426-1.959-13.682-4.378-19.02-1.071
				C232.908,202.279,232.228,203.59,233.284,203.752L233.284,203.752z"/>
		</g>
	</g>
	<g>
		<g>
			<path fill="#010101" d="M264.675,216.349c4.989-4.87,11.967-6.383,18.706-7.361c2.951-0.428,13.487-2.182,14.567,2.069
				c0.489,1.923,3.396-0.108,3.899-0.912c5.008-7.984-12.119-6.079-15.491-5.649c-6.706,0.855-21.151,3.519-23.341,11.521
				C262.685,217.224,264.19,216.822,264.675,216.349L264.675,216.349z"/>
		</g>
	</g>
	<g>
		<g>
			<path fill="#010101" d="M235.124,201.603c-3.845,3.005-3.451,8.012-3.819,12.46c-0.181,2.191,2.872,0.294,3.38-0.359
				c2.709-3.482,14.282,0.064,17.517,0.892c2.895,0.741,5.741,1.684,8.521,2.781c1.739,0.686,3.565,2.633,5.482,2.097
				c1.121-0.313,2.489-1.395,2.641-2.641c0.013-0.106,0.026-0.212,0.039-0.318c0.06-0.489,0.166-1.23-0.317-1.588
				c-5.248-3.891-13.979-5.155-20.248-6.155c-5.54-0.884-13.679-1.51-16.79,4.328c1.224-0.286,2.448-0.572,3.672-0.858
				c-0.402-3.512-0.689-6.712,0.832-10.045C236.355,201.494,235.66,201.184,235.124,201.603L235.124,201.603z"/>
		</g>
	</g>
	<g>
		<g>
			<path fill="#010101" d="M266.649,219.368c6.583-6.696,19.195-2.125,25.801,1.778c1.624,0.959,3.929-1.456,4.508-2.689
				c1.318-2.81,4.507-4.586,5.294-7.668c-1.729,0.609-3.458,1.217-5.187,1.826c0.012-0.137,0.023-0.274,0.035-0.412
				c-0.29,1.62,1.072,2.308,2.461,1.615c0.581-0.29,1.038-0.602,1.518-1.044c1.787-1.647,1.517-4.952-1.456-3.711
				c-3.137,1.31-6.398,6.221-7.765,9.24c1.503-0.896,3.005-1.793,4.508-2.689c-4.8-2.708-12.138-3.442-17.553-3.344
				c-5.27,0.096-10.318,1.863-13.28,6.382C264.873,219.659,265.914,220.116,266.649,219.368L266.649,219.368z"/>
		</g>
	</g>
	<g>
		<g>
			<path fill="#010101" d="M231.416,213c0.383,2.467,2.167,4.81,3.721,6.699c0.938,1.14,1.984,2.187,3.092,3.161
				c0.557,0.49,1.161,0.918,1.782,1.323c0.618,0.403,1.08,1.067,1.139,0.239c-0.118,1.651,1.89,1.696,2.928,1.189
				c0.127-0.062,0.253-0.124,0.38-0.185c1.358-0.662,3.522-2.968,2.155-4.542c-0.063-0.072-0.126-0.145-0.188-0.217
				c-1.075-1.238-3.084,0.178-3.928,0.918c-0.061,0.053-0.121,0.106-0.182,0.159c0.805-0.382,1.61-0.764,2.416-1.146
				c-2.386,0.153-5.104-2.269-6.827-3.667c-1.868-1.517-3.386-3.229-5.022-4.975C232.385,211.425,231.33,212.453,231.416,213
				L231.416,213z"/>
		</g>
	</g>
	<g>
		<g>
			<path fill="#010101" d="M243.197,225.744c4.078,0.133,8.163-0.441,12.269-0.267c4.215,0.178,10.441,0.126,14.115,2.281
				c3.097,1.816,6.228-5.604,3.085-5.274c-9.497,0.994-19.828-3.466-28.989,1.203C243.148,223.956,241.848,225.7,243.197,225.744
				L243.197,225.744z"/>
		</g>
	</g>
	<g>
		<g>
			<path fill="#010101" d="M270.703,226.695c5.163,1.325,11.05,1.358,16.014,3.313c1.795,0.707,3.751-1.252,4.47-2.667
				c1.265-2.491,3.469-3.914,4.855-6.243c0.504-0.847,1.124-2.881-0.595-2.853c-4.412,0.075-7.818,5.253-9.318,8.942
				c1.061-0.902,2.12-1.805,3.18-2.708c-5.708,1.426-11.836-0.761-17.663,0.203C271.076,224.778,269.627,226.419,270.703,226.695
				L270.703,226.695z"/>
		</g>
	</g>
	<g>
		<g>
			<path fill="#010101" d="M274.044,157.033c-3.705,4.662-10.953,4.556-16.209,6.962c-4.702,2.152-8.812,5.467-12.474,9.067
				c-7.5,7.374-12.706,16.901-17.945,25.913c-0.999,1.718,0.597,3.083,2.246,2.246c1.405-0.713,2.259-1.295,3.396-2.376
				c0.725-0.689,1.259-2.214-0.097-2.458c-1.26-0.227-1.518-0.121-2.804,0.254c0.417,1.033,0.833,2.065,1.25,3.098
				c5.851-9.552,10.989-19.514,19.435-27.11c4.835-4.349,10.653-6.87,16.79-8.766c3.504-1.083,6.018-3.317,7.519-6.617
				C275.575,156.308,274.42,156.56,274.044,157.033L274.044,157.033z"/>
		</g>
	</g>
	<g>
		<g>
			<path fill="#010101" d="M298.562,160.613c-1.862,6.018,3.424,10.328,7.598,13.728c2.885,2.35,5.938,4.764,7.598,8.177
				c1.306,2.686,1.073,6.489,1.038,9.394c-0.147,12.078-4.059,33.891-18.273,36.676c-1.675,0.328-4.672,4.73-1.667,4.735
				c15.503,0.027,22.125-22.593,24.044-34.446c1.046-6.46,2.119-15.417-1.549-21.254c-3.776-6.011-16.857-9.911-16.613-17.775
				C300.781,158.404,298.765,159.958,298.562,160.613L298.562,160.613z"/>
		</g>
	</g>
	<g>
		<g>
			<path fill="#010101" d="M228.215,203.933c-4.423,4.038-7.379,9.707-5.482,15.741c2.067,6.576,10.199,8.45,16.176,8.462
				c0.565-1.604,1.13-3.209,1.695-4.813c-2.074,0.625-3.021,1.205-4.271,2.995c-0.486,0.695-0.649,1.758,0.401,1.927
				c1.122,0.18,1.6,0.057,2.76-0.172c1.711-0.338,4.719-4.894,1.695-4.813c-4.952,0.131-9.807-0.727-13.332-4.463
				c-3.943-4.18-1.295-10.205,1.159-14.35C229.458,203.699,228.771,203.425,228.215,203.933L228.215,203.933z"/>
		</g>
	</g>
	<g>
		<g>
			<path fill="#010101" d="M291.977,111.886c-13.899-1.567-22.496,15.74-24.076,26.99c-1.949,13.888,12.604,27.255,26.286,21.667
				c12.847-5.247,16.863-21.263,14.17-33.81c-2.968-13.831-18.103-18.03-29.675-11.759c-1.103,0.597-2.742,3.437-0.337,3.117
				c9.195-1.222,18.313-2.32,23.468,7.089c4.5,8.214,3.212,23.017-4.26,29.095c-10.21,8.306-24.819-3.18-25.588-14.159
				c-0.373-5.324,1.73-11.383,4.081-16.066c3.333-6.642,9-9.158,15.66-11.394C291.942,112.576,292.498,111.945,291.977,111.886
				L291.977,111.886z"/>
		</g>
	</g>
	<g>
		<g>
			<path fill="#010101" d="M281.55,129.841c-0.34,1.576-0.488,3.197-0.65,4.803c-0.088,0.87,0.88,1.174,1.551,1.017
				c1.016-0.237,2.293-1.311,2.414-2.414c0.135-1.225,0.144-2.455,0.197-3.685c-1.436,0.671-2.872,1.342-4.308,2.014
				c-0.043,1.505,0.49,2.837,0.956,4.239c0.325,0.978,1.591,0.814,2.306,0.48c1.188-0.554,2.258-1.803,2.275-3.161
				c0.009-0.637,0.055-1.285,0.006-1.92c-0.035-0.466-0.244-1.01-0.752-1.154c-0.018-0.005-0.036-0.01-0.055-0.015
				c-1.316-0.373-2.415,0.604-3.199,1.531c-0.886,1.047-0.692,2.476-0.675,3.744c1.527-0.894,3.054-1.787,4.582-2.681
				c-0.379-1.036-1.045-1.958-1.135-3.077c-0.097-1.211-1.288-1.33-2.211-0.899c-1.042,0.486-2.153,1.682-2.097,2.913
				c0.046,1.018,0.021,2.056,0.146,3.067c0.312,2.543,4.224-0.025,4.018-1.878c-0.157-1.404-0.308-2.823-0.671-4.189
				c-0.159-0.596-0.977-0.473-1.375-0.287C282.265,128.573,281.695,129.173,281.55,129.841L281.55,129.841z"/>
		</g>
	</g>
	<g>
		<g>
			<path fill="#010101" d="M290.73,129.772c-0.639,1.97-0.096,3.967,0.01,5.96c0.063,1.19,1.28,1.284,2.156,0.875
				c1.116-0.521,1.954-1.604,2.043-2.838c0.129-1.788,0.024-3.522-0.456-5.256c-0.267-0.961-1.573-0.769-2.228-0.464
				c-1.175,0.548-2.14,1.733-2.197,3.053c-0.034,0.765-0.188,1.508-0.281,2.267c-0.066,0.538-0.127,1.078-0.161,1.619
				c-0.03,0.462,0.247,0.882,0.351,1.263c0.221,0.815,1.335,0.649,1.885,0.393c0.892-0.416,1.52-1.201,1.811-2.125
				c0.275-0.875,0.528-1.647,0.679-2.569c0.157-0.968,0.237-1.977,0.233-2.958c-1.475,0.863-2.95,1.726-4.425,2.589
				c0.452,1.359,0.479,2.736,0.591,4.152c1.295-0.922,2.589-1.844,3.884-2.766c-0.87-1.216-1.091-2.871-1.782-4.185
				C292.275,127.705,290.938,129.132,290.73,129.772L290.73,129.772z"/>
		</g>
	</g>
	<g>
		<g>
			<path fill="#010101" d="M282.092,143.305c-1.084,7.198,11.416,5.542,14.699,2.528c0.657-0.603,1.645-3.019-0.116-2.93
				c-1.985,0.101-3.994,1.362-6.033,1.763c-3.099,0.61-4.819-0.265-7.021-2.265C283.092,141.919,282.172,142.775,282.092,143.305
				L282.092,143.305z"/>
		</g>
	</g>
	<g>
		<g>
			<path fill="#010101" d="M271.191,161.058c-1.537,7.173-0.322,14.91-0.789,22.215c-0.056,0.876,0.875,1.22,1.585,1.04
				c6.58-1.667,12.975-6.486,18.484-10.258c2.267-1.553,4.95-3.231,6.561-5.514c0.905-1.284,0.98-3.622-1.183-3.084
				c-1.106,0.275-2.494,1.637-2.072,2.886c-0.394-1.166,1.377-2.481-0.1-1.046c-0.563,0.547-1.171,1.03-1.788,1.514
				c-2.127,1.667-4.387,3.171-6.644,4.654c-3.722,2.446-7.972,5.644-12.324,6.852c0.528,0.346,1.057,0.693,1.585,1.04
				c-0.543-6.795-0.013-14.411-1.845-20.987C272.439,159.567,271.276,160.661,271.191,161.058L271.191,161.058z"/>
		</g>
	</g>
	<g>
		<g>
			<path fill="#010101" d="M270.189,132.313c-3.202-2.572-7.485,0.043-9.006,3.281c-0.697,1.484-0.722,3.137,0.201,4.508
				c1.182,1.757,4.144,1.883,5.98,1.528c0.811-0.157,1.549-0.882,1.887-1.607c0.318-0.682,0.264-1.726-0.708-1.742
				c-1.801-0.031-5.354,0.076-4.709-2.505c0.152-0.61,0.569-1.067,1.147-1.377c1.089-0.584,2.473-0.505,3.642-0.233
				C269.35,134.335,271.041,132.997,270.189,132.313L270.189,132.313z"/>
		</g>
	</g>
	<g>
		<g>
			<path fill="#010101" d="M307.781,132.536c1.37-0.437,2.361-1.069,3.637-0.056c1.078,0.856,1.54,2.387,1.72,3.695
				c0.168,1.215,0.125,2.856-0.499,3.896c-0.226,0.376,0.043,0.244-0.48,0.361c-0.713,0.16-1.589-0.197-2.343-0.106
				c-1.136,0.138-3.224,2.347-2.049,3.469c1.997,1.909,5.592-0.261,6.975-1.9c1.543-1.829,1.916-4.332,1.679-6.643
				c-0.214-2.077-1.063-4.446-2.936-5.575c-2.065-1.246-4.782,0.01-6.183,1.669C306.93,131.789,306.983,132.791,307.781,132.536
				L307.781,132.536z"/>
		</g>
	</g>
	<g>
		<g>
			<path fill="#010101" d="M267.086,146.005c-0.597,3.78-8.395,6.141-8.264,1.282c0.067-2.521-4.044,0.026-4.095,1.914
				c-0.005,0.209-0.011,0.418-0.017,0.627c1.009-1.01,2.019-2.02,3.029-3.029c-3.603,0.276-6.292-1.325-7.795-4.609
				c-2.018-4.411,0.423-6.529,4.79-5.834c1.398,0.222,4.339-2.707,2.803-3.936c-2.516-2.012-4.087-4.516-4.957-7.608
				c-1.341-4.768,1.215-4.031,4.488-1.854c1.736,1.155,5.146-1.968,3.594-3.594c-2.489-2.606-3.387-5.833-2.046-9.268
				c1.829-4.688,5.888-2.058,7.873,0.828c1.228,1.785,4.192-1.717,3.799-3.21c-2.375-9.015,15.287-15.159,15.746-4.909
				c1.373-0.803,2.746-1.606,4.119-2.41c-0.681-2.79,5.35-3.869,7.073-3.891c5.06-0.065,5.918,4.892,5.527,8.917
				c-0.231,2.387,3.118,0.281,3.657-0.389c4.073-5.064,11.932,2.193,6.726,6.632c-1.513,1.29-1.197,4.108,1.191,3.035
				c1.675-0.753,3.131-0.938,4.938-0.836c1.253,0.071,6.535,1.667,2.785,3.8c-1.392,0.791-3.595,4.476-0.438,4.056
				c2.038-0.271,4.049-0.568,6.109-0.604c5.247-0.092,4.265,4.909,0.6,6.968c-1.917,1.077-3.327,5.146,0.119,3.93
				c4.36-1.538,5.398,3.721,0.47,3.102c-1.763-0.221-4.176,2.565-2.964,4.163c1.91,1.872,1.737,3.907-0.519,6.107
				c-1.41,0.196-2.697-0.07-3.861-0.799c-1.711-0.806-5.208,2.788-3.485,4.125c1.339,1.039,2.543,2.018,2.823,3.8
				c0.445,2.834-5.433-1.671-5.701-1.967c-1.625-1.795-5.27,2.047-3.959,3.959c0.669,0.976,1.236,1.891,1.735,2.95
				c0.744,1.58,2.831-1.197,1.857-1.214c-1.454-0.025-3.003-0.788-4.32-1.331c-1.707-0.704-5.135-1.784-6.267-3.354
				c-0.454,1.267-0.907,2.534-1.36,3.801c0.013-0.008,0.024-0.017,0.037-0.024c2.524-1.661,1.838-5.628-1.357-3.525
				c-0.013,0.008-0.024,0.016-0.037,0.024c-1.144,0.753-2.292,2.508-1.359,3.801c2.066,2.863,8.699,4.717,11.948,5.29
				c2.111,0.373,4.489-0.816,5.392-2.78c1.278-2.782-0.76-5.388-2.31-7.598c-1.319,1.32-2.64,2.639-3.959,3.959
				c3.021,3.265,8.388,5.269,11.88,1.257c3.302-3.792,2.846-7.832-1.168-10.923c-1.162,1.375-2.324,2.75-3.485,4.125
				c8.521,3.972,17.144-5.868,11.3-13.508c-0.988,1.388-1.976,2.775-2.964,4.163c4.653,0.568,9.244-2.395,9.959-7.203
				c0.811-5.455-4.726-5.653-8.444-4.33c0.04,1.31,0.079,2.62,0.119,3.93c3.486-1.971,9.484-6.497,7.806-11.302
				c-1.969-5.638-9.095-3.863-13.64-3.242c-0.146,1.352-0.292,2.704-0.438,4.056c2.607-1.492,8.12-5.462,5.134-9.122
				c-3.136-3.843-9.026-3.344-13.09-1.504c0.397,1.012,0.794,2.023,1.191,3.035c4.044-3.466,5.407-8.693,1.459-12.808
				c-4.324-4.507-10.407-1.213-13.55,2.715c1.219-0.129,2.438-0.259,3.657-0.389c0.698-7.447-3.389-12.314-11.022-10.806
				c-4.576,0.904-11.158,5.164-9.828,10.605c0.541,2.216,4.187-0.883,4.118-2.41c-0.699-15.475-27.642-4.238-23.979,9.726
				c1.266-1.07,2.532-2.14,3.799-3.21c-8.281-12.074-22.021,6.119-12.989,15.603c1.198-1.198,2.396-2.396,3.594-3.594
				c-4.314-2.877-9.13-3.746-11.881,1.525c-2.645,5.066,1.236,12.017,5.14,15.147c0.934-1.312,1.869-2.624,2.803-3.936
				c-14.931-2.392-14.855,20.339-0.914,18.827c1.448-0.157,3.073-1.431,3.029-3.029c-0.005-0.204-0.011-0.408-0.017-0.611
				c-0.07-2.559-4.147,0.015-4.095,1.914c0.243,8.813,14.771,3.386,14.765-4.043C269.491,143.657,267.226,145.115,267.086,146.005
				L267.086,146.005z"/>
		</g>
	</g>
	<g>
		<g>
			<path fill="#010101" d="M229.128,231.776c-8.841-0.656-19.079-2.822-27.124,2.046c-2.917,1.766-5.243,5.835-5.373,9.217
				c-0.166,4.324,2.46,7.073,5.984,9.179c11.407,6.817,26.729,4.5,39.16,3.581c5.95-0.439,11.882-1.087,17.834-1.501
				c5.828-0.405,12.963-1.045,18.275,1.856c1.03,0.563,2.917-1.702,1.682-2.377c-7.651-4.179-18.67-2.061-26.897-1.269
				c-12.021,1.158-24.357,2.813-36.372,1.104c-7.663-1.09-20.953-5.14-15.923-15.339c4.087-8.288,20.365-4.558,27.596-4.021
				C229.121,234.338,230.688,231.892,229.128,231.776L229.128,231.776z"/>
		</g>
	</g>
	<g>
		<g>
			<path fill="#010101" d="M234.243,235.298c13.853-0.914,26.923,0.425,39.461,6.745c1.056,0.532,2.932-1.747,1.683-2.377
				c-12.708-6.406-25.936-7.772-39.986-6.845C234.269,232.896,232.74,235.397,234.243,235.298L234.243,235.298z"/>
		</g>
	</g>
	<g>
		<g>
			<path fill="#010101" d="M272.59,244.163c-1.816,2.567-2.41,5.518-1.324,8.509c0.463,1.276,2.786-0.556,2.377-1.682
				c-0.786-2.164-0.569-4.238,0.767-6.126C275.555,243.247,273.485,242.899,272.59,244.163L272.59,244.163z"/>
		</g>
	</g>
	<g>
		<g>
			<path fill="#010101" d="M278.671,242.093c5.099-0.497,11.709-1.178,16.117,1.969c3.801,2.713,1.735,7.072-1.878,8.57
				c-3.037,1.26-6.713,1.397-9.945,1.097c-1.149-0.107-2.721,2.331-1.158,2.477c6.527,0.608,18.234-1.248,17.442-10.079
				c-0.733-8.173-13.935-7.046-19.421-6.51C278.707,239.726,277.188,242.238,278.671,242.093L278.671,242.093z"/>
		</g>
	</g>
	<g>
		<g>
			<path fill="#010101" d="M219.983,256.375c-11.662,0.315-17.548,16.514-16.89,26.344c0.045,0.675,0.484,1.181,1.189,1.189
				c0.013,0,0.026,0,0.04,0c1.617,0.02,3.238-1.678,3.263-3.264c0.011-0.67-0.16-1.003-0.674-1.425
				c-0.667-0.546-1.708-0.05-2.203,0.516c-0.526,0.6-1.02,1.138-1.314,1.89c1.159-0.691,2.318-1.383,3.477-2.075
				c0.581,0.994,0.809,1.094,0.685,0.3c-0.017-0.666,0.014-1.337,0.025-2.002c0.04-2.229,0.461-4.421,0.919-6.596
				c1.423-6.759,5.108-10.724,11.182-13.591C220.012,257.506,220.818,256.353,219.983,256.375L219.983,256.375z"/>
		</g>
	</g>
	<g>
		<g>
			<path fill="#010101" d="M232.757,255.841c1.214,2.199,3.084,7.32,0.371,8.913c-1.765,1.036-2.076,4.564,0.646,3.376
				c5.785-2.528,5.439-10.774-0.169-13.136C233.24,254.841,232.547,255.461,232.757,255.841L232.757,255.841z"/>
		</g>
	</g>
	<g>
		<g>
			<path fill="#010101" d="M293.704,231.21c-0.349,1.532-0.349,3.096-0.588,4.645c-0.224,1.445-0.697,2.479-1.392,3.725
				c-1.092,1.958,1.091,2.515,2.446,1.595c2.991-2.028,3.999-8.44,1.828-11.32C295.31,228.94,293.847,230.587,293.704,231.21
				L293.704,231.21z"/>
		</g>
	</g>
	<g>
		<g>
			<path fill="#010101" d="M233.415,226.849c-1.199,0.89-2.333,1.872-3.538,2.766c-0.765,0.567-3.485,2.368-2.879,3.605
				c0.859,1.751,4.572-1.254,5.295-1.886c1.22-1.066,2.355-2.244,2.728-3.837C235.278,226.395,234.072,226.361,233.415,226.849
				L233.415,226.849z"/>
		</g>
	</g>
	<g>
		<g>
			<path fill="#010101" d="M165.713,227.067c3.816,1.468,4.675,8.347,5.069,11.691c0.946,8.033,0.366,16.259-0.432,24.278
				c-0.845,8.49-2.083,16.957-3.873,25.301c-1.069,4.985-2.969,9.501-4.376,14.313c-0.837,2.863,2.484,2.694,4.045,1.632
				c4.794-3.263,5.876-11.526,7.03-16.73c2.013-9.075,3.276-18.39,3.902-27.66c0.426-6.316,3.286-39.082-10.252-35.201
				C166.181,224.876,164.426,226.572,165.713,227.067L165.713,227.067z"/>
		</g>
	</g>
	<g>
		<g>
			<path fill="#010101" d="M372.154,229.006c-10.962-5.238-17.325,7.839-19.961,16.561c-1.828,6.051-2.675,12.412-3.661,18.64
				c-0.403,2.541-0.804,5.086-1.377,7.595c-0.37,1.622-1.21,2.917-0.745,4.802c0.348,1.414,2.244,1.021,3.155,0.657
				c3.795-1.519,4.554-5.984,5.146-9.523c0.817-4.885,1.321-9.819,2.1-14.711c1.129-7.098,2.537-23.302,13.252-21.063
				C371.358,232.234,373.836,229.809,372.154,229.006L372.154,229.006z"/>
		</g>
	</g>
	<g>
		<g>
			<path fill="#010101" d="M369.324,231.499c12.975,0.694,10.276,15.732,8.299,24.586c-1.318,5.903-3.024,11.715-4.68,17.529
				c-0.945,3.318-3.373,8.497-2.743,12.023c2.581-1.838,5.163-3.677,7.744-5.515c-1.042-1.284-2.785-1.181-4.247-0.836
				c-1.723,0.405-3.308,2.138-3.353,3.936c-0.021,0.836-0.285,1.575-0.145,2.415c0.941,5.64,8.143-0.462,8.373-3.914
				c0.711-10.631,19.917-61.861-8.544-52.227C369.44,229.696,367.958,231.425,369.324,231.499L369.324,231.499z"/>
		</g>
	</g>
	<g>
		<g>
			<path fill="#010101" d="M157.386,228.984c7.392-2.827,14.462-6.236,22.212-8.037c6.007-1.396,11.941-1.079,18.034-1.307
				c-0.458-0.459-0.917-0.918-1.376-1.377c0.012,0.084,0.023,0.168,0.035,0.253c0.392,2.884,3.737,1.62,5.098,0.201
				c0.118-0.123,0.235-0.245,0.353-0.368c1.021-1.064,1.828-2.576,0.919-3.934c-0.066-0.098-0.132-0.197-0.198-0.295
				c-1.284-1.918-4.537,0.89-5.288,1.892c-0.078,0.104-0.156,0.208-0.234,0.313c0.829-0.595,1.658-1.19,2.487-1.786
				c-6.442,0.95-12.771,1.455-19.081,3.206c-8.121,2.254-15.966,5.97-23.127,10.371
				C156.767,228.394,156.674,229.256,157.386,228.984L157.386,228.984z"/>
		</g>
	</g>
	<g>
		<g>
			<path fill="#010101" d="M202.133,219.004c3.534-5.839,4.804-13.118,6.967-19.547c2.417-7.183,5.548-14.199,9.834-20.465
				c3.887-5.683,8.967-10.151,15.35-12.785c8.025-3.311,16.009-1.528,24.266-0.863c2.71,0.219,8.093-5.917,4.23-7.23
				c-16.962-5.768-35.365,2.224-46.044,15.52c-5.152,6.416-8.602,14.177-11.372,21.862c-1.436,3.985-2.673,8.035-3.705,12.143
				c-0.938,3.731-2.313,7.969-1.481,11.822C200.388,220.434,201.897,219.395,202.133,219.004L202.133,219.004z"/>
		</g>
	</g>
	<g>
		<g>
			<path fill="#010101" d="M299.697,163.371c5.155,2.594,10.222,2.904,16.002,2.732c7.653-0.228,15.304-1.105,22.967-1.376
				c13.902-0.491,28.078-0.835,41.975,0.034c10.659,0.667,20.217,4.448,22.193,15.938c1.553,9.023,1.128,19.255-4.815,26.521
				c-2.018,2.467-0.406,5.167,2.611,4.003c9.552-3.681,10.465-18.584,10.27-27.078c-0.256-11.131-3.981-20.656-15.18-24.489
				c-5.36-1.834-11.289-2.058-16.896-2.155c-8.39-0.145-16.804,0.028-25.192,0.163c-9.225,0.148-18.433,0.542-27.617,1.422
				c-7.657,0.734-16.241,2.567-23.889,0.852C300.606,159.599,297.771,162.402,299.697,163.371L299.697,163.371z"/>
		</g>
	</g>
	<g>
		<g>
			<path fill="#010101" d="M405.017,207.241c-2.878,4.883-3.49,10.68-3.905,16.225c-0.651,8.697-0.612,17.453-0.559,26.168
				c0.05,8.319,0.373,16.948-0.947,25.191c-0.433,2.702-0.967,5.505-2.227,7.955c0.106-0.207-1.396,1.213-0.609,0.644
				c-0.537,0.389-1.065,0.771-1.502,1.278c-0.217,0.252-1.942,2.714-1.146,1.438c-2.523,4.037,2.61,4.323,5.109,2.569
				c2.486-1.744,3.679-4.353,4.639-7.121c2.136-6.16,2.09-13.34,2.233-19.778c0.365-16.3-1.803-32.748-0.41-49.009
				c0.154-1.812,0.263-3.556,1.008-5.238C407.302,206.208,405.534,206.363,405.017,207.241L405.017,207.241z"/>
		</g>
	</g>
	<g>
		<g>
			<path fill="#010101" d="M302.172,237.886c2.991,0.37,6.406-0.679,9.348-1.15c4.769-0.763,9.52-1.592,14.313-2.197
				c4.938-0.625,9.986-1.074,14.964-0.781c2.068,0.122,4.234,0.301,6.131,1.181c1.366,0.634,2.221,2.157,3.674,2.44
				c3.002,0.586,6.543-2.671,5.78-5.78c-0.768-3.126-6.674-2.959-9.176-3.213c-5.101-0.518-10.452,0.02-15.523,0.609
				c-5.729,0.666-11.412,1.631-17.071,2.744c-3.852,0.758-8.237,1.523-11.772,3.298
				C302.012,235.452,300.355,237.661,302.172,237.886L302.172,237.886z"/>
		</g>
	</g>
	<g>
		<g>
			<path fill="#010101" d="M9.068,161.689c2.769-5.37,10.579-4.734,15.582-3.766c5.465,1.058,9.957,3.969,13.921,7.793
				c9.483,9.148,12.677,22.229,13.212,34.914c0.675,15.997-0.753,32.023-2.291,47.929c-1.431,14.808-3.848,30.833-2.088,45.677
				c1.035,8.732,6.19,15.192,14.58,17.788c4.813,1.489,9.905,1.396,14.879,1.539c7.447,0.215,14.691,1.537,21.684,4.103
				c11.654,4.277,24.207,11.507,32.05,21.271c6.296,7.84,9.379,22.216,5.313,31.751c-2.184,5.122-8.452,6.556-13.445,7.018
				c-8.914,0.825-17.929,0.513-26.864,0.329c-12.386-0.255-24.529,0.115-36.784,1.896c-9.773,1.42-19.573,2.747-29.466,2.809
				c-6.653,0.042-18.558,0.053-21.405-7.582c-1.577-4.229-9.311,1.859-7.893,5.584c2.534,6.654,9.758,8.607,16.145,9.542
				c9.005,1.317,18.384,0.247,27.358-0.804c7.834-0.917,15.594-2.428,23.44-3.224c15.999-1.624,32.143,0.135,48.177-0.824
				c10.181-0.609,20.8-3.241,26.143-12.811c4.609-8.254,3.477-18.519,1.303-27.336c-2.849-11.554-12.666-19.501-22.396-25.31
				c-11.558-6.899-23.589-11.504-37.077-12.42c-7.795-0.529-16.185,0.721-23.104-3.784c-7.177-4.673-7.394-13.78-7.328-21.431
				c0.209-24.154,3.635-48.163,3.794-72.325c0.123-18.576-2.559-37.791-18.008-50.182c-7.846-6.292-26.881-10.238-31.705,1.789
				C6.022,163.553,8.473,162.844,9.068,161.689L9.068,161.689z"/>
		</g>
	</g>
	<g>
		<g>
			<path fill="#010101" d="M18.198,150.66c0.792-19.734,27.143-18.115,37.979-8.038C64.11,150,68.011,162.014,69.271,172.49
				c0.417,3.46,0.785,8.272-1.855,10.981c-2.899,2.975-7.76,3.592-10.999,6.349c-0.75,0.638-2.109,3.308-0.382,3.747
				c4.583,1.164,10.136-2.184,13.65-4.955c4.093-3.228,6.484-7.922,6.82-13.112c0.892-13.765-5.233-30.281-15.897-39.212
				c-13.622-11.408-49.171-7.862-44.544,15.621C16.298,153.098,18.169,151.386,18.198,150.66L18.198,150.66z"/>
		</g>
	</g>
	<g>
		<g>
			<path fill="#010101" d="M63.471,222.699c7.373-1.312,11.273,12.417,12.761,17.339c1.295,4.284,2.205,8.686,2.832,13.114
				c0.314,2.217-0.541,7.02,1.019,8.731c1.348,1.48,4.053-0.528,4.79-1.713c1.994-3.204,0.567-6.891-0.164-10.321
				c-1.091-5.116-2.73-10.112-4.674-14.961c-2.507-6.253-7.962-17.648-16.41-13.609C63.101,221.53,62.4,222.89,63.471,222.699
				L63.471,222.699z"/>
		</g>
	</g>
	<g>
		<g>
			<path fill="#010101" d="M58.376,250.298c-1.818,15.796,12.903,33.744,29.88,26.516c13.451-5.728,15.125-24.997,5.341-34.998
				c-1.721-1.759-4.749,0.638-5.743,2.054c-0.667,0.95-1.27,1.917-1.827,2.935c-0.632,1.155,0.022,2.405,1.388,2.115
				c1.127-0.24,2.105-0.414,3.2-0.818c-1.059-0.042-2.118-0.084-3.177-0.126c4.076,6.07,10.571,20.14-0.434,23.468
				c-13.987,4.231-24.932-9.652-27.276-21.779C59.591,248.96,58.422,249.896,58.376,250.298L58.376,250.298z"/>
		</g>
	</g>
	<g>
		<g>
			<path fill="#010101" d="M81.14,219.534c3.156,3.933,11.911,2.656,16.19,2.177c5.5-0.616,11.569-2.409,14.976-7.055
				c0.516-0.704,0.912-2.02-0.111-2.487c-5.882-2.688-13.489-2.542-19.77-1.936c-4.641,0.447-12.861,1.964-14.747,7.083
				c-0.482,1.308,0.283,2.511,1.748,1.748c2.025-1.056,3.543-2.445,5.792-3.167c2.792-0.895,5.786-1.187,8.695-1.356
				c5.23-0.304,10.475,0.29,15.564,1.47c-0.037-0.829-0.074-1.658-0.111-2.487c-2.649,4.084-9.941,4.731-14.306,5.088
				c-4.341,0.355-8.328-0.573-12.591-0.942C81.702,217.604,80.562,218.813,81.14,219.534L81.14,219.534z"/>
		</g>
	</g>
	<g>
		<g>
			<path fill="#010101" d="M108.792,215.379c-2.108,5.013-3.045,10.39-5.419,15.336c-0.916,1.91-2.183,4.813-4.208,5.791
				c-1.937,0.935-4.298-3.329-5.023-4.412c-1.843-2.753-8.058,2.913-5.938,5.938c5.307,7.577,13.066,4.15,17.22-2.523
				c2.135-3.43,3.474-7.288,4.505-11.174c0.685-2.579,1.885-6.976,0.392-9.499C109.924,214.169,108.997,214.891,108.792,215.379
				L108.792,215.379z"/>
		</g>
	</g>
	<g>
		<g>
			<path fill="#010101" d="M109.555,224.899c2.208-1.124,4.677-2.51,7.244-2.266c1.518,0.144,1.956,1.186,1.884,2.345
				c-0.013,0.213-0.423,1.112-0.53,1.271c-0.371,0.552-0.912,1.042-1.722,1.609c-0.805,0.564-2.055,1.113-3.292,1.479
				c-1.904,0.563-3.992,0.412-5.79,1.213c-1.317,0.586-4.469,4.236-1.848,5.226c2.096,0.791,5.44-0.565,7.469-1.322
				c1.964-0.732,3.851-1.739,5.486-3.058c2.484-2.003,4.926-5.029,4.871-8.402c-0.041-2.47-1.939-3.99-4.266-4.205
				c-3.706-0.342-7.5,2.25-10.121,4.548C108.201,223.988,108.33,225.522,109.555,224.899L109.555,224.899z"/>
		</g>
	</g>
	<g>
		<g>
			<path fill="#010101" d="M77.209,220.188c-0.569,3.308,0.454,6.397,1.985,9.317c1.155,2.202,3.248,6.749,5.991,6.496
				c1.093-0.101,1.994-0.903,2.296-1.956c0.789-2.748-1.721-4.473-3.356-6.46c-2.124-2.581-3.515-5.365-5.218-8.193
				C78.44,218.618,77.314,219.576,77.209,220.188L77.209,220.188z"/>
		</g>
	</g>
	<g>
		<g>
			<path fill="#010101" d="M112.069,384.281c-7.283,4.728-6.665,29.289,4.682,28.598c10.963-0.669,10.466-19.587,8.996-26.77
				c-0.417-2.035-1.001-4.021-3.313-4.261c-1.68-0.174-3.148,1.255-3.578,2.739c-0.61,2.106,0.383,3.774,0.854,5.793
				c0.648,2.777,0.634,5.794,0.539,8.625c-0.091,2.688-0.488,5.515-1.63,7.969c-0.094,0.201,0.74,0.16-0.589-0.349
				c-1.57-0.601-2.574-2.159-3.266-3.589c-1.666-3.441-1.474-7.933-1.042-11.63c0.224-1.921,1.558-5.605,0.366-7.331
				C113.643,383.434,112.514,383.993,112.069,384.281L112.069,384.281z"/>
		</g>
	</g>
	<g>
		<g>
			<path fill="#010101" d="M27.989,387.34c-1.497,8.578-0.326,17.36-0.625,26.025c1.396-1.396,2.792-2.792,4.188-4.188
				c-5.642-0.058-7.104-6.11-8.125-10.641c-0.851-3.777-0.411-12.148-5.126-13.096c-1.369-0.274-2.497,0.871-2.901,2.084
				c-1.789,5.36,0.858,13.137,2.41,18.452c1.712,5.866,5.404,9.721,11.759,8.835c1.695-0.236,3.607-2.377,3.504-4.114
				c-0.478-8.061-1.422-16.344-3.261-24.213C29.582,385.504,28.077,386.833,27.989,387.34L27.989,387.34z"/>
		</g>
	</g>
	<g>
		<g>
			<path fill="#010101" d="M92.538,281.881c1.144,9.749,11.112,13.465,19.343,16.225c11.241,3.769,23.433,6.025,33.001,13.472
				c9.029,7.026,10.092,19.149,10.333,29.766c0.2,8.795,0.106,26.503-9.747,30.477c-3.947,1.592-5.524,9.463,0.212,7.016
				c11.318-4.827,14.308-19.221,15.228-30.108c0.937-11.092,0.334-24.978-5.742-34.707c-6.621-10.601-20.532-13.661-31.748-16.672
				c-10.439-2.802-24.36-5.444-29.702-16.156C93.42,280.599,92.483,281.416,92.538,281.881L92.538,281.881z"/>
		</g>
	</g>
	<g>
		<g>
			<path fill="#010101" d="M148.643,374.371c-0.992,3.748-0.612,7.808-0.878,11.65c-0.15,2.171-0.65,4.518-1.806,6.384
				c-1.722,2.778-4.049,0.71-6.25,0.362c-1.798-0.284-3.813,1.963-4.146,3.532c-0.079,0.368-0.157,0.737-0.236,1.106
				c-0.158,0.739-0.171,1.717,0.455,2.277c5.364,4.804,13.258-2.577,15.724-7.252c2.809-5.324,2.285-14.001,0.154-19.476
				C151.03,371.339,148.866,373.527,148.643,374.371L148.643,374.371z"/>
		</g>
	</g>
	<g>
		<g>
			<path fill="#010101" d="M158.478,227.873c-7.049-1.792-11.746,6.284-13.832,11.784c-3.796,10.007-4.182,21.199-3.855,31.777
				c0.322,10.422,1.642,21.324,5.322,31.138c2.312,6.164,8.389,15.324,15.355,8.032c1.148-1.202,2.961-4.003,1.3-5.562
				c-1.833-1.72-3.148-0.555-4.658-1.943c-1.983-1.823-3.127-4.454-4.153-6.885c-3.363-7.967-4.853-16.784-5.754-25.332
				c-0.935-8.859-0.973-17.938,0.558-26.731c1.016-5.841,3.141-12.882,9.285-15.055
				C158.339,228.992,159.104,228.032,158.478,227.873L158.478,227.873z"/>
		</g>
	</g>
	<g>
		<g>
			<path fill="#010101" d="M358.617,229.406c6.32-3.354,13.1-6.987,19.898-9.262c3.274-1.095,7.444-1.906,10.787-0.704
				c3.629,1.305,2.513,5.989,5.155,7.939c0.946,0.698,2.224-0.174,2.781-0.995c2.51-3.7,2.413-9.048-1.318-11.946
				c-3.581-2.782-8.751-1.796-12.715-0.578c-9.244,2.841-17.475,7.909-24.903,13.904
				C357.622,228.313,357.264,230.125,358.617,229.406L358.617,229.406z"/>
		</g>
	</g>
	<g>
		<g>
			<path fill="#010101" d="M50.205,158.173c-2.714,1.612-4.575,5.305-2.19,8.006c1.947,2.206,5.657,3.976,8.402,4.879
				c1.906,0.627,5.597-2.716,3.799-4.497c-1.777-1.76-4.478-2.379-6.67-3.496c-0.888-0.453-1.713-1.063-2.368-1.816
				c-0.556-0.639,0.085-1.585,0.393-2.186C52.157,157.923,50.981,157.712,50.205,158.173L50.205,158.173z"/>
		</g>
	</g>
	<g>
		<g>
			<path fill="#010101" d="M75.808,381.859c-10.673-9.474-24.872,14.887-28.322,21.812c-3.515,7.055-6.333,15.084-6.299,23.048
				c0.036,8.678,7.776,14.406,14.439,18.667c22.295,14.255,48.216,17.556,73.835,21.58c31.09,4.884,62.128,9.295,93.531,11.669
				c62.827,4.751,125.211,0.809,187.111-10.795c27.255-5.109,56.346-12.406,80.236-27.004c7.946-4.855,13.698-11.833,17.998-19.997
				c4.672-8.873,9.368-19.824,10.4-29.88c0.743-7.24-1.842-13.217-6.791-18.434c-6.55-6.902-15.058-9.379-23.906-11.879
				c-3.051-0.861-8.46,5.084-4.746,6.707c10.316,4.507,25.509,8.746,27.92,21.687c0.873,4.685-0.688,9.514-2.138,13.911
				c-1.87,5.678-4.145,11.257-6.74,16.641c-4.404,9.134-11.12,14.756-20.067,19.294c-13.528,6.862-28.019,11.848-42.606,15.898
				c-29.335,8.145-60.116,12.514-90.327,15.909c-31.959,3.593-64.291,3.989-96.398,2.678c-29.218-1.193-58.354-4.132-87.317-8.115
				c-14.021-1.928-27.967-4.318-41.955-6.47c-13.575-2.088-27.366-4.158-40.392-8.661c-9.877-3.414-19.726-8.204-27.922-14.729
				c-6.75-5.373-8.467-10.56-6.675-18.819c1.687-7.774,5.44-15.318,9.853-21.888c2.171-3.232,8.105-12.037,12.998-8.549
				C73.588,387.61,77.745,383.579,75.808,381.859L75.808,381.859z"/>
		</g>
	</g>
	<g>
		<g>
			<path fill="#010101" d="M559.082,209.563c-0.503,4.904,0.153,9.94,0.146,14.867c-0.007,5.053-1.389,9.616-2.129,14.525
				c-0.201,1.329,1.273,1.047,1.903,0.38c3.261-3.454,4.027-7.851,4.457-12.438c0.579-6.175,0.283-12.985-0.542-19.128
				C562.565,205.143,559.237,208.046,559.082,209.563L559.082,209.563z"/>
		</g>
	</g>
</g>
</svg>
