<?xml version="1.0" encoding="UTF-8" standalone="no"?><!DOCTYPE svg PUBLIC "-//W3C//DTD SVG 1.1//EN" "http://www.w3.org/Graphics/SVG/1.1/DTD/svg11.dtd"><svg width="100%" height="100%" viewBox="0 0 312 554" version="1.1" xmlns="http://www.w3.org/2000/svg" xmlns:xlink="http://www.w3.org/1999/xlink" xml:space="preserve" style="fill-rule:evenodd;clip-rule:evenodd;stroke-linejoin:round;stroke-miterlimit:1.41421;"><g id="costume"><path d="M66.646,45.934c10.283,-2.684 20.135,-9.703 29.342,-14.858c4.947,-2.771 9.873,-5.579 14.865,-8.269c3.879,-2.09 8.268,-1.315 12.031,-3.521c2.672,-1.566 6.131,-5.75 4.423,-9.134c-2.604,-5.158 -8.323,-2.177 -11.636,0.486c-1.803,1.448 -4.217,2.204 -6.244,3.298c-3.296,1.779 -6.479,3.879 -9.724,5.765c-6.048,3.515 -12.134,6.968 -18.241,10.378c-5.751,3.212 -11.859,5.994 -17.072,10.057c-2.928,2.281 -1.759,6.846 2.256,5.798Z" style="fill:#010101;fill-rule:nonzero;"/><path d="M194.081,9.613c0.291,4.265 5.067,7.169 8.179,9.434c4.912,3.574 10.007,6.9 15.057,10.274c5.18,3.46 10.34,6.949 15.368,10.628c2.061,1.508 4.057,3.088 5.969,4.779c0.792,0.7 1.541,1.444 2.275,2.206c0.319,0.336 0.628,0.684 0.927,1.039c0.266,0.309 0.258,-2.264 -0.183,-0.808c-1.011,3.343 1.823,5.341 4.742,5.403c0.097,0.002 0.194,0.004 0.292,0.006c2.711,0.059 5.064,-2.354 6.26,-4.512c0.066,-0.12 0.133,-0.24 0.199,-0.36c1.434,-2.59 0.451,-6.324 -2.744,-6.846c-0.65,-0.149 -0.575,-0.063 0.227,0.26c-0.324,-0.303 -0.634,-0.619 -0.928,-0.951c-0.692,-0.745 -1.461,-1.419 -2.223,-2.091c-1.885,-1.662 -3.919,-3.171 -5.953,-4.645c-4.919,-3.564 -10.133,-6.717 -15.32,-9.869c-5.352,-3.252 -10.743,-6.439 -16.041,-9.777c-3.708,-2.337 -8.261,-6.725 -12.807,-7.063c-1.569,-0.115 -3.415,1.155 -3.296,2.893Z" style="fill:#010101;fill-rule:nonzero;"/><path d="M120.638,14.73c-0.037,4.33 2.542,8.447 4.304,12.264c2.406,5.214 4.338,10.649 6.25,16.058c1.729,4.892 3.387,9.807 5.184,14.674c1.302,3.525 2.514,10.84 5.991,12.504c3.706,1.773 7.651,-2.051 7.828,-5.628c0.125,-2.521 -1.129,-2.98 -2.277,-4.901c-1.281,-2.141 -2.276,-4.403 -3.277,-6.686c-2.262,-5.154 -4.311,-10.403 -6.467,-15.602c-2.175,-5.244 -4.477,-10.433 -7.13,-15.453c-1.91,-3.615 -4.381,-7.77 -8.621,-8.796c-0.89,-0.216 -1.778,0.735 -1.785,1.566Z" style="fill:#010101;fill-rule:nonzero;"/><path d="M193.14,7.544c-1.789,4.582 -2.646,9.528 -4.148,14.222c-1.733,5.418 -3.846,10.731 -5.893,16.038c-3.694,9.586 -8.043,18.819 -12.215,28.191c-1.207,2.71 -0.617,6.222 2.744,6.846c3.565,0.661 6.576,-1.952 8.232,-4.799c1.454,-2.497 1.354,-6.399 -1.664,-7.599c-1.386,-0.551 -2.97,-0.516 -4.256,0.345c-0.443,0.297 -4.966,4.185 -2.922,2.409c3.119,1.111 6.238,2.224 9.357,3.335c2.809,-9.489 5.827,-18.896 8.748,-28.354c1.558,-5.04 2.889,-10.12 4.11,-15.251c1.205,-5.063 2.909,-10.547 2.792,-15.779c-0.065,-2.923 -4.196,-1.365 -4.885,0.396Z" style="fill:#010101;fill-rule:nonzero;"/><path d="M154.887,17.004c-1.674,-2.088 -3.82,-3.297 -3.172,-6.307c0.496,-2.303 2.805,-3.473 4.942,-3.566c3.559,-0.156 6.021,3.613 6.36,6.697c0.174,1.58 -0.229,3.05 -0.889,4.466c-0.138,0.294 -0.234,0.421 -0.489,0.586c-1.372,0.884 -2.361,1.948 -2.988,3.464c-1.041,2.52 0.074,4.833 2.943,4.813c6.872,-0.048 9.66,-10.393 9.157,-15.808c-0.61,-6.582 -6.31,-10.871 -12.676,-10.84c-5.181,0.026 -10.076,4.158 -11.991,8.757c-1.967,4.722 -0.084,11.196 5.531,12.023c2.002,0.296 4.85,-2.314 3.272,-4.285Z" style="fill:#010101;fill-rule:nonzero;"/><path d="M152.121,18.587c-1.303,3.271 -1.449,6.853 -1.885,10.321c-0.584,4.654 -1.423,9.275 -2.361,13.869c-0.801,3.917 -1.76,7.805 -2.765,11.674c-0.831,3.204 -3.362,7.052 -3.001,10.308c0.486,4.375 5.629,2.599 7.504,0.364c2.219,-2.644 2.431,-6.676 3.119,-9.994c0.891,-4.289 1.618,-8.575 2.178,-12.922c0.557,-4.322 0.93,-8.67 1.199,-13.019c0.221,-3.567 0.808,-7.938 -0.802,-11.25c-0.689,-1.418 -2.727,-0.504 -3.186,0.649Z" style="fill:#010101;fill-rule:nonzero;"/><path d="M161.371,22.694c-1.407,7.855 -0.992,16.318 -0.253,24.229c0.806,8.625 3.98,15.73 6.829,23.737c1.942,-2.521 3.885,-5.042 5.828,-7.562c-2.741,0.422 -5.802,0.62 -7.348,3.816c-0.56,1.157 -0.526,2.354 0.215,3.401c1.062,1.501 2.034,2.027 3.848,2.385c3.485,0.688 10.305,-5.182 6.463,-8.471c-5.389,-4.614 -7.499,-12.883 -8.715,-19.591c-1.369,-7.559 -0.765,-15.375 -2.25,-22.878c-0.547,-2.764 -4.239,-1.175 -4.617,0.934Z" style="fill:#010101;fill-rule:nonzero;"/><path d="M60.543,47.332c3.494,3.45 7.603,5.924 10.769,9.784c3.139,3.829 5.255,8.422 7.021,13.01c1.748,4.543 2.978,9.3 4.037,14.044c1.058,4.733 2.719,10.213 2.62,15.074c-0.104,5.151 9.763,1.801 8.164,-3.611c-0.538,-1.821 -1.479,-2.813 -3.166,-3.643c-1.589,-0.782 -3.329,0.472 -4.061,1.845c-0.902,1.692 -0.862,3.533 -0.938,5.409c2.561,-1.472 5.121,-2.942 7.682,-4.414c-2.753,-4.003 -3.553,-10.603 -4.895,-15.226c-1.47,-5.063 -3.016,-10.065 -5.146,-14.896c-3.628,-8.227 -10.636,-18.141 -19.979,-20.14c-1.199,-0.256 -3.259,1.626 -2.108,2.764Z" style="fill:#010101;fill-rule:nonzero;"/><path d="M250.305,45.497c-9.366,7.427 -14.722,17.532 -18.96,28.529c-3.974,10.308 -6.893,22.109 -7.349,33.121c0.61,-1.271 1.22,-2.542 1.829,-3.813c-0.781,0.666 -1.449,1.41 -1.891,2.35c-0.037,0.078 -0.646,3.446 -0.391,1.72c2.791,-1.251 5.582,-2.503 8.373,-3.754c0.443,0.534 0.39,0.382 -0.16,-0.455c-0.577,-1.011 -1.204,-1.409 -2.178,-2.022c-1.862,-1.174 -4.839,0.686 -5.501,2.5c-0.876,2.399 -1.341,4.492 0.116,6.754c2.31,3.583 7.822,-1.093 8.373,-3.754c0.116,-0.56 0.129,-1.131 0.13,-1.699c0.001,-1.441 -1.157,-2.687 -2.553,-2.909c-0.101,-0.016 -0.201,-0.032 -0.302,-0.048c0.744,0.848 1.487,1.694 2.23,2.541c-0.66,-3.41 0.264,-6.492 0.824,-9.88c1.048,-6.339 2,-12.643 3.792,-18.825c3.022,-10.431 8.489,-20.605 14.924,-29.317c0.783,-1.058 -0.42,-1.742 -1.306,-1.039Z" style="fill:#010101;fill-rule:nonzero;"/><path d="M89.812,99.816c-1.374,5.232 -1.037,10.743 -1.115,16.112c-0.086,5.854 -0.157,11.706 -0.225,17.56c-0.142,12.389 -0.352,24.774 -0.479,37.163c-0.245,23.768 0.139,47.655 -0.885,71.401c-0.259,6.012 9.409,1.892 9.572,-3.068c0.081,-2.503 -0.198,-4.464 -1.738,-6.474c-1.824,-2.382 -5.341,0.28 -6.304,2.066c-1.302,2.418 -1.621,4.749 -1.53,7.476c3.19,-1.022 6.382,-2.046 9.572,-3.068c-1.054,-23.477 -1.112,-47.042 -1.813,-70.536c-0.345,-11.574 -0.773,-23.146 -1.07,-34.721c-0.148,-5.786 -0.287,-11.572 -0.419,-17.359c-0.13,-5.686 0.437,-11.811 -1.25,-17.298c-0.397,-1.289 -2.118,-0.011 -2.316,0.746Z" style="fill:#010101;fill-rule:nonzero;"/><path d="M226.503,107.121c-2.854,13.539 -2.818,27.561 -2.979,41.348c-0.165,14.245 -0.534,28.339 -1.401,42.563c-0.657,10.775 -1.87,21.635 -1.829,32.43c0.013,3.346 -0.016,6.688 -0.126,10.031c-0.052,1.562 -0.092,3.14 -0.278,4.691c-0.328,2.724 -2.172,3.355 1.229,-0.196c1.191,-0.534 2.383,-1.067 3.573,-1.603c1.863,-0.281 2.349,0.517 0.486,-0.415c-2.642,-1.321 -5.407,1.184 -6.144,3.57c-1.061,3.437 0.859,7.019 4.914,5.723c3.736,-1.194 5.635,-5.255 5.133,-8.937c-0.529,-3.89 -0.018,-8.289 -0.121,-12.235c-0.113,-4.324 -0.168,-8.544 0.016,-12.872c0.729,-17.182 2.289,-34.442 1.941,-51.64c-0.357,-17.688 -0.287,-35.468 -1.086,-53.132c-0.095,-2.109 -3.039,-0.698 -3.328,0.674Z" style="fill:#010101;fill-rule:nonzero;"/><path d="M60.665,44.827c-2.129,1.948 -2.633,4.429 -3.515,7.127c-1.517,4.642 -2.98,9.297 -4.695,13.871c-3.307,8.813 -7.394,17.306 -11.68,25.678c-8.428,16.462 -17.857,32.385 -25.433,49.278c1.94,-1.132 3.882,-2.263 5.823,-3.394c-0.266,-0.081 -0.529,-0.162 -0.795,-0.243c0.814,1.332 1.629,2.665 2.442,3.997c0.329,-2.181 1.157,-4.563 -0.055,-6.582c-0.58,-0.966 -1.627,-1.489 -2.762,-1.008c-4.14,1.756 -5.932,5.064 -6.271,9.425c-0.207,2.658 2.938,3.191 4.816,2.704c3.577,-0.929 4.558,-3.484 5.916,-6.639c2.087,-4.844 4.373,-9.604 6.684,-14.344c4.705,-9.658 9.729,-19.156 14.487,-28.787c4.417,-8.941 8.535,-18.028 11.952,-27.402c1.641,-4.5 2.994,-9.095 4.162,-13.737c0.687,-2.726 2.021,-7.788 -0.206,-10.016c-0.243,-0.245 -0.638,-0.141 -0.87,0.072Z" style="fill:#010101;fill-rule:nonzero;"/><path d="M93.222,95.329c-3.975,-2.531 -10.365,4.256 -12.813,6.636c-5.296,5.149 -9.402,11.652 -13.253,17.903c-4.294,6.97 -8.133,14.174 -11.873,21.451c-3.104,6.037 -5.829,12.659 -9.869,18.148c1.926,-0.875 3.852,-1.75 5.777,-2.625c0.129,0.062 0.26,0.122 0.389,0.184c0.531,1.332 1.062,2.665 1.592,3.998c0.556,-2.795 1.261,-4.788 -0.828,-7.049c-1.904,-2.063 -4.818,-0.313 -6.276,1.304c-2.098,2.327 -2.669,4.689 -2.841,7.754c-0.158,2.805 3.172,3.64 5.271,2.96c4.734,-1.535 7.678,-9.304 10.391,-14.736c3.515,-7.037 7.002,-14.084 10.555,-21.102c3.58,-7.072 7.396,-14.061 12.072,-20.475c1.805,-2.475 3.752,-4.881 5.992,-6.973c1.838,-1.716 4.527,-2.867 5.875,-5.038c0.475,-0.765 0.747,-1.762 -0.161,-2.34Z" style="fill:#010101;fill-rule:nonzero;"/><path d="M228.305,107.675c2.524,0.841 2.691,0.571 3.662,3.175c1.008,2.703 2.188,5.355 3.272,8.03c2.262,5.585 4.633,11.13 6.959,16.688c2.137,5.104 4.29,10.199 6.471,15.285c2.343,5.465 5.51,10.993 6.826,16.804c0.349,1.542 2.191,1.946 3.485,1.945c0.243,0 0.487,-0.001 0.731,-0.001c3.237,-0.002 6.819,-4.058 5.609,-7.279c-0.697,-1.859 -2.169,-2.467 -3.998,-2.86c-1.385,-0.298 -2.901,0.609 -3.701,1.682c-1.28,1.718 -1.725,3.224 -1.752,5.36c1.533,-1.984 3.066,-3.968 4.6,-5.951c-0.254,0.109 -0.506,0.221 -0.759,0.33c1.379,0.271 2.758,0.541 4.137,0.812c-3.428,-4.268 -5.418,-10.138 -7.735,-15.084c-2.34,-4.993 -4.636,-10.009 -6.927,-15.024c-4.146,-9.076 -7.639,-19.279 -13.249,-27.56c-0.536,-0.792 -1.702,-0.665 -2.476,-0.485c-1.6,0.371 -2.931,0.572 -4.486,1.008c-1.351,0.378 -2.406,2.546 -0.669,3.125Z" style="fill:#010101;fill-rule:nonzero;"/><path d="M250.582,44.999c-3.186,8.052 -1.198,17.288 0.557,25.465c2.208,10.291 6.502,20.146 10.866,29.676c4.221,9.217 8.759,18.287 13.033,27.479c2.124,4.568 4.138,9.189 5.934,13.896c1.337,3.505 1.649,10.08 4.424,12.546c3.009,2.674 7.38,0.239 8.918,-2.925c0.03,-0.063 0.061,-0.126 0.091,-0.188c0.682,-1.401 0.871,-3.417 -0.294,-4.647c-1.643,-1.734 -4.029,-2.146 -6.154,-0.934c-0.89,0.507 -1.563,1.209 -2.104,2.063c-0.448,0.705 -2.398,5.759 -0.75,1.988c2.973,-0.975 5.945,-1.949 8.918,-2.925c-1.183,-0.971 -1.592,-3.323 -2.127,-4.687c-0.872,-2.221 -1.875,-4.387 -2.822,-6.576c-1.801,-4.162 -3.783,-8.24 -5.819,-12.292c-4.302,-8.559 -9.007,-16.907 -13.314,-25.464c-4.275,-8.492 -8.21,-17.164 -11.209,-26.195c-1.511,-4.549 -2.806,-9.094 -3.604,-13.828c-0.727,-4.306 -0.732,-8.773 -2.094,-12.95c-0.394,-1.205 -2.145,-0.275 -2.45,0.498Z" style="fill:#010101;fill-rule:nonzero;"/><path d="M13.943,143.456c-2.064,7.663 -2.555,15.833 -4.469,23.6c-2.058,8.352 -3.564,16.49 -4.5,25.04c-0.97,8.865 -1.903,17.734 -2.668,26.62c-0.766,8.896 -0.805,17.861 -1.604,26.74c-0.654,7.267 8.293,3.998 9.795,-0.793c1.092,-3.483 0.574,-5.973 -0.255,-9.391c-0.608,-2.506 -4.139,-0.75 -5.05,0.41c-2.405,3.062 -3.596,6.004 -4.49,9.773c3.299,-0.666 6.598,-1.333 9.896,-1.999c-1.55,-17.366 0.67,-35.546 1.917,-52.885c0.633,-8.791 2.006,-17.19 3.756,-25.82c1.37,-6.755 3.76,-15.72 0.923,-22.344c-0.731,-1.705 -2.936,-0.121 -3.251,1.049Z" style="fill:#010101;fill-rule:nonzero;"/><path d="M44.833,157.719c-3.258,7.762 -4.058,16.602 -5.427,24.86c-1.538,9.28 -3.048,18.569 -4.755,27.819c-1.582,8.576 -4.102,17.492 -4.719,26.186c-0.135,1.907 -1.813,6.583 -2.219,9.546c-0.214,1.555 0.041,3.293 1.622,4.077c0.007,0.003 0.015,0.006 0.021,0.01c1.856,-3.051 3.713,-6.101 5.569,-9.151c-0.688,-0.114 -0.152,0.213 1.611,0.983c-1.506,-3.621 -5.897,-0.625 -7.15,1.456c0.947,-1.571 0.634,-1.071 -0.469,0.29c-2.253,2.779 -1.281,7.026 2.73,6.853c0.009,0 0.019,-0.001 0.028,-0.001c2.339,-0.102 4.716,-1.973 5.643,-4.068c1.458,-3.296 1.57,-7.508 1.93,-11.076c0.867,-8.613 2.493,-17.214 3.767,-25.781c1.369,-9.208 2.353,-18.464 3.426,-27.712c0.906,-7.816 2.628,-17.034 -0.094,-24.599c-0.264,-0.739 -1.311,-0.176 -1.514,0.308Z" style="fill:#010101;fill-rule:nonzero;"/><path d="M3.722,248.634c5.034,4.493 11.136,5.729 17.768,6.56c5.635,0.704 17.387,1.831 17.347,-6.896c-0.02,-4.138 -5.106,-2.978 -7.141,-1.397c2.518,-1.956 2.326,-1.194 0.878,-0.787c-0.791,0.223 -1.705,0.323 -2.669,0.419c-2.853,0.283 -5.738,0.226 -8.6,0.183c-3.101,-0.047 -6.221,-0.105 -9.319,-0.249c-2.222,-0.103 -4.597,0.562 -6.777,0.22c-0.797,-0.126 -2.372,1.157 -1.487,1.947Z" style="fill:#010101;fill-rule:nonzero;"/><path d="M3.792,226.562c0.47,7.363 11.57,8.724 17.115,9.918c2.036,0.438 4.447,0.215 6.524,0.315c1.866,0.09 3.996,0.627 5.839,0.404c5.306,-0.64 9.038,-10.555 2.082,-9.715c-0.793,0.096 -2.613,0.797 -2.729,0.844c-2.512,1.025 -6.624,5.753 -2.707,7.875c-0.203,-0.109 1.498,0.857 2.132,0.939c5.187,0.674 10.915,-8.772 4.526,-9.602c-3.48,-0.453 -7.624,0.369 -11.561,0.555c-6.578,0.312 -12.354,-2.803 -18.607,-3.83c-1.246,-0.204 -2.697,1.001 -2.614,2.297Z" style="fill:#010101;fill-rule:nonzero;"/><path d="M259.266,164.342c-1.993,6.547 -1.281,14.254 -0.822,20.995c0.55,8.066 1.359,16.085 2.244,24.12c1.677,15.221 3.349,30.681 1.757,45.979c-0.279,2.683 1.049,4.235 3.762,4.288c6.859,0.133 13.703,0.685 20.566,0.56c6.292,-0.114 12.15,-2.042 18.409,-1.979c3.258,0.033 9.082,-5.927 5.511,-8.952c-2.904,-2.46 -6.803,-4.073 -10.105,-1.175c-3.394,2.979 -1.631,6.602 1.258,8.938c1.837,-2.984 3.674,-5.969 5.511,-8.952c-5.819,0.058 -11.015,1.844 -16.796,2.337c-7.422,0.633 -14.916,-0.153 -22.35,-0.124c1.287,1.038 2.574,2.076 3.861,3.115c1.005,-15.035 -0.735,-29.989 -2.858,-44.854c-1.131,-7.914 -2.478,-15.806 -3.53,-23.729c-0.919,-6.913 -0.783,-15.04 -3.289,-21.575c-0.657,-1.71 -2.81,-0.041 -3.129,1.008Z" style="fill:#010101;fill-rule:nonzero;"/><path d="M290.993,147.016c-3.749,16.837 0.661,35.799 2.729,52.656c2.184,17.801 4.905,36.35 3.73,54.315c3.454,-1.107 6.909,-2.215 10.363,-3.322c-0.265,-2.899 -1.217,-4.542 -3.513,-6.284c-2.1,-1.594 -5.148,1.053 -6.059,2.753c-1.269,2.37 -1.157,4.273 -0.792,6.854c0.948,6.692 10.775,2.013 10.363,-3.322c-1.395,-18.034 -3.099,-35.694 -6.07,-53.565c-1.408,-8.467 -2.851,-16.929 -4.123,-25.418c-1.248,-8.327 -2.085,-17.264 -5.167,-25.138c-0.298,-0.767 -1.343,-0.06 -1.461,0.471Z" style="fill:#010101;fill-rule:nonzero;"/><path d="M268.045,238.753c5.174,2.296 11.593,1.437 17.087,1.22c4.918,-0.193 12.932,-0.102 16.026,-4.564c1.368,-1.973 1.854,-5.693 -1.38,-6.177c-3.675,-0.55 -8.68,1.743 -12.883,2.51c-5.365,0.979 -10.905,1.479 -16.353,1.731c-1.98,0.092 -5.345,4.017 -2.497,5.28Z" style="fill:#010101;fill-rule:nonzero;"/><path d="M91.938,226.053c-0.679,6.313 -2.117,12.246 -2.392,18.647c-0.313,7.269 -0.698,14.534 -1.105,21.798c-0.772,13.773 -1.484,27.543 -2.148,41.322c-1.352,28.098 -2.74,56.19 -3.264,84.318c-0.463,24.829 -1.67,49.63 -2.11,74.453c-0.21,11.788 0.11,23.59 1.481,35.305c0.676,5.78 1.698,11.522 2.922,17.21c1.199,5.577 2.089,11.985 4.457,17.182c3.6,-2.57 7.2,-5.14 10.8,-7.71c-1.015,-1.142 -2.021,-2.24 -3.193,-3.223c-3.886,-3.258 -12.553,2.058 -9.798,6.994c0.967,1.731 1.665,3.51 2.888,5.096c3.864,5.017 12.715,-2.613 10.8,-7.71c-1.866,-4.968 -4.521,-9.371 -5.977,-14.534c-1.668,-5.919 -2.68,-11.951 -3.418,-18.047c-1.42,-11.705 -1.565,-23.546 -1.404,-35.32c0.331,-24.191 1.182,-48.381 1.545,-72.578c0.412,-27.427 1.721,-54.834 2.803,-82.24c0.539,-13.657 1.011,-27.293 1.064,-40.962c0.025,-6.485 0,-12.971 -0.063,-19.456c-0.032,-3.244 -0.06,-6.488 -0.175,-9.73c-0.135,-3.82 -1.539,-7.393 -1.965,-11.168c-0.12,-1.056 -1.663,-0.439 -1.748,0.353Z" style="fill:#010101;fill-rule:nonzero;"/><path d="M151.855,270.98c-7.947,21.233 -11.268,44.44 -14.415,66.817c-3.295,23.424 -5.093,47.039 -6.225,70.659c-1.108,23.146 -1.437,46.317 -1.596,69.487c-0.079,11.578 0.13,23.18 -0.413,34.747c-0.536,11.396 -1.374,22.814 0.926,34.081c2.938,-2.577 5.874,-5.154 8.811,-7.731c-12.703,-4.095 -25.909,-7.565 -39.351,-7.438c1.306,0.465 2.61,0.93 3.916,1.396c0.158,0.553 0.317,1.105 0.476,1.658c0.113,-0.86 0.153,-1.724 0.119,-2.59c-0.013,-7.344 -10.354,-2.222 -11.454,2.313c-0.663,2.734 -1.657,5.298 0.477,7.729c2.388,2.721 9.563,1.692 12.914,2.091c9.34,1.107 18.47,3.706 27.454,6.401c4.981,1.495 9.508,-4.748 8.529,-9.089c-2.396,-10.618 -1.645,-21.721 -1.313,-32.51c0.335,-10.913 0.067,-21.854 0.057,-32.771c-0.023,-23.094 0.16,-46.192 0.921,-69.275c0.749,-22.719 2.183,-45.42 4.55,-68.029c2.387,-22.783 7.436,-45.063 10.353,-67.725c0.41,-3.189 -3.885,-2.492 -4.736,-0.221Z" style="fill:#010101;fill-rule:nonzero;"/><path d="M171.437,276.123c-1.372,14.309 1.465,29.242 2.258,43.573c0.827,14.941 1.157,29.938 1.371,44.898c0.44,30.813 -0.211,61.631 0.171,92.441c0.193,15.597 0.975,31.132 1.507,46.716c0.268,7.834 0.524,15.713 0.17,23.548c-0.133,2.93 -0.27,5.896 -0.936,8.76c-0.429,1.841 -0.139,0.992 -0.633,2.066c0.335,-0.728 -1.492,3.764 -0.366,1.031c0.821,-1.992 3.27,-3.41 5.33,-3.625c-6.206,0.648 -10.548,12.157 -2.424,11.309c6.898,-0.721 9.122,-7.186 9.53,-13.092c0.502,-7.258 0.564,-14.522 0.455,-21.798c-0.225,-14.86 -1.322,-29.688 -1.724,-44.541c-0.882,-32.684 -0.653,-65.381 -1.372,-98.065c-0.356,-16.19 -0.897,-32.391 -2.219,-48.533c-0.631,-7.705 -1.312,-15.406 -2.175,-23.09c-0.869,-7.741 -1.511,-15.773 -4.584,-23.004c-0.896,-2.11 -4.191,-0.358 -4.359,1.406Z" style="fill:#010101;fill-rule:nonzero;"/><path d="M219.99,219.772c-2.7,15.035 2.199,29.829 3.907,44.755c1.813,15.851 1.847,31.869 2.228,47.799c0.392,16.38 0.799,32.645 0.128,49.029c-0.669,16.3 -1.874,32.575 -2.887,48.855c-2.388,38.379 0.006,77.12 -3.763,115.413c-0.421,4.282 -0.941,8.589 -1.962,12.775c-0.513,2.101 -0.098,0.625 -0.888,2.646c0.137,-0.348 -1.282,3.969 -0.295,1.201c0.048,-0.133 4.342,-3.996 0.952,-1.467c1.683,-0.553 3.366,-1.105 5.049,-1.657c-0.071,-0.011 -0.144,-0.021 -0.215,-0.03c-5.207,-0.736 -10.962,8.733 -4.545,9.641c-0.56,-0.317 -1.12,-0.635 -1.68,-0.953c0.552,0.604 1.232,0.978 2.04,1.119c0.541,0.092 1.093,0.093 1.641,0.086c1.221,-0.015 2.595,-0.623 3.616,-1.232c3.165,-1.886 4.74,-4.803 5.808,-8.218c1.896,-6.062 2.168,-12.788 2.659,-19.072c1.294,-16.56 1.243,-33.229 1.095,-49.827c-0.202,-22.595 -0.015,-45.096 1.153,-67.673c0.839,-16.212 1.798,-32.415 2.117,-48.647c0.32,-16.274 -0.566,-32.438 -1.337,-48.682c-0.689,-14.555 -1.291,-29.115 -3.24,-43.567c-1.951,-14.463 -6.631,-28.469 -7.942,-43.03c-0.204,-2.268 -3.359,-0.828 -3.639,0.736Z" style="fill:#010101;fill-rule:nonzero;"/><path d="M181.686,549.258c5.94,5.246 15.103,4.637 22.599,4.534c3.465,-0.047 6.92,-0.177 10.381,-0.342c1.433,-0.068 2.866,-0.126 4.301,-0.167c1.448,-0.042 7.828,-2.99 3.689,-1.293c3.129,-1.283 7.541,-6.516 3.165,-9.205c0.329,0.387 0.659,0.774 0.989,1.161c-0.824,-1.966 -2.624,-2.627 -4.625,-2.581c-5.507,0.126 -11.008,0.852 -16.483,1.394c-7.471,0.739 -14.872,0.699 -22.179,2.668c-1.215,0.327 -3.221,2.61 -1.837,3.831Z" style="fill:#010101;fill-rule:nonzero;"/><path d="M155.631,84.52c0.747,10.942 1.408,21.668 1.127,32.646c-0.299,11.639 -1.251,23.252 -2.176,34.854c-0.916,11.496 -1.907,22.985 -2.19,34.519c-0.283,11.601 0.705,23.187 0.533,34.779c2.927,-2.104 5.853,-4.208 8.779,-6.313c-1.631,-0.977 -2.437,-1.249 -4.324,-1.496c-3.162,-0.414 -7.176,2.944 -5.949,6.341c0.624,1.728 1.02,2.376 2.348,3.659c3.682,3.554 9.861,-1.207 9.705,-5.575c-0.41,-11.49 -1.682,-22.889 -1.704,-34.404c-0.022,-11.439 0.78,-22.871 1.458,-34.285c1.263,-21.277 2.811,-45.404 -6.128,-65.378c-0.353,-0.789 -1.524,-0.01 -1.479,0.653Z" style="fill:#010101;fill-rule:nonzero;"/><path d="M117.103,274.2c0.227,5.49 -0.69,11.027 -0.877,16.521c-0.227,6.683 -0.876,13.335 -1.635,19.975c-1.322,11.574 -2.545,23.17 -3.547,34.776c-2.075,24.044 -2.811,48.189 -3.436,72.308c-0.632,24.348 -2.09,48.9 -0.447,73.229c0.572,8.462 1.547,16.91 2.196,25.371c0.447,5.829 0.497,11.778 1.577,17.517c0.61,3.24 5.107,1.43 5.463,-1.104c0.788,-5.606 -0.315,-11.486 -0.822,-17.089c-0.745,-8.233 -1.752,-16.429 -2.587,-24.65c-2.445,-24.104 -1.09,-48.663 -0.722,-72.84c0.381,-25.03 1.109,-50.061 3.22,-75.013c0.94,-11.11 2.145,-22.196 3.073,-33.308c0.508,-6.087 0.667,-12.245 0.764,-18.352c0.096,-6.003 -1.068,-11.573 -1.771,-17.487c-0.035,-0.291 -0.458,-0.083 -0.449,0.146Z" style="fill:#010101;fill-rule:nonzero;"/><path d="M201.358,272.453c-0.194,5.425 -0.978,10.835 -1.146,16.296c-0.186,5.987 -0.11,11.994 -0.153,17.983c-0.082,11.327 -0.215,22.649 -0.233,33.976c-0.036,23.266 0.053,46.53 0.072,69.795c0.019,22.6 0.006,45.192 0.144,67.791c0.066,10.802 -0.164,21.631 -0.784,32.415c-0.324,5.642 -1.648,11.383 -1.696,17.017c-0.019,2.24 -0.035,4.473 -0.189,6.709c-0.059,1.161 -0.173,2.317 -0.341,3.468c-0.072,0.384 -0.146,0.767 -0.218,1.15c-0.684,1.768 -0.021,1.501 1.99,-0.802c-2.663,0.202 -5.646,4.807 -1.996,5.836c7.14,2.016 7.493,-9.384 7.438,-13.463c-0.156,-11.707 1.524,-23.579 1.851,-35.314c0.672,-24.158 -0.467,-48.459 -0.668,-72.627c-0.211,-25.166 -0.505,-50.332 -0.918,-75.496c-0.206,-12.556 -0.497,-25.109 -0.714,-37.666c-0.103,-5.947 -0.198,-11.896 -0.288,-17.844c-0.1,-6.56 -1.014,-13.016 -1.253,-19.511c-0.023,-0.591 -0.882,-0.158 -0.898,0.287Z" style="fill:#010101;fill-rule:nonzero;"/><path d="M151.282,279.088c2.964,1.603 6.457,2.313 9.583,3.596c3.721,1.523 7.185,3.564 10.236,6.173c2.604,-2.795 5.209,-5.589 7.813,-8.384c-2.616,-1.451 -4.948,-0.896 -7.532,0.336c-2.056,0.98 -4.024,4.361 -2.227,6.395c0.824,0.933 1.855,1.647 2.858,2.379c4.417,3.22 11.904,-5.408 6.9,-9.109c-6.267,-4.635 -16.561,-9.217 -24.511,-7.982c-2.422,0.375 -6.683,4.672 -3.12,6.596Z" style="fill:#010101;fill-rule:nonzero;"/><path d="M175.944,92.032c-0.466,0.033 -0.913,0.084 -1.353,0.259c-0.313,0.134 -0.624,0.273 -0.934,0.416c1.969,-0.903 -0.477,0.085 -0.734,0.202c-0.855,0.393 -1.711,0.861 -2.381,1.533c-2.059,2.061 -2.388,4.501 -2.181,7.299c0.075,1.02 0.807,2.094 1.915,2.183c1.946,0.155 4.289,0.278 6.142,-0.489c2.406,-0.998 4.021,-2.818 4.179,-5.469c-0.311,0.902 -0.62,1.804 -0.93,2.705c1.272,-1.38 1.286,-2.907 0.873,-4.573c-0.078,-0.315 -0.23,-1.167 0.021,0.185c-0.038,-0.205 -0.047,-0.41 -0.039,-0.617c0.091,-2.318 -2.592,-3.009 -4.355,-2.445c-2.004,0.642 -4.189,2.822 -3.945,5.105c0.109,1.021 0.492,1.77 0.786,2.707c0.281,0.9 1.163,1.443 2.03,1.63c0.055,0.012 0.111,0.024 0.166,0.036c-0.686,-0.781 -1.371,-1.563 -2.057,-2.344c-0.02,-0.838 0.593,-1.927 1.401,-2.781c0.743,-0.494 0.933,-0.63 0.568,-0.409c0.977,-0.58 0.662,-0.274 0.257,-0.147c-0.358,0.089 -0.292,0.082 0.199,-0.021c-0.31,0.061 -0.625,0.096 -0.938,0.135c-0.695,0.084 -1.396,0.106 -2.093,0.167c0.864,0.483 1.729,0.966 2.594,1.448c0.036,0.116 -0.243,-1.047 -0.19,-0.688c-0.023,-0.163 0,-1.336 -0.082,-0.582c0.029,-0.269 0.306,-0.821 -0.034,-0.022c-0.313,0.473 -0.366,0.562 -0.155,0.267c0.244,-0.285 0.162,-0.203 -0.247,0.244c0.509,-0.545 1.177,-0.873 1.618,-1.495c-0.494,0.697 0.153,-0.056 0.359,-0.234c0.515,-0.444 0.804,-1.001 1.145,-1.575c0.754,-1.273 -0.173,-2.732 -1.605,-2.63Z" style="fill:#010101;fill-rule:nonzero;"/><path d="M176.37,133.043c-1.207,-0.465 -2.056,0.108 -3.116,0.615c0.389,-0.125 0.776,-0.25 1.165,-0.375c-1.487,0.063 -3.019,1.266 -3.952,2.343c-1.049,1.211 -1.561,2.771 -1.843,4.321c-0.476,2.604 2.223,3.536 4.203,2.348c-0.303,0.156 -0.622,0.264 -0.958,0.322c-0.443,-0.041 -0.479,-0.042 -0.104,-0.001c0.379,0.044 0.758,0.142 1.13,0.226c0.89,0.203 1.788,0.37 2.702,0.417c2.796,0.144 5.359,-1.866 5.443,-4.776c0.014,-0.455 0.026,-0.91 0.039,-1.364c0.013,-0.431 0.049,-0.862 0.073,-1.293c0.021,-0.411 0.021,-0.324 -0.002,0.258c0.104,-0.43 0.111,-0.872 0.137,-1.313c0.065,-1.149 -1.049,-2.457 -2.213,-2.522c-0.868,-0.048 -1.775,-0.145 -2.642,0.01c-2.773,0.498 -5.566,2.45 -5.502,5.589c0.017,0.799 0.529,1.938 1.354,2.228c0.443,0.155 0.844,0.395 1.325,0.5c2.002,0.438 4.385,-1.446 4.713,-3.398c0.031,-0.187 0.058,-0.361 0.116,-0.541c-1.134,1.206 -2.269,2.412 -3.402,3.617c-0.282,0.053 -0.564,0.105 -0.847,0.158c0.747,-0.072 1.446,-0.297 2.097,-0.674c0.812,-0.431 -1.047,0.361 -0.325,0.152c-1.386,0.401 0.02,0.043 0.493,0.017c-1.061,-0.855 -2.121,-1.711 -3.182,-2.566c0.014,0.356 0.078,0.705 0.194,1.047c0.086,0.315 0.063,0.211 -0.073,-0.313c0.024,0.411 0.048,0.823 0.073,1.235c0.031,0.526 0.037,1.056 0.053,1.584c1.512,-1.605 3.022,-3.212 4.534,-4.818c-0.942,0.004 0.735,0.074 -0.283,-0.013c-0.32,-0.027 -0.64,-0.067 -0.96,-0.104c-0.805,-0.091 -1.652,-0.102 -2.464,-0.067c-2.03,0.084 -3.63,0.993 -4.975,2.469c1.909,0.094 3.819,0.186 5.729,0.279c-0.069,-0.43 -0.108,-0.848 -0.111,-1.281c-0.032,0.285 -0.025,0.274 0.021,-0.031c0.125,-0.713 -0.244,0.502 0.046,-0.102c0.209,-0.438 -0.374,0.459 0.134,-0.184c0.305,-0.385 0.609,-0.709 0.801,-1.183c-0.266,0.348 -0.531,0.695 -0.796,1.042c0.408,-0.432 0.815,-0.864 1.209,-1.311c0.459,-0.518 0.903,-2.185 -0.034,-2.547Z" style="fill:#010101;fill-rule:nonzero;"/><path d="M158.026,217.431c3.861,5.546 9.871,10.073 14.368,15.162c2.717,3.073 5.332,6.216 7.773,9.513c1.667,2.252 2.949,6.447 5.373,7.836c3.155,1.807 8.779,-2.716 7.061,-6.196c-0.729,-1.475 -1.774,-2.501 -3.205,-3.308c-1.781,-1.003 -4.303,0.579 -4.994,2.27c-0.816,1.995 -0.768,3.735 -0.132,5.787c2.354,-2.066 4.707,-4.131 7.061,-6.196c-1.854,-1.166 -3.927,-5.377 -5.454,-7.173c-2.671,-3.139 -5.579,-6.086 -8.581,-8.906c-4.558,-4.283 -9.985,-9.991 -15.822,-12.486c-2.01,-0.859 -4.836,1.705 -3.448,3.697Z" style="fill:#010101;fill-rule:nonzero;"/><path d="M187.691,251.891c5.705,0.25 11.681,-2.004 17.186,-3.288c4.704,-1.098 10.744,-1.418 14.971,-3.869c2.121,-1.229 4.742,-6.503 0.575,-7.025c-4.958,-0.622 -11.22,2.226 -15.946,3.513c-5.954,1.622 -12.698,2.922 -17.598,6.896c-1.562,1.265 -1.422,3.674 0.812,3.773Z" style="fill:#010101;fill-rule:nonzero;"/><path d="M154.808,215.143c-8.435,4.744 -13.4,13.631 -20.135,20.267c-4.904,4.833 1.42,9.375 5.545,4.396c5.858,-7.072 11.619,-14.517 16.918,-22.011c1.322,-1.87 -0.266,-3.813 -2.328,-2.652Z" style="fill:#010101;fill-rule:nonzero;"/><path d="M91.208,238.302c0.944,8.87 14.907,9.511 21.533,9.329c4.757,-0.131 9.435,-0.039 14.188,0.104c3.247,0.098 6.524,-0.241 8.608,-3.057c0.731,-0.989 1.545,-2.796 0.863,-4.031c-0.045,-0.081 -0.09,-0.162 -0.134,-0.243c-2.239,-4.061 -8.531,-0.271 -8.188,3.622c0.01,0.097 0.018,0.194 0.026,0.291c0.984,-1.581 1.968,-3.163 2.952,-4.744c1.645,-1.142 1.764,-0.494 -0.064,-0.407c-1.604,0.075 -3.221,-0.007 -4.824,-0.053c-3.358,-0.098 -6.66,-0.045 -10.012,0.212c-8.174,0.627 -14.88,-1.044 -22.643,-3.048c-1.057,-0.273 -2.419,0.952 -2.305,2.025Z" style="fill:#010101;fill-rule:nonzero;"/><path d="M176.754,166.688c0.192,-0.816 0.08,-1.584 -0.443,-2.26c-0.894,-1.153 -2.6,-0.732 -3.679,-0.197c-2.091,1.037 -3.506,4.449 -3.703,6.65c-0.084,0.943 -0.124,1.784 0.551,2.553c0.886,1.01 2.262,0.998 3.451,0.676c0.305,-0.082 0.609,-0.16 0.915,-0.234c0.927,-0.225 -0.86,0.149 -0.056,0.008c0.362,-0.063 0.729,-0.101 1.098,-0.117c0.659,-0.032 1.184,0.002 1.86,-0.264c1.812,-0.712 2.866,-1.873 3.843,-3.48c-1.01,1.662 -0.326,0.558 -0.078,0.183c0.328,-0.495 0.675,-0.976 1.026,-1.454c1.277,-1.737 1.763,-4.431 -0.391,-5.718c-0.862,-0.516 -1.853,-0.849 -2.85,-0.976c-0.281,-0.036 -0.563,-0.057 -0.845,-0.093c-0.201,-0.029 -0.399,-0.073 -0.594,-0.131c0.495,0.188 0.499,0.167 0.011,-0.06c-1.833,-0.94 -4.505,-0.248 -5.888,1.225c-1.842,1.96 -3.159,4.271 -2.983,7.053c0.078,1.246 0.71,2.791 1.969,3.283c2.397,0.936 4.499,0.079 6.436,-1.434c1.875,-1.465 3.261,-4.813 1.469,-6.854c-1.827,-2.083 -5.239,-1.046 -6.986,0.565c0.327,-0.23 0.654,-0.462 0.981,-0.693c0.856,-0.275 1.713,-0.551 2.568,-0.826c0.34,0.017 0.681,0.033 1.021,0.049c0.653,0.359 1.307,0.717 1.96,1.076c-0.296,-0.254 -0.169,-0.029 0.379,0.672c0.403,0.95 0.149,0.965 0.14,0.385c0.022,1.291 -0.081,0.746 0.018,0.304c-0.09,0.262 -0.18,0.523 -0.271,0.784c-0.57,0.833 -0.699,1.047 -0.387,0.644c-2.292,0.762 -4.585,1.523 -6.877,2.284c1.402,0.541 2.423,0.764 3.931,0.749c0.4,-0.004 0.803,-0.063 1.201,-0.087c-0.588,-0.054 -0.631,-0.048 -0.126,0.017c0.26,0.052 0.515,0.123 0.764,0.213c-0.667,-1.662 -1.333,-3.325 -1.999,-4.987c-0.328,0.705 -0.636,1.416 -0.919,2.14c-0.06,0.153 -0.122,0.303 -0.195,0.449c0.54,-1.08 1.886,-2.357 3.14,-2.729c1.844,-0.547 0.479,-0.146 -0.055,-0.039c-1.252,0.249 -2.421,0.564 -3.613,1.021c1.36,0.764 2.721,1.526 4.08,2.29c-0.022,-0.94 -0.082,0.565 -0.012,-0.032c0.068,-0.582 0.094,-1.167 0.126,-1.752c0.019,-0.329 0.062,-0.656 0.048,-0.986c-0.026,-0.633 0.129,-0.648 -0.04,0.006c-0.247,0.521 -0.493,1.043 -0.74,1.564c0.006,-0.008 0.012,-0.016 0.018,-0.024c-1.285,0.584 -2.571,1.168 -3.856,1.752c0.007,0.002 0.014,0.004 0.021,0.006c-0.418,-0.229 -0.837,-0.459 -1.255,-0.688c-0.106,-0.168 -0.212,-0.337 -0.318,-0.506c0.5,1.294 1.995,1.541 3.183,1.162c1.422,-0.458 2.608,-1.681 2.951,-3.142Z" style="fill:#010101;fill-rule:nonzero;"/><path d="M170.068,193.693c-1.16,2.481 -1.305,5.427 -1.617,8.112c-0.414,3.556 2.788,4.636 5.623,3.141c1.317,-0.695 2.641,-1.359 3.781,-2.338c0.992,-0.852 1.561,-1.77 2.221,-2.867c0.196,-0.326 0.372,-0.659 0.542,-0.999c0.111,-0.222 0.896,-1.417 0.362,-0.735c1.729,-2.211 1.803,-5.989 -1.492,-6.682c-1.645,-0.345 -3.355,-0.096 -4.943,0.389c-2.371,0.723 -4.085,2.149 -5.67,3.998c-0.961,1.121 -1.478,2.947 -0.935,4.364c0.58,1.515 1.979,1.892 3.438,1.919c-0.782,-0.018 -0.489,-0.002 0.878,0.051c0.836,-0.068 1.536,-0.354 2.31,-0.606c0.99,-0.324 1.949,-0.677 2.958,-0.948c-1.725,-0.968 -3.448,-1.936 -5.173,-2.903c0.092,-1.673 0.256,-1.144 -0.058,-0.397c-0.114,0.27 -0.241,0.532 -0.371,0.794c-0.424,0.849 0.697,-1.044 0.217,-0.361c-0.479,0.681 1.054,-1.031 0.467,-0.483c-0.757,0.705 1.297,-0.853 -0.006,-0.01c-0.772,0.5 -1.536,1.026 -2.255,1.599c2.257,0.442 4.515,0.884 6.772,1.326c-0.332,-2.661 -0.435,-5.741 -1.876,-8.059c-0.51,-0.817 -1.881,-0.765 -2.648,-0.519c-1.086,0.345 -2.043,1.181 -2.525,2.214Z" style="fill:#010101;fill-rule:nonzero;"/><path d="M140.368,60.846c0.473,6.137 1.187,11.317 3.54,17.096c2.356,5.785 6.164,10.802 10.06,15.617c1.442,1.781 4.081,0.655 5.501,-0.446c6.553,-5.082 12.983,-10.804 18.137,-17.319c3.861,-4.879 9.803,-15.01 4.619,-20.711c-1.386,-1.523 -3.923,-0.007 -4.585,1.504c-1.221,2.787 -1.641,5.652 -2.398,8.573c-0.911,3.516 -3.374,6.623 -5.64,9.36c-4.255,5.141 -9.836,8.905 -14.477,13.642c1.833,-0.148 3.667,-0.297 5.501,-0.445c-8.365,-7.167 -14.45,-17.493 -19.128,-27.37c-0.282,-0.593 -1.169,-0.016 -1.13,0.499Z" style="fill:#010101;fill-rule:nonzero;"/></g></svg>