<?xml version="1.0" encoding="UTF-8" standalone="no"?><!DOCTYPE svg PUBLIC "-//W3C//DTD SVG 1.1//EN" "http://www.w3.org/Graphics/SVG/1.1/DTD/svg11.dtd"><svg width="100%" height="100%" viewBox="0 0 455 485" version="1.1" xmlns="http://www.w3.org/2000/svg" xmlns:xlink="http://www.w3.org/1999/xlink" xml:space="preserve" style="fill-rule:evenodd;clip-rule:evenodd;stroke-linejoin:round;stroke-miterlimit:1.41421;"><g id="cucumber"><path d="M181.702,167.852c6.63,-5.769 12.277,-12.698 18.087,-19.269c7.008,-7.925 13.999,-15.863 21.088,-23.716c15.238,-16.876 31.047,-33.342 48.501,-47.953c15.979,-13.377 33.784,-25.273 53.763,-31.68c20.73,-6.646 42.212,-5.06 61.468,5.042c-0.164,-2.416 -0.33,-4.831 -0.494,-7.247c2.311,-2.93 2.1,-1.797 0.042,-0.854c-2.175,0.997 -3.546,4.001 -2.109,6.058c0.409,0.586 0.722,1.184 1.237,1.68c2.76,2.655 6.973,0.771 8.998,-1.869c0.107,-0.141 0.217,-0.282 0.324,-0.424c1.559,-2.032 2.324,-5.822 -0.494,-7.247c-19.756,-9.983 -41.104,-11.827 -62.538,-6.521c-20.624,5.105 -39.29,16.68 -55.975,29.485c-34.616,26.567 -61.698,61.299 -89.448,94.579c-1.989,2.385 -3.868,4.858 -5.63,7.414c-1.751,2.541 1.026,4.396 3.18,2.522Z" style="fill-rule:nonzero;"/><path d="M190.384,170.672c-7.168,-6.974 -17.546,-6.761 -25.396,-0.938c-3.509,2.603 -6.167,6.557 -6.356,11.003c-0.211,4.924 3.346,8.485 7.193,10.961c4.94,3.179 13.031,-6.332 7.351,-9.704c-1.728,-1.025 -3.658,-2.519 -3.793,-4.183c0.027,0.346 0.243,-0.616 -0.073,-0.119c0.071,-0.111 1.262,-1.375 0.47,-0.61c1.252,-1.208 -0.771,0.376 0.759,-0.606c4.059,-2.609 10.1,-2.309 14.432,0.006c2.864,1.528 8.129,-3.169 5.413,-5.81Z" style="fill-rule:nonzero;"/><path d="M169.009,190.968c4.485,-0.265 8.972,-3.593 12.6,-5.98c3.679,-2.422 8.592,-5.157 11.243,-8.76c2.312,-3.141 -0.523,-6.73 -4.021,-4.583c-3.644,2.238 -6.879,5.639 -10.247,8.299c-3.528,2.787 -7.502,5.325 -10.506,8.688c-0.818,0.914 -0.402,2.415 0.931,2.336Z" style="fill-rule:nonzero;"/><path d="M163.124,187.513c-8.478,9.003 -15.267,19.555 -23.345,28.943c-8.688,10.097 -18.144,19.486 -27.642,28.813c-19.065,18.72 -39.039,36.521 -57.241,56.107c-18.173,19.554 -35.402,41.5 -45.973,66.198c-10.682,24.959 -12.587,55.822 2.328,79.471c3.597,5.703 7.973,10.791 13.186,15.075c1.854,1.523 3.833,2.888 5.781,4.284c0.845,0.605 1.705,1.205 2.515,1.857c0.956,0.771 1.051,1.268 0.898,0.568c0.326,-1.521 0.652,-3.041 0.977,-4.562c-0.036,0.042 -0.072,0.085 -0.109,0.127c1.121,-0.806 2.242,-1.612 3.363,-2.417c0.326,-0.085 0.653,-0.169 0.98,-0.254c-4.715,-0.72 -10.25,7.334 -4.227,8.967c3.589,0.972 8.841,-1.703 8.404,-6.015c-0.33,-3.255 -3.904,-5.146 -6.29,-6.87c-8.813,-6.367 -16.26,-14.328 -20.789,-24.356c-12.26,-27.147 -3.708,-57.886 10.541,-82.306c27.223,-46.658 71.491,-79.482 107.363,-118.873c6.257,-6.871 12.319,-13.966 17.874,-21.42c5.225,-7.012 10.652,-14.237 13.257,-22.679c0.359,-1.156 -1.256,-1.291 -1.851,-0.658Z" style="fill-rule:nonzero;"/><path d="M394.968,148.065c-2.104,5.387 -4.004,10.565 -6.761,15.683c-1.958,3.635 -5.443,7.514 -5.523,11.756c-0.016,0.861 0.533,1.614 1.24,2.04c12.657,7.626 25.726,0.064 29.101,-13.529c1.129,-4.547 1,-10.554 -2.519,-14.078c-4.574,-4.58 -12.597,-1.993 -15.573,2.936c-0.666,1.104 -0.179,2.844 1.214,3.029c2.504,0.335 6.136,-1.931 8.172,0.073c1.982,1.951 1.756,5.532 1.319,8.018c-0.579,3.302 -2.152,6.337 -4.781,8.438c-3.479,2.78 -8.774,0.474 -12.058,-1.324c0.414,0.68 0.827,1.36 1.24,2.04c-0.021,-1.134 1.168,-2.703 1.668,-3.764c1.198,-2.542 2.367,-5.091 3.451,-7.685c1.766,-4.229 3.376,-9.266 2.76,-13.872c-0.227,-1.697 -2.496,-0.925 -2.95,0.239Z" style="fill-rule:nonzero;"/><path d="M164.911,356.146c-1.447,0.844 -2.912,1.328 -4.292,2.359c-1.867,1.395 -3.501,3.048 -4.903,4.908c-2.324,3.085 -3.984,7.731 -1.916,11.277c3.248,5.569 9.542,5.313 14.747,2.786c4.915,-2.387 9.345,-7.514 9.5,-13.144c0.075,-2.74 -1.673,-4.934 -3.813,-6.399c-3.346,-2.293 -8.082,-2.938 -11.238,-0.166c-0.843,0.74 -1.324,1.808 -1.015,2.914c0.808,2.897 3.774,2.5 6.048,3.508c0.924,0.409 1.19,0.623 1.658,1.113c0.577,0.604 0.176,0.1 0.367,0.488c0.097,0.197 0.309,1.263 0.192,0.475c0.041,0.277 0.034,0.561 0.028,0.84c0.019,-0.898 -0.112,0.283 -0.168,0.493c0.255,-0.952 -0.149,0.273 -0.25,0.479c-0.288,0.59 0.366,-0.473 -0.298,0.477c-0.894,1.277 -1.521,1.756 -2.724,2.473c-1.84,1.099 -3.996,1.698 -5.848,-0.553c-0.448,-0.545 -0.672,-1.848 -1.327,-2.479c-0.37,-0.443 -0.417,-0.391 -0.141,0.16c-0.022,-0.316 0.016,-0.626 0.114,-0.931c0.149,-0.755 0.58,-1.455 0.946,-2.121c0.713,-1.298 1.813,-2.499 2.777,-3.614c0.868,-1.004 1.781,-2.426 2.816,-3.244c1.346,-1.063 0.344,-3.035 -1.26,-2.099Z" style="fill-rule:nonzero;"/><path d="M294.669,76.888c-3.749,0.338 -6.789,1.253 -9.614,3.886c-3.051,2.844 -4.654,6.721 -5.09,10.826c-0.107,1.021 -0.007,2.268 1.098,2.759c7.017,3.12 14.88,0.778 19.787,-4.923c4.172,-4.846 3.122,-11.74 -3.698,-12.863c-2.102,-0.346 -4.355,-0.245 -6.142,1.008c-1.908,1.338 -3.486,3.818 -1.201,5.604c1.314,1.026 3.172,0.629 4.732,0.98c0.879,0.197 0.979,0.45 1.164,0.985c-0.28,-0.809 -0.147,0.818 -0.024,-0.069c-0.134,0.969 0.126,-0.016 -0.354,0.91c0.521,-1.002 -1.07,1.146 -0.297,0.36c-0.199,0.195 -0.406,0.383 -0.62,0.563c-1.003,0.875 0.668,-0.385 -0.492,0.36c-2.528,1.624 -5.864,1.499 -9.003,0.757c0.638,0.727 1.275,1.454 1.914,2.182c-0.377,-5.311 2.297,-9.266 7.607,-10.529c1.349,-0.321 2.154,-2.969 0.233,-2.796Z" style="fill-rule:nonzero;"/><path d="M387.289,45.741c18.284,10.42 27.322,29.766 30.5,50.015c1.736,11.065 1.63,22.484 -0.798,33.432c-1.044,4.71 -2.698,9.206 -4.957,13.467c-2.162,4.079 -6.569,7.146 -7.986,11.443c-0.925,2.803 2.068,3.808 4.162,3.357c4.91,-1.056 8.618,-7.717 10.997,-11.703c2.795,-4.686 4.564,-10.022 5.889,-15.288c2.95,-11.74 2.837,-24.325 1.018,-36.226c-2.958,-19.343 -13.596,-49.646 -37.027,-51.45c-1.288,-0.099 -3.512,1.976 -1.798,2.953Z" style="fill-rule:nonzero;"/><path d="M38.293,472.017c7.781,7.557 19.229,10.601 29.759,11.896c12.006,1.479 24.286,0.721 36.199,-1.148c25.003,-3.924 48.07,-13.99 68.503,-28.821c21.347,-15.494 39.511,-34.705 58.041,-53.345c21.758,-21.888 42.914,-44.316 62.947,-67.803c14.502,-17.002 28.74,-34.4 41.361,-52.857c8.593,-12.566 17.016,-25.251 25.206,-38.083c9.177,-14.376 18.238,-28.933 26,-44.134c2.717,-5.32 5.251,-10.784 6.952,-16.523c0.932,-3.146 1.785,-7.819 -0.848,-10.43c-3.827,-3.796 -11.88,3.37 -8.105,7.113c-0.334,-0.33 0.113,0.351 0.012,-0.26c0.051,0.309 0.049,0.625 0.051,0.936c0.01,1.158 0.143,-0.977 -0.03,0.288c-0.282,2.06 -0.954,4.059 -1.577,5.716c-2.321,6.17 -5.442,12.055 -8.573,17.841c-8.243,15.234 -17.561,29.892 -26.987,44.411c-7.365,11.344 -14.906,22.576 -22.574,33.717c-15.138,21.995 -32.897,42.513 -50.541,62.512c-17.731,20.099 -36.479,39.176 -55.307,58.234c-16.248,16.449 -32.558,33.188 -51.435,46.674c-18.311,13.08 -38.926,21.857 -61.126,25.624c-21.293,3.613 -43.092,2.798 -62.433,-7.452c-2.907,-1.541 -8.257,3.211 -5.495,5.894Z" style="fill-rule:nonzero;"/><path d="M391.052,1.514c-6.728,4.705 -10.247,12.086 -12.321,19.949c-1.456,5.519 -2.694,19.389 5.175,20.95c2.513,0.498 5.354,-2.358 4.558,-4.856c-0.818,-2.566 -2.979,-4.104 -3.562,-6.972c-0.647,-3.179 -0.243,-6.502 0.341,-9.649c1.133,-6.097 3.605,-12.9 6.883,-18.199c0.499,-0.809 -0.108,-1.899 -1.074,-1.223Z" style="fill-rule:nonzero;"/><path d="M391.258,1.119c-2.68,6.394 -1.2,15.543 -0.953,22.271c0.118,3.21 -0.791,17.112 5.63,15.06c2.722,-0.87 3.381,-3.659 2.712,-5.487c-1.14,-3.111 -1.764,-6.058 -2.215,-9.369c-0.586,-4.289 -0.93,-8.607 -1.311,-12.918c-0.272,-3.078 -0.051,-7.232 -1.584,-10.02c-0.539,-0.982 -1.922,-0.393 -2.279,0.463Z" style="fill-rule:nonzero;"/><path d="M398.383,38.515c4.13,-9.575 14.097,-14.841 23.03,-19.38c2.095,-1.064 4.214,-2.051 6.423,-2.853c1.736,-0.63 4.082,-0.858 5.646,-1.837c2.417,-1.511 -0.524,0.062 1.226,-0.743c0.351,-0.146 0.665,-0.354 0.943,-0.624c1.165,-1.163 0.778,-0.953 -1.16,0.629c1.646,-0.527 2.424,-1.925 2.551,-3.526c0.055,-0.696 -0.474,-1.372 -1.035,-1.702c-2.637,-1.55 -6.362,0.479 -9.386,1.945c-5.192,2.521 -10.258,5.243 -15.095,8.399c-4.396,2.869 -19.867,13.27 -15.12,20.34c0.507,0.756 1.735,-0.086 1.977,-0.648Z" style="fill-rule:nonzero;"/><path d="M417.442,45.825c5.283,-2.209 8.563,-9.133 11.249,-13.816c2.753,-4.801 6.829,-11.453 7.464,-17.086c0.118,-1.047 0.018,-2.534 -1.19,-2.99c0.025,0.01 -1.256,-0.797 -2.238,-0.718c-1.789,0.146 -3.757,1.906 -3.656,3.8c0.025,0.467 0.201,0.964 0.505,1.321c1.459,-3.535 1.485,-4.415 0.078,-2.639c-0.421,0.545 -0.708,1.153 -0.862,1.822c-0.173,1.695 -0.313,2.974 -0.896,4.601c-3.053,8.5 -7.652,16.102 -12.01,23.93c-0.594,1.064 0.407,2.255 1.556,1.775Z" style="fill-rule:nonzero;"/><path d="M407.669,61.81c6.892,8.109 23.175,4.588 31.895,2.271c4.522,-1.201 9.548,-2.998 12.763,-6.556c3.144,-3.478 1.841,-6.846 -2.606,-6.874c-1.017,-0.006 -2.226,1.189 -2.1,2.232c0.111,0.924 0.783,-1.087 0.258,-0.334c-0.491,0.704 -0.731,1.222 -0.993,2.033c0.309,-0.955 -0.191,-0.146 -0.807,0.229c-3.221,1.969 -7.137,2.916 -10.77,3.774c-7.75,1.831 -16.955,2.639 -24.609,-0.027c-1.637,-0.57 -4.509,1.513 -3.031,3.252Z" style="fill-rule:nonzero;"/><path d="M416.441,49.796c5.646,-2.258 11.425,-1.793 17.298,-0.737c2.488,0.447 4.966,1.054 7.288,2.063c0.65,0.282 1.194,0.564 1.655,1.096c-0.292,-0.979 -0.31,-0.928 -0.052,0.156c0.941,1.988 -0.131,0.061 0.089,-0.835c-0.188,0.768 0.069,1.793 0.854,2.146c0.326,0.146 0.659,0.257 1.002,0.366c1.633,0.523 3.427,-0.875 4.392,-1.995c5.137,-5.958 -6.486,-8.537 -10.027,-9.198c-7.398,-1.38 -17.655,-0.969 -23.463,4.458c-1.007,0.94 -0.847,3.205 0.964,2.48Z" style="fill-rule:nonzero;"/><path d="M20.548,460.944c-0.219,-1.353 0.352,-3.101 -0.804,-4.226c-1.617,-1.575 -3.596,-1.571 -5.743,-1.38c-2.134,0.191 -4.308,2.459 -3.603,4.676c2.813,8.846 13.479,14.047 22.41,12.808c3.568,-0.495 6.551,-6.812 1.457,-6.8c-7.416,0.019 -14.716,-2.031 -17.94,-9.387c-0.937,1.506 -1.874,3.011 -2.81,4.516c1.998,-0.459 3.413,0.715 5.315,1.301c0.755,0.232 1.843,-0.734 1.718,-1.508Z" style="fill-rule:nonzero;"/><path d="M275.928,347.784c0.443,4 5.309,5.567 8.716,5.693c4.426,0.166 8.936,-2.741 11.791,-5.887c2.89,-3.183 4.567,-7.184 4.504,-11.5c-0.064,-4.441 -3.598,-10.845 -8.713,-9.274c-1.159,0.355 -2.38,1.479 -2.566,2.728c-0.511,3.407 2.664,4.84 3.761,7.786c0.813,2.187 -0.017,4.623 -1.289,6.438c-1.42,2.026 -3.42,3.217 -5.755,3.896c-3.213,0.937 -5.453,-1.24 -8.373,-1.701c-0.957,-0.15 -2.191,0.787 -2.076,1.821Z" style="fill-rule:nonzero;"/><path d="M55.008,308.386c-3.427,-8.803 -17.354,-7.645 -22.468,-1.101c-4.042,5.172 -4.476,14.782 -2.477,20.931c0.253,0.777 1.031,1.313 1.806,1.45c7.293,1.282 5.012,-9.98 4.884,-13.75c-0.071,-2.084 -0.035,-5.021 1.928,-6.275c4.171,-2.664 9.425,-0.24 13.536,1.194c1.333,0.464 3.402,-0.877 2.791,-2.449Z" style="fill-rule:nonzero;"/><path d="M148.343,248.463c-0.509,-0.711 -0.529,-1.164 -1.555,-1.508c-0.899,-0.301 -1.813,-0.18 -2.725,0c-2.515,0.498 -4.664,1.658 -6.649,3.262c-3.696,2.983 -4.83,7.652 -4.422,12.178c0.47,5.223 3.954,8.871 9.37,7.117c4.615,-1.494 8.509,-5.607 11.081,-9.572c2.4,-3.702 4.935,-8.995 2.151,-13.137c-1.198,-1.781 -3.608,-2.191 -5.568,-2.271c-1.395,-0.058 -3.341,0.141 -4.498,0.946c-0.612,0.427 -3.004,1.479 -3.889,2.915c-0.419,0.681 -0.997,1.931 -0.202,2.621c0.632,0.549 1.25,0.732 2.057,0.912c0.421,0.094 1.019,0.047 1.468,0.035c-2.121,0.055 0.649,0.162 0.939,0.156c0.583,-0.01 1.16,-0.057 1.743,-0.043c1.015,0.024 -0.467,-0.135 0.709,0.068c0.875,0.15 -0.544,-0.353 0.4,0.139c0.705,0.367 -0.479,-0.595 0.174,0.167c0.489,0.57 -0.277,-0.753 0.057,0.201c0.21,0.6 -0.14,-0.88 -0.036,-0.236c0.028,0.171 0.035,0.345 0.043,0.517c0.055,1.145 0.123,-0.543 -0.023,0.369c-0.066,0.414 -0.177,0.819 -0.295,1.221c-0.233,0.786 0.329,-0.899 0.035,-0.113c-0.083,0.221 -0.175,0.436 -0.267,0.652c-0.192,0.45 -0.414,0.888 -0.643,1.321c-0.118,0.225 -0.245,0.444 -0.371,0.665c-0.462,0.806 0.526,-0.84 0.027,-0.046c-0.281,0.446 -0.583,0.88 -0.892,1.308c-0.311,0.431 -0.642,0.847 -0.979,1.258c-0.168,0.203 -0.342,0.402 -0.516,0.602c-0.522,0.597 0.755,-0.77 -0.108,0.114c-0.694,0.71 -1.446,1.362 -2.243,1.954c1.219,-0.906 -0.074,0.01 -0.4,0.195c-1.15,0.656 0.57,-0.165 -0.331,0.17c-0.178,0.066 -0.36,0.117 -0.543,0.167c-0.695,0.191 0.959,-0.163 0.262,-0.058c-1.072,0.161 0.52,0.145 -0.259,0.023c-0.737,-0.115 0.619,0.379 -0.254,-0.123c-0.545,-0.314 0.592,0.534 0.107,0.1c-0.138,-0.124 -0.256,-0.268 -0.374,-0.408c-0.125,-0.15 -0.463,-0.725 -0.026,0.026c-0.114,-0.196 -0.206,-0.405 -0.298,-0.612c-0.213,-0.479 -0.358,-0.989 -0.489,-1.496c-0.142,-0.547 -0.43,-2.632 -0.26,-3.795c0.229,-1.559 1.444,-2.863 2.717,-3.692c0.772,-0.503 1.537,-0.838 2.418,-1.089c0.441,-0.125 0.863,-0.334 1.282,-0.517c0.398,-0.132 0.754,-0.337 1.069,-0.614c0.558,-0.582 0.584,-0.623 0.078,-0.122c0.732,-0.271 1.476,-1.163 0.928,-1.927Z" style="fill-rule:nonzero;"/><path d="M88.459,440.297c-3.467,3.552 -5.849,7.804 -6.203,12.824c-0.259,3.668 3.08,6.379 6.382,7.092c6.173,1.333 11.381,-4.666 13.779,-9.559c2.025,-4.133 3.845,-11.104 -0.534,-14.388c-2.189,-1.642 -5.488,-0.981 -7.799,-0.013c-2.051,0.858 -3.876,1.959 -5.649,3.305c-1.871,1.417 -4.461,3.908 -4.262,6.467c0.056,0.719 0.51,1.223 1.209,1.377c3.139,0.698 6.478,-2.56 9.076,-3.971c0.226,-0.119 0.454,-0.233 0.685,-0.343c-0.457,0.196 -0.471,0.208 -0.043,0.034c0.278,-0.109 1.82,-0.448 0.674,-0.253c0.162,-0.024 0.324,-0.041 0.488,-0.052c0.809,-0.065 -0.82,-0.101 -0.071,-0.007c0.917,0.115 -0.531,-0.335 0.227,0.081c0.48,0.265 -0.599,-0.618 -0.009,0.026c0.587,0.643 -0.244,-0.629 0.118,0.202c0.111,0.254 0.313,1.343 0.139,0.324c0.064,0.377 0.079,0.762 0.087,1.143c0.004,0.213 -0.085,1.328 0.014,0.309c-0.043,0.443 -0.123,0.883 -0.208,1.318c-0.09,0.461 -0.213,0.913 -0.342,1.363c-0.307,1.073 0.165,-0.356 -0.248,0.697c-0.325,0.83 -0.725,1.629 -1.162,2.404c-0.232,0.396 -0.199,0.341 0.101,-0.164c-0.156,0.246 -0.324,0.484 -0.493,0.723c-0.274,0.387 -0.573,0.757 -0.877,1.119c-0.508,0.604 0.725,-0.693 -0.172,0.153c-0.13,0.12 -0.264,0.236 -0.4,0.35c-0.72,0.612 0.86,-0.562 0.086,-0.046c-0.141,0.092 -0.285,0.178 -0.431,0.258c-0.768,0.443 0.884,-0.334 0.071,-0.014c-0.15,0.057 -0.303,0.105 -0.457,0.149c-0.802,0.243 0.848,-0.115 0.017,-0.018c-0.951,0.111 0.27,0.08 -0.307,0.009c-0.165,-0.023 -0.328,-0.057 -0.489,-0.096c-0.814,-0.182 0.602,0.271 -0.2,-0.074c-0.925,-0.396 -1.548,-0.708 -1.869,-1.46c-0.942,-2.212 -0.349,-7.741 1.212,-9.576c1.343,-1.575 -0.809,-3.056 -2.14,-1.693Z" style="fill-rule:nonzero;"/><path d="M363.682,85.958c-9.776,12.264 -18.517,25.365 -27.92,37.923c-9.38,12.527 -18.879,24.957 -28.037,37.649c-8.913,12.352 -17.783,24.48 -27.719,36.047c-9.772,11.375 -20.173,22.35 -29.044,34.461c-9.054,12.361 -17.787,24.957 -26.965,37.227c-9.456,12.643 -19.936,24.352 -30.297,36.244c-20.729,23.794 -41.085,47.927 -62.51,71.104c-7.758,8.393 -15.879,16.434 -23.415,25.029c-6.87,7.836 -13.615,15.783 -20.782,23.354c-7.431,7.85 -15.296,15.398 -24.336,21.38c-3.738,2.474 -7.683,4.498 -11.925,5.948c-1.854,0.635 -3.74,1.045 -5.676,1.32c-0.952,0.135 -1.914,0.174 -2.874,0.211c-0.565,0.023 -1.128,0.008 -1.69,-0.048c1.032,0.909 1.192,0.873 0.481,-0.11c-3.138,-5.41 -11.905,1.244 -8.665,6.186c2.369,3.612 5.762,3.277 9.875,2.779c4.579,-0.555 8.878,-2.23 13.022,-4.176c9.111,-4.275 17,-11.1 24.38,-17.812c14.825,-13.481 26.763,-29.568 40.576,-43.989c21.206,-22.14 41.443,-45.087 61.334,-68.411c20.38,-23.899 41.098,-47.221 59.228,-72.919c9.787,-13.872 19.534,-27.454 30.625,-40.33c11.4,-13.234 23.094,-26.232 33.168,-40.534c10.414,-14.785 21.134,-29.336 31.717,-43.999c10.198,-14.131 21.249,-28.322 28.938,-44.015c0.543,-1.107 -0.938,-1.212 -1.489,-0.519Z" style="fill-rule:nonzero;"/><path d="M401.494,122.856c-18.34,22.309 -32.985,47.719 -48.516,71.996c-15.715,24.565 -31.914,48.854 -49.83,71.882c-18.064,23.219 -38.751,44.144 -56.794,67.403c-18.025,23.237 -35.11,47.24 -55.045,68.924c-15.591,16.958 -32.573,33.459 -50.963,47.363c-9.024,6.823 -18.934,13.002 -29.504,17.121c-4.824,1.879 -9.862,3.28 -14.903,4.437c-4.415,1.012 -9.783,1.243 -13.285,4.397c-1.982,1.785 -1.584,6.228 1.861,4.783c1.98,-0.829 5.469,-0.264 7.677,-0.634c2.956,-0.495 5.851,-1.372 8.712,-2.246c6.321,-1.931 12.432,-4.761 18.35,-7.679c11.718,-5.778 22.444,-13.523 32.512,-21.793c21.259,-17.463 40.951,-37.747 58.564,-58.844c18.906,-22.645 35.742,-46.924 54.444,-69.733c9.339,-11.389 19.575,-21.956 29.163,-33.124c9.486,-11.051 18.393,-22.592 26.973,-34.357c15.121,-20.732 28.977,-42.369 42.689,-64.047c13.577,-21.467 27.649,-42.871 39.797,-65.188c0.758,-1.392 -1.2,-1.516 -1.902,-0.661Z" style="fill-rule:nonzero;"/><path d="M276.95,119.856c-5.529,4.574 -11.188,8.725 -16.283,13.813c-5.231,5.226 -10.292,10.603 -15.22,16.113c-9.971,11.147 -19.331,22.813 -28.819,34.366c-4.474,5.448 -8.949,10.897 -12.845,16.779c-3.955,5.973 -7.479,12.206 -12.089,17.717c-3.299,3.945 -9.52,2.498 -13.519,5.713c-5.077,4.082 -4.716,10.041 -5.993,15.792c-0.687,3.093 -3.229,6.472 -4.819,9.188c-1.614,2.759 -3.48,5.377 -5.38,7.943c-3.779,5.106 -8.168,9.692 -12.824,13.999c-9.462,8.752 -20.284,15.854 -30.08,24.209c-22.546,19.232 -42.425,41.56 -61.759,63.943c-4.979,5.764 -10.589,11.323 -14.289,18.015c-1.803,3.261 -3.019,6.854 -4.566,10.237c-1.851,4.046 -4.897,7.55 -7.495,11.131c-4.279,5.9 -7.946,11.861 -10.177,18.82c-2.28,7.113 -3.622,14.664 -4.734,22.038c-0.91,6.034 8.106,4.021 8.605,-0.697c0.626,-5.925 1.371,-11.818 2.649,-17.642c1.629,-7.421 5.049,-13.246 9.439,-19.394c3.726,-5.218 7.377,-10.03 9.939,-15.949c1.339,-3.092 2.527,-6.246 4.313,-9.119c2.051,-3.298 5.096,-6.155 7.617,-9.103c19.509,-22.8 39.537,-45.305 62.043,-65.217c9.81,-8.678 20.67,-16.004 30.529,-24.613c9.063,-7.914 16.723,-17.047 22.938,-27.34c3.246,-5.375 5.547,-10.297 6.124,-16.57c0.374,-4.063 2.154,-5.122 5.786,-5.879c2.607,-0.544 5.361,-1.164 7.477,-2.892c4.612,-3.764 7.877,-9.271 11.012,-14.242c4.029,-6.392 8.082,-12.56 12.793,-18.476c9.646,-12.113 18.98,-24.469 28.813,-36.434c4.887,-5.945 9.918,-11.781 15.082,-17.486c5.39,-5.955 10.74,-12.306 16.554,-17.828c0.755,-0.715 -0.016,-1.601 -0.822,-0.935Z" style="fill-rule:nonzero;"/><path d="M234.111,99.015c-10.377,-3.896 -20.529,8.435 -20.768,18.006c-0.044,1.756 1.707,2.761 3.267,2.635c2.431,-0.197 4.166,-2.088 4.877,-4.28c0.895,-2.757 1.092,-5.224 2.617,-7.816c1.664,-2.83 4.771,-3.177 7.713,-3.698c1.529,-0.272 5.163,-3.77 2.294,-4.847Z" style="fill-rule:nonzero;"/><path d="M296.252,226.31c-7.683,2.624 -12.106,14.521 -4.371,19.664c4.521,3.006 10.269,-0.278 13.368,-3.728c2.88,-3.203 4.793,-8.412 2.916,-12.568c-2.808,-6.214 -12.1,-6.329 -17.044,-2.947c-1.411,0.965 -3.548,3.963 -1.114,5.199c1.935,0.983 4.187,1.155 6.307,1.471c1.167,0.175 0.93,0.113 1.695,0.461c0.308,0.14 0.601,0.318 0.891,0.489c0.892,0.525 -0.567,-0.56 0.147,0.11c0.209,0.196 0.383,0.426 0.553,0.654c-0.592,-0.791 -0.13,-0.201 -0.009,0.076c0.097,0.221 0.306,1.107 0.085,0.02c0.055,0.27 0.069,0.547 0.085,0.82c0.015,0.266 -0.097,1.18 0.035,0.022c-0.032,0.286 -0.098,0.567 -0.162,0.848c-0.063,0.278 -0.427,1.188 0.02,0.007c-0.142,0.373 -0.323,0.729 -0.509,1.082c0.687,-1.299 -0.268,0.322 -0.551,0.659c1.38,-1.644 -1.534,1.088 0.222,-0.156c-0.231,0.164 -0.48,0.302 -0.729,0.438c1.123,-0.613 0.434,-0.184 0.083,-0.066c-0.906,0.305 0.976,-0.12 0.03,-0.005c-0.911,0.11 0.865,0.123 -0.059,0.026c-0.18,-0.019 -1.045,-0.271 -0.187,0.032c-0.284,-0.101 -0.549,-0.25 -0.811,-0.398c-0.849,-0.477 0.456,0.473 -0.331,-0.224c-0.602,-0.531 -0.855,-1.348 -1.134,-2.065c-0.867,-2.235 1.017,-5.315 2.345,-7.008c1.15,-1.464 0.222,-3.594 -1.771,-2.913Z" style="fill-rule:nonzero;"/><path d="M148.156,469.582c0.867,4.125 5.391,6.896 9.432,6.302c4.17,-0.615 7.673,-3.531 10.07,-6.864c2.121,-2.948 3.87,-6.887 3.429,-10.6c-0.543,-4.571 -4.381,-6.2 -8.51,-5.183c-2.605,0.641 -4.945,5.338 -1.344,6.27c0.7,0.181 1.617,0.599 2.127,0.924c-0.773,-0.494 0.446,0.829 0.003,0.024c0.121,0.22 0.199,0.461 0.278,0.698c0.264,0.798 -0.077,-0.665 0.025,0.205c0.196,1.663 -0.699,3.788 -1.553,5.074c-0.918,1.383 -0.776,1.192 -1.895,2.154c-0.364,0.281 -0.359,0.291 0.015,0.027c-0.275,0.196 -0.568,0.365 -0.862,0.532c-0.918,0.524 0.647,-0.216 -0.327,0.155c-0.057,0.021 -1.062,0.275 -0.382,0.149c-2.642,0.492 -4.364,-1.669 -6.77,-3.149c-1.944,-1.194 -4.109,1.503 -3.736,3.282Z" style="fill-rule:nonzero;"/><path d="M50.732,378.592c-3.815,0.635 -5.857,4.376 -6.453,7.898c-0.705,4.164 2.822,7.648 6.427,9.018c8.083,3.07 17.211,-2.422 19.625,-10.305c2.185,-7.138 -3.423,-12.451 -10.274,-12.444c-6.456,0.007 -15.795,4.829 -14.607,11.178c0.232,1.241 1.462,1.527 2.493,0.91c0.589,-0.353 1.188,-0.674 1.726,-1.104c-1.061,0.849 1.556,-0.937 1.879,-1.216c1.222,-1.053 2.969,-1.692 4.499,-2.098c2.368,-0.629 5.746,0.02 6.821,2.43c1.723,3.859 -2.634,6.168 -5.714,6.512c-2.13,0.237 -3.977,-0.657 -5.599,-1.941c-2.859,-2.265 -0.751,-4.4 0.421,-6.805c0.449,-0.919 -0.041,-2.232 -1.244,-2.033Z" style="fill-rule:nonzero;"/><path d="M394.891,30.067c7.287,-5.436 12.313,-12.688 21.006,-16.092c4.246,-1.664 7.584,-9.283 0.793,-9.465c-5.234,-0.14 -10.916,4.99 -14.399,8.384c-4.286,4.176 -9.349,9.237 -11.432,14.964c-1.117,3.068 1.924,3.781 4.032,2.209Z" style="fill-rule:nonzero;"/><path d="M414.518,70.375c2.316,7.32 11.909,7.727 18.488,7.834c5.722,0.094 14.244,-0.028 17.828,-5.355c2.801,-4.162 -0.494,-8.051 -5.025,-5.727c2.549,-1.308 -2.284,0.479 -3.008,0.675c-2.525,0.686 -5.205,0.893 -7.803,1.106c-5.756,0.473 -12.093,-0.405 -17.771,-1.42c-1.495,-0.267 -3.186,1.383 -2.709,2.887Z" style="fill-rule:nonzero;"/></g></svg>