<?xml version="1.0" encoding="utf-8"?>
<!-- Generator: Adobe Illustrator 17.0.0, SVG Export Plug-In . SVG Version: 6.00 Build 0)  -->
<!DOCTYPE svg PUBLIC "-//W3C//DTD SVG 1.1//EN" "http://www.w3.org/Graphics/SVG/1.1/DTD/svg11.dtd">
<svg version="1.1" id="Layer_1" xmlns="http://www.w3.org/2000/svg" xmlns:xlink="http://www.w3.org/1999/xlink" x="0px" y="0px"
	 width="566.93px" height="566.93px" viewBox="0 0 566.93 566.93" enable-background="new 0 0 566.93 566.93" xml:space="preserve">
<path d="M57.383,550.11c2.092,2.649,3.088,4.459,6.692,5.252c6.516,1.433,12.408-5.82,11.072-11.799
	c-1.641-7.344-1.059-15.517-1.315-23.024c-0.287-8.401-0.451-16.806-0.641-25.209c-0.367-16.253-0.677-32.507-1.057-48.76
	c-0.764-32.667-1.603-65.333-2.8-97.987c-1.202-32.767-3.896-65.525-3.622-98.325c0.275-33.026,2.328-66.034,0.63-99.057
	c-0.898-17.469-3.266-34.819-4.015-52.299c-0.381-8.885-0.513-17.945,0.493-26.794c0.702-6.181,1.396-13.431,5.665-18.36
	c1.948-2.25-0.49-4.763-2.927-3.335c-6.553,3.84-8.801,10.55-10.946,17.42c-2.785,8.918-2.787,18.966-2.722,28.226
	c0.132,18.925,2.618,37.721,3.609,56.602c1.74,33.114-0.813,66.271-1.501,99.378c-0.684,32.874,1.796,65.724,2.821,98.572
	c1.022,32.745,1.524,65.504,1.992,98.261c0.233,16.285,0.504,32.57,0.795,48.854c0.151,8.424,0.361,16.847,0.467,25.271
	c0.072,5.716,0.509,11.624,0.399,17.438C57.127,542.561,54.841,546.891,57.383,550.11z"/>
<path d="M69.698,563.085c13.286,1.424,27.291-1.115,40.547-2.293c14.909-1.325,29.808-2.779,44.707-4.215
	c29.287-2.821,58.576-5.632,87.897-8.078c29.336-2.447,58.722-4.485,88.129-5.848c14.997-0.695,30.006-1.163,45.017-1.403
	c12.59-0.201,25.365,0.721,37.926,0.058c0.751-0.04,1.457-0.302,2.104-0.688l0,0c6.355-1.129,12.213-3.461,18.188-5.908
	c9.424-3.861,18.785-7.875,28.096-12.002c8.565-3.798,17.115-7.702,25.525-11.835c2.272-1.117,4.54-2.275,6.727-3.56
	c2.43-0.155,4.868-0.42,7.427-0.607c5.076-0.371,9.915-4.678,10.977-9.633c0.334-1.558,0.182-3.02-0.335-4.271
	c2.026-2.776,2.605-6.161,0.088-8.943c-34.555-38.183-47.053-90.894-59.3-139.49c-7.73-30.671-13.39-61.905-18.06-93.179
	c-2.269-15.188-3.892-30.44-5.694-45.686c-0.896-7.577-1.709-15.165-2.565-22.746c-0.838-7.421-0.24-16.179-3.271-23.046
	c-0.104-0.235-0.229-0.418-0.363-0.578c0.479,0.045,0.96,0.083,1.438,0.13c4.11,0.406,7.912-2.894,8.022-7.04
	c0.1-3.715-0.294-7.65-1.645-11.129c-0.3-0.774-0.848-1.402-1.517-1.862c0.988-0.007,1.977-0.011,2.964-0.02
	c1.671,0.024,3.195-0.754,4.387-1.907c6.629-1.911,12.527-11.307,6.159-15.398c-0.004-0.005-0.008-0.01-0.013-0.016
	c-0.347-0.743-0.598-1.537-0.832-2.316c-0.662-2.203-0.229-0.611-0.537-2.547c-0.292-1.833-0.461-3.687-0.611-5.536
	c-0.686-8.454-0.509-16.979-0.221-25.447c0.55-16.128,2.023-32.195,3.28-48.278c0.629-8.052-0.708-15.758-5.508-22.403
	c-4.54-6.286-13.121-9.139-20.432-10.411c-17.409-3.029-35.243,1.455-52.646,2.278c-38.879,1.839-77.937,1.726-116.851,2.036
	c-19.188,0.153-38.376,0.287-57.563,0.439c-9.929,0.079-19.854,0.311-29.781,0.524c-9.534,0.204-19.386,0.371-28.617,2.847
	c-1.084,0.291-1.976,1.833-1.236,2.632c-8.425-4.499-22.069,1.927-29.357,6.106c-6.97,3.996-13.495,8.86-19.762,13.871
	c-4.989,3.99-9.76,7.737-12.978,13.28c-1.458,2.512,1.491,3.804,3.453,2.772c4.729-2.487,8.508-5.889,12.749-9.175
	c5.584-4.328,11.433-8.294,17.577-11.783c5.106-2.899,10.769-5.749,16.714-6.19c6.041-0.448,6.585,4.568,6.862,9.402
	c0.449,7.82-0.677,15.774-1.276,23.563c-0.708,9.207-0.425,18.334-0.15,27.563c0.661,22.293,1.861,44.52,1.847,66.828
	c-0.006,8.431,11.636,5.95,15.841-0.085c1.101-0.044,2.203-0.105,3.306-0.209c5.978-0.567,11.968-1.306,17.926-2.046
	c12.813-1.592,25.659-2.818,38.513-4.026c26.159-2.459,52.401-3.99,78.654-4.991c46.99-1.793,93.966-1.077,140.966-1.311
	c-0.856,0.167-1.716,0.294-2.576,0.313c-4.181,0.091-8.606,6.298-4.55,9.328c-7.813-0.217-15.671-0.865-23.412-0.792
	c-13.004,0.122-26.006,0.462-39.002,0.915c-25.592,0.893-51.166,2.229-76.729,3.741c-23.454,1.387-46.859,2.949-70.343,3.761
	c-11.508,0.398-22.992,0.996-34.44,2.273c-9.02,1.006-19.213,2.024-27.597,6.014c-1.393-0.469-3.731,0.538-4.479,1.579
	c-6.955,9.685-7.844,22.917-8.417,34.458c-0.647,13.032,0.333,26.066,1.315,39.056c1.198,15.849,1.454,31.793,2.516,47.661
	c1.089,16.286,2.593,32.523,4.613,48.72c3.966,31.796,10.554,63.079,17.906,94.242c3.629,15.384,7.34,30.746,11.284,46.053
	c3.138,12.176,7.034,24.29,12.783,35.502c0.942,1.837,1.949,3.639,2.903,5.469c-0.05,0.37-0.07,0.741-0.051,1.115
	c-0.468,0.115-0.932,0.23-1.381,0.351c-5.705,1.535-11.463,2.869-17.226,4.167c-0.532,0.12-1.066,0.233-1.6,0.352
	c0.289-1.941-0.043-4.129-0.601-5.77c-2.647-7.782-6.252-15.255-9.414-22.835c-4.514-10.823-6.887-22.441-9.326-33.877
	c-3.485-16.336-6.36-32.749-8.873-49.258c-4.866-31.98-9.614-63.968-14.688-95.917c-5.079-31.983-7.244-64.363-8.448-96.698
	c-1.738-46.654-0.808-93.602-4.609-140.153c-0.195-2.383-3.651-0.668-3.637,1.166c0.545,65.211-1.425,130.838,3.525,195.913
	c2.452,32.234,7.835,64.156,12.358,96.144c4.583,32.409,9.111,64.712,15.694,96.789c2.48,12.087,5.106,23.8,9.708,35.243
	c1.835,4.564,3.713,9.111,5.483,13.701c0.714,1.852,1.395,3.717,2.016,5.602c0.195,0.593,0.448,1.125,0.721,1.662
	c-0.035,0.17-0.06,0.339-0.072,0.507c-7.861,1.685-15.729,3.336-23.564,5.135c-0.558,0.128-1.114,0.261-1.671,0.391
	c-0.445-2.152-1.443-4.383-1.89-6.175c-1.497-6.008-2.311-12.184-3.071-18.319c-1.43-11.519-2.892-23.02-4.521-34.515
	c-3.128-22.073-6.371-44.13-9.537-66.198c-3.143-21.897-5.972-43.848-8.206-65.857c-2.27-22.346-3.245-44.724-4.472-67.141
	c-0.026-0.485-0.709-0.121-0.727,0.233c-2.207,44.098,2.824,88.77,8.121,132.494c2.607,21.527,5.68,42.998,8.52,64.495
	c1.439,10.894,2.996,21.797,4.025,32.738c0.89,9.46,1.825,19.226,4.214,28.504c-0.283,0.518-0.399,1.089-0.274,1.631
	c-8.097,2.041-16.127,4.349-23.984,7.182c-9.896,3.568-20.745,7.95-27.985,15.839c-2.463,2.684-1.626,5.133,0.397,6.272
	C69.237,562.775,69.305,563.043,69.698,563.085z M443.055,121.596C442.9,121.356,442.835,121.22,443.055,121.596L443.055,121.596z
	 M283.878,130.054c-26.298,1.147-52.57,2.92-78.766,5.511c-12.928,1.278-25.822,2.966-38.681,4.812
	c-6.076,0.872-12.137,1.984-18.162,3.153c-1.235,0.24-2.443,0.532-3.643,0.845c-0.084-23.497-1.338-46.883-2.699-70.343
	c-0.531-9.17-0.688-18.154-0.603-27.325c0.077-8.309-0.967-16.932-4.118-24.6c-1.164-2.832-2.845-4.767-4.859-6.021
	c6.776,2.143,14.349,2.5,21.455,2.686c8.518,0.223,17.034,0.452,25.551,0.683c16.448,0.448,32.922,0.539,49.376,0.701
	c32.952,0.324,65.904,0.493,98.857,0.205c14.014-0.123,28.141,0.129,42.125-0.872c8.858-0.634,17.692-1.544,26.577-1.748
	c7.485-0.171,15.621,0.106,22.512,3.333c6.463,3.027,8.774,9.766,9.067,16.664c0.061,1.406-0.031,2.798-0.144,4.195
	c-0.028,0.332-0.072,0.853-0.086,1.01c-0.081,0.924-0.164,1.847-0.247,2.771c-0.362,4.045-0.729,8.09-1.079,12.137
	c-0.936,10.835-1.773,21.68-2.277,32.545c-0.437,9.408-0.72,18.917,0.127,28.31c0.25,2.778,0.565,6.086,1.396,9.185
	C378.338,127.59,331.048,127.996,283.878,130.054z M175.527,433.03c-3.769-15.48-7.467-30.976-10.808-46.555
	c-6.792-31.677-10.854-63.791-13.888-96.024c-1.52-16.141-2.511-32.312-3.668-48.48c-0.927-12.942-2.691-25.802-3.483-38.767
	c-0.698-11.431,0.541-22.472,1.178-33.761c8.862-0.328,17.993-2.647,26.782-3.396c10.836-0.925,21.738-1.179,32.606-1.432
	c23.435-0.544,46.787-1.777,70.192-3.061c24.879-1.365,49.77-2.598,74.679-3.241c23.813-0.615,47.947-1.43,71.736,0.582
	c-1.032,0.546-1.965,1.59-2.219,2.487c-2.021,7.157-1.005,15.051-0.986,22.444c0.02,7.807,0.201,15.601,0.489,23.402
	c0.597,16.134,2.032,32.256,3.62,48.32c3.186,32.228,8.646,64.084,15.895,95.644c10.686,46.533,23.123,97.156,52.97,135.657
	c-0.191,0.88-0.196,1.787,0.05,2.655c0.118,0.417,0.252,0.795,0.394,1.156c-7.715,1.084-15.414,2.31-23.156,3.13
	c-12.802,1.357-25.596,2.785-38.387,4.236c-26.755,3.034-53.492,6.215-80.247,9.247c-26.022,2.949-52.064,5.627-78.15,7.97
	c-12.706,1.141-25.422,2.169-38.147,3.077c-8.457,0.603-16.979,0.969-25.464,1.594c0.073-1.015-0.035-2.02-0.396-2.961
	c-0.641-1.674-1.888-2.718-3.376-3.25c-0.258-2.464-1.457-4.903-3.045-7.157c-1.729-2.454-4.851-6.103-5.567-7.734
	c-2.992-6.812-5.791-13.56-7.99-20.688C182.569,463.313,179.19,448.082,175.527,433.03z M100.028,551.386
	c10.479-3.381,21.29-5.768,32.079-7.917c11.237-2.238,22.53-4.188,33.781-6.361c5.532-1.068,11.053-2.2,16.547-3.448
	c2.134-0.485,4.357-1.214,6.596-1.884c0.363,0.184,0.78,0.306,1.271,0.331c24.634,1.211,49.814-1.631,74.364-3.516
	c26.607-2.042,53.182-4.6,79.745-7.147c26.665-2.557,53.316-5.259,79.978-7.865c12.76-1.247,25.522-2.461,38.29-3.621
	c1.997-0.181,3.989-0.385,5.979-0.596c-3.225,1.539-6.474,3.032-9.726,4.517c-13.881,6.339-28.698,11.375-42.052,18.801
	c-0.329-0.05-0.692-0.071-1.101-0.049c-0.025,0.001-0.05,0.003-0.075,0.004c-11.277-0.521-22.786,0.209-34.058,0.429
	c-15.039,0.293-30.071,0.886-45.093,1.671c-30.174,1.577-60.271,4.114-90.342,7.039c-29.423,2.862-58.806,6.136-88.189,9.376
	c-14.952,1.648-29.908,3.267-44.862,4.906c-10.388,1.138-21.177,1.623-31.637,3.252C87.551,556.398,93.48,553.498,100.028,551.386z"
	/>
<path d="M107.521,61.662c0.553,0.936,1.49,1.328,2.563,0.935c10.658-3.909,5.712-18.976-0.286-24.727
	c-1.377-1.321-3.15-1.049-4.729-0.252c-4.483,2.26-40.193,26.964-34.209,31.631c0.432,0.336,1.263-0.511,0.868-0.931
	c-0.415-0.442,13.94-11.321,15.138-12.156c5.425-3.784,11.161-7.718,17.263-10.466c1.597,2.406,2.641,5.04,2.989,7.994
	C107.433,56.373,106.057,59.181,107.521,61.662z"/>
<path d="M191.472,55.768c-10.048-0.04-18.001,13.892-17.589,22.801c0.522,11.262,12.684,15.723,22.264,15.532
	c12.835-0.256,23.927-10.75,24.404-23.561C221.06,56.888,201.889,48.633,191.472,55.768z M199.118,80.233
	c-3.943,0.355-9.401-1.046-11.218-4.929c-1.514-3.237-0.726-6.173,1.067-8.583c0.152,0.108,0.3,0.219,0.475,0.316
	c3.095,1.728,6.685,0.753,10.05,1.562c2.51,0.603,4.733,2.793,5.744,5.071C207.253,78.216,202.756,79.906,199.118,80.233z"/>
<path d="M395.606,52.068c-7.572-1.765-20.058,0.467-24.215,7.653c-5.117,3.682-8.872,10.274-9.879,15.611
	c-1.616,8.572,3.797,15.696,11.684,18.267c12.223,3.985,23.832-6.547,29.613-16.143C408.436,68.114,407.878,54.929,395.606,52.068z
	 M370.668,65.326c0.069,0.138,0.133,0.277,0.219,0.413C370.67,65.398,370.621,65.294,370.668,65.326z M390.394,72.299
	c-0.023,0.056-0.046,0.111-0.076,0.187c-0.264,0.665-0.583,1.306-0.907,1.942c-0.061,0.119-0.187,0.336-0.307,0.54
	c-0.315,0.47-0.646,0.93-0.986,1.382c-0.147,0.196-0.311,0.378-0.466,0.567c-0.245,0.26-0.833,0.906-1.057,1.115
	c-0.375,0.348-0.773,0.668-1.172,0.989c-0.04,0.025-0.07,0.044-0.118,0.074c-0.454,0.292-0.932,0.545-1.408,0.797
	c-0.131,0.037-0.322,0.096-0.6,0.189c-0.137,0.046-0.466,0.127-0.725,0.191c-0.515,0.067-1.032,0.108-1.55,0.125
	c1.808-0.059-2.63-0.741-1.541-0.322c-5.735-2.209-6.244-7.138-4.263-11.728c0.393,0.043,0.796,0.063,1.228,0.041
	c4.367-0.231,6.684-1.42,10.688-1.528c-0.388,0.047,1.065,0.202,1.946,0.339c0.203,0.073,0.463,0.167,0.605,0.24
	c0.119,0.06,0.214,0.106,0.297,0.146c0.016,0.016,0.025,0.028,0.045,0.047c0.273,0.262,0.447,0.404,0.555,0.475
	c-0.002,0.111,0.044,0.334,0.201,0.773c0.006,0.015,0.009,0.022,0.014,0.036c0.047,0.377,0.061,0.756,0.061,1.136
	C390.833,69.111,390.583,71.464,390.394,72.299z"/>
<path d="M263.18,468.637c19.779,16.384,50.878,15.126,73.912,7.499c22.35-7.4,45.18-24.844,48.507-49.564
	c1.411-10.481-1.624-21.065-9.174-28.586c-8.043-8.013-21.147-12.487-32.531-13.227c9.155-6.634,17.473-16.072,18.99-27.591
	c1.771-13.454-8.092-23.527-18.767-30.006c-6.111-3.709-13.212-5.895-20.285-6.682c-3.421-0.381-6.962-0.257-10.351,0.3
	c-2.712,0.446-4.779,1.74-7.034,3.006c-0.183-0.176-0.46-0.284-0.863-0.27c-10.339,0.368-19.79,1.57-29.244,6.226
	c-4.569,2.25-8.428,5.178-11.736,9.062c-1.693,1.988-3.01,4.371-4.092,6.733c-1.376,3.001-1.469,6.493-2.877,9.376
	c-2.685,5.497,1.758,9.447,7.128,8.122c1.894-0.467,8.102-0.376,11.526-0.437c4.485-0.08,10.197-0.104,14.042-2.71
	c2.816-1.908,5.411-4.711,5.217-8.382c-0.002-0.033-0.009-0.065-0.011-0.098c0.016-0.03,0.032-0.06,0.048-0.089
	c0.825-1.531,1.19-4.41-0.09-5.928c0.105-0.815,0.261-1.624,0.416-2.43c0.448-2.318,1.486-4.528,2.485-6.651
	c1.596-3.392,4.966-8.132,8.657-9.484c0.111-0.041,0.222-0.1,0.331-0.168c1.779,0.18,3.606,0.586,5.332,0.671
	c1.576,0.077,3.119,0.253,4.657,0.498c2.36,3.03,4.975,5.867,7.146,9.084c3.014,4.464,5.243,9.203,6.651,14.404
	c1.296,4.786,1.162,9.858-0.02,14.639c-1.455,5.891-6.155,9.089-9.727,13.548c-0.626,0.782-1.012,1.558-1.233,2.307
	c-3.36,0.43-6.83,0.516-10.466,0.358c-8.495-0.369-14.028,15.486-3.219,15.025c7.892-0.337,15.225-1.64,22.207-4.243
	c6.794,3.437,12.312,9.875,16.234,16.031c4.003,6.281,7.337,12.355,8.636,19.788c1.162,6.649,0.422,13.281-2.508,19.361
	c-3.104,6.44-10.271,8.48-14.442,13.776c-3.926,1.334-7.966,2.342-12.064,3.042c-3.21-0.617-6.959-0.606-9.16-0.985
	c-5.469-0.943-10.176-2.89-14.662-6.169c-4.631-3.385-7.094-8.55-8.697-13.881c-0.813-2.704-0.77-5.971-0.507-8.755
	c0.203-2.148,1.375-4.841,0.459-6.899c-0.411-0.925-1.294-0.97-2.164-0.79c-0.036,0.007-0.069,0.019-0.105,0.027
	c-0.044-0.088-0.088-0.177-0.132-0.265c-1-2.01-2.925-2.35-4.961-1.81c-5.942,1.575-12.404,1.163-18.523,2.255
	c-3.481-1.971-7.795-0.855-11.046,1.964c-4.054,3.515-4.702,8.841-4.46,13.872C251.092,453.467,255.477,462.256,263.18,468.637z
	 M295.467,345.578c0.007-0.06,0.02-0.12,0.027-0.18C295.979,346.193,295.295,347.009,295.467,345.578z M295.188,345.046
	c0.128,0.106,0.225,0.22,0.297,0.335C295.388,345.267,295.304,345.142,295.188,345.046z M293.508,331.244
	c-2.097,2.61-3.837,5.543-5.428,8.48c-0.81,1.495-1.577,3.026-2.325,4.553c-0.698,1.425-2.932,4.23-0.197,1.549
	c-0.523,0.513-1.006,1.066-1.43,1.647c-1.777,0.158-3.665,0.253-5.847,0.327c-2.729,0.093-5.47,0.167-8.185,0.442
	c0.085-2.589,1.606-6.067,2.49-7.446c2.082-3.245,5.342-5.464,8.717-7.175c4.427-2.243,9.527-3.856,14.626-5.162
	C295.074,329.353,294.266,330.3,293.508,331.244z M330.433,332.124c1.904,0.973,3.755,2.058,5.557,3.22
	c7.397,4.773,15.498,13.274,14.524,22.826c-0.712,6.988-5.943,12.449-11.52,16.342c3.541-7.227,4.354-15.922,2.318-23.514
	C339.617,344.669,335.619,337.682,330.433,332.124z M353.732,401.274c-3.119-3.097-6.579-5.952-10.293-8.352
	c10.105,1.94,20.452,7.322,25.586,16.532c5.937,10.65,3.45,22.336-2.895,31.711c0.971-4.656,1.127-9.498,0.542-14.25
	C365.456,417.043,360.715,408.208,353.732,401.274z M283.194,434.339c-1.535,3.903-2.065,8.563-2.161,11.577
	c-0.181,5.639,2.193,11.577,5.482,16.408c-6.627-2.554-12.575-6.691-16.706-12.575c-1.552-2.209-2.49-5.112-2.893-7.541
	c-0.15-0.909-0.249-1.824-0.327-2.741c1.688-1.546,2.908-3.542,3.144-5.551c1.676-0.062,3.327-0.139,4.877-0.128
	C277.694,433.811,280.498,434.518,283.194,434.339z"/>
<g id="Page-1">
	<path id="day_tuesday" d="M237.533,279.122l26.903-1.642l-0.749-12.27c-0.364-5.967-1.078-10.214-2.14-12.74
		c-0.708-1.673-2.362-3.961-4.962-6.864l-3.422,8.436c2.68,2.562,4.383,4.544,5.107,5.947c1.066,2.021,1.719,5.01,1.961,8.965
		l-23.232,1.418l-5.28,0.322c-1.106,0.068-2.172-0.574-3.196-1.925c-1.242-1.607-2.347-5.375-3.315-11.306
		c-1.129-12.987-1.968-21.213-2.516-24.679c-0.878-5.566-2.094-10.32-3.647-14.263l-5.59,10.133c1.381,1.127,2.49,2.473,3.325,4.037
		c0.683,1.271,1.264,2.926,1.742,4.966c0.478,2.04,0.947,5.048,1.409,9.024c0.461,3.976,0.908,7.852,1.341,11.628
		c0.62,4.639,1.337,8.532,2.151,11.679c0.815,3.147,1.874,5.488,3.179,7.024c1.487,1.76,3.37,2.57,5.65,2.431L237.533,279.122z
		 M324.219,265.048l23.006-1.404c-0.241-3.956-0.895-6.944-1.961-8.965c-0.725-1.403-2.427-3.385-5.107-5.947l3.422-8.436
		c2.6,2.903,4.254,5.191,4.962,6.864c1.063,2.526,1.776,6.773,2.14,12.74l0.215,3.52l16.242-0.991l-8.587-42.277l-2.692-1.098
		c-0.141-2.313-0.073-4.496,0.206-6.549c0.278-2.053,0.762-4.059,1.45-6.019l0.788,0.507c0.119,1.944,1.297,3.336,3.536,4.175
		c1.717,0.568,3.451,1.135,5.202,1.701c0.102,1.676,0.078,3.478-0.074,5.405s-0.383,3.371-0.695,4.333l-2.463-0.657l8.34,39.062
		l0.602,9.856l-23.081,1.409l-26.903,1.642l-0.001-0.013c-2.616,0.003-4.821-1.389-6.614-4.176c-2.27-3.563-3.633-9.082-4.09-16.558
		c-0.033-0.536-0.135-1.254-0.308-2.152c-0.173-0.898-0.266-1.464-0.28-1.699c-2.672,9.147-5.164,15.457-7.475,18.929
		c-2.746,4.071-6.796,6.909-12.149,8.514c-4.561,1.355-12.406,2.372-23.536,3.052l-0.086-1.408
		c8.852-3.266,15.43-6.023,19.735-8.271c6.948-3.587,12.14-7.555,15.576-11.903c4.156-5.234,6.026-11.253,5.611-18.058
		c-0.201-3.285-0.597-6.34-1.19-9.164c-0.593-2.824-1.349-5.705-2.269-8.644l1.402-4.325c0.57-1.684,1.105-3.113,1.606-4.287
		c1.166,4.774,2.306,9.937,3.419,15.488c0.772,3.823,1.544,7.931,2.317,12.325c0.968,5.392,1.789,9.733,2.461,13.023
		c0.861,4.187,1.951,7.149,3.268,8.886c0.878,1.158,1.72,1.712,2.524,1.663L324.219,265.048z M388.964,257.008
		c0.164,2.682-0.164,5.31-0.983,7.883c-0.421,1.372-1.381,3.567-2.879,6.586l-0.936-0.448c0.041-0.978,0.065-2.107,0.071-3.386
		s-0.004-2.136-0.031-2.572c-0.213-3.486-0.787-8.339-1.721-14.557c-0.935-6.218-1.995-12.707-3.182-19.465
		c-0.721-4.095-1.497-8.27-2.329-12.527c0.58-1.516,1.246-3.155,1.996-4.917c0.75-1.762,1.465-3.421,2.144-4.976
		c0.77,3.789,1.768,8.977,2.994,15.565c1.227,6.588,2.237,12.532,3.032,17.834C388.15,248.628,388.758,253.622,388.964,257.008z
		 M337.693,214.156l-3.424,7.578l-8.31-3.833l3.273-7.569L337.693,214.156z M348.145,222.503l-3.48,7.481l-8.41-3.827l3.332-7.421
		L348.145,222.503z M336.856,227.734l-3.377,7.525l-8.404-3.727l3.276-7.519L336.856,227.734z M303.863,248.675
		c0.041,0.67,0.042,1.242,0.004,1.716c-0.038,0.473-0.17,1.07-0.395,1.791c-2.133-4.076-5.18-8.231-9.139-12.464
		c-4.391-4.678-7.759-6.946-10.106-6.803c-0.503,0.031-0.979,0.497-1.429,1.4c-0.45,0.902-1.01,1.374-1.68,1.415
		c-0.905,0.055-2.366-0.444-4.382-1.499c-2.537-1.326-4.603-2.916-6.197-4.77c-2.138-2.494-3.296-5.216-3.476-8.166
		c-0.129-2.112,0.494-3.21,1.868-3.294c2.414-0.147,6.278,1.148,11.594,3.885c5.939,3.036,10.991,6.698,15.156,10.986
		C300.812,238.111,303.54,243.379,303.863,248.675z M250.699,219.466l-3.424,7.578l-8.31-3.833l3.273-7.569L250.699,219.466z
		 M261.151,227.813l-3.48,7.481l-8.41-3.827l3.332-7.421L261.151,227.813z M249.862,233.044l-3.377,7.525l-8.404-3.727l3.276-7.519
		L249.862,233.044z M209.831,268.497l-1.91,8.394c-5.018,1.585-9.121,3.265-12.31,5.042c-3.678,2.042-6.986,4.616-9.926,7.723
		l-1.611-0.76c0.342-1.569,0.841-3.029,1.499-4.382c0.567-1.179,1.242-2.246,2.025-3.202l-6.036-2.963
		c-1.779-1.035-2.71-2.224-2.792-3.565c-0.065-1.073,0.486-3.058,1.655-5.956c1.405-3.451,3.077-6.362,5.019-8.735
		c2.506-3.047,5.117-4.653,7.832-4.819c2.514-0.153,4.637,0.44,6.367,1.782c0.387,0.279,1.298,1.149,2.733,2.609l-2.213,6.747
		c-1.292-0.762-2.06-1.22-2.305-1.374c-2.125-1.183-3.841-1.734-5.148-1.654c-1.609,0.098-3.258,0.653-4.946,1.665
		c-1.688,1.012-2.497,2.087-2.428,3.227c0.084,1.374,1.17,2.637,3.26,3.788c1.635,0.876,4.08,1.787,7.334,2.732
		C200.454,272.266,205.087,270.166,209.831,268.497z"/>
</g>
</svg>
