<?xml version="1.0" encoding="utf-8"?>
<!-- Generator: Adobe Illustrator 17.0.0, SVG Export Plug-In . SVG Version: 6.00 Build 0)  -->
<!DOCTYPE svg PUBLIC "-//W3C//DTD SVG 1.1//EN" "http://www.w3.org/Graphics/SVG/1.1/DTD/svg11.dtd">
<svg version="1.1" id="Layer_1" xmlns="http://www.w3.org/2000/svg" xmlns:xlink="http://www.w3.org/1999/xlink" x="0px" y="0px"
	 width="566.93px" height="566.93px" viewBox="0 0 566.93 566.93" enable-background="new 0 0 566.93 566.93" xml:space="preserve">
<path d="M68.645,53.357c1.949-2.25-0.49-4.763-2.927-3.335c-6.553,3.84-8.801,10.55-10.946,17.42
	c-2.785,8.918-2.787,18.966-2.723,28.226c0.132,18.925,2.617,37.721,3.609,56.601c1.74,33.114-0.813,66.271-1.502,99.378
	c-0.684,32.874,1.797,65.724,2.822,98.572c1.022,32.746,1.524,65.504,1.992,98.261c0.233,16.285,0.504,32.57,0.795,48.854
	c0.151,8.424,0.361,16.847,0.467,25.272c0.072,5.716,0.509,11.624,0.399,17.438c-3.345,2.125-5.631,6.456-3.089,9.675
	c2.092,2.649,3.089,4.459,6.692,5.252c6.516,1.433,12.408-5.821,11.072-11.799c-1.641-7.344-1.059-15.517-1.315-23.024
	c-0.287-8.401-0.451-16.806-0.641-25.209c-0.367-16.253-0.677-32.507-1.057-48.76c-0.764-32.667-1.603-65.333-2.8-97.987
	c-1.202-32.767-3.896-65.525-3.623-98.325c0.276-33.026,2.329-66.034,0.631-99.057c-0.898-17.469-3.266-34.819-4.016-52.299
	c-0.381-8.885-0.513-17.945,0.493-26.794C63.683,65.537,64.376,58.287,68.645,53.357z"/>
<path d="M414.081,540.916c0.751-0.04,1.457-0.302,2.104-0.688l0,0c6.356-1.129,12.213-3.461,18.187-5.908
	c9.424-3.861,18.785-7.875,28.096-12.002c8.565-3.798,17.116-7.702,25.525-11.835c2.273-1.117,4.54-2.275,6.727-3.56
	c2.43-0.155,4.869-0.42,7.426-0.607c5.077-0.371,9.916-4.678,10.977-9.633c0.334-1.558,0.182-3.02-0.334-4.271
	c2.025-2.776,2.605-6.161,0.087-8.943c-34.554-38.183-47.053-90.894-59.3-139.491c-7.73-30.672-13.389-61.905-18.06-93.179
	c-2.268-15.188-3.892-30.44-5.695-45.686c-0.896-7.577-1.708-15.165-2.564-22.746c-0.838-7.421-0.241-16.179-3.271-23.046
	c-0.104-0.235-0.229-0.418-0.363-0.578c0.479,0.045,0.959,0.083,1.438,0.13c4.111,0.406,7.912-2.895,8.023-7.04
	c0.1-3.715-0.294-7.65-1.645-11.129c-0.3-0.774-0.848-1.402-1.517-1.862c0.988-0.007,1.976-0.011,2.964-0.02
	c1.67,0.024,3.194-0.754,4.386-1.907c6.629-1.911,12.527-11.306,6.159-15.398c-0.004-0.005-0.008-0.01-0.012-0.016
	c-0.347-0.743-0.598-1.537-0.832-2.316c-0.663-2.203-0.229-0.611-0.538-2.547c-0.292-1.833-0.461-3.687-0.611-5.536
	c-0.686-8.454-0.509-16.979-0.22-25.447c0.549-16.128,2.023-32.195,3.279-48.278c0.629-8.052-0.708-15.758-5.507-22.404
	c-4.54-6.286-13.121-9.139-20.432-10.411c-17.409-3.029-35.244,1.455-52.646,2.278c-38.879,1.839-77.937,1.726-116.851,2.036
	c-19.186,0.154-38.374,0.288-57.561,0.44c-9.929,0.079-19.854,0.311-29.781,0.524c-9.534,0.204-19.386,0.371-28.617,2.847
	c-1.084,0.291-1.976,1.833-1.236,2.632c-8.425-4.499-22.07,1.928-29.358,6.106c-6.97,3.996-13.495,8.86-19.761,13.871
	c-4.989,3.99-9.76,7.737-12.978,13.28c-1.458,2.512,1.491,3.804,3.453,2.772c4.729-2.487,8.509-5.889,12.749-9.175
	c5.584-4.328,11.433-8.294,17.578-11.783c5.106-2.899,10.768-5.749,16.713-6.19c6.041-0.448,6.585,4.568,6.863,9.402
	c0.449,7.82-0.678,15.774-1.277,23.563c-0.708,9.207-0.424,18.334-0.15,27.563c0.662,22.293,1.861,44.52,1.847,66.828
	c-0.006,8.431,11.637,5.95,15.841-0.085c1.101-0.044,2.203-0.104,3.306-0.209c5.977-0.567,11.967-1.306,17.925-2.046
	c12.813-1.592,25.659-2.818,38.512-4.026c26.159-2.459,52.401-3.99,78.654-4.991c46.99-1.793,93.966-1.077,140.966-1.311
	c-0.857,0.167-1.716,0.294-2.576,0.313c-4.18,0.091-8.606,6.298-4.549,9.328c-7.813-0.217-15.672-0.865-23.413-0.792
	c-13.004,0.122-26.005,0.461-39.001,0.915c-25.592,0.893-51.167,2.23-76.729,3.742c-23.455,1.387-46.86,2.949-70.343,3.761
	c-11.508,0.398-22.992,0.996-34.44,2.273c-9.02,1.006-19.213,2.024-27.597,6.014c-1.392-0.469-3.731,0.538-4.479,1.579
	c-6.956,9.685-7.843,22.917-8.417,34.458c-0.647,13.032,0.333,26.066,1.315,39.056c1.199,15.849,1.455,31.794,2.515,47.661
	c1.089,16.286,2.593,32.523,4.614,48.721c3.966,31.796,10.554,63.079,17.906,94.242c3.629,15.384,7.34,30.747,11.285,46.053
	c3.138,12.176,7.035,24.289,12.783,35.502c0.942,1.837,1.949,3.639,2.903,5.469c-0.05,0.37-0.07,0.742-0.051,1.115
	c-0.467,0.115-0.932,0.23-1.381,0.351c-5.705,1.535-11.463,2.869-17.225,4.167c-0.533,0.12-1.067,0.233-1.6,0.352
	c0.289-1.941-0.042-4.129-0.601-5.77c-2.647-7.782-6.251-15.255-9.414-22.835c-4.514-10.823-6.887-22.441-9.326-33.877
	c-3.485-16.336-6.361-32.749-8.873-49.258c-4.867-31.981-9.614-63.969-14.688-95.917c-5.08-31.983-7.244-64.363-8.449-96.698
	c-1.738-46.654-0.808-93.602-4.61-140.153c-0.195-2.383-3.651-0.668-3.636,1.166c0.544,65.211-1.426,130.838,3.525,195.913
	c2.452,32.234,7.835,64.157,12.358,96.145c4.583,32.409,9.112,64.712,15.694,96.789c2.48,12.087,5.106,23.8,9.708,35.243
	c1.835,4.564,3.713,9.111,5.483,13.701c0.714,1.852,1.394,3.717,2.016,5.602c0.196,0.593,0.448,1.125,0.721,1.662
	c-0.035,0.17-0.06,0.339-0.073,0.507c-7.86,1.685-15.728,3.336-23.564,5.135c-0.558,0.128-1.114,0.261-1.671,0.391
	c-0.445-2.152-1.443-4.383-1.89-6.175c-1.498-6.008-2.31-12.184-3.072-18.319c-1.43-11.519-2.891-23.02-4.52-34.515
	c-3.128-22.073-6.371-44.13-9.538-66.198c-3.142-21.897-5.971-43.848-8.206-65.857c-2.269-22.347-3.245-44.725-4.471-67.141
	c-0.027-0.485-0.709-0.12-0.727,0.233c-2.207,44.098,2.824,88.77,8.121,132.495c2.608,21.527,5.679,42.998,8.52,64.495
	c1.439,10.894,2.996,21.797,4.025,32.738c0.89,9.46,1.825,19.226,4.214,28.504c-0.283,0.518-0.399,1.089-0.274,1.631
	c-8.097,2.041-16.127,4.349-23.984,7.182c-9.896,3.568-20.745,7.95-27.985,15.839c-2.463,2.684-1.626,5.133,0.397,6.272
	c-0.082,0.29-0.014,0.558,0.379,0.6c13.286,1.424,27.291-1.115,40.547-2.293c14.91-1.325,29.808-2.779,44.708-4.215
	c29.287-2.821,58.576-5.632,87.897-8.078c29.336-2.447,58.722-4.485,88.129-5.848c14.997-0.695,30.005-1.163,45.016-1.403
	C388.745,540.658,401.52,541.58,414.081,540.916z M443.215,121.206C443.06,120.966,442.996,120.83,443.215,121.206L443.215,121.206z
	 M284.039,129.664c-26.297,1.147-52.57,2.92-78.766,5.51c-12.928,1.278-25.823,2.966-38.681,4.811
	c-6.076,0.872-12.137,1.983-18.163,3.153c-1.235,0.24-2.443,0.532-3.642,0.845c-0.084-23.497-1.338-46.883-2.699-70.343
	c-0.532-9.169-0.688-18.154-0.604-27.325c0.077-8.309-0.966-16.932-4.118-24.6c-1.164-2.832-2.845-4.766-4.858-6.021
	c6.776,2.143,14.349,2.5,21.455,2.686c8.517,0.222,17.033,0.452,25.55,0.683c16.449,0.448,32.922,0.539,49.376,0.701
	c32.952,0.324,65.904,0.493,98.857,0.205c14.014-0.123,28.141,0.129,42.125-0.872c8.858-0.634,17.693-1.544,26.577-1.748
	c7.485-0.171,15.621,0.105,22.512,3.333c6.462,3.027,8.774,9.766,9.067,16.664c0.06,1.403-0.031,2.792-0.143,4.185
	c-0.028,0.331-0.073,0.862-0.087,1.02c-0.081,0.924-0.164,1.847-0.247,2.771c-0.363,4.045-0.73,8.09-1.08,12.137
	c-0.936,10.835-1.774,21.68-2.278,32.545c-0.436,9.408-0.719,18.917,0.127,28.31c0.25,2.778,0.565,6.086,1.396,9.185
	C378.499,127.2,331.208,127.606,284.039,129.664z M175.687,432.641c-3.768-15.48-7.466-30.976-10.807-46.555
	c-6.792-31.677-10.855-63.791-13.889-96.024c-1.519-16.141-2.51-32.312-3.667-48.48c-0.927-12.943-2.691-25.802-3.483-38.767
	c-0.699-11.431,0.541-22.472,1.177-33.76c8.863-0.328,17.993-2.647,26.783-3.397c10.835-0.924,21.737-1.179,32.605-1.431
	c23.436-0.544,46.788-1.777,70.193-3.061c24.878-1.365,49.769-2.598,74.678-3.241c23.814-0.615,47.947-1.43,71.736,0.582
	c-1.032,0.546-1.964,1.59-2.218,2.487c-2.021,7.157-1.005,15.051-0.986,22.444c0.02,7.807,0.201,15.601,0.489,23.402
	c0.597,16.134,2.032,32.256,3.62,48.32c3.186,32.229,8.647,64.085,15.895,95.645c10.686,46.533,23.124,97.156,52.971,135.657
	c-0.192,0.88-0.196,1.787,0.049,2.655c0.118,0.417,0.252,0.795,0.394,1.156c-7.715,1.084-15.415,2.309-23.156,3.13
	c-12.802,1.357-25.596,2.785-38.387,4.236c-26.754,3.034-53.492,6.215-80.247,9.247c-26.023,2.949-52.065,5.627-78.15,7.97
	c-12.707,1.141-25.422,2.169-38.147,3.077c-8.458,0.603-16.98,0.969-25.465,1.594c0.073-1.015-0.035-2.02-0.396-2.961
	c-0.642-1.674-1.889-2.718-3.376-3.25c-0.258-2.464-1.457-4.903-3.044-7.157c-1.729-2.454-4.85-6.103-5.567-7.734
	c-2.992-6.812-5.792-13.559-7.992-20.688C182.729,462.924,179.35,447.693,175.687,432.641z M336.714,534.345
	c-30.174,1.577-60.271,4.114-90.341,7.039c-29.424,2.862-58.806,6.136-88.19,9.376c-14.953,1.648-29.908,3.267-44.862,4.906
	c-10.388,1.138-21.177,1.623-31.637,3.252c6.027-2.91,11.956-5.81,18.503-7.922c10.479-3.381,21.29-5.768,32.079-7.917
	c11.238-2.238,22.531-4.188,33.781-6.36c5.532-1.069,11.053-2.2,16.547-3.448c2.134-0.485,4.357-1.214,6.596-1.884
	c0.363,0.184,0.78,0.306,1.271,0.33c24.634,1.212,49.814-1.631,74.364-3.515c26.608-2.042,53.181-4.6,79.745-7.147
	c26.666-2.557,53.317-5.259,79.978-7.865c12.76-1.247,25.522-2.461,38.29-3.621c1.997-0.181,3.989-0.385,5.98-0.596
	c-3.226,1.539-6.474,3.032-9.726,4.517c-13.88,6.339-28.698,11.375-42.052,18.801c-0.329-0.05-0.693-0.071-1.101-0.049
	c-0.025,0.001-0.049,0.003-0.074,0.004c-11.278-0.521-22.787,0.209-34.058,0.428C366.768,532.967,351.736,533.56,336.714,534.345z"
	/>
<path d="M191.633,55.378c-10.049-0.04-18.001,13.892-17.589,22.801c0.521,11.262,12.683,15.723,22.263,15.532
	c12.836-0.256,23.927-10.75,24.405-23.561C221.22,56.498,202.049,48.243,191.633,55.378z M199.278,79.843
	c-3.943,0.355-9.402-1.046-11.218-4.929c-1.514-3.237-0.726-6.173,1.067-8.583c0.152,0.108,0.3,0.219,0.475,0.316
	c3.095,1.728,6.685,0.754,10.05,1.562c2.51,0.603,4.733,2.793,5.744,5.071C207.414,77.826,202.917,79.516,199.278,79.843z"/>
<path d="M395.766,51.678c-7.572-1.765-20.058,0.466-24.215,7.652c-5.117,3.682-8.873,10.274-9.879,15.611
	c-1.617,8.572,3.797,15.696,11.684,18.267c12.223,3.985,23.832-6.547,29.613-16.143C408.597,67.724,408.039,54.539,395.766,51.678z
	 M370.829,64.936c0.069,0.138,0.133,0.277,0.219,0.413C370.831,65.008,370.781,64.904,370.829,64.936z M390.554,71.909
	c-0.023,0.057-0.046,0.111-0.076,0.187c-0.264,0.664-0.583,1.305-0.908,1.942c-0.061,0.119-0.187,0.337-0.307,0.541
	c-0.316,0.47-0.646,0.93-0.986,1.382c-0.147,0.196-0.311,0.378-0.466,0.567c-0.245,0.26-0.833,0.906-1.057,1.115
	c-0.375,0.348-0.773,0.668-1.172,0.989c-0.04,0.025-0.07,0.044-0.118,0.075c-0.454,0.292-0.931,0.545-1.409,0.797
	c-0.13,0.037-0.322,0.096-0.599,0.189c-0.137,0.046-0.466,0.127-0.725,0.191c-0.514,0.067-1.032,0.108-1.55,0.125
	c1.809-0.059-2.629-0.741-1.541-0.322c-5.735-2.209-6.244-7.138-4.263-11.728c0.392,0.043,0.796,0.063,1.228,0.041
	c4.367-0.231,6.684-1.42,10.687-1.528c-0.386,0.047,1.067,0.202,1.947,0.339c0.204,0.073,0.463,0.167,0.606,0.24
	c0.118,0.06,0.213,0.106,0.296,0.146c0.016,0.016,0.026,0.028,0.045,0.047c0.273,0.263,0.446,0.404,0.555,0.475
	c-0.002,0.111,0.043,0.334,0.201,0.773c0.005,0.015,0.008,0.022,0.013,0.036c0.047,0.377,0.061,0.756,0.061,1.136
	C390.993,68.721,390.743,71.074,390.554,71.909z"/>
<path d="M311.409,476.191c18.669,3.639,39.972,1.668,57.347-6.121c19.662-8.814,31.307-30.142,21.904-50.979
	c-10.538-23.35-41.615-31.353-64.378-23.609c-5.691,1.936-26.486,14.631-32.762,25.247c-1.192-6.819-1.883-13.797-2.128-20.998
	c-0.505-14.792-0.579-31.578,5.328-45.526c8.924-5.167,18.823-7.613,29.104-8.573c1.614-0.151,3.411-0.276,5.297-0.33
	c3.327,7.554,0.906,18.4,0.384,25.793c-0.26,3.686,4.477,3.561,6.626,2.418c5.653-3.005,11.957-3.608,18.265-3.495
	c3.73,0.067,6.771-3.919,6.889-7.321c0.128-3.728,0.703-7.656-1.054-11.094c-0.614-1.202-1.64-1.958-2.819-2.236
	c-5.7-15.062-28.861-14.052-41.912-12.314c-20.57,2.74-39.59,15.169-50.592,32.699c-11.99,19.104-17.166,45.429-7.365,66.414
	C268.788,455.965,290.035,472.025,311.409,476.191z M353.214,352.021c-1.597,2.065-1.834,4.842-1.724,7.736
	c-3.436,0.54-6.81,1.386-10.053,2.614c-0.21-5.145-0.653-11.716-2.458-16.777C344.599,346.242,350.011,348.014,353.214,352.021z
	 M376.552,428.635c2.182,4.813,2.52,9.959,1.472,15.089c-0.772,3.786-2.562,6.538-4.58,8.438c-3.521,3.314-8.102,5.705-13.209,7.389
	c0.896-2.056,1.568-4.144,2.053-5.893c1.809-6.525,1.563-14.005,0.313-20.596c-1.321-6.972-3.402-15.914-7.418-23.085
	C364.348,413.026,372.584,419.884,376.552,428.635z M306.477,425.591c-0.644,1.156-1.245,1.529-0.204,0.211
	c0.042-0.053,0.125-0.148,0.223-0.259c0.547-1.33,0.791-2.719,0.608-4.039c0.062,0.102,0.124,0.204,0.186,0.305
	c0.222,1.372-0.244,2.7-0.726,3.617c-0.01,0.01-0.017,0.018-0.027,0.029c0.008-0.009,0.018-0.017,0.026-0.026
	c-0.016,0.031-0.032,0.064-0.048,0.094c0.138-0.155,0.3-0.333,0.425-0.471c1.179-1.211,2.409-2.375,3.645-3.526
	c3.354-3.122,6.868-6.087,10.521-8.855c0.114-0.087,0.204-0.155,0.291-0.222c0.106-0.064,0.286-0.18,0.594-0.385
	c0.543-0.362,1.108-0.684,1.68-0.997c2.561-1.397,5.41-2.215,8.218-2.939c4.656-1.201,9.739-0.935,14.601-0.149
	c3.014,8.287,5.935,16.547,6.839,25.468c0.603,5.95,0.763,12.026-0.378,17.915c-0.447,2.309-1.226,4.422-2.344,6.485
	c-0.961,1.773-2.331,2.892-3.307,4.486c-8.05,0.989-16.31,0.865-23.202,0.25c-6.235-0.557-12.446-2.177-18.35-4.663
	c-0.033-0.548-0.161-1.096-0.404-1.633c-0.12-0.265-0.242-0.513-0.368-0.748c-3.852-7.677-6.792-15.435-8.934-23.376
	C299.943,433.378,304.721,429.802,306.477,425.591z M287.928,360.586c-5.675,10.764-5.824,25.804-6.199,36.859
	c-0.544,16.051,0.586,32.993,5.268,48.665c-5.703-5.052-10.51-11.034-13.932-17.651C261.724,406.525,269.87,376.871,287.928,360.586
	z"/>
<path d="M306.496,425.543c-0.006,0.016-0.012,0.032-0.019,0.048c0.013-0.022,0.024-0.045,0.037-0.068
	C306.508,425.53,306.501,425.537,306.496,425.543z"/>
<g>
	<path fill-rule="evenodd" clip-rule="evenodd" d="M373.246,183.104c-0.934,2.257-1.587,4.509-1.959,6.895
		c-0.371,2.386-0.6,4.909-0.546,7.566l3.105,1.336l7.856,49.366l-18.739,0.38l-3.496,0.071c-1.687-0.385-4.948-2.558-9.648-6.66
		c-6.124-5.332-10.676-9.017-13.372-10.921c-5.531-3.665-10.185-5.529-14.101-5.45c-4.056,0.082-7.386,1.409-9.992,3.98
		c-1.784,1.715-3.274,4.124-4.336,6.943c2.092-0.322,4.047-0.502,6.005-0.541c3.216-0.065,6.444,0.429,9.683,1.482
		c2.817,0.922,5.925,2.398,9.323,4.428c2.694,1.764,6.098,4.073,10.216,7.068l-43.492,0.882c-0.057-2.797-1.249-6.41-3.435-10.703
		c-1.746-3.322-3.918-6.916-6.657-10.917c-2.646,0.613-5.411,2.208-8.443,4.508c-3.445,2.588-6.322,5.584-8.632,8.989
		c-1.627,2.551-3.542,4.689-5.612,6.13c-2.763,1.735-5.959,2.779-9.456,2.85l-4.895,0.099l-4.056,0.082l-4.475,0.091
		c-1.259,0.026-2.805-0.363-4.495-0.888c-1.829-0.522-2.965-1.339-3.684-2.304c2.752-2.294,4.673-4.152,5.763-5.573
		c1.362-1.846,2.027-3.539,1.993-5.217c-0.062-3.077-1.929-5.417-5.596-6.882c-2.82-1.062-6.327-1.551-10.662-1.463
		c-5.174,0.105-8.656,0.875-10.726,2.316c-2.206,1.584-3.266,4.543-3.178,8.878l0.071,3.496l1.119-0.023
		c0.679-0.993,1.23-1.424,1.784-1.715c0.554-0.291,1.25-0.445,1.949-0.459c1.538-0.031,2.951,0.64,4.241,2.152l2.44,3.028
		c-3.04,1.88-6.091,3.201-9.29,4.106c-2.783,0.756-5.851,1.238-9.067,1.303l-1.119,0.023l-4.056,0.082l-4.335,0.088
		c-1.259,0.026-2.56-2.047-3.761-6.08c-0.893-2.64-1.814-6.679-2.904-12.113l-2.022-10.032c-0.608-2.366-1.075-4.735-1.54-6.964
		c-0.465-2.229-0.933-4.598-1.261-6.97c-1.23,1.424-2.181,2.842-2.855,4.115c-0.945,1.698-1.333,3.245-1.308,4.503
		c0.006,0.28,0.163,1.116,0.471,2.509c0.305,1.253,0.462,2.089,0.468,2.369c-6.371,3.207-11.754,6.814-16.007,10.957
		c-4.253,4.144-6.414,7.965-6.349,11.181c0.02,0.979,1.575,1.787,4.523,2.287c2.948,0.5,6.73,0.703,11.205,0.612
		c1.958-0.04,3.764-0.636,5.557-1.931c1.795-1.156,3.16-2.862,4.373-5.125c1.092,5.574,2.445,10.163,4.057,13.768
		c2.334,4.709,4.76,7.039,7.556,6.982l4.335-0.088l4.056-0.082l1.119-0.023c5.174-0.105,9.912-1.04,13.936-2.661
		c3.331-1.327,6.231-3.204,8.7-5.633c1.452,2.629,3.869,4.538,6.974,5.874c2.543,1.208,5.211,1.713,7.728,1.662l4.475-0.091
		l4.056-0.082l5.034-0.102c4.475-0.091,7.96-0.721,10.317-1.748c2.355-1.167,4.553-3.17,6.736-5.873
		c2.985,2.318,6.238,4.071,10.042,5.393c3.379,1.051,6.327,1.551,8.844,1.5l2.098-0.043l4.056-0.082l59.155-1.199l4.056-0.082
		l24.613-0.499l-0.23-11.328l-7.78-45.591l2.817,0.922c0.397-1.127,0.782-2.814,1.017-5.057c0.234-2.243,0.471-4.347,0.435-6.165
		c-2.115-0.797-4.09-1.596-6.062-2.255c-2.54-1.068-3.833-2.72-3.878-4.958L373.246,183.104L373.246,183.104z M179.997,187.861
		l-4.305,8.482l9.749,4.699l4.165-8.479L179.997,187.861L179.997,187.861z M400.462,186.749c-0.945,1.698-1.747,3.533-2.823,5.653
		c-0.939,1.978-1.741,3.813-2.407,5.505c0.661,5.023,1.46,9.904,2.116,14.647c0.998,7.814,1.85,15.352,2.697,22.61
		c0.847,7.258,1.24,12.846,1.322,16.901c0.011,0.559,0.031,1.538-0.08,2.94c-0.109,1.541-0.223,2.802-0.2,3.921l0.99,0.54
		c1.89-3.396,3.1-5.799,3.628-7.349c1.059-2.959,1.556-6.047,1.494-9.124c-0.079-3.916-0.478-9.784-1.333-17.461
		c-0.684-6.142-1.662-12.977-2.657-20.652C402.073,197.209,401.109,191.073,400.462,186.749L400.462,186.749z M166.819,193.445
		l-4.305,8.481l9.609,4.702l4.308-8.342L166.819,193.445L166.819,193.445z M183.65,230.038l1.246,6.27
		c-2.049,2.42-4.122,3.721-6.499,3.769c-1.958,0.04-3.359-0.072-4.481-0.189s-2.106-0.377-2.954-0.779
		c1.356-2.126,2.86-3.835,4.793-5.134C177.685,232.537,180.317,231.225,183.65,230.038L183.65,230.038z M286.889,236.479
		c1.438,1.929,2.736,3.862,3.612,5.663c1.161,2.075,1.906,4.298,2.511,6.525l-0.542,0.85c-2.243-0.234-4.638-1.025-7.317-2.09
		c-2.543-1.208-4.529-2.566-5.956-3.936c1.219-1.983,2.169-3.402,2.992-4.258C283.422,237.948,284.943,237.078,286.889,236.479
		L286.889,236.479z M324.167,267.201l-4.162,8.618l9.469,4.705l4.442-8.624L324.167,267.201L324.167,267.201z"/>
</g>
</svg>
