<?xml version="1.0" encoding="utf-8"?>
<!-- Generator: Adobe Illustrator 17.0.0, SVG Export Plug-In . SVG Version: 6.00 Build 0)  -->
<!DOCTYPE svg PUBLIC "-//W3C//DTD SVG 1.1//EN" "http://www.w3.org/Graphics/SVG/1.1/DTD/svg11.dtd">
<svg version="1.1" id="Layer_1" xmlns="http://www.w3.org/2000/svg" xmlns:xlink="http://www.w3.org/1999/xlink" x="0px" y="0px"
	 width="566.93px" height="566.93px" viewBox="0 0 566.93 566.93" enable-background="new 0 0 566.93 566.93" xml:space="preserve">
<path d="M73.373,51.949c4.729-2.487,8.509-5.889,12.749-9.175c5.584-4.328,11.433-8.294,17.578-11.783
	c5.106-2.899,10.768-5.749,16.713-6.191c6.041-0.448,6.585,4.568,6.863,9.402c0.449,7.82-0.678,15.774-1.277,23.563
	c-0.708,9.207-0.424,18.334-0.15,27.563c0.662,22.293,1.861,44.52,1.847,66.828c-0.006,8.431,11.637,5.95,15.841-0.085
	c1.101-0.044,2.203-0.105,3.306-0.209c5.977-0.567,11.967-1.306,17.925-2.046c12.813-1.592,25.66-2.818,38.513-4.026
	c26.159-2.459,52.401-3.989,78.654-4.991c46.99-1.793,93.966-1.077,140.966-1.311c-0.857,0.166-1.716,0.294-2.576,0.313
	c-4.181,0.091-8.606,6.298-4.549,9.328c-7.813-0.217-15.672-0.864-23.413-0.792c-13.004,0.122-26.005,0.462-39.001,0.915
	c-25.592,0.893-51.166,2.23-76.728,3.741c-23.455,1.387-46.86,2.949-70.344,3.761c-11.508,0.398-22.992,0.996-34.44,2.273
	c-9.02,1.006-19.213,2.023-27.597,6.014c-1.392-0.47-3.731,0.538-4.479,1.579c-6.956,9.685-7.844,22.917-8.417,34.458
	c-0.647,13.032,0.333,26.066,1.315,39.056c1.199,15.849,1.455,31.794,2.515,47.661c1.089,16.286,2.593,32.523,4.614,48.721
	c3.966,31.796,10.554,63.079,17.906,94.242c3.629,15.384,7.34,30.746,11.285,46.053c3.138,12.176,7.034,24.29,12.783,35.502
	c0.942,1.837,1.949,3.639,2.903,5.469c-0.049,0.37-0.07,0.741-0.051,1.114c-0.467,0.115-0.932,0.23-1.381,0.351
	c-5.705,1.535-11.463,2.869-17.225,4.167c-0.533,0.12-1.067,0.233-1.6,0.352c0.289-1.941-0.042-4.129-0.601-5.771
	c-2.647-7.782-6.251-15.255-9.414-22.835c-4.514-10.823-6.887-22.441-9.326-33.877c-3.485-16.336-6.361-32.749-8.873-49.258
	c-4.867-31.981-9.614-63.969-14.688-95.918c-5.079-31.983-7.244-64.363-8.448-96.698c-1.738-46.654-0.808-93.601-4.61-140.153
	c-0.194-2.383-3.651-0.668-3.636,1.166c0.544,65.211-1.425,130.838,3.525,195.913c2.452,32.234,7.835,64.157,12.358,96.145
	c4.583,32.409,9.111,64.712,15.694,96.789c2.48,12.087,5.106,23.799,9.708,35.243c1.835,4.564,3.713,9.111,5.483,13.701
	c0.714,1.852,1.394,3.717,2.016,5.602c0.196,0.593,0.449,1.125,0.721,1.662c-0.035,0.17-0.06,0.339-0.073,0.507
	c-7.86,1.685-15.728,3.336-23.564,5.135c-0.557,0.128-1.114,0.261-1.671,0.391c-0.445-2.152-1.443-4.383-1.89-6.175
	c-1.498-6.008-2.31-12.183-3.072-18.319c-1.43-11.519-2.891-23.02-4.52-34.515c-3.128-22.073-6.371-44.13-9.538-66.198
	c-3.142-21.897-5.971-43.848-8.206-65.857c-2.269-22.347-3.245-44.725-4.471-67.141c-0.027-0.485-0.709-0.121-0.728,0.233
	c-2.207,44.098,2.825,88.77,8.122,132.495c2.608,21.527,5.679,42.998,8.52,64.495c1.439,10.894,2.996,21.797,4.025,32.738
	c0.89,9.46,1.825,19.226,4.214,28.504c-0.283,0.518-0.399,1.089-0.274,1.631c-8.097,2.041-16.127,4.349-23.984,7.183
	c-9.896,3.568-20.745,7.95-27.985,15.839c-2.463,2.684-1.626,5.133,0.397,6.272c-0.082,0.29-0.014,0.558,0.379,0.6
	c13.286,1.424,27.291-1.114,40.547-2.293c14.91-1.325,29.808-2.78,44.707-4.215c29.288-2.821,58.576-5.632,87.897-8.078
	c29.336-2.447,58.722-4.485,88.129-5.848c14.997-0.695,30.005-1.163,45.016-1.403c12.59-0.201,25.365,0.721,37.926,0.057
	c0.75-0.04,1.457-0.302,2.104-0.688l0,0c6.355-1.129,12.213-3.461,18.187-5.908c9.424-3.861,18.785-7.875,28.096-12.002
	c8.565-3.798,17.116-7.702,25.525-11.835c2.273-1.117,4.54-2.275,6.727-3.56c2.43-0.155,4.869-0.42,7.426-0.607
	c5.077-0.371,9.916-4.678,10.977-9.633c0.334-1.558,0.182-3.02-0.334-4.271c2.025-2.776,2.605-6.161,0.087-8.943
	c-34.554-38.183-47.053-90.894-59.3-139.491c-7.73-30.672-13.389-61.905-18.06-93.179c-2.268-15.188-3.892-30.44-5.695-45.686
	c-0.896-7.577-1.708-15.165-2.564-22.746c-0.838-7.421-0.24-16.179-3.271-23.046c-0.104-0.235-0.229-0.418-0.363-0.578
	c0.479,0.045,0.959,0.083,1.438,0.13c4.11,0.406,7.912-2.894,8.022-7.04c0.1-3.715-0.294-7.65-1.645-11.129
	c-0.301-0.774-0.848-1.402-1.517-1.862c0.988-0.007,1.976-0.012,2.964-0.02c1.67,0.024,3.194-0.754,4.386-1.907
	c6.629-1.911,12.527-11.307,6.159-15.398c-0.004-0.005-0.008-0.01-0.012-0.016c-0.347-0.743-0.598-1.537-0.832-2.316
	c-0.663-2.203-0.229-0.611-0.538-2.547c-0.292-1.834-0.461-3.686-0.611-5.536c-0.686-8.454-0.509-16.979-0.22-25.447
	c0.549-16.128,2.023-32.195,3.279-48.278c0.629-8.052-0.707-15.758-5.507-22.404C434.6,9.286,426.02,6.433,418.709,5.161
	c-17.409-3.029-35.244,1.455-52.646,2.278c-38.879,1.839-77.937,1.725-116.851,2.036c-19.188,0.153-38.375,0.287-57.563,0.439
	c-9.929,0.079-19.854,0.311-29.781,0.524c-9.534,0.204-19.386,0.371-28.617,2.847c-1.084,0.291-1.976,1.833-1.236,2.632
	c-8.425-4.499-22.07,1.928-29.358,6.106c-6.97,3.996-13.495,8.86-19.761,13.871c-4.99,3.99-9.761,7.737-12.978,13.28
	C68.462,51.689,71.411,52.981,73.373,51.949z M459.245,514.091c-13.88,6.339-28.698,11.375-42.052,18.801
	c-0.329-0.05-0.693-0.071-1.101-0.049c-0.025,0.001-0.049,0.003-0.074,0.004c-11.278-0.521-22.787,0.209-34.058,0.429
	c-15.04,0.293-30.072,0.886-45.093,1.671c-30.174,1.577-60.271,4.114-90.341,7.039c-29.424,2.862-58.806,6.136-88.19,9.376
	c-14.953,1.649-29.908,3.267-44.862,4.906c-10.388,1.138-21.177,1.623-31.637,3.252c6.027-2.91,11.956-5.81,18.503-7.922
	c10.479-3.381,21.29-5.768,32.079-7.917c11.238-2.238,22.531-4.188,33.782-6.36c5.532-1.068,11.053-2.2,16.547-3.448
	c2.134-0.485,4.357-1.214,6.596-1.884c0.363,0.184,0.78,0.306,1.271,0.33c24.634,1.211,49.814-1.631,74.364-3.516
	c26.608-2.042,53.181-4.6,79.745-7.147c26.666-2.557,53.317-5.259,79.978-7.865c12.76-1.247,25.522-2.461,38.29-3.621
	c1.997-0.181,3.989-0.385,5.98-0.596C465.745,511.112,462.497,512.605,459.245,514.091z M417.962,184.038
	c0.02,7.807,0.201,15.601,0.489,23.402c0.597,16.134,2.032,32.257,3.62,48.32c3.186,32.228,8.647,64.085,15.895,95.644
	c10.686,46.534,23.123,97.156,52.971,135.658c-0.192,0.88-0.196,1.787,0.049,2.655c0.118,0.417,0.252,0.795,0.394,1.156
	c-7.715,1.084-15.415,2.309-23.156,3.13c-12.802,1.357-25.596,2.785-38.387,4.236c-26.754,3.034-53.492,6.215-80.247,9.247
	c-26.023,2.949-52.065,5.627-78.15,7.97c-12.707,1.141-25.422,2.169-38.147,3.077c-8.458,0.603-16.98,0.97-25.465,1.594
	c0.073-1.015-0.035-2.02-0.396-2.961c-0.642-1.674-1.889-2.718-3.377-3.25c-0.257-2.464-1.457-4.904-3.044-7.157
	c-1.729-2.454-4.851-6.103-5.567-7.734c-2.993-6.812-5.792-13.56-7.991-20.688c-4.57-14.81-7.949-30.041-11.612-45.093
	c-3.768-15.48-7.466-30.976-10.807-46.555c-6.792-31.677-10.855-63.791-13.889-96.024c-1.519-16.141-2.51-32.312-3.668-48.48
	c-0.927-12.943-2.691-25.802-3.483-38.767c-0.699-11.431,0.541-22.472,1.178-33.761c8.862-0.328,17.993-2.647,26.783-3.397
	c10.836-0.924,21.738-1.179,32.606-1.431c23.435-0.544,46.788-1.777,70.193-3.061c24.878-1.365,49.769-2.598,74.678-3.241
	c23.814-0.615,47.947-1.43,71.736,0.582c-1.032,0.546-1.964,1.59-2.218,2.487C416.927,168.751,417.943,176.645,417.962,184.038z
	 M443.367,121.806C443.212,121.566,443.148,121.431,443.367,121.806L443.367,121.806z M154.116,18.981
	c8.517,0.223,17.033,0.452,25.55,0.683c16.449,0.447,32.922,0.539,49.376,0.701c32.952,0.324,65.904,0.493,98.857,0.205
	c14.014-0.123,28.141,0.129,42.125-0.872c8.858-0.634,17.693-1.545,26.577-1.748c7.485-0.171,15.621,0.105,22.512,3.333
	c6.463,3.027,8.774,9.766,9.067,16.664c0.06,1.406-0.032,2.798-0.144,4.195c-0.028,0.332-0.072,0.853-0.086,1.01
	c-0.081,0.924-0.164,1.847-0.247,2.771c-0.363,4.045-0.73,8.09-1.08,12.137c-0.936,10.835-1.774,21.68-2.278,32.545
	c-0.436,9.408-0.719,18.916,0.127,28.31c0.25,2.778,0.565,6.086,1.396,9.185c-47.22-0.299-94.511,0.107-141.68,2.165
	c-26.297,1.147-52.57,2.92-78.766,5.51c-12.928,1.278-25.823,2.966-38.681,4.811c-6.076,0.872-12.137,1.984-18.162,3.152
	c-1.235,0.24-2.443,0.532-3.642,0.845c-0.084-23.497-1.338-46.883-2.7-70.343c-0.532-9.17-0.688-18.154-0.603-27.325
	c0.077-8.309-0.966-16.932-4.118-24.6c-1.164-2.832-2.845-4.766-4.858-6.021C139.437,18.438,147.01,18.795,154.116,18.981z"/>
<path d="M55.811,152.87c1.739,33.114-0.813,66.271-1.502,99.378c-0.684,32.874,1.796,65.724,2.822,98.572
	c1.022,32.745,1.524,65.504,1.992,98.261c0.233,16.285,0.504,32.57,0.795,48.855c0.151,8.424,0.361,16.847,0.467,25.272
	c0.072,5.716,0.509,11.624,0.399,17.438c-3.345,2.126-5.632,6.456-3.089,9.675c2.092,2.649,3.089,4.459,6.692,5.252
	c6.516,1.433,12.408-5.82,11.072-11.799c-1.641-7.344-1.059-15.517-1.315-23.024c-0.287-8.401-0.451-16.806-0.641-25.209
	c-0.367-16.253-0.677-32.507-1.057-48.76c-0.764-32.667-1.603-65.333-2.8-97.987c-1.202-32.767-3.896-65.525-3.623-98.325
	c0.275-33.026,2.328-66.034,0.631-99.057c-0.898-17.469-3.266-34.818-4.015-52.299c-0.381-8.886-0.513-17.945,0.493-26.794
	c0.702-6.181,1.396-13.431,5.665-18.36c1.948-2.25-0.49-4.763-2.927-3.335c-6.553,3.84-8.801,10.55-10.946,17.42
	c-2.785,8.918-2.787,18.966-2.722,28.226C52.333,115.194,54.819,133.99,55.811,152.87z"/>
<path d="M87.176,56.372c5.425-3.784,11.162-7.718,17.264-10.466c1.596,2.406,2.64,5.04,2.989,7.995
	c0.317,2.682-1.059,5.49,0.405,7.971c0.552,0.936,1.49,1.328,2.563,0.935c10.658-3.909,5.711-18.976-0.286-24.726
	c-1.378-1.321-3.15-1.049-4.73-0.253c-4.483,2.261-40.193,26.964-34.209,31.631c0.432,0.337,1.263-0.511,0.868-0.931
	C71.624,68.086,85.979,57.207,87.176,56.372z"/>
<path d="M196.459,94.311c12.836-0.256,23.927-10.751,24.405-23.561c0.508-13.651-18.662-21.906-29.079-14.771
	c-10.049-0.04-18.001,13.892-17.589,22.801C174.718,90.041,186.879,94.502,196.459,94.311z M189.28,66.932
	c0.152,0.108,0.3,0.219,0.474,0.316c3.095,1.728,6.685,0.753,10.05,1.562c2.51,0.603,4.733,2.793,5.744,5.071
	c2.018,4.545-2.479,6.235-6.118,6.562c-3.944,0.355-9.402-1.046-11.218-4.929C186.699,72.278,187.487,69.342,189.28,66.932z"/>
<path d="M373.508,93.808c12.223,3.985,23.832-6.547,29.613-16.143c5.627-9.34,5.07-22.526-7.203-25.387
	c-7.572-1.765-20.058,0.466-24.215,7.652c-5.117,3.682-8.873,10.274-9.879,15.611C360.208,84.113,365.622,91.237,373.508,93.808z
	 M370.981,65.537c0.069,0.138,0.132,0.277,0.219,0.413C370.983,65.609,370.933,65.504,370.981,65.537z M390.295,67.794
	c0.016,0.016,0.026,0.028,0.045,0.047c0.273,0.263,0.447,0.404,0.555,0.475c-0.002,0.111,0.043,0.334,0.201,0.773
	c0.005,0.015,0.008,0.022,0.013,0.036c0.047,0.377,0.061,0.756,0.061,1.136c-0.025-0.94-0.275,1.414-0.464,2.248
	c-0.023,0.057-0.046,0.111-0.076,0.187c-0.264,0.664-0.583,1.305-0.908,1.942c-0.061,0.119-0.187,0.337-0.307,0.54
	c-0.316,0.47-0.646,0.93-0.986,1.382c-0.147,0.196-0.311,0.378-0.466,0.567c-0.245,0.261-0.832,0.906-1.056,1.115
	c-0.375,0.348-0.773,0.668-1.172,0.988c-0.04,0.025-0.07,0.044-0.118,0.075c-0.454,0.292-0.932,0.545-1.409,0.797
	c-0.131,0.037-0.322,0.096-0.599,0.189c-0.137,0.046-0.466,0.127-0.725,0.191c-0.514,0.067-1.032,0.108-1.55,0.125
	c1.809-0.059-2.629-0.742-1.541-0.322c-5.735-2.209-6.244-7.138-4.263-11.728c0.392,0.043,0.795,0.063,1.228,0.041
	c4.367-0.231,6.684-1.42,10.687-1.528c-0.386,0.047,1.066,0.202,1.946,0.339c0.204,0.073,0.464,0.168,0.606,0.24
	C390.117,67.709,390.212,67.755,390.295,67.794z"/>
<path d="M381.492,455.696c-0.901-2.042-2.599-2.897-4.636-3.033c-0.254,0.033-0.578,0.072-0.928,0.115
	c0.034-0.036,0.067-0.072,0.101-0.107c0.093-0.008,0.175-0.014,0.257-0.021c-0.089,0-0.175-0.008-0.265-0.006
	c-0.592,0.013-1.222,0.142-1.864,0.355c-0.392,0.053-0.681,0.097-0.751,0.122c-0.1,0.033-0.178,0.059-0.246,0.082
	c-0.352,0.045-0.704,0.09-1.057,0.132c-2.432,0.299-4.862,0.466-7.308,0.603c-1.856,0.104-3.709,0.252-5.561,0.424
	c-0.249-5.612-2.675-11.792-4.166-16.239c-3.307-9.862-7.736-19.341-11.797-28.904c-4.046-9.526-7.758-19.152-10.454-29.156
	c-1.201-4.456-1.91-9.009-2.103-13.619c-0.092-2.198,0.537-5.405,0.446-8.158c1.278,0.027,2.578-0.328,3.74-1.102
	c0.338-0.225,0.676-0.45,1.014-0.675c3.643-2.425,6.941-9.022,0.884-10.791c-0.312-0.091-0.624-0.182-0.936-0.273
	c-2.094-0.611-4.151,0.329-5.854,1.633c-10.621,2.664-21.824,3.39-32.686,4.448c-6.384,0.622-12.782,1.108-19.164,1.751
	c-5.609,0.565-12.025,0.412-17.338,2.41c-2.905,1.093-6.622,6.817-1.708,7.971c4.822,1.133,10.576,0.052,15.618-0.398
	c-2.732,3.183-4.771,7.133-7.111,10.491c-3.938,5.651-8.396,10.931-12.556,16.416c-3.079,4.06-7.462,7.369-11.139,11.087
	c-3.516,2.178-6.254,6.052-4.685,10.147c2.36,6.158,10.284,2.09,12.983-1.303c1.043-1.312,1.581-2.775,1.653-4.155
	c3.216-4.371,6.89-8.393,9.868-12.93c3.758-5.727,7.366-11.549,11.023-17.342c1.409-2.232,3.266-4.752,4.624-7.41
	c-0.934,4.999,0.037,10.928,0.715,15.056c1.554,9.467,4.512,18.657,7.047,27.889c3.064,11.158,4.357,22.726,7.225,33.957
	c1.062,4.161,2.804,8.27,3.207,12.537c0.123,1.297,0.263,2.591,0.403,3.886c0.04,0.369,0.061,0.685,0.072,0.955
	c-0.058,0.205-0.105,0.414-0.147,0.624c-7.984,1.607-16.012,3.643-23.042,7.384c-3.016,1.605-3.908,6.531,0.377,6.704
	c10.564,0.426,21.711-2.987,32.153-4.501c10.597-1.536,21.255-2.395,31.893-3.573c7.786-0.862,15.568-1.833,23.398-2.139
	c5.601-0.219,9.229,0.952,14.062-1.501c3.106-1.577,6.345-6.206,4.753-9.814C381.5,455.716,381.496,455.706,381.492,455.696z
	 M249.534,400.665c-0.116-0.018-0.238-0.028-0.358-0.04c0.104,0.003,0.203,0.006,0.321,0.01
	C249.509,400.645,249.521,400.655,249.534,400.665z M281.15,362.794c0.177-0.014,0.354-0.029,0.531-0.043
	c-0.243,0.317-0.46,0.653-0.664,0.998C281.075,363.432,281.121,363.113,281.15,362.794z M309.954,458.734
	C310.022,458.833,310.009,458.826,309.954,458.734L309.954,458.734z M310.697,460.761c-0.046-1.087-0.403-2.132-1.125-3.156
	c-0.229-1.178-0.399-2.374-0.59-3.559c-0.615-3.82-1.912-7.331-3.109-11.021c-3.574-11.015-5.376-22.382-8.505-33.487
	c-2.456-8.72-5.583-17.228-7.804-26.018c-1.079-4.27-1.798-8.612-1.964-13.015c-0.099-2.635,0.763-5.627,0.306-8.268
	c2.42-0.209,4.839-0.423,7.258-0.636c9.34-0.823,18.627-2.014,27.931-3.094c-2.985,6.095-1.979,15.777-1.306,21.31
	c1.29,10.589,4.762,20.836,8.365,30.824c3.634,10.075,7.726,19.983,11.098,30.152c1.329,4.008,2.547,8.067,3.23,12.238
	c0.146,0.889,0.184,1.941,0.203,3.059c-1.514,0.2-3.027,0.4-4.54,0.593C330.283,457.944,320.479,459.031,310.697,460.761z"/>
<path d="M376.286,452.649c0.191,0.001,0.383,0.001,0.569,0.013C377.565,452.571,377.717,452.536,376.286,452.649z"/>
<g id="Page-1">
	<path id="day_sunday" d="M394.166,255.66c0.314,3.539-0.024,7.024-1.013,10.456c-0.507,1.828-1.696,4.765-3.566,8.809l-1.253-0.558
		c0.019-1.295,0.009-2.787-0.029-4.478c-0.038-1.691-0.083-2.824-0.134-3.399c-0.408-4.601-1.342-10.994-2.803-19.179
		c-1.461-8.186-3.098-16.723-4.911-25.613c-1.101-5.386-2.279-10.877-3.533-16.473c0.712-2.025,1.533-4.215,2.461-6.571
		c0.928-2.356,1.813-4.574,2.654-6.655c1.155,4.98,2.662,11.802,4.522,20.465c1.86,8.663,3.411,16.484,4.654,23.463
		C392.786,244.614,393.77,251.192,394.166,255.66z M361.98,204.877l-2.127,12.226l-4.086-1.577l0.668,6.027
		c0.525,5.928,0.283,11.745-0.727,17.452c-1.096,6.25-3.149,12.517-6.159,18.803c1.955,2.948,3.343,5.277,4.164,6.988
		c1.264,2.697,2.024,5.483,2.279,8.358c0.145,1.637,0.224,3.034,0.238,4.192s-0.066,2.525-0.239,4.101
		c-4.595,1.477-9.531,2.751-14.809,3.82s-10.438,1.828-15.481,2.275c-0.03-0.844-0.071-1.554-0.122-2.129
		c-0.077-3.382,0.178-6.547,0.764-9.497c7.164-4.692,13.049-10.474,17.657-17.347c-3.614-5.565-6.237-9.501-7.868-11.809
		c-1.784-2.517-4.782-6.42-8.996-11.709c-1.54-1.781-2.892-3.199-4.055-4.255c-1.597-1.419-2.816-2.091-3.656-2.017
		c-0.575,0.051-1.497,0.467-2.765,1.248c-0.676,0.417-1.258,0.646-1.745,0.69c-0.973,0.086-2.586-0.752-4.837-2.514
		c-1.967-1.565-4.057-3.519-6.271-5.865c-1.773-1.894-3.007-3.49-3.701-4.788c-0.695-1.298-1.126-2.899-1.295-4.801
		c-0.243-2.743-0.256-4.904-0.039-6.484c0.323-2.392,1.126-3.644,2.409-3.758c1.814-0.161,4.599,1.331,8.355,4.476
		c3.327,2.826,7.094,6.594,11.301,11.304c3.714,4.174,7.414,8.706,11.102,13.595l7.733,10.283c2.281,3.097,4.645,6.633,7.092,10.607
		c2.435-6.235,3.935-12.453,4.5-18.656c0.503-5.395,0.39-12.206-0.339-20.434l-3.976-1.855c-0.259-2.92-0.239-5.585,0.06-7.997
		c0.299-2.412,0.827-4.632,1.583-6.661l1.561,0.263c0.345,1.887,1.542,3.319,3.591,4.296c1.117,0.525,2.54,1.113,4.269,1.762
		C359.741,204.139,361.064,204.601,361.98,204.877z M224.998,287.703l74.319-6.585l-1.023-11.546l-3.981,0.353
		c-1.938-0.23-5.796-2.518-11.576-6.866c-7.45-5.582-12.799-9.343-16.047-11.285c-6.541-3.879-12.067-5.618-16.58-5.219
		c-4.601,0.408-8.278,2.182-11.031,5.324c-1.903,2.175-3.351,4.956-4.343,8.343c2.273-0.513,4.537-0.87,6.794-1.07
		c3.672-0.325,7.354-0.027,11.047,0.894c3.283,0.824,6.957,2.282,11.021,4.374c3.269,1.672,7.315,4.056,12.136,7.151l-49.435,4.38
		c-0.949-10.705-3-19.262-6.153-25.671c-3.914-7.946-9.864-13.46-17.851-16.542l0.145,12.961c6.591,1.422,11.524,5.02,14.8,10.793
		c2.639,4.626,4.309,10.898,5.011,18.817l-25.68,2.275c-1.858,0.165-3.347-0.038-4.468-0.607c-1.353-0.683-2.354-1.909-3.001-3.68
		l-1.526,0.135c-0.342,1.68-0.54,3.213-0.596,4.6c-0.055,1.387-0.009,2.921,0.14,4.602c0.176,1.991,1.336,3.627,3.478,4.908
		s4.474,1.811,6.995,1.587L224.998,287.703z M350.448,270.97c-0.086-0.973-0.363-1.963-0.832-2.969
		c-0.468-1.006-1.449-2.647-2.944-4.922c-1.174,1.843-2.978,4.009-5.41,6.498c-2.432,2.489-4.861,4.644-7.285,6.464
		c5.22-0.463,8.922-0.947,11.107-1.452C348.797,273.724,350.585,272.518,350.448,270.97z M312.51,189.999
		c0.098,1.106-0.5,2.162-1.792,3.168c-0.878,0.657-2.217,1.4-4.016,2.228l-11.966,5.34c-0.18-2.035,1.873-4.022,6.159-5.963
		c-1.434-0.586-2.534-1.18-3.301-1.781c-1.003-0.758-1.546-1.602-1.629-2.531c-0.121-1.371,0.88-3.4,3.005-6.085
		c2.367-2.974,4.546-4.549,6.536-4.726c0.885-0.078,1.674,0.153,2.369,0.693c0.694,0.54,1.085,1.297,1.171,2.27
		c0.055,0.619-0.022,1.261-0.231,1.926s-0.521,1.417-0.937,2.257c-1.481-1.117-3.018-1.605-4.61-1.464
		c-0.973,0.086-1.918,0.371-2.834,0.853c-0.916,0.482-1.35,0.989-1.303,1.52c0.059,0.664,1.168,1.479,3.327,2.447
		c2.159,0.968,3.968,1.387,5.428,1.258c0.973-0.086,1.667-0.181,2.081-0.285C310.383,191.024,311.23,190.648,312.51,189.999z"/>
</g>
</svg>
