<?xml version="1.0" encoding="utf-8"?>
<!-- Generator: Adobe Illustrator 17.0.0, SVG Export Plug-In . SVG Version: 6.00 Build 0)  -->
<!DOCTYPE svg PUBLIC "-//W3C//DTD SVG 1.1//EN" "http://www.w3.org/Graphics/SVG/1.1/DTD/svg11.dtd">
<svg version="1.1" id="Layer_1" xmlns="http://www.w3.org/2000/svg" xmlns:xlink="http://www.w3.org/1999/xlink" x="0px" y="0px"
	 width="566.93px" height="566.93px" viewBox="0 0 566.93 566.93" enable-background="new 0 0 566.93 566.93" xml:space="preserve">
<path d="M512.98,483.535c-34.554-38.183-47.053-90.894-59.3-139.491c-7.73-30.672-13.39-61.905-18.06-93.179
	c-2.269-15.188-3.892-30.44-5.694-45.686c-0.896-7.577-1.709-15.165-2.564-22.746c-0.839-7.421-0.241-16.179-3.271-23.046
	c-0.104-0.235-0.229-0.418-0.364-0.578c0.479,0.045,0.96,0.083,1.438,0.13c4.11,0.406,7.912-2.895,8.022-7.04
	c0.1-3.715-0.294-7.65-1.645-11.129c-0.3-0.774-0.848-1.402-1.517-1.862c0.988-0.007,1.977-0.011,2.964-0.02
	c1.671,0.024,3.195-0.754,4.387-1.907c6.629-1.911,12.527-11.307,6.159-15.398c-0.004-0.005-0.008-0.01-0.013-0.016
	c-0.347-0.743-0.598-1.537-0.832-2.316c-0.662-2.203-0.229-0.611-0.537-2.547c-0.292-1.833-0.461-3.687-0.611-5.536
	c-0.686-8.454-0.509-16.979-0.221-25.447c0.55-16.128,2.023-32.195,3.28-48.278c0.629-8.052-0.708-15.758-5.508-22.404
	c-4.54-6.286-13.12-9.139-20.432-10.411C401.254,1.6,383.42,6.084,366.017,6.907c-38.879,1.839-77.937,1.726-116.851,2.036
	c-19.188,0.153-38.376,0.287-57.563,0.439c-9.929,0.079-19.854,0.311-29.781,0.524c-9.534,0.204-19.386,0.371-28.617,2.847
	c-1.084,0.291-1.976,1.833-1.235,2.632c-8.426-4.499-22.07,1.927-29.358,6.106c-6.97,3.996-13.495,8.86-19.762,13.871
	c-4.989,3.99-9.761,7.737-12.978,13.28c-1.458,2.512,1.49,3.804,3.453,2.772c4.729-2.487,8.508-5.889,12.748-9.175
	c5.584-4.328,11.433-8.294,17.577-11.783c5.106-2.899,10.769-5.749,16.714-6.19c6.041-0.448,6.585,4.568,6.862,9.402
	c0.449,7.82-0.677,15.774-1.276,23.563c-0.708,9.207-0.425,18.334-0.15,27.563c0.661,22.293,1.861,44.52,1.847,66.828
	c-0.006,8.431,11.637,5.95,15.841-0.085c1.101-0.044,2.203-0.104,3.306-0.209c5.978-0.567,11.968-1.306,17.926-2.046
	c12.813-1.592,25.659-2.818,38.513-4.026c26.159-2.459,52.401-3.99,78.654-4.991c46.99-1.793,93.965-1.077,140.966-1.311
	c-0.856,0.167-1.716,0.294-2.576,0.313c-4.181,0.091-8.606,6.298-4.55,9.328c-7.813-0.217-15.671-0.865-23.412-0.792
	c-13.004,0.122-26.006,0.462-39.002,0.915c-25.592,0.893-51.166,2.229-76.729,3.741c-23.454,1.387-46.859,2.949-70.343,3.761
	c-11.508,0.398-22.992,0.996-34.44,2.273c-9.02,1.006-19.213,2.024-27.598,6.014c-1.392-0.469-3.73,0.538-4.479,1.579
	c-6.955,9.685-7.844,22.917-8.417,34.458c-0.647,13.032,0.333,26.066,1.315,39.056c1.199,15.849,1.454,31.794,2.516,47.661
	c1.089,16.286,2.593,32.523,4.613,48.721c3.966,31.796,10.554,63.079,17.906,94.242c3.629,15.384,7.34,30.747,11.285,46.053
	c3.137,12.176,7.033,24.29,12.782,35.502c0.942,1.837,1.949,3.639,2.903,5.469c-0.05,0.37-0.07,0.741-0.051,1.115
	c-0.468,0.115-0.932,0.23-1.381,0.351c-5.705,1.535-11.463,2.869-17.226,4.167c-0.532,0.12-1.066,0.233-1.6,0.352
	c0.289-1.941-0.043-4.129-0.601-5.77c-2.647-7.782-6.252-15.255-9.414-22.835c-4.515-10.823-6.887-22.441-9.326-33.877
	c-3.485-16.336-6.36-32.749-8.873-49.258c-4.866-31.981-9.614-63.969-14.688-95.917c-5.079-31.983-7.244-64.363-8.448-96.698
	c-1.738-46.654-0.808-93.602-4.609-140.153c-0.195-2.383-3.651-0.668-3.637,1.166c0.545,65.211-1.425,130.838,3.525,195.913
	c2.452,32.234,7.835,64.157,12.358,96.145c4.583,32.409,9.111,64.712,15.694,96.789c2.48,12.087,5.106,23.8,9.708,35.243
	c1.835,4.564,3.713,9.111,5.483,13.701c0.714,1.852,1.395,3.717,2.016,5.602c0.195,0.593,0.448,1.125,0.721,1.662
	c-0.035,0.17-0.06,0.339-0.072,0.507c-7.861,1.685-15.729,3.336-23.564,5.135c-0.558,0.128-1.114,0.261-1.671,0.391
	c-0.445-2.152-1.443-4.383-1.89-6.175c-1.497-6.008-2.311-12.184-3.071-18.319c-1.43-11.519-2.892-23.02-4.521-34.515
	c-3.128-22.073-6.371-44.13-9.537-66.198c-3.143-21.897-5.972-43.848-8.206-65.857c-2.27-22.347-3.245-44.725-4.472-67.141
	c-0.026-0.485-0.709-0.121-0.727,0.233c-2.207,44.098,2.824,88.77,8.121,132.495c2.607,21.527,5.68,42.998,8.52,64.495
	c1.439,10.894,2.996,21.797,4.025,32.738c0.89,9.46,1.825,19.226,4.214,28.504c-0.283,0.518-0.399,1.089-0.274,1.631
	c-8.097,2.041-16.127,4.349-23.984,7.182c-9.896,3.568-20.745,7.95-27.984,15.839c-2.463,2.684-1.627,5.133,0.396,6.272
	c-0.082,0.289-0.014,0.558,0.379,0.6c13.286,1.424,27.291-1.115,40.547-2.293c14.91-1.325,29.808-2.779,44.707-4.215
	c29.287-2.821,58.576-5.632,87.897-8.078c29.336-2.447,58.722-4.485,88.13-5.848c14.996-0.695,30.005-1.163,45.016-1.403
	c12.59-0.201,25.365,0.721,37.926,0.058c0.751-0.04,1.457-0.302,2.104-0.688l0,0c6.355-1.129,12.213-3.461,18.188-5.908
	c9.424-3.861,18.785-7.875,28.096-12.002c8.565-3.798,17.115-7.702,25.525-11.835c2.272-1.117,4.54-2.275,6.727-3.56
	c2.43-0.155,4.868-0.42,7.427-0.607c5.076-0.371,9.915-4.678,10.977-9.633c0.334-1.558,0.182-3.02-0.335-4.271
	C514.918,489.702,515.498,486.317,512.98,483.535z M443.319,121.271C443.164,121.032,443.099,120.897,443.319,121.271
	L443.319,121.271z M284.142,129.73c-26.298,1.147-52.57,2.92-78.766,5.511c-12.928,1.278-25.822,2.966-38.681,4.811
	c-6.076,0.872-12.137,1.983-18.162,3.152c-1.235,0.24-2.443,0.532-3.643,0.845c-0.084-23.497-1.338-46.883-2.699-70.343
	c-0.531-9.169-0.688-18.154-0.603-27.325c0.077-8.309-0.967-16.932-4.118-24.6c-1.164-2.832-2.846-4.767-4.859-6.021
	c6.776,2.143,14.349,2.5,21.455,2.686c8.518,0.222,17.034,0.452,25.551,0.683c16.448,0.448,32.922,0.539,49.376,0.701
	c32.952,0.324,65.904,0.493,98.857,0.205c14.014-0.123,28.141,0.129,42.125-0.872c8.858-0.634,17.692-1.544,26.577-1.748
	c7.485-0.171,15.621,0.105,22.512,3.333c6.463,3.027,8.774,9.766,9.067,16.664c0.061,1.405-0.031,2.797-0.144,4.193
	c-0.028,0.332-0.072,0.854-0.086,1.012c-0.081,0.924-0.164,1.847-0.247,2.771c-0.362,4.045-0.729,8.09-1.079,12.137
	c-0.936,10.835-1.773,21.68-2.277,32.545c-0.437,9.408-0.72,18.917,0.127,28.31c0.25,2.778,0.565,6.086,1.396,9.185
	C378.602,127.266,331.312,127.672,284.142,129.73z M175.791,432.707c-3.769-15.48-7.467-30.976-10.808-46.555
	c-6.792-31.677-10.854-63.791-13.888-96.024c-1.52-16.141-2.511-32.312-3.668-48.48c-0.927-12.943-2.691-25.802-3.483-38.767
	c-0.698-11.431,0.541-22.472,1.178-33.76c8.862-0.328,17.992-2.647,26.782-3.397c10.836-0.924,21.738-1.179,32.606-1.431
	c23.435-0.544,46.787-1.777,70.192-3.061c24.879-1.365,49.77-2.598,74.679-3.241c23.813-0.615,47.947-1.43,71.736,0.582
	c-1.032,0.546-1.965,1.59-2.218,2.487c-2.021,7.156-1.006,15.051-0.987,22.444c0.021,7.807,0.201,15.601,0.489,23.402
	c0.597,16.134,2.032,32.257,3.62,48.32c3.186,32.229,8.646,64.085,15.895,95.645c10.686,46.534,23.123,97.156,52.97,135.657
	c-0.191,0.88-0.196,1.787,0.05,2.655c0.118,0.417,0.252,0.795,0.394,1.156c-7.715,1.084-15.414,2.309-23.156,3.13
	c-12.802,1.357-25.596,2.785-38.387,4.236c-26.755,3.034-53.492,6.215-80.247,9.247c-26.022,2.949-52.064,5.627-78.15,7.97
	c-12.706,1.141-25.422,2.169-38.147,3.077c-8.457,0.603-16.979,0.969-25.464,1.594c0.073-1.015-0.035-2.02-0.396-2.961
	c-0.642-1.674-1.889-2.718-3.377-3.25c-0.258-2.464-1.457-4.903-3.045-7.157c-1.729-2.454-4.851-6.103-5.567-7.734
	c-2.992-6.812-5.791-13.56-7.99-20.688C182.833,462.99,179.454,447.759,175.791,432.707z M459.196,513.556
	c-13.881,6.339-28.698,11.375-42.052,18.801c-0.329-0.05-0.692-0.071-1.101-0.049c-0.025,0.001-0.05,0.003-0.075,0.004
	c-11.277-0.521-22.786,0.209-34.058,0.428c-15.039,0.293-30.071,0.886-45.093,1.671c-30.174,1.577-60.271,4.114-90.342,7.039
	c-29.423,2.862-58.806,6.136-88.189,9.376c-14.952,1.648-29.908,3.267-44.862,4.906c-10.388,1.138-21.177,1.623-31.637,3.252
	c6.027-2.91,11.956-5.81,18.504-7.922c10.479-3.381,21.29-5.768,32.079-7.917c11.237-2.238,22.53-4.188,33.781-6.36
	c5.532-1.069,11.053-2.2,16.547-3.448c2.134-0.485,4.357-1.214,6.596-1.884c0.363,0.184,0.78,0.306,1.271,0.33
	c24.634,1.212,49.814-1.631,74.364-3.515c26.607-2.042,53.182-4.6,79.745-7.147c26.665-2.557,53.316-5.259,79.978-7.865
	c12.76-1.247,25.522-2.461,38.29-3.621c1.997-0.181,3.989-0.385,5.979-0.596C465.697,510.578,462.448,512.071,459.196,513.556z"/>
<path d="M68.748,53.424c1.949-2.25-0.489-4.763-2.926-3.335c-6.554,3.84-8.802,10.55-10.946,17.42
	c-2.785,8.918-2.787,18.966-2.723,28.226c0.132,18.925,2.617,37.721,3.609,56.601c1.739,33.114-0.813,66.271-1.502,99.378
	c-0.684,32.874,1.797,65.724,2.822,98.572c1.021,32.746,1.523,65.504,1.992,98.261c0.232,16.285,0.504,32.57,0.795,48.854
	c0.15,8.424,0.36,16.847,0.467,25.272c0.072,5.716,0.509,11.624,0.399,17.438c-3.345,2.126-5.632,6.456-3.089,9.675
	c2.092,2.649,3.088,4.459,6.691,5.252c6.516,1.433,12.408-5.82,11.072-11.799c-1.641-7.344-1.059-15.517-1.315-23.024
	c-0.286-8.401-0.451-16.806-0.641-25.209c-0.367-16.253-0.677-32.507-1.058-48.76c-0.764-32.667-1.602-65.333-2.8-97.987
	c-1.202-32.767-3.896-65.525-3.622-98.325c0.275-33.026,2.328-66.034,0.631-99.057c-0.898-17.469-3.266-34.819-4.016-52.299
	c-0.381-8.885-0.513-17.945,0.493-26.794C63.786,65.603,64.479,58.353,68.748,53.424z"/>
<path d="M107.785,61.338c0.553,0.936,1.49,1.328,2.563,0.935c10.658-3.909,5.712-18.976-0.286-24.726
	c-1.377-1.321-3.15-1.049-4.729-0.253c-4.483,2.26-40.193,26.964-34.209,31.631c0.431,0.336,1.262-0.511,0.867-0.931
	c-0.415-0.442,13.94-11.321,15.138-12.156c5.425-3.784,11.162-7.718,17.263-10.466c1.597,2.406,2.641,5.04,2.989,7.994
	C107.697,56.049,106.321,58.857,107.785,61.338z"/>
<path d="M191.736,55.445c-10.048-0.04-18.001,13.892-17.589,22.801c0.522,11.262,12.684,15.723,22.264,15.532
	c12.835-0.256,23.927-10.75,24.404-23.561C221.324,56.565,202.153,48.31,191.736,55.445z M199.381,79.91
	c-3.943,0.355-9.401-1.046-11.218-4.929c-1.514-3.237-0.726-6.173,1.067-8.583c0.152,0.108,0.3,0.219,0.475,0.316
	c3.095,1.728,6.685,0.754,10.05,1.562c2.51,0.603,4.733,2.793,5.744,5.071C207.517,77.892,203.02,79.582,199.381,79.91z"/>
<path d="M395.87,51.744c-7.572-1.765-20.058,0.467-24.215,7.653c-5.117,3.682-8.872,10.274-9.879,15.611
	c-1.616,8.572,3.797,15.696,11.684,18.267c12.223,3.985,23.832-6.547,29.613-16.143C408.7,67.791,408.142,54.605,395.87,51.744z
	 M370.932,65.003c0.069,0.138,0.133,0.277,0.22,0.413C370.934,65.074,370.884,64.97,370.932,65.003z M390.658,71.976
	c-0.023,0.057-0.046,0.111-0.076,0.187c-0.264,0.664-0.583,1.305-0.907,1.942c-0.061,0.119-0.187,0.337-0.307,0.541
	c-0.316,0.47-0.646,0.93-0.986,1.382c-0.147,0.196-0.311,0.379-0.467,0.568c-0.244,0.261-0.832,0.906-1.056,1.114
	c-0.375,0.348-0.773,0.668-1.172,0.988c-0.04,0.025-0.07,0.044-0.118,0.075c-0.454,0.292-0.932,0.545-1.408,0.797
	c-0.131,0.037-0.322,0.096-0.6,0.189c-0.137,0.046-0.466,0.127-0.725,0.191c-0.515,0.067-1.032,0.108-1.55,0.125
	c1.808-0.059-2.63-0.741-1.541-0.322c-5.735-2.209-6.244-7.138-4.263-11.728c0.393,0.043,0.796,0.063,1.228,0.041
	c4.367-0.231,6.684-1.42,10.688-1.528c-0.387,0.047,1.066,0.202,1.946,0.339c0.203,0.073,0.463,0.167,0.605,0.24
	c0.119,0.06,0.214,0.106,0.297,0.146c0.016,0.016,0.025,0.028,0.045,0.047c0.273,0.262,0.447,0.404,0.555,0.475
	c-0.002,0.111,0.044,0.334,0.201,0.773c0.006,0.015,0.009,0.022,0.014,0.036c0.047,0.377,0.061,0.756,0.061,1.136
	C391.096,68.787,390.846,71.141,390.658,71.976z"/>
<path d="M244.54,381.54c7.546,3.087,16.969-0.929,21.15-7.802c0.301-0.493,0.589-1.034,0.846-1.599
	c10.59,1.667,23.35-0.97,31.457-2.985c7.247-1.801,14.13-4.621,21.129-7.134c-0.445,0.618-0.873,1.223-1.281,1.789
	c-3.433,4.763-6.165,10.027-8.481,15.406c-4.396,10.207-6.727,21.056-8.901,31.901c-4.19,20.898-7.661,42.889-3.391,64.023
	c-2.828,1.236-5.544,2.728-8.086,4.593c-2.22,1.628-2.221,5.903,1.215,5.644c9.911-0.749,19.668-3.334,29.641-4.25
	c10.168-0.934,20.587-1.889,30.761-0.862c4.765,0.481,9.609-2.896,10.632-7.666c0.948-4.429-2.203-6.475-5.821-6.396
	c0.02-0.057,0.039-0.114,0.059-0.171c-0.993,0.099-1.986,0.184-2.979,0.27c0.2-9.029-0.072-18.035,0.48-27.073
	c0.607-9.933,1.948-19.826,3.885-29.584c1.924-9.692,4.717-19.258,8.062-28.552c3.186-8.849,9.277-17.275,10.872-26.592
	c0.218-1.273-0.496-1.781-1.378-1.8c-0.331-1.724-1.56-3.116-4.017-3.636c-4.286-0.908-8.612-1.779-12.915-2.731
	c-6.116-1.354-12.919-0.456-19.016,0.573c-11.897,2.007-22.629,7.146-33.963,10.925c-13.521,4.508-37.92,11.263-47.879-2.973
	c-2.008-2.871-6.521,0.356-7.138,3.416c-2.084,1.446-3.676,3.733-4.758,6.069c-1.771,3.819-1.701,8.085-2.312,11.85
	C242.103,378.091,242.458,380.688,244.54,381.54z M350.157,357.457c4.321,0.992,8.001,3.418,11.893,5.315
	c0.543,0.265,1.092,0.447,1.639,0.559c-3.286,5.096-5.866,10.791-8.287,15.987c-4.471,9.594-7.902,19.49-10.609,29.721
	c-4.92,18.594-7.877,38.972-7.941,58.435c-5.343,0.406-10.678,0.896-15.983,1.729c-3.144,0.493-6.308,1.01-9.44,1.643
	c-0.024-0.101-0.041-0.201-0.071-0.302c-5.966-18.61-2.36-39.971,0.289-58.876c1.37-9.773,2.861-19.497,5.729-28.963
	c1.593-5.256,3.874-10.323,6.514-15.13c1.607-2.928,4.271-5.699,5.578-8.845C336.067,357.02,343.674,355.97,350.157,357.457z"/>
<g id="Page-1">
	<path id="day_saturday" d="M253.666,279.27l31.889-2.21l10.077-0.698c3.827-0.265,6.57-0.744,8.231-1.436
		c1.661-0.692,3.459-1.874,5.394-3.546c2.214,1.128,4.063,1.919,5.547,2.371c2.27,0.697,4.51,0.969,6.721,0.816l4.146-0.287
		c3.784-0.262,6.734-0.851,8.849-1.767c1.453-0.613,3.124-1.776,5.013-3.488c1.71,1.249,3.569,2.177,5.576,2.786
		c2.007,0.609,4.372,0.819,7.093,0.63l2.679-0.186l29.274-2.029l-0.866-12.5l-10.991-49.48l3.132,0.808
		c0.385-1.223,0.664-3.058,0.836-5.505c0.172-2.447,0.185-4.734,0.037-6.86c-2.227-0.7-4.433-1.402-6.618-2.105
		c-2.849-1.042-4.359-2.795-4.53-5.261l-1.005-0.635c-0.853,2.494-1.445,5.045-1.777,7.653c-0.332,2.608-0.396,5.378-0.193,8.312
		l3.427,1.365l11.337,53.557l-20.6,1.428l-0.292-4.209c-0.333-4.805-1.067-8.62-2.203-11.447c-0.77-1.869-2.118-4.061-4.044-6.577
		l-3.664,7.239c1.948,2.215,3.085,3.524,3.412,3.929c1.926,2.515,2.971,4.964,3.136,7.345c0.077,1.105-0.212,2.033-0.864,2.783
		c-0.653,0.75-1.553,1.165-2.701,1.245c-2.466,0.171-4.478-0.501-6.035-2.017c-1.785-1.713-3.415-4.89-4.89-9.53l-1.755-5.902
		l-2.413,4.012c0.398,1.425,0.724,2.748,0.98,3.969s0.429,2.491,0.52,3.809c0.168,2.424-0.56,4.247-2.184,5.47
		c-1.463,1.084-3.789,1.736-6.978,1.957l-4.273,0.296c-2.721,0.189-5.126-0.606-7.214-2.384c-1.725-1.461-3.375-3.697-4.951-6.706
		c-0.889-1.733-2.064-4.514-3.526-8.343l-2.35,4.008c0.446,1.507,0.776,2.873,0.989,4.097c0.213,1.224,0.362,2.453,0.448,3.686
		c0.203,2.934-0.894,4.975-3.293,6.124c-1.447,0.698-3.892,1.167-7.336,1.406l-7.845,0.544l-0.309-4.464
		c-0.524-7.568-1.474-12.95-2.849-16.144c-0.916-2.115-3.038-5.002-6.368-8.659l-4.254,10.74c3.428,3.223,5.609,5.721,6.543,7.493
		c1.373,2.554,2.234,6.339,2.581,11.356l-27.233,1.887l-0.433-6.25c-0.631-9.099-2.556-15.929-5.778-20.491
		c-0.424-0.569-1.652-1.958-3.685-4.166l-4.19,10.736c2.911,1.934,5.044,4.361,6.4,7.279c1.356,2.918,2.199,6.758,2.529,11.52
		l0.119,1.722l-54.02,3.743c-7.228,0.501-13.287-0.318-18.178-2.457c-5.464-2.398-8.37-6.106-8.717-11.123
		c-0.165-2.381,0.264-5.124,1.288-8.228c0.757-2.018,1.536-4.037,2.336-6.058l-1.997-1.079c-2.135,4.335-3.47,7.268-4.004,8.801
		c-1.5,4.248-2.113,8.349-1.839,12.303c0.527,7.611,3.955,12.991,10.283,16.141c5.045,2.513,11.648,3.486,19.812,2.921
		L253.666,279.27z M404.584,252.47c0.236,3.401-0.152,6.739-1.164,10.014c-0.52,1.745-1.715,4.541-3.584,8.387l-1.192-0.558
		c0.042-1.242,0.06-2.674,0.055-4.297c-0.006-1.623-0.028-2.711-0.066-3.264c-0.306-4.422-1.085-10.573-2.336-18.454
		c-1.251-7.881-2.665-16.103-4.241-24.667c-0.958-5.189-1.986-10.479-3.086-15.871c0.721-1.93,1.548-4.016,2.482-6.26
		c0.934-2.244,1.824-4.356,2.669-6.337c1.016,4.8,2.337,11.373,3.962,19.72c1.625,8.347,2.97,15.879,4.033,22.598
		C403.464,241.846,404.287,248.175,404.584,252.47z M282.355,292.854l-4.334,9.592l-10.703-4.641l4.074-9.639L282.355,292.854z
		 M221.909,223.282l-4.338,9.529l-10.712-4.769l4.151-9.452L221.909,223.282z M207.638,230.039l-4.206,9.584l-10.703-4.641
		l4.079-9.575L207.638,230.039z"/>
</g>
</svg>
