<?xml version="1.0" encoding="utf-8"?>
<!-- Generator: Adobe Illustrator 17.0.0, SVG Export Plug-In . SVG Version: 6.00 Build 0)  -->
<!DOCTYPE svg PUBLIC "-//W3C//DTD SVG 1.1//EN" "http://www.w3.org/Graphics/SVG/1.1/DTD/svg11.dtd">
<svg version="1.1" id="Layer_1" xmlns="http://www.w3.org/2000/svg" xmlns:xlink="http://www.w3.org/1999/xlink" x="0px" y="0px"
	 width="566.93px" height="566.93px" viewBox="0 0 566.93 566.93" enable-background="new 0 0 566.93 566.93" xml:space="preserve">
<path d="M102.426,21.677c-6.97,3.996-13.495,8.86-19.762,13.871c-4.989,3.99-9.761,7.737-12.978,13.28
	c-1.458,2.512,1.491,3.805,3.453,2.772c4.729-2.487,8.509-5.889,12.748-9.175c5.584-4.328,11.433-8.293,17.577-11.783
	c5.106-2.899,10.769-5.749,16.714-6.19c6.041-0.448,6.585,4.568,6.862,9.402c0.449,7.82-0.677,15.774-1.276,23.563
	c-0.708,9.207-0.425,18.334-0.15,27.563c0.661,22.293,1.861,44.52,1.847,66.828c-0.006,8.431,11.637,5.95,15.841-0.085
	c1.101-0.044,2.203-0.105,3.306-0.209c5.978-0.567,11.968-1.306,17.926-2.046c12.813-1.592,25.659-2.818,38.513-4.026
	c26.159-2.459,52.401-3.989,78.653-4.991c46.99-1.793,93.966-1.076,140.967-1.311c-0.856,0.167-1.716,0.294-2.576,0.313
	c-4.181,0.091-8.606,6.298-4.55,9.328c-7.813-0.217-15.671-0.865-23.412-0.792c-13.004,0.122-26.005,0.461-39.002,0.915
	c-25.592,0.893-51.166,2.23-76.729,3.742c-23.454,1.387-46.859,2.949-70.343,3.761c-11.508,0.398-22.992,0.996-34.44,2.273
	c-9.02,1.006-19.213,2.024-27.597,6.014c-1.393-0.469-3.731,0.538-4.479,1.579c-6.955,9.685-7.844,22.917-8.417,34.458
	c-0.647,13.032,0.333,26.066,1.315,39.056c1.198,15.849,1.454,31.794,2.516,47.662c1.089,16.286,2.593,32.523,4.613,48.72
	c3.966,31.796,10.554,63.079,17.906,94.242c3.63,15.384,7.34,30.746,11.284,46.053c3.139,12.176,7.034,24.29,12.783,35.502
	c0.942,1.837,1.949,3.639,2.903,5.469c-0.05,0.37-0.07,0.741-0.051,1.115c-0.468,0.115-0.933,0.23-1.381,0.351
	c-5.705,1.535-11.463,2.869-17.226,4.167c-0.532,0.12-1.066,0.233-1.6,0.352c0.289-1.941-0.043-4.129-0.601-5.77
	c-2.647-7.782-6.252-15.255-9.414-22.835c-4.515-10.823-6.887-22.441-9.326-33.877c-3.485-16.336-6.36-32.749-8.873-49.258
	c-4.866-31.981-9.614-63.969-14.688-95.917c-5.079-31.983-7.244-64.363-8.448-96.698c-1.738-46.654-0.808-93.602-4.609-140.153
	c-0.195-2.384-3.651-0.668-3.637,1.166c0.544,65.211-1.425,130.838,3.525,195.913c2.452,32.234,7.835,64.156,12.358,96.145
	c4.583,32.409,9.111,64.712,15.694,96.789c2.48,12.087,5.106,23.8,9.708,35.243c1.835,4.564,3.713,9.111,5.483,13.701
	c0.714,1.852,1.395,3.717,2.016,5.602c0.195,0.593,0.448,1.125,0.721,1.662c-0.035,0.17-0.06,0.339-0.072,0.507
	c-7.861,1.685-15.729,3.336-23.564,5.135c-0.558,0.128-1.114,0.261-1.671,0.391c-0.445-2.152-1.443-4.383-1.89-6.175
	c-1.497-6.008-2.311-12.184-3.071-18.319c-1.43-11.519-2.892-23.02-4.521-34.515c-3.128-22.073-6.371-44.13-9.537-66.198
	c-3.143-21.897-5.972-43.848-8.206-65.857c-2.27-22.347-3.245-44.725-4.472-67.141c-0.026-0.485-0.709-0.121-0.727,0.233
	c-2.207,44.098,2.824,88.77,8.121,132.495c2.608,21.527,5.68,42.998,8.52,64.495c1.439,10.894,2.996,21.797,4.025,32.738
	c0.89,9.46,1.825,19.226,4.214,28.504c-0.283,0.518-0.399,1.089-0.274,1.631c-8.097,2.041-16.127,4.349-23.984,7.182
	c-9.896,3.568-20.745,7.95-27.984,15.839c-2.463,2.684-1.627,5.133,0.396,6.272c-0.082,0.289-0.014,0.558,0.379,0.6
	c13.286,1.424,27.291-1.115,40.547-2.293c14.909-1.325,29.808-2.779,44.707-4.215c29.287-2.821,58.576-5.632,87.897-8.078
	c29.336-2.447,58.722-4.485,88.129-5.848c14.997-0.695,30.006-1.163,45.017-1.403c12.59-0.201,25.365,0.721,37.926,0.058
	c0.751-0.04,1.457-0.302,2.104-0.688l0,0c6.355-1.129,12.213-3.461,18.188-5.908c9.424-3.861,18.785-7.875,28.096-12.002
	c8.565-3.798,17.115-7.702,25.525-11.835c2.272-1.117,4.54-2.275,6.727-3.56c2.43-0.155,4.868-0.42,7.426-0.607
	c5.077-0.371,9.916-4.678,10.978-9.633c0.334-1.558,0.182-3.02-0.335-4.271c2.026-2.776,2.605-6.161,0.088-8.943
	c-34.555-38.183-47.053-90.894-59.3-139.491c-7.73-30.672-13.39-61.905-18.06-93.179c-2.269-15.188-3.892-30.44-5.694-45.686
	c-0.896-7.577-1.709-15.165-2.565-22.746c-0.838-7.421-0.24-16.179-3.27-23.046c-0.104-0.235-0.229-0.418-0.364-0.578
	c0.479,0.045,0.96,0.083,1.438,0.13c4.111,0.406,7.912-2.894,8.023-7.04c0.099-3.715-0.295-7.65-1.646-11.129
	c-0.3-0.774-0.848-1.402-1.517-1.862c0.988-0.007,1.977-0.011,2.965-0.02c1.67,0.024,3.194-0.754,4.386-1.907
	c6.629-1.911,12.526-11.307,6.159-15.398c-0.004-0.005-0.008-0.01-0.013-0.016c-0.347-0.743-0.598-1.537-0.832-2.316
	c-0.662-2.203-0.229-0.611-0.537-2.547c-0.292-1.833-0.461-3.687-0.611-5.536c-0.686-8.454-0.509-16.979-0.221-25.447
	c0.55-16.128,2.023-32.195,3.28-48.278c0.629-8.052-0.708-15.758-5.508-22.404c-4.54-6.286-13.121-9.139-20.432-10.411
	c-17.409-3.029-35.243,1.455-52.646,2.278c-38.879,1.839-77.937,1.726-116.851,2.036c-19.188,0.153-38.376,0.287-57.563,0.439
	c-9.929,0.079-19.854,0.311-29.781,0.524c-9.534,0.204-19.386,0.371-28.617,2.847c-1.084,0.291-1.976,1.833-1.236,2.632
	C123.359,11.072,109.714,17.498,102.426,21.677z M459.011,513.742c-13.88,6.339-28.698,11.375-42.052,18.801
	c-0.329-0.05-0.692-0.071-1.101-0.049c-0.025,0.001-0.05,0.003-0.075,0.004c-11.277-0.521-22.786,0.209-34.057,0.429
	c-15.04,0.293-30.072,0.886-45.094,1.671c-30.174,1.577-60.271,4.114-90.342,7.039c-29.424,2.862-58.806,6.136-88.189,9.376
	c-14.952,1.648-29.908,3.267-44.862,4.906c-10.388,1.138-21.177,1.623-31.637,3.252c6.027-2.91,11.956-5.81,18.504-7.922
	c10.479-3.381,21.29-5.768,32.079-7.917c11.237-2.238,22.53-4.188,33.781-6.361c5.532-1.068,11.053-2.2,16.547-3.448
	c2.134-0.485,4.357-1.214,6.596-1.884c0.363,0.184,0.78,0.306,1.271,0.331c24.634,1.211,49.814-1.631,74.364-3.516
	c26.607-2.042,53.182-4.6,79.745-7.147c26.665-2.557,53.316-5.259,79.978-7.865c12.76-1.247,25.522-2.461,38.29-3.621
	c1.997-0.181,3.989-0.385,5.979-0.596C465.512,510.763,462.263,512.257,459.011,513.742z M417.728,183.689
	c0.021,7.807,0.201,15.601,0.489,23.402c0.597,16.134,2.031,32.256,3.619,48.32c3.187,32.229,8.648,64.085,15.896,95.645
	c10.686,46.534,23.123,97.156,52.97,135.657c-0.191,0.88-0.196,1.787,0.05,2.655c0.118,0.417,0.252,0.795,0.394,1.156
	c-7.715,1.084-15.414,2.31-23.156,3.13c-12.802,1.357-25.596,2.785-38.387,4.236c-26.755,3.034-53.492,6.215-80.247,9.247
	c-26.022,2.949-52.064,5.627-78.15,7.97c-12.706,1.141-25.422,2.169-38.147,3.077c-8.457,0.603-16.979,0.969-25.464,1.594
	c0.073-1.015-0.035-2.02-0.396-2.961c-0.642-1.674-1.889-2.718-3.377-3.25c-0.258-2.464-1.457-4.903-3.045-7.157
	c-1.729-2.454-4.851-6.103-5.567-7.734c-2.992-6.812-5.791-13.56-7.99-20.688c-4.57-14.811-7.949-30.041-11.612-45.093
	c-3.769-15.48-7.467-30.976-10.808-46.555c-6.792-31.677-10.854-63.791-13.888-96.024c-1.52-16.141-2.511-32.312-3.668-48.48
	c-0.927-12.943-2.691-25.802-3.483-38.767c-0.698-11.431,0.541-22.471,1.178-33.76c8.862-0.328,17.993-2.647,26.782-3.396
	c10.836-0.925,21.738-1.179,32.606-1.432c23.435-0.544,46.787-1.777,70.192-3.061c24.879-1.365,49.77-2.598,74.679-3.241
	c23.813-0.615,47.947-1.43,71.736,0.582c-1.032,0.546-1.965,1.59-2.218,2.487C416.694,168.402,417.709,176.297,417.728,183.689z
	 M443.134,121.457C442.979,121.218,442.915,121.082,443.134,121.457L443.134,121.457z M153.882,18.632
	c8.518,0.223,17.034,0.452,25.551,0.683c16.448,0.448,32.922,0.539,49.376,0.701c32.952,0.324,65.904,0.493,98.857,0.205
	c14.014-0.123,28.141,0.129,42.125-0.872c8.857-0.634,17.692-1.544,26.577-1.748c7.485-0.171,15.621,0.105,22.512,3.333
	c6.463,3.027,8.774,9.766,9.067,16.664c0.061,1.406-0.031,2.798-0.144,4.195c-0.028,0.332-0.072,0.853-0.086,1.01
	c-0.081,0.924-0.164,1.847-0.247,2.771c-0.363,4.045-0.729,8.09-1.079,12.137c-0.936,10.835-1.773,21.68-2.277,32.545
	c-0.437,9.408-0.72,18.917,0.127,28.31c0.25,2.778,0.565,6.086,1.396,9.185c-47.221-0.299-94.511,0.107-141.681,2.165
	c-26.298,1.147-52.57,2.92-78.766,5.511c-12.928,1.278-25.822,2.966-38.681,4.811c-6.076,0.872-12.137,1.983-18.162,3.152
	c-1.235,0.24-2.443,0.532-3.643,0.845c-0.084-23.497-1.338-46.883-2.699-70.343c-0.531-9.169-0.688-18.154-0.603-27.325
	c0.077-8.309-0.967-16.932-4.118-24.6c-1.164-2.832-2.845-4.766-4.858-6.021C139.204,18.089,146.776,18.446,153.882,18.632z"/>
<path d="M57.462,549.972c2.092,2.649,3.088,4.459,6.691,5.252c6.516,1.433,12.408-5.82,11.072-11.799
	c-1.641-7.344-1.059-15.517-1.315-23.024c-0.286-8.401-0.451-16.806-0.641-25.209c-0.367-16.253-0.677-32.507-1.058-48.76
	c-0.764-32.667-1.602-65.333-2.8-97.987c-1.202-32.767-3.896-65.525-3.623-98.325c0.276-33.026,2.329-66.034,0.632-99.057
	c-0.898-17.469-3.266-34.819-4.016-52.299c-0.381-8.885-0.513-17.945,0.493-26.794c0.702-6.181,1.396-13.431,5.664-18.36
	c1.949-2.25-0.489-4.763-2.926-3.335c-6.554,3.84-8.802,10.55-10.946,17.42c-2.785,8.918-2.787,18.966-2.723,28.226
	c0.132,18.925,2.617,37.721,3.609,56.601c1.739,33.114-0.813,66.271-1.502,99.378c-0.684,32.874,1.797,65.724,2.822,98.572
	c1.021,32.746,1.523,65.504,1.992,98.262c0.232,16.285,0.504,32.57,0.795,48.854c0.15,8.424,0.36,16.847,0.467,25.271
	c0.072,5.716,0.509,11.624,0.399,17.438C57.206,542.423,54.919,546.753,57.462,549.972z"/>
<path d="M107.6,61.523c0.553,0.936,1.49,1.328,2.563,0.935c10.658-3.909,5.712-18.976-0.286-24.727
	c-1.377-1.321-3.15-1.049-4.729-0.252c-4.483,2.26-40.193,26.964-34.209,31.631c0.432,0.336,1.262-0.511,0.867-0.931
	c-0.415-0.442,13.94-11.321,15.138-12.156c5.425-3.784,11.161-7.718,17.263-10.466c1.597,2.406,2.641,5.04,2.989,7.994
	C107.512,56.234,106.136,59.042,107.6,61.523z"/>
<path d="M196.225,93.962c12.836-0.256,23.928-10.75,24.405-23.561c0.509-13.651-18.662-21.906-29.079-14.771
	c-10.048-0.04-18.001,13.892-17.589,22.801C174.485,89.693,186.646,94.154,196.225,93.962z M189.046,66.583
	c0.152,0.108,0.3,0.219,0.475,0.316c3.095,1.728,6.685,0.753,10.05,1.562c2.51,0.603,4.733,2.793,5.744,5.071
	c2.018,4.545-2.479,6.235-6.118,6.563c-3.943,0.355-9.401-1.046-11.218-4.929C186.465,71.93,187.253,68.994,189.046,66.583z"/>
<path d="M373.275,93.46c12.223,3.985,23.831-6.547,29.613-16.143c5.627-9.341,5.069-22.526-7.203-25.387
	c-7.572-1.765-20.058,0.467-24.215,7.652c-5.117,3.682-8.872,10.274-9.879,15.611C359.975,83.765,365.389,90.888,373.275,93.46z
	 M370.748,65.188c0.069,0.138,0.133,0.277,0.22,0.413C370.75,65.26,370.7,65.155,370.748,65.188z M390.062,67.446
	c0.016,0.016,0.025,0.028,0.045,0.047c0.273,0.262,0.447,0.404,0.555,0.475c-0.002,0.111,0.044,0.334,0.201,0.773
	c0.006,0.015,0.009,0.022,0.014,0.036c0.047,0.376,0.061,0.755,0.061,1.135c-0.025-0.936-0.275,1.416-0.464,2.25
	c-0.023,0.056-0.046,0.111-0.076,0.187c-0.264,0.665-0.583,1.306-0.907,1.942c-0.061,0.119-0.187,0.336-0.307,0.54
	c-0.315,0.47-0.646,0.93-0.986,1.382c-0.147,0.196-0.311,0.378-0.466,0.567c-0.245,0.261-0.833,0.906-1.057,1.115
	c-0.375,0.348-0.773,0.668-1.172,0.989c-0.04,0.025-0.07,0.044-0.118,0.075c-0.454,0.292-0.932,0.545-1.408,0.797
	c-0.131,0.037-0.322,0.096-0.6,0.189c-0.137,0.046-0.466,0.127-0.725,0.191c-0.515,0.067-1.032,0.108-1.55,0.125
	c1.808-0.059-2.63-0.742-1.541-0.322c-5.735-2.209-6.244-7.138-4.263-11.728c0.393,0.043,0.796,0.063,1.228,0.041
	c4.367-0.231,6.684-1.42,10.688-1.528c-0.387,0.047,1.066,0.202,1.946,0.339c0.203,0.073,0.463,0.167,0.605,0.24
	C389.883,67.36,389.979,67.406,390.062,67.446z"/>
<path d="M376.789,463.266c-0.682,0.043-1.355,0.144-2.018,0.289c-4.165,0.575-8.354,0.931-12.559,1.152
	c0.941-1.982,1.277-4.215,0.696-6.438c-2.477-9.486-1.809-20.04-1.58-29.766c0.254-10.771,0.792-21.53,0.461-32.307
	c-0.306-9.973-1.786-19.777-3.926-29.506c-1.34-6.096-2.688-12.61-5.011-18.583c3.272,0.123,6.782-1.695,8.942-3.829
	c3.13-3.094,6.976-12.998-0.854-13.522c-11.933-0.799-23.383,0.576-35.249,1.54c-6.178,0.502-12.387,0.226-18.58,0.682
	c-6.914,0.509-14.697,0.523-21.233,2.972c-2.508,0.939-7.08,6.286-2.837,8.251c1.188,0.55,2.445,0.938,3.744,1.218
	c-4.682,2.911-8.678,7.521-12.156,11.386c-5.468,6.075-10.776,12.415-15.911,18.774c-4.858,6.017-9.831,11.925-14.436,18.143
	c-2.495,3.369-4.74,6.88-6.906,10.466c-2.32,3.841-4.581,6.47-3.198,11.219c0.166,0.57,0.407,1.036,0.69,1.442
	c-0.78,1.063-1.191,2.389-0.2,3.429c3.507,3.674,9.781,2.698,14.411,2.463c6.762-0.344,13.504-1.556,20.242-2.2
	c5.729-0.547,11.498-0.398,17.245-0.507c5.28-0.1,11.577-0.028,16.59-1.788c0.457-0.16,0.911-0.357,1.357-0.58
	c0.248,8.928,0.255,17.866,0.484,26.793c0.202,7.851-0.645,15.982,0.648,23.763c-7.437,1.628-14.476,4.328-19.797,9.037
	c-2.381,2.107-2.408,5.954,1.314,6.104c6.399,0.258,13.232-1.615,19.6-2.365c7.168-0.845,14.415-1.076,21.626-1.149
	c14.935-0.152,29.876,0.281,44.812,0.154C382.672,479.921,388.774,462.502,376.789,463.266z M302.388,404.035
	c-5.001,1.5-9.31,2.393-14.593,2.721c-5.265,0.327-10.533,0.463-15.768,1.16c-6.245,0.831-12.423,2.05-18.633,3.097
	c-1.339,0.226-2.741,0.41-4.164,0.605c0.698-1.52,1.218-3.129,2.078-4.834c1.464-2.899,3.231-5.623,5.019-8.329
	c3.933-5.955,8.215-11.68,12.337-17.503c4.06-5.736,8.078-11.528,12.339-17.117c4.2-5.511,9.5-10.291,13.472-15.909
	c0.421-0.596,0.661-1.235,0.745-1.849c1.777-0.012,3.534-0.065,5.211-0.066c0.796,0,1.59,0.023,2.384,0.036
	c-2.761,9.39-1.374,20.235-0.984,29.783c0.38,9.327,1.369,18.603,2.021,27.907C303.359,403.794,302.867,403.892,302.388,404.035z
	 M329.762,465.561c-2.192,0.113-4.501,0.241-6.866,0.404c-0.655-2.673-1.786-5.116-2.006-7.969
	c-0.424-5.519-0.489-11.066-0.566-16.599c-0.158-11.262-0.878-22.595-1.706-33.827c-0.837-11.338-2.469-22.612-4.099-33.857
	c-0.813-5.615-1.515-11.244-2.112-16.886c-0.374-3.525-0.549-7.133-1.448-10.537c2.839,0.114,5.678,0.228,8.521,0.262
	c7.334,0.086,15.212-1.337,22.797-1.2c-0.496,8.355,1.326,16.699,2.627,25.037c1.669,10.697,2.626,21.488,2.567,32.316
	c-0.057,10.268-1.017,20.514-1.613,30.759c-0.617,10.61-0.252,21.078,0.063,31.676C340.522,465.212,335.128,465.284,329.762,465.561
	z"/>
<g id="Page-1">
	<path id="day_thursday" d="M249.707,237.846h19.161c0-3.53-0.419-6.222-1.256-8.077c-0.568-1.286-1.974-3.141-4.218-5.564
		l3.5-7.314c2.154,2.722,3.5,4.846,4.039,6.372c0.808,2.304,1.212,6.118,1.212,11.443v3.141h3.725c2.722,0,5.146-0.688,7.27-2.064
		c1.645-1.077,3.141-2.588,4.487-4.532c1.825-2.633,4.069-4.921,6.731-6.866c2.393-1.735,4.592-2.842,6.596-3.321
		c2.064,3.141,3.71,5.968,4.936,8.481c1.645,3.41,2.468,6.178,2.468,8.302h33.431c-3.051-2.363-5.624-4.203-7.718-5.519
		c-2.603-1.645-4.981-2.842-7.135-3.59c-2.423-0.838-4.876-1.256-7.359-1.256c-1.526,0-3.066,0.105-4.622,0.314
		c0.868-2.214,2.004-3.994,3.41-5.34c2.034-1.945,4.607-2.917,7.718-2.917c3.051,0,6.656,1.496,10.815,4.487
		c2.064,1.496,5.43,4.338,10.097,8.526c3.412,3.074,5.788,4.818,7.126,5.234l-0.216,0.061h0.449h1.346h15.84l-5.34-38.053
		l-2.333-1.122c0-2.064,0.18-4.001,0.538-5.811s0.897-3.567,1.615-5.273l0.673,0.494c0,1.735,0.972,3.036,2.917,3.904
		c1.496,0.598,3.007,1.197,4.532,1.795c0,1.496-0.12,3.096-0.359,4.801c-0.239,1.705-0.523,2.977-0.853,3.814l-2.154-0.718
		l5.295,35.181v8.795h-20.597h-48.688h-3.096c-2.004,0-4.263-0.449-6.776-1.346c-2.902-1.047-5.46-2.483-7.673-4.308
		c-1.735,2.124-3.508,3.597-5.318,4.42c-1.81,0.823-4.45,1.234-7.92,1.234h-5.43h-22.437h-1.974c-1.795,0-3.373-0.247-4.734-0.74
		s-2.745-1.279-4.151-2.356c-1.256,1.137-2.378,1.9-3.366,2.289c-1.406,0.538-3.455,0.808-6.148,0.808h-5.519
		c0,2.752-0.658,5.43-1.974,8.032c-1.705,3.381-4.308,6.058-7.808,8.032c-4.398,2.483-9.902,3.725-16.513,3.725
		c-5.983,0-10.56-1.047-13.731-3.141c-3.47-2.304-5.205-5.834-5.205-10.59c0-2.573,0.314-5.175,0.942-7.808
		c0.628-2.633,1.481-5.28,2.558-7.943c0.658-1.615,1.795-4.098,3.41-7.449l1.795,0.808c-2.094,4.308-3.478,7.703-4.151,10.186
		c-0.673,2.483-1.01,4.757-1.01,6.821c0,3.71,1.324,6.529,3.971,8.459c2.648,1.93,6.424,2.894,11.331,2.894
		c5.744,0,10.874-1.002,15.392-3.007c5.624-2.483,8.436-5.953,8.436-10.411c0-2.992-0.553-5.834-1.66-8.526
		c-0.868-2.124-2.094-4.158-3.68-6.103l3.725-9.199c1.496,2.453,2.513,4.622,3.051,6.507c0.748,2.663,1.122,6.297,1.122,10.904
		h5.519c2.842,0,4.861-0.434,6.058-1.301c1.047-0.748,1.571-1.9,1.571-3.455c0-0.868-0.052-1.743-0.157-2.625
		c-0.105-0.883-0.262-1.847-0.471-2.894l1.795-2.692l0.718,4.353c0.658,2.932,1.541,5.041,2.648,6.327
		c1.227,1.436,2.962,2.154,5.205,2.154c0.688,0,1.219-0.217,1.593-0.651c0.374-0.434,0.561-0.98,0.561-1.638
		c0-1.496-0.464-3.096-1.391-4.801c-0.688-1.256-1.6-2.513-2.737-3.769l3.007-4.891c1.406,2.304,2.259,3.874,2.558,4.712
		c0.658,1.885,0.987,4.622,0.987,8.212V237.846z M391.238,234.211c0,2.393-0.434,4.712-1.301,6.955
		c-0.449,1.197-1.421,3.096-2.917,5.699l-0.808-0.449c0.09-0.868,0.172-1.87,0.247-3.007c0.075-1.137,0.112-1.9,0.112-2.289
		c0-3.111-0.247-7.456-0.74-13.036c-0.494-5.579-1.084-11.405-1.773-17.478c-0.419-3.68-0.883-7.434-1.391-11.263
		c0.598-1.316,1.279-2.737,2.042-4.263c0.763-1.526,1.488-2.962,2.176-4.308c0.479,3.41,1.084,8.077,1.817,14.001
		c0.733,5.923,1.309,11.263,1.728,16.02C390.969,226.718,391.238,231.19,391.238,234.211z M335.55,203.877l-3.41,6.507l-7.27-3.769
		l3.321-6.552L335.55,203.877z M303.196,236.814c-0.389-1.735-0.987-3.44-1.795-5.116c-0.688-1.406-1.6-2.857-2.737-4.353
		c-1.436,0.359-2.648,1.032-3.635,2.019c-0.658,0.628-1.436,1.69-2.333,3.186c1.077,1.167,2.595,2.214,4.555,3.141
		c1.96,0.927,3.807,1.496,5.542,1.705L303.196,236.814z M271.919,254.629l-3.5,6.462l-7.27-3.859l3.366-6.417L271.919,254.629z
		 M261.598,258.668l-3.41,6.507l-7.27-3.769l3.321-6.507L261.598,258.668z"/>
</g>
</svg>
