<?xml version="1.0" encoding="utf-8"?>
<!-- Generator: Adobe Illustrator 17.0.0, SVG Export Plug-In . SVG Version: 6.00 Build 0)  -->
<!DOCTYPE svg PUBLIC "-//W3C//DTD SVG 1.0//EN" "http://www.w3.org/TR/2001/REC-SVG-20010904/DTD/svg10.dtd">
<svg version="1.0" id="Layer_1" xmlns="http://www.w3.org/2000/svg" xmlns:xlink="http://www.w3.org/1999/xlink" x="0px" y="0px"
	 width="566.93px" height="566.93px" viewBox="0 0 566.93 566.93" enable-background="new 0 0 566.93 566.93" xml:space="preserve">
<path fill="#010101" d="M243.926,109.41c0.719,0,0.719-1.113,0-1.113C243.208,108.297,243.208,109.41,243.926,109.41z"/>
<path fill="#010101" d="M347.926,260.903c0.064,0,0.064-0.101,0-0.101C347.863,260.803,347.863,260.903,347.926,260.903z"/>
<path fill="#010101" d="M243.883,64.135c-0.038,0.049-0.088,0.113-0.166,0.212c0.05-0.072,0.109-0.136,0.162-0.205
	c0.001-0.001,0.002-0.003,0.003-0.004C243.883,64.137,243.883,64.136,243.883,64.135z"/>
<path fill="#010101" d="M245.849,71.111c1.333,0.075,2.665,0.152,4,0.191c1.448,0.043,2.509-0.99,2.975-2.266
	c0.576-1.578,1.152-3.146,1.356-4.819c0.177-1.448-1.148-2.854-2.445-3.212c-2.19-0.607-5.189-0.897-6.812,1.111
	c-0.546,0.676-0.852,1.313-1.04,2.019c0.073-0.093,0.065-0.083-0.001,0.002l0,0c-0.001,0.001-0.002,0.003-0.003,0.004
	c-0.059,0.076-0.151,0.195-0.313,0.403c-0.155,0.315-0.291,0.641-0.399,0.975c-0.02,0.062-0.031,0.102-0.036,0.128
	c-0.058,0.143-0.104,0.29-0.132,0.443c-0.193,0.924-0.114,1.973,0.059,2.896C243.301,70.288,244.639,71.043,245.849,71.111z"/>
<path fill="#010101" d="M267.892,360.695c10.149,3.479,21.117,5.189,31.734,6.591c11.735,1.551,23.498,2.181,35.325,1.558
	c15.567-0.821,32.206-3.577,46.713-9.527c5.284-2.167,10.788-4.927,13.978-9.865c2.77-4.285,2.351-10.236-1.857-13.248
	c-0.204-0.146-0.419-0.272-0.637-0.394c5.469-4.094,9.181-9.396,8.453-16.593c-0.25-2.472-2.197-4.199-4.746-3.615
	c-7.158,1.642-14.382,3.118-21.661,4.049c10.563-4.313,20.788-9.274,27.635-18.692c1.566-2.157-0.547-5.229-2.979-5.19
	c-20.725,0.324-39.489,10.26-59.705,13.491c-10.277,1.643-21.367,0.753-31.701,0.021c-10.496-0.74-21.133-2.411-31.095-5.872
	c-2.012-0.698-3.342,2.477-1.447,3.427c17.921,9.004,40.277,10.689,60.06,9.46c19.062-1.187,36.56-10.378,55.298-12.959
	c-10.609,8.698-26.471,11.943-38.279,17.685c-3.556,1.728-1.52,6.687,1.867,6.898c12.956,0.809,25.901-1.184,38.567-3.888
	c-3.732,9.287-20.853,13.517-28.575,16.526c-4.54,1.768-2.843,8.231,2.019,7.32c0.001,0,0.002,0,0.002-0.001c0,0,0,0,0,0.001
	c0.001,0,0.002-0.001,0.004-0.001c7.046-1.322,15.021-6.531,22.339-5.17c0.759,0.143,0.539-0.091,0.166,1.532
	c-0.479,2.088-2.306,3.366-3.995,4.491c-4.745,3.158-10.434,4.909-15.855,6.487c-13.567,3.947-28.008,5.716-42.086,5.938
	c-9.55,0.151-19.129-0.626-28.58-1.953c-9.776-1.372-19.309-3.94-29.042-5.468C265.272,353.022,263.413,359.16,267.892,360.695z"/>
<path fill="#010101" d="M127.319,309.911c11.93,10.056,24.448,19.632,37.526,28.141c13.468,8.76,28.967,17.852,45.496,17.513
	c5.805,12.172,16.78,20.981,28.874,26.741c11.519,5.484,23.998,8.637,36.617,10.578c4.06,8.062,7.551,16.092,9.232,25.067
	c1.498,8.002,1.296,16.198,1.17,24.326c-18.632-5.534-38.115-9.038-57.378-11.045c-11.497-1.197-23.221-1.642-34.662,0.291
	c-7.969,1.346-17.159,4.831-20.573,12.809c-1.026,2.399-0.188,4.506,2.234,5.493c4.162,1.696,8.446,2.826,12.795,3.655
	c-7.736,1.482-14.866,4.503-20.438,11.104c-1.547,1.833-1.432,4.538,0.754,5.854c6.777,4.079,14.151,5.22,21.708,5.081
	c-2.793,1.705-5.222,3.881-7.043,6.819c-1.333,2.149,0.018,4.715,2.227,5.473c18.032,6.178,37.978,4.533,56.458,1.539
	c19.296-3.127,38.337-8.729,56.451-16.045c6.691-2.702,12.853-6.804,15.578-13.767c2.894-7.387,1.935-15.739,1.463-23.462
	c-0.502-8.264-2.051-16.411-4.352-24.359c-1.565-5.409-3.637-11.865-7.656-16.208c7.799,0.291,15.614,0.217,23.413-0.143
	c2.913,11.697,6.123,23.399,8.176,35.268c1.123,6.495,2.033,13.416,1.043,19.991c-0.778,5.162-4.125,8.914-7.854,12.328
	c-9.703,8.882-22.241,14.777-33.609,21.177c-10.458,5.887-21.975,12.074-29.679,21.53c-2.037,2.499-0.734,5.917,2.56,6.178
	c10.824,0.857,20.631-2.31,30.245-6.326c-0.804,0.676-1.593,1.369-2.353,2.101c-5.907,5.685-10.605,17.251-0.249,21.339
	c8.67,3.422,19.849-3.211,27.184-7.2c3.276-1.782,6.603-3.984,9.942-6.2c-2.65,5.659-3.126,11.441,2.296,14.927
	c5.296,3.405,13.036-1.337,17.397-4.111c8.412-5.353,15.584-12.199,20.48-20.94c11.045-19.714,0.313-41.104-6.181-60.422
	c-5.677-16.882-4.095-36.686-14.086-51.843c33.255-4.493,66.273-16.12,92.354-37.528c18.052-14.818,29.064-34.656,36.396-56.533
	c7.822-23.348,11.658-48.319,12.555-72.884c0.152-4.17-5.338-5.14-7.414-2.009c-9.557,14.418-18.074,29.646-30.688,40.93
	c7.365-15.264,9.454-32.829,2.563-48.933c-1.445-3.378-6.379-2.014-7.279,0.952c-1.889,6.214-4.48,11.949-7.458,17.453
	c-0.608-3.16-4.815-4.859-7.107-1.384c-0.849,1.286-2.323,2.141-3.242,3.443c-0.652,0.923-0.589,1.964-0.128,2.825
	c-16.844,28.131-49.648,41.227-80.999,47.061c-15.94,2.967-32.069,3.391-48.241,3.173c-8.881-0.119-17.741-0.578-26.423-2.587
	c-4.981-1.153-9.228-2.916-13.296-5.237c0.179-0.517,0.282-1.08,0.282-1.688c0.002-15.527,1.719-30.935,2.409-46.438
	c0.727-16.322,0.921-32.665,1.157-49c0.233-16.246,0.534-32.488,1.274-48.72c0.353-7.711,0.862-15.414,1.518-23.105
	c0.353-4.145,0.208-11.359,2.991-14.507c1.751-1.979,4.691-3.625,6.822-5.729c2.022-1.997,3.727-4.257,5.134-6.691
	c0.357,0.836,0.964,1.59,1.837,2.137c19.232,12.063,44.777,19.901,67.615,15.723c14.38-2.631,30.52-7.962,41.866-17.425
	c5.021-4.186,7.946-10.619,5.04-16.89c-3.633-7.841-11.913-8.505-19.541-7.746c-9.254,0.921-18.211,4.34-27.47,4.769
	c-15.53,0.717-31.435-1.71-46.502-5.216c-7.23-1.68-14.347-3.612-21.586-5.158c-1.619-3.097-3.815-5.901-6.575-8.2
	c-14.86-12.375-39.73-10.502-56.06-2.33c-14.879,7.446-20.793,23.847-22.492,39.365c-2,18.275,1.468,37.083,4.953,54.968
	c3.875,19.882,7.931,39.513,9.976,59.711c2.918,28.829,1.473,57.604,0.735,86.483c-0.019,0.765,0.235,1.327,0.631,1.699
	c-4.861,21.123-17.366,41.041-9.641,63.2c0.152,0.436,0.331,0.856,0.495,1.284c-15.649-2.785-29.87-11.065-42.941-19.772
	c-12.132-8.081-23.621-17.277-34.699-26.738c-18.773-16.031-37.944-35.451-46.755-59.063c10.3,10.307,21.206,19.806,35.325,24.772
	c3.529,1.241,5.597-3.436,3.413-5.862c-9.766-10.86-20.099-21.54-24.988-35.602c-3.513-10.104-6.945-21.254-6.798-32.042
	c0.021-1.593,0.208-3.234,1.038-4.618c0.871-1.453,1.713,0.158,2.687,1.257c3.488,3.943,5.614,9.428,7.969,14.078
	c7.145,14.114,19.563,25.353,30.045,36.974c2.933,3.251,7.372-0.875,5.703-4.399c-3.825-8.078-18.474-27.226-6.799-34.178
	c14.394-8.57,33.919,2.286,43.794,15.276c-6.445-0.979-12.656-0.236-16.652,6.563c-3.98,6.772-4.489,17.769,0.747,23.944
	c5.771,6.81,14.425,10.934,22.51,5.121c4.913-3.532,7.164-9.163,7.368-14.946c3.651,3.413,5.669,7.968,4.085,13.624
	c-2.313,8.263-11.44,11.623-19.188,11.461c-1.995-0.042-4.187,1.843-3.965,3.966c1.757,16.891,17.636,30.03,30.146,39.816
	c3.999,3.128,9.681-2.476,5.635-5.635c-5.479-4.279-10.728-8.825-15.582-13.808c-4.438-4.556-9.483-10.289-11.478-16.667
	c9.932-1.244,18.701-7.044,22.054-17.032c3.961-11.804-4.479-22.523-14.823-27.079c-0.328-0.145-0.674-0.24-1.026-0.3
	c1.567-1.01,2.203-3.254,1.351-5.236c-8.835-20.56-36.424-35.496-57.728-25.921c-10.099,4.538-10.278,13.303-7.348,22.334
	c-1.78-2.037-3.531-4.099-5.239-6.2c-4.624-5.685-7.588-11.813-10.99-18.242c-2.246-4.246-5.469-10.786-10.545-12.239
	c-4.822-1.38-8.478,2.194-10.067,6.425c-1.946,5.179-0.625,11.781,0.255,17.029c1.131,6.749,3.013,13.39,5.105,19.895
	c3.329,10.347,8.916,19.029,15.443,27.178c-9.472-6.716-17.536-15.481-25.873-23.65c-2.43-2.379-6.212,0.034-5.506,3.205
	C81.485,266.688,104.084,290.326,127.319,309.911z M296.92,399.511c4.802,3.113,6.521,11.716,7.925,16.798
	c2.047,7.408,3.072,14.854,3.543,22.506c0.391,6.35,1.271,13.65-1.786,19.505c-3.321,6.356-11.772,8.555-17.983,10.851
	c-16.12,5.959-32.855,10.434-49.817,13.196c-14.608,2.381-30.355,3.5-44.936,0.002c3.519-2.3,8.147-3.496,11.779-4.629
	c6.078-1.896,12.411-3.318,18.081-6.305c3.188-1.68,1.828-7.219-1.878-6.937c-13.994,1.067-30.78,6.84-44.543,1.698
	c12.667-9.806,32.589-5.922,47.534-8.376c3.623-0.595,3.534-6.53,0-7.201c-13.928-2.646-28.57-2.117-42.157-6.298
	c3.849-3.797,10.015-5.057,15.239-5.863c10.868-1.677,22.309-0.68,33.17,0.504c19.401,2.115,39.113,6.031,57.78,11.795
	c2.283,0.705,4.656-1.205,4.644-3.537c-0.096-17.601-1.68-39.191-13.028-53.669c3.2,0.42,6.402,0.772,9.594,1.071
	c1.767,0.166,3.538,0.297,5.308,0.423C294.878,396.575,295.192,398.39,296.92,399.511z M370.198,489.629
	c-1.133,14.717-15.251,29.446-28.8,34.083c-4.052,1.388-3.224-1.38-2.242-4.399c1.75-5.385,6.06-9.937,10.292-13.489
	c2.743-2.304-0.182-7.507-3.578-6.146c-6.893,2.758-13.078,7.563-19.395,11.396c-7.42,4.502-16.116,10.328-24.958,11.321
	c-2.479,0.277-5.103-0.125-5.019-3.118c0.101-3.554,5.114-7.261,7.49-9.291c6.994-5.977,15.781-9.845,22.432-16.188
	c2.641-2.521-0.066-7.097-3.542-6.084c-15.606,4.546-29.982,14.653-46.154,16.664c7.867-6.753,17.636-11.644,26.474-16.591
	c11.553-6.467,24.145-12.8,33.254-22.645c8.737-9.439,7.528-21.645,5.44-33.491c-2.224-12.627-6.436-24.661-11.319-36.449
	c4.057-0.231,8.107-0.538,12.146-0.917c-0.542,1.045-1.017,2.123-1.386,3.245c-0.858,2.599,2.541,4.226,4.36,2.538
	c0.484-0.448,0.972-0.829,1.456-1.185c7.212,11.559,6.682,27.1,9.697,39.972C360.755,455.547,371.552,472.026,370.198,489.629z
	 M299.226,67.789c6.883,2.226,14.046,4.313,21.191,5.412c13.209,2.033,27.652,4.79,40.985,2.469
	c8.514-1.481,16.803-4.106,25.506-4.326c2.296-0.059,4.978-0.014,5.851,2.152c0.289,0.722,0.223,1.013,0.043,1.63
	c-0.072,0.253-1.03,1.672-1.666,2.349c-4.558,4.851-11.728,7.593-17.813,9.893c-6.614,2.5-13.485,4.493-20.424,5.86
	c-2.675,0.526-3.847,0.545-7.489,0.609c-7.039,0.125-14.021-0.793-20.883-2.295c-6.779-1.483-13.402-3.75-19.67-6.718
	c-5.319-2.519-10.544-7.783-16.304-5.095c0.216-0.634,0.419-1.273,0.602-1.919c1.259-4.464,1.417-9.151,0.565-13.618
	C292.751,65.583,295.909,66.717,299.226,67.789z M243.387,57.178c0.328,0.091,0.674,0.115,1.014,0.043
	c6.715-1.419,14.829-1.625,19.426,4.458c4.838,6.401-0.219,14.461-7.012,16.318c-6.279,1.718-13.8-1.008-16.931-6.756
	c-2.013-3.693-1.067-8.916,1.438-12.077C241.93,58.396,242.63,57.747,243.387,57.178z M217.197,310.137
	c2.029-7.448,3.909-15.1,4.591-22.828c0.201-0.307,0.349-0.667,0.404-1.091c4.201-32.402,3.64-65.819,0.371-98.276
	c-2.126-21.108-6.696-41.753-9.746-62.717c-2.714-18.658-5.373-41.364,4.01-58.644c5.963-10.981,18.295-16.131,30.755-16.845
	c-0.951,0.381-1.854,0.877-2.693,1.494c-8.456,2.149-13.884,11.472-11.639,20.763c2.599,10.75,15.823,14.62,25.407,12.689
	c11.527-2.322,17.438-15.668,12.041-25.854c-1.781-3.361-4.976-6.152-8.669-7.943c1.255,0.28,2.485,0.599,3.677,0.968
	c7.163,2.217,12.188,7.195,13.669,14.614c1.518,7.595-2.633,16.046-8.605,20.609c-4.767,3.643-7.711,6.846-9.212,12.87
	c-2.717,10.905-2.62,23.007-3.245,34.179c-1.383,24.696-1.311,49.455-1.811,74.178c-0.412,20.42-2.432,40.807-3.034,61.202
	c-1.465,0.963-2.434,2.746-2.006,4.922c0.487,2.472,1.653,4.802,2.028,7.268c0.508,3.335,3.508,4.435,6.234,3.84
	c3.621,3.003,8.23,5.053,12.422,6.65c8.646,3.291,18.62,3.921,27.771,4.4c17.616,0.926,35.413,0.2,52.818-2.684
	c25.919-4.294,55.828-14.719,75.274-34.337c-0.398,0.625-0.797,1.249-1.192,1.879c-2.101,3.345,2.916,7.334,5.521,4.261
	c8.845-10.434,16.546-22.08,22.01-34.671c2.115,16.142-4.935,33.235-15.311,45.37c-2.997,3.504,0.694,8.203,4.823,6.252
	c18.796-8.886,30.231-24.906,41.083-41.585c-1.972,22.182-6.623,44.259-14.599,65.007c-9.326,24.26-26.001,42.679-48.266,55.833
	c-32.867,19.42-71.232,25.825-108.9,25.819c-26.756-0.004-56.932-2.59-79.925-17.6c-10.116-6.604-17.229-16.059-19.869-27.916
	C210.953,331.285,214.343,320.614,217.197,310.137z M181.046,236.264c1.764,5.242,1.633,10.824-2.417,14.968
	c-4.498,4.604-10.007-0.054-13.008-3.791c-2.89-3.6-1.371-10.726,0.425-14.467c3.023-6.3,11.986-2.292,16.78-1.058
	c0.022,0.006,0.042,0.007,0.064,0.012C181.367,232.671,180.36,234.222,181.046,236.264z"/>
</svg>
