<?xml version="1.0" encoding="UTF-8" standalone="no"?><!DOCTYPE svg PUBLIC "-//W3C//DTD SVG 1.1//EN" "http://www.w3.org/Graphics/SVG/1.1/DTD/svg11.dtd"><svg width="100%" height="100%" viewBox="0 0 431 338" version="1.1" xmlns="http://www.w3.org/2000/svg" xmlns:xlink="http://www.w3.org/1999/xlink" xml:space="preserve" style="fill-rule:evenodd;clip-rule:evenodd;stroke-linejoin:round;stroke-miterlimit:1.41421;"><g id="elephant"><path d="M101.411,62.458c1.287,-4.357 -1.547,-9.296 -5.218,-11.659c-5.333,-3.434 -12.077,-3.965 -18.224,-2.917c-12.673,2.163 -22.472,12.071 -24.606,24.739c-2.136,12.681 4.868,25.823 16.104,31.706c5.278,2.763 10.315,3.197 15.906,1.601c3.195,-0.914 7.844,-1.842 10.414,-4.116c1.829,-1.617 0.448,-5.174 -2.053,-4.957c-1.061,0.092 -1.819,0.508 -2.7,1.081c-2.026,1.318 -1.399,4.949 1.302,4.804c0.462,-0.024 0.936,-0.072 1.397,-0.077c-0.489,-1.804 -0.977,-3.607 -1.466,-5.411c-0.876,0.663 -4.114,1.515 -5.693,2.052c-3.887,1.322 -6.737,2.201 -10.808,1.166c-10.318,-2.625 -16.812,-13.256 -17.118,-23.433c-0.287,-9.495 5.801,-17.922 14.033,-22.072c4.759,-2.399 10.939,-2.836 16.142,-2.075c6.136,0.897 8.32,4.292 10.438,9.569c0.396,0.98 1.814,1.134 2.15,-0.001Z" style="fill:#010101;fill-rule:nonzero;"/><path d="M103.58,64.505c4.112,-17.396 28.559,-20.466 42.946,-16.403c12.715,3.59 22.133,13.162 20.972,26.893c-1.062,12.548 -10.854,23.242 -21.482,28.95c-14.59,7.836 -39.071,7.626 -47.107,-9.284c-1.356,1.356 -2.715,2.715 -4.072,4.072c2.156,1.643 3.271,3.61 5.991,4.283c1.501,0.372 3.219,-1.376 2.17,-2.823c-1.617,-2.232 -2.299,-4.323 -4.555,-6.135c-2.646,-2.125 -6.171,0.458 -4.675,3.607c8.819,18.576 34.134,20.328 51.115,13.359c13.352,-5.479 24.405,-17.158 27.725,-31.375c8.483,-36.339 -44.761,-49.647 -66.492,-27.216c-3.076,3.175 -4.715,7.371 -5.065,11.729c-0.121,1.463 2.199,1.742 2.529,0.343Z" style="fill:#010101;fill-rule:nonzero;"/><path d="M76.102,105.493c-12.106,14.531 -19.306,33.878 -24.489,51.858c-5.613,19.475 -8.313,39.872 -7.778,60.13c0.521,19.745 4.631,39.272 12.485,57.399c4.202,9.695 10.028,18.345 15.369,27.407c1.5,2.547 3.327,4.979 4.88,7.514c0.999,1.632 2.146,3.863 4.126,4.43c1.211,0.346 2.625,-0.204 3.239,-1.318c0.724,-1.312 0.383,-2.521 -0.144,-3.812c-1.021,-2.5 -5.635,-2.514 -5.202,0.704c0.259,1.929 -0.392,0.929 0.841,-0.368c1.158,-0.149 2.316,-0.299 3.476,-0.448c1.049,0.62 -0.434,-1.005 -0.71,-1.451c-0.667,-1.082 -1.331,-2.166 -1.993,-3.25c-1.614,-2.646 -3.415,-5.146 -5.022,-7.791c-5.317,-8.748 -10.655,-17.276 -14.635,-26.75c-7.353,-17.502 -10.524,-36.508 -10.866,-55.411c-0.339,-18.739 2.416,-37.442 7.346,-55.492c4.993,-18.281 13.333,-34.732 20.808,-52.016c0.452,-1.049 -0.86,-2.382 -1.731,-1.335Z" style="fill:#010101;fill-rule:nonzero;"/><path d="M89.431,311.034c4.756,-2.61 9.295,-6.459 15.055,-6.056c3.755,0.265 3.813,-5.852 0,-5.876c-6.387,-0.04 -13.427,3.916 -17.682,8.526c-1.672,1.813 0.437,4.608 2.627,3.406Z" style="fill:#010101;fill-rule:nonzero;"/><path d="M109.251,300.635c-10.395,-25.402 -21.973,-53.643 -9.521,-80.622c8.081,-17.51 25.701,-28.021 44.698,-28.705c47.09,-1.697 74.593,52.313 83.622,91.456c2.492,10.803 4.846,21.637 7.313,32.445c0.916,4.019 1.84,8.035 2.86,12.028c0.524,2.061 1.191,5.068 3.19,6.216c4.271,2.453 8.11,-4.137 3.849,-6.584c1.402,0.807 1.732,2.782 1.218,0.681c-0.248,-1.009 -0.469,-2.021 -0.726,-3.025c-0.888,-3.473 -1.685,-6.97 -2.485,-10.463c-2.033,-8.848 -3.981,-17.715 -5.978,-26.569c-4.523,-20.076 -11.229,-39.138 -21.661,-57.02c-11.687,-20.031 -29.229,-38.192 -52.035,-44.703c-17.848,-5.095 -37.863,-1.934 -52.878,9.058c-34.758,25.438 -25.531,75.746 -5.094,107.337c1.162,1.795 4.516,0.642 3.628,-1.53Z" style="fill:#010101;fill-rule:nonzero;"/><path d="M100.724,58.163c-0.015,0.526 0.375,-0.662 0.688,-1.348c0.548,-1.188 1.983,-2.115 2.912,-2.99c3.434,-3.235 7.457,-5.899 11.367,-8.513c8.07,-5.392 16.464,-10.39 25.051,-14.915c13.321,-7.018 28.62,-11.059 43.281,-14.113c19.173,-3.995 38.774,-5.064 58.313,-5.141c0,-1.988 0,-3.976 0,-5.964c-2.934,0.237 -5.816,0.853 -8.617,1.745c-2.042,0.651 -2.384,4.011 0,4.475c2.994,0.582 5.62,-0.022 8.617,-0.255c3.785,-0.293 3.891,-5.965 0,-5.964c-34.408,0.012 -72.196,3.871 -103.167,20.076c-8.959,4.688 -17.624,10.105 -25.935,15.855c-4.936,3.415 -14.86,8.849 -15.443,15.709c-0.05,0.576 0.365,1.285 0.882,1.538c0.642,0.314 1.188,0.419 1.857,0.138c0.125,-0.052 0.19,-0.21 0.194,-0.333Z" style="fill:#010101;fill-rule:nonzero;"/><path d="M133.411,25.458c2.729,-16.721 -18.007,-22.415 -30.607,-23.811c-17.755,-1.965 -35.026,1.458 -50.951,9.379c-20.506,10.198 -37.497,27.729 -46.029,49.039c-8.315,20.771 -6.098,46.458 7.79,64.362c10.351,13.344 28.597,22.421 45.726,20.289c2.579,-0.321 3.79,-4.571 0.679,-5.018c-11.533,-1.656 -21.918,-2.691 -31.859,-9.408c-9.926,-6.707 -16.151,-17.757 -19.217,-29.091c-6.515,-24.098 3.409,-48.603 20.076,-66.06c14.402,-15.085 34.24,-25.56 55.042,-27.712c14.212,-1.471 37.226,-1.813 45.16,12.786c0.887,1.632 1.516,3.468 2.045,5.244c0.289,0.979 1.957,1.147 2.145,0.001Z" style="fill:#010101;fill-rule:nonzero;"/><path d="M207.365,56.446c3.152,-20.86 24.702,-36.543 42.581,-44.721c19.411,-8.877 43.971,-5.698 62.25,4.389c19.104,10.54 31.992,30.087 34.348,51.729c1.299,11.94 -0.36,24.688 -5.448,35.599c-5.307,11.375 -14.683,20.27 -24.901,27.261c-12.389,8.475 -26.788,12.7 -41.766,11.268c-14.84,-1.419 -27.379,-9.504 -39.979,-16.709c-2.141,-1.224 -4.55,1.737 -2.67,3.46c19.718,18.078 48.739,24.688 73.71,14.521c22.243,-9.057 41.117,-28.417 45.891,-52.308c4.221,-21.127 -0.47,-43.342 -13.599,-60.475c-12.592,-16.434 -31.599,-26.271 -51.93,-28.963c-18.865,-2.498 -36.271,2.47 -51.916,12.891c-13.082,8.713 -30.477,24.273 -28.665,41.775c0.113,1.096 1.901,1.563 2.094,0.283Z" style="fill:#010101;fill-rule:nonzero;"/><path d="M152.066,186.639c1.443,-4.691 2.957,-8.864 5.748,-12.957c1.595,-2.339 3.688,-4.327 5.794,-6.193c0.832,-0.735 5.416,-4.614 6.614,-4.42c-0.578,-1.419 -1.155,-2.838 -1.732,-4.257c-0.254,0.417 -1.64,1.757 -1.771,3.352c-0.055,0.671 0.53,1.429 1.188,1.56c2.295,0.457 4.155,-0.113 5.588,-1.985c1.09,-1.422 -0.021,-3.95 -1.731,-4.257c-5.434,-0.973 -11.923,5.752 -15.201,9.42c-4.515,5.054 -8.402,12.315 -8.018,19.263c0.11,2.011 2.914,2.447 3.521,0.474Z" style="fill:#010101;fill-rule:nonzero;"/><path d="M171.153,150.47c-2.001,3.684 -0.46,7.82 1.609,11.137c0.905,1.451 2.04,2.774 3.155,4.066c0.447,0.519 0.885,0.963 1.438,1.374c0.659,0.49 -0.15,-0.427 0.116,0.124c0.743,1.537 2.691,1.392 3.814,0.492c2.493,-1.998 -0.464,-5.361 -1.944,-6.804c-3.101,-3.017 -4.258,-6.072 -5.684,-10.062c-0.376,-1.055 -1.899,-1.441 -2.504,-0.327Z" style="fill:#010101;fill-rule:nonzero;"/><path d="M84.823,76.648c-0.79,0.946 -1.742,1.453 -2.341,2.568c-0.448,0.835 -0.501,1.594 -0.321,2.506c0.137,0.69 0.477,1.387 0.688,2.059c0.323,1.024 0.251,2.324 1.055,3.129c2.736,2.735 6.755,-2.693 7.952,-4.621c0.989,-1.593 1.519,-3.386 1.167,-5.246c-0.48,-2.553 -2.978,-3.288 -5.179,-3.565c-2.161,-0.272 -4.317,0.171 -5.916,1.708c-1.658,1.592 -2.281,4.22 -3.112,6.282c-0.654,1.622 0.976,3.292 2.522,3.311c1.811,0.021 4.177,0.509 5.907,-0.22c2.206,-0.928 3.226,-3.091 4.409,-5.041c1.067,-1.758 -0.313,-4.022 -2.316,-4.037c-1.667,-0.011 -3.333,-0.021 -5,-0.034c-1.227,-0.008 -2.277,0.839 -2.62,1.995c-0.514,1.73 -0.389,3.464 0.956,4.778c1.115,1.091 2.306,1.131 3.458,2.008c1.881,1.434 3.8,-0.924 3.512,-2.7c-0.208,-1.284 -0.999,-2.199 -2.08,-2.868c-0.335,-0.207 -0.713,-0.358 -1.07,-0.524c-0.613,-0.287 0.433,0.873 0.465,0.751c-0.873,0.665 -1.747,1.33 -2.62,1.995c1.667,-0.011 3.333,-0.022 5,-0.034c-0.772,-1.346 -1.544,-2.691 -2.317,-4.037c-0.481,0.818 -0.953,1.645 -1.458,2.448c-0.024,0.04 -0.568,0.763 -0.178,0.286c-0.458,0.56 0.115,0.006 -0.183,0.17c0.69,-0.381 -0.285,-0.052 0.433,-0.134c-0.334,0.039 -0.676,0.025 -1.011,0.022c-1.097,-0.01 -2.19,-0.056 -3.286,-0.054c0.841,1.104 1.681,2.207 2.521,3.311c0.475,-1.223 0.863,-2.496 1.482,-3.655c0.178,-0.333 0.434,-0.6 0.278,-0.483c0.214,-0.16 0.494,-0.26 0.991,-0.293c0.73,-0.048 1.473,0.04 2.196,0.121c-0.471,-0.053 0.153,0.252 -0.099,0.012c-0.151,-0.144 -0.165,-0.259 -0.188,-0.455c0.075,0.636 -0.297,1.351 -0.763,2.144c-0.508,0.865 -1.15,1.623 -1.854,2.335c-0.278,0.282 -0.581,0.547 -0.882,0.805c0.332,-0.284 -0.065,0.026 -0.136,0.069c0.933,-0.561 2.646,2.155 2.502,1.141c-0.198,-1.406 -0.977,-2.749 -1.772,-3.891c-0.248,-0.355 -0.229,-0.168 -0.162,-0.547c0.167,-0.921 0.244,-1.941 0.583,-2.804c0.265,-0.675 -0.757,-1.256 -1.213,-0.711Z" style="fill:#010101;fill-rule:nonzero;"/><path d="M141.757,74.17c-2.914,1.608 -5.179,4.382 -6.001,7.625c-1.173,4.621 3.349,6.516 7.022,6.965c4.602,0.562 11.542,-0.614 10.776,-6.801c-0.551,-4.445 -4.071,-8.543 -8.178,-10.177c-1.97,-0.783 -4.331,-0.762 -6.133,0.442c-2.501,1.672 -3.251,4.6 -3.62,7.41c-0.154,1.167 -0.154,2.353 -0.127,3.527c0.037,1.553 1.265,2.832 2.84,2.839c2.919,0.014 5.771,-0.111 8.457,-1.348c2.173,-1 3.659,-3.187 5.054,-5.023c1.508,-1.987 -0.63,-4.126 -2.511,-4.376c-2.493,-0.331 -5.989,-0.443 -7.212,2.324c-0.9,2.035 -0.457,4.418 -0.473,6.584c-0.017,2.512 3.871,3.879 5.001,1.354c0.776,-1.735 0.864,-3.259 0.794,-5.121c-0.042,-1.088 -0.045,0.225 -0.928,0.537c0.614,-0.217 2.013,0.037 2.817,0.138c-0.837,-1.459 -1.675,-2.917 -2.512,-4.376c-0.86,1.153 -1.741,2.324 -2.945,2.977c-1.505,0.813 -3.873,0.627 -5.543,0.652c0.945,0.946 1.893,1.894 2.839,2.84c-0.05,-1.148 -0.104,-2.417 0.045,-3.517c0.138,-1.016 0.426,-1.924 0.681,-2.39c0.354,-0.646 -0.027,-0.05 0.226,-0.326c0.515,-0.563 -0.265,0.083 0.371,-0.26c-0.808,0.436 0.812,-0.081 -0.151,0.029c0.211,-0.024 1.202,0.079 0.416,-0.043c0.266,0.041 0.525,0.117 0.783,0.195c0.716,0.218 -0.15,-0.119 0.539,0.23c0.616,0.312 1.499,0.966 1.563,1.02c1.325,1.108 1.8,1.712 2.527,3.147c-0.004,-0.008 0.299,0.77 0.411,1.38c-0.124,-0.671 -0.025,0.268 -0.037,0.461c0.054,-0.867 -0.327,0.68 0.016,-0.066c-0.276,0.601 0.134,-0.057 -0.129,0.24c-0.415,0.469 0.118,0.009 -0.468,0.345c-0.208,0.12 -1.282,0.405 -1.979,0.46c-1.24,0.098 -5.922,0.396 -6.048,-1.346c-0.166,-2.292 1.536,-5.263 3.208,-6.75c1.003,-0.888 -0.278,-2.415 -1.391,-1.801Z" style="fill:#010101;fill-rule:nonzero;"/><path d="M350.144,282.506c-9.771,13.014 -13.089,33.34 -7.039,48.438c0.534,1.333 1.394,2.014 2.834,2.157c8.397,0.838 16.959,0.749 25.376,0.28c5.354,-0.299 15.094,-0.021 18.633,-4.895c1.442,-1.986 -0.921,-4.345 -2.965,-3.855c-6.129,1.465 -11.794,2.617 -18.175,2.934c-7.612,0.375 -15.271,0.244 -22.869,-0.341c0.846,0.483 1.69,0.97 2.537,1.455c-3.269,-7.651 -3.476,-15.687 -1.99,-23.775c1.347,-7.323 4.674,-14.116 6.035,-21.396c0.281,-1.502 -1.493,-2.18 -2.377,-1.002Z" style="fill:#010101;fill-rule:nonzero;"/><path d="M275.65,289.336c7.089,4.566 11.764,9.275 14.736,17.367c1.368,3.727 2.239,7.648 2.749,11.582c0.301,2.315 1.645,8.869 0.354,10.914c1.336,-0.352 2.673,-0.701 4.009,-1.052c-0.047,-0.021 -0.095,-0.042 -0.142,-0.063c0.482,0.844 0.968,1.688 1.452,2.532c-0.159,-2.35 -0.313,-4.612 -2.948,-5.354c-1.061,-0.298 -2.104,0.354 -2.422,1.375c-0.422,1.353 -0.623,2.545 -0.494,3.979c0.131,1.447 0.836,2.279 2.152,2.826c0.048,0.021 0.096,0.039 0.144,0.061c1.203,0.5 2.696,-0.325 3.31,-1.348c1.941,-3.233 0.729,-9.063 0.328,-12.631c-0.593,-5.281 -1.838,-10.48 -3.873,-15.394c-3.198,-7.724 -9.633,-16.507 -18.668,-17.33c-1.434,-0.128 -1.735,1.861 -0.687,2.536Z" style="fill:#010101;fill-rule:nonzero;"/><path d="M240.728,332.204c8.155,6.194 21.758,5.172 31.456,3.731c4.273,-0.635 8.527,-1.412 12.781,-2.165c1.555,-0.273 3.121,-0.634 4.691,-0.797c0.62,-0.064 1.239,-0.161 1.85,-0.286c2.414,-0.492 -0.088,-0.179 -1.174,-1.022c0,-1.246 0,-2.49 0,-3.735c0.476,-0.529 -0.883,1.055 -1.098,1.653c-0.335,0.933 0.219,1.971 1.001,2.461c0.965,0.606 2.32,0.692 3.297,0.033c1.529,-1.033 1.623,-2.761 0.534,-4.147c-1.214,-1.547 -4.18,-0.88 -5.8,-0.488c-4.155,1.004 -8.453,1.636 -12.655,2.419c-3.568,0.667 -7.186,1.424 -10.813,1.684c-7.979,0.568 -15.588,-0.817 -23.463,-1.588c-1.338,-0.132 -1.442,1.613 -0.607,2.247Z" style="fill:#010101;fill-rule:nonzero;"/><path d="M274.75,290.165c23.65,10.517 53.334,3.339 77.371,-2.155c3.784,-0.865 2.1,-6.258 -1.569,-5.693c-1.819,0.28 -3.546,0.87 -4.872,2.189c-1.354,1.347 -0.551,3.291 1.033,3.917c1.701,0.672 2.877,-0.165 4.623,-0.309c-0.262,-1.933 -0.522,-3.865 -0.785,-5.799c-12.581,3.132 -25.219,5.944 -38.146,7.184c-12.538,1.203 -24.622,-0.18 -37.066,-1.496c-1.128,-0.12 -1.624,1.701 -0.589,2.162Z" style="fill:#010101;fill-rule:nonzero;"/><path d="M345.793,48.136c20.733,6.144 34.108,26.303 43.521,44.53c11.379,22.036 17.831,46.293 19.769,70.963c2.183,27.772 -0.953,55.324 -5.654,82.661c-4.618,26.854 -8.459,55.005 -22.506,78.876c-2.597,4.414 4.13,8.297 6.828,3.99c1.646,-2.627 1.354,-4.938 0.555,-7.813c-0.827,-2.981 -5.067,-2.895 -5.937,0c-0.382,1.271 -0.73,2.685 -1.446,3.822c2.276,1.33 4.553,2.66 6.828,3.99c13.877,-23.562 18.276,-51.058 22.799,-77.613c4.681,-27.486 8.252,-54.795 6.785,-82.755c-1.308,-24.908 -7.028,-49.084 -17.593,-71.688c-8.771,-18.77 -21.282,-39.037 -40.142,-49.003c-4.153,-2.195 -8.6,-3.514 -13.264,-3.981c-2.368,-0.238 -2.681,3.387 -0.543,4.021Z" style="fill:#010101;fill-rule:nonzero;"/><path d="M413.879,180.564c1.574,8.775 4.944,17.332 6.723,26.132c1.812,8.969 2.771,18.101 3.38,27.221c0.594,8.888 0.698,17.809 0.753,26.713c0.057,9.12 -0.546,18.902 1.473,27.845c0.254,1.123 2.006,1.12 2.26,0c2.033,-8.935 1.638,-18.725 1.664,-27.845c0.026,-9.499 -0.254,-18.996 -0.945,-28.471c-0.658,-9.01 -1.882,-17.959 -3.727,-26.803c-1.781,-8.545 -4.048,-18.537 -8.815,-25.957c-0.963,-1.496 -3.065,-0.5 -2.766,1.165Z" style="fill:#010101;fill-rule:nonzero;"/><path d="M344.543,325.516c3.478,-2.17 7.215,-2.921 11.209,-1.814c1.562,0.432 3.098,1.311 3.963,2.704c0.787,1.267 -0.242,2.968 0.568,4.371c0.285,0.492 0.842,0.677 1.377,0.561c2.661,-0.576 2.703,-3.929 1.779,-5.949c-1.095,-2.394 -3.174,-3.736 -5.561,-4.656c-4.529,-1.744 -12.199,-0.991 -13.938,4.321c-0.111,0.34 0.305,0.65 0.603,0.462Z" style="fill:#010101;fill-rule:nonzero;"/><path d="M365.991,328.816c1.19,-1.218 2.396,-2.813 4.274,-2.287c1.78,0.5 2.323,2.438 3.564,3.533c1.388,1.226 3.47,0.047 3.064,-1.784c-0.556,-2.507 -3.704,-4.652 -6.12,-5.046c-3.135,-0.51 -5.689,1.713 -6.331,4.685c-0.188,0.875 0.873,1.593 1.549,0.899Z" style="fill:#010101;fill-rule:nonzero;"/><path d="M244.004,331.346c1.268,-5.665 5.237,-7.219 10.496,-5.274c1.586,0.585 3.875,1.854 4.543,3.523c0.5,1.247 0.445,3.417 2.387,3.271c0.966,-0.071 1.672,-0.584 1.984,-1.512c3.137,-9.275 -23.382,-16.107 -20.744,-0.009c0.112,0.683 1.19,0.642 1.334,0.001Z" style="fill:#010101;fill-rule:nonzero;"/><path d="M265.853,330.464c1.464,-2.306 4.348,-3.153 6.944,-2.966c1.168,0.086 2.396,0.569 3.298,1.314c1.133,0.938 0.778,2.143 1.202,3.383c0.709,2.068 3.473,2.061 4.184,0c1.429,-4.138 -3.686,-7.505 -7.135,-7.958c-4.463,-0.585 -8.152,1.524 -9.585,5.766c-0.225,0.665 0.741,1.014 1.092,0.461Z" style="fill:#010101;fill-rule:nonzero;"/><path d="M82.669,286.306c2.715,1.938 6.382,2.122 9.534,1.381c2.6,-0.61 6.315,-2.933 5.671,-5.947c-0.147,-0.688 -0.859,-1.171 -1.537,-1.171c-2.102,-0.001 -3.326,2.014 -5.133,2.909c-2.544,1.263 -5.205,0.591 -7.867,0.36c-1.438,-0.125 -1.632,1.781 -0.668,2.468Z" style="fill:#010101;fill-rule:nonzero;"/><path d="M80.392,271.106c4.2,3.76 12.498,4.986 15.292,-1.218c0.978,-2.171 -1.397,-4.048 -3.254,-2.512c-1.578,1.306 -2.641,2.564 -4.822,2.72c-2.108,0.15 -3.955,-0.6 -5.916,-1.223c-1.255,-0.398 -2.296,1.342 -1.3,2.233Z" style="fill:#010101;fill-rule:nonzero;"/><path d="M80.364,249.163c-0.248,2.566 0.364,5.178 2.668,6.716c1.896,1.265 6.39,1.312 7.146,-1.439c0.092,-0.635 0.101,-0.725 0.024,-0.271c0.132,-0.227 0.197,-0.47 0.197,-0.731c0,-0.437 -0.146,-0.927 -0.549,-1.153c-0.162,-0.102 -0.333,-0.183 -0.514,-0.242c-1.277,-0.352 1.037,0.328 -0.59,-0.119c-0.771,-0.212 -1.47,0.134 -2.19,0.344c-2.166,0.633 -3.478,-2.034 -4.38,-3.594c-0.519,-0.9 -1.723,-0.427 -1.812,0.489Z" style="fill:#010101;fill-rule:nonzero;"/><path d="M81.493,227.163c-0.123,1.218 -0.456,2.251 -0.179,3.496c0.257,1.155 0.693,2.266 1.423,3.205c1.354,1.742 3.408,2.6 5.594,2.483c0.654,-0.034 1.453,-0.346 1.74,-0.998c0.057,-0.128 0.112,-0.256 0.169,-0.385c0.285,-0.647 0.231,-1.195 -0.226,-1.745c-1.137,-1.371 -2.915,-0.472 -4.252,-1.521c-1.317,-1.033 -2.392,-3.128 -2.613,-4.763c-0.136,-1.01 -1.568,-0.641 -1.656,0.228Z" style="fill:#010101;fill-rule:nonzero;"/><path d="M90.699,208.79c-0.192,0.382 -0.527,0.57 -0.663,0.979c-0.14,0.422 -0.252,0.833 -0.34,1.27c-0.167,0.818 -0.183,1.539 -0.13,2.376c0.107,1.705 1.123,3.288 2.563,4.154c1.732,1.044 3.838,-1.541 2.202,-2.854c-0.747,-0.602 -1.298,-1.257 -1.695,-2.131c-0.216,-0.475 -0.383,-1.119 -0.434,-1.636c-0.052,-0.536 -0.186,-1.267 -0.126,-1.783c0.084,-0.738 -1.057,-1.004 -1.377,-0.375Z" style="fill:#010101;fill-rule:nonzero;"/><path d="M102.365,195.894c-0.61,1.652 -1.319,3.37 -0.731,5.168c0.588,1.8 1.89,3.399 3.807,3.834c2.249,0.509 3.242,-2.273 1.499,-3.556c-1.614,-1.188 -3.178,-2.642 -2.63,-4.911c0.308,-1.281 -1.5,-1.739 -1.945,-0.535Z" style="fill:#010101;fill-rule:nonzero;"/><path d="M117.218,187.853c-0.757,2.319 -1.664,5.214 0.148,7.278c0.472,0.536 1.47,0.536 1.939,0c1.813,-2.064 0.906,-4.959 0.148,-7.278c-0.358,-1.103 -1.874,-1.103 -2.235,0Z" style="fill:#010101;fill-rule:nonzero;"/><path d="M90.337,31.452c-4.202,-0.031 -7.938,0.555 -10.729,3.981c-1.559,1.914 -0.118,4.57 2.379,4.087c4.182,-0.81 7.814,-2.36 11.674,-4.093c2.702,-1.211 0.743,-5.876 -2.021,-4.795c-1.771,0.693 -3.419,0.804 -5.303,0.784c0,1.831 0,3.661 0,5.491c1.331,-0.166 2.416,-0.702 3.576,-1.355c0.559,-0.314 1.104,-0.651 1.656,-0.974c0.187,-0.109 1.708,-0.738 0.769,-0.613c3.46,-0.458 3.72,-5.704 0,-5.605c-1.844,0.05 -3.678,0.342 -5.177,1.487c-1.193,0.913 -2.838,2.162 -3.208,3.658c-0.333,1.343 0.417,2.631 1.728,3.042c1.553,0.486 2.759,-0.276 3.88,-1.271c1.017,-0.901 1.313,-1.255 2.777,-1.311c-0.249,-1.835 -0.497,-3.67 -0.745,-5.505c-2.147,0.31 -4.4,2.813 -5.985,3.055c-3.11,0.472 -2.3,5.441 0.73,5.394c2.608,-0.041 4.959,-0.319 7.323,-1.48c-0.883,-1.51 -1.766,-3.02 -2.647,-4.53c-3.31,1.831 -6.629,3.097 -10.326,3.907c0.92,1.197 1.841,2.396 2.761,3.592c0.97,-1.277 1.878,-2.063 3.435,-2.452c1.481,-0.369 2.938,-0.615 4.317,-1.305c1.571,-0.787 0.764,-3.178 -0.864,-3.189Z" style="fill:#010101;fill-rule:nonzero;"/><path d="M152.983,34.516c-0.709,-0.66 -0.099,-0.459 -0.26,0.462c-0.604,0.16 -1.207,0.319 -1.811,0.479c0.602,0.607 -0.146,-0.349 -0.023,0.194c0.131,0.585 0.594,0.938 1.074,1.229c0.834,0.504 1.676,0.99 2.539,1.444c1.827,0.961 3.755,1.881 5.835,2.065c2.713,0.24 2.725,-3.513 0.592,-4.374c-3.354,-1.352 -6.451,-3.183 -9.954,-4.167c-2.576,-0.724 -4.326,3.158 -1.849,4.385c3.107,1.54 6.75,2.403 10.211,2.537c0,-1.738 0,-3.479 0,-5.218c-1.842,-0.023 -3.927,0.066 -5.642,-0.716c-0.69,1.641 -1.383,3.281 -2.075,4.922c1.451,0.2 2.259,0.617 3.427,1.469c1.312,0.955 2.801,1.544 4.331,0.715c0.6,-0.324 1.069,-1.088 1.021,-1.78c-0.236,-3.393 -5.042,-5.818 -8.063,-5.693c-2.428,0.101 -3.999,3.888 -1.359,5.018c2.694,1.153 5.457,1.314 8.359,1.284c3.364,-0.036 3.362,-5.167 0,-5.218c-2.949,-0.045 -5.516,-1.18 -8.362,-1.705c-0.425,1.542 -0.85,3.084 -1.275,4.627c3.512,0.896 6.599,2.792 10.046,3.833c0.197,-1.458 0.396,-2.916 0.593,-4.374c-1.662,0.003 -3.432,-0.886 -4.932,-1.53c-0.806,-0.346 -1.885,-1.049 -2.769,-1.049c-0.347,0 -1.611,0.073 -0.55,0.305c-0.254,-0.056 -0.438,-0.068 -0.695,-0.016c-0.54,0.112 -0.956,0.806 -0.756,1.332c0.233,0.619 0.699,0.726 1.24,0.975c0.891,0.411 1.917,-0.682 1.107,-1.435Z" style="fill:#010101;fill-rule:nonzero;"/><path d="M184.024,210.346c4.813,11.162 8.201,22.188 10.828,34.065c3.092,13.98 7.461,27.336 12.13,40.865c2.103,6.091 4.313,12.196 5.272,18.58c0.758,5.043 1.512,10.17 3.873,14.751c1.699,3.298 5.226,4.744 8.72,5.17c2.207,0.27 4.396,0.287 6.615,0.233c0.971,-0.023 1.94,-0.062 2.911,-0.083c0.513,0.004 1.024,-0.001 1.536,-0.012c1.513,0.082 1.137,-0.738 -1.127,-2.459c-1.061,2.897 3.333,4.535 4.841,2.041c4.479,-7.416 -13.408,-5.295 -16.02,-5.949c-4.549,-1.141 -5.047,-10.33 -5.673,-14.036c-1.149,-6.802 -3.393,-13.188 -5.702,-19.684c-4.958,-13.942 -9.747,-27.701 -13.472,-42.028c-2.745,-10.555 -5.646,-24.308 -14.164,-31.896c-0.322,-0.287 -0.729,0.071 -0.568,0.442Z" style="fill:#010101;fill-rule:nonzero;"/><path d="M335.497,287.671c-6.654,10.581 -7.117,24.373 -6.983,36.491c0.018,1.614 1.274,2.724 2.823,2.823c2.929,0.189 5.929,1.03 8.754,-0.09c3.323,-1.315 2.117,-6.399 -1.508,-5.469c-2.391,0.612 -4.824,0.016 -7.246,-0.09c0.941,0.94 1.884,1.883 2.824,2.823c-1.619,-12.313 1.73,-23.912 3.148,-35.999c0.121,-1.02 -1.34,-1.238 -1.812,-0.489Z" style="fill:#010101;fill-rule:nonzero;"/><path d="M216.667,308.36c3.3,-0.977 6.655,-0.021 9.014,2.401c1.26,1.296 1.866,3.052 2.252,4.774c0.438,1.959 0.061,3.934 1.501,5.528c0.392,0.435 1.061,0.463 1.548,0.199c5.211,-2.81 0.627,-11.583 -2.342,-14.343c-3.858,-3.586 -9.188,-3.859 -13.181,-0.639c-0.996,0.807 0.077,2.414 1.208,2.08Z" style="fill:#010101;fill-rule:nonzero;"/><path d="M222.033,60.858c13.33,-10.737 33.287,-8.408 42.05,6.664c3.219,5.539 3.818,12.292 0.479,17.894c-5.379,9.021 -16.944,8.733 -25.289,12.926c-1.649,0.829 -1.199,3.421 0.504,3.854c10.713,2.729 24.354,-3.808 30.432,-12.687c5.082,-7.423 3.896,-17.118 -0.268,-24.617c-4.325,-7.789 -12.261,-13.505 -20.919,-15.378c-4.812,-1.041 -9.78,-0.734 -14.477,0.677c-5.78,1.737 -9.61,5.265 -13.904,9.273c-0.947,0.886 0.426,2.172 1.392,1.394Z" style="fill:#010101;fill-rule:nonzero;"/></g></svg>