<?xml version="1.0" encoding="UTF-8" standalone="no"?><!DOCTYPE svg PUBLIC "-//W3C//DTD SVG 1.1//EN" "http://www.w3.org/Graphics/SVG/1.1/DTD/svg11.dtd"><svg width="100%" height="100%" viewBox="0 0 551 557" version="1.1" xmlns="http://www.w3.org/2000/svg" xmlns:xlink="http://www.w3.org/1999/xlink" xml:space="preserve" style="fill-rule:evenodd;clip-rule:evenodd;stroke-linejoin:round;stroke-miterlimit:1.41421;"><g id="the_engineer"><path d="M161.336,144.62c-9.058,-16.303 -2.864,-36.84 3.477,-53.015c3.635,-9.272 8.07,-18.223 13.152,-26.785c3.35,-5.643 7.679,-12.277 11.858,-16.26c34.312,-32.69 83.666,-47.223 128.201,-27.273c20.682,9.265 38.159,24.435 51.682,42.481c16.421,21.917 24.915,47.587 28.287,74.499c4.117,-2.96 8.234,-5.921 12.352,-8.881c-2.904,-1.573 -5.579,-1.321 -8.702,-0.635c-4.86,1.067 -10.213,11.544 -2.689,12.543c0.86,0.102 0.94,0.121 0.241,0.057c4.461,5.625 14.293,-2.149 13.655,-7.846c-5.106,-45.562 -29.601,-88.531 -67.938,-113.986c-37.764,-25.075 -84.607,-24.952 -124.473,-4.49c-14.672,7.531 -28.823,17.92 -39.802,30.275c-7.72,8.688 -13.315,19.561 -18.164,30.03c-5.897,12.731 -10.545,26.341 -12.445,40.278c-1.462,10.717 -1.184,24.006 6.225,32.636c1.839,2.145 6.396,-1.266 5.083,-3.628Z" style="fill:#010101;fill-rule:nonzero;"/><path d="M188.046,40.078c-9.614,5.602 -16.284,14.792 -22.353,23.886c-7.029,10.533 -11.898,23.121 -15.762,35.11c-3.108,9.645 -4.409,19.161 -5.412,29.168c-0.406,4.055 -0.815,8.108 -1.351,12.147c-0.172,1.306 -1.069,2.872 0.564,0.409c-0.964,1.451 -1.547,2.734 -1.934,4.426c-0.364,1.591 -0.482,3.623 0.241,5.172c2.215,4.741 7.606,2.98 10.875,0.578c2.988,-2.197 5.625,-7.571 4.085,-11.251c0.407,0.972 0.243,-2.338 0.308,-3.14c0.17,-2.146 0.283,-4.297 0.397,-6.446c0.457,-8.574 0.595,-16.911 2.28,-25.355c2.333,-11.687 6.513,-22.678 11.376,-33.514c4.701,-10.474 9.701,-21.742 17.382,-30.395c0.476,-0.533 -0.118,-1.132 -0.696,-0.795Z" style="fill:#010101;fill-rule:nonzero;"/><path d="M401.511,146.499c7.341,2.026 15.939,1.47 23.49,1.132c-1.602,-1.291 -3.203,-2.583 -4.805,-3.875c-0.393,5.389 0.051,10.873 0.043,16.275c-0.004,2.589 -0.005,5.215 -0.274,7.791c-0.274,2.622 -1.378,5.363 0.72,7.589c1.899,2.016 5.192,1.801 7.396,0.396c6.331,-4.037 5.736,-11.117 5.484,-17.742c-0.23,-6.061 -0.708,-12.148 -1.268,-18.188c-0.325,-3.517 -3.418,-4.191 -6.349,-3.564c-7.562,1.617 -15.368,1.191 -22.893,2.978c-3.056,0.725 -5.625,6.082 -1.544,7.208Z" style="fill:#010101;fill-rule:nonzero;"/><path d="M152.671,145.617c-2.554,-1.086 -4.862,-0.992 -7.603,-0.919c-3.76,0.102 -7.224,-0.241 -10.892,-1.097c-4.739,-1.105 -9.422,3.878 -9.473,8.313c-0.088,7.835 1.632,15.447 1.49,23.309c-0.071,3.927 4.343,5.133 7.4,4.155c3.769,-1.205 6.633,-4.698 6.705,-8.677c0.037,-2.027 -0.453,-3.579 -1.609,-5.256c-3.021,-4.382 -9.707,0.602 -11.257,3.691c-0.972,1.934 -1.278,3.94 -1.239,6.086c0.164,9.019 14.239,2.793 14.105,-4.521c-0.143,-7.812 -2.019,-15.207 -2.51,-22.982c-3.158,2.771 -6.314,5.542 -9.473,8.313c7.218,0.359 16.874,-0.146 23.044,-4.302c1.534,-1.032 4.298,-4.844 1.312,-6.113Z" style="fill:#010101;fill-rule:nonzero;"/><path d="M127.575,183.039c13.155,19.837 36.974,31.812 58.702,39.73c26.81,9.771 54.893,14.65 83.396,15.314c27.71,0.647 54.833,-4.276 81.661,-10.724c20.593,-4.948 41.864,-11.266 59.622,-23.16c5.08,-3.403 9.71,-7.224 13.848,-11.727c3.469,-3.773 8.176,-9.164 9.07,-14.275c0.764,-4.359 -1.927,-6.694 -6.023,-6.864c-3.902,-0.162 -7.378,0.904 -10.851,2.605c-6.974,3.416 -6.649,15.008 2.61,12.586c1.565,-0.409 3.426,-0.142 5.033,-0.227c-2.061,-1.662 -4.121,-3.324 -6.183,-4.986c0.283,1.471 0.441,-1.116 0.2,-0.729c-0.574,0.918 -1.223,1.789 -1.867,2.658c-1.129,1.521 -2.382,2.886 -3.735,4.203c-3.492,3.398 -7.454,6.143 -11.623,8.634c-9.063,5.416 -19.002,9.172 -29.012,12.424c-22.372,7.269 -46.096,12.512 -69.452,15.046c-30.705,3.331 -61.82,0.867 -91.693,-6.899c-23.271,-6.05 -48.047,-14.915 -66.702,-30.554c-3.448,-2.891 -6.68,-6.131 -9.656,-9.501c-3.29,-3.726 -9.976,2.48 -7.345,6.446Z" style="fill:#010101;fill-rule:nonzero;"/><path d="M157.583,157.765c7.92,14.499 26.689,20.7 41.544,25.315c18.948,5.888 38.843,9.771 58.567,11.737c24.813,2.474 49.983,1.379 74.352,-3.988c11.91,-2.622 23.047,-6.669 33.804,-12.393c5.47,-2.909 10.81,-6.057 16.257,-9.005c2.392,-1.295 4.821,-2.513 7.276,-3.683c3.022,-1.44 6.019,-1.554 9.101,-2.569c3.973,-1.31 7.087,-9.791 0.752,-8.974c-2.229,0.288 -3.98,1.011 -5.968,2.049c-1.961,1.024 -3.18,3.855 -1.151,5.375c1.322,0.991 2.338,1.513 3.983,1.743c0.637,-2.974 1.274,-5.947 1.911,-8.92c-4.67,1.353 -9.439,4.469 -13.843,6.649c-4.997,2.475 -9.823,5.297 -14.679,8.034c-10.558,5.952 -21.006,10.537 -32.734,13.652c-24.051,6.39 -49.469,7.564 -74.191,5.612c-19.103,-1.509 -38.24,-5.206 -56.717,-10.269c-15.542,-4.26 -34.159,-10.003 -45.138,-22.6c-1.14,-1.305 -3.923,0.773 -3.126,2.235Z" style="fill:#010101;fill-rule:nonzero;"/><path d="M165.493,213.537c-3.64,-7.242 -11.757,2.246 -13.419,6.023c-3.759,8.541 -4.043,19.004 -3.882,28.17c0.174,9.85 1.213,20.124 4.362,29.506c2.251,6.707 9.65,16.661 17.299,8.668c1.872,-1.957 4.88,-7.437 0.701,-9.072c-0.586,-0.229 -1.226,-0.543 -1.814,-0.652c-0.847,-0.157 -6.701,-0.439 -1.4,0.123c0.234,0.025 -0.314,-0.157 -0.423,-0.258c-1.883,-1.748 -2.39,-3.205 -3.394,-5.802c-2.744,-7.099 -3.798,-14.851 -4.479,-22.385c-0.688,-7.616 -1.027,-15.56 0.099,-23.147c0.365,-2.461 0.818,-4.832 1.865,-6.932c0.021,-0.04 0.996,-0.826 0.206,-0.346c0.162,-0.099 1.104,-0.266 2.149,-0.477c1.228,-0.247 2.782,-2.12 2.13,-3.419Z" style="fill:#010101;fill-rule:nonzero;"/><path d="M386.648,221.617c2.032,-0.385 3.75,-0.273 5.804,0.01c-0.677,-0.544 -1.354,-1.087 -2.03,-1.63c4.148,10.24 3.33,23.803 1.851,34.484c-0.83,5.989 -2.087,12.073 -4.669,17.569c-0.544,1.16 -0.827,1.638 -1.549,2.659c-0.285,0.391 -0.584,0.771 -0.896,1.141c-1.407,1.727 1,-0.892 -0.527,0.514c-0.838,0.771 0.728,-0.204 -0.261,0.105c-0.741,0.194 -0.729,0.188 0.035,-0.016c-1.429,0.183 -2.688,0.615 -3.891,1.412c-2.511,1.663 -6.696,6.685 -3.38,9.706c5.78,5.264 14.857,-2.006 18.03,-7.114c4.021,-6.472 5.847,-14.141 6.907,-21.614c1.925,-13.574 3.212,-31.85 -4.462,-43.979c-0.464,-0.734 -1.753,-1.01 -2.536,-0.903c-3.047,0.414 -6.084,0.863 -8.714,2.533c-1.719,1.092 -3.296,5.801 0.288,5.123Z" style="fill:#010101;fill-rule:nonzero;"/><path d="M180.832,282.592c-4.603,8.537 -2.726,20.09 -0.63,29.117c2.545,10.962 7.646,21.598 13.603,31.087c11.858,18.894 29.911,31.341 51.182,37.696c22.75,6.798 48.119,5.605 70.057,-3.48c22.037,-9.128 39.271,-27.816 49.401,-49.151c6.145,-12.939 8.271,-26.634 7.486,-40.835c-0.36,-6.523 -11.175,-1.818 -9.771,4.322c5.679,24.851 -12.502,51.976 -30.524,67.176c-18.34,15.467 -43.986,20.278 -67.341,17.692c-22.852,-2.529 -44.884,-13.284 -59.091,-31.593c-6.988,-9.004 -12.625,-19.258 -16.744,-29.87c-1.987,-5.122 -3.729,-10.6 -4.639,-16.026c-0.865,-5.17 -0.126,-10.186 -0.415,-15.339c-0.006,-0.335 -0.012,-0.669 -0.018,-1.004c-0.029,-1.624 -2.133,-0.579 -2.556,0.208Z" style="fill:#010101;fill-rule:nonzero;"/><path d="M193.738,232.235c-4.319,4.256 -4.356,11.343 -4.536,17.036c-0.109,3.488 -0.099,7.351 0.734,10.752c0.646,2.635 1.645,8.369 4.279,9.795c2.266,1.227 5.51,1.375 7.998,1.853c3.372,0.646 6.753,1.237 10.143,1.776c7.44,1.183 14.997,1.986 22.539,1.734c5.878,-0.195 11.399,-1.432 15.508,-5.842c3.689,-3.962 5.49,-9.515 6.577,-14.709c1.282,-6.124 1.729,-26.657 -10.173,-18.584c-3.099,2.101 -5.313,8.431 0.466,8.316c-1.728,-1.061 -2.26,-1.215 -1.596,-0.461c1.083,1.387 -2.048,-2.223 0.7,1.123c0.478,0.581 0.503,1.568 0.604,2.61c0.346,3.601 -0.227,7.218 -1.082,10.706c-0.41,1.673 -1.048,3.219 -1.817,4.756c-0.337,0.673 -1.147,1.344 -0.963,1.281c-4.289,1.458 -9.466,1.158 -13.916,0.932c-5.512,-0.281 -11,-0.982 -16.459,-1.774c-2.467,-0.357 -4.927,-0.762 -7.385,-1.171c-0.953,-0.159 -4.72,-0.425 -5.036,-0.79c-3.518,-4.065 -4.637,-10.483 -5.014,-15.685c-0.314,-4.333 1.39,-9.481 -0.173,-13.581c-0.223,-0.584 -1.043,-0.423 -1.398,-0.073Z" style="fill:#010101;fill-rule:nonzero;"/><path d="M298.011,239.809c-3.562,-1.538 -6.952,2.639 -8.476,5.337c-2.769,4.903 -4.088,11.997 -2.439,17.492c3.994,13.316 18.433,15.306 30.412,15.142c11.599,-0.159 26.482,0 34.376,-9.941c6.837,-8.612 3.904,-22.762 4.072,-32.852c0.07,-4.173 -4.869,-3.984 -7.448,-2.719c-0.313,0.153 -0.625,0.307 -0.938,0.46c-2.216,1.087 -3.88,3.685 -3.827,6.149c0.008,0.352 0.016,0.703 0.022,1.056c0.024,1.119 0.856,1.979 1.923,2.19c1.166,0.232 2.199,0.303 3.383,0.18c-1.512,-1.219 -3.022,-2.438 -4.533,-3.656c0.209,7.553 2.002,15.802 0.16,23.237c-1.552,6.261 -13.884,5.186 -18.686,5.54c-8.041,0.594 -18.973,1.605 -25.726,-3.825c-5.51,-4.431 -7.954,-16.767 -2.409,-22.063c0.396,-0.379 0.898,-1.398 0.134,-1.727Z" style="fill:#010101;fill-rule:nonzero;"/><path d="M254.375,258.18c8.649,-3.591 18.007,-8.441 27.315,-3.794c5.412,2.702 13.679,-6.779 7.641,-10.086c-10.495,-5.748 -33.734,-0.705 -37.63,11.723c-0.502,1.602 1.282,2.736 2.674,2.157Z" style="fill:#010101;fill-rule:nonzero;"/><path d="M167.518,240.957c-1.319,4.544 -0.579,9.367 -0.286,14.025c0.232,3.672 -1.307,9.826 2.497,11.838c0.935,0.495 2.025,0.037 2.771,-0.576c3.763,-3.09 3.262,-7.438 2.784,-11.937c-0.512,-4.819 -1.614,-10.865 -4.558,-14.79c-1.005,-1.34 -2.907,0.405 -3.208,1.44Z" style="fill:#010101;fill-rule:nonzero;"/><path d="M201.091,374.191c-3.072,3.726 -5.138,8.021 -8.046,11.887c-3.116,4.143 -7.361,7.431 -11.704,10.188c-9.045,5.741 -19.305,9.401 -29.406,12.793c-23.57,7.912 -47.744,12.825 -70.45,23.326c-21.038,9.729 -40.373,25.146 -52.378,45.175c-8.412,14.033 -15.22,29.224 -21.789,44.182c-1.989,4.528 -12.063,22.109 -4.017,25.337c-0.71,-0.809 -1.419,-1.617 -2.129,-2.426c0.228,0.559 0.495,1.136 0.938,1.549c5.976,5.564 18.128,-5.317 12.273,-10.77c0.25,0.42 0.501,0.841 0.751,1.262c-0.496,2.315 -0.992,4.632 -1.489,6.947c1.091,-1.5 1.191,-1.992 1.766,-3.687c-0.873,2.579 -0.58,1.626 -0.234,1.005c-1.925,3.462 1.375,-2.822 1.701,-3.795c-0.881,2.632 0.451,-1.151 0.691,-1.774c0.645,-1.675 1.331,-3.334 2.021,-4.99c3.276,-7.862 6.844,-15.607 10.479,-23.309c3.556,-7.533 7.113,-15.063 11.009,-22.43c0.687,-1.296 1.392,-2.582 2.112,-3.859c0.302,-0.532 0.612,-1.06 0.925,-1.586c-1.259,2.122 -0.386,0.651 -0.092,0.202c3.355,-5.127 7.355,-9.939 11.67,-14.283c34.721,-34.96 88.082,-33.451 128.018,-59.069c6.204,-3.979 12.047,-8.804 16.337,-14.843c3.52,-4.955 7.125,-11.955 3.49,-17.54c-0.587,-0.906 -1.995,-0.039 -2.447,0.508Z" style="fill:#010101;fill-rule:nonzero;"/><path d="M337.961,375.576c-9.016,18.795 13.301,35.813 27.665,43.018c20.236,10.148 42.213,16.447 63.251,24.65c22.79,8.888 45.562,19.437 63.892,35.971c9.945,8.971 18.191,19.907 25.499,31.075c8.027,12.267 14.088,25.582 15.349,40.293c0.946,11.04 18.981,3.431 17.262,-5.533c-0.533,-2.782 -1.342,-4.734 -2.615,-7.231c-3.512,-6.887 -13.007,-1.113 -14.221,4.582c-0.592,2.777 -0.483,5.375 -0.426,8.183c5.621,-2.486 11.242,-4.973 16.863,-7.459c-5.623,-26.218 -22.369,-51.777 -41.052,-70.64c-17.401,-17.569 -39.851,-29.182 -62.507,-38.44c-21.375,-8.735 -43.575,-15.152 -65.253,-23.043c-9.009,-3.279 -18.042,-7.167 -25.839,-12.818c-3.613,-2.619 -7.113,-5.823 -9.371,-9.737c-2.451,-4.247 -3.362,-9.17 -5.842,-13.41c-0.67,-1.149 -2.182,-0.443 -2.655,0.539Z" style="fill:#010101;fill-rule:nonzero;"/><path d="M201.967,376.693c-0.866,3.235 -2.13,6.023 -2.817,9.33c-0.632,3.036 -1.201,5.951 -1.323,9.063c-0.279,7.129 0.446,14.183 1.597,21.209c2.436,14.88 7.303,29.191 12.884,43.16c5.712,14.303 12.63,28.114 19.656,41.808c3.273,6.379 6.608,12.728 9.914,19.091c1.436,2.763 2.861,5.53 4.276,8.304c0.771,1.512 1.532,3.027 2.291,4.545c0.524,1.049 1.332,4.695 1.651,2.159c3.204,-2.311 6.409,-4.621 9.613,-6.932c-5.843,-1.978 -13.8,6.223 -8.661,11.353c3.761,3.756 9.777,0.1 11.677,-3.83c0.134,-0.277 0.269,-0.555 0.401,-0.831c0.996,-2.062 1.015,-4.365 -0.394,-6.222c-3.464,-4.566 -5.805,-10.514 -8.578,-15.544c-3.221,-5.843 -6.468,-11.67 -9.675,-17.52c-7.137,-13.015 -13.941,-26.185 -20.207,-39.642c-6.191,-13.296 -11.211,-26.964 -15.181,-41.078c-1.807,-6.424 -2.908,-13.061 -3.718,-19.677c-0.373,-3.055 -0.505,-6.139 -1.084,-9.165c-0.563,-2.938 -1.052,-6.945 -0.825,-9.885c0.074,-0.948 -1.341,-0.275 -1.497,0.304Z" style="fill:#010101;fill-rule:nonzero;"/><path d="M338.252,376.693c-2.474,29.365 -7.79,58.529 -17.335,86.439c-4.764,13.929 -10.735,27.428 -17.469,40.509c-3.242,6.3 -6.734,12.483 -10.418,18.536c-1.834,3.014 -3.671,6.036 -5.793,8.855c-2.035,2.702 -4.168,5.262 -3.613,8.834c1.367,8.801 13.587,2.487 13.449,-4.313c-0.008,-0.361 -0.015,-0.723 -0.022,-1.084c-0.565,1.645 -1.13,3.289 -1.695,4.934c15.259,-25.018 28.266,-51.131 37.144,-79.115c4.377,-13.797 7.104,-28.076 8.683,-42.447c0.723,-6.577 1.05,-13.215 1.13,-19.83c0.091,-7.465 -1.312,-14.485 -2.659,-21.768c-0.177,-0.949 -1.345,-0.218 -1.402,0.45Z" style="fill:#010101;fill-rule:nonzero;"/><path d="M265.5,393.872c-2.82,4.041 -5.79,7.734 -9.233,11.276c-2.813,2.892 -8.048,6.857 -8.933,10.985c-0.863,4.029 3.377,8.515 5.683,11.339c2.815,3.453 8.837,8.256 8.937,13.041c0.16,7.76 15.087,0.355 9.734,-5.593c-3.025,-3.362 -5.104,-7.564 -8.221,-10.978c-3.172,-3.475 -5.634,-7.782 -8.869,-11.066c0.076,1.202 0.152,2.404 0.229,3.606c3.949,-7.76 13.279,-12.78 14.703,-21.852c0.416,-2.651 -2.9,-2.377 -4.03,-0.758Z" style="fill:#010101;fill-rule:nonzero;"/><path d="M266.151,396.656c3.346,4.329 7.677,7.695 11.732,11.326c4.574,4.096 7.87,8.403 11.2,13.488c-0.096,-1.494 -0.189,-2.989 -0.285,-4.484c-2.68,4.443 -4.627,9.358 -6.813,14.054c-1.356,2.915 -7.701,11.994 -1.248,13.19c6.169,1.145 8.634,-6.17 10.434,-10.432c2.129,-5.043 3.896,-10.34 6.525,-15.152c0.789,-1.446 0.678,-3.178 -0.285,-4.484c-6.395,-8.684 -17.681,-17.203 -27.506,-21.534c-2.117,-0.933 -5.386,1.915 -3.754,4.028Z" style="fill:#010101;fill-rule:nonzero;"/><path d="M262.886,437.563c-2.164,5.861 -2.761,11.904 -3.278,18.092c-0.7,8.365 -1.338,16.738 -2.282,25.08c-0.898,7.943 -1.923,15.922 -3.644,23.734c-0.609,2.763 -1.395,5.469 -2.483,8.08c-0.23,0.553 -1.363,2.707 -1.138,2.356c-0.343,0.534 -2.821,4.101 -1.953,2.674c-3.073,5.052 0.409,9.03 5.82,6.632c5.733,-2.541 7.843,-10.393 9.145,-15.942c1.884,-8.03 2.58,-16.364 3.014,-24.581c0.456,-8.648 0.577,-17.32 0.648,-25.979c0.057,-6.842 0.275,-13.624 -0.968,-20.38c-0.292,-1.595 -2.435,-0.974 -2.881,0.234Z" style="fill:#010101;fill-rule:nonzero;"/><path d="M279.71,438.941c-1.73,5.833 -1.372,11.697 -0.858,17.723c0.748,8.764 2.021,17.51 3.252,26.215c1.198,8.475 2.657,16.915 4.232,25.328c0.605,3.235 1.255,6.462 1.945,9.68c0.452,2.108 0.693,5.253 2.181,6.947c1.664,1.897 5.047,1.811 7.08,0.623c0.825,-0.482 1.511,-1.047 2.09,-1.811c0.168,-0.222 1.939,-3.83 0.697,-1.195c-1.409,2.99 1.009,-2.148 1.09,-2.529c0.501,-2.337 -0.854,-5.046 -1.475,-7.288c-0.861,-3.113 -1.619,-6.257 -2.369,-9.398c-3.962,-16.612 -7.31,-33.367 -10.672,-50.107c-1.058,-5.27 -2.273,-10.179 -4.16,-15.165c-0.626,-1.659 -2.73,-0.043 -3.033,0.977Z" style="fill:#010101;fill-rule:nonzero;"/><path d="M252.971,311.691c2.832,3.943 7.625,3.604 11.613,5.476c2.194,1.03 4.5,0.753 6.815,1.12c3.438,0.545 5.937,-1.359 8.555,-3.246c3.703,-2.667 4.537,-9.364 -0.673,-10.662c-3.125,-0.778 -5.35,0.158 -8.162,1.489c1.19,-0.383 2.381,-0.767 3.571,-1.149c-2.521,0.508 -5.17,1.238 -7.731,0.997c-3.351,-0.315 -6.534,-1.287 -9.907,-0.655c-2.78,0.52 -6.207,3.672 -4.081,6.63Z" style="fill:#010101;fill-rule:nonzero;"/><path d="M374.61,244.118c-0.597,3.942 1.567,7.967 2.164,11.812c1.101,-1.424 2.202,-2.849 3.303,-4.273c-2.248,0.813 -7.004,2.314 -6.545,5.581c0.532,3.791 5.943,1.378 7.775,0.347c1.625,-0.916 2.79,-2.782 2.254,-4.656c-0.996,-3.48 -2.464,-7.855 -4.876,-10.637c-1.279,-1.475 -3.843,0.29 -4.075,1.826Z" style="fill:#010101;fill-rule:nonzero;"/></g></svg>