<?xml version="1.0" encoding="UTF-8" standalone="no"?><!DOCTYPE svg PUBLIC "-//W3C//DTD SVG 1.1//EN" "http://www.w3.org/Graphics/SVG/1.1/DTD/svg11.dtd"><svg width="100%" height="100%" viewBox="0 0 485 307" version="1.1" xmlns="http://www.w3.org/2000/svg" xmlns:xlink="http://www.w3.org/1999/xlink" xml:space="preserve" style="fill-rule:evenodd;clip-rule:evenodd;stroke-linejoin:round;stroke-miterlimit:1.41421;"><g id="eye"><path d="M28.575,174.571c-2.416,1.085 -4.646,2.409 -7.158,3.309c-2.74,0.979 -5.583,1.442 -8.25,2.661c-4.998,2.28 -8.281,6.253 -11.049,10.883c-3.426,5.729 -2.668,12.257 3.342,15.634c6.284,3.53 14.746,3.258 21.687,2.879c6.193,-0.338 15.539,-0.932 19.883,-6.002c0.741,-0.866 1.061,-2.752 -0.229,-3.337c-2.071,-0.939 -4.206,-0.419 -6.364,-0.142c-2.914,0.373 -5.899,0.559 -8.833,0.854c-6.068,0.616 -12.392,0.753 -18.349,-0.734c-4.998,-1.248 -6.314,-4.229 -3.985,-8.694c2.452,-4.7 6.516,-6.356 11.196,-8.251c3.881,-1.571 8.577,-3.138 10.075,-7.479c0.518,-1.502 -0.644,-2.174 -1.966,-1.581Z" style="fill:#010101;fill-rule:nonzero;"/><path d="M33.491,175.965c11.392,-6.037 20.064,-16.739 28.488,-26.273c9.307,-10.533 18.559,-20.746 29.691,-29.406c21.138,-16.44 46.824,-25.662 72.794,-31.064c26.067,-5.422 53.704,-7.152 80.288,-6.354c27.778,0.834 54.474,9.115 79.563,20.616c13.927,6.384 27.433,13.523 40.313,21.818c12.24,7.882 24.105,16.328 36.595,23.824c23.164,13.902 54.76,27.201 80.817,13.279c2.291,-1.225 3.402,-5.793 -0.313,-5.578c-12.135,0.702 -23.903,1.835 -35.905,-0.749c-11.939,-2.569 -23.084,-8.033 -33.641,-14.027c-21.949,-12.465 -41.688,-28.314 -64.223,-39.812c-24.106,-12.297 -49.338,-22.662 -76.18,-27.016c-26.658,-4.324 -54.719,-2.437 -81.421,0.733c-31.208,3.702 -62.414,12.032 -89.192,28.937c-13.782,8.7 -25.146,19.596 -35.681,31.939c-5.354,6.273 -10.427,12.784 -15.792,19.053c-5.462,6.381 -11.518,12.142 -17.366,18.141c-1.061,1.088 -0.421,2.78 1.165,1.939Z" style="fill:#010101;fill-rule:nonzero;"/><path d="M139.242,92.701c-15.21,10.271 -16.27,32.834 -15.128,49.371c1.36,19.729 6.601,37.66 17.379,54.313c13.016,20.109 33.165,35.47 55.516,43.79c22.891,8.521 47.184,8.411 71.008,4.383c20.269,-3.427 40.414,-9.901 57.849,-20.97c12.107,-7.688 20.951,-17.372 28.688,-29.246c8.084,-12.406 15.295,-25.731 19.32,-40.048c3.146,-11.185 3.418,-26.459 -10.06,-30.23c-5.409,-1.514 -12.459,7.491 -6.798,11.169c11.401,7.407 2.143,26.252 -2.528,35.961c-3.622,7.53 -7.896,14.733 -12.599,21.634c-1.783,2.616 -3.653,5.176 -5.624,7.653c-0.729,0.915 -1.487,1.808 -2.269,2.678c1.944,-2.17 -0.621,0.559 -0.57,0.509c-1.321,1.298 -2.725,2.51 -4.133,3.71c-18.356,15.63 -43.895,22.591 -67.325,25.621c-24.043,3.108 -47.394,0.8 -69.196,-10.309c-24.107,-12.283 -44.926,-34.305 -52.948,-60.457c-3.419,-11.142 -5.01,-22.896 -5.504,-34.518c-0.419,-9.863 -0.379,-23.65 7.249,-31.136c2.113,-2.073 0.668,-5.901 -2.327,-3.878Z" style="fill:#010101;fill-rule:nonzero;"/><path d="M223.719,78.026c-7.096,-4.152 -17.282,5.217 -21.294,10.452c-5.894,7.688 -9.967,17.552 -11.302,27.145c-2.467,17.728 5.187,33.762 19.506,44.058c30.794,22.141 81.073,10.903 95.466,-25.278c3.773,-9.485 3.369,-19.37 0.646,-29.051c-1.33,-4.728 -3.373,-9.251 -5.469,-13.678c-2.231,-4.716 -4.249,-11.442 -10.199,-12.037c-2.396,-0.239 -5.08,1.17 -5.998,3.496c-2.574,6.521 1.334,11.416 4.08,17.216c2.631,5.558 5.004,11.413 6.002,17.507c1.92,11.73 -3.51,22.682 -12.381,30.212c-11.867,10.072 -29.605,11.598 -44.371,8.486c-15.273,-3.216 -29.166,-13.038 -34.251,-28.19c-2.759,-8.22 -1.825,-17.019 0.612,-25.169c1.371,-4.582 3.354,-9.028 5.831,-13.115c1.198,-1.977 2.462,-3.794 4.025,-5.502c1.938,-2.117 4.553,-2.458 6.909,-3.802c0.572,-0.437 1.186,-0.811 1.837,-1.124c0.539,-0.271 1.028,-1.229 0.351,-1.626Z" style="fill:#010101;fill-rule:nonzero;"/><path d="M275.293,86.268c-15.433,-5.533 -33.363,-1.65 -42.622,12.848c-6.873,10.763 -6.239,23.375 5.099,30.429c10.04,6.245 23.757,5.83 34.665,2.507c12.032,-3.665 24.657,-13.936 24.477,-27.518c-0.027,-2.044 -1.52,-3.315 -3.346,-3.812c0.265,0.092 0.526,0.184 0.79,0.275c-1.483,-2.059 -5.196,-0.385 -6.218,1.292c1.358,-0.992 1.159,-0.855 -0.598,0.41c-0.895,0.777 -1.598,1.699 -2.11,2.765c-0.438,0.932 -0.819,2.156 -1.178,3.141c-0.649,1.784 -1.696,3.869 -2.255,4.669c-1.867,2.672 -4.529,4.487 -7.892,5.853c-7.706,3.128 -16.669,3.331 -24.704,0.866c-6.433,-1.972 -10.893,-7.21 -9.35,-13.967c3.063,-13.414 21.624,-17.09 33.198,-16.401c1.36,0.079 4.141,-2.605 2.044,-3.357Z" style="fill:#010101;fill-rule:nonzero;"/><path d="M250.84,79.547c-7.7,1.634 -14.853,4.626 -22.071,7.693c-2.713,1.153 -5.111,3.087 -5.764,6.127c-0.628,2.93 1.544,6.044 4.794,5.463c8.146,-1.457 15.772,-4.311 23.21,-7.896c5.964,-2.875 5.702,-13.159 -2.247,-10.835c-7.178,2.098 -14.104,4.91 -21.014,7.748c0.781,3.77 1.563,7.539 2.346,11.309c7.745,-4.17 15.735,-7.558 22.69,-13.053c3.627,-2.866 4.532,-12.087 -2.313,-10.744c-11.651,2.285 -23.313,4.552 -33.518,10.972c1.414,3.696 2.828,7.395 4.242,11.092c3.108,-2.006 5.202,-4.514 7.717,-7.172c3.372,-3.568 5.081,-11.636 -2.395,-11.115c-9.17,0.638 -16.125,7.432 -20.797,14.849c-4.826,7.659 2.706,12.477 9.255,7.34c4.161,-3.263 7.319,-7.338 10.449,-11.555c4.633,-6.242 -0.968,-11.812 -7.523,-8.575c-13.033,6.435 -22.559,24.375 -17.669,38.581c1.617,4.697 8.048,3.054 10.766,0.572c8.229,-7.515 10.761,-17.173 14.29,-27.313c-4.337,-0.202 -8.674,-0.404 -13.012,-0.607c-1.99,10.189 -5.793,19.872 -8.021,30.001c-0.979,4.458 3.141,7.155 7.161,5.779c14.262,-4.883 18.609,-19.56 21.401,-32.877c-4.496,0.363 -8.992,0.729 -13.488,1.093c-1.007,8.308 -4.41,15.596 -7.44,23.3c-2.713,6.899 5.189,10.467 9.963,5.459c6.808,-7.143 9.742,-15.183 13.29,-24.174c1.195,-3.028 0.787,-6.86 -3.033,-7.569c-3.832,-0.71 -7.418,2.104 -9.104,5.305c-4.244,8.067 -8.252,16.286 -14.138,23.318c3.941,-0.319 7.883,-0.639 11.824,-0.958c-1.18,-5.029 -3.584,-9.479 -5.909,-14.052c-2.937,-5.771 -11.008,-2.063 -13.006,2.648c-3.307,7.793 -4.476,16.188 -2.471,24.463c2.045,8.441 10.976,13.373 19.299,11.858c19.137,-3.479 13.205,-25.576 8.213,-37.991c-3.081,-7.658 -14.006,0.136 -13.813,6.109c0.374,11.631 5.792,25.04 16.368,30.938c3.924,2.189 9.551,-1.25 11.052,-5.021c3.697,-9.295 3.854,-18.223 -2.358,-26.442c-2.964,-3.92 -9.15,-0.472 -11.354,2.359c-6.187,7.948 -8.35,17.912 -10.762,27.476c-0.49,1.945 0.157,4.989 2.304,5.787c11.854,4.405 23.949,2.809 36.307,2.705c1.01,-4.713 2.021,-9.426 3.029,-14.139c-10.936,1.636 -21.438,0.024 -32.212,-1.938c-5.147,-0.938 -10.938,4.146 -10.678,9.37c0.896,18.083 30.792,19.788 43.851,18.748c7.783,-0.62 13.499,-13.834 3.049,-14.225c-7.389,-0.276 -16.635,-8.968 -12.879,-16.648c-4.289,1.406 -8.578,2.813 -12.866,4.221c6.394,8.422 17.4,7.436 26.587,5.302c-1.478,-3.798 -2.955,-7.598 -4.433,-11.396c-1.315,1.308 -2.598,2.761 -4.199,3.709c-2.854,1.692 -5.355,4.816 -5.171,8.31c0.162,3.046 2.904,5.158 5.905,4.763c13.225,-1.739 24.199,-9.72 34.608,-17.499c-3.844,-0.753 -7.688,-1.505 -11.531,-2.258c0,0.333 -0.001,0.667 -0.001,1c-0.003,6.341 8.387,5.285 11.532,2.258c1.063,-1.021 1.365,-0.482 -0.711,0.136c-2.606,-1.464 -5.216,-2.929 -7.824,-4.393c-0.331,7.304 -8.913,13.288 -13.625,17.957c2.722,3.102 5.443,6.203 8.166,9.305c11.021,-10.967 23.848,-21.684 28.168,-37.24c0.807,-2.903 -0.975,-5.894 -3.938,-6.442c-4.16,-0.771 -8.138,2.286 -9.943,5.794c-3.918,7.618 -6.465,15.854 -10.502,23.417c-3.666,6.864 -8.685,9.432 -17.445,8.557c-1.016,4.739 -2.03,9.479 -3.047,14.219c9.283,-3.332 16.971,-9.651 19.283,-19.575c0.481,-2.072 -0.132,-5.395 -2.478,-6.223c-8.853,-3.126 -15.507,0.409 -20.883,7.762c-2.08,2.845 -3.106,7.688 0.664,9.729c3.798,2.058 8.352,-0.606 10.735,-3.565c0.322,-0.453 0.674,-0.882 1.055,-1.283c-0.98,0.308 -1.961,0.614 -2.94,0.922c0.926,0.118 1.821,0.354 2.687,0.706c-1.387,-2.27 -2.771,-4.537 -4.158,-6.806c-0.561,2.637 -2.24,3.511 -4.719,4.425c-3.366,1.243 -6.335,3.934 -7.112,7.562c-0.601,2.806 0.813,6.365 4.067,6.656c13.345,1.193 25.076,-2.851 33.379,-13.672c6.908,-9.002 9.486,-20.426 14.673,-30.354c-4.628,-0.216 -9.255,-0.433 -13.88,-0.648c-3.111,10.928 -14.096,19.099 -21.832,26.76c-2.498,2.474 -5.02,6.899 -2.174,10.143c2.649,3.02 7.832,1.635 10.34,-0.838c9.267,-9.14 19.754,-18.103 20.373,-32.043c0.188,-4.213 -4.67,-5.337 -7.823,-4.392c-2.552,0.764 -4.804,2.296 -6.711,4.135c3.844,0.752 7.688,1.505 11.532,2.258c0,-0.333 0,-0.667 0,-1c-0.004,-6.75 -8.25,-4.715 -11.532,-2.258c-6.85,5.127 -14.657,11.343 -23.392,12.501c0.245,4.356 0.49,8.714 0.734,13.071c2.936,-1.743 5.391,-3.896 7.801,-6.291c4.96,-4.933 3.977,-13.356 -4.433,-11.396c-4.907,1.146 -10.092,1.665 -13.413,-2.698c-3.636,-4.778 -11.033,0.463 -12.866,4.22c-8.188,16.785 6.259,32.74 23.121,33.352c1.017,-4.74 2.032,-9.482 3.049,-14.225c-6.604,0.533 -13.245,-0.204 -19.699,-1.627c-4.254,-0.938 -12.229,-3.294 -12.449,-7.625c-3.56,3.123 -7.118,6.247 -10.679,9.37c11.865,2.146 23.754,3.876 35.788,2.063c4.052,-0.609 7.828,-3.49 8.722,-7.652c0.849,-3.963 -1.902,-6.521 -5.691,-6.485c-9.683,0.092 -20.347,2.063 -29.693,-1.295c0.769,1.929 1.535,3.857 2.305,5.787c1.67,-6.907 2.79,-14.759 7.237,-20.524c-3.784,0.787 -7.568,1.573 -11.354,2.359c3.217,4.205 3.555,8.681 1.641,13.558c3.686,-1.674 7.368,-3.348 11.053,-5.021c-7.736,-4.26 -11.475,-14.669 -11.633,-23.062c-4.604,2.037 -9.208,4.073 -13.813,6.109c1.528,3.912 3.048,7.946 3.88,12.074c0.427,2.115 0.618,4.262 0.557,6.417c0.019,-0.601 -0.497,1.49 -0.03,0.252c0.4,-1.068 2.136,-1.889 3.01,-2.055c-10.815,2.063 -8.702,-14.82 -6.374,-20.357c-4.335,0.883 -8.67,1.766 -13.006,2.648c2.34,4.559 4.838,8.939 6.09,13.948c1.476,5.903 9.642,1.711 11.824,-0.958c6.597,-8.069 10.716,-17.702 15.861,-26.682c-4.046,-0.754 -8.091,-1.509 -12.137,-2.265c-2.944,6.718 -5.059,13.84 -10.114,19.331c3.789,1.318 7.578,2.637 11.367,3.954c3.256,-8.758 7.199,-17.386 8.561,-26.7c1.414,-9.675 -11.853,-5.878 -13.488,1.094c-1.224,5.208 -2.701,17.003 -8.599,19.123c2.387,1.926 4.773,3.853 7.16,5.778c2.061,-10.159 5.686,-19.9 7.979,-29.999c1.982,-8.728 -10.718,-6.627 -13.012,-0.607c-2.585,6.781 -4.198,15.576 -9.71,20.688c3.588,0.19 7.176,0.381 10.765,0.572c-2.497,-7.025 1.742,-16.198 8.332,-19.419c-2.508,-2.858 -5.018,-5.716 -7.524,-8.575c-2.331,3.114 -4.502,6.002 -7.551,8.445c3.085,2.447 6.17,4.894 9.255,7.34c1.611,-2.62 3.771,-6.871 7.203,-7.151c-1.272,-3.195 -2.547,-6.391 -3.819,-9.587c-0.78,0.844 -2.33,2.952 -2.856,3.299c-2.915,1.926 -5.966,5.553 -4.52,9.33c1.348,3.513 6.023,3.524 8.762,1.763c8.529,-5.493 18.41,-7.393 28.213,-9.378c-1.349,-3.466 -2.695,-6.931 -4.044,-10.396c-5.776,4.619 -12.938,7.271 -19.311,10.947c-7.33,4.229 -4.771,14.487 4.039,10.561c6.323,-2.819 12.658,-5.499 19.293,-7.504c-0.749,-3.612 -1.498,-7.223 -2.247,-10.835c-5.281,2.604 -10.983,4.972 -16.79,6.105c0.204,3.63 0.408,7.26 0.612,10.891c6.854,-3.034 13.374,-6.863 20.347,-9.607c4.908,-1.931 6.522,-10.141 -0.471,-8.658Z" style="fill:#010101;fill-rule:nonzero;"/><path d="M213.971,127.971c-0.219,0.199 -0.438,0.396 -0.658,0.595c-4.738,4.287 -1.508,10.813 4.657,7.765c0.261,-0.13 0.521,-0.259 0.782,-0.388c2.499,-1.235 4.723,-4.711 3.644,-7.523c-1.385,-3.617 -6.213,-2.449 -8.425,-0.449Z" style="fill:#010101;fill-rule:nonzero;"/><path d="M251.568,85.95c6.238,1.636 12.604,0.623 18.844,2.963c5.127,1.925 9.404,5.602 11.733,10.568c2.564,5.47 2.247,11.306 0.66,17c-0.865,3.104 -2.604,6.017 -4.272,8.741c-2.15,3.515 -5.449,6.79 -6.164,10.955c-0.301,1.751 0.886,3.744 2.927,3.335c9.874,-1.977 16.548,-14.018 19.409,-22.87c2.494,-7.719 2.567,-16.334 -1.02,-23.739c-7.182,-14.83 -29.663,-20.088 -42.229,-8.729c-0.547,0.494 -0.809,1.535 0.112,1.776Z" style="fill:#010101;fill-rule:nonzero;"/><path d="M37.731,210.056c4.592,3.697 9.855,6.243 14.457,9.976c5.03,4.081 9.552,8.866 14.169,13.396c9.661,9.477 20.051,17.8 31.488,25.056c23.156,14.69 49.857,24.151 76.797,28.819c24.823,4.302 50.771,4.27 75.819,2.294c25.264,-1.993 50.38,-6.854 74.565,-14.41c22.123,-6.91 43.529,-16.451 63.354,-28.464c19.013,-11.521 39.729,-26.172 52.045,-45.034c3.111,-4.765 -1.743,-7.81 -5.794,-4.596c-9.761,7.745 -18.703,16.423 -28.536,24.104c-9.688,7.568 -20.1,14.211 -30.826,20.203c-21.891,12.23 -45.591,20.925 -69.883,26.991c-48.842,12.196 -103.481,14.358 -151.99,-0.259c-21.724,-6.546 -42.396,-16.449 -60.979,-29.486c-8.727,-6.122 -16.816,-13.136 -25.332,-19.545c-7.859,-5.915 -17.644,-11.744 -27.681,-11.764c-0.964,-0.002 -2.789,1.819 -1.673,2.719Z" style="fill:#010101;fill-rule:nonzero;"/><path d="M0.697,131.662c5.375,9.397 11.496,17.078 20.156,23.758c8.275,6.381 20.118,14.199 30.985,14.226c4.287,0.01 11.013,-8.433 5.214,-11.02c-1.332,-0.596 -2.331,-0.979 -3.785,-1.104c-3.695,-0.32 -8.221,3.271 -6.866,7.315c0.221,0.808 0.536,1.574 0.948,2.304c2.805,-2.987 5.608,-5.976 8.412,-8.964c-4.479,-0.688 -8.637,-0.762 -13.074,-2.073c-5.318,-1.573 -10.301,-4.341 -15.084,-7.094c-8.448,-4.863 -18.348,-11.364 -24.317,-19.195c-0.878,-1.152 -3.264,0.668 -2.589,1.847Z" style="fill:#010101;fill-rule:nonzero;"/><path d="M37.998,74.222c2.312,27.781 29.393,50.976 53.924,60.137c4.819,1.8 10.483,-2.302 10.417,-7.491c-0.072,-5.634 -3.673,-9.771 -9.454,-8.479c-6.203,1.385 -3.512,8.604 -3.076,12.496c3.023,-2.652 6.046,-5.307 9.069,-7.958c-26.703,-5.76 -46.108,-26.626 -58.777,-49.635c-0.576,-1.047 -2.186,-0.068 -2.103,0.93Z" style="fill:#010101;fill-rule:nonzero;"/><path d="M112.788,15.981c-2.709,15.83 0.285,30.672 6.738,45.264c3.367,7.612 7.65,14.912 12.255,21.837c4.267,6.417 9.077,13.425 14.92,18.511c5.004,4.355 13.308,-2.222 11.485,-8.199c-1.604,-5.266 -4.756,-8.26 -10.317,-8.227c-2.542,0.016 -4.555,2.605 -4.656,4.948c-0.166,3.8 1.665,6.693 2.748,10.247c3.829,-2.732 7.658,-5.466 11.486,-8.199c-5.272,-4.59 -10.678,-8.728 -15.38,-13.962c-5.472,-6.09 -10.167,-12.742 -14.117,-19.906c-7.015,-12.717 -12.654,-28.153 -12.563,-42.837c0.01,-1.613 -2.41,-0.583 -2.599,0.523Z" style="fill:#010101;fill-rule:nonzero;"/><path d="M201.737,1.985c-6.75,27.172 -2.112,56.35 7.232,82.372c2.485,6.919 12.896,-0.076 12.505,-5.532c-0.313,-4.391 -1.168,-7.42 -5.719,-8.516c-1.965,-0.473 -4.311,1.192 -5.045,2.94c-1.383,3.292 -1.824,6.085 -2.037,9.679c4.168,-1.844 8.337,-3.688 12.506,-5.532c-13.326,-22.553 -16.031,-50.263 -16.74,-75.958c-0.047,-1.742 -2.438,-0.521 -2.702,0.547Z" style="fill:#010101;fill-rule:nonzero;"/><path d="M282.787,9.291c1.735,12.532 3.244,25.196 3.32,37.862c0.074,12.465 -0.738,27.407 -7.839,38.126c3.693,0.696 7.388,1.394 11.08,2.089c0.369,-3.898 0.9,-5.726 -1.412,-9.004c-0.828,-1.175 -2.882,-0.869 -3.901,-0.208c-3.965,2.563 -6.78,5.22 -7.234,10.229c-0.733,8.1 9.67,6.328 12.01,0.562c5.128,-12.639 6.342,-26.592 5.828,-40.109c-0.523,-13.768 -2.619,-28.459 -9.336,-40.66c-0.674,-1.224 -2.682,-0.095 -2.516,1.113Z" style="fill:#010101;fill-rule:nonzero;"/><path d="M349.236,30.466c2.03,11.269 -2.155,23.781 -6.18,34.179c-4.048,10.46 -8.838,21.103 -14.811,30.622c3.031,-1.007 6.063,-2.014 9.094,-3.021c0.445,0.857 0.43,0.788 -0.048,-0.207c-0.317,-0.811 -0.856,-1.425 -1.618,-1.845c-1.756,-0.696 -3.238,-0.882 -4.968,0.105c-3.558,2.028 -6.356,6.92 -4.769,10.925c0.535,1.347 1.838,2.51 3.323,2.667c0.312,0.033 0.621,0.065 0.932,0.099c4.438,0.471 7.861,-2.604 9.186,-6.623c3.767,-11.441 9.241,-22.2 12.502,-33.854c3.271,-11.691 3.958,-22.878 0.948,-34.635c-0.494,-1.935 -3.886,-0.044 -3.591,1.588Z" style="fill:#010101;fill-rule:nonzero;"/><path d="M405.551,45.365c-0.108,15.219 -5.284,30.741 -11.739,44.343c-6.197,13.059 -15.025,25.006 -26.335,34.069c2.398,2.733 4.797,5.466 7.195,8.199c2.752,-2.774 6.728,-7.243 3.991,-11.25c-2.59,-3.793 -9.16,1.04 -11.188,3.05c-2.2,2.183 -4.425,6.079 -1.915,8.938c2.427,2.766 6.771,1.295 9.11,-0.738c24.204,-21.023 37.996,-55.837 33.926,-87.588c-0.257,-2.015 -3.035,-0.539 -3.045,0.977Z" style="fill:#010101;fill-rule:nonzero;"/><path d="M452.086,83.693c-9.279,19.581 -20.847,43.299 -39.984,55.025c1.838,3.064 3.677,6.131 5.517,9.196c3.244,-2.839 6.735,-5.52 6.317,-10.275c-0.106,-1.21 -0.886,-2.23 -2.133,-2.43c-4.599,-0.735 -8.024,1.533 -11.271,4.631c-2.207,2.105 -4.328,6.018 -1.887,8.801c2.354,2.682 6.719,1.333 8.973,-0.727c18.756,-17.145 32.144,-38.935 36.537,-64.125c0.251,-1.442 -1.644,-0.992 -2.069,-0.096Z" style="fill:#010101;fill-rule:nonzero;"/><path d="M481.451,112.574c-3.418,9.871 -10.424,18.34 -17.724,25.646c-3.432,3.434 -7.206,6.68 -11.162,9.497c-4.104,2.921 -8.804,4.824 -12.835,7.778c-4.998,3.664 -2.809,11.289 3.727,9.575c5.181,-1.357 10.07,-5.613 14.188,-8.886c4.704,-3.738 8.882,-8.098 12.788,-12.648c7.481,-8.713 13.141,-19.291 14.416,-30.804c0.251,-2.264 -2.818,-1.831 -3.398,-0.158Z" style="fill:#010101;fill-rule:nonzero;"/><path d="M20.327,183.464c8.779,1.328 17.893,-5.583 24.953,-10.192c9.007,-5.879 17.396,-12.703 25.695,-19.528c7.768,-6.388 15.242,-13.316 23.476,-19.108c7.84,-5.517 16.349,-10.047 24.989,-14.163c16.817,-8.011 34.964,-13.369 53.041,-17.67c19.154,-4.558 38.475,-6.595 57.943,-9.22c4.414,-0.596 8.544,-3.854 9.506,-8.343c0.877,-4.092 -2.027,-7.412 -6.203,-7.068c-4.618,0.379 -8.384,1.814 -12.505,3.858c-3.145,1.56 -6.643,7.94 -2.18,10.17c3.786,1.893 7.288,1.519 11.382,1.383c1.101,-5.138 2.202,-10.274 3.303,-15.411c-39.435,4.537 -78.318,11.674 -114.816,27.868c-18.367,8.149 -33.789,19.566 -48.609,32.979c-8.492,7.685 -17.02,15.331 -26.018,22.424c-4.119,3.247 -8.339,6.32 -12.554,9.438c-4.519,3.343 -8.613,5.707 -11.907,10.319c-0.517,0.72 -0.672,2.086 0.504,2.264Z" style="fill:#010101;fill-rule:nonzero;"/><path d="M86.257,126.26c12.097,-5.003 23.457,-10.994 36.016,-14.938c14.162,-4.445 28.692,-7.683 43.315,-10.179c13.708,-2.34 27.651,-5.051 41.6,-4.91c6.563,0.066 15.92,1.914 20.141,-4.536c5.539,-8.466 -5.576,-13.065 -10.437,-5.641c-0.704,1.076 3.861,-3.088 1.549,-1.449c-2.45,1.738 -5.258,5.221 -2.858,8.211c1.001,1.248 -0.373,-0.651 -0.425,-1.713c0.439,8.922 14.262,2.769 13.906,-4.458c-0.003,-0.072 -0.007,-0.143 -0.011,-0.215c-0.077,-1.571 -0.974,-3.612 -2.568,-4.229c-5.788,-2.229 -14.439,-0.792 -20.646,-0.578c-7.503,0.257 -14.889,1.554 -22.215,3.11c-7.444,1.582 -15.057,2.506 -22.527,4.012c-14.515,2.924 -28.873,6.882 -42.778,11.97c-12.634,4.622 -25.96,10.399 -35.035,20.648c-2.038,2.305 -0.262,6.233 2.973,4.895Z" style="fill:#010101;fill-rule:nonzero;"/><path d="M291.104,99.036c0.232,4.804 7.438,7.201 11.138,8.834c6.444,2.846 13.414,4.563 20.201,6.383c14.738,3.95 28.227,10.969 41.711,18.002c14.75,7.693 29.256,15.854 44.365,22.843c7.46,3.45 15.104,6.484 22.887,9.125c7.996,2.714 18.526,6.505 26.916,4.212c2.952,-0.807 6.541,-5.341 3.953,-8.246c-2.417,-2.712 -6.416,-3.756 -9.828,-4.831c-4.33,-1.365 -8.604,-3.02 -12.895,-4.522c-7.721,-2.707 -15.258,-5.945 -22.686,-9.366c-15.125,-6.967 -29.64,-15.188 -44.408,-22.862c-13.244,-6.881 -26.56,-13.557 -41.047,-17.348c-6.496,-1.7 -13.062,-3.012 -19.601,-4.522c-3.092,-0.714 -6.239,-1.099 -9.321,-1.893c-2.679,-0.689 -4.688,-1.575 -7.486,-0.856c-2.095,0.539 -4.004,2.85 -3.899,5.047Z" style="fill:#010101;fill-rule:nonzero;"/><path d="M296.456,107.008c-0.743,4.723 12.559,6.79 15.563,7.786c5.858,1.941 11.624,4.6 17.271,7.09c11.573,5.105 22.86,10.823 34.088,16.644c22.802,11.822 45.856,23.87 71.073,29.644c5.983,1.37 11.871,2.395 18,1.741c3.08,-0.327 5.345,-0.411 7.633,-2.748c1.586,-1.619 2.393,-4.117 0.701,-6.045c-1.435,-1.634 -5.395,-2.129 -7.425,-2.624c-2.885,-0.702 -5.879,-0.972 -8.804,-1.493c-6.452,-1.151 -12.786,-2.918 -19.017,-4.935c-24.651,-7.974 -47.313,-21.422 -70.572,-32.603c-10.089,-4.851 -20.655,-9.77 -31.585,-12.394c-4.176,-0.999 -25.708,-7.811 -26.926,-0.063Z" style="fill:#010101;fill-rule:nonzero;"/><path d="M10.929,150.339c7.677,-9.771 14.309,-20.174 22.565,-29.529c8.049,-9.118 16.872,-17.539 26.301,-25.215c18.767,-15.277 40.237,-27.146 62.779,-35.849c24.336,-9.396 49.861,-14.521 75.667,-17.839c26.51,-3.409 53.388,-4.499 80.054,-2.471c29.952,2.277 59.561,8.836 87.553,19.751c14.382,5.608 28.265,12.448 41.635,20.151c14.207,8.185 27.558,17.748 41.604,26.161c2.375,1.422 6.663,-2.631 4.5,-4.828c-19.014,-19.317 -43.956,-33.054 -68.51,-44.157c-23.396,-10.58 -48.193,-17.983 -73.479,-22.368c-51.486,-8.928 -106.344,-5.392 -156.947,7.135c-30.547,7.562 -60.065,20.38 -85.647,38.793c-12.385,8.914 -23.638,19.063 -33.871,30.377c-10.157,11.232 -20.683,25.004 -26.081,39.234c-0.536,1.419 1.154,1.576 1.877,0.654Z" style="fill:#010101;fill-rule:nonzero;"/><path d="M29.982,227.5c3.158,8.458 10.107,15.155 16.69,21.06c8.208,7.36 17.294,13.726 26.544,19.693c20.087,12.96 41.409,22.893 64.588,28.914c26.146,6.793 53.426,8.898 80.356,9.329c20.426,0.326 40.745,-0.726 60.997,-3.422c37.938,-5.052 75.998,-15.072 109.942,-33.063c31.226,-16.549 60.662,-42.411 68.437,-78.252c0.459,-2.117 -2.463,-1.155 -2.924,0.235c-12.914,38.927 -45.27,64.463 -81.494,80.813c-37.106,16.75 -78.383,24.995 -118.838,27.818c-42.589,2.972 -87.447,0.561 -128.347,-12.311c-18.881,-5.94 -36.451,-15.46 -53.088,-26.072c-8.313,-5.304 -16.406,-11.04 -23.993,-17.343c-6.292,-5.226 -12.964,-11.224 -16.687,-18.647c-0.615,-1.228 -2.605,0.118 -2.183,1.248Z" style="fill:#010101;fill-rule:nonzero;"/></g></svg>