<?xml version="1.0" encoding="UTF-8" standalone="no"?><!DOCTYPE svg PUBLIC "-//W3C//DTD SVG 1.1//EN" "http://www.w3.org/Graphics/SVG/1.1/DTD/svg11.dtd"><svg width="100%" height="100%" viewBox="0 0 545 357" version="1.1" xmlns="http://www.w3.org/2000/svg" xmlns:xlink="http://www.w3.org/1999/xlink" xml:space="preserve" style="fill-rule:evenodd;clip-rule:evenodd;stroke-linejoin:round;stroke-miterlimit:1.41421;"><g id="field"><path d="M5.531,155.875c38.938,-23.179 87.423,-12.014 128.017,0.834c21.159,6.697 41.941,15.023 62.158,24.166c27.753,12.552 53.603,28.894 79.521,44.777c15.313,9.384 30.639,18.758 46.801,26.624c16.114,7.842 32.957,14.163 50.11,19.319c16.464,4.948 33.302,8.635 50.284,11.278c8.652,1.348 17.375,2.075 26.109,2.651c9.738,0.644 19.071,0.059 28.722,-1.043c3.552,-0.405 8.347,-7.271 2.861,-8.365c-6.717,-1.34 -13.217,-2.629 -20.02,-3.571c-7.407,-1.026 -14.832,-1.894 -22.223,-3.044c-14.212,-2.213 -28.302,-4.566 -42.275,-8.035c-28.01,-6.954 -54.897,-18.239 -79.882,-32.625c-26.305,-15.146 -51.666,-31.875 -78.164,-46.689c-22.101,-12.355 -45.274,-22.479 -68.929,-31.455c-28.161,-10.686 -57.658,-19.856 -87.812,-22.29c-27.061,-2.184 -59.132,0.38 -79.128,21.052c-3.399,3.516 -1.331,9.5 3.85,6.416Z" style="fill:#010101;fill-rule:nonzero;"/><path d="M214.246,184.206c10.584,0.669 19.338,-6.112 27.824,-11.563c10.524,-6.758 21.987,-12.005 33.377,-17.125c23.899,-10.741 48.6,-19.42 73.927,-26.102c25.674,-6.772 51.843,-11.406 78.268,-13.977c26.271,-2.556 53.356,-3.596 79.522,0.304c1.942,-5.679 3.885,-11.356 5.827,-17.034c-3.931,-0.024 -7.527,0.784 -11.182,2.195c-3.909,1.509 -10.609,9.331 -4.298,12.501c3.882,1.949 7.485,2.464 11.808,2.437c7.786,-0.047 16.541,-15.577 5.827,-17.033c-26.494,-3.603 -53.693,-2.482 -80.249,0.066c-27.256,2.617 -54.313,7.756 -80.771,14.756c-26.328,6.967 -51.484,16.416 -76.18,27.857c-22.757,10.543 -45.089,22.746 -63.902,39.521c-0.798,0.712 -1.606,3.082 0.202,3.197Z" style="fill:#010101;fill-rule:nonzero;"/><path d="M74.493,138.698c-13.794,2.488 -25.037,13.221 -34.456,22.933c-5.189,5.35 -10,11.054 -14.583,16.925c-2.284,2.927 -4.475,5.926 -6.628,8.949c-1.629,2.289 -4.217,4.771 -3.809,7.777c0.214,1.58 1.768,2.49 3.292,1.849c4.732,-1.991 7.318,-8.034 10.25,-12.065c4.092,-5.629 8.463,-11.049 13.07,-16.263c9.613,-10.877 20.91,-19.348 33.026,-27.218c0.958,-0.623 1.872,-3.254 -0.162,-2.887Z" style="fill:#010101;fill-rule:nonzero;"/><path d="M133.097,147.206c-9.341,3.5 -16.972,10.558 -23.925,17.49c-7.901,7.879 -15.028,16.517 -21.543,25.566c-13.306,18.484 -23.241,38.867 -30.469,60.418c3.364,-0.68 6.729,-1.359 10.095,-2.039c0.121,-2.754 0.493,-5.711 -0.896,-8.191c-1.111,-1.983 -3.507,-1.623 -5.041,-0.268c-3.606,3.187 -4.429,7.052 -4.262,11.729c0.233,6.525 9.086,1.937 10.095,-2.039c5.102,-20.11 15.057,-39.177 26.647,-56.275c5.815,-8.577 12.319,-16.737 19.442,-24.265c6.705,-7.086 14.334,-13.267 20.798,-20.578c0.66,-0.748 0.082,-1.931 -0.941,-1.548Z" style="fill:#010101;fill-rule:nonzero;"/><path d="M179.149,175.129c-16.7,13.197 -26.828,32.078 -34.698,51.485c-7.909,19.505 -14.057,39.94 -20.416,59.995c-0.678,2.136 1.227,3.873 3.254,3.708c2.509,-0.203 4.226,-2.14 4.986,-4.376c0.985,-2.896 0.573,-5.473 0.307,-8.444c-0.209,-2.336 -3.321,-1.664 -4.248,-0.206c-1.724,2.71 -2.716,5.33 -3.945,8.282c2.511,0.468 5.022,0.937 7.533,1.404c13.646,-37.461 19.485,-80.301 49.239,-109.556c1.819,-1.788 -0.004,-3.878 -2.012,-2.292Z" style="fill:#010101;fill-rule:nonzero;"/><path d="M235.518,198.391c-13.259,16.487 -20.958,36.761 -27.379,56.728c-6.607,20.544 -10.321,41.639 -15.241,62.583c2.938,-1.707 5.877,-3.415 8.815,-5.123c-1.143,-0.457 -2.012,-1.053 -3.12,-1.521c-2.899,-1.225 -6.018,1.48 -6.116,4.397c-0.084,2.537 -0.559,3.56 1.179,5.77c3.548,4.512 9.591,-1.962 9.866,-5.669c3.026,-40.737 17.767,-79.63 35.587,-115.915c1.311,-2.672 -2.259,-2.907 -3.591,-1.25Z" style="fill:#010101;fill-rule:nonzero;"/><path d="M277.12,226.928c-0.54,20.478 -1.709,40.916 -1.945,61.42c-0.063,5.5 -0.024,10.992 -0.396,16.484c-0.162,2.393 -0.485,4.803 -1.035,7.137c-0.031,0.13 -0.812,1.727 -0.33,1.045c-0.411,0.489 -0.381,0.44 0.092,-0.146c-0.592,0.444 -1.335,1.437 -1.581,2.138c0.791,-0.843 1.582,-1.686 2.373,-2.529c0.154,-0.01 0.309,-0.019 0.463,-0.028c-1.847,0.276 -4.293,2.296 -3.412,4.427c0.172,0.363 0.293,0.744 0.362,1.143c0.365,1.393 2.046,1.929 3.3,1.842c12.025,-0.834 8.891,-22.541 8.427,-30.087c-0.56,-9.103 -0.536,-18.229 -0.682,-27.347c-0.197,-12.289 -1.237,-24.532 -1.566,-36.803c-0.072,-2.659 -4.016,-0.734 -4.07,1.304Z" style="fill:#010101;fill-rule:nonzero;"/><path d="M315.267,250.881c2.543,16.885 2.776,34.737 2.584,51.797c-0.06,5.294 -0.171,10.589 -0.488,15.875c-0.134,2.236 -0.371,4.463 -0.749,6.671c-0.156,0.911 -0.159,1.071 -0.327,1.514c-0.489,1.438 -0.566,1.663 -0.232,0.672c-1.69,4.167 4.227,-2.89 2.913,-2.591c-1.592,0.363 -3.297,2.13 -3.535,3.759c-0.371,2.54 0.895,4.604 3.699,4.476c3.584,-0.164 5.758,-3.235 6.791,-6.301c1.854,-5.498 1.021,-12.691 0.916,-18.386c-0.367,-20.024 -3.227,-39.659 -7.883,-59.117c-0.479,-2 -3.94,-0.039 -3.689,1.631Z" style="fill:#010101;fill-rule:nonzero;"/><path d="M352.723,260.663c8.653,27.172 17.918,55.467 17.127,84.314c-0.187,6.767 13.264,1.969 10.365,-4.586c-0.625,-1.412 -1.201,-2.461 -2.327,-3.514c-1.547,-1.447 -4.092,-0.54 -5.181,1.076c-0.968,1.438 -1.724,2.795 -2.304,4.437c3.353,-0.272 6.704,-0.544 10.056,-0.815c-1.263,-29.521 -10.783,-56.998 -22.873,-83.686c-1.277,-2.82 -5.664,0.258 -4.863,2.774Z" style="fill:#010101;fill-rule:nonzero;"/><path d="M401.26,279.356c4.258,10.909 10.218,21.007 14.711,31.843c4.604,11.103 7.519,22.845 8.897,34.771c3.442,-1.522 6.886,-3.046 10.328,-4.568c-1.902,-3.204 -4.007,-5.212 -7.747,-5.874c-1.869,-0.331 -3.695,1.238 -4.129,2.978c-0.842,3.38 0.087,5.703 1.792,8.645c2.85,4.914 11.024,0.464 10.328,-4.568c-3.239,-23.412 -12.527,-49.758 -30.621,-65.767c-1.48,-1.311 -4.277,0.696 -3.559,2.54Z" style="fill:#010101;fill-rule:nonzero;"/><path d="M443.237,286.369c4.938,10.957 12.908,20.021 19.699,29.851c7.573,10.963 13.696,22.462 17.766,35.165c3.635,-2.072 7.271,-4.145 10.906,-6.217c-1.383,-2.62 -2.55,-5.108 -5.752,-5.501c-2.461,-0.301 -4.857,1.523 -5.424,3.911c-0.656,2.768 -0.509,5.084 0.27,7.807c1.795,6.284 13.063,-0.351 10.906,-6.217c-4.383,-11.919 -11.383,-22.864 -18.91,-33.021c-7.688,-10.374 -15.92,-20.751 -26.21,-28.63c-1.412,-1.081 -3.923,1.359 -3.251,2.852Z" style="fill:#010101;fill-rule:nonzero;"/><path d="M482.936,296.885c4.779,3.585 8.678,8.068 13.135,11.998c4.748,4.187 9.271,8.678 13.588,13.306c8.697,9.325 17.036,19.918 21.102,32.161c3.048,-2.674 6.096,-5.349 9.144,-8.023c-3.807,-1.376 -7.12,-1.845 -11.153,-1.831c-1.723,0.006 -3.652,1.96 -3.488,3.708c0.474,5.051 3.854,7.029 8.36,8.444c3.814,1.198 10.032,-4.514 7.927,-8.446c-6.28,-11.733 -13.59,-22.239 -23.347,-31.384c-4.898,-4.591 -10.194,-8.68 -15.601,-12.644c-5.444,-3.99 -11.592,-6.803 -17.229,-10.508c-1.634,-1.074 -4.184,1.909 -2.438,3.219Z" style="fill:#010101;fill-rule:nonzero;"/><path d="M244.871,164.971c5.573,3.074 10.933,5.289 15.974,9.363c5.54,4.479 10.545,9.486 15.316,14.764c2.085,2.308 4.677,4.496 6.234,7.209c0.818,1.427 1.375,3.631 2.934,4.475c3.577,1.937 7.367,-2.001 6.939,-5.504c-0.377,-3.1 -4.108,-1.992 -5.449,-0.265c-0.079,0.078 -0.157,0.157 -0.236,0.235c1.222,-0.4 2.442,-0.801 3.663,-1.201c-0.082,-0.027 -0.164,-0.054 -0.246,-0.081c0.642,0.516 1.284,1.03 1.926,1.546c-1.322,-3.127 -3.313,-6.002 -5.72,-8.366c-4.654,-4.571 -8.973,-9.376 -14.048,-13.505c-6.887,-5.604 -16.04,-13.7 -25.604,-12.227c-1.319,0.204 -3.589,2.505 -1.683,3.557Z" style="fill:#010101;fill-rule:nonzero;"/><path d="M277.838,151.014c7.7,4.836 15.402,8.875 22.33,14.912c6.898,6.012 13.058,12.674 18.764,19.82c5.78,7.238 10.945,14.932 16.065,22.642c4.78,7.198 8.962,15.464 14.593,22.016c2.128,-2.283 4.256,-4.565 6.383,-6.849c-1.934,-1.419 -3.879,-2.67 -6.349,-2.471c-1.157,0.094 -2.567,1.146 -2.703,2.372c-0.306,2.75 1.091,4.787 2.669,6.947c2.528,3.461 9.461,-1.916 7.62,-5.439c-4.157,-7.958 -10.044,-15.399 -15.09,-22.827c-5.461,-8.04 -11.257,-15.874 -17.509,-23.317c-11.146,-13.271 -26.63,-28.622 -44.568,-31.431c-1.694,-0.264 -4.161,2.397 -2.205,3.625Z" style="fill:#010101;fill-rule:nonzero;"/><path d="M322.497,135.464c10.948,6.869 20.491,14.387 29.225,23.97c8.275,9.082 15.857,18.767 24.052,27.921c16.407,18.329 36.337,38.552 41.423,63.511c3.039,-1.746 6.078,-3.492 9.116,-5.238c-1.937,-2.816 -3.982,-3.813 -7.077,-5.098c-2.42,-1.005 -6.162,1.703 -5.073,4.452c0.982,2.479 2.06,4.618 3.263,6.99c2.838,5.597 10.468,-0.585 9.461,-5.393c-5.399,-25.769 -26.617,-46.978 -43.784,-65.655c-8.669,-9.43 -16.655,-19.477 -25.508,-28.734c-8.729,-9.129 -19.383,-19.185 -32.319,-21.289c-2.141,-0.349 -5.236,3.021 -2.779,4.563Z" style="fill:#010101;fill-rule:nonzero;"/><path d="M376.26,118.356c2.248,4.738 6.578,8.364 10.438,11.789c4.576,4.059 9.391,7.838 14.11,11.727c10.438,8.602 20.713,17.594 28.866,28.459c18.454,24.596 32.59,53.036 45.279,80.91c2.739,6.017 12.154,-0.549 10.402,-5.93c-1.459,-4.482 -3.885,-8.521 -7.666,-11.382c-2.586,-1.957 -6.519,2.038 -6.359,4.573c0.278,4.446 2.5,8.46 3.623,12.738c3.468,-1.977 6.935,-3.953 10.402,-5.93c-13.322,-27.887 -29.34,-54.695 -47.621,-79.605c-7.93,-10.805 -18.182,-19.806 -28.635,-28.088c-4.858,-3.85 -9.732,-7.697 -14.692,-11.414c-4.783,-3.584 -9.497,-8.128 -14.937,-10.666c-1.459,-0.68 -4.003,1.145 -3.21,2.819Z" style="fill:#010101;fill-rule:nonzero;"/><path d="M453.141,108.043c5.535,7.518 12.449,14.073 18.481,21.219c6.054,7.172 11.764,14.623 17.094,22.346c5.452,7.898 10.348,16.156 14.788,24.662c2.315,4.434 4.402,8.969 6.372,13.565c1.454,3.394 4.63,8.573 4.447,12.31c3.573,-2.053 7.146,-4.105 10.72,-6.159c-2.208,-2.783 -4.683,-5.41 -8.221,-6.25c-2.411,-0.571 -5.769,2.188 -5.395,4.734c0.459,3.122 1.695,6.192 3.165,8.976c3.083,5.842 11.659,0.243 11.393,-5.039c-0.194,-3.854 -2.91,-7.892 -4.545,-11.338c-2.138,-4.506 -4.489,-8.907 -6.872,-13.286c-4.912,-9.023 -10.483,-17.689 -16.481,-26.026c-5.784,-8.041 -12.098,-15.727 -18.818,-23.002c-6.815,-7.375 -14.028,-15.151 -22.521,-20.581c-1.999,-1.279 -5.007,1.967 -3.607,3.869Z" style="fill:#010101;fill-rule:nonzero;"/><path d="M510.997,111.169c4.981,5.078 9.406,10.623 13.849,16.163c2.444,3.049 4.647,6.521 6.344,10.043c1.28,2.66 0.864,5.63 2.028,8.143c1.783,3.848 7.257,2.154 9.142,-0.74c4.979,-7.648 -2.246,-15.844 -7.399,-21.305c-5.946,-6.301 -13.213,-11.264 -20.098,-16.45c-1.939,-1.459 -5.671,2.306 -3.866,4.146Z" style="fill:#010101;fill-rule:nonzero;"/><path d="M177.658,156.957c-1.476,-2.449 -2.117,-6.24 -3.13,-9.001c-0.925,-2.52 -1.557,-4.998 -1.758,-7.681c-0.33,-4.396 1.423,-8.798 3.138,-11.454c5.217,-8.083 14.324,-12.527 24.393,-15.313c9.755,-2.698 21.476,-2.889 30.935,1.353c10.431,4.678 15.621,14.374 16.163,25.804c0.155,3.267 -0.103,6.507 -0.567,9.737c2.552,-2.239 5.104,-4.479 7.655,-6.718c-2.506,0.017 -4.7,0.595 -6.792,1.989c-4.184,2.789 -6.438,10.128 0.585,10.416c1.186,0.048 2.36,0.03 3.547,0.005c3.309,-0.069 7.225,-3.389 7.655,-6.718c1.732,-13.426 0.366,-27.972 -9.652,-38.038c-8.409,-8.448 -20.515,-11.25 -32.073,-11.199c-12.002,0.055 -24.273,3.755 -34.475,10.023c-9.042,5.555 -18.396,14.624 -19.651,25.73c-0.474,4.192 -0.17,8.354 1.291,12.338c0.771,2.102 1.874,4.16 3.203,5.959c1.915,2.593 4.219,3.403 6.529,5.405c1.543,1.34 4.025,-0.942 3.004,-2.637Z" style="fill:#010101;fill-rule:nonzero;"/><path d="M231.924,99.353c4.479,0.192 7.53,-9.409 8.801,-12.509c3.011,-7.342 5.253,-14.993 8.746,-22.137c3.502,-7.164 6.622,-14.492 9.758,-21.822c1.535,-3.589 3.087,-7.171 4.704,-10.725c1.168,-2.567 3.635,-5.699 3.428,-8.592c-0.141,-1.975 -2.348,-1.433 -3.414,-0.668c-2.27,1.626 -3.201,4.688 -4.34,7.146c-1.609,3.471 -3.088,7.003 -4.577,10.527c-3.123,7.396 -6.15,14.838 -9.613,22.086c-3.207,6.711 -5.559,13.719 -8.151,20.68c-1.256,3.373 -2.656,6.688 -4.232,9.923c-0.734,1.507 -2.833,3.86 -1.949,5.622c0.185,0.367 0.451,0.452 0.839,0.469Z" style="fill:#010101;fill-rule:nonzero;"/><path d="M260.496,107.804c10.103,-9.707 19.84,-19.798 29.96,-29.495c9.744,-9.337 20.618,-18.575 28.526,-29.586c0.855,-1.191 -0.45,-1.843 -1.432,-1.135c-11.396,8.214 -21.363,18.919 -31.445,28.658c-9.773,9.439 -19.851,18.789 -28.791,29.035c-2.042,2.343 1.161,4.466 3.182,2.523Z" style="fill:#010101;fill-rule:nonzero;"/><path d="M202.55,97.536c2.729,-6.477 1.11,-13.325 0.2,-20.043c-1.192,-8.796 -2.722,-17.553 -4.283,-26.29c-2.954,-16.525 -5.613,-34.493 -12.81,-49.784c-0.75,-1.593 -3.238,-0.055 -3.079,1.362c1.828,16.282 6.399,32.398 9.48,48.483c2.957,15.433 5.588,30.929 7.537,46.512c0.218,1.726 2.48,0.888 2.955,-0.24Z" style="fill:#010101;fill-rule:nonzero;"/><path d="M123.641,30.727c10.893,16.856 22.96,32.832 34.934,48.936c2.295,3.086 4.502,6.245 6.669,9.423c1.38,2.023 2.719,4.125 3.818,6.316c0.36,0.718 0.638,1.401 1.094,2.069c1.125,1.648 0.256,-0.095 0.441,-0.686c0.699,-0.742 1.398,-1.486 2.097,-2.229c0.108,-0.036 0.215,-0.073 0.323,-0.11c-1.304,-0.188 -3.439,1.388 -2.7,2.877c0.271,0.546 0.497,0.899 0.994,1.258c0.609,0.438 1.605,0.144 2.182,-0.178c3.56,-1.984 0.936,-5.333 -0.74,-7.433c-3.185,-3.989 -6.458,-7.889 -9.505,-11.989c-12.435,-16.726 -24.928,-33.403 -38.579,-49.156c-0.458,-0.528 -1.387,0.345 -1.028,0.902Z" style="fill:#010101;fill-rule:nonzero;"/><path d="M90.702,76.874c10.149,4.985 19.835,10.688 29.397,16.712c4.837,3.048 9.628,6.168 14.419,9.286c5.34,3.476 12.042,6.697 16.522,11.26c2.21,2.25 6.526,-2.36 3.786,-4.063c-2.016,-1.252 -4.047,-1.438 -6.369,-1.207c-1.098,0.109 -2.283,1.433 -1.536,2.496c1.27,1.808 2.795,1.945 4.562,3.125c0.934,-1.534 1.867,-3.068 2.801,-4.603c-5.598,-1.769 -10.997,-5.845 -16.039,-8.795c-4.955,-2.899 -9.913,-5.791 -14.896,-8.641c-10.38,-5.937 -20.923,-11.669 -31.742,-16.767c-0.65,-0.305 -1.63,0.84 -0.905,1.197Z" style="fill:#010101;fill-rule:nonzero;"/><path d="M70.88,111.858c12.326,4.045 25.397,6.167 37.99,9.271c6.097,1.502 12.158,3.146 18.189,4.889c3.002,0.868 5.988,1.792 8.968,2.732c3.087,0.974 9.059,2.133 11.588,4.396c1.082,-1.16 2.163,-2.321 3.245,-3.481c-1.102,-0.589 -2.151,-0.888 -3.395,-0.836c-1.278,0.053 -2.505,1.837 -1.308,2.766c0.581,0.45 0.977,1.015 1.458,1.552c1.601,1.788 5.172,-1.347 3.625,-3.181c-1.07,-1.268 -3.21,-1.382 -4.712,-1.779c-3.617,-0.956 -7.171,-2.161 -10.743,-3.27c-7.19,-2.232 -14.463,-4.193 -21.761,-6.039c-13.865,-3.507 -28.296,-7.153 -42.594,-8.184c-0.597,-0.043 -1.344,0.903 -0.55,1.164Z" style="fill:#010101;fill-rule:nonzero;"/><path d="M288.989,128.05c13.467,-2.435 26.265,-8.685 38.392,-14.792c13.738,-6.919 27.637,-13.627 41.19,-20.895c1.256,-0.673 1.253,-2.767 -0.483,-2.33c-13.267,3.332 -25.389,10.444 -37.42,16.732c-13.647,7.132 -27.402,13.719 -41.553,19.777c-0.588,0.253 -1.222,1.707 -0.126,1.508Z" style="fill:#010101;fill-rule:nonzero;"/><path d="M495.776,280.096c3.532,1.443 9.111,0.236 12.724,-0.35c2.496,-0.406 4.978,-0.883 7.464,-1.35c1.396,-0.263 2.885,-0.315 4.124,-1.111c1.403,-0.902 1.801,-0.455 -1.139,0.03c-1.049,-1.716 -2.098,-3.433 -3.147,-5.148c0.188,-0.311 0.377,-0.621 0.565,-0.933c-1.259,1.711 -1.87,5.877 1.348,6.036c1.047,0.052 1.36,0.069 2.399,-0.189c3.002,-0.748 5.591,-4.731 3.602,-7.509c-2.439,-3.405 -9.269,0.364 -12.031,1.379c-4.877,1.791 -9.803,3.556 -14.632,5.432c-1.053,0.409 -3.256,2.906 -1.277,3.713Z" style="fill:#010101;fill-rule:nonzero;"/></g></svg>