<?xml version="1.0" encoding="UTF-8" standalone="no"?><!DOCTYPE svg PUBLIC "-//W3C//DTD SVG 1.1//EN" "http://www.w3.org/Graphics/SVG/1.1/DTD/svg11.dtd"><svg width="100%" height="100%" viewBox="0 0 197 525" version="1.1" xmlns="http://www.w3.org/2000/svg" xmlns:xlink="http://www.w3.org/1999/xlink" xml:space="preserve" style="fill-rule:evenodd;clip-rule:evenodd;stroke-linejoin:round;stroke-miterlimit:1.41421;"><g id="finger"><path d="M54.735,22.583c2.742,-2.391 4.429,-5.373 7.596,-7.365c3.754,-2.361 8.27,-3.611 12.587,-4.446c7.358,-1.422 16.196,-1.808 23.082,-0.864c6.386,0.875 12.782,3.124 18.713,5.569c3.015,1.243 5.99,2.629 8.663,4.508c0.677,0.477 0.279,-0.073 0.629,0.945c-0.859,-2.508 0.38,2.882 -0.026,-0.139c0.14,1.041 0.346,2.072 1.172,2.819c1.495,1.352 3.616,1.907 5.561,1.09c4.164,-1.749 9.284,-7.748 5.007,-12.132c-2.312,-2.368 -6.158,-3.697 -9.142,-4.91c-8.242,-3.35 -17.406,-5.955 -26.272,-6.883c-9.593,-1.003 -19.912,0.416 -29.172,2.875c-7.462,1.982 -22.924,8.376 -22.444,18.141c0.108,2.245 2.853,1.833 4.046,0.792Z" style="fill:#010101;fill-rule:nonzero;"/><path d="M51.807,17.288c-4.255,2.841 -3.34,12.186 -3.663,16.64c-0.6,8.263 -0.71,16.594 -0.753,24.876c-0.039,7.852 0.146,15.757 1.146,23.552c0.655,5.109 1.306,13.983 7.106,15.594c3.448,0.956 7.205,-3.006 7.119,-6.247c-0.065,-2.496 -1.467,-3.831 -2.316,-5.975c-1.094,-2.758 -1.697,-5.708 -2.203,-8.619c-1.356,-7.809 -1.739,-15.786 -2.029,-23.693c-0.296,-8.041 -0.188,-16.09 -0.447,-24.131c-0.048,-1.421 0.109,-14.714 -3.96,-11.997Z" style="fill:#010101;fill-rule:nonzero;"/><path d="M134.809,16.985c-2.645,4.632 -1.873,11.698 -2.075,16.838c-0.329,8.355 -0.516,16.716 -0.975,25.066c-0.438,7.995 -0.877,16.002 -2.067,23.929c-0.393,2.608 -1.174,5.896 -1.924,7.891c-0.359,0.739 -0.328,0.79 0.098,0.151c-0.283,0.453 -0.613,0.872 -0.949,1.287c-1.03,1.271 -1.631,3.039 -2.074,4.584c-1.144,3.982 2.963,6.199 6.316,5.097c7.055,-2.32 8.438,-9.934 9.15,-16.39c0.873,-7.906 1.07,-15.86 1.035,-23.809c-0.037,-8.718 -0.491,-17.445 -0.787,-26.158c-0.13,-3.829 -0.247,-7.66 -0.293,-11.491c-0.031,-2.549 0.381,-5.57 -0.734,-7.956c-1.072,-2.292 -3.875,-0.522 -4.721,0.961Z" style="fill:#010101;fill-rule:nonzero;"/><path d="M54.848,92.893c-2.783,5.848 1.522,12.55 5.428,16.796c4.756,5.172 13.037,8.093 19.627,9.798c14.248,3.688 32.139,3.186 44.635,-5.406c6.146,-4.225 12.069,-11.078 11.875,-18.994c-0.125,-5.086 -5.371,-6.691 -9.025,-3.762c2.092,-1.677 -2.021,1.871 -2.064,1.943c-0.763,1.254 -1.424,2.313 -1.846,3.737c-0.598,2.017 -0.662,2.414 -1.26,3.742c0.094,-0.208 -1.489,2.106 -0.771,1.343c-0.485,0.517 -1.025,0.978 -1.563,1.438c-1.752,1.503 1.26,-0.762 -0.717,0.537c-2.895,1.902 -5.008,2.545 -8.63,3.48c-6.827,1.765 -14.431,1.677 -21.386,0.753c-6.578,-0.874 -13.074,-2.609 -18.809,-6.003c-2.578,-1.525 -4.977,-2.85 -6.959,-5.123c-1.721,-1.973 -2.805,-4.357 -4.949,-5.908c-1.232,-0.891 -3.081,0.569 -3.586,1.629Z" style="fill:#010101;fill-rule:nonzero;"/><path d="M50.659,33.75c-11.886,7.277 -19.322,21.167 -23.457,34.033c-5.172,16.099 -5.969,33.304 -7.131,50.044c-1.354,19.503 -1.779,38.888 -2.047,58.423c-0.094,6.921 -0.577,13.83 -0.616,20.754c-0.036,6.269 1.303,12.294 1.557,18.474c0.109,2.652 2.454,4.196 4.953,3.994c3.63,-0.294 6.392,-3.155 7.395,-6.489c0.376,-1.252 0.148,-2.306 -0.078,-3.526c-1.374,-7.397 -10.206,-2.456 -11.647,2.354c-0.356,1.188 -0.859,2.4 -0.622,3.668c3.822,-2.196 7.644,-4.393 11.466,-6.588c-3.113,-3.066 -2.121,-11.384 -2.149,-15.371c-0.044,-6.546 0.356,-13.088 0.513,-19.63c0.412,-17.31 0.344,-34.522 1.422,-51.825c1,-16.056 1.696,-32.331 4.967,-48.123c1.42,-6.854 3.563,-13.572 6.59,-19.887c3.069,-6.402 7.604,-11.273 12.079,-16.665c2.032,-2.454 -0.514,-5.282 -3.195,-3.64Z" style="fill:#010101;fill-rule:nonzero;"/><path d="M136.214,39.652c7.631,0.669 11.388,8.784 13.98,15.11c5.099,12.438 7.441,26.008 9.392,39.237c4.4,29.851 6.438,60.624 5.313,90.792c-0.194,5.213 -0.855,10.469 -1.921,15.574c-0.193,0.926 -0.418,1.846 -0.668,2.758c-0.101,0.369 -0.507,1.602 0.084,-0.119c-1.479,4.309 0.374,-0.794 -0.419,1.104c-0.783,1.871 0.529,-0.574 -0.015,0.154c-0.586,0.785 1.567,-1.492 0.661,-0.775c-0.896,0.78 -1.602,1.705 -2.118,2.774c0.452,-0.915 1.063,-1.709 1.833,-2.381c1.913,-0.628 3.826,-1.256 5.739,-1.884c-0.435,-0.053 -0.868,-0.106 -1.304,-0.159c-3.33,-0.406 -7.535,2.633 -7.169,6.292c0.853,8.503 10.245,4.411 12.632,-1.126c1.445,-3.354 1.711,-7.072 2.009,-10.664c0.944,-11.389 0.762,-23.01 0.485,-34.421c-0.745,-30.846 -3.76,-62.156 -11.573,-92.075c-2.581,-9.882 -9.903,-40.379 -25.877,-35.16c-1.68,0.549 -4.218,4.692 -1.064,4.969Z" style="fill:#010101;fill-rule:nonzero;"/><path d="M23.379,213.11c-4.65,6.363 -5.765,15.727 -7.16,23.303c-1.729,9.391 -2.355,18.909 -2.682,28.444c-0.662,19.407 0.322,38.854 0.395,58.259c0.033,9.201 15.736,3.269 14.813,-4.75c-0.299,-2.598 -1.126,-5.14 -3.771,-6.169c-2.316,-0.901 -4.803,-0.329 -6.637,1.381c-2.256,2.101 -3.921,4.638 -4.256,7.751c4.887,-0.987 9.775,-1.975 14.663,-2.963c-1.978,-17.767 -4.2,-35.455 -4.898,-53.35c-0.353,-9.042 0.08,-18.002 0.425,-27.029c0.172,-4.53 0.778,-9.021 1.515,-13.489c0.606,-3.674 1.919,-7.455 1.565,-11.195c-0.213,-2.255 -3.044,-1.463 -3.972,-0.193Z" style="fill:#010101;fill-rule:nonzero;"/><path d="M167.477,210.378c-4.814,19.343 -1.41,40.062 -0.594,59.833c0.862,20.882 0.725,41.8 -3.188,62.389c5.209,-1.053 10.417,-2.105 15.625,-3.157c-0.057,-2.672 -0.686,-4.097 -2.053,-6.339c-2.949,-4.841 -10.605,0.762 -12.078,3.961c-1.188,2.58 -1.595,4.609 -1.654,7.438c-0.198,9.442 14.808,3.796 15.625,-3.157c2.396,-20.4 2.135,-40.824 0.302,-61.252c-0.912,-10.162 -2.22,-20.275 -3.429,-30.404c-0.607,-5.082 -1.009,-10.224 -1.89,-15.266c-0.942,-5.4 -2.351,-9.762 -4.412,-14.772c-0.486,-1.184 -2.052,-0.087 -2.254,0.726Z" style="fill:#010101;fill-rule:nonzero;"/><path d="M17.661,322.275c-3.409,6.522 -4.268,14.368 -6.132,21.429c-2.126,8.05 -3.733,16.239 -5.255,24.424c-2.955,15.885 -4.135,32.134 -4.809,48.258c-1.375,32.928 0.64,65.89 0.604,98.824c-0.011,10.029 16.653,3.468 16.073,-5.152c-0.25,-3.7 -0.805,-7.01 -4.255,-8.969c-2.896,-1.646 -6.196,0.574 -8.063,2.678c-2.965,3.343 -3.478,7.151 -3.755,11.443c5.357,-1.718 10.715,-3.435 16.073,-5.152c-0.115,-32.891 -2.088,-65.765 -1.123,-98.658c0.473,-16.099 1.869,-32.238 4.192,-48.176c1.067,-7.323 2.441,-14.613 2.713,-22.024c0.235,-6.409 1.072,-14.542 -2.767,-20.071c-0.949,-1.37 -3,0.196 -3.496,1.146Z" style="fill:#010101;fill-rule:nonzero;"/><path d="M170.424,326.245c-7.672,8.417 0.656,24.948 1.801,34.531c2.006,16.809 2.855,33.826 4.4,50.689c3.27,35.705 3.6,71.658 3.615,107.488c0.001,4.462 4.887,5.869 8.434,4.735c4.234,-1.354 7.641,-5.366 7.641,-9.888c0,-2.85 -0.395,-4.952 -2.224,-7.207c-3.62,-4.462 -10.084,0.475 -12.023,3.943c-1.538,2.751 -1.827,5.302 -1.827,8.416c5.357,-1.717 10.717,-3.436 16.074,-5.152c-0.014,-34.426 -1.188,-68.775 -4.982,-103.009c-1.785,-16.101 -3.729,-32.341 -6.569,-48.288c-1.176,-6.604 -2.634,-12.882 -4.985,-19.16c-2.141,-5.715 -3.817,-10.893 -4.829,-16.879c-0.445,-2.62 -3.285,-1.579 -4.526,-0.219Z" style="fill:#010101;fill-rule:nonzero;"/><path d="M49.998,203.934c3.428,2.745 8.56,1.998 12.708,1.784c5.957,-0.307 11.848,-1.583 17.802,-1.987c5.321,-0.361 10.652,-0.715 15.988,-0.703c6.696,0.014 12.991,1.562 19.554,2.56c5.887,0.896 12.801,-9.144 5.277,-11.197c-11.123,-3.038 -24.465,-2.126 -35.699,-0.063c-5.958,1.093 -11.9,2.18 -17.891,3.093c-5.517,0.841 -12.121,1.068 -16.915,4.147c-0.575,0.368 -1.676,1.683 -0.824,2.366Z" style="fill:#010101;fill-rule:nonzero;"/><path d="M62.256,219.652c5.373,4.391 15.768,3.056 22.323,3.014c8.899,-0.056 18.269,0.578 27.092,-0.556c3.049,-0.393 5.786,-2.317 7.106,-5.123c1.25,-2.657 0.681,-6.805 -2.889,-7.206c-8.823,-0.993 -18.149,0.564 -26.939,1.458c-8.005,0.814 -18.186,0.471 -25.33,4.501c-1.011,0.57 -2.721,2.802 -1.363,3.912Z" style="fill:#010101;fill-rule:nonzero;"/><path d="M50.065,345.81c6.892,1.438 14.549,-1.071 21.438,-1.867c7.996,-0.924 16.109,-1.252 24.152,-1.02c7.953,0.229 15.923,1.633 23.53,3.924c6.747,2.032 16.241,7.087 19.162,-2.933c0.356,-1.221 0.115,-3.151 -0.875,-4.064c-5.063,-4.665 -13.54,-5.977 -20.133,-7.131c-7.384,-1.292 -14.986,-1.525 -22.464,-1.35c-7.67,0.181 -15.259,1.256 -22.788,2.674c-7.351,1.385 -15.402,2.58 -21.63,6.978c-1.421,1.003 -3.248,4.194 -0.392,4.789Z" style="fill:#010101;fill-rule:nonzero;"/><path d="M58.063,356.71c7.893,7.548 22.228,8.416 32.509,8.659c10.796,0.256 26.06,0.336 34.712,-6.877c1.898,-1.584 2.322,-4.62 -0.348,-5.505c-4.439,-1.472 -9.298,0.06 -13.9,0.692c-5.551,0.765 -11.133,1.29 -16.732,1.492c-5.727,0.206 -11.453,0.029 -17.139,-0.695c-5.146,-0.655 -10.033,-2.149 -15.129,-2.974c-2.191,-0.353 -6.244,3.036 -3.973,5.208Z" style="fill:#010101;fill-rule:nonzero;"/><path d="M66.051,373.111c8.437,4.153 16.234,6.419 25.702,6.856c7.885,0.364 22.032,1.205 27.108,-6.133c1.029,-1.488 1.32,-2.966 0.349,-4.533c-1.874,-3.024 -6.153,-2.141 -9.194,-1.844c-4.221,0.412 -8.416,0.945 -12.645,1.274c-9.057,0.705 -18.958,0.738 -27.819,-1.374c-2.659,-0.633 -6.702,4.177 -3.501,5.754Z" style="fill:#010101;fill-rule:nonzero;"/><path d="M43.296,82.086c-2.497,13.428 4.429,28.418 13.438,38.041c9.197,9.824 22.777,15.522 36.02,16.775c13.129,1.242 26.162,-2.358 36.566,-10.489c13.631,-10.653 20.066,-29.79 17.845,-46.668c-0.212,-1.61 -2.451,-0.64 -2.635,0.532c-2.481,15.854 -5.39,31.785 -18.382,42.521c-9.24,7.639 -22.036,10.057 -33.717,8.886c-12.077,-1.211 -23.258,-6.516 -32.194,-14.631c-4.684,-4.254 -8.513,-9.438 -11.14,-15.186c-2.942,-6.437 -3.473,-13.155 -4.775,-19.989c-0.117,-0.618 -0.939,-0.256 -1.026,0.208Z" style="fill:#010101;fill-rule:nonzero;"/></g></svg>