<?xml version="1.0" encoding="UTF-8" standalone="no"?><!DOCTYPE svg PUBLIC "-//W3C//DTD SVG 1.1//EN" "http://www.w3.org/Graphics/SVG/1.1/DTD/svg11.dtd"><svg width="100%" height="100%" viewBox="0 0 481 493" version="1.1" xmlns="http://www.w3.org/2000/svg" xmlns:xlink="http://www.w3.org/1999/xlink" xml:space="preserve" style="fill-rule:evenodd;clip-rule:evenodd;stroke-linejoin:round;stroke-miterlimit:1.41421;"><g id="flag"><path d="M20.492,35.832c-2.61,-1.67 -6.819,-0.801 -9.621,-0.048c-2.911,0.783 -5.509,2.385 -7.478,4.655c-3.343,3.853 -2.36,8.526 1.475,11.352c3.674,2.705 9.083,2.497 13.285,1.629c2.624,-0.543 5.152,-1.646 7.437,-3.036c1.488,-0.905 2.868,-2.001 4.218,-3.099c0.641,-0.521 1.227,-1.104 1.804,-1.69c0.585,-0.625 1.168,-1.251 1.751,-1.878c-0.552,0.617 -0.525,0.611 0.081,-0.018c1.73,-1.73 3.207,-3.821 3.07,-6.399c-0.108,-2.033 -1.608,-4.042 -3.744,-4.267c-3.318,-0.348 -6.091,0.037 -9.035,1.729c-2.397,1.378 -6.235,6.402 -3.155,9.061c2.364,2.039 4.661,2.472 7.759,2.165c-1.558,-2.549 -3.116,-5.098 -4.674,-7.646c-0.371,0.733 -0.364,0.782 0.021,0.146c-0.359,0.519 -0.761,1.007 -1.162,1.493c-0.547,0.622 -0.53,0.609 0.051,-0.039c-0.398,0.408 -0.858,0.762 -1.303,1.118c1.372,-1.102 -0.789,0.464 -1.202,0.691c-0.27,0.149 -1.812,0.794 -0.269,0.158c-0.439,0.181 -0.894,0.325 -1.347,0.47c-0.293,0.088 -0.589,0.168 -0.886,0.24c1.455,-0.374 0.079,-0.025 -0.227,0.018c-0.684,0.098 -1.378,0.125 -2.067,0.134c-0.606,-0.012 -0.527,-0.007 0.235,0.016c-0.37,-0.026 -0.737,-0.082 -1.104,-0.139c-0.345,-0.054 -0.685,-0.137 -1.023,-0.22c-1.13,-0.279 1.039,0.422 0,0.019c-0.447,-0.174 -0.866,-0.406 -1.273,-0.661c-0.444,-0.279 0.747,0.825 -0.102,-0.186c-0.287,-0.401 -0.186,-0.224 0.305,0.533c-0.209,-0.393 -0.185,-1.043 0.039,0.486c-0.064,-0.439 -0.37,1.531 -0.435,1.72c0.304,-0.886 -0.941,1.33 -0.325,0.533c-0.837,0.849 -1.014,1.055 -0.53,0.618c-1.363,1.193 -0.723,0.499 -0.22,0.208c0.539,-0.271 0.441,-0.241 -0.293,0.091c0.427,-0.187 0.869,-0.331 1.31,-0.479c2.386,-0.797 5.003,-1.146 7.144,-2.523c2.18,-1.402 4.458,-5.059 1.49,-6.955Z" style="fill:#010101;fill-rule:nonzero;"/><path d="M1.646,45.722c-2.289,12.595 -0.186,26.498 0.353,39.256c0.607,14.395 1.21,28.79 1.84,43.184c1.313,30.015 2.396,60.037 3.696,90.053c1.351,31.21 2.619,62.388 4.966,93.545c2.454,32.58 5.43,65.12 7.354,97.739c0.769,13.015 1.264,26.046 1.539,39.081c0.276,13.066 -0.4,26.041 -0.517,39.091c4.466,-1.976 8.932,-3.95 13.396,-5.926c-0.315,-1.194 -0.63,-2.389 -0.947,-3.583c-1.67,-6.316 -10.476,-0.054 -11.335,3.652c-0.325,1.401 -0.649,2.802 -0.974,4.202c-0.811,3.501 1.78,6.331 5.305,6.045c4.508,-0.365 8.096,-4.38 8.269,-8.787c0.628,-16.05 -0.328,-32.41 -0.971,-48.456c-0.651,-16.268 -1.702,-32.521 -2.888,-48.757c-2.376,-32.55 -5.527,-65.038 -7.854,-97.592c-4.308,-60.258 -6.462,-120.717 -10.023,-181.028c-0.663,-11.227 -1.33,-22.453 -1.999,-33.679c-0.585,-9.808 -0.08,-20.624 -3.115,-30.004c-1.05,-3.243 -5.7,-0.209 -6.095,1.964Z" style="fill:#010101;fill-rule:nonzero;"/><path d="M34.542,44.212c0.037,-1.215 0.2,-2.365 0.42,-3.561c0.202,-1.096 0.547,-2.472 -0.021,-3.505c-0.555,-1.01 -1.97,-0.399 -2.341,0.477c-0.929,2.191 0.255,4.818 0.325,7.108c0.033,1.061 1.594,0.288 1.617,-0.519Z" style="fill:#010101;fill-rule:nonzero;"/><path d="M31.156,36.6c-2.95,15.335 -1.515,31.469 -0.966,46.991c0.576,16.295 1.262,32.523 0.956,48.835c-0.613,32.756 -3.268,65.54 -0.171,98.251c2.94,31.068 2.184,62.579 2.015,93.743c-0.176,32.107 1.527,63.971 3.11,96.023c1.061,21.456 0.995,42.937 0.339,64.405c-0.165,5.378 7.719,1.698 8.503,-1.718c0.917,-3.997 -0.703,-5.512 -3.301,-8.21c-2.517,-2.612 -7.271,1.367 -6.214,4.436c0.523,1.521 1.382,2.787 1.099,4.456c2.835,-0.572 5.669,-1.146 8.503,-1.718c-0.486,-15.607 -0.143,-31.22 -0.574,-46.83c-0.443,-16.035 -1.503,-32.049 -2.393,-48.063c-1.766,-31.788 -1.299,-63.508 -1.367,-95.325c-0.033,-15.694 -0.287,-31.391 -1.092,-47.065c-0.816,-15.92 -2.52,-31.723 -2.719,-47.679c-0.409,-32.871 2.499,-65.681 1.085,-98.553c-0.466,-10.827 -0.866,-21.655 -1.287,-32.484c-0.397,-10.242 -0.238,-20.438 -2.411,-30.5c-0.373,-1.72 -2.916,-0.029 -3.115,1.005Z" style="fill:#010101;fill-rule:nonzero;"/><path d="M31.462,47.767c1.961,8.126 9.839,11.793 16.921,14.702c9.435,3.876 19.376,6.57 29.411,8.31c24.158,4.187 48.059,0.237 71.065,-7.656c27.136,-9.311 52.236,-24.059 79.662,-32.51c29.055,-8.953 59.478,-13.668 89.872,-14.031c18.549,-0.223 37.348,1.629 55.824,5.272c15.676,3.092 38.236,8.692 46.07,22.432c3.423,-4.44 6.846,-8.882 10.269,-13.322c-1.456,0.043 -2.823,0.198 -4.264,-0.043c-6.928,-1.157 -16.441,9.439 -8.83,14.509c2.241,1.493 4.613,2.314 7.306,2.453c5.929,0.307 15.875,-5.967 12.41,-13.224c-7.791,-16.316 -28.288,-22.82 -44.465,-26.938c-18.904,-4.812 -38.602,-6.568 -58.051,-7.214c-27.11,-0.9 -54.201,2.601 -80.613,8.549c-14.458,3.257 -28.594,7.492 -42.307,13.113c-13.347,5.472 -26.367,11.699 -39.574,17.491c-25.033,10.979 -52.281,20.9 -79.678,18.582c-10.502,-0.89 -21.106,-2.947 -31.335,-5.441c-4.954,-1.208 -9.641,-2.978 -14.491,-4.478c-3.733,-1.156 -7.87,-2.142 -11.353,-3.936c-2.011,-1.036 -4.321,1.421 -3.849,3.38Z" style="fill:#010101;fill-rule:nonzero;"/><path d="M426.607,33.782c-9.084,13.098 -14.43,28.079 -19.737,43.088c-6.128,17.328 -12.359,34.61 -18.666,51.874c-14.643,40.083 -31.162,79.408 -46.429,119.244c5.616,-0.455 11.23,-0.91 16.846,-1.365c0.018,-3.317 -1.39,-5.641 -4.197,-7.342c-3.487,-2.113 -7.784,0.752 -9.998,3.322c-2.466,2.862 -3.598,5.959 -3.578,9.719c0.05,10.042 14.567,4.743 16.846,-1.365c14.62,-39.205 29.28,-78.441 43.242,-117.886c11.364,-32.107 21.124,-64.895 32.531,-96.902c1.8,-5.052 -4.317,-6.055 -6.86,-2.387Z" style="fill:#010101;fill-rule:nonzero;"/><path d="M33.96,236.483c2.336,10.479 14.166,15.774 23.469,18.698c11.348,3.568 24.063,4.047 35.846,3.654c27.72,-0.924 54.217,-11.314 80.642,-18.663c25.509,-7.094 52.282,-10.011 78.74,-9.239c25.435,0.742 51.072,6.732 72.751,20.366c2.964,1.864 5.854,3.899 8.588,6.085c2.114,-4.407 4.229,-8.814 6.342,-13.223c-4.142,0.894 -7.807,2.492 -11.856,3.637c-4.123,1.166 -7.366,7.785 -2.047,9.555c1.908,0.635 3.688,1.928 5.685,2.298c2.97,0.551 6.135,-0.246 9.012,-0.868c4.108,-0.889 11.242,-9.311 6.343,-13.223c-41.646,-33.249 -99.289,-34.729 -149.554,-25.106c-27.376,5.24 -53.142,16.332 -80.327,22.308c-13.183,2.896 -26.776,3.982 -40.242,3.282c-11.166,-0.581 -23.166,-1.62 -33.007,-7.321c-2.529,-1.466 -4.925,-3.279 -7.377,-4.877c-1.538,-1.003 -3.321,1.232 -3.008,2.637Z" style="fill:#010101;fill-rule:nonzero;"/><path d="M275.818,254.276c2.811,2.496 7.689,3.313 11.224,3.904c6.566,1.099 13.145,2.012 19.776,2.61c5.779,0.521 11.972,0.568 17.316,0.541c6.163,-0.033 13.641,-4.674 11.668,-11.73c-1.409,-5.043 -8.866,-1.977 -10.743,0.87c0.148,-0.227 3.26,-2.603 1.566,-1.53c-4.926,3.122 1.21,-0.461 -1.541,0.944c1.778,-0.908 -0.928,0.354 -0.471,0.272c-1.026,0.183 -2.065,0.297 -3.101,0.414c-5.537,0.626 -11.141,0.715 -16.706,0.743c-8.802,0.046 -19.648,-1.85 -28.127,1.163c-0.541,0.194 -1.534,1.202 -0.861,1.799Z" style="fill:#010101;fill-rule:nonzero;"/><path d="M265.84,228.625c-1.99,7.472 -2.808,15.084 -3.979,22.72c-0.545,3.552 -2.442,6.611 -2.386,10.209c0.035,2.281 1.816,4.931 2.867,6.887c3.923,7.301 9.416,13.161 16.16,17.927c13.931,9.843 32.25,12.001 48.837,12.109c35.357,0.232 71.058,-10.327 103.896,-22.634c2.254,-0.844 4.474,-1.717 6.628,-2.799c4.491,-2.255 7.602,-10.582 1.001,-12.216c-3.597,-0.89 -6.518,-0.272 -9.677,1.603c-2.172,1.289 -5.214,5.336 -2.707,7.771c1.417,1.376 2.978,2.315 4.615,3.391c1.431,-4.161 2.861,-8.322 4.292,-12.482c-6.34,1.89 -12.476,4.72 -18.739,6.882c-7.777,2.684 -15.64,5.116 -23.564,7.324c-17.65,4.919 -35.721,8.534 -54.04,9.603c-16.119,0.939 -33.111,-0.339 -47.563,-8.109c-6.419,-3.452 -11.619,-8.412 -15.661,-14.454c-2.593,-3.874 -4.802,-8.25 -4.651,-12.892c0.242,-7.477 0.553,-14.816 -1.593,-22.043c-0.619,-2.094 -3.414,-0.003 -3.736,1.203Z" style="fill:#010101;fill-rule:nonzero;"/><path d="M393.143,135.601c-1.271,5.478 5.157,9.09 9.575,10.414c6.076,1.821 12.259,1.992 18.5,2.793c9.56,1.227 19.553,1.262 29.113,0.137c4.062,-0.479 7.771,-1.959 11.81,-1.223c4.141,0.755 8.878,-1.629 10.477,-5.633c1.519,-3.806 -0.026,-7.769 -4.607,-7.537c-2.662,0.135 -4.873,1.807 -5.515,2.369c-0.879,0.772 -1.483,1.742 -1.77,2.875c0.727,-2.878 0.836,-1.922 -0.075,0.061c1.885,-1.653 3.769,-3.308 5.653,-4.961c0.922,-0.097 1.844,-0.193 2.766,-0.29c-0.824,-0.14 -1.642,-0.13 -2.452,0.029c-1.648,0.228 -3.263,0.384 -4.896,0.731c-3.543,0.754 -7.003,1.674 -10.596,2.201c-8.204,1.204 -16.624,1.094 -24.876,0.568c-5.227,-0.334 -10.459,-0.41 -15.688,-0.685c-2.751,-0.145 -5.478,-0.552 -8.18,-1.067c-2.479,-0.472 -4.481,-1.943 -6.92,-2.456c-1.03,-0.215 -2.098,0.719 -2.319,1.674Z" style="fill:#010101;fill-rule:nonzero;"/><path d="M472.621,133.643c-3.951,26.328 -2.023,53.261 -7.751,79.472c-2.552,11.676 -6.974,22.977 -14.095,32.639c-8.325,11.299 -20.84,16.473 -30.988,25.5c-2.191,1.95 -2.228,5.499 1.215,5.639c14.642,0.592 28.963,-12.445 37.781,-22.93c8.96,-10.652 14.328,-23.845 17.574,-37.254c6.515,-26.916 5.003,-56.901 0.534,-83.928c-0.425,-2.571 -3.979,-1.08 -4.27,0.862Z" style="fill:#010101;fill-rule:nonzero;"/><path d="M40.176,477.412c-5.899,-0.714 -11.969,0.818 -17.386,3.362c-2.605,1.224 -4.753,4.49 -4.6,7.39c0.192,3.608 3.884,4.909 6.94,3.896c5.703,-1.891 11.185,-5.355 15.365,-9.579c1.237,-1.248 2.576,-4.72 -0.319,-5.069Z" style="fill:#010101;fill-rule:nonzero;"/><path d="M31.83,50.557c1.966,4.413 4.821,8.404 7.127,12.642c2.58,4.742 4.708,9.716 6.594,14.77c3.917,10.498 6.384,21.526 8.11,32.576c2.472,15.808 3.244,31.764 2.707,47.733c-0.509,15.149 -1.836,30.38 -4.808,45.257c-1.344,6.727 -3.104,13.412 -5.939,19.676c-2.204,4.869 -5.01,7.462 -8.474,10.314c-2.469,2.032 -3.21,8.396 1.613,7.491c12.954,-2.431 17.976,-19.679 20.757,-30.626c4.095,-16.111 5.276,-33.062 5.719,-49.626c0.458,-17.161 -0.641,-34.12 -3.703,-51.037c-1.987,-10.973 -4.785,-21.755 -8.793,-32.169c-3.82,-9.925 -9.047,-22.512 -17.332,-29.555c-1.466,-1.246 -4.407,0.694 -3.578,2.554Z" style="fill:#010101;fill-rule:nonzero;"/></g></svg>