<?xml version="1.0" encoding="UTF-8" standalone="no"?><!DOCTYPE svg PUBLIC "-//W3C//DTD SVG 1.1//EN" "http://www.w3.org/Graphics/SVG/1.1/DTD/svg11.dtd"><svg width="100%" height="100%" viewBox="0 0 410 433" version="1.1" xmlns="http://www.w3.org/2000/svg" xmlns:xlink="http://www.w3.org/1999/xlink" xml:space="preserve" style="fill-rule:evenodd;clip-rule:evenodd;stroke-linejoin:round;stroke-miterlimit:1.41421;"><g id="leg"><path d="M181.068,390.7c3.734,24.317 26.046,38.528 49.126,41.279c24.506,2.92 55.284,-9.363 63.394,-34.526c2.769,-8.591 -10.038,-7.59 -13.306,-2.509c-5.691,8.848 -9.398,14.328 -18.848,18.958c-7.979,3.909 -18.002,5.053 -27.059,4.561c-19.904,-1.082 -39.985,-11.403 -49.428,-29.479c-0.999,-1.915 -4.162,-0.126 -3.879,1.716Z" style="fill-rule:nonzero;"/><path d="M155.517,315.232c-11.285,16.003 -31.336,22.876 -41.164,40.144c-6.83,12 -3.829,26.325 4.813,36.447c8.024,9.4 20.831,16.064 33.2,16.756c6.632,0.371 13.236,-0.894 18.969,-4.372c6.147,-3.729 13.227,-11.093 11.184,-18.828c-1.262,-4.775 -7.712,-2.467 -10.171,-0.54c-2.118,1.658 -3.478,3.748 -5.077,5.844c-0.904,1.186 0.902,-0.705 -0.979,0.899c-0.82,0.638 -0.764,0.599 0.171,-0.117c-0.605,0.397 -1.255,0.719 -1.902,1.04c1.805,-0.896 -0.983,0.228 -1.387,0.343c-0.589,0.167 -0.614,0.163 -2.419,0.319c-2.66,0.231 -3.399,0.082 -6.065,-0.336c-9.618,-1.511 -18.742,-7.209 -24.763,-15.006c-5.77,-7.472 -6.277,-15.936 -0.754,-23.59c4.767,-6.607 11.512,-11.688 17.366,-17.271c3.047,-2.906 5.949,-6.051 8.255,-9.58c2.512,-3.844 3.268,-7.146 4.268,-11.482c0.543,-2.363 -2.604,-2.006 -3.545,-0.67Z" style="fill-rule:nonzero;"/><path d="M115.228,304.903c-5.719,3.927 -12.935,6.261 -19.071,9.524c-6.634,3.528 -13.074,7.345 -18.879,12.146c-10.466,8.655 -15.691,20.834 -12.683,34.193c5.742,25.494 44.067,33.612 57.81,10.481c3.746,-6.305 -3.75,-9.147 -8.512,-6.835c-3.6,1.748 -6.492,4.148 -10.433,5.153c-3.013,0.77 -6.837,-0.091 -9.647,-1.22c-7.355,-2.951 -12.738,-9.351 -14.818,-16.92c-2.472,-8.994 4.765,-16.244 11.059,-21.359c4.576,-3.718 9.718,-6.664 14.513,-10.078c4.841,-3.446 8.716,-7.172 12.971,-11.236c2.141,-2.044 0.625,-5.864 -2.31,-3.849Z" style="fill-rule:nonzero;"/><path d="M68.515,293.913c-10.072,0.249 -23.115,6.201 -30.082,13.504c-6.527,6.842 -9.899,15.566 -9.806,25.013c0.078,7.874 3.815,15.455 10.536,19.653c7.574,4.73 23.351,2.926 26.727,-6.301c1.046,-2.859 0.928,-5.084 -1.567,-7.021c-2.935,-2.278 -6.324,-0.265 -9.445,0.244c-2.343,0.383 -3.862,-0.089 -5.856,-1.319c-3.257,-2.01 -4.613,-7.312 -4.864,-11.224c-0.316,-4.927 1.358,-9.846 5.145,-13.02c6.733,-5.641 14.551,-9.884 20.432,-16.471c1.1,-1.234 0.498,-3.101 -1.22,-3.058Z" style="fill-rule:nonzero;"/><path d="M33.55,319.889c-9.421,-0.824 -16.322,-3.934 -17.374,-13.328c-0.285,-2.545 -0.1,-3.851 0.366,-6.068c0.317,-1.512 0.214,-1.076 0.567,-1.993c0.218,-0.567 1.802,-3.496 1.182,-2.53c0.188,-0.293 2.275,-2.879 1.042,-1.562c0.432,-0.461 3.206,-2.76 2.091,-1.993c2.185,-1.502 3.912,-2.188 6.975,-2.629c-2.127,-1.715 -4.254,-3.431 -6.381,-5.146c0.07,0.558 0.141,1.115 0.21,1.674c0.341,2.718 1.75,4.156 4.322,4.924c5.84,1.744 10.787,-4.782 11.376,-9.812c0.452,-3.858 -1.722,-7.762 -6.217,-7.085c-17.85,2.688 -32.351,17.514 -30.656,36.274c1.558,17.249 19.042,24.987 32.83,14.531c1.507,-1.145 2.499,-5.009 -0.333,-5.257Z" style="fill-rule:nonzero;"/><path d="M295.029,391.431c9.073,-15.944 19.249,-37.865 37.153,-45.551c3.912,-1.679 7.772,-5.032 7.522,-9.733c-0.283,-5.32 -6.569,-6.154 -10.323,-3.767c-19.688,12.521 -38.065,35.109 -38.535,59.39c-0.051,2.705 3.5,0.863 4.183,-0.339Z" style="fill-rule:nonzero;"/><path d="M223.974,13.73c-0.346,7.388 -2.381,14.859 -2.952,22.284c-0.609,7.925 -1.26,15.847 -1.849,23.773c-1.146,15.441 -1.57,31.184 -0.339,46.629c2.329,29.236 11.11,57.444 16.187,86.222c5.232,-2.314 10.464,-4.628 15.695,-6.942c-0.998,-4.19 -4.666,-7.064 -8.558,-8.22c-5.731,-1.701 -10.763,5.407 -9.719,10.356c0.518,2.456 2.367,4.202 2.952,6.598c2.061,8.436 17.001,0.215 15.695,-6.942c-5.237,-28.699 -14.585,-56.604 -18.093,-85.61c-1.764,-14.583 -1.663,-29.266 -2.076,-43.92c-0.216,-7.674 -0.33,-15.352 -0.489,-23.027c-0.08,-3.804 -0.403,-7.59 -0.701,-11.383c-0.292,-3.72 -1.43,-7.442 -1.594,-11.151c-0.121,-2.763 -4.065,-0.703 -4.159,1.333Z" style="fill-rule:nonzero;"/><path d="M315.856,2.447c-1.416,26.919 1.607,53.989 5.059,80.674c3.513,27.163 8.65,54.338 16.406,80.626c3.788,12.842 8.322,25.461 13.666,37.738c2.52,5.789 5.291,11.465 8.236,17.049c1.461,2.771 3.006,5.498 4.58,8.206c0.824,1.419 1.677,2.821 2.526,4.225c-1.176,-1.945 -0.065,-0.092 0.169,0.311c6.469,11.094 11.991,22.807 16.783,34.711c5.5,13.659 10.694,28.451 10.078,43.339c-0.1,2.406 0.18,-1.348 -0.088,0.983c-0.081,0.701 -0.203,1.396 -0.328,2.092c-0.119,0.673 -0.285,1.336 -0.451,1.998c-0.113,0.43 -0.238,0.855 -0.373,1.278c0.326,-0.947 0.328,-0.997 0.006,-0.15c-0.235,0.589 -0.522,1.155 -0.81,1.72c-0.968,1.9 1.063,-1.544 -0.137,0.193c-0.349,0.507 -0.751,0.974 -1.151,1.439c1.739,-2.019 -0.137,-0.044 -0.635,0.353c2.614,-2.084 -3.039,1.224 -0.586,0.236c-0.665,0.268 -1.355,0.467 -2.042,0.667c-0.904,0.214 -0.962,0.243 -0.173,0.089c-0.527,0.095 -1.057,0.175 -1.588,0.24c-5.082,0.697 -8.956,0.85 -13.344,3.958c-1.834,1.299 -3.996,3.631 -2.967,6.126c3.348,8.115 14.897,5.961 21.546,3.285c7.12,-2.866 12.752,-8.072 16.027,-15.037c6.18,-13.143 2.645,-29.34 -1.094,-42.619c-4.097,-14.553 -10.247,-28.569 -17.069,-42.031c-8.033,-15.853 -17.549,-30.676 -24.486,-47.132c-12.623,-29.94 -20.248,-61.971 -26.089,-93.846c-2.929,-15.984 -5.774,-31.979 -8.623,-47.978c-2.628,-14.757 -5.604,-29.671 -10.71,-43.778c-0.496,-1.376 -2.289,0.102 -2.338,1.035Z" style="fill-rule:nonzero;"/><path d="M324.194,346.518c3.135,2.226 9.27,-0.334 12.543,-1.27c5.624,-1.607 11.207,-3.252 16.879,-4.691c5.727,-1.454 11.596,-2.254 17.467,-2.85c6.449,-0.654 13.26,-0.146 19.513,-1.91c5.798,-1.637 10.741,-11.367 2.947,-13.752c-5.787,-1.771 -13.203,-0.365 -19.15,0.216c-6.727,0.657 -13.413,1.956 -19.981,3.522c-6.489,1.548 -12.676,4.079 -18.668,6.983c-4.363,2.115 -11.445,6.344 -12.438,11.519c-0.183,0.952 0.108,1.679 0.888,2.233Z" style="fill-rule:nonzero;"/><path d="M214.163,322.71c-5.808,14.536 -18.947,25.269 -29.488,36.301c-5.315,5.563 -11.349,11.564 -14.14,18.903c-2.483,6.528 -1.121,20.037 9.402,16.673c5.795,-1.853 9.271,-8.377 5.4,-13.548c0.524,0.7 -0.269,-1.1 -0.201,-0.523c-0.2,-1.707 -0.314,1.589 -0.028,-0.196c0.344,-2.149 -0.286,0.393 0.262,-0.909c0.266,-0.632 0.6,-1.235 0.926,-1.838c-0.964,1.778 0.286,-0.439 0.432,-0.663c0.928,-1.423 1.974,-2.771 3.025,-4.104c2.642,-3.349 5.548,-6.49 8.427,-9.633c5.903,-6.443 11.767,-12.879 16.405,-20.324c3.567,-5.729 7.906,-14.021 3.892,-20.371c-0.199,-0.334 -0.416,-0.657 -0.651,-0.968c-0.962,-1.348 -3.226,0.106 -3.663,1.2Z" style="fill-rule:nonzero;"/><path d="M199.342,386.385c3.402,-0.419 6.683,-1.409 10.156,-1.1c3.452,0.309 6.54,1.738 9.533,3.382c6.414,3.521 11.987,7.769 19.108,9.878c11.038,3.27 22.707,-0.467 26.499,-12.088c2.957,-9.062 -0.994,-19.458 -7.079,-26.284c-6.829,-7.662 -24.528,-14.368 -32.019,-4.01c-1.033,1.429 -1.863,3.854 -0.412,5.345c3.041,3.122 9.253,1.382 13.305,2.357c3.646,0.878 6.764,3.345 9.211,6.079c2.493,2.787 4.059,6.136 5.047,9.718c0.376,1.361 0.437,2.818 0.457,4.226c0.015,0.996 -0.453,2.767 -0.618,3.144c-0.741,1.688 0.749,-0.935 -0.329,0.526c1.142,-1.548 -1.445,0.873 0.109,-0.105c-0.551,0.347 -1.626,0.486 -3.535,0.512c-5.229,0.068 -10.609,-2.69 -15.083,-5.067c-11.327,-6.021 -24.233,-11.9 -35.529,-1.989c-1.826,1.6 -2.371,5.913 1.179,5.476Z" style="fill-rule:nonzero;"/><path d="M146.614,353.113c1.88,-0.284 6.989,1.767 8.162,2.747c1.543,1.289 1.848,1.908 2.429,3.512c0.451,1.242 0.459,1.679 0.106,3.057c0.264,-0.727 0.269,-0.783 0.014,-0.171c-0.622,1.411 0.811,-1.087 -0.132,0.188c-0.985,1.335 1.1,-1.012 -0.179,0.157c-1.299,1.188 1.237,-0.724 -0.367,0.243c-0.881,0.531 -3.961,1.162 -6.24,1.439c-3.804,0.462 -9.174,1.65 -10.124,6.083c-1.311,6.117 7.647,5.832 11.071,5.231c9.697,-1.7 21.222,-10.286 16.834,-21.475c-1.54,-3.927 -5.054,-6.71 -8.981,-7.967c-2.339,-0.748 -4.63,-0.691 -7.004,-0.126c-2.364,0.563 -4.507,2.5 -5.8,3.331c-1.28,0.824 -2.425,4.148 0.211,3.751Z" style="fill-rule:nonzero;"/><path d="M99.084,334.755c0.738,2.071 2.214,3.846 2.985,5.957c0.743,2.035 0.21,3.552 0.28,5.655c0.181,5.441 7.429,3.368 9.456,0.459c5.028,-7.218 -0.336,-16.893 -9.11,-16.756c-2.107,0.034 -4.36,2.585 -3.611,4.685Z" style="fill-rule:nonzero;"/><path d="M58.218,320.552c0.191,0.241 0.396,0.456 0.631,0.655c-0.165,-0.766 -0.33,-1.53 -0.495,-2.296c-0.441,1.316 0.017,2.728 1.031,3.636c0.474,0.423 0.943,0.849 1.479,1.195c0.891,0.576 1.944,0.623 2.973,0.561c1.71,-0.104 3.344,-1.195 4.355,-2.529c0.509,-0.661 0.857,-1.397 1.044,-2.209c0.255,-1.189 -0.036,-1.995 -0.644,-2.988c-0.732,-1.196 -2.134,-1.533 -3.435,-1.596c-0.633,-0.03 -1.251,-0.069 -1.882,-0.027c-1.365,0.09 -2.342,0.698 -3.408,1.5c1.411,-0.294 2.822,-0.587 4.233,-0.881c-0.287,-0.132 -0.548,-0.285 -0.804,-0.471c-1.204,-0.869 -3.156,0.028 -4.094,0.852c-1.253,1.1 -2.159,3.119 -0.984,4.598Z" style="fill-rule:nonzero;"/><path d="M32.245,282.177c6.783,-3.898 16.309,-4.052 23.886,-3.923c9.038,0.155 18.122,1.883 26.689,4.701c4.453,1.465 9.792,0.402 14.369,-0.26c4.961,-0.718 9.882,-1.867 14.686,-3.291c9.624,-2.854 18.801,-7.379 27.405,-12.5c17.076,-10.162 32.147,-23.354 47.87,-35.409c15.803,-12.116 32.12,-21.609 51.298,-27.175c3.525,-1.023 6.653,-4.297 7.424,-7.891c0.798,-3.725 -1.988,-7.849 -6.174,-7.035c-4.544,0.884 -7.624,2.748 -11.264,5.541c-5.233,4.016 -3.02,11.85 3.947,10.148c1.338,-0.327 2.661,-0.311 4.031,-0.354c0.416,-4.976 0.833,-9.95 1.25,-14.926c-40.376,8.365 -68.481,42.827 -102.19,63.631c-8.064,4.979 -16.542,9.014 -25.614,11.775c-4.379,1.333 -8.823,2.188 -13.362,2.739c-4.627,0.562 -8.466,-0.12 -13.03,-0.723c-17.519,-2.311 -42.964,-5.478 -55.343,10.25c-2.561,3.254 0.593,6.731 4.122,4.702Z" style="fill-rule:nonzero;"/></g></svg>