<?xml version="1.0" encoding="UTF-8" standalone="no"?><!DOCTYPE svg PUBLIC "-//W3C//DTD SVG 1.1//EN" "http://www.w3.org/Graphics/SVG/1.1/DTD/svg11.dtd"><svg width="100%" height="100%" viewBox="0 0 347 528" version="1.1" xmlns="http://www.w3.org/2000/svg" xmlns:xlink="http://www.w3.org/1999/xlink" xml:space="preserve" style="fill-rule:evenodd;clip-rule:evenodd;stroke-linejoin:round;stroke-miterlimit:1.41421;"><g id="football"><path d="M93.326,237.217c2.354,10.626 12.54,16.074 21.96,19.656c9.887,3.761 20.263,5.751 30.636,7.611c29.976,5.374 60.931,2.676 88.17,-11.271c3.394,-1.738 6.466,-6.4 4.979,-10.281c-1.628,-4.248 -6.427,-3.367 -9.652,-1.941c-4.679,2.069 -8.188,7.369 -4.093,11.754c0.744,-3.475 1.489,-6.949 2.234,-10.424c-9.871,7.708 -23.514,10.364 -35.652,11.799c-13.555,1.602 -27.343,1.063 -40.874,-0.479c-9.387,-1.068 -18.877,-2.546 -28.015,-4.955c-8.653,-2.281 -19.479,-6.371 -24.214,-14.592c-1.793,-3.111 -6.111,0.272 -5.479,3.123Z" style="fill:#010101;fill-rule:nonzero;"/><path d="M93.553,216.684c-1.83,2.885 -2.554,5.759 -3.104,9.114c-0.536,3.265 -1.191,6.757 -0.998,10.064c0.383,6.552 9.401,2.167 10.318,-2.085c0.627,-2.899 0.399,-5.759 0.237,-8.696c-0.162,-2.944 -0.181,-6.181 -1.679,-8.784c-1.066,-1.853 -3.719,-1.274 -4.774,0.387Z" style="fill:#010101;fill-rule:nonzero;"/><path d="M100.903,198.731c2.587,-12.975 14.412,-20.282 25.854,-24.754c11.51,-4.498 24.182,-7.16 36.551,-7.255c26.46,-0.201 64.122,10.242 70.048,40.476c3.656,-3.209 7.313,-6.418 10.97,-9.627c-0.523,0.006 -1.03,-0.093 -1.521,-0.295c-6.864,-2.912 -17.474,8.404 -9.695,12.799c1.451,0.819 2.832,1.401 4.432,1.891c5.804,1.776 12.4,-5.902 10.62,-11.316c-11.802,-35.892 -50.418,-47.086 -84.843,-45.136c-14.835,0.84 -30.348,6.013 -43.49,12.727c-11.783,6.019 -25.297,16.838 -22.215,31.552c0.381,1.826 3.073,0.019 3.289,-1.062Z" style="fill:#010101;fill-rule:nonzero;"/><path d="M241.366,242.327c10.646,-7.223 17.109,-19.672 25.443,-29.302c8.677,-10.026 19.386,-17.544 32.662,-19.856c3.326,-0.58 6.229,-2.412 7.709,-5.558c1.543,-3.278 0.546,-6.849 -3.134,-7.817c-4.133,-1.088 -6.894,0.112 -10.229,2.461c-1.398,0.984 -3.033,2.761 -2.255,4.656c1.164,2.836 1.86,4.098 4.711,5.656c1.432,-4.164 2.863,-8.328 4.295,-12.491c-14.773,4.604 -27.866,11.873 -37.658,24.099c-4.368,5.455 -7.991,11.518 -11.703,17.426c-4.009,6.379 -8.736,12.31 -11.657,19.269c-0.517,1.231 0.677,2.229 1.816,1.457Z" style="fill:#010101;fill-rule:nonzero;"/><path d="M123.617,163.808c4.925,-2.296 10.673,-3.694 15.802,-5.565c5.784,-2.109 11.518,-4.446 17.143,-6.947c10.487,-4.665 21.896,-10.811 28.643,-20.444c1.136,-1.622 2.612,-4.624 1.422,-6.637c-0.095,-0.159 -0.189,-0.319 -0.284,-0.479c-1.315,-2.223 -3.664,-3.313 -6.239,-2.276c-5.719,2.302 -6.843,7.833 -10.99,11.833c-4.406,4.25 -10.242,7.197 -15.596,10.042c-5.527,2.938 -11.192,5.629 -16.682,8.634c-5.316,2.91 -9.667,6.21 -14.34,9.971c-1.241,0.996 -0.329,2.545 1.121,1.868Z" style="fill:#010101;fill-rule:nonzero;"/><path d="M186.498,110.639c0.076,-11.522 -3.729,-23.003 -5.464,-34.366c-1.833,-12.003 -2.977,-24.438 -0.975,-36.487c0.677,-4.076 2.055,-9.124 4.003,-12.26c1.856,-2.987 3.595,-4.438 6.004,-6.022c6.255,-4.114 13.927,-5.771 21.358,-6.716c18.589,-2.364 37.818,0.009 56.068,3.722c7.685,1.563 15.314,3.515 22.74,6.038c7.688,2.611 14.643,6.83 14.686,15.975c0.023,5.019 -2.113,10.2 -3.945,14.78c-2.589,6.462 -5.484,12.784 -7.977,19.288c-3.125,8.158 -5.86,16.471 -8.477,24.804c-1.299,4.138 -2.54,8.294 -3.779,12.45c-0.715,2.398 -1.424,4.801 -2.135,7.201c-0.359,1.213 -0.719,2.425 -1.079,3.637c-0.82,2.188 -0.771,2.418 0.146,0.689c3.34,-1.109 6.679,-2.22 10.019,-3.329c1.624,0.688 -1.206,-1.122 -1.866,-1.354c-3.725,-1.306 -7.43,0.11 -9.82,3.263c-1.888,2.489 -2.878,7.164 0.607,8.899c-0.945,-1.356 -0.894,-1.207 0.154,0.446c0.458,0.461 0.966,0.845 1.526,1.152c2.66,1.549 6.532,0.186 8.577,-1.784c4.976,-4.792 5.929,-13.507 7.824,-19.952c2.271,-7.721 4.61,-15.419 7.146,-23.057c4.043,-12.189 9.752,-23.699 13.916,-35.817c3.17,-9.229 5.334,-19.996 -0.452,-28.69c-4.956,-7.447 -13.758,-10.305 -21.877,-12.875c-16.926,-5.355 -34.897,-8.339 -52.604,-9.269c-17.876,-0.939 -37.414,-0.196 -53.367,8.861c-15.797,8.97 -20.268,26.258 -20.295,43.353c-0.018,10.81 1.896,21.563 4.385,32.045c2.234,9.418 4.805,20.018 11.141,27.564c1.365,1.627 3.802,-0.651 3.812,-2.189Z" style="fill:#010101;fill-rule:nonzero;"/><path d="M290.719,96.33c1.007,3.786 4.924,7.269 6.794,10.786c2.319,4.361 3.873,9.186 5.351,13.885c2.805,8.916 4.504,18.162 6.543,27.271c1.082,4.833 2.55,9.574 3.488,14.441c0.537,2.792 1.95,7.896 0.154,10.474c-1.841,2.643 -6.904,3.551 -9.75,4.309c-5.557,1.479 -10.453,1.907 -14.865,5.852c-1.48,1.324 -3.078,4.313 -1.305,6.093c0.035,-0.038 0.07,-0.077 0.105,-0.115c1.117,1.992 2.492,2.646 4.757,2.654c11.496,0.045 24.173,-3.871 31.668,-13.058c7.675,-9.406 2.856,-22.802 -0.217,-32.981c-3.144,-10.409 -5.837,-20.877 -10.067,-30.93c-3.112,-7.395 -10.271,-22.445 -19.992,-22.137c-1.654,0.051 -3.087,1.867 -2.664,3.456Z" style="fill:#010101;fill-rule:nonzero;"/><path d="M102.471,245.997c-3.647,2.17 -4.019,7.215 -4.15,11.044c-0.134,3.895 0,8.454 2.499,11.651c3.412,4.365 9.854,3.622 14.145,1.482c5.047,-2.52 8.036,-8.026 8.343,-13.458c0.168,-2.973 -1.716,-5.783 -4.688,-6.334c-3.845,-0.713 -6.85,2.039 -8.662,5.049c-0.879,1.46 -0.936,3.817 -0.441,5.369c0.455,1.429 0.369,-0.918 0.047,0.528c0.197,-0.886 0.656,-1.2 1.369,-1.699c1.014,-0.71 -0.622,0.09 0.107,0.134c-1.072,-0.065 -1.033,-0.544 -1.636,-2.009c-0.712,-1.728 -1.116,-3.59 -1.436,-5.424c-0.431,-2.477 -1.611,-8.645 -5.497,-6.333Z" style="fill:#010101;fill-rule:nonzero;"/><path d="M193.557,259.627c-3.723,3.525 -6.692,9.154 -5.617,14.43c0.787,3.862 3.256,7.259 7.459,7.733c12.182,1.373 19.527,-14.634 13.677,-24.227c-0.771,-1.263 -2.989,-1.698 -4.306,-1.534c-3.753,0.466 -7.257,3.279 -8.072,7.084c-0.402,1.882 0.283,3.54 0.713,5.322c-0.447,-1.854 -0.084,-0.334 -0.024,0.105c0.055,0.404 0.079,0.812 0.098,1.219c0.017,0.379 0.004,0.76 -0.015,1.139c0.11,-2.245 0.041,-0.645 -0.075,-0.076c-0.063,0.316 -0.155,0.628 -0.248,0.937c0.69,-2.306 0.408,-1.159 0.151,-0.599c-0.271,0.59 -1.031,1.611 0.439,-0.661c-0.389,0.6 -1.488,1.716 0.587,-0.498c-0.177,0.188 -0.373,0.358 -0.571,0.524c-0.806,0.674 1.999,-1.316 0.824,-0.607c-0.207,0.125 -0.428,0.227 -0.648,0.324c-0.766,0.339 2.136,-0.801 0.66,-0.33c-1.164,0.372 1.655,-0.272 0.755,-0.141c-0.229,0.033 -0.463,0.04 -0.694,0.042c2.035,-0.02 1.176,0.078 0.623,-0.014c-1.275,-0.212 0.834,0.367 0.283,0.146c-0.222,-0.089 -0.431,-0.206 -0.637,-0.325c-0.953,-0.555 0.875,0.773 0.271,0.256c-0.44,-0.379 -1.453,-2 -0.609,-0.526c-0.313,-0.545 -0.525,-1.142 -0.701,-1.741c-0.095,-0.326 -0.211,-0.645 -0.312,-0.969c0.376,1.223 0.007,-0.271 -0.022,-0.64c-0.168,-2.055 -0.441,-3.864 -0.779,-5.745c-0.296,-1.633 -2.153,-1.628 -3.21,-0.628Z" style="fill:#010101;fill-rule:nonzero;"/><path d="M297.146,182.735c-5.632,4.167 -8.163,11.957 -7.214,18.812c0.991,7.173 8.789,11.21 15.141,7.655c6.059,-3.392 8.953,-9.961 10.604,-16.396c1.415,-5.514 3.07,-15.245 -3.816,-17.394c-2.42,-0.756 -5.877,1.656 -6.651,3.877c-1.261,3.613 -0.632,6.625 -0.76,10.339c-0.122,3.571 -1.233,7.228 -2.967,10.33c-0.645,1.152 -0.299,-0.054 0.564,-0.156c-1.037,0.123 -2.354,-1.628 -2.757,-2.396c-1.793,-3.42 -0.888,-9.749 0.366,-13.296c0.677,-1.912 -1.187,-2.356 -2.51,-1.375Z" style="fill:#010101;fill-rule:nonzero;"/><path d="M164.209,146.94c4.903,-0.395 9.762,-1.626 14.725,-1.995c6.707,-0.499 13.406,-0.165 20.063,0.733c6.257,0.845 12.438,2.383 18.285,4.77c4.286,1.75 11.69,4.885 13.264,9.707c2.207,-2.862 4.413,-5.725 6.62,-8.588c-1.789,0.262 -3.351,0.811 -5.087,1.233c-1.539,0.374 -3.553,2.427 -3.216,4.161c0.474,2.444 0.972,3.945 3.343,5.086c5.391,2.593 13.595,-6.821 7.568,-9.99c-5.345,-2.81 -9.716,-6.684 -15.463,-9.001c-6.89,-2.777 -14.253,-4.354 -21.607,-5.243c-11.661,-1.408 -29.741,-2.039 -38.997,6.796c-0.759,0.725 -1.025,2.453 0.502,2.331Z" style="fill:#010101;fill-rule:nonzero;"/><path d="M184.532,130.163c10.92,-0.441 21.056,-1.179 31.896,0.975c10.72,2.131 22.499,6.586 31.126,13.447c2.522,-3.307 5.046,-6.612 7.567,-9.918c-3.131,-0.359 -5.178,0.034 -8.074,1.15c-1.713,0.66 -3.327,2.213 -3.24,4.192c0.17,3.831 2.346,5.41 6.045,5.835c2.769,0.318 5.38,-0.999 7.05,-3.202c1.419,-1.872 2.619,-6.399 -0.515,-7.536c-22.757,-8.25 -48.098,-19.979 -72.039,-8.218c-1.418,0.696 -1.951,3.362 0.184,3.275Z" style="fill:#010101;fill-rule:nonzero;"/><path d="M186.704,109.704c14.127,-0.615 27.231,-0.697 41.018,3.041c12.918,3.502 27.051,8.93 37.938,16.85c2.237,-3.677 4.476,-7.354 6.713,-11.03c-2.63,-0.606 -5.062,0.095 -7.222,1.604c-1.882,1.315 -4.232,3.842 -3.103,6.408c1.263,2.869 3.365,3.553 6.374,3.537c5.62,-0.027 10.793,-9.292 3.95,-11.55c-6.964,-2.298 -13.595,-5.728 -20.44,-8.372c-7.098,-2.739 -14.384,-5.028 -21.814,-6.656c-14.258,-3.123 -30.131,-3.74 -43.617,2.549c-1.596,0.743 -2.138,3.721 0.203,3.619Z" style="fill:#010101;fill-rule:nonzero;"/><path d="M99.59,227.102c3.929,11.025 16.294,14.555 26.631,16.83c13.495,2.971 27.822,4.317 41.611,4.412c15.699,0.107 31.874,-1.861 46.975,-6.249c6.416,-1.864 12.699,-4.228 18.756,-7.044c2.957,-1.374 5.791,-2.991 8.465,-4.856c1.183,-0.825 2.311,-1.701 3.4,-2.647c0.414,-0.359 2.824,-2.304 1.915,-1.823c-1.027,0.209 -2.056,0.418 -3.083,0.628c0.099,0.021 0.197,0.045 0.297,0.066c-0.41,-1.834 -0.82,-3.669 -1.229,-5.504c-0.089,0.12 -0.179,0.239 -0.269,0.359c0.932,-0.67 1.862,-1.339 2.793,-2.008c-0.292,0.086 -0.584,0.172 -0.877,0.258c-3.486,1.025 -5.555,7.057 -0.601,7.174c1.737,0.041 2.861,-0.57 4.222,-1.604c1.724,-1.312 2.875,-4.812 0.471,-6.085c-0.086,-0.045 -0.17,-0.09 -0.256,-0.135c-1.191,-0.631 -2.861,-0.41 -3.965,0.321c-2.052,1.36 -3.436,3.202 -5.283,4.799c-2.127,1.839 -4.627,3.235 -7.074,4.593c-5.698,3.161 -11.82,5.484 -18.01,7.475c-13.976,4.495 -28.946,6.217 -43.566,6.627c-13.223,0.37 -26.885,-1.078 -39.98,-2.99c-10.543,-1.539 -23.314,-4.658 -30.369,-13.29c-0.364,-0.446 -1.139,0.23 -0.974,0.693Z" style="fill:#010101;fill-rule:nonzero;"/><path d="M310.99,166.072c-4.399,4.602 -10.802,5.561 -16.595,7.524c-6.345,2.151 -12.334,5.756 -17.75,9.639c-5.778,4.144 -11.025,8.899 -15.822,14.146c-2.483,2.717 -4.872,5.507 -7.12,8.422c-1.949,2.529 -4.464,5.238 -4.379,8.566c0.042,1.654 1.874,1.573 2.947,1.075c2.957,-1.373 4.648,-4.327 6.594,-6.852c2.241,-2.908 4.573,-5.735 7.013,-8.479c5.083,-5.719 10.992,-10.834 17.299,-15.154c5.89,-4.035 11.982,-6.854 18.629,-9.335c4.413,-1.647 9.329,-4.189 10.708,-9.01c0.273,-0.955 -1.024,-1.066 -1.524,-0.542Z" style="fill:#010101;fill-rule:nonzero;"/><path d="M96.165,235.837c-11.365,0.09 -21.169,6.206 -30.344,12.396c-10.52,7.098 -19.65,15.671 -28.244,24.96c-17.661,19.09 -27.854,43.328 -32.631,68.66c-4.484,23.787 -5.85,50.25 -1.561,74.169c3.437,19.163 11.633,36.89 23.783,52.088c24.308,30.403 62.365,47.376 99.738,54.914c40.188,8.107 82.408,5.136 120.701,-9.656c23.351,-9.02 44.909,-22.514 62,-40.905c18.518,-19.928 29.74,-45.344 34.584,-71.971c5.358,-29.446 1.992,-60.375 -9.408,-88.047c-9.57,-23.234 -27.698,-41.613 -48.53,-55.104c-10.894,-7.056 -22.561,-12.834 -35.146,-16.059c-6.844,-1.754 -17.017,10.567 -8.946,14.7c10.832,5.549 21.956,10.439 32.271,16.963c10.209,6.457 19.357,14.319 27.294,23.422c17.983,20.628 25.777,48.536 27.382,75.419c1.635,27.396 -5.252,56.525 -20.723,79.384c-13.083,19.332 -32.155,33.2 -53.063,43.064c-36.312,17.132 -78.103,20.337 -117.364,13.411c-36.813,-6.494 -73.787,-22.901 -97.844,-52.363c-25.425,-31.138 -26.621,-73.397 -20.667,-111.518c3.539,-22.659 11.499,-43.906 25.976,-61.832c13.492,-16.706 28.997,-33.772 50.236,-40.068c2.868,-0.849 4.709,-6.06 0.506,-6.027Z" style="fill:#010101;fill-rule:nonzero;"/><path d="M118.141,407.821c2.091,-3.114 3.092,-6.896 4.662,-10.296c2.181,-4.721 4.873,-9.202 7.704,-13.554c2.469,-3.794 5.157,-7.447 7.904,-11.042c2.299,-3.009 5.267,-8.064 8.58,-10.017c1.478,-0.87 3.027,-2.666 2.815,-4.523c-0.019,-0.166 -0.037,-0.331 -0.057,-0.497c-0.169,-1.481 -1.198,-2.046 -2.581,-2.081c-0.192,-0.006 -0.385,-0.01 -0.577,-0.016c-1.897,-0.048 -3.654,1.673 -4.46,3.215c-1.823,3.494 -5.746,6.737 -8.171,9.895c-3.233,4.208 -6.195,8.619 -8.951,13.153c-2.592,4.265 -4.982,8.62 -7.078,13.149c-1.643,3.546 -4.221,8.411 -3.617,12.428c0.311,2.064 2.915,1.542 3.827,0.186Z" style="fill:#010101;fill-rule:nonzero;"/><path d="M115.165,409.696c2.449,7.23 6.643,13.59 11.002,19.801c2.342,3.336 4.856,6.545 7.262,9.833c1.781,2.435 5.813,6.104 6.422,9.096c1.793,8.809 13.895,-3.033 7.733,-5.562c-2.956,-1.213 -5.309,-4.897 -7.396,-7.202c-2.716,-2.999 -5.313,-6.095 -7.88,-9.22c-5,-6.087 -9.645,-12.444 -14.633,-18.538c-0.946,-1.155 -2.915,0.6 -2.51,1.792Z" style="fill:#010101;fill-rule:nonzero;"/><path d="M146.861,359.292c9.242,2.448 18.628,2.369 28.19,2.841c5.635,0.278 11.273,0.591 16.883,1.213c1.884,0.21 3.762,0.403 5.582,0.952c0.746,0.226 -1.48,-0.517 0.828,0.732c1.372,0.744 3.283,0.617 4.695,0.044c3.076,-1.247 5.815,-4.188 4.811,-7.729c-1.143,-4.025 -8.019,-2.561 -11.271,-2.708c-5.907,-0.268 -11.828,-0.329 -17.741,-0.343c-10.676,-0.025 -21.013,-0.032 -31.407,2.341c-1.124,0.256 -2.079,2.256 -0.57,2.657Z" style="fill:#010101;fill-rule:nonzero;"/><path d="M204.922,364.76c-0.033,6.394 3.242,12.904 5.736,18.664c2.748,6.343 5.816,12.538 8.474,18.92c1.849,4.439 3.242,9.023 4.677,13.605c0.568,1.818 1.112,3.645 1.627,5.479c0.209,0.74 0.061,1.743 0.053,2.506c-0.031,2.837 -1.027,1.716 1.158,-1.246c1.718,-0.998 3.436,-1.996 5.154,-2.993c0.955,0.087 1.087,0.05 0.396,-0.111c-3.847,-1.13 -8.423,3.937 -7.135,7.604c2.372,6.754 11.067,0.677 11.201,-4.463c0.053,-2.029 -1.236,-3.713 -2.257,-5.354c-1.304,-2.095 -1.888,-5.184 -2.795,-7.505c-3.018,-7.726 -6.176,-15.207 -9.924,-22.62c-2.063,-4.085 -4.143,-8.156 -6.049,-12.319c-1.942,-4.241 -3.147,-8.91 -5.578,-12.89c-1.406,-2.302 -4.728,1.025 -4.738,2.723Z" style="fill:#010101;fill-rule:nonzero;"/><path d="M208.789,356.63c8.169,-9.522 15.354,-20.376 22.321,-30.804c2.76,-4.13 6.382,-7.098 9.602,-10.674c-1.76,0.8 -3.52,1.6 -5.279,2.398c0.012,0.005 0.025,0.01 0.037,0.014c-0.779,-1.276 -1.56,-2.553 -2.34,-3.83c0.373,-1.664 -0.14,0.435 -0.264,0.896c-1.097,4.09 4.16,4.229 6.311,2.249c0.564,-0.521 1.162,-1.05 1.564,-1.71c0.807,-1.323 1.9,-3.675 0.387,-5.021c-0.01,-0.009 -0.02,-0.017 -0.029,-0.025c-1.459,-1.296 -3.38,-1.247 -5.036,-0.27c-2.568,1.516 -3.026,3.776 -4.602,6.01c-1.741,2.469 -3.882,4.625 -5.503,7.177c-6.748,10.624 -16.511,20.775 -20.139,33.029c-0.611,2.07 2.183,1.477 2.97,0.561Z" style="fill:#010101;fill-rule:nonzero;"/><path d="M123.03,300.406c0.551,8.656 4.308,17.34 7.352,25.368c3.326,8.77 7.84,17.194 10.635,26.146c1.314,4.208 9.607,-0.868 6.547,-4.674c-5.615,-6.98 -9.143,-15.887 -12.618,-24.073c-3.332,-7.848 -5.324,-16.399 -9.041,-24.039c-0.733,-1.503 -2.959,-0.04 -2.875,1.272Z" style="fill:#010101;fill-rule:nonzero;"/><path d="M58.71,410.611c11.367,3.341 24.241,0.358 35.886,0.346c3.094,-0.003 6.189,-0.184 9.283,-0.252c1.306,-0.028 2.707,-0.161 3.988,0.081c0.563,0.106 1.118,0.323 1.669,0.477c2.479,0.694 -2.227,-3.625 -0.92,-5.482c-1.916,2.724 -1.301,6.352 2.524,6.334c3.947,-0.02 10.672,-7.344 5.105,-9.904c-3.488,-1.605 -8.745,-0.266 -12.453,0.022c-5.329,0.414 -10.636,0.942 -15.947,1.543c-9.426,1.067 -19.232,1.174 -28.433,3.554c-1.391,0.359 -2.557,2.736 -0.702,3.281Z" style="fill:#010101;fill-rule:nonzero;"/><path d="M146.065,465.753c-0.02,-2.646 -0.18,-5.233 -0.417,-7.866c-0.017,-0.176 -0.28,-0.074 -0.292,0.059c-0.232,2.735 -0.4,5.423 -0.42,8.169c-0.004,0.714 1.133,0.227 1.129,-0.362Z" style="fill:#010101;fill-rule:nonzero;"/><path d="M145.991,454.777c0.014,-0.275 0.026,-0.55 0.039,-0.825c0.032,-0.668 -1.033,-0.204 -1.059,0.34c0.028,-0.607 0.163,-0.641 -0.832,0.232c-0.645,0.566 -1.244,1.502 -1.423,2.34c-0.428,2.006 -0.481,4.156 -0.568,6.201c-0.232,5.43 -0.257,10.865 -0.335,16.299c-0.063,4.36 -0.09,8.723 -0.174,13.083c-0.057,2.878 -0.078,5.757 -0.025,8.635c0.046,2.457 -1.025,4.794 1.816,6.173c2.508,1.217 5.375,-0.715 6.495,-2.951c-2.332,4.655 -0.37,0.737 0.167,-0.333c0.613,-1.225 0.878,-2.496 0.467,-3.826c-0.703,-2.28 -0.82,-4.448 -0.953,-6.853c-0.26,-4.696 -0.318,-9.396 -0.387,-14.098c-0.069,-4.844 -0.139,-9.688 -0.209,-14.53c-0.033,-2.332 -0.164,-4.679 -0.395,-6.999c-0.088,-0.879 -0.198,-1.712 -0.404,-2.571c-0.126,-0.523 -2.221,-1.955 -2.182,-1.142c-0.033,-0.68 -1.086,-0.211 -1.059,0.34c0.013,0.266 0.025,0.533 0.039,0.8c0.033,0.652 0.959,0.163 0.982,-0.315Z" style="fill:#010101;fill-rule:nonzero;"/><path d="M217.617,267.709c5.388,5.325 7.887,13.982 10.942,20.741c1.564,3.462 3.109,6.946 4.91,10.294c0.882,1.64 1.167,3.973 4.009,4.525c2.612,0.51 7.018,-3.455 4.558,-5.973c-8.84,-9.049 -12.775,-22.805 -22.651,-31.139c-0.876,-0.737 -2.61,0.72 -1.768,1.552Z" style="fill:#010101;fill-rule:nonzero;"/><path d="M124.555,288.938c6.712,-1.935 12.041,-6.07 17.31,-10.521c2.953,-2.495 5.796,-5.115 8.761,-7.596c2.354,-1.969 4.771,-3.045 5.732,-6.118c0.363,-1.159 -0.421,-2.298 -1.551,-2.54c-4.779,-1.023 -10.215,6.121 -13.229,9.061c-5.598,5.457 -10.967,11.338 -17.414,15.832c-0.859,0.598 -1.091,2.309 0.391,1.882Z" style="fill:#010101;fill-rule:nonzero;"/><path d="M150.296,456.709c-2.792,6.981 11.131,3.422 13.826,2.779c8.97,-2.138 17.68,-5.418 26.296,-8.661c8.984,-3.382 17.879,-7 26.744,-10.683c3.273,-1.359 6.54,-2.735 9.809,-4.104c3.663,-1.535 7.043,-1.985 8.277,-6.491c0.389,-1.416 -0.174,-3.17 -1.535,-3.857c-4.156,-2.099 -9.35,1.625 -10.775,5.578c-0.476,1.316 -0.774,3.459 0.925,4.146c3.371,1.364 6.681,-0.123 9.29,-2.46c-2.5,-0.489 -5,-0.979 -7.5,-1.468c0.1,-0.535 0.199,-1.071 0.298,-1.606c0.936,-0.997 1.871,-1.994 2.807,-2.99c-13.487,6.506 -27.802,12.258 -41.921,17.659c-7.843,3.001 -15.786,5.882 -23.895,8.088c-2.465,0.671 -4.983,1.18 -7.508,1.564c-1.201,0.183 -2.295,0.171 -3.394,0.798c-0.021,0.012 -1.969,1.854 -1.12,0.975c0.348,-0.359 -0.544,0.532 -0.624,0.733Z" style="fill:#010101;fill-rule:nonzero;"/><path d="M29.868,330.067c-2.22,12.556 2.034,25.955 6.598,37.526c2.57,6.519 5.588,12.858 8.51,19.225c2.514,5.479 4.46,13.339 9.107,17.36c1.296,1.122 3.016,-0.38 3.109,-1.786c0.404,-6.033 -3.316,-12.056 -5.841,-17.353c-2.781,-5.835 -5.643,-11.629 -8.276,-17.533c-2.61,-5.854 -4.835,-11.861 -6.635,-18.014c-1.935,-6.609 -2.317,-13.323 -3.272,-20.093c-0.287,-2.025 -3.043,-0.789 -3.3,0.668Z" style="fill:#010101;fill-rule:nonzero;"/><path d="M244.633,310.774c6.128,0.983 12.606,0.636 18.801,0.998c7.076,0.415 14.109,1.148 21.118,2.204c6.994,1.054 13.914,2.554 20.752,4.351c6.703,1.762 13.458,4.834 20.417,5.261c1.138,0.069 3.633,-1.679 2.238,-2.934c-4.49,-4.044 -10.853,-5.569 -16.529,-7.208c-7.361,-2.126 -14.918,-3.609 -22.479,-4.808c-13.742,-2.179 -29.778,-4.319 -43.547,-1.466c-1.431,0.297 -2.902,3.26 -0.771,3.602Z" style="fill:#010101;fill-rule:nonzero;"/><path d="M54.092,416.33c-5.063,4.413 -9.076,9.97 -12.576,15.664c-3.196,5.196 -6.345,11.349 -6.1,17.608c0.08,2.035 2.903,1.389 3.647,0.178c2.805,-4.562 4.952,-9.507 7.473,-14.232c3.137,-5.879 7.263,-11.019 10.896,-16.569c1.756,-2.684 -1.047,-4.648 -3.34,-2.649Z" style="fill:#010101;fill-rule:nonzero;"/><path d="M46.206,300.071c0.172,-0.563 0.207,-0.523 0.105,0.121c0.014,0.334 0.129,0.629 0.345,0.885c0.47,0.731 1.062,0.999 1.839,1.355c1.851,0.853 3.904,1.155 5.916,1.288c5.691,0.376 11.346,-0.331 16.955,-1.233c10.496,-1.689 22.359,-3.691 31.688,-9.107c1.369,-0.795 1.908,-3.12 -0.18,-3.188c-9.552,-0.314 -19.602,3.519 -28.875,5.362c-5.164,1.027 -10.421,1.858 -15.676,2.232c-2.057,0.147 -4.168,0.159 -6.223,-0.017c-0.855,-0.073 -1.757,-0.408 -2.611,-0.352c-0.391,-0.001 -0.773,0.049 -1.15,0.149c-0.785,0.322 -0.724,0.328 0.186,0.016c-1.218,-0.656 -3.552,1.462 -2.319,2.489Z" style="fill:#010101;fill-rule:nonzero;"/><path d="M241.882,430.453c-0.272,3.603 4.601,5.737 7.211,7.044c5.132,2.566 10.668,4.309 16.154,5.931c10.813,3.196 23.481,7.192 34.909,6.108c1.125,-0.106 3.115,-2.271 1.449,-3.061c-9.146,-4.331 -20.274,-5.434 -30.02,-7.901c-5.742,-1.454 -11.49,-3.096 -17.031,-5.198c-3.473,-1.316 -6.765,-4.131 -10.33,-4.979c-1.221,-0.291 -2.26,0.976 -2.342,2.056Z" style="fill:#010101;fill-rule:nonzero;"/></g></svg>