<?xml version="1.0" encoding="UTF-8" standalone="no"?><!DOCTYPE svg PUBLIC "-//W3C//DTD SVG 1.1//EN" "http://www.w3.org/Graphics/SVG/1.1/DTD/svg11.dtd"><svg width="100%" height="100%" viewBox="0 0 486 450" version="1.1" xmlns="http://www.w3.org/2000/svg" xmlns:xlink="http://www.w3.org/1999/xlink" xml:space="preserve" style="fill-rule:evenodd;clip-rule:evenodd;stroke-linejoin:round;stroke-miterlimit:1.41421;"><g id="fridge"><path d="M100.074,6.443c-9.164,-5.662 -20.356,-6.858 -29.997,-1.625c-9.438,5.124 -15.252,15.345 -18.891,25.068c-4.868,13.007 -6.549,26.985 -7.541,40.757c-1.125,15.623 -0.898,31.337 -0.172,46.973c1.198,25.83 4.396,51.5 7.566,77.144c2.842,22.981 4.323,46.177 6.11,69.258c2.026,26.179 4.985,52.919 3.988,79.2c-0.79,20.795 -3.669,41.974 0.749,62.553c1.853,8.631 5.38,17.439 12.178,23.372c8.449,7.373 19.656,9.368 30.333,6.521c5.286,-1.41 11.777,-13.093 3.053,-14.247c-6.916,-0.916 -14.474,-1.38 -18.891,-4.994c-5.386,-4.407 -7.497,-9.766 -9.347,-16.513c-4.14,-15.101 -2.789,-32.862 -2.123,-48.717c0.911,-21.725 -0.758,-43.03 -2.678,-64.697c-2.672,-30.147 -5.943,-60.273 -9.584,-90.318c-2.803,-23.13 -6.32,-46.121 -8.278,-69.355c-2.458,-29.185 -4.542,-60.025 2.069,-88.825c2.174,-9.469 5.363,-19.102 12.164,-24.857c2.411,-2.041 6.099,-3.574 10.025,-4.13c5.538,-0.784 11.373,0.386 16.779,1.517c1.938,0.403 4.654,-2.746 2.488,-4.085Z" style="fill:#010101;fill-rule:nonzero;"/><path d="M108.385,15.852c7.615,10.436 20.137,16.865 30.795,23.825c10.504,6.859 20.002,15.056 27.164,25.419c12.949,18.738 16.611,42.984 18.254,65.174c1.853,25.025 1.285,50.223 2.26,75.29c1.27,32.665 3.189,65.315 2.06,98.017c-0.505,14.621 -1.567,29.313 -2.905,43.884c-1.143,12.447 -2.915,24.915 -6.705,36.86c-7.081,22.319 -26.069,38.142 -50.059,38.142c-6.969,0 -11.709,12.463 -2.67,12.463c20.188,0 40.482,-10.589 52.809,-26.396c11.834,-15.176 15.979,-34.969 18.146,-53.653c6.678,-57.573 2.104,-115.138 0.445,-172.826c-0.951,-33.092 0.601,-67.057 -9.727,-98.978c-4.827,-14.92 -13.463,-29.33 -25.777,-39.219c-7.684,-6.17 -16.259,-11.038 -24.862,-15.789c-8.964,-4.948 -18.115,-9.794 -27.319,-14.261c-1.094,-0.531 -2.686,0.983 -1.909,2.048Z" style="fill:#010101;fill-rule:nonzero;"/><path d="M204.618,101.656c1.256,-6.517 2.163,-13.189 5.467,-19.046c2.715,-4.813 7.775,-8.293 12.542,-10.789c12.974,-6.795 28.066,-8.483 42.456,-9.434c30.518,-2.015 60.757,2.342 91.154,4.035c23.369,1.303 46.418,1.278 69.715,4.674c12.876,1.877 26.538,4.205 38.139,10.404c3.994,2.135 7.156,4.685 8.482,7.889c0.584,1.411 0.592,2.442 0.396,3.592c-0.204,1.189 -1.515,4.08 -2.201,5.206c-4.747,7.788 4.374,11.195 9.35,5.053c7.12,-8.79 8.296,-20.679 -0.772,-28.497c-9.708,-8.369 -23.578,-11.493 -35.818,-13.949c-25.538,-5.123 -52.038,-6.345 -78.038,-6.381c-10.419,-0.014 -22.65,-1.413 -34.013,-2.252c-16.873,-1.246 -33.791,-2.114 -50.715,-1.693c-26.917,0.668 -65.166,4.135 -78.082,32.162c-2.917,6.329 -3.925,13.519 -1.551,20.151c0.656,1.837 3.246,0.138 3.489,-1.125Z" style="fill:#010101;fill-rule:nonzero;"/><path d="M199.476,118.824c-2.61,32.929 -0.235,66.427 1.022,99.38c1.258,32.97 2.889,65.929 3.225,98.927c0.147,14.392 -0.676,28.17 -2.401,42.44c-1.513,12.518 -2.587,25.732 2.192,37.706c8.372,20.972 32.76,26.329 52.859,28.112c21.043,1.867 42.367,1.475 63.477,1.749c23.842,0.31 47.686,0.552 71.526,1.045c16.896,0.351 33.045,0.309 48.331,-7.935c14.492,-7.815 23.334,-22.551 24.711,-38.769c0.764,-8.991 -12.111,-5.932 -12.703,1.029c-0.873,10.284 -4.364,18.985 -12.656,25.382c-7.516,5.797 -18.021,7.511 -27.213,8.029c-15.107,0.851 -30.559,-0.463 -45.688,-0.685c-16.52,-0.242 -33.04,-0.417 -49.561,-0.638c-15.675,-0.211 -31.438,-0.059 -47.094,-0.871c-10.578,-0.548 -21.194,-1.557 -31.379,-4.611c-9.796,-2.939 -18.539,-9.09 -22.907,-18.509c-5.419,-11.684 -3.238,-26.034 -1.851,-38.358c1.972,-17.506 1.532,-34.834 0.959,-52.422c-0.663,-20.35 -1.832,-40.682 -3.048,-61.006c-1.214,-20.301 -2.792,-40.577 -3.938,-60.883c-1.138,-20.178 -1.564,-40.445 -3.288,-60.581c-0.265,-3.116 -4.404,-0.688 -4.575,1.469Z" style="fill:#010101;fill-rule:nonzero;"/><path d="M473,111.77c-1.998,12.622 -2.2,25.744 -3.066,38.49c-0.945,13.898 -2.028,27.795 -3.213,41.675c-2.246,26.343 -4.649,52.676 -6.661,79.038c-1.641,21.503 -2.748,42.95 -2.893,64.508c-0.055,8.082 -0.247,16.179 -0.858,24.24c-0.246,3.246 -0.7,6.492 -1.341,9.684c-0.142,0.705 -0.797,3.094 -0.724,2.896c-0.493,1.342 -2.236,4.423 -0.528,1.913c-3.302,4.852 0.647,10.206 6.117,6.971c5.979,-3.537 7.508,-10.115 8.49,-16.523c1.257,-8.195 1.495,-16.588 1.608,-24.863c0.287,-21.039 0.346,-41.93 1.561,-62.966c1.605,-27.762 4.094,-55.463 5.787,-83.218c0.824,-13.508 1.574,-27.021 1.877,-40.552c0.311,-13.854 1.105,-28.577 -1.223,-42.288c-0.504,-2.973 -4.578,-1.244 -4.933,0.995Z" style="fill:#010101;fill-rule:nonzero;"/><path d="M220.165,182.428c18.158,1.707 36.962,0.405 55.152,-0.292c19.268,-0.738 38.523,-1.747 57.794,-2.419c19.204,-0.67 38.429,-0.939 57.638,-0.29c9.402,0.318 18.793,0.957 28.157,1.866c9.522,0.924 18.81,3.025 28.237,4.527c1.087,-3.18 2.175,-6.36 3.263,-9.541c-2.405,0.163 -4.392,0.535 -6.644,1.368c-2.077,0.768 -5.748,5.104 -2.314,6.731c1.955,0.927 3.515,1.289 5.695,1.441c4.801,0.337 11.066,-8.212 4.47,-9.484c-18.034,-3.48 -37.175,-4.058 -55.498,-4.65c-19.236,-0.623 -38.495,-0.12 -57.718,0.69c-19.332,0.815 -38.646,2.039 -57.969,3.041c-19.498,1.011 -39.121,0.863 -58.588,2.111c-2.151,0.14 -4.817,4.605 -1.675,4.901Z" style="fill:#010101;fill-rule:nonzero;"/><path d="M216.71,181.712c-1.212,2.56 -1.701,5.297 -1.091,8.075c0.935,4.262 7.12,3.521 7.801,-0.56c0.198,-1.186 -0.123,-2.015 -1.082,-2.721c0.385,0.271 0.238,0.15 -0.437,-0.364c0.251,0.172 0.252,0.132 0.004,-0.12c0.237,0.295 -0.222,-0.728 -0.221,-0.723c-0.188,-1.105 -0.066,-2.253 0.111,-3.351c0.175,-1.084 -0.267,-2.143 -1.442,-2.36c-1.49,-0.275 -3.026,0.825 -3.643,2.124Z" style="fill:#010101;fill-rule:nonzero;"/><path d="M219.37,191.985c4.871,1.897 10.678,1.254 15.821,1.236c7.156,-0.025 14.315,-0.252 21.468,-0.459c13.811,-0.397 27.617,-0.936 41.43,-1.293c28.158,-0.73 56.358,0.064 84.522,0.248c12.454,0.081 26.021,2.074 38.928,3.348c6.632,0.654 13.265,1.333 19.918,1.727c4.41,0.261 8.981,0.897 12.746,-1.83c-1.217,0.545 -2.433,1.091 -3.649,1.636c-0.036,-0.003 -0.072,-0.006 -0.109,-0.009c3.255,0.256 6.146,-1.875 6.986,-5.037c0.609,-2.296 0.945,-4.928 -0.974,-6.715c-2.301,-2.142 -4.668,-1.08 -7.244,-0.285c-1.913,0.59 -3.729,2.791 -3.028,4.865c0.19,0.564 0.414,1.084 0.663,1.623c0.193,0.323 0.388,0.646 0.581,0.968c1.039,0.83 1.177,0.938 0.412,0.321c1.935,-1.697 3.869,-3.395 5.803,-5.092c-1.906,0.144 -3.185,0.511 -4.743,1.682c1.2,-0.902 3.737,-1.369 1.599,-1.211c-2.218,0.164 -4.471,0.04 -6.689,-0.046c-6.795,-0.264 -13.588,-0.866 -20.361,-1.448c-12.293,-1.055 -24.723,-2.832 -37.08,-2.751c-27.616,0.18 -55.271,0.063 -82.869,1.177c-13.902,0.561 -27.79,1.425 -41.68,2.23c-7.204,0.419 -14.411,0.78 -21.621,1.081c-6.552,0.272 -13.744,-0.293 -20.035,1.728c-0.687,0.219 -2.003,1.836 -0.795,2.306Z" style="fill:#010101;fill-rule:nonzero;"/><path d="M225.641,259.435c15.495,3.982 33.342,2.251 49.123,1.272c18.646,-1.158 37.236,-3.082 55.898,-3.993c18.439,-0.901 36.901,-2.069 55.354,-2.653c18.552,-0.586 37.754,-0.783 55.692,4.533c1.09,-3.186 2.18,-6.37 3.269,-9.556c-3.469,0 -6.559,0.734 -9.889,1.626c-2.796,0.748 -5.027,5.351 -1.394,6.501c3.157,0.999 5.907,1.484 9.224,1.484c4.387,0 9.26,-8.51 3.269,-9.556c-36.696,-6.403 -73.991,-1.454 -110.878,0.056c-18.633,0.763 -37.179,3.022 -55.755,4.546c-17.558,1.441 -34.731,1.515 -52.307,1.042c-2.227,-0.059 -4.464,3.963 -1.606,4.698Z" style="fill:#010101;fill-rule:nonzero;"/><path d="M225.774,268.928c7.723,2.635 16.371,3.169 24.452,3.959c8.276,0.811 16.771,0.562 25.068,0.332c18.06,-0.5 36.063,-2.6 54.007,-4.567c36.529,-4.005 73.933,-8.088 110.264,-0.345c2.778,0.592 5.413,-1.592 6.632,-3.865c1.341,-2.501 2.45,-4.936 2.863,-7.756c0.462,-3.154 -2.19,-5.637 -5.369,-4.333c-2.353,0.965 -3.961,2.203 -5.931,3.734c-1.424,1.108 -2.387,3.975 -0.39,5.049c1.474,0.792 2.634,0.794 4.24,0.921c-0.96,-1.095 -1.921,-2.189 -2.882,-3.284c-0.254,1.413 -0.712,2.753 -1.374,4.021c2.21,-1.289 4.421,-2.577 6.632,-3.865c-35.738,-6.54 -72.282,-2.198 -108.02,2.068c-18.063,2.156 -36.135,4.374 -54.304,5.442c-8.719,0.513 -17.438,0.753 -26.171,0.53c-9.35,-0.238 -18.481,-1.547 -27.783,-2.146c-2.101,-0.136 -4.729,3.152 -1.934,4.105Z" style="fill:#010101;fill-rule:nonzero;"/><path d="M227.294,258.376c-2.675,0.944 -4.071,3.999 -4.02,6.697c0.024,1.213 0.571,2.585 1.39,3.464c1.431,1.537 3.124,1.469 5.023,1.023c1.498,-0.353 3.795,-2.814 2.799,-4.497c-0.583,-0.983 -1,-1.632 -2.021,-2.229c-0.304,-0.177 -0.593,-0.352 -0.882,-0.552c0.39,0.27 -0.213,-0.404 0,0.001c-0.456,-0.867 0.099,-2.174 -0.501,-3.256c-0.371,-0.667 -1.05,-0.911 -1.788,-0.651Z" style="fill:#010101;fill-rule:nonzero;"/><path d="M229.194,335.92c16.709,2.096 33.751,0.501 50.515,-0.241c17.655,-0.782 35.287,-2.304 52.924,-3.422c35.276,-2.235 71.944,-4.98 106.946,1.185c0.234,-2.857 0.468,-5.715 0.702,-8.572c-1.2,0.694 -2.832,0.883 -4.132,1.354c-2.123,0.77 -6.184,5.547 -2.457,7.147c3.283,1.41 6.554,1.37 9.579,-0.681c2.204,-1.494 6.051,-8.176 0.702,-8.572c-35.434,-2.627 -70.469,-2.433 -105.904,0.202c-17.719,1.317 -35.414,2.933 -53.129,4.305c-18.159,1.407 -36.49,1.681 -54.568,3.854c-1.425,0.171 -3.457,3.155 -1.178,3.441Z" style="fill:#010101;fill-rule:nonzero;"/><path d="M231.778,332.674c-0.166,0.146 -0.332,0.293 -0.498,0.44c0.264,-0.087 0.529,-0.174 0.794,-0.261c-2.575,-0.234 -4.094,2.57 -4.448,4.778c-0.2,1.242 0.048,2.429 0.483,3.592c0.646,1.726 1.431,2.797 3.217,3.351c2.181,0.676 5.817,-2.604 4.571,-4.87c-0.476,-0.864 -0.853,-1.391 -1.742,-1.856c-0.643,-0.336 -0.993,-0.814 -1.283,-1.455c-0.512,-1.135 0.354,-2.281 -0.486,-3.368c-0.023,0.304 -0.047,0.607 -0.07,0.911c0.133,-0.174 0.266,-0.347 0.398,-0.521c0.558,-0.729 -0.319,-1.285 -0.936,-0.741Z" style="fill:#010101;fill-rule:nonzero;"/><path d="M231.161,342.06c5.878,3.632 13.04,4.333 19.779,5.013c7.709,0.776 15.601,0.443 23.324,0.104c16.011,-0.704 31.921,-2.906 47.938,-3.562c19.217,-0.786 38.422,-1.829 57.643,-2.503c20.127,-0.705 40.636,-1.78 60.701,0.184c3.398,0.332 6.555,-2.023 7.384,-5.324c0.51,-2.025 0.903,-4.399 -0.617,-6.132c-1.56,-1.776 -3.542,-1.085 -5.526,-1.345c-4.063,-0.532 -10.35,5.928 -5.412,8.894c0.537,0.388 1.131,0.653 1.782,0.796c2.795,0.9 -0.525,-0.191 -0.361,-1.393c2.044,-1.794 4.089,-3.588 6.133,-5.382c-19.438,0.818 -38.919,0.443 -58.373,1.118c-19.453,0.675 -38.877,1.833 -58.301,3.063c-16.085,1.019 -32.071,2.965 -48.14,4.192c-8.121,0.621 -16.248,1.031 -24.395,0.845c-7.441,-0.17 -14.802,-1.18 -22.232,-1.368c-1.215,-0.032 -2.643,1.987 -1.327,2.8Z" style="fill:#010101;fill-rule:nonzero;"/><path d="M257.387,176.54c1.346,-6.006 1.143,-12.382 1.609,-18.506c0.533,-6.996 1.49,-13.83 2.583,-20.754c-0.651,1.059 -1.304,2.118 -1.955,3.177c13.805,-13.892 33.085,-17.359 51.931,-18.435c20.411,-1.164 40.857,0.798 61.277,0.684c11.962,-0.066 23.924,-0.268 35.795,1.445c5.573,0.804 10.961,2.359 16.305,4.096c3.032,0.985 6.068,2.376 8.162,4.833c4.03,4.73 3.841,13.876 4.433,19.761c0.436,4.332 0.64,8.687 0.599,13.039c-0.023,2.507 0.054,7.005 -1.388,8.72c3.073,0.149 6.146,0.298 9.219,0.447c-0.24,-2.119 -0.919,-4.013 -2.968,-4.952c-4.79,-2.198 -12.033,5.621 -6.77,8.938c-0.598,-1.139 -0.862,-1.342 -0.796,-0.608c-0.062,5.667 7.215,2.749 9.22,0.447c5.588,-6.421 3.987,-18.206 3.307,-25.938c-0.686,-7.795 -1.27,-17.195 -4.832,-24.256c-4.027,-7.979 -14.3,-10.125 -22.165,-12.202c-13.287,-3.509 -27.56,-3.202 -41.19,-3.088c-23.471,0.196 -47.041,-1.956 -70.478,-0.21c-11.113,0.829 -22.313,2.8 -32.7,6.928c-4.714,1.873 -9.189,4.249 -13.342,7.16c-3.502,2.456 -10.583,7.044 -10.613,11.823c-0.039,6.427 -0.168,12.801 -0.47,19.221c-0.304,6.457 -1.071,13.438 0.475,19.763c0.649,2.651 4.406,0.013 4.752,-1.533Z" style="fill:#010101;fill-rule:nonzero;"/><path d="M251.422,188.882c-1.479,4.871 -0.732,10.841 -0.418,15.84c0.4,6.361 0.917,12.716 1.301,19.078c0.36,5.981 0.557,11.978 0.305,17.967c-0.099,2.348 -0.382,4.669 -0.842,6.973c-0.408,2.05 -2.119,3.678 -0.87,5.89c1.204,2.132 3.708,2.456 5.76,1.158c4.692,-2.965 4.565,-8.637 4.865,-13.661c0.362,-6.075 -0.208,-12.216 -0.735,-18.263c-0.591,-6.762 -1.41,-13.503 -2.167,-20.248c-0.578,-5.16 -0.449,-11.424 -2.322,-16.305c-1.024,-2.665 -4.38,-0.065 -4.877,1.571Z" style="fill:#010101;fill-rule:nonzero;"/><path d="M252.502,268.075c-1.41,10.756 -1.749,21.414 -2.149,32.256c-0.232,6.29 -0.476,12.576 -0.826,18.861c-0.196,3.518 -2.339,9.965 -0.156,12.944c1.993,2.722 5.944,0.14 7.488,-1.556c2.779,-3.051 1.649,-8.758 1.658,-12.545c0.015,-5.979 -0.204,-11.98 -0.457,-17.955c-0.467,-10.985 -1.183,-21.708 -2.747,-32.574c-0.244,-1.694 -2.644,-0.709 -2.811,0.569Z" style="fill:#010101;fill-rule:nonzero;"/><path d="M438.716,193.744c-4.446,7.473 -4.145,17.762 -4.273,26.181c-0.151,9.864 0.022,19.755 0,29.617c-0.015,6.383 11.114,2.311 10.323,-3.309c-0.203,-1.438 -0.679,-2.495 -1.123,-3.83c-1.516,-4.544 -7.432,-0.046 -8.187,2.639c3.431,-3.714 4.042,-4.706 1.831,-2.976c-0.93,0.815 -1.5,1.796 -1.831,2.976c-0.313,1.118 -0.755,2.074 -0.909,3.255c-0.987,7.569 10.232,4.267 10.219,-2.063c-0.021,-9.111 -0.994,-18.258 -1.343,-27.363c-0.182,-4.733 -0.162,-9.471 -0.124,-14.206c0.03,-3.858 0.471,-7.995 -0.508,-11.75c-0.58,-2.228 -3.481,-0.168 -4.075,0.829Z" style="fill:#010101;fill-rule:nonzero;"/><path d="M434.159,264.535c-2.737,2.904 -2.697,7.978 -3.102,11.728c-0.628,5.834 -1.144,11.685 -1.623,17.533c-0.467,5.68 -1.047,11.356 -1.822,17.003c-0.29,2.111 -0.612,4.227 -1.079,6.307c-0.171,0.761 -0.38,1.512 -0.606,2.257c-0.992,3.261 0.268,-0.244 -0.109,0.723c-2.029,5.209 3.566,7.093 7.17,3.928c0.926,-0.813 1.518,-1.633 2.096,-2.706c0.264,-0.481 0.213,-0.403 -0.152,0.231c0.591,-0.766 0.994,-1.62 1.211,-2.563c0.524,-1.807 0.739,-3.713 0.995,-5.571c0.825,-5.997 1.186,-12.073 1.534,-18.113c0.359,-6.212 0.644,-12.474 0.451,-18.697c-0.09,-2.891 0.696,-10.942 -2.527,-12.565c-0.764,-0.386 -1.86,-0.108 -2.437,0.505Z" style="fill:#010101;fill-rule:nonzero;"/><path d="M248.774,345.309c-7.373,38.542 49.652,28.404 71.533,28.514c30.666,0.152 63.584,3.876 93.221,-5.962c8.475,-2.813 16.959,-7.561 21.449,-15.577c1.988,-3.553 2.809,-7.531 2.726,-11.58c-0.063,-3.119 -0.905,-6.296 -4.495,-6.961c-4.069,-0.755 -6.43,1.993 -8.477,4.315c-1.127,1.277 -1.576,4.135 0.341,4.993c1.212,0.542 2.296,0.482 3.349,1.316c-0.607,-0.999 -1.214,-1.998 -1.82,-2.996c0.393,2.53 0.404,4.69 -0.301,7.141c-0.418,1.453 -1.617,2.888 -3.107,4.222c-3.83,3.429 -10.34,5.574 -15.936,7.039c-15.926,4.17 -33.031,4.385 -49.394,4.484c-13.496,0.083 -27.04,-0.76 -40.528,-0.243c-15.982,0.612 -32.563,3.612 -48.226,-1.063c-8.96,-2.674 -14.163,-9.588 -14.379,-18.846c-0.087,-3.739 -5.48,-1.286 -5.956,1.204Z" style="fill:#010101;fill-rule:nonzero;"/><path d="M218.254,91.021c7.541,5.656 14.535,12.499 21.426,18.914c4.125,3.841 7.552,8.183 11.334,12.335c1.494,1.641 2.903,3.361 4.139,5.206c0.517,0.77 0.991,2.945 0.873,2.192c0.887,5.631 7.82,2.796 9.544,-0.772c4.293,-8.886 -11.753,-18.142 -17.183,-22.134c-8.977,-6.601 -18.108,-13.545 -28.363,-18.077c-1.274,-0.563 -3.07,1.36 -1.77,2.336Z" style="fill:#010101;fill-rule:nonzero;"/><path d="M75.561,1.139c-12.658,-2.744 -26.065,2.469 -35.148,11.354c-9.851,9.638 -14.631,23.261 -17.229,36.493c-6.345,32.32 -2.344,66.494 1.846,98.828c1.638,12.64 3.674,25.239 5.022,37.914c3.375,31.713 4.656,63.641 5.175,95.514c0.215,13.272 0.662,26.641 -0.045,39.904c-0.509,9.504 -1.489,18.981 -2.225,28.47c-1.531,19.793 -2.926,40.744 2.45,60.097c1.737,6.255 4.712,12.272 9.116,17.078c6.361,6.941 16.024,8.709 24.434,12.044c5.345,2.119 12.882,-7.273 7.137,-9.42c-9.926,-3.707 -20.05,-5.303 -26.457,-14.438c-4.967,-7.08 -6.802,-16.304 -7.865,-24.71c-2.57,-20.316 0.037,-41.099 1.671,-61.388c2.136,-26.518 0.96,-53.385 -0.057,-79.934c-0.962,-25.146 -2.454,-50.409 -5.789,-75.365c-4.156,-31.103 -9.044,-62.146 -9.007,-93.615c0.027,-23.79 1.953,-62.659 28.928,-72.301c5.334,-1.905 11.192,-2.278 16.783,-2.842c1.594,-0.159 3.651,-3.165 1.26,-3.683Z" style="fill:#010101;fill-rule:nonzero;"/><path d="M30.18,138.365c-2.621,-1.909 -7.82,0.569 -10.492,1.612c-3.317,1.297 -6.37,3.13 -9.153,5.341c-5.218,4.146 -8.054,10.549 -9.126,16.975c-1.199,7.179 -0.931,14.721 -0.616,21.972c0.294,6.773 1.185,13.719 3.388,20.153c1.963,5.729 5.959,10.654 12.479,10.268c7.26,-0.43 11.592,-6.407 13.386,-12.784c2.068,-7.356 1.828,-15.636 1.63,-23.199c-0.175,-6.666 -0.622,-13.381 -1.532,-19.99c-0.728,-5.288 -7.12,-3.572 -9.457,-0.459c-2.247,2.994 -3.764,6.011 -2.901,9.73c0.482,2.08 3.546,1.834 4.88,0.98c2.707,-1.73 4.053,-3.963 6.131,-6.328c-3.152,-0.153 -6.305,-0.307 -9.457,-0.459c1.531,10.98 2.112,22.344 1.412,33.406c-0.152,2.41 -0.543,4.814 -1.105,7.161c-0.183,0.764 -0.449,1.423 -0.785,2.134c-0.243,0.518 2.288,-1.201 0.039,-0.297c-3.215,1.292 -5.525,-6.175 -6.173,-8.115c-3.366,-10.096 -3.744,-22.196 -3.29,-32.728c0.219,-5.07 1.299,-10.261 5.139,-13.816c4.371,-4.048 12.415,-4.646 15.75,-9.44c0.491,-0.71 0.613,-1.564 -0.147,-2.117Z" style="fill:#010101;fill-rule:nonzero;"/><path d="M226.818,415.831c-0.91,3.899 -2.048,7.664 -2.644,11.633c-0.617,4.117 -0.721,8.319 -1.439,12.416c-0.291,1.657 0.425,3.204 2.176,3.561c9.992,2.039 20.919,1.966 31.086,2.562c11.849,0.694 23.721,1.06 35.584,1.417c23.637,0.714 47.316,2.026 70.961,2.148c10.922,0.057 21.799,-0.569 32.71,-0.835c6.975,-0.171 13.972,0.304 20.916,-0.559c14.976,-1.861 22.911,-12.89 21.201,-27.716c-0.248,-2.146 -1.997,-3.774 -4.261,-3.436c-2.193,0.327 -3.701,1.1 -5.686,1.905c-3.878,1.575 -7.23,8.886 -0.747,8.919c1.421,0.007 2.803,-0.391 4.222,-0.512c-1.42,-1.145 -2.84,-2.291 -4.261,-3.436c0.435,4.277 1.264,10.287 -3.112,12.758c-4.427,2.498 -10.972,2.014 -15.854,2.067c-18.274,0.201 -36.497,1.355 -54.785,1.044c-21.06,-0.358 -42.128,-1.097 -63.189,-1.552c-10.876,-0.235 -21.747,-0.592 -32.616,-1.047c-5.353,-0.224 -10.701,-0.503 -16.049,-0.836c-4.25,-0.265 -9.244,-1.47 -13.445,-0.709c1.082,0.873 2.165,1.746 3.247,2.619c-1.271,-7.33 -0.144,-15.841 0.224,-23.269c0.129,-2.666 -3.843,-0.842 -4.239,0.858Z" style="fill:#010101;fill-rule:nonzero;"/><path d="M272.216,293.512c2.689,5.155 13.532,4.398 18.288,4.232c6.791,-0.236 15.242,-2.021 18.262,-8.904c0.525,-1.196 0.501,-2.679 -0.759,-3.4c-10.284,-5.896 -27.629,-4.867 -35.632,4.314c-3.81,4.37 2.339,8.664 5.998,4.757c6.488,-6.928 17.708,-5.072 26.01,-3.116c-0.579,-0.947 -1.157,-1.894 -1.736,-2.841c-0.584,4.668 -11.021,4.524 -14.379,4.583c-4.979,0.088 -9.95,-1.42 -14.882,-1.143c-0.6,0.034 -1.519,0.847 -1.17,1.518Z" style="fill:#010101;fill-rule:nonzero;"/><path d="M273.264,292.29c-5.028,6.126 -4.714,17.963 -3.425,25.347c0.649,3.723 2.25,17.126 8.566,14.417c2.752,-1.182 5.144,-4.01 3.342,-6.97c-2.217,-3.643 -3.829,-7.202 -4.99,-11.391c-0.966,-3.48 -1.108,-7.12 -1.102,-10.711c0.007,-3.449 1.186,-7.151 0.515,-10.551c-0.318,-1.611 -2.113,-1.106 -2.906,-0.141Z" style="fill:#010101;fill-rule:nonzero;"/><path d="M305.155,287.376c-5.199,11.341 3.809,26.913 -3.779,37.081c-2.831,3.794 0.676,8.309 4.916,5.601c6.452,-4.119 5.895,-13.528 5.382,-20.207c-0.564,-7.34 -0.743,-16.213 -3.72,-23.044c-0.577,-1.323 -2.372,-0.359 -2.799,0.569Z" style="fill:#010101;fill-rule:nonzero;"/><path d="M392.534,201.882c0.745,-2.157 1.166,-3.708 3.691,-2.766c2.373,0.886 4.176,3.468 3.952,6.036c0.941,-0.826 1.882,-1.652 2.823,-2.478c-2.166,0.287 -4.35,0.313 -6.53,0.368c-2.303,0.059 -4.462,-0.134 -6.312,1.452c-1.148,0.983 -1.913,3.115 -0.315,4.076c1.636,0.983 4.388,-0.096 6.193,-0.339c2.21,-0.298 4.417,-0.597 6.591,-1.104c1.283,-0.299 2.24,-1.664 2.264,-2.93c0.082,-4.381 -2.782,-8.65 -7.279,-9.412c-4.214,-0.714 -8.655,2.889 -7.946,7.327c0.254,1.597 2.454,0.966 2.868,-0.23Z" style="fill:#010101;fill-rule:nonzero;"/><path d="M389.618,206.369c-1.416,4.373 0.158,9.093 -1.402,13.5c-0.057,0.157 -3.576,1.46 -3.967,1.701c-1.432,0.882 -2.252,2.156 -3.088,3.56c-4.037,6.772 -1.401,17.512 -1.293,24.896c0.055,3.706 5.451,1.819 6.275,-0.509c0.705,-1.995 1.377,-4.003 -0.664,-5.379c-1.187,-0.799 -2.729,0.318 -3.484,1.158c-0.823,0.914 -1.26,2.012 -1.781,3.115c2.092,-0.17 4.184,-0.339 6.275,-0.509c-0.073,-4.217 -0.608,-8.414 -0.82,-12.625c-0.128,-2.558 -0.068,-5.067 0.395,-7.591c0.412,-2.24 1.737,-2.418 3.563,-3.357c5.9,-3.036 4.047,-13.719 1.754,-18.527c-0.441,-0.921 -1.558,-0.065 -1.763,0.567Z" style="fill:#010101;fill-rule:nonzero;"/><path d="M402.651,205.532c-2.844,5.362 -7.173,17.064 -0.926,21.277c5.313,3.584 0.829,12.551 2.855,17.445c0.867,2.095 3.432,1.314 4.775,0.254c4.097,-3.237 1.682,-12.971 0.736,-17.172c-0.834,-3.714 -2.582,-4.276 -5.302,-6.497c-2.878,-2.351 -1.335,-11.97 -1.036,-15.257c0.073,-0.777 -0.848,-0.529 -1.102,-0.05Z" style="fill:#010101;fill-rule:nonzero;"/><path d="M349.217,205.69c3.932,-1.104 7.54,-2.343 11.665,-2.661c4.265,-0.33 10.935,-0.735 14.853,1.386c0.123,-1.59 0.246,-3.18 0.368,-4.77c-0.396,0.462 -0.851,0.855 -1.362,1.181c-1.61,1.172 -1.883,3.907 0.286,4.521c0.22,0.063 0.438,0.125 0.658,0.187c1.423,0.403 3.125,-0.708 3.929,-1.784c0.206,-0.276 0.412,-0.553 0.618,-0.829c1.202,-1.61 0.964,-4.757 -1.732,-4.35c-9.089,1.374 -23.528,-3.201 -29.921,6.068c-0.386,0.561 -0.104,1.26 0.638,1.051Z" style="fill:#010101;fill-rule:nonzero;"/><path d="M349.796,205.021c-0.835,2.831 -0.706,5.622 0.81,8.219c-0.02,-0.365 -0.04,-0.73 -0.061,-1.096c-0.023,0.124 -0.047,0.247 -0.07,0.371c-0.521,2.735 2.658,2.866 4.213,1.502c1.474,-1.294 1.885,-4.688 -0.941,-4.373c-0.135,0.015 -0.27,0.03 -0.403,0.045c0.497,0.178 0.995,0.354 1.492,0.532c-1.769,-1.472 -2.804,-3.543 -3.63,-5.654c-0.3,-0.764 -1.268,-0.025 -1.41,0.454Z" style="fill:#010101;fill-rule:nonzero;"/><path d="M351.702,211.467c-5.748,3.282 -7.849,10.282 -8.277,16.489c-0.242,3.501 -0.093,6.955 0.203,10.448c0.241,2.857 0.104,6.294 1.051,9.01c1.181,3.391 5.936,0.227 6.391,-2.059c0.91,-4.566 -0.912,-10.139 -1.222,-14.765c-0.415,-6.208 0.142,-11.726 3.851,-16.851c1.151,-1.591 -0.243,-3.274 -1.997,-2.272Z" style="fill:#010101;fill-rule:nonzero;"/><path d="M377.848,201.938c-0.803,1.248 -1.346,2.355 -1.736,3.81c-0.383,1.419 -0.57,3.116 -1.129,4.417c0.506,-0.538 1.01,-1.076 1.515,-1.614c-0.062,0.043 -0.122,0.086 -0.184,0.129c-1.069,0.746 -2.252,1.908 -2.093,3.362c0.066,0.607 0.192,1.005 0.563,1.498c1.171,1.558 3.717,0.218 4.572,-0.95c0.413,-0.563 0.632,-1.089 0.822,-1.751c0.229,-0.799 -0.085,-2.068 -0.953,-2.396c-0.083,-0.031 -0.166,-0.062 -0.249,-0.093c0.249,0.283 0.498,0.566 0.746,0.85c-0.279,-1.027 -0.072,-2.624 -0.064,-3.77c0.007,-1.167 -0.232,-2.289 -0.266,-3.417c-0.024,-0.874 -1.225,-0.571 -1.544,-0.075Z" style="fill:#010101;fill-rule:nonzero;"/><path d="M375.557,214.385c1.13,1.434 2.816,2.44 4.045,3.814c1.248,1.396 2.166,2.957 2.943,4.644c1.337,-1.734 2.674,-3.469 4.012,-5.203c-2.125,0.073 -4.484,1.145 -5.59,3.035c-0.462,0.79 -0.033,1.822 0.6,2.36c1.159,0.986 2.02,1.197 3.565,1.251c2.577,0.091 5.374,-3.615 3.611,-5.867c-2.618,-3.344 -6.413,-7.854 -11.167,-7.313c-1.362,0.154 -3.1,1.907 -2.019,3.279Z" style="fill:#010101;fill-rule:nonzero;"/><path d="M276.583,139.561c3.556,0.393 7.185,0.107 10.76,0.117c5.062,0.013 10.119,0.519 15.172,0.772c3.609,0.181 6.302,-5.85 1.941,-5.676c-8.811,0.353 -18.951,-0.786 -27.343,2.311c-0.809,0.299 -2.125,2.299 -0.53,2.476Z" style="fill:#010101;fill-rule:nonzero;"/><path d="M275.231,137.391c-2.508,6.718 -0.682,15.8 0.027,22.728c0.335,3.274 0.08,16.898 4.846,16.743c1.854,-0.061 3.498,-2.936 2.813,-4.584c-1.462,-3.519 -1.944,-7.412 -2.502,-11.16c-0.642,-4.316 -1.104,-8.659 -1.461,-13.008c-0.295,-3.604 0.025,-7.797 -1.081,-11.258c-0.413,-1.29 -2.328,-0.305 -2.642,0.539Z" style="fill:#010101;fill-rule:nonzero;"/><path d="M304.067,136.386c-1.02,5.729 -0.663,11.521 -0.711,17.315c-0.046,5.547 0.599,12.351 -1.963,17.467c-2.025,4.041 4.174,4.414 5.615,1.047c2.329,-5.442 1.959,-11.74 1.662,-17.521c-0.328,-6.382 -1.07,-12.77 -2.41,-19.015c-0.258,-1.204 -2.062,-0.032 -2.193,0.707Z" style="fill:#010101;fill-rule:nonzero;"/><path d="M303.336,137.994c5.139,4.829 8.873,9.27 9.718,16.413c0.842,7.118 -0.284,14.483 0.056,21.646c0.211,4.46 6.744,1.226 6.801,-2.18c0.043,-2.57 -0.565,-3.749 -2.981,-4.546c-1.177,-0.389 -2.881,0.825 -3.255,1.897c-0.615,1.762 -0.677,2.962 -0.564,4.828c2.267,-0.727 4.534,-1.453 6.801,-2.18c-0.598,-7.594 0.441,-15.526 -1.112,-23.011c-1.475,-7.104 -7.105,-12.062 -13.359,-15.126c-1.109,-0.54 -3.195,1.234 -2.105,2.259Z" style="fill:#010101;fill-rule:nonzero;"/></g></svg>