<?xml version="1.0" encoding="UTF-8" standalone="no"?><!DOCTYPE svg PUBLIC "-//W3C//DTD SVG 1.1//EN" "http://www.w3.org/Graphics/SVG/1.1/DTD/svg11.dtd"><svg width="100%" height="100%" viewBox="0 0 527 433" version="1.1" xmlns="http://www.w3.org/2000/svg" xmlns:xlink="http://www.w3.org/1999/xlink" xml:space="preserve" style="fill-rule:evenodd;clip-rule:evenodd;stroke-linejoin:round;stroke-miterlimit:1.41421;"><g id="garden"><path d="M213.547,87.454c2.911,-12.695 10.581,-22.133 22.273,-27.656c11.035,-5.213 24.529,-5.881 36.437,-4.184c11.338,1.616 23.123,6.026 31.148,14.472c3.435,3.614 6.006,8.172 6.896,13.11c0.503,2.791 0.516,5.672 0.124,8.474c-0.453,3.237 -1.916,6.732 -1.354,10.005c0.53,3.095 4.169,3.17 6.145,1.203c9.797,-9.756 6.589,-27.654 -0.942,-37.683c-7.836,-10.435 -21.202,-15.705 -33.63,-17.977c-25.833,-4.72 -59.468,3.834 -68.452,31.45c-0.995,3.056 -0.99,6.102 -1.021,9.266c-0.017,1.512 2.158,0.475 2.376,-0.48Z" style="fill:#010101;fill-rule:nonzero;"/><path d="M215.335,86.469c-2.735,-6.848 -12.591,-9.67 -19.172,-10.657c-7.633,-1.144 -15.395,0.647 -22.119,4.296c-6.915,3.75 -12.33,10.272 -14.93,17.66c-1.388,3.941 -1.984,7.99 -1.982,12.166c0.002,3.957 0.939,10.69 5.076,12.341c1.813,0.724 3.821,-0.39 4.623,-2.101c2.881,-6.147 -0.146,-14.26 1.563,-20.977c1.299,-5.104 4.999,-9.176 9.447,-11.788c4.849,-2.847 10.999,-3.756 16.543,-3.358c6.591,0.474 11.891,4.257 18.168,5.385c1.448,0.26 3.395,-1.434 2.783,-2.967Z" style="fill:#010101;fill-rule:nonzero;"/><path d="M162.549,121.797c-29.898,-5.709 -60.505,20.043 -70.722,46.613c-4.833,12.57 -5.59,27.191 1.229,39.195c7.83,13.787 26.138,23.703 42,22.537c0.932,-0.186 1.866,-0.356 2.804,-0.515c2.047,-0.359 5.458,-3.747 2.578,-5.446c-6.931,-4.09 -15.32,-5.492 -22.578,-9.174c-5.675,-2.877 -10.5,-6.91 -14.188,-12.098c-6.8,-9.568 -6.521,-21.719 -3.258,-32.504c8.172,-27.013 34.658,-43.158 61.381,-46.407c0.927,-0.111 2.206,-1.923 0.754,-2.201Z" style="fill:#010101;fill-rule:nonzero;"/><path d="M137.748,227.023c-7.218,7.042 -9.51,16.878 -10.291,26.622c-0.894,11.142 0.229,22.113 3.606,32.775c5.624,17.76 19.328,31.408 35.713,39.633c16.505,8.285 35.622,10.973 53.876,8.944c9.186,-1.021 18.27,-3.405 26.741,-7.092c4.542,-1.977 8.81,-4.259 12.803,-7.204c3.452,-2.545 8.333,-6.203 9.014,-10.653c0.276,-1.803 -0.783,-2.991 -2.599,-2.961c-3.579,0.06 -6.403,2.623 -9.486,4.198c-3.649,1.865 -7.16,3.951 -10.874,5.701c-7.206,3.396 -15.215,5.295 -23.085,6.279c-16.032,2.007 -32.807,-0.442 -47.538,-7.08c-14.445,-6.508 -26.744,-17.72 -33.384,-32.209c-3.924,-8.561 -5.591,-17.941 -6.205,-27.28c-0.604,-9.198 0.022,-20.011 3.619,-28.628c0.563,-1.35 -0.99,-1.943 -1.91,-1.045Z" style="fill:#010101;fill-rule:nonzero;"/><path d="M314.197,101.917c13.225,-3.019 25.884,5.884 36.42,12.703c10.112,6.544 19.024,15.751 24.709,26.403c5.017,9.4 6.838,19.979 4.381,30.389c-2.769,11.725 -12.461,19.469 -19.625,28.459c-1.621,2.035 -0.26,4.661 2.373,3.901c14.133,-4.077 23.717,-17.546 28.108,-31.03c4.073,-12.51 1.471,-26.408 -4.592,-37.787c-6.729,-12.63 -17.812,-22.359 -30.197,-29.244c-11.903,-6.616 -29.24,-15.676 -42.167,-6.639c-1.349,0.943 -1.647,3.356 0.59,2.845Z" style="fill:#010101;fill-rule:nonzero;"/><path d="M355.35,201.411c4.06,6.135 6.835,11.822 8.274,19.126c1.472,7.47 1.591,15.185 1.183,22.764c-0.771,14.318 -4.513,27.432 -14.146,38.319c-8.979,10.147 -22.422,15.838 -35.179,19.404c-6.879,1.924 -13.934,3.053 -21.027,3.807c-7.453,0.791 -15.268,-0.091 -22.319,2.675c-2.575,1.009 -6.261,5.455 -2.618,7.613c6.384,3.782 15.398,1.964 22.469,1.232c8.525,-0.882 17.009,-2.577 25.239,-4.963c16.282,-4.72 31.459,-13.186 42.646,-26.06c10.905,-12.548 14.671,-28.939 14.761,-45.178c0.072,-13.008 -1.565,-37.193 -16.823,-41.964c-1.65,-0.515 -3.381,1.833 -2.46,3.225Z" style="fill:#010101;fill-rule:nonzero;"/><path d="M300.073,58.647c18.46,-19.564 39.993,-34.851 66.48,-41.145c24.226,-5.758 48.433,-1.34 68.843,12.829c19.254,13.365 33.021,33.926 43.772,54.366c12.159,23.117 22.386,47.897 28.601,73.292c4.706,19.227 6.116,39.244 5.709,58.989c-0.272,13.192 -2.372,25.702 -14.459,32.936c-7.774,4.652 -16.938,6.824 -25.669,8.886c-10.817,2.553 -21.905,3.976 -32.974,4.832c-10.787,0.835 -21.656,0.895 -32.444,0.081c-11.214,-0.845 -22.692,-2.126 -32.944,-7.021c-5.929,-2.833 -14.802,7.707 -8.222,10.855c13.091,6.266 27.799,7.656 42.12,8.389c14.339,0.732 28.692,0.063 42.928,-1.767c13.793,-1.772 28.031,-4.509 41.029,-9.56c9.589,-3.727 18.648,-9.324 24.636,-17.867c5.425,-7.738 7.366,-17.053 8.057,-26.317c0.953,-12.776 0.413,-25.746 -0.799,-38.484c-2.496,-26.239 -10.398,-51.182 -20.962,-75.217c-16.99,-38.655 -40.792,-81.743 -83.175,-96.549c-21.601,-7.546 -45.483,-4.763 -66.552,3.187c-22.018,8.307 -43.709,23.26 -56.234,43.494c-1.088,1.759 0.793,3.345 2.259,1.791Z" style="fill:#010101;fill-rule:nonzero;"/><path d="M237.615,54.074c-5.512,-7.347 -10.848,-14.661 -15.501,-22.598c-4.094,-6.981 -8.568,-13.918 -14.466,-19.527c-15.257,-14.516 -37.645,-12.572 -56.427,-7.204c-23.875,6.822 -45.661,20.574 -65.032,35.783c-19.496,15.307 -37.279,33.578 -51.367,54.003c-13.283,19.259 -22.346,41.424 -28.315,63.966c-6.033,22.782 -9.107,48.353 -1.615,71.159c14.319,43.594 64.252,55.05 104.692,49.747c6.948,-0.911 13.849,-2.342 20.629,-4.099c6.979,-1.808 8.22,-13.663 -0.617,-11.373c-38.468,9.968 -88.393,6.366 -109.261,-32.7c-11.175,-20.919 -8.015,-47.084 -2.875,-69.246c5.209,-22.461 14.01,-44.648 27.025,-63.752c12.836,-18.839 29.131,-35.227 46.822,-49.51c17.934,-14.48 38.293,-26.909 60.479,-33.566c16.944,-5.086 36.306,-6.15 49.632,7.199c11.462,11.48 17.781,27.44 31.267,37.01c2.647,1.88 6.845,-2.739 4.93,-5.292Z" style="fill:#010101;fill-rule:nonzero;"/><path d="M359.769,48.106c-9.34,-3.813 -26.301,4.237 -28.848,14.097c-4.368,16.917 16.473,19.1 27.83,17.481c6.083,-0.867 12.774,-2.664 17.441,-6.873c5.063,-4.566 7.448,-12.442 4.866,-18.818c-2.208,-5.454 -8.381,-8.871 -14.108,-8.759c-7.484,0.146 -13.688,5.138 -16.99,11.623c-2.5,4.911 4.614,6.112 6.946,2.417c2.22,-3.519 4.573,-6.42 9.111,-5.993c3.498,0.329 6.441,2.649 7.792,5.827c4.333,10.188 -10.579,13.295 -17.125,14.086c-7.473,0.904 -22.664,0.127 -20.096,-11.45c1.865,-8.409 15.527,-10.459 22.297,-11.772c0.592,-0.116 1.983,-1.418 0.884,-1.866Z" style="fill:#010101;fill-rule:nonzero;"/><path d="M458.358,126.211c-7.792,-3.678 -16.483,-1.616 -22.905,3.887c-5.978,5.123 -8.557,14.375 -3.832,21.183c9.378,13.513 30.094,10.542 42.41,3.121c6.222,-3.749 11.475,-9.875 12.329,-17.284c0.834,-7.242 -2.678,-14.366 -9.874,-16.582c-11.965,-3.684 -31.315,5.513 -29.716,19.842c0.636,5.691 9.374,1.758 8.861,-2.84c-0.865,-7.746 10.512,-10.437 16.276,-9.126c4.436,1.008 6.199,5.334 6.304,9.454c0.12,4.74 -3.776,8.39 -7.46,10.694c-7.947,4.972 -20.031,6.872 -28.467,2.121c-5.279,-2.974 -8.695,-9.579 -5.277,-15.11c4.065,-6.579 13.009,-8.384 20.125,-7.347c0.889,0.13 2.402,-1.458 1.226,-2.013Z" style="fill:#010101;fill-rule:nonzero;"/><path d="M402.669,213.047c-8.442,3.95 -14.221,11.074 -11.878,20.771c2.187,9.051 11.495,12.333 19.731,12.079c15.4,-0.476 37.086,-11.816 31.653,-30.013c-5.336,-17.873 -31.343,-8.384 -35.757,4.983c-1.105,3.349 1.312,7.423 5.071,5.277c3.35,-1.911 2.714,-5.724 5.208,-8.13c5.178,-4.996 14.414,-4.469 17.192,2.592c4.281,10.881 -11.794,16.293 -19.713,17.391c-5.869,0.813 -10.911,-0.231 -15,-4.777c-5.578,-6.203 -2.32,-14.449 4.163,-18.416c1.19,-0.725 0.799,-2.444 -0.67,-1.757Z" style="fill:#010101;fill-rule:nonzero;"/><path d="M183.359,34.757c0.262,-9.165 -6.105,-14.23 -14.586,-10.02c-4.121,2.047 -7.162,5.901 -9.407,9.795c-1.997,3.464 -5.501,12.543 -2.069,15.799c1.054,1 2.6,0.033 3.152,-1.033c1.627,-3.143 0.875,-7.236 1.799,-10.722c0.989,-3.74 3.31,-7.066 6.241,-9.532c6.429,-5.408 11.619,-0.491 12.917,6.34c0.245,1.292 1.926,0.344 1.953,-0.627Z" style="fill:#010101;fill-rule:nonzero;"/><path d="M159.513,48.562c-5.704,4.202 -11.484,11.448 -6.217,17.986c4.055,5.031 12.201,6.136 18.186,5.816c6.479,-0.347 12.876,-3.224 16.168,-8.99c3.459,-6.059 0.223,-19.185 -6.623,-21.402c-1.218,-0.395 -2.571,1.112 -2.541,2.229c0.171,6.191 7.482,10.845 4.633,17.732c-1.799,4.35 -7.884,5.231 -11.955,5.364c-4.493,0.146 -9.733,-1.038 -13.088,-4.189c-5.183,-4.868 2.505,-8.946 2.51,-14.337c0,-0.628 -0.768,-0.434 -1.073,-0.209Z" style="fill:#010101;fill-rule:nonzero;"/><path d="M106.042,92.465c-1.283,-6.131 1.07,-13.855 -4.677,-18.266c-4.034,-3.095 -9.36,-4.377 -13.769,-1.351c-4.139,2.841 -5.997,7.907 -7.306,12.536c-1.125,3.981 -3.038,9.875 -1.116,13.709c0.535,1.067 2.066,0.649 2.614,-0.212c3.97,-6.239 2.085,-14.663 6.422,-21.06c2.733,-4.031 8.86,-1.81 11.589,1.23c3.029,3.374 3.196,10.082 4.699,14.291c0.339,0.95 1.708,-0.098 1.544,-0.877Z" style="fill:#010101;fill-rule:nonzero;"/><path d="M80.37,97.557c-6.304,4.098 -15.724,11.701 -10.014,19.801c4.937,7.005 17.78,8.746 25.535,7.898c8.308,-0.907 15.794,-8.517 15.973,-17.016c0.191,-9.055 -7.938,-14.415 -16.351,-11.118c-1.88,0.737 -3.691,4.894 -0.381,4.54c6.216,-0.662 12.039,1.007 11.354,8.553c-0.664,7.323 -7.135,10.161 -13.583,10.104c-6.221,-0.056 -13.868,-2.092 -18.224,-6.755c-4.892,-5.236 5.581,-10.644 6.823,-15.374c0.184,-0.696 -0.638,-0.954 -1.132,-0.633Z" style="fill:#010101;fill-rule:nonzero;"/><path d="M82.803,218.931c-0.04,-8.069 -0.813,-25.703 -13.362,-22.83c-9.4,2.151 -13.14,17.599 -7.875,24.881c1.281,1.773 4.554,-0.685 4.249,-2.441c-0.823,-4.747 -3.231,-17.558 4.596,-18.105c9.632,-0.674 7.521,13.91 10.258,19.44c0.565,1.142 2.14,0.006 2.134,-0.945Z" style="fill:#010101;fill-rule:nonzero;"/><path d="M62.802,217.411c-6.988,5.683 -17.848,15.696 -11.532,25.356c5.185,7.931 20.479,6.163 28.1,4.612c8.952,-1.823 19.132,-8.568 15.978,-19.209c-2.698,-9.106 -18.462,-6.027 -24.058,-2.365c-2.009,1.315 -2.385,5.705 0.907,4.375c4.68,-1.891 15.126,-5.736 18.04,0.903c1.402,3.196 -0.937,7.177 -3.616,8.787c-3.282,1.974 -7.368,2.722 -11.104,3.204c-6.037,0.781 -15.524,1.033 -19.81,-4.201c-5.24,-6.4 6.455,-15.106 8.945,-20.45c0.64,-1.375 -0.96,-1.736 -1.85,-1.012Z" style="fill:#010101;fill-rule:nonzero;"/><path d="M24.742,153.041c1.74,-3.917 5.588,-13.563 11.176,-8.568c2.733,2.443 0.094,10.507 -0.518,13.451c-0.413,1.995 -2.736,8.323 0.15,9.362c3.533,1.271 4.021,-4.656 4.348,-6.646c1.055,-6.436 4.398,-17.087 -2.757,-20.902c-7.352,-3.92 -14.142,7.568 -14.231,13.452c-0.017,1.127 1.561,0.461 1.832,-0.149Z" style="fill:#010101;fill-rule:nonzero;"/><path d="M23.501,157.255c-7.371,3.276 -15.221,15.18 -10.31,23.185c4.472,7.289 16.452,8.545 24.049,7.319c8.12,-1.31 14.921,-9.671 11.79,-17.964c-3.28,-8.685 -15.759,-9.27 -22.272,-4.59c-2.513,1.804 -0.599,4.998 2.184,3.641c5.17,-2.524 12.118,-1.74 15.001,3.85c3.614,7.006 -4.638,10.18 -9.749,10.354c-5.044,0.172 -11.264,-1.109 -15.199,-4.438c-5.998,-5.072 0.402,-16.02 5.257,-19.397c1.248,-0.871 0.93,-2.706 -0.751,-1.96Z" style="fill:#010101;fill-rule:nonzero;"/><path d="M93.898,274.036c-3.438,4.381 -4.184,10.539 -4.802,15.907c-0.943,8.188 -1.146,16.429 -1.312,24.662c-0.164,8.161 -0.057,16.327 -0.24,24.489c-0.105,4.688 0.028,9.807 -1.317,14.357c-1.896,6.412 7.813,4.727 9.654,0.451c1.923,-4.467 1.714,-9.733 1.779,-14.507c0.106,-7.781 -0.167,-15.569 -0.325,-23.349c-0.284,-14.002 -0.214,-27.85 0.608,-41.815c0.145,-2.451 -3.233,-1.231 -4.045,-0.195Z" style="fill:#010101;fill-rule:nonzero;"/><path d="M140.635,305.131c-1.63,8.782 -1.625,17.953 -2.36,26.846c-0.836,10.094 -1.484,20.225 -1.809,30.347c3.198,-1.837 6.396,-3.675 9.594,-5.513c-0.867,-1.056 -1.674,-2.14 -2.574,-3.168c-1.188,-1.354 -2.881,-1.208 -4.458,-0.873c-6.437,1.365 -4.813,8.012 -1.718,11.721c3.366,4.034 9.693,-1.584 9.594,-5.513c-0.236,-9.339 0.028,-18.675 0.204,-28.013c0.166,-8.834 0.544,-18.704 -2.288,-27.183c-0.742,-2.22 -3.906,-0.149 -4.185,1.349Z" style="fill:#010101;fill-rule:nonzero;"/><path d="M66.647,348.661c-2.683,0.885 -3.878,4.176 -3.365,6.795c0.671,3.425 3.69,5.378 6.612,6.885c9.372,4.832 21.75,5.265 32.028,5.889c12.768,0.775 25.553,0.701 38.327,0.147c6.257,-0.272 22.299,1.101 24.916,-6.53c2.396,-6.983 -7.178,-7.268 -9.099,-1.696c-0.451,1.308 -0.795,2.435 -0.902,3.815c-0.119,1.529 1.578,2.492 2.903,2.342c0.977,-0.11 1.881,-0.355 2.799,-0.688c-0.167,-3.081 -0.334,-6.162 -0.501,-9.242c-3.761,1.367 2.474,-0.016 -1.166,0.483c-1.385,0.19 -2.776,0.323 -4.168,0.451c-4.188,0.389 -8.391,0.631 -12.591,0.837c-11.064,0.544 -22.162,0.662 -33.236,0.465c-10.16,-0.18 -20.438,-0.672 -30.426,-2.659c-2.898,-0.577 -5.986,-1.308 -8.469,-2.98c-1.776,-1.197 -1.16,-2.478 -2.414,-4.067c-0.285,-0.366 -0.849,-0.378 -1.248,-0.247Z" style="fill:#010101;fill-rule:nonzero;"/><path d="M398.005,271.426c-10.934,21.958 -4.817,47.511 -1.403,70.587c1.063,7.188 10.385,1.73 10.666,-3.42c0.077,-1.411 0.233,-2.679 -0.029,-4.069c-0.793,-4.199 -5.687,-3.031 -7.703,-0.374c-1.546,2.038 -2.433,4.046 -2.825,6.577c3.52,-0.711 7.039,-1.423 10.558,-2.134c-3.416,-21.743 -10.016,-44.928 -5.521,-66.991c0.535,-2.627 -2.965,-1.738 -3.743,-0.176Z" style="fill:#010101;fill-rule:nonzero;"/><path d="M355.376,286.502c-6.295,2.934 -7.274,15.099 -7.858,20.949c-0.923,9.254 -0.604,18.623 -1.956,27.832c-1.057,7.199 9.75,4.802 10.254,-0.83c0.771,-8.612 0.377,-17.255 0.245,-25.887c-0.063,-4.161 0.007,-8.36 0.385,-12.507c0.247,-2.709 1.895,-6.554 1.021,-9.138c-0.314,-0.922 -1.425,-0.729 -2.091,-0.419Z" style="fill:#010101;fill-rule:nonzero;"/><path d="M326.691,340.005c-0.35,7.144 11.142,9.182 16.298,9.829c9.868,1.24 20.131,0.024 29.907,-1.429c10.901,-1.62 21.704,-3.843 32.555,-5.752c8.16,-1.436 16.819,-3.219 25.146,-2.622c0.256,-3.116 0.511,-6.232 0.766,-9.348c-3.291,2.198 -6.633,4.2 -9.861,6.504c-1.319,0.943 -3.042,3.918 -0.367,4.479c4.944,1.034 9.147,0.085 13.49,-2.455c2.689,-1.572 6.396,-8.859 0.767,-9.348c-8.155,-0.706 -16.367,0.664 -24.384,2.021c-10.385,1.758 -20.696,3.927 -31.079,5.701c-9.896,1.691 -19.81,3.075 -29.861,3.192c-3.877,0.046 -7.778,-0.36 -11.538,-1.319c-3.066,-0.782 -5.691,-2.582 -8.924,-2.551c-1.599,0.017 -2.844,1.629 -2.915,3.098Z" style="fill:#010101;fill-rule:nonzero;"/><path d="M217.054,326.686c-2.733,1.981 -3.571,6.563 -4.279,9.652c-1.322,5.767 -1.943,11.636 -2.465,17.52c-0.728,8.217 -0.869,16.475 -0.896,24.721c-0.023,7.717 0.022,15.49 0.861,23.169c0.496,4.546 1.293,14.675 8.372,11.363c4.78,-2.235 1.848,-6.035 1.061,-10.021c-1.508,-7.625 -1.699,-15.638 -2.012,-23.384c-0.306,-7.599 -0.424,-15.207 -0.26,-22.811c0.129,-5.932 0.46,-11.836 0.814,-17.757c0.184,-3.082 2.248,-9.553 0.643,-12.355c-0.436,-0.764 -1.236,-0.534 -1.839,-0.097Z" style="fill:#010101;fill-rule:nonzero;"/><path d="M277.093,315.358c-8.611,15.09 -10.794,34.652 -12.381,51.643c-1.667,17.857 -1.789,36.565 3.404,53.895c2.649,-1.891 5.297,-3.781 7.944,-5.672c-1.76,-2.473 -3.661,-2.438 -6.188,-3.414c-2.032,-0.785 -4.668,1.006 -4.542,3.267c0.186,3.324 1.482,4.101 3.299,6.671c2.785,3.939 9.024,-2.025 7.944,-5.672c-4.822,-16.27 -4.793,-33.921 -3.742,-50.714c1.062,-16.956 5.396,-33.128 7.775,-49.839c0.361,-2.538 -2.71,-1.573 -3.513,-0.165Z" style="fill:#010101;fill-rule:nonzero;"/><path d="M192.414,412.201c-1.821,17.757 24.324,19.728 36.387,19.646c9.727,-0.066 19.443,-1.386 28.955,-3.354c6.87,-1.421 13.976,-3.186 20.233,-6.449c3.065,-1.599 4.829,-8.628 -0.44,-7.849c-3.554,0.524 -6.563,1.844 -9.099,4.434c-1.6,1.634 -2.28,5.288 1.093,5.078c2.104,-0.131 4.067,-0.76 6.166,-0.93c-0.146,-2.616 -0.294,-5.232 -0.44,-7.849c-11.642,6.112 -28.219,7.909 -41.551,8.662c-13.376,0.755 -30.357,0.526 -37.851,-12.501c-0.866,-1.506 -3.295,-0.426 -3.453,1.112Z" style="fill:#010101;fill-rule:nonzero;"/><path d="M295.103,257.882c2.41,-8.312 -6.215,-11.769 -12.93,-11.735c-8.554,0.041 -16.354,6.042 -19.715,13.649c-8.026,18.164 13.935,29.218 28.974,23.179c7.375,-2.962 15.769,-9.216 16.898,-17.695c0.878,-6.591 -2.627,-11.747 -8.237,-14.899c-4.639,-2.606 -10.908,-3.51 -15.943,-1.612c-6.786,2.558 -16.89,14.145 -8.996,21.047c6.074,5.312 14.729,-0.703 16.459,-7.379c0.307,-1.184 1.147,-6.842 0.479,-3.263c-0.512,2.733 -2.616,4.881 -4.881,6.325c-2.023,1.291 -0.768,0.607 -2.849,0.939c0.625,-0.1 2.337,0.02 -0.319,-0.139c0.545,0.033 1.084,0.139 1.619,0.24c0.473,0.09 2.313,0.689 0.124,-0.08c0.731,0.257 1.427,0.606 2.11,0.969c0.506,0.268 0.977,0.594 1.444,0.92c-1.77,-1.234 -0.435,-0.289 -0.038,0.123c0.418,0.436 1.21,1.873 0.082,-0.146c0.32,0.573 0.564,2.069 0.154,-0.249c0.304,1.714 0.434,-2.051 0.063,-0.267c0.066,-0.319 1.971,-3.544 0.779,-1.903c1.621,-2.232 0.318,-0.38 -0.334,0.178c1.689,-1.443 -1.366,0.797 -1.894,1.079c2.216,-1.187 -1.41,0.139 0.444,-0.205c-0.913,0.169 -1.851,0.194 -2.777,0.223c1.226,-0.038 -1.681,-0.251 -1.559,-0.231c0.271,0.043 -2.549,-0.674 -1.654,-0.348c-3.203,-1.168 -4.941,-2.855 -5.06,-5.263c-0.078,-1.581 0.574,-2.358 2.821,-2.651c3.365,-0.438 6.66,1.949 9.84,2.724c2.235,0.544 4.334,-1.592 4.896,-3.53Z" style="fill:#010101;fill-rule:nonzero;"/><path d="M159.49,256.674c-6.644,0.981 -9.731,7.682 -9.994,13.76c-0.269,6.201 5.707,11.9 10.689,14.51c14.169,7.42 32.025,-2.801 36.292,-17.196c4.194,-14.149 -12.008,-22.768 -23.735,-20.526c-6.924,1.323 -14.006,5.063 -17.065,11.804c-3.175,6.996 -1.553,15.292 6.194,17.903c6.275,2.115 13.477,-5.836 13.236,-11.615c-0.087,-2.075 -0.545,-3.354 -1.621,-5.127c-0.261,-0.43 0.313,-0.743 0.03,0.967c-0.398,1.609 -1.209,2.93 -2.437,3.959c-1.409,0.913 -1.578,1.04 -0.506,0.38c-2.631,1.585 2.04,-0.31 -0.064,0.042c1.762,-0.295 3.201,-0.232 4.744,0.43c0.963,0.413 3.252,1.594 3.045,3.258c0.002,-0.013 -0.576,0.754 -1.486,1.146c-2.359,1.019 -4.484,0.686 -6.908,-0.25c-2.904,-1.121 -5.238,-2.57 -7.244,-4.961c-1.555,-1.855 -0.198,-4.037 -0.295,-6.163c-0.067,-1.468 -1.425,-2.535 -2.875,-2.321Z" style="fill:#010101;fill-rule:nonzero;"/><path d="M181.838,261.045c-0.056,-0.002 -0.111,-0.005 -0.167,-0.008c1.123,0.4 2.246,0.801 3.369,1.201c-0.559,-0.908 -1.565,-1.456 -2.608,-1.621c-1.676,-0.265 -3.172,0.193 -4.651,0.947c-1.209,0.615 -1.987,1.506 -2.861,2.504c-0.804,0.917 -1.211,2.146 -1.541,3.286c0.181,-0.525 0.359,-1.051 0.539,-1.576c-0.008,0.021 -0.015,0.04 -0.021,0.06c0.313,-0.513 0.624,-1.026 0.937,-1.54c-1.571,1.799 -2.054,4.4 -1.247,6.62c0.486,1.342 1.907,2.588 3.37,2.706c0.784,0.063 1.454,0.131 2.192,0.002c0.516,-0.104 1.031,-0.208 1.546,-0.312c1.124,-0.371 2.129,-0.949 3.017,-1.734c1.299,-1.139 2.205,-2.582 2.621,-4.258c0.045,-0.182 0.114,-0.367 0.131,-0.554c0.242,-1.049 0.185,-2.079 -0.172,-3.092c-0.38,-0.97 -1.024,-1.705 -1.938,-2.208c-0.078,-0.051 -0.154,-0.104 -0.229,-0.16c0.384,0.306 0.77,0.611 1.153,0.917c-0.998,-0.818 -1.314,-1.216 -2.626,-1.459c-1.039,-0.192 -2.304,-0.077 -3.291,0.276c1.069,-0.086 2.14,-0.173 3.209,-0.26c-0.021,-0.004 -0.04,-0.008 -0.061,-0.012c0.459,0.159 0.917,0.318 1.376,0.479c-0.051,-0.023 -0.096,-0.047 -0.142,-0.078c0.366,0.291 0.732,0.582 1.099,0.873c-0.022,-0.018 -0.041,-0.037 -0.057,-0.06c0.238,0.396 0.476,0.792 0.714,1.188c-0.013,-0.02 -0.021,-0.04 -0.023,-0.063c0.093,0.454 0.187,0.909 0.28,1.363c0,-0.011 0,-0.022 0,-0.033c-0.042,0.488 -0.083,0.977 -0.124,1.465c0.002,-0.013 0.005,-0.025 0.007,-0.039c-0.169,0.495 -0.338,0.99 -0.507,1.486c0.006,-0.016 0.013,-0.031 0.019,-0.047c-0.289,0.476 -0.579,0.952 -0.868,1.428c0.088,-0.145 0.185,-0.283 0.29,-0.417c-1.697,0.986 -3.396,1.973 -5.094,2.959c0.057,-0.005 0.113,-0.009 0.171,-0.013c2.915,-0.213 5.693,-2.687 6.303,-5.531c0.259,-1.208 0.089,-2.531 -0.751,-3.489c-0.31,-0.247 -0.622,-0.494 -0.933,-0.741c-0.766,-0.385 -1.575,-0.537 -2.431,-0.455Z" style="fill:#010101;fill-rule:nonzero;"/><path d="M236.452,164.532c-3.231,-0.482 -5.182,-0.968 -8.491,0.013c-3.299,0.978 -6.576,3.439 -8.738,6.069c-4.557,5.544 -6.096,12.299 -3.947,19.164c2.072,6.626 8.754,9.934 15.211,10.607c7.708,0.805 14.526,-1.673 20.696,-6.136c6.212,-4.493 9.122,-12.759 7.513,-20.087c-1.272,-5.793 -5.932,-9.068 -11.203,-10.873c-14.188,-4.857 -28.076,13.826 -16.822,24.951c7.9,7.81 21.527,-5.278 16.148,-14.172c-1.73,-2.86 0.232,0.677 -0.904,-1.639c-0.346,-1.018 -0.367,-0.959 -0.063,0.173c-0.233,3.443 -1.951,6.1 -5.155,7.969c-0.873,0.541 -1.818,0.874 -2.833,0.997c0.975,-0.031 0.827,-0.046 -0.44,-0.043c0.452,0.065 0.898,0.163 1.338,0.292c-0.982,-0.349 -1.018,-0.325 -0.107,0.069c1.832,0.866 0.414,0.093 1.193,0.953c0.406,0.45 0.377,0.826 0.315,0.45c0.25,1.517 0.178,0.282 0.801,-0.7c-1.337,2.109 2.13,-1.307 -0.187,0.043c1.596,-0.93 -2.099,0.687 -1.273,0.524c-1.006,0.197 -2.203,0.356 -3.227,0.277c-2.007,-0.153 -4.271,-0.683 -5.388,-2.556c-2.321,-3.896 -0.406,-8.282 4.045,-9.256c2.774,-0.604 5.75,-6.456 1.518,-7.089Z" style="fill:#010101;fill-rule:nonzero;"/><path d="M156.505,137.032c-5.008,-2.329 -10.395,2.927 -12.979,6.717c-3.316,4.865 -4.284,11.137 -2.329,16.713c2.138,6.101 8.481,8.887 14.541,8.826c7.066,-0.072 13.108,-3.983 17.612,-9.146c7.887,-9.041 5.83,-25.246 -7.13,-27.611c-12.405,-2.264 -27.242,13.037 -18.73,24.717c2.438,3.346 7.864,2.284 10.853,0.579c4.054,-2.313 6.26,-6.056 6.601,-10.608c0.082,-1.094 -0.15,-2.111 -0.176,-3.207c0.047,2.077 -1.183,3.758 -2.634,5.135c-0.891,0.812 -1.905,1.406 -3.046,1.785c-1.633,0.255 -1.936,0.316 -0.909,0.186c0.966,-0.027 0.734,-0.046 -0.692,-0.055c0.625,0.065 2.151,0.75 0.092,-0.094c2.045,0.838 -0.235,-0.558 0.666,0.32c0.996,0.969 0.445,1.286 0.2,-0.056c0.089,0.617 0.127,1.238 0.116,1.862c0.066,-0.871 0.01,-0.791 -0.171,0.24c0.106,-0.661 0.395,-1.235 0.862,-1.723c-1.377,2.247 1.77,-1.489 -0.155,0.285c1.274,-0.84 1.388,-0.944 0.34,-0.313c1.213,-0.496 1.271,-0.556 0.177,-0.177c1.074,-0.189 1.066,-0.222 -0.023,-0.096c0.865,0.09 0.779,0.067 -0.257,-0.069c-1.591,-0.232 -2.249,-1.098 -2.701,-2.183c-0.231,-0.832 -0.306,-0.938 -0.222,-0.32c-0.082,-0.493 -0.131,-0.99 -0.144,-1.49c0.004,-0.866 0.003,-0.988 -0.004,-0.365c0.116,-1.968 0.167,-2.443 0.153,-1.426c0.206,-0.798 0.212,-0.901 0.019,-0.311c0.175,-0.42 0.382,-0.824 0.62,-1.212c0.744,-1.319 1.064,-2.549 1.175,-4.067c0.077,-1.078 -0.762,-2.389 -1.725,-2.836Z" style="fill:#010101;fill-rule:nonzero;"/><path d="M325.882,131.618c-0.228,-0.063 -0.455,-0.125 -0.684,-0.188c0.846,0.678 1.69,1.355 2.535,2.034c-2.612,-7.401 -12.528,-0.837 -15.46,2.335c-3.931,4.256 -4.441,10.718 -3.023,16.021c3.874,14.498 22.497,13.277 32.566,6.945c6.036,-3.796 11.446,-9.732 12.7,-16.966c1.258,-7.264 -2.75,-14.031 -9.46,-16.882c-16.276,-6.912 -36.462,13.455 -26.682,29.176c2.179,3.503 8.104,2.174 10.893,0.582c3.867,-2.206 6.587,-6.144 6.626,-10.646c0.012,-1.444 -0.279,-2.833 -0.303,-4.281c-0.011,0.712 0.068,0.529 0.236,-0.547c-0.248,1.046 -0.749,1.417 -1.475,2.185c1.451,-1.534 -0.84,0.744 -1.748,0.84c-0.771,-0.038 -0.579,0.03 0.573,0.203c-0.358,-0.074 0.871,0.38 1.122,0.622c0.436,0.452 0.829,0.938 1.181,1.459c-0.442,-0.617 -0.461,-0.495 -0.056,0.365c-0.177,-0.921 -0.225,-0.896 -0.143,0.076c-0.016,-0.534 0.875,-2.887 0.067,-1.104c0.761,-1.162 0.795,-1.256 0.1,-0.281c1.575,-2.129 0.107,-0.154 -0.456,0.328c2.565,-2.199 -3.154,1.495 -0.74,0.441c-0.367,0.161 -3.708,1.061 -2.065,0.77c-1.951,0.346 -1.24,0.42 -3.131,-0.096c1.37,0.373 -2.084,-1.455 -0.78,-0.418c-1.005,-0.799 -1.845,-1.722 -2.601,-2.756c0.801,1.098 -0.349,-1.078 -0.471,-1.469c-0.25,-0.823 -0.278,-0.82 -0.084,0.01c-0.077,-0.442 0.122,-2.2 -0.123,-0.468c0.207,-0.847 0.171,-0.754 -0.107,0.279c0.646,-1.46 -0.6,0.789 -0.837,1.011c0.975,-0.915 1.943,-1.846 2.661,-2.981c-1.171,0.842 -2.341,1.683 -3.512,2.524c0.259,-0.081 0.517,-0.162 0.775,-0.242c3.557,-1.111 7.117,-7.454 1.906,-8.881Z" style="fill:#010101;fill-rule:nonzero;"/><path d="M262.269,78.612c-2.344,-3.575 -8.728,-0.781 -11.378,0.813c-4.532,2.725 -8.445,8.06 -8.989,13.405c-0.5,4.913 1.329,9.226 5.41,12.05c3.528,2.44 8.98,1.761 12.777,0.596c9.641,-2.961 18.201,-15.215 10.63,-24.27c-6.376,-7.624 -20.467,-3.268 -26.347,2.621c-2.781,2.785 -5.381,6.807 -3.805,10.918c1.408,3.675 5.962,4.733 9.385,3.424c1.282,-0.49 2.427,-0.961 3.724,-1.541c0.49,-0.221 2.84,-1.2 0.249,-0.144c0.438,-0.179 2.866,-0.799 0.394,-0.306c0.472,-0.082 0.947,-0.133 1.425,-0.153c-1.203,-0.106 -1.314,-0.09 -0.332,0.05c-1.785,-0.296 0.276,0.564 -0.983,-0.573c0.572,0.713 0.593,0.689 0.06,-0.071c-0.244,-0.678 -0.283,-1.37 -0.115,-2.078c0.499,-1.035 0.998,-2.072 1.497,-3.108c1.351,-1.308 1.587,-1.565 0.708,-0.773c1.504,-1.001 1.745,-1.198 0.725,-0.592c1.443,-0.591 1.639,-0.705 0.586,-0.343c2.559,-0.816 -0.904,-0.266 1.465,-0.092c-0.902,-0.189 -0.818,-0.119 0.25,0.211c-0.752,-0.453 -0.704,-0.357 0.145,0.285c-0.231,-0.201 -1.176,-1.862 -0.712,-0.83c0.052,0.724 0.048,0.632 -0.012,-0.274c0.067,0.363 0.007,0.704 -0.182,1.022c0.024,-0.063 1.299,-2.355 0.484,-1.021c0.53,-0.869 1.2,-1.648 1.869,-2.41c1.699,-1.935 2.557,-4.553 1.072,-6.816Z" style="fill:#010101;fill-rule:nonzero;"/><path d="M104.458,275.34c-1.403,13.758 -1.299,27.733 -2.351,41.543c-1.144,15.012 -1.521,30.064 -2.605,45.072c2.979,-1.318 5.958,-2.636 8.937,-3.953c-0.752,-2.305 -2.048,-3.153 -4.388,-3.622c-2.196,-0.44 -4.107,1.696 -4.229,3.711c-0.079,1.32 -0.314,2.527 -0.32,3.864c-0.023,5.695 9.489,1.985 9.148,-2.934c-0.982,-14.182 0.659,-28.544 1.213,-42.719c0.534,-13.652 1.943,-28.423 -0.788,-41.896c-0.542,-2.683 -4.391,-1.263 -4.617,0.934Z" style="fill:#010101;fill-rule:nonzero;"/><path d="M119.035,271.959c-1.4,7.369 -1.83,14.942 -2.712,22.393c-0.966,8.148 -2.136,16.266 -3.038,24.422c-1.703,15.396 -2.201,30.598 -0.213,45.985c0.83,6.421 10.69,1.975 10.01,-3.209c-0.234,-1.782 -0.397,-3.308 -1.799,-4.543c-1.881,-1.659 -4.731,-0.653 -6.076,1.263c-1.201,1.713 -1.778,3.208 -2.032,5.282c3.226,-1.04 6.45,-2.079 9.676,-3.118c-3.072,-14.761 -1.862,-30.373 -0.76,-45.277c1.054,-14.24 3.806,-30.242 0.317,-44.284c-0.46,-1.85 -3.157,-0.054 -3.373,1.086Z" style="fill:#010101;fill-rule:nonzero;"/><path d="M129.393,276.652c-1.579,6.71 -1.62,13.733 -2.168,20.583c-0.581,7.234 -1.144,14.47 -1.746,21.702c-1.254,15.056 -2.233,30.127 -2.642,45.231c2.904,-2.088 5.809,-4.177 8.713,-6.265c-1.104,-0.687 -1.613,-1.185 -2.972,-1.308c-2.794,-0.252 -5.052,1.614 -5.849,4.218c-0.585,1.907 -0.64,4.1 0.955,5.529c3.763,3.374 9.729,-1.084 9.631,-5.534c-0.316,-14.26 0.397,-28.494 0.856,-42.741c0.229,-7.099 0.524,-14.204 0.546,-21.308c0.021,-7.087 0.472,-14.485 -1.345,-21.391c-0.583,-2.223 -3.675,-0.011 -3.979,1.284Z" style="fill:#010101;fill-rule:nonzero;"/><path d="M231.162,328.661c-5.708,8.148 -7.496,19.08 -9.059,28.695c-1.347,8.297 -1.955,16.795 -2.611,25.17c-0.669,8.547 -0.752,17.218 0.042,25.757c0.566,6.084 1.413,15.817 6.7,19.731c3.138,2.323 8.381,-2.465 7.967,-5.729c-0.369,-2.907 -1.95,-5.556 -2.834,-8.36c-1.046,-3.316 -1.519,-6.783 -1.917,-10.227c-0.929,-8.035 -0.698,-16.145 -0.48,-24.21c0.198,-7.308 0.588,-14.628 0.966,-21.927c0.486,-9.408 4.486,-19.418 3.36,-28.797c-0.142,-1.183 -1.631,-0.821 -2.134,-0.103Z" style="fill:#010101;fill-rule:nonzero;"/><path d="M248.038,323.08c-10.514,14.284 -10.28,33.496 -12.253,50.384c-2.175,18.617 -5.7,38.091 -0.717,56.546c1.623,6.009 11.198,-0.458 10.018,-5.709c-0.424,-1.883 -1.343,-3.028 -3.028,-3.974c-2.324,-1.303 -5.212,0.792 -6.223,2.827c-0.918,1.847 -1.1,3.644 -1.009,5.685c3.42,-1.513 6.84,-3.025 10.26,-4.538c-5.081,-16.468 -1.501,-34.362 -0.192,-51.136c1.272,-16.344 0.177,-33.48 6.153,-49.038c0.861,-2.242 -1.88,-2.583 -3.009,-1.047Z" style="fill:#010101;fill-rule:nonzero;"/><path d="M264.626,313.037c-10.746,14.848 -11.4,32.899 -12.905,50.577c-1.746,20.505 -6.871,41.331 -2.976,61.916c3.473,-1.535 6.943,-3.071 10.416,-4.607c-1.092,-2.345 -1.874,-4.264 -4.396,-5.316c-2.791,-1.166 -6.028,1.046 -6.663,3.871c-0.607,2.71 -0.219,4.732 0.889,7.242c2.372,5.372 11.229,0.185 10.416,-4.607c-3.296,-19.396 0.342,-38.396 1.567,-57.771c0.524,-8.321 0.826,-16.636 1.562,-24.943c0.723,-8.161 1.747,-17.762 5.272,-25.254c1.096,-2.33 -2.035,-2.693 -3.182,-1.108Z" style="fill:#010101;fill-rule:nonzero;"/><path d="M367.435,265.114c-6.604,10.374 -7.286,23.997 -8.046,35.949c-0.842,13.249 -1.334,27.146 -0.42,40.396c2.832,-2.036 5.663,-4.072 8.495,-6.108c-1.293,-1.001 -2.558,-0.957 -4.119,-1.002c-1.266,-0.036 -2.775,1.184 -3.217,2.318c-0.696,1.793 -1.516,2.766 -1.159,4.792c1.209,6.875 9.914,1.666 10.217,-3.274c0.737,-12.02 -0.898,-24.36 -1.099,-36.403c-0.11,-6.593 0.057,-13.218 0.667,-19.786c0.519,-5.572 1.796,-11.116 1.733,-16.732c-0.019,-1.737 -2.437,-1.118 -3.052,-0.15Z" style="fill:#010101;fill-rule:nonzero;"/><path d="M378.975,266.159c-7.462,14.991 -5.741,32.105 -6.627,48.353c-0.351,6.425 -1.158,12.841 -1.782,19.244c-0.33,3.382 -2.042,9.433 2.598,10.558c2.008,0.487 4.421,-0.926 5.539,-2.516c0.01,-0.014 0.021,-0.028 0.029,-0.042c3.258,-4.631 -2.205,-8.729 -5.992,-4.753c2.475,-1.152 3.24,-1.593 2.299,-1.321c-0.715,0.202 -1.829,0.828 -2.334,1.358c1.687,1.922 3.372,3.844 5.059,5.765c3.175,-3.047 2.938,-7.082 3.239,-11.157c0.415,-5.611 0.848,-11.229 1.121,-16.849c0.787,-16.168 -1.062,-32.291 0.556,-48.466c0.257,-2.585 -2.888,-1.817 -3.705,-0.174Z" style="fill:#010101;fill-rule:nonzero;"/><path d="M389.96,270.218c-5.213,10.53 -5.109,24.042 -5.864,35.55c-0.825,12.566 -0.877,25.18 -1.348,37.762c2.954,-2.125 5.908,-4.249 8.862,-6.373c-1.83,-1.221 -3.163,-1.994 -5.405,-1.718c-2.259,0.278 -3.941,1.888 -4.584,4.022c-0.754,2.508 -0.021,4.641 1.988,6.28c4.017,3.276 9.72,-0.987 9.797,-5.63c0.196,-11.828 0.032,-23.652 0.091,-35.48c0.03,-6.226 0.117,-12.447 0.189,-18.672c0.063,-5.361 0.636,-11.118 -0.734,-16.351c-0.412,-1.577 -2.591,-0.199 -2.992,0.61Z" style="fill:#010101;fill-rule:nonzero;"/><path d="M288.741,249.047c1.042,-3.936 1.892,-7.216 4.539,-10.431c2.308,-2.804 7.032,-6.463 10.764,-6.86c-0.617,-1.549 -1.233,-3.098 -1.851,-4.646c-0.55,0.704 -1.239,1.324 -1.822,2.004c-1.623,1.89 -0.238,5.229 2.463,4.051c1.864,-0.813 3.227,-1.643 4.461,-3.297c2.72,-3.643 -1.417,-5.66 -4.41,-3.498c-4.76,3.436 -9.473,5.553 -13.305,10.248c-2.851,3.492 -5.163,8.825 -3.466,13.275c0.538,1.414 2.386,0.065 2.627,-0.846Z" style="fill:#010101;fill-rule:nonzero;"/><path d="M288.714,239.398c2.83,-5.62 -1.848,-13.152 -5.941,-16.869c-3.663,-3.326 -11.276,-4.569 -14.043,0.665c-2.175,4.115 3.137,7.299 5.983,9.089c3.863,2.429 8.771,5.323 13.359,6.002c2.732,0.404 7.458,-4.729 3.781,-6.213c-5.564,-2.244 -12.273,-4.146 -16.77,-8.301c-0.132,-0.121 -0.761,-0.923 -0.628,-0.665c0.929,1.789 -3.098,2.936 -0.682,2.293c2.021,-0.538 4.004,1.113 5.352,2.395c3.49,3.318 5.017,7.88 6.894,12.153c0.57,1.296 2.258,0.319 2.695,-0.549Z" style="fill:#010101;fill-rule:nonzero;"/><path d="M241.573,160.367c1.114,-7.548 8.872,-13.786 14.313,-18.485c-1.683,-0.599 -3.365,-1.197 -5.048,-1.798c-0.227,2.084 -0.61,3.528 1.226,4.849c0.739,0.531 1.875,-0.033 2.458,-0.511c1.602,-1.313 2.413,-2.837 2.795,-4.862c0.754,-4 -4.055,-2.992 -5.721,-1.079c-5.584,6.414 -13.486,13.222 -13.046,22.497c0.088,1.866 2.828,0.702 3.023,-0.611Z" style="fill:#010101;fill-rule:nonzero;"/><path d="M168.45,136.139c1.627,-3.334 4.574,-6.172 7.167,-8.766c1.173,-1.173 2.623,-2.127 3.711,-3.365c0.322,-0.365 0.67,-0.79 0.878,-1.232c0.821,-1.746 -0.745,1.568 0.038,-0.095c0.123,-0.262 0.24,-0.657 0.187,-0.952c-0.133,-0.726 -0.447,-1.161 -1.187,-1.352c-2.982,-0.769 -5.974,3.443 -7.635,5.311c-2.561,2.877 -5.063,6.249 -6.571,9.814c-1.097,2.594 2.469,2.569 3.412,0.637Z" style="fill:#010101;fill-rule:nonzero;"/><path d="M87.833,72.356c2.287,1.473 5.142,-2.686 6.263,-4.08c1.848,-2.294 3.381,-3.564 5.246,-5.658c1.375,-1.543 0.833,-4.768 -1.728,-4.338c-3.532,0.594 -5.67,4.021 -7.412,6.854c-0.731,1.186 -4.406,5.911 -2.369,7.222Z" style="fill:#010101;fill-rule:nonzero;"/><path d="M69.912,195.899c-0.081,-3.176 -0.596,-6.392 -0.851,-9.565c-0.132,-1.646 -0.176,-3.331 0.084,-4.966c0.175,-1.095 0.841,-1.714 0.744,-2.855c-0.385,0.802 -0.77,1.604 -1.153,2.404c0.091,-0.07 0.182,-0.141 0.273,-0.21c1.548,-1.192 1.477,-3.864 -0.825,-3.831c0.251,0.055 0.501,0.108 0.751,0.162c-0.756,-0.49 -2.068,-0.262 -2.766,0.225c-5.86,4.086 -2.933,15.078 0.156,20.224c1.063,1.767 3.631,0.127 3.587,-1.588Z" style="fill:#010101;fill-rule:nonzero;"/><path d="M457.139,123.014c0.966,-4.69 0.116,-9.26 -1.034,-13.832c-0.652,-2.59 -1.617,-5.115 -2.04,-7.759c-0.294,-1.839 -1.627,-2.202 -3.271,-2.276c-1.577,-0.07 -3.203,1.445 -3.829,2.76c-0.718,1.511 -1.041,2.838 -0.157,4.353c0.656,1.128 2.159,1.067 3.048,0.162c0.646,-0.659 1.431,-1.157 2.125,-1.767c-0.873,0.392 -1.746,0.782 -2.618,1.174c0.535,-0.023 1.046,-0.125 1.546,-0.32c-1.111,-0.404 -2.222,-0.81 -3.332,-1.215c2.829,6.521 5.26,12.318 6.068,19.428c0.249,2.188 3.188,0.779 3.494,-0.708Z" style="fill:#010101;fill-rule:nonzero;"/><path d="M417.016,209.691c1.285,-8.364 -4.959,-14.664 -10.213,-20.262c-2.051,-2.185 -6.39,0.757 -5.977,3.434c0.384,2.489 1.663,3.859 4.251,3.841c0.743,-0.006 1.473,-0.643 1.774,-1.279c0.75,-1.581 0.651,-2.928 0.477,-4.646c-1.802,1.296 -3.604,2.591 -5.406,3.887c5.626,4.112 10.146,9.218 11.924,16.046c0.444,1.703 2.997,0.094 3.17,-1.021Z" style="fill:#010101;fill-rule:nonzero;"/><path d="M414.369,201.299c-1.021,-7.937 9.691,-10.931 15.516,-12.593c6.711,-1.915 14.375,-3.442 21.358,-2.367c0.16,-1.952 0.319,-3.903 0.48,-5.855c-2.146,0.973 -3.952,2.36 -5.163,4.388c-0.455,0.762 -0.071,1.679 0.759,1.894c1.801,0.466 3.83,-0.088 5.59,-0.562c2.536,-0.682 4.964,-5.313 1.336,-6.233c-8.74,-2.217 -20.507,1.333 -28.589,4.439c-6.91,2.655 -18.721,9.219 -14.462,18.295c0.766,1.633 3.365,0.062 3.175,-1.406Z" style="fill:#010101;fill-rule:nonzero;"/><path d="M409.926,202c4.059,7.74 16.824,2.759 22.487,0.125c8.921,-4.147 17.775,-10.936 23.676,-18.856c2.338,-3.138 -0.489,-5.888 -3.768,-4.294c-2.566,1.248 -5.104,3.32 -5.417,6.328c-0.096,0.93 0.394,1.775 1.452,1.655c1.928,-0.218 3.436,-1.169 5.229,-1.89c-0.951,-1.565 -1.903,-3.131 -2.855,-4.696c-4.42,6.011 -10.746,10.736 -17.059,14.587c-3.502,2.135 -7.247,3.838 -11.214,4.887c-3.568,0.943 -6.806,0.204 -10.352,-0.168c-1.021,-0.107 -2.818,1.101 -2.179,2.322Z" style="fill:#010101;fill-rule:nonzero;"/><path d="M357.413,43.178c-0.061,-4.544 2.628,-8.429 4.872,-12.154c-0.632,0.674 -1.265,1.348 -1.896,2.021c-0.324,0.066 -0.648,0.132 -0.973,0.197c-0.626,-0.223 -1.252,-0.445 -1.878,-0.669c-0.949,-1.566 0.063,0.345 0.335,0.64c1.076,1.164 3.06,0.314 3.821,-0.793c0.835,-1.214 1.531,-2.256 1.128,-3.791c-0.244,-0.93 -1.444,-1.411 -2.31,-1.289c-3.708,0.521 -5.209,4.245 -6.393,7.395c-1.301,3.463 -1.363,6.599 -0.621,10.175c0.468,2.25 3.937,-0.099 3.915,-1.732Z" style="fill:#010101;fill-rule:nonzero;"/></g></svg>