<?xml version="1.0" encoding="UTF-8" standalone="no"?><!DOCTYPE svg PUBLIC "-//W3C//DTD SVG 1.1//EN" "http://www.w3.org/Graphics/SVG/1.1/DTD/svg11.dtd"><svg width="100%" height="100%" viewBox="0 0 295 525" version="1.1" xmlns="http://www.w3.org/2000/svg" xmlns:xlink="http://www.w3.org/1999/xlink" xml:space="preserve" style="fill-rule:evenodd;clip-rule:evenodd;stroke-linejoin:round;stroke-miterlimit:1.41421;"><g id="girl"><path d="M129.439,82.418c-15.953,-1.521 -30.767,8.212 -41.846,18.8c-13.736,13.128 -23.691,29.89 -30.875,47.361c-13.348,32.46 -19.909,74.472 2.252,104.558c15.039,20.418 39.703,33.764 63.997,39.508c24.55,5.804 48.137,-0.54 68.126,-15.319c9.193,-6.8 17.936,-15.073 23.868,-24.908c5.176,-8.58 8.33,-18.229 10.304,-28.014c4.362,-21.635 2.638,-44.353 -2.25,-65.728c-3.642,-15.918 -9.834,-30.8 -19.435,-44.036c-11.51,-15.869 -27.783,-33.692 -48.622,-34.825c-3.233,-0.175 -9.076,5.067 -4.61,7.574c20.992,11.783 39.531,27.681 50.505,49.537c9.478,18.875 13.453,40.556 14.054,61.521c0.553,19.278 -2.165,41.136 -14.722,56.585c-14.822,18.236 -37.663,29.7 -61.229,27.711c-25.273,-2.135 -50.623,-15.84 -67.223,-34.773c-11.984,-13.671 -16.245,-30.017 -16.238,-47.93c0.008,-18.912 4.845,-37.931 12.246,-55.241c7.14,-16.696 17.35,-32.833 31.265,-44.687c8.643,-7.36 18.903,-12.239 29.87,-15.074c0.961,-0.247 2.173,-2.466 0.563,-2.62Z" style="fill:#010101;fill-rule:nonzero;"/><path d="M135.971,55.24c-6.349,2.643 -11.55,7.619 -13.142,14.498c-1.342,5.797 2.764,10.904 7.464,13.727c7.245,4.35 15.568,0.579 20.565,-5.267c4.411,-5.159 6.612,-13.403 2.422,-19.283c-5.644,-7.92 -22.009,-4.948 -27.385,1.264c-0.726,0.838 -1.13,2.906 0.234,3.433c6.203,2.394 13.37,-3.143 19.222,1.018c2.525,1.795 1.702,6.082 0.063,9.049c-0.552,0.999 -2.111,2.502 -3.154,3.111c-1.18,0.689 -2.622,1 -4.815,0.488c-2.802,-0.651 -5.261,-3.037 -7.021,-5.167c-3.844,-4.65 2.465,-12.903 5.957,-15.813c0.467,-0.39 0.335,-1.368 -0.41,-1.058Z" style="fill:#010101;fill-rule:nonzero;"/><path d="M152.81,61.061c8.646,-7.815 17.026,-16.062 26.699,-22.626c10.215,-6.932 21.62,-11.603 33.346,-15.316c11.494,-3.643 24.011,-5.414 36.069,-4.696c3.811,0.227 7.619,0.529 11.428,0.78c3.345,0.22 7.105,0.638 9.738,-1.913c1.562,-1.515 2.88,-4.025 1.287,-6.014c-0.774,-0.968 -2.188,-1.152 -3.324,-0.932c-1.782,0.347 -3.676,1.543 -3.994,3.505c0.489,-0.709 0.979,-1.418 1.467,-2.127c1.396,-0.458 2.792,-0.916 4.188,-1.374c-2.026,-0.634 -5.028,0.489 -7.538,0.554c-4.063,0.106 -8.14,-0.272 -12.201,-0.305c-13.226,-0.104 -26.622,2.301 -39.148,6.443c-23.608,7.807 -46.026,21.406 -59.463,42.872c-0.728,1.158 0.45,2.051 1.446,1.149Z" style="fill:#010101;fill-rule:nonzero;"/><path d="M129.509,58.053c-0.533,-5.465 -5.094,-9.871 -8.432,-13.959c-4.458,-5.462 -9.089,-10.722 -14.327,-15.453c-7.18,-6.481 -15.037,-12.057 -23.55,-16.655c-15.209,-8.215 -40.761,-18.482 -56.641,-6.519c-3.345,2.52 -2.021,8.071 2.598,6.677c8.044,-2.428 14.68,-3.053 23.04,-1.357c9.603,1.946 18.716,5.98 27.29,10.625c8.189,4.435 15.744,9.68 22.73,15.833c4.405,3.879 8.438,8.194 12.398,12.52c3.578,3.907 7.147,9.148 12.574,10.323c1.078,0.231 2.427,-0.925 2.32,-2.035Z" style="fill:#010101;fill-rule:nonzero;"/><path d="M29.088,10.923c-12.387,11.953 -18.006,27.555 -20.446,44.394c-0.574,3.964 -0.72,7.954 -1.057,11.938c-0.397,4.702 0.716,5.921 4.583,8.4c6.042,3.876 13.025,6.228 19.904,8.112c16.205,4.442 33.468,5.296 50.189,4.986c14.894,-0.275 29.971,-1.469 43.592,-7.807c1.653,-0.769 2.196,-3.818 -0.209,-3.729c-36.62,1.366 -77.89,9.161 -110.811,-11.8c0.506,0.833 1.013,1.666 1.519,2.499c-1.368,-9.511 -0.019,-19.304 2.166,-28.6c2.152,-9.156 5.953,-19.88 12.356,-26.978c1.17,-1.293 -0.653,-2.507 -1.786,-1.415Z" style="fill:#010101;fill-rule:nonzero;"/><path d="M262.715,15.398c2.869,4.182 5.106,9.479 7.412,14.032c2.543,5.02 4.457,10.405 5.983,15.813c2.907,10.283 4.172,22.07 0.588,32.342c2.078,-1.211 4.155,-2.421 6.232,-3.632c-1.103,-0.191 -2.208,-0.354 -3.318,-0.486c-2.032,-0.273 -5.175,1.765 -4.716,4.139c0.49,2.531 0.833,3.256 2.881,4.815c2.321,1.768 6.42,-1.089 7.231,-3.286c4.228,-11.448 2.995,-24.082 -0.271,-35.616c-1.789,-6.318 -4.464,-12.326 -7.835,-17.951c-1.507,-2.514 -3.151,-4.746 -5.122,-6.913c-2.263,-2.487 -4.494,-3.531 -7.195,-5.265c-1.055,-0.679 -2.553,1.013 -1.87,2.008Z" style="fill:#010101;fill-rule:nonzero;"/><path d="M151.524,76.944c3.075,6.923 13.858,9.546 20.47,11.026c9.896,2.215 20.149,2.74 30.257,2.96c25.795,0.561 51.013,1.539 76.139,-5.559c4.162,-1.177 6.939,-9.274 0.743,-8.872c-4.279,0.277 -8.386,1.77 -10.959,5.338c-0.712,0.986 -0.995,2.484 0.22,3.218c2.634,1.588 5.876,0.732 8.786,0.559c0.248,-2.957 0.495,-5.914 0.743,-8.872c-23.693,6.816 -47.271,6.66 -71.661,7.025c-9.647,0.146 -19.333,0.136 -28.925,-1.008c-4.368,-0.521 -8.717,-1.354 -12.947,-2.557c-4.063,-1.156 -7.835,-3.258 -11.872,-4.317c-0.505,-0.13 -1.222,0.544 -0.994,1.059Z" style="fill:#010101;fill-rule:nonzero;"/><path d="M128.359,82.585c-9.841,6.064 -17.383,14.496 -22.313,24.987c-2.512,5.345 -3.865,11.084 -4.269,16.954c-0.331,4.833 0.014,11.772 4.104,14.971c1.142,0.893 3.179,-0.76 3.302,-1.919c0.477,-4.486 -1.243,-9.023 -1.33,-13.574c-0.101,-5.285 1.342,-10.62 3.301,-15.479c3.732,-9.253 10.54,-17.815 18.457,-23.854c1.355,-1.029 0.322,-3.055 -1.252,-2.086Z" style="fill:#010101;fill-rule:nonzero;"/><path d="M139.053,86.627c-4.354,0.081 -8.396,4.66 -10.412,8.137c-2.663,4.588 -3.594,9.666 -3.688,14.922c-0.159,8.932 3.923,23.406 14.009,25.814c0.969,0.23 2.555,-1.099 2.009,-2.142c-1.665,-3.182 -3.761,-6.063 -5.356,-9.318c-2.03,-4.143 -3.217,-8.576 -3.809,-13.135c-0.531,-4.096 -0.173,-8.182 1.023,-12.125c1.329,-4.384 4.5,-6.444 7.146,-9.839c0.755,-0.965 0.438,-2.339 -0.922,-2.314Z" style="fill:#010101;fill-rule:nonzero;"/><path d="M148.578,87.757c-4.931,7.027 -6.878,16.092 -5.104,24.506c1.769,8.393 7.159,19.28 15.855,22.127c1.548,0.507 3.681,-1.71 3.025,-3.225c-1.372,-3.178 -3.817,-5.628 -5.937,-8.329c-2.671,-3.404 -4.682,-7.132 -6.143,-11.194c-2.848,-7.913 -1.652,-15.596 0.426,-23.485c0.375,-1.411 -1.57,-1.187 -2.122,-0.4Z" style="fill:#010101;fill-rule:nonzero;"/><path d="M118.986,163.384c-3.637,5.271 -8.144,15.978 -4.813,22.255c1.661,3.13 5.919,3.034 8.557,1.24c3.584,-2.438 5.045,-6.688 5.745,-10.789c0.896,-5.237 0.283,-20.17 -8.965,-15.401c-8.14,4.197 -8.749,17.628 -3.284,24.28c1.949,2.372 5.288,0.207 6.794,-1.412c4.591,-4.935 5.905,-12.475 2.774,-18.514c-1.726,-3.324 -5.584,-1.496 -7.477,0.604c-4.177,4.641 -9.037,21.168 0.409,22.972c1.329,0.254 2.701,-0.74 3.25,-1.895c2.757,-5.793 -1.806,-12.199 2.924,-17.519c-2.492,0.201 -4.982,0.403 -7.475,0.604c1.883,3.561 1.849,7.153 -0.825,10.276c2.265,-0.472 4.529,-0.941 6.794,-1.412c-1.275,-1.388 -1.86,-3.446 -2.223,-5.26c-0.249,-1.244 -0.306,-2.51 -0.302,-3.773c0.008,-1.771 1.538,-2.53 -0.502,-2.121c-0.777,0.156 -0.583,-0.346 -0.158,0.494c0.365,0.728 0.558,1.553 0.691,2.349c0.4,2.354 0.289,4.797 -0.081,7.142c-0.145,0.917 -0.353,1.858 -0.674,2.731c-0.256,0.698 -1.271,1.686 -0.133,0.894c0.588,-0.41 0.635,0.099 0.415,-0.288c-0.568,-1.001 -0.609,-2.248 -0.69,-3.361c-0.305,-4.218 0.095,-9.631 1.147,-13.738c0.325,-1.259 -1.404,-1.073 -1.898,-0.358Z" style="fill:#010101;fill-rule:nonzero;"/><path d="M140.56,163.273c-6.107,5.635 -4.984,19.889 1.076,25.103c1.938,1.666 5.037,0.771 6.379,-1.325c2.576,-4.026 3.776,-9.051 4.641,-13.699c0.814,-4.375 1.688,-11.547 -3.174,-13.976c-6.01,-3.005 -11.723,3.504 -12.595,8.857c-0.804,4.938 0.265,11.736 2.856,16.074c2.085,3.49 7.104,1.586 8.45,-1.721c1.629,-4.007 3.203,-7.757 2.321,-12.14c-1.052,-5.23 -6.925,-2.448 -8.747,0.708c-2.236,3.875 -3.064,7.945 -1.034,12.074c1.071,2.18 4.022,0.698 4.784,-0.975c1.451,-3.187 2.697,-6.564 4.516,-9.559c-2.846,0.58 -5.688,1.159 -8.533,1.738c0.494,2.353 -0.645,4.497 -1.489,6.625c2.641,-0.866 5.281,-1.731 7.922,-2.598c-0.946,-1.549 -1.912,-5.342 -2.289,-7.733c-0.246,-1.558 -0.33,-3.132 -0.002,-4.677c-0.098,0.455 -1.586,0.399 -1.094,1.646c1.743,4.417 -0.871,13.074 -3.142,17.054c2.085,-0.948 4.171,-1.896 6.256,-2.844c-5.242,-3.944 -3.878,-12.371 -3.778,-17.983c0.033,-1.856 -2.426,-1.478 -3.324,-0.649Z" style="fill:#010101;fill-rule:nonzero;"/><path d="M82.23,210.45c0.264,-1.393 -0.605,-2.064 -1.887,-2.118c-0.638,-0.027 -1.216,0.273 -1.778,0.528c-0.079,0.04 -0.158,0.079 -0.237,0.119c0.424,-0.165 0.257,-0.087 -0.501,0.233c-0.222,0.143 -0.441,0.289 -0.664,0.431c0.718,-0.146 1.435,-0.292 2.152,-0.438c-1.372,-0.381 -2.572,0.323 -3.629,1.11c-1.919,1.431 -2.187,5.88 1.146,5.326c1.477,-0.245 2.901,-0.615 4.346,-1.006c1.094,-0.296 2.488,-0.909 3.578,-0.882c0.219,-2.622 0.438,-5.244 0.659,-7.866c-0.94,0.284 -1.863,0.555 -2.817,0.792c-0.854,0.212 -1.67,0.428 -2.455,0.853c-0.519,0.257 -0.999,0.574 -1.441,0.952c-0.807,1.013 -1.046,1.238 -0.716,0.68c-1.748,1.477 -2.444,4.76 0.347,5.472c2.44,0.624 6.101,0.012 8.57,-1.573c1.774,-1.138 3.598,-3.373 2.729,-5.636c-0.79,-2.063 -3.68,-2.208 -5.292,-1.064c-0.964,0.684 -2.389,1.06 -3.529,1.512c-1.46,0.578 -2.908,1.15 -4.311,1.859c1.183,1.348 2.364,2.694 3.547,4.042c0.791,-1.054 1.083,-2.136 0.715,-3.407c-0.194,0.904 -0.388,1.81 -0.582,2.715c0.215,-0.287 0.454,-0.549 0.642,-0.854c0.225,-0.264 0.23,-0.279 0.021,-0.045c1.841,-1.884 -1.332,1.223 -2.336,-0.063c1.135,1.45 3.475,-0.362 3.723,-1.672Z" style="fill:#010101;fill-rule:nonzero;"/><path d="M180.875,205.332c0.207,0.946 0.715,1.732 1.188,2.571c0.558,0.983 1.138,2.076 1.886,2.939c1.147,1.324 3.195,1.016 4.551,0.243c1.67,-0.953 2.67,-2.547 2.768,-4.448c0.045,-0.869 -0.133,-1.659 -0.695,-2.349c-0.611,-0.75 -1.684,-0.983 -2.603,-0.909c-0.732,0.071 -1.417,0.291 -2.054,0.661c-0.341,0.154 -0.115,0.059 0.674,-0.292c-2.457,0.668 -5.379,4.398 -3.265,6.808c2.063,2.35 6.284,0.063 7.175,-2.353c0.019,-0.051 0.036,-0.102 0.056,-0.151c-0.47,0.614 -0.938,1.228 -1.406,1.842c-0.261,0.186 -0.521,0.37 -0.782,0.555c-0.686,0.222 -1.369,0.441 -2.055,0.661c0.021,-0.001 0.042,-0.002 0.063,-0.003c-0.848,-0.302 -1.693,-0.604 -2.541,-0.906c-0.737,-0.705 -0.589,-2.038 -0.526,-1.011c2.438,-1.401 4.878,-2.803 7.317,-4.205c-1.502,-1.352 -3.033,-3.03 -4.813,-3.985c-1.214,-0.651 -2.738,-0.07 -3.694,0.769c-1.081,0.946 -1.545,2.173 -1.244,3.563Z" style="fill:#010101;fill-rule:nonzero;"/><path d="M81.58,211.943c0.339,8.312 10.659,14.354 17.401,17.021c9.586,3.792 20.131,4.221 30.295,3.484c11.06,-0.8 22.054,-3.34 32.519,-6.943c8.557,-2.946 17.816,-6.708 24.874,-12.521c3.432,-2.826 0.949,-7.652 -3.239,-5.4c-2.285,1.229 -4.468,2.751 -6.623,4.199c-1.274,0.856 -2.144,3.401 0.188,3.373c2.59,-0.03 5.349,-0.159 7.78,-1.083c-0.449,-2.162 -0.897,-4.326 -1.347,-6.489c-15.127,9.918 -32.445,15.73 -50.396,17.938c-9.563,1.176 -19.484,1.102 -28.843,-1.363c-4.192,-1.104 -8.127,-3.009 -11.651,-5.519c-3.297,-2.346 -5.411,-6.1 -8.723,-8.304c-0.95,-0.632 -2.273,0.676 -2.235,1.607Z" style="fill:#010101;fill-rule:nonzero;"/><path d="M54.441,163.292c-4.601,0.618 -8.594,-1.663 -12.895,-2.892c-4.986,-1.424 -9.604,0.016 -13.666,2.994c-9.109,6.683 -11.452,17.808 -5.648,27.453c5.475,9.098 15.612,9.174 24.78,7.069c3.266,-0.75 7.293,-1.884 8.911,-5.115c1.693,-3.385 -1.857,-4.613 -4.414,-3.237c-1.259,0.678 -2.68,2.816 -1.443,4.146c0.4,0.479 0.336,0.225 -0.19,-0.768c0.482,-1.007 0.966,-2.014 1.448,-3.021c2.327,-0.937 2.68,-1.2 1.059,-0.791c-0.315,0.093 -0.626,0.198 -0.934,0.314c-0.97,0.348 -1.958,0.663 -2.94,0.969c-2.737,0.848 -5.563,1.264 -8.417,1.419c-7.128,0.388 -12.625,-5.898 -13.648,-12.573c-0.546,-3.556 0.685,-7.053 3.17,-9.607c3.38,-3.47 6.693,-3.27 10.981,-2.06c5.174,1.461 11.077,3.037 14.661,-2.257c0.525,-0.776 0.483,-2.217 -0.815,-2.043Z" style="fill:#010101;fill-rule:nonzero;"/><path d="M222.344,163.019c2.609,-1.912 4.091,-3.793 7.383,-4.726c3.323,-0.941 7.06,-0.549 10.343,0.303c7.015,1.82 11.443,9.925 10.82,16.826c-0.597,6.616 -4.89,12.248 -9.962,16.208c-2.374,1.854 -5.396,3.157 -8.354,3.664c-3.253,0.558 -6.261,-0.878 -9.448,-0.039c-1.634,0.43 -3.521,2.637 -2.748,4.414c1.754,4.021 7.983,3.474 11.586,2.831c4.88,-0.871 9.15,-3.254 13.091,-6.17c7.845,-5.809 13.39,-15.608 13.118,-25.456c-0.278,-10.184 -8.682,-18.005 -18.396,-19.169c-4.847,-0.581 -9.66,0.469 -13.96,2.708c-2.834,1.476 -6.669,4.969 -5.854,8.479c0.266,1.15 1.819,0.538 2.381,0.127Z" style="fill:#010101;fill-rule:nonzero;"/><path d="M232.24,173.87c0.689,1.365 1.117,2.947 1.241,4.478c0.092,1.143 -0.693,1.368 -1.487,2.215c-0.771,0.826 -1.467,1.719 -1.402,2.925c0.067,1.283 1.209,2.131 2.46,1.984c3.675,-0.428 6.771,-3.713 6.861,-7.456c0.081,-3.324 -1.865,-5.321 -4.569,-6.87c-1.381,-0.79 -3.875,1.197 -3.104,2.724Z" style="fill:#010101;fill-rule:nonzero;"/><path d="M38.366,176.583c-1.492,1.902 -3.208,3.896 -3.526,6.391c-0.127,0.994 0.031,1.992 1.002,2.518c2.491,1.349 6.256,1.672 8.114,-0.918c0.754,-1.051 0.887,-2.774 -0.435,-3.49c-1.047,-0.567 -2.375,-0.701 -3.485,-1.129c0.355,0.585 0.712,1.17 1.066,1.755c-0.08,-1.568 0.056,-2.999 0.426,-4.529c0.525,-2.164 -2.302,-1.695 -3.162,-0.598Z" style="fill:#010101;fill-rule:nonzero;"/><path d="M46.219,196.983c-4.702,7.854 -26.903,53.665 -38.937,32.31c-0.251,1.172 -0.502,2.343 -0.753,3.515c0.169,-0.188 0.339,-0.378 0.509,-0.568c-1.509,0.686 -3.017,1.371 -4.524,2.057c-1.785,-0.599 0.472,0.634 0.688,0.762c1.021,0.599 2.498,0.313 3.448,-0.279c0.211,-0.131 0.422,-0.262 0.633,-0.394c0.995,-0.619 2.039,-1.778 1.902,-3.056c-0.162,-1.511 -0.979,-3.31 -2.478,-3.926c-1.859,-0.765 -4.244,0.053 -5.338,1.773c-0.133,0.209 -0.266,0.418 -0.397,0.627c-0.813,1.279 -1.424,2.892 -0.326,4.226c3.947,4.792 8.551,8.155 15.041,6.821c6.229,-1.281 11.188,-5.891 15.359,-10.412c5.022,-5.445 8.967,-11.908 12.274,-18.504c2.114,-4.215 5.203,-10.165 4.416,-15.074c-0.149,-0.936 -1.21,-0.391 -1.517,0.122Z" style="fill:#010101;fill-rule:nonzero;"/><path d="M49.365,217.005c-2.421,11.265 -18.453,62.5 -36.114,43.879c-1.004,2.095 -2.01,4.188 -3.014,6.283c-0.382,0.08 1.709,0.466 2.061,0.431c0.983,-0.099 2.039,-0.799 2.414,-1.739c0.781,-1.968 0.798,-3.43 -0.403,-5.202c-0.742,-1.094 -2.327,-0.896 -3.393,-0.663c-0.352,0.074 -0.703,0.15 -1.055,0.228c-2.229,0.482 -5.023,4.193 -3.013,6.283c11.835,12.301 25.281,1.771 32.699,-9.629c4.559,-7.007 7.93,-14.87 10.36,-22.852c1.666,-5.47 3.746,-12.116 1.767,-17.762c-0.433,-1.233 -2.132,-0.073 -2.309,0.743Z" style="fill:#010101;fill-rule:nonzero;"/><path d="M221.915,206.55c-1.197,14.888 9.391,25.384 23.494,28.436c14.428,3.121 29.491,-3.174 36.126,-16.545c1.541,-3.105 -1.821,-5.443 -4.53,-3.638c-2.352,1.569 -3.973,3.136 -4.771,5.895c-0.457,1.578 1.152,2.342 2.441,1.971c1.619,-0.467 3.105,-1.135 4.632,-1.851c-1.511,-1.213 -3.021,-2.425 -4.53,-3.638c-10.39,21.535 -48.783,11.449 -50.141,-11.501c-0.111,-1.845 -2.618,-0.413 -2.721,0.871Z" style="fill:#010101;fill-rule:nonzero;"/><path d="M220.158,226.915c-5.223,16.019 14.685,24.748 26.97,27.913c13.203,3.401 34.99,5.902 45.72,-4.939c1.737,-1.758 2.828,-5.158 -0.381,-6.025c-4.015,-1.085 -7.681,-0.951 -11.431,0.86c-1.419,0.685 -2.363,2.896 -0.845,3.941c2.595,1.786 5.879,1.688 8.845,2.474c-0.127,-2.009 -0.254,-4.017 -0.381,-6.025c-3.691,3.763 -9.813,4.41 -14.794,4.827c-7.548,0.63 -15.162,-0.121 -22.555,-1.683c-11.023,-2.328 -28.093,-8.131 -28.486,-21.881c-0.05,-1.783 -2.348,-0.422 -2.662,0.538Z" style="fill:#010101;fill-rule:nonzero;"/><path d="M215.318,247.635c-7.226,21.179 32.282,26.927 45.929,23.979c3.467,-0.749 5.297,-7.781 0.59,-7.034c-2.147,0.341 -4.047,0.593 -5.681,2.126c-0.679,0.637 -1.434,1.809 -0.971,2.786c0.839,1.771 2.364,1.952 4.192,2.273c0.818,-2.396 1.639,-4.791 2.457,-7.187c-8.56,0.533 -16.838,0.13 -25.234,-1.83c-7.001,-1.635 -19.766,-5.85 -17.967,-15.384c0.462,-2.44 -2.784,-1.284 -3.315,0.271Z" style="fill:#010101;fill-rule:nonzero;"/><path d="M158.041,66.919c10.725,-4.851 20.229,-10.825 32.029,-13.153c5.419,-1.069 11.427,-1.504 16.726,0.354c2.486,0.873 7.242,2.135 8.259,4.979c-0.204,-0.573 0.171,-0.495 -0.62,0.161c-1.026,0.851 -2.465,1.386 -3.688,1.879c-3.614,1.458 -7.475,2.374 -11.271,3.206c-7.141,1.564 -14.469,1.572 -21.616,2.837c-1.745,0.309 -3.962,2.69 -1.97,4.162c3.4,2.513 7.665,2.051 11.695,1.718c5.381,-0.444 10.767,-1.554 15.982,-2.913c5.78,-1.505 18.881,-5.431 18.059,-13.529c-0.407,-4.027 -5.24,-5.96 -8.438,-7.226c-6.274,-2.481 -12.551,-2.816 -19.198,-1.896c-7.474,1.036 -14.68,3.588 -21.519,6.694c-5.565,2.528 -12.239,5.935 -15.96,10.981c-0.961,1.304 0.198,2.347 1.53,1.746Z" style="fill:#010101;fill-rule:nonzero;"/><path d="M119.023,61.728c-6.658,-2.697 -12.847,-5.852 -19.072,-9.439c-5.436,-3.134 -10.957,-5.953 -17.299,-6.309c-7.64,-0.427 -19.62,0.094 -22.83,8.682c-3.802,10.171 7.666,14.838 15.438,15.998c8.969,1.338 21.98,1.863 29.951,-3.078c1.291,-0.801 2.62,-3.481 0.326,-3.985c-6.623,-1.455 -14.114,0.436 -20.912,0.359c-4.099,-0.046 -8.24,-0.523 -12.183,-1.661c-2.634,-0.76 -7.229,-3.606 -5.967,-7.091c0.739,-2.039 5.867,-2.252 7.562,-2.433c3.501,-0.371 7.235,-0.406 10.659,0.458c11.213,2.828 20.817,12.894 33,11.301c0.951,-0.124 2.93,-2.152 1.327,-2.802Z" style="fill:#010101;fill-rule:nonzero;"/><path d="M88.528,287.303c-7.915,5.918 -12.759,17.643 -16.604,26.415c-4.657,10.63 -8.119,21.766 -10.996,32.995c-5.566,21.729 -8.26,44.438 -8.475,66.854c3.754,-1.203 7.507,-2.405 11.26,-3.608c-0.003,-2.989 -0.419,-5.418 -3.078,-7.09c-1.864,-1.175 -4.268,0.422 -5.439,1.807c-2.251,2.661 -2.737,5.49 -2.742,8.893c-0.008,7.161 11.282,2.235 11.26,-3.609c-0.083,-21.06 2.495,-41.979 6.903,-62.554c2.342,-10.925 5.437,-21.725 9.366,-32.185c1.835,-4.885 3.911,-9.694 6.181,-14.394c1.901,-3.938 4.518,-8.134 5.538,-12.395c0.52,-2.167 -2.044,-1.974 -3.174,-1.129Z" style="fill:#010101;fill-rule:nonzero;"/><path d="M195.119,281.008c2.876,10.218 7.729,19.751 12.128,29.369c4.857,10.623 9.574,21.307 13.709,32.234c4.107,10.862 7.604,21.984 10.096,33.331c1.24,5.649 2.015,11.417 2.57,17.17c0.5,5.158 -0.381,10.972 1.174,15.903c1.978,-2.564 3.953,-5.13 5.931,-7.694c-0.659,0.011 -1.313,0.08 -1.962,0.212c-1.739,0.237 -3.534,1.562 -3.854,3.383c-0.175,0.991 -0.277,1.955 -0.35,2.959c-0.154,2.184 2.197,3.426 4.062,3.274c3.013,-0.244 5.188,-2.594 6.062,-5.319c1.604,-5.009 0.598,-11.139 0.129,-16.305c-0.494,-5.456 -1.5,-10.833 -2.617,-16.189c-2.472,-11.854 -6.419,-23.368 -11.013,-34.551c-4.421,-10.763 -9.497,-21.276 -14.93,-31.562c-5.224,-9.889 -10.465,-20.061 -17.524,-28.791c-1.392,-1.713 -4.084,0.891 -3.611,2.576Z" style="fill:#010101;fill-rule:nonzero;"/><path d="M52.213,415.538c-0.169,11.459 19.369,15.605 27.697,17.324c14.013,2.893 28.61,3.288 42.878,3.264c18.506,-0.032 36.635,-1.268 54.798,-5.024c21.49,-4.445 42.317,-11.365 63.153,-18.156c4.843,-1.577 8.352,-10.747 0.884,-10.546c-4.707,0.127 -9.582,0.784 -13.563,3.473c-2.37,1.601 -5.181,6.754 -0.633,7.726c3.876,0.829 7.957,-0.253 11.873,-0.361c0.295,-3.516 0.589,-7.03 0.883,-10.546c-19.169,6.26 -38.323,12.63 -58.009,17.098c-17.922,4.065 -35.976,5.468 -54.308,5.569c-12.923,0.072 -25.813,0.026 -38.683,-1.313c-6.491,-0.677 -12.968,-1.841 -19.208,-3.771c-5.271,-1.632 -9.491,-5.265 -14.565,-7.034c-1.513,-0.532 -3.174,0.685 -3.197,2.297Z" style="fill:#010101;fill-rule:nonzero;"/><path d="M91.007,429.4c-10.809,26.011 4.085,53.185 6.95,79.354c1.831,-1.606 3.661,-3.213 5.492,-4.819c-10.031,-2.724 -28.565,1.933 -19.738,15.364c4.278,6.512 12.814,6.165 19.598,4.973c3.842,-0.676 7.598,-1.76 11.322,-2.904c2.497,-0.77 6.665,-1.311 8.146,-3.717c1.671,-2.716 0.617,-5.986 -3.045,-5.009c-1.758,0.47 -3.022,1.111 -4.46,2.21c-0.917,0.701 -1.855,2.693 -0.788,3.677c1.452,1.337 2.692,1.479 4.651,1.237c-0.691,-1.734 -1.382,-3.47 -2.073,-5.204c-0.012,0.017 -0.022,0.031 -0.034,0.047c0.892,-0.64 1.781,-1.28 2.672,-1.921c-7.932,2.406 -16.992,6.376 -25.369,4.357c-2.267,-0.547 -3.854,-2.674 -4.896,-4.604c-0.224,-0.413 -0.281,-1.968 -0.725,-1.271c-0.299,0.469 0.747,-0.183 1.008,-0.268c3.189,-1.045 7.147,-0.557 10.336,0.238c2.481,0.619 5.828,-2.247 5.493,-4.819c-1.643,-12.575 -5.475,-24.606 -8.765,-36.813c-3.565,-13.229 -4.898,-26.565 -4.198,-40.238c0.047,-0.956 -1.356,-0.4 -1.577,0.13Z" style="fill:#010101;fill-rule:nonzero;"/><path d="M108.037,432.153c-4.21,6.596 -3.996,14.779 -3.398,22.34c0.696,8.795 2.089,17.652 3.166,26.418c0.473,3.84 1.117,7.648 1.972,11.424c0.602,2.649 2.545,4.983 4.064,7.188c1.827,2.649 3.698,5.268 5.168,8.139c0.461,0.902 0.898,1.896 1.035,2.906c1.764,-1.611 1.935,-2.086 0.514,-1.427c-0.954,0.33 -1.669,0.911 -2.418,1.562c-1.13,0.981 -1.834,2.688 -0.858,4.006c3.897,5.263 10.986,-2.745 10.367,-7.278c-0.84,-6.155 -6.27,-11.714 -9.542,-16.731c-2.426,-3.721 -2.541,-9.479 -3.174,-13.774c-0.719,-4.873 -1.124,-9.816 -2.189,-14.632c-2.212,-9.988 -2.661,-19.893 -3.038,-30.057c-0.038,-0.942 -1.324,-0.626 -1.669,-0.084Z" style="fill:#010101;fill-rule:nonzero;"/><path d="M188.625,422.63c-1.806,6.544 -1.479,13.508 -1.457,20.243c0.021,7.099 0.303,14.205 0.754,21.289c0.908,14.285 2.635,28.489 4.992,42.605c1.853,-1.624 3.702,-3.249 5.555,-4.873c-12.329,-3.258 -26.441,5.029 -24.563,18.876c0.181,1.334 0.851,2.042 2.123,2.42c12.369,3.664 24.603,-1.848 36.996,0.008c-0.389,-1.741 -0.776,-3.481 -1.166,-5.223c0.789,-0.981 -0.992,0.119 -1.345,0.272c-1.204,0.524 -1.924,1.232 -2.793,2.192c-0.792,0.872 -1.088,2.881 0.236,3.464c4.02,1.771 6.896,0.479 9.685,-2.805c1.358,-1.6 1.415,-4.837 -1.166,-5.223c-12.381,-1.849 -24.786,3.621 -37.004,0.008c0.707,0.807 1.415,1.613 2.123,2.42c-1.167,-8.57 6.254,-10.988 13.438,-9.124c2.41,0.625 6.032,-2.291 5.554,-4.873c-2.598,-14.011 -4.551,-28.129 -5.911,-42.313c-0.671,-6.988 -1.232,-13.988 -1.666,-20.996c-0.393,-6.313 -0.163,-13.03 -2.162,-19.086c-0.409,-1.227 -2.021,-0.011 -2.223,0.719Z" style="fill:#010101;fill-rule:nonzero;"/><path d="M209.614,419.327c-7.462,17.356 -5.183,38.639 -1.398,56.756c2.285,10.939 5.246,21.504 6.836,32.584c0.393,2.74 1.238,5.396 1.757,8.109c0.09,0.5 0.157,1.002 0.2,1.508c0.25,2.301 4.259,-1.445 2.347,-1.773c-2.287,-0.395 -4.208,-0.926 -6.567,-1.167c-1.893,-0.193 -4.308,2.009 -2.975,3.896c2.227,3.151 4.497,4.691 8.438,4.773c2.817,0.059 5.815,-2.736 6.279,-5.441c0.5,-2.916 -0.305,-5.76 -0.984,-8.583c-1.166,-4.837 -1.437,-9.795 -2.452,-14.668c-5.097,-24.424 -14.072,-50.576 -9.099,-75.883c0.319,-1.63 -1.925,-1.174 -2.382,-0.111Z" style="fill:#010101;fill-rule:nonzero;"/><path d="M92.792,280.166c-8.725,-5.546 -23.113,1.434 -30.551,6.391c-10.176,6.783 -18.393,16.956 -23.426,28.063c-0.817,1.806 -0.949,4.791 1.282,5.741c3.908,1.667 7.888,3.146 11.892,4.564c3.602,1.274 7.797,3.363 11.636,3.587c2.445,0.142 5.107,-0.763 6.503,-2.954c4.001,-6.288 -3.625,-8.091 -7.902,-9.457c-5.007,-1.601 -9.965,-3.372 -14.821,-5.385c0.428,1.914 0.854,3.828 1.282,5.742c3.71,-8.916 8.792,-16.429 16.337,-22.546c3.716,-3.014 8.142,-5.313 12.615,-6.95c4.621,-1.691 9.64,-2.142 14.19,-3.995c0.971,-0.396 2.276,-1.967 0.963,-2.801Z" style="fill:#010101;fill-rule:nonzero;"/><path d="M192.374,274.358c4.021,1.675 8.157,2.622 12.033,4.693c4.604,2.461 8.674,5.659 12.408,9.291c7.263,7.063 13.287,16.289 15.645,26.213c1.673,-2.688 3.346,-5.376 5.019,-8.063c-5.043,2.044 -9.82,4.627 -14.771,6.87c-3.269,1.48 -4.912,5.637 -2.998,8.607c1.389,2.152 4.666,1.145 6.42,0.343c4.004,-1.829 7.861,-3.969 11.896,-5.728c3.207,-1.398 6.043,-4.295 5.02,-8.063c-3.031,-11.147 -10.578,-20.795 -19.24,-28.204c-7.68,-6.567 -19.773,-13.644 -30.154,-9.67c-1.069,0.41 -3.243,2.894 -1.278,3.711Z" style="fill:#010101;fill-rule:nonzero;"/><path d="M51.212,319.13c-8.667,4.729 -15.109,13.058 -20.502,21.126c-6.224,9.309 -9.734,19.104 -13.839,29.373c2.001,-1.442 4.002,-2.885 6.002,-4.327c-1.754,0.039 -3.498,0.526 -5.203,0.914c-0.795,0.188 -1.59,0.378 -2.386,0.566c-2.138,0.509 -1.888,-0.206 0.079,1.407c-0.545,2.541 -1.089,5.083 -1.634,7.625c0.5,-0.404 1.006,-0.799 1.52,-1.188c4.244,-3.222 2.313,-9.172 -3.114,-8.004c-1.757,0.378 -3.144,1.015 -4.544,2.194c-2.671,2.251 -3.602,6.106 -0.65,8.408c3.321,2.59 10.115,-0.975 13.688,-1.451c3.396,-0.453 6.672,-3.359 6.571,-6.983c-0.229,-8.332 5.554,-17.839 9.563,-24.803c4.672,-8.114 10.716,-15.271 16.315,-22.732c1.13,-1.502 -0.243,-3.01 -1.866,-2.125Z" style="fill:#010101;fill-rule:nonzero;"/><path d="M17.118,377.234c-1.833,3.315 -3.334,6.791 -4.644,10.343c-0.822,2.232 -4.328,8.596 0.42,9.204c2.228,0.286 4.609,-1.354 5.424,-3.42c0.738,-1.87 0.404,-3.189 0.515,-5.003c0.22,-3.624 0.898,-7.428 1.707,-10.964c0.555,-2.44 -2.686,-1.492 -3.422,-0.16Z" style="fill:#010101;fill-rule:nonzero;"/><path d="M25.801,381.176c-1.663,3.215 -2.689,6.214 -2.966,9.845c-0.269,3.521 0.265,8.185 4.216,9.125c2.881,0.687 5.285,-2.294 5.498,-4.823c0.189,-2.276 -1.662,-4.449 -2.48,-6.564c-0.836,-2.164 -0.692,-5.18 -0.184,-7.391c0.66,-2.875 -3.228,-1.848 -4.084,-0.192Z" style="fill:#010101;fill-rule:nonzero;"/><path d="M236.269,323.84c7.878,11.263 14.302,23.275 23.188,33.865c7.535,8.979 17.817,18.852 30.525,16.1c-1.388,-0.272 -2.775,-0.544 -4.162,-0.816c0.085,0.142 0.17,0.28 0.255,0.421c1.228,-2.56 2.453,-5.116 3.682,-7.676c-2.114,0.813 -3.597,1.98 -5.018,3.72c-0.81,0.99 -1.03,2.704 0.234,3.433c1.06,0.607 1.675,1.255 2.923,1.522c3.256,0.699 8.172,-3.485 6.538,-6.968c-0.07,-0.149 -0.142,-0.301 -0.211,-0.45c-0.636,-1.354 -1.982,-2.164 -3.507,-1.956c-10.967,1.495 -20.438,-8.826 -27.148,-16.128c-8.313,-9.045 -15.56,-19.042 -24.335,-27.668c-1.417,-1.394 -4.085,0.999 -2.964,2.601Z" style="fill:#010101;fill-rule:nonzero;"/><path d="M267.984,378.023c-1.182,3.138 -1.884,7.109 -0.784,10.363c0.502,1.485 1.555,2.469 2.75,3.392c2.223,1.715 5.357,0.417 7.199,-1.104c1.188,-0.981 1.814,-2.526 1.402,-4.022c-0.36,-1.305 -1.231,-1.929 -2.383,-2.479c-1.076,-0.516 -0.817,-0.132 -1.526,-1.101c0.356,0.486 -0.247,-0.582 -0.241,-0.566c-0.177,-0.398 -0.325,-0.851 -0.389,-1.277c-0.184,-1.224 -0.077,-2.454 -0.172,-3.681c-0.264,-3.432 -5.018,-1.752 -5.856,0.475Z" style="fill:#010101;fill-rule:nonzero;"/><path d="M279.887,379.602c0.313,0.666 0.438,1.52 0.678,2.23c0.35,1.043 0.766,2.056 1.229,3.057c0.916,1.98 1.426,4.191 3.375,5.419c2.257,1.422 5.67,-1.222 6.015,-3.494c0.416,-2.756 -1,-4.706 -2.825,-6.61c-0.783,-0.817 -1.713,-1.637 -2.709,-2.18c-0.861,-0.47 -1.747,-0.764 -2.602,-1.193c-1.44,-0.729 -3.923,1.155 -3.161,2.771Z" style="fill:#010101;fill-rule:nonzero;"/><path d="M108.354,285.087c-7.38,6.323 -3.125,18.977 2.279,24.921c6.765,7.44 17.312,11.07 27.066,12.104c10.185,1.078 20.776,-0.804 28.981,-7.192c9.3,-7.242 10.503,-19.163 7.744,-29.868c-0.31,-1.199 -1.796,-1.707 -2.882,-1.608c-3.259,0.3 -5.942,1.329 -8.446,3.426c-1.866,1.562 -1.896,4.782 1.031,4.787c2.005,0.005 3.836,-0.623 5.829,-0.807c-0.961,-0.536 -1.923,-1.072 -2.883,-1.608c1.942,7.513 1.788,16.512 -5.217,21.358c-6.542,4.527 -15.391,5.085 -23.048,4.168c-8.124,-0.973 -16.569,-3.975 -22.618,-9.638c-2.591,-2.426 -4.603,-5.498 -5.7,-8.874c-1.157,-3.563 0.252,-7.747 -1.051,-11.109c-0.18,-0.476 -0.793,-0.31 -1.085,-0.06Z" style="fill:#010101;fill-rule:nonzero;"/><path d="M55.696,332.521c-8.196,3.057 -13.55,10.401 -17.86,17.693c-2.678,4.526 -4.641,9.498 -6.421,14.432c-1.272,3.525 -3.368,8.062 -2.277,11.813c0.411,1.412 2.326,0.451 2.884,-0.233c2.007,-2.46 2.776,-5.691 3.737,-8.672c1.388,-4.304 2.968,-8.509 4.85,-12.621c3.746,-8.188 9,-14.804 15.754,-20.696c0.746,-0.652 0.565,-2.175 -0.667,-1.716Z" style="fill:#010101;fill-rule:nonzero;"/><path d="M234.973,333.982c2.636,7.126 7.376,13.262 11.974,19.226c4.993,6.478 8.829,13.757 13.843,20.177c0.685,0.877 2.209,-0.337 2.11,-1.213c-0.86,-7.754 -5.735,-13.895 -10.592,-19.688c-5.423,-6.469 -11.049,-12.594 -15.873,-19.546c-0.489,-0.704 -1.715,0.362 -1.462,1.044Z" style="fill:#010101;fill-rule:nonzero;"/><path d="M128.852,202.408c2.034,-0.544 4.296,-0.67 5.94,-2.125c0.669,-0.592 1.194,-1.466 1.146,-2.389c-0.057,-1.066 -0.986,-1.715 -2.009,-1.621c-0.727,0.066 -1.314,0.271 -1.965,0.592c-0.187,0.095 -0.373,0.186 -0.563,0.271c0.43,-0.202 -0.427,0.178 -0.405,0.169c-1.245,0.525 -2.277,1.158 -3.369,1.951c-1.647,1.199 -0.922,3.727 1.225,3.152Z" style="fill:#010101;fill-rule:nonzero;"/></g></svg>