<?xml version="1.0" encoding="utf-8"?>
<!-- Generator: Adobe Illustrator 17.0.0, SVG Export Plug-In . SVG Version: 6.00 Build 0)  -->
<!DOCTYPE svg PUBLIC "-//W3C//DTD SVG 1.0//EN" "http://www.w3.org/TR/2001/REC-SVG-20010904/DTD/svg10.dtd">
<svg version="1.0" id="Layer_1" xmlns="http://www.w3.org/2000/svg" xmlns:xlink="http://www.w3.org/1999/xlink" x="0px" y="0px"
	 width="566.93px" height="566.93px" viewBox="0 0 566.93 566.93" enable-background="new 0 0 566.93 566.93" xml:space="preserve">
<path fill="#010101" d="M83.642,170.056c-3.795-5.026-6.422-11.074-8.555-16.962c-1.766-4.874-1.893-11.61-4.97-15.798
	c-0.488-0.664-1.516,0.074-1.762,0.579c-0.332,0.68-0.586,1.39-0.789,2.118c-2.362-2.19-6.216-2.696-9.027-1.281
	c-3.637,1.83-4.832,5.887-3.818,9.588c1.434,5.234,8.808,6.513,13.662,5.352c0.393,1.547,0.815,3.041,1.199,4.429
	c2.025,7.333,5.41,14.639,10.292,20.521c7.415,8.934,19.049,11.026,29.699,7.395c11.331-3.863,20.235-13.452,25.312-24.034
	c0.434-0.904,1.162-2.732,1.928-5.022c6.388,0.654,13.594-1.68,14.111-8.905c0.236-3.308-0.561-8.226-4.413-9.104
	c-2.389-0.544-4.883,0.383-6.711,2.039c-0.041-0.605-0.117-1.174-0.234-1.7c0.306-0.134,0.607-0.279,0.897-0.446
	c0.627-0.362,1.325-0.967,1.862-1.68c0.543-0.173,1.035-0.448,1.336-0.757c4.202-4.296,3.313-11.707,2.158-17.12
	c-1.391-6.521-5.133-12.6-9.612-17.446c-2.897-3.134-6.276-5.553-9.888-7.147c2.496-3.369,3.016-8.393,0.802-11.978
	c-3.886-6.288-11.612-9.889-18.381-12.086c-15.582-5.06-31.866,7.522-28.521,24.138c-2.502,1.351-4.855,2.982-6.958,4.744
	c-4.342,3.639-7.15,9.138-8.828,14.451c-1.624,5.149-4.254,13.676-1.935,19.019c-0.237,0.602-0.165,1.209,0.523,1.524
	c9.611,4.392,22.322,1.046,30.473-5.19c3.709-2.837,7.271-6.624,8.874-11.112c0.665,2.555,1.726,5.008,3.084,7.183
	c2.182,3.494,5.801,5.719,9.337,7.724c-0.429,0.073-0.847,0.223-1.219,0.435c-0.155,0.088-0.314,0.199-0.472,0.319
	c-0.03,0.023-0.059,0.044-0.089,0.068c-0.686,0.544-1.324,1.341-1.405,2.166c-0.003,0.032-0.007,0.064-0.01,0.095
	c-0.034,0.185-0.057,0.373-0.057,0.561c-0.035,0.347-0.066,0.694-0.073,1.041c-0.004,0.233-0.012,0.45,0.033,0.679
	c0.055,0.282,0.098,0.566,0.181,0.841c0.07,0.232,0.195,0.406,0.344,0.556c-1.765,0.244-3.525,0.54-5.211,1.048
	c-1.448-2.3-3.46-3.976-6.467-3.23c-1.559,0.387-3.083,1.189-4.271,2.31c-0.021-0.02-0.034-0.041-0.056-0.061
	c-0.887-0.778-2.287-0.974-3.762-0.935c0.253-0.326,0.446-0.69,0.592-1.08c-0.01,0.03-0.015,0.048-0.025,0.081
	c0.132-0.24,0.224-0.498,0.274-0.773c0.082-0.382,0.077-0.565,0.039-0.872c-0.035-0.278-0.061-0.56-0.105-0.836
	c-0.104-0.645-0.391-1.118-0.823-1.41c-0.042-0.031-0.085-0.057-0.129-0.083c-0.038-0.021-0.077-0.039-0.116-0.057
	c-0.246-0.12-0.519-0.179-0.807-0.185c-0.094-0.005-0.185-0.012-0.284-0.008c-0.016,0.001-0.031,0.001-0.047,0.002
	c0.005,0.003,0.011,0.006,0.016,0.009c-0.47,0.043-0.949,0.192-1.352,0.377c-0.67,0.309-1.355,1.081-1.599,1.774
	c-0.001,0.004-0.002,0.008-0.004,0.012c-0.084,0.176-0.135,0.375-0.188,0.574c-0.013,0.042-0.027,0.085-0.039,0.127
	c-0.011,0.049-0.035,0.089-0.043,0.14c-0.026,0.15-0.066,0.294-0.106,0.44c-0.006,0.026-0.014,0.05-0.02,0.076
	c-0.002,0.009-0.004,0.018-0.006,0.028c-0.067,0.232-0.115,0.466-0.14,0.699c0,0.002-0.001,0.003-0.001,0.005
	c-0.037,0.188-0.072,0.377-0.107,0.566c-0.07,0.375-0.033,0.662,0.031,0.985c-3.432,0.439-6.881,0.777-10.298,1.314
	c-0.623,0.097-1.403,0.767-1.828,1.483c-0.179,0.167-0.325,0.344-0.385,0.515c-2.412,6.838,4.68,12.501,11.184,11.746
	c3.832-0.445,11.354-5.763,10.375-10.5c0.059-0.07,0.112-0.141,0.154-0.214c0.619-1.092,1.635-2.849,3.133-2.774
	c1.656,0.082,2.701,1.154,2.684,2.806c-0.017,1.646,1.488,1.877,2.893,1.359c-0.043,3.449,2.617,6.621,5.484,8.268
	c3.102,1.781,7.339,0.525,10.079-1.304c2.67-1.783,4.772-4.375,5.771-7.428c0.436-1.332,0.16-2.335-0.49-2.948
	c0.527-1.128,0.305-3.011-1.264-3.141c-2.812-0.234-5.638,0.101-8.428,0.505c0.073-0.08,0.149-0.156,0.216-0.241
	c0.964-1.229,0.979-2.646,0.827-4.108c-0.003-0.029-0.015-0.049-0.019-0.077c-0.012-0.129-0.047-0.248-0.081-0.367
	c3.653,1.959,8.573,4.278,13.311,5.248c-0.103,0.73,0.064,1.458,0.603,2.099c0.011,0.09,0.053,0.236,0.132,0.45
	c0.188,0.745,0.152,1.492,0.147,2.255c-0.012,2.24-0.538,4.523-0.979,6.71c-0.896,4.447-2.43,8.595-4.615,12.569
	c-4.145,7.535-11.425,13.54-19.726,15.778C97.115,182.017,88.926,177.054,83.642,170.056z M61.653,149.068
	c-2.457-1.005-4.398-3.508-3.274-6.259c1.554-3.802,6.191-1.428,8.75-0.546c-0.284,2.421-0.059,4.987,0.399,7.516
	c-0.161,0.028-0.323,0.056-0.483,0.081C64.968,150.18,63.655,149.888,61.653,149.068z M90.788,145.647
	c-0.254,1.327,0.164,0.359-0.246,1.202c-0.686,1.411-2.07,2.456-3.514,2.963c-2.186,0.769-4.832-0.424-6.65-1.572
	c-1.455-0.918-2.034-2.342-2.447-3.855c2.307,0.063,4.624-0.217,6.933-0.295c1.655-0.056,3.313-0.067,4.971-0.078
	c0.497-0.003,0.959,0.097,1.413,0.203c-0.251,0.419-0.4,0.88-0.329,1.323c-0.034-0.212-0.052-0.36-0.066-0.482
	C90.849,145.211,90.832,145.414,90.788,145.647z M143.186,141.826c1.467-0.214,2.746,0.823,3.212,2.097
	c0.678,1.85,1.087,5.209-0.004,6.954c-1.719,2.748-5.101,2.025-8.241,1.632c0.745-2.756,1.366-5.711,1.594-8.372
	C140.669,143.05,141.643,142.052,143.186,141.826z M89.803,78.195c3.947-3.329,10.637-3.06,15.202-1.445
	c4.806,1.699,9.553,4.429,13.19,8.008c1.299,1.277,2.609,2.91,2.875,4.767c0.154,1.078-0.82,2.143-1.785,3.153
	c-4.885-0.651-9.899,0.178-14.527,2.727c-0.198-0.549-0.593-1.056-1.251-1.475c-5.968-3.798-12.758-3.495-19.021-1.133
	C85.455,87.525,85.321,81.977,89.803,78.195z M120.464,144.039c-0.117,0.568-0.023,1.12,0.4,1.532
	c-0.047,0.085-0.109,0.197-0.219,0.376c-0.797,1.295-1.892,2.23-3.213,2.951c-1.76,0.96-4.091,0.167-5.689-0.711
	c-1.399-0.768-2.075-2.199-2.847-3.531c1.474,0.01,2.972-0.191,4.407-0.338C115.737,144.068,118.067,143.973,120.464,144.039z
	 M111.704,122.671c-4.837-4.535-5.239-11.003-6.8-16.936c-0.184-0.7-0.728-0.678-1.253-0.394c-1.277-0.847-3.652-0.075-4.587,0.836
	c-2.059,2.004-2.063,3.962-2.46,6.648c-0.62,4.192-1.781,7.252-4.901,10.271c-6.4,6.191-16.899,8.157-25.587,8.2
	c1.186-3.799,1.295-8.065,2.122-11.938c1.13-5.29,3.194-10.368,6.615-14.583c4.043-4.983,17.967-11.438,22.75-4.51
	c0.84,1.216,2.234,1.286,3.581,0.73c0.521,0.325,1.256,0.369,2.103-0.119c10.436-6.008,20.833-1.939,28.412,6.431
	c3.709,4.095,6.223,9.107,7.677,14.407c0.713,2.598,0.937,5.465,0.702,8.146c-0.069,0.796-0.238,1.541-0.4,2.272
	c-1.039,0.279-2.82,0.933-2.25,0.935c-1.457,0.123-3.012-0.294-4.411-0.596c-4.216-0.91-8.262-2.595-12.157-4.411
	C117.707,126.589,114.271,125.079,111.704,122.671z"/>
<path fill="#010101" d="M90.853,145.057C90.862,144.707,90.807,144.632,90.853,145.057L90.853,145.057z"/>
<path fill="#010101" d="M98.042,168.211c2.224,1.623,5.325,1.704,7.911,1.04c1.294-0.331,2.646-0.818,3.894-1.377
	c0.361-0.034,0.746-0.146,1.14-0.367c2.09-1.173,3.406-3.706,1.336-5.567c-2.217-1.991-5.411,0.82-5.137,3.338
	c-2.38,1.365-5.738,1.091-8.361,1.275C98.09,166.605,97.288,167.661,98.042,168.211z"/>
<path fill="#010101" d="M192.097,282.354c-1.449-0.071-2.516,0.183-3.789,0.906c-2.256,1.283-3.81,4.102-2.25,6.461
	c2.233,3.378,8.396,0.143,10.5-1.911c1.643-1.604,4.793-6.116,2.648-8.337c-0.642-0.665-1.58-0.512-2.324-0.124
	c-0.887,0.461-1.623,1.247-2.245,2.006c0.215-0.263-0.675,0.542-0.589,0.475c-0.117,0.093-0.196,0.157-0.251,0.204
	c-0.05,0.029-0.108,0.063-0.181,0.107c-0.082,0.049-0.141,0.086-0.191,0.118c-0.059,0.019-0.129,0.043-0.228,0.079
	c-0.061,0.022-0.11,0.041-0.154,0.059c-0.063-0.004-0.162-0.002-0.325,0.01C193.51,282.347,192.11,282.355,192.097,282.354z"/>
<path fill="#010101" d="M7.245,473.083C6.562,473.729,6.888,473.832,7.245,473.083L7.245,473.083z"/>
<path fill="#010101" d="M21.694,396.973c1.604-21.128,3.465-42.091,3.466-63.308c0-6.761-0.509-13.519-0.331-20.278
	c0.087-3.329,0.41-6.854,1.666-9.966c1.407-3.486,7.35-1.963,8.828,0.893c1.36,2.625,5.319-0.229,4.61-2.625
	c-1.609-5.43-6.156-7.777-11.087-7.041c-0.074-1.351-0.844-2.403-2.699-2.126c-1.51-1.692-2.134-3.715-2.4-6.071
	c-0.231-2.046,0.084-4.276-0.701-6.18c0.13,0.061,0.256,0.127,0.391,0.181c0.041,0.016,0.083,0.022,0.124,0.037
	c0.158,2.967,3.077,3.781,5.526,3.102c8.295-2.302,15.057-6.465,16.301-15.459c0.717-5.187,1.148-10.412,1.886-15.596
	c0.99-6.952,2.104-15.634,5.947-21.688c-3.033,16.779-3.51,36.993,15.683,43.643c0.77,0.267,1.545,0.508,2.325,0.731
	c-7.553,6.301-11.51,16.274-14.727,25.315c-3.826,10.743-6.617,22.044-8.973,33.192c-2.779,13.146-4.725,26.954-5.629,40.359
	c-0.436,6.467-0.272,12.971-0.463,19.447c-0.105,3.578-0.412,7.119-0.967,10.655c-0.343,2.19-1.27,4.505-0.83,6.747
	c0.02-0.009,0.04-0.018,0.06-0.026c0.033,0.384,0.088,0.779,0.185,1.208c0.044,0.195,0.099,0.376,0.161,0.545
	c-0.059,0.073-0.121,0.134-0.179,0.215c-4.906,6.861,5.111,12.395,10.396,14.121c5.71,1.864,12.655,2.402,18.858,2.891
	c-0.137,1.316-0.135,2.666-0.188,3.894c-0.174,3.946-0.287,7.891-0.217,11.84c0.059,3.439-0.778,12.002,2.42,14.939
	c-5.304,3.565-9.354,10.879-6.615,16.941c0.094,0.207,0.218,0.35,0.358,0.45c-0.212,0.837-0.219,1.751,0.045,2.748
	c0.269,1.016,1.468,1.863,2.47,1.982c4.77,0.563,8.935,3.071,13.68,3.734c5.004,0.697,9.381-1.365,13.272-4.277
	c3.604-2.696,5.121-5.995,5.125-9.319c0.437-0.475,0.785-1.003,0.99-1.559c2.097-5.694,0.232-13.054-0.135-19.017
	c-0.277-4.51-0.115-9.177-0.493-13.73c6.977,0.309,14.24-0.433,20.969-2.318c-0.769,5.79,0.458,12.158,0.82,17.796
	c0.215,3.371,0.287,6.738,0.18,10.115c-0.097,3.02-1.748,6.398,0.674,8.777c0.314,0.309,0.672,0.507,1.051,0.619
	c-0.448,2.151-0.461,4.373,0.47,5.975c-0.274,0.459-0.493,0.923-0.628,1.367c-2.766,9.135,11.872,10.029,17.274,9.148
	c8.682-1.418,17.395-6.799,18.02-16.307c0.221-3.378-1.512-7.034-3.88-9.768c2.504-4.409,0.552-11.778,0.161-16.448
	c-0.341-4.061-0.452-8.891-1.699-13.092c3.451-0.274,6.863-0.899,10.24-1.801c3.178-0.85,7.466-2.253,10.221-4.747
	c3.748,2.066,10.645-3.291,8.53-7.572c-4.535-9.187-4.307-19.418-4.175-29.476c0.161-12.253-0.212-23.762-2.438-35.896
	c-2.684-14.632-6.606-29.101-10.539-43.437c-1.925-7.015-4.022-13.994-6.71-20.758c-2.431-6.122-5.14-12.52-9.785-17.274
	c15.528-6.803,18.793-27.704,18.595-42.907c-0.131-10.121-1.572-20.165-2.998-30.167c-0.792-5.555-0.895-11.118-1.5-16.686
	c-0.28-2.576-0.892-5.197-2.022-7.547c3.294,3.024,6.035,6.672,8.523,10.352c5.593,8.269,9.594,17.373,13.152,26.66
	c3.848,10.044,7.258,20.277,9.57,30.791c1.16,5.279,1.785,10.689,1.867,16.091c0.035,2.349-0.205,4.647-0.64,6.953
	c-0.059,0.314-0.136,0.624-0.222,0.934c-0.896,0.112-1.854-0.052-3.008-0.801c-3.347-2.172-5.636-6.808-7.589-10.134
	c-4.249-7.235-7.378-15.272-11.061-22.808c-0.484-0.991-2.042,0.09-1.738,0.991c1.482,4.416,1.314,9.522,2.055,14.109
	c0.955,5.903,2.168,12.123,4.555,17.626c2.064,4.764,5.145,9.276,10.256,10.995c5.741,1.931,14.193-1.344,15.748-7.446
	c0.14-0.548,0.125-1.118,0.002-1.66c2.511-7.611,0.632-18.2-0.65-24.644c-2.424-12.179-6.781-23.9-11.52-35.345
	c-4.158-10.046-8.88-19.998-15.494-28.69c-3.503-4.603-7.668-8.664-12.461-11.904c-2.959-1.999-5.853-2.764-8.911-3.007
	c-0.959-1.62-3.325-2.103-5.004-1.401c-1.094,0.457-2.063,0.98-2.935,1.575c-4.021-0.803-10.709,4.406-8.332,8.62
	c0.038,0.068,0.073,0.115,0.108,0.169c-0.478,0.958-1.187,1.82-1.825,2.676c-1.695,2.276-3.639,4.349-5.691,6.302
	c-5.677,5.404-12.847,8.879-20.561,10.142c-15.117,2.474-33.466-2.244-39.581-17.715c0.912-0.603,1.812-1.225,2.679-1.903
	c0.784-0.613,1.391-2.774-0.181-2.868c-10.923-0.656-21.424,11.497-27.76,18.974c-8.805,10.394-16.461,22.176-21.469,34.861
	c-4.124,10.449-6.033,21.349-6.193,32.533c-0.082,5.745-0.362,17.226,4.821,21.879c-0.563,0.241-1.095,0.745-1.295,1.128
	c-2.606,4.988-1.698,12.43,1.54,16.991c0.012,0.483,0.112,0.893,0.273,1.243c-3.277,3.758-4.383,9.77-4.915,14.265
	c-0.79,6.695-0.479,13.457-0.563,20.182c-0.149,11.912-0.653,23.832-1.424,35.718c-1.511,23.305-4.085,46.557-5.876,69.846
	c-0.5,6.49-0.456,12.846-0.367,19.348c0.044,3.285,0.162,6.631-0.223,9.898c-0.178,1.516-0.452,3.014-0.771,4.506
	c-0.086,0.4-0.198,0.705-0.308,0.935c0.321-0.304,0.86-0.724,1.732-1.234c-4.52,2.646-4.713,10.08,1.785,8.605
	c5.465-1.24,7.043-7.227,7.321-12.027c0.351-6.051,0.198-12.164,0.081-18.221C17.817,432.458,20.353,414.652,21.694,396.973z
	 M91.367,453.538c-0.082,2.077-0.074,4.162-0.049,6.246c-3.727-2.325-8.13-2.944-12.363-2.235c0.2-0.564,0.286-1.146,0.219-1.715
	c-0.212-1.832-1.39-3.162-1.861-4.983c-0.82-3.169-0.982-6.554-1.258-9.804c-0.262-3.101-0.537-6.199-0.753-9.303
	c-0.059-0.842-0.076-1.777-0.152-2.711c0.239-0.143,0.473-0.299,0.702-0.464c2.728,5.621,11.395,8.339,17.379,9.316
	C91.585,442.85,91.57,448.349,91.367,453.538z M88.266,477.896c-3.179,1.309-7.529-1.526-10.347-2.713
	c-2.946-1.241-6.8-2.748-9.826-1.021c-0.122,0.07-0.228,0.149-0.344,0.223c1.118-5.054,2.552-9.586,8.597-10.708
	c5.901-1.096,12.125,1.938,15.055,7.158c0.002,0.003,0.003,0.006,0.005,0.01c0.116,0.75,0.309,1.471,0.63,2.135
	c0.033,0.069,0.076,0.121,0.112,0.186C92.272,475.321,90.634,476.921,88.266,477.896z M147.088,446.652
	c-0.001,4.113-0.15,8.223-0.353,12.331c-2.939-0.672-6.029-0.451-9.17,0.275c-2.634,0.609-5.146,1.927-7.318,3.661
	c-0.044-3.313-0.681-6.75-1.059-9.597c-0.524-3.949-1.238-7.873-1.842-11.811c-0.365-2.372-0.541-4.839-1.074-7.198
	c2.171-1.133,3.344-3.119,3.578-4.966c4.452,3.447,13.69,4.901,17.237,5.134C146.714,438.5,147.09,442.664,147.088,446.652z
	 M149.947,476.775c-0.766,3.368-6.875,3.995-9.551,4.134c-1.855,0.098-3.857-0.15-5.565-0.899c-1.763-0.772-1.378-1.461-2.835-3.03
	c-0.934-1.006-2.027-1.311-3.118-1.167c0.017-2.134-0.063-4.23,1.319-6.368c1.916-2.962,5.422-4.717,8.838-5.159
	C145.589,463.436,151.376,470.491,149.947,476.775z M152.804,293.872c2.203,7.393,3.857,14.933,5.371,22.492
	c3.013,15.035,6.15,30.113,8.477,45.271c1.819,11.857,1.398,23.226,1.079,35.135c-0.185,6.886-0.729,15.989,1.526,23.398
	c-6.781,4.528-15.803,5.917-23.823,5.499c-4.021-0.21-8.037-1.026-11.81-2.433c-0.286-0.107-0.72-0.289-1.222-0.476
	c0.537-2.864,0.239-6.057,0.167-8.821c-0.186-7.104-0.809-14.168-1.596-21.227c-0.844-7.551-1.732-15.096-2.518-22.652
	c-0.494-4.763-1.702-9.693-1.871-14.457c-0.039-1.082-1.631-0.295-1.652,0.531c-0.307,12.156-0.447,24.338-0.672,36.517
	c-0.134,7.199-0.225,14.405-0.447,21.603c-0.128,4.1-1.491,8.73-1.105,12.089c-6.744,3.134-15.202,3.561-22.448,3.538
	c-4.479-0.016-8.987-0.672-13.287-1.904c-2.722-0.78-4.953-2.294-7.3-3.623c0.278-0.495,0.473-1.037,0.546-1.626
	c0.279-2.253-0.238-4.626-0.328-6.909c-0.189-4.868-0.442-9.729-0.718-14.594c-0.354-6.264,0.222-12.675,0.346-18.951
	c0.138-6.9-0.159-13.992,0.603-20.854c0.105-0.969-1.266-0.63-1.373,0.112c-1.898,13.198-4.936,26.245-6.795,39.481
	c-0.766,5.451-0.641,11.193-0.85,16.691c-0.024,0.632-0.097,1.3-0.18,1.981c-0.891-0.053-1.769-0.085-2.593-0.135
	c-3.933-0.238-7.845-0.417-11.736-1.078c-3.425-0.582-6.665-1.801-9.313-4.112c-0.349-0.305-0.743-0.651-1.165-0.995
	c2.417-1.537,4.462-4.363,3.865-7c-0.16-0.704,0.936-4.814,1.086-6.283c0.272-2.674,0.377-5.359,0.442-8.043
	c0.155-6.428-0.18-12.86-0.104-19.289c0.145-12.542,1.929-25.512,3.832-37.9c3.031-19.725,7.416-41.851,18.436-58.802
	c0.04-0.062,0.052-0.116,0.084-0.176c11.441,2.593,23.776,1.096,35.299,0.373c11.696-0.732,23.436,1.318,34.991-1.319
	c0.773-0.176,1.512-0.393,2.237-0.627C147.885,280.989,150.834,287.269,152.804,293.872z M109.769,202.269
	c10-1.898,19.186-7.017,26.46-14.086c2.944-2.861,7.627-7.432,10.116-12.22c2.383,2.742,5.153,5.111,6.239,8.949
	c1.498,5.292,0.809,11.364,1.566,16.833c1.204,8.685,2.484,17.346,3.025,26.105c0.554,8.968,0.488,18.643-2.766,27.148
	c-3.67,9.594-10.908,11.521-20.557,11.776c-5.828,0.153-11.661-0.265-17.489-0.294c-6.807-0.034-13.627,0.82-20.421,1.173
	c-10.812,0.562-24.574,0.663-31.796-8.85c-5.032-6.628-4.122-16.635-3.134-24.345c1.123-8.763,3.783-17.507,4.005-26.359
	c0.2-8-2.562-18.154,0.615-25.906C66.992,201.106,93.711,205.317,109.769,202.269z M26.379,252.853
	c-0.108-9.69,1.681-19.173,5.034-28.272c3.877-10.519,10.013-20.186,16.501-29.269c3.324-4.654,7.026-8.983,11.268-12.824
	c0.91-0.825,1.871-1.567,2.857-2.268c-4.295,6.574-4.469,15.662-4.764,23.199c-0.347,8.912-2.202,17.413-3.816,26.141
	c-0.284-0.246-0.833-0.225-1.165,0.25c-6.995,10.024-11.787,19.994-14.729,31.933c-0.591,2.398-1.184,7.669-2.007,9.011
	c-0.053,0.087-0.095,0.159-0.13,0.22c-0.076,0.051-0.185,0.135-0.34,0.266c0.836-0.711-0.996,0.555-0.98,0.546
	c-0.768,0.414-1.585,0.736-2.411,1.041c-0.118-0.261-0.254-0.522-0.429-0.778c-0.16-0.235-0.322-0.471-0.482-0.706
	c-0.456-0.666-1.034-1.015-1.668-1.154C25.825,266.229,26.427,257.104,26.379,252.853z"/>
<path fill="#010101" d="M386.489,147.871c0.758,2.335,2.723,3.948,4.986,4.682c1.283,0.416,2.989,0.336,4.569-0.148
	c1.395,5.372,3.739,10.57,7.432,15.613c6.043,8.251,16.121,12.79,26.262,11.484c15.016-1.933,24.18-13.963,28.313-27.957
	c1.829,0.316,3.919-0.215,5.412-1.063c2.09-1.186,3.575-3.393,4.166-5.733c5.293-1.297,10.889-4.932,13.862-8.039
	c4.146-4.334,6.383-10.641,2.971-16.098c-3.12-4.991-8.895-7.494-14.781-9.007c1.57-0.349,3.073-2.235,1.881-3.469
	c-0.44-0.455-0.817-0.748-1.194-0.956c-1.819-1.424-3.747-2.641-5.76-3.675c1.162-1.533,1.754-3.358,1.12-4.893
	c-3.696-8.953-7.235-19.07-15.599-24.743c-4.127-2.799-9.277-2.601-13.898-1.516c-3.924,0.922-10.175,7.944-14.181,4.738
	c-4.12-3.299-6.435-5.785-12.065-4.449c-4.084,0.969-7.57,4.908-9.853,8.169c-4.363,6.235-8.174,15.923-7.187,23.884
	c-0.413,0.345-0.763,0.745-1.023,1.184c-2.884,2.707-5.987,5.143-8.321,8.4c-0.616,0.86-0.128,1.814,0.949,1.56
	c3.786-0.891,7.027-3.906,10.041-5.806c1.626-0.359,3.124-1.99,3.436-3.464c0.01-0.04,0.018-0.081,0.026-0.121
	c0.259-1.219-0.303-2.322-1.465-2.696c1.852-7.139,4.058-14.236,8.545-20.236c2.262-3.024,4.965-5.035,7.768-1.552
	c3.044,3.784,6.49,5.339,11.432,4.826c7.258-0.754,12.742-9.82,20.171-3.88c4.966,3.971,7.488,10.666,9.664,16.838
	c-5.36-1.26-10.956-1.754-16.42-1.869c-11.814-0.249-26.088,1.491-36.465,7.598c-0.45,0.266-0.476,1.026,0.181,0.869
	c10.948-2.628,21.456-4.714,32.78-4.833c6.852-0.072,14.372,0.585,21.216,2.798c0.152,0.161,0.32,0.316,0.525,0.453
	c0.135,0.171,0.27,0.342,0.406,0.514c1.052,1.552,2.723,1.742,4.379,1.148c2.604,1.27,5.036,2.837,7.2,4.764
	c-2.515-0.57-5.005-0.99-7.272-1.364c-12.152-2.005-24.66-1.387-36.84-0.026c-9.47,1.059-19.108,2.45-28.355,4.801
	c-6.222,1.582-12.859,3.812-17.996,7.78c-4.045,3.125-7.277,8.246-4.117,13.166c2.804,4.366,8.741,6.166,14.196,6.08
	C386.248,143.404,385.786,145.706,386.489,147.871z M394.261,147.184c-0.579-0.096-0.197-0.007-0.51-0.135
	c-0.36-0.147-0.698-0.336-1.026-0.543c-0.078-0.057-0.124-0.089-0.154-0.109c-0.145-0.126-0.284-0.258-0.417-0.394
	c-0.263-0.267-0.484-0.571-0.691-0.881c0.218,0.326-0.159-0.387-0.193-0.471c-0.057-0.137-0.325-0.975-0.26-0.639
	c-0.141-0.722-0.145-0.571,0.098-1.075c-0.201,0.418,0.245-0.18,0.182-0.175c0.198-0.172,0.44-0.321,0.791-0.506
	c0.76-0.404,1.581-0.594,2.341-0.945c0.094,2.001,0.279,3.977,0.571,5.929C394.797,147.267,394.616,147.243,394.261,147.184z
	 M458.99,148.005c0.293-1.27,0.539-2.551,0.754-3.836c0.286,0.255,0.644,0.471,1.104,0.621c0.518,0.169,1.064,0.27,1.622,0.343
	c-0.178,0.749-0.404,1.397-1.037,1.964C460.745,147.712,459.873,147.886,458.99,148.005z M379.273,132.696
	c-3.309-4.09,1.592-6.518,4.841-8.105c10.983-5.367,24.56-6.313,36.452-7.591c9.229-0.992,18.515-1.307,27.78-0.688
	c8.462,0.565,17.973,1.794,25.375,6.193c3.492,2.076,5.715,5.796,3.031,9.351c-3.631,4.81-10.503,4.295-15.392,6.687
	c-0.357,0.175-0.683,0.411-0.978,0.682c0.59-6.521,0.209-12.97-1.088-18.598c-0.494-2.139-3.771-1.33-4.81-0.255
	c-0.577,0.621-1.173,1.223-1.786,1.808c-1.307,1.273-1.541,3.582,0.701,3.699c2.299,17.799-1.914,44.765-23.276,47.515
	c-9.024,1.162-16.862-4.108-22.206-10.899c-7.998-10.164-9.799-24.115-11.413-36.548c-0.11-0.851-1.335-0.357-1.41,0.284
	c-0.486,4.166-0.768,8.223-0.746,12.186c-0.09-0.099-0.214-0.184-0.383-0.248C389.022,136.293,382.907,137.188,379.273,132.696z"/>
<path fill="#010101" d="M437.519,140.945c-1.112-1.596-4.998-0.369-6.579,0.191c-2.135,0.755-3.737,1.792-6.039,1.888
	c-3.244,0.135-6.813-0.109-9.945,0.751c-0.406,0.112-1.08,0.846-0.77,1.31c-1.949,1.981-3.695,4.176-5.743,6.046
	c-1.104,1.009-1.908,3.049-0.311,4.027c9.928,6.075,23.865,5.165,34.697,2.355c1.555-0.403,3.038-2.145,2.932-3.793
	C445.519,150,441.877,142.32,437.519,140.945z M413.327,151.201c0.937-1.632,2.075-3.158,2.937-4.841c3,1.24,7.236,1.34,10.04,0.975
	c1.388-0.181,2.83-0.344,4.169-0.756c0.554-0.17,1.104-0.353,1.656-0.532c0.648,0.757,1.542,0.798,2.747,1.332
	c2.056,0.908,3.41,3.106,4.128,5.357C430.622,154.463,421.159,154.517,413.327,151.201z"/>
<path fill="#010101" d="M404.237,134.649c1.26,4.047,5.979,4.781,9.496,4.053c3.635-0.753,6.898-3.973,7.301-7.704
	c0.733-0.396,1.493-0.739,2.362-0.955c1.664-0.413,3.401-0.278,5.07,0.083c-0.276,0.946,0.476,1.836,1.645,1.473
	c0.099,0.01,0.197,0.022,0.3,0.013c0.11-0.009,0.218-0.036,0.326-0.063c0.202,0.763,0.53,1.492,1.007,2.134
	c3.094,4.168,9.266,3.329,12.501-0.201c3.302-3.602,3.035-10.779-2.304-12.352c-2.47-0.728-5.06-0.004-7.2,1.307
	c-1.126,0.69-3.415,2.568-3.872,4.321c-3.089-0.535-7.193-0.382-10.059,1.306c-0.801-3.1-3.313-5.644-6.653-5.998
	c-2.067-0.219-4.146,0.501-5.758,1.789c-0.791,0.631-1.682,1.591-2.143,2.633C404.283,128.679,403.286,131.598,404.237,134.649z
	 M442.582,130.077c-0.462,2.551-3.429,3.402-5.629,2.927c-1.712-0.37-2.831-1.824-3.399-3.374c-0.149-0.407-0.224-0.778-0.248-1.122
	c1.434-0.797,2.218-2.351,3.647-3.188c0.084-0.015,0.195-0.074,0.296-0.156c0.357-0.172,0.75-0.304,1.204-0.367
	C441.462,124.381,443.061,127.435,442.582,130.077z M411.172,127.624c0.5-0.664,2.271-0.094,2.898,0.41
	c1.167,0.938,2.24,3.03,1.668,4.54c-0.479,1.26-2.09,1.598-3.286,1.681c-1.745,0.122-2.774-0.783-3.823-2.016
	c-0.534-0.628-0.735-1.444-0.714-2.32C409.183,129.754,410.612,128.368,411.172,127.624z"/>
<path fill="#010101" d="M539.66,302.673c3.327-2.002,12.15-11.786,10.735-17.012c0.953-1.108,1.612-2.394,1.605-3.384
	c-0.159-21.262-9.966-42.711-20.804-60.511c-5.804-9.531-12.555-18.499-20.165-26.658c-5.512-5.909-12.564-13.232-20.411-16.283
	c-0.006-0.259,0.004-0.522-0.017-0.779c-0.087-1.097-0.801-1.494-1.628-1.475c-1.786-2.307-5.707-3.923-7.686-5.131
	c-4.652-2.839-9.607-5.723-13.367-9.696c-1.239-1.31-2.972-0.485-3.964,0.805c-2.039-0.861-6.016,1.095-6.727,3.886
	c-0.013,0.001-0.026,0.002-0.039,0.003c-0.194,1.651-0.981,3.227-0.591,4.815c-2.948,9.642-18.105,13.672-26.449,14.359
	c-6.365,0.524-12.74-0.551-18.637-2.969c-2.818-1.156-5.092-2.68-7.243-4.846c-1.8-1.812-2.847-4.399-4.917-5.894
	c-0.481-0.347-1.104-0.001-1.491,0.454c0.357-0.543,0.676-1.106,0.943-1.693c0.756-1.662-0.868-2.593-2.278-1.83
	c-3.399,1.838-6.529,4.06-10.021,5.771c-3.703,1.814-7.544,3.043-11.47,4.185c-3.359-0.202-7.501,3.819-5.778,6.495
	c-0.28-0.244-0.771-0.236-1.108-0.024c-4.891,3.077-7.998,9.37-11.33,13.967c-4.094,5.648-8.035,11.333-11.643,17.308
	c-7.859,13.012-14.773,26.427-21.894,39.848c-3.44,6.485-4.425,15.095-5.864,22.195c-0.682,3.355-4.756,14.973,1.641,15.053
	c0.466,0.006,0.911-0.094,1.333-0.256c1.391,1.31,3.138,2.361,4.696,3.189c2.593,1.379,6.304,3.427,9.542,3.456
	c0.072,0.147,0.151,0.291,0.248,0.428c0.081,0.114,0.162,0.229,0.244,0.343c0.87,1.221,2.579,1.003,3.807,0.746
	c12.07-2.523,19.697-16.478,24.3-26.692c2.919-6.479,5.155-13.278,6.978-20.14c1.098-4.135,3.975-12.029,1.625-16.133
	c-0.357-0.623-1.114-0.2-1.38,0.281c-2.287,4.124-2.746,9.563-4.182,14.045c-2.182,6.81-5.155,13.39-8.488,19.707
	c-2.949,5.587-6.363,10.99-10.573,15.716c-1.538,1.726-3.358,3.21-5.363,4.349c-0.947,0.537-1.854,0.848-2.73,1.163
	c-1.712-2.059-5.846-2.133-8.314-2.76c-2.426-0.616-4.679-1.475-6.755-2.694c0.005-0.014,0.011-0.032,0.015-0.043
	c0.305-0.913,0.278-2.112,0.426-3.066c0.548-3.539,1.235-7.057,1.943-10.566c1.584-7.837,3.342-14.914,6.988-22.031
	c6.281-12.26,12.643-24.416,19.277-36.486c3.268-5.947,7.015-11.667,10.628-17.409c2.331-3.706,6.388-8.444,6.151-13.031
	c-0.004-0.082-0.02-0.154-0.044-0.219c0.101,0.125,0.22,0.246,0.351,0.364c-1.013,7.25,2.209,14.792,4.6,21.498
	c3.316,9.302,5.409,18.681,1.604,28.192c-0.405,1.013-0.496,1.843-0.369,2.507c-0.006,0.016-0.015,0.033-0.02,0.049
	c-4.434,14.903-6.011,30.852-8.447,46.182c-2.516,15.819-4.92,31.657-6.619,47.587c-3.161,29.616-4.04,59.639,1.324,89.012
	c0.096,1.022,0.18,1.971,0.354,2.921c-0.678,0.621-1.053,1.552-0.42,2.229c5.646,6.028,13.492,9.037,21.482,10.995
	c-1.52,4.291,0.048,10.972,0.586,14.582c1.147,7.694,3.01,15.31,4.928,22.855c-4.963,2.86-9.022,7.425-8.097,12.568
	c-2.444,0.828-4.283,3.483-3.688,6.167c0.766,3.457,7.002,4.236,9.919,4.836c4.491,0.923,9.14,1.24,13.718,1.17
	c7.582-0.116,18.266-2.715,18.275-12.098c0.001-1.04-0.224-2.056-0.596-3.041c3.27-5.541,0.717-14.556-0.333-20.343
	c-0.846-4.654-1.775-9.299-2.464-13.98c-0.437-2.977-0.458-5.975-0.615-8.959c4.649,0.033,9.298-0.107,13.91-0.358
	c9.756-0.531,19.475-1.702,29.131-3.322c-1.513,7.151,0.587,16.189,1.37,22.911c1.04,8.939,2.278,18.359,0.495,27.273
	c-0.143,0.712-0.081,1.353,0.175,1.913c-0.035,1.3,0.079,2.564,0.398,3.725c-2.319,1.756-4.258,5.245-1.199,6.436
	c8.197,3.188,19.316,4.764,28.014,3.648c4.701-0.604,9.451-2.944,11.649-7.342c2.339-4.678,0.644-9.688-1.658-14.021
	c-1.659-3.125-3.839-6.255-6.436-8.809c2.127-5.755,1.136-14.906,0.806-18.555c-0.51-5.635-1.555-11.252-2.813-16.764
	c-0.444-1.945-1.002-4.314-1.827-6.519c3.447-0.856,6.883-1.745,10.304-2.665c2.67,2.317,6.697-0.391,8.338-3.483
	c2.459-4.633,2.413-11.424,2.879-16.548c1.748-19.237-0.02-38.591-2.222-57.709c-2.245-19.495-4.435-39.083-7.687-58.437
	c-2.895-17.233-5.467-35.459-11.181-52.138c0.266-0.203,0.503-0.427,0.71-0.663c5.018,8.01,9.094,16.695,12.969,25.224
	c4.676,10.29,9.339,22.102,16.518,30.913C523.213,302.478,531.198,307.766,539.66,302.673z M409.608,461.488
	c0.622,4.593,1.327,9.17,1.729,13.79c-3.662-3.34-8.552-4.217-13.373-3.85c-0.075,0.006-0.153,0.017-0.229,0.024
	c-0.226-0.538-0.608-1.056-1.185-1.539c-2.956-10.462-4.97-21.044-7.486-31.583c0.656,0.129,1.311,0.255,1.961,0.377
	c6.215,1.17,12.536,1.779,18.877,2.011C407.758,447.221,408.731,455.019,409.608,461.488z M399.161,490.955
	c-2.811-0.15-5.607-0.549-8.368-1.089c-1.226-0.239-2.438-0.544-3.641-0.88c-0.521-0.145-1.011-0.305-1.515-0.494
	c-0.083-0.031-0.138-0.059-0.205-0.088c0.44-3.257,0.72-6.406,3.659-8.492c0.747-0.53,1.555-0.95,2.401-1.274
	c1.097,0.124,2.379-0.235,3.307-0.775c1.614-0.185,3.262-0.134,4.825,0.111c3.684,0.578,5.899,2.84,8.209,5.57
	c1.027,1.215,1.895,2.512,2.57,3.949c0.385,0.82,0.239,1.945,0.477,1.963c-0.559,0.401-1.617,0.798-2.921,1.05
	C405.093,491.059,402.067,491.111,399.161,490.955z M490.986,494.231c-2.486,1.495-6.765,0.888-9.477,0.647
	c-5.517-0.49-11.173-2.645-16.724-2.931c0.188-0.702,0.352-1.43,0.507-2.173c2.846-2.478,3.617-7.064,3.557-11.874
	c1.066-1.611,2.52-2.924,4.61-3.723c3.18-1.214,6.062-0.244,8.542,1.711c0.031,0.156,0.072,0.307,0.126,0.45
	c0.333,0.88,1.074,1.315,1.911,1.457c2.657,2.874,4.708,6.648,5.977,9.331C490.681,488.533,492.901,493.08,490.986,494.231z
	 M483.695,453.225c0.287,4.734,0.592,9.525,0.119,14.258c-0.02,0.204-0.058,0.422-0.103,0.645
	c-3.461-1.342-7.313-1.465-11.429,0.369c-1.468,0.654-2.771,1.522-3.954,2.521c-0.327-2.647-0.729-5.063-0.965-6.878
	c-0.693-5.326-1.59-10.625-2.506-15.916c-0.613-3.539-0.626-8.215-1.731-11.995c6.12-1.129,12.211-2.428,18.268-3.854
	C481.618,439.285,483.285,446.466,483.695,453.225z M496.019,336.593c1.892,16.872,3.932,33.727,4.548,50.705
	c0.288,7.945,0.262,16.43-0.832,24.311c-0.271,1.952-0.246,5.238-0.656,7.998c-0.781,0.225-1.53,0.523-2.246,0.914
	c-20.739,5.639-41.823,10.025-63.276,11.786c-12.063,0.989-24.172,0.895-36.184-0.628c-9.336-1.183-18.098-4.177-27.036-6.746
	c0.618-1.05,0.934-2.212,0.714-3.276c0,0,0,0,0,0c0,0,0-0.001,0-0.001v0c-6.412-30.939-5.424-62.824-2.143-94.077
	c1.602-15.264,3.686-30.471,5.859-45.662c1.961-13.708,5.078-27.978,4.815-41.919c1.583-0.324,3.21-1.352,4-2.999
	c0,0,0-0.001,0.001-0.001c0,0,0,0,0,0c0-0.001,0.001-0.002,0.001-0.004c0.467-0.973,0.721-1.766,0.844-2.631
	c2.503-8.67,1.804-16.973-1.172-25.699c-1.492-4.373-3.371-8.634-5.222-12.863c-1.295-2.956-2.262-6.044-3.45-9.035
	c0.77-0.184,1.483-0.524,2.082-1.028c0.22-0.105,0.439-0.211,0.657-0.315c2.904-1.379,5.869-2.613,8.744-4.055
	c4.018-2.015,8.823-4.775,11.548-8.652c-0.044,0.088-0.078,0.175-0.096,0.257c-1.453,6.466,5.717,12.669,10.616,15.56
	c6.542,3.859,15.104,4.386,22.487,3.819c7.809-0.6,15.735-3.208,22.169-7.697c5.856-4.086,9.259-9.173,11.336-15.541
	c0.09-0.183,0.183-0.364,0.26-0.556c2.044,3.344,6.243,6.041,9.051,8.077c2.131,1.544,4.36,2.957,6.518,4.465
	c1.183,0.828,2.157,1.948,3.42,2.466c-3.231,7.572-4.438,16.866-5.342,24.404c-1.261,10.508-0.932,21.593,3.105,31.503
	c0.327,0.804,0.875,1.302,1.531,1.567c1.145,14.759,4.572,29.377,6.91,43.98C492.324,302.152,494.087,319.359,496.019,336.593z
	 M513.864,271.576c-7.296-12.345-13.434-26.385-23.883-36.363c0.209-1.388-0.175-2.682-1.754-3.506
	c-2.71-8.407-3.094-17.134-2.222-25.987c0.471-4.783,1.403-9.513,2.305-14.229c0.439-2.297,1.16-4.737,1.688-7.181
	c1.861,1.927,3.915,3.734,5.733,5.581c3.273,3.324,6.438,6.789,9.484,10.321c7.107,8.238,13.428,17.208,18.908,26.602
	c9.683,16.593,16.322,34.172,18.806,53.082c-0.594,0.863-0.865,1.925-0.572,2.993c0.048,0.174,0.095,0.331,0.143,0.486
	c-2.007,1.28-3.415,3.671-1.766,5.654c2.281,2.745-2.645,6.14-4.882,7.492c-2.417,1.46-6.296-2.895-7.849-4.208
	C521.39,286.72,518.175,278.868,513.864,271.576z"/>
<path fill="#010101" d="M432.004,211.587c1.442-0.155,2.476-1.212,2.898-2.542c0.122-0.386,0.244-0.772,0.367-1.159
	c0.09-0.284,0.18-0.568,0.271-0.852c0.11-0.345,0.033-0.123-0.023,0.043c0.318-0.952,0.404-1.975-0.595-2.566
	c-1.201-0.712-2.527-1.194-3.941-0.995c-0.434,0.061-0.832,0.182-1.218,0.327c-0.023-0.393-0.27-0.727-0.804-0.688
	c-0.165,0.013-0.479-0.129-0.701-0.089c-0.461,0.083-0.916,0.17-1.365,0.301c-0.823,0.239-1.632,0.78-2.273,1.333
	c-1.165,1.003-1.828,2.597-1.263,4.084C424.5,211.788,429.453,211.861,432.004,211.587z"/>
<path fill="#010101" d="M430.388,262.189c3.051,2.375,6.613-1.396,7.857-3.937c1.084-2.214,2.017-5.704,0.35-7.863
	c-1.24-1.607-3.512-0.974-5.031-0.282c-0.278,0.127-0.542,0.287-0.799,0.46c-0.185-0.187-0.453-0.296-0.752-0.264
	c-2.801,0.301-5,3.202-4.594,5.969C427.739,258.455,428.607,260.802,430.388,262.189z M433.389,256.582
	c-0.004,0.015-0.009,0.031-0.013,0.046C433.278,256.704,433.234,256.727,433.389,256.582z M433.42,256.593
	c-0.005-0.009-0.01-0.018-0.014-0.026c0.052-0.048,0.124-0.112,0.22-0.197C433.708,256.344,433.55,256.488,433.42,256.593z
	 M433.398,256.552c-0.008-0.014-0.016-0.029-0.023-0.043c0.013-0.008,0.031-0.02,0.043-0.027
	C433.411,256.505,433.404,256.528,433.398,256.552z M435.199,255.034c0.002-0.001,0.004-0.003,0.005-0.004
	c0.002-0.002,0.005-0.003,0.007-0.004C435.282,255.01,435.3,255.012,435.199,255.034z"/>
<path fill="#010101" d="M435.772,312.699c2.182-1.489,3.79-3.808,4.686-6.281c0.859-2.377,1.456-5.722-1.588-6.712
	c-1.314-0.427-2.83,0.194-4.004,0.74c-0.504,0.235-0.977,0.52-1.441,0.824c-0.381,0.053-0.733,0.15-1.086,0.304
	c-1.184,0.52-1.965,1.214-2.635,2.324c-0.518,0.861-0.528,2.051-0.541,3.017c-0.018,1.229,0.105,2.417,0.372,3.614
	C430.208,313.543,433.325,314.37,435.772,312.699z M434.281,306.595c0.307-0.207,0.604-0.414,0.905-0.628
	c0.002,0,0,0.001,0.016-0.009c-0.008,0.024-0.014,0.046-0.022,0.07c-0.06,0.158-0.119,0.316-0.185,0.472
	c-0.162,0.385-0.353,0.757-0.555,1.123c-0.007-0.016-0.016-0.032-0.023-0.048c-0.118-0.287-0.208-0.585-0.289-0.886
	C434.178,306.655,434.23,306.629,434.281,306.595z"/>
<path fill="#010101" d="M435.54,354.467c1.825,1.295,4.104,1.199,6.068,0.291c2.818-1.305,4.283-4.256,5.058-7.102
	c0.257-0.945-0.151-1.795-0.924-2.322c-1.924-1.313-4.185-2.068-6.486-1.662c-0.289-0.668-1.118-1.043-1.964-0.447
	c-1.058,0.745-2.026,1.771-2.754,2.924c-0.938,0.919-1.706,2.029-2.363,3.3c-0.869,1.682,0.155,2.607,1.448,2.688
	C433.979,352.993,434.587,353.791,435.54,354.467z M440.158,350.251c0.001-0.001,0.001-0.001,0.002-0.001
	c0.004,0.001,0.004,0.002,0.009,0.003C440.165,350.252,440.162,350.252,440.158,350.251z M440.464,349.658
	c-0.055,0.131-0.094,0.26-0.16,0.393c-0.021,0.042-0.065,0.09-0.11,0.134c-0.039,0.018-0.075,0.043-0.062,0.057
	c-0.002,0.002-0.004,0.004-0.007,0.006c-0.469-0.037-0.583-0.117-1.074-0.42c-0.176-0.109-0.315-0.234-0.448-0.361
	c0.058-0.023,0.116-0.051,0.174-0.07C439.28,349.229,439.888,349.396,440.464,349.658z"/>
<path fill="#010101" d="M442.26,389.202c-2.775-0.083-5.905,1.288-7.275,3.714c-0.556,0.982-0.326,2.25,0.637,2.854
	c0.123,0.077,0.249,0.14,0.375,0.192c-0.257,0.891-0.348,1.807-0.103,2.732c0.446,1.688,2.465,2.499,3.734,3.449
	c0.801,0.599,1.26,1.02,2.314,0.947c0.984-0.067,1.818-0.598,2.572-1.186c0.992-0.771,1.715-2.021,2.246-3.134
	c1.16-2.43,1.703-5.58-0.015-7.876C445.707,389.506,443.851,389.249,442.26,389.202z M440.573,395.782
	c0.073,0.033-0.062-0.072-0.167-0.162c0.002-0.01-0.01-0.039-0.028-0.078c0.179-0.023,0.358-0.047,0.538-0.061
	c0.053-0.004,0.074-0.008,0.109-0.011c0.077,0.008,0.15,0.032,0.226,0.047c0.046,0.021,0.132,0.057,0.218,0.097
	c0.015,0.015,0.03,0.03,0.044,0.046c0.044,0.101,0.084,0.204,0.118,0.309c0.003,0.036,0.004,0.062,0.01,0.116
	c0.006,0.053,0.005,0.152,0.003,0.259C441.281,396.165,440.921,395.982,440.573,395.782z M441.314,395.483
	C441.284,395.461,441.288,395.463,441.314,395.483L441.314,395.483z"/>
<path fill="#010101" d="M560.516,320.045c-0.138-4.268-2.945-7.172-7.776-8.134c-0.653-0.13-1.297-0.185-1.933-0.193
	c1.057-0.962,1.859-2.111,2.285-3.465c0.571-1.812-1.032-3.231-2.734-3.116c-2.312,0.157-4.326,1.927-6.485,2.713
	c-2.689,0.977-5.5,1.528-8.336,1.832c-0.245-0.661-0.483-1.325-0.55-2.021c-0.18-1.843-2.93-0.769-3.057,0.617
	c-0.133,1.473-0.732,2.875-1.08,4.313c-0.277,1.153,0.363,1.963,1.408,2.302c2.665,0.867,6.579,1.062,10.32,0.406
	c-1.432,1.469-2.542,3.286-3.172,5.277c-2.265,7.153-1.256,15.674-0.992,23.035c0.398,11.136,1.139,22.258,1.909,33.373
	c1.506,21.73,3.618,43.568,2.927,65.369c-0.316,9.99-1.043,20.006-3.055,29.791c-0.829,4.037-1.132,8.176-1.266,12.286
	c-0.112,3.458-1.094,6.7-1.354,10.134c-0.076,0.998,0.67,1.906,1.455,2.394c2.857,1.773,6.074-0.788,6.968-3.54
	c0.066,1.042,0.099,0.218,0.141-0.576c0.018-0.128,0.026-0.255,0.022-0.381c0.007-0.116,0.015-0.225,0.023-0.316
	c0.126-1.395,0.57-2.808,0.857-4.176c0.668-3.193,0.498-6.473,0.679-9.711c0.217-3.885,1.077-7.738,2.002-11.504
	c0.952-3.873,0.911-8.304,1.254-12.275c1.472-17.045,0.988-33.969-0.036-51.023c-1.097-18.254-2.65-36.477-3.572-54.74
	c-0.388-7.685-0.738-15.397-0.808-23.092c-0.016-1.73-0.413-5.755,1.286-6.93c1.179-0.816,2.34-1.027,3.412-0.847
	c0.35,0.399,0.676,0.906,1.048,1.241c0.584,0.523,1.073,1.132,1.442,1.824c0.042,0.079,0.073,0.161,0.112,0.241
	c-0.097,0.025-0.194,0.044-0.292,0.071c-1.531,0.42-2.907,1.721-3.573,3.135c-0.635,1.35-0.726,3.71,0.982,4.4
	c2.289,0.923,3.95,1.953,6.533,1.66c2.182-0.248,4.93-2.419,4.598-4.886C561.856,323.653,561.383,321.743,560.516,320.045z
	 M544.687,490.549c0.003,0.004,0.005,0.008,0.008,0.013c-0.051-0.013-0.097-0.034-0.151-0.044
	C544.591,490.528,544.64,490.539,544.687,490.549z"/>
<path fill="#010101" d="M284.925,358.87c0.512-0.473,0.834-0.971,1.023-1.462c8.96-7.975,15.794-17.465,23.862-26.446
	c3.923-4.366,12.436-13.159,13.197-20.803c2.256,1.04,5.144,2.234,7.314,2.038c2.219-0.2,5.912-3.221,4.479-5.81
	c-1.426-2.575-4.453-2.786-7.105-3.391c-3.658-0.833-6.985-1.703-10.387-3.328c-1.292-0.617-2.982,0.189-3.832,1.395
	c-5.988,1.528-12.43,8.738-15.413,11.987c-2.657,2.894-5.219,5.963-7.479,9.18c-4.001,5.696-9.404,10.242-13.65,15.706
	c-1.424-0.731-3.614-1.543-5.868-1.944c-4.01-1.759-9.298-1.789-13.515-1.778c13.843-3.478,25.092-15.682,28.118-29.49
	c1.803-8.235,0.082-17.37-4.475-24.414c-4.374-6.762-13.022-12.847-21.369-12.495c0.425-0.191,0.843-0.397,1.253-0.623
	c0.127,0.005,0.254,0.011,0.403,0c6.41-0.502,11.102-0.027,16.869,3.053c5.129,2.738,9.684,6.461,14.69,9.41
	c1.79,1.054,3.874-0.927,4.339-2.521c2.967-10.191,4.237-29.067-6.279-35.597c-8.658-5.376-19.256,3.112-24.681,12.273
	c-0.044-0.023-0.08-0.056-0.125-0.077c-4.048-1.921-8.385-0.56-11.418,2.316c-3.188-7.515-8.878-14.04-16.691-16.769
	c-1.143-0.399-2.291-0.18-3.203,0.667c-0.055,0.051-0.103,0.099-0.156,0.149c-0.989,0.02-2.217,0.667-2.721,1.271
	c-0.078,0.093-0.144,0.188-0.219,0.281c0.512-1.819,0.915-3.169,1.086-3.773c0.357-1.253-1.373-0.722-1.754-0.083
	c-4.836,8.138-7.621,17.192-8.188,26.637c-0.238,3.965-0.224,10.059,4.018,12.066c3.471,1.643,7.943-0.626,11.046-2.094
	c4.213-1.992,8.227-4.334,12.582-5.897c0.839,0.397,1.832,0.534,2.853,0.576c0.297,0.012,0.584-0.008,0.876-0.015
	c-0.034,0.015-0.068,0.03-0.102,0.045c-16.875,2.463-31.524,21.132-31.962,37.236c-0.368,13.549,9.507,25.012,21.84,28.017
	c-3.506,0.15-7.011,0.445-10.393,0.986c-1.287-2.735-3.981-5.522-5.289-7.176c-2.014-2.545-3.995-5.099-6.004-7.646
	c-3.525-4.469-8.079-8.25-11.152-13.048c-2.281-3.56-4.631-8.471-7.983-11.717c-0.14-0.231-0.281-0.457-0.42-0.677
	c-0.485-0.77-0.99-1.452-1.653-2.077c-0.252-0.238-0.521-0.389-0.793-0.492c-0.364-0.835-1.045-1.317-2.12-1.839
	c-1.176-0.571-2.381,0.354-2.942,1.337c-6.044,10.567-1.503,22.272,4.14,31.924c3.245,5.549,7.032,10.767,10.725,16.021
	c3.479,4.949,6.174,9.985,9.051,15.253c0.252,0.462,0.592,0.762,0.972,0.955c0.403,0.861,0.846,1.7,1.302,2.507
	c0.666,1.177,1.769,3.265,3.154,4.82c0.407,3.033,1,6.037,1.777,8.956c0.093,0.35,0.284,0.64,0.529,0.882
	c-5.77,5.659-9.648,13.068-13.133,20.262c-4.133,8.533-7.496,17.427-10.882,26.274c-0.896,2.34,0.573,4.101,3.044,3.47
	c0.051-0.013,0.107-0.022,0.158-0.035c5.281,0.626,10.654,0.556,16,0.208c0.364,0.02,0.728,0.037,1.092,0.055
	c-1.722,4.724-2.189,10.288-2.529,14.45c-0.719,8.829,0.912,17.526,2.212,26.138c0.075,0.497,0.198,0.935,0.342,1.345
	c-2.026,0.679-3.947,1.556-5.615,2.707c-3.328,2.296-6.454,5.708-6.223,10.055c0.225,4.233,3.986,5.751,7.449,6.827
	c5.887,1.832,13.308-0.561,18.189-3.955c6.11-4.25,11.493-14.275,1.894-17.654c-0.223-1.485-0.433-2.968-0.62-4.447
	c-0.011-1.182-0.17-2.407-0.416-3.65c-0.43-4.296-0.646-8.613-0.508-13.053c0.137-4.356,0.812-8.698,1.56-12.986
	c0.306-1.754,0.929-3.594,1.502-5.452c2.918,0.012,5.814,0.025,8.667,0.077c3.769,0.068,7.54,0.101,11.31,0.079
	c-1.974,5.472-2.586,11.814-2.842,16.504c-0.467,8.564-0.315,19.116,2.337,27.798c-0.011,0.17-0.012,0.34-0.009,0.51
	c-0.087,0.063-0.178,0.126-0.261,0.189c-0.683,0.51-1.453,1.402-1.937,1.98c-0.159,0.18-0.308,0.367-0.445,0.563
	c-0.066,0.1-0.133,0.201-0.199,0.301c1.222-1.237,1.063-1.047-0.479,0.57c-1.25,1.65-1.91,3.828-2.18,5.861
	c-0.393,2.95,0.688,4.791,3.5,5.729c2.692,0.897,5.801,0.912,8.605,0.732c3.154-0.199,6.488-1.016,9.223-2.645
	c3.578-2.133,6.994-6.134,6.518-10.578c-0.368-3.442-2.829-5.837-5.715-7.439c-0.031-0.168-0.064-0.335-0.11-0.499
	c-2.227-7.91-4.013-15.479-4.604-23.734c-0.31-4.322-0.396-8.836,0.008-13.154c0.086-0.918,0.273-1.926,0.487-2.969
	c7.221-0.307,14.427-0.889,21.596-1.901c0.032-0.005,0.06-0.017,0.092-0.022c1.494,0.799,3.898-0.675,4.542-2.138
	c3.591-8.162-2.92-19.807-6.897-26.74c-4.071-7.096-9.104-15.242-14.968-21.585C278.775,366.644,281.089,362.413,284.925,358.87z
	 M271.764,373.66c-0.15,0.001-0.302,0.011-0.454,0.028c-0.019-0.044-0.039-0.086-0.057-0.13c0.139-0.041,0.279-0.08,0.416-0.128
	C271.7,373.508,271.731,373.584,271.764,373.66z M236.788,414.056c0.017,0.054,0.036,0.107,0.053,0.161
	c-0.091,0.005-0.182,0.01-0.272,0.016C236.641,414.173,236.717,414.117,236.788,414.056z M255.76,412.44
	c0.169,0.32,0.338,0.64,0.51,0.957c-0.111,0.003-0.221,0.005-0.332,0.008c-0.154,0.004-0.308,0.011-0.462,0.015
	C255.612,413.1,255.708,412.772,255.76,412.44z M229.622,374.164c0.088-0.008,0.178-0.015,0.266-0.023
	c-0.157,0.136-0.312,0.277-0.453,0.43c-0.115,0.124-0.226,0.253-0.34,0.378c0.126-0.26,0.248-0.521,0.372-0.782
	C229.518,374.165,229.572,374.169,229.622,374.164z M254.397,272.259c0.092-0.008,0.184-0.018,0.276-0.025
	c-0.868,0.306-1.716,0.694-2.54,1.16c-0.173-0.088-0.35-0.169-0.54-0.23C252.523,272.826,253.459,272.525,254.397,272.259z
	 M228.803,293.377c-0.326,0.837-0.626,1.682-0.905,2.534c-0.122,0.272-0.233,0.549-0.346,0.825c0.337-1.173,0.758-2.319,1.247-3.439
	C228.801,293.323,228.801,293.351,228.803,293.377z M267.476,324.757c0.009-0.004,0.018-0.008,0.028-0.011
	c-0.022,0.016-0.044,0.033-0.067,0.049C267.449,324.782,267.463,324.77,267.476,324.757z M232.333,271.847
	c0.198-0.05,0.396-0.107,0.594-0.172c0.111,0.027,0.225,0.051,0.342,0.071c-0.414,0.124-0.832,0.222-1.251,0.306
	C232.123,271.984,232.233,271.916,232.333,271.847z"/>
</svg>
