<?xml version="1.0" encoding="utf-8"?>
<!-- Generator: Adobe Illustrator 17.0.0, SVG Export Plug-In . SVG Version: 6.00 Build 0)  -->
<!DOCTYPE svg PUBLIC "-//W3C//DTD SVG 1.0//EN" "http://www.w3.org/TR/2001/REC-SVG-20010904/DTD/svg10.dtd">
<svg version="1.0" id="Layer_1" xmlns="http://www.w3.org/2000/svg" xmlns:xlink="http://www.w3.org/1999/xlink" x="0px" y="0px"
	 width="566.93px" height="566.93px" viewBox="0 0 566.93 566.93" enable-background="new 0 0 566.93 566.93" xml:space="preserve">
<path fill="#010101" d="M68.664,153.519c0.393,1.547,0.815,3.042,1.199,4.43c2.025,7.333,5.41,14.639,10.293,20.521
	c7.414,8.934,19.049,11.026,29.699,7.395c11.33-3.863,20.234-13.452,25.311-24.034c0.434-0.904,1.162-2.732,1.928-5.022
	c6.389,0.654,13.593-1.68,14.111-8.906c0.236-3.308-0.561-8.226-4.412-9.104c-2.389-0.544-4.884,0.384-6.712,2.04
	c-0.041-0.605-0.118-1.174-0.234-1.7c0.307-0.134,0.608-0.279,0.899-0.447c0.626-0.362,1.324-0.966,1.861-1.679
	c0.542-0.173,1.034-0.448,1.336-0.757c4.203-4.296,3.313-11.707,2.158-17.12c-1.391-6.521-5.133-12.6-9.611-17.446
	c-2.898-3.134-6.277-5.553-9.889-7.147c2.496-3.369,3.017-8.393,0.803-11.977c-3.887-6.288-11.613-9.889-18.381-12.086
	c-15.583-5.059-31.867,7.522-28.522,24.138C78,95.969,75.647,97.6,73.545,99.362c-4.342,3.639-7.15,9.138-8.828,14.451
	c-1.625,5.149-4.254,13.675-1.935,19.019c-0.237,0.603-0.166,1.21,0.523,1.524c9.611,4.392,22.322,1.046,30.473-5.19
	c3.708-2.837,7.271-6.625,8.874-11.112c0.664,2.555,1.726,5.008,3.085,7.183c2.184,3.494,5.801,5.719,9.337,7.724
	c-0.429,0.073-0.847,0.223-1.22,0.435c-0.153,0.087-0.31,0.195-0.465,0.313c-0.035,0.026-0.069,0.052-0.104,0.079
	c-0.684,0.543-1.319,1.339-1.398,2.16c-0.003,0.031-0.006,0.062-0.01,0.092c-0.035,0.187-0.058,0.378-0.057,0.568
	c-0.034,0.346-0.065,0.691-0.072,1.037c-0.004,0.233-0.012,0.45,0.033,0.679c0.055,0.282,0.098,0.566,0.182,0.841
	c0.069,0.233,0.195,0.406,0.345,0.558c-1.765,0.244-3.525,0.54-5.211,1.048c-1.448-2.301-3.459-3.978-6.468-3.231
	c-1.56,0.387-3.084,1.189-4.272,2.31c-0.021-0.02-0.034-0.041-0.056-0.061c-0.888-0.779-2.288-0.974-3.765-0.935
	c0.266-0.342,0.464-0.728,0.612-1.14c-0.016,0.05-0.027,0.084-0.044,0.142c0.131-0.24,0.223-0.498,0.273-0.773
	c0.082-0.382,0.078-0.565,0.039-0.872c-0.035-0.278-0.061-0.56-0.105-0.836c-0.104-0.645-0.391-1.118-0.823-1.41
	c-0.041-0.031-0.085-0.057-0.129-0.083c-0.038-0.021-0.077-0.04-0.117-0.058c-0.246-0.12-0.519-0.178-0.807-0.184
	c-0.093-0.005-0.185-0.012-0.284-0.008c-0.016,0.001-0.031,0.001-0.047,0.002c0.005,0.003,0.01,0.006,0.016,0.009
	c-0.47,0.043-0.949,0.192-1.352,0.377c-0.67,0.309-1.355,1.081-1.598,1.774c-0.001,0.002-0.002,0.005-0.002,0.007
	c-0.096,0.201-0.161,0.427-0.215,0.658c-0.002,0.006-0.004,0.013-0.006,0.02c-0.014,0.059-0.042,0.107-0.052,0.168
	c-0.027,0.154-0.067,0.302-0.108,0.451c-0.005,0.022-0.012,0.042-0.017,0.065c-0.002,0.01-0.004,0.019-0.006,0.029
	c-0.067,0.228-0.113,0.457-0.14,0.687c-0.001,0.005-0.002,0.011-0.003,0.016c-0.037,0.188-0.072,0.377-0.107,0.566
	c-0.07,0.375-0.034,0.661,0.031,0.985c-3.43,0.438-6.879,0.777-10.294,1.313c-0.624,0.097-1.404,0.769-1.829,1.485
	c-0.178,0.166-0.323,0.342-0.382,0.512c-2.412,6.838,4.68,12.501,11.184,11.746c3.833-0.445,11.354-5.763,10.376-10.5
	c0.058-0.07,0.111-0.141,0.153-0.214c0.619-1.092,1.635-2.849,3.133-2.774c1.656,0.082,2.701,1.154,2.684,2.806
	c-0.017,1.647,1.488,1.877,2.894,1.358c-0.043,3.449,2.618,6.621,5.485,8.269c3.102,1.781,7.338,0.525,10.078-1.304
	c2.67-1.783,4.773-4.375,5.771-7.428c0.436-1.333,0.159-2.335-0.491-2.948c0.528-1.129,0.304-3.01-1.264-3.14
	c-2.814-0.234-5.643,0.102-8.434,0.506c0.073-0.081,0.15-0.157,0.218-0.243c0.965-1.229,0.979-2.646,0.828-4.108l0,0c0,0,0,0,0,0
	c-0.009-0.158-0.057-0.3-0.098-0.445c3.652,1.959,8.572,4.277,13.31,5.248c-0.104,0.73,0.063,1.459,0.603,2.1
	c0.012,0.09,0.053,0.236,0.133,0.45c0.188,0.745,0.152,1.492,0.146,2.255c-0.012,2.24-0.537,4.523-0.979,6.71
	c-0.896,4.447-2.43,8.595-4.615,12.569c-4.145,7.535-11.424,13.54-19.725,15.778c-9.033,2.436-17.221-2.527-22.506-9.525
	c-3.795-5.026-6.422-11.074-8.555-16.962c-1.766-4.874-1.893-11.61-4.969-15.798c-0.488-0.665-1.518,0.073-1.764,0.579
	c-0.332,0.68-0.586,1.39-0.789,2.117c-2.361-2.19-6.217-2.696-9.028-1.281c-3.637,1.83-4.832,5.887-3.818,9.588
	C56.436,153.401,63.811,154.68,68.664,153.519z M91.07,145.514c-0.254,1.327,0.164,0.359-0.246,1.202
	c-0.686,1.411-2.07,2.456-3.514,2.963c-2.186,0.769-4.832-0.424-6.65-1.572c-1.456-0.918-2.034-2.343-2.448-3.855
	c2.307,0.063,4.624-0.217,6.932-0.295c1.656-0.056,3.314-0.067,4.971-0.078c0.498-0.003,0.959,0.097,1.415,0.204
	c-0.251,0.419-0.4,0.88-0.329,1.323c-0.034-0.209-0.052-0.357-0.065-0.478C91.132,145.081,91.114,145.283,91.07,145.514z
	 M143.469,141.693c1.467-0.214,2.746,0.823,3.211,2.097c0.678,1.85,1.088,5.209-0.004,6.954c-1.719,2.749-5.102,2.025-8.242,1.632
	c0.745-2.756,1.366-5.71,1.594-8.371C140.95,142.918,141.925,141.919,143.469,141.693z M90.084,78.063
	c3.947-3.329,10.637-3.06,15.203-1.445c4.805,1.699,9.553,4.429,13.189,8.008c1.299,1.277,2.609,2.91,2.875,4.767
	c0.154,1.078-0.819,2.143-1.784,3.153c-4.885-0.651-9.899,0.178-14.527,2.726c-0.198-0.549-0.593-1.057-1.251-1.476
	c-5.968-3.798-12.758-3.495-19.021-1.133C85.736,87.392,85.603,81.845,90.084,78.063z M120.747,143.907
	c-0.117,0.567-0.023,1.12,0.4,1.531c-0.046,0.085-0.109,0.197-0.219,0.376c-0.797,1.295-1.891,2.23-3.213,2.951
	c-1.76,0.96-4.09,0.167-5.689-0.711c-1.399-0.768-2.074-2.198-2.846-3.53c1.474,0.01,2.972-0.191,4.408-0.338
	C116.02,143.936,118.351,143.841,120.747,143.907z M111.986,122.538c-4.838-4.535-5.24-11.003-6.801-16.936
	c-0.185-0.7-0.728-0.678-1.253-0.394c-1.278-0.847-3.652-0.074-4.586,0.836c-2.059,2.004-2.063,3.962-2.459,6.648
	c-0.621,4.192-1.781,7.252-4.902,10.271c-6.399,6.191-16.9,8.157-25.587,8.2c1.186-3.798,1.294-8.065,2.121-11.938
	c1.131-5.29,3.195-10.368,6.615-14.583c4.043-4.983,17.967-11.438,22.75-4.51c0.839,1.216,2.233,1.286,3.58,0.731
	c0.521,0.325,1.256,0.369,2.104-0.119c10.436-6.008,20.834-1.939,28.412,6.431c3.709,4.095,6.223,9.107,7.678,14.407
	c0.713,2.598,0.936,5.465,0.701,8.146c-0.07,0.796-0.238,1.541-0.4,2.271c-1.04,0.28-2.818,0.933-2.248,0.935
	c-1.457,0.123-3.013-0.294-4.412-0.596c-4.215-0.91-8.262-2.595-12.156-4.411C117.988,126.456,114.555,124.946,111.986,122.538z
	 M58.66,142.676c1.555-3.803,6.193-1.426,8.751-0.545c-0.284,2.421-0.06,4.986,0.399,7.515c-0.162,0.028-0.323,0.056-0.484,0.081
	c-2.078,0.32-3.391,0.028-5.393-0.792C59.477,147.93,57.535,145.427,58.66,142.676z"/>
<path fill="#010101" d="M91.136,144.928C91.146,144.573,91.089,144.497,91.136,144.928L91.136,144.928z"/>
<path fill="#010101" d="M98.324,168.079c2.223,1.623,5.324,1.704,7.91,1.04c1.294-0.331,2.646-0.818,3.894-1.377
	c0.361-0.034,0.747-0.146,1.142-0.367c2.09-1.173,3.406-3.706,1.336-5.567c-2.217-1.991-5.41,0.819-5.137,3.338
	c-2.381,1.366-5.739,1.091-8.361,1.275C98.373,166.473,97.57,167.528,98.324,168.079z"/>
<path fill="#010101" d="M192.379,282.221c-1.449-0.071-2.516,0.183-3.789,0.906c-2.256,1.283-3.809,4.102-2.25,6.461
	c2.234,3.378,8.396,0.143,10.5-1.911c1.643-1.604,4.793-6.116,2.648-8.337c-0.643-0.665-1.58-0.51-2.324-0.124
	c-0.887,0.461-1.623,1.247-2.244,2.006c0.215-0.263-0.676,0.542-0.59,0.475c-0.118,0.093-0.197,0.158-0.252,0.205
	c-0.049,0.028-0.107,0.063-0.179,0.106c-0.082,0.049-0.142,0.086-0.192,0.119c-0.058,0.019-0.128,0.042-0.226,0.078
	c-0.062,0.022-0.111,0.042-0.155,0.059c-0.063-0.004-0.162-0.002-0.326,0.01C193.793,282.214,192.393,282.222,192.379,282.221z"/>
<path fill="#010101" d="M7.525,472.951C6.843,473.596,7.168,473.699,7.525,472.951L7.525,472.951z"/>
<path fill="#010101" d="M11.042,480.322c5.465-1.24,7.043-7.228,7.322-12.027c0.35-6.051,0.197-12.164,0.08-18.221
	c-0.346-17.749,2.189-35.554,3.531-53.233c1.604-21.127,3.465-42.09,3.467-63.307c0-6.761-0.51-13.519-0.332-20.279
	c0.088-3.329,0.41-6.854,1.666-9.966c1.408-3.486,7.35-1.963,8.828,0.893c1.36,2.624,5.319-0.23,4.61-2.625
	c-1.607-5.43-6.154-7.777-11.085-7.041c-0.073-1.352-0.843-2.406-2.699-2.128c-1.51-1.692-2.134-3.714-2.399-6.07
	c-0.232-2.046,0.083-4.274-0.7-6.177c0.128,0.061,0.254,0.125,0.388,0.179c0.041,0.017,0.084,0.022,0.125,0.037
	c0.157,2.967,3.076,3.78,5.525,3.101c8.295-2.302,15.057-6.465,16.301-15.459c0.717-5.187,1.148-10.412,1.887-15.596
	c0.988-6.951,2.103-15.633,5.946-21.687c-3.032,16.779-3.511,36.992,15.683,43.642c0.77,0.267,1.545,0.509,2.326,0.731
	c-7.553,6.301-11.509,16.275-14.728,25.316c-3.826,10.743-6.617,22.044-8.973,33.192c-2.779,13.146-4.725,26.954-5.629,40.359
	c-0.436,6.467-0.271,12.97-0.463,19.447c-0.105,3.579-0.412,7.119-0.967,10.656c-0.342,2.191-1.27,4.504-0.83,6.748
	c0.02-0.009,0.039-0.017,0.059-0.026c0.033,0.384,0.088,0.778,0.185,1.207c0.044,0.195,0.099,0.375,0.161,0.544
	c-0.059,0.073-0.121,0.133-0.178,0.214c-4.906,6.862,5.111,12.395,10.396,14.121c5.71,1.866,12.655,2.402,18.858,2.891
	c-0.137,1.316-0.135,2.666-0.188,3.894c-0.174,3.946-0.287,7.89-0.217,11.839c0.06,3.439-0.778,12.002,2.418,14.94
	c-5.303,3.565-9.354,10.88-6.614,16.941c0.093,0.207,0.218,0.35,0.358,0.45c-0.212,0.836-0.219,1.75,0.046,2.747
	c0.268,1.015,1.467,1.864,2.469,1.982c4.77,0.563,8.936,3.071,13.68,3.734c5.004,0.698,9.381-1.365,13.273-4.276
	c3.604-2.696,5.121-5.996,5.124-9.321c0.437-0.475,0.785-1.003,0.99-1.558c2.098-5.694,0.232-13.053-0.135-19.017
	c-0.277-4.508-0.115-9.176-0.493-13.728c6.977,0.309,14.24-0.433,20.969-2.317c-0.769,5.789,0.458,12.156,0.819,17.793
	c0.215,3.371,0.287,6.739,0.18,10.115c-0.096,3.02-1.748,6.399,0.674,8.778c0.314,0.309,0.672,0.507,1.051,0.619
	c-0.448,2.151-0.46,4.372,0.47,5.974c-0.273,0.459-0.493,0.923-0.627,1.367c-2.766,9.135,11.871,10.03,17.273,9.148
	c8.682-1.417,17.395-6.799,18.02-16.306c0.222-3.378-1.512-7.034-3.879-9.767c2.502-4.41,0.551-11.777,0.16-16.446
	c-0.342-4.061-0.453-8.891-1.7-13.092c3.452-0.274,6.864-0.899,10.242-1.801c3.178-0.849,7.464-2.253,10.219-4.746
	c3.749,2.066,10.646-3.291,8.53-7.573c-4.535-9.186-4.307-19.418-4.174-29.475c0.16-12.253-0.213-23.762-2.438-35.896
	c-2.684-14.631-6.607-29.101-10.539-43.437c-1.926-7.015-4.023-13.994-6.711-20.758c-2.431-6.123-5.141-12.521-9.785-17.276
	c15.53-6.801,18.795-27.704,18.597-42.909c-0.131-10.121-1.572-20.165-2.998-30.167c-0.791-5.555-0.895-11.118-1.5-16.686
	c-0.28-2.575-0.891-5.196-2.021-7.546c3.294,3.024,6.035,6.672,8.523,10.352c5.594,8.269,9.594,17.373,13.152,26.66
	c3.848,10.044,7.258,20.277,9.57,30.791c1.16,5.279,1.785,10.689,1.867,16.091c0.035,2.349-0.205,4.647-0.639,6.953
	c-0.06,0.313-0.137,0.624-0.222,0.932c-0.897,0.113-1.856-0.051-3.011-0.8c-3.348-2.172-5.637-6.808-7.59-10.134
	c-4.248-7.235-7.377-15.272-11.061-22.808c-0.484-0.991-2.041,0.09-1.738,0.991c1.482,4.416,1.314,9.522,2.055,14.109
	c0.955,5.903,2.168,12.123,4.555,17.626c2.064,4.764,5.145,9.276,10.256,10.995c5.742,1.931,14.193-1.344,15.748-7.446
	c0.139-0.545,0.125-1.114,0.003-1.653c2.514-7.612,0.635-18.204-0.648-24.65c-2.424-12.179-6.781-23.9-11.52-35.345
	c-4.158-10.046-8.879-19.998-15.494-28.69c-3.502-4.603-7.668-8.664-12.461-11.904c-2.96-2-5.854-2.764-8.913-3.007
	c-0.958-1.621-3.325-2.104-5.003-1.402c-1.094,0.457-2.063,0.98-2.936,1.575c-4.021-0.803-10.708,4.406-8.332,8.62
	c0.038,0.068,0.072,0.116,0.108,0.169c-0.479,0.958-1.188,1.82-1.825,2.676c-1.695,2.276-3.639,4.349-5.691,6.302
	c-5.676,5.404-12.846,8.879-20.561,10.142c-15.116,2.474-33.466-2.244-39.581-17.715c0.912-0.603,1.812-1.225,2.679-1.903
	c0.783-0.613,1.391-2.774-0.182-2.868c-10.922-0.656-21.424,11.497-27.76,18.974c-8.805,10.394-16.461,22.176-21.469,34.861
	c-4.123,10.449-6.033,21.349-6.193,32.533c-0.082,5.746-0.362,17.226,4.821,21.88c-0.563,0.241-1.094,0.745-1.293,1.128
	c-2.607,4.988-1.7,12.431,1.54,16.991c0.012,0.483,0.111,0.893,0.273,1.242c-3.278,3.758-4.385,9.77-4.917,14.266
	c-0.789,6.695-0.479,13.457-0.563,20.182c-0.15,11.912-0.654,23.831-1.424,35.718c-1.512,23.304-4.086,46.557-5.877,69.846
	c-0.5,6.489-0.455,12.845-0.367,19.348c0.045,3.285,0.162,6.63-0.223,9.897c-0.178,1.516-0.451,3.014-0.771,4.506
	c-0.086,0.401-0.198,0.706-0.308,0.936c0.321-0.304,0.859-0.724,1.732-1.234C4.737,474.362,4.544,481.797,11.042,480.322z
	 M91.648,453.404c-0.082,2.078-0.074,4.163-0.049,6.247c-3.727-2.325-8.129-2.944-12.362-2.235c0.2-0.564,0.285-1.145,0.219-1.714
	c-0.211-1.832-1.389-3.162-1.861-4.983c-0.82-3.168-0.982-6.554-1.258-9.804c-0.262-3.101-0.537-6.199-0.752-9.303
	c-0.059-0.842-0.077-1.778-0.153-2.712c0.239-0.143,0.474-0.299,0.702-0.464c2.728,5.621,11.395,8.339,17.378,9.317
	C91.867,442.716,91.851,448.216,91.648,453.404z M88.547,477.762c-3.178,1.309-7.529-1.526-10.346-2.713
	c-2.947-1.241-6.801-2.749-9.826-1.022c-0.123,0.07-0.229,0.15-0.345,0.223c1.119-5.053,2.553-9.585,8.597-10.707
	c5.902-1.096,12.125,1.938,15.055,7.158c0.002,0.004,0.003,0.007,0.005,0.01c0.116,0.75,0.309,1.47,0.63,2.135
	c0.033,0.069,0.076,0.121,0.112,0.186C92.553,475.187,90.915,476.787,88.547,477.762z M147.369,446.519
	c-0.001,4.113-0.15,8.222-0.354,12.328c-2.938-0.672-6.028-0.45-9.168,0.276c-2.636,0.609-5.147,1.928-7.32,3.663
	c-0.044-3.313-0.682-6.751-1.059-9.598c-0.523-3.949-1.238-7.874-1.842-11.811c-0.364-2.371-0.54-4.837-1.074-7.195
	c2.172-1.133,3.345-3.12,3.58-4.967c4.452,3.446,13.688,4.9,17.235,5.134C146.995,438.367,147.371,442.531,147.369,446.519z
	 M150.229,476.642c-0.766,3.368-6.875,3.995-9.551,4.134c-1.855,0.097-3.857-0.15-5.564-0.9c-1.764-0.773-1.379-1.461-2.836-3.03
	c-0.935-1.006-2.027-1.312-3.118-1.167c0.017-2.133-0.063-4.229,1.319-6.365c1.916-2.962,5.422-4.717,8.838-5.16
	C145.871,463.304,151.658,470.358,150.229,476.642z M153.086,293.739c2.203,7.393,3.857,14.933,5.371,22.492
	c3.014,15.035,6.15,30.113,8.477,45.271c1.82,11.857,1.398,23.225,1.08,35.134c-0.186,6.888-0.73,15.991,1.525,23.401
	c-6.781,4.527-15.802,5.917-23.823,5.499c-4.021-0.209-8.037-1.026-11.809-2.433c-0.287-0.107-0.721-0.29-1.224-0.478
	c0.537-2.864,0.238-6.057,0.166-8.822c-0.186-7.103-0.809-14.168-1.596-21.226c-0.844-7.551-1.732-15.096-2.518-22.653
	c-0.494-4.762-1.701-9.692-1.871-14.456c-0.037-1.083-1.631-0.296-1.652,0.53c-0.307,12.157-0.447,24.338-0.672,36.517
	c-0.133,7.199-0.225,14.406-0.447,21.603c-0.127,4.102-1.492,8.731-1.105,12.091c-6.744,3.134-15.2,3.561-22.447,3.536
	c-4.479-0.015-8.986-0.672-13.287-1.903c-2.723-0.78-4.953-2.295-7.301-3.624c0.277-0.494,0.472-1.036,0.545-1.624
	c0.279-2.253-0.238-4.626-0.328-6.909c-0.189-4.869-0.441-9.73-0.717-14.594c-0.355-6.264,0.221-12.675,0.346-18.951
	c0.137-6.901-0.16-13.993,0.602-20.855c0.107-0.971-1.264-0.631-1.371,0.111c-1.898,13.198-4.936,26.246-6.795,39.481
	c-0.766,5.452-0.641,11.193-0.85,16.692c-0.024,0.632-0.097,1.3-0.18,1.981c-0.891-0.053-1.77-0.084-2.593-0.134
	c-3.934-0.238-7.846-0.417-11.736-1.079c-3.426-0.582-6.666-1.801-9.314-4.112c-0.349-0.304-0.741-0.65-1.162-0.993
	c2.416-1.537,4.461-4.363,3.863-6.998c-0.16-0.705,0.936-4.815,1.086-6.284c0.273-2.673,0.377-5.358,0.443-8.043
	c0.154-6.428-0.18-12.86-0.105-19.289c0.145-12.542,1.93-25.512,3.832-37.899c3.031-19.725,7.416-41.852,18.436-58.803
	c0.041-0.063,0.053-0.118,0.085-0.178c11.44,2.593,23.775,1.096,35.3,0.373c11.697-0.732,23.436,1.318,34.992-1.319
	c0.772-0.176,1.511-0.393,2.235-0.627C148.168,280.856,151.117,287.136,153.086,293.739z M110.051,202.136
	c10-1.898,19.186-7.017,26.461-14.086c2.942-2.86,7.625-7.432,10.114-12.219c2.383,2.742,5.153,5.111,6.239,8.948
	c1.498,5.292,0.809,11.364,1.566,16.833c1.205,8.685,2.484,17.346,3.025,26.105c0.555,8.968,0.488,18.643-2.766,27.148
	c-3.67,9.594-10.908,11.521-20.557,11.776c-5.828,0.153-11.66-0.265-17.488-0.294c-6.807-0.034-13.627,0.82-20.422,1.173
	c-10.811,0.562-24.574,0.663-31.795-8.85c-5.033-6.628-4.123-16.635-3.135-24.345c1.123-8.763,3.783-17.507,4.006-26.359
	c0.199-7.999-2.563-18.152,0.613-25.904C67.275,200.974,93.994,205.184,110.051,202.136z M26.662,252.72
	c-0.109-9.69,1.68-19.173,5.033-28.272c3.877-10.519,10.014-20.186,16.502-29.269c3.324-4.654,7.025-8.983,11.268-12.824
	c0.91-0.825,1.871-1.567,2.857-2.268c-4.296,6.574-4.469,15.662-4.765,23.199c-0.348,8.912-2.202,17.413-3.816,26.141
	c-0.285-0.246-0.833-0.225-1.165,0.25c-6.994,10.024-11.787,19.994-14.729,31.933c-0.592,2.398-1.184,7.669-2.008,9.011
	c-0.054,0.087-0.096,0.159-0.13,0.22c-0.076,0.051-0.186,0.135-0.339,0.266c0.836-0.711-0.996,0.555-0.98,0.546
	c-0.769,0.414-1.585,0.737-2.411,1.041c-0.118-0.261-0.253-0.522-0.429-0.778c-0.16-0.235-0.322-0.471-0.482-0.706
	c-0.456-0.665-1.034-1.015-1.667-1.154C26.106,266.096,26.709,256.972,26.662,252.72z"/>
<path fill="#010101" d="M386.771,147.738c0.758,2.335,2.723,3.948,4.986,4.682c1.283,0.416,2.988,0.336,4.567-0.147
	c1.395,5.372,3.739,10.569,7.433,15.612c6.043,8.251,16.121,12.79,26.262,11.484c15.016-1.933,24.181-13.963,28.313-27.957
	c1.829,0.316,3.919-0.215,5.412-1.063c2.089-1.186,3.573-3.392,4.166-5.731c5.294-1.296,10.891-4.932,13.864-8.039
	c4.146-4.334,6.383-10.641,2.971-16.098c-3.121-4.991-8.896-7.495-14.783-9.007c1.571-0.348,3.076-2.235,1.882-3.469
	c-0.44-0.455-0.817-0.748-1.194-0.956c-1.82-1.424-3.748-2.642-5.763-3.676c1.162-1.532,1.753-3.358,1.121-4.892
	c-3.697-8.953-7.236-19.07-15.6-24.743c-4.127-2.799-9.277-2.601-13.898-1.516c-3.924,0.922-10.174,7.944-14.18,4.738
	c-4.121-3.299-6.436-5.785-12.066-4.449c-4.084,0.969-7.57,4.908-9.852,8.169c-4.364,6.235-8.174,15.924-7.187,23.885
	c-0.413,0.345-0.762,0.745-1.022,1.184c-2.884,2.707-5.986,5.143-8.32,8.399c-0.615,0.86-0.129,1.814,0.949,1.56
	c3.786-0.891,7.027-3.906,10.042-5.806c1.625-0.36,3.122-1.99,3.435-3.464c0.01-0.04,0.018-0.081,0.027-0.121
	c0.258-1.219-0.304-2.322-1.466-2.696c1.852-7.139,4.059-14.236,8.544-20.236c2.262-3.024,4.965-5.035,7.768-1.552
	c3.045,3.784,6.49,5.339,11.432,4.826c7.258-0.754,12.742-9.82,20.172-3.88c4.965,3.971,7.487,10.666,9.664,16.838
	c-5.359-1.26-10.954-1.753-16.418-1.869c-11.814-0.249-26.088,1.491-36.465,7.598c-0.45,0.266-0.476,1.027,0.181,0.869
	c10.949-2.628,21.457-4.714,32.781-4.833c6.849-0.072,14.368,0.584,21.21,2.797c0.152,0.162,0.32,0.317,0.526,0.454
	c0.135,0.171,0.27,0.342,0.406,0.514c1.052,1.553,2.724,1.742,4.38,1.147c2.605,1.27,5.038,2.838,7.203,4.766
	c-2.515-0.57-5.006-0.99-7.272-1.364c-12.152-2.005-24.66-1.387-36.84-0.026c-9.469,1.059-19.107,2.45-28.355,4.801
	c-6.221,1.582-12.859,3.812-17.996,7.78c-4.045,3.125-7.277,8.246-4.117,13.166c2.804,4.366,8.741,6.166,14.195,6.08
	C386.53,143.272,386.069,145.573,386.771,147.738z M394.543,147.051c-0.578-0.096-0.197-0.007-0.51-0.135
	c-0.359-0.147-0.697-0.336-1.025-0.543c-0.082-0.059-0.128-0.092-0.157-0.111c-0.144-0.125-0.282-0.257-0.415-0.392
	c-0.262-0.267-0.484-0.571-0.691-0.881c0.219,0.326-0.158-0.387-0.193-0.471c-0.057-0.137-0.324-0.975-0.26-0.639
	c-0.141-0.722-0.145-0.571,0.098-1.075c-0.202,0.418,0.243-0.179,0.182-0.174c0.197-0.172,0.44-0.321,0.791-0.506
	c0.761-0.404,1.583-0.594,2.344-0.946c0.094,2.001,0.278,3.978,0.57,5.931C395.079,147.135,394.899,147.11,394.543,147.051z
	 M459.271,147.872c0.293-1.27,0.539-2.551,0.754-3.836c0.286,0.256,0.645,0.473,1.105,0.622c0.517,0.168,1.063,0.27,1.62,0.343
	c-0.179,0.748-0.403,1.396-1.036,1.963C461.028,147.579,460.155,147.753,459.271,147.872z M379.555,132.564
	c-3.309-4.09,1.592-6.518,4.842-8.105c10.982-5.367,24.559-6.313,36.451-7.591c9.23-0.992,18.516-1.307,27.781-0.688
	c8.461,0.565,17.973,1.794,25.375,6.193c3.492,2.076,5.715,5.796,3.031,9.351c-3.631,4.81-10.504,4.295-15.393,6.687
	c-0.358,0.175-0.685,0.412-0.98,0.684c0.59-6.522,0.209-12.972-1.088-18.601c-0.494-2.139-3.771-1.33-4.809-0.255
	c-0.578,0.621-1.174,1.223-1.787,1.808c-1.307,1.273-1.541,3.583,0.701,3.699c2.298,17.799-1.915,44.765-23.275,47.515
	c-9.025,1.162-16.863-4.108-22.207-10.899c-7.998-10.164-9.799-24.115-11.412-36.548c-0.111-0.851-1.336-0.356-1.41,0.284
	c-0.486,4.167-0.769,8.223-0.747,12.187c-0.09-0.099-0.214-0.184-0.382-0.247C389.305,136.161,383.189,137.056,379.555,132.564z"/>
<path fill="#010101" d="M437.8,140.812c-1.112-1.596-4.998-0.368-6.579,0.191c-2.135,0.755-3.736,1.792-6.039,1.888
	c-3.244,0.135-6.813-0.109-9.945,0.751c-0.404,0.112-1.079,0.847-0.769,1.31c-1.95,1.981-3.695,4.176-5.743,6.046
	c-1.104,1.009-1.908,3.049-0.311,4.027c9.928,6.075,23.865,5.165,34.697,2.355c1.555-0.403,3.039-2.145,2.932-3.793
	C445.801,149.867,442.158,142.185,437.8,140.812z M413.608,151.068c0.937-1.632,2.076-3.158,2.938-4.841
	c3,1.24,7.236,1.34,10.041,0.975c1.389-0.181,2.83-0.344,4.17-0.756c0.553-0.17,1.103-0.354,1.655-0.532
	c0.648,0.757,1.541,0.799,2.747,1.332c2.056,0.908,3.41,3.106,4.128,5.357C430.904,154.33,421.44,154.384,413.608,151.068z"/>
<path fill="#010101" d="M404.52,134.517c1.26,4.047,5.979,4.781,9.496,4.053c3.635-0.753,6.898-3.973,7.3-7.705
	c0.732-0.396,1.493-0.739,2.362-0.954c1.664-0.413,3.401-0.278,5.07,0.083c-0.276,0.946,0.476,1.836,1.644,1.473
	c0.099,0.01,0.197,0.022,0.299,0.013c0.109-0.009,0.218-0.036,0.327-0.063c0.202,0.763,0.53,1.492,1.007,2.134
	c3.094,4.168,9.266,3.329,12.502-0.201c3.301-3.602,3.035-10.779-2.305-12.352c-2.469-0.728-5.059-0.004-7.199,1.307
	c-1.127,0.69-3.417,2.568-3.874,4.322c-3.089-0.535-7.193-0.382-10.059,1.305c-0.801-3.099-3.313-5.643-6.651-5.997
	c-2.068-0.219-4.146,0.501-5.758,1.789c-0.791,0.631-1.682,1.591-2.143,2.631C404.565,128.546,403.568,131.466,404.52,134.517z
	 M442.865,129.944c-0.463,2.551-3.43,3.402-5.629,2.927c-1.713-0.37-2.832-1.824-3.4-3.374c-0.149-0.407-0.225-0.778-0.248-1.122
	c1.434-0.797,2.218-2.351,3.647-3.188c0.084-0.015,0.196-0.074,0.297-0.157c0.357-0.172,0.75-0.304,1.204-0.367
	C441.744,124.248,443.344,127.302,442.865,129.944z M411.454,127.492c0.5-0.664,2.271-0.094,2.898,0.41
	c1.168,0.938,2.24,3.03,1.668,4.54c-0.479,1.26-2.09,1.598-3.285,1.681c-1.746,0.122-2.775-0.783-3.824-2.016
	c-0.534-0.628-0.734-1.444-0.714-2.32C409.464,129.622,410.894,128.237,411.454,127.492z"/>
<path fill="#010101" d="M531.479,221.633c-5.805-9.531-12.555-18.499-20.166-26.658c-5.512-5.909-12.563-13.232-20.411-16.283
	c-0.006-0.259,0.004-0.521-0.017-0.778c-0.087-1.097-0.801-1.495-1.627-1.475c-1.786-2.307-5.708-3.924-7.687-5.132
	c-4.652-2.839-9.607-5.723-13.367-9.696c-1.239-1.31-2.973-0.485-3.964,0.805c-2.04-0.86-6.015,1.096-6.726,3.887
	c-0.013,0.001-0.026,0.002-0.039,0.003c-0.193,1.651-0.981,3.227-0.59,4.815c-2.948,9.642-18.105,13.672-26.449,14.359
	c-6.365,0.524-12.74-0.551-18.637-2.969c-2.818-1.156-5.092-2.68-7.242-4.846c-1.801-1.812-2.848-4.399-4.918-5.894
	c-0.481-0.346-1.103-0.003-1.49,0.45c0.356-0.542,0.675-1.104,0.941-1.689c0.756-1.662-0.869-2.593-2.279-1.83
	c-3.398,1.838-6.529,4.06-10.021,5.771c-3.704,1.814-7.543,3.043-11.47,4.185c-3.358-0.202-7.498,3.815-5.78,6.491
	c-0.281-0.241-0.769-0.232-1.105-0.021c-4.891,3.077-7.998,9.37-11.33,13.967c-4.094,5.648-8.035,11.333-11.643,17.308
	c-7.859,13.012-14.773,26.427-21.893,39.848c-3.441,6.485-4.426,15.095-5.865,22.195c-0.682,3.362-4.756,14.964,1.641,15.053
	c0.466,0.007,0.912-0.093,1.334-0.255c1.391,1.31,3.138,2.359,4.695,3.188c2.593,1.379,6.304,3.426,9.541,3.456
	c0.072,0.147,0.151,0.291,0.249,0.428c0.082,0.114,0.162,0.229,0.244,0.343c0.871,1.221,2.58,1.003,3.807,0.746
	c12.07-2.523,19.697-16.478,24.299-26.693c2.92-6.479,5.156-13.278,6.979-20.139c1.098-4.135,3.975-12.029,1.625-16.133
	c-0.355-0.622-1.111-0.2-1.379,0.281c-2.287,4.124-2.746,9.563-4.182,14.045c-2.182,6.81-5.154,13.39-8.488,19.706
	c-2.949,5.587-6.363,10.991-10.572,15.716c-1.539,1.726-3.359,3.211-5.363,4.349c-0.947,0.537-1.854,0.849-2.73,1.163
	c-1.712-2.058-5.847-2.132-8.314-2.759c-2.425-0.616-4.679-1.475-6.754-2.693c0.005-0.015,0.012-0.033,0.016-0.045
	c0.305-0.913,0.279-2.112,0.426-3.066c0.549-3.539,1.236-7.057,1.943-10.566c1.584-7.837,3.342-14.914,6.988-22.031
	c6.281-12.26,12.643-24.416,19.277-36.486c3.268-5.947,7.016-11.667,10.629-17.409c2.33-3.706,6.387-8.444,6.15-13.031
	c-0.004-0.08-0.021-0.15-0.044-0.214c0.101,0.124,0.219,0.244,0.348,0.36c-1.012,7.25,2.21,14.793,4.601,21.498
	c3.315,9.3,5.409,18.677,1.605,28.187c0,0.001-0.001,0.003-0.001,0.004v0c0,0,0,0.001,0,0.001c-0.405,1.013-0.497,1.843-0.369,2.508
	c-0.005,0.016-0.015,0.033-0.02,0.049c-4.434,14.903-6.01,30.852-8.447,46.182c-2.516,15.819-4.92,31.657-6.619,47.587
	c-3.161,29.617-4.039,59.637,1.324,89.01c0.096,1.023,0.181,1.972,0.355,2.924c-0.678,0.621-1.053,1.553-0.419,2.229
	c5.645,6.028,13.492,9.037,21.482,10.995c-1.521,4.291,0.048,10.972,0.586,14.582c1.147,7.696,3.01,15.313,4.929,22.859
	c-4.962,2.859-9.021,7.425-8.097,12.568c-2.443,0.829-4.282,3.484-3.688,6.166c0.766,3.457,7.002,4.237,9.92,4.837
	c4.49,0.922,9.139,1.239,13.717,1.169c7.582-0.116,18.266-2.715,18.275-12.097c0.001-1.042-0.225-2.059-0.598-3.046
	c3.27-5.541,0.717-14.556-0.334-20.343c-0.846-4.654-1.775-9.299-2.463-13.98c-0.438-2.976-0.459-5.974-0.615-8.957
	c4.649,0.033,9.297-0.108,13.91-0.359c9.756-0.531,19.475-1.702,29.132-3.323c-1.514,7.151,0.587,16.19,1.37,22.913
	c1.039,8.939,2.277,18.359,0.494,27.273c-0.143,0.712-0.081,1.353,0.175,1.912c-0.036,1.3,0.079,2.565,0.398,3.726
	c-2.319,1.756-4.259,5.246-1.198,6.436c8.197,3.188,19.316,4.765,28.014,3.648c4.701-0.603,9.451-2.944,11.65-7.341
	c2.338-4.678,0.643-9.688-1.658-14.022c-1.659-3.125-3.839-6.254-6.437-8.808c2.127-5.755,1.136-14.907,0.808-18.556
	c-0.51-5.635-1.555-11.252-2.814-16.765c-0.444-1.945-1.002-4.315-1.828-6.52c3.447-0.856,6.883-1.745,10.304-2.665
	c2.669,2.317,6.698-0.39,8.339-3.483c2.459-4.634,2.414-11.424,2.879-16.548c1.748-19.237-0.02-38.59-2.221-57.709
	c-2.246-19.495-4.436-39.083-7.688-58.438c-2.895-17.231-5.467-35.457-11.181-52.137c0.266-0.203,0.502-0.427,0.71-0.663
	c5.018,8.009,9.093,16.695,12.969,25.223c4.676,10.29,9.34,22.102,16.518,30.913c5.66,6.947,13.645,12.235,22.107,7.142
	c3.327-2.002,12.148-11.785,10.735-17.011c0.953-1.108,1.612-2.394,1.605-3.385C552.123,260.882,542.316,239.433,531.479,221.633z
	 M409.891,461.355c0.621,4.593,1.327,9.172,1.728,13.791c-3.662-3.339-8.552-4.214-13.371-3.848
	c-0.075,0.006-0.153,0.017-0.229,0.024c-0.227-0.54-0.609-1.059-1.187-1.543c-2.956-10.462-4.97-21.044-7.484-31.583
	c0.656,0.129,1.31,0.254,1.96,0.377c6.214,1.17,12.535,1.78,18.875,2.012C408.039,447.088,409.013,454.885,409.891,461.355z
	 M399.443,490.824c-2.811-0.15-5.607-0.55-8.367-1.089c-1.227-0.24-2.438-0.544-3.641-0.879c-0.521-0.145-1.012-0.305-1.516-0.495
	c-0.084-0.031-0.14-0.059-0.207-0.089c0.44-3.257,0.72-6.407,3.66-8.493c0.747-0.53,1.555-0.95,2.402-1.274
	c1.097,0.123,2.379-0.235,3.308-0.775c1.614-0.185,3.261-0.134,4.823,0.111c3.684,0.578,5.9,2.839,8.209,5.57
	c1.027,1.214,1.895,2.511,2.57,3.948c0.384,0.82,0.24,1.944,0.477,1.964c-0.559,0.402-1.617,0.799-2.92,1.05
	C405.375,490.927,402.35,490.979,399.443,490.824z M491.268,494.099c-2.486,1.496-6.764,0.888-9.477,0.647
	c-5.518-0.49-11.173-2.645-16.725-2.93c0.188-0.702,0.353-1.43,0.507-2.173c2.848-2.477,3.619-7.065,3.558-11.876
	c1.066-1.611,2.521-2.924,4.611-3.723c3.18-1.214,6.061-0.244,8.541,1.712c0.031,0.156,0.072,0.307,0.127,0.45
	c0.333,0.88,1.074,1.315,1.911,1.457c2.656,2.874,4.707,6.648,5.976,9.331C490.963,488.401,493.184,492.948,491.268,494.099z
	 M483.977,453.093c0.287,4.733,0.592,9.524,0.119,14.257c-0.021,0.204-0.059,0.423-0.104,0.646
	c-3.46-1.342-7.313-1.464-11.427,0.369c-1.468,0.654-2.771,1.522-3.954,2.521c-0.328-2.647-0.73-5.064-0.966-6.879
	c-0.693-5.326-1.59-10.625-2.506-15.917c-0.613-3.538-0.626-8.215-1.731-11.996c6.12-1.13,12.211-2.428,18.268-3.854
	C481.899,439.152,483.567,446.333,483.977,453.093z M496.302,336.46c1.893,16.872,3.932,33.726,4.549,50.705
	c0.287,7.946,0.262,16.429-0.832,24.311c-0.271,1.952-0.247,5.238-0.657,7.997c-0.779,0.225-1.527,0.521-2.242,0.912
	c-20.741,5.64-41.828,10.027-63.282,11.786c-12.063,0.99-24.172,0.895-36.184-0.627c-9.336-1.183-18.097-4.177-27.034-6.746
	c0.617-1.05,0.932-2.211,0.712-3.275c-6.412-30.939-5.424-62.824-2.143-94.077c1.602-15.264,3.686-30.471,5.859-45.662
	c1.961-13.708,5.078-27.979,4.814-41.92c1.583-0.324,3.209-1.352,4-2.999c0.469-0.977,0.724-1.772,0.847-2.641
	c2.501-8.668,1.802-16.97-1.173-25.695c-1.492-4.373-3.371-8.634-5.221-12.863c-1.295-2.956-2.263-6.044-3.452-9.035
	c0.77-0.184,1.482-0.524,2.081-1.027c0.221-0.106,0.44-0.212,0.66-0.316c2.904-1.379,5.869-2.613,8.744-4.055
	c4.016-2.013,8.816-4.771,11.542-8.644c-0.042,0.086-0.074,0.17-0.091,0.249c-1.453,6.466,5.717,12.669,10.617,15.56
	c6.541,3.859,15.104,4.386,22.486,3.819c7.809-0.6,15.736-3.208,22.17-7.697c5.853-4.085,9.256-9.17,11.333-15.535
	c0.091-0.185,0.185-0.368,0.263-0.562c2.044,3.343,6.242,6.04,9.05,8.075c2.131,1.544,4.361,2.957,6.518,4.465
	c1.184,0.828,2.157,1.949,3.42,2.466c-3.231,7.573-4.438,16.866-5.342,24.404c-1.26,10.508-0.932,21.593,3.105,31.503
	c0.327,0.804,0.875,1.302,1.531,1.567c1.146,14.759,4.572,29.377,6.911,43.979C492.607,302.019,494.369,319.225,496.302,336.46z
	 M536.135,296.388c-2.418,1.46-6.297-2.895-7.85-4.208c-6.613-5.593-9.828-13.445-14.139-20.737
	c-7.296-12.345-13.434-26.385-23.884-36.363c0.209-1.387-0.175-2.681-1.754-3.505c-2.709-8.407-3.092-17.134-2.221-25.987
	c0.471-4.783,1.402-9.513,2.305-14.229c0.438-2.297,1.159-4.737,1.687-7.182c1.86,1.927,3.914,3.734,5.733,5.581
	c3.273,3.324,6.438,6.789,9.484,10.321c7.107,8.238,13.428,17.208,18.908,26.602c9.682,16.593,16.321,34.172,18.806,53.082
	c-0.594,0.863-0.866,1.925-0.572,2.993c0.048,0.174,0.095,0.331,0.143,0.486c-2.007,1.28-3.415,3.671-1.766,5.654
	C543.297,291.64,538.371,295.037,536.135,296.388z"/>
<path fill="#010101" d="M432.287,211.454c1.443-0.155,2.477-1.212,2.898-2.542c0.123-0.386,0.244-0.772,0.367-1.159
	c0.09-0.284,0.18-0.568,0.271-0.852c0.116-0.363,0.024-0.097-0.032,0.069c0.326-0.959,0.421-1.996-0.587-2.592
	c-1.201-0.712-2.527-1.194-3.941-0.995c-0.435,0.061-0.832,0.182-1.218,0.327c-0.023-0.393-0.27-0.727-0.804-0.688
	c-0.164,0.013-0.479-0.129-0.701-0.089c-0.461,0.083-0.916,0.17-1.365,0.301c-0.822,0.239-1.631,0.78-2.273,1.333
	c-1.164,1.003-1.828,2.597-1.262,4.084C424.783,211.655,429.734,211.728,432.287,211.454z"/>
<path fill="#010101" d="M430.67,262.056c3.051,2.375,6.613-1.396,7.857-3.937c1.084-2.214,2.018-5.704,0.35-7.863
	c-1.24-1.607-3.512-0.974-5.031-0.282c-0.278,0.126-0.542,0.287-0.799,0.46c-0.185-0.187-0.453-0.296-0.752-0.264
	c-2.801,0.301-5,3.202-4.594,5.969C428.021,258.322,428.89,260.669,430.67,262.056z M433.671,256.449
	c-0.004,0.016-0.008,0.031-0.013,0.046C433.561,256.571,433.516,256.594,433.671,256.449z M433.703,256.459
	c-0.005-0.009-0.01-0.018-0.015-0.026c0.052-0.048,0.123-0.112,0.219-0.196C433.991,256.21,433.833,256.354,433.703,256.459z
	 M433.68,256.417c-0.007-0.014-0.015-0.028-0.022-0.041c0.013-0.008,0.03-0.019,0.042-0.026
	C433.692,256.372,433.686,256.394,433.68,256.417z M435.481,254.901c0.001-0.001,0.002-0.002,0.003-0.002
	c0.003-0.002,0.007-0.004,0.01-0.006C435.565,254.877,435.582,254.879,435.481,254.901z"/>
<path fill="#010101" d="M436.055,312.566c2.182-1.49,3.791-3.808,4.686-6.282c0.859-2.377,1.457-5.721-1.588-6.711
	c-1.314-0.427-2.83,0.194-4.004,0.74c-0.505,0.235-0.978,0.521-1.442,0.825c-0.379,0.053-0.733,0.15-1.085,0.304
	c-1.184,0.52-1.965,1.214-2.635,2.324c-0.518,0.861-0.527,2.051-0.541,3.017c-0.018,1.229,0.105,2.417,0.373,3.614
	C430.49,313.41,433.607,314.237,436.055,312.566z M434.564,306.462c0.306-0.208,0.604-0.415,0.907-0.63
	c0.003-0.002,0.002,0,0.014-0.008c-0.009,0.03-0.018,0.058-0.028,0.087c-0.058,0.152-0.115,0.305-0.178,0.455
	c-0.163,0.385-0.354,0.757-0.556,1.123c-0.006-0.016-0.016-0.031-0.022-0.047c-0.118-0.288-0.209-0.586-0.29-0.887
	C434.462,306.522,434.513,306.496,434.564,306.462z"/>
<path fill="#010101" d="M435.822,354.335c1.826,1.294,4.105,1.2,6.068,0.292c2.818-1.305,4.283-4.256,5.059-7.102
	c0.256-0.945-0.152-1.795-0.924-2.322c-1.924-1.313-4.186-2.069-6.486-1.662c-0.289-0.669-1.119-1.046-1.965-0.449
	c-1.061,0.746-2.03,1.776-2.759,2.931c-0.935,0.918-1.701,2.025-2.356,3.294c-0.869,1.682,0.154,2.606,1.446,2.688
	C434.261,352.861,434.869,353.659,435.822,354.335z M440.441,350.119c0.001-0.001,0.001-0.001,0.002-0.002
	c0.004,0.001,0.004,0.003,0.01,0.003C440.448,350.12,440.446,350.12,440.441,350.119z M440.748,349.527
	c-0.054,0.13-0.093,0.259-0.158,0.391c-0.021,0.042-0.065,0.09-0.11,0.134c-0.039,0.019-0.076,0.043-0.063,0.058
	c-0.002,0.002-0.004,0.004-0.007,0.006c-0.469-0.038-0.583-0.116-1.072-0.42c-0.176-0.109-0.315-0.234-0.448-0.361
	c0.058-0.023,0.115-0.051,0.173-0.07C439.563,349.098,440.171,349.265,440.748,349.527z"/>
<path fill="#010101" d="M442.543,389.07c-2.775-0.083-5.904,1.289-7.275,3.713c-0.555,0.983-0.326,2.251,0.637,2.854
	c0.123,0.077,0.249,0.141,0.375,0.192c-0.256,0.891-0.348,1.807-0.104,2.732c0.447,1.688,2.465,2.499,3.734,3.449
	c0.801,0.599,1.26,1.02,2.314,0.947c0.984-0.067,1.818-0.598,2.572-1.185c0.992-0.772,1.715-2.021,2.246-3.134
	c1.16-2.43,1.703-5.58-0.014-7.876C445.99,389.374,444.135,389.117,442.543,389.07z M440.857,395.653
	c0.066,0.029-0.066-0.075-0.169-0.163c0.001-0.01-0.011-0.04-0.029-0.079c0.18-0.023,0.36-0.048,0.541-0.062
	c0.051-0.004,0.071-0.007,0.105-0.011c0,0,0,0,0,0c0.077,0.008,0.152,0.032,0.229,0.047c0.045,0.021,0.13,0.057,0.216,0.096
	c0.017,0.016,0.032,0.032,0.047,0.048c0.044,0.101,0.083,0.204,0.118,0.309c0.002,0.036,0.003,0.061,0.009,0.114
	c0.005,0.054,0.005,0.152,0.003,0.26C441.564,396.035,441.206,395.853,440.857,395.653z M441.597,395.352
	C441.568,395.331,441.571,395.333,441.597,395.352L441.597,395.352z"/>
<path fill="#010101" d="M562.393,325.398c-0.254-1.879-0.728-3.791-1.595-5.489c-0.14-4.266-2.946-7.168-7.774-8.131
	c-0.653-0.13-1.297-0.185-1.933-0.192c1.057-0.962,1.858-2.111,2.285-3.464c0.57-1.812-1.033-3.231-2.734-3.116
	c-2.313,0.157-4.326,1.927-6.486,2.713c-2.688,0.977-5.5,1.528-8.336,1.832c-0.245-0.661-0.484-1.325-0.551-2.021
	c-0.178-1.843-2.928-0.77-3.055,0.617c-0.133,1.473-0.732,2.875-1.08,4.313c-0.277,1.153,0.363,1.963,1.408,2.302
	c2.665,0.867,6.579,1.062,10.319,0.406c-1.432,1.469-2.542,3.286-3.171,5.276c-2.264,7.153-1.256,15.674-0.992,23.036
	c0.398,11.135,1.139,22.257,1.91,33.372c1.506,21.73,3.617,43.569,2.926,65.369c-0.316,9.99-1.043,20.006-3.055,29.791
	c-0.828,4.037-1.131,8.176-1.266,12.287c-0.111,3.458-1.094,6.7-1.354,10.133c-0.076,0.999,0.67,1.907,1.455,2.394
	c2.857,1.773,6.075-0.788,6.968-3.542c0.067,1.048,0.1,0.215,0.142-0.583c0.017-0.124,0.024-0.246,0.021-0.369
	c0.007-0.118,0.015-0.229,0.023-0.321c0.127-1.396,0.57-2.808,0.857-4.177c0.668-3.192,0.498-6.473,0.68-9.711
	c0.217-3.885,1.076-7.738,2.002-11.503c0.951-3.873,0.91-8.304,1.254-12.275c1.471-17.046,0.988-33.969-0.037-51.024
	c-1.096-18.253-2.65-36.476-3.572-54.74c-0.387-7.685-0.738-15.397-0.807-23.092c-0.016-1.73-0.414-5.755,1.285-6.93
	c1.178-0.815,2.337-1.026,3.408-0.847c0.351,0.399,0.677,0.907,1.051,1.242c0.584,0.523,1.072,1.132,1.441,1.824
	c0.042,0.08,0.073,0.161,0.111,0.242c-0.097,0.024-0.192,0.044-0.289,0.07c-1.531,0.42-2.908,1.721-3.574,3.135
	c-0.635,1.35-0.725,3.71,0.982,4.4c2.289,0.923,3.951,1.953,6.533,1.66C559.977,330.036,562.725,327.865,562.393,325.398z
	 M544.971,490.417c0.002,0.004,0.004,0.008,0.007,0.011c-0.051-0.013-0.097-0.034-0.149-0.043
	C544.877,490.396,544.924,490.406,544.971,490.417z"/>
<path fill="#010101" d="M187.875,301.902c0.072,7.62,6.285,15.385,10.545,21.266c7.467,10.307,19.852,16.867,32.472,17.672
	c1.028,5.922,2.543,11.78,4.071,17.577c1.721,6.526,3.639,12.998,5.297,19.541c0.826,3.266,1.529,6.555,2.105,9.874
	c0.116,0.669,0.191,1.339,0.262,2.005c-4.601,14.068-3.231,29.756-2.37,44.387c0.443,7.542,0.943,15.086,1.207,22.638
	c0.113,3.277,0.115,6.563,0.123,9.842c0.004,1.863-0.21,3.66-0.125,5.373c-1.804,0.991-3.47,2.205-4.9,3.584
	c-1.381,1.332-2.6,3.043-3.393,4.867c-2.089,2.805-3.339,6.254-3.262,9.674c0.031,1.424,1.125,2.683,2.539,2.893
	c3.238,0.481,6.54,0.335,9.763-0.282c8.156,0.683,16.707-5.127,16.49-12.813c0.132-1.222-0.001-2.44-0.455-3.595
	c2.345-11.502-1.028-24.961-1.954-36.22c-0.535-6.5-0.947-13.189,0.484-19.601c0.342-1.536,0.25-1.188,0.857-2.581
	c0.041-0.094,0.434-0.755,0.606-1.066c0.168-0.194,0.377-0.427,0.51-0.578c0.024-0.015,0.04-0.023,0.066-0.039
	c0.1-0.061,0.18-0.112,0.25-0.157c0.116-0.025,0.296-0.076,0.58-0.17c0.879-0.291,2.42-0.318,3.947-0.294
	c0.135,0.002,0.272-0.006,0.409-0.015c1.178,3.787,0.964,7.95,2.309,11.549c0.041,1.658,0.084,3.317,0.139,4.978
	c0.477,14.482,1.443,29.006,0.501,43.481c-0.036,0.146-0.074,0.292-0.1,0.435c-1.991,3.604-2.97,8.156-3.25,11.296
	c-0.129,1.434-0.031,3.213,1.551,3.897c8.52,3.688,20.723,5.699,26.945-2.809c5.497-7.518-0.438-12.213-6.3-16.178
	c0.001-0.254,0.008-0.507-0.014-0.763c-1.299-14.777-2.273-29.569-3.84-44.325c-0.748-7.033-1.559-14.043-2.441-21.061
	c-0.506-4.015-0.448-9.241-1.579-13.724c1.795-3.178,2.579-7.086,3.442-10.489c1.809-7.135,3.016-14.491,4.35-21.726
	c0.903-4.896,1.722-9.823,2.509-14.751c7.854-1.276,15.759-1.947,23.028-5.845c8.277-4.44,18.934-11.829,21.564-21.415
	c0.654-2.386,0.638-4.793-0.125-6.949c1.809-1.102,3.415-3.173,2.388-5.029c-1.426-2.575-4.453-2.786-7.105-3.391
	c-3.658-0.833-6.984-1.703-10.387-3.328c-2.207-1.055-5.6,2.038-3.918,4.205c1.029,1.326,2.334,2.378,3.753,3.276
	c-0.067,0.036-0.136,0.07-0.203,0.107c-4.402,2.434-7.924,6.412-11.572,9.796c-4.021,3.73-9.033,4.293-14.207,4.72
	c-0.028-1.863-0.228-3.667-0.706-5.336c-0.132-0.458-0.374-0.734-0.673-0.885c-0.504-1.111-1.876-1.717-3.046-1.548
	c-8.007,1.151-16.18,1.175-24.357,1.19c21.67-6.966,39.192-39.285,17.168-54.525c-6.302-4.36-14.688-6.446-21.941-4.315
	c-5.513,0.027-11.056,2.717-15.504,6.08c-7.492,5.665-13.27,14.086-14.822,23.441c-2.137,12.875,7.848,25.882,20.019,29.606
	c-3.895,0.205-7.769,0.559-11.602,1.2c-0.916,0.153-2.051,1.051-2.763,2.073c-1.036-0.158-2.374,0.686-2.727,1.623
	c-0.025,0.066-0.044,0.134-0.068,0.201c-3.627-2.185-7.022-4.954-9.838-7.816c-4.428-4.495-7.646-10.125-12.631-14.073
	C202.521,294.254,187.77,290.403,187.875,301.902z M261.237,385.977C261.369,386.044,261.368,386.084,261.237,385.977
	L261.237,385.977z M258.34,416.711c0.107-0.106,0.187-0.188,0.252-0.259c0.009-0.005,0.02-0.012,0.029-0.018
	C258.546,416.508,258.458,416.594,258.34,416.711z"/>
</svg>
