<?xml version="1.0" encoding="utf-8"?>
<!-- Generator: Adobe Illustrator 17.0.0, SVG Export Plug-In . SVG Version: 6.00 Build 0)  -->
<!DOCTYPE svg PUBLIC "-//W3C//DTD SVG 1.0//EN" "http://www.w3.org/TR/2001/REC-SVG-20010904/DTD/svg10.dtd">
<svg version="1.0" id="Layer_1" xmlns="http://www.w3.org/2000/svg" xmlns:xlink="http://www.w3.org/1999/xlink" x="0px" y="0px"
	 width="566.93px" height="566.93px" viewBox="0 0 566.93 566.93" enable-background="new 0 0 566.93 566.93" xml:space="preserve">
<path fill="#010101" d="M530.387,165.551c-3.371-1.798-7.594-1.81-11.24-1.161c-5.197,0.924-10.572,0.967-15.846,1.448
	c-12.172,1.11-24.332,1.738-36.559,1.958c-32.438,0.582-64.926,0.963-97.357,0.025c-32.576-0.941-64.994-1.508-97.564,0.001
	c-16.383,0.759-32.758,1.678-49.158,1.926c-16.418,0.247-32.826-0.501-49.24-0.809c-30.389-0.569-60.773-0.297-91.166-0.141
	c-13.633,0.069-27.168,0.1-40.777,1.101c-4.021,0.295-8.037,0.708-12.055,1.053c-1.996,0.171-3.992,0.322-5.992,0.441
	c-1.22,0.073-3.083-0.502-2.507,0.363c-1.397-0.892-4.303-0.14-5.368,1.925c-0.02,0.037-0.039,0.073-0.057,0.109
	c-0.488,0.945-0.459,2.055,0.184,2.905c1.213,1.604,4.676,1.128,6.369,1.138c4.471,0.026,8.947-0.2,13.416-0.346
	c12.975-0.42,25.973,0.453,38.941,0.765c32.906,0.792,65.842,0.486,98.754,1.186c16.402,0.349,32.781,1.072,49.191,0.865
	c16.357-0.206,32.705-0.898,49.053-1.475c32.531-1.147,64.895-0.136,97.414,0.805c30.49,0.881,61,0.349,91.498-0.023
	c12.205-0.149,24.449-0.328,36.625-1.245c4.984-0.375,9.965-0.764,14.961-0.932c1.799-0.06,3.537,0.646,5.285,1.065
	c0.766,0.184,1.584,0.237,2.359,0.403c0.051,0.011,0.086,0.018,0.131,0.027c0.035,0.046,0.143,0.123,0.382,0.251
	C527.352,183.063,538.525,169.89,530.387,165.551z"/>
<path fill="#010101" d="M176.721,136.224c-0.408,1.744-0.664,3.523-1.004,5.282c-0.176,0.909-0.405,1.802-0.648,2.693
	c-0.116-0.119-0.241-0.229-0.349-0.358c-3.756-3.83-5.467-7.517-11.316-7.667c-4.186-0.106-7.846,3.142-10.033,6.371
	c-1.172,1.732-2.043,3.649-3.186,5.397c-1.111,1.698-3.066,2.042-4.23,3.813c-1.043,1.589-1.381,3.416,0.318,4.656
	c0.137,0.101,0.275,0.2,0.412,0.301c1.143,0.834,3.076,0.282,4.154-0.336c4.078-2.341,6.23-5.923,8.422-9.937
	c3.068-5.619,6.797,1.278,9.568,3.957c3.188,3.082,8.352,3.189,10.949-0.847c1.602-2.489,2.316-5.155,2.821-7.905
	c1.506,0.959,2.955,2.011,4.378,3.166c2.611,2.12,4.99,4.869,8.121,6.185c1.26,0.53,2.783-0.638,2.766-1.952
	c0.45,0.548,0.938,0.98,1.481,1.212c2.857,1.226,6.014-1.475,6.08-4.371c0.043-1.862-1.359-3.418-2.051-5.091
	c-1.074-2.603-2.01-5.266-2.971-7.912c-0.673-1.853-1.331-3.717-2.007-5.575c6.51,5.673,10.993,14.116,16.653,20.553
	c0.186,0.212,0.415,0.29,0.649,0.281c0.033,0.05,0.056,0.105,0.091,0.154c0.799,1.117,2.508-0.141,2.916-0.956
	c1.979-3.956,2.027-8.861,3.979-13.027c2.539-5.422,6.293-10.285,10.164-14.813c4.451-5.205,9.623-10.207,15.265-14.436
	c-2.401,4.954-4.064,10.249-5.14,15.76c-0.775,3.982-1.154,8.13-1.309,12.183c-0.086,2.255-0.07,4.502-0.309,6.749
	c-0.182,1.72-1.045,3.1-1.148,4.882c-0.122,2.116,1.708,2.696,3.483,2.44c-0.096,1.6,2.528,1.036,3.292,0.113
	c4.177-5.05,9.619-8.158,15.272-11.091c-0.097,4.626-0.168,9.253-0.242,13.879c-0.066,4.113,5.273,1.27,6.32-0.512
	c2.523-4.298,8.131-12.148,13.949-9.337c2.793,1.35,4.213,8.027,4.064,10.778c-0.273,5.135,9.973,2.021,8.418-3.723
	c-1.625-6.003-5.182-13.753-12.02-14.488c-5.452-0.587-10.336,2.687-14.194,6.894c-0.049-2.978-0.105-5.956-0.184-8.934
	c-0.055-2.126-2.523-2.225-3.943-1.439c-4.964,2.75-10.762,5.282-15.088,9.136c0.304-3.655-0.229-7.623-0.051-10.996
	c0.561-10.672,3.396-20.953,9.791-29.635c1.945-2.643-0.424-5.488-3.332-3.797c-10.76,6.254-20.135,14.789-28.064,24.336
	c-4.104,4.939-7.631,10.398-10.158,16.31c-0.745,1.741-1.783,4.246-2.346,6.76c-4.279-10.826-11.691-22.553-22.933-26.032
	c-2.479-0.767-6.145,2.792-4.965,5.29c2.479,5.241,4.248,10.812,6.113,16.291c0.508,1.492,1.104,4.226,1.948,6.853
	c-3.259-4.512-8.647-8.335-12.846-10.863C180.197,131.486,177.223,134.071,176.721,136.224z"/>
<path fill="#010101" d="M380.85,97.813c1.814-2.964-0.248-5.762-3.568-4.064c-10.016,5.124-19.598,11.857-27.264,20.127
	c-3.647,3.934-7.9,9.16-10.195,14.764c-1.864-7.475-8.081-13.666-12.957-19.905c-1.912-2.444-5.793,0.615-6.23,2.792
	c-1.213,6.057-0.752,12.299-0.148,18.398c0.295,2.973,0.697,5.936,1.098,8.896c-1.662-2.406-3.52-4.556-6.432-6.492
	c-2.213-1.47-5.119,1.276-5.629,3.271c-0.748,2.93-0.773,5.8-0.828,8.7c-3.958-0.749-7.493-1.097-11.293,2.448
	c-4.422,4.127,0.006,8.996,4.723,5.381c1.723-1.321,7.002,0.932,9.336,0.527c2.189-0.379,5.084-2.386,4.703-4.998
	c-0.322-2.201-0.522-4.469-0.514-6.727c2.577,1.973,5.028,4.623,7.283,6.288c0.248,0.183,0.516,0.251,0.784,0.231
	c0.031,0.028,0.051,0.063,0.083,0.089c1.871,1.566,4.564,0.225,5.502-1.804c2.135-4.62-0.6-11.777-1.283-16.668
	c-0.479-3.421-0.957-6.97-1.086-10.503c5.066,5.57,8.96,14.063,9.807,20.315c0.147,1.091,1,1.091,1.744,0.675
	c0.122,0.564,0.275,1.126,0.47,1.686c0.646,1.852,3.183,0.093,3.454-1.115c2.244-10.006,6.461-17.712,13.881-24.881
	c4.503-4.351,9.525-8.163,14.848-11.483c-2.046,4.332-3.878,8.785-5.807,13.118c-2,4.489-3.969,8.999-6.115,13.42
	c-0.807,1.662-1.709,3.287-2.623,4.892c-0.834,1.462-2.338,1.974,0.127,0.645c-3.111,1.677-3.518,7.141-0.185,7.171
	c0.226,0.238,0.609,0.307,1.13,0c0.276-0.163,0.556-0.328,0.834-0.491c0.612-0.268,1.171-0.588,1.661-0.975
	c9.092-5.318,19.04-10.703,29.351-13.067c-2.929,7.088-7.409,13.47-8.281,21.316c-0.336,3.028,3.152,3.864,5.076,1.81
	c3.502-3.74,7.869-7.335,13.045-8.288c7.191-1.324,7.938,5.891,9.764,10.831c1.115,3.02,5.215,1.63,6.939-0.877
	c0.289-0.146,0.537-0.323,0.7-0.512c5.365-6.253,10.365-12.073,17.006-17.081c5.318-4.01,11.194-7.487,17.241-10.408
	c-1.932,5.6-3.579,11.33-4.356,17.185c-0.346,2.595-3.342,10.262,0.898,11.109c1.577,0.315,3.151-0.704,3.991-2.052
	c0.241,0.858,1.277,1.283,2.38,0.289c2.746-2.476,5.731-5.159,9.072-6.981c-0.042,4.266,1.178,7.316,7,5.929
	c3.492-0.832,6.43-1.406,9.646-3.107c2.266-1.198,8.178,5.004,10.393,5.884c3.771,1.497,9.504-4.296,5.328-7.032
	c-4.736-3.104-11.611-7.684-17.393-4.993c-2.564,1.193-4.83,1.971-7.609,2.628c-0.425,0.1-0.846,0.218-1.267,0.341
	c-0.036-0.131-0.086-0.276-0.171-0.451c-0.203-1.319-0.15-2.695-0.152-4.023c-0.006-2.527-3.088-1.768-4.32-0.846
	c-4.321,3.233-8.344,6.368-12.066,10.296c0.606-2.371,0.466-5.178,0.656-7.463c0.596-7.189,2.689-14.179,5.033-20.979
	c0.91-2.642-1.139-3.847-3.471-2.788c-8.459,3.836-16.418,8.453-23.871,14.001c-5.49,4.086-11.761,9.349-15.3,15.641
	c-1.516-2.71-2.239-5.81-4.34-8.234c-2.164-2.494-5.98-3.003-9.047-3.034c-4.245-0.043-8.393,1.846-12.081,4.438
	c2.252-5.463,5.517-10.546,6.778-16.429c0.438-2.045-1.371-3.006-3.137-2.531c-10.312,2.779-20.39,6.484-29.001,12.601
	c1.756-3.778,3.36-7.641,5.003-11.464C373.178,114.864,376.102,105.57,380.85,97.813z"/>
<path fill="#010101" d="M63.336,109.604c0.824-1.415-1.244-1.572-1.971-0.688c-5.041,6.137-7.303,12.774-8.477,20.588
	c-0.584,3.883-0.787,7.836-0.953,11.756c-0.168,3.963-1.066,9.038,0.434,12.77c0.633,1.574,2.012,1.365,3.179,0.585
	c0.419,0.455,1.08,0.712,1.809,0.726c5.373,0.106,7.516-6.63,12.66-7.521c0.041-0.007,2.832,2.114,3.287,2.379
	c1.797,1.041,3.938,1.673,5.893,2.369c5.044,1.795,7.865,0.065,9.204-3.175c2.491,2.486,5.054,4.731,8.791,5.694
	c0.183,0.047,0.372,0.052,0.56,0.033c-0.003,1.002,0.44,1.697,1.522,2.019c3.895,1.161,6.842-3.658,7.779-6.766
	c0.439-1.46,0.652-2.954,0.737-4.461c4.396,3.055,8.004,6.877,11.495,11.209c0.876,1.088,2.418,0.275,3.148-0.812
	c1.763-0.008,3.906-1.516,4.112-3.336c0.799-7.094-2.143-14.946-4.826-21.413c-1.808-4.36-3.823-9.135-6.375-13.446
	c0.87,0.489,1.716,1.01,2.506,1.604c3.996,3.007,7.398,6.843,10.486,10.744c5.762,7.275,10.33,15.91,12.471,24.972
	c0.426,1.812,3.338,0.158,3.453-1.112c0.91-10.028-4.289-19.396-9.818-27.384c-3.248-4.693-7.092-9.047-11.363-12.829
	c-3.115-2.757-7.051-6.043-11.326-6.229c-2.189-0.094-6.016,3.988-3.664,5.955c0.172,0.144,0.359,0.272,0.539,0.408
	c1.925,6.292,5.482,12.192,7.813,18.338c1.365,3.603,2.275,7.415,2.943,11.199c0.214,1.211,0.301,2.427,0.351,3.643
	c-3.458-4.389-9.084-7.492-13.272-10.708c-2.379-1.828-5.516,1.884-5.576,4.01c-0.07,2.434,0.17,4.875-0.074,7.304
	c-0.143,1.404-0.841,2.422-1.536,3.425c-4.131-2.879-6.838-7.451-10.427-10.92c-2.111-2.041-5.547,0.704-5.506,3.163
	c0.032,0.898,0.033,1.794,0.008,2.692c-0.61-0.302-1.22-0.607-1.85-0.867c-2.795-1.151-5.24-3.65-8.045-4.494
	c-4.449-1.339-11.49,2.711-15.459,7.126c0.014-1.874-0.185-3.777-0.244-5.621c-0.117-3.65-0.127-7.297,0.014-10.946
	C58.049,124.173,59.561,116.078,63.336,109.604z"/>
<path fill="#010101" d="M59.359,107.646c-9.506,4.507-16.137,12.031-21.049,21.232c-2.433,4.557-4.188,9.454-5.593,14.414
	c-2.603-4.396-6.792-7.621-11.128-2.577c-1.932,2.245-3.053,5.16-4.465,7.734c-1.512,2.756-4.719,4.318-5.623,7.313
	c-0.182,0.601-0.07,1.674,0.453,2.109c5.342,4.44,10.768-6.134,12.271-9.889c0.416-1.038,0.811-2.084,1.246-3.114
	c0.072-0.171,0.15-0.324,0.228-0.463c0.484,0.397,0.899,0.931,1.292,1.379c1.354,1.542,2.456,3.239,3.771,4.795
	c-0.298,2.047-0.189,3.973,0.902,5.199c1.236,1.387,3.23,0.198,4.174-0.867c2.232-2.527,2.061-6.432,2.732-9.63
	c0.93-4.422,2.303-8.762,3.986-12.95c3.564-8.863,9.428-17.327,17.672-22.408C61.76,108.98,61.262,106.744,59.359,107.646z"/>
<path fill="#010101" d="M539.168,214.112c-1.289-0.547-2.576-1.095-3.865-1.642c-3.048-1.295-7.181,1.525-8.188,4.481
	c-3.425,1.236-6.868,2.411-10.474,3.328c-7.158,1.821-14.482,2.896-21.83,3.574c-14.195,1.311-28.459,0.355-42.414-2.462
	c-14.15-2.856-26.566-8.82-39.773-14.296c-12.68-5.258-26.129-8.459-39.709-10.27c-27.701-3.694-56.053-0.988-83.014,5.99
	c-30.523,7.9-60.938,17.283-92.75,17.535c-62.891,0.498-126.525-46.258-187.32-10.621c-2.086,1.224-1.359,4.273,1.164,3.048
	c13.096-6.351,26.748-10.26,41.309-11.057c13.244-0.725,26.416,1.541,39.283,4.475c26.148,5.959,51.33,15.859,77.889,20.082
	c29.688,4.72,59.17-0.116,88.043-7.258c14.863-3.676,29.547-8.184,44.537-11.328c13.99-2.936,28.361-4.243,42.645-4.306
	c16.51-0.072,33.066,2.284,48.914,6.894c16.035,4.664,30.453,13.228,46.594,17.701c15.439,4.279,31.682,5.768,47.66,5.174
	c15.803-0.587,33.537-3.374,48.109-9.762C538.529,222.272,544.162,216.235,539.168,214.112z"/>
<path fill="#010101" d="M545.702,465.29c-1.102,0.037-2.283,0.753-3.125,1.721c-12.662,0.499-25.431-0.34-38.043-0.819
	c-16.076-0.613-32.045-0.367-48.121-0.061c-32.648,0.625-65.318-0.502-97.9-2.531c-64.789-4.035-130.416-9.295-195.314-4.873
	c-25.07,1.709-50.041,4.805-75.168,5.668c-13.01,0.447-25.922-0.283-38.914-0.83c-3.76-0.16-7.467-0.32-11.219-0.084
	c-1.445,0.092-2.891,0.164-4.338,0.217c-0.221,0.007-0.443,0.007-0.665,0.011c-0.379-0.51-1.103-0.766-2.24-0.486
	c-0.91,0.223-1.643,0.541-2.383,1.137c-0.781,0.625-1.566,2.051-1.07,3.066c0.967,1.977,4.24,1.531,6.053,1.598
	c4.621,0.168,9.145,0.268,13.766,0.67c15.748,1.369,31.367,2.096,47.174,1.492c32.133-1.225,64.037-5.932,96.219-6.191
	c33.197-0.268,66.365,0.59,99.521,2.25c32.596,1.631,65.125,4.369,97.727,5.895c26.791,1.252,53.623,1.707,80.438,0.988
	c27.283-0.732,54.742,1.277,82.029,1.783c3.195,0.061,8.404-5.494,5.195-8.439C552.544,464.921,549.298,465.167,545.702,465.29z
	 M31.334,463.657C31.284,463.641,31.282,463.635,31.334,463.657L31.334,463.657z"/>
<path fill="#010101" d="M390.797,333.894c4.59-6.337,9.072-12.87,14.73-18.319c6.496-6.255,14.305-11.052,15.371-20.87
	c1.016-9.362-5.41-18.473-11.404-25.049c-5.667-6.217-13.428-11.008-21.414-8.553c-8.313-0.78-17.18,0.207-24.877,1.682
	c-11.121,2.131-21.375,6.717-30.424,13.501c-16.012,12.003-27.189,32.952-24.391,53.286c2.736,19.86,20.992,33.272,40.564,33.518
	C368.162,363.334,380.504,348.102,390.797,333.894z M363.404,351.616c-17.375,9.65-40.91-3.643-46.33-21.258
	c-6.701-21.781,7.533-43.54,25.613-54.413c8-4.812,17.09-7.34,26.262-8.688c4.372-0.643,8.776-0.784,13.179-0.876
	c-0.252,1.301,0.161,2.472,1.946,2.685c10.176,1.216,19.982,9.896,24.986,18.482c2.635,4.518,3.707,9.566,0.531,14.013
	c-2.936,4.112-7.785,6.848-11.305,10.482C386.309,324.411,378.873,343.024,363.404,351.616z"/>
<path fill="#010101" d="M489.903,309.747c-11.367-11.225-30.334-5.547-42.211,1.766c-0.393,0.241-0.655,0.656-0.745,1.057
	c-0.303,0.047-0.617,0.119-0.951,0.25c-5.719,2.24-11.74,7.248-12.742,13.697c-0.893,5.74,3.889,8.592,8.605,10.135
	c6.301,2.059,13.355,1.15,19.863,1.301c7.545,0.176,15.252,0.451,22.467-2.125C496.413,331.462,498.925,318.654,489.903,309.747z
	 M467.407,329.882c-4.355-0.412-8.729-0.649-13.078-1.082c-3.119-0.311-7.354-0.74-9.902-2.802c-2.309-1.867,3.715-5.748,5.08-7.407
	c1.432-1.738,1.228-4.152-0.077-5.347c10.778-3.081,22.367-8.887,33.092-2.62c3.662,2.14,6.684,6.174,7.533,10.336
	c1.041,5.1-3.178,7.661-7.459,8.846C477.813,331.128,472.254,330.341,467.407,329.882z"/>
<path fill="#010101" d="M27.297,281.01c0.955,12.119,11.598,21.333,23.592,19.381c5.359-0.872,10.285-3.278,15.223-5.414
	c6.469-2.799,12.051-3.689,19.113-2.868c13.932,1.622,26.381,5.077,39.461-2.12c18.723-10.306,14.814-36.598,0.938-49.006
	c-9.709-8.682-25.928-9.303-38.203-10.105c-11.982-0.783-24.727-0.669-36.229,3.176c-7.834,2.619-16.346,8.688-14.195,18.004
	c0.016,0.069,0.039,0.124,0.062,0.18C30.631,260.09,26.562,271.692,27.297,281.01z M72.518,235.727
	c13.658-0.095,29.746,1.223,42.305,7.114c7.889,3.702,12.982,12.815,14.443,21.095c2.234,12.648-5.471,21.355-18.135,22.145
	c-13.381,0.834-25.707-6.156-39.225-2.639c-10.188,2.652-21.756,12.831-30.523,2.321c-10.512-12.598,4.73-24.866,5.721-37.313
	c0.242-3.066-3.867-2.056-5.197-1.018c-0.778,0.608-1.527,1.291-2.263,2.005C42.068,236.123,61.905,235.801,72.518,235.727z"/>
<path fill="#010101" d="M198.166,267.365c3.498-11.434-4.197-20.798-16.102-19.3c-0.558,0.07-1.158,0.337-1.743,0.728
	c-3.019,0.189-6.128,1.433-8.794,2.666c-5.924,2.743-10.898,7.6-14.16,13.195c-7.342,12.596,5.059,22.437,17.09,22.572
	C185.818,287.353,195.055,277.535,198.166,267.365z M177.717,279.88c-8.479,1.443-19.152-4.82-14.688-14.171
	c2.755-5.768,8.327-9.319,14.357-11.015c0.323,0.551,0.965,0.952,2.041,1.085c6.418,0.79,12.092,3.393,11.082,10.815
	C189.633,273.025,184.096,278.794,177.717,279.88z"/>
<path fill="#010101" d="M118.01,391.598c6.703-0.805,13.438-1.094,20.184-1c6.803,0.096,13.695,1.652,20.477,0.781
	c8.963-1.152,16.107-7.76,17.596-16.689c1.625-9.756-4.07-19.313-11.104-25.559c-8.16-7.244-19.361-9.816-29.996-10.014
	c-10.607-0.197-20.938,2.883-29.988,8.301c-6.717,4.021-16.914,12.192-17.333,21.045c-4.467,5.796-4.455,13.984,2.298,18.906
	C98.279,393.301,108.572,392.73,118.01,391.598z M96.313,376.13c-1.592-2.682-0.021-6.146,0.273-8.984
	c0.197-1.914-1.036-3.117-2.581-3.13c2.731-4.764,7.423-8.682,11.758-11.42c7.279-4.598,15.412-6.732,23.957-7.139
	c16.354-0.775,36.939,8.4,38.545,26.787c0.605,6.922-3.639,10.715-10.256,10.91c-4.904,0.146-10.104-1.303-15.006-1.736
	c-5.287-0.467-10.596-0.523-15.896-0.346c-8.209,0.273-16.479,2.381-24.449-0.557C100.4,379.683,97.598,378.296,96.313,376.13z"/>
<path fill="#010101" d="M52.219,392.585c7.594,4.84,19.592,1.492,23.945-6.125c3.768-6.59-1.182-14.08-6.305-18.059
	c-5.922-4.598-20.904-5.127-22.799,4.195c-0.18,0.875,0.064,1.887,0.924,2.322c0.452,0.229,0.896,0.358,1.337,0.442
	c-1.858,1.647-3.158,3.698-3.317,6.668C45.76,386.618,48.494,390.212,52.219,392.585z M61.279,375.442
	c3.338,1.346,7.178,3.883,7.871,7.738c0.713,3.957-5.561,4.547-8.781,4.164c-6.177-0.732-11.339-7.801-5.568-12.549
	C57.042,374.502,59.152,374.584,61.279,375.442z"/>
<path fill="#010101" d="M402.242,363.967c3.236,6.164,10.436,6.588,16,3.424c5.209-2.963,10.25-10.035,5.326-15.432
	c-3.721-4.08-12.824-6.535-17.758-3.6c-1.349,0.802-3.661,3.66-2.325,5.367C401.012,356.417,400.29,360.251,402.242,363.967z
	 M414.121,356.861c1.439,0.502,2.984,1.09,3.893,2.078c0.316,0.346,0.271,0.281,0.307,0.742c-0.006-0.076-0.656,0.949-0.926,1.283
	c-2.262,2.793-6.131,3.014-8.756,0.666c-1.661-1.485-3.043-4.403-1.349-6.036C409.548,356.1,412.067,356.146,414.121,356.861z"/>
<path fill="#010101" d="M543.295,240.569c-0.893-0.494-1.787-0.647-2.787-0.646c0.559,0.015,0.582-0.007,0.072-0.064
	c-0.631-0.098-1.266-0.129-1.895-0.015c-1.606,0.292-3.045,1.03-4.047,2.258c-6.104-1.44-12.834,1.976-12.781,8.947
	c0.047,5.966,7.715,10.195,13.033,9.389c5.713-0.866,10.061-5.339,11.816-10.662c0.764-2.317,0.354-4.999-0.908-7.03
	C545.219,241.81,544.244,241.096,543.295,240.569z M537.444,250.46c-0.001-0.561-0.101,0.426-0.179,0.833
	c-0.014,0.032-0.028,0.063-0.046,0.105c-0.039,0.09-0.126,0.257-0.197,0.393c-0.104,0.144-0.201,0.293-0.309,0.434
	c-0.011,0.013-0.016,0.021-0.025,0.033c-0.034,0.033-0.061,0.06-0.085,0.085c-0.22,0.127-0.829,0.425-0.406,0.251
	c-0.833,0.348-1.02,0.323-2.329,0.049c-1.527-0.32-3.188-1.539-4.291-2.793c-2.399-2.726,1.234-4.604,3.886-5.179
	c-0.169,1.241,0.245,2.439,1.421,3.21c0.248,0.184,0.526,0.308,0.819,0.403c0.158,0.101,0.367,0.234,0.655,0.414
	c0.117,0.073,0.231,0.15,0.348,0.223c0.036,0.046,0.283,0.253,0.396,0.386c0.03,0.036,0.039,0.043,0.061,0.068
	c0.104,0.196,0.185,0.402,0.259,0.609C537.44,250.142,537.444,250.301,537.444,250.46z"/>
<path fill="#010101" d="M248.752,442.194c6.721,3.896,15.715,4.693,23.314,4.334c11.141-0.527,21.41-6.895,32.027-9.719
	c10.504-2.795,19.898,1.482,30.277,1.803c8.902,0.275,15.297-4.527,17.883-12.99c3.225-10.551-1.498-21.066-8.947-28.453
	c-16.611-16.469-44.068-18.611-65.479-12.145c-10.145,3.063-18.75,9.506-25.516,17.543c-5.359,6.366-9.606,14.798-7.856,22.963
	C239.659,431.392,242.116,438.347,248.752,442.194z M262.121,398.492c9.82-8.404,22.684-11.094,35.314-11.217
	c11.949-0.115,23.516,2.766,33.5,9.379c9.662,6.4,17.648,17.762,13.396,29.719c-2.594,7.287-13.408,2.748-18.73,1.604
	c-12.254-2.635-23.35,0.123-34.824,4.506c-9.152,3.496-16.947,5.783-26.693,4.186c-3.703-0.607-7.268-1.697-10.43-3.75
	c-2.781-1.807-2.801-4.895-3.096-7.848c-0.159-1.593-1.419-2.103-2.702-1.926C247.433,413.432,255.035,404.555,262.121,398.492z"/>
<path fill="#010101" d="M227.048,441.342c6.123-2.879,8.9-11.412,3.787-16.473c-1.358-1.344-3.284-2.458-5.442-3.255
	c0.051-0.839-0.379-1.496-1.58-1.287c-0.549,0.095-1.092,0.23-1.631,0.383c-3.828-0.779-7.864-0.559-10.597,1.114
	c-0.832,0.512-2.047,1.893-1.445,2.986c0.663,1.203,1.678,1.938,2.855,2.434c-1.452,2.17-2.293,4.719-2.193,7.482
	C211.104,443.149,221.265,444.063,227.048,441.342z M225.954,434.142c-0.422,3.123-5.742,1.713-7.172,0.514
	c-2.148-1.8-1.876-4.153-0.604-6.179c0.263,0.05,0.523,0.102,0.777,0.159C221.608,429.23,226.442,430.509,225.954,434.142z"/>
<path fill="#010101" d="M540.41,414.755c5.361-5.631,9.307-13.453,8.803-21.389c-0.521-8.194-7.731-12.84-15.232-11.233
	c0.635-1.268,0.417-2.76-1.481-2.769c-13.725-0.066-27.221,1.422-40.08,6.438c-9.199,3.588-18.506,8.717-23.557,17.514
	c-7.797,13.574-5.754,32.736,12.748,34.219c12.131,0.973,17.654-11.068,28.699-13.104
	C521.268,422.41,532.088,423.497,540.41,414.755z M532.521,412.468c-3.334,2.717-8.357,3.018-12.439,3.418
	c-5.277,0.516-10.439,0.951-15.422,2.896c-7.551,2.949-12.309,12.209-20.977,11.758c-14.777-0.773-14.949-17.182-8.633-27.008
	c4.797-7.465,14.393-11.434,22.387-14.309c10.561-3.797,21.928-5.086,33.097-5.315c-1.086,1.261-1.534,3.024,0.065,4.105
	c4.725,3.199,9.461,4.193,9.393,10.791C539.936,403.992,536.395,409.308,532.521,412.468z"/>
<path fill="#010101" d="M513.27,430.723c-0.998-0.09-1.873-0.264-2.844-0.51c-1.531-0.389-3.096,0.932-3.744,2.182
	c-1.291,2.49-1.588,5.953,0.789,7.93c2.357,1.959,5.537,2.154,8.438,1.545c3.293-0.691,6.533-2.801,8.123-5.82
	c0.74-1.406,1.133-3.146,0.859-4.729c-0.377-2.176-2.164-4.1-4.41-3.914c-1.291,0.107-2.57,1.045-3.092,2.23
	c-0.57,1.295-0.504,2.348-0.365,3.574c0.041,0.379,0.043,0.769,0.064,1.15c-0.151,0.097-0.423,0.282-0.576,0.369
	c-0.228,0.088-0.46,0.167-0.692,0.24c-0.104,0.033-0.619,0.156-0.779,0.202c-0.377,0.057-0.757,0.093-1.137,0.11
	c-0.096,0.004-0.136,0.009-0.159,0.014c-0.052-0.011-0.152-0.028-0.353-0.055c-0.172-0.025-0.342-0.059-0.51-0.1
	c-0.05-0.011-0.069-0.013-0.104-0.02c-0.032-0.015-0.053-0.026-0.104-0.048c-0.061-0.027-0.205-0.122-0.333-0.206
	C514.061,434.139,515.787,430.953,513.27,430.723z M517.042,434.55C516.968,434.768,516.894,434.921,517.042,434.55L517.042,434.55z
	 M517.128,434.336C517.128,434.336,517.128,434.336,517.128,434.336c0.01-0.025,0.015-0.038,0.027-0.066
	C517.145,434.295,517.138,434.313,517.128,434.336z M512.284,434.894c-0.001-0.001-0.001-0.001-0.002-0.002l0,0
	C512.283,434.893,512.283,434.893,512.284,434.894z"/>
<path fill="#010101" d="M298.084,218.237c2.02-1.661,0.508-4.813-1.949-3.253c-9.326,5.922-4.207,15.781,4.479,19
	c12.207,4.523,24.164-6.349,22.584-19.008c-0.154-1.23-0.799-1.906-1.971-2.245c-5.529-1.596-5.709,8.003-6.916,11.065
	c-1.174,2.982-3.697,4.466-6.885,4.306C303.852,227.923,292.463,222.862,298.084,218.237z"/>
<path fill="#010101" d="M95.93,451.195c2.949-8.363-7.641-13.957-14.217-15.754c-7.705-2.105-19.262,3.225-15.441,12.85
	c0.924,2.331,3.988,0.139,4.387-1.414c0.504-1.957,0.365-5.02,2.629-5.791c2.133-0.729,4.932,0.139,6.932,0.902
	c2.227,0.85,9.801,4.877,8.643,7.889C86.797,455.246,94.41,455.502,95.93,451.195z"/>
</svg>
