<?xml version="1.0" encoding="UTF-8" standalone="no"?><!DOCTYPE svg PUBLIC "-//W3C//DTD SVG 1.1//EN" "http://www.w3.org/Graphics/SVG/1.1/DTD/svg11.dtd"><svg width="100%" height="100%" viewBox="0 0 524 351" version="1.1" xmlns="http://www.w3.org/2000/svg" xmlns:xlink="http://www.w3.org/1999/xlink" xml:space="preserve" style="fill-rule:evenodd;clip-rule:evenodd;stroke-linejoin:round;stroke-miterlimit:1.41421;"><g id="hair"><path d="M246.609,26.977c-3.318,7.246 -3.763,15.498 -5.759,23.157c-2.411,9.251 -6.526,18.043 -12.24,25.714c-10.957,14.713 -26.673,23.003 -45.057,21.191c-9.54,-0.941 -17.87,14.137 -5.736,15.174c22.428,1.915 43.813,-10.754 57.099,-28.039c6.578,-8.56 11.292,-18.447 14.478,-28.719c2.592,-8.359 5.667,-21.652 -0.58,-29.093c-0.625,-0.74 -1.873,-0.113 -2.205,0.615Z" style="fill:#020202;fill-rule:nonzero;"/><path d="M245.491,2.386c-27.369,-6.896 -54.143,9.595 -71.202,29.999c-8.869,10.605 -15.046,23.491 -19.585,36.453c-2.248,6.416 -3.822,13.056 -4.999,19.745c-1.069,6.091 -3.51,15.618 -0.811,21.415c2.937,6.302 12.458,3.291 14.628,-2.258c2.076,-5.313 1.707,-10.709 2.186,-16.334c0.511,-5.987 1.776,-11.925 3.251,-17.74c2.842,-11.204 7.5,-22.179 13.938,-31.801c14.809,-22.137 36.409,-31.243 61.778,-36.167c1.368,-0.266 2.754,-2.823 0.816,-3.312Z" style="fill:#020202;fill-rule:nonzero;"/><path d="M260.113,31.518c-14.018,28.084 8.238,52.419 29.42,68.807c8.485,6.562 18.075,10.929 28.12,14.456c8.646,3.031 16.812,7.342 23.126,-2.497c1.879,-2.926 1.156,-6.978 -1.689,-8.91c-7.634,-5.178 -15.81,3.986 -14.004,11.334c1.244,-3.233 2.487,-6.471 3.732,-9.704c-0.034,0.03 -0.071,0.058 -0.105,0.092c2.151,-0.854 4.305,-1.706 6.457,-2.555c3.022,0.095 -3.602,-0.52 -4.839,-0.712c-3.069,-0.474 -6.165,-1.647 -9.134,-2.545c-7.829,-2.367 -16.457,-6.731 -24.425,-12.198c-9.928,-6.805 -19.32,-15.324 -25.875,-25.483c-5.888,-9.127 -6.597,-19.68 -7.521,-30.184c-0.172,-1.936 -2.662,-1.106 -3.263,0.099Z" style="fill:#020202;fill-rule:nonzero;"/><path d="M257.822,3.931c22.752,5.845 42.503,15.41 58.364,33.214c7.314,8.215 13.206,17.71 17.424,27.852c3.817,9.185 8.162,21.848 5.806,31.831c-0.42,1.787 -0.431,4.6 1.09,5.981c0.344,0.313 0.688,0.627 1.032,0.938c3.75,3.417 9.418,1.92 12.386,-1.962c6.899,-9.03 0.244,-26.783 -3.424,-36.638c-4.609,-12.379 -11.892,-23.942 -20.477,-33.924c-17.288,-20.103 -44.304,-35.481 -71.506,-30.11c-1.166,0.231 -2.342,2.396 -0.695,2.818Z" style="fill:#020202;fill-rule:nonzero;"/><path d="M160.48,109.093c0.438,-3.119 0.886,-4.744 -1.833,-6.996c-2.231,-1.849 -5.746,-2.031 -8.472,-1.355c-6.686,1.661 -12.175,6.644 -16.127,12.092c-4.229,5.83 -7.231,13.287 -6.65,20.582c0.761,9.536 8.33,14.173 16.298,17.562c9.667,4.107 18.296,-12.321 6.84,-13.303c-10.954,-0.937 -13.207,-11.006 -8.708,-19.323c3.78,-6.983 8.882,-8.734 15.073,-6.896c1.402,0.417 3.377,-0.929 3.579,-2.363Z" style="fill:#020202;fill-rule:nonzero;"/><path d="M157.645,126.227c2.871,3.97 7.062,6.978 7.253,12.303c0.167,4.665 -4.071,9.016 -7.242,11.875c-3.946,3.563 -8.698,6.562 -13.698,8.384c-4.186,1.528 -7.332,0.8 -11.412,1.319c-4.083,0.519 -12.186,6.612 -7.531,11.336c5.112,5.19 14.056,1.561 19.731,-0.839c7.944,-3.36 15.07,-8.873 21.061,-14.99c10.17,-10.383 13.989,-31.334 -5.653,-33.169c-1.727,-0.162 -3.609,2.256 -2.509,3.781Z" style="fill:#020202;fill-rule:nonzero;"/><path d="M127.583,138.784c-10.862,-10.918 -24.502,3.699 -27.899,13.949c-3.851,11.615 -0.521,28.447 11.621,33.715c8.114,3.518 18.035,-9.755 8.51,-12.958c-7.091,-2.388 -8.803,-10.963 -8.508,-17.493c0.382,-8.472 4.52,-9.752 11.794,-10.462c2.462,-0.242 7.23,-3.989 4.482,-6.751Z" style="fill:#020202;fill-rule:nonzero;"/><path d="M126.81,173.477c0.628,10.555 -0.863,16.099 -10.96,20.627c-8.372,3.756 -18.127,4.535 -27.159,3.912c1.825,2.256 3.648,4.508 5.475,6.764c-0.079,0.228 -0.159,0.449 -0.239,0.679c1.937,-2.359 2.563,-7.478 -1.54,-8.111c-5.009,-0.772 -9.942,1.121 -11.955,6.12c-1.792,4.45 -0.205,8.144 4.802,8.545c12.8,1.022 27.47,-2.878 38.189,-9.825c10.216,-6.621 19.646,-20.893 9.75,-32.003c-2.149,-2.42 -6.53,0.46 -6.363,3.292Z" style="fill:#020202;fill-rule:nonzero;"/><path d="M101.191,180.615c-4.515,-4.885 -12.386,-1.262 -16.869,1.776c-5.967,4.039 -9.542,11.151 -11.772,17.764c-2.851,8.452 -1.307,32.762 13.804,24.084c3.122,-1.79 6.522,-6.229 3.76,-9.778c-1.496,-1.927 -3.546,-1.825 -4.4,-3.772c-1.31,-2.993 -0.836,-6.664 -0.208,-9.752c0.687,-3.353 2.083,-6.492 4.214,-9.164c2.354,-2.956 6.111,-3.352 9.175,-5.177c1.724,-1.033 4.189,-3.934 2.296,-5.981Z" style="fill:#020202;fill-rule:nonzero;"/><path d="M97.114,215.907c-4.431,12.222 -18.125,23.396 -31.135,15.08c-2.369,4.604 -4.736,9.209 -7.104,13.813c2.519,-0.176 4.242,-0.537 6.64,-1.43c3.316,-1.233 10.361,-8.485 4.309,-11.343c-2.604,-1.229 -4.47,-1.666 -7.333,-1.874c-6.299,-0.456 -13.396,9.361 -7.104,13.813c9.429,6.669 23.181,3.229 32.372,-2.084c8.263,-4.776 19.425,-16.832 13.76,-27.176c-1.175,-2.145 -3.774,-0.537 -4.405,1.201Z" style="fill:#020202;fill-rule:nonzero;"/><path d="M74.246,222.098c0.6,0.447 -0.203,-0.823 -0.583,-1.291c-0.648,-0.805 -1.816,-1.09 -2.79,-1.186c-2.88,-0.279 -5.703,0.813 -8.111,2.331c-5.491,3.46 -9.143,8.605 -11.634,14.541c-2.249,5.356 -3.623,11.243 -2.321,17.004c1.482,6.562 8.486,7.896 13.854,5.417c4.985,-2.304 7.364,-9.68 1.36,-12.06c-1.159,-0.462 -1.125,-0.389 -0.678,0.027c-0.345,-0.32 -0.404,-0.577 -0.773,-1.986c-0.562,-2.126 0.344,-5.776 1.036,-8.188c0.767,-2.672 2.239,-5.286 3.896,-7.489c0.646,-0.857 1.567,-1.44 2.505,-1.928c0.8,-0.416 1.704,-0.87 2.406,-1.438c1.088,-0.881 1.292,-0.86 0.671,-0.705c1.235,-0.304 2.451,-2.085 1.162,-3.049Z" style="fill:#020202;fill-rule:nonzero;"/><path d="M70.705,254.555c-2.081,6.396 -8.555,7.942 -14.601,7.165c-4.109,-0.529 -8.098,1.521 -10.015,5.271c-2.149,4.202 0.044,8.385 4.796,8.535c12.397,0.398 28.756,-7.689 24.481,-22.236c-0.763,-2.603 -4.166,-0.251 -4.661,1.265Z" style="fill:#020202;fill-rule:nonzero;"/><path d="M341.492,126.785c1.081,-1.299 2.307,-2.421 2.605,-4.173c0.221,-1.283 0.069,-2.938 -1.291,-3.599c-7.557,-3.668 -12.66,5.797 -14.687,11.624c-2.188,6.307 0.353,13.033 4.619,17.753c8.195,9.071 25.195,15.219 37.265,12.314c8.236,-1.983 10.151,-15.422 -0.31,-13.404c-7.097,1.366 -15.265,-0.9 -21.709,-4.146c-8.612,-4.336 -11.422,-10.652 -6.211,-19.031c-1.002,0.993 -2.006,1.98 -3.011,2.972c-1.926,-1.049 -2.314,-1.126 -1.168,-0.239c0.534,0.426 1.008,0.58 1.699,0.601c0.882,0.029 1.595,0.053 2.199,-0.672Z" style="fill:#020202;fill-rule:nonzero;"/><path d="M356.311,134.427c3.271,-1.332 5.372,-2.353 8.68,-0.483c3.377,1.905 5.874,5.701 7.585,9.067c1.735,3.427 2.985,7.255 3.439,11.067c0.188,1.582 0.24,3.219 -0.063,4.786c-0.356,1.835 0.354,-0.354 -0.437,1.163c0.843,-0.846 1.688,-1.694 2.528,-2.539c-2.112,1.397 -2.501,1.648 -1.173,0.746c-7.945,4.885 -6.05,16.741 4.23,12.288c14.152,-6.132 8.531,-25.044 2.595,-34.771c-6.712,-10.999 -22.905,-18.384 -31.595,-5.012c-2.046,3.15 1.775,4.678 4.211,3.688Z" style="fill:#020202;fill-rule:nonzero;"/><path d="M366.7,162.37c-12.106,3.3 -12.84,17.967 -5.021,25.786c7.953,7.952 23.006,12.639 33.361,6.757c2.834,-1.607 5.379,-4.429 5.305,-7.895c-0.082,-3.71 -4.108,-5.965 -7.493,-4.667c-6.322,2.421 -12.622,1.461 -18.755,-2.102c-2.571,-1.495 -4.979,-3.672 -6.09,-6.474c-1.248,-3.14 0.563,-6.063 1.383,-9.036c0.475,-1.723 -1.145,-2.792 -2.69,-2.369Z" style="fill:#020202;fill-rule:nonzero;"/><path d="M393.481,173.952c2.534,0.878 3.155,0.606 4.92,2.995c2.141,2.899 3.17,6.863 4.101,10.281c0.934,3.441 1.404,6.956 1.51,10.515c0.035,1.264 -0.035,2.422 -0.277,3.536c0.271,-1.256 -0.214,0.436 -0.314,0.654c1.57,-3.411 1.89,-2.508 -0.119,-0.224c-3.19,3.642 -2.195,10.221 3.567,9.922c16.354,-0.857 11.065,-22.323 6.806,-31.396c-2.197,-4.68 -5.555,-10.521 -10.66,-12.476c-4.221,-1.621 -10.125,0.078 -10.332,5.201c-0.025,0.517 0.358,0.841 0.798,0.992Z" style="fill:#020202;fill-rule:nonzero;"/><path d="M397.171,201.429c-5.563,-0.553 -9.178,4.86 -10.578,9.615c-1.613,5.472 1.345,11.227 5.114,15.024c8.903,8.973 24.888,11.831 33.827,1.33c1.841,-2.164 2.846,-5.758 0.881,-8.179c-2.642,-3.265 -7.144,-1.606 -9.957,0.322c0.883,-0.606 -2.467,1.175 -1.576,0.886c-1.026,0.332 -2.275,0.355 -3.574,0.178c-3.33,-0.453 -6.256,-1.905 -8.982,-3.812c-2.338,-1.633 -3.922,-3.834 -4.982,-6.424c-1.039,-2.546 0.93,-4.916 0.998,-7.503c0.014,-0.627 -0.503,-1.374 -1.171,-1.437Z" style="fill:#020202;fill-rule:nonzero;"/><path d="M419.033,216.529c8.337,4.072 11.514,17.662 9.932,25.822c-2.087,10.746 15.002,7.191 14.918,-2.281c-0.108,-12.304 -7.832,-32.212 -23.078,-28.206c-1.529,0.404 -4.126,3.513 -1.772,4.665Z" style="fill:#020202;fill-rule:nonzero;"/><path d="M426.981,240.877c-7.916,2.682 -9.903,11.562 -3.433,16.961c5.271,4.406 15.034,7.452 21.889,6.629c3.443,-0.414 6.516,-2.192 8.14,-5.369c1.501,-2.932 0.984,-7.645 -2.987,-8.256c-5.196,-0.802 -10.212,-0.428 -15.362,-1.905c-4.063,-1.169 -4.567,-2.57 -5.111,-6.108c-0.239,-1.541 -1.557,-2.488 -3.136,-1.952Z" style="fill:#020202;fill-rule:nonzero;"/><path d="M445.177,256.886c0.807,0.566 1.308,1.217 1.877,2.059c0.867,1.277 0.548,0.356 0.994,1.911c0.229,0.804 0.201,0.39 0.02,1.132c-0.255,1.029 -0.555,2 -0.762,3.043c-1.319,6.607 7.024,6.329 10.051,2.407c2.972,-3.85 3.759,-8.479 0.671,-12.487c-2.37,-3.073 -6.745,-3.297 -10.215,-3.185c-2.229,0.07 -5.104,3.384 -2.636,5.12Z" style="fill:#020202;fill-rule:nonzero;"/><path d="M228.264,30.365c-2.034,14.815 -4.767,25.917 -16.319,36.215c-5.188,4.623 -11.172,8.293 -17.149,11.793c-5.046,2.956 -11.023,5.413 -14.936,9.863c-0.784,0.891 -0.628,2.883 0.951,2.651c6.873,-1.009 13.414,-5.911 19.253,-9.466c6.372,-3.879 12.546,-8.182 17.851,-13.45c9.742,-9.667 16.56,-24.341 12.168,-38.1c-0.291,-0.922 -1.722,-0.213 -1.819,0.494Z" style="fill:#020202;fill-rule:nonzero;"/><path d="M212.657,37.813c-4.257,8.394 -7.757,16.02 -14.204,23.127c-6.178,6.808 -14.267,10.47 -21.166,16.229c-0.899,0.749 -1.235,2.813 0.486,2.679c8.819,-0.694 17.496,-8.467 23.27,-14.585c6.498,-6.888 14.761,-17.412 13.882,-27.523c-0.116,-1.349 -1.846,-0.761 -2.268,0.073Z" style="fill:#020202;fill-rule:nonzero;"/><path d="M272.769,32.216c-0.862,12.818 5.865,24.491 14.375,33.572c6.863,7.325 19.58,16.539 30.186,14.115c1.313,-0.302 2.504,-2.165 1.202,-3.167c-3.886,-2.998 -9.365,-3.841 -13.777,-6.069c-5.278,-2.663 -9.923,-6.563 -14.084,-10.712c-7.963,-7.942 -12.412,-18.052 -15.474,-28.688c-0.41,-1.429 -2.363,-0.026 -2.428,0.949Z" style="fill:#020202;fill-rule:nonzero;"/><path d="M289.507,38.471c-0.445,6.855 3.285,12.375 7.748,17.229c4.148,4.513 10.092,10.18 16.056,11.922c1.25,0.365 3.368,-1.283 2.698,-2.666c-2.468,-5.084 -8.551,-8.486 -12.688,-12.154c-4.938,-4.382 -8.241,-9.475 -10.864,-15.482c-0.712,-1.626 -2.864,-0.126 -2.95,1.151Z" style="fill:#020202;fill-rule:nonzero;"/><path d="M466.166,272.966c2.301,-13.155 7.572,-28.021 20.693,-33.919c-1.24,0.044 -2.479,0.082 -3.716,0.121c8.84,4.489 22.7,12.94 19.92,24.894c-2.74,11.784 -21.082,10.39 -29.722,11.816c-2.818,0.466 -5.571,5.788 -1.66,6.729c19.582,4.72 49.383,-12.004 36.47,-34.307c-2.978,-5.147 -8.29,-8.987 -13.19,-12.116c-7.328,-4.681 -9.48,-4.313 -16.054,0.81c-10.233,7.982 -18.452,23.43 -16.841,36.6c0.299,2.453 3.773,1.25 4.1,-0.628Z" style="fill:#020202;fill-rule:nonzero;"/><path d="M461.81,276.191c-9.54,-2.863 -20.992,-3.681 -30.812,-2.023c-9.7,1.641 -13.573,13.02 -11.688,21.598c2.317,10.521 10.237,19.289 21.639,18.289c12.068,-1.063 22.522,-13.198 29.108,-22.323c3.283,-4.55 -2.467,-6.98 -5.646,-3.391c-5.591,6.305 -10.625,13.05 -18.224,17.101c-10.129,5.396 -18.345,-5.292 -19.712,-14.253c-1.56,-10.22 5.774,-11.192 13.75,-11.373c6.962,-0.16 14.005,0.863 20.858,-0.694c1.231,-0.285 2.42,-2.424 0.727,-2.931Z" style="fill:#020202;fill-rule:nonzero;"/><path d="M468.157,275.87c-1.032,-0.371 -2.056,-0.778 -3.147,-0.931c-0.604,-0.084 -1.211,-0.132 -1.821,-0.172c0.775,0.049 -0.384,-0.033 -0.642,-0.051c-0.262,-0.019 -0.535,0.018 -0.8,0.038c-2.038,0.154 -4.003,0.854 -5.588,2.169c-2.521,2.096 -3.675,5.712 -2.132,8.73c1.589,3.107 4.432,4.71 7.854,5.021c4.444,0.4 8.668,-2.375 11.434,-5.606c1.519,-1.772 2.479,-3.726 2.688,-6.053c0.232,-2.527 -3.21,-2.081 -4.429,-1.093c-1.039,0.839 -2.014,1.783 -2.89,2.795c-0.297,0.344 -0.584,0.693 -0.892,1.028c-0.638,0.694 0.733,-0.69 0.075,-0.065c-0.172,0.167 -0.355,0.322 -0.534,0.479c-0.284,0.251 -0.571,0.489 -0.87,0.723c-0.246,0.188 -0.943,0.643 0.239,-0.131c-0.17,0.111 -0.348,0.211 -0.52,0.312c-0.316,0.178 -1.625,0.722 -0.235,0.181c-0.329,0.131 -0.67,0.228 -1.015,0.31c-0.108,0.026 -0.224,0.052 -0.335,0.072c-0.668,0.131 0.973,-0.127 0.302,-0.055c-0.317,0.033 -0.64,0.036 -0.96,0.029c-0.831,-0.021 0.869,0.151 -0.169,-0.032c-0.293,-0.055 -0.583,-0.137 -0.867,-0.227c-0.787,-0.248 0.726,0.338 -0.024,-0.004c-0.256,-0.117 -0.504,-0.26 -0.744,-0.406c-0.236,-0.146 -0.467,-0.304 -0.688,-0.466c-0.772,-0.559 0.437,0.438 -0.094,-0.072c-0.341,-0.326 -0.632,-0.694 -0.888,-1.093c-0.381,-0.594 0.351,0.764 -0.007,-0.05c-0.094,-0.217 -0.159,-0.437 -0.221,-0.664c-0.175,-0.68 0.092,0.81 0.027,0.114c-0.03,-0.318 0.097,-1.155 -0.066,0.057c0.042,-0.343 0.372,-1.134 -0.103,0.07c0.041,-0.107 0.097,-0.208 0.146,-0.307c0.255,-0.487 -0.576,0.826 -0.249,0.373c0.204,-0.289 0.829,-0.824 -0.182,0.124c0.096,-0.09 0.205,-0.175 0.313,-0.26c0.483,-0.378 -0.859,0.53 -0.315,0.202c0.273,-0.169 0.57,-0.303 0.869,-0.43c0.205,-0.084 0.813,-0.315 -0.14,0.04c0.185,-0.069 0.374,-0.127 0.562,-0.188c2.008,-0.628 3.369,-0.762 5.683,-0.88c1.721,-0.084 3.63,-2.819 1.375,-3.631Z" style="fill:#020202;fill-rule:nonzero;"/><path d="M45.804,271.329c-0.301,-5.553 -5.011,-11.783 -7.384,-16.766c-3.287,-6.904 -6.777,-13.729 -11.777,-19.563c-1.25,-1.459 -3.639,-0.997 -4.933,0.159c-10.462,9.349 -21.911,27.479 -20.85,41.964c0.602,8.212 8.032,11.976 15.43,12.142c4.98,0.11 10.138,-1.719 14.768,-3.313c4.722,-1.624 10.366,-3.024 14.222,-6.31c1.354,-1.157 2.432,-4.275 -0.156,-4.792c-9.033,-1.807 -36.556,17.815 -36.401,-2.647c0.09,-11.855 10.3,-24.474 17.486,-33.15c-1.893,0.299 -3.787,0.602 -5.679,0.899c5.352,5.25 8.774,11.72 12.387,18.209c2.655,4.771 5.996,12.9 12.041,13.854c0.383,0.063 0.868,-0.257 0.846,-0.686Z" style="fill:#020202;fill-rule:nonzero;"/><path d="M51.917,278.59c-0.626,-0.37 -0.904,-1.403 -1.345,-1.98c-0.44,-0.585 -1.209,-1.002 -1.842,-1.331c-1.522,-0.798 -3.057,-0.93 -4.722,-0.677c-4.813,0.736 -6.893,7.06 -8.202,10.898c-0.433,1.266 0.379,2.68 1.665,2.967c8.21,1.815 13.514,-3.018 17.403,-9.656c1.707,-2.913 -2.023,-3.716 -3.923,-2.392c-2.045,1.432 -3.575,3.057 -5.313,4.83c-1.327,1.354 -3.268,1.305 -5.024,1.078c0.554,0.99 1.108,1.976 1.664,2.965c0.303,-1.217 1.257,-5.519 2.192,-5.836c0.732,-0.248 1.689,0.075 2.422,0.214c1.166,0.228 2.979,-0.256 4.008,0.167c0.681,0.279 1.808,-0.772 1.017,-1.247Z" style="fill:#020202;fill-rule:nonzero;"/><path d="M51.301,283.905c-3.402,15.289 6.183,27.169 11.865,40.496c0.982,2.304 4.08,2.096 5.716,0.583c12.662,-11.699 24.785,-28.896 23.775,-46.891c-0.101,-1.788 -1.461,-2.798 -3.18,-2.801c-13.404,-0.015 -31.424,-2.104 -43.401,4.988c-1.317,0.778 -3.068,3.831 -0.491,4.338c5.958,1.166 12.104,-0.377 18.098,-0.878c7.925,-0.661 15.914,-0.595 23.858,-0.609c-1.061,-0.933 -2.121,-1.865 -3.181,-2.799c0.96,16.216 -10.238,29.097 -20.307,40.472c2.031,-0.322 4.066,-0.646 6.099,-0.97c-7.237,-11.793 -13.991,-22.377 -15.494,-36.443c-0.222,-2.057 -3.029,-0.963 -3.357,0.514Z" style="fill:#020202;fill-rule:nonzero;"/><path d="M39.381,288.662c-11.211,-0.98 -19.312,10.879 -22.933,19.93c-4.289,10.725 -4.669,23.795 0.553,34.25c1.324,2.653 4.539,1.627 6.147,-0.199c6.32,-7.176 11.714,-14.995 15.583,-23.76c2.953,-6.686 6.017,-16.868 2.438,-23.76c-1.071,-2.063 -3.756,-0.555 -4.277,1.163c-2.376,7.828 -2.47,15.591 -5.807,23.296c-3.185,7.357 -8.148,13.758 -13.246,19.869c1.918,-0.306 3.836,-0.609 5.753,-0.912c-4.723,-7.681 -4.192,-17.659 -2.114,-26.083c2.55,-10.325 8.544,-16.831 17.971,-21.252c1.182,-0.554 1.523,-2.402 -0.068,-2.542Z" style="fill:#020202;fill-rule:nonzero;"/><path d="M472.194,287.863c-4.974,-0.973 -10.308,2.711 -9.664,8.388c0.745,6.624 8.401,11.727 13.312,15.211c8.313,5.896 17.396,10.738 26.373,15.536c5.448,2.914 11.834,7.711 18.018,8.484c1.915,0.234 3.724,-1.356 3.363,-3.321c-0.738,-4.013 -6.813,-6.033 -10.002,-7.696c-7.565,-3.958 -15.14,-7.896 -22.523,-12.183c-6.579,-3.815 -13.438,-7.896 -18.879,-13.266c-4.368,-4.313 -3.828,-6.214 0.179,-10.228c0.263,-0.267 0.253,-0.84 -0.177,-0.925Z" style="fill:#020202;fill-rule:nonzero;"/><path d="M474.083,296.392c13.62,2.652 23.45,8.121 31.151,19.979c3.389,5.217 5.598,11.203 7.256,17.164c1.454,5.244 1.081,12.046 4.023,16.645c0.857,1.339 3.06,0.043 3.523,-0.979c5.139,-11.265 -2.88,-28.079 -9.043,-37.498c-7.575,-11.585 -21.339,-20.585 -35.596,-18.795c-1.416,0.177 -3.694,3.018 -1.314,3.484Z" style="fill:#020202;fill-rule:nonzero;"/></g></svg>