<?xml version="1.0" encoding="UTF-8" standalone="no"?><!DOCTYPE svg PUBLIC "-//W3C//DTD SVG 1.1//EN" "http://www.w3.org/Graphics/SVG/1.1/DTD/svg11.dtd"><svg width="100%" height="100%" viewBox="0 0 516 384" version="1.1" xmlns="http://www.w3.org/2000/svg" xmlns:xlink="http://www.w3.org/1999/xlink" xml:space="preserve" style="fill-rule:evenodd;clip-rule:evenodd;stroke-linejoin:round;stroke-miterlimit:1.41421;"><g id="hospital"><path d="M171.65,8.635c7.487,2.868 16.745,2.367 24.683,2.613c9.778,0.303 19.563,0.287 29.345,0.406c18.956,0.229 37.894,1.103 56.846,1.504c11.484,0.242 22.845,0.109 34.308,-0.378c5.085,-0.217 10.175,-0.366 15.265,-0.313c1.965,0.021 3.795,0.133 5.719,0.528c0.24,0.05 2.732,0.744 1.695,0.374c1.692,0.604 0.122,0.167 -0.344,-0.931c4.624,-3.301 9.248,-6.602 13.871,-9.902c-1.816,-2.234 -4.484,-2.022 -7.065,-2.116c-6.444,-0.233 -12.042,9.199 -6.417,13.561c1.636,1.269 3.228,1.973 5.4,1.688c3.658,-0.478 6.939,-2.774 8.525,-6.146c1.164,-2.475 1.331,-6.804 -1.801,-8.066c-3.527,-1.424 -7.407,-1.434 -11.16,-1.289c-5.21,0.2 -10.42,0.07 -15.636,0.362c-10.742,0.6 -21.279,1.329 -32.053,1.302c-19.649,-0.049 -39.284,-0.881 -58.933,-1.056c-9.805,-0.087 -19.613,-0.088 -29.419,-0.07c-9.914,0.017 -21.059,-0.769 -30.701,1.741c-1.931,0.503 -5.292,4.976 -2.128,6.188Z" style="fill:#010101;fill-rule:nonzero;"/><path d="M167.155,6.436c-2.471,6.904 -1.707,14.298 -1.478,21.514c0.271,8.521 0.508,17.032 0.087,25.553c-0.374,7.573 -1.46,15.051 -2.066,22.604c-0.31,3.869 -2.352,8.69 -1.594,12.48c1.808,9.043 13.85,3.848 15.101,-3.051c0.611,-3.373 -0.649,-6.521 -1.057,-9.848c-0.951,-7.777 0.615,-15.919 0.508,-23.752c-0.105,-7.767 -0.411,-15.453 -1.047,-23.198c-0.609,-7.414 0.047,-16.538 -3.132,-23.386c-1.095,-2.359 -4.626,-0.861 -5.322,1.084Z" style="fill:#010101;fill-rule:nonzero;"/><path d="M11.311,98.872c5.19,2.154 11.031,1.96 16.573,2.211c6.406,0.29 12.819,0.391 19.231,0.425c13.542,0.074 27.18,-0.879 40.691,-1.698c13.57,-0.824 27.134,-1.68 40.722,-2.155c6.438,-0.225 12.882,-0.386 19.323,-0.364c6.575,0.022 13.522,2.154 19.67,-0.708c3.457,-1.609 6.449,-6.516 4.994,-10.313c-1.605,-4.188 -6.481,-3.478 -9.683,-1.946c-1.131,0.54 -2.016,1.37 -2.9,2.218c-1.803,1.727 -3.731,4.704 -2.553,7.324c0.649,1.441 1.339,2.413 2.696,3.321c6.741,4.513 17.931,-8.467 10.201,-13.467c-2.214,-1.433 -5.325,-1.177 -7.767,-0.749c-3.245,0.569 -6.509,0.541 -9.804,0.666c-6.49,0.245 -12.978,0.568 -19.46,0.963c-13.651,0.83 -27.287,1.982 -40.922,3.063c-12.998,1.03 -25.986,2.137 -39.006,2.872c-6.515,0.369 -13.022,0.828 -19.542,1.121c-6.812,0.307 -13.899,-0.148 -20.53,1.586c-1.802,0.471 -4.768,4.454 -1.934,5.63Z" style="fill:#010101;fill-rule:nonzero;"/><path d="M342.155,100.243c11.481,-0.491 23.176,1.648 34.714,1.609c14.641,-0.049 29.275,-0.344 43.916,-0.23c14.907,0.115 29.816,-0.254 44.723,-0.315c6.868,-0.028 13.707,0.292 20.564,0.599c2.77,0.123 6.201,-0.593 8.83,0.127c2.414,0.66 4.359,0.615 6.8,0.004c4.192,-1.052 9.333,-6.991 7.194,-11.559c-1.244,-2.656 -3.426,-3.453 -6.156,-3.635c-6.139,-0.41 -16.088,8.84 -8.357,13.73c0.539,0.338 1.076,0.679 1.609,1.023c-0.77,-0.877 -1.539,-1.754 -2.309,-2.632c0.014,0.054 0.027,0.106 0.041,0.16c3.074,-3.989 6.149,-7.979 9.224,-11.968c1.526,0.109 1.171,0.103 -1.066,-0.021c-0.994,0.154 -1.991,0.287 -2.988,0.425c-3.249,0.45 -6.579,0.485 -9.854,0.5c-7.564,0.033 -15.111,0.029 -22.678,0.173c-14.964,0.282 -29.921,0.813 -44.888,0.966c-14.689,0.15 -29.369,0.731 -44.055,1.044c-6.129,0.13 -12.21,0.399 -18.341,0.245c-5.536,-0.139 -10.993,-0.259 -16.249,1.711c-3.493,1.31 -6.497,8.293 -0.674,8.044Z" style="fill:#010101;fill-rule:nonzero;"/><path d="M346.869,6.575c-2.997,6 -2.987,12.947 -3.723,19.505c-0.855,7.638 -1.807,15.269 -2.49,22.923c-0.672,7.526 -1.086,15.043 -1.188,22.599c-0.053,3.826 0.023,7.651 0.169,11.474c0.139,3.682 1.142,7.927 0.395,11.559c4.449,-2.585 8.898,-5.171 13.348,-7.756c-0.29,-0.136 -0.581,-0.271 -0.872,-0.406c-4.973,-2.313 -11.305,2.042 -12.279,7.136c-0.065,0.342 -0.131,0.685 -0.196,1.026c-1.008,5.266 3.558,8.283 8.361,6.747c5.548,-1.773 9.655,-8.022 6.412,-13.37c-1.328,-2.189 -1.046,-6.855 -1.318,-9.375c-0.406,-3.738 -0.664,-7.492 -0.882,-11.244c-0.4,-6.885 -0.476,-13.798 -0.546,-20.691c-0.07,-6.857 -0.085,-13.708 0.018,-20.565c0.096,-6.403 1.602,-14.447 -1.424,-20.33c-0.893,-1.733 -3.133,-0.538 -3.785,0.768Z" style="fill:#010101;fill-rule:nonzero;"/><path d="M10.578,97.812c-1.609,10.902 -1.411,22.048 -1.229,33.038c0.203,12.306 0.418,24.615 0.696,36.922c0.541,23.895 0.1,47.625 -1.482,71.47c-1.492,22.508 -2.537,45.058 -3.438,67.597c-0.433,10.818 -0.793,21.641 -1.133,32.462c-0.166,5.325 -0.31,10.65 -0.437,15.976c-0.118,4.959 -1.097,9.974 -0.575,14.903c0.958,9.079 14.349,3.781 15.031,-3.036c0.457,-4.566 -0.082,-8.814 -0.267,-13.373c-0.21,-5.189 -0.06,-10.422 -0.063,-15.616c-0.007,-11.24 0.116,-22.477 0.323,-33.715c0.416,-22.497 1.223,-44.972 2.549,-67.435c1.4,-23.729 1.758,-47.307 1.084,-71.073c-0.33,-11.636 -0.961,-23.265 -1.476,-34.894c-0.511,-11.527 -0.584,-23.257 -2.446,-34.668c-0.701,-4.296 -6.658,-1.805 -7.137,1.442Z" style="fill:#010101;fill-rule:nonzero;"/><path d="M3.525,381.386c15.885,1.309 31.947,1.033 47.876,1.074c16.341,0.043 32.679,0.053 49.018,-0.129c32.735,-0.364 65.47,-0.947 98.203,-1.48c32.473,-0.53 64.948,-1.435 97.418,-0.363c32.652,1.077 65.231,2.475 97.907,2.735c37.141,0.296 74.283,0.203 111.424,0.627c4.694,0.054 9.338,-4.67 10.269,-9.012c0.903,-4.215 -2.167,-8.285 -6.702,-7.637c-2.614,0.374 -5.173,0.992 -7.746,1.575c-5.831,1.321 -10.795,11.739 -2.957,13.797c1.679,0.442 3.326,0.911 5.042,1.18c1.887,-5.517 3.774,-11.034 5.661,-16.552c-32.741,0.388 -65.476,1.161 -98.214,1.741c-32.792,0.581 -65.405,-0.095 -98.176,-1.289c-65.246,-2.378 -130.599,1.304 -195.84,2.687c-18.367,0.39 -36.737,0.781 -55.106,1.084c-18.313,0.302 -36.733,-0.137 -55.017,1.018c-3.941,0.248 -8.776,8.474 -3.06,8.944Z" style="fill:#010101;fill-rule:nonzero;"/><path d="M503.189,92.016c-3.188,13.77 -2.528,28.554 -2.456,42.605c0.075,14.491 0.169,28.982 0.371,43.471c0.411,29.57 -0.804,59.045 -1.073,88.6c-0.204,22.347 0.754,44.674 0.832,67.016c0.026,7.58 -0.025,15.146 -0.554,22.709c-0.215,3.074 -0.482,6.186 -1.118,9.203c-0.146,0.694 -0.323,1.38 -0.504,2.064c-0.533,2.017 0.561,-1.315 -0.1,0.329c-0.49,1.223 -0.592,1.613 -0.719,2.657c-0.287,2.354 3.807,-5.053 2.3,-3.575c1.687,-0.756 3.373,-1.512 5.06,-2.269c-0.076,0 -0.152,-0.001 -0.228,-0.002c-7.227,-0.074 -12.132,12.818 -2.768,12.914c-6.625,-0.068 1.082,-0.014 2.38,-0.331c2.291,-0.561 4.121,-2.385 5.632,-4.066c2.542,-2.83 2.904,-6.31 3.175,-9.904c0.576,-7.648 0.479,-15.283 0.438,-22.948c-0.11,-21.421 -1.232,-42.826 -1.495,-64.246c-0.385,-31.308 0.955,-62.556 0.139,-93.874c-0.408,-15.666 -1.164,-31.313 -1.851,-46.97c-0.641,-14.625 -0.036,-30.332 -3.827,-44.555c-0.538,-2.024 -3.359,-0.019 -3.634,1.172Z" style="fill:#010101;fill-rule:nonzero;"/><path d="M166.14,233.87c13.213,4.618 27.881,4.182 41.703,3.56c15.041,-0.677 30.039,-2.292 45.111,-2.069c17.01,0.252 34.012,0.729 51.025,0.866c8.544,0.068 17.088,0.108 25.633,0.14c8.188,0.031 16.319,0.688 24.48,0.809c5.314,0.078 8.248,-9.861 1.945,-9.078c-1.641,0.204 -3.13,0.545 -4.695,1.07c-2.048,0.688 -5.873,5.331 -2.341,6.807c1.312,0.548 2.537,0.959 3.948,1.148c5.788,0.777 10.029,-9.127 3.088,-9.025c-6.959,0.103 -13.881,0.772 -20.865,0.786c-8.559,0.016 -17.117,0.02 -25.676,0.005c-17.145,-0.028 -34.291,-0.138 -51.434,-0.399c-14.551,-0.222 -28.994,1.129 -43.494,2.141c-15.445,1.078 -30.58,0.952 -45.965,-0.808c-1.739,-0.201 -4.91,3.193 -2.463,4.047Z" style="fill:#010101;fill-rule:nonzero;"/><path d="M165.562,232.253c-0.822,2.247 -0.848,4.461 -0.576,6.823c0.112,0.975 0.359,1.949 0.591,2.9c0.257,1.049 1.02,2.12 1.097,3.183c0.188,2.594 3.069,2.848 4.916,1.794c1.705,-0.974 4.33,-5.046 1.35,-6.299c-1.204,-0.507 -1.621,-3.093 -1.915,-4.248c-0.424,-1.664 -0.467,-3.46 -1.23,-5.016c-0.909,-1.847 -3.659,-0.709 -4.233,0.863Z" style="fill:#010101;fill-rule:nonzero;"/><path d="M167.814,246.965c5.003,2.979 12.665,2.469 18.349,2.672c7.905,0.283 15.859,-0.271 23.739,-0.856c15.429,-1.147 30.752,-2.655 46.239,-2.741c16.57,-0.092 33.109,0.697 49.661,1.361c7.951,0.318 15.902,0.653 23.854,0.945c8.409,0.308 16.935,0.045 25.25,1.156c6.164,0.824 10.901,-9.65 3.332,-9.74c-1.466,-0.018 -2.726,0.422 -4.098,0.883c-2.37,0.795 -6.798,6.172 -2.709,7.879c1.628,0.68 2.923,1.057 4.707,1.035c5.697,-0.067 8.916,-10.642 2.1,-9.797c-15.351,1.901 -31.3,0.318 -46.748,-0.195c-16.599,-0.551 -33.205,-0.894 -49.813,-0.811c-15.713,0.079 -31.129,1.688 -46.73,3.374c-7.355,0.795 -14.722,1.445 -22.115,1.741c-3.622,0.146 -7.253,0.139 -10.877,0.071c-4.146,-0.076 -8.451,-1 -12.554,-0.33c-1.277,0.209 -3.343,2.308 -1.587,3.353Z" style="fill:#010101;fill-rule:nonzero;"/><path d="M357.489,230.237c-2.644,3.521 -4.296,8.105 -6.315,12.021c-1.054,2.041 -0.376,4.785 2.103,5.245c2.958,0.549 6.103,-2.009 6.704,-4.834c-1.855,1.629 -3.712,3.258 -5.568,4.887c2.584,-0.353 5.008,-2.255 5.568,-4.887c0.799,-3.745 3.326,-9.009 1.645,-12.768c-0.818,-1.825 -3.231,-0.871 -4.137,0.336Z" style="fill:#010101;fill-rule:nonzero;"/><path d="M180.383,249.074c-1.348,5.938 -1.041,12.199 -1.3,18.259c-0.277,6.521 -0.732,13.033 -1.143,19.545c-0.684,10.826 -1.045,21.623 -0.65,32.465c0.352,9.681 0.9,19.352 0.895,29.043c-0.003,4.649 -0.146,9.293 -0.796,13.9c-0.555,3.933 -2.633,7.971 -2.468,11.922c0.202,4.867 6.394,2.78 8.254,0.4c4.791,-6.13 3.75,-17.418 3.817,-24.768c0.093,-10.142 -0.731,-20.283 -1.357,-30.397c-0.683,-11.025 -0.598,-21.98 -0.304,-33.021c0.171,-6.444 0.393,-12.887 0.504,-19.332c0.109,-6.326 0.715,-13.271 -1.341,-19.342c-0.751,-2.219 -3.787,-0.099 -4.111,1.326Z" style="fill:#010101;fill-rule:nonzero;"/><path d="M342.582,246.991c-1.243,4.097 -1.067,8.478 -1.189,12.729c-0.15,5.269 -0.33,10.536 -0.458,15.805c-0.257,10.563 -0.607,21.121 -0.966,31.68c-0.36,10.605 -0.775,21.208 -1.209,31.81c-0.439,10.747 0.036,22.118 -1.896,32.712c3.058,-1.777 6.115,-3.554 9.173,-5.331c-2.312,-1.638 -4.425,-2.664 -7.309,-2.333c-1.388,0.159 -2.886,1.114 -3.411,2.459c-1.443,3.694 -0.119,5.979 2.336,8.871c3.437,4.049 10.822,-1.494 10.267,-5.899c-1.296,-10.267 -0.048,-21.179 0.182,-31.508c0.235,-10.539 0.442,-21.079 0.609,-31.62c0.167,-10.488 0.254,-20.977 0.29,-31.467c0.018,-5.21 -0.026,-10.416 -0.107,-15.626c-0.071,-4.593 0.38,-9.551 -1.215,-13.921c-1.029,-2.816 -4.587,-0.042 -5.097,1.639Z" style="fill:#010101;fill-rule:nonzero;"/><path d="M192.964,258.424c8.012,1.753 16.993,0.827 25.15,0.766c7.341,-0.056 14.681,-0.443 22.02,-0.479c3.755,-0.019 7.498,-0.037 11.253,0.035c1.868,0.035 -1.351,-1.009 0.78,0.145c0.97,0.525 2.303,0.665 3.332,0.268c1.671,-0.646 3.184,-1.561 3.995,-3.239c1.832,-3.787 -2.927,-5.481 -5.41,-2.964c-0.899,0.911 -1.89,2.139 -1.698,3.54c1.81,-1.589 3.619,-3.177 5.43,-4.765c1.727,0.156 -2.009,-0.419 -2.727,-0.139c-0.912,0.356 -1.687,0.703 -2.461,1.327c2.23,-1.796 1.263,-0.713 -0.706,-0.509c-3.533,0.367 -7.062,0.612 -10.608,0.794c-6.722,0.345 -13.446,0.567 -20.175,0.715c-8.84,0.195 -18.278,-0.667 -26.979,1.008c-1.386,0.267 -3.565,2.979 -1.196,3.497Z" style="fill:#010101;fill-rule:nonzero;"/><path d="M267.209,258.036c4.114,1.431 9.349,1.082 13.683,1.521c6.633,0.673 13.239,1.598 19.868,2.309c6.035,0.646 12.132,1.197 18.207,1.008c2.38,-0.074 4.8,-0.387 7.121,-0.92c2.804,-0.645 -0.872,-0.139 1.55,-0.335c1.531,-0.124 2.666,-0.974 3.832,-1.881c3.07,-2.39 2.02,-8.573 -2.583,-6.64c-0.997,0.419 -1.93,0.771 -2.761,1.502c-2.479,2.175 2.187,-0.618 -1.191,0.472c-2.035,0.657 -4.378,0.657 -6.494,0.761c-6.145,0.298 -12.308,-0.304 -18.416,-0.897c-6.158,-0.599 -12.304,-1.362 -18.476,-1.81c-4.387,-0.318 -9.394,-0.867 -13.498,0.981c-1.09,0.49 -2.69,3.286 -0.842,3.929Z" style="fill:#010101;fill-rule:nonzero;"/><path d="M194.898,257.231c-5.059,5.991 -3.332,18.133 -3.371,25.345c-0.047,8.835 0.411,17.864 0.89,26.695c0.5,9.22 1.25,18.421 1.413,27.656c0.074,4.197 -0.005,8.411 -0.475,12.585c-0.322,2.858 -2.533,6.414 -2.129,9.148c0.324,2.198 2.619,1.773 3.957,0.774c4.596,-3.431 3.887,-14.034 3.961,-19.085c0.137,-9.261 -0.742,-18.531 -1.458,-27.754c-0.655,-8.432 -0.809,-16.876 -1.41,-25.309c-0.399,-5.604 -0.932,-11.184 -0.998,-16.805c-0.049,-4.147 1.385,-9.373 0.303,-13.308c-0.093,-0.338 -0.551,-0.098 -0.683,0.058Z" style="fill:#010101;fill-rule:nonzero;"/><path d="M256.48,257.957c0.058,-1.044 -0.13,-2.722 0.559,-3.581c1.542,-1.925 -2.347,-2.588 -2.347,-0.114c0,3.173 -0.827,6.681 -0.985,9.904c-0.22,4.503 -0.502,9.002 -0.738,13.503c-0.469,8.941 -0.977,17.88 -1.523,26.817c-0.551,8.977 -1.086,17.954 -1.495,26.938c-0.206,4.528 -0.364,9.058 -0.492,13.588c-0.113,4.018 -0.942,8.327 -0.57,12.311c1.683,-1.477 3.365,-2.953 5.048,-4.43c-0.514,-0.164 -0.998,-0.474 -1.57,-0.605c-2.265,-0.521 -5.435,2.73 -3.686,4.831c0.143,0.32 0.266,0.647 0.369,0.982c1.14,3.384 5.43,0.438 6.448,-1.313c1.571,-2.704 0.28,-6.931 0.244,-9.915c-0.054,-4.518 0.132,-9.051 0.253,-13.566c0.239,-8.952 0.632,-17.9 1.023,-26.847c0.389,-8.883 0.775,-17.766 1.05,-26.653c0.137,-4.429 0.163,-8.853 0.149,-13.283c-0.014,-4.369 -0.843,-8.839 -0.843,-13.121c0,-2.073 -4.228,0.194 -2.229,1.603c0.597,0.421 0.402,2.557 0.441,3.239c0.035,0.597 0.87,0.144 0.894,-0.288Z" style="fill:#010101;fill-rule:nonzero;"/><path d="M266.098,256.788c-1.349,7.605 -0.493,15.739 -0.425,23.433c0.084,9.367 -0.104,18.741 -0.971,28.072c-1.556,16.736 -2.845,33.123 -1.447,49.927c0.372,4.48 7.688,1.166 6.621,-2.929c-0.117,-0.872 -0.426,-1.669 -0.927,-2.39c-0.453,-0.841 -1.213,-1.374 -2.219,-1.238c-3.574,0.482 -3.517,3.682 -3.476,6.557c2.207,-0.976 4.414,-1.952 6.621,-2.929c-3.955,-16.062 -1.24,-33.629 -0.001,-49.897c0.626,-8.222 0.5,-16.422 0.203,-24.653c-0.288,-7.984 0.138,-16.626 -1.448,-24.464c-0.305,-1.513 -2.325,-0.651 -2.531,0.511Z" style="fill:#010101;fill-rule:nonzero;"/><path d="M329.932,258.162c0.338,-0.855 0.798,-1.638 1.38,-2.347c-0.771,-0.146 -1.543,-0.291 -2.314,-0.437c-1.621,8.161 -1.102,16.848 -1.477,25.135c-0.408,8.991 -0.967,17.978 -1.546,26.96c-0.563,8.733 -1.192,17.462 -1.74,26.196c-0.273,4.374 -0.503,8.751 -0.692,13.13c-0.16,3.68 -0.85,7.799 0.201,11.353c1.012,3.428 5.621,0.018 6.137,-1.978c0.828,-3.199 0.396,-6.688 0.428,-9.981c0.039,-4.306 0.16,-8.61 0.289,-12.913c0.259,-8.63 0.654,-17.254 1.055,-25.878c0.413,-8.919 0.802,-17.839 0.99,-26.766c0.179,-8.46 1.143,-17.837 -1.058,-26.092c-0.392,-1.468 -3.241,0.125 -2.553,1.455c0.332,0.7 0.401,1.41 0.207,2.13c-0.069,0.465 0.575,0.368 0.693,0.033Z" style="fill:#010101;fill-rule:nonzero;"/><path d="M191.81,360.282c1.153,2.195 6.476,1.072 8.404,0.939c5.328,-0.366 10.629,-1.341 15.936,-1.939c10.009,-1.128 23.446,-3.117 32.476,2.51c1.073,-2.268 2.146,-4.535 3.219,-6.803c-2.576,-0.014 -4.19,0.459 -6.386,1.805c-0.927,0.569 -2.279,2.315 -1.176,3.377c1.896,1.822 3.462,1.953 6.036,1.939c2.66,-0.015 6.777,-5.143 3.219,-6.803c-9.863,-4.602 -21.604,-3.654 -32.104,-2.436c-6.002,0.696 -11.961,1.719 -17.888,2.879c-3.275,0.641 -9.425,1.127 -11.616,3.976c-0.106,0.136 -0.21,0.385 -0.12,0.556Z" style="fill:#010101;fill-rule:nonzero;"/><path d="M264.807,359.442c9.225,2.932 20.015,1.543 29.544,1.24c10.735,-0.342 21.38,-0.492 32.107,0.117c0.513,-2.393 1.025,-4.785 1.538,-7.178c-2.64,0.758 -5.03,1.182 -7.046,3.131c-1.245,1.204 -2.193,4.052 0.286,4.534c2.402,0.468 4.798,-0.07 7.141,-0.642c3.587,-0.877 5.536,-7.202 0.604,-7.222c-10.442,-0.04 -20.931,0.561 -31.357,1.109c-10.699,0.563 -22.055,0.313 -32.443,3.161c-0.748,0.208 -1.353,1.439 -0.374,1.75Z" style="fill:#010101;fill-rule:nonzero;"/><path d="M40.851,126.198c4.479,1.416 9.437,1.141 14.096,1.227c5.271,0.098 10.541,0.242 15.811,0.332c10.556,0.181 21.113,0.307 31.669,0.444c-1.046,-0.843 -2.091,-1.687 -3.137,-2.529c-0.064,7.698 0.233,15.396 0.151,23.096c-0.047,4.449 -0.15,8.919 -0.561,13.353c-0.168,1.815 -0.422,3.621 -0.796,5.405c-0.175,0.832 -0.013,0.368 -0.306,1.054c-1.52,3.551 0.127,-0.023 1.404,-0.693c-2.993,1.57 -4.266,7.234 0.397,7.076c9.421,-0.32 8.292,-16.416 8.376,-22.455c0.137,-9.803 -0.593,-19.572 -0.767,-29.368c-0.031,-1.763 -1.585,-2.55 -3.137,-2.529c-10.62,0.138 -21.239,0.299 -31.858,0.444c-9.866,0.135 -21.016,-0.925 -30.591,1.635c-1.508,0.401 -2.713,2.888 -0.751,3.508Z" style="fill:#010101;fill-rule:nonzero;"/><path d="M43.055,125.232c-3.364,18.073 -2.054,38.254 0.051,56.421c0.193,1.666 1.588,3.036 3.376,2.722c10.536,-1.853 21.357,-0.385 31.982,-0.313c6.543,0.045 13.7,0.88 20.23,0.08c6.129,-0.75 7.902,-10.849 0.743,-8.878c-1.495,0.411 -2.651,1.054 -3.808,2.096c-0.99,0.892 -2.185,2.76 -1.449,4.159c0.851,1.621 1.682,2.02 3.365,2.57c4.973,1.626 10.09,-8.245 4.25,-9.016c-6.896,-0.911 -14.504,-0.02 -21.412,0.027c-11.137,0.074 -22.29,-1.274 -33.236,1.322c1.486,0.835 2.973,1.67 4.46,2.504c-1.669,-8.633 -2.708,-17.318 -3.296,-26.088c-0.627,-9.348 -0.39,-19.007 -2.283,-28.207c-0.364,-1.779 -2.72,-0.759 -2.973,0.601Z" style="fill:#010101;fill-rule:nonzero;"/><path d="M415.38,128.953c19.652,-1.759 39.512,0.36 59.088,-1.986c-1.096,-0.883 -2.19,-1.767 -3.285,-2.649c-0.554,17.516 -0.024,34.812 -3.394,52.108c2.284,-1.646 4.567,-3.294 6.852,-4.94c-1.972,-0.29 -3.196,-0.458 -5.138,0.219c-1.667,0.58 -3.088,2.119 -3.059,3.957c0.034,2.136 0.844,3.686 2.865,4.584c3.271,1.456 7.159,-1.295 7.884,-4.581c3.852,-17.47 2.881,-36.242 2.263,-53.999c-0.058,-1.668 -1.643,-2.905 -3.285,-2.648c-19.966,3.107 -40.973,-1.139 -60.396,5.217c-2.109,0.687 -3.746,5.017 -0.395,4.718Z" style="fill:#010101;fill-rule:nonzero;"/><path d="M414.598,124.51c-2.553,16 -0.572,32.702 1.122,48.708c0.139,1.316 0.996,2.646 2.443,2.784c16.027,1.529 32.078,1.241 47.901,4.672c0.647,-3.021 1.295,-6.042 1.942,-9.063c-2.188,0.541 -3.466,1.621 -5.12,3.063c-1.538,1.342 -2.185,3.636 -0.386,4.993c1.461,1.103 2.963,1.145 4.742,1.062c4.201,-0.197 9.082,-8.023 3.187,-9.314c-16.102,-3.525 -32.94,-4.026 -49.375,-3.865c1.171,0.943 2.342,1.889 3.513,2.833c-2.752,-15.421 -4.481,-31.015 -7.339,-46.403c-0.291,-1.575 -2.437,-0.675 -2.63,0.53Z" style="fill:#010101;fill-rule:nonzero;"/><path d="M41.3,206.682c8.84,1.718 18.479,1.004 27.448,1.059c10.488,0.065 21.333,-0.963 31.771,0.162c-0.827,-0.943 -1.654,-1.886 -2.481,-2.828c-1.338,20.581 5.22,41.721 -0.876,61.892c3.066,-0.988 6.133,-1.977 9.199,-2.965c-1.343,-2.505 -2.529,-4.393 -5.271,-5.31c-1.957,-0.656 -3.962,1.563 -4.427,3.191c-0.7,2.453 -0.267,4.926 0.621,7.292c1.894,5.048 8.274,0.105 9.199,-2.965c6.333,-21.021 -0.532,-42.651 0.542,-64.019c0.096,-1.891 -1.9,-3.051 -3.568,-2.878c-19.979,2.07 -40.697,-0.825 -60.547,2.657c-1.874,0.329 -4.797,4.093 -1.61,4.712Z" style="fill:#010101;fill-rule:nonzero;"/><path d="M40.15,204.465c-3.038,12.04 -1.721,25.643 -1.782,37.965c-0.026,5.061 -0.171,10.091 -0.535,15.138c-0.206,2.853 -0.331,6.046 1.43,8.483c4.42,6.118 16.376,5.104 22.802,4.822c5.943,-0.261 11.857,-1.171 17.766,-1.817c2.916,-0.319 5.837,-0.527 8.768,-0.644c2.621,-0.104 5.651,0.604 7.943,-1.009c1.883,-1.324 3.937,-3.603 2.968,-6.13c-0.861,-2.248 -3.997,-2.394 -5.755,-1.157c-2.417,1.7 -4.762,4.159 -2.44,7.008c3.191,3.918 10.882,-2.781 7.667,-6.729c-2.203,-2.706 -8.854,-1.355 -11.863,-1.156c-5.346,0.354 -10.661,1.179 -15.979,1.802c-5.451,0.639 -10.939,1.044 -16.418,0.559c-1.607,-0.145 -6.699,-0.047 -7.739,-1.788c-1.124,-1.881 -0.515,-5.062 -0.458,-7.128c0.134,-4.91 -0.091,-9.825 -0.264,-14.73c-0.392,-11.103 0.132,-23.762 -3.056,-34.472c-0.507,-1.699 -2.803,-0.018 -3.055,0.983Z" style="fill:#010101;fill-rule:nonzero;"/><path d="M414.356,203.725c10.345,1.71 21.427,1.193 31.896,1.461c11.334,0.289 22.714,0.453 34.03,1.164c-0.837,-1.371 -1.675,-2.741 -2.512,-4.111c-2.418,20.077 -3.069,40.396 -2.351,60.601c2.342,-2.056 4.685,-4.11 7.026,-6.166c-1.093,-0.302 -1.888,-1.163 -3.175,-1.392c-2.885,-0.512 -7.114,2.967 -5.723,6.1c1.07,2.411 1.908,3.785 4.552,4.513c3.382,0.932 7.144,-2.958 7.026,-6.166c-0.707,-19.401 -0.124,-38.928 1.896,-58.239c0.269,-2.57 -1.014,-4.158 -3.653,-4.163c-11.094,-0.023 -22.197,-0.547 -33.289,-0.78c-10.977,-0.232 -22.583,-1.025 -33.47,0.591c-2.667,0.394 -6.674,5.857 -2.253,6.587Z" style="fill:#010101;fill-rule:nonzero;"/><path d="M417.296,200.329c-3.348,2.458 -3.4,7.206 -3.782,10.997c-0.525,5.23 -0.548,10.466 -0.418,15.715c0.282,11.445 1.427,22.851 1.776,34.292c0.062,2.02 1.811,2.971 3.625,2.924c8.264,-0.211 16.539,-0.299 24.807,-0.295c4.483,0.002 8.967,0.072 13.449,0.17c1.91,0.041 3.82,0.101 5.73,0.16c1.499,0.047 4.74,-0.414 6.072,0.227c-0.381,-1.706 -0.762,-3.412 -1.143,-5.118c-0.033,0.084 -0.066,0.168 -0.1,0.252c0.965,-1.028 1.929,-2.056 2.893,-3.083c-1.042,0.596 -2.034,1.185 -2.916,2.013c-2.961,2.779 -2.26,7.899 2.585,6.645c2.887,-0.748 4.827,-1.261 6.334,-4.186c0.84,-1.63 0.753,-4.225 -1.142,-5.118c-3.121,-1.472 -7.187,-0.92 -10.574,-1.012c-5.117,-0.139 -10.236,-0.189 -15.355,-0.202c-9.6,-0.024 -19.176,0.251 -28.762,0.774c1.209,0.975 2.417,1.949 3.625,2.924c-0.632,-10.273 -2.092,-20.472 -3.027,-30.718c-0.496,-5.423 -0.816,-10.878 -0.904,-16.323c-0.049,-2.993 1.61,-8.999 -0.933,-11.187c-0.596,-0.515 -1.265,-0.274 -1.84,0.149Z" style="fill:#010101;fill-rule:nonzero;"/><path d="M120.32,123.155c-1.877,8.926 -1.323,18.39 -1.362,27.464c-0.042,9.756 -0.051,19.62 -1.125,29.327c-0.212,1.922 0.401,3.526 2.446,4.004c10.799,2.518 22.479,2.769 33.496,3.613c6.334,0.486 12.675,0.904 19.022,1.155c4.421,0.175 10.817,0.518 12.024,-5.116c0.184,-0.859 -0.815,-3.502 -0.127,-1.936c-0.356,-0.812 -0.797,-1.454 -1.603,-1.89c-1.604,-0.868 -4.407,-0.356 -6.21,-0.393c-5.897,-0.118 -11.794,-0.581 -17.675,-1.011c-11.57,-0.846 -23.325,-1.452 -34.81,-3.162c0.846,0.965 1.693,1.93 2.539,2.895c0.301,-9.379 0.265,-18.701 -0.145,-28.077c-0.404,-9.278 -0.294,-19.101 -2.488,-28.159c-0.533,-2.21 -3.707,-0.03 -3.982,1.286Z" style="fill:#010101;fill-rule:nonzero;"/><path d="M121.381,124.315c18.548,3.844 37.833,-3.269 56.349,-0.109c-0.783,-0.894 -1.567,-1.786 -2.351,-2.68c-0.315,10.833 -0.897,21.685 -1.567,32.5c-0.381,6.167 -0.742,12.337 -1.432,18.479c-0.229,2.04 -0.51,4.075 -0.904,6.089c-0.068,0.347 -0.75,2.591 -0.275,1.312c-0.181,0.487 -0.345,0.978 -0.492,1.475c-0.892,2.934 2.389,-3.098 3.762,-3.637c-2.531,0.994 -6.488,5.666 -2.671,7.77c5.171,2.85 8.588,-4.432 9.318,-8.24c1.186,-6.189 1.471,-12.609 1.876,-18.884c0.852,-13.152 1.242,-26.414 0.899,-39.592c-0.044,-1.709 -1.703,-3.001 -3.38,-2.727c-19.012,3.11 -38.648,1.726 -57.734,4.158c-1.72,0.219 -4.089,3.528 -1.398,4.086Z" style="fill:#010101;fill-rule:nonzero;"/><path d="M336.918,124.45c8.845,0.234 17.689,-0.416 26.55,-0.096c9.913,0.357 19.926,0.809 29.802,1.712c-0.87,-0.991 -1.74,-1.982 -2.61,-2.974c-0.546,17.929 0.512,35.87 -0.147,53.807c2.353,-2.064 4.704,-4.128 7.056,-6.192c-1.104,-0.188 -2.056,-0.532 -3.182,-0.663c-2.693,-0.313 -7.391,2.91 -5.723,6.1c1.145,2.19 2.073,3.253 4.541,3.823c3.594,0.831 6.932,-2.897 7.056,-6.192c0.673,-17.86 0.458,-35.852 -0.147,-53.713c-0.068,-2.015 -1.87,-3.174 -3.753,-3.026c-19.34,1.519 -40.445,-3.89 -59.089,3.199c-1.912,0.725 -3.365,4.135 -0.354,4.215Z" style="fill:#010101;fill-rule:nonzero;"/><path d="M339.104,120.533c-3.552,1.604 -4.169,6.846 -4.735,10.229c-0.879,5.252 -0.957,10.673 -0.902,15.982c0.115,11.228 1.395,22.425 1.279,33.655c-0.028,2.786 2.905,3.277 4.992,2.803c17.156,-3.905 35.597,-3.279 52.742,0.337c0.652,-3.044 1.305,-6.088 1.957,-9.132c-2.999,0.63 -4.532,2.221 -6.156,4.719c-0.885,1.363 -1.136,3.427 0.869,3.891c1.69,0.391 2.727,0.729 4.518,0.577c4.104,-0.347 9.266,-8.117 3.211,-9.385c-18.578,-3.889 -39.176,-4.664 -57.609,0.337c1.664,0.935 3.328,1.869 4.992,2.803c-0.289,-11.619 -2.184,-23.122 -2.943,-34.711c-0.357,-5.467 -0.5,-10.967 0.043,-16.426c0.144,-1.461 0.908,-7.108 -2.258,-5.679Z" style="fill:#010101;fill-rule:nonzero;"/><path d="M265.323,26.754c-23.413,-5.617 -48.741,8.279 -61.559,27.453c-10.999,16.452 -13.887,37.974 -4.901,55.967c19.816,39.685 78.367,33.529 107.055,8.153c18.751,-16.587 24.583,-46.089 12.374,-68.241c-5.533,-10.039 -14.556,-17.491 -24.86,-22.282c-11.232,-5.222 -24.98,-8.438 -37.013,-4.631c-1.61,0.511 -4.916,4.567 -1.929,5.612c9.75,3.41 20.158,3.335 29.855,7.191c8.899,3.54 16.595,9.26 22.229,17.017c11.766,16.199 9.96,41.878 -3.73,56.312c-26.969,28.433 -87.912,27.343 -98.366,-16.149c-3.418,-14.218 1.539,-29.257 10.205,-40.554c12.419,-16.192 31.414,-18.478 49.939,-22.582c1.361,-0.302 2.577,-2.815 0.701,-3.266Z" style="fill:#010101;fill-rule:nonzero;"/><path d="M40.815,289.63c-4.034,8.628 -4.259,19.576 -5.304,28.949c-1.114,10.004 -1.162,19.722 -0.773,29.761c0.242,6.26 8.973,2.957 10.475,-0.849c0.648,-1.642 1.184,-2.978 0.883,-4.76c-0.182,-1.075 -0.565,-2.442 -1.749,-2.877c-0.223,-0.082 -0.445,-0.164 -0.669,-0.246c-1.826,-0.671 -3.534,-0.218 -5.013,1.043c-1.656,1.412 -2.531,3.018 -3.349,4.994c3.406,-0.694 6.813,-1.388 10.219,-2.081c-2.12,-9.146 -1.689,-19.282 -1.364,-28.598c0.281,-8.068 2.683,-18.281 -0.363,-25.946c-0.578,-1.453 -2.547,-0.342 -2.993,0.61Z" style="fill:#010101;fill-rule:nonzero;"/><path d="M40.854,292.799c3.275,0.456 6.722,-0.148 10.036,-0.102c4.279,0.063 8.558,0.518 12.807,1.01c5.498,0.637 10.969,0.779 16.493,0.92c5.291,0.137 10.606,0.293 15.818,1.28c0.802,0.152 1.268,0.261 1.815,0.539c0.593,0.3 4.123,0.53 2.572,0.442c3.049,0.173 5.815,-1.33 7.148,-4.166c5.054,-10.742 -20.523,-7.81 -25.307,-7.651c-5.749,0.189 -11.449,0.293 -17.205,0.155c-7.337,-0.175 -17.354,-1.688 -23.782,2.733c-1.337,0.922 -3.355,4.426 -0.395,4.84Z" style="fill:#010101;fill-rule:nonzero;"/><path d="M99.673,288.751c-1.831,4.079 -1.465,8.612 -1.459,12.991c0.008,6.273 0.434,12.54 0.564,18.812c0.113,5.449 0.165,10.962 -0.443,16.386c-0.184,1.646 -0.712,4.548 -1.052,5.413c-0.793,2.019 -2.171,3.913 -1.189,6.194c0.476,1.104 1.486,2.068 2.738,2.197c13.081,1.356 11.165,-21.222 10.78,-28.838c-0.336,-6.667 -1.008,-13.319 -1.689,-19.959c-0.487,-4.746 -0.702,-10.707 -3.234,-14.841c-1.223,-1.997 -4.412,0.303 -5.016,1.645Z" style="fill:#010101;fill-rule:nonzero;"/><path d="M38.119,348.521c2.43,1.704 5.52,1.96 8.393,2.472c3.466,0.618 6.906,1.352 10.379,1.941c6.83,1.16 13.653,1.819 20.584,1.709c5.617,-0.091 11.003,-0.48 16.612,-0.175c5.144,0.281 10.659,-2.232 10.975,-7.998c0.063,-1.146 -0.78,-2.451 -1.792,-2.947c-0.086,-0.043 -0.172,-0.085 -0.259,-0.128c-4.063,-1.994 -8.336,2.287 -8.562,6.156c-0.006,0.109 -0.013,0.219 -0.02,0.327c1.232,-1.979 2.465,-3.96 3.696,-5.939c-0.063,0.034 -0.126,0.067 -0.188,0.101c1.368,-0.278 2.735,-0.557 4.104,-0.835c0.957,0.304 0.699,0.207 -0.775,-0.289c-1.011,-0.188 -2.208,-0.071 -3.231,0.013c-1.935,0.159 -3.896,0.163 -5.836,0.148c-5.899,-0.046 -11.81,1.176 -17.732,1.31c-6.229,0.142 -12.521,-0.663 -18.727,-1.099c-5.581,-0.393 -11.657,-0.923 -16.821,1.504c-1.366,0.64 -2.217,2.736 -0.8,3.729Z" style="fill:#010101;fill-rule:nonzero;"/><path d="M415.127,293.616c3.409,2.041 7.718,1.506 11.523,1.382c5.77,-0.187 11.517,-0.826 17.286,-1.06c9.452,-0.382 19.719,-1.788 28.659,1.904c2.452,1.013 5.365,0.376 7.274,-1.513c0.917,-0.908 1.445,-1.643 2.094,-2.744c1.236,-2.097 0.718,-5.006 -1.397,-6.265c-3.722,-2.215 -8.477,-2.059 -12.638,-2.226c-6.006,-0.241 -12.005,0.158 -17.987,0.675c-6.372,0.551 -12.73,1.477 -19.088,2.183c-5.003,0.556 -10.133,1.022 -14.752,3.114c-1.566,0.711 -2.811,3.451 -0.974,4.55Z" style="fill:#010101;fill-rule:nonzero;"/><path d="M416.552,290.916c-2.556,4.998 -2.302,11.109 -2.362,16.602c-0.063,5.74 -0.479,11.507 -0.334,17.242c0.115,4.577 0.589,9.125 0.926,13.688c0.229,3.099 -0.649,6.813 0.292,9.747c0.902,2.811 4.823,2.697 6.85,1.377c8.02,-5.219 4.537,-16.975 3.109,-24.789c-0.879,-4.809 -1.172,-9.633 -1.742,-14.482c-0.725,-6.166 -0.352,-14.538 -3.201,-20.104c-0.835,-1.63 -2.92,-0.489 -3.538,0.719Z" style="fill:#010101;fill-rule:nonzero;"/><path d="M418.332,349.788c8.529,3.944 20.666,2.234 29.813,1.914c10.949,-0.383 21.896,-0.842 32.854,-0.553c7.149,0.188 10.486,-13.182 2.535,-11.828c-2.061,0.352 -3.684,0.766 -5.481,1.871c-2.14,1.316 -5.245,5.324 -2.708,7.776c1.316,1.272 2.369,1.77 4.167,2.112c1.341,-3.92 2.682,-7.84 4.022,-11.76c-10.435,0.334 -20.857,0.986 -31.277,1.598c-10.34,0.605 -22.324,0.054 -32.134,3.662c-1.592,0.587 -4.463,3.973 -1.791,5.208Z" style="fill:#010101;fill-rule:nonzero;"/><path d="M479.05,288.76c-3.602,8.556 -2.733,19.756 -3.309,28.854c-0.335,5.296 -0.67,10.598 -1.146,15.883c-0.303,3.373 -1.448,7.13 -1.161,10.496c0.501,5.865 7.825,3.662 10.214,0.495c2.562,-3.396 2.33,-7.659 2.536,-11.714c0.279,-5.479 0.322,-10.969 0.316,-16.453c-0.006,-5.854 -0.082,-11.695 -0.334,-17.543c-0.146,-3.375 -0.208,-8.043 -1.857,-11.089c-1.232,-2.277 -4.434,-0.888 -5.259,1.071Z" style="fill:#010101;fill-rule:nonzero;"/></g></svg>