<?xml version="1.0" encoding="utf-8"?>
<!-- Generator: Adobe Illustrator 17.0.0, SVG Export Plug-In . SVG Version: 6.00 Build 0)  -->
<!DOCTYPE svg PUBLIC "-//W3C//DTD SVG 1.0//EN" "http://www.w3.org/TR/2001/REC-SVG-20010904/DTD/svg10.dtd">
<svg version="1.0" id="Layer_1" xmlns="http://www.w3.org/2000/svg" xmlns:xlink="http://www.w3.org/1999/xlink" x="0px" y="0px"
	 width="566.93px" height="566.93px" viewBox="0 0 566.93 566.93" enable-background="new 0 0 566.93 566.93" xml:space="preserve">
<path d="M41.551,226.577c11.38,4.84,27.092,5.78,37.751-1.364c0.16-0.107,0.326-0.227,0.495-0.353
	c8.854,25.744,30.464,40.615,55.198,48.994c-1.001,1.888-1.982,3.787-2.927,5.705c-7.786,15.801-13.605,33.248-13.078,51.042
	c0.031,1.063,0.695,2.566,1.796,2.954c9.503,3.346,18.97-2.815,26.437-8.176c4.568-3.279,8.735-7.144,12.573-11.243
	c0.559-0.597,1.163-1.224,1.78-1.877c-0.008,0.583-0.018,1.163-0.032,1.738c-0.239,9.803-0.108,19.618,0.463,29.408
	c1.119,19.167,4.617,38.55,12.677,56.083c0.75,1.631,2.34,2.647,4.136,2.565c-1.375,8.483,2.731,17.201,4.931,25.235
	c0.398,1.452,2.339,2.347,3.735,2.084c7.095-1.336,14.202-1.594,21.285-1.161c-1.595,2.984-2.16,7.373-2.401,9.479
	c-0.892,7.786,0.301,15.872,1.359,23.583c1.185,8.636,2.837,17.166,4.659,25.688c1.222,5.717,2.502,11.427,3.531,17.183
	c-4.81-5.972-11.786-9.969-19.6-6.192c-6.28,3.036-14.961,9.586-12.392,17.659c1.918,6.028,10.697,8.508,15.996,9.84
	c5.219,1.312,11.297,2.567,16.85,2.427c1.799,0.915,3.844,0.024,5.445-1.55c1.322-1.002,2.341-2.423,2.662-3.994
	c2.071-1.411,3.728-3.932,3.744-5.924c0.008-1.004-0.272-2.014-0.534-2.983c-0.085-0.317-0.217-0.578-0.37-0.809
	c-0.217-1.309-0.568-2.949-0.614-3.116c-0.644-2.373-1.052-4.831-1.611-7.227c-1.272-5.465-2.63-10.906-4.059-16.332
	c-2.23-8.474-4.313-16.953-6.117-25.527c-1.496-7.109-2.673-14.325-2.865-21.599c-0.087-3.301,0.084-6.533,1.035-9.709
	c0.034-0.113,0.092-0.29,0.158-0.5c6.821,0.708,13.61,1.984,20.336,3.497c3.965,0.892,9.135-3.476,8.659-7.599
	c-0.026-0.222-0.053-0.443-0.079-0.665c1.995,0.583,3.917,1.553,5.698,2.529c5.389,2.954,10.928,5.61,17.019,6.703
	c5.616,1.007,11.283,0.15,16.912,0.573c2.232,0.167,4.457,0.373,6.682,0.577c-5.345,12.681-1.536,28.501,1.991,41.104
	c2.87,10.253,6.809,20.116,10.786,29.968c-6.162-5.557-15.51-6.603-21.428,0.455c-4.233,5.048-5.31,11.509,0.46,15.697
	c5.342,3.877,13.602,3.805,19.871,4.068c4.942,0.207,9.872-0.011,14.808-0.101c0.789,0.194,1.689,0.182,2.918-0.035
	c5.21-0.919,9.994-10.321,2.197-10.254c-0.854,0.007-1.708,0.023-2.562,0.041c-0.046-0.301-0.12-0.603-0.239-0.902
	c-5.467-13.769-11.746-27.208-16.645-41.202c-2.568-7.336-4.513-14.824-5.745-22.498c-0.849-5.287-0.832-10.571-0.959-15.874
	c1.872,0.146,3.746,0.273,5.627,0.343c11.116,0.411,20.703-3.49,21.31-15.74c0.231-4.66-0.991-9.73-2.792-13.997
	c-2.149-5.09-5.48-7.838-11.09-6.618c-2.846,0.619-7.443,6.162-4.256,8.874c1.992,1.695,3.833,4.938,4.816,8.209
	c0.641,2.134,0.854,4.366,0.933,6.583c0.01,0.296,0.009,0.54,0,0.776c-3.522,0.685-7.792,0.034-11.067-0.217
	c-4.941-0.377-9.865-1.064-14.825-1.136c-5.665-0.082-10.91,0.321-16.435-1.26c-5.642-1.615-10.467-5.357-15.975-7.348
	c-4.799-1.734-9.033-2.101-13.757,0.042c-2.721,1.234-4.405,3.486-5.35,6.092c-13.117-2.184-27.176-3.182-39.969-0.127
	c-3.502-5.458-4.682-11.645-6.467-17.74c5.265-0.388,10.597-0.415,15.826-0.622c11.666-0.461,23.337-0.793,35.006-1.141
	c10.359-0.308,20.719-0.589,31.074-1.021c3.177-0.132,6.841,0.11,9.924-0.779c0.614-0.177,1.233-0.361,1.821-0.617
	c1.075-0.355,2.038-0.909,2.887-1.66c-0.021,0.011-0.039,0.021-0.059,0.031c0.924-0.771,1.653-1.663,2.264-2.804
	c1.33-2.481,0.426-5.852-2.569-6.407c-0.512-0.095-1.017-0.108-1.511-0.066c-1.302-0.146-2.547-0.067-3.849,0.017
	c-3.329,0.215-6.665,0.338-9.998,0.467c-10.2,0.395-20.404,0.678-30.607,0.988c-10.914,0.332-21.829,0.663-32.739,1.101
	c-5.84,0.234-11.805,0.314-17.644,0.994c-7.621-16.203-11.47-33.49-13.383-51.297c-0.972-9.05-1.368-18.149-1.741-27.24
	c-0.355-8.652,0.745-18.609-1.862-26.939c-0.776-2.481-4.065-0.019-4.456,1.436c-1.096,4.087-1.53,8.444-1.704,12.847
	c-0.415,0.145-0.822,0.308-1.214,0.512c-1.979,0.864-4.49,3.697-4.59,5.99c-0.849,1.075-1.744,2.125-2.679,3.122
	c-2.752,2.933-5.761,5.62-8.876,8.158c-3.103,2.529-9.733,8.083-14.729,8.02c0.159-15.093,5.194-29.689,11.507-43.266
	c0.75-1.613,1.537-3.209,2.336-4.8c16.23,4.469,33.294,6.476,48.655,7.172c45.663,2.072,95.364-4.565,129.052-38.502
	c10.392-10.469,18.167-22.769,23.184-36.476c10.213,7.169,26.822,4.242,37.68,0.346c16.968-6.088,30.231-23.027,25.724-41.63
	c-3.677-15.173-16.674-25.745-31.137-30.34c-10.073-3.201-22.854-2.718-28.657,5.528c-2.006-4.53-4.669-8.836-7.244-12.93
	c-4.371-6.951-9.581-13.417-15.331-19.27c-5.448-5.544-11.494-9.817-18.64-12.873c-7.983-3.413-16.716-5.347-24.044-10.156
	c-0.689-0.452-1.421-0.728-2.173-0.862c0.55-0.726,0.693-1.704-0.113-2.318c-10.182-7.771-23.749-9.553-36.271-10.136
	c-5.497-0.256-10.992-0.163-16.472,0.178c0.176-0.377,0.227-0.776,0.075-1.132c-1.059-2.477-1.562-5.062-2.699-7.523
	c-1.209-2.615-2.99-5.102-4.585-7.494c-3.602-5.401-7.649-10.484-12.177-15.135c-5.801-5.959-14.194-13.091-22.802-14.1
	c-6.238-0.73-10.264,4.308-10,9.661c-7.285-5.049-15.522-7.997-25.162-7.923c-7.631,0.058-17.367,3.563-18.001,12.382
	c-0.553,7.694,6.122,14.076,11.76,18.226c0.258,0.19,0.528,0.381,0.803,0.571c-2.163,0.789-4.208,1.916-6.05,3.389
	c-5.115,4.092-5.899,11.583-2.048,16.688c3.714,4.923,11.382,6.134,17.066,6.481c2.332,0.143,4.871,0.153,7.37-0.147
	c-9.259,3.267-18.274,7.117-26.816,11.655c-21.935,11.653-39.699,29.354-50.276,51.917c-2.372,5.058-4.278,10.326-5.756,15.711
	c-1.891-3.872-4.777-6.792-9.475-7.854c-6.729-1.52-14.405-0.026-20.699,2.465c-13.512,5.348-20.154,19.947-22.113,33.558
	c-0.923,6.409-0.705,13.22,1.83,19.252C30.315,220.512,36.118,224.267,41.551,226.577z M196.22,512.711
	c-3.881-1.777-4.123-2.922-1.05-5.617c8.52-7.471,14.692,0.774,21.875,5.351c0.034,0.021,0.071,0.034,0.106,0.051
	c0.107,1.081,0.196,2.165,0.236,3.254c0.019,0.497,0.04,1.02,0.079,1.548C210.494,516.656,202.802,515.724,196.22,512.711z
	 M294.848,514.653c-2.618-0.374-7.825-0.993-8.708-3.472c-1.266-3.559,12.029-2.706,13.911-2.175
	c0.856,0.241,2.049-0.56,2.498-1.489c1.054,2.612,2.101,5.227,3.13,7.847C302.067,515.337,298.458,515.169,294.848,514.653z
	 M374.002,147.485c10.476,4.854,18.73,12.356,21.953,23.689c3.549,12.482-4.1,22.799-15.546,26.893
	c-9.293,3.324-23.85,5.842-30.561-3.331c-0.318-0.435-0.689-0.766-1.095-1.015c3.421-14.301,4.995-29.738,1.722-43.873
	c-0.065-0.28-0.14-0.557-0.212-0.835C355.975,141.068,365.878,143.721,374.002,147.485z M170.81,81.492
	c-7.494-2.343-15.785,0.427-23.404-2.456c-3.495-1.323-7.169-4.724-5.598-8.854c1.176-3.09,5.658-4.363,9.509-4.867
	c6.16,2.732,13.457,3.998,18.531,0.086c1.375-1.06,2.145-3.612,0.361-4.666c-2.091-1.235-5.321-0.944-7.706-1.391
	c-3.32-0.623-6.427-1.881-9.398-3.457c-5.068-2.687-10.353-7.03-12.602-12.447c-2.66-6.409,7.476-6.377,11.396-6.39
	c8.487-0.027,18.673,3.721,26.438,8.562c3.166,4.797,8.086,9.33,13.182,10.765c2.012,0.567,5.191-2.299,4.123-4.394
	c-2.194-4.305-6.192-6.777-9.455-10.333c-1.599-1.743-3.452-3.936-3.639-6.386c-0.043-0.559,7.963,2.779,8.71,3.213
	c6.585,3.832,12.133,9.38,17.022,15.149c2.805,3.309,5.319,6.861,7.745,10.453c2.512,3.72,5.473,6.856,8.159,10.339
	c-6.654,0.547-13.281,1.46-19.858,2.614c-11.563,2.028-23.255,4.75-34.683,8.303c0.465-0.304,0.918-0.627,1.345-0.99
	C171.948,83.532,172.219,81.932,170.81,81.492z M93.037,158.963c7.466-23.713,25.706-41.143,46.835-53.095
	c19.811-11.206,42.179-17.9,64.489-21.954c12.343-2.243,24.899-3.396,37.445-3.037c11.939,0.341,23.39,3.142,34.891,6.037
	c-5.743,2.21-10.513,10.535-4.598,14.417c10.148,6.661,22.857,7.995,32.967,14.782c9.118,6.122,16.359,16.199,22.24,25.284
	c6.207,9.59,9.057,19.142,8.95,30.536c-0.112,11.947-2.44,24.788-6.435,36.056c-7.869,22.197-25.537,38.363-46.228,48.66
	c-19.94,9.924-42.191,12.285-64.151,12.993c-22.649,0.73-45.579-1.162-67.501-7.076c-0.247-0.066-0.491-0.142-0.737-0.209
	c0.531-0.903,1.054-1.811,1.592-2.708c2.172-3.626,4.488-7.169,6.709-10.766c1.039-1.683,2.351-3.439,3.359-5.284
	c0.297-0.016,0.61-0.083,0.921-0.235c3.617-1.764,6.663-3.587,10.787-4.038c2.495-0.273,5.733,0.764,6.515,3.015
	c-0.494,0.66-0.838,1.391-1.023,2.195c-0.054,0.252-0.079,0.503-0.093,0.754c0,0.001,0,0.001,0,0.002
	c-0.062,1.135,0.239,2.257,0.513,3.354c1.163,4.658,8.96,0.373,8.877-3.546c0.152-1.202,0.09-2.19-0.284-3.468
	c-0.027-0.092-0.061-0.173-0.091-0.258c-0.229-2.187-0.617-4.217-2.384-6.109c-2.112-2.262-5.484-2.682-8.398-2.707
	c-3.582-0.03-8.408,1.367-12.052,3.815c0.246-0.963,0.453-1.903,0.292-2.889c1.896-6.823,8.103-13.427,14.167-16.008
	c1.849-0.787,3.657-4.537,0.373-4.448c-11.118,0.3-19.321,10.746-24.077,20.46c-1.577,1.871-2.344,4.281-2.522,7.122
	c-0.047,0.746,0.13,1.363,0.45,1.87c-3.51,4.031-6.412,9.143-9.008,13.096c-0.928,1.414-1.824,2.847-2.722,4.279
	c-17.462-6.002-33.461-15.761-43.67-31.652C86.339,207.822,85.963,181.428,93.037,158.963z M47.834,171.959
	c4.533-2.702,10.307-3.661,15.502-3.697c2.671-0.018,5.482,0.606,7.414,2.504c1.829,1.797,3.344,3.546,5.936,3.855
	c-2.497,12.714-2.537,25.901,0.004,38.592c-2.663,0.236-5.315,2.01-6.324,4.427c-6.37,1.806-13.821,0.532-19.854-1.34
	c-9.479-2.942-13.368-9.546-13.375-19.128C37.132,188.856,40.16,176.534,47.834,171.959z"/>
<path d="M362.876,184.796c6.15-2.008,11.808-8.712,10.941-15.477c-0.728-5.681-6.475-9.409-11.944-7.687
	c-1.054,0.332-2.767,2.2-1.586,3.308c2.062,1.933,4.415,2.957,4.462,6.113c0.015,1.023-0.419,1.682-0.775,2.183
	c-0.078,0.11-0.13,0.191-0.172,0.261c-0.083,0.038-0.195,0.099-0.352,0.195c-0.655,0.402-1.569,0.697-2.631,1.189
	C355.343,177.42,355.669,187.148,362.876,184.796z"/>
<path d="M57.129,205.846c4.287,0.447,10.938-6.139,5.724-9.406c-1.966-1.232-2.982-1.729-2.679-3.918
	c0.144-1.037,0.439-1.938,0.897-2.621c0.428-0.639,0.855-1.238,1.357-1.823c0.413-0.481,1.704-0.708,0.225-0.419
	c2.583-0.505,5.05-5.418,1.111-5.184c-2.628,0.156-4.558,0.205-6.864,1.821c-2.59,1.815-4.504,4.338-5.766,7.234
	C48.798,196.889,50.141,205.118,57.129,205.846z"/>
<path d="M187.54,162.607c14.196-3.029,7.496-27.857,1.147-35.187c-3.271-3.776-8.784,0.96-9.743,4.368
	c-1.316,4.676-2.083,10.642-1.506,16.179C177.208,156.305,179.362,164.353,187.54,162.607z"/>
<path d="M220.119,160.416c2.262,0.702,5-1.182,6.281-2.854c7.111-9.282,9.052-26.664-0.856-34.847
	c-2.506-2.07-5.792-1.485-8.146,0.66c-5.206,4.744-11.488,17.783-6.072,24.37C211.656,153.534,214.203,158.58,220.119,160.416z"/>
<path d="M191.497,211.499c-1.363,0.311-2.713,2.29-1.702,3.549c4.625,5.767,17.435,2.543,23.328,1.028
	c8.239-2.118,15.636-6.105,22.57-10.877c0.874,0.567,1.793,1.013,2.791,1.226c3.76,0.803,6.921-2.553,7.979-5.753
	c0.967-2.928-0.936-5.415-3.394-7.407c-0.005-0.004-0.011-0.009-0.016-0.013c-1.835-1.484-3.974-2.694-5.464-3.601
	c-5.484-3.295-14.038,6.585-8.021,10.587c0.089,0.059,0.177,0.125,0.265,0.187c-5.144,3.735-11.139,6.429-17.104,8.394
	c-3.786,1.248-7.649,1.843-11.598,2.26C197.907,211.419,194.655,210.778,191.497,211.499z"/>
<path d="M298.133,380.127c-0.927-0.327-1.932-0.722-2.782-1.011c-4.451-1.515-10.489,5.577-7.22,9.463
	c6.339,7.538,16.755,3.53,20.523-4.431c3.498-7.391,2.659-17.019,1.938-24.904c-0.722-7.885-1.763-15.707-2.437-23.599
	c-0.817-9.571-2.198-19.072-3.554-28.577c-1.418-9.941-2.128-20.066-3.973-29.929c-0.366-1.955-2.903-0.775-3.203,0.647
	c-3.374,15.99-1.199,33.378-0.174,49.54c0.581,9.161,0.563,18.323,1.224,27.475c0.511,7.065,1.076,14.374,0.326,21.438
	C298.661,377.55,298.424,378.844,298.133,380.127z"/>
<path d="M337.809,318.33c6.863,11.457,16.011,21.305,21.635,33.537c2.468,5.37,1.781,11.308,5.109,16.277
	c3.822,5.708,11.552,6.35,14.703-0.346c1.986-4.221-2.359-7.184-6.052-4.859c2.485-1.564,0.454-2.156-0.316-3.761
	c-0.485-1.01-0.516-2.195-0.639-3.285c-0.329-2.915-0.999-5.519-2.114-8.232c-2.687-6.54-6.738-12.571-10.78-18.333
	c-5.901-8.412-12.014-16.461-17.344-25.255c-5.086-8.392-10.224-17.166-17.145-24.207c-5.596-5.693-13.962-11.665-22.299-8.606
	c-1.955,0.717-4.623,4.825-1.181,5.51C320.207,280.513,328.943,303.529,337.809,318.33z"/>
<path d="M389.368,359.373c0.854-1.803,1.25-4.193-0.198-5.843c-1.417-1.615-3.818-1.521-5.638-0.633
	c-0.308,0.119-0.617,0.254-0.944,0.425c-0.113,0.059-0.229,0.141-0.345,0.214c-0.041-0.009-0.076-0.015-0.118-0.024
	c-0.878-0.192-2.242-0.67-2.672-1.447c-1.561-2.816-5.466-0.098-5.461,2.416c0.011,5.021,3.99,7.855,8.54,8.876
	C385.292,363.976,388.249,361.738,389.368,359.373z"/>
<path d="M465.311,534.148c12.273-3.112,16.72-16.68,7.764-25.765c-3.733-3.787-8.479-5.667-13.709-5.899
	c-0.858-0.038-1.733,0.057-2.604,0.244c-8.292-1.498-17.474,7.332-17.316,16.185C439.666,531.217,455.215,536.707,465.311,534.148z
	 M450.939,518.277c-0.173-0.205-0.326-0.402-0.472-0.597c1.903,0.054,4.087-0.774,5.414-1.875c0.105-0.087,0.448-0.41,0.817-0.762
	c0.01,0.001,0.017,0.002,0.027,0.003c2.021,0.263,4.054,1.487,5.565,2.801c1.561,1.358,2.58,2.879,3.195,4.831
	c0.017,0.054,0.842,0.113-1.215,0.491C459.336,524.073,454.112,522.032,450.939,518.277z"/>
<path d="M529.034,494.306c-2.723-0.427-5.461-0.735-8.204-1.009c-0.217-4.481-1.34-9.026-2.467-12.462
	c-4.003-12.206-16.932-19.801-28.41-23.472c-12.356-3.953-27.308-2.693-37.206,6.249c-4.241,3.832-7.181,9.338-8.022,14.984
	c-0.44,2.95-0.551,6.576,0.293,9.766c-3.898,1.135-7.671,2.594-11.163,4.474c-8.005,4.309-12.743,15.836-1.511,19.568
	c2.354,0.782,5.656-2.628,4.634-4.938c-0.707-1.599-1.706-3.046-2.322-4.689c-0.102-0.271-0.103-0.462-0.093-0.568
	c1.696-1.456,5.341-2.52,7.923-3.214c3.829-1.029,7.791-1.565,11.724-2.009c1.802-0.203,3.61-0.341,5.42-0.446
	c0.852-0.049,1.704-0.075,2.557-0.093c0.194-0.004,1.425,0.021,1.507,0.007c13.845,0.8,27.21,6.128,40.888,8.393
	c-0.004,0.158-0.011,0.317-0.002,0.474c0.016,0.309,0.053,0.598,0.106,0.869c-2.096,0.713-4.06,1.721-5.728,3.033
	c-3.012,2.37-4.013,8.151-1.031,10.091c0.085,1.58,0.373,3.178,0.808,4.764c2.667,9.717,14.389,14.353,23.14,9.747
	c8.339-4.388,8.782-14.829,4.085-21.907c-1.442-2.173-3.365-3.799-5.557-4.929c3.493,0.561,6.905,1.442,9.208,2.32
	c4.521,1.725,12.432-2.439,11.291-8.118C539.786,495.643,533.805,495.054,529.034,494.306z M463.401,485.12
	c-3.088,0.262-6.244,0.644-9.393,1.187c0.749-5.327,0.905-10.6,4.775-15.244c5.055-6.067,16.439-4.329,22.971-2.74
	c9.206,2.239,18.55,8.174,23.128,16.643c1.132,2.095,1.744,4.417,2.168,6.752C492.577,489.26,478.057,483.877,463.401,485.12z
	 M510.428,520.629c-0.566-0.694-1.024-1.478-1.379-2.31c0.356,0.05,0.711,0.11,1.064,0.178c0.097,0.019,0.808,0.258,1.011,0.313
	c0.364,0.165,0.719,0.348,1.069,0.539c0.216,0.118,1.507,1.111,1.14,0.772c1.715,1.489,1.927,1.968,2.527,3.664
	C513.632,523.409,511.95,522.497,510.428,520.629z"/>
<path d="M405.713,429.052c6.026,8.841,13.1,17.112,22.373,22.647c3.016,1.801,6.338,2.999,9.644,4.138
	c1.939,0.668,4.122,2.675,6.875,1.557c2.741-1.113,5.079-4.005,3.305-6.892c-0.438-0.713-1.366-0.931-2.167-1.046
	c-1.811-0.475-3.748-0.466-5.604-1.02c-3.085-0.919-5.914-2.098-8.743-3.653c-8.958-4.923-15.531-13.434-21.365-21.597
	c-5.66-7.919-10.785-16.353-15.663-24.77c-4.678-8.073-8.157-16.768-12.762-24.833c-0.531-0.93-1.743-0.019-1.779,0.787
	c-0.456,10.02,5.306,19.994,9.976,28.491C394.707,411.784,399.978,420.638,405.713,429.052z"/>
</svg>
