<?xml version="1.0" encoding="UTF-8" standalone="no"?><!DOCTYPE svg PUBLIC "-//W3C//DTD SVG 1.1//EN" "http://www.w3.org/Graphics/SVG/1.1/DTD/svg11.dtd"><svg width="100%" height="100%" viewBox="0 0 145 557" version="1.1" xmlns="http://www.w3.org/2000/svg" xmlns:xlink="http://www.w3.org/1999/xlink" xml:space="preserve" style="fill-rule:evenodd;clip-rule:evenodd;stroke-linejoin:round;stroke-miterlimit:1.41421;"><g id="leg"><path d="M117.923,190.209c0.279,8.629 3.252,17.053 5.839,25.208c2.678,8.44 5.432,16.835 7.402,25.478c4.61,20.219 2.575,41.392 -1.208,61.547c-3.788,20.175 -9.417,39.956 -12.709,60.232c-3.278,20.198 -3.279,40.842 -3.428,61.25c2.813,-1.244 5.627,-2.489 8.441,-3.733c-0.912,-1.947 -1.779,-3.664 -3.158,-5.326c-2.082,-2.511 -6.252,0.962 -6.084,3.495c0.15,2.283 0.336,4.331 1,6.528c1.476,4.882 8.467,-0.248 8.441,-3.733c-0.15,-20.971 -0.03,-41.944 3.399,-62.687c3.345,-20.226 8.942,-40.001 12.471,-60.194c3.343,-19.137 4.616,-39.002 0.432,-58.113c-1.896,-8.658 -4.783,-17 -8.135,-25.196c-3.485,-8.523 -6.417,-17.479 -10.515,-25.724c-0.572,-1.155 -2.219,-0.022 -2.188,0.968Z" style="fill:#010101;fill-rule:nonzero;"/><path d="M54.709,182.312c-2.284,10.344 -4.734,20.408 -7.65,30.595c-2.91,10.162 -5.434,20.195 -6.72,30.702c-2.689,21.975 -1.848,44.12 1.682,65.944c3.451,21.342 9.332,42.399 16.207,62.873c3.379,10.063 6.889,20.075 9.777,30.295c2.849,10.078 5.697,21.319 5.029,31.887c-0.349,5.516 8.505,1.673 8.789,-2.817c0.239,-3.792 -2.68,-6.659 -5.628,-8.463c-2.111,-1.292 -5.335,1.437 -5.096,3.664c0.262,2.449 2.021,5.292 1.935,7.616c-0.207,5.557 8.621,1.701 8.789,-2.817c0.353,-9.509 -2.022,-19.438 -4.339,-28.593c-2.603,-10.286 -6.162,-20.315 -9.594,-30.344c-7.175,-20.97 -13.443,-42.35 -17.294,-64.2c-3.817,-21.657 -4.691,-43.804 -2.421,-65.68c1.086,-10.46 3.327,-20.485 5.998,-30.644c2.563,-9.748 5.325,-20.634 4.21,-30.761c-0.254,-2.319 -3.333,-0.799 -3.674,0.743Z" style="fill:#010101;fill-rule:nonzero;"/><path d="M13.895,13.931c0.138,3.468 -0.5,7.335 -0.658,10.825c-0.157,3.484 0.269,7.08 0.468,10.559c0.437,7.646 1.113,15.277 1.838,22.9c1.431,15.033 3.558,29.961 6.682,44.74c3.084,14.588 7.101,28.909 12.335,42.877c5.015,13.382 12.068,25.75 16.811,39.194c2.547,-1.819 5.096,-3.638 7.644,-5.457c-1.062,-1.743 -2.347,-1.629 -4.216,-1.815c-1.92,-0.192 -4.603,1.546 -4.285,3.76c0.094,0.652 0.634,2.406 0.66,2.562c0.921,5.457 9.391,1.623 8.532,-2.735c-1.107,-5.607 -4.377,-10.872 -7.001,-15.911c-3.481,-6.683 -6.703,-13.428 -9.579,-20.396c-5.666,-13.727 -9.917,-28.014 -13.407,-42.434c-3.547,-14.651 -5.991,-29.584 -8.145,-44.496c-1.086,-7.522 -1.893,-15.079 -2.781,-22.627c-0.405,-3.445 -0.787,-6.894 -1.199,-10.339c-0.467,-3.902 -2.009,-7.762 -2.402,-11.622c-0.088,-0.844 -1.324,-0.246 -1.297,0.415Z" style="fill:#010101;fill-rule:nonzero;"/><path d="M38.737,520.508c-5.703,4.604 -11.271,9.635 -18.577,11.599c-1.66,0.446 -3.439,2.175 -3.69,3.923c-1.833,12.762 9.823,19.768 20.979,20.055c11.603,0.299 24.305,-6.754 28.553,-17.813c-1.639,1.182 -3.278,2.363 -4.917,3.545c14.096,-0.051 25.534,-2.785 35.642,-13.084c5.821,-5.932 10.733,-12.59 16.894,-18.215c6.863,-6.267 14.841,-10.697 23.751,-13.295c-0.526,-2.539 -1.054,-5.079 -1.58,-7.619c-2.59,1.565 -5.229,3.005 -7.727,4.723c-2.034,1.4 -3.45,5.431 0.305,5.418c3.816,-0.013 6.901,-1.066 10.142,-3.025c3.799,-2.296 4.222,-9.311 -1.58,-7.619c-16.081,4.688 -28.472,14.915 -39.285,27.375c-4.57,5.264 -8.852,10.745 -15.166,13.996c-5.799,2.985 -13.236,2.735 -19.558,2.764c-1.936,0.009 -4.247,1.762 -4.917,3.545c-2.902,7.712 -11.015,10.818 -18.764,10.938c-3.698,0.058 -7.251,-1.168 -10.259,-3.258c-3.705,-2.574 -4.002,-6.912 -4.844,-10.9c-0.858,1.771 -1.717,3.545 -2.575,5.316c6.967,-3.671 17.461,-8.971 18.937,-17.738c0.197,-1.169 -1.091,-1.175 -1.764,-0.631Z" style="fill:#010101;fill-rule:nonzero;"/><path d="M75.497,426.485c-1.195,4.229 -1.225,8.463 -3.029,12.565c-1.631,3.71 -4.327,6.886 -7.304,9.583c-6.575,5.955 -14.822,9.884 -22.72,13.751c-12.1,5.925 -35.192,15.022 -35.433,31.489c-0.07,4.847 7.056,2.275 8.133,-0.658c2.559,-6.973 6.355,-10.8 12.721,-14.732c7.992,-4.937 16.665,-8.727 24.872,-13.285c7.933,-4.406 15.808,-9.643 21.276,-17.017c4.155,-5.604 7.849,-16.165 3.33,-22.523c-0.56,-0.787 -1.683,0.245 -1.846,0.827Z" style="fill:#010101;fill-rule:nonzero;"/><path d="M34.359,505.501c-10.36,4.888 -25.413,10.95 -24.891,24.801c0.21,5.589 8.891,1.733 8.721,-2.795c-0.344,-9.124 12.373,-14.28 17.187,-20.848c0.626,-0.854 -0.129,-1.576 -1.017,-1.158Z" style="fill:#010101;fill-rule:nonzero;"/><path d="M25.895,494.93c-2.43,0.043 -5.007,2.164 -6.948,3.442c-3.009,1.982 -5.986,3.979 -8.833,6.193c-3.412,2.655 -11.132,11.297 -4.575,13.831c3.138,1.214 7.175,-1.996 6.157,-5.402c0.838,2.806 0.19,-0.908 0.094,-0.243c-0.058,0.402 0.326,-0.349 0.785,-0.906c1.614,-1.962 3.795,-3.635 5.72,-5.288c2.456,-2.109 9.518,-6.824 8.741,-10.707c-0.127,-0.627 -0.49,-0.932 -1.141,-0.92Z" style="fill:#010101;fill-rule:nonzero;"/><path d="M21.754,490.335c-8.022,-1.64 -16.886,2.726 -20.641,9.902c-2.895,5.533 6.107,6.393 7.841,1.463c1.755,-4.992 8.234,-6.632 12.583,-8.704c0.956,-0.455 1.676,-2.362 0.217,-2.661Z" style="fill:#010101;fill-rule:nonzero;"/><path d="M140.28,0.579c-4.179,23.053 -5.069,46.75 -7.81,70.068c-2.839,24.158 -6.533,48.209 -10.278,72.24c-1.549,9.934 -3.063,19.849 -4.339,29.82c-1.218,9.518 -2.712,19.808 -7.939,28.063c-3.455,5.457 -9.504,8.049 -15.317,10.414c-2.813,1.144 -5.69,2.129 -8.589,3.03c-1.182,0.366 -2.374,0.695 -3.572,1.001c-2.079,0.528 -0.582,-0.232 0.612,1.035c-2.674,-2.837 -8.527,2.336 -5.873,5.153c2.549,2.706 10.112,-0.955 12.772,-1.86c7.044,-2.396 14.007,-5.426 20.013,-9.863c6.501,-4.804 9.662,-13.607 11.736,-21.071c2.832,-10.19 3.323,-20.927 4.934,-31.342c4.093,-26.461 8.188,-52.921 11.417,-79.504c1.57,-12.917 2.877,-25.854 3.792,-38.834c0.44,-6.241 0.772,-12.505 0.939,-18.759c0.184,-6.881 -0.439,-13.059 -1.5,-19.793c-0.095,-0.609 -0.918,-0.242 -0.998,0.202Z" style="fill:#010101;fill-rule:nonzero;"/><path d="M116.169,414.721c-3.857,5.102 -1.618,12.63 0.13,18.128c2.491,7.83 6.05,15.289 9.479,22.737c3.214,6.98 6.447,14.016 8.488,21.445c0.768,2.792 1.115,5.66 1.021,8.554c-0.082,2.523 -2.129,5.138 -0.135,7.41c0.794,0.905 2.013,0.884 3.077,0.604c6.23,-1.644 6.352,-10.337 5.727,-15.429c-0.917,-7.475 -4.091,-14.632 -7.133,-21.44c-3.549,-7.943 -7.478,-15.717 -10.805,-23.759c-1.53,-3.7 -2.78,-7.506 -3.962,-11.328c-0.817,-2.649 -1.514,-5.896 -3.883,-7.588c-0.634,-0.454 -1.623,0.163 -2.004,0.666Z" style="fill:#010101;fill-rule:nonzero;"/></g></svg>