<?xml version="1.0" encoding="utf-8"?>
<!-- Generator: Adobe Illustrator 17.0.0, SVG Export Plug-In . SVG Version: 6.00 Build 0)  -->
<!DOCTYPE svg PUBLIC "-//W3C//DTD SVG 1.0//EN" "http://www.w3.org/TR/2001/REC-SVG-20010904/DTD/svg10.dtd">
<svg version="1.0" id="Layer_1" xmlns="http://www.w3.org/2000/svg" xmlns:xlink="http://www.w3.org/1999/xlink" x="0px" y="0px"
	 width="566.93px" height="566.93px" viewBox="0 0 566.93 566.93" enable-background="new 0 0 566.93 566.93" xml:space="preserve">
<path d="M257.778,266.514c6.118-9.136,6.408-20.674-3.598-26.986c-10.147-6.401-24.888-4.101-35.561-0.508
	c-1.852,0.624-3.742,1.406-5.578,2.336c0.288-7.478-10.786-10.035-16.658-10.517c-8.429-0.692-17.519,1.153-24.704,5.71
	c-7.834,4.969-14.311,13.271-16.517,22.34c-1.058,4.353,0.05,8.49,3.242,11.584c0.865,0.838,1.981,1.863,3.217,2.811
	c-7.425,4.169-14.998,11.931-15.042,20.509c-0.09,17.537,26.681,20.231,39.41,20.328c16.191,0.123,39.076-3.819,47.67-19.432
	c2.195-3.988,2.979-8.435,2.286-12.652C244.706,280.229,253.475,272.94,257.778,266.514z M167.306,256.789
	c0.927-4.948,5.271-9.835,9.439-12.423c4.778-2.967,10.841-3.865,16.359-3.942c3.032-0.042,6.164,0.611,8.922,1.848
	c1.871,0.839,3.497,1.993,5.377,2.615c-5.24,4.063-8.846,9.665-7.661,16.623c-8.252-0.67-16.687,0.014-24.313,2.991
	C172.501,261.809,166.319,262.056,167.306,256.789z M223.374,291.822c-1.506,5.829-12.139,8.213-16.902,9.436
	c-14.486,3.717-32.462,3.94-45.819-3.445c-8.961-4.955-3.65-13.645,3.139-18.036c6.063-3.921,13.75-5.288,21.289-5.894
	c10.309,0.909,20.822,1.315,30.229,5.542C220.511,281.764,224.96,285.68,223.374,291.822z M248.559,262.535
	c-4.257,6.356-10.859,7.813-17.625,9.692c-5.459-5.586-14.193-7.881-21.544-9.354c-1.604-0.321-3.233-0.598-4.876-0.832
	c0.124-0.27,0.2-0.536,0.205-0.785c0.151-8.872,9.084-12.433,16.478-14.334c7.994-2.056,17.411-2.304,24.749,1.881
	C251.225,251.817,251.734,257.795,248.559,262.535z"/>
<path d="M335.373,286.631c-4.32-0.877-8.659-1.314-13.063-1.403c-2.609-0.053-4.76,0.279-6.939,0.898
	c-5.725,0.416-11.32,1.938-16.743,4.986c-9.381,5.272-17.451,15.846-14.295,26.948c2.9,10.198,15.627,15.68,24.884,17.916
	c8.335,2.013,18.11,0.787,26.345-0.997c9.307-2.016,17.908-7.051,22.912-15.288c4.386-7.22,4.627-16.188-1.112-22.672
	C352.009,290.972,343.006,288.182,335.373,286.631z M339.389,323.127c-12.906,5.018-30.522,4.98-41.497-4.316
	c-8.077-6.842-4.435-15.373,3.453-20.593c2.057-1.362,4.346-2.376,6.758-3.117c0.163,0.121,0.333,0.239,0.537,0.345
	c1.853,0.962,3.172,2.177,5.527,2.586c2.812,0.488,5.621,0.998,8.449,1.387c5.914,0.814,12.006,2.013,17.471,4.471
	c4.01,1.804,7.92,4.638,8.286,9.348C348.79,318.599,343.686,321.457,339.389,323.127z"/>
<path d="M149.154,334.063c-9.47-3.741-19.787-5.004-29.892-5.416c-8.382-0.341-18.854-0.609-26.007,4.497
	c-1.191,0.851-2.809,2.906-3.71,5.015c-0.65,0.29-1.296,0.598-1.936,0.932c-7.369,3.834-14.78,12.874-13.807,21.657
	c1.677,15.135,26.279,17.692,37.759,18.735c15.003,1.362,33.772,0.737,46.311-8.574c6.798-5.048,10.874-14.133,8.076-22.445
	C163.502,341.198,155.849,336.708,149.154,334.063z M139.91,368.198c-14.189,3.652-30.604,2.254-44.538-1.843
	c-5.259-1.547-14.054-5.093-12.75-11.968c0.945-4.98,4.251-8.268,8.474-10.464c0.367,0.11,0.781,0.19,1.257,0.231
	c7.132,0.605,14.384-0.533,21.552-0.496c8.702,0.044,17.573,1.286,25.873,3.923c5.313,1.688,12.306,4.986,13.316,10.813
	C154.177,364.641,145.157,366.848,139.91,368.198z"/>
<path d="M511.134,307.629c2.859-4.527,4.62-9.704,4.78-15.286c0.281-9.801-5.396-18.618-13.526-24.709
	c6.264-9.906,2.594-20.159-5.813-27.702c-8.032-7.206-17.716-11.182-27.418-7.164c-0.538-1.763-1.217-3.504-2.127-5.226
	c-5.541-10.481-16.351-22.721-27.491-20.763c-1.283-6.564-3.322-12.791-8.196-17.898c-6.463-6.774-15.496-8.218-24.426-7.556
	c-1.074,0.079-2.45,2.269-0.847,2.476c13.634,1.764,25.456,18.689,22.007,32.099c-1.556,6.051,6.44,6.87,9.687,3.452
	c0.4-0.461,0.838-0.884,1.314-1.268c-0.142,0.125-0.321,0.475-0.543,0.496c0.893-0.085,2.289,0.824,3.153,1.323
	c3.067,1.771,5.454,4.766,7.601,7.512c4.079,5.217,7.008,10.997,7.323,16.588c0.198,3.52,0.214,7.045,0.016,10.565
	c-0.081,1.447-0.343,2.891-0.608,4.313c-0.113,0.606-0.465,1.68-0.678,2.383c-1.039,0.347-2.042,0.9-2.94,1.624
	c-0.989-0.815-2.017-1.58-3.069-2.276c-7.408-4.906-18.033-9.172-26.445-4.605c-0.165,0.09-0.328,0.195-0.489,0.306
	c-15.735,0.171-31.832,5.781-40.25,18.866c-5.951,9.251-2.722,18.563,6.391,24.015c4.032,2.412,8.892,3.866,13.813,4.792
	c-10.042,6.833-11.017,23.801-1.552,32.489c10.981,10.08,28.463,10.696,42.031,6.704c9.276-2.729,20.064-8.785,25.281-17.522
	c3.365,0.97,7.453,0.854,10.208,0.671c6.448-0.429,12.726-2.578,18.403-5.581c2.459-1.301,4.772-2.862,6.896-4.628
	c6.805,1.235,13.798,1.627,20.244,4.559c7.841,3.566,13.811,10.497,14.66,19.229c0.698,7.166-4.665,12.85-10.862,15.523
	c-3.416,1.473-6.979,2.258-10.669,2.568c-0.482,0.041-0.958,0.056-1.431,0.059c-7.876-8.914-25.005-12.473-34.712-9.869
	c-1.119,0.3-2.144,0.789-3.161,1.322c-10.726,2.069-21.542,7.45-28.896,14.263c-2.11,1.955-3.999,4.385-5.234,7.037
	c-16.916-9.896-41.75-5.735-53.993,9.182c-1.754,2.137,0.919,3.595,2.727,2.162c11.378-9.017,32.395-8.378,44.438-1.142
	c4.413,2.652,7.943,7.25,7.895,12.54c-0.011,1.289-0.47,1.219-1.565,1.82c-2.982,1.636-6.844,1.576-10.039,3.007
	c-2.24,1.003-3.84,3.14-4.374,5.352c-0.09,0.034-0.183,0.069-0.302,0.115c-1.169,0.45-2.449,0.79-3.677,1.034
	c-3.522,0.7-7.168,0.767-10.725,0.361c-4.152-0.475-12.115-2.258-14.373-6.765c0.052-1.635-0.134-3.301-0.601-4.981
	c-1.99-7.162-10.172-11.663-16.561-14.091c-8.206-3.12-18.409-5.852-26.544-1.349c-0.514,0.284-1.002,0.659-1.447,1.087
	c-13.801,0.497-28.105,6.896-33.411,19.177c-4.014,9.291,1.427,18.352,9.187,23.392c8.318,5.401,20.093,6.136,29.666,5.556
	c10.56-0.641,20.865-4.177,29.177-10.753c3.044-2.408,5.819-5.427,7.759-8.819c0.04,0.056,0.075,0.112,0.117,0.167
	c2.751,3.673,7.289,5.5,11.486,6.885c3.048,1.005,6.592,1.602,10.205,1.676c-1.161,1.689-2.11,3.56-2.757,5.658
	c-2.989,9.688,7.469,16.575,15.068,19.389c8.955,3.315,18.643,4.609,28.149,4.803c16.838,0.343,42.113-6.955,41.619-28.073
	c-0.387-16.551-25.801-19.954-37.921-20.501c-2.669-0.12-5.128,0.063-7.551,0.647c0.327-0.621,0.611-1.245,0.834-1.867
	c0.385-1.073,0.659-2.134,0.834-3.18c3.01,1.213,6.125,2.085,9.009,2.678c19.097,3.923,49.525-1.355,53.599-24.59
	c0.04-0.227,0.053-0.446,0.083-0.67c3.981-1.076,7.815-2.639,11.475-4.585c9.908-5.271,18.479-14.865,19.081-26.482
	C551.134,320.205,529.541,304.605,511.134,307.629z M486.587,245.891c2.719,2.875,4.846,6.26,6.238,9.958
	c0.565,1.5,0.744,2.957,0.743,4.552c0,0.116-0.078,0.39-0.14,0.594c-0.066,0.044-0.129,0.085-0.211,0.146
	c-0.322,0.242-0.632,0.527-0.924,0.844c-7.332-2.917-15.335-3.808-22.402-1.87c1.119-4.673,1.151-9.783,1.043-14.198
	c-0.078-3.188-0.281-6.253-0.823-9.237C476.167,237.295,483.082,242.184,486.587,245.891z M390.49,278.08
	c3.279-6.945,13.535-10.351,20.269-12.151c3.418-0.913,7.004-1.546,10.646-1.944c6,8.013,24.158,5.64,25.919,17.828
	c1.753,12.131-21.176,12.077-28.627,11.685C411.495,293.119,384.419,290.938,390.49,278.08z M443.279,331.12
	c-8.971,3.243-19.071,3.257-27.966-0.318c-4.522-1.818-8.385-4.795-10.164-9.426c-2.26-5.882,0.246-12.888,5.586-16.135
	c0.044-0.027,0.086-0.063,0.129-0.093c0.759,0.072,1.511,0.14,2.246,0.2c5.781,0.469,11.922,0.413,17.83-0.495
	c2.901,2.687,9.956,2.241,13.522,3.298c4.499,1.334,9.017,3.855,11.924,7.575C462.105,323.042,447.882,329.457,443.279,331.12z
	 M493.117,311.315c-3.725,1.851-8.03,2.447-12.132,2.58c-3.159,0.102-6.553-0.766-9.778-0.702c-0.037-0.524-0.091-1.053-0.168-1.589
	c-1.11-7.684-8.099-12.82-14.583-16.048c-0.922-0.458-1.878-0.896-2.856-1.302c2.834-2.973,5.101-6.632,6.568-11.114
	c1.128-3.446,0.988-6.691,0.016-9.669c0.11-0.049,0.219-0.1,0.322-0.15c1.883-0.933,3.509-2.57,4.893-4.173
	c7.49-1.898,14.987-0.929,22.289,2.691c8.34,4.135,15.883,12.261,17.014,21.785C505.672,301.795,499.933,307.928,493.117,311.315z
	 M365.154,415.13c-10.761,1.667-35.472,1.181-35.8-14.315c-0.163-7.711,10.157-11.364,16.044-13.015
	c2.532-0.71,5.265-1.238,8.062-1.605c0.167,0.162,0.353,0.318,0.561,0.465c4.206,2.976,10.444,2.84,15.366,3.988
	c5.042,1.176,10.719,3.143,14.606,6.689C394.117,406.572,371.278,414.181,365.154,415.13z M487.203,426.542
	c-2.483,5.744-10.611,7.297-16.108,8.101c-7.925,1.159-16.101,0.763-23.996-0.407c-7.353-1.09-16.457-2.804-21.333-8.924
	c-5.616-7.05,8.687-12.129,12.878-13.555c3.726-1.268,7.703-2.215,11.773-2.833c4.226,2.045,9.731,2.102,14.234,2.79
	c6.24,0.954,12.747,2.32,18.321,5.385C486.918,419.269,489.081,422.199,487.203,426.542z M503.644,375.993
	c-1.21,2.276-3.817,3.938-6.106,4.918c-7.583,3.247-16.462,3.739-24.566,2.833c-6.401-0.716-13.766-2.577-18.375-7.387
	c-3.106-3.242-0.925-6.377,1.829-9.067c4.492-4.387,10.19-7.281,15.885-9.775c0.458-0.201,0.931-0.403,1.404-0.605
	c0.163,0.309,0.386,0.598,0.698,0.854c4.7,3.86,10.824,4.446,16.539,5.973c1.803,0.482,3.936,1.188,5.981,2.105
	c-0.204,1.46,0.148,2.86,1.366,3.946c1.725,1.537,3.905,2.273,6.231,2.561C504.949,373.589,504.545,374.296,503.644,375.993z"/>
<path d="M79.203,408.932c4.781,4.547,11.157,7.758,16.95,10.047c17.036,6.731,43.554,9.196,55.735-7.071
	c3.283,5.597,10.058,9.429,16.308,11.666c7.613,2.725,20.772,5.746,29.507,1.94c0.083,0.438,0.18,0.879,0.307,1.326
	c2.391,8.429,12.875,13.129,20.402,15.454c8.08,2.495,17.48,1.774,25.769,0.908c5.278-0.552,10.719-1.501,15.866-3.201
	c-0.075,0.422-0.146,0.847-0.199,1.279c-2.36,19.125,20.734,22.801,34.888,23.222c16.801,0.5,41.792-5.416,40.985-26.752
	c-0.341-8.998-8.51-14.406-16.111-17.209c-7.251-2.674-16.01-4.837-24.032-4.268c-0.266-0.081-0.56-0.141-0.919-0.146
	c-4.361-0.075-8.974,0.65-13.371,2.115c0.016-1.475-0.194-2.974-0.69-4.481c-2.255-6.845-11.005-9.332-17.184-10.675
	c-7.53-1.637-15.534-2.06-23.252-1.531c-9.619-1.534-19.234-0.304-28.633,3.917c-3.467,1.557-6.868,3.829-9.462,6.653
	c-0.668-0.256-1.438-0.415-2.335-0.427c-3.88-0.052-6.471,1.825-10.21,2.096c-4.547,0.329-9.127-0.211-13.599-1.011
	c-5.952-1.064-16.024-3.877-19.073-10.144c-0.052-0.825-0.29-1.637-0.771-2.404c-0.034-0.201-0.067-0.402-0.087-0.608
	c-0.178-1.796-1.432-2.084-2.717-1.641c-3.444-1.159-7.941,1.322-9.912,4.039c0.25-0.202,0.5-0.403,0.75-0.605
	c-2.122,2.004-3.982,5.29-3.632,7.884c-0.161,0.162-0.296,0.297-0.355,0.347c-0.708,0.594,0.119-0.01-1.267,0.811
	c-2.62,1.551-6.159,2.422-9.718,2.847c-8.938,1.065-18.131-0.458-26.668-3.109c-7.366-2.288-15.139-5.872-20.016-12.063
	c-4.812-6.108-1.183-11.447,2.581-16.871c1.464-2.109-0.094-4.343-2.36-3.419c-0.594-1.726-2.279-2.886-4.396-2.686
	c-3.431,0.324-6.072,2.74-9.384,3.567c-3.891,0.972-8.367,0.437-12.27-0.123c-7.964-1.143-16.905-4.008-22.957-9.528
	c-6.567-5.991-2.931-13.355,2.895-18.074c3.179-2.575,7.093-4.428,10.877-5.917c3.798-1.494,8.276-1.854,11.793-3.933
	c0.659-0.39,1.424-1.181,1.967-2.089c0.29-0.017,0.581-0.033,0.867-0.054c6.984-0.52,21.327-3.073,21.726-12.233
	c0.038-0.868-0.576-1.812-1.335-2.197c-4.104-2.082-10.905,1.714-15.118,2.446c-5.703,0.991-11.782,1.165-17.362-0.523
	c-4.71-1.425-6.15-5.48-4.533-9.872c3.101-8.424,14.048-8.333,21.431-9.539c0.435-0.071,0.886-0.257,1.322-0.512
	c16.659,0.906,33.979-7.182,38.601-24.289c1.551-5.742,0.062-10.738-3.135-14.69c3.994-0.91,7.87-2.125,11.467-3.569
	c7.887-3.165,22.211-12.479,14.424-22.375c1.966-1.015,3.423-3.967,1.323-5.26c-7.002-4.314-14.486-6.835-22.323-7.217
	c-0.473-3.574,1.712-8.649,2.91-11.496c1.837-4.367,4.87-8.343,8.267-11.604c3.37-3.234,7.36-5.403,11.869-6.557
	c4.489-1.148,9.733-0.174,14.325-0.254c0.467-0.008,0.965-0.206,1.414-0.516c3.205,1.58,6.985,2.172,10.634,2.354
	c13.711,0.685,31.797-2.123,42.729-11.118c6.278-5.165,11.301-14.233,5.202-21.373c-5.215-6.106-16.997-8.132-23.781-4.063
	c-1.956,1.173-4.565,4.668-2.392,6.87c2.864,2.9,24.042,5.82,13.844,12.381c-8.399,5.403-20.211,7.082-29.978,7.398
	c-5.892,0.191-18.63-2.425-12.177-10.626c2.621-3.332,7.086-5.397,11.005-6.679c2.184-0.714,4.423-0.972,6.711-0.983
	c2.047-0.01,4.746-0.711,6.701-0.232c1.531,0.374,3.966-2.004,2.613-3.424c-2.213-2.32-3.086-3.826-6.561-4.393
	c-3.232-0.527-6.776,0.261-9.898,1.024c-3.085,0.754-6.016,2.007-8.747,3.605c0.829-3.198,0.051-6.506,2.117-9.667
	c2.665-4.079,7.622-6.611,12.019-8.347c5.432-2.144,11.118-3.203,16.949-3.234c2.692-0.014,5.48,0.361,8.118,0.875
	c1.791,0.349,4.058,0.5,6.032,0.939c2.273,1.923,6.696,1.891,9.003-1.856c3.316-5.384,6.492-10.299,11.281-14.558
	c3.422-3.043,7.436-4.754,11.617-6.155c-0.399,1.25-0.661,2.568-0.743,3.974c-0.326,5.584,3.506,10.39,7.629,13.628
	c10.454,8.21,25.476,10.911,38.264,8.011c11.763-2.667,23.755-14.232,17.668-26.974c-2.583-5.409-7.763-8.871-13.301-10.718
	c-7.159-2.389-13.801-1.169-20.167,2.688c-3.66,2.218-6.016,9.962,0.537,9.559c6.715-0.413,14.433,0.354,18.991,5.757
	c0.89,1.055,1.15,1.444,1.688,2.869c0.268,0.708,0.099,2.075,0.25,1.667c-0.299,0.803-0.146,0.824-1.599,1.79
	c-2.218,1.474-4.783,2.203-7.328,2.889c-8.418,2.269-18.703-0.663-26.396-4.039c-3.36-1.474-7.14-3.745-9.083-6.982
	c-1.176-1.959-1.262-3.974-0.734-5.904c0.476-0.148,0.953-0.299,1.428-0.452c0.761-0.247,1.786-1.604,0.752-2.188
	c-0.278-0.157-0.559-0.286-0.839-0.423c0.377-0.64,0.798-1.259,1.243-1.851c-0.073,0.827,0.024,1.636,0.351,2.406
	c0.308,0.728,1.187,0.97,1.897,0.692c2.429-0.951,3.693-2.772,5.495-4.561c2.129-2.114,4.594-3.892,7.248-5.273
	c4.893-2.546,11.067-2.663,16.422-2.145c6.08,0.589,11.971,2.469,17.522,4.953c4.931,2.207,11.192,8.581,16.773,6.682
	c0.402-0.137,0.802-0.332,1.181-0.572c0.257,0.279,0.713,0.378,1.423,0.132c13.248-4.598,29.223-3.808,42.243,1.078
	c5.768,2.165,10.947,6.68,15.006,11.177c3.105,3.44,4.812,7.166,5.541,11.004c-3.981-0.073-7.983,0.339-11.958,1.309
	c-4.736,1.155-10.075,3.962-14.67,7.793c-1.968-2.268-5.129-3.853-7.638-4.914c-4.823-2.041-10.046-2.529-15.233-2.432
	c-12.029,0.225-23.006,6.223-30.887,15.05c-6.517,7.299-7.842,18.134-0.852,25.478c5.334,5.604,13.829,7.754,21.764,7.123
	c-11.376,2.79-23.2,8.703-25.245,20.961c-3.235,19.388,18.806,23.574,33.208,23.422c16.674-0.175,40.818-4.338,48.474-21.421
	c6.786-15.141-9.259-25.778-22.964-24.908c-8.457-1.266-17.269-0.734-25.667,0.455c-0.204,0.029-0.411,0.061-0.617,0.092
	c0.785-0.252,1.556-0.525,2.296-0.838c2.531-1.072,4.768-2.881,5.375-5.714c0.635-2.961-1.464-5.323-4.47-5.094
	c-7.488,0.572-14.643,1.492-21.365-2.605c-5.493-3.348-4.835-9.279-0.827-13.477c5.577-5.842,13.1-8.354,21.003-8.699
	c3.998-0.175,8.252,0.623,11.979,2.053c1.792,0.687,3.413,1.68,5.086,2.487c-3.783,5.305-5.742,11.461-3.991,17.612
	c2.625,9.22,15.238,11.817,23.315,12.614c11.287,1.113,23.27-0.005,34.012-3.724c6.488-2.246,14.509-6.359,16.933-13.327
	c0.304-0.873,0.537-1.754,0.694-2.637c2.457,2.225,7.216-1.872,5.07-4.512c-3.13-3.85-5.446-7.39-9.498-10.433
	c-4.431-3.328-9.525-5.859-14.665-7.875c-1.495-0.586-3.006-1.102-4.527-1.561c0.362-0.938,0.522-1.901,0.369-2.804
	c-2.469-14.593-14.805-25.653-28.023-30.934c-15.566-6.219-34.369-4.664-48.379,4.243c0.247-6.2-9.981-9.622-14.696-11.611
	c-7.04-2.971-14.629-4.865-22.282-5.065c-7.327-0.192-14.52,1.458-20.869,5.17c-2.623,1.534-7.454,5.261-9.893,9.215
	c-0.595-0.424-1.571-0.458-2.329,0.238c-1.479,1.358-2.859,2.779-4.054,4.301c-12.999-2.572-27.398,12.64-34.71,21.506
	c-0.364-0.271-0.753-0.538-1.209-0.8c-2.811-1.616-6.26-2.257-9.442-2.541c-7.219-0.643-14.658,0.499-21.471,2.913
	c-12.856,4.554-24.43,14.468-25.5,28.727c-0.103,1.366,0.947,2.878,2.116,3.481c0.187,0.096,0.373,0.192,0.56,0.288
	c0.484,0.25,0.995,0.396,1.515,0.461c-0.43,0.43-0.863,0.856-1.272,1.304c-3.374,3.691-5.347,9.091-4,13.935
	c-8.395-1.471-18.69,3.902-24.691,8.762c-0.713,0.578-1.398,1.187-2.067,1.814c-3.33-4.826-10.471-4.854-16.46-3.604
	c-9.25,1.93-17.585,9.002-23.209,16.238c-5.548,7.137-7.449,15.068-5.766,23.841c0.443,2.31,0.983,4.478,2.206,6.284
	c-4.337,4.936-6.756,12.219-2.866,18.09c0.047,0.071,0.108,0.129,0.157,0.199c-8.813,2.138-17.297,8.089-22.511,14.459
	c-3.92,4.789-6.179,11.828-3.126,17.603c1.941,3.671,5.331,6.254,9.173,8.088c-4.496,1.913-8.557,4.837-11.508,8.317
	c-5.274,6.22-7.236,16.966-0.497,22.795c1.844,1.595,3.977,2.772,6.264,3.629c-5.41,2.064-10.423,4.973-14.94,8.592
	c-8.694,6.965-13.829,18.963-7.174,29.025c1.844,2.788,4.418,5.11,7.373,7.057c-3.765,2.642-5.948,7.372-5.879,11.991
	c0.104,6.851,5.978,12.368,10.997,16.156c6.214,4.689,14.617,7.179,22.353,7.219C65.006,417.259,74.533,414.604,79.203,408.932z
	 M318.292,438.36c1.901,1.696,2.807,3.35,2.873,5.872c0.043,1.655-0.794,2.303-1.479,2.772c-5.09,3.491-12.096,4.073-18.125,4.584
	c-9.92,0.842-28.378,1.433-31.909-10.609c-0.569-1.942-0.153-3.974,0.738-5.869c0.188-0.124,0.381-0.24,0.567-0.368
	c3.215-2.196,6.216-5.248,8.15-8.753c0.879-0.533,1.796-1.001,2.73-1.435c0.226,0.544,0.614,1.058,1.208,1.51
	C293.14,433.737,308.6,429.712,318.292,438.36z M210.317,415.073c2.784-1.95,5.854-3.293,9.086-4.229
	c0.117,0.854,0.737,1.563,2.144,1.888c11.354,2.629,22.979,1.974,34.445,3.973c2.574,0.449,5.132,1.054,7.509,2.086
	c1.105,0.48,2.157,0.994,3.177,1.638c0.132,0.083,1.516,1.574,1.295,1.188c0.63,1.101,0.426,0.638,0.432,1.946
	c0,0.04-1.15,1.764-1.568,2.27c-1.889,2.288-5.522,3.383-8.208,4.291c-7.416,2.505-15.358,3.116-23.124,3.471
	c-7.574,0.347-14.648-0.605-21.337-4.449C208.627,425.96,203.586,419.788,210.317,415.073z M333.509,201.175
	c0.181,0.63,0.639,1.186,1.518,1.577c6.753,3.002,17.276,3.549,20.303,11.579c2.582,6.849-9.135,10.718-13.446,12.03
	c-7.985,2.431-16.448,3.465-24.776,3.502c-6.959,0.031-15.83-0.969-20.752-6.468c-3.611-4.034-3.063-10.308,0.795-13.811
	c4.756-4.317,12.103-5.949,18.229-7.028C321.392,201.499,327.439,201.225,333.509,201.175z M394.474,174.701L394.474,174.701
	c0.001,0.002,0.002,0.004,0.002,0.006c-0.001,0.005-0.001,0.01-0.002,0.015C394.474,174.715,394.474,174.707,394.474,174.701z
	 M394.513,174.326c-0.014,0.012-0.027,0.023-0.041,0.034C394.479,173.937,394.519,174.05,394.513,174.326z M394.48,175.002
	C394.48,175.001,394.48,175.001,394.48,175.002c0.001,0.024,0.001,0.041,0.001,0.068C394.48,175.042,394.481,175.028,394.48,175.002
	z M390.138,162.326c-0.715,1.052-0.979,2.287-0.373,3.526c1.109,2.267,1.945,4.42,3.538,6.702c0.158,0.227,0.315,0.456,0.473,0.684
	c-0.221-0.316,0.244,0.377,0.36,0.608c0.096,0.19,0.174,0.388,0.247,0.588c-0.255,0.212-0.493,0.408-0.613,0.514
	c-0.712,0.451-1.445,0.869-2.192,1.256c-0.134,0.069-0.576,0.276-0.816,0.392c-0.329,0.136-0.657,0.273-0.989,0.404
	c-1.094,0.431-2.212,0.799-3.333,1.151c-2.55,0.802-5.379,1.424-7.091,1.726c-5.546,0.98-11.211,1.351-16.838,1.175
	c-3.606-0.113-9.938-1.201-12.913-2.429c-1.802-0.744-3.515-1.89-4.035-2.377c-0.251-0.234-1.121-1.389-1.223-1.428
	c-0.295-0.719-0.681-2.071-0.633-1.601c-0.26-1.741-0.015-2.206,0.563-3.604c1.207-2.917,3.21-5.409,6.058-7.869
	c7.83-6.763,19.528-5.989,28.855-3.625C382.986,159.084,386.633,160.569,390.138,162.326z M114.76,253.264
	c-0.787,0.378-3.907,1.52-5.881,2.132c-5.119,1.586-10.243,2.436-15.623,2.774c-3.996,0.252-9.145,0.007-12.36-1.149
	c-3.488-1.253-4.686-2.631-4.653-5.415c0.033-2.745,3.893-5.162,5.849-6.417c3.698-2.374,7.821-3.953,12.001-5.24
	c1.633-0.503,3.307-0.877,5.003-1.16c0.084,0.057,0.16,0.113,0.247,0.17c1.433,0.944,3.151,0.85,4.753,0.152
	c-0.338,0.927-0.245,1.902,0.632,2.78c2.573,2.577,4.708,4.451,8.098,5.865c1.104,0.46,2.182,0.954,3.238,1.518
	c1.119,0.597,1.885,1.224,1.951,1.285c0.106,0.098,0.317,0.359,0.521,0.613c-0.243,0.156-0.482,0.319-0.727,0.471
	C116.829,252.248,115.797,252.765,114.76,253.264z M85.819,215.127c3.041-3.705,7.322-6.37,11.793-7.966
	c3.774-1.346,7.305-1.117,10.918-0.291c-1.925,2.538-3.626,5.252-5.127,8.024c-1.663,3.07-2.888,6.311-3.948,9.629
	c-0.433,1.358-0.677,2.75-0.893,4.146c-0.506,0.429-0.962,0.917-1.356,1.448c-0.129,0.027-0.257,0.047-0.386,0.076
	c-4.255,0.944-8.631,2.286-12.766,4.138c-0.34-0.304-0.722-0.564-1.143-0.775c-0.208-0.44-0.565-1.072-0.568-1.079
	c-0.674-1.735-1.029-3.557-1.279-5.392C80.435,222.458,82.991,218.571,85.819,215.127z M79.367,233.002
	c-0.021,0.002-0.042,0.003-0.063,0.006c0.015-0.003,0.03-0.006,0.045-0.009C79.355,233,79.361,233.001,79.367,233.002z
	 M53.077,280.065c4.322-5.534,11.904-9.021,19.377-10.624c7.873,3.098,20.887,3.568,21.399,13.368
	c0.617,11.802-18.437,12.938-26.144,11.963C60.344,293.84,45.759,289.436,53.077,280.065z M35.641,394.276
	c-2.468-3.382-1.345-6.425-0.002-9.635c5.166,2.47,10.846,4.093,15.708,5.168c5.431,1.201,14.493,1.945,21.552-0.192
	c-0.952,3.162-1.023,6.556,0.026,9.861c-1.943,1.035-3.622,2.832-4.552,4.506c2.445-4.4,0.599-1.189-1.549,0.248
	c-2.317,1.549-5.432,1.734-8.126,1.594c-4.728-0.246-9.276-1.457-13.5-3.546C41.384,400.393,38.145,397.708,35.641,394.276z"/>
</svg>
