<?xml version="1.0" encoding="utf-8"?>
<!-- Generator: Adobe Illustrator 17.0.0, SVG Export Plug-In . SVG Version: 6.00 Build 0)  -->
<!DOCTYPE svg PUBLIC "-//W3C//DTD SVG 1.0//EN" "http://www.w3.org/TR/2001/REC-SVG-20010904/DTD/svg10.dtd">
<svg version="1.0" id="Layer_1" xmlns="http://www.w3.org/2000/svg" xmlns:xlink="http://www.w3.org/1999/xlink" x="0px" y="0px"
	 width="566.93px" height="566.93px" viewBox="0 0 566.93 566.93" enable-background="new 0 0 566.93 566.93" xml:space="preserve">
<path fill="#010101" d="M133.371,174.898c3.402,3.346,6.83,6.676,10.329,9.922c1.134,1.052,2.195,2.867,3.896,3.017
	c0.621,0.055,1.243,0.096,1.866,0.101c0.374-0.036,0.728-0.136,1.073-0.267c-1.507,1.705-2.885,3.486-4.071,5.37
	c-0.24,0.382-0.354,0.738-0.376,1.057c-0.577,0.642-0.792,1.451-0.095,2.081c2.531,2.288,5.333,4.339,8.043,6.409
	c3.146,2.403,6.12,5.16,9.422,7.338c0.469,0.309,1.019,0.34,1.563,0.23c0.463,6.615,2.434,13.392,3.935,19.73
	c0.526,2.217,1.748,10.904,4.699,13.75c-0.368,0.344-0.744,0.681-1.137,1.003c-1.6,1.311-2.939,3.833-2.808,6.031
	c-0.058,0.291-0.022,0.584,0.145,0.855c0.255,0.972,0.854,1.832,1.941,2.419c0.421,0.227,0.84,0.456,1.26,0.684
	c7.121,5.985,16.673,9.774,20.95,18.535c0.313,0.64,0.785,1.04,1.357,1.261c-0.746,1.233,0.078,2.65,1.728,1.829
	c7.902-3.933,14.457-10.596,20.953-16.459c7.57-6.834,15.16-13.61,22.834-20.326c7.673-6.713,15.592-13.151,23.626-19.426
	c3.429-2.678,7.624-4.463,9.96-6.598c1.352-1.236,2.096-2.854,1.626-4.668c-0.067-0.257-0.16-0.474-0.265-0.673
	c0.537-0.826,0.839-1.785,0.949-2.807c0.951-0.894,1.568-2.256,1.326-3.416c-1.08-5.186-7.145-10.416-10.516-14.303
	c-4.1-4.725-8.209-10.716-13.199-14.479c-0.499-0.375-1.335,0.396-1.269,0.912c0.02,0.161,0.054,0.321,0.08,0.481
	c-1.403-1.29-3.343-0.659-4.56,0.657c-4.464-3.226-10.094-4.999-15.188-6.743c-3.695-1.265-7.792-2.83-11.931-3.99
	c0.067-0.621-0.081-1.27-0.556-1.899c-5.646-7.494-14.112-12.053-20.273-19.059c-1.222-1.391-3.768-0.404-4.598,0.955
	c-0.266,0.436-0.545,0.862-0.822,1.289c-0.134-0.767-0.584-1.508-1.467-2.138c-11.423-8.148-20.936-19.545-30.048-30.098
	c-9.58-11.093-18.734-22.544-28.578-33.408c-15.679-17.3-35.983-31.115-49.117-50.612c0.351-0.923,0.374-1.908-0.386-2.677
	c-2.975-3.002-7.193-2.505-11.498-0.581c-0.172-0.963-0.688-1.876-1.651-2.524c-9.523-6.409-21.965-0.672-29.982,5.273
	c-5.225,3.875-9.523,8.403-11.418,14.748c-0.38,1.272-0.581,2.688-0.583,4.114c-0.003,0.087-0.001,0.172,0.005,0.258
	c0.002,0.102,0.002,0.204,0.006,0.307c-1.996,4.607-0.018,8.928,2.681,12.811c-0.414,0.593-0.792,1.195-1.114,1.811
	c-0.619,1.187,0.029,1.998,0.955,2.185c-0.122,0.365-0.227,0.735-0.302,1.112c-0.27,1.356,0.663,2.207,1.768,2.287
	c-0.241,0.581-0.25,1.221,0.142,1.78c9.487,13.512,22.373,24.867,34.217,36.256c12.648,12.163,24.607,24.758,36.213,37.916
	C114.257,154.888,123.507,165.2,133.371,174.898z M158.765,153.216c0.231,1.038,0.926,1.991,2.096,2.538
	c1.512,0.705,1.73,0.752,2.655,1.996c0.015,0.035,0.026,0.062,0.055,0.121c0.104,0.213,0.18,0.439,0.254,0.664
	c0.006,0.017,0.007,0.019,0.012,0.034c0.002,0.011,0.001,0.013,0.003,0.025c0.043,0.305,0.041,0.613,0.034,0.92
	c0.025-1.063-0.334,0.645-0.211,0.591c-0.143,0.282-0.325,0.616-0.392,0.755c-0.141,0.179-0.297,0.372-0.393,0.495
	c-0.253,0.214-0.565,0.463-0.671,0.559c-0.066,0.038-0.129,0.081-0.195,0.118c-0.081,0.046-0.124,0.072-0.172,0.101
	c-0.072,0.027-0.146,0.046-0.219,0.069c-0.139,0.03-0.359,0.075-0.488,0.086c-0.007-0.001-0.007-0.001-0.014-0.002
	c-0.103-0.012-0.201-0.044-0.301-0.068c-0.08-0.034-0.292-0.112-0.38-0.158c-0.134-0.07-0.204-0.103-0.25-0.122
	c-0.01-0.017-0.033-0.044-0.098-0.102c-1.017-0.918-1.363-1.939-1.794-3.451c-0.403-1.412-0.522-3.253,0.042-4.635
	C158.424,153.542,158.575,153.369,158.765,153.216z M60.361,31.278c0.088,0.212,0.223,0.418,0.426,0.613
	c0.715,0.687,1.496,1.136,2.299,1.535c-1.853,1.49-3.438,2.855-4.58,3.789c-3.388,2.771-6.658,5.689-9.869,8.668
	c-0.048-1.262-0.359-2.554-0.837-3.716c0.348-0.646,0.691-1.294,1.068-1.928c-0.001,0-0.002,0-0.003-0.001
	c0.001-0.001,0.001-0.002,0.002-0.003c0.225-0.398,0.309-0.741,0.305-1.039c0.409-0.609,0.476-1.372,0.042-1.737
	c1.583-0.935,3.163-1.85,4.681-2.786C55.768,33.52,58.082,31.92,60.361,31.278z M172.794,168.698
	c-0.057-2.451-1.285-4.604-3.644-5.231c2.314-3.285,3.157-7.579,0.945-11.153c-1.781-2.879-5.563-4.804-8.79-3.464
	c-0.948-0.235-1.897-0.187-2.803,0.068c0.296-1.177,0.163-2.363-0.63-3.609c-1.6-2.514-5.106-4.146-7.329-6.127
	c-4.908-4.371-9.808-8.753-14.676-13.168c-9.821-8.906-19.457-18.016-28.699-27.521c-8.814-9.064-17.006-18.625-25.031-28.383
	c-6.833-8.309-12.088-17.315-12.981-28.088c0.816-0.642,1.635-1.282,2.446-1.93c2.21,0.373,4.864,1.212,5.564,1.427
	c2.094,0.648,4.477,1.541,6.536,2.79c9.74,13.299,21.92,24.775,33.667,36.267c8.76,8.571,17.158,17.476,25.922,26.046
	c9.215,9.01,18.342,18.124,27.064,27.615c3.848,4.188,7.629,8.463,11.037,13.021c1.078,1.441,2.113,2.922,2.914,4.537
	c0.27,0.545,0.457,1.113,0.635,1.691c0.049,0.159,0.109,0.175,0.184,0.104c-0.248,1.347,0.326,2.621,1.51,2.744
	C182.32,160.754,177.552,164.762,172.794,168.698z M186.761,151.147c-0.076,0.05-0.137,0.11-0.208,0.163
	C186.62,151.25,186.689,151.195,186.761,151.147z M219.663,170.082c-0.355-0.285-0.714-0.563-1.075-0.838
	c0.498,0.147,0.998,0.291,1.5,0.43C219.936,169.804,219.796,169.94,219.663,170.082z M210.189,169.23
	c3.148,3.639,6.785,6.88,10.014,10.442c4.067,4.487,7.676,9.356,11.084,14.355c-5.596,5.143-11.433,10.032-17.252,14.911
	c-2.588,2.17-5.235,4.266-7.895,6.347c-0.374-0.835-1.203-1.442-2.389-1.415c-8.595,0.194-21.666-15.159-14.953-22.76
	c0.338-0.383,0.436-0.793,0.37-1.149c3.985-3.768,7.941-7.566,11.846-11.416c2.17-2.141,4.31-4.31,6.443-6.484
	C208.377,171.126,209.283,170.178,210.189,169.23z M207.446,262.643c0.505-0.3,0.996-0.644,1.462-1.032
	c-0.504,0.46-1.006,0.922-1.51,1.382C207.418,262.876,207.434,262.76,207.446,262.643z M261.35,215.174
	c-7.855,5.916-15.307,12.476-22.641,19.02c-4.412,3.936-8.809,7.887-13.159,11.89c-0.453-0.1-0.994-0.106-1.651,0.035
	c-3.484,0.75-6.629,0.226-9.407-1.181c-2.133-1.783-4.267-3.578-6.361-5.417c-0.067-0.085-0.137-0.166-0.204-0.253
	c-3.582-4.655-3.984-9.933-3.545-15.397c8.43-6.424,16.683-13,24.727-19.921c4.542-3.909,8.894-7.957,13.365-11.887
	c5.484-0.622,10.651-0.255,15.158,3.61c4.92,4.22,6.729,10.634,6.856,16.89c0.003,0.157,0.039,0.297,0.072,0.439
	C263.468,213.695,262.382,214.397,261.35,215.174z M210.932,161.939c-3.501,1.765-6,5.966-8.631,8.754
	c-5.063,5.371-10.302,10.576-15.561,15.754c-5.024,4.947-10.151,9.793-15.149,14.766c-0.208,0.209-2.176,2.042-3.792,3.892
	c-0.195-0.191-0.454-0.342-0.768-0.452c-5.051-3.931-10.934-8.147-16.816-10.889c4.707-3.933,9.34-7.945,13.993-11.938
	c2.409-0.938,4.988-2.977,6.317-5.355c1.901-1.59,3.806-3.176,5.743-4.729c7.95-6.373,15.788-13.207,21.795-21.485
	C202.053,154.469,206.783,157.913,210.932,161.939z M191.512,150.859c0-0.02-0.001-0.04-0.001-0.059
	c0.024-0.01,0.048-0.019,0.072-0.029C191.559,150.8,191.536,150.83,191.512,150.859z"/>
<path fill="#010101" d="M373.675,353.117c-22.915,13.826-43.853,30.588-62.532,49.72c-4.265-5.777-8.51-11.57-12.673-17.434
	c-13.641-19.215-26.34-39.076-40.336-58.041c-6.528-8.844-13.377-17.449-19.9-26.299c-6.346-8.609-11.564-17.801-17.418-26.723
	c-0.218-0.331-0.751,0.172-0.659,0.473c2.95,9.768,9.105,18.48,14.53,27.021c5.888,9.27,12.546,18.064,19.067,26.892
	c14.008,18.963,26.736,38.817,40.236,58.137c4.55,6.513,9.228,12.923,13.934,19.311c-17.546,18.41-33.703,38.652-43.055,62.533
	c-3.044,7.775-5.059,15.756-6.368,23.899c-0.214-1.025-0.426-2.008-0.625-2.883c-2.002-8.768-4.023-17.459-6.162-26.186
	c-5.047-20.607-12.456-40.627-18.166-61.066c-5.799-20.758-10.027-41.914-15.75-62.67c-2.803-10.166-6.523-20.061-9.852-30.06
	c-3.266-9.813-5.682-19.671-7.985-29.741c-0.26-1.142-1.961,0.063-1.961,0.868c-0.008,20.436,9.357,40.381,14.617,59.814
	c2.813,10.393,4.662,21.078,7.148,31.557c2.492,10.508,5.197,20.965,8.043,31.383c5.613,20.543,12.666,40.678,17.914,61.314
	c2.316,9.104,4.256,18.199,6.277,27.375c0.905,4.115,1.012,9.322,2.889,13.125c0.447,0.905,1.199,1.262,2.014,1.246
	c-0.624,9.371-0.246,19.172,4.497,27.506c5.669,9.965,16.62,13.941,27.318,16.023c12.261,2.387,25.206,1.766,37.489-0.059
	c12.389-1.84,23.896-5.875,35.557-10.307c12.878-4.893,25.58-10.246,38.061-16.082c24.742-11.57,48.523-25.721,69.21-43.65
	c13.267-11.498,25.087-25.018,35.968-38.756c11.199-14.141,21.232-29.795,26.98-46.99c5.396-16.146,6.308-32.947,1.615-49.379
	c-1.911-6.695-4.727-13.381-7.104-19.947c-2.27-6.271-6.9-9.622-13.594-9.311c-5.608,0.262-9.563,10.25-2.172,10.141
	c4.297-0.063,5.447,4.788,6.492,8.123c0.797,2.542,1.742,5.018,2.707,7.486c-1.829-0.982-3.629-2.032-5.424-2.958
	c-14.005-7.228-28.047-14.384-42.081-21.556c8.74-2.663,17.75-4.464,26.41-3.97c1.536,0.743,3.071,1.489,4.609,2.23
	c-0.553,2.006,0.736,3.951,3.578,2.504c1.656-0.845,3.533-1.496,4.357-4.29c0.271-0.917-0.121-2.129-1.018-2.559
	c-38.66-18.57-77.076-37.49-114.986-57.554c-35.988-19.046-72.519-39.698-111.424-52.235c-0.004,0.008-0.007,0.015-0.011,0.023
	c-1.008-0.192-2.3,0.954-1.874,1.985c1.158,2.808,6.48,3.847,9.104,4.999c5.01,2.199,10.003,4.443,14.979,6.717
	c9.459,4.322,18.835,8.833,28.146,13.463c18.755,9.325,37.21,19.26,55.657,29.176c32.368,17.4,65.038,34.138,98.04,50.272
	c-3.747,0.392-7.49,1.152-11.145,1.959c-4.139,0.914-8.237,2.023-12.299,3.257c-27.923-14.255-56.022-28.478-83.351-43.792
	c-0.244-0.139-0.626,0.3-0.354,0.465c11.988,7.246,23.759,14.751,35.925,21.728c12.781,7.33,25.724,14.406,38.635,21.503
	c1.159,0.637,2.322,1.269,3.482,1.906c-2.305,0.765-4.602,1.554-6.889,2.368c-7.083-3.612-14.171-7.213-21.236-10.853
	c-44.447-22.899-88.38-46.959-133.541-68.424c-0.465-0.221-1.174,0.564-0.657,0.867c40.693,23.816,82.574,45.616,123.956,68.214
	c7.975,4.355,15.973,8.653,23.99,12.917c-0.044,0.016-0.088,0.032-0.132,0.049C419.862,328.942,396.069,339.607,373.675,353.117z
	 M382.264,378.692c20.915-12.193,42.841-26.043,66.089-33.273c10.33-3.213,21.184-6.785,31.914-3.498
	c3.789,1.16,7.453,3.268,10.242,6.074c3.493,3.514,2.344,6.756,2.221,11.102c-0.066,2.35,2.955,1.059,3.761,0.182
	c3.993-4.345,2.857-9.347-0.112-13.369c0.433-0.549,0.728-1.168,0.758-1.811c0.144-3.115-4.283-4.961-6.408-6.262
	c-5.521-3.381-11.201-6.471-16.936-9.477c-4.566-2.394-9.149-4.757-13.738-7.11c2.107-0.798,4.25-1.585,6.419-2.338
	c9.23,5.052,18.47,10.086,27.743,15.054c6.188,3.314,12.377,6.631,18.562,9.951c2.939,1.578,5.838,3.281,8.885,4.646
	c0.381,0.171,0.759,0.348,1.138,0.521c0.199,0.573,0.396,1.146,0.582,1.724c4.182,13.023,3.414,26.814-0.216,39.842
	c-7.503,26.938-27.503,49.682-46.114,69.713c-18.535,19.945-41.471,35.102-65.443,47.713c-12.371,6.51-25.13,12.256-38.059,17.563
	c-11.914,4.889-24.037,10.01-36.578,13.047c-12.264,2.969-25.328,4.023-37.887,2.783c-11.016-1.086-23.807-4.17-29.268-14.814
	c-4.594-8.955-3.381-20.113-2.363-29.748c1.412-13.348,5.375-25.99,11.301-38.006c8.398-17.026,20.524-32.464,33.791-46.457
	c7.938,10.736,15.88,21.468,23.384,32.548c6.645,9.809,13.254,19.689,20.525,29.051c3.252,4.188,6.646,8.262,9.955,12.404
	c1.701,2.131,3.013,4.467,4.553,6.707c0.334,0.485,0.796,0.822,1.274,1.123c0.008,0.507,0.264,0.947,0.914,1.192
	c0.604,0.227,1.187,0.492,1.827,0.586c2.012,0.293,4.452-1.859,3.728-3.973c-0.231-0.676-0.712-1.123-1.269-1.541
	c-1.912-1.434-3.501-2.828-5.16-4.586c-3.994-4.232-7.484-9.119-11.117-13.668c-7.372-9.23-13.968-19.088-20.621-28.842
	c-7.971-11.684-16.375-23.012-24.773-34.348c4.279-4.382,8.648-8.626,13.035-12.72c20.308-18.955,43.317-34.83,67.831-47.836
	c17.418-9.24,35.728-16.418,54.043-23.635c0.638-0.251,1.283-0.506,1.932-0.762c3.882,2.051,7.768,4.096,11.659,6.134
	c3.708,1.942,7.397,3.92,11.059,5.949c-5.137-0.135-10.372,0.757-15.435,2.07c-28.201,7.314-53.521,24.52-77.829,39.869
	C381.715,378.385,381.841,378.938,382.264,378.692z"/>
<path fill="#010101" d="M296.532,483.353c0.338-11.936,5.443-25.754,11.849-35.762c0.389-0.606-0.38-0.919-0.744-0.401
	c-10.944,15.527-22.545,41.945-9.524,59.486c10.359,13.955,32.758,10.902,47.372,7.943c17.8-3.604,35.542-10.344,52.157-17.529
	c20.102-8.693,39.46-19.631,55.998-34.096c15.563-13.613,30.207-32.514,31.127-53.984c0.096-2.23-3.116-0.633-3.473,0.701
	c-5.777,21.643-17.71,38.779-34.917,52.994c-17.272,14.27-37.787,24.68-58.497,32.961
	C363.321,505.486,295.159,532.01,296.532,483.353z"/>
</svg>
