<?xml version="1.0" encoding="utf-8"?>
<!-- Generator: Adobe Illustrator 17.0.0, SVG Export Plug-In . SVG Version: 6.00 Build 0)  -->
<!DOCTYPE svg PUBLIC "-//W3C//DTD SVG 1.0//EN" "http://www.w3.org/TR/2001/REC-SVG-20010904/DTD/svg10.dtd">
<svg version="1.0" id="Layer_1" xmlns="http://www.w3.org/2000/svg" xmlns:xlink="http://www.w3.org/1999/xlink" x="0px" y="0px"
	 width="566.93px" height="566.93px" viewBox="0 0 566.93 566.93" enable-background="new 0 0 566.93 566.93" xml:space="preserve">
<path d="M79.83,386.285c4.541,20.234,25.112,29.478,44.044,29.875c21.448,0.451,42.736-11.482,51.546-31.308
	c4.114-9.258,5.248-19.489,5.984-29.482c0.609-8.274,1.234-16.533,1.878-24.795c4.787,3.825,16.089-0.219,20.123-2.6
	c7.341-4.334,13.819-12.286,15.058-20.882c1.279-8.879-4.5-14.971-12.723-17.125c-9.003-2.357-19.216,2.854-24.821,10.204
	c-1.668-3.69-4.001-7.186-7.086-10.544c-7.038-7.661-16.941-14.175-27.608-11.822c-4.1,0.904-7.63,8.326-2.085,9.732
	c10.635,2.698,20.304,9.502,25.402,19.426c3.143,6.119,2.666,13.252,1.939,19.867c-0.739,6.733-1.344,13.43-1.702,20.196
	c-1.104,20.87-1.658,44.706-23.877,54.216c-16.726,7.159-39.402,4.899-51.438-9.727c-8.014-9.738-7.926-23.874-6.296-35.696
	c1.914-13.889,7.238-27.19,13.677-39.555c6.716-12.898,19.453-32.508,36.211-30.552c1.153,0.135,2.918-1.649,1.531-2.516
	c-5.767-3.604-12.337-1.616-17.925,1.651c0.887-8.661-5.05-18.72-12.967-21.465c-7.348-2.548-15.255,1.003-19.651,7.026
	c-4.243,5.813-4.999,13.758-2.359,20.375c2.353,5.898,9.626,11.753,16.382,11.61c-2.152,2.899-4.14,5.906-5.959,8.924
	C83.76,333.458,74.004,360.323,79.83,386.285z M203.68,297.981c5.085,2.469,6.654,7.124,5.171,12.313
	c-1.282,4.485-5.292,8.238-9.203,10.468c-5.19,2.96-9.867,0.14-15.205,1.355c-0.179,0.041-0.343,0.114-0.511,0.179
	c0.036-0.449,0.069-0.897,0.105-1.346c0.521-6.42-0.039-12.238-1.884-17.632C188.013,297.966,196.159,294.33,203.68,297.981z
	 M101.691,291.851c-2.321-1.112-4.014-2.887-5.466-4.969c-2.347-3.365-2.502-8.339-0.914-12.007
	c1.761-4.065,5.878-4.621,9.843-3.983c4.478,0.72,7.206,3.399,9.369,7.204c1.639,2.883,1.872,6.321,3.37,9.225
	c-0.506,0.366-1,0.734-1.476,1.1c-2.526,1.946-4.88,4.151-7.102,6.502C107.462,293.001,104.067,292.99,101.691,291.851z"/>
<path d="M111.268,286.742c-0.029-0.062-0.083-0.155-0.131-0.236c0.286-0.121,0.555-0.383,0.679-0.588
	c0.103-0.17,0.196-0.338,0.269-0.523c0.059-0.15,0.102-0.301,0.144-0.456c-0.077,0.279,0.002,0.005,0.02-0.047
	c0.149-0.415,0.351-0.878,0.389-1.323c0.037-0.431,0.058-0.813,0.016-1.24c-0.041-0.413-0.13-0.822-0.23-1.224
	c-0.298-1.198-1.096-2.149-2.12-2.805c-2.25-1.442-5.222-0.744-7.46,0.322c-2.355,1.121-4.617,3.284-5.219,5.892
	c-0.304,1.317-0.002,2.71,0.896,3.732c0.964,1.097,2.423,1.624,3.793,1.972c0.711,0.18,1.432,0.281,2.164,0.326
	c0.876,0.053,1.731,0.155,2.579-0.14c-0.103,0.036-0.185,0.062-0.255,0.083c0.126-0.009,0.252-0.021,0.378-0.031
	c0.822-0.072,1.482-0.424,2.062-0.908c0.504-0.231,0.981-0.512,1.37-0.919C111.049,288.168,111.591,287.428,111.268,286.742z
	 M111.155,286.572c-0.015-0.025-0.022-0.037-0.035-0.06c0,0,0.001,0,0.001,0C111.133,286.533,111.14,286.545,111.155,286.572z
	 M103.737,283.728C103.736,283.728,103.736,283.728,103.737,283.728C103.806,283.606,103.843,283.55,103.737,283.728z
	 M105.981,284.433c-0.518-0.073-1.028-0.188-1.529-0.336c-0.219-0.09-0.428-0.196-0.631-0.316c0.106-0.094,0.217-0.183,0.329-0.271
	c0.008-0.005,0.015-0.01,0.023-0.015c0.206-0.13,0.42-0.246,0.633-0.364c0.102-0.057,0.208-0.104,0.312-0.157
	c0.112-0.046,0.229-0.093,0.311-0.121c0.184-0.063,0.371-0.114,0.56-0.163c0.049-0.007,0.098-0.015,0.147-0.023
	c0.216-0.036,0.432-0.064,0.65-0.079c0.064-0.004,0.129-0.005,0.193-0.006c0.185,0.02,0.368,0.049,0.548,0.093
	c0.007,0.001,0.016,0.004,0.024,0.006c0.047,0.021,0.096,0.037,0.143,0.059c0.157,0.073,0.308,0.162,0.452,0.258
	c0.008,0.005,0.019,0.013,0.028,0.019c0.015,0.014,0.031,0.027,0.046,0.04c0.308,0.264,0.571,0.567,0.796,0.903
	c0.053,0.097,0.095,0.192,0.128,0.297c0.067,0.215,0.206,0.4,0.337,0.583c-0.347-0.48,0.093,0.178,0.164,0.293
	c0,0.001,0.001,0.001,0.001,0.002c-0.337-0.163-0.724-0.254-1.129-0.315C107.726,284.549,106.784,284.547,105.981,284.433z"/>
<path d="M106.8,290.488c-0.004,0-0.008,0.001-0.013,0.001C106.5,290.511,106.367,290.62,106.8,290.488z"/>
<path d="M185.854,318.061c1.976,1.301,5.313,0.124,7.279-0.709c2.002-0.849,3.698-2.013,5.129-3.656
	c1.871-2.148,1.989-5.224,0.524-7.569c-2.947-4.721-10.665-2.514-10.915,2.913c-0.043,0.929,1.226,0.478,1.54,0.075
	c0.527-0.678,1.292-1.344,1.685-1.57c0.024-0.014,0.032-0.019,0.049-0.03c0.022-0.007,0.038-0.011,0.073-0.024
	c0.192-0.07,0.38-0.135,0.58-0.185c-0.33,0.082,0.561,0.048,0.362,0.024c0.045,0.005,0.22,0.049,0.273,0.055
	c0.125,0.052,0.251,0.105,0.372,0.167c0.305,0.156,0.605,0.342,0.89,0.534c0.023,0.015,0.031,0.02,0.047,0.03
	c0.013,0.011,0.017,0.016,0.033,0.03c0.152,0.131,0.289,0.278,0.423,0.426c0.101,0.111,0.191,0.231,0.282,0.352
	c0.038,0.05,0.064,0.084,0.086,0.112c0.002,0.01,0.009,0.03,0.035,0.08c0.076,0.144,0.257,0.738,0.287,0.751
	c0.012,0.094,0.026,0.188,0.034,0.283c0.003,0.048,0.007,0.074,0.01,0.106c-0.005,0.016-0.011,0.03-0.018,0.063
	c-0.004,0.021-0.004,0.024-0.007,0.041c-0.029,0.061-0.068,0.133-0.108,0.203c-0.001,0.002-0.003,0.004-0.005,0.006
	c-0.097,0.104-0.267,0.289-0.347,0.361c-0.037,0.034-0.104,0.087-0.172,0.139c-0.217,0.139-0.438,0.271-0.665,0.394
	c-0.178,0.096-0.363,0.177-0.548,0.259c-0.043,0.01-0.737,0.299-0.826,0.331c-2.085,0.764-4.355,1.1-6.116,2.548
	C185.086,315.452,184.559,317.208,185.854,318.061z"/>
<path d="M131.965,366.941c-0.223,0.293-0.423,0.61-0.591,0.943c-1.965-0.643-3.927-1.383-5.78-1.871
	c-2.304-0.607-4.619-1.244-6.959-1.721c0.186-0.406,0.293-0.836,0.283-1.279c-0.29-12.343,5.18-24.172,8.092-35.99
	c1.108-0.792,1.886-2.391,1.654-3.509c-0.4-1.933-4.187-2.274-5.564-3.319c-3.46-2.626-6.642-6.573-10.596-8.397
	c-0.547-0.252-1.441,0.413-1.174,1.031c1.559,3.604,4.481,6.824,7.216,9.597c1.032,1.046,2.134,2.06,3.32,2.931
	c0.575,0.423,1.108,1.037,1.727,1.389c0.219,0.125,0.456,0.278,0.653,0.403c-3.229,5.013-5.21,10.815-7.098,16.448
	c-2.137,6.378-4.312,13.848-4.62,20.671c-0.015,0.143-0.025,0.293-0.032,0.447c-0.442,0.542-0.598,1.21-0.049,1.797
	c0.5,0.534,1.091,0.982,1.718,1.394c-0.127,0.182-0.217,0.37-0.243,0.548c-0.003,0.001-0.006,0.002-0.009,0.003
	c0.001,0.011,0.006,0.022,0.007,0.033c-0.144,0.453-0.095,0.924,0.276,1.317c1.818,1.924,3.327,4.049,5.441,5.666
	c0.024,0.019,0.051,0.029,0.076,0.046c-0.041,0.333,0.035,0.637,0.266,0.87c-0.172,0.502-0.334,1.009-0.487,1.519
	c-0.097,0.086-0.188,0.177-0.275,0.271c-1.174-0.086-2.373,0.136-3.586,0.137c-2.646,0.003-5.304-0.418-7.89-0.938
	c-2.766-0.557-5.33-1.603-7.783-2.975c-2.416-1.352-3.121-3.651-4.469-5.863c-0.194-0.318-0.736-0.025-0.879,0.182
	c-7.586,11.051,16.764,19.275,25.134,15.093c0.991,3.813,5.298,6.926,9.031,8.107c5.094,1.612,18.063,3.947,21.013-2.119
	c1.208-2.486-0.792-4.287-3.229-3.679c-0.402,0.1-0.764,0.264-1.118,0.45c-4.29,0.618-8.671,0.505-12.924-0.343
	c-2.498-0.499-5.084-1.319-7.071-2.988c-0.776-0.652-1.206-1.447-1.551-2.282c0.112-0.167,0.224-0.335,0.31-0.518
	c0.467-0.993,0.236-2.169,0.113-3.276c3.3,0.161,6.646-0.228,9.858-0.89c0.52-0.107,0.967-0.479,1.292-0.946
	c1.596-0.509,2.789-1.868,2.859-3.618c0.018-0.427-0.106-0.831-0.217-1.24c-0.092-0.341-0.337-0.658-0.645-0.902
	c2.106-6.81,4.93-13.377,7.008-20.2c1.534-5.037,3.255-11.036,2.646-16.502c5.705,0.707,11.754-1.405,17.439-0.849
	c3.612,0.353,5.462-5.71,1.78-5.204c-0.818,0.112-1.421,0.221-1.997,0.407c-5.909,1.088-12.142,0.668-17.9,2.472
	c-0.366-0.686-1.572-0.062-1.77,0.492c-0.018,0.052-0.034,0.104-0.052,0.155c-0.009,0.004-0.018,0.006-0.027,0.01
	c-0.685,0.282-1.391,1.347-0.575,1.787c-1.797,5.605-2.907,11.417-4.933,16.98C136.901,355.12,134.431,361.042,131.965,366.941z
	 M124.089,326.78c0.003-0.009,0.006-0.018,0.009-0.027c0.074,0.083,0.157,0.162,0.25,0.237c-0.006,0.009-0.011,0.018-0.017,0.026
	C124.259,326.945,124.192,326.878,124.089,326.78z M123.999,378.681c-0.004-0.022-0.013-0.039-0.018-0.06
	c0.013,0.01,0.026,0.021,0.039,0.031C124.07,379.041,124.063,379.051,123.999,378.681z"/>
<path d="M116.292,322.292c-0.537-0.095-1.152-0.04-1.668,0.125c-1.659,0.53-2.634,2.034-3.448,3.467
	c-1.211,2.132-2.181,4.83-2.005,7.313c0.099,1.41,1.276,2.239,2.639,2.129c1.243-0.101,2.492-0.876,3.256-1.938
	c2.411-2.47,3.56-5.588,3.681-9.068c0.048-1.384-1.281-1.935-2.42-1.952C117.257,322.382,116.51,322.331,116.292,322.292z"/>
<path d="M151.829,347.511c4.826-0.521,7.632-4.86,7.139-9.488c-0.186-1.748-1.533-2.207-2.911-1.998
	c-0.508-0.825-2.023-0.742-2.819,0.015c-1.272,1.209-2.234,2.655-2.878,4.233c-0.254,0.43-0.463,0.883-0.683,1.334
	c-0.365,0.752-0.299,1.309-0.151,1.921c-0.083,0.673-0.13,1.353-0.107,2.04C149.459,346.834,150.622,347.642,151.829,347.511z"/>
<path d="M60.339,503.963c-0.082,14.242,1.825,38.547,18.073,44.043c5.168,1.748,11.119-0.251,12.677-5.916
	c2.302-8.368-3.762-16.436-7.05-23.647c-4.331-9.497-2.888-22.876-1.665-32.959c0.554-4.565,3.331-16.024,9.249-16.054
	c2.27-0.011,5.672-4.281,2.711-5.73c-5.176-2.532-9.937,2.298-12.697,6.234c-3.667,5.23-5.649,11.482-6.411,17.759
	c-1.099,9.061-1.57,19.122-0.006,28.142c1.519,8.766,8.873,15.723,9.279,24.712c0.013,0.444-0.052,0.874-0.154,1.296
	c-0.089,0.011-0.19,0.025-0.317,0.051c-1.199-0.087-2.291-0.599-3.352-1.115c-2.621-1.275-5.024-3.5-6.413-6.068
	c-4.902-9.07-6.546-19.424-7.003-29.599c-0.413-9.203,0.502-18.368,0.851-27.552c0.29-7.637,0.378-16.02,2.903-23.326
	c2.682,0.041,5.328-0.15,7.84-0.567c5.162-0.856,10.713-3.269,14.448-7.128c3.403,10.521,17.198,15.894,28.283,16.233
	c6.831,0.209,14.004-1.011,20.114-4.13c2.88-1.471,6.011-4.512,7.574-7.923c2.703,1.417,6.055,2.079,8.689,2.319
	c7.042,0.642,14.709-0.678,21.319-3.142c6.063-2.26,11.09-9.273,13.815-14.831c1.412-2.879,1.637-6.444,0.485-9.005
	c2.397-1.637,4.26-3.876,5.749-6.408c1.571-2.673,2.233-6.009,1.345-9.006c-0.092-0.311-0.221-0.601-0.365-0.879
	c6.827-2.546,14.881-8.02,16.654-9.351c5.547-4.166,9.86-10.139,11.165-17.019c0.549-2.896,0.143-5.789-0.953-8.451
	c9.03,0.774,18.262,0.644,27.198,1.526c12.36,1.221,23.916,4.595,35.663,8.476c11.123,3.675,22.239,8.475,30.583,16.927
	c8.043,8.147,13.348,18.511,17.228,29.168c7.656,21.028,5.184,43.866,5.467,65.804c0.099,7.693,0.076,15.422-0.712,23.083
	c-0.393,3.82-1.042,11.891-3.638,15.495c-0.028-0.069-0.052-0.134-0.07-0.191c-0.61-1.991-0.414-4.441-0.39-6.494
	c0.047-4.018,0.657-8.007,0.729-12.025c0.198-11.058-1.64-23.089-3.775-33.932c-4.088-20.755-24.969-22.198-42.643-21
	c-24.887,1.688-49.782,3.188-74.65,5.149c-12.138,0.957-24.243,2.348-36.387,3.213c-5.42,0.386-10.85,0.334-16.267,0.731
	c-4.465,0.327-9.271,0.763-13.687-0.169c-0.81-2.753-1.974-5.343-3.738-7.45c-2.714-3.242-6.575-2.721-9.774-0.654
	c-1.378,0.89-3.188,4.241-0.383,4.682c2.331,0.367,3.415,0.047,4.884,2.046c1.646,2.239,2.304,5.584,2.845,8.244
	c1.568,7.708,1.815,15.728,1.843,23.57c0.019,5.312,0.22,11.027-1.028,16.233c-1.465,6.106-5.578,24.132-14.565,23.167
	c-3.54-0.38,0.869-14.741,1.371-16.749c2.25-8.991,3.375-18.4,3.416-27.661c0.04-8.931-1.515-18.978-7.904-25.687
	c-6.711-7.046-20.893-10.488-29.428-4.998c-0.547,0.352-0.938,1.527,0.083,1.471c6.803-0.373,11.99,0.306,18.071,3.644
	c5.162,2.833,8.275,7.098,10.152,12.551c3.456,10.042,2.12,22.01,0.483,32.266c-1.263,7.913-11.896,37.268,6.414,31.122
	c9.365-3.144,13.86-13.445,16.677-22.113c2.018-6.209,2.956-11.892,3.217-18.377c0.325-8.052,0.128-16.162-0.732-24.175
	c-0.235-2.192-0.5-4.563-0.927-6.929c5.437,2.931,13.607,1.8,19.251,2.1c12.24,0.649,24.463-0.7,36.671-1.373
	c25.18-1.387,50.365-2.504,75.527-4.218c1.286-0.088,2.589-0.191,3.902-0.298c0.934,7.697,2.752,15.232,3.878,22.951
	c1.348,9.243,1.45,18.554,0.943,27.868c-0.297,5.465-2.246,11.561-1.125,16.98c1.319,6.376,8.223,6.843,12.96,4.085
	c13.538-7.882,12.814-27.542,11.111-40.735c-0.837-6.484-1.615-13.027-2.715-19.473c-0.627-3.674-1.47-7.679-2.987-11.309
	c2.125,0.481,4.203,1.156,6.207,2.106c8.313,3.945,9.707,12.162,10.587,20.49c1.155,10.923,3.018,21.475,2.119,32.49
	c-0.427,5.227-1.78,19.614,5.897,20.782c1.782,0.271,4.521-1.147,6.112-3.032c6.038-3.757,8.531-10.861,9.981-17.516
	c1.925-8.833,2.081-18.132,2.119-27.136c0.099-23.034,2.104-47.223-4.475-69.551c-2.446-8.301-6.082-16.371-10.756-23.721
	c17.495-1.254,31.447,16.966,36.865,32.371c3.54,10.063,2.136,21.297,2.317,31.771c0.186,10.738,2.534,21,9.882,29.155
	c10.074,11.179,28.261,14.883,42.631,13.523c7.491-0.708,14.861-3.423,20.47-8.521c4.218-3.834,9.462-11.927,8.059-18.056
	c3.505-1.816,6.751-4.974,9.006-7.403c4.242-4.57,7.305-10.196,9.16-16.137c3.715-11.899,3.561-25.895-2.308-37.105
	c-0.365-0.698-1.513-0.045-1.413,0.625c1.679,11.255,1.945,22.355-1.201,33.407c-1.531,5.379-4.274,10.331-7.882,14.58
	c-3.292,3.876-8.084,5.54-11.592,8.917c0.194-0.94-0.117-1.874-1.249-2.548c-10.858-6.469-7.188-21.24-3.319-31.052
	c2.005-5.085,4.933-9.829,8.823-13.687c4.235-4.199,8.257-7.682,8.023-14.131c-0.042-1.169-1.532-0.271-1.741,0.352
	c-2.501,7.477-10.351,11.062-15.313,16.846c-3.714,4.329-6.233,10.015-7.99,15.383c-3.232,9.873-5.763,27.7,6.911,32.369
	c1.45,0.534,3.275-0.193,4.514-1.354c-0.11,0.757,0.067,1.527,0.61,1.976c0,0.161,0.013,0.318,0.045,0.467
	c0.75,3.446-1.873,8.163-3.888,10.785c-2.062,2.683-5.199,4.423-8.304,5.601c-6.925,2.627-14.755,2.412-21.951,1.253
	c-6.988-1.125-13.815-3.527-19.736-7.435c-8.727-5.759-12.504-15.658-13.514-25.638c-1.002-9.915,0.295-20.073-1.787-29.885
	c-1.654-7.802-5.743-14.899-10.52-21.201c-8.125-10.718-21.782-21.545-35.633-18.258c-1.24-1.781-2.521-3.53-3.889-5.203
	c-8.118-9.931-19.829-15.756-31.725-19.868c-12.592-4.353-25.403-8.224-38.712-9.447c-12.345-1.134-25.45-0.651-37.948,0.404
	c-1.204-1.752-2.229-3.569-2.261-5.8c-0.066-4.558-5.697-2.176-7.37-0.358c-1.128,1.226-1.738,2.681-1.658,4.353
	c0.03,0.628,0.405,1.159,0.926,1.434c0.911,3.667,3.601,6.425,5.84,9.631c3.805,5.449-0.463,12.593-4.58,16.425
	c-3.282,3.057-6.995,5.651-10.87,7.892c-4.157,2.403-7.397,2.699-11.956,2.966c-0.773,0.045-1.701,0.871-1.601,1.702
	c0.006,0.049,0.02,0.088,0.027,0.136c-2.11,1.91-3.473,5.649,0.1,6.352c1.625,0.319,2.979-0.25,3.462,0.592
	c0.683,1.193,0.442,2.703-0.068,4.019c-0.704,1.817-2.121,3.283-3.844,4.276c-1.013-0.238-2.204-0.235-3.587,0.09
	c-0.619,0.146-1.381,0.647-2.056,1.319c-0.286-0.014-0.569-0.038-0.85-0.078c-1.079-0.155-2.81,1.646-1.456,2.392
	c0.25,0.138,0.475,0.271,0.693,0.4c-0.155,0.792,0.013,1.554,0.713,2.128c1.09,0.893,3.432,1.192,3.523,2.591
	c0.118,1.816-1.549,4.055-2.494,5.462c-2.194,3.267-4.66,5.946-8.394,7.225c-4.787,1.64-9.799,2.416-14.84,2.644
	c-4.693,0.212-8.026-0.929-11.346-3.297c-0.245-0.615-0.579-1.216-1.02-1.795c-1.976-2.594-6.663,0.564-6.9,3.094
	c-0.174,1.858,0.669,4.272-0.436,5.905c-1.125,1.664-3.483,2.44-5.277,3.072c-4.643,1.635-9.782,2.047-14.673,1.927
	c-5.646-0.138-11.854-1.892-16.664-4.813c-4.714-2.861-6.08-7.059-7.502-11.577c0.274-1.099,0.425-2.255,0.426-3.473
	c0.003-2.128-2.504-3.153-4.274-2.399c-0.436,0.186-0.871,0.371-1.307,0.556c-2.148,0.915-4.177,4.161-3.237,5.917
	c-4.984,11.484-26.681,6.737-35.012,1.614c-6.93-4.262-7.534-11.171-7.629-18.643c-0.087-6.844,0.487-16.119,4.679-22.346
	c0.383-0.01,0.771-0.079,1.155-0.233c0.084-0.034,0.169-0.068,0.253-0.102c2.245-0.904,4.683-3.314,3.725-5.985
	c-0.083-0.231-0.166-0.463-0.25-0.695c-0.325-0.907-1.185-1.539-2.115-1.698c-10.369-1.781-24.925-2.888-26.948-15.649
	c-2.006-12.657,4.471-32.242,16.659-37.918c0.497-0.231,0.786-0.897,0.647-1.35c1.582-1.992,1.917-4.771-1.004-5.564
	c-7.865-2.136-10.045-10.015-7.532-17.083c2.395-6.735,7.532-10.497,13.338-13.823c0.041,0.03,0.084,0.055,0.124,0.086
	c3.121,2.439,8.794-4.583,4.872-6.43c-2-0.942-4.213-0.827-5.941-2.364c-3.052-2.714-4.309-6.414-3.655-10.401
	c1.355-8.255,8.943-10.472,15.897-12.177c0.431-0.106,0.792-0.463,0.978-0.863c4.433-0.168,7.138-8.345,1.639-7.796
	c-4.876,0.077-6.573-2.223-4.524-6.718c1.65-3.62,6.531-5.342,9.995-6.464c11.294-3.658,22.789-1.544,34.292-0.509
	c3.082,0.277,7.935-4.418,4.142-6.806c-3.226-2.031-7.343-5.535-6.765-9.859c0.636-4.762,10.917-2.633,13.63-1.929
	c9.706,2.517,15.772,13.249,21.964,20.504c-0.014,0.166-0.034,0.328-0.041,0.497c-0.048,1.269,1.574,0.894,2.216,0.292
	c0.522-0.298,0.954-0.835,1.037-1.385c5.083-6.739,12.003-9.456,20.674-8.646c7.82,0.73,8.377,7.769,7.458,14.22
	c-0.747,5.236,5.512,3.729,7.481,0.414c9.276-4.906,19.115-7.064,29.518-3.446c5.468,1.902,10.747,5.208,13.659,10.343
	c2.736,4.826,1.936,11.136,0.259,16.31c-0.525,0.723-0.844,1.57-0.792,2.439c0.01,0.167,0.02,0.335,0.03,0.503
	c0.155,2.581,2.471,2.757,4.383,2.067c0.142,0.035,0.3,0.048,0.488,0.001c7.308-1.789,15.016,4.281,19.983,8.779
	c5.099,4.618,10.733,10.717,11.979,17.709c3.477,19.506-11.625,39.612-28.22,47.854c-4.76,2.364-2.939,9.026,2.521,6.591
	c19.577-8.732,36.505-35.396,31.604-57.056c-1.958-8.652-9.201-15.455-15.923-20.741c-5.145-4.046-12.49-8.36-18.974-6.482
	c0.686-1.741,0.647-3.745,1.062-5.735c0.849-4.076,1.008-8.138-0.302-12.118c-2.43-7.381-8.994-12.15-16.092-14.61
	c-7.025-2.436-14.258-2.763-21.572-1.554c-4.117,0.681-9.23,2.297-12.758,5.252c-0.128-0.515-0.398-0.983-0.789-1.355
	c-0.503-3.352-1.091-6.611-2.904-9.619c-2.309-3.831-7.478-4.942-11.591-4.952c-7.369-0.019-19.517,2.865-23.287,10.422
	c-3.736-5.307-6.716-11.095-11.293-15.836c-5.108-5.291-12.283-7.795-19.559-7.439c-5.663,0.277-10.648,3.726-12.193,9.222
	c-0.718,2.555-0.212,5.101,0.926,7.451c-12.393-1.25-25.34-0.558-35.883,6.244c-5.431,3.504-9.361,9.275-9.476,15.842
	c-0.058,3.264,1.717,5.335,4.14,6.57c-6.055,1.677-11.282,7.454-13.537,12.911c-1.707,4.131-1.62,8.57,0.07,12.658
	c0.829,2.004,2.506,4.548,4.328,5.726c0.11,0.071,0.227,0.133,0.341,0.199c-6.622,2.719-12.061,10.123-14.488,16.004
	c-3.85,9.329-1.042,17.691,6.645,23.119c0.208,0.281,0.486,0.544,0.853,0.781c-4.386,2.441-7.596,7.117-10.127,11.371
	c-4.521,7.597-7.098,16.514-7.513,25.314c-0.792,16.774,13.79,21.251,27.251,24.293c-4.677,5.966-6.116,15.616-6.59,22.205
	c-0.751,10.454-0.178,19.613,8.863,26.143c5.228,3.776,11.934,5.807,18.635,6.35c-4.044,5.802-4.663,14.199-5.483,20.928
	C61.36,484.612,60.395,494.291,60.339,503.963z M301.748,535.661c-0.943,0.898-0.828-4.484-0.807-4.722
	c0.194-2.213,0.514-4.416,0.657-6.635c0.431-6.708,0.239-13.453-0.581-20.121c-1.34-10.911-3.371-23.644-9.186-33.349
	c1.609-0.12,3.226-0.224,4.843-0.289c0.171,1.172,0.865,2.12,2.021,2.447c5.655,7.651,5.735,18.26,6.988,27.382
	C307.179,511.274,310.863,526.984,301.748,535.661z M49.871,394.201c0.006-0.018,0.013-0.037,0.019-0.055
	C50.285,393.846,50.17,393.947,49.871,394.201z"/>
<path d="M461.409,155.501c-10.231-2.835-20.727,8.467-25.674,16.369c-6.059-9.137-21.701-10.84-26.629,0.761
	c-4.179,9.834,5.645,20.634,14.799,22.608c1.925,0.415,6.023,0.079,8.832-1.311c0.485,5.6,0.989,11.178,1.279,16.807
	c0.551,10.69,1.728,21.314,7.647,30.498c5.547,8.604,16.042,13.288,25.879,14.567c9.361,1.218,19.436-0.754,27.227-6.179
	c9.031-6.289,12.736-15.738,13.462-26.426c0.902-13.284-4.266-26.858-10.216-38.462c-1.936-3.775-4.129-7.437-6.616-10.871
	c4.113-1.438,8.338-5.547,9.823-8.297c2.593-4.803,2.747-10.888-0.221-15.563c-3.207-5.05-9.054-6.105-14.462-4.248
	c-3.564,1.223-5.891,4.037-7.636,7.252c-0.979,1.805-1.985,4.52-2.191,7.028c-3.823-1.828-8.206-2.271-12.04-0.075
	c-0.756,0.433-1.228,2.086,0.11,1.963c8.659-0.8,15.133,7.215,19.787,13.472c5.86,7.879,9.816,17.272,12.784,26.569
	c3.368,10.553,5.523,23.827,0.488,34.184c-3.514,7.228-11.723,10.271-19.236,10.916c-8.331,0.714-17.154-1.91-23.61-7.237
	c-7.291-6.016-9.529-15.22-10.444-24.203c-1.064-10.449-1.801-21.168-2.344-31.648c-0.563-10.855,7.774-18.013,17.512-20.591
	C463.001,162.516,465.924,156.753,461.409,155.501z M422.237,185.49c-3.385-2.181-8.033-7.938-6.425-12.321
	c1.117-3.044,5.229-3.609,7.971-3.325c3.634,0.376,7.359,2.688,10.331,5.108c-0.994,2.374-1.52,4.913-1.742,7.495
	c-0.033-0.075-0.058-0.15-0.102-0.223c-0.644-1.05-2.679-1.386-3.501-1.674c-0.804-0.281-1.614-0.658-2.313-1.151
	c-0.043-0.06-0.449-0.417-0.539-0.519c-0.033-0.037-0.06-0.08-0.09-0.12c-0.026-0.052-0.116-0.204-0.145-0.275
	c-0.015-0.038-0.023-0.079-0.036-0.118c0-0.004,0.001-0.009,0.002-0.013c0.056,0.101,0.053-0.164,0.025-0.134
	c0.005-0.022,0.008-0.046,0.013-0.068c0.005-0.012,0.008-0.016,0.014-0.031c0.008-0.019,0.02-0.043,0.033-0.068
	c0.039-0.054,0.076-0.11,0.117-0.162c0.029-0.025,0.062-0.052,0.096-0.08c0.153-0.097,0.31-0.191,0.468-0.275
	c0.005-0.002,0.006-0.002,0.012-0.004c0.021-0.008,0.03-0.012,0.041-0.018c0.024-0.002,0.045-0.003,0.083-0.007
	c0.029-0.003,0.11-0.004,0.167-0.006c0.112,0.012,0.224,0.027,0.334,0.051c0.138,0.03,0.229,0.049,0.567,0.217
	c0.566,0.281,1.073,0.685,1.526,1.12c0.513,0.493,1.301-0.174,1.31-0.752c0.026-1.819-0.934-3.451-2.868-3.657
	c-1.946-0.207-3.785,0.785-4.894,2.372c-0.362,0.519-0.581,1.01-0.782,1.603c-0.047,0.139-0.086,0.278-0.117,0.421
	c-0.041,0.187-0.131,1.27-0.062,0.547c-0.11,1.136,0.101,2.228,0.76,3.179c1.749,2.528,6.039,3.88,8.779,2.494
	c0.435-0.22,0.78-0.571,1.001-0.976c-0.042,1.046-0.044,2.093-0.013,3.134c-0.929,0.09-1.88,0.348-2.605,0.473
	C426.983,188.187,424.406,186.887,422.237,185.49z M425.589,178.177c0.023,0.091,0.041,0.139,0.055,0.169
	c0,0.003-0.001,0.006-0.001,0.009C425.625,178.296,425.604,178.237,425.589,178.177z M486.849,151.496
	c2.935-0.851,6.142,0.542,7.669,3.135c1.487,2.526,1.678,5.742,0.537,8.424c-1.522,3.578-5.431,3.362-8.259,5.174
	c-2.09-2.262-4.352-4.367-6.85-6.227C481.712,157.947,481.902,152.929,486.849,151.496z"/>
<path d="M483.164,160.921c-0.005-0.02-0.008-0.035-0.014-0.06c0.02,0.124,0.044,0.246,0.073,0.368
	c0.194,0.361,0.358,0.813,0.666,1.085c0.229,0.203,0.567,0.169,0.812,0.001c-0.189,0.182-0.359,0.382-0.475,0.628
	c-0.292,0.621-0.079,1.183,0.344,1.596c0.21,0.463,0.622,0.833,1.151,0.89c0.119,0.013,0.237,0.024,0.356,0.036
	c-0.105-0.046-0.21-0.091-0.315-0.137c0.198,0.101,0.407,0.177,0.625,0.229c0.364,0.067,0.792,0.027,1.167,0.008
	c0.619-0.032,1.21-0.15,1.817-0.277c0.793-0.166,1.571-0.452,2.277-0.852c1.471-0.834,2.908-2.541,2.664-4.352
	c-0.323-2.396-2.729-3.979-4.963-4.355c-1.67-0.281-3.579,0.173-4.786,1.418c-0.701,0.724-1.224,1.545-1.375,2.561
	c-0.01,0.063-0.016,0.127-0.021,0.19c-0.006,0.067-0.011,0.134-0.017,0.201c-0.002,0.002-0.007,0.021-0.015,0.071
	C483.083,160.452,483.105,160.657,483.164,160.921z M487.084,159.912C486.796,159.817,486.934,159.859,487.084,159.912
	L487.084,159.912z M486.138,159.804C486.138,159.804,486.138,159.804,486.138,159.804
	C485.971,159.929,486.031,159.877,486.138,159.804z M486.529,159.768C486.542,159.769,486.542,159.769,486.529,159.768
	L486.529,159.768z M485.441,161.126c0.019-0.03,0.04-0.062,0.053-0.081c0.117-0.166,0.182-0.296,0.261-0.466
	c-0.318,0.686,0.196-0.359,0.125-0.208c0.028-0.072,0.049-0.147,0.073-0.221c0.007-0.013,0.014-0.027,0.027-0.054
	c0.017-0.033,0.035-0.065,0.052-0.097c0.046-0.067,0.095-0.133,0.145-0.196c0.012-0.011,0.024-0.021,0.035-0.031
	c0.011-0.001,0.023-0.003,0.034-0.003c0.008-0.001,0.019-0.001,0.028-0.001c0.031,0.004,0.063,0.005,0.095,0.01
	c0.22,0.033,0.442,0.073,0.659,0.126c0.055,0.014,0.108,0.031,0.163,0.047c0.005,0.002,0.012,0.004,0.017,0.006
	c0.22,0.09,0.432,0.199,0.639,0.316c0.192,0.11,0.383,0.223,0.567,0.345c0.036,0.023,0.07,0.05,0.105,0.074
	c-0.162,0.019-0.324,0.042-0.487,0.056c-0.122,0.012-0.237,0.048-0.355,0.073c0.059-0.001-0.045,0.051-0.282,0.082
	c-0.018,0.002-0.034,0.009-0.051,0.012c0.083-0.029,0.151-0.052,0.204-0.066c-0.097,0.025-0.194,0.051-0.289,0.085
	c-0.724,0.119-1.376,0.404-1.889,0.897c-0.238,0.135-0.46,0.29-0.656,0.475c0.078-0.056,0.146-0.123,0.198-0.203
	C485.113,161.787,485.261,161.452,485.441,161.126z"/>
<path d="M487.547,160.849c0.042-0.011,0.086-0.018,0.129-0.027C487.655,160.822,487.615,160.829,487.547,160.849z"/>
<path d="M470.934,220.794c-0.013-0.027-0.037-0.053-0.051-0.08c-1.789-4.254-3.548-8.529-5.213-12.832
	c-1.635-4.226-2.435-8.969-4.178-13.138c0.188-0.314,0.222-0.68-0.145-0.905c-0.109-0.067-0.223-0.122-0.334-0.184
	c-0.031-0.065-0.056-0.133-0.087-0.198c-0.191-0.394-0.538-0.415-0.857-0.266c-3.683-1.57-8.2-1.012-12.108-1.806
	c-0.279-0.108-0.603-0.171-1.053-0.25c-2.883-0.503-4.5,4.555-1.442,4.216c4.48-0.497,9.056,1.068,13.51,0.381
	c-1.547,9.072,3.832,19.141,6.439,27.573c-0.185,0.313-0.331,0.644-0.424,0.981c-0.337,1.232,0.321,2.071,1.458,2.387
	c0.108,0.03,0.218,0.039,0.328,0.05c0.144,0.194,0.379,0.349,0.744,0.429c2.353,0.522,4.92,0.755,7.371,0.543
	c-0.109,1.191-0.449,2.641,0.196,3.586c-0.204,0.391-0.458,0.762-0.826,1.089c-1.051,0.933-2.729,1.257-4.05,1.541
	c-1.595,0.342-3.258,0.399-4.884,0.41c-0.841,0.005-1.677-0.065-2.513-0.15c-0.613-0.062-1.477-0.511-1.314-0.182
	c-0.286-0.178-0.581-0.275-0.926-0.377c-2.004-0.594-4.707,2.152-3.879,4.133c1.539,3.683,11.587,1.502,14.43,0.6
	c2.457-0.781,4.692-2.155,6.229-4.244c0.189-0.256,0.371-0.559,0.538-0.887c1.313,0.493,3.116,0.125,4.37,0.004
	c2.779-0.268,5.55-0.942,8.121-2.025c2.75-1.159,9.755-6.494,5.743-9.871c-0.27-0.228-0.634-0.024-0.777,0.255
	c-0.718,1.409-1.13,3.028-2.507,3.949c-1.563,1.045-3.383,1.596-5.196,2.021c-1.57,0.368-3.228,0.481-4.834,0.541
	c-1.109,0.042-2.176-0.207-3.245-0.023c-0.002-0.003-0.003-0.007-0.005-0.011c-0.195-0.35-0.442-0.585-0.716-0.741
	c-0.134-0.408-0.274-0.813-0.432-1.21c1.495-1.198,2.57-2.791,3.864-4.191c0.498-0.539,0.485-1.065,0.219-1.435
	c0.257-0.191,0.503-0.395,0.731-0.615c0.469-0.454,0.724-1.299,0.432-1.79c0.084-0.253,0.141-0.512,0.134-0.78
	c-0.001-0.183-0.002-0.366-0.003-0.549c-0.001-0.129-0.024-0.256-0.057-0.379c-0.288-4.187-1.708-8.666-2.847-12.611
	c-1.233-4.272-2.811-9-5.552-12.657c0.211-0.17,0.418-0.344,0.641-0.496c1.06-0.724,1.988-1.559,2.908-2.45
	c2.047-1.984,4.231-4.43,5.418-7.04c0.237-0.52-0.269-0.794-0.706-0.567c-2.764,1.44-4.595,4.242-7.148,6.016
	c-1.566,1.088-4.282,1.328-4.702,3.583c-0.203,1.087,0.475,1.696,1.315,1.781c1.661,8.813,5.597,17.419,5.517,26.518
	c-0.995,0.25-1.984,0.522-2.959,0.785C474.333,219.567,472.535,220.271,470.934,220.794z"/>
<path d="M483.539,188.014c-0.661-0.357-1.182-0.139-1.838-0.128c-1.535,0.025-3.032,1.654-2.977,3.164
	c0.075,2.019,0.706,4.085,2.148,5.534c0.004,0.018,0.006,0.037,0.01,0.055c0.245,1.149,1.833,1.263,2.701,0.985
	c1.507-0.482,2.438-1.783,2.561-3.313c0.117-1.467-0.47-3.086-1.143-4.372C484.667,189.304,484.203,188.373,483.539,188.014z"/>
<path d="M456.669,199.239c-0.421-0.677-0.958-1.28-1.624-1.756c-0.476-0.341-1.086-0.19-1.6,0.166
	c-1.426,0.17-2.884,1.328-3.023,2.736c-0.271,2.735,0.557,5.792,3.781,6.09c1.813,0.168,3.531-1.276,3.563-3.127
	c0.006-0.327-0.015-0.653-0.049-0.979C457.883,201.263,457.442,200.139,456.669,199.239z"/>
<path d="M335.937,207.985c8.495-5.989,23.267-14.689,19.495-27.266c-2.048-6.828-7.907-11.486-14.493-13.685
	c-1.599-0.534-3.686-1.239-5.871-1.768c-3.242-7.205-12.568-8.329-19.646-7.599c-4.215,0.435-8.39,1.572-12.392,2.922
	c-2.135,0.72-4.123,1.799-6.136,2.793c-3.846,1.901-7.732,2.222-11.959,2.311c-0.727,0.015-1.461,1.264-0.526,1.537
	c10.998,3.205,26.01-6.613,37.123-4.072c-4.629-0.854-9.99,0.777-14.112,2.175c-3.691,1.252-7.262,2.828-10.959,4.059
	c-4.274,1.423-8.208,0.975-12.505,1.644c-0.504,0.079-1.221,0.731-0.78,1.267c3.639,4.414,12.652,1.33,17.17,0.106
	c7.697-2.085,14.175-5.577,22.107-2.577c0.148,0.056,0.301,0.093,0.456,0.12c-0.054,1.066,0.477,1.877,1.979,1.886
	c0.121,0.041,0.244,0.075,0.365,0.114c-3.046,7.556-13.178,9.016-20.483,8.167c-7.25-0.842-13.516-5.666-20.656-6.084
	c-0.934-0.054-2.582,0.974-1.997,2.128c2.185,4.305,7.082,5.91,11.441,7.289c5.438,1.721,10.935,2.613,16.641,2.219
	c6.088-0.421,18.226-5.529,17.845-12.987c3.792,0.828,7.702,1.179,11.434,2.843c3.943,1.758,7.683,5.484,8.511,9.836
	c0.765,4.021-2.258,6.917-5.008,9.29c-9.664,8.337-21.034,14.386-30.162,23.413c-7.61,7.526-16.005,20.438-11.33,31.629
	c2.015,4.822,7.157,9.048,12.02,10.69c1.49,0.503,3.505,0.676,5.421,0.389c-0.533,1.357-1.042,2.721-1.502,4.091
	c-5.54,16.516-3.942,34.211-4.057,51.363c-0.042,6.387,0.133,12.805,1.157,19.119c0.793,4.894,2.174,10.671,6.743,13.387
	c0.109,0.064,0.219,0.12,0.332,0.169c0.408,0.932,1.304,1.581,2.782,1.485c5.522-0.36,6.831-7.145,7.19-11.496
	c0.247-2.99-0.184-6.057-0.407-9.036c-0.299-3.986,0.187-7.989,0.668-11.941c0.657-5.391,0.113-14.842,4.218-19.083
	c2.198-2.271,5.248-3.293,8.568-3.684c-3.833,7.089-3.933,16.62-4.92,24.197c-1.217,9.342-2,23.275,7.738,28.639
	c3.234,1.782,8.431-0.778,9.617-4.109c1.385-3.889,0.244-7.723-0.053-11.705c-0.548-7.354-0.614-14.634,0.362-21.957
	c0.652-4.892,1.795-9.666,2.382-14.51c0.098,0.006,0.203,0.015,0.299,0.02c18.74,1.011,37.479,2.104,56.219,3.132
	c8.164,0.448,16.256,1.193,24.442,0.787c4.483-0.223,10.121,0.39,14.212-1.929c-0.813,3.551-0.982,7.396-1.221,10.734
	c-0.897,12.527-0.356,24.976,6.414,35.977c2.567,4.171,10.316,8.883,14.21,3.515c3.093-4.264,1.194-10.193,0.021-14.828
	c-1.909-7.545-2.868-15.408-2.494-23.19c0.207-4.303,1.073-8.828,3.779-12.284c4.053-5.177,10.9-5.381,16.75-5.449
	c0.416-0.005,1.169-0.755,0.708-1.15c-4.641-3.98-12.655-1.581-17.318,1.111c-5.516,3.185-8.035,9.097-9.141,15.088
	c-1.285,6.964-0.502,14.33,0.627,21.254c0.839,5.147,2.724,10.207,2.983,15.428c0.103,2.078,0.56,0.952-1.06,0.291
	c-1.534-0.625-2.554-1.762-3.569-3.015c-2.488-3.071-3.746-7.316-4.869-11.041c-1.2-3.979-1.437-7.832-1.54-11.969
	c-0.139-5.579,0.036-11.194,0.762-16.73c0.321-2.445,0.769-4.95,1.683-7.249c0.775-1.948,0.539-1.237,2.596-1.575
	c1.278-0.21,3.778-2.255,2.268-3.685c-3.522-3.333-7.411-0.24-9.454,3.158c-0.512,0.851-0.935,1.765-1.289,2.72
	c-6.191,1.105-14.137-0.3-20.291-0.752c-8.576-0.63-17.128-1.691-25.701-2.403c-18.06-1.499-36.148-2.758-54.238-3.84
	c-12.408-0.742-25.177,2.308-29.154,15.437c-2.031,6.703-2.371,14.669-2.887,21.622c-0.248,3.34-0.247,6.57,0.019,9.902
	c0.08,1.005,0.221,2.154,0.306,3.336c-0.987-2.446-1.317-5.432-1.617-7.532c-0.797-5.591-0.841-11.297-0.824-16.933
	c0.046-14.833-1.214-30.126,2.409-44.634c1.928-7.725,5.6-15.206,10.43-21.51c5.314-6.936,13.076-10.59,21.1-13.483
	c8.439-3.043,16.947-5.596,25.894-6.549c7.163-0.763,14.562-0.66,21.763-1.442c-0.232,0.362-0.444,0.72-0.617,1.071
	c-1.089,2.215-1.021,4.846-0.61,7.202c0.819,4.697,4.325,8.356,7.967,11.124c1.49,1.132,7.14,4.809,11.935,6.196
	c-0.069,0.105-0.141,0.209-0.204,0.317c-1.216,2.065-0.862,4.656,0.15,6.717c0.992,2.022,2.594,3.761,4.549,4.88
	c-0.839,1.565-1.136,3.439-0.604,5.201c1.317,4.36,4.95,9.194,9.047,11.315c3.917,2.028,15.333,3.814,21.828,1.125
	c1.741,6.527,14.959,8.42,20.347,8.218c6.864-0.258,15.883-4.04,19.452-10.34c3.526,3.7,9.891,4.605,16.167,3.969
	c0.002,0.071-0.006,0.145,0.012,0.213c2.935,11.165,2.642,24.126,2.609,35.602c-0.021,7.352-1.146,14.648-4.083,21.416
	c-1.46,3.364-8.431,9.05-7.165,1.457c0.948-5.681,5.198-10.432,6.387-16.16c1.255-6.045,0.58-13.11,0.028-19.199
	c-0.496-5.464-4.444-20.317-12.598-16.905c-1.398,0.585-4.123,4.474-1.007,4.7c4.82,0.351,7.204,8.48,7.674,12.424
	c0.913,7.668,1.838,17.039-1.282,24.264c-2.117,4.902-6.416,10.618-4.922,16.307c1.117,4.251,5.141,4.689,8.779,3.324
	c11.29-4.236,13.177-19.768,13.672-30.042c0.359-7.453-0.518-14.928-1.363-22.32c-0.55-4.814-0.891-11.321-3.907-15.471
	c4.903-0.853,9.468-2.549,12.222-4.476c6.343-4.437,7.357-10.58,7.15-17.882c-0.139-4.902-0.956-12.472-4.421-16.961
	c9.363-2.344,17.997-5.996,18.875-17.163c0.645-8.213-4.037-23.294-12.823-26.959c0.093-0.104,0.186-0.208,0.27-0.321
	c5.177-3.712,7.602-8.81,6.059-15.537c-1.224-5.335-5.97-11.285-11.567-12.83c1.122-0.75,2.121-1.654,3.035-3.182
	c1.656-2.767,2.408-5.996,1.464-9.169c-1.455-4.892-5.652-9.46-10.687-10.171c4.546-3.271,4.593-10.293-0.581-15.12
	c-7.124-6.646-18.657-6.524-28.358-5.262c0.953-1.767,1.502-3.718,1.382-5.861c-0.23-4.121-4.582-6.206-8.208-6.292
	c-11.771-0.281-16.365,8.632-22.192,16.801c-2.314-5.779-11.055-7.622-16.596-7.478c-7.309,0.189-9.233,5.535-10.496,11.287
	c-5.596-5.913-18.468-4.569-24.879-2.023c-4.75,1.886-8.505,5.253-10.781,9.814c-1.33,2.666-1.501,5.629-1.254,8.534
	c0.107,1.251,0.167,2.796,0.444,4.229c-3.58-0.277-7.553,2.053-10.378,4.083c-5.133,3.687-10.646,8.852-12.868,14.94
	c-5.623,15.405,6.708,36.093,20.635,42.654c3.178,1.497,7.996-4.06,4.442-5.864c-11.892-6.037-20.916-18.451-21.147-32.073
	c-0.152-8.954,10.953-20.938,20.458-20.851c2.047,2.635,5.637-1.298,5.802-3.414c0.003-0.04,0.006-0.08,0.009-0.12
	c0.018-0.228-0.045-0.439-0.136-0.641c-0.618-3.337-1.997-6.435-1.213-9.915c1.069-4.748,5.8-7.196,9.97-8.697
	c7.062-2.541,13.667-0.438,20.055,2.381c0.019,0.126,0.035,0.252,0.067,0.382c0.085,0.335,0.17,0.67,0.255,1.006
	c0.956,3.766,6.964-0.287,6.272-3.575c-0.384-1.826-0.258-3.839,0.117-5.65c0.55-2.656,4.297-2.411,6.348-2.44
	c5.663-0.081,9.421,2.774,12.861,6.733c0.055,0.176,0.178,0.313,0.345,0.404c0.071,0.083,0.143,0.164,0.213,0.249
	c0.71,0.848,2.055-0.331,2.028-1.165c-0.002-0.05-0.008-0.097-0.011-0.147c3.629-4.423,6.837-9.797,11.688-12.894
	c3.035-1.937,7.599-2.492,10.93-1.083c4.312,1.823,0.679,6.531-1.656,8.099c-1.846,1.24-3.468,5.686,0.299,5.325
	c7.48-0.717,14.722-1.945,22.166-0.202c2.721,0.637,5.168,1.616,7.521,3.125c1.895,1.214,5.551,5.858,1.8,6.178
	c-3.613-0.595-6.611,6.284-1.768,6.346c0.338,0.004,0.666-0.004,0.987-0.022c0.037,0.146,0.136,0.273,0.345,0.352
	c4.299,1.612,8.11,2.37,10.49,6.754c1.275,2.349,1.538,5.153,0.523,7.624c-0.876,2.134-2.503,2.359-4.34,3.047
	c-4.042,1.512-2.904,7.523,1.05,5.064c0.004-0.003,0.008-0.005,0.012-0.007c3.771,2.69,7.091,5.004,9.245,9.43
	c2.14,4.398,2.36,10.877-3.233,12.532c-3.29,0.974-4.163,6.168-0.63,6.039c7.126,5.054,10.181,15.185,10.79,23.49
	c0.295,4.024-0.315,8.196-3.984,10.416c-3.674,2.224-8.624,2.645-12.761,3.371c-1.908,0.335-3.538,1.575-4.015,3.523
	c-0.043,0.178-0.087,0.356-0.13,0.534c-0.517,2.106,1.45,3.317,3.295,2.792c2.554,3.938,3.351,8.847,3.67,13.545
	c0.371,5.457,0.714,11.767-3.901,15.475c-6.063,4.87-21.954,6.265-25.313-2.384c0.379-1.066,0.339-2.359-0.792-2.966
	c-0.258-0.138-0.516-0.277-0.773-0.415c-2.425-1.302-5.57,1.476-5.484,3.943c0.029,0.841,0.141,1.615,0.302,2.348
	c-0.828,2.56-1.932,4.895-4.468,6.619c-3.165,2.15-7.565,2.886-11.325,3.025c-3.411,0.127-7.061-0.45-10.25-1.66
	c-4.014-1.522-4.107-3.354-4.452-7.085c-0.335-3.63-4.758-1.453-5.821,0.461c-4.86,3.448-12.175,1.755-17.523-0.151
	c-2.49-0.887-4.076-2.747-5.674-4.785c-0.898-1.145-1.594-2.383-2.197-3.701c-0.182-0.401-0.306-0.819-0.402-1.246
	c0.171-0.105,0.388-0.235,0.666-0.394c0.68-0.388,1.363-1.214,1.757-2.104c0.077-0.042,0.152-0.085,0.231-0.128
	c0.695-0.373,1.106-1.898,0.015-1.861c-0.18-0.581-0.655-1.038-1.57-1.204c-0.934-0.169-1.829-0.097-2.657,0.151
	c-1.278-0.636-2.357-1.783-3.008-3.034c-0.407-0.782-0.721-1.908-0.767-2.73c0.178-0.003,0.339-0.013,0.442-0.032
	c1.531-0.292,2.854-1.092,3.542-2.553c0.474-1.007,0.564-2.855-0.748-3.352c-0.279-0.105-0.563-0.177-0.847-0.233
	c-0.096-0.107-0.218-0.196-0.392-0.235c-2.724-0.603-4.845-0.659-7.477-2.062c-3.053-1.627-5.825-3.867-8.335-6.229
	c-3.423-3.22-6.431-8.628-3.402-13.042c1.318-1.92,2.521-3.51,3.262-5.378c0.579-0.499,0.957-1.238,1.007-2.001
	c0.073-1.103,0.019-1.523-0.405-2.521c-1.62-3.812-6.523,0.199-6.663,2.947c-0.031,0.611-0.209,1.22-0.475,1.824
	c-8.19-0.828-16.904-1.01-24.961-0.437c-9.425,0.671-18.499,3.582-27.391,6.613c-8.281,2.823-16.172,6.844-22.31,13.179
	c-4.075,4.207-7.311,9.19-9.881,14.488c-4.189-0.173-7.512-2.693-10.472-6.144c-4.005-4.67-3.246-11.158-0.957-16.463
	C314.544,221.887,326.595,214.571,335.937,207.985z M326.149,165.156c-0.006,0.003-0.014,0.005-0.02,0.007
	c-0.025-0.02-0.042-0.042-0.068-0.063C326.091,165.12,326.121,165.136,326.149,165.156z M356.996,295.488
	c-7.33,12.937-7.326,29.376-6.779,43.948c-0.482-0.598-0.925-1.225-1.309-1.892c-1.208-2.075-1.75-4.555-2.099-6.894
	c-0.71-4.761-0.012-9.858,0.803-14.562c1.106-6.384,0.711-14.188,4.287-19.846c0.542-0.276,1.02-0.64,1.403-1.077
	C354.573,295.266,355.815,295.382,356.996,295.488z M431.168,266.058C431.069,266.149,431.026,266.161,431.168,266.058
	L431.168,266.058z"/>
<path d="M462.806,414.732c10.59,21.566-9.15,39.413-13.618,59.661c-1.043,4.729,6.126,3.136,6.863-0.556
	c3.762-18.852,25.494-42.091,7.874-59.903C463.491,413.496,462.537,414.185,462.806,414.732z"/>
<path d="M100.363,119.707c4.083,7.569,12.278,11.382,20.54,12.14c9.054,0.831,17.846-2.14,24.913-7.734
	c7.779-6.159,10.397-16.189,11.311-25.596c0.471-4.851,0.576-9.732,0.887-14.595c0.056-0.881,0.128-1.755,0.207-2.624
	c2.954,1.481,8.748-0.409,10.911-1.593c4.644-2.543,8.614-7.638,9.409-12.921c0.809-5.38-2.633-9.284-7.71-10.485
	c-4.942-1.17-10.454,1.485-13.716,5.428c-3.419-7.546-12.592-14.441-20.476-12.717c-2.841,0.621-4.851,5.274-1.368,6.385
	c7.463,2.382,14.399,7.819,15.587,16.009c0.646,4.448-0.555,9.023-0.824,13.458c-0.255,4.196-0.44,8.396-0.695,12.592
	c-0.424,7-1.407,14.18-5.875,19.832c-4.409,5.579-12.216,7.419-18.958,7.432c-6.317,0.013-12.635-2.71-16.797-7.431
	c-6.168-6.997-4.928-18.123-3.157-26.491c1.766-8.346,5.309-16.732,9.916-23.919c3.84-5.99,9.557-13.42,17.446-12.791
	c0.749,0.06,1.922-1.061,1.005-1.651c-3.309-2.13-6.888-1.288-10.149,0.644c0.417-5.018-3.007-11.312-7.667-12.639
	c-4.543-1.293-9.085,0.682-11.697,4.528c-2.504,3.688-2.9,8.567-1.143,12.641c1.445,3.348,5.333,6.411,9.117,6.522
	c-4.909,6.621-8.517,14.576-11.009,22.192C96.926,96.836,94.857,109.5,100.363,119.707z M168.901,61.223
	c3.084,1.448,4.277,4.042,3.43,7.275c-0.684,2.608-2.884,4.827-5.133,6.155c-2.886,1.705-5.554-0.171-8.453,0.781
	c0.059-0.826,0.104-1.651,0.13-2.477c0.043,0.076,0.098,0.147,0.175,0.209c1.239,1.008,3.136,0.45,4.477-0.119
	c1.253-0.532,2.314-1.251,3.197-2.296c1.107-1.311,1.241-3.236,0.33-4.667c-1.779-2.795-6.589-1.612-6.528,1.817
	c0.011,0.606,0.786,0.323,1.01,0.049c0.148-0.182,0.305-0.349,0.475-0.511c0.083-0.079,0.173-0.148,0.264-0.218
	c0.268-0.205,0.018-0.02,0.167-0.111c0.021-0.013,0.065-0.033,0.107-0.051c0.061-0.023,0.123-0.043,0.185-0.063
	c0.041-0.008,0.091-0.019,0.12-0.021c0.031-0.003,0.051-0.005,0.07-0.007c0.006,0.003,0.018,0.006,0.048,0.01
	c0.031,0.004,0.098,0.022,0.138,0.032c0.07,0.032,0.14,0.063,0.207,0.1c0.152,0.084,0.3,0.184,0.443,0.283
	c-0.048-0.019,0.268,0.253,0.338,0.336c0.058,0.068,0.109,0.142,0.16,0.215c0.008,0.021,0.021,0.05,0.046,0.103
	c0.034,0.072,0.109,0.336,0.131,0.385c0.005,0.046,0.013,0.092,0.016,0.138c0.002,0.022,0.003,0.031,0.005,0.047
	c-0.003,0.009-0.005,0.013-0.009,0.029c0,0.001,0,0.001,0,0.002c-0.012,0.024-0.025,0.05-0.04,0.077
	c-0.006,0.008-0.012,0.016-0.018,0.023c-0.057,0.062-0.126,0.136-0.167,0.173c-0.018,0.016-0.043,0.037-0.07,0.058
	c-0.129,0.082-0.261,0.16-0.396,0.232c-0.144,0.077-0.295,0.142-0.441,0.214c0.475-0.232-0.25,0.091-0.343,0.125
	c-1.178,0.426-2.54,0.663-3.478,1.552c-0.202,0.191-0.451,0.533-0.598,0.897c0.023-2.429-0.161-4.867-0.761-7.356
	c-0.045-0.189-0.101-0.38-0.154-0.57C161.059,61.478,165.108,59.443,168.901,61.223z M109.592,56.132
	c0.28,0.194,0.58,0.36,0.889,0.469c0.587,0.208,1.173,0.387,1.796,0.441c0.528,0.046,1.171,0.143,1.695-0.027
	c0.071-0.006,0.142-0.013,0.212-0.02c0.617-0.063,1.077-0.351,1.492-0.734c0.395-0.228,0.752-0.518,0.952-0.943
	c0.143-0.304,0.129-0.606,0.011-0.87c0.087-0.051,0.167-0.113,0.221-0.19c0.854-1.222,0.939-3.043-0.064-4.246
	c-0.762-0.913-2.079-1.204-3.206-0.997c-1.349,0.248-2.645,0.839-3.621,1.827c-1.038,1.05-1.948,2.533-1.399,4.056
	c0.02,0.054,0.058,0.099,0.082,0.151c-0.093-0.122-0.192-0.238-0.282-0.364c-1.398-1.957-1.541-4.914-0.651-7.085
	c1.013-2.474,3.445-2.541,5.757-2.06c5.019,1.042,4.599,5.967,6.644,9.373c-1.711,1.35-3.268,2.876-4.566,4.249
	c-1.048-1.004-2.66-1.025-3.999-1.635C110.792,57.18,110.159,56.694,109.592,56.132z M113.172,52.488
	c0.137-0.051,0.275-0.1,0.417-0.136c0.002,0,0.003,0,0.005-0.001c0.031-0.006,0.061-0.012,0.092-0.019
	c0.011-0.001,0.032-0.003,0.07-0.009c0.053-0.008,0.107-0.013,0.161-0.018c0.039-0.003,0.078-0.001,0.117-0.003
	c0.069,0.006,0.155,0.014,0.208,0.024c0.026,0.005,0.051,0.012,0.077,0.019c0.071,0.031,0.142,0.063,0.209,0.101
	c0.034,0.019,0.087,0.057,0.133,0.091c0.07,0.062,0.14,0.124,0.205,0.19c0.098,0.101,0.184,0.213,0.265,0.329
	c0.009,0.013,0.012,0.017,0.019,0.027c0.003,0.005,0.003,0.007,0.008,0.015c0.039,0.07,0.055,0.135,0.075,0.198
	c-0.127-0.033-0.363-0.082-0.471-0.096c-0.212-0.028-0.427-0.043-0.64-0.072c-0.387-0.053-0.772-0.105-1.151-0.199
	c-0.042-0.011-0.083-0.023-0.125-0.035c-0.077-0.032-0.154-0.064-0.229-0.102c0.064-0.041,0.128-0.083,0.194-0.121
	C112.89,52.626,113.048,52.548,113.172,52.488z M115.077,53.299c0.074,0.011,0.127,0.018,0.165,0.022c0,0,0,0.001,0,0.001
	C115.187,53.315,115.132,53.308,115.077,53.299z"/>
<path d="M128.125,102.522c-1.068-0.317-2.146-0.605-3.223-0.895c-1.261-0.339-2.534-0.69-3.819-0.956
	c0.092-0.234,0.147-0.479,0.141-0.73c-0.19-7.308,3.005-14.256,4.482-21.297c0.704-0.373,1.249-1.092,1.131-1.855
	c-0.25-1.617-2.263-1.539-3.354-2.381c-1.06-0.819-2.067-1.639-3.056-2.547c-0.99-0.909-1.863-1.838-3.113-2.373
	c-0.376-0.161-0.92,0.261-0.771,0.676c0.78,2.162,2.508,4.117,4.061,5.776c-0.307-0.203-0.71-0.295-1.082-0.302
	c0.63,0.011,0.2-0.018,0.042-0.047c-0.362-0.067-0.736-0.032-1.085,0.08c-1.062,0.339-1.69,1.282-2.203,2.206
	c-0.717,1.293-1.316,2.951-1.19,4.45c0.078,0.924,0.828,1.471,1.732,1.397c0.887-0.072,1.773-0.655,2.255-1.44
	c1.336-1.492,1.963-3.325,2.037-5.365c0.01-0.265-0.064-0.479-0.184-0.656c0.504,0.518,1.031,1.016,1.601,1.459
	c0.331,0.258,0.607,0.635,0.973,0.845c0.108,0.062,0.222,0.134,0.325,0.198c-4.123,6.207-6.642,15.586-6.825,22.496
	c-0.122,0.285-0.12,0.599,0.125,0.899c0.264,0.325,0.586,0.599,0.937,0.845c-0.209,0.368-0.245,0.786,0.062,1.121
	c1.046,1.145,1.908,2.398,3.134,3.36c-0.023,0.197,0.013,0.38,0.135,0.526c-0.092,0.261-0.185,0.522-0.269,0.786
	c-0.634-0.023-1.293,0.109-1.921,0.114c-1.623,0.013-3.26-0.261-4.839-0.608c-1.529-0.335-2.919-0.968-4.271-1.742
	c-1.353-0.774-1.66-2.154-2.562-3.295c-0.155-0.196-0.461-0.027-0.577,0.12c-4.844,6.173,9.175,11.827,14.347,9.295
	c0.682,2.181,3.109,4.02,5.21,4.709c3.062,1.004,10.752,2.341,12.441-1.41c0.725-1.608-0.473-2.859-2.118-2.413
	c-0.213,0.058-0.409,0.139-0.598,0.234c-2.438,0.365-4.925,0.329-7.344-0.166c-1.415-0.29-2.874-0.768-3.999-1.715
	c-0.418-0.353-0.66-0.782-0.856-1.231c0.059-0.092,0.121-0.181,0.168-0.282c0.272-0.579,0.167-1.224,0.081-1.855
	c1.829,0.064,3.682-0.159,5.451-0.545c0.303-0.066,0.571-0.268,0.777-0.529c0.856-0.299,1.702-0.94,1.816-1.889
	c0.031-0.257,0.073-0.508,0.031-0.765c-0.071-0.431-0.228-0.742-0.456-0.967c1.989-6.465,6.378-14.571,5.402-21.66
	c3.192,0.395,6.616-0.864,9.789-0.48c2.417,0.293,3.539-3.785,1.168-3.415c-0.492,0.077-0.861,0.144-1.209,0.263
	c-3.376,0.688-6.95,0.424-10.23,1.518c-0.27-0.37-1.006,0.031-1.133,0.375c-0.009,0.025-0.017,0.051-0.026,0.077
	c-0.04,0.018-0.08,0.032-0.119,0.051c-0.312,0.146-0.713,0.854-0.272,1.084c-1.056,3.216-1.717,6.556-2.833,9.767
	C131.143,95.178,129.611,98.849,128.125,102.522z M123.76,78.557c0.044,0.04,0.093,0.071,0.14,0.104
	c-0.003,0.005-0.007,0.011-0.011,0.016C123.847,78.637,123.814,78.606,123.76,78.557z"/>
<path d="M139.828,90.96c2.999-0.308,4.691-3.05,4.425-5.891c-0.107-1.153-1.017-1.455-1.93-1.312
	c-0.392-0.411-1.209-0.345-1.72,0.123c-0.805,0.738-1.402,1.643-1.794,2.632c-0.139,0.235-0.279,0.47-0.391,0.722
	c-0.188,0.425-0.293,0.978-0.125,1.433c-0.034,0.336-0.056,0.675-0.05,1.015C138.258,90.52,139.044,91.041,139.828,90.96z
	 M142.748,87.488C142.748,87.488,142.748,87.488,142.748,87.488C142.889,87.378,142.895,87.374,142.748,87.488z"/>
<path d="M250.019,130.529c-4.909-9.896-12.981-17.359-23.991-21.478c-7.102-2.656-14.5-4.887-22.045-5.728
	c-7.273-0.811-15.021-0.416-22.399,0.24c-0.672-1-1.26-2.042-1.346-3.375c-0.215-3.357-4.286-1.167-5.235,0.424
	c-0.418,0.703-0.6,1.267-0.5,2.085c0.038,0.304,0.184,0.605,0.414,0.809c0.311,1.379,0.957,2.532,1.865,3.807
	c2.947,4.137,2.649,8.065-1.132,11.721c-3.757,3.632-7.668,5.843-12.781,6.359c-0.457,0.046-1.035,0.488-1.05,0.996
	c-1.4,1.238-2.309,3.636,0.041,4.182c0.625,0.145,1.321-0.005,1.677,0.08c-0.168-0.04,0.223,0.268,0.193,0.213
	c0.335,0.62,0.255,1.509-0.061,2.327c-0.345,0.897-0.962,1.693-1.772,2.214c-0.019,0.013-0.043,0.024-0.063,0.036
	c-0.456-0.105-0.968-0.144-1.545-0.089c-0.656,0.061-1.38,0.46-1.955,1.011c-0.095-0.003-0.193-0.004-0.279-0.016
	c-0.716-0.093-1.826,1.046-0.955,1.569c0.081,0.048,0.154,0.096,0.227,0.144c-0.123,0.662,0.079,1.318,0.828,1.802
	c2.146,1.388,1.271,2.563-0.091,4.595c-1.272,1.897-2.598,3.189-4.74,3.928c-4.907,1.694-10.055,2.268-14.35-0.393
	c-0.095-0.23-0.196-0.462-0.319-0.699c-1.348-2.604-4.816-0.008-4.866,2.152c-0.079,3.434-1.298,4.098-4.604,5.009
	c-2.348,0.647-5.02,0.81-7.438,0.586c-3.152-0.291-6.291-1.231-8.966-2.922c-2.353-1.486-3.298-3.834-4.079-6.279
	c0.209-0.755,0.35-1.56,0.404-2.424c0.126-1.993-2.34-1.799-3.484-1.271c-0.234,0.107-0.467,0.215-0.701,0.323
	c-1.343,0.62-1.993,2.303-1.49,3.387c-2.686,6.708-15.147,3.689-19.812,0.736c-4.065-2.574-4.15-7.179-4.177-11.506
	c-0.025-4.065,0.406-8.827,2.627-12.404c1.872-0.137,3.486-2.128,3.058-4.034c-0.036-0.158-0.071-0.316-0.107-0.475
	c-0.134-0.595-0.84-1.018-1.388-1.115c-5.992-1.053-13.978-1.7-15.333-8.924c-1.402-7.478,2.42-18.96,9.29-22.659
	c0.184-0.099,0.331-0.299,0.4-0.506c1.18-1.311,1.529-3.322-0.483-3.894c-4.735-1.343-5.601-6.199-4.112-10.315
	c1.313-3.632,4.096-5.787,7.198-7.685c1.155,0.299,2.292,0.113,3.325-1.093c0.63-0.736,1.032-2.633-0.21-3.079
	c-3.375-1.21-5.937-2.917-5.503-7.064c0.527-5.04,4.953-6.26,8.991-7.473c0.119-0.036,0.262-0.139,0.394-0.272
	c2.812,0.125,4.973-5.143,1.172-5.184c-4.702-0.05-2.519-4.375-0.017-6.029c1.528-1.01,3.392-1.471,5.144-1.906
	c5.803-1.441,11.689-0.327,17.521,0.25c2.081,0.206,5.162-2.864,2.73-4.486c-1.874-1.25-4.067-3.134-3.839-5.673
	c0.319-3.548,8.587-0.579,10.017,0.184c4.154,2.217,7.111,7.312,10.083,10.946c-0.007,0.089-0.029,0.172-0.033,0.262
	c-0.034,0.836,1.03,0.583,1.453,0.191c0.298-0.188,0.543-0.489,0.617-0.812c2.894-3.819,6.55-5.446,11.517-5.07
	c4.54,0.344,4.941,4.664,4.24,8.351c-0.664,3.494,3.943,2.399,5.052,0.032c5.339-2.848,11.084-3.717,16.976-1.483
	c3.334,1.265,6.039,3.531,7.548,6.78c1.391,2.994,0.147,6.142-0.484,9.155c-0.208,0.491-0.279,1.034-0.133,1.58
	c0.024,0.092,0.049,0.185,0.074,0.276c0.397,1.488,1.64,1.405,2.795,0.765c7.43-1.253,16.872,8.706,18.214,15.468
	c2.242,11.301-6.411,23.578-16.038,28.485c-3.081,1.57-1.892,6.078,1.653,4.324c11.437-5.657,21.534-21.484,18.238-34.514
	c-1.613-6.378-12.07-18.162-19.875-16.042c0.012-0.035,0.031-0.073,0.041-0.106c2.343-8.855-0.793-16.765-10.016-19.487
	c-5.436-1.605-13.938-1.716-18.659,2.386c-0.099-0.327-0.274-0.625-0.538-0.819c-0.389-2.196-0.659-4.259-2.126-6.175
	c-1.559-2.037-4.499-2.29-6.83-2.352c-4.293-0.115-10.7,1.989-12.92,6.191c-4.808-6.967-8.837-15.455-19.029-13.651
	c-5.804,1.027-6.708,5.538-5.167,9.663c-7.511-0.796-15.743-0.456-21.521,4.291c-4.44,3.647-6.426,10.183-2.561,12.9
	c-4.216,1.33-7.555,6.308-8.293,10.31c-0.521,2.826,0.701,6.928,3.208,8.58c0.01,0.006,0.02,0.013,0.029,0.019
	c-3.732,1.69-6.68,5.853-8.14,9.28c-2.35,5.518-0.813,10.437,3.47,13.872c0.09,0.24,0.243,0.456,0.473,0.638
	c-6.238,3.598-9.451,14.445-9.813,20.488c-0.262,4.355,0.486,8.511,3.98,11.417c1.557,1.295,3.397,2.072,5.288,2.741
	c0.839,0.297,5.049,1.32,6.449,1.48c-2.714,3.539-3.508,9.224-3.863,13.081c-0.575,6.258-0.178,11.723,4.98,15.811
	c2.685,2.128,6.675,3.503,10.823,3.902c-1.901,2.98-2.424,6.861-2.906,10.261c-0.796,5.602-1.324,11.298-1.529,16.952
	c-0.33,9.124,0.281,23.364,9.497,28.288c2.346,1.253,5.841,1.169,7.54-1.152c2.49-3.402,1.238-7.46-0.316-11.007
	c-1.141-2.604-2.536-5.015-3.419-7.732c-1.058-3.257-0.591-7.492-0.542-10.87c0.047-3.245,0.333-15.206,5.418-15.628
	c1.373-0.114,3.84-2.836,1.779-3.759c-6.093-2.73-9.93,7.484-11.025,11.685c-1.189,4.559-0.907,9.798-0.806,14.453
	c0.119,5.488,1.805,9.497,4.156,14.381c0.614,1.276,3.106,6.696,0.299,5.557c-1.711-0.694-3.171-2.179-4.055-3.77
	c-3.101-5.585-3.833-12.291-4.05-18.557c-0.184-5.28,0.329-10.551,0.501-15.823c0.144-4.398,0.363-8.892,1.487-13.163
	c4.945,0.088,9.847-1.254,12.806-4.416c2.011,6.034,9.203,9.183,16.066,9.474c4.224,0.179,13.914-1.893,16.477-6.694
	c4.974,2.249,14.144,0.523,17.426-1.246c3.391-1.827,6.042-5.448,7.658-8.859c0.81-1.708,0.959-3.783,0.29-5.311
	c1.271-0.951,2.269-2.212,3.104-3.593c1.009-1.669,1.398-3.702,0.921-5.592c-0.036-0.143-0.107-0.267-0.162-0.399
	c3.528-1.386,7.419-4.052,8.478-4.812c3.044-2.188,6.041-5.385,7.021-9.099c0.623-2.36,0.699-4.423,0.024-6.727
	c4.81,0.4,9.692,0.417,14.462,0.932c6.97,0.751,13.409,2.561,20.034,4.78c6.674,2.235,13.254,5.094,18.265,10.173
	c4.699,4.764,7.674,10.979,9.93,17.191c4.535,12.488,3.063,26.067,3.235,39.088c0.06,4.479,0.052,8.972-0.341,13.437
	c-0.166,1.882-0.318,6.287-1.501,8.8c-0.065-1.399-0.12-2.999-0.116-3.359c0.025-2.308,0.352-4.604,0.412-6.912
	c0.174-6.614-0.989-13.795-2.193-20.292c-2.027-10.933-12.184-13.171-21.947-12.769c-14.319,0.59-28.667,1.889-42.95,3.049
	c-7.595,0.617-15.167,1.445-22.758,2.107c-5.702,0.498-12.408,1.383-18.117,0.551c-1.311-4.578-3.679-7.933-7.986-4.887
	c-0.908,0.642-2.086,2.694-0.251,3.072c6.485,1.335,5.296,15.17,5.311,20.324c0.01,3.221,0.062,6.585-0.678,9.738
	c-0.698,2.976-1.675,5.85-2.968,8.619c-0.761,1.629-5.169,7.201-5.426,2.715c-0.229-3.992,1.654-8.445,2.348-12.36
	c0.983-5.551,1.434-11.321,0.777-16.931c-0.525-4.487-2.192-9.568-6.221-12.109c-4.425-2.792-10.519-4.162-15.236-1.281
	c-0.375,0.229-0.604,0.993,0.054,0.965c9.361-0.391,15.604,4.705,16.814,13.896c0.891,6.763-0.122,13.901-1.674,20.497
	c-0.72,3.06-3.181,9.602-0.489,12.346c3.381,3.446,8.639-0.524,10.98-3.297c6.575-7.784,6.626-19.695,6.267-29.257
	c-0.061-1.619-0.25-5.482-0.962-9.228c2.376,1.174,5.437,1.013,8.026,1.042c7.257,0.083,14.341-0.015,21.597-0.499
	c15.191-1.013,30.41-1.528,45.601-2.594c0.741-0.052,1.487-0.112,2.235-0.171c0.435,4.509,1.425,8.915,2.04,13.438
	c0.773,5.699,0.761,11.431,0.425,17.162c-0.202,3.454-1.408,7.181-0.348,10.578c1.083,3.472,5.334,2.756,7.662,1.54
	c7.969-4.163,7.595-16.517,6.744-23.863c-0.65-5.613-0.791-12.672-3.058-18.34c1.223,0.351,2.421,0.827,3.583,1.473
	c5.273,2.931,4.866,10.745,5.517,15.86c0.773,6.084,0.793,11.766,0.515,17.853c-0.115,2.522,0.046,9.397,3.768,9.632
	c1.304,0.082,2.87-0.734,3.821-1.849c7.355-4.967,7.062-16.792,7.216-24.632c0.274-13.851,1.111-28.376-2.079-41.917
	c-0.627-2.662-1.442-5.2-2.417-7.622c7.526-2.468,11.911-10.741,13.401-18.67c2.342-12.458-0.386-25.122,1.098-37.602
	c2.141-18.014,15.578-28.084,33.065-29.102c8.238-0.479,14.388,2.785,20.091,8.554c2.156,2.181,4.075,4.679,5.503,7.395
	c0.422,0.804,0.808,1.681,1.043,2.577c-0.225,0.031-0.448,0.086-0.667,0.174c-0.052-0.069-0.092-0.146-0.146-0.214
	c-0.619-0.792-1.66-0.486-2.413,0.14c-18.502-1.896-21.273,24.102-24.439,37.469c-0.55,2.319,1.57,3.283,3.493,2.818
	c8.933-2.161,16.803-7.421,21.618-15.327c3.035-4.982,5.457-12.528,4.363-18.908c3.736-1.168,6.222-4.483,5.124-9.014
	c-1.624-6.699-7.309-12.237-12.521-16.345c-13.618-10.735-35.093-5.513-47.324,5.03c-12.745,10.987-13.208,27.295-12.563,42.76
	c0.316,7.592,0.759,15.316-0.811,22.803C258.142,124.739,254.924,128.229,250.019,130.529z M228.25,198.185
	c-0.149,0.641-2.402,6.09-2.325,2.234c0.228-11.448,1.089-25.702-5.248-35.981c0.743-0.05,1.486-0.091,2.229-0.118
	c0.104,0.567,0.438,1.016,1.134,1.162c1.284,0.269,2.405,6.048,2.611,7.051c0.618,2.994,0.862,6.069,1.25,9.099
	c0.454,3.542,0.984,7.021,1.088,10.601C229.049,194.258,228.708,196.222,228.25,198.185z M305.517,99.874
	c0.917-5.366,1.617-10.765,3.164-16.009c2.091-7.09,6.178-10.762,12.529-12.277c-0.62,6.005-0.313,11.737-3.149,17.519
	C315.482,94.362,310.77,97.76,305.517,99.874z"/>
<path d="M335.804,73.441c-0.867,7.232-1.515,13.449-5.519,19.781c-3.98,6.296-10.093,9.69-15.425,14.555
	c-0.685,0.625-0.508,1.807,0.589,1.514c12.84-3.428,26.578-22.919,21.532-36.23C336.757,72.469,335.858,72.985,335.804,73.441z"/>
</svg>
