<?xml version="1.0" encoding="utf-8"?>
<!-- Generator: Adobe Illustrator 17.0.0, SVG Export Plug-In . SVG Version: 6.00 Build 0)  -->
<!DOCTYPE svg PUBLIC "-//W3C//DTD SVG 1.0//EN" "http://www.w3.org/TR/2001/REC-SVG-20010904/DTD/svg10.dtd">
<svg version="1.0" id="Layer_1" xmlns="http://www.w3.org/2000/svg" xmlns:xlink="http://www.w3.org/1999/xlink" x="0px" y="0px"
	 width="566.93px" height="566.93px" viewBox="0 0 566.93 566.93" enable-background="new 0 0 566.93 566.93" xml:space="preserve">
<path fill="#010101" d="M17.351,177.468c7.395,11.789,14.829,23.271,20.688,35.938c5.942,12.848,10.971,26.059,16.112,39.237
	c10.368,26.569,21.605,52.721,36.455,77.139c13.14,21.607,29.173,41.488,50.479,55.422c19.607,12.823,42.44,20.765,65.241,25.619
	c25.2,5.365,53.25,7.568,78.804,2.46c13.726,3.514,29.158,3.013,43.254,3.084c15.178,0.075,30.716-1.37,45.18-6.188
	c23.961-7.981,45.467-22.266,63.399-39.901c17.923-17.628,32.212-38.468,44.334-60.4c12.075-21.849,18.631-46.657,26.969-70.049
	c8.485-23.806,18.698-48.04,36.997-66.067c3.903-3.845,4.822-11.293-2.428-11.277c-6.389,0.014-12.106,1.674-17.043,5.893
	c-1.821,1.556-2.408,3.982-1.803,5.732c-0.522,0.197-1.019,0.43-1.485,0.692c-1.295,0.152-2.611,0.151-3.912,0.123
	c1.08,0.012-1.589-0.144-1.599-0.145c-0.986-0.09-1.969-0.219-2.95-0.345c-2.499-0.321-4.981-0.772-7.456-1.243
	c-9.307-1.772-18.472-4.277-27.604-6.776c-24.598-6.732-50.376-10.24-75.726-12.735c-14.118-1.39-28.528-2.303-42.694-1.125
	c-12.678,1.055-24.604,4.773-36.117,10.045c-12.343,5.651-23.258,13.648-36.429,17.48c-13.499,3.928-26.493,0.301-39.612-3.222
	c-34.718-9.321-69.32-18.104-105.544-13.497c-18.667,2.375-36.742,8.459-55.082,12.51c-9.064,2.002-18.269,3.391-27.513,4.215
	c-9.598,0.854-19.179,0.052-28.776,0.279c-0.398,0.009-0.835,0.175-1.258,0.433c-2.831-2.695-5.929-5.102-9.388-7.077
	C18.777,172.543,16.151,175.555,17.351,177.468z M446.338,222.303c-1.252,6.835-2.732,13.568-4.793,20.209
	c-1.468,4.73-3.313,9.314-5.189,13.887c-10.512,7.835-21.626,14.856-33.233,21.062c-20.845,11.146-43.259,19.107-66.229,24.563
	c-11.816,2.807-23.882,4.743-35.921,6.3c-4.52,0.585-9.201,0.845-13.777,1.435c-0.403-0.494-0.886-0.96-1.477-1.384
	c-3.538-2.535-8.167-2.71-11.976-0.776c-23.263-0.061-46.486-0.604-69.34-5.475c-22.431-4.779-43.838-13.733-63.621-25.243
	c-8.876-5.164-17.324-10.926-25.461-17.101c0.831-2.312,0.937-4.9-0.859-6.77c-7.072-7.357-6.583-20.458-6.766-30.354
	c16.049,3.297,32.39,5.742,48.496,8.09c31.354,4.571,63.196,5.144,94.824,5.724c32.67,0.598,64.943,1.265,97.505-2.18
	c19.509-2.063,38.91-5.065,58.249-8.335c13.415-2.269,26.794-4.286,40.09-6.946C446.695,220.122,446.535,221.229,446.338,222.303z
	 M62.237,211.325c-0.931-0.961-1.862-1.921-2.796-2.88c0.427,0.194,0.853,0.386,1.276,0.575c0.493,0.221,0.995,0.422,1.492,0.636
	C62.205,210.207,62.212,210.763,62.237,211.325z M39.363,189.285c-0.207-0.234-0.407-0.473-0.609-0.711
	c0.329,0.076,0.661,0.142,0.992,0.212C39.609,188.944,39.481,189.111,39.363,189.285z M472.422,299.581
	c-20.143,43.54-55.98,83.678-102.507,98.687c-13.405,4.323-28.332,4.69-42.299,4.839c-10.809,0.115-21.856-0.62-32.573,0.919
	c0.117-2.718-1.348-4.91-5.243-4.437c-22.652,2.746-44.6,3.182-67.213-0.46c-23.202-3.736-45.926-11.068-66.324-22.833
	c-21.837-12.596-37.451-31.687-51.03-52.605c-15.536-23.932-27.164-50.189-38.196-76.423c-3.94-9.367-7.919-18.756-12.282-27.953
	c5.539,6.527,10.937,13.195,16.79,19.445c7.999,8.542,16.223,16.803,24.832,24.616c0.05,0.232,0.111,0.463,0.195,0.689
	c0.161,0.397,0.301,0.802,0.421,1.213c0.596,1.879,2.443,3.057,4.272,3.431c0.444,0.091,0.885,0.14,1.323,0.171
	c8.484,7.311,17.367,14.162,26.8,20.394c20.124,13.294,42.277,23.028,65.622,29.05c24.879,6.417,51.147,6.48,76.77,6.454
	c1.784,0.156,3.584,0.244,5.322,0.429c6.678,0.709,13.67,0.077,20.354-0.474c13.103-1.079,25.998-3.335,38.813-6.24
	c25.136-5.699,49.468-14.892,72.254-26.912c9.502-5.013,18.707-10.63,27.559-16.765c2.887-0.753,5.136-2.635,6.966-4.99
	c9.925-7.346,19.362-15.349,28.2-23.917c8.688-8.422,16.113-17.852,24.916-25.899c3.705-3.388,7.696-7.027,11.189-11.041
	C493.673,238.008,485.971,270.294,472.422,299.581z M70.687,189.285c14.938-1.407,29.628-4.738,44.237-8.034
	c14.749-3.327,29.286-5.478,44.448-5.243c13.921,0.216,27.777,2.663,41.304,5.81c14.121,3.285,28.013,7.51,41.924,11.568
	c14.051,4.1,27.329,6.841,41.904,3.77c13.804-2.908,25.868-10.021,38.125-16.664c10.264-5.563,21.166-9.19,32.786-10.399
	c18.167-1.891,36.888,0.457,54.887,2.869c17.405,2.333,35.478,4.586,52.447,9.188c11.008,2.985,21.929,6.251,33.085,8.662
	c0.061,0.013,0.126,0.027,0.187,0.041c-7.038,2.593-14.426,4.657-21.526,6.928c-30.394,9.724-62.326,14.334-93.8,19.085
	c-32.489,4.904-65.12,7.733-97.989,7.187c-32.184-0.536-64.414-0.167-96.531-2.631c-26.342-2.02-52.459-6.904-78.49-11.292
	c-11.979-2.019-23.837-4.6-35.432-8.24c-8.983-2.821-16.946-7.1-24.809-11.996C55.274,190.546,63.357,189.975,70.687,189.285z"/>
</svg>
