<?xml version="1.0" encoding="utf-8"?>
<!-- Generator: Adobe Illustrator 17.0.0, SVG Export Plug-In . SVG Version: 6.00 Build 0)  -->
<!DOCTYPE svg PUBLIC "-//W3C//DTD SVG 1.0//EN" "http://www.w3.org/TR/2001/REC-SVG-20010904/DTD/svg10.dtd">
<svg version="1.0" id="Layer_1" xmlns="http://www.w3.org/2000/svg" xmlns:xlink="http://www.w3.org/1999/xlink" x="0px" y="0px"
	 width="566.93px" height="566.93px" viewBox="0 0 566.93 566.93" enable-background="new 0 0 566.93 566.93" xml:space="preserve">
<path d="M239.314,57.531c0.106,3.435,2.8,10.448,7.066,10.252c1.173-0.054,3.494-2.228,2.081-3.382
	c-0.882-0.72-1.964-1.03-2.837-1.791c-1.204-1.048-2.005-2.488-2.585-3.952c-0.562-1.419-0.891-3.202-0.383-4.685
	c0.588-1.718,2.658-1.978,4.074-2.741c0.346-0.187,0.823-0.968,0.261-1.217C242.424,47.994,239.198,53.789,239.314,57.531z"/>
<path d="M311.227,61.834c-1,1.284-2.693,1.494-3.267,3.168c-0.16,0.467-0.363,1.192,0.101,1.588c0.053,0.045,0.105,0.09,0.158,0.134
	c0.797,0.68,1.743,0.641,2.646,0.142c6.176-3.422,8.233-12.726,5.961-19.01c-0.186-0.514-0.719-0.711-1.223-0.683
	c-2.307,0.13-4.629,0.232-6.492,1.725c-0.506,0.406-0.465,1.206,0.265,1.229c1.551,0.049,4.411-0.55,4.654,1.457
	c0.219,1.812-0.074,3.632-0.455,5.398C313.185,58.786,312.354,60.389,311.227,61.834z"/>
<path d="M294.199,515.902c2.681,6.689,11.597,7.166,18.973,6.029c0.291,0.223,0.619,0.412,0.992,0.537
	c4.119,1.379,7.827-2.171,9.809-5.387c2.739-1.435,5.021-5.325,5.252-8.003c0.304-3.527-0.021-7.049-0.238-10.573
	c-0.3-4.875,0.066-9.794,0.271-14.667c0.934-22.335,2.852-44.614,4.213-66.925c1.349-22.098,1.365-44.076,1.363-66.198
	c0-10.961,0.253-21.928,0.716-32.878c0.147-3.492,0.464-6.997,0.804-10.505c4.646-0.365,9.115-4.234,11.893-7.562
	c2.635-3.155,3.588-6.669,3.98-10.44c0.449-0.267,0.84-0.565,1.113-0.887c10.415-12.264,16.609-27.472,21.565-42.6
	c5.19-15.842,9.115-32.271,11.853-48.67c2.094-4.745-1.415-10.945-3.401-15.375c-3.974-8.863-8.676-17.405-13.26-25.962
	c-3.482-6.5-7.461-12.987-9.794-20.014c-1.579-4.755-5.172-12.104-9.881-11.211c-0.142-0.393-2.117-0.835-2.811-1.142
	c-1.885-0.834-3.791-1.622-5.698-2.403c-2.913-1.195-5.845-2.351-8.709-3.662c-5.468-2.502-11.298-4.262-16.929-6.356
	c-5.991-2.229-11.901-5.357-18.1-6.938c0.07-2.791-0.57-6.067-0.741-8.111c-0.309-3.694-0.56-7.562-1.254-11.254
	c4.201-4.338,7.296-9.875,8.821-15.836c1.686-6.591,1.859-14.272,0.375-21.536c0.167,0.005,0.345-0.014,0.543-0.092
	c7.905-3.1,16.348-16.676,6.78-22.465c-8.672-5.247-21.556-3.821-28.149-12.53c-0.525-0.694-1.808,0.366-1.508,1.077
	c3.436,8.168,13.573,10.284,21.105,12.96c2.887,1.026,7.102,2.349,8.302,5.492c1.739,4.555-5.523,9.453-7.632,13.169
	c-2.847-10.991-9.646-20.6-20.957-23.342c-3.07-0.744-6.046-0.545-9.066,0.263c-1.228,0.328-2.394,1.391-3.087,2.619
	c-14.104,3.879-20.773,20.713-21.787,35.3c-0.725,10.435,1.812,21.165,8.798,27.73c-0.855,6.055-1.027,12.226-1.92,18.29
	c-0.216,0.119-0.414,0.269-0.59,0.446c0.031-0.471-0.004-0.952-0.116-1.445c-0.653-2.881-4.726-0.817-5.748,0.465
	c0.924-1.16-0.603,0.724-0.833,1.002c0.424-0.513-0.675,0.497-0.746,0.546c-1.68,1.161-3.524,2.106-5.352,3.006
	c-5.011,2.469-10.243,4.502-15.433,6.556c-5.234,2.071-10.497,4.068-15.719,6.167c-3.379,1.359-7.503,2.881-9.96,5.699
	c-0.347,0.398-0.507,0.895-0.511,1.37c-0.132,0.271-0.238,0.544-0.277,0.816c-3.438,23.466-14.741,44.72-21.705,67.26
	c-0.156,0.209-0.291,0.414-0.382,0.604c-0.938,1.946-1.221,3.166-1.125,5.321c0.09,2.025,1.257,2.863,2.727,2.931
	c-1.189,14.991,1.603,30.274,5.03,44.803c3.55,15.054,9.126,29.486,15.352,43.61c-0.272,0.776-0.341,1.561-0.099,2.237
	c0.833,2.326,2.058,4.081,3.842,5.796c1.268,1.219,3.176,1.189,4.897,0.462c-0.313,3.088,0.244,6.381,1.813,8.89
	c2.802,4.479,9.693,3.36,11.441-1.561c0.623-1.752,0.066-3.845-2.213-3.62c-0.353,0.035-0.699,0.035-1.051,0.078
	c-0.493,0.038-0.962,0.157-1.407,0.357c0.386-0.053,0.348-0.045-0.115,0.021c0.271-0.04-0.1-0.093-0.361-0.244
	c-0.314-0.181-0.676-0.62-0.947-0.913c-1.426-1.54-1.754-3.938-2.078-6.044c1.521-1.12,2.871-2.478,3.789-3.526
	c2.27-2.592,3.958-5.71,5.014-9.016c0.817,0.524,1.671,0.997,2.552,1.43c-0.138,0.248-0.243,0.505-0.293,0.769
	c-1.755,9.269-1.484,19.11-1.905,28.515c-0.438,9.803-0.83,19.607-1.189,29.414c-0.711,19.388-0.916,38.797-0.839,58.197
	c0.143,36.071,1.9,72.419,6.064,108.3c-0.383,0.58-0.659,1.203-0.78,1.821c-0.686,3.483,0.525,5.25,1.693,7.958
	c-0.538,10.62,24.315,5.438,30.444,4.488c3.579-0.555,6.838-3.424,6.817-7.246c-0.224-41.396-2.638-82.735-2.146-124.152
	c0.169-14.224-0.093-28.499,0.471-42.712c0.524-13.193,1.72-28.654,10.065-39.505c2.067-2.688-1.326-5.097-3.533-2.802
	c-19.948,20.737-15.061,54.742-16.063,81c-1.592,41.752-0.087,83.689-0.092,125.481c-2.349,0.29-4.704,0.538-7.067,0.714
	c-2,0.149-4.035,0.242-6.044,0.134c-5.737-38.141-8.371-76.328-9.419-114.881c-0.524-19.244-0.492-38.49-0.602-57.739
	c-0.056-9.671-0.052-19.343-0.03-29.014c0.019-8.713,0.782-17.91-0.191-26.635c1.888,0.599,3.812,1.097,5.699,1.559
	c8.919,2.184,18.271,2.537,27.415,2.755c12.112,0.289,23.881,1.241,36.004,0.026c11.124-1.114,22.359-3.72,32.869-7.602
	c-2.659,8.755-3.279,18.181-4.166,27.242c-0.929,9.491-1.626,18.991-2.098,28.516c-0.998,20.14-0.919,40.3-2.195,60.429
	c-1.304,20.571-3.422,41.081-4.9,61.639c-0.732,10.186-1.308,20.378-1.605,30.586c-0.097,3.34,0.181,6.65,0.365,9.983
	c0.077,1.386,0.186,2.837,0.066,4.224c-0.003,0.028-0.01,0.055-0.013,0.082c-0.313,0.313-0.591,0.651-0.819,1.01
	c-5.832,2.095-10.844,2.318-16.252,0.781c0.907-1.131,1.463-2.461,1.37-3.873c-0.014-3.826-0.712-7.714-0.776-11.574
	c-0.096-5.811,0.068-11.626,0.251-17.434c0.499-15.771,1.345-31.53,1.964-47.297c1.275-32.483,2.904-66.604-3.396-98.684
	c-1.942-9.891-6.282-28.544-19.261-29.155c-3.223-0.152-7.564,5.16-3.049,6.467c8.028,2.325,10.44,12.951,12.169,20.052
	c3.418,14.047,3.82,28.99,4.098,43.374c0.658,34.085-1.976,68.17-3.525,102.199c-0.33,7.235-0.621,14.477-0.658,21.72
	c-0.017,3.327,0.349,6.657,0.558,9.97c-0.21,0.979-0.322,1.948,0.05,2.92c0.029,0.076,0.051,0.127,0.078,0.195
	c0.005,0.309,0.015,0.618,0.014,0.927C291.976,514.492,292.866,515.55,294.199,515.902z M340.613,298.803
	c-1.136,0.643-2.366,0.931-3.579,1.271c0.392-4.487,0.665-8.971,0.521-13.437c0.748-0.438,1.428-0.976,2.004-1.607
	c1.773,1.72,4.359,3.458,6.862,4.077c0.245,0.719,0.873,1.098,1.677,1.212C346.462,293.785,343.691,297.06,340.613,298.803z
	 M331.641,233.151c2.731-9.575,4.851-19.308,6.875-29.052c1.044-5.03,2.08-10.061,3.094-15.097c0.275-1.363,0.611-2.748,0.938-4.143
	c1.34,3.154,3.07,6.164,4.076,8.384c1.508,3.33,2.307,7.111,3.45,10.592c0.578,1.76,0.932,5.277,1.908,7.483
	c-0.71,2.472-1.384,4.955-2.159,7.365c-2.022,6.291-4.788,12.353-7.456,18.388c-2.614,5.913-5.392,11.736-8.021,17.632
	c-1.911-6.047-3.515-12.31-4.818-18.576C330.546,235.249,331.348,234.178,331.641,233.151z M383.5,200.267
	c-5.752,13.435-9.208,27.737-13.835,41.618c-4.722,14.166-10.689,27.706-19.48,39.732c-2.413-0.527-4.507-1.346-6.526-3.046
	c-1.062-0.894-1.932-1.858-2.721-2.87c-0.104-0.992-0.434-2.015-0.941-3.21c-1.214-2.862-2.003-5.943-2.852-8.983
	c0.256-0.194,0.5-0.403,0.711-0.643c2.073-2.344,3.061-5.769,4.152-8.643c2.052-5.404,4.476-10.626,6.706-15.967
	c3.126-7.488,7.404-16.714,8.792-25.627c0.417-0.305,0.792-0.665,1.094-1.056c1.677-2.167,1.221-5.282,0.06-8.463
	c5.026-2.868,12.105-2.916,17.07-0.11c2.242,1.267,4.933-0.58,5.955-2.738C382.249,200.427,382.888,200.416,383.5,200.267z
	 M356.319,144.873c2.734,6.394,6.107,12.533,9.25,18.73c3.57,7.039,7.117,14.1,10.275,21.335c1.27,2.909,2.451,5.864,3.375,8.902
	c0.199,0.654,0.304,1.323,0.395,1.993c-0.195-0.063-0.39-0.126-0.584-0.189c-0.696-0.226-1.469-0.116-2.205,0.214
	c-4.255-0.213-8.209-0.872-12.608,0.133c-2.735,0.625-5.075,2.001-6.916,3.909c-1.253-2.654-2.669-5.143-3.378-6.924
	c-2.189-5.505-6.349-10.156-9.144-15.4c0.518-0.841,0.812-1.738,0.745-2.585c-0.102-1.294-0.463-2.614-1.104-3.656
	c-2.128-7.03-2.18-14.442-1.374-21.752c0.686-6.222,3.064-11.799,4.883-17.603c0.449,0.176,0.948,0.264,1.456,0.242
	c0.338-0.014,1.638,0.056,2.831-0.807c0.617,1.44,0.939,3.306,1.298,4.699C354.282,139.096,355.107,142.039,356.319,144.873z
	 M256.224,63.613c-1.06-13.908,2.626-29.868,15.123-35.735c0.314,0.607,0.902,1.105,1.872,1.375
	c3.777,1.052,7.569,1.013,11.185,2.707c3.401,1.593,6.132,4.518,8.029,7.712c4.072,6.858,5.051,15.372,5.052,23.196
	c0.003,12.162-7.626,22.752-20.252,23.25C264.529,86.621,257.091,74.991,256.224,63.613z M272.265,93.669
	c8.105,0.995,15.516-1.7,21.322-6.528c-0.124,2.641,0.011,5.338-0.003,7.906c-0.014,2.46-0.073,4.918-0.205,7.375
	c-0.107,1.999-0.925,3.777-1.013,5.703c-0.008,0.178,0.003,0.333,0.02,0.479c-0.56,0.043-1.12,0.21-1.493,0.396
	c-3.964,1.98-8.189,4.607-10.943,8.203c-1.147-1.411-2.682-1.916-4.514-1.904c-0.885,0.005-2.012,0.792-2.604,1.75
	c-0.58,0.204-1.132,0.49-1.598,0.783c-0.472,0.296-0.908,0.64-1.308,1.018c0.093-0.25,0.113-0.508,0.022-0.736
	c-0.906-2.254-2.301-3.962-4.042-5.631c-1.222-1.17-2.534-2.81-4.26-3.111c-0.18-0.031-0.369-0.033-0.559-0.021
	c0.06-0.316,0.07-0.625,0.01-0.91c-1.272-6.08,0.912-12.451,0.493-18.6C264.53,91.803,268.066,93.154,272.265,93.669z
	 M287.815,124.879c-2.222-0.51-5.035-0.984-7.225-2.097c0.122-0.276,0.245-0.552,0.342-0.837c0.255-0.751,0.29-1.552,0.151-2.323
	c2.785-1.725,5.381-3.501,8.27-4.937c0.207,1.777,0.395,3.554,0.5,5.343c0.078,1.315,0.129,2.667,0.012,3.981
	c-0.036,0.4-0.111,0.793-0.197,1.184C289.051,125.071,288.404,125.014,287.815,124.879z M275.565,122.601
	c-0.015,0.074-0.032,0.122-0.04,0.144c-0.24,0.37-0.308,0.4-0.825,0.676c0.579-0.31-0.651,0.158-0.171,0.064
	c-0.374,0.073-0.418,0.069-0.684,0.038c-0.865-0.103-1.545-0.764-1.861-1.565c-0.295-0.745,0.561-1.438,1.518-1.988
	c0.509,0.422,1.057,0.817,1.441,1.164c0.096,0.086,0.451,0.601,0.465,0.576c0.077,0.219,0.235,0.841,0.172,0.424
	C275.674,122.749,275.634,122.256,275.565,122.601z M267.958,121.97c-0.558-0.261-1.238-0.301-1.853-0.047
	c-2.468,1.02-4.975,1.874-7.612,1.96c0.638-3.114,1.683-6.036,2.979-8.925c0.753,0.569,1.556,1.294,1.967,1.601
	c1.499,1.119,3.012,2.207,4.548,3.276c0.32,0.223,0.709,0.177,1.061-0.007C268.566,120.469,268.195,121.188,267.958,121.97z
	 M255.312,108.916c-0.031,1.019,0.278,1.86,1.104,2.867c0.355,0.433,0.758,0.659,1.176,0.729c-2.428,4.381-4.093,9.15-4.839,14.118
	c-0.157,1.043,0.248,2.215,1.45,2.373c4.278,0.563,8.189-0.443,12.183-1.919c0.764-0.282,1.503-0.804,2.017-1.475
	c1.128,1.776,3.485,2.831,5.609,2.509c2.02-0.306,3.745-1.383,5.029-2.869c1.092,1.168,2.375,2.133,3.763,3.041
	c2.059,1.346,5.665,3.873,7.892,1.582c0.097-0.1,0.196-0.211,0.293-0.328c7.762,0.18,4.155-15.732,3.286-19.822
	c1.232-0.268,2.682-1.26,3.113-2.004c0.218-0.376,0.38-0.81,0.502-1.281c2.779,2.539,6.296,4.328,9.817,5.881
	c-0.035,0.07-0.065,0.14-0.087,0.21c-2.805,8.776-4.313,18.023-7.127,26.861c-2.827,8.883-5.297,17.836-7.942,26.771
	c-2.456,8.293-5.957,16.225-8.273,24.549c-1.369,4.917-2.423,10.215-4.387,15.041c-1.691-3.856-3.309-8.227-4.935-11.854
	c-4.4-9.817-8.808-19.627-13.056-29.511c-4.12-9.584-8.108-19.231-11.709-29.024c-1.834-4.987-5.753-12.822-4.829-18.337
	c0.078-0.463,0.035-0.805-0.08-1.062C249.47,114.113,253.552,111.761,255.312,108.916z M185.052,205.25
	c1.273-0.892,2.264-2.13,2.417-3.445c2.799-24.146,17.316-45.317,19.732-69.629c0.689-0.275,1.361-0.611,2.043-0.988
	c0.14,3.631,1.183,7.219,2.078,10.742c1.318,5.189,2.255,10.34,2.439,15.698c0.136,3.955-0.225,7.955-0.575,11.89
	c-0.255,2.852-1.106,5.754-0.518,8.577c0.394,1.89,1.645,2.341,3.088,2.024c-3.013,4.477-4.886,9.677-6.651,14.735
	c-0.979,2.806-1.839,5.656-2.687,8.504c-0.334,1.122-0.82,2.24-1.168,3.38c-0.356-0.089-0.716-0.167-1.084-0.233
	c-1.711-0.303-3.493-0.42-5.223-0.582c-2.908-0.273-6.278-0.862-9.098,0.167c-0.728,0.266-1.954,1.734-0.793,2.307
	c2.055,1.013,4.554,1.007,6.776,1.372c1.525,0.25,3.108,0.528,4.539,1.127c0.567,0.238,1.111,0.521,1.644,0.829
	c0.061,0.035,0.103,0.07,0.149,0.105c0.055,1.667,1.24,2.962,3.557,2.223c-0.459,7.521,1.384,15.286,3.24,22.436
	c2.583,9.954,6.013,19.771,9.272,29.521c0.367,1.097,1.044,1.623,1.844,1.746c-0.935,3.31-1.888,6.614-2.862,9.912
	c-0.729,1.266-0.999,2.493-1.036,4.316c-0.031,1.565,0.596,2.413,1.525,2.766c0.06,3.614-2.129,7.845-5.072,10.532
	c-7.816-14.075-13.759-29.209-18.38-44.608C189.75,235.689,187.62,220.554,185.052,205.25z M235.133,236.725
	c4.66,0.72,9.425,0.994,14.081,1.787c-0.397,2.315-0.699,4.521-3.433,5.708c-3.56,1.546-8.306,1.624-12.147,0.555
	C234.299,242.085,234.857,239.376,235.133,236.725z M228.823,231.018c0.053,1.244,0.559,2.036,1.303,2.467
	c-0.447,0.668-0.618,1.396-0.191,1.904c-2.784,6.088-4.361,13.067-6.165,19.321c-0.1,0.346-0.197,0.693-0.296,1.039
	c-2.487-7.076-5.181-14.08-7.454-21.234c-2.465-7.761-3.57-15.929-5.739-23.742c0.654-0.49,1.201-1.065,1.508-1.625
	c1.939-3.532,2.127-8.744,3.165-12.645c0.873-3.282,1.858-6.542,2.804-9.812c1.168,5.009,2.876,9.99,4.201,14.6
	C224.717,210.893,228.397,220.975,228.823,231.018z M202.342,211.995C202.521,212.211,202.442,212.317,202.342,211.995
	L202.342,211.995z M270.314,288.117c-15.632-0.46-30.849,0.539-45.272-5.458c0.057-0.533,0.113-1.065,0.136-1.598
	c0.001-0.032-0.007-0.055-0.007-0.086c0.136-0.287,0.247-0.578,0.301-0.871c1.486-8.097,3.358-16.105,5.222-24.122
	c0.27-1.159,0.578-2.351,0.902-3.564c8.054,1.272,16.718-0.231,22.181-6.777c2.232-2.676,4.514-9.159,1.735-12.08
	c-1.727-1.815-7.681-1.406-10.094-1.646c-2.841-0.282-5.753-0.555-8.634-0.487c1.015-1.195,1.543-2.726,1.011-4.379
	c-0.09-0.279-0.197-0.522-0.314-0.752c-3.413-7.979-5.864-16.467-8.851-24.613c-1.698-4.63-3.306-9.289-4.813-13.984
	c-1.138-3.548-1.928-7.336-3.2-10.875c0.439-0.553,0.753-1.1,0.871-1.574c0.66-2.657,0.02-5.897-0.031-8.62
	c-0.071-3.755-0.233-7.514-0.725-11.239c-0.584-4.427-1.917-8.703-3.322-12.923c-1.517-4.553-2.662-9.713-4.826-14.035
	c1.232-0.526,2.438-1.045,3.59-1.479c6.108-2.302,12.245-4.527,18.324-6.907c1.488-0.583,4.087-1.429,6.979-2.531
	c-1.624,5.313,1.312,12.372,2.84,17.337c3.097,10.062,6.996,19.878,10.898,29.648c4.072,10.195,8.31,20.323,12.476,30.479
	c1.615,3.938,3.228,7.877,4.797,11.833c0.769,1.936,1.978,4.438,2.436,6.413c0.055,0.313,0.112,0.633,0.17,0.976
	c0.084,0.926,0.438,1.548,0.946,1.927c1.234,1.805,4.703,1.608,6.375-0.895c4.181-6.255,5.992-13.483,7.762-20.707
	c2.109-8.608,5.25-16.83,7.703-25.338c2.712-9.409,4.671-19.012,7.345-28.437c2.333-8.224,6.293-18.261,5.589-27.096
	c0.34,0.145,0.684,0.291,1.018,0.435c5.856,2.528,11.749,4.955,17.525,7.664c2.631,1.234,5.229,2.566,7.847,3.833
	c1.855,0.898,3.708,1.8,5.553,2.719c0.552,0.275,1.096,0.566,1.642,0.854c-4.47,5.811-6.457,14.213-7.999,20.958
	c-2.13,9.315-3.3,19.739-0.101,28.95c0.324,0.931,0.848,1.518,1.485,1.835c-2.934,6.973-4.336,15.048-6.167,22.088
	c-2.166,8.329-4.277,16.701-7.05,24.853c-1.214,0.814-2.168,2.038-2.459,3.382c-6.448-0.406-13.035,1.314-19.533,1.002
	c-2.943-0.141-5.419,1.919-5.597,4.912c-0.354,5.921,2.313,11.022,8.539,11.95c2.661,0.396,5.416-0.049,8.032-0.521
	c1.026-0.185,2.047-0.399,3.073-0.59c0.328-0.05,0.654-0.113,0.979-0.177c0.897,0.577,2.176,0.603,3.285-0.181
	c4.605-3.255,3.716-9.023-2.5-7.87c-2.815,0.522-5.555,1.212-8.425,1.39c-2.286,0.142-3.561-0.759-4.292-2.178
	c5.66-0.858,11.47-2.343,16.611-4.339c0.015,0.135,0.033,0.271,0.048,0.406c0.225,2.015,1.22,2.883,2.483,3.014
	c0.429,6.283,1.793,12.602,2.87,18.65c1.308,7.347,3.103,14.622,4.085,22c-8.952,3.029-17.574,6.148-27.1,7.624
	C293.354,288.072,281.74,288.453,270.314,288.117z M316.467,245.718c0,0.017,0.002,0.034,0.003,0.051
	C316.469,245.751,316.467,245.735,316.467,245.718z"/>
<path d="M242.081,545.556c-1.794-1.463-3.566-2.913-4.399-5.105c-0.969-2.551-0.396-5.725-2.666-7.586
	c-0.716-0.587-1.699-0.249-2.22,0.461c-0.034,0.093-0.069,0.186-0.104,0.278c-2.85,2.35-2.266,10.574-2.399,13.356
	c-0.282,5.865,5.876,10.089,11.146,10.78c11.01,1.444,23.209-9.907,19.798-21.162c-0.761-2.51-3.002-5.317-5.679-5.813
	c-3.297-0.612-6.75,1.901-7.572,5.017c-0.845,3.204,1.44,4.402,2.448,6.955c0.496,1.255-0.126,2.237-0.657,2.946
	c-0.485,0.584-0.53,0.637-0.133,0.157c-0.059,0.058-1.46,1.069-0.828,0.672c-0.913,0.585-0.774,0.428-1.972,0.745
	C245.67,547.567,243.379,546.615,242.081,545.556z"/>
<path d="M323.949,540.306c-7.941-0.791-16.496-1.896-23.959-4.95c-0.597-3.937-1.98-7.788-2.217-11.75
	c-0.063-1.062-1.487-0.484-1.759,0.143c-2.105,4.849-2.257,9.992-2.502,15.223c-0.035,0.733,0.487,1.521,1.123,1.849
	c9.532,4.913,20.761,6.274,31.297,7.272c8.058,0.764,20.475,2.456,27.165-3.296c5.958-5.122,1.658-10.681-3.308-14.257
	c-3.23-2.327-6.914-4.05-10.583-5.551c-3.71-1.518-8.557-3.893-12.536-2.334c-2.284,0.895-4.404,3.475-2.819,5.877
	c1.5,2.275,5.161,2.533,7.583,3.313c2.991,0.962,5.896,2.27,8.712,3.655c2.299,1.131,4.624,2.438,6.532,4.163
	c0.119,0.108,0.324,0.293,0.54,0.503c-0.012,0.004-0.02,0.006-0.032,0.01C339.975,542.282,331.289,541.036,323.949,540.306z"/>
<path d="M247.908,19.836c-3.482,3.121-3.619,8.695-3.713,13.078c-0.117,5.469,0.946,10.989,4.047,15.518
	c0.386,0.563,1.415-0.221,1.321-0.759c-0.754-4.331-1.214-8.789-1.362-13.183c-0.09-2.657,0.202-5.294,0.7-7.898
	c0.178-0.931,0.489-1.8,0.794-2.663c0.148-0.02,0.305-0.065,0.478-0.167c4.639-2.739,9.256-5.477,14.261-7.513
	c2.514-1.023,5.224-1.835,7.964-1.594c1.854,0.163,2.663,1.052,4.515,0.521c0.78-0.224,1.276-0.945,1.331-1.722
	c0.019-0.265,0.037-0.53,0.056-0.794c0.036-0.504-0.338-0.987-0.746-1.227c-8.187-4.83-20.456,4.321-27.089,9.792
	c0.045-0.285,0.079-0.573,0.091-0.87C250.619,18.854,248.606,19.21,247.908,19.836z"/>
</svg>
