<?xml version="1.0" encoding="utf-8"?>
<!-- Generator: Adobe Illustrator 17.0.0, SVG Export Plug-In . SVG Version: 6.00 Build 0)  -->
<!DOCTYPE svg PUBLIC "-//W3C//DTD SVG 1.0//EN" "http://www.w3.org/TR/2001/REC-SVG-20010904/DTD/svg10.dtd">
<svg version="1.0" id="Layer_1" xmlns="http://www.w3.org/2000/svg" xmlns:xlink="http://www.w3.org/1999/xlink" x="0px" y="0px"
	 width="566.93px" height="566.93px" viewBox="0 0 566.93 566.93" enable-background="new 0 0 566.93 566.93" xml:space="preserve">
<path fill="#231F20" d="M492.621,138.895c-2.042-3.533-3.603-7.368-4.997-11.193c-2.984-8.184-5.066-16.68-7.463-25.046
	c-5.224-18.246-13.824-35.279-19.258-53.493c-0.326-1.095-1.191-1.168-2.125-0.742c-0.417-0.442-0.99-0.803-1.766-1.043
	c-6.127-1.898-13.264-0.697-19.617-0.668c-7.885,0.035-15.771,0.092-23.655,0.143c-15.796,0.099-31.593,0.29-47.386,0.581
	c-31.676,0.583-63.347,1.137-95.027,1.337c-30.557,0.194-61.111,0.126-91.666,0.537c-29.795,0.399-59.768,0.49-89.492,2.701
	c-2.985,0.222-5.643,2.025-7.213,4.551c-3.216,3.179-5.002,8.195-6.398,12.158c-2.338,6.633-3.885,13.493-5.582,20.307
	c-2.171,8.715-5.344,17.295-8.108,25.84c-2.44,7.545-4.873,15.368-8.171,22.685c-2.578,2.007-3.858,6.408-3.858,9.108
	c0,2.293,2.165,3.168,4.13,2.709c3.192-0.746,5.415-3.461,6.426-6.426c2.866-8.407,6.376-16.582,9.165-25.03
	c2.855-8.647,5.391-17.39,7.926-26.135c1.77-6.108,2.643-12.396,3.883-18.62c0.598-2.998,1.345-5.957,2.27-8.87
	c0.081-0.255,0.175-0.502,0.268-0.75c14.441-0.071,28.885-0.425,43.33-0.813c-1.096,6.661-1.411,13.449-2.281,20.148
	c-1.032,7.946-2.7,15.782-4.452,23.595c-2.966,13.235-6.419,26.711-11.1,39.553c-4.644,0.249-9.286,0.501-13.925,0.758
	c-13.994,0.774-27.948,1.555-41.883,3.036c-2.285,0.243-4.246,1.653-5.231,3.765c-0.352,0.754-0.497,1.701-0.307,2.482
	c-4.346,6.39,0.383,15.91,5.097,20.764c5.295,5.454,13.214,7.36,20.583,7.025c8.118-0.369,16.053-3.676,22.409-8.664
	c3.649-2.865,6.821-6.328,9.293-10.257c0.7-1.112,1.632-2.6,2.472-4.22c1.544,4.512,5.444,8.707,8.608,11.475
	c6.123,5.354,13.397,9.014,21.544,9.72c15.134,1.313,28.481-9.246,35.084-22.31c4.26,11.617,18.31,19.828,29.679,21.404
	c16.857,2.338,32.404-9.758,39.475-24.446c0.093,0.927,0.224,1.873,0.445,2.878c0.984,4.459,3.357,8.402,6.531,11.639
	c6.336,6.463,15.983,8.922,24.771,9.09c16.082,0.308,35.55-9.717,38.749-26.395c0.301,0.013,0.603,0.026,0.904,0.039
	c-1.232,7.307-0.095,14.934,4.293,21.186c5.773,8.226,15.46,11.85,25.313,11.597c15.558-0.399,28.06-11.397,35.712-24.496
	c0.728,4.596,2.715,9.136,5.01,12.755c4.616,7.279,13.277,12.231,22.004,10.898c7.834-1.197,14.891-5.993,20.295-11.627
	c4.06-4.232,8.418-9.217,10.656-14.814c0.064,0.002,0.128,0.003,0.192,0.005c-2.049,7.244,1.227,14.659,7.875,19.427
	c8.402,6.024,20.558,7.292,30.345,4.642c10.47-2.835,18.052-11.188,21.52-21.188c1.147-3.305,1.656-8.204-0.813-11.075
	c-0.581-0.675-1.193-1.158-1.822-1.508c0.859-1.301,1.367-2.713,1.256-3.95C496.299,143.012,493.917,141.138,492.621,138.895z
	 M446.386,61.24c0.694,0.167,1.438,0.301,2.271,0.42c2.25,0.321,5.248-1.563,7.541-4.076c2.233,16.517,10.754,32.305,14.975,48.271
	c2.242,8.484,4.029,17.077,6.471,25.51c1.179,4.072,2.547,8.092,4.188,12.001c0.33,0.787,0.69,1.561,1.067,2.326
	c-0.013,0.19-0.032,0.387-0.036,0.57c-1.322-0.191-2.908,0.359-4.402,1.313c-11.04,0.357-22.075,0.451-33.104,0.345
	c-0.001,0-0.001-0.001-0.001-0.001c-0.323-0.233-0.651-0.429-0.981-0.599c-3.354-6.707-4.535-15.005-5.952-22.151
	c-1.766-8.908-3.068-17.908-4.652-26.85c-2.252-12.703-4.732-26.446-11.064-37.946c0.798,0.01,1.596,0.012,2.393,0.022
	C432.052,60.493,439.503,59.953,446.386,61.24z M413.924,60.294c4.742,15.023,8.72,29.928,11.239,45.593
	c1.323,8.233,2.519,16.484,4.019,24.688c1.048,5.738,2.736,11.438,4.097,17.157c-16.662-0.357-33.316-1.093-49.968-1.938
	c-0.022-0.467-0.129-0.912-0.345-1.318c-0.192-0.361-0.392-0.642-0.609-0.9c0.006-0.006,0.012-0.011,0.018-0.016
	c-1.059-1.002-1.19-4.906-1.4-6.209c-0.351-2.167-0.512-4.384-0.752-6.565c-0.496-4.489-0.936-8.983-1.379-13.478
	c-0.898-9.111-1.854-18.215-3.029-27.294c-1.084-8.376-2.509-16.813-4.79-24.952c-0.123-0.438-0.716-2.503-1.572-4.718
	c10.709-0.051,21.419-0.093,32.128-0.087C405.696,60.26,409.81,60.271,413.924,60.294z M362.252,60.379
	c0.04,0.847,0.156,1.744,0.307,2.764c0.627,4.235,1.365,8.459,2.017,12.692c1.372,8.919,2.302,17.937,3.185,26.915
	c0.844,8.575,1.54,17.164,2.344,25.744c0.416,4.438,0.867,8.871,1.362,13.301c0.113,1.012,0.092,2.181,0.078,3.388
	c-17.423-0.924-34.847-1.898-52.279-2.622c1.997-1.619,3.418-4.056,2.715-6.677c-1.459-5.444-1.322-11.636-2.404-17.261
	c-1.357-7.063-2.078-14.25-3.017-21.379c-0.917-6.951-1.733-13.908-2.483-20.879c-0.522-4.841-0.364-10.478-1.181-15.591
	c13.834-0.146,27.668-0.289,41.503-0.358C357.016,60.403,359.634,60.392,362.252,60.379z M306.2,60.843
	c-0.855,5.607-0.219,11.639,0.041,17.188c0.332,7.073,1.127,14.131,1.867,21.171c0.723,6.883,1.291,13.814,2.264,20.666
	c0.908,6.389,2.703,13.278,1.499,19.769c-0.073,0.238-0.135,0.477-0.171,0.714c-0.02,0.127-0.039,0.256-0.058,0.383
	c-0.088,0.585-0.088,1.087-0.028,1.527c-5.787-0.214-11.576-0.396-17.366-0.533c-17.85-0.423-35.724-0.503-53.608-0.337
	c1.121-0.731,2.108-1.751,2.841-2.626c0.587-0.702,0.951-1.533,1.17-2.438c0.254-0.691,0.355-1.353,0.263-1.931
	c0.124-2.483-0.396-5.222-0.449-7.378c-0.221-9.041,0.115-18.027,0.627-27.051c0.475-8.346,1.891-16.631,2.48-24.975
	c0.193-2.752,1-9.004,0.183-13.729c4.601-0.014,9.203-0.025,13.804-0.045C276.44,61.154,291.32,61,306.2,60.843z M176.254,142.957
	c0.698-2.192,0.914-4.664,1.11-6.787c0.742-8.029,1.91-16.037,2.854-24.049c1.096-9.298,2.385-18.541,4.176-27.732
	c0.963-4.939,2.053-9.855,3.143-14.769c0.564-2.54,1.359-5.335,1.709-8.092c17.135-0.146,34.27-0.195,51.406-0.241
	c-0.776,5.022,0.023,10.957-0.329,15.605c-0.576,7.609-1.859,15.152-2.861,22.713c-1.753,13.247-1.613,26.668-2.77,39.938
	c-0.056,0.642,0.233,1.376,0.705,1.9C215.684,141.682,195.963,142.22,176.254,142.957z M239.638,132.769
	C239.689,132.732,239.692,132.73,239.638,132.769L239.638,132.769z M129.187,104.668c1.72-7.988,2.862-16.113,3.698-24.238
	c0.596-5.797,1.168-12.018,0.084-17.836c13.001-0.353,26.003-0.709,39.002-0.888c3.602-0.05,7.204-0.074,10.806-0.111
	c-2.399,6.01-3.437,12.883-4.873,19.013c-2.029,8.666-3.66,17.375-5.006,26.172c-1.792,11.702-2.982,23.841-5.721,35.372
	c-0.253,0.375-0.465,0.772-0.638,1.184c-16.029,0.651-32.047,1.42-48.044,2.256C121.865,131.912,126.219,118.458,129.187,104.668z
	 M92.68,168.605c-4.537,3.467-10.35,5.223-16.008,5.479c-5.684,0.259-11.609-1.323-16.086-4.896
	c-2.377-1.896-4.117-4.352-5.406-7.078c-0.567-1.197-1.068-3.031-1.833-4.539c15.724,0.18,31.473-0.261,47.22-0.889
	c-0.837,1.997-1.393,4.136-2.539,6.027C96.629,165.016,94.817,166.973,92.68,168.605z M139.012,171.763
	c-6.215-1.251-11.629-4.688-16.584-8.482c-2.542-1.946-4.822-4.165-6.986-6.519c-0.2-0.218-0.4-0.448-0.6-0.684
	c11.39-0.504,22.774-1.03,34.142-1.412c5.835-0.195,11.67-0.383,17.505-0.566c-0.015,0.055-0.04,0.106-0.053,0.16
	C163.333,166.627,151.672,174.312,139.012,171.763z M232.055,158.865c-1.384,2.604-3.471,5.119-5.748,6.994
	c-5.088,4.189-11.567,5.777-18.059,5.671c-6.661-0.109-13.048-2.619-18.286-6.653c-2.742-2.113-5.049-4.613-7.194-7.314
	c-0.948-1.193-1.795-2.533-2.653-3.872c18.287-0.528,36.576-0.959,54.869-1.2C233.923,154.543,233.147,156.811,232.055,158.865z
	 M301.177,160.698c-0.815,1.579-2.638,3.187-5.034,4.763c-5.107,3.356-12.445,4.521-18.751,4.444
	c-6.935-0.085-14.001-2.163-19.534-6.421c-2.82-2.172-5.199-5.09-6.815-8.248c-0.439-0.857-0.884-1.843-1.307-2.889
	c17.725-0.11,35.423,0.299,53.11,0.97C302.814,156.114,302.39,158.349,301.177,160.698z M346.325,176.396
	c-7.654,0.045-14.637-3.453-19.484-9.258c-3.054-3.656-4.786-8.377-6.122-13.073c17.439,0.807,34.871,1.782,52.307,2.688
	C368.219,167.578,358.74,176.323,346.325,176.396z M427.38,160.201c-0.211,0.493-0.536,0.985-0.86,1.503
	c-1.615,2.583-3.557,4.974-5.615,7.214c-6.213,6.76-14.24,8.674-22.411,4.074c-4.143-2.334-7.636-6.666-9.892-10.754
	c-0.829-1.502-1.336-3.14-1.784-4.793c13.523,0.658,27.051,1.229,40.589,1.606C427.386,159.505,427.374,159.937,427.38,160.201z
	 M486.198,166.073c-2.443,5.597-8.357,7.585-14.043,7.985c-6.959,0.488-13.914-1.264-20-4.556
	c-4.424-2.393-6.835-5.872-7.966-10.097c12.836,0.17,25.668-0.021,38.493-0.605c0.562-0.025,1.105-0.129,1.635-0.271
	c0.099,0.242,0.249,0.465,0.51,0.643c0.583,0.396,1.824,0.813,2.176,1.407C487.94,162.166,486.847,164.584,486.198,166.073z"/>
<path fill="#231F20" d="M79.864,361.201c0.338,1.43,0.789,2.246,2.13,2.997c2.729,1.528,6.593-1.899,7.995-3.827
	c2.691-3.699,1.221-7.209,0.55-11.264c-1.22-7.359-0.378-15.59-0.429-23.045c-0.111-16.332,0.02-32.666,0.113-48.998
	c0.094-16.251,0.178-32.475,0.611-48.719c0.192-7.188,0.277-14.688-1.31-21.742c-1.506-6.695-4.781-12.762-6-19.521
	c-0.003,0.003-0.006,0.006-0.009,0.009c-0.151-1.47-1.381-2.578-3.243-2.142c-2.795,0.653-4.91,3.283-5.17,6.068
	c-0.565,6.089,1.356,12.377,2.973,18.187c1.99,7.16,1.812,15.016,1.713,22.389c-0.207,15.594-0.607,31.176-0.721,46.775
	c-0.115,15.689-0.254,31.379-0.23,47.069c0.012,7.845,0.081,15.69,0.206,23.534c0.039,2.503,0.092,4.854,0.545,7.311
	c0.153,0.828,0.296,1.653,0.428,2.482C79.771,359.65,79.697,360.497,79.864,361.201z"/>
<path fill="#231F20" d="M479.745,186.744c-8.367,6.492-10.779,17.982-11.754,27.971c-1.137,11.64-0.047,23.289,0.088,34.941
	c0.195,16.864,1.441,33.719,2.281,50.559c0.847,17.004-0.307,34.054,0.409,51.039c-0.001,0.548,0.017,1.1,0.06,1.68
	c0.24,3.223,3.437,3.524,5.876,2.387c2.985-1.393,5.409-4.389,5.569-7.736c0.735-15.477-0.6-30.984-1.322-46.43
	c-0.773-16.537-1.949-33.051-2.559-49.596c-0.393-10.674-0.867-21.377-0.982-32.058c-0.106-9.751-0.162-21.19,5.529-29.562
	C484.824,187.17,482.575,184.548,479.745,186.744z"/>
<path fill="#231F20" d="M527.114,436.479c-0.674-4.185-1.344-8.403-2.17-12.561c-0.733-3.686-1.205-7.85-2.48-11.518
	c0.219-1.066,0.029-2.162-0.788-3.196c-2.989-3.785-11.104-3.734-15.515-4.131c-1.543-0.139-3.09-0.233-4.638-0.304
	c2.42-1.344,4.561-3.82,4.54-6.845c-0.037-5.617,0.174-11.223-0.029-16.84c-0.129-3.562-0.201-8.324-2.218-11.523
	c1.601-2.734,1.637-5.556-2.105-6.062c-31.235-4.224-62.958-1.25-94.34-1.025c-32.228,0.23-64.495-1.106-96.728-1.328
	c-65.959-0.454-131.869,2.426-197.797,4.052c-14.222,0.351-28.885-0.324-42.934,2.029c-0.248,0.042-0.55,0.181-0.876,0.386
	c-2.132,0.293-4.492,3.111-5.062,4.831c-1.577,4.754-0.35,10.658,0.11,15.526c0.519,5.5,1.082,11.122,2.104,16.567
	c-0.002,0.019-0.004,0.036-0.006,0.055c-0.147,1.354,0.363,2.148,1.235,2.501c-8.741,1.141-17.551,2.714-25.631,6.02
	c-0.472,0.193-1.06,0.69-1.644,1.348c-1.293,0.233-2.997,2.183-3.244,2.989c-2.315,7.576-2.559,15.865-3.61,23.695
	c-1.065,7.934-2.343,15.839-3.479,23.764c-2.292,15.982-3.876,32.359-2.358,48.496c0.251,2.662,1.934,3.319,3.924,2.831
	c-1.391,2.152-2.542,5.521,0.635,5.181c17.688-1.892,35.521,1.012,53.228,1.139c16.028,0.115,32.192-1.748,48.179-2.766
	c17.609-1.121,35.094-1.508,52.725-1.169c1.941,3.842,11.368-2.18,11.161-7.125c-0.072-7.432-0.494-14.863-1.055-22.294
	c4.045,0.526,8.274,0.371,12.227,0.51c7.534,0.266,15.068,0.418,22.605,0.584c15.221,0.336,30.445,0.691,45.671,0.612
	c29.202-0.151,58.479-1.591,87.315-6.416c-0.795,6.008-1.827,11.982-3.18,17.911c-1.077,2.08-1.487,4.205-1.517,6.931
	c-0.017,1.487,0.86,2.4,2.013,2.775c-1.959,1.737-3.612,4.38-0.975,5.681c4.938,2.434,12.284,1.449,17.668,1.443
	c7.157-0.007,14.313-0.086,21.47-0.186c14.154-0.195,28.308-0.803,42.456-1.219c28.106-0.827,56.245-1.547,84.359-0.656
	c0.948,0.278,2.062,0.19,3.111,0.047c1.25,1.119,3.771,0.643,5.05,0.045c3.088-1.439,5.377-4.422,5.635-7.826
	c1.162-15.293-5.211-30.475-8.659-45.123C529.354,455.21,528.598,445.714,527.114,436.479z M89.59,511.725
	c-9.895,0.047-19.785-0.857-29.677-1.024c-7.2-0.122-15.975-0.838-23.063,1.846c1.16-1.389,1.917-2.962,1.816-4.38
	c-0.065-0.912-0.132-1.746-0.357-2.513c-1.94-14.677-0.853-29.255,0.672-43.974c0.809-7.818,1.775-15.621,2.566-23.441
	c0.548-5.418,1.537-11.567,1.017-17.274c9.848-0.999,19.598-3.165,29.474-4.099c11.813-1.117,23.658-1.662,35.52-1.902
	c23.104-0.466,46.207,0.275,69.31,0.275c0.583,0,1.157-0.087,1.718-0.238c1.034,6.455,3.001,12.757,3.616,19.332
	c0.755,8.072,0.982,16.138,1.238,24.236c0.293,9.201,1.262,18.392,1.839,27.578c0.44,7.009,0.534,13.958,0.538,20.93
	C153.668,506.134,121.692,511.57,89.59,511.725z M236.295,479.137c-6.977-0.07-13.953-0.184-20.93-0.109
	c-6.588,0.069-13.392-0.239-19.851,1.209c-0.799-9.25-1.686-18.495-2.263-27.729c-0.517-8.283-0.697-16.709-2.358-24.864
	c-1.149-5.641-2.651-12.519-6.991-16.645c0.312-0.458,0.587-0.93,0.81-1.408c1.069-2.292,0.918-5.958-2.421-5.958
	c-23.734,0-47.469-0.589-71.199,0.114c-11.765,0.349-23.562,0.981-35.258,2.335c-1.321,0.152-2.651,0.307-3.984,0.464
	c2.987-1.315,5.966-4.157,5.629-7.233c-0.582-5.303-1.91-10.635-2.935-15.871c-0.464-2.375-0.648-5.464-1.118-8.38
	c13.319,1.519,27.324,0.365,40.574,0.225c16.453-0.175,32.907-0.668,49.355-1.081c33.004-0.83,66.008-1.715,99.023-2.027
	c32.531-0.308,65.068,0.143,97.596,0.717c15.952,0.281,31.91,0.806,47.865,0.605c15.832-0.199,31.652-0.969,47.488-0.943
	c11.886,0.019,23.753,0.545,35.558,1.882c0.472,0.412,1.123,0.668,1.997,0.668c1.037,0,2.074,0,3.111,0
	c-0.434,3.584-0.279,7.299-0.427,10.872c-0.239,5.765-0.794,11.508-0.915,17.281c0.054-0.046,0.107-0.091,0.161-0.137
	c0.02,0.61,0.161,1.11,0.402,1.507c-3.624,0.001-7.25,0.119-10.859,0.265c-14.643,0.592-29.213,2.316-43.848,3.026
	c-11.846,0.574-23.744-0.665-35.584-0.991c-6.208-0.172-12.488-0.184-18.62,0.941c-3.719,0.682-8.387,1.734-11.063,4.649
	c-1.047-0.122-2.714,1.171-3.089,1.707c-3.86,5.524-4.286,12.752-4.977,19.267c-0.786,7.39-0.411,14.895-0.745,22.311
	c-0.264,5.88-0.622,11.747-1.144,17.591c-0.256,0.052-0.502,0.122-0.751,0.185c-27.859,4.469-56.086,5.604-84.268,5.736
	C265.608,479.386,250.952,479.285,236.295,479.137z M449.208,506.348c-14.223,0.515-28.443,1.073-42.665,1.58
	c-7.272,0.26-14.54,0.607-21.813,0.848c-5.228,0.173-11.108-0.186-16.482,0.683c1.109-1.167,1.939-2.579,2.233-4.036
	c3.376-16.723,4.733-33.802,5.35-50.825c0.268-7.339,0.207-14.667,0.124-22.009c-0.041-3.625-0.06-7.255,0.112-10.877
	c0.067-1.404,0.223-2.801,0.283-4.192c0.662-0.076,1.342-0.287,2.085-0.425c2.148-0.398,4.458-0.23,6.63-0.218
	c5.848,0.034,11.699,0.218,17.539,0.544c10.914,0.607,21.807,1.934,32.75,1.531c13.624-0.5,27.199-1.993,40.818-2.632
	c6.947-0.326,13.908-0.427,20.856-0.075c3.234,0.163,6.456,0.505,9.654,1.009c2.802,0.441,5.441,1.624,8.31,1.338
	c0.081-0.008,0.169-0.03,0.253-0.043c-0.392,6.902,0.652,14.087,1.304,20.784c0.914,9.391,1.973,18.912,3.504,28.222
	c2.093,12.728,6.96,25.124,8.276,37.958C501.955,504.776,475.57,505.393,449.208,506.348z"/>
<path fill="#231F20" d="M179.076,246.242c12.231-6.148,23.565-20.227,20.78-34.625c-1.458-7.535-7.144-12.852-13.523-16.577
	c-5.315-3.104-11.442-2.768-16.948-0.619c-8.619,0.792-16.1,5.358-21.48,12.315c-6.691,8.652-6.338,19.758-2.352,29.447
	C151.377,250.343,166.43,252.6,179.076,246.242z M153.513,211.176c-0.048,0.076-0.093,0.154-0.14,0.231
	c0.074-0.2,0.153-0.397,0.235-0.593C153.574,210.935,153.545,211.056,153.513,211.176z M170.766,238.635
	c0.77-0.209,1.523-0.492,2.255-0.842c0.42-0.047,0.846-0.109,1.284-0.203c0.446-0.096,0.886-0.214,1.322-0.343
	c0.18,0.041,0.36,0.078,0.54,0.107c-0.039,0.018-0.074,0.036-0.113,0.053C174.364,238.137,172.574,238.541,170.766,238.635z"/>
<path fill="#231F20" d="M148.6,255.68c-6.766-3.121-14.666,0.378-19.642,5.124c-6.316,6.024-8.407,14.708-9.813,22.972
	c-3.818,22.467-2.732,45.833-2.076,68.502c0.05,1.739,1.303,3.07,3.077,3.077c0.323,0.001,0.623-0.026,0.932-0.044
	c4.268,3.734,10.043-1.23,12.143-7.104c0.434-1.215,0.8-2.45,1.119-3.697c1.046-0.887,1.833-2.054,2.028-3.349
	c2.029-13.508,0.833-27.51,1.415-41.121c0.318-7.447,1.006-14.871,2.694-22.145c1.58-6.806,4.324-12.317,7.857-18.248
	C149.581,258.305,150.343,256.485,148.6,255.68z"/>
<path fill="#231F20" d="M214.504,352.467c1.336,2.012,5.255,0.397,6.571-0.666c17.001-13.742,9.107-41.57,4.13-59.307
	c-4.869-17.346-12.348-44.119-35.718-38.261c-0.619,0.155-1.784,1.084-2.652,2.151c-0.114-0.048-0.225-0.101-0.341-0.146
	c-0.898-0.36-2.127,0.55-2.517,1.544c-0.027-0.219-0.054-0.438-0.081-0.656c-0.148-1.183-0.795-2.062-2.085-2.085
	c-7.833-0.137-15.569-1.614-23.349-0.049c-1.029,0.207-1.988,0.754-2.791,1.492c-1.036-0.609-3.439,1.516-3.536,2.842
	c-0.827,11.322-1.886,22.675-0.334,33.977c0.142,1.027,0.749,2.059,1.968,1.967c9.141-0.686,18.287,1.072,27.375-0.494
	c2.495-0.431,4.608-3.129,4.74-5.566c0.547-10.075-0.503-20.051-1.735-30.031c8.975,11.742,15.757,23.342,19.708,37.707
	c1.96,7.122,3.251,14.436,4.335,21.737C207.996,330.465,208.266,343.081,214.504,352.467z"/>
<path fill="#231F20" d="M138.359,356.426c-0.053,0.713,0.238,1.025,0.684,1.077c1.258,0.438,3.787-1.55,3.662-3.108
	c0.206-2.771-0.276-5.82-0.384-8.6c-0.205-5.354-0.213-10.715-0.441-16.068c-0.514-11.997-1.99-24.011-0.383-35.991
	c0.058-0.433-0.506-0.123-0.57,0.133c-2.769,11.05-2.074,22.228-1.865,33.509c0.113,6.084-0.121,12.169-0.264,18.25
	C138.716,349.129,138.081,352.936,138.359,356.426z"/>
<path fill="#231F20" d="M194.995,355.75c0.854,2.066,3.781-0.656,4.016-1.885c0.95-4.952-0.279-10.773-0.49-15.816
	c-0.266-6.349-0.454-12.7-0.713-19.049c-0.508-12.434-0.992-24.934-3.734-37.105c-0.118-0.526-1.018,0.202-0.994,0.58
	c0.82,12.702,1.225,25.437,1.22,38.164c-0.002,6.472-0.069,12.943-0.065,19.414C194.235,344.744,193.186,351.372,194.995,355.75z"/>
<path fill="#231F20" d="M312.274,323.91c-2.114,0.563-5.231,2.04-7.312,4.087c-1.907-1.331-4.715-1.95-6.777-2.493
	c-4.789-1.26-9.738,0.395-13.609,3.208c-5.113,3.714-10.144,10.228-7.797,16.851c1.949,5.502,8.894,7.572,14.021,8.25
	c4.792,0.634,9.539-0.408,13.796-2.506c2.341,1.173,5.833,1.515,8.121,1.384c7.349-0.419,15.884-2.527,21.077-8.093
	c6.561-7.031,1.561-14.054-4.94-18.759C324.073,322.379,317.755,322.45,312.274,323.91z M329.004,341.695
	c-3.258,2.14-8.103,2.723-11.938,2.891c-1.187,0.052-2.506,0.059-3.737-0.051c1.098-1.739,1.769-4.043,0.315-5.498
	c-2.098-2.096-5.55,0.166-7.177,1.679c-4.653,4.327-14.13,3.933-18.935,0.058c-2.315-1.867-2.228-3.771-0.276-5.751
	c5.329-5.405,12.723,1.509,18.623-1.417c0.636-0.315,1.163-0.931,1.195-1.661c0.017-0.39-0.025-0.745-0.093-1.086
	c5.968-3.971,13.253-2.938,18.99,2.103c1.864,1.637,4.068,3.866,4.413,6.456C330.6,341.027,330.052,341.006,329.004,341.695z"/>
<path fill="#231F20" d="M350.647,354.424c4.716,1.943,9.663,1.348,14.017-0.726c1.15,1.618,3.781,2.421,5.546,2.927
	c8.66,2.48,18.709,2.036,25.558-4.53c7.976-7.647,5.846-18.378-3.129-24.104c-6.755-4.311-17.791-4.119-23.505,1.897
	c-2.603-4.311-11.402-4.533-15.459-3.857c-6.964,1.16-12.542,8.255-13.052,15.044C340.161,347.238,345.417,352.269,350.647,354.424z
	 M353.786,332.393c5.283-1.086,8.951,1.361,13.67,2.859c0.888,0.282,1.753-0.43,2.161-1.246c4.804-3.361,9.7-3.753,15.34-1.553
	c4.599,1.793,12.391,9.768,7.686,14.91c-3.162,3.458-8.777,3.041-12.901,2.459c-2.216-0.313-4.403-0.938-6.477-1.771
	c-0.339-0.137-0.616-0.275-0.881-0.449c0.811-1.319,1.208-2.93,0.193-4.204c-0.172-0.217-0.449-0.329-0.696-0.448
	c-1.646-0.799-3.827,0.693-4.927,1.764c-5.844,5.688-15.98,1.727-18.458-5.48C347.164,335.357,350.462,333.076,353.786,332.393z"/>
<path fill="#231F20" d="M412.647,356.982c3.365,1.242,7.099,1.059,10.422-0.181c0.134-0.05,0.274-0.108,0.412-0.163
	c0.086,0.246,0.197,0.49,0.362,0.727c1.752,2.506,7.127,1.874,9.807,1.637c3.885-0.342,7.609-1.482,11.195-2.977
	c6.462-2.689,13.373-8.189,14.54-15.489c1.249-7.81-6.202-14.624-13.466-15.278c-5.024-0.453-11.134,2.425-14.56,6.752
	c-2.115-4.373-8.947-5.708-13.897-4.938c-7.67,1.193-14.533,8.313-15.273,15.957C401.575,349.383,407.137,354.95,412.647,356.982z
	 M415.987,333.377c4.876-1.379,10.506-0.177,12.779,4.671c0.017,0.524,0.265,0.734,0.613,0.751c0.497,0.167,1.167-0.245,1.677-0.758
	c0.29-0.237,0.534-0.495,0.664-0.72c2.916-5.021,10.162-7.349,15.15-4.021c2.904,1.938,6.985,7.067,4.81,10.771
	c-1.965,3.346-6.51,4.943-10.021,5.91c-2.355,0.648-4.779,0.92-7.216,0.957c-1.159,0.017-2.264-0.17-3.365-0.29
	c0.449-0.861,0.712-1.779,0.684-2.749c-0.045-1.559-1.371-1.971-2.686-1.763c-2.348,0.37-3.546,2.421-5.592,3.351
	c-1.659,0.755-3.829,0.444-5.506-0.037c-3.78-1.086-6.901-4.025-8.117-7.752C408.497,337.516,412.325,334.413,415.987,333.377z"/>
<path fill="#231F20" d="M361.771,305.502c1.281-6.083-4.463-12.203-10.175-13.1c-5.573-0.876-11.909,0.694-15.739,4.899
	c-0.048-0.026-0.096-0.054-0.144-0.08c0.138-0.257,0.211-0.509,0.185-0.726c-0.641-5.327,3.672-9.884,8.064-12.962
	c0.127,0.115,0.28,0.21,0.475,0.271c0.164,0.052,0.33,0.104,0.496,0.154c1.426,0.445,2.705-0.686,3.538-1.693
	c1.227-1.483,1.645-3.068,1.485-4.98c-0.252-3.003-3.781-1.439-5.078-0.201c-5.099,4.871-13.011,10.733-12.46,18.469
	c-5.249-2.41-10.805-3.571-16.485-0.568c-5.117,2.705-9.01,9.043-7.081,14.792c1.698,5.061,7.637,7.675,12.464,8.407
	c4.386,0.666,8.724-0.773,12.131-3.438C342.812,320.546,359.273,317.352,361.771,305.502z M316.534,306.383
	c-2.181-2.326-1.566-5.519,1.565-6.563c4.386-1.462,11.031-0.275,15.737,0.675c0.043,0.738,1.292,0.703,1.867,0.063
	c0.026-0.029,0.056-0.053,0.082-0.081c0.486-0.236,0.954-0.636,1.237-1.069c3.311-2.267,8.425-2.04,11.957-0.771
	c3.278,1.18,6.921,5.293,6.02,9.013c-0.52,2.153-5.412,2.403-6.988,2.452c-2.771,0.084-5.407-0.598-7.671-2.006
	c-0.794-4.089-4.111-3.486-7.088-1.593c-0.155,0.099-0.32,0.226-0.489,0.366c-0.492,0.381-0.947,0.857-1.327,1.441
	C328.281,313.165,319.614,309.67,316.534,306.383z"/>
<path fill="#231F20" d="M414.364,321.414c6.582-1.645,14.148-6.185,16.138-13.098c3.737-12.983-15.431-18.438-25.817-13.16
	c0.82-2.758,1.852-5.479,2.892-8.137c0.442-1.128,4.466-8.863,5.105-7.666c0.887,1.662,3.144,0.65,4.109-0.419
	c1.465-1.62,4.015-5.751,0.451-6.716c-3.06-0.827-6.784,2.457-8.892,4.249c-5.189,4.406-7.118,13.764-7.539,20.601
	c-0.576-1.086-1.328-2.051-2.305-2.805c-2.457-1.897-5.501-1.893-8.371-1.082c-5.61,1.586-13.374,6.426-13.775,12.918
	c-0.309,4.977,5.039,7.611,9.072,8.758c3.921,1.113,8.453,1.44,12.631,0.621c-0.11,0.403-0.161,0.803-0.121,1.18
	C398.663,323.586,409.752,322.564,414.364,321.414z M384.45,303.736c-0.357-0.405-0.182-0.885-0.399-0.703
	c1.306-1.392,3.517-2.586,5.27-3.167c1.933-0.641,3.798-0.022,5.479,0.954c0.981,0.57,1.787,1.219,2.599,2.012
	c0.7,0.684,1.981,1.17,2.466,2.012c0.728,1.262,2.686-0.596,2.371-1.678c-0.107-0.369-0.177-0.722-0.235-1.069
	c3.348-3.324,10.816-2.257,14.674-0.95c2.299,0.779,8.386,5.382,6.496,8.58c-1.719,2.908-6.199,3.91-9.244,4.412
	c-1.664,0.275-3.518,0.197-5.148-0.226c-1.356-0.353-2.209-1.235-3.222-1.953c0.974-1.045,1.67-2.343,1.629-3.747
	c-0.071-2.447-2.52-2.338-4.205-1.709C397.547,308.533,388.614,308.484,384.45,303.736z"/>
<path fill="#231F20" d="M117.395,430.433C117.301,430.316,117.276,430.293,117.395,430.433L117.395,430.433z"/>
<path fill="#231F20" d="M117.799,433.598C116.23,436.781,117.458,434.294,117.799,433.598L117.799,433.598z"/>
<path fill="#231F20" d="M116.422,435.305c0.577-0.463,1.049-1.04,1.377-1.707c0.418-0.846,0.643-1.979-0.045-2.754
	c-0.188-0.212-0.291-0.331-0.359-0.411c0.035,0.044,0.075,0.096,0.12,0.156c-0.213-0.26-0.483-0.481-0.772-0.593
	c-2.452-0.947-5.708,1.735-7.624,2.938c-4.805,3.017-9.48,6.508-13.879,10.099c-0.568-0.467-1.221-0.892-1.972-1.265
	c1.727-1.574,3.432-3.539,4.973-4.822c0.691-0.576,1.41-1.117,2.145-1.639c0.346-0.245,0.708-0.468,1.069-0.691
	c-0.407,0.279,0.717-0.239,0.065-0.042c0.015-0.009,0.029-0.019,0.043-0.028c2.052-0.8,6.978-4.475,4.109-6.836
	c-3.239-2.668-9.067,3.661-11.055,5.703c-1.618,1.663-4.427,4.342-5.854,6.924c-10.849-1.888-21.398,6.596-27.138,14.954
	c-3.787,5.515-6.319,11.81-8.378,18.138c-1.742,5.354-3.824,12.038-2.768,17.712c0.342,1.828,2.648,0.339,3.064-0.716
	c0.168-0.429,0.336-0.878,0.504-1.345c0.414,0.468,1.094,0.698,2.054,0.497c2.799-0.589,5.053-2.811,7.363-4.381
	c3.152-2.143,6.428-4.107,9.666-6.115c6.287-3.901,12.916-7.85,18.016-13.294c4.356-4.649,9.045-13.597,6.461-19.64
	c4.206-1.625,8.329-4.619,12.043-6.763C111.731,438.182,114.775,437.219,116.422,435.305z M117.836,431.115
	c-0.028-0.075-0.073-0.147-0.114-0.221C117.77,430.972,117.811,431.048,117.836,431.115z M101.562,434.545
	c-0.017,0.011-0.03,0.02-0.044,0.028c-0.043,0.014-0.091,0.028-0.15,0.048C101.426,434.602,101.497,434.57,101.562,434.545z
	 M81.938,466.082c-5.127,3.758-10.7,6.918-16.106,10.248c-3.094,1.905-7.19,3.95-9.877,6.836
	c4.893-16.175,11.312-41.244,31.229-35.006C97.235,451.309,85.883,463.189,81.938,466.082z"/>
<path fill="#231F20" d="M172.286,432.986c-4.65,2.547-9.2,5.949-12.761,9.989c-0.992-0.739-2.102-1.391-3.345-1.927
	c0.157,0.067,0.327,0.127,0.531,0.166c0.736,0.141,1.27-0.285,1.723-0.825c0.003-0.021,0.007-0.042,0.01-0.063
	c0.612-0.52,1.182-1.057,1.706-1.699c-0.371,0.454,0.505-0.584,0.714-0.839c0.438-0.501,0.903-0.979,1.35-1.473
	c0.792-0.875,1.632-1.709,2.488-2.521c0.304-0.287,0.618-0.563,0.933-0.838c0.069-0.049,0.717-0.587,0.859-0.692
	c1.173-0.869,2.845-2.668,2.574-4.315c-0.657-3.998-5.559-0.338-7.168,1.316c-1.249,1.283-2.398,2.672-3.512,4.072
	c-1.078,1.354-4.809,6.399-2.327,7.658c-0.37-0.156-0.75-0.303-1.143-0.439c-11.982-4.16-22.799,6.063-29.033,15.061
	c-6.209,8.961-12.426,22.013-10.529,33.251c-1.007,2.541-0.261,5.22,3.517,3.759c14.332-5.542,32.775-9.178,42.371-22.291
	c5.384-7.357,6.363-17.803,1.2-24.497c3.335-2.075,6.414-4.564,10.044-6.183c1.855-0.826,3.732-2.957,3.67-5.098
	C176.097,432.489,173.8,432.156,172.286,432.986z M154.311,469.893c-4.043,4.352-11.143,6.635-16.521,8.751
	c-5.918,2.329-11.987,4.275-17.992,6.371c1.419-8.146,4.401-16.178,8.301-23.382c4.024-7.432,11.392-17.088,21.036-14.966
	C160.391,449.144,161.272,462.399,154.311,469.893z"/>
<path fill="#231F20" d="M406.045,459.311c-0.255-0.66-0.543-1.255-1.027-1.791c-0.195-0.215-0.405-0.399-0.608-0.607
	c-0.028-0.029-0.041-0.039-0.063-0.06c-0.005-0.033-0.022-0.085-0.072-0.19c-0.019-0.063-0.033-0.104-0.045-0.141
	c0.003-0.094,0.008-0.203,0.008-0.275c0.059-0.229,0.125-0.508,0.14-0.604c0.033-0.216,0.063-0.419,0.059-0.62
	c0.19-0.964-0.54-1.344-1.336-1.301c-1.242-0.037-2.44,0.935-3.196,1.813c-0.671,0.772-0.791,0.922-0.359,0.448
	c-0.452,0.448-0.816,0.959-1.091,1.532c-0.354,0.625-0.579,1.293-0.788,1.98c-0.344,1.131-0.188,2.28,0.086,3.398
	c0.384,1.559,1.984,2.137,3.411,2.161C403.59,465.098,407.05,461.916,406.045,459.311z"/>
<path fill="#231F20" d="M414.078,464.067c0.388-0.749,0.628-1.724-0.005-2.356c-0.758-0.758-2.141-0.271-2.853,0.289
	c0.429-0.225,0.254-0.119-0.524,0.32c-0.423,0.31-0.821,0.645-1.189,1.018c-0.293,0.328-0.578,0.663-0.857,1.004
	c0.688-0.822-0.498,0.563-0.691,0.848c-0.951,1.403-1.999,3.401-1.809,5.147c0.139,1.28,0.785,1.806,2.008,2.009
	c2.813,0.467,5.703-3.414,5.639-5.924c-0.008-0.327-0.002-0.646,0.018-0.974c0.003-0.052,0.112-1.026,0.015-0.373
	c0.034-0.23,0.061-0.407,0.083-0.546C413.971,464.378,414.027,464.226,414.078,464.067z"/>
<path fill="#231F20" d="M499.711,443.115c-1.674,0.475-4.513,1.542-6.919,3.065c-0.306-0.849-0.639-1.686-1.02-2.494
	c-2.432-5.161-7.771-5.977-12.871-6.487c-7.592-0.762-15.359-0.41-22.966-0.093c-13.735,0.571-28.632,1.081-42.099,4.757
	c-3.757-0.865-7.754-0.78-11.256,0.484c-3.091,1.115-5.782,3.232-7.479,6.061c-0.717,1.196-1.666,3.491-1.717,5.434
	c-2.071,3.862-3.392,8.206-3.976,12.447c-0.716,5.197-0.13,10.58,3.139,14.838c2.837,3.696,7.622,4.283,12.061,3.716
	c-1.089,1.94-1.469,4.76,1.323,4.883c3.918,0.173,7.668,1.966,11.668,2.358c5.273,0.516,10.703-0.209,15.906-1.037
	c10.503-1.67,20.742-4.953,30.836-8.222c8.688-2.813,19.984-4.988,25.779-12.716c1.503-2.004,2.587-4.238,3.313-6.59
	c0.422,0.536,1.023,1.002,1.785,1.467c5.447,3.318,11.225-1.895,10.992-7.529c-0.188-4.539-2.202-9.398-4.205-13.418
	C501.566,443.158,500.652,442.85,499.711,443.115z M399.527,478.088c1.005-0.364,1.881-1.165,2.487-1.982
	c0.971-1.309,1.852-3.791,0.678-5.268c-0.59-0.741-1.957-0.178-2.525,0.256c-1.446,1.104-2.925,2.939-3.337,4.742
	c-2.568-3.355-2.839-8.77-2.076-13.17c0.339-1.956,0.847-3.815,1.521-5.563c0.913-0.103,1.687-0.746,2.269-1.486
	c2.907-3.697,1.104-6.785,6.72-7.031c4.209-0.185,8.799,1.333,11.962,4.115c11.488,10.104-1.092,26.104-13.332,26.294
	C402.166,479.021,400.727,478.687,399.527,478.088z M486.573,463.316c-0.879,5.119-5.321,6.687-9.681,8.113
	c-4.233,1.387-8.466,2.75-12.722,4.066c-9.488,2.937-18.979,5.828-28.785,7.508c-4.603,0.789-9.258,1.121-13.92,0.805
	c-2.798-0.19-5.277-1.241-7.86-1.856c12.562-7.024,21.638-26.213,8.286-36.365c6.105-0.684,12.213-1.278,18.35-1.679
	c7.932-0.516,15.885-0.776,23.832-0.637c5.45,0.097,11.357,0.166,16.619,1.761C486.86,446.902,487.497,457.938,486.573,463.316z
	 M497.874,456.652c-1.127-0.188-2.422,0.433-3.417,1.337c0.183-2.511,0.019-5.06-0.472-7.542c0.754-0.372,1.542-0.666,2.384-0.879
	c0.736,2.391,1.68,4.812,2.28,7.271C498.401,456.765,498.148,456.698,497.874,456.652z"/>
</svg>
