<?xml version="1.0" encoding="utf-8"?>
<!-- Generator: Adobe Illustrator 17.0.0, SVG Export Plug-In . SVG Version: 6.00 Build 0)  -->
<!DOCTYPE svg PUBLIC "-//W3C//DTD SVG 1.0//EN" "http://www.w3.org/TR/2001/REC-SVG-20010904/DTD/svg10.dtd">
<svg version="1.0" id="Layer_1" xmlns="http://www.w3.org/2000/svg" xmlns:xlink="http://www.w3.org/1999/xlink" x="0px" y="0px"
	 width="566.93px" height="566.93px" viewBox="0 0 566.93 566.93" enable-background="new 0 0 566.93 566.93" xml:space="preserve">
<path d="M377.315,96.757c-15.604-6.345-31.723-11.433-47.957-15.894c-8.959-2.462-19.069,13.849-7.966,16.9
	c41.213,11.325,83.173,27.517,113.653,58.615c34.77,35.476,46.772,86.913,38.861,135.121c-8.397,51.172-35.979,98.462-76.61,130.645
	c-18.729,14.835-40.5,25.548-63.257,32.61c-23.462,7.282-48.956,11.305-73.499,8.942c-54.323-5.23-100.929-38.123-137.207-76.933
	c-17.597-18.825-30.493-41.177-36.64-66.268c-6.005-24.512-3.664-50.603,2.614-74.788c11.514-44.36,37.048-85.549,73.723-113.302
	c18.735-14.177,40.298-23.604,62.527-30.813c28.185-9.141,57.675-11.96,87.154-9.677c2.396,0.186,5.506-4.01,2.227-4.724
	c-28.466-6.198-58.469-1.607-86.312,5.642c-24.103,6.275-47.326,16.323-67.83,30.519c-40.824,28.266-66.587,70.526-82.108,116.971
	c-8.266,24.734-12.284,50.78-8.881,76.78c3.318,25.346,13.973,48.703,29.116,69.137c16.253,21.932,37.542,40.74,59.868,56.281
	c21.991,15.308,46.671,26.89,72.755,33.159c48.901,11.752,103.615-0.446,146.996-24.542
	c46.016-25.559,81.141-68.243,100.108-117.057c19.121-49.21,21.9-105.003-2.005-153.119
	C456.391,140.195,418.576,113.535,377.315,96.757z"/>
<path d="M396.451,239.788c1.797,1.932,3.627,4.86,5.979,6.225c0.09,0.052,0.169,0.108,0.264,0.159
	c0.081,0.043,0.163,0.087,0.244,0.13c7.993,4.275,19.527-8.876,11.318-14.941c-18.349-13.558-35.855-28.163-56.459-38.308
	c-6.385-3.145-13.218-5.407-19.821-8.041c-3.703-1.477-7.303-3.139-10.862-4.932c-2.741-1.381-5.518-3.636-8.552-4.24
	c-2.432-0.485-5.611,1.76-5.906,4.259c-0.632,5.355,4.229,9.09,8.952,11.815c-5.926,1.345-12.066,5.927-15.607,9.222
	c-7.939,7.388-13.303,17.321-16.527,27.571c-6.241,19.848,2.417,39.654,20.126,49.887c18.476,10.676,42.716,8.462,59.604-4.169
	c14.265-10.668,19.683-26.393,18.454-42.819c0.931,0.778,1.86,1.557,2.784,2.343C392.595,235.78,394.528,237.72,396.451,239.788z
	 M372.874,249.939c-4.596,18.661-26.223,24.66-42.935,21.32c-16.958-3.39-30.625-16.729-31.012-34.446
	c-0.193-8.819,3.271-17.804,8.041-25.088c2.504-3.823,5.665-7.392,9.421-10.027c4.034-2.83,8.837-3.739,13.335-5.518
	c5.85,2.86,11.887,5.311,17.701,8.246c2.395,1.209,4.76,2.494,7.1,3.832c-1.317,0.613-2.567,1.364-3.658,2.175
	c-5.213,3.875-8.192,12.394-5.062,18.368c3.091,5.901,9.615,8.629,16.025,7.202c4.246-0.945,8.037-3.875,10.547-7.582
	c0.091,0.373,0.18,0.739,0.267,1.095C374.288,236.19,374.515,243.274,372.874,249.939z"/>
<path d="M250.668,270.968c8.834-9.476,14.292-22.287,13.667-35.307c-0.549-11.438-6.928-23.212-14.585-31.471
	c-2.592-2.795-5.52-5.29-8.604-7.594c3.141-0.825,6.287-1.648,9.433-2.534c7.721-2.172,12.777-16.899,1.369-16.349
	c-2.526,0.122-4.741,0.739-7.108,1.582c-0.65,0.231-1.384,0.65-2.13,1.203c-7.315,2.599-14.573,5.626-21.722,8.458
	c-10.543,4.175-20.878,8.923-30.936,14.158c-9.874,5.14-19.27,11.156-27.955,18.122c-7.35,5.895-16.947,13.753-19.495,23.214
	c-0.841,3.123,2.849,4.197,5.038,2.813c2.427-1.533,4.689-3.335,6.876-5.26c-0.816,5.651-0.854,11.246-0.513,15.396
	c1.653,20.076,18.136,32.046,37.092,35.122C213.414,296.143,235.523,287.213,250.668,270.968z M164.873,261.86
	c-2.702-6.734-4.404-18.325-2.135-27.54c2.002-1.867,4.038-3.678,6.182-5.31c7.805-5.941,16.459-10.858,25.183-15.303
	c8.889-4.529,18.202-8.13,27.606-11.434c0.065-0.023,0.13-0.043,0.195-0.065c5.257,2.898,10.231,6.015,14.635,9.943
	c-2.572-0.781-5.855-0.055-8.256,0.88c-6.363,2.479-11.277,8.099-12.914,14.711c-1.582,6.389,1.982,13.415,8.025,15.964
	c6.847,2.889,14.357,0.441,19.952-3.896c2.963-2.297,5.09-5.587,5.891-9.099c1.921,5.371,2.716,11.102,1.799,16.631
	c-3.306,19.924-23.769,32.201-42.333,34.288C193.037,283.394,171.382,278.08,164.873,261.86z"/>
<path d="M170.48,299.634c-0.114-0.644-0.259-1.29-0.477-1.938c-0.434-1.291-2.239-0.265-2.591,0.528
	c-0.671,1.513-1.375,3.006-2.102,4.486c-0.854,1.008-1.461,2.192-1.781,3.484c-1.423,2.654-2.959,5.248-4.641,7.773
	c-3.403,5.11-7.19,10.243-9.005,16.186c-2.448,8.019-1.922,18.737,7.925,20.817c9.132,1.929,17.649-6.156,21.383-13.552
	c5.755-11.403,2.7-26.089-3.731-36.43C174.469,299.392,172.363,299.24,170.48,299.634z"/>
<path d="M367.707,354.443c1.321,0.927,2.338,1.262,3.945,1.392c4.467,0.361,9.301-2.683,10.158-7.325
	c0.719-3.895,3.261-7.054,4.903-10.603c3.444-7.443-5.299-9.785-10.177-5.577c-1.733,1.495-3.323,3.101-4.751,4.832
	c-23.835-7.479-48.109-12.873-73.154-14.144c-13.392-0.68-26.703-0.07-39.932,2.147c-12.201,2.044-26.42,4.887-36.474,12.46
	c-0.752,0.567-1.168,1.817-1.006,2.78c-0.077-0.085-0.155-0.172-0.233-0.251c-0.729-0.737-1.471-1.46-2.215-2.181
	c-1.258-1.217-2.709-2.748-4.332-3.412c-3.518-1.438-8.092,2.301-6.937,6.087c0.523,1.714,1.802,3.274,2.783,4.771
	c0.502,0.767,1.021,1.524,1.522,2.293c0.12,0.184,0.237,0.37,0.355,0.555c0.032,0.902,0.309,1.827,0.912,2.826
	c0.034,0.057,0.069,0.113,0.103,0.17c1.808,2.994,6.835,0.923,8.689-0.704c2.396-2.103,3.911-5.707,1.827-8.524
	c-0.039-0.052-0.078-0.105-0.117-0.157c-0.084-0.114-0.19-0.202-0.287-0.301c5.117-1.019,9.898-2.989,14.895-4.482
	c6.148-1.837,12.452-3.053,18.801-3.935c12.791-1.777,25.951-1.631,38.788-0.516c23.782,2.066,47.863,7.951,69.852,17.373
	C365.446,351.643,365.995,353.242,367.707,354.443z"/>
</svg>
