<?xml version="1.0" encoding="utf-8"?>
<!-- Generator: Adobe Illustrator 17.0.0, SVG Export Plug-In . SVG Version: 6.00 Build 0)  -->
<!DOCTYPE svg PUBLIC "-//W3C//DTD SVG 1.1//EN" "http://www.w3.org/Graphics/SVG/1.1/DTD/svg11.dtd">
<svg version="1.1" id="Layer_1" xmlns="http://www.w3.org/2000/svg" xmlns:xlink="http://www.w3.org/1999/xlink" x="0px" y="0px"
	 width="566.93px" height="566.93px" viewBox="0 0 566.93 566.93" enable-background="new 0 0 566.93 566.93" xml:space="preserve">
<g>
	<path d="M525.776,182.489c-0.782-8.838-2.378-17.602-3.667-26.375c-1.332-9.069-2.059-18.193-2.351-27.354
		c-0.403-12.631,1.347-26.156-1.354-38.56c-0.259-1.187-1.632-0.599-2.376,0.164c-0.581-1.042-1.955-1.535-3.14-1.503
		c-8.042,0.217-16.091,0.543-24.147,0.684c-8.075,0.141-17.055-0.681-24.83,1.798c-0.968,0.309-2.816,2.587-1.118,3.25
		c6.758,2.641,15.333,1.7,22.475,1.825c7.699,0.136,15.387,0.412,23.076,0.638c1.306,1.627,4.423,0.966,5.982-0.407
		c0.046-0.04,0.091-0.081,0.137-0.121c0.081-0.071,0.157-0.148,0.234-0.223c-1.466,10.693-1.18,21.916-1.268,32.58
		c-0.075,9.058,0.117,18.07,1.113,27.074c0.943,8.526,2.185,17.015,3.003,25.555c0.344,3.583,0.569,7.18,0.523,10.78
		c-0.024,1.892-0.577,3.548-0.717,5.292c-1.781-0.535-3.469-0.689-5.489-0.609c-0.364,0.015-0.733,0.121-1.098,0.27
		c-62.232-4.531-124.77,0.974-187.052,1.196c-62.76,0.224-125.538-7.316-188.276-2.873c-11.549,0.818-23.081,2.122-34.494,4.082
		c0.741-0.882,1.228-1.926,1.219-2.986c-0.018-2.04-0.249-3.502-1.302-5.049c-1.341-6.562-0.976-13.709-0.828-20.236
		c0.188-8.3,0.754-16.581,0.607-24.887c-0.158-8.977-1.117-17.816-2.551-26.672c-1.232-7.608-1.814-15.655-3.477-23.247
		c6.713,0.092,13.407,0.206,20.134,0.573c7.102,0.388,13.793-0.347,20.738-0.85c0.889,0.025,1.784-0.048,2.636-0.177
		c2.033-0.31,3.831-1.507,4.723-3.405c0.791-1.682,0.484-4.641-1.92-4.789c-3.419-0.212-6.683,1.153-10.089,1.545
		c-4.483,0.516-9.041,0.411-13.543,0.308c1.423-2.757,2.441-5.915,3.132-7.361c3.604-7.547,7.717-14.798,15.05-19.191
		c0.961-0.576,1.721-3.022-0.152-2.709c-7.54,1.262-12.804,9.665-16.488,15.618c-2.123,3.43-4.028,6.987-6.081,10.458
		c-0.656,1.108-1.469,2.028-2.134,2.955c-7.349-0.267-14.725-0.347-21.742,2.092c-0.316,0.11-0.617,0.289-0.895,0.508
		c-5.996-0.081-11.993-0.778-17.958-1.313c-1.854-0.166-4.882,2.739-2.528,4.155c1.074,0.646,2.208,1.195,3.381,1.669
		c-0.698,0.315-1.364,0.901-1.502,1.47c-7.183,29.656-2.345,61.198-5.393,91.358c-3.282,32.482-5.562,65.18-6.992,97.794
		c-1.325,30.212,0.312,59.982,2.718,90.096c2.376,29.734,4.823,59.764,1.487,89.522c-0.696,6.213-1.856,12.338-3.257,18.428
		c-0.413,1.798,0.548,3.095,2.208,3.613c9.729,3.035,20.006,1.405,29.971,1.197c4.621-0.096,7.778-8.405,1.774-8.28
		c-8.424,0.175-17.006,1.551-25.324-0.145c9.573-57.245-3.251-114.845-3.131-172.306c0.068-32.568,2.73-65.221,5.164-97.679
		c1.174-15.656,2.553-31.23,2.592-46.942c0.038-15.331-0.504-30.648,0.021-45.978c0.244-7.123,0.903-14.239,1.454-21.344
		c0.004-0.056-0.003-0.1-0.003-0.151c4.338,1.437,9.093,1.989,13.502,2.422c1.185,0.116,2.393-0.192,3.386-0.843
		c-0.492,7.022,0.97,14.292,1.941,21.144c1.355,9.565,2.116,19.026,2.188,28.687c0.128,17.064-2.058,33.573,0.163,50.609
		c0.348,2.671,2.345,3.086,4.296,2.336c-0.717,1.329-0.605,2.806,1.378,2.602c62.445-6.424,124.885-1.439,187.41,0.658
		c64.831,2.174,129.711-4.406,194.499-1.263c10.895,0.529,21.751,1.455,32.605,2.519c2.195,0.215,5.639-2.37,6.479-4.768
		c0.985-0.216,1.96-0.701,2.506-1.125C527.829,196.552,526.245,187.788,525.776,182.489z"/>
	<path d="M138.672,62.531c0.558-0.105,1.127-0.213,1.7-0.321c-0.471,0.721-0.634,1.616-0.177,2.374
		c4.471,7.413,6.916,16.647,8.529,25.066c1.417,7.394,3.189,17.161,0.21,24.372c-0.64,1.549-0.607,3.233,0.939,4.206
		c0.913,0.575,1.894,0.424,2.874,0.139c1.811-0.525,3.326-2.172,3.755-3.991c1.994-8.462,0.659-17.928-1.106-26.295
		c-1.949-9.239-4.606-19.585-11.434-26.501c5.483-0.842,11.168-0.965,15.556,2.82c4.68,4.037,7.066,9.446,8.727,15.289
		c3.232,11.367,3.387,24.071,2.707,35.92c-0.179,0.927-0.232,1.871-0.171,2.743c0.38,5.422,8.742,1.68,8.439-2.705
		c0.037-0.555,0-1.165-0.107-1.77c-0.841-14.393,0.004-28.98-5.229-42.723c-1.752-4.6-6.553-13.901-12.369-14.367
		c-7.923-0.634-16.563-1.897-23.386,3.218C137.237,60.674,137.085,62.828,138.672,62.531z"/>
	<path d="M184.793,90.562c19.604,4.351,40.758,4.034,60.747,4.226c20.09,0.193,40.256,0.304,60.343-0.107
		c19.091-0.391,38.138-2.075,57.223-2.677c9.458-0.298,18.913-0.276,28.36,0.314c4.391,0.274,8.767,0.728,13.128,1.299
		c2.292,0.3,4.567,0.785,6.85,1.146c0.479,1.197,1.677,1.846,3.762,1.014c0.652-0.26,1.243-0.42,1.798-0.558
		c0.031-0.001,0.063,0.002,0.094,0.001c-0.003-0.007-0.006-0.015-0.009-0.022c1.538-0.38,2.787-0.619,4.206-2.416
		c0.766-0.97,1.105-2.035,1.054-2.995c0.005,0.031,0.01,0.061,0.015,0.092c0.773,5.246,1.564,10.622,1.746,15.923
		c0.047,1.377,0.14,2.751,0.133,4.129c-0.002,0.327,0.003,1.51,0.023,2.333c-0.154,1.494,0.024,2.924,1.405,3.934
		c2.441,1.784,6.499-1.521,6.821-3.964c0.95-7.206-1.252-15.936-2.353-22.939c-1.061-6.746-2.684-13.387-4.522-19.96
		c-1.433-5.125-3.536-11.354-7.474-15.199c1.964,0.106,3.94,0.043,5.947-0.029c3.788-0.136,9.109-1.499,12.042,1.401
		c5.044,4.988,8.137,11.292,10.15,18.013c3.568,11.908,2.898,24.346,2.496,36.614c-0.895,0.679-1.577,1.758-1.42,2.713
		c0.384,2.344,0.64,3.64,2.749,4.974c3.165,2.003,7.311-2.161,7.262-5.222c-0.239-15.163,0.122-31.187-4.831-45.709
		c-2.448-7.179-6.756-13.645-12.62-18.45c-0.936-0.767-1.902-0.985-3.088-0.605c-2.537,0.813-5.529,0.671-8.169,0.879
		c-4.941,0.389-9.91,0.742-14.734,1.916c-0.347,0.084-0.68,0.33-0.938,0.642c-6.598-2.28-13.485,2.225-17.778,7.032
		c-5.187,5.808-8.123,14.557-9.95,21.999c-1.268,5.168,6.476,3.275,7.479-0.606c1.425-5.508,2.445-10.887,5.01-16.036
		c3.31-6.646,8.125-7.903,14.937-9.197c0.378-0.072,0.931-0.428,1.349-0.873c0.307,0.069,0.613,0.134,0.92,0.189
		c-0.586,0.445-0.978,1.11-0.847,1.826c0.882,4.814,2.859,9.514,4.169,14.246c1.753,6.33,2.992,12.809,3.969,19.301
		c-0.332-1.318-1.476-2.318-3.343-2.372c-8.181-0.235-16.435-2.154-24.684-2.521c-9.224-0.411-18.459-0.342-27.687-0.091
		c-19.14,0.522-38.228,2.173-57.363,2.818c-19.431,0.655-38.918,0.789-58.359,0.984c-21.336,0.214-42.337-1.363-63.603-2.534
		C184.654,85.298,181.197,89.764,184.793,90.562z"/>
	<path d="M167.481,124.649c0.778-1.493,0.392-4.237-1.741-4.342c-4.131-0.204-7.676,2.854-12.116,2.616
		c-2.061-0.111-4.249-0.843-5.846-2.175c-1.599-1.333-2.03-4.078-3.965-4.821c-0.497-0.191-1.1-0.092-1.483,0.309
		c-5.006,5.242,1.686,11.375,6.597,12.978C154.539,131.046,164.435,130.492,167.481,124.649z"/>
	<path d="M444.129,116.877c-7.567,4.167-19.865,3.889-24.998-3.869c-0.655-0.99-2.358,0.258-2.451,1.099
		c-1.683,15.21,20.957,14.404,30.097,9.692C451.687,121.266,449.686,113.816,444.129,116.877z"/>
	<path d="M109.71,184.685c-2.806,0.264-6.551,6.163-2.255,6.592c3.211,0.321,6.433,0.417,9.654,0.594
		c3.028,0.166,6.092,0.842,9.118,0.693c2.595-0.128,7.336-5.627,3.382-7.147C123.841,183.201,115.76,184.115,109.71,184.685z"/>
	<path d="M146.069,188.081c2.892,1.284,6.398,1.278,9.51,1.369c4.196,0.122,7.97,0.312,11.706-1.925
		c1.254-0.751,3.574-4.154,1.083-5.056c-3.162-1.145-5.901-0.745-9.182-0.526c-3.451,0.23-6.933,0.057-10.373,0.339
		C146.699,182.455,142.886,186.667,146.069,188.081z"/>
	<path d="M197.042,181.204c-3.121,0.18-6.252,0.456-9.334,0.99c-2.226,0.386-5.68,4.848-1.909,5.58
		c5.461,1.06,13.514,2.605,18.214-1.076c1.12-0.878,1.622-2.492,0.793-3.701C203.322,180.834,199.307,181.074,197.042,181.204z"/>
	<path d="M227.639,181.962c-2.405,0.429-6.153,5.22-2.066,6.041c5.149,1.034,11.319,1.544,16.562,1.036
		c1.975-0.191,3.789-1.552,4.629-3.337c0.807-1.715,0.45-4.455-1.882-4.694C239.36,180.441,233.079,180.991,227.639,181.962z"/>
	<path d="M273.889,181.697c-3.237-0.046-6.877-0.015-10.023,0.818c-2.216,0.587-3.896,4.151-1.089,5.08
		c2.643,0.874,5.808,1.185,8.564,1.549c2.899,0.383,5.547,0.995,8.434,0.29c2.434-0.594,5.516-5.131,2.342-6.811
		C279.68,181.333,276.577,181.735,273.889,181.697z"/>
	<path d="M313.274,182.802c-4.094,0.311-8.116,0.205-12.207-0.064c-1.901-0.125-5.151,2.862-2.645,4.346
		c5.694,3.373,12.951,2.34,19.287,2.625c1.8,0.081,3.468-1.616,4.235-3.053C324.354,182.138,315.702,182.618,313.274,182.802z"/>
	<path d="M350.454,182.211c-3.499,0.174-7.556,0.013-10.889,1.242c-1.54,0.568-4.268,3.793-1.718,4.996
		c2.745,1.296,6.375,1.109,9.336,1.259c3.284,0.167,7.769,1.196,10.669-0.815c1.641-1.137,3.599-3.585,1.939-5.568
		C357.837,180.991,353.101,182.079,350.454,182.211z"/>
	<path d="M375.429,182.997c-1.562,0.298-4.074,3.442-1.362,3.982c5.302,1.055,10.68,1.04,16.041,1.619
		c3.804,0.411,9.814,2.446,10.831-3.249c0.292-1.633-0.422-3.276-2.193-3.589C390.971,180.39,383.096,181.534,375.429,182.997z"/>
	<path d="M429.435,182.131c-4.552,0.187-9.11,0.8-13.546,1.83c-1.765,0.41-3.256,3.53-0.893,4.168
		c3.856,1.041,7.828,1.454,11.808,1.695c4.055,0.245,8.691,1.164,12.172-1.27c1.454-1.017,3.163-3.147,1.71-4.911
		C438.196,180.619,432.938,181.988,429.435,182.131z"/>
	<path d="M452.106,186.896c6.564,1.448,13.387,1.411,20.059,1.996c5.199,0.456,8.482-8.316,2.679-7.83
		c-7.144,0.598-14.376,0.653-21.433,2.019C451.899,183.374,449.521,186.326,452.106,186.896z"/>
	<path d="M507.416,189.137c5.005,0.643,8.728-8.237,2.47-8.27c-5.168-0.028-11.088-0.001-16.02,1.648
		c-1.465,0.49-4.208,3.824-1.676,4.875C496.678,189.255,502.514,189.172,507.416,189.137z"/>
	<path d="M520.471,209.528c-0.15-1.992-2.843-0.456-2.942,0.943c-3.18,45.087,0.126,90.72-3.784,135.7
		c-0.839,0.4-1.625,1.204-1.872,2c-3.258,10.479-4.562,21.522-7.708,32.068c-3.523,11.808-8.518,23.415-15.4,33.665
		c-6.107,9.097-14.189,17.178-24.827,20.575c-6.614,2.112-13.395,1.147-19.382-2.264c-2.835-1.615-5.387-4.141-6.784-7.126
		c-1.481-3.164,0.573-6.291,1.566-9.198c0.382-1.119-1.038-1.392-1.754-0.98c-3.864,2.223-5.51,5.856-5.714,9.783
		c-0.042-0.642-0.102-1.28-0.205-1.909c-0.116-0.714-1.062-0.409-1.261,0.102c-5.958,15.251-10.341,31.005-17.378,45.887
		c-3.965,8.385-8.071,16.89-13.589,24.383c-1.853,2.516-3.876,4.854-6.338,6.791c-1.565,1.231-2.814,1.067-5.285,1.609
		c-1.627,0.357-3.904,2.828-3.701,4.812c-8.297-2.252-16.895-3.176-25.456-3.93c-11.475-1.01-22.968-1.733-34.477-2.221
		c-24.44-1.037-48.924-0.908-73.378-0.563c-23.918,0.337-47.82,0.67-71.741,0.42c-12.472-0.13-24.943-0.228-37.413,0.081
		c-11.042,0.274-23.098,0.273-33.793,3.564c0.056-0.138,0.122-0.27,0.17-0.412c1.55-4.601-0.764-10.377-1.258-14.984
		c-0.903-8.414-1.373-16.803-1.579-25.266c-0.351-14.404,0.234-28.811,0.302-43.214c0.068-14.295-0.227-28.574,0.041-42.873
		c0.525-27.973,1.9-56.009,0.78-83.983c-1.119-27.927-4.214-55.806-6.157-83.68c-0.202-2.9-4.181-0.687-4.308,1.381
		c-1.683,27.487,2.166,55.15,3.465,82.573c1.324,27.953-0.108,56.028-0.703,83.984c-0.596,28.032-0.557,56.13-0.597,84.169
		c-0.013,9.106,0.361,18.174,1.045,27.249c0.277,3.669,0.461,7.288,0.391,10.97c-0.024,1.255,0.169,2.678,0.441,3.898
		c0.106,0.474,0.403,2.044,0.388,1.471c0.221,1.131,0.846,2.191,2.133,2.336c0.008,0.001,0.016,0.002,0.024,0.003
		c0.659,0.074,1.277,0.013,1.851-0.149c0.137,0.261,0.417,0.456,0.909,0.52c10.758,1.4,22.183-0.334,33.011-0.555
		c11.781-0.241,23.564-0.068,35.344,0.157c23.902,0.456,47.785,0.482,71.69,0.354c23.806-0.127,47.617-0.261,71.413,0.58
		c11.596,0.41,23.166,1.171,34.727,2.143c9.126,0.767,18.494,1.508,27.411,3.837c1.829,1.152,3.778,1.765,6.251,1.928
		c0.638,0.042,1.298-0.073,1.942-0.301c0.028,0.126,0.051,0.253,0.093,0.38c1.017,3.093,4.827,1.869,6.802-0.521
		c0.049-0.038,0.127-0.105,0.265-0.232c0.41-0.353,0.853-0.671,1.286-0.995c1.249-0.932,2.459-1.918,3.702-2.859
		c3.604-2.729,7.305-5.331,11.006-7.925c8.217-5.757,16.43-10.802,25.325-15.498c12.881-6.8,26.18-13.362,37.447-22.716
		c9.327-7.743,17.288-17.215,23.503-27.607c13.593-22.727,19.078-49.097,22.467-75.053c4.043-30.96,4.48-62.333,3.996-93.508
		C522.566,249.38,521.969,229.418,520.471,209.528z M394.097,515.437c0.055-0.074,0.102-0.152,0.152-0.227
		c-0.005,0.026-0.01,0.053-0.016,0.079C394.174,515.353,394.144,515.387,394.097,515.437z M467.326,461.526
		c-11.594,9.541-26.12,15.727-39.331,22.649c-8.175,4.284-15.633,9.356-23.205,14.613c-1,0.694-1.999,1.39-2.996,2.089
		c0.014-0.016,0.029-0.034,0.043-0.05c6.123-7.221,10.461-16.28,14.312-24.851c4.438-9.878,8.127-20.133,11.343-30.468
		c1.756-5.643,4.199-12.213,4.42-18.434c0.099,1.151,0.302,2.308,0.597,3.444c1.828,7.038,11.795,10.779,18.002,11.889
		c13.954,2.495,27.787-6.579,36.738-16.384c7.97-8.731,13.861-19.158,18.432-30.053c-0.196,0.778-0.379,1.556-0.582,2.333
		C498.66,422.885,487.184,445.184,467.326,461.526z"/>
	<path d="M55.396,467.803c-4.311-0.932-5.318-3.75-6.563-7.78c-1.624-5.258-2.057-10.876-2.302-16.343
		c-0.526-11.706,0.692-23.468,1.893-35.097c2.826-27.347,3.372-54.886,4.909-82.337c1.828-32.65,1.254-65.406,3.774-98.003
		c2.428-31.406,8.878-63.726,4.868-95.176c-1.643-12.888-4.412-26.262-1.712-39.17c0.372-1.778-2.197-1.096-2.525,0.205
		c-3.737,14.804-1.647,29.224,0.041,44.14c1.836,16.224,0.045,32.401-1.454,48.587c-1.445,15.603-3.091,31.186-4.267,46.813
		c-1.227,16.301-1.275,32.564-1.595,48.895c-0.643,32.826-3.485,65.563-4.646,98.369c-0.792,22.387-5.496,44.652-4.456,67.098
		c0.268,5.777,1.12,11.572,2.919,17.079c0.726,2.221,1.483,5.459,3.058,7.254c0.965,1.1,2.802,1.218,4.428,1.098
		c0.442,0.132,0.999,0.09,1.657-0.19c0.037-0.006,0.081-0.011,0.118-0.017C56.041,473.207,58.782,468.536,55.396,467.803z
		 M53.658,473.138c0.046-0.023,0.089-0.037,0.136-0.062C53.748,473.1,53.703,473.12,53.658,473.138z"/>
	<path d="M228.381,404.512c-1.34,2.562,1.438,3.925,3.51,2.818c4.636-2.475,8.379-6.651,12.269-10.126
		c2.082-1.859,4.232-3.615,6.464-5.25c-1.194,5.34-1.659,10.923-2.135,16.276c-0.754,8.474-0.522,17.118-0.408,25.617
		c0.104,7.772,0.36,15.779,1.468,23.472c0.423,2.937,1.082,5.802,1.357,8.743c-3.425,0.977-6.672,2.424-9.555,4.574
		c-3.636,2.712-0.882,7.185,3.175,5.294c1.073-0.5,2.203-0.897,3.354-1.248c5.054-0.153,9.95-0.106,15.023,0.36
		c5.281,0.485,10.745,1.845,16.029,1.889c1.445,0.012,3.318-1.402,4.446-3.07c0.397,0.126,0.803,0.225,1.221,0.29
		c2.599,0.399,6.067-1.801,6.349-4.578c0.476-4.702-3.534-4.864-7.116-5.1c-0.136-0.009-0.273-0.014-0.41-0.023
		c-0.319-27.655-5.557-56.158,4.421-82.732c0.935-2.491,0.013-4.937-2.961-4.843c-10.387,0.326-20.94,0.303-31.282,1.316
		c-1.842,0.18-4.168,3.223-3.401,4.749c-2.618,1.927-5.025,4.124-6.856,5.624C237.962,392.975,231.649,398.265,228.381,404.512z"/>
	<path d="M335.106,446.023c13.245-7.558,28.711-10.255,39.183-22.199c9.771-11.145,5.768-27.202-2.393-37.953
		c-8.488-11.181-24.491-14.922-37.525-10.63c-3.569-1.921-10.809,1.966-13.51,3.283c-6.133,2.99-11.468,7.792-15.932,12.872
		c-3.466,3.945-6.354,9.376-6.498,14.699c-0.061,2.254,0.853,4.016,2.256,5.169c-0.008,0.029-0.017,0.058-0.026,0.087
		c-0.684,2.355,1.275,3.945,3.427,3.905c5.463-0.102,10.829-1.005,16.126-2.312c1.962-0.484,4.568-3.11,4.122-5.334
		c-1.816-9.061-0.72-17.008,0.779-25.825c3.383-1.615,7.338-2.053,10.307-4.305c0.105-0.079,0.178-0.182,0.235-0.292
		c4.444,1.116,8.935,1.77,13.335,3.029c4.06,8.319,9.119,15.663,10.509,25.185c0.769,5.269,0.179,10.695-1.733,15.658
		c-0.995,2.583-2.476,4.853-4.173,7.019c-0.718,0.916-1.488,1.752-2.04,2.671c-5.317,2.397-10.762,4.473-15.958,6.96
		c-0.046-0.223-0.238-0.379-0.629-0.3c-8.023,1.631-14.621,4.139-20.262,10.392c-5.543,6.145-8.788,15.275-7.996,23.573
		c0.193,2.026,1.472,2.772,2.979,2.718c0.415,0.613,0.955,0.987,1.563,1.168c0.155,0.269,0.437,0.472,0.894,0.552
		c4.246,0.74,8.7,0.125,12.965-0.258c5.435-0.488,10.888-0.709,16.34-0.913c10.86-0.407,21.723,0.053,32.571,0.557
		c3.289,0.153,6.298-2.183,6.4-5.616c0.06-2.033,0.266-4.049,0.358-6.057c0.778-1.581,0.924-3.24-0.069-4.114
		c-0.091-0.94-0.235-1.879-0.487-2.819c-0.542-2.026-2.858-2.657-4.627-2.471c-0.597,0.063-1.091,0.217-1.525,0.429
		c-9.367-1.096-18.716-0.504-28.045,0.869c-8.051,1.185-16.762,2.272-24.762,4.534c0.022-0.058,0.041-0.117,0.063-0.175
		C323.751,453.544,329.291,449.342,335.106,446.023z M365.593,392.594c-0.252-0.602-0.519-1.198-0.803-1.784
		c0.239,0.311,0.472,0.625,0.701,0.944C365.521,392.035,365.555,392.315,365.593,392.594z"/>
</g>
<g id="Page-1">
	<path id="month_december" d="M400.419,300.219h23.41v-11.332c0-5.511-0.418-9.459-1.254-11.843
		c-0.557-1.579-1.951-3.777-4.18-6.595l-3.623,7.57c2.322,2.508,3.777,4.428,4.366,5.759c0.867,1.92,1.3,4.706,1.3,8.36h-19.831
		c0-4.366-0.464-7.772-1.393-10.218c-1.177-3.127-3.112-4.691-5.805-4.691c-2.663,0-4.861,1.579-6.595,4.737
		c-1.486,2.725-2.229,5.682-2.229,8.871c0,3.468,1.177,5.96,3.53,7.477c2.075,1.331,5.202,1.997,9.382,1.997
		c-2.446,3.282-4.335,5.651-5.666,7.106c-2.632,2.88-5.264,5.078-7.895,6.595c-3.375,1.92-6.951,2.88-10.728,2.88
		c-1.517,0-3.228-0.224-5.132-0.673c-1.904-0.449-3.723-0.875-5.457-1.277l-0.79,1.626c2.013,0.681,4.025,1.378,6.038,2.09
		c2.539,0.836,4.598,1.424,6.177,1.765c2.167,0.464,4.273,0.697,6.316,0.697c5.511,0,10.372-2.818,14.583-8.453
		C398.031,308.537,399.857,304.388,400.419,300.219z M444.032,300.219h39.106v-8.081c-2.291-4.49-5.326-8.824-9.103-13.004
		c-3.499-3.901-7.601-7.632-12.308-11.193c-1.269-0.929-2.523-1.858-3.762-2.787c-1.982-1.486-2.972-2.585-2.972-3.297
		s1.517-1.734,4.551-3.065c2.384-1.053,5.511-2.214,9.382-3.483l9.707-3.251v-8.035l-13.097,5.109
		c-5.914,2.229-10.078,4.737-12.493,7.524c-2.601,3.034-3.901,7.214-3.901,12.54c0,0.898,0.96,2.152,2.879,3.762l5.48,4.18
		l1.533-1.44c4.737,2.818,8.499,5.442,11.286,7.872c2.787,2.431,5.264,5.287,7.431,8.569h-33.718h-4.877
		c-1.022,0-1.966-0.65-2.833-1.951c-1.053-1.548-1.858-5.078-2.415-10.589c-0.31-12.013-0.619-19.63-0.929-22.85
		c-0.495-5.171-1.347-9.614-2.554-13.329l-5.713,9.01c1.208,1.115,2.152,2.415,2.833,3.901c0.557,1.208,0.999,2.763,1.324,4.668
		c0.325,1.904,0.588,4.699,0.79,8.383s0.395,7.276,0.581,10.775c0.31,4.304,0.751,7.926,1.324,10.868s1.417,5.155,2.531,6.641
		c1.269,1.703,2.957,2.554,5.062,2.554H444.032z M420.113,257.258l-3.53,6.734l-7.524-3.901l3.437-6.734L420.113,257.258z
		 M397.681,292.37c-0.681-2.972-1.502-5.031-2.462-6.177c-0.836-0.991-1.858-1.486-3.065-1.486c-0.867,0-1.618,0.286-2.253,0.859
		c-0.635,0.573-0.952,1.293-0.952,2.16c0,1.517,0.681,2.671,2.044,3.46C392.356,291.975,394.585,292.37,397.681,292.37z
		 M342.227,264.596l-3.483,6.641l-7.245-3.994l3.344-6.456L342.227,264.596z M359.505,300.219c0,6.905-2.028,11.982-6.084,15.234
		c-4.366,3.499-11.41,5.248-21.132,5.248c-6.193,0-10.93-1.084-14.212-3.251c-3.592-2.384-5.387-6.038-5.387-10.961
		c0-2.663,0.325-5.356,0.975-8.081c0.65-2.725,1.533-5.465,2.647-8.221c0.681-1.672,1.858-4.242,3.53-7.71l1.858,0.836
		c-2.167,4.459-3.599,7.973-4.296,10.543c-0.697,2.57-1.045,4.923-1.045,7.059c0,3.839,1.37,6.758,4.11,8.755
		c2.74,1.997,6.649,2.996,11.727,2.996c5.852,0,11.038-1.037,15.559-3.112c5.604-2.57,8.406-6.161,8.406-10.775
		c0-3.158-0.464-6.1-1.393-8.824c-0.805-2.415-1.951-4.521-3.437-6.316l3.855-9.521c1.641,2.508,2.771,5.062,3.39,7.663
		c0.619,2.601,0.929,6.053,0.929,10.357V300.219z M279.064,288.375c0,2.477-0.449,4.877-1.347,7.199
		c-0.464,1.238-1.471,3.205-3.019,5.898l-0.836-0.464c0.093-0.898,0.178-1.935,0.255-3.112c0.077-1.177,0.116-1.966,0.116-2.369
		c0-3.22-0.255-7.717-0.766-13.492c-0.511-5.775-1.122-11.804-1.835-18.09c-0.433-3.808-0.913-7.694-1.44-11.657
		c0.619-1.362,1.324-2.833,2.113-4.412c0.79-1.579,1.54-3.065,2.253-4.459c0.495,3.53,1.122,8.36,1.881,14.49
		c0.759,6.131,1.355,11.657,1.788,16.58C278.785,280.619,279.064,285.248,279.064,288.375z M259.836,251.128l-2.229,8.36
		l-2.74-1.347l0.093,4.226c0,4.149-0.526,8.174-1.579,12.075c-1.146,4.273-2.957,8.499-5.434,12.679
		c1.177,2.167,1.997,3.87,2.462,5.109c0.712,1.951,1.068,3.932,1.068,5.945c0,1.146-0.031,2.121-0.093,2.926
		s-0.201,1.749-0.418,2.833c-3.282,0.743-6.788,1.324-10.519,1.742c-3.731,0.418-7.361,0.627-10.891,0.627
		c0.031-0.588,0.046-1.084,0.046-1.486c0.155-2.353,0.526-4.536,1.115-6.549c5.264-2.818,9.707-6.471,13.329-10.961
		c-2.167-4.087-3.746-6.982-4.737-8.685c-1.084-1.858-2.926-4.753-5.527-8.685c-0.96-1.331-1.811-2.4-2.554-3.205
		c-1.022-1.084-1.827-1.626-2.415-1.626c-0.403,0-1.068,0.232-1.997,0.697c-0.495,0.248-0.913,0.372-1.254,0.372
		c-0.681,0-1.749-0.681-3.205-2.044c-1.269-1.208-2.601-2.694-3.994-4.459c-1.115-1.424-1.873-2.609-2.276-3.553
		c-0.403-0.944-0.604-2.082-0.604-3.414c0-1.92,0.124-3.421,0.372-4.505c0.372-1.641,1.006-2.462,1.904-2.462
		c1.269,0,3.112,1.208,5.527,3.623c2.136,2.167,4.52,5.016,7.152,8.546c2.322,3.127,4.613,6.502,6.874,10.125l4.737,7.617
		c1.393,2.291,2.818,4.892,4.273,7.803c2.075-4.18,3.499-8.406,4.273-12.679c0.681-3.716,1.022-8.453,1.022-14.212l-2.647-1.533
		c0-2.044,0.178-3.894,0.534-5.55c0.356-1.656,0.859-3.166,1.509-4.528l1.068,0.279c0.124,1.331,0.867,2.4,2.229,3.205
		c0.743,0.433,1.695,0.929,2.856,1.486S259.217,250.88,259.836,251.128z M226.397,237.752c0,0.774-0.48,1.471-1.44,2.09
		c-0.65,0.403-1.626,0.836-2.926,1.3l-8.639,2.972c0-1.424,1.548-2.678,4.644-3.762c-0.96-0.495-1.687-0.975-2.183-1.44
		c-0.65-0.588-0.975-1.208-0.975-1.858c0-0.96,0.82-2.307,2.462-4.041c1.827-1.92,3.437-2.88,4.83-2.88
		c0.619,0,1.153,0.209,1.602,0.627c0.449,0.418,0.673,0.968,0.673,1.649c0,0.433-0.093,0.875-0.279,1.324
		c-0.186,0.449-0.449,0.952-0.79,1.509c-0.96-0.867-1.997-1.3-3.112-1.3c-0.681,0-1.355,0.139-2.02,0.418
		c-0.666,0.279-0.999,0.604-0.999,0.975c0,0.464,0.72,1.099,2.16,1.904c1.44,0.805,2.671,1.208,3.692,1.208
		c0.681,0,1.169-0.023,1.463-0.07S225.468,238.123,226.397,237.752z M211.628,297.432c0,5.109-1.889,10.187-5.666,15.234
		c-4.211,5.635-9.072,8.453-14.583,8.453c-2.044,0-4.149-0.232-6.316-0.697c-1.579-0.341-3.638-0.929-6.177-1.765
		c-2.013-0.712-4.025-1.409-6.038-2.09l0.79-1.626c1.734,0.403,3.553,0.828,5.457,1.277c1.904,0.449,3.615,0.673,5.132,0.673
		c3.777,0,7.354-0.96,10.728-2.88c2.632-1.517,5.264-3.715,7.895-6.595c1.331-1.455,3.22-3.824,5.666-7.106
		c-4.18,0-7.307-0.666-9.382-1.997c-2.353-1.517-3.53-4.01-3.53-7.477c0-3.189,0.743-6.146,2.229-8.871
		c1.734-3.158,3.932-4.737,6.595-4.737c2.694,0,4.629,1.564,5.805,4.691c0.929,2.446,1.393,5.852,1.393,10.218V297.432z
		 M208.702,292.37c-0.681-2.972-1.502-5.031-2.462-6.177c-0.836-0.991-1.858-1.486-3.065-1.486c-0.867,0-1.618,0.286-2.253,0.859
		s-0.952,1.293-0.952,2.16c0,1.517,0.681,2.671,2.044,3.46C203.377,291.975,205.606,292.37,208.702,292.37z M170.525,294.46
		c0,4.954-1.161,8.886-3.483,11.797c-2.074,2.57-5.124,4.412-9.149,5.527c-3.406,0.929-7.725,1.393-12.958,1.393
		c-5.976,0-10.605-1.099-13.887-3.298c-3.592-2.415-5.387-6.022-5.387-10.821c0-2.663,0.387-5.434,1.161-8.313
		c0.65-2.446,1.641-5.124,2.972-8.035c0.96-2.105,2.26-4.644,3.901-7.617l1.486,0.882c-1.146,2.074-2.105,3.932-2.88,5.573
		c-1.022,2.198-1.78,4.164-2.276,5.898c-0.588,2.105-0.882,4.149-0.882,6.131c0,3.808,1.386,6.688,4.157,8.638
		c2.771,1.951,6.618,2.926,11.541,2.926c5.233,0,10.078-0.898,14.537-2.694c4.892-1.982,7.338-4.35,7.338-7.106
		c0-3.003-0.48-8.097-1.44-15.28c-0.743-5.511-1.656-11.673-2.74-18.485l-1.533-9.01l-2.136-1.115c0-4.149,0.851-7.926,2.554-11.332
		h0.79c0.124,1.177,0.341,2.051,0.65,2.624c0.31,0.573,0.82,0.999,1.533,1.277c0.96,0.403,2.013,0.882,3.158,1.44
		c0.836,0.403,1.564,0.759,2.183,1.068c0,2.167-0.077,3.746-0.232,4.737s-0.464,2.384-0.929,4.18l-2.647-0.836
		c0.062,0.681,0.511,3.793,1.347,9.335c0.96,6.471,1.672,11.719,2.136,15.744C170.154,286.131,170.525,291.054,170.525,294.46z"/>
</g>
</svg>
