<?xml version="1.0" encoding="utf-8"?>
<!-- Generator: Adobe Illustrator 17.0.0, SVG Export Plug-In . SVG Version: 6.00 Build 0)  -->
<!DOCTYPE svg PUBLIC "-//W3C//DTD SVG 1.1//EN" "http://www.w3.org/Graphics/SVG/1.1/DTD/svg11.dtd">
<svg version="1.1" id="Layer_1" xmlns="http://www.w3.org/2000/svg" xmlns:xlink="http://www.w3.org/1999/xlink" x="0px" y="0px"
	 width="566.93px" height="566.93px" viewBox="0 0 566.93 566.93" enable-background="new 0 0 566.93 566.93" xml:space="preserve">
<g>
	<path fill="#231F20" d="M525.793,182.483c-0.782-8.838-2.378-17.602-3.667-26.375c-1.332-9.069-2.059-18.193-2.351-27.354
		c-0.404-12.637,1.331-26.144-1.372-38.555c-0.257-1.18-1.615-0.607-2.362,0.149c-0.584-1.044-1.962-1.537-3.15-1.505
		c-8.042,0.217-16.091,0.543-24.146,0.684c-8.058,0.141-17.091-0.718-24.834,1.814c-0.973,0.318-2.811,2.567-1.117,3.251
		c6.697,2.704,15.367,1.717,22.471,1.842c7.697,0.136,15.382,0.412,23.068,0.638c1.313,1.629,4.439,0.965,6.003-0.413
		c0.046-0.04,0.091-0.081,0.137-0.121c0.076-0.067,0.148-0.139,0.22-0.21c-1.467,10.69-1.193,21.898-1.281,32.561
		c-0.075,9.058,0.117,18.07,1.112,27.074c0.943,8.526,2.185,17.015,3.004,25.555c0.343,3.583,0.568,7.18,0.523,10.78
		c-0.024,1.881-0.57,3.529-0.714,5.262c-1.774-0.529-3.458-0.682-5.471-0.602c-0.365,0.015-0.734,0.121-1.1,0.27
		c-62.232-4.531-124.769,0.974-187.05,1.196c-62.76,0.224-125.539-7.316-188.276-2.873c-11.536,0.817-23.056,2.12-34.458,4.076
		c0.729-0.879,1.206-1.917,1.196-2.969c-0.018-2.041-0.25-3.504-1.303-5.053c-1.341-6.561-0.976-13.707-0.828-20.233
		c0.188-8.3,0.753-16.581,0.607-24.887c-0.158-8.976-1.117-17.816-2.55-26.672c-1.228-7.586-1.782-15.653-3.471-23.224
		c6.702,0.092,13.386,0.206,20.102,0.573c7.22,0.395,14.018-0.37,21.087-0.873c0.762,0.009,1.527-0.038,2.291-0.154
		c2.042-0.311,3.846-1.513,4.743-3.419c0.794-1.688,0.486-4.66-1.928-4.809c-3.42-0.212-6.685,1.153-10.093,1.545
		c-4.476,0.515-9.027,0.411-13.522,0.308c1.417-2.752,2.432-5.895,3.122-7.341c3.604-7.548,7.7-14.799,15.035-19.194
		c0.961-0.576,1.721-3.022-0.152-2.708c-7.538,1.262-12.81,9.664-16.498,15.613c-2.127,3.43-4.032,6.988-6.086,10.461
		c-0.654,1.105-1.46,2.021-2.122,2.941c-7.348-0.267-14.723-0.346-21.739,2.093c-0.317,0.11-0.617,0.289-0.896,0.507
		c-5.993-0.081-11.987-0.778-17.948-1.313c-1.869-0.168-4.92,2.76-2.548,4.186c1.071,0.644,2.201,1.192,3.371,1.665
		c-0.69,0.318-1.343,0.896-1.48,1.459c-7.185,29.664-2.361,61.193-5.41,91.36c-3.282,32.484-5.563,65.183-6.993,97.798
		c-1.325,30.211,0.312,59.982,2.718,90.096c2.376,29.732,4.823,59.761,1.487,89.518c-0.696,6.213-1.856,12.338-3.256,18.428
		c-0.415,1.806,0.55,3.108,2.217,3.628c9.731,3.035,20.009,1.405,29.976,1.197c4.639-0.096,7.81-8.439,1.781-8.313
		c-8.418,0.175-16.995,1.55-25.308-0.143c9.57-57.243-3.253-114.839-3.133-172.298c0.068-32.568,2.73-65.221,5.164-97.679
		c1.173-15.656,2.553-31.23,2.592-46.942c0.038-15.332-0.491-30.647,0.017-45.977c0.236-7.122,0.889-14.236,1.44-21.339
		c0.004-0.049-0.003-0.087-0.003-0.132c4.336,1.435,9.088,1.987,13.493,2.419c1.178,0.116,2.38-0.186,3.372-0.826
		c-0.502,7.009,0.977,14.284,1.945,21.116c1.354,9.565,2.116,19.026,2.188,28.687c0.128,17.064-2.058,33.573,0.163,50.609
		c0.348,2.669,2.335,3.094,4.284,2.356c-0.705,1.332-0.579,2.798,1.404,2.594c62.445-6.424,124.885-1.438,187.41,0.659
		c64.83,2.174,129.708-4.407,194.494-1.264c10.895,0.528,21.751,1.455,32.605,2.519c2.2,0.216,5.647-2.369,6.499-4.772
		c0.985-0.219,1.958-0.703,2.504-1.127C527.846,196.558,526.263,187.792,525.793,182.483z"/>
	<path fill="#231F20" d="M138.672,62.531c0.503-0.094,1.015-0.191,1.53-0.288c-0.452,0.586-0.634,1.288-0.256,1.928
		c4.3,7.271,6.833,15.984,8.515,24.205c1.578,7.713,3.579,18.088,0.457,25.644c-0.643,1.556-0.609,3.248,0.942,4.225
		c0.917,0.577,1.902,0.425,2.887,0.14c1.819-0.527,3.34-2.181,3.771-4.009c1.995-8.465,0.659-17.934-1.107-26.303
		c-1.941-9.199-4.578-19.645-11.446-26.488c5.477-0.833,11.164-0.941,15.535,2.83c4.679,4.036,7.064,9.444,8.725,15.285
		c3.232,11.365,3.386,24.068,2.706,35.916c-0.179,0.927-0.232,1.871-0.171,2.744c0.381,5.444,8.778,1.687,8.474-2.717
		c0.037-0.556,0-1.166-0.107-1.77c-0.841-14.394,0.004-28.982-5.23-42.726c-1.753-4.604-6.558-13.908-12.378-14.374
		c-7.94-0.635-16.557-1.89-23.393,3.235C137.237,60.674,137.085,62.829,138.672,62.531z"/>
	<path fill="#231F20" d="M184.785,90.578c19.605,4.352,40.761,4.034,60.751,4.226c20.09,0.192,40.256,0.304,60.342-0.107
		c19.091-0.391,38.138-2.076,57.223-2.678c9.457-0.298,18.911-0.276,28.356,0.313c4.391,0.274,8.767,0.728,13.128,1.299
		c2.29,0.3,4.563,0.784,6.844,1.145c0.482,1.2,1.684,1.849,3.776,1.014c0.649-0.259,1.239-0.419,1.791-0.557
		c0.032-0.001,0.064,0.002,0.096,0.001c-0.003-0.007-0.006-0.015-0.009-0.022c1.545-0.383,2.798-0.622,4.223-2.425
		c0.71-0.899,1.048-1.878,1.056-2.783c0.767,5.208,1.547,10.542,1.727,15.802c0.047,1.377,0.14,2.751,0.133,4.129
		c-0.002,0.326,0.002,1.512,0.023,2.336c-0.153,1.497,0.027,2.929,1.412,3.941c2.451,1.791,6.526-1.528,6.85-3.981
		c0.951-7.208-1.251-15.938-2.352-22.943c-1.06-6.747-2.685-13.39-4.523-19.963c-1.431-5.12-3.528-11.351-7.475-15.181
		c1.955,0.109,3.922,0.051,5.929-0.021c3.783-0.137,9.101-1.5,12.03,1.396c5.043,4.987,8.135,11.29,10.148,18.01
		c3.566,11.903,2.898,24.337,2.495,36.6c-0.896,0.684-1.578,1.766-1.421,2.724c0.385,2.348,0.643,3.648,2.755,4.983
		c3.179,2.011,7.34-2.17,7.292-5.243c-0.238-15.164,0.121-31.189-4.832-45.713c-2.448-7.18-6.758-13.648-12.621-18.454
		c-0.941-0.771-1.912-0.99-3.104-0.608c-2.536,0.813-5.526,0.67-8.165,0.879c-4.947,0.39-9.907,0.758-14.737,1.933
		c-0.347,0.084-0.68,0.33-0.937,0.642c-6.611-2.29-13.484,2.202-17.792,7.025c-5.188,5.81-8.126,14.562-9.953,22.007
		c-1.274,5.191,6.505,3.29,7.514-0.608c1.425-5.506,2.444-10.884,5.009-16.031c3.3-6.627,8.122-7.909,14.921-9.2
		c0.378-0.072,0.931-0.428,1.348-0.873c0.307,0.069,0.613,0.135,0.919,0.19c-0.584,0.444-0.974,1.108-0.846,1.825
		c0.86,4.819,2.843,9.524,4.152,14.256c1.725,6.229,2.951,12.605,3.921,18.993c-0.421-1.178-1.539-2.041-3.274-2.091
		c-8.181-0.235-16.434-2.154-24.684-2.521c-9.224-0.411-18.459-0.342-27.686-0.091c-19.14,0.522-38.229,2.173-57.363,2.818
		c-19.431,0.655-38.918,0.789-58.359,0.984c-21.335,0.214-42.335-1.363-63.599-2.534C184.646,85.28,181.166,89.775,184.785,90.578z"
		/>
	<path fill="#231F20" d="M167.497,124.652c0.782-1.5,0.394-4.256-1.749-4.362c-4.133-0.204-7.676,2.854-12.117,2.616
		c-2.058-0.111-4.244-0.842-5.839-2.172c-1.601-1.334-2.03-4.071-3.98-4.808c-0.5-0.189-1.097-0.093-1.483,0.309
		c-5.045,5.236,1.677,11.392,6.589,12.995C154.543,131.066,164.446,130.504,167.497,124.652z"/>
	<path fill="#231F20" d="M444.123,116.863c-7.543,4.154-19.867,3.891-24.992-3.855c-0.655-0.99-2.358,0.259-2.452,1.099
		c-1.684,15.225,20.936,14.432,30.103,9.706C451.713,121.27,449.703,113.79,444.123,116.863z"/>
	<path fill="#231F20" d="M109.714,184.668c-2.82,0.266-6.584,6.194-2.266,6.625c3.211,0.321,6.433,0.417,9.654,0.594
		c3.03,0.167,6.095,0.843,9.122,0.694c2.607-0.128,7.368-5.653,3.397-7.179C123.85,183.184,115.767,184.098,109.714,184.668z"/>
	<path fill="#231F20" d="M146.057,188.096c2.895,1.286,6.403,1.28,9.518,1.37c4.199,0.122,7.976,0.31,11.714-1.928
		c1.262-0.755,3.594-4.178,1.09-5.086c-3.165-1.146-5.906-0.746-9.19-0.527c-3.451,0.23-6.933,0.057-10.373,0.339
		C146.691,182.439,142.856,186.674,146.057,188.096z"/>
	<path fill="#231F20" d="M197.046,181.187c-3.121,0.18-6.252,0.456-9.334,0.99c-2.24,0.388-5.714,4.877-1.92,5.614
		c5.469,1.062,13.525,2.604,18.231-1.082c1.128-0.883,1.633-2.508,0.798-3.725C203.334,180.817,199.315,181.057,197.046,181.187z"/>
	<path fill="#231F20" d="M227.642,181.945c-2.418,0.432-6.187,5.249-2.078,6.074c5.15,1.034,11.322,1.544,16.566,1.036
		c1.983-0.192,3.805-1.559,4.648-3.351c0.81-1.722,0.452-4.473-1.89-4.713C239.367,180.425,233.084,180.974,227.642,181.945z"/>
	<path fill="#231F20" d="M273.892,181.68c-3.238-0.045-6.88-0.014-10.027,0.819c-2.23,0.59-3.921,4.178-1.096,5.112
		c2.643,0.874,5.808,1.185,8.564,1.55c2.902,0.384,5.553,0.995,8.443,0.289c2.445-0.597,5.541-5.154,2.353-6.842
		C279.689,181.317,276.584,181.718,273.892,181.68z"/>
	<path fill="#231F20" d="M313.277,182.785c-4.093,0.311-8.113,0.206-12.203-0.064c-1.915-0.126-5.189,2.883-2.665,4.378
		c5.697,3.374,12.957,2.341,19.296,2.626c1.809,0.081,3.484-1.623,4.254-3.067C324.376,182.128,315.719,182.6,313.277,182.785z"/>
	<path fill="#231F20" d="M350.458,182.194c-3.501,0.174-7.56,0.014-10.893,1.243c-1.55,0.571-4.295,3.816-1.729,5.028
		c2.746,1.296,6.377,1.11,9.34,1.261c3.289,0.167,7.777,1.196,10.683-0.817c1.648-1.143,3.615-3.602,1.948-5.595
		C357.848,180.974,353.109,182.063,350.458,182.194z"/>
	<path fill="#231F20" d="M375.429,182.998c-1.558,0.31-4.076,3.412-1.361,3.982c5.288,1.11,10.677,1.057,16.033,1.636
		c3.816,0.413,9.836,2.444,10.856-3.267c0.292-1.64-0.425-3.29-2.202-3.604C390.994,180.376,383.074,181.474,375.429,182.998z"/>
	<path fill="#231F20" d="M429.44,182.115c-4.548,0.187-9.127,0.772-13.55,1.846c-1.772,0.431-3.247,3.5-0.893,4.168
		c3.836,1.089,7.83,1.472,11.8,1.711c4.06,0.245,8.7,1.164,12.185-1.273c1.463-1.023,3.181-3.165,1.72-4.938
		C438.207,180.602,432.946,181.971,429.44,182.115z"/>
	<path fill="#231F20" d="M452.106,186.896c6.554,1.481,13.383,1.428,20.051,2.013c5.222,0.458,8.519-8.352,2.691-7.864
		c-7.145,0.598-14.383,0.641-21.437,2.036C451.9,183.38,449.521,186.312,452.106,186.896z"/>
	<path fill="#231F20" d="M507.408,189.154c5.026,0.648,8.766-8.27,2.482-8.304c-5.17-0.028-11.092,0-16.025,1.648
		c-1.475,0.493-4.235,3.849-1.687,4.907C496.668,189.27,502.504,189.189,507.408,189.154z"/>
	<path fill="#231F20" d="M520.471,209.528c-0.149-1.992-2.843-0.455-2.941,0.943c-3.181,45.105,0.119,90.766-3.805,135.768
		c-0.866,0.521-1.675,1.382-1.852,1.933c-3.355,10.437-4.582,21.533-7.726,32.069c-3.521,11.805-8.516,23.409-15.395,33.656
		c-6.105,9.094-14.181,17.171-24.815,20.566c-6.609,2.11-13.386,1.146-19.37-2.264c-2.832-1.613-5.383-4.137-6.778-7.12
		c-1.473-3.148,0.56-6.291,1.549-9.188c0.382-1.119-1.038-1.392-1.754-0.979c-3.828,2.202-5.484,5.77-5.722,9.645
		c-0.043-0.595-0.102-1.187-0.197-1.77c-0.116-0.714-1.061-0.409-1.261,0.102c-5.958,15.251-10.357,31.004-17.394,45.885
		c-3.965,8.383-8.069,16.887-13.587,24.379c-1.852,2.515-3.874,4.852-6.334,6.787c-1.555,1.222-2.792,1.058-5.277,1.603
		c-1.626,0.357-3.898,2.817-3.72,4.805c-8.288-2.246-16.876-3.17-25.429-3.923c-11.477-1.011-22.97-1.732-34.48-2.221
		c-24.44-1.037-48.924-0.908-73.377-0.564c-23.918,0.337-47.82,0.669-71.741,0.42c-12.472-0.131-24.943-0.229-37.413,0.081
		c-11.016,0.273-23.107,0.241-33.773,3.563c0.054-0.133,0.117-0.26,0.163-0.396c1.551-4.603-0.763-10.379-1.257-14.988
		c-0.903-8.414-1.373-16.803-1.58-25.267c-0.351-14.403,0.234-28.811,0.302-43.214c0.067-14.295-0.228-28.574,0.041-42.873
		c0.525-27.973,1.9-56.009,0.779-83.982c-1.118-27.908-4.06-55.833-6.174-83.675c-0.221-2.912-4.17-0.674-4.308,1.381
		c-1.838,27.455,2.15,55.184,3.447,82.578c1.323,27.953-0.108,56.028-0.703,83.984c-0.596,28.031-0.557,56.13-0.597,84.168
		c-0.013,9.106,0.361,18.174,1.045,27.249c0.277,3.669,0.461,7.288,0.391,10.97c-0.024,1.256,0.17,2.681,0.442,3.902
		c0.106,0.476,0.403,2.049,0.387,1.47c0.223,1.135,0.85,2.199,2.143,2.345c0.008,0.001,0.016,0.002,0.024,0.003
		c0.666,0.075,1.291,0.014,1.87-0.152c0.141,0.252,0.418,0.44,0.898,0.506c10.73,1.472,22.199-0.316,33.007-0.537
		c11.781-0.241,23.564-0.068,35.344,0.156c23.902,0.455,47.785,0.483,71.69,0.354c23.806-0.128,47.617-0.261,71.414,0.58
		c11.594,0.409,23.163,1.171,34.723,2.143c9.125,0.767,18.492,1.508,27.409,3.837c1.83,1.151,3.78,1.765,6.253,1.929
		c0.636,0.042,1.294-0.072,1.936-0.298c0.028,0.123,0.05,0.246,0.091,0.37c1.049,3.19,5.064,1.811,6.994-0.718
		c0.006,0.028,0.035,0.021,0.099-0.034c0.41-0.353,0.854-0.671,1.286-0.995c1.25-0.932,2.46-1.918,3.703-2.858
		c3.603-2.729,7.302-5.33,11.002-7.923c8.217-5.757,16.43-10.802,25.325-15.498c12.883-6.801,26.184-13.363,37.451-22.719
		c9.329-7.745,17.292-17.221,23.509-27.614c13.594-22.729,19.079-49.1,22.469-75.058c4.043-30.961,4.481-62.335,3.996-93.512
		C522.583,249.373,521.97,229.418,520.471,209.528z M394.941,511.753c0.035,0.107,0.055,0.224,0.067,0.343
		C394.984,511.982,394.979,511.866,394.941,511.753z M467.316,461.515c-11.593,9.54-26.117,15.725-39.327,22.646
		c-8.175,4.283-15.633,9.356-23.205,14.612c-0.971,0.674-1.941,1.35-2.91,2.029c6.111-7.217,10.444-16.264,14.29-24.825
		c4.438-9.879,8.128-20.136,11.344-30.472c1.742-5.6,4.147-12.112,4.396-18.29c0.103,1.106,0.304,2.217,0.588,3.311
		c1.829,7.042,11.8,10.785,18.012,11.896c13.962,2.497,27.803-6.582,36.759-16.394c7.92-8.676,13.794-19.022,18.351-29.851
		c-0.179,0.708-0.345,1.418-0.53,2.126C498.644,422.882,487.171,445.176,467.316,461.515z"/>
	<path fill="#231F20" d="M55.402,467.79c-4.307-0.932-5.311-3.747-6.556-7.774c-1.624-5.257-2.056-10.873-2.301-16.34
		c-0.525-11.705,0.691-23.467,1.893-35.094c2.826-27.349,3.372-54.889,4.909-82.341c1.828-32.649,1.254-65.406,3.774-98.002
		c2.427-31.406,8.878-63.727,4.868-95.176c-1.643-12.881-4.425-26.265-1.726-39.166c0.372-1.778-2.197-1.095-2.525,0.205
		c-3.739,14.811-1.662,29.22,0.027,44.144c1.836,16.223,0.045,32.399-1.454,48.584c-1.445,15.604-3.092,31.188-4.268,46.816
		c-1.227,16.301-1.275,32.564-1.595,48.894c-0.643,32.826-3.485,65.564-4.646,98.369c-0.792,22.388-5.496,44.652-4.456,67.099
		c0.268,5.778,1.121,11.574,2.92,17.082c0.726,2.222,1.484,5.461,3.06,7.256c0.967,1.103,2.807,1.221,4.435,1.102
		c0.443,0.131,1.001,0.089,1.66-0.19c0.037-0.006,0.081-0.011,0.117-0.017C56.05,473.22,58.805,468.526,55.402,467.79z
		 M53.661,473.15c0.047-0.023,0.09-0.037,0.138-0.063C53.752,473.112,53.706,473.132,53.661,473.15z"/>
	<path fill="#231F20" d="M257.058,380.087c-3,4.199-7.642,12.714-5.895,18.351c-0.463,2.83,1.122,6.014,4.594,5.364
		c5.644-1.057,11.358-1.048,17.073-1.339c4.083-0.207,7.654-4.57,6.592-8.554c-1.879-7.049,0.159-15.609,5.209-21.012
		c1.874-0.551,3.785-1.008,5.733-1.407c5.027-1.027,11.309,0.024,15.258-3.783c0.323-0.311,0.677-0.851,0.461-1.324
		c-2.155-4.729-11.024-2.356-15.096-2.327c-6.121,0.043-13.046,1.559-18.655,3.96C266.144,370.665,260.992,374.579,257.058,380.087z
		 M269.388,390.135c-0.072,0.416-0.139,0.834-0.203,1.254c-0.353,0-0.706,0.004-1.06,0.008
		C268.541,390.973,268.962,390.552,269.388,390.135z"/>
	<path fill="#231F20" d="M307.658,367.107c-0.639,0.297-0.976,1.116-0.598,1.717c1.198,1.902,3.392,2.52,4.906,4.189
		c1.869,2.061,2.872,5.169,4.175,7.598c3.499,6.528,5.767,13.387,5.875,20.834c0.09,6.168-2.09,12.353-5.43,17.47
		c-3.197,4.899-9.213,8.307-12.069,13.329c-10.173,4.704-20.782,8.531-30.391,14.337c-13.079,7.903-21.712,19.627-23.059,34.869
		c-0.002,0.011-0.006,0.022-0.008,0.032c0.002,0,0.003-0.001,0.005-0.001c-0.043,0.488-0.101,0.968-0.129,1.463
		c-0.145,2.59,2.577,4.064,4.814,3.884c1.163-0.094,2.279-0.488,3.28-1.09c3.884-0.052,7.964-1.013,11.457-1.58
		c7.726-1.252,15.366-3.046,23.059-4.478c7.602-1.416,15.308-2.505,23.055-2.47c6.648,0.03,11.583,1.699,16.4,6.177
		c3.984,3.703,11.287-1.328,11.114-6.024c1.338-1.39,2.453-3.063,3.349-4.547c2.279-3.78,3.257-8.315,4.793-12.394
		c0.944-2.507-1.881-3.854-3.638-1.993c-1.474,1.562-2.622,3.201-3.656,4.933c-0.548-0.669-1.137-1.297-1.722-1.875
		c-6.858-6.777-15.285-9.105-24.714-8.581c-10.562,0.587-21.43,3.157-31.843,5.034c-5.1,0.92-10.195,2.004-15.159,3.506
		c-0.611,0.185-1.289,0.385-1.997,0.61c4.764-5.763,11.587-10.09,18.504-13.869c13.207-7.218,28.104-11.649,39.572-21.762
		c10.815-9.535,14.213-24.487,11.693-38.345c-2.268-12.479-11.165-23.238-23.926-20.848
		C313.107,366.064,310.536,365.769,307.658,367.107z"/>
</g>
<g id="Page-1">
	<path id="month_february" d="M286.181,301.416h28.405c0-4.837-0.574-8.526-1.722-11.067c-0.779-1.763-2.705-4.304-5.779-7.624
		l4.796-10.022c2.951,3.73,4.796,6.64,5.533,8.731c1.107,3.156,1.66,8.382,1.66,15.678v4.304h7.562c3.32,0,5.697-0.287,7.132-0.861
		c2.377-0.943,3.566-2.828,3.566-5.656c0-1.189-0.061-2.377-0.184-3.566c-0.123-1.189-0.348-2.521-0.676-3.996l2.521-3.689
		c1.148,3.771,2.09,6.517,2.828,8.239c1.312,2.992,2.746,5.247,4.304,6.763c1.885,1.844,4.14,2.767,6.763,2.767h4.119
		c3.074,0,5.349-0.471,6.825-1.414c1.64-1.066,2.459-2.767,2.459-5.103c0-1.271-0.082-2.5-0.246-3.689
		c-0.164-1.189-0.389-2.48-0.676-3.873l2.582-3.689l1.291,5.779c1.107,4.55,2.459,7.706,4.058,9.468
		c1.394,1.558,3.279,2.336,5.656,2.336c1.107,0,1.998-0.338,2.674-1.014s1.014-1.547,1.014-2.613c0-2.295-0.84-4.714-2.521-7.255
		c-0.287-0.41-1.291-1.742-3.013-3.996l3.996-6.702c1.681,2.541,2.828,4.734,3.443,6.579c0.902,2.787,1.353,6.497,1.353,11.128
		v14.756h-4.734c-2.623,0-4.878-0.359-6.763-1.076c-1.885-0.717-3.607-1.732-5.165-3.043c-1.926,1.517-3.607,2.521-5.042,3.013
		c-2.09,0.738-4.96,1.107-8.608,1.107h-3.996c-2.131,0-4.263-0.41-6.394-1.23c-1.394-0.533-3.115-1.414-5.165-2.644
		c-1.967,1.476-3.771,2.49-5.41,3.043c-1.64,0.553-4.304,0.83-7.993,0.83h-9.714h-30.741h-6.456c-2.787,0-5.021-1.127-6.702-3.382
		c-1.476-1.967-2.592-4.898-3.351-8.792c-0.758-3.894-1.342-8.69-1.752-14.387c-0.246-4.632-0.502-9.386-0.769-14.264
		c-0.266-4.878-0.615-8.577-1.045-11.098c-0.43-2.521-1.014-4.58-1.752-6.179c-0.902-1.967-2.152-3.689-3.75-5.165l7.562-11.928
		c1.599,4.919,2.726,10.8,3.382,17.645c0.41,4.263,0.82,14.346,1.23,30.249c0.738,7.296,1.803,11.969,3.197,14.018
		c1.148,1.722,2.398,2.582,3.75,2.582H286.181z M368.322,245.343l-4.734,8.976l-9.837-5.288l4.55-8.976L368.322,245.343z
		 M380.434,256.287l-4.796,8.853l-9.96-5.288l4.611-8.792L380.434,256.287z M366.293,261.821l-4.673,8.915l-9.96-5.165l4.55-8.915
		L366.293,261.821z M312.803,327.054l-4.796,8.915l-9.96-5.165l4.55-8.976L312.803,327.054z M259.436,312.113h-77.529v-10.698
		l9.407-0.061c2.787,0,5.39-0.369,7.808-1.107c2.787-0.861,5.943-2.377,9.468-4.55c0.738-1.803,1.332-3.74,1.783-5.81
		c0.451-2.07,0.676-4.068,0.676-5.995c0-4.386-0.41-9.222-1.23-14.51c-0.615-3.853-1.537-8.382-2.767-13.588
		c-0.656-2.705-1.517-6.005-2.582-9.899l-3.812-1.906c0.287-2.459,0.707-4.837,1.26-7.132c0.553-2.295,1.322-4.509,2.306-6.64
		c0.656,1.926,2.152,3.423,4.488,4.488c1.926,0.861,4.386,1.435,7.378,1.722c-0.41,4.222-0.717,6.907-0.922,8.054
		c-0.205,1.148-0.594,2.562-1.168,4.242c-0.287-0.041-1.045-0.246-2.275-0.615l-0.799-0.246c1.435,4.796,2.613,9.724,3.535,14.787
		c0.922,5.062,1.383,9.315,1.383,12.758c0,2.91-0.287,6.148-0.861,9.714c-0.205,1.271-0.574,3.238-1.107,5.902
		c7.173-4.14,11.764-6.681,13.772-7.624c6.066-2.869,11.272-4.304,15.617-4.304c5.533,0,9.673,1.619,12.419,4.857
		c2.5,2.951,3.75,7.152,3.75,12.604V312.113z M249.722,296.681c0-2.09-1.076-3.679-3.228-4.765
		c-2.152-1.086-5.236-1.629-9.253-1.629c-2.992,0-6.435,0.656-10.329,1.967c-3.197,1.066-6.599,2.541-10.206,4.427
		c-2.664,1.394-5.41,2.972-8.239,4.734h26.745C244.885,301.416,249.722,299.837,249.722,296.681z"/>
</g>
</svg>
