<?xml version="1.0" encoding="utf-8"?>
<!-- Generator: Adobe Illustrator 17.0.0, SVG Export Plug-In . SVG Version: 6.00 Build 0)  -->
<!DOCTYPE svg PUBLIC "-//W3C//DTD SVG 1.1//EN" "http://www.w3.org/Graphics/SVG/1.1/DTD/svg11.dtd">
<svg version="1.1" id="Layer_1" xmlns="http://www.w3.org/2000/svg" xmlns:xlink="http://www.w3.org/1999/xlink" x="0px" y="0px"
	 width="566.93px" height="566.93px" viewBox="0 0 566.93 566.93" enable-background="new 0 0 566.93 566.93" xml:space="preserve">
<g>
	<path fill="#231F20" d="M525.793,182.483c-0.782-8.838-2.378-17.602-3.667-26.375c-1.332-9.069-2.059-18.193-2.351-27.354
		c-0.404-12.637,1.331-26.144-1.372-38.555c-0.257-1.18-1.615-0.607-2.362,0.149c-0.584-1.044-1.962-1.537-3.15-1.505
		c-8.042,0.217-16.091,0.543-24.146,0.684c-8.058,0.141-17.091-0.718-24.834,1.814c-0.973,0.318-2.811,2.567-1.117,3.251
		c6.697,2.704,15.367,1.717,22.471,1.842c7.697,0.136,15.382,0.412,23.068,0.638c1.313,1.629,4.439,0.965,6.003-0.413
		c0.046-0.04,0.091-0.081,0.137-0.121c0.076-0.067,0.148-0.139,0.22-0.21c-1.467,10.69-1.193,21.898-1.281,32.561
		c-0.075,9.058,0.117,18.07,1.112,27.074c0.943,8.526,2.185,17.015,3.004,25.555c0.343,3.583,0.568,7.18,0.523,10.78
		c-0.024,1.881-0.57,3.529-0.714,5.262c-1.774-0.529-3.458-0.682-5.471-0.602c-0.365,0.015-0.734,0.121-1.1,0.27
		c-62.232-4.531-124.769,0.974-187.05,1.196c-62.76,0.224-125.539-7.316-188.276-2.873c-11.536,0.817-23.056,2.12-34.458,4.076
		c0.729-0.879,1.206-1.917,1.196-2.969c-0.018-2.041-0.25-3.504-1.303-5.053c-1.341-6.561-0.976-13.707-0.828-20.233
		c0.188-8.3,0.753-16.581,0.607-24.887c-0.158-8.976-1.117-17.816-2.55-26.672c-1.228-7.586-1.782-15.653-3.471-23.224
		c6.702,0.092,13.386,0.206,20.102,0.573c7.22,0.395,14.018-0.37,21.087-0.873c0.762,0.009,1.527-0.038,2.291-0.154
		c2.042-0.311,3.846-1.513,4.743-3.419c0.794-1.688,0.486-4.66-1.928-4.809c-3.42-0.212-6.685,1.153-10.093,1.545
		c-4.476,0.515-9.027,0.411-13.522,0.308c1.417-2.752,2.432-5.895,3.122-7.341c3.604-7.548,7.7-14.799,15.035-19.194
		c0.961-0.576,1.721-3.022-0.152-2.708c-7.538,1.262-12.81,9.664-16.498,15.613c-2.127,3.43-4.032,6.988-6.086,10.461
		c-0.654,1.105-1.46,2.021-2.122,2.941c-7.348-0.267-14.723-0.346-21.739,2.093c-0.317,0.11-0.617,0.289-0.896,0.507
		c-5.993-0.081-11.987-0.778-17.948-1.313c-1.869-0.168-4.92,2.76-2.548,4.186c1.071,0.644,2.201,1.192,3.371,1.665
		c-0.69,0.318-1.343,0.896-1.48,1.459c-7.185,29.664-2.361,61.193-5.41,91.36c-3.282,32.484-5.563,65.183-6.993,97.798
		c-1.325,30.211,0.312,59.982,2.718,90.096c2.376,29.732,4.823,59.761,1.487,89.518c-0.696,6.213-1.856,12.338-3.256,18.428
		c-0.415,1.806,0.55,3.108,2.217,3.628c9.731,3.035,20.009,1.405,29.976,1.197c4.639-0.096,7.81-8.439,1.781-8.313
		c-8.418,0.175-16.995,1.55-25.308-0.143c9.57-57.243-3.253-114.839-3.133-172.298c0.068-32.568,2.73-65.221,5.164-97.679
		c1.173-15.656,2.553-31.23,2.592-46.942c0.038-15.332-0.491-30.647,0.017-45.977c0.236-7.122,0.889-14.236,1.44-21.339
		c0.004-0.049-0.003-0.087-0.003-0.132c4.336,1.435,9.088,1.987,13.493,2.419c1.178,0.116,2.38-0.186,3.372-0.826
		c-0.502,7.009,0.977,14.284,1.945,21.116c1.354,9.565,2.116,19.026,2.188,28.687c0.128,17.064-2.058,33.573,0.163,50.609
		c0.348,2.669,2.335,3.094,4.284,2.356c-0.705,1.332-0.579,2.798,1.404,2.594c62.445-6.424,124.885-1.438,187.41,0.659
		c64.83,2.174,129.708-4.407,194.494-1.264c10.895,0.528,21.751,1.455,32.605,2.519c2.2,0.216,5.647-2.369,6.499-4.772
		c0.985-0.219,1.958-0.703,2.504-1.127C527.846,196.558,526.263,187.792,525.793,182.483z"/>
	<path fill="#231F20" d="M138.672,62.531c0.503-0.094,1.015-0.191,1.53-0.288c-0.452,0.586-0.634,1.288-0.256,1.928
		c4.3,7.271,6.833,15.984,8.515,24.205c1.578,7.713,3.579,18.088,0.457,25.644c-0.643,1.556-0.609,3.248,0.942,4.225
		c0.917,0.577,1.902,0.425,2.887,0.14c1.819-0.527,3.34-2.181,3.771-4.009c1.995-8.465,0.659-17.934-1.107-26.303
		c-1.941-9.199-4.578-19.645-11.446-26.488c5.477-0.833,11.164-0.941,15.535,2.83c4.679,4.036,7.064,9.444,8.725,15.285
		c3.232,11.365,3.386,24.068,2.706,35.916c-0.179,0.927-0.232,1.871-0.171,2.744c0.381,5.444,8.778,1.687,8.474-2.717
		c0.037-0.556,0-1.166-0.107-1.77c-0.841-14.394,0.004-28.982-5.23-42.726c-1.753-4.604-6.558-13.908-12.378-14.374
		c-7.94-0.635-16.557-1.89-23.393,3.235C137.237,60.674,137.085,62.829,138.672,62.531z"/>
	<path fill="#231F20" d="M184.785,90.578c19.605,4.352,40.761,4.034,60.751,4.226c20.09,0.192,40.256,0.304,60.342-0.107
		c19.091-0.391,38.138-2.076,57.223-2.678c9.457-0.298,18.911-0.276,28.356,0.313c4.391,0.274,8.767,0.728,13.128,1.299
		c2.29,0.3,4.563,0.784,6.844,1.145c0.482,1.2,1.684,1.849,3.776,1.014c0.649-0.259,1.239-0.419,1.791-0.557
		c0.032-0.001,0.064,0.002,0.096,0.001c-0.003-0.007-0.006-0.015-0.009-0.022c1.545-0.383,2.798-0.622,4.223-2.425
		c0.71-0.899,1.048-1.878,1.056-2.783c0.767,5.208,1.547,10.542,1.727,15.802c0.047,1.377,0.14,2.751,0.133,4.129
		c-0.002,0.326,0.002,1.512,0.023,2.336c-0.153,1.497,0.027,2.929,1.412,3.941c2.451,1.791,6.526-1.528,6.85-3.981
		c0.951-7.208-1.251-15.938-2.352-22.943c-1.06-6.747-2.685-13.39-4.523-19.963c-1.431-5.12-3.528-11.351-7.475-15.181
		c1.955,0.109,3.922,0.051,5.929-0.021c3.783-0.137,9.101-1.5,12.03,1.396c5.043,4.987,8.135,11.29,10.148,18.01
		c3.566,11.903,2.898,24.337,2.495,36.6c-0.896,0.684-1.578,1.766-1.421,2.724c0.385,2.348,0.643,3.648,2.755,4.983
		c3.179,2.011,7.34-2.17,7.292-5.243c-0.238-15.164,0.121-31.189-4.832-45.713c-2.448-7.18-6.758-13.648-12.621-18.454
		c-0.941-0.771-1.912-0.99-3.104-0.608c-2.536,0.813-5.526,0.67-8.165,0.879c-4.947,0.39-9.907,0.758-14.737,1.933
		c-0.347,0.084-0.68,0.33-0.937,0.642c-6.611-2.29-13.484,2.202-17.792,7.025c-5.188,5.81-8.126,14.562-9.953,22.007
		c-1.274,5.191,6.505,3.29,7.514-0.608c1.425-5.506,2.444-10.884,5.009-16.031c3.3-6.627,8.122-7.909,14.921-9.2
		c0.378-0.072,0.931-0.428,1.348-0.873c0.307,0.069,0.613,0.135,0.919,0.19c-0.584,0.444-0.974,1.108-0.846,1.825
		c0.86,4.819,2.843,9.524,4.152,14.256c1.725,6.229,2.951,12.605,3.921,18.993c-0.421-1.178-1.539-2.041-3.274-2.091
		c-8.181-0.235-16.434-2.154-24.684-2.521c-9.224-0.411-18.459-0.342-27.686-0.091c-19.14,0.522-38.229,2.173-57.363,2.818
		c-19.431,0.655-38.918,0.789-58.359,0.984c-21.335,0.214-42.335-1.363-63.599-2.534C184.646,85.28,181.166,89.775,184.785,90.578z"
		/>
	<path fill="#231F20" d="M167.497,124.652c0.782-1.5,0.394-4.256-1.749-4.362c-4.133-0.204-7.676,2.854-12.117,2.616
		c-2.058-0.111-4.244-0.842-5.839-2.172c-1.601-1.334-2.03-4.071-3.98-4.808c-0.5-0.189-1.097-0.093-1.483,0.309
		c-5.045,5.236,1.677,11.392,6.589,12.995C154.543,131.066,164.446,130.504,167.497,124.652z"/>
	<path fill="#231F20" d="M444.123,116.863c-7.543,4.154-19.867,3.891-24.992-3.855c-0.655-0.99-2.358,0.259-2.452,1.099
		c-1.684,15.225,20.936,14.432,30.103,9.706C451.713,121.27,449.703,113.79,444.123,116.863z"/>
	<path fill="#231F20" d="M109.714,184.668c-2.82,0.266-6.584,6.194-2.266,6.625c3.211,0.321,6.433,0.417,9.654,0.594
		c3.03,0.167,6.095,0.843,9.122,0.694c2.607-0.128,7.368-5.653,3.397-7.179C123.85,183.184,115.767,184.098,109.714,184.668z"/>
	<path fill="#231F20" d="M146.057,188.096c2.895,1.286,6.403,1.28,9.518,1.37c4.199,0.122,7.976,0.31,11.714-1.928
		c1.262-0.755,3.594-4.178,1.09-5.086c-3.165-1.146-5.906-0.746-9.19-0.527c-3.451,0.23-6.933,0.057-10.373,0.339
		C146.691,182.439,142.856,186.674,146.057,188.096z"/>
	<path fill="#231F20" d="M197.046,181.187c-3.121,0.18-6.252,0.456-9.334,0.99c-2.24,0.388-5.714,4.877-1.92,5.614
		c5.469,1.062,13.525,2.604,18.231-1.082c1.128-0.883,1.633-2.508,0.798-3.725C203.334,180.817,199.315,181.057,197.046,181.187z"/>
	<path fill="#231F20" d="M227.642,181.945c-2.418,0.432-6.187,5.249-2.078,6.074c5.15,1.034,11.322,1.544,16.566,1.036
		c1.983-0.192,3.805-1.559,4.648-3.351c0.81-1.722,0.452-4.473-1.89-4.713C239.367,180.425,233.084,180.974,227.642,181.945z"/>
	<path fill="#231F20" d="M273.892,181.68c-3.238-0.045-6.88-0.014-10.027,0.819c-2.23,0.59-3.921,4.178-1.096,5.112
		c2.643,0.874,5.808,1.185,8.564,1.55c2.902,0.384,5.553,0.995,8.443,0.289c2.445-0.597,5.541-5.154,2.353-6.842
		C279.689,181.317,276.584,181.718,273.892,181.68z"/>
	<path fill="#231F20" d="M313.277,182.785c-4.093,0.311-8.113,0.206-12.203-0.064c-1.915-0.126-5.189,2.883-2.665,4.378
		c5.697,3.374,12.957,2.341,19.296,2.626c1.809,0.081,3.484-1.623,4.254-3.067C324.376,182.128,315.719,182.6,313.277,182.785z"/>
	<path fill="#231F20" d="M350.458,182.194c-3.501,0.174-7.56,0.014-10.893,1.243c-1.55,0.571-4.295,3.816-1.729,5.028
		c2.746,1.296,6.377,1.11,9.34,1.261c3.289,0.167,7.777,1.196,10.683-0.817c1.648-1.143,3.615-3.602,1.948-5.595
		C357.848,180.974,353.109,182.063,350.458,182.194z"/>
	<path fill="#231F20" d="M375.429,182.998c-1.558,0.31-4.076,3.412-1.361,3.982c5.288,1.11,10.677,1.057,16.033,1.636
		c3.816,0.413,9.836,2.444,10.856-3.267c0.292-1.64-0.425-3.29-2.202-3.604C390.994,180.376,383.074,181.474,375.429,182.998z"/>
	<path fill="#231F20" d="M429.44,182.115c-4.548,0.187-9.127,0.772-13.55,1.846c-1.772,0.431-3.247,3.5-0.893,4.168
		c3.836,1.089,7.83,1.472,11.8,1.711c4.06,0.245,8.7,1.164,12.185-1.273c1.463-1.023,3.181-3.165,1.72-4.938
		C438.207,180.602,432.946,181.971,429.44,182.115z"/>
	<path fill="#231F20" d="M452.106,186.896c6.554,1.481,13.383,1.428,20.051,2.013c5.222,0.458,8.519-8.352,2.691-7.864
		c-7.145,0.598-14.383,0.641-21.437,2.036C451.9,183.38,449.521,186.312,452.106,186.896z"/>
	<path fill="#231F20" d="M507.408,189.154c5.026,0.648,8.766-8.27,2.482-8.304c-5.17-0.028-11.092,0-16.025,1.648
		c-1.475,0.493-4.235,3.849-1.687,4.907C496.668,189.27,502.504,189.189,507.408,189.154z"/>
	<path fill="#231F20" d="M520.471,209.528c-0.149-1.992-2.843-0.455-2.941,0.943c-3.181,45.105,0.119,90.766-3.805,135.768
		c-0.866,0.521-1.675,1.382-1.852,1.933c-3.355,10.437-4.582,21.533-7.726,32.069c-3.521,11.805-8.516,23.409-15.395,33.656
		c-6.105,9.094-14.181,17.171-24.815,20.566c-6.609,2.11-13.386,1.146-19.37-2.264c-2.832-1.613-5.383-4.137-6.778-7.12
		c-1.473-3.148,0.56-6.291,1.549-9.188c0.382-1.119-1.038-1.392-1.754-0.979c-3.828,2.202-5.484,5.77-5.722,9.645
		c-0.043-0.595-0.102-1.187-0.197-1.77c-0.116-0.714-1.061-0.409-1.261,0.102c-5.958,15.251-10.357,31.004-17.394,45.885
		c-3.965,8.383-8.069,16.887-13.587,24.379c-1.852,2.515-3.874,4.852-6.334,6.787c-1.555,1.222-2.792,1.058-5.277,1.603
		c-1.626,0.357-3.898,2.817-3.72,4.805c-8.288-2.246-16.876-3.17-25.429-3.923c-11.477-1.011-22.97-1.732-34.48-2.221
		c-24.44-1.037-48.924-0.908-73.377-0.564c-23.918,0.337-47.82,0.669-71.741,0.42c-12.472-0.131-24.943-0.229-37.413,0.081
		c-11.016,0.273-23.107,0.241-33.773,3.563c0.054-0.133,0.117-0.26,0.163-0.396c1.551-4.603-0.763-10.379-1.257-14.988
		c-0.903-8.414-1.373-16.803-1.58-25.267c-0.351-14.403,0.234-28.811,0.302-43.214c0.067-14.295-0.228-28.574,0.041-42.873
		c0.525-27.973,1.9-56.009,0.779-83.982c-1.118-27.908-4.06-55.833-6.174-83.675c-0.221-2.912-4.17-0.674-4.308,1.381
		c-1.838,27.455,2.15,55.184,3.447,82.578c1.323,27.953-0.108,56.028-0.703,83.984c-0.596,28.031-0.557,56.13-0.597,84.168
		c-0.013,9.106,0.361,18.174,1.045,27.249c0.277,3.669,0.461,7.288,0.391,10.97c-0.024,1.256,0.17,2.681,0.442,3.902
		c0.106,0.476,0.403,2.049,0.387,1.47c0.223,1.135,0.85,2.199,2.143,2.345c0.008,0.001,0.016,0.002,0.024,0.003
		c0.666,0.075,1.291,0.014,1.87-0.152c0.141,0.252,0.418,0.44,0.898,0.506c10.73,1.472,22.199-0.316,33.007-0.537
		c11.781-0.241,23.564-0.068,35.344,0.156c23.902,0.455,47.785,0.483,71.69,0.354c23.806-0.128,47.617-0.261,71.414,0.58
		c11.594,0.409,23.163,1.171,34.723,2.143c9.125,0.767,18.492,1.508,27.409,3.837c1.83,1.151,3.78,1.765,6.253,1.929
		c0.636,0.042,1.294-0.072,1.936-0.298c0.028,0.123,0.05,0.246,0.091,0.37c1.049,3.19,5.064,1.811,6.994-0.718
		c0.006,0.028,0.035,0.021,0.099-0.034c0.41-0.353,0.854-0.671,1.286-0.995c1.25-0.932,2.46-1.918,3.703-2.858
		c3.603-2.729,7.302-5.33,11.002-7.923c8.217-5.757,16.43-10.802,25.325-15.498c12.883-6.801,26.184-13.363,37.451-22.719
		c9.329-7.745,17.292-17.221,23.509-27.614c13.594-22.729,19.079-49.1,22.469-75.058c4.043-30.961,4.481-62.335,3.996-93.512
		C522.583,249.373,521.97,229.418,520.471,209.528z M394.941,511.753c0.035,0.107,0.055,0.224,0.067,0.343
		C394.984,511.982,394.979,511.866,394.941,511.753z M467.316,461.515c-11.593,9.54-26.117,15.725-39.327,22.646
		c-8.175,4.283-15.633,9.356-23.205,14.612c-0.971,0.674-1.941,1.35-2.91,2.029c6.111-7.217,10.444-16.264,14.29-24.825
		c4.438-9.879,8.128-20.136,11.344-30.472c1.742-5.6,4.147-12.112,4.396-18.29c0.103,1.106,0.304,2.217,0.588,3.311
		c1.829,7.042,11.8,10.785,18.012,11.896c13.962,2.497,27.803-6.582,36.759-16.394c7.92-8.676,13.794-19.022,18.351-29.851
		c-0.179,0.708-0.345,1.418-0.53,2.126C498.644,422.882,487.171,445.176,467.316,461.515z"/>
	<path fill="#231F20" d="M55.402,467.79c-4.307-0.932-5.311-3.747-6.556-7.774c-1.624-5.257-2.056-10.873-2.301-16.34
		c-0.525-11.705,0.691-23.467,1.893-35.094c2.826-27.349,3.372-54.889,4.909-82.341c1.828-32.649,1.254-65.406,3.774-98.002
		c2.427-31.406,8.878-63.727,4.868-95.176c-1.643-12.881-4.425-26.265-1.726-39.166c0.372-1.778-2.197-1.095-2.525,0.205
		c-3.739,14.811-1.662,29.22,0.027,44.144c1.836,16.223,0.045,32.399-1.454,48.584c-1.445,15.604-3.092,31.188-4.268,46.816
		c-1.227,16.301-1.275,32.564-1.595,48.894c-0.643,32.826-3.485,65.564-4.646,98.369c-0.792,22.388-5.496,44.652-4.456,67.099
		c0.268,5.778,1.121,11.574,2.92,17.082c0.726,2.222,1.484,5.461,3.06,7.256c0.967,1.103,2.807,1.221,4.435,1.102
		c0.443,0.131,1.001,0.089,1.66-0.19c0.037-0.006,0.081-0.011,0.117-0.017C56.05,473.22,58.805,468.526,55.402,467.79z
		 M53.661,473.15c0.047-0.023,0.09-0.037,0.138-0.063C53.752,473.112,53.706,473.132,53.661,473.15z"/>
	<path fill="#231F20" d="M259.345,426.14c6.705,6.795,16.691,9.765,25.853,11.241c11.536,1.859,25.098,1.368,36.395-3.378
		c-0.455,5.861-1.423,11.682-2.982,17.347c-1.095,3.982-2.67,7.997-4.891,11.494c-1.113,1.753-2.487,3.338-3.783,4.97
		c-3.958,2.291-8.357,3.34-12.879,3.682c-1.356-1.434-3.291-0.96-5.212-1.011c-2.737-0.07-4.926-0.917-7.173-2.43
		c-4.866-3.273-5.963-10.171-4.544-15.391c0.552-2.028-1.14-4.05-3.261-3.716c-6.627,1.045-13.429,0.254-19.99,1.805
		c-1.948,0.461-3.583,3.876-0.984,4.592c0.846,0.233,1.703,0.407,2.565,0.545c-0.045,0.11-0.08,0.218-0.101,0.323
		c-0.444,2.237-0.286,4.299,0.311,6.187c-0.42,7.896,9.854,13.43,17.184,15.264c12.01,3.006,24.89,2.761,36.056-2.881
		c10.29-5.199,17.246-15.32,21.372-25.784c3.535-8.964,6.174-20.061,6.234-30.235c8.417-15.781-1.54-40.298-17.386-47.364
		c-3.086-1.376-6.322-1.715-9.37-0.879c-23.255-6.101-49.962,2.067-58.826,26.341C250.238,406.982,251.64,418.331,259.345,426.14z
		 M273.587,381.547c-0.409,0.585-0.801,1.183-1.178,1.79c0.103-0.375,0.202-0.748,0.298-1.119
		C272.999,381.992,273.289,381.763,273.587,381.547z M307.654,373.529c-0.112,0.151-0.215,0.306-0.31,0.465
		c-0.473,0.352-0.858,0.928-0.779,1.466c0.025,0.173,0.083,0.336,0.124,0.504c-0.035,0.675,0.167,1.285,0.677,1.714
		c1.02,1.84,2.731,3.452,3.875,5.099c2.364,3.405,4.012,7.125,5.505,10.978c3.475,8.971,4.704,18.774,5.079,28.33
		c0.049,1.248,0.075,2.498,0.079,3.748c-8.371,3.819-19.398,4.442-26.847,3.965c-3.454-0.221-7.17-0.724-10.841-1.581
		c-0.279-1.381-1.292-2.709-2.49-3.82c-4.943-4.586-6.881-11.27-7.341-17.803c-0.878-12.46,3.618-25.128,14.363-31.705
		C294.889,373.454,301.323,373.139,307.654,373.529z"/>
	<g id="Page-1">
		<path id="month_september" d="M298.725,302.336h17.298l-6.373-45.414l-2.785-1.339c0-2.464,0.214-4.775,0.643-6.935
			c0.428-2.16,1.071-4.258,1.928-6.293l0.803,0.589c0,2.071,1.16,3.624,3.481,4.659c1.785,0.714,3.588,1.428,5.409,2.142
			c0,1.785-0.143,3.695-0.428,5.73c-0.286,2.035-0.625,3.552-1.018,4.552l-2.571-0.857l6.319,41.987v1.178H344.3
			c0-4.213-0.5-7.426-1.5-9.64c-0.678-1.535-2.356-3.749-5.034-6.641l4.177-8.729c2.571,3.249,4.177,5.784,4.82,7.605
			c0.964,2.749,1.446,7.301,1.446,13.656v13.067h-28.652h-21.049c-0.648,4.808-2.754,9.592-6.317,14.353
			c-4.856,6.498-10.461,9.747-16.816,9.747c-2.356,0-4.784-0.268-7.283-0.803c-1.821-0.393-4.195-1.071-7.123-2.035
			c-2.321-0.821-4.641-1.624-6.962-2.41l0.91-1.874c1.999,0.464,4.097,0.955,6.293,1.473c2.196,0.518,4.168,0.777,5.918,0.777
			c4.356,0,8.479-1.107,12.371-3.32c3.035-1.749,6.07-4.284,9.104-7.605c1.535-1.678,3.713-4.409,6.534-8.194
			c-4.82,0-8.426-0.768-10.818-2.303c-2.713-1.749-4.07-4.624-4.07-8.622c0-3.677,0.857-7.087,2.571-10.229
			c1.999-3.642,4.534-5.463,7.605-5.463c3.106,0,5.338,1.803,6.694,5.409C298.19,293.374,298.725,297.301,298.725,302.336z
			 M367.811,239.623c0,0.893-0.553,1.696-1.66,2.41c-0.75,0.464-1.874,0.964-3.374,1.5l-9.961,3.428
			c0-1.642,1.785-3.088,5.355-4.338c-1.107-0.571-1.946-1.125-2.517-1.66c-0.75-0.678-1.125-1.392-1.125-2.142
			c0-1.107,0.946-2.66,2.838-4.659c2.107-2.214,3.963-3.32,5.57-3.32c0.714,0,1.33,0.241,1.848,0.723s0.777,1.116,0.777,1.901
			c0,0.5-0.107,1.009-0.321,1.526c-0.214,0.518-0.518,1.098-0.91,1.741c-1.107-1-2.303-1.5-3.588-1.5
			c-0.785,0-1.562,0.161-2.33,0.482c-0.768,0.321-1.151,0.696-1.151,1.125c0,0.536,0.83,1.267,2.49,2.196
			c1.66,0.928,3.079,1.392,4.258,1.392c0.785,0,1.348-0.027,1.687-0.08C366.035,240.292,366.74,240.051,367.811,239.623z
			 M366.311,297.998c0,2.856-0.518,5.623-1.553,8.301c-0.536,1.428-1.696,3.695-3.481,6.801l-0.964-0.536
			c0.107-1.035,0.205-2.231,0.295-3.588s0.134-2.267,0.134-2.731c0-3.713-0.295-8.899-0.884-15.558
			c-0.589-6.659-1.294-13.612-2.115-20.86c-0.5-4.392-1.053-8.872-1.66-13.442c0.714-1.571,1.526-3.267,2.437-5.088
			s1.776-3.535,2.597-5.141c0.571,4.07,1.294,9.64,2.169,16.709c0.875,7.069,1.562,13.442,2.062,19.119
			C365.99,289.054,366.311,294.392,366.311,297.998z M347.942,322.365l-4.177,7.712l-8.676-4.606l4.017-7.658L347.942,322.365z
			 M335.624,327.185l-4.07,7.765l-8.676-4.499l3.963-7.765L335.624,327.185z M295.351,302.603c-0.785-3.428-1.732-5.802-2.838-7.123
			c-0.964-1.143-2.142-1.714-3.535-1.714c-1,0-1.865,0.33-2.597,0.991c-0.732,0.66-1.098,1.491-1.098,2.49
			c0,1.749,0.785,3.079,2.356,3.99C289.21,302.148,291.781,302.603,295.351,302.603z M251.329,305.013
			c0,5.713-1.339,10.247-4.017,13.603c-2.392,2.963-5.909,5.088-10.55,6.373c-3.927,1.071-8.908,1.607-14.942,1.607
			c-6.891,0-12.228-1.267-16.013-3.802c-4.142-2.785-6.212-6.944-6.212-12.478c0-3.07,0.446-6.266,1.339-9.586
			c0.75-2.821,1.892-5.909,3.428-9.265c1.107-2.428,2.606-5.355,4.499-8.783l1.714,1.018c-1.321,2.392-2.428,4.534-3.32,6.427
			c-1.178,2.535-2.053,4.802-2.624,6.801c-0.678,2.428-1.018,4.784-1.018,7.069c0,4.392,1.598,7.712,4.793,9.961
			s7.632,3.374,13.308,3.374c6.034,0,11.621-1.035,16.763-3.106c5.641-2.285,8.462-5.016,8.462-8.194
			c0-3.463-0.553-9.336-1.66-17.62c-0.857-6.355-1.91-13.46-3.16-21.315l-1.767-10.39l-2.464-1.285c0-4.784,0.982-9.14,2.946-13.067
			h0.91c0.143,1.357,0.393,2.365,0.75,3.026c0.357,0.661,0.946,1.151,1.767,1.473c1.107,0.464,2.321,1.018,3.642,1.66
			c0.964,0.464,1.803,0.875,2.517,1.232c0,2.499-0.089,4.32-0.268,5.463c-0.179,1.143-0.536,2.749-1.071,4.82l-3.053-0.964
			c0.071,0.785,0.589,4.374,1.553,10.764c1.107,7.462,1.928,13.514,2.464,18.155C250.901,295.409,251.329,301.086,251.329,305.013z"
			/>
	</g>
</g>
</svg>
