<?xml version="1.0" encoding="utf-8"?>
<!-- Generator: Adobe Illustrator 17.0.0, SVG Export Plug-In . SVG Version: 6.00 Build 0)  -->
<!DOCTYPE svg PUBLIC "-//W3C//DTD SVG 1.1//EN" "http://www.w3.org/Graphics/SVG/1.1/DTD/svg11.dtd">
<svg version="1.1" id="Layer_1" xmlns="http://www.w3.org/2000/svg" xmlns:xlink="http://www.w3.org/1999/xlink" x="0px" y="0px"
	 width="566.93px" height="566.93px" viewBox="0 0 566.93 566.93" enable-background="new 0 0 566.93 566.93" xml:space="preserve">
<g>
	<path fill="#231F20" d="M525.793,182.483c-0.782-8.838-2.378-17.602-3.667-26.375c-1.332-9.069-2.059-18.193-2.351-27.354
		c-0.404-12.637,1.331-26.144-1.372-38.555c-0.257-1.18-1.615-0.607-2.362,0.149c-0.584-1.044-1.962-1.537-3.15-1.505
		c-8.042,0.217-16.091,0.543-24.146,0.684c-8.058,0.141-17.091-0.718-24.834,1.814c-0.973,0.318-2.811,2.567-1.117,3.251
		c6.697,2.704,15.367,1.717,22.471,1.842c7.697,0.136,15.382,0.412,23.068,0.638c1.313,1.629,4.439,0.965,6.003-0.413
		c0.046-0.04,0.091-0.081,0.137-0.121c0.076-0.067,0.148-0.139,0.22-0.21c-1.467,10.69-1.193,21.898-1.281,32.561
		c-0.075,9.058,0.117,18.07,1.112,27.074c0.943,8.526,2.185,17.015,3.004,25.555c0.343,3.583,0.568,7.18,0.523,10.78
		c-0.024,1.881-0.57,3.529-0.714,5.262c-1.774-0.529-3.458-0.682-5.471-0.602c-0.365,0.015-0.734,0.121-1.1,0.27
		c-62.232-4.531-124.769,0.974-187.05,1.196c-62.76,0.224-125.539-7.316-188.276-2.873c-11.536,0.817-23.056,2.12-34.458,4.076
		c0.729-0.879,1.206-1.917,1.196-2.969c-0.018-2.041-0.25-3.504-1.303-5.053c-1.341-6.561-0.976-13.707-0.828-20.233
		c0.188-8.3,0.753-16.581,0.607-24.887c-0.158-8.976-1.117-17.816-2.55-26.672c-1.228-7.586-1.782-15.653-3.471-23.224
		c6.702,0.092,13.386,0.206,20.102,0.573c7.22,0.395,14.018-0.37,21.087-0.873c0.762,0.009,1.527-0.038,2.291-0.154
		c2.042-0.311,3.846-1.513,4.743-3.419c0.794-1.688,0.486-4.66-1.928-4.809c-3.42-0.212-6.685,1.153-10.093,1.545
		c-4.476,0.515-9.027,0.411-13.522,0.308c1.417-2.752,2.432-5.895,3.122-7.341c3.604-7.548,7.7-14.799,15.035-19.194
		c0.961-0.576,1.721-3.022-0.152-2.708c-7.538,1.262-12.81,9.664-16.498,15.613c-2.127,3.43-4.032,6.988-6.086,10.461
		c-0.654,1.105-1.46,2.021-2.122,2.941c-7.348-0.267-14.723-0.346-21.739,2.093c-0.317,0.11-0.617,0.289-0.896,0.507
		c-5.993-0.081-11.987-0.778-17.948-1.313c-1.869-0.168-4.92,2.76-2.548,4.186c1.071,0.644,2.201,1.192,3.371,1.665
		c-0.69,0.318-1.343,0.896-1.48,1.459c-7.185,29.664-2.361,61.193-5.41,91.36c-3.282,32.484-5.563,65.183-6.993,97.798
		c-1.325,30.211,0.312,59.982,2.718,90.096c2.376,29.732,4.823,59.761,1.487,89.518c-0.696,6.213-1.856,12.338-3.256,18.428
		c-0.415,1.806,0.55,3.108,2.217,3.628c9.731,3.035,20.009,1.405,29.976,1.197c4.639-0.096,7.81-8.439,1.781-8.313
		c-8.418,0.175-16.995,1.55-25.308-0.143c9.57-57.243-3.253-114.839-3.133-172.298c0.068-32.568,2.73-65.221,5.164-97.679
		c1.173-15.656,2.553-31.23,2.592-46.942c0.038-15.332-0.491-30.647,0.017-45.977c0.236-7.122,0.889-14.236,1.44-21.339
		c0.004-0.049-0.003-0.087-0.003-0.132c4.336,1.435,9.088,1.987,13.493,2.419c1.178,0.116,2.38-0.186,3.372-0.826
		c-0.502,7.009,0.977,14.284,1.945,21.116c1.354,9.565,2.116,19.026,2.188,28.687c0.128,17.064-2.058,33.573,0.163,50.609
		c0.348,2.669,2.335,3.094,4.284,2.356c-0.705,1.332-0.579,2.798,1.404,2.594c62.445-6.424,124.885-1.438,187.41,0.659
		c64.83,2.174,129.708-4.407,194.494-1.264c10.895,0.528,21.751,1.455,32.605,2.519c2.2,0.216,5.647-2.369,6.499-4.772
		c0.985-0.219,1.958-0.703,2.504-1.127C527.846,196.558,526.263,187.792,525.793,182.483z"/>
	<path fill="#231F20" d="M138.672,62.531c0.503-0.094,1.015-0.191,1.53-0.288c-0.452,0.586-0.634,1.288-0.256,1.928
		c4.3,7.271,6.833,15.984,8.515,24.205c1.578,7.713,3.579,18.088,0.457,25.644c-0.643,1.556-0.609,3.248,0.942,4.225
		c0.917,0.577,1.902,0.425,2.887,0.14c1.819-0.527,3.34-2.181,3.771-4.009c1.995-8.465,0.659-17.934-1.107-26.303
		c-1.941-9.199-4.578-19.645-11.446-26.488c5.477-0.833,11.164-0.941,15.535,2.83c4.679,4.036,7.064,9.444,8.725,15.285
		c3.232,11.365,3.386,24.068,2.706,35.916c-0.179,0.927-0.232,1.871-0.171,2.744c0.381,5.444,8.778,1.687,8.474-2.717
		c0.037-0.556,0-1.166-0.107-1.77c-0.841-14.394,0.004-28.982-5.23-42.726c-1.753-4.604-6.558-13.908-12.378-14.374
		c-7.94-0.635-16.557-1.89-23.393,3.235C137.237,60.674,137.085,62.829,138.672,62.531z"/>
	<path fill="#231F20" d="M184.785,90.578c19.605,4.352,40.761,4.034,60.751,4.226c20.09,0.192,40.256,0.304,60.342-0.107
		c19.091-0.391,38.138-2.076,57.223-2.678c9.457-0.298,18.911-0.276,28.356,0.313c4.391,0.274,8.767,0.728,13.128,1.299
		c2.29,0.3,4.563,0.784,6.844,1.145c0.482,1.2,1.684,1.849,3.776,1.014c0.649-0.259,1.239-0.419,1.791-0.557
		c0.032-0.001,0.064,0.002,0.096,0.001c-0.003-0.007-0.006-0.015-0.009-0.022c1.545-0.383,2.798-0.622,4.223-2.425
		c0.71-0.899,1.048-1.878,1.056-2.783c0.767,5.208,1.547,10.542,1.727,15.802c0.047,1.377,0.14,2.751,0.133,4.129
		c-0.002,0.326,0.002,1.512,0.023,2.336c-0.153,1.497,0.027,2.929,1.412,3.941c2.451,1.791,6.526-1.528,6.85-3.981
		c0.951-7.208-1.251-15.938-2.352-22.943c-1.06-6.747-2.685-13.39-4.523-19.963c-1.431-5.12-3.528-11.351-7.475-15.181
		c1.955,0.109,3.922,0.051,5.929-0.021c3.783-0.137,9.101-1.5,12.03,1.396c5.043,4.987,8.135,11.29,10.148,18.01
		c3.566,11.903,2.898,24.337,2.495,36.6c-0.896,0.684-1.578,1.766-1.421,2.724c0.385,2.348,0.643,3.648,2.755,4.983
		c3.179,2.011,7.34-2.17,7.292-5.243c-0.238-15.164,0.121-31.189-4.832-45.713c-2.448-7.18-6.758-13.648-12.621-18.454
		c-0.941-0.771-1.912-0.99-3.104-0.608c-2.536,0.813-5.526,0.67-8.165,0.879c-4.947,0.39-9.907,0.758-14.737,1.933
		c-0.347,0.084-0.68,0.33-0.937,0.642c-6.611-2.29-13.484,2.202-17.792,7.025c-5.188,5.81-8.126,14.562-9.953,22.007
		c-1.274,5.191,6.505,3.29,7.514-0.608c1.425-5.506,2.444-10.884,5.009-16.031c3.3-6.627,8.122-7.909,14.921-9.2
		c0.378-0.072,0.931-0.428,1.348-0.873c0.307,0.069,0.613,0.135,0.919,0.19c-0.584,0.444-0.974,1.108-0.846,1.825
		c0.86,4.819,2.843,9.524,4.152,14.256c1.725,6.229,2.951,12.605,3.921,18.993c-0.421-1.178-1.539-2.041-3.274-2.091
		c-8.181-0.235-16.434-2.154-24.684-2.521c-9.224-0.411-18.459-0.342-27.686-0.091c-19.14,0.522-38.229,2.173-57.363,2.818
		c-19.431,0.655-38.918,0.789-58.359,0.984c-21.335,0.214-42.335-1.363-63.599-2.534C184.646,85.28,181.166,89.775,184.785,90.578z"
		/>
	<path fill="#231F20" d="M167.497,124.652c0.782-1.5,0.394-4.256-1.749-4.362c-4.133-0.204-7.676,2.854-12.117,2.616
		c-2.058-0.111-4.244-0.842-5.839-2.172c-1.601-1.334-2.03-4.071-3.98-4.808c-0.5-0.189-1.097-0.093-1.483,0.309
		c-5.045,5.236,1.677,11.392,6.589,12.995C154.543,131.066,164.446,130.504,167.497,124.652z"/>
	<path fill="#231F20" d="M444.123,116.863c-7.543,4.154-19.867,3.891-24.992-3.855c-0.655-0.99-2.358,0.259-2.452,1.099
		c-1.684,15.225,20.936,14.432,30.103,9.706C451.713,121.27,449.703,113.79,444.123,116.863z"/>
	<path fill="#231F20" d="M109.714,184.668c-2.82,0.266-6.584,6.194-2.266,6.625c3.211,0.321,6.433,0.417,9.654,0.594
		c3.03,0.167,6.095,0.843,9.122,0.694c2.607-0.128,7.368-5.653,3.397-7.179C123.85,183.184,115.767,184.098,109.714,184.668z"/>
	<path fill="#231F20" d="M146.057,188.096c2.895,1.286,6.403,1.28,9.518,1.37c4.199,0.122,7.976,0.31,11.714-1.928
		c1.262-0.755,3.594-4.178,1.09-5.086c-3.165-1.146-5.906-0.746-9.19-0.527c-3.451,0.23-6.933,0.057-10.373,0.339
		C146.691,182.439,142.856,186.674,146.057,188.096z"/>
	<path fill="#231F20" d="M197.046,181.187c-3.121,0.18-6.252,0.456-9.334,0.99c-2.24,0.388-5.714,4.877-1.92,5.614
		c5.469,1.062,13.525,2.604,18.231-1.082c1.128-0.883,1.633-2.508,0.798-3.725C203.334,180.817,199.315,181.057,197.046,181.187z"/>
	<path fill="#231F20" d="M227.642,181.945c-2.418,0.432-6.187,5.249-2.078,6.074c5.15,1.034,11.322,1.544,16.566,1.036
		c1.983-0.192,3.805-1.559,4.648-3.351c0.81-1.722,0.452-4.473-1.89-4.713C239.367,180.425,233.084,180.974,227.642,181.945z"/>
	<path fill="#231F20" d="M273.892,181.68c-3.238-0.045-6.88-0.014-10.027,0.819c-2.23,0.59-3.921,4.178-1.096,5.112
		c2.643,0.874,5.808,1.185,8.564,1.55c2.902,0.384,5.553,0.995,8.443,0.289c2.445-0.597,5.541-5.154,2.353-6.842
		C279.689,181.317,276.584,181.718,273.892,181.68z"/>
	<path fill="#231F20" d="M313.277,182.785c-4.093,0.311-8.113,0.206-12.203-0.064c-1.915-0.126-5.189,2.883-2.665,4.378
		c5.697,3.374,12.957,2.341,19.296,2.626c1.809,0.081,3.484-1.623,4.254-3.067C324.376,182.128,315.719,182.6,313.277,182.785z"/>
	<path fill="#231F20" d="M350.458,182.194c-3.501,0.174-7.56,0.014-10.893,1.243c-1.55,0.571-4.295,3.816-1.729,5.028
		c2.746,1.296,6.377,1.11,9.34,1.261c3.289,0.167,7.777,1.196,10.683-0.817c1.648-1.143,3.615-3.602,1.948-5.595
		C357.848,180.974,353.109,182.063,350.458,182.194z"/>
	<path fill="#231F20" d="M375.429,182.998c-1.558,0.31-4.076,3.412-1.361,3.982c5.288,1.11,10.677,1.057,16.033,1.636
		c3.816,0.413,9.836,2.444,10.856-3.267c0.292-1.64-0.425-3.29-2.202-3.604C390.994,180.376,383.074,181.474,375.429,182.998z"/>
	<path fill="#231F20" d="M429.44,182.115c-4.548,0.187-9.127,0.772-13.55,1.846c-1.772,0.431-3.247,3.5-0.893,4.168
		c3.836,1.089,7.83,1.472,11.8,1.711c4.06,0.245,8.7,1.164,12.185-1.273c1.463-1.023,3.181-3.165,1.72-4.938
		C438.207,180.602,432.946,181.971,429.44,182.115z"/>
	<path fill="#231F20" d="M452.106,186.896c6.554,1.481,13.383,1.428,20.051,2.013c5.222,0.458,8.519-8.352,2.691-7.864
		c-7.145,0.598-14.383,0.641-21.437,2.036C451.9,183.38,449.521,186.312,452.106,186.896z"/>
	<path fill="#231F20" d="M507.408,189.154c5.026,0.648,8.766-8.27,2.482-8.304c-5.17-0.028-11.092,0-16.025,1.648
		c-1.475,0.493-4.235,3.849-1.687,4.907C496.668,189.27,502.504,189.189,507.408,189.154z"/>
	<path fill="#231F20" d="M520.471,209.528c-0.149-1.992-2.843-0.455-2.941,0.943c-3.181,45.105,0.119,90.766-3.805,135.768
		c-0.866,0.521-1.675,1.382-1.852,1.933c-3.355,10.437-4.582,21.533-7.726,32.069c-3.521,11.805-8.516,23.409-15.395,33.656
		c-6.105,9.094-14.181,17.171-24.815,20.566c-6.609,2.11-13.386,1.146-19.37-2.264c-2.832-1.613-5.383-4.137-6.778-7.12
		c-1.473-3.148,0.56-6.291,1.549-9.188c0.382-1.119-1.038-1.392-1.754-0.979c-3.828,2.202-5.484,5.77-5.722,9.645
		c-0.043-0.595-0.102-1.187-0.197-1.77c-0.116-0.714-1.061-0.409-1.261,0.102c-5.958,15.251-10.357,31.004-17.394,45.885
		c-3.965,8.383-8.069,16.887-13.587,24.379c-1.852,2.515-3.874,4.852-6.334,6.787c-1.555,1.222-2.792,1.058-5.277,1.603
		c-1.626,0.357-3.898,2.817-3.72,4.805c-8.288-2.246-16.876-3.17-25.429-3.923c-11.477-1.011-22.97-1.732-34.48-2.221
		c-24.44-1.037-48.924-0.908-73.377-0.564c-23.918,0.337-47.82,0.669-71.741,0.42c-12.472-0.131-24.943-0.229-37.413,0.081
		c-11.016,0.273-23.107,0.241-33.773,3.563c0.054-0.133,0.117-0.26,0.163-0.396c1.551-4.603-0.763-10.379-1.257-14.988
		c-0.903-8.414-1.373-16.803-1.58-25.267c-0.351-14.403,0.234-28.811,0.302-43.214c0.067-14.295-0.228-28.574,0.041-42.873
		c0.525-27.973,1.9-56.009,0.779-83.982c-1.118-27.908-4.06-55.833-6.174-83.675c-0.221-2.912-4.17-0.674-4.308,1.381
		c-1.838,27.455,2.15,55.184,3.447,82.578c1.323,27.953-0.108,56.028-0.703,83.984c-0.596,28.031-0.557,56.13-0.597,84.168
		c-0.013,9.106,0.361,18.174,1.045,27.249c0.277,3.669,0.461,7.288,0.391,10.97c-0.024,1.256,0.17,2.681,0.442,3.902
		c0.106,0.476,0.403,2.049,0.387,1.47c0.223,1.135,0.85,2.199,2.143,2.345c0.008,0.001,0.016,0.002,0.024,0.003
		c0.666,0.075,1.291,0.014,1.87-0.152c0.141,0.252,0.418,0.44,0.898,0.506c10.73,1.472,22.199-0.316,33.007-0.537
		c11.781-0.241,23.564-0.068,35.344,0.156c23.902,0.455,47.785,0.483,71.69,0.354c23.806-0.128,47.617-0.261,71.414,0.58
		c11.594,0.409,23.163,1.171,34.723,2.143c9.125,0.767,18.492,1.508,27.409,3.837c1.83,1.151,3.78,1.765,6.253,1.929
		c0.636,0.042,1.294-0.072,1.936-0.298c0.028,0.123,0.05,0.246,0.091,0.37c1.049,3.19,5.064,1.811,6.994-0.718
		c0.006,0.028,0.035,0.021,0.099-0.034c0.41-0.353,0.854-0.671,1.286-0.995c1.25-0.932,2.46-1.918,3.703-2.858
		c3.603-2.729,7.302-5.33,11.002-7.923c8.217-5.757,16.43-10.802,25.325-15.498c12.883-6.801,26.184-13.363,37.451-22.719
		c9.329-7.745,17.292-17.221,23.509-27.614c13.594-22.729,19.079-49.1,22.469-75.058c4.043-30.961,4.481-62.335,3.996-93.512
		C522.583,249.373,521.97,229.418,520.471,209.528z M394.941,511.753c0.035,0.107,0.055,0.224,0.067,0.343
		C394.984,511.982,394.979,511.866,394.941,511.753z M467.316,461.515c-11.593,9.54-26.117,15.725-39.327,22.646
		c-8.175,4.283-15.633,9.356-23.205,14.612c-0.971,0.674-1.941,1.35-2.91,2.029c6.111-7.217,10.444-16.264,14.29-24.825
		c4.438-9.879,8.128-20.136,11.344-30.472c1.742-5.6,4.147-12.112,4.396-18.29c0.103,1.106,0.304,2.217,0.588,3.311
		c1.829,7.042,11.8,10.785,18.012,11.896c13.962,2.497,27.803-6.582,36.759-16.394c7.92-8.676,13.794-19.022,18.351-29.851
		c-0.179,0.708-0.345,1.418-0.53,2.126C498.644,422.882,487.171,445.176,467.316,461.515z"/>
	<path fill="#231F20" d="M55.402,467.79c-4.307-0.932-5.311-3.747-6.556-7.774c-1.624-5.257-2.056-10.873-2.301-16.34
		c-0.525-11.705,0.691-23.467,1.893-35.094c2.826-27.349,3.372-54.889,4.909-82.341c1.828-32.649,1.254-65.406,3.774-98.002
		c2.427-31.406,8.878-63.727,4.868-95.176c-1.643-12.881-4.425-26.265-1.726-39.166c0.372-1.778-2.197-1.095-2.525,0.205
		c-3.739,14.811-1.662,29.22,0.027,44.144c1.836,16.223,0.045,32.399-1.454,48.584c-1.445,15.604-3.092,31.188-4.268,46.816
		c-1.227,16.301-1.275,32.564-1.595,48.894c-0.643,32.826-3.485,65.564-4.646,98.369c-0.792,22.388-5.496,44.652-4.456,67.099
		c0.268,5.778,1.121,11.574,2.92,17.082c0.726,2.222,1.484,5.461,3.06,7.256c0.967,1.103,2.807,1.221,4.435,1.102
		c0.443,0.131,1.001,0.089,1.66-0.19c0.037-0.006,0.081-0.011,0.117-0.017C56.05,473.22,58.805,468.526,55.402,467.79z
		 M53.661,473.15c0.047-0.023,0.09-0.037,0.138-0.063C53.752,473.112,53.706,473.132,53.661,473.15z"/>
	<path fill="#231F20" d="M228.365,404.509c-1.348,2.577,1.446,3.948,3.531,2.835c4.637-2.476,8.382-6.652,12.273-10.129
		c2.073-1.852,4.214-3.6,6.437-5.229c-1.195,5.329-1.658,10.894-2.134,16.246c-0.754,8.476-0.523,17.121-0.409,25.621
		c0.104,7.771,0.36,15.779,1.468,23.472c0.422,2.932,1.079,5.792,1.356,8.728c-3.421,0.978-6.665,2.425-9.545,4.573
		c-3.653,2.725-0.886,7.219,3.19,5.319c1.071-0.499,2.198-0.895,3.346-1.246c5.052-0.153,9.947-0.105,15.017,0.36
		c5.283,0.484,10.747,1.845,16.033,1.889c1.446,0.012,3.32-1.398,4.453-3.066c0.393,0.124,0.796,0.222,1.21,0.286
		c2.609,0.401,6.091-1.808,6.373-4.596c0.477-4.711-3.533-4.879-7.125-5.115c-0.133-0.009-0.267-0.014-0.4-0.023
		c-0.32-27.649-5.556-56.146,4.419-82.714c0.939-2.501,0.014-4.957-2.973-4.863c-10.387,0.326-20.94,0.303-31.282,1.317
		c-1.848,0.181-4.181,3.226-3.428,4.765c-2.612,1.925-5.014,4.115-6.842,5.614C237.95,392.966,231.635,398.259,228.365,404.509z"/>
	<path fill="#231F20" d="M299.566,400.78c0.293,2.087,2.507,1.696,3.766,0.737c3.979-3.032,6.989-6.979,11.232-9.813
		c2.478-1.656,5.112-3.076,7.8-4.385c-1.022,5.889-1.038,11.889-0.951,18.052c0.146,10.452,0.306,20.87,0.222,31.327
		c-0.053,6.563-0.148,13.075,0.352,19.618c0.197,2.586,0.414,5.17,0.609,7.755c0.044,0.587,0.08,1.163,0.137,1.736
		c-2.411,0.264-4.73,0.739-6.876,1.533c-1.618,0.599-4.447,3.947-1.794,5.22c2.087,1.001,4.436,1.34,6.807,1.487
		c2.778,0.501,5.919,0.427,8.771,0.313c3.805,0.13,7.613,0.223,11.417,0.344c4.596,0.147,9.192,0.291,13.789,0.4
		c0.186,0.091,0.378,0.173,0.578,0.239c0.997,0.332,2.003,0.19,2.965-0.169c2.751,0.053,5.502,0.09,8.253,0.104
		c0.48,0.011,0.962,0.012,1.438,0.012c4.799,0,8.065-8.569,1.84-8.582c-2.404-0.005-4.807-0.033-7.21-0.071
		c-0.447-0.416-1.027-0.714-1.567-0.766c-0.269-0.026-0.541-0.039-0.811-0.062c-0.031-0.076-0.048-0.155-0.086-0.229
		c-0.333-0.651-0.681-1.295-1.026-1.94c0.708-2.886,1.008-5.901,1.224-8.42c0.737-8.621,0.171-17.295-0.494-25.901
		c-1.281-16.594-4.544-34.078-1.787-50.655c0.263-1.574-0.396-3.519-2.259-3.698c-5.902-0.568-11.854-0.633-17.779-0.564
		c-0.077,0.001-0.161,0-0.24,0.001c-0.727-2.101-3.395-1.407-5.457,0.07c-3.529,0.209-7.122,0.983-8.751,3.753
		c-0.002,0.003-0.002,0.006-0.003,0.008c-1.004,0.499-1.982,1.046-2.932,1.508c-3.488,1.695-6.842,3.632-10.043,5.819
		C306.227,388.615,298.69,394.553,299.566,400.78z M328.031,463.034c0.715,0.004,0.443,0.028-0.104,0.091
		C327.962,463.095,327.997,463.065,328.031,463.034z M348.833,384.687c-0.078-0.736-0.165-1.472-0.257-2.207
		c0.199,0.029,0.395,0.064,0.594,0.094C349.044,383.274,348.933,383.979,348.833,384.687z"/>
	<g id="Page-1">
		<path id="month_november" d="M178.834,288.051h23.434v-10.688c0-5.198-0.394-8.921-1.183-11.169
			c-0.526-1.489-1.84-3.563-3.942-6.22l-3.417,7.14c2.19,2.365,3.563,4.176,4.117,5.431c0.818,1.81,1.226,4.439,1.226,7.884h-20.237
			h-6.132c-2.453,0-4.789,0.336-7.008,1.007c-2.949,0.905-5.3,2.292-7.052,4.161c-2.132,2.307-3.198,5.271-3.198,8.892
			c0,0.964,0.394,1.686,1.183,2.168c0.788,0.482,2.102,0.723,3.942,0.723c0.526,0,1.628,0.051,3.307,0.153
			c1.679,0.102,2.913,0.197,3.701,0.285c1.022,0,1.752,0.124,2.19,0.372c0.438,0.248,0.657,0.621,0.657,1.117
			c0,1.372-1.956,2.453-5.869,3.241c-3.183,0.642-6.862,0.964-11.038,0.964c-6.22,0-11.111-0.891-14.674-2.672
			c-3.738-1.869-5.607-4.599-5.607-8.191c0-2.044,0.832-4.672,2.497-7.884c1.08-1.869,2.175-3.752,3.285-5.65l-1.752-0.876
			c-2.862,4.497-4.628,7.432-5.3,8.804c-1.869,3.796-2.803,7.388-2.803,10.775c0,4.205,1.971,7.446,5.913,9.724
			c3.709,2.132,8.702,3.198,14.98,3.198c9.023,0,15.491-1.358,19.404-4.074c3.592-2.482,5.388-6.453,5.388-11.914
			c0-1.08-0.423-1.84-1.27-2.278c-0.526-0.263-1.489-0.482-2.891-0.657c-2.365-0.263-3.898-0.423-4.599-0.482
			c-0.701-0.058-1.65-0.088-2.847-0.088c-2.716,0-4.074-0.482-4.074-1.445c0-0.701,1.132-1.168,3.395-1.402
			c2.263-0.234,5.643-0.35,10.14-0.35H178.834z M221.322,280.429h20.237c0-3.446-0.409-6.074-1.226-7.884
			c-0.555-1.256-1.927-3.066-4.117-5.431l3.417-7.14c2.103,2.657,3.417,4.731,3.942,6.22c0.788,2.249,1.183,5.972,1.183,11.169
			v3.066h14.148l-5.212-37.144l-2.278-1.095c0-2.015,0.175-3.906,0.526-5.672c0.35-1.767,0.876-3.482,1.577-5.147l0.657,0.482
			c0,1.694,0.949,2.964,2.847,3.811c1.46,0.584,2.935,1.168,4.424,1.752c0,1.46-0.117,3.022-0.35,4.687
			c-0.234,1.664-0.511,2.906-0.832,3.723l-2.102-0.701l5.169,34.341v8.585h-20.105h-21.901h-4.599c-1.986,0-3.577-0.803-4.774-2.409
			c-1.051-1.402-1.847-3.49-2.387-6.264s-0.956-6.191-1.248-10.25c-0.175-3.3-0.358-6.687-0.548-10.162
			c-0.19-3.475-0.438-6.11-0.745-7.906c-0.307-1.796-0.723-3.263-1.248-4.402c-0.642-1.402-1.533-2.628-2.672-3.679l5.388-8.498
			c1.139,3.504,1.942,7.695,2.409,12.571c0.292,3.037,0.584,10.22,0.876,21.551c0.526,5.198,1.285,8.527,2.278,9.987
			c0.818,1.226,1.708,1.84,2.672,1.84H221.322z M353.998,288.051h21.901v-10.688c0-5.198-0.394-8.921-1.183-11.169
			c-0.526-1.489-1.84-3.563-3.942-6.22l-3.417,7.14c2.19,2.365,3.563,4.176,4.117,5.431c0.818,1.81,1.226,4.439,1.226,7.884h-18.703
			c0-4.059-0.292-7.315-0.876-9.768c-0.584-2.453-1.65-4.862-3.198-7.227l-3.636,8.979c1.402,1.694,2.482,3.679,3.241,5.957
			c0.876,2.57,1.314,5.344,1.314,8.322c0,4.351-2.643,7.738-7.928,10.162c-4.263,1.957-9.155,2.935-14.674,2.935
			c-4.789,0-8.476-0.942-11.06-2.825c-2.584-1.884-3.876-4.636-3.876-8.257c0-2.015,0.329-4.234,0.986-6.658
			c0.657-2.424,2.008-5.738,4.052-9.943l-1.752-0.788c-1.577,3.271-2.686,5.694-3.329,7.271c-1.051,2.599-1.883,5.183-2.497,7.753
			c-0.613,2.57-0.92,5.11-0.92,7.622c0,4.643,1.694,8.089,5.081,10.337c3.095,2.044,7.563,3.066,13.403,3.066
			c9.169,0,15.813-1.65,19.93-4.95C352.085,299.352,353.998,294.563,353.998,288.051z M419.745,280.429h5.388
			c2.365,0,4.059-0.204,5.081-0.613c1.694-0.672,2.541-2.015,2.541-4.03c0-0.847-0.044-1.694-0.131-2.54s-0.248-1.796-0.482-2.847
			l1.796-2.628c0.818,2.687,1.489,4.643,2.015,5.869c0.934,2.132,1.956,3.738,3.066,4.818c1.343,1.314,2.949,1.971,4.818,1.971
			h2.935c2.19,0,3.811-0.336,4.862-1.007c1.168-0.759,1.752-1.971,1.752-3.636c0-0.905-0.058-1.781-0.175-2.628
			c-0.117-0.847-0.277-1.767-0.482-2.76l1.84-2.628l0.92,4.117c0.788,3.241,1.752,5.49,2.891,6.745
			c0.993,1.11,2.336,1.664,4.03,1.664c0.788,0,1.424-0.241,1.905-0.723c0.482-0.482,0.723-1.102,0.723-1.862
			c0-1.635-0.599-3.358-1.796-5.169c-0.204-0.292-0.92-1.241-2.146-2.847l2.847-4.774c1.197,1.811,2.015,3.373,2.453,4.687
			c0.642,1.986,0.964,4.628,0.964,7.928v2.891h18.703c0-3.446-0.409-6.074-1.226-7.884c-0.555-1.256-1.927-3.066-4.117-5.431
			l3.417-7.14c2.103,2.657,3.417,4.731,3.942,6.22c0.788,2.249,1.183,5.972,1.183,11.169v10.688h-23.434h-1.84
			c-1.869,0-3.475-0.255-4.818-0.767c-1.343-0.511-2.57-1.234-3.679-2.168c-1.372,1.08-2.57,1.796-3.592,2.146
			c-1.489,0.526-3.533,0.788-6.132,0.788h-2.847c-1.518,0-3.037-0.292-4.555-0.876c-0.993-0.38-2.219-1.007-3.679-1.883
			c-1.402,1.051-2.686,1.774-3.855,2.168c-1.168,0.394-3.066,0.591-5.694,0.591h-5.388c0,3.212-1.372,6.541-4.117,9.987
			c-2.395,3.037-5.373,5.65-8.936,7.841c-3.387,2.103-6.176,3.154-8.366,3.154c-2.015,0-4.19-0.292-6.526-0.876
			c-1.781-0.438-3.913-1.124-6.395-2.059c-2.102-0.788-4.19-1.577-6.264-2.365l0.745-1.752c1.927,0.38,3.935,0.767,6.023,1.161
			c2.088,0.394,3.979,0.591,5.672,0.591c3.738,0,7.636-1.197,11.695-3.592c3.679-2.19,6.819-4.957,9.417-8.3
			c2.599-3.344,3.898-6.359,3.898-9.045c0-2.307-0.672-4.731-2.015-7.271c-1.08-2.044-2.599-4.147-4.555-6.307l2.497-6.877
			c2.395,2.219,4.161,4.439,5.3,6.658c1.285,2.511,1.927,5.315,1.927,8.41V280.429z M489.039,244.775l-3.417,6.307l-7.096-3.767
			l3.285-6.264L489.039,244.775z M478.965,248.717l-3.329,6.351l-7.096-3.679l3.241-6.351L478.965,248.717z M454.83,240.482
			l-3.373,6.395l-7.008-3.767l3.241-6.395L454.83,240.482z M463.459,248.279l-3.417,6.307l-7.096-3.767l3.285-6.264L463.459,248.279
			z M453.385,252.221l-3.329,6.351l-7.096-3.679l3.241-6.351L453.385,252.221z M375.68,296.811l-3.417,6.307l-7.096-3.767
			l3.285-6.264L375.68,296.811z M365.605,300.753l-3.329,6.351l-7.096-3.679l3.241-6.351L365.605,300.753z M337.704,254.455
			l-3.285,6.264l-6.833-3.767l3.154-6.088L337.704,254.455z M278.133,276.881c0,2.336-0.423,4.599-1.27,6.789
			c-0.438,1.168-1.387,3.022-2.847,5.563l-0.788-0.438c0.088-0.847,0.168-1.825,0.241-2.935c0.073-1.11,0.109-1.854,0.109-2.234
			c0-3.037-0.241-7.278-0.723-12.724s-1.059-11.133-1.73-17.061c-0.409-3.592-0.861-7.257-1.358-10.994
			c0.584-1.285,1.248-2.672,1.993-4.161c0.745-1.489,1.453-2.891,2.124-4.205c0.467,3.329,1.059,7.884,1.774,13.666
			c0.715,5.782,1.278,10.994,1.686,15.637C277.87,269.566,278.133,273.932,278.133,276.881z M235.908,236.978l-3.373,6.395
			l-7.008-3.767l3.241-6.395L235.908,236.978z M244.537,244.775l-3.417,6.307l-7.096-3.767l3.285-6.264L244.537,244.775z
			 M234.462,248.717l-3.329,6.351l-7.096-3.679l3.241-6.351L234.462,248.717z M198.764,247.534l-3.329,6.351l-7.096-3.679
			l3.241-6.351L198.764,247.534z M162.233,316.128l-4.074,3.767l-4.906-3.11l3.942-4.117L162.233,316.128z M153.166,316.128
			l-3.986,3.767l-5.081-3.11l4.074-4.117L153.166,316.128z"/>
	</g>
</g>
</svg>
