<?xml version="1.0" encoding="utf-8"?>
<!-- Generator: Adobe Illustrator 17.0.0, SVG Export Plug-In . SVG Version: 6.00 Build 0)  -->
<!DOCTYPE svg PUBLIC "-//W3C//DTD SVG 1.1//EN" "http://www.w3.org/Graphics/SVG/1.1/DTD/svg11.dtd">
<svg version="1.1" id="Layer_1" xmlns="http://www.w3.org/2000/svg" xmlns:xlink="http://www.w3.org/1999/xlink" x="0px" y="0px"
	 width="566.93px" height="566.93px" viewBox="0 0 566.93 566.93" enable-background="new 0 0 566.93 566.93" xml:space="preserve">
<g>
	<path fill="#231F20" d="M525.793,182.483c-0.782-8.838-2.378-17.602-3.667-26.375c-1.332-9.069-2.059-18.193-2.351-27.354
		c-0.404-12.637,1.331-26.144-1.372-38.555c-0.257-1.18-1.615-0.607-2.362,0.149c-0.584-1.044-1.962-1.537-3.15-1.505
		c-8.042,0.217-16.091,0.543-24.146,0.684c-8.058,0.141-17.091-0.718-24.834,1.814c-0.973,0.318-2.811,2.567-1.117,3.251
		c6.697,2.704,15.367,1.717,22.471,1.842c7.697,0.136,15.382,0.412,23.068,0.638c1.313,1.629,4.439,0.965,6.003-0.413
		c0.046-0.04,0.091-0.081,0.137-0.121c0.076-0.067,0.148-0.139,0.22-0.21c-1.467,10.69-1.193,21.898-1.281,32.561
		c-0.075,9.058,0.117,18.07,1.112,27.074c0.943,8.526,2.185,17.015,3.004,25.555c0.343,3.583,0.568,7.18,0.523,10.78
		c-0.024,1.881-0.57,3.529-0.714,5.262c-1.774-0.529-3.458-0.682-5.471-0.602c-0.365,0.015-0.734,0.121-1.1,0.27
		c-62.232-4.531-124.769,0.974-187.05,1.196c-62.76,0.224-125.539-7.316-188.276-2.873c-11.536,0.817-23.056,2.12-34.458,4.076
		c0.729-0.879,1.206-1.917,1.196-2.969c-0.018-2.041-0.25-3.504-1.303-5.053c-1.341-6.561-0.976-13.707-0.828-20.233
		c0.188-8.3,0.753-16.581,0.607-24.887c-0.158-8.976-1.117-17.816-2.55-26.672c-1.228-7.586-1.782-15.653-3.471-23.224
		c6.702,0.092,13.386,0.206,20.102,0.573c7.22,0.395,14.018-0.37,21.087-0.873c0.762,0.009,1.527-0.038,2.291-0.154
		c2.042-0.311,3.846-1.513,4.743-3.419c0.794-1.688,0.486-4.66-1.928-4.809c-3.42-0.212-6.685,1.153-10.093,1.545
		c-4.476,0.515-9.027,0.411-13.522,0.308c1.417-2.752,2.432-5.895,3.122-7.341c3.604-7.548,7.7-14.799,15.035-19.194
		c0.961-0.576,1.721-3.022-0.152-2.708c-7.538,1.262-12.81,9.664-16.498,15.613c-2.127,3.43-4.032,6.988-6.086,10.461
		c-0.654,1.105-1.46,2.021-2.122,2.941c-7.348-0.267-14.723-0.346-21.739,2.093c-0.317,0.11-0.617,0.289-0.896,0.507
		c-5.993-0.081-11.987-0.778-17.948-1.313c-1.869-0.168-4.92,2.76-2.548,4.186c1.071,0.644,2.201,1.192,3.371,1.665
		c-0.69,0.318-1.343,0.896-1.48,1.459c-7.185,29.664-2.361,61.193-5.41,91.36c-3.282,32.484-5.563,65.183-6.993,97.798
		c-1.325,30.211,0.312,59.982,2.718,90.096c2.376,29.732,4.823,59.761,1.487,89.518c-0.696,6.213-1.856,12.338-3.256,18.428
		c-0.415,1.806,0.55,3.108,2.217,3.628c9.731,3.035,20.009,1.405,29.976,1.197c4.639-0.096,7.81-8.439,1.781-8.313
		c-8.418,0.175-16.995,1.55-25.308-0.143c9.57-57.243-3.253-114.839-3.133-172.298c0.068-32.568,2.73-65.221,5.164-97.679
		c1.173-15.656,2.553-31.23,2.592-46.942c0.038-15.332-0.491-30.647,0.017-45.977c0.236-7.122,0.889-14.236,1.44-21.339
		c0.004-0.049-0.003-0.087-0.003-0.132c4.336,1.435,9.088,1.987,13.493,2.419c1.178,0.116,2.38-0.186,3.372-0.826
		c-0.502,7.009,0.977,14.284,1.945,21.116c1.354,9.565,2.116,19.026,2.188,28.687c0.128,17.064-2.058,33.573,0.163,50.609
		c0.348,2.669,2.335,3.094,4.284,2.356c-0.705,1.332-0.579,2.798,1.404,2.594c62.445-6.424,124.885-1.438,187.41,0.659
		c64.83,2.174,129.708-4.407,194.494-1.264c10.895,0.528,21.751,1.455,32.605,2.519c2.2,0.216,5.647-2.369,6.499-4.772
		c0.985-0.219,1.958-0.703,2.504-1.127C527.846,196.558,526.263,187.792,525.793,182.483z"/>
	<path fill="#231F20" d="M138.672,62.531c0.503-0.094,1.015-0.191,1.53-0.288c-0.452,0.586-0.634,1.288-0.256,1.928
		c4.3,7.271,6.833,15.984,8.515,24.205c1.578,7.713,3.579,18.088,0.457,25.644c-0.643,1.556-0.609,3.248,0.942,4.225
		c0.917,0.577,1.902,0.425,2.887,0.14c1.819-0.527,3.34-2.181,3.771-4.009c1.995-8.465,0.659-17.934-1.107-26.303
		c-1.941-9.199-4.578-19.645-11.446-26.488c5.477-0.833,11.164-0.941,15.535,2.83c4.679,4.036,7.064,9.444,8.725,15.285
		c3.232,11.365,3.386,24.068,2.706,35.916c-0.179,0.927-0.232,1.871-0.171,2.744c0.381,5.444,8.778,1.687,8.474-2.717
		c0.037-0.556,0-1.166-0.107-1.77c-0.841-14.394,0.004-28.982-5.23-42.726c-1.753-4.604-6.558-13.908-12.378-14.374
		c-7.94-0.635-16.557-1.89-23.393,3.235C137.237,60.674,137.085,62.829,138.672,62.531z"/>
	<path fill="#231F20" d="M184.785,90.578c19.605,4.352,40.761,4.034,60.751,4.226c20.09,0.192,40.256,0.304,60.342-0.107
		c19.091-0.391,38.138-2.076,57.223-2.678c9.457-0.298,18.911-0.276,28.356,0.313c4.391,0.274,8.767,0.728,13.128,1.299
		c2.29,0.3,4.563,0.784,6.844,1.145c0.482,1.2,1.684,1.849,3.776,1.014c0.649-0.259,1.239-0.419,1.791-0.557
		c0.032-0.001,0.064,0.002,0.096,0.001c-0.003-0.007-0.006-0.015-0.009-0.022c1.545-0.383,2.798-0.622,4.223-2.425
		c0.71-0.899,1.048-1.878,1.056-2.783c0.767,5.208,1.547,10.542,1.727,15.802c0.047,1.377,0.14,2.751,0.133,4.129
		c-0.002,0.326,0.002,1.512,0.023,2.336c-0.153,1.497,0.027,2.929,1.412,3.941c2.451,1.791,6.526-1.528,6.85-3.981
		c0.951-7.208-1.251-15.938-2.352-22.943c-1.06-6.747-2.685-13.39-4.523-19.963c-1.431-5.12-3.528-11.351-7.475-15.181
		c1.955,0.109,3.922,0.051,5.929-0.021c3.783-0.137,9.101-1.5,12.03,1.396c5.043,4.987,8.135,11.29,10.148,18.01
		c3.566,11.903,2.898,24.337,2.495,36.6c-0.896,0.684-1.578,1.766-1.421,2.724c0.385,2.348,0.643,3.648,2.755,4.983
		c3.179,2.011,7.34-2.17,7.292-5.243c-0.238-15.164,0.121-31.189-4.832-45.713c-2.448-7.18-6.758-13.648-12.621-18.454
		c-0.941-0.771-1.912-0.99-3.104-0.608c-2.536,0.813-5.526,0.67-8.165,0.879c-4.947,0.39-9.907,0.758-14.737,1.933
		c-0.347,0.084-0.68,0.33-0.937,0.642c-6.611-2.29-13.484,2.202-17.792,7.025c-5.188,5.81-8.126,14.562-9.953,22.007
		c-1.274,5.191,6.505,3.29,7.514-0.608c1.425-5.506,2.444-10.884,5.009-16.031c3.3-6.627,8.122-7.909,14.921-9.2
		c0.378-0.072,0.931-0.428,1.348-0.873c0.307,0.069,0.613,0.135,0.919,0.19c-0.584,0.444-0.974,1.108-0.846,1.825
		c0.86,4.819,2.843,9.524,4.152,14.256c1.725,6.229,2.951,12.605,3.921,18.993c-0.421-1.178-1.539-2.041-3.274-2.091
		c-8.181-0.235-16.434-2.154-24.684-2.521c-9.224-0.411-18.459-0.342-27.686-0.091c-19.14,0.522-38.229,2.173-57.363,2.818
		c-19.431,0.655-38.918,0.789-58.359,0.984c-21.335,0.214-42.335-1.363-63.599-2.534C184.646,85.28,181.166,89.775,184.785,90.578z"
		/>
	<path fill="#231F20" d="M167.497,124.652c0.782-1.5,0.394-4.256-1.749-4.362c-4.133-0.204-7.676,2.854-12.117,2.616
		c-2.058-0.111-4.244-0.842-5.839-2.172c-1.601-1.334-2.03-4.071-3.98-4.808c-0.5-0.189-1.097-0.093-1.483,0.309
		c-5.045,5.236,1.677,11.392,6.589,12.995C154.543,131.066,164.446,130.504,167.497,124.652z"/>
	<path fill="#231F20" d="M444.123,116.863c-7.543,4.154-19.867,3.891-24.992-3.855c-0.655-0.99-2.358,0.259-2.452,1.099
		c-1.684,15.225,20.936,14.432,30.103,9.706C451.713,121.27,449.703,113.79,444.123,116.863z"/>
	<path fill="#231F20" d="M109.714,184.668c-2.82,0.266-6.584,6.194-2.266,6.625c3.211,0.321,6.433,0.417,9.654,0.594
		c3.03,0.167,6.095,0.843,9.122,0.694c2.607-0.128,7.368-5.653,3.397-7.179C123.85,183.184,115.767,184.098,109.714,184.668z"/>
	<path fill="#231F20" d="M146.057,188.096c2.895,1.286,6.403,1.28,9.518,1.37c4.199,0.122,7.976,0.31,11.714-1.928
		c1.262-0.755,3.594-4.178,1.09-5.086c-3.165-1.146-5.906-0.746-9.19-0.527c-3.451,0.23-6.933,0.057-10.373,0.339
		C146.691,182.439,142.856,186.674,146.057,188.096z"/>
	<path fill="#231F20" d="M197.046,181.187c-3.121,0.18-6.252,0.456-9.334,0.99c-2.24,0.388-5.714,4.877-1.92,5.614
		c5.469,1.062,13.525,2.604,18.231-1.082c1.128-0.883,1.633-2.508,0.798-3.725C203.334,180.817,199.315,181.057,197.046,181.187z"/>
	<path fill="#231F20" d="M227.642,181.945c-2.418,0.432-6.187,5.249-2.078,6.074c5.15,1.034,11.322,1.544,16.566,1.036
		c1.983-0.192,3.805-1.559,4.648-3.351c0.81-1.722,0.452-4.473-1.89-4.713C239.367,180.425,233.084,180.974,227.642,181.945z"/>
	<path fill="#231F20" d="M273.892,181.68c-3.238-0.045-6.88-0.014-10.027,0.819c-2.23,0.59-3.921,4.178-1.096,5.112
		c2.643,0.874,5.808,1.185,8.564,1.55c2.902,0.384,5.553,0.995,8.443,0.289c2.445-0.597,5.541-5.154,2.353-6.842
		C279.689,181.317,276.584,181.718,273.892,181.68z"/>
	<path fill="#231F20" d="M313.277,182.785c-4.093,0.311-8.113,0.206-12.203-0.064c-1.915-0.126-5.189,2.883-2.665,4.378
		c5.697,3.374,12.957,2.341,19.296,2.626c1.809,0.081,3.484-1.623,4.254-3.067C324.376,182.128,315.719,182.6,313.277,182.785z"/>
	<path fill="#231F20" d="M350.458,182.194c-3.501,0.174-7.56,0.014-10.893,1.243c-1.55,0.571-4.295,3.816-1.729,5.028
		c2.746,1.296,6.377,1.11,9.34,1.261c3.289,0.167,7.777,1.196,10.683-0.817c1.648-1.143,3.615-3.602,1.948-5.595
		C357.848,180.974,353.109,182.063,350.458,182.194z"/>
	<path fill="#231F20" d="M375.429,182.998c-1.558,0.31-4.076,3.412-1.361,3.982c5.288,1.11,10.677,1.057,16.033,1.636
		c3.816,0.413,9.836,2.444,10.856-3.267c0.292-1.64-0.425-3.29-2.202-3.604C390.994,180.376,383.074,181.474,375.429,182.998z"/>
	<path fill="#231F20" d="M429.44,182.115c-4.548,0.187-9.127,0.772-13.55,1.846c-1.772,0.431-3.247,3.5-0.893,4.168
		c3.836,1.089,7.83,1.472,11.8,1.711c4.06,0.245,8.7,1.164,12.185-1.273c1.463-1.023,3.181-3.165,1.72-4.938
		C438.207,180.602,432.946,181.971,429.44,182.115z"/>
	<path fill="#231F20" d="M452.106,186.896c6.554,1.481,13.383,1.428,20.051,2.013c5.222,0.458,8.519-8.352,2.691-7.864
		c-7.145,0.598-14.383,0.641-21.437,2.036C451.9,183.38,449.521,186.312,452.106,186.896z"/>
	<path fill="#231F20" d="M507.408,189.154c5.026,0.648,8.766-8.27,2.482-8.304c-5.17-0.028-11.092,0-16.025,1.648
		c-1.475,0.493-4.235,3.849-1.687,4.907C496.668,189.27,502.504,189.189,507.408,189.154z"/>
	<path fill="#231F20" d="M520.471,209.528c-0.149-1.992-2.843-0.455-2.941,0.943c-3.181,45.105,0.119,90.766-3.805,135.768
		c-0.866,0.521-1.675,1.382-1.852,1.933c-3.355,10.437-4.582,21.533-7.726,32.069c-3.521,11.805-8.516,23.409-15.395,33.656
		c-6.105,9.094-14.181,17.171-24.815,20.566c-6.609,2.11-13.386,1.146-19.37-2.264c-2.832-1.613-5.383-4.137-6.778-7.12
		c-1.473-3.148,0.56-6.291,1.549-9.188c0.382-1.119-1.038-1.392-1.754-0.979c-3.828,2.202-5.484,5.77-5.722,9.645
		c-0.043-0.595-0.102-1.187-0.197-1.77c-0.116-0.714-1.061-0.409-1.261,0.102c-5.958,15.251-10.357,31.004-17.394,45.885
		c-3.965,8.383-8.069,16.887-13.587,24.379c-1.852,2.515-3.874,4.852-6.334,6.787c-1.555,1.222-2.792,1.058-5.277,1.603
		c-1.626,0.357-3.898,2.817-3.72,4.805c-8.288-2.246-16.876-3.17-25.429-3.923c-11.477-1.011-22.97-1.732-34.48-2.221
		c-24.44-1.037-48.924-0.908-73.377-0.564c-23.918,0.337-47.82,0.669-71.741,0.42c-12.472-0.131-24.943-0.229-37.413,0.081
		c-11.016,0.273-23.107,0.241-33.773,3.563c0.054-0.133,0.117-0.26,0.163-0.396c1.551-4.603-0.763-10.379-1.257-14.988
		c-0.903-8.414-1.373-16.803-1.58-25.267c-0.351-14.403,0.234-28.811,0.302-43.214c0.067-14.295-0.228-28.574,0.041-42.873
		c0.525-27.973,1.9-56.009,0.779-83.982c-1.118-27.908-4.06-55.833-6.174-83.675c-0.221-2.912-4.17-0.674-4.308,1.381
		c-1.838,27.455,2.15,55.184,3.447,82.578c1.323,27.953-0.108,56.028-0.703,83.984c-0.596,28.031-0.557,56.13-0.597,84.168
		c-0.013,9.106,0.361,18.174,1.045,27.249c0.277,3.669,0.461,7.288,0.391,10.97c-0.024,1.256,0.17,2.681,0.442,3.902
		c0.106,0.476,0.403,2.049,0.387,1.47c0.223,1.135,0.85,2.199,2.143,2.345c0.008,0.001,0.016,0.002,0.024,0.003
		c0.666,0.075,1.291,0.014,1.87-0.152c0.141,0.252,0.418,0.44,0.898,0.506c10.73,1.472,22.199-0.316,33.007-0.537
		c11.781-0.241,23.564-0.068,35.344,0.156c23.902,0.455,47.785,0.483,71.69,0.354c23.806-0.128,47.617-0.261,71.414,0.58
		c11.594,0.409,23.163,1.171,34.723,2.143c9.125,0.767,18.492,1.508,27.409,3.837c1.83,1.151,3.78,1.765,6.253,1.929
		c0.636,0.042,1.294-0.072,1.936-0.298c0.028,0.123,0.05,0.246,0.091,0.37c1.049,3.19,5.064,1.811,6.994-0.718
		c0.006,0.028,0.035,0.021,0.099-0.034c0.41-0.353,0.854-0.671,1.286-0.995c1.25-0.932,2.46-1.918,3.703-2.858
		c3.603-2.729,7.302-5.33,11.002-7.923c8.217-5.757,16.43-10.802,25.325-15.498c12.883-6.801,26.184-13.363,37.451-22.719
		c9.329-7.745,17.292-17.221,23.509-27.614c13.594-22.729,19.079-49.1,22.469-75.058c4.043-30.961,4.481-62.335,3.996-93.512
		C522.583,249.373,521.97,229.418,520.471,209.528z M394.941,511.753c0.035,0.107,0.055,0.224,0.067,0.343
		C394.984,511.982,394.979,511.866,394.941,511.753z M467.316,461.515c-11.593,9.54-26.117,15.725-39.327,22.646
		c-8.175,4.283-15.633,9.356-23.205,14.612c-0.971,0.674-1.941,1.35-2.91,2.029c6.111-7.217,10.444-16.264,14.29-24.825
		c4.438-9.879,8.128-20.136,11.344-30.472c1.742-5.6,4.147-12.112,4.396-18.29c0.103,1.106,0.304,2.217,0.588,3.311
		c1.829,7.042,11.8,10.785,18.012,11.896c13.962,2.497,27.803-6.582,36.759-16.394c7.92-8.676,13.794-19.022,18.351-29.851
		c-0.179,0.708-0.345,1.418-0.53,2.126C498.644,422.882,487.171,445.176,467.316,461.515z"/>
	<path fill="#231F20" d="M55.402,467.79c-4.307-0.932-5.311-3.747-6.556-7.774c-1.624-5.257-2.056-10.873-2.301-16.34
		c-0.525-11.705,0.691-23.467,1.893-35.094c2.826-27.349,3.372-54.889,4.909-82.341c1.828-32.649,1.254-65.406,3.774-98.002
		c2.427-31.406,8.878-63.727,4.868-95.176c-1.643-12.881-4.425-26.265-1.726-39.166c0.372-1.778-2.197-1.095-2.525,0.205
		c-3.739,14.811-1.662,29.22,0.027,44.144c1.836,16.223,0.045,32.399-1.454,48.584c-1.445,15.604-3.092,31.188-4.268,46.816
		c-1.227,16.301-1.275,32.564-1.595,48.894c-0.643,32.826-3.485,65.564-4.646,98.369c-0.792,22.388-5.496,44.652-4.456,67.099
		c0.268,5.778,1.121,11.574,2.92,17.082c0.726,2.222,1.484,5.461,3.06,7.256c0.967,1.103,2.807,1.221,4.435,1.102
		c0.443,0.131,1.001,0.089,1.66-0.19c0.037-0.006,0.081-0.011,0.117-0.017C56.05,473.22,58.805,468.526,55.402,467.79z
		 M53.661,473.15c0.047-0.023,0.09-0.037,0.138-0.063C53.752,473.112,53.706,473.132,53.661,473.15z"/>
	<path fill="#231F20" d="M247.251,385.124c-4.213,2.17-8.038,5.926-11.367,8.823c-3.758,3.269-9.575,7.743-10.735,12.865
		c-1.166,5.148,5.177,3.566,7.219,1.361c3.033-3.275,5.566-6.825,8.866-9.937c2.438-2.298,5.322-4.434,7.849-6.83
		c-1.167,3.713-1.006,7.666-1.172,11.584c-0.228,5.38-0.32,10.769-0.473,16.151c-0.295,10.41-0.391,20.823-0.519,31.236
		c-0.059,4.798,0.12,9.593,0.298,14.388c0.055,1.471-0.165,4.116,0.34,6.216c-4.407,0.894-8.497,2.564-10.764,5.825
		c-1.182,1.7-0.853,4.08,1.602,4.021c6.629-0.159,13.318-2.226,20.043-2.52c6.639-0.289,13.832-0.367,20.245,1.634
		c3.749,1.171,9.041-5.6,4.837-7.948c-2.049-1.145-4.488-1.802-7.081-2.165c0.005-0.075,0.026-0.148,0.026-0.223
		c-0.018-13.434-1.381-26.883-1.351-40.353c0.033-14.586,1.016-29.099,2.809-43.569c0.333-2.688-1.62-3.959-4.119-3.324
		c-7.623,1.935-15.49,0.206-23.211-0.118C249.136,382.179,247.669,383.667,247.251,385.124z M255.718,469.461
		c0.078,0.185,0.157,0.369,0.242,0.55c-0.127,0.007-0.256,0.016-0.383,0.023C255.635,469.844,255.671,469.652,255.718,469.461z
		 M252.649,388.612c-0.123,0.161-0.232,0.333-0.338,0.507c-0.175-0.25-0.395-0.4-0.641-0.461c0.058-0.072,0.109-0.148,0.167-0.221
		C252.107,388.496,252.378,388.554,252.649,388.612z"/>
	<path fill="#231F20" d="M292.753,453.473c3.318,16.028,15.838,24.688,31.368,26.946c7.293,1.061,14.747,0.455,21.859-1.376
		c5.047-1.3,11.022-3.752,14.679-7.877c7.272-3.766,13.529-9.885,17.517-16.634c6.044-10.229,6.784-22.214,3.916-33.56
		c-2.969-11.742-10.646-22.15-20.089-29.517c-9.05-7.059-24.669-13.655-36.073-8.729c-0.001,0-0.002,0.001-0.003,0.001
		c-12.448-2.688-23.505,12.699-28.05,22.241C290.938,419.536,289.505,437.786,292.753,453.473z M310.402,464.519
		c0.093,0.292,0.185,0.585,0.287,0.872c-0.231-0.174-0.462-0.348-0.683-0.531C310.143,464.753,310.273,464.636,310.402,464.519z
		 M340.133,389.441c1.311,0.411,2.604,0.908,3.876,1.469c0.865,1.13,1.776,2.232,2.483,3.331c2.122,3.3,4.063,6.644,5.787,10.17
		c3.612,7.382,5.769,15.517,6.778,23.646c1.006,8.104,0.774,16.276-1.024,24.248c-1.269,5.624-4.235,10.309-6.599,15.331
		c-2.279,1.169-4.557,2.31-6.747,3.496c-5.359,1.387-11.114,1.458-16.567,0.801c-1.844-0.222-3.655-0.578-5.433-1.042
		c0.974-1.406,1.265-3.107,0.094-4.466c-3.508-4.074-4.705-9.423-5.503-14.618c-1.265-8.228-1.255-16.67-0.795-24.961
		c0.473-8.526,1.693-16.939,3.554-25.268c1.181-5.282,3.345-9.649,5.371-14.425c0.832-0.27,1.677-0.532,2.535-0.793
		C331.858,387.655,336.323,388.247,340.133,389.441z"/>
</g>
<g id="Page-1">
	<path id="month_october" d="M353.53,312.298h22.211v-10.839c0-5.271-0.4-9.047-1.199-11.328c-0.533-1.51-1.866-3.613-3.998-6.308
		l-3.465,7.241c2.221,2.399,3.613,4.235,4.176,5.508c0.829,1.836,1.244,4.501,1.244,7.996H353.53c0-4.116-0.296-7.418-0.888-9.906
		c-0.592-2.488-1.673-4.931-3.243-7.33l-3.687,9.107c1.422,1.718,2.517,3.731,3.287,6.041c0.888,2.606,1.333,5.419,1.333,8.44
		c0,4.413-2.68,7.848-8.04,10.306c-4.324,1.984-9.284,2.976-14.881,2.976c-4.857,0-8.596-0.955-11.217-2.865
		c-2.621-1.91-3.931-4.701-3.931-8.374c0-2.043,0.333-4.294,1-6.752c0.666-2.458,2.036-5.819,4.109-10.084l-1.777-0.8
		c-1.599,3.317-2.725,5.775-3.376,7.374c-1.066,2.636-1.91,5.257-2.532,7.863s-0.933,5.183-0.933,7.729
		c0,4.709,1.718,8.203,5.153,10.484c3.139,2.073,7.67,3.11,13.593,3.11c9.299,0,16.036-1.673,20.212-5.02
		C351.591,323.759,353.53,318.902,353.53,312.298z M420.208,304.568h5.464c2.399,0,4.116-0.207,5.153-0.622
		c1.718-0.681,2.576-2.043,2.576-4.087c0-0.859-0.044-1.718-0.133-2.576s-0.252-1.821-0.489-2.887l1.821-2.665
		c0.829,2.725,1.51,4.709,2.043,5.953c0.948,2.162,1.984,3.791,3.11,4.886c1.362,1.333,2.991,1.999,4.886,1.999h2.976
		c2.221,0,3.865-0.341,4.931-1.022c1.185-0.77,1.777-1.999,1.777-3.687c0-0.918-0.059-1.806-0.178-2.665
		c-0.118-0.859-0.281-1.792-0.489-2.799l1.866-2.665l0.933,4.176c0.8,3.287,1.777,5.568,2.932,6.841
		c1.007,1.125,2.369,1.688,4.087,1.688c0.8,0,1.444-0.244,1.932-0.733c0.489-0.489,0.733-1.118,0.733-1.888
		c0-1.658-0.607-3.406-1.821-5.242c-0.207-0.296-0.933-1.259-2.177-2.887l2.887-4.842c1.214,1.836,2.043,3.421,2.488,4.753
		c0.652,2.014,0.977,4.694,0.977,8.04v2.932h18.968c0-3.495-0.415-6.16-1.244-7.996c-0.563-1.273-1.955-3.11-4.176-5.508
		l3.465-7.241c2.132,2.695,3.465,4.798,3.998,6.308c0.8,2.28,1.199,6.056,1.199,11.328v10.839H466.94h-1.866
		c-1.895,0-3.524-0.259-4.886-0.777c-1.362-0.518-2.606-1.251-3.731-2.199c-1.392,1.096-2.606,1.821-3.643,2.177
		c-1.51,0.533-3.583,0.8-6.219,0.8h-2.887c-1.54,0-3.08-0.296-4.62-0.888c-1.007-0.385-2.251-1.022-3.731-1.91
		c-1.422,1.066-2.725,1.799-3.909,2.199c-1.185,0.4-3.11,0.6-5.775,0.6h-5.464c0,3.258-1.392,6.634-4.176,10.128
		c-2.428,3.08-5.449,5.73-9.062,7.952c-3.435,2.132-6.264,3.198-8.485,3.198c-2.043,0-4.25-0.296-6.619-0.888
		c-1.806-0.444-3.968-1.14-6.486-2.088c-2.132-0.8-4.25-1.599-6.352-2.399l0.755-1.777c1.955,0.385,3.991,0.777,6.108,1.177
		c2.117,0.4,4.035,0.6,5.753,0.6c3.791,0,7.744-1.214,11.861-3.643c3.731-2.221,6.915-5.027,9.551-8.418s3.954-6.449,3.954-9.173
		c0-2.34-0.681-4.798-2.043-7.374c-1.096-2.073-2.636-4.205-4.62-6.397l2.532-6.974c2.428,2.251,4.22,4.501,5.375,6.752
		c1.303,2.547,1.955,5.39,1.955,8.529V304.568z M490.484,268.409l-3.465,6.397l-7.196-3.82l3.332-6.352L490.484,268.409z
		 M480.267,272.407l-3.376,6.441l-7.196-3.731l3.287-6.441L480.267,272.407z M455.79,264.055l-3.421,6.486l-7.108-3.82l3.287-6.486
		L455.79,264.055z M464.541,271.962l-3.465,6.397l-7.196-3.82l3.332-6.352L464.541,271.962z M454.324,275.96l-3.376,6.441
		l-7.196-3.731l3.287-6.441L454.324,275.96z M375.519,321.182l-3.465,6.397l-7.196-3.82l3.332-6.352L375.519,321.182z
		 M365.302,325.18l-3.376,6.441l-7.196-3.731l3.287-6.441L365.302,325.18z M337.005,278.226l-3.332,6.352l-6.93-3.82l3.198-6.175
		L337.005,278.226z M276.591,300.97c0,2.369-0.429,4.664-1.288,6.885c-0.444,1.185-1.407,3.065-2.887,5.642l-0.8-0.444
		c0.089-0.859,0.17-1.851,0.244-2.976c0.074-1.125,0.111-1.881,0.111-2.266c0-3.08-0.244-7.381-0.733-12.905
		c-0.489-5.523-1.074-11.291-1.755-17.302c-0.415-3.643-0.874-7.359-1.377-11.15c0.592-1.303,1.266-2.71,2.021-4.22
		c0.755-1.51,1.473-2.932,2.154-4.265c0.474,3.376,1.074,7.996,1.799,13.86c0.726,5.864,1.296,11.15,1.71,15.859
		C276.325,293.552,276.591,297.979,276.591,300.97z M258.2,265.343l-2.132,7.996l-2.621-1.288l0.089,4.042
		c0,3.968-0.503,7.818-1.51,11.55c-1.096,4.087-2.828,8.129-5.197,12.127c1.125,2.073,1.91,3.702,2.354,4.886
		c0.681,1.866,1.022,3.761,1.022,5.686c0,1.096-0.03,2.029-0.089,2.799c-0.059,0.77-0.192,1.673-0.4,2.71
		c-3.139,0.711-6.493,1.266-10.062,1.666c-3.569,0.4-7.041,0.6-10.417,0.6c0.03-0.563,0.044-1.036,0.044-1.422
		c0.148-2.251,0.503-4.339,1.066-6.263c5.035-2.695,9.284-6.189,12.749-10.484c-2.073-3.909-3.583-6.678-4.531-8.307
		c-1.037-1.777-2.799-4.546-5.286-8.307c-0.918-1.273-1.732-2.295-2.443-3.065c-0.977-1.037-1.747-1.555-2.31-1.555
		c-0.385,0-1.022,0.222-1.91,0.666c-0.474,0.237-0.874,0.355-1.199,0.355c-0.652,0-1.673-0.652-3.065-1.955
		c-1.214-1.155-2.488-2.576-3.82-4.265c-1.066-1.362-1.792-2.495-2.177-3.398s-0.577-1.992-0.577-3.265
		c0-1.836,0.118-3.272,0.355-4.309c0.355-1.57,0.962-2.354,1.821-2.354c1.214,0,2.976,1.155,5.286,3.465
		c2.043,2.073,4.324,4.798,6.841,8.174c2.221,2.991,4.413,6.219,6.574,9.684l4.531,7.285c1.333,2.191,2.695,4.679,4.087,7.463
		c1.984-3.998,3.346-8.04,4.087-12.127c0.652-3.554,0.977-8.085,0.977-13.593l-2.532-1.466c0-1.955,0.17-3.724,0.511-5.308
		c0.341-1.584,0.822-3.028,1.444-4.331l1.022,0.267c0.118,1.273,0.829,2.295,2.132,3.065c0.711,0.415,1.621,0.888,2.732,1.422
		C256.757,264.722,257.608,265.107,258.2,265.343z M246.651,308.566c0-0.652-0.126-1.325-0.378-2.021
		c-0.252-0.696-0.807-1.844-1.666-3.443c-0.888,1.155-2.214,2.488-3.976,3.998c-1.762,1.51-3.502,2.799-5.22,3.865
		c3.495,0,5.982-0.104,7.463-0.311C245.392,310.299,246.651,309.603,246.651,308.566z M226.216,252.55
		c0,0.74-0.459,1.407-1.377,1.999c-0.622,0.385-1.555,0.8-2.799,1.244l-8.263,2.843c0-1.362,1.481-2.562,4.442-3.598
		c-0.918-0.474-1.614-0.933-2.088-1.377c-0.622-0.563-0.933-1.155-0.933-1.777c0-0.918,0.785-2.206,2.354-3.865
		c1.747-1.836,3.287-2.754,4.62-2.754c0.592,0,1.103,0.2,1.533,0.6c0.429,0.4,0.644,0.925,0.644,1.577
		c0,0.415-0.089,0.837-0.267,1.266s-0.429,0.911-0.755,1.444c-0.918-0.829-1.91-1.244-2.976-1.244c-0.652,0-1.296,0.133-1.932,0.4
		c-0.637,0.267-0.955,0.577-0.955,0.933c0,0.444,0.689,1.051,2.066,1.821s2.554,1.155,3.532,1.155c0.652,0,1.118-0.022,1.399-0.067
		S225.328,252.905,226.216,252.55z M212.09,309.632c0,4.886-1.806,9.743-5.42,14.57c-4.028,5.39-8.677,8.085-13.949,8.085
		c-1.955,0-3.968-0.222-6.041-0.666c-1.51-0.326-3.48-0.888-5.908-1.688c-1.925-0.681-3.85-1.347-5.775-1.999l0.755-1.555
		c1.658,0.385,3.398,0.792,5.22,1.222c1.821,0.429,3.458,0.644,4.909,0.644c3.613,0,7.033-0.918,10.262-2.754
		c2.517-1.451,5.034-3.554,7.552-6.308c1.273-1.392,3.08-3.657,5.419-6.797c-3.998,0-6.989-0.637-8.973-1.91
		c-2.251-1.451-3.376-3.835-3.376-7.152c0-3.05,0.711-5.879,2.132-8.485c1.658-3.021,3.761-4.531,6.308-4.531
		c2.576,0,4.427,1.496,5.553,4.487c0.888,2.34,1.333,5.597,1.333,9.773V309.632z M209.292,304.79
		c-0.652-2.843-1.436-4.812-2.354-5.908c-0.8-0.948-1.777-1.422-2.932-1.422c-0.829,0-1.547,0.274-2.154,0.822
		c-0.607,0.548-0.911,1.236-0.911,2.066c0,1.451,0.652,2.554,1.955,3.309S206.33,304.79,209.292,304.79z M172.777,306.789
		c0,4.738-1.111,8.499-3.332,11.283c-1.984,2.458-4.901,4.22-8.751,5.286c-3.258,0.888-7.389,1.333-12.394,1.333
		c-5.716,0-10.143-1.051-13.282-3.154c-3.435-2.31-5.153-5.76-5.153-10.35c0-2.547,0.37-5.197,1.111-7.952
		c0.622-2.34,1.57-4.901,2.843-7.685c0.918-2.014,2.162-4.442,3.731-7.285l1.422,0.844c-1.096,1.984-2.014,3.761-2.754,5.331
		c-0.977,2.103-1.703,3.983-2.177,5.642c-0.563,2.014-0.844,3.968-0.844,5.864c0,3.643,1.325,6.397,3.976,8.263
		c2.651,1.866,6.33,2.799,11.039,2.799c5.005,0,9.64-0.859,13.904-2.576c4.679-1.895,7.019-4.161,7.019-6.797
		c0-2.873-0.459-7.744-1.377-14.615c-0.711-5.271-1.584-11.165-2.621-17.68l-1.466-8.618l-2.043-1.066
		c0-3.968,0.814-7.581,2.443-10.839h0.755c0.118,1.125,0.326,1.962,0.622,2.51c0.296,0.548,0.785,0.955,1.466,1.222
		c0.918,0.385,1.925,0.844,3.021,1.377c0.8,0.385,1.496,0.726,2.088,1.022c0,2.073-0.074,3.583-0.222,4.531
		c-0.148,0.948-0.444,2.28-0.888,3.998l-2.532-0.8c0.059,0.652,0.489,3.628,1.288,8.929c0.918,6.19,1.599,11.209,2.043,15.059
		C172.421,298.823,172.777,303.532,172.777,306.789z"/>
</g>
</svg>
