<?xml version="1.0" encoding="utf-8"?>
<!-- Generator: Adobe Illustrator 17.0.0, SVG Export Plug-In . SVG Version: 6.00 Build 0)  -->
<!DOCTYPE svg PUBLIC "-//W3C//DTD SVG 1.1//EN" "http://www.w3.org/Graphics/SVG/1.1/DTD/svg11.dtd">
<svg version="1.1" id="Layer_1" xmlns="http://www.w3.org/2000/svg" xmlns:xlink="http://www.w3.org/1999/xlink" x="0px" y="0px"
	 width="566.93px" height="566.93px" viewBox="0 0 566.93 566.93" enable-background="new 0 0 566.93 566.93" xml:space="preserve">
<g>
	<path fill="#231F20" d="M525.793,182.483c-0.782-8.838-2.378-17.602-3.667-26.375c-1.332-9.069-2.059-18.193-2.351-27.354
		c-0.404-12.637,1.331-26.144-1.372-38.555c-0.257-1.18-1.615-0.607-2.362,0.149c-0.584-1.044-1.962-1.537-3.15-1.505
		c-8.042,0.217-16.091,0.543-24.146,0.684c-8.058,0.141-17.091-0.718-24.834,1.814c-0.973,0.318-2.811,2.567-1.117,3.251
		c6.697,2.704,15.367,1.717,22.471,1.842c7.697,0.136,15.382,0.412,23.068,0.638c1.313,1.629,4.439,0.965,6.003-0.413
		c0.046-0.04,0.091-0.081,0.137-0.121c0.076-0.067,0.148-0.139,0.22-0.21c-1.467,10.69-1.193,21.898-1.281,32.561
		c-0.075,9.058,0.117,18.07,1.112,27.074c0.943,8.526,2.185,17.015,3.004,25.555c0.343,3.583,0.568,7.18,0.523,10.78
		c-0.024,1.881-0.57,3.529-0.714,5.262c-1.774-0.529-3.458-0.682-5.471-0.602c-0.365,0.015-0.734,0.121-1.1,0.27
		c-62.232-4.531-124.769,0.974-187.05,1.196c-62.76,0.224-125.539-7.316-188.276-2.873c-11.536,0.817-23.056,2.12-34.458,4.076
		c0.729-0.879,1.206-1.917,1.196-2.969c-0.018-2.041-0.25-3.504-1.303-5.053c-1.341-6.561-0.976-13.707-0.828-20.233
		c0.188-8.3,0.753-16.581,0.607-24.887c-0.158-8.976-1.117-17.816-2.55-26.672c-1.228-7.586-1.782-15.653-3.471-23.224
		c6.702,0.092,13.386,0.206,20.102,0.573c7.22,0.395,14.018-0.37,21.087-0.873c0.762,0.009,1.527-0.038,2.291-0.154
		c2.042-0.311,3.846-1.513,4.743-3.419c0.794-1.688,0.486-4.66-1.928-4.809c-3.42-0.212-6.685,1.153-10.093,1.545
		c-4.476,0.515-9.027,0.411-13.522,0.308c1.417-2.752,2.432-5.895,3.122-7.341c3.604-7.548,7.7-14.799,15.035-19.194
		c0.961-0.576,1.721-3.022-0.152-2.708c-7.538,1.262-12.81,9.664-16.498,15.613c-2.127,3.43-4.032,6.988-6.086,10.461
		c-0.654,1.105-1.46,2.021-2.122,2.941c-7.348-0.267-14.723-0.346-21.739,2.093c-0.317,0.11-0.617,0.289-0.896,0.507
		c-5.993-0.081-11.987-0.778-17.948-1.313c-1.869-0.168-4.92,2.76-2.548,4.186c1.071,0.644,2.201,1.192,3.371,1.665
		c-0.69,0.318-1.343,0.896-1.48,1.459c-7.185,29.664-2.361,61.193-5.41,91.36c-3.282,32.484-5.563,65.183-6.993,97.798
		c-1.325,30.211,0.312,59.982,2.718,90.096c2.376,29.732,4.823,59.761,1.487,89.518c-0.696,6.213-1.856,12.338-3.256,18.428
		c-0.415,1.806,0.55,3.108,2.217,3.628c9.731,3.035,20.009,1.405,29.976,1.197c4.639-0.096,7.81-8.439,1.781-8.313
		c-8.418,0.175-16.995,1.55-25.308-0.143c9.57-57.243-3.253-114.839-3.133-172.298c0.068-32.568,2.73-65.221,5.164-97.679
		c1.173-15.656,2.553-31.23,2.592-46.942c0.038-15.332-0.491-30.647,0.017-45.977c0.236-7.122,0.889-14.236,1.44-21.339
		c0.004-0.049-0.003-0.087-0.003-0.132c4.336,1.435,9.088,1.987,13.493,2.419c1.178,0.116,2.38-0.186,3.372-0.826
		c-0.502,7.009,0.977,14.284,1.945,21.116c1.354,9.565,2.116,19.026,2.188,28.687c0.128,17.064-2.058,33.573,0.163,50.609
		c0.348,2.669,2.335,3.094,4.284,2.356c-0.705,1.332-0.579,2.798,1.404,2.594c62.445-6.424,124.885-1.438,187.41,0.659
		c64.83,2.174,129.708-4.407,194.494-1.264c10.895,0.528,21.751,1.455,32.605,2.519c2.2,0.216,5.647-2.369,6.499-4.772
		c0.985-0.219,1.958-0.703,2.504-1.127C527.846,196.558,526.263,187.792,525.793,182.483z"/>
	<path fill="#231F20" d="M138.672,62.531c0.503-0.094,1.015-0.191,1.53-0.288c-0.452,0.586-0.634,1.288-0.256,1.928
		c4.3,7.271,6.833,15.984,8.515,24.205c1.578,7.713,3.579,18.088,0.457,25.644c-0.643,1.556-0.609,3.248,0.942,4.225
		c0.917,0.577,1.902,0.425,2.887,0.14c1.819-0.527,3.34-2.181,3.771-4.009c1.995-8.465,0.659-17.934-1.107-26.303
		c-1.941-9.199-4.578-19.645-11.446-26.488c5.477-0.833,11.164-0.941,15.535,2.83c4.679,4.036,7.064,9.444,8.725,15.285
		c3.232,11.365,3.386,24.068,2.706,35.916c-0.179,0.927-0.232,1.871-0.171,2.744c0.381,5.444,8.778,1.687,8.474-2.717
		c0.037-0.556,0-1.166-0.107-1.77c-0.841-14.394,0.004-28.982-5.23-42.726c-1.753-4.604-6.558-13.908-12.378-14.374
		c-7.94-0.635-16.557-1.89-23.393,3.235C137.237,60.674,137.085,62.829,138.672,62.531z"/>
	<path fill="#231F20" d="M184.785,90.578c19.605,4.352,40.761,4.034,60.751,4.226c20.09,0.192,40.256,0.304,60.342-0.107
		c19.091-0.391,38.138-2.076,57.223-2.678c9.457-0.298,18.911-0.276,28.356,0.313c4.391,0.274,8.767,0.728,13.128,1.299
		c2.29,0.3,4.563,0.784,6.844,1.145c0.482,1.2,1.684,1.849,3.776,1.014c0.649-0.259,1.239-0.419,1.791-0.557
		c0.032-0.001,0.064,0.002,0.096,0.001c-0.003-0.007-0.006-0.015-0.009-0.022c1.545-0.383,2.798-0.622,4.223-2.425
		c0.71-0.899,1.048-1.878,1.056-2.783c0.767,5.208,1.547,10.542,1.727,15.802c0.047,1.377,0.14,2.751,0.133,4.129
		c-0.002,0.326,0.002,1.512,0.023,2.336c-0.153,1.497,0.027,2.929,1.412,3.941c2.451,1.791,6.526-1.528,6.85-3.981
		c0.951-7.208-1.251-15.938-2.352-22.943c-1.06-6.747-2.685-13.39-4.523-19.963c-1.431-5.12-3.528-11.351-7.475-15.181
		c1.955,0.109,3.922,0.051,5.929-0.021c3.783-0.137,9.101-1.5,12.03,1.396c5.043,4.987,8.135,11.29,10.148,18.01
		c3.566,11.903,2.898,24.337,2.495,36.6c-0.896,0.684-1.578,1.766-1.421,2.724c0.385,2.348,0.643,3.648,2.755,4.983
		c3.179,2.011,7.34-2.17,7.292-5.243c-0.238-15.164,0.121-31.189-4.832-45.713c-2.448-7.18-6.758-13.648-12.621-18.454
		c-0.941-0.771-1.912-0.99-3.104-0.608c-2.536,0.813-5.526,0.67-8.165,0.879c-4.947,0.39-9.907,0.758-14.737,1.933
		c-0.347,0.084-0.68,0.33-0.937,0.642c-6.611-2.29-13.484,2.202-17.792,7.025c-5.188,5.81-8.126,14.562-9.953,22.007
		c-1.274,5.191,6.505,3.29,7.514-0.608c1.425-5.506,2.444-10.884,5.009-16.031c3.3-6.627,8.122-7.909,14.921-9.2
		c0.378-0.072,0.931-0.428,1.348-0.873c0.307,0.069,0.613,0.135,0.919,0.19c-0.584,0.444-0.974,1.108-0.846,1.825
		c0.86,4.819,2.843,9.524,4.152,14.256c1.725,6.229,2.951,12.605,3.921,18.993c-0.421-1.178-1.539-2.041-3.274-2.091
		c-8.181-0.235-16.434-2.154-24.684-2.521c-9.224-0.411-18.459-0.342-27.686-0.091c-19.14,0.522-38.229,2.173-57.363,2.818
		c-19.431,0.655-38.918,0.789-58.359,0.984c-21.335,0.214-42.335-1.363-63.599-2.534C184.646,85.28,181.166,89.775,184.785,90.578z"
		/>
	<path fill="#231F20" d="M167.497,124.652c0.782-1.5,0.394-4.256-1.749-4.362c-4.133-0.204-7.676,2.854-12.117,2.616
		c-2.058-0.111-4.244-0.842-5.839-2.172c-1.601-1.334-2.03-4.071-3.98-4.808c-0.5-0.189-1.097-0.093-1.483,0.309
		c-5.045,5.236,1.677,11.392,6.589,12.995C154.543,131.066,164.446,130.504,167.497,124.652z"/>
	<path fill="#231F20" d="M444.123,116.863c-7.543,4.154-19.867,3.891-24.992-3.855c-0.655-0.99-2.358,0.259-2.452,1.099
		c-1.684,15.225,20.936,14.432,30.103,9.706C451.713,121.27,449.703,113.79,444.123,116.863z"/>
	<path fill="#231F20" d="M109.714,184.668c-2.82,0.266-6.584,6.194-2.266,6.625c3.211,0.321,6.433,0.417,9.654,0.594
		c3.03,0.167,6.095,0.843,9.122,0.694c2.607-0.128,7.368-5.653,3.397-7.179C123.85,183.184,115.767,184.098,109.714,184.668z"/>
	<path fill="#231F20" d="M146.057,188.096c2.895,1.286,6.403,1.28,9.518,1.37c4.199,0.122,7.976,0.31,11.714-1.928
		c1.262-0.755,3.594-4.178,1.09-5.086c-3.165-1.146-5.906-0.746-9.19-0.527c-3.451,0.23-6.933,0.057-10.373,0.339
		C146.691,182.439,142.856,186.674,146.057,188.096z"/>
	<path fill="#231F20" d="M197.046,181.187c-3.121,0.18-6.252,0.456-9.334,0.99c-2.24,0.388-5.714,4.877-1.92,5.614
		c5.469,1.062,13.525,2.604,18.231-1.082c1.128-0.883,1.633-2.508,0.798-3.725C203.334,180.817,199.315,181.057,197.046,181.187z"/>
	<path fill="#231F20" d="M227.642,181.945c-2.418,0.432-6.187,5.249-2.078,6.074c5.15,1.034,11.322,1.544,16.566,1.036
		c1.983-0.192,3.805-1.559,4.648-3.351c0.81-1.722,0.452-4.473-1.89-4.713C239.367,180.425,233.084,180.974,227.642,181.945z"/>
	<path fill="#231F20" d="M273.892,181.68c-3.238-0.045-6.88-0.014-10.027,0.819c-2.23,0.59-3.921,4.178-1.096,5.112
		c2.643,0.874,5.808,1.185,8.564,1.55c2.902,0.384,5.553,0.995,8.443,0.289c2.445-0.597,5.541-5.154,2.353-6.842
		C279.689,181.317,276.584,181.718,273.892,181.68z"/>
	<path fill="#231F20" d="M313.277,182.785c-4.093,0.311-8.113,0.206-12.203-0.064c-1.915-0.126-5.189,2.883-2.665,4.378
		c5.697,3.374,12.957,2.341,19.296,2.626c1.809,0.081,3.484-1.623,4.254-3.067C324.376,182.128,315.719,182.6,313.277,182.785z"/>
	<path fill="#231F20" d="M350.458,182.194c-3.501,0.174-7.56,0.014-10.893,1.243c-1.55,0.571-4.295,3.816-1.729,5.028
		c2.746,1.296,6.377,1.11,9.34,1.261c3.289,0.167,7.777,1.196,10.683-0.817c1.648-1.143,3.615-3.602,1.948-5.595
		C357.848,180.974,353.109,182.063,350.458,182.194z"/>
	<path fill="#231F20" d="M375.429,182.998c-1.558,0.31-4.076,3.412-1.361,3.982c5.288,1.11,10.677,1.057,16.033,1.636
		c3.816,0.413,9.836,2.444,10.856-3.267c0.292-1.64-0.425-3.29-2.202-3.604C390.994,180.376,383.074,181.474,375.429,182.998z"/>
	<path fill="#231F20" d="M429.44,182.115c-4.548,0.187-9.127,0.772-13.55,1.846c-1.772,0.431-3.247,3.5-0.893,4.168
		c3.836,1.089,7.83,1.472,11.8,1.711c4.06,0.245,8.7,1.164,12.185-1.273c1.463-1.023,3.181-3.165,1.72-4.938
		C438.207,180.602,432.946,181.971,429.44,182.115z"/>
	<path fill="#231F20" d="M452.106,186.896c6.554,1.481,13.383,1.428,20.051,2.013c5.222,0.458,8.519-8.352,2.691-7.864
		c-7.145,0.598-14.383,0.641-21.437,2.036C451.9,183.38,449.521,186.312,452.106,186.896z"/>
	<path fill="#231F20" d="M507.408,189.154c5.026,0.648,8.766-8.27,2.482-8.304c-5.17-0.028-11.092,0-16.025,1.648
		c-1.475,0.493-4.235,3.849-1.687,4.907C496.668,189.27,502.504,189.189,507.408,189.154z"/>
	<path fill="#231F20" d="M520.471,209.528c-0.149-1.992-2.843-0.455-2.941,0.943c-3.181,45.105,0.119,90.766-3.805,135.768
		c-0.866,0.521-1.675,1.382-1.852,1.933c-3.355,10.437-4.582,21.533-7.726,32.069c-3.521,11.805-8.516,23.409-15.395,33.656
		c-6.105,9.094-14.181,17.171-24.815,20.566c-6.609,2.11-13.386,1.146-19.37-2.264c-2.832-1.613-5.383-4.137-6.778-7.12
		c-1.473-3.148,0.56-6.291,1.549-9.188c0.382-1.119-1.038-1.392-1.754-0.979c-3.828,2.202-5.484,5.77-5.722,9.645
		c-0.043-0.595-0.102-1.187-0.197-1.77c-0.116-0.714-1.061-0.409-1.261,0.102c-5.958,15.251-10.357,31.004-17.394,45.885
		c-3.965,8.383-8.069,16.887-13.587,24.379c-1.852,2.515-3.874,4.852-6.334,6.787c-1.555,1.222-2.792,1.058-5.277,1.603
		c-1.626,0.357-3.898,2.817-3.72,4.805c-8.288-2.246-16.876-3.17-25.429-3.923c-11.477-1.011-22.97-1.732-34.48-2.221
		c-24.44-1.037-48.924-0.908-73.377-0.564c-23.918,0.337-47.82,0.669-71.741,0.42c-12.472-0.131-24.943-0.229-37.413,0.081
		c-11.016,0.273-23.107,0.241-33.773,3.563c0.054-0.133,0.117-0.26,0.163-0.396c1.551-4.603-0.763-10.379-1.257-14.988
		c-0.903-8.414-1.373-16.803-1.58-25.267c-0.351-14.403,0.234-28.811,0.302-43.214c0.067-14.295-0.228-28.574,0.041-42.873
		c0.525-27.973,1.9-56.009,0.779-83.982c-1.118-27.908-4.06-55.833-6.174-83.675c-0.221-2.912-4.17-0.674-4.308,1.381
		c-1.838,27.455,2.15,55.184,3.447,82.578c1.323,27.953-0.108,56.028-0.703,83.984c-0.596,28.031-0.557,56.13-0.597,84.168
		c-0.013,9.106,0.361,18.174,1.045,27.249c0.277,3.669,0.461,7.288,0.391,10.97c-0.024,1.256,0.17,2.681,0.442,3.902
		c0.106,0.476,0.403,2.049,0.387,1.47c0.223,1.135,0.85,2.199,2.143,2.345c0.008,0.001,0.016,0.002,0.024,0.003
		c0.666,0.075,1.291,0.014,1.87-0.152c0.141,0.252,0.418,0.44,0.898,0.506c10.73,1.472,22.199-0.316,33.007-0.537
		c11.781-0.241,23.564-0.068,35.344,0.156c23.902,0.455,47.785,0.483,71.69,0.354c23.806-0.128,47.617-0.261,71.414,0.58
		c11.594,0.409,23.163,1.171,34.723,2.143c9.125,0.767,18.492,1.508,27.409,3.837c1.83,1.151,3.78,1.765,6.253,1.929
		c0.636,0.042,1.294-0.072,1.936-0.298c0.028,0.123,0.05,0.246,0.091,0.37c1.049,3.19,5.064,1.811,6.994-0.718
		c0.006,0.028,0.035,0.021,0.099-0.034c0.41-0.353,0.854-0.671,1.286-0.995c1.25-0.932,2.46-1.918,3.703-2.858
		c3.603-2.729,7.302-5.33,11.002-7.923c8.217-5.757,16.43-10.802,25.325-15.498c12.883-6.801,26.184-13.363,37.451-22.719
		c9.329-7.745,17.292-17.221,23.509-27.614c13.594-22.729,19.079-49.1,22.469-75.058c4.043-30.961,4.481-62.335,3.996-93.512
		C522.583,249.373,521.97,229.418,520.471,209.528z M394.941,511.753c0.035,0.107,0.055,0.224,0.067,0.343
		C394.984,511.982,394.979,511.866,394.941,511.753z M467.316,461.515c-11.593,9.54-26.117,15.725-39.327,22.646
		c-8.175,4.283-15.633,9.356-23.205,14.612c-0.971,0.674-1.941,1.35-2.91,2.029c6.111-7.217,10.444-16.264,14.29-24.825
		c4.438-9.879,8.128-20.136,11.344-30.472c1.742-5.6,4.147-12.112,4.396-18.29c0.103,1.106,0.304,2.217,0.588,3.311
		c1.829,7.042,11.8,10.785,18.012,11.896c13.962,2.497,27.803-6.582,36.759-16.394c7.92-8.676,13.794-19.022,18.351-29.851
		c-0.179,0.708-0.345,1.418-0.53,2.126C498.644,422.882,487.171,445.176,467.316,461.515z"/>
	<path fill="#231F20" d="M55.402,467.79c-4.307-0.932-5.311-3.747-6.556-7.774c-1.624-5.257-2.056-10.873-2.301-16.34
		c-0.525-11.705,0.691-23.467,1.893-35.094c2.826-27.349,3.372-54.889,4.909-82.341c1.828-32.649,1.254-65.406,3.774-98.002
		c2.427-31.406,8.878-63.727,4.868-95.176c-1.643-12.881-4.425-26.265-1.726-39.166c0.372-1.778-2.197-1.095-2.525,0.205
		c-3.739,14.811-1.662,29.22,0.027,44.144c1.836,16.223,0.045,32.399-1.454,48.584c-1.445,15.604-3.092,31.188-4.268,46.816
		c-1.227,16.301-1.275,32.564-1.595,48.894c-0.643,32.826-3.485,65.564-4.646,98.369c-0.792,22.388-5.496,44.652-4.456,67.099
		c0.268,5.778,1.121,11.574,2.92,17.082c0.726,2.222,1.484,5.461,3.06,7.256c0.967,1.103,2.807,1.221,4.435,1.102
		c0.443,0.131,1.001,0.089,1.66-0.19c0.037-0.006,0.081-0.011,0.117-0.017C56.05,473.22,58.805,468.526,55.402,467.79z
		 M53.661,473.15c0.047-0.023,0.09-0.037,0.138-0.063C53.752,473.112,53.706,473.132,53.661,473.15z"/>
	<path fill="#231F20" d="M264.934,353.773c-0.975,0.231-2.039,2.264-0.537,2.508c0.339,0.055,0.679,0.108,1.018,0.163
		c-0.036,0.137-0.066,0.273-0.076,0.409c-0.013,0.167-0.02,0.334-0.033,0.501c-0.125,0.097-0.258,0.18-0.38,0.281
		c-0.157,0.13-0.319,0.293-0.479,0.469c-1.099,0.249-2.38,1.426-2.46,2.541c-1.112,15.491-0.081,31.115,0.02,46.635
		c0.033,5.032,7.187,1.594,7.906-1.598c2.421-10.739,15.649-11.577,25.169-11.045c10.347,0.579,20.802,3.283,30.221,7.887
		c0.308,5.622,2.068,11.636,3.133,16.968c1.343,6.724,1.748,13.795,2.061,20.635c0.253,5.512-0.254,11.082-0.023,16.594
		c-2.975,1.154-6.025,2.065-8.955,2.82c-7.282,1.877-14.683,2.782-22.088,1.411c-6.997-1.296-13.93-3.402-20.45-6.249
		c-0.467-0.204-0.943-0.421-1.417-0.639c1.475-0.982,2.567-2.695,2.484-4.362c-0.185-3.729-1.544-8.214-5.882-8.687
		c-1.913-0.209-3.797,0.323-5.503,1.16c-0.787,0.387-1.59,0.907-2.242,1.543c-0.281,0.146-0.563,0.316-0.846,0.52
		c-15.469,11.133,13.466,20.807,20.627,22.914c16.393,4.823,32.921,3.217,48.539-3.959c16.174-7.431,28.398-23.203,23.058-41.542
		c-3.919-13.454-17.273-22.503-29.416-27.825c-10.846-4.754-23.128-7.629-35.121-7.351c0.771-2.182,0.798-4.664,0.548-7.134
		c0.231-0.539,0.369-1.104,0.359-1.678c-0.09-5.272-0.642-10.703,0.31-15.906c0.122-0.454,0.248-0.907,0.375-1.36
		c10.951,1.043,21.956,1.467,32.998,0.741c9.292-0.611,20.208-2.165,27.264-8.854c3.35-3.176,5.033-7.154,5.332-11.71
		c0.095-1.453-0.885-2.537-2.169-3.18c-0.223-1.598-1.565-2.579-3.385-2.563c-5.141,0.043-11.259-0.445-16.09,1.552
		c-2.073,0.857-3.765,2.519-3.78,4.892c-0.041,6.168-6.742,9.506-11.338,12.202c-3.263,0.1-6.521,0.095-9.715,0.086
		C297.898,353.518,280.727,350.037,264.934,353.773z M358.243,341.741c-0.002,0.002-0.004,0.003-0.006,0.005
		C358.332,341.489,358.367,341.396,358.243,341.741z"/>
</g>
<g id="Page-1">
	<path id="month_may" d="M304.058,303.785h29.245v-13.338c0-6.487-0.492-11.133-1.476-13.939c-0.656-1.859-2.296-4.446-4.92-7.762
		l-4.264,8.91c2.733,2.952,4.446,5.211,5.138,6.778c1.02,2.259,1.531,5.539,1.531,9.84h-25.255h-5.74
		c-1.203,0-2.314-0.765-3.335-2.296c-1.239-1.822-2.187-5.977-2.843-12.463c-0.364-14.14-0.729-23.105-1.093-26.895
		c-0.583-6.086-1.585-11.316-3.007-15.689l-6.724,10.605c1.421,1.312,2.533,2.843,3.335,4.592c0.656,1.421,1.175,3.253,1.558,5.494
		c0.383,2.241,0.692,5.53,0.929,9.867s0.465,8.564,0.683,12.682c0.364,5.066,0.884,9.329,1.558,12.791
		c0.674,3.462,1.667,6.068,2.979,7.817c1.494,2.004,3.48,3.007,5.958,3.007H304.058z M353.31,230.262
		c0,0.911-0.565,1.731-1.695,2.46c-0.765,0.474-1.913,0.984-3.444,1.531l-10.168,3.499c0-1.676,1.822-3.152,5.466-4.428
		c-1.13-0.583-1.986-1.148-2.569-1.695c-0.765-0.692-1.148-1.421-1.148-2.187c0-1.13,0.966-2.715,2.897-4.756
		c2.15-2.259,4.045-3.389,5.685-3.389c0.729,0,1.358,0.246,1.886,0.738c0.528,0.492,0.793,1.139,0.793,1.941
		c0,0.51-0.109,1.03-0.328,1.558s-0.528,1.121-0.929,1.777c-1.13-1.02-2.351-1.531-3.663-1.531c-0.802,0-1.594,0.164-2.378,0.492
		c-0.784,0.328-1.175,0.711-1.175,1.148c0,0.547,0.847,1.294,2.542,2.241c1.695,0.948,3.143,1.421,4.346,1.421
		c0.802,0,1.376-0.027,1.722-0.082C351.497,230.945,352.217,230.699,353.31,230.262z M351.78,289.846
		c0,2.915-0.528,5.74-1.585,8.473c-0.547,1.458-1.731,3.772-3.553,6.942l-0.984-0.547c0.109-1.057,0.21-2.278,0.301-3.663
		c0.091-1.385,0.137-2.314,0.137-2.788c0-3.79-0.301-9.083-0.902-15.88c-0.601-6.797-1.321-13.894-2.159-21.292
		c-0.51-4.482-1.075-9.056-1.695-13.721c0.729-1.603,1.558-3.335,2.487-5.193s1.813-3.608,2.651-5.248
		c0.583,4.155,1.321,9.84,2.214,17.055c0.893,7.216,1.594,13.721,2.105,19.515C351.452,280.717,351.78,286.165,351.78,289.846z
		 M333.03,314.718l-4.264,7.872l-8.856-4.701l4.1-7.817L333.03,314.718z M320.457,319.638l-4.155,7.926l-8.856-4.592l4.045-7.926
		L320.457,319.638z M280.279,303.785c0,4.009-1.713,8.163-5.138,12.463c-2.988,3.79-6.705,7.052-11.152,9.785
		c-4.227,2.624-7.708,3.936-10.441,3.936c-2.515,0-5.23-0.364-8.145-1.093c-2.223-0.547-4.883-1.403-7.981-2.569
		c-2.624-0.984-5.23-1.968-7.817-2.952l0.929-2.187c2.405,0.474,4.911,0.957,7.516,1.449s4.965,0.738,7.079,0.738
		c4.665,0,9.53-1.494,14.595-4.482c4.592-2.733,8.509-6.186,11.753-10.359s4.865-7.935,4.865-11.288
		c0-2.879-0.838-5.904-2.515-9.074c-1.348-2.551-3.243-5.175-5.685-7.872l3.116-8.582c2.988,2.77,5.193,5.539,6.614,8.309
		c1.603,3.134,2.405,6.633,2.405,10.496V303.785z"/>
</g>
</svg>
