<?xml version="1.0" encoding="utf-8"?>
<!-- Generator: Adobe Illustrator 17.0.0, SVG Export Plug-In . SVG Version: 6.00 Build 0)  -->
<!DOCTYPE svg PUBLIC "-//W3C//DTD SVG 1.1//EN" "http://www.w3.org/Graphics/SVG/1.1/DTD/svg11.dtd">
<svg version="1.1" id="Layer_1" xmlns="http://www.w3.org/2000/svg" xmlns:xlink="http://www.w3.org/1999/xlink" x="0px" y="0px"
	 width="566.93px" height="566.93px" viewBox="0 0 566.93 566.93" enable-background="new 0 0 566.93 566.93" xml:space="preserve">
<g>
	<path fill="#231F20" d="M526.776,182.489c-0.782-8.838-2.378-17.602-3.667-26.375c-1.332-9.069-2.059-18.193-2.351-27.354
		c-0.403-12.631,1.347-26.156-1.354-38.56c-0.259-1.187-1.632-0.599-2.376,0.164c-0.581-1.042-1.955-1.535-3.14-1.503
		c-8.042,0.217-16.091,0.543-24.147,0.684c-8.075,0.141-17.055-0.681-24.83,1.798c-0.968,0.309-2.816,2.587-1.118,3.25
		c6.758,2.641,15.333,1.7,22.475,1.825c7.699,0.136,15.387,0.412,23.076,0.638c1.306,1.627,4.423,0.966,5.982-0.407
		c0.046-0.04,0.091-0.081,0.137-0.121c0.081-0.071,0.157-0.148,0.234-0.223c-1.466,10.693-1.18,21.916-1.268,32.58
		c-0.075,9.058,0.117,18.07,1.113,27.074c0.943,8.526,2.185,17.015,3.003,25.555c0.344,3.583,0.569,7.18,0.523,10.78
		c-0.024,1.892-0.577,3.548-0.717,5.292c-1.781-0.535-3.469-0.689-5.489-0.609c-0.364,0.015-0.733,0.121-1.098,0.27
		c-62.232-4.531-124.77,0.974-187.052,1.196c-62.76,0.224-125.538-7.316-188.276-2.873c-11.549,0.818-23.081,2.122-34.494,4.082
		c0.741-0.882,1.228-1.926,1.219-2.986c-0.018-2.04-0.249-3.502-1.302-5.049c-1.341-6.562-0.976-13.709-0.828-20.236
		c0.188-8.3,0.754-16.581,0.607-24.887c-0.158-8.977-1.117-17.816-2.551-26.672c-1.232-7.608-1.814-15.655-3.477-23.247
		c6.713,0.092,13.407,0.206,20.134,0.573c7.102,0.388,13.793-0.347,20.738-0.85c0.889,0.025,1.784-0.048,2.636-0.177
		c2.033-0.31,3.831-1.507,4.723-3.405c0.791-1.682,0.484-4.641-1.92-4.789c-3.419-0.212-6.683,1.153-10.089,1.545
		c-4.483,0.516-9.041,0.411-13.543,0.308c1.423-2.757,2.441-5.915,3.132-7.361c3.604-7.547,7.717-14.798,15.05-19.191
		c0.961-0.576,1.721-3.022-0.152-2.709c-7.54,1.262-12.804,9.665-16.488,15.618c-2.123,3.43-4.028,6.987-6.081,10.458
		c-0.656,1.108-1.469,2.028-2.134,2.955c-7.349-0.267-14.725-0.347-21.742,2.092c-0.316,0.11-0.617,0.289-0.895,0.508
		c-5.996-0.081-11.993-0.778-17.958-1.313c-1.854-0.166-4.882,2.739-2.528,4.155c1.074,0.646,2.208,1.195,3.381,1.669
		c-0.698,0.315-1.364,0.901-1.502,1.47c-7.183,29.656-2.345,61.198-5.393,91.358c-3.282,32.482-5.562,65.18-6.992,97.794
		c-1.325,30.212,0.312,59.982,2.718,90.096c2.376,29.734,4.823,59.764,1.487,89.522c-0.696,6.213-1.856,12.338-3.257,18.428
		c-0.413,1.798,0.548,3.095,2.208,3.613c9.729,3.035,20.006,1.405,29.971,1.197c4.621-0.096,7.778-8.405,1.774-8.28
		c-8.424,0.175-17.006,1.551-25.324-0.145c9.573-57.245-3.251-114.845-3.131-172.306c0.068-32.568,2.73-65.221,5.164-97.679
		c1.174-15.656,2.553-31.23,2.592-46.942c0.038-15.331-0.504-30.648,0.021-45.978c0.244-7.123,0.903-14.239,1.454-21.344
		c0.004-0.056-0.003-0.1-0.003-0.151c4.338,1.437,9.093,1.989,13.502,2.422c1.185,0.116,2.393-0.192,3.386-0.843
		c-0.492,7.022,0.97,14.292,1.941,21.144c1.355,9.565,2.116,19.026,2.188,28.687c0.128,17.064-2.058,33.573,0.163,50.609
		c0.348,2.671,2.345,3.086,4.296,2.336c-0.717,1.329-0.605,2.806,1.378,2.602c62.445-6.424,124.885-1.439,187.41,0.658
		c64.831,2.174,129.711-4.406,194.499-1.263c10.895,0.529,21.751,1.455,32.605,2.519c2.195,0.215,5.639-2.37,6.479-4.768
		c0.985-0.216,1.96-0.701,2.506-1.125C528.829,196.552,527.245,187.788,526.776,182.489z"/>
	<path fill="#231F20" d="M139.672,62.531c0.558-0.105,1.127-0.213,1.7-0.321c-0.471,0.721-0.634,1.616-0.177,2.374
		c4.471,7.413,6.916,16.647,8.529,25.066c1.417,7.394,3.189,17.161,0.21,24.372c-0.64,1.549-0.607,3.233,0.939,4.206
		c0.913,0.575,1.894,0.424,2.874,0.139c1.811-0.525,3.326-2.172,3.755-3.991c1.994-8.462,0.659-17.928-1.106-26.295
		c-1.949-9.239-4.606-19.585-11.434-26.501c5.483-0.842,11.168-0.965,15.556,2.82c4.68,4.037,7.066,9.446,8.727,15.289
		c3.232,11.367,3.387,24.071,2.707,35.92c-0.179,0.927-0.232,1.871-0.171,2.743c0.38,5.422,8.742,1.68,8.439-2.705
		c0.037-0.555,0-1.165-0.107-1.77c-0.841-14.393,0.004-28.98-5.229-42.723c-1.752-4.6-6.553-13.901-12.369-14.367
		c-7.923-0.634-16.563-1.897-23.386,3.218C138.237,60.674,138.085,62.828,139.672,62.531z"/>
	<path fill="#231F20" d="M185.793,90.562c19.604,4.351,40.758,4.034,60.747,4.226c20.09,0.193,40.256,0.304,60.343-0.107
		c19.091-0.391,38.138-2.075,57.223-2.677c9.458-0.298,18.913-0.276,28.36,0.314c4.391,0.274,8.767,0.728,13.128,1.299
		c2.292,0.3,4.567,0.785,6.85,1.146c0.479,1.197,1.677,1.846,3.762,1.014c0.652-0.26,1.243-0.42,1.798-0.558
		c0.031-0.001,0.063,0.002,0.094,0.001c-0.003-0.007-0.006-0.015-0.009-0.022c1.538-0.38,2.787-0.619,4.206-2.416
		c0.766-0.97,1.105-2.035,1.054-2.995c0.005,0.031,0.01,0.061,0.015,0.092c0.773,5.246,1.564,10.622,1.746,15.923
		c0.047,1.377,0.14,2.751,0.133,4.129c-0.002,0.327,0.003,1.51,0.023,2.333c-0.154,1.494,0.024,2.924,1.405,3.934
		c2.441,1.784,6.499-1.521,6.821-3.964c0.95-7.206-1.252-15.936-2.353-22.939c-1.061-6.746-2.684-13.387-4.522-19.96
		c-1.433-5.125-3.536-11.354-7.474-15.199c1.964,0.106,3.94,0.043,5.947-0.029c3.788-0.136,9.109-1.499,12.042,1.401
		c5.044,4.988,8.137,11.292,10.15,18.013c3.568,11.908,2.898,24.346,2.496,36.614c-0.895,0.679-1.577,1.758-1.42,2.713
		c0.384,2.344,0.64,3.64,2.749,4.974c3.165,2.003,7.311-2.161,7.262-5.222c-0.239-15.163,0.122-31.187-4.831-45.709
		c-2.448-7.179-6.756-13.645-12.62-18.45c-0.936-0.767-1.902-0.985-3.088-0.605c-2.537,0.813-5.529,0.671-8.169,0.879
		c-4.941,0.389-9.91,0.742-14.734,1.916c-0.347,0.084-0.68,0.33-0.938,0.642c-6.598-2.28-13.485,2.225-17.778,7.032
		c-5.187,5.808-8.123,14.557-9.95,21.999c-1.268,5.168,6.476,3.275,7.479-0.606c1.425-5.508,2.445-10.887,5.01-16.036
		c3.31-6.646,8.125-7.903,14.937-9.197c0.378-0.072,0.931-0.428,1.349-0.873c0.307,0.069,0.613,0.134,0.92,0.189
		c-0.586,0.445-0.978,1.11-0.847,1.826c0.882,4.814,2.859,9.514,4.169,14.246c1.753,6.33,2.992,12.809,3.969,19.301
		c-0.332-1.318-1.476-2.318-3.343-2.372c-8.181-0.235-16.435-2.154-24.684-2.521c-9.224-0.411-18.459-0.342-27.687-0.091
		c-19.14,0.522-38.228,2.173-57.363,2.818c-19.431,0.655-38.918,0.789-58.359,0.984c-21.336,0.214-42.337-1.363-63.603-2.534
		C185.654,85.298,182.197,89.764,185.793,90.562z"/>
	<path fill="#231F20" d="M168.481,124.649c0.778-1.493,0.392-4.237-1.741-4.342c-4.131-0.204-7.676,2.854-12.116,2.616
		c-2.061-0.111-4.249-0.843-5.846-2.175c-1.599-1.333-2.03-4.078-3.965-4.821c-0.497-0.191-1.1-0.092-1.483,0.309
		c-5.006,5.242,1.686,11.375,6.597,12.978C155.539,131.046,165.435,130.492,168.481,124.649z"/>
	<path fill="#231F20" d="M445.129,116.877c-7.567,4.167-19.865,3.889-24.998-3.869c-0.655-0.99-2.358,0.258-2.451,1.099
		c-1.683,15.21,20.957,14.404,30.097,9.692C452.687,121.266,450.686,113.816,445.129,116.877z"/>
	<path fill="#231F20" d="M110.71,184.685c-2.806,0.264-6.551,6.163-2.255,6.592c3.211,0.321,6.433,0.417,9.654,0.594
		c3.028,0.166,6.092,0.842,9.118,0.693c2.595-0.128,7.336-5.627,3.382-7.147C124.841,183.201,116.76,184.115,110.71,184.685z"/>
	<path fill="#231F20" d="M147.069,188.081c2.892,1.284,6.398,1.278,9.51,1.369c4.196,0.122,7.97,0.312,11.706-1.925
		c1.254-0.751,3.574-4.154,1.083-5.056c-3.162-1.145-5.901-0.745-9.182-0.526c-3.451,0.23-6.933,0.057-10.373,0.339
		C147.699,182.455,143.886,186.667,147.069,188.081z"/>
	<path fill="#231F20" d="M198.042,181.204c-3.121,0.18-6.252,0.456-9.334,0.99c-2.226,0.386-5.68,4.848-1.909,5.58
		c5.461,1.06,13.514,2.605,18.214-1.076c1.12-0.878,1.622-2.492,0.793-3.701C204.322,180.834,200.307,181.074,198.042,181.204z"/>
	<path fill="#231F20" d="M228.639,181.962c-2.405,0.429-6.153,5.22-2.066,6.041c5.149,1.034,11.319,1.544,16.562,1.036
		c1.975-0.191,3.789-1.552,4.629-3.337c0.807-1.715,0.45-4.455-1.882-4.694C240.36,180.441,234.079,180.991,228.639,181.962z"/>
	<path fill="#231F20" d="M274.889,181.697c-3.237-0.046-6.877-0.015-10.023,0.818c-2.216,0.587-3.896,4.151-1.089,5.08
		c2.643,0.874,5.808,1.185,8.564,1.549c2.899,0.383,5.547,0.995,8.434,0.29c2.434-0.594,5.516-5.131,2.342-6.811
		C280.68,181.333,277.577,181.735,274.889,181.697z"/>
	<path fill="#231F20" d="M314.274,182.802c-4.094,0.311-8.116,0.205-12.207-0.064c-1.901-0.125-5.151,2.862-2.645,4.346
		c5.694,3.373,12.951,2.34,19.287,2.625c1.8,0.081,3.468-1.616,4.235-3.053C325.354,182.138,316.702,182.618,314.274,182.802z"/>
	<path fill="#231F20" d="M351.454,182.211c-3.499,0.174-7.556,0.013-10.889,1.242c-1.54,0.568-4.268,3.793-1.718,4.996
		c2.745,1.296,6.375,1.109,9.336,1.259c3.284,0.167,7.769,1.196,10.669-0.815c1.641-1.137,3.599-3.585,1.939-5.568
		C358.837,180.991,354.101,182.079,351.454,182.211z"/>
	<path fill="#231F20" d="M376.429,182.997c-1.562,0.298-4.074,3.442-1.362,3.982c5.302,1.055,10.68,1.04,16.041,1.619
		c3.804,0.411,9.814,2.446,10.831-3.249c0.292-1.633-0.422-3.276-2.193-3.589C391.971,180.39,384.096,181.534,376.429,182.997z"/>
	<path fill="#231F20" d="M430.435,182.131c-4.552,0.187-9.11,0.8-13.546,1.83c-1.765,0.41-3.256,3.53-0.893,4.168
		c3.856,1.041,7.828,1.454,11.808,1.695c4.055,0.245,8.691,1.164,12.172-1.27c1.454-1.017,3.163-3.147,1.71-4.911
		C439.196,180.619,433.938,181.988,430.435,182.131z"/>
	<path fill="#231F20" d="M453.106,186.896c6.564,1.448,13.387,1.411,20.059,1.996c5.199,0.456,8.482-8.316,2.679-7.83
		c-7.144,0.598-14.376,0.653-21.433,2.019C452.899,183.374,450.521,186.326,453.106,186.896z"/>
	<path fill="#231F20" d="M508.416,189.137c5.005,0.643,8.728-8.237,2.47-8.27c-5.168-0.028-11.088-0.001-16.02,1.648
		c-1.465,0.49-4.208,3.824-1.676,4.875C497.678,189.255,503.514,189.172,508.416,189.137z"/>
	<path fill="#231F20" d="M521.471,209.528c-0.15-1.992-2.843-0.456-2.942,0.943c-3.18,45.087,0.126,90.72-3.784,135.7
		c-0.839,0.4-1.625,1.204-1.872,2c-3.258,10.479-4.562,21.522-7.708,32.068c-3.523,11.808-8.518,23.415-15.4,33.665
		c-6.107,9.097-14.189,17.178-24.827,20.575c-6.614,2.112-13.395,1.147-19.382-2.264c-2.835-1.615-5.387-4.141-6.784-7.126
		c-1.481-3.164,0.573-6.291,1.566-9.198c0.382-1.119-1.038-1.392-1.754-0.98c-3.864,2.223-5.51,5.856-5.714,9.783
		c-0.042-0.642-0.102-1.28-0.205-1.909c-0.116-0.714-1.062-0.409-1.261,0.102c-5.958,15.251-10.341,31.005-17.378,45.887
		c-3.965,8.385-8.071,16.89-13.589,24.383c-1.853,2.516-3.876,4.854-6.338,6.791c-1.565,1.231-2.814,1.067-5.285,1.609
		c-1.627,0.357-3.904,2.828-3.701,4.812c-8.297-2.252-16.895-3.176-25.456-3.93c-11.475-1.01-22.968-1.733-34.477-2.221
		c-24.44-1.037-48.924-0.908-73.378-0.563c-23.918,0.337-47.82,0.67-71.741,0.42c-12.472-0.13-24.943-0.228-37.413,0.081
		c-11.042,0.274-23.098,0.273-33.793,3.564c0.056-0.138,0.122-0.27,0.17-0.412c1.55-4.601-0.764-10.377-1.258-14.984
		c-0.903-8.414-1.373-16.803-1.579-25.266c-0.351-14.404,0.234-28.811,0.302-43.214c0.068-14.295-0.227-28.574,0.041-42.873
		c0.525-27.973,1.9-56.009,0.78-83.983c-1.119-27.927-4.214-55.806-6.157-83.68c-0.202-2.9-4.181-0.687-4.308,1.381
		c-1.683,27.487,2.166,55.15,3.465,82.573c1.324,27.953-0.108,56.028-0.703,83.984c-0.596,28.032-0.557,56.13-0.597,84.169
		c-0.013,9.106,0.361,18.174,1.045,27.249c0.277,3.669,0.461,7.288,0.391,10.97c-0.024,1.255,0.169,2.678,0.441,3.898
		c0.106,0.474,0.403,2.044,0.388,1.471c0.221,1.131,0.846,2.191,2.133,2.336c0.008,0.001,0.016,0.002,0.024,0.003
		c0.659,0.074,1.277,0.013,1.851-0.149c0.137,0.261,0.417,0.456,0.909,0.52c10.758,1.4,22.183-0.334,33.011-0.555
		c11.781-0.241,23.564-0.068,35.344,0.157c23.902,0.456,47.785,0.482,71.69,0.354c23.806-0.127,47.617-0.261,71.413,0.58
		c11.596,0.41,23.166,1.171,34.727,2.143c9.126,0.767,18.494,1.508,27.411,3.837c1.829,1.152,3.778,1.765,6.251,1.928
		c0.638,0.042,1.298-0.073,1.942-0.301c0.028,0.126,0.051,0.253,0.093,0.38c1.017,3.093,4.827,1.869,6.802-0.521
		c0.049-0.038,0.127-0.105,0.265-0.232c0.41-0.353,0.853-0.671,1.286-0.995c1.249-0.932,2.459-1.918,3.702-2.859
		c3.604-2.729,7.305-5.331,11.006-7.925c8.217-5.757,16.43-10.802,25.325-15.498c12.881-6.8,26.18-13.362,37.447-22.716
		c9.327-7.743,17.288-17.215,23.503-27.607c13.593-22.727,19.078-49.097,22.467-75.053c4.043-30.96,4.48-62.333,3.996-93.508
		C523.566,249.38,522.969,229.418,521.471,209.528z M395.097,515.437c0.055-0.074,0.102-0.152,0.152-0.227
		c-0.005,0.026-0.01,0.053-0.016,0.079C395.174,515.353,395.144,515.387,395.097,515.437z M468.326,461.526
		c-11.594,9.541-26.12,15.727-39.331,22.649c-8.175,4.284-15.633,9.356-23.205,14.613c-1,0.694-1.999,1.39-2.996,2.089
		c0.014-0.016,0.029-0.034,0.043-0.05c6.123-7.221,10.461-16.28,14.312-24.851c4.438-9.878,8.127-20.133,11.343-30.468
		c1.756-5.643,4.199-12.213,4.42-18.434c0.099,1.151,0.302,2.308,0.597,3.444c1.828,7.038,11.795,10.779,18.002,11.889
		c13.954,2.495,27.787-6.579,36.738-16.384c7.97-8.731,13.861-19.158,18.432-30.053c-0.196,0.778-0.379,1.556-0.582,2.333
		C499.66,422.885,488.184,445.184,468.326,461.526z"/>
	<path fill="#231F20" d="M56.396,467.803c-4.311-0.932-5.318-3.75-6.563-7.78c-1.624-5.258-2.057-10.876-2.302-16.343
		c-0.526-11.706,0.692-23.468,1.893-35.097c2.826-27.347,3.372-54.886,4.909-82.337c1.828-32.65,1.254-65.406,3.774-98.003
		c2.428-31.406,8.878-63.726,4.868-95.176c-1.643-12.888-4.412-26.262-1.712-39.17c0.372-1.778-2.197-1.096-2.525,0.205
		c-3.737,14.804-1.647,29.224,0.041,44.14c1.836,16.224,0.045,32.401-1.454,48.587c-1.445,15.603-3.091,31.186-4.267,46.813
		c-1.227,16.301-1.275,32.564-1.595,48.895c-0.643,32.826-3.485,65.563-4.646,98.369c-0.792,22.387-5.496,44.652-4.456,67.098
		c0.268,5.777,1.12,11.572,2.919,17.079c0.726,2.221,1.483,5.459,3.058,7.254c0.965,1.1,2.802,1.218,4.428,1.098
		c0.442,0.132,0.999,0.09,1.657-0.19c0.037-0.006,0.081-0.011,0.118-0.017C57.041,473.207,59.782,468.536,56.396,467.803z
		 M54.658,473.138c0.046-0.023,0.089-0.037,0.136-0.062C54.748,473.1,54.703,473.12,54.658,473.138z"/>
	<path fill="#231F20" d="M240.126,416.208c0.398,1.262,1.835,1.794,3.038,1.695c16.69-1.364,33.299-0.897,50.008-0.755
		c-0.184,9.257-0.219,18.519-0.321,27.776c-0.061,5.559-0.411,11.221-0.133,16.775c-0.021,0.443,0.035,0.803,0.124,1.128
		c-1.492-0.022-2.988-0.06-4.495-0.139c-1.901-0.099-6.268,2.899-3.829,5.018c6.05,5.253,18.252,2.869,25.489,2.293
		c9.688-0.771,19.428-1.789,29.091-2.792c3.53-0.366,8.328-7.886,2.862-8.366c-3.202-0.281-6.492-0.141-9.8,0.2
		c1.131-8.03,0.3-16.668,0.372-24.753c0.087-9.784,0.169-19.568,0.314-29.351c0.15-10.164,0.33-20.329,0.554-30.491
		c0.109-4.951,0.243-9.902,0.392-14.852c0.119-3.947,0.635-8.941-1.005-12.612c-0.632-1.415-2.372-0.715-3.172,0.253
		c-0.581-0.988-1.805-1.542-3.825-1.089c-8.848,1.987-18.448,3.455-25.324,9.671c-0.164-0.159-0.345-0.295-0.56-0.385
		c-0.562-0.235-1.216-0.08-1.656,0.344c-0.817,0.789-1.223,1.795-1.448,2.877c-5.583,3.507-10.423,8.549-15.487,12.722
		c-6.544,5.393-13.191,10.672-19.856,15.914c-6.061,4.767-12.164,9.473-18.135,14.355
		C239.122,405.08,238.545,411.195,240.126,416.208z M260.015,395.339c-0.077,0-0.154-0.008-0.23-0.002
		c-0.16,0.013-0.311,0.051-0.465,0.08c0.016-0.095,0.024-0.19,0.036-0.285c0.537-0.475,1.079-0.943,1.617-1.417
		C260.611,394.233,260.292,394.775,260.015,395.339z M323.627,460.223c0.011-0.026,0.02-0.051,0.031-0.077
		c0.003,0.023,0.007,0.047,0.01,0.07C323.654,460.219,323.641,460.221,323.627,460.223z M286.346,371.709
		c3.355-2.949,7.088-5.873,10.121-9.272c-0.01,0.207-0.019,0.416-0.033,0.618c-0.312,4.418-0.497,8.844-0.799,13.263
		c-0.716,10.474-1.862,20.864-2.215,31.371c-0.013,0.374-0.018,0.747-0.03,1.121c-6.766-0.055-13.57-0.227-20.37-0.25
		c-0.237-0.473-0.647-0.881-1.28-1.175c-5.627-2.616-9.362-11.806-4.27-16.848c0.521-0.516,0.47-1.664-0.512-1.315
		c-0.609,0.216-1.177,0.475-1.717,0.758c2.484-2.159,4.975-4.309,7.476-6.448C277.286,379.619,281.829,375.679,286.346,371.709z"/>
	<g id="Page-1">
		<path id="month_april" d="M272.464,293.965h9.305c3.534,0,6.086-0.265,7.656-0.795s3.298-1.502,5.183-2.915
			c1.963,1.178,3.612,2.022,4.947,2.532c2.042,0.785,4.083,1.178,6.125,1.178h3.828c3.494,0,6.243-0.353,8.245-1.06
			c1.374-0.471,2.984-1.433,4.829-2.886c1.492,1.256,3.141,2.228,4.947,2.915c1.806,0.687,3.966,1.031,6.478,1.031h2.474h29.447
			h31.508v-14.37c0-6.989-0.53-11.995-1.59-15.018c-0.707-2.002-2.474-4.79-5.3-8.363l-4.594,9.6c2.945,3.18,4.79,5.615,5.536,7.303
			c1.099,2.434,1.649,5.968,1.649,10.601H367.99v-4.123c0-6.989-0.53-11.995-1.59-15.018c-0.707-2.002-2.474-4.79-5.3-8.363
			l-4.594,9.6c2.945,3.18,4.79,5.615,5.536,7.303c1.099,2.434,1.649,5.968,1.649,10.601h-25.148v-3.887
			c0-4.437-0.432-7.99-1.296-10.66c-0.589-1.767-1.688-3.867-3.298-6.302l-3.828,6.419c1.649,2.159,2.611,3.436,2.886,3.828
			c1.61,2.434,2.415,4.751,2.415,6.95c0,1.021-0.324,1.855-0.972,2.503c-0.648,0.648-1.502,0.972-2.562,0.972
			c-2.277,0-4.083-0.746-5.418-2.238c-1.531-1.688-2.827-4.712-3.887-9.07l-1.237-5.536l-2.474,3.534
			c0.275,1.335,0.491,2.572,0.648,3.71c0.157,1.139,0.236,2.316,0.236,3.534c0,2.238-0.785,3.867-2.356,4.888
			c-1.413,0.903-3.593,1.355-6.537,1.355h-3.946c-2.513,0-4.672-0.883-6.478-2.65c-1.492-1.453-2.866-3.612-4.123-6.478
			c-0.707-1.649-1.61-4.28-2.709-7.892l-2.415,3.534c0.314,1.413,0.53,2.689,0.648,3.828c0.118,1.139,0.177,2.277,0.177,3.416
			c0,2.709-1.139,4.515-3.416,5.418c-1.374,0.55-3.651,0.825-6.832,0.825h-9.305h-6.184c-1.296,0-2.493-0.825-3.593-2.474
			c-1.335-1.963-2.356-6.439-3.063-13.428c-0.393-15.234-0.785-24.893-1.178-28.976c-0.628-6.557-1.708-12.191-3.239-16.903
			l-7.244,11.425c1.531,1.413,2.729,3.062,3.593,4.947c0.707,1.531,1.266,3.504,1.678,5.919s0.746,5.958,1.001,10.63
			c0.255,4.672,0.501,9.227,0.736,13.663c0.393,5.458,0.952,10.051,1.678,13.781c0.726,3.73,1.796,6.537,3.21,8.422
			c1.61,2.159,3.75,3.239,6.419,3.239H272.464z M392.726,239.488l-4.476,8.54l-9.541-4.947l4.358-8.54L392.726,239.488z
			 M367.696,305.744l-4.594,8.481l-9.541-5.065l4.417-8.422L367.696,305.744z M354.15,311.044l-4.476,8.54l-9.541-4.947l4.358-8.54
			L354.15,311.044z M224.936,248.793l-4.417,8.422l-9.188-5.065l4.24-8.186L224.936,248.793z M246.845,293.965
			c0,8.756-2.572,15.195-7.715,19.317c-5.536,4.437-14.468,6.655-26.797,6.655c-7.853,0-13.86-1.374-18.022-4.123
			c-4.555-3.023-6.832-7.656-6.832-13.899c0-3.377,0.412-6.792,1.237-10.248s1.944-6.93,3.357-10.424
			c0.864-2.12,2.356-5.379,4.476-9.776l2.356,1.06c-2.748,5.654-4.564,10.11-5.448,13.369c-0.883,3.259-1.325,6.243-1.325,8.952
			c0,4.869,1.737,8.569,5.212,11.102s8.432,3.799,14.871,3.799c7.421,0,13.997-1.315,19.73-3.946
			c7.107-3.259,10.66-7.813,10.66-13.663c0-4.005-0.589-7.735-1.767-11.19c-1.021-3.063-2.474-5.732-4.358-8.01l4.888-12.073
			c2.081,3.18,3.514,6.419,4.299,9.718c0.785,3.298,1.178,7.676,1.178,13.133V293.965z"/>
	</g>
</g>
</svg>
