<?xml version="1.0" encoding="UTF-8" standalone="no"?><!DOCTYPE svg PUBLIC "-//W3C//DTD SVG 1.1//EN" "http://www.w3.org/Graphics/SVG/1.1/DTD/svg11.dtd"><svg width="100%" height="100%" viewBox="0 0 556 434" version="1.1" xmlns="http://www.w3.org/2000/svg" xmlns:xlink="http://www.w3.org/1999/xlink" xml:space="preserve" style="fill-rule:evenodd;clip-rule:evenodd;stroke-linejoin:round;stroke-miterlimit:1.41421;"><g id="mother"><path d="M90.676,54.773c-7.906,-5.959 -19.796,0.381 -26.514,5.27c-8.286,6.031 -16.084,16.032 -18.993,25.929c-6.026,20.504 12.263,35.459 31.214,36.844c21.568,1.576 39.979,-13.288 43.266,-34.652c1.505,-9.782 -1.483,-19.425 -7.736,-26.988c-2.968,-3.589 -6.935,-6.447 -10.985,-8.68c-2.321,-1.28 -4.983,-2.108 -7.552,-2.72c-3.194,-0.761 -5.387,-0.049 -8.559,0.274c-2.062,0.21 -5.684,4.119 -2.646,5.595c1.693,0.823 2.589,2.134 4.374,2.786c1.681,0.613 3.315,1.42 4.929,2.189c3.605,1.719 6.897,3.791 9.793,6.55c5.292,5.044 8.085,11.877 8.306,19.118c0.223,7.317 -3.141,15.111 -8.341,20.188c-5.449,5.317 -12.872,6.868 -20.24,6.862c-13.884,-0.011 -30.274,-9.753 -27.932,-25.417c1.223,-8.175 7.078,-15.825 12.797,-21.486c2.973,-2.941 6.445,-5.37 10.273,-7.06c4.28,-1.89 8.779,-1.613 13.324,-2.015c1.152,-0.104 2.39,-1.707 1.222,-2.587Z" style="fill-rule:nonzero;"/><path d="M51.09,136.458c-2.056,6.09 -1.52,13.847 -1.636,20.225c-0.132,7.22 0.468,14.308 2.41,21.275c0.467,1.674 2.857,2.175 4.266,1.557c10.446,-4.583 22.879,-0.952 33.905,-1.17c6.217,-0.123 12.412,-0.62 18.635,-0.553c5.291,0.058 12.078,3.44 16.598,-0.031c2.961,-2.275 2.584,-6.847 -1.505,-6.989c-0.48,-0.065 -0.952,-0.022 -1.416,0.129c-2.982,0.586 -6.796,4.566 -3.378,7.139c0.063,0.072 0.125,0.145 0.188,0.217c1.536,-2.495 3.071,-4.989 4.606,-7.484c-1.599,0.227 -5.277,-1.108 -7.136,-1.297c-3.154,-0.319 -6.356,-0.317 -9.521,-0.286c-6.162,0.062 -12.307,0.625 -18.471,0.69c-11.717,0.122 -22.889,-2.794 -34.01,2.38c1.783,0.358 3.567,0.717 5.352,1.076c-2.418,-6.033 -2.883,-12.577 -3.169,-19.01c-0.266,-5.972 1.105,-13.735 -1.167,-19.333c-1.013,-2.497 -4.04,-0.046 -4.551,1.465Z" style="fill-rule:nonzero;"/><path d="M52.973,136.486c4.75,1.857 10.188,1.561 15.224,1.931c5.817,0.429 11.646,0.755 17.465,1.168c11.919,0.845 23.8,1.44 35.747,1.591c-0.812,-1.327 -1.622,-2.653 -2.434,-3.98c-5.035,9.928 2.326,22.681 -2.218,32.271c-1.525,3.221 1.749,5.195 4.498,3.611c10.944,-6.306 0.535,-25.162 4.04,-34.704c0.741,-2.019 0.031,-4.099 -2.434,-3.98c-12.117,0.58 -24.293,-0.146 -36.394,-0.776c-10.301,-0.536 -22.669,-2.741 -32.636,0.368c-0.748,0.234 -2.161,1.991 -0.858,2.5Z" style="fill-rule:nonzero;"/><path d="M55.932,175.872c-6.341,4.509 -9.521,13.222 -12.354,20.193c-3.674,9.047 -6.507,18.413 -10.013,27.524c-7.853,20.41 -16.813,40.99 -19.065,62.98c2.826,-1.267 5.652,-2.534 8.479,-3.802c-0.276,-0.579 -0.696,-1.03 -1.262,-1.354c-2.688,-2.217 -5.907,0.335 -6.838,3.066c-0.399,1.173 -0.534,1.988 -0.475,3.214c0.275,5.635 8.769,2.24 9.233,-1.865c2.343,-20.676 8.462,-40.208 15.827,-59.604c3.246,-8.551 5.708,-17.381 8.725,-26.012c1.418,-4.061 2.984,-8.072 4.732,-12.002c1.664,-3.744 4.132,-7.169 5.088,-11.179c0.296,-1.237 -1.16,-1.812 -2.077,-1.159Z" style="fill-rule:nonzero;"/><path d="M118.415,173.136c-0.029,10.545 4.431,21.104 7.796,31.057c3.607,10.669 6.779,21.389 9.575,32.297c2.863,11.175 5.82,22.325 8.695,33.497c1.18,4.582 2.347,8.882 2.908,13.582c0.125,1.044 0.584,2.35 1.686,2.773c0.064,0.024 0.128,0.049 0.191,0.073c2.046,0.787 4.038,0.237 5.688,-1.183c4.753,-4.095 0.84,-11.503 -0.597,-16.423c-2.866,-9.815 -5.741,-19.637 -8.586,-29.463c-3.479,-12.018 -6.962,-23.948 -11.243,-35.711c-3.874,-10.643 -7.073,-22.732 -13.139,-32.21c-0.911,-1.422 -2.972,0.627 -2.974,1.711Z" style="fill-rule:nonzero;"/><path d="M14.567,289.895c8.128,6.631 19.555,8.014 29.67,9.074c11.154,1.17 22.437,0.934 33.635,0.953c26.074,0.045 51.434,0.061 76.241,-8.96c5.51,-2.003 7.093,-11.252 -0.517,-9.525c-3.395,0.77 -6.149,2.077 -8.213,4.975c-0.688,0.966 -1.303,2.666 -0.282,3.669c2.616,2.572 5.788,1.763 9.012,0.882c-0.618,-2.978 -1.235,-5.956 -1.854,-8.935c-10.555,5.027 -22.997,6.548 -34.503,7.574c-12.165,1.084 -24.41,0.994 -36.611,1.047c-10.42,0.044 -20.816,0.19 -31.229,-0.326c-10.836,-0.538 -21.069,-2.76 -31.539,-5.422c-2.076,-0.527 -6.059,3.16 -3.81,4.994Z" style="fill-rule:nonzero;"/><path d="M51.942,135.934c-7.971,4.434 -13.381,13.074 -18.444,20.377c-5.211,7.517 -9.901,15.357 -14.601,23.197c-8.57,14.297 -18.706,30.928 -17.957,48.232c0.059,1.357 1.065,2.625 2.458,2.801c12.044,1.527 20.251,-15.433 25.036,-23.908c3.18,-5.631 6.137,-11.269 9.706,-16.672c6.264,-9.482 12.979,-18.625 18.793,-28.403c2.708,-4.554 -3.771,-6.705 -6.697,-3.669c-1.387,1.438 -2.56,2.752 -3.295,4.633c-0.987,2.527 0.661,5.083 3.554,4.05c1.932,-0.689 3.377,-1.392 4.821,-2.895c-2.232,-1.223 -4.465,-2.446 -6.697,-3.669c-7.816,13.191 -17.608,25.118 -24.893,38.631c-2.622,4.864 -5.245,9.728 -8.264,14.36c-1.142,1.75 -5.397,9.371 -8.079,9.087c0.82,0.934 1.639,1.867 2.459,2.801c-1.012,-15.646 8.724,-31.024 16.254,-44.036c4.201,-7.26 8.423,-14.483 13.033,-21.496c4.75,-7.226 11.188,-13.967 14.679,-21.922c0.592,-1.35 -0.697,-2.149 -1.866,-1.499Z" style="fill-rule:nonzero;"/><path d="M43.273,102.847c-6.874,-2.991 -11.963,-11.778 -14.351,-18.61c-0.959,-2.741 -1.288,-5.892 -0.846,-8.762c0.175,-1.138 0.889,-1.575 0.067,-1.439c1.556,-0.257 3.226,1.424 4.333,2.253c3.413,2.557 8.316,-3.438 6.22,-6.674c-4.005,-6.182 -4.475,-16.755 -2.618,-23.688c0.875,-3.268 3.898,-4.737 7.048,-4.336c3.781,0.481 5.851,3.76 6.692,7.149c1.226,4.939 8.283,-0.362 8.364,-3.7c0.109,-4.498 0.739,-8.961 1.8,-13.332c0.546,-2.254 2.413,-9.577 5.789,-9.401c5.691,0.296 7.336,14.833 8.185,18.914c0.984,4.731 8.879,0 8.555,-3.784c-0.641,-7.489 4.577,-16.905 13.049,-12.202c6.796,3.772 8.648,14.637 8.34,21.617c2.944,-1.303 5.889,-2.605 8.833,-3.908c-0.586,-2.619 1.294,-3.899 3.504,-4.619c3.2,-1.042 6.093,1.711 7.371,4.348c2.765,5.699 -1.318,13.265 -4.175,18.113c-1.158,1.966 -0.275,4.72 2.066,5.154c2.718,0.504 4.906,-1.488 6.198,-3.613c0.012,-0.02 1.893,1.337 2.267,1.754c1.648,1.842 0.357,4.821 -0.478,6.656c-1.774,3.9 -4.169,7.29 -5.538,11.391c-0.817,2.448 1.429,4.335 3.685,4.199c4.09,-0.249 4.369,7.304 3.225,9.915c-2.332,5.322 -8.644,9.396 -13.634,11.91c-4.006,2.019 -3.843,8.555 1.502,7.243c9.272,-2.276 19.498,-11.298 21.886,-20.729c1.989,-7.854 -1.717,-18.135 -11.018,-17.492c1.229,1.399 2.456,2.799 3.685,4.199c2.695,-8.292 10.418,-15.232 4.501,-24.149c-5.057,-7.62 -14.885,-2.214 -18.347,3.563c2.755,0.514 5.51,1.027 8.265,1.541c5.795,-9.979 9.671,-23.9 -1.634,-31.49c-4.516,-3.032 -11.249,-1.08 -15.384,1.582c-5.376,3.46 -8.132,9.202 -6.572,15.441c1.303,5.206 8.76,-0.37 8.834,-3.908c0.23,-11.035 -4.561,-25.345 -16.48,-28.242c-13.653,-3.318 -23.792,12.699 -22.707,24.533c2.852,-1.261 5.703,-2.522 8.555,-3.784c-1.942,-9.057 -4.544,-24.949 -17.221,-22.054c-13.024,2.975 -15.521,22.666 -15.468,33.379c2.788,-1.233 5.576,-2.467 8.364,-3.7c-3.641,-13.121 -18.582,-13.226 -26.749,-4.347c-7.843,8.528 -5.447,27.152 0.515,35.973c2.073,-2.225 4.146,-4.449 6.22,-6.674c-4.598,-2.273 -9.099,-3.088 -13.401,0.104c-3.564,2.645 -4.12,8.019 -3.931,12.058c0.488,10.418 8.985,24.365 19.297,27.132c2.55,0.685 6.4,-4.15 3.337,-5.484Z" style="fill-rule:nonzero;"/><path d="M469.826,2.508c-9.579,-4.252 -20.816,-0.764 -29.403,4.246c-9.657,5.635 -17.027,15.043 -21.36,25.228c-7.164,16.835 -3.462,35 12.768,44.54c13.764,8.091 32.506,7.645 46.071,-0.538c15.646,-9.437 18.923,-26.887 14.849,-43.602c-3.995,-16.387 -20.396,-37.463 -38.623,-25.185c-1.639,1.104 -3.343,5.785 0.287,5.11c7.644,-1.423 14.604,0.323 20.06,5.934c5.954,6.124 9.29,14.872 10.618,23.184c1.235,7.731 0.721,16.04 -4.204,22.406c-4.593,5.938 -12.229,8.78 -19.452,9.646c-15.235,1.826 -32.71,-5.376 -37.163,-21.092c-2.922,-10.308 1.813,-22.145 7.794,-30.398c7.648,-10.555 18.312,-14.803 30.74,-16.586c1.888,-0.271 3.882,-0.177 5.787,-0.287c0.967,-0.058 2.643,-1.979 1.231,-2.606Z" style="fill-rule:nonzero;"/><path d="M123.889,139.036c0.086,9.254 5.104,17.499 9.462,25.367c4.133,7.463 7.678,15.099 11.53,22.698c7.448,14.695 18.111,31.076 17.627,48.163c1.723,-1.511 3.443,-3.021 5.165,-4.532c-3.402,-0.659 -4.742,-3.367 -7.346,-5.273c-1.463,-1.071 -4.049,0.913 -4.188,2.434c-0.491,5.374 3.274,8.646 8.34,9.617c2.626,0.503 5.098,-2.042 5.164,-4.532c0.446,-16.755 -9.559,-32.704 -17.157,-46.966c-3.925,-7.366 -7.341,-14.959 -11.625,-22.129c-5.096,-8.529 -10.563,-16.782 -13.742,-26.275c-0.62,-1.855 -3.243,0.082 -3.23,1.428Z" style="fill-rule:nonzero;"/><path d="M115.564,166.283c5.476,13.31 14.302,25.224 22.704,36.854c4.02,5.564 8.035,11.128 11.835,16.846c2.016,3.033 3.87,6.16 5.542,9.396c1.225,2.369 1.466,4.648 4.364,5.119c1.4,0.228 2.772,-0.744 3.368,-1.963c2.213,-4.523 -2.604,-10.054 -4.955,-13.843c-3.863,-6.23 -8.365,-12.048 -12.822,-17.859c-9.266,-12.084 -17.854,-24.664 -28.152,-35.895c-0.728,-0.792 -2.261,0.427 -1.884,1.345Z" style="fill-rule:nonzero;"/><path d="M169.53,243.121c-0.131,-1.577 -0.795,-2.138 -2.118,-3.012c-1.11,-0.733 -2.499,0.481 -3.007,1.366c-5.549,9.669 -1.503,20.361 3.646,29.236c2.955,5.094 6.419,9.878 9.795,14.695c3.19,4.554 5.668,9.183 8.313,14.023c1.878,3.438 7.411,-0.727 5.446,-3.889c-0.2,-0.346 -0.399,-0.691 -0.6,-1.038c-1.415,-2.558 -4.905,-0.073 -4.927,2.18c0.007,0.69 -0.014,1.38 -0.061,2.069c1.979,-0.876 3.959,-1.752 5.938,-2.627c-1.152,-3.857 -4.154,-7.569 -6.432,-10.834c-3.201,-4.59 -6.669,-8.988 -9.887,-13.567c-5.965,-8.488 -12.248,-19.114 -7.776,-29.604c-0.709,0.511 -1.417,1.021 -2.125,1.531c1.049,-0.177 2.083,-0.152 3.104,0.074c0.326,0.056 0.72,-0.263 0.691,-0.603Z" style="fill-rule:nonzero;"/><path d="M165.65,242.838c3.368,2.159 5.287,8.131 7.028,11.533c2.453,4.793 5.039,8.883 8.448,13.104c2.935,3.633 5.605,7.449 8.416,11.173c1.757,2.327 3.738,4.679 4.651,7.448c0.227,-1.058 0.453,-2.116 0.681,-3.174c-0.025,0.038 -0.052,0.076 -0.077,0.115c1.052,-0.611 2.104,-1.222 3.155,-1.832c-1.42,0.185 -3.328,0.544 -4.062,2.428c-0.348,0.891 -0.561,2.008 0.177,2.793c2.892,3.079 8.524,-1.444 6.165,-4.873c-2.441,-3.547 -4.881,-7.013 -7.696,-10.291c-4.882,-5.682 -10.481,-11.446 -14.447,-17.802c-2.777,-4.451 -6.08,-10.937 -11.864,-11.567c-0.435,-0.048 -1.094,0.613 -0.575,0.945Z" style="fill-rule:nonzero;"/><path d="M199.115,283.068c-5.961,-0.677 -8.141,7.322 -8.477,11.838c-0.503,6.774 0.296,13.765 2.005,20.336c0.336,1.294 1.936,1.844 3.109,1.736c9.026,-0.829 18.482,-1.379 27.202,-0.692c5.056,0.398 12.402,2.262 15.311,-3.232c0.539,-1.019 0.681,-2.708 -0.228,-3.59c-0.021,-0.021 -0.043,-0.042 -0.064,-0.063c-0.941,-0.914 -2.217,-1.089 -3.447,-0.676c-0.76,0.255 -1.518,0.633 -2.125,1.166c-0.473,0.412 -0.845,0.899 -1.117,1.463c-1.074,2.283 0.359,-0.492 0.436,-0.578c1.588,-0.722 3.177,-1.443 4.766,-2.165c1.432,0.372 -1.366,-0.232 -1.9,-0.203c-0.955,0.052 -1.916,0.009 -2.871,-0.042c-2.451,-0.13 -4.897,-0.354 -7.346,-0.526c-8.824,-0.624 -18.177,-0.288 -26.902,1.145c1.037,0.579 2.074,1.157 3.111,1.736c-1.551,-4.097 -2.334,-8.47 -2.92,-12.794c-0.465,-3.431 -1.594,-9.793 1.627,-12.186c0.798,-0.594 1.247,-2.512 -0.17,-2.673Z" style="fill-rule:nonzero;"/><path d="M195.11,284.589c5.271,1.585 11.876,0.487 17.301,0.429c3.529,-0.039 7.047,0.021 10.563,0.336c2.229,0.199 6.091,0.339 7.878,1.862c3.541,3.016 4.35,9.091 4.492,13.4c0.063,1.884 -0.039,4.354 -1.217,5.921c-0.881,1.173 -1.658,2.997 -0.586,4.289c0.926,1.114 2.63,0.803 3.731,0.199c8.487,-4.657 5.606,-23.34 -1.22,-28.249c-4.871,-3.503 -12.493,-3.003 -18.18,-2.946c-7.135,0.07 -15.229,0.052 -22.156,1.92c-1.201,0.325 -2.213,2.357 -0.606,2.839Z" style="fill-rule:nonzero;"/><path d="M194.8,314.483c-12.392,10.653 -17.853,29.06 -23.52,43.82c-0.912,2.375 0.584,4.146 3.084,3.515c4.384,-1.108 9.983,-1.224 14.744,-1.577c8.45,-0.629 16.923,-0.995 25.392,-1.248c7.807,-0.234 15.621,-0.365 23.429,-0.186c2.655,0.061 5.31,0.181 7.952,0.459c0.865,0.092 1.725,0.222 2.575,0.402c1.99,0.422 -0.051,0.204 -0.076,-1.389c0.068,4.262 6.724,1.318 6.668,-2.139c-0.067,-4.245 -7.492,-3.82 -10.238,-3.965c-8.194,-0.432 -16.421,-0.276 -24.62,-0.06c-9.292,0.245 -18.584,0.724 -27.854,1.41c-6.051,0.448 -12.414,0.71 -18.293,2.352c1.027,1.172 2.057,2.343 3.084,3.515c2.625,-7.377 5.287,-14.735 8.366,-21.938c3.235,-7.566 7.563,-14.596 10.884,-22.108c0.51,-1.154 -0.81,-1.521 -1.577,-0.863Z" style="fill-rule:nonzero;"/><path d="M232.804,312.112c1.862,8.32 8.695,15.895 12.86,23.18c2.249,3.933 4.246,7.952 5.767,12.225c1.358,3.817 0.725,8.299 2.282,11.861c1.132,2.588 4.699,0.736 5.519,-1.124c3.424,-7.767 -2.731,-18.599 -6.563,-25.173c-4.493,-7.711 -10.314,-17.135 -17.328,-22.779c-1.178,-0.948 -2.837,0.469 -2.537,1.81Z" style="fill-rule:nonzero;"/><path d="M325.541,208.274c-16.604,-8.112 -34.62,12.313 -37.559,27.068c-2.904,14.582 10.767,31.088 25.51,31.421c23.396,0.53 51.353,-35.819 28.378,-54.059c-8.236,-6.539 -20.813,-9.492 -29.756,-2.986c-1.533,1.115 -1.695,4.588 0.898,4.173c9.167,-1.47 18.367,-0.704 25.294,6.122c3.74,3.687 5.248,8.917 4.671,14.068c-1.166,10.408 -9.342,20.382 -18.881,24.394c-12.848,5.403 -23.726,-3.303 -29.063,-14.746c-3.598,-7.714 0.588,-16.766 5.397,-22.863c5.696,-7.22 14.674,-11.849 23.974,-10.725c0.814,0.098 2.234,-1.33 1.137,-1.867Z" style="fill-rule:nonzero;"/><path d="M233.738,283.155c2.948,4.825 7.603,8.636 11.511,12.681c3.356,3.472 7.011,6.609 10.589,9.849c3.746,3.389 7.409,6.914 10.265,11.103c1.227,1.799 1.855,3.885 2.426,5.958c0.651,2.363 2.271,0.377 1.839,0.214c-0.659,-0.248 -1.266,-0.675 -1.854,-1.051c-5.784,-3.696 -10.348,-9.463 -15.285,-14.159c-2.852,-2.712 -11.136,-12.708 -15.737,-9.51c-0.799,0.555 -1.563,1.45 -1.21,2.497c0.907,2.685 5.778,4.951 7.91,6.788c3.583,3.09 7.028,6.373 10.313,9.779c2.875,2.982 11.752,13.401 16.778,10.115c7.401,-4.839 -2.849,-16.229 -6.553,-19.969c-4.207,-4.246 -8.947,-7.935 -13.386,-11.929c-5.255,-4.729 -9.906,-10.34 -15.839,-14.261c-1.024,-0.677 -2.34,0.956 -1.767,1.895Z" style="fill-rule:nonzero;"/><path d="M294.097,272.63c9.256,1.251 19.037,0.208 28.357,-0.011c4.914,-0.115 9.829,-0.223 14.744,-0.294c4.175,-0.061 8.879,1.035 12.325,-1.638c1.095,-0.85 1.609,-2.467 0.78,-3.642c-0.146,-0.208 -0.292,-0.415 -0.438,-0.622c-0.451,-0.641 -1.504,-0.885 -2.23,-0.795c-17.157,2.133 -34.843,0.115 -51.991,2.479c-1.838,0.255 -4.57,4.115 -1.547,4.523Z" style="fill-rule:nonzero;"/><path d="M290.394,271.887c-1.782,5.685 -0.443,12.65 0.499,18.409c1.13,6.911 2.92,13.714 4.753,20.466c1.759,6.477 3.686,12.904 5.349,19.406c0.843,3.298 1.561,6.62 2.15,9.972c0.537,3.055 0.404,5.944 2.065,8.606c1.729,2.773 5.656,-0.954 6.176,-2.769c1.441,-5.035 -1.169,-11.812 -2.482,-16.74c-1.696,-6.365 -3.798,-12.631 -5.866,-18.883c-2.114,-6.386 -4.152,-12.79 -5.808,-19.313c-0.886,-3.49 -1.573,-7.027 -2.131,-10.584c-0.501,-3.195 -0.364,-6.559 -1.421,-9.629c-0.633,-1.839 -2.954,0.006 -3.284,1.059Z" style="fill-rule:nonzero;"/><path d="M347.575,268.352c-2.424,5.798 -3.17,12.592 -4.397,18.729c-1.593,7.967 -3.151,15.938 -4.767,23.9c-1.392,6.861 -2.898,13.718 -4.494,20.533c-1.016,4.342 -2.18,8.743 -4.276,12.698c-2.35,4.433 3.201,5.43 5.957,3.264c3.395,-2.666 4.32,-8.517 5.349,-12.429c1.812,-6.889 2.985,-14.003 4.326,-20.992c1.651,-8.615 3.033,-17.317 4.414,-25.98c1.005,-6.295 2.953,-14.113 1.438,-20.445c-0.441,-1.834 -3.127,-0.288 -3.55,0.722Z" style="fill-rule:nonzero;"/><path d="M305.282,351.311c8.104,2.543 18.644,0.134 26.286,-0.238c2.536,-0.123 4.751,-2.841 4.093,-5.31c-1.038,-3.899 -7.202,-1.901 -9.862,-1.467c-6.638,1.083 -13.346,1.902 -19.825,3.791c-1.36,0.397 -2.517,2.652 -0.692,3.224Z" style="fill-rule:nonzero;"/><path d="M290.341,269.062c-0.967,1.112 -1.18,2.52 -1.524,3.926c-0.631,2.577 -1.779,5.038 -2.899,7.43c-2.364,5.049 -5.257,9.856 -8.084,14.655c-4.288,7.276 -9.232,14.68 -10.375,23.249c-0.329,2.473 -0.06,5.891 2.962,6.451c4.215,0.781 8.49,-3.761 10.977,-6.47c7.645,-8.328 10.809,-20.646 14.298,-31.128c-2.425,0.196 -4.849,0.394 -7.273,0.59c-0.084,0.689 -0.364,1.314 -0.526,1.985c-0.37,1.527 0.772,2.596 2.235,2.547c3.049,-0.101 4.812,-2.406 5.564,-5.122c1.396,-5.028 -6.132,-3.022 -7.273,0.59c-2.794,8.841 -5.395,18.437 -10.958,26.009c-1.157,1.576 -2.771,3.109 -4.396,4.206c-0.795,0.366 -0.395,0.541 1.202,0.524c-0.155,-0.368 -0.016,-1.082 0.026,-1.465c0.363,-3.307 1.619,-6.611 2.855,-9.674c2.133,-5.279 22.101,-35.368 15.314,-39.01c-0.772,-0.412 -1.629,0.136 -2.125,0.707Z" style="fill-rule:nonzero;"/><path d="M43.774,425.468c0.532,-3.427 -0.896,-6.662 -0.373,-10.135c0.767,-5.092 6.224,-8.179 11,-7.508c7.871,1.104 13.299,10.632 15.694,17.306c1.475,-2.369 2.95,-4.739 4.425,-7.109c-9.433,2.049 -18.951,-0.348 -28.346,0.817c-4.005,0.497 -9.732,8.716 -3.311,9.678c10.211,1.53 22.175,1.056 32.139,-1.595c2.653,-0.706 5.644,-4.232 4.425,-7.109c-4.763,-11.25 -14.927,-22.453 -28.208,-19.622c-6.061,1.292 -12.171,7.113 -13.738,13.078c-1.181,4.491 -1.143,12.34 4.674,13.367c0.687,0.121 1.512,-0.474 1.619,-1.168Z" style="fill-rule:nonzero;"/><path d="M98.368,422.041c1.363,-3.627 1.98,-7.429 4.876,-10.229c2.683,-2.596 6.331,-3.749 9.979,-4.018c8.533,-0.629 14.214,5.906 13.221,14.209c2.049,-1.797 4.097,-3.595 6.145,-5.393c-7.034,-0.207 -13.979,-1.18 -21.035,-0.734c-5.335,0.337 -16.353,2.72 -15.604,10.088c0.205,2.019 1.66,2.822 3.537,2.853c2.135,0.034 3.821,-1.416 5.768,-2.05c2.444,-0.797 5.249,-0.732 7.788,-0.778c5.808,-0.104 11.603,0.624 17.411,0.585c3.505,-0.023 5.99,-3.504 6.251,-6.643c1.102,-13.28 -8.708,-21.869 -21.659,-20.64c-5.987,0.567 -11.881,3.352 -16.154,7.561c-3.932,3.873 -7.771,10.593 -5.498,16.202c0.937,2.312 4.331,0.696 4.974,-1.013Z" style="fill-rule:nonzero;"/><path d="M46.011,294.871c-1.64,9.343 -0.504,19.499 -0.294,28.948c0.24,10.799 -0.154,21.63 0.418,32.415c0.562,10.552 1.833,21.076 2.641,31.612c0.288,3.754 1.053,7.439 1.599,11.158c0.372,2.531 1.056,5.088 4.206,4.787c2.316,-0.222 5.048,-2.529 4.771,-5.07c-0.011,-0.094 -0.021,-0.188 -0.03,-0.281c-0.271,-2.482 -2.981,-2.908 -4.854,-1.771c-0.092,0.057 -0.185,0.113 -0.277,0.17c1.66,0.333 3.319,0.667 4.979,1c-2.221,-4.953 -2.557,-13.476 -3.053,-19.518c-0.777,-9.447 -2.256,-18.808 -2.831,-28.28c-0.572,-9.417 -0.601,-18.87 -1.099,-28.296c-0.478,-9.063 0.008,-18.87 -1.766,-27.765c-0.525,-2.636 -4.055,-1.13 -4.41,0.891Z" style="fill-rule:nonzero;"/><path d="M73.491,296.198c-3.408,9.002 -4.091,18.83 -4.885,28.352c-0.865,10.378 -1.3,20.789 -2.094,31.173c-0.764,9.974 -1.956,19.917 -1.965,29.934c-0.003,3.074 -0.002,6.147 -0.077,9.221c-0.04,1.615 -0.219,3.205 -0.465,4.8c-0.159,1.029 -1.702,4.357 -0.255,1.714c1.194,-1.047 2.388,-2.095 3.581,-3.142c-0.068,0.029 -0.138,0.058 -0.206,0.087c-2.249,0.954 -6.316,5.473 -2.54,7.389c2.513,1.274 5.519,-0.469 6.912,-2.622c1.708,-2.643 1.407,-5.783 1.343,-8.806c-0.187,-8.804 -0.408,-17.594 0.025,-26.395c0.605,-12.27 1.533,-24.517 2.065,-36.793c0.511,-11.776 1.979,-23.476 2.503,-35.23c0.107,-2.364 -3.417,-1.069 -3.942,0.318Z" style="fill-rule:nonzero;"/><path d="M90.613,296.997c1.138,8.66 3.271,17.166 4.466,25.822c1.266,9.158 1.815,18.41 2.213,27.641c0.766,17.826 0.396,35.895 2.367,53.641c0.109,0.977 0.537,2.086 1.526,2.51c0.294,0.126 0.589,0.252 0.883,0.378c1.751,0.75 3.83,-0.104 4.9,-1.628c2.558,-3.643 1.175,-6.718 0.69,-10.853c-0.508,-4.342 -0.851,-8.7 -1.158,-13.06c-0.705,-10.006 -1.138,-20.028 -1.803,-30.036c-0.68,-10.234 -1.737,-20.458 -3.435,-30.575c-1.46,-8.709 -3.241,-17.783 -8.063,-25.326c-0.736,-1.155 -2.721,0.462 -2.586,1.486Z" style="fill-rule:nonzero;"/><path d="M118.625,295.456c-2.076,8.529 -1.287,17.833 -1.209,26.548c0.089,9.866 0.225,19.781 -0.447,29.63c-0.63,9.223 -0.865,18.468 -1.471,27.691c-0.283,4.313 -0.256,8.646 -0.329,12.967c-0.036,2.127 -0.108,4.256 -0.059,6.383c0.077,0.867 0.122,1.735 0.135,2.605c-0.237,1.846 0.083,1.615 0.962,-0.694c1.501,-0.871 3.001,-1.742 4.501,-2.613c-0.214,-0.004 -0.427,-0.008 -0.64,-0.011c-3.063,-0.051 -5.836,3.614 -4.996,6.481c0.059,0.203 0.119,0.407 0.178,0.61c0.312,1.063 1.381,1.686 2.382,1.911c0.076,0.017 0.152,0.034 0.229,0.052c2.465,0.557 5.784,-1.492 6.595,-3.844c0.952,-2.762 0.428,-4.715 0.129,-7.535c-0.469,-4.433 -0.204,-9.05 -0.281,-13.505c-0.166,-9.683 0.228,-19.433 0.447,-29.116c0.223,-9.815 0.27,-19.564 -0.136,-29.379c-0.393,-9.515 0.183,-20.118 -2.455,-29.32c-0.564,-1.966 -3.253,-0.021 -3.535,1.139Z" style="fill-rule:nonzero;"/><path d="M404.222,96.984c7.001,2.998 15.587,2.007 23.064,1.903c8.83,-0.123 17.655,-0.548 26.478,-0.908c18.192,-0.74 37.227,-2.038 55.09,2.07c1.12,-3.276 2.241,-6.553 3.362,-9.83c-2.813,0.559 -4.847,1.571 -6.636,3.882c-1.777,2.296 -1.117,5.831 2.254,5.657c-1.927,0.1 0.429,0.198 1.02,0.291c5.651,0.895 10.731,-9.463 4.605,-9.772c-18.162,-0.919 -36.092,-1.127 -54.262,-0.095c-8.873,0.504 -17.74,1.104 -26.619,1.508c-8.912,0.405 -18.406,-0.609 -27.08,1.582c-1.212,0.305 -3.123,2.92 -1.276,3.712Z" style="fill-rule:nonzero;"/><path d="M401.156,95.421c-2.794,10.2 2.261,21.431 4.146,31.433c2.154,11.445 4.085,22.927 5.987,34.417c3.931,23.739 6.669,47.359 8.019,71.386c0.344,6.117 10.635,1.962 9.625,-3.086c-0.41,-2.047 -0.652,-3.052 -1.924,-4.696c-1.74,-2.251 -5.055,0.261 -5.975,1.96c-0.939,1.734 -1.276,2.721 -1.628,4.661c3.175,-0.642 6.351,-1.283 9.526,-1.925c-2.409,-22.983 -5.861,-45.984 -10.138,-68.691c-2.073,-11.01 -4.103,-22.03 -6.479,-32.98c-2.437,-11.226 -6.141,-22.103 -8.479,-33.342c-0.321,-1.547 -2.461,0.058 -2.68,0.863Z" style="fill-rule:nonzero;"/><path d="M516.59,93.961c-3.422,3.829 -4.984,9.608 -6.663,14.387c-2.001,5.695 -3.752,11.474 -5.371,17.289c-3.449,12.391 -5.942,25.052 -7.97,37.748c-3.913,24.508 -6.229,49.292 -10.809,73.69c0.736,-1.197 1.474,-2.395 2.211,-3.593c-0.215,0.168 -0.429,0.336 -0.643,0.504c1.699,-0.558 3.398,-1.115 5.098,-1.673c-0.893,-0.194 -1.745,-0.236 -2.662,-0.219c-2.445,0.047 -5.212,2.764 -4.967,5.278c0.028,0.028 0.056,0.057 0.083,0.085c-0.283,1.735 0.166,3.009 1.604,4.029c0.083,0.06 0.166,0.119 0.25,0.178c1.873,1.33 4.722,-0.073 6.2,-1.289c4.217,-3.469 3.897,-10.64 4.654,-15.67c0.933,-6.203 1.757,-12.424 2.563,-18.646c1.647,-12.726 3.091,-25.477 4.821,-38.192c1.723,-12.66 3.695,-25.272 6.105,-37.82c1.173,-6.107 2.575,-12.168 4.159,-18.181c1.438,-5.456 4.854,-12.104 4.499,-17.752c-0.119,-1.911 -2.402,-1.002 -3.162,-0.153Z" style="fill-rule:nonzero;"/><path d="M424.668,242.033c4.237,1.449 9.421,0.412 13.807,0.056c5.765,-0.47 11.547,-0.729 17.324,-0.982c10.762,-0.473 22.133,0.692 32.775,-0.819c-1.303,-1.483 -2.604,-2.968 -3.906,-4.451c-0.057,0.186 -0.114,0.371 -0.171,0.556c-0.517,1.685 0.604,3.391 2.274,3.724c0.194,0.038 0.388,0.077 0.582,0.115c5.254,1.047 10.826,-8.623 4.52,-9.59c-10.874,-1.668 -23.021,-0.065 -33.963,0.612c-5.839,0.362 -11.656,0.95 -17.465,1.64c-5.184,0.615 -10.748,1.197 -15.342,3.818c-2.032,1.159 -3.219,4.368 -0.435,5.321Z" style="fill-rule:nonzero;"/><path d="M436.307,268.138c1.606,1.071 4.918,0.393 6.716,0.275c3.759,-0.246 7.516,-0.592 11.271,-0.891c6.263,-0.498 12.399,-0.247 18.632,-0.205c3.688,0.025 6.771,-4.622 4.784,-7.772c-2.949,-4.678 -16.171,-1.41 -20.438,-0.854c-5.902,0.769 -18.01,1.373 -21.454,7.258c-0.447,0.763 -0.229,1.712 0.489,2.189Z" style="fill-rule:nonzero;"/><path d="M515.635,98.669c-0.069,3.785 1.647,7.667 2.787,11.202c1.965,6.099 3.891,12.242 5.593,18.419c2.75,9.978 4.423,20.232 7.811,30.023c5.341,15.437 11.448,31.016 14.286,47.16c0.456,2.596 0.934,5.451 0.66,8.095c-0.129,1.26 -0.708,1.65 0.357,0.578c0.625,-0.63 1.564,-0.864 2.428,-0.785c-0.414,-0.038 0.487,0.299 -0.334,-0.2c-2.688,-1.633 -5.484,-7.702 -7.161,-11.039c-7.328,-14.581 -12.793,-30.188 -18.147,-45.574c-3.85,-11.063 -7.966,-22.274 -10.717,-33.68c-2.595,1.479 -5.19,2.959 -7.785,4.438c0.378,1.564 0.804,2.627 1.691,3.958c2.017,3.026 6.024,-1.39 6.181,-3.551c0.144,-1.988 0.381,-2.893 -0.087,-4.846c-1.096,-4.578 -8.785,0.257 -7.785,4.438c2.73,11.418 6.838,22.631 10.654,33.715c5.313,15.426 10.861,30.953 18.111,45.594c3.105,6.272 11.875,22.446 19.284,10.228c2.829,-4.666 1.129,-11.597 0.101,-16.524c-1.762,-8.433 -4.392,-16.666 -7.134,-24.822c-3.049,-9.069 -6.716,-17.958 -9.551,-27.095c-3.36,-10.834 -5.68,-21.858 -9.816,-32.462c-1.326,-3.399 -2.445,-6.885 -3.736,-10.304c-1.014,-2.686 -2.543,-5.615 -3.067,-8.448c-0.565,-3.049 -4.581,-0.822 -4.624,1.482Z" style="fill-rule:nonzero;"/><path d="M399.586,97.613c-2.385,6.439 -3.921,13.149 -5.924,19.71c-2.441,8.002 -5.32,15.869 -8.147,23.741c-5.232,14.571 -10.265,29.81 -17.146,43.697c-4.431,8.94 -10.431,18.408 -10.844,28.663c-0.208,5.16 2.362,14.605 9.395,13.297c6.559,-1.22 10.273,-7.91 13.111,-13.315c3.589,-6.837 6.232,-14.18 8.825,-21.437c2.75,-7.694 5.72,-15.07 9.277,-22.459c3.264,-6.778 6.702,-13.409 9.508,-20.395c1.758,-4.376 3.757,-9.229 3.338,-14.071c0.002,-0.121 0.005,-0.242 0.008,-0.363c-0.687,1.43 -1.372,2.859 -2.059,4.289c0.031,-0.03 0.063,-0.06 0.094,-0.09c-2.084,0.169 -4.169,0.338 -6.254,0.507c0,0.032 -0.001,0.064 -0.002,0.097c2.146,4.603 8.25,-0.098 8.335,-3.687c0.06,-0.397 0.048,-0.79 -0.034,-1.179c-0.355,-2.261 -2.506,-3.591 -4.736,-2.659c-3.804,1.588 -4.635,4.538 -5.012,8.285c-0.528,5.261 -3.502,10.912 -5.804,15.604c-4.546,9.268 -9.511,18.423 -13.009,28.158c-2.228,6.199 -4.394,12.415 -6.851,18.528c-1.983,4.933 -4.698,12.095 -8.04,15.309c-0.636,0.611 0.501,-0.119 1.269,-0.076c-0.143,-0.008 -0.335,-0.191 -1.033,-1.158c-2.278,-3.15 -1.463,-7.497 -0.671,-10.974c2.323,-10.198 8.356,-19.732 12.275,-29.375c5.374,-13.223 10.221,-26.549 14.715,-40.092c4.008,-12.079 9.873,-25.896 9,-38.844c-0.14,-2.105 -3.081,-1.071 -3.584,0.289Z" style="fill-rule:nonzero;"/><path d="M410.227,428.073c0.09,-3.516 -0.021,-7.153 2.288,-10.02c2.089,-2.591 6.099,-3.258 9.188,-3.427c8.381,-0.458 16.901,5.237 18.288,13.761c1.269,-1.642 2.538,-3.283 3.807,-4.925c-10.346,2.214 -20.768,-0.023 -31.189,0.104c-4.698,0.058 -7.911,8.218 -1.803,8.414c11.158,0.359 22.43,1.444 33.387,-1.234c2.399,-0.586 4.336,-3.409 3.622,-5.818c-3.553,-11.983 -15.013,-18.339 -27.205,-16.169c-8.551,1.521 -20.66,11.52 -12.508,20.535c0.795,0.878 2.102,-0.344 2.125,-1.221Z" style="fill-rule:nonzero;"/><path d="M432.989,234.553c-8.368,-0.88 -10.985,13.356 -12.238,19.06c-2.531,11.526 -3.235,23.649 -3.715,35.417c-1.629,40.01 6.258,79.18 7.853,118.962c2.706,-0.867 5.411,-1.734 8.117,-2.602c-0.114,-1.907 -0.508,-3.155 -1.989,-4.405c-1.951,-1.646 -5.596,0.037 -5.826,2.611c-0.131,1.467 -0.272,2.923 -0.302,4.396c-0.103,5.2 7.956,1.518 8.117,-2.602c0.338,-8.647 -1.397,-17.61 -2.511,-26.158c-1.289,-9.901 -2.461,-19.821 -3.548,-29.747c-2.136,-19.492 -3.271,-38.938 -3.243,-58.546c0.014,-9.478 0.656,-19.008 1.738,-28.418c0.613,-5.327 1.434,-10.676 2.714,-15.886c0.522,-2.125 1.505,-7.229 3.982,-8.109c1.314,-0.467 3.4,-3.705 0.851,-3.973Z" style="fill-rule:nonzero;"/><path d="M443.411,266.848c-2.881,14.214 -2.191,29.552 -2.476,44.006c-0.308,15.627 -0.38,31.25 0.205,46.871c0.583,15.571 2.159,31.101 4.472,46.508c0.582,3.884 0.762,7.769 0.784,11.694c0.011,1.983 -0.052,3.944 -0.329,5.908c0.014,-0.097 -0.329,1.729 -0.279,1.591c-1.025,2.852 -1.761,-1.904 3.847,-2.346c-3.156,0.249 -7.341,4.594 -4.739,7.701c2.893,3.455 8.706,0.388 10.039,-3.119c1.548,-4.074 1.311,-8.543 1.126,-12.833c-0.609,-14.186 -4.038,-28.198 -5.273,-42.368c-1.516,-17.39 -2.044,-34.849 -2.286,-52.297c-0.125,-9.051 -0.185,-18.103 -0.281,-27.152c-0.089,-8.386 0.167,-16.95 -1.681,-25.172c-0.391,-1.735 -2.92,-0.023 -3.129,1.008Z" style="fill-rule:nonzero;"/><path d="M467.764,266.79c4.682,9.57 5.734,21.102 6.337,31.577c0.728,12.638 2.084,25.202 2.851,37.833c0.93,15.317 0.965,30.688 0.629,46.025c-0.172,7.852 -0.334,15.692 -1.1,23.512c-0.336,3.42 -0.752,6.831 -1.023,10.258c-0.202,2.552 -1.214,6.514 -0.036,8.874c2.231,4.472 8.031,-0.068 8.179,-3.617c0.019,-0.446 -0.021,-2.128 -0.168,-0.72c0.443,-4.235 -4.55,-3.898 -6.482,-1.223c-0.801,1.107 -1.404,2.255 -1.637,3.616c2.537,-1.137 5.073,-2.274 7.61,-3.411c0.016,0.021 0.387,-3.91 0.397,-4.221c0.062,-1.851 0.199,-3.698 0.326,-5.545c0.255,-3.704 0.604,-7.4 0.854,-11.105c0.505,-7.488 0.355,-15.06 0.383,-22.563c0.057,-15.283 -0.255,-30.558 -1.54,-45.793c-1.03,-12.224 -2.306,-24.513 -3.636,-36.711c-1.102,-10.1 -2.536,-20.734 -10.28,-27.975c-0.659,-0.615 -2.07,0.357 -1.664,1.189Z" style="fill-rule:nonzero;"/><path d="M481.507,426.323c2.331,-3.979 3.306,-7.722 7.409,-10.396c4.052,-2.641 9.021,-3.474 13.775,-3.436c9.914,0.078 18.47,6.761 16.186,17.255c1.651,-1.449 3.303,-2.898 4.954,-4.348c-2.901,0.119 -4.823,0.209 -7.248,1.839c-1.177,0.791 -2.294,2.146 -1.773,3.662c0.129,0.376 0.258,0.752 0.387,1.128c0.452,1.316 1.903,1.894 3.192,1.781c1.244,-0.089 2.484,-0.215 3.722,-0.379c2.19,-0.256 4.607,-2.039 4.954,-4.348c2.258,-15.025 -8.742,-23.457 -22.954,-23.212c-6.606,0.114 -13.04,2.427 -18.351,6.288c-3.729,2.711 -9.337,9.717 -6.584,14.639c0.601,1.076 1.871,0.312 2.331,-0.473Z" style="fill-rule:nonzero;"/><path d="M478.041,429.786c4.694,1.484 10.424,0.297 15.385,0.085c6.173,-0.265 13.188,-0.743 19.155,1.184c1.848,0.597 4.012,-0.989 5.077,-2.307c4.026,-4.977 -4.235,-6.293 -7.276,-6.455c-3.875,-0.206 -7.755,-0.101 -11.624,0.152c-6.666,0.437 -15.798,0.764 -20.823,5.633c-0.532,0.513 -0.77,1.43 0.106,1.708Z" style="fill-rule:nonzero;"/><path d="M487.66,233.897c5.804,30.139 10.322,60.257 12.986,90.871c1.277,14.68 2.271,29.43 2.335,44.171c0.022,5.262 -0.152,10.519 -0.52,15.768c-0.255,3.663 -0.637,7.317 -1.173,10.95c-0.216,1.463 -0.528,2.9 -0.903,4.33c-0.036,0.297 -0.127,0.569 -0.272,0.82c-1.369,3.495 -0.181,-0.823 2.296,-1.362c-3.045,0.663 -5.707,6.242 -1.557,7.261c11.229,2.757 9.909,-27.288 10.053,-32.926c0.359,-14.175 -0.529,-28.377 -1.607,-42.504c-1.416,-18.567 -3.478,-37.117 -6.415,-55.508c-2.292,-14.355 -4.201,-30.709 -11.356,-43.582c-1.025,-1.84 -4.227,-0.154 -3.867,1.711Z" style="fill-rule:nonzero;"/><path d="M197.095,357.502c-2.171,8.932 2.474,19.332 3.823,28.145c0.773,5.044 1.28,10.129 2.329,15.129c0.447,2.135 0.492,6.515 1.812,8.333c1.745,2.405 5.243,-0.722 5.734,-2.571c0.259,-0.971 0.11,-1.596 -0.371,-2.453c-1.013,-1.807 -3.119,-0.906 -4.202,0.34c-0.338,0.328 -0.632,0.689 -0.884,1.084c1.67,-0.347 3.341,-0.694 5.012,-1.041c-0.982,-1.316 -1.352,-5.294 -1.722,-6.758c-1.291,-5.105 -1.989,-10.366 -2.995,-15.532c-0.8,-4.103 -1.92,-8.103 -3.053,-12.123c-1.231,-4.372 -1.822,-8.972 -3.316,-13.25c-0.41,-1.174 -1.985,-0.049 -2.167,0.697Z" style="fill-rule:nonzero;"/><path d="M216.147,355.438c-3.145,7.832 -3.228,16.924 -3.424,25.252c-0.221,9.387 0.584,18.672 1.626,27.985c0.34,3.038 4.979,0.935 4.726,-1.516c-0.176,-1.694 -0.5,-2.87 -1.641,-4.157c-0.796,-0.896 -2.433,-0.034 -2.77,0.908c-0.646,1.809 -0.614,2.818 -0.315,4.765c1.539,-0.681 3.077,-1.362 4.616,-2.042c-1.729,-8.327 -2.174,-17.042 -2.408,-25.521c-0.239,-8.618 0.943,-17.185 0.785,-25.771c-0.013,-0.718 -1.024,-0.328 -1.195,0.097Z" style="fill-rule:nonzero;"/><path d="M230.586,354.746c-3.797,8.082 -3.922,18.146 -5.044,26.862c-1.139,8.848 -1.841,18.008 -4.674,26.496c-0.219,0.656 -0.045,1.737 0.479,2.227c0.604,0.596 0.578,-0.14 -0.079,-2.205c-0.249,0.45 -0.407,1.287 -0.146,1.771c0.208,0.383 0.407,0.779 0.849,0.952c2.33,0.916 4.311,-0.828 5.433,-2.743c2.327,-3.974 2.163,-10.773 2.674,-15.184c1.429,-12.35 3.843,-25.909 2.499,-38.338c-0.129,-1.197 -1.654,-0.556 -1.991,0.162Z" style="fill-rule:nonzero;"/><path d="M202.461,421.689c-0.182,-2.792 -0.625,-5.31 2.082,-6.991c2.639,-1.64 6.098,-0.734 8.133,1.364c0.987,1.017 2.681,0.954 3.819,0.204c3.45,-2.273 5.697,-2.396 8.386,0.855c2.028,2.455 2.885,6.089 3.252,9.158c1.936,-1.697 3.871,-3.396 5.807,-5.095c-10.344,-1.071 -27.17,-6.621 -35.184,2.745c-3.011,3.52 0.732,6.939 4.416,5.031c8.002,-4.143 18.621,-0.799 27.176,-0.157c3.32,0.249 6.332,-2.619 5.621,-5.989c-1.153,-5.463 -3.371,-10.57 -8.032,-13.875c-4.591,-3.255 -10.547,-0.534 -14.287,2.581c1.543,-0.125 3.086,-0.25 4.628,-0.375c-4.689,-3.768 -10.259,-3.981 -15.546,-1.186c-5.008,2.649 -8.033,9.303 -4.712,14.28c1.348,2.022 4.554,-0.834 4.441,-2.55Z" style="fill-rule:nonzero;"/><path d="M305.315,346.356c-2.646,5.018 -2.371,11.68 -2.319,17.2c0.065,6.97 0.309,13.95 0.448,20.919c0.123,6.225 0.271,12.415 0.12,18.64c-0.063,2.623 -1.28,8.018 0.019,10.354c1.608,2.892 6.678,-0.474 5.271,-3.004c-1.266,-2.275 -4.264,-0.936 -5.11,1.04c-1.589,3.713 3.699,3.844 4.949,0.924c1.114,-2.604 0.293,-6.423 0.225,-9.197c-0.136,-5.54 -0.474,-11.055 -0.803,-16.588c-0.419,-7.06 -0.441,-14.125 -0.909,-21.187c-0.428,-6.462 0.244,-12.844 0.021,-19.255c-0.042,-1.205 -1.592,-0.452 -1.912,0.154Z" style="fill-rule:nonzero;"/><path d="M334.696,340.874c-1.97,6.761 -1.558,14.209 -1.582,21.185c-0.028,7.9 -0.25,15.689 -1.054,23.556c-0.548,5.361 -1.151,10.718 -1.65,16.083c-0.195,2.09 -0.368,4.181 -0.566,6.271c-0.081,0.852 -0.176,1.701 -0.277,2.551c-0.152,1.27 -0.987,2.237 0.356,0.341c1.5,-0.499 3.001,-0.997 4.502,-1.496c0.086,0.039 0.171,0.078 0.256,0.116c-1.918,-2.631 -5.412,1.178 -5.563,3.196c-0.031,0.426 0.049,0.79 0.156,1.207c0.33,1.288 2.148,1.586 3.195,1.166c3.653,-1.466 3.455,-5.028 3.725,-8.364c0.4,-4.969 0.792,-9.938 1.158,-14.908c0.636,-8.648 1.438,-17.161 1.196,-25.847c-0.227,-8.129 -0.033,-17.673 -2.796,-25.396c-0.209,-0.583 -0.955,-0.011 -1.056,0.339Z" style="fill-rule:nonzero;"/><path d="M301.465,425.144c1.089,-1.979 -1.047,-4.255 -0.751,-6.473c0.271,-2.028 1.97,-3.326 3.657,-4.207c1.843,-0.962 4.061,-1.11 6.054,-0.648c2.651,0.614 3.426,2.826 3.864,5.193c0.718,3.871 6.52,1.197 6.08,-1.949c-1.258,-9.004 -11.322,-9.964 -17.896,-6.122c-3.077,1.799 -5.713,4.938 -5.999,8.59c-0.151,1.931 0.396,3.666 1.514,5.235c0.786,1.104 2.635,1.914 3.477,0.381Z" style="fill-rule:nonzero;"/><path d="M320.059,419.229c0.389,-1.584 0.741,-3.729 2.457,-4.334c1.759,-0.621 3.909,0.063 5.532,0.764c2.034,0.879 3.899,2.433 4.951,4.398c1.562,2.918 -0.071,5.532 0.659,8.436c0.636,2.521 4.075,0.699 5.014,-0.406c2.809,-3.307 1.928,-9.126 -0.332,-12.517c-2.08,-3.123 -5.435,-5.071 -9.073,-5.809c-5.429,-1.1 -15.955,3.495 -10.838,10.198c0.505,0.663 1.496,-0.183 1.63,-0.73Z" style="fill-rule:nonzero;"/><path d="M297.823,425.558c2.615,4.944 11.53,4.474 16.281,4.542c3.705,0.054 7.414,-0.162 11.111,-0.362c3.166,-0.171 6.717,0.167 9.811,-0.442c2.545,-0.502 6.144,-4.967 2.097,-6.131c-5.054,-1.454 -12.269,0.558 -17.453,0.892c-4.037,0.259 -8.104,0.297 -12.144,0.073c-2.942,-0.162 -5.866,-0.752 -8.766,-0.078c-0.526,0.122 -1.243,0.929 -0.937,1.506Z" style="fill-rule:nonzero;"/><path d="M350.594,268.575c3.369,-10.649 5.782,-21.688 8.949,-32.431c1.134,-3.849 2.368,-7.717 4.211,-11.293c0.959,-1.861 -0.307,-1.402 0.225,-0.419c1.118,2.07 1.431,4.694 1.701,6.987c1.223,10.345 -1.276,21.363 -4.113,31.247c-2.614,9.113 -6.52,20.004 -14.243,26.04c-3.751,2.932 0.067,7.243 3.74,4.262c9.279,-7.532 13.473,-20.956 16.47,-32.027c3.197,-11.812 5.688,-25.875 1.825,-37.822c-0.861,-2.663 -3.251,-5.495 -6.261,-3.579c-3.353,2.135 -4.787,6.328 -6.079,9.887c-1.76,4.844 -3.083,9.842 -4.401,14.818c-2.113,7.974 -6.126,16.502 -4.853,24.901c0.278,1.837 2.475,0.547 2.829,-0.571Z" style="fill-rule:nonzero;"/><path d="M318.245,347.868c-0.586,4.439 -0.168,8.994 -0.161,13.467c0.01,5.699 -0.116,11.405 -0.245,17.103c-0.258,11.352 -0.622,22.714 -1.115,34.057c-0.131,3.001 5.027,1.104 4.916,-1.576c-0.436,-10.574 -0.184,-21.183 -0.143,-31.763c0.022,-5.655 0.007,-11.312 -0.188,-16.964c-0.171,-4.914 0.064,-10.146 -1.216,-14.919c-0.262,-0.981 -1.76,-0.071 -1.848,0.595Z" style="fill-rule:nonzero;"/><path d="M223.918,220.317c-8.532,-1.03 -17.134,4.374 -23.162,9.869c-6.733,6.139 -11.231,14.644 -11.781,23.764c-0.98,16.281 14.344,29.484 29.973,26.857c14.324,-2.407 26.219,-14.955 28.608,-29.119c1.313,-7.784 -0.681,-16.186 -5.413,-22.473c-5.716,-7.59 -15.59,-12.468 -24.588,-8.428c-1.24,0.558 -1.727,3.1 0.163,2.899c16.027,-1.699 26.927,15.002 24.537,29.395c-1.856,11.179 -11.252,20.147 -22.029,22.795c-12.855,3.158 -24.362,-7.296 -26.591,-19.531c-1.488,-8.175 2.487,-16.284 7.602,-22.37c5.713,-6.798 13.375,-10.016 21.912,-11.409c0.884,-0.145 2.293,-2.065 0.769,-2.249Z" style="fill-rule:nonzero;"/><path d="M197.221,191.945c-4.545,7.574 -7.147,15.845 -7.649,24.669c-0.208,3.653 -0.104,9.296 3.911,10.985c3.389,1.425 7.506,-0.707 10.508,-2.147c4.888,-2.346 9.497,-5.144 14.864,-6.282c1.22,-0.26 2.751,-1.916 2.51,-3.249c-1.763,-9.765 -7.841,-19.407 -17.53,-22.831c-1.158,-0.409 -2.316,-0.176 -3.242,0.674c-1.485,1.365 -2.398,2.528 -2.91,4.475c-0.356,1.36 1.267,1.912 2.24,1.251c1.201,-0.814 2.431,-1.524 3.602,-2.386c-1.08,0.225 -2.161,0.45 -3.242,0.674c8.444,2.983 14.199,11.197 15.803,19.835c0.836,-1.083 1.674,-2.166 2.51,-3.249c-7.469,1.619 -13.423,6.761 -20.686,8.728c-8.326,2.256 0.178,-27.873 1.065,-31.067c0.349,-1.255 -1.373,-0.714 -1.754,-0.08Z" style="fill-rule:nonzero;"/><path d="M228.548,215.651c3.179,-7.1 14.146,-24.631 22.521,-13.651c5.033,6.599 3.861,18.877 1.704,26.314c1.463,-0.851 2.927,-1.7 4.39,-2.551c-9.394,-5.552 -20.039,-15.854 -31.889,-11.155c-1.855,0.736 -3.624,4.675 -0.372,4.442c5.815,-0.416 10.114,0.027 15.344,2.819c4.669,2.492 8.818,5.883 13.374,8.571c1.808,1.067 3.923,-0.938 4.39,-2.551c2.706,-9.341 3.98,-27.396 -6.226,-32.936c-10.827,-5.878 -25.796,10.766 -25.685,20.895c0.017,1.505 2.079,0.631 2.449,-0.197Z" style="fill-rule:nonzero;"/><path d="M224.552,208.387c-2.207,-0.377 -4.329,0.298 -5.701,2.128c-1.196,1.595 -1.664,4.019 -1.976,5.952c-0.23,1.423 0.178,3.077 1.847,3.313c1.612,0.229 3.034,-0.704 4.27,-1.606c2.188,-1.599 4.233,-4.234 4.452,-6.999c0.103,-1.285 -0.706,-2.566 -1.928,-2.992c-0.902,-0.314 -1.768,-0.423 -2.722,-0.278c-0.204,0.031 -0.411,0.048 -0.614,0.079c0.026,-0.004 -1.798,0.613 -1.064,0.324c-0.709,0.279 -1.367,0.45 -2.005,0.899c-1.046,0.739 -2.147,2.752 -0.268,3.267c0.398,0.109 0.772,0.203 1.196,0.171c0.162,-0.014 0.324,-0.024 0.486,-0.033c-0.159,-0.042 -0.317,-0.085 -0.476,-0.127c0.353,0.178 0.726,0.249 1.12,0.21c0.136,-0.007 0.271,-0.012 0.408,-0.014c-0.287,-0.023 -0.311,-0.016 -0.069,0.021c0.25,0.046 0.509,0.056 0.76,0.104c0.188,0.036 0.746,0.234 0.047,-0.031c0.239,0.09 0.613,0.461 0.054,-0.041c0.408,0.367 -0.068,-0.201 -0.009,-0.062c0.201,0.466 -0.043,-0.574 -0.022,-0.049c0.016,0.367 0.106,-0.691 0.004,-0.126c-0.125,0.68 0.126,-0.27 0.02,0.007c-0.072,0.19 -0.164,0.374 -0.258,0.555c-0.323,0.625 0.359,-0.534 -0.038,0.071c-0.228,0.348 -0.486,0.675 -0.755,0.993c-0.528,0.625 0.149,-0.142 -0.057,0.069c-0.159,0.162 -0.324,0.316 -0.492,0.467c-0.129,0.116 -0.262,0.226 -0.396,0.334c-0.558,0.451 0.594,-0.387 0.021,-0.01c-0.12,0.079 -0.243,0.149 -0.37,0.218c-0.308,0.167 0.754,-0.268 0.121,-0.063c0.244,-0.079 0.686,-0.116 0.971,0.055c0.335,0.298 0.435,0.371 0.299,0.218c0.342,0.399 0.244,0.461 0.16,0.224c0.226,0.638 0.048,0.282 0.049,-0.011c0.002,-0.322 -0.081,0.557 0.025,-0.067c0.07,-0.416 0.132,-0.828 0.172,-1.249c0.076,-0.814 0.145,-1.628 0.339,-2.424c0.034,-0.123 0.069,-0.246 0.106,-0.368c-0.075,0.222 -0.068,0.225 0.021,0.008c-0.239,0.526 0.477,-0.452 0.096,-0.096c0.317,-0.297 1.371,-0.79 2.019,-1.112c0.658,-0.329 1.242,-1.743 0.157,-1.929Z" style="fill-rule:nonzero;"/><path d="M43.319,47.772c-5.913,2.977 -7.274,12.539 -5.736,18.342c0.609,2.302 2.295,4.236 4.829,2.892c3.38,-1.793 4.521,-6.584 5.517,-9.934c0.951,-3.198 4.288,-21.655 -4.851,-15.906c-6.664,4.192 -7.448,17.192 -5.071,23.961c0.491,1.399 2.126,1.086 3.146,0.633c7.404,-3.288 7.414,-12.935 5.403,-19.554c-2.077,-6.837 -8.453,-8.858 -11.896,-1.632c-2.114,4.437 -2.391,9.624 -2.168,14.445c0.136,2.955 1.586,9.146 5.949,6.313c7.117,-4.62 9.696,-20.846 2.998,-26.801c-1.487,-1.322 -3.77,-0.519 -4.83,1.003c-3.391,4.867 -9.661,24.804 -0.12,26.396c10.149,1.694 10.333,-19.344 8.032,-24.948c-0.903,-2.199 -3.523,-1.308 -4.927,-0.262c-7.636,5.688 -8.678,21.29 -3.961,28.966c1.004,1.634 3.514,0.392 4.556,-0.369c7.237,-5.283 8.868,-16.276 8.987,-24.604c0.043,-2.97 -3.668,-2.083 -5.084,-0.995c-4.516,3.468 -6.78,9.486 -8.161,14.809c-0.982,3.783 -1.794,11.642 2.652,13.879c8.613,4.334 10.707,-13.492 7.061,-18.057c-1.455,-1.822 -4.104,-0.17 -5.219,1.084c-6.003,6.751 -5.348,16.959 -5.326,25.387c0.012,4.146 5.92,1.309 6.515,-1.316c1.268,-5.59 1.305,-11.347 -3.544,-15.116c-1.369,-1.064 -3.88,0.366 -4.646,1.543c-4,6.14 -4.814,15.433 -0.78,21.745c1.688,2.641 5.463,-0.886 5.958,-2.671c1.798,-6.49 2.725,-15.143 -1.973,-20.644c-1.501,-1.757 -4.045,-0.219 -5.189,1.079c-5.651,6.404 -6.188,17.796 -1.296,24.736c1.278,1.813 4.27,0.213 5.206,-1.082c4.527,-6.261 3.686,-18.053 -2.777,-22.709c-1.812,-1.305 -4.338,0.854 -5.129,2.331c-5.169,9.643 -1.656,25.558 7.259,31.939c1.687,1.208 4.549,-0.732 5.146,-2.338c3.185,-8.571 2.901,-20.677 -2.199,-28.471c-1.406,-2.146 -5.083,0.206 -5.703,1.871c-2.904,7.792 -3.487,21.791 3.198,27.96c2,1.846 5.634,-0.168 5.957,-2.67c1.161,-8.963 2.024,-18.133 -0.096,-27.015c-0.726,-3.038 -5.394,-0.595 -6.038,1.23c-2.442,6.918 -2.701,15.524 0.303,22.324c1.55,3.506 6.437,-0.041 6.393,-2.828c-0.127,-8.078 -2.924,-18.044 2.192,-25.12c-1.894,-0.357 -3.787,-0.714 -5.681,-1.071c-0.732,6.144 -3.273,11.857 -4.007,18c-0.563,4.715 5.547,2.702 6.447,-0.522c1.679,-6.009 4.771,-11.482 7.23,-17.188c1.78,-4.133 -3.353,-4.385 -5.429,-1.889c-4.421,5.314 -7.006,11.746 -7.764,18.601c-0.533,4.817 5.472,2.599 6.477,-0.525c2.7,-8.392 8.395,-15.465 14.251,-21.892c-1.82,-0.634 -3.64,-1.267 -5.46,-1.899c-3.177,5.524 -7.533,10.272 -11.524,15.205c1.824,0.635 3.648,1.27 5.473,1.904c4.897,-11.122 15.546,-18.418 23.529,-27.201c2.88,-3.168 -1.534,-5.948 -4.334,-3.437c-5.714,5.124 -11.748,9.882 -17.007,15.493c1.612,0.883 3.224,1.766 4.836,2.649c4.24,-8.651 13.899,-13.072 19.036,-21.188c1.327,-2.098 0.544,-5.86 -2.705,-4.449c-7.847,3.41 -13.757,9.292 -20.876,13.851c0.972,1.62 1.943,3.24 2.915,4.86c5.324,-5.68 11.401,-10.583 16.228,-16.729c1.752,-2.232 0.354,-5.733 -2.771,-4.556c-7.13,2.688 -12.423,7.662 -17.455,13.231c-3.048,3.374 1.576,6.1 4.54,3.601c5.332,-4.493 9.882,-9.78 14.997,-14.504c-1.511,-1.198 -3.021,-2.396 -4.532,-3.595c-1.666,2.482 -2.887,5.064 -4.004,7.834c-1.527,3.788 2.494,4.747 5.034,2.759c6.128,-4.798 8.83,-12.186 9.063,-19.789c0.117,-3.778 -4.785,-1.741 -6.079,-0.295c-3.803,4.25 -5.809,9.779 -3.694,15.29c0.514,1.34 2.215,1.777 3.472,1.267c6.606,-2.686 11.36,-9.212 7.583,-16.237c-3.07,-5.711 -10.477,-5.094 -12.219,1.407c-1.004,3.743 -0.832,8.372 2.041,11.248c2.858,2.86 7.99,0.814 9.928,-2.145c2.374,-3.626 3.764,-8.415 1.532,-12.456c-1.995,-3.615 -6.432,-3.424 -9.455,-1.3c-5.319,3.737 -8.327,14.316 -2.29,18.803c4.291,3.188 11.083,1.95 14.645,-1.788c4.049,-4.249 3.363,-12.703 -2.871,-14.76c-6.646,-2.194 -9.892,6.844 -10.235,11.697c-0.362,5.113 2.542,9.636 7.621,10.669c1.808,0.368 3.987,-1.042 4.649,-2.709c1.317,-3.319 2.55,-9.146 -0.188,-12.134c-2.608,-2.85 -8.422,2.274 -5.824,5.111c1.072,1.171 0.295,4.644 -0.188,5.866c1.55,-0.903 3.1,-1.807 4.649,-2.709c-2.841,-0.57 -3.706,-2.874 -3.838,-5.533c-0.057,-1.131 0.169,-2.352 0.567,-3.409c0.711,-1.894 -0.166,-0.082 -0.553,-0.295c0.605,0.334 2.815,3.523 2.074,4.303c-1.02,1.07 -2.821,0.947 -4.137,0.667c-2.101,-0.446 -2.748,-2.438 -2.777,-4.319c-0.016,-1.004 0.86,-5.756 2.048,-3.607c0.402,1.056 0.47,2.14 0.201,3.253c-0.474,3.455 -1.24,-2.083 -1.242,-2.143c-0.034,-0.721 0.028,-1.432 0.187,-2.133c0.302,-1.789 -1.117,1.363 -2.243,0.887c0.744,0.314 1.286,1.174 1.648,1.852c1.271,2.375 0.931,4.57 -1.656,5.617c1.157,0.422 2.314,0.844 3.472,1.267c-1.311,-3.438 -0.016,-6.124 2.306,-8.71c-2.026,-0.098 -4.053,-0.197 -6.079,-0.295c-0.167,5.115 -1.813,9.988 -5.937,13.211c1.678,0.92 3.356,1.839 5.034,2.759c0.864,-2.139 1.701,-4.241 2.996,-6.166c2.414,-3.589 -1.49,-6.4 -4.532,-3.595c-5.118,4.72 -9.683,9.991 -15.003,14.496c1.513,1.2 3.026,2.4 4.54,3.601c3.579,-3.986 7.449,-7.829 12.545,-9.769c-0.924,-1.519 -1.847,-3.037 -2.771,-4.556c-4.578,5.867 -10.407,10.584 -15.469,16.017c-2.474,2.655 0.672,6.009 3.611,4.114c6.475,-4.176 12.004,-10.041 19.124,-13.149c-0.901,-1.483 -1.804,-2.966 -2.705,-4.449c-5.492,8.712 -15.346,13.35 -19.963,22.813c-1.631,3.341 2.656,4.981 4.835,2.649c5.248,-5.62 11.283,-10.379 16.993,-15.507c-1.444,-1.146 -2.889,-2.291 -4.334,-3.437c-8.495,9.358 -19.245,16.909 -24.471,28.799c-1.816,4.132 3.403,4.465 5.473,1.904c4.403,-5.449 8.974,-10.695 12.476,-16.795c2.323,-4.046 -3.43,-4.13 -5.46,-1.899c-6.733,7.4 -12.665,15.497 -15.749,25.108c2.158,-0.175 4.318,-0.35 6.477,-0.525c0.632,-5.75 2.517,-10.92 6.236,-15.399c-1.809,-0.63 -3.619,-1.259 -5.429,-1.889c-2.688,6.253 -5.935,12.226 -7.77,18.812c2.149,-0.174 4.298,-0.348 6.447,-0.522c0.728,-6.143 3.265,-11.857 3.993,-18c0.441,-3.728 -4.009,-3.386 -5.681,-1.071c-6.511,9.017 -3.979,19.554 -3.808,29.88c2.131,-0.942 4.262,-1.885 6.393,-2.828c-2.295,-5.18 -2.599,-12.31 -0.697,-17.676c-2.013,0.41 -4.025,0.82 -6.038,1.23c1.854,7.801 0.928,16.133 -0.096,23.985c1.985,-0.89 3.972,-1.78 5.957,-2.67c-5.005,-4.628 -5.031,-16.072 -2.802,-22.04c-1.9,0.624 -3.802,1.247 -5.703,1.871c3.755,5.749 4.161,16.194 1.801,22.529c1.716,-0.779 3.431,-1.559 5.146,-2.338c-6.628,-4.755 -9.542,-17.95 -5.741,-25.061c-1.71,0.776 -3.42,1.554 -5.129,2.331c3.398,2.441 4.688,10.873 2.223,14.291c1.735,-0.36 3.471,-0.721 5.206,-1.082c-3.304,-4.67 -3.104,-12.957 0.704,-17.264c-1.73,0.359 -3.46,0.719 -5.189,1.079c3.65,4.285 2.412,11.38 1.027,16.356c1.986,-0.89 3.973,-1.78 5.958,-2.671c-2.335,-3.663 -2.138,-10.643 0.22,-14.255c-1.549,0.515 -3.098,1.029 -4.646,1.543c2.979,2.321 2.172,6.717 1.456,9.884c2.171,-0.439 4.343,-0.877 6.515,-1.316c-0.021,-6.571 -1.018,-15.332 3.674,-20.613c-1.739,0.361 -3.479,0.723 -5.219,1.084c1.042,1.303 0.816,3.523 0.759,5.079c-0.039,1.038 -0.263,2.21 -0.62,3.188c-0.5,1.185 0.433,0.944 2.795,-0.721c-0.412,-0.451 -0.717,-0.965 -0.91,-1.544c-2.158,-4.774 1.602,-14.362 5.528,-17.37c-1.694,-0.332 -3.39,-0.664 -5.084,-0.995c-0.093,5.861 -0.882,14.647 -6.013,18.396c1.519,-0.123 3.037,-0.246 4.556,-0.369c-2.825,-4.592 -2.556,-16.609 2.039,-20.034c-1.643,-0.087 -3.284,-0.174 -4.927,-0.262c0.92,2.237 0.719,5.068 0.691,7.434c-0.02,1.731 -0.207,3.44 -0.487,5.146c-0.138,0.843 -0.335,1.705 -0.629,2.509c-0.596,1.632 1.425,0.392 0.866,-0.198c-2.785,-2.94 0.458,-14.533 2.471,-17.442c-1.609,0.334 -3.22,0.669 -4.83,1.003c4.298,3.788 2.829,12.214 0.677,16.674c-1.278,2.649 2.077,1.592 1.491,-0.435c-0.372,-1.289 -0.361,-2.773 -0.434,-4.103c-0.162,-2.983 0.178,-5.81 0.956,-8.694c0.521,-1.934 1.561,-1.623 -0.12,-1.707c0.417,0.021 0.785,0.629 1.01,0.899c1.099,1.316 1.602,3.204 2.04,4.821c0.923,3.399 1.491,9.54 -2.333,11.315c1.049,0.211 2.098,0.422 3.146,0.633c-1.589,-4.237 -0.96,-9.895 0.015,-14.177c0.062,-0.271 1.187,-3.798 1.785,-3.287c0.72,0.615 0.533,2.39 0.538,3.214c0.016,2.629 -0.648,5.325 -1.265,7.866c-0.575,2.373 -1.354,4.713 -2.461,6.892c-0.674,1.326 1.172,0.677 0.732,-0.206c-0.359,-0.723 -0.491,-1.558 -0.612,-2.345c-0.511,-3.317 -0.472,-9.751 2.955,-11.602c2.1,-1.13 1.308,-4.222 -1.142,-2.989Z" style="fill-rule:nonzero;"/><path d="M56.924,38.923c-2.153,-1.803 -4.953,-2.15 -7.657,-1.472c-3.95,0.991 -6.438,4.389 -6.743,8.326c-0.188,2.433 2.775,3.122 4.55,2.555c2.415,-0.772 3.944,-2.873 4.123,-5.335c0.07,-0.968 -0.095,0.169 -0.159,0.354c0.273,-0.787 -0.416,0.479 -0.553,0.619c0.723,-0.733 -0.826,0.469 0.121,-0.063c-0.769,0.432 0.242,-0.083 0.382,-0.132c1.699,-0.599 3.388,-1.163 4.96,-2.051c0.733,-0.414 1.938,-1.995 0.976,-2.801Z" style="fill-rule:nonzero;"/><path d="M47.351,39.732c-0.719,-0.192 -1.388,-0.603 -2.131,-0.797c-0.323,-0.027 -0.646,-0.044 -0.97,-0.052c0.551,-0.032 0.391,-0.051 -0.482,-0.06c-0.516,-0.017 -1.033,0.137 -1.529,0.27c-2.617,0.703 -5.314,3.495 -5.023,6.335c0.162,1.57 1.388,2.507 2.951,2.38c1.758,-0.143 3.335,-1.396 4.093,-2.95c0.177,-0.362 0.975,-2.583 0.443,-1.108c0.179,-0.366 0.111,-0.264 -0.2,0.309c-0.136,0.143 -0.271,0.286 -0.407,0.429c0.31,-0.261 0.234,-0.216 -0.226,0.135c0.339,-0.229 0.67,-0.469 0.992,-0.72c-0.27,0.161 -0.539,0.322 -0.81,0.482c0.812,-0.348 1.001,-0.434 0.568,-0.259c0.459,-0.202 0.836,-0.318 1.329,-0.298c1.96,0.083 3.874,-3.436 1.402,-4.096Z" style="fill-rule:nonzero;"/><path d="M82.243,28.535c-6.887,2.199 -13.408,6.138 -18.633,11.134c-2.306,2.205 -2.812,6.672 1.423,6.607c7.226,-0.112 14.177,-1.632 21.063,-3.744c3.534,-1.084 5.938,-8.726 0.647,-7.74c-9.518,1.774 -18.92,3.132 -27.665,7.541c-3.323,1.675 -4.489,7.643 0.426,7.58c10.497,-0.134 21.183,-2.317 31.102,-5.703c4.616,-1.576 5.755,-9.596 -0.428,-7.883c-2.902,0.804 -5.8,1.572 -8.843,1.318c0.438,1.961 0.876,3.923 1.314,5.884c1.961,-2.69 5.356,-3.979 8.233,-5.477c3.551,-1.849 6.592,-4.052 9.284,-7.013c1.244,-1.367 1.79,-4.709 -0.381,-5.591c-6.916,-2.809 -14.486,0.853 -15.05,8.739c-0.571,7.994 7.507,7.836 12.171,3.832c5.391,-4.628 7.77,-14.541 -1.479,-15.876c-8.145,-1.176 -14.335,6.264 -12.576,13.932c2.126,9.272 14.178,1.515 16.908,-2.853c4.785,-7.655 -0.225,-16.005 -9.355,-14.004c-7.926,1.736 -14.531,12.667 -11.84,20.316c3.332,9.469 18.03,4.471 23.434,0.606c3.577,-2.558 7.462,-9.596 3.574,-13.473c-3.922,-3.911 -9.873,1.175 -12.336,4.245c-2.809,3.502 -4.377,8.863 -1.242,12.614c3.49,4.177 11.541,3.266 14.452,-1.072c2.521,-3.755 2.551,-7.87 0.196,-11.684c-3.114,-5.046 -9.617,-1.073 -12.221,2.124c-8.873,10.896 8.755,15.152 16.517,14.318c0.241,-2.883 0.483,-5.765 0.725,-8.648c-3.724,1.609 -8.21,4.977 -6.218,9.624c1.6,3.732 7.658,4.756 11.098,3.637c4.634,-1.509 8.627,-5.015 8.521,-10.182c-0.091,-4.474 -5.379,-7.114 -9.104,-7.766c-2.514,-0.439 -5.201,1.37 -6.21,3.62c-3.596,8.018 0.403,16.645 9.077,18.647c2.666,0.615 6.29,-2.018 6.575,-4.741c0.667,-6.373 -2.638,-10.987 -6.277,-15.913c-2.035,-2.753 -6.849,0.131 -7.726,2.534c-3.343,9.158 1.493,18.436 7.174,25.593c3.059,3.854 9.35,-1.996 8.158,-5.824c-1.252,-4.025 -2.842,-7.736 -5.135,-11.278c-2.423,-3.74 -8.321,1.562 -8.129,4.67c0.404,6.5 2.69,13.686 6.646,18.896c2.769,3.646 8.365,-1.488 8.279,-4.757c-0.098,-3.689 -0.911,-7.285 -1.098,-10.969c-2.938,0.942 -5.875,1.883 -8.813,2.825c0.725,6.895 1.336,14.295 4.656,20.509c2.32,4.342 9.129,0.27 8.705,-3.85c-0.533,-5.177 -2.168,-10.179 -2.328,-15.395c-0.164,-5.395 -8.155,-1.489 -8.254,2.646c-0.157,6.554 0.082,13.136 1.146,19.613c0.966,5.883 8.992,1.635 8.961,-2.873c-0.043,-6.291 -0.49,-12.604 -0.36,-18.884c-2.747,0.88 -5.493,1.761 -8.24,2.642c0.403,5.858 0.524,11.763 1.199,17.596c0.63,5.442 8.036,2.007 8.751,-1.768c0.724,-3.812 0.631,-7.662 1.23,-11.479c-2.735,0.553 -5.471,1.105 -8.205,1.658c-0.143,11.743 -1.604,23.426 -1.991,35.157c3.02,-1.336 6.038,-2.671 9.058,-4.007c-1.728,-5.986 -2.149,-12.179 -0.944,-18.302c1.098,-5.574 -7.048,-3.554 -7.955,0.645c-1.345,6.219 -3.255,13.154 -4.125,19.083c-0.405,2.763 -5.132,8.071 -1.949,10.65c4.179,3.386 12.141,-3.84 8.104,-7.111c0.212,2.289 0.452,2.94 0.721,1.953c0.32,-0.892 0.675,-1.773 1.008,-2.661c0.602,-1.609 1.552,-3.515 1.409,-5.289c0.104,1.302 0.992,-2.876 0.855,-2.41c0.463,-1.581 0.688,-3.263 0.961,-4.883c0.556,-3.282 0.638,-6.667 0.972,-9.977c-2.679,0.541 -5.358,1.083 -8.038,1.624c-0.562,6.875 -1.209,13.838 -0.075,20.685c1.036,6.254 8.993,1.496 9.271,-2.973c0.724,-11.61 1.968,-23.216 1.009,-34.843c-0.462,-5.606 -8.03,-1.299 -8.289,2.658c-0.232,3.54 -0.823,7.085 -1.686,10.521c2.916,-0.589 5.834,-1.179 8.751,-1.768c-0.3,-5.816 -1.154,-11.617 -1.801,-17.404c-0.604,-5.399 -8.327,-1.523 -8.24,2.642c0.133,6.356 -0.317,12.749 -0.36,19.116c2.986,-0.958 5.975,-1.915 8.961,-2.873c-0.963,-6.444 -1.603,-12.873 -1.854,-19.387c-2.751,0.882 -5.503,1.764 -8.254,2.646c0.145,5.268 1.047,10.384 1.672,15.605c2.901,-1.284 5.803,-2.567 8.705,-3.85c-3.142,-5.637 -3.902,-12.152 -4.344,-18.491c-0.399,-5.748 -8.882,-1.65 -8.813,2.825c0.057,3.704 0.728,7.338 0.902,11.031c2.76,-1.585 5.52,-3.171 8.279,-4.757c-3.197,-4.014 -5.252,-9.992 -5.354,-15.104c-2.88,1.274 -5.76,2.547 -8.639,3.821c1.955,3.345 3.295,6.858 4.375,10.571c2.719,-1.941 5.438,-3.883 8.158,-5.824c-3.146,-4.125 -8.978,-11.838 -6.826,-17.407c-2.575,0.845 -5.15,1.689 -7.726,2.534c1.968,2.794 5.184,6.401 4.723,10.087c2.192,-1.58 4.384,-3.16 6.575,-4.741c-3.593,-0.911 -6.598,-4.618 -4.923,-8.353c-2.069,1.207 -4.14,2.413 -6.21,3.62c1.438,0.251 3.14,0.736 3.942,2.107c0.842,-1.242 0.604,-1.785 -0.715,-1.628c-1.88,-1.236 -2.856,0.042 -2.93,3.834c2.022,-0.874 3.813,-2.294 4.302,-4.572c0.495,-2.313 -1.164,-4.335 -3.577,-4.076c-3.537,0.38 -7.74,-0.231 -10.878,-1.911c-0.845,-0.452 -0.514,-1.182 -0.629,0.121c0.016,-0.176 -1.724,1.647 -2.766,0.637c1.443,1.4 -0.662,3.153 1.495,0.893c1.636,-1.714 2.13,-0.362 0.104,-1.188c-0.242,-0.099 -0.703,-0.29 -0.661,-0.643c0.081,-0.679 1.577,-2.312 0.798,-1.975c-7.041,3.05 -1.994,-2.181 -2.633,-0.638c-0.266,0.641 -1.556,1.123 -2.141,1.372c-2.483,1.057 -5.313,1.285 -7.705,-0.059c-2.574,-1.446 1.47,-9.404 4.436,-6.72c1.014,0.917 0.421,2.138 -0.391,2.943c-0.932,0.922 -1.216,0.324 -0.215,0.674c-0.556,-0.194 -0.416,-1.521 -0.344,-1.939c-0.264,1.525 -0.563,0.16 1.078,0.757c1.256,0.457 0.707,1.277 -0.472,2.108c1.405,-0.991 1.581,1.061 1.539,-0.846c0.027,1.25 -2.179,0.085 0.536,1.177c-0.127,-1.864 -0.254,-3.728 -0.381,-5.591c-4.902,5.422 -12.953,6.283 -17.482,12.51c-1.261,1.734 -1.801,5.628 1.314,5.884c4.567,0.376 8.768,-0.46 13.157,-1.682c-0.143,-2.627 -0.285,-5.255 -0.428,-7.883c-9.27,3.177 -19.082,5.159 -28.898,5.297c0.143,2.527 0.284,5.053 0.426,7.58c7.213,-3.646 15.424,-5.155 23.335,-6.459c0.216,-2.58 0.432,-5.16 0.647,-7.74c-6.21,1.801 -12.457,3.092 -18.938,3.256c0.475,2.203 0.948,4.405 1.423,6.607c4.58,-4.455 9.312,-8.457 15.135,-11.206c2.829,-1.324 2.685,-6.314 -1.055,-5.12Z" style="fill-rule:nonzero;"/><path d="M43.731,149.6c-6.901,8.646 -11.528,18.694 -17.323,28.056c2.182,0.759 4.362,1.518 6.544,2.276c4.826,-9.93 12.111,-18.646 19.693,-26.596c-1.981,-1.086 -3.962,-2.171 -5.943,-3.256c-4.236,7.311 -10.633,13.131 -15.646,19.885c2.225,1.202 4.447,2.404 6.672,3.605c6.205,-9.056 13.41,-17.371 19.57,-26.462c3.354,-4.949 -1.783,-7.638 -5.89,-4.671c-7.479,5.403 -13.609,12.527 -19.054,19.918c-3.725,5.056 1.951,7.879 6.116,4.851c4.991,-3.629 9.077,-8.292 14.034,-11.961c-2.297,-1.258 -4.594,-2.517 -6.891,-3.776c-5.461,11.838 -16.783,19.71 -22.54,31.493c-2.816,5.764 5.098,6.721 7.936,2.761c6.013,-8.392 12.466,-16.424 19.452,-24.026c-2.61,-0.908 -5.221,-1.816 -7.831,-2.725c-5.69,11.463 -15.702,19.99 -22.39,30.822c2.669,0.928 5.338,1.856 8.007,2.785c5.917,-10.412 14.136,-19.255 21.104,-28.942c-2.307,-1.247 -4.613,-2.493 -6.92,-3.74c-10.046,14.02 -22.479,26.526 -29.392,42.559c3.037,0.142 6.074,0.284 9.111,0.426c2.411,-8.11 7.089,-15.235 11.655,-22.269c-2.624,-0.495 -5.249,-0.99 -7.873,-1.484c-3.643,11.151 -12.17,20.124 -16.879,30.83c2.892,0.539 5.782,1.078 8.674,1.617c0.172,-0.499 0.344,-0.998 0.515,-1.497c2.298,-6.68 -6.869,-6.953 -8.703,-1.623c-1.496,4.347 -3.021,8.679 -4.683,12.966c3.165,0.148 6.329,0.296 9.494,0.443c1.111,-10.187 10.577,-16.723 11.78,-26.941c0.666,-5.654 -6.378,-3.979 -8.117,-0.379c-4.771,9.876 -12.817,17.96 -13.686,29.346c-0.432,5.663 8.387,2.662 9.597,-0.777c1.658,-4.717 3.19,-9.475 4.727,-14.231c-3.174,0.257 -6.348,0.515 -9.521,0.771c-0.161,0.5 -0.322,0.999 -0.483,1.499c-1.908,5.913 7.369,4.523 9.081,0.424c4.667,-11.172 12.652,-20.594 16.738,-32.049c1.964,-5.505 -4.729,-6.632 -7.49,-2.605c-5.8,8.457 -11.345,16.832 -14.345,26.731c-1.832,6.043 7.356,4.438 9.111,0.426c6.624,-15.148 17.982,-27.216 27.608,-40.441c3.972,-5.457 -3.474,-8.457 -6.92,-3.74c-7.612,10.421 -16.594,19.713 -22.896,31.058c-1.162,2.093 -0.335,4.967 2.179,5.434c2.859,0.53 5.18,-1.566 6.534,-3.809c6.819,-11.288 16.9,-20.154 22.904,-32.018c0.842,-1.664 0.687,-3.988 -1.106,-4.958c-2.486,-1.346 -5.09,0.481 -6.725,2.234c-7.052,7.562 -13.578,15.532 -19.548,23.974c2.646,0.92 5.29,1.84 7.936,2.761c5.657,-11.768 16.928,-19.594 22.46,-31.507c2.449,-5.271 -3.563,-6.227 -6.891,-3.776c-4.969,3.659 -9.032,8.341 -13.966,12.039c2.039,1.617 4.077,3.234 6.116,4.851c4.844,-6.783 10.151,-13.173 16.946,-18.082c-1.964,-1.558 -3.927,-3.114 -5.89,-4.671c-6.154,9.083 -13.32,17.421 -19.43,26.538c-3.614,5.395 3.353,8.176 6.672,3.605c5.411,-7.45 11.919,-13.974 16.354,-22.115c0.771,-1.417 0.563,-3.469 -0.959,-4.293c-2.138,-1.158 -4.426,0.402 -5.822,1.934c-8.199,8.998 -16.39,18.319 -21.469,29.507c-2.486,5.479 4.956,5.033 7.121,1.328c5.486,-9.391 9.999,-19.313 15.518,-28.684c1.981,-3.361 -3,-3.825 -4.737,-1.649Z" style="fill-rule:nonzero;"/><path d="M116.18,141.691c-0.114,7.216 4.192,13.723 8.041,19.496c4.396,6.595 9.768,12.496 14.006,19.198c2.319,3.666 9.944,-2.06 7.832,-5.591c-7.216,-12.066 -12.849,-24.99 -20.294,-36.932c-2.359,-3.784 -8.009,1.944 -7.213,5.148c4.447,17.903 14.332,33.647 23.369,49.506c2.8,-1.999 5.599,-3.997 8.398,-5.995c-8.862,-11.709 -15.362,-24.971 -24.159,-36.721c-2.564,-3.424 -8.801,1.315 -8.266,4.75c2.712,17.393 16.66,29.536 23.373,45.221c2.896,-2.067 5.791,-4.134 8.687,-6.202c-10.672,-12.099 -18.456,-26.329 -26.227,-40.372c-2.616,-4.729 -10.733,0.57 -8.674,4.943c10.897,23.138 25.439,44.022 39.68,65.169c3.013,4.474 11.384,-2.707 8.314,-7.297c-8.95,-13.381 -17.187,-27.143 -23.754,-41.864c-2.251,-5.048 -10.571,0.488 -8.807,5.02c6.976,17.914 17.713,33.518 27.417,49.99c3.123,-2.229 6.246,-4.458 9.368,-6.688c-3.859,-5.397 -6.802,-10.63 -12.554,-14.222c-3.665,-2.289 -8.693,3.441 -6.404,6.871c3.365,5.041 6.515,10.2 10.194,15.042c3.575,4.706 11.721,-2.902 8.764,-7.691c-9.736,-15.769 -21.683,-30.7 -27.979,-48.322c-2.936,1.673 -5.871,3.347 -8.807,5.02c6.421,15.572 14.816,30.208 24.246,44.142c2.771,-2.433 5.543,-4.864 8.314,-7.297c-13.855,-20.331 -29.162,-40.282 -39.32,-62.815c-2.892,1.647 -5.782,3.296 -8.674,4.943c7.865,14.793 15.72,29.845 26.773,42.562c3.266,3.757 10.442,-2.019 8.687,-6.202c-6.262,-14.923 -21.209,-26.356 -23.627,-42.833c-2.755,1.583 -5.51,3.167 -8.266,4.75c8.695,11.85 15.055,25.207 23.841,36.999c3.153,4.231 10.524,-2.594 7.857,-6.895c-9.364,-15.101 -19.702,-30.449 -24.09,-47.887c-2.404,1.716 -4.809,3.433 -7.213,5.148c7.167,11.413 12.017,24.079 18.706,35.763c2.61,-1.864 5.221,-3.727 7.832,-5.591c-4.013,-5.67 -8.849,-10.835 -13.386,-16.084c-4.236,-4.9 -9.872,-11.193 -10.567,-17.917c-0.368,-3.598 -5.375,-0.948 -5.418,1.737Z" style="fill-rule:nonzero;"/><path d="M66.294,298.096c-7.623,-5.119 -12.057,9.089 -13.354,13.67c-2.346,8.278 -2.561,17.74 -2.68,26.307c3.754,-1.203 7.508,-2.406 11.262,-3.609c0.158,-12.677 0.549,-25.352 0.08,-38.026c-0.09,-2.43 -2.254,-3.843 -4.535,-3.657c-3.373,0.273 -5.784,2.897 -6.771,5.941c-3.268,10.086 -2.928,21.064 -3.13,31.542c4.15,-1.33 8.299,-2.66 12.449,-3.99c0.189,-11.857 -1.326,-23.719 0.758,-35.489c-4.029,0.813 -8.06,1.628 -12.09,2.442c1.285,14.626 -3.902,29.854 1.436,44.06c2.313,6.153 9.989,0.953 11.966,-2.438c7.771,-13.329 8.017,-29.898 11.563,-44.595c-4.281,0.864 -8.563,1.729 -12.845,2.595c-0.438,15.612 -6.647,30.459 -7.027,46.169c-0.072,2.995 2.909,4.709 5.57,4.493c3.99,-0.323 7.317,-3.535 8.318,-7.299c3.629,-13.649 6.244,-27.576 8.707,-41.477c-4.387,0.355 -8.773,0.711 -13.16,1.066c-1.086,11.844 -5.844,22.913 -7.086,34.732c-1.338,12.732 -1.02,25.754 -1.021,38.538c4.791,-1.536 9.582,-3.071 14.373,-4.607c-0.694,-16.484 -1.454,-32.884 1.548,-49.201c-4.199,0.849 -8.398,1.696 -12.599,2.545c-0.789,20.646 -4.584,41.045 -4.77,61.747c4.756,-1.525 9.512,-3.049 14.268,-4.574c-2.388,-18.369 -5.41,-36.647 -5.925,-55.203c-0.221,-7.961 -12.566,-2.447 -12.418,3.98c0.576,24.938 -0.78,49.519 2.28,74.391c1.196,9.715 15.073,2.77 14.857,-4.762c-0.142,-4.925 -1.765,-9.588 -2.022,-14.493c-0.213,-4.07 -4.346,-5.458 -7.771,-4.363c-3.984,1.274 -6.93,4.928 -7.041,9.111c-0.186,6.901 1.739,13.789 2.666,20.607c0.478,3.511 2.795,4.883 6.146,4.957c0.166,0.004 0.332,0.007 0.498,0.011c5.224,0.115 8.971,-5.349 9.348,-9.934c0.495,-6.04 -0.312,-11.933 -0.655,-17.951c-0.239,-4.17 -4.442,-5.603 -7.971,-4.475c-4.083,1.306 -7.112,5.055 -7.223,9.346c-0.153,6.028 0.568,12.025 0.345,18.049c3.116,-3.311 6.232,-6.622 9.348,-9.934c-0.167,0.004 -0.334,0.007 -0.502,0.011c2.049,1.652 4.098,3.305 6.146,4.957c-1.276,-6.913 -3.676,-13.249 -3.334,-20.393c-4.938,1.583 -9.875,3.165 -14.813,4.748c0.151,4.917 1.71,9.606 1.978,14.507c4.952,-1.587 9.905,-3.175 14.857,-4.762c-3.618,-24.115 -5.273,-49.224 -4.72,-73.609c-4.14,1.327 -8.278,2.653 -12.418,3.98c-0.336,18.614 1.505,37.377 4.075,55.797c1.314,9.413 14.269,2.559 14.268,-4.574c-0.004,-20.436 1.9,-40.873 3.23,-61.253c0.177,-2.718 -2.724,-4.265 -5.054,-4.076c-3.483,0.282 -6.822,3.195 -7.545,6.621c-3.662,17.362 -3.718,35.135 -3.452,52.799c0.06,3.979 4.327,5.261 7.541,4.233c3.786,-1.211 6.832,-4.798 6.832,-8.841c0.001,-11.638 -0.098,-23.284 0.245,-34.919c0.349,-11.835 5.363,-23.08 6.648,-34.811c1.029,-9.402 -11.798,-5.914 -13.16,1.066c-2.72,13.934 -5.879,27.745 -9.293,41.523c4.63,-0.936 9.26,-1.87 13.889,-2.806c0.092,-15.418 4.987,-30.438 5.973,-45.831c0.178,-2.771 -2.774,-4.349 -5.152,-4.156c-3.719,0.302 -6.728,3.273 -7.692,6.751c-3.773,13.595 -3.608,28.791 -10.438,41.405c3.988,-0.813 7.977,-1.625 11.966,-2.438c-5.328,-12.625 -1.021,-27.687 -1.564,-40.94c-0.316,-7.701 -10.996,-2.483 -12.09,2.442c-2.794,12.585 -1.593,25.736 -1.242,38.511c0.22,7.977 12.605,2.458 12.449,-3.99c-0.23,-9.489 -1.115,-19.294 1.87,-28.458c-3.769,0.762 -7.537,1.522 -11.306,2.284c0.444,12.656 -0.031,25.314 0.08,37.974c0.063,7.193 11.305,2.219 11.262,-3.609c-0.042,-5.645 0.229,-11.314 0.569,-16.945c0.202,-3.347 0.571,-6.71 1.118,-10.017c0.201,-1.212 0.568,-2.376 0.807,-3.576c0.039,-0.2 0.36,-0.875 0.088,-0.438c-0.438,0.7 -2.892,0.891 -1.836,1.225c3.225,1.023 7.299,-4.418 4.028,-6.614Z" style="fill-rule:nonzero;"/><path d="M103.186,288.569c-3.975,14.482 -0.099,29.768 0.18,44.451c4.575,-2.023 9.15,-4.047 13.727,-6.071c-3.055,-12.278 -7.591,-24.107 -10.762,-36.351c-1.968,-7.599 -14.609,0.462 -12.879,7.34c2.16,8.59 4.307,17.182 6.572,25.744c0.803,3.037 4.786,3.414 7.222,2.635c3.781,-1.209 6.863,-4.809 6.845,-8.857c-0.043,-9.969 -4.511,-19.192 -7.481,-28.521c-2.511,-7.885 -13.874,0.332 -13.761,6.087c0.215,10.983 1.192,25.547 8.942,34.096c4.059,4.478 10.396,-0.332 12.618,-4.139c5.99,-10.268 5.253,-23.038 5.09,-34.493c-0.056,-3.937 -4.281,-5.202 -7.458,-4.188c-3.736,1.194 -6.77,4.747 -6.757,8.744c0.048,16.487 -5.12,33.789 0.971,49.79c2.75,7.227 13.862,0.988 14.467,-4.662c1.579,-14.758 -1.58,-29.38 -1.934,-44.117c-0.212,-8.853 -13.9,-2.697 -13.793,4.422c0.35,23.323 -0.595,46.45 1.838,69.712c5.039,-1.615 10.078,-3.23 15.117,-4.846c-2.053,-18.582 -6.737,-36.94 -6.918,-55.706c-0.027,-2.83 -2.68,-4.463 -5.273,-4.253c-3.686,0.299 -7.049,3.337 -7.873,6.909c-2.71,11.754 -2.717,23.993 -2.184,35.979c0.592,13.303 5.774,25.732 6.5,38.958c5.008,-2.215 10.016,-4.43 15.024,-6.646c-3.556,-11.08 -4.459,-22.823 -3.325,-34.388c-4.722,0.954 -9.443,1.908 -14.165,2.862c1.178,16.423 -0.778,32.856 0.146,49.273c0.589,10.443 16.063,2.981 16.018,-5.135c-0.011,-1.854 -0.249,-3.534 -0.843,-5.303c-2.999,-8.935 -18.204,0.658 -15.332,8.74c0.237,0.53 0.29,1.097 0.157,1.697c5.339,-1.712 10.679,-3.423 16.018,-5.135c-1.185,-16.222 -0.198,-32.528 -1.854,-48.727c-0.885,-8.658 -13.313,-3.438 -14.165,2.862c-1.861,13.77 -1.856,28.333 2.675,41.612c2.851,8.352 15.497,-0.112 15.024,-6.646c-0.875,-12.117 -5.84,-23.414 -6.938,-35.483c-1.081,-11.865 -2.517,-23.839 0.254,-35.579c-4.383,0.886 -8.765,1.771 -13.146,2.656c0.079,18.932 2.967,37.524 5.082,56.294c1.096,9.716 15.954,2.992 15.117,-4.846c-2.447,-22.903 -3.503,-46.259 -3.162,-69.288c-4.598,1.474 -9.195,2.948 -13.793,4.422c-0.081,13.641 2.239,27.247 1.066,40.883c4.822,-1.554 9.645,-3.107 14.467,-4.662c-5.732,-14.175 -1.346,-31.4 -1.029,-46.21c-4.738,1.519 -9.477,3.038 -14.215,4.557c-0.092,8.967 0.69,19.451 -3.91,27.507c4.207,-1.38 8.412,-2.76 12.618,-4.139c-6.222,-6.699 -7.076,-19.211 -7.058,-27.904c-4.587,2.029 -9.174,4.058 -13.761,6.087c2.482,8.474 6.015,16.563 6.519,25.479c4.688,-2.074 9.377,-4.148 14.066,-6.223c-2.711,-8.357 -5.479,-16.683 -7.428,-25.256c-4.293,2.446 -8.586,4.894 -12.879,7.34c2.9,12.361 7.222,24.322 10.238,36.649c0.729,2.977 4.713,3.317 7.047,2.571c3.658,-1.17 6.74,-4.7 6.68,-8.643c-0.21,-13.656 -8.82,-26.882 -6.82,-40.549c0.79,-5.378 -6.39,-3.105 -7.409,0.608Z" style="fill-rule:nonzero;"/><path d="M60.421,409.636c-0.091,-2.593 -0.38,-4.063 -2.487,-5.718c-2.358,-1.854 -6.627,0 -8.481,1.684c-4.187,3.799 -6.77,9.792 -5.072,15.377c0.841,2.771 4.49,3.37 6.847,2.498c6.274,-2.321 11.096,-7.059 12.443,-13.758c0.493,-2.452 -0.696,-5.878 -3.681,-6.024c-8.546,-0.419 -18.112,4.739 -18.978,14.131c-0.728,7.886 8.492,7.38 12.148,2.29c2.565,-3.57 3.853,-7.21 3.36,-11.633c-0.819,-7.354 -9.32,-4.217 -12.48,-0.606c-2.55,2.913 -4.626,6.966 -3.403,10.901c1.008,3.245 4.264,4.572 7.25,5.342c2.632,0.678 5.455,0.709 8.154,0.834c0.596,0.027 1.19,0.055 1.786,0.082c-0.705,-0.033 -0.661,-0.031 0.131,0.008c0.778,0.038 1.555,0.09 2.331,0.154c0.921,0.075 3.714,1.021 1.652,0.103c6.049,2.697 16.645,-6.03 11.207,-12.024c-3.009,-3.316 -6.228,-6.025 -10.693,-7.029c-3.417,-0.768 -7.14,1.532 -9.119,4.143c-1.844,2.433 -3.38,8.262 0.666,9.747c2.654,0.976 4.541,2.244 6.631,4.124c3.735,-4.009 7.471,-8.017 11.207,-12.024c-4.258,-1.784 -9.115,-1.304 -13.638,-1.474c1.075,0.041 -1.668,-0.146 -2.089,-0.191c-0.923,-0.1 -1.83,-0.277 -2.727,-0.518c0.801,0.3 0.896,0.314 0.287,0.045c-0.856,-0.406 0.593,0.771 0.812,1.164c0.431,0.77 0.127,2.075 -0.191,2.818c-0.734,1.718 0.087,0.013 0.447,-0.421c-4.16,-0.202 -8.32,-0.403 -12.48,-0.606c0.146,0.74 0.22,1.486 0.219,2.24c0.047,-0.291 0.094,-0.582 0.142,-0.873c4.098,0.198 8.194,0.397 12.292,0.597c-0.035,0.601 -0.301,1.1 -0.797,1.497c-1.228,1.206 -1.075,0.285 -0.324,0.327c-1.227,-2.008 -2.454,-4.016 -3.681,-6.024c-0.42,2.023 -0.195,0.503 0.443,0.242c2.282,0.832 4.564,1.665 6.847,2.498c0.124,0.351 -0.015,-1.146 0.078,-1.625c-0.124,0.641 0.817,-1.014 -0.005,0.031c1.582,-2.01 -4.623,1.186 -2.924,1.895c2.657,1.105 5.97,-1.37 5.87,-4.224Z" style="fill-rule:nonzero;"/><path d="M118.258,402.849c-2.283,-6.366 -9.793,-5.225 -14.466,-1.977c-5.694,3.959 -8.966,10.652 -7.763,17.595c0.755,4.359 5.348,5.62 8.952,3.268c3.846,-2.511 6.771,-5.579 9.646,-9.137c4.447,-5.504 -1.244,-12.686 -7.362,-8.39c-5.196,3.648 -9.28,7.745 -10.745,14.116c-0.768,3.333 1.788,6.814 5.427,6.185c5.308,-0.92 10.597,-1.845 15.965,-2.337c4.37,-0.4 8.952,-4.578 8.664,-9.207c-0.278,-4.468 -2.191,-7.809 -4.189,-11.685c-4.381,3.128 -8.763,6.255 -13.144,9.383c3.024,4.321 5.525,8.932 9.285,12.688c5.705,5.698 15.638,-2.947 13.603,-9.71c-0.753,-2.503 -1.057,-5.1 -1.814,-7.606c-4.195,3.682 -8.39,7.363 -12.585,11.045c1.641,0.766 2,1.135 2.413,2.851c0.799,3.322 5.265,3.695 7.856,2.866c3.992,-1.276 7.627,-5.261 7.445,-9.635c-2.481,3.212 -4.964,6.424 -7.445,9.635c4.014,-1.121 7.623,-5.374 7.445,-9.635c-0.19,-4.588 -3.239,-8.017 -7.395,-9.707c-6.15,-2.501 -15.057,4.173 -12.585,11.045c0.874,2.43 1.308,4.965 2.186,7.394c4.534,-3.236 9.067,-6.473 13.603,-9.71c-3.967,-3.541 -6.564,-8.089 -9.715,-12.312c-4.402,-5.9 -16.479,3.362 -13.144,9.383c1.464,2.642 3.534,5.229 3.811,8.315c2.888,-3.068 5.776,-6.139 8.664,-9.207c-5.396,0.602 -10.707,1.635 -16.035,2.663c1.81,2.062 3.618,4.123 5.427,6.185c0.188,-0.897 0.491,-1.344 1.255,-1.884c-2.454,-2.797 -4.908,-5.593 -7.362,-8.39c-1.55,1.933 -2.995,3.603 -5.018,5.053c3.433,0.182 6.865,0.364 10.299,0.547c-0.915,-3.971 2.293,-3.53 5.629,-4.559c1.984,-0.61 3.972,-2.956 3.192,-5.129Z" style="fill-rule:nonzero;"/><path d="M61.295,146.331c0.045,-0.436 0.09,-0.872 0.135,-1.308c0.811,-7.834 -10.451,-5.158 -11.078,0.897c-0.01,0.1 -0.021,0.199 -0.031,0.299c-0.814,7.878 10.51,5.187 11.141,-0.902c0.034,-0.336 0.069,-0.672 0.104,-1.009c-2.289,2.009 -4.578,4.018 -6.867,6.026c9.739,-1.502 19.113,-0.23 28.893,0.004c5.647,0.136 11.58,-10.454 4.129,-12.071c-8.967,-1.946 -18.223,-0.662 -27.13,-2.785c1.315,1.499 2.63,2.997 3.944,4.495c0.007,-0.168 0.013,-0.337 0.02,-0.506c-3.456,3.033 -6.912,6.066 -10.369,9.099c16.456,1.338 33.679,3.617 50.172,2.249c2.603,-0.216 5.203,-0.379 7.816,-0.353c1.107,0.011 1.084,0.331 0.201,-0.479c-0.939,-0.862 -0.194,-0.213 -0.086,1.126c0.412,5.062 -0.629,10.131 -0.77,15.178c5.128,-2.268 10.255,-4.535 15.382,-6.804c-2.212,-5.673 -1.624,-12.014 -4.513,-17.492c-4.039,-7.659 -13.374,-0.824 -15.195,4.896c-2.072,6.513 -1.563,13.652 -3.842,20.063c4.544,-1.491 9.088,-2.981 13.633,-4.471c-3.534,-4.957 -4.466,-11.544 -7.044,-17.018c-3.26,-6.921 -12.167,-1.843 -14.634,2.981c-3.74,7.313 -2.699,15.142 -4.158,22.949c5.217,-1.054 10.433,-2.108 15.649,-3.162c-0.718,-8.546 -3.3,-16.805 -6.329,-24.784c-2.297,-6.049 -10.895,-2.824 -13.537,1.097c-5.474,8.121 -5.061,16.643 -6.832,25.853c5.127,-1.652 10.254,-3.304 15.38,-4.956c-3.019,-8.465 -3.2,-19.571 -11.78,-24.681c-5.479,-3.264 -11.647,2.886 -13.149,7.642c-2.456,7.776 -1.728,15.898 -1.644,23.925c5.324,-1.707 10.648,-3.414 15.973,-5.121c-0.775,-9.346 -2.764,-20.618 -9.377,-27.74c-5.024,-5.412 -12.765,1.311 -14.334,6.427c-2.559,8.349 -1.29,17.412 -0.146,25.897c1.369,10.15 16.445,3.073 15.742,-5.047c-0.768,-8.852 -1.972,-20.173 -10.083,-25.458c-4.737,-3.087 -12.595,2.649 -13.103,7.614c-0.902,8.818 0.674,18.949 5.208,26.703c4.813,8.23 19.386,-1.445 15.213,-8.671c-3.097,-5.363 -5.397,-13.066 -4.792,-19.297c-4.367,2.538 -8.735,5.076 -13.103,7.614c4.156,2.675 4.466,12.127 4.917,16.542c5.248,-1.683 10.494,-3.364 15.742,-5.047c-1.104,-7.316 -2.466,-14.896 -0.146,-22.103c-4.778,2.143 -9.557,4.284 -14.334,6.427c4.839,5.393 6.057,14.288 6.623,21.26c0.85,10.468 16.044,2.937 15.973,-5.121c-0.06,-6.813 -0.738,-13.478 1.356,-20.075c-4.384,2.547 -8.767,5.095 -13.149,7.642c2.368,1.416 3.171,5.132 3.941,7.64c1.188,3.869 1.898,7.867 3.278,11.679c2.917,8.061 14.325,0.649 15.38,-4.956c1.024,-5.449 -0.024,-13.412 3.168,-18.147c-4.513,0.365 -9.025,0.731 -13.537,1.097c2.604,6.858 5.008,13.872 5.671,21.216c0.881,9.754 14.435,3.557 15.649,-3.162c1.113,-6.156 -0.086,-13.387 2.842,-19.051c-4.877,0.994 -9.756,1.987 -14.634,2.981c3.12,6.722 4.444,13.927 8.956,19.982c4.558,6.114 12.801,-1.969 14.294,-6.408c2.401,-7.141 2.143,-14.833 4.497,-22c-5.065,1.632 -10.13,3.265 -15.195,4.896c2.789,5.433 2.208,11.847 4.487,17.508c3.52,8.741 15.267,-0.371 15.382,-6.804c0.1,-5.666 1.217,-11.33 0.396,-16.992c-1.075,-7.423 -6.76,-8.675 -13.366,-8.685c-7.27,-0.011 -14.405,0.832 -21.717,0.657c-11.235,-0.268 -22.473,-1.397 -33.712,-1.34c-4.445,0.022 -8.804,4.834 -8.637,9.179c0.007,0.165 0.013,0.329 0.02,0.494c0.087,2.256 1.723,4.111 3.944,4.495c9.24,1.594 18.674,-0.367 27.87,1.215c1.376,-4.024 2.753,-8.047 4.129,-12.071c-9.971,0.011 -20.978,-2.222 -30.586,1.302c-2.766,1.014 -5.868,3.853 -5.507,7.125c0.035,0.322 0.071,0.644 0.106,0.966c0.805,7.304 12.021,2.255 11.371,-3.646c-0.011,-0.095 -0.021,-0.191 -0.031,-0.286c-0.801,-7.263 -11.955,-2.243 -11.309,3.625c0.046,0.417 0.092,0.834 0.139,1.252c0.727,6.595 10.408,2.748 10.92,-2.205Z" style="fill-rule:nonzero;"/><path d="M68.221,174.083c-8.876,15.417 -16.463,32.266 -18.193,50.159c3.949,-0.798 7.898,-1.596 11.849,-2.394c0.087,-14.963 4.435,-28.836 11.083,-42.136c1.236,-2.471 0.479,-5.764 -2.534,-6.322c-3.317,-0.615 -6.04,1.816 -7.603,4.432c-7.461,12.481 -12.46,25.722 -17.477,39.318c4.265,-0.346 8.53,-0.691 12.795,-1.037c1.045,-15.248 5.898,-30.138 12.783,-43.711c-4.021,-0.75 -8.045,-1.5 -12.066,-2.25c-6.121,17.825 -13.66,35.16 -17.482,53.693c4.726,-0.955 9.451,-1.909 14.177,-2.864c0.865,-12.401 7.37,-23.837 10.341,-35.771c0.701,-2.82 -0.883,-5.681 -3.802,-6.222c-3.874,-0.718 -8.051,2.147 -9.601,5.596c-6.753,15.021 -14.656,34.11 -8.994,50.623c1.33,3.879 6.252,3.373 9.097,1.829c9.101,-4.941 11.784,-16.271 14.357,-25.466c2.958,-10.567 5.988,-22.755 11.854,-32.597c-4.525,0.366 -9.051,0.733 -13.576,1.1c0.056,2.778 -1.216,7.36 -2.195,10.933c-1.527,5.573 -3.268,11.086 -4.791,16.66c-2.137,7.815 -5.717,20.413 0.898,27.097c3.459,3.497 9.379,1.06 11.845,-2.461c5.786,-8.263 7.875,-17.756 9.032,-27.623c1.159,-9.891 1.195,-20.476 5.378,-29.688c-4.59,0.372 -9.179,0.744 -13.769,1.115c0.731,10.185 -3.081,21.664 -4.628,32.039c-1.415,9.492 -4.023,23.659 4.772,30.39c4.927,3.77 11.395,-3.293 12.684,-7.37c3.015,-9.537 2.679,-19.597 2.002,-29.457c-0.65,-9.459 -1.65,-19.354 2.401,-28.224c-4.452,0.907 -8.904,1.813 -13.356,2.72c4.245,19.317 -2.109,40.121 8.078,58.241c3.279,5.833 12.209,2.714 14.174,-2.887c6.984,-19.906 1.432,-40.646 0.729,-61.054c-4.619,2.043 -9.237,4.086 -13.856,6.129c3.846,17.836 2.804,36.325 8.38,53.854c2.582,8.119 13.852,0.333 14.97,-4.823c1.938,-8.941 0.161,-18.106 -1.287,-26.979c-1.278,-7.822 -4.269,-18.091 -0.743,-25.685c-4.23,1.387 -8.461,2.774 -12.691,4.162c9.516,15.457 7.116,35.896 12.155,52.879c0.974,3.281 5.139,3.744 7.868,2.871c4.236,-1.354 7.314,-5.216 7.457,-9.649c0.535,-16.686 -3.076,-33.193 -2.857,-49.885c-4.588,2.636 -9.175,5.271 -13.762,7.907c5.983,5.692 7.93,13.673 9.356,21.558c1.618,8.938 2.45,18.092 5.358,26.744c1.102,3.28 5.101,3.813 7.951,2.901c4.237,-1.355 7.453,-5.279 7.536,-9.752c0.331,-17.905 -7.856,-34.379 -11.857,-51.488c-4.713,2.687 -9.426,5.372 -14.139,8.059c4.326,10.002 7.525,20.428 9.04,31.234c0.57,4.062 0.77,8.157 1.337,12.222c0.276,1.983 0.453,3.979 0.574,5.978c0.143,2.363 -1.186,2.845 0.824,1.145c-2.825,2.39 -5.142,7.412 -2.286,10.666c2.92,3.327 8.051,1.509 10.874,-0.881c8.478,-7.172 6.321,-17.287 5.051,-26.907c-1.925,-14.578 -5.773,-27.883 -11.275,-41.515c-1.548,-3.833 -6.285,-3.611 -9.327,-1.875c-3.668,2.093 -5.673,5.813 -4.812,9.934c3.412,16.314 10.24,31.593 10.143,48.512c5.162,-2.283 10.325,-4.566 15.487,-6.851c-6.033,-16.528 -3.893,-37.471 -17.285,-50.698c-5.387,-5.32 -13.583,1.941 -13.762,7.907c-0.5,16.745 2.324,33.365 2.143,50.115c5.108,-2.26 10.217,-4.52 15.325,-6.778c-5.729,-17.805 -4.342,-37.121 -14,-53.716c-3.426,-5.887 -11.109,-2.21 -13.536,2.757c-8.856,18.126 3.391,37.702 -0.03,56.337c4.99,-1.607 9.979,-3.216 14.97,-4.823c-6.123,-17.072 -5.72,-35.561 -9.62,-53.146c-0.67,-3.021 -4.808,-3.333 -7.114,-2.596c-3.789,1.211 -6.672,4.724 -6.742,8.725c-0.326,18.431 5.036,37.881 -0.916,55.835c4.939,-1.592 9.879,-3.184 14.818,-4.775c-9.939,-16.84 -4.988,-37.706 -8.589,-56.148c-1.541,-7.898 -11.129,-4.214 -13.689,1.109c-9.485,19.721 -0.189,41.232 -6.597,61.319c4.229,-2.457 8.455,-4.914 12.684,-7.37c1.23,0.947 -0.033,-0.308 -0.211,-0.541c0.742,0.978 -0.311,-1.17 -0.42,-1.528c-0.435,-1.422 -0.464,-3.955 -0.488,-5.935c-0.064,-5.314 0.726,-10.628 1.483,-15.874c1.39,-9.621 4.369,-19.918 3.78,-29.693c-0.508,-8.413 -11.55,-3.645 -13.769,1.115c-4.019,8.622 -5.237,17.934 -6.243,27.295c-0.935,8.693 -1.31,18.9 -6.347,26.394c3.948,-0.82 7.896,-1.641 11.845,-2.461c-1.007,-0.968 -0.81,-0.658 -1.306,-2.456c-0.141,-0.507 -0.127,-3.057 -0.017,-4.205c0.49,-5.121 1.868,-10.174 3.2,-15.126c2.308,-8.582 6.186,-17.494 6.034,-26.523c-0.052,-3.052 -2.874,-4.814 -5.688,-4.587c-3.602,0.292 -6.131,2.758 -7.889,5.687c-5.755,9.596 -8.24,20.731 -11.709,31.265c-1.154,3.507 -2.063,7.09 -3.145,10.621c-0.523,1.708 -1.184,3.355 -1.903,4.99c-0.231,0.526 -0.737,1.521 -1.044,1.977c-1.164,1.729 -0.396,0.313 0.013,0.085c3.032,0.61 6.064,1.22 9.097,1.829c-4.618,-12.949 2.641,-28.714 8.006,-40.377c-4.467,-0.208 -8.935,-0.417 -13.402,-0.626c-3.44,13.301 -9.962,25.265 -10.659,39.229c-0.152,3.058 3.029,4.802 5.687,4.586c3.85,-0.312 7.771,-3.593 8.49,-7.45c3.233,-17.356 9.74,-33.698 15.518,-50.307c3.286,-9.445 -8.602,-9.015 -12.066,-2.25c-7.865,15.354 -13.847,32.914 -14.217,50.289c-0.062,2.881 2.792,4.531 5.359,4.323c3.979,-0.322 6.85,-3.424 8.004,-7.022c3.932,-12.263 7.264,-25.636 14.135,-36.669c-3.105,-1.081 -6.211,-2.161 -9.316,-3.241c-7.624,14.614 -13.623,31.157 -12.917,47.864c0.14,3.296 3.537,4.402 6.28,3.525c3.276,-1.048 5.521,-3.973 5.69,-7.363c0.805,-16.167 7.099,-31.814 13.685,-46.396c2.545,-5.644 -5.123,-5.224 -7.341,-1.374Z" style="fill-rule:nonzero;"/><path d="M48.767,212.179c-8.919,1.433 -14.047,13.054 -16.768,20.494c-3.407,9.317 -6.233,18.98 -8.459,28.65c4.567,-0.369 9.134,-0.74 13.701,-1.109c1.809,-13.584 9.561,-25.841 15.477,-37.952c-3.718,-0.174 -7.437,-0.348 -11.154,-0.521c-3.765,14.78 -18.343,31.408 -10.901,47.362c1.557,3.337 5.992,3.806 8.878,1.785c8.297,-5.81 12.132,-13.913 14.78,-23.465c2.252,-8.125 2.91,-16.968 7.033,-24.45c-4.56,0.369 -9.12,0.739 -13.681,1.108c1.255,8.288 -0.467,17.681 -0.943,25.993c-0.382,6.669 -2.961,21.492 5.733,23.965c5.74,1.632 11.112,-4.564 13.27,-9.007c2.151,-4.428 2.907,-9.598 3.674,-14.409c0.873,-5.486 1.484,-11.013 2.236,-16.517c0.311,-2.271 0.658,-4.537 1.095,-6.788c0.167,-0.855 0.372,-1.7 0.601,-2.541c-0.501,1.846 -0.059,0.21 0.21,-0.269c-4.697,0.381 -9.394,0.761 -14.091,1.142c1.208,15.682 -4.717,36.583 6.539,49.729c2.61,3.05 8.123,1.736 10.568,-0.855c6.773,-7.183 9.037,-15.511 9.343,-25.217c0.236,-7.506 -1.496,-16.381 2.122,-23.301c-4.57,0.931 -9.14,1.861 -13.709,2.792c5.055,14.448 0.304,30.345 9.612,43.638c2.922,4.172 10.165,0.619 12.239,-2.543c4.6,-7.018 5.75,-14.724 5.575,-22.996c-0.159,-7.497 -1.747,-15.274 -0.47,-22.728c-4.859,1.566 -9.719,3.132 -14.578,4.698c4.693,13.989 4.629,31.95 16.128,42.66c5.28,4.919 12.56,-0.915 14.233,-6.381c4.275,-13.953 0.702,-28.575 0.967,-42.827c-4.974,2.2 -9.947,4.399 -14.92,6.6c3.579,13.961 5.998,29.221 14.754,41.078c4.046,5.478 13.553,-1.294 14.158,-6.348c1.898,-15.825 -4.209,-29.832 -6.254,-45.246c-1.258,-9.479 -15.598,-2.903 -14.75,4.729c1.547,13.933 5.595,27.438 9.468,40.858c2.236,7.748 14.531,0.809 15.015,-4.839c1.121,-13.072 0.076,-25.877 -2.082,-38.796c-4.901,2.168 -9.803,4.336 -14.703,6.504c4.042,13.757 4.729,28.547 13.115,40.668c4.609,6.663 14.427,-2.846 14.391,-8.27c-0.046,-7.065 -1.449,-13.94 -2.159,-20.949c-1.011,-9.99 -15.63,-2.903 -15.338,4.918c0.319,8.546 2.481,16.892 2.636,25.456c0.173,9.618 15.238,3 15.066,-4.83c-0.188,-8.581 -2.34,-16.946 -2.364,-25.544c-5.112,1.64 -10.226,3.278 -15.338,4.918c0.463,7.029 1.625,14.005 1.841,21.051c4.797,-2.756 9.594,-5.513 14.391,-8.27c-7.68,-10.498 -8.582,-25.108 -11.885,-37.332c-2.163,-8.007 -15.661,-0.096 -14.703,6.504c1.791,12.345 2.479,24.617 1.76,37.077c5.058,-2.237 10.115,-4.474 15.173,-6.712c-3.894,-12.093 -8.515,-24.394 -9.532,-37.142c-4.917,1.576 -9.833,3.152 -14.75,4.729c1.402,13.854 7.193,27.685 5.746,41.754c4.719,-2.116 9.438,-4.231 14.158,-6.348c-8.104,-10.539 -10.236,-25.314 -13.246,-37.922c-0.772,-3.24 -5.137,-3.602 -7.659,-2.795c-4.132,1.321 -7.112,5.077 -7.261,9.395c-0.446,13.036 2.559,26.393 -1.033,39.173c4.744,-2.127 9.489,-4.254 14.233,-6.381c-10.653,-9.378 -10.96,-26.609 -14.872,-39.34c-2.415,-7.859 -13.588,-0.387 -14.578,4.698c-1.329,6.83 -0.869,13.823 -0.578,20.727c0.207,4.916 1.467,13.102 -1.316,17.55c4.08,-0.848 8.16,-1.695 12.239,-2.543c-4.102,-5.523 -4.637,-12.716 -5.223,-19.343c-0.624,-7.056 -1.007,-14.224 -3.165,-21.02c-2.284,-7.192 -11.642,-0.945 -13.709,2.792c-3.828,6.925 -4.063,15.041 -4.211,22.762c-0.126,6.571 0.873,15.157 -3.875,20.383c4.04,-0.84 8.08,-1.679 12.119,-2.518c-4.735,-5.26 -4.672,-13.539 -4.805,-20.204c-0.154,-7.69 0.793,-15.383 0.344,-23.067c-0.185,-3.157 -2.882,-5.006 -5.902,-4.761c-3.705,0.3 -6.412,2.849 -8.188,5.902c-3.489,6 -3.593,14.741 -4.575,21.427c-0.652,4.438 -1.339,8.872 -2.256,13.264c-0.405,1.938 -0.906,3.85 -1.507,5.735c0.5,-1.57 -0.159,0.306 -0.266,0.544c-0.437,0.836 -0.325,0.672 0.334,-0.492c2.193,-2.771 5.431,-3.346 9.714,-1.723c0.962,0.891 0.579,1.151 0.229,0.164c-0.539,-1.52 0.204,1.478 -0.116,-0.434c-0.292,-1.747 -0.366,-3.536 -0.445,-5.303c-0.21,-4.678 -0.071,-9.376 0.058,-14.054c0.195,-7.039 1.745,-14.691 0.706,-21.701c-1.237,-8.344 -11.044,-3.648 -13.681,1.108c-3.679,6.633 -5.119,14.307 -6.769,21.631c-1.45,6.435 -2.792,14.277 -8.128,18.677c3.529,0.188 7.059,0.375 10.588,0.563c-3.448,-5.742 -0.941,-13.146 1.067,-19.012c2.492,-7.276 5.661,-14.304 8.031,-21.626c0.748,-2.31 -0.858,-4.75 -3.164,-5.178c-3.432,-0.636 -6.42,1.88 -7.99,4.657c-7.366,13.024 -16.388,25.89 -18.523,41.048c-1.388,9.849 12.02,5.955 13.701,-1.109c1.704,-7.16 3.029,-14.393 4.917,-21.516c1.121,-4.233 2.563,-8.369 3.74,-12.573c0.439,-1.565 1.046,-3.002 1.666,-4.499c0.388,-0.937 1.703,-1.914 0.536,-1.486c3.375,-1.234 6.323,-8.868 0.665,-7.958Z" style="fill-rule:nonzero;"/><path d="M38.192,254.598c-12.274,2.555 -15.562,19.462 -17.396,29.704c-0.615,3.438 1.613,6.228 5.209,5.936c3.785,-0.307 7.082,-3.388 7.982,-7.004c1.888,-7.589 3.038,-15.311 3.585,-23.107c0.2,-2.853 -2.87,-4.476 -5.305,-4.278c-3.71,0.3 -7.09,3.357 -7.921,6.95c-1.844,7.974 -3.48,17.373 -0.639,25.279c1.646,4.579 7.809,2.988 10.518,0.56c8.313,-7.453 7.49,-17.15 10.607,-26.932c-4.676,0.945 -9.352,1.89 -14.027,2.834c-0.062,8.805 -2.677,20.215 3.423,27.637c3.146,3.826 9.397,0.698 11.68,-2.427c5.678,-7.772 5.813,-16.574 9.009,-25.265c-4.604,0.373 -9.208,0.746 -13.813,1.119c0.707,10.056 -1.695,20.129 4.067,29.122c1.694,2.644 6.335,1.798 8.48,0.453c5.515,-3.457 8.29,-8.322 10.318,-14.351c1.727,-5.129 1.622,-10.77 3.413,-15.85c-4.469,0.91 -8.938,1.82 -13.406,2.73c-0.396,-1.747 0.043,1.053 0.072,1.369c0.107,1.184 0.183,2.371 0.224,3.559c0.11,3.162 0.193,6.318 0.471,9.472c0.424,4.825 1.417,12.199 7.287,13.288c7.22,1.338 12.917,-5.736 15.251,-11.634c1.281,-3.238 2.169,-6.634 2.979,-10.014c0.3,-1.255 0.569,-2.517 0.851,-3.775c0.121,-0.542 1.196,-4.188 0.388,-1.974c-4.662,0.377 -9.324,0.755 -13.985,1.133c0.09,8.659 -2.803,26.963 9.81,27.455c7.671,0.301 11.458,-9.089 12.98,-15.017c1.343,-5.229 1.625,-10.667 2.907,-15.896c-4.931,0.996 -9.86,1.992 -14.791,2.988c1.117,7.752 0.136,16.03 3.701,23.249c2.212,4.479 8.284,3.786 11.44,0.607c3.669,-3.693 5.943,-7.745 7.082,-12.835c1.001,-4.472 0.598,-9.421 2.42,-13.673c-4.593,0.936 -9.186,1.871 -13.779,2.807c1.845,8.283 0.043,16.699 5.176,24.093c3.045,4.386 9.884,0.324 12.188,-2.532c5.177,-6.416 4.741,-14.473 8.544,-21.344c-4.682,0.954 -9.362,1.907 -14.044,2.861c1.971,7.561 1.524,15.217 8.655,20.088c3.959,2.704 10.574,-1.613 11.961,-5.436c2.193,-6.042 3.557,-12.299 5.593,-18.387c-5.028,1.017 -10.058,2.033 -15.087,3.049c1.337,7.059 2.35,14.557 7.208,20.185c3.923,4.545 11.384,-0.102 13.264,-4.351c3.061,-6.914 2.401,-13.848 2.188,-21.193c-5.025,1.61 -10.051,3.222 -15.076,4.832c1.085,6.688 0.769,21.235 10.969,20.409c11.353,-0.92 11.892,-14.623 13.604,-22.936c-4.957,1.598 -9.914,3.194 -14.872,4.792c3.323,6.473 4.479,16.256 14.227,14.833c-2.069,-1.669 -4.14,-3.339 -6.209,-5.008c-0.022,1.007 -0.044,2.014 -0.065,3.021c5.135,-2.271 10.271,-4.543 15.405,-6.814c-5.134,-9.452 -14.48,-10.871 -23.114,-4.882c-2.21,1.532 -6.124,6.851 -1.875,8.748c2.094,0.936 3.794,2.151 6.1,2.575c2.49,0.459 3.432,1.459 4.759,3.646c1.769,2.915 6.731,1.783 9.013,0.481c3.123,-1.782 5.563,-5.114 5.482,-8.81c-0.021,-0.993 -0.043,-1.986 -0.065,-2.979c-0.067,-3.087 -3.145,-5.581 -6.209,-5.008c-2.553,0.477 2.045,1.885 0.469,0.068c-0.435,-0.502 -0.683,-1.427 -0.921,-2.033c-0.813,-2.06 -1.323,-4.217 -2.321,-6.202c-3.64,-7.242 -13.606,-1.128 -14.872,4.792c-0.798,3.729 -0.956,8.66 -2.243,11.552c6.23,-5.889 9.602,-6.983 10.112,-3.285c-0.27,-0.528 -0.498,-1.075 -0.686,-1.639c-0.41,-1.093 -0.627,-2.245 -0.824,-3.391c-0.387,-2.242 -0.496,-4.511 -0.786,-6.764c-1.283,-9.963 -15.056,-2.688 -15.076,4.832c-0.013,4.369 0.916,9.668 -0.813,13.807c4.421,-1.45 8.843,-2.9 13.264,-4.351c-3.423,-3.759 -3.984,-8.985 -4.792,-13.815c-1.343,-8.034 -12.307,-4.85 -14.446,1.171c-2.151,6.056 -3.698,12.278 -5.693,18.382c4.202,-2.442 8.404,-4.884 12.606,-7.326c-3.87,-2.428 -3.451,-10.946 -4.345,-14.912c-0.538,-2.387 -3.594,-3.338 -5.68,-3.169c-3.799,0.308 -6.528,2.916 -8.364,6.03c-3.146,5.339 -2.672,12.902 -6.456,17.656c4.063,-0.844 8.125,-1.688 12.188,-2.532c-3.557,-5.026 -2.409,-13.42 -3.48,-19.245c-1.5,-8.153 -11.561,-4.352 -14.123,1.145c-1.596,3.42 -2.456,7.008 -3.066,10.714c-0.296,1.795 -0.558,3.593 -0.887,5.382c-0.167,0.856 -0.365,1.705 -0.595,2.547c-0.2,0.787 -1.353,2.347 0.05,0.85c3.813,0.202 7.627,0.405 11.44,0.607c-3.324,-6.117 -2.501,-13.058 -3.299,-19.751c-1.134,-9.509 -13.185,-2.987 -14.791,2.988c-0.845,3.143 -1.241,6.425 -1.857,9.617c-0.409,2.119 -0.884,4.222 -1.427,6.311c0.096,-0.372 -0.841,2.764 -0.476,1.711c-0.178,0.489 -0.38,0.967 -0.607,1.435c1.229,-2.225 3.315,-3.553 6.255,-3.986c2.569,-0.445 3.694,2.181 3.105,0.896c-0.322,-0.701 -0.494,-1.482 -0.684,-2.227c-0.484,-1.904 -0.47,-4.082 -0.586,-6.037c-0.201,-3.4 -0.111,-6.779 -0.026,-10.178c0.213,-8.458 -12.038,-3.713 -13.985,1.133c-1.35,3.358 -2.095,6.941 -3.012,10.432c-0.467,1.775 -0.967,3.539 -1.626,5.253c-0.337,0.876 -0.741,1.726 -1.151,2.568c1.241,-2.544 6.787,-3.905 8.23,-1.36c-3.401,-5.995 -1.33,-14.444 -2.585,-20.984c-1.462,-7.621 -11.534,-4.621 -13.741,1.113c-1.516,3.941 -2.422,7.978 -3.245,12.108c-0.414,2.075 -0.856,4.134 -1.407,6.178c-0.096,0.358 -1.594,3.189 -0.616,2.514c2.827,0.151 5.653,0.302 8.48,0.453c-4.403,-6.051 -1.82,-15.927 -1.933,-22.878c-0.136,-8.388 -11.78,-3.688 -13.813,1.119c-2.883,6.817 -2.816,15.577 -6.991,21.735c3.894,-0.81 7.786,-1.618 11.68,-2.427c-4.313,-4.779 -1.687,-15.512 -1.577,-21.363c0.057,-3.024 -2.926,-4.758 -5.627,-4.538c-4.197,0.34 -7.161,3.598 -8.4,7.372c-0.973,2.96 -1.476,5.998 -2,9.062c-0.39,2.271 -0.621,6.272 -2.393,8.007c3.506,0.187 7.012,0.373 10.518,0.56c-2.476,-5.807 -1.096,-12.818 0.361,-18.721c-4.363,0.354 -8.727,0.707 -13.09,1.061c-0.624,7.286 -2.267,14.324 -3.551,21.504c4.397,-0.356 8.794,-0.712 13.191,-1.068c0.42,-3.846 0.959,-7.681 1.713,-11.476c0.527,-2.659 1.355,-8.676 3.921,-10.275c3.545,-2.211 3.823,-7.978 -1.43,-6.884Z" style="fill-rule:nonzero;"/><path d="M91.193,63.41c-17.213,-7.157 -33.758,11.922 -33.356,28.295c0.201,8.176 6.465,13.869 14.333,14.753c7.886,0.887 15.081,-3.407 19.534,-9.705c6.884,-9.737 10.213,-28.676 1.15,-38.231c-5.502,-5.8 -14.239,-3.594 -19.901,0.679c-7.558,5.703 -11.144,15.842 -12.022,24.954c-0.863,8.948 0.412,18.83 8.49,24.086c11.05,7.191 22.91,-2.565 28.429,-11.741c4.39,-7.297 7.044,-22.531 -1.289,-28.091c-3.946,-2.633 -9.511,0.294 -12.536,2.935c-4.335,3.783 -6.499,9.603 -7.884,15.012c-2.026,7.914 -5.229,20.542 5.649,22.882c6.438,1.386 12.357,-4.021 16.295,-8.263c3.328,-3.585 4.865,-8.196 5.417,-12.968c0.996,-8.621 -0.112,-19.456 -8.023,-24.598c-8.739,-5.68 -18.991,3.244 -23.508,10.114c-6.552,9.967 -16.94,40.223 4.415,40.326c13.303,0.064 20.593,-16.887 22.426,-27.75c2.075,-12.301 -1.343,-26.553 -16.183,-26.535c-19.706,0.024 -34.026,24.71 -28.608,42.427c3.61,11.803 17.976,12.75 27.322,8.019c10.242,-5.185 16.535,-17.734 16.193,-28.883c-0.223,-7.243 -3.976,-14.603 -11.04,-17.218c-7.267,-2.69 -14.862,-1.129 -21.614,2.268c-16.095,8.099 -20.4,29.502 -5.48,41.155c15.145,11.828 38.457,-6.527 35.501,-23.918c-1.619,-9.52 -10.435,-16.162 -19.902,-16.137c-9.442,0.025 -16.246,9.346 -17.96,17.714c-4.404,21.508 19.922,37.637 38.514,26.696c10.083,-5.934 14.347,-17.745 14.448,-28.907c0.071,-7.816 -2.088,-18.477 -10.889,-20.562c-7.448,-1.764 -15.091,4.806 -18.871,10.469c-4.229,6.334 -6.61,14.422 -3.898,21.831c2.01,5.492 7.283,8.604 12.626,10.083c6.926,1.919 13.417,-2.039 17.904,-6.902c7.717,-8.364 7.6,-25.593 -0.636,-33.502c-5.505,-5.287 -16.303,2.838 -13.567,9.685c1.778,4.452 3.82,9.033 4.354,13.833c0.513,4.622 -1.408,6.606 -5.322,8.825c-2.776,1.573 -5.174,4.7 -4.997,8.029c0.202,3.817 4.241,5.473 7.541,4.233c8.995,-3.379 16.625,-9.672 17.957,-19.705c1.07,-8.065 -2.163,-16.102 -5.091,-23.448c-4.522,3.228 -9.045,6.457 -13.567,9.685c2.302,2.214 3.276,4.954 3.599,8.112c0.166,1.635 0.068,3.168 -0.223,4.773c-0.334,1.842 -0.876,2.637 -1.425,3.328c0.469,-0.591 0.854,-0.915 1.558,-1.194c0.948,-0.377 -0.375,0.015 -0.358,0.017c-1.646,-0.172 -3.063,-1.046 -4.402,-1.959c-1.644,-1.121 -2.079,-4.117 -1.997,-4.961c0.16,-1.64 0.54,-2.684 0.721,-3.136c0.276,-0.693 0.627,-1.354 0.974,-2.013c-0.812,1.538 0.332,-0.441 0.477,-0.642c0.233,-0.323 1.812,-1.998 0.281,-0.438c0.322,-0.328 2.062,-1.671 0.146,-0.314c1.425,-1.009 0.173,-0.113 -0.602,-0.217c-1.313,-0.176 -0.34,-0.141 0.258,0.228c-1.18,-0.728 0.139,0.386 0.348,0.661c0.049,0.065 0.979,2.516 1.167,3.476c0.965,4.915 1.046,10.356 -0.873,15.052c-1.17,2.864 -2.36,4.266 -5.425,4.625c-4.521,0.53 -9.812,-2.003 -12.831,-5.252c-2.295,-2.47 -3.24,-5.746 -3.424,-9.038c-0.086,-1.534 0.175,-2.792 0.571,-4.301c-0.277,1.055 0.616,-1.233 0.586,-1.174c-0.117,0.235 -0.373,0.471 0.213,-0.024c-1.475,1.246 -2.065,0.659 -0.389,0.956c1.532,0.271 3.134,1.357 4.27,2.361c2.643,2.334 3.506,5.136 2.869,8.018c-0.43,1.945 -2.003,3.107 -3.027,3.704c-2.032,1.183 1.076,-0.287 -1.143,0.41c1.053,-0.331 -1.334,0.1 -1.332,0.1c-0.96,0.05 -2.792,-0.95 -3.961,-1.729c-2.487,-1.656 -4.764,-5.98 -5.209,-8.544c-0.316,-1.82 -0.24,-1.933 0.065,-3.382c0.448,-2.125 -0.548,1.123 0.31,-0.854c0.439,-0.822 0.42,-0.851 -0.058,-0.085c0.259,-0.402 0.533,-0.792 0.824,-1.17c1.387,-1.881 -1.265,1.143 0.413,-0.504c0.521,-0.511 1.098,-0.962 1.67,-1.412c-1.887,1.482 3.197,-1.482 1.359,-0.716c2.643,-1.102 4.354,-1.281 6.624,-0.901c2.009,0.337 3.188,1.114 4.769,3.258c1.347,1.826 1.686,6.291 1.122,9.208c-0.57,2.956 -2.609,7.151 -5.579,8.369c-3.957,1.622 -7.236,-1.787 -8.293,-5.207c-1.018,-3.293 0.262,-7.51 1.51,-10.54c0.738,-1.792 1.673,-3.365 2.823,-4.911c1.415,-1.902 -0.411,0.191 1.229,-1.347c0.521,-0.488 1.046,-0.727 0.893,-0.666c0.809,-0.321 1.642,-0.57 2.476,-0.814c2.356,-0.689 -1.195,0.104 1.019,-0.192c1.749,-0.235 0.434,-0.313 2.467,0.137c-1.644,-0.363 2.052,1.448 0.668,0.282c0.389,0.328 0.719,0.722 1.045,1.109c1.147,1.362 0.012,-0.193 0.484,0.769c1.227,2.498 1.09,2.706 1.227,5.825c0.139,3.181 -0.066,4.041 -0.865,7.57c-0.143,0.628 -1.195,4.103 -0.714,2.721c-0.437,1.251 -0.968,2.466 -1.536,3.662c-0.271,0.57 -0.576,1.123 -0.882,1.675c1.04,-1.878 0.085,-0.17 -0.161,0.19c-0.319,0.465 -0.674,0.904 -1.029,1.342c-1.02,1.251 1.555,-1.407 -0.265,0.161c0.751,-0.647 1.562,-0.865 2.377,-0.545c-1.874,-0.735 -2.116,-1.299 -2.216,-4.102c-0.124,-3.493 1.08,-7.233 2.353,-10.46c1.444,-3.662 3.571,-7.238 5.606,-8.921c-1.156,0.956 -2.379,0.47 -1.326,0.986c0.752,0.368 1.467,1.771 1.914,2.819c1.501,3.517 1.615,7.838 1.064,11.565c-0.131,0.881 -0.354,1.742 -0.585,2.6c0.152,-0.567 1.026,-1.62 -0.307,0.142c-0.364,0.481 -0.733,0.957 -1.237,1.287c-3.15,2.061 2.793,-0.434 2.874,0.324c-0.405,-3.783 0.981,-8.015 1.888,-11.666c0.417,-1.682 1.188,-3.232 2.052,-4.33c-1.339,1.702 -4.74,3.307 -6.616,1.455c-0.539,-0.532 0.309,0.711 0.362,0.973c0.984,4.777 0.042,9.535 -2.871,13.423c-1.911,2.551 -5.077,1.039 -6.838,-0.915c-2.485,-2.759 -2.573,-7.367 -2.565,-10.836c0.01,-3.947 0.994,-7.98 2.594,-11.57c0.457,-1.025 1.701,-2.911 1.991,-3.199c1.446,-1.438 -0.578,0.154 1.13,-0.781c-0.213,0.117 -0.162,0.09 0.321,0.042c-1.233,0.123 0.097,0.031 0.488,0.115c-1.205,-0.258 0.096,0.125 0.398,0.303c-0.747,-0.437 0.988,1.12 1.411,1.742c0.722,1.063 1.466,4.572 1.648,6.767c0.445,5.329 -0.578,10.226 -3.037,14.669c0.687,-1.241 -2.061,2.316 -0.668,0.889c-0.476,0.487 -1.014,0.905 -1.553,1.317c1.588,-1.213 -1.127,0.39 0.385,-0.249c-1.596,0.674 -3.771,0.628 -6.055,-0.404c-5.377,-2.431 -3.598,-9.528 -1.584,-13.625c2.615,-5.317 7.809,-8.428 13.688,-7.112c4.169,0.933 10.707,-6.936 5.528,-9.089Z" style="fill-rule:nonzero;"/><path d="M101.731,94.102c-0.267,3.465 -3.701,5.618 -4.173,9.016c-0.349,2.505 1.588,3.917 3.964,3.198c5.855,-1.773 8.563,-9.315 8.529,-14.882c-0.013,-2.307 -2.521,-3.041 -4.365,-2.451c-2.324,0.743 -3.773,2.756 -3.955,5.119Z" style="fill-rule:nonzero;"/><path d="M41.897,101.644c-0.277,-9.77 0.463,-17.834 5.316,-26.498c4.798,-8.565 12.633,-15.262 21.039,-20.112c8.092,-4.668 17.759,-7.619 27.156,-6.646c5.214,0.539 10.031,2.643 14.595,5.116c2.674,1.449 5.103,3.224 7.317,5.3c2.34,2.193 4.144,4.967 7.539,5.272c3.088,0.278 5.599,-1.784 6.475,-4.668c2.177,-7.171 -6.729,-12.738 -11.936,-15.83c-5.584,-3.316 -12.206,-5.69 -18.65,-6.517c-12.514,-1.606 -25.27,2.583 -36.07,8.626c-11.217,6.276 -20.587,15.518 -27.163,26.515c-5.7,9.533 -8.476,23.494 -2.063,33.145c1.99,2.994 6.513,-1.272 6.445,-3.703Z" style="fill-rule:nonzero;"/><path d="M101.727,45.216c0.716,1.848 2.738,3.114 4.085,4.565c2.003,2.158 3.853,4.505 5.545,6.911c3.645,5.182 6.574,10.593 8.71,16.568c2.072,5.801 3.054,11.977 2.805,18.131c-0.245,6.036 -3.064,9.913 -6.718,14.356c-4.201,5.111 2.17,8.405 6.462,5.125c11.543,-8.822 11.131,-26.544 7.227,-38.941c-2.191,-6.956 -5.886,-13.504 -10.375,-19.225c-3.161,-4.029 -10.087,-10.765 -15.717,-10.115c-1.13,0.131 -2.506,1.379 -2.024,2.625Z" style="fill-rule:nonzero;"/><path d="M53.094,140.324c1.815,0.214 3.553,-0.325 5.324,-0.707c3.185,-0.685 6.479,-0.786 9.72,-0.998c6.118,-0.399 12.293,-0.113 18.417,-0.012c7.758,0.128 15.451,0.496 23.154,1.442c4.531,0.556 9.785,3.681 14.185,1.489c-1.382,-2.305 -2.765,-4.609 -4.146,-6.914c-0.193,0.205 -0.387,0.41 -0.58,0.615c-1.454,1.54 -2.564,3.539 -1.181,5.512c0.114,0.164 0.229,0.327 0.343,0.49c2.71,3.866 7.98,-1.286 8.851,-3.968c0.016,-0.046 0.03,-0.093 0.045,-0.139c0.525,-1.618 -0.322,-3.151 -1.609,-4.045c-1.577,-1.095 -4.056,-1.085 -5.903,-1.454c-3.507,-0.698 -7.001,-0.956 -10.562,-1.234c-8.077,-0.632 -16.191,-0.523 -24.287,-0.417c-6.415,0.084 -12.97,0.105 -19.294,1.284c-4.765,0.888 -10.803,2.159 -13.445,6.638c-0.516,0.872 -0.158,2.285 0.968,2.418Z" style="fill-rule:nonzero;"/></g></svg>