<?xml version="1.0" encoding="utf-8"?>
<!-- Generator: Adobe Illustrator 17.0.0, SVG Export Plug-In . SVG Version: 6.00 Build 0)  -->
<!DOCTYPE svg PUBLIC "-//W3C//DTD SVG 1.0//EN" "http://www.w3.org/TR/2001/REC-SVG-20010904/DTD/svg10.dtd">
<svg version="1.0" id="Layer_1" xmlns="http://www.w3.org/2000/svg" xmlns:xlink="http://www.w3.org/1999/xlink" x="0px" y="0px"
	 width="566.93px" height="566.93px" viewBox="0 0 566.93 566.93" enable-background="new 0 0 566.93 566.93" xml:space="preserve">
<path d="M80.344,438.903c3.523,0.336,2.963,4.963,7.049,4.412c1.506-0.203,3.042-0.951,3.276-2.598
	c0.388-2.717-2.031-4.981-4.554-6.053c2.747-4.708,6.104-9.267,9.255-13.637c0.708-0.982,0.218-2.422-1.085-2.5
	c-2.472-0.149-4.896-0.597-7.346-0.902c5.489-7.968,13.264-14.551,20.67-20.925c0.002,0.007-0.001,0.014,0.002,0.021
	c0.551,1.451,0.638,2.507,1.588,3.853c1.215,1.722,2.654,3.115,4.225,4.513c1.376,1.225,2.853,2.331,4.268,3.508
	c0.445,0.37,0.861,0.747,1.277,1.101c-0.697,1.178-1.328,2.407-1.874,3.707c-0.42,0.999,0.454,1.722,1.321,1.917
	c6.813,1.528,6.448,5.72,4.324,10.177c-0.871-1.386-1.919-2.581-2.898-3.331c-0.831-0.636-3.597,0.32-2.792,1.518
	c1.09,1.622,1.87,3.425,2.227,5.35c0.125,0.672,0.131,1.439,0.156,2.208c-0.946,1.523-1.818,2.949-2.362,4.163
	c-0.617,1.376,0.654,2.644,1.94,2.815c1.441,0.192,2.217,1.995,3.571,2.679c1.291,0.652,3.242-0.024,4.173-1.017
	c2.566-2.735,1.377-5.447-1.186-6.803c0.504-1.723,0.831-3.469,1.651-5.172c1.125-2.339,2.282-4.907,2.519-7.525
	c0.444-4.917-2.624-7.35-6.691-8.611c0.093-0.181,0.197-0.351,0.294-0.527c1.176-0.248,2.572-0.968,2.36-2.151
	c-0.067-0.372-0.165-0.673-0.288-0.936c3.886-4.88,9.396-8.324,12.482-13.981c0.522-0.958,0.314-2.26-1.019-2.348
	c-2.521-0.166-4.991-0.637-7.489-0.946c5.433-8.517,11.868-17.466,19.373-24.273c2.154,3.871,6.271,6.965,9.166,10.135
	c3.8,4.163,6.539,8.467,7.63,13.794c-1.222-0.025-2.445-0.045-3.667-0.053c-1.431-0.009-4.681,1.957-3.029,3.64
	c4.268,4.348,8.928,8.988,10.892,14.855c-2.176,0.275-4.344,0.609-6.544,0.71c-1.472,0.066-4.813,1.674-3.811,3.692
	c2.139,4.305,4.312,8.589,6.371,12.933c1.316,2.776,2.593,5.575,3.717,8.435c0.182,0.462,0.328,0.92,0.457,1.383
	c-0.158,0.273-0.235,0.571-0.182,0.889c0.5,2.98,4.078,3.696,6.117,1.309c1.953-2.286,0.629-4.512-0.362-6.955
	c-1.006-2.481-2.121-4.918-3.288-7.333c1.749-0.183,3.674-1.064,4.496-1.899c-1.221,0.382-1.133,0.346,0.264-0.11
	c0.988-0.429,1.92-1.104,2.517-2.014c1.274-1.943,1.652-5.131,2.243-7.369c0.835-3.164,1.222-6.103,1.062-9.136
	c1.378-1.02,2.38-2.344,2.467-3.777c0.948-15.647,11.688-29.437,20.472-41.795c1.465-2.061,0.637-3.316-0.923-3.876
	c0.866-0.814,1.724-1.635,2.563-2.471c1.35-1.346-0.795-1.882-1.833-1.229c-5.888,3.713-11.859,7.171-17.624,10.875
	c-8.673,4.383-16.417,10.654-22.254,18.422c-0.761-1.071-1.566-2.118-2.418-3.137c-3.432-4.103-7.673-8.868-12.25-11.924
	c0.335-0.48-0.401-0.766-0.956-0.619c-0.101-0.061-0.2-0.135-0.301-0.195c-0.629-0.369-2.071,0.353-1.763,1.168
	c0.037,0.098,0.083,0.191,0.123,0.288c-10.117,7.093-17.801,16.498-24.504,26.924c-0.901,1.403,0.275,2.25,1.601,2.324
	c2.28,0.126,4.494,0.619,6.734,0.957c-2.006,2.695-4.596,4.816-7.117,7.104c-1.002,0.909-1.923,1.866-2.782,2.862
	c-1.235-0.83-2.453-1.681-3.647-2.575c-1.483-1.111-2.881-2.313-4.293-3.512c-1.323-1.123-3.275-2.4-4.297-3.804
	c-0.124-0.17-0.319-0.242-0.536-0.262c0.908-0.787,1.811-1.572,2.697-2.357c1.006-0.892-0.572-1.334-1.298-0.87
	c-11.389,7.279-22.096,15.643-29.855,26.939c-1.004,1.461,0.334,2.365,1.683,2.443c2.178,0.126,4.295,0.588,6.433,0.931
	c-3.013,4.391-5.729,9.198-9.365,13C78.449,436.519,78.233,438.701,80.344,438.903z M167.031,413.817
	c0.67-0.102,1.34-0.203,2.011-0.3c-0.02,0.134-0.034,0.27-0.051,0.404c-0.364,0.472-0.762,0.929-1.195,1.369
	C167.541,414.799,167.286,414.308,167.031,413.817z M169.188,385.737c0.152-0.023,0.298-0.067,0.448-0.1
	c-0.089,0.18-0.188,0.354-0.275,0.535C169.3,386.028,169.25,385.879,169.188,385.737z M173.787,400.29
	c-0.045,0.715-0.075,1.434-0.072,2.16c0.001,0.308,0.04,0.584,0.098,0.841c-0.013,0.01-0.024,0.02-0.036,0.03
	c-0.441-0.798-0.919-1.574-1.428-2.33C172.851,400.795,173.335,400.56,173.787,400.29z"/>
<path d="M386.75,381.369c-4.168,5.454-7.237,11.746-10.138,17.944c-1.526,3.262-2.926,6.582-4.302,9.91
	c-1.3,3.143-3.5,6.838-3.187,10.296c-0.063,0.295-0.008,0.609,0.231,0.918c3.933,5.09,10.478,6.923,16.683,7.154
	c6.293,0.233,14.395-0.161,19.781-3.833c0.923-0.629,0.875-1.798-0.389-1.799c-5.153-0.003-10.292,1.847-15.499,2.047
	c-6.112,0.236-12.121-1.239-16.832-5.169c3.331-4.675,4.643-11.198,6.755-16.457c2.774-6.906,6.327-13.433,9.272-20.248
	c1.803,1.374,3.533,2.847,5.038,4.545c1.234,1.393,2.186,3.822,3.712,5.077c-0.311,3.148-0.53,6.307-0.718,9.463
	c-0.168,2.827-1.228,6.877,0.576,9.243c0.576,0.755,2.155,0.016,2.515-0.609c1.243-2.164,0.876-4.376,0.909-6.837
	c0.052-3.902,0.268-7.802,0.529-11.695c0.263-0.625,0.292-1.255,0.156-1.877c0.513-6.71,1.36-13.351,2.537-19.968
	c5.061,5.989,8.628,12.473,11.195,20.02c1.358,3.996,2.362,8.109,3.268,12.227c0.783,3.56,0.668,8.497,2.823,11.482
	c0.833,1.154,3.352-0.125,3.625-1.217c0.851-3.414-0.746-7.549-1.507-10.948c-1.123-5.006-2.593-9.934-4.368-14.745
	c-2.805-7.6-6.965-16.156-14.454-20.033c0.037-0.192,0.066-0.386,0.104-0.579c0.284-1.441-2.099-0.879-2.422,0.104
	c-2.021,6.16-3.113,12.615-3.953,19.056c-0.082-0.085-0.165-0.171-0.243-0.253c-2.283-2.393-5.069-4.16-8.174-5.251
	c-0.742-0.261-2.907,0.646-2.654,1.5C387.234,380.981,386.898,381.175,386.75,381.369z"/>
<path d="M221.257,417.88c-2.947-4.414-5.92-8.81-8.857-13.23c-1.415-2.13-2.816-6.747-5.856-6.607
	c-6.989,0.321-10.602,9.461-13.539,14.921c-4.283,7.961-7.321,16.456-10.844,24.753c-0.432,1.018,1.536,0.739,1.888,0.112
	c6.741-11.993,11.437-25.439,20.43-36.015c7.665,13.885,18.402,26.147,24.438,40.884c-4.981,0.697-9.477,3.296-13.747,6.303
	c-1.408,0.991-0.731,2.431,0.92,2.121c5.226-0.981,10.226-4.434,15.6-3.912c1.573,0.153,5.368-1.195,4.337-3.471
	C231.907,434.637,226.797,426.178,221.257,417.88z"/>
<path d="M416.007,417.011c-1.774-1.108-4.167-0.8-6.183-0.739c-3.096,0.094-6.128,0.327-9.209,0.624
	c-1.11,0.106-3.343,2.297-1.235,2.516c4.954,0.515,11.2,1.805,15.916-0.172C416.18,418.869,417.106,417.697,416.007,417.011z"/>
<path d="M480.391,427.001c-2.308-0.854-5.093,0.076-7.447,0.425c-4.49,0.666-8.948,1.309-13.482,1.599
	c-8.118,0.52-14.874-0.389-22.018-4.2c-0.563-0.3-1.896,0.305-1.593,1.056c2.506,6.217,13.117,6.463,18.591,6.618
	c4.757,0.135,9.572-0.438,14.279-1.06c3.603-0.476,8.407-0.634,11.437-2.847C480.601,428.27,481.245,427.317,480.391,427.001z"/>
<path d="M556.567,431.657c-0.178-0.047-0.362-0.074-0.545-0.104c2.194-6.243,0.379-14.28-1.146-20.427
	c-2.017-8.128-6.487-15.583-12.411-21.454c-0.778-0.771-1.984-0.693-3.034-0.282c-0.126-2.982-1.524-5.751-3.234-9.136
	c-2.89-5.723-6.291-11.187-9.774-16.563c-7.235-11.166-15.233-21.817-22.676-32.842c-7.523-11.144-14.353-22.483-22.729-33.056
	c-8.537-10.774-18.959-20.634-26.238-32.3c-4.133-6.625-7.906-14.081-13.939-19.219c-2.768-2.357-6.078-4.01-9.478-5.228
	c-2.155-0.771-4.391-1.354-6.615-1.883c-1.255-0.298-6.082-0.77-6.33-1.085c-6.507-8.3-10.932-18.407-16.717-27.225
	c-4.337-6.611-10.026-13.73-17.675-16.521c-0.08-1.476-1-2.695-3.239-2.853c-5.861-0.413-10.648,2.265-15.618,4.935
	c-6.135,3.296-12.019,6.911-17.664,10.996c-5.329,3.857-10.475,8.127-15.25,12.65c-1.082,1.024-2.336,2.222-3.557,3.54
	c-2.187-3.239-4.419-6.446-6.727-9.597c-3.498-4.775-7.387-9.244-11.547-13.451c-4.763-4.817-10.459-8.394-15.681-12.65
	c-6.42-5.233-8.234-10.207-9.999-18.039c-1.215-5.389-2.741-10.784-5.331-15.683c-2.601-4.92-6.807-8.726-9.612-13.497
	c-4.24-7.21-12.321-12.857-18.512-18.473c-7.138-6.475-14.604-12.513-22.797-17.613c-5.069-3.156-11.38-6.1-17.137-3.777
	c-0.175-0.153-0.369-0.292-0.599-0.399c-2.213-1.022-4.894,0.104-6.572,1.602c-11.816,10.537-22.115,23.448-30.834,36.629
	c-8.046,12.166-15.133,26.091-19.69,40.124c-5.974,1.392-11.93,2.999-17.281,6.029c-6.15,3.482-10.083,9.099-13.081,15.342
	c-9.604,19.999-12.565,42.377-21.422,62.617c-25.247,11.813-38.391,38.286-48.646,62.919c-6.016,14.451-12.444,28.344-19.825,42.166
	c-4.248,7.953-8.374,15.976-11.961,24.252c-2.247,5.185-4.009,10.543-5.726,15.913c-2.318,1.415-4.2,3.519-4.52,5.676
	c-0.269,1.816-0.672,3.529-0.344,5.352c0.501,2.786,2.894,4.366,5.774,4.005c0.454-0.057,0.907-0.113,1.361-0.17
	c2.757-0.345,6.738-1.752,8.465-4.401c0.073,0.042,0.143,0.09,0.217,0.129c0.731,1.404,2.347,2.451,4.729,2.506
	c3.066,0.071,6.114,0.427,9.166,0.739c3.021,0.599,6.079,0.917,9.169,0.914c0.077,0.045,0.152,0.091,0.233,0.13
	c-0.198,1.416-0.411,2.826-0.613,4.225c-0.76,5.283,7.151,3.775,11.116,1.266c2.964,4.172,8.923,2.805,12.669-0.361
	c1.796-1.518,2.687-3.661,3.597-5.772c1.521-3.529,3-6.824,4.954-10.153c6.054-10.318,10.927-21.292,15.944-32.16
	c2.565-2.118,4.717-4.724,7.042-7.242c4.063-4.4,8.202-8.731,12.379-13.023c7.747-7.957,15.745-15.665,23.892-23.209
	c15.037-13.926,33.62-27.659,40.719-47.592c0.366-1.028-1.476-0.689-1.813-0.108c-5.318,9.179-13.793,16.184-21.553,23.222
	c-4.783,4.338-9.823,8.4-14.842,12.493c-0.087,0.029-0.175,0.057-0.256,0.092c-4.274,1.826-8.028,4.13-11.958,5.862
	c-1.667-0.176-3.28-0.558-4.884-1.289c-0.425-0.194-0.81-0.409-1.175-0.635c6.569-12.377,12.608-25.042,17.72-38.092
	c4.618-11.789,7.477-23.403,9.469-35.888c2.005-12.572,5.527-24.15,12.479-34.927c5.774-8.949,14.183-16.141,20.484-24.758
	c2.439-3.336,4.81-7,6.009-10.989c0.667-2.22,0.496-4.691-0.062-7.163c0.255-0.173,0.517-0.337,0.771-0.514
	c5.45-3.784,15.171-12.09,11.278-19.775c-0.702-1.385-2.985-0.453-3.611,0.523c-3.102,4.839-6.879,8.431-11.228,11.607
	c-0.171-0.424-0.339-0.841-0.498-1.241c-2.095-5.299-3.518-10.077-3.226-15.848c0.172-3.405,1.021-6.862,1.715-10.196
	c0.51-2.446,1.005-5.189,1.711-7.739c6.829-9.477,14.68-18.086,21.893-27.292c0.346,0.014,0.726-0.023,1.134-0.123
	c1.351-0.33,4.388,1.686,5.653,2.403c3.708,2.105,6.981,5.057,10.109,7.922c7.03,6.438,13.633,13.387,20.097,20.387
	c5.927,6.419,10.054,13.58,15.395,20.482c6.068,7.842,6.444,17.983,9.499,27.036c3.052,9.044,12.593,14.285,19.566,19.886
	c9.84,7.904,17.948,17.44,25.089,27.8c7.4,10.736,14.236,21.892,21.432,32.759c7.048,10.645,12.553,22.384,21.229,31.882
	c3.751,4.106,8.336,7.377,12.798,10.651c5.576,4.09,10.375,8.423,15.422,13.124c11.016,10.26,20.562,22.151,28.805,34.718
	c7.192,10.964,14.639,23.114,18.9,35.577c1.484,4.339,0.98,9.278,3.196,13.358c1.367,2.517,3.684,3.279,6.126,3.026
	c-2.92,4.601-4.878,9.521-4.286,15.04c0.144,1.339,2.564,0.642,2.744-0.385c1.923-11.028,9.752-18.623,16.26-27.112
	c2.288,3.975,4.943,7.735,7.435,11.585c3.178,4.911,5.328,10.725,8.933,15.29c0.804,1.018,2.964-0.214,3.002-1.303
	c0.208-5.9-3.523-11.52-6.626-16.291c-3.225-4.959-6.703-9.704-9.534-14.912c-0.982-1.806-3.975-0.652-4.828,0.7
	c-1.438,2.279-3.209,4.543-5.065,6.836c-0.073-0.061-0.142-0.124-0.22-0.18c-0.295-0.737-0.531-1.441-0.928-2.157
	c-1.154-2.079-2.197-4.248-3.248-6.381c-2.761-5.604-5.484-11.227-8.324-16.795c-6.465-12.676-14.252-24.625-22.745-36.026
	c-4.645-6.235-9.727-12.283-15.091-18.051c0.836-1.202,1.225-2.575,0.85-3.976c-2.055-7.665-5.13-14.966-10.82-20.657
	c-4.228-4.229-9.367-3.324-13.585-0.457c-0.563-2.773-1.428-5.439-2.451-8.049c1.03-2.633,0.261-6.005,1.115-8.695
	c1.97-6.204,8.71-11.553,12.908-16.322c0.955-1.084-0.581-1.46-1.405-0.942c-6.099,3.836-12.664,6.567-17.759,11.862
	c-0.225,0.233-0.48,0.529-0.754,0.868c-1.888-4.314-3.511-8.726-4.164-13.486c-2.334-17.005,1.883-36.448,9.786-51.498
	c0.931-1.772,0.851-2.953,0.195-3.678c1.134-0.389,2.262-0.821,3.402-1.366c6.08,5.176,10.121,13.231,13.94,19.909
	c2.518,4.403,4.863,8.905,7.313,13.346c2.121,3.845,4.337,9.337,7.54,12.409c2.711,2.601,9.509,2.362,13.094,3.494
	c3.228,1.019,6.22,2.497,8.801,4.688c5.832,4.949,9.385,12.611,13.397,18.963c6.952,11.007,16.927,20.444,25.129,30.551
	c8.366,10.31,15.129,21.463,22.601,32.383c7.216,10.547,14.972,20.714,22.148,31.29c3.629,5.348,7.052,10.831,10.164,16.496
	c2.688,4.893,3.941,9.749,8.948,12.235c-2.634,3.338-4.894,6.96-6.753,10.816c-2.536,5.258-5.344,14.508-0.458,19.231
	c0.89,0.86,2.871-0.111,2.927-1.27c0.296-6.074-0.288-10.941,2.068-16.836c1.982-4.96,5.179-9.51,8.988-13.303
	c4.292,5.125,7.341,10.78,9.268,17.299c1.116,3.775,1.554,7.708,1.815,11.62c0.175,2.627-0.208,5.443,0.344,8.021
	c-0.314,0.056-0.625,0.109-0.927,0.158c-3.853,0.616-7.717,1.072-11.615,1.255c-6.087,0.287-16.175,0.066-19.717-6.08
	c-0.75-1.3-3.723-0.052-3.114,1.352c3.127,7.204,10.817,8.423,17.996,8.792c6.665,0.342,17.769,0.467,23.379-3.825
	C557.366,432.99,557.734,431.962,556.567,431.657z M169.121,193.807c0.097,0.024,0.197,0.044,0.298,0.062
	c-0.312,0.417-0.63,0.831-0.957,1.242C168.68,194.675,168.9,194.241,169.121,193.807z M150.293,190.071
	c-0.007-0.022-0.015-0.044-0.022-0.067c0.026-0.007,0.052-0.014,0.078-0.021C150.331,190.013,150.312,190.042,150.293,190.071z
	 M56.449,347.064c-0.409,0.627-0.814,1.255-1.217,1.886c0.354-0.73,0.701-1.463,1.046-2.197
	C56.33,346.862,56.386,346.966,56.449,347.064z M36.962,384.458c-0.117,0.036-0.233,0.074-0.348,0.112
	c0.48-0.95,0.962-1.895,1.442-2.824C37.683,382.647,37.319,383.551,36.962,384.458z M177.204,152.509
	c-0.273,1.508-0.405,3.001-0.426,4.482c-0.107-0.828-0.526-1.385-1.145-1.711c0.565-1.263,1.157-2.519,1.767-3.771
	C177.333,151.842,177.264,152.173,177.204,152.509z"/>
<path d="M329.491,415.792c-14.754,9.9-21.799,33.236-19.72,50.258c0.188,1.534,2.678,0.476,2.829-0.663
	c1.986-14.977,4.44-34.923,16.829-45.412c6.678,13.817,17.777,25.898,20.293,41.362c-9.113,0.033-19.081,0.255-27.579,2.951
	c-1.021,0.324-3.307,2.703-0.95,2.905c4.879,0.417,9.771-0.542,14.622-1.028c5.38-0.54,10.778-0.871,16.185-0.935
	c1.188-0.014,3.377-1.073,3.223-2.556c-1.778-17.157-13.865-32.213-22.301-46.695C332.218,414.77,330.461,415.141,329.491,415.792z"
	/>
<path d="M303.166,415.053c-12.496,7.06-14.042,26.384-14.168,39.1c-0.017,1.7,2.404,1.507,3.411,1.063
	c1.663-0.735,2.934-0.837,4.709-0.927c2.489-0.125,4.973-3.83,1.306-3.965c-1.436-0.053-2.754,0.075-4.045,0.36
	c0.239-12.171,2.304-25.075,10.466-34.505C305.998,414.848,304.151,414.496,303.166,415.053z"/>
<path d="M310.559,416.158c-0.822-1.558-4.342-0.04-3.626,1.574c0.697,1.572,1.259,3.192,1.792,4.827
	c0.626,1.919,0.933,3.948,2.701,5.1c0.747,0.487,2.101-0.264,2.348-1.019c0.582-1.771-0.187-3.441-0.836-5.117
	C312.23,419.698,311.472,417.891,310.559,416.158z"/>
</svg>
