<?xml version="1.0" encoding="utf-8"?>
<!-- Generator: Adobe Illustrator 17.0.0, SVG Export Plug-In . SVG Version: 6.00 Build 0)  -->
<!DOCTYPE svg PUBLIC "-//W3C//DTD SVG 1.0//EN" "http://www.w3.org/TR/2001/REC-SVG-20010904/DTD/svg10.dtd">
<svg version="1.0" id="Layer_1" xmlns="http://www.w3.org/2000/svg" xmlns:xlink="http://www.w3.org/1999/xlink" x="0px" y="0px"
	 width="566.93px" height="566.93px" viewBox="0 0 566.93 566.93" enable-background="new 0 0 566.93 566.93" xml:space="preserve">
<path d="M178.775,379.156c2.295,4.246,6.932,7.699,10.059,11.103c4.385,4.775,7.593,9.671,8.882,15.772
	c-1.298-0.028-2.597-0.051-3.896-0.06c-1.732-0.012-5.663,2.367-3.664,4.404c4.33,4.415,9.081,9.144,11.591,14.89
	c-0.258,0.652-0.528,1.299-0.816,1.938c-1.86,0.25-3.721,0.492-5.604,0.565c-1.786,0.07-5.819,2.032-4.611,4.469
	c2.34,4.716,4.721,9.41,6.982,14.166c1.378,2.898,2.712,5.818,3.94,8.784c0.386,0.932,0.849,1.915,1.064,2.916
	c-0.14,0.291-0.207,0.606-0.168,0.941c0.46,3.909,4.822,3.964,7.328,1.501c2.186-2.148,1.029-4.922-0.063-7.369
	c0.052-0.032,0.111-0.064,0.156-0.097c3.589-2.595,3.46-8.88,3.831-13.012c0.088-0.114,0.189-0.218,0.268-0.338
	c1.457-2.221,1.868-5.87,2.53-8.43c0.352-1.363,0.631-2.686,0.834-3.991c0.856-2.587,1.507-5.272,2.124-7.864
	c0.707-0.89,1.166-1.875,1.227-2.906c0.058-0.975,0.155-1.943,0.278-2.906c3.289-10.807,9.809-20.837,14.951-30.773
	c2.822-5.453,6.422-10.499,9.64-15.719c2.696-4.375,6.482-10.846,5.721-16.163c-0.225-1.576-2.569-0.745-3.142,0.14
	c-2.046,3.159-3.673,6.552-5.579,9.795c-6.269,3.878-12.604,7.525-18.743,11.4c-10.081,4.953-19.15,12.161-25.92,21.1
	c-0.679-0.936-1.379-1.858-2.115-2.754c-3.9-4.748-8.95-10.586-14.328-14.019c0.246-0.499-0.506-0.797-1.129-0.681
	c-0.124-0.07-0.247-0.147-0.371-0.215c-0.792-0.431-2.465,0.408-2.133,1.414c0.035,0.105,0.081,0.207,0.119,0.311
	c-11.508,8.095-20.26,18.638-27.909,30.545c-1.086,1.691,0.328,2.732,1.937,2.812c2.514,0.125,4.956,0.681,7.424,1.066
	c-2.339,3.093-5.383,5.523-8.27,8.177c-0.968,0.89-1.873,1.819-2.721,2.786c-1.342-0.9-2.667-1.822-3.966-2.792
	c-1.688-1.26-3.279-2.626-4.891-3.981c-1.506-1.266-3.78-2.698-4.95-4.277c-0.114-0.155-0.275-0.247-0.459-0.295
	c0.965-0.866,1.93-1.744,2.894-2.604c1.217-1.086-0.692-1.609-1.57-1.053c-12.986,8.236-25.251,17.724-34.055,30.615
	c-1.205,1.764,0.395,2.87,2.037,2.956c2.395,0.125,4.723,0.645,7.072,1.036c-3.362,4.938-6.403,10.38-10.529,14.562
	c-1.375,1.393-1.595,4.073,0.941,4.298c4.315,0.382,3.432,5.948,8.896,4.864c1.143-0.227,2.764-1.173,3.047-2.417
	c0.817-3.588-1.929-6.17-5.057-7.475c3.06-5.344,6.935-10.517,10.485-15.431c1.311-1.814-0.457-2.988-2.118-3.074
	c-2.478-0.128-4.911-0.594-7.366-0.933c3.575-5.119,7.941-9.521,12.566-13.766c3.515-3.227,7.067-6.452,10.622-9.658
	c0.619,1.726,0.816,2.983,1.954,4.624c1.267,1.827,2.867,3.292,4.517,4.767c1.56,1.394,3.235,2.65,4.838,3.993
	c0.479,0.401,0.928,0.811,1.376,1.199c-0.777,1.325-1.479,2.706-2.083,4.161c-0.501,1.207,0.543,2.088,1.599,2.319
	c5.563,1.221,7.413,4.101,5.732,9.467c-0.191,0.612-0.417,1.195-0.663,1.762c-0.997-1.539-2.175-2.855-3.253-3.665
	c-1.004-0.754-4.344,0.362-3.378,1.837c1.21,1.848,2.082,3.894,2.471,6.071c0.129,0.721,0.135,1.565,0.158,2.42
	c-1.023,1.518-2.014,3.062-2.786,4.789c-0.737,1.65,0.782,3.221,2.348,3.407c1.701,0.202,2.375,2.261,4.052,2.971
	c1.696,0.718,3.779-0.012,5.05-1.23c3.176-3.045,1.754-6.321-1.2-7.957c0.51-1.878,0.825-3.752,1.737-5.65
	c1.286-2.674,2.559-5.548,2.883-8.53c0.612-5.628-2.895-8.518-7.548-9.986c0.071-0.139,0.154-0.268,0.228-0.405
	c1.377-0.316,2.886-1.143,2.715-2.566c-0.051-0.426-0.148-0.773-0.278-1.077c4.409-5.504,10.679-9.39,14.134-15.802
	c0.96-1.782-0.216-2.785-1.989-2.887c-2.54-0.146-5.03-0.638-7.546-0.983c3.269-4.951,6.84-9.65,10.376-14.428
	C170.686,387.772,174.673,382.987,178.775,379.156z M207.955,456.274C208.041,456.261,208.034,456.266,207.955,456.274
	L207.955,456.274z"/>
<path d="M509.946,442.128c0.198,1.616,3.098,0.783,3.32-0.466c1.365-7.659,5.244-13.852,9.739-19.717
	c0.821-0.719,1.555-1.52,2.166-2.381c0.29-0.409,0.514-0.823,0.687-1.237c1.915-2.368,3.862-4.724,5.724-7.138
	c2.421,4.179,5.206,8.147,7.842,12.192c3.752,5.758,6.302,12.876,10.711,18.083c1.029,1.216,3.541-0.251,3.633-1.577
	c0.45-6.434-3.732-12.811-7.085-18.009c-3.764-5.834-7.887-11.383-11.208-17.497c-1.186-2.183-4.813-0.793-5.841,0.847
	c-1.244,1.984-2.722,3.963-4.298,5.958c-0.008-0.076-0.008-0.152-0.021-0.229c-4.167-24.618-17.309-46.825-32.18-66.503
	c-6.414-8.488-12.79-17.13-19.845-25.099c-6.878-7.769-14.751-14.351-25.232-15.272c-4.32-3.526-8.95-6.619-13.105-10.368
	c-9.572-8.637-15.512-20.533-22.071-31.429c-6.754-11.219-14.452-21.833-21.182-33.089c-6.391-10.691-13.081-21.238-21.044-30.842
	c-3.822-4.609-7.99-8.99-12.561-12.859c-4.966-4.204-10.482-7.655-15.352-11.984c-8.39-7.456-8.509-18.889-11.947-29.374
	c-2.499-7.62-7.625-13.348-12.354-19.62c-2.018-2.676-2.993-5.716-5.566-7.964c-1.94-1.695-3.867-3.404-5.801-5.105
	c-10.142-8.921-19.627-18.342-30.773-26.068c-7.077-4.906-17.242-12.273-26.173-8.691c-0.179-0.138-0.376-0.262-0.597-0.364
	c-2.688-1.242-5.908,0.136-7.953,1.938c-13.535,11.928-25.289,26.725-35.215,41.748c-9.071,13.73-17.148,29.451-22.35,45.286
	c-6.782,1.596-13.52,3.46-19.599,6.917c-7.267,4.133-11.619,10.76-15.21,18.074c-11.003,22.408-14.104,47.708-24.012,70.51
	c-28.631,13.49-43.636,43.635-55.285,71.617c-1.194,2.87-2.409,5.714-3.634,8.548c-3.705,1.783-7.127,4.232-9.931,6.76
	c-7.376,6.649-13.373,14.664-18.051,23.401c-5.753,10.746-9.497,22.436-15.366,33.124c-5.199,9.467-10.577,19-7.932,30.101
	c0.639,2.684,3.706,2.679,6.498,1.834c-0.064,0.827-0.055,1.659,0.111,2.521c0.643,3.342,3.474,5.313,6.987,4.847
	c0.517-0.069,1.033-0.138,1.55-0.206c3.263-0.434,7.474-1.905,9.712-4.705c0.963,1.522,2.85,2.621,5.532,2.678
	c3.633,0.077,7.242,0.521,10.859,0.889c3.176,0.564,6.371,0.853,9.609,0.871c0.073,0.046,0.151,0.086,0.228,0.128
	c-0.222,1.565-0.459,3.122-0.682,4.664c-0.474,3.292,3.997,4.504,6.35,4.404c2.149-0.091,4.734-0.876,6.762-2.247
	c3.259,3.853,9.161,2.811,13.466,0.033c5.479-3.535,6.723-11.777,9.79-17.113c7.183-12.499,13.146-25.526,19.253-38.564
	c2.982-2.438,5.458-5.508,8.129-8.402c4.476-4.848,9.031-9.624,13.628-14.356c8.972-9.234,18.237-18.181,27.683-26.929
	c15.642-14.486,34.696-28.919,43.734-48.752c1.027-1.305,1.975-2.671,2.841-4.069c2.691-4.344,2.762-8.045,3.629-12.805
	c0.419-2.299-3.078-1.174-3.688,0.159c-1.759,3.84-5.227,8.058-7.96,11.29c-2.519,2.979-5.579,5.354-8.863,7.42
	c-6.385,4.017-13.899,5.979-21.123,7.879c-4.546,1.195-9.104,2.374-13.599,3.685c5.55-12.035,10.815-24.482,14.064-37.308
	c2.816-11.12,3.728-22.604,6.443-33.741c2.858-11.72,8.136-23.282,16.111-32.399c7.051-8.062,14.498-15.888,20.51-24.783
	c2.064-3.053,4.953-7.214,5.2-11.02c0.15-2.315-0.041-4.551-0.451-6.741c0.213-0.146,0.432-0.282,0.644-0.429
	c6.193-4.28,17.988-14.179,13.05-22.972c-0.922-1.642-3.559-0.576-4.369,0.633c-3.507,5.236-7.703,9.213-12.461,12.716
	c-0.026-0.067-0.051-0.135-0.078-0.202c-0.828-2.093-1.587-4.112-2.229-6.13c0.162-0.755,0.345-1.495,0.552-2.214
	c0.652-1.656,1.29-3.316,1.877-4.996c1.664-3.543,3.875-6.783,6.52-10.099c3.896-4.885,8.144-8.882,9.583-14.987
	c0.387-0.581,0.739-1.177,1.027-1.801c0.344-0.748-0.578-1.27-1.202-1.192c-6.206,0.771-11.761,5.603-16.515,9.345
	c-0.575,0.452-1.139,0.912-1.702,1.373c0.473-2.446,0.944-5.136,1.585-7.687c7.835-10.964,16.906-20.875,25.171-31.533
	c0.336-0.011,0.688-0.046,1.07-0.138c-0.603,0.145,0.602,0.269,1.523,0.505c1.137,0.292,2.225,0.955,3.253,1.503
	c3.519,1.876,6.64,4.378,9.663,6.959c7.296,6.232,13.989,13.348,20.571,20.318c2.873,3.042,5.747,6.093,8.443,9.294
	c1.095,1.301,2.188,2.604,3.283,3.904c1.424,1.692,1.859,2.992,2.939,4.91c2.424,4.303,5.96,7.793,8.75,11.829
	c3.576,5.174,5.338,11.299,6.918,17.313c1.476,5.616,2.379,10.824,4.882,15.707c-0.363-0.055-0.722-0.108-1.073-0.158
	c-5.497-0.78-10.969-1.169-16.35-2.625c-8.094-2.189-16.995-5.728-24.311-9.777c-1.116-0.618-3.78,0.651-3.668,1.958
	c-0.292,0.216-0.519,0.486-0.588,0.795c-2.196,9.752,9.421,20.52,16.065,26.082c7.401,6.196,18.858,12.481,29.115,11.697
	c3.028,1.555,6.11,2.99,9.25,4.292c13.985,8.464,28.289,16.158,40.874,26.58c-10.477-2.258-21.028-2.338-31.676-3.54
	c-1.634-0.185-4.549,2.405-1.953,2.979c0.495,0.109,0.99,0.234,1.485,0.348c-0.218,0.373-0.196,0.755,0.35,0.988
	c10.242,4.372,19.533,11.098,28.908,17.055c6.359,4.041,12.676,8.055,18.711,12.579c6.699,5.022,13.226,10.553,18.705,16.907
	c2.164,2.509,3.151,5.895,5.267,8.29c0.532,0.603,1.154,1.026,1.826,1.309c0.042,0.059,0.083,0.118,0.125,0.176
	c-5.181-2.338-10.412-4.565-15.707-6.654c-20.256-7.989-39.102-18.79-58.535-28.544c-1.23-0.618-4.673,1.275-3.112,2.514
	c16.355,12.979,33.29,24.245,52.479,32.691c10.117,4.454,19.836,9.726,29.428,15.208c4.614,2.637,9.174,5.366,13.788,8.005
	c4.26,2.437,8.279,5.776,13.311,5.42c1.042,0.904,2.068,1.829,3.052,2.811c2.238,2.233,4.47,4.464,6.683,6.709
	c-3.574-0.768-7.186-1.356-10.804-1.747c-7.987-0.861-15.979-0.318-23.961-1.357c-9.672-1.26-19.038-4.265-28.223-7.448
	c-1.886-0.653-5.787,1.27-5.358,3.101c-1.026,0.968-1.577,2.17-1.016,3.328c4.764,9.82,15.86,15.497,24.667,21.113
	c9.448,6.025,19.249,11.068,29.325,15.734c0.187,1.015,0.923,1.998,2.411,2.854c8.915,5.13,17.957,10.021,27.184,14.542
	c-1.975,6.399-3.119,13.065-3.998,19.721c-0.015-0.016-0.031-0.032-0.046-0.048c-2.614-2.724-5.796-4.731-9.353-5.947
	c-0.877-0.3-3.444,0.736-3.218,1.767c-0.425,0.173-0.789,0.392-0.956,0.603c-5.214,6.6-8.893,14.514-12.382,22.126
	c-1.486,3.241-2.865,6.53-4.22,9.828c-2.453-6.169-8.182-12.183-12.804-16.743c-6.5-6.413-14.225-11.613-22.065-16.229
	c-7.625-4.489-16.18-7.828-24.607-10.446c-7.111-2.209-15.339-4.491-22.865-3.695c-1.987,0.21-8.341,3.385-5.102,6.131
	c3.234,2.742,6.329,5.626,9.461,8.479c-1.894,2.303-2.143,4.942,1.254,6.706c2.062,1.07,4.136,2.178,6.205,3.321
	c5.407,3.217,10.224,6.972,14.735,11.089c0.417,0.637,0.819,1.285,1.191,1.956c0.318,0.574,0.954,0.763,1.625,0.697
	c2.209,2.141,4.361,4.361,6.486,6.642c-1.764-0.162-3.485-0.412-4.907-1.616c-1.86-1.576-4.683-1.82-7.363-1.131
	c-1.21-1.295-2.445-2.487-3.591-3.521c-4.406-3.978-9.425-7.149-15.13-8.833c-1.927-0.569-7.118,2.406-4.676,4.575
	c5.902,5.243,11.648,12.224,14.065,19.914c-0.211,0.293-0.384,0.601-0.533,0.916c-2.018-2.314-4.601-3.73-8.228-3.266
	c-0.557,0.071-2.6,1.047-2.504,1.947c-13.388,8.305-15.082,29.885-15.214,43.913c-0.019,2.057,2.909,1.824,4.128,1.286
	c1.855-0.82,3.266-0.926,5.249-1.031c3.007-0.16,6.021-4.621,1.579-4.798c-1.572-0.063-3.026,0.058-4.446,0.355
	c0.27-13.338,2.545-27.34,10.977-37.971c0.876,0.557,1.708,1.15,2.439,2.014c1.56,1.841,2.249,4.475,2.956,6.725
	c1.356,4.315,2.439,8.569,5.085,12.307c0.282,0.398,0.645,0.653,1.05,0.811c-0.186,0.466-0.37,0.932-0.548,1.399
	c-3.798,9.988-6.185,21.714-4.773,32.399c0.246,1.86,3.231,0.571,3.423-0.803c2.347-16.846,5.033-39.456,18.931-51.352
	c7.588,15.518,20.064,29.254,22.928,46.629c-10.52,0.035-22.02,0.326-31.761,3.605c-1.363,0.458-2.777,3.054-0.511,3.302
	c5.558,0.608,11.213-0.584,16.744-1.137c6.077-0.608,12.175-0.99,18.282-1.058c1.441-0.016,4.082-1.298,3.9-3.092
	c-1.473-14.546-9.52-27.679-17.465-40.255c3.746-0.069,8.103-2.421,9.786-5.427c0.834,0.165,1.699,0.274,2.608,0.306
	c6.548,0.23,12.922-3.269,18.658-5.998c0.695-0.331,1.435-0.754,2.148-1.25c-0.356,1.277-0.513,2.56-0.28,3.814
	c-0.023,0.306,0.057,0.625,0.296,0.942c4.292,5.671,11.497,7.766,18.343,8.142c7.314,0.401,17.045,0.003,23.258-4.394
	c1.109-0.785,1.063-2.149-0.471-2.176c-6.168-0.109-12.335,2.177-18.587,2.287c-6.533,0.114-12.903-1.598-17.95-5.743
	c1.709-2.32,2.415-5.014,3.479-7.852c1.414-3.771,2.811-7.542,4.317-11.278c3.073-7.622,7.088-14.829,10.228-22.4
	c1.98,1.543,3.886,3.189,5.548,5.075c1.375,1.561,2.471,4.365,4.209,5.779c-0.35,3.522-0.598,7.056-0.812,10.588
	c-0.181,2.99-1.571,8.317,0.707,10.623c0.839,0.85,2.492,0.064,3.042-0.737c1.66-2.418,1.058-5.431,1.099-8.269
	c0.062-4.28,0.297-8.559,0.585-12.828c0.361-0.766,0.389-1.552,0.187-2.331c0.571-7.469,1.503-14.858,2.785-22.225
	c5.415,6.546,9.371,13.551,12.217,21.726c1.792,5.147,3.089,10.473,4.209,15.802c0.754,3.586,0.559,9.216,3.03,12
	c0.369,0.415,0.89,0.561,1.447,0.523c2.577,4.221,11.22,0.319,13.649-1.821c2.191-1.93,4.528-3.823,6.358-6.103
	c0.074,0.034,0.137,0.079,0.214,0.11c1.292,0.52,2.645,0.737,3.995,0.71C511.277,430.564,509.201,436.037,509.946,442.128z
	 M186.63,312.814c4.772-1.563,9.409-3.462,13.774-5.851c-3.706,3.514-7.58,6.856-11.288,10.206
	c-5.349,4.832-10.996,9.345-16.613,13.898c-0.01,0.004-0.021,0.007-0.031,0.011c-4.854,1.979-9.094,4.588-13.529,6.563
	c-1.82-0.196-3.587-0.613-5.33-1.411c-0.455-0.208-0.872-0.434-1.266-0.67c2.701-5.013,5.34-10.06,7.875-15.163
	C168.899,317.401,178.175,315.584,186.63,312.814z M360.896,391.066c-0.213-0.187-0.425-0.375-0.635-0.564
	c0.407,0.122,0.809,0.255,1.213,0.383C361.281,390.939,361.089,391.002,360.896,391.066z"/>
<path d="M482.913,436.402c-2.165-1.511-4.854-1.199-7.399-1.117c-3.527,0.113-6.972,0.396-10.479,0.754
	c-1.331,0.136-4.056,2.76-1.495,3.045c5.599,0.623,12.882,2.185,18.178-0.208C482.357,438.586,484.019,437.175,482.913,436.402z"/>
<path d="M555.712,447.549c-2.369-1.293-6.281,0.099-8.783,0.462c-4.903,0.712-9.763,1.433-14.712,1.762
	c-4.817,0.321-9.684,0.306-14.458-0.447c-4.118-0.649-7.239-2.371-10.862-4.229c-0.701-0.359-2.265,0.358-1.927,1.278
	c2.688,7.335,15.722,7.562,21.966,7.614c5.463,0.045,10.96-0.569,16.361-1.333c3.921-0.554,9.358-0.713,12.463-3.449
	C556.306,448.728,556.399,447.924,555.712,447.549z"/>
<path d="M281.519,413.069c-7.63,7.352-14.706,16.075-18.908,25.919c-0.453-0.687-0.902-1.375-1.361-2.06
	c-3.194-4.775-6.404-9.54-9.595-14.317c-1.597-2.393-3.536-8.209-6.958-8.042c-3.149,0.154-4.568,0.58-6.626,3.083
	c-3.508,4.267-6.378,8.973-8.99,13.828c-4.898,9.105-8.354,18.812-12.352,28.313c-0.521,1.238,1.857,0.889,2.285,0.136
	c7.653-13.492,12.944-28.729,23.07-40.66c8.556,15.684,20.734,29.432,27.541,46.026c-5.58,0.868-10.641,3.862-15.385,7.252
	c-1.704,1.218-0.885,2.916,1.114,2.566c5.89-1.031,11.578-5.007,17.614-4.374c1.801,0.188,5.993-1.282,5.396-3.76
	c1.034-0.508,1.927-1.215,2.397-1.968c9.849-15.78,6.423-33.985,7.272-51.566C288.196,410.051,282.742,411.89,281.519,413.069z"/>
</svg>
