<?xml version="1.0" encoding="UTF-8" standalone="no"?><!DOCTYPE svg PUBLIC "-//W3C//DTD SVG 1.1//EN" "http://www.w3.org/Graphics/SVG/1.1/DTD/svg11.dtd"><svg width="100%" height="100%" viewBox="0 0 551 434" version="1.1" xmlns="http://www.w3.org/2000/svg" xmlns:xlink="http://www.w3.org/1999/xlink" xml:space="preserve" style="fill-rule:evenodd;clip-rule:evenodd;stroke-linejoin:round;stroke-miterlimit:1.41421;"><g id="mountain"><path d="M360.993,241.596c3.156,-2.743 5.831,-6.1 8.927,-8.943c3.703,-3.4 7.931,-6.074 12.252,-8.611c3.958,-2.325 8.118,-4.304 12.356,-6.063c3.506,-1.454 7.087,-1.898 10.392,-3.9c2.837,-1.718 4.688,-7.303 -0.208,-7.678c-4.881,-0.373 -9.863,1.77 -13.854,4.484c-4.404,2.996 -9.186,5.373 -13.532,8.516c-4.51,3.261 -8.845,6.895 -12.894,10.71c-2.949,2.78 -7.098,6.956 -7.302,11.262c-0.098,2.055 3.129,0.862 3.863,0.223Z" style="fill-rule:nonzero;"/><path d="M400.521,212.75c5.797,4.581 9.424,11.046 13.067,17.344c4.084,7.06 7.701,14.338 12.083,21.227c1.848,2.905 7.378,2.787 10.484,3.576c2.731,0.694 5.398,1.904 7.611,3.65c5.263,4.149 8.364,11.088 11.879,16.616c5.742,9.034 14.069,16.808 20.799,25.14c6.882,8.521 12.409,17.803 18.616,26.787c6.024,8.719 12.451,17.15 18.358,25.95c2.985,4.447 5.767,9.022 8.274,13.755c2.305,4.349 3.243,7.709 8.462,8.907c1.23,0.283 2.718,-0.477 3.405,-1.478c2.717,-3.955 1.85,-6.806 -0.085,-10.879c-2.274,-4.788 -5.046,-9.339 -7.879,-13.811c-5.953,-9.396 -12.647,-18.303 -18.903,-27.493c-6.231,-9.154 -11.8,-18.565 -18.648,-27.307c-7.109,-9.073 -15.935,-17.318 -22.049,-27.088c-3.479,-5.559 -6.626,-11.81 -11.667,-16.15c-2.295,-1.976 -5.068,-3.353 -7.895,-4.374c-1.78,-0.644 -3.633,-1.121 -5.471,-1.565c-0.864,-0.209 -4.786,-0.425 -5.187,-0.933c-5.406,-6.853 -9.057,-15.264 -13.891,-22.537c-3.939,-5.927 -9.473,-12.541 -16.891,-13.718c-1.634,-0.258 -7.079,2.321 -4.472,4.381Z" style="fill-rule:nonzero;"/><path d="M259.323,133.432c-10.131,8.356 -18.699,19.652 -25.889,30.584c-7.187,10.926 -13.232,23.449 -17.054,35.957c2.128,-1.688 4.256,-3.375 6.384,-5.063c-12.406,2.872 -23.588,5.793 -29.672,18.004c-8.744,17.554 -10.936,37.465 -19.294,55.145c1.497,-1.451 2.995,-2.902 4.493,-4.353c-22.541,9.063 -34.043,31.561 -42.89,52.714c-5.087,12.165 -10.477,23.873 -16.691,35.521c-3.438,6.443 -6.76,12.951 -9.667,19.653c-2.932,6.76 -4.756,13.892 -7.301,20.78c3.354,-1.806 6.708,-3.61 10.063,-5.417c-0.323,-0.05 -0.646,-0.101 -0.969,-0.151c1.145,1.661 2.289,3.322 3.435,4.983c0.382,-2.078 0.277,-3.558 -0.089,-5.624c-1.126,-6.355 -12.549,-3.34 -13.403,1.881c-0.306,1.866 -0.903,3.829 -0.526,5.71c0.51,2.545 2.646,4.085 5.35,3.712c0.373,-0.052 0.746,-0.104 1.119,-0.155c3.295,-0.454 8.89,-2.561 8.638,-6.849c-0.647,-11.019 6.174,-22.675 11.106,-32.185c5.021,-9.68 10.59,-19.124 14.839,-29.186c6.983,-16.538 12.906,-34.525 25.687,-47.666c2.841,-2.922 6.177,-5.699 9.883,-7.436c2.134,-0.999 4.588,-1.674 6.552,-2.983c2.284,-1.523 3.149,-3.943 4.251,-6.333c4.715,-10.223 7.316,-21.365 10.654,-32.076c2.423,-7.773 5.015,-16.413 9.956,-23.024c0.989,-1.324 1.633,-1.409 3.781,-2.25c3.179,-1.245 7.267,-1.981 10.81,-2.845c2.468,-0.6 5.684,-2.373 6.384,-5.063c3.15,-12.104 7.077,-23.066 13.681,-33.756c6.723,-10.884 15.899,-19.733 23.123,-30.177c3.108,-4.494 -4.666,-3.765 -6.744,-2.052Z" style="fill-rule:nonzero;"/><path d="M265.401,137.139c-0.383,0.08 1.365,0.563 2.032,0.891c1.439,0.707 2.826,1.582 4.132,2.507c3.782,2.678 7.176,5.972 10.378,9.305c6.012,6.255 12.03,12.361 17.617,19.01c1.28,1.524 2.037,3.847 3.297,5.552c1.417,1.92 3.028,3.703 4.388,5.664c3.278,4.728 4.58,10.678 5.846,16.204c2.102,9.167 7.359,14.016 14.846,19.517c10.25,7.53 18.23,17.318 25.269,27.805c7.204,10.733 14.386,21.642 21.003,32.739c3.079,5.163 6.24,10.273 9.986,14.985c3.74,4.705 8.66,8.256 13.494,11.743c11.143,8.04 20.628,18.517 28.98,29.39c8.615,11.215 15.427,23.768 21.21,36.628c1.77,3.936 1.11,8.423 2.928,12.315c2.764,5.92 10.83,2.03 13.691,-1.486c2.124,-2.61 0.245,-5.745 -2.716,-6.258c-3.741,-0.648 -7.252,1.334 -9.532,4.137c-0.059,0.072 -0.117,0.145 -0.176,0.216c2.622,-1.412 5.245,-2.824 7.868,-4.236c-0.064,-0.003 -0.129,-0.006 -0.193,-0.009c1.416,0.434 2.832,0.867 4.248,1.301c0.902,0.895 -0.02,-0.32 -0.189,-0.777c-0.348,-0.927 -0.813,-1.711 -1.279,-2.588c-1.113,-2.094 -2.18,-4.2 -3.24,-6.319c-3.008,-6.003 -5.959,-12.046 -9.233,-17.914c-6.915,-12.392 -15.28,-24.165 -24.732,-34.747c-4.359,-4.881 -8.997,-9.729 -13.827,-14.143c-4.396,-4.017 -9.466,-7.143 -13.745,-11.311c-4.36,-4.245 -7.479,-9.671 -10.577,-14.851c-3.391,-5.669 -7.041,-11.092 -10.612,-16.635c-6.896,-10.703 -13.001,-21.917 -20.649,-32.119c-3.553,-4.739 -7.578,-9.23 -12.097,-13.064c-4.526,-3.842 -9.698,-6.797 -13.648,-11.303c-1.934,-2.206 -2.55,-5.296 -3.167,-8.073c-1.225,-5.504 -2.53,-11.022 -5.333,-15.967c-2.477,-4.367 -6.058,-7.947 -8.563,-12.32c-1.769,-3.088 -5.924,-5.523 -8.503,-7.936c-7.028,-6.576 -14.203,-12.924 -22.272,-18.206c-5.363,-3.51 -12.413,-7.581 -18.609,-3.524c-2.644,1.727 -1.298,4.503 1.679,3.877Z" style="fill-rule:nonzero;"/><path d="M196.355,214.987c-3.161,-8.072 -9.732,-14.969 -15.126,-21.631c-5.821,-7.189 -11.641,-15.122 -18.1,-21.684c-1.609,-1.635 -4.423,-1.059 -6.281,-0.34c-10.504,4.066 -18.28,12.024 -24.817,20.957c-4.689,6.407 -6.526,14.633 -12.908,19.676c-19.605,15.493 -34.478,34.955 -47.114,56.441c-5.804,9.869 -8.855,21.495 -16.308,30.352c-3.155,3.75 -7.323,4.834 -11.016,7.996c-3.959,3.391 -4.21,9.001 -5.103,13.749c-1.033,5.501 -3.33,10.992 -5.039,16.323c-2.187,6.822 -4.238,13.881 -7.234,20.396c-2.195,4.779 -4.511,9.501 -7.248,13.994c-2.27,3.725 -4.87,6.788 -6.135,10.82c-0.898,2.865 2.43,3.518 4.486,3.113c8.735,-1.719 13.619,-12.1 16.516,-19.683c4.474,-11.709 8.189,-23.943 12.035,-35.884c1.598,-4.961 3.041,-9.654 3.963,-14.794c0.309,-1.72 0.523,-4.164 2.293,-5.049c2.162,-1.082 4.284,-1.749 6.188,-3.332c8.764,-7.289 13.235,-18.545 17.665,-28.692c4.982,-11.416 12.696,-22.154 20.06,-32.138c7.243,-9.82 15.484,-19.645 25.35,-26.937c6.258,-4.625 10.079,-9.269 13.548,-16.174c5.017,-9.984 13.259,-19.907 23.87,-24.109c-2.094,-0.113 -4.188,-0.227 -6.281,-0.34c3.168,3.152 6.841,5.868 10.081,9.013c3.188,3.093 6.225,6.353 9.266,9.589c6.378,6.788 12.11,14.871 19.648,20.399c1.213,0.894 4.461,-0.193 3.741,-2.031Z" style="fill-rule:nonzero;"/><path d="M368.799,240.742c0.913,-2.618 1.092,-5.046 2.813,-7.335c-2.315,0.104 -4.63,0.206 -6.944,0.309c-0.269,3.619 -0.358,7.22 -0.415,10.848c-0.064,4.13 8.186,1.72 8.242,-1.934c0.071,-4.541 3.123,-9.57 5.661,-13.128c-2.658,-0.158 -5.317,-0.316 -7.976,-0.475c-2.208,7.526 -4.129,15.009 -4.363,22.888c-0.136,4.611 8.057,1.673 8.969,-1.258c2.855,-9.177 5.707,-18.74 12.005,-26.228c-2.667,-0.462 -5.335,-0.924 -8.002,-1.386c-3.95,9.48 -9.917,18.278 -9.323,28.954c0.283,5.088 9.676,1.911 9.816,-2.303c0.392,-11.659 7.247,-20.769 14.664,-29.193c-2.788,-0.483 -5.577,-0.966 -8.365,-1.449c-5.971,12.824 -13.125,24.356 -12.482,39.031c3.517,-0.825 7.034,-1.649 10.551,-2.475c-0.708,-10.123 2.059,-20.167 4.269,-29.958c-3.079,0.432 -6.157,0.863 -9.235,1.296c-1.211,7.495 -2.533,14.96 -3.277,22.521c-0.372,3.771 -0.462,7.542 -0.322,11.325c0.116,3.135 1.178,6.354 1.178,9.438c0,5.146 10.227,2.132 10.227,-2.398c0,-0.396 0,-0.791 0,-1.186c-3.344,1.111 -6.687,2.222 -10.029,3.333c0.674,1.685 1.015,3.47 2,5c2.201,3.418 10.911,0.978 10.029,-3.333c-3.764,-18.391 -3.825,-38.924 11.578,-52.091c-2.72,-0.827 -5.439,-1.655 -8.158,-2.483c-7.112,13.61 -10.054,28.337 -9.795,43.65c0.209,12.352 8.414,22.582 11.27,34.289c1.049,4.297 10.627,0.619 10.184,-3.384c-1.211,-10.937 -8.818,-19.53 -10.566,-30.306c-2.266,-13.967 1.374,-30.326 7.842,-42.703c3.009,-5.758 -5.431,-4.814 -8.158,-2.483c-17.161,14.671 -18.678,37.111 -14.422,57.909c3.344,-1.111 6.687,-2.222 10.029,-3.333c-0.984,-1.529 -1.326,-3.315 -2,-5c-1.723,-4.307 -10.029,-0.513 -10.029,3.333c0,0.395 0,0.79 0,1.186c0,5.146 10.227,2.132 10.227,-2.398c0,-3.053 -0.979,-6.343 -1.178,-9.438c-0.241,-3.749 -0.089,-7.534 0.128,-11.279c0.433,-7.492 1.671,-14.935 2.628,-22.37c0.557,-4.315 -8.572,-2.145 -9.235,1.296c-2.069,10.732 -6.567,20.915 -5.731,32.042c0.404,5.394 10.777,2.151 10.551,-2.475c-0.667,-13.676 5.875,-24.995 11.518,-36.969c2.198,-4.666 -6.582,-3.458 -8.365,-1.449c-8.926,10.057 -17.061,20.803 -17.336,34.807c3.271,-0.768 6.545,-1.535 9.816,-2.303c-0.688,-9.858 5.056,-18.267 8.677,-27.046c1.867,-4.527 -6.281,-3.445 -8.002,-1.386c-7.321,8.761 -10.859,18.945 -13.995,29.772c2.989,-0.419 5.979,-0.839 8.969,-1.258c0.059,-7.279 1.707,-14.138 3.637,-21.112c1.34,-4.841 -6.39,-2.763 -7.976,-0.475c-3.122,4.503 -6.428,10.743 -6.339,16.372c0.065,4.164 8.3,1.715 8.242,-1.934c-0.056,-3.563 -0.142,-7.099 -0.415,-10.652c-0.292,-3.807 -6.479,-1.381 -7.296,1.023c-0.952,2.805 -0.482,5.55 -0.914,8.434c-0.373,2.44 4.374,0.884 4.923,-0.69Z" style="fill-rule:nonzero;"/><path d="M245.262,156.894c-1.383,3.09 -3.525,5.731 -4.999,8.813c-1.378,2.882 -2.406,5.669 -3.108,8.787c-1.151,5.111 -0.148,10.127 1.387,15.018c1.242,3.962 4.047,8.977 1.963,13.104c-2.053,4.068 -5.33,7.655 -8.286,11.075c-6.371,7.372 -12.867,13.881 -17.383,22.66c-4.671,9.082 -6.474,18.988 -8.329,28.928c-4.478,23.989 -16.583,46.047 -28.528,67.064c-6.229,10.962 -12.04,21.932 -17.441,33.329c-2.929,6.179 -6.077,12.267 -9.492,18.19c-1.474,2.558 -3.155,4.957 -4.732,7.446c-0.964,1.522 -2.292,4.93 -3.098,5.653c2.076,-0.9 4.153,-1.803 6.229,-2.703c0.73,0.025 1.46,0.051 2.189,0.076c-3.057,-3.786 -13.333,1.248 -11.18,6.078c2.138,4.796 7.382,3.956 11.223,1.588c2.23,-1.375 3.253,-3.806 4.238,-6.1c1.309,-3.045 2.629,-5.863 4.294,-8.749c6.911,-11.973 11.968,-24.938 18.198,-37.262c12.361,-24.454 28.216,-47.276 35.862,-73.928c2.909,-10.139 3.372,-20.775 6.427,-30.878c3.312,-10.955 10.134,-18.779 17.418,-27.213c5.68,-6.575 13.053,-14.075 11.233,-23.406c-1.078,-5.529 -4.266,-10.359 -5.128,-15.951c-0.519,-3.356 0.139,-6.865 0.674,-10.164c0.582,-3.586 1.238,-8.233 2.592,-11.554c0.49,-1.199 -1.838,-0.761 -2.223,0.099Z" style="fill-rule:nonzero;"/><path d="M229.043,180.862c-0.1,8.69 -0.199,17.38 -0.299,26.07c-0.054,4.655 9.177,1.916 9.258,-2.172c0.154,-7.703 0.303,-15.407 0.473,-23.11c-3.401,0.798 -6.802,1.595 -10.203,2.393c0.931,7.313 0.855,14.714 1.865,22.032c0.745,5.4 10.503,2.086 10.473,-2.457c-0.045,-6.673 -0.131,-13.361 0.889,-19.974c-3.417,0.802 -6.833,1.603 -10.25,2.404c1.012,6.334 1.903,12.687 2.915,19.02c0.857,5.372 10.395,2.074 10.42,-2.443c0.022,-4.015 0.027,-8.057 0.876,-11.997c-3.445,0.483 -6.892,0.967 -10.337,1.45c2.231,14.203 -9.47,21.347 -17.578,30.994c3.044,0.177 6.089,0.354 9.134,0.53c0.287,-6.545 3.484,-12.241 6.422,-17.938c3.048,-5.909 -5.766,-5.479 -8.632,-2.628c-9.598,9.548 -18.104,20.073 -26.169,30.931c3.383,0.586 6.766,1.172 10.148,1.758c5.857,-10.562 11.235,-21.675 19.068,-30.959c-3.052,-0.93 -6.104,-1.859 -9.156,-2.788c-4.071,5.095 -7.994,10.201 -11.034,15.994c3.365,0.583 6.73,1.165 10.096,1.748c2.936,-5.598 6.718,-10.632 10.039,-15.993c1.421,-2.293 0.476,-4.725 -2.256,-5.198c-2.944,-0.51 -6.235,1.016 -7.918,3.437c-1.7,2.445 -3.22,5.007 -4.876,7.481c-0.613,0.915 -1.262,1.692 -2.029,2.477c-0.66,0.44 -0.618,0.466 0.124,0.075c-0.778,-0.077 -1.536,-0.247 -2.273,-0.511c-3.146,-0.878 -7.486,1.619 -8.552,4.604c-3.03,8.485 -4.009,17.527 -7.067,26.003c-2.27,6.289 9.779,4.259 11.521,-0.496c4.128,-11.27 8.679,-22.414 11.885,-33.995c0.774,-2.796 -1.683,-4.269 -4.195,-4.162c-3.108,0.132 -5.749,1.91 -7.096,4.648c-4.281,8.708 -7.778,17.44 -9.104,27.105c-0.679,4.943 8.276,2.531 9.899,0.574c6.324,-7.63 10.048,-16.544 14.977,-25.034c-3.418,-0.593 -6.836,-1.185 -10.254,-1.777c-1.997,4.001 -3.993,8.002 -5.99,12.002c-2.438,4.885 3.044,6.061 6.722,4.584c14.462,-5.805 26.782,-23.493 27.247,-39.07c0.168,-5.629 -10.768,-2.584 -11.52,1.617c-2.429,13.588 -11.623,24.558 -17.011,37c3.786,-0.162 7.571,-0.326 11.357,-0.488c0.933,-2.768 1.911,-5.369 3.446,-7.868c-3.417,-0.592 -6.833,-1.184 -10.25,-1.775c-8.323,15.411 -18.926,30.015 -23.535,47.132c3.773,-0.163 7.547,-0.325 11.32,-0.488c3.374,-16.293 12.631,-30.396 20.321,-44.893c-3.321,-0.576 -6.642,-1.15 -9.963,-1.727c-8.893,17.185 -16.649,35.434 -21.794,54.111c-1.818,6.604 10.053,4.321 11.551,-0.496c5.104,-16.41 12.002,-32.327 21.147,-46.899c-3.46,-0.206 -6.921,-0.411 -10.381,-0.618c-5.831,19.142 -14.144,37.363 -18.331,57.015c-1.434,6.728 10.385,4.475 11.578,-0.498c4.18,-17.41 10.529,-34.335 13.654,-51.985c1.114,-6.289 -8.188,-3.872 -10.354,-0.616c-11.68,17.558 -18.359,37.906 -23.859,58.099c3.909,-0.548 7.817,-1.097 11.727,-1.646c0.337,-14.942 5.416,-29.018 10.649,-42.844c1.041,-2.751 -1.886,-4.229 -4.167,-4.133c-2.902,0.122 -5.949,1.848 -7.046,4.615c-7.94,20.051 -16.88,39.704 -24.175,60.008c3.854,-0.166 7.708,-0.332 11.563,-0.498c3.363,-18.857 14.764,-34.768 20.025,-53.001c1.945,-6.743 -8.841,-3.706 -11.044,-0.657c-13.687,18.939 -20.749,41.247 -31.037,61.993c3.771,-0.167 7.541,-0.334 11.312,-0.502c1.468,-11.576 10.717,-21.14 14.85,-31.838c2.351,-6.084 -8.02,-4.075 -10.274,-1.779c-13.807,14.061 -23.584,31.371 -31.489,49.286c-2.609,5.914 9.1,4.477 11.178,0.665c7.633,-13.999 16.996,-27.13 22.568,-42.171c2.358,-6.367 -8.007,-3.644 -10.243,-1.774c-13.52,11.305 -28.198,30.077 -28.679,48.447c-0.161,6.182 9.512,1.851 11.34,-0.504c11.939,-15.381 21.585,-32.96 28.475,-51.164c2.225,-5.877 -7.843,-4.158 -10.057,-1.742c-14.727,16.077 -29.731,36.305 -33.627,58.245c-1.09,6.133 7.613,4.679 10.336,1.79c19.423,-20.606 30.353,-47.128 47.895,-69.125c-3.539,-0.613 -7.078,-1.227 -10.617,-1.84c-11.673,19.953 -28.1,37.8 -32.561,61.173c-0.846,4.433 4.406,5.117 7.529,3.572c16.216,-8.021 21.291,-25.966 33.809,-37.755c-3.488,-0.604 -6.977,-1.208 -10.464,-1.813c-7.041,15.703 -17.634,29.478 -25.044,45.002c-1.036,2.171 1.085,4.03 3.008,4.363c3.068,0.531 6.787,-1.047 8.479,-3.68c10.656,-16.58 19.227,-34.772 32.093,-49.84c-3.544,-0.613 -7.088,-1.228 -10.632,-1.842c-4.469,16.852 -14.631,31.4 -22.044,47.002c4.091,-0.176 8.181,-0.352 12.271,-0.527c8.898,-18.854 16.411,-38.544 28.319,-55.791c-3.834,-0.229 -7.669,-0.457 -11.503,-0.686c-7.56,22.903 -15.588,46.248 -28.483,66.782c3.954,-0.176 7.908,-0.352 11.862,-0.526c-1.517,-7.852 1.81,-14.734 4.862,-21.782c2.64,-6.097 -8.491,-4.573 -10.809,-1.872c-14.139,16.478 -22.002,36.907 -34.985,54.169c4.004,-0.179 8.008,-0.356 12.012,-0.534c-1.802,-13.832 8.622,-27.614 13.81,-39.764c2.748,-6.438 -9.584,-4.502 -11.832,-0.704c-8.922,15.074 -15.273,31.388 -22.622,47.24c4.224,-0.593 8.446,-1.186 12.669,-1.778c-2.475,-21.35 12.743,-38.383 18.814,-57.76c0.73,-2.334 -0.854,-4.123 -3.113,-4.515c-3.347,-0.579 -6.8,1.171 -8.773,3.808c-13.299,17.768 -27.954,37.833 -31.627,60.246c-1.274,7.775 10.496,4.111 12.527,-0.539c6.742,-15.428 13.485,-30.865 21.362,-45.756c3.942,-7.453 -8.233,-6.504 -11.252,-1.949c-13.095,19.758 -25.315,41.493 -27.777,65.477c-0.664,6.464 11.192,2.127 12.605,-1.769c5.095,-14.057 11.717,-27.453 17.997,-41c1.391,-2.999 -2.273,-4.669 -4.607,-4.57c-3.357,0.143 -6.385,2.08 -7.791,5.104c-6.102,13.116 -12.915,25.885 -19.018,39.001c4.212,-0.591 8.424,-1.182 12.636,-1.773c-0.698,-6.586 0.997,-12.493 2.806,-18.762c1.871,-6.486 -8.305,-4.613 -10.864,-1.882c-5.192,5.54 -13.894,18.886 -6.859,25.819c4.016,3.959 11.516,1.803 15.885,-0.082c5.194,-2.24 9.522,-5.979 13.965,-9.379c-3.183,-0.173 -6.366,-0.346 -9.549,-0.52c1.688,5.85 0.593,11.922 -0.257,17.824c-0.865,6.021 10.459,2.497 12.094,-0.537c7.153,-13.274 14.268,-26.57 20.63,-40.246c2.848,-6.119 -8.606,-4.53 -10.94,-1.896c-8.802,9.937 -23.46,22.065 -22.817,36.687c0.219,4.99 7.285,3.314 9.862,1.709c9.49,-5.914 16.848,-14.813 23.202,-23.871c6.541,-9.324 12.223,-19.77 15.735,-30.631c2.07,-6.4 -8.539,-4.854 -11.014,-1.908c-11.797,14.048 -22.016,29.255 -28.629,46.452c4.222,-0.182 8.442,-0.363 12.664,-0.545c4.092,-13.692 11.802,-26.019 15.017,-40.001c1.355,-5.895 -6.672,-5.063 -9.756,-2.989c-17.469,11.744 -23.527,34.823 -42.014,44.987c-4.815,2.646 -3.56,8.098 1.784,8.248c4.345,0.123 8.645,0.882 12.998,1.005c4.236,0.119 11.884,-5.95 6.196,-9.449c-3.987,-2.453 -8.363,-2.499 -12.918,-2.509c-3.532,-0.008 -12.747,7.016 -6.2,9.455c6.454,2.404 13.059,3.428 19.919,2.512c3.193,-0.428 6.916,-1.884 8.032,-5.262c1.068,-3.234 -2.063,-4.71 -4.749,-4.711c-1.667,0 -3.333,-0.001 -5,-0.001c-6.43,0 -12.372,9.975 -3.283,9.975c1.667,0 3.333,-0.001 5,-0.001c1.095,-3.324 2.188,-6.648 3.283,-9.973c-4.901,0.658 -9.433,0.24 -14.081,-1.488c-2.066,3.152 -4.133,6.304 -6.2,9.455c2.784,0.004 4.689,0.021 7.082,1.491c2.065,-3.149 4.131,-6.3 6.196,-9.449c-4.346,-0.119 -8.647,-0.876 -13.002,-0.995c0.595,2.749 1.189,5.499 1.784,8.248c9.464,-5.21 16.325,-13.485 22.495,-22.161c5.791,-8.143 11.035,-17.159 19.491,-22.852c-3.252,-0.996 -6.504,-1.993 -9.756,-2.989c-3.203,13.98 -10.902,26.308 -14.983,39.999c-2.176,7.304 10.752,4.438 12.664,-0.545c5.85,-15.25 14.906,-29.069 25.371,-41.548c-3.671,-0.637 -7.343,-1.272 -11.014,-1.908c-2.946,9.134 -7.563,17.589 -12.78,25.609c-5.37,8.256 -11.825,16.612 -20.282,21.889c3.287,0.569 6.575,1.139 9.862,1.709c-0.511,-11.41 12.316,-21.551 19.183,-29.313c-3.646,-0.632 -7.294,-1.264 -10.94,-1.896c-5.961,12.835 -12.668,25.296 -19.37,37.754c4.031,-0.18 8.063,-0.358 12.094,-0.537c0.988,-6.912 1.715,-13.368 -0.257,-20.176c-1.064,-3.678 -7.548,-2.054 -9.549,-0.52c-2.31,1.771 -9.831,9.159 -12.386,8.283c-3.111,-1.068 4.151,-12.616 5.376,-13.925c-3.622,-0.627 -7.243,-1.254 -10.864,-1.882c-2.016,7.006 -3.979,13.882 -3.194,21.238c0.736,6.891 10.885,1.997 12.636,-1.773c6.09,-13.115 12.893,-25.884 18.982,-38.999c-4.133,0.178 -8.266,0.355 -12.398,0.533c-6.27,13.551 -12.896,26.951 -18.003,41c4.202,-0.589 8.403,-1.179 12.605,-1.769c2.296,-22.135 14.148,-42.338 26.223,-60.523c-3.751,-0.649 -7.501,-1.3 -11.252,-1.949c-8.328,15.708 -15.508,31.969 -22.638,48.244c4.176,-0.18 8.352,-0.359 12.527,-0.539c3.566,-21.621 17.55,-40.605 30.373,-57.754c-3.962,-0.236 -7.924,-0.472 -11.887,-0.707c-6.348,20.296 -21.799,37.81 -19.186,60.24c0.802,6.888 10.901,2.039 12.669,-1.778c6.954,-15.019 12.933,-30.478 21.378,-44.76c-3.944,-0.234 -7.888,-0.47 -11.832,-0.704c-5.555,13.029 -16.137,27.359 -14.19,42.236c0.818,6.253 9.71,2.528 12.012,-0.534c12.331,-16.408 19.612,-36.197 33.015,-51.831c-3.603,-0.624 -7.205,-1.248 -10.809,-1.872c-3.342,7.727 -6.879,15.63 -5.138,24.218c1.159,5.72 9.619,3.104 11.862,-0.526c13.178,-21.326 21.527,-45.584 29.517,-69.218c0.761,-2.249 -0.866,-3.999 -3.012,-4.37c-3.165,-0.548 -6.677,1.093 -8.491,3.685c-12.561,17.943 -20.417,38.503 -29.681,58.209c-1.394,2.965 2.264,4.621 4.56,4.523c3.341,-0.141 6.298,-2.063 7.712,-5.051c7.394,-15.621 17.508,-30.115 21.956,-46.998c1.641,-6.229 -8.124,-4.786 -10.632,-1.842c-13.551,15.912 -22.694,34.658 -33.907,52.16c3.828,0.228 7.658,0.455 11.486,0.684c7.38,-15.521 17.931,-29.266 24.956,-44.998c0.971,-2.173 -1.03,-3.993 -2.985,-4.332c-2.684,-0.465 -5.543,0.691 -7.479,2.52c-5.63,5.317 -9.827,11.873 -14.07,18.293c-3.724,5.635 -7.848,12.816 -14.121,15.952c2.51,1.19 5.02,2.382 7.529,3.572c4.176,-22.592 20.127,-39.606 31.439,-58.827c1.418,-2.411 0.545,-4.923 -2.354,-5.425c-3.227,-0.559 -6.308,1.146 -8.263,3.585c-16.968,21.175 -27.555,46.9 -46.105,66.875c3.445,0.597 6.891,1.193 10.336,1.79c3.41,-20.29 16.691,-38.94 30.373,-53.755c-3.353,-0.581 -6.705,-1.162 -10.057,-1.742c-6.686,17.416 -16.086,34.099 -27.525,48.836c3.779,-0.168 7.56,-0.336 11.34,-0.504c0.213,-8.154 4.313,-15.7 8.612,-22.414c4.567,-7.133 10.206,-13.705 16.709,-19.139c-3.414,-0.592 -6.829,-1.184 -10.243,-1.774c-5.269,14.208 -14.215,26.601 -21.432,39.829c3.726,0.222 7.451,0.443 11.178,0.665c7.145,-16.178 16.038,-32.021 28.511,-44.714c-3.425,-0.594 -6.85,-1.187 -10.274,-1.779c-4.534,11.727 -13.554,21.334 -15.15,34.162c-0.693,5.568 9.83,2.5 11.312,-0.502c10.231,-20.736 17.264,-43.135 30.963,-62.007c-3.681,-0.22 -7.362,-0.438 -11.044,-0.657c-5.307,18.223 -16.827,34.078 -19.975,52.999c-1.158,6.965 9.951,4.146 11.563,-0.498c7.054,-20.346 15.715,-40.06 23.825,-59.992c-3.737,0.161 -7.476,0.321 -11.213,0.482c-5.63,14.459 -11.23,29.44 -11.351,45.156c-0.045,5.921 10.687,2.391 11.727,-1.646c4.977,-19.33 10.773,-39.256 22.141,-55.901c-3.451,-0.206 -6.902,-0.411 -10.354,-0.616c-3.397,17.716 -10.536,34.411 -14.346,52.015c3.859,-0.166 7.719,-0.332 11.578,-0.498c3.906,-19.523 11.377,-38.153 17.669,-56.985c2.03,-6.079 -8.39,-3.721 -10.381,-0.618c-9.761,15.206 -17.297,31.927 -22.853,49.101c3.851,-0.165 7.7,-0.331 11.551,-0.496c5.182,-18.037 11.373,-35.279 20.206,-51.889c3.431,-6.453 -7.549,-6.156 -9.963,-1.727c-8.257,15.154 -18.267,29.916 -21.679,47.107c-1.315,6.631 10.068,4.316 11.32,-0.488c4.268,-16.385 14.529,-30.156 22.465,-44.868c3.605,-6.684 -7.592,-6.106 -10.25,-1.775c-1.971,3.21 -3.356,6.569 -4.554,10.132c-0.941,2.8 1.821,4.288 4.22,4.188c3.014,-0.128 5.933,-1.889 7.138,-4.676c5.395,-12.475 14.555,-23.339 16.989,-37c-3.84,0.539 -7.68,1.078 -11.52,1.617c-0.313,10.691 -8.554,24.85 -18.753,28.93c2.24,1.527 4.481,3.056 6.722,4.584c2.003,-4 4.007,-7.999 6.01,-11.998c3.396,-6.779 -7.675,-6.21 -10.254,-1.777c-4.67,8.027 -7.958,16.757 -13.896,24.019c3.591,-0.159 7.181,-0.319 10.771,-0.479c1.077,-8.375 4.604,-16.278 8.344,-23.77c-3.579,-0.213 -7.159,-0.426 -10.738,-0.639c-3.291,11.594 -7.975,22.703 -12.115,34.005c3.841,-0.165 7.681,-0.331 11.521,-0.496c2.961,-8.495 3.943,-17.512 6.933,-25.997c-2.851,1.534 -5.701,3.069 -8.552,4.604c12.777,3.512 18.866,-7.659 24.945,-16.478c-3.392,-0.587 -6.782,-1.175 -10.174,-1.762c-3.295,5.365 -7.052,10.406 -9.961,16.007c-3.409,6.563 7.729,6.303 10.096,1.748c3.013,-5.794 6.901,-10.919 10.966,-16.006c1.271,-1.591 0.806,-3.911 -1.042,-4.765c-2.523,-1.166 -6.315,-0.048 -8.114,1.977c-8.755,9.85 -14.78,21.487 -20.932,33.041c-3.619,6.799 7.348,5.658 10.148,1.758c7.328,-10.207 15.05,-20.063 23.831,-29.069c-2.877,-0.876 -5.755,-1.752 -8.632,-2.628c-3.494,7.073 -7.246,14.012 -7.578,22.063c-0.188,4.551 7.479,2.507 9.134,0.53c9.447,-11.286 23.081,-20.377 20.422,-37.006c-0.802,-5.015 -9.507,-2.453 -10.337,1.45c-0.987,4.646 -1.139,9.269 -1.124,14.003c3.474,-0.814 6.946,-1.629 10.42,-2.443c-1.067,-6.32 -2.017,-12.66 -3.085,-18.98c-0.938,-5.553 -9.647,-1.735 -10.25,2.404c-0.967,6.644 -1.061,13.324 -1.111,20.026c3.491,-0.819 6.981,-1.638 10.473,-2.457c-0.902,-7.315 -0.873,-14.691 -2.135,-21.968c-0.904,-5.213 -10.302,-2.068 -10.203,2.393c0.17,7.63 0.318,15.26 0.473,22.89c0.094,4.689 9.306,1.915 9.258,-2.172c-0.1,-8.644 -0.199,-17.286 -0.299,-25.93c-0.05,-4.396 -8.617,-1.773 -8.66,2.03Z" style="fill-rule:nonzero;"/><path d="M147.942,180.183c-4.803,4.507 -9.518,10.382 -8.371,17.411c0.998,6.117 4.701,11.242 5.336,17.534c2.275,-1.805 4.551,-3.608 6.826,-5.413c-8.402,0.947 -16.195,2.683 -23.504,7.119c2.81,1.309 5.62,2.618 8.431,3.928c3.171,-6.152 6.286,-12.32 7.606,-19.17c1.285,-6.659 -9.013,-4.404 -11.208,-0.667c-2.437,4.147 -3.54,8.827 -5.536,13.173c-2.082,4.532 5.216,4.568 7.507,3.563c3.3,-1.45 6.952,-1.52 10.396,-2.496c-1.764,-1.742 -3.529,-3.484 -5.294,-5.227c-2.872,4 -7.419,5.855 -11.759,7.848c-4.806,2.207 -9.237,4.691 -13.328,8.055c-1.523,1.252 -2.397,3.889 -0.795,5.426c2.078,1.994 6.191,1.15 8.243,-0.434c4.127,-3.186 7.903,-6.791 12.027,-9.974c5.717,-4.411 1.119,-9.167 -4.804,-6.833c-11.689,4.605 -19.187,14.107 -27.711,22.796c-1.736,1.771 -2.614,4.842 0.182,6.134c2.892,1.336 6.357,-0.146 8.557,-2.085c7.607,-6.708 14.807,-13.823 21.943,-21.026c-3.178,-0.967 -6.354,-1.935 -9.531,-2.902c-4.614,7.22 -12.626,12.186 -19.185,17.473c-7.63,6.149 -15.196,12.697 -19.294,21.803c-1.6,3.554 -2.169,8.09 -1.025,11.849c0.907,2.979 3.331,4.938 4.413,7.777c1.46,3.833 -2.837,8.995 -4.798,11.815c-2.932,4.219 -6.166,8.23 -9.376,12.238c3.839,-0.557 7.679,-1.113 11.519,-1.67c-0.297,0.674 -0.281,0.46 0.048,-0.643c1.459,-6.531 -7.892,-4.359 -10.617,-1.839c-3.139,2.902 -6.86,5.081 -10.011,7.995c3.548,0.614 7.096,1.229 10.643,1.843c2.447,-11.001 8.405,-20.821 13.44,-30.778c-3.692,-0.639 -7.384,-1.279 -11.076,-1.918c-4.114,8.202 -8.413,16.232 -10.556,25.221c-1.7,7.133 10.57,4.458 12.188,-0.523c4.083,-12.58 12.723,-22.916 17.932,-34.998c0.945,-2.192 -1.013,-4.008 -3.001,-4.353c-3.31,-0.573 -6.45,1.177 -8.459,3.671c-5.712,7.088 -10.159,15.406 -12.566,24.199c-1.959,7.153 10.083,3.94 12.002,-0.516c2.94,-6.824 5.817,-13.637 7.061,-21.003c1.09,-6.461 -7.683,-4.509 -10.579,-1.833c-8.101,7.485 -10.009,18.437 -13.622,28.357c-2.427,6.665 10.444,4.59 12.279,-0.527c2.814,-7.852 4.013,-17.713 10.378,-23.643c-3.592,-0.209 -7.184,-0.418 -10.775,-0.626c-1.127,6.895 -4.03,13.406 -6.743,19.79c4.001,-0.172 8.001,-0.344 12.002,-0.516c2.161,-8.055 6.198,-15.34 11.434,-21.801c-3.819,-0.228 -7.64,-0.455 -11.46,-0.682c-5.265,12.105 -13.913,22.34 -18.068,35.002c4.063,-0.174 8.125,-0.35 12.188,-0.523c1.967,-8.127 5.696,-15.364 9.444,-22.779c3.659,-7.24 -8.542,-6.956 -11.076,-1.918c-5.392,10.719 -11.956,21.386 -14.56,33.222c-1.439,6.54 7.9,4.388 10.643,1.843c3.131,-2.905 6.847,-5.088 9.989,-8.005c-3.539,-0.612 -7.078,-1.226 -10.617,-1.839c-0.446,2.018 -0.826,3.398 0.048,5.357c2.143,4.806 9.405,0.979 11.519,-1.67c5.677,-7.111 13.19,-14.937 15.327,-24.019c0.951,-4.042 0.194,-7.271 -2.149,-10.582c-2.204,-3.114 -3.077,-5.655 -2.016,-9.567c2.265,-8.346 11.151,-14.635 17.488,-19.803c7.083,-5.775 15.008,-11.312 20.085,-19.074c4.055,-6.201 -6.515,-5.89 -9.531,-2.902c-7.211,7.142 -14.441,14.26 -22.057,20.974c2.913,1.35 5.825,2.699 8.738,4.049c6.871,-7.005 12.863,-15.49 22.289,-19.204c-1.602,-2.277 -3.203,-4.555 -4.804,-6.833c-4.109,3.204 -7.866,6.825 -11.973,10.026c2.483,1.664 4.966,3.328 7.448,4.992c4.089,-3.395 9.428,-5.109 14.103,-7.514c5.093,-2.617 9.43,-5.928 12.811,-10.584c2.748,-3.784 -2.047,-6.131 -5.294,-5.227c-4.58,1.273 -9.181,1.584 -13.604,3.504c2.503,1.188 5.005,2.375 7.507,3.563c1.643,-3.521 2.478,-7.487 4.464,-10.827c-3.736,-0.223 -7.472,-0.444 -11.208,-0.667c-1.273,6.394 -4.152,12.168 -6.968,17.998c-2.601,5.387 6.889,4.107 9.005,2.76c4.793,-3.051 10.438,-3.887 15.902,-5.078c1.945,-0.424 5.928,-2.618 5.42,-5.216c-1.178,-6.022 -3.639,-10.452 -6.771,-15.599c-3.383,-5.555 -0.217,-10.878 2.225,-16.202c0.899,-1.969 -2.655,-1.238 -3.356,-0.58Z" style="fill-rule:nonzero;"/><path d="M74.746,300.959c-3.022,7.971 -14.132,6.542 -21.015,6.764c-2.945,0.095 -6.587,2.192 -6.813,5.402c-0.143,2.021 -0.188,4.029 -0.231,6.055c-0.099,4.448 6.576,2.768 8.644,1.497c6.345,-3.896 11.409,-9.239 16.098,-14.956c1.305,-1.59 0.794,-3.95 -1.051,-4.803c-2.26,-1.044 -5.032,-0.214 -7.01,1.048c-3.284,2.095 -6.743,3.889 -10.04,5.962c2.426,1.626 4.852,3.252 7.277,4.879c1.818,-1.812 3.705,-3.71 4.497,-6.207c1.842,-5.808 -7.745,-4.432 -9.996,-1.732c-4.079,4.891 -7.315,9.952 -8.54,16.282c-1.008,5.207 -0.645,10.56 -1.729,15.754c-1.498,7.177 -5.411,14.354 -8.711,20.837c-3.835,7.533 -8.089,14.839 -12.351,22.136c4.003,-0.178 8.005,-0.355 12.007,-0.533c0.376,-13.018 8.226,-25.188 13.338,-36.906c1.613,-3.698 3.737,-7.61 4.225,-11.662c0.767,-6.383 -9.059,-3.541 -11.434,-0.997c-5.269,5.646 3.274,8.383 7.677,5.146c-0.344,0.175 -0.687,0.351 -1.03,0.525c-1.586,0.23 -3.171,0.46 -4.756,0.689c0.039,0.012 0.079,0.022 0.119,0.034c-0.994,-0.679 -1.988,-1.356 -2.982,-2.034c-0.697,-2.423 -0.319,-1.012 -0.928,0.694c-0.627,1.761 -1.371,3.483 -2.098,5.205c-1.394,3.307 -2.87,6.578 -4.273,9.881c-4.533,10.667 -10.347,20.522 -10.674,32.43c-0.17,6.168 10.232,2.514 12.007,-0.533c7.774,-13.349 15.19,-26.761 20.681,-41.237c1.984,-5.231 2.153,-10.94 2.414,-16.457c0.303,-6.425 2.435,-11.379 6.473,-16.381c-3.631,-0.216 -7.263,-0.432 -10.894,-0.648c-0.212,0.714 -1.009,1.285 -1.503,1.793c-5.242,5.385 3.123,7.576 7.277,4.879c3.258,-2.116 6.688,-3.943 9.96,-6.038c-2.687,-1.252 -5.374,-2.504 -8.061,-3.755c-3.452,4.226 -7.335,8.04 -11.902,11.044c2.881,0.499 5.763,0.998 8.644,1.497c-0.044,-1.989 -0.087,-3.961 -0.231,-5.945c-1.804,1.734 -3.606,3.471 -5.409,5.205c10.508,-1.771 26.584,-1.613 27.666,-15.563c0.215,-2.793 -4.731,-0.863 -5.342,0.749Z" style="fill-rule:nonzero;"/><path d="M403.338,296.339c0.766,-0.941 1.643,-2.061 2.605,-2.82c0.471,-0.371 -0.781,-0.088 -0.457,0.048c1.638,0.688 2.2,2.884 2.764,4.355c1.502,3.926 2.282,8.227 3.028,12.354c3.985,-1.324 7.97,-2.648 11.954,-3.973c-1.995,-5.526 -4.854,-11.254 -9.481,-15.046c-3.62,-2.966 -13.682,0.79 -11.431,6.216c2.564,6.177 7.395,14.184 15.021,13.508c1.846,-0.164 4.565,-1.238 5.049,-3.308c0.809,-3.467 -1.069,-5.283 -3.246,-7.769c-2.037,-2.326 -3.51,-4.847 -4.719,-7.686c-3.811,2.072 -7.62,4.145 -11.431,6.216c4.15,3.34 6.349,8.211 8.519,12.954c2.421,5.295 13.194,0.319 11.719,-5.086c-1.731,-6.346 -4.362,-12.263 -9.084,-16.956c-5.986,-5.948 -14.322,-0.015 -17.419,5.848c-2.402,4.548 4.736,3.451 6.609,1.145Z" style="fill-rule:nonzero;"/><path d="M214.976,348.465c-9.104,5.824 -15.813,13.996 -21.67,23.022c-0.55,0.849 -0.222,2.037 0.917,2.112c2.688,0.18 5.282,0.838 7.96,1.062c-0.316,-0.729 -0.632,-1.457 -0.948,-2.187c-3.604,6.344 -10.342,9.505 -13.346,16.479c-0.403,0.937 0.435,1.607 1.237,1.795c9.872,2.293 0.808,11.434 -1.368,16.253c-0.583,1.292 0.618,2.431 1.801,2.612c1.121,0.172 1.783,1.695 2.906,2.104c1.374,0.501 2.848,0.012 3.898,-0.95c3.249,-2.972 0.262,-6.188 -3.176,-6.689c0.601,0.871 1.2,1.741 1.801,2.612c0.851,-1.923 0.938,-4.013 1.867,-5.946c0.93,-1.935 1.917,-4.118 2.054,-6.294c0.295,-4.707 -3.156,-6.592 -7.289,-7.507c0.412,0.599 0.825,1.197 1.237,1.795c2.711,-6.49 9.311,-9.51 12.654,-15.521c0.5,-0.899 0.283,-2.094 -0.948,-2.187c-2.888,-0.217 -5.7,-0.829 -8.602,-0.973c0.493,0.716 0.985,1.431 1.479,2.146c5.068,-8.136 11.196,-16.799 18.484,-23.103c0.743,-0.641 -0.417,-0.974 -0.948,-0.635Z" style="fill-rule:nonzero;"/><path d="M213.442,349.25c1.368,3.782 5.2,6.587 7.868,9.482c3.673,3.986 6.302,8.17 6.704,13.667c0.981,-0.779 1.964,-1.558 2.946,-2.337c-1.983,-0.089 -3.962,-0.143 -5.947,-0.159c-1.343,-0.011 -4.379,1.831 -2.836,3.408c3.981,4.067 8.305,8.378 9.41,14.188c1.159,-0.919 2.319,-1.839 3.479,-2.759c-3.018,0.104 -5.953,0.726 -8.963,0.887c-1.369,0.072 -4.494,1.555 -3.555,3.444c1.607,3.231 3.234,6.451 4.792,9.708c1.021,2.135 2.006,4.286 2.927,6.466c0.327,0.774 0.792,1.651 0.949,2.482c0.415,2.197 -0.143,0.908 1.054,-0.163c0.956,-0.416 1.913,-0.831 2.87,-1.246c0.81,-0.047 -0.758,-0.11 -0.698,-0.103c-1.257,-0.161 -3.256,0.637 -3.269,2.146c-0.022,2.77 3.005,2.886 4.9,1.621c2.378,-1.585 1.438,-3.771 0.601,-5.928c-2.335,-6.01 -5.542,-11.704 -8.478,-17.435c-1.186,1.148 -2.37,2.297 -3.555,3.444c3.041,-0.188 6.002,-0.869 9.037,-1.113c1.615,-0.13 3.867,-1.345 3.373,-3.268c-1.621,-6.302 -5.963,-10.854 -10.483,-15.304c-0.945,1.136 -1.891,2.272 -2.836,3.408c2.021,-0.017 4.034,-0.071 6.053,-0.159c0.976,-0.042 3.229,-0.985 2.946,-2.337c-1.006,-4.822 -3.326,-8.849 -6.449,-12.614c-3.086,-3.723 -7.01,-8.094 -11.24,-10.49c-0.578,-0.326 -1.871,0.316 -1.6,1.064Z" style="fill-rule:nonzero;"/><path d="M182.879,371.374c-9.607,5.549 -18.192,13.043 -24.71,22.091c-0.642,0.891 -0.194,2.174 0.978,2.253c2.686,0.181 5.277,0.835 7.952,1.072c-0.339,-0.78 -0.677,-1.561 -1.016,-2.34c-3.007,4.031 -5.493,8.688 -8.931,12.367c-1.046,1.121 -1.235,3.076 0.726,3.31c2.951,0.353 2.388,3.79 5.888,3.564c1.331,-0.086 2.93,-0.95 3.049,-2.417c0.263,-3.234 -3.138,-5.469 -5.946,-5.708c0.397,0.915 0.795,1.83 1.192,2.745c2.463,-4.527 5.6,-8.878 8.603,-13.068c0.664,-0.928 0.202,-2.255 -1.016,-2.34c-2.903,-0.203 -5.731,-0.821 -8.646,-0.963c0.525,0.763 1.051,1.525 1.576,2.288c5.271,-8.899 14.222,-14.923 21.481,-22.063c0.893,-0.878 -0.52,-1.172 -1.18,-0.791Z" style="fill-rule:nonzero;"/><path d="M180.317,375.305c0.479,1.321 0.573,2.245 1.422,3.482c0.91,1.328 2.067,2.389 3.26,3.459c1.301,1.166 2.707,2.205 4.008,3.37c1.289,1.153 2.058,1.888 3.848,1.807c1.119,-0.051 2.529,-0.828 2.606,-2.066c0.088,-1.413 -0.873,-1.812 -1.968,-2.473c-1.398,-0.845 -2.728,-1.756 -4.037,-2.731c-1.221,-0.908 -2.37,-1.894 -3.537,-2.868c-1.089,-0.909 -2.758,-1.934 -3.605,-3.065c-0.538,-0.718 -2.312,0.219 -1.997,1.085Z" style="fill-rule:nonzero;"/><path d="M188.03,397.429c0.861,1.336 1.482,2.811 1.756,4.378c0.29,1.66 -0.337,4.362 1.53,5.076c0.769,0.294 1.567,-0.013 2.161,-0.526c1.77,-1.532 1.052,-3.93 0.342,-5.89c-0.639,-1.76 -1.752,-3.308 -3.251,-4.418c-0.755,-0.558 -3.26,0.26 -2.538,1.38Z" style="fill-rule:nonzero;"/><path d="M0.897,384.314c4.747,2.882 10.758,3.054 16.162,3.249c7.488,0.271 15.008,-0.479 22.457,-1.145c6.781,-0.606 13.658,-1.01 20.467,-0.951c3.356,0.029 6.717,0.5 9.997,1.188c2.76,0.579 5.007,1.777 7.865,1.797c0.948,0.006 3.307,-1.19 2.571,-2.492c-2.188,-3.868 -9.089,-3.771 -12.996,-4.004c-7.072,-0.421 -14.29,0.31 -21.306,1.138c-7.588,0.896 -15.17,1.758 -22.809,2.084c-7.381,0.314 -14.341,-0.768 -21.598,-1.843c-0.456,-0.068 -1.49,0.567 -0.81,0.979Z" style="fill-rule:nonzero;"/><path d="M12.893,385.579c3.968,1.15 7.712,1.68 11.835,1.24c3.046,-0.323 7.295,-0.947 9.062,-3.728c0.386,-0.606 0.144,-1.358 -0.628,-1.447c-2.708,-0.311 -5.24,1.181 -7.874,1.742c-3.742,0.799 -7.859,0.854 -11.668,0.714c-0.774,-0.028 -1.86,1.15 -0.727,1.479Z" style="fill-rule:nonzero;"/><path d="M97.948,357.438c-4.444,3.396 -8.607,6.779 -12.242,11.068c-3.888,4.588 -6.451,9.867 -9.563,14.953c-0.234,0.385 -0.489,1.006 -0.225,1.452c0.732,1.229 0.803,2.56 1.216,3.906c0.579,1.892 4.169,0.306 4.495,-1.069c0.451,-1.903 -0.838,-3.764 -0.471,-5.418c0.723,-3.254 2.894,-6.355 4.675,-9.139c3.542,-5.533 8.073,-10.869 13.132,-15.071c0.779,-0.646 -0.441,-1.122 -1.017,-0.682Z" style="fill-rule:nonzero;"/><path d="M94.311,359.095c-0.123,5.235 2.991,9.861 5.477,14.262c1.418,2.511 2.769,5.044 3.961,7.67c1.36,2.993 1.547,6.681 3.299,9.395c0.611,0.946 2.375,0.341 2.662,-0.633c1.523,-5.174 -2.469,-11.159 -4.986,-15.476c-3.049,-5.228 -6.31,-10.16 -8.328,-15.91c-0.324,-0.92 -2.066,-0.085 -2.085,0.692Z" style="fill-rule:nonzero;"/><path d="M422.273,349.893c-2.134,6.403 -3.04,13.203 -3.819,19.886c-0.401,3.439 -0.623,6.904 -0.816,10.36c-0.125,2.259 -0.748,4.564 0.605,6.461c0.498,0.697 1.979,0.007 2.287,-0.554c2.191,-3.992 0.955,-11.005 1.256,-15.533c0.465,-6.981 1.396,-13.841 2.688,-20.714c0.248,-1.315 -1.904,-0.797 -2.201,0.094Z" style="fill-rule:nonzero;"/><path d="M422.418,351.484c4.608,5.35 7.908,10.822 10.232,17.506c1.086,3.123 1.881,6.347 2.614,9.567c0.7,3.074 0.635,7.387 2.37,10.043c0.768,1.175 3.213,0.508 3.488,-0.829c0.574,-2.773 -0.442,-5.626 -1.042,-8.365c-0.899,-4.112 -2.091,-8.156 -3.508,-12.118c-2.336,-6.533 -5.882,-14.043 -12.427,-17.2c-0.711,-0.345 -2.467,0.537 -1.727,1.396Z" style="fill-rule:nonzero;"/><path d="M410.196,362.632c1.801,1.362 3.567,2.801 5.062,4.503c1.296,1.476 2.278,4.585 4.419,4.774c0.738,0.065 1.523,-0.208 1.951,-0.847c1.362,-2.033 -1.14,-4.441 -2.516,-5.87c-1.897,-1.969 -4.203,-3.417 -6.784,-4.282c-0.769,-0.258 -3.301,0.839 -2.132,1.722Z" style="fill-rule:nonzero;"/><path d="M409.234,362.649c-3.421,4.455 -5.95,9.543 -8.347,14.604c-2.207,4.663 -6.698,11.752 -6.135,16.973c0.176,1.629 2.453,0.572 3.037,-0.135c3.416,-4.132 4.599,-10.447 6.609,-15.401c2.193,-5.404 4.992,-10.526 7.238,-15.898c0.588,-1.405 -1.933,-0.753 -2.402,-0.143Z" style="fill-rule:nonzero;"/><path d="M516.808,398.51c0.463,-5.082 -0.007,-9.291 2.032,-14.222c2.011,-4.864 5.492,-9.188 9.506,-12.528c-1.436,0.215 -2.872,0.43 -4.309,0.645c4.109,4.475 6.964,9.367 8.787,15.156c1.021,3.242 1.403,6.637 1.636,10.012c0.192,2.785 -0.349,5.595 0.925,8.137c0.698,1.395 3.217,0.552 3.795,-0.551c2.857,-5.448 1.125,-12.863 -0.334,-18.584c-1.675,-6.567 -5.371,-12.527 -10.137,-17.287c-1.147,-1.146 -3.34,-0.291 -4.309,0.645c-4.346,4.192 -7.827,9.079 -10.348,14.563c-1.955,4.254 -3.895,11.516 0.095,15.17c0.849,0.775 2.565,-0.1 2.661,-1.156Z" style="fill-rule:nonzero;"/><path d="M531.116,376.686c2.945,2.658 5.976,5.155 8.76,7.993c1.613,1.644 2.979,3.483 4.131,5.473c1.072,1.852 1.379,3.633 3.258,4.782c0.912,0.558 2.301,-0.315 2.661,-1.154c1.655,-3.855 -2.823,-8.439 -5.295,-11.02c-3.134,-3.272 -7.195,-5.909 -11.238,-7.914c-0.897,-0.443 -3.381,0.843 -2.277,1.84Z" style="fill-rule:nonzero;"/><path d="M455.601,395.793c2.044,-10.439 10.164,-17.16 15.887,-25.581c-1.48,0.214 -2.961,0.429 -4.44,0.644c2,4.432 4.998,8.383 7.629,12.453c2.586,4.002 4.404,8.729 7.439,12.377c0.758,0.91 2.679,-0.186 2.73,-1.186c0.465,-9.078 -8.737,-18.273 -13.146,-25.664c-0.957,-1.605 -3.63,-0.653 -4.44,0.644c-5.104,8.17 -15.392,16.056 -14.153,26.663c0.143,1.223 2.311,0.578 2.494,-0.35Z" style="fill-rule:nonzero;"/><path d="M243.188,408.987c5.786,-10.187 9.746,-21.625 17.656,-30.459c-0.82,0.276 -1.641,0.553 -2.461,0.828c0.81,0.088 1.623,0.13 2.437,0.173c-0.529,-0.251 -1.059,-0.503 -1.587,-0.753c6.808,12.588 16.758,23.551 21.45,37.238c1.351,-1.081 2.7,-2.162 4.051,-3.242c-6.174,-0.976 -11.37,1.648 -16.184,5.286c-1.251,0.944 -0.686,2.173 0.837,1.928c4.234,-0.681 8.313,-3.407 12.626,-3.065c1.449,0.115 5.038,-1.103 4.051,-3.242c-6.06,-13.127 -14.727,-24.672 -22.55,-36.762c-0.368,-0.568 -0.906,-0.787 -1.587,-0.753c-5.726,0.291 -8.14,6.186 -10.74,10.746c-3.983,6.985 -6.642,14.579 -9.716,21.976c-0.388,0.933 1.396,0.665 1.717,0.101Z" style="fill-rule:nonzero;"/><path d="M244.613,419.592c6.539,2.367 14.906,3.571 21.771,2.125c0.817,-0.172 1.867,-1.443 0.579,-1.77c-2.858,-0.724 -5.922,-0.46 -8.851,-0.522c-4.105,-0.088 -8.214,-0.389 -12.204,-1.395c-0.754,-0.189 -2.406,1.161 -1.295,1.562Z" style="fill-rule:nonzero;"/><path d="M50.269,416.001c4.276,-7.651 6.6,-16.585 13.298,-22.603c-0.928,0.046 -1.855,0.092 -2.783,0.137c1.789,6.988 5.654,13.213 7.725,20.12c0.616,-0.735 1.232,-1.471 1.849,-2.206c-6.288,1.889 -13.706,0.955 -19.561,4.067c-1.427,0.759 -2.342,2.942 0.054,2.92c6.309,-0.057 13.531,-2.31 19.54,-4.194c0.915,-0.287 2.222,-1.041 1.849,-2.206c-2.191,-6.851 -5.805,-13.128 -8.275,-19.88c-0.412,-1.124 -2.226,-0.384 -2.783,0.137c-6.886,6.428 -9.338,15.141 -12.799,23.596c-0.424,1.028 1.535,0.738 1.886,0.112Z" style="fill-rule:nonzero;"/><path d="M78.227,404.611c1.44,1.765 2.568,3.747 3.65,5.745c1.051,1.939 1.686,4.129 3.606,5.363c0.771,0.495 2.101,-0.348 2.175,-1.175c0.21,-2.301 -1.511,-4.464 -2.692,-6.318c-1.233,-1.937 -2.726,-3.626 -4.446,-5.145c-0.863,-0.762 -3.184,0.439 -2.293,1.53Z" style="fill-rule:nonzero;"/><path d="M394.941,394.802c5.98,7.764 22.488,8.146 30.11,2.693c0.84,-0.601 0.793,-1.599 -0.354,-1.635c-4.252,-0.137 -8.58,1.458 -12.884,1.618c-5.151,0.191 -10.097,-1.191 -14.008,-4.589c-1.087,-0.944 -3.942,0.514 -2.864,1.913Z" style="fill-rule:nonzero;"/><path d="M419.63,393.979c4.026,0.468 9.377,1.641 13.167,-0.156c0.501,-0.238 1.705,-1.245 0.897,-1.858c-1.522,-1.155 -3.544,-0.9 -5.37,-0.84c-2.55,0.086 -5.037,0.298 -7.571,0.567c-0.994,0.105 -3.052,2.062 -1.123,2.287Z" style="fill-rule:nonzero;"/><path d="M449.532,399.211c2.193,5.285 10.959,5.445 15.688,5.542c3.911,0.08 7.858,-0.402 11.728,-0.922c2.972,-0.398 6.551,-0.597 9.064,-2.373c0.397,-0.28 0.994,-1.18 0.213,-1.447c-1.72,-0.588 -3.381,-0.145 -5.143,0.127c-3.628,0.559 -7.244,1.093 -10.904,1.39c-6.979,0.565 -12.996,-0.039 -19.199,-3.276c-0.508,-0.265 -1.732,0.275 -1.447,0.959Z" style="fill-rule:nonzero;"/><path d="M505.958,401.46c2.437,5.971 8.852,7.04 14.706,7.38c5.558,0.323 14.817,0.4 19.437,-3.299c0.686,-0.549 1.003,-1.418 -0.047,-1.731c-4.215,-1.261 -10.236,0.943 -14.569,1.203c-5.21,0.313 -13.472,0.276 -16.694,-4.781c-0.726,-1.136 -3.367,-0.081 -2.833,1.228Z" style="fill-rule:nonzero;"/><path d="M348.659,431.544c1.924,-13.054 3.901,-30.524 15.81,-38.649c-1.04,-0.057 -2.08,-0.113 -3.12,-0.17c5.701,12.619 16.214,23.379 17.679,37.672c0.978,-0.775 1.954,-1.549 2.931,-2.324c-8.419,-0.051 -18.051,-0.147 -26.079,2.633c-1.026,0.354 -2.085,2.273 -0.384,2.48c8.15,0.991 17.051,-1.376 25.295,-1.566c1.074,-0.025 3.078,-0.969 2.931,-2.324c-1.548,-14.149 -11.392,-26.352 -18.321,-38.328c-0.636,-1.098 -2.243,-0.765 -3.12,-0.17c-12.089,8.197 -18.088,27.301 -16.19,41.351c0.186,1.4 2.417,0.422 2.568,-0.605Z" style="fill-rule:nonzero;"/><path d="M340.735,390.234c-10.391,5.77 -11.714,21.679 -11.865,32.2c-0.023,1.601 2.252,1.392 3.189,0.993c1.199,-0.488 2.439,-0.748 3.721,-0.778c1.602,-0.145 4.71,-3.361 1.754,-3.571c-2.525,-0.18 -4.519,0.174 -6.846,1.188c1.063,0.331 2.127,0.663 3.189,0.993c0.012,-10.724 1.588,-21.72 8.57,-30.227c0.932,-1.134 -1.146,-1.113 -1.712,-0.798Z" style="fill-rule:nonzero;"/><path d="M343.725,392.561c0.566,1.293 1.022,2.623 1.455,3.965c0.51,1.584 0.757,3.337 2.304,4.193c0.737,0.408 1.854,-0.219 2.135,-0.927c0.578,-1.454 -0.086,-2.879 -0.631,-4.27c-0.585,-1.495 -1.212,-2.974 -1.966,-4.392c-0.751,-1.413 -3.942,-0.04 -3.297,1.431Z" style="fill-rule:nonzero;"/><path d="M239.592,286.711c-4.376,7.344 -11.244,12.986 -17.57,18.591c-7.127,6.314 -14.786,12.002 -21.895,18.369c-6.957,6.231 -13.731,12.665 -20.354,19.251c-3.397,3.38 -6.723,6.832 -10.016,10.313c-2.559,2.705 -6.151,5.52 -6.186,9.503c-0.022,2.474 3.401,2.053 4.842,1.508c4.425,-1.673 7.167,-5.378 10.296,-8.768c3.221,-3.49 6.503,-6.925 9.812,-10.331c6.459,-6.652 13.137,-13.088 19.937,-19.391c12.288,-11.389 27.103,-22.615 32.781,-38.947c0.329,-0.944 -1.338,-0.617 -1.647,-0.098Z" style="fill-rule:nonzero;"/><path d="M410.838,261.334c-8.103,4.928 -22.966,11.195 -19.704,23.465c0.265,0.994 1.618,1.566 2.502,1.706c2.843,0.45 5.524,-0.616 7.157,-3.105c1.558,-2.376 0.466,-5.756 1.406,-8.409c1.671,-4.714 6.725,-9.051 9.916,-12.801c0.853,-1.001 -0.519,-1.316 -1.277,-0.856Z" style="fill-rule:nonzero;"/><path d="M187.75,315.917c-1.949,7.492 5.346,10.693 11.55,11.093c-0.73,-0.721 -1.462,-1.441 -2.192,-2.162c-0.019,0.337 -0.035,0.675 -0.053,1.013c2.14,-1.406 4.279,-2.811 6.419,-4.216c-4.755,-1.03 -9.23,0.568 -13.971,0.772c-1.906,0.082 -6.171,1.887 -5.667,4.494c0.317,1.643 0.55,3.375 1.099,4.959c1.352,3.903 7.886,0.365 8.825,-2.099c0.015,-0.038 0.029,-0.077 0.044,-0.115c-1.855,1.216 -3.712,2.431 -5.567,3.646c2.329,0.015 4.657,0.03 6.986,0.041c3.429,0.017 8.94,-6.252 3.401,-6.929c-7.384,-0.902 -14.68,1.007 -19.571,6.893c-2.017,2.428 -1.238,5.026 2.177,5.016c4.465,-0.014 8.811,-0.23 13.184,-1.181c5.025,-1.092 6.15,-7.877 -0.078,-6.592c-5.209,1.075 -10.247,2.496 -15.208,4.423c-3.433,1.334 -4.807,6.524 0.115,6.313c7.968,-0.344 15.189,-3.88 20.385,-9.933c1.096,-1.276 2.122,-3.708 -0.135,-4.565c-3.08,-1.172 -5.936,-2.813 -9.016,-3.985c-1.761,2.122 -3.521,4.245 -5.282,6.368c9.498,0.722 22.59,-2.064 27.953,-10.844c1.594,-2.608 -1.835,-3.233 -3.644,-2.484c-6.835,2.829 -12.07,7.303 -19.95,6.68c-1.998,-0.158 -3.952,0.386 -5.416,1.824c-1.232,1.21 -2.004,3.722 0.134,4.544c3.07,1.182 5.915,2.833 8.984,4.015c-0.045,-1.521 -0.09,-3.044 -0.135,-4.565c-3.163,3.658 -6.691,5.873 -11.615,6.067c0.038,2.104 0.077,4.209 0.115,6.313c4.174,-1.605 8.416,-2.686 12.792,-3.577c-0.026,-2.197 -0.052,-4.395 -0.078,-6.592c-3.588,0.771 -7.162,0.817 -10.816,0.819c0.726,1.672 1.451,3.344 2.177,5.016c2.376,-2.845 4.739,-3.568 8.429,-3.107c1.134,-2.31 2.268,-4.619 3.401,-6.929c-2.338,0.011 -4.676,0.026 -7.014,0.041c-2.228,0.014 -4.786,1.506 -5.567,3.646c-0.014,0.038 -0.027,0.077 -0.042,0.115c2.942,-0.699 5.884,-1.399 8.825,-2.099c-0.372,-1.018 -0.64,-2.436 -0.815,-3.271c-1.889,1.498 -3.778,2.996 -5.667,4.494c3.998,-0.221 8.024,-1.713 12.029,-1.228c2.332,0.283 6.576,-1.24 6.419,-4.216c-0.018,-0.328 -0.034,-0.658 -0.053,-0.987c-0.092,-1.7 -1.754,-2.238 -3.205,-2.224c-5.425,0.056 -8.097,-1.963 -11.629,-5.731c-0.808,-0.863 -2.793,0.009 -3.057,1.026Z" style="fill-rule:nonzero;"/><path d="M255.811,178.576c-3.953,5.741 -9.183,9.417 -15.092,12.984c-4.853,2.93 -14.589,6.694 -16.065,12.827c-0.829,3.446 3.358,3.465 5.538,2.628c3.318,-1.272 6.186,-3.691 9.172,-5.58c3.699,-2.339 7.479,-4.518 11.058,-7.044c4.554,-3.214 12.132,-10.026 8.672,-16.291c-0.69,-1.249 -2.67,-0.416 -3.283,0.476Z" style="fill-rule:nonzero;"/><path d="M260.676,337.178c-11.813,7.248 -23.832,13.206 -33.024,23.943c2.742,0.835 5.483,1.67 8.226,2.505c4.725,-6.092 10.743,-10.688 17.893,-13.563c-1.349,-1.919 -2.697,-3.837 -4.046,-5.755c-10.272,8.199 -19.737,18.479 -22.416,31.755c-1.197,5.935 8.992,3.854 10.131,-0.436c3.433,-12.927 13.341,-22.813 23.231,-31.255c-2.429,-0.739 -4.857,-1.479 -7.287,-2.219c-7.31,11.592 -19.386,23.261 -19.354,37.945c0.012,5.504 10.369,2.052 10.688,-2.508c0.891,-12.746 9.427,-23.973 16.646,-34.055c2.944,-4.113 -4.021,-4.762 -6.364,-2.965c-11.793,9.048 -23.985,20.55 -27.691,35.491c3.377,-0.146 6.754,-0.29 10.131,-0.436c2.021,-10.956 9.006,-19.494 17.584,-26.245c4.757,-3.744 0.974,-7.734 -4.046,-5.755c-9.561,3.771 -18.09,10.075 -24.107,18.438c-1.423,1.977 -0.292,4.206 1.997,4.603c2.733,0.474 5.358,-0.969 7.011,-3.042c7.563,-9.485 17.991,-16.681 26.465,-25.331c1.216,-1.242 -0.722,-1.695 -1.668,-1.115Z" style="fill-rule:nonzero;"/><path d="M238.988,377.906c-1.429,5.296 -3.374,10.54 -6.024,15.35c2.037,-0.687 4.074,-1.373 6.111,-2.06c-3.023,-1.042 -5.541,0.133 -7.787,2.221c2.453,0.143 4.907,0.284 7.361,0.427c0.088,-4.45 -0.368,-7.581 2.461,-11.35c-2.626,-0.156 -5.252,-0.313 -7.879,-0.47c-0.704,3.915 -1.991,7.116 -5.24,9.541c-1.385,1.033 -3.256,3.242 -1.533,4.895c1.567,1.504 4.76,0.907 6.299,-0.332c4.912,-3.952 7.602,-8.231 8.76,-14.459c0.914,-4.918 -6.173,-2.72 -7.879,-0.47c-3.5,4.616 -3.784,9.068 -3.539,14.65c0.163,3.717 5.824,1.997 7.361,0.427c-1.398,0.494 -1.403,0.506 -0.017,0.035c0.919,-0.398 1.786,-1.027 2.341,-1.874c1.061,-1.616 1.331,-4.265 1.789,-6.129c0.94,-3.834 1.137,-7.231 0.177,-11.06c-0.301,-1.199 -2.547,-0.14 -2.762,0.658Z" style="fill-rule:nonzero;"/><path d="M113.534,311.458c-21.551,25.173 -56.689,36.755 -70.639,68.625c-2.352,5.373 7.515,4.056 9.562,1.655c2.413,-2.828 7.182,-8.647 2.594,-11.518c-4.908,-3.071 -8.667,5.308 -10.76,7.734c3.187,0.552 6.374,1.104 9.562,1.655c6.008,-14.316 18.16,-24.77 29.757,-34.57c11.761,-9.938 23.606,-19.797 31.78,-33.018c0.735,-1.188 -1.28,-1.236 -1.856,-0.563Z" style="fill-rule:nonzero;"/><path d="M84.292,341.345c-6.161,6.148 -10.186,13.228 -14.279,20.876c-2.003,3.739 -3.996,7.483 -6.141,11.145c-1.568,2.679 -5.219,5.498 -5.395,8.629c-0.141,2.501 3.26,2.762 4.938,2.375c7.366,-1.694 10.518,-11.863 12.877,-18.09c2.982,-7.87 5.358,-17.352 10.39,-24.207c1.088,-1.482 -1.635,-1.483 -2.39,-0.728Z" style="fill-rule:nonzero;"/><path d="M276.479,1.056c-0.004,3.724 0.182,7.436 0.38,11.153c0.206,3.846 -0.201,8.198 0.984,11.867c0.146,0.451 0.979,0.068 1.064,-0.254c0.899,-3.381 0.317,-6.959 0.102,-10.425c-0.266,-4.257 -0.654,-8.495 -0.741,-12.762c-0.018,-0.907 -1.788,-0.365 -1.789,0.421Z" style="fill-rule:nonzero;"/><path d="M278.345,52.087c-0.385,5.396 -0.496,10.788 -0.692,16.191c-0.192,5.308 -1.354,10.558 -1.472,15.847c-0.029,1.301 2.046,0.305 2.348,-0.329c4.631,-9.741 2.735,-21.84 1.873,-32.191c-0.09,-1.086 -1.995,-0.38 -2.057,0.482Z" style="fill-rule:nonzero;"/><path d="M317.337,96.013c2.528,-4.112 4.926,-8.302 7.534,-12.364c2.734,-4.259 6.188,-8.152 8.57,-12.617c0.737,-1.384 -1.305,-1.129 -1.951,-0.595c-7.41,6.135 -13.425,16.307 -16.186,25.455c-0.359,1.194 1.647,0.75 2.033,0.121Z" style="fill-rule:nonzero;"/><path d="M352.52,44.044c3.805,-6.628 9.852,-12.157 12.792,-19.238c0.398,-0.96 -1.284,-0.646 -1.638,-0.284c-5.443,5.56 -11.068,11.894 -13.571,19.379c-0.463,1.384 1.97,0.922 2.417,0.143Z" style="fill-rule:nonzero;"/><path d="M345.955,131.403c10.023,-6.28 19.677,-13.883 28.043,-22.268c0.653,-0.654 -0.225,-1.153 -0.86,-0.835c-10.741,5.379 -19.1,14.532 -28.345,21.989c-1.214,0.98 0.103,1.777 1.162,1.114Z" style="fill-rule:nonzero;"/><path d="M385.362,98.882c0.047,0 0.09,-0.072 0.023,-0.072c-0.047,0 -0.09,0.072 -0.023,0.072Z" style="fill-rule:nonzero;"/><path d="M397.965,90.121c6.354,-5.677 13.418,-10.661 20.165,-15.86c6.185,-4.767 13.985,-9.075 19.062,-15.035c0.756,-0.889 -0.241,-1.54 -1.129,-1.094c-7.104,3.568 -13.442,9.564 -19.724,14.413c-6.886,5.315 -13.177,11.138 -19.558,17.027c-0.833,0.77 0.606,1.064 1.184,0.549Z" style="fill-rule:nonzero;"/><path d="M180.062,3.154c1.512,7.772 4.232,16.306 8.308,23.128c0.471,0.786 2.044,0.174 2.047,-0.68c0.031,-8.103 -5.198,-15.834 -7.781,-23.303c-0.367,-1.059 -2.77,-0.153 -2.574,0.855Z" style="fill-rule:nonzero;"/><path d="M201.041,62.424c1.194,3.709 2.854,7.108 4.696,10.533c2.002,3.72 3.557,7.661 5.69,11.299c0.435,0.74 1.943,0.165 1.931,-0.641c-0.13,-8.026 -6.341,-15.322 -9.651,-22.348c-0.558,-1.183 -3.062,-0.07 -2.666,1.157Z" style="fill-rule:nonzero;"/><path d="M91.38,24.509c3.245,3.063 6.133,6.419 8.944,9.88c3.162,3.892 5.594,8.56 9.311,11.95c0.52,0.474 1.783,-0.121 1.569,-0.854c-2.514,-8.618 -11.109,-16.798 -17.838,-22.302c-0.77,-0.63 -2.857,0.504 -1.986,1.326Z" style="fill-rule:nonzero;"/><path d="M137.125,78.679c2.67,2.819 5.242,5.728 7.699,8.735c2.643,3.236 4.637,7.145 7.721,9.984c0.607,0.559 1.941,-0.145 1.76,-0.957c-0.842,-3.768 -3.549,-6.934 -5.883,-9.915c-2.671,-3.413 -5.686,-6.509 -8.801,-9.514c-0.918,-0.885 -3.527,0.578 -2.496,1.667Z" style="fill-rule:nonzero;"/><path d="M32.589,86.616c12.657,7.236 25.563,14.029 38.275,21.171c13.153,7.39 25.004,16.358 37.49,24.739c0.783,0.526 2.918,-0.383 2.037,-1.359c-9.624,-10.685 -23.071,-18.102 -35.503,-25.018c-13.355,-7.43 -27.256,-13.863 -40.731,-21.072c-0.852,-0.455 -2.699,0.891 -1.568,1.539Z" style="fill-rule:nonzero;"/><path d="M27.069,152.31c17.238,3.301 34.599,6.272 51.913,9.133c0.674,0.111 1.795,-0.889 0.783,-1.193c-16.813,-5.069 -34.798,-6.152 -52.087,-8.867c-0.53,-0.084 -1.401,0.776 -0.609,0.927Z" style="fill-rule:nonzero;"/><path d="M34.88,204.598c11.474,2.081 23.599,2.567 35.233,3.037c0.575,0.022 2.01,-1.173 0.982,-1.498c-11.146,-3.52 -23.747,-1.284 -35.229,-3.043c-0.86,-0.131 -2.268,1.272 -0.986,1.504Z" style="fill-rule:nonzero;"/><path d="M418.994,162.44c18.943,-13.453 38.185,-26.527 57.361,-39.648c9.587,-6.561 19.202,-13.08 28.834,-19.574c9.644,-6.5 20.164,-12.438 29.024,-19.982c0.962,-0.819 -0.341,-1.545 -1.158,-1.123c-9.842,5.085 -18.885,12.102 -28.049,18.307c-9.615,6.51 -19.205,13.058 -28.772,19.637c-19.653,13.517 -39.035,27.389 -58.48,41.197c-1.348,0.955 0.144,1.963 1.24,1.186Z" style="fill-rule:nonzero;"/><path d="M464.684,185.561c12.547,-6.518 26.163,-12.271 37.271,-21.158c0.987,-0.79 0.198,-1.849 -0.888,-1.263c-12.559,6.778 -24.797,14.214 -37.282,21.142c-1.174,0.651 -0.152,1.825 0.899,1.279Z" style="fill-rule:nonzero;"/><path d="M484.736,216.819c9.337,0.595 18.314,-0.399 27.497,-2.068c10.719,-1.949 21.433,-3.882 32.154,-5.799c0.941,-0.169 2.439,-2.13 0.732,-2.244c-20.014,-1.333 -39.317,8.352 -59.42,8.147c-0.999,-0.011 -2.501,1.866 -0.963,1.964Z" style="fill-rule:nonzero;"/><path d="M74.169,395.369c2.871,5.412 8.959,6.905 14.626,7.372c5.794,0.477 13.605,0.541 18.999,-1.926c0.554,-0.253 1.868,-1.627 0.642,-2.012c-4.281,-1.342 -9.668,0.277 -14.073,0.528c-6.623,0.378 -13.057,-0.299 -17.919,-5.199c-0.666,-0.671 -2.798,0.25 -2.275,1.237Z" style="fill-rule:nonzero;"/></g></svg>