<?xml version="1.0" encoding="UTF-8" standalone="no"?><!DOCTYPE svg PUBLIC "-//W3C//DTD SVG 1.1//EN" "http://www.w3.org/Graphics/SVG/1.1/DTD/svg11.dtd"><svg width="100%" height="100%" viewBox="0 0 500 369" version="1.1" xmlns="http://www.w3.org/2000/svg" xmlns:xlink="http://www.w3.org/1999/xlink" xml:space="preserve" style="fill-rule:evenodd;clip-rule:evenodd;stroke-linejoin:round;stroke-miterlimit:1.41421;"><g id="mouse"><path d="M107.519,110.659c-12.404,1.914 -22.978,8.526 -33.124,15.611c-10.949,7.645 -20.522,17.62 -28.105,28.596c-5.381,7.787 -8.896,15.827 -11.863,24.758c-1.214,3.652 -2.33,7.338 -3.621,10.965c-0.59,1.658 -1.242,3.293 -1.985,4.89c-0.272,0.585 -0.505,1.159 -0.742,1.759c-0.029,0.074 -1.325,6.03 -0.741,2.668c-1.039,5.991 4.802,7.361 9.219,5.149c7.052,-3.531 8.638,-13.09 10.563,-19.962c1.121,-3.998 2.195,-8.01 3.434,-11.975c1.281,-4.104 2.325,-5.502 3.755,-8.414c11.346,-23.104 33.591,-37.268 53.697,-51.797c0.83,-0.603 0.907,-2.463 -0.487,-2.248Z" style="fill-rule:nonzero;"/><path d="M106.852,126.511c5.224,-12.854 6.861,-26.89 10.008,-40.341c3.149,-13.463 8.233,-26.49 16.867,-37.42c10.957,-13.87 27.004,-22.614 43.802,-27.312c34.174,-9.556 75.73,-2.07 101.569,23.095c11.369,11.071 19.511,26.137 21.976,41.848c2.99,19.057 -2.505,41.069 -14.243,56.446c-8.033,10.521 -21.889,19.792 -34.408,26.501c-12.474,6.683 -27.826,12.719 -41.988,8.238c-6.732,-2.13 -16.63,11.07 -8.719,14.323c19.299,7.937 42.229,-2.206 59.076,-11.727c18.518,-10.463 35.352,-24.229 45.393,-43.218c12.945,-24.482 14.744,-52.837 3.496,-78.177c-7.615,-17.154 -21.198,-30.819 -37.293,-40.183c-32.081,-18.663 -74.293,-20.027 -108.138,-5.468c-18.153,7.81 -34.212,20.286 -44.761,37.151c-7.027,11.237 -11.012,23.866 -13.602,36.789c-2.597,12.962 -4.496,26.679 -4.592,39.902c-0.023,3.367 4.77,1.49 5.557,-0.447Z" style="fill-rule:nonzero;"/><path d="M155.496,14.3c-1.557,-1.255 -3.118,-3.604 -4.778,-4.526c-2.242,-1.245 -4.533,-2.388 -6.787,-3.611c-4.295,-2.331 -9.773,-3.289 -14.519,-4.217c-10.75,-2.103 -22.067,-1.042 -32.628,1.529c-21.76,5.299 -41.271,21.945 -54.032,39.865c-11.315,15.89 -15.26,33.715 -12.035,52.801c1.485,8.797 3.91,17.5 7.69,25.595c2.978,6.374 7.477,13.915 14.318,16.68c6.529,2.64 16.603,-7.687 9.25,-12.21c-10.556,-6.494 -14.585,-22.071 -16.786,-33.41c-3.06,-15.759 -1.227,-30.332 7.743,-43.953c9.956,-15.118 25.588,-28.475 42.9,-34.096c9.324,-3.026 19.139,-3.41 28.846,-2.76c4.867,0.326 9.561,1.414 14.352,2.229c2.151,0.366 4.252,0.786 6.372,1.313c2.704,0.671 5.426,0.595 8.147,1.322c1.063,0.283 3.094,-1.627 1.947,-2.551Z" style="fill-rule:nonzero;"/><path d="M296.618,59.435c9.651,1.558 19.898,0.39 29.677,1.148c10.323,0.801 20.523,2.687 30.59,5.071c20.062,4.753 39.283,13.162 56.596,24.33c33.595,21.672 57.916,56.881 58.878,97.604c0.185,7.838 -1.005,15.321 -1.916,23.063c4.816,-2.159 9.631,-4.318 14.447,-6.477c-1.707,-1.464 -3.095,-2.275 -5.19,-3.058c-5.331,-1.989 -13.083,3.498 -10.905,9.57c0.708,1.976 1.389,3.563 2.771,5.179c4.742,5.54 13.179,-1.346 14.447,-6.477c5.069,-20.513 2.629,-43.75 -4.194,-63.535c-6.53,-18.941 -18.352,-35.834 -32.779,-49.594c-30.251,-28.852 -72.027,-45.126 -113.541,-47.059c-12.11,-0.563 -25.986,-0.961 -37.447,3.55c-2.224,0.878 -5.721,5.994 -1.434,6.685Z" style="fill-rule:nonzero;"/><path d="M26.427,209.718c12.237,8.03 26.56,12.484 40.361,17.096c13.71,4.58 27.749,8.513 41.867,11.622c28.38,6.252 57.253,9.643 86.286,10.589c30.916,1.008 61.766,-1.714 92.586,-3.786c31.803,-2.138 63.595,-4.568 95.252,-8.331c31.559,-3.751 62.965,-9.014 93.844,-16.574c3.547,-0.868 6.727,-4.443 7.478,-7.949c0.815,-3.808 -2.004,-7.829 -6.219,-7.087c-5.344,0.941 -10.666,1.688 -15.974,2.847c-5.051,1.104 -9.432,10.308 -2.574,12.016c5.141,1.281 10.002,1.509 15.237,0.587c0.42,-5.012 0.839,-10.023 1.259,-15.036c-61.801,15.133 -125.488,20.098 -188.798,24.335c-30.767,2.059 -61.463,4.527 -92.322,3.408c-28.96,-1.051 -57.545,-5.299 -85.868,-11.248c-12.586,-2.645 -25.021,-5.898 -37.405,-9.353c-13.409,-3.74 -26.567,-8.54 -40.319,-10.843c-3.664,-0.615 -8.759,5.037 -4.691,7.707Z" style="fill-rule:nonzero;"/><path d="M470.674,218.315c9.276,0.992 21.333,7.213 17.263,18.56c-2.289,6.38 -7.808,10.396 -13.562,13.519c-15.559,8.445 -34.802,10.905 -52.121,13.023c-51.884,6.344 -104.024,9.416 -155.64,18.129c-17.615,2.974 -35.431,3.964 -52.988,7.535c-16.937,3.445 -37.874,8.997 -47.229,24.978c-3.203,5.472 -2.339,11.615 2.859,15.254c4.937,3.456 12.493,3.395 18.218,3.598c13.949,0.495 27.984,-1.574 41.755,-3.557c26.168,-3.767 52.868,-5.929 79.279,-6.634c15.8,-0.422 32.017,-0.387 47.523,3.042c2.872,0.636 5.195,1.306 7.406,2.189c1.156,0.463 2.275,1.01 3.372,1.598c0.629,0.337 3.258,2.222 2.375,1.481c0.76,0.637 1.424,1.375 2.035,2.152c0.211,0.269 0.938,1.596 0.165,0.188c0.222,0.403 0.389,0.833 0.555,1.261c0.124,0.319 0.458,1.81 0.134,0.16c0.085,0.434 0.094,0.878 0.101,1.317c-0.026,-1.731 0.04,-0.594 -0.087,-0.042c0.464,-2.015 0.086,-0.343 -0.242,0.26c1.129,-2.075 0.022,-0.245 -0.383,0.224c1.652,-1.911 -0.046,-0.096 -0.498,0.283c-1.795,1.504 0.56,-0.315 -0.71,0.517c-0.745,0.487 -1.522,0.924 -2.301,1.356c-3.371,1.873 -6.159,2.864 -10.641,4.352c-10.028,3.329 -20.478,5.518 -30.853,7.445c-10.072,1.873 -20.059,3.83 -30.205,5.302c-3.765,0.546 -8.088,1.787 -11.342,2.417c-1.618,0.313 -3.221,0.701 -4.824,1.078c-0.527,0.124 -1.055,0.252 -1.581,0.381c-2.104,0.515 -1.865,0.402 -0.387,0.161c-2.396,0.39 -4.625,2.044 -5.157,4.526c-0.446,2.083 1.086,4.205 3.366,3.835c-0.48,0.077 0.902,-0.042 1.826,-0.065c0.854,-0.021 1.709,-0.032 2.563,-0.044c2.549,-0.034 4.904,0.005 7.711,0.038c7.028,0.084 14.34,-1.371 21.301,-2.27c16.619,-2.146 33.148,-4.587 49.134,-9.895c11.411,-3.788 27.172,-10.486 27.792,-24.502c0.525,-11.883 -14.313,-17.065 -23.396,-19.25c-15.703,-3.777 -32.522,-3.682 -48.57,-3.387c-17.098,0.314 -34.175,1.625 -51.188,3.297c-9.969,0.979 -19.987,1.928 -29.909,3.317c-13.504,1.89 -27.014,4.076 -40.68,4.274c-5.272,0.076 -11.312,-0.064 -14.984,-2.625c0.253,0.177 0.296,-0.045 0.138,0.349c0.634,-1.578 2.547,-3.473 4.675,-4.921c7.239,-4.927 16.03,-7.375 24.424,-9.484c9.643,-2.422 19.512,-3.892 29.358,-5.193c22.598,-2.986 45.117,-6.425 67.715,-9.404c29.348,-3.868 58.832,-6.41 88.252,-9.625c26.63,-2.911 54.483,-4.424 79.222,-15.653c10.935,-4.964 21.986,-12.681 26.264,-24.413c2.661,-7.298 1.721,-15.647 -3.888,-21.279c-5.451,-5.475 -13.838,-6.263 -21.149,-5.777c-2.897,0.191 -6.528,6.169 -2.266,6.624Z" style="fill-rule:nonzero;"/><path d="M96.831,151.291c-5.386,5.505 -7.1,13.01 -6.164,20.514c0.479,3.845 4.361,4.163 7.255,2.647c3.84,-2.01 6.913,-5.093 8.682,-9.072c1.784,-4.014 1.401,-8.138 0.802,-12.338c-0.751,-5.26 -6.369,-4.354 -9.558,-1.871c-5.278,4.109 -7.233,9.53 -6.603,16.09c0.769,8.001 11.017,3.634 13.235,-1.072c1.519,-3.221 2.268,-7.304 1.425,-10.771c-0.725,-2.984 -4.727,-3.322 -7.062,-2.576c-3.36,1.074 -5.493,3.723 -6.55,6.963c-0.156,0.477 -0.445,3.96 -0.298,2.235c-0.046,0.547 -0.675,3.626 -0.021,1.817c4.303,-0.877 8.607,-1.754 12.912,-2.63c-0.22,-1.03 0.104,-3.705 -0.59,-1.736c0.549,-1.556 -0.859,1.089 0.248,-0.354c0.423,-0.55 0.895,-1.059 1.317,-1.608c-3.509,0.284 -7.019,0.568 -10.528,0.853c1.229,2.448 1.837,5.704 -0.802,7.212c2.419,0.882 4.837,1.765 7.255,2.647c-0.926,-5.437 0.489,-9.387 1.731,-14.565c1.01,-4.203 -4.395,-4.727 -6.686,-2.385Z" style="fill-rule:nonzero;"/><path d="M31.809,203.184c0.095,-4.468 -5.436,-6.165 -9.018,-6.749c-5.24,-0.854 -10.479,2.412 -14.496,5.37c-5.632,4.146 -8.086,12.357 -1.846,16.956c4.986,3.675 12.194,3.281 17.887,1.989c7.93,-1.8 14.228,-8.481 15.975,-16.303c0.672,-3.007 -0.887,-5.555 -3.846,-6.295c-12.592,-3.146 -28.485,-2.356 -34.251,11.562c-1.185,2.859 -1.269,6.453 1.821,8.161c12.966,7.166 30.725,2.602 35.03,-12.488c0.927,-3.248 -1.113,-6.228 -4.256,-6.966c-11.826,-2.777 -24.124,-1.046 -32.473,8.417c-2.03,2.301 -2.861,6.483 -0.69,8.957c3.037,3.46 7.898,1.314 10.874,-0.881c4.518,-3.332 9.93,-2.494 15.123,-1.292c-1.419,-2.321 -2.837,-4.644 -4.256,-6.966c0.015,-0.051 0.876,-1.063 1.451,-1.309c-1.092,0.466 -2.147,0.5 -3.324,0.561c-2.427,0.128 -4.959,-0.658 -7.097,-1.74c0.607,2.721 1.215,5.441 1.821,8.161c0.952,-2.509 0.439,-0.895 0.14,-0.716c1.005,-0.602 2.671,-0.557 3.77,-0.644c3.244,-0.257 6.684,0.205 9.84,0.921c-1.281,-2.099 -2.563,-4.197 -3.846,-6.295c-0.403,1.993 0.376,-0.337 -0.395,1.393c0.584,-1.311 -1.068,1.087 0.242,-0.233c-0.598,0.603 -0.641,0.613 -2.352,1.121c-1.386,0.411 -5.009,0.247 -6.124,-0.172c-1.67,-0.626 -0.968,-0.203 -1.668,-1.059c0.556,0.679 0.563,1.31 0.443,2.147c-0.113,0.788 -1.815,2.615 -0.536,1.512c3.494,-3.019 7.823,-0.574 12.079,-1.978c2.24,-0.736 3.926,-2.767 3.978,-5.142Z" style="fill-rule:nonzero;"/><path d="M145.128,75.509c18.871,-24.972 50.267,-31.95 79.864,-25.505c28.927,6.301 55.313,28.354 51.989,60.342c-1.735,16.709 -11.601,29.621 -25.676,38.18c-14.675,8.922 -31.478,12.218 -47.246,18.419c-2.823,1.11 -5.082,6.229 -0.53,6.329c20.585,0.448 42.648,-8.395 59.144,-20.338c17.071,-12.36 26.718,-31.934 26.462,-52.924c-0.396,-32.708 -28.488,-54.215 -58.148,-60.592c-30.857,-6.635 -76.437,1.896 -87.937,35.697c-0.471,1.387 1.55,1.092 2.078,0.392Z" style="fill-rule:nonzero;"/><path d="M74.05,149.422c-1.688,-2.49 -6.491,1.311 -7.488,2.655c-1.396,1.884 -2.337,3.855 -2.839,6.148c-0.498,2.28 -0.306,4.686 0.201,6.938c0.707,3.143 2.145,3.873 5.208,3.968c2.462,0.076 4.837,-2.198 5.856,-4.223c2.508,-4.981 2.824,-10.288 1.957,-15.721c-0.779,-4.877 -5.824,-4.009 -8.848,-1.731c-6.043,4.552 -8.033,11.396 -7.532,18.7c0.255,3.726 3.852,4.817 6.989,3.924c4.006,-1.142 8.396,-3.926 9.869,-8.04c1.2,-3.357 1.289,-7.861 -2.427,-9.714c-4.135,-2.062 -9.974,1.805 -10.613,6.168c-0.253,1.721 -0.224,2.987 0.302,4.654c-0.449,-1.427 0.037,-2.647 0.905,-3.911c2.036,-1.597 2.417,-2.008 1.145,-1.232c-0.507,0.248 -1.021,0.484 -1.538,0.708c2.794,0.562 5.589,1.124 8.383,1.687c-0.357,-1.473 -0.494,-3.216 -0.332,-4.183c0.189,-0.709 0.196,-0.802 0.018,-0.277c0.342,-0.663 0.342,-0.734 0.003,-0.213c0.481,-0.597 0.497,-0.674 0.046,-0.231c0.33,-0.322 0.678,-0.625 1.041,-0.91c-2.861,-0.151 -5.723,-0.304 -8.583,-0.456c0.659,2.993 0.938,6.139 -0.308,9.004c1.952,-1.407 3.904,-2.815 5.856,-4.223c-0.802,0.024 -1.583,0.142 -2.351,0.396c1.733,0.632 3.466,1.265 5.199,1.896c-1.199,-2.133 -1.402,-4.151 -0.852,-6.5c0.397,-1.689 1.877,-3.595 0.733,-5.281Z" style="fill-rule:nonzero;"/></g></svg>