<?xml version="1.0" encoding="UTF-8" standalone="no"?><!DOCTYPE svg PUBLIC "-//W3C//DTD SVG 1.1//EN" "http://www.w3.org/Graphics/SVG/1.1/DTD/svg11.dtd"><svg width="100%" height="100%" viewBox="0 0 532 265" version="1.1" xmlns="http://www.w3.org/2000/svg" xmlns:xlink="http://www.w3.org/1999/xlink" xml:space="preserve" style="fill-rule:evenodd;clip-rule:evenodd;stroke-linejoin:round;stroke-miterlimit:1.41421;"><g id="mouth"><path d="M21.938,41.288c4.684,7.777 13.73,12.129 21.779,15.732c9.93,4.445 20.507,7.395 31.035,10.026c21.064,5.265 42.961,8.57 64.44,11.701c31.354,4.571 63.196,5.144 94.824,5.724c32.67,0.598 64.943,1.265 97.505,-2.18c19.509,-2.063 38.91,-5.065 58.249,-8.335c18.711,-3.164 37.354,-5.819 55.794,-10.445c11.716,-2.939 23.261,-6.513 34.877,-9.815c9.826,-2.793 16.572,-1.543 23.711,-9.576c4.836,-5.439 0.594,-14.296 -6.922,-11.384c-1.852,0.717 -3.43,1.464 -4.896,2.855c1.388,-0.798 2.774,-1.595 4.162,-2.393c-0.138,0.039 -0.274,0.078 -0.412,0.117c-4.243,1.209 -8.189,5.729 -7.947,10.284c0.249,4.69 4.888,6.031 8.771,4.925c0.137,-0.039 0.274,-0.078 0.412,-0.117c-1.985,-0.097 -3.97,-0.192 -5.955,-0.288c0.949,0.364 7.256,1.153 2.416,0.712c0.413,-5.04 0.826,-10.079 1.238,-15.119c-0.007,0.004 -0.015,0.007 -0.021,0.011c1.474,-0.475 2.948,-0.949 4.423,-1.424c-3.024,0.457 -5.667,0.662 -8.553,1.977c2.576,-1.173 -2.243,0.828 -2.995,1.127c-2.132,0.846 -4.266,1.687 -6.4,2.524c-7.757,3.046 -16.049,5.318 -23.977,7.854c-30.394,9.724 -62.326,14.334 -93.8,19.085c-32.489,4.904 -65.12,7.733 -97.989,7.187c-32.184,-0.536 -64.414,-0.167 -96.531,-2.631c-26.342,-2.02 -52.459,-6.904 -78.49,-11.292c-11.979,-2.019 -23.837,-4.6 -35.432,-8.24c-10.264,-3.223 -19.195,-8.35 -28.169,-14.125c-3.014,-1.94 -6.803,2.773 -5.147,5.523Z" style="fill-rule:nonzero;"/><path d="M12.213,33.176c12.264,6.255 28.12,5.366 41.474,4.109c14.938,-1.407 29.628,-4.738 44.237,-8.034c14.749,-3.327 29.286,-5.478 44.448,-5.243c13.921,0.216 27.777,2.663 41.304,5.81c14.121,3.285 28.013,7.51 41.924,11.568c14.051,4.1 27.329,6.841 41.904,3.77c13.804,-2.908 25.868,-10.021 38.125,-16.664c10.264,-5.563 21.166,-9.19 32.786,-10.399c18.167,-1.891 36.888,0.457 54.887,2.869c17.405,2.333 35.478,4.586 52.447,9.188c11.008,2.985 21.929,6.251 33.085,8.662c9.744,2.105 23.236,5.271 32.291,-0.604c4.036,-2.619 8.212,-7.678 6.227,-12.858c-1.896,-4.947 -8.232,-4.713 -12.072,-2.428c-1.857,1.105 -0.848,0.57 -2.866,0.997c-6.604,1.396 -12.222,13.391 -3.347,15.617c3.373,0.847 6.253,0.566 9.608,-0.245c-1.132,-5.457 -2.264,-10.912 -3.396,-16.369c-1.562,1.035 2.564,-0.891 0.634,-0.193c-1.935,0.699 2.267,-0.304 0.017,0.026c-1.524,0.224 -3.088,0.199 -4.623,0.164c1.76,0.04 -1.303,-0.139 -1.314,-0.14c-0.986,-0.09 -1.969,-0.219 -2.95,-0.345c-2.499,-0.321 -4.981,-0.772 -7.456,-1.243c-9.307,-1.772 -18.472,-4.277 -27.604,-6.776c-24.598,-6.732 -50.376,-10.24 -75.726,-12.735c-14.118,-1.39 -28.528,-2.303 -42.694,-1.125c-12.678,1.055 -24.604,4.773 -36.117,10.045c-12.343,5.651 -23.258,13.648 -36.429,17.48c-13.499,3.928 -26.493,0.301 -39.612,-3.222c-34.718,-9.321 -69.32,-18.104 -105.544,-13.497c-18.667,2.375 -36.742,8.459 -55.082,12.51c-9.064,2.002 -18.269,3.391 -27.513,4.215c-9.598,0.854 -19.179,0.052 -28.776,0.279c-1.907,0.046 -4.755,3.547 -2.277,4.811Z" style="fill-rule:nonzero;"/><path d="M12.502,33.187c0.689,9.353 9.715,17.08 15.797,23.485c9.15,9.635 17.145,20.368 26.246,30.088c17.612,18.807 36.291,36.277 57.843,50.514c20.124,13.294 42.277,23.028 65.622,29.05c26.883,6.934 55.389,6.449 82.949,6.45c7.453,0 15.017,-11.198 7.76,-16.398c-4.369,-3.131 -10.404,-2.664 -14.5,0.931c-4.665,4.094 -2.765,9.896 1.092,13.455c3.109,-5.051 6.218,-10.102 9.326,-15.153c-25.9,-0.001 -51.795,-0.063 -77.234,-5.484c-22.431,-4.779 -43.838,-13.733 -63.621,-25.243c-21.393,-12.445 -40.325,-28.33 -58.305,-45.229c-9.206,-8.653 -17.753,-17.879 -26.616,-26.865c-7.121,-7.219 -15.988,-12.898 -21.157,-21.899c-1.467,-2.556 -5.385,-0.195 -5.202,2.298Z" style="fill-rule:nonzero;"/><path d="M244.415,169.297c4.267,3.704 10.279,3.336 15.687,3.91c6.678,0.709 13.67,0.077 20.354,-0.474c13.103,-1.079 25.998,-3.335 38.813,-6.24c25.136,-5.699 49.468,-14.892 72.254,-26.912c22.915,-12.088 44.133,-27.647 62.725,-45.672c8.688,-8.422 16.113,-17.852 24.916,-25.899c8.319,-7.607 18.098,-16.468 20.379,-28.038c0.439,-2.227 -0.107,-4.454 -1.122,-6.43c-3.843,-7.483 -13.045,-0.769 -14.762,4.757c-2.463,7.923 -8.72,13.661 -15.141,19.531c-8.541,7.81 -15.699,16.922 -23.966,25.031c-17.321,16.995 -37.048,31.168 -58.429,42.601c-20.845,11.146 -43.259,19.107 -66.229,24.563c-11.816,2.807 -23.882,4.743 -35.921,6.3c-6.354,0.822 -13.031,0.99 -19.279,2.358c-6.16,1.349 -12.578,1.213 -18.129,4.441c-1.634,0.951 -4.248,4.352 -2.15,6.173Z" style="fill-rule:nonzero;"/><path d="M45.343,55.093c-0.784,7.435 1.831,16.623 4.694,23.463c2.868,6.853 11.814,-0.332 12.011,-5.313c0.212,-5.381 1.079,-10.693 1.108,-16.092c-4.027,1.782 -8.055,3.563 -12.083,5.346c2.075,7.953 2.608,16.323 5.708,23.996c2.799,6.928 12.408,0.662 13.426,-4.326c1.086,-5.334 1.797,-10.719 2.863,-16.051c-4.243,1.367 -8.486,2.734 -12.73,4.102c3.102,8.86 3.276,18.404 7.015,27.079c3.386,7.854 13.653,-0.333 13.867,-6.134c0.289,-7.813 0.835,-15.623 0.636,-23.444c-4.44,1.423 -8.882,2.847 -13.322,4.271c1.31,10.422 0.783,20.934 5.037,30.79c3.491,8.087 14.104,-0.327 14.307,-6.328c0.292,-8.657 0.532,-17.622 2.626,-26.07c-4.535,0.916 -9.069,1.832 -13.604,2.749c-0.518,13.574 -1.642,26.582 5.051,38.949c0.587,-2.738 1.174,-5.476 1.76,-8.214c-0.215,0.313 -0.431,0.625 -0.646,0.938c1.285,-1.127 2.569,-2.255 3.854,-3.382c-0.23,0.133 -0.461,0.266 -0.691,0.397c1.465,-0.472 2.931,-0.943 4.396,-1.415c-3.385,0.678 -5.68,1.719 -8.348,3.895c-2.141,1.746 -3.732,5.02 -2.706,7.766c0.161,0.397 0.301,0.802 0.421,1.213c0.596,1.879 2.443,3.057 4.272,3.431c4.985,1.019 9.641,-1.859 12.435,-5.822c1.892,-2.682 3.446,-7.082 0.762,-9.876c-7.543,-7.847 -6.484,-22.227 -6.814,-32.285c-0.096,-2.926 -2.722,-4.623 -5.457,-4.402c-3.816,0.31 -7.291,3.454 -8.147,7.15c-2.284,9.865 -4.003,19.488 -3.806,29.675c4.769,-2.109 9.537,-4.219 14.307,-6.328c-4.19,-8.339 -4.909,-17.929 -5.684,-27.1c-0.307,-3.634 -3.821,-4.937 -6.989,-3.925c-3.635,1.162 -6.163,4.424 -6.333,8.195c-0.358,7.917 -1.642,15.784 -1.508,23.725c4.622,-2.045 9.244,-4.09 13.867,-6.134c-4.217,-8.383 -4.926,-17.757 -7.994,-26.521c-2.363,-6.749 -11.819,-0.453 -12.73,4.103c-1.079,5.395 -2.507,10.704 -3.568,16.108c4.476,-1.442 8.951,-2.884 13.426,-4.326c-3.118,-7.539 -5.352,-15.22 -7.156,-23.171c-0.598,-2.631 -4.183,-2.91 -6.203,-2.264c-3.35,1.07 -5.756,4.111 -5.881,7.608c-0.19,5.372 -1.025,10.681 -1.034,16.067c4.004,-1.771 8.007,-3.541 12.011,-5.313c-3.361,-6.225 -5.621,-15.341 -11.301,-19.754c-1.778,-1.378 -4.934,1.17 -5.125,2.974Z" style="fill-rule:nonzero;"/><path d="M431.542,67.303c-0.492,11.952 -1.583,23.907 -2.057,35.876c4.653,-1.491 9.306,-2.983 13.959,-4.475c-0.436,-10.376 3.585,-20.464 7.528,-29.889c-4.186,0.339 -8.372,0.679 -12.558,1.018c-0.09,6.874 -0.405,13.739 0.398,20.584c0.963,8.204 11.542,4.011 13.835,-1.121c3.567,-7.983 5.472,-16.55 8.84,-24.606c-4.746,-0.222 -9.492,-0.443 -14.238,-0.666c-0.909,6.293 0.664,11.49 2.273,17.5c0.643,2.398 3.549,3.375 5.731,3.198c3.869,-0.313 6.541,-2.956 8.44,-6.085c2.723,-4.482 5.55,-8.885 8.638,-13.124c-4.13,0.858 -8.261,1.716 -12.391,2.574c0.275,0.351 0.552,0.701 0.827,1.052c-0.419,-1.076 -0.839,-2.154 -1.258,-3.23c0.179,-0.736 0.202,-0.671 0.069,0.197c-0.325,3.1 1.408,6.611 5.178,5.899c1.814,-0.343 3.31,-0.761 4.948,-1.644c3.044,-1.639 5.565,-5.129 5.406,-8.687c-0.095,-2.109 -0.862,-3.412 -2.095,-5.063c-3.164,-4.238 -10.073,-0.574 -12.391,2.574c-3.948,5.363 -7.264,11.172 -10.657,16.893c4.724,-0.963 9.448,-1.925 14.172,-2.887c-0.944,-3.384 -2.499,-6.785 -2.016,-10.373c1.308,-9.691 -11.527,-7.313 -14.238,-0.665c-3.288,8.063 -5.229,16.576 -8.313,24.705c4.611,-0.374 9.224,-0.747 13.835,-1.121c-1.236,-6.659 -1.652,-13.391 -1.746,-20.152c-0.105,-7.527 -10.8,-3.487 -12.558,1.018c-4.707,12.061 -10.791,23.18 -9.622,36.576c0.793,9.083 14.203,2.651 13.959,-4.475c-0.386,-11.273 1.436,-24.635 -3.623,-35.063c-2.209,-4.563 -8.129,0.1 -8.275,3.662Z" style="fill-rule:nonzero;"/><path d="M434.683,55.11c-4.315,3.803 -4.372,9.88 -5.345,15.193c-1.252,6.835 -2.732,13.568 -4.793,20.209c-2.064,6.649 -4.87,13.008 -7.463,19.456c-0.912,2.27 -5.273,14.341 1.414,13.001c6.531,-1.308 9.887,-8.329 12.497,-13.896c2.885,-6.154 4.815,-12.994 6.337,-19.597c1.488,-6.458 2.375,-13.079 2.764,-19.692c0.254,-4.315 1.287,-13.149 -3.843,-15c-0.567,-0.205 -1.112,-0.076 -1.568,0.326Z" style="fill-rule:nonzero;"/><path d="M0.351,25.468c7.395,11.789 14.829,23.271 20.688,35.938c5.942,12.848 10.971,26.059 16.112,39.237c10.368,26.569 21.605,52.721 36.455,77.139c13.14,21.607 29.173,41.488 50.479,55.422c19.607,12.823 42.44,20.765 65.241,25.619c26.382,5.617 55.895,7.789 82.39,1.711c6.284,-1.441 9.898,-14.015 1.084,-12.945c-22.652,2.746 -44.6,3.182 -67.213,-0.46c-23.202,-3.736 -45.926,-11.068 -66.324,-22.833c-21.837,-12.596 -37.451,-31.687 -51.03,-52.605c-15.536,-23.932 -27.164,-50.189 -38.196,-76.423c-5.889,-14 -11.844,-28.063 -19.08,-41.434c-6.699,-12.378 -14.632,-24.984 -27.113,-32.112c-2.067,-1.179 -4.693,1.833 -3.493,3.746Z" style="fill-rule:nonzero;"/><path d="M267.5,261.128c13.881,3.693 29.573,3.167 43.884,3.239c15.178,0.075 30.716,-1.37 45.18,-6.188c23.961,-7.981 45.467,-22.266 63.399,-39.901c17.923,-17.628 32.212,-38.468 44.334,-60.4c12.075,-21.849 18.631,-46.657 26.969,-70.049c8.485,-23.806 18.698,-48.04 36.997,-66.067c3.903,-3.845 4.822,-11.293 -2.428,-11.277c-6.389,0.014 -12.106,1.674 -17.043,5.893c-3.51,2.999 -2.475,9.253 2.957,7.603c1.656,-0.503 3.229,0.028 4.907,0.185c2.065,0.192 4.175,0.004 6.247,0c-0.81,-3.759 -1.619,-7.518 -2.428,-11.276c-37.104,36.537 -44.023,89.233 -65.053,134.691c-20.143,43.54 -55.98,83.678 -102.507,98.687c-13.405,4.323 -28.332,4.69 -42.299,4.839c-13.866,0.147 -28.127,-1.122 -41.576,2.834c-2.899,0.85 -5.742,6.069 -1.54,7.187Z" style="fill-rule:nonzero;"/></g></svg>