<?xml version="1.0" encoding="UTF-8" standalone="no"?><!DOCTYPE svg PUBLIC "-//W3C//DTD SVG 1.1//EN" "http://www.w3.org/Graphics/SVG/1.1/DTD/svg11.dtd"><svg width="100%" height="100%" viewBox="0 0 287 527" version="1.1" xmlns="http://www.w3.org/2000/svg" xmlns:xlink="http://www.w3.org/1999/xlink" xml:space="preserve" style="fill-rule:evenodd;clip-rule:evenodd;stroke-linejoin:round;stroke-miterlimit:1.41421;"><g id="nail"><path d="M157.213,2.409c-9.406,-2.67 -19.129,-2.424 -28.822,-2.079c-10.742,0.381 -21.434,3.032 -30.967,8.004c-19.539,10.19 -26.953,33.168 -30.656,53.416c-8.182,44.739 -0.58,90.289 -0.518,135.297c0.043,30.373 -3.299,72.698 29.98,87.434c14.127,6.255 30.34,6.246 45.471,5.279c14.033,-0.896 27.801,-3.14 41.516,-6.128c3.857,-0.841 7.303,-8 1.984,-9.261c-7.834,-1.857 -16.279,-1.296 -24.232,-0.515c-9.736,0.957 -19.473,1.928 -29.268,1.912c-17.943,-0.028 -37.045,-4.966 -45.24,-22.531c-4.387,-9.397 -5.037,-20.419 -5.646,-30.605c-0.707,-11.781 -0.555,-23.599 -0.627,-35.395c-0.133,-21.401 -2.285,-42.754 -2.996,-64.141c-0.963,-28.874 -1.287,-60.184 10.025,-87.31c2.273,-5.453 5.086,-10.458 9.561,-14.386c5.092,-4.467 11.682,-6.766 18.074,-8.62c13.295,-3.858 26.975,-3.242 40.549,-5.071c2.318,-0.313 5.215,-4.334 1.812,-5.3Z" style="fill-rule:nonzero;"/><path d="M160.542,8.218c7.82,4.418 16.352,7.327 24.24,11.631c9.635,5.256 16.529,13.574 20.951,23.525c9.307,20.944 11.58,44.337 12.609,66.978c1.131,24.828 0.18,49.746 -1.021,74.553c-0.57,11.791 -1.227,23.573 -1.93,35.356c-0.768,12.901 -1.506,27.057 -9.061,38.053c-3.838,5.584 -9.371,8.579 -15.74,10.428c-7.967,2.313 -16.004,4.241 -23.799,7.046c-3.141,1.13 -5.398,6.697 -0.57,6.813c9.467,0.229 18.961,0.44 28.113,-2.475c9.916,-3.157 18.234,-9.582 23.814,-18.353c7.514,-11.811 9.383,-25.184 10.408,-38.878c0.92,-12.267 1.324,-24.586 1.846,-36.875c1.043,-24.534 1.826,-49.092 0.73,-73.639c-1.008,-22.59 -3.236,-46.112 -11.396,-67.385c-4.838,-12.605 -11.801,-23.803 -23.5,-30.979c-10.021,-6.147 -21.875,-8.058 -33.299,-9.739c-1.786,-0.26 -4.606,2.691 -2.395,3.94Z" style="fill-rule:nonzero;"/><path d="M66.792,104.22c-21.332,0.164 -35.354,20.12 -43.502,37.552c-10.912,23.349 -15.088,49.159 -16.125,74.72c-1.242,30.536 1.678,61.152 2.617,91.663c0.971,31.486 1.035,63.047 -1.088,94.49c-1.242,18.393 -1.283,36.566 -0.803,54.994c0.232,8.919 0.402,17.838 0.273,26.76c-0.141,9.858 -1.377,19.18 -2.881,28.887c3.652,-2.121 7.303,-4.243 10.953,-6.364c-2.371,-1.729 -4.592,-2.313 -7.322,-3.268c-3.49,-1.221 -10.336,2.642 -8.018,7.036c1.471,2.789 3.086,4.783 5.33,6.972c4.031,3.934 11.416,-0.489 12.121,-5.435c4.447,-31.232 0.383,-63.249 1.145,-94.636c0.379,-15.626 2.027,-31.211 2.494,-46.849c0.475,-15.858 0.445,-31.73 0.176,-47.594c-0.52,-30.746 -2.949,-61.43 -3.326,-92.173c-0.338,-27.6 2.789,-54.37 11.5,-80.618c5.695,-17.161 15.6,-36.41 35.117,-39.891c3.169,-0.565 6.092,-6.283 1.339,-6.246Z" style="fill-rule:nonzero;"/><path d="M55.614,184.781c-1.961,27.325 -2.061,57.624 10.096,82.863c12.668,26.299 42.545,39.585 71.006,36.214c0.992,-0.117 2.377,-2.106 0.811,-2.369c-15.057,-2.524 -29.926,-3.764 -43.545,-11.346c-10.91,-6.073 -19.104,-15.813 -24.5,-26.954c-11.67,-24.095 -11.162,-52.539 -13.152,-78.637c-0.038,-0.484 -0.691,-0.11 -0.716,0.229Z" style="fill-rule:nonzero;"/><path d="M165.778,304.076c11.486,1.532 21.947,0.673 32.609,-4.258c11.096,-5.129 20.348,-13.262 27.92,-22.772c7.508,-9.432 12.902,-20.401 16.521,-31.86c3.262,-10.33 6.465,-24.809 2.646,-35.375c-0.557,-1.541 -2.918,-0.191 -3.047,0.982c-0.525,4.712 -0.291,9.481 -0.584,14.215c-0.352,5.694 -1.457,11.367 -2.883,16.881c-2.887,11.171 -8.088,21.777 -14.82,31.12c-13.107,18.19 -34.979,31.499 -57.977,30.25c-0.416,-0.024 -0.95,0.741 -0.385,0.817Z" style="fill-rule:nonzero;"/><path d="M127.379,16.801c-10.887,-3 -19.689,8.398 -23.26,17.061c-4.854,11.771 -4.779,25.713 -5.807,38.227c-2.639,32.083 -4.906,65.786 2.424,97.422c0.262,1.135 1.588,1.399 2.537,1.416c7.363,0.127 20.99,3.143 23.717,-6.504c1.037,-3.666 -3.916,-2.753 -5.332,-1.005c-2.727,3.366 -13.164,1.027 -16.988,0.99c0.846,0.472 1.691,0.944 2.537,1.416c-6.621,-27.524 -5.248,-56.924 -3.494,-84.946c0.779,-12.456 1.139,-25.278 3.166,-37.603c0.92,-5.592 2.459,-11.304 5.52,-16.126c3.516,-5.538 8.711,-6.952 14.617,-8.653c0.692,-0.201 1.344,-1.424 0.363,-1.695Z" style="fill-rule:nonzero;"/><path d="M136.52,28.422c-6.93,8.023 -10.1,19.095 -12.328,29.249c-2.582,11.761 -3.041,24.132 -3.025,36.133c0.016,12.13 0.729,24.251 1.271,36.365c0.273,6.103 0.482,12.208 0.549,18.317c0.031,2.935 -0.004,5.869 -0.072,8.803c-0.033,1.43 -0.096,2.859 -0.16,4.289c-0.035,0.75 -1.004,4.051 0.447,1.977c1.363,-0.619 2.727,-1.238 4.09,-1.857c-0.402,-0.286 -0.77,-0.611 -1.1,-0.978c-1.805,-2.131 -4.748,0.889 -4.867,2.796c-0.121,1.907 0.66,3.307 2.176,4.41c1.561,1.135 3.861,-0.446 4.824,-1.603c2.395,-2.876 1.445,-9.177 1.498,-12.685c0.092,-5.967 -0.104,-11.937 -0.35,-17.897c-0.518,-12.55 -1.451,-25.079 -1.861,-37.635c-0.396,-12.153 -0.332,-24.355 1.252,-36.428c1.523,-11.617 5.287,-21.953 8.697,-33.06c0.225,-0.725 -0.768,-0.513 -1.041,-0.196Z" style="fill-rule:nonzero;"/><path d="M222.424,105.826c40.709,29.095 45.693,83.133 49.424,129.064c2.543,31.309 3.467,62.766 2.5,94.165c-0.98,31.853 -4.881,63.539 -6.74,95.348c-1.127,19.287 -0.955,38.604 -1.939,57.892c-0.396,7.797 -0.91,15.573 -1.809,23.331c-0.346,2.978 -0.754,5.95 -1.307,8.897c-0.209,1.121 -0.453,2.235 -0.676,3.354c-0.115,0.584 -0.641,2.002 0.213,-0.363c0.863,-2.396 5.564,-5.162 9.031,-4.869c-4.184,-0.353 -8.143,1.957 -9.949,5.799c-1.396,2.97 -0.813,7.925 3.316,8.273c8.266,0.697 12.154,-7.084 13.023,-14.072c0.992,-7.98 1.074,-16.068 1.328,-24.096c0.596,-18.799 0.205,-37.602 0.631,-56.4c0.725,-32.018 4.836,-63.761 6.344,-95.723c1.477,-31.345 0.709,-62.791 -1.477,-94.083c-1.982,-28.396 -4.438,-57.189 -13.621,-84.307c-7.582,-22.388 -21.26,-47.834 -43.529,-58.5c-3.394,-1.625 -8.304,3.76 -4.763,6.29Z" style="fill-rule:nonzero;"/></g></svg>