<?xml version="1.0" encoding="UTF-8" standalone="no"?><!DOCTYPE svg PUBLIC "-//W3C//DTD SVG 1.1//EN" "http://www.w3.org/Graphics/SVG/1.1/DTD/svg11.dtd"><svg width="100%" height="100%" viewBox="0 0 459 437" version="1.1" xmlns="http://www.w3.org/2000/svg" xmlns:xlink="http://www.w3.org/1999/xlink" xml:space="preserve" style="fill-rule:evenodd;clip-rule:evenodd;stroke-linejoin:round;stroke-miterlimit:1.41421;"><g id="needle"><path d="M41.341,1.05c-5.307,-1.441 -10.611,2.664 -14.394,5.915c-5.325,4.578 -8.212,11.261 -9.115,18.125c-0.922,7 1.029,14.11 3.566,20.567c2.802,7.127 7.126,15.627 13.066,20.623c1.351,1.137 3.423,-0.57 3.007,-2.146c-1.447,-5.491 -4.827,-10.513 -7.454,-15.508c-2.757,-5.242 -5.057,-10.815 -6.166,-16.65c-1.159,-6.098 -0.306,-12.33 2.31,-17.929c2.86,-6.126 8.773,-8.974 14.762,-11.048c0.756,-0.264 1.579,-1.633 0.418,-1.949Z" style="fill:#010101;fill-rule:nonzero;"/><path d="M55.362,6.717c10.706,7.33 20.673,14.417 29.452,24.1c8.517,9.393 15.739,19.832 23.341,29.948c18.646,24.812 36.645,50.021 54.068,75.709c17.813,26.262 34.991,52.995 53.827,78.543c19.022,25.803 39.396,50.584 59.797,75.3c14.323,17.354 28.641,34.65 42.22,52.598c11.664,15.415 23.468,30.61 36.52,44.887c7.97,8.719 16.312,17.099 24.415,25.691c4.141,4.393 8.251,8.815 12.218,13.366c1.424,1.634 2.842,3.286 4.127,5.032c0.202,0.273 1.397,2.106 1.001,1.423c0.782,1.346 -0.023,1.646 0.379,-0.854c-1.163,7.229 9.396,4.726 10.289,-0.834c0.746,-4.634 -4.496,-9.154 -7.234,-12.28c-5.701,-6.509 -11.744,-12.727 -17.752,-18.95c-13.449,-13.936 -26.872,-27.719 -39.064,-42.803c-9.602,-11.875 -18.674,-24.166 -28.114,-36.166c-9.726,-12.359 -19.953,-24.335 -29.969,-36.457c-20.427,-24.722 -40.777,-49.521 -59.922,-75.257c-29.187,-39.234 -54.528,-81.19 -83.474,-120.608c-12.763,-17.381 -25.98,-34.539 -39.797,-51.101c-11.724,-14.056 -26.732,-29.272 -45.471,-32.689c-0.681,-0.124 -1.578,0.908 -0.857,1.402Z" style="fill:#010101;fill-rule:nonzero;"/><path d="M42.941,72.575c13.603,23.505 36.678,40.56 55.527,59.653c10.937,11.078 20.601,23.435 30.806,35.179c10.68,12.29 21.471,24.482 32.33,36.611c21.572,24.095 42.954,48.417 64.971,72.106c21.281,22.897 43.731,44.683 65.979,66.634c21.219,20.938 42.93,41.224 64.687,61.597c6.082,5.696 12.916,10.552 19.571,15.547c3.652,2.74 7.205,5.56 10.688,8.509c1.146,0.969 4.801,3.969 4.9,4.747c0.577,4.454 7.408,1.369 6.943,-2.227c-0.725,-5.593 -9.547,-10.07 -13.51,-13.073c-7.441,-5.645 -15.327,-10.857 -22.275,-17.118c-22.495,-20.267 -44.225,-41.313 -65.775,-62.569c-22.258,-21.953 -44.63,-43.79 -66.021,-66.6c-22.121,-23.588 -43.519,-47.909 -65.159,-71.938c-10.459,-11.614 -20.896,-23.247 -31.239,-34.965c-10.363,-11.743 -20.244,-24.016 -31.22,-35.196c-9.788,-9.973 -20.609,-18.763 -30.874,-28.219c-10.148,-9.353 -19.682,-19.381 -28.582,-29.925c-0.625,-0.742 -2.211,0.445 -1.747,1.247Z" style="fill:#010101;fill-rule:nonzero;"/><path d="M41.131,38.328c-2.396,-4.632 -2.422,-9.521 -1.33,-14.52c-0.927,0.986 -1.854,1.972 -2.782,2.958c9.752,-2.07 18.063,1.002 25.426,7.417c7.764,6.764 14.95,15.063 21.201,23.219c5.397,7.041 8.308,14.235 10.948,22.564c1.303,4.11 3.58,11.461 9.091,7.146c3.136,-2.456 0.811,-6.463 -2.823,-4.706c2.789,-1.349 3.699,1.363 2.409,-1.505c-0.708,-1.573 -1.2,-3.257 -1.729,-4.894c-1.104,-3.409 -2.109,-6.848 -3.416,-10.188c-3.592,-9.184 -10.82,-17.264 -17.393,-24.417c-5.96,-6.487 -12.176,-13.249 -19.83,-17.755c-7.438,-4.379 -16.044,-4.558 -24.178,-2.322c-1.652,0.455 -2.75,2.035 -2.843,3.68c-0.331,5.823 0.973,10.651 4.884,15.012c0.878,0.978 2.946,-0.566 2.365,-1.689Z" style="fill:#010101;fill-rule:nonzero;"/><path d="M44.928,48.583c6.464,13.292 18.496,24.493 29.612,33.869c4.64,3.914 10.177,8.711 16.276,10.056c4.278,0.941 12.592,-6.017 7.023,-9.062c-1.118,-0.61 -2.741,-0.113 -3.593,0.748c-0.885,0.894 -1.564,1.792 -1.91,3.012c-0.131,0.462 1.03,-1.662 2.141,-1.572c-1.836,-0.148 -3.603,-1.316 -5.143,-2.222c-5.609,-3.293 -10.646,-7.688 -15.536,-11.938c-5.493,-4.774 -10.892,-9.648 -16.316,-14.499c-3.588,-3.208 -7.497,-6.123 -10.781,-9.658c-0.673,-0.724 -2.189,0.41 -1.773,1.266Z" style="fill:#010101;fill-rule:nonzero;"/><path d="M91.317,63.336c-9.974,-3.904 -22.945,1.896 -31.849,6.449c-11.072,5.664 -20.539,14 -28.862,23.131c-16.471,18.065 -26.382,41.389 -29.663,65.509c-1.633,12.004 -0.975,24.448 3.915,35.656c4.329,9.922 12.406,17.28 21.497,22.816c16.05,9.773 36.283,12.511 50.363,25.532c13.79,12.753 13.992,31.177 14.431,48.613c0.087,3.488 5.121,1.72 5.908,-0.479c8.297,-23.167 1.429,-48.463 -19.136,-62.364c-15.845,-10.711 -35.978,-13.293 -51.083,-25.336c-20.953,-16.704 -17.497,-44.925 -10.373,-67.716c7.16,-22.902 22.93,-43.544 43.487,-56.045c4.536,-2.759 9.359,-4.888 14.422,-6.475c4.969,-1.558 10.138,-2.076 15.044,-3.77c1.604,-0.55 4.817,-4.379 1.899,-5.521Z" style="fill:#010101;fill-rule:nonzero;"/><path d="M118.08,60.738c15.702,-1.153 31.053,-1.463 46.713,0.596c13.357,1.755 26.521,5.135 39.396,9.049c21.042,6.396 41.43,15.328 59.963,27.208c17.645,11.31 33.146,25.823 44.957,43.172c12.066,17.721 19.688,39.525 22.896,60.647c0.783,5.16 1.297,10.347 2.195,15.49c0.556,3.168 4.916,1.348 5.283,-1.066c3.366,-22.159 -1.699,-45.694 -11.307,-65.714c-9.034,-18.824 -22.54,-35.143 -38.492,-48.505c-16.55,-13.863 -35.534,-24.453 -55.47,-32.604c-23.324,-9.536 -48.817,-16.541 -73.981,-18.296c-13.979,-0.977 -27.914,-0.339 -41.554,2.834c-3.491,0.814 -5.534,7.552 -0.599,7.189Z" style="fill:#010101;fill-rule:nonzero;"/><path d="M338.087,229.621c-4.603,6.66 -3.655,14.616 -1.636,22.087c1.97,7.281 4.575,14.267 8.217,20.878c7.127,12.937 17.071,24.091 28.621,33.239c11.787,9.336 25.198,16.186 39.64,20.356c6.821,1.971 13.897,3.069 20.987,3.358c7.099,0.29 15.705,-0.167 21.989,-3.792c2.033,-1.172 3.808,-5.136 0.485,-5.929c-5.404,-1.289 -11.867,-0.289 -17.424,-0.491c-6.7,-0.242 -13.328,-1.367 -19.813,-3.041c-12.727,-3.284 -24.603,-9.604 -35.201,-17.278c-21.961,-15.905 -40.516,-42.098 -44.037,-69.299c-0.128,-1.006 -1.396,-0.715 -1.828,-0.088Z" style="fill:#010101;fill-rule:nonzero;"/><path d="M102.056,119.013c7.468,9.972 16.217,19.018 24.645,28.174c8.576,9.318 17.136,18.652 25.713,27.97c17.288,18.778 34.461,37.658 51.391,56.761c16.734,18.881 32.68,38.435 49.389,57.331c15.994,18.089 32.53,36.633 51.357,51.827c0.842,0.681 2.489,-0.643 1.696,-1.489c-16.594,-17.773 -34.22,-34.468 -50.379,-52.688c-16.735,-18.87 -32.706,-38.405 -49.457,-57.271c-16.948,-19.086 -34.271,-37.839 -51.642,-56.54c-8.621,-9.281 -17.3,-18.508 -25.95,-27.763c-8.511,-9.105 -16.864,-18.527 -26.186,-26.821c-0.282,-0.251 -0.811,0.198 -0.577,0.509Z" style="fill:#010101;fill-rule:nonzero;"/></g></svg>