<?xml version="1.0" encoding="UTF-8" standalone="no"?><!DOCTYPE svg PUBLIC "-//W3C//DTD SVG 1.1//EN" "http://www.w3.org/Graphics/SVG/1.1/DTD/svg11.dtd"><svg width="100%" height="100%" viewBox="0 0 541 351" version="1.1" xmlns="http://www.w3.org/2000/svg" xmlns:xlink="http://www.w3.org/1999/xlink" xml:space="preserve" style="fill-rule:evenodd;clip-rule:evenodd;stroke-linejoin:round;stroke-miterlimit:1.41421;"><g id="nest"><path d="M107.217,162.043c8.148,-20.065 15.723,-39.764 29.438,-56.85c13.422,-16.723 32.021,-29.025 53.697,-30.968c11.224,-1.006 22.094,0.597 31.352,7.312c8.07,5.854 12.975,15.489 16.503,24.529c7.378,18.896 10.478,39.553 11.581,59.717c0.656,11.968 0.654,24.687 -4.52,35.749c-4.028,8.611 7.471,9.873 11.725,4.078c5.975,-8.139 7.004,-18.693 7.467,-28.486c0.525,-11.09 -0.582,-22.274 -2.113,-33.246c-2.768,-19.825 -7.256,-40.144 -17.721,-57.427c-5.229,-8.635 -12.875,-15.78 -22.215,-19.719c-10.6,-4.47 -22.703,-4.255 -33.871,-2.452c-21.934,3.541 -40.539,15.576 -55.15,31.966c-15.742,17.656 -28.713,42.011 -32.438,65.504c-0.676,4.27 5.09,3.19 6.265,0.293Z" style="fill-rule:nonzero;"/><path d="M259.715,134.529c0.412,-3.745 1.695,-7.328 2.49,-11.009c0.682,-3.155 1.428,-6.384 2.605,-9.396c2.116,-5.415 4.503,-8.937 8.443,-12.25c3.408,-2.866 8.104,-4.931 13.422,-6.385c5.627,-1.539 12.137,-1.95 18.33,-1.923c29.709,0.13 60.631,12.652 85.289,28.518c7.34,4.724 14.221,10.089 20.326,16.341c5.855,5.999 8.469,10.851 11.965,18.006c3.631,-3.868 7.26,-7.735 10.889,-11.604c-3.471,-1.02 -6.361,-0.211 -9.818,0.198c-2.652,0.313 -5.213,2.652 -5.131,5.453c0.129,4.499 2.561,6.565 6.32,8.527c6.377,3.328 14.389,-4.62 12.561,-11.022c-1.555,-5.45 -5.723,-10.635 -9.244,-14.993c-4.105,-5.082 -8.965,-9.536 -14.039,-13.627c-12.076,-9.732 -25.602,-17.414 -39.814,-23.565c-26.635,-11.527 -59.543,-19.812 -88.24,-11.492c-10.281,2.981 -19.877,9.063 -25.956,17.993c-3.228,4.741 -5.329,10.004 -6.327,15.646c-0.529,3 -0.574,5.953 -0.336,8.981c0.246,3.111 1.697,5.824 2.549,8.8c0.556,1.941 3.566,0.177 3.716,-1.197Z" style="fill:#010101;fill-rule:nonzero;"/><path d="M194.479,70.552c1.834,-9.14 2.791,-17.62 8.029,-25.649c4.934,-7.559 11.781,-13.768 19.318,-18.648c15.911,-10.306 35.1,-15.368 53.885,-12.059c20.734,3.654 38.863,17.166 49.186,35.394c4.322,7.631 8.346,15.455 11.664,23.578c1.529,3.746 2.984,7.652 3.598,11.664c0.24,1.567 0.281,3.12 0.184,3.758c-0.184,1.187 -0.549,1.834 -0.502,3.186c0.059,1.672 0.371,-1.337 -0.049,0.151c-1.545,5.471 5.01,7.263 8.785,4.906c9.197,-5.739 7.834,-15.383 5.057,-24.368c-2.863,-9.261 -7.658,-17.995 -12.422,-26.389c-11.111,-19.585 -26.623,-34.438 -48.295,-41.683c-21.01,-7.024 -42.974,-3.307 -62.627,5.849c-18.46,8.598 -35.328,23.434 -41.291,43.399c-1.717,5.752 -2.26,13.038 0.299,18.58c1.189,2.575 4.775,0.348 5.181,-1.669Z" style="fill:#010101;fill-rule:nonzero;"/><path d="M62.87,112.916c-13.471,3.706 -5.746,20.155 -1.174,27.709c8.398,13.875 20.229,25.912 31.672,37.286c28.462,28.292 64.953,46.153 103.502,56.473c43.207,11.566 88.814,13.335 133.201,9.401c22.389,-1.984 44.598,-5.648 66.557,-10.413c21.375,-4.638 43.295,-10.397 62.598,-20.822c3.072,-1.66 4.98,-8.847 -0.451,-8.034c-23.672,3.544 -46.783,11.079 -70.273,15.895c-24.695,5.063 -49.857,8.144 -75.029,9.376c-49.984,2.446 -101.148,-3.34 -147.627,-22.651c-16.528,-6.867 -33.234,-15.444 -47.58,-26.222c-0.402,-0.303 -0.799,-0.613 -1.195,-0.924c1.158,0.907 -0.902,-0.733 -1.174,-0.955c-1.719,-1.401 -3.412,-2.835 -5.098,-4.277c-4.498,-3.849 -8.928,-7.784 -13.283,-11.795c-9.486,-8.736 -18.643,-17.956 -26.539,-28.174c-2.847,-3.685 -5.261,-7.555 -7.049,-11.858c-0.521,-1.255 -0.965,-2.739 -0.764,-4.032c0.061,-0.398 1.063,-3.4 0.258,-1.13c0.176,-0.497 0.477,-0.812 0.879,-1.18c1.647,-1.508 1.234,-4.407 -1.431,-3.673Z" style="fill:#010101;fill-rule:nonzero;"/><path d="M126.746,214.573c11.718,7.948 25.466,11.817 39.171,14.833c14.229,3.13 28.912,4.361 43.441,5.018c30.297,1.369 60.154,-1.961 89.721,-8.55c50.039,-11.151 99.789,-29.792 144.594,-54.755c20.006,-11.147 39.066,-24.273 56.158,-39.54c8.479,-7.573 16.379,-15.827 23.564,-24.635c3.73,-4.573 7.197,-9.398 10.18,-14.49c2.895,-4.939 5.99,-9.102 6.59,-14.906c0.473,-4.586 -4.229,-4.932 -7.123,-2.538c-4.688,3.876 -7.455,8.681 -11.27,13.339c-3.963,4.838 -7.785,9.764 -11.883,14.495c-7.707,8.901 -16.352,17.003 -25.369,24.558c-18.705,15.674 -39.793,28.385 -61.473,39.479c-21.443,10.972 -43.805,20.028 -66.482,28.104c-27.039,9.629 -54.729,17.654 -83.031,22.59c-23.928,4.172 -48.041,5.297 -72.291,4.498c-24.59,-0.811 -47.82,-6.021 -71.416,-12.562c-2.478,-0.687 -5.602,3.352 -3.081,5.062Z" style="fill:#010101;fill-rule:nonzero;"/><path d="M3.022,131.537c9.887,-7.535 21.504,-13.038 32.77,-18.179c12.031,-5.491 24.824,-9.521 37.625,-12.77c12.686,-3.22 25.646,-5.332 38.648,-6.771c6.19,-0.685 12.404,-1.14 18.623,-1.451c5.852,-0.293 11.753,0.486 17.553,0.141c6.959,-0.416 11.777,-13.077 2.69,-12.556c-3.376,0.194 -6.368,1.251 -8.892,3.553c-1.223,1.116 -2.662,3.362 -1.777,5.102c1.324,2.604 3.532,3.659 6.398,3.828c1.951,-4.136 3.9,-8.272 5.85,-12.409c-5.92,-0.336 -12.092,0.588 -18.014,1.032c-6.727,0.506 -13.43,1.121 -20.121,1.981c-13.994,1.799 -27.863,4.637 -41.454,8.419c-13.207,3.675 -26.019,8.536 -38.319,14.585c-12.422,6.108 -23.096,14.275 -33.297,23.538c-1.633,1.483 0.004,3.261 1.717,1.957Z" style="fill:#010101;fill-rule:nonzero;"/><path d="M346.018,73.958c12.271,1.828 24.525,2.279 36.742,4.851c13.531,2.847 26.664,7.006 39.631,11.758c12.883,4.722 25.396,10.332 37.695,16.402c11.857,5.852 23.283,12.764 35.686,17.302c2.662,0.975 7.859,-2.764 5.131,-5.506c-8.986,-9.034 -20.529,-15.161 -31.889,-20.828c-12.826,-6.398 -26.129,-11.845 -39.658,-16.563c-13.311,-4.641 -27.072,-8.219 -40.932,-10.762c-12.793,-2.346 -27.197,-4.739 -40.209,-3.078c-2.648,0.338 -6.468,5.788 -2.197,6.424Z" style="fill:#010101;fill-rule:nonzero;"/><path d="M94.859,110.371c-20.069,6.539 -31.614,29.982 -35.846,49.228c-4.775,21.721 -0.901,44.11 8.433,64.017c19.232,41.016 52.58,73.668 91.998,95.422c39.484,21.791 84.871,32.286 129.848,31.727c23.656,-0.294 47.373,-4.095 70.025,-10.883c27.152,-8.137 52.078,-21.686 75.615,-37.236c12.5,-8.259 24.195,-17.394 35.262,-27.478c3.133,-2.854 0.982,-7.771 -3.197,-5.332c-24.336,14.203 -47.336,30.577 -72.689,43.045c-23.328,11.472 -48.287,18.939 -74.063,22.261c-44.182,5.694 -90.116,-0.924 -131.091,-18.29c-41.331,-17.519 -76.999,-46.565 -100.884,-84.719c-11.822,-18.882 -19.746,-39.341 -19.447,-61.856c0.141,-10.651 2.324,-21.328 6.68,-31.054c4.568,-10.198 11.896,-17.297 19.488,-25.17c0.313,-0.311 0.625,-0.621 0.938,-0.932c1.11,-1.105 0.984,-3.419 -1.07,-2.75Z" style="fill:#010101;fill-rule:nonzero;"/><path d="M497.782,139.077c-1.5,11.889 0.012,24.311 0.051,36.27c0.035,11.424 -1.92,22.478 -5.02,33.438c-5.604,19.812 -15.58,38.274 -27.725,54.807c-12.035,16.385 -26.586,30.771 -42.205,43.724c-7.803,6.47 -15.91,12.662 -24.32,18.321c-8.57,5.768 -17.775,11.087 -25.891,17.468c-2.264,1.779 -1.439,5.624 1.805,4.639c9.465,-2.873 18.957,-8.461 27.301,-13.699c9.527,-5.98 18.752,-12.372 27.563,-19.369c17.23,-13.683 32.744,-29.638 45.771,-47.375c12.902,-17.565 22.855,-37.111 29.057,-58.011c3.293,-11.095 5.125,-22.312 5.047,-33.896c-0.084,-12.563 -1.461,-26.31 -4.824,-38.445c-0.968,-3.49 -6.308,-0.273 -6.61,2.128Z" style="fill:#010101;fill-rule:nonzero;"/><path d="M114.383,242.572c7.529,22.802 26.59,38.475 47.048,49.717c24.37,13.393 51.54,23.328 78.542,29.776c56.426,13.476 115.563,8.729 170.146,-10.22c22.707,-7.883 45.137,-18.066 64.625,-32.215c1.951,-1.416 1.182,-5.264 -1.578,-4.059c-27.734,12.11 -54.586,25.38 -83.852,33.654c-27.943,7.901 -56.975,11.574 -86,11.079c-29.393,-0.502 -58.607,-5.959 -86.566,-14.885c-13.836,-4.417 -27.365,-9.979 -40.611,-15.919c-10.928,-4.9 -21.473,-10.443 -31.193,-17.477c-11.365,-8.224 -20.461,-19.537 -28.34,-31.039c-0.748,-1.092 -2.561,0.56 -2.221,1.588Z" style="fill:#010101;fill-rule:nonzero;"/><path d="M184.149,262.128c4.24,3.275 8.383,6.948 13.136,9.479c5.198,2.767 10.7,4.906 16.291,6.727c11.773,3.834 24.063,5.899 36.319,7.454c22.633,2.871 45.447,5.175 68.277,5.274c48.318,0.211 97.268,-8.927 141.432,-28.755c13.832,-6.21 27.033,-13.804 39.352,-22.643c11.873,-8.519 23.395,-18.166 31.439,-30.458c2.24,-3.424 -1.328,-5.899 -4.254,-3.373c-8.676,7.493 -17.021,15.406 -26.125,22.412c-9.252,7.12 -19.197,13.277 -29.488,18.77c-21.373,11.406 -44.445,19.355 -67.961,24.999c-23.762,5.703 -48.092,8.688 -72.486,9.754c-23.203,1.013 -46.238,-0.843 -69.346,-2.736c-12.973,-1.063 -25.913,-2.546 -38.691,-5.048c-6.502,-1.274 -12.988,-2.956 -19.248,-5.133c-6.098,-2.121 -12.383,-4.234 -17.67,-8.01c-0.635,-0.452 -1.668,0.753 -0.977,1.287Z" style="fill:#010101;fill-rule:nonzero;"/><path d="M64.538,85.523c4.829,-2.159 9.125,-5.681 13.572,-8.526c5.193,-3.322 10.572,-6.367 16.016,-9.26c11.031,-5.865 22.588,-10.682 34.404,-14.719c23.287,-7.955 48.715,-13.083 73.415,-11.438c1.109,-3.243 2.22,-6.486 3.329,-9.729c-3.076,-0.039 -5.609,0.335 -8.447,1.528c-2.131,0.896 -5.522,4.764 -2.27,6.602c2.795,1.578 5.455,1.696 8.619,1.656c5.459,-0.068 9.207,-9.71 2.098,-9.786c-26.387,-0.283 -52.392,4.905 -77.137,13.919c-12.441,4.531 -24.514,10.127 -36.076,16.569c-5.424,3.022 -10.672,6.332 -15.791,9.845c-4.768,3.271 -9.98,6.658 -13.527,11.292c-1.166,1.524 0.256,2.735 1.795,2.047Z" style="fill:#010101;fill-rule:nonzero;"/><path d="M318.364,28.839c14.096,-1.069 27.771,-0.196 41.545,3.024c14.107,3.298 27.674,8.617 41.068,14.055c11.828,4.802 22.01,9.438 33.629,16.193c13.936,8.102 27.615,16.71 40.795,25.994c8.104,5.709 21.654,13.991 25.354,22.588c0.195,0.454 0.719,2.276 0.523,0.901c0.162,1.132 0.074,-2.96 -0.014,0.584c0.023,-0.995 0.355,-1.671 1.027,-2.379c-1.215,1.281 -2.916,5.344 0.352,5.555c4.746,0.307 8.443,-3.654 8.086,-8.387c-0.311,-4.089 -5.287,-7.892 -8.119,-10.292c-11.391,-9.659 -23.936,-17.834 -36.568,-25.753c-12.42,-7.786 -25.094,-15.243 -38.107,-22.001c-3.848,-1.999 -7.742,-3.616 -11.783,-5.165c-12.73,-4.88 -25.424,-9.844 -38.469,-13.833c-18.596,-5.688 -40.162,-10.344 -59.096,-3.758c-1.174,0.41 -2.139,2.82 -0.223,2.674Z" style="fill:#010101;fill-rule:nonzero;"/><path d="M192.065,12.043c-10.512,-0.234 -20.883,2.769 -30.844,5.851c-10.578,3.273 -20.908,7.239 -31.026,11.73c-20.104,8.925 -39.004,21.29 -54.921,36.493c-35.063,33.488 -51.439,82.512 -39.49,129.999c3.988,15.847 11.209,30.645 19.58,44.6c8.496,14.166 18.941,28.033 31.014,39.355c1.996,1.873 6.427,-1.125 5.097,-3.638c-6.288,-11.881 -13.966,-23.153 -21.079,-34.553c-7.084,-11.35 -13.342,-23.25 -18.299,-35.679c-9.859,-24.726 -11.396,-51.006 -4.637,-76.718c11.561,-43.969 47.537,-73.722 86.773,-93.039c9.279,-4.569 18.885,-8.44 28.639,-11.871c9.818,-3.453 19.849,-6.306 29.295,-10.722c0.841,-0.392 1.037,-1.782 -0.102,-1.808Z" style="fill-rule:nonzero;"/><path d="M379.938,33.838c10.141,2.671 19.736,5.466 29.082,10.39c9.77,5.147 18.943,11.54 27.52,18.473c16.023,12.953 27.471,30.808 34.246,50.136c6.736,19.218 8.305,40.26 5.396,60.357c-1.457,10.067 -4.182,19.957 -7.906,29.415c-1.84,4.678 -3.701,9.35 -5.855,13.896c-1.668,3.523 -3.896,6.997 -4.295,10.155c-0.488,3.872 4.111,2.407 5.359,0.251c1.607,-2.779 5.316,-6.913 7.43,-10.325c2.932,-4.733 5.463,-9.678 7.525,-14.851c4.107,-10.302 6.787,-21.13 8.27,-32.108c2.889,-21.408 0.652,-43.304 -6.68,-63.625c-7.354,-20.383 -20.453,-38.377 -37.473,-51.725c-9.471,-7.428 -20.057,-13.537 -31.148,-18.181c-9.48,-3.968 -20.719,-7.586 -30.959,-4.643c-0.965,0.279 -1.903,2.019 -0.512,2.385Z" style="fill-rule:nonzero;"/></g></svg>