<?xml version="1.0" encoding="UTF-8" standalone="no"?><!DOCTYPE svg PUBLIC "-//W3C//DTD SVG 1.1//EN" "http://www.w3.org/Graphics/SVG/1.1/DTD/svg11.dtd"><svg width="100%" height="100%" viewBox="0 0 295 409" version="1.1" xmlns="http://www.w3.org/2000/svg" xmlns:xlink="http://www.w3.org/1999/xlink" xml:space="preserve" style="fill-rule:evenodd;clip-rule:evenodd;stroke-linejoin:round;stroke-miterlimit:1.41421;"><g id="nose"><path d="M110.997,246.408c-4.693,4.184 -9.315,7.809 -13.137,12.903c-4.084,5.448 -7.398,11.476 -9.906,17.799c-4.505,11.365 -4.855,23.741 -1.681,35.465c5.738,21.182 25.644,36.897 46.513,41.442c48.932,10.655 90.713,-39.813 78.987,-86.313c-3.022,-11.988 -10.251,-22.822 -18.576,-31.778c-4.388,-4.72 -9.267,-8.998 -14.364,-12.93c-2.344,-1.808 -4.928,-3.269 -7.49,-4.732c-3.252,-1.856 -6.333,-2.03 -9.823,-3.098c-4.213,-1.289 -7.076,3.747 -3.892,6.709c2.238,2.083 3.488,4.637 6,6.521c2.354,1.769 4.574,3.704 6.912,5.493c4.974,3.81 9.549,8.017 13.72,12.688c7.685,8.604 13.614,18.938 15.669,30.377c3.973,22.13 -8.172,45.829 -26.418,58.037c-18.878,12.631 -43.095,10.154 -60.814,-3.063c-8.632,-6.438 -14.851,-15.534 -17.833,-25.85c-3.685,-12.744 0.018,-26.487 5.953,-37.879c3.464,-6.646 7.712,-13.823 12.343,-19.715c1.088,-1.387 -0.83,-3.265 -2.163,-2.076Z" style="fill:#010101;fill-rule:nonzero;"/><path d="M190.529,344.424c4.993,-1.279 9.633,-3.438 14.704,-4.53c5.939,-1.28 11.925,-1.361 17.963,-0.908c10.496,0.789 20.559,3.627 30.936,5.127c9.315,1.348 18.857,0.83 26.843,-4.562c7.805,-5.271 11.561,-15.366 12.696,-24.297c2.444,-19.235 -5.807,-37.838 -20.301,-50.19c-8.037,-6.851 -17.988,-11.58 -27.919,-14.965c-5.038,-1.718 -10.243,-2.959 -15.479,-3.905c-2.33,-0.422 -4.636,-0.749 -7.005,-0.764c-3.016,-0.02 -5.106,0.665 -7.973,1.348c-3.19,0.762 -4.591,5.363 -0.994,6.748c3.916,1.51 7.24,2.882 11.491,3.594c4.734,0.793 9.396,1.981 13.983,3.388c8.812,2.699 17.118,6.704 24.529,12.188c13.738,10.162 20.59,27.077 17.955,43.987c-1.138,7.303 -5.357,14.63 -12.938,16.439c-8.206,1.959 -17.141,-0.461 -25.236,-1.896c-9.453,-1.675 -18.939,-2.415 -28.515,-1.444c-9.088,0.921 -20.767,4.519 -25.883,12.685c-0.511,0.817 -0.046,2.261 1.143,1.957Z" style="fill:#010101;fill-rule:nonzero;"/><path d="M78.468,237.292c-20.043,1.662 -38.176,14.725 -52.294,28.343c-14.108,13.607 -29.656,33.023 -24.168,54.032c2.696,10.324 10.566,19.028 20.004,23.805c8.656,4.381 18.306,4.641 27.704,2.966c10.438,-1.858 19.758,-6.766 30.601,-5.856c11.041,0.927 20.081,8.263 30.923,9.541c3.99,0.472 7.046,-4.401 4.503,-7.655c-5.662,-7.245 -15.402,-11.046 -24.014,-13.487c-9.629,-2.729 -19.685,-2.736 -29.273,0.146c-7.704,2.316 -15.427,5.185 -23.593,5.07c-9.246,-0.129 -17.061,-5.303 -22.284,-12.71c-11.164,-15.829 5.221,-36.602 15.188,-48.255c12.908,-15.091 29.763,-24.945 47.238,-33.817c1.135,-0.579 0.791,-2.233 -0.535,-2.123Z" style="fill:#010101;fill-rule:nonzero;"/><path d="M55.672,233.582c4.511,-0.827 7.613,-3.613 10.441,-7.088c3.754,-4.613 7.168,-9.8 10.351,-14.819c7.154,-11.288 11.324,-24.196 14.161,-37.171c6.411,-29.337 5.111,-59.836 10.121,-89.409c2.348,-13.856 6.846,-26.958 11.687,-40.099c4.184,-11.357 8.991,-22.9 17.182,-31.997c2.941,-3.267 6.99,-6.744 11.698,-5.613c4.444,1.068 7.926,4.866 10.729,8.231c5.857,7.032 10.132,15.619 13.444,24.11c5.937,15.216 7.46,32.03 10.285,48.008c3.148,17.815 5.714,35.622 8.453,53.504c2.344,15.299 6.213,30.314 12.492,44.487c5.979,13.492 14.046,27.303 25.422,36.895c2.918,2.46 6.215,-1.79 4.54,-4.597c-6.938,-11.625 -15.206,-22.149 -21.011,-34.476c-5.664,-12.028 -9.381,-24.875 -11.854,-37.909c-2.956,-15.575 -4.351,-31.402 -7.354,-46.973c-2.771,-14.348 -5.061,-28.861 -8.373,-43.094c-2.521,-10.818 -6.124,-21.13 -11.421,-30.895c-4.353,-8.023 -9.72,-16.381 -17.533,-21.424c-19.881,-12.83 -34.506,18.679 -40.165,32.702c-5.859,14.521 -10.937,29.542 -13.901,44.928c-3.579,18.572 -4.306,37.552 -5.579,56.377c-1.233,18.256 -3.095,36.451 -9.168,53.825c-2.795,7.997 -6.648,15.566 -11.552,22.474c-3.989,5.62 -7.616,13.782 -13.755,17.386c-1.249,0.735 -1.077,2.954 0.66,2.637Z" style="fill:#010101;fill-rule:nonzero;"/><path d="M102.883,198.273c-6.695,0.714 -12.843,6.119 -14.945,12.456c-2.104,6.349 2.734,9.453 8.556,8.919c7.442,-0.683 16.649,-5.718 16.013,-14.294c-0.605,-8.146 -11.093,-8.792 -15.874,-3.973c-0.74,0.746 -0.161,1.854 0.884,1.536c4.593,-1.4 11.584,-3.625 12.608,3.36c1.096,7.472 -8.928,10.968 -14.587,11.532c-5.821,0.582 -7.231,-3.791 -5.081,-8.424c2.328,-5.017 7.388,-8.408 12.563,-9.898c0.735,-0.212 0.704,-1.304 -0.137,-1.214Z" style="fill:#010101;fill-rule:nonzero;"/><path d="M119.097,155.765c-2.758,-0.145 -6.375,1.087 -7.733,3.712c-1.189,2.302 -0.711,5.198 1.753,6.418c5.702,2.823 14.516,1.032 19.973,-1.66c4.865,-2.4 6.177,-6.521 0.197,-8.171c-5.427,-1.498 -14.604,-1.923 -19.268,1.829c-0.587,0.472 -0.252,1.531 0.56,1.376c4.138,-0.791 8.229,-1.451 12.464,-1.387c1.946,0.029 3.94,0.187 5.84,0.636c1.936,0.458 3.046,1.07 1.125,2.562c-3.491,2.709 -8.298,3.407 -12.562,3.761c-2.312,0.192 -4.763,0.13 -6.958,-0.681c-2.151,-0.794 -2.068,-3.195 -0.442,-4.768c1.297,-1.255 3.311,-1.726 5.024,-2.016c0.87,-0.15 1.006,-1.56 0.027,-1.611Z" style="fill:#010101;fill-rule:nonzero;"/><path d="M131.244,193.042c-0.533,0.378 -1.18,0.438 -1.638,0.967c-0.576,0.665 -0.668,2.121 0.149,2.667c1.171,0.782 2.478,1.292 3.858,1.555c1.973,0.377 4.057,-0.231 5.36,-1.784c1.054,-1.253 1.327,-3.15 0.646,-4.64c-0.827,-1.812 -2.763,-2.669 -4.675,-2.686c-1.998,-0.019 -4.378,0.602 -5.572,2.344c-0.266,0.386 -0.091,0.936 0.409,0.99c1.232,0.133 2.563,-0.201 3.77,-0.431c0.23,-0.044 0.465,-0.073 0.699,-0.099c0.131,-0.014 0.263,-0.022 0.395,-0.029c-0.298,0.018 0.102,0.005 0.136,0.005c0.192,0.004 0.385,0.022 0.575,0.045c0.107,0.014 0.214,0.032 0.321,0.053c-0.341,-0.063 -0.012,0 0.052,0.018c0.155,0.043 0.305,0.102 0.454,0.162c0.073,0.03 0.359,0.178 0.014,-0.007c0.077,0.042 0.151,0.089 0.226,0.136c0.118,0.076 0.228,0.164 0.334,0.254c0.229,0.194 -0.233,-0.241 -0.029,-0.026c0.055,0.058 0.104,0.118 0.154,0.181c0.069,0.086 0.308,0.48 0.075,0.073c0.074,0.132 0.134,0.271 0.188,0.415c0.156,0.416 -0.012,-0.164 0.048,0.167c0.027,0.146 0.038,0.298 0.042,0.446c0,0.143 0.001,0.101 0.002,-0.125c-0.003,0.075 -0.012,0.15 -0.02,0.226c-0.013,0.115 -0.144,0.621 -0.016,0.178c-0.035,0.123 -0.083,0.242 -0.132,0.359c-0.029,0.07 -0.064,0.141 -0.101,0.209c-0.132,0.257 0.179,-0.289 0.021,-0.043c-0.07,0.11 -0.152,0.216 -0.236,0.317c-0.228,0.275 0.221,-0.175 -0.143,0.137c-0.129,0.11 -0.27,0.207 -0.413,0.297c0.392,-0.247 -0.124,0.042 -0.236,0.088c-0.059,0.022 -0.116,0.045 -0.175,0.064c-0.311,0.111 0.302,-0.073 -0.025,0.01c-0.197,0.05 -0.399,0.079 -0.602,0.104c-0.071,0.007 -0.143,0.013 -0.214,0.019c-0.363,0.025 0.278,0.003 -0.099,-0.002c-0.241,-0.003 -0.479,-0.021 -0.718,-0.049c-1.004,-0.117 -2.07,-0.603 -3.127,-1.081c0.224,0.218 0.446,0.436 0.67,0.652c-0.192,-0.352 -0.069,-0.495 -0.205,-0.039c-0.055,0.186 0.118,-0.041 0.192,-0.095c0.32,-0.232 0.608,-0.463 0.872,-0.764c0.735,-0.834 -0.464,-1.82 -1.286,-1.238Z" style="fill:#010101;fill-rule:nonzero;"/><path d="M184.297,203.103c-2.588,6.126 3.264,12.585 8.115,15.579c4.788,2.955 12.36,1.858 13.891,-4.437c1.342,-5.521 -5.141,-8.946 -9.202,-10.89c-5.06,-2.42 -12.369,-5.409 -17.963,-4.049c-0.741,0.18 -1.183,1.381 -0.246,1.665c7.532,2.287 16.436,3.602 22.729,8.827c1.666,1.383 2.42,3.199 1.192,5.128c-1.767,2.775 -4.53,3.34 -7.507,2.355c-4.729,-1.564 -11.337,-8.173 -9.598,-13.653c0.305,-0.948 -1.026,-1.435 -1.411,-0.525Z" style="fill:#010101;fill-rule:nonzero;"/><path d="M163.044,165.887c-0.643,1.918 -1.573,4.521 0.263,6.097c1.303,1.117 3.376,0.558 4.771,-0.031c1.625,-0.687 3.184,-1.729 4.435,-2.973c1.005,-0.998 2.597,-2.72 1.771,-4.271c-0.725,-1.363 -2.229,-1.481 -3.616,-1.405c-0.838,0.046 -1.668,0.209 -2.483,0.394c-0.651,0.148 -1.292,0.352 -1.929,0.555c-0.375,0.12 -0.746,0.277 -1.048,0.539c-0.244,0.21 -0.401,0.438 -0.509,0.738c-0.054,0.097 -0.049,0.09 0.015,-0.021c-0.054,0.089 -0.112,0.168 -0.176,0.251c-0.269,0.36 -0.181,0.985 0.301,1.126c0.091,0.027 0.178,0.052 0.266,0.091c0.096,0.042 0.274,0.196 0.026,0.011c0.411,0.307 0.827,0.317 1.313,0.285c0.11,-0.008 0.222,-0.041 0.328,-0.065c-0.223,0.053 0.938,-0.27 0.315,-0.091c0.231,-0.066 0.466,-0.131 0.698,-0.192c0.7,-0.186 1.396,-0.381 2.105,-0.525c0.508,-0.103 1.023,-0.181 1.542,-0.204c-0.608,0.027 0.048,0.009 0.22,0.022c0.078,0.006 0.156,0.017 0.233,0.029c0.37,0.061 -0.322,-0.086 -0.092,-0.023c0.06,0.017 0.116,0.037 0.174,0.06c0.266,0.105 -0.354,-0.206 -0.153,-0.087c0.043,0.026 0.082,0.057 0.12,0.089c0.036,0.029 -0.319,-0.361 -0.145,-0.124c0.13,0.176 -0.215,-0.419 -0.109,-0.188c0.055,0.122 0.088,0.369 -0.04,-0.199c0.01,0.045 0.015,0.093 0.018,0.14c0.016,0.211 0.032,-0.462 0.001,-0.157c-0.006,0.054 -0.016,0.107 -0.026,0.159c-0.06,0.276 0.117,-0.379 0.042,-0.147c-0.043,0.133 -0.101,0.261 -0.162,0.386c-0.031,0.063 -0.064,0.125 -0.101,0.188c0.276,-0.491 0.114,-0.195 0.043,-0.083c-0.095,0.148 -0.195,0.292 -0.303,0.431c-0.106,0.14 -0.226,0.271 -0.343,0.4c-0.063,0.068 -0.124,0.135 -0.188,0.202c-0.261,0.271 0.259,-0.253 -0.017,0.015c-0.298,0.292 -0.613,0.567 -0.938,0.83c-0.338,0.273 -0.688,0.53 -1.049,0.772c-0.173,0.116 -0.35,0.229 -0.526,0.337c-0.259,0.157 0.315,-0.184 -0.018,0.009c-0.104,0.06 -0.209,0.117 -0.313,0.174c-0.36,0.194 -0.731,0.367 -1.112,0.516c-0.171,0.067 -0.344,0.128 -0.52,0.182c-0.19,0.06 0.328,-0.092 0.137,-0.039c-0.042,0.012 -0.084,0.021 -0.126,0.033c-0.096,0.023 -0.191,0.045 -0.289,0.063c-0.156,0.031 -0.314,0.052 -0.474,0.065c-0.312,0.024 0.288,0 0.043,0.001c-0.085,0 -0.169,-0.004 -0.253,-0.012c-0.068,-0.007 -0.139,-0.017 -0.205,-0.028c-0.231,-0.041 0.339,0.093 0.063,0.012c-0.063,-0.019 -0.124,-0.042 -0.184,-0.066c-0.262,-0.109 0.276,0.17 0.037,0.021c-0.056,-0.034 -0.105,-0.072 -0.155,-0.112c-0.221,-0.177 0.213,0.227 0.056,0.057c-0.098,-0.105 -0.351,-0.531 -0.105,-0.104c-0.076,-0.135 -0.134,-0.279 -0.183,-0.427c-0.097,-0.3 0.05,0.239 -0.005,-0.015c-0.021,-0.093 -0.034,-0.187 -0.047,-0.279c-0.028,-0.209 -0.036,-0.421 -0.037,-0.633c0,-0.02 0,-0.038 0,-0.058c-0.004,0.245 -0.003,0.206 0.002,-0.116c-0.001,-0.061 -0.001,-0.119 -0.002,-0.18c-0.001,-0.223 -0.007,0.243 0,0.013c0.002,-0.067 0.005,-0.134 0.008,-0.2c0.032,-0.632 0.138,-1.239 0.302,-1.851c0.269,-0.981 -1.361,-1.299 -1.667,-0.387Z" style="fill:#010101;fill-rule:nonzero;"/><path d="M146.959,114.18c-0.028,0.36 -0.221,0.665 -0.37,0.987c-0.228,0.49 -0.351,1.028 -0.419,1.562c-0.061,0.462 0.186,0.87 0.612,1.049c2.476,1.035 5.323,1.688 7.953,0.883c1.608,-0.493 2.876,-1.873 3.094,-3.557c0.215,-1.654 -0.711,-3.279 -2.144,-4.083c-2.101,-1.178 -4.608,-0.947 -6.777,-0.066c-0.687,0.278 -1.675,0.838 -1.953,1.705c-0.148,0.465 -0.02,1.026 0.5,1.198c0.286,0.096 0.539,0.109 0.836,0.108c0.404,-0.001 0.859,-0.221 1.141,-0.281c0.729,-0.155 1.017,-0.317 1.617,-0.453c0.467,-0.104 0.948,-0.171 1.426,-0.203c0.396,-0.026 -0.282,-0.002 0.105,0c0.113,0 0.227,0.008 0.34,0.016c0.213,0.013 0.424,0.044 0.633,0.083c0.149,0.031 0.134,0.026 -0.049,-0.012c0.095,0.022 0.188,0.053 0.28,0.082c0.179,0.057 0.351,0.13 0.519,0.208c0.284,0.134 -0.263,-0.151 0.005,0.006c0.074,0.043 0.146,0.092 0.217,0.14c0.137,0.093 0.263,0.201 0.385,0.312c-0.321,-0.295 0.014,0.023 0.079,0.1c0.102,0.115 0.188,0.24 0.271,0.368c-0.229,-0.354 0.021,0.063 0.066,0.171c0.028,0.066 0.052,0.136 0.073,0.205c0.081,0.248 -0.061,-0.283 -0.005,-0.026c0.024,0.117 0.037,0.235 0.047,0.354c0.022,0.288 0.033,-0.189 -0.011,0.194c-0.043,0.373 0.059,-0.063 -0.043,0.202c-0.025,0.069 -0.059,0.136 -0.089,0.202c-0.114,0.238 0.145,-0.229 0.003,0c-0.068,0.11 -0.148,0.212 -0.23,0.311c-0.045,0.055 -0.241,0.243 -0.003,0.012c-0.06,0.058 -0.124,0.11 -0.188,0.165c-0.071,0.06 -0.515,0.337 -0.247,0.186c-0.169,0.096 -0.348,0.173 -0.525,0.245c-0.602,0.24 -1.626,0.321 -2.481,0.261c-1.393,-0.098 -2.727,-0.49 -4.042,-0.93c0.206,0.263 0.411,0.527 0.617,0.79c-0.049,-0.836 0.442,-1.51 0.489,-2.32c0.064,-1.138 -1.646,-1.274 -1.732,-0.174Z" style="fill:#010101;fill-rule:nonzero;"/><path d="M119.086,81.481c-4.945,0.047 -9.667,4.495 -8.256,9.659c1.408,5.15 9.681,4.813 13.055,2.182c2.76,-2.152 3.758,-6.455 1.99,-9.5c-2.396,-4.128 -7.062,0.567 -7.635,3.448c-0.134,0.673 0.7,1.009 1.182,0.642c0.731,-0.559 3.39,-3.854 4.221,-2.298c0.917,1.72 0.203,4.162 -1.123,5.462c-2.195,2.15 -7.673,2.345 -9.304,-0.562c-2.067,-3.682 2.612,-7.387 5.844,-7.574c0.821,-0.048 0.887,-1.467 0.026,-1.459Z" style="fill:#010101;fill-rule:nonzero;"/><path d="M107.846,280.604c-1.504,2.866 -0.618,5.746 2.805,6.188c3.154,0.405 6.683,-1.733 7.662,-4.749c0.206,-0.633 0.042,-1.541 -0.723,-1.736c-2.769,-0.703 -5.708,-0.307 -7.465,2.172c-0.317,0.448 0.003,1.13 0.594,1.021c2.137,-0.394 3.932,-0.978 6.139,-0.583c-0.384,-0.492 -0.769,-0.984 -1.153,-1.478c-0.453,1.834 -2.549,2.729 -4.252,2.898c-2.191,0.217 -2.603,-1.296 -1.854,-3.079c0.493,-1.175 -1.203,-1.702 -1.753,-0.654Z" style="fill:#010101;fill-rule:nonzero;"/><path d="M139.6,365.507c-6.558,4.87 -7.496,18.146 -7.579,25.46c-0.121,10.553 7.015,18.556 17.795,17.916c9.54,-0.565 15.7,-8.455 15.924,-17.548c0.188,-7.578 -2.833,-19.206 -10.581,-22.21c-2.053,-0.795 -3.604,1.291 -3.128,3.14c1.427,5.535 4.977,10.221 5.889,16.094c1.096,7.046 -1.795,12.004 -8.925,13.286c-9.5,1.709 -11.412,-9.189 -11.234,-16.01c0.173,-6.654 2.713,-12.859 3.253,-19.36c0.064,-0.79 -0.781,-1.237 -1.414,-0.768Z" style="fill:#010101;fill-rule:nonzero;"/><path d="M42.432,338.725c-0.63,-0.521 -3.583,-2.214 -3.253,-3.345c0.303,-1.037 1.333,-1.988 2.021,-2.77c2.05,-2.322 4.263,-4.131 7.104,-5.363c5.405,-2.348 11.92,-1.725 17.56,-0.786c6.182,1.026 12.201,3.33 17.87,5.938c4.222,1.941 8.521,5.658 13.266,6.059c1.811,0.151 3.025,-1.569 2.513,-3.23c-1.974,-6.398 -12.002,-9.698 -17.538,-11.906c-7.754,-3.093 -16.549,-5.173 -24.937,-4.725c-8.163,0.436 -14.467,3.543 -19.845,9.614c-4.7,5.306 -4.832,13.284 3.885,13.702c1.741,0.084 2.76,-2.022 1.354,-3.188Z" style="fill:#010101;fill-rule:nonzero;"/><path d="M193.317,342.417c12.314,-8.813 26.363,-14.15 41.229,-17.154c6.515,-1.316 12.441,-1.121 17.768,3.081c5.551,4.381 -1.135,5.422 -4.277,8.153c-1.17,1.018 -1.217,3.104 0.449,3.687c6.436,2.253 13.799,-2.511 13.639,-9.436c-0.158,-6.746 -8.854,-11.265 -14.363,-12.671c-10.512,-2.688 -22.853,2.732 -32.565,6.235c-8.707,3.143 -19.548,7.933 -24.368,16.285c-0.9,1.554 1.302,2.669 2.488,1.82Z" style="fill:#010101;fill-rule:nonzero;"/><path d="M230.535,325.166c-3.016,1.523 -6.155,2.811 -8.707,5.064c-2.458,2.173 0.341,5.82 3.019,3.863c2.91,-2.127 5.826,-4.232 8.867,-6.169c1.959,-1.247 0.582,-4.41 -1.633,-4.015c-3.423,0.612 -6.668,1.061 -9.725,2.81c-1.979,1.132 -2.521,5.096 0.589,5.102c5.931,0.012 11.819,-0.106 17.696,-0.978c3.121,-0.462 3.165,-4.83 0.094,-5.384c-5.292,-0.953 -10.632,-1.025 -15.994,-1.043c-3.451,-0.013 -4.473,5.445 -0.809,5.489c8.117,0.099 16.37,1.04 24.259,2.969c2.908,0.711 5.845,-2.99 2.944,-5.076c-3.09,-2.225 -5.864,-4.835 -8.955,-7.06c-0.504,1.783 -1.008,3.566 -1.512,5.351c5.032,-0.538 8.484,2.001 11.118,6.063c1.699,-1.326 3.398,-2.654 5.099,-3.981c-6.682,-9.375 -18.48,-11.709 -28.751,-7.006c-2.62,1.199 -2.849,4.892 -0.097,6.07c9.274,3.976 19.334,5.266 28.973,8.067c3.985,1.158 6.842,-4.792 2.651,-6.283c-8.878,-3.159 -17.982,-5.813 -27.417,-6.547c-8.009,-0.622 -18.76,0.327 -24.064,7.13c-1.764,2.261 0.675,4.908 3.146,4.027c3.651,-1.3 6.919,-3.127 10.753,-3.922c3.984,-0.825 8.106,-0.616 12.124,-0.216c7.82,0.777 15.429,3.214 22.808,5.811c0.884,-2.095 1.769,-4.188 2.651,-6.283c-9.652,-2.77 -19.716,-4.05 -29.027,-7.933c-0.032,2.022 -0.063,4.048 -0.097,6.071c7.76,-3.646 16.109,-2.066 21.249,4.993c2.373,3.262 7.281,-0.688 5.099,-3.981c-3.944,-5.954 -9.775,-8.79 -16.881,-7.938c-2.51,0.302 -3.683,3.831 -1.513,5.351c3.118,2.184 5.927,4.759 9.045,6.94c0.981,-1.691 1.964,-3.384 2.944,-5.076c-8.421,-1.944 -17.096,-2.975 -25.741,-3.031c-0.27,1.83 -0.539,3.66 -0.809,5.489c5.364,-0.011 10.707,0.031 16.006,0.957c0.031,-1.795 0.063,-3.589 0.094,-5.384c-5.416,0.83 -10.83,1.006 -16.304,1.022c0.407,1.575 0.814,3.149 1.223,4.726c2.523,-1.602 5.392,-2.156 8.223,-2.981c-0.737,-1.282 -1.477,-2.564 -2.213,-3.848c-2.967,2.069 -6.041,3.957 -9.133,5.831c1.006,1.288 2.012,2.575 3.019,3.863c2.422,-2.02 5.287,-3.36 7.812,-5.242c1.982,-1.474 0.167,-4.841 -2.123,-3.682Z" style="fill:#010101;fill-rule:nonzero;"/><path d="M64.6,325.381c-9.438,-1.282 -19.645,2.844 -27.069,8.469c-2.246,1.701 -1.129,4.761 1.368,5.288c9.536,2.016 21.917,-1.096 27.946,-9.163c1.096,-1.467 0.802,-4.241 -1.266,-4.759c-8.308,-2.078 -16.802,-0.444 -23.225,5.409c-1.623,1.479 -2,4.883 0.684,5.612c8.555,2.329 17.734,1.994 23.008,-6.117c1.19,-1.832 0.823,-4.267 -1.366,-5.141c-8.122,-3.244 -17.386,-3.285 -23.1,4.188c-1.315,1.722 -0.774,4.487 1.391,5.23c10.157,3.486 20.308,0.562 25.646,-9.014c1.601,-2.868 -1.978,-5.533 -4.572,-4.445c-4.374,1.834 -6.875,4.316 -9.497,8.204c-1.783,2.646 0.062,5.671 3.181,5.468c7.393,-0.481 14.788,-0.671 22.193,-0.635c-0.433,-1.668 -0.863,-3.337 -1.295,-5.005c-1.458,0.979 -2.759,1.662 -3.876,3.041c-1.017,1.253 0.066,3.595 1.809,3.11c2.053,-0.57 3.65,-0.603 5.487,-1.774c2.335,-1.491 0.758,-5.697 -2.027,-4.984c-6.563,1.684 -14.301,3.892 -20.51,-0.059c0.206,1.624 0.411,3.247 0.616,4.871c2.135,-2.676 3.264,-4.416 6.503,-5.796c-1.524,-1.481 -3.049,-2.964 -4.573,-4.445c-3.369,6.122 -10.195,7.062 -16.354,4.986c0.464,1.744 0.928,3.486 1.391,5.23c3.717,-4.92 9.835,-3.801 14.9,-1.812c-0.455,-1.713 -0.91,-3.427 -1.365,-5.141c-3.477,5.414 -9.29,5.351 -14.993,3.883c0.228,1.87 0.456,3.741 0.684,5.612c4.583,-4.292 10.601,-6.081 16.775,-4.591c-0.422,-1.587 -0.843,-3.173 -1.266,-4.759c-4.772,6.498 -14.597,8.064 -22.054,6.837c0.456,1.763 0.912,3.525 1.368,5.288c6.836,-5.666 14.822,-7.949 23.394,-9.544c1.971,-0.359 2.178,-3.255 0.064,-3.542Z" style="fill:#010101;fill-rule:nonzero;"/><path d="M64.532,333.886c4.85,-1.223 10.055,-2.905 14.793,-0.269c1.943,1.08 3.345,3.859 5.83,3.544c1.614,-0.205 2.827,-1.709 2.64,-3.381c-0.572,-5.09 -6.967,-7.419 -11.261,-7.758c-4.775,-0.377 -10.455,1.411 -13.59,5.132c-0.937,1.113 0.081,3.112 1.588,2.732Z" style="fill:#010101;fill-rule:nonzero;"/></g></svg>