<?xml version="1.0" encoding="UTF-8" standalone="no"?><!DOCTYPE svg PUBLIC "-//W3C//DTD SVG 1.1//EN" "http://www.w3.org/Graphics/SVG/1.1/DTD/svg11.dtd"><svg width="100%" height="100%" viewBox="0 0 533 322" version="1.1" xmlns="http://www.w3.org/2000/svg" xmlns:xlink="http://www.w3.org/1999/xlink" xml:space="preserve" style="fill-rule:evenodd;clip-rule:evenodd;stroke-linejoin:round;stroke-miterlimit:1.41421;"><g id="notebook"><path d="M280.713,259.655c-10.979,-0.532 -21.5,7.541 -22.149,18.875c-0.261,4.571 1.149,9.126 4.026,12.695c3.049,3.783 7.444,4.705 11.995,5.269c2.613,0.324 5.611,-2.206 6.978,-4.167c1.369,-1.966 1.344,-5.408 -2.008,-4.439c-6.618,1.912 -11.354,-4.733 -12.434,-10.443c-1.464,-7.723 2.892,-10.902 9.977,-11.523c2.135,-0.19 7.545,-6.076 3.615,-6.267Z" style="fill:#010101;fill-rule:nonzero;"/><path d="M281.057,262.567c3.576,0.121 6.642,-1.365 9.875,-2.739c4.686,-1.989 9.263,-4.241 13.847,-6.446c9.238,-4.447 18.481,-8.882 27.728,-13.312c20.257,-9.703 40.5,-19.424 60.896,-28.832c20.373,-9.398 40.873,-18.526 61.553,-27.232c10.126,-4.264 20.308,-8.396 30.542,-12.399c5.238,-2.051 10.501,-4.03 15.794,-5.938c4.938,-1.781 10.214,-4.323 15.425,-5.036c3.479,-0.477 13.36,-9.604 6.271,-10.863c-3.899,-0.693 -7.107,1.54 -10.741,2.475c-2.708,0.695 -12.344,8.619 -5.653,9.791c3.45,0.604 6.804,-0.544 10.124,-1.401c0.569,-3.155 1.14,-6.313 1.709,-9.467c-4.328,2.337 -9.424,3.67 -14.014,5.424c-5.281,2.018 -10.548,4.073 -15.814,6.124c-10.232,3.981 -20.395,8.138 -30.52,12.386c-21.254,8.917 -42.285,18.358 -63.197,28.049c-20.412,9.458 -40.694,19.193 -60.931,29.022c-9.235,4.485 -18.424,9.074 -27.627,13.627c-8.528,4.217 -18.416,7.971 -25.264,14.735c-0.475,0.464 -1.264,1.989 -0.003,2.032Z" style="fill:#010101;fill-rule:nonzero;"/><path d="M273.463,321.192c9.636,-2.682 18.765,-7.52 27.664,-11.994c10.439,-5.249 20.717,-10.832 31.082,-16.224c20.66,-10.746 41.414,-21.331 62.416,-31.395c20.986,-10.055 42.257,-19.534 63.897,-28.099c10.696,-4.23 21.502,-8.18 32.407,-11.839c5.135,-1.724 10.3,-3.377 15.502,-4.89c4.938,-1.437 11.147,-1.909 15.428,-4.824c3.195,-2.176 11.016,-7.938 9.188,-12.96c-0.04,-0.109 -0.079,-0.218 -0.119,-0.327c-0.73,-2.004 -1.813,-2.868 -4,-3.032c-5.343,-0.399 -11.427,2.793 -14.879,6.651c1.319,-1.078 1.007,-0.762 -0.942,0.947c-0.927,0.952 -1.678,2.027 -2.252,3.227c-0.461,0.91 -0.635,1.869 -0.522,2.877c5.29,3.723 6.608,5.104 3.958,4.146c-0.696,-0.877 -1.393,-1.752 -2.087,-2.628c0.024,0.425 0.128,0.81 0.21,1.227c3.333,-4.003 6.665,-8.006 9.997,-12.009c-4.499,2.005 -9.598,3.06 -14.313,4.509c-5.37,1.651 -10.706,3.418 -16.022,5.238c-10.383,3.555 -20.649,7.444 -30.843,11.514c-21.675,8.652 -42.931,18.339 -63.945,28.479c-21.336,10.299 -42.398,21.135 -63.301,32.282c-19.69,10.501 -41.014,20.294 -58.479,34.358c-1.286,1.037 -3.896,5.837 -0.045,4.766Z" style="fill:#010101;fill-rule:nonzero;"/><path d="M523.989,156.282c-9.255,8.063 -19.817,30.307 -3.467,37.141c3.189,1.333 8.723,-1.346 9.376,-4.907c0.512,-2.782 -3.054,-3.246 -4.786,-4.001c-1.77,-0.771 -2.985,-2.402 -3.944,-4.003c-4.225,-7.048 0.3,-17.655 4.798,-23.366c1.305,-1.661 -1.005,-1.71 -1.977,-0.864Z" style="fill:#010101;fill-rule:nonzero;"/><path d="M26.066,97.217c1.279,1.133 2.581,2.25 3.764,3.482c0.598,0.625 1.122,1.312 1.607,2.024c0.59,0.865 0.817,2.014 1.424,2.938c1.391,2.115 5.431,-0.369 6.653,-1.342c1.646,-1.308 4.071,-3.916 2.809,-6.179c-0.978,-1.754 -3.311,-2.708 -5.089,-3.516c-1.98,-0.899 -4.106,-1.425 -6.211,-1.94c-1.23,-0.302 -2.416,0.285 -3.371,1.044c-0.613,0.491 -2.647,2.547 -1.586,3.489Z" style="fill:#010101;fill-rule:nonzero;"/><path d="M31.927,101.238c17.115,-6.02 33.524,-14.061 50.656,-20.16c17.894,-6.37 36.078,-11.906 54.259,-17.392c18,-5.43 36.018,-10.812 53.831,-16.836c8.993,-3.041 17.913,-6.301 26.865,-9.458c4.12,-1.453 8.179,-3.055 12.223,-4.71c4.202,-1.72 8.525,-4.36 12.867,-5.601c3.733,-1.065 7.053,-3.214 9.301,-6.44c1.644,-2.36 2.877,-6.996 -1.439,-7.18c-6.292,-0.269 -13.363,2.92 -16.633,8.497c-2.047,3.49 -0.537,6.467 3.724,4.685c-2.459,1.029 2.501,0.629 3.308,0.592c0.613,-3.538 1.226,-7.076 1.838,-10.614c-3.191,2.255 -7.478,3.736 -11.017,5.395c-4.102,1.92 -8.248,3.745 -12.383,5.59c-8.832,3.94 -17.881,7.206 -27.025,10.339c-18.521,6.348 -37.303,11.905 -56.032,17.601c-18.024,5.481 -36.017,11.071 -53.721,17.527c-17.6,6.418 -35.926,13.379 -51.368,24.156c-2.149,1.496 -2.916,5.297 0.746,4.009Z" style="fill:#010101;fill-rule:nonzero;"/><path d="M250.864,3.798c8.806,8.292 18.761,14.427 29.002,20.813c10.77,6.715 21.666,13.23 32.62,19.644c22.294,13.053 45.112,25.269 67.932,37.374c22.882,12.139 45.924,23.971 69.07,35.595c11.425,5.738 22.869,11.439 34.317,17.133c11.707,5.821 23.579,11.302 34.61,18.329c4.14,-4.361 8.278,-8.723 12.416,-13.084c-5.346,-2.466 -10.339,-0.91 -15.883,-1.532c-2.504,-0.281 -10.791,5.224 -7.775,8.154c3.53,3.434 6.734,4.688 11.242,6.462c6.066,2.389 18.724,-10.775 12.416,-13.084c-23.843,-8.73 -46.57,-21.304 -69.39,-32.419c-23.396,-11.396 -46.766,-22.851 -69.995,-34.582c-23.199,-11.714 -46.24,-23.744 -69.037,-36.22c-11.245,-6.153 -22.497,-12.281 -33.672,-18.562c-11.212,-6.302 -22.008,-12.779 -33.947,-17.612c-1.349,-0.548 -5.326,2.273 -3.926,3.591Z" style="fill:#010101;fill-rule:nonzero;"/><path d="M135.03,169.169c-2.431,-2.815 -7.706,-1.518 -10.774,-0.602c-4.963,1.483 -9.28,4.328 -13.026,7.872c-6.746,6.38 -10.916,15.171 -12.504,24.252c-1.162,6.638 -1.066,15.244 3.429,20.745c5.916,7.237 17.037,3.647 23.07,-1.312c2.315,-1.903 7.054,-10.4 0.081,-8.582c-1.692,0.44 -3.356,0.937 -5,1.534c1.272,-0.463 -0.636,0.063 -0.792,0.089c1.089,-0.184 -0.614,-0.052 -0.745,-0.059c-1.231,-0.063 -2.791,-1.001 -3.984,-2.389c-3.104,-3.609 -3.854,-8.95 -3.654,-13.56c0.25,-5.764 1.938,-11.399 5.214,-16.159c3.702,-5.382 9.963,-5.477 15.945,-7.94c0.949,-0.389 3.93,-2.512 2.74,-3.889Z" style="fill:#010101;fill-rule:nonzero;"/><path d="M172.32,186.86c-16.935,2.049 -28.307,18.442 -30.463,34.387c-0.827,6.114 -0.5,12.568 2.289,18.15c3.468,6.945 11.64,4.407 16.561,0.673c2.801,-2.125 7.41,-10.729 0.086,-9.157c-0.53,0.113 -1.068,0.187 -1.604,0.273c0.724,-0.118 1.229,0.181 0.194,-0.251c-0.745,-0.311 -1.411,-1.211 -2.205,-2.565c-1.83,-3.112 -2.217,-7.967 -2.076,-11.646c0.41,-10.676 4.951,-20.174 15.331,-24.056c2.019,-0.754 6.62,-6.38 1.887,-5.808Z" style="fill:#010101;fill-rule:nonzero;"/><path d="M200.088,211.602c-9.028,-2.362 -18.974,2.918 -24.932,9.47c-5.934,6.526 -8.366,15.04 -7.684,23.732c0.663,8.421 5.142,16.521 11.648,21.803c1.647,1.337 3.424,2.488 5.281,3.508c3.207,1.759 6.899,-0.229 9.729,-1.916c3.32,-1.977 10.678,-9.454 5.735,-13.457c-3.955,-3.202 -9.735,2.528 -11.529,5.755c5.724,-5.11 7.396,-6.854 5.02,-5.229c-1.619,1.086 -3.088,2.218 -4.217,3.839c-0.703,1.009 -1.62,2.548 -1.807,3.792c-0.686,4.57 -0.027,-1.887 4.674,-3.802c1.542,-0.133 3.085,-0.264 4.627,-0.396c-9.337,-4.352 -15.305,-13.218 -16.217,-23.433c-0.363,-4.058 0.537,-8.349 2.924,-11.672c0.493,-0.688 1.416,-1.423 2.831,-2.058c2.699,-1.209 5.656,-1.567 8.513,-2.209c1.559,-0.347 9.623,-6.624 5.404,-7.727Z" style="fill:#010101;fill-rule:nonzero;"/><path d="M235.242,230.333c-6.595,0.121 -12.911,5.926 -17.474,10.104c-5.673,5.195 -10.124,11.935 -12.961,19.061c-5.729,14.391 -2.074,28.607 11.182,36.993c1.837,1.161 5.365,-0.393 6.883,-1.388c3.857,-2.533 13.666,-11.502 6.42,-15.878c-1.77,-1.068 -4.904,0.846 -6.175,1.914c-1.488,1.25 -2.686,2.59 -3.885,4.11c-0.546,0.82 -0.999,1.689 -1.353,2.607c-0.917,1.908 -0.497,1.484 1.262,-1.27c2.949,-0.914 5.897,-1.827 8.845,-2.74c-9.882,-5.584 -13.872,-15.171 -11.179,-26.103c1.187,-4.814 3.976,-9.139 6.954,-13.024c2.927,-3.821 7.1,-6.11 10.595,-9.271c0.845,-0.762 4.325,-5.18 0.886,-5.115Z" style="fill:#010101;fill-rule:nonzero;"/><path d="M254.08,254.398c-6.058,1.292 -10.056,8.505 -12.845,13.473c-3.21,5.716 -5.208,12.229 -6.041,18.718c-1.775,13.824 4.059,26.201 16.855,32.203c4.48,2.103 10.435,-3.298 12.794,-6.443c2.662,-3.551 3.581,-8.264 -0.6,-10.934c-2.372,-1.514 -6.617,1.749 -8.047,3.301c-1.164,1.262 -2.254,2.478 -3.033,4.025c-0.512,0.867 -0.885,1.792 -1.118,2.774c-0.485,1.413 -0.483,1.489 0.008,0.231c4.265,-2.147 8.53,-4.297 12.793,-6.443c-9.764,-4.238 -15.237,-11.868 -15.763,-22.504c-0.452,-9.111 3.776,-17.041 7.362,-25.049c0.327,-0.73 0.701,-2.016 0.025,-2.713c-0.672,-0.697 -1.44,-0.843 -2.39,-0.639Z" style="fill:#010101;fill-rule:nonzero;"/><path d="M102.459,108.291c12.259,-1.375 24.465,-6.904 35.834,-11.438c12.795,-5.102 25.37,-10.74 38.029,-16.16c12.25,-5.244 24.532,-10.431 37.041,-15.034c11.149,-4.101 22.404,-6.563 33.824,-9.599c2.612,-0.694 4.964,-2.282 6.52,-4.515c0.965,-1.387 2.134,-5.303 -1.009,-5.033c-11.395,0.976 -22.96,5.593 -33.591,9.585c-13.064,4.907 -25.803,10.665 -38.503,16.436c-12.658,5.751 -25.316,11.488 -38.145,16.853c-12.705,5.312 -25.912,9.308 -38.601,14.592c-1.423,0.592 -4.964,4.712 -1.399,4.313Z" style="fill:#010101;fill-rule:nonzero;"/><path d="M185.212,169.392c14.363,-4.237 28.156,-10.43 41.854,-16.425c16.58,-7.257 33.104,-14.641 49.661,-21.951c14.97,-6.612 29.977,-13.16 45.15,-19.294c5.998,-2.425 12.031,-4.878 18.297,-6.526c5.606,-1.476 12.011,-2.769 16.486,-6.62c1.079,-0.929 4.399,-4.154 2.668,-5.868c-3.254,-3.218 -11.551,0.677 -15.108,2.373c-6.075,2.898 -12.463,5.219 -18.703,7.731c-15.502,6.242 -30.793,13.01 -46.059,19.805c-31.174,13.876 -62.855,27.126 -93.435,42.271c-1.457,0.721 -4.274,5.526 -0.811,4.504Z" style="fill:#010101;fill-rule:nonzero;"/><path d="M96.653,110.482c-0.042,0.615 0.074,0.551 0.351,-0.189c-0.276,0.324 -0.543,0.655 -0.801,0.995c-0.655,0.845 -0.915,1.792 -0.479,2.764c2.806,6.228 10.076,10.55 15.389,14.41c8.269,6.007 16.915,11.502 25.603,16.878c7.991,4.944 15.996,9.878 24.016,14.773c2.725,1.662 5.46,3.305 8.203,4.936c2.188,1.301 4.368,0.543 6.176,0.358c1.712,-0.174 5.181,-2.752 4.616,-4.807c-0.26,-0.948 -0.314,-2.438 -1.906,-3.677c-2.296,-1.786 -5.356,-2.924 -7.928,-4.276c-8.223,-4.325 -16.345,-8.784 -24.308,-13.57c-15.145,-9.104 -29.907,-18.66 -43.243,-30.285c-0.813,-0.708 -1.857,-0.551 -2.799,-0.158c-0.692,0.288 0.294,0.499 -0.257,0.039c-0.939,-0.783 -2.68,0.814 -2.633,1.809Z" style="fill:#010101;fill-rule:nonzero;"/><path d="M258.877,46.692c0.917,2.136 2.366,2.655 4.505,3.457c3.249,1.218 6.346,2.768 9.532,4.129c7.852,3.357 15.484,7.271 23.042,11.241c7.292,3.832 14.46,7.899 21.509,12.162c3.142,1.899 6.224,3.871 9.232,5.975c2.318,1.622 4.141,4.988 7.039,4.959c3.363,-0.033 8.601,-3.628 8.171,-7.436c-0.027,-0.249 -0.056,-0.498 -0.084,-0.747c-0.127,-0.668 -0.501,-1.14 -1.124,-1.414c-6.079,-1.853 -11.666,-6.317 -17.148,-9.465c-7.229,-4.149 -14.61,-8.03 -22.073,-11.738c-7.339,-3.646 -14.817,-6.997 -22.455,-9.976c-5.663,-2.21 -12.547,-5.023 -18.549,-3.066c-0.527,0.172 -1.91,1.193 -1.597,1.919Z" style="fill:#010101;fill-rule:nonzero;"/><path d="M337.639,95.538c2.585,0 5.131,-1.868 6.557,-3.916c0.923,-1.325 1.747,-4.263 -0.854,-4.263c-2.585,0 -5.131,1.869 -6.558,3.916c-0.922,1.325 -1.745,4.263 0.855,4.263Z" style="fill:#010101;fill-rule:nonzero;"/><path d="M3.945,134.622c-1.635,-2.764 -4.023,0.907 -3.646,3.009c0.281,1.563 3.513,3.685 4.609,4.686c2.785,2.543 5.833,4.825 8.821,7.119c13.968,10.719 28.363,20.902 42.739,31.062c25.719,18.179 52.574,35.355 76.871,55.441c18.806,15.547 39.444,28.907 59.65,42.525c10.111,6.814 20.235,13.613 30.162,20.695c4.26,3.039 8.44,6.15 12.235,9.764c3.45,3.285 6.2,6.678 10.706,8.363c2.965,1.109 8.407,-3.293 7.027,-6.425c-1.789,-4.056 -5.433,-5.921 -9.07,-8.315c-4.565,-3.006 -9.071,-6.056 -13.538,-9.207c-9.931,-7.004 -20.103,-13.662 -30.277,-20.307c-20.938,-13.672 -42.226,-27.07 -61.663,-42.862c-23.932,-19.445 -50.455,-36.011 -75.766,-53.578c-15.008,-10.417 -30.015,-20.893 -44.588,-31.915c-3.517,-2.66 -7.047,-5.304 -10.545,-7.989c-0.913,-0.701 -1.991,-2.05 -3.042,-2.501c-1.733,-0.744 -4.091,1.903 -1.728,1.695c0.444,-0.04 1.345,-0.753 1.043,-1.26Z" style="fill:#010101;fill-rule:nonzero;"/><path d="M279.621,275.317c39.963,-11.287 77.306,-32.173 114.034,-51.135c19.637,-10.139 39.297,-20.234 59.357,-29.514c19.73,-9.126 40.115,-18.187 61.182,-23.758c1.521,-0.4 7.324,-5.79 3.378,-5.851c-6.063,-0.094 -10.95,2.437 -16.338,4.917c-1.058,0.487 -4.04,4.167 -1.15,3.537c4.437,-0.967 8.823,-2.149 13.363,-2.538c0.849,-1.865 1.696,-3.731 2.544,-5.598c-19.918,7.194 -39.635,14.504 -58.939,23.251c-19.56,8.861 -38.705,18.616 -57.808,28.417c-19.601,10.057 -39.163,20.188 -59.039,29.695c-19.526,9.343 -39.547,17.522 -59.618,25.599c-1.016,0.411 -3.25,3.624 -0.966,2.978Z" style="fill:#010101;fill-rule:nonzero;"/><path d="M286.831,284.612c9.753,-2.845 19.011,-8.955 28.224,-13.23c10.024,-4.653 20.125,-9.129 30.288,-13.475c19.71,-8.428 39.681,-16.315 59.111,-25.388c18.191,-8.494 35.6,-18.576 53.484,-27.682c17.418,-8.868 37.078,-18.958 56.865,-20.429c2.343,-0.174 4.477,-1.549 5.817,-3.474c0.762,-1.095 1.584,-3.902 -0.759,-3.782c-5.239,0.269 -10.19,2.379 -13.636,6.421c-2.134,2.504 -0.703,4.983 2.372,2.985c1.927,-1.252 3.896,-1.954 6.205,-2.15c1.381,-2.392 2.762,-4.783 4.143,-7.176c-19.737,4.371 -38.169,11.416 -56.281,20.349c-18.792,9.27 -36.905,19.86 -55.8,28.927c-19.806,9.503 -40.358,17.486 -60.557,26.108c-10.167,4.341 -20.28,8.806 -30.292,13.495c-9.722,4.555 -20.804,8.985 -29.161,15.802c-0.708,0.58 -2.206,3.336 -0.023,2.699Z" style="fill:#010101;fill-rule:nonzero;"/><path d="M40.525,107.555c-1.292,-1.071 -1.347,-2.479 -3.059,-3.147c-1.418,-0.555 -2.955,-0.852 -4.456,-1.077c-3.234,-0.482 -7.201,0.741 -10.091,2.063c-7.206,3.292 -12.756,9.236 -16.551,16.093c-6.35,11.474 -8.69,27.104 -2.991,39.248c2.281,4.862 8.874,10.271 14.664,8.69c4.529,-1.236 12.559,-5.401 11.498,-11.364c-0.532,-2.994 -5.971,-2.793 -8.084,-3.935c-9.708,-5.24 -8.432,-22.731 -5.199,-31.414c0.847,-2.273 1.814,-4.137 3.129,-6.02c0.924,-1.322 1.951,-2.161 2.767,-2.653c1.109,-0.67 3.427,-1.116 5.444,-1.328c2.619,-0.274 5.939,-0.728 8.494,-0.506c1.338,0.117 6.286,-3.117 4.435,-4.65Z" style="fill:#010101;fill-rule:nonzero;"/><path d="M59.413,124.502c-1.651,-0.805 -2.445,-2.313 -4.493,-2.649c-1.902,-0.313 -4.024,-0.123 -5.874,0.412c-5.281,1.527 -9.574,4.86 -12.886,9.188c-5.696,7.441 -6.242,17.839 -5.542,26.792c0.704,9.023 3.339,18.31 7.792,26.206c1.629,2.894 3.792,5.535 6.744,7.153c1.608,0.881 3.818,1.073 5.59,0.697c2.556,-0.541 4.864,-1.659 6.916,-3.289c0.479,-0.381 6.145,-7.258 3.82,-4.323c2.282,-2.882 1.566,-6.853 -2.712,-6c1.124,0.156 2.248,0.313 3.372,0.469c-0.688,-0.752 -1.547,-1.128 -2.578,-1.128c-0.412,0.02 -0.823,0.004 -1.234,-0.006c-1.214,-0.028 1.353,0.413 0.145,0.039c-0.49,-0.151 -0.944,-0.403 -1.387,-0.654c-0.793,-0.448 -0.568,-0.331 -1.729,-1.517c-1.035,-1.058 -1.919,-2.262 -2.76,-3.478c-3.8,-5.494 -6.095,-11.975 -7.658,-18.422c-1.564,-6.448 -2.382,-13.295 -0.639,-19.786c0.066,-0.248 1.283,-2.792 0.993,-2.325c0.841,-1.358 0.089,-0.286 0.703,-0.968c0.375,-0.416 0.346,-0.263 0.027,-0.058c1.888,-1.211 7.728,-2.952 10.728,-3.109c0.918,-0.046 4.447,-2.375 2.662,-3.244Z" style="fill:#010101;fill-rule:nonzero;"/><path d="M99.363,142.899c-5.523,-3.692 -13.78,2.461 -17.668,6.005c-7.103,6.478 -11.862,14.753 -14.791,23.853c-4.158,12.922 -4.422,34.868 12.874,37.758c5.457,0.911 20.198,-12.602 12.595,-15.355c-4.588,-1.663 -8.03,-3.634 -9.931,-8.444c-2.036,-5.151 -1.987,-10.865 -1.146,-16.248c1.732,-11.089 6.924,-20.013 16.918,-25.035c0.68,-0.346 2.195,-1.836 1.149,-2.534Z" style="fill:#010101;fill-rule:nonzero;"/><path d="M134.035,121.224c1.446,-0.608 2.303,-0.862 3.211,-1.292c1.593,-0.754 3.224,-1.432 4.856,-2.098c4.928,-2.013 9.729,-4.448 14.571,-6.663c12.598,-5.765 25.365,-11.195 38.23,-16.329c12.624,-5.038 25.322,-9.906 38.132,-14.455c4.634,-1.646 9.288,-3.239 13.984,-4.701c-1.687,0.525 1.022,-0.298 1.411,-0.409c0.751,-0.216 1.507,-0.418 2.264,-0.613c3.779,-0.974 6.853,-2.183 9.745,-5.056c1.306,-1.294 3.333,-3.998 2.748,-6.044c-0.009,-0.034 -0.019,-0.067 -0.028,-0.101c-0.583,-2.042 -2.604,-2.463 -4.493,-2.018c-8.924,2.107 -17.595,5.706 -26.115,9.025c-13.074,5.094 -26.02,10.522 -38.896,16.095c-12.651,5.476 -25.303,10.944 -37.754,16.868c-7.854,3.736 -17.51,7.813 -23.319,14.551c-1.485,1.723 -1.548,4.502 1.453,3.24Z" style="fill:#010101;fill-rule:nonzero;"/><path d="M163.008,138.702c9.127,-3.047 17.754,-8.435 26.424,-12.579c9.447,-4.518 19.095,-8.596 28.752,-12.638c9.441,-3.952 18.915,-7.823 28.344,-11.803c4.663,-1.968 9.305,-3.986 13.918,-6.066c3.684,-1.659 7.578,-4.336 11.542,-4.947c5.147,-0.794 11.466,-6.028 12.432,-11.291c1.398,-7.614 -9.789,-2.929 -12.317,-0.691c-2.422,2.144 -5.63,3.35 -9.501,5.128c-4.609,2.117 -9.267,4.133 -13.93,6.13c-9.939,4.256 -19.955,8.332 -29.895,12.585c-10.337,4.424 -20.581,9.084 -30.64,14.106c-9.524,4.754 -19.494,9.948 -27.22,17.397c-2.689,2.595 -1.957,6.021 2.091,4.669Z" style="fill:#010101;fill-rule:nonzero;"/><path d="M184.46,147.934c10.83,-0.27 21.518,-4.021 31.537,-7.86c11.098,-4.254 21.853,-9.373 32.529,-14.576c10.693,-5.214 21.309,-10.582 32.117,-15.557c5.08,-2.337 10.218,-4.545 15.406,-6.629c4.881,-1.959 10.414,-4.685 15.573,-4.979c3.644,-0.208 7.019,-2.458 9.085,-5.426c2.173,-3.12 1.524,-6.182 -2.614,-5.782c-4.304,0.415 -8.359,2.509 -12.151,4.476c-1.734,0.899 -5.75,4.782 -2.996,6.591c2.185,1.436 6.213,0.22 8.678,0.142c1.064,-3.298 2.131,-6.596 3.194,-9.893c-5.009,2.504 -10.506,4.025 -15.722,6.072c-5.219,2.047 -10.349,4.316 -15.443,6.653c-10.776,4.939 -21.331,10.359 -31.934,15.657c-10.26,5.127 -20.603,10.089 -31.206,14.474c-11.14,4.605 -22.663,8.025 -33.991,12.101c-1.033,0.37 -5.043,4.61 -2.062,4.536Z" style="fill:#010101;fill-rule:nonzero;"/><path d="M40.587,104.936c7.646,6.53 17.094,10.846 25.777,15.806c10.063,5.747 20.06,11.621 29.988,17.599c19.716,11.87 39.094,24.294 58.329,36.925c19.218,12.619 38.192,25.603 57.18,38.563c9.554,6.521 19.107,13.038 28.683,19.526c4.457,3.021 8.919,6.029 13.387,9.031c2.457,1.648 4.916,3.294 7.376,4.936c1.979,1.32 6.23,3.102 7.117,5.452c1.574,4.171 10.519,-2.058 9.223,-5.424c-1.812,-4.705 -8.324,-2.909 -12.276,-2.299c-2.053,0.316 -7.94,5.597 -3.723,6.445c2.993,0.604 5.604,2.074 8.558,2.625c1.888,-2.707 3.773,-5.413 5.662,-8.12c-2.66,-0.206 -5.151,-2.407 -7.306,-3.795c-2.489,-1.604 -4.974,-3.215 -7.458,-4.826c-4.521,-2.935 -9.032,-5.884 -13.539,-8.836c-9.688,-6.349 -19.349,-12.735 -29.011,-19.122c-19.21,-12.699 -38.438,-25.372 -57.734,-37.941c-19.31,-12.577 -38.789,-24.898 -58.558,-36.742c-9.457,-5.666 -18.987,-11.21 -28.648,-16.518c-10.05,-5.521 -20.213,-11.746 -31.332,-14.832c-0.551,-0.153 -2.356,0.982 -1.695,1.547Z" style="fill:#010101;fill-rule:nonzero;"/></g></svg>