<?xml version="1.0" encoding="utf-8"?>
<!-- Generator: Adobe Illustrator 17.0.0, SVG Export Plug-In . SVG Version: 6.00 Build 0)  -->
<!DOCTYPE svg PUBLIC "-//W3C//DTD SVG 1.0//EN" "http://www.w3.org/TR/2001/REC-SVG-20010904/DTD/svg10.dtd">
<svg version="1.0" id="Layer_1" xmlns="http://www.w3.org/2000/svg" xmlns:xlink="http://www.w3.org/1999/xlink" x="0px" y="0px"
	 width="566.93px" height="566.93px" viewBox="0 0 566.93 566.93" enable-background="new 0 0 566.93 566.93" xml:space="preserve">
<path d="M50.093,522.989c5.677,0.273,11.361,0.288,16.964,0.215c16.312-0.211,32.602-1.506,48.875-2.555
	c36.023-2.323,72.729,2.626,108.464-3.429c4.563-0.773,11.786-6.163,9.043-11.733c-5.735-11.645-21.646-11.235-33.893-11.465
	c-0.831-0.147-1.733-0.235-2.732-0.235c-0.99,0-1.98,0.008-2.97,0.011c-2.24-0.167-4.448-0.54-6.628-1.058
	c-3.149-2.765-5.762-6.3-8.457-9.483c-0.876-1.034-1.72-2.098-2.556-3.17c-1.458-26.507-4.319-52.925-6.366-79.392
	c-2.441-31.55-3.323-63.248-4.039-94.878c-1.439-63.568-0.451-127.045,0.81-190.602c0.344-17.344,1.15-34.646,1.803-51.978
	c0.03-0.797-0.09-1.524-0.314-2.192c1.219-2.076,1.927-4.422,1.876-6.864c0.001-0.042,0.002-0.084,0.003-0.126
	c0.006-0.322-0.007-0.627-0.03-0.924c-0.017-0.683-0.033-1.366-0.054-2.049c-0.207-6.687-6.73-7.787-11.925-6.694
	c-23.086,4.854-43.534,19.636-62.569,32.826c-10.531,7.298-21.182,14.399-31.344,22.214c-5.823,4.478-11.73,9.047-16.716,14.372
	c-0.425,0.396-0.857,0.786-1.278,1.186c-4.441,4.21-8.184,8.572-11.494,13.261c-1.667,2.02-3.146,4.177-4.349,6.514
	c-0.679,0.852-1.356,1.705-1.997,2.597c-1.449,2.019-3.446,5.021-4.154,7.957c-0.499,0.582-0.985,1.211-1.478,1.907
	c-3.714,5.245,0.746,10.633,6.512,7.42c0.967-0.539,1.921-1.102,2.87-1.675c4.678-1.557,9.452-5.045,13.123-7.217
	c7.042-4.164,13.466-7.474,20.972-9.917c4.075-1.327,7.756-2.125,11.13-1.649c0.122,1.262,0.216,2.527,0.278,3.791
	c0.656,13.386,1.051,26.582,0.632,39.995c-0.841,26.919-1.594,53.828-2.812,80.734c-1.432,31.624-2.852,63.229-2.399,94.893
	c0.545,38.091,2.707,76.264,0.659,114.297c-1.459,5.854-3.261,11.539-5.319,16.68c-0.74,1.85-1.554,3.668-2.429,5.456
	c-12.158,8.709-26.589,11.92-41.111,17c-4.624,1.618-9.335,9.601-2.495,11.643c6.572,1.961,13.372,3.11,20.241,3.768
	C45.047,523.097,47.604,523.252,50.093,522.989z"/>
<path d="M441.003,522.55c11.401-0.067,22.807-0.3,34.207-0.099c6.953,0.123,14-6.194,16.775-12.093
	c2.313-4.917,2.594-13.324-3.542-15.872c-1.856-0.771-3.585-1.645-5.259-2.712c0.35,0.16-1.248-1.141-1.532-1.451
	c-0.227-0.247-0.656-0.923-0.931-1.355c-0.52-1.146-0.907-2.353-1.235-3.568c0.312,1.063-0.665-3.398-0.816-4.26
	c-0.505-2.862-1.067-5.441-1.878-7.921c0.077-11.036-0.15-22.097-0.18-33.097c-0.045-16.531-0.181-33.061-0.349-49.591
	c-0.019-1.859-0.042-3.719-0.062-5.578c13.575-0.974,27.159-1.841,40.696-1.838c5.087,0.001,10.115-3.056,13.653-7.198
	c1.042-1.22,1.949-2.532,2.694-3.893c5.433-4.787,10.103-10.466,13.97-16.561c2.77-4.365,5.14-9.359,3.129-14.604
	c-1.738-4.536-6.78-7.071-11.506-6.421c-21.163,2.912-42.049,7.471-63.092,11.081c-0.219-18.061-0.437-36.122-0.596-54.184
	c-0.29-32.982-0.613-65.966-1.25-98.944c-0.317-16.421-0.677-32.833-1.252-49.249c-0.182-5.194-0.417-10.337-0.813-15.438
	c0.801-8.041,0.767-16.15,0.421-24.214c-0.358-8.336-0.801-16.698-0.327-25.038c0.213-3.756,1.105-9.387,0.532-14.126
	c0.928-2.886,1.842-5.698,2.822-8.329c1.489-3.998-1.033-8.586-5.837-6.652c-2.284,0.92-4.565,1.848-6.846,2.777
	c-1.913-0.209-3.962-0.005-6.008,0.685c-10.075,3.401-19.996,7.1-29.69,11.48c-8.75,3.954-20.368,9.139-26.093,17.113
	c-1.403,1.954-2.08,4.169-1.796,6.109c-2.373,3.84-4.519,7.832-6.928,11.651c-3.129,4.961-6.466,9.79-9.891,14.551
	c-4.792,6.09-9.459,12.282-14.066,18.502c-4.683,5.858-9.482,11.624-14.346,17.331c-18.331,21.509-36.952,42.791-55.34,64.247
	c-20.638,24.081-40.003,49.302-59.383,74.4c-17.997,23.308-35.8,46.783-53.275,70.488c-2.671,1.695-4.909,4.064-6.215,6.675
	c-0.097,0.111-0.198,0.218-0.294,0.329c-2.807,3.23-5.027,9.478-3.338,13.813c-0.421,3.635,1.519,6.666,5.52,8.034
	c11.36,3.884,24.847,2.551,36.693,2.232c0.784-0.021,1.568-0.057,2.351-0.085c18.228,2.121,37,1.691,55.009,1.453
	c27.188-0.36,54.353-1.213,81.545-1.417c19.389-0.145,38.774-0.643,58.15-1.375c-0.024,12.608-0.098,25.216-0.316,37.823
	c-0.229,13.256-0.75,26.194-1.857,38.717c-0.913,10.323-1.826,20.744-1.151,31.081c-2.218,2.121-4.685,4.071-7.133,6.106
	c-5.612,4.668-9.147,17.761,1.221,19.338C417.5,523.156,429.376,522.619,441.003,522.55z M267.01,359.878
	c-3.941,0.39-7.88,0.807-11.818,1.232c-1.894-0.43-3.748-0.969-5.559-1.625c-3.475-4.388-6.211-9.492-7.111-15.07
	c-0.432-2.675-0.589-5.575-0.593-8.491c5.189-7.209,10.353-14.438,15.749-21.498c9.445-12.36,20.03-23.792,29.831-35.867
	c6.614-8.149,12.965-16.509,18.937-25.135c3.282-4.35,6.541-8.7,9.795-13.022c9.14-12.141,18.092-24.438,27.217-36.598
	c8.566-9.38,17.168-18.67,24.944-28.745c5.796-7.51,11.433-15.146,17.074-22.779c4.306-4.583,8.875-8.897,13.888-12.438
	c2.287-1.615,4.712-2.889,7.228-3.917c1.378,0.406,2.792,1.066,4.258,1.947c1.625,0.976,3.535,3.024,5.361,5.355
	c0.271,13.812-0.499,27.741-0.502,41.475c-0.006,20.404,0.513,40.786,0.944,61.184c0.024,1.151,0.04,2.303,0.063,3.455
	c-0.064,0.841-0.138,1.681-0.197,2.523c-2.058,29.21-1.227,58.849-1.298,88.118c-0.01,4.041-0.013,8.081-0.014,12.121
	c-19.548,1.091-39.171,1.581-58.631,2.604C326.737,356.278,296.753,356.938,267.01,359.878z"/>
</svg>
