<?xml version="1.0" encoding="utf-8"?>
<!-- Generator: Adobe Illustrator 17.0.0, SVG Export Plug-In . SVG Version: 6.00 Build 0)  -->
<!DOCTYPE svg PUBLIC "-//W3C//DTD SVG 1.0//EN" "http://www.w3.org/TR/2001/REC-SVG-20010904/DTD/svg10.dtd">
<svg version="1.0" id="Layer_1" xmlns="http://www.w3.org/2000/svg" xmlns:xlink="http://www.w3.org/1999/xlink" x="0px" y="0px"
	 width="566.93px" height="566.93px" viewBox="0 0 566.93 566.93" enable-background="new 0 0 566.93 566.93" xml:space="preserve">
<path d="M382.422,427.155c-15.556,18.692-35.815,30.077-59.271,35.934c-23.386,5.839-48.32,5.437-72.051,2.169
	c-21.583-2.972-43.693-6.212-64.449-12.994c-5.535-1.809-11.002-4.158-16.158-6.858c-4.604-2.411-9.844-5.001-13.835-8.341
	c-3.381-2.829-8.229-0.233-9.661,3.39c-0.181,0.139-0.355,0.28-0.52,0.425c-4.727,4.146-8.664,9.643-12.773,14.409
	c-4.405,5.11-8.739,10.28-13.073,15.451c-4.388,5.236-8.762,10.486-13.179,15.698c-3.403,4.015-8.396,9.597-9.377,14.897
	c-0.444,2.395,1.524,3.377,3.592,2.898c1.401-0.324,2.749-0.906,4.047-1.652c0,0.047-0.005,0.091-0.005,0.138
	c0.023,3.009,3.125,3.607,5.439,3.053c0.389-0.093,0.768-0.224,1.149-0.344c1.438,1.848,4.261,2.656,7.711,1.037
	c-0.926,0.434-1.406,0.628-1.59,0.697c0.209-0.068,0.747-0.22,1.365-0.246c-0.296,0.013,2.023,0.329,1.871,0.303
	c2.736,0.466,5.519,0.727,8.264,1.241c2.399,0.45,4.818,1.002,7.188,1.714c0.107,0.043,0.214,0.086,0.321,0.129
	c0.465,0.262,0.992,0.478,1.586,0.64c2.007,0.817,4.009,1.648,6.01,2.481c1.239,0.516,2.58,0.637,3.933,0.465
	c48.709,14.771,102.329,11.336,150.288-4.816c49.947-16.823,93.788-49.647,117.825-97.297
	c11.468-22.731,17.066-48.877,13.586-74.235c-2.787-20.298-11.287-39.575-23.48-55.949c-23.27-31.246-60.388-49.003-97.149-58.862
	c-22.742-6.099-46.171-9.015-69.67-9.776c3.515-26.048,14.769-49.974,22.187-75.016c3.926-13.257,5.814-26.857,8.408-40.406
	c1.232-6.44,2.166-12.95,2.791-19.479c15.978,3.089,32.348,4.197,48.596,4.166c23.064-0.043,45.966-1.247,68.836-4.344
	c12.159-1.647,24.108-4.221,35.998-7.236c11.567-2.934,23.646-5.71,33.891-12.052c0.659-0.409,1.438-1.297,2.059-2.337
	c1.953-1.781,3.674-3.832,5.283-5.98c1.364-1.82,0.807-3.953-0.601-4.757c-0.073-0.773-0.62-1.352-1.939-1.452
	c-4.662-0.356-8.954-0.848-13.672-0.332c-5.626,0.615-11.226,1.601-16.822,2.433c-10.286,1.529-20.604,2.84-30.944,3.949
	c-19.732,2.115-39.709,3.6-59.562,2.873c-19.556-0.717-39.054-3.081-58.439-5.646c-21.108-2.793-41.949-8.803-63.175-9.903
	c-3.011-0.156-5.641,0.949-7.506,3.41c-0.78,1.029-1.366,2.406-1.507,3.763c-5.951,4.903-11.165,11.176-16.101,16.988
	c-1.623,1.91-3.244,6.066-1.826,8.52c2.9,5.017,5.164,7.472,6.952,13.186c1.594,5.094,2.022,10.855,2.064,16.685
	c0.097,13.562-3.061,27.139-6.593,40.152c-6.167,22.717-15.306,44.375-24.258,66.088c-1.863,2.627-3.124,5.532-3.516,8.95
	c-0.163,1.415-0.081,2.617,0.182,3.636c-0.449,0.796-0.887,1.602-1.315,2.414c-1.051,1.253-1.823,2.771-2.196,4.268
	c-1.303,2.559-2.614,5.085-4.093,7.421c-0.838,1.324-1.328,2.771-1.409,4.111c-1.578,1.508-2.851,3.808-2.556,5.616
	c-0.195,0.318-0.381,0.643-0.581,0.959c0.32-0.212,0.559-0.37,0.719-0.476c0.001,0.002,0.001,0.004,0.002,0.007
	c-0.146,0.099-0.357,0.241-0.642,0.432c-4.055,2.744-9.013,11.764-1.096,13.383c3.725,0.762,8.103-0.25,11.879-0.53
	c4.228-0.313,8.458-0.609,12.688-0.869c8.744-0.537,17.506-0.787,26.267-0.817c18.638-0.065,37.262,1.126,55.729,3.651
	c35.612,4.87,73.317,14.917,101.89,37.779c12.526,10.023,22.934,22.588,29.703,37.165c3.416,7.355,6.514,15.675,7.471,23.766
	c0.746,6.307,1.457,12.637,1.852,18.977c0.197,3.183,1.103,6.274,1.014,9.471c-0.006,0.198,0.008,0.388,0.007,0.583
	c-0.882,3.043-1.92,6.059-3.22,9.033C398.121,406.897,390.584,417.347,382.422,427.155z"/>
</svg>
