<?xml version="1.0" encoding="utf-8"?>
<!-- Generator: Adobe Illustrator 17.0.0, SVG Export Plug-In . SVG Version: 6.00 Build 0)  -->
<!DOCTYPE svg PUBLIC "-//W3C//DTD SVG 1.0//EN" "http://www.w3.org/TR/2001/REC-SVG-20010904/DTD/svg10.dtd">
<svg version="1.0" id="Layer_1" xmlns="http://www.w3.org/2000/svg" xmlns:xlink="http://www.w3.org/1999/xlink" x="0px" y="0px"
	 width="566.93px" height="566.93px" viewBox="0 0 566.93 566.93" enable-background="new 0 0 566.93 566.93" xml:space="preserve">
<path d="M77.28,492.267c-0.74,1.85-1.554,3.667-2.429,5.456c-12.157,8.709-26.589,11.92-41.111,17
	c-4.624,1.618-9.335,9.601-2.495,11.643c6.572,1.961,13.372,3.11,20.241,3.768c2.608,0.655,5.164,0.811,7.654,0.548
	c5.677,0.273,11.361,0.288,16.964,0.215c16.312-0.211,32.602-1.506,48.875-2.555c36.023-2.323,72.729,2.626,108.464-3.429
	c4.563-0.773,11.786-6.163,9.043-11.733c-5.735-11.646-21.646-11.235-33.893-11.465c-0.831-0.147-1.733-0.235-2.732-0.235
	c-0.99,0-1.98,0.008-2.97,0.011c-2.24-0.167-4.448-0.54-6.628-1.058c-3.149-2.765-5.762-6.3-8.457-9.483
	c-0.876-1.034-1.72-2.098-2.556-3.17c-1.457-26.507-4.319-52.925-6.366-79.392c-2.441-31.55-3.323-63.248-4.039-94.877
	c-1.439-63.569-0.451-127.046,0.81-190.603c0.344-17.344,1.15-34.646,1.803-51.978c0.03-0.797-0.09-1.524-0.314-2.192
	c1.219-2.076,1.927-4.422,1.876-6.864c0.001-0.042,0.001-0.084,0.002-0.126c0.007-0.322-0.007-0.627-0.03-0.924
	c-0.017-0.683-0.033-1.366-0.054-2.049c-0.208-6.687-6.73-7.787-11.925-6.694c-23.086,4.854-43.534,19.636-62.569,32.826
	C93.913,92.204,83.262,99.305,73.1,107.121c-5.823,4.478-11.73,9.047-16.716,14.372c-0.425,0.396-0.857,0.786-1.278,1.186
	c-4.441,4.21-8.183,8.572-11.493,13.261c-1.668,2.02-3.146,4.177-4.35,6.515c-0.678,0.852-1.356,1.704-1.997,2.597
	c-1.449,2.019-3.446,5.021-4.154,7.957c-0.499,0.582-0.985,1.211-1.478,1.907c-3.713,5.245,0.746,10.633,6.512,7.42
	c0.967-0.539,1.921-1.102,2.87-1.675c4.679-1.557,9.452-5.045,13.124-7.217c7.042-4.164,13.466-7.474,20.972-9.917
	c4.075-1.327,7.756-2.125,11.13-1.649c0.122,1.262,0.216,2.526,0.278,3.791c0.656,13.386,1.051,26.582,0.632,39.995
	c-0.841,26.919-1.594,53.828-2.812,80.734c-1.432,31.624-2.852,63.229-2.399,94.893c0.545,38.091,2.707,76.264,0.659,114.297
	C81.14,481.44,79.338,487.125,77.28,492.267z"/>
<path d="M301.592,153.447c7.756-11.217,16.186-21.914,25.103-31.976c2.271-2.563,4.61-5.063,7.003-7.51
	c0.982-0.84,1.966-1.678,2.96-2.506c19.926-16.608,41.759-29.819,64.282-42.524c6.802-3.836,13.737-7.415,20.863-10.61
	c3.765-1.689,7.595-3.23,11.358-4.921c3.607-1.62,6.467-3.991,9.863-5.839c5.755-1.457,11.534-2.755,17.329-3.867
	c8.802-1.688,17.739-2.688,26.586-4.088c1.051-0.167,2.698-2.415,0.907-2.65c-12.22-1.604-24.753-0.488-36.911,1.315
	c-13.011,1.93-26.304,4.433-38.909,8.197c-26.419,7.889-51.676,18.762-75.482,32.674c-21.593,12.62-42.118,27.824-59.292,46.075
	c-16.859,17.917-30.468,38.573-41.43,60.564c-21.807,43.748-32.678,93.846-30.129,142.695
	c2.568,49.236,21.923,97.334,54.048,134.714c12.417,14.448,27.125,28.066,43.067,38.553c1.158,0.762,2.479,1.03,3.834,0.969
	c1.697,0.945,3.321,1.786,4.75,2.501c1.48,0.741,2.995,1.427,4.527,2.083c10.179,5.734,21.262,9.71,32.645,12.337
	c15.921,3.675,32.924,5.279,49.171,3.091c7.545-1.016,14.913-3.097,21.665-6.645c0.321-0.169,0.65-0.348,0.982-0.533
	c6.039-1.409,11.996-3.154,17.823-5.197c9.298-3.26,18.289-7.498,26.783-12.48c6.047-3.547,12.842-7.693,17.9-13.031
	c29.06-20.686,50.896-51.458,56.577-87.047c3.777-23.659,1.844-49.12-5.036-72.028c-6.892-22.948-20.948-42.549-40.197-56.702
	c-40.671-29.902-98.136-30.623-144.466-15.634c-11.753,3.803-23.24,8.448-34.265,14.031c-5.659,2.865-11.125,6.102-16.433,9.571
	c-5.208,3.404-9.4,7.783-13.814,12.138c-1.374,1.355-0.47,3.772,1.51,2.517c0.128-0.082,0.259-0.157,0.388-0.237
	c-0.034,0.562,0.427,1.057,1.126,0.819c7.714-2.628,14.989-6.646,22.56-9.674c1.136-0.454,2.281-0.893,3.431-1.322
	c3.561,0.495,7.089,1.04,10.768,1.171c5.449,0.195,10.911-0.075,16.365,0.181c11.063,0.52,22.067,1.749,33.001,3.498
	c22.225,3.556,43.702,10.791,63.699,21.08c19.928,10.253,37.971,23.83,53.21,40.26c8.111,8.746,14.472,19.206,18.725,30.325
	c0.004,0.031,0.009,0.063,0.013,0.094c1.463,12.007,1.108,24.328-0.782,36.263c-1.793,11.324-5.166,22.281-10.511,32.438
	c-0.962,1.827-2.02,3.599-3.152,5.326c-4.501,3.957-9.478,7.242-14.742,10.114c-11.748,6.41-25.118,9.921-38.317,11.672
	c-13.855,1.839-28.015,1.522-41.871-0.126c-8.858-1.054-17.487-3.125-26.166-4.938c-11.087-6.188-21.526-13.541-31.233-21.711
	c-11.436-9.626-22.033-20.239-32.069-31.303c-5.216-5.75-10.333-11.584-15.354-17.504c-0.96-1.132-1.991-2.337-3.078-3.563
	c-1.733-2.961-3.44-5.938-5.111-8.937c-7.566-13.579-14.085-27.736-19.055-42.472c-5.087-15.085-8.278-30.88-9.128-46.782
	c-0.174-3.252-0.239-6.503-0.262-9.755c1.366-18.181,4.448-36.238,8.673-53.638C274.774,204.609,285.936,177.867,301.592,153.447z
	 M471.797,279.917c-1.551-0.966-3.124-1.896-4.713-2.799c1.602,0.854,3.189,1.731,4.747,2.653
	C471.819,279.82,471.807,279.869,471.797,279.917z M462.61,303.428c0.06,0.074,0.119,0.147,0.178,0.22
	c-0.158-0.099-0.316-0.2-0.475-0.298C462.412,303.375,462.511,303.402,462.61,303.428z M265.993,418.916
	c-0.063-0.054-0.127-0.107-0.19-0.161c0.01-0.029,0.023-0.059,0.033-0.088C265.888,418.75,265.942,418.833,265.993,418.916z
	 M283.957,142.174c-9.468,11.855-18.015,24.417-25.82,37.639c-0.529,0.895-1.06,1.794-1.589,2.691
	C264.303,168.141,273.463,154.612,283.957,142.174z"/>
</svg>
