<?xml version="1.0" encoding="utf-8"?>
<!-- Generator: Adobe Illustrator 17.0.0, SVG Export Plug-In . SVG Version: 6.00 Build 0)  -->
<!DOCTYPE svg PUBLIC "-//W3C//DTD SVG 1.0//EN" "http://www.w3.org/TR/2001/REC-SVG-20010904/DTD/svg10.dtd">
<svg version="1.0" id="Layer_1" xmlns="http://www.w3.org/2000/svg" xmlns:xlink="http://www.w3.org/1999/xlink" x="0px" y="0px"
	 width="566.93px" height="566.93px" viewBox="0 0 566.93 566.93" enable-background="new 0 0 566.93 566.93" xml:space="preserve">
<path d="M302.481,238.211c-5.057-0.749-9.918-2.012-14.895-2.935c-5.43-1.007-11.994-0.114-17.501,0.114
	c-10.934,0.453-21.623,2.442-32.191,5.248c-20.733,5.505-40.024,16.047-56.13,30.185c-39.666,34.82-60.186,94.455-51.603,146.22
	c4.396,26.52,15.808,50.804,36.177,68.65c18.515,16.222,40.931,26.543,64.216,33.926c46.326,14.688,100.282,14.429,143.264-10.334
	c23.036-13.271,41.169-34.945,52.198-58.931c11.09-24.118,14.018-50.098,10.746-76.221c-3.611-28.847-12.668-56.991-30.033-80.567
	c-16.324-22.164-41.496-33.615-66.773-42.364c-4.764-1.649-9.551-3.226-14.342-4.793c-12.299-4.025-26.382,18.568-11.108,23.566
	c23.349,7.64,47.923,15.941,65.192,34.279c18.698,19.856,27.823,47.976,32.007,74.39c1.9,11.993,3.069,23.943,1.581,36.051
	c-1.504,12.229-4.966,23.397-10.187,34.362c-4.869,10.226-12.145,20.282-19.448,27.441c-8.918,8.741-15.529,13.224-27.065,18.553
	c0.947-0.454-2.786,1.133-2.528,1.029c-1.352,0.545-2.722,1.043-4.091,1.542c-2.761,1.006-5.569,1.876-8.388,2.706
	c-5.989,1.761-11.333,2.872-17.203,3.789c-11.445,1.787-23.724,2.47-34.959,1.826c-22.284-1.276-44.778-7.166-65.288-15.849
	c-21.008-8.895-40.52-21.63-53.943-40.375c-15.429-21.545-20.438-51.84-17.606-77.751c2.324-21.267,9.535-41.737,20.155-60.244
	c1.157-2.016,4.045-6.392,6.31-9.542c2.485-3.456,5.183-6.756,7.991-9.952c0.387-0.436,0.78-0.865,1.173-1.295
	c-0.617,0.696,1.485-1.521,1.605-1.644c1.434-1.46,2.924-2.862,4.428-4.249c3.149-2.902,6.493-5.585,9.932-8.133
	c0.153-0.106,0.336-0.233,0.576-0.401c0.986-0.683,1.993-1.337,2.999-1.991c1.676-1.089,3.393-2.113,5.118-3.12
	c3.458-2.019,7.038-3.825,10.666-5.518c0.281-0.128,0.5-0.227,0.675-0.306c1.057-0.459,2.117-0.912,3.178-1.364
	c1.884-0.805,3.794-1.546,5.71-2.273c4.271-1.619,8.629-2.995,13.02-4.245c7.943-2.262,16.118-4.145,24.23-5.689
	c2.236-0.426,4.482-0.801,6.729-1.166c2.249-0.364,5.35-0.237,7.427-1.15c4.818-2.116,10.089-2.783,15.256-3.507
	C302.994,245.722,307.81,239,302.481,238.211z"/>
<path d="M128.43,304.066C106.178,343.854,99.666,394.057,112.037,438c8.916,31.671,29.158,58.664,55.588,77.923
	c13.097,9.544,28.257,18.575,44.141,22.365c7.536,1.798,15.214,2.945,22.813,4.433c4.84,0.948,13.322,1.925,16.544,5.391
	c4.535,4.879,14.562-3.992,10.029-8.802c-5.318-5.644-15.297-6.704-22.483-8.065c-9.456-1.79-19.239-2.716-28.46-5.555
	c-10.835-3.334-21.531-9.871-30.991-15.988c-9.38-6.065-17.917-13.401-25.608-21.483c-30.646-32.204-41.387-77.326-35.803-120.68
	c4.187-32.497,17.104-63.043,38.004-88.324c10.419-12.604,22.851-23.499,36.947-31.806c14.344-8.453,29.949-12.554,45.876-16.796
	c1.231-0.329,2.8-3.154,0.723-3.374c-7.879-0.833-15.869,0.06-23.688,2.12c1.068-6.121-0.755-13.633-1.04-19.256
	c-0.171-3.359-0.111-5.944,1.36-9.588c0.769-1.901,6.724-2.198,9.073-3.25c1.04-0.466,2.326-1.92,2.888-3.434
	c0.918,1.605,1.848,3.205,2.813,4.782c2.122,3.468,4.444,7.409,7.167,10.874c-1.706,2.307-2.133,5.491,1.288,6.343
	c6.247,1.556,13.412,0.796,19.814,0.795c7.666-0.001,15.331,0.022,22.997,0.021c7.047-0.001,14.09-0.027,21.135-0.196
	c5.714-0.137,11.668-0.801,17.473-0.732c2.771,2.301,8.495,0.687,11.032-0.909c0.824-0.519,1.557-1.145,2.192-1.838
	c5.274,1.333,11.049-3.485,11.528-8.784c0.483,0.177,0.965,0.358,1.445,0.545c-0.574,5.676-1.133,11.587-0.556,17.128
	c0.215,2.073,0.578,4.133,0.847,6.2c0.049,0.372,0.073,0.746,0.11,1.119c-2.576-0.47-5.163-0.885-7.774-1.314
	c-2.557-0.42-5.133-0.677-7.723-0.778c-3.527-0.139-6.622,0.681-10.066,0.853c-0.473-0.003-0.946-0.007-1.42-0.011
	c-0.949-0.008-1.995,1.852-0.705,2.061c2.221,0.36,4.045,1.65,6.217,2.225c2.581,0.684,5.148,1.438,7.728,2.135
	c5.237,1.416,10.414,2.896,15.522,4.759c9.777,3.566,19.26,7.916,28.146,13.344c17.734,10.833,32.417,25.462,43.777,42.833
	c11.409,17.447,18.185,37.278,23.104,57.396c2.497,10.211,4.434,20.567,5.482,31.031c0.887,8.844,1.47,18.742-1.902,27.17
	c-1.395,3.486,0.081,5.306,2.309,5.682c-2.253,0.266-3.839,1.976-5.593,3.414c-1.937,1.589-2.759,4.821-0.779,6.291
	c-0.169,0.842-0.311,1.794-0.404,2.19c-0.596,2.531-1.114,5.08-1.703,7.613c-1.173,5.05-3.126,9.771-5.142,14.531
	c-3.489,8.237-7.529,16.235-12.09,23.93c-8.894,15.004-20.662,28.157-34.677,38.527c-15.53,11.491-34.151,18.215-52.768,22.731
	c-21.815,5.292-44.552,7.261-66.743,3.135c-2.948-0.548-6.262,4.385-2.613,5.542c21.836,6.925,46.071,5.021,68.186,0.318
	c20.698-4.401,40.991-12.432,58.239-24.785c15.791-11.31,28.662-26.017,38.754-42.555c5.173-8.478,9.619-17.334,13.537-26.457
	c2.21-5.146,4.162-10.309,5.529-15.746c0.635-2.525,1.161-5.079,1.745-7.617c0.56-2.428,1.952-4.952,1.6-7.461
	c-0.259-1.846-1.2-3.003-3.037-3.46c-0.175-0.044-0.344-0.074-0.512-0.102c2.225-0.215,4.691-1.575,5.822-3.921
	c4.191-8.695,4.154-19.052,3.601-28.48c-0.668-11.381-2.865-22.672-5.354-33.776c-4.842-21.599-12.059-42.17-23.784-61.047
	c-11.483-18.486-27.504-34.677-46.308-45.721c-7.629-4.481-15.844-8.285-24.313-11.025c0.324-0.508,0.603-1.033,0.818-1.544
	c0.583-1.2,0.854-2.465,0.813-3.796c-0.45-1.994-0.499-2.311-0.145-0.953c-0.125-2.5-0.889-5.032-1.427-7.465
	c-1.416-6.41-0.874-13.847-1.551-20.628c-0.213-2.135-1.436-3.391-3.46-3.943c-5.414-1.477-11.111-2.04-16.711-2.141
	c-0.065-0.001-0.137,0.013-0.205,0.018c-2.645-4.688-5.022-9.535-7.477-14.32c-7.688-14.993-15.195-30.075-22.711-45.154
	c-17.089-34.285-34.186-69.187-58.706-98.882c-4.07-4.929-8.931-10.444-11.654-16.257c-1.006-2.146-4.188-0.044-4.064,1.798
	c0.438,6.527,1.866,11.251,5.321,16.932c3.963,6.518,8.479,12.714,12.537,19.183c8.091,12.896,15.778,26.064,22.669,39.644
	c5.601,11.037,10.889,22.261,16.234,33.425c11.705,24.448,24.366,48.551,35.323,73.355c-6.111,1.018-12.659,0.828-18.783,1.118
	c-7.742,0.367-15.485,0.724-23.229,1.075c-7.098,0.321-14.196,0.617-21.294,0.928c-2.555,0.112-5.165,0.161-7.782,0.256
	c-0.519-1.221-1.456-2.273-2.5-3.337c-0.872-0.888-1.853-1.367-2.865-1.53c-0.985-1.148-1.852-2.448-2.688-3.544
	c-2.283-2.989-4.341-6.175-6.271-9.401c-4.417-7.386-8.233-15.128-12.145-22.788c-8.315-16.282-18.054-31.489-27.846-46.917
	c-10.886-17.152-21.273-34.763-33.388-51.086c-5.49-7.398-11.325-14.531-16.728-21.998c-2.598-3.59-5.047-7.291-7.357-11.072
	c-2.38-3.895-5.604-7.002-8.363-10.582c-0.563-0.729-1.709,0.292-1.681,0.965c0.394,9.42,3.25,16.316,8.099,24.37
	c5.074,8.429,10.721,16.485,16.273,24.601c11.855,17.328,22.248,35.648,33.097,53.619c9.792,16.218,19.114,32.262,27.334,49.33
	c2.172,4.51,4.437,8.983,6.822,13.389c-4.455-2.161-10.31-0.934-14.337,1.839c-5.161,3.554-7.438,8.862-9.055,14.717
	c-1.355,4.915-1.117,10.024-1.025,15.076c0.047,2.55,0.094,5.1,0.069,7.65c-0.022,2.264-0.89,3.976-0.486,6.184
	c-8.992,4.045-17.465,9.263-24.916,14.704C155.959,263.873,140.313,282.818,128.43,304.066z"/>
<path d="M458.544,17.998c-3.046,1.729-4.925,4.665-6.606,7.62c-0.164,0.288-0.287,0.565-0.4,0.84
	c-3.07,3.876-6.807,7.504-9.709,11.334c-4.369,5.765-8.431,11.762-12.416,17.796c-8.277,12.53-15.877,25.49-24.234,37.969
	c-9.481,14.16-19.969,27.785-30.191,41.417c-5.048,6.73-10.143,13.426-15.264,20.101c-5.14,6.699-11.514,13.316-15.02,21.059
	c-1.657,3.662,2.499,4.516,4.865,2.666c6.344-4.958,11.108-12.088,16.108-18.333c5.272-6.586,10.502-13.208,15.702-19.851
	c10.631-13.58,21.378-27.117,31.352-41.194c8.34-11.771,16.047-23.995,23.982-36.038c4.006-6.081,8.135-12.08,12.459-17.939
	c3.092-4.191,6.592-9.902,10.763-13.745c2.171-1.273,4.099-2.691,5.646-4.557c1.818-2.021,2.981-4.687,1.967-7.335
	C466.115,16.072,461.436,16.357,458.544,17.998z"/>
<path d="M322.025,52.009c-4.782,5.643-9.575,11.27-14.168,17.07c-2.532,3.199-6.063,6.894-8.645,10.856
	c-1.03,0.936-1.833,2.029-2.231,3.171c-0.672,1.929-1.183,3.591-1.132,5.657c-0.032,0.638,0.06,1.203,0.232,1.712
	c0.673,2.516,2.725,3.434,5.125,3.251c1.01,0.066,2.023-0.043,2.905-0.325c3.204-1.024,5.787-3.508,6.898-6.585
	c0.098-0.227,0.182-0.457,0.257-0.689c0.142-0.249,0.29-0.493,0.434-0.741c1.374,0.087,2.942-0.521,4.027-2.066
	c8.001-11.394,17.857-21.55,26.651-32.327c4.72-5.783,9.339-11.686,13.371-17.974c0.886-1.381,1.786-2.811,2.611-4.29
	c1.849-1.271,3.527-3.009,4.737-4.907c0.889-0.431,1.687-1.067,2.353-1.824c0.03-0.032,0.059-0.066,0.089-0.099
	c0.013-0.014,0.025-0.027,0.037-0.042c0.979-1.064,1.701-2.348,1.977-3.635c0.269-1.25,0.083-2.336-0.422-3.194
	c-0.493-0.998-1.387-1.759-2.752-1.968c-1.751-0.269-3.452-0.282-5.137-0.167c-0.423-0.009-0.847-0.019-1.271-0.028
	c-0.6-0.013-1.228,0.12-1.854,0.364c-1.775,0.24-3.556,0.535-5.383,0.741c-2.317,0.262-4.422,1.791-5.416,3.904
	c-0.533,1.133-0.628,2.704-0.093,3.878c-3.066,4.372-5.817,9.01-9.092,13.242C331.63,40.82,326.784,46.393,322.025,52.009z"/>
<path d="M309.188,388.507c13.889-19.681,28.36-44.6,28.173-69.47c-0.187-24.744-24.282-35.533-45.845-34.926
	c-20.134,0.567-41.099,11.893-49.379,30.752c-2.488,5.668-5.618,16.235,0.851,20.178c1.812,1.104,4.16-0.372,5.288-1.756
	c2.14-2.626,2.963-5.485,3.958-8.469c2.826-1.937,5.716-4.339,7.963-5.763c1.367-0.866,1.837-1.076,3.727-1.776
	c0.927-0.321,1.864-0.604,2.813-0.849c1.607-0.389,1.924-0.463,0.951-0.221c3.583-0.66,7.213-0.927,10.779-0.782
	c2.889,0.34,5.745,1.016,8.279,2.119c8.202,3.569,13.71,9.937,16.479,18.775c2.509,8.011-0.56,14.62-2.09,22.337
	c-4.125,7.584-8.75,14.52-14.17,21.775c-4.202,5.625-8.721,11.008-13.386,16.254c-3.404,3.829-8.256,8.749-13.048,13.382
	c-0.778,0.751-1.566,1.493-2.352,2.237c-0.149,0.114-0.299,0.228-0.447,0.342c-11.671,8.953-23.311,18.205-33.854,28.483
	c-4.653,4.536-7.821,11.094-3.645,17.006c0.121,0.17,0.196,0.099,0.242-0.092c0.02,0.462,0.047,1.015,0.083,1.686
	c0.436,7.991,7.044,9.281,13.378,6.92c3.778,0.53,7.827,0.195,11.406,0.013c7.013-0.356,14.029-0.615,21.049-0.782
	c12.141-0.288,24.26-0.686,36.399-0.592c0.823,0.489,1.77,0.857,2.854,1.058c5.933,1.1,11.271-2.51,14.929-6.782
	c2.882-3.364,5.351-7.032,7.902-10.646c1.452-2.057,2.982-4.06,4.529-6.047c0.372-0.434,0.625-0.732,0.778-0.917
	c0.862-0.821,1.805-1.542,2.768-2.243c7.505-5.466,7.526-20.063-4.115-19.111c-16,1.308-31.837,4.065-47.855,5.14
	c-2.576,0.173-5.147,0.344-7.714,0.546c0.863-0.865,1.729-1.728,2.584-2.601C290.205,412.696,300.318,401.077,309.188,388.507z"/>
</svg>
