<?xml version="1.0" encoding="utf-8"?>
<!-- Generator: Adobe Illustrator 17.0.0, SVG Export Plug-In . SVG Version: 6.00 Build 0)  -->
<!DOCTYPE svg PUBLIC "-//W3C//DTD SVG 1.0//EN" "http://www.w3.org/TR/2001/REC-SVG-20010904/DTD/svg10.dtd">
<svg version="1.0" id="Layer_1" xmlns="http://www.w3.org/2000/svg" xmlns:xlink="http://www.w3.org/1999/xlink" x="0px" y="0px"
	 width="566.93px" height="566.93px" viewBox="0 0 566.93 566.93" enable-background="new 0 0 566.93 566.93" xml:space="preserve">
<path d="M268.256,520.476c4.563-0.773,11.786-6.163,9.043-11.733c-5.735-11.646-21.646-11.235-33.893-11.465
	c-0.831-0.147-1.733-0.235-2.732-0.235c-0.99,0.001-1.98,0.008-2.97,0.011c-2.24-0.167-4.448-0.54-6.628-1.058
	c-3.149-2.765-5.762-6.3-8.457-9.483c-0.876-1.034-1.72-2.098-2.556-3.17c-1.457-26.507-4.319-52.925-6.366-79.392
	c-2.441-31.55-3.323-63.248-4.039-94.878c-1.439-63.568-0.451-127.045,0.81-190.602c0.344-17.344,1.15-34.646,1.803-51.978
	c0.03-0.797-0.09-1.525-0.314-2.192c1.219-2.076,1.927-4.422,1.876-6.864c0.001-0.042,0.002-0.084,0.003-0.126
	c0.007-0.322-0.007-0.627-0.03-0.924c-0.017-0.683-0.033-1.366-0.054-2.049c-0.207-6.687-6.73-7.787-11.925-6.694
	c-23.086,4.854-43.534,19.636-62.569,32.826c-10.531,7.298-21.182,14.399-31.344,22.214c-5.823,4.478-11.73,9.047-16.716,14.372
	c-0.425,0.396-0.857,0.786-1.278,1.186c-4.441,4.21-8.183,8.572-11.493,13.261c-1.668,2.02-3.146,4.177-4.35,6.515
	c-0.679,0.852-1.356,1.704-1.997,2.597c-1.449,2.019-3.446,5.021-4.154,7.957c-0.499,0.583-0.985,1.211-1.478,1.908
	c-3.714,5.244,0.746,10.633,6.512,7.42c0.967-0.539,1.921-1.102,2.87-1.675c4.679-1.557,9.452-5.046,13.124-7.217
	c7.042-4.164,13.466-7.474,20.972-9.918c4.075-1.327,7.756-2.125,11.129-1.649c0.122,1.261,0.216,2.526,0.278,3.791
	c0.656,13.386,1.051,26.582,0.632,39.995c-0.841,26.919-1.594,53.828-2.812,80.734c-1.432,31.624-2.852,63.229-2.399,94.893
	c0.545,38.09,2.707,76.264,0.659,114.297c-1.459,5.854-3.261,11.539-5.319,16.68c-0.74,1.85-1.554,3.668-2.429,5.456
	c-12.158,8.709-26.589,11.92-41.111,17c-4.624,1.617-9.335,9.601-2.495,11.642c6.572,1.961,13.372,3.11,20.241,3.768
	c2.608,0.656,5.164,0.811,7.654,0.548c5.677,0.273,11.361,0.288,16.964,0.215c16.312-0.211,32.602-1.506,48.875-2.556
	C195.815,521.582,232.521,526.531,268.256,520.476z"/>
<path d="M496.256,514.476c4.563-0.773,11.786-6.163,9.043-11.733c-5.735-11.646-21.646-11.235-33.893-11.465
	c-0.831-0.147-1.733-0.235-2.732-0.235c-0.99,0.001-1.98,0.008-2.97,0.011c-2.24-0.167-4.448-0.54-6.628-1.058
	c-3.149-2.765-5.762-6.3-8.457-9.483c-0.876-1.034-1.72-2.098-2.556-3.17c-1.457-26.507-4.319-52.925-6.366-79.392
	c-2.441-31.55-3.323-63.248-4.039-94.878c-1.439-63.568-0.451-127.045,0.81-190.602c0.344-17.344,1.15-34.646,1.803-51.978
	c0.03-0.797-0.09-1.525-0.314-2.192c1.219-2.076,1.927-4.422,1.876-6.864c0.001-0.042,0.002-0.084,0.003-0.126
	c0.007-0.322-0.007-0.627-0.03-0.924c-0.017-0.683-0.033-1.366-0.054-2.049c-0.207-6.687-6.73-7.787-11.925-6.694
	c-23.086,4.854-43.534,19.636-62.569,32.826c-10.531,7.298-21.182,14.399-31.344,22.214c-5.822,4.477-11.727,9.045-16.713,14.369
	c-0.426,0.397-0.859,0.788-1.281,1.188c-4.439,4.208-8.18,8.568-11.489,13.254c-1.67,2.022-3.151,4.183-4.356,6.523
	c-0.678,0.851-1.355,1.703-1.995,2.595c-1.449,2.019-3.445,5.02-4.154,7.957c-0.499,0.582-0.986,1.212-1.478,1.908
	c-3.712,5.244,0.745,10.633,6.512,7.42c0.967-0.539,1.921-1.102,2.87-1.675c4.679-1.557,9.452-5.046,13.124-7.217
	c7.042-4.164,13.466-7.474,20.972-9.918c4.075-1.327,7.756-2.125,11.13-1.649c0.122,1.261,0.216,2.526,0.278,3.791
	c0.656,13.386,1.051,26.582,0.632,39.995c-0.841,26.919-1.594,53.828-2.812,80.734c-1.432,31.624-2.851,63.229-2.398,94.893
	c0.545,38.09,2.707,76.263,0.659,114.296c-1.459,5.854-3.262,11.54-5.32,16.681c-0.74,1.85-1.554,3.668-2.429,5.456
	c-12.158,8.709-26.589,11.92-41.111,17c-4.624,1.617-9.335,9.601-2.495,11.642c6.572,1.961,13.372,3.11,20.241,3.768
	c2.608,0.656,5.164,0.811,7.654,0.548c5.677,0.273,11.361,0.288,16.964,0.215c16.312-0.211,32.602-1.506,48.875-2.556
	C423.815,515.582,460.521,520.531,496.256,514.476z"/>
</svg>
