<?xml version="1.0" encoding="utf-8"?>
<!-- Generator: Adobe Illustrator 17.0.0, SVG Export Plug-In . SVG Version: 6.00 Build 0)  -->
<!DOCTYPE svg PUBLIC "-//W3C//DTD SVG 1.0//EN" "http://www.w3.org/TR/2001/REC-SVG-20010904/DTD/svg10.dtd">
<svg version="1.0" id="Layer_1" xmlns="http://www.w3.org/2000/svg" xmlns:xlink="http://www.w3.org/1999/xlink" x="0px" y="0px"
	 width="566.93px" height="566.93px" viewBox="0 0 566.93 566.93" enable-background="new 0 0 566.93 566.93" xml:space="preserve">
<path d="M473.013,61.05c1.534-4.511,2.152-8.668,2.966-13.313c0.48-2.749-0.826-4.072-2.632-4.38
	c-1.313-1.176-3.128-1.874-5.209-1.761c-1.816,0.098-3.633,0.163-5.45,0.214c-0.884-0.702-1.98-1.223-3.329-1.462
	c-4.257-0.755-8.599,0.419-12.698,1.686c-1.087-0.96-2.498-1.634-4.275-1.862c-23.508-3.018-47.438,0.854-70.941,1.734
	c-25.649,0.96-51.299,1.921-76.947,2.881c-25.361,0.949-50.655,3.021-76.041,3.724c-12.408,0.344-24.812,0.83-37.22,1.164
	c-12.972,0.349-26.699-0.438-39.305,2.838c-2.387,0.62-4.592,2.56-5.921,4.837c-0.968,1.454-1.937,2.905-2.88,4.374
	c-2.081,3.241-3.979,6.553-5.788,9.952c-3.868,7.265-7.413,14.644-10.767,22.157c-6.594,14.777-12.957,29.678-20.022,44.239
	c-4.821,9.935,5.419,15.734,13.767,11.054c13.547-7.595,26.748-15.765,40.498-22.988c1.543-0.04,3.081-0.081,4.612-0.113
	c12.574-0.265,25.091-1.05,37.63-2.009c24.692-1.888,49.328-4.383,73.986-6.657c41.481-3.826,83.834-7.424,125.582-4.53
	c-1.818,3.227-3.626,6.457-5.43,9.68c-7.526,13.444-15.832,26.417-23.75,39.628c-16.05,26.775-30.992,54.163-45.93,81.569
	c-30.588,56.121-65.798,108.731-98.926,163.835c-20.497,34.096-40.198,68.694-58.159,104.201c-2.877,5.687-1.427,15.275,6.39,15.938
	c10.471,0.889,20.284-1.054,30.264-3.332c4.968,0.726,9.838-1.427,13.579-4.687c2.633-1.973,5.02-4.684,6.454-7.606
	c17.218-22.899,30.019-48.703,44.19-73.521c14.248-24.951,32.493-50.31,48.702-75.467c17.374-26.964,32.267-55.336,47.773-83.387
	c9.907-17.92,19.814-35.842,29.528-53.867c5.404-8.119,10.352-16.582,15.376-24.933c9.835-16.345,19.248-32.941,28.32-49.721
	c9.018-16.679,17.593-33.703,25.456-50.957c3.807-8.351,7.51-16.749,11.148-25.175C469.607,70.417,471.394,65.807,473.013,61.05z"/>
</svg>
