<?xml version="1.0" encoding="utf-8"?>
<!-- Generator: Adobe Illustrator 17.0.0, SVG Export Plug-In . SVG Version: 6.00 Build 0)  -->
<!DOCTYPE svg PUBLIC "-//W3C//DTD SVG 1.0//EN" "http://www.w3.org/TR/2001/REC-SVG-20010904/DTD/svg10.dtd">
<svg version="1.0" id="Layer_1" xmlns="http://www.w3.org/2000/svg" xmlns:xlink="http://www.w3.org/1999/xlink" x="0px" y="0px"
	 width="566.93px" height="566.93px" viewBox="0 0 566.93 566.93" enable-background="new 0 0 566.93 566.93" xml:space="preserve">
<path d="M371.393,229.272c-0.931,2.962-2.583,7.243-3.807,10.985c-0.306,0.934-0.553,1.885-0.759,2.85
	c-1.951,3.576-3.926,7.137-5.942,10.668c-12.302,21.546-27.014,42.928-42.479,63.17c-7.779,10.183-15.883,20.115-24.192,29.869
	c-5.861,6.878-12.657,14.52-18.726,21.142c-3.113,2.545-6.207,5.114-9.297,7.679c-14.983,12.434-30.077,24.732-45.088,37.135
	c-30.744,25.403-61.453,51.413-89.294,80.02c-4.374,4.494-8.12,11.188-3.645,17.006c3.512,4.564,4.89,9.066,4.989,14.81
	c0.046,2.628,1.266,4.707,3.076,6.099c0.613,1.57,1.861,2.833,3.728,2.971c18.919,1.405,37.703-0.663,56.578-2.122
	c19.908-1.539,39.834-2.836,59.776-3.82c35.937-1.773,71.82-2.895,107.785-2.32c0.475,0.222,0.97,0.403,1.479,0.547
	c1.265,1.499,3.063,2.561,5.041,2.928c5.971,1.107,11.221-2.535,14.929-6.782c9.075-10.392,16.563-22.039,24.56-33.25
	c4.087-5.731,8.337-11.363,12.876-16.745c2.761-3.272,2.353-2.774,5.41-5.704c1.343-1.288,2.759-2.494,4.188-3.683
	c0.582-0.474,1.177-0.932,1.774-1.387c0.187-0.125,0.448-0.301,0.786-0.529c4.548-3.012,8.698-7.617,8.387-13.477
	c-0.275-5.19-4.694-8.033-9.578-7.725c-40.801,2.576-81.274,8.808-122.071,11.354c-19.09,1.191-38.221,1.523-57.309,2.793
	c-6.76,0.449-13.493,1.023-20.214,1.778c6.871-10.471,13.364-21.205,19.95-31.824c0.634-1.021,1.274-2.039,1.908-3.06
	c15.407-15.156,30.332-30.804,44.718-46.932c37.485-42.028,70.546-88.232,95.837-138.635c9.964-19.856,18.636-40.4,24.851-61.752
	c5.89-20.237,9.354-42.379,5.688-63.337c-3.883-22.198-15.584-40.297-33.863-53.4c-14.928-10.702-33.384-16.893-51.369-19.874
	c-37.01-6.135-78.441,1.248-110.401,21.195c-30.883,19.275-56.004,51.788-55.338,89.646c0.056,3.14,1.291,6.372,2.261,9.334
	c1.281,3.916,6.682,0.168,7.233-2.331c2.103-9.52,3.798-19.007,6.518-28.117c7.201-5.613,12.977-13.124,19.218-19.737
	c1.602-1.696,3.21-3.271,4.836-4.741c4.865-3.099,10.042-5.878,15.212-8.305c16.18-7.596,37.282-11.034,55.188-9.661
	c43.361,3.326,81.934,33.587,90.871,77.821c3.048,15.089,2.681,30.171-0.094,44.901
	C376.094,214.602,373.542,222.435,371.393,229.272z"/>
</svg>
