<?xml version="1.0" encoding="utf-8"?>
<!-- Generator: Adobe Illustrator 17.0.0, SVG Export Plug-In . SVG Version: 6.00 Build 0)  -->
<!DOCTYPE svg PUBLIC "-//W3C//DTD SVG 1.0//EN" "http://www.w3.org/TR/2001/REC-SVG-20010904/DTD/svg10.dtd">
<svg version="1.0" id="Layer_1" xmlns="http://www.w3.org/2000/svg" xmlns:xlink="http://www.w3.org/1999/xlink" x="0px" y="0px"
	 width="566.93px" height="566.93px" viewBox="0 0 566.93 566.93" enable-background="new 0 0 566.93 566.93" xml:space="preserve">
<path d="M86.285,484.019c-0.74,1.85-1.554,3.667-2.429,5.456c-12.157,8.709-26.589,11.92-41.111,17.001
	c-4.624,1.617-9.335,9.601-2.495,11.642c6.572,1.961,13.372,3.11,20.241,3.768c2.608,0.656,5.164,0.811,7.654,0.548
	c5.677,0.273,11.36,0.288,16.964,0.215c16.312-0.211,32.603-1.506,48.875-2.556c36.023-2.323,72.729,2.626,108.463-3.429
	c4.563-0.773,11.786-6.163,9.043-11.733c-5.735-11.646-21.646-11.235-33.893-11.465c-0.831-0.147-1.732-0.235-2.732-0.235
	c-0.99,0.001-1.98,0.008-2.97,0.011c-2.241-0.167-4.448-0.54-6.628-1.058c-3.149-2.765-5.762-6.3-8.457-9.483
	c-0.875-1.034-1.72-2.098-2.556-3.17c-1.458-26.507-4.319-52.925-6.366-79.392c-2.441-31.55-3.323-63.248-4.039-94.878
	c-1.439-63.568-0.451-127.045,0.81-190.602c0.344-17.344,1.15-34.646,1.803-51.978c0.03-0.797-0.09-1.525-0.313-2.192
	c1.219-2.076,1.927-4.422,1.876-6.864c0-0.042,0.001-0.084,0.002-0.126c0.006-0.322-0.007-0.627-0.03-0.924
	c-0.017-0.683-0.033-1.366-0.054-2.049c-0.208-6.687-6.73-7.787-11.925-6.694c-23.086,4.854-43.534,19.636-62.569,32.826
	c-10.531,7.298-21.182,14.399-31.344,22.214c-5.823,4.478-11.729,9.047-16.716,14.371c-0.425,0.396-0.857,0.787-1.279,1.187
	c-4.441,4.21-8.184,8.572-11.494,13.261c-1.667,2.02-3.146,4.177-4.349,6.514c-0.679,0.852-1.356,1.704-1.997,2.597
	c-1.449,2.019-3.445,5.021-4.154,7.957c-0.499,0.583-0.985,1.211-1.478,1.908c-3.713,5.244,0.746,10.633,6.512,7.42
	c0.967-0.539,1.921-1.102,2.87-1.675c4.679-1.557,9.452-5.046,13.124-7.217c7.042-4.164,13.466-7.474,20.972-9.918
	c4.075-1.327,7.756-2.125,11.129-1.649c0.122,1.261,0.216,2.526,0.278,3.791c0.656,13.386,1.051,26.582,0.632,39.995
	c-0.841,26.919-1.594,53.828-2.812,80.734c-1.432,31.624-2.852,63.229-2.399,94.893c0.545,38.09,2.707,76.264,0.659,114.297
	C90.145,473.192,88.342,478.877,86.285,484.019z"/>
<path d="M507.615,305.312c-11.715-18.863-28.914-33.928-47.176-46.415c-0.352-0.348-0.701-0.69-1.04-1.021
	c-5.542-5.42-11.991-9.89-18.625-13.851c-6.82-4.071-13.938-7.504-21.133-10.781c-3.408-2.465-6.917-4.788-10.507-6.946
	c-6.278-3.774-12.866-7.253-19.708-10.038c-4.022-3.195-8.853-5.279-13.551-7.606c-6.301-3.122-12.898-5.633-19.179-8.829
	c-11.966-6.089-22.838-13.864-31.932-23.77c-9.815-10.692-16.457-23.118-21.419-36.688c-0.231-0.632-0.449-1.267-0.67-1.901
	c-0.297-10.048,0.62-19.986,3.144-29.82c3.19-12.428,9.498-24.216,16.575-34.834c3.824-5.737,8.991-10.845,13.99-15.549
	c0.717-0.675,1.485-1.376,2.271-2.099c1.188-0.56,2.379-1.108,3.579-1.631c12.369-5.396,25.484-9.023,38.847-10.84
	c2.511,0.425,5.045,1.083,7.35,1.501c3.974,0.72,7.946,1.954,11.824,3.068c7.826,2.25,14.905,6.42,21.322,11.362
	c13.29,10.232,21.725,26.445,26.495,42.179c5.118,16.885,5.636,35.215,1.984,52.434c-1.875,8.841-5.116,17.226-9.496,25.124
	c-2.841,5.122-6.81,9.614-10.631,14.02c-4.4,5.075-12.126,10.463-12.04,17.751c0.002,0.22,0.043,0.423,0.082,0.627
	c-2.74,2.096-4.871,5.894-3.593,9.229c1.525,3.98,6.378,3.539,9.445,1.899c0.625-0.334,1.229-0.696,1.843-1.042
	c1.49,0.539,3.313,0.395,5.123-0.848c36.891-25.331,61.936-69.958,62.74-114.885c0.366-20.444-6.734-43.15-22.571-56.83
	c-8.11-7.004-17.995-11.154-28.259-13.868c-2.284-0.604-4.663-1.163-7.09-1.64c-1.969-0.599-3.955-1.134-5.951-1.597
	c-17.858-4.144-36.894-2.854-54.88,1.408c-11.415,0.738-22.773,2.952-33.844,5.667c-17.671,4.335-35.51,10.551-50.627,20.895
	c-15.058,10.302-28.168,23.182-34.543,40.669c-7.148,19.61-4.473,39.692,3.263,58.692c8.813,21.645,24.826,38.633,44.451,50.929
	c18.6,11.653,39.877,18.503,60.432,25.794c1.069,0.379,2.142,0.765,3.213,1.15c5.184,3.237,10.047,6.595,14.829,10.639
	c11.215,9.485,21.537,19.972,32.705,29.511c19.009,16.238,35.555,35.339,47.722,57.246c19.941,35.903,33.985,85.442,12.963,123.112
	c-2.731,3.701-5.688,7.225-8.795,10.534c-8.376,8.921-17.843,16.594-28.645,22.357c-7.118,3.798-14.628,6.917-22.168,9.764
	c-4.496,1.697-9.456,2.868-14.171,4.483c-1.189,0.133-2.381,0.253-3.573,0.367c-5.815-0.084-11.619-0.447-17.36-1.031
	c-16.625-1.692-32.758-6.045-49.167-8.699c-2.684-0.94-5.347-1.942-7.981-3.033c-12.791-5.296-24.261-12.938-33.864-22.468
	c-2.372-2.857-4.869-5.615-7.151-8.39c-6.31-7.672-11.421-15.576-14.018-25.26c-3.045-11.357-1.955-24.538-0.427-36.055
	c1.556-11.732,4.688-23.237,9.028-34.234c8.818-22.342,22.742-41.853,38.356-59.914c8.219-9.508,17.495-17.348,26.896-25.618
	c9.324-8.202,19.178-15.944,26.38-26.177c1.187-1.686-0.636-2.672-2.04-1.618c-1.748,1.313-3.53,2.572-5.325,3.812
	c-0.449-0.755-1.481-1.1-2.887-0.468c-8.627,3.881-16.794,8.544-25.03,13.186c-8.549,4.818-17.376,9.122-25.878,14.04
	c-17.106,9.896-33.99,20.579-48.447,34.162c-14.507,13.629-26.199,30.065-32.442,49.07c-6.749,20.54-6.407,42.515-2.009,63.497
	c16.001,76.326,99.696,111.311,170.957,100.114c11.957-1.879,23.717-4.982,34.983-9.411c1.449-0.57,2.893-1.161,4.328-1.772
	c8.516-2.148,16.858-5.033,24.931-8.721c49.503-22.613,74.097-77.583,70.76-129.976
	C528.939,353.664,521.258,327.279,507.615,305.312z"/>
</svg>
