<?xml version="1.0" encoding="utf-8"?>
<!-- Generator: Adobe Illustrator 17.0.0, SVG Export Plug-In . SVG Version: 6.00 Build 0)  -->
<!DOCTYPE svg PUBLIC "-//W3C//DTD SVG 1.0//EN" "http://www.w3.org/TR/2001/REC-SVG-20010904/DTD/svg10.dtd">
<svg version="1.0" id="Layer_1" xmlns="http://www.w3.org/2000/svg" xmlns:xlink="http://www.w3.org/1999/xlink" x="0px" y="0px"
	 width="566.93px" height="566.93px" viewBox="0 0 566.93 566.93" enable-background="new 0 0 566.93 566.93" xml:space="preserve">
<path d="M180.182,518.49c6.572,1.961,13.372,3.11,20.242,3.768c2.607,0.655,5.163,0.811,7.653,0.548
	c5.677,0.273,11.36,0.288,16.964,0.215c16.312-0.211,32.603-1.506,48.875-2.555c36.022-2.323,72.729,2.626,108.464-3.429
	c4.563-0.773,11.786-6.163,9.043-11.733c-5.735-11.646-21.646-11.235-33.894-11.465c-0.831-0.147-1.732-0.235-2.731-0.235
	c-0.99,0-1.98,0.008-2.971,0.011c-2.24-0.167-4.448-0.54-6.627-1.058c-3.149-2.765-5.763-6.3-8.458-9.483
	c-0.875-1.034-1.72-2.098-2.556-3.17c-1.457-26.507-4.318-52.925-6.366-79.392c-2.44-31.55-3.322-63.248-4.038-94.877
	c-1.439-63.569-0.451-127.046,0.81-190.603c0.344-17.344,1.15-34.646,1.803-51.978c0.03-0.797-0.09-1.525-0.313-2.192
	c1.219-2.076,1.927-4.422,1.876-6.864c0.001-0.042,0.002-0.084,0.003-0.126c0.007-0.322-0.007-0.627-0.03-0.924
	c-0.018-0.683-0.033-1.366-0.055-2.049c-0.207-6.687-6.729-7.787-11.924-6.694c-23.087,4.855-43.535,19.636-62.57,32.826
	C242.85,84.329,232.2,91.43,222.038,99.246c-5.823,4.478-11.729,9.047-16.717,14.372c-0.425,0.396-0.856,0.786-1.277,1.186
	c-4.441,4.21-8.184,8.572-11.493,13.261c-1.668,2.02-3.146,4.177-4.35,6.515c-0.679,0.852-1.356,1.704-1.997,2.597
	c-1.448,2.019-3.445,5.021-4.154,7.957c-0.499,0.582-0.985,1.211-1.478,1.907c-3.714,5.244,0.745,10.633,6.512,7.42
	c0.967-0.539,1.921-1.102,2.869-1.675c4.679-1.557,9.452-5.046,13.124-7.217c7.042-4.164,13.467-7.474,20.973-9.918
	c4.074-1.327,7.756-2.125,11.129-1.649c0.122,1.261,0.216,2.526,0.278,3.791c0.656,13.386,1.051,26.582,0.632,39.995
	c-0.841,26.919-1.594,53.828-2.813,80.734c-1.432,31.624-2.852,63.229-2.398,94.893c0.545,38.091,2.707,76.264,0.659,114.297
	c-1.459,5.854-3.262,11.539-5.319,16.68c-0.74,1.85-1.554,3.667-2.429,5.456c-12.157,8.709-26.589,11.92-41.111,17
	C178.053,508.465,173.342,516.449,180.182,518.49z"/>
</svg>
