<?xml version="1.0" encoding="utf-8"?>
<!-- Generator: Adobe Illustrator 17.0.0, SVG Export Plug-In . SVG Version: 6.00 Build 0)  -->
<!DOCTYPE svg PUBLIC "-//W3C//DTD SVG 1.0//EN" "http://www.w3.org/TR/2001/REC-SVG-20010904/DTD/svg10.dtd">
<svg version="1.0" id="Layer_1" xmlns="http://www.w3.org/2000/svg" xmlns:xlink="http://www.w3.org/1999/xlink" x="0px" y="0px"
	 width="566.93px" height="566.93px" viewBox="0 0 566.93 566.93" enable-background="new 0 0 566.93 566.93" xml:space="preserve">
<path d="M302.391,239.091c-5.057-0.749-9.918-2.012-14.894-2.935c-5.431-1.006-11.995-0.114-17.502,0.114
	c-10.934,0.453-21.623,2.442-32.191,5.248c-20.733,5.505-40.024,16.047-56.13,30.185c-39.666,34.82-60.186,94.455-51.603,146.22
	c4.396,26.519,15.808,50.804,36.177,68.65c18.515,16.222,40.931,26.543,64.216,33.926c46.326,14.688,100.282,14.43,143.264-10.334
	c23.035-13.271,41.169-34.945,52.198-58.931c11.09-24.118,14.018-50.098,10.746-76.221c-3.611-28.847-12.668-56.991-30.033-80.567
	c-16.324-22.164-41.496-33.615-66.773-42.364c-4.764-1.649-9.551-3.226-14.341-4.793c-12.3-4.025-26.383,18.568-11.108,23.566
	c23.348,7.64,47.922,15.941,65.191,34.279c18.698,19.856,27.823,47.976,32.007,74.39c1.9,11.993,3.069,23.943,1.581,36.051
	c-1.504,12.229-4.966,23.397-10.187,34.362c-4.869,10.226-12.145,20.282-19.448,27.44c-8.918,8.741-15.529,13.225-27.065,18.553
	c0.947-0.454-2.786,1.133-2.528,1.029c-1.352,0.545-2.722,1.044-4.091,1.543c-2.761,1.006-5.569,1.876-8.388,2.705
	c-5.989,1.762-11.333,2.872-17.203,3.789c-11.445,1.788-23.724,2.471-34.959,1.827c-22.284-1.277-44.778-7.167-65.288-15.85
	c-21.008-8.895-40.52-21.63-53.943-40.375c-15.429-21.545-20.438-51.84-17.606-77.751c2.324-21.267,9.535-41.737,20.155-60.244
	c1.157-2.016,4.045-6.392,6.31-9.542c2.485-3.456,5.183-6.756,7.991-9.952c0.387-0.436,0.78-0.865,1.173-1.295
	c-0.617,0.696,1.485-1.521,1.605-1.644c1.434-1.46,2.924-2.862,4.428-4.249c3.149-2.902,6.493-5.585,9.933-8.134
	c0.153-0.106,0.335-0.233,0.575-0.4c0.986-0.683,1.993-1.337,2.999-1.991c1.676-1.089,3.393-2.113,5.118-3.12
	c3.458-2.019,7.038-3.825,10.666-5.518c0.281-0.127,0.499-0.227,0.674-0.306c1.058-0.458,2.118-0.912,3.179-1.364
	c1.884-0.805,3.794-1.546,5.71-2.273c4.271-1.619,8.629-2.995,13.02-4.245c7.943-2.262,16.118-4.145,24.23-5.689
	c2.236-0.426,4.482-0.801,6.729-1.166c2.249-0.364,5.35-0.237,7.427-1.15c4.818-2.116,10.09-2.783,15.256-3.507
	C302.904,246.602,307.72,239.88,302.391,239.091z"/>
<path d="M457.191,413.562c4.191-8.695,4.154-19.052,3.601-28.48c-0.668-11.381-2.865-22.672-5.354-33.776
	c-4.842-21.599-12.059-42.17-23.784-61.046c-11.483-18.486-27.504-34.677-46.308-45.722c-7.629-4.481-15.844-8.285-24.313-11.025
	c0.324-0.508,0.603-1.033,0.818-1.544c0.583-1.2,0.854-2.465,0.813-3.796c-0.45-1.994-0.499-2.311-0.145-0.953
	c-0.125-2.5-0.89-5.032-1.427-7.465c-1.416-6.41-0.874-13.847-1.551-20.628c-0.213-2.135-1.436-3.391-3.46-3.943
	c-5.414-1.477-11.111-2.04-16.711-2.141c-0.065-0.001-0.137,0.013-0.205,0.018c-2.645-4.687-5.022-9.535-7.477-14.32
	c-7.688-14.993-15.195-30.075-22.711-45.154C291.89,99.3,274.793,64.398,250.273,34.703c-4.07-4.929-8.931-10.444-11.654-16.257
	c-1.006-2.146-4.188-0.044-4.064,1.798c0.438,6.527,1.866,11.251,5.321,16.932c3.963,6.518,8.479,12.714,12.537,19.183
	c8.091,12.896,15.778,26.064,22.669,39.644c5.601,11.037,10.889,22.261,16.233,33.425c11.706,24.448,24.367,48.551,35.324,73.355
	c-6.111,1.018-12.659,0.827-18.783,1.118c-7.742,0.367-15.485,0.724-23.229,1.074c-7.098,0.321-14.196,0.617-21.294,0.928
	c-2.555,0.112-5.165,0.162-7.782,0.257c-0.519-1.221-1.457-2.273-2.5-3.337c-0.872-0.888-1.853-1.367-2.865-1.53
	c-0.985-1.148-1.852-2.448-2.689-3.544c-2.282-2.989-4.34-6.175-6.27-9.401c-4.417-7.386-8.233-15.128-12.145-22.788
	c-8.315-16.282-18.054-31.489-27.846-46.917c-10.886-17.152-21.273-34.763-33.388-51.086c-5.49-7.398-11.325-14.531-16.728-21.998
	c-2.598-3.59-5.047-7.291-7.357-11.072c-2.38-3.895-5.604-7.002-8.363-10.582c-0.563-0.729-1.709,0.292-1.681,0.965
	c0.394,9.42,3.25,16.316,8.099,24.37c5.074,8.429,10.721,16.485,16.273,24.601c11.855,17.328,22.248,35.648,33.097,53.619
	c9.792,16.218,19.114,32.262,27.334,49.33c2.172,4.51,4.437,8.983,6.822,13.389c-4.455-2.161-10.31-0.934-14.337,1.839
	c-5.161,3.554-7.438,8.862-9.055,14.717c-1.355,4.915-1.117,10.025-1.025,15.076c0.047,2.55,0.094,5.1,0.069,7.65
	c-0.022,2.263-0.89,3.976-0.486,6.184c-8.992,4.045-17.465,9.263-24.915,14.703c-19.727,14.404-35.373,33.35-47.256,54.597
	c-22.252,39.787-28.765,89.991-16.394,133.933c8.916,31.672,29.158,58.664,55.588,77.924c13.097,9.544,28.257,18.575,44.141,22.365
	c7.536,1.798,15.214,2.945,22.813,4.433c4.84,0.948,13.322,1.925,16.544,5.391c4.535,4.879,14.562-3.992,10.029-8.802
	c-5.318-5.644-15.297-6.704-22.483-8.065c-9.456-1.79-19.239-2.716-28.46-5.555c-10.834-3.334-21.531-9.871-30.991-15.988
	c-9.38-6.065-17.917-13.401-25.608-21.483c-30.646-32.204-41.387-77.326-35.803-120.68c4.187-32.497,17.104-63.043,38.004-88.324
	c10.419-12.604,22.851-23.499,36.947-31.806c14.344-8.453,29.949-12.554,45.876-16.796c1.231-0.329,2.8-3.154,0.723-3.374
	c-7.879-0.833-15.869,0.06-23.687,2.12c1.068-6.121-0.756-13.635-1.041-19.256c-0.171-3.359-0.111-5.944,1.36-9.588
	c0.769-1.901,6.724-2.198,9.073-3.25c1.04-0.466,2.326-1.92,2.887-3.434c0.919,1.605,1.849,3.205,2.814,4.782
	c2.122,3.468,4.444,7.409,7.167,10.874c-1.706,2.307-2.133,5.491,1.288,6.342c6.247,1.556,13.412,0.796,19.814,0.795
	c7.666-0.002,15.331,0.022,22.997,0.021c7.047-0.001,14.09-0.027,21.135-0.196c5.714-0.138,11.668-0.801,17.473-0.732
	c2.771,2.301,8.495,0.687,11.032-0.909c0.824-0.519,1.558-1.145,2.192-1.837c5.274,1.332,11.049-3.486,11.528-8.785
	c0.483,0.177,0.965,0.358,1.444,0.545c-0.573,5.676-1.132,11.587-0.555,17.128c0.215,2.073,0.578,4.133,0.847,6.2
	c0.049,0.372,0.073,0.746,0.11,1.119c-2.576-0.47-5.163-0.885-7.774-1.314c-2.557-0.42-5.133-0.677-7.723-0.778
	c-3.527-0.139-6.621,0.681-10.066,0.853c-0.473-0.003-0.946-0.007-1.42-0.011c-0.949-0.008-1.994,1.852-0.705,2.061
	c2.221,0.36,4.045,1.65,6.217,2.225c2.581,0.684,5.148,1.438,7.728,2.135c5.237,1.416,10.414,2.896,15.522,4.759
	c9.777,3.566,19.26,7.916,28.146,13.344c17.734,10.833,32.417,25.462,43.777,42.833c11.409,17.447,18.185,37.278,23.104,57.396
	c2.497,10.211,4.434,20.567,5.482,31.031c0.887,8.844,1.47,18.742-1.902,27.17c-1.395,3.486,0.081,5.306,2.308,5.682
	c-2.252,0.266-3.838,1.976-5.592,3.414c-1.937,1.589-2.759,4.821-0.78,6.291c-0.168,0.842-0.31,1.794-0.403,2.19
	c-0.596,2.531-1.114,5.08-1.703,7.613c-1.173,5.05-3.126,9.771-5.142,14.531c-3.489,8.237-7.529,16.235-12.09,23.93
	c-8.894,15.004-20.662,28.157-34.678,38.527c-15.529,11.491-34.15,18.215-52.767,22.731c-21.815,5.292-44.552,7.261-66.743,3.135
	c-2.948-0.548-6.262,4.385-2.613,5.542c21.836,6.926,46.071,5.021,68.186,0.318c20.698-4.401,40.991-12.432,58.239-24.785
	c15.791-11.31,28.662-26.017,38.754-42.555c5.173-8.478,9.619-17.334,13.537-26.457c2.21-5.146,4.162-10.309,5.529-15.746
	c0.635-2.525,1.161-5.079,1.745-7.617c0.56-2.428,1.951-4.952,1.6-7.461c-0.259-1.846-1.2-3.003-3.037-3.46
	c-0.175-0.044-0.344-0.074-0.512-0.102C453.593,417.268,456.06,415.909,457.191,413.562z"/>
<path d="M465.491,28.023c1.818-2.021,2.981-4.687,1.967-7.335c-1.433-3.736-6.111-3.451-9.003-1.81
	c-3.046,1.729-4.925,4.665-6.606,7.62c-0.164,0.288-0.287,0.565-0.4,0.84c-3.07,3.877-6.807,7.504-9.709,11.334
	c-4.369,5.765-8.431,11.762-12.416,17.796c-8.277,12.53-15.877,25.49-24.234,37.969c-9.481,14.16-19.969,27.785-30.191,41.417
	c-5.048,6.73-10.143,13.426-15.264,20.101c-5.14,6.699-11.515,13.316-15.02,21.059c-1.657,3.662,2.499,4.516,4.865,2.666
	c6.344-4.958,11.108-12.088,16.108-18.333c5.272-6.586,10.502-13.208,15.702-19.851c10.631-13.58,21.378-27.117,31.352-41.194
	c8.34-11.771,16.047-23.994,23.982-36.038c4.006-6.081,8.135-12.079,12.459-17.939c3.092-4.191,6.592-9.902,10.763-13.745
	C462.016,31.307,463.944,29.889,465.491,28.023z"/>
<path d="M295.992,91.357c0.674,2.515,2.725,3.433,5.125,3.25c1.01,0.066,2.023-0.043,2.905-0.325
	c3.204-1.024,5.787-3.508,6.898-6.585c0.097-0.227,0.182-0.457,0.256-0.689c0.143-0.25,0.291-0.494,0.435-0.742
	c1.374,0.087,2.942-0.521,4.027-2.066c8.001-11.394,17.857-21.55,26.651-32.327c4.719-5.783,9.339-11.686,13.371-17.974
	c0.886-1.381,1.786-2.811,2.611-4.29c1.849-1.271,3.527-3.009,4.737-4.907c0.89-0.431,1.687-1.067,2.353-1.824
	c0.03-0.032,0.059-0.066,0.09-0.1c0.012-0.014,0.024-0.026,0.036-0.041c0.979-1.064,1.701-2.348,1.977-3.635
	c0.269-1.251,0.083-2.336-0.422-3.194c-0.493-0.998-1.386-1.759-2.752-1.969c-1.751-0.269-3.452-0.282-5.138-0.167
	c-0.423-0.009-0.846-0.019-1.27-0.028c-0.6-0.013-1.228,0.12-1.854,0.363c-1.775,0.24-3.556,0.535-5.383,0.741
	c-2.317,0.262-4.422,1.791-5.416,3.904c-0.533,1.133-0.628,2.704-0.093,3.878c-3.066,4.372-5.817,9.01-9.092,13.242
	c-4.506,5.824-9.353,11.396-14.111,17.013c-4.782,5.643-9.575,11.27-14.168,17.07c-2.532,3.199-6.063,6.894-8.645,10.856
	c-1.03,0.936-1.833,2.029-2.231,3.171c-0.673,1.929-1.183,3.591-1.132,5.657C295.727,90.282,295.819,90.847,295.992,91.357z"/>
<path d="M307.17,421.611c-4.79,10.406-11.771,18.734-19.078,26.985c-5.484,4.121-11.314,7.749-17.378,10.997
	c-4.198,2.249-8.504,4.365-12.838,6.336c-5.515,2.509-11.197,4.546-15.972,8.362c-1.986,1.588-3.97,6.482-0.61,7.898
	c5.528,2.328,11.41,0.756,17.061-0.459c5.83-1.253,11.491-3.855,16.832-6.423c10.535-5.066,20.33-11.692,29.36-19.087
	c9.113-7.462,17.268-16.314,24.439-25.639c4.004-5.206,7.923-10.1,10.982-15.97c2.938-5.635,5.112-11.576,7.098-17.6
	c7.079-21.479,6.168-47.494-2.219-68.479c-3.206-8.021-8.606-15.114-15.228-20.67c-3.386-3.915-7.659-7.236-12.411-9.328
	c-1.902-1.235-3.891-2.35-5.944-3.33c-8.443-4.026-18.228-4.461-27.432-3.182c-7.733,0.004-15.596,1.906-22.681,4.844
	c-3.849,1.596-7.157,3.517-10.539,5.924c-0.458,0.326-0.887,0.65-1.297,0.974c-4.696,1.572-9.449,4.927-12.174,6.935
	c-8.127,5.99-14.034,15.697-17.854,24.883c-1.676,4.031-2.938,8.207-3.742,12.461c-3.968,13.827-3.882,28.801,1.779,41.817
	c8.937,20.55,32.937,27.94,53.675,27.912c11.149-0.015,22.313-3.976,30.705-11.337c4.454-3.908,11.326-13.667,12.246-21.754
	c0.388,3.436,0.655,6.885,0.829,10.323c0.086,1.692,0.138,3.407,0.131,5.122C312.713,407.429,310.362,414.678,307.17,421.611z
	 M312.092,375.186c-0.06-2.128-0.971-4.162-3.012-5.267c-3.754-2.032-7.837-0.005-10.878,2.263c-1.73,1.29-3.483,2.518-5.253,3.708
	c-2.284,0.388-4.608,0.891-6.92,1.475c-0.442-0.036-0.885-0.072-1.324-0.113c-6.564-0.616-13.524-0.938-20.334-2.682
	c-4.643-1.189-8.796-3.76-12.723-6.506c-0.72-1.61-1.148-3.402-1.409-4.689c-1.502-7.408-1.308-14.269-0.081-21.196
	c0.682-3.849,1.547-6.777,2.608-9.496c1.361-3.49,3.054-6.938,4.857-10.219c-0.741,1.348,1.498-2.188,1.777-2.575
	c1.18-1.635,2.32-3.28,3.592-4.848c1.662-2.049,3.43-4.013,5.145-6.02c0.636-0.167,1.271-0.326,1.91-0.474
	c1.222,0.302,2.399,0.786,3.651,1.265c3.397,1.299,6.817,2.331,10.133,3.795c2.859,3.068,5.862,6.026,8.482,9.461
	c5.865,7.688,9.176,16.755,12.647,25.672c1.798,4.619,3.293,9.353,4.641,14.121c1.046,3.705,2.378,9.455,2.785,11.545
	c0.114,0.587,0.2,1.181,0.306,1.77C312.518,375.833,312.321,375.502,312.092,375.186z"/>
</svg>
