<?xml version="1.0" encoding="utf-8"?>
<!-- Generator: Adobe Illustrator 17.0.0, SVG Export Plug-In . SVG Version: 6.00 Build 0)  -->
<!DOCTYPE svg PUBLIC "-//W3C//DTD SVG 1.0//EN" "http://www.w3.org/TR/2001/REC-SVG-20010904/DTD/svg10.dtd">
<svg version="1.0" id="Layer_1" xmlns="http://www.w3.org/2000/svg" xmlns:xlink="http://www.w3.org/1999/xlink" x="0px" y="0px"
	 width="566.93px" height="566.93px" viewBox="0 0 566.93 566.93" enable-background="new 0 0 566.93 566.93" xml:space="preserve">
<path d="M82.789,487.849c-0.74,1.85-1.554,3.668-2.429,5.456c-12.157,8.709-26.589,11.92-41.111,17
	c-4.624,1.617-9.335,9.601-2.495,11.642c6.572,1.961,13.372,3.11,20.241,3.768c2.608,0.656,5.164,0.811,7.654,0.548
	c5.677,0.273,11.36,0.288,16.964,0.215c16.312-0.211,32.603-1.506,48.875-2.556c36.023-2.323,72.729,2.626,108.463-3.429
	c4.563-0.773,11.786-6.163,9.043-11.733c-5.735-11.645-21.646-11.235-33.892-11.465c-0.832-0.147-1.733-0.235-2.733-0.235
	c-0.991,0-1.981,0.008-2.972,0.011c-2.24-0.167-4.447-0.54-6.626-1.058c-3.149-2.765-5.762-6.3-8.457-9.483
	c-0.875-1.034-1.72-2.098-2.556-3.17c-1.458-26.507-4.319-52.925-6.366-79.392c-2.441-31.55-3.323-63.248-4.039-94.878
	c-1.439-63.568-0.451-127.045,0.81-190.602c0.344-17.344,1.15-34.646,1.803-51.978c0.03-0.797-0.09-1.524-0.313-2.192
	c1.219-2.076,1.927-4.422,1.876-6.864c0-0.042,0.001-0.084,0.002-0.126c0.006-0.322-0.007-0.627-0.03-0.924
	c-0.017-0.683-0.033-1.366-0.054-2.049c-0.208-6.687-6.73-7.787-11.925-6.694c-23.086,4.854-43.534,19.636-62.569,32.826
	c-10.531,7.298-21.182,14.399-31.344,22.214c-5.823,4.478-11.729,9.047-16.716,14.372c-0.425,0.396-0.856,0.786-1.278,1.186
	c-4.441,4.21-8.184,8.572-11.494,13.261c-1.668,2.021-3.147,4.178-4.35,6.516c-0.678,0.851-1.355,1.703-1.996,2.595
	c-1.449,2.019-3.446,5.021-4.155,7.957c-0.499,0.582-0.985,1.211-1.478,1.908c-3.713,5.244,0.746,10.633,6.512,7.42
	c0.967-0.539,1.921-1.102,2.87-1.675c4.679-1.557,9.452-5.045,13.124-7.216c7.042-4.164,13.466-7.474,20.972-9.918
	c4.075-1.327,7.756-2.125,11.129-1.649c0.122,1.261,0.216,2.526,0.278,3.791c0.656,13.386,1.051,26.582,0.632,39.995
	c-0.841,26.919-1.594,53.828-2.812,80.734c-1.432,31.624-2.852,63.229-2.399,94.893c0.545,38.09,2.707,76.264,0.659,114.297
	C86.649,477.022,84.846,482.708,82.789,487.849z"/>
<path d="M223.43,342.89c1.613,16.755,5.423,33.378,10.46,49.417c5.096,16.227,11.902,31.977,20.699,46.546
	c2.693,4.459,5.545,8.872,8.656,13.056c2.145,3.698,4.107,7.62,7.527,10.236c8.992,14.583,21.06,27.319,35.041,37.146
	c17.009,11.955,37.221,16.143,57.657,16.84c9.982,0.34,20.184,0.08,30.227-1.099c0.379,0.864,1.287,1.368,2.978,1.088
	c22.387-3.699,45.079-13.81,64.403-25.542c21.292-12.927,39.243-31.438,51.266-53.246c13.957-25.317,20.922-54.309,22.945-82.968
	c2.224-31.494-1.891-63.194-2.872-94.669c-1.607-51.612-11.343-104.272-38.315-148.975c-10.964-18.172-25.546-33.943-43.006-46.013
	c-16.858-11.655-39.586-20.381-60.233-19.131c-0.995,0.061-2.782,2.096-1.287,2.72c6.167,2.577,12.522,4.744,18.764,7.171
	c-9.546-1.776-19.363-2.216-29.038-2.317c-5.566-0.059-11.22,0.156-16.729,0.965c-0.512,0.075-1.204,0.151-1.987,0.245
	c-5.718,0.52-11.268,2.243-16.383,5.711c-0.544,0.369-1.426,1.905-0.167,2.037c8.482,0.887,16.428,2.372,24.319,5.735
	c7.167,3.055,14.308,6.113,21.392,9.377c6.068,2.795,12.073,5.779,17.923,9.032c0.055,0.081,0.118,0.159,0.197,0.232
	c6.026,5.573,12.244,11,18.19,16.685c10.335,13.367,18.477,28.768,25.012,43.284c17.941,39.851,26.424,82.288,32.892,125.258
	c1.615,10.729,2.983,21.47,4.002,32.23c0.445,8.51,0.941,17.017,1.326,25.531c0.236,5.215,0.413,10.433,0.544,15.651
	c0.029,1.155,0.037,2.345,0.052,3.549c-0.028,1.843-0.07,3.687-0.127,5.531c-0.583,6.159-0.89,12.35-1.055,18.525
	c-0.007,0.25-0.003,0.501-0.009,0.75c-0.726,9.97-1.651,19.927-2.49,29.887c-0.212,2.521-0.402,5.044-0.596,7.567
	c-1.382,5.716-2.818,11.42-4.394,17.085c-0.226,0.597-0.451,1.193-0.674,1.79c-2.438,6.536-4.7,13.146-6.797,19.799
	c-0.055,0.174-0.114,0.351-0.171,0.526c-1.145,2.387-2.334,4.752-3.614,7.066c-0.43,0.778-0.887,1.534-1.354,2.279
	c-1.543,1.96-3.085,3.921-4.654,5.864c-4.229,5.238-8.652,10.233-13.373,15.031c-1.072,1.089-2.207,2.112-3.338,3.138
	c-11.401,6.218-23.607,10.889-35.307,16.498c-1.25-0.078-2.499-0.135-3.749-0.178c0.29-3.858-2.131-7.301-8.019-6.084
	c-8.783,1.815-18.053-2.189-25.542-6.336c-9.718-5.38-18.146-12.816-25.951-20.644c-15.417-15.463-27.807-33.099-37.336-52.721
	c-22.991-47.338-31.432-101.084-34.255-153.186c-2.005-37.009-1.56-74.852,4.938-111.433c5.803-32.669,16.471-64.474,43.402-85.191
	c11.479-6.791,24.24-11.553,38.144-13.629c4.808-0.718,9.625-1.386,14.44-2.032c2.089-0.28,5.168-4.662,1.751-5.12
	c-20.993-2.812-44.459,3.229-62.833,13.471c-1.238,0.69-2.461,1.405-3.671,2.141c-1.654,0.764-3.266,1.563-4.821,2.363
	c-9.4,4.839-17.976,11.349-25.67,18.562c-16.244,15.227-28.347,35.003-37.753,55.016c-22.24,47.316-26.532,99.885-24.254,151.427
	C221.583,305.197,221.63,324.2,223.43,342.89z M499.456,190.03c-0.054,0.019-0.108,0.034-0.163,0.056
	c-0.067-0.139-0.14-0.282-0.205-0.42c-0.124-0.259-0.255-0.514-0.379-0.772c0.161,0.033,0.325,0.055,0.49,0.065
	C499.287,189.315,499.37,189.673,499.456,190.03z M518.66,308.83c0.02-0.009,0.04-0.016,0.06-0.026
	c0.022,0.37,0.046,0.74,0.068,1.11C518.745,309.553,518.703,309.191,518.66,308.83z"/>
</svg>
