<?xml version="1.0" encoding="utf-8"?>
<!-- Generator: Adobe Illustrator 17.0.0, SVG Export Plug-In . SVG Version: 6.00 Build 0)  -->
<!DOCTYPE svg PUBLIC "-//W3C//DTD SVG 1.0//EN" "http://www.w3.org/TR/2001/REC-SVG-20010904/DTD/svg10.dtd">
<svg version="1.0" id="Layer_1" xmlns="http://www.w3.org/2000/svg" xmlns:xlink="http://www.w3.org/1999/xlink" x="0px" y="0px"
	 width="566.93px" height="566.93px" viewBox="0 0 566.93 566.93" enable-background="new 0 0 566.93 566.93" xml:space="preserve">
<path d="M77.291,489.593c-0.74,1.85-1.554,3.668-2.429,5.456c-12.157,8.709-26.589,11.92-41.111,17
	c-4.624,1.617-9.335,9.601-2.495,11.642c6.572,1.961,13.372,3.11,20.241,3.768c2.607,0.655,5.164,0.811,7.654,0.548
	c5.677,0.273,11.36,0.288,16.964,0.215c16.312-0.211,32.603-1.506,48.875-2.555c36.023-2.323,72.729,2.626,108.464-3.429
	c4.563-0.773,11.786-6.163,9.043-11.733c-5.735-11.646-21.646-11.235-33.893-11.465c-0.831-0.147-1.732-0.235-2.732-0.235
	c-0.99,0.001-1.98,0.008-2.971,0.011c-2.24-0.167-4.448-0.54-6.627-1.058c-3.149-2.765-5.762-6.3-8.457-9.483
	c-0.875-1.034-1.72-2.098-2.556-3.17c-1.458-26.507-4.319-52.925-6.367-79.392c-2.44-31.55-3.322-63.248-4.039-94.877
	c-1.439-63.569-0.451-127.046,0.81-190.603c0.344-17.344,1.15-34.646,1.803-51.978c0.03-0.797-0.09-1.524-0.314-2.191
	c1.219-2.076,1.927-4.422,1.876-6.864c0-0.042,0.001-0.084,0.002-0.126c0.006-0.322-0.007-0.627-0.03-0.924
	c-0.017-0.683-0.033-1.366-0.054-2.049c-0.208-6.687-6.73-7.787-11.925-6.694c-23.086,4.854-43.534,19.636-62.569,32.826
	c-10.531,7.298-21.182,14.399-31.344,22.214c-5.823,4.478-11.73,9.047-16.717,14.373c-0.425,0.396-0.856,0.786-1.277,1.185
	c-4.441,4.21-8.184,8.572-11.494,13.261c-1.667,2.02-3.146,4.176-4.349,6.514c-0.679,0.852-1.356,1.704-1.997,2.597
	c-1.449,2.019-3.446,5.021-4.154,7.958c-0.499,0.582-0.985,1.211-1.478,1.907c-3.713,5.244,0.746,10.633,6.512,7.42
	c0.967-0.539,1.921-1.102,2.87-1.675c4.679-1.557,9.452-5.045,13.124-7.217c7.042-4.164,13.466-7.474,20.972-9.917
	c4.075-1.327,7.756-2.125,11.129-1.649c0.122,1.261,0.216,2.526,0.278,3.791c0.656,13.386,1.051,26.582,0.632,39.995
	c-0.841,26.919-1.594,53.828-2.812,80.734c-1.432,31.624-2.852,63.229-2.399,94.893c0.545,38.091,2.707,76.264,0.659,114.297
	C81.15,478.767,79.348,484.452,77.291,489.593z"/>
<path d="M208.803,210.273c-1.931,23.02,0.685,47.123,10.324,68.292c9.41,20.666,25.999,37.502,46.296,47.611
	c33.303,16.585,73.941,23.442,110.447,15.524c17.938-3.891,34.345-13.224,46.664-26.81c6.277-6.921,11.427-15.199,14.59-23.997
	c1.41-3.92,3.227-8.252,4.103-12.609c4.306-9.837,5.016-22.922-4.132-30.032c-0.566-0.439-1.204-0.588-1.858-0.545
	c-3.211-0.701-6.532,1.003-9.065,2.929c-5.645,4.289-11.377,8.604-17.285,12.649c-1.724,0.368-3.438,0.871-5.152,1.295
	c-7.996,1.982-15.887,3.984-24.035,5.282c-6.447,1.027-12.922,2.034-19.405,2.842c-13.713-1.142-27.444-3.363-40.618-7.327
	c-12.573-3.783-24.22-10.214-34.462-18.373c-5.096-4.06-9.592-8.569-13.953-13.348c-0.651-2.356-1.221-4.748-1.78-7.126
	c-4.488-19.066-4.317-40.79-1.226-60.028c3.424-21.307,10.21-39.497,21.062-58.365c1.234-2.146,4.774-7.458,7.354-10.945
	c3.175-4.293,6.622-8.434,10.198-12.398c5.213-5.78,14.412-13.543,21.925-19.105c1.874-1.387,3.671-2.865,5.469-4.332
	c0.786-0.001,1.703-0.236,2.733-0.778c8.296-4.361,17.8-2.519,26.493-0.903c5.471,1.017,10.879,2.338,16.192,3.964
	c10.359,6.688,20.128,14.562,28.601,23.173c13.947,14.177,24.574,31.444,33.294,49.212c9.273,18.893,16.645,38.883,22.793,58.993
	c5.217,17.067,9.389,33.561,12.206,50.174c0.632,7.792,1.19,15.596,1.551,23.407c0.251,5.437,0.467,10.863,0.61,16.286
	c-0.124,1.327-0.245,2.653-0.381,3.979c-0.592,5.74-1.424,11.456-2.417,17.142c-1.243,4.617-2.539,9.211-3.872,13.775
	c-6.307,21.603-12.384,43.009-22.3,63.297c-9.473,19.382-21.405,37.364-35.242,53.899c-6.784,8.105-14.125,15.697-21.849,22.907
	c-3.434,3.206-6.908,6.37-10.286,9.635c-15.236,10.065-31.214,18.99-47.657,26.708c-8.364,3.927-16.801,7.53-25.342,11.053
	c-11.699,4.826-23.911,8.285-35.68,12.951c-4.275,1.695-7.992,9.937-0.826,9.859c14.34-0.156,29.192-4.21,42.681-8.958
	c11.622-4.091,22.981-8.884,34.05-14.29c22.517-10.998,43.736-24.489,63.667-39.652c20.185-15.356,38.613-32.914,55.261-52.033
	c16.482-18.928,31.973-39.523,43.581-61.832c11.483-22.069,19.954-45.894,24.888-70.276c4.961-24.519,5.613-49.792,3.909-74.691
	c-3.282-47.937-18.164-97.404-55.69-129.465c-0.114-0.148-0.227-0.3-0.341-0.448c-6.77-8.743-15.618-15.771-24.705-21.955
	c-17.052-11.604-35.7-18.021-56.303-19.312c-11.487-0.719-23.013-0.154-34.395,1.527c-16.016,0.555-31.889,3.63-47.06,8.873
	c-9.871,3.412-19.165,7.872-28.14,13.186c-4.428,2.623-8.815,5.448-12.882,8.605c-2.647,2.055-4.921,4.463-7.222,6.854
	c-8.07,5.447-15.348,12.229-21.748,19.501c-15.309,17.396-26.348,38.273-33.622,60.171c-2.851,8.583-4.816,17.488-5.896,26.502
	C210.927,191.517,209.597,200.821,208.803,210.273z"/>
</svg>
