<?xml version="1.0" encoding="utf-8"?>
<!-- Generator: Adobe Illustrator 17.0.0, SVG Export Plug-In . SVG Version: 6.00 Build 0)  -->
<!DOCTYPE svg PUBLIC "-//W3C//DTD SVG 1.0//EN" "http://www.w3.org/TR/2001/REC-SVG-20010904/DTD/svg10.dtd">
<svg version="1.0" id="Layer_1" xmlns="http://www.w3.org/2000/svg" xmlns:xlink="http://www.w3.org/1999/xlink" x="0px" y="0px"
	 width="566.93px" height="566.93px" viewBox="0 0 566.93 566.93" enable-background="new 0 0 566.93 566.93" xml:space="preserve">
<path d="M209.415,509.977c4.572-0.785,11.774-6.15,9.043-11.733c-5.393-11.026-20.007-10.945-31.634-11.166
	c-1.037-0.257-2.2-0.411-3.536-0.411c-1.422,0.001-2.844,0.01-4.267,0.015c-1.551-0.188-3.085-0.471-4.604-0.83
	c-0.083-0.067-0.146-0.118-0.168-0.137c-0.67-0.59-1.262-1.282-1.868-1.936c-2.634-2.846-5.105-5.88-7.553-8.885
	c-0.25-0.306-0.491-0.621-0.737-0.932c-1.443-26.796-4.349-53.5-6.322-80.261c-2.319-31.46-3.109-63.07-3.748-94.603
	c-1.283-63.362-0.346-126.669,1.074-190.018c0.291-12.953,0.974-25.879,1.448-38.825c0.027-0.734-0.077-1.408-0.268-2.033
	c1.176-2.046,1.854-4.35,1.802-6.744c0.001-0.041,0.002-0.082,0.003-0.122c0.007-0.331-0.008-0.643-0.032-0.948
	c-0.017-0.643-0.033-1.285-0.053-1.928c-0.216-6.668-6.723-7.81-11.923-6.694c-22.492,4.828-42.252,19.491-60.707,32.472
	c-9.973,7.015-20.057,13.848-29.654,21.381c-5.552,4.358-11.21,8.825-15.901,14.05c-0.319,0.304-0.644,0.603-0.961,0.91
	c-3.776,3.653-6.993,7.41-9.851,11.4c-2.027,2.328-3.791,4.84-5.106,7.613c-0.782,1.008-1.542,2.039-2.266,3.106
	c-1.233,1.815-2.844,4.433-3.462,7.013c-0.482,0.545-0.964,1.147-1.469,1.831c-3.861,5.233,0.821,10.577,6.513,7.422
	c0.935-0.518,1.857-1.062,2.773-1.616c4.436-1.506,9.033-4.889,12.375-6.893c6.714-4.025,12.864-7.24,19.945-9.589
	c3.671-1.218,4.954-1.491,8.528-1.693c0.635-0.036,1.221-0.032,1.791,0.016c0.146,1.737,0.228,3.481,0.302,5.225
	c0.558,13.015,0.83,25.855,0.408,38.892c-1.949,60.159-6.046,120.429-4.734,180.63c0.715,32.818,2.132,65.698,0.364,98.464
	c-1.361,5.481-3.032,10.868-4.882,15.591c-0.778,1.985-1.646,3.933-2.582,5.846c-3.452,2.547-7.145,4.731-11.261,6.637
	c-8.74,4.046-18.281,5.992-27.332,9.194c-4.633,1.639-9.333,9.576-2.496,11.649c6.279,1.904,12.781,3.022,19.352,3.663
	c2.619,0.698,5.189,0.844,7.692,0.55c5.43,0.255,10.867,0.264,16.225,0.189c15.69-0.219,31.356-1.497,47.009-2.505
	C140.807,511.038,175.569,515.787,209.415,509.977z"/>
<path d="M374.471,107.986c1.025-5.462,1.712-10.991,2.237-16.525c14.442,2.784,29.239,3.775,43.921,3.769
	c21.052-0.009,41.963-1.12,62.834-3.948c11.491-1.557,22.761-3.991,33.98-6.911c10.879-2.832,22.407-5.484,31.908-11.727
	c0.614-0.404,1.336-1.211,1.937-2.158c1.843-1.717,3.452-3.701,4.947-5.803c1.313-1.846,0.767-4.011-0.648-4.795
	c-0.194-0.702-0.737-1.227-1.791-1.329c-9.18-0.888-17.513,0.174-26.662,1.578c-9.666,1.483-19.364,2.755-29.083,3.833
	c-18.509,2.053-37.28,3.524-55.911,2.79c-18.337-0.722-36.632-3.053-54.8-5.542c-9.606-1.316-19.126-3.124-28.661-4.867
	c-4.957-0.906-9.892-1.924-14.815-2.991c-5.221-1.13-10.313-1.06-15.613-1.272c-3.322-0.133-7.223,3.797-7.61,7.312
	c-5.455,4.609-10.209,10.295-14.787,15.667c-1.677,1.969-3.159,5.978-1.822,8.501c2.531,4.774,4.732,7.041,6.396,12.503
	c1.425,4.677,1.828,10.38,1.851,15.821c0.055,12.846-2.929,25.713-6.243,38.055c-5.672,21.124-14.01,41.304-22.188,61.537
	c-1.777,2.513-2.946,5.381-3.305,8.559c-0.176,1.552-0.06,2.853,0.274,3.93c-0.199,0.373-0.397,0.747-0.593,1.124
	c-1.388,1.49-2.365,3.441-2.691,5.291c-1.106,2.135-2.266,4.215-3.622,6.118c-1.03,1.444-1.541,2.999-1.54,4.412
	c-1.294,1.425-2.235,3.324-2.044,4.913c-0.055,0.091-0.108,0.184-0.163,0.275c-0.054,0.028-0.097,0.05-0.157,0.081
	c-5.843,2.769-8.383,14.893,0.783,13.938c35.114-3.657,70.833-3.439,105.686,2.452c34.901,5.9,71.56,18.135,96.158,44.83
	c8.736,9.479,15.161,20.541,19.383,32.7c2.456,7.074,3.385,13.942,4.317,21.325c0.808,6.394,1.043,12.965,1.801,19.406
	c-1.05,3.806-2.319,7.577-4.031,11.289c-5.411,11.734-13.321,22.12-21.705,31.869c-15.255,17.737-37.682,27.417-60.371,31.216
	c-23.291,3.9-46.237,1.608-69.356-2.042c-21.614-3.413-44.107-6.907-63.471-17.688c-3.586-1.997-7.647-3.982-10.809-6.61
	c-3.019-2.508-9.009,0.121-10.275,3.72c-4.225,3.862-7.733,8.814-11.428,13.184c-3.991,4.721-7.914,9.498-11.835,14.276
	c-3.983,4.854-7.964,9.71-11.95,14.562c-3.334,4.058-8.482,9.715-9.246,15.075c-0.343,2.408,1.45,3.365,3.593,2.899
	c1.166-0.253,2.287-0.704,3.372-1.277c0.299,1.909,2.019,3.478,4.071,3.083c0.695-0.133,1.361-0.313,2.013-0.513
	c1.443,1.774,4.217,2.519,7.634,0.939c-2.713,1.255-0.61,0.489,1.672,0.958c2.331,0.48,4.734,0.627,7.078,1.08
	c2.134,0.413,4.279,0.92,6.38,1.563c0.023,0.01,0.047,0.02,0.071,0.029c0.561,0.353,1.229,0.627,1.995,0.821
	c1.774,0.737,3.544,1.486,5.314,2.237c1.169,0.495,2.429,0.633,3.702,0.509c48.293,14.907,102.244,10.354,148.908-8.169
	c49.012-19.455,90.043-56.406,107.271-107.11c14.446-42.517,1.785-89.343-30.45-120.076c-28.36-27.039-67.474-40.306-105.521-46.172
	c-11.314-1.744-22.926-2.905-34.601-3.349c3.37-24.307,13.683-46.715,20.447-70.167C370.293,134.18,372.021,121.043,374.471,107.986
	z"/>
</svg>
