<?xml version="1.0" encoding="utf-8"?>
<!-- Generator: Adobe Illustrator 17.0.0, SVG Export Plug-In . SVG Version: 6.00 Build 0)  -->
<!DOCTYPE svg PUBLIC "-//W3C//DTD SVG 1.0//EN" "http://www.w3.org/TR/2001/REC-SVG-20010904/DTD/svg10.dtd">
<svg version="1.0" id="Layer_1" xmlns="http://www.w3.org/2000/svg" xmlns:xlink="http://www.w3.org/1999/xlink" x="0px" y="0px"
	 width="566.93px" height="566.93px" viewBox="0 0 566.93 566.93" enable-background="new 0 0 566.93 566.93" xml:space="preserve">
<path d="M302.347,238.966c-5.057-0.749-9.918-2.012-14.894-2.935c-5.43-1.006-11.995-0.114-17.501,0.114
	c-10.934,0.453-21.624,2.442-32.192,5.248c-20.733,5.505-40.024,16.047-56.129,30.185c-39.667,34.82-60.186,94.455-51.603,146.22
	c4.396,26.52,15.808,50.804,36.177,68.65c18.515,16.222,40.931,26.543,64.215,33.926c46.327,14.688,100.282,14.43,143.265-10.334
	c23.035-13.271,41.168-34.945,52.198-58.931c11.09-24.118,14.018-50.099,10.747-76.221c-3.612-28.847-12.668-56.991-30.033-80.567
	c-16.325-22.164-41.497-33.615-66.774-42.364c-4.763-1.649-9.55-3.226-14.341-4.793c-12.299-4.025-26.382,18.568-11.108,23.566
	c23.348,7.64,47.922,15.94,65.192,34.279c18.698,19.856,27.823,47.976,32.007,74.39c1.9,11.993,3.069,23.943,1.581,36.051
	c-1.504,12.229-4.966,23.397-10.187,34.362c-4.869,10.226-12.144,20.282-19.448,27.44c-8.918,8.741-15.529,13.225-27.065,18.553
	c0.947-0.454-2.786,1.133-2.528,1.029c-1.352,0.545-2.721,1.044-4.09,1.543c-2.761,1.006-5.57,1.876-8.388,2.705
	c-5.99,1.762-11.333,2.872-17.203,3.789c-11.445,1.788-23.724,2.471-34.959,1.827c-22.284-1.277-44.779-7.167-65.288-15.85
	c-21.008-8.895-40.52-21.63-53.944-40.375c-15.429-21.545-20.438-51.84-17.606-77.751c2.325-21.267,9.535-41.737,20.156-60.244
	c1.157-2.016,4.044-6.392,6.31-9.542c2.485-3.456,5.182-6.756,7.991-9.952c0.387-0.436,0.78-0.865,1.173-1.295
	c-0.618,0.698,1.485-1.521,1.606-1.644c1.433-1.46,2.923-2.862,4.427-4.249c3.149-2.902,6.493-5.585,9.933-8.134
	c0.152-0.106,0.335-0.233,0.574-0.4c0.987-0.683,1.994-1.337,3-1.991c1.676-1.089,3.393-2.113,5.118-3.12
	c3.459-2.019,7.039-3.825,10.667-5.518c0.282-0.128,0.5-0.227,0.674-0.306c1.058-0.459,2.118-0.912,3.178-1.364
	c1.884-0.805,3.795-1.546,5.71-2.273c4.27-1.619,8.629-2.995,13.02-4.245c7.943-2.262,16.118-4.145,24.229-5.689
	c2.237-0.426,4.482-0.801,6.73-1.166c2.249-0.364,5.349-0.237,7.426-1.15c4.819-2.116,10.09-2.783,15.256-3.507
	C302.86,246.477,307.676,239.755,302.347,238.966z"/>
<path d="M457.147,413.437c4.191-8.695,4.155-19.052,3.601-28.48c-0.668-11.381-2.866-22.672-5.355-33.776
	c-4.841-21.599-12.059-42.17-23.784-61.046c-11.483-18.486-27.504-34.677-46.307-45.722c-7.63-4.481-15.844-8.285-24.313-11.025
	c0.323-0.508,0.603-1.033,0.818-1.544c0.583-1.2,0.854-2.465,0.813-3.796c-0.451-1.994-0.499-2.311-0.145-0.953
	c-0.125-2.5-0.889-5.032-1.427-7.465c-1.416-6.41-0.875-13.847-1.551-20.628c-0.213-2.135-1.435-3.391-3.46-3.943
	c-5.414-1.477-11.111-2.04-16.71-2.141c-0.066-0.001-0.137,0.013-0.206,0.018c-2.645-4.687-5.022-9.535-7.477-14.32
	c-7.688-14.993-15.195-30.075-22.711-45.154c-17.089-34.285-34.186-69.187-58.706-98.882c-4.07-4.929-8.931-10.444-11.654-16.257
	c-1.005-2.146-4.188-0.044-4.064,1.798c0.438,6.527,1.866,11.251,5.321,16.932c3.963,6.518,8.478,12.714,12.537,19.183
	c8.091,12.896,15.779,26.064,22.669,39.644c5.601,11.037,10.889,22.261,16.234,33.425c11.705,24.448,24.366,48.551,35.324,73.355
	c-6.111,1.018-12.659,0.828-18.783,1.118c-7.742,0.367-15.485,0.724-23.229,1.074c-7.097,0.321-14.196,0.617-21.294,0.928
	c-2.555,0.112-5.166,0.162-7.782,0.257c-0.519-1.221-1.457-2.273-2.5-3.337c-0.872-0.888-1.852-1.367-2.865-1.53
	c-0.985-1.148-1.852-2.448-2.689-3.544c-2.283-2.989-4.34-6.175-6.27-9.401c-4.417-7.386-8.233-15.128-12.145-22.788
	c-8.315-16.282-18.053-31.489-27.845-46.917c-10.885-17.152-21.273-34.763-33.388-51.086c-5.491-7.398-11.325-14.531-16.728-21.998
	c-2.598-3.59-5.046-7.291-7.357-11.072c-2.38-3.895-5.604-7.002-8.364-10.582c-0.562-0.729-1.708,0.292-1.68,0.965
	c0.393,9.42,3.25,16.316,8.099,24.37c5.075,8.429,10.72,16.485,16.273,24.601c11.856,17.328,22.248,35.648,33.097,53.619
	c9.791,16.218,19.114,32.262,27.333,49.33c2.172,4.51,4.437,8.983,6.822,13.389c-4.456-2.161-10.309-0.934-14.337,1.839
	c-5.161,3.554-7.438,8.862-9.054,14.717c-1.355,4.915-1.118,10.024-1.026,15.076c0.046,2.551,0.093,5.1,0.068,7.65
	c-0.022,2.264-0.889,3.977-0.486,6.184c-8.992,4.045-17.465,9.263-24.916,14.704c-19.727,14.404-35.373,33.35-47.255,54.597
	c-22.252,39.787-28.765,89.991-16.394,133.933c8.916,31.672,29.158,58.664,55.588,77.924c13.097,9.544,28.257,18.575,44.141,22.365
	c7.536,1.798,15.213,2.945,22.813,4.433c4.839,0.948,13.323,1.925,16.544,5.391c4.535,4.879,14.562-3.992,10.029-8.802
	c-5.318-5.644-15.297-6.704-22.484-8.065c-9.455-1.79-19.238-2.716-28.46-5.555c-10.834-3.334-21.531-9.871-30.991-15.988
	c-9.38-6.065-17.917-13.401-25.608-21.483c-30.646-32.204-41.387-77.326-35.802-120.68c4.186-32.497,17.103-63.043,38.003-88.324
	c10.419-12.604,22.852-23.499,36.948-31.806c14.343-8.453,29.949-12.554,45.875-16.796c1.232-0.329,2.8-3.154,0.723-3.374
	c-7.879-0.833-15.869,0.06-23.688,2.12c1.069-6.121-0.754-13.633-1.04-19.256c-0.17-3.359-0.111-5.944,1.361-9.588
	c0.768-1.901,6.723-2.198,9.073-3.25c1.041-0.466,2.326-1.92,2.887-3.434c0.919,1.605,1.848,3.205,2.813,4.782
	c2.123,3.468,4.445,7.409,7.168,10.874c-1.707,2.307-2.133,5.491,1.287,6.343c6.247,1.556,13.413,0.796,19.816,0.795
	c7.665-0.002,15.331,0.022,22.996,0.021c7.047-0.001,14.09-0.027,21.135-0.196c5.713-0.138,11.667-0.801,17.472-0.732
	c2.771,2.301,8.495,0.687,11.032-0.909c0.825-0.519,1.558-1.145,2.193-1.837c5.274,1.333,11.049-3.486,11.528-8.785
	c0.483,0.177,0.965,0.358,1.445,0.545c-0.574,5.676-1.132,11.587-0.556,17.128c0.216,2.073,0.579,4.133,0.848,6.2
	c0.048,0.372,0.073,0.746,0.11,1.119c-2.577-0.47-5.164-0.885-7.774-1.314c-2.557-0.42-5.133-0.677-7.723-0.778
	c-3.527-0.139-6.622,0.681-10.066,0.853c-0.473-0.003-0.946-0.007-1.419-0.011c-0.95-0.008-1.995,1.852-0.705,2.061
	c2.221,0.36,4.044,1.65,6.216,2.225c2.581,0.684,5.148,1.438,7.728,2.135c5.237,1.416,10.415,2.896,15.522,4.759
	c9.777,3.566,19.26,7.916,28.145,13.344c17.735,10.833,32.417,25.462,43.778,42.833c11.409,17.447,18.185,37.278,23.104,57.396
	c2.497,10.211,4.434,20.567,5.482,31.031c0.887,8.844,1.47,18.742-1.902,27.17c-1.395,3.486,0.081,5.306,2.308,5.682
	c-2.252,0.266-3.838,1.976-5.592,3.414c-1.937,1.589-2.76,4.821-0.78,6.291c-0.168,0.842-0.31,1.794-0.404,2.19
	c-0.596,2.531-1.115,5.08-1.703,7.613c-1.172,5.05-3.125,9.771-5.142,14.531c-3.489,8.237-7.529,16.235-12.09,23.93
	c-8.894,15.004-20.663,28.157-34.677,38.527c-15.53,11.491-34.151,18.215-52.767,22.731c-21.815,5.292-44.552,7.261-66.744,3.135
	c-2.948-0.548-6.261,4.385-2.612,5.542c21.836,6.926,46.07,5.021,68.185,0.318c20.698-4.401,40.991-12.432,58.239-24.785
	c15.791-11.31,28.662-26.017,38.754-42.555c5.173-8.478,9.62-17.334,13.537-26.457c2.21-5.146,4.162-10.309,5.529-15.746
	c0.635-2.525,1.162-5.079,1.746-7.617c0.559-2.428,1.951-4.952,1.599-7.461c-0.259-1.846-1.2-3.003-3.037-3.46
	c-0.175-0.044-0.344-0.074-0.512-0.102C453.549,417.143,456.016,415.784,457.147,413.437z"/>
<path d="M465.447,27.898c1.819-2.021,2.981-4.687,1.967-7.335c-1.432-3.736-6.112-3.451-9.003-1.81
	c-3.046,1.729-4.925,4.665-6.607,7.62c-0.164,0.288-0.287,0.565-0.4,0.84c-3.07,3.877-6.807,7.504-9.709,11.334
	c-4.369,5.765-8.43,11.762-12.416,17.796c-8.277,12.53-15.877,25.49-24.234,37.969c-9.482,14.16-19.969,27.785-30.192,41.417
	c-5.047,6.73-10.142,13.426-15.263,20.101c-5.14,6.699-11.514,13.316-15.02,21.059c-1.658,3.662,2.499,4.516,4.866,2.666
	c6.344-4.958,11.108-12.088,16.108-18.333c5.272-6.586,10.502-13.208,15.703-19.851c10.63-13.58,21.377-27.117,31.351-41.194
	c8.339-11.771,16.047-23.994,23.982-36.038c4.006-6.081,8.135-12.079,12.458-17.939c3.093-4.191,6.592-9.902,10.763-13.745
	C461.972,31.182,463.9,29.764,465.447,27.898z"/>
<path d="M321.891,52.764c-4.782,5.643-9.576,11.27-14.168,17.07c-2.533,3.199-6.063,6.894-8.645,10.856
	c-1.03,0.936-1.833,2.029-2.231,3.171c-0.672,1.929-1.182,3.591-1.132,5.657c-0.032,0.638,0.06,1.204,0.232,1.713
	c0.673,2.515,2.725,3.433,5.125,3.25c1.009,0.066,2.023-0.043,2.906-0.325c3.204-1.024,5.787-3.507,6.898-6.584
	c0.097-0.227,0.182-0.457,0.256-0.689c0.142-0.25,0.291-0.494,0.435-0.742c1.374,0.087,2.942-0.521,4.027-2.066
	c8.001-11.394,17.858-21.55,26.651-32.327c4.719-5.783,9.339-11.686,13.372-17.974c0.885-1.381,1.786-2.811,2.611-4.29
	c1.849-1.271,3.527-3.009,4.737-4.907c0.889-0.431,1.687-1.067,2.353-1.824c0.031-0.032,0.059-0.066,0.09-0.1
	c0.012-0.014,0.024-0.026,0.036-0.041c0.98-1.064,1.701-2.348,1.977-3.635c0.268-1.251,0.083-2.336-0.422-3.194
	c-0.493-0.998-1.386-1.759-2.752-1.969c-1.751-0.269-3.452-0.282-5.137-0.167c-0.423-0.009-0.847-0.019-1.27-0.028
	c-0.6-0.013-1.228,0.12-1.854,0.364c-1.775,0.24-3.556,0.535-5.383,0.741c-2.318,0.262-4.422,1.791-5.416,3.904
	c-0.533,1.133-0.628,2.704-0.092,3.878c-3.067,4.372-5.818,9.01-9.093,13.242C331.497,41.575,326.65,47.147,321.891,52.764z"/>
<path d="M347.636,299.275c-0.781-0.589-1.716-0.987-2.738-1.23c-1.096-0.261-2.175-0.274-3.228-0.109
	c-1.281-0.731-2.871-1.113-4.754-0.97c-16.794,1.273-33.691,1.785-50.541,2.434c-9.142,0.352-18.273,1.19-27.42,1.572
	c-8.404,0.351-19.629-0.566-27.082,3.636c-1.258,0.709-2.921,2.431-3.842,4.313c-2.307,2.592-4.119,6-5.365,8.353
	c-3.216,6.076-6.25,12.245-9.396,18.357c-4.21,8.18,4.533,12.433,11.151,8.954c4.017-2.112,7.887-4.484,11.854-6.687
	c3.427-0.003,6.825-0.28,9.699-0.423c8.755-0.437,17.491-1.146,26.223-1.904c12.548-1.09,25.528-2.409,38.287-1.978
	c-3.592,5.62-7.255,11.177-10.642,16.937c-7.165,12.182-13.658,24.739-20.818,36.921c-14.969,25.47-31.597,49.793-45.002,76.191
	c-3.548,6.987,0.773,12.739,7.971,13.039c3.065,0.128,6.063-0.405,9.04-1.081c2.544,0.078,5.123-0.813,7.39-2.212
	c2.683-1.468,5.213-3.985,6.732-6.817c8.506-11.672,14.566-25.026,22.526-37.072c9.125-13.81,17.473-27.82,25.46-42.315
	c7.482-13.578,14.957-27.159,21.756-41.094c0.739-1.329,1.475-2.659,2.201-3.995c3.499-6.44,6.694-13.128,9.481-19.905
	c1.543-3.752,4.811-9.536,4.978-14.431c0.011-0.023,0.023-0.047,0.035-0.07C353.313,304.058,351.726,299.548,347.636,299.275z"/>
</svg>
