<?xml version="1.0" encoding="utf-8"?>
<!-- Generator: Adobe Illustrator 17.0.0, SVG Export Plug-In . SVG Version: 6.00 Build 0)  -->
<!DOCTYPE svg PUBLIC "-//W3C//DTD SVG 1.0//EN" "http://www.w3.org/TR/2001/REC-SVG-20010904/DTD/svg10.dtd">
<svg version="1.0" id="Layer_1" xmlns="http://www.w3.org/2000/svg" xmlns:xlink="http://www.w3.org/1999/xlink" x="0px" y="0px"
	 width="566.93px" height="566.93px" viewBox="0 0 566.93 566.93" enable-background="new 0 0 566.93 566.93" xml:space="preserve">
<path d="M86.34,384.336c0.133,0.298,0.281,0.593,0.436,0.885c0.325,2.522,1.523,4.802,4.07,5.83
	c12.566,5.075,26.894,4.067,40.235,3.845c0.272-0.004,0.545-0.017,0.817-0.022c20.182,2.729,41.2,2.103,61.112,1.826
	c28.643-0.399,57.261-1.245,85.907-1.48c19.091-0.157,38.177-0.636,57.256-1.338c-0.026,9.063-0.076,18.125-0.177,27.186
	c-0.094,8.452-0.262,16.902-0.504,25.35c-0.108,3.812-0.209,7.627-0.426,11.434c-0.082,1.451-0.196,2.9-0.308,4.349
	c-0.023,0.161-0.387,4.513-0.431,4.993c-1.096,12.178-2.435,24.546-1.691,36.784c-1.892,1.591-3.845,3.113-5.782,4.641
	c-7.427,5.857-10.895,21.558,1.508,23.875c12.145,2.268,24.904,1.581,37.206,1.59c11.904,0.009,23.814-0.189,35.716,0.066
	c8.574,0.184,17.295-7.669,20.71-14.93c2.863-6.087,3.194-16.427-4.373-19.595c-1.723-0.721-3.345-1.525-4.915-2.484
	c0.524,0.259-0.705-0.801-1.708-1.765c-0.414-0.715-1.141-1.937-1.401-2.667c-0.263-0.735-0.459-1.494-0.649-2.252
	c-0.009-0.043-0.018-0.09-0.024-0.129c-0.553-3.084-1.119-6.447-1.96-9.724c0.107-11.329-0.191-22.701-0.222-33.978
	c-0.045-16.468-0.178-32.936-0.344-49.402c-0.023-2.277-0.052-4.555-0.076-6.832c2.15-0.131,4.302-0.25,6.452-0.384
	c10.71-0.668,21.405-1.677,32.139-1.674c6.185,0.001,12.306-3.651,16.662-8.646c1.119-1.283,2.121-2.654,2.979-4.075
	c5.838-5.194,10.845-11.5,14.856-17.828c3.418-5.39,6.346-11.553,3.863-18.03c-2.146-5.601-8.37-8.729-14.205-7.928
	c-21.237,2.919-42.207,7.432-63.312,11.131c-0.188-14.861-0.373-29.723-0.526-44.585c-0.338-32.771-0.578-65.551-1.247-98.318
	c-0.333-16.29-0.621-32.583-1.076-48.87c-0.363-13.026-0.53-26.322-2.028-39.348c0.306-5.782,0.257-11.595-0.013-17.298
	c-0.466-9.857-1.025-19.687-0.624-29.556c0.054-1.32,0.313-5.283,0.127-9.35c0.379-0.993,0.683-2.002,0.9-3.02
	c0.386-1.801,0.453-3.505,0.253-5.085c0.484-1.435,0.97-2.832,1.466-4.173c1.815-4.918-1.266-10.628-7.207-8.212
	c-1.296,0.527-2.589,1.061-3.884,1.59c-2.954-0.794-6.306-0.694-9.651,0.53c-10.669,3.902-21.288,7.875-31.608,12.643
	c-5.064,2.34-9.977,5.035-14.68,8.026c-5.563,3.538-11.514,7.457-14.474,13.532c-0.834,1.711-1.156,3.526-0.91,5.209
	c-2.09,3.397-4.006,6.914-6.139,10.284c-0.625,0.987-1.27,1.962-1.908,2.94c-10.359,12.296-20.019,25.214-29.516,38.133
	c-2.056,2.796-4.089,5.611-6.117,8.43c-0.559,0.657-1.108,1.322-1.669,1.979c-18.313,21.441-37.707,41.946-55.551,63.789
	c-20.409,24.984-40.976,49.768-60.825,75.221c-20.134,25.818-40.002,51.859-59.606,78.081c-1.057,1.413-2.102,2.834-3.153,4.251
	c-0.858,0.757-1.667,1.563-2.417,2.394c-5.498,4.96-10.921,14.161-7.511,21.766C86.221,384.073,86.281,384.205,86.34,384.336z
	 M186.836,358.459c-4.958,0.49-9.911,1.04-14.862,1.603c-0.706-0.019-1.408-0.042-2.113-0.063c-0.941-0.271-1.873-0.569-2.794-0.896
	c-3.48-4.447-6.271-9.68-7.15-15.278c-0.31-1.97-0.503-4.026-0.628-6.109c4.356-6.019,8.691-12.053,13.134-18.016
	c18.445-24.762,40.028-46.849,57.407-72.479c2.048-3.02,4.018-6.092,5.957-9.183c0.64-1.021,1.256-2.059,1.886-3.088
	c6.232-8.335,12.402-16.723,18.601-25.089c8.896-10.336,18.537-20.014,27.422-30.365c11.229-13.083,21.335-27.093,31.537-41.022
	c0.513-0.484,1.015-0.979,1.532-1.458c3.84-3.543,7.627-6.356,11.904-8.425c0.524,0.135,1.264,0.334,1.393,0.337
	c1.063,0.458,2.077,1.021,3.054,1.643c0.163,0.136,1.215,0.893,1.462,1.121c0.7,0.647,1.331,1.367,1.961,2.081
	c0.313,0.354,0.593,0.726,0.893,1.086c0.192,13.603-0.599,27.311-0.654,40.831c-0.087,21.074,0.37,42.118,0.835,63.185
	c0.058,2.616,0.104,5.231,0.155,7.847c-1.736,24.879-1.36,49.957-1.5,74.866c-0.054,9.628-0.066,19.257-0.068,28.886
	c-18.273,0.938-36.593,1.438-54.776,2.43C249.915,354.623,218.246,355.357,186.836,358.459z M408.961,490.521
	C409.877,494.209,409.198,491.698,408.961,490.521L408.961,490.521z"/>
</svg>
