<?xml version="1.0" encoding="utf-8"?>
<!-- Generator: Adobe Illustrator 17.0.0, SVG Export Plug-In . SVG Version: 6.00 Build 0)  -->
<!DOCTYPE svg PUBLIC "-//W3C//DTD SVG 1.0//EN" "http://www.w3.org/TR/2001/REC-SVG-20010904/DTD/svg10.dtd">
<svg version="1.0" id="Layer_1" xmlns="http://www.w3.org/2000/svg" xmlns:xlink="http://www.w3.org/1999/xlink" x="0px" y="0px"
	 width="566.93px" height="566.93px" viewBox="0 0 566.93 566.93" enable-background="new 0 0 566.93 566.93" xml:space="preserve">
<path d="M394.239,78.682c-0.115-0.149-0.229-0.301-0.344-0.45c-6.769-8.743-15.617-15.771-24.704-21.954
	c-17.053-11.604-35.7-18.021-56.304-19.312c-11.485-0.72-23.01-0.155-34.392,1.526c-16.017,0.555-31.892,3.63-47.063,8.873
	c-9.871,3.412-19.164,7.872-28.139,13.187c-4.429,2.622-8.815,5.447-12.883,8.604c-2.646,2.055-4.919,4.462-7.22,6.853
	c-8.071,5.447-15.35,12.229-21.751,19.503c-15.308,17.396-26.347,38.273-33.621,60.17c-2.852,8.584-4.816,17.49-5.896,26.505
	c-1.993,9.117-3.323,18.421-4.116,27.873c-1.931,23.019,0.685,47.122,10.324,68.291c9.41,20.667,25.998,37.5,46.296,47.61
	c33.303,16.587,73.94,23.444,110.447,15.526c17.938-3.891,34.345-13.224,46.664-26.81c6.276-6.922,11.427-15.199,14.59-23.998
	c1.41-3.92,3.228-8.251,4.103-12.607c4.307-9.838,5.017-22.924-4.132-30.034c-0.566-0.44-1.206-0.589-1.86-0.545
	c-3.21-0.699-6.53,1.005-9.063,2.93c-5.645,4.289-11.378,8.604-17.285,12.649c-1.725,0.368-3.438,0.871-5.152,1.295
	c-7.995,1.981-15.886,3.984-24.034,5.282c-6.448,1.027-12.925,2.034-19.408,2.842c-13.712-1.143-27.442-3.364-40.614-7.328
	c-12.574-3.783-24.221-10.214-34.463-18.372c-5.097-4.06-9.592-8.569-13.953-13.349c-0.65-2.356-1.221-4.748-1.78-7.126
	c-4.488-19.066-4.317-40.79-1.226-60.029c3.424-21.307,10.21-39.497,21.062-58.365c1.233-2.146,4.774-7.457,7.354-10.945
	c3.176-4.293,6.622-8.434,10.198-12.398c5.213-5.78,14.411-13.543,21.925-19.105c1.873-1.386,3.67-2.864,5.467-4.331
	c0.786-0.001,1.704-0.236,2.735-0.778c8.296-4.361,17.8-2.52,26.492-0.904c5.472,1.017,10.88,2.338,16.193,3.964
	c10.359,6.687,20.128,14.561,28.6,23.173c13.947,14.177,24.574,31.444,33.295,49.212c9.273,18.893,16.645,38.883,22.793,58.993
	c5.218,17.067,9.389,33.561,12.206,50.174c0.632,7.793,1.19,15.597,1.551,23.407c0.251,5.437,0.467,10.862,0.61,16.286
	c-0.123,1.326-0.244,2.653-0.381,3.978c-0.593,5.741-1.425,11.457-2.418,17.144c-1.243,4.617-2.539,9.21-3.871,13.774
	c-6.307,21.603-12.385,43.009-22.3,63.297c-9.474,19.382-21.405,37.364-35.242,53.899c-6.784,8.105-14.125,15.697-21.849,22.907
	c-3.436,3.207-6.911,6.371-10.289,9.637c-15.236,10.065-31.213,18.989-47.654,26.707c-8.364,3.927-16.801,7.53-25.342,11.054
	c-11.698,4.826-23.911,8.285-35.68,12.951c-4.275,1.695-7.992,9.937-0.825,9.859c14.339-0.157,29.192-4.21,42.681-8.958
	c11.622-4.091,22.98-8.884,34.05-14.291c22.518-10.999,43.736-24.489,63.667-39.653c20.186-15.356,38.613-32.914,55.262-52.033
	c16.482-18.928,31.973-39.524,43.581-61.833c11.483-22.068,19.954-45.893,24.888-70.275c4.962-24.518,5.614-49.792,3.909-74.691
	C446.645,160.209,431.763,110.743,394.239,78.682z"/>
</svg>
