<?xml version="1.0" encoding="utf-8"?>
<!-- Generator: Adobe Illustrator 17.0.0, SVG Export Plug-In . SVG Version: 6.00 Build 0)  -->
<!DOCTYPE svg PUBLIC "-//W3C//DTD SVG 1.0//EN" "http://www.w3.org/TR/2001/REC-SVG-20010904/DTD/svg10.dtd">
<svg version="1.0" id="Layer_1" xmlns="http://www.w3.org/2000/svg" xmlns:xlink="http://www.w3.org/1999/xlink" x="0px" y="0px"
	 width="566.93px" height="566.93px" viewBox="0 0 566.93 566.93" enable-background="new 0 0 566.93 566.93" xml:space="preserve">
<path d="M65.105,488.608c-0.74,1.85-1.553,3.668-2.428,5.456c-12.158,8.709-26.589,11.92-41.111,17
	c-4.624,1.618-9.335,9.601-2.495,11.643c6.572,1.961,13.372,3.11,20.242,3.768c2.608,0.655,5.164,0.811,7.653,0.548
	c5.677,0.273,11.361,0.288,16.964,0.215c16.312-0.211,32.602-1.506,48.875-2.555c36.023-2.323,72.729,2.626,108.464-3.429
	c4.563-0.773,11.786-6.163,9.043-11.733c-5.735-11.646-21.646-11.235-33.893-11.465c-0.831-0.147-1.733-0.235-2.732-0.235
	c-0.99,0-1.98,0.008-2.97,0.011c-2.24-0.167-4.448-0.54-6.628-1.058c-3.149-2.765-5.762-6.3-8.457-9.483
	c-0.876-1.034-1.72-2.098-2.556-3.17c-1.458-26.507-4.319-52.925-6.366-79.392c-2.441-31.55-3.323-63.248-4.039-94.877
	c-1.439-63.569-0.451-127.046,0.81-190.603c0.344-17.344,1.15-34.646,1.803-51.978c0.03-0.797-0.09-1.524-0.314-2.192
	c1.219-2.076,1.927-4.422,1.876-6.864c0.001-0.042,0.002-0.084,0.003-0.126c0.007-0.322-0.007-0.627-0.03-0.924
	c-0.017-0.683-0.033-1.366-0.054-2.049c-0.207-6.687-6.73-7.787-11.925-6.694c-23.086,4.854-43.534,19.636-62.569,32.826
	c-10.531,7.298-21.182,14.399-31.344,22.214c-5.823,4.478-11.729,9.047-16.716,14.372c-0.425,0.396-0.857,0.786-1.278,1.186
	c-4.441,4.21-8.183,8.572-11.493,13.261c-1.668,2.02-3.146,4.177-4.35,6.515c-0.679,0.852-1.356,1.704-1.997,2.597
	c-1.449,2.019-3.446,5.021-4.154,7.957c-0.499,0.582-0.985,1.211-1.478,1.907c-3.714,5.245,0.746,10.633,6.512,7.42
	c0.967-0.539,1.921-1.102,2.87-1.675c4.679-1.557,9.452-5.045,13.123-7.217c7.042-4.164,13.466-7.474,20.972-9.917
	c4.075-1.327,7.756-2.125,11.13-1.649c0.122,1.262,0.216,2.526,0.278,3.791c0.656,13.386,1.051,26.582,0.632,39.995
	c-0.841,26.919-1.594,53.828-2.812,80.734c-1.432,31.624-2.852,63.229-2.399,94.893c0.545,38.091,2.707,76.264,0.659,114.297
	C68.965,477.782,67.163,483.467,65.105,488.608z"/>
<path d="M546.171,433.688c-40.788,2.587-81.284,8.535-122.073,11.01c-19.091,1.158-38.221,1.48-57.308,2.723
	c-6.629,0.432-13.236,0.979-19.829,1.695c6.567-9.699,12.793-19.646,19.096-29.472c0.698-1.088,1.396-2.178,2.094-3.268
	c16.031-15.231,31.531-31.006,46.503-47.294c37.661-40.974,70.843-86.201,96.174-135.845c19.121-37.474,37.833-82.916,26.926-125.52
	c-10.374-40.525-53.491-59.946-91.743-63.84c-37.444-3.812-77.787,4.818-109.101,26.113c-15.467,10.518-28.468,24.088-37.602,40.464
	c-8.248,14.788-14.033,34.383-8.493,50.905c1.31,3.908,6.67,0.174,7.234-2.331c2.065-9.184,3.789-18.268,6.496-26.97
	c7.398-5.511,13.369-13.083,19.833-19.589c1.408-1.417,2.812-2.724,4.222-3.954c5.02-3.07,10.305-5.818,14.491-7.621
	c18.518-7.975,38.441-10.952,57.551-9.408c43.248,3.494,82.375,34.171,89.952,78.546c2.426,14.208,1.688,27.614-1.217,41.385
	c-1.453,6.887-3.789,14.046-5.516,19.051c-1.284,3.722-2.83,7.811-3.956,10.937c-0.387,1.075-0.682,2.121-0.913,3.157
	c-3.682,6.5-7.46,12.847-11.279,18.92c-12.909,20.535-27.307,40.114-42.606,58.924c-12.49,15.356-24.597,28.932-37.526,42.425
	c-3.39,2.658-6.747,5.356-10.066,8.081c-14.635,12.018-29.702,23.518-44.512,35.32c-30.595,24.38-61.169,49.356-88.976,76.924
	c-4.386,4.348-8.159,11.328-3.644,17.007c3.458,4.351,4.881,8.547,4.99,14.112c0.047,2.411,1.078,4.357,2.643,5.739
	c0.293,1.671,1.518,2.917,4.161,3.124c18.909,1.482,37.704-0.528,56.578-1.925c19.909-1.474,39.835-2.714,59.776-3.653
	c35.974-1.693,71.893-2.767,107.893-2.22c0.47,0.212,0.958,0.386,1.461,0.522c1.259,1.441,3.021,2.461,4.951,2.819
	c6.04,1.12,11.13-2.582,14.929-6.782c9.03-9.983,16.529-21.217,24.511-32.023c4.232-5.73,8.641-11.346,13.355-16.689
	c0.234-0.265,0.412-0.469,0.565-0.644c0.183-0.177,0.477-0.472,0.965-0.971c1.35-1.382,2.768-2.693,4.2-3.988
	c1.054-0.953,2.157-1.848,3.261-2.741c0.656-0.49,1.02-0.769,1.104-0.844c0.543-0.365,1.084-0.733,1.638-1.08
	c4.579-2.941,8.707-7.681,8.398-13.495C555.486,436.227,551.061,433.377,546.171,433.688z"/>
</svg>
