<?xml version="1.0" encoding="utf-8"?>
<!-- Generator: Adobe Illustrator 17.0.0, SVG Export Plug-In . SVG Version: 6.00 Build 0)  -->
<!DOCTYPE svg PUBLIC "-//W3C//DTD SVG 1.0//EN" "http://www.w3.org/TR/2001/REC-SVG-20010904/DTD/svg10.dtd">
<svg version="1.0" id="Layer_1" xmlns="http://www.w3.org/2000/svg" xmlns:xlink="http://www.w3.org/1999/xlink" x="0px" y="0px"
	 width="566.93px" height="566.93px" viewBox="0 0 566.93 566.93" enable-background="new 0 0 566.93 566.93" xml:space="preserve">
<path d="M284.872,204.908c-7.098,0.321-14.196,0.617-21.294,0.928c-2.555,0.112-5.165,0.161-7.782,0.256
	c-0.519-1.221-1.456-2.273-2.5-3.337c-0.872-0.889-1.853-1.367-2.865-1.53c-0.985-1.148-1.852-2.448-2.688-3.544
	c-2.283-2.989-4.341-6.175-6.271-9.401c-4.417-7.386-8.233-15.128-12.145-22.788c-8.315-16.282-18.054-31.489-27.846-46.917
	c-10.886-17.152-21.273-34.763-33.388-51.086c-5.49-7.398-11.325-14.531-16.728-21.998c-2.598-3.59-5.047-7.291-7.357-11.072
	c-2.38-3.895-5.604-7.002-8.363-10.582c-0.563-0.729-1.709,0.292-1.681,0.965c0.394,9.42,3.25,16.316,8.099,24.37
	c5.074,8.429,10.721,16.485,16.273,24.601c11.855,17.328,22.248,35.648,33.097,53.619c9.792,16.218,19.114,32.262,27.334,49.33
	c2.172,4.51,4.437,8.983,6.822,13.389c-4.455-2.161-10.31-0.934-14.337,1.839c-5.161,3.554-7.438,8.862-9.055,14.717
	c-1.355,4.915-1.117,10.024-1.025,15.076c0.047,2.55,0.094,5.1,0.069,7.65c-0.022,2.264-0.89,3.976-0.486,6.184
	c-8.992,4.045-17.465,9.263-24.916,14.704c-19.726,14.404-35.372,33.35-47.255,54.597c-22.252,39.787-28.765,89.991-16.394,133.934
	c8.916,31.671,29.158,58.664,55.588,77.923c13.097,9.544,28.257,18.575,44.141,22.365c7.536,1.798,15.214,2.945,22.813,4.433
	c4.84,0.948,13.322,1.925,16.544,5.391c4.535,4.879,14.562-3.992,10.029-8.802c-5.318-5.644-15.297-6.704-22.483-8.065
	c-9.456-1.79-19.239-2.716-28.46-5.555c-10.835-3.334-21.531-9.871-30.991-15.988c-9.38-6.065-17.917-13.401-25.608-21.483
	c-30.646-32.205-41.387-77.326-35.803-120.68c4.187-32.497,17.104-63.043,38.004-88.324c10.419-12.604,22.851-23.499,36.947-31.806
	c14.344-8.453,29.949-12.554,45.875-16.796c1.232-0.329,2.801-3.154,0.724-3.374c-7.879-0.833-15.869,0.06-23.688,2.12
	c1.068-6.121-0.755-13.633-1.04-19.256c-0.171-3.359-0.111-5.944,1.36-9.588c0.769-1.901,6.724-2.198,9.073-3.25
	c1.04-0.466,2.326-1.92,2.888-3.434c0.918,1.605,1.848,3.205,2.813,4.782c2.122,3.468,4.444,7.409,7.167,10.874
	c-1.706,2.307-2.133,5.491,1.288,6.342c6.247,1.556,13.412,0.797,19.814,0.795c7.666-0.001,15.331,0.022,22.997,0.021
	c7.046-0.001,14.09-0.027,21.135-0.196c5.714-0.137,11.668-0.801,17.473-0.732c2.771,2.301,8.495,0.687,11.032-0.909
	c0.824-0.519,1.557-1.145,2.192-1.838c5.274,1.333,11.049-3.485,11.528-8.784c0.483,0.177,0.965,0.358,1.445,0.545
	c-0.574,5.676-1.133,11.587-0.556,17.128c0.215,2.073,0.578,4.133,0.847,6.2c0.049,0.372,0.073,0.746,0.11,1.119
	c-2.576-0.47-5.163-0.886-7.774-1.314c-2.557-0.419-5.133-0.676-7.723-0.778c-3.527-0.139-6.621,0.681-10.066,0.853
	c-0.473-0.003-0.946-0.007-1.42-0.011c-0.949-0.008-1.995,1.852-0.705,2.061c2.221,0.36,4.045,1.65,6.217,2.225
	c2.581,0.684,5.148,1.438,7.728,2.135c5.237,1.416,10.414,2.896,15.522,4.759c9.777,3.566,19.26,7.916,28.146,13.344
	c17.734,10.833,32.417,25.462,43.777,42.833c11.409,17.447,18.185,37.279,23.104,57.397c2.497,10.211,4.434,20.567,5.482,31.031
	c0.887,8.844,1.47,18.741-1.902,27.169c-1.395,3.486,0.081,5.306,2.308,5.682c-2.252,0.266-3.838,1.976-5.592,3.414
	c-1.937,1.589-2.759,4.821-0.779,6.291c-0.169,0.842-0.311,1.794-0.404,2.19c-0.596,2.531-1.114,5.08-1.703,7.613
	c-1.173,5.05-3.126,9.771-5.142,14.531c-3.489,8.237-7.529,16.235-12.09,23.93c-8.894,15.004-20.662,28.157-34.677,38.527
	c-15.53,11.491-34.151,18.215-52.768,22.731c-21.815,5.292-44.552,7.261-66.743,3.135c-2.948-0.548-6.262,4.385-2.613,5.542
	c21.836,6.925,46.071,5.021,68.186,0.318c20.698-4.401,40.991-12.432,58.239-24.785c15.791-11.31,28.662-26.017,38.754-42.555
	c5.173-8.478,9.619-17.334,13.537-26.457c2.21-5.146,4.162-10.309,5.529-15.746c0.635-2.525,1.161-5.079,1.745-7.617
	c0.56-2.428,1.952-4.952,1.6-7.461c-0.259-1.846-1.2-3.003-3.037-3.46c-0.175-0.044-0.344-0.074-0.512-0.102
	c2.225-0.215,4.691-1.575,5.822-3.921c4.191-8.695,4.154-19.052,3.601-28.48c-0.668-11.381-2.865-22.672-5.354-33.776
	c-4.842-21.598-12.059-42.17-23.784-61.047c-11.483-18.486-27.504-34.677-46.308-45.721c-7.629-4.481-15.844-8.285-24.312-11.025
	c0.323-0.508,0.602-1.033,0.817-1.544c0.583-1.2,0.854-2.465,0.813-3.796c-0.45-1.994-0.499-2.311-0.145-0.953
	c-0.125-2.5-0.889-5.032-1.427-7.465c-1.416-6.41-0.874-13.847-1.551-20.628c-0.213-2.135-1.436-3.391-3.46-3.943
	c-5.414-1.477-11.111-2.041-16.711-2.142c-0.065-0.001-0.137,0.013-0.205,0.018c-2.645-4.688-5.022-9.535-7.477-14.321
	c-7.688-14.993-15.195-30.074-22.711-45.154c-17.089-34.285-34.186-69.187-58.706-98.882c-4.07-4.929-8.931-10.444-11.654-16.257
	c-1.006-2.146-4.188-0.044-4.064,1.798c0.438,6.527,1.866,11.251,5.321,16.932c3.963,6.517,8.479,12.714,12.537,19.183
	c8.091,12.896,15.778,26.064,22.669,39.644c5.601,11.037,10.889,22.261,16.234,33.425c11.705,24.448,24.366,48.551,35.323,73.355
	c-6.111,1.018-12.659,0.828-18.783,1.118C300.358,204.2,292.615,204.557,284.872,204.908z"/>
<path d="M302.635,239.022c-5.057-0.749-9.918-2.012-14.895-2.935c-5.43-1.007-11.994-0.114-17.501,0.114
	c-10.934,0.453-21.623,2.442-32.191,5.248c-20.733,5.504-40.024,16.047-56.13,30.185c-39.666,34.821-60.186,94.455-51.603,146.22
	c4.396,26.519,15.808,50.804,36.177,68.65c18.515,16.222,40.931,26.543,64.216,33.926c46.326,14.688,100.282,14.429,143.264-10.334
	c23.036-13.271,41.169-34.945,52.198-58.931c11.09-24.118,14.018-50.098,10.746-76.221c-3.611-28.847-12.668-56.99-30.033-80.567
	c-16.323-22.164-41.496-33.615-66.773-42.364c-4.764-1.649-9.551-3.226-14.342-4.793c-12.299-4.025-26.382,18.568-11.108,23.566
	c23.349,7.64,47.923,15.94,65.192,34.279c18.698,19.856,27.823,47.976,32.007,74.39c1.9,11.993,3.069,23.943,1.581,36.051
	c-1.504,12.229-4.966,23.397-10.187,34.362c-4.869,10.226-12.145,20.282-19.448,27.441c-8.918,8.741-15.529,13.224-27.065,18.553
	c0.947-0.454-2.786,1.133-2.528,1.029c-1.352,0.545-2.722,1.043-4.091,1.542c-2.761,1.006-5.569,1.876-8.388,2.706
	c-5.989,1.761-11.333,2.872-17.203,3.789c-11.445,1.787-23.724,2.47-34.959,1.826c-22.284-1.276-44.778-7.166-65.288-15.849
	c-21.008-8.895-40.52-21.63-53.943-40.375c-15.429-21.545-20.438-51.84-17.606-77.751c2.324-21.267,9.535-41.738,20.155-60.244
	c1.157-2.016,4.045-6.392,6.31-9.542c2.485-3.456,5.183-6.756,7.991-9.952c0.387-0.436,0.779-0.864,1.172-1.294
	c-0.613,0.692,1.486-1.522,1.606-1.645c1.434-1.46,2.924-2.862,4.428-4.249c3.149-2.902,6.493-5.585,9.932-8.133
	c0.153-0.106,0.336-0.233,0.576-0.401c0.986-0.683,1.993-1.337,2.999-1.991c1.676-1.089,3.393-2.113,5.118-3.12
	c3.458-2.02,7.038-3.825,10.666-5.518c0.282-0.128,0.5-0.227,0.675-0.307c1.058-0.458,2.117-0.911,3.178-1.364
	c1.884-0.805,3.794-1.547,5.71-2.273c4.271-1.619,8.629-2.995,13.02-4.245c7.943-2.262,16.118-4.145,24.23-5.689
	c2.236-0.426,4.482-0.801,6.729-1.166c2.249-0.364,5.35-0.237,7.427-1.15c4.818-2.116,10.089-2.783,15.256-3.507
	C303.148,246.533,307.964,239.812,302.635,239.022z"/>
<path d="M344.858,176.945c-1.657,3.662,2.499,4.516,4.865,2.666c6.344-4.958,11.108-12.088,16.108-18.333
	c5.272-6.586,10.502-13.208,15.702-19.851c10.631-13.58,21.378-27.117,31.352-41.194c8.34-11.771,16.047-23.995,23.982-36.038
	c4.006-6.081,8.135-12.08,12.459-17.939c3.092-4.191,6.592-9.901,10.763-13.745c2.171-1.273,4.099-2.691,5.646-4.557
	c1.819-2.021,2.981-4.687,1.967-7.335c-1.433-3.736-6.111-3.451-9.003-1.81c-3.046,1.729-4.925,4.665-6.606,7.62
	c-0.164,0.288-0.287,0.565-0.4,0.84c-3.07,3.877-6.807,7.504-9.709,11.334c-4.369,5.765-8.431,11.762-12.416,17.796
	c-8.277,12.53-15.877,25.49-24.234,37.969c-9.481,14.16-19.969,27.785-30.191,41.417c-5.048,6.73-10.143,13.426-15.264,20.101
	C354.738,162.585,348.364,169.203,344.858,176.945z"/>
<path d="M322.179,52.82c-4.782,5.643-9.575,11.27-14.168,17.07c-2.532,3.199-6.063,6.894-8.645,10.856
	c-1.03,0.936-1.833,2.029-2.231,3.171c-0.672,1.929-1.183,3.591-1.132,5.657c-0.032,0.638,0.06,1.203,0.232,1.713
	c0.673,2.516,2.725,3.434,5.125,3.25c1.01,0.066,2.023-0.043,2.905-0.325c3.204-1.024,5.787-3.508,6.898-6.585
	c0.098-0.227,0.182-0.457,0.257-0.689c0.142-0.249,0.29-0.493,0.434-0.741c1.374,0.087,2.942-0.521,4.027-2.066
	c8.001-11.394,17.857-21.55,26.651-32.327c4.72-5.783,9.339-11.686,13.371-17.974c0.886-1.381,1.786-2.811,2.611-4.29
	c1.849-1.271,3.527-3.009,4.737-4.907c0.889-0.431,1.687-1.067,2.352-1.824c0.033-0.034,0.063-0.07,0.095-0.104
	c0.01-0.012,0.021-0.024,0.032-0.036c0.979-1.064,1.701-2.348,1.977-3.636c0.269-1.25,0.083-2.336-0.422-3.194
	c-0.493-0.998-1.387-1.759-2.752-1.968c-1.751-0.269-3.452-0.282-5.137-0.167c-0.424-0.009-0.847-0.019-1.271-0.028
	c-0.6-0.013-1.228,0.12-1.854,0.363c-1.775,0.24-3.556,0.535-5.383,0.741c-2.317,0.262-4.422,1.791-5.416,3.904
	c-0.533,1.133-0.628,2.704-0.093,3.878c-3.066,4.372-5.817,9.01-9.092,13.242C331.785,41.631,326.938,47.204,322.179,52.82z"/>
<path d="M316.691,301.457c0.657-1.276,1.145-2.575,1.417-3.844c2.361-11.021-9.672-14.971-17.813-9.949
	c-0.395,0.244-4.631,2.443-2.68,1.582c-2.281,1.007-4.531,1.989-6.716,3.19c-0.942,0.518-1.841,1.079-2.71,1.67
	c-0.142,0.069-0.282,0.139-0.424,0.208c-2.835,1.394-5.421,3.854-7.229,6.761c-7.128,7.364-13.368,15.592-19.267,23.946
	c-6.473,9.167-14.509,17.135-20.846,26.356c-15.27,15.984-28.672,34.226-42.252,51.655c-6.147,5.941-8.928,15.049-0.889,20.124
	c0.116,0.074,0.232,0.147,0.349,0.22c2.786,1.759,6.357,1.738,9.77,0.687c0.263,0.02,0.524,0.039,0.784,0.056
	c8.035,2.36,16.976,2.122,25.161,2.094c10.457-0.036,20.908-0.485,31.367-0.53c5.237-0.022,10.474-0.124,15.709-0.277
	c-0.026,4.301-0.081,8.601-0.193,12.901c-0.16,6.148-1.133,12.324-1.047,18.47c-3.929,5.381-4.268,13.139,3.4,15.542
	c8.345,2.614,18.085,1.654,26.75,2.041c10.571,0.472,25.116-19.213,12.384-25.819c0.353-8.384,0.403-16.803,0.3-25.234
	c0.865-0.018,1.73-0.034,2.594-0.034c5.241,0.003,9.906-3.204,12.981-7.422c2.427-2.171,4.568-4.711,6.388-7.507
	c2.603-3.997,4.745-8.704,2.898-13.522c-1.605-4.188-6.283-6.563-10.654-5.946c-5.02,0.71-10.001,1.646-14.982,2.576
	c-0.136-5.118-0.254-10.229-0.315-15.327c-0.149-12.365-0.554-24.738-1.025-37.095c-0.245-6.446-0.602-12.865-1.187-19.291
	c-0.291-3.187-1.302-7.091-2.525-10.06c-0.104-0.25-0.232-0.465-0.354-0.688c-0.116-1.041-0.244-2.081-0.369-3.116
	C316.003,304.463,316.419,302.994,316.691,301.457z M237.434,398.812c-1.503-0.037-3.009-0.081-4.517-0.13
	c1.678-2.277,3.35-4.56,5.093-6.792c7.517-9.625,15.437-18.462,22.087-28.767c1.504-2.33,3.308-4.467,5.103-6.573
	c0.578-0.656,1.169-1.3,1.76-1.944c0.114-0.109,2.349-2.511,2.255-2.411c4.194-4.481,8.12-9.059,11.867-13.91
	c-0.1,1.868-0.188,3.731-0.231,5.581c-0.178,7.765-0.029,15.497,0.147,23.26c0.013,0.545,0.013,1.116,0.005,1.704
	c-0.678,8.959-0.736,18.013-0.674,27.052c-4.207,0.175-8.41,0.351-12.59,0.624C257.625,397.168,247.501,397.642,237.434,398.812z"/>
</svg>
