<?xml version="1.0" encoding="utf-8"?>
<!-- Generator: Adobe Illustrator 17.0.0, SVG Export Plug-In . SVG Version: 6.00 Build 0)  -->
<!DOCTYPE svg PUBLIC "-//W3C//DTD SVG 1.0//EN" "http://www.w3.org/TR/2001/REC-SVG-20010904/DTD/svg10.dtd">
<svg version="1.0" id="Layer_1" xmlns="http://www.w3.org/2000/svg" xmlns:xlink="http://www.w3.org/1999/xlink" x="0px" y="0px"
	 width="566.93px" height="566.93px" viewBox="0 0 566.93 566.93" enable-background="new 0 0 566.93 566.93" xml:space="preserve">
<path d="M380.364,63.325c-6.983-5.607-14.765-9.918-22.982-12.855c-14.464-8.008-31.745-13.625-48.5-14.107
	c-5.4-0.814-10.908-1.156-16.23-0.762c-7.623,0.564-19.049,0.509-25.503,5.712c-0.524,0.21-1.075,0.591-1.484,1.044
	c-12.749-2.152-26.73,0.43-38.365,4.789c-17.214,6.449-32.313,18.785-44.282,32.513c-25.278,28.992-40.833,66.504-49.83,103.564
	c-5.783,23.82-8.761,48.5-12.032,72.758c-4.041,29.965-6.366,60.211-3.929,90.417c3.984,49.395,21.689,100.603,54.924,138.129
	c17.426,19.676,39.869,33.416,64.946,40.939c13.643,4.093,27.85,5.703,42.046,6.145c7.555,0.235,15.121-0.079,22.65-0.698
	c2.422-0.199,4.776-0.507,7.095-0.892c0.482,0.022,0.96,0.063,1.445,0.077c1.253,0.036,2.878-0.441,4.541-1.247
	c4.396-0.981,8.742-2.188,13.234-3.457c2.229-0.629,4.589-1.771,6.17-3.56c0.688,0.331,1.63,0.452,2.846,0.221
	c42.84-8.135,73.391-41.226,90.969-79.453c17.707-38.505,22.437-82.629,23.822-124.535c0.972-29.412-0.705-58.847-4.279-88.045
	c-4.21-34.396-11.196-68.693-23.614-101.125C414.645,104.409,401.057,79.942,380.364,63.325z M331.92,513.733
	c-6.592-1.355-13.22-1.155-19.86-0.638c-9.206-2.938-18.961-4.48-28.241-7.053c-10.302-2.857-20.359-6.616-29.958-11.327
	c-21.304-10.455-38.982-27.219-53.142-46.072c-29.634-39.455-38.186-90.792-38.571-138.965c-0.202-25.169,2.013-50.29,5.19-75.237
	c2.28-17.901,5.061-35.675,9.382-53.203c8.837-35.846,21.746-72.859,43.558-103.005c5.438-7.517,11.833-14.579,19.29-19.795
	c6.959-4.868,15.26-7.394,23.76-9.176c0.035-0.007,0.072-0.022,0.107-0.031c1.484,0.027,2.969,0.076,4.451,0.135
	c0.438,0.591,1.226,1.063,2.479,1.32c4.465,0.918,9,1.523,13.523,2.186c3.07,1.303,6.098,2.699,8.994,4.374
	c8.569,4.957,16.65,10.083,24.055,16.713c15.311,13.708,27.181,30.464,36.973,48.444c10.273,18.863,18.035,39.029,24.805,59.376
	c7.66,23.022,14.129,46.311,18.063,70.277c6.9,42.029,7.247,84.442,5.893,126.897c-0.636,19.97-1.935,40.072-7.468,59.368
	c-2.658,9.271-6.388,18.148-11.373,26.404c-2.419,4.006-5.408,7.613-7.898,11.563c-1.612,2.558-2.161,5.744-3.596,8.325
	c-0.332,0.451-0.663,0.901-0.992,1.363c-0.164,0.23-0.344,0.451-0.514,0.678c-0.053,0.054-0.101,0.111-0.156,0.164
	c-0.462,0.44-0.782,0.882-1.002,1.315c-3.125,3.778-6.973,7.059-10.766,10.073c-5.039,4.004-10.465,7.443-16.048,10.629
	c-3.13,1.786-6.478,3.379-9.549,5.342C332.875,513.985,332.409,513.834,331.92,513.733z"/>
</svg>
