<?xml version="1.0" encoding="utf-8"?>
<!-- Generator: Adobe Illustrator 17.0.0, SVG Export Plug-In . SVG Version: 6.00 Build 0)  -->
<!DOCTYPE svg PUBLIC "-//W3C//DTD SVG 1.0//EN" "http://www.w3.org/TR/2001/REC-SVG-20010904/DTD/svg10.dtd">
<svg version="1.0" id="Layer_1" xmlns="http://www.w3.org/2000/svg" xmlns:xlink="http://www.w3.org/1999/xlink" x="0px" y="0px"
	 width="566.93px" height="566.93px" viewBox="0 0 566.93 566.93" enable-background="new 0 0 566.93 566.93" xml:space="preserve">
<path d="M302.019,239.109c-5.057-0.749-9.918-2.012-14.894-2.935c-5.431-1.007-11.995-0.114-17.502,0.114
	c-10.934,0.453-21.623,2.442-32.191,5.248c-20.733,5.504-40.024,16.047-56.129,30.185c-39.667,34.82-60.187,94.455-51.604,146.22
	c4.396,26.52,15.808,50.804,36.177,68.65c18.515,16.222,40.931,26.543,64.216,33.926c46.326,14.688,100.282,14.429,143.264-10.334
	c23.035-13.271,41.169-34.945,52.198-58.931c11.091-24.118,14.018-50.098,10.746-76.221c-3.611-28.847-12.668-56.991-30.033-80.567
	c-16.324-22.164-41.496-33.615-66.773-42.364c-4.764-1.649-9.551-3.226-14.341-4.793c-12.3-4.025-26.383,18.569-11.109,23.566
	c23.349,7.64,47.923,15.94,65.192,34.279c18.698,19.856,27.823,47.976,32.007,74.39c1.9,11.993,3.069,23.943,1.581,36.051
	c-1.504,12.229-4.966,23.397-10.187,34.362c-4.869,10.226-12.145,20.282-19.448,27.44c-8.918,8.741-15.528,13.225-27.065,18.553
	c0.947-0.454-2.786,1.133-2.528,1.029c-1.352,0.545-2.722,1.043-4.091,1.542c-2.761,1.006-5.569,1.876-8.388,2.706
	c-5.989,1.761-11.333,2.872-17.203,3.789c-11.444,1.787-23.724,2.47-34.959,1.826c-22.284-1.276-44.778-7.166-65.288-15.849
	c-21.008-8.895-40.52-21.63-53.943-40.375c-15.429-21.545-20.438-51.84-17.606-77.751c2.324-21.268,9.535-41.738,20.155-60.244
	c1.157-2.016,4.045-6.392,6.31-9.542c2.485-3.456,5.183-6.756,7.991-9.952c0.387-0.436,0.779-0.864,1.172-1.294
	c-0.613,0.692,1.486-1.522,1.606-1.645c1.434-1.46,2.924-2.862,4.428-4.249c3.149-2.902,6.493-5.585,9.933-8.134
	c0.152-0.106,0.335-0.233,0.575-0.401c0.986-0.683,1.993-1.337,2.999-1.991c1.676-1.089,3.393-2.113,5.118-3.12
	c3.458-2.02,7.038-3.825,10.666-5.518c0.281-0.127,0.499-0.227,0.674-0.306c1.058-0.458,2.118-0.912,3.179-1.364
	c1.884-0.805,3.795-1.547,5.71-2.273c4.271-1.619,8.629-2.995,13.021-4.245c7.942-2.262,16.117-4.145,24.229-5.689
	c2.236-0.426,4.482-0.801,6.729-1.166c2.249-0.364,5.35-0.237,7.427-1.15c4.818-2.116,10.089-2.783,15.256-3.507
	C302.532,246.62,307.348,239.899,302.019,239.109z"/>
<path d="M456.819,413.581c4.191-8.695,4.154-19.052,3.602-28.48c-0.669-11.381-2.866-22.672-5.355-33.776
	c-4.842-21.599-12.059-42.17-23.784-61.046c-11.483-18.486-27.504-34.677-46.308-45.722c-7.629-4.481-15.844-8.285-24.313-11.025
	c0.324-0.508,0.604-1.033,0.818-1.544c0.583-1.2,0.854-2.465,0.813-3.796c-0.45-1.994-0.499-2.311-0.145-0.953
	c-0.125-2.5-0.89-5.032-1.427-7.465c-1.416-6.41-0.874-13.847-1.551-20.628c-0.213-2.135-1.436-3.391-3.46-3.943
	c-5.414-1.477-11.11-2.041-16.711-2.142c-0.065-0.001-0.137,0.013-0.205,0.018c-2.645-4.688-5.022-9.535-7.477-14.32
	c-7.688-14.993-15.194-30.075-22.711-45.154c-17.089-34.285-34.186-69.187-58.706-98.882c-4.07-4.929-8.931-10.444-11.654-16.257
	c-1.006-2.146-4.188-0.044-4.064,1.798c0.438,6.527,1.866,11.251,5.321,16.932c3.964,6.518,8.479,12.714,12.537,19.183
	c8.091,12.896,15.778,26.064,22.669,39.644c5.601,11.037,10.889,22.261,16.234,33.425c11.705,24.448,24.366,48.551,35.323,73.355
	c-6.111,1.018-12.659,0.828-18.783,1.118c-7.742,0.367-15.485,0.724-23.229,1.075c-7.098,0.321-14.196,0.617-21.294,0.928
	c-2.555,0.112-5.165,0.161-7.782,0.256c-0.519-1.22-1.456-2.273-2.5-3.337c-0.872-0.888-1.853-1.367-2.865-1.53
	c-0.985-1.148-1.852-2.448-2.688-3.544c-2.283-2.989-4.341-6.175-6.271-9.401c-4.417-7.386-8.233-15.128-12.145-22.788
	c-8.315-16.282-18.054-31.489-27.846-46.917c-10.886-17.152-21.273-34.763-33.388-51.086c-5.49-7.398-11.324-14.531-16.728-21.998
	c-2.598-3.59-5.047-7.291-7.357-11.072c-2.38-3.895-5.604-7.002-8.363-10.582c-0.563-0.729-1.709,0.292-1.681,0.965
	c0.394,9.42,3.25,16.317,8.099,24.37c5.074,8.429,10.721,16.485,16.273,24.601c11.855,17.328,22.248,35.648,33.097,53.619
	c9.792,16.218,19.114,32.263,27.334,49.33c2.172,4.51,4.437,8.983,6.822,13.389c-4.455-2.161-10.31-0.934-14.337,1.839
	c-5.161,3.554-7.438,8.862-9.055,14.717c-1.355,4.915-1.117,10.024-1.025,15.076c0.047,2.55,0.094,5.1,0.069,7.65
	c-0.022,2.264-0.89,3.976-0.486,6.184c-8.992,4.045-17.465,9.263-24.916,14.704c-19.726,14.404-35.372,33.35-47.255,54.597
	c-22.252,39.787-28.765,89.991-16.394,133.934c8.916,31.671,29.158,58.664,55.588,77.923c13.097,9.544,28.257,18.575,44.141,22.365
	c7.536,1.798,15.214,2.945,22.813,4.433c4.84,0.948,13.322,1.925,16.544,5.391c4.535,4.879,14.562-3.991,10.029-8.801
	c-5.318-5.644-15.297-6.704-22.483-8.065c-9.456-1.79-19.239-2.716-28.46-5.555c-10.835-3.334-21.531-9.871-30.991-15.988
	c-9.38-6.065-17.917-13.401-25.608-21.483c-30.646-32.205-41.387-77.326-35.803-120.68c4.187-32.497,17.104-63.043,38.004-88.324
	c10.419-12.604,22.851-23.499,36.947-31.806c14.344-8.453,29.949-12.554,45.876-16.796c1.231-0.329,2.8-3.154,0.723-3.374
	c-7.879-0.833-15.869,0.06-23.688,2.12c1.068-6.121-0.755-13.633-1.04-19.256c-0.171-3.359-0.111-5.944,1.36-9.588
	c0.769-1.901,6.724-2.198,9.073-3.25c1.04-0.466,2.326-1.92,2.888-3.434c0.918,1.605,1.848,3.205,2.813,4.782
	c2.122,3.468,4.444,7.409,7.167,10.874c-1.706,2.307-2.133,5.491,1.288,6.342c6.247,1.556,13.412,0.797,19.814,0.795
	c7.666-0.001,15.331,0.022,22.997,0.021c7.047-0.001,14.09-0.027,21.135-0.196c5.714-0.138,11.668-0.801,17.473-0.732
	c2.771,2.301,8.495,0.687,11.031-0.909c0.825-0.519,1.559-1.145,2.193-1.837c5.274,1.333,11.049-3.486,11.528-8.785
	c0.483,0.177,0.965,0.358,1.444,0.545c-0.573,5.676-1.132,11.587-0.555,17.128c0.215,2.073,0.578,4.133,0.847,6.2
	c0.049,0.372,0.073,0.746,0.11,1.119c-2.576-0.47-5.163-0.886-7.774-1.314c-2.557-0.419-5.133-0.676-7.723-0.778
	c-3.527-0.139-6.622,0.681-10.066,0.853c-0.473-0.004-0.946-0.007-1.42-0.011c-0.949-0.008-1.995,1.852-0.705,2.061
	c2.221,0.36,4.045,1.65,6.217,2.225c2.581,0.684,5.148,1.438,7.728,2.135c5.237,1.416,10.414,2.896,15.522,4.759
	c9.777,3.566,19.26,7.916,28.146,13.344c17.734,10.833,32.417,25.462,43.777,42.833c11.409,17.447,18.185,37.278,23.104,57.396
	c2.497,10.211,4.434,20.567,5.482,31.031c0.887,8.844,1.47,18.742-1.902,27.17c-1.395,3.486,0.081,5.306,2.309,5.682
	c-2.253,0.266-3.838,1.976-5.593,3.414c-1.937,1.589-2.759,4.821-0.78,6.291c-0.168,0.842-0.31,1.794-0.403,2.19
	c-0.596,2.531-1.114,5.08-1.703,7.613c-1.173,5.05-3.126,9.771-5.142,14.531c-3.489,8.237-7.529,16.235-12.09,23.93
	c-8.894,15.004-20.662,28.157-34.677,38.527c-15.53,11.491-34.151,18.215-52.768,22.731c-21.815,5.292-44.552,7.261-66.743,3.136
	c-2.948-0.548-6.262,4.385-2.613,5.542c21.836,6.925,46.071,5.021,68.186,0.318c20.698-4.402,40.991-12.432,58.239-24.786
	c15.791-11.31,28.662-26.017,38.754-42.555c5.173-8.478,9.62-17.334,13.537-26.457c2.21-5.146,4.162-10.309,5.529-15.746
	c0.635-2.525,1.161-5.079,1.745-7.617c0.56-2.428,1.952-4.952,1.6-7.46c-0.259-1.846-1.2-3.003-3.037-3.461
	c-0.175-0.044-0.345-0.074-0.513-0.102C453.221,417.287,455.687,415.927,456.819,413.581z"/>
<path d="M465.119,28.042c1.819-2.021,2.981-4.687,1.967-7.336c-1.433-3.736-6.111-3.451-9.003-1.81
	c-3.046,1.729-4.925,4.665-6.606,7.62c-0.164,0.288-0.287,0.565-0.4,0.84c-3.069,3.876-6.807,7.504-9.709,11.334
	c-4.369,5.765-8.431,11.762-12.416,17.796c-8.277,12.53-15.877,25.49-24.233,37.969c-9.482,14.16-19.97,27.785-30.192,41.417
	c-5.048,6.73-10.143,13.426-15.264,20.101c-5.14,6.699-11.515,13.316-15.02,21.059c-1.657,3.662,2.499,4.516,4.866,2.666
	c6.344-4.958,11.107-12.088,16.107-18.333c5.272-6.586,10.502-13.208,15.702-19.851c10.631-13.58,21.378-27.117,31.352-41.194
	c8.34-11.771,16.047-23.994,23.982-36.038c4.006-6.081,8.135-12.079,12.459-17.939c3.092-4.191,6.592-9.902,10.763-13.745
	C461.644,31.325,463.572,29.907,465.119,28.042z"/>
<path d="M321.563,52.907c-4.782,5.643-9.575,11.27-14.168,17.07c-2.532,3.199-6.063,6.894-8.645,10.856
	c-1.03,0.936-1.833,2.029-2.231,3.171c-0.673,1.929-1.183,3.591-1.132,5.657c-0.032,0.638,0.06,1.203,0.232,1.713
	c0.673,2.516,2.725,3.434,5.125,3.25c1.01,0.066,2.023-0.043,2.905-0.325c3.204-1.024,5.787-3.507,6.898-6.585
	c0.097-0.227,0.182-0.457,0.257-0.689c0.142-0.249,0.29-0.493,0.434-0.741c1.374,0.087,2.942-0.521,4.027-2.066
	c8.001-11.394,17.857-21.55,26.651-32.327c4.72-5.783,9.339-11.686,13.371-17.974c0.886-1.381,1.786-2.811,2.611-4.29
	c1.849-1.271,3.527-3.009,4.737-4.907c0.889-0.431,1.687-1.067,2.353-1.824c0.03-0.032,0.059-0.067,0.089-0.099
	c0.013-0.014,0.025-0.027,0.037-0.042c0.98-1.064,1.701-2.348,1.977-3.635c0.269-1.251,0.083-2.337-0.422-3.194
	c-0.493-0.998-1.387-1.759-2.752-1.968c-1.751-0.269-3.452-0.282-5.137-0.167c-0.423-0.009-0.847-0.019-1.271-0.028
	c-0.6-0.013-1.228,0.12-1.854,0.364c-1.775,0.24-3.556,0.535-5.383,0.741c-2.317,0.262-4.422,1.791-5.416,3.904
	c-0.533,1.133-0.628,2.704-0.093,3.878c-3.066,4.372-5.817,9.01-9.092,13.242C331.168,41.718,326.322,47.291,321.563,52.907z"/>
<path d="M326.236,352.52c15.83-16.545,25.87-48.027,7.162-66.521c-11.264-11.136-28.567-12.68-44.136-10.911
	c-8.952-0.626-17.93,0.526-26.557,3.388c-5.804,1.926-10.253,5.079-14.362,9.211c-6.736,3.688-12.638,8.785-14.926,16.379
	c-1.73,5.744,6.039,4.024,8.207,1.547c1.409-1.61,3.048-2.982,4.834-4.176c1.419,0.182,2.87,0.061,4.435-0.001
	c2.165-0.085,7.669,0.277,11.121-0.014c9.101-0.767,15.201-0.266,24.384,1.516c7.159,1.389,13.729,3.692,19.739,8.981
	c3.684,3.242,5.115,5.466,6.414,9.162c0.117,0.431,0.201,0.734,0.26,0.937c0.167,1.159,0.188,2.336,0.204,3.504
	c0.19-1.095,0.168-0.842-0.068,0.761c-0.269,2.026-0.601,3.99-0.299,6.028c0.088,0.595,0.219,1.16,0.377,1.703
	c-0.071,0.097-0.135,0.2-0.206,0.296c-0.078,0.108-2.049,2.411-1.833,2.272c-1.252,1.236-2.604,2.37-3.952,3.494
	c-0.729,0.595-1.472,1.17-2.22,1.74c0.995-0.804-2.544,1.678-2.471,1.632c-4.551,2.895-6.664,3.76-11.077,5.318
	c-3.841,1.356-7.819,2.451-11.736,3.566c-0.367,0.104-3.409,0.811-3.824,0.953c-0.586,0.09-1.171,0.182-1.761,0.238
	c-0.096,0.011-0.16,0.021-0.243,0.032c-0.075-0.019-0.14-0.036-0.235-0.057c-10.557-2.26-21.994,11.341-20.025,20.057
	c-0.675,3.558,0.224,7.354,3.719,9.25c4.54,2.463,10.424,2.938,15.363,4.41c5.37,1.599,10.952,2.36,16.339,3.914
	c4.156,1.2,9.016,3.656,13.085,6.255c4.249,2.715,7.315,8.029,12.607,9.935c0.84,0.303,1.71,0.511,2.595,0.634
	c1.108,2.081,2.196,4.173,3.246,6.285c1.705,3.431,3.367,7.233,4.065,10.992c0.185,0.991,0.335,1.964,0.478,2.922
	c-0.028,0.545-0.049,0.993-0.04,1.065c-0.205,1.595-0.509,3.176-0.861,4.745c-0.128,0.566-0.279,1.125-0.437,1.683
	c-0.135,0.429-0.301,0.943-0.404,1.204c-0.52,1.319-1.141,2.594-1.807,3.844c0.964-1.851-1.86,2.666-2.654,3.642
	c-0.07,0.087-0.16,0.191-0.256,0.301c-0.405,0.392-0.816,0.777-1.23,1.159c-0.565,0.521-2.478,1.973-3.135,2.505
	c-1.018,0.644-2.052,1.262-3.104,1.847c-0.811,0.451-1.643,0.862-2.474,1.272c-0.042,0.021-0.063,0.032-0.101,0.051
	c-0.179,0.07-0.39,0.154-0.641,0.254c-3.196,1.282-6.517,2.232-9.87,3.009c0.558-0.175-3.697,0.603-4.55,0.712
	c-0.243,0.031-0.488,0.045-0.731,0.074c-4.314-2.176-10.234-2.405-14.533-3.7c-5.34-1.61-10.35-4.393-15.33-6.852
	c-8.479-4.187-15.897-7.928-21.86-13.317c-6.26-5.657-15.263-1.865-19.862,4.127c-0.106,0.139-0.21,0.282-0.316,0.422
	c-6.534,2.785-11.999,9.36-11.12,16.077c1.489,11.382,14.446,17.615,24.058,21.864c8.565,3.787,17.744,6.382,27.007,7.717
	c19.28,2.779,38.755,0.149,56.354-8.198c17.505-8.303,30.902-24.815,34.749-43.831c4.299-21.255-2.594-46.087-19.907-59.656
	c-4.927-3.862-10.521-6.461-16.403-8.276C319.354,359.062,322.978,355.923,326.236,352.52z M317.833,445.346
	C317.349,445.868,317.045,446.172,317.833,445.346L317.833,445.346z"/>
</svg>
