<?xml version="1.0" encoding="utf-8"?>
<!-- Generator: Adobe Illustrator 17.0.0, SVG Export Plug-In . SVG Version: 6.00 Build 0)  -->
<!DOCTYPE svg PUBLIC "-//W3C//DTD SVG 1.0//EN" "http://www.w3.org/TR/2001/REC-SVG-20010904/DTD/svg10.dtd">
<svg version="1.0" id="Layer_1" xmlns="http://www.w3.org/2000/svg" xmlns:xlink="http://www.w3.org/1999/xlink" x="0px" y="0px"
	 width="566.93px" height="566.93px" viewBox="0 0 566.93 566.93" enable-background="new 0 0 566.93 566.93" xml:space="preserve">
<path d="M302.39,238.204c-5.057-0.749-9.918-2.012-14.894-2.935c-5.431-1.007-11.995-0.114-17.502,0.114
	c-10.934,0.452-21.623,2.442-32.191,5.248c-20.733,5.504-40.024,16.047-56.129,30.185c-39.667,34.82-60.187,94.455-51.604,146.22
	c4.396,26.519,15.809,50.804,36.177,68.65c18.515,16.222,40.931,26.543,64.216,33.926c46.326,14.688,100.282,14.429,143.264-10.334
	c23.035-13.271,41.169-34.945,52.198-58.931c11.091-24.118,14.018-50.098,10.746-76.221c-3.611-28.847-12.668-56.991-30.033-80.567
	c-16.324-22.164-41.496-33.615-66.773-42.364c-4.764-1.648-9.551-3.226-14.341-4.793c-12.3-4.024-26.383,18.569-11.109,23.566
	c23.349,7.64,47.923,15.94,65.192,34.278c18.698,19.856,27.823,47.976,32.007,74.39c1.9,11.993,3.069,23.943,1.581,36.051
	c-1.504,12.229-4.966,23.397-10.187,34.362c-4.869,10.226-12.145,20.282-19.448,27.44c-8.918,8.741-15.528,13.225-27.065,18.553
	c0.947-0.454-2.786,1.133-2.528,1.029c-1.352,0.545-2.722,1.043-4.091,1.542c-2.761,1.006-5.569,1.876-8.388,2.706
	c-5.989,1.761-11.333,2.872-17.203,3.789c-11.444,1.787-23.724,2.47-34.959,1.826c-22.284-1.276-44.778-7.166-65.287-15.849
	c-21.009-8.895-40.52-21.63-53.944-40.375c-15.429-21.545-20.438-51.839-17.606-77.75c2.324-21.268,9.535-41.738,20.155-60.245
	c1.157-2.016,4.045-6.392,6.31-9.542c2.485-3.456,5.183-6.756,7.991-9.952c0.387-0.436,0.78-0.865,1.173-1.295
	c-0.618,0.698,1.485-1.521,1.605-1.644c1.434-1.46,2.924-2.862,4.428-4.249c3.149-2.902,6.493-5.585,9.933-8.134
	c0.152-0.106,0.335-0.233,0.575-0.4c0.986-0.683,1.993-1.337,2.999-1.991c1.676-1.089,3.393-2.113,5.118-3.12
	c3.458-2.02,7.038-3.825,10.666-5.518c0.281-0.127,0.499-0.227,0.674-0.306c1.058-0.458,2.118-0.912,3.179-1.364
	c1.884-0.805,3.795-1.547,5.71-2.273c4.271-1.619,8.629-2.995,13.021-4.245c7.942-2.262,16.117-4.145,24.229-5.689
	c2.236-0.426,4.482-0.801,6.729-1.166c2.249-0.364,5.35-0.238,7.427-1.15c4.818-2.116,10.089-2.783,15.256-3.507
	C302.903,245.714,307.719,238.993,302.39,238.204z"/>
<path d="M457.19,412.675c4.191-8.695,4.154-19.052,3.602-28.48c-0.669-11.381-2.866-22.672-5.355-33.776
	c-4.842-21.598-12.059-42.17-23.784-61.046c-11.483-18.486-27.504-34.677-46.308-45.722c-7.629-4.481-15.844-8.285-24.313-11.025
	c0.324-0.508,0.604-1.033,0.818-1.544c0.583-1.2,0.854-2.465,0.813-3.796c-0.45-1.994-0.499-2.311-0.145-0.953
	c-0.125-2.5-0.89-5.032-1.427-7.465c-1.416-6.41-0.874-13.847-1.551-20.628c-0.213-2.135-1.436-3.391-3.46-3.943
	c-5.414-1.477-11.11-2.04-16.711-2.142c-0.065-0.001-0.137,0.013-0.205,0.018c-2.645-4.687-5.022-9.535-7.477-14.32
	c-7.688-14.993-15.194-30.075-22.711-45.154c-17.089-34.285-34.186-69.187-58.706-98.882c-4.07-4.929-8.931-10.444-11.654-16.257
	c-1.006-2.146-4.188-0.044-4.064,1.798c0.438,6.527,1.866,11.251,5.321,16.932c3.964,6.518,8.479,12.714,12.537,19.183
	c8.091,12.896,15.778,26.064,22.669,39.644c5.601,11.037,10.889,22.261,16.234,33.425c11.705,24.448,24.366,48.551,35.323,73.355
	c-6.111,1.018-12.659,0.828-18.783,1.118c-7.742,0.367-15.485,0.724-23.229,1.075c-7.098,0.321-14.196,0.617-21.294,0.928
	c-2.555,0.112-5.165,0.161-7.782,0.256c-0.519-1.221-1.456-2.273-2.5-3.337c-0.872-0.888-1.853-1.367-2.865-1.53
	c-0.985-1.148-1.852-2.448-2.688-3.544c-2.283-2.989-4.341-6.175-6.271-9.401c-4.417-7.386-8.233-15.128-12.145-22.788
	c-8.315-16.282-18.054-31.489-27.846-46.917c-10.886-17.152-21.273-34.763-33.388-51.086c-5.49-7.398-11.324-14.531-16.728-21.998
	c-2.598-3.59-5.047-7.291-7.357-11.072c-2.38-3.895-5.604-7.002-8.363-10.582c-0.563-0.729-1.709,0.292-1.681,0.965
	c0.394,9.42,3.25,16.316,8.099,24.37c5.074,8.429,10.721,16.485,16.273,24.601c11.855,17.328,22.248,35.648,33.097,53.619
	c9.792,16.218,19.114,32.263,27.334,49.33c2.172,4.51,4.437,8.983,6.822,13.389c-4.455-2.161-10.31-0.934-14.337,1.839
	c-5.161,3.554-7.438,8.862-9.055,14.717c-1.355,4.915-1.117,10.024-1.025,15.076c0.047,2.55,0.094,5.1,0.069,7.65
	c-0.022,2.264-0.89,3.976-0.486,6.184c-8.992,4.045-17.465,9.263-24.916,14.704c-19.726,14.404-35.372,33.35-47.255,54.597
	c-22.252,39.787-28.765,89.991-16.394,133.933c8.916,31.672,29.158,58.664,55.588,77.924c13.097,9.544,28.257,18.575,44.141,22.365
	c7.536,1.798,15.213,2.945,22.813,4.433c4.84,0.948,13.322,1.925,16.544,5.391c4.535,4.879,14.562-3.992,10.029-8.802
	c-5.318-5.644-15.297-6.704-22.483-8.064c-9.456-1.79-19.239-2.716-28.46-5.555c-10.835-3.335-21.53-9.872-30.991-15.989
	c-9.38-6.065-17.917-13.401-25.608-21.483c-30.646-32.205-41.387-77.326-35.803-120.68c4.187-32.497,17.104-63.043,38.004-88.324
	c10.419-12.604,22.851-23.499,36.947-31.806c14.344-8.453,29.949-12.554,45.876-16.796c1.231-0.329,2.8-3.154,0.723-3.374
	c-7.879-0.833-15.869,0.06-23.688,2.12c1.068-6.121-0.755-13.633-1.04-19.256c-0.171-3.359-0.111-5.944,1.36-9.588
	c0.768-1.901,6.724-2.198,9.073-3.25c1.04-0.466,2.326-1.92,2.888-3.434c0.918,1.605,1.848,3.205,2.813,4.782
	c2.122,3.468,4.444,7.409,7.167,10.874c-1.706,2.307-2.133,5.491,1.288,6.342c6.247,1.556,13.412,0.796,19.814,0.795
	c7.666-0.002,15.331,0.022,22.997,0.021c7.047-0.001,14.09-0.027,21.135-0.196c5.714-0.137,11.668-0.801,17.473-0.732
	c2.771,2.301,8.495,0.687,11.031-0.909c0.825-0.519,1.559-1.145,2.193-1.837c5.274,1.333,11.049-3.486,11.528-8.784
	c0.483,0.177,0.965,0.358,1.444,0.544c-0.573,5.676-1.132,11.587-0.555,17.128c0.215,2.073,0.578,4.133,0.847,6.2
	c0.049,0.372,0.073,0.746,0.11,1.119c-2.576-0.47-5.163-0.886-7.774-1.314c-2.557-0.419-5.133-0.676-7.723-0.778
	c-3.527-0.139-6.622,0.681-10.066,0.853c-0.473-0.004-0.946-0.007-1.42-0.011c-0.949-0.008-1.995,1.852-0.705,2.061
	c2.221,0.36,4.045,1.65,6.217,2.225c2.581,0.684,5.148,1.438,7.728,2.135c5.237,1.416,10.414,2.896,15.522,4.759
	c9.777,3.566,19.26,7.916,28.146,13.344c17.734,10.833,32.417,25.462,43.777,42.833c11.409,17.447,18.185,37.279,23.104,57.397
	c2.497,10.211,4.434,20.567,5.482,31.03c0.887,8.844,1.47,18.742-1.902,27.17c-1.395,3.486,0.081,5.306,2.308,5.682
	c-2.252,0.266-3.838,1.976-5.592,3.414c-1.937,1.589-2.759,4.822-0.779,6.291c-0.169,0.842-0.311,1.794-0.404,2.19
	c-0.596,2.531-1.114,5.08-1.703,7.613c-1.173,5.05-3.126,9.771-5.142,14.531c-3.489,8.237-7.529,16.235-12.09,23.93
	c-8.894,15.004-20.662,28.157-34.677,38.527c-15.53,11.491-34.151,18.215-52.768,22.731c-21.815,5.292-44.552,7.261-66.743,3.136
	c-2.948-0.548-6.262,4.385-2.613,5.542c21.836,6.926,46.071,5.021,68.186,0.318c20.698-4.401,40.991-12.432,58.239-24.785
	c15.791-11.31,28.662-26.017,38.754-42.555c5.173-8.478,9.62-17.334,13.537-26.457c2.21-5.146,4.162-10.309,5.529-15.746
	c0.635-2.525,1.161-5.079,1.745-7.617c0.56-2.428,1.952-4.952,1.6-7.46c-0.259-1.846-1.2-3.003-3.037-3.461
	c-0.175-0.044-0.344-0.074-0.512-0.102C453.592,416.381,456.059,415.022,457.19,412.675z"/>
<path d="M465.491,27.136c1.818-2.021,2.98-4.686,1.966-7.334c-1.433-3.736-6.111-3.451-9.003-1.81
	c-3.046,1.729-4.925,4.665-6.606,7.62c-0.164,0.288-0.287,0.565-0.4,0.84c-3.07,3.876-6.807,7.504-9.709,11.334
	c-4.369,5.765-8.431,11.762-12.416,17.796c-8.277,12.53-15.877,25.49-24.233,37.969c-9.482,14.16-19.97,27.785-30.192,41.417
	c-5.048,6.73-10.143,13.426-15.264,20.101c-5.14,6.699-11.515,13.316-15.02,21.059c-1.657,3.662,2.499,4.516,4.866,2.666
	c6.344-4.958,11.107-12.088,16.107-18.333c5.272-6.586,10.502-13.208,15.702-19.851c10.631-13.58,21.378-27.117,31.352-41.194
	c8.34-11.771,16.047-23.994,23.982-36.038c4.006-6.081,8.135-12.079,12.459-17.939c3.092-4.191,6.592-9.901,10.763-13.745
	C462.016,30.42,463.944,29.001,465.491,27.136z"/>
<path d="M321.934,52.002c-4.782,5.643-9.575,11.27-14.168,17.07c-2.532,3.199-6.063,6.894-8.645,10.856
	c-1.03,0.936-1.833,2.029-2.231,3.171c-0.673,1.929-1.183,3.591-1.132,5.657c-0.032,0.638,0.06,1.203,0.232,1.713
	c0.673,2.516,2.725,3.434,5.125,3.25c1.01,0.066,2.023-0.043,2.905-0.325c3.204-1.024,5.787-3.508,6.898-6.585
	c0.097-0.227,0.182-0.457,0.257-0.689c0.142-0.249,0.29-0.493,0.434-0.741c1.374,0.087,2.942-0.521,4.027-2.066
	c8.001-11.394,17.857-21.55,26.651-32.327c4.72-5.783,9.339-11.686,13.371-17.974c0.886-1.381,1.786-2.811,2.611-4.29
	c1.849-1.271,3.527-3.009,4.737-4.907c0.889-0.431,1.687-1.067,2.352-1.824c0.033-0.034,0.063-0.07,0.095-0.104
	c0.01-0.012,0.021-0.024,0.032-0.036c0.979-1.064,1.701-2.348,1.977-3.635c0.269-1.251,0.083-2.337-0.422-3.194
	c-0.493-0.998-1.387-1.759-2.752-1.968c-1.751-0.269-3.452-0.282-5.137-0.167c-0.424-0.009-0.847-0.019-1.271-0.028
	c-0.6-0.013-1.228,0.12-1.854,0.363c-1.775,0.24-3.556,0.535-5.383,0.741c-2.317,0.262-4.422,1.791-5.416,3.904
	c-0.533,1.133-0.628,2.704-0.093,3.878c-3.066,4.372-5.817,9.01-9.092,13.242C331.54,40.813,326.693,46.386,321.934,52.002z"/>
<path d="M214.312,444.593c-0.372,1.24-0.861,2.241-1.435,3.11c-0.119,0.066-0.23,0.143-0.353,0.206
	c-3.132,1.623-6.751,2.049-10.073,3.125c-2.797,0.906-5.457,5.673-1.474,6.875c2.039,0.615,4.125,1.032,6.237,1.315
	c1.566,0.942,3.31,0.972,5.063,0.436c1.18,0.048,2.364,0.064,3.55,0.057c4.376,0.346,8.879,0.074,13.077,0.003
	c9.078-0.155,18.163-0.314,27.241-0.331c1.054-0.002,2.108-0.279,3.109-0.744c2.619-0.145,5.231-0.386,7.829-0.797
	c3.529-0.558,7.011-4.284,4.809-7.812c-1.655-2.651-4.845-3.352-8.063-3.575c-1.163-1.146-2.934-1.468-4.763-1.246
	c0.054-0.069,0.106-0.138,0.16-0.207c-0.944,0.002-1.888,0.008-2.83,0.016c-0.398-0.4-0.785-0.816-1.169-1.233
	c-0.513-9.846-1.599-19.651-2.313-29.484c-0.861-11.852-1.086-23.772-1.275-35.65c-0.378-23.793-0.345-47.653,0.538-71.433
	c0.002-0.053-0.004-0.103-0.004-0.155c0.469-1.114,0.701-2.371,0.617-3.844c-0.217-3.824-3.908-4.768-7.046-3.956
	c-9.141,2.365-16.685,8.377-24.287,13.67c-0.97,0.675-6.911,4.968-11.249,9.212c-3.461,2.609-6.753,5.727-7.529,9.018
	c-0.632,0.891-1.119,1.816-1.36,2.737c-0.403,0.351-0.72,0.766-0.95,1.211c-1.218,1.524-0.886,2.937,0.146,3.753
	c0.708,0.878,2.031,1.223,3.946,0.323c0.491-0.23,0.973-0.473,1.447-0.726c2.681-0.84,5.613-2.964,7.373-3.792
	c1.107-0.521,2.535-1.12,3.887-1.319c0.06,2.838,0.124,5.672,0.022,8.514c-0.342,9.557-0.742,19.115-1.207,28.667
	c-0.631,12.953-1.153,25.846-0.864,38.817c0.241,10.775,0.589,21.522-0.081,32.257C214.832,442.623,214.603,443.625,214.312,444.593
	z"/>
<path d="M327.644,299.97c-8.613-2.147-17.313,0.713-24.614,5.816c-0.894,0.483-1.716,0.966-2.407,1.38
	c-5.45,3.264-9.714,8.05-13.301,13.221c-7.33,10.566-10.963,22.902-13.018,35.454c-1.381,8.44-1.149,17.049-0.768,25.558
	c0.373,8.292,0.36,16.604,1.982,24.77c1.487,7.49,3.968,14.729,7.49,21.506c1.786,3.435,4.011,7.331,6.933,10.248
	c1.183,2.016,2.538,3.966,4.114,5.837c5.124,6.082,11.818,10.247,19.579,11.934c6.405,1.393,14.52,1.535,21.213-0.223
	c6.381-0.518,13.133-4.091,18.475-7.059c6.76-3.756,12.764-9.371,16.997-15.834c10.954-16.721,10.148-36.306,9.061-55.381
	c-1.097-19.223-2.414-38.152-12.549-55.104c-6.883-11.512-21.49-24.206-36.034-21.09c-0.454,0.097-0.826,0.591-0.81,1.037
	c-0.606-0.016-1.219-0.024-1.832-0.023C328.664,301.248,328.733,300.241,327.644,299.97z M338.562,447.076
	c-0.506-1.375-1.812-2.369-3.498-2.085c-11.09,1.865-21.857-13.537-26.459-21.897c-7.291-13.243-10.366-28.585-11.918-43.473
	c-1.359-13.04-1.505-26.443,0.035-39.474c1.332-11.266,3.93-21.76,11.292-30.133c2.335-1.713,4.776-2.925,7.313-3.875
	c-0.169,0.273-0.243,0.633,0.089,0.816c7.883,4.329,16.49,7.185,24.047,12.2c0.954,1.027,1.927,2.039,2.884,3.074
	c6.532,9.063,10.378,20.862,13.059,30.624c3.128,11.394,4.845,23.387,5.845,35.165c0.105,2.261,0.216,4.522,0.309,6.784
	c0.067,1.665,0.005,3.359,0.107,5.021c-0.08,4.439-0.379,8.875-0.755,13.313c-0.226,2.66-0.806,5.827-1.111,8.992
	c-0.79,2.248-1.673,4.655-2.078,6.959c-0.491,1.237-0.97,2.498-1.397,3.772c-1.082,1.892-2.287,3.689-3.504,5.524
	c-0.998,1.065-2.379,2.258-3.662,3.54C345.781,443.875,342.068,445.314,338.562,447.076z"/>
</svg>
