<?xml version="1.0" encoding="UTF-8" standalone="no"?><!DOCTYPE svg PUBLIC "-//W3C//DTD SVG 1.1//EN" "http://www.w3.org/Graphics/SVG/1.1/DTD/svg11.dtd"><svg width="100%" height="100%" viewBox="0 0 431 551" version="1.1" xmlns="http://www.w3.org/2000/svg" xmlns:xlink="http://www.w3.org/1999/xlink" xml:space="preserve" style="fill-rule:evenodd;clip-rule:evenodd;stroke-linejoin:round;stroke-miterlimit:1.41421;"><g id="onion"><path d="M187.744,202.616c-1.505,5.142 -3.602,10.229 -7.436,14.076c-4.042,4.055 -10.124,6.46 -15.32,8.633c-12.678,5.302 -25.631,9.692 -38.602,14.201c-25.96,9.024 -50.787,19.472 -72.294,36.977c-36.101,29.382 -70.358,89.504 -43.675,134.967c16.542,28.185 47.994,45.387 77.379,57.248c14.856,5.996 30.366,11.227 46.15,14.098c22.057,4.012 44.306,4.72 66.123,10.304c7.958,2.036 16.818,-11.933 7.057,-14.971c-14.396,-4.48 -29.866,-5.403 -44.788,-6.998c-13.465,-1.438 -26.688,-3.403 -39.719,-7.151c-21.125,-6.076 -41.732,-14.565 -60.591,-25.901c-17.673,-10.624 -36.162,-25.643 -43.188,-45.764c-8.617,-24.683 0.664,-51.874 13.306,-73.352c8.838,-15.017 20.809,-28.001 34.578,-38.59c14.464,-11.122 31.425,-18.824 48.239,-25.646c17.255,-7.001 34.874,-13.183 51.753,-21.086c12.302,-5.76 25.889,-16.584 24.146,-31.675c-0.233,-2.03 -2.759,-0.599 -3.118,0.63Z" style="fill:#010101;fill-rule:nonzero;"/><path d="M231.825,201.667c-7.857,23.045 19.453,33.939 36.736,39.331c23.623,7.37 48.262,11.145 71.643,19.327c24.053,8.419 44.413,21.954 58.88,43.206c13.664,20.073 19.144,45.403 15.216,69.308c-2.984,18.166 -11.646,35.953 -24.462,49.224c-12.446,12.888 -28.437,21.503 -45.02,27.858c-17.158,6.578 -35.103,10.91 -52.924,15.254c-19.929,4.857 -40.413,12.468 -61.086,12.734c-8.629,0.111 -14.515,15.594 -3.311,15.449c13.841,-0.179 27.606,-3.96 40.907,-7.464c11.707,-3.084 23.463,-5.946 35.205,-8.892c22.954,-5.756 45.89,-12.474 66.709,-23.979c44.62,-24.656 69.408,-75.415 57.484,-125.543c-4.885,-20.54 -16.686,-39.496 -31.924,-53.955c-15.666,-14.863 -35.607,-23.271 -56.045,-29.292c-20.604,-6.07 -41.868,-9.452 -62.646,-14.822c-15.212,-3.932 -38.937,-9.616 -40.435,-28.741c-0.257,-3.306 -4.315,-0.798 -4.927,0.997Z" style="fill:#010101;fill-rule:nonzero;"/><path d="M189.948,199.288c1.719,-6.33 0.689,-12.863 -0.772,-19.145c-1.64,-7.044 -5.864,-12.671 -8.101,-19.388c-2.305,-6.923 -15.597,3.155 -8.602,7.548c4.639,2.912 7.696,9.093 9.935,13.893c2.664,5.714 3.06,11.682 4.143,17.778c0.379,2.139 3.008,0.742 3.397,-0.686Z" style="fill:#010101;fill-rule:nonzero;"/><path d="M175.464,162.312c4.624,3.424 8.556,7.736 13.021,11.349c3.766,3.048 9.956,7.752 10.43,12.971c0.567,6.257 11.292,1.072 8.84,-3.91c-6.275,-12.747 -18.639,-17.802 -31.392,-21.886c-0.738,-0.237 -1.593,0.962 -0.899,1.476Z" style="fill:#010101;fill-rule:nonzero;"/><path d="M207.108,189.084c2.791,-9.848 5.044,-18.72 11.092,-27.248c2.68,-3.78 5.804,-7.17 9.314,-10.185c3.363,-2.889 6.902,-4.585 9.699,-4.962c3.041,-0.41 5.887,-2.655 6.549,-5.747c0.728,-3.396 -2.484,-5.88 -5.684,-4.587c-1.334,0.54 -2.579,1.004 -3.697,1.952c1.589,-1.347 -1.281,0.513 -1.628,0.669c-2.605,1.173 -4.944,2.898 -7.206,4.619c-4.928,3.751 -9.156,8.693 -12.606,13.803c-5.547,8.215 -12.997,22.475 -8.725,32.617c0.647,1.534 2.603,0.091 2.892,-0.931Z" style="fill:#010101;fill-rule:nonzero;"/><path d="M239.09,141.476c-4.072,6.677 -7.566,13.492 -10.57,20.716c-3.18,7.646 -4.457,15.417 -6.527,23.336c-1.852,7.08 11.115,4.879 10.337,-2.088c-0.759,-6.794 2.013,-14.455 3.938,-20.886c2.05,-6.852 4.595,-13.435 5.835,-20.511c0.338,-1.933 -2.23,-1.848 -3.013,-0.567Z" style="fill:#010101;fill-rule:nonzero;"/><path d="M230.239,184.679c4.727,-6.054 11.846,-13.997 19.569,-16.1c-1.354,-1.542 -2.707,-3.085 -4.061,-4.627c-3.341,9.001 -6.437,18.248 -9.499,27.36c-1.575,4.688 -2.877,9.409 -3.743,14.281c-0.795,4.475 -1.885,9.677 1.296,13.407c1.628,1.909 4.288,-0.202 5.187,-1.7c2.577,-4.302 2.431,-9.179 3.266,-14c0.751,-4.34 2.027,-8.578 3.41,-12.752c2.811,-8.48 7.332,-17.246 8.143,-26.22c0.385,-4.253 -3.845,-4.504 -6.562,-2.339c-7.803,6.22 -18.585,11.246 -19.538,22.565c-0.13,1.54 2.037,0.758 2.532,0.125Z" style="fill:#010101;fill-rule:nonzero;"/><path d="M178.984,497.989c-0.617,0.67 -0.697,1.171 -0.241,1.503c-2.467,1.375 -5.105,7.006 -0.632,7.714c14.099,2.231 28.81,2.757 43.054,3.151c6.936,0.191 14.076,0.312 20.885,-1.218c4.854,-1.091 14.862,-8.139 8.007,-13.102c-2.385,-1.727 -5.779,0.699 -7.272,2.416c-1.617,1.859 4.303,-3.84 -0.066,-0.067c-0.454,0.392 1.428,-0.707 0.366,-0.333c-1.883,0.665 -3.921,0.849 -6.485,1.093c-6.798,0.647 -13.681,0.542 -20.5,0.407c-7.166,-0.143 -14.324,-0.521 -21.488,-0.747c-2.93,-0.092 -5.859,-0.188 -8.789,-0.253c-1.001,-0.023 -1.988,-0.021 -2.986,0.038c-2.174,0.128 -1.125,0.537 -1.67,-1.306c-0.363,-1.214 -2.002,-0.009 -2.183,0.704Z" style="fill:#010101;fill-rule:nonzero;"/><path d="M163.835,541.682c12.429,-3.254 24.582,-15.327 28.421,-27.491c0.364,-1.153 0.045,-2.745 -0.783,-3.636c-0.177,-0.19 -0.354,-0.381 -0.53,-0.57c-1.271,-1.367 -3.568,-1.246 -5.044,-0.27c-5.091,3.366 -5.786,9.616 -8.541,14.761c-3.113,5.815 -9.002,9.945 -14.252,13.692c-1.604,1.145 -2.055,4.244 0.729,3.514Z" style="fill:#010101;fill-rule:nonzero;"/><path d="M193.2,549.465c8.193,-9.092 15.138,-23.312 12.693,-35.9c-1.608,-8.284 -13.338,-1.721 -11.818,5.229c2.139,9.786 1.127,20.752 -2.73,30.026c-0.602,1.445 1.128,1.453 1.855,0.645Z" style="fill:#010101;fill-rule:nonzero;"/><path d="M228.3,543.217c-2,-5.356 -2.812,-11.465 -3.654,-17.1c-0.57,-3.821 -0.017,-11.134 -3.28,-13.812c-3.645,-2.991 -11.138,0.813 -10.176,5.847c0.823,4.31 4.232,8.537 5.935,12.674c2.229,5.414 4.382,10.16 8.936,13.99c0.947,0.8 2.68,-0.418 2.239,-1.599Z" style="fill:#010101;fill-rule:nonzero;"/><path d="M242.163,536.176c-0.308,-6.165 -2.625,-12.187 -3.078,-18.387c-0.222,-3.025 -3.089,-3.848 -5.631,-3.16c-0.992,0.268 -1.922,0.843 -2.672,1.535c-2.003,1.849 -3.381,4.848 -1.563,7.294c3.396,4.571 4.892,11.746 10.008,14.829c1.264,0.762 2.998,-0.837 2.936,-2.111Z" style="fill:#010101;fill-rule:nonzero;"/><path d="M252.286,522.214c0.033,-0.12 0.065,-0.239 0.098,-0.359c-0.218,0.462 -0.437,0.923 -0.654,1.385c0.37,-0.35 0.661,-0.76 0.873,-1.229c-0.192,0.407 0.775,-2.075 0.201,-0.791c0.296,-0.61 0.434,-1.253 0.413,-1.93c-0.02,-0.186 -0.091,-1.205 -0.183,-0.169c0.17,-1.91 -0.475,-4.402 -2.51,-5.136c-1.432,-0.516 -2.725,-0.44 -4.075,0.33c-1.31,0.747 -2.597,2.146 -2.843,3.689c-0.149,0.936 -0.233,1.889 0.116,2.802c0.23,0.601 0.712,1.175 1.132,1.664c0.295,0.314 0.623,0.592 0.986,0.831c-0.33,-0.334 -0.355,-0.35 -0.077,-0.049c0.581,0.646 1.106,0.872 1.925,1.128c-0.484,-0.267 -0.97,-0.532 -1.455,-0.799c0.64,0.63 1.169,1.012 2.074,1.212c-0.482,-0.387 -0.964,-0.773 -1.445,-1.16c0.038,0.097 0.077,0.193 0.115,0.29c0.443,1.116 1.719,1.336 2.754,1.006c1.264,-0.403 2.212,-1.45 2.555,-2.715Z" style="fill:#010101;fill-rule:nonzero;"/><path d="M192.053,246.387c-7.641,15.527 -12.271,32.148 -16.53,48.862c-4.442,17.431 -6.683,35.636 -7.288,53.592c-1.187,35.148 6.313,71.259 26.588,100.394c1.244,1.787 3.824,-0.932 3.465,-2.473c-1.854,-7.961 -7.316,-15.375 -10.675,-22.848c-3.622,-8.059 -6.389,-16.482 -8.592,-25.03c-4.346,-16.862 -5.726,-34.416 -5.36,-51.782c0.371,-17.641 3.139,-34.959 6.531,-52.23c3.219,-16.392 8.555,-32.242 12.491,-48.454c0.107,-0.439 -0.501,-0.293 -0.63,-0.031Z" style="fill:#010101;fill-rule:nonzero;"/><path d="M220.587,244.621c2.29,7.976 4.341,15.86 7.351,23.619c2.966,7.645 6.098,15.227 8.727,22.996c5.999,17.729 9.254,36.187 11.435,54.747c2.165,18.432 1.715,36.771 -3.739,54.6c-4.991,16.315 -14.357,30.97 -18.939,47.367c-0.648,2.318 2.528,1.316 3.23,0.151c8.921,-14.812 16.112,-31.493 21.326,-47.974c5.533,-17.49 5.858,-35.819 3.688,-53.903c-2.183,-18.184 -5.672,-36.614 -12.115,-53.788c-6.107,-16.274 -14.693,-31.789 -20.187,-48.257c-0.155,-0.46 -0.893,0.036 -0.777,0.442Z" style="fill:#010101;fill-rule:nonzero;"/><path d="M162.528,245.963c-18.42,8.217 -36.83,16.898 -54.432,26.76c-16.436,9.209 -32.068,20.251 -43.938,35.05c-25.542,31.843 -26.599,83.483 0.425,114.742c10.429,12.063 24.531,20.524 38.896,27.063c15.595,7.1 32.266,12.591 49.156,15.43c1.595,0.268 4.268,-2.689 2.179,-3.58c-19.704,-8.393 -40.55,-13.413 -59.405,-23.896c-18.666,-10.379 -33.576,-25.718 -40.104,-46.352c-6.583,-20.808 -5.266,-45.796 3.801,-65.647c8,-17.519 22.74,-30.853 38.357,-41.576c20.738,-14.239 44.02,-23.974 65.434,-37.032c0.65,-0.399 0.436,-1.32 -0.369,-0.962Z" style="fill:#010101;fill-rule:nonzero;"/><path d="M251.344,250.926c37.799,19.181 67.325,54.154 73.053,97.052c2.916,21.84 -1.698,44.252 -13.867,62.703c-14.287,21.665 -37.961,33.999 -62.044,41.621c-1.529,0.483 -2.675,3.581 -0.283,3.38c24.296,-2.033 47.416,-17.972 62.618,-36.37c14.176,-17.155 20.964,-39.62 20.732,-61.675c-0.449,-42.924 -28.591,-85.058 -67.141,-103.216c-4.021,-1.895 -8.275,-3.197 -12.57,-4.313c-0.381,-0.1 -0.947,0.59 -0.498,0.818Z" style="fill:#010101;fill-rule:nonzero;"/><path d="M321.938,264.127c19.09,9.345 40.436,18.699 52.382,37.138c10.959,16.915 15.437,37.317 13.296,57.298c-2.088,19.478 -10.832,38.109 -24.377,52.234c-16.721,17.436 -40.096,23.176 -59.881,35.933c-1.076,0.694 -1.242,3.047 0.48,2.319c22.742,-9.598 46.188,-17.055 63.688,-35.37c14.145,-14.803 23.141,-34.056 25.843,-54.313c2.686,-20.135 -1.568,-41.128 -12.305,-58.415c-6.233,-10.036 -14.115,-17.412 -24.332,-23.314c-10.898,-6.297 -22.781,-9.428 -34.33,-14.123c-0.331,-0.135 -0.843,0.428 -0.464,0.613Z" style="fill:#010101;fill-rule:nonzero;"/><path d="M165.776,68.198c0.959,8.777 1.217,17.61 2.244,26.397c0.996,8.528 2.09,17.038 3.39,25.524c1.248,8.154 2.798,16.254 4.562,24.311c0.951,4.346 2.041,8.653 3.209,12.945c1.029,3.787 1.579,8.328 4.567,11.053c1.188,1.084 3.306,-0.097 3.509,-1.573c0.455,-3.303 -0.424,-5.756 -1.392,-8.96c-1.29,-4.273 -2.43,-8.59 -3.566,-12.906c-2.304,-8.744 -4.148,-17.604 -5.858,-26.481c-1.613,-8.371 -3.014,-16.788 -4.408,-25.198c-1.422,-8.572 -3.506,-16.961 -5.076,-25.49c-0.14,-0.754 -1.248,-0.234 -1.181,0.378Z" style="fill:#010101;fill-rule:nonzero;"/><path d="M163.786,66.338c4.532,8.63 8.538,17.653 12.876,26.413c4.686,9.463 8.98,19.113 12.746,28.979c3.735,9.785 6.886,19.844 9.305,30.035c1.158,4.881 1.996,9.83 2.627,14.805c0.565,4.469 0.107,9.505 1.742,13.739c0.976,2.528 4.158,0.066 4.63,-1.492c2.504,-8.265 -0.646,-19.067 -2.434,-27.267c-2.336,-10.715 -5.918,-21.081 -10.062,-31.22c-4.191,-10.257 -9.044,-20.255 -14.303,-30.004c-2.33,-4.32 -4.662,-8.712 -7.295,-12.856c-2.657,-4.184 -5.895,-7.863 -8.743,-11.91c-0.352,-0.499 -1.353,0.276 -1.089,0.778Z" style="fill:#010101;fill-rule:nonzero;"/><path d="M207.701,2.062c-4.232,23.462 -7.755,46.957 -10.108,70.71c-1.099,11.096 -1.939,22.206 -2.551,33.34c-0.318,5.801 -0.552,11.606 -0.736,17.413c-0.189,5.936 -0.596,11.863 1.066,17.62c0.65,2.256 3.711,0.014 4.043,-1.303c2.714,-10.766 1.502,-22.809 1.944,-33.859c0.458,-11.468 1.186,-22.932 2.009,-34.378c1.676,-23.286 3.829,-46.56 5.678,-69.814c0.064,-0.813 -1.242,-0.306 -1.345,0.271Z" style="fill:#010101;fill-rule:nonzero;"/><path d="M207.526,1.278c2.549,14.238 5.658,28.33 7.773,42.65c1.746,11.828 3.207,23.689 4.962,35.515c1.803,12.144 3.557,24.322 4.208,36.591c0.305,5.746 0.295,11.537 -0.282,17.265c-0.492,4.891 -2.436,9.688 -2.521,14.575c-0.049,2.846 3.727,1.488 4.725,0.229c6.254,-7.888 5.273,-21.869 4.893,-31.307c-0.514,-12.729 -2.601,-25.37 -4.818,-37.894c-2.154,-12.168 -4.188,-24.355 -6.315,-36.529c-2.459,-14.066 -4.571,-28.931 -10.983,-41.822c-0.408,-0.816 -1.781,-0.045 -1.642,0.727Z" style="fill:#010101;fill-rule:nonzero;"/><path d="M228.026,7.438c1.135,23.146 6.185,46.156 8.464,69.255c1.2,12.156 1.747,24.351 1.25,36.56c-0.243,5.96 -0.902,11.883 -1.872,17.766c-0.91,5.529 -3.116,11.189 -3.058,16.81c0.026,2.536 3.575,1.642 4.474,0.218c5.638,-8.945 6.14,-21.525 6.844,-31.813c0.865,-12.629 0.02,-25.376 -1.406,-37.931c-2.729,-24.008 -7.475,-48.019 -12.016,-71.724c-0.331,-1.729 -2.748,-0.518 -2.68,0.859Z" style="fill:#010101;fill-rule:nonzero;"/><path d="M243.25,108.487c3.356,-4.543 6.414,-9.258 9.891,-13.727c2.862,-3.68 7.387,-7.193 8.485,-11.854c0.183,-0.778 -0.593,-1.388 -1.324,-1.068c-4.706,2.049 -7.771,6.996 -10.852,10.927c-3.476,4.433 -7.044,9.766 -8.24,15.337c-0.295,1.373 1.484,1.139 2.04,0.385Z" style="fill:#010101;fill-rule:nonzero;"/><path d="M259.683,85.064c-4.091,14.62 -4.544,30.062 -8.487,44.771c-2.118,7.898 -4.965,15.655 -8.433,23.057c-3.075,6.561 -8.675,12.403 -10.743,19.307c-0.569,1.897 1.776,2.562 3.075,1.718c6.271,-4.07 9.703,-11.992 12.835,-18.523c3.503,-7.304 6.104,-15.083 8.04,-22.938c3.675,-14.912 7.542,-32.282 5.093,-47.671c-0.141,-0.879 -1.221,-0.289 -1.38,0.279Z" style="fill:#010101;fill-rule:nonzero;"/><path d="M228.803,2.903c-2.551,6.24 -5.369,12.409 -8.203,18.514c-0.927,1.997 -1.569,4.131 -2.339,6.191c-0.303,0.811 -0.612,1.618 -0.93,2.422c-0.27,0.683 -2.069,2.523 -0.265,0.663c0.953,-0.313 1.906,-0.626 2.859,-0.938c1.746,0.355 0.816,0.096 -0.129,-0.637c-0.92,-0.712 -2.52,0.259 -3.053,1.015c-0.79,1.12 -1.805,3.262 -0.514,4.466c0.894,0.834 2.266,0.849 3.283,0.175c3.242,-2.146 3.452,-8.079 4.52,-11.552c2.068,-6.729 6.115,-13.176 5.96,-20.414c-0.014,-0.72 -1.017,-0.326 -1.189,0.095Z" style="fill:#010101;fill-rule:nonzero;"/><path d="M127.316,266.09c-18.788,5.275 -40.812,17.416 -44.897,38.343c-2.016,10.319 2.765,19.282 12.693,22.841c10.826,3.881 23.194,2.349 34.008,-0.77c11.024,-3.179 22.445,-9.16 29.293,-18.642c4.822,-6.677 6.123,-14.788 3.095,-22.493c-5.173,-13.163 -21.956,-23.203 -35.326,-15.459c-2.14,1.24 -4.517,6.145 -0.556,6.79c6.274,1.023 11.818,0.58 17.883,3.032c3.695,1.495 6.441,5.05 8.532,8.311c2.275,3.549 3.266,8.422 1.899,12.377c-3.222,9.332 -14.189,14.735 -23.15,17.814c-9.768,3.355 -22.043,5.357 -31.953,1.438c-11.52,-4.557 -10.903,-17.218 -5.229,-26.517c7.258,-11.895 21.178,-20.144 33.808,-25.229c1.02,-0.412 1.365,-2.246 -0.1,-1.836Z" style="fill:#010101;fill-rule:nonzero;"/><path d="M181.208,243.923c-4.218,6.846 -10.557,11.95 -17.057,16.503c-4.576,3.205 -10.727,6.205 -13.899,10.979c-0.994,1.495 0.703,2.835 1.927,1.528c9.326,-9.955 22.907,-16.52 29.376,-28.891c0.125,-0.241 -0.232,-0.305 -0.347,-0.119Z" style="fill:#010101;fill-rule:nonzero;"/><path d="M108.331,326.815c-13.727,22.698 -11.344,50.585 1.399,73.07c6.489,11.449 15.427,21.334 25.431,29.809c10.079,8.538 22.535,17.54 35.574,20.652c1.256,0.299 2.858,-1.688 1.564,-2.57c-10.582,-7.211 -22.127,-12.357 -32.187,-20.484c-9.741,-7.869 -18.229,-17.295 -24.89,-27.899c-6.384,-10.163 -10.495,-21.821 -11.708,-33.757c-1.363,-13.422 1.997,-26.061 6.886,-38.434c0.65,-1.645 -1.429,-1.446 -2.069,-0.387Z" style="fill:#010101;fill-rule:nonzero;"/></g></svg>