<?xml version="1.0" encoding="utf-8"?>
<!-- Generator: Adobe Illustrator 17.0.0, SVG Export Plug-In . SVG Version: 6.00 Build 0)  -->
<!DOCTYPE svg PUBLIC "-//W3C//DTD SVG 1.0//EN" "http://www.w3.org/TR/2001/REC-SVG-20010904/DTD/svg10.dtd">
<svg version="1.0" id="Layer_1" xmlns="http://www.w3.org/2000/svg" xmlns:xlink="http://www.w3.org/1999/xlink" x="0px" y="0px"
	 width="566.93px" height="566.93px" viewBox="0 0 566.93 566.93" enable-background="new 0 0 566.93 566.93" xml:space="preserve">
<path d="M482.929,541.743c-0.147-2.298-2.099-3.847-3.955-4.87c-2.363-1.302-5.136-2.086-7.945-2.438
	c1.132-1.842,1.708-4.027,1.281-6.195c-0.524-2.663-2.212-4.716-4.431-5.635c0.542-2.183-0.298-4.479-2.551-4.239
	c-2.729-0.499-5.829,0.201-8.537,0.233c-0.088,0.001-0.175,0-0.263,0c-0.228-0.936-0.899-2.645-0.273-1.359
	c-0.271-0.557-0.352-1.317-0.462-1.903c-0.635-3.381-1.179-6.777-1.493-10.202c-0.604-6.581-1.3-13.204-1.506-19.812
	c-0.933-29.967,1.743-60.028,2.696-89.963c0.962-30.206-1.031-60.466-0.551-90.703c0.222-14.004,0.911-27.977-0.041-41.963
	c-0.803-11.8-2.414-24.55-0.604-36.458c2.406-2.974,2.584-7.133,3.282-10.766c0.807-4.205,2.515-7.535,4.8-11.021
	c9.645-3.123,5.443-18.039-1.146-23.13c-1.447-1.118-3.505-1.561-5.776-1.661c0.898-5.07,0.655-10.341,0.658-15.466
	c0.004-7.107,0.067-14.213,0.147-21.32c0.161-14.311,0.433-28.62,0.646-42.931c0.424-28.583,0.575-57.184-0.794-85.746
	c-0.14-2.925-3.09-2.677-5.149-1.152c-0.816-1.129-2.192-1.8-3.938-1.653c-12.85,1.084-26.086-0.134-38.989-0.263
	c-13.875-0.139-27.758,0.049-41.632,0.25c-27.657,0.4-55.313,0.951-82.97,1.415c-27.589,0.463-55.146,0.497-82.735-0.034
	c-13.741-0.264-27.481-0.599-41.222-0.886c-6.529-0.136-13.059-0.256-19.589-0.358c-7.179-0.112-14.643-0.605-21.729,0.661
	c-2.82,0.503-7.043,5.695-3.402,7.237c-2.059,0.002-5.111,2.121-5.267,4.473c-1.714,25.968-1.315,52.001-1.242,78.008
	c0.075,26.475-1.191,52.927-1.226,79.399c0,0.028,0.007,0.049,0.008,0.076c-1.782,0.475-3.233,2.198-3.766,3.886
	c-0.534,0.213-1.082,0.547-1.627,1.044c-2.692,2.45-6.209,6.411-4.427,10.358c0.206,0.457,0.47,0.866,0.779,1.234
	c-0.336,0.445-0.535,0.953-0.474,1.407c0.548,4.099,3.094,8.074,4.43,12.004c0.837,2.464,1.458,4.944,1.733,7.535
	c0.204,1.927,0.156,3.859,1.613,5.298c0.095,0.094,0.197,0.171,0.303,0.232c-1.366,8.842-0.448,18.363-0.028,27.038
	c0.646,13.381,0.375,26.745,0.434,40.135c0.118,26.591,1.868,53.168,1.477,79.752c-0.193,13.125-0.73,26.246-0.522,39.374
	c0.216,13.626,1.006,27.177,0.752,40.816c-0.241,12.954-0.883,25.898-1.205,38.85c-0.128,5.161-1.183,10.442-0.774,15.594
	c0.124,1.553,0.34,3.102,0.516,4.649c0.082,0.721,0.145,1.444,0.207,2.167c-0.53,0.82-0.834,1.73-0.774,2.612
	c-2.132-0.006-4.22,0.14-6.177,0.595c-0.644-0.04-1.366,0.184-2.007,0.775c-2.683,2.476-3.682,5.95-3.383,9.53
	c0.123,1.469,0.636,3.606,1.688,5.07c-0.1,0.029-0.195,0.058-0.277,0.084c-2.558,0.818-4.984,2.197-7.102,3.833
	c-2.024,1.564-3.508,4.204-3.524,6.765c-0.011,1.64,0.928,2.786,2.182,3.556c-0.605,0.864-0.74,1.858,0.403,2.469
	c5.154,2.752,11.899,2.729,17.607,3.13c6.987,0.491,14.02,0.454,21.019,0.684c5.882,0.193,11.688-0.099,17.53,0.467
	c3.491,0.338,7.966-1.487,7.939-5.507c0.483-0.45,0.908-0.904,1.234-1.322c2.467-3.163,2.725-7.499,0.893-10.996
	c-2.008-3.834-6.16-4.99-10.448-4.993c1.531-1.874,2.575-4.1,2.586-6.488c0.014-3.142-1.781-6.49-4.657-7.82
	c-0.325-2.047-2.007-3.496-4.974-1.734c-1.348,0.8-2.909,1.334-4.579,1.695c1.62-1.312,2.405-3.389,0.798-6.007
	c-1.676-2.729-0.546-8.012-0.488-11.143c0.098-5.301,0.219-10.602,0.314-15.903c0.196-10.814,0.321-21.621,0.172-32.436
	c-0.35-25.606,3.67-51.063,2.878-76.685c-0.811-26.205-0.479-52.232,0.125-78.443c0.578-25.13-1.295-50.109-0.067-75.234
	c0.946-2.21,1.727-4.53,2.78-6.661c2.603-5.268,6.602-9.014,10.581-13.175c4.356-0.609,8.667-1.47,12.881-2.936
	c3.883-1.351,8.267-3.595,9.933-7.609c2.038-4.911-1.979-8.5-5.713-10.975c-0.515-0.973-1.65-1.466-3.552-0.813
	c-3.357,1.154-6.816,1.957-10.339,2.527c0.447-0.974,0.644-1.958,0.483-2.857c-0.398-2.23-1.007-3.543-2.481-4.732
	c-9.959-14.627-11.706-33.02-4.176-49.172c8.636-18.525,27.09-29.098,45.704-35.31c21.715-7.247,45.415-7.731,66.31-17.489
	c8.296-3.875,15.407-9.659,21.064-16.819c5-6.328,9.325-16.346,6.113-24.326c-0.913-2.267-3.888-0.143-4.28,1.379
	c-1.231,4.789-1.867,9.434-4.038,13.942c-2.035,4.224-5.148,7.608-8.78,10.503c-8.419,6.708-18.008,10.41-28.343,13.103
	c-23.534,6.132-47.673,7.172-69.685,18.458c-16.972,8.703-31.541,23.672-37.975,41.786c-6.557,18.458-2.948,36.429,6.616,52.733
	c-8.35,0.27-16.817-0.079-24.994,0.135c0.412-0.608,0.667-1.283,0.667-1.977c0.035-25.813,1.267-51.605,1.231-77.419
	c-0.025-17.956-0.236-35.922,0.154-53.874c1.3-2.593,2.435-5.329,4.091-7.703c2.935-4.204,6.755-7.8,10.917-10.769
	c6.94-4.952,14.401-6.635,22.269-8.121c0.252,0.005,0.504,0.009,0.755,0.014c13.734,0.283,27.466,0.631,41.2,0.926
	c13.606,0.292,27.207,0.458,40.807,0.503c-4.725,8.158-10.942,15.396-17.503,22.137c-3.791,3.895-7.808,7.605-12.175,10.848
	c-1.729,1.283-3.598,2.452-5.623,3.2c-1.322,0.488-2.606,0.069-3.935,0.457c-0.511,0.149-1.213,0.807-1.089,1.409
	c0.046,0.22,0.108,0.415,0.186,0.588c0,0,0,0,0,0c-0.518,0.327-1.374,1.899-0.161,1.963c2.878,0.153,5.958-1.271,8.723-2.019
	c3.772-1.021,7.545-2.041,11.317-3.062c8.044-2.178,15.961-4.685,23.642-7.93c12.192-5.151,26.502-14.062,30.147-27.749
	c2.796-0.032,5.591-0.047,8.388-0.09c10.944-0.167,21.889-0.353,32.833-0.522c-3.674,12.897,9.999,22.775,20.234,27.117
	c13.074,5.546,27.28,6.875,41.043,9.776c0.934,0.197,1.914-0.683,2.229-1.553c0.488,0.194,0.971,0.334,1.44,0.389
	c1.235,0.143,3.329-1.558,2.162-2.833c-1.554-1.7-4.511-2.736-6.442-4.08c-3.651-2.541-7.015-5.485-10.188-8.595
	c-5.626-5.512-11.375-12.395-10.582-20.636c3.369-0.014,6.739-0.044,10.108-0.042c13.832,0.01,27.661,0.142,41.491,0.358
	c4.054,0.063,8.152,0.044,12.265,0.032c8.495,3.306,16.914,5.466,24.075,11.915c3.859,3.476,6.591,7.843,8.533,12.623
	c2.136,5.259,1.576,10.964,3.386,16.188c0.042,12.604-0.071,25.208-0.248,37.811c-0.191,13.666-0.447,27.331-0.626,40.997
	c-0.093,7.114-0.156,14.229-0.186,21.344c-0.023,5.733,0.476,11.782-0.501,17.463c-2.194,0.268-4.249,0.571-5.837,0.646
	c-6.198,0.295-12.401,0.448-18.604,0.609c18.187-32.654,14.263-77.57-21.01-97.243c-15.662-8.736-34.524-8.841-51.921-10.361
	c-15.423-1.347-33.76-2.845-46.194-13.149c-9.659-8.004-11.8-19.406-13.716-31.132c-0.429-2.624-4.113-1.123-4.382,0.885
	c-2.306,17.242,4.881,33.763,20.017,42.502c14.353,8.287,32.259,9.094,48.359,10.604c18.096,1.696,36.536,3.535,50.681,16.231
	c14.161,12.71,20.053,32.689,17.881,51.278c-1.271,10.875-5.569,21.04-12.273,29.637c-0.314,0.404-0.571,0.798-0.792,1.185
	c-0.84,0.035-1.681,0.057-2.521,0.097c-2.749,0.131-4.932,3.375-4.673,5.611c-0.968,0.502-1.803,1.334-2.205,2.505
	c-1.521,4.438-3.307,10.523,0.792,14.187c2.739,2.448,6.725,2.7,10.447,2.436c3.198,3.318,6.221,6.189,7.958,10.759
	c1.3,3.42,0.741,8.298,2.45,11.657c-1.476,6.952-1.024,14.439-0.784,21.402c0.381,11.071,0.809,21.993,0.593,33.074
	c-0.543,27.913,0.177,55.882,0.881,83.786c0.698,27.671,2.229,55.347,2.284,83.028c0.026,13.005,1.236,25.943,1.904,38.923
	c0.454,8.826,1.925,18.16-0.002,26.836c-1.344,1.3-2.272,3.092-2.156,4.567c-2.845,0.267-5.676,0.68-8.08,2.194
	c-0.163,0.102-0.349,0.274-0.512,0.475c-3.162,1.612-4.794,4.905-5.05,8.545c-0.082,1.162,0.273,2.431,0.902,3.524
	c-2.634,0.747-5.261,2.432-6.712,3.777c-2.055,1.905-3.396,4.404-4.119,7.084c-0.324,1.2-0.766,3.551,0.297,4.509
	c0.809,0.729,1.57,1.068,2.434,1.23c-0.01,0.521,0.235,1.008,0.892,1.364c3.904,2.113,8.989,1.508,13.256,1.287
	c5.891-0.305,11.716-0.775,17.62-0.734c13.407,0.093,26.975,0.442,40.368,0.003c3.733,0.043,6.489-5.245,4.272-7.385
	C482.331,545.139,483.042,543.508,482.929,541.743z M145.216,535.667c1.798,0.943,2.457,2.924,2.522,4.836
	c0.012,0.347-0.251,0.859-0.286,1.085c-0.127,0.03-0.269,0.063-0.432,0.102c-0.821,0.22-1.539,0.531-2.25,0.997
	c-0.57,0.373-1.135,0.881-1.587,1.463c-0.062-0.005-0.122-0.015-0.184-0.021c-1.905-0.19-3.814,0.056-5.717,0.158
	c-5.735,0.308-11.503,0.064-17.242,0.004c-4.792-0.05-9.578,0-14.37-0.15c-3.237-0.102-6.583-0.487-9.896-0.585
	c0.731-1.606,0.412-4.281-1.817-4.454c-0.37-0.028-0.73-0.079-1.094-0.136c0.396-0.499,0.789-0.912,1.03-1.13
	c1.206-1.091,2.855-1.741,4.428-2.278c0.255-0.087,0.557-0.178,0.875-0.279c0.348,0.017,0.758-0.041,1.238-0.194
	c6.014-1.92,13.741,0.172,19.851,0.819c5.303,0.561,13.562,1.976,17.928-2.048C140.624,534.206,143.034,534.522,145.216,535.667z
	 M136.611,520.656c0.671,0.028,1.264-0.077,1.788-0.271c0.513,0.848,0.928,1.745,1.039,2.866c0.165,1.668-0.594,2.688-1.701,3.452
	c-1.327-0.163-2.773,0.539-3.541,1.7c-0.074,0.112-0.149,0.225-0.223,0.337c-0.035,0.054-0.072,0.115-0.108,0.172
	c-0.238,0.114-0.444,0.208-0.579,0.23c-1.442,0.241-2.932,0.237-4.389,0.246c-3.681,0.02-7.373-0.388-11.039-0.678
	c-4.219-0.334-9.663-1.169-14.25-0.175c-0.015-0.551-0.202-1.112-0.642-1.66c-0.272-0.339-0.624-0.59-1-0.801
	c-0.075-0.042-0.123-0.066-0.162-0.083c-0.034-0.045-0.086-0.106-0.178-0.205c-0.505-0.537-0.765-1.22-1.026-1.896
	c-0.436-1.129-0.702-2.627-0.282-3.828c4.844,1.286,11.059,0.737,15.682,0.93C122.891,521.28,129.772,520.376,136.611,520.656z
	 M133.902,208.079c-2.851,4.066-7.956,11.638-6.156,16.756c0.227,0.645,0.72,0.978,1.3,1.09c-2.555,22.062,0.375,44.782-0.19,66.878
	c-0.669,26.168-2.207,52.412-0.621,78.579c1.547,25.523-2.489,51.03-2.567,76.548c-0.033,10.978,0.474,21.924,0.233,32.908
	c-0.118,5.4-0.275,10.799-0.418,16.198c-0.121,4.58,0.746,10.571-1.219,14.78c-0.908,1.945-0.652,3.255,0.192,4.028
	c-2.597,0.044-5.146-0.048-7.345-0.027c-0.918,0.009-1.865-0.019-2.828-0.062c0.103-0.16,0.2-0.323,0.287-0.491
	c1.326-2.562,0.305-5.626-0.319-8.232c-2.672-11.154-1.598-22.8-1.164-34.175c1.095-28.691,0.125-57.303,0.745-85.993
	c0.621-28.71-0.671-57.259-0.986-85.957c-0.154-14.063,0.116-28.158-0.391-42.213c-0.248-6.865-0.779-13.714-1.214-20.568
	c-0.403-6.343-0.009-12.788-0.718-19.099c0.357-2.761-0.504-5.803-1.393-8.533c-0.927-2.846-2.539-6.549-4.612-9.541
	c1.002,0.188,1.98,0.315,2.847,0.424c9.601,1.212,19.587,0.317,29.178-0.611c1.362-0.132,2.724-0.26,4.085-0.391
	C138.047,202.626,135.822,205.34,133.902,208.079z M160.645,185.036c1.268,0.85,2.381,1.733,3.307,2.967
	c-2.208,1.796-6.342,2.388-9.091,3.009c-5.646,1.275-11.368,1.546-17.097,2.101c-7,0.678-14.039,1.12-21.074,1.022
	c-3.498-0.049-7.077-0.301-10.45-1.28c-0.378-0.11-0.794-0.365-1.101-0.573c0.204-0.149,0.445-0.602,0.875-0.994
	c0.864-0.787,1.335-1.627,1.53-2.433C124.984,187.86,143.755,190.171,160.645,185.036z M128.385,27.363
	c-4.464,3.037-8.261,6.882-11.519,11.166c-0.363,0.477-0.749,0.991-1.143,1.529c0.2-6.154,0.476-12.307,0.882-18.455
	c0.063-0.958-0.229-1.549-0.711-1.879c5.903,1.213,12.078,0.89,18.082,1.037c2.291,0.056,4.582,0.097,6.873,0.14
	C136.286,22.581,131.974,24.921,128.385,27.363z M255.84,38.184c-5.952,5.039-13.254,8.5-20.476,11.287
	c-6.954,2.683-14.162,4.713-21.359,6.625c-2.735,0.727-5.487,1.392-8.236,2.067c5.251-3.737,10.628-8.756,11.38-9.502
	c4.929-4.898,9.53-10.161,13.789-15.648c2.276-2.933,5.531-6.65,6.708-10.442c9.9,0.024,19.803-0.035,29.707-0.142
	C264.515,28.575,261.131,33.706,255.84,38.184z M355.869,41.5c3.248,3.896,7.017,7.374,10.945,10.569
	c1.044,0.85,2.371,2.065,3.786,3.138c-11.625-2.051-23.294-3.703-34.556-7.413c-6.312-2.079-12.569-5.041-17.454-9.623
	c-5.111-4.795-5.602-10.102-6.615-16.399c12.117-0.185,24.234-0.322,36.353-0.383C345.21,28.126,351.87,36.701,355.869,41.5z
	 M461.28,197.292c-0.085,0.007-0.167,0.035-0.251,0.047c-0.006,0-0.01-0.002-0.015-0.003c-0.002,0-0.004,0-0.006,0
	C461.092,197.317,461.179,197.3,461.28,197.292z M441.344,30.837c-4.117-3.756-9.497-6.908-15.211-9.039
	c4.401,0.093,8.786,0.297,13.122,0.715c0.425,0.222,0.939,0.399,1.563,0.516c0.763,0.143,1.525,0.286,2.289,0.429
	c2.114,0.396,4.409-0.519,6.092-2.054c0.29,6.917,0.498,13.834,0.635,20.754C447.609,37.753,444.568,33.779,441.344,30.837z
	 M408.484,191.313c0.241-0.703,0.324-1.317,0.29-1.85c1.892-0.078,3.785-0.144,5.679-0.198c0.688,0.088,1.406,0.073,2.125-0.062
	c9.736-0.25,19.486-0.33,29.191-1.036c3.476-0.253,8.599-1.653,11.181,1.229c1.298,1.449,2.042,3.309,2.685,5.114
	c0.321,0.903,0.47,1.809,0.57,2.756c0,0.001,0,0.002,0,0.004c-11.255-0.913-23.289-1.663-34.43,0.022
	c-4.411,0.667-8.793,1.571-13.269,1.636C407.285,199.004,407,195.64,408.484,191.313z M429.063,226.914
	c2.344-7.479-1.92-16.739-8.525-21.27c4.734-0.647,9.346-1.275,14.251-1.275c7.032,0,14.027-0.032,21.038,0.458
	c-1.855,2.128-3.17,4.785-4.023,7.483c-1.049,3.317-3.073,9.093-1.86,12.992c-3.001,11.314-2.828,22.532-2.176,34.36
	c0.799,14.495,0.49,28.869,0.231,43.377c-0.276,15.521-0.381,31.046-0.096,46.568c0.282,15.369,1.097,30.67,0.74,46.048
	c-0.709,30.612-2.873,61.159-2.496,91.799c0.081,6.599,0.893,13.255,1.476,19.822c0.25,2.814,0.354,5.633,0.496,8.452
	c-0.938,0.676-1.678,1.709-1.882,2.757c-1.154,0.022-2.31,0.076-3.468,0.182c-2.502,0.228-4.999,0.538-7.493,0.86
	c0.08-0.487,0.082-0.978,0.011-1.457c1.075-8.522,0.667-16.821-0.216-25.405c-1.315-12.778-2.435-25.761-2.771-38.604
	c-0.725-27.704-0.572-55.452-1.169-83.166c-0.602-27.928-1.221-55.867-0.991-83.803c0.094-11.481,0.23-22.791-0.699-34.244
	C428.737,244.18,428.26,235.552,429.063,226.914z M424.79,526.349c4.916-0.105,9.815-0.625,14.718-0.953
	c8.048-0.539,16.023,0.92,23.965,0.872c0.148-0.001,0.29-0.012,0.431-0.025c1.084,0.755,1.952,1.732,2.176,3.165
	c0.068,0.435,0.069,0.845,0.002,1.273c-0.011,0.07-0.344,0.955-0.125,0.601c-0.061,0.098-0.132,0.186-0.201,0.262
	c-0.394,0.094-0.786,0.217-1.155,0.34c-0.544,0.181-1.075,0.468-1.564,0.825c-6.864-0.938-13.571-0.897-20.595-0.199
	c-6.69,0.665-13.616,1.371-20.3,2.611c0.06-0.192,0.109-0.391,0.144-0.599c0.178-1.074-0.039-2.42-1.166-2.93
	c-1.578-0.713-2.783-0.935-3.348-2.703c-0.261-0.82,0.138-2.096,0.678-3.103C420.345,526.655,422.532,526.397,424.79,526.349z
	 M441.542,546.77c-10.067,0.233-20.399,0.688-30.458,1.787c0.685-1.674,0.424-3.417-1.647-3.998c0.46-3.042,3.555-3.989,6.518-5.082
	c0.188,0.31,0.511,0.557,1.026,0.679c14.634,3.471,30.52-4.445,45.058,1.028c2.31,0.87,4.667-0.469,6.019-2.283
	c1.271,0.679,2.527,1.382,3.728,2.099c1.069,0.639,2.088,1.362,2.946,2.26c-0.867,0.662-1.369,1.475-1.576,2.305
	C462.64,545.614,452.024,546.526,441.542,546.77z"/>
<path d="M144.795,367.238c-4.593,0.097-7.764,8.122-1.767,8.246c45.458,0.943,91.025-0.853,136.491-1.063
	c45.239-0.209,90.462-1.846,135.698-1.874c4.779-0.01,8.032-8.554,1.832-8.549c-1.469,0.001-2.938,0.018-4.407,0.022
	c0.329-0.12,0.676-0.281,1.043-0.49c2.861-1.63,6.064-6.202,2.035-8.602c-4.353-2.593-9.881-4.248-14.853-5.047
	c-5.577-0.897-11.356-0.756-16.985-0.805c-7.476-0.064-14.958-0.377-22.434-0.53c-32.733-0.672-65.43-1.284-98.166-0.345
	c-23.374,0.671-46.691,2.371-70.063,2.97c-8.791,0.225-17.58,0.668-26.314,1.717c-6.691,0.803-14.307,1.89-20.171,5.455
	c-2.306,1.401-4.512,3.655-4.86,6.442c-0.476,3.805,4.713,2.352,5.311-0.431c0.722-3.361,10.885-4.156,13.402-4.521
	c7.995-1.158,16.077-1.563,24.141-1.881c19.21-0.757,38.408-1.56,57.621-2.361c30.677-1.279,61.332-1.363,92.027-0.924
	c14.665,0.21,29.354,0.368,44.006,1.034c5.976,0.272,11.941,0.063,17.901,0.713c2.82,0.308,5.617,0.901,8.232,2.011
	c1.162,0.493,2.366,0.882,3.526,1.387c0.29,0.126,0.554,0.355,0.782,0.583c-0.329,1.552,0.138,3.053,1.3,3.637
	c-42.929,0.188-85.846,1.685-128.779,1.873C235.847,366.105,190.28,366.274,144.795,367.238z"/>
<path d="M295.068,275.7c1.057-1.428,2.615-1.75,3.896-2.856c0.895-0.773,1.236-3.184-0.609-2.83
	c-3.196,0.613-5.463,4.193-7.063,6.825c-1.021,1.681-1.897,3.5-2.667,5.363c-0.829-0.427-1.704-0.756-2.566-0.977
	c-3.417-0.875-6.878,0.146-9.961,1.605c-5.336,2.526-11.705,9.217-9.515,15.648c1.08,3.17,4.763,4.52,7.797,4.786
	c2.353,0.207,4.708,0.119,7.04-0.247c1.698-0.266,3.472-0.572,5.221-0.981c8.968,6.595,25.542,1.222,29.261-9.127
	c2.385-6.635-2.045-12.052-8.453-13.841c-4.136-1.155-8.547-0.351-12.382,1.427c-1.269,0.588-2.737,1.428-4.058,2.469
	c0.472-0.897,0.914-1.811,1.354-2.715C293.14,278.654,294.011,277.127,295.068,275.7z"/>
<path d="M360.897,277.095c0.986-1.564,3.17-5.397,5.275-5.555c3.718-0.278,3.095-5.999-0.224-3.983
	c-2.879,1.749-4.992,3.991-6.887,6.769c-1.369,2.007-2.872,4.376-3.598,6.839c-2.281-0.959-5.022-1.282-7.1-1.123
	c-5.242,0.402-11.007,3.169-12.941,8.405c-1.985,5.375,1.131,10.215,6.317,12.131c4.327,1.599,9.317,0.252,13.494-1.268
	c0.149-0.054,0.304-0.116,0.454-0.171c7.278,9.377,26.47,3.313,31.95-5.892c8.345-14.015-20.367-20.712-29.755-10.632
	c-0.055-0.047-0.116-0.087-0.172-0.133C358.849,280.738,359.787,278.856,360.897,277.095z"/>
<path d="M263.798,314.456c-4.027-2.398-9.611-2.87-13.685-1.499c-6.447,2.17-12.588,8.975-11.095,16.122
	c1.47,7.037,9.306,7.882,15.043,6.563c2.617,4.511,12.078,2.717,16.047,1.863c6.518-1.403,12.721-4.114,17.269-9.091
	c4.711-5.157,2.297-11.21-2.803-14.685c-4.618-3.147-12.667-0.591-17.345,3.831c-0.314-0.445-0.661-0.864-1.044-1.253
	c0.307-0.489,0.614-0.975,0.936-1.438c0.468-0.671,1.661-2.512,2.483-3.028c0.391,0.067,0.812,0.027,1.104-0.095
	c0.036,0,0.078,0,0.134,0c1.418,0.011,3.077-2.028,2.036-3.308c-0.067-0.083-0.703-0.671-0.395-0.377
	c-0.783-0.747-1.966-0.587-2.801,0.008c-0.206,0.086-0.409,0.176-0.606,0.28c-0.507,0.258-0.989,0.671-1.427,1.036
	c-0.992,0.825-1.837,1.917-2.542,2.991C264.718,312.973,264.244,313.689,263.798,314.456z"/>
<path d="M329.42,304.769c-0.474,0.634-0.88,1.307-1.271,1.994c-1.071,1.884-1.895,4.019-2.324,6.199
	c-3.612-2.113-9.456-1.861-12.814-0.767c-6.382,2.079-14.229,8.167-14.225,15.54c0.003,7.724,7.24,10.298,13.699,10.545
	c3.083,0.118,7.105-0.429,10.599-1.841c9.344,5.763,23.039-1.586,27.603-11.238c2.584-5.464,1.251-11.996-4.852-14.182
	c-4.17-1.494-9.069-1.848-13.252-0.269c-0.998,0.377-2.744,1.413-4.339,2.746c0.454-1.076,0.941-2.14,1.43-3.189
	c0.542-1.165,1.248-2.884,2.332-3.786c0.199-0.022,0.378-0.048,0.47-0.057c1.397-0.128,4.188-3.169,1.905-4.026
	c-1.649-0.62-3.366,0.042-4.212,1.621C330.921,302.657,329.7,304.394,329.42,304.769z"/>
<path d="M398.102,301.842c4.171-0.222,3.087-6.573-0.239-4.266c-3.122,2.165-6.204,3.77-8.78,6.687
	c-1.744,1.976-3.383,4.255-4.336,6.761c-5.023-3.021-13.734-0.438-18.012,2.53c-5.05,3.505-10.81,9.614-8.225,16.3
	c1.95,5.044,8.125,6.528,12.931,6.575c2.401,0.023,5.022-0.64,7.394-1.83c3.725,3.954,8.792,5.922,14.744,4.975
	c7.027-1.118,13.784-5.766,16.683-12.368c3.12-7.105-0.627-14.08-7.058-17.634c-4.253-2.351-11.112-1.625-15.626,1.447
	c0.874-1.399,1.827-2.733,2.945-4.018C392.188,305.091,395.406,301.985,398.102,301.842z"/>
<path d="M155.628,489.049c0.712,7.296,1.45,14.57,1.416,21.91c-0.019,4.064-0.481,8.249,0.303,12.267
	c1.679,8.607,10.636,8.726,17.811,8.289c16.6-1.012,33.208-3.093,49.77-4.635c1.12-0.104,2.24-0.209,3.36-0.313
	c0.201,0.008,0.402-0.016,0.604-0.056c6.642-0.619,13.284-1.237,19.926-1.856c5.81-0.541,11.935-0.703,17.02-3.911
	c5.317-3.355,6.849-9.14,6.243-15.076c-0.893-8.736-3.324-17.281-4.239-26.068c-1.246-11.975-1.545-24.038-1.097-36.065
	c0.325-8.721,2.039-17.012,3.542-25.58c1.242-7.076,2.788-15.103,1.036-22.218c-1.629-6.616-7.066-9.724-13.26-11.409
	c-7.401-2.013-15.565-1.644-23.155-1.394c-8.363,0.275-16.989-0.329-25.162,1.681c-4.969,1.222-5.833,9.628,0.437,8.06
	c5.471-1.369,11.238-0.931,16.828-1.087c0.334-0.01,0.668-0.023,1.002-0.034c1.874,2.317,3.967,4.526,6.145,6.675
	c-5.159,6.036-11.609,11.241-17.395,16.491c-0.771,0.699-1.521,1.414-2.282,2.12c-5.757-4.456-11.644-8.745-17.386-13.22
	c-0.592-0.461-1.173-0.933-1.755-1.405c3.238-2.999,6.732-5.861,9.385-9.362c0.809-1.068-0.175-2.089-1.312-1.495
	c-3.958,2.07-7.655,5.03-11.176,8.262c-1.47-1.274-2.911-2.582-4.321-3.924c-0.91-0.866-1.865-2.104-2.914-3.184
	c5.748-0.153,11.574,0.035,17.014-1.863c1.272-0.444,2.279-2.931,0.238-2.85c-9.151,0.362-18.126-2.458-27.285-0.755
	c-9.862,1.833-15.359,9.088-16.835,18.658c-0.85,5.512-0.699,11.161-0.645,16.718c0.04,4.016-0.127,7.952-0.401,11.895
	c-0.667,0.96-1.102,2.152-0.609,3.232c0.059,0.128,0.117,0.256,0.176,0.385c0.041,0.09,0.091,0.16,0.136,0.242
	c-0.115,1.316-0.233,2.632-0.368,3.96C154.828,457.826,154.092,473.324,155.628,489.049z M165.644,425.541
	c0.036,0.034,0.071,0.067,0.107,0.101c-0.036,0.036-0.072,0.072-0.108,0.108C165.644,425.681,165.644,425.611,165.644,425.541z
	 M214.106,424.25c4.263,3.495,8.384,7.175,12.433,10.948c-5.23,4.971-10.32,10.086-15.185,15.425
	c-1.864,2.045-3.691,4.124-5.494,6.225c-3.994-4.19-7.998-8.37-12.063-12.49c2.806-2.883,5.644-5.749,8.483-8.636
	C206.14,431.793,210.091,427.992,214.106,424.25z M254.114,417.082c2.297,1.757,6.135,4.627,7.449,5.896
	c-0.586,2.75-1.18,5.45-1.64,8.041c-1.455,8.201-1.82,16.667-1.714,25.096c-8.437-6.458-16.001-13.989-23.649-21.423
	c2.919-2.6,5.916-5.087,9.01-7.368C246.211,425.377,254.026,421.337,254.114,417.082z M259.705,509.099
	c-4.174-3.261-8.381-6.308-12.283-9.914c-0.218-0.202-0.431-0.412-0.648-0.615c1.509-1.865,3.004-3.742,4.559-5.558
	c2.648-3.091,6.019-5.659,8.766-8.651c1.042,7.667,2.445,15.241,3.645,22.969c0.25,1.615,0.58,3.613,0.151,5.228
	C262.694,511.241,261.092,510.182,259.705,509.099z M165.052,498.726c-0.483-7.863-1.573-15.686-2.03-23.552
	c-0.169-2.922-0.201-5.834-0.143-8.74c1.369,1.663,2.863,3.225,4.417,4.733c-0.115,0.317-0.25,0.626-0.357,0.947
	c-0.537,1.597,1.37,1.667,2.434,1.011c1.788,1.636,3.62,3.223,5.424,4.798c2.68,2.339,5.386,4.648,8.061,6.992
	c-4.578,5.58-9.115,11.205-13.294,17.051C168.056,500.886,166.552,499.805,165.052,498.726z M186.543,488.196
	c2.392,2.175,4.732,4.405,6.972,6.743c2.028,2.116,4.019,4.266,6.003,6.417c-0.458,0.542-0.92,1.08-1.375,1.625
	c-2.508,3.007-5.061,5.977-7.599,8.958c-1.09,1.281-2.295,2.492-3.406,3.769c-4.886-4.46-10.221-8.446-15.61-12.331
	C177,498.865,181.899,493.632,186.543,488.196z M190.356,483.649c1.374-1.664,2.738-3.329,4.095-4.982
	c3.598-4.385,7.183-8.787,10.828-13.139c2.391,2.498,4.792,4.985,7.216,7.451c2.128,2.165,4.244,4.344,6.356,6.527
	c-2.185,2.123-4.302,4.315-6.28,6.646c-3.042,3.585-6.135,7.126-9.204,10.688c-1.786-1.979-3.563-3.942-5.354-5.849
	C195.59,488.411,193.008,485.992,190.356,483.649z M190.793,519.223c-0.375-0.383-0.775-0.741-1.157-1.117
	c4.038-2.705,7.62-6.97,10.557-10.222c0.885-0.979,1.752-1.973,2.625-2.963c4.844,5.21,9.769,10.307,15.247,14.804
	c-9.106,0.846-18.212,1.692-27.318,2.538C191.414,521.249,191.615,520.063,190.793,519.223z M223.376,516.474
	c-6.098-4.615-11.49-10.254-16.694-15.972c3.259-3.761,6.513-7.527,9.914-11.158c1.927-2.056,3.933-4.039,5.984-5.977
	c5.516,5.722,11.029,11.449,16.645,17.064c-3.244,3.666-6.738,7.169-10.108,10.705c-1.774,1.861-3.655,3.578-5.625,5.226
	C223.45,516.396,223.416,516.438,223.376,516.474z M227.418,478.925c7.495-6.736,15.249-13.226,21.783-20.856
	c0.195-0.228,0.358-0.453,0.494-0.674c2.1,1.967,4.216,3.912,6.36,5.817c0.708,0.629,1.548,0.787,2.368,0.642
	c0.093,2.311,0.206,4.611,0.33,6.895c0.181,3.36,0.496,6.674,0.886,9.966c-3.724,1.176-6.878,4.69-9.536,7.329
	c-2.343,2.326-4.491,4.859-6.618,7.4C237.99,490.096,232.729,484.479,227.418,478.925z M245.511,453.429
	c-0.408,0.181-0.81,0.432-1.186,0.773c-1.043,0.945-1.921,1.914-2.571,3.122c-5.36,6.543-11.837,12.006-18.105,17.694
	c-1.67-1.717-3.348-3.425-5.052-5.103c-3.1-3.054-6.129-6.177-9.143-9.315c3.191-3.708,6.449-7.356,9.827-10.896
	c3.527-3.697,7.174-7.431,10.953-11.026C235.359,443.559,240.404,448.539,245.511,453.429z M201.716,461.784
	c-3.968,4.781-7.857,9.629-11.759,14.455c-1.12,1.386-2.25,2.768-3.383,4.148c-2.045-1.726-4.111-3.428-6.167-5.134
	c-2.603-2.161-5.118-4.426-7.627-6.698c5.102-7.01,10.77-13.452,16.692-19.7C193.557,453.161,197.629,457.479,201.716,461.784z
	 M169.684,465.769c-2.151-1.94-4.319-3.86-6.545-5.707c0.519-8.666,1.602-17.291,2.165-25.957c1.427-1.611,2.861-3.217,4.305-4.814
	c5.515,5.185,11.063,10.339,16.311,15.822C179.681,451.422,173.663,458.148,169.684,465.769z M169.508,523.412
	c-3.391-0.521-4.046-2.813-4.243-5.882c-0.298-4.658,0.035-9.359-0.018-14.037c6.431,6.628,12.559,13.696,19.813,19.361
	C179.9,523.471,174.575,524.191,169.508,523.412z M238.575,517.819c-3.295,0.306-6.591,0.612-9.886,0.918
	c0.818-0.886,1.703-1.717,2.582-2.62c3.611-3.709,6.854-7.758,10.382-11.544c0.29-0.312,0.563-0.64,0.847-0.958
	c2.895,2.703,5.926,5.243,9.106,7.615c2.075,1.548,4.285,3.076,6.285,4.8c-1.795,0.255-3.636,0.331-5.382,0.493
	C247.865,516.957,243.22,517.388,238.575,517.819z M241.286,391.181c7.201,0.012,20.192,0.015,21.995,9.13
	c0.973,4.923,0.566,10.168-0.298,15.392c-5.128-3.835-9.751-8.425-14.461-12.704c-1.886-1.713-3.812-3.561-5.795-5.396
	c0.281-0.465,0.542-0.967,0.756-1.556c1.512-4.14-3.117-5.17-5.541-2.673c-0.867-0.718-1.748-1.413-2.642-2.078
	C237.294,391.23,239.289,391.178,241.286,391.181z M237.875,401.821c1.944,1.846,3.881,3.673,5.705,5.515
	c2.396,2.419,4.885,4.75,7.39,7.059c-0.346,0.041-0.688,0.121-1.048,0.251c-0.825,0.299-1.735,1.102-2.369,2.037
	c0.362-1.249,0.071,0.119-0.933,1.249c-0.993,1.116-2.351,2.013-3.513,2.943c-2.222,1.778-4.571,3.371-6.704,5.256
	c-1.863,1.646-3.702,3.319-5.532,5c-3.979-3.808-8.026-7.534-12.269-11.022c0.982-0.894,1.96-1.79,2.95-2.678
	C227.167,412.393,232.452,407.037,237.875,401.821z M210.05,421.012c-4.435,4.264-8.764,8.622-13.061,13.053
	c-2.147,2.215-4.42,4.447-6.724,6.718c-5.379-5.331-10.878-10.838-16.809-15.728c3.329-3.629,6.686-7.233,10.053-10.823
	c2.6-2.772,5.243-5.5,7.927-8.188C197.374,411.362,203.763,416.125,210.05,421.012z M165.668,408.163
	c0.17-5.574,0.852-11.467,6.663-13.686c2.485-0.949,5.064-1.425,7.687-1.682c0.52,3.656,4.91,7.673,8.295,10.566
	c-2.636,2.6-5.185,5.226-7.681,7.593c-3.785,3.589-7.474,7.279-11.159,10.972c-1.254-0.936-2.53-1.835-3.83-2.696
	C165.608,415.541,165.556,411.853,165.668,408.163z"/>
<path d="M290.651,499.361c-0.493,8.694-0.657,18.737,8.451,22.808c8.388,3.75,18.891,2.375,27.756,1.729
	c13.471-0.981,27.012-1.195,40.503-2.131c6.138-0.425,12.274-0.874,18.424-0.525c5.121,0.291,10.26,0.716,15.366,0.02
	c18.792-2.564,18.34-22.607,15.19-37.051c-1.952-8.952-5.353-17.559-7.026-26.571c-2.199-11.843-2.197-23.881-0.925-35.827
	c1.439-13.516,7.925-32.548-8.68-39.18c-9.051-3.615-19.862-3.16-29.397-2.623c-5.981,0.336-11.944,0.981-17.914,1.46
	c-5.313,0.427-12.215,1.664-17.266-0.421c-4.343-1.792-10.672,5.814-5.897,7.785c3.273,1.351,6.709,1.734,10.185,1.751
	c-0.142,0.136-0.283,0.28-0.423,0.441c-2.586,2.979-5.802,5.575-8.811,8.238c-3.718-3.859-7.572-7.556-11.716-10.842
	c-0.047-0.037-0.098-0.061-0.148-0.089c1.445-0.119,2.861-0.203,4.198-0.273c1.658-0.086,3.681-3.466,1.282-3.748
	c-8.476-0.994-17.365-1.603-24.61,3.729c-8.435,6.208-9.941,17.197-10.393,26.923c-0.75,16.145,1.254,32.294,2.509,48.362
	c0.503,6.434,1.103,12.959,0.691,19.411C291.645,488.286,290.967,493.808,290.651,499.361z M298.916,431.83
	c3.084-1.215,5.973-3.164,8.714-5.415c3.55,3.3,7.095,6.6,10.512,9.991c-1.568,1.963-3.122,3.939-4.677,5.91
	c-3.012,3.817-6.045,7.606-9.134,11.361c-1.412,1.718-3.096,3.307-4.651,4.979c-0.298-3.225-0.622-6.441-0.898-9.635
	c-0.724-8.353-1.417-16.703-1.695-25.085c-0.085-2.573-0.166-5.204-0.177-7.845c2.414,2.464,4.902,4.87,7.429,7.245
	c-2.37,2.065-4.742,4.203-6.488,6.743C297.265,430.932,297.665,432.322,298.916,431.83z M337.728,415.36
	c-2.239,2.164-4.476,4.336-6.721,6.508c-3.347,3.239-6.434,6.713-9.407,10.287c-3.15-3.177-6.338-6.439-9.619-9.618
	c2.497-2.372,4.877-4.815,7.176-6.955c3.345-3.113,6.667-6.249,10.013-9.36C332.023,409.279,334.901,412.311,337.728,415.36z
	 M363.832,398.915c4.676,4.194,10.061,7.828,14.705,11.685c1.008,0.837,2.013,1.685,3.011,2.543
	c-0.224,0.214-0.438,0.431-0.664,0.644c-6.495,6.138-13.096,12.161-19.67,18.212c-5.167-5.059-10.188-10.266-15.171-15.526
	c-0.324-0.342-0.645-0.688-0.968-1.032C351.066,409.668,357.292,404.031,363.832,398.915z M402.024,399.382
	c0.645,3.434,0.058,7.257-0.438,10.554c-0.656,4.37-1.216,8.747-1.674,13.136c-2.851-3.501-5.972-6.757-9.32-9.814
	c0.618-0.695,1.215-1.401,1.778-2.122C393.976,409.08,400.267,403.684,402.024,399.382z M380.015,495.624
	c-4.856-5.141-9.455-10.534-14.05-15.965c5.113-4.122,10.189-8.286,15.135-12.596c1.585-1.381,3.153-2.807,4.701-4.264
	c2.317,2.289,4.617,4.595,6.892,6.928c2.819,2.892,6.253,5.535,9.37,8.4c-1.053,0.986-2.049,1.965-2.985,2.718
	c-4.756,3.828-9.598,7.549-14.423,11.289C383.164,493.288,381.604,494.449,380.015,495.624z M359.266,514.07
	c-2.268,0.185-4.536,0.372-6.805,0.547c-1.239-1.654-2.999-2.952-4.421-4.477c-2.282-2.446-4.461-4.99-6.637-7.531
	c-0.505-0.59-1.004-1.186-1.507-1.779c2.436-2.024,4.854-4.049,7.269-6.032c4.663-3.827,9.386-7.59,14.101-11.365
	c3.316,4.084,6.62,8.18,10.036,12.176c1.114,1.304,2.255,2.625,3.418,3.949C368.977,503.895,363.312,508.575,359.266,514.07z
	 M299.495,490.904c0.417-4.898,1.043-9.803,1.107-14.724c0.049-3.829-0.137-7.681-0.42-11.534
	c4.969,4.125,9.376,9.005,13.589,14.021c-2.225,2.613-4.411,5.26-6.588,7.901c-2.575,3.123-5.356,6.028-8.111,8.961
	C299.21,493.942,299.369,492.387,299.495,490.904z M303.456,461.451c4.508-3.554,8.454-8.955,11.651-12.729
	c2.345-2.769,4.6-5.609,6.864-8.44c4.831,4.955,9.627,9.948,14.377,14.984c-5.4,5.112-10.729,10.293-15.804,15.752
	c-0.947,1.019-1.876,2.057-2.803,3.097C313.533,469.064,308.9,464.262,303.456,461.451z M323.523,476.588
	c5.313-5.968,11.064-11.514,16.909-16.968c2.839,3.044,5.664,6.1,8.461,9.178c3.027,3.333,5.931,6.773,8.792,10.25
	c-6.2,5.02-12.392,10.049-18.568,15.1c-0.957,0.783-1.922,1.557-2.888,2.329c-3.074-3.674-6.137-7.358-9.272-10.981
	c-1.763-2.037-3.552-4.316-5.407-6.661C322.206,478.086,322.859,477.333,323.523,476.588z M361.218,440.055
	c2.172,2.066,4.38,4.092,6.644,6.054c4.699,4.074,9.262,8.29,13.737,12.596c-4.849,4.609-9.862,9.003-15.155,13.263
	c-1.387,1.116-2.768,2.239-4.153,3.357c-3.273-3.852-6.583-7.689-10.03-11.43c-2.524-2.74-5.071-5.461-7.631-8.172
	c4.228-3.91,8.461-7.812,12.571-11.828C358.525,442.601,359.868,441.324,361.218,440.055z M398.917,467.035
	c-2.993-2.766-5.94-5.571-8.887-8.376c3.245-3.292,6.346-6.734,9.232-10.288c0.614,7.616,1.988,15.14,4.012,22.59
	C401.815,469.66,400.353,468.361,398.917,467.035z M398.754,432.757c-0.056,0.351-0.009,0.711,0.193,1.067
	c0.03,0.053,0.058,0.096,0.087,0.147c-0.089,1.813-0.134,3.621-0.133,5.423c-1.3,0.514-2.519,1.584-3.205,2.533
	c-0.502,0.694-0.737,1.643-0.495,2.384c-0.397,0.521-0.882,1.172-1.136,1.482c-1.187,1.446-2.441,2.846-3.734,4.198
	c-1.504,1.573-3.022,3.112-4.55,4.633c-3.979-3.766-7.99-7.499-12.141-11.103c-2.78-2.414-5.492-4.894-8.162-7.417
	c3.223-2.95,6.478-5.865,9.721-8.79c3.547-3.2,7.551-6.385,11.204-9.799C391.184,422.052,395.522,427.016,398.754,432.757z
	 M356.967,435.912c-2.58,2.39-5.15,4.789-7.703,7.208c-2.917,2.765-5.853,5.505-8.782,8.251
	c-4.959-5.181-9.977-10.307-15.048-15.368c2.521-3.068,5.109-6.079,7.91-8.915c2.588-2.622,5.214-5.268,7.886-7.903
	C346.355,424.852,351.549,430.5,356.967,435.912z M299.529,509.02c-0.639-2.415-0.824-5.039-0.791-7.697
	c4.114-1.941,7.629-5.576,10.627-8.752c2.838-3.007,5.557-6.119,8.265-9.24c1.948,2.372,3.879,4.729,5.834,7.005
	c2.767,3.221,5.475,6.492,8.184,9.762c-6.724,5.258-13.531,10.427-19.972,15.998c-0.027,0.023-0.046,0.049-0.072,0.073
	c-0.935-0.084-1.868-0.188-2.8-0.33C304.418,515.168,300.72,513.524,299.529,509.02z M319.349,516.366
	c5.566-3.539,10.857-7.605,16.018-11.805c0.538,0.643,1.073,1.288,1.614,1.929c2.159,2.557,4.357,5.08,6.609,7.556
	c0.313,0.344,0.631,0.72,0.953,1.104c-2.569,0.14-5.139,0.245-7.709,0.282C331.027,515.518,325.178,516.204,319.349,516.366z
	 M382.741,512.895c-4.854-0.044-9.709,0.174-14.564,0.498c3.779-2.785,7.411-5.907,11.009-8.918
	c2.978,3.153,6.123,6.194,9.466,8.904C386.318,513.139,384.239,512.908,382.741,512.895z M408.607,508.92
	c-1.08,3.038-4.17,4.345-7.931,4.798c-5.916-4.047-11.23-8.634-16.208-13.537c7.375-5.734,14.651-11.638,22.058-17.338
	c0.171,0.218,0.343,0.437,0.506,0.659C409.498,491.966,411.399,501.06,408.607,508.92z M399.992,394.621
	c-0.708,0.038-1.453,0.324-1.974,0.59c-0.055,0.028-0.11,0.056-0.166,0.084c-0.4,0.204-0.848,0.614-1.247,1.123
	c-0.068,0.049-0.127,0.087-0.209,0.154c-0.721,0.517-1.059,1.317-1.504,2.042c-0.987,1.606-2.534,3.038-3.768,4.458
	c-1.781,2.05-3.588,4.022-5.446,5.953c-0.536-0.44-1.063-0.887-1.607-1.32c-5.053-4.024-10.228-8.357-15.612-12.269
	c3.422-2.483,6.926-4.817,10.531-6.929c0.206-0.121,0.399-0.255,0.581-0.402C387.265,388.118,395.942,389.226,399.992,394.621z
	 M363.624,392.098c-1.498-0.976-3.012-1.908-4.547-2.775c3.027-0.268,6.055-0.516,9.086-0.718
	C366.63,389.747,365.117,390.913,363.624,392.098z M342.434,394.943c2.299-1.355,2.504-3.302,1.676-4.501
	c0.987-0.055,1.972-0.117,2.953-0.174c2.979-0.173,5.954-0.422,8.926-0.68c0.011,0.123,0.04,0.244,0.108,0.357
	c1.104,1.832,2.418,3.526,3.862,5.129c-6.345,5.267-12.399,10.862-18.378,16.58c-2.787-3.061-5.565-6.171-8.401-9.223
	C336.084,399.672,339.135,396.888,342.434,394.943z M316.91,388.462c-0.899,0.558-1.57,1.831-0.937,2.641
	c3.199,4.093,6.66,8.022,10.206,11.889c-2.847,2.705-5.695,5.41-8.539,8.118c-2.949,2.807-5.926,5.583-8.934,8.327
	c-3.713-3.439-7.566-6.695-11.634-9.535c0.209-3.458,0.647-6.881,1.527-10.168C300.812,391.46,309.116,389.253,316.91,388.462z"/>
<path d="M142.022,29.453c-6.421,1.542-10.661,6.335-13.428,12.088c-1.904,3.959-4.167,10.317-3.279,14.809
	c0.372,1.882,1.419,2.621,3.311,2.671c1.899,0.049,3.985-1.469,4.602-3.335c0.464-1,0.491-1.888,0.234-2.939
	c-0.15-0.614-0.04-2.212,0.082-3.164c0.513-4.028,2.075-8.057,4.635-11.211c2.717-3.349,9.818-3.192,13.626-3
	c4.755,0.241,10.861,1.506,13.419,5.989c2.267,3.972-0.576,7.933-3.581,10.433c-3.427,2.852-8.403,3.743-12.444,1.849
	c-2.602-1.219-4.212-3.939-2.45-6.521c1.468-2.153,4.193-2.341,6.552-1.928c0.208,1.02,0.432,2.035,0.652,3.056
	c0.409,1.893,3.2,0.031,3.419-1.102c0.285-1.464,0.596-2.915,0.827-4.388c0.115-0.733-0.013-1.754-0.828-2.079
	c-12.303-4.903-25.503,12.019-11.671,19.243c10.65,5.562,25.986-5.162,27.288-16.177C174.846,28.038,152.271,26.992,142.022,29.453z
	"/>
<path d="M424.181,32.319c-7.191,0.005-15.785,3.222-20.16,9.089c-3.815,5.117-1.462,11.058,3.191,14.514
	c4.336,3.221,12.253,3.038,15.391-1.92c2.072-3.273,3.254-6.646,0.698-9.992c-2.222-2.909-6.512-1.645-8.925,0.058
	c-1.314,0.927-1.702,3.627,0.607,2.928c5.07-1.536,5.448,4.925,1.386,5.417c-1.586,0.192-3.17-0.576-4.495-1.34
	c-2.554-1.474-4.996-5.248-2.525-7.837c4.223-4.427,14.454-6.267,18.686-1.029c2.963,3.667,1.963,9.597,0.214,13.53
	c-2.176,4.892-5.636,6.313-10.495,4.447c-4.088-1.57-10.417,5.34-5.712,7.54C435.347,78.618,448.946,32.3,424.181,32.319z"/>
<path d="M137.466,81.898c-0.074-1.395-1.246-2.109-2.542-2.05c-0.731,0.033-1.322,0.206-2.02,0.29
	c-0.004,0.001-0.04,0.146-0.253-0.064c-0.468-0.462-0.618-1.822-0.636-2.962c-0.04-2.554,1.181-5.323,0.655-7.549
	c-0.354-1.5-2.451-0.774-3.191-0.169c-2.885,2.358-3.618,7.718-3.65,11.187c-0.048,5.166,5.018,8.029,9.411,4.895
	C136.43,84.626,137.551,83.489,137.466,81.898z"/>
<path d="M146.759,74.104c0.037,0.009,0.069,0.021,0.105,0.03C146.915,74.133,146.895,74.125,146.759,74.104z"/>
<path d="M145.385,73.567c-1.286-1.696-0.898-4.624-1.521-6.586c-0.327-1.03-1.692-0.34-2.119,0.171
	c-2.961,3.549-3.845,13.483,2.875,13.21c2.026-0.083,4.307-2.095,4.195-4.204c-0.075-1.042-0.728-1.715-1.95-2.024
	c-0.129,0.002-0.723-0.046-1.031-0.07c-0.037-0.02-0.074-0.04-0.129-0.068C145.996,74.157,145.394,73.579,145.385,73.567z"/>
<path d="M157.43,65.892c0.063-0.016,0.116-0.016,0.175-0.025C157.908,65.778,158.015,65.746,157.43,65.892z"/>
<path d="M168.567,70.126c-0.17-0.907-0.548-1.403-1.458-1.66c-0.794-0.225-1.559-0.032-2.312,0.236
	c-0.95,0.424-1.136,0.504-0.558,0.243c-0.29,0.128-0.579,0.255-0.868,0.383c0.378-0.173,0.369-0.186-0.03-0.038
	c-0.668,0.22-1.373,0.292-2.213,0.17c-0.587-0.084-1.495-0.432-1.806-0.749c-0.323-0.329-0.128-1.521-0.628-2.358
	c-0.265-0.443-0.625-0.561-1.089-0.487c-0.356,0.104-0.984,0.285-1.096,0.349c-0.552,0.315-0.979,0.765-1.371,1.254
	c-0.77,0.962-0.996,1.988-1.093,3.178c-0.147,1.797,1.223,3.531,2.732,4.304c1.905,0.976,4.215,1.083,6.27,0.648
	C165.396,75.103,169.112,73.029,168.567,70.126z"/>
<path d="M173.926,66.049c3.037,1.75,7.978,0.871,9.382-2.57c0.592-1.451,0.291-2.935-1.356-3.383
	c-1.051-0.286-2.097,0.103-3.097,0.41c-0.625,0.192-1.362-0.044-1.978-0.165c-1.708-0.335-3.597-1.578-4.571-3.024
	c-0.827-1.228-2.77,0.507-2.704,1.554C169.796,61.971,171.142,64.445,173.926,66.049z"/>
<path d="M196.431,52.515c0.462-0.882,0.581-2.31-0.195-3.076c-2.632-2.602-4.634,1.508-6.817,1.812
	c-2.039,0.284-5.601-0.805-6.567-2.845c-0.649-1.371-2.749-0.043-2.634,1.165c0.18,1.899,0.167,3.172,1.392,4.789
	c1.072,1.415,2.667,2.208,4.314,2.741C189.943,58.4,194.53,56.141,196.431,52.515z"/>
<path d="M183.361,39.778c4.073,4.977,13.23,6.529,18.19,2.139c1.237-1.095,2.313-3.29,1.021-4.763
	c-1.365-1.555-3.515-0.571-4.855,0.394c-3.101,2.231-9.001,0.144-12.374-0.368C184.14,36.999,182.391,38.593,183.361,39.778z"/>
<path d="M184.098,31.55c4.033,2.998,11.04,2.49,15.822,2.568c3.959,0.065,6.503-7.263,1.497-6.985
	c-5.197,0.29-10.636,0.497-15.782,1.169C184.229,28.486,182.585,30.426,184.098,31.55z"/>
<path d="M378.15,27.421c-2.234,0.439-4.406,2.775-4.399,5.138c0.007,2.194,1.858,3.328,3.732,3.89
	c4.837,1.452,13.087,0.204,15.698-4.498c0.854-1.537-0.149-3.57-2.029-3.32c-1.561,0.207-2.849,0.967-4.24,1.459
	c-1.606,0.569-3.298,0.846-4.991,0.989c-1.034,0.087-2.313,0.109-3.269-0.326c-0.354-0.161,0.495-1.209,0.581-2.098
	C379.297,28.013,378.943,27.266,378.15,27.421z"/>
<path d="M394.719,42.881c2.72-2.691,1.009-6.583-2.834-4.725c-2.371,1.146-4.449,2.461-7.014,3.214
	c-1.434,0.421-5.232,1.304-6.257-0.42c-0.813-1.367-2.885-0.112-2.806,1.241C376.333,51.139,390.633,46.923,394.719,42.881z"/>
<path d="M391.028,57.278c2.549-1.342,6.698-5.14,5.022-8.388c-0.497-0.963-1.688-0.753-2.392-0.127
	c-1.583,1.406-2.845,2.765-4.863,3.533c-2.271,0.865-4.784,0.883-6.857,2.268c-0.94,0.628-2.664,2.656-1.322,3.797
	C383.526,60.835,388.117,58.81,391.028,57.278z"/>
<path d="M396.869,57.526c-1.743,3.829-6.346,4.218-9.353,6.546c-1.148,0.889-1.88,3.738,0.25,3.967
	c2.979,0.319,5.919-1.638,8.13-3.442c2.143-1.75,3.331-4.277,3.829-6.938C400.095,55.683,397.438,56.274,396.869,57.526z"/>
<path d="M400.46,64.69c-0.299,1.008-0.77,2.354-1.205,3.032c-0.015-0.012-0.182,0.15-0.307,0.271
	c-0.124,0.076-0.44,0.292-0.478,0.313c-0.294,0.161-0.611,0.286-0.911,0.437c-0.373,0.14-0.706,0.349-1,0.627
	c-0.555,0.693-0.714,0.842-0.478,0.447c-1.349,1.045-1.513,3.119,0.235,3.719c2.608,0.896,5.746-1.473,7.144-3.835
	c1.185-2.002,1.235-4.39-0.261-6.238C402.302,62.355,400.733,63.775,400.46,64.69z"/>
<path d="M408.498,81.562c0.476,0.077,0.941,0.039,1.399-0.113c0.572-0.237,1.113-0.476,1.626-0.82
	c1.254-0.841,2.356-1.912,2.954-3.324c0.417-0.983,0.642-1.991,0.448-3.049c-0.086-0.473-0.146-0.949-0.249-1.421
	c-0.043-0.267-0.153-0.504-0.329-0.714c-0.044-0.059-0.688-0.842-0.432-0.372c-0.733-1.348-2.872-0.341-3.013,0.971
	c0.059-0.062,0.119-0.124,0.178-0.185c-0.185,0.239-0.32,0.503-0.406,0.791c-0.155,0.411-0.223,0.8-0.319,1.223
	c-0.115,0.509-0.423,0.816-0.633,1.103c-0.029,0.04-0.717,0.841-0.236,0.329c-0.203,0.217-0.405,0.434-0.607,0.65
	c0.226-0.247,0.188-0.228-0.114,0.059c-0.406,0.357-0.776,0.604-1.12,1.058c0.086-0.114-1.114,1.985-0.588,1.105
	c-0.623,1.041-0.078,2.215,1.015,2.532C407.684,81.304,407.826,81.363,408.498,81.562z"/>
<path d="M424.807,72.777c-1.397-0.953-3.138,1.006-3.174,2.282c-0.046,1.606,0.332,3.216,0.02,4.818
	c-0.259,1.331-1.286,2.07-2.096,3.104c-1.15,1.467-0.741,3.871,1.476,3.705C427.593,86.191,430.245,76.486,424.807,72.777z"/>
<path d="M434.394,73.777c-1.255-0.451-2.712,0.75-2.378,2.087c1.009,4.038,1.435,6.938-0.474,10.811
	c-0.553,1.122-1.687,2.861-0.961,4.118c0.584,1.011,2.027,0.979,2.938,0.394C438.564,87.946,441.831,76.446,434.394,73.777z"/>
<path d="M434.889,96.986c-0.757,1.302,0.5,2.235,1.704,1.942c11.448-2.788,16.882-18.737,7-26.309
	c-1.1-0.842-2.454,0.979-2.236,1.963c0.985,4.461,2.311,8.566,0.381,12.973C440.164,91.151,436.842,93.628,434.889,96.986z"/>
<path d="M119.997,176.806c0.921,0.205,1.796,0.011,2.586-0.391c0.159-0.021,0.319-0.043,0.477-0.093
	c1.13-0.361,1.924-1.287,2.655-2.167c0.168-0.203,0.331-0.411,0.496-0.616c0.043-0.054,0.088-0.107,0.132-0.16
	c0.503-0.393,0.929-0.873,1.223-1.498c0.36-0.765,0.596-2.168-0.178-2.811c-0.797-0.661-1.739-1.144-2.821-1.015
	c-1.324,0.158-2.344,0.716-3.397,1.492c-0.341,0.251-0.645,0.563-0.937,0.881c-1.095,0.716-1.961,1.752-2.247,3.084
	C117.654,175.057,118.427,176.458,119.997,176.806z M125.54,173.375c0.001-0.002,0.002-0.005,0.004-0.007
	C125.742,173.122,125.972,172.938,125.54,173.375z M124.649,174.099c-0.004,0.003-0.007,0.005-0.011,0.008
	c-0.16,0.07-0.284,0.124-0.38,0.166c-0.002,0.001-0.006,0.001-0.008,0.002C124.348,174.231,124.483,174.172,124.649,174.099z
	 M121.003,169.968C120.579,170.138,120.323,170.235,121.003,169.968L121.003,169.968z M121.424,169.803
	c0.028-0.011,0.05-0.02,0.079-0.031c-0.305,0.119-0.599,0.266-0.885,0.427C120.872,170.041,121.142,169.911,121.424,169.803z"/>
<path d="M117.771,159.648c0.284,1.144,1.543,1.383,2.513,1.43c0.627,0.676,1.598,1.108,2.555,1.354
	c1.012,0.26,2.196-0.316,2.932-0.962c0.861-0.756,1.255-1.664,1.335-2.782c0.021-0.291,0.042-0.582,0.062-0.873
	c0.005-0.071,0.01-0.142,0.015-0.212c0.002-0.023,0.005-0.047,0.007-0.068c0.009-0.078,0.01-0.158,0.015-0.237
	c0.001-0.019,0.002-0.038,0.004-0.058c-0.001,0.021-0.002,0.032-0.003,0.052c0.063-1.115-0.364-2.289-1.661-2.451
	c-0.783-0.098-1.568-0.188-2.35-0.297c-1.124-0.157-2.177-0.08-3.193,0.5C118.343,155.989,117.3,157.749,117.771,159.648z
	 M127.181,157.623C127.155,157.97,127.164,157.798,127.181,157.623L127.181,157.623z"/>
<path d="M117.778,141.478c-0.002,0.591,0.243,1.069,0.612,1.426c0.159,0.69,0.69,1.229,1.46,1.421
	c0.376,0.094,0.768,0.125,1.152,0.175c1.712,0.224,3.967-1.152,4.161-3c0.053-0.506,0.11-1.012,0.104-1.521
	c-0.005-0.363-0.273-1.879-0.139-0.808c-0.141-1.124-0.868-2.14-2.06-2.312c-0.025-0.004-0.05-0.003-0.075-0.006
	c-0.012-0.055-0.021-0.11-0.033-0.165c-0.13-0.565-0.899-0.626-1.335-0.487c-0.54,0.172-0.959,0.6-1.161,1.122
	C118.924,138.107,117.783,139.717,117.778,141.478z"/>
<path d="M121.436,126.793c0.27,0.194,0.592,0.337,0.986,0.397c1.634,0.249,3.635-0.876,4.217-2.458
	c0.063-0.17,0.13-0.339,0.189-0.51c0.301-0.667,0.398-1.407,0.192-2.17c-0.241-0.891-0.909-1.42-1.774-1.654
	c-1.523-0.412-2.99,0.747-3.919,1.778c-0.087,0.096-0.167,0.201-0.241,0.311c-0.556,0.582-0.952,1.321-1.163,2.154
	c-0.241,0.952,0.301,1.944,1.294,2.119C121.29,126.772,121.363,126.78,121.436,126.793z M124.544,123.521
	c0.009-0.017,0.009-0.02,0.013-0.029c0,0,0-0.001,0.001-0.001C124.466,123.846,124.466,123.682,124.544,123.521z M126.923,122.519
	c-0.001,0.014-0.002,0.027-0.004,0.042c-0.037-0.232-0.076-0.463-0.133-0.704C126.832,122.077,126.877,122.297,126.923,122.519z"/>
<path d="M129.637,113.285c0.096,0.004,0.192,0.007,0.287,0.01c0.882,0.024,1.886-0.575,2.518-1.129
	c0.426-0.374,0.742-0.792,0.992-1.253c0.173-0.243,0.33-0.49,0.444-0.734c0.472-1.004,0.469-2.044-0.187-2.953
	c-0.335-0.464-0.999-0.885-1.581-0.938c-0.923-0.083-1.767,0.12-2.514,0.529c-0.333,0.075-0.69,0.248-0.948,0.374
	c-0.304,0.149-0.566,0.37-0.836,0.571c-1.149,0.853-1.804,2.614-1.546,4.012c0.124,0.671,0.309,1.22,0.954,1.569
	C127.97,113.75,128.881,113.626,129.637,113.285z"/>
<path d="M140.536,97.728c0.538,0.838,1.478,1.081,2.422,1.01c0.283,0.057,0.567,0.103,0.864,0.125
	c1.117,0.083,2.088-0.215,2.943-0.966c0.352-0.309,0.608-0.651,0.815-1.014c0.279-0.333,0.517-0.709,0.706-1.084
	c0.036-0.071,0.101-0.236,0.167-0.414c0.316-0.644,0.491-1.371,0.591-2.067c0.113-0.791,0.084-1.561-0.473-2.197
	c-0.549-0.625-1.325-0.782-2.117-0.754c-2.54,0.088-4.953,1.337-6.145,3.646c-0.294,0.571-0.499,1.363-0.429,2.013
	C139.969,96.856,140.099,97.046,140.536,97.728z"/>
<path d="M164.553,85.213c-0.001,0.002-0.003,0.004-0.005,0.007C164.551,85.217,164.554,85.214,164.553,85.213z"/>
<path d="M165.85,79.586c-2.211-1.396-4.883-0.302-6.428,1.577c-0.291,0.354-0.488,0.702-0.65,1.065
	c-0.636,0.633-1.15,1.405-1.513,2.209c-0.391,0.866-0.502,1.955,0.173,2.724c0.658,0.75,1.861,0.847,2.807,0.505
	c0.743-0.018,1.521-0.239,2.159-0.543c0.834-0.398,1.588-1.089,2.149-1.903c-0.019,0.019-0.131,0.071-0.389,0.153
	c0.225-0.122,0.381-0.171,0.394-0.16c0.017-0.025,0.034-0.05,0.051-0.075C166.544,84.035,168.146,81.035,165.85,79.586z
	 M165.557,82.713C165.61,82.558,165.642,82.503,165.557,82.713L165.557,82.713z M163.309,81.303
	c-0.005-0.004-0.01-0.009-0.016-0.013C163.629,81.558,163.622,81.552,163.309,81.303z"/>
<path d="M178.42,76.55c0.745,0.288,1.563,0.449,2.391,0.494c0.689,0.266,1.537,0.065,2.234-0.066
	c0.377-0.071,0.754-0.183,1.124-0.315c0.733-0.207,1.35-0.576,1.86-1.063c0.203-0.182,0.382-0.382,0.542-0.599
	c0.706-0.926,1.148-2.097,1.368-3.288c0.232-1.259-0.334-2.756-1.784-2.92c-1.092-0.123-2.097,0.083-3.147,0.388
	c-0.382,0.111-0.762,0.228-1.145,0.336c-0.036,0.011-0.073,0.019-0.11,0.029c-0.006,0-0.013,0.002-0.02,0.002
	c-1.795,0.191-3.433,1.397-4.2,3.028C176.968,73.778,176.869,75.951,178.42,76.55z M183.074,76.813
	c0.008-0.002,0.016-0.005,0.023-0.007c0.099,0.007,0.193,0.022,0.296,0.021C183.287,76.823,183.18,76.818,183.074,76.813z
	 M181.848,69.532C182.313,69.426,182.094,69.492,181.848,69.532L181.848,69.532z"/>
<path d="M201.221,71.736c0.474-0.157,0.9-0.398,1.304-0.679c0.305-0.102,0.608-0.217,0.909-0.343
	c1.217-0.425,2.249-1.271,2.818-2.483c0.587-1.249,0.502-2.834-0.8-3.586c-0.859-0.496-1.771-0.558-2.67-0.401
	c-0.14-0.066-0.299-0.116-0.483-0.142c-1.129-0.155-1.965,0.433-2.822,1.05c-0.521,0.375-0.986,1.106-1.408,1.611
	c-0.502,0.6-0.948,1.632-1.124,2.383c-0.428,1.831,1.14,3.085,2.805,2.78c0.436,0.009,0.877-0.068,1.335-0.163
	C199.996,71.983,200.041,71.974,201.221,71.736z"/>
<path d="M215.519,66.209c0.096,0.343,0.278,0.656,0.497,0.95c0.452,0.606,1.431,0.858,2.143,0.764
	c0.396-0.052,0.75-0.13,1.095-0.251c0.348-0.093,0.667-0.238,0.963-0.422c0.368-0.022,0.726-0.083,1.022-0.157
	c0.002,0,0.003-0.001,0.005-0.001c1.399-0.35,3.054-1.919,3.209-3.412c0.022-0.208,0.047-0.415,0.071-0.623
	c0.128-0.555,0.098-1.1-0.091-1.635c-0.274-0.714-0.996-1.359-1.783-1.431c-1.182-0.108-2.333,0.028-3.398,0.51
	c-1.367,0.191-2.735,1.05-3.268,2.347c-0.209,0.51-0.331,0.999-0.414,1.499c-0.117,0.391-0.169,0.797-0.141,1.215
	c0,0.009-0.001,0.018-0.002,0.027C215.41,65.808,215.453,66.013,215.519,66.209z M221.433,66.225
	c0.009-0.009,0.019-0.019,0.027-0.028c-0.008,0.009-0.016,0.018-0.024,0.026C221.435,66.224,221.434,66.225,221.433,66.225z"/>
<path d="M236.092,57.906c-0.044,0.119-0.082,0.244-0.11,0.38c-0.036,0.18-0.077,0.358-0.116,0.537
	c-0.169,0.771-0.119,1.386,0.044,2.145c0.208,0.97,1.15,1.496,2.049,1.602c0.439,0.052,0.891,0.064,1.341,0.074
	c0.031,0.007,0.063,0.015,0.095,0.022c1.999,0.476,4.148-1.445,4.558-3.286c0.02-0.082,0.035-0.165,0.05-0.248
	c0.21-0.744,0.216-1.516-0.009-2.333c-0.178-0.645-0.726-1.281-1.323-1.577c-0.967-0.478-2.023-0.452-3.007-0.112
	c-0.919-0.268-1.812-0.018-2.553,0.633c-0.617,0.542-0.961,1.212-0.986,1.963c-0.007,0.025-0.013,0.042-0.021,0.069
	C236.1,57.819,236.096,57.863,236.092,57.906z M242.219,60.514c0.087-0.093,0.177-0.182,0.262-0.276
	c-0.002,0.003-0.004,0.007-0.006,0.01c-0.1,0.107-0.2,0.214-0.3,0.322C242.19,60.552,242.204,60.532,242.219,60.514z
	 M242.495,60.227c0.005-0.007,0.011-0.014,0.016-0.021c0.06-0.066,0.124-0.127,0.183-0.193
	C242.627,60.084,242.561,60.155,242.495,60.227z M242.877,59.586c-0.125,0.207-0.251,0.413-0.376,0.619
	c-0.081,0.087-0.163,0.174-0.244,0.261C242.489,60.186,242.698,59.892,242.877,59.586z"/>
<path d="M257.508,49.57c-0.938-1.069-2.369-1.071-3.641-0.613c-0.164-0.001-0.33,0.026-0.495,0.066
	c-0.423-0.076-0.882,0.004-1.282,0.116c-0.097,0.027-0.19,0.058-0.283,0.097c-0.053,0.022-0.105,0.047-0.158,0.07
	c-0.036,0.008-0.061,0.013-0.099,0.022c-1.945,0.622-3.153,2.511-3.593,4.404c-0.285,1.227,0.376,2.898,1.826,2.988
	c0.798,0.049,1.597,0.104,2.395,0.156c0.607,0.099,1.203,0.05,1.788-0.145c0.951-0.304,1.961-0.972,2.521-1.813
	c0.035-0.052,0.07-0.104,0.104-0.157c-0.004,0.004-0.007,0.008-0.011,0.012c0.187-0.212,0.371-0.428,0.542-0.656
	C258.062,52.863,258.674,50.9,257.508,49.57z M256.354,54.875c-0.041,0.023-0.083,0.047-0.124,0.071
	c0.127-0.105,0.249-0.219,0.371-0.335C256.518,54.698,256.436,54.787,256.354,54.875z M252.392,49.438
	c-0.03,0.018-0.059,0.035-0.087,0.053c0.032-0.022,0.056-0.039,0.076-0.054C252.384,49.437,252.388,49.438,252.392,49.438z
	 M253.114,49.055c-0.04,0.005-0.08,0.01-0.12,0.017c0.034-0.007,0.056-0.011,0.094-0.02
	C253.098,49.054,253.104,49.054,253.114,49.055z"/>
<path d="M267.266,40.452c-0.053,0.019-0.15,0.058-0.258,0.102c-0.391,0.031-0.78,0.119-1.158,0.25
	c-1.481,0.125-3.109,1.431-3.634,2.757c-0.236,0.597-0.452,1.174-0.386,1.832c0.096,0.962,0.501,1.462,1.237,2.033
	c0.51,0.395,1.693,0.512,2.284,0.426c2.317-0.339,4.718-2.328,4.583-4.87c-0.027-0.513-0.208-0.991-0.498-1.393
	C269.316,40.538,268.198,40.124,267.266,40.452z M268.003,44.008c0.014-0.01,0.027-0.021,0.041-0.03
	c-0.001,0.001-0.001,0.002-0.002,0.003C268.027,43.991,268.02,43.996,268.003,44.008z M265.716,40.974
	c0.003-0.001,0.007-0.001,0.011-0.002c-0.029,0.014-0.059,0.025-0.088,0.039C265.671,40.995,265.688,40.987,265.716,40.974z"/>
<path d="M273.829,32.798c0.167-0.782,0.058-1.64-0.486-2.26c-0.58-0.66-1.352-0.776-2.178-0.776c-1.87,0-3.709,1.84-4.082,3.582
	c-0.168,0.782-0.058,1.64,0.486,2.26c0.579,0.66,1.352,0.776,2.178,0.776C271.616,36.381,273.456,34.54,273.829,32.798z"/>
<path d="M303.197,29.243c-0.693-0.648-1.551-0.818-2.441-0.628c-0.122,0.02-0.241,0.043-0.358,0.075
	c-0.004,0.001-0.008,0.001-0.013,0.003c-0.002,0.001-0.005,0.002-0.008,0.004c-0.792,0.218-1.47,0.685-2.07,1.25
	c-1.148,0.868-2.034,2.2-2.229,3.525c-0.178,1.21,0.053,2.448,1.228,3.083c1.453,0.787,3.587,0.162,4.689-0.976
	c0.848-0.876,1.662-1.788,1.91-3.029c0.114-0.574,0.115-1.149-0.018-1.676C303.816,30.272,303.644,29.663,303.197,29.243z"/>
<path d="M307.821,41.064c-0.325-0.124-0.654-0.237-1.002-0.284c-1.484-0.202-2.663,0.268-3.817,1.19
	c-0.794,0.634-1.446,1.282-1.94,2.223c-0.75,1.428-0.972,3.724,0.756,4.571c1.029,0.504,2.196,0.452,3.249,0.062
	c0.035-0.01,0.071-0.013,0.105-0.024c0.521-0.167,0.963-0.44,1.358-0.772c0.807-0.507,1.478-1.186,1.854-2.07
	c0.713-0.779,1.26-1.723,1.202-2.825C309.527,42.036,308.818,41.354,307.821,41.064z M306.893,42.338
	c0.006,0.005,0.013,0.01,0.02,0.016c-0.009-0.002-0.017-0.006-0.026-0.007c-0.051-0.021-0.101-0.044-0.153-0.064
	C306.787,42.301,306.84,42.319,306.893,42.338z"/>
<path d="M317.16,50.782c-0.556-0.634-1.587-0.525-2.242-0.12c-0.03,0.02-0.062,0.035-0.093,0.054
	c-1.917,0.168-3.352,1.556-4.256,3.231c-0.808,0.997-1.396,2.178-1.178,3.416c0.174,0.985,0.684,1.929,1.806,2.058
	c1.478,0.17,2.715-0.315,3.794-1.101c0.968-0.484,1.803-1.361,2.299-2.293c0.867-1.137,1.161-3.006,0.177-4.128
	c-0.002-0.002-0.004-0.004-0.006-0.006C317.516,51.501,317.447,51.108,317.16,50.782z"/>
<path d="M326.368,63.54c0.802-0.118,1.52-0.311,2.209-0.751c1.346-0.859,2.554-2.312,2.516-3.94
	c0.148-1.482-1.126-2.736-2.651-2.542c-0.219,0.028-0.435,0.08-0.648,0.146c-0.52,0.12-1.023,0.322-1.438,0.529
	c-0.443,0.222-0.838,0.514-1.222,0.831c-0.972,0.802-1.706,2.127-1.637,3.412C323.575,62.688,324.911,63.753,326.368,63.54z"/>
<path d="M342.226,64.96c0.595,0.615,1.369,0.858,2.216,0.79c1.415-0.115,2.434-0.947,3.351-1.946
	c0.727-0.792,1.152-1.865,1.165-2.935c0.064-0.464,0.024-0.923-0.135-1.375c-0.298-0.777-0.989-1.292-1.795-1.441
	c-1.44-0.267-2.723,0.438-3.727,1.391c0.014-0.015,0.027-0.029,0.041-0.043c-0.018,0.017-0.032,0.035-0.049,0.052
	c-0.18,0.171-0.354,0.348-0.516,0.532c-0.011,0.012-0.021,0.026-0.032,0.039c0,0-0.001,0.001-0.001,0.002
	c-0.048,0.054-0.096,0.109-0.14,0.168c0.027-0.029,0.054-0.058,0.081-0.086c-0.504,0.615-0.857,1.284-1.07,2.121
	C341.375,63.166,341.532,64.244,342.226,64.96z M348.926,60.312c0.013,0.061,0.025,0.123,0.038,0.184
	c-0.004,0.047-0.008,0.094-0.012,0.142C348.947,60.528,348.94,60.42,348.926,60.312z"/>
<path d="M361.048,66.272c1.546-0.882,3.029-2.924,2.316-4.782c-0.65-1.696-2.891-1.827-4.268-1.032
	c-1.458,0.841-2.799,2.312-2.704,4.115c0.044,0.824,0.467,1.58,1.203,1.979C358.678,67.138,360.034,66.851,361.048,66.272z"/>
<path d="M370.926,67.034c0.056,1.054,0.82,1.784,1.828,1.984c1.017,0.202,2.098-0.276,2.849-0.935
	c0.694-0.609,1.45-1.712,1.297-2.703c-0.126-0.814-0.323-1.287-1.014-1.768c-0.211-0.16-0.454-0.257-0.73-0.29
	c-0.138-0.006-0.276-0.013-0.415-0.019c-1.384-0.193-2.913,0.899-3.44,2.119c-0.104,0.238-0.19,0.483-0.257,0.735
	c0.063-0.183,0.125-0.365,0.188-0.548C371.013,66.061,370.911,66.535,370.926,67.034z"/>
<path d="M387.035,69.752c-0.644,0.196-1.212,0.708-1.497,1.313c-0.258,0.549-0.312,1.576,0.412,1.843
	c0.328,0.121,0.657,0.279,1.004,0.317c0.983,0.107,1.931-0.291,2.535-1.087c0.199-0.262,0.368-0.593,0.438-0.918
	c0.212-0.988-0.632-1.855-1.586-1.757C387.89,69.51,387.465,69.621,387.035,69.752z"/>
<path d="M433.962,108.907c0.577-0.761,1.127-2.078,0.649-3.029c-0.059-0.117-0.117-0.233-0.176-0.349
	c-0.255-0.509-0.549-0.774-0.922-0.973c-1.147-0.992-3.1-0.182-3.955,1.088c-0.363,0.44-0.654,0.941-0.849,1.436
	c-0.29,0.736-0.483,1.494-0.186,2.269c0.376,0.98,1.393,1.412,2.387,1.332C432.116,110.582,433.241,109.857,433.962,108.907z"/>
<path d="M434.012,125.989c0.404,0.442,0.902,0.715,1.492,0.818c1.199,0.4,2.44-0.038,3.5-0.619
	c-0.255,0.113-0.511,0.226-0.766,0.339c1.318-0.571,2.431-1.357,3.064-2.703c0.538-1.144,0.526-2.475-0.308-3.366
	c0.001,0.001,0.003,0.002,0.004,0.003c-0.001-0.001-0.003-0.003-0.004-0.004c-0.155-0.166-0.329-0.322-0.544-0.452
	c-0.036-0.022-0.071-0.043-0.107-0.065c0.05,0.04,0.1,0.079,0.149,0.119c-0.65-0.465-1.333-0.717-2.246-0.58
	c-0.651,0.098-1.244,0.247-1.797,0.486c-0.03,0.009-0.057,0.008-0.086,0.018c-1.128,0.361-1.837,1.156-2.43,2.133
	c-0.151,0.25-0.065,0.097,0.258-0.46c-0.367,0.477-0.618,1.007-0.753,1.593c-0.095,0.359-0.111,0.792-0.038,1.189
	C433.431,125.022,433.634,125.54,434.012,125.989z M438.887,120.466c-0.154-0.129-0.312-0.231-0.473-0.32
	c0.025,0.001,0.05,0.002,0.075,0.004C438.621,120.255,438.754,120.36,438.887,120.466z"/>
<path d="M444.143,143.918c0.018-0.028,0.035-0.056,0.052-0.083c0.529-0.845,0.98-1.653,0.925-2.691
	c-0.041-0.774-0.472-1.743-1.249-2.055c-0.02-0.008-0.04-0.016-0.059-0.024c-0.313-0.217-0.649-0.385-1.062-0.451
	c-0.698-0.112-1.418-0.06-2.084,0.186c-1.176,0.433-2.185,1.241-2.727,2.393c-0.241,0.497-0.354,1.021-0.337,1.571
	c0.012,0.222,0.054,0.417,0.115,0.597c0,0.055-0.013,0.104-0.01,0.16c0.047,0.88,0.49,1.611,1.249,2.056
	c0.024,0.014,0.048,0.028,0.072,0.042C440.668,146.578,443.219,145.396,444.143,143.918z M438.247,144.193
	c-0.008-0.013-0.015-0.026-0.023-0.039c0.08,0.081,0.174,0.158,0.268,0.234C438.41,144.323,438.329,144.258,438.247,144.193z"/>
<path d="M443.221,160.952c0.43-0.916,0.617-2.015,0.245-2.986c-0.461-1.203-1.866-1.979-3.142-1.754
	c-0.282,0.05-0.561,0.093-0.84,0.139l0,0c-0.276,0.053-0.559,0.084-0.836,0.138c-1.006,0.027-1.934,0.392-2.719,1.081
	c-0.81,0.711-1.666,1.974-1.499,3.125c0.044,0.306,0.105,0.614,0.182,0.918c0.104,0.592,0.37,1.124,0.795,1.565
	c0.6,0.624,1.353,0.878,2.171,1.063C439.849,164.756,442.303,162.902,443.221,160.952z M438.905,156.485
	c0.023,0.001,0.047,0.002,0.07,0.003c-0.028-0.001-0.057,0-0.085,0C438.895,156.487,438.9,156.486,438.905,156.485z"/>
<path d="M434.761,170.269c-0.96,0.581-1.796,1.337-2.279,2.366c-0.474,1.008-0.586,2.457,0.308,3.296
	c2.101,1.974,5.355,0.133,6.406-2.101c0.494-1.049,0.605-2.405-0.211-3.335C437.929,169.292,436.003,169.518,434.761,170.269z"/>
<path d="M426.999,95.326c-0.382-0.478-1.142-0.538-1.698-0.36c-0.147,0.047-0.294,0.094-0.442,0.141
	c-0.626,0.2-1.174,0.682-1.454,1.276c-0.256,0.544-0.298,1.518,0.399,1.791c0.116,0.045,0.231,0.091,0.347,0.136
	c0.718,0.281,1.35,0.125,1.907-0.243c0.009-0.003,0.018-0.007,0.027-0.011c0.556-0.215,1.03-0.58,1.289-1.131
	c0.248-0.527,0.24-1.288-0.354-1.587C427.013,95.333,427.006,95.329,426.999,95.326z"/>
</svg>
