<?xml version="1.0" encoding="utf-8"?>
<!-- Generator: Adobe Illustrator 17.0.0, SVG Export Plug-In . SVG Version: 6.00 Build 0)  -->
<!DOCTYPE svg PUBLIC "-//W3C//DTD SVG 1.0//EN" "http://www.w3.org/TR/2001/REC-SVG-20010904/DTD/svg10.dtd">
<svg version="1.0" id="Layer_1" xmlns="http://www.w3.org/2000/svg" xmlns:xlink="http://www.w3.org/1999/xlink" x="0px" y="0px"
	 width="566.93px" height="566.93px" viewBox="0 0 566.93 566.93" enable-background="new 0 0 566.93 566.93" xml:space="preserve">
<path d="M449.637,21.33c-13.629-2.15-26.988-3.365-40.81-3.181c-14.401,0.191-28.771,1.437-43.135,2.396
	c-31.161,2.08-62.53,0.9-93.736,0.727c-16.305-0.09-32.613-0.088-48.914,0.344c-8.111,0.215-16.013,0.454-24.1-0.016
	c-16.64-0.966-33.29-1.93-49.966-1.517c-9.609,0.238-19.85,0.671-29.048,3.73c-5.667,1.885-13.485,5.557-13.309,12.648
	c0.022,0.91,0.396,1.478,0.952,1.803c-0.282,0.206-0.509,0.446-0.591,0.676c-3.059,8.567-1.612,18.795-1.403,27.749
	c0.229,9.833,0.095,19.651,0.433,29.479c0.337,9.796,0.919,19.573,0.996,29.378c0.077,9.805,0.461,20.452-1.395,30.096
	c-1.191,6.191,6.815,6.038,11.245,3.062c-0.462,0.675-0.471,1.391,0.58,1.876c9.888,4.563,22.342,4.205,33.041,4.081
	c13.103-0.152,26.18-1.395,39.23-2.478c26.877-2.229,53.695-1.872,80.644-1.638c28.336,0.246,56.671,0.483,85.006,0.868
	c26.815,0.363,54.03,3.227,80.771,0.311c2.261-0.247,4.771-1.05,6.629-2.546c2.254-0.156,4.496-0.75,5.727-1.207
	c15.212-5.634,13.355-26.959,12.119-39.754c-1.135-11.747-4.013-23.378-3.878-35.213c0.116-10.154,0.831-20.272,0.516-30.435
	c-0.146-4.696-0.602-9.415-1.577-14.015c-0.498-2.347-1.106-4.38-2.187-6.526c-0.726-1.441-1.979-2.392-3.085-3.409
	C453.196,25.997,454.845,22.151,449.637,21.33z M444.338,148.914c0.136-0.09,0.24-0.161,0.331-0.223
	C444.565,148.771,444.463,148.831,444.338,148.914z M446.837,35.648c0.366,2.815,0.905,5.599,1.206,8.428
	c0.703,6.621,0.356,13.353-0.138,19.975c-0.742,9.967-2.635,20.125-1.921,30.136c1.069,15.004,4.769,30.715,2.227,45.746
	c-0.495,2.925-1.391,5.586-2.874,7.934c-0.18,0.286-0.317,0.472-0.436,0.605c-0.226,0.103-0.763,0.392-1.012,0.475
	c-2.413,0.807,1.037-0.299-2.411,0.918c-0.498,0.176-1.027,0.389-1.554,0.637c-0.033-0.002-0.067-0.006-0.1-0.007
	c-3.428-0.158-6.368,0.309-9.502,1.224c-10.037,0.955-20.173,0.702-30.243,0.381c-13.106-0.417-26.189-0.921-39.303-1.075
	c-28.362-0.332-56.733-0.762-85.098-0.652c-26.609,0.103-53.111,0.17-79.596,2.967c-12.585,1.33-25.153,2.793-37.79,3.55
	c-12.857,0.769-25.602-0.47-38.419-0.026c-0.39,0.014-0.941,0.218-1.483,0.525c0.952-1.066,1.464-2.33,1.206-3.711
	c-1.744-9.296-1.781-19.072-2.653-28.501c-0.895-9.682-1.379-19.393-2.202-29.08c-0.822-9.669-2.13-19.277-2.689-28.966
	c-0.297-5.149-0.523-10.303-0.698-15.458c-0.154-4.54,0.035-8.866-1.611-13.147c2.156-0.368,4.675-2.093,4.898-3.947
	c0.188-1.554,0.889-1.62,2.175-2.432c1.25-0.789,4.502-1.481,6.749-1.947c7.384-1.531,15.156-1.66,22.668-1.773
	c16.391-0.246,32.774,0.982,49.117,2.071c8.286,0.552,16.372,0.417,24.689,0.25c16.294-0.327,32.593-0.353,48.89-0.271
	c31.224,0.158,62.554,1.236,93.736-0.727c13.771-0.867,27.537-1.881,41.336-2.139c11.158-0.208,23.042-0.218,34.105,2.227
	c0.66,1.293,2.365,2.057,4.956,1.491c-2.231,0.487,2.763-0.148,3.414-0.315c0.083-0.021,0.169-0.05,0.254-0.077
	C446.785,32.613,446.681,34.447,446.837,35.648z"/>
<path d="M457.616,531.545c5.569-4.348,6.951-10.67,7.339-17.419c0.777-13.532-2.219-27.369-4.734-40.596
	c-4.369-22.975-0.522-47.227-1.625-70.472c-0.44-9.29-0.971-18.576-1.425-27.866c-1.596-32.646-2.833-65.297-3.987-97.961
	c-0.966-27.367-2.715-55.385-0.174-82.713c0.181-1.938,0.355-4.306,0.72-5.963c2.509-1.346,4.56-3.438,4.738-5.733
	c1.071-13.777-24.322-13.323-32.757-13.466c-15.817-0.268-31.521,1.545-47.292,2.34c-13.038,0.657-26.25-0.102-39.307-0.067
	c-16.537,0.043-33.073,0.25-49.607,0.518c-33.034,0.533-66.061,1.402-99.095,1.929c-25.228,0.402-50.459,0.44-75.687,0.743
	c-4.417,0.053-8.642,5.416-5.959,7.618c-6.625,7.607-4.364,19.342-2.729,28.481c2.487,13.892,2.838,27.478,2.833,41.586
	c-0.006,15.861-0.811,31.711-0.893,47.572c-0.085,16.428,0.396,32.855,1.009,49.271c1.084,29.042,3.365,58.263,2.686,87.335
	c-0.43,18.399-2.208,36.708-1.794,55.132c0.157,6.998,0.909,13.971,2.239,20.843c1.142,5.901,3.439,10.803,8.714,14.013
	c5.414,3.295,17.387-5.783,10.135-9.943c-3.941-2.262-6.903-10.137-7.872-15.074c-1.781-9.082-2.058-18.419-2.084-27.646
	c-0.052-18.111,1.395-36.138,0.981-54.254c-0.749-32.795-2.884-65.538-3.731-98.329c-0.828-32.033,2.166-64.315-0.863-96.248
	c-0.704-7.421-2.492-14.649-3.722-21.989c-1.061-6.333-2.2-13.857,1.073-19.739c65.025,2.241,130.261-1.023,195.294-1.724
	c24.555-0.265,49.352,1.14,73.847-0.653c16.226-1.188,32.951-3.05,49.157-0.809c3.181,0.44,6.027,1.083,8.837,2.669
	c1.245,0.703,2.01,2.069,2.004,3.312c-0.009,1.951,0.943,3.07,2.359,3.558c-0.141,0.327-0.273,0.654-0.377,0.971
	c-0.605,1.845-0.866,3.785-1.171,5.697c-1.803,11.319-1.938,22.992-2.243,34.425c-0.9,33.783,0.295,67.625,1.548,101.382
	c0.91,24.503,2.21,48.993,3.013,73.499c0.767,23.419-3.216,47.549,0.175,70.813c1.966,13.491,4.143,27.353,2.957,41.012
	c-0.127,1.47-0.352,2.856-0.698,4.288c-0.068,0.283-0.155,0.56-0.239,0.838c-0.51-0.093-1.056-0.197-1.719-0.322
	c-1.509-0.283-4.886,0.639-7.128,2.218c-1.133-1.078-2.441-1.925-3.91-2.472c0.494-1.583,0.032-2.955-0.921-3.938
	c-0.317-0.342-0.699-0.641-1.148-0.879c-0.896-0.498-1.964-0.757-3.036-0.711c-4.284-0.413-8.933,0.249-13.16,0.383
	c-9.749,0.31-19.473,1.055-29.215,1.524c-28.119,1.354-56.309,1.912-84.442,3.066c-28.346,1.163-56.694,2.298-85.057,2.985
	c-27.933,0.677-55.975,0.32-83.856,1.963c-2.557,0.151-7.269,4.976-2.715,5.529c2.013,0.244,4.029,0.459,6.048,0.661
	c-0.022,0.051-0.052,0.101-0.071,0.152c-0.797,2.171-1.04,4.083-0.334,6.348c0.856,2.746,3.07,4.7,3.931,7.302
	c0.354,1.071,1.805,1.871,2.859,1.95c10.708,0.801,21.43-2.669,32.065-1.184c3.857,0.538,9.792-1.604,10.866-5.85
	c0.536-2.118,1.119-4.689,0.753-6.94c7.853-0.068,15.694-0.225,23.497-0.375c28.325-0.543,56.637-1.602,84.946-2.682
	c28.169-1.075,56.361-2.427,84.55-2.807c1.33-0.018,2.659-0.047,3.988-0.082c-2.177,3.888-1.75,9.25-2.026,13.506
	c-0.157,2.415,2.749,3.249,4.603,3.193c7.871-0.238,15.711-1.009,23.552-1.714c7.698-0.693,15.797-2.08,23.521-1.617
	c3.273,0.196,10.275-3.374,9.624-7.538c0.29,0.061,0.574,0.125,0.889,0.168C450.099,535.102,454.472,534,457.616,531.545z
	 M161.006,538.076c-1.625,0.256-9.161,2.255-10.362,1.152c-1.657-1.522-2.378-3.693-3.22-5.763
	c9.141,0.665,18.331,0.958,27.526,1.047c-0.266,0.653-0.44,1.273-0.547,1.872C169.929,536.734,165.49,537.369,161.006,538.076z
	 M395.814,535.52c-0.297-2.414-0.731-5.054-1.578-7.229c6.314-0.229,12.625-0.44,18.961-0.234c2.969,0.096,6.191,0.502,9.316,0.578
	c0.071,0.979,0.559,2.007,1.643,3.048c0.218,0.209,0.465,0.384,0.711,0.562c-3.13,0.297-6.258,0.571-9.331,0.952
	C408.966,534.012,402.39,534.76,395.814,535.52z"/>
<path d="M418.425,85.263c-0.022-1.906-1.692-3.126-3.437-3.39c-19.846-2.997-40.332-0.585-60.231,0.657
	c-17.737,1.107-35.466,2.344-53.194,3.581c-4.137-0.344-8.272-0.653-12.398-0.814c-25.86-1.01-51.781-0.489-77.638,0.372
	c-11.668,0.389-23.337,0.785-35.007,1.149c-6.424,0.201-12.811,1.063-18.971,2.921c-5.905,1.782-13.097,4.463-15.752,10.541
	c-1.738,3.978-1.147,7.308,0.828,10.06c-1.377,5.058-1.375,10.603-0.658,15.638c1.361,9.553,4.636,17.994,14.343,21.389
	c9.613,3.362,20.384,2.013,30.235,0.628c11.651-1.637,22.995-3.301,34.778-3.907c16.139-0.831,32.308-0.864,48.458-1.366
	c21.801-0.678,43.579-0.028,65.369,0.237c6.986,0.66,14.17,0.753,21.232,0.078c19.122-0.148,38.411-1.318,57.1-5.581
	c2.818-0.643,7.938-3.512,7.431-7.151C418.837,115.398,418.599,100.289,418.425,85.263z"/>
<path d="M158.736,76.728c5.667,1.791,11.425,0.477,16.346-2.689c8.549-5.499,13.376-17.074,12.963-27
	c-0.475-11.41-13.833-19.712-23.306-10.795c-0.256,0.241-0.478,0.497-0.67,0.76c-3.984,1.172-8.061,3.313-9.569,4.291
	c-7.237,4.69-11.846,12.904-9.732,21.458C146.283,68.881,152.802,74.853,158.736,76.728z M157.064,47.207
	c1.563-1.692,3.344-2.624,5.215-3.273c-0.178,1.204-0.332,2.397-0.336,3.623c-0.002,0.581,0.041,1.159,0.085,1.737
	c0.044,0.564,0.498,1.708,0.307,2.229c-1.475,4.026,4.348,4.099,6.589,3.126c2.548-1.106,5.25-4.304,2.832-6.482
	c-0.594-1.745-0.931-3.53-1.224-5.34c1.027,0.011,2.009,0.11,2.933,0.639c1.29,0.739,2.323,3.738,2.593,5.759
	c0.767,5.752-1.112,12.873-4.727,17.227c-1.029,1.238-1.533,1.672-2.555,2.359c-0.54,0.363-0.665,0.442-1.836,0.494
	c-3.041,0.135-6.363-2.856-8.559-4.981C153.466,59.567,152.217,52.454,157.064,47.207z"/>
<path d="M221.425,76.354c5.802,3.291,12.648,2.979,18.703,0.681c11.057-4.198,17.626-16.65,18.41-27.909
	c0.349-5.018-1.138-10.314-4.802-13.87c-4.97-4.823-14.633-5.853-20.137-1.504c-0.874,0.691-2.104,1.903-2.759,3.212
	c-2.609,0.745-5.158,2.183-7.259,3.487c-6.678,4.143-11.353,11.205-12.535,18.907C209.864,67.054,215.237,72.843,221.425,76.354z
	 M231.931,43.665c-0.208,1.609-0.27,3.236-0.31,4.865c-0.05,2.054-0.253,4.345,0.994,6.071c1.855,2.567,7.334-0.301,7.976-2.677
	c0.495-1.832-0.305-3.718-0.762-5.492c-0.312-1.212-0.587-2.438-0.882-3.657c0.94,0.123,1.84,0.327,2.671,0.792
	c1.383,0.774,2.748,3.742,3.104,6.07c1.016,6.648-1.692,14-6.333,18.327c-1.297,1.209-2.389,1.826-5.237,1.387
	c-4.806-0.742-9.271-4.345-10.77-8.922C220.087,53.418,225.463,46.795,231.931,43.665z"/>
<path d="M303.245,81.179c5.973,1.845,11.975,0.776,17.214-2.574c8.581-5.486,12.472-17.21,11.667-26.978
	c-0.351-4.256-1.823-9.001-5.244-11.801c-5.097-4.171-14.08-3.667-18.531,1.278c-0.01,0.012-0.02,0.024-0.03,0.036
	c-4.435,0.469-8.594,2.216-12.405,4.452c-7.28,4.271-11.498,12.209-9.21,20.474C288.602,72.917,296.639,79.139,303.245,81.179z
	 M297.735,53.293c1.549-2.52,4.45-4.294,7.688-5.402c-0.625,1.297-0.79,2.865-0.977,4.274c-0.253,1.908-0.699,5.711,1.009,7.035
	c2.742,2.126,8.874,0.006,8.837-3.835c-0.01-1.074-0.534-1.57-0.985-2.407c-0.46-0.854-0.782-1.783-1.086-2.702
	c-0.209-0.632-0.354-1.279-0.497-1.927c0.433,0.043,0.685,0.073,0.811,0.091c0.05-0.02,0.379-0.043,1.564-0.04
	c0.144,0,0.236-0.003,0.293-0.009c0.119,0.028,0.285,0.064,0.515,0.11c-1.392-0.279,0.311,0.236,0.693,0.458
	c-0.64-0.37,1.091,1.331,1.081,1.314c0.776,1.238,1.209,2.719,1.564,4.123c1.269,5.014-0.168,12.125-2.903,16.357
	c-0.001,0.001-0.579,0.744-0.689,0.915c-0.47,0.442-1.538,1.389-0.688,0.74c-0.384,0.293-0.555,0.433-0.625,0.495
	c0.037-0.047,0.033-0.095-0.335,0.065c1.489-0.647-0.98,0.003-0.45,0.027c-2.98,0.156-6.738-2.115-9.359-4.102
	C298.32,65.176,294.069,59.257,297.735,53.293z"/>
<path d="M312.535,48.42C312.471,48.446,312.842,48.465,312.535,48.42L312.535,48.42z"/>
<path d="M365.348,73.508C378.82,84,400.09,74.994,405.355,59.732c2.528-7.329-0.8-14.687-6.906-18.979
	c-4.493-3.159-10.514-6.07-15.986-3.817c-7.684,0.168-15.842,5.045-20.549,10.455C354.48,55.933,356.688,66.763,365.348,73.508z
	 M370.602,51.194c1.509-2.65,4.177-4.495,7.189-5.875c1.887,2.277,6.805,3.535,8.511,4.677c0.967,0.648,1.782,1.362,2.459,2.123
	c-0.219-0.028-0.436-0.055-0.644-0.083c-3.342-0.448-7.146-0.743-9.667,1.955c0.094-0.041,0.188-0.082,0.282-0.122
	c-0.929,0.737-1.54,1.8-0.263,2.254c-0.81,0.461-0.874,0.951-0.19,1.469c0.298,0.204,0.599,0.405,0.903,0.601
	c0.375,0.244,0.742,0.428,1.153,0.604c0.801,0.344,1.607,0.675,2.406,1.024c0.971,0.423,1.919,1.087,2.984,1.242
	c0.424,0.062,1.4,0.37-0.17-0.137c0.522,0.168,1.027,0.272,1.525,0.326c0.737,0.167,1.57,0.147,2.359-0.065
	c0.53-0.144,0.93-0.288,1.317-0.463c-0.354,1.18-0.935,2.353-1.764,3.485c-1.02,1.393-3.071,2.559-4.098,2.873
	c-2.691,0.823-5.548,0.167-8.425-1.385C371.42,62.971,367.5,56.642,370.602,51.194z M385.438,60.332c-0.002,0-0.004,0-0.006,0
	c-0.001-0.003-0.001-0.007-0.002-0.01C385.433,60.325,385.436,60.329,385.438,60.332z"/>
<path d="M150.58,468.117c1.445,6.415,3.954,11.961,8.36,15.952c0.804,6.313,10.667,9.537,15.602,10.155
	c7.413,0.929,14.911,0.372,22.346,0.145c12.911-0.393,25.835-0.242,38.748,0.026c25.373,0.528,50.717,2.032,76.101,2.043
	c12.258,0.005,24.468-0.776,36.716-1.089c3.175-0.081,6.381-0.134,9.598-0.217c2.381,0.184,4.759,0.396,7.126,0.68
	c9.196,1.104,20.064,3.541,29.017,0.086c1.808-0.697,3.368-1.578,4.709-2.607c8.329-1.964,16.073-7.74,19.658-15.231
	c2.724-5.693,2.892-12.779,2.909-18.965c0.026-9.442-0.86-18.926-1.438-28.342c-1.581-25.743-2.831-51.513-4.473-77.249
	c-0.744-11.667-1.389-23.338-2.072-35.008c2.567-7.311,1.717-15.906-0.659-23.801c2.988-7.404,3.529-17.335,0.034-24.562
	c-2.806-5.803-9.627-7.969-15.583-8.433c-8.44-0.658-16.895,0.126-25.333,0.417c-15.284,0.526-30.633,0.145-45.926,0.229
	c-32.801,0.181-65.557,0.827-98.313,2.6c-11.794,0.638-23.602-0.75-35.391-1.033c-11.155-0.268-23.119-0.058-33.167,5.378
	c-4.915,2.659-9.096,6.505-10.247,12.167c-1.071,5.269-0.298,11.399,1.562,16.539c-0.946,11.878-1.134,23.835-0.96,35.813
	c0.001,0.077,0.002,0.155,0.004,0.232c0.287,19.208,1.468,38.466,1.854,57.529c0.27,13.361-0.196,26.467-1.339,39.77
	C148.977,443.481,147.874,456.109,150.58,468.117z"/>
<path d="M428.055,196.114c-0.675-2.024-3.658-2.844-5.516-2.619c-1.813,0.219-3.525,0.565-5.181,1.082
	c-1.586-0.805-4.077,0.37-5.273,1.792c-1.731-0.673-3.45-1.46-4.971-1.852c-3.892-1.003-7.966-1.352-11.967-1.578
	c-9.787-0.555-19.582,0.059-29.349,0.723c-22.671,1.541-45.381,0.913-68.092,1.426c-25.473,0.576-50.966,1.239-76.436,1.997
	c-12.932,0.385-25.867,1.099-38.75,2.277c-10.968,1.003-22.52,1.931-33.298,4.64c-0.018-0.256-0.033-0.514-0.051-0.769
	c-0.239-3.336-0.966-5.3-4.348-6.563c-3-1.121-6.185-0.312-9.024,0.886c-0.987,0.417-2.14,1.132-3.113,2.038
	c-1.183,0.229-2.373,1.141-2.846,2.122c-3.847,7.987-0.3,18.552-0.318,27.096c-0.005,2.1,2.223,2.667,3.889,2.698
	c4.124,0.076,7.912-0.247,11.828-1.588c1.075-0.368,2.053-1.076,2.776-1.971c18.325,4.206,38.044,2.463,56.523,0.625
	c23.23-2.31,46.254-6.069,69.633-6.533c25.861-0.512,51.845,1.747,77.674,0.397c10.947-0.572,21.842-1.793,32.813-1.898
	c5.091-0.048,10.14,0.291,15.16,1.148c1.247,0.213,2.429,0.492,3.589,0.783c0.077,0.603,0.54,1.125,1.593,1.465
	c1.45,0.469,2.748,0.709,4.004,0.75c-0.038,0.699-0.083,1.393-0.145,2.078c-0.226,2.471,2.798,3.142,4.586,3.182
	c2.083,0.046,4.159,0.066,6.234,0.258c3.94,0.365,9.489-1.818,9.765-6.413c0.438-7.305-0.687-15.315,0.678-22.502
	c0.436-2.298-0.123-3.504-2.07-4.769C428.346,196.656,428.347,196.52,428.055,196.114z M390.546,212.173
	c-11.021-0.255-22.042,1.007-33.021,1.772c-25.487,1.776-51.308-0.039-76.85,0.325c-43.909,0.625-87.26,12.776-131.233,8.204
	c0.299-4.344,0.27-8.762,0.08-13.14c10.322-1.134,20.576-2.918,30.951-3.759c12.228-0.991,24.493-1.472,36.754-1.782
	c25.399-0.643,50.803-1.006,76.202-1.651c22.891-0.582,45.811,0.241,68.663-1.315c9.343-0.636,18.7-1.237,28.067-0.925
	c4.165,0.139,8.319,0.656,12.379,1.59c1.21,0.278,2.339,0.731,3.445,1.232c-0.831,1.937-0.212,3.896,3.205,3.813
	c0.081-0.002,0.157-0.015,0.238-0.018c-0.244,2.54-0.302,5.133-0.31,7.728c-1.284-0.306-2.575-0.577-3.882-0.819
	C400.402,212.533,395.452,212.287,390.546,212.173z"/>
</svg>
