<?xml version="1.0" encoding="UTF-8" standalone="no"?><!DOCTYPE svg PUBLIC "-//W3C//DTD SVG 1.1//EN" "http://www.w3.org/Graphics/SVG/1.1/DTD/svg11.dtd"><svg width="100%" height="100%" viewBox="0 0 505 423" version="1.1" xmlns="http://www.w3.org/2000/svg" xmlns:xlink="http://www.w3.org/1999/xlink" xml:space="preserve" style="fill-rule:evenodd;clip-rule:evenodd;stroke-linejoin:round;stroke-miterlimit:1.41421;"><g id="paper"><path d="M36.1,32.045c7.43,1.098 14.949,0.409 22.429,0.092c8.478,-0.359 16.956,-0.696 25.433,-1.083c16.365,-0.748 32.736,-1.392 49.108,-1.979c32.884,-1.179 65.771,-2.243 98.663,-3.2c65.93,-1.919 131.858,-3.783 197.745,-6.919c10.517,-0.5 21.03,-1.05 31.542,-1.64c10.699,-0.6 21.563,-0.567 32.205,-1.837c3.287,-0.393 6.257,-2.522 7.672,-5.53c1.272,-2.706 0.794,-7.572 -3.119,-7.778c-4.454,-0.235 -7.668,0.178 -11.859,1.712c-2.092,0.766 -6.271,4.894 -3.471,7.237c2.99,2.502 5.189,3.651 9.094,4.281c1.518,-4.436 3.035,-8.872 4.553,-13.309c-65.253,5.264 -130.917,7.032 -196.337,9.058c-65.811,2.038 -131.642,3.561 -197.413,6.684c-10.479,0.497 -20.958,0.992 -31.426,1.667c-10.942,0.706 -22.195,0.762 -32.865,3.427c-3.471,0.866 -7.471,8.303 -1.954,9.117Z" style="fill-rule:nonzero;"/><g id="paper1"><path d="M32.659,28.529c-4.114,32.007 -2.238,64.752 -1.133,96.915c1.111,32.313 2.528,64.627 2.029,96.968c-0.496,32.139 -3.672,63.762 -9.825,95.305c-2.987,15.311 -6.274,30.563 -8.931,45.937c-2.586,14.973 -5.451,30.188 -6.281,45.376c3.882,-2.791 7.765,-5.583 11.647,-8.375c1.308,0.624 -1.083,-1.891 -1.159,-1.985c-4.23,-5.236 -13.924,2.775 -11.649,8.316c0.72,1.753 0.698,3.667 2.293,4.952c5.212,4.195 12.924,-1.211 12.876,-7.398c-0.111,-14.761 0.738,-29 3.188,-43.58c2.581,-15.367 5.824,-30.617 8.783,-45.913c6.017,-31.103 8.898,-62.384 9.495,-94.048c0.608,-32.291 -0.973,-64.577 -2.369,-96.827c-1.399,-32.295 -1.183,-64.646 -2.641,-96.919c-0.176,-3.88 -5.966,-1.509 -6.323,1.276Z" style="fill-rule:nonzero;"/><path d="M493.305,6.292c-2.256,9.866 -2.122,19.866 -1.404,29.905c0.787,11.027 1.18,21.732 0.828,32.789c-0.686,21.602 -1.467,43.199 -2.271,64.797c-1.635,43.818 -3.387,87.634 -4.764,131.462c-0.102,3.251 3.621,4.23 6.115,3.433c3.146,-1.006 5.438,-3.875 5.541,-7.169c1.335,-42.517 3.021,-85.021 4.615,-127.528c0.811,-21.603 1.592,-43.207 2.294,-64.813c0.338,-10.398 0.58,-20.593 -0.249,-30.975c-0.881,-11.014 -1.774,-21.949 0.713,-32.826c1.805,-7.895 -10.038,-5.111 -11.418,0.925Z" style="fill-rule:nonzero;"/><path d="M3.863,417.301c12.777,3.777 26.13,3.696 39.322,3.021c13.73,-0.702 27.308,-1.183 41.063,-0.859c28.818,0.679 57.507,1.591 86.342,1.071c58.312,-1.053 116.726,-3.885 174.868,2.245c3.777,0.397 7.418,-1.832 9.032,-5.265c1.294,-2.751 0.718,-7.117 -3.011,-7.511c-57.246,-6.035 -114.779,-3.702 -172.199,-2.511c-28.849,0.6 -57.564,0.091 -86.399,-0.793c-13.854,-0.426 -27.621,-0.447 -41.459,0.383c-13.996,0.84 -27.933,1.465 -41.537,-2.558c-6.734,-1.988 -14.375,10.308 -6.022,12.777Z" style="fill-rule:nonzero;"/><path d="M58.697,45.779c-2.126,0.025 -4.722,0.598 -6.374,2.166c-2.541,2.414 -2.975,5.491 -2.725,8.859c0.063,0.84 0.496,1.873 1.348,2.217c5.334,2.156 10.998,0.873 15.309,-2.856c4.16,-3.599 5.655,-9.346 2.369,-13.97c-7.71,-10.85 -25.137,2.464 -20.355,13.371c1.554,3.544 5.54,7.019 9.257,8.067c4.031,1.138 7.827,-1.987 9.697,-5.222c2.425,-4.193 2.548,-11.015 0.753,-15.482c-0.991,-2.469 -3.479,-3.787 -6.088,-2.786c-2.158,0.828 -3.517,2.253 -4.673,4.184c0.498,-0.829 0.352,-0.59 -0.439,0.717c-0.312,0.542 -0.603,1.087 -0.878,1.647c-0.594,1.206 -1.005,2.509 -1.395,3.791c-0.996,3.274 -0.896,7.586 3.002,8.646c5.395,1.467 9.454,-6.079 11.523,-9.67c1.715,-2.978 -0.452,-5.656 -3.498,-5.723c-3.764,-0.082 -6.755,2.783 -7.882,6.168c-0.289,0.868 -0.273,1.803 -0.282,2.712c0.012,-1.239 -0.045,0.538 -0.072,0.991c-0.039,0.658 0.354,1.416 0.751,1.902c-0.225,-0.575 -0.448,-1.15 -0.673,-1.727c0.16,1.104 0.52,1.741 1.45,2.338c1.206,0.772 3.274,0.418 4.386,-0.355c1.397,-0.973 2.549,-1.966 3.297,-3.523c0.31,-0.646 0.514,-1.318 0.74,-2.002c0.438,-1.314 -0.482,0.854 0.13,-0.201c-0.592,0.775 -1.184,1.551 -1.774,2.326c-0.721,0.373 -1.44,0.748 -2.16,1.121c-1.166,-1.907 -2.332,-3.814 -3.498,-5.723c-0.473,1.005 -0.91,1.92 -1.551,2.822c-0.463,0.563 -0.446,0.578 0.05,0.046c-0.095,0.085 -0.189,0.171 -0.284,0.257c1.533,-1.341 3.271,-1.446 5.217,-0.317c0.732,0.709 0.386,1.612 0.428,0.135c-0.029,1.032 0.512,-1.718 0.366,-1.317c0.345,-0.947 0.814,-1.845 1.305,-2.723c1.019,-1.825 -0.626,0.885 -0.085,0.168c-1.164,1.541 -3.104,2.53 -5.067,2.27c-0.459,-0.062 -1.863,-1.324 -1.304,-0.55c-0.879,-1.217 -0.23,-0.341 -0.054,0.161c0.122,0.349 0.209,0.709 0.293,1.067c-0.319,-1.369 -0.003,0.123 0.041,0.442c0.143,1.043 0.184,2.101 0.173,3.153c-0.003,0.306 -0.144,1.972 -0.009,0.606c-0.056,0.563 -0.153,1.12 -0.271,1.672c-0.039,0.176 -0.083,0.35 -0.13,0.522c-0.248,0.948 0.415,-1.087 0.077,-0.202c-0.56,1.461 0.572,-0.619 -0.092,0.263c0.692,-0.918 1.038,-0.999 2.052,-1.425c-0.254,0.106 1.289,-0.017 0.878,-0.069c-1.036,-0.134 0.546,0.339 -0.533,-0.195c-0.306,-0.151 -0.592,-0.342 -0.877,-0.528c-1.006,-0.656 0.567,0.526 -0.465,-0.343c-1.314,-1.106 -2.863,-2.474 -3.447,-4.106c-0.162,-0.453 -0.026,-0.831 0.117,-1.431c-0.135,0.564 0.454,-0.788 0.066,-0.173c0.024,-0.037 1.106,-1.253 0.472,-0.634c0.508,-0.495 0.19,-0.295 0.927,-0.546c-0.087,0.029 0.716,-0.145 1.019,-0.037c1.575,0.559 2.838,1.992 2.862,3.583c0.008,0.491 -0.695,1.019 -1.525,1.493c-1.11,0.635 -2.971,0.708 -4.344,0.195c0.449,0.739 0.898,1.479 1.348,2.217c-0.128,-0.92 -0.249,-1.826 -0.278,-2.756c-0.027,-0.85 -0.456,0.757 -1.061,1.159c1.489,-0.991 2.833,-1.731 3.884,-3.245c1.072,-1.547 0.756,-3.643 -1.444,-3.617Z" style="fill-rule:nonzero;"/><path d="M102.434,41.327c-4.823,-4.223 -13.051,1.822 -15.59,6.031c-3.959,6.562 0.633,12.301 7.301,13.819c6.447,1.468 13.353,-2.381 16.94,-7.589c3.287,-4.771 4.229,-11.813 -0.689,-15.874c-8.182,-6.756 -23.714,-2.476 -22.155,9.691c1.023,7.994 9.6,15.666 16.818,8.349c2.717,-2.754 4.037,-6.23 4.814,-9.968c0.384,-1.842 -0.532,-4.408 -2.762,-4.521c-3.76,-0.189 -7.231,-0.518 -10.686,1.25c-3.351,1.715 -4.863,5.422 -6.15,8.707c-1.237,3.162 0.058,5.921 3.639,5.95c3.868,0.032 10.145,-1.721 11.09,-6.132c1.203,-5.613 -5.957,-4.019 -8.918,-4.007c1.213,1.983 2.426,3.967 3.639,5.95c0.357,-0.946 0.718,-1.89 1.111,-2.822c0.738,-1.753 0.225,-0.32 -1.22,0.697c-0.884,0.621 -1.316,0.323 0.087,0.248c1.332,-0.07 2.683,0.031 4.014,0.083c-1.34,-1.526 -2.679,-3.053 -4.018,-4.579c-0.346,1.759 -0.475,2.414 -1.163,3.758c0.132,-0.257 0.683,-0.818 0.399,-0.566c0.902,-0.806 1.313,-0.901 2.056,-0.982c1.404,-0.154 -0.369,-0.299 0.74,0.136c-0.374,-0.146 -0.713,-0.376 -1.042,-0.603c0.977,0.674 -0.123,-0.187 -0.324,-0.402c-0.324,-0.347 -0.604,-0.733 -0.877,-1.12c-0.388,-0.549 0.187,0.421 -0.338,-0.629c-0.224,-0.448 -0.4,-0.918 -0.568,-1.39c-0.074,-0.208 -0.406,-1.726 -0.214,-0.653c-0.083,-0.464 -0.105,-0.936 -0.114,-1.405c-0.014,-0.804 -0.195,0.832 0.107,-0.431c-0.08,0.335 -0.573,1.104 -0.311,0.751c-0.681,0.684 -0.791,0.821 -0.33,0.415c-0.359,0.36 -0.781,0.61 -1.268,0.748c1.106,-0.474 -0.082,-0.14 1.288,-0.206c1.794,-0.089 5.755,0.903 6.221,3.186c0.474,2.324 -0.944,4.04 -2.563,4.688c-2.094,0.837 -6.857,0.195 -7.081,-2.575c-0.202,-2.507 5.446,-3.964 7.016,-4.847c0.85,-0.478 2.162,-2.229 1.101,-3.156Z" style="fill-rule:nonzero;"/><path d="M143.407,43.356c-0.131,-0.103 -0.235,-0.225 -0.314,-0.366c-0.251,-0.603 -0.808,-1.109 -1.479,-1.186c-2.357,-0.271 -4.009,-0.146 -6.21,0.884c-2.153,1.008 -3.953,3.299 -4.771,5.493c-1.609,4.322 -0.104,9.045 4.485,10.66c5.557,1.957 11.315,-0.049 15.758,-3.587c4.12,-3.28 6.682,-9.292 3.08,-13.837c-3.194,-4.032 -9.524,-4.75 -13.898,-2.622c-3.407,1.658 -5.949,5.396 -6.326,9.157c-0.341,3.393 0.297,6.734 3.124,8.899c3.76,2.878 8.789,-0.628 11.326,-3.419c1.47,-1.616 2.559,-3.577 3.553,-5.51c1.036,-2.016 0.534,-5.684 -2.34,-5.836c-2.197,-0.115 -4.819,-0.57 -6.946,0.279c-1.188,0.475 -2.313,1.063 -3.213,1.995c-0.357,0.382 -0.714,0.765 -1.071,1.147c0.793,-0.836 0.954,-1.014 0.483,-0.532c-0.134,0.136 -1.461,1.19 -0.737,0.688c-2.176,1.514 -5.497,5.434 -2.826,8.114c2.178,2.186 4.953,3.305 8.063,2.68c3.494,-0.7 7.261,-4.297 4.904,-7.967c-1.195,-1.861 -2.969,-1.421 -4.088,-2.504c-0.515,2.398 -1.028,4.798 -1.543,7.197c0.602,-0.432 1.178,-0.873 1.727,-1.369c0.658,-0.592 2.802,-2.966 0.999,-1.045c0.745,-0.689 0.079,-0.325 -2,1.092c-1.205,0.502 -0.952,0.16 -0.218,0.132c1.014,-0.038 2.04,0.039 3.052,0.076c-1.2,-1.964 -2.401,-3.929 -3.603,-5.894c-0.092,0.188 -1.201,2.192 -0.645,1.298c-0.32,0.514 -0.688,0.994 -1.069,1.463c1.298,-1.589 -1.192,0.671 0.814,-0.675c-0.333,0.223 0.916,-0.333 1.305,-0.378c0.906,0.084 1.124,0.087 0.653,0.011c0.79,0.313 0.979,0.371 0.568,0.174c-0.585,-0.293 0.852,0.877 0.133,0.057c-0.739,-0.848 0.331,0.698 0.005,0.011c-0.155,-0.326 -0.489,-1.725 -0.205,-0.315c-0.071,-0.355 -0.098,-0.718 -0.118,-1.078c-0.021,-0.361 0.141,-1.619 -0.036,-0.156c0.045,-0.369 0.138,-0.729 0.238,-1.086c-0.55,1.94 0.708,-0.924 -0.475,0.977c0.759,-1.218 -0.827,0.708 -0.13,0.091c-0.87,0.583 -1.049,0.719 -0.535,0.407c-0.863,0.349 -1.023,0.425 -0.481,0.229c0.696,-0.243 -1.071,0.07 0.341,0.003c-1.13,0.054 0.604,0.059 0.892,0.158c1.237,0.431 2.28,1.118 2.536,1.763c-0.067,-0.422 -0.08,-0.385 -0.039,0.111c-0.038,-0.265 0.018,-0.509 0.166,-0.733c-0.258,0.517 -0.236,0.531 0.064,0.044c-0.177,0.264 -0.369,0.518 -0.574,0.76c0.891,-1.111 -1.203,0.865 -0.21,0.176c-0.198,0.137 -1.666,0.92 -1.225,0.733c-1.323,0.558 -2.187,0.692 -3.674,0.44c-0.978,-0.166 -1.243,-0.382 -1.876,-1.22c0.499,0.66 -0.205,-1.056 -0.044,-0.162c-0.045,-0.248 0.046,-1.526 -0.076,-0.721c0.046,-0.304 0.116,-0.358 -0.114,0.007c0.118,-0.188 1.151,-1.298 0.448,-0.619c0.366,-0.354 0.12,-0.069 0.897,-0.539c0.508,-0.307 1.494,-0.82 2.051,-1.042c0.996,-0.396 2.459,-1.892 1.444,-3.008Z" style="fill-rule:nonzero;"/><path d="M181.387,40.448c-4.418,-2.517 -9.354,2.123 -11.504,5.765c-2.947,4.99 -1.346,10.629 3.752,13.292c10.039,5.245 25.164,-7.396 17.816,-17.734c-2.693,-3.788 -8.557,-5.734 -12.934,-3.913c-4.426,1.841 -7.088,5.883 -6.95,10.681c0.097,3.37 1.761,6.556 4.497,8.482c4.193,2.953 9.35,-0.569 12.177,-3.629c1.733,-1.876 2.87,-4.462 3.78,-6.817c1.044,-2.705 0.074,-6.535 -3.629,-5.937c-3,0.485 -5.625,1.17 -8.08,3.026c-0.853,0.646 -1.547,1.471 -2.252,2.269c-0.203,0.238 -0.404,0.478 -0.607,0.716c-1.135,1.342 0.978,-0.894 -0.688,0.668c-2.965,2.781 -3.581,8.572 1.818,8.445c3.354,-0.079 8.12,-1.127 9.692,-4.471c1.171,-2.488 -0.023,-4.758 -2.51,-5.593c-1.625,-0.546 -3.319,-0.243 -4.987,-0.181c0.605,2.814 1.212,5.63 1.818,8.445c1.22,-1.172 2.348,-2.425 3.424,-3.728c-1.143,1.382 0.66,-0.23 -0.841,0.719c-0.987,0.625 0.612,-0.126 1.044,-0.201c-1.209,-1.979 -2.419,-3.958 -3.629,-5.937c-0.32,0.863 -0.663,1.709 -1.048,2.545c-0.168,0.354 -0.347,0.702 -0.536,1.045c0.308,-0.479 0.289,-0.462 -0.055,0.054c-0.957,1.405 0.293,-0.149 -0.302,0.379c0.819,-0.545 0.972,-0.662 0.454,-0.351c0.895,-0.356 1.073,-0.449 0.537,-0.276c0.407,-0.122 2.219,0.041 1.08,-0.227c1.247,0.293 0.398,0.107 -0.013,-0.173c1.291,0.879 -0.946,-1.653 -0.287,-0.457c-0.196,-0.357 -0.347,-0.738 -0.489,-1.119c-0.101,-0.27 -0.376,-1.609 -0.146,-0.35c-0.072,-0.396 -0.092,-0.797 -0.102,-1.198c-0.02,-0.822 -0.215,1.054 0.059,-0.205c0.066,-0.307 -0.21,0.558 -0.485,0.965c0.543,-0.803 -1.881,1.401 -0.983,0.906c-1.061,0.585 -0.986,0.277 0.272,0.521c2.478,0.479 3.229,2.667 3.029,3.743c-0.104,0.562 -0.229,0.691 -0.681,1.093c0.93,-0.827 -1.139,0.446 -0.295,0.134c-0.553,0.205 -0.291,0.215 -0.892,0.184c-2.132,-0.109 -4.979,-1.691 -4.724,-3.626c0.143,-1.086 0.402,-1.565 1.076,-2.434c0.392,-0.505 0.506,-0.651 0.872,-0.978c0.254,-0.227 2.671,-1.606 1.224,-0.98c1.148,-0.494 2.987,-2.56 1.228,-3.562Z" style="fill-rule:nonzero;"/><path d="M226.823,41.442c-5.175,-2.118 -11.215,2.565 -12.063,7.784c-0.753,4.627 2.835,8.738 6.972,10.235c12.387,4.482 23.465,-13.443 12.756,-21.741c-4.814,-3.729 -12.261,-1.636 -16.665,1.541c-4.536,3.272 -8.813,10.9 -5.018,16.109c2.913,3.998 10.3,2.673 14.128,1.225c2.479,-0.938 4.998,-2.375 6.533,-4.604c2.409,-3.5 1.576,-6.237 -1.199,-9.099c-6.139,-6.327 -12.67,-0.492 -16.398,5.273c-2.157,3.336 -1.535,7.123 2.917,7.323c2.989,0.135 5.716,0.358 8.646,-0.386c2.412,-0.613 4.956,-3.406 4.634,-5.997c-0.131,-1.047 -0.566,-2.252 -1.643,-2.703c-2.999,-1.257 -6.227,-1.069 -9.431,-1.213c0.973,2.44 1.945,4.882 2.917,7.323c0.618,-0.956 1.246,-1.891 1.919,-2.809c1.607,-2.193 -4.298,-0.123 -3.019,0.609c0.488,0.279 1.133,1.148 1.572,1.615c-1.412,-1.504 0.922,-4.309 2.239,-5.219c-0.211,0.146 -1.454,0.743 -0.214,0.204c-0.616,0.268 -1.266,0.454 -1.912,0.634c-0.338,0.094 -2.033,0.213 -2.404,0.165c-1.258,-0.165 0.558,0.369 -0.49,-0.119c-0.781,-0.363 0.383,0.845 0.093,0.048c0.218,0.599 -0.052,0.797 0.223,0.016c0.342,-0.971 0.442,-0.931 0.866,-1.457c-0.709,0.879 0.955,-0.525 -0.039,0.117c0.606,-0.392 0.275,-0.251 1.349,-0.583c0.593,-0.184 1.854,-0.094 2.972,0.212c1.835,0.501 2.236,2.928 1.654,5.035c-0.195,0.71 -0.557,0.519 0.4,0.109c-0.576,0.246 0.016,0.122 -1.044,0.159c0.499,-0.018 -0.957,-0.237 -1.167,-0.294c-1.391,-0.372 -3.115,-2.006 -3.614,-3.278c-0.229,-0.584 -0.145,-0.232 -0.128,-0.256c0.515,-0.714 2.502,-2.07 3.427,-2.989c0.652,-0.644 1.581,-2.436 0.231,-2.989Z" style="fill-rule:nonzero;"/><path d="M267.278,38.996c-2.648,2.274 -5.182,6.338 -4.639,9.988c0.458,3.078 2.613,5.213 5.677,5.742c8.401,1.451 14.402,-7.539 15.022,-14.822c0.115,-1.345 0.058,-3.354 -1.559,-3.918c-4.76,-1.663 -8.949,-2 -13.574,0.317c-4.285,2.147 -6.764,6.772 -7.869,11.228c-0.383,1.543 0.157,3.462 1.674,4.205c3.496,1.715 7.816,3.542 11.688,1.873c4.621,-1.99 6.723,-5.956 7.792,-10.667c0.603,-2.657 -1.367,-5.022 -4.131,-4.707c-2.684,0.307 -5.162,0.429 -7.651,1.573c-2.212,1.018 -3.571,3.457 -5.045,5.274c-1.794,2.212 -1.836,5.114 0.469,6.858c1.598,1.209 3.826,1.074 5.717,1.017c1.37,-0.042 2.478,-0.407 3.673,-1.086c-0.754,0.26 -0.571,0.162 0.549,-0.293c0.664,-0.383 1.229,-0.879 1.695,-1.487c1.242,-1.639 1.529,-4.27 0.096,-5.903c-1.28,-1.459 -3.731,-0.946 -4.63,-1.62c0.156,2.286 0.313,4.572 0.469,6.858c0.468,-0.58 0.923,-1.168 1.366,-1.768c1.227,-1.663 -0.334,0.188 -1.1,0.671c-0.521,0.327 -2.662,0.694 -0.999,0.508c1.063,-0.118 2.13,-0.216 3.192,-0.341c-1.377,-1.569 -2.754,-3.138 -4.131,-4.707c-0.088,0.425 -0.188,0.847 -0.299,1.266c-0.432,1.724 0.342,-0.668 -0.263,0.735c-0.31,0.603 -0.275,0.553 0.104,-0.146c0.679,-0.957 1.767,-1.468 2.888,-1.676c-0.538,0.027 -0.542,0.045 -0.011,0.051c-0.527,-0.045 -1.046,-0.197 -1.555,-0.334c-0.982,-0.264 -1.951,-0.777 -2.877,-1.199c0.558,1.401 1.116,2.804 1.674,4.205c0.233,-1.051 0.321,-1.336 0.789,-2.27c-0.264,0.432 -0.206,0.378 0.174,-0.161c-0.811,1.067 0.862,-0.435 -0.294,0.294c-0.521,0.175 -0.464,0.151 0.174,-0.068c-0.651,0.229 1.007,-0.115 1.005,-0.115c1.237,-0.082 2.582,0.271 3.771,0.602c-0.907,-1.033 -1.813,-2.066 -2.72,-3.1c-0.041,1.02 -0.252,1.995 -0.53,2.977c0.207,-0.73 -0.361,0.692 -0.354,0.678c0.583,-1.188 -1.076,1.246 0.123,-0.037c-0.206,0.221 -1.253,1.015 -0.063,0.18c-0.24,0.169 -1.326,0.658 -0.086,0.138c-0.254,0.106 -1.325,0.319 -0.112,0.106c-1.149,0.202 0.181,0.127 -0.442,0.049c-0.267,-0.033 -1.069,-0.376 -0.137,0.01c-0.263,-0.109 -0.498,-0.272 -0.729,-0.435c0.788,0.553 0.139,0.063 -0.035,-0.142c-0.325,-0.384 0.149,0.462 -0.149,-0.484c0.258,0.818 -0.04,-1.207 -0.082,-0.957c0.188,-1.113 0.665,-2.201 0.999,-3.278c0.967,-3.12 -3.157,-3.02 -4.714,-1.682Z" style="fill-rule:nonzero;"/><path d="M314.772,37.009c-1.705,-0.695 -2.957,-1.815 -4.818,-2.24c-1.764,-0.402 -3.62,0.799 -4.658,2.116c-3.352,4.256 -4.307,9.511 -1.002,14.06c2.754,3.79 8.622,4.258 12.627,2.617c5.264,-2.158 9.611,-7.301 9.979,-13.072c0.278,-4.379 -4.231,-6.736 -7.727,-7.783c-7.535,-2.256 -21.878,0.896 -19.509,11.42c0.794,3.528 4.438,6.229 7.911,6.634c6.472,0.756 11.531,-4.431 13.825,-9.967c1.151,-2.777 0.015,-6.597 -3.689,-6.035c-4.642,0.703 -9.055,2.802 -10.424,7.686c-0.721,2.567 -0.547,6.649 1.874,8.185c1.247,0.791 3.294,0.408 4.45,-0.36c2.549,-1.696 3.831,-3.801 4.026,-6.827c0.041,-0.633 0.062,-1.263 0.06,-1.898c0.006,1.531 -3.455,3.693 -2.189,3.499c-1.23,-2.012 -2.46,-4.023 -3.689,-6.035c-0.04,0.098 -0.618,1.488 -0.668,1.567c-0.935,1.479 0.568,-0.32 -0.57,0.654c0.446,-0.382 0.778,-0.594 1.364,-0.685c-1.244,0.193 0.759,0.181 -0.444,-0.059c0.871,0.173 -0.254,-0.133 -0.446,-0.233c-1.108,-0.584 0.493,0.557 -0.41,-0.274c-0.299,-0.274 -0.541,-0.603 -0.779,-0.927c0.574,0.783 0.043,-0.084 -0.04,-0.328c0.037,0.167 0.074,0.334 0.112,0.501c-0.003,-0.884 -0.122,-0.453 -0.357,1.291c-0.413,0.526 -0.826,1.052 -1.239,1.578c-0.74,0.515 -0.855,0.605 -0.345,0.273c1.059,-0.672 -1.207,0.419 0.105,-0.022c0.153,-0.052 1.542,-0.319 0.459,-0.135c2.194,-0.374 3.398,-0.26 5.497,0.176c0.993,0.207 1.028,0.232 2.046,0.784c0.421,0.229 0.524,0.333 0.638,0.595c-0.352,-0.813 -0.143,0.445 -0.014,-0.395c0.165,-1.076 -0.317,0.581 0.078,-0.049c0.118,-0.189 -1.173,1.582 -0.787,1.189c-0.701,0.713 -0.547,0.442 -0.129,0.258c-1.128,0.497 -2.365,0.213 -3.535,-0.896c-1.261,-1.195 -1.265,-3.166 -0.659,-4.759c-1.427,1.029 -2.854,2.058 -4.282,3.087c2.2,-0.261 4.054,-1.217 6.174,-1.739c1.111,-0.276 2.915,-2.747 1.184,-3.452Z" style="fill-rule:nonzero;"/><path d="M359.483,33.549c-1.824,-1.428 -4.793,0.411 -6.275,1.524c-1.948,1.462 -3.555,3.43 -4.427,5.717c-1.962,5.138 0.225,9.725 5.449,11.418c5.391,1.746 10.99,0.055 14.569,-4.271c2.698,-3.262 3.256,-8.277 1.496,-12.085c-4.914,-10.636 -21.596,-5.838 -23.747,4.396c-0.877,4.172 1.155,8.644 4.834,10.749c5.105,2.923 11.084,-0.737 14.138,-4.872c0.965,-1.307 1.731,-2.803 2.374,-4.291c1.692,-3.915 -1.097,-6.733 -5.057,-5.763c-2.546,0.625 -5.065,2.044 -6.534,4.28c-0.775,1.179 -1.24,2.335 -1.617,3.688c-0.074,0.261 -0.142,0.522 -0.202,0.787c0.299,-1.232 -0.183,0.161 -0.284,0.373c-2.073,4.315 2.332,6.776 5.952,4.779c1.961,-1.082 3.351,-2.686 4.325,-4.686c0.322,-0.662 0.516,-1.395 0.707,-2.104c0.393,-1.282 -0.083,-0.604 -1.427,2.038c-1.451,0.773 -1.581,0.967 -0.393,0.581c-1.686,-1.922 -3.371,-3.842 -5.057,-5.763c-0.134,0.311 -1.087,2.154 -0.815,1.739c-0.761,1.158 -0.745,0.766 0.281,0.041c-0.493,0.349 0.178,-0.075 0.58,-0.122c1.352,-0.158 -0.689,-0.339 0.419,0.099c-0.274,-0.108 -1.417,-0.958 -0.532,-0.216c-0.372,-0.313 -0.677,-0.698 -0.967,-1.085c0.64,0.852 -0.131,-0.329 -0.244,-0.619c-0.146,-0.504 -0.16,-0.469 -0.043,0.104c-0.043,-0.243 -0.071,-0.488 -0.084,-0.736c0.003,-0.547 -0.016,-0.492 -0.055,0.162c0.129,-0.561 0.077,-0.491 -0.155,0.209c0.26,-0.548 0.187,-0.475 -0.218,0.221c0.393,-0.506 0.313,-0.439 -0.243,0.197c0.497,-0.414 0.45,-0.387 -0.143,0.082c0.554,-0.292 0.593,-0.319 0.116,-0.082c0.648,-0.254 0.435,-0.188 1.396,-0.277c0.595,-0.009 0.662,-0.02 0.203,-0.032c0.297,0.03 0.593,0.079 0.885,0.146c0.521,0.143 0.557,0.146 0.107,0.01c0.25,0.107 0.491,0.229 0.725,0.365c0.425,0.292 0.449,0.283 0.071,-0.025c0.196,0.168 0.383,0.346 0.559,0.535c0.158,0.159 0.98,1.415 0.514,0.58c0.245,0.439 0.413,0.918 0.566,1.396c0.205,0.638 -0.003,-0.433 0.074,0.712c0.085,1.263 0.083,-0.093 -0.052,0.611c-0.151,0.795 0.422,-0.771 -0.207,0.446c0.419,-0.666 0.456,-0.766 0.109,-0.299c0.605,-0.62 0.678,-0.726 0.217,-0.316c0.69,-0.477 0.766,-0.558 0.224,-0.245c0.642,-0.279 0.675,-0.32 0.099,-0.123c0.972,-0.292 -0.462,0.019 -0.655,0.008c-0.852,-0.046 -1.698,-0.214 -2.525,-0.412c0.06,0.014 -1.235,-0.687 -0.758,-0.306c-0.208,-0.181 -0.398,-0.378 -0.571,-0.593c0.155,0.351 0.135,0.313 -0.063,-0.112c-0.431,-0.903 -0.373,-0.717 -0.116,-1.738c-0.154,0.614 0.393,-0.8 0.471,-0.958c-0.178,0.361 0.596,-0.789 0.734,-0.961c0.773,-0.958 1.578,-1.9 1.95,-3.195c0.209,-0.722 -0.139,-1.283 -0.678,-1.706Z" style="fill-rule:nonzero;"/><path d="M408.816,35.571c-0.572,-1.971 -3.532,-2.044 -5.182,-1.909c-2.927,0.238 -5.494,2.471 -7.364,4.53c-3.102,3.416 -4.294,9.447 -0.808,13.003c4.039,4.119 11.101,2.962 15.78,0.858c4.271,-1.919 7.646,-6.602 8.332,-11.192c0.625,-4.19 -0.761,-8.301 -4.428,-10.614c-4.502,-2.841 -10.691,-0.544 -14.847,1.757c-4.64,2.568 -8.366,7.541 -7.076,13.015c0.866,3.677 4.396,5.97 7.833,6.852c8.361,2.146 15.063,-5.879 16.006,-13.381c0.376,-2.991 -1.208,-4.566 -4.119,-4.694c-1.803,-0.078 -3.616,-0.229 -5.346,0.428c-1.949,0.738 -3.251,2.124 -4.902,3.285c-2.137,1.503 -5.571,5.492 -2.838,8.149c3.167,3.08 8.816,3.845 11.616,-0.452c-1.118,0.649 -2.235,1.299 -3.354,1.947c0.248,-0.037 0.497,-0.073 0.745,-0.11c1.9,-0.282 4.51,-2.407 3.559,-4.616c0.037,-0.173 0.075,-0.345 0.113,-0.518c-0.025,-1.048 -0.646,-2.24 -1.636,-2.691c-0.82,-0.373 -1.476,-0.748 -2.128,-1.384c-0.945,2.716 -1.892,5.433 -2.838,8.149c1.412,-0.99 2.786,-1.994 4.102,-3.106c-0.49,0.421 -1.043,0.73 -1.658,0.93c-0.861,0.15 -0.963,0.198 -0.308,0.142c0.888,-0.044 1.794,0.041 2.679,0.082c-1.373,-1.565 -2.746,-3.13 -4.119,-4.694c-0.105,0.827 -0.249,1.631 -0.453,2.44c0.176,-0.436 0.148,-0.37 -0.082,0.195c-0.587,1.439 0.667,-0.833 -0.146,0.34c-0.5,0.721 0.941,-0.632 0.327,-0.273c0.819,-0.331 0.942,-0.391 0.367,-0.182c-1.146,0.403 1.18,-0.133 -0.019,-0.009c-0.817,0.084 0.917,0.179 -0.451,-0.038c-1.285,-0.204 0.342,0.285 -0.832,-0.26c-0.32,-0.148 -1.701,-1.194 -0.763,-0.395c-0.417,-0.355 -0.765,-0.785 -1.081,-1.229c0.706,0.99 0.063,-0.033 -0.054,-0.391c0.118,0.687 0.146,0.778 0.085,0.274c-0.108,-1.063 -0.217,1.097 0.005,0.021c-0.203,0.986 -0.094,0.483 -0.749,1.172c0.222,-0.219 0.454,-0.425 0.697,-0.619c-1.075,0.906 0.334,-0.157 0.535,-0.271c1.305,-0.742 2.063,-0.968 3.169,-1.055c0.057,-0.004 0.935,0.168 0.41,-0.022c0.226,0.09 0.443,0.194 0.654,0.313c0.999,0.521 -0.607,-0.633 0.203,0.117c0.206,0.19 0.981,1.369 0.424,0.388c0.158,0.279 0.653,1.938 0.438,0.854c0.063,0.32 0.064,2.174 0.168,0.973c-0.031,0.364 -0.565,2.229 -0.111,0.981c-0.119,0.327 -0.995,1.765 -0.199,0.553c-0.872,1.327 0.563,-0.314 -0.693,0.738c0.632,-0.432 0.668,-0.471 0.11,-0.118c-1.25,0.763 0.981,-0.31 -0.464,0.218c-1.002,0.366 -0.799,0.25 -1.916,0.332c-0.65,0.048 -1.229,-0.031 -1.871,-0.149c-0.334,-0.062 -1.266,-0.675 -1.045,-0.473c-0.777,-0.711 -0.667,-1.161 -0.561,-1.776c0.125,-0.732 0.395,-1.107 1.369,-1.889c0.848,-0.68 2.879,-1.399 3.99,-2.454c0.581,-0.552 0.958,-1.268 0.725,-2.072Z" style="fill-rule:nonzero;"/><path d="M448.471,30.958c-2.894,-0.9 -6.3,1.757 -8.06,3.781c-1.542,1.773 -2.681,4.345 -2.279,6.737c0.814,4.849 5.962,6.615 10.341,6.303c5.527,-0.395 10.767,-4.47 13.168,-9.352c1.846,-3.753 0.388,-7.062 -3.396,-8.351c-2.676,-0.911 -6.153,-0.078 -8.798,0.507c-2.708,0.6 -5.559,1.634 -7.865,3.184c-3.475,2.334 -6.589,6.276 -4.002,10.419c0.766,1.226 2.663,1.764 3.92,2.155c2.562,0.798 5.082,1.273 7.782,1.122c5.227,-0.293 10.378,-3.967 10.793,-9.413c0.381,-5.01 -5.994,-6.593 -9.751,-6.827c-3.86,-0.241 -7.797,2.684 -7.751,6.803c0.021,1.979 0.356,4.021 1.283,5.778c2.309,4.376 9.144,1.026 9.62,-3.1c0.248,-2.146 -0.167,-3.995 -0.196,-6.112c-2.583,2.268 -5.167,4.535 -7.751,6.803c0.9,0.054 1.781,0.144 2.67,0.296c1.152,0.197 0.695,0.069 1.563,0.534c0.457,0.302 0.416,0.259 -0.123,-0.13c0.713,0.653 -0.354,-0.92 -0.056,-0.123c-0.739,-1.979 0.737,-3.774 2.241,-4.796c-0.518,0.283 -0.383,0.236 0.405,-0.141c-0.244,0.1 -1.464,0.307 -0.278,0.119c-0.938,0.148 -1.295,0.083 -1.866,0.014c-1.087,-0.131 -2.143,-0.447 -3.179,-0.787c-1.384,-0.454 0.604,0.358 -0.482,-0.134c-1.002,-0.453 0.561,0.6 0.177,0.215c0.728,0.729 0.614,2.432 0.126,3.725c0.241,-0.478 0.061,-0.183 -0.539,0.887c0.506,-0.707 -1.272,1.262 -0.579,0.642c0.993,-0.889 -1.43,0.902 -0.181,0.148c0.383,-0.23 0.785,-0.428 1.188,-0.62c-1.813,0.867 -0.144,0.078 0.295,-0.088c0.999,-0.377 2.024,-0.687 3.057,-0.953c0.346,-0.09 1.859,-0.391 0.205,-0.071c0.494,-0.095 0.993,-0.164 1.492,-0.223c0.456,-0.054 0.914,-0.076 1.373,-0.085c0.598,-0.012 -1.189,-0.17 0.149,0.048c1.118,0.183 -0.951,-0.506 -0.058,-0.023c-0.024,-0.014 -0.816,-0.847 -0.846,-0.926c-0.357,-0.966 -0.243,-1.318 0.114,-2.219c-0.479,1.207 0.895,-1.143 -0.371,0.528c0.364,-0.327 0.294,-0.256 -0.21,0.214c-1.234,1.174 0.813,-0.411 -0.568,0.409c-0.583,0.302 -0.62,0.322 -0.111,0.063c-0.118,0.046 -1.603,0.338 -0.591,0.186c-0.304,0.037 -0.609,0.059 -0.915,0.063c0.896,-0.038 -0.387,-0.077 -0.521,-0.101c-0.505,-0.14 -0.538,-0.129 -0.097,0.031c-0.359,-0.128 -0.691,-0.317 -1.02,-0.508c-0.412,-0.283 -0.399,-0.27 0.038,0.038c-0.175,-0.16 -0.749,-1.032 -0.201,-0.102c-0.448,-0.762 -0.097,-0.35 -0.175,0.073c-0.058,0.316 -0.193,0.594 -0.408,0.833c0.252,-0.405 0.603,-0.762 0.896,-1.137c0.682,-0.867 1.413,-1.521 1.832,-2.584c0.66,-1.664 0.313,-3.187 -1.504,-3.752Z" style="fill-rule:nonzero;"/><path d="M445.738,32.828c-4.169,1.029 -7.743,5.054 -8.97,9.043c-1.574,5.117 2.233,8.626 7.021,9.363c7.169,1.105 15.854,-1.985 16.919,-10.141c0.633,-4.842 -1.445,-11.13 -6.182,-13.301c-3.47,-1.592 -7.087,-0.453 -9.93,1.858c-3.041,2.474 -5.869,7.872 -4.172,11.637c1.571,3.484 5.894,1.488 7.672,-0.621c-1.158,1.374 1.601,-2.147 1.669,-2.31c0.222,-0.523 1.074,-2.932 0.559,-1.541c0.161,-0.435 0.363,-0.852 0.575,-1.263c-1.022,1.977 1.179,-1.088 -0.699,0.845c0.954,-0.982 -1.135,0.678 -0.385,0.248c-1.047,0.427 -1.311,0.548 -0.789,0.363c0.506,-0.135 0.248,-0.084 -0.777,0.153c0.751,-0.104 -1.426,-0.196 -0.316,-0.014c1.092,0.18 -1.021,-0.493 0.004,0.013c0.258,0.128 0.497,0.293 0.732,0.458c-1.21,-0.853 -0.331,-0.252 -0.051,0.022c0.529,0.519 1.011,1.094 1.44,1.696c0.706,0.989 -0.292,-0.563 0.085,0.122c0.169,0.308 0.308,0.625 0.435,0.951c0.126,0.324 0.225,0.658 0.318,0.993c0.109,0.452 0.089,0.334 -0.061,-0.353c0.05,0.251 0.077,0.506 0.105,0.76c0.036,0.334 0.038,0.669 0.032,1.003c0.023,-1.432 0.028,-0.358 -0.05,0.029c-0.247,1.234 0.354,-0.809 0.03,-0.06c-0.186,0.427 0.83,-1.037 -0.09,0.071c1.408,-1.698 -0.806,0.312 0.947,-0.862c-1.141,0.764 0.748,-0.223 -0.119,0.115c-0.245,0.096 -1.678,0.424 -0.462,0.194c-0.667,0.126 -1.349,0.162 -2.024,0.187c-0.94,0.034 -2.01,0.063 -3.182,-0.389c-0.66,-0.254 -0.781,-0.26 -1.08,-0.561c-0.287,-0.359 -0.309,-0.392 -0.065,-0.098c0.246,0.543 -0.021,-0.225 -0.022,-0.47c0.002,0.332 0.079,-0.095 0.184,-0.345c0.229,-0.547 0.494,-1.08 0.777,-1.601c0.354,-0.654 1.357,-1.937 1.971,-2.828c1.27,-1.843 0.321,-3.952 -2.049,-3.366Z" style="fill-rule:nonzero;"/><path d="M487.417,256.624c-12.51,11.655 -23.154,25.478 -34.185,38.51c-11.256,13.3 -22.669,26.467 -34.22,39.512c-22.998,25.971 -46.827,51.209 -71.904,75.187c4.091,1.457 8.182,2.915 12.271,4.373c0.626,-4.143 1.472,-7.335 -2.442,-10.055c-1.634,-1.135 -4.521,-0.508 -6.039,0.489c-4.222,2.771 -6.506,5.805 -7.267,10.841c-1.161,7.687 7.645,8.797 12.271,4.373c25.325,-24.215 49.371,-49.73 72.68,-75.883c11.597,-13.011 22.947,-26.236 34.176,-39.564c11.234,-13.336 23.341,-26.692 32.429,-41.62c3.759,-6.175 -2.43,-11.14 -7.77,-6.163Z" style="fill-rule:nonzero;"/><path d="M345.352,324.218c4.039,4.188 12.049,3.469 17.33,2.742c7.643,-1.053 15.172,-3.375 22.459,-5.837c15.211,-5.138 30.482,-10.29 45.402,-16.227c11.513,-4.581 22.549,-9.873 32.959,-16.588c4.337,-2.798 8.597,-5.717 12.822,-8.679c3.981,-2.791 8.382,-5.004 9.861,-9.993c1.065,-3.592 -1.933,-5.573 -5.014,-5.713c-3.489,-0.157 -6.904,3.324 -9.011,4.82c-3.87,2.747 -7.79,5.423 -11.749,8.042c-9.668,6.395 -19.801,11.49 -30.531,15.894c-13.771,5.649 -27.953,10.229 -41.958,15.245c-6.843,2.451 -13.695,4.836 -20.769,6.533c-6.516,1.564 -13.835,1.477 -19.92,4.35c-1.67,0.79 -3.481,3.753 -1.881,5.411Z" style="fill-rule:nonzero;"/><path d="M343.614,320.683c-0.791,6.77 2.009,14.197 3.539,20.72c2.051,8.736 3.246,17.635 3.646,26.6c0.386,8.667 0.079,17.31 -2.21,25.72c-0.812,2.983 -2.19,5.906 -3.608,7.957c-1.721,2.49 -5.036,3.805 -7.386,7.06c-2.377,3.293 -2.517,9.595 3.406,8.549c5.145,-0.909 8.819,-3.69 12.303,-7.456c5.546,-5.995 8.357,-14.09 9.829,-21.989c3.233,-17.35 0.982,-37.318 -4.708,-53.964c-1.828,-5.348 -4.461,-13.602 -10.393,-15.762c-1.737,-0.634 -4.186,0.573 -4.418,2.565Z" style="fill-rule:nonzero;"/><path d="M67.615,120.972c15.776,1.599 31.837,1.467 47.683,1.643c16.425,0.182 32.853,0.068 49.276,-0.211c32.883,-0.561 65.747,-1.926 98.597,-3.471c32.482,-1.526 65.042,-2.628 97.492,-4.698c29.914,-1.909 59.632,-8.725 89.707,-5.64c1.109,0.145 2.22,0.267 3.333,0.367c0.818,-2.391 1.636,-4.78 2.454,-7.171c-3.699,-0.137 -7.126,-0.04 -10.78,0.571c-2.179,0.365 -5.041,4.121 -1.739,5.087c3.371,0.987 6.563,1.323 10.065,1.513c3.67,0.199 8.243,-6.569 3.361,-7.129c-14.224,-1.632 -28.845,-0.27 -43.03,1.121c-15.052,1.477 -30.034,3.584 -45.096,4.962c-15.813,1.446 -31.762,1.744 -47.619,2.529c-16.355,0.81 -32.711,1.652 -49.066,2.458c-65.673,3.231 -131.333,5.439 -197.08,3.335c-1.981,-0.063 -3.95,-0.04 -5.933,-0.019c-2.176,0.025 -4.605,4.45 -1.625,4.753Z" style="fill-rule:nonzero;"/><path d="M69.241,154.925c30.08,2.457 60.589,1.851 90.732,1.051c31.748,-0.842 63.471,-2.441 95.191,-3.958c31.771,-1.52 63.548,-2.967 95.351,-3.595c31.583,-0.625 63.259,-0.578 94.798,-2.482c1.854,-0.112 3.695,-0.225 5.554,-0.256c3.124,-0.052 6.632,-6.432 2.34,-6.839c-3.97,-0.378 -7.337,-0.159 -11.228,0.661c-1.443,0.304 -3.855,3.72 -1.559,4.531c3.564,1.26 6.654,1.658 10.446,1.646c0.491,-2.293 0.983,-4.586 1.475,-6.879c-15.647,1.986 -31.801,1.696 -47.552,2.022c-15.741,0.326 -31.479,0.729 -47.22,0.991c-31.784,0.53 -63.546,2.005 -95.294,3.553c-31.765,1.549 -63.525,3.203 -95.313,4.203c-30.852,0.971 -61.604,0.657 -92.457,0.554c-1.205,-0.005 -2.412,-0.013 -3.617,-0.022c-2.245,-0.017 -4.632,4.575 -1.647,4.819Z" style="fill-rule:nonzero;"/><path d="M68.053,194.996c31.851,1.303 64.182,-1.561 95.951,-3.658c32.773,-2.165 65.51,-4.84 98.268,-7.227c32.769,-2.387 65.564,-4.453 98.407,-5.489c16.402,-0.518 32.813,-0.729 49.224,-0.612c15.631,0.111 31.348,0.196 46.876,2.095c0.518,-2.415 1.035,-4.829 1.552,-7.243c-2.488,0.555 -5.023,0.679 -7.564,0.785c-3.044,0.126 -6.689,6.258 -2.335,6.826c3.609,0.471 6.75,0.435 10.284,-0.525c3.496,-0.949 5.666,-7.43 0.609,-7.286c-15.375,0.437 -30.766,-0.577 -46.147,-0.728c-16.413,-0.16 -32.828,0.093 -49.233,0.582c-32.85,0.979 -65.655,3.104 -98.429,5.496c-32.767,2.393 -65.511,5.092 -98.29,7.324c-32.691,2.227 -65.49,2.713 -98.162,4.949c-2.594,0.176 -4.462,4.57 -1.011,4.711Z" style="fill-rule:nonzero;"/><path d="M67.924,234.827c28.087,2.776 57.109,0.423 85.202,-1.278c30.19,-1.828 60.33,-4.404 90.485,-6.715c31.188,-2.391 62.287,-3.113 93.559,-3.392c10.967,-0.098 22.013,-0.737 32.965,-0.164c7.076,0.37 14.152,0.707 21.231,0.978c12.147,0.465 24.329,0.793 36.481,0.354c6.063,-0.219 16.884,0.434 21.186,-4.852c-1.582,0.719 -3.164,1.438 -4.746,2.156c0.668,0.106 1.336,0.213 2.004,0.319c4.276,0.681 9.091,-7.04 3.76,-7.975c-1.781,-0.312 -3.543,-0.534 -5.351,-0.542c-2.494,-0.01 -6.196,4.697 -2.967,6.271c1.604,0.782 2.803,1.778 4.558,2.246c0.915,-2.674 1.83,-5.348 2.744,-8.021c-1.438,0.087 -2.885,0.042 -4.182,0.782c-1.041,0.594 -1.78,1.45 -2.341,2.494c0.988,-1.842 0.473,-0.928 1.139,-1.353c-1.459,0.931 -4.026,1.181 -6.138,1.41c-7.731,0.841 -15.582,0.795 -23.348,0.751c-14.887,-0.082 -29.76,-0.81 -44.625,-1.549c-13.463,-0.671 -27.191,0.271 -40.675,0.423c-16.109,0.182 -32.218,0.433 -48.315,1.111c-29.948,1.262 -59.853,4.473 -89.731,6.81c-20.521,1.605 -41.058,3.048 -61.619,4.035c-19.967,0.959 -39.954,0.861 -59.913,1.718c-1.78,0.077 -3.892,3.733 -1.363,3.983Z" style="fill-rule:nonzero;"/><path d="M63.031,276.522c14.854,3.182 30.623,1.981 45.676,1.083c15.935,-0.952 31.814,-2.676 47.743,-3.738c32.613,-2.178 65.495,-2.505 98.172,-3.129c63.686,-1.215 127.582,0.725 191.036,-5.946c3.111,-0.327 6.219,-0.686 9.323,-1.069c0.211,-2.519 0.422,-5.037 0.633,-7.556c-2.108,0.71 -4.337,0.909 -6.537,1.131c-2.783,0.28 -6.455,5.672 -2.221,6.491c3.241,0.628 5.988,0.711 9.156,-0.274c3.414,-1.062 5.936,-8.194 0.633,-7.556c-63.282,7.628 -127.049,6.449 -190.657,7.629c-32.906,0.609 -65.796,1.918 -98.683,3.176c-15.919,0.608 -31.804,2.486 -47.672,3.83c-15.943,1.352 -31.828,1.993 -47.819,2.383c-2.571,0.063 -5.116,0.187 -7.685,0.334c-1.435,0.081 -3.143,2.773 -1.098,3.211Z" style="fill-rule:nonzero;"/><path d="M53.69,315.643c28.403,1.989 57.232,0.11 85.659,-0.651c29.821,-0.798 59.638,-1.79 89.457,-2.648c29.808,-0.857 59.618,-1.648 89.435,-2.153c14.563,-0.246 29.127,-0.428 43.692,-0.544c14.405,-0.115 29.007,-0.891 43.385,-0.479c3.764,0.107 7.519,-7.616 2.702,-7.9c-3.701,-0.219 -7.11,0.007 -10.757,0.721c-2.384,0.468 -5.442,4.337 -1.889,5.521c3.325,1.109 6.453,1.551 9.943,1.658c0.567,-2.649 1.136,-5.298 1.703,-7.947c-6.545,0.021 -13.073,0.709 -19.644,0.744c-7.285,0.039 -14.57,0.104 -21.855,0.183c-14.576,0.157 -29.152,0.399 -43.727,0.689c-29.824,0.594 -59.644,1.378 -89.46,2.259c-29.165,0.861 -58.328,1.783 -87.491,2.692c-29.842,0.931 -60.073,0.665 -89.78,3.84c-1.693,0.18 -3.988,3.831 -1.373,4.015Z" style="fill-rule:nonzero;"/><path d="M51.875,365.664c11.889,-0.441 23.896,-2.694 35.759,-3.809c12.733,-1.197 25.513,-1.881 38.292,-2.333c25.609,-0.906 51.244,-0.626 76.863,-0.553c51.326,0.147 102.604,-5.804 153.925,-3.496c4.276,0.192 7.175,-7.583 1.637,-7.641c-1.995,-0.021 -3.7,-0.174 -5.622,-0.665c-2.937,-0.75 -6.736,4.01 -3.677,6.04c2.182,1.447 4.116,1.954 6.7,2.222c0.867,-2.532 1.732,-5.064 2.599,-7.597c-51.372,-2.105 -102.67,3.984 -154.039,4.035c-25.644,0.024 -51.29,-0.118 -76.921,0.819c-12.794,0.467 -25.574,1.268 -38.32,2.463c-12.152,1.14 -25.092,2.265 -36.803,5.83c-2.182,0.664 -3.686,4.808 -0.393,4.685Z" style="fill-rule:nonzero;"/></g></g></svg>