<?xml version="1.0" encoding="UTF-8" standalone="no"?><!DOCTYPE svg PUBLIC "-//W3C//DTD SVG 1.1//EN" "http://www.w3.org/Graphics/SVG/1.1/DTD/svg11.dtd"><svg width="100%" height="100%" viewBox="0 0 279 526" version="1.1" xmlns="http://www.w3.org/2000/svg" xmlns:xlink="http://www.w3.org/1999/xlink" xml:space="preserve" style="fill-rule:evenodd;clip-rule:evenodd;stroke-linejoin:round;stroke-miterlimit:1.41421;"><g id="parrot"><path d="M190.726,35.406c-0.834,4.838 -3.521,10.035 -5.228,14.63c-2.373,6.389 -4.919,12.706 -7.888,18.844c-1.808,3.734 -3.77,8.515 -6.876,11.349c-0.104,0.094 1.813,-0.234 1.327,-0.359c-1.193,-0.31 -1.628,-0.069 -2.626,0.499c-1.637,0.935 -2.905,3.538 -1.409,5.133c5.994,6.388 14.652,-14.646 15.896,-17.475c4.451,-10.13 9.648,-21.661 8.051,-32.871c-0.11,-0.766 -1.154,-0.303 -1.247,0.25Z" style="fill:#010101;fill-rule:nonzero;"/><path d="M187.599,36.417c12.612,-3.521 25.447,4.798 34.479,12.636c9.103,7.9 16.437,17.49 20.827,28.74c4.353,11.149 5.745,23.634 3.47,35.401c-1.122,5.809 -3.451,11.312 -6.914,16.103c-3.714,5.137 -8.654,7.97 -14.117,10.88c-2.889,1.539 -2.913,7.022 1.15,5.546c27.585,-10.031 31.135,-44.811 22.895,-68.859c-4.637,-13.536 -13.803,-24.665 -24.785,-33.617c-10.05,-8.191 -25.149,-16.723 -37.273,-8.121c-0.584,0.415 -0.753,1.575 0.268,1.291Z" style="fill:#010101;fill-rule:nonzero;"/><path d="M165.75,77.929c-2.203,7.517 6.042,12.128 11.971,13.994c8.873,2.792 17.841,3.98 26.261,8.267c17.096,8.702 20.157,26.177 17.227,43.698c-0.233,1.393 0.348,2.787 1.867,3.055c4.854,0.859 6.5,-2.775 6.114,-6.777c-0.228,-2.38 -3.062,-2.097 -4.42,-0.866c-1.479,1.34 -1.777,2.639 -2.191,4.495c0.789,-1.026 1.58,-2.054 2.371,-3.079c-0.142,0.086 -0.285,0.172 -0.428,0.259c0.881,-0.179 1.762,-0.359 2.643,-0.538c-0.314,-0.054 -0.631,-0.107 -0.945,-0.161c0.623,1.02 1.245,2.037 1.867,3.055c2.705,-16.835 1.008,-33.803 -13.191,-44.936c-7.121,-5.583 -16.354,-8.465 -25.098,-10.235c-4.39,-0.889 -8.839,-1.59 -13.076,-3.097c-4.52,-1.608 -6.788,-4.081 -9.594,-7.75c-0.439,-0.571 -1.246,0.169 -1.378,0.616Z" style="fill:#010101;fill-rule:nonzero;"/><path d="M162.566,85.072c-7.796,4.325 -10.228,12.112 -11.796,20.394c-0.239,1.26 0.336,2.553 1.703,2.786c15.18,2.587 29.841,-3.757 37.784,-16.784c2.185,-3.583 -1.501,-6.661 -4.563,-3.619c-1.365,1.357 -2.519,2.605 -3.315,4.372c-0.421,0.933 -0.201,2.104 0.935,2.332c2.533,0.504 4.391,-0.602 6.229,-2.319c-1.521,-1.207 -3.042,-2.413 -4.563,-3.619c-3.207,5.262 -6.946,9.505 -12.899,11.541c-5.715,1.955 -11.686,1.06 -17.516,1.98c0.848,0.683 1.694,1.366 2.541,2.05c0.472,-6.225 2.227,-12.142 7.167,-16.268c1.784,-1.49 0.499,-4.069 -1.707,-2.846Z" style="fill:#010101;fill-rule:nonzero;"/><path d="M110.238,113.687c-11.692,-0.131 -21.444,10.218 -28.11,18.692c-9.275,11.79 -15.208,25.666 -20.424,39.6c-5.56,14.851 -10.673,30.125 -18.546,43.949c-7.712,13.536 -17.667,25.644 -24.769,39.555c2.245,-0.182 4.49,-0.363 6.734,-0.545c-0.066,-1.361 -0.287,-2.601 -0.573,-3.931c-0.72,-3.343 -5.652,-0.056 -6.041,1.945c-0.276,1.427 -0.423,2.814 -0.492,4.263c-0.203,4.261 5.698,1.488 6.734,-0.545c6.417,-12.595 15.094,-23.806 22.436,-35.847c7.783,-12.764 12.98,-26.857 18.125,-40.841c4.928,-13.393 9.645,-26.723 17.177,-38.921c7.162,-11.597 15.857,-19.556 27.83,-25.922c0.637,-0.337 0.862,-1.441 -0.081,-1.452Z" style="fill:#010101;fill-rule:nonzero;"/><path d="M108.24,117.67c12.445,-0.68 22.617,6.465 29.737,16.148c7.608,10.35 9.515,24.896 10.356,37.357c1.753,25.947 -6.791,51.062 -19.878,73.134c-13.869,23.389 -32.873,43.733 -54.271,60.37c-22.061,17.153 -46.836,29.887 -71.388,42.982c1.509,0.844 3.018,1.687 4.527,2.529c0.586,-2.051 0.453,-3.729 0.636,-5.813c0.232,-2.674 -3.027,-2.697 -4.242,-0.801c-1.314,2.053 -2.041,4.081 -3.002,6.306c-1.371,3.168 1.571,4.704 4.229,3.396c50.551,-24.843 98.635,-56.563 128.541,-105.558c13.329,-21.835 21.917,-46.489 21.645,-72.266c-0.239,-22.71 -6.974,-52.474 -31.897,-59.63c-5.172,-1.484 -9.857,-1.227 -14.886,0.559c-0.564,0.204 -1.03,1.337 -0.107,1.287Z" style="fill:#010101;fill-rule:nonzero;"/><path d="M84.269,239.125c-5.231,10.046 -13.301,19.314 -20.882,27.642c-8.268,9.079 -17.306,17.43 -25.979,26.114c-16.122,16.145 -31.294,34.154 -36.192,57.032c2.356,-0.476 4.714,-0.951 7.071,-1.428c-0.013,-2.261 -0.212,-4.092 -1.073,-6.179c-1.142,-2.763 -4.498,-0.067 -5.065,1.632c-0.769,2.303 -0.993,4.421 -1.005,6.836c-0.022,4.466 6.455,1.46 7.071,-1.428c4.934,-23.123 21.538,-40.799 37.522,-57.211c8.002,-8.215 16.117,-16.342 23.479,-25.147c7.148,-8.553 12.189,-17.318 16.083,-27.673c0.301,-0.801 -0.734,-0.76 -1.03,-0.19Z" style="fill:#010101;fill-rule:nonzero;"/><path d="M69.287,225.559c-9.601,11.511 -21.521,21.261 -31.718,32.281c-5.426,5.863 -10.523,12.116 -15.563,18.313c-2.958,3.64 -5.823,7.286 -7.982,11.455c-2.128,4.11 -17.412,38.634 -2.407,33.793c2.067,-0.667 5.117,-5.666 1.295,-6.043c-4.497,-0.444 6.941,-26.432 8.688,-29.243c6.594,-10.608 15.325,-20.679 23.458,-30.134c8.534,-9.921 16.81,-19.772 24.878,-30.07c0.398,-0.506 -0.304,-0.767 -0.649,-0.352Z" style="fill:#010101;fill-rule:nonzero;"/><path d="M29.888,245.645c0.587,0 0.986,-1.05 0.225,-1.05c-0.589,0 -0.987,1.05 -0.225,1.05Z" style="fill:#010101;fill-rule:nonzero;"/><path d="M159.323,156.91c1.409,5.396 1.743,11.306 2.724,16.818c0.887,4.983 1.608,9.989 2.272,15.007c1.411,10.673 2.144,21.434 2.538,32.188c0.714,19.436 -0.97,39.556 -5.835,58.402c-4.565,17.688 -13.457,33.327 -27.807,44.79c-12.755,10.19 -28.339,16.454 -42.496,24.375c1.006,1.679 2.012,3.356 3.02,5.034c1.176,-1.242 2.224,-2.39 3.275,-3.738c2.587,-3.313 -1.389,-5.563 -4.181,-3.314c-1.073,0.785 -2.064,1.663 -2.974,2.634c-2.84,2.763 -1.016,7.289 3.021,5.034c14.888,-8.319 30.663,-15.095 44.233,-25.581c15.205,-11.749 24.474,-28.317 29.845,-46.511c5.631,-19.068 6.556,-39.564 6.271,-59.332c-0.162,-11.214 -1.812,-22.666 -3.644,-33.71c-0.85,-5.111 -1.936,-10.172 -3.139,-15.211c-1.471,-6.161 -4.119,-11.544 -6.079,-17.479c-0.207,-0.624 -1.183,0.052 -1.044,0.594Z" style="fill:#010101;fill-rule:nonzero;"/><path d="M47.189,338.538c-1.201,9.292 -0.586,18.976 -0.414,28.322c0.196,10.559 0.436,21.109 0.354,31.671c-0.099,12.917 -0.277,25.877 -1.596,38.737c-2.943,28.704 -12.604,56.355 -36.383,74.261c1.545,1.226 3.091,2.451 4.636,3.677c1.925,-3.065 2.852,-6.011 1.537,-9.521c-1.114,-2.979 -4.792,-0.019 -5.362,1.728c-0.479,1.459 -0.743,3.631 -1.536,4.896c-2.437,3.88 1.336,6.16 4.635,3.677c24.134,-18.174 35.427,-46.116 38.979,-75.378c1.64,-13.521 1.801,-27.155 1.68,-40.755c-0.085,-9.646 -0.521,-19.264 -1.068,-28.892c-0.622,-10.936 -0.563,-22.26 -2.133,-33.096c-0.291,-2.005 -3.132,-0.841 -3.329,0.673Z" style="fill:#010101;fill-rule:nonzero;"/><path d="M87.751,351.637c-4.092,5.396 -4.574,13.438 -5.413,19.903c-1.342,10.345 -1.836,20.813 -2.792,31.198c-0.925,10.042 -1.935,20.178 -4.358,29.987c-1.538,6.222 -3.485,12.151 -9.483,15.048c-2.516,1.215 -3.396,5.859 0.321,5.737c7.038,-0.232 11.416,-8.231 13.511,-13.975c3.382,-9.273 4.315,-19.362 5.131,-29.131c1.634,-19.565 1.686,-39.062 4.27,-58.547c0.106,-0.789 -0.835,-0.683 -1.187,-0.22Z" style="fill:#010101;fill-rule:nonzero;"/><path d="M67.998,449.484c-2.631,15.925 -6.265,31.56 -13.853,45.949c-7.309,13.864 -19.684,26.175 -36.487,21.884c-0.777,2.271 -1.555,4.542 -2.331,6.813c3.083,-0.027 5.643,-0.574 7.389,-3.302c0.563,-0.878 1.216,-2.811 -0.229,-3.354c-2,-0.753 -3.591,-0.227 -5.69,-0.196c-3.17,0.045 -6.546,5.76 -2.331,6.813c19.109,4.774 34.12,-8.196 43.294,-23.67c4.917,-8.291 8.128,-17.518 10.34,-26.865c1.863,-7.873 2.973,-16.514 1.035,-24.438c-0.151,-0.618 -1.072,-0.028 -1.137,0.366Z" style="fill:#010101;fill-rule:nonzero;"/><path d="M150.718,106.391c-6.94,3.143 -5.955,13.822 -4.935,19.838c1.271,7.483 3.475,17.717 8.695,23.548c1.043,1.165 2.873,-0.444 2.858,-1.643c-0.08,-6.837 -3.695,-13.83 -5.426,-20.368c-1.955,-7.384 -1.76,-13.313 0.391,-20.491c0.321,-1.066 -0.915,-1.186 -1.583,-0.884Z" style="fill:#010101;fill-rule:nonzero;"/><path d="M127.218,343.658c4.079,0.476 7.374,0.656 10.979,2.878c3.59,2.211 5.883,6.037 7.417,9.849c3.008,7.468 2.966,16.898 -0.369,24.235c2.143,-0.173 4.283,-0.347 6.427,-0.521c0.132,-2.386 0.196,-4.727 -1.053,-6.812c-1.147,-1.917 -3.75,-0.799 -4.533,0.925c-1.191,2.617 -1.359,5.199 -1.196,8.061c0.218,3.789 5.524,1.89 6.427,-0.521c3.524,-9.402 3.239,-20.072 -1.036,-29.197c-3.952,-8.438 -13.353,-14.493 -22.678,-10.694c-0.564,0.23 -1.562,1.661 -0.385,1.797Z" style="fill:#010101;fill-rule:nonzero;"/><path d="M121.554,350.303c4.446,0.712 7.809,2.008 10.081,6.103c1.604,2.893 2.459,6.92 2.707,10.179c0.194,2.558 0.011,5.188 -0.204,7.736c-0.121,1.432 -0.299,2.856 -0.546,4.271c-0.104,0.445 -0.22,0.89 -0.353,1.328c-0.735,2.601 5.292,-1.088 4.451,-1.896c-2.19,-2.102 -5.505,0.746 -5.563,3.196c-0.114,4.852 5.587,3.712 7.163,0.327c1.729,-3.718 1.221,-9.103 1.139,-13.089c-0.215,-10.513 -6.127,-23.122 -18.456,-20.108c-0.754,0.183 -1.594,1.764 -0.419,1.953Z" style="fill:#010101;fill-rule:nonzero;"/><path d="M140.872,345.386c30.837,-9.333 63.678,-12.587 93.84,-24.036c2.568,-0.976 4.954,-6.731 0.515,-6.149c-2.811,0.368 -5.346,1.143 -7.932,2.288c-1.65,0.732 -2.289,3.306 -0.325,3.964c2.201,0.739 4.618,0.044 6.903,0.066c0.17,-2.05 0.343,-4.1 0.515,-6.149c-15.249,5.137 -30.668,9.001 -46.333,12.64c-16.029,3.723 -32.227,7.358 -47.37,13.962c-1.838,0.8 -2.551,4.242 0.187,3.414Z" style="fill:#010101;fill-rule:nonzero;"/><path d="M151.209,377.22c3.789,3.353 12.66,-0.894 16.545,-2.272c9.086,-3.229 18.048,-6.521 27.273,-9.37c23.56,-7.271 47.271,-13.869 71.654,-17.753c-0.379,-1.764 -0.759,-3.526 -1.14,-5.291c-1.797,1.4 -4.34,2.082 -6.307,3.243c-1.518,0.897 -2.215,3.618 0.205,3.646c3.871,0.043 6.642,-0.255 9.756,-2.725c1.821,-1.443 2.227,-5.859 -1.14,-5.291c-22.397,3.789 -44.321,9.654 -65.974,16.474c-9.465,2.979 -18.987,6.006 -28.126,9.896c-3.833,1.632 -7.657,3.306 -11.573,4.737c-3.398,1.244 -7.076,1.729 -10.401,3.094c-0.466,0.189 -1.391,1.064 -0.772,1.612Z" style="fill:#010101;fill-rule:nonzero;"/><path d="M228.98,326.919c15.323,-5.351 41.621,-0.018 42.553,19.705c1.06,-1.369 2.117,-2.737 3.174,-4.106c-1.73,0.758 -3.506,1.346 -5.22,2.154c-1.316,0.621 -2.355,2.87 -0.817,3.816c2.168,1.338 4.082,1.066 6.365,0.102c1.594,-0.674 3.36,-2.152 3.175,-4.106c-2.169,-22.629 -32.388,-29.037 -49.642,-19.549c-1.018,0.561 -1.055,2.497 0.412,1.984Z" style="fill:#010101;fill-rule:nonzero;"/><path d="M84.051,399.987c7.577,0.604 16.167,-3.813 23.29,-6.152c6.472,-2.127 15.345,-5.983 22.289,-4.313c1.183,0.285 2.396,-0.851 2.659,-1.917c2.188,-8.891 -17.249,-1.77 -20.153,-0.751c-9.397,3.296 -18.376,7.792 -27.672,11.207c-0.616,0.225 -1.661,1.827 -0.413,1.926Z" style="fill:#010101;fill-rule:nonzero;"/><path d="M86.96,164.376c-3.181,4.271 -7.333,9.718 -6.24,15.424c0.74,3.861 4.173,5.436 7.791,5.371c5.287,-0.095 10.423,-3.542 14.229,-6.896c4.887,-4.305 11.041,-11.972 10.525,-18.887c-0.119,-1.593 -2.083,-0.939 -2.725,-0.132c-3.253,4.093 -5.196,9.064 -8.568,13.132c-2.735,3.299 -6.377,6.007 -10.438,7.393c-10.688,3.647 -6.219,-10.357 -3.768,-15.124c0.301,-0.586 -0.514,-0.673 -0.806,-0.281Z" style="fill:#010101;fill-rule:nonzero;"/><path d="M107.233,192.57c-3.227,7.125 -3.708,14.222 -4.455,21.896c-0.117,1.206 0.5,2.27 1.869,2.129c6.684,-0.686 12.075,-5.706 16.262,-10.57c3.742,-4.348 9.943,-12.904 8.482,-19c-0.375,-1.563 -2.544,-0.438 -3.113,0.252c-3.363,4.079 -4.883,9.747 -7.928,14.154c-3.419,4.948 -7.625,8.667 -13.325,10.646c0.846,0.475 1.69,0.949 2.535,1.424c-0.695,-6.823 -0.998,-14.282 1.19,-20.857c0.332,-0.997 -1.216,-0.735 -1.517,-0.074Z" style="fill:#010101;fill-rule:nonzero;"/><path d="M101.817,47.264c-5.446,12.168 -12.819,23.146 -19.302,34.749c-6.771,12.12 -11.676,25.129 -15.852,38.337c-4.246,13.428 -7.387,27.199 -10.645,40.89c-3.251,13.664 -6.894,27.25 -9.804,40.982c-0.479,2.254 2.688,1.643 3.31,0.155c10.526,-25.174 14.019,-52.982 21.63,-79.107c4.056,-13.915 9.085,-27.52 15.645,-40.458c5.878,-11.594 13.543,-22.547 16.095,-35.498c0.147,-0.743 -0.865,-0.523 -1.077,-0.05Z" style="fill:#010101;fill-rule:nonzero;"/><path d="M106.997,42.602c2.527,-18.867 23.396,-30.285 39.992,-34.061c16.125,-3.67 37.523,-0.207 40.009,19.324c1.425,-1.514 2.849,-3.026 4.272,-4.541c-2.622,-0.001 -5.19,0.386 -7.802,0.461c-1.746,0.051 -3.505,2.58 -1.813,3.833c2.664,1.975 4.857,2.486 8.156,2.517c2.054,0.019 4.545,-2.426 4.271,-4.541c-3.026,-23.387 -27.007,-27.465 -46.495,-23.115c-19.407,4.332 -42.357,18.48 -42.311,40.47c0.002,1.052 1.619,0.407 1.721,-0.347Z" style="fill:#010101;fill-rule:nonzero;"/><path d="M103.034,238.526c-0.199,0.233 -1.158,0.286 -1.53,0.711c-1.066,1.222 -1.769,2.602 -2.39,4.092c-1.162,2.789 -0.516,5.404 1.015,7.845c2.428,3.872 7.508,1.871 10.304,-0.296c5.024,-3.895 8.729,-9.405 12.106,-14.71c2.176,-3.419 6.973,-9.526 6.447,-13.883c-0.133,-1.099 -1.414,-0.992 -2.063,-0.403c-2.118,1.916 -3.418,4.914 -4.868,7.333c-2.548,4.252 -5.112,8.459 -8.099,12.423c-1.948,2.584 -5.085,7.21 -8.636,7.625c-1.788,0.208 -2.973,-2.638 -3.193,-3.898c-0.321,-1.821 0.901,-3.745 1.532,-5.377c0.067,-0.178 -0.053,-1.345 -0.15,-1.205c0.264,-0.387 -0.222,-0.554 -0.475,-0.257Z" style="fill:#010101;fill-rule:nonzero;"/><path d="M84.562,364.231c10.225,-3.151 21.057,-5.295 30.944,-9.396c0.69,-0.286 1.415,-1.896 0.145,-1.729c-10.613,1.382 -21.319,5.374 -31.182,9.405c-0.952,0.388 -1.268,2.138 0.093,1.72Z" style="fill:#010101;fill-rule:nonzero;"/><path d="M16.473,260.829c-3.013,4.345 -4.39,8.776 -3.596,14.141c0.642,4.34 3.717,8.165 8.436,6.941c2.019,-0.521 4.596,-5.247 1.188,-5.536c-3.01,-0.257 -4.083,-1.32 -5.045,-4.277c-1.022,-3.14 -0.872,-7.915 -0.061,-11.094c0.155,-0.612 -0.683,-0.52 -0.922,-0.175Z" style="fill:#010101;fill-rule:nonzero;"/><path d="M162.457,28.962c-0.695,0.33 1.6,-0.221 0.14,-0.103c-0.542,0.044 -1.038,0.289 -1.508,0.541c-0.936,0.501 -1.719,1.499 -2.351,2.319c-1.661,2.159 -2.448,5 -1.822,7.671c0.528,2.25 1.659,5.018 4.398,4.212c1.363,-0.401 2.55,-1.377 3.6,-2.296c2.467,-2.156 5.089,-5.183 5.355,-8.58c0.362,-4.624 -5.714,-4.447 -8.715,-3.871c-2.366,0.455 -5.258,3.104 -3.463,5.627c-0.094,-0.131 -0.19,1.482 -0.227,1.787c-0.154,1.287 -0.339,2.566 -0.392,3.862c-0.118,2.909 3.893,2.374 5.258,1.029c2.029,-1.996 3.854,-4.046 5.25,-6.539c-2.17,-0.102 -4.341,-0.202 -6.512,-0.305c-0.447,1.359 -0.813,2.729 -1.125,4.125c-0.251,1.122 -0.033,2.096 -0.111,3.125c-0.073,0.971 1.049,1.11 1.72,0.965c4.418,-0.949 5.174,-5.015 6.321,-8.766c0.415,-1.354 -0.483,-2.771 -1.848,-3.023c-1.973,-0.365 -3.79,1.083 -4.665,2.72c-0.694,1.299 -1.725,2.413 -2.749,3.461c1.752,0.343 3.506,0.687 5.258,1.029c0.049,-2.74 1.188,-5.941 -0.618,-8.351c-0.872,1.819 -1.744,3.638 -2.618,5.457c1.096,-0.234 2.498,-0.513 3.383,-0.383c0.288,0.042 0.27,0.152 0.038,-0.063c0.066,0.063 -0.094,-0.318 -0.071,-0.489c-0.044,0.355 -0.369,0.964 -0.552,1.242c-0.287,0.436 -0.609,0.845 -0.937,1.248c-0.461,0.569 -0.49,0.579 -0.661,0.754c-0.263,0.271 -0.541,0.527 -0.82,0.78c-0.176,0.158 -1.25,0.947 -0.413,0.373c-0.662,0.454 0.343,-0.072 0.04,0.029c1.598,0.284 2.067,-0.021 1.414,-0.916c-0.254,-0.549 -0.363,-1.104 -0.428,-1.698c-0.131,-1.246 0.294,-2.29 0.958,-3.314c0.396,-0.613 0.836,-1.164 1.025,-1.887c0.069,-0.214 0.099,-0.436 0.093,-0.663c-0.072,-1.361 -0.331,0.836 -0.016,0.196c0.611,-1.225 -0.651,-1.767 -1.629,-1.305Z" style="fill:#010101;fill-rule:nonzero;"/></g></svg>