<?xml version="1.0" encoding="utf-8"?>
<!-- Generator: Adobe Illustrator 17.0.0, SVG Export Plug-In . SVG Version: 6.00 Build 0)  -->
<!DOCTYPE svg PUBLIC "-//W3C//DTD SVG 1.0//EN" "http://www.w3.org/TR/2001/REC-SVG-20010904/DTD/svg10.dtd">
<svg version="1.0" id="Layer_1" xmlns="http://www.w3.org/2000/svg" xmlns:xlink="http://www.w3.org/1999/xlink" x="0px" y="0px"
	 width="566.93px" height="566.93px" viewBox="0 0 566.93 566.93" enable-background="new 0 0 566.93 566.93" xml:space="preserve">
<path fill="#231F20" d="M533.061,211.786c-8.426-28.558-20.39-56.683-36.649-81.667c-8.194-12.593-18.029-23.402-29.789-32.725
	c-11.521-9.131-24.835-14.335-39.233-16.802c-8.615-1.477-17.433,4.655-21.001,12.239c-3.194,6.791-1.496,16.006,7.001,17.462
	c19.096,3.272,35.166,15.979,48.441,32.305c14.131,17.378,23.008,35.998,31.806,57.736c19.296,47.682,28.502,99.132,24.993,150.789
	c-0.688,10.132-2.843,23.647-5.801,34.797c-0.367,1.384-0.775,2.756-1.185,4.127c-0.022,0.074-0.716,2.215-0.835,2.633
	c-0.83,2.354-1.738,4.681-2.689,6.988c-2.245,5.44-4.923,10.69-7.871,15.78c-0.058,0.101-0.109,0.189-0.159,0.275
	c-0.126,0.193-0.304,0.472-0.558,0.873c-0.712,1.125-1.457,2.229-2.202,3.333c-1.483,2.2-3.061,4.335-4.666,6.446
	c-1.602,2.104-3.29,4.143-5.004,6.156c-0.857,1.007-1.74,1.99-2.623,2.973c-0.013,0.015-0.021,0.023-0.034,0.037
	c-0.531,0.553-1.063,1.104-1.603,1.649c-3.715,3.794-7.665,7.351-11.727,10.769c-2.045,1.721-4.146,3.371-6.266,4.999
	c-0.685,0.526-1.382,1.036-2.076,1.549c-0.026-0.003-2.747,1.954-3.191,2.258c-9.417,6.442-19.416,12.009-29.656,17.022
	c-2.497,1.224-5.021,2.391-7.553,3.541c-0.159,0.072-0.298,0.135-0.426,0.193c-0.225,0.096-0.556,0.238-1.038,0.446
	c-1.285,0.556-2.577,1.095-3.87,1.634c-5.626,2.346-11.33,4.502-17.068,6.555c-9.922,3.551-20.024,6.492-30.292,8.86
	c-1.245,0.287-2.495,0.557-3.744,0.827c-0.385,0.083-0.674,0.146-0.886,0.192c-0.146,0.029-0.306,0.061-0.497,0.098
	c-2.526,0.497-5.062,0.94-7.6,1.368c-5.538,0.933-11.108,1.664-16.69,2.275c-10.863,1.189-21.795,1.712-32.721,1.738
	c-2.643,0.007-5.286-0.037-7.928-0.096c-1.324-0.03-2.646-0.076-3.97-0.123c-0.37-0.013-0.654-0.022-0.875-0.029
	c-0.232-0.013-0.548-0.03-0.975-0.052c-5.754-0.296-11.498-0.782-17.229-1.364c-22.12-2.247-43.99-6.883-65.164-13.648
	c-39.178-12.52-78.455-35.574-107.139-66.22C74.415,387.5,55.579,345.816,51.481,301.43c-4.165-45.117,6.919-88.948,28.445-128.296
	c5.105-9.33,10.542-17.637,17.646-27.159c3.294-4.416,6.767-8.695,10.344-12.886c4.641-5.437,6.076-6.905,10.636-11.473
	c18.381-18.413,35.77-30.674,58.893-42.453c24.328-12.394,51.068-19.911,78.152-22.944c23.289-2.608,46.548-1.256,69.758,1.356
	c14.918,1.68,29.355,3.378,44.08,7.741c11.016,3.264,24.188,9.202,29.648,20.008c3.609,7.14,14.491-0.637,12.508-7.129
	c-5.607-18.354-25.007-27.549-41.818-33.171c-17.486-5.849-35.412-9.188-53.725-11.112c-58.362-6.132-117.49,6.641-167.229,38.022
	C68.215,122.791,17.633,219.42,26.659,314.99c4.387,46.458,24.298,90.282,55.634,124.764
	c29.714,32.695,68.877,56.214,110.387,70.654c86.973,30.257,184.815,23.307,264.699-23.604
	c42.74-25.099,75.799-63.891,86.089-113.141c5.516-26.4,6.055-53.863,4.174-80.688C545.719,265.568,540.835,238.139,533.061,211.786
	z"/>
<path fill="#231F20" d="M321.998,283.25c15.993,13.469,32.309,26.551,48.655,39.585c15.868,12.652,31.754,25.26,47.313,38.294
	c8.004,6.703,15.945,13.479,23.817,20.338c3.701,3.224,7.141,6.677,10.597,10.16c1.051,1.06,2.132,2.085,3.207,3.109
	c0.063,0.657,0.156,1.319,0.313,1.991c1.512,6.468,7.909,8.894,13.674,10.365c6.842,1.746,14.605-3.243,18.528-8.417
	c4.011-5.29,6.607-16.289-1.353-19.806c-0.741-0.446-1.508-0.83-2.292-1.158c-3.586-1.992-6.66-4.603-10.088-6.993
	c-4.048-2.822-8.198-5.511-12.112-8.518c-8.318-6.392-16.729-12.663-25.176-18.884c-16.907-12.449-33.866-24.825-50.756-37.298
	c-16.377-12.095-32.702-24.26-48.781-36.75c-8.233-6.396-16.373-12.909-24.423-19.536c-4.847-3.99-10.331-9.441-16.386-12.706
	c-0.592-23.249-1.402-46.489-2.323-69.731c-0.654-16.535-1.287-33.07-1.836-49.609c-0.264-7.937-0.5-15.874-0.713-23.813
	c-0.221-8.211,0.92-18.017-1.374-25.959c-0.339-1.142-0.66-2.289-0.965-3.441c-1.048-3.848-6.056-4.341-9.169-3.345
	c-4.104,1.312-7.509,4.833-8.505,9.04c-1.907,8.059-1.694,16.433-1.766,24.685c-0.074,8.689-0.104,17.38-0.115,26.069
	c-0.02,16.712,0.067,33.424,0.172,50.135c0.141,22.643,0.425,45.284,0.634,67.926c-3.779,1.986-7.487,5.537-9.717,9.521
	c-0.581,0.458-1.162,0.914-1.723,1.378c-3.986,3.298-7.733,6.852-11.762,10.108c-9.722,7.863-19.896,15.284-29.951,22.713
	c-19.717,14.565-39.822,28.646-58.494,44.563c-10.182,8.678-20.824,16.77-30.873,25.626c-5.438,4.792-10.792,9.692-15.861,14.874
	c-3.531,3.611-6.196,6.959-8.734,11.295c-0.49,0.838-0.773,1.909-1.107,2.82c-0.157,0.43-0.291,0.793-0.414,1.125
	c-0.152,0.471-0.43,1.304-0.897,2.679c-0.14,0.41-0.264,0.817-0.369,1.238c-1.095,4.345,1.37,8.761,5.861,9.593
	c4.623,0.857,8.791-1.512,11.947-4.65c0.068-0.048,0.143-0.102,0.228-0.162c-1.084,1.243-0.484,0.543,0.271-0.197
	c1.134-0.823,3.096-2.286,3.663-2.727c2.613-2.028,4.937-4.408,7.376-6.636c6.119-5.589,12.565-10.825,19.041-15.992
	c12.892-10.288,25.826-20.585,38.841-30.712c22.196-17.271,41.648-30.521,64.535-47.306c6.33-4.642,12.351-9.585,18.364-14.564
	c0.074,32.243-0.643,64.431-1.817,96.653c-1.063,29.153-1.129,58.412,0.973,87.523c-0.178,0.527-0.342,1.056-0.475,1.584
	c-0.753,3.001-0.719,5.39,0.037,8.393c0.12,0.479,0.666,3.659,0.791,3.995c-0.082,8.516,9.964,11.03,16.547,8.927
	c7.884-2.521,15.563-10.636,14.99-19.397c-0.14-2.146-0.611-4.217-1.357-6.13c-1.195-5.729-1.354-12.007-1.813-17.88
	c-0.642-8.22-1.076-16.455-1.409-24.693c-0.641-15.829-0.69-31.674-0.466-47.513c0.467-32.791,0.891-65.532,0.367-98.329
	c-0.026-1.604-0.069-3.209-0.097-4.813c0.34,0.296,0.678,0.591,1,0.877C306.073,269.716,314.005,276.52,321.998,283.25z
	 M118.939,391.598c0.344-0.354,0.68-0.713,0.998-1.08c-0.33,0.381-0.589,0.68-0.809,0.932
	C119.062,391.502,118.996,391.553,118.939,391.598z"/>
</svg>
