<?xml version="1.0" encoding="UTF-8" standalone="no"?><!DOCTYPE svg PUBLIC "-//W3C//DTD SVG 1.1//EN" "http://www.w3.org/Graphics/SVG/1.1/DTD/svg11.dtd"><svg width="100%" height="100%" viewBox="0 0 530 500" version="1.1" xmlns="http://www.w3.org/2000/svg" xmlns:xlink="http://www.w3.org/1999/xlink" xml:space="preserve" style="fill-rule:evenodd;clip-rule:evenodd;stroke-linejoin:round;stroke-miterlimit:1.41421;"><g id="pearl"><path d="M250.733,4.183c-1.775,13.231 -1.256,26.728 -1.399,40.069c-0.149,13.947 -0.325,27.894 -0.543,41.84c-0.433,27.796 -0.462,55.571 -0.225,83.369c0.229,26.92 0.738,53.841 1.428,80.754c0.286,11.17 0.519,22.311 1.154,33.471c0.555,9.732 2.868,21.422 0.226,30.938c-2.154,7.76 15.356,4.897 12.738,-3.029c-2.888,-8.747 -2.479,-19.373 -3.374,-28.516c-1.075,-10.968 -1.899,-21.877 -2.214,-32.891c-0.787,-27.553 -1.254,-55.109 -1.677,-82.669c-0.415,-27.009 -0.745,-54.012 -1.331,-81.019c-0.301,-13.849 -0.531,-27.696 -0.701,-41.547c-0.168,-13.75 0.509,-27.771 -1.441,-41.39c-0.206,-1.429 -2.498,-0.446 -2.641,0.62Z" style="fill:#010101;fill-rule:nonzero;"/><path d="M173.635,34.087c2.254,11.527 4.885,22.965 7.092,34.513c2.379,12.448 4.014,25.033 5.929,37.557c3.813,24.947 9.391,49.398 15.649,73.837c6.535,25.513 13.519,50.937 19.025,76.698c2.668,12.481 5.102,25.045 7.549,37.572c1.141,5.838 1.91,11.717 2.297,17.653c0.146,2.239 1.898,5.562 2.02,7.111c4.098,-1.778 8.196,-3.557 12.294,-5.335c0.646,0.818 0.702,0.82 0.165,0.003c-0.648,-1.081 -1.574,-2.008 -2.387,-2.961c-2.74,-3.211 -11.781,0.469 -11.068,4.804c0.436,2.651 0.586,4.928 3.038,6.436c3.833,2.355 12.966,-2.259 10.963,-7.268c-0.846,-2.113 -2.411,-4.017 -3.515,-6.007c-1.209,-2.183 -1.242,-5.584 -1.736,-8.009c-0.602,-2.945 -1.217,-5.888 -1.824,-8.831c-2.572,-12.455 -5.322,-24.901 -8.112,-37.311c-5.768,-25.656 -13.021,-50.933 -19.96,-76.286c-6.849,-25.021 -12.861,-50.074 -17.139,-75.666c-3.848,-23.021 -6.76,-48.6 -18.872,-68.979c-0.298,-0.498 -1.523,-0.123 -1.408,0.469Z" style="fill:#010101;fill-rule:nonzero;"/><path d="M109.934,82.453c4.183,12.089 11.09,23.243 16.629,34.763c6,12.479 12.02,24.949 17.967,37.455c5.941,12.493 11.862,24.992 17.969,37.406c6.109,12.418 10.63,25.766 15.777,38.605c4.307,10.744 9.514,21.304 13.318,32.224c2.55,7.32 4.47,14.873 6.639,22.312c2.512,8.616 5.256,17.208 8.731,25.489c2.414,5.754 5.628,12.726 10.262,17.073c2.172,2.038 6.065,1.063 8.231,-0.434c0.102,-0.07 0.202,-0.14 0.303,-0.209c2.143,-1.48 3.847,-3.998 1.993,-6.36c0.05,0.374 0.1,0.747 0.149,1.121c0.811,-2.75 -1.695,-4.2 -4.131,-4.098c-3.058,0.13 -5.664,1.88 -6.986,4.576c-0.752,1.534 -0.602,2.782 0.154,4.28c1.364,-2.081 2.729,-4.162 4.094,-6.243c-0.109,0.056 -0.221,0.112 -0.33,0.169c1.929,-0.096 3.857,-0.19 5.786,-0.286c-5.499,-3.311 -8.058,-10.404 -10.446,-16.034c-3.523,-8.307 -6.19,-16.963 -8.886,-25.563c-2.147,-6.854 -4.122,-13.782 -6.629,-20.517c-4.388,-11.791 -10.329,-23.137 -15.094,-34.806c-4.989,-12.22 -9.523,-24.781 -15.44,-36.587c-6.208,-12.388 -12.436,-24.764 -18.715,-37.115c-6.002,-11.803 -12.015,-23.597 -18.365,-35.216c-6.213,-11.368 -11.772,-23.562 -20.011,-33.621c-0.848,-1.036 -3.42,0.313 -2.969,1.616Z" style="fill:#010101;fill-rule:nonzero;"/><path d="M62.274,143.974c5.291,7.863 11.293,15.075 17.233,22.461c6.759,8.402 13.167,17.065 19.822,25.546c13.126,16.723 26.123,33.684 37.929,51.369c10.572,15.838 22.573,30.671 32.525,46.931c9.018,14.735 16.707,30.935 27.585,44.462c3.664,4.557 15.817,-2.9 11.1,-7.406c-1.557,-1.487 -3.123,-2.217 -5.033,-3.121c-3.627,-1.719 -11.54,2.393 -8.343,6.738c0.766,1.04 1.137,1.525 1.58,2.797c3.932,-2.139 7.864,-4.276 11.796,-6.414c-13.406,-11.245 -20.885,-28.131 -30.069,-42.682c-10.048,-15.917 -22.299,-30.301 -33.183,-45.631c-12.126,-17.079 -25.167,-33.516 -38.427,-49.727c-6.465,-7.902 -13.329,-15.473 -20.049,-23.156c-7.1,-8.119 -14.112,-16.214 -22.122,-23.442c-0.696,-0.629 -2.991,0.315 -2.344,1.275Z" style="fill:#010101;fill-rule:nonzero;"/><path d="M44.35,214.785c24.423,20.653 48.913,40.978 72.015,63.144c11.44,10.978 22.647,22.195 33.865,33.398c11.466,11.452 23.96,22.337 34.708,34.453c3.188,3.594 11.904,-0.552 11.747,-5.098c-0.139,-4 -2.765,-5.739 -6.569,-6.092c-1.96,-0.183 -4.76,0.541 -5.736,2.488c-1.539,3.071 -0.98,4.55 -0.12,7.733c3.834,-2.085 7.669,-4.171 11.503,-6.255c-12.47,-9.581 -23.6,-21.39 -35.044,-32.158c-12.053,-11.34 -24.1,-22.688 -36.358,-33.807c-24.149,-21.901 -49.368,-43.936 -78.412,-59.098c-0.633,-0.328 -2.382,0.63 -1.599,1.292Z" style="fill:#010101;fill-rule:nonzero;"/><path d="M62.701,282.875c9.894,4.765 19.296,10.703 28.962,15.937c10.073,5.453 20.089,10.985 29.966,16.788c10.015,5.884 19.815,12.134 29.146,19.06c7.989,5.931 14.778,12.721 22.135,19.312c3.629,-2.931 7.258,-5.862 10.887,-8.793c-2.643,-1.432 -5.258,-1.277 -8.172,-1.305c-2.134,-0.021 -6.96,2.207 -6.379,5.058c0.533,2.607 1.581,3.485 3.664,5.04c4.634,3.459 17.212,-2.549 12.029,-8.027c-3.009,-3.182 -7.299,-5.331 -10.842,-7.896c-4.42,-3.2 -8.951,-6.241 -13.52,-9.226c-10.119,-6.612 -20.576,-12.729 -31.201,-18.489c-10.254,-5.56 -20.777,-10.604 -31.383,-15.456c-11.043,-5.052 -22.561,-8.753 -33.663,-13.6c-0.904,-0.395 -2.845,1.012 -1.629,1.597Z" style="fill:#010101;fill-rule:nonzero;"/><path d="M317.662,28.78c-1.259,11.401 -2.085,22.857 -3.575,34.244c-1.658,12.659 -4.189,25.209 -6.452,37.771c-4.395,24.402 -6.867,49.01 -10.235,73.56c-3.49,25.44 -7.442,50.81 -11.544,76.157c-1.919,11.863 -4.322,23.657 -5.764,35.59c-0.667,5.521 -1.378,10.98 -2.679,16.395c-0.914,3.809 -2.953,7 -4.228,10.671c2.801,-1.835 5.602,-3.669 8.402,-5.504c2.985,-0.083 2.717,0.579 0.798,-0.628c-2.963,-1.863 -10.492,1.359 -9.904,5.348c0.227,1.54 0.25,3.313 1.492,4.432c2.658,2.395 6.815,1.112 9.484,-0.499c3.846,-2.321 3.962,-6.234 4.691,-10.181c0.895,-4.832 1.715,-9.559 2.129,-14.471c0.954,-11.317 2.544,-22.484 4.158,-33.721c3.83,-26.65 8.246,-53.208 11.58,-79.931c3.181,-25.492 5.481,-51.039 9.057,-76.485c1.698,-12.092 3.237,-24.186 4.693,-36.309c1.488,-12.393 2.843,-24.856 1.511,-37.287c-0.207,-1.941 -3.451,-0.629 -3.614,0.848Z" style="fill:#010101;fill-rule:nonzero;"/><path d="M377.089,77.014c-12.688,14.996 -18.72,34.622 -24.806,53.02c-3.279,9.914 -6.265,19.919 -9.496,29.849c-3.995,12.277 -9.328,24.168 -13.823,36.279c-8.924,24.04 -16.812,48.428 -24.458,72.898c-3.232,10.342 -6.682,20.7 -9.504,31.156c-0.868,3.219 -1.535,6.492 -2.356,9.725c-0.382,1.501 -0.81,2.987 -1.292,4.459c-0.432,1.314 -0.303,1.104 -0.809,1.532c1.36,-0.734 2.72,-1.469 4.079,-2.203c2.67,0.74 3.593,0.753 2.769,0.041c-2.592,-2.022 -9.627,-0.064 -9.123,3.959c1.057,8.428 11.715,3.232 13.486,-2.38c1.961,-6.215 2.29,-12.905 4.525,-19.024c2.379,-6.512 3.699,-13.633 5.564,-20.316c1.882,-6.74 3.813,-13.467 5.775,-20.184c3.93,-13.445 8.285,-26.774 12.664,-40.078c8.119,-24.669 17.689,-48.718 24.627,-73.757c6.144,-22.171 12.138,-44.388 23.629,-64.533c0.543,-0.949 -0.998,-0.978 -1.451,-0.443Z" style="fill:#010101;fill-rule:nonzero;"/><path d="M422.12,117.15c-19.095,35.817 -40.841,70.082 -60.473,105.618c-19.212,34.775 -37.687,69.658 -61.141,101.799c3.755,-0.166 7.509,-0.333 11.264,-0.5c0.119,-2.145 0.596,-3.654 -0.037,-5.756c-0.687,-2.279 -4.419,-1.095 -5.684,-0.309c-3.049,1.895 -5.373,4.11 -6.113,7.726c-1.408,6.873 8.73,3.834 11.074,0.659c23.239,-31.496 40.38,-67.693 58.444,-102.267c9.354,-17.903 18.634,-35.867 28.61,-53.435c9.729,-17.128 20.418,-34.688 26.863,-53.369c0.546,-1.579 -2.304,-1.11 -2.807,-0.166Z" style="fill:#010101;fill-rule:nonzero;"/><path d="M442.061,189.572c-9.689,12.465 -20.615,23.514 -31.926,34.485c-11.067,10.735 -20.559,22.536 -30.191,34.541c-20.609,25.683 -41.075,52.028 -66.008,73.746c2.451,-0.825 4.9,-1.65 7.351,-2.477c-0.212,-0.05 -0.425,-0.101 -0.637,-0.15c0.969,0.66 1.938,1.321 2.907,1.982c-0.025,-0.115 -0.051,-0.232 -0.076,-0.348c-0.18,1.162 -0.359,2.325 -0.539,3.488c0.708,-1.368 1.584,-2.588 2.244,-3.998c1.665,-3.56 -4.103,-3.528 -5.868,-2.784c-3.425,1.444 -9.063,4.118 -7.525,8.747c0.383,1.153 1.817,1.818 2.908,1.983c7.427,1.13 13.357,-7.333 18.05,-12.021c6.248,-6.239 12.207,-12.771 17.99,-19.441c11.62,-13.402 22.48,-27.449 33.202,-41.574c10.183,-13.413 19.837,-26.916 31.207,-39.372c10.35,-11.338 22.105,-22.614 28.633,-36.706c0.453,-0.977 -1.384,-0.536 -1.722,-0.101Z" style="fill:#010101;fill-rule:nonzero;"/><path d="M450.645,251.809c-12.035,7.777 -24.33,15.072 -36.224,23.12c-11.12,7.523 -22.122,15.159 -32.553,23.625c-10.081,8.182 -19.566,17.071 -29.722,25.161c-4.617,3.68 -9.412,7.133 -14.404,10.284c-4.733,2.986 -11.431,4.568 -15.271,8.61c-1.798,1.892 -2.161,5.414 1.258,5.742c5.913,0.567 11.38,-3.124 16.331,-5.983c5.461,-3.153 10.527,-6.981 15.429,-10.933c10.291,-8.296 19.799,-17.491 29.418,-26.541c10.303,-9.693 21.356,-18.47 32.682,-26.933c5.935,-4.435 12.095,-8.562 18.042,-12.979c5.438,-4.039 10.34,-8.532 15.563,-12.806c0.437,-0.355 -0.239,-0.566 -0.549,-0.367Z" style="fill:#010101;fill-rule:nonzero;"/><path d="M158.811,41.336c9.532,-9.372 21.277,-11.025 33.953,-12.735c12.385,-1.671 24.061,-4.36 34.661,-11.282c7.817,-5.105 16.929,-11.701 26.765,-9.805c10.899,2.101 20.531,9.646 30.754,13.638c9.493,3.708 19.563,4.961 29.338,7.614c11.023,2.992 17.693,10.606 24.602,19.186c3.377,4.194 6.919,8.219 11.004,11.74c4.585,3.954 9.873,6.33 15.1,9.234c4.964,2.76 10.926,1.801 14.451,7.127c1.34,2.025 1.557,4.831 2.138,7.131c0.761,3.012 2.637,5.42 4.596,7.748c5.978,7.104 14.733,10.879 22.998,14.575c7.93,3.547 14.354,7.654 16.668,16.505c3.356,12.838 -5.245,27.352 1.949,39.591c5.455,9.28 16.972,13.392 21.35,23.438c4.436,10.177 -5.951,18.871 -8.371,28.031c-1.364,5.166 -1.366,10.109 0.188,15.214c1.67,5.487 5.2,10.349 7.356,15.655c6.66,16.394 0.517,33.27 -10.56,45.986c-13.77,15.809 -32.96,26.624 -51.943,34.911c-16.979,7.412 -34.892,13.04 -53.38,14.909c-2.966,0.3 -6.467,1.82 -7.484,4.902c-0.926,2.802 1.862,4.693 4.426,4.391c16.898,-1.993 33.63,-7.605 49.39,-13.846c18.186,-7.202 36.026,-16.551 51.418,-28.69c13.126,-10.353 25.538,-23.772 29.336,-40.536c1.873,-8.268 1.011,-16.532 -1.586,-24.537c-1.688,-5.201 -4.771,-9.816 -7.003,-14.777c-2.607,-5.797 -1.871,-11.809 0.433,-17.582c1.648,-4.132 4.731,-7.569 6.553,-11.635c2.081,-4.646 2.865,-10.436 1.151,-15.353c-3.611,-10.356 -14.174,-15.368 -20.828,-23.435c-4.356,-5.281 -3.486,-13.369 -2.925,-19.719c0.591,-6.678 1.785,-13.262 0.342,-19.91c-1.874,-8.64 -7.501,-14.127 -15.124,-18.111c-8.018,-4.191 -16.556,-6.804 -23.395,-12.996c-4.391,-3.977 -5.75,-8.16 -7.251,-13.683c-1.472,-5.415 -6.849,-8.649 -11.888,-10.072c-11.414,-3.222 -20.333,-9.556 -28.031,-18.501c-7.33,-8.517 -13.282,-17.054 -23.894,-21.723c-5.645,-2.484 -11.856,-3.586 -17.858,-4.826c-8.385,-1.731 -16.359,-4.101 -24.075,-7.86c-12.116,-5.903 -24.609,-13.761 -38.57,-10.185c-7.694,1.972 -14.706,6.504 -21.305,10.753c-8.294,5.341 -16.569,8.093 -26.235,9.864c-15.922,2.917 -32.164,4.907 -42.742,18.579c-1.658,2.141 2.406,2.181 3.528,1.077Z" style="fill:#010101;fill-rule:nonzero;"/><path d="M156.254,39.039c-8.344,8.471 -17.076,14.965 -28.083,19.539c-5.458,2.269 -11.227,3.824 -16.378,6.784c-4.868,2.796 -9.125,6.348 -12.829,10.561c-6.853,7.793 -11.271,17.354 -17.978,25.254c-7.719,9.089 -18.68,13.12 -28.004,20.079c-9.885,7.378 -13.124,17.882 -12.266,29.824c0.445,6.181 1.171,12.11 -1.831,17.799c-2.444,4.631 -7.082,7.976 -10.856,11.456c-7.57,6.98 -13.004,16.419 -9.566,26.889c1.415,4.31 5.031,7.873 8.136,11.011c4.742,4.796 8.67,9.454 11.273,15.785c4.651,11.309 1.312,23.784 1.127,35.524c-0.183,11.548 4.676,21.376 12.438,29.658c15.077,16.086 37.494,24.991 57.507,33.069c12.136,4.898 24.109,10.184 36.311,14.941c6.849,2.671 13.729,5.302 20.731,7.55c5.602,1.798 10.986,3.578 16.043,-0.609c3.166,-2.622 1.15,-6.795 -2.785,-6.417c-1.165,0.112 -2.371,0.341 -3.539,0.341c-5.296,0 -10.19,8.215 -2.705,8.215c-1.173,0 1.522,0.215 1.918,0.257c-0.065,-2.432 -0.131,-4.862 -0.197,-7.294c1.797,-0.998 6.817,-1.061 3.797,-1.579c-0.997,-0.171 -1.979,-0.438 -2.956,-0.697c-3.078,-0.817 -6.097,-1.863 -9.108,-2.891c-8.061,-2.747 -16.034,-5.753 -23.985,-8.802c-13.672,-5.241 -27.364,-10.602 -40.887,-16.208c-19.843,-8.227 -45.974,-20.022 -52.085,-42.784c-3.141,-11.697 1.314,-24.4 0.016,-36.325c-1.389,-12.743 -8.977,-20.948 -17.306,-29.804c-6.919,-7.354 -6.74,-16.62 0.069,-24.047c6.251,-6.819 13.084,-11.466 17.011,-20.152c4.634,-10.252 -1.694,-22.105 2.803,-32.656c3.879,-9.1 15.381,-12.908 23.037,-18.015c8.336,-5.562 14.788,-12.667 20.249,-21.024c4.951,-7.577 9.303,-15.771 16.582,-21.431c8.059,-6.263 18.797,-8.873 27.695,-13.832c8.124,-4.528 14.612,-10.97 18.721,-19.323c0.714,-1.453 -1.409,-1.368 -2.12,-0.646Z" style="fill:#010101;fill-rule:nonzero;"/><path d="M263.047,328.167c-28.576,-10.918 -61.01,10.06 -68.55,38.246c-3.484,13.023 -1.537,27.008 6.36,38.038c9.84,13.742 26.981,20.201 43.295,21.784c16.717,1.622 34.291,-2.83 47.689,-13.091c12.449,-9.534 21.585,-25.493 19.298,-41.558c-2.134,-14.989 -12.101,-28.951 -23.55,-38.397c-11.253,-9.285 -28.668,-16.036 -41.953,-6.974c-2.625,1.791 -2.856,5.92 1.199,5.55c9.75,-0.891 17.674,0.354 26.085,5.611c8.782,5.49 15.879,14.254 20.722,23.286c4.793,8.94 6.631,18.117 3.852,27.986c-2.815,9.992 -10.174,18.181 -19.299,22.919c-28.774,14.94 -73.652,-0.888 -73.324,-36.865c0.115,-12.527 6.164,-24.447 15.295,-32.817c11.324,-10.381 26.46,-11.653 41.1,-11.001c1.063,0.048 3.621,-2.013 1.781,-2.717Z" style="fill:#010101;fill-rule:nonzero;"/><path d="M215.429,378.067c-5.919,14.092 6.64,25.982 18.788,30.68c14.267,5.517 32.378,5.53 44.589,-4.608c8.657,-7.188 15.136,-18.312 16.646,-29.503c1.547,-11.471 -4.172,-21.446 -16.406,-21.994c0.904,0.277 1.808,0.554 2.711,0.83c-0.218,-0.158 -0.436,-0.317 -0.653,-0.476c-2.122,-1.547 -6.765,-0.401 -7.353,2.468c-0.822,4.012 3.369,5.219 6.031,7.459c2.938,2.473 4.038,5.993 4.223,9.717c0.432,8.712 -4.426,18.02 -10.101,24.336c-7.834,8.721 -20.103,7.667 -30.718,5.614c-6.52,-1.261 -12.672,-3.751 -17.958,-7.81c-5.763,-4.424 -7.163,-10.102 -8.443,-16.904c-0.133,-0.706 -1.166,-0.261 -1.356,0.191Z" style="fill:#010101;fill-rule:nonzero;"/><path d="M246.451,338.135c-8.597,-2.853 -20.883,5.58 -24.936,12.715c-2.295,4.041 -1.831,9.091 1.433,12.42c3.802,3.876 10.664,3.199 15.424,2.201c9.654,-2.024 22.707,-10.438 21.219,-21.816c-1.542,-11.786 -17.557,-10.033 -23.757,-3.521c-1.275,1.34 -0.038,2.497 1.509,2.178c5.086,-1.049 13.914,-3.938 15.035,3.829c1.034,7.166 -7.177,12.241 -12.994,13.961c-6.502,1.924 -16.273,-0.054 -13.016,-8.962c2.62,-7.163 12.318,-10.855 19.219,-11.688c0.408,-0.049 1.841,-0.993 0.864,-1.317Z" style="fill:#010101;fill-rule:nonzero;"/><path d="M13.236,416.625c3.29,-5.045 10.314,-7.731 15.661,-9.835c8.229,-3.238 16.958,-5.308 25.575,-7.198c18.638,-4.092 37.533,-7.074 56.412,-9.795c14.453,-2.084 28.949,-3.881 43.427,-5.784c9.58,-1.26 19.316,-0.458 27.517,-6.546c7.192,-5.34 9.276,-14.167 6.157,-22.397c-3.135,-8.269 -12.988,-9.487 -19.293,-4.184c-1.533,1.29 -1.421,4.009 0.923,4.212c2.896,0.252 5.563,-0.132 7.399,2.547c1.99,2.902 2.379,6.977 1.721,10.352c-1.741,8.93 -15.185,7.592 -21.85,8.198c-24.53,2.232 -49.297,6.781 -73.479,11.378c-14.604,2.775 -29.158,5.729 -43.352,10.209c-10.488,3.311 -25.99,7.634 -31.01,18.595c-1.042,2.277 3.37,1.51 4.192,0.248Z" style="fill:#010101;fill-rule:nonzero;"/><path d="M343.023,345.138c-8.493,0.453 -17.782,4.671 -20.457,13.444c-1.726,5.66 -0.405,11.668 4.187,15.488c9.562,7.955 25.761,6.54 37.309,6.099c22.303,-0.852 44.656,-2.59 66.979,-1.56c26.54,1.225 50.049,12.465 75.458,18.807c3.4,0.849 8.441,-2.288 7.566,-6.056c-0.688,-2.963 -3.717,-3.659 -6.023,-5.141c-2.894,-1.858 -10.421,2.565 -7.258,5.862c1.092,1.14 2.864,2.061 3.23,3.64c2.521,-2.019 5.045,-4.037 7.566,-6.056c-21.284,-5.313 -41.518,-15.137 -63.44,-17.801c-23.181,-2.817 -46.661,-1.092 -69.894,-0.013c-11.184,0.52 -22.819,1.603 -33.902,-0.346c-4.254,-0.747 -9.216,-2.288 -11.416,-6.334c-1.162,-2.137 -1.302,-4.631 -0.907,-6.997c0.893,-5.359 5.629,-7.846 10.401,-9.349c1.883,-0.59 3.909,-3.864 0.601,-3.687Z" style="fill:#010101;fill-rule:nonzero;"/><path d="M14.454,422.142c5.912,-1.274 11.853,-1.691 17.68,0.187c4.574,1.475 8.169,4.272 12.197,6.757c10.692,6.597 21.448,9.235 34.043,8.703c14.64,-0.618 28.873,-5.542 43.62,-4.634c12.188,0.751 22.901,6.936 33.573,12.274c10.68,5.343 21.688,9.183 33.77,8.875c15.063,-0.384 29.805,-5.382 44.463,-8.351c15.455,-3.13 29.514,-1.4 44.713,2.084c13.566,3.109 27.153,6.106 41.104,3.81c18.598,-3.062 34.427,-14.013 52.682,-18.069c18.168,-4.037 37.075,3.383 55.379,3.446c8.313,0.028 16.358,-1.794 23.577,-5.938c3.373,-1.937 5.596,-6.071 7.37,-9.354c2.432,-4.497 3.844,-6.357 8.949,-7.391c18.663,-3.776 37.986,-0.02 53.714,-13.056c2.734,-2.266 1.064,-6.13 -2.463,-5.676c-2.287,0.295 -4.396,0.935 -6.645,1.368c-4.282,0.827 -7.353,8.221 -1.201,7.379c1.754,-0.24 3.494,-0.745 5.256,-0.878c-0.821,-1.892 -1.643,-3.784 -2.463,-5.676c-9.82,8.131 -24.822,6.371 -36.735,7.745c-5.499,0.634 -10.828,1.284 -16.08,3.109c-5.562,1.934 -8.806,6.54 -11.462,11.493c-1.162,2.167 -2.371,5.103 -4.665,6.271c-2.349,1.196 -4.903,1.761 -7.476,2.231c-6.258,1.146 -12.971,0.393 -19.227,-0.336c-11.732,-1.365 -23.371,-4.179 -35.249,-3.679c-26.135,1.099 -47.204,20.73 -73.628,20.006c-14.459,-0.396 -28.53,-5.786 -42.774,-7.874c-14.754,-2.164 -29.149,0.531 -43.5,3.893c-10.736,2.514 -21.528,5.373 -32.612,5.658c-8.832,0.228 -17.292,-3.166 -25.125,-6.881c-7.583,-3.598 -14.866,-7.758 -22.761,-10.671c-8.755,-3.231 -17.892,-4.047 -27.159,-3.441c-20.48,1.337 -40.021,9.226 -59.956,0.575c-6.114,-2.652 -11.912,-6.181 -18.349,-8.065c-7.566,-2.215 -15.1,-1.48 -22.602,0.652c-2.525,0.721 -3.265,4.167 0.042,3.454Z" style="fill:#010101;fill-rule:nonzero;"/><path d="M1.093,429.575c-2.065,17.153 18.106,23.006 31.462,25.039c16.458,2.507 33.155,1.076 48.799,7.489c11.044,4.528 21.283,10.744 32.603,14.645c5.846,2.015 11.866,3.31 18.016,3.922c7.922,0.788 15.882,-0.319 23.817,0.179c13.592,0.854 24.57,8.629 37.316,12.434c13.635,4.069 28.792,4.929 42.915,5.77c28.78,1.715 60.04,0.914 86.479,-11.818c3.924,-1.891 7.794,-3.834 12.085,-4.698c5.685,-1.145 11.936,-0.507 17.696,-0.559c13.985,-0.126 27.97,-0.981 41.732,-3.581c13.328,-2.518 24.784,-8.306 37.079,-13.666c10.771,-4.695 22.805,-4.316 34.031,-7.377c13.661,-3.726 27.127,-9.847 39.203,-17.198c8.717,-5.308 17.102,-12.452 22.241,-21.399c2.124,-3.699 4.618,-9.005 2.494,-13.221c-3.012,-5.98 -11.528,-3.526 -16.279,-1.847c-3.966,1.403 -5.473,7.659 0.132,7.232c2.432,-0.186 4.865,-0.84 4.333,1.771c-0.698,3.434 -2.948,6.538 -5.042,9.254c-7.516,9.748 -19.983,15.531 -30.939,20.354c-6.399,2.817 -12.955,5.234 -19.74,6.939c-6.805,1.71 -13.887,2.047 -20.771,3.396c-11.201,2.193 -20.817,8.357 -31.309,12.48c-12.81,5.034 -27.05,6.324 -40.673,7.016c-11.906,0.604 -24.519,-0.961 -36.201,1.793c-4.72,1.113 -9.163,3.309 -13.51,5.391c-6.854,3.282 -13.871,5.473 -21.268,7.208c-14.391,3.377 -29.426,3.633 -44.144,3.528c-14.421,-0.102 -28.824,-1.326 -43.041,-3.747c-6.562,-1.117 -12.746,-2.522 -18.869,-5.177c-5.954,-2.581 -11.658,-5.699 -17.938,-7.467c-14.405,-4.054 -29.188,-0.649 -43.692,-3.451c-11.979,-2.313 -22.794,-8.418 -33.724,-13.546c-8.326,-3.906 -16.893,-7.151 -26.069,-8.148c-8.207,-0.892 -16.481,-1.046 -24.704,-1.75c-14.465,-1.238 -32.821,-3.126 -37.09,-19.658c-0.906,-3.514 -7.126,-0.048 -7.43,2.468Z" style="fill:#010101;fill-rule:nonzero;"/><path d="M12.733,421.907c-5.883,4.652 -8.396,10.354 -4.673,17.354c1.839,3.459 7.146,1.603 9.3,-0.457c4.586,-4.385 6.84,-8.124 7.039,-14.561c0.154,-5.013 -7.994,-2.557 -9.85,-0.571c-5.472,5.853 -6.455,12.537 -0.953,18.744c1.88,2.121 6.28,1.022 8.174,-0.431c5.492,-4.213 8.115,-8.823 8.361,-15.773c0.087,-2.477 -2.704,-3.188 -4.617,-3.202c-2.807,-0.022 -5.274,0.333 -7.949,1.187c-2.62,0.836 -6.229,2.675 -6.187,5.953c0.042,3.311 3.976,3.356 6.292,3.027c5.009,-0.713 9.899,-0.525 14.883,0.248c1.566,-3.189 3.132,-6.379 4.697,-9.567c-4.537,-0.183 -8.936,-1.812 -12.991,-3.738c-1.487,3.044 -2.976,6.087 -4.463,9.132c4.895,-1.374 8.543,-0.162 12.27,3.252c3.449,-2.787 6.899,-5.573 10.349,-8.36c-8.751,-4.21 -18.371,-6.776 -28.041,-4.655c-6.008,1.316 -10.561,10.271 -1.691,10.383c0.353,0.005 0.705,0.01 1.057,0.014c-1.112,-2.564 -2.225,-5.128 -3.338,-7.692c-5.751,4.983 -8.162,12.696 -0.719,17.222c5.963,3.626 14.18,3.86 20.823,2.471c7.235,-1.514 15.314,-7.513 12.267,-15.713c-2.34,-6.294 -8.542,-7.586 -14.071,-4.104c-3.954,2.489 -9.591,9.943 -6.3,14.779c3.25,4.776 10.305,1.825 13.155,-1.906c0.025,-0.034 0.052,-0.067 0.077,-0.101c-3.741,1.26 -7.482,2.521 -11.223,3.781c-1.328,-0.708 1.441,1.927 1.986,2.559c0.965,1.121 1.846,2.091 3.178,2.801c3.801,2.027 8.897,-0.766 11.195,-3.772c0.025,-0.033 0.051,-0.067 0.076,-0.101c-4.118,0.998 -8.236,1.996 -12.355,2.995c2.239,3.022 7.254,2.471 10.193,0.994c3.729,-1.874 6.03,-4.784 7.609,-8.572c3.354,-8.05 -2.524,-12.515 -10.229,-11.306c-9.065,1.424 -21.945,12.237 -12.119,20.611c7.564,6.445 17.112,3.576 21.102,-5.305c1.268,-2.823 0.998,-6.655 -1.111,-8.999c-3.402,-3.78 -9.088,-3.396 -13.642,-2.749c-6.044,0.857 -15.658,6.395 -11.384,13.748c3.485,5.996 11.088,8.28 17.553,8.658c9.32,0.547 17.359,-6.113 20.465,-14.467c0.115,-0.372 0.23,-0.744 0.346,-1.117c1.661,-5.376 -5.52,-5.361 -8.664,-4.111c-6.756,2.688 -9.029,6.357 -11.211,12.963c-1.043,3.16 2.109,5.344 5.02,4.979c5.154,-0.648 15.77,-3.439 14.292,-10.816c-1.237,-6.176 -8.985,-9.086 -14.475,-9.961c-5.821,-0.929 -15.635,8.137 -6.781,10.34c9.163,2.279 18.178,5.076 27.58,6.229c3.54,0.435 7.524,-1.078 9.529,-4.135c1.874,-2.857 0.419,-5.525 -2.715,-6.256c-6.226,-1.453 -13.402,-2.717 -19.666,-0.711c-4.807,1.539 -10.48,5.127 -9.244,10.936c0.851,3.994 5.947,5.668 9.302,6.633c6.864,1.975 14.896,0.563 21.568,-1.402c2.782,-0.82 5.813,-2.426 6.792,-5.387c1.151,-3.485 -2.218,-5.027 -5.093,-5.052c-8.1,-0.069 -16.341,-1.122 -24.403,-0.026c-3.103,0.422 -6.176,1.546 -7.979,4.297c-1.318,2.01 -1.219,4.871 1.291,5.903c13.252,5.452 28.484,5.591 41.907,0.727c5.701,-2.066 7.351,-9.92 -0.181,-9.933c-5.837,-0.009 -11.605,-0.097 -17.391,-0.951c-3.598,-0.531 -7.756,1.162 -9.775,4.242c-1.805,2.753 -0.554,5.92 2.785,6.418c6.546,0.976 13.141,1.136 19.749,1.14c4.669,0.003 12.918,-6.348 6.769,-10.321c-3.879,-2.506 -7.637,-4.365 -12.095,-5.617c-2.332,3.556 -4.664,7.112 -6.996,10.668c7.62,0.985 15.263,1.133 22.936,1.136c-1.498,-2.175 -2.997,-4.351 -4.495,-6.525c-0.11,0.151 -0.221,0.302 -0.332,0.452c2.691,-1.449 5.384,-2.898 8.075,-4.348c-4.116,0.364 -7.339,1.485 -9.866,4.929c-3.484,4.748 2.597,6.973 6.347,6.267c4.19,-0.789 8.778,0.17 13.008,0.259c-1.134,-2.614 -2.269,-5.229 -3.403,-7.843c0.778,-0.502 0.533,-0.436 -0.736,0.2c-1.044,0.446 -2.251,0.628 -3.349,0.887c-2.214,0.521 -4.469,0.886 -6.703,1.31c-3.485,0.663 -9.733,5.397 -6.085,9.279c6.695,7.127 17.001,8.171 25.955,10.602c2.361,-3.599 4.721,-7.198 7.082,-10.797c-11.03,-1.403 -20.928,-7.075 -31.746,-9.452c-3.908,-0.858 -15.59,5.175 -10.027,9.812c11.208,9.344 25.917,11.486 39.872,13.731c3.242,0.521 6.792,-0.791 9.112,-3.069c2.116,-2.08 3.324,-6.195 -0.226,-7.645c-6.563,-2.68 -13.467,-4.647 -17.896,-10.539c-3.362,3.29 -6.725,6.58 -10.088,9.87c6.765,0.952 13.125,-0.596 19.645,-2.241c4.993,-1.261 11.615,-8.772 3.588,-10.976c-4.323,-1.187 -8.334,-3.141 -12.741,-4.127c-1.838,3.743 -3.676,7.486 -5.514,11.229c5.326,-0.109 10.597,-0.937 15.923,-1.041c3.174,-0.062 6.656,-1.855 8.407,-4.526c1.867,-2.849 0.59,-6.198 -2.902,-6.688c-7.499,-1.05 -14.955,-2.187 -22.28,-4.148c-1.195,3.657 -2.391,7.313 -3.586,10.971c8.197,-1.527 22.023,-3.685 28.521,3.029c3.886,-3.139 7.771,-6.276 11.656,-9.415c-2.977,-1.115 -5.674,-2.681 -8.486,-4.141c-2.365,3.608 -4.731,7.217 -7.098,10.825c6.418,0.109 14.723,1.972 16.891,8.826c3.651,-2.923 7.303,-5.845 10.954,-8.768c-3.408,-0.69 -6.061,-0.677 -9.05,-2.634c-4.378,-2.868 -14.71,2.657 -12.526,8.304c0.38,0.983 0.869,2.026 1.077,3.068c0.854,4.29 -3.768,-0.366 5.908,-3.518c2.98,-0.97 2.165,0 1.488,-0.21c-0.819,-0.254 -1.609,-0.609 -2.396,-0.948c-3.655,-1.575 -7.057,-3.73 -10.519,-5.679c-4.283,-2.409 -13.006,1.68 -12.855,6.94c0.253,8.855 3.963,16.618 11.881,20.96c4.712,2.582 12.416,-1.799 12.884,-6.956c0.789,-8.695 -5.024,-15.947 -12.948,-18.898c-3.947,-1.47 -11.843,0.513 -12.671,5.499c-1.421,8.56 4.188,17.207 12.078,20.646c8.768,3.821 20.954,-4.926 15.174,-14.327c-5.014,-8.154 -15.804,-10.974 -24.452,-7.832c-7.167,2.604 -11.156,12.298 -7.115,18.999c6.479,10.744 24.495,6.668 33.576,2.267c4.666,-2.262 11.101,-6.235 12.059,-11.869c1.098,-6.456 -4.484,-9.882 -9.888,-11.751c-2.494,-0.863 -5.064,-1.495 -7.646,-2.029c-4.81,-0.996 -10.428,2.517 -11.183,7.343c-3.851,24.603 50.371,10.466 27.803,-11.258c-4.065,-3.914 -17.063,1.506 -13.776,7.491c6.108,11.12 18.363,16.893 30.841,16.128c3.624,-0.222 13.675,-5.593 8.549,-10.275c-7.313,-6.681 -17.662,-9.394 -27.257,-10.642c-3.387,-0.441 -6.937,0.759 -9.38,3.159c-1.53,1.504 -3.548,5.293 -1.028,7.023c10.794,7.417 23.69,9.527 36.578,9.6c4.218,0.023 14.574,-7.759 7.167,-10.929c-10.194,-4.362 -20.446,-8.499 -31.354,-10.709c-4.925,-0.998 -16.356,6.771 -8.813,10.623c10.792,5.51 22.977,8.344 32.769,15.713c2.742,-3.296 5.484,-6.592 8.227,-9.888c-1.847,0.139 -2.064,-0.01 -4.441,-0.421c-2.582,-0.448 -5.137,-1.075 -7.684,-1.689c-6.281,-1.516 -12.522,-3.187 -18.871,-4.411c-9.337,-1.802 -26.806,-3.22 -29.967,9.123c-4.216,16.459 40.922,13.933 49.526,10.959c3.562,-1.23 8.606,-7.592 3.196,-10.015c-6.952,-3.113 -15.67,-3.634 -23.148,-3.902c-7.725,-0.278 -21.989,2.057 -21.784,12.395c0.189,9.583 14.755,10.898 21.569,11.217c8.4,0.391 18.968,0.214 26.289,-4.514c2.595,-1.676 6.076,-7.354 1.315,-8.988c-14.386,-4.938 -30.634,-8.067 -45.684,-4.436c-3.938,0.95 -11.577,7.345 -5.21,10.662c4.161,2.169 9.349,2.857 13.933,3.545c6.352,0.953 12.846,1.416 19.268,1.321c5.659,-0.084 11.725,-0.828 16.557,-3.997c5.438,-3.567 5.976,-9.192 1.353,-13.525c-3.959,3.197 -7.918,6.396 -11.878,9.594c9.579,5.403 20.366,4.799 30.992,4.75c3.252,-0.016 6.875,-1.942 8.659,-4.663c1.939,-2.959 0.591,-6.345 -2.989,-6.887c-7.563,-1.145 -14.917,-3.136 -22.276,-5.188c-6.615,-1.845 -17.053,8.705 -7.527,11.48c11.563,3.369 23.747,6.38 35.672,2.961c2.639,-0.757 5.181,-2.058 6.731,-4.422c1.383,-2.109 1.397,-5.452 -1.413,-6.46c-8.801,-3.155 -17.798,-5.481 -27.073,-6.692c-1.239,3.791 -2.479,7.582 -3.719,11.374c6.968,-1.518 13.741,-0.604 20.561,1.204c1.907,-3.885 3.814,-7.77 5.722,-11.654c-7.292,-0.072 -14.421,-1.314 -21.502,-2.99c-1.907,3.885 -3.814,7.77 -5.722,11.654c8.705,-0.044 18.104,-1.146 26.269,2.504c-0.472,-2.154 -0.943,-4.309 -1.414,-6.463c-2.617,4.908 -4.092,8.685 -4.168,14.373c3.24,-2.57 6.481,-5.14 9.722,-7.709c-4.644,0.08 -9.474,0.975 -14.067,0.102c-4.392,-0.834 -11.603,2.449 -11.588,7.61c0.009,3.377 0.393,6.456 1.346,9.701c4.729,-2.572 9.46,-5.145 14.19,-7.717c-5.547,-4.336 -11.129,-8.603 -17.163,-12.248c-4.285,-2.59 -13.596,1.817 -13.291,7.176c0.525,9.274 8.287,15.642 17.568,14.46c4.725,-0.603 14.534,-6.693 7.425,-11.323c-3.445,-2.244 -6.922,-4.367 -10.596,-6.221c-4.966,-2.506 -18.48,5.61 -12.245,9.892c16.402,11.258 51.778,17.87 63.668,-3.301c1.273,-2.267 1.556,-5.549 -1.459,-6.668c-8.226,-3.054 -16.771,-1.295 -25.031,-3.561c0.09,3.295 0.179,6.59 0.268,9.885c4.506,-3.234 9.26,-6.1 13.768,-9.333c5.074,-3.64 4.827,-9.715 -2.146,-9.923c-3.906,-0.116 -7.764,-0.887 -11.686,-1.003c-0.631,3.872 -1.262,7.745 -1.892,11.617c4.429,-1.337 8.359,-3.882 12.737,-5.204c2.656,-0.802 5.194,-2.047 6.769,-4.447c1.36,-2.072 1.439,-5.549 -1.421,-6.496c-8.36,-2.768 -17.336,-1.794 -25.648,0.768c0.73,3.49 1.46,6.98 2.189,10.472c11.419,-3.827 24.344,-2.528 36.154,-4.442c-2.525,-0.787 -5.05,-1.574 -7.575,-2.36c0.412,1.449 -0.178,3.324 -0.323,4.781c-0.305,3.061 3.598,4.178 5.884,4.081c3.538,-0.149 6.667,-1.973 8.79,-4.732c0.753,-0.979 0.811,-0.965 1.679,-1.393c5.874,-2.9 8.337,-10.448 -0.198,-10.903c-2.826,-0.151 -5.621,-0.904 -8.482,-1.057c-1.309,3.976 -2.617,7.952 -3.926,11.928c3.913,-0.116 7.751,-0.885 11.665,-1.001c0.636,-3.902 1.271,-7.804 1.905,-11.706c-4.903,0.834 -9.967,0.712 -14.925,0.701c0.066,3.696 0.134,7.393 0.201,11.089c4.461,-2.395 8.824,-3.026 13.847,-3.089c-0.067,-3.728 -0.135,-7.455 -0.203,-11.183c-3.264,1.189 -6.326,1.671 -9.763,1.138c-1.293,3.954 -2.586,7.909 -3.879,11.864c5.188,-0.822 9.941,-1.229 15.052,0.229c-0.091,-3.383 -0.183,-6.766 -0.274,-10.148c-12.489,9.579 -14.309,28.706 -15.817,43.258c5.6,-1.314 11.201,-2.627 16.801,-3.941c0.165,-10.697 2.76,-23.636 -2.6,-33.511c-3.255,-5.995 -12.102,-1.606 -15.123,2.191c-5.25,6.601 -8.066,14.646 -11.473,22.268c5.459,-0.766 10.918,-1.532 16.377,-2.298c0.091,-5.877 0.277,-11.761 0.277,-17.638c0,-8.047 -13.831,-3.761 -16.106,0.716c-3.448,6.782 -6.24,13.873 -9.694,20.647c5.47,-0.243 10.939,-0.485 16.409,-0.729c0.037,-5.172 0.06,-10.344 0.06,-15.518c0,-8.916 -17.493,-3.617 -17.635,4.137c-0.11,5.965 -0.879,12.057 -1.845,17.938c-0.368,2.237 -0.116,4.719 2.438,5.619c10.463,3.691 21.454,5.782 32.574,4.781c3.795,-0.341 7.692,-2.012 9.852,-5.305c1.575,-2.401 1.563,-6.12 -1.594,-7.287c-12.369,-4.575 -25.827,-5.925 -38.93,-4.766c-3.77,0.333 -7.646,2.002 -9.789,5.271c-1.548,2.36 -1.569,6.115 1.584,7.24c15.621,5.569 32.157,5.908 48.462,3.717c3.584,-0.481 13.734,-4.553 10.468,-10.146c-3.406,-5.831 -10.135,-8.685 -13.357,-14.364c-1.109,-1.954 1.322,-5.676 2.121,-7.453c1.567,-3.486 2.772,-6.851 3.015,-10.698c-5.724,1.343 -11.446,2.685 -17.17,4.027c1.109,9.061 1.423,18.573 6.737,26.359c4.276,6.266 13.891,1.627 16.489,-3.921c4.333,-9.252 3.446,-19.606 4.364,-29.522c-5.487,1.824 -10.975,3.647 -16.463,5.471c2.971,8.627 5.047,17.298 6.096,26.365c0.986,8.531 17.475,3.357 16.688,-3.914c-1.031,-9.527 0.528,-21.058 -6.444,-28.693c-2.378,3.626 -4.756,7.252 -7.134,10.878c7.424,-2.062 14.575,3.18 20.656,6.862c3.869,-3.797 7.74,-7.594 11.609,-11.391c-7.899,-3.282 -15.803,-6.402 -24.033,-8.766c-2.707,4.128 -5.414,8.255 -8.121,12.383c6.951,1.754 13.563,4.453 19.249,8.884c3.056,-3.674 6.112,-7.347 9.168,-11.021c-10.375,-0.139 -21.338,-1.712 -29.313,6.594c-2.167,2.257 -3.828,6.954 0.249,8.451c7.025,2.578 14.268,3.721 21.728,2.739c0.672,-4.122 1.343,-8.245 2.015,-12.368c-7.165,2.218 -14.489,3.783 -21.344,6.914c-2.805,1.281 -6.165,3.846 -6.122,7.3c0.04,3.121 3.586,4.756 6.334,4.394c4.203,-0.555 8.377,-0.715 12.158,1.445c1.181,-3.699 2.36,-7.397 3.541,-11.097c-8.782,4.522 -18.392,5.007 -26.12,11.799c-3.502,3.077 -2.936,8.313 2.008,9.169c7.394,1.28 14.885,1.091 22.259,-0.188c7.458,-1.294 12.644,-12.581 2.047,-12.566c-10.608,0.015 -20.223,1.521 -28.43,8.757c-2.741,2.417 -3.422,6.792 0.254,8.627c10.113,5.049 21.992,2.861 32.498,0.342c3.338,-0.8 7.03,-3.037 8.166,-6.476c1.404,-4.249 -2.688,-5.962 -6.122,-6.073c-3.903,-0.126 -7.757,-0.904 -11.677,-1.031c-3.536,-0.114 -7.633,2.225 -9.544,5.139c-2.14,3.264 -0.65,6.993 3.294,7.592c15.887,2.411 32.498,0.503 45.698,-9.311c2.138,-1.59 6.506,-6.495 2.842,-9.071c-2.987,-2.102 -5.966,-3.446 -9.429,-4.577c-3.471,-1.132 -7.122,-1.981 -9.681,-4.725c-0.375,2.56 -0.75,5.119 -1.125,7.68c1.787,-1.875 3.875,-2.234 6.331,-2.91c4.32,-1.191 8.255,-2.732 12.116,-5.01c4.66,-2.748 5.745,-9.026 -0.284,-10.513c-8.646,-2.13 -17.623,-1.224 -26.428,-1.149c1.766,2.563 3.531,5.126 5.297,7.689c0.048,-0.067 2.23,-2.362 1.369,-1.723c-0.963,0.566 -2.02,0.871 -3.172,0.911c-0.407,0.055 -2.153,-0.632 -0.827,0.041c-0.568,-0.288 0.665,0.964 0.872,1.331c0.529,0.935 1.035,2.126 1.256,3.177c1.159,5.545 -0.081,11.26 -4.523,14.888c3.99,-0.972 7.98,-1.944 11.971,-2.916c-1.492,-0.857 -2.703,-2.027 -3.934,-3.213c-3.783,3.7 -7.565,7.401 -11.349,11.103c13.608,0.853 25.994,-2.899 39.214,-5.358c-1.489,-3.432 -2.979,-6.863 -4.468,-10.296c-3.433,2.486 -6.148,5.809 -9.552,8.271c-5.019,3.632 -5.465,10.963 2.291,10.597c9.15,-0.433 17.453,-4.683 24.122,-10.799c2.042,-1.873 3.456,-5.402 1.12,-7.644c-3.213,-3.081 -8.352,-1.194 -11.61,0.611c-1.575,0.873 -7.595,2.467 -10.61,4.138c3.922,1.827 7.844,3.654 11.766,5.48c2.025,-3.553 2.506,-7.221 3.979,-10.932c1.262,-3.178 -1.393,-5.187 -4.069,-5.904c-5.922,-1.589 -10.727,-2.854 -16.911,-1.877c0.049,4.044 0.096,8.089 0.145,12.133c5.468,-1.268 10.475,-3.914 15.922,-5.175c7.275,-1.685 12.566,-11.92 2.022,-12.423c-3.188,-0.151 -6.343,-0.877 -9.554,-1.03c1.326,3.058 2.653,6.115 3.98,9.173c3.078,-3.345 9.905,-3.173 14.119,-3.684c4.072,-0.492 8.842,-2.438 10.254,-6.717c1.353,-4.091 -2.619,-6.066 -6.063,-6.014c-6.807,0.104 -13.531,1.093 -20.211,2.361c-5.802,1.103 -12.897,10.045 -4.029,12.324c8.267,2.124 16.863,2.195 25.35,2.199c4.009,0.002 8.979,-2.783 10.284,-6.737c1.369,-4.142 -2.641,-6.03 -6.081,-6.032c-7.225,-0.003 -14.31,-0.135 -21.35,-1.938c-1.344,4.108 -2.687,8.216 -4.029,12.324c5.276,-1.007 10.496,-1.684 15.875,-1.771c1.397,-4.243 2.794,-8.487 4.191,-12.73c-10.602,1.291 -22.751,2.461 -30.459,10.785c-4.195,4.532 -1.852,8.89 3.98,9.173c3.188,0.155 6.342,0.884 9.552,1.04c0.675,-4.141 1.349,-8.282 2.022,-12.423c-5.468,1.261 -10.476,3.903 -15.922,5.161c-3.579,0.826 -8.411,3.827 -8.357,8.044c0.056,4.439 5.371,4.581 8.502,4.089c2.408,-0.378 6.235,1.629 8.562,2.256c-1.356,-1.968 -2.713,-3.936 -4.069,-5.904c-0.988,2.483 -1.051,5.333 -2.389,7.674c-1.458,2.552 -1.501,5.607 1.534,7.01c3.438,1.59 7.177,0.16 10.231,-1.529c1.582,-0.875 7.598,-2.46 10.616,-4.132c-3.497,-2.345 -6.993,-4.688 -10.49,-7.032c-2.189,2.004 -4.71,3.533 -7.718,3.674c0.764,3.532 1.527,7.064 2.291,10.597c3.434,-2.483 6.15,-5.805 9.554,-8.268c6.735,-4.875 3.616,-11.797 -4.468,-10.296c-10.165,1.888 -20.366,5.638 -30.837,4.978c-3.797,-0.239 -7.431,0.698 -10.227,3.445c-1.982,1.947 -3.507,5.357 -1.122,7.657c2.047,1.976 4.211,3.637 6.68,5.057c3.871,2.227 9.013,-0.502 11.971,-2.916c8.726,-7.12 12.387,-20.479 7.34,-30.801c-2.367,-4.84 -6.856,-7.165 -12.123,-7.109c-7.29,0.078 -13.244,5.516 -17.227,11.055c-3.147,4.378 1.012,7.725 5.297,7.689c7.502,-0.061 15.032,-0.901 22.396,0.917c-0.095,-3.505 -0.189,-7.009 -0.284,-10.513c-2.827,1.666 -6.649,2.102 -9.732,3.145c-4.616,1.562 -8.775,4.003 -12.152,7.541c-2.021,2.119 -3.435,5.202 -1.125,7.68c5.29,5.676 13.132,5.105 19.102,9.308c0.947,-3.023 1.895,-6.047 2.842,-9.071c-8.442,6.272 -18.499,6.695 -28.599,5.158c-2.084,4.244 -4.167,8.487 -6.25,12.73c3.902,0.128 7.756,0.907 11.675,1.035c0.682,-4.183 1.362,-8.366 2.044,-12.549c-6.676,1.598 -14.107,3.572 -20.572,0.342c0.085,2.875 0.17,5.751 0.254,8.627c2.775,-2.445 8.535,-1.576 11.902,-1.579c0.683,-4.188 1.364,-8.378 2.047,-12.566c-4.549,0.788 -9.297,0.598 -13.827,-0.188c0.669,3.057 1.339,6.112 2.008,9.169c1.586,-1.394 4.434,-1.822 6.397,-2.386c4.124,-1.184 8.242,-2.438 12.061,-4.421c3.888,-2.019 9.482,-7.738 3.541,-11.097c-5.809,-3.284 -13.229,-3.562 -19.686,-2.688c0.07,3.897 0.142,7.795 0.212,11.693c5.421,-2.498 11.194,-3.716 16.867,-5.492c3.297,-1.033 6.876,-2.835 8.048,-6.383c1.248,-3.777 -2.531,-6.458 -6.033,-5.985c-4.968,0.671 -9.627,0.321 -14.358,-1.394c0.083,2.817 0.166,5.635 0.249,8.451c0.234,-0.246 -2.983,0.704 0.202,0.022c0.948,-0.202 2.231,-0.035 3.199,-0.035c3.248,-0.002 6.49,0.351 9.738,0.403c3.736,0.059 14.921,-6.51 9.168,-11.021c-7.588,-5.949 -16.04,-9.418 -25.329,-11.788c-7.136,-1.82 -18.429,9.394 -8.121,12.383c7.035,2.04 13.799,4.947 20.545,7.773c6.269,2.625 20.121,-6.201 11.609,-11.391c-10.121,-6.171 -20.37,-10.926 -32.41,-7.61c-3.984,1.098 -11.473,6.095 -7.134,10.878c4.928,5.432 3.352,16.212 4.169,22.99c5.563,-1.305 11.125,-2.609 16.688,-3.914c-1.279,-9.996 -3.529,-19.873 -6.643,-29.455c-1.006,-3.098 -5.676,-3.117 -8.143,-2.538c-3.963,0.932 -7.855,3.742 -8.32,8.009c-0.968,8.871 -0.231,18.037 -4.128,26.298c5.496,-1.308 10.993,-2.614 16.489,-3.921c-4.775,-7.045 -5.023,-15.078 -5.997,-23.258c-1.079,-9.057 -16.692,-3.197 -17.17,4.027c-0.431,6.526 -7.845,13.337 -5.006,20.187c2.845,6.865 10.211,9.39 13.765,15.521c3.489,-3.382 6.979,-6.764 10.468,-10.146c-13.557,1.791 -27.645,2.208 -40.694,-2.486c-2.735,4.171 -5.47,8.341 -8.205,12.511c10.424,-0.896 21.254,-0.177 31.121,3.504c2.753,-4.197 5.505,-8.395 8.258,-12.592c-8.438,0.739 -16.772,-0.678 -24.738,-3.488c0.813,1.873 1.626,3.746 2.438,5.619c1.154,-7.024 2.269,-14.209 2.399,-21.34c-5.878,1.379 -11.757,2.758 -17.635,4.137c0,5.164 0.022,10.326 0.06,15.49c0.059,8.15 14.114,3.911 16.409,-0.729c3.361,-6.798 6.044,-13.907 9.411,-20.696c-5.368,0.238 -10.737,0.477 -16.106,0.716c0,5.833 0.187,11.673 0.277,17.507c0.051,3.256 3.521,4.451 6.25,4.336c4.225,-0.18 8.482,-2.668 10.127,-6.634c2.804,-6.763 5.025,-13.355 9.756,-19.08c-5.041,0.73 -10.082,1.461 -15.123,2.191c4.514,8.833 1.656,21.029 1.646,30.575c-0.01,8.71 16.167,3.132 16.801,-3.941c0.522,-5.825 1.308,-11.6 2.565,-17.314c0.661,-3.005 1.542,-5.959 2.587,-8.852c0.456,-1.263 0.992,-2.457 1.649,-3.625c0.089,-0.158 1.923,-2.299 0.729,-1.373c4.02,-3.115 5.898,-8.428 -0.274,-10.148c-7.69,-2.143 -15.418,-1.039 -23.155,0.229c-5.242,0.858 -12.749,10.541 -3.879,11.864c7.725,1.153 14.829,-0.317 22.077,-2.999c6.286,-2.327 8.373,-11.336 -0.203,-11.183c-8.713,0.156 -16.55,2.089 -24.205,6.247c-5.729,3.113 -4.435,10.045 2.167,10.022c6.409,-0.021 12.714,-0.257 19.04,-1.365c3.092,-0.542 6.602,-2.97 7.616,-6.041c1.258,-3.807 -2.452,-5.779 -5.711,-5.665c-3.922,0.139 -7.764,0.928 -11.687,1.065c-3.771,0.133 -8.355,2.507 -9.606,6.293c-1.314,3.978 2.508,5.483 5.681,5.635c2.833,0.136 5.633,0.873 8.498,1.01c-0.066,-3.634 -0.133,-7.269 -0.198,-10.903c-4.542,2.27 -7.972,4.891 -11.056,8.947c4.891,-0.217 9.782,-0.434 14.674,-0.651c0.261,-2.821 0.484,-4.863 -0.323,-7.625c-0.878,-3.001 -5.317,-2.738 -7.575,-2.36c-12.714,2.126 -25.816,1.123 -38.211,5.209c-3.249,1.071 -7.737,3.3 -7.686,7.396c0.049,3.791 4.97,4.622 7.818,3.76c4.473,-1.354 10.064,-2.861 14.686,-1.299c1.783,-3.648 3.565,-7.296 5.348,-10.943c-4.426,1.313 -8.36,3.835 -12.737,5.132c-3.097,0.918 -6.47,2.696 -7.56,5.995c-1.302,3.94 2.491,5.51 5.668,5.622c3.9,0.138 7.749,0.929 11.666,1.067c-0.716,-3.308 -1.431,-6.615 -2.146,-9.923c-4.527,3.213 -9.301,6.058 -13.828,9.272c-4.123,2.929 -5.58,8.243 0.268,9.885c7.052,1.979 14.768,0.105 21.67,2.639c-0.486,-2.223 -0.973,-4.445 -1.459,-6.668c-1.424,2.557 -1.9,2.65 -4.29,3.266c-3.384,0.871 -7.056,0.705 -10.501,0.338c-7.165,-0.763 -15.268,-2.791 -21.311,-6.904c-4.082,3.298 -8.164,6.595 -12.245,9.892c3.685,1.842 7.173,3.953 10.631,6.186c2.476,-3.774 4.95,-7.549 7.425,-11.323c-3.675,0.479 -5.582,-2.928 -5.783,-6.216c-4.43,2.392 -8.861,4.784 -13.291,7.176c5.175,3.1 9.92,6.804 14.681,10.494c4.849,3.759 16.256,-0.79 14.19,-7.717c-0.688,-2.309 -0.762,-4.444 -0.779,-6.838c-3.862,2.537 -7.725,5.073 -11.588,7.61c5.885,1.097 11.85,0.203 17.776,0.102c3.995,-0.068 9.661,-3.176 9.722,-7.709c0.053,-4.021 0.469,-5.121 2.199,-8.365c1.257,-2.356 1.457,-5.18 -1.414,-6.463c-10.44,-4.667 -22.022,-3.756 -33.169,-3.699c-5.796,0.029 -14.984,9.462 -5.722,11.654c8.312,1.968 16.65,3.128 25.199,3.213c5.931,0.059 14.838,-9.236 5.722,-11.654c-9.347,-2.48 -18.79,-2.929 -28.264,-0.866c-3.05,0.664 -6.448,2.825 -7.474,5.927c-0.9,2.726 1.034,5.092 3.755,5.447c8.178,1.068 16.102,2.958 23.874,5.714c1.773,-3.627 3.546,-7.255 5.318,-10.882c-9.214,2.658 -19.122,-0.672 -28.012,-3.242c-2.509,3.827 -5.019,7.653 -7.527,11.48c7.367,2.039 14.73,4.017 22.302,5.147c1.89,-3.85 3.78,-7.7 5.67,-11.55c-8.424,0.054 -16.596,0.748 -24.199,-3.52c-4.724,-2.65 -17.44,4.405 -11.878,9.594c0.473,0.441 0.911,0.886 1.331,1.377c-0.168,-0.196 -0.181,-0.56 -0.173,-0.306c-0.041,-1.439 1.147,-2.962 2.295,-3.718c0.847,-0.558 3.244,-1.193 1.001,-0.644c-1.341,0.329 -1.344,0.28 -3.756,0.417c-2.346,0.135 -4.702,0.085 -7.049,0.001c-4.303,-0.153 -8.612,-0.716 -12.856,-1.417c-3.529,-0.583 -5.902,-0.96 -8.227,-2.164c-1.736,3.554 -3.474,7.108 -5.21,10.662c11.327,-2.753 24.188,0.092 34.98,3.834c0.438,-2.996 0.878,-5.992 1.315,-8.988c0.596,-0.382 2.189,-0.881 1.145,-0.582c-1.218,0.348 -2.478,0.552 -3.726,0.754c-2.036,0.331 -6.035,0.455 -8.803,0.45c-3.562,-0.007 -11.329,-0.423 -12.905,-3.043c-0.522,-0.868 0.268,-1.229 -0.755,0.757c-0.669,0.934 -1.517,1.618 -2.544,2.053c-1.698,0.861 0.056,0.011 0.603,-0.106c-0.642,0.138 2.415,-0.156 3.128,-0.174c1.34,-0.031 2.682,0.02 4.017,0.122c3.158,0.244 6.301,0.724 9.411,1.312c1.237,0.233 2.464,0.516 3.684,0.823c0.779,0.218 0.803,0.217 0.071,-0.004c0.38,0.119 0.747,0.267 1.11,0.428c1.065,-3.338 2.131,-6.677 3.196,-10.015c2.721,-0.949 1.328,-0.454 0.632,-0.313c-1.676,0.341 1.833,-0.206 -0.154,0.029c-1.683,0.198 -3.38,0.28 -5.071,0.352c-3.708,0.157 -7.456,0.138 -11.159,-0.11c-3.882,-0.26 -7.764,-0.752 -11.543,-1.688c-2.095,-0.52 0.635,0.276 -1.213,-0.401c-0.221,-0.081 -2.263,-1.118 -1.4,-0.537c-0.211,-0.142 -1.235,-1.253 -0.471,-0.159c-0.271,-0.388 -0.092,-0.011 -0.209,0.456c-0.165,0.655 -0.925,1.2 -1.428,1.565c-0.279,0.203 -2.653,0.957 -0.871,0.549c-1.41,0.322 1.1,-0.042 1.162,-0.045c0.94,-0.04 1.862,0.012 2.797,0.097c5.133,0.463 10.211,1.678 15.216,2.858c8.138,1.92 17.14,5.369 25.626,4.708c3.01,-0.234 13.704,-5.795 8.227,-9.888c-10.707,-8.001 -23.451,-11.267 -35.159,-17.365c-2.938,3.541 -5.875,7.082 -8.813,10.623c9.808,2.063 18.938,5.963 28.084,9.963c2.389,-3.643 4.777,-7.285 7.167,-10.929c-9.188,-0.112 -19.395,-1.548 -27.104,-6.939c-3.469,3.395 -6.938,6.789 -10.408,10.183c7.437,1.021 15.813,2.825 21.565,7.968c2.85,-3.425 5.699,-6.851 8.549,-10.275c-8.097,0.561 -16.091,-3.625 -20.106,-10.747c-4.593,2.498 -9.185,4.994 -13.776,7.491c1.779,1.676 3.393,3.368 3.292,5.585c0.037,-0.839 0.497,-0.907 0.012,-0.44c0.52,-0.5 0.913,-0.629 0.36,-0.496c0.986,-0.236 -0.743,0.016 -0.804,0.009c-1.477,-0.17 -0.672,-0.02 -1.93,-0.707c0.213,0.116 -0.536,-0.799 -0.689,-1.124c-0.501,-1.064 -0.229,-2.524 -0.032,-3.748c-3.728,2.448 -7.455,4.896 -11.183,7.343c3.51,0.738 7.608,1.742 9.716,3.758c0.305,0.292 0.198,1.223 0.437,-0.151c-0.274,1.587 0.487,-0.59 -0.053,0.283c-0.552,0.894 1.094,-1.058 -0.313,0.294c-0.859,0.826 1.282,-0.878 -0.508,0.337c-1.901,1.289 0.679,-0.259 -0.638,0.411c-0.733,0.373 -1.494,0.689 -2.255,1c-2.104,0.859 0.292,-0.026 -1.029,0.372c-0.837,0.253 -1.689,0.451 -2.542,0.641c-0.318,0.071 -3.036,0.464 -1.262,0.249c-0.841,0.102 -1.687,0.141 -2.532,0.168c-0.41,0.008 -0.821,0.006 -1.232,-0.006c0.799,0.059 0.805,0.052 0.018,-0.021c-2.535,-0.258 -3.73,-0.923 -4.442,-2.321c-0.505,-0.992 -0.528,-1.916 -0.368,-3.721c-0.08,0.342 0.003,0.066 0.25,-0.826c-1.105,1.67 -2.594,2.608 -4.465,2.814c0.155,-0.017 1.439,0.273 1.908,0.447c2.313,0.854 4.141,2.31 5.732,4.161c0.375,0.437 0.635,1.3 0.67,1.759c1.103,-2.775 3.596,-4.389 7.48,-4.841c1.797,0.394 2.106,0.369 0.931,-0.073c-3.2,-1.398 -7.812,-6.862 -7.191,-10.631c-4.224,1.833 -8.447,3.666 -12.671,5.499c5.451,2.021 8.812,6.15 8.28,12.109c4.294,-2.318 8.589,-4.638 12.884,-6.956c-5.197,-2.838 -7.056,-8.582 -7.225,-14.185c-4.285,2.313 -8.57,4.627 -12.855,6.94c5.762,3.23 12.147,7.83 19.031,7.785c4.243,-0.026 8.747,-2.085 11.025,-5.759c2.227,-3.589 0.872,-7.765 -0.532,-11.379c-4.176,2.769 -8.351,5.536 -12.526,8.304c3.879,2.532 7.785,2.685 12.177,3.569c4.575,0.921 12.731,-3.179 10.954,-8.768c-3.528,-11.094 -17.598,-13.755 -27.688,-13.916c-4.475,-0.071 -14.077,7.215 -7.098,10.825c2.814,1.456 5.517,3.018 8.496,4.129c4.525,1.688 17.252,-3.652 11.656,-9.415c-9.836,-10.13 -29.111,-7.569 -41.531,-5.24c-5.219,0.979 -11.429,8.882 -3.586,10.971c7.331,1.952 14.792,3.08 22.298,4.121c1.835,-3.738 3.67,-7.476 5.505,-11.214c-5.323,0.108 -10.594,0.922 -15.917,1.025c-5.499,0.106 -14.521,9.201 -5.514,11.229c4.363,0.982 8.417,2.952 12.731,4.143c1.196,-3.658 2.393,-7.316 3.588,-10.976c-3.963,0.996 -8.07,2.481 -12.197,1.896c-4.771,-0.678 -14.399,4.115 -10.088,9.87c4.97,6.633 12.941,9.176 20.313,12.199c2.962,-3.571 5.925,-7.143 8.887,-10.714c-11.72,-1.9 -24.892,-3.317 -34.425,-11.077c-3.342,3.271 -6.686,6.541 -10.027,9.812c10.884,2.279 20.807,7.85 31.938,9.157c3.686,0.434 7.813,-1.108 9.902,-4.297c1.984,-3.025 0.392,-5.663 -2.82,-6.5c-7.098,-1.852 -15.447,-2.371 -20.744,-8.008c-2.028,3.093 -4.057,6.186 -6.085,9.279c7.601,-1.445 14.977,-2.821 21.052,-7.939c4.172,-3.514 1.145,-7.748 -3.403,-7.843c-5.665,-0.118 -11.083,-0.801 -16.711,0.259c2.116,2.089 4.231,4.178 6.347,6.267c0.11,-0.151 0.221,-0.302 0.332,-0.452c-2.691,1.449 -5.384,2.898 -8.075,4.348c4.116,-0.364 7.339,-1.485 9.866,-4.929c2.73,-3.722 -0.908,-6.524 -4.495,-6.525c-6.544,-0.002 -13.021,-0.091 -19.52,-0.931c-3.626,-0.469 -7.735,1.122 -9.783,4.245c-1.987,3.03 -0.354,5.54 2.787,6.423c3.325,0.935 6.263,2.863 9.134,4.719c2.256,-3.44 4.512,-6.881 6.769,-10.321c-5.489,-0.004 -10.897,-0.142 -16.339,-0.927c-2.33,3.554 -4.66,7.106 -6.99,10.66c6.904,1.004 13.853,1.119 20.818,1.115c-0.061,-3.312 -0.12,-6.622 -0.181,-9.933c-8.759,3.193 -19.64,2.134 -28.144,-1.34c-2.229,3.4 -4.459,6.8 -6.688,10.2c8.065,-1.113 16.315,-0.079 24.421,-0.026c0.566,-3.479 1.133,-6.959 1.699,-10.438c-4.803,1.426 -12.875,3.195 -16.678,0.093c-0.324,-0.265 -0.318,-0.72 -0.285,-0.073c-0.102,0.961 -0.487,1.763 -1.156,2.406c-0.321,0.337 -3.66,1.768 -2.002,1.353c2.58,-0.646 8.078,0.56 11.468,1.341c2.271,-3.463 4.543,-6.928 6.814,-10.391c-9.41,-1.133 -18.444,-3.896 -27.613,-6.178c-2.261,3.446 -4.521,6.894 -6.781,10.34c2.035,0.324 4.01,0.911 5.727,2.107c0.495,0.346 1.247,0.912 1.581,1.434c0.253,0.395 4.085,-3.764 3.125,-3.643c1.674,1.66 3.346,3.319 5.02,4.979c0.461,-1.396 0.886,-2.804 1.332,-4.205c0.619,-1.431 0.131,-1.012 -1.463,1.259c-1.135,0.905 1.721,-0.657 1.654,-0.63c-2.888,-1.371 -5.775,-2.741 -8.664,-4.111c-0.494,1.599 -1.027,2.883 -1.991,4.25c-0.099,0.14 -1.146,0.442 0.128,0.053c-1.291,0.395 -3.367,-0.003 -5.461,-0.904c-1.717,-0.738 -3.758,-2.303 -4.342,-3.32c-0.713,-1.239 -0.039,-0.353 -0.676,0.776c-1.385,2.456 -4.594,2.059 -0.318,1.886c1.196,-0.048 0.406,1.946 0.404,1.951c-0.441,0.645 -0.449,0.677 -0.023,0.096c4.596,-4.854 9.441,0.228 5.36,-2.576c-1.479,-1.016 -1.981,-2.813 -3.003,-1.626c1.43,-1.66 4.104,-0.864 0.702,-1.229c-0.978,-0.105 -1.797,-1.395 -1.477,-0.589c-0.345,-0.869 -0.1,0.476 -0.112,0.712c0.017,-0.314 -0.503,1.51 -0.714,2.009c0.421,-0.999 -0.387,0.479 -0.451,0.571c1.954,-2.792 11.143,0.744 8.917,-2.292c-2.961,-4.036 -10.295,0.317 -12.355,2.995c-0.026,0.033 -0.053,0.067 -0.078,0.101c3.731,-1.257 7.463,-2.515 11.195,-3.772c1.323,0.714 -1.433,-1.942 -1.971,-2.573c-0.965,-1.13 -1.835,-2.091 -3.169,-2.811c-3.808,-2.052 -8.917,0.787 -11.224,3.782c-0.025,0.033 -0.051,0.067 -0.077,0.101c4.386,-0.636 8.771,-1.271 13.155,-1.906c-0.449,-0.668 -0.455,-0.528 0.167,-1.659c0.956,-1.738 -10.017,-1.541 -7.98,1.86c0.134,0.222 0.854,2.12 0.701,1.335c0.218,1.113 -0.053,0.868 0.36,0.124c0.193,-0.35 1.309,-1.142 0.657,-0.724c0.556,-0.357 1.563,-0.659 0.837,-0.455c-0.344,0.097 -2.735,0.428 -1.014,0.236c-1.035,0.115 -2.08,0.117 -3.119,0.098c-1.439,-0.026 -5.652,-1.142 -6.668,-1.913c-1.209,-0.918 -1.008,-0.82 -1.032,-1.12c-0.026,-0.33 0.101,-0.361 -0.124,0.062c0.624,-1.176 0.49,-0.77 1.617,-1.795c3.797,-3.456 1.363,-7.751 -3.338,-7.692c-0.355,0.004 -0.711,0.009 -1.066,0.014c-0.563,3.461 -1.127,6.922 -1.691,10.383c6.29,-1.534 12.996,0.994 18.66,3.614c4.036,1.866 15.467,-3.827 10.349,-8.36c-6.782,-6.008 -15.165,-7.553 -23.816,-5.018c-2.996,0.879 -10.263,6.484 -4.463,9.132c5.992,2.735 12.259,4.351 18.849,4.531c4.807,0.132 12.294,-8.492 4.697,-9.567c-7.178,-1.016 -14.05,-0.856 -21.203,0.248c0.035,2.994 0.07,5.986 0.105,8.98c1.734,-0.561 3,-0.854 4.787,-0.88c-1.539,-1.067 -3.078,-2.135 -4.617,-3.202c-0.014,2.584 -0.072,5.22 -2.254,6.969c2.725,-0.144 5.449,-0.287 8.174,-0.431c-2.309,-2.451 -3.451,-5.337 -0.953,-8.135c-3.283,-0.19 -6.566,-0.381 -9.85,-0.571c-0.004,3.998 -0.802,5.411 -3.574,8.182c3.101,-0.152 6.2,-0.305 9.3,-0.457c-1.901,-3.322 -2.489,-5.732 0.646,-8.322c5.016,-4.164 -2.878,-7.382 -6.603,-4.435Z" style="fill:#010101;fill-rule:nonzero;"/><path d="M300.603,449.084c1.143,-0.217 1.289,-0.277 0.44,-0.181c-2.479,0.208 -8.463,2.872 -6.629,6.424c1.989,3.851 9.722,3.824 13.501,4.1c5.987,0.437 11.835,-0.37 17.562,-2.147c-1.179,-2.717 -2.357,-5.435 -3.537,-8.151c-3.256,1.993 -6.55,3.937 -9.76,6.003c-4.198,2.703 -4.549,9.787 1.923,8.892c9.163,-1.267 17.413,-4.794 26.239,-7.319c-1.291,-2.976 -2.583,-5.952 -3.875,-8.928c-5.006,2.88 -10.032,5.688 -15.218,8.236c-5.261,2.586 -8.173,10.462 0.188,10.367c11.957,-0.135 23.414,-3.09 34.826,-6.393c-0.043,-3.64 -0.086,-7.278 -0.129,-10.918c-10.265,3.242 -20.74,5.757 -30.699,9.91c-5.779,2.41 -8.135,10.779 0.193,10.659c10.535,-0.152 20.442,-3.14 30.637,-5.415c-0.729,-3.479 -1.455,-6.959 -2.184,-10.438c-9.426,4.939 -19.623,7.717 -29.791,10.67c-3.27,0.95 -7.737,3.386 -7.687,7.397c0.052,4.098 4.94,4.191 7.819,3.761c13.952,-2.091 27.303,-7.74 41.515,-7.965c3.706,-0.059 8.26,-2.523 9.478,-6.208c1.267,-3.834 -2.439,-5.535 -5.604,-5.56c-14.283,-0.109 -28.226,-1.555 -41.022,6.13c-2.469,1.481 -5.506,5.764 -2.614,8.344c11.215,10.004 31.781,6.955 44.95,3.255c3.084,-0.866 6.454,-2.716 7.529,-5.971c0.873,-2.642 -1.008,-5.271 -3.783,-5.487c-12.854,-1.004 -25.306,1.82 -37.845,4.285c0.045,3.775 0.09,7.553 0.135,11.328c15.646,-3.076 31.099,-7.026 46.701,-10.304c3.099,-0.65 6.563,-2.889 7.6,-6.026c0.894,-2.705 -1.029,-5.267 -3.818,-5.539c-10.61,-1.035 -21.23,-1.981 -31.831,-3.117c-1.264,3.865 -2.527,7.73 -3.791,11.597c10.876,-3.466 21.721,-6.297 31.659,-12.093c3.688,-2.15 5.976,-9.413 -0.267,-9.847c-14.312,-0.994 -28.232,0.974 -42.143,4.3c0.046,3.817 0.091,7.636 0.137,11.453c10.274,-3.256 20.962,-5.418 30.772,-10c2.334,-1.09 4.688,-2.801 5.534,-5.361c0.905,-2.74 -1.041,-5.278 -3.843,-5.575c-11.347,-1.203 -22.524,0.117 -32.438,6.063c-6.778,4.065 -3.135,11.488 4.221,9.726c10.071,-2.415 20.284,-4.552 29.723,-8.956c5.768,-2.692 8.673,-11.235 -0.201,-11.117c-14.199,0.188 -29.479,4.189 -41.204,12.385c-6.638,4.64 -3.288,11.045 4.253,9.801c13.029,-2.147 25.073,-8.793 38.252,-10.018c3.898,-0.361 8.513,-2.416 9.845,-6.448c1.311,-3.966 -2.528,-5.772 -5.821,-5.774c-1.12,-0.001 -2.241,-0.002 -3.361,-0.002c-3.839,-0.002 -8.598,2.665 -9.849,6.451c-1.311,3.966 2.529,5.773 5.823,5.775c15.029,0.009 29.838,1.785 44.716,-1.303c3.179,-0.66 6.735,-2.971 7.798,-6.185c1.315,-3.981 -2.539,-5.798 -5.847,-5.799c-7.455,-0.002 -14.88,0.078 -22.285,1.022c-3.546,0.452 -7.081,1.787 -9.135,4.919c-2.205,3.362 -0.453,6.356 3.153,7.267c11.818,2.979 23.993,3.131 36.074,4.154c4.179,0.354 8.705,-1.16 11.104,-4.819c1.952,-2.977 0.721,-6.946 -3.163,-7.29c-13.828,-1.225 -27.406,-1.907 -41.189,0.158c0.771,3.689 1.543,7.379 2.314,11.068c2.558,-0.876 5,-1.922 7.432,-3.098c3.16,-1.529 9.792,-8.298 3.428,-10.742c-11.696,-4.492 -24.896,-3.577 -36.584,0.377c-6.648,2.25 -8.361,11.403 0.207,11.401c6.074,-0.001 12.038,-0.288 18.035,-1.321c-2.004,-2.893 -4.008,-5.785 -6.012,-8.677c-4.799,4.574 -9.791,8.753 -13.997,13.907c-1.718,2.104 -1.288,5.861 1.497,6.846c12.515,4.422 24.796,1.891 37.613,0.651c0.662,-4.066 1.324,-8.134 1.986,-12.2c-11.871,2.312 -23.404,5.003 -33.959,11.128c-5.378,3.122 -5.021,11.063 2.248,10.394c13.464,-1.239 26.279,-5.066 39.282,-8.548c-0.048,-3.991 -0.095,-7.983 -0.143,-11.975c-14.406,4.551 -29.591,6.87 -42.461,15.284c-4.288,2.805 -5.866,8.88 0.279,10.307c14.786,3.434 29.695,-2.256 43.456,-7.153c4.48,-1.594 9.684,-10.705 1.754,-11.343c-16.19,-1.301 -38.133,-0.897 -50.26,11.659c-3.075,3.185 -3.031,7.825 1.929,8.806c17.546,3.47 37.442,-3.298 52.904,-11.279c2.669,-1.378 5.938,-3.601 5.895,-7.029c-0.052,-4.083 -5.187,-4.682 -8.188,-3.938c-5.281,1.309 -10.132,3.084 -14.798,5.903c-5.16,3.119 -5.054,10.997 2.219,10.257c16.17,-1.646 32.858,-9.107 44.127,-20.973c3.977,-4.188 1.993,-9.239 -3.936,-9.07c-11.985,0.34 -22.893,5.56 -34.074,9.291c-2.822,0.942 -6.096,4.036 -6.056,7.222c0.051,4.042 5.354,5.027 8.412,4.046c10.642,-3.412 21.104,-6.486 30.803,-12.185c5.365,-3.151 5.088,-11.171 -2.263,-10.464c-14.057,1.354 -27.039,6.264 -40.356,10.633c-3.504,1.148 -8.342,3.561 -8.286,7.974c0.056,4.39 5.326,4.559 8.429,4.054c14.846,-2.412 28.716,-8.532 42.553,-14.17c4.728,-1.926 9.656,-10.117 1.776,-11.484c-6.765,-1.175 -13.313,-0.989 -20.06,0.18c-5.501,0.952 -13.055,10.529 -3.999,12.229c12.766,2.396 26.903,-1.219 37.077,-9.276c2.197,-1.74 5.069,-4.498 3.697,-7.658c-1.3,-2.996 -5.422,-3.188 -8.119,-2.531c-1.415,0.345 -2.829,0.689 -4.244,1.035c-3.549,0.864 -8.351,3.768 -8.297,7.984c0.056,4.363 5.333,4.608 8.439,4.059c6.526,-1.154 12.811,-3.132 19.104,-5.174c-0.048,-4.01 -0.095,-8.021 -0.143,-12.031c-13.466,4.441 -26.703,10.042 -35.876,21.292c-3.387,4.153 1.213,7.676 5.215,7.569c12.934,-0.344 25.201,-5.966 36.126,-12.497c2.363,-1.412 4.943,-4.716 3.681,-7.624c-1.711,-3.943 -7.216,-2.901 -10.295,-1.783c-10.496,3.811 -21.334,7.273 -30.699,13.522c-5.654,3.774 -4.816,10.077 2.255,10.429c16.74,0.831 33.195,-7.527 46.716,-16.626c6.508,-4.379 3.549,-12.334 -4.385,-10.105c-12.43,3.491 -23.579,9.562 -35.094,15.232c-4.253,2.095 -9.844,10.003 -1.752,11.333c11.796,1.938 23.855,-2.83 34.094,-8.268c10.878,-5.777 21.452,-13.022 29.969,-21.986c6.023,-6.341 -2.026,-10.88 -8.164,-7.917c-7.656,3.696 -15.433,7.208 -22.172,12.474c-2.157,1.686 -4.949,4.408 -3.613,7.485c1.226,2.826 5.354,3.264 7.936,2.474c12.11,-3.707 22.592,-9.606 32.354,-17.631c2.071,-1.703 3.26,-5.289 1.08,-7.38c-2.451,-2.352 -6.399,-1.568 -9.203,-0.498c-9.425,3.598 -18.135,8.817 -26.424,14.521c-2.237,1.54 -4.895,4.51 -3.607,7.475c1.668,3.846 7.084,2.874 10.091,1.748c11.424,-4.276 22.387,-11.234 26.918,-23.07c1.438,-3.757 -2.639,-6.168 -5.893,-5.844c-15.631,1.553 -30.357,8.161 -43.507,16.52c-6.805,4.325 -3.404,12.122 4.394,10.122c11.466,-2.94 22.281,-8.384 31.906,-15.224c5.209,-3.702 5.302,-10.693 -2.284,-10.568c-15.921,0.262 -32.744,7.129 -44.367,17.977c-5.656,5.279 0.104,10.492 6.257,9.03c8.343,-1.983 13.625,-7.081 18.04,-14.169c2.783,-4.469 -0.705,-7.911 -5.364,-7.786c-9.015,0.242 -16.648,3.708 -23.207,9.81c-4.515,4.201 -1.756,9.533 4.071,9.382c9.84,-0.256 15.453,-5.209 21.351,-12.433c3.316,-4.063 -1.097,-8.309 -5.389,-7.821c-7.191,0.815 -13.696,3.186 -18.844,8.44c-3.649,3.726 -5.52,9 -8.985,12.601c-2.584,2.683 -3.961,7.278 0.271,9.234c4.12,1.904 9.876,-0.014 12.885,-3.139c2.706,-2.811 4.63,-5.98 6.477,-9.383c1.232,-2.271 2.314,-4.537 3.905,-4.721c-1.796,-2.606 -3.592,-5.214 -5.389,-7.821c-0.86,1.059 -1.702,2.089 -2.654,3.068c1.03,-1.06 3.722,-1.118 0.653,-1.032c1.357,3.127 2.715,6.254 4.071,9.382c2.156,-2.014 3.562,-2.508 6.512,-2.593c-1.788,-2.596 -3.576,-5.19 -5.364,-7.786c-0.747,1.204 -2.573,4.29 -3.187,4.437c2.086,3.011 4.171,6.021 6.257,9.03c7.25,-6.792 17.932,-10.747 27.805,-10.965c-0.762,-3.522 -1.523,-7.045 -2.284,-10.568c-7.063,5.077 -14.822,9.434 -23.285,11.651c1.465,3.374 2.929,6.748 4.394,10.122c9.169,-5.896 19.795,-11.323 30.79,-12.426c-1.964,-1.947 -3.929,-3.896 -5.893,-5.844c-2.567,6.73 -9.206,9.698 -15.535,12.074c2.161,3.074 4.321,6.148 6.483,9.223c7.088,-4.887 14.33,-9.283 22.4,-12.354c-2.707,-2.626 -5.415,-5.252 -8.123,-7.878c-6.126,5.025 -13.126,8.999 -20.717,11.314c1.441,3.319 2.882,6.639 4.322,9.959c5.587,-4.355 11.816,-7.215 18.16,-10.269c-2.722,-2.639 -5.442,-5.278 -8.164,-7.917c-6.117,6.426 -13.399,11.582 -20.992,16.118c-6.494,3.881 -15.389,8.679 -23.207,7.378c-0.584,3.777 -1.168,7.555 -1.752,11.333c10.038,-4.923 19.881,-10.688 30.711,-13.709c-1.461,-3.368 -2.923,-6.737 -4.385,-10.105c-10.038,6.751 -21.508,12.941 -33.948,12.315c0.752,3.477 1.503,6.952 2.255,10.429c7.988,-5.325 17.66,-8.04 26.617,-11.286c-2.205,-3.136 -4.41,-6.271 -6.614,-9.407c-7.035,4.199 -14.991,7.962 -23.312,8.179c1.738,2.523 3.477,5.047 5.215,7.569c5.028,-6.158 14.147,-9.386 21.437,-11.786c3.505,-1.153 8.345,-3.56 8.288,-7.977c-0.051,-4.045 -5.367,-5.047 -8.431,-4.055c-6.293,2.037 -12.578,4.012 -19.104,5.162c0.048,4.014 0.095,8.029 0.143,12.043c1.415,-0.344 2.829,-0.688 4.244,-1.031c-1.474,-3.396 -2.948,-6.793 -4.422,-10.189c-5.874,4.646 -12.821,6.585 -20.235,5.196c-1.333,4.076 -2.666,8.153 -3.999,12.229c3.973,-0.689 7.827,-0.505 11.78,0.18c0.592,-3.828 1.185,-7.656 1.776,-11.484c-12.452,5.077 -24.748,10.528 -38.111,12.705c0.048,4.009 0.095,8.019 0.143,12.027c11.773,-3.865 23.628,-8.843 36.062,-10.043c-0.754,-3.488 -1.509,-6.977 -2.263,-10.464c-6.891,4.051 -14.715,6.065 -22.268,8.491c0.785,3.756 1.571,7.512 2.356,11.268c8.264,-2.762 16.518,-6.984 25.363,-7.248c-1.312,-3.023 -2.623,-6.047 -3.936,-9.07c-7.081,7.478 -17.744,13.037 -28.045,14.172c0.74,3.419 1.479,6.838 2.219,10.257c1.998,-1.229 4.171,-1.787 6.429,-2.366c-0.765,-3.655 -1.528,-7.311 -2.293,-10.967c-11.76,6.187 -27.031,12.113 -40.498,9.393c0.643,2.936 1.286,5.871 1.929,8.806c6.049,-6.216 21.84,-5.588 30.408,-4.88c0.585,-3.781 1.17,-7.563 1.754,-11.343c-9.804,3.467 -20.336,7.718 -30.841,5.253c0.093,3.436 0.187,6.871 0.279,10.307c10.044,-6.539 22.71,-8.026 33.957,-11.591c3.494,-1.108 8.304,-3.571 8.248,-7.938c-0.052,-4.141 -5.321,-4.861 -8.391,-4.036c-11.544,3.104 -23.058,6.877 -35.015,7.991c0.749,3.464 1.498,6.929 2.248,10.394c7.651,-4.452 16.918,-5.806 25.479,-7.481c3.232,-0.633 6.866,-3.05 7.938,-6.296c1.261,-3.816 -2.515,-6.24 -5.952,-5.904c-9.788,0.957 -20.719,4.029 -30.316,0.651c0.499,2.282 0.998,4.563 1.497,6.846c3.303,-4.057 7.706,-7.295 11.476,-10.897c5.563,-5.315 -0.197,-9.685 -6.012,-8.677c-4.539,0.787 -9.211,0.739 -13.805,0.745c0.068,3.801 0.138,7.601 0.207,11.401c6.262,-2.126 14.572,-1.98 20.732,0.377c1.143,-3.581 2.285,-7.161 3.428,-10.742c-2.431,1.179 -4.872,2.227 -7.428,3.105c-2.771,0.951 -5.989,3.945 -5.949,7.094c0.055,4.328 5.221,4.434 8.264,3.975c10.958,-1.654 22.131,-0.802 33.107,0.158c2.647,-4.037 5.294,-8.072 7.941,-12.109c-12.09,-1.01 -24.271,-1.148 -36.102,-4.115c-1.994,4.063 -3.988,8.124 -5.981,12.186c7.407,-0.952 14.835,-1.041 22.293,-1.048c0.65,-3.994 1.301,-7.988 1.951,-11.983c-13.331,2.782 -27.069,0.76 -40.552,0.768c-3.84,0.002 -8.597,2.662 -9.849,6.451c-1.31,3.963 2.528,5.777 5.823,5.775c1.121,0 2.242,-0.001 3.363,-0.002c1.341,-4.074 2.683,-8.148 4.023,-12.223c-14.736,1.385 -27.924,8.245 -42.412,10.654c1.417,3.267 2.835,6.533 4.253,9.801c8.256,-5.787 18.889,-8.141 28.847,-8.287c-0.067,-3.705 -0.135,-7.411 -0.201,-11.117c-8.09,3.788 -16.835,5.498 -25.469,7.579c1.407,3.242 2.813,6.483 4.221,9.726c4.708,-2.832 11.11,-2.758 16.386,-2.202c0.563,-3.646 1.128,-7.291 1.691,-10.937c-8.467,3.957 -17.673,5.789 -26.544,8.605c-3.342,1.061 -7.943,3.414 -7.89,7.594c0.051,4.02 5.082,4.565 8.026,3.859c11.217,-2.687 22.692,-4.77 34.279,-3.97c-0.089,-3.282 -0.178,-6.564 -0.267,-9.847c-7.237,4.225 -15.623,6.055 -23.536,8.579c-3.12,0.996 -6.505,2.672 -7.619,6.043c-0.902,2.73 1.038,5.256 3.828,5.554c10.607,1.131 21.234,2.065 31.853,3.086c1.261,-3.855 2.521,-7.711 3.781,-11.565c-15.603,3.298 -31.055,7.27 -46.701,10.368c-3.351,0.663 -7.853,3.649 -7.804,7.51c0.052,4.062 5.019,4.396 7.938,3.818c9.803,-1.939 20.003,-4.76 30.085,-3.984c1.248,-3.819 2.497,-7.639 3.746,-11.458c-8.606,2.428 -23.973,5.788 -31.468,-0.878c-0.871,2.781 -1.742,5.563 -2.614,8.344c7.941,-4.779 20.236,-2.197 29.028,-2.14c1.291,-3.923 2.582,-7.845 3.873,-11.768c-15.644,0.265 -30.198,6.262 -45.521,8.574c0.045,3.72 0.088,7.438 0.133,11.158c11.501,-3.354 23.234,-6.474 33.893,-12.072c2.534,-1.332 5.651,-3.412 5.609,-6.69c-0.049,-3.934 -4.931,-4.391 -7.793,-3.748c-8.891,1.994 -17.498,4.743 -26.68,4.921c0.064,3.554 0.129,7.106 0.193,10.659c8.631,-3.646 17.716,-5.84 26.617,-8.695c3.185,-1.021 7.572,-3.248 7.521,-7.238c-0.048,-3.726 -4.86,-4.501 -7.65,-3.68c-10.186,2.999 -20.29,5.84 -30.979,6.014c0.063,3.455 0.125,6.911 0.188,10.367c6.403,-3.184 12.597,-6.728 18.747,-10.373c6.068,-3.598 2.928,-10.971 -3.875,-8.928c-8.163,2.451 -15.933,6.12 -24.41,7.408c1.249,2.879 2.498,5.758 3.748,8.637c3.157,-2.066 6.234,-4.262 9.346,-6.399c1.834,-1.261 4.012,-3.697 2.957,-6.127c-1.371,-3.161 -5.802,-2.343 -8.271,-1.433c-6.823,2.512 -13.895,2.47 -20.965,1.18c0.872,0.595 1.744,1.189 2.615,1.783c-0.096,-0.146 -0.193,-0.293 -0.29,-0.44c-1.739,2.075 -3.479,4.151 -5.219,6.227c1.418,-0.225 2.524,-0.465 3.807,-1.146c1.857,-0.986 4.787,-3.054 3.679,-5.609c-1.05,-2.442 -4.68,-2.004 -6.602,-1.15Z" style="fill:#010101;fill-rule:nonzero;"/></g></svg>