<?xml version="1.0" encoding="UTF-8" standalone="no"?><!DOCTYPE svg PUBLIC "-//W3C//DTD SVG 1.1//EN" "http://www.w3.org/Graphics/SVG/1.1/DTD/svg11.dtd"><svg width="100%" height="100%" viewBox="0 0 499 470" version="1.1" xmlns="http://www.w3.org/2000/svg" xmlns:xlink="http://www.w3.org/1999/xlink" xml:space="preserve" style="fill-rule:evenodd;clip-rule:evenodd;stroke-linejoin:round;stroke-miterlimit:1.41421;"><g id="pencil"><path d="M65.974,280.069c5.229,-8.039 15.619,-13.07 23.418,-18.202c11.702,-7.7 21.619,-17.913 31.923,-27.332c22.5,-20.567 45.943,-40.065 68.307,-60.776c21.979,-20.355 42.969,-41.783 62.956,-64.096c9.692,-10.818 18.911,-22.034 28.376,-33.049c8.75,-10.183 17.734,-20.398 29.2,-27.572c-3.357,-1.875 -6.715,-3.75 -10.072,-5.626c1.783,-2.085 2.005,-2.433 0.668,-1.043c-0.813,0.807 -1.574,1.659 -2.284,2.558c-4.742,5.741 1.179,12.289 7.45,8.488c4.623,-2.801 8.655,-5.411 9.531,-11.247c1.213,-8.077 -7.272,-7.742 -11.974,-4.267c-22.692,16.777 -39.487,40.702 -57.952,61.709c-20.495,23.314 -42.375,45.403 -65.135,66.505c-22.357,20.729 -45.812,40.241 -68.308,60.827c-9.896,9.058 -19.407,18.604 -30.611,26.043c-9.432,6.263 -20.755,12.574 -24.728,23.867c-2.366,6.73 5.919,8.312 9.235,3.213Z" style="fill-rule:nonzero;"/><path d="M241.556,112.731c3.854,5.385 9.933,9.077 15.063,13.173c5.813,4.643 11.384,9.6 16.811,14.687c11.626,10.896 23.146,21.92 34.727,32.867c12.292,11.619 24.184,23.658 35.863,35.891c11.64,12.189 23.961,24.313 34.388,37.568c1.243,-3.569 2.486,-7.139 3.729,-10.707c-0.171,0.106 -0.342,0.213 -0.514,0.319c2.242,-0.182 4.483,-0.363 6.725,-0.545c-0.748,-0.319 -2.875,-1.597 -4.595,-1.874c-4.011,-0.646 -10.311,4.221 -8.168,8.705c0.702,1.468 1.092,3.22 2.33,4.363c2.388,2.204 5.22,1.742 7.943,0.424c0.179,-0.086 0.357,-0.173 0.536,-0.26c3.149,-1.524 7.068,-7.529 3.729,-10.707c-12.262,-11.664 -23.262,-24.83 -35.013,-37.019c-12.181,-12.635 -24.65,-24.991 -37.48,-36.969c-11.618,-10.847 -23.264,-21.74 -35.144,-32.302c-10.276,-9.137 -23.535,-22.078 -38.178,-22.084c-2.018,0.001 -4.028,2.686 -2.752,4.47Z" style="fill-rule:nonzero;"/><path d="M304.532,46.06c29.781,13.616 54.371,37.171 79.281,57.945c24.851,20.725 50.784,43.504 64.146,73.667c3.845,-3.374 7.69,-6.749 11.536,-10.123c-2.36,-1.104 -4.616,-1.806 -7.196,-2.132c-4.427,-0.56 -9.278,3.881 -7.933,8.453c0.881,2.993 3.005,4.718 5.668,6.167c5.346,2.909 14.05,-4.31 11.536,-10.123c-13.519,-31.268 -40.552,-54.783 -66.25,-76.008c-13.017,-10.751 -26.21,-21.333 -39.529,-31.705c-13.538,-10.542 -28.673,-21.704 -45.844,-25.039c-4.03,-0.783 -10.511,6.568 -5.415,8.898Z" style="fill-rule:nonzero;"/><path d="M310.553,44.911c3.803,-8.388 12.7,-14.146 20.432,-18.535c8.842,-5.02 18.887,-8.889 28.873,-10.856c20.002,-3.939 43.121,-0.542 62.147,6.184c20.406,7.213 39.3,20.31 50.134,39.409c12.498,22.031 14.628,48.97 7.254,72.963c-2.955,9.617 -7.786,18.793 -13.271,27.188c-3.097,4.741 -6.52,9.313 -9.928,13.831c-3.184,4.222 -6.9,9.157 -8.761,14.096c-1.241,3.297 1.495,4.791 4.339,3.483c5.516,-2.538 10.587,-7.569 14.621,-12.065c4.506,-5.021 8.408,-10.462 12.051,-16.137c6.866,-10.699 12.224,-22.111 15.779,-34.324c7.091,-24.346 4.134,-51.814 -7.231,-74.406c-20.571,-40.89 -70.407,-57.186 -113.528,-54.809c-14.642,0.808 -28.872,5.695 -41.767,12.515c-12.508,6.616 -25.822,16.522 -29.078,31.093c-1.218,5.455 6.373,3.813 7.934,0.37Z" style="fill-rule:nonzero;"/><path d="M211.099,420.789c3.367,-8.907 12.486,-14.173 19.987,-19.343c11.412,-7.866 21.235,-17.85 31.346,-27.291c22.604,-21.108 42.759,-44.545 65.434,-65.584c22.517,-20.893 45.668,-41.089 68.186,-61.983c10.982,-10.191 21.971,-20.461 32.633,-30.985c9.234,-9.115 17.428,-19.551 28.503,-26.561c3.2,-2.025 7.015,-6.518 5.162,-10.658c-0.102,-0.228 -0.203,-0.454 -0.304,-0.681c-1.367,-3.056 -4.81,-3.917 -7.829,-2.856c-0.918,0.322 -7.803,3.375 -2.425,1.208c-3.211,1.294 -6.045,3.69 -6.804,7.232c-0.827,3.862 1.874,6.585 5.658,6.447c0.44,-0.017 4.641,-0.258 2.348,-0.288c-2.065,-1.666 -4.132,-3.332 -6.197,-4.998c0.005,0.269 0.011,0.538 0.016,0.808c1.843,-2.962 3.687,-5.923 5.529,-8.886c-11.433,7.432 -20.316,17.861 -29.719,27.582c-10.248,10.594 -21.284,20.563 -32.028,30.655c-22.428,21.07 -45.579,41.334 -68.221,62.169c-22.757,20.943 -42.836,44.404 -65.261,65.666c-9.779,9.272 -19.411,19.752 -30.394,27.586c-9.472,6.755 -19.273,13.228 -25.124,23.601c-1.423,2.522 -1.792,5.222 -1.788,8.075c0.008,6.749 9.755,3.15 11.292,-0.915Z" style="fill-rule:nonzero;"/><path d="M62.993,274.65c-4.098,8.544 -2.694,18.692 4.269,25.354c3.118,2.982 7.084,5.043 11.167,6.341c5.346,1.699 10.622,1.351 16.012,2.379c7.424,1.418 10.664,-11.742 2.068,-9.65c-6.918,1.683 -16.378,-1.368 -22.033,-5.273c-6.573,-4.539 -7.898,-12.336 -9.889,-19.475c-0.232,-0.83 -1.38,-0.122 -1.594,0.324Z" style="fill-rule:nonzero;"/><path d="M102.278,303.516c-5.988,10.818 -4.253,26.202 0.462,37.249c4.204,9.852 12.149,17.216 21.33,22.411c8.211,4.646 16.824,6.586 26.001,8.139c6.024,1.02 15.875,4.583 21.062,0.178c1.017,-0.864 2.249,-2.643 1.961,-4.087c-1.097,-5.479 -10.157,-4.888 -14.628,-5.61c-8.118,-1.313 -15.977,-2.579 -23.564,-5.868c-8.754,-3.795 -16.185,-9.597 -21.396,-17.627c-7.002,-10.788 -5.063,-23.634 -8.156,-35.409c-0.436,-1.653 -2.638,-0.161 -3.072,0.624Z" style="fill-rule:nonzero;"/><path d="M166.304,368.463c-6.357,9.934 -3.186,23.222 4.759,31.271c8.257,8.367 20.908,12.091 32.309,13.135c1.164,-3.404 2.328,-6.808 3.493,-10.211c-3.401,0.153 -8.357,1.412 -9.209,5.387c-0.904,4.221 4.101,4.75 7.008,4.883c4.818,0.223 9.782,-9.523 3.493,-10.211c-9.539,-1.041 -18.705,-3.389 -26.528,-9.17c-3.353,-2.478 -5.993,-6.098 -7.591,-9.903c-2.057,-4.901 -0.976,-9.888 -1.995,-14.901c-0.603,-2.959 -4.335,-2.472 -5.739,-0.28Z" style="fill-rule:nonzero;"/><path d="M56.831,277.031c-1.643,6.131 -1.909,12.614 -3.364,18.818c-1.729,7.375 -4.092,14.663 -6.81,21.728c-5.303,13.783 -11.467,27.215 -16.563,41.082c-5.254,14.291 -8.338,29.326 -12.06,44.063c-2.166,8.576 -4.253,17.173 -6.504,25.727c-2.212,8.398 -5.155,16.556 -7.328,24.958c5.094,-1.028 10.187,-2.058 15.28,-3.087c-0.71,-3.69 -1.66,-6.747 -5.799,-7.467c-2.696,-0.468 -5.909,1.085 -7.396,3.359c3.288,-2.723 3.706,-3.171 1.255,-1.344c-0.705,0.602 -1.287,1.301 -1.746,2.096c-1.803,2.761 -1.824,5.129 -1.752,8.305c0.216,9.471 14.229,3.474 15.28,-3.087c1.225,-7.641 1.837,-15.273 3.406,-22.86c1.777,-8.592 3.842,-17.117 5.878,-25.651c3.679,-15.424 6.896,-30.972 11.919,-46.028c4.791,-14.361 10.509,-28.399 15.337,-42.755c2.339,-6.956 4.418,-13.966 5.869,-21.163c1.184,-5.874 2.571,-12.676 0.886,-18.558c-0.933,-3.259 -5.292,0.013 -5.788,1.864Z" style="fill-rule:nonzero;"/><path d="M13.277,439.782c1.779,3.645 3.792,7.174 5.526,10.839c2.666,5.632 11.94,-0.558 9.922,-5.654c-2.227,-5.622 -5.904,-10.278 -9.567,-15.028c-3.545,-4.598 -12.16,3 -8.787,7.711c4.271,5.966 9.464,11.142 14.606,16.345c4.555,4.607 13.031,-3.198 9.574,-8.4c-4.249,-6.393 -8.672,-12.663 -13,-19.001c-3.191,2.801 -6.383,5.602 -9.574,8.402c4.494,6.385 9.885,12.117 14.756,18.214c3.803,4.759 13.188,-2.613 10.756,-7.678c-4.077,-8.49 -9.813,-16.065 -13.122,-24.931c-3.735,2.129 -7.47,4.258 -11.205,6.387c4.577,9.281 11.927,16.451 18.359,24.408c3.927,4.855 14.188,-2.895 11.209,-8.002c-4.757,-8.155 -10.587,-15.654 -15.192,-23.891c-3.85,2.194 -7.697,4.388 -11.547,6.582c5.884,10.422 13.733,19.229 22.407,27.418c5.171,4.881 15.003,-3.68 10.732,-9.418c-7.574,-10.177 -16.505,-19.814 -21.729,-31.504c-3.53,2.52 -7.061,5.041 -10.592,7.561c8.843,12.412 18.422,23.939 29.48,34.456c5.261,5.003 15.304,-3.761 10.949,-9.607c-9.953,-13.364 -20.414,-26.579 -29.545,-40.521c-3.287,2.884 -6.572,5.767 -9.859,8.65c11.729,14.169 24.597,27.306 36.682,41.157c5.612,6.434 16.744,-4.179 12.496,-10.965c-1.858,-2.97 -4.978,-3.344 -8.101,-4.194c-6.112,-1.664 -14.517,8.79 -7.808,12.828c1.227,0.738 2.508,1.245 3.412,2.331c4.165,-3.654 8.331,-7.311 12.496,-10.965c-13.884,-12.13 -27.008,-25.115 -39.318,-38.843c-4.489,-5.005 -13.264,3.3 -9.859,8.65c9.055,14.229 17.986,28.222 28.455,41.479c3.65,-3.202 7.299,-6.405 10.949,-9.607c-11.25,-9.936 -22.371,-20.854 -30.52,-33.544c-3.31,-5.153 -12.528,2.611 -10.592,7.561c4.926,12.595 13.535,24.284 22.271,34.496c3.577,-3.14 7.155,-6.278 10.732,-9.418c-8.398,-6.921 -16.814,-14.616 -21.593,-24.582c-3.128,-6.521 -14.287,0.807 -11.547,6.582c4.262,8.979 9.928,17.134 15.53,25.311c3.495,-3.068 6.991,-6.135 10.486,-9.203c-6.378,-6.799 -13.725,-12.938 -17.641,-21.592c-2.927,-6.471 -13.154,0.591 -11.205,6.387c3.026,9.002 8.344,16.805 12.878,25.069c3.586,-2.56 7.171,-5.118 10.756,-7.678c-5.225,-5.847 -10.822,-11.272 -15.244,-17.786c-3.504,-5.16 -13.056,3.115 -9.574,8.402c4.222,6.41 8.699,12.643 13,18.999c3.191,-2.8 6.383,-5.601 9.574,-8.4c-5.306,-5.104 -11.195,-9.522 -15.394,-15.655c-2.929,2.57 -5.858,5.141 -8.787,7.711c3.071,4.162 6.178,8.294 8.433,12.972c3.107,-2.218 6.214,-4.436 9.321,-6.653c-2.769,-2.95 -5.563,-5.88 -8.295,-8.863c-2.467,-2.701 -8.089,1.522 -6.55,4.675Z" style="fill-rule:nonzero;"/><path d="M411.425,42.512c10.217,2.953 20.081,8.904 27.644,16.351c8.059,7.934 15.485,15.733 19.813,26.392c8.51,20.965 -1.594,43.446 -14.057,60.41c1.227,-0.883 2.454,-1.764 3.681,-2.646c-0.259,0.084 -0.518,0.167 -0.776,0.25c1.76,0.643 3.521,1.285 5.281,1.927c-0.332,-0.717 -0.422,-2.442 -1.564,-3.632c-2.67,-2.779 -7.394,0.485 -7.984,3.579c-0.357,1.877 -1.454,3.907 -0.495,5.777c1.026,2.003 3.161,2.687 5.281,1.927c5.661,-2.028 8.581,-9.049 11.437,-13.974c3.382,-5.833 5.991,-12.013 8.086,-18.411c3.75,-11.45 3.738,-23.755 0.264,-35.241c-3.727,-12.315 -12.622,-23.028 -22.775,-30.663c-9.589,-7.212 -20.555,-15.925 -33.338,-13.49c-0.608,0.114 -1.448,1.169 -0.498,1.444Z" style="fill-rule:nonzero;"/><path d="M256.743,98.142c10.055,7.374 20.664,13.901 30.501,21.605c11.038,8.645 21.664,17.86 32.108,27.21c10.604,9.491 20.322,19.373 29.792,29.948c10.188,11.376 20.269,22.85 30.229,34.425c3.846,4.47 7.763,8.922 11.322,13.625c1.908,2.521 3.403,5.963 5.783,6.559c-0.548,-0.625 -1.096,-1.249 -1.644,-1.873c0.1,-0.453 0.2,-0.904 0.301,-1.357c0.84,-0.736 1.679,-1.473 2.519,-2.21c-0.012,0.004 -0.024,0.008 -0.037,0.012c-3.241,1.034 -3.855,6.739 0.293,5.416c1.104,-0.352 2.102,-1.191 2.573,-2.259c0.321,-0.727 1.285,-2.526 0.031,-0.13c0.246,-0.472 0.357,-1.075 0.307,-1.603c-0.146,-1.52 -0.653,-2.725 -1.8,-3.724c-3.917,-3.413 -7.111,-8.02 -10.511,-11.937c-10.593,-12.209 -21.244,-24.361 -32.045,-36.389c-9.965,-11.096 -20.032,-21.467 -31.218,-31.384c-10.354,-9.18 -21.103,-17.843 -32.221,-26.077c-10.863,-8.045 -22.002,-16.707 -34.242,-22.556c-1.459,-0.696 -3.544,1.598 -2.041,2.699Z" style="fill-rule:nonzero;"/><path d="M293.461,52.536c1.898,6.379 7.781,10.716 12.798,14.648c6.646,5.21 13.584,9.912 19.996,15.432c14.105,12.144 27.462,25.119 42.099,36.644c12.956,10.2 25.508,21.2 37.314,32.708c5.874,5.726 11.508,11.736 16.633,18.146c5.511,6.893 9.371,14.256 13.737,21.804c1.825,-1.944 3.649,-3.889 5.475,-5.834c-1.532,-0.403 -2.768,-0.27 -4.338,-0.207c-1.108,0.043 -2.629,1.336 -2.407,2.558c0.245,1.355 0.568,2.281 1.271,3.483c2.328,3.988 9.156,-0.424 7.451,-4.246c-2.969,-6.656 -8.071,-13.023 -12.553,-18.734c-5.033,-6.414 -10.623,-12.403 -16.388,-18.159c-11.902,-11.884 -25.001,-22.522 -37.956,-33.219c-14.507,-11.978 -28.702,-24.218 -42.962,-36.493c-12.302,-10.589 -26.078,-18.918 -37.723,-30.276c-1.035,-1.013 -2.812,0.519 -2.447,1.745Z" style="fill-rule:nonzero;"/><path d="M99.202,304.418c15.675,-0.99 28.878,-17.016 38.586,-27.74c14.551,-16.073 31.52,-29.453 48.058,-43.445c18.347,-15.523 35.141,-32.433 52.139,-49.404c7.87,-7.857 15.855,-15.614 23.716,-23.473c2.77,-2.768 5.262,-5.796 7.965,-8.625c1.451,-1.52 3.084,-2.866 4.684,-4.225c0.451,-0.395 0.924,-0.762 1.418,-1.1c2.267,-1.529 -2.746,0.131 0.039,-0.141c-1.199,-1.367 -2.4,-2.735 -3.601,-4.104c-0.051,0.167 -0.102,0.333 -0.152,0.5c0.663,-1.077 1.325,-2.154 1.988,-3.231c-1.978,2.001 -3.303,3.728 -3.248,6.636c0.087,4.588 6.403,1.988 7.528,-0.61c-0.51,1.177 -0.924,1.177 0.751,-0.293c0.843,-0.739 1.351,-1.618 1.86,-2.593c0.982,-1.88 0.432,-4.939 -2.084,-5.198c-6.733,-0.693 -11.021,7.091 -14.887,11.55c-6.324,7.294 -13.455,13.847 -20.271,20.674c-17.417,17.445 -34.306,35.665 -52.865,51.896c-8.65,7.565 -17.448,14.96 -26.198,22.409c-8.349,7.106 -17.36,13.968 -24.669,22.159c-11.155,12.502 -23.202,29.096 -40.329,33.248c-2.473,0.601 -3.949,5.333 -0.428,5.11Z" style="fill-rule:nonzero;"/><path d="M168.241,370.237c5.056,0.029 9.774,-4.154 13.523,-7.047c5.66,-4.366 10.834,-9.346 16.133,-14.133c7.418,-6.701 15.575,-12.667 23.336,-18.969c9.428,-7.654 18.771,-15.412 27.983,-23.322c17.306,-14.859 34.162,-30.229 50.762,-45.87c8.412,-7.927 16.749,-15.932 25.132,-23.89c8.668,-8.229 17.153,-17.772 27.09,-24.459c-1.885,-1.514 -3.771,-3.027 -5.655,-4.541c-0.729,1.205 -1.471,2.292 -2.304,3.424c-2.124,2.886 0.443,5.689 3.548,4.042c2.592,-1.376 4.776,-2.253 6.512,-4.768c3.935,-5.701 -3.44,-8.521 -7.072,-3.822c-6.614,8.557 -15.326,15.696 -23.093,23.204c-8.307,8.029 -16.658,16.012 -25.031,23.972c-16.092,15.302 -32.471,30.271 -49.16,44.919c-16.746,14.698 -34.074,28.725 -51.445,42.671c-5.025,4.034 -9.613,8.616 -14.443,12.881c-2.718,2.401 -5.476,4.761 -8.348,6.976c-1.692,1.305 -4.222,3.522 -6.42,3.846c-2.552,0.374 -4.723,4.864 -1.048,4.886Z" style="fill-rule:nonzero;"/><path d="M8.422,446.901c-5.456,2.594 -5.76,9.075 -6.955,14.24c-0.383,1.654 0.496,3.591 2.333,3.819c7.7,0.958 16.271,-1.662 23.722,-3.464c7.968,-1.928 16.801,-4.126 23.975,-8.172c5.027,-2.834 5.281,-11.791 -2.013,-9.705c-7.012,2.006 -13.701,5.32 -20.731,7.436c-7.566,2.275 -15.859,2.945 -23.204,5.748c1.466,0.535 2.933,1.07 4.399,1.605c-0.783,-3.729 0.793,-7.497 -0.115,-11.225c-0.156,-0.639 -1.002,-0.476 -1.411,-0.282Z" style="fill-rule:nonzero;"/><path d="M14.448,446.967c-4.969,3.524 -7.797,7.893 -9.065,13.937c0.822,-1.067 1.645,-2.134 2.467,-3.201c-0.813,0.398 -1.626,0.797 -2.438,1.195c1.541,-0.313 3.082,-0.628 4.623,-0.941c-0.167,-0.012 -0.334,-0.022 -0.502,-0.034c-3.504,-0.241 -6.777,1.596 -8.303,4.839c-1.157,2.459 -0.686,6.64 2.768,6.903c4.651,0.356 9.377,-1.634 13.853,-2.764c6.243,-1.577 12.5,-3.096 18.726,-4.739c5.74,-1.516 11.432,-3.2 17.057,-5.099c5.506,-1.857 12.363,-3.811 14.922,-9.563c0.721,-1.623 0.593,-3.385 -0.984,-4.409c-3.848,-2.499 -9.124,0.41 -12.896,1.792c-5.575,2.044 -11.284,3.721 -17,5.319c-5.112,1.431 -10.261,2.726 -15.405,4.035c-4.533,1.153 -9.576,3.272 -14.23,3.615c-6.557,0.482 -11.147,12.451 -2.547,11.881c0.176,-0.012 0.352,-0.023 0.526,-0.035c4.046,-0.269 8.752,-4.98 7.127,-9.246c-1.374,-3.606 1.47,-9.224 2.636,-12.741c0.262,-0.803 -0.79,-1.129 -1.335,-0.744Z" style="fill-rule:nonzero;"/><path d="M6.146,467.227c14.41,3.082 30.784,-0.91 44.785,-4.313c16.468,-4 32.55,-9.441 48.95,-13.703c34.316,-8.916 70.268,-10.428 104.23,-21.01c3.111,-0.969 5.864,-3.747 6.555,-6.967c0.703,-3.282 -1.756,-6.94 -5.451,-6.212c-3.94,0.776 -7.086,2.02 -10.072,4.784c-1.885,1.744 -3.791,7.164 0.476,7.537c1.729,0.151 3.293,0.801 4.991,1.142c0.936,-4.367 1.871,-8.733 2.807,-13.101c-32.858,11.335 -67.694,14.016 -101.111,23.267c-15.805,4.376 -31.223,10.047 -46.998,14.54c-15.586,4.439 -30.656,6.637 -46.799,7.128c-3.143,0.097 -6.713,5.977 -2.363,6.908Z" style="fill-rule:nonzero;"/><path d="M26.956,445.265c-6.505,-1.002 -12.34,4.054 -14.824,9.664c-1.348,3.042 0.151,5.863 3.567,5.837c2.834,-0.022 5.602,-0.843 8.012,-2.336c2.173,-1.346 3.747,-3.163 5.634,-4.828c-0.904,0.521 -1.81,1.041 -2.715,1.561c0.14,-0.039 0.279,-0.079 0.419,-0.119c3.407,-0.971 7.522,-6.113 4.555,-9.496c-3.469,-3.952 -9.587,0.912 -10.493,4.704c-0.03,0.128 -0.061,0.256 -0.092,0.384c0.417,-0.882 0.834,-1.764 1.25,-2.645c-0.156,0.189 -1.708,1.876 -0.746,0.858c-0.479,0.507 -0.985,0.982 -1.51,1.442c-0.546,0.432 -0.53,0.431 0.047,-0.006c-0.292,0.186 -0.595,0.354 -0.906,0.504c0.519,-0.253 0.455,-0.263 -0.192,-0.028c0.688,-0.206 -1.257,0.065 -1.131,0.06c1.189,1.945 2.379,3.892 3.567,5.837c0.223,-0.555 0.45,-1.104 0.691,-1.649c0.664,-1.5 -0.552,0.678 0.307,-0.576c0.137,-0.201 1.17,-1.272 0.229,-0.335c0.326,-0.351 0.653,-0.7 0.98,-1.051c-0.47,0.494 -0.482,0.521 -0.038,0.082c1.446,-1.39 3.04,-2.583 4.195,-4.255c0.8,-1.159 1.08,-3.319 -0.806,-3.609Z" style="fill-rule:nonzero;"/><path d="M379.418,32.929c-4.1,-2.519 -9.139,-1.743 -13.725,-1.409c-4.693,0.34 -9.877,1.652 -14.182,3.527c-3.205,1.396 -6.248,3.122 -9.293,4.832c-1.349,0.758 -2.763,1.376 -4.101,2.141c-0.523,0.3 -4.278,2.974 -2.149,1.675c1.745,0.093 3.49,0.187 5.236,0.279c0.15,0.245 0.302,0.489 0.452,0.734c-0.503,-1.261 -1.919,-2.039 -3.267,-1.823c-2.23,0.358 -4.159,1.586 -5.129,3.694c-0.74,1.608 -0.72,3.846 1.065,4.774c4.898,2.55 11.69,-4.721 15.274,-7.147c3.43,-2.323 6.851,-3.996 10.75,-5.437c6.058,-2.238 12.348,-2.318 18.461,-4.078c0.656,-0.188 1.401,-1.275 0.608,-1.762Z" style="fill-rule:nonzero;"/></g></svg>