<?xml version="1.0" encoding="utf-8"?>
<!-- Generator: Adobe Illustrator 17.0.0, SVG Export Plug-In . SVG Version: 6.00 Build 0)  -->
<!DOCTYPE svg PUBLIC "-//W3C//DTD SVG 1.0//EN" "http://www.w3.org/TR/2001/REC-SVG-20010904/DTD/svg10.dtd">
<svg version="1.0" id="Layer_1" xmlns="http://www.w3.org/2000/svg" xmlns:xlink="http://www.w3.org/1999/xlink" x="0px" y="0px"
	 width="566.93px" height="566.93px" viewBox="0 0 566.93 566.93" enable-background="new 0 0 566.93 566.93" xml:space="preserve">
<path fill="#231F20" d="M149.572,210.398c3.821-3.666,6.729-8.15,7.87-13.359c1.448-6.61-0.01-15.477-7.918-16.391
	c-2.154-0.249-5.582,2.608-3.676,4.817c6.633,7.685,0.717,17.489-6.043,21.851c-9.209,5.941-20.522,8.762-31.141,10.899
	c-19.604,3.946-39.795,4.65-59.258,9.249c-2.346,0.554-3.525,4.554-0.389,4.638c23.017,0.618,45.38-0.56,67.869-6.165
	C128.448,223.057,140.805,218.811,149.572,210.398z"/>
<path fill="#231F20" d="M260.272,214.767c0.359-11.103-4.154-20.847-12.959-27.579c-7.268-5.557-17.068-10.117-26.164-7.061
	c0.137-0.793,0.02-1.603-0.459-2.299c-3.521-5.111-11.076-5.378-15.844-9.246c-0.664-0.539-1.235-1.17-1.771-1.832
	c-0.203-0.25-0.534-1.4-0.482-1.005c-0.018-0.137-0.007-0.255,0.003-0.325c0.102-0.225,0.254-0.438,0.915-1.217
	c-0.583,0.688,1.049-0.889,1.234-1.046c0.83-0.702,1.404-1.081,2.326-1.687c2.145-1.407,4.406-2.655,6.646-3.9
	c5.062-2.813,10.303-5.307,15.502-7.852c9.742-4.771,20.826-9.437,26.014-19.602c3.273-6.412,1.449-13.73-2.842-19.102
	c-2.17-2.717-4.788-4.643-7.679-5.878c-3.762-2.785-9.34-3.582-13.696-4.097c-5.38-0.637-12.208-0.571-17.682,1.413
	c-0.503-0.902-1.273-1.283-2.264-1.618c-3.427-1.165-6.693-2.631-9.889-4.326c-2.421-1.284-4.729-2.756-6.952-4.35
	c12.999-10.546,21.535-26.148,36.663-34.149c6.756-3.573,14.73-4.302,20.304,1.511c4.173,4.354,6.296,10.441,9.298,15.579
	c2.822,4.829,6.357,8.716,11.803,10.437c3.412,1.078,7.57-0.386,10.82-1.367c5.219-1.578,9.982-3.383,15.534-2.72
	c8.89,1.062,15.968,8.998,21.987,14.97c2.836,2.813,5.643,5.652,8.4,8.541c1.5,1.571,3.858,3.463,4.95,5.316
	c1.481,2.516,5.145-0.195,4.529-2.582c-0.513-1.99-2.321-3.6-3.655-5.051c-2.908-3.164-5.959-6.199-9-9.236
	c-5.975-5.963-12.507-13.111-20.716-15.844c-4.652-1.549-9.118-1.609-13.877-0.639c-5.122,1.044-10.343,4.193-15.663,3.854
	c-6.66-0.426-10.588-9.113-13.172-14.112c-2.709-5.243-5.457-10.597-10.453-14.011c-5.932-4.052-14.235-2.422-20.305,0.34
	c-7.581,3.45-13.821,8.78-19.468,14.833c-1.234,0.088-2.475,0.436-3.735,0.526c-2.384,0.171-4.587-0.734-6.609-1.887
	c-3.709-2.115-6.705-5.366-10.25-7.741c-8.979-6.016-17.831-1.772-25.826,3.438c-1.604-2.138-3.193-4.283-4.775-6.422
	c-7.587-10.257-15.116-21.245-24.833-29.624c-4.211-3.631-9.175-6.254-14.707-7.046c-6.828-0.978-14.014,2.124-20.71,3.133
	c-7.482-0.471-10.037-6.342-16.034-9.516c-2.962-1.567-6.273-1.585-9.456-0.839c-8.324,1.95-14.407,10.646-18.716,17.354
	C44.818,47.482,37.315,68.745,31.878,89.632c-0.532,0.062-1.05,0.154-1.543,0.278c-5.034,1.27-8.775,4.781-11.665,8.959
	c-6.799,9.83-9.425,23.851-7.25,35.492c1.705,9.13,7.131,14.913,15.002,18.231c-0.976,5.547-1.439,11.799,1.585,16.576
	c0.356,0.563,1.243,0.682,1.829,0.651c0.241-0.013,0.482-0.025,0.725-0.038c1.199-0.063,2.16-1.078,2.475-2.172
	c0.03-0.104,0.047-0.208,0.068-0.313c0.528,1.083,1.303,1.908,2.461,2.276c0.973,0.309,2.175-0.658,2.541-1.48
	c1.186-2.67-0.097-4.862-0.616-7.613c-0.357-1.886-0.65-3.801-0.859-5.72c5.676-0.239,10.936-3.048,12.698-8.613
	c-0.34,4.283,2.806,6.565,7.373,7.415c1.754,0.326,3.925,0.557,6.141,0.542c-1.743,5.925-1.412,13.158-0.501,18.847
	c0.266,1.662,1.606,2.152,3.132,1.759c0.095-0.024,0.189-0.049,0.283-0.073c1.529-0.394,3.275-2.462,2.561-4.114
	c-0.076-0.205-0.167-0.401-0.264-0.595c0.268,0.415,0.635,0.743,1.135,0.942c0.986,0.391,2.07,0.14,2.848-0.594
	c2.563-2.412,1.871-5.533,1.736-8.734c-0.084-2.003-0.042-4.522-0.423-6.81c4.085,0.09,8.774-1.331,11.278-2.524
	c5.261-2.507,8.73-6.919,7.729-12.355c2.557-0.75,5.083-2.345,6.716-3.631c3.446-2.711,5.561-7.012,6.261-11.267
	c0.988-6.006-2.152-11.932-7.302-13.423c3.908-3.666,6.669-9.288,6.758-13.551c0.191-9.097-9.974-12.827-17.636-11.166
	c2.028-3.43,2.555-7.665,0.388-11.202c-3.139-5.124-9.941-7.075-15.563-7.582c-6.034-0.544-13.106,0.474-17.588,4.918
	c-2.93,2.904-4.323,8.482-2.802,12.659c-2.609-0.188-5.495,0.679-7.609,1.694c-1.897,0.912-3.51,2.247-4.874,3.814
	c-1.12-0.748-2.463-1.209-3.862-1.422c8.802-18.416,15.049-38.099,25.335-55.81c3.488-6.006,8.401-14.452,15.613-16.429
	c3.043-0.834,6.238,1.147,8.426,3.03c4.542,3.911,10.295,6.43,15.936,3.815c5.877,1.196,11.761-1.988,17.728-1.579
	c6.814,0.468,12.618,5.195,17.244,9.795c8.391,8.342,15.148,18.586,22.104,28.107c7.048,9.648,14.235,19.246,22.839,27.581
	c4.162,4.032,8.745,7.632,13.619,10.761c2.367,1.521,4.867,2.818,7.404,4.023c1.289,0.613,2.619,1.137,3.945,1.658
	c0.252,0.1,1.844,0.826,2.664,1.016c0.156,0.205,0.387,0.375,0.708,0.495c0.161,0.06,0.322,0.12,0.483,0.18
	c0.109,0.041,0.224,0.069,0.341,0.092c0.154,0.059,0.338,0.094,0.571,0.085c0.425-0.016,0.841-0.048,1.262-0.074
	c1.36,0.915,2.866,1.587,4.043,2.784c1.881,1.912,1.485,4.655,2.252,6.954c-0.636,1.39-1.42,2.663-2.072,3.452
	c-2.189,2.652-5.453,4.301-8.471,5.811c-6.215,3.108-13.146,4.854-19.801,6.752c-10.611,3.027-21.198,6.092-31.523,10.01
	c-10.496,3.982-24.629,9.08-30.953,19.093c-2.652,4.201-3.437,9.071-0.545,13.37c4.229,6.283,11.536,8.367,18.66,8.466
	c1.92,0.026,4.611-3.015,2.94-4.777c-2.82-2.978-5.245-4.981-8.772-7.146c-1.604-0.985-3.373-2.367-4.193-4.027
	c-0.656-1.326-0.404-1.786-0.049-2.532c0.371-0.78,2.105-2.433,3.703-3.702c9.516-7.563,22.559-11.49,33.879-15.396
	c9.703-3.35,19.657-6.004,29.272-9.602c6.606-2.472,13.52-5.727,18.452-10.895c2.031-2.131,3.396-4.404,4.271-7.21
	c0.772-2.474,0.145-3.741-0.775-5.131c0.005-2.164-0.76-4.353-2.159-6.01c-0.297-0.353-0.642-0.661-1.004-0.951
	c3.367-0.368,6.734-0.658,10.319-0.309c2.49,0.242,4.805,0.896,7.069,1.675c5.33,2.795,10.205,7.176,12.44,12.613
	c2.857,6.946-1.938,12.435-7.546,15.733c-9.579,5.635-20.29,9.201-30.272,14.032c-7.328,3.546-17.959,9.426-18.433,18.685
	c-0.22,4.292,2.843,7.341,6.009,9.719c5.464,4.106,12.979,7.157,19.697,5.735c0.627-0.132,1.214-0.452,1.717-0.884
	c0.063,0.067,0.113,0.137,0.199,0.198c6.939,4.856,14.916,7.097,21.332,12.97c7.871,7.207,10.208,17.357,7.67,27.544
	c-4.014,16.103-18.799,30.074-31.28,40.019c-26.989,21.503-60.128,31.439-90.931,45.773c-1.723,0.801-2.526,4.672,0.237,4.211
	c17.915-2.992,35.558-9.557,52.047-17.004c18.219-8.229,35.731-18.613,50.78-31.84C243.452,252.514,259.646,234.068,260.272,214.767
	z M31.215,159.616c-0.252-1.828-0.314-3.673-0.417-5.514c0.625,0.167,1.256,0.301,1.894,0.404c-0.235,2.298-0.628,5.377-0.528,8.176
	C31.757,161.654,31.354,160.625,31.215,159.616z M67.929,169.697C67.929,169.697,67.929,169.697,67.929,169.697
	c0.001,0,0.001,0.002,0.002,0.003C67.931,169.7,67.93,169.698,67.929,169.697z M67.768,162.7c-0.051,0.801-0.229,1.935-0.314,3.11
	c-0.187-1.488-0.296-2.986-0.39-4.482c-0.154-2.457,0.014-5.065-0.09-7.588c0.457-0.084,0.904-0.185,1.341-0.303
	c0.133,0.086,0.28,0.156,0.42,0.233C67.943,156.563,67.953,159.791,67.768,162.7z M45.118,92.172
	c3.055-2.179,6.617-1.753,10.107-2.324c0.077,0.041,0.142,0.092,0.221,0.131c0.99,0.482,2.089-0.556,2.119-1.523
	c0.135-4.223-3.429-9.193,0.74-12.559c3.108-2.511,8.451-2.3,12.132-1.793c4.082,0.562,8.583,2.082,11.177,5.454
	c2.771,3.603-0.908,7.731-2.23,10.813c-0.693,1.615,0.795,2.387,2.152,1.728c1.201-0.584,2.307-1.388,3.287-2.333
	c6.445-0.435,13.776,2.663,14.265,10.042c0.411,6.217-7.71,8.688-10.419,13.021c-0.459,0.731-0.8,2.344,0.547,2.449
	c1.429,0.112,2.843-0.154,4.205-0.7c4.54,1.338,6.882,4.677,6.357,10.055c-0.264,2.695-1.473,5.315-3.391,7.229
	c-2.598,2.59-6.322,2.582-9.336,4.322c-1.085,0.625-1.867,2.199-0.662,3.091c0.943,0.699,2.04,0.989,3.198,1.002
	c0.063,9.227-10.965,8.962-18.536,9.244c-4.911-0.616-18.511,2.509-18.981-4.145c1.288-0.341,2.493-0.828,3.563-1.471
	c0.785-0.473,2.082-2.404,0.643-2.998c-7.044-2.906-16.67-0.202-20.451-8.864c-3.505-8.03,8.339-9.293,13.945-9.182
	c1.737,1.316,4.053,1.871,6.174,1.202c1.523-0.48,3.223-2.907,1.404-4.084c-1.67-1.079-3.535-1.31-5.016-2.741
	c-0.618-0.597-0.85-1.156-0.797-1.673c0.775-0.287,1.547-0.654,2.308-1.132c1.062-0.666,1.882-2.169,0.663-3.091
	c-3.147-2.381-7.922-1.207-11.188-3.958c-2.295-1.934-3.046-5.003-2.631-7.882C41.098,96.65,42.765,93.85,45.118,92.172z
	 M47.316,116.268c-0.256,0.79-0.313,1.669-0.115,2.627c-4.112-0.485-8.184-0.015-11.947,2.279c-3.88,2.364-6.206,6.484-6.149,11.014
	c0.094,7.302,6.732,12.015,13.873,13.375c-0.691,1.448-1.534,2.289-3.69,2.535c-3.046,0.349-6.325-0.752-9.091-1.902
	c-7.461-3.102-11.221-8.918-12.447-16.857c-1.252-8.114,0.67-16.66,3.809-24.136c1.473-3.507,3.581-6.968,6.873-9.009
	c2.448-1.517,5.129-1.04,7.797-0.733c-0.523,1.057-0.97,2.147-1.327,3.247C32.186,107.069,39.207,116.039,47.316,116.268z
	 M167.081,63.88c4.613-1.074,8.57-4.248,13.814-3.802c4.792,0.406,8.598,3.709,12.052,6.723c3.626,3.164,9.093,6.659,14.214,6.769
	c-4.892,5.84-9.479,11.989-14.329,17.569c-2.415-1.819-4.728-3.778-6.952-5.817C178.866,78.891,172.832,71.474,167.081,63.88z"/>
<path fill="#231F20" d="M219.385,246.27c10.347-9.334,20.162-24.336,15.34-38.761c-2.518-7.532-9.661-12.317-16.555-15.397
	c-4.479-2-9.219-3.372-13.688-5.433c-5.246-2.419-8.596-5.831-12.518-9.914c-0.672-0.7-1.771,0.362-1.582,1.13
	c1.859,7.529,9.785,12.083,16.365,15.037c8.081,3.629,16.785,6.639,21.461,14.762c7.824,13.591-5.03,29.151-14.914,37.398
	c-15.705,13.105-33.817,23.566-52.27,32.26c-19.092,8.995-39.378,14.768-59.019,22.342c-1.03,0.397-1.989,2.79-0.208,2.49
	c21.671-3.65,42.6-11.682,62.475-20.891C183.749,272.27,203.39,260.699,219.385,246.27z"/>
<path fill="#231F20" d="M158.734,156.241c3.538-1.419,6.948-2.681,10.369-4.38c0.396-0.196,0.38-0.857-0.148-0.717
	c-8.962,2.366-32.778,6.926-23.901,21.404c4.747,7.742,16.887,6.611,18.662,16.451c1.573,8.719-7.532,15.939-12.496,21.701
	c-0.748,0.869,0.193,1.887,1.143,1.302c9.715-5.989,22.443-20.709,12.764-31.989c-4.832-5.631-16.512-5.068-17.643-14.094
	C146.833,160.742,155.174,157.67,158.734,156.241z"/>
<path fill="#231F20" d="M221.982,141.901c8.075-2.341,17.738-6.384,22.507-13.698c4.776-7.324-2.048-16.387-9.787-17.271
	c-0.182-0.021-0.508,0.306-0.257,0.422c8.142,3.766,12.007,12.874,4.81,19.333c-4.994,4.483-11.734,6.798-17.518,10.031
	C221.122,141.062,221.094,142.158,221.982,141.901z"/>
<path fill="#231F20" d="M234.031,127.087c-2.181,1.792-4.687,3.144-6.964,4.802c-0.41,0.299-0.25,1.091,0.33,0.85
	c4.495-1.873,16.469-8.394,9.268-14.1c-0.264-0.209-0.785,0.271-0.634,0.557C237.78,122.521,236.805,124.809,234.031,127.087z"/>
<path fill="#231F20" d="M197.6,240.006c-0.824,0.588-0.628,1.837,0.504,1.318c8.119-3.727,16.506-9.154,21.104-17.033
	c5.146-8.822-1.645-16.896-9.674-20.082c-0.336-0.134-0.84,0.375-0.473,0.625c7.636,5.197,11.914,13.512,5.873,21.534
	C210.524,232.223,203.459,235.828,197.6,240.006z"/>
<path fill="#231F20" d="M369.248,453.398c3.821-3.666,6.729-8.151,7.87-13.359c1.448-6.61-0.01-15.477-7.918-16.391
	c-2.154-0.249-5.582,2.608-3.676,4.817c6.633,7.685,0.717,17.489-6.043,21.851c-9.209,5.94-20.522,8.762-31.141,10.899
	c-19.604,3.946-39.795,4.65-59.258,9.248c-2.346,0.555-3.525,4.555-0.389,4.639c23.017,0.619,45.38-0.56,67.869-6.165
	C348.124,466.057,360.481,461.811,369.248,453.398z"/>
<path fill="#231F20" d="M554.54,345.646c-2.908-3.165-5.959-6.201-9-9.236c-5.975-5.965-12.507-13.112-20.716-15.845
	c-4.652-1.549-9.118-1.609-13.877-0.639c-5.122,1.044-10.343,4.193-15.663,3.854c-6.66-0.426-10.588-9.113-13.172-14.112
	c-2.709-5.243-5.457-10.597-10.453-14.011c-5.932-4.052-14.235-2.422-20.305,0.34c-7.581,3.45-13.821,8.78-19.468,14.834
	c-1.234,0.088-2.474,0.435-3.735,0.525c-2.383,0.171-4.587-0.734-6.609-1.887c-3.709-2.115-6.704-5.366-10.25-7.741
	c-8.979-6.016-17.831-1.772-25.825,3.437c-1.603-2.138-3.192-4.283-4.774-6.421c-7.587-10.257-15.116-21.245-24.834-29.624
	c-4.211-3.631-9.175-6.254-14.707-7.045c-6.828-0.978-14.013,2.123-20.71,3.132c-7.482-0.471-10.037-6.342-16.034-9.516
	c-2.962-1.567-6.273-1.585-9.456-0.839c-8.324,1.95-14.407,10.646-18.716,17.354c-11.741,18.276-19.244,39.539-24.681,60.427
	c-0.531,0.062-1.049,0.154-1.542,0.278c-5.034,1.268-8.775,4.78-11.665,8.958c-6.799,9.831-9.425,23.851-7.25,35.492
	c1.705,9.13,7.131,14.913,15.002,18.231c-0.976,5.547-1.439,11.799,1.585,16.576c0.356,0.563,1.243,0.683,1.829,0.651
	c0.241-0.013,0.482-0.025,0.725-0.038c1.199-0.063,2.16-1.079,2.475-2.172c0.03-0.104,0.047-0.208,0.068-0.313
	c0.528,1.083,1.303,1.908,2.461,2.276c0.973,0.309,2.175-0.658,2.541-1.481c1.186-2.669-0.097-4.861-0.616-7.612
	c-0.357-1.886-0.65-3.801-0.859-5.72c5.675-0.238,10.935-3.047,12.698-8.612c-0.34,4.282,2.806,6.564,7.373,7.413
	c1.754,0.326,3.925,0.557,6.142,0.542c-1.743,5.925-1.412,13.158-0.502,18.847c0.266,1.663,1.606,2.151,3.132,1.759
	c0.095-0.024,0.189-0.049,0.283-0.073c1.529-0.393,3.276-2.463,2.562-4.114c-0.076-0.204-0.167-0.401-0.264-0.594
	c0.268,0.414,0.634,0.742,1.134,0.94c0.986,0.392,2.07,0.141,2.848-0.592c2.563-2.413,1.871-5.534,1.736-8.735
	c-0.084-2.003-0.042-4.522-0.423-6.81c4.085,0.09,8.774-1.331,11.278-2.524c5.26-2.507,8.729-6.919,7.729-12.355
	c2.557-0.75,5.084-2.345,6.718-3.63c3.445-2.713,5.56-7.013,6.26-11.268c0.989-6.006-2.152-11.933-7.303-13.423
	c3.908-3.666,6.669-9.288,6.76-13.551c0.191-9.097-9.976-12.827-17.638-11.166c2.029-3.43,2.556-7.665,0.388-11.202
	c-3.139-5.124-9.941-7.075-15.563-7.582c-6.034-0.544-13.105,0.474-17.588,4.918c-2.929,2.905-4.322,8.482-2.801,12.658
	c-2.609-0.188-5.496,0.679-7.61,1.695c-1.897,0.912-3.51,2.247-4.874,3.814c-1.12-0.748-2.464-1.209-3.863-1.422
	c8.802-18.415,15.05-38.099,25.335-55.81c3.488-6.006,8.401-14.452,15.613-16.429c3.043-0.834,6.238,1.147,8.426,3.03
	c4.542,3.911,10.295,6.43,15.937,3.815c5.877,1.196,11.76-1.988,17.728-1.579c6.815,0.468,12.618,5.195,17.245,9.795
	c8.39,8.342,15.148,18.586,22.104,28.107c7.047,9.648,14.234,19.246,22.838,27.581c4.162,4.032,8.746,7.632,13.619,10.762
	c2.367,1.52,4.867,2.817,7.406,4.023c1.289,0.612,2.617,1.136,3.945,1.658c0.253,0.1,1.843,0.826,2.662,1.015
	c0.156,0.205,0.387,0.375,0.708,0.495c0.161,0.06,0.322,0.12,0.483,0.18c0.109,0.041,0.223,0.069,0.34,0.092
	c0.154,0.059,0.338,0.094,0.572,0.086c0.425-0.016,0.841-0.048,1.261-0.074c1.361,0.916,2.867,1.587,4.044,2.784
	c1.881,1.912,1.485,4.654,2.251,6.955c-0.635,1.39-1.42,2.662-2.072,3.452c-2.189,2.653-5.452,4.301-8.471,5.811
	c-6.215,3.108-13.146,4.854-19.801,6.752c-10.611,3.026-21.198,6.092-31.523,10.01c-10.496,3.982-24.629,9.08-30.953,19.093
	c-2.652,4.201-3.437,9.071-0.545,13.369c4.229,6.284,11.536,8.367,18.66,8.467c1.921,0.026,4.61-3.015,2.94-4.777
	c-2.819-2.978-5.245-4.98-8.772-7.146c-1.604-0.985-3.373-2.368-4.193-4.027c-0.656-1.326-0.404-1.786-0.049-2.532
	c0.371-0.779,2.105-2.434,3.703-3.703c9.516-7.561,22.559-11.49,33.879-15.396c9.703-3.348,19.658-6.003,29.273-9.601
	c6.606-2.472,13.52-5.727,18.451-10.896c2.031-2.129,3.396-4.403,4.271-7.209c0.772-2.474,0.145-3.742-0.775-5.131
	c0.005-2.164-0.76-4.353-2.159-6.009c-0.297-0.352-0.642-0.661-1.004-0.951c3.367-0.368,6.734-0.658,10.319-0.309
	c2.492,0.242,4.808,0.897,7.074,1.677c5.328,2.795,10.201,7.175,12.435,12.61c2.857,6.947-1.938,12.436-7.546,15.734
	c-9.579,5.635-20.29,9.201-30.272,14.032c-7.328,3.546-17.959,9.426-18.433,18.685c-0.22,4.291,2.843,7.34,6.009,9.719
	c5.464,4.106,12.979,7.158,19.697,5.735c0.627-0.133,1.214-0.452,1.717-0.885c0.063,0.067,0.113,0.138,0.2,0.198
	c6.938,4.857,14.915,7.097,21.331,12.97c7.871,7.206,10.208,17.356,7.67,27.544c-4.013,16.103-18.799,30.074-31.279,40.019
	c-26.99,21.503-60.129,31.438-90.932,45.773c-1.723,0.802-2.526,4.672,0.237,4.21c17.915-2.992,35.558-9.556,52.047-17.003
	c18.22-8.228,35.731-18.612,50.78-31.841c13.777-12.108,29.971-30.554,30.596-49.855c0.359-11.103-4.154-20.847-12.959-27.579
	c-7.267-5.558-17.068-10.119-26.164-7.06c0.137-0.792,0.02-1.603-0.459-2.298c-3.521-5.112-11.076-5.379-15.844-9.247
	c-0.664-0.539-1.235-1.17-1.771-1.832c-0.203-0.25-0.534-1.399-0.482-1.005c-0.018-0.137-0.007-0.256,0.003-0.326
	c0.102-0.225,0.254-0.438,0.915-1.216c-0.583,0.688,1.049-0.889,1.234-1.046c0.83-0.702,1.404-1.081,2.326-1.687
	c2.145-1.407,4.406-2.655,6.646-3.9c5.062-2.813,10.303-5.308,15.502-7.853c9.742-4.77,20.826-9.436,26.014-19.6
	c3.273-6.413,1.449-13.731-2.841-19.103c-2.17-2.718-4.789-4.644-7.681-5.879c-3.762-2.785-9.34-3.581-13.695-4.097
	c-5.38-0.636-12.207-0.57-17.682,1.414c-0.502-0.901-1.273-1.283-2.262-1.619c-3.428-1.164-6.695-2.63-9.891-4.324
	c-2.421-1.284-4.729-2.757-6.953-4.351c12.999-10.546,21.537-26.148,36.664-34.149c6.757-3.573,14.73-4.302,20.304,1.511
	c4.173,4.354,6.296,10.441,9.298,15.579c2.822,4.829,6.357,8.716,11.803,10.437c3.412,1.078,7.57-0.386,10.82-1.368
	c5.219-1.576,9.982-3.382,15.534-2.719c8.89,1.062,15.968,8.998,21.987,14.97c2.836,2.813,5.643,5.652,8.4,8.541
	c1.5,1.571,3.858,3.463,4.95,5.316c1.481,2.516,5.145-0.195,4.529-2.582C557.682,348.705,555.874,347.096,554.54,345.646z
	 M250.891,402.616c-0.252-1.829-0.314-3.674-0.417-5.514c0.625,0.167,1.256,0.301,1.894,0.404c-0.235,2.298-0.628,5.377-0.528,8.175
	C251.433,404.653,251.03,403.625,250.891,402.616z M287.444,405.7c-0.051,0.801-0.229,1.935-0.314,3.109
	c-0.187-1.488-0.296-2.986-0.39-4.481c-0.154-2.458,0.014-5.066-0.09-7.589c0.457-0.084,0.904-0.185,1.341-0.303
	c0.133,0.087,0.28,0.156,0.42,0.233C287.619,399.563,287.629,402.791,287.444,405.7z M264.793,335.172
	c3.055-2.179,6.617-1.753,10.107-2.325c0.077,0.041,0.142,0.093,0.221,0.131c0.991,0.482,2.09-0.556,2.121-1.523
	c0.134-4.223-3.43-9.193,0.738-12.559c3.109-2.511,8.451-2.3,12.132-1.793c4.082,0.562,8.583,2.082,11.177,5.454
	c2.771,3.603-0.908,7.732-2.23,10.813c-0.693,1.616,0.795,2.388,2.152,1.729c1.201-0.584,2.307-1.388,3.287-2.333
	c6.445-0.435,13.779,2.663,14.266,10.041c0.411,6.218-7.711,8.688-10.42,13.021c-0.459,0.732-0.8,2.345,0.547,2.45
	c1.429,0.112,2.845-0.154,4.207-0.7c4.54,1.338,6.881,4.678,6.356,10.056c-0.263,2.695-1.473,5.315-3.391,7.228
	c-2.598,2.591-6.322,2.583-9.336,4.322c-1.085,0.627-1.866,2.2-0.663,3.092c0.943,0.698,2.04,0.989,3.198,1.002
	c0.062,9.227-10.966,8.962-18.536,9.244c-4.911-0.616-18.511,2.509-18.981-4.145c1.289-0.341,2.493-0.828,3.563-1.471
	c0.785-0.472,2.082-2.404,0.643-2.998c-7.044-2.905-16.67-0.202-20.451-8.864c-3.505-8.029,8.339-9.293,13.945-9.182
	c1.737,1.317,4.053,1.871,6.174,1.202c1.524-0.48,3.225-2.907,1.404-4.084c-1.669-1.079-3.535-1.31-5.016-2.741
	c-0.617-0.597-0.849-1.156-0.797-1.672c0.775-0.287,1.547-0.654,2.308-1.132c1.062-0.668,1.882-2.17,0.663-3.092
	c-3.147-2.381-7.922-1.207-11.188-3.958c-2.295-1.934-3.046-5.003-2.631-7.882C260.774,339.65,262.441,336.851,264.793,335.172z
	 M266.992,359.268c-0.255,0.79-0.313,1.668-0.114,2.626c-4.112-0.485-8.185-0.015-11.948,2.279
	c-3.88,2.365-6.206,6.485-6.149,11.015c0.094,7.302,6.732,12.015,13.873,13.375c-0.692,1.448-1.534,2.288-3.69,2.535
	c-3.046,0.349-6.325-0.753-9.091-1.901c-7.461-3.103-11.221-8.919-12.447-16.857c-1.252-8.115,0.67-16.661,3.809-24.137
	c1.473-3.507,3.581-6.968,6.873-9.009c2.448-1.518,5.129-1.04,7.798-0.733c-0.523,1.058-0.97,2.148-1.327,3.248
	C251.862,350.069,258.882,359.04,266.992,359.268z M412.508,334.138c-2.415-1.819-4.727-3.778-6.951-5.817
	c-7.014-6.43-13.049-13.848-18.8-21.441c4.613-1.075,8.57-4.248,13.813-3.802c4.792,0.406,8.598,3.709,12.053,6.723
	c3.626,3.164,9.092,6.659,14.213,6.769C421.945,322.41,417.358,328.558,412.508,334.138z"/>
<path fill="#231F20" d="M439.063,489.27c10.346-9.334,20.161-24.337,15.338-38.761c-2.518-7.532-9.66-12.317-16.555-15.397
	c-4.479-2-9.219-3.372-13.688-5.433c-5.246-2.419-8.596-5.831-12.518-9.914c-0.672-0.699-1.771,0.362-1.582,1.129
	c1.859,7.531,9.785,12.084,16.365,15.039c8.081,3.628,16.785,6.638,21.461,14.761c7.824,13.591-5.029,29.151-14.913,37.398
	c-15.705,13.105-33.817,23.566-52.271,32.26c-19.092,8.995-39.378,14.767-59.019,22.342c-1.03,0.397-1.989,2.79-0.208,2.49
	c21.671-3.65,42.6-11.681,62.475-20.89C403.424,515.271,423.067,503.699,439.063,489.27z"/>
<path fill="#231F20" d="M378.411,399.241c3.537-1.42,6.947-2.681,10.368-4.38c0.396-0.196,0.38-0.856-0.148-0.717
	c-8.962,2.366-32.777,6.926-23.901,21.404c4.747,7.742,16.889,6.61,18.663,16.451c1.572,8.719-7.533,15.94-12.497,21.702
	c-0.748,0.867,0.193,1.886,1.143,1.301c9.715-5.989,22.445-20.71,12.765-31.988c-4.833-5.631-16.513-5.069-17.644-14.095
	C366.509,403.743,374.851,400.67,378.411,399.241z"/>
<path fill="#231F20" d="M441.658,384.901c8.075-2.341,17.738-6.384,22.507-13.698c4.776-7.324-2.048-16.388-9.787-17.271
	c-0.182-0.021-0.508,0.306-0.257,0.422c8.142,3.767,12.007,12.874,4.81,19.333c-4.994,4.483-11.734,6.798-17.518,10.031
	C440.797,384.062,440.77,385.158,441.658,384.901z"/>
<path fill="#231F20" d="M453.707,370.087c-2.181,1.791-4.687,3.144-6.964,4.803c-0.41,0.298-0.25,1.09,0.33,0.848
	c4.495-1.872,16.469-8.393,9.268-14.099c-0.264-0.209-0.785,0.271-0.634,0.557C457.456,365.521,456.481,367.809,453.707,370.087z"/>
<path fill="#231F20" d="M417.276,483.007c-0.824,0.588-0.628,1.836,0.504,1.316c8.119-3.726,16.506-9.153,21.104-17.032
	c5.146-8.821-1.645-16.896-9.674-20.082c-0.336-0.134-0.84,0.375-0.473,0.625c7.636,5.198,11.914,13.512,5.873,21.534
	C430.2,475.223,423.135,478.828,417.276,483.007z"/>
</svg>
