<?xml version="1.0" encoding="UTF-8" standalone="no"?><!DOCTYPE svg PUBLIC "-//W3C//DTD SVG 1.1//EN" "http://www.w3.org/Graphics/SVG/1.1/DTD/svg11.dtd"><svg width="100%" height="100%" viewBox="0 0 542 499" version="1.1" xmlns="http://www.w3.org/2000/svg" xmlns:xlink="http://www.w3.org/1999/xlink" xml:space="preserve" style="fill-rule:evenodd;clip-rule:evenodd;stroke-linejoin:round;stroke-miterlimit:1.41421;"><g id="river"><path d="M344.501,163.455c2.152,7.575 -3.437,15.717 -8.986,20.154c-6.646,5.313 -15.002,8.593 -22.938,11.421c-11.492,4.098 -23.335,7.185 -35.03,10.645c-14.289,4.227 -28.467,8.853 -42.301,14.404c-13.392,5.375 -27.492,11.487 -38.371,21.209c-6.2,5.541 -11.33,13.344 -8.876,21.925c3.344,11.691 19.468,17.352 29.866,18.648c2.604,0.324 6.02,-3.356 3.268,-5.369c-4.316,-3.158 -8.259,-6.147 -12.938,-8.807c-2.85,-1.619 -5.479,-3.499 -7.697,-5.92c-1.152,-1.259 -2.437,-3.455 -2.646,-4.492c-0.108,-0.532 -0.102,-2.555 -0.16,-2.059c0.188,-1.565 0.29,-1.502 0.744,-2.488c0.471,-1.021 2.209,-3.265 3.082,-4.145c2.005,-2.021 4.271,-3.815 6.614,-5.426c6.01,-4.129 12.573,-7.452 19.168,-10.53c24.417,-11.396 50.555,-18.32 76.101,-26.611c12.174,-3.951 24.427,-8.755 34.64,-16.629c4.189,-3.229 7.885,-7.471 9.841,-12.421c0.847,-2.144 1.307,-4.524 1.131,-6.827c-0.228,-2.984 -1.989,-4.839 -3.147,-7.46c-0.356,-0.801 -1.564,0.075 -1.365,0.778Z" style="fill-rule:nonzero;"/><path d="M366.741,154.004c20.066,4.888 42.632,29.952 21.67,47.819c-10.452,8.909 -24.99,13.893 -37.386,19.38c-13.244,5.862 -65.746,26.604 -42.394,48.107c8.333,7.673 21.652,13.333 32.799,13.269c3.175,-0.018 5.991,-4.486 3.177,-6.713c-7.532,-5.96 -17.674,-7.677 -25.649,-13.303c-1.704,-1.203 -3.666,-3.147 -4.474,-4.654c-1.031,-1.922 -0.922,-2.63 -0.45,-4.27c-0.169,0.586 0.678,-1.107 0.578,-0.961c0.738,-1.096 1.242,-1.62 1.526,-1.91c1.951,-1.998 4.252,-3.728 6.354,-5.142c6.075,-4.084 12.659,-7.478 19.186,-10.771c22.468,-11.335 79.121,-29.458 59.338,-64.909c-3.116,-5.585 -7.969,-9.986 -13.401,-13.253c-6.411,-3.854 -12.87,-4.817 -20.229,-4.578c-0.867,0.03 -1.824,1.602 -0.645,1.889Z" style="fill-rule:nonzero;"/><path d="M224.855,286.553c6.34,4.886 6.423,15.398 3.976,22.487c-1.799,5.21 -4.924,9.17 -8.848,12.669c-10.423,9.294 -24.828,14.2 -38.05,18.063c-31.432,9.183 -64.109,10.756 -96.302,15.57c-7.621,1.14 -15.24,1.685 -22.796,3.298c-2.34,0.5 -3.53,4.639 -0.388,4.639c26.594,0.002 52.99,-1.074 79.325,-5.137c16.891,-2.605 33.79,-6.054 49.98,-11.6c13.367,-4.58 27.241,-10.887 37.069,-21.347c5.052,-5.376 8.883,-11.619 10.355,-18.921c2.014,-9.98 0.287,-22.452 -11.01,-25.168c-2.761,-0.663 -5.884,3.465 -3.311,5.447Z" style="fill-rule:nonzero;"/><path d="M346.315,282.382c22.627,8.627 47.263,20.014 52.043,46.484c4.597,25.457 -14.226,50.272 -30.386,67.974c-31.963,35.011 -76.835,57.226 -120.067,74.922c-9.545,3.907 -19.107,7.765 -28.623,11.738c-8.979,3.75 -18.352,6.513 -27.267,10.42c-1.724,0.755 -3.634,5.108 -0.375,4.481c10.424,-2.01 20.372,-5.754 30.604,-8.492c11.129,-2.979 22.083,-7.248 32.77,-11.533c22.408,-8.986 44.218,-19.524 64.839,-32.101c20.145,-12.286 39.15,-26.753 55.219,-44.091c16.475,-17.775 32.335,-40.008 34.416,-64.803c1.439,-17.147 -6.372,-32.979 -19.354,-43.732c-11.589,-9.601 -27.295,-17.033 -42.505,-14.046c-0.859,0.17 -2.971,2.147 -1.314,2.779Z" style="fill-rule:nonzero;"/><path d="M299.915,134.563c17.687,-14.242 30.329,-33.591 47.337,-48.608c13.266,-11.712 36.349,-24.813 51.548,-9.167c10.438,10.745 13.135,26.9 24.182,37.245c5.813,5.444 12.919,7.371 20.673,5.628c12.31,-2.767 23.247,-8.68 36.18,-5.984c14.061,2.93 25.179,15.373 34.975,25.104c4.72,4.688 9.402,9.416 13.982,14.241c2.125,2.239 6.85,6.009 7.824,8.775c0.957,2.713 5.51,-0.213 4.65,-2.65c-2.025,-5.744 -8.591,-10.746 -12.693,-14.96c-6.19,-6.357 -12.51,-12.591 -18.866,-18.78c-8.313,-8.095 -18.819,-15.449 -30.428,-17.362c-11.61,-1.913 -22.401,3.17 -33.341,6.148c-18.565,5.055 -26.438,-14.34 -33.508,-27.642c-3.284,-6.18 -7.016,-12.591 -12.695,-16.877c-6.291,-4.749 -13.836,-5.811 -21.501,-4.664c-16.986,2.541 -31.186,14.664 -42.661,26.622c-12.839,13.377 -23.564,28.697 -36.53,41.935c-0.771,0.785 -0.001,1.698 0.872,0.996Z" style="fill-rule:nonzero;"/><path d="M146.741,19.004c11.041,2.225 21.645,-4.132 32.822,-2.684c10.688,1.384 19.732,8.531 27.141,15.866c13.885,13.748 25.123,30.521 36.629,46.235c11.602,15.844 23.389,31.674 37.466,45.438c6.834,6.682 14.3,12.728 22.315,17.935c3.936,2.558 8.066,4.798 12.292,6.833c2.145,1.033 4.342,1.947 6.551,2.829c1.388,0.554 6.059,3.071 6.403,1.099c1.255,-0.904 2.509,-1.81 3.764,-2.715c-0.256,-0.086 -0.513,-0.173 -0.769,-0.26c-2.251,-0.761 -5.532,3.725 -2.906,4.775c0.249,0.099 0.497,0.198 0.746,0.298c1.825,0.729 3.913,-0.659 4.332,-2.517c0.672,-2.982 -3.363,-3.673 -5.316,-4.357c-4.933,-1.729 -9.684,-3.943 -14.293,-6.395c-9.332,-4.962 -17.773,-11.438 -25.551,-18.556c-15.551,-14.229 -28.219,-31.331 -40.688,-48.221c-12.17,-16.481 -24.139,-33.905 -39.117,-48.003c-7.229,-6.804 -15.822,-12.316 -25.723,-14.047c-11.936,-2.086 -23.627,3.883 -35.452,4.558c-0.842,0.05 -1.851,1.646 -0.646,1.889Z" style="fill-rule:nonzero;"/><path d="M254.041,85.733c4.171,-0.576 7.762,-2.641 11.493,-4.48c5.228,-2.578 10.693,-3.892 16.526,-3.306c7.375,0.74 13.386,5.334 18.818,9.987c9.217,7.896 23.393,17.856 35.247,8.206c1.107,-0.901 1.048,-2.69 -0.588,-2.73c-3.726,-0.091 -7.272,1.403 -11.063,1.206c-3.438,-0.18 -6.61,-1.484 -9.557,-3.18c-5.553,-3.195 -10.107,-7.953 -15.253,-11.732c-5.44,-3.994 -11.433,-6.244 -18.198,-6.354c-10.684,-0.175 -18.501,6.524 -27.494,11.164c-0.481,0.248 -0.748,1.331 0.069,1.219Z" style="fill-rule:nonzero;"/><path d="M148.391,17.096c-7.257,0.976 -13.492,-2.27 -18.634,-7.141c-2.598,-2.46 -5.016,-4.97 -8.088,-6.849c-4.786,-2.928 -10.356,-3.411 -15.719,-2.099c-13.492,3.301 -23.166,17.561 -30.073,28.523c-10.254,16.276 -17.985,34.125 -25.17,51.918c-6.306,15.615 -11.646,31.553 -16.199,47.752c-0.608,2.168 2.573,1.523 3.205,0.149c14.353,-31.197 24.345,-64.365 41.76,-94.147c6.067,-10.378 14.487,-24.541 26.798,-28.277c5.218,-1.584 10.258,0.549 14.447,3.605c8.593,6.27 16.32,13.258 27.515,8.451c0.739,-0.314 1.551,-2.071 0.158,-1.885Z" style="fill-rule:nonzero;"/><path d="M297.341,274.545c8.034,23.583 39.343,24.572 55.962,39.117c15.802,13.829 13.506,34.354 3.331,50.81c-12.796,20.694 -35.186,34.918 -55.148,47.866c-23.119,14.995 -47.822,27.56 -73.303,38.017c-25.534,10.478 -51.971,18.586 -78.065,27.5c-1.428,0.488 -1.795,2.828 0.131,2.422c53.346,-11.276 105.709,-32.918 151.682,-62.217c20.062,-12.785 41.472,-26.816 55.772,-46.199c10.249,-13.891 17.388,-32.584 10.025,-49.361c-5.453,-12.422 -18.027,-19.706 -30.138,-24.33c-7.341,-2.803 -14.626,-5.637 -21.607,-9.266c-7.17,-3.728 -12.27,-9.107 -17.06,-15.487c-0.565,-0.753 -1.834,0.388 -1.582,1.128Z" style="fill-rule:nonzero;"/><path d="M330.749,153.448c0.072,0.064 0.145,0.129 0.217,0.194c-0.053,0.461 0.021,0.842 0.439,1.104c2.743,1.717 5.839,2.869 8.186,5.161c3.926,3.834 2.512,9.282 4.323,13.883c0.472,1.197 2.098,0.281 2.461,-0.502c2.487,-5.348 1.126,-12.502 -3.112,-16.603c-1.701,-1.646 -3.912,-2.657 -6.11,-3.44c-2.184,-0.777 -3.742,-0.687 -5.862,-0.677c-0.37,0.002 -0.831,0.541 -0.542,0.88Z" style="fill-rule:nonzero;"/><path d="M329.886,155.453c4.35,-0.493 8.596,-1.673 12.951,-2.21c5.524,-0.682 11.131,-0.639 16.672,-0.214c10.961,0.84 19.812,5.359 29.885,9.079c1.047,0.387 2.512,-0.849 1.787,-1.918c-5.971,-8.816 -19.73,-10.844 -29.525,-11.713c-10.091,-0.896 -22.78,-0.434 -31.912,4.439c-1,0.534 -1.567,2.731 0.142,2.537Z" style="fill-rule:nonzero;"/><path d="M261.225,230.708c-12.11,4.206 -25.632,4.956 -35.479,14.069c-3.034,2.808 -5.945,6.927 -6.013,11.229c-0.098,6.218 4.089,10.874 8.498,14.771c4.23,3.738 9.662,5.407 14.698,7.73c7.372,3.401 11.25,9.623 11.222,17.727c-0.047,13.826 -13.342,24.241 -21.844,33.383c-0.776,0.834 0.215,1.916 1.142,1.301c15.533,-10.314 38.225,-37.476 17.301,-53.893c-4.561,-3.576 -10.611,-4.953 -15.654,-7.703c-5.509,-3.004 -12.037,-9.482 -10.623,-16.311c1.525,-7.374 11.021,-11.537 17.159,-13.933c6.563,-2.562 13.147,-4.851 19.635,-7.605c0.419,-0.178 0.555,-0.972 -0.042,-0.765Z" style="fill-rule:nonzero;"/><path d="M370.08,164.286c7.066,2.399 12.722,8.877 15.049,15.877c2.021,6.08 -1.244,11.666 -5.506,15.784c-8.446,8.161 -20.357,12.332 -30.65,17.566c-0.632,0.321 -0.623,1.476 0.245,1.184c12.671,-4.259 27.381,-10.161 35.719,-21.14c8.938,-11.769 -1.468,-27.654 -14.649,-29.711c-0.235,-0.036 -0.497,0.341 -0.208,0.44Z" style="fill-rule:nonzero;"/><path d="M372.854,177.354c6.646,10.436 -7.74,16.576 -14.84,21.271c-0.573,0.379 -0.407,1.234 0.338,0.881c7.306,-3.467 25.668,-12.898 15.16,-22.729c-0.326,-0.304 -0.889,0.214 -0.658,0.577Z" style="fill-rule:nonzero;"/><path d="M327.947,319.378c6.423,3.83 12.081,9.699 14.787,16.729c2.499,6.492 0.153,13.101 -3.673,18.481c-7.471,10.505 -19.753,16.69 -30.13,23.819c-0.838,0.575 -0.614,1.854 0.504,1.316c12.397,-5.949 27.064,-14.814 33.952,-27.2c2.958,-5.319 3.987,-10.89 2.397,-16.82c-2.326,-8.688 -9.693,-13.547 -17.365,-16.95c-0.335,-0.148 -0.847,0.403 -0.472,0.625Z" style="fill-rule:nonzero;"/><path d="M75.458,126.657c-0.545,-7.462 -6.636,-15.568 0.578,-21.869c5.548,-4.846 14.714,-5.037 21.598,-4.23c7.115,0.834 15.156,3.298 19.881,9.008c5.819,7.032 -0.722,13.906 -3.937,20.201c-0.798,1.563 0.87,2.431 2.151,1.729c8.819,-4.828 13.744,-16.795 8.193,-25.614c-4.933,-7.839 -16.102,-10.778 -24.694,-11.538c-9.254,-0.818 -20.281,0.583 -27.187,7.418c-3.249,3.215 -4.99,7.328 -5.125,11.883c-0.141,4.756 2.283,11.91 6.422,14.539c0.891,0.564 2.186,-0.619 2.12,-1.527Z" style="fill-rule:nonzero;"/><path d="M74.005,126.344c-5.702,-5.012 -14.312,-3.475 -20.427,-0.061c-6.455,3.604 -10.877,10.079 -13.004,17.03c-2.011,6.575 -0.989,13.861 3.366,19.245c5.433,6.718 17.477,9.642 25.337,6.266c0.932,-0.4 3.063,-2.7 1.188,-3.451c-6.559,-2.623 -13.813,-1.091 -19.585,-6.139c-4.111,-3.597 -5.373,-9.184 -4.523,-14.414c0.861,-5.301 4.012,-10.376 8.404,-13.476c5.529,-3.902 11.811,-3.341 18.22,-3.337c0.613,0.001 1.679,-1.088 1.024,-1.663Z" style="fill-rule:nonzero;"/><path d="M120.234,128.008c11.496,-2.625 26.737,3.765 26.782,17.298c0.035,10.636 -12.307,15.366 -18.252,21.993c-0.857,0.955 -0.476,2.77 1.029,2.584c6.342,-0.783 12.102,-6.399 16.258,-10.863c4.253,-4.566 7.023,-10.492 6.815,-16.784c-0.232,-7.058 -6.004,-12.979 -11.846,-16.122c-6.829,-3.673 -14.313,-3.039 -21.153,0.126c-1.013,0.469 -0.922,2.063 0.367,1.768Z" style="fill-rule:nonzero;"/><path d="M68.127,166.046c-5.078,1.585 -9.158,5.427 -7.333,11.133c1.612,5.044 9.741,9.81 14.354,5.987c0.506,-0.419 1.072,-1.385 0.718,-2.061c-0.792,-1.511 -2.532,-1.776 -4.076,-2.247c-1.729,-0.527 -3.367,-1.411 -4.687,-2.646c-3.262,-3.051 -2.616,-6.309 1.421,-8.255c1.047,-0.502 1.004,-2.347 -0.397,-1.911Z" style="fill-rule:nonzero;"/><path d="M66.892,179.562c-9.076,-2.096 -18.563,-2.692 -26.821,2.378c-5.887,3.615 -9.491,10.041 -9.007,16.97c1.283,18.386 27.552,25.062 41.679,18.618c1.186,-0.541 1.992,-2.83 0.262,-3.205c-7.973,-1.73 -15.941,-0.431 -23.677,-3.779c-5.295,-2.293 -9.697,-6.395 -11.479,-11.956c-4.924,-15.369 18.283,-16.95 27.625,-16.018c1.546,0.154 3.485,-2.53 1.418,-3.008Z" style="fill-rule:nonzero;"/><path d="M132.932,168.237c10.511,0.36 16.261,7.696 15.223,18.064c-0.491,4.9 -2.672,9.666 -6.157,13.151c-4.565,4.564 -10.305,4.603 -15.909,6.854c-1.035,0.416 -2.97,2.606 -1.188,3.451c6.36,3.012 15.121,-1.695 19.882,-5.823c5.037,-4.369 8.169,-10.774 9.093,-17.317c1.787,-12.648 -7.314,-24.587 -20.752,-20.66c-1.119,0.327 -1.759,2.227 -0.192,2.28Z" style="fill-rule:nonzero;"/><path d="M130.035,209.434c1.833,9.418 -4.449,15.412 -12.733,18.287c-8.061,2.798 -15.666,1.406 -23.861,1.146c-0.883,-0.027 -2,1.326 -1.302,2.115c6.137,6.949 21.136,3.274 28.208,0.216c9.527,-4.12 15.561,-12.452 11.933,-22.757c-0.421,-1.192 -2.444,-0.022 -2.245,0.993Z" style="fill-rule:nonzero;"/><path d="M63.948,219.167c-4.418,17.465 25.651,17.256 35.624,11.915c0.657,-0.353 1.509,-2.144 0.183,-2.227c-7.7,-0.479 -35.952,5.128 -33.336,-9.89c0.307,-1.765 -2.152,-1.06 -2.471,0.202Z" style="fill-rule:nonzero;"/><path d="M88.589,242.936c-0.079,-0.642 -0.159,-1.282 -0.238,-1.924c-0.024,-0.201 -0.315,-0.084 -0.333,0.067c-0.077,0.673 -0.155,1.346 -0.232,2.019c-0.071,0.608 0.864,0.328 0.803,-0.162Z" style="fill-rule:nonzero;"/><path d="M88.547,240.949c0.21,-3.361 0.608,-7.505 1.799,-10.666c0.667,-1.771 -1.791,-1.837 -2.326,-0.434c-4.188,10.976 -3.859,24.783 -1.908,36.201c0.183,1.065 0.652,1.624 1.696,1.933c0.16,0.048 0.321,0.095 0.481,0.142c2.283,0.675 4.864,-2.301 4.167,-4.441c-0.256,-0.785 -0.316,-1.789 -0.55,-2.6c-0.443,-1.541 -2.468,-0.438 -3.08,0.25c-1.244,1.397 -1.14,1.923 -1.869,3.471c1.719,-0.564 3.438,-1.128 5.156,-1.691c-1.054,-0.905 -0.986,-6.158 -1.151,-7.541c-0.351,-2.943 -0.492,-5.908 -0.589,-8.868c-0.185,-5.683 0.4,-11.395 0.108,-17.054c-0.846,0.374 -1.691,0.748 -2.538,1.122c1.209,3.136 -0.061,7.097 -0.125,10.411c-0.009,0.471 0.707,0.126 0.729,-0.235Z" style="fill-rule:nonzero;"/><path d="M96.66,232.19c-1.487,5.178 -1.313,10.974 -1.521,16.319c-0.131,3.398 -1.701,10.416 1.051,13.068c1.106,1.067 3.006,0.387 3.777,-0.785c2.483,-3.767 1.423,-8.797 1.305,-13.092c-0.146,-5.313 0.134,-11.397 -1.605,-16.48c-0.571,-1.667 -2.723,-0.018 -3.007,0.97Z" style="fill-rule:nonzero;"/><path d="M48.465,135.334c-3.43,-6.109 -13.659,-6.04 -19.489,-4.199c-7.274,2.298 -12.763,8.573 -16.654,14.834c-9.635,15.5 -13.747,36.147 -10.811,54.111c1.335,8.166 4.607,16.998 10.853,22.7c5.051,4.612 11.435,7.596 17.861,9.733c12.106,4.027 29.397,1.716 31.238,-13.714c0.58,-4.865 -5.556,-2.642 -6.561,0.531c-1.594,5.034 -3.994,7.649 -9.377,8.197c-5.16,0.526 -10.6,-1.096 -15.328,-3.004c-4.473,-1.806 -8.871,-4.296 -12.464,-7.532c-5.636,-5.078 -8.254,-13.355 -9.483,-20.592c-2.494,-14.688 0.901,-30.494 7.036,-43.896c2.626,-5.735 6.328,-11.34 11.809,-14.671c6.816,-4.143 12.839,-0.126 19.812,-0.477c0.778,-0.036 2.052,-1.141 1.558,-2.021Z" style="fill-rule:nonzero;"/><path d="M26.55,228.198c-1.044,5.975 -1.566,12.285 -1.324,18.345c0.173,4.308 0.905,12.479 5.985,13.586c1.577,0.344 3.123,-1.271 3.143,-2.759c0.027,-2.101 -1.036,-3.391 -1.889,-5.271c-1.24,-2.735 -1.528,-5.839 -1.767,-8.794c-0.423,-5.235 0.051,-10.591 -0.849,-15.772c-0.346,-1.999 -3.04,-0.822 -3.299,0.665Z" style="fill-rule:nonzero;"/><path d="M36.418,232.631c-0.217,5.436 -0.657,10.828 -0.244,16.271c0.293,3.867 0.518,8.386 3.699,10.893c1.15,0.906 3.072,-0.771 3.244,-1.885c0.644,-4.155 -1.273,-8.294 -1.882,-12.428c-0.681,-4.621 -1.092,-9.315 -1.288,-13.981c-0.097,-2.335 -3.46,-0.608 -3.529,1.13Z" style="fill-rule:nonzero;"/></g></svg>