<?xml version="1.0" encoding="utf-8"?>
<!-- Generator: Adobe Illustrator 17.0.0, SVG Export Plug-In . SVG Version: 6.00 Build 0)  -->
<!DOCTYPE svg PUBLIC "-//W3C//DTD SVG 1.0//EN" "http://www.w3.org/TR/2001/REC-SVG-20010904/DTD/svg10.dtd">
<svg version="1.0" id="Layer_1" xmlns="http://www.w3.org/2000/svg" xmlns:xlink="http://www.w3.org/1999/xlink" x="0px" y="0px"
	 width="566.93px" height="566.93px" viewBox="0 0 566.93 566.93" enable-background="new 0 0 566.93 566.93" xml:space="preserve">
<path fill="#010101" d="M126.65,146.368c0.198-1.7-0.135-3.31-0.76-4.896c-0.377-0.955-1.473-1.143-2.357-0.859
	c-1.116,0.357-1.837,1.242-2.185,2.323c-0.469,1.458-0.954,3.116-0.762,4.657C121.045,151.255,126.328,149.117,126.65,146.368z"/>
<path fill="#010101" d="M136.274,148.475c1.281-0.104,2.235-0.988,2.844-2.051c0.502-0.875,0.803-2.101,0.667-3.108
	c-0.104-0.772-0.296-1.739-0.897-2.299c-0.3-0.625-1.154-0.715-1.747-0.527c-0.726,0.233-1.284,0.802-1.563,1.498
	c-0.924,1.395-1.228,3.194-1.355,4.832C134.138,147.924,135.339,148.55,136.274,148.475z"/>
<path fill="#010101" d="M360.219,163.526c-0.512,14.879-1.506,29.737-2.683,44.576c-0.908,11.454-2.785,25.531,2.026,36.344
	c1.056,2.375,4.224,1.232,5.54-0.673c7.32,2.113,15.396,2.107,22.929,2.268c10.166,0.219,20.326-0.476,30.447-1.355
	c10.214-0.889,20.394-2.136,30.591-3.182c4.693-0.48,9.392-0.903,14.096-1.263c5.148-0.393,10.215,0.087,15.295-0.181
	c2.771-0.145,4.952-3.667,4.052-5.644c1.175-0.526,2.256-1.382,2.844-2.076c0.706-0.833,1.023-1.742,1.164-2.702
	c0.539-1.06,0.752-2.271,0.49-3.422c-0.465-2.044,0.583-4.204,1.055-6.221c0.711-3.04,1.24-6.122,1.686-9.211
	c0.893-6.188,1.147-12.475,1.218-18.718c0.15-13.376-1.073-26.74-1.687-40.092c-0.652-14.206-1.068-28.345-2.23-42.53
	c-0.61-7.446-1.281-14.891-1.721-22.35c-0.386-6.55-0.198-13.124-0.501-19.669c1.338-1.536,1.913-3.625-0.575-4.072
	c-4.282-0.769-9.129,0.041-13.467,0.176c-6.145,0.192-12.298,0.244-18.445,0.365c-12.193,0.24-24.363,1.048-36.549,1.349
	c-10.428,0.258-20.855-0.354-31.287-0.008c-8.519,0.282-20.178,0.48-27.086,6.237c-1.065,0.885-0.711,2.504,0.748,2.245
	c-1.004,6.094,0.702,12.095,1.718,18.173c1.25,7.486,1.336,15.26,1.307,22.83C361.13,130.97,360.779,147.284,360.219,163.526z
	 M360.693,73.137c8.599-2.007,16.743-3.351,25.755-3.557c9.827-0.224,19.653,0.37,29.479,0.158
	c11.254-0.243,22.485-0.813,33.748-0.898c5.695-0.044,11.387-0.021,17.082,0.04c4.905,0.055,10.325,0.961,15.187,0.256
	c-1.29,12.429,0.038,25.509,0.792,37.859c0.885,14.483,1.338,28.874,1.5,43.378c0.15,13.416,1.042,26.805,0.828,40.229
	c-0.109,6.934-0.612,13.845-1.68,20.698c-0.826,5.302-2.841,10.177-4.151,15.286c-0.372,0.502-0.669,1.057-0.885,1.625
	c-0.79,0.885-1.204,2.069-0.895,3.28c0.164,0.641,0.299,1.132,0.55,1.642c-3.913,0.17-7.957,0.89-11.852,1.159
	c-4.695,0.324-9.382,0.776-14.064,1.248c-9.598,0.966-19.176,2.124-28.772,3.111c-9.594,0.987-19.196,1.786-28.839,2.111
	c-9.88,0.333-19.62-1.037-29.457-1.047c-0.229-0.412-0.521-0.818-0.917-1.35c-0.067-0.091-0.143-0.164-0.219-0.235
	c-1.643-4.129-1.417-9.884-1.553-13.849c-0.226-6.507,0.269-13.031,0.741-19.517c1.04-14.272,1.813-28.561,2.223-42.865
	c0.444-15.575,0.459-31.18,0.617-46.761C366.059,100.63,363.491,87.214,360.693,73.137z"/>
<path fill="#010101" d="M83.132,473.526c1.891-0.002,3.782-0.014,5.673-0.011c1.604,0.002,3.217,0.058,4.818-0.041
	c0.573-0.047,1.146-0.097,1.719-0.149c0.429-0.038,0.658-0.101,0.766-0.169c0.09,0.055,0.197,0.117,0.328,0.188
	c1.903,1.029,4.29,0.102,5.725-1.338c-0.195,1.199,0.475,2.521,1.942,2.263c3.732-0.655,7.7-4.056,10.857-6.012
	c5.747-3.563,11.543-7.047,17.303-10.586c4.676-2.873,9.371-5.741,13.869-8.885c0.334-0.233,0.547-0.393,0.69-0.508
	c0.099,0,0.314-0.047,0.738-0.188c1.408-0.471,2.703-1.313,3.607-2.507c0.368-0.485,0.666-0.959,0.886-1.423
	c3.298-0.311,7.22-4.774,5.709-8.019c-2.574-5.524-1.078-13.818-0.82-19.791c0.115-2.645,0.251-5.289,0.385-7.933
	c5.937,0.697,12.073,0.127,18.015-0.101c7.656-0.294,15.303-0.751,22.949-1.229c5.996-0.373,11.993-0.738,17.993-1.06
	c-10.353,9.855-18.736,22.347-27.207,33.647c-10.147,13.538-20.331,26.959-31.443,39.726c-10.914,12.541-22.516,24.615-33.09,37.433
	c-3.652,4.427-7.063,9.055-10.631,13.551c-3.123,3.938-6.393,8.569-10.611,11.431c-1.502,1.02-1.881,4.235,0.689,3.325
	c3.592-1.271,6.123-4.463,8.582-7.227c4.202-4.722,7.961-9.844,11.83-14.836c9.764-12.596,21.041-24.089,31.504-36.108
	c11.617-13.343,22.576-27.031,33.166-41.203c5.383-7.206,10.742-14.432,16.217-21.57c4.734-6.174,9.893-12.045,14.442-18.359
	c0.169-0.009,0.339-0.02,0.508-0.028c3.271-0.161,6.547-0.3,9.822-0.363c3.377-0.065,5.26,1.347,8.418-0.779
	c0.561-0.378,1.172-0.92,1.69-1.551c1.083,3.47,2.24,6.917,3.427,10.342c4.778,13.771,11.634,29.169,10.385,44.071
	c-1.709,4.01-3.773,7.906-5.659,11.545c-4.092,7.896-8.619,15.562-12.616,23.508c-4.34,8.627-7.985,17.667-11.748,26.557
	c-3.993,9.434-8.157,18.947-11.22,28.734c-0.873,2.787,3.595,2.26,4.337,0.203c6.801-18.848,13.499-38.024,22.437-55.999
	c4.195-8.438,9.033-16.541,13.213-24.989c0.796-1.607,1.579-3.216,2.312-4.835c0.233,0.184,0.506,0.335,0.82,0.451
	c-0.181,0.731,0.049,1.457,1.003,1.757c8.355,2.632,18.853,1.185,27.532,1.268c9.83,0.095,19.663,0.229,29.494,0.186
	c7.717-0.035,15.432-0.135,23.147-0.249c-1.824,7.508-3.279,15.089-5.357,22.554c-2.302,8.272-4.813,16.48-6.823,24.832
	c-1.445,6.008-2.604,12.111-3.462,18.229c-0.367,2.613-0.809,5.202-1.39,7.776c-0.377,1.668-1.431,3.139-1.67,4.847
	c-0.318,2.28,1.875,3.103,3.682,2.057c3.99-2.31,3.396-7.677,3.787-11.64c0.599-6.064,1.324-12.063,2.514-18.046
	c1.788-8.991,4.477-17.792,6.938-26.614c2.155-7.731,4.683-15.927,5.202-24.044c11.624-0.178,23.247-0.382,34.872-0.483
	c14.91-0.129,29.816,0.272,44.718,0.735c-2.011,12.665-2.83,25.362-3.22,38.173c-0.203,6.668-0.361,13.336-0.48,20.006
	c-0.109,6.11-1.395,13.437,0.125,19.361c0.648,2.528,4.207,0.025,4.541-1.464c1.241-5.523,0.137-11.978,0.003-17.624
	c-0.155-6.572-0.277-13.15-0.245-19.724c0.065-12.878,0.453-25.817,1.485-38.659c4.644,0.146,9.288,0.296,13.931,0.435
	c9.81,0.295,19.621,0.439,29.432,0.667c5.217,0.122,10.437,0.176,15.655,0.186c0.671,0.001,1.353-0.014,2.039-0.035
	c3.588,15.83,7.28,31.645,11.046,47.433c1.381,5.784,2.522,11.613,3.816,17.417c0.887,3.972,1.654,10.955,5.471,13.286
	c1.451,0.888,4.06-1.028,3.725-2.678c-0.875-4.305-3.65-8.698-5.071-12.959c-1.858-5.567-2.917-11.429-4.35-17.113
	c-3.83-15.196-7.122-30.585-12.056-45.475c2.906-0.102,5.848-0.143,8.591,0.482c0.154,0.035,0.304,0.055,0.454,0.077
	c5.726,0.852,8.557-7.427,5.673-9.662c0.216-0.314,0.415-0.653,0.588-1.026c5.996-12.892,6.748-27.389,9.206-41.188
	c0.821-4.609,1.83-9.235,2.97-13.856c2.595,0.335,5.277,0.196,7.936-0.046c0.156,3.955,3.461,8.281,5.36,11.545
	c3.642,6.264,7.664,12.316,11.474,18.479c3.938,6.369,7.827,12.81,11.054,19.575c1.122,2.352,2.124,4.778,2.772,7.306
	c0.166,0.647,0.313,1.459,0.234,2.13c-0.09,0.764-0.643,2.907,0.011,1.272c-0.678,1.694,0.801,2.505,2.252,1.808
	c9.159-4.399-5.828-24.271-8.748-28.879c-7.114-11.221-14.444-22.381-21.695-33.501c0.691-0.069,1.379-0.136,2.059-0.193
	c2.777-0.231,5.552-0.492,8.323-0.78c1.011-0.104,2.019-0.181,3.032-0.259c0.042-0.003,0.068-0.006,0.105-0.009
	c0.094,0.035,0.385,0.082,0.996,0.141c0.441,0.114,0.91,0.157,1.389,0.117c0.095-0.008,0.188-0.016,0.282-0.023
	c3.707-0.313,10.295-7.578,4.781-10.103c-0.123-0.056-0.246-0.111-0.368-0.168c-2.287-1.047-4.94-0.24-6.743,1.402
	c1.866-1.699,0.805-0.736-0.629-0.436c-1.037,0.217-2.117,0.319-3.164,0.475c-2.448,0.362-4.901,0.689-7.355,1.012
	c-3.791,0.499-7.698,0.751-11.416,1.704c2.546-9.251,5.518-18.437,8.515-27.388c0.478-0.499,0.838-1.086,0.976-1.633
	c2.31-9.133-5.997-16.462-13.153-20.512c-7.216-4.084-15.676-5.792-23.968-6.308c10.281-13.419-19.356-32.598-28.536-38.357
	c-22.234-13.95-49.164-20.085-75.148-21.139c-21.367-0.867-41.437,1.729-61.414,9.31c-17.875,6.781-36.789,16.644-48.76,31.99
	c-3.434,4.401-6.151,9.56-7.052,15.049c-6.434,1.184-12.528,3.945-17.703,8.231c-5.479,4.538-13.964,13.819-11.762,21.663
	c-0.629,1.346-1.083,2.772-1.563,4.311c-0.687,0.339-1.31,0.977-1.375,1.54c-0.732,6.388,0.867,12.949,2.299,19.15
	c0.503,2.18,1.065,4.348,1.663,6.507c-1.586-0.361-3.279,0.255-5.246,0.502c-3.189,0.4-6.492,0.303-9.701,0.456
	c-7.271,0.347-14.534,0.841-21.797,1.318c-7.668,0.505-15.336,1.02-23.008,1.476c-6.952,0.414-14.048,0.254-20.933,1.331
	c0.125-2.381,0.252-4.762,0.372-7.144c0.723-14.383,1.047-28.786,0.828-43.187c-0.439-28.98-2.68-57.745-1.231-86.742
	c1.405-28.138,3.858-56.196,3.808-84.391c-0.025-14.151,0.545-28.298,0.422-42.45c-0.088-9.987-1.347-19.619-0.388-29.502
	c2.621-2.171,4.692-6.535,0.49-6.865c-10.889-0.855-21.553-3.288-32.378-4.662c-4.44-0.564-8.926-0.764-13.375-1.26
	c-4.439-0.494-9.347-2.514-13.782-1.699c-0.412,0.075-0.868,0.28-1.261,0.569c-0.675-0.003-1.475,0.191-2.405,0.661
	c-4.227,2.133-11.889,0.898-16.416,0.673c-6.417-0.321-12.82-0.858-19.24-1.143c-7.123-0.314-14.287,0.126-21.412,0.274
	c-8.641,0.179-17.176-1.064-25.791-1.168c-1.089-0.012-2.211,1.658-1.139,2.409c0.903,0.633,1.849,1.179,2.822,1.664
	c-0.017,0.077-0.035,0.154-0.04,0.231c-1.885,30.872-1.744,61.991-2.667,92.912c-0.94,31.542-1.038,63.063-1.515,94.609
	c-0.467,30.837-1.037,61.625-0.598,92.464c0.225,15.817,0.847,31.64,1.982,47.418c0.529,7.36,1.491,14.664,2.167,22.007
	c0.338,3.673,1.784,12.433-1.062,15.354c-2.905,2.982-1.687,5.47,0.465,6.133c3.25,4.802,13.308,4.348,18.336,4.596
	c8.221,0.404,16.455,0.049,24.68-0.066c6.922-0.098,13.845-0.138,20.768-0.156c-4.202,4.472-8.802,8.514-13.51,12.479
	c-5.604,4.719-10.811,9.826-16.271,14.694c-9.189,8.191-21.095,16.034-25.45,28.115c-1.035,2.869,2.965,2.993,3.75,0.699
	c4.169-12.177,16.654-19.94,25.706-28.312C63.967,492.283,74.875,483.864,83.132,473.526z M513.698,358.437
	c0.49,0.562,0.923,1.158,1.336,1.766c-3.82-1.198-8.031-1.574-11.594-1.53c-8.005,0.101-16.009,3.233-22.907,7.078
	c-7.273,4.053-13.522,9.9-18.941,16.154c-2.463,2.843-4.651,5.913-6.679,9.08c-1.161-2.09-2.543-4.053-3.577-5.672
	c-1.902-2.979-5.402-8.447-9.334-10.375c1.216-1.514,1.891-3.364,1.185-4.744c3.638-7.221,7.449-13.852,14.559-18.848
	c7.49-5.265,16.033-6.284,24.922-5.689c7.795,0.521,15.523,2.489,22.474,6.072C508.425,353.421,511.274,355.659,513.698,358.437z
	 M322.957,374.128c1.559-0.138,3.285-1.124,4.301-2.33c0.001-0.001,0.001-0.001,0.002-0.002c1.555-0.233,3.107-0.612,4.579-0.872
	c4.706-0.829,9.442-1.561,14.178-2.204c10.281-1.398,20.605-2.146,30.984-2.064c10.059,0.081,20.022,1.096,29.912,2.906
	c7.787,1.425,16.242,2.975,23.846,5.793c1.366,2.018,3.46,2.258,5.741,2.292c0.183,1.274,1.048,2.114,2.153,3.603
	c2.139,2.883,4.289,5.644,6.109,8.756c1.472,2.52,2.757,5.111,3.898,7.789c-6.713-2.058-13.334-4.241-20.239-5.745
	c-8.63-1.88-17.413-3.029-26.202-3.846c-15.139-1.405-30.305-1.198-45.479-0.703c-12.715,0.415-25.411,1.714-37.81,4.631
	c-3.179,0.748-6.324,1.709-9.382,2.888c1.064-2.238,2.099-4.497,3.298-6.641C315.66,383.342,319.865,379.012,322.957,374.128z
	 M307.395,303.402c16.953-8.431,35.162-13.733,54.063-14.717c26.029-1.354,52.787,2.789,76.537,13.737
	c9.686,4.465,18.852,10.205,27.02,17.067c4.277,3.592,15.295,12.072,13.548,18.503c-0.061,0.224-0.09,0.427-0.12,0.631
	c-8.902,0.669-17.188,3.7-24.489,9.133c-6.114,4.55-12.293,11.977-15.115,19.864c-7.685-3.079-16.039-4.586-24.081-6.336
	c-10.563-2.297-21.433-3.142-32.224-3.249c-11.059-0.11-22.252,1.085-33.129,3.016c-5.137,0.911-10.289,1.991-15.307,3.421
	c-1.646,0.469-3.377,0.907-5.075,1.444c-1.098-6.28-10.573-12.079-14.784-15.264c-9.82-7.429-21.501-13.325-33.728-15.29
	c-2.329-0.375-4.665-0.535-6.983-0.508C278.099,319.619,293.767,310.18,307.395,303.402z M253.97,347.543
	c4.168-2.907,8.877-4.24,13.71-4.513c0.561,0.219,1.258,0.175,1.95-0.059c3.361,0.003,6.754,0.481,10.044,1.275
	c8.895,2.146,17.081,6.94,24.516,12.13c4.519,3.155,12.756,7.743,14.994,13.387c-5.105,4.15-9.1,10.15-12.65,15.439
	c-1.099,1.636-2.275,3.385-3.409,5.184c-1.786-4.05-4.508-7.915-6.362-10.442c-5.561-7.578-13.119-13.922-21.209-18.643
	c-7.146-4.17-15.914-7.267-24.248-5.691c-3.549,0.671-6.737,2.169-9.545,4.373C244.677,354.97,249.581,350.603,253.97,347.543z
	 M237.51,370.004c8.953-12.382,24.276-6.936,34.919,0.62c6.272,4.452,11.653,10.328,15.949,16.68c1.875,2.772,3.34,5.811,4.459,8.96
	c0.934,2.627,0.306,6.008,2.113,8.1c-0.71,1.111-1.128,2.313-1.035,3.582c0.077,1.036,1.079,1.363,1.96,1.1
	c3.646-1.086,6.745-4.103,10.363-5.597c5.351-2.21,11.18-3.392,16.867-4.341c11.064-1.848,22.385-2.464,33.59-2.57
	c14.225-0.136,28.364,0.157,42.518,1.719c13.04,1.438,27.976,3.333,40.494,8.663c0.22,0.406,0.578,0.78,1.142,1.088
	c2.272,1.246,3.521,2.081,6.21,2.325c0.511,0.046,1.034,0.011,1.558-0.087c3.008,2.302,7.544,0.247,9.568-2.55
	c3.579-4.945,5.374-11.215,8.863-16.354c4.025-5.928,8.906-11.22,14.457-15.739c5.172-4.211,10.799-7.208,17.296-8.773
	c7.669-1.847,14.234,0.831,21.64,1.727c-7.333,13.798-11.744,28.566-16.286,43.607c-4.045,13.396-3.326,30.012-11.42,41.863
	c-1.229,1.8-1.448,3.299-1.053,4.424c-6.762,0.677-13.714,0.513-20.428,0.649c-10.495,0.213-20.991-0.003-31.484-0.213
	c-20.313-0.406-40.626-1.035-60.945-0.896c-20.492,0.141-40.983,0.826-61.477,1.014c-9.878,0.09-19.756,0.274-29.634,0.401
	c-8.059,0.104-16.943-0.726-25.128,0.424c0.632-0.963,1.068-2.126,0.874-3.084c-2.926-14.402-6.892-28.077-12.156-41.807
	c-2.859-7.453-5.844-14.859-8.371-22.435c-2.443-7.321-3.234-14.928-5.334-22.287C237.574,370.136,237.542,370.07,237.51,370.004z
	 M126.085,454.859c-1.525-16.476-0.656-33.513-0.656-50.012c0-9.167-0.002-18.334-0.041-27.502
	c-0.019-4.564-0.047-9.129-0.113-13.693c-0.051-3.476,0.177-7.012-0.633-10.39c0.531-0.578,0.908-1.204,0.99-1.775
	c0.346-2.271,0.201-4.448-0.016-6.72c-0.484-5.052,0.205-10.34,0.502-15.399c0.648-11.067,1.145-22.146,1.482-33.228
	c0.67-21.993,2.066-44.662-0.152-66.581c-0.087-0.85-1.346-0.354-1.406,0.284c-2.098,21.764-1.592,43.867-2.672,65.713
	c-0.551,11.145-1.205,22.285-1.984,33.416c-0.396,5.641-0.529,11.493-1.804,17.014c-0.558,2.416-1.437,5.236-0.813,7.712
	c0.339,1.346,1.307,1.73,2.411,1.563c-1.322,6.948-0.536,14.749-0.652,21.678c-0.152,9.222-0.316,18.443-0.477,27.664
	c-0.292,16.841,0.272,34.124-1.161,50.949c-0.046,0.135-0.085,0.27-0.11,0.405c-0.222,1.207-0.32,2.368-0.31,3.577
	c-2.778,1.724-5.55,3.458-8.264,5.277c-1.992,1.335-4.887,2.847-6.685,4.846c0.29-1.025,0.272-2.138-0.517-2.826
	c-0.092-0.08-0.184-0.159-0.275-0.239c-0.046-0.04-0.095-0.067-0.142-0.104c1.813-3.318,1.484-6.919,0.691-10.782
	c-1.164-5.672-3.002-11.205-4.154-16.887c-3.078-15.161-3.266-30.72-3.398-46.13c-0.283-32.804,2.599-65.38,5.095-98.059
	c2.501-32.744,2.667-65.353,2.396-98.182c-0.032-3.846-0.052-7.693-0.066-11.539c2.682,0.489,5.599,0.07,8.218-0.234
	c5.078-0.59,10.113-1.546,15.162-2.332c0.419-0.065,0.839-0.128,1.258-0.191c-0.111,5.051-0.239,10.1-0.406,15.149
	c-0.148,4.492-0.242,9.012-0.645,13.49c-0.113,1.25-0.319,2.319-0.731,3.473c-0.138,0.133-0.262,0.27-0.349,0.41
	c-0.125,0.201-0.25,0.402-0.375,0.604c-0.446,0.719-1.066,1.842-0.582,2.717c2.239,4.044,6.684,0.426,6.81-3.047
	c0.107-2.945-0.332-5.942-0.195-8.956c0.368-8.128,0.516-16.269,0.617-24.408c3.228-0.393,6.467-0.655,9.724-0.655
	c2.252,0.001,4.668,0.259,6.799,1.02c2.044,0.73,1.943,2.633,4.73,2.382c0.611-0.054,1.197-0.259,1.735-0.558
	c-0.64,25.955-2.372,51.738-4.129,77.663c-1.966,28.996-0.283,57.671,0.519,86.669c0.398,14.417,0.182,28.86-0.45,43.267
	c-0.313,7.17-0.73,14.336-1.096,21.504c-0.199,3.909-0.372,7.818-0.522,11.73c-0.095,2.494-0.035,5.264-0.255,7.948
	c-2.531,1.603-4.455,4.58-3.132,6.85c0.081,0.14,0.248,0.569,0.417,0.988c-0.304,0.192-0.595,0.399-0.857,0.63
	c-0.731,0.64-1.284,1.401-1.696,2.238C138.481,447.745,132.101,451.291,126.085,454.859z M156.238,109.544
	c-2.183,8.341-0.795,17.818-0.481,26.177c0.511,13.627-0.446,27.373-0.675,41.005c-7.445-2.604-15.378-1.916-23.079-0.728
	c0.026-2.422,0.05-4.844,0.078-7.266c0.163-14.391,0.226-28.783,0.255-43.176c0.013-6.602,0.563-13.617,0.156-20.364
	C140.399,106.719,148.231,108.751,156.238,109.544z M110.037,101.965c4.896,0.989,9.915,1.341,14.862,1.976
	c1.224,0.157,2.444,0.343,3.661,0.544c-0.393,5.68-0.058,11.518-0.086,17.139c-0.063,12.677-0.161,25.353-0.313,38.028
	c-0.067,5.667-0.15,11.335-0.256,17.001c-8.264,1.338-16.46,2.613-24.764,3.687c-0.025-10.753-0.009-21.506-0.019-32.258
	c-0.005-6.713,0.195-13.443-0.374-20.138c-0.542-6.37-1.532-12.668-1.534-19.077c0-2.644,0.295-5.262,1.08-7.755
	c0.363-0.359,0.662-0.759,0.892-1.183C105.236,101.08,107.875,101.527,110.037,101.965z M56.698,467.943
	c-6.752,0.306-13.499,0.642-20.261,0.577c-4.885-0.047-9.997-1.422-14.926-1.733c0.092-0.162,0.181-0.332,0.263-0.512
	c1.755-3.814,1.458-8.433,1.158-12.515c-0.438-5.984-1.265-11.916-1.996-17.87c-2.007-16.325-3.28-32.688-3.784-49.129
	c-0.987-32.245,0.838-64.542,1.456-96.781c0.617-32.179,0.57-64.356,1.382-96.534c0.785-31.145,2.984-62.774,1.259-93.923
	c4.906,1.584,10.3,1.932,15.35,2.147c8.442,0.361,16.903-0.136,25.335,0.402c12.201,0.779,23.802,2.003,35.923,0.661
	c-2.353,8.958-0.328,19.155,0.417,28.084c1.257,15.07,0.216,30.599,0.203,45.718c-0.026,32.576,1.148,65.2-0.366,97.754
	c-1.522,32.74-5.147,65.344-6.392,98.1c-0.606,15.955-1.108,31.946-0.238,47.902c0.39,7.143,1.249,14.251,2.572,21.279
	c1.114,5.92,2.851,11.471,2.864,17.559c0.004,1.436,0.052,3.57-0.962,4.358c-1.292,1.004-1.876,2.097-1.968,3.104
	c-0.046,0.003-0.091,0.01-0.137,0.013c-4.263,0.193-8.525,0.389-12.789,0.577C72.942,467.539,64.813,467.576,56.698,467.943z"/>
<path fill="#010101" d="M530.983,274.163c0.063,0.029,0.12,0.068,0.185,0.094c2.221,1.128,5.565-0.986,5.84-3.394
	c0.762-6.678,1.896-13.305,2.058-20.036c0.05-2.052-2.28-2.685-3.87-2.173c-7.955,2.564-16.574,1.261-24.648,3.273
	c-2.222,0.554-4.057,4.359-1.117,5.215c6.904,2.01,14.992,1.313,22.131-0.573c-0.23,3.959-0.737,7.894-1.189,11.837
	c-0.078,0.047-0.152,0.085-0.232,0.135c-1.797,1.114-5.135,0.882-7.158,0.97c-6.617,0.285-13.287-0.457-19.861-1.115
	c-15.822-1.585-31.436-1.527-47.348-1.404c-42.882,0.331-85.721,2.73-128.544,4.834c-0.963-1.839-1.656-3.712-2.285-5.659
	c4.469,0.815,9.147,0.004,13.59-0.646c5.065-0.742,10.738-0.98,15.399-3.157c0.216-0.101,0.419-0.254,0.604-0.436
	c10.026,0.745,20.521-0.648,30.306-1.326c13.378-0.928,26.74-2.075,40.143-2.608c13.289-0.529,26.555-1.521,39.849-1.945
	c6.892-0.221,13.869,0.089,20.745,0.534c3.512,0.227,6.327,1.539,9.688,2.026c3.12,0.451,6.985-2.931,6.058-6.071
	c0.831-0.906,1.383-2.001,1.368-3.159c-0.033-2.594-0.882-4.96-1.038-7.55c-0.217-3.578,0.229-7.315,0.381-10.895
	c0.329-7.758,0.858-15.496,1.02-23.261c0.379-18.216,0.605-36.419,0.449-54.639c-0.15-17.638-0.586-35.272-1.162-52.9
	c-0.299-9.11-0.666-18.215-1.125-27.318c-0.377-7.477-0.278-15.291-1.719-22.694c0.076-0.617-0.039-1.234-0.39-1.812
	c-0.055-0.235-0.094-0.474-0.153-0.708c-0.139-0.555-0.574-0.659-1.043-0.532c-1.104-0.709-2.272-0.487-3.91-0.26
	c-3.269,0.453-6.604,0.376-9.895,0.462c-7.205,0.19-14.407,0.467-21.607,0.774c-13.707,0.585-27.404,1.353-41.102,2.103
	c-13.668,0.75-27.333,1.523-41.004,2.217c-6.504,0.33-13.01,0.604-19.519,0.835c-6.565,0.232-13.604-0.364-20.026,1.067
	c-1.237,0.278-2.309,2.521-0.628,2.948c0.712,0.182,1.441,0.315,2.178,0.426c-0.222,0.157-0.398,0.37-0.421,0.605
	c-1.524,15.955,0.271,32.089,1.768,48.023c1.654,17.602,1.33,35.076,1.037,52.728c-0.285,17.268-0.687,34.533-0.869,51.803
	c-0.092,8.635-0.112,17.271-0.061,25.905c0.046,7.519,0.842,15.192,0.377,22.701c-1.592,0.367-3.148,0.749-4.604,1.004
	c-4.928,0.863-9.959,1.22-14.83,2.354c-0.313,0.073-0.62,0.269-0.885,0.528c-0.625-0.493-1.917,0.482-2.062,1.157
	c-0.846,3.943-0.495,7.476,1.32,11.107c0.391,0.781,0.986,1.011,1.826,1.02c41.835,0.425,83.697-3.133,125.539-3.561
	c16.253-0.166,32.381-0.473,48.551,1.215C509.083,275.275,521.094,277.408,530.983,274.163z M343.606,57.92
	c-0.003-0.055-0.026-0.088-0.038-0.134c4.094,0.433,8.443,0.037,12.452,0.023c6.47-0.023,12.939-0.128,19.408-0.263
	c12.97-0.27,25.939-0.778,38.898-1.388c13.018-0.612,26.035-1.251,39.057-1.78c6.529-0.266,13.059-0.49,19.591-0.679
	c3.271-0.095,6.542-0.169,9.813-0.237c1.803-0.037,8.706-1.04,9.863-0.051c0.934,0.89,2.159,0.994,3.317,0.621
	c-0.276,6.111,0.18,12.299,0.364,18.376c0.273,9.136,0.561,18.27,0.85,27.404c0.579,18.295,0.965,36.596,1.099,54.898
	c0.128,17.581-0.034,35.164-0.522,52.738c-0.221,7.917-0.836,15.805-1.396,23.703c-0.266,3.726-0.575,7.448-0.822,11.176
	c-0.176,2.65-0.973,5.113-1.35,7.681c-1.797-0.246-3.755-0.519-5.231-0.59c-6.301-0.302-12.607-0.257-18.912-0.182
	c-13.297,0.158-26.642,1.652-39.916,2.42c-13.472,0.779-26.865,1.806-40.287,3.225c-12.414,1.312-25.23,1.564-37.614,3.471
	c-0.326-0.016-0.655-0.021-0.986-0.016c0.003-0.118,0.023-0.23,0.013-0.352c-2.585-32.767-1.186-65.939-0.955-98.772
	c0.119-16.912,0.22-33.788-1.422-50.637C347.234,91.67,344.64,74.879,343.606,57.92z"/>
<path fill="#010101" d="M299.684,197.183c0.87,1.553,2.511,1.073,3.718,0.197c4.004-2.907,2.937-10.145,2.506-14.421
	c-0.66-6.537-2.245-12.96-3.101-19.475c-2.078-15.82-0.259-32.177-2.28-48.017c0.836-1.339,0.935-2.857-0.97-3.073
	c-0.039-0.004-0.079-0.005-0.118-0.01c-1.679-2.39-5.431-4.34-7.614-5.85c-4.868-3.367-9.998-6.329-15.196-9.149
	c-8.656-4.698-17.737-9.114-27.047-12.499c0.05-0.557,0.078-1.129,0.219-1.665c0.262-1.002-0.118-2.195-1.07-2.69
	c-1.716-0.892-3.869-0.876-5.516,0.21c-1.474,0.973-2.39,2.104-2.93,3.791c-0.223,0.695-0.205,1.581,0.104,2.306
	c-2.95,1.369-5.686,3.363-8.503,4.977c-4.354,2.496-8.678,5.045-12.997,7.602c-8.251,4.886-16.796,9.556-24.558,15.205
	c-0.122,0.089-0.189,0.19-0.225,0.291c-1.002,0.122-2,0.26-2.986,0.436c-0.718,0.128-1.705,1.393-0.584,1.705
	c0.6,0.168,1.211,0.313,1.825,0.449c-2.394,5.123-2.681,11.056-2.866,16.627c-0.256,7.64,0.357,15.3,0.835,22.919
	c0.907,14.476-2.332,30.544,2.563,44.456c0.274,0.78,1.094,1.074,1.853,1.034c18.797-1.007,37.54-1.554,56.363-1.691
	c9.354-0.068,18.761-0.492,28.044,0.92c4.911,0.748,9.868,1.923,14.813,2.358c3.432,0.302,6.197-5.37,1.882-5.499
	c-5.063-0.151-10.214-1.416-15.214-2.16c-8.721-1.298-17.68-0.918-26.461-0.777c-19.019,0.305-38.012,0.415-56.981,1.979
	c-4.734-12.634-2.852-26.986-3.715-40.213c-0.882-13.512-1.188-26.227,0.518-39.63c6.997,1.233,14.704,0.748,21.623,0.819
	c9.105,0.094,18.224-0.138,27.328-0.316c9.156-0.181,18.311-0.433,27.466-0.638c4.575-0.102,9.151-0.182,13.728-0.244
	c4.531-0.063,9.164,0.62,13.645,0.133c0.172-0.019,0.349-0.073,0.528-0.141c-0.841,6.61-0.485,13.48-0.476,20.079
	c0.013,8.235-0.188,16.621,0.347,24.838c0.393,6.047,1.539,12.039,2.045,18.082c0.282,3.369,0.392,6.79,0.052,10.158
	C300.064,192.726,298.568,195.191,299.684,197.183z M273.379,112.959c-9.17,0.222-18.338,0.515-27.506,0.806
	c-9.134,0.289-18.27,0.529-27.406,0.652c-7.22,0.097-14.82-0.362-22.125,0.274c7.534-3.572,14.675-8.1,21.879-12.26
	c3.901-2.253,7.813-4.49,11.728-6.719c3.925-2.235,8.433-4.041,12.087-6.633c0.228-0.162,0.424-0.396,0.578-0.661
	c0.193,0.023,0.397,0.029,0.619,0.011c0.387-0.031,0.79-0.134,1.185-0.282c0.219,0.06,0.439,0.12,0.665,0.176
	c1.324,0.328,2.991-0.572,3.875-1.793c8.432,3.792,16.716,7.885,24.781,12.418c4.89,2.748,9.704,5.615,14.33,8.791
	c1.932,1.327,3.766,2.79,5.528,4.332c0.091,0.079,0.171,0.165,0.256,0.247c-2.25,0.12-4.507,0.333-6.739,0.364
	C282.535,112.745,277.958,112.849,273.379,112.959z"/>
<path fill="#010101" d="M223.534,130.607c8.965-0.393,17.879-1.59,26.823-2.277c6.669-0.513,13.336-0.874,20.007-1.433
	c3.331-0.278,6.909-0.696,10.23-0.165c2.524,0.404,4.174,2.663,6.762,1.654c1.029-0.402,2.213-1.304,2.355-2.504
	c0.016-0.135,0.031-0.271,0.047-0.406c0.164-1.379-0.301-2.336-1.676-2.742c-5.026-1.488-11.723-0.395-16.842,0.072
	c-6.217,0.565-12.4,1.139-18.623,1.604c-8.393,0.629-16.73,1.844-25.119,2.52c-8.416,0.678-16.775,0.226-25.184-0.183
	c-0.039-0.002-0.083,0.009-0.126,0.017c-0.017-0.069-0.025-0.14-0.043-0.208c-0.386-1.517-2.502-0.006-2.709,0.873
	c-1.071,4.565-0.912,9.438-1.179,14.104c-0.326,5.721-0.635,11.441-0.741,17.172c-0.102,5.438-0.076,10.866,0.492,16.279
	c0.317,3.027,0.541,9.142,3.738,10.531c1.551,0.674,3.49-0.6,3.799-2.208c0.66-3.442-1.916-7.724-2.541-11.202
	c-0.959-5.336-1.108-10.838-1.088-16.244c0.02-5.221,0.26-10.44,0.481-15.655c0.166-3.905,0.704-8.031,0.097-11.933
	C208.911,131.432,216.52,130.915,223.534,130.607z"/>
<path fill="#010101" d="M291.086,177.415c-0.163-8.097-0.083-16.197-0.282-24.293c-0.076-3.101,0.314-25.209-1.747-25.064
	c0.133-0.01,0.231-0.248,0.052-0.246c-4.962,0.064-2.873,19.875-2.906,23.026c-0.093,8.896-0.198,17.796-0.326,26.692
	c-0.024,1.703-0.238,3.586-0.365,5.459c-1.623,0.083-3.22,0.265-4.946,0.072c-3.073-0.342-6.204-0.22-9.286-0.147
	c-7.096,0.166-14.162,0.851-21.266,0.976c-7.72,0.137-15.436,0.422-23.151,0.68c-7.661,0.257-16.27-0.568-23.625,1.815
	c-0.476,0.152-1.382,1.262-0.55,1.591c5.815,2.297,13.19,1.344,19.328,1.318c7.668-0.031,15.336-0.055,23.004-0.031
	c7.196,0.023,14.313-0.14,21.5-0.487c3.758-0.182,7.47-0.153,11.208,0.301c1.25,0.152,2.458,0.548,3.672,0.892
	c0.253,0.417,0.685,0.716,1.357,0.785c1.229,0.125,2.207,0.17,3.375-0.29c0.289-0.114,0.587-0.262,0.883-0.426
	c1.766,0.542,4.504-1.25,4.265-3.298C291.675,183.763,291.147,180.381,291.086,177.415z"/>
<path fill="#010101" d="M380.295,124.153c4.535-4.415,7.834-10.271,11.465-15.429c4.242-6.024,8.727-11.979,13.824-17.309
	c0.782-0.816-0.077-1.857-0.906-1.035c-5.025,4.979-9.59,10.253-13.873,15.885c-4.091,5.381-8.895,11.059-11.756,17.205
	C378.639,124.352,379.711,124.72,380.295,124.153z"/>
<path fill="#010101" d="M371.176,149.005c4.357-4.429,7.467-10.287,11.217-15.248c4.816-6.372,10.109-12.369,15.574-18.189
	c9.795-10.435,20.525-20.145,31.704-29.076c0.937-0.748-0.003-1.762-0.931-1.063c-11.97,9.012-23.255,18.704-33.724,29.437
	c-4.996,5.123-9.699,10.54-14.176,16.121c-4.111,5.125-9.41,11.028-11.375,17.408C369.131,149.477,370.62,149.569,371.176,149.005z"
	/>
<path fill="#010101" d="M404.409,209.899c-0.35,0.807,0.622,1.213,1.164,0.638c3.957-4.201,7.291-8.948,10.98-13.384
	c4.676-5.622,9.713-10.931,14.813-16.167c9.359-9.606,18.701-19.135,27.55-29.217c0.903-1.029-0.632-1.617-1.397-0.754
	c-9.112,10.281-19.425,19.501-29.07,29.271C419.885,188.96,409.323,198.555,404.409,209.899z"/>
<path fill="#010101" d="M437.124,192.532c-7.783,6.38-16.195,12.171-23.376,19.238c-0.911,0.896-0.302,2.521,1.002,1.671
	c17.298-11.271,33.958-25.58,47.462-41.188c1.177-1.362-0.817-2.071-1.817-0.982C453.276,179.018,445.247,185.872,437.124,192.532z"
	/>
<path fill="#010101" d="M293.287,53.902c2.657-2.33,4.008-5.4,4.273-8.888c0.099-1.301-1.483-1.67-2.434-1.366
	c-1.285,0.411-2.117,1.537-2.205,2.854c-0.08,1.195-0.419,2.259-0.933,3.251c-1.528-1.229-2.889-2.82-3.635-4.556
	c-0.517-1.201-2.452-0.033-2.299,1.016c0.474,3.246,2.075,5.645,4.399,7.918C291.269,54.931,292.51,54.583,293.287,53.902z"/>
<path fill="#010101" d="M159.639,56.441c-1.969,1.073-2.963,3.104-3.971,5.037c-1.036,1.985-2.12,3.924-3.339,5.789
	c-2.365-1.361-4.077-3.518-5.196-6.098c-0.642-1.481-2.91,0.134-2.523,1.436c1.137,3.816,3.093,7.156,6.667,9.135
	c1.069,0.592,2.265-0.201,2.954-0.981c1.848-2.086,3.284-4.405,4.651-6.823c1.073-1.899,3.065-4.547,2.599-6.822
	C161.29,56.178,160.423,56.013,159.639,56.441z"/>
<path fill="#010101" d="M244.252,242.974c-2.458,1.555-4.059,4.408-5.447,7.185c-2.224-2.371-4.229-4.935-6.48-7.29
	c-1.193-1.246-3.431,0.849-2.537,2.228c2.321,3.583,4.656,7.141,7.47,10.364c0.932,1.067,2.809,0.278,3.457-0.718
	c1.949-2.998,5.388-7.431,5.188-11.166C245.858,242.724,244.853,242.594,244.252,242.974z"/>
<path fill="#010101" d="M179.763,333.932c1.286,1.379,3.251-0.081,3.952-1.296c1.134-1.961,1.975-4.098,2.933-6.148
	c0.843-1.804,1.933-3.502,2.429-5.443c0.203-0.795-0.587-1.299-1.291-1.042c-3.457,1.26-5.346,4.837-6.768,8.319
	c-2.473-2.58-4.263-5.818-6.323-8.709c-0.724-1.016-2.819,0.582-2.231,1.59C174.942,325.457,176.34,330.264,179.763,333.932z"/>
<path fill="#010101" d="M294.163,275.459c-2.602,1.357-3.426,4.542-5.809,6.205c-2.557,1.784-5.507-1.618-6.721-3.542
	c-0.754-1.196-3.216,0.659-2.55,1.821c2.063,3.605,4.219,7.635,9.07,6.332c3.564-0.957,8.975-6.575,7.971-10.421
	C295.897,274.986,294.733,275.162,294.163,275.459z"/>
<path fill="#010101" d="M177.256,216.666c3.165,0.904,6.32-1.602,7.384-4.413c1.077-2.847-2.26-3.063-3.725-1.296
	c-0.945,1.143-1.529,1.536-3.088,1.211c-1.798-0.375-3.664-1.646-5.094-2.752c-1.083-0.838-2.991,1.203-2.119,2.275
	C172.456,213.956,174.379,215.844,177.256,216.666z"/>
<path fill="#010101" d="M320.447,139.773c-0.661,4.339,0.631,8.953,5.915,8.377c2.226-0.243,4.356-1.554,5.955-3.057
	c1.559-1.467,3.703-4.318,2.383-6.46c-0.305-0.495-1.211-0.348-1.601-0.086c-2.333,1.566-3.187,4.474-6.035,5.426
	c-3.13,1.046-4.017-2.307-3.888-4.751C323.262,137.571,320.628,138.582,320.447,139.773z"/>
<path fill="#010101" d="M219.805,26.261c1.742-0.213,3.289-1.368,4.247-2.796c0.821-1.223,1.658-3.912-0.12-4.741
	c-0.6-0.279-1.148-0.012-1.641,0.341c-0.91,0.651-1.41,1.749-1.943,2.708c-0.039,0.071-0.072,0.127-0.1,0.175
	c-0.138,0.04-0.296,0.064-0.463,0.074c-1.701,0.104-3.585-1.583-4.753-2.599c-1.092-0.951-3.325,0.535-2.691,1.921
	C213.651,24.2,216.484,26.668,219.805,26.261z"/>
<path fill="#010101" d="M88.993,22.677c-3.067-1.31-3.538,3.822-5.817,4.557c-3.354,1.081-7.283-2.017-9.484-4.122
	c-1.256-1.204-3.445,0.833-2.555,2.241c2.102,3.328,5.998,6.18,10.035,6.31c4.039,0.13,8.961-3.44,8.503-7.864
	C89.63,23.363,89.433,22.865,88.993,22.677z"/>
<path fill="#010101" d="M38.358,65.219c-1.951,2.313-3.035,5.02-5.445,6.99c-2.879,2.354-4.75-2.174-5.382-4.338
	c-0.458-1.569-3.092-0.02-2.892,1.279c0.713,4.605,2.517,9.296,8.038,7.769c4.129-1.144,9.059-6.745,9.638-10.954
	C42.69,63.246,39.563,63.792,38.358,65.219z"/>
<path fill="#010101" d="M421.013,31.775c2.487-0.703,4.673-2.447,6.694-3.982c1.896-1.44,4.309-3.084,5.57-5.146
	c0.482-0.786,1.705-3.003-0.377-2.807c-2.221,0.209-3.986,1.851-5.602,3.241c-2.068,1.781-4.107,3.553-6.507,4.881
	c-3.084,1.708-3.921-2.238-4.534-4.443c-0.421-1.523-2.522,0.123-2.559,1.133C413.514,29.509,415.834,33.24,421.013,31.775z"/>
<path fill="#010101" d="M532.557,43.342c3.285-0.711,10.743-4.836,9.459-8.969c-0.164-0.529-0.814-0.82-1.332-0.743
	c-2.968,0.439-4.344,3.611-6.865,5.064c-3.668,2.114-7.212-0.549-9.127-3.649c-0.658-1.065-2.718,0.548-2.23,1.591
	C524.441,40.867,527.424,44.452,532.557,43.342z"/>
<path fill="#010101" d="M539.891,157.218c0.428-1.16,1.106-5.359-1.489-4.529c-2.657,0.849-3.378,4.639-4.562,6.805
	c-0.594,1.086-1.985,3.074-3.459,2.945c-2.408-0.211-3.014-4.144-3.914-5.775c-0.795-1.442-3.031-0.358-3.207,1.033
	c-0.545,4.313,1.709,9.651,6.684,9.445C534.867,166.937,538.399,161.257,539.891,157.218z"/>
<path fill="#010101" d="M535.873,309.049c-3.434-1.66-4.917-5.883-4.976-9.434c-0.036-2.261-3.252-0.532-3.384,1.086
	c-0.416,5.111,1.767,11.365,7,13.24c5.289,1.894,11.569-3.285,11.495-8.731c-0.033-2.324-3.082-1.312-3.932-0.191
	C540.211,307.477,539.585,310.844,535.873,309.049z"/>
<path fill="#010101" d="M467.105,283.001c-3.51,3.904-8.768,4.885-12.025,0.067c-0.81-1.197-3.051,0.623-2.531,1.807
	c1.59,3.623,4.22,5.638,8.188,5.778c3.739,0.133,8.11-2.602,10.11-5.63C472.912,281.899,469.152,280.723,467.105,283.001z"/>
<path fill="#010101" d="M555.553,367.611c-1-0.201-2.001-0.383-2.994-0.617c-1.015-0.238-2.272-0.441-3.215-0.877
	c-1.183-0.547-3.51,1.383-2.272,2.437c2.095,1.785,5.636,4.712,8.483,2.936c0.723-0.451,1.857-1.705,1.293-2.671
	c-0.055-0.075-0.091-0.16-0.106-0.253C556.583,368.045,556.055,367.712,555.553,367.611z"/>
<path fill="#010101" d="M222.512,376.44c-0.31,0.599-0.531,1.201-0.787,1.822c-0.001,0.002-0.001,0.002-0.002,0.004
	c-1.096,0.141-2.315-0.384-3.287-0.791c-2.318-0.971-4.378-2.461-6.664-3.441c-1.334-0.572-3.634,1.297-2.457,2.636
	c2.408,2.738,5.976,5.372,9.484,6.397c4.248,1.242,8.693-2.751,8.463-7.012C227.103,373.088,223.313,374.888,222.512,376.44z
	 M221.674,378.377C221.572,378.598,221.581,378.49,221.674,378.377L221.674,378.377z"/>
<path fill="#010101" d="M330.3,214.615c-0.913-1.689-3.827-0.128-3.505,1.55c0.21,1.094,0.299,2.115,0.813,3.13
	c0.64,1.259,1.41,2.432,2.52,3.306c0.61,0.481,1.711,0.138,2.291-0.186c0.42-0.234,0.785-0.523,1.057-0.927
	c0.596-0.888,0.805-1.77,0.207-2.703c-0.49-0.768-1.209-1.393-1.779-2.107C331.398,216.042,330.681,215.324,330.3,214.615z"/>
<path fill="#010101" d="M172.535,258.74c0.591,0.862,1.495,2.081,2.501,2.443c0.966,0.349,1.892,0.128,2.671-0.556
	c0.852-0.747,1.366-2.001,0.644-3c-0.284-0.393-0.701-0.617-1.065-0.924c-0.409-0.346-0.78-0.736-1.136-1.135
	c-0.516-0.578-1.162-1.174-1.585-1.818c-0.435-0.663-1.54-0.424-2.088-0.111c-0.793,0.452-1.552,1.497-1.186,2.449
	C171.598,256.888,171.95,257.887,172.535,258.74z"/>
<path fill="#010101" d="M16.052,23.318c-1.217-0.983-2.924-0.7-4.395-1.047c-1.676-0.395-3.154-1.607-3.838-3.188
	c-0.733-1.698-3.383,0.153-2.906,1.657c0.719,2.275,1.996,3.884,4.225,4.838c2.064,0.884,4.804,0.995,6.552-0.57
	C16.056,24.68,16.595,23.755,16.052,23.318z"/>
</svg>
