<?xml version="1.0" encoding="UTF-8" standalone="no"?><!DOCTYPE svg PUBLIC "-//W3C//DTD SVG 1.1//EN" "http://www.w3.org/Graphics/SVG/1.1/DTD/svg11.dtd"><svg width="100%" height="100%" viewBox="0 0 509 471" version="1.1" xmlns="http://www.w3.org/2000/svg" xmlns:xlink="http://www.w3.org/1999/xlink" xml:space="preserve" style="fill-rule:evenodd;clip-rule:evenodd;stroke-linejoin:round;stroke-miterlimit:1.41421;"><g id="salt"><path d="M435.921,197.424c-9.056,-12.854 -25.667,1.453 -32.799,8.994c-11.021,11.65 -19.876,25.282 -27.857,39.138c-2.05,3.559 -4.53,7.843 -7.029,13.031c-3.265,6.776 -6.132,13.749 -8.682,20.822c-5.806,16.103 -10.511,32.964 -11.051,50.166c-0.405,12.905 3.097,28.282 16.599,33.233c19.099,7.003 39.298,-5.609 52.666,-18.338c15.938,-15.173 28.189,-34.55 37.57,-54.339c7.221,-15.231 12.667,-31.583 14.794,-48.341c1.811,-14.264 1.589,-30.847 -7.946,-42.55c-11.161,-13.697 -33.067,-12.603 -47.041,-4.571c-3.571,2.053 -5.027,8.254 0.471,8.372c14.215,0.308 30.708,-3.838 38.077,11.542c6.399,13.354 3.478,30.381 0.109,44.134c-4.145,16.919 -11.63,33.235 -20.68,48.069c-10.296,16.876 -24.365,36.597 -43.736,43.619c-6.593,2.391 -14.168,2.8 -20.268,-1.025c-4.322,-2.712 -6.581,-8.462 -7.46,-13.498c-2.722,-15.599 1.784,-32.417 6.287,-47.249c8,-26.354 21.071,-51.717 37.906,-73.529c5.586,-7.238 15.838,-20.417 25.905,-13.212c2.269,1.623 5.694,-2.298 4.165,-4.468Z" style="fill-rule:nonzero;"/><path d="M303.388,332.403c7.396,6.797 18.256,10.266 27.282,14.37c5.056,2.298 10.098,4.627 15.166,6.899c4.732,2.121 9.856,4.835 15,5.648c5.307,0.838 12.848,-7.372 6.846,-11.25c-4.417,-2.854 -10.255,-4.286 -15.17,-6.179c-5.26,-2.025 -10.493,-4.117 -15.742,-6.169c-9.612,-3.759 -20.114,-8.372 -30.631,-7.789c-1.632,0.092 -4.515,2.849 -2.751,4.47Z" style="fill-rule:nonzero;"/><path d="M383.426,173.307c4.428,3.253 10.745,4.891 15.847,6.859c7.317,2.825 14.516,5.955 21.537,9.45c6.78,3.375 13.425,7.023 19.712,11.255c4.361,2.936 13.848,9.845 17.239,1.371c2.878,-7.193 -5.142,-11.422 -10.277,-14.609c-6.574,-4.081 -13.56,-7.507 -20.66,-10.563c-11.86,-5.104 -28.276,-12.77 -41.481,-9.336c-2.284,0.595 -4.182,3.907 -1.917,5.573Z" style="fill-rule:nonzero;"/><path d="M392.026,168.578c-6.972,-4.381 -16.672,-0.605 -23.086,2.979c-8.983,5.019 -16.49,12.9 -23.104,20.641c-11.464,13.413 -20.498,28.444 -27.923,44.418c-8.237,17.72 -14.672,36.756 -17.225,56.177c-1.173,8.917 -1.44,17.972 -0.004,26.87c0.631,3.905 1.548,7.841 3.04,11.512c1.814,4.464 5.01,6.733 9.234,8.772c3.31,1.598 7.351,-2.292 6.433,-5.645c-0.973,-3.556 -1.247,-7.157 -2.465,-10.653c-1.096,-3.147 -1.93,-6.351 -2.451,-9.641c-1.234,-7.793 -0.967,-15.848 0.003,-23.65c2.106,-16.945 7.599,-33.408 14.402,-49.002c5.965,-13.67 13.26,-26.551 22.214,-38.476c5.114,-6.812 10.624,-13.387 17.049,-19.003c6.732,-5.886 14.232,-8.748 22.56,-11.449c1.407,-0.457 3.068,-2.755 1.323,-3.85Z" style="fill-rule:nonzero;"/><path d="M343.564,286.387c2.806,-9.585 4.277,-19.243 7.971,-28.6c4.012,-10.165 9.257,-19.916 15.335,-28.985c6.007,-8.962 13.028,-17.243 21.081,-24.428c3.515,-3.136 7.271,-5.948 11.267,-8.439c4.137,-2.579 8.714,-4.067 12.928,-6.418c3.335,-1.86 5.583,-9.917 -0.502,-8.938c-10.42,1.676 -20.516,9.843 -28.187,16.636c-9.103,8.061 -16.834,17.705 -23.384,27.914c-6.488,10.111 -11.672,20.893 -15.313,32.343c-2.81,8.838 -6.089,20.365 -3.106,29.531c0.348,1.069 1.729,-0.002 1.91,-0.616Z" style="fill-rule:nonzero;"/><path d="M358.315,208.729c-9.804,4.861 -16.316,14.101 -22.342,23.009c-7.473,11.046 -12.709,23.513 -16.787,36.153c-7.376,22.865 -11.058,50.922 -0.701,73.487c2.51,5.467 10.977,0.158 10.47,-4.631c-0.211,-1.995 -0.444,-3.819 -2.064,-5.173c-1.995,-1.668 -4.796,-0.69 -6.243,1.297c-1.377,1.893 -2.068,3.688 -2.3,6.02c3.453,-1.113 6.906,-2.227 10.36,-3.339c-9.354,-20.381 -6.012,-44.865 -0.515,-65.827c3.048,-11.62 7.546,-22.849 13.003,-33.539c4.883,-9.566 11.508,-17.957 18.094,-26.346c0.629,-0.8 -0.141,-1.525 -0.975,-1.111Z" style="fill-rule:nonzero;"/><path d="M433.207,225.929c-1.132,-1.606 -3.613,-0.371 -4.868,0.396c-2.699,1.647 -4.623,4.453 -5.944,7.259c-1.959,4.163 -1.868,9.36 0.556,13.314c3.271,5.337 9.188,0.254 11.361,-3.291c2.662,-4.338 5.16,-10.345 4.391,-15.554c-1.143,-7.738 -10.022,-3.353 -12.881,0.34c-0.555,0.717 -0.748,1.375 -0.995,2.216c-0.252,0.859 0.501,1.748 1.398,1.593c1.508,-0.26 2.518,-0.844 3.846,-1.581c0.129,-0.071 1.204,-0.674 0.841,-0.525c0.84,-0.364 1.026,-0.448 0.56,-0.253c2.633,-1.155 -0.32,0.08 0.769,-0.315c0.644,-0.234 0.259,-0.068 0.15,-0.118c0.145,0.066 -0.235,-0.341 0.198,0.216c-0.431,-0.553 0.038,0.152 0.122,0.409c0.119,0.358 -0.021,-0.334 0.073,0.38c0.053,0.402 0.059,0.812 0.059,1.216c0.001,0.834 -0.081,1.299 -0.286,2.389c-0.39,2.085 -0.906,3.587 -1.709,5.431c-0.845,1.94 -1.273,2.729 -2.604,4.282c0.566,-0.663 -0.1,0.069 -0.246,0.197c0.063,-0.055 -0.195,0.105 0.219,-0.071c-0.543,0.231 -0.023,0.028 0.202,0.049c-0.122,-0.011 0.155,0.159 -0.385,-0.181c0.43,0.271 -0.202,-0.242 -0.3,-0.357c-0.279,-0.329 -0.362,-0.511 -0.563,-0.914c-0.695,-1.395 -1.105,-2.913 -1.195,-4.463c-0.151,-2.598 1.078,-5.146 2.599,-7.163c1.218,-1.617 2.981,-2.539 4.421,-3.908c0.273,-0.263 0.452,-0.651 0.211,-0.993Z" style="fill-rule:nonzero;"/><path d="M397.885,272.119c-3.049,0.188 -5.86,3.873 -7.427,6.149c-2.108,3.065 -3.916,7.168 -3.128,10.953c0.689,3.309 3.98,6.151 7.459,5.972c3.763,-0.193 6.699,-2.738 8.93,-5.57c4.641,-5.896 6.896,-15.054 0.248,-20.286c-3.285,-2.586 -7.935,-0.365 -10.743,1.72c-3.124,2.319 -5.054,6.396 -3.991,10.187c0.402,1.435 2.246,0.119 2.643,-0.539c1.865,-3.092 5.717,-9.158 9.207,-4.746c2.622,3.314 0.312,8.329 -1.768,11.285c-0.899,1.279 -2.083,2.618 -3.76,2.297c-2.223,-0.425 -3.209,-2.756 -3.012,-4.759c0.434,-4.396 3.566,-7.487 6.104,-10.747c0.6,-0.771 0.381,-1.986 -0.762,-1.916Z" style="fill-rule:nonzero;"/><path d="M431.807,274.483c-1.914,0.196 -3.527,1.979 -4.714,3.346c-2.038,2.348 -3.786,4.893 -4.864,7.824c-1.342,3.647 -0.666,7.628 2.11,10.448c4.832,4.907 9.451,-2.738 10.731,-6.735c1.556,-4.856 2.195,-11.075 0.607,-16.002c-2.299,-7.132 -10.238,-1.791 -12.496,2.469c-1.367,2.576 -1.928,3.326 -2.127,6.127c-0.1,1.398 1.769,0.957 2.384,0.467c0.864,-0.689 1.526,-1.286 2.228,-2.152c-0.685,0.846 1.221,-1.199 1.542,-1.627c0.871,-1.16 1.563,-1.858 2.376,-2.589c0.813,-0.731 -0.303,0.074 0.508,-0.401c0.388,-0.227 -0.646,0.145 -0.34,0.121c-0.66,0.051 -0.822,-0.502 -0.25,0.28c-0.438,-0.597 0.098,0.255 0.184,0.47c0.145,0.363 0.244,0.743 0.338,1.122c0.005,0.019 0.221,1.69 0.26,2.353c0.131,2.195 -0.021,4.033 -0.344,6.114c-0.324,2.092 -0.761,3.858 -1.414,5.334c-0.091,0.205 -0.746,1.327 -0.237,0.525c-0.507,0.799 -0.021,0.144 -0.145,0.262c0.192,-0.187 1.085,-0.44 1.406,-0.308c-0.517,-0.215 -0.72,-0.524 -1.304,-1.355c-0.721,-1.027 -1.406,-2.168 -1.295,-3.466c0.389,-4.559 3.674,-7.618 5.561,-11.473c0.271,-0.553 -0.032,-1.223 -0.705,-1.154Z" style="fill-rule:nonzero;"/><path d="M399.319,309.74c-9.289,4.231 -19.805,21.321 -10.547,29.823c6.371,5.85 11.428,-3.116 12.401,-8.621c1.11,-6.281 1.407,-15.267 -2.394,-20.769c-1.95,-2.823 -5.369,-1.791 -7.664,-0.129c-3.488,2.525 -5.029,7.808 -4.948,11.879c0.029,1.497 1.946,0.81 2.501,0.122c1.961,-2.434 3.506,-5.165 5.436,-7.631c0.711,-0.908 0.184,0.154 -0.742,-0.006c-0.447,-0.078 0.064,0.14 0.314,0.588c2.219,3.987 2.061,9.606 1.791,14c-0.124,2.02 -0.445,4.211 -1.202,6.099c-0.246,0.614 -0.989,1.256 -0.176,0.714c0.659,-0.439 0.692,0.049 -0.244,-0.483c-9.079,-5.161 1.187,-19.757 6.249,-24.293c0.811,-0.726 0.249,-1.76 -0.775,-1.293Z" style="fill-rule:nonzero;"/><path d="M94.462,23.512c2.145,0.051 4.135,-1.197 6.063,-1.996c2.818,-1.167 5.648,-2.313 8.507,-3.377c6.782,-2.526 13.717,-4.727 20.841,-6.052c7.083,-1.318 14.383,-1.881 21.517,-0.689c3.198,0.534 6.151,1.604 8.982,3.169c3.006,1.662 4.802,3.574 8.458,3.473c1.872,-0.051 4.207,-1.943 4.409,-3.869c0.811,-7.734 -8.753,-10.911 -14.87,-12.492c-8.065,-2.085 -16.941,-1.441 -25.059,-0.063c-8.083,1.372 -16.157,3.605 -23.735,6.745c-5.798,2.402 -14.274,5.401 -17.571,11.131c-1.205,2.094 0.319,3.969 2.458,4.02Z" style="fill-rule:nonzero;"/><path d="M95.748,18.205c-18.405,4.996 -32.091,21.693 -43.114,36.314c-12.885,17.089 -25.05,35.371 -34.964,54.343c-9.823,18.799 -16.456,39.2 -17.448,60.472c-0.488,10.442 0.919,20.839 3.422,30.958c1.448,5.854 3.527,11.532 5.877,17.076c1.166,2.752 3.717,4.631 5.182,7.086c1.133,1.898 2.02,3.594 3.521,5.234c1.48,1.616 4.239,-0.304 4.547,-2.038c1.69,-9.558 -4.711,-19.246 -7.512,-28.081c-3.118,-9.839 -4.439,-20.109 -4.439,-30.408c0.002,-19.995 6.762,-39.332 15.635,-57.002c8.971,-17.863 20.653,-34.512 32.203,-50.788c10.896,-15.356 23.502,-28.133 38.557,-39.396c1.932,-1.448 1.122,-4.473 -1.467,-3.77Z" style="fill-rule:nonzero;"/><path d="M172.906,43.737c-38.026,-25.843 -83.605,5.867 -107.475,35.968c-27.771,35.02 -44.352,83.916 -27.024,127.224c5.008,12.518 12.818,25.197 22.785,34.365c9.416,8.662 21.094,14.404 32.951,18.912c24.229,9.208 49.979,14.172 75.127,20.074c2.55,0.599 6.182,-3.714 3.291,-5.407c-18.548,-10.864 -40.795,-13.948 -61.139,-20.217c-10.559,-3.253 -20.902,-7.31 -30.452,-12.904c-9.573,-5.607 -16.728,-13.087 -22.95,-22.181c-14.407,-21.06 -19.772,-46.621 -15.189,-71.716c3.867,-21.171 13.555,-41.336 25.985,-58.771c11.684,-16.389 26.675,-30.798 44.995,-39.469c18.276,-8.65 37.932,-7.809 56.9,-2.273c1.766,0.515 3.98,-2.392 2.195,-3.605Z" style="fill-rule:nonzero;"/><path d="M208.914,73.367c13.571,6.937 26.22,16.04 38.699,24.751c6.364,4.441 12.75,8.852 19.296,13.024c6.895,4.396 14.555,7.736 21.738,11.653c14.393,7.85 28.713,15.969 42.172,25.345c5.095,3.55 9.665,7.204 13.42,12.14c1.262,1.657 2.471,3.384 3.518,5.185c0.433,0.744 0.797,1.519 1.144,2.306c1.281,2.904 8.257,-4.988 4.7,-4.99c-3.801,-0.001 -8.539,6.362 -4.236,8.952c4.953,2.979 10.141,-1.839 10.438,-6.829c0.266,-4.475 -4.794,-10.048 -7.285,-13.306c-4.355,-5.695 -10.481,-9.628 -16.41,-13.534c-8.461,-5.572 -17.406,-10.281 -26.342,-15.033c-17.164,-9.126 -34.925,-16.908 -51.586,-26.945c-15.611,-9.403 -30.73,-18.805 -48.121,-24.598c-0.881,-0.294 -2.155,1.362 -1.145,1.879Z" style="fill-rule:nonzero;"/><path d="M187.081,283.146c8.133,4.667 16.115,9.347 24.557,13.557c10.649,5.312 21.184,10.979 32.086,15.761c9.819,4.306 20.062,8.133 30.629,10.107c7.959,1.488 19.664,2.808 26.781,-2.088c2.912,-2.002 5.838,-9.721 -0.498,-8.864c-3.534,0.478 -6.732,1.624 -10.343,1.8c-4.496,0.219 -9.012,-0.521 -13.407,-1.385c-10.544,-2.074 -20.652,-5.646 -30.768,-9.192c-19.424,-6.813 -37.904,-17.313 -58.174,-21.114c-0.657,-0.124 -1.642,0.971 -0.863,1.418Z" style="fill-rule:nonzero;"/><path d="M28.774,237.934c2.837,10.688 14.402,19.116 23.095,25.092c10.47,7.197 21.611,13.48 33.048,19.002c28.005,13.52 57.29,24.125 86.551,34.553c33.33,11.878 66.496,24.509 100.842,33.236c9.948,2.527 20.156,4.942 30.452,5.35c3.175,0.126 6.461,0.02 9.486,-1.059c2.224,-0.793 3.775,-2.071 5.358,-3.773c0.511,-0.549 0.865,-1.279 1.203,-1.937c0.127,-0.251 1.009,-4.127 0.666,-2.328c1.299,-6.813 -8.761,-4.435 -9.758,0.791c0.26,-1.359 1.754,-2.417 1.592,-2.335c0.824,-0.417 -0.936,0.223 -0.234,0.089c-2.233,0.425 -4.576,0.353 -6.832,0.183c-7.157,-0.543 -14.256,-2.105 -21.232,-3.723c-16.709,-3.875 -33.154,-8.943 -49.456,-14.249c-16.297,-5.304 -31.856,-11.049 -48.23,-16.804c-29.426,-10.34 -58.922,-20.595 -87.57,-32.97c-12.537,-5.416 -24.813,-11.562 -36.623,-18.425c-5.818,-3.381 -11.526,-7.046 -16.993,-10.969c-4.819,-3.458 -9.029,-7.684 -13.97,-10.947c-0.694,-0.457 -1.569,0.568 -1.395,1.223Z" style="fill-rule:nonzero;"/><path d="M41.045,174.826c6.985,8.825 17.689,14.599 27.902,18.954c10.759,4.588 22.05,7.714 33.51,9.963c24.273,4.763 49.344,4.907 73.971,3.855c50.15,-2.143 100.483,-12.031 150.77,-8.419c5.008,0.359 10.004,0.877 14.999,1.376c0.256,-3.119 0.511,-6.239 0.767,-9.359c-1.475,0.771 -3.008,1.644 -4.589,2.179c-2.872,0.974 -7.085,7.678 -1.792,8.362c3.694,0.479 6.313,-0.48 9.646,-2.002c3.096,-1.414 6.112,-8.826 0.767,-9.359c-25.927,-2.587 -51.533,-2.369 -77.489,-0.401c-25.207,1.91 -50.331,4.79 -75.556,6.496c-25.124,1.7 -50.319,2.105 -75.36,-0.903c-23.99,-2.882 -46.342,-10.373 -67.973,-20.965c-2.225,-1.09 -4.486,-1.888 -6.796,-2.755c-1.544,-0.581 -4.045,1.374 -2.777,2.978Z" style="fill-rule:nonzero;"/><path d="M428.377,379.077c-1.956,1.565 -4.382,3.182 -5.407,6.102c-1.045,2.976 -1.07,6.013 0.506,8.807c2.282,4.044 7.198,6.623 11.771,7.096c7.584,0.784 12.761,-5.451 12.724,-12.628c-0.026,-5.239 -2.709,-11.384 -7.414,-14.019c-7.723,-4.325 -16.04,4.139 -17.255,10.803c-0.634,3.48 3.543,3.984 5.563,1.982c0.402,-0.389 0.789,-0.793 1.16,-1.212c-1.377,1.143 -1.377,1.197 -0.001,0.163c0.414,-0.361 2.095,-1.926 1.348,-1.344c0.434,-0.443 0.858,-0.895 1.275,-1.354c-0.48,0.508 -0.511,0.552 -0.091,0.133c0.443,-0.431 0.893,-0.844 1.38,-1.224c-1.757,1.368 1.194,-0.413 -0.801,0.456c0.174,-0.069 0.35,-0.133 0.528,-0.19c0.946,-0.321 -1.159,0.157 -0.198,0.036c1.198,-0.152 -0.639,-0.115 0.09,-0.021c0.164,0.025 0.326,0.059 0.488,0.1c0.878,0.2 -0.926,-0.385 -0.09,-0.025c0.316,0.135 0.612,0.316 0.902,0.5c0.979,0.617 -0.444,-0.465 0.419,0.354c0.632,0.6 1.157,1.306 1.637,2.029c0.377,0.569 -0.328,-0.623 0.21,0.408c0.24,0.459 0.443,0.936 0.637,1.414c0.156,0.386 0.287,0.78 0.414,1.175c0.08,0.246 0.455,1.857 0.233,0.749c0.175,0.872 0.247,1.762 0.251,2.65c0.004,1.23 0.086,-0.462 -0.008,0.265c-0.057,0.435 -0.163,0.86 -0.287,1.28c0.413,-1.394 0.082,-0.339 -0.097,0.001c0.476,-0.746 0.568,-0.911 0.278,-0.496c-0.556,0.776 0.992,-0.955 0.293,-0.307c-0.614,0.569 1.271,-0.732 0.106,-0.129c0.791,-0.33 0.941,-0.409 0.453,-0.237c-0.919,0.305 1.085,-0.146 0.073,-0.019c-0.239,0.029 -1.539,-0.043 -0.491,0.043c-0.627,-0.051 -1.245,-0.195 -1.854,-0.348c-1.112,-0.278 -2.307,-0.865 -3.567,-1.514c-1.769,-0.911 -2.904,-2.807 -3.107,-4.73c-0.121,-1.143 0.252,-3.66 0.818,-4.458c1.666,-2.344 -0.916,-3.869 -2.889,-2.291Z" style="fill-rule:nonzero;"/><path d="M481.822,322.44c-5.146,3.378 -8.729,11.555 -2.898,16.156c5.563,4.391 15.518,-1.67 17.744,-7.272c2.308,-5.806 -1.532,-10.815 -7.001,-12.534c-3.094,-0.972 -6.61,-0.195 -9.443,1.168c-1.904,0.916 -3.655,2.342 -4.851,4.088c-0.957,1.397 -2.855,4.086 -1.433,6.52c0.713,1.22 1.771,1.504 3.12,1.139c1.772,-0.481 2.976,-1.229 4.232,-2.578c-2.328,2.501 2.412,-1.495 0.801,-0.395c0.269,-0.165 0.538,-0.328 0.81,-0.486c1.259,-0.747 -0.981,0.315 0.354,-0.135c1.296,-0.438 -0.943,0.086 0.38,-0.074c0.159,-0.019 1.461,0.028 0.427,-0.05c0.3,0.022 2.01,0.473 1.224,0.184c0.699,0.257 1.356,0.649 1.972,1.062c-0.699,-0.469 0.469,0.521 0.67,0.771c0.163,0.202 0.172,0.229 0.197,0.429c0.07,0.562 0.302,-0.558 0.055,0.005c0.564,-1.287 -0.496,0.485 0.434,-0.499c-0.076,0.081 -1.205,0.949 -0.414,0.413c-0.592,0.4 -1.571,1.004 -2.041,1.187c-0.549,0.213 -0.904,0.107 -0.96,0.084c-1.133,-0.471 -1.475,-1.297 -1.842,-2.704c-0.304,-1.163 0.412,-2.543 1.147,-3.419c1.694,-2.025 -0.453,-4.526 -2.684,-3.06Z" style="fill-rule:nonzero;"/><path d="M496.198,394.659c-3.014,0.005 -5.271,0.262 -7.797,2.07c-2.388,1.709 -3.894,4.634 -4.438,7.467c-1.168,6.066 3.236,11.645 8.993,13.043c9.693,2.356 18.279,-6.379 15.463,-15.924c-3.048,-10.331 -19.314,-12.501 -25.658,-4.258c-2.609,3.389 -0.175,6.31 3.623,6.093c2.607,-0.148 4.789,-1.025 6.886,-0.708c1.307,0.197 2.956,1.006 3.541,1.521c1.544,1.36 1.64,1.636 2.169,3.553c-0.308,-1.114 -0.127,2.237 0.055,0.774c-0.041,0.33 -0.129,0.65 -0.218,0.969c0.255,-0.714 0.274,-0.822 0.061,-0.327c0.47,-0.716 0.543,-0.837 0.22,-0.365c-0.669,0.965 1.01,-0.922 0.113,-0.138c0.764,-0.513 0.883,-0.609 0.358,-0.289c0.735,-0.293 0.825,-0.334 0.27,-0.125c-0.524,0.145 -0.486,0.152 0.114,0.025c-0.281,0.045 -0.564,0.074 -0.85,0.091c-0.528,0.044 -0.299,0.044 -1.23,-0.088c-3.841,-0.543 -7.655,-7.443 -2.877,-7.771c3.074,-0.21 5.318,-5.621 1.202,-5.613Z" style="fill-rule:nonzero;"/><path d="M452.216,449.893c-4.187,3.77 -7.363,10.511 -4.863,16.076c3.274,7.289 13.622,3.362 17.63,-0.949c3.959,-4.258 3.803,-10.885 0.088,-15.215c-5.169,-6.025 -15.46,-3.848 -19.071,2.628c-0.771,1.382 -0.331,3.945 1.621,4.044c2.034,0.103 4.486,-0.548 5.986,-0.773c1.368,-0.206 2.154,0.082 3.398,0.819c0.786,0.467 1.45,1.371 1.845,2.461c0.318,0.88 0.121,1.711 -0.067,2.109c0.247,-0.522 -0.279,0.11 0.082,-0.128c-0.548,0.361 -1.26,0.524 -2.122,0.798c-1.197,0.381 -1.624,0.029 -2.281,-0.869c-1.539,-2.104 -0.479,-6.523 1.027,-8.406c2.01,-2.513 -1.138,-4.517 -3.273,-2.595Z" style="fill-rule:nonzero;"/><path d="M181.816,20.496c7.965,6.289 16.881,11.193 24.807,17.614c8.185,6.63 16.126,13.568 25.026,19.247c18.594,11.862 37.855,22.574 56.719,33.988c18.977,11.483 37.555,23.824 53.808,39c5.423,5.063 10.822,10.076 15.783,15.607c3.15,3.512 10.376,10.733 9.841,15.902c-0.662,6.401 7.171,4.506 9.182,0.429c3.088,-6.259 -1.01,-12.415 -4.617,-17.458c-5.019,-7.014 -11.408,-13.121 -17.714,-18.958c-16.477,-15.25 -34.469,-28.26 -53.651,-39.894c-20.383,-12.359 -41.533,-23.389 -62.029,-35.551c-9.825,-5.83 -18.963,-12.507 -28.315,-19.054c-8.271,-5.79 -17.381,-12.554 -27.815,-13.034c-1.04,-0.047 -1.907,1.465 -1.025,2.162Z" style="fill-rule:nonzero;"/></g></svg>