<?xml version="1.0" encoding="utf-8"?>
<!-- Generator: Adobe Illustrator 17.0.0, SVG Export Plug-In . SVG Version: 6.00 Build 0)  -->
<!DOCTYPE svg PUBLIC "-//W3C//DTD SVG 1.0//EN" "http://www.w3.org/TR/2001/REC-SVG-20010904/DTD/svg10.dtd">
<svg version="1.0" id="Layer_1" xmlns="http://www.w3.org/2000/svg" xmlns:xlink="http://www.w3.org/1999/xlink" x="0px" y="0px"
	 width="566.93px" height="566.93px" viewBox="0 0 566.93 566.93" enable-background="new 0 0 566.93 566.93" xml:space="preserve">
<path fill="#231F20" d="M312.294,194.007c-5.844-2.06-10.709,2.957-11.806,8.372c-0.882,4.352-0.169,9.545,2.124,13.34
	c0.507,0.839,1.236,1.242,2.06,1.355c0.338,0.334,0.703,0.648,1.106,0.935c1.986,1.413,5.412-0.442,6.529-2.169
	c2.179-3.365,3.205-7.302,3.631-11.263C316.316,201.08,316.403,195.455,312.294,194.007z"/>
<path fill="#231F20" d="M384.787,196.016c-5.383-2.608-12.114,3.058-12.614,8.343c-0.376,3.979,0.728,12.516,4.68,15.087
	c0.333,0.373,0.679,0.731,1.047,1.061c3.045,2.727,7.183,0.137,8.818-2.893c1.668-3.09,1.752-7.377,1.908-10.775
	C388.791,203.232,388.546,197.838,384.787,196.016z M382.948,202.609C382.936,202.196,383.01,202.266,382.948,202.609
	L382.948,202.609z"/>
<path fill="#231F20" d="M317.705,259.828c-2.464-3.654-9.074,0.387-11.711,1.788c-3.58,1.901-10.229,5.26-11.111,9.665
	c-0.307,1.535,0.717,2.48,2.183,2.486c2.62,0.01,5.842-2.231,8.359-3.69c1.777,3.606,5.966,6.436,9.21,8.009
	c6.589,3.197,14.104,3.807,21.313,3.789c13.82-0.034,29.316-3.139,41.453-9.977c3.947-2.225,4.141-9.918-1.617-7.797
	c-1.236,0.456-2.226,0.928-3.197,1.588c-9.538,4.777-20.94,6.771-31.399,7.468c-6.424,0.429-12.953-0.011-19.154-1.802
	c-2.676-0.773-5.083-2.193-7.346-3.781c-0.296-0.207-0.579-0.444-0.857-0.692c0.004-0.002,0-0.003-0.005-0.004
	c-0.013-0.013-0.026-0.025-0.04-0.037C316.797,266.22,319.674,262.751,317.705,259.828z"/>
<path fill="#231F20" d="M450.324,216.607c1.799,2.295,5.223,0.814,7.002-0.566c4.201-3.258,3.316-8.514,0.641-12.32
	c-2.072-2.949-7.988-3.446-9.049,0.631c-0.358,1.379,0.287,3.401,0.572,4.805C449.996,211.652,448.391,214.144,450.324,216.607z"/>
<path fill="#231F20" d="M236.558,208.711c-0.881-1.004-2.277-0.572-3.248,0.063c-0.329,0.09-0.647,0.22-0.94,0.396
	c0.899-0.543-0.622,0.291-0.909,0.473c-1.227,0.775-2.089,1.51-3.08,2.592c-1.963,2.146-2.82,5.428-1.004,7.881
	c1.763,2.381,5.686,0.328,6.971-1.449c0.498-0.689,0.986-1.419,1.287-2.217c0.216-0.522,0.387-1.058,0.512-1.606
	c0.054-0.217,0.129-0.904,0.165-1.288c0.027-0.176,0.055-0.353,0.095-0.526c-0.17,0.837,0.285-2.348,0.025-0.952
	c0.013-0.271,0.025-0.477,0.035-0.628c0.015-0.023,0.032-0.046,0.047-0.07c0.001,0.035,0.002,0.065,0.002,0.108
	c0.017-0.053,0.017-0.103,0.028-0.154C237.013,210.531,237.219,209.465,236.558,208.711z"/>
<path fill="#231F20" d="M529.865,437.363c0.871-4.207-0.593-9.527-4.444-11.827c-3.577-2.137-7.06-1.994-10.486-0.705
	c-1.703-0.549-3.572-0.84-5.414-1.044c0.175-0.604,0.261-1.201,0.225-1.762c-0.594-9.185-0.986-18.518,0.047-27.682
	c0.533-4.724,1.399-9.295,3.029-13.77c0.75-2.063,1.745-3.697,2.926-5.201c0.773-0.007,1.545-0.02,2.32-0.015
	c4.751,0.028,9.762,0.322,12.254-4.802c0.311-0.639,0.48-1.314,0.531-1.982c0.62-2.078,0.293-4.031,0.187-6.199
	c-0.141-2.871-0.432-6.502-1.201-9.183c1.368-3.194,0.694-6.646-3.649-6.046c-6.313,0.871-12.848,0.655-19.215,1.295
	c-6.988,0.703-13.947,1.734-20.9,2.73c-6.955,0.996-13.914,1.964-20.899,2.73c-6.665,0.73-13.608,0.37-20.146,1.854
	c-2.55,0.578-4.454,4.538-1.927,5.932c-0.006,1.718,0.123,3.455,0.235,5.15c0.121,1.84,0.538,4.931-0.092,6.506
	c-1.269,3.164-0.001,6.761,3.938,6.441c1.089-0.088,2.126-0.443,3.052-0.985c0.816,0.076,1.639,0.119,2.464,0.126
	c1.759,1.26,3.961,1.626,5.633,3.115c1.657,1.477,2.379,3.713,3.059,5.748c2.05,6.139,1.082,13.088,0.712,19.404
	c-0.239,4.075-0.021,8.14-0.235,12.219c-0.127,2.41-0.66,4.891,0.151,6.961c0.039,0.157,0.087,0.311,0.145,0.46
	c-1.755,0.731-3.458,1.575-5.091,2.556c-5.633,3.385-10.398,10.744-4.623,16.28c1.851,1.774,4.129,3.135,6.595,4.216
	c-6.416,2.94-11.865,8.143-12.092,14.293c-0.213,5.772,4.943,9.113,9.904,11.012c-0.218,0.228-0.426,0.46-0.622,0.698
	c-3.068,3.742-3.477,8.563-1.496,12.923c1.479,3.256,4,5.484,7.086,6.98c-1.746,7.764-2.556,15.544-2.934,23.606
	c-0.42,8.962-0.838,19.364,2.866,27.767c4.238,9.614,16.363,10.595,25.483,9.568c9.066-1.02,19.423-5.359,20.785-15.475
	c1.039-7.701,0.48-16.047,0.703-23.829c0.236-8.253,0.637-16.785-1.161-24.896c-0.01-0.045-0.026-0.085-0.036-0.13
	c4.852-2.615,8.913-6.412,11.332-12.063c1.725-4.03,1.964-8.464-0.248-12.196c2.769-2.388,5.046-5.279,6.572-8.782
	c2.062-4.733,1.249-9.203-1.151-12.647C526.897,444.31,529.069,441.206,529.865,437.363z M518.294,439.065
	c-0.69,0.676-1.611,1.228-2.664,1.685c-4.109-1.22-8.752-0.82-12.707,1.957c-0.253,0.178-0.535,0.409-0.824,0.674
	c-8.45,0.886-17.26,0.955-25.552-0.582c-5.093-0.943-10.362-2.29-14.759-5.123c-0.255-0.164-0.449-0.311-0.597-0.437
	c1.805-1.188,5.247-2.156,6.994-2.705c7.89-2.478,16.708-2.786,24.913-3.114c4.938-0.196,10.566,0.223,15.865-0.234
	c0.119,0.617,0.503,1.146,1.294,1.469c2.04,0.83,5.592,1.498,7.239,2.891c0.728,0.613,1.129,1.802,1.026,2.736
	C518.451,438.949,518.251,439.107,518.294,439.065z M499.615,389.838c-0.818,3.106-1.402,6.28-1.816,9.489
	c-0.99,0.394-1.954,0.988-2.809,1.8c-2.525,2.394-6.409,3.344-10.283,3.696c-5.148,0.468-8.033-1.446-12.264-3.534
	c-0.062-1.707-0.122-3.412-0.191-5.121c-0.213-5.363-2.212-13.02-6.186-17.639c2.122-0.092,4.245-0.19,6.366-0.307
	c10-0.549,19.98-1.672,29.98-2.316c1.091-0.07,2.18-0.133,3.269-0.193C502.563,379.78,500.888,384.997,499.615,389.838z
	 M461.474,362.463c6.947-0.375,13.861-1.182,20.768-1.987c6.285-0.733,12.565-1.487,18.87-2.027
	c5.374-0.46,11.391-1.259,17.005-0.91c0.244,0.107,0.507,0.201,0.819,0.263c1.149,0.226,2.242,0.354,3.366,0.375
	c-0.372,1.487-0.629,3.016-0.871,4.494c-0.089,0.547-0.265,1.251-0.462,2.038c-7.314,0.878-14.833,1.11-22.075,1.917
	c-8.842,0.982-17.687,1.936-26.523,2.969c-5.821,0.682-12.436,0.677-18.518,1.861c-0.017-0.088-0.025-0.176-0.046-0.264
	c-0.606-2.51-1.213-5.573-2.44-8.22C454.79,362.997,458.284,362.635,461.474,362.463z M460.798,436.81
	C460.698,436.641,460.784,436.634,460.798,436.81L460.798,436.81z M468.788,452.878c1.271,0.282,2.519,0.536,3.713,0.774
	c11.766,2.35,25.699,2.048,37.669-0.777c0.511,0.16,1.019,0.351,1.52,0.591c1.928,0.923,2.992,2.685,2.182,4.608
	c-1.184,2.809-4.694,4.433-7.326,5.486c-5.68,2.275-11.78,3.234-17.838,3.775c-5.76,0.514-11.57,0.357-17.3-0.387
	c-4.798-0.623-10.906-1.62-14.151-5.563C455.805,459.622,463.505,455.466,468.788,452.878z M507.332,476.168
	c0.777,0.453,0.422,2.066,0.086,2.883c-2.137,5.194-9.488,5.968-14.258,6.824c-8.022,1.441-16.564,2.11-24.533,0.076
	c-2.154-0.551-5.599-2.934-6.043-5.305c-0.266-1.417,0.792-2.448,2.151-3.274c7.068,1.438,14.35,1.7,21.548,1.281
	c5.97-0.347,12.795-1.313,19.143-3.411C506.042,475.499,506.676,475.787,507.332,476.168z"/>
<path fill="#231F20" d="M466.097,312.027c-2.377-0.642-4.827-0.392-7.098,0.448c-2.099-0.076-4.37,0.633-5.849,1.56
	c-3.758,2.354-5.924,6.204-6.704,10.506c-1.394,7.674,5.593,12.33,12.556,11.812c8.6-0.641,17.116-9.729,14.661-18.515
	C472.728,314.495,469.115,312.842,466.097,312.027z"/>
<path fill="#231F20" d="M510.163,331.537c-0.711-1.855-2.362-3.085-4.288-3.441c-5.366-0.996-10.963,3.631-12.092,8.72
	c-0.27,1.209-0.325,2.948,0.261,4.104c0.478,1.221,1.292,2.146,2.438,2.779c0.4,0.202,0.81,0.349,1.225,0.47
	c0.505,0.225,1.039,0.391,1.576,0.487c2.781,0.502,5.649-0.721,7.711-2.53c2.023-1.775,3.708-4.522,3.511-7.317
	c-0.001-0.018-0.004-0.035-0.005-0.052C510.635,333.671,510.557,332.564,510.163,331.537z"/>
<path fill="#231F20" d="M490.088,285.982c-1.193,0.377-2.303,0.901-3.338,1.533c-3.755,1.379-6.475,4.6-8.195,8.137
	c-1.869,3.846-1.99,9.216,1.494,12.246c4.251,3.697,9.223,3.305,14.102,1.033c7.605-3.539,10.426-13.088,6.18-20.047
	C498.259,285.488,493.592,284.875,490.088,285.982z M492.375,295.465c0.002-0.001,0.004-0.003,0.006-0.005
	C492.36,295.516,492.357,295.522,492.375,295.465z M492.636,295.271C492.632,295.521,492.629,295.455,492.636,295.271
	L492.636,295.271z M495.557,298.44c0.024-0.046,0.054-0.089,0.077-0.136C496.084,297.541,496.053,297.595,495.557,298.44z"/>
<path fill="#231F20" d="M478.138,271.801c0.76-1.379,1.262-3.023,1.178-4.619c-0.084-1.58-0.913-3.099-2.082-4.22
	c-0.441-0.528-0.975-0.976-1.615-1.328c-1.262-0.639-2.599-0.89-4.01-0.753c-3.414,0.275-6.276,2.301-8.393,4.873
	c-2.074,2.523-2.836,5.951-1.8,9.043c1.198,3.574,5.559,4.152,8.662,3.16c0.212-0.067,0.419-0.149,0.626-0.229
	c0.337-0.069,0.663-0.149,0.959-0.244c1.418-0.469,2.688-1.198,3.809-2.19C476.601,274.311,477.49,273.146,478.138,271.801z"/>
<path fill="#231F20" d="M451.818,412.737c-6.264-8.196-13.143-15.872-19.846-23.704c-3.691-4.313-7.227-8.762-10.726-13.239
	c1.396,0.612,2.76,1.294,4.057,2.099c1.004,0.623,2.743,3.266,5.198,3.701c4.48,0.797,8.348-2.918,9.559-6.893
	c3.24-10.623-20.176-14.351-26.426-15.881c-5.881-1.439-11.961-2.703-17.666-4.756c-2.211-0.795-4.394-1.551-6.422-2.76
	c-0.582-0.346-1.083-0.781-1.57-1.231c-0.277-1.829-0.491-3.678-0.693-5.552c-0.275-2.55-0.267-5.275-0.467-7.942
	c3.151-1.459,6.252-3.092,9.291-4.91c14.021-8.39,26.635-19.491,36.101-32.846c9.592-13.534,14.128-28.567,15.284-44.971
	c0.245-3.479,0.428-6.965,0.566-10.453c19.791,0.719,35.061-15.014,36.278-35.095c0.621-10.23-4.054-20.45-11.693-27.13
	c-4.561-3.987-12.449-6.892-18.443-4.495c-2.94,1.176-5.623,2.489-8.135,4.426c-1.229,0.949-2.021,1.959-2.997,2.602
	c-1.463-5.427-3.375-10.703-5.93-15.652c0.854-0.373,1.648-0.887,2.308-1.54c9.543-9.456,10.209-28.131,9.926-40.718
	c-0.313-14.01-1.609-27.996-5.117-41.514c-0.507-1.953-3.371-0.344-3.828,0.779c-5.092,12.52-5.004,26.119-5.453,39.486
	c-0.234,7.001-0.413,14.059-1.363,21.005c-0.402,2.946-1.031,5.853-1.824,8.718c-0.338,1.222-0.846,2.374-1.365,3.519
	c-3.99-4.352-12.646,3.478-9.124,8.366c3.07,4.261,5.538,8.856,7.531,13.679c-0.291-0.141-0.615-0.261-1.007-0.335
	c-0.73-0.205-1.377-0.336-1.997-0.406c-6.102-1.287-12.083-3.079-18.291-4.09c-6.872-1.121-13.733-2.252-20.638-3.159
	c-13.77-1.809-27.662-2.845-41.547-3.136c-28.164-0.589-57.846,2.683-84.219,13.059c-1.646,0.647-2.611,2.653-2.38,3.995
	c-0.942,1.158-1.505,2.686-1.729,4.099c-0.312,1.962-0.176,4.456,1.714,5.223c-0.627,0.922-0.724,2.343,0.336,2.551
	c-0.341,0.43-0.577,0.922-0.634,1.448c-1.252,11.565,4.025,23.563,10.887,32.612c6.549,8.637,19.797,11.957,30.044,10.09
	c11.837-2.155,19.118-11.46,25.241-21.04c4.229-6.618,9.387-17.347,17.502-19.708c0.726-0.211,2.58,0.452,3.883,1.644
	c2.279,2.085,3.836,4.873,5.234,7.584c3.383,6.562,5.805,13.57,9.274,20.093c3.827,7.197,8.438,11.739,16.39,14.135
	c9.588,2.889,20.389-0.2,28.871-4.822c8.877-4.837,16.566-13.037,20.12-22.549c1.835-4.91,3.101-13.574,1.017-19.757
	c1.777-0.849,3.117-3.131,3.927-4.751c1.299-2.602,0.689-5.974-0.992-8.433c0.137-0.309,0.237-0.619,0.316-0.928
	c6.296,17.475,6.852,37.525,6.674,55.513c-0.118,12.001-0.325,24.396-3.651,35.998c-3.31,11.539-10.441,22.035-18.72,30.586
	c-8.524,8.805-18.644,15.822-29.46,21.506c-12.061,6.337-25.924,8.236-39.393,8.142c-24.617-0.175-52.195-8.323-70.61-25.156
	c-8.209-7.503-14.392-16.81-18.507-27.106c-4.242-10.613-5.207-21.727-5.548-33.037c-0.117-3.901-0.146-7.806-0.089-11.708
	c0.327-0.547,0.631-1.112,0.887-1.714c0.866-2.039,0.812-4.499-0.656-5.911c0.684-15.078,2.751-30.084,6.482-44.727
	c5.106-20.04,14.076-39.868,28.447-54.999c14.922-15.71,35.49-25.23,56.841-28.146c16.383-2.238,33.089,0.057,47.63,8.15
	c15.576,8.67,23.986,23.605,29.359,40.064c0.882,2.701,5.187,0.004,4.934-2.183c-1.054-9.093-4.019-17.725-8.563-25.39
	c5.302-4.666,5.708-12.9,6.904-19.619c0.801-4.504,0.282-8.986-0.036-13.518c-0.376-5.346-0.208-12.508-2.977-17.225
	c-1.151-1.962-3.878-0.826-4.648,0.947c-4.104,9.439-1.214,20.863-4.324,30.766c-0.603,1.92-1.998,4.718-3.158,7.658
	c-3.271-3.497-6.959-6.627-11.008-9.331c0.856-1.114,1.49-2.385,1.794-3.727c1.654-7.313,1.721-14.866,0.803-22.284
	c-0.76-6.137-1.408-14.48-5.779-19.229c-1.035-1.123-2.607,0.083-3.18,1.043c-3.628,6.103-3.813,13.865-4.237,20.791
	c-0.348,5.691-0.509,11.496-1.454,17.144c-5.944-2.277-12.21-3.646-18.586-4.281c2.755-5.412,2.052-13.413,1.584-18.745
	c-0.387-4.434-1.018-8.873-1.84-13.246c-0.604-3.217-0.943-6.596-2.686-9.422c-0.902-1.465-3.244,0.217-3.688,1.209
	c-2.723,6.093-1.763,14.009-1.912,20.523c-0.094,4.064-0.339,8.123-0.973,12.143c-0.364,2.305-1.655,4.771-2.12,7.146
	c-5.365,0.154-10.713,0.739-15.921,1.658c-0.117-0.641-0.349-1.246-0.715-1.789c-0.226-7.028-0.924-14.003-1.556-21.008
	c-0.524-5.816,0.354-14.419-2.958-19.438c-0.829-1.256-2.985-0.469-3.811,0.309c-6.11,5.754-6.662,15.643-6.95,23.527
	c-0.17,4.643-0.021,9.261,0.202,13.896c0.12,2.477-0.229,5.611,0.085,8.439c-4.515,1.487-8.931,3.257-13.208,5.315
	c0.213-2.039-0.381-3.991-0.903-6.204c-0.878-3.722-1.519-7.504-2.191-11.266c-0.601-3.364-1.159-6.766-1.349-10.18
	c-0.333-5.978,0.949-14.176-2.156-19.5c-1.115-1.912-3.668-0.75-4.442,0.904c-4.513,9.635-4.513,22.016-3.609,32.479
	c0.372,4.319,0.966,8.618,1.695,12.892c0.403,2.362,0.767,5.112,2.468,6.647c-5.026,3.143-9.78,6.712-14.22,10.649
	c-0.986-2.89-2.059-5.704-2.635-8.797c-0.973-5.231-1.251-10.593-1.418-15.901c-0.168-5.337-0.43-10.675-0.643-16.011
	c-0.148-3.714,0.018-9.719-3.031-12.389c-1.626-1.424-3.988-0.535-5.168,1.074c-2.836,3.871-3.384,9.109-3.906,13.761
	c-0.676,6.025-1.219,12.058-1.459,18.119c-0.391,9.835-0.215,24.237,6.215,32.351c0.057,0.072,0.118,0.132,0.177,0.2
	c-7.855,9.655-14.002,20.489-18.803,31.938c-5.114-8.981-5.706-20.085-6.36-30.347c-0.375-5.881-0.754-11.686-1.541-17.531
	c-0.49-3.639-1.053-7.275-1.46-10.926c-0.372-3.338,0.208-6.806-0.29-10.093c-0.355-2.345-3.207-2.413-4.659-0.911
	c-5.431,5.611-5.522,15.571-5.552,22.925c-0.029,6.979-0.258,13.964-0.235,20.939c0.024,7.615,0.364,15.299,1.892,22.774
	c1.18,5.778,3.045,14.671,8.947,17.567c1.207,0.593,2.511,0.75,3.802,0.579c-0.441,1.402-0.869,2.809-1.278,4.221
	c-0.697,2.408-1.337,4.833-1.934,7.27c-0.683-0.879-1.19-2.109-1.782-2.991c-1.821-2.714-4.951-3.835-8.142-3.808
	c-6.925,0.059-13.009,4.497-17.732,9.229c-2.486,2.49-4.725,5.269-6.656,8.252c-0.246,0.054-0.495,0.101-0.737,0.162
	c-7.562,0.915-14.696-0.107-20.599-5.822c-7.399-7.165-10.382-17.571-17.685-24.968c-7.135-7.227-16.77-11.099-26.919-9.785
	c-11.126,1.439-20.89,8.73-28.202,16.854c-5.047,5.608-8.713,12.367-13.896,17.853c-5.28,5.591-10.949,6.694-18.216,3.982
	c-19.91-7.432-16.822-28.012-13.05-44.825c2.239-0.052,4.483-0.79,6.624-1.392c3.918-1.102,7.824-2.255,11.728-3.408
	c8.784-2.594,17.759-4.397,26.845-5.513c11.824-1.451,23.928-1.903,35.832-2.257c12.205-0.361,24.504-0.182,36.576,1.803
	c10.045,1.651,20.26,4.823,27.322,12.404c0.273,0.336,0.559,0.662,0.881,0.974c0.032,0.038,0.067,0.072,0.099,0.11
	c0.004-0.004,0.007-0.008,0.011-0.012c0.398,0.375,0.833,0.735,1.336,1.082c6.067,4.181,16.505-6.549,11.534-12.375
	c-7.731-9.062-19.729-13.104-31.079-15.221c-13.6-2.535-27.756-2.316-41.5-1.405c-12.936,0.857-25.973,2.12-38.749,4.339
	c-9.411,1.634-18.749,3.794-27.888,6.572c-7.314,2.225-17.834,5.176-22.549,11.651c-0.276,0.38-0.426,0.843-0.407,1.266
	c-11.562,13.179-14.119,38.783-0.081,51.022c7.459,6.504,17.972,9.522,27.593,7.162c8.461-2.076,14.886-9.339,19.989-15.925
	c5.396-6.964,9.958-14.185,17.416-19.165c10.279-6.864,21.204-4.421,29.502,4.125c7.687,7.918,10.365,19.195,18.916,26.443
	c6.735,5.709,15.139,7.326,23.608,6.7c-0.65,2.223-1.135,4.491-1.412,6.79c-1.131,9.379,1.63,18.598,10.188,23.498
	c6.352,3.638,16.655,4.81,24.994,2.435c-0.002,0.391-0.009,0.782-0.009,1.173c-0.036,22.703,3.673,44.067,17.878,62.444
	c11.161,14.438,27.114,23.589,44.189,29.288c-0.754,5.588,0.672,11.835-0.419,17.382c-0.026,0.027-0.051,0.052-0.078,0.08
	c-6.024,1.656-11.737,4.679-17.548,6.949c-6.223,2.431-12.532,4.634-18.834,6.847c-9.779,3.436-19.578,6.654-29.432,9.854
	c-8.988,2.918-17.867,6.166-26.398,10.25c-5.003,2.396-11.219,5.619-15.05,10.27c2.082-7.13,3.889-14.343,5.615-21.561
	c2.026-8.482,3.941-16.976,5.628-25.531c1.673-8.488,4.224-17.619,3.862-26.392c7.218,2.195,14.519,4.158,21.738,6.337
	c15.588,4.704,31.416,10.476,44.678,20.129c1.271,1.464,2.561,2.017,4.148,3.189c4.614,3.411,13.838-5.947,9.168-9.836
	c-0.351-0.292-0.715-0.566-1.07-0.852l0,0l0,0c-13.714-11.006-30.918-16.923-47.579-21.844c-9.231-2.727-18.618-4.932-28.016-7.002
	c-6.357-1.4-14.154-3.929-21.171-3.766c-0.006-0.149-0.018-0.297-0.023-0.445c-0.191-5.295,0.151-10.654-0.366-15.917
	c9.354-3.262,18.111-8.034,25.165-14.96c6.117-6.006,10.334-13.16,12.785-21.357c1.217-4.072-2.283-7.377-6.195-7.06
	c-4.66,0.378-8.204,4.05-9.492,8.329c-1.805,6.002-6.315,11.178-10.412,14.035c-6.861,4.787-13.978,7.234-22.255,9.274
	c-17.151,4.227-35.778,3.874-53.147,1.298c-17.979-2.667-35.004-9.078-49.255-20.881c-15.301-12.673-23.702-30.877-26.803-50.21
	c-6.388-39.817,1.479-83.027,30.021-112.858c13.576-14.189,30.672-24.396,49.471-29.95c9.672-2.857,19.753-4.188,29.818-4.427
	c11.057-0.26,22.016,1.419,33.043,1.78c1.402,0.046,3.059-2.31,1.533-3.241c-18.182-11.097-43.828-9.02-63.675-4.238
	c-21.05,5.071-40.614,16.34-56.212,31.257c-13.351,12.769-23.075,27.904-29.597,44.33c-9.95-9.85-16.595-23.383-20.989-36.397
	c-3.957-11.723-8.165-29.215-2.888-41.793c6.255,8.524,12.768,16.746,21.353,23.132c2.896,2.154,7.316-2.255,7.117-5.117
	c-1.297-18.68,6.306-41.911,20.928-54.843c3.928,10.214,11.405,18.339,20.741,24.244c2.113,1.336,5.261-0.402,6.507-2.162
	c4.311-6.092,10.402-14.683,18.435-15.893c8.286-1.248,12.692,8.797,14.872,15.011c2.132,6.076,13.07-0.646,10.477-5.971
	c-4.617-9.478-11.617-19.252-23.378-18.239c-10.007,0.862-18.161,9.02-24.179,16.981c-8.031-5.718-13.805-13.358-16.458-23.163
	c-0.622-2.295-4.017-2.193-5.571-1.121C54.633,24.824,42.799,47.684,41.18,69.542c-6.091-5.771-11.214-12.494-16.587-18.993
	c-1.55-1.875-4.677-0.373-5.789,1.202c-10.158,14.394-6.98,34.22-2.314,50.026c4.235,14.345,12.258,34.271,26.827,41.319
	c-6.16,17.503-8.82,36.312-8.45,55.195c-0.287,0.111-0.569,0.245-0.845,0.394c-0.005,0-0.011,0-0.016,0
	c-1.031-0.018-2.066-0.166-3.088-0.287c-1.924-0.229-3.809-0.683-5.656-1.253c-2.579-0.796-4.893-2.468-6.64-4.481
	c-3.088-3.563-3.204-8.648-2.179-13.014c0.927-3.948,3.515-8.385,6.439-10.432c3.736-2.613,7.863-1.566,12.053-0.709
	c1.067,0.218,2.183-0.981,1.89-2.014c-2.099-7.396-10.378-6.85-15.979-4.171c-6.839,3.271-11.664,10.475-13.937,17.48
	c-2.356,7.263-1.737,15.184,3.14,21.271c2.758,3.441,6.961,5.611,11.091,6.9c4.178,1.304,9.685,2.556,14.307,1.625
	c0.252,3.046,0.576,6.088,0.979,9.119c2.656,19.939,10.213,38.917,24.422,53.441c12.421,12.697,28.824,21.609,45.958,26.274
	c-0.885,4.346-1.279,8.709-1.59,13.306c-0.134,1.969-0.232,3.942-0.313,5.916c-8.208,0.21-15.906,2.225-23.962,4.621
	c-10.831,3.221-21.363,7.27-31.627,11.986c-9.357,4.301-18.272,9.939-26.349,16.313c-3.957,3.123-7.625,6.62-11,10.364
	c-3.025,3.356-7.083,7.268-6.967,12.063c0.098,3.972,4.617,3.978,7.229,2.638c3.611-1.852,5.61-5.719,8.191-8.727
	c2.751-3.208,6.014-6.002,9.271-8.678c7.128-5.854,15.042-10.466,23.085-14.923c8.414-4.662,17.216-8.152,26.106-11.396
	c-1.142,8.3,2.951,18.886,5.488,25.628c4.324,11.49,10.287,22.268,15.344,33.434c12.165,26.863,27.138,52.662,40.96,78.714
	c0.495,1.045,1.014,2.073,1.709,3.062c0.631,0.897,1.476,1.381,2.42,1.55c-0.239,0.402-0.484,0.801-0.721,1.204
	c-6.605,11.246-13.744,23.746-15.649,36.854c-1.458,10.037,3.435,22.113,15.681,20.656c3.273-0.389,6.232-2.514,7.643-5.51
	c1.051-2.232,1.186-6.08-1.613-7.23c-1.229-0.506-2.452-0.789-3.723-1.125c-1.557-0.411-0.033,0.183-1.751-0.762
	c-0.685-0.377-1.356-1.217-1.642-1.848c-0.135-0.3-0.463-1.64-0.503-1.643c-0.106-0.841-0.125-1.693-0.12-2.537
	c0.012-1.786-0.098,0.117,0.17-1.744c0.186-1.287,0.479-2.557,0.792-3.817c2.726-10.988,10.04-23.563,16.34-34.208
	c7.404-12.509,15.688-24.458,23.258-36.857c4.008-6.567,9.957-14.409,12.185-22.268c3.106,0.184,6.894-1.391,8.686-3.986
	c1.998-2.893,1.771-2.721,4.012-4.547c2.416-1.969,6.433-3.963,9.706-5.591c7.71-3.834,15.827-6.854,23.906-9.806
	c9.75-3.561,19.349-7.461,28.966-11.372c1.486-0.604,3.005-1.202,4.542-1.804c-5.913,8.539-10.245,18.411-14.435,27.721
	c-5.473,12.156-10.014,25.046-12.568,38.145c-1.174,6.016,4.797,7.012,9.043,5.051c-1.854,0.856,1.514-0.506,1.996-0.668
	c1.759-0.592,3.555-1.082,5.342-1.584c4.026-1.131,8.115-2.056,12.23-2.797c3.617-0.65,7.271-1.139,10.944-1.303
	c0.994-0.044,1.428-0.006,1.997,0.051c-3.04,6.323-5.084,13.268-7.476,19.76c-3.841,10.427-7.712,20.813-11.144,31.385
	c-1.176,3.627,2.104,6.555,5.52,6.289c14.661-1.145,29.607,7.039,42.982,12.079c8.798,3.315,20.386,5.635,28.094,11.889
	c0.019,0.823,0.329,1.618,1.086,2.306c2.099,1.909,2.852,3.204,5.917,3.603c4.212,0.548,9.258-2.966,10.231-7.113
	c1.834-1.621,3.556-3.406,5.408-4.929c1.098-0.901,5.148-3.203,7.354-4.502c3.621-2.134,7.279-4.201,10.863-6.4
	c12.684-7.784,25.549-16.685,39.54-21.938c4.047-1.52,7.82-5.686,6.397-10.279c-2.707-8.74-9.307-15.563-15.494-22.014
	c-3.227-3.365-6.526-6.859-8.967-10.852c-0.959-1.57-2.008-3.032-3.174-4.416c13.192-3.956,26.369-7.943,39.651-11.609
	C450.722,423.018,455.068,416.989,451.818,412.737z M342.125,175.393c13.871,0.229,27.684,1.578,41.398,3.604
	c6.277,0.928,12.506,2.106,18.744,3.254c5.431,0.998,12.003,1.603,17.377,3.789c1.213,1.538,2.92,1.936,5.259,1.99
	c0.326,0.008,0.652-0.053,0.976-0.142c0.025,0.563,0.011,1.132-0.035,1.709c-11.45-4.62-23.589-5.905-35.735-7.866
	c-14.684-2.373-29.479-3.537-44.353-3.336c-15.048,0.202-29.965,2.09-44.736,4.879c-12.329,2.327-25.871,4.698-37.7,9.477
	c0.314-0.96,0.262-2.088-0.757-2.547c-0.348-0.156-0.627-0.373-1.027-0.431c0.049,0.028,0.097,0.056,0.146,0.083
	c-0.082-0.033-0.152-0.061-0.217-0.086c-0.061-0.186-0.111-0.523-0.108-0.785c0.01-0.831,0.429-1.622,0.79-2.382
	C288.259,178.272,314.725,174.942,342.125,175.393z M416.436,211.174c-0.46,4.784-2.749,8.89-5.729,12.549
	c-5.603,6.879-15.411,11.377-24.282,10.732c-15.937-1.156-18.989-20.211-25.165-31.824c-2.904-5.463-6.751-11.004-13.193-12.325
	c-8.326-1.707-16.169,5.303-21.298,10.864c-7.458,8.086-11.38,19.026-19.395,26.589c-7.878,7.435-22.696,3.403-29.536-3.538
	c-6.629-6.729-12.004-17.018-13.684-26.293c-0.081-0.447-0.24-0.797-0.448-1.07c4.974-1.125,9.878-2.778,14.795-4.039
	c7.103-1.822,14.272-3.368,21.481-4.697c13.466-2.482,27.184-3.817,40.864-4.223c14.255-0.424,28.646,0.5,42.688,3.018
	c10.095,1.809,20.591,3.366,30.412,6.646c-1.567,1.886-2.198,4.214-0.328,5.764C416.337,201.58,416.755,207.854,416.436,211.174z
	 M456.339,186.061c8.66,1.256,13.873,12.416,15.115,20.022c1.124,6.876-0.361,14.001-4.66,19.519
	c-4.338,5.568-11.525,6.429-17.999,5.322c-0.167-0.028-0.335-0.043-0.503-0.055c-0.026-8.915-0.471-17.826-1.495-26.681
	c-0.514-4.445-1.177-8.934-2.069-13.376C449.28,189.313,450.745,185.249,456.339,186.061z M239.239,234.039
	c-1.337,0.18-2.669,0.308-4.015,0.406c-2.599,0.19-5.117,0.027-7.676-0.43c-3.301-0.588-6.163-2.119-8.316-4.678
	c-4.04-4.805-2.913-12.621-0.965-18.033c2.432-6.757,7.016-14.984,13.98-17.709c2.708-1.061,4.232,1.223,6.005,2.807
	c1.811,1.62,3.498,1.582,5.834,1.34c-2.405,11.906-3.731,24.055-4.274,36.195C239.643,233.975,239.456,234.01,239.239,234.039z
	 M144.206,360.688c-0.078-0.254-0.168-0.501-0.259-0.748c0.119,0.228,0.241,0.453,0.367,0.678
	C144.278,360.64,144.242,360.664,144.206,360.688z M202.645,325.008c-0.168,0.357-0.316,0.732-0.464,1.139
	c-0.668,1.836-1.301,3.64-1.846,5.52c-1.514,5.224-2.782,10.51-4.084,15.789c-2.157,8.752-4.287,17.512-6.498,26.249
	c-2.854,11.276-5.732,22.585-9.508,33.597c-1.836,5.355-3.923,10.632-6.434,15.709c-0.391,0.791-0.857,1.55-1.349,2.298
	c-3.516-7.07-7.627-13.963-10.827-21.16c-0.771-3.26-1.694-6.486-2.787-9.673c0.037-0.078,0.086-0.156,0.117-0.234
	c1.612-4.006,3.368-7.922,5.326-11.771c2.578-5.068,3.697-7.043,0.51-12.133c-2.578-4.114-5.605-7.857-8.766-11.534
	c-1.199-1.394-2.52-3.016-3.968-4.506c0.466,0.019,0.932,0.037,1.399,0.055c10.968,0.4,20.959-0.405,31.225-4.289
	c3.99-1.51,11.218-4.238,10.444-9.787c-0.31-2.223-1.472-3.222-2.929-3.456c0.331-0.805,0.488-1.659,0.392-2.534
	c-0.472-4.287-0.917-8.549-1.265-12.825C194.984,323.051,199.215,324.05,202.645,325.008z M165.77,302.333
	c6.207-0.712,12.55-1.856,18.738-3.573c-1.702,4.54-2.431,9.397-2.97,14.332c-0.747,6.84-1.187,13.84-1.145,20.764
	c-0.023,0.146-0.041,0.291-0.048,0.432c-0.068,1.324,0.02,2.564,0.133,3.885c0.09,1.052,0.397,1.855,0.848,2.457
	c-1.947,0.826-3.952,1.543-5.942,2.221c-8.205,2.797-18.965,1.626-27.488,1.363c-11.938-0.366-26.813-1.316-37.385-8.229
	c1.21-0.43,2.179-1.19,3.15-2.241c0.123-0.132,0.236-0.255,0.322-0.348c0.721-0.781,1.126-1.979,1.282-3.006
	c0.281-1.84-0.145-3.288-1.73-4.35c1.901,1.272,0.99,0.572,0.791-1.356c-0.156-1.53-0.262-3.065-0.366-4.6
	c-0.251-3.652-0.402-7.312-0.548-10.97c-0.126-3.151-0.26-6.219-0.672-9.232C129.99,303.624,148.279,304.338,165.77,302.333z
	 M94.8,357.137c-2.459-5.246-4.627-10.658-6.367-16.184c-0.951-3.02-1.555-6.112-2.115-9.223c-0.146-0.807-0.235-1.596-0.353-2.361
	c6.287-2.24,12.579-4.482,18.773-7.042c-0.007,0.24-0.018,0.48-0.025,0.72c-0.048,1.58-0.07,3.16-0.072,4.74
	c-0.002,0.779,0.018,1.558,0.017,2.336c-0.001,0.314-0.028,0.555-0.059,0.745c0.081-0.224,0.207-0.531,0.418-0.958
	c-0.17,0.344-0.293,0.692-0.386,1.042c-0.012-0.015-0.026-0.027-0.038-0.042c0.002-0.012,0.004-0.029,0.006-0.042
	c-0.004,0.01-0.01,0.024-0.013,0.034c-0.715-0.809-1.39-1.664-2.019-2.576c-0.625-0.908-2.107,0.246-2.229,1
	c-1.739,10.822,8.198,16.514,17.217,19.613c6.864,2.359,13.809,3.655,20.858,4.417c-4.692,9.009-6.972,19.759-10.442,29.021
	c-0.841,2.244-0.641,5.215,2.284,5.697c5.582,0.92,11.324,2.901,14.448,7.68c-0.802,1.914-1.349,3.979-1.852,5.547
	c-1.701,5.313-3.221,10.672-4.815,16.018c-1.275,4.276-2.477,8.576-3.955,12.789c-7.663-13.716-15.326-27.432-22.859-41.221
	C105.525,378.457,99.843,367.9,94.8,357.137z M390.349,427.51c-1.624,0.476-3.092,1.572-4.228,2.941
	c0.054-0.142,0.108-0.283,0.162-0.424c4.578-11.861,9.342-23.676,14.434-35.328c2.492-5.707,5.041-11.398,7.646-17.055
	c0.272-0.59,0.584-1.225,0.91-1.887c4.845,14.34,15.309,26.54,24.607,38.728C419.266,418.44,404.865,423.257,390.349,427.51z
	 M400.857,369.333c0.413,0.127,0.829,0.249,1.243,0.373c-1.366,2.066-2.553,4.238-3.628,6.095
	c-3.191,5.512-6.19,11.089-9.011,16.801c-5.605,11.353-10.628,22.946-15.395,34.672c-0.08-0.195-0.157-0.392-0.238-0.587
	c0.249-1.121,0.24-2.298-0.115-3.476c-2.213-7.336-4.796-15.098-9.731-21.091c-0.01-0.133-0.024-0.264-0.045-0.394
	c0.736-0.703,1.412-1.513,2.003-2.451c2.614-4.15,3.123-8.719,2.435-13.52c-0.324-2.257-1.232-4.303-2.537-6.047
	c7.352-1.449,15.038-3.293,21.629-6.883c2.263-1.232,4.41-3.797,4.837-6.505C395.602,367.698,398.786,368.696,400.857,369.333z
	 M309.234,377.327c8.086,3.884,17.319,4.822,26.179,5.146c-0.777,1.581-1.184,3.344-1.081,5.212
	c0.359,6.51,6.099,11.808,11.318,14.926c0.565,0.338,1.155,0.633,1.754,0.909c-0.697,2.115-1.489,4.202-2.343,6.27
	c-2.491,4.441-4.721,9.077-6.652,13.828c-2.075,3.899-4.234,7.765-6.332,11.637c-1.508-2.77-3.073-5.506-4.721-8.194
	c-6.028-9.84-12.994-19.076-19.479-28.613c-6.313-9.284-11.422-19.021-16.834-28.788c2.516-1.208,4.966-2.509,7.291-3.947
	C299.493,370.813,305.033,375.31,309.234,377.327z M318.842,343.378c20.221,4.19,40.682,3.371,59.633-3.391
	c-0.43,2.173-0.664,4.387-0.844,6.484c-0.494,5.781-0.539,11.884,0.442,17.629c-0.27,0.098-0.56,0.202-0.886,0.317
	c-3.503,1.24-7.111,2.182-10.729,3.023c-8.31,1.932-16.877,2.8-25.391,3.094c-7.733,0.268-15.58-0.354-22.983-2.711
	c-2.96-0.942-5.897-2.691-8.478-4.394c-0.536-0.354-1.008-0.775-1.458-1.221c1.16-1.346,1.901-3.038,1.808-4.595
	c-0.06-0.986-0.229-1.832-0.883-2.617c0.823,0.99,0.242-1.195,0.203-1.966c-0.125-2.479-0.199-4.944-0.384-7.426
	c-0.105-1.414-0.147-3.045-0.27-4.706C312.016,341.839,315.429,342.671,318.842,343.378z M417.931,474.332
	c-11.325,5.152-22.197,11.916-32.444,18.625c-6.516,4.266-13.475,7.811-19.994,12.078c-2.018,1.321-3.861,2.785-5.645,4.399
	c-0.48,0.435-0.95,0.879-1.422,1.321c-8.269-6.592-20.032-9.36-29.513-12.827c-13.498-4.936-27.441-12.106-42.004-13.223
	c2.544-7.788,5.139-15.559,7.577-23.384c2.274-7.301,5.579-15.952,5.123-23.901c0.218-0.321,0.414-0.661,0.574-1.022
	c5.122-11.578-12.347-9.273-18.478-8.323c-5.965,0.924-12.143,2.064-18.082,3.813c2.212-9.286,5.307-18.342,8.59-27.313
	c3.035-8.291,7.075-16.428,10.015-24.836c2.377,8.624,7.49,16.563,12.095,24.094c6.295,10.297,13.467,20.029,19.828,30.287
	c14.058,22.668,21.584,48.794,37.521,70.4c0.025-0.027,0.051-0.055,0.076-0.082c5.103,5.651,16.89-3.834,11.977-10.496
	c-0.335-0.454-0.648-0.922-0.977-1.38c1.732-3.336,2.799-7.13,4.101-10.59c2.102-5.593,4.171-11.196,6.244-16.8
	c3.53-9.536,7.063-19.073,10.679-28.578c0.12,2.368,1.698,4.255,5.46,4.255c1.669,0,3.299-0.221,4.865-0.833
	c0.386-0.151,0.8-0.368,1.225-0.635c2.491,7.019,5.222,13.42,10.203,19.495C409.683,463.949,414.601,468.679,417.931,474.332z"/>
<path fill="#231F20" d="M548.03,475.744c-3.278-7.743-7.521-14.848-11.245-22.35c-0.805-1.623-3.469,0.159-2.883,1.643
	c2.551,6.472,4.201,13.335,6.23,19.982c3.008,9.854,5.518,19.893,6.992,30.096c1.295,8.951,1.957,18.354-0.445,27.172
	c-0.338,1.244-1.018,2.754-1.752,4.167c-0.303,0.584-1.955,2.56-2.014,2.616c-0.74,0.728-2.113,1.648-2.85,1.949
	c-2.198,0.898-4.563,1.13-6.807,1.848c-3.045,0.973-5.736,3.65-6.415,6.818c-0.534,2.495,0.727,5.784,3.667,6.002
	c11.197,0.828,22.093-7,26.551-16.971c4.33-9.684,3.437-21.146,1.32-31.252C556.093,496.535,552.376,486.014,548.03,475.744z"/>
<path fill="#231F20" d="M262.726,530.823c4.277-5.769,1.634-17.157,0.78-23.564c-0.869-6.521-1.371-14.857-3.774-21.758
	c1.34-1.063,2.143-2.605,2.053-4.839c-0.042-1.034-0.438-1.77-1.026-2.294c0.697-2.076,1.03-4.373,1.171-6.417
	c0.323-4.66,0.805-11.562-1.15-16.324c0.24-1.884-0.68-3.407-3.434-3.052c-17.072,2.205-34.712,0.831-51.608,4.263
	c-1.003-0.748-2.688,0.008-3.302,1.115c-1.118,0.987-1.708,2.71-1.191,3.789c-1.764,7.54-0.776,16.179-1.141,23.701
	c-0.047,0.977,0.396,1.722,1.052,2.245c-1.154,5.994-1.053,12.45-1.319,18.323c-0.453,10.029-0.547,20.118-1.48,30.117
	c-0.199,2.126,0.426,4.963,3.139,5.137c12.305,0.783,24.688-1.361,37.02-1.246c3.363,0.031,6.729,0.063,10.093,0.094
	c1.385,0.013,2.639,0.174,3.908,0.235c2.224,0.976,4.841-0.041,6.887-1.885c2.023-1.621,3.481-4.146,3.432-6.595
	c0-0.021,0-0.04,0-0.061c-0.001-0.045,0.003-0.09,0-0.134c-0.003-0.058-0.016-0.106-0.02-0.162c-0.012-0.183-0.034-0.362-0.067-0.54
	C262.738,530.925,262.736,530.871,262.726,530.823z M209.588,478.883c-0.275-3.316-0.629-6.635-0.99-9.938
	c-0.225-2.065-0.401-4.287-0.791-6.439c14.991-0.59,29.997-0.402,44.987-0.943c0.427,0.051,0.865,0.055,1.324,0.03
	c-0.334,2.326-0.503,4.696-0.84,6.892c-0.375,2.441-0.765,4.887-1.333,7.291c-0.145,0.615-0.308,1.023-0.479,1.349
	C237.519,476.881,223.453,477.671,209.588,478.883z M241.912,527.676c-10.739,0.1-21.514,1.076-32.232,1.963
	c-0.575-7.504-0.753-15.044-1.066-22.562c-0.187-4.447-0.475-8.881-0.797-13.319c-0.128-1.764-0.219-3.572-0.416-5.363
	c11.511-0.561,22.997-1.077,34.531-1.01c2.349,0.014,6.399,0.471,10.232,0.266c-0.282,7.633,0.738,15.497,0.752,23.004
	c0.009,4.751-0.18,9.529-0.972,14.223c-0.095,0.563-0.552,1.563-0.863,2.714C248.024,527.618,244.968,527.646,241.912,527.676z"/>
<path fill="#231F20" d="M555.455,43.119c3.344-5.416,7.578-12.555,6.103-19.195c-1.713-7.707-11.563-6.563-16.94-3.95
	c-5.385,1.469-10.59,3.511-15.693,5.811c-2.081-2.667-4.72-4.763-8.084-5.769c-2.934-0.877-7.387,3.835-4.932,6.464
	c1.221,1.308,2.498,2.507,3.702,3.765c-0.429,0.214-0.858,0.428-1.286,0.643c-2.224,1.116-4.421,2.29-6.603,3.494
	c-1.838-1.293-3.705-2.541-5.61-3.73c0.871-2.834,1.95-5.594,3.334-8.201c1.059-1.993,2.621-4.592,5.051-5.032
	c3.818-0.692,7.74,2.972,10.838,4.649c0.885,0.479,2.299-0.707,1.896-1.665c-2.645-6.306-9.645-10.789-16.275-7.345
	c-5.446,2.829-8.502,8.464-10.681,14.09c-5.893-3.496-12.427-7.248-19.109-8.689c0.466-0.968,0.338-1.955-1.135-2.334
	c-4.125-1.063-8.781,1.051-9.844,5.443c-1.069,4.42,1.145,9.082,3.207,12.861c3.36,6.155,7.542,11.94,12.096,17.453
	c-7.085,5.691-13.402,12.197-18.39,19.816c-3.498,5.343-7.508,12.424-6.735,19.074c1.508,12.984,20.154,5.995,34.447-1.249
	c0.413,2.848,0.965,5.68,1.708,8.488c1.975,7.467,7.656,20.891,17.412,19.797c8.298-0.93,12.855-10.688,15.364-17.491
	c0.914-2.479,1.659-5.003,2.302-7.552c5.721,2.271,11.881,3.914,17.997,3.841c6.188-0.074,11.984-4.748,10.587-11.324
	c-1.41-6.639-7.519-12.197-11.85-17.02c-2.267-2.523-4.587-5-6.932-7.453c0.136-0.127,0.28-0.247,0.414-0.376
	C547.092,55.361,551.619,49.332,555.455,43.119z M542.33,25.176c0.283,0.401,0.754,0.695,1.496,0.787
	c2.154,0.266,6.69-0.533,8.475,0.943c1.563,1.292,0.523,4.24-0.057,5.832c-2.543,6.971-7.354,13.237-12.084,18.858
	c-1.195,1.421-2.493,2.746-3.865,3.997c-0.018-0.019-0.037-0.036-0.056-0.055c0.017-3.971-0.186-7.937-0.721-11.873
	c-0.587-4.323-1.779-9.274-3.916-13.58C535.158,28.395,538.739,26.759,542.33,25.176z M502.315,74.049
	c-0.042-1.292-0.076-2.593-0.1-3.898c1.469,1.52,2.947,3.056,4.446,4.582c-1.396,0.812-2.803,1.616-4.219,2.41
	C502.391,76.086,502.348,75.046,502.315,74.049z M505.357,60.502c-0.997-1.036-2.007-2.084-3.02-3.139
	c0.15-3.806,0.412-7.601,0.822-11.336c1.428-0.966,2.869-1.912,4.327-2.834c0.341,0.245,0.691,0.474,1.03,0.723
	c6.736,4.959,12.964,10.596,18.919,16.507c-0.021,0.636-0.047,1.271-0.079,1.906c-3.863,2.5-7.891,4.771-11.728,7.077
	c-0.37,0.223-0.743,0.446-1.115,0.669C511.329,66.879,508.304,63.564,505.357,60.502z M526.627,71.158
	c-0.066,0.604-0.128,1.208-0.198,1.809c-0.258,2.209-0.536,4.424-0.845,6.637c-1.916-1.318-3.762-2.781-5.55-4.336
	C522.249,73.925,524.444,72.55,526.627,71.158z M522.873,34.418c0.083,0.141,0.174,0.273,0.253,0.418
	c1.953,3.565,2.96,7.629,3.583,11.615c-3.304-2.989-6.722-5.869-10.26-8.59C518.569,36.677,520.715,35.536,522.873,34.418z
	 M497.294,36.563c-0.613,2.527-1.083,5.075-1.459,7.64c-1.154,0.796-2.299,1.603-3.433,2.424
	c-5.203-5.969-10.007-12.3-13.576-19.111c3.764,1.823,7.909,3.166,11.457,5.074C492.653,33.864,494.985,35.195,497.294,36.563z
	 M477.323,88.648c-1.94,0.626-6.175,2.068-7.989,0.373c-1.48-1.385-0.414-4.583,0.128-6.146c2.464-7.108,7.325-13.846,12.501-19.226
	c2.404-2.499,4.912-4.863,7.498-7.124c1.571,1.78,3.166,3.535,4.776,5.264c-0.4,6.614-0.611,13.259-0.218,19.851
	C488.56,84.386,482.985,86.822,477.323,88.648z M512.494,107.945c-5.973-5.498-8.376-14.326-9.411-22.86
	c3.441-1.938,6.089-3.526,7.359-4.233c0.525-0.292,1.044-0.596,1.567-0.892c3.707,3.442,7.632,6.622,11.957,9.16
	c-0.512,2.484-1.097,4.951-1.8,7.382C521.14,100.049,517.82,112.848,512.494,107.945z M550.691,86.415
	c0.268,0.469,0.742,1.286,1.032,2.028c-5.974,0.539-12.74-1.986-18.298-4.502c0.588-3.503,1.058-7.03,1.504-10.549
	c0.199-1.564,0.376-3.136,0.54-4.709c1.507,1.598,3.006,3.199,4.491,4.805C543.707,77.535,547.931,81.594,550.691,86.415z"/>
<path fill="#231F20" d="M512.886,52.473c-3.914,0-6.578,7-1.5,7C515.3,59.473,517.964,52.473,512.886,52.473z"/>
<path fill="#231F20" d="M113.446,153.727c-4.1-2.691-9.308,1.307-11.168,4.866c-0.57,1.09-1.017,2.365-1.323,3.713
	c-0.104,0.128-0.212,0.258-0.31,0.382c-3.261,4.104-5.314,10.641-0.435,14.334c6.968,5.271,17.609,0.514,18.813-7.906
	C119.76,163.951,118.06,156.754,113.446,153.727z"/>
<path fill="#231F20" d="M187.388,152.146c-4.418-2.071-9.116,2.195-9.607,6.5c-0.009,0.021-0.022,0.041-0.03,0.063
	c-1.722,4.581-1.971,10.365,2.067,13.912c3.492,3.066,7.943,2.869,11.984,1.065c4.604-2.055,7.264-7.097,6.199-11.97
	C196.937,156.85,191.453,154.053,187.388,152.146z M188.601,165.346c-0.01,0.001-0.021,0.002-0.031,0.002
	c0.704-0.547,0.417-0.255,0.048-0.004C188.613,165.344,188.606,165.345,188.601,165.346z M187.434,167.545
	C187.495,167.8,187.513,167.963,187.434,167.545L187.434,167.545z M188.966,165.287c0.005-0.003,0.011-0.006,0.016-0.008
	C189.445,165.171,189.253,165.229,188.966,165.287z"/>
<path fill="#231F20" d="M104.509,219.7c-2.739,0.259-5.258,1.599-7.963,1.821c-2.21,0.183-4.35,1.742-5.322,3.762
	c-1.86,0.872-3.715,1.755-5.56,2.66c-1.995,0.979-3.048,5.676,0.283,5.041c2-0.381,3.979-0.841,5.951-1.325
	c7.495,16.967,34.132,20.503,50.046,20.839c12.512,0.264,32.26-2.227,41.961-12.658c0.078,0.011,0.149,0.031,0.229,0.039
	c2.299,0.21,4.701-0.778,6.035-2.742c3.175-4.673,1.159-9.044-1.515-13.398c-2.797-4.559-10.77,1.225-11.098,4.975
	c-0.257,2.943-1.06,3.953-2.153,4.985c-1.835,1.731-4.414,2.991-7.419,4.071c-8.123,2.919-17.052,3.418-25.605,3.184
	c-11.479-0.314-29.99-2.67-38.833-12.378c0.075-0.02,0.149-0.041,0.224-0.061C107.937,227.409,110.615,219.122,104.509,219.7z"/>
<path fill="#231F20" d="M28.311,191.885c2.005-0.509,5.075-3.732,3.76-6.018c-0.157-0.914-0.644-1.704-1.55-2.273
	c-0.217-0.134-0.431-0.27-0.645-0.405c1.001,0.634-0.498-0.474-0.545-0.451c-0.048-0.047-0.103-0.087-0.149-0.136
	c-0.048-0.047-0.07-0.063-0.102-0.091c-0.083-0.164-0.164-0.328-0.244-0.493c-0.028-0.057-0.051-0.099-0.07-0.133
	c-0.008-0.227-0.038-0.45-0.081-0.673c0.026-0.081,0.044-0.164,0.073-0.244c0.319-0.959-0.166-2.141-1.041-2.614
	c-1.242-0.672-3.027-0.128-3.975,0.827c-0.167,0.168-0.323,0.346-0.485,0.518c-0.1,0.073-0.203,0.141-0.303,0.215
	c-0.875,0.915-1.013,1.071-0.411,0.47c-0.802,0.793-1.426,1.699-1.85,2.74c-0.703,1.73-0.793,3.258-0.361,5.066
	c0.346,1.443,1.5,2.657,2.718,3.41c1.665,1.029,3.332,0.994,4.909,0.36c-0.014,0.009-0.028,0.017-0.042,0.024
	C28.048,191.951,28.179,191.918,28.311,191.885z"/>
<path fill="#231F20" d="M248.807,72.044c-0.361,0.858-0.974,1.743-1.224,2.047c-2.959,3.591-0.412,8.278,4.215,6.933
	c9.138-2.659,9.803-13.939,9.514-21.809c-0.344-9.357-2.168-19.014-7.406-26.869c-5.447-8.166-13.605-12.531-22.682-7.102
	c-4.567,2.732-7.941,6.802-11.179,10.994c-1.256-7.962-4.969-15.272-14.282-15.258c-8.644,0.014-16.183,6.956-21.405,14.475
	c-3.364-6.098-7.485-11.45-15.525-11.65c-10.486-0.262-19.773,9.009-25.638,16.697c-1.401,1.839,0.771,3.133,2.321,1.842
	c5.795-4.821,12.414-11.973,20.385-12.672c7.402-0.648,11.967,11.49,12.843,17.094c0.854,5.471,7.357,2.516,9.087-0.736
	c3.004-5.647,8.082-14.533,15.229-15.539c8.537-1.201,7.736,14.692,7.475,19.343c-0.24,4.267,5.778,3.508,7.742,1.515
	c4.648-4.717,8.328-10.244,12.89-15.021c1.351-1.415,3.155-3.492,5.224-3.793c3.326-0.484,6.298,3.795,7.979,6
	c4.199,5.506,5.063,12.754,5.611,19.455c0.275,3.367,0.258,6.799-0.199,10.147C249.597,69.469,249.329,70.805,248.807,72.044z"/>
<path fill="#231F20" d="M232.612,90.051c-8.391-8.691-17.24-16.286-29.206-19.662c-1.751-0.494-3.87,2.314-2.151,3.535
	c8.089,5.741,16.526,12.878,21.148,21.923c0.344,1.573,1.266,3.152,2.254,4.665c3.415,5.229,14.349-3.709,9.764-8.566
	C233.931,91.164,233.309,90.537,232.612,90.051z"/>
<path fill="#231F20" d="M112.709,334.773C112.688,334.796,112.689,334.795,112.709,334.773L112.709,334.773z"/>
<path fill="#231F20" d="M113.664,333.74c-0.001,0.001-0.002,0.002-0.002,0.002c-0.383,0.415-0.86,0.932-0.952,1.031
	C112.773,334.704,113.043,334.412,113.664,333.74z"/>
<path fill="#231F20" d="M90.599,404.28c-16.203,2.354-32.51,2.64-48.851,2.822c-4.608,0.052-9.221,0.046-13.825,0.257
	c-2.04,0.094-4.08,0.07-6.074,0.537c-1.043,0.244-2.007,0.858-2.712,1.667c-1.295-0.141-2.659,1.363-2.259,2.611
	c2.05,6.411,2.849,11.761,1.65,18.46c-0.409,2.289,0.843,4.201,3,4.485c-1.767,4.488-1.273,11.134-1.285,14.982
	c-0.026,8.528,0.64,17.249,3.06,25.462c0.861,2.92,2.264,5.736,4.191,8.098c3.029,3.707,9.921,0.42,13.808-0.244
	c11.365-1.939,23.328-1.959,34.634,0.33c0.907,0.184,1.841,0.105,2.745-0.156c0.902,0.972,2.129,1.281,3.642,1.305
	c0.855,0.014,1.666-0.227,2.5-0.395c2.732-0.553,4.62-3.287,5.394-5.733c4.556-14.407,1.304-28.45,0.11-43.114
	c-0.168-2.066-2.828-0.908-3.392,0.275c-2.843,5.971-3.247,11.773-3.306,18.336c-0.046,5.039,0.36,11.398-0.972,16.826
	c-0.409-0.448-0.916-0.864-1.552-1.253c-1.902-1.163-4.271,0.415-5.475,1.818c-0.024,0.028-0.042,0.057-0.066,0.085
	c-13.074-1.917-28.014-1.65-40.393,2.508c-4.429-5.563-5.417-14.201-6.31-20.82c-0.603-4.462-0.908-8.973-1.199-13.463
	c-0.082-1.256-0.041-3.374-0.404-5.212c7.482-0.604,14.969-1.172,22.466-1.517c5.039-0.232,10.131-0.416,15.17-0.1
	c1.689,0.105,3.373,0.307,5.029,0.654c0.194,0.041,4.996,1.647,2.51,0.533c2.046,0.917,4.854-0.027,6.455-1.813
	c0.722,0.966,1.829,1.682,3.186,1.939c4.07,0.773,7.831-3.148,7.963-6.988c0.193-5.637-0.617-11.59,3.363-16.148
	C95.641,408.754,94.756,403.677,90.599,404.28z M57.562,422.63c-9.657,0.29-19.292,1.141-28.892,2.215
	c-0.168-3.29-0.863-6.764-2.376-9.603c1.231,0.001,2.44-0.024,3.549-0.001c3.765,0.08,7.533,0.085,11.3,0.126
	c13.308,0.149,26.673,0.415,39.958-0.539c-1.264,3.477-1.844,7.246-2.028,10.986C75.279,420.872,62.493,422.481,57.562,422.63z"/>
</svg>
