<?xml version="1.0" encoding="utf-8"?>
<!-- Generator: Adobe Illustrator 17.0.0, SVG Export Plug-In . SVG Version: 6.00 Build 0)  -->
<!DOCTYPE svg PUBLIC "-//W3C//DTD SVG 1.0//EN" "http://www.w3.org/TR/2001/REC-SVG-20010904/DTD/svg10.dtd">
<svg version="1.0" id="Layer_1" xmlns="http://www.w3.org/2000/svg" xmlns:xlink="http://www.w3.org/1999/xlink" x="0px" y="0px"
	 width="566.93px" height="566.93px" viewBox="0 0 566.93 566.93" enable-background="new 0 0 566.93 566.93" xml:space="preserve">
<path fill="#010101" d="M397.836,145.634c-0.666-0.178-1.263-0.303-1.831-0.385c-7.015-1.5-13.872-3.539-21.013-4.706
	c-7.553-1.234-15.092-2.486-22.68-3.482c-15.588-2.048-31.316-3.211-47.035-3.471c-30.627-0.505-62.756,3.164-91.451,14.371
	c-1.739,0.679-2.725,2.838-2.402,4.208c-1.056,1.258-1.679,2.922-1.924,4.509c-0.332,2.148-0.204,4.881,1.989,5.632
	c-0.865,0.978-1.038,2.924,0.548,2.812c-0.479,0.49-0.822,1.089-0.9,1.74c-1.424,11.775,4.008,23.998,10.494,33.526
	c6.406,9.413,17.529,13.347,28.504,13.748c25.75,0.939,31.828-27.953,47.373-42.069c4.26-3.868,7.295-4.899,11.172-0.947
	c4.545,4.636,6.953,11.351,9.488,17.189c2.865,6.602,5.672,13.322,9.891,19.203c4.867,6.782,13.098,9.729,21.197,10.084
	c15.564,0.685,30.637-8.008,40.082-19.979c4.629-5.866,7.729-13.232,8.174-20.712c0.215-3.601,0.041-8.14-1.284-11.927
	c0.007-0.002,0.014-0.003,0.021-0.004c2.215-0.591,3.871-3.366,4.848-5.282c1.467-2.884,0.711-6.642-1.196-9.343
	C400.771,148.319,400.483,146.157,397.836,145.634z M302.028,140.391c15.111,0.186,30.17,1.556,45.127,3.678
	c7.521,1.068,14.984,2.449,22.455,3.818c6.166,1.129,13.622,1.798,19.712,4.278c1.349,1.581,3.014,2.026,5.557,2.115
	c0.402,0.014,0.805-0.068,1.202-0.195c0.075,0.913,0.048,1.844-0.046,2.794c-13.237-5.485-27.438-6.915-41.502-9.18
	c-15.785-2.543-31.742-3.678-47.727-3.432c-16.154,0.248-32.195,2.213-48.059,5.184c-7.586,1.42-15.115,3.109-22.602,4.988
	c-6.74,1.692-13.75,3.333-20.295,5.853c0.478-1.041,0.593-2.491-0.607-3.011c-0.371-0.16-0.668-0.376-1.088-0.451
	c0.041,0.02,0.08,0.04,0.119,0.061c-0.093-0.036-0.174-0.067-0.245-0.093c-0.151-0.229-0.198-0.654-0.191-0.997
	c0.017-1.014,0.548-1.98,0.999-2.892C243.256,143.726,272.177,140.023,302.028,140.391z M386.01,179.5
	c-0.078,4.468-2.172,8.898-4.674,12.486c-5.209,7.469-13.941,12.754-22.896,14.199c-7.818,1.262-15.852-0.713-20.725-7.148
	c-4.156-5.488-6.574-12.36-9.314-18.613c-4.852-11.072-11.945-26.868-26.844-21.93c-8.943,2.964-16.041,11.435-21.133,18.944
	c-5.502,8.116-10.49,20.791-20.254,24.612c-8.801,3.446-20.695,0.021-27.449-6.189c-7.955-7.314-13.869-19.672-15.865-30.156
	c-0.119-0.624-0.38-1.067-0.727-1.361c5.585-1.24,11.095-3.074,16.614-4.494c7.643-1.967,15.355-3.653,23.111-5.107
	c15.172-2.844,30.625-4.406,46.051-4.867c16.018-0.477,32.166,0.584,47.939,3.432c11.113,2.007,22.638,3.69,33.428,7.313
	c-1.584,2.187-1.957,5.114,0.381,6.918c1.133,0.874,1.32,4.063,1.695,5.328C385.983,175.01,386.049,177.282,386.01,179.5z"/>
<path fill="#010101" d="M270.061,161.669c-6.141-2.154-11.17,3.162-12.297,8.823c-0.932,4.679-0.168,10.332,2.314,14.409
	c0.499,0.819,1.207,1.232,2.01,1.362c0.408,0.422,0.845,0.822,1.346,1.172c2.021,1.412,5.494-0.429,6.625-2.201
	C273.172,180.357,278.168,164.513,270.061,161.669z"/>
<path fill="#010101" d="M350.137,163.927c-5.637-2.721-12.607,3.238-13.119,8.747c-0.405,4.359,0.814,13.059,4.853,16.136
	c0.434,0.498,0.884,0.976,1.374,1.406c3.096,2.718,7.283,0.182,8.936-2.931c1.787-3.364,1.879-7.981,2.045-11.675
	C354.397,171.753,354.178,165.879,350.137,163.927z M347.933,170.998C347.917,170.393,348.057,170.518,347.933,170.998
	L347.933,170.998z"/>
<path fill="#010101" d="M276.254,238.116c0.637-1.24,0.611-2.704-0.242-3.82c-2.836-3.711-9.568,0.464-12.498,2.009
	c-4.145,2.187-10.699,5.529-12.16,10.345c-0.441,1.45,0.822,2.661,2.225,2.534c3.071-0.279,6.372-2.381,9.398-4.186
	c2.013,4.134,6.957,7.34,10.662,9.049c7.396,3.412,15.746,4.024,23.775,3.917c14.943-0.2,31.633-3.544,44.756-10.954
	c4.139-2.336,4.297-9.424-1.637-7.889c-1.528,0.395-2.799,1.052-3.993,1.984c-10.659,5.212-23.356,7.384-34.97,8.07
	c-6.848,0.405-13.803-0.094-20.414-1.986c-3.014-0.861-5.746-2.408-8.285-4.209c-0.504-0.357-0.977-0.787-1.439-1.243
	C273.352,241.272,275,240.564,276.254,238.116z"/>
<path fill="#010101" d="M163.231,215.652c5.512,2.921,12.064,3.365,18.168,3.194c2.933-0.082,5.938-0.37,8.775-1.049
	c-0.131,11.88,0.672,23.763,3.1,35.138c4.717,22.101,18.324,41.067,36.656,53.968c8.756,6.161,18.693,10.831,29.127,14.253
	c-0.157,2.131-0.065,4.312-0.061,6.304c0.008,3.752,0.791,9.136-0.424,13.012c-0.128,0.12-0.263,0.236-0.383,0.364
	c-6.686,1.54-13.109,5.236-19.484,7.742c-6.836,2.688-13.768,5.131-20.691,7.581c-10.766,3.808-21.549,7.39-32.398,10.932
	c-9.9,3.231-19.689,6.811-29.09,11.312c-7.703,3.688-18.002,9.071-20.023,18.159c-0.204,0.917-0.251,1.722-0.18,2.434
	c-7.615,8.259-14.332,17.655-20.744,26.894c-9.885,14.248-19.715,28.501-28.639,43.38c-8.383,13.977-35.379,56.945-7.412,65.551
	c2.25,0.692,4.818,0.715,7.027-0.021c4.963-1.652,9.242-8.347,4.219-12.272c-1.168-0.914-2.811-0.985-4.213-1.37
	c-1.582-0.435,0.037,0.194-1.736-0.75c-0.186-0.099-0.363-0.21-0.539-0.325c0.085,0.039-0.465-0.398-0.651-0.59
	c-0.191-0.199-0.363-0.416-0.529-0.636c-0.111-0.166-0.243-0.37-0.307-0.502c-0.17-0.352-0.583-1.859-0.664-1.978
	c-0.122-0.844-0.177-1.698-0.19-2.549c-0.008-0.44,0.012-0.878,0.035-1.316c-0.04,0.884,0.09-0.748,0.115-0.936
	c0.17-1.27,0.439-2.524,0.727-3.771c2.861-12.377,10.844-26.083,17.828-37.928c8.094-13.729,17.225-26.793,25.543-40.373
	c3.598-5.875,7.324-11.672,10.549-17.763c1.531-2.892,3.007-5.665,3.932-8.65c3.259,0.411,7.445-1.184,9.293-3.99
	c0.219-0.359,0.463-0.699,0.732-1.021c0.357-0.588,0.715-1.176,1.073-1.764c0.001-0.001,0.002-0.001,0.004-0.002
	c-0.479,0.811-0.454,0.833,0.085,0.045c0.078-0.107,0.138-0.193,0.192-0.271c0.102-0.092,0.223-0.203,0.39-0.363
	c0.662-0.636,1.383-1.208,2.096-1.782c2.674-2.157,7.152-4.4,10.777-6.196c8.564-4.243,17.58-7.586,26.553-10.843
	c10.74-3.898,21.316-8.162,31.912-12.441c2.171-0.877,4.329-1.78,6.488-2.681c-6.662,9.531-11.503,20.448-16.268,30.954
	c-6.17,13.604-11.264,28.104-14.096,42.787c-1.174,6.077,4.846,7.116,9.152,5.112c-1.814,0.844,2.033-0.705,2.678-0.918
	c1.773-0.589,3.578-1.088,5.375-1.595c4.379-1.236,8.826-2.257,13.299-3.079c4.283-0.787,8.619-1.394,12.975-1.557
	c1.512-0.058,1.344-0.096,2.654,0.157c-3.465,7.235-5.872,15.059-8.613,22.606c-4.156,11.444-8.414,22.822-12.168,34.409
	c-1.188,3.664,2.125,6.643,5.586,6.364c16.652-1.341,33.459,8.145,48.686,13.724c9.595,3.517,22.213,6.182,30.523,13.092
	c0.052,1.183,0.574,2.332,1.76,3.266c2.076,1.635,2.627,2.567,5.475,2.938c4.313,0.561,9.444-3.056,10.364-7.301
	c1.987-1.748,3.825-3.736,5.657-5.301c4.492-3.84,13.346-8.087,19.539-11.82c14.607-8.803,29.156-19.146,45.215-25.137
	c4.109-1.533,7.898-5.756,6.475-10.403c-3.053-9.956-10.727-17.593-17.713-24.953c-3.295-3.471-6.564-7.09-9.088-11.168
	c-1.327-2.141-2.675-4.052-4.195-5.729c14.926-4.481,29.832-9.013,44.871-13.125c4.49-1.229,8.852-7.337,5.582-11.642
	c-6.893-9.079-14.482-17.577-21.852-26.265c-4.542-5.355-8.881-10.903-13.161-16.489c0.159,0.06,0.319,0.114,0.478,0.175
	c2.543,0.979,5.033,2.15,7.25,3.746c-0.717-0.515,0.838,1.029,1.094,1.388c1.537,2.165,4.492,2.38,6.84,1.63
	c5.283-1.689,8.479-7.982,4.895-12.605c-1.557-2.007-4.111-3.453-6.357-4.554c-6.209-3.042-13.266-4.564-19.938-6.218
	c-6.898-1.711-14.023-3.186-20.709-5.629c-2.672-0.977-5.316-1.93-7.686-3.539c-0.395-0.268-0.758-0.596-1.11-0.943
	c-0.587-5.232-0.614-10.519-1.271-15.722c27.673-12.466,51.161-35.336,61.5-63.369c3.912-10.611,4.936-21.469,5.58-32.672
	c0.136-2.374,0.241-4.75,0.329-7.126c21.816,1.175,38.765-16.027,40.017-38.102c0.631-11.119-4.369-22.193-12.613-29.532
	c-5.1-4.54-12.104-6.739-18.83-5.353c-3.09,0.638-6.326,2.184-8.863,4.071c-1.797,1.337-3.195,3.198-5.042,4.054
	c-1.72-6.317-3.996-12.428-7.022-18.115c1.11-0.38,2.153-0.986,2.985-1.807c5.381-5.313,7.396-13.449,8.771-20.689
	c1.479-7.802,2.016-16.045,1.869-23.977c-0.15-8.187-0.756-16.325-1.523-24.475c-0.332-3.533-0.832-7.063-1.318-10.578
	c-0.48-3.49-1.689-6.76-2.236-10.162c-0.43-2.665-3.568-0.784-4.098,0.829c-1.111,3.387-2.459,6.4-3.115,9.963
	c-0.668,3.629-0.973,7.312-1.295,10.983c-0.691,7.894-0.77,15.817-1.041,23.732c-0.256,7.443-0.463,14.913-1.533,22.292
	c-0.484,3.34-1.232,6.632-2.195,9.865c-0.428,1.437-1.087,2.772-1.716,4.115c-0.139-0.176-0.272-0.356-0.413-0.531
	c-3.932-4.863-13.059,3.249-9.422,8.268c15.047,20.762,16.982,48.72,17.273,73.561c0.141,12.118-0.023,24.605-1.762,36.616
	c-1.75,12.088-6.893,23.353-13.926,33.253c-14.072,19.811-36.727,35.807-60.352,41.569c-26.297,6.415-56.113,0.865-80.441-10.095
	c-20.809-9.375-36.949-26.394-44.762-47.847c-5.311-14.58-6.126-31-5.574-46.956c0.45-0.724,0.867-1.489,1.218-2.335
	c0.885-2.137,0.819-4.722-0.813-6.123c0.198-3.298,0.427-6.561,0.669-9.76c3.129-41.381,16.525-85.92,50.709-112.134
	c21.877-16.777,52.828-24.535,79.955-19.658c12.57,2.26,24.77,7.817,34.379,16.271c11.068,9.738,17.156,23.038,21.635,36.8
	c0.879,2.703,5.186,0.003,4.934-2.183c-1.176-10.197-4.562-19.904-9.788-28.488c1.593-1.042,2.941-2.395,3.62-3.754
	c1.336-2.676,1.613-5.989,2.25-8.892c0.785-3.586,1.627-7.166,2.148-10.803c0.701-4.895-0.066-10.141-0.453-15.044
	c-0.416-5.264-0.309-11.966-2.924-16.669c-1.107-1.987-3.918-0.807-4.648,0.948c-4.072,9.764-1.242,21.488-3.828,31.727
	c-0.797,3.148-2.021,6.199-3.143,9.24c-0.303,0.822-0.667,1.686-1.035,2.574c-3.812-4.194-8.134-7.961-12.942-11.158
	c-0.136-0.09-0.279-0.169-0.416-0.258c0.936-1.169,1.629-2.519,1.962-3.949c1.797-7.726,1.963-15.809,1.1-23.672
	c-0.797-7.242-1.41-16.335-6.049-22.248c-0.932-1.189-2.688,0.129-3.18,1.043c-3.607,6.722-3.85,14.791-4.234,22.279
	c-0.349,6.759-0.469,13.686-1.683,20.378c-7.005-2.725-14.456-4.348-22.005-5.071c3.212-5.625,2.725-13.86,2.304-19.831
	c-0.342-4.856-0.988-9.717-1.779-14.52c-0.613-3.731-1.016-7.883-2.793-11.27c-0.893-1.7-3.355-0.673-3.934,0.8
	c-2.906,7.406-1.729,16.427-1.92,24.229c-0.109,4.369-0.396,8.729-1.172,13.033c-0.45,2.494-1.643,4.743-2.044,7.115
	c-3.948,0.061-7.873,0.328-11.721,0.788c-2.4,0.287-4.791,0.664-7.173,1.1c-0.065-0.269-0.148-0.536-0.257-0.798
	c-0.043-0.106-0.088-0.213-0.131-0.319c-0.111-0.268-0.243-0.497-0.375-0.725c-0.211-7.552-0.916-15.06-1.588-22.585
	c-0.387-4.34-0.676-8.679-0.998-13.022c-0.242-3.281-0.137-6.636-1.965-9.481c-0.813-1.266-2.998-0.465-3.811,0.306
	c-6.762,6.407-7.043,17.981-7.229,26.684c-0.109,5.157,0.109,10.278,0.352,15.427c0.121,2.601-0.226,5.727,0.129,8.557
	c-5.524,1.81-10.927,4.005-16.144,6.57c0.186-0.796,0.416-1.729,0.418-1.81c0.031-1.122-0.332-2.183-0.621-3.257
	c-1.209-4.52-1.945-9.169-2.771-13.768c-0.848-4.722-1.479-9.432-1.752-14.22c-0.367-6.419,1.152-14.546-2.311-20.237
	c-1.023-1.68-3.643,0.281-4.164,1.367c-3.016,6.279-3.334,14.142-4.031,20.993c-0.5,4.916-0.094,9.814,0.352,14.719
	c0.389,4.299,0.334,17.81,5.113,21.583c-4.009,2.44-7.88,5.089-11.564,7.961c-1.953,1.522-3.841,3.12-5.675,4.775
	c-1.232-3.725-2.606-7.302-3.285-11.3c-0.967-5.695-1.211-11.494-1.398-17.258c-0.186-5.767-0.402-11.532-0.588-17.299
	c-0.143-4.438,0.094-10.917-3.703-13.906c-1.378-1.083-3.647,0.43-4.474,1.486c-3.418,4.369-3.666,11.008-4.223,16.322
	c-0.68,6.471-1.291,12.986-1.377,19.496c-0.084,6.231,0.266,12.497,1.217,18.658c0.82,5.314,2.129,11.684,5.563,15.972
	c0.113,0.142,0.232,0.267,0.351,0.393c-8.149,9.975-14.765,21.251-19.952,32.963c-0.611,1.379-1.198,2.769-1.771,4.163
	c-0.649-0.836-1.286-1.687-1.754-2.672c-1.457-3.058-2.355-6.475-3.008-9.785c-1.459-7.381-2.219-14.883-2.676-22.386
	c-0.398-6.539-0.789-12.998-1.623-19.503c-0.52-4.065-1.117-8.13-1.512-12.209c-0.35-3.635,0.412-7.514-0.205-11.072
	c-0.404-2.32-3.072-2.319-4.559-0.892c-6.102,5.861-5.891,17.422-5.869,25.254c0.023,7.631-0.195,15.258-0.148,22.884
	c0.051,8.366,0.443,16.81,2.117,25.022c1.35,6.621,3.672,17.766,11.391,19.633c0.862,0.209,1.782,0.18,2.704-0.007
	c-1.476,4.702-2.766,9.465-3.895,14.267c-1.239-0.963-2.397-3.407-2.905-4.123c-2.258-3.184-5.99-3.661-9.615-3.734
	c-7.531-0.152-14.758,6.518-19.564,11.68c-7.262,7.801-12.395,18.148-13.529,28.797
	C150.496,200.537,153.688,210.594,163.231,215.652z M416.803,157.322c2.176-0.915,3.912-2.458,5.723-3.937
	c2.264-1.85,5.41-1.697,8.117-1.141c9.439,1.944,14.986,14.172,16.246,22.668c1.137,7.672-0.65,15.558-5.479,21.658
	c-4.967,6.277-13.109,7.318-20.477,6.059c-0.278-0.048-0.557-0.064-0.836-0.066c-0.008-5.037-0.128-10.073-0.383-15.104
	c-0.493-9.736-1.409-19.979-3.471-29.926C416.428,157.469,416.614,157.401,416.803,157.322z M295.211,375.14
	c0.482,7.045,6.723,12.766,12.398,16.136c0.651,0.387,1.333,0.725,2.027,1.038c-1.333,4.023-3.015,7.942-4.833,11.794
	c-0.816,1.59-1.596,3.203-2.35,4.83c-0.933,1.876-1.876,3.741-2.803,5.599c-2.441,4.89-5.041,9.701-7.574,14.545
	c-1.68-3.117-3.421-6.198-5.254-9.224c-6.705-11.067-14.521-21.426-21.783-32.127c-7.157-10.545-13.026-21.536-18.942-32.764
	c3.077-1.356,6.168-2.794,9.064-4.501c1.134,5.897,8.071,11.091,12.82,13.237c8.928,4.034,18.944,5.017,28.629,5.315
	C295.584,370.834,295.058,372.915,295.211,375.14z M405.817,405.236c-16.513,4.437-32.775,9.873-49.172,14.677
	c-6.471,1.895-10.518,13.5-1.131,13.5c1.795,0,3.504-0.235,5.209-0.838c0.466-0.165,0.981-0.439,1.512-0.796
	c2.887,8.101,6.423,15.445,12.126,22.287c4.652,5.58,10.092,10.837,13.678,17.162c-12.747,5.703-24.991,13.329-36.486,20.865
	c-7.234,4.743-14.967,8.674-22.205,13.417c-2.305,1.511-4.387,3.202-6.414,5.058c-0.571,0.522-1.139,1.049-1.705,1.576
	c-9.149-7.528-22.479-10.587-33.078-14.481c-14.94-5.49-30.492-13.513-46.666-14.566c2.862-8.749,5.797-17.473,8.557-26.258
	c1.689-5.372,3.104-10.838,4.494-16.293c0.76-2.977,1.227-5.959,1.58-9.006c0.068-0.59,0.076-1.13,0.047-1.647
	c0.161-0.272,0.299-0.553,0.4-0.839c4.305-12.281-12.994-9.575-19.881-8.521c-6.892,1.056-14.072,2.367-20.925,4.452
	c2.385-10.266,5.754-20.305,9.46-30.157c3.758-9.995,8.555-19.794,12.033-29.942c2.572,10.223,8.657,19.589,14.12,28.435
	c7.1,11.497,15.258,22.316,22.219,33.902c14.947,24.877,23.486,53.204,40.846,76.695c0.035-0.038,0.07-0.075,0.105-0.113
	c5.337,5.674,17.042-3.889,12.09-10.59c-0.433-0.586-0.84-1.188-1.262-1.779c2.022-3.789,3.224-8.188,4.69-12.087
	c2.287-6.081,4.539-12.174,6.797-18.266c4.725-12.755,9.445-25.514,14.344-38.203c4.982-12.909,10.176-25.76,15.705-38.444
	c2.717-6.228,5.527-12.422,8.371-18.592c0.636-1.381,1.481-2.957,2.326-4.627C382.926,377.549,395.223,391.425,405.817,405.236z
	 M369.309,354.704c0.343,0.103,0.689,0.202,1.033,0.304c-1.655,2.493-3.071,5.176-4.424,7.439
	c-3.545,5.928-6.684,12.093-9.727,18.288c-6.402,13.029-12.125,26.343-17.559,39.8c-0.028,0.07-0.056,0.14-0.083,0.21
	c-0.284-0.719-0.577-1.436-0.875-2.151c0.29-1.181,0.298-2.427-0.077-3.675c-2.443-8.107-5.277-16.745-10.769-23.356
	c-0.018-0.274-0.063-0.542-0.126-0.805c0.915-0.81,1.754-1.76,2.471-2.903c2.787-4.446,3.266-9.358,2.525-14.484
	c-0.396-2.736-1.605-5.194-3.335-7.218c0.103-0.02,0.208-0.038,0.311-0.058c8.273-1.639,17.102-3.621,24.557-7.736
	c2.536-1.4,4.947-4.427,4.977-7.491C361.807,352.433,365.618,353.593,369.309,354.704z M343.996,321.877
	c-0.547,2.56-0.822,5.192-1.012,7.72c-0.492,6.563-0.527,13.479,0.715,19.967c0,0.003,0.001,0.006,0.002,0.01
	c-0.624,0.237-1.33,0.486-2.211,0.789c-3.85,1.322-7.803,2.336-11.77,3.236c-9.047,2.055-18.367,2.992-27.629,3.297
	c-8.457,0.277-17.523-0.188-25.568-3.053c-3.344-1.19-6.607-2.991-9.525-5.002c-0.692-0.477-1.29-1.063-1.856-1.681
	c0.229-0.217,0.433-0.446,0.602-0.688c0.098-0.141,0.197-0.281,0.295-0.422c1.318-1.889,1.99-4.459,0.628-6.26
	c-0.262-4.086-0.157-8.228-0.479-12.324c-0.103-1.303-0.174-2.766-0.299-4.259c12.411,3.37,25.311,5.085,37.637,5.455
	C317.133,329.072,330.911,326.625,343.996,321.877z M165.715,180.917c2.354-7.697,7.443-15.308,14.113-19.578
	c6.563-4.202,7.201,4.224,12.83,3.921c0.988-0.053,2.002-0.174,2.976-0.382c-1.522,7.59-2.669,15.252-3.501,22.916
	c-0.646,5.953-1.186,12.025-1.54,18.142c-1.743,0.274-3.501,0.442-5.259,0.576c-2.652,0.204-5.248,0.102-7.875-0.282
	c-3.951-0.576-7.547-2.169-10.195-5.189C162.487,195.596,163.787,187.229,165.715,180.917z"/>
<path fill="#010101" d="M422.676,184.931c1.746,2.976,5.32,2.527,7.699,0.409c4.186-3.73,3.436-8.817,0.609-13.024
	c-1.848-2.749-8.699-4.222-9.371,0.37c-0.258,1.768,0.482,3.942,0.871,5.697C422.971,180.574,421.453,182.847,422.676,184.931z"/>
<path fill="#010101" d="M179.663,190.849c1.594-0.129,3.389-1.12,4.268-2.479c0.969-1.499,1.818-3.057,1.975-4.872
	c0.066-0.765,0.295-1.442,0.311-2.228c0.006-0.408,0.008-0.409,0.006-0.002c0.019-0.154,0.021-0.309,0.034-0.463
	c0.024-0.101,0.045-0.2,0.062-0.298c0.546-0.809,0.821-1.983,0.119-2.782c-0.89-1.016-2.334-0.564-3.303,0.099
	c-0.058,0.016-0.117,0.027-0.173,0.045c-0.281,0.125-0.563,0.249-0.844,0.373c0.609-0.158,0.387-0.04-0.672,0.356
	c-1.188,0.821-2.244,1.524-3.211,2.636c-1.01,1.16-1.73,2.41-2.176,3.889c-0.539,1.79-0.148,3.188,0.783,4.72
	C177.361,190.697,178.786,190.92,179.663,190.849z"/>
<path fill="#010101" d="M461.369,335.488c-7.49,1.064-14.986,2.089-22.512,2.888c-7.205,0.765-14.742,0.325-21.811,1.89
	c-2.638,0.583-4.603,4.755-1.867,6.118c0.044,1.923,0.186,3.859,0.346,5.763c0.176,2.09,0.736,5.427,0.01,7.393
	c-1.189,3.211-0.072,6.855,3.988,6.527c0.898-0.073,1.913-0.422,2.889-0.958c0.975,0.1,1.958,0.146,2.946,0.156
	c0.003,0.002,0.005,0.005,0.009,0.007c1.971,1.396,4.436,1.695,6.348,3.27c2.082,1.716,3.023,4.464,3.828,6.936
	c2.088,6.413,1.268,13.566,0.883,20.166c-0.271,4.636-0.02,9.25-0.24,13.887c-0.119,2.486-1.12,6.935,0.427,9.242
	c-1.931,0.771-3.814,1.663-5.63,2.7c-6.088,3.477-11.615,11.265-5.51,17.369c2.219,2.218,5.08,3.84,8.171,5.092
	c-7.493,3.077-14.09,8.829-14.041,15.981c0.042,6.356,5.707,9.708,11.208,11.745c-0.478,0.462-0.918,0.956-1.31,1.476
	c-3.166,4.202-3.521,9.452-1.074,14.107c1.703,3.239,4.347,5.493,7.519,7.04c-1.79,7.687-2.505,15.525-2.95,23.458
	c-0.555,9.901-0.695,20.033,1.744,29.713c4.984,19.787,36.771,17.904,48.191,5.36c5.158-5.667,3.299-15.517,3.523-22.496
	c0.273-8.52,0.65-17.035,0.494-25.562c-0.052-2.825,0.169-9.527-1.511-13.922c5.377-2.794,9.895-6.893,12.606-13.083
	c1.958-4.472,2.191-9.446-0.453-13.56c3.059-2.554,5.603-5.656,7.365-9.425c2.573-5.506,1.586-10.539-1.301-14.273
	c3.056-2.48,5.424-5.692,6.506-9.736c2.795-10.442-7.08-16.977-15.893-14.061c-2.097-0.654-4.375-0.989-6.614-1.223
	c0.233-0.7,0.358-1.394,0.317-2.041c-0.658-10.235-1.068-20.63,0.121-30.839c0.631-5.423,1.646-10.7,3.67-15.787
	c0.869-2.187,2.005-3.967,3.358-5.591c3.457,0.042,7.411,0.564,10.656-0.498c2.601-0.852,5.869-5.039,5.704-8.036
	c0.238-1.627,0.217-3.393,0.15-5.207c-0.133-3.512-0.231-7.135-1.238-10.473c1.278-3.194,0.525-6.585-3.782-5.993
	c-7.465,1.025-15.209,0.734-22.74,1.525C476.348,333.324,468.856,334.425,461.369,335.488z M477.752,378.051
	c-0.873,3.462-1.49,6.994-1.923,10.563c-1.134,0.389-2.246,1.029-3.22,1.956c-3.045,2.899-7.861,3.956-12.494,4.339
	c-5.354,0.441-9.003-1.525-13.253-4.271c-0.045-1.582-0.097-3.161-0.138-4.747c-0.157-6.025-2.3-15.674-7.108-21.036
	c1.688-0.08,3.377-0.163,5.065-0.249c10.504-0.538,20.977-1.763,31.473-2.476c2.936-0.2,5.866-0.392,8.797-0.553
	C481.142,366.237,479.198,372.319,477.752,378.051z M433.942,429.809C433.928,429.767,433.938,429.766,433.942,429.809
	L433.942,429.809z M443.628,446.867c1.117,0.248,2.214,0.478,3.265,0.696c13.255,2.749,28.787,2.34,42.192-0.751
	c3.498,1.096,6.13,2.836,4.399,6.646c-1.588,3.494-6.221,5.366-9.568,6.61c-6.098,2.267-12.576,3.249-19.029,3.793
	c-6.135,0.519-12.322,0.36-18.428-0.407c-5.377-0.677-11.883-1.771-15.848-5.768C427.717,454.769,437.562,449.661,443.628,446.867z
	 M485.942,472.289c1.354,1.092,1.166,2.611,0.512,4.16c-2.518,5.955-10.82,6.904-16.346,7.889
	c-8.92,1.589-18.484,2.348-27.326-0.006c-2.559-0.681-6.313-3.462-6.762-6.268c-0.291-1.812,1.232-3.078,3.024-4.065
	c7.64,1.599,15.685,1.758,23.388,1.322c6.704-0.38,14.33-1.433,21.384-3.788C484.594,471.69,485.437,471.883,485.942,472.289z
	 M498.676,431.686c-0.021,0.12-0.645,0.974-0.377,0.713c-0.943,0.919-2.237,1.64-3.708,2.218c-4.363-1.184-9.26-0.792-13.458,1.798
	c-0.416,0.257-0.818,0.578-1.191,0.938c-9.581,0.991-19.541,1.041-28.939-0.785c-5.563-1.081-11.408-2.586-16.135-5.835
	c-0.367-0.252-0.585-0.456-0.722-0.612c1.826-1.434,5.931-2.684,8.056-3.364c8.744-2.802,18.51-3.153,27.619-3.5
	c5.806-0.22,12.257,0.273,18.359-0.269c0.191,0.867,0.793,1.618,1.965,2.013c1.496,0.504,2.512,1.304,4.152,1.523
	c1.533,0.205,3.26,0.844,4.012,2.283C498.789,429.724,498.846,430.716,498.676,431.686z M497.65,341.476
	c0.428,0.267,0.964,0.434,1.608,0.475c-0.145,0.026,0.269,0.166,1.26,0.423c0.797,0.147,1.585,0.044,2.374-0.07
	c-0.365,1.413-0.633,2.871-0.858,4.344c-0.18,1.173-0.353,2.342-0.57,3.502c-1.956,0.193-3.912,0.37-5.874,0.493
	c-6.396,0.4-12.752,1.123-19.125,1.818c-9.965,1.088-19.93,2.155-29.889,3.301c-6.44,0.741-13.605,0.746-20.243,2.042
	c-0.65-3.298-1.321-7.031-2.883-10.146c3.958,0.06,8.028-0.385,11.703-0.59c7.486-0.417,14.938-1.28,22.381-2.155
	c7.449-0.876,14.893-1.787,22.367-2.419C485.491,342.022,491.77,341.186,497.65,341.476z"/>
<path fill="#010101" d="M426.188,294.375c-3.918,2.514-6.203,6.544-6.934,11.096c-1.299,8.09,5.961,12.978,13.373,12.393
	c8.939-0.706,17.91-10.143,15.305-19.324c-0.992-3.496-4.803-5.259-7.977-6.08c-2.174-0.562-4.638-0.384-6.976,0.33
	C430.633,292.476,428.003,293.211,426.188,294.375z"/>
<path fill="#010101" d="M471.678,319.023c-0.108,0.4-0.158,0.831-0.183,1.271c-0.127,0.986-0.064,2.06,0.366,2.944
	c0.486,0.999,1.344,2.389,2.453,2.82c0.358,0.14,0.716,0.274,1.077,0.398c0.513,0.284,1.074,0.481,1.685,0.588
	c0.076,0.013,0.152,0.024,0.229,0.037c2.846,0.461,5.695-0.704,7.816-2.565c2.023-1.775,3.803-4.604,3.559-7.417
	c-0.007-0.08-0.02-0.158-0.027-0.238c0.04-0.475-0.013-0.727,0.008-1.267c-0.059-1.345-0.521-2.532-1.387-3.561
	c-1.357-1.546-3.439-2.095-5.426-1.934c-2.396,0.194-4.67,1.325-6.461,2.896C473.52,314.634,472.319,316.641,471.678,319.023z"/>
<path fill="#010101" d="M454.469,274.237c-2.07,4.996-1.146,10.275,3.357,13.5c4,2.862,9.742,2.119,13.713-0.363
	c7.219-4.517,10.574-13.12,5.936-20.663c-2.16-3.513-6.945-4.226-10.607-3.058c-0.854,0.272-1.661,0.619-2.43,1.017
	c-0.201,0.05-0.4,0.103-0.595,0.162C459.418,266.169,456.182,270.11,454.469,274.237z"/>
<path fill="#010101" d="M440.347,253.667c1.471,0.238,2.916,0.122,4.332-0.351c0.072-0.024,0.139-0.057,0.211-0.082
	c0.536-0.074,1.059-0.192,1.544-0.346c2.865-0.916,5.242-3.08,6.564-5.761c0.727-1.474,1.277-3.081,1.188-4.751
	c-0.08-1.518-0.766-2.926-1.838-3.976c-0.344-0.338-0.715-0.694-1.117-0.997c-1.352-1.108-3.193-1.586-4.998-1.439
	c-3.457,0.28-6.348,2.331-8.492,4.934c-1.596,1.936-2.303,4.334-2.328,6.798c-0.012,1.165,0.588,3.283,1.529,4.104
	C437.865,252.809,438.999,253.431,440.347,253.667z"/>
<path fill="#010101" d="M527.58,540.536c-0.299,0.538-2.012,2.455-2.58,2.971c-0.73,0.664-2.248,1.564-2.891,1.827
	c-2.494,1.019-5.213,1.125-7.645,2.145c-3.01,1.262-5.668,3.433-6.387,6.79c-0.594,2.769,0.793,5.388,3.65,5.977
	c5.695,1.174,13.041-1.992,17.65-5.198c4.98-3.465,8.781-7.932,11.145-13.552c4.447-10.575,3.5-22.742,1.289-33.722
	c-2.473-12.289-6.658-24.128-11.543-35.647c-3.531-8.321-8.018-16.041-11.992-24.13c-0.797-1.625-3.475,0.162-2.883,1.644
	c2.928,7.342,4.934,15.111,7.236,22.667c3.285,10.784,6.061,21.78,7.707,32.941c1.484,10.057,2.26,20.679-0.615,30.558
	C529.344,537.108,528.457,538.963,527.58,540.536z"/>
<path fill="#010101" d="M144.846,540.739c-0.137,1.725,1.6,3.662,3.309,3.771c13.461,0.853,27.016-1.554,40.506-1.438
	c3.967,0.033,7.936,0.066,11.902,0.1c2.717,0.023,5.068,0.563,7.963-0.101c2.808-0.644,4.738-2.816,5.622-5.198
	c0.831-1.523,1.159-3.137,0.754-4.513c4.697-6.146,1.948-18.789,1.128-25.365c-0.964-7.72-1.557-17.232-4.396-25.155
	c2.306-2.364,3.691-5.994,1.508-7.404c1.188-3.419,1.237-7.427,1.314-10.826c0.097-4.283,0.291-10.032-1.406-14.308
	c0.16-1.81-0.794-3.23-3.501-2.891c-18.833,2.366-38.359,0.755-56.994,4.547c-0.959-0.872-2.787-0.082-3.406,1.032
	c-1.367,1.05-2.089,3.191-1.247,4.293c-1.781,8.3-0.77,17.617-1.076,25.902c-0.037,0.972,0.396,1.718,1.038,2.249
	c-1.43,7.442-1.214,15.542-1.512,22.824C145.908,519.088,145.709,529.932,144.846,540.739z M204.724,456.543
	c0.548,0.062,1.113,0.055,1.718,0.008c-0.432,2.952-0.604,5.987-1.029,8.797c-0.414,2.729-0.826,5.453-1.525,8.127
	c-0.099,0.376-0.294,0.75-0.522,1.143c-3.905,0.02-7.823,0.186-11.688,0.207c-11.764,0.063-23.487,0.719-35.2,1.713
	c-0.276-3.733-0.671-7.472-1.056-11.185c-0.257-2.487-0.448-5.087-0.913-7.605C171.241,457.031,187.992,457.22,204.724,456.543z
	 M192.073,530.563c-11.838,0.1-23.724,1.188-35.541,2.146c-0.576-8.438-0.811-16.899-1.129-25.353
	c-0.199-5.246-0.488-10.48-0.889-15.715c-0.138-1.798-0.249-3.641-0.456-5.47c11.571-0.606,23.136-1.249,34.729-1.186
	c5.132,0.027,10.376,0.344,15.54,0.192c-0.189,7.578,0.701,15.282,0.845,22.782c0.1,5.219,0.041,10.439-0.482,15.637
	c-0.287,2.846-0.641,3.144-1.414,5.881c-0.091,0.321-0.159,0.656-0.209,0.997C199.403,530.536,195.736,530.532,192.073,530.563z"/>
<path fill="#010101" d="M27.262,355.844c6.379,4.827,17.045,0.649,23.422-1.889c4.117-1.639,8.177-3.469,12.196-5.406
	c1.487,9.346,4.594,18.382,10.293,26.09c5.543,7.496,14.064,7.621,21.018,2.057c6.929-5.544,10.25-15.469,12.589-23.8
	c6.827,2.54,14.152,3.931,20.641,3.505c7.797-0.512,14.637-7.119,12.424-15.218c-1.18-4.313-4.131-8.126-6.889-11.552
	c-4.347-5.396-9.183-10.467-13.97-15.486c0.021-0.021,0.042-0.04,0.063-0.061c9.02-8.986,17.635-20.405,21.67-32.581
	c1.525-4.605,2.234-10.441-1.436-14.269c-4.871-5.078-13.594-3.353-18.896-0.206c-0.174,0.103-0.348,0.223-0.519,0.357
	c-5.448,1.505-10.684,3.553-15.878,5.829c-0.977-1.249-2.063-2.38-3.267-3.355c0.57-0.48,0.917-1.219,0.68-1.934
	c-2.396-7.228-9.348-11.883-16.938-9.873c-7.248,1.919-11.815,9.779-14.562,16.163c-1.579-0.879-3.163-1.747-4.744-2.615
	c-4.853-2.667-10.312-5.531-15.916-6.75c-0.017-0.998-0.553-1.896-1.858-2.315c-4.795-1.541-9.625,0.896-11.873,5.329
	c-2.068,4.083-0.504,9.374,1.213,13.273c3.631,8.247,9.173,15.886,15.149,23.032c-11.379,9.26-21.732,20.576-26.698,34.299
	C23.105,344.19,21.699,351.637,27.262,355.844z M95.249,285.21c1.571,2.892,2.637,6.07,3.365,9.294
	c-2.641-2.288-5.336-4.51-8.086-6.665C92.091,286.941,93.669,286.074,95.249,285.21z M78.143,295.472
	c7.838,5.732,15.075,12.306,21.993,19.142c-0.009,0.251-0.015,0.502-0.025,0.753c-4.239,2.792-8.547,5.479-12.912,8.074
	c-4.609-4.405-9.092-8.953-13.454-13.614c0.193-4.035,0.479-8.042,0.842-11.978C75.776,297.044,76.962,296.25,78.143,295.472z
	 M99.006,328.567c-0.182,1.589-0.374,3.18-0.579,4.772c-1.079-0.819-2.146-1.675-3.207-2.568
	C96.476,330.046,97.74,329.312,99.006,328.567z M73.753,331.069c-0.055-0.977-0.088-1.961-0.126-2.944
	c0.641,0.657,1.287,1.309,1.934,1.959C74.959,330.414,74.356,330.741,73.753,331.069z M87.528,368.937
	C87.955,368.827,88.26,369.183,87.528,368.937L87.528,368.937z M94.53,353.997c-1.164,4.259-2.797,8.367-4.949,12.225
	c-0.631,1.131-1.396,1.987-2.042,2.595c0.227-0.239-0.046-0.112-0.255,0.031c-4.071-1.633-6.398-7.311-8.09-10.925
	c-2.309-4.928-3.571-10.179-4.349-15.519c2.881-1.566,5.736-3.172,8.57-4.796c2.677,2.429,5.416,4.779,8.239,7.006
	c1.357,1.07,2.84,2.089,4.401,3.059C95.603,349.798,95.101,351.909,94.53,353.997z M128.266,347.676
	c0.004-0.028,0.013-0.055,0.019-0.083c0.019,0.046,0.031,0.072,0.039,0.09C128.309,347.661,128.285,347.642,128.266,347.676z
	 M127.134,344.901c-2.264-0.143-4.542-0.678-6.7-1.18c-3.989-0.928-7.555-2.156-10.856-3.656c0.751-4.612,1.307-9.264,1.822-13.862
	c2.788,2.976,5.552,5.975,8.286,8.998C122.379,338.179,125.29,341.275,127.134,344.901z M117.708,274.25
	c0.414,0.5,1.054,0.887,1.999,1.086c2.676,0.563,7.082,0.261,8.893,1.057c0.617,0.271,0.645,0.428,0.834,0.912
	c0.234,0.592,0.133,1.128-0.102,2.374c-1.184,6.319-5.879,12.674-9.742,17.909c-2.457,3.331-4.55,5.93-6.947,8.305
	c-0.062-4.844-0.451-9.674-1.329-14.442c-0.73-3.962-1.944-8.435-3.859-12.504C110.836,277.318,114.256,275.757,117.708,274.25z
	 M79.843,274.358c2.316-5.667,5.053-10.963,11.734-7.827c0.131,0.062,0.257,0.132,0.387,0.195c-3.782,0.978-7.422,5.796-4.691,9.096
	c1.058,1.279,2.24,2.437,3.403,3.608c-2.25,1.125-4.473,2.297-6.678,3.498c-0.118-0.084-0.232-0.174-0.351-0.258
	c-1.787-1.272-3.624-2.471-5.486-3.629C78.666,277.455,79.217,275.888,79.843,274.358z M65.637,287.284
	c-0.627,2.609-1.153,5.24-1.58,7.873c-0.704,0.48-1.408,0.961-2.107,1.448c-0.679-0.798-1.363-1.592-2.034-2.394
	c-4.089-4.886-8.183-9.988-11.524-15.478c2.369,0.953,4.757,1.842,6.92,2.918C58.799,283.383,62.252,285.28,65.637,287.284z
	 M37.307,336.614c4.499-10.048,11.861-18.517,20.267-25.868c1.483,1.664,2.962,3.3,4.421,4.911
	c-0.354,6.953-0.405,13.931-0.212,20.762c0.009,0.308,0.026,0.617,0.037,0.925c-4.308,2.196-8.671,4.316-13.13,6.135
	c-3.504,1.43-7.938,3.286-11.779,2.746c-1.408-0.198-1.588-0.604-1.699-2.031C35.039,341.962,36.227,339.029,37.307,336.614z"/>
<path fill="#010101" d="M82.771,313.79c5.559,0,9.342-9.941,2.131-9.941C79.342,303.848,75.561,313.79,82.771,313.79z"/>
</svg>
