<?xml version="1.0" encoding="UTF-8" standalone="no"?><!DOCTYPE svg PUBLIC "-//W3C//DTD SVG 1.1//EN" "http://www.w3.org/Graphics/SVG/1.1/DTD/svg11.dtd"><svg width="100%" height="100%" viewBox="0 0 511 494" version="1.1" xmlns="http://www.w3.org/2000/svg" xmlns:xlink="http://www.w3.org/1999/xlink" xml:space="preserve" style="fill-rule:evenodd;clip-rule:evenodd;stroke-linejoin:round;stroke-miterlimit:1.41421;"><g id="scissors"><path d="M259.518,356.221c-8.736,-1.584 -16.398,-1.483 -24.987,1.109c-9.546,2.882 -18.234,7.388 -26.703,12.594c-16.954,10.422 -30.764,26.944 -37.781,45.569c-6.726,17.847 -4.72,36.682 6.44,52.148c6.094,8.446 15.654,16.015 25.453,19.532c12.514,4.492 26.293,3.666 39.133,1.173c25.906,-5.03 47.968,-20.874 54.89,-47.124c5.644,-21.401 6.093,-46.529 -7.262,-65.08c-11.406,-15.844 -33.109,-21.126 -51.593,-18.665c-24.193,3.221 -49.142,17.324 -61.34,38.984c-3.981,7.069 -7.686,15.614 -3.049,23.072c3.319,5.339 12.242,2.298 15.019,-2.177c1.851,-2.983 3.563,-5.632 4.703,-8.987c0.929,-2.737 1.877,-5.472 3.052,-8.115c2.206,-4.963 6.239,-9.156 10.18,-12.767c7.749,-7.1 15.508,-10.396 24.147,-12.378c6.616,-1.518 15.189,-1.417 22.334,1.147c7.616,2.734 13.959,7.653 18.271,14.743c5.48,9.01 6.689,19.376 6.195,29.717c-0.506,10.559 -1.38,22.041 -6.229,31.653c-4.777,9.471 -12.53,14.721 -21.021,17.441c-10.686,3.425 -21.884,4.543 -32.824,1.688c-7.011,-1.83 -13.537,-7.719 -18.405,-12.813c-4.565,-4.777 -7.674,-10.543 -9.607,-16.838c-3.648,-11.875 -0.324,-25.397 5.206,-36.113c6.004,-11.636 15.268,-22.973 25.802,-30.801c10.658,-7.921 24.888,-14.172 38.235,-15.166c1.622,-0.118 4.683,-3.012 1.741,-3.546Z" style="fill:#010101;fill-rule:nonzero;"/><path d="M262.246,247.95c9.846,6.066 12.968,19.576 14.983,30.22c2.203,11.638 0.982,23.241 -3.529,34.156c-4.272,10.337 -11.854,19.297 -19.581,27.224c-4.39,4.502 -9.544,8.383 -13.698,13.084c-3.894,4.402 -9.241,7.53 -11.654,13.102c-1.11,2.563 2.505,3.492 4.26,2.956c6.857,-2.092 11.92,-6.92 17.783,-10.78c6.104,-4.019 11.543,-9.963 16.59,-15.197c9.351,-9.693 17.25,-20.757 21.865,-33.486c4.74,-13.074 4.292,-26.975 0.438,-40.18c-3.541,-12.131 -9.492,-28.686 -25.095,-25.93c-2.046,0.36 -4.984,3.214 -2.362,4.831Z" style="fill:#010101;fill-rule:nonzero;"/><path d="M439.198,0.96c-8.664,6.976 -15.117,17.862 -21.392,26.958c-7.263,10.53 -14.476,21.084 -21.633,31.686c-14.449,21.4 -28.612,42.993 -43.032,64.414c-13.965,20.745 -27.512,41.896 -42.103,62.205c-13.91,19.361 -25.159,40.462 -40.095,59.109c5.24,0.312 10.48,0.623 15.721,0.936c1.016,-2.959 0.948,-5.246 0.135,-8.227c-1.734,-6.359 -13.519,-0.784 -14.694,3.494c-0.514,1.87 -1.198,3.666 -1.972,5.443c-1.307,3.005 1.396,5.501 4.116,5.972c4.583,0.794 8.793,-1.642 11.604,-5.036c14.837,-17.907 25.775,-38.634 39.009,-57.68c14.589,-20.996 28.665,-42.366 42.734,-63.713c13.781,-20.91 27.655,-41.785 40.99,-62.983c6.681,-10.619 13.296,-21.264 19.712,-32.045c3.122,-5.245 6.031,-10.612 9.035,-15.927c2.432,-4.304 5.297,-8.941 5.89,-13.908c0.239,-1.992 -3.201,-1.361 -4.025,-0.698Z" style="fill:#010101;fill-rule:nonzero;"/><path d="M442.955,1.004c-8.886,-2.764 -19.038,0.805 -27.359,4.049c-9.781,3.813 -18.71,9.561 -26.982,15.968c-17.713,13.72 -32.208,31.099 -45.315,49.148c-13.061,17.984 -24.513,37.083 -36.114,56.021c-13.537,22.096 -27.216,43.967 -40.1,66.469c-3.731,6.516 -7.353,13.074 -11.756,19.162c-3.297,4.559 -7.229,9.696 -8.185,15.375c-0.943,5.603 1.844,9.583 6.588,12.27c2.082,1.18 4.594,1.739 6.859,2.418c-0.028,-0.009 1.479,0.525 1.927,0.716c1.093,0.466 -0.198,-3.485 -0.728,-2.119c-1.134,2.927 1.246,5.279 3.964,5.75c3.974,0.688 9.037,-1.349 11.174,-4.85c2.266,-3.711 2.187,-7.906 -2.025,-10.108c-2.979,-1.558 -6.698,-1.56 -9.437,-3.414c-3.153,-2.135 -0.418,-5.625 1.079,-8.051c3.001,-4.86 6.521,-9.312 9.386,-14.269c8.151,-14.102 15.88,-28.442 24.19,-42.454c5.618,-9.473 11.765,-18.625 17.523,-28.015c22.703,-37.018 44.323,-76.502 77.626,-105.251c6.948,-5.997 14.683,-10.824 22.639,-15.352c7.91,-4.5 16.782,-6.839 24.723,-11.252c0.661,-0.369 1.477,-1.851 0.323,-2.211Z" style="fill:#010101;fill-rule:nonzero;"/><path d="M427.304,7.494c-16.864,11.39 -30.851,25.506 -43.929,40.981c-6.613,7.826 5.605,9.845 10.605,4.914c11.905,-11.744 25.185,-21.715 34.342,-35.993c4.374,-6.819 -6.11,-6.77 -9.775,-4.554c-23.367,14.122 -42.229,34.828 -60.318,54.965c4.112,1.252 8.225,2.504 12.338,3.756c11.456,-15.391 27.564,-26.588 38.857,-42.177c4.402,-6.077 -4.775,-7.767 -8.79,-5.995c-13.227,5.84 -24.354,15.848 -33.992,26.436c-10.137,11.134 -18.918,23.554 -25.494,37.108c-1.31,2.698 1.367,5.024 3.748,5.438c3.955,0.685 8.289,-1.368 10.567,-4.586c16.01,-22.607 34.765,-43.33 54.708,-62.521c-3.888,-1.184 -7.774,-2.367 -11.662,-3.551c-15.932,28.457 -46.664,46.969 -56.286,79.275c-2.291,7.691 10.129,5.814 13.147,2.277c17.71,-20.758 37.417,-39.646 56.063,-59.538c-3.638,-1.686 -7.274,-3.371 -10.912,-5.057c-18.114,21.66 -38.017,41.928 -50.979,67.319c4.71,0.279 9.42,0.561 14.13,0.84c9.826,-23.199 29.519,-40.91 46.514,-58.855c-3.897,-1.187 -7.795,-2.373 -11.692,-3.561c-10.738,20.887 -28.736,36.756 -42.904,55.191c-15.757,20.505 -29.039,42.713 -44.206,63.632c4.935,0.294 9.869,0.587 14.804,0.881c11.055,-27.676 28.882,-51.969 43.988,-77.489c4.511,-7.619 -7.944,-7.575 -11.621,-3.538c-22.843,25.082 -42.643,52.85 -61.127,81.244c4.947,-0.22 9.894,-0.439 14.841,-0.659c2.063,-15.527 10.913,-29.75 19.273,-42.625c9.158,-14.104 19.564,-27.404 28.029,-41.954c1.738,-2.987 0.688,-6.089 -2.913,-6.713c-3.708,-0.642 -8.176,1.266 -10.226,4.438c-22.635,35.028 -43.212,71.651 -68.642,104.782c4.987,0.297 9.975,0.593 14.963,0.89c6.205,-25.066 29.326,-42.498 44.345,-62.272c-4.78,-0.284 -9.562,-0.568 -14.343,-0.854c-6.919,15.709 -19.951,28.196 -30.133,41.77c-9.669,12.891 -13.821,29.524 -24.359,41.707c4.537,0.786 9.074,1.572 13.611,2.357c9.075,-22.746 27.505,-40.555 43.411,-58.603c-4.528,-0.784 -9.058,-1.569 -13.587,-2.354c-12.463,29.024 -36.579,51.226 -47.65,81.092c5.244,-0.226 10.486,-0.452 15.73,-0.678c8.282,-24.676 29.284,-44.402 47.761,-61.8c-4.342,-1.322 -8.685,-2.645 -13.026,-3.967c-15.224,25.047 -31.217,49.613 -46.554,74.59c5.058,0.301 10.116,0.602 15.175,0.902c6.936,-20.729 23.859,-36.163 34.866,-54.636c-5.036,-0.3 -10.072,-0.6 -15.108,-0.899c-4.107,18.829 -19.854,33.951 -30.639,49.221c5.166,-0.229 10.332,-0.459 15.498,-0.688c0.17,-4.008 1.492,-7.458 4.258,-10.396c-4.716,-0.816 -9.431,-1.634 -14.146,-2.45c-0.401,2.063 -0.923,4.049 -1.58,6.045c-0.284,0.815 -0.605,1.616 -0.963,2.401c-1.533,2.139 -0.531,1.864 3.007,-0.821c-3.603,0.628 -8.432,3.978 -8.38,8.064c0.056,4.413 5.387,4.647 8.524,4.1c9.686,-1.689 14.013,-11.896 15.601,-20.486c1.548,-8.374 -10.465,-6.422 -14.146,-2.45c-5.244,5.66 -8.48,12.072 -8.719,19.875c-0.252,8.248 13.074,2.812 15.498,-0.688c11.302,-16.328 27.62,-32.451 32.072,-52.408c2.009,-9.002 -12.169,-5.787 -15.108,-0.899c-11.768,19.563 -29.259,35.666 -36.493,57.806c-2.877,8.807 12.313,5.632 15.175,0.902c15.169,-25.063 31.144,-49.621 46.427,-74.611c1.488,-2.434 1.394,-5.449 -1.482,-6.778c-3.824,-1.767 -8.677,0.125 -11.544,2.812c-20.356,19.073 -42.808,40.754 -51.704,67.94c-1.27,3.88 2.496,5.939 5.846,5.798c3.976,-0.169 8.472,-2.574 9.885,-6.476c10.795,-29.808 34.906,-52.155 47.49,-81.084c1.23,-2.83 -1.316,-5.181 -3.877,-5.624c-3.264,-0.565 -7.482,0.765 -9.71,3.271c-17.699,19.916 -37.607,39.333 -47.405,64.651c-3.019,7.802 10.65,5.843 13.611,2.357c11.342,-13.354 16.195,-30.618 26.455,-44.717c10.816,-14.863 23.656,-27.94 31.494,-44.795c1.264,-2.72 -1.332,-5.028 -3.756,-5.448c-4.111,-0.712 -8.11,1.455 -10.587,4.595c-16.306,20.668 -40.044,38.523 -46.476,65.306c-0.713,2.972 0.914,5.163 3.918,5.684c4.232,0.732 8.536,-1.484 11.045,-4.794c25.216,-33.257 44.582,-70.251 67.589,-104.964c-4.38,-0.759 -8.759,-1.517 -13.139,-2.275c-17.286,28.919 -45.937,55.619 -50.006,90.569c-0.36,3.092 3.679,4.225 5.95,4.128c3.335,-0.142 7.067,-1.9 8.891,-4.787c17.395,-27.54 36,-54.5 57.803,-78.768c-3.874,-1.18 -7.747,-2.359 -11.621,-3.538c-15.613,26.828 -35.617,51.102 -46.828,80.362c-1.098,2.865 1.21,5.161 3.876,5.623c4.097,0.71 8.563,-1.419 10.928,-4.742c14.921,-20.971 28.144,-43.051 43.45,-63.763c13.803,-18.676 31.752,-34.371 42.424,-55.273c4.041,-7.916 -7.848,-7.642 -11.692,-3.561c-18.826,19.979 -39.974,38.52 -50.791,64.398c-3.141,7.513 11.615,5.821 14.13,0.84c12.29,-24.348 30.939,-44.031 48.489,-64.583c6.8,-7.963 -5.858,-10.34 -10.912,-5.057c-18.875,19.733 -38.62,38.613 -56.379,59.392c4.382,0.76 8.765,1.519 13.147,2.277c9.144,-30.588 38.343,-49.534 53.991,-76.414c1.281,-2.201 1.285,-4.861 -1.328,-6.068c-3.427,-1.584 -7.762,0.115 -10.334,2.518c-21.161,19.764 -41.088,41.317 -57.733,65.058c4.771,0.284 9.544,0.567 14.315,0.852c5.23,-10.919 12.548,-21.073 20.463,-30.189c7.852,-9.045 17.021,-18.206 28.168,-23.034c-2.931,-1.998 -5.86,-3.997 -8.79,-5.995c-11.408,15.483 -27.737,26.47 -38.986,42.155c-1.588,2.215 -1.183,5.225 1.405,6.42c3.37,1.557 8.546,0.086 10.933,-2.664c16.884,-19.452 34.306,-39.521 56.447,-53.152c-3.259,-1.518 -6.518,-3.036 -9.775,-4.554c-8.341,13.282 -21.668,22.331 -32.689,33.202c3.907,1.189 7.813,2.379 11.72,3.568c9.3,-15.355 22.992,-28.914 37.125,-39.841c5.194,-4.019 -0.514,-7.686 -4.918,-4.711Z" style="fill:#010101;fill-rule:nonzero;"/><path d="M239,239.739c1.076,1.523 3.328,1.904 4.919,2.746c2.08,1.1 4.105,1.908 5.982,3.385c4.515,3.551 7.658,8.396 10.502,13.296c5.586,9.626 8.078,19.45 8.508,30.485c0.436,11.22 -0.994,22.441 -4.691,33.057c-1.797,5.16 -4.389,9.84 -7.732,14.156c-3.092,3.992 -6.81,7.449 -8.077,11.611c-0.564,1.855 0.666,3.459 2.551,3.7c15.386,1.967 25.767,-14.644 31.005,-26.791c5.383,-12.483 6.996,-26.861 6.604,-40.345c-0.378,-12.992 -3.755,-25.223 -10.67,-36.286c-3.767,-6.025 -8.397,-11.423 -14.339,-15.362c-6.266,-4.156 -15.823,-5.871 -22.257,-1.008c-2.513,1.899 -4.357,4.452 -2.305,7.356Z" style="fill:#010101;fill-rule:nonzero;"/><path d="M249.916,238.223c4.944,-4.134 8.972,-9.604 13.612,-14.115c2.721,-2.645 11.066,-8.972 8.412,-13.502c-0.49,-0.838 -1.447,-1.274 -2.425,-1.151c-6.87,0.864 -11.639,6.979 -16.15,11.722c-3.96,4.162 -10.71,10.334 -10.296,16.649c0.235,3.585 5.314,1.678 6.847,0.397Z" style="fill:#010101;fill-rule:nonzero;"/><path d="M248.049,237.279c4.223,-3.423 7.446,-8.299 11.11,-12.316c3.354,-3.677 8.071,-7.771 9.012,-12.869c0.17,-0.924 0.277,-1.976 -0.574,-2.657c-5.348,-4.274 -12.774,5.103 -15.821,8.493c-4.125,4.589 -12.008,12.14 -11.279,18.911c0.422,3.928 5.754,1.896 7.552,0.438Z" style="fill:#010101;fill-rule:nonzero;"/><path d="M260.006,215.306c0.047,0 0.09,-0.072 0.023,-0.072c-0.046,0 -0.089,0.072 -0.023,0.072Z" style="fill:#010101;fill-rule:nonzero;"/><path d="M362.748,155.027c18.637,-6.051 35.092,-16.139 51.405,-26.889c8.352,-5.503 16.578,-11.182 24.666,-17.063c7.785,-5.663 14.866,-12.246 22.744,-17.844c10.185,-7.237 20.814,-13.66 31.221,-20.539c3.573,-2.362 5.432,-3.109 9.274,-4.997c-1.635,0.665 -3.349,0.885 -5.142,0.659c2.438,0.147 2.506,0.15 0.202,0.01c2.782,0.442 5.297,-0.491 7.668,-1.857c-6.571,1.807 -7.87,2.37 -3.897,1.691c1.398,-0.334 2.697,-0.898 3.897,-1.691c0.993,-0.572 2.308,-1.809 2.894,-2.823c1.898,-3.291 0.645,-6.212 -3.066,-7.066c-7.779,-1.792 -16.154,7.279 -21.887,11.281c-10.174,7.103 -20.609,13.786 -30.494,21.309c-7.19,5.473 -13.645,11.804 -20.736,17.359c-7.341,5.751 -14.821,11.342 -22.502,16.632c-15.295,10.535 -31.495,19.721 -47.264,29.488c-1.544,0.955 -0.785,2.925 1.017,2.34Z" style="fill:#010101;fill-rule:nonzero;"/><path d="M504.104,60.243c-3.71,6.862 -6.447,14.203 -10.152,21.111c-4.068,7.583 -8.876,14.873 -13.835,21.898c-10.207,14.46 -22.024,26.41 -36.616,36.496c-16.314,11.276 -34.223,19.515 -51.56,28.994c-9.11,4.982 -17.96,10.428 -26.983,15.562c-4.448,2.531 -8.962,4.915 -13.617,7.044c-4.066,1.86 -9.019,2.179 -13.512,5.738c5.302,0.918 10.603,1.836 15.904,2.754c-0.072,-0.385 -0.039,-0.752 0.1,-1.104c1.336,-5.783 -5.65,-5.972 -9.391,-4.455c-1.249,0.688 -1.67,0.85 -1.264,0.482c-4.475,1.278 -12.566,5.92 -9.973,11.898c2.832,6.524 14.174,3.17 17.616,-0.867c1.766,-1.881 0.718,-1.415 -3.144,1.4c1.477,-0.326 2.852,-0.888 4.123,-1.687c2.561,-1.382 5.238,-2.568 7.814,-3.929c4.999,-2.641 9.962,-5.336 14.858,-8.162c9.488,-5.475 18.758,-11.317 28.317,-16.672c18.161,-10.173 36.662,-19.184 53.485,-31.61c14.905,-11.011 27.054,-24.073 37.119,-39.584c4.849,-7.472 9.036,-15.259 12.441,-23.491c2.611,-6.311 5.733,-15.836 3.354,-22.556c-0.718,-2.037 -4.384,-0.555 -5.084,0.74Z" style="fill:#010101;fill-rule:nonzero;"/><path d="M496.586,67.042c-17.437,12.681 -31.524,28.803 -43.83,46.419c-2.245,3.213 -0.514,6.791 3.228,7.438c4.385,0.76 8.702,-1.547 11.331,-4.917c10.076,-12.913 19.896,-25.999 29.859,-38.993c-4.576,-0.793 -9.154,-1.586 -13.73,-2.379c-13.257,22.67 -27.428,44.862 -43.388,65.74c5.685,0.338 11.368,0.676 17.053,1.015c8.099,-19.922 25.03,-34.841 32.76,-55.107c1.153,-3.023 -1.272,-5.443 -4.089,-5.932c-3.567,-0.618 -7.727,0.879 -10.24,3.45c-14.866,15.212 -27.598,32.353 -42.717,47.316c4.914,1.496 9.828,2.992 14.742,4.488c10.458,-16.636 25.574,-29.957 34.54,-47.582c5.033,-9.894 -9.83,-9.608 -14.638,-4.456c-19.123,20.497 -36.953,42.217 -52.773,65.371c5.722,0.991 11.442,1.981 17.164,2.973c11.15,-21.379 29.109,-37.627 44.721,-55.632c7.688,-8.867 -4.848,-12.765 -11.718,-7.854c-25.103,17.945 -44.667,41.897 -68.588,61.172c-3.022,2.436 -7.427,7.251 -3.463,11.054c3.637,3.488 10.612,1.912 14.223,-0.749c23.061,-17 42.325,-37.543 61.982,-58.215c2.128,-2.238 3.974,-5.933 1.251,-8.544c-3.345,-3.209 -9.646,-1.706 -12.977,0.684c-26.832,19.257 -58.025,32.851 -78.947,59.32c-2.33,2.947 -1.501,7.212 1.924,8.794c4.896,2.264 11.338,-0.106 14.977,-3.648c4.248,-4.135 8.177,-8.34 12.027,-12.834c5.256,-6.135 -1.668,-10.482 -7.749,-7.515c-7.25,3.539 -13.777,7.565 -19.571,13.263c5.634,1.715 11.268,3.431 16.9,5.146c18.227,-23.261 46.802,-36.106 70.256,-53.123c-3.908,-2.62 -7.816,-5.24 -11.726,-7.86c-18.227,19.381 -38.06,37.941 -59.107,54.229c4.284,2.871 8.567,5.743 12.851,8.614c22.665,-19.16 41.063,-43.407 65.548,-60.392c-3.906,-2.617 -7.812,-5.235 -11.718,-7.854c-16.855,18.849 -36.757,36.034 -48.26,58.972c-1.99,3.97 -1.115,7.917 3.806,8.77c4.869,0.844 10.648,-1.665 13.358,-5.797c14.496,-22.1 30.66,-43.025 48.855,-62.207c-4.88,-1.485 -9.759,-2.971 -14.638,-4.456c-9.144,17.568 -24.546,30.646 -34.655,47.561c-1.653,2.768 -1.6,6.156 1.679,7.672c4.188,1.935 9.999,-0.023 13.063,-3.184c14.729,-15.186 26.633,-32.889 41.615,-47.826c-4.776,-0.827 -9.553,-1.654 -14.329,-2.481c-8.563,20.087 -26.067,34.722 -34.271,55.172c-1.318,3.287 1.437,5.953 4.465,6.478c4.7,0.814 9.889,-1.624 12.588,-5.463c14.938,-21.242 28.253,-43.52 40.944,-66.162c1.759,-3.138 0.764,-6.356 -3.044,-7.016c-4.06,-0.703 -8.305,1.416 -10.687,4.637c-9.815,13.271 -20.979,25.48 -30.688,38.851c4.853,0.841 9.706,1.681 14.559,2.521c10.537,-16.282 23.292,-31.054 35.628,-45.979c3.257,-3.943 -4.09,-4.612 -6.356,-2.963Z" style="fill:#010101;fill-rule:nonzero;"/><path d="M489.784,71.948c-11.854,1.151 -22.628,6.799 -32.771,12.633c-11.289,6.493 -21.997,13.972 -32.518,21.631c-10.628,7.736 -21.022,15.787 -31.609,23.578c-5.358,3.945 -10.769,7.816 -16.27,11.562c-4.685,3.19 -13.926,6.71 -13.217,13.59c0.872,8.446 13.669,5.29 17.463,1.013c1.484,-1.671 2.852,-3.169 3.438,-5.383c1.123,-4.237 -2.519,-6.533 -6.388,-6.337c-3.68,0.186 -6.535,1.372 -9.643,3.279c5.138,0.89 10.275,1.78 15.414,2.67c0.098,-0.998 -0.091,-1.972 -0.581,-2.852c-0.794,2.492 -1.589,4.983 -2.384,7.476c3.557,-3.418 8.089,-6.173 11.981,-9.223c4.513,-3.537 8.973,-7.142 13.421,-10.76c9.144,-7.437 18.241,-14.931 27.518,-22.203c9.295,-7.286 18.819,-14.283 28.762,-20.664c9.211,-5.91 19.04,-10.911 27.988,-17.207c1.294,-0.911 1.466,-3.004 -0.604,-2.803Z" style="fill:#010101;fill-rule:nonzero;"/><path d="M363.681,153.663c-11.946,11.137 -18.276,26.948 -26.123,40.97c4.774,0.284 9.548,0.568 14.322,0.853c4.133,-15.557 14.925,-28.025 24.408,-40.617c-4.714,-0.816 -9.429,-1.633 -14.143,-2.449c-9.298,12.832 -18.366,25.754 -24.36,40.522c-1.298,3.195 1.408,5.796 4.346,6.305c3.743,0.648 8.278,-0.904 10.885,-3.667c14.02,-14.854 28.057,-29.776 43.573,-43.096c-5.031,-1.531 -10.063,-3.063 -15.094,-4.596c-7.772,11.803 -18.681,21.141 -27.181,32.409c-1.527,2.024 -1.735,5.108 0.186,6.951c2.859,2.743 7.598,1.911 10.869,0.589c23.875,-9.65 42.205,-28.246 64.171,-41.12c-4.128,-2.768 -8.257,-5.535 -12.386,-8.302c-15.648,13.147 -35.008,21.154 -48.735,36.721c-6.891,7.813 2.27,13.809 10.049,9.745c27.03,-14.119 53.117,-30.215 75.985,-50.517c2.513,-2.231 4.16,-6.576 1.357,-9.265c-3.659,-3.51 -10.42,-1.806 -14.073,0.741c-11.071,7.717 -22.444,14.988 -33.516,22.705c-3.184,2.219 -7.21,7.308 -3.427,10.937c3.77,3.615 10.277,1.642 14.073,-0.741c10.228,-6.42 21.128,-13.212 27.84,-23.496c3.587,-5.496 -4.134,-7.518 -8.058,-5.494c-10.623,5.479 -20.311,12.444 -30.429,18.795c3.549,3.398 7.098,6.797 10.646,10.195c11.071,-7.717 22.444,-14.988 33.516,-22.705c-4.239,-2.841 -8.478,-5.682 -12.716,-8.523c-20.027,17.781 -43.075,32.193 -66.729,44.628c3.35,3.248 6.699,6.497 10.049,9.745c13.476,-15.369 33.083,-23.715 48.569,-36.799c2.503,-2.114 4.01,-6.445 1.321,-9.023c-3.732,-3.581 -9.933,-1.504 -13.707,0.722c-20.249,11.939 -37.247,29.714 -59.079,38.888c3.685,2.514 7.37,5.026 11.055,7.54c8.305,-11.378 19.17,-20.596 26.878,-32.462c1.806,-2.78 1.553,-6.343 -1.718,-7.854c-4.544,-2.1 -9.909,0.249 -13.376,3.259c-15.4,13.369 -29.187,28.361 -42.923,43.396c5.076,0.879 10.154,1.759 15.23,2.638c5.16,-13.435 12.629,-25.698 21.05,-37.321c2.245,-3.098 0.448,-6.605 -3.136,-7.227c-4.208,-0.729 -8.52,1.475 -11.007,4.777c-10.023,13.307 -21.923,26.939 -25.326,43.715c-1.688,8.322 11.755,5.93 14.322,0.853c6.812,-13.468 13.774,-27.883 17.906,-42.394c0.943,-3.301 -4.078,-2.131 -5.364,-0.931Z" style="fill:#010101;fill-rule:nonzero;"/><path d="M356.463,161.893c-5.871,6.481 -11.507,12.63 -16.305,19.993c-5.262,8.073 -10.124,16.403 -14.937,24.75c2.031,-1.335 4.062,-2.669 6.093,-4.003c-0.276,0.074 -0.554,0.149 -0.83,0.225c2.305,0.719 4.609,1.437 6.914,2.155c0.393,1.184 -0.413,-1.777 -0.423,-1.804c-1.479,-4.133 -8.142,-1.369 -10.169,0.5c3.225,-2.022 3.631,-2.352 1.221,-0.986c-1.254,0.836 -2.25,1.943 -3.193,3.098c-1.348,1.649 -1.729,3.087 -1.143,5.141c0.977,3.43 6.573,2.464 8.806,1.525c4.642,-1.95 5.804,-5.334 7.65,-9.663c2.013,-4.72 4.006,-9.446 6.091,-14.136c3.838,-8.629 7.377,-18.061 12.128,-26.215c0.729,-1.251 -1.299,-1.245 -1.903,-0.58Z" style="fill:#010101;fill-rule:nonzero;"/><path d="M332.673,208.945c4.537,-2.577 8.85,-5.495 13.016,-8.634c4.21,-3.173 9.007,-6.089 12.464,-10.104c1.394,-1.618 0.189,-3.474 -1.933,-2.789c-10.237,3.307 -17.626,12.865 -26.143,19.041c-2.879,2.088 0.25,3.818 2.596,2.486Z" style="fill:#010101;fill-rule:nonzero;"/><path d="M111.069,250.319c2.452,2.878 5.217,3.925 8.399,5.901c2.437,1.514 5.054,4.256 6.694,6.6c3.679,5.259 5.33,10.442 5.172,16.844c-0.365,14.714 -8.614,28.729 -17.433,40.267c-2.063,2.699 -4.13,5.006 -7.212,8.165c-1.448,1.484 -2.959,2.907 -4.488,4.307c-0.762,0.697 -1.544,1.372 -2.325,2.047c-0.521,0.445 -1.048,0.886 -1.578,1.321c0.925,-0.748 0.876,-0.719 -0.146,0.087c-3.156,2.458 -6.467,4.713 -9.9,6.764c-0.411,0.245 -3.303,1.81 -0.635,0.391c-0.847,0.45 -1.711,0.868 -2.574,1.285c-1.975,0.952 -4.011,1.771 -6.07,2.521c2.984,-1.087 -2.214,0.584 -3.115,0.801c-0.867,0.208 -1.743,0.371 -2.62,0.532c-2.935,0.542 2.37,-0.247 -0.573,0.067c-1.723,0.185 -3.456,0.215 -5.187,0.185c2.47,0.043 -0.329,-0.044 -0.728,-0.086c-1.68,-0.179 -3.346,-0.487 -5.005,-0.796c-9.857,-1.836 -18.937,-6.664 -26.137,-13.592c-10.072,-9.689 -14.692,-24.125 -11.316,-37.767c4.142,-16.739 19.087,-29.254 32.828,-38.411c7.433,-4.953 15.077,-8.588 23.491,-10.209c2.255,-0.435 4.321,-0.095 6.174,0.081c4.044,0.384 8.05,1.154 12.012,2.035c15.048,3.345 29.023,10.139 40.479,19.5c5.934,4.849 22.148,-1.252 18.598,-10.112c-3.671,-9.156 -14.451,-14.141 -22.945,-17.969c-10.258,-4.623 -21.403,-7.836 -32.496,-9.656c-26.857,-4.407 -50.84,8.947 -71.034,25.49c-17.882,14.648 -33.765,35.594 -30.536,59.984c2.844,21.485 19.614,37.96 39.597,44.704c19.828,6.692 38.88,3.655 56.947,-6.334c15.716,-8.688 28.916,-22.13 38.702,-37.085c8.297,-12.679 14.994,-28.764 12.474,-44.141c-1.036,-6.326 -3.663,-13.531 -8.585,-17.908c-5.904,-5.251 -13.409,-7.771 -21.095,-9.082c-1.985,-0.34 -4.357,0.462 -6.282,0.905c-0.923,0.212 -2.439,1.325 -1.552,2.364Z" style="fill:#010101;fill-rule:nonzero;"/><path d="M277.797,242.121c-0.769,5.253 0.055,10.537 0.45,15.794c0.379,5.049 -0.135,10.3 0.602,15.283c0.265,1.793 1.379,2.833 3.183,3.14c16.937,2.877 7.717,-29.833 3.31,-36.724c-1.954,-3.054 -7.105,-0.499 -7.545,2.507Z" style="fill:#010101;fill-rule:nonzero;"/><path d="M283.507,229.902c-1.104,8.915 -0.807,17.643 -0.546,26.599c0.131,4.464 0.043,8.948 -0.118,13.41c-0.148,4.113 -1.636,8.838 1.415,12.092c1.317,1.405 4.029,0.318 5.146,-0.77c6.175,-6.019 4.775,-17.402 4.173,-25.303c-0.722,-9.473 -2.618,-18.529 -5.244,-27.632c-0.659,-2.28 -4.623,-0.034 -4.826,1.604Z" style="fill:#010101;fill-rule:nonzero;"/><path d="M287.333,223.279c2.004,10.255 2.067,20.642 0.923,31.015c-0.593,5.371 -1.643,10.686 -2.723,15.976c-0.773,3.786 -2.452,9.148 0.532,12.329c0.985,1.051 2.966,0.22 3.807,-0.569c3.792,-3.559 4.616,-8.747 5.495,-13.654c0.969,-5.404 1.793,-10.831 2.33,-16.296c1.041,-10.58 0.503,-22.177 -6.882,-30.312c-0.869,-0.959 -3.753,0.124 -3.482,1.511Z" style="fill:#010101;fill-rule:nonzero;"/><path d="M289.598,220.752c-2.495,10.505 -0.658,22.239 -0.807,32.963c-0.078,5.627 -0.324,11.232 -0.922,16.829c-0.54,5.055 -2.911,10.815 0.436,15.247c0.832,1.103 2.936,0.128 3.665,-0.549c7.826,-7.254 6.797,-22.122 6.653,-31.97c-0.081,-5.518 -0.515,-11.171 -1.379,-16.62c-0.884,-5.564 -1.502,-11.673 -4.108,-16.742c-0.686,-1.333 -3.246,-0.389 -3.538,0.842Z" style="fill:#010101;fill-rule:nonzero;"/><path d="M291.434,220.087c0.496,10.323 0.75,20.618 -0.005,30.938c-0.397,5.444 -1.2,10.845 -1.739,16.273c-0.47,4.74 -1.163,9.652 1.48,13.868c0.996,1.589 3.689,0.708 4.514,-0.654c5.151,-8.514 4.875,-20.323 5.527,-29.999c0.74,-10.965 0.422,-22.272 -5.654,-31.797c-0.955,-1.496 -4.209,-0.405 -4.123,1.371Z" style="fill:#010101;fill-rule:nonzero;"/><path d="M293.864,220.024c-0.266,13.779 1.483,27.48 1.237,41.254c-0.126,7.044 -0.812,14.032 -2.425,20.895c-1.001,4.256 -5.016,11.42 -1.98,15.358c0.471,0.61 1.752,0.421 2.321,0.126c5.974,-3.096 8.121,-9.748 9.693,-15.916c1.747,-6.854 2.506,-14.078 2.533,-21.139c0.055,-14.328 -2.576,-28.452 -7.783,-41.773c-0.611,-1.565 -3.57,-0.166 -3.596,1.195Z" style="fill:#010101;fill-rule:nonzero;"/><path d="M294.765,249.257c-0.634,5.947 -1.994,11.802 -2.809,17.735c-0.886,6.449 -1.757,12.814 -3.14,19.187c-1.189,5.48 -2.923,10.822 -5.013,16.021c-1.45,3.609 -6.517,10.714 -4.226,14.514c0.564,0.935 1.764,0.823 2.652,0.46c5.102,-2.087 7.938,-7.438 10.072,-12.272c2.717,-6.151 4.621,-12.564 6.028,-19.132c1.229,-5.737 1.764,-11.594 2.102,-17.442c0.396,-6.861 -0.916,-13.245 -1.643,-20.014c-0.229,-2.158 -3.847,-0.705 -4.023,0.943Z" style="fill:#010101;fill-rule:nonzero;"/><path d="M296.303,269.948c-0.488,9.289 -3.531,18.246 -7.037,26.793c-1.754,4.275 -3.988,8.355 -6.104,12.46c-1.729,3.356 -3.517,6.934 -2.504,10.758c0.346,1.302 2.497,0.577 3.18,0.173c8.354,-4.938 12.33,-15.117 15.521,-23.825c3.316,-9.048 3.6,-18.149 2.221,-27.597c-0.404,-2.764 -5.159,-1.006 -5.277,1.238Z" style="fill:#010101;fill-rule:nonzero;"/><path d="M296.473,284.572c-2.612,10.364 -6.467,20.438 -10.392,30.361c-2.049,5.182 -4.44,10.206 -7.342,14.966c-1.249,2.049 -2.544,4.109 -4.119,5.927c-1.462,1.686 -3.502,2.983 -4.103,5.241c-0.854,3.204 2.584,3.893 4.978,3.453c5.425,-0.993 9.242,-6.621 12.042,-10.944c3.289,-5.077 5.55,-10.942 7.58,-16.61c3.783,-10.565 5.908,-21.89 6.373,-33.098c0.105,-2.509 -4.579,-1.031 -5.017,0.704Z" style="fill:#010101;fill-rule:nonzero;"/><path d="M290.677,309.456c-3.815,15.879 -16.694,30.544 -29.361,40.271c4.004,0.693 8.009,1.387 12.013,2.081c-0.344,-2.051 -0.547,-3.582 -1.859,-5.221c-1.354,-1.69 -4.547,-1.01 -6.176,-0.334c-3.754,1.558 -6.035,4.002 -7.524,7.738c-1.12,2.808 1.222,5.082 3.813,5.53c3.475,0.603 7.015,-0.917 9.549,-3.217c12.578,-11.413 26.382,-29.817 25.356,-47.664c-0.169,-2.923 -5.318,-1.24 -5.811,0.816Z" style="fill:#010101;fill-rule:nonzero;"/><path d="M286.55,215.813c1.569,3.127 3.537,6.065 5.113,9.232c2.088,4.195 3.13,8.817 3.826,13.418c0.644,4.248 0.86,8.494 0.649,12.785c-0.158,3.203 -1.6,8.452 0.355,11.273c1.342,1.938 4.239,1.646 5.993,0.326c8.022,-6.034 6.935,-18.521 5.529,-27.322c-1.377,-8.625 -5.679,-21.101 -15.033,-23.979c-2.066,-0.635 -8.073,0.993 -6.432,4.267Z" style="fill:#010101;fill-rule:nonzero;"/><path d="M293.461,216.241c1.111,4.282 3.835,8.14 5.078,12.469c1.719,5.985 2.646,12.047 3.247,18.239c0.601,6.179 0.515,12.43 -0.122,18.6c-0.387,3.755 -2.503,10.354 0.12,13.565c1.057,1.293 3.543,0.473 4.639,-0.244c4.949,-3.242 5.852,-9.504 6.712,-14.895c1.085,-6.805 0.519,-14.115 -0.3,-20.914c-1.146,-9.525 -4.974,-26.704 -16.007,-29.516c-1.479,-0.377 -3.8,1.023 -3.367,2.696Z" style="fill:#010101;fill-rule:nonzero;"/><path d="M299.211,240.958c3.288,10.38 2.798,22.89 2.207,33.648c-0.311,5.669 -1.327,11.306 -2.819,16.778c-1.134,4.159 -2.616,7.972 -1.593,12.299c0.283,1.195 2.379,0.575 2.981,0.162c9.519,-6.524 10.973,-19.41 11.47,-30.087c0.588,-12.645 -3.035,-23.254 -8.461,-34.443c-0.812,-1.673 -4.337,-0.103 -3.785,1.643Z" style="fill:#010101;fill-rule:nonzero;"/><path d="M302.512,264.352c-0.614,5.486 -2.271,11.004 -3.426,16.404c-1.093,5.112 -2.073,10.244 -3.458,15.29c-1.361,4.958 -2.914,9.794 -4.992,14.503c-2.235,5.065 -5.747,9.326 -8.403,14.141c-3.378,6.12 5.832,4.989 8.672,2.641c8.736,-7.229 13.008,-19.583 15.563,-30.27c1.228,-5.136 1.925,-10.832 1.841,-16.104c-0.097,-5.975 -1.477,-11.587 -2.128,-17.464c-0.22,-1.971 -3.501,-0.638 -3.669,0.859Z" style="fill:#010101;fill-rule:nonzero;"/><path d="M298.721,288.892c-2.564,12.971 -9.549,24.408 -15.829,35.851c-2.009,3.66 -3.936,7.354 -6.197,10.869c-0.489,0.76 -1.01,1.49 -1.555,2.211c0.29,-0.385 2.044,-2.289 -0.891,0.671c1.146,-1.156 -0.556,0.478 -0.669,0.65c-2.51,3.825 4.333,7.626 7.697,6.165c7.605,-3.3 10.634,-13.764 13.776,-20.663c5.348,-11.743 10.722,-23.206 8.51,-36.434c-0.389,-2.33 -4.476,-1.17 -4.842,0.68Z" style="fill:#010101;fill-rule:nonzero;"/><path d="M288.874,317.547c-8.593,12.728 -17.773,25.375 -29.374,35.53c2.655,-1.152 5.312,-2.306 7.967,-3.458c-0.291,-0.01 -0.581,-0.02 -0.872,-0.029c1.63,0.5 3.26,0.999 4.891,1.498c-4.64,-4.811 -15.191,-0.153 -14.975,6.498c0.082,2.527 2.039,3.471 4.148,4.094c0.259,0.076 0.517,0.152 0.775,0.229c3.29,0.971 7.622,-1.114 9.915,-3.341c11.484,-11.148 18.761,-25.395 22.796,-40.706c0.842,-3.192 -4.224,-1.866 -5.271,-0.315Z" style="fill:#010101;fill-rule:nonzero;"/><path d="M252.25,196.628c-4.317,-1.193 -9.076,-0.141 -13.418,0.483c-5.71,0.82 -11.35,2.027 -16.963,3.35c-4.281,1.009 -8.304,2.628 -12.275,4.492c-10.926,5.132 -21.337,11.479 -31.592,17.822c-9.606,5.941 -19.196,12.076 -28.049,19.11c-2.923,2.322 -8.198,5.817 -9.256,9.687c-1.53,5.595 3.283,7.429 8.021,6.632c3.621,-0.608 7.817,-4.073 6.744,-8.046c0.488,1.807 -0.274,3.471 -1.553,4.764c0.229,-0.232 0.449,-0.471 0.69,-0.691c0.745,-0.682 2.989,-3.404 0.942,-1.01c0.383,-0.449 0.807,-0.864 1.225,-1.279c3.29,-3.26 3.752,-3.371 7.272,-6.038c8.567,-6.488 17.508,-12.505 26.532,-18.335c8.219,-5.31 16.592,-10.437 25.165,-15.157c-1.182,0.65 1.136,-0.579 1.354,-0.69c0.7,-0.358 1.403,-0.709 2.111,-1.05c2.117,-1.017 4.348,-1.701 6.582,-2.419c8.545,-2.745 19.104,-4.077 26.525,-9.38c0.934,-0.665 1.277,-1.876 -0.057,-2.245Z" style="fill:#010101;fill-rule:nonzero;"/><path d="M248.126,196.936c-6.333,3.515 -11.036,10.023 -15.847,15.306c-5.184,5.69 -9.951,11.893 -14.478,18.112c3.393,-1.472 6.784,-2.943 10.177,-4.416c-29.242,-4.965 -59.426,6.701 -79.068,28.638c-1.629,1.819 -2.894,3.848 -2.025,6.353c0.071,0.203 0.142,0.407 0.213,0.611c0.912,2.628 4.869,2.748 7.027,2.19c6.654,-1.72 10.277,-7.438 15.21,-11.806c4.411,-3.906 9.567,-7.043 14.881,-9.545c11.405,-5.369 24.051,-6.799 36.485,-5.344c3.6,0.421 8.276,-1.063 10.177,-4.416c3.7,-6.531 8.139,-12.508 12.264,-18.762c2.954,-4.479 8.593,-10.658 8.146,-16.375c-0.127,-1.619 -2.288,-1.03 -3.162,-0.546Z" style="fill:#010101;fill-rule:nonzero;"/><path d="M233.161,201.282c-11.793,5.998 -20.933,15.154 -30.027,24.65c-6.012,6.277 3.675,9.268 8.582,5.753c8.796,-6.298 16.842,-13.578 25.932,-19.477c-2.384,-2.283 -4.769,-4.566 -7.152,-6.85c-9.783,6.036 -18.491,13.448 -26.715,21.453c-1.763,1.716 -3.111,4.767 -0.995,6.797c2.64,2.531 7.704,1.389 10.324,-0.544c9.782,-7.217 19.368,-14.814 27.459,-23.936c4.513,-5.088 0.221,-8.817 -5.479,-7.907c-19.216,3.067 -33.931,16.93 -49.544,27.326c-2.556,1.702 -5.653,5.796 -2.702,8.626c2.979,2.857 8.096,1.284 11.099,-0.585c9.384,-5.844 18.157,-12.507 26.576,-19.663c1.636,-1.391 2.878,-4.041 1.962,-6.152c-1.311,-3.02 -5.259,-2.986 -7.939,-2.475c-9.133,1.746 -17.464,6.269 -25.164,11.326c-7.383,4.849 -15.965,10.514 -19.925,18.618c-2.341,4.792 5.634,4.854 8.001,3.797c13.308,-5.947 22.239,-19.098 37.229,-21.962c-1.993,-2.876 -3.985,-5.752 -5.978,-8.627c-7.319,6.221 -15.075,11.907 -23.158,17.097c2.799,2.681 5.598,5.36 8.396,8.041c12.771,-8.764 25.381,-22.131 41.276,-24.57c-1.826,-2.636 -3.653,-5.271 -5.479,-7.907c-7.297,8.12 -15.799,14.855 -24.439,21.473c3.109,2.084 6.22,4.169 9.329,6.253c7.093,-7.171 14.584,-14.054 23.02,-19.629c2.184,-1.442 4.812,-4.941 2.303,-7.349c-2.532,-2.428 -6.905,-1.104 -9.455,0.499c-9.155,5.75 -17.532,12.704 -25.965,19.445c3.211,1.495 6.421,2.991 9.631,4.486c6.912,-8.662 14.121,-17.316 22.307,-24.803c2.649,-2.423 -0.936,-4.411 -3.31,-3.204Z" style="fill:#010101;fill-rule:nonzero;"/><path d="M147.961,254.514c7.416,-5.28 12.914,-13.843 19.266,-20.397c7.179,-7.407 15.046,-14.18 23.396,-20.23c8.257,-5.983 17.138,-10.937 26.664,-14.584c8.078,-3.093 18.308,-5.568 26.973,-4.087c-1.259,-0.859 -2.519,-1.718 -3.777,-2.577c0.501,0.882 1.127,1.636 1.78,2.399c2.292,-3.495 4.583,-6.989 6.875,-10.484c-3.834,0.731 -8.097,2.553 -10.084,6.109c-1.292,2.313 -0.441,4.2 2.105,4.851c1.344,0.344 2.712,0.645 4.096,0.916c4.232,0.831 16.923,-5.484 10.896,-10.661c-4.024,-3.456 -9.704,-2.617 -14.716,-2.338c-5.983,0.334 -11.959,1.503 -17.721,3.109c-12.08,3.369 -23.389,9.155 -33.836,16.016c-10.398,6.828 -19.876,15.092 -28.318,24.208c-3.924,4.235 -7.736,8.687 -11.074,13.4c-2.826,3.991 -6.625,8.592 -6.808,13.609c-0.077,2.147 3.292,1.446 4.283,0.741Z" style="fill:#010101;fill-rule:nonzero;"/><path d="M190.588,220.462c7.073,-2.778 13.191,-7.789 20.013,-11.153c7.704,-3.801 15.366,-5.589 23.945,-5.135c1.124,-3.414 2.249,-6.83 3.373,-10.244c-3.481,-0.002 -6.731,0.695 -9.572,2.792c-2.081,1.535 -4.86,4.854 -2.293,7.318c2.581,2.476 6.802,1.007 9.416,-0.496c5.724,-3.29 11.713,-6.21 17.834,-8.685c-2.925,-1.387 -5.849,-2.775 -8.773,-4.162c-2.329,5.44 -10.841,7.038 -10.865,13.789c-0.005,1.397 1.22,2.145 2.431,2.396c9.192,1.916 18.944,-9.104 22.112,-16.775c2.221,-5.377 -5.96,-5.333 -8.773,-4.162c-7.277,3.027 -14.347,6.698 -21.088,10.776c2.374,2.274 4.749,4.548 7.123,6.822c-2.858,0.593 -3.166,0.803 -0.924,0.63c6.518,-0.154 12.782,-9.978 3.373,-10.244c-10.052,-0.286 -20.012,3.068 -28.826,7.675c-7.671,4.009 -16.941,9.259 -22.046,16.442c-1.783,2.508 1.931,3.048 3.54,2.416Z" style="fill:#010101;fill-rule:nonzero;"/><path d="M206.03,208.768c-2.636,-0.46 -4.555,-0.834 -7.266,-0.371c-2.807,0.48 -5.333,1.842 -7.799,3.184c-5.012,2.73 -9.167,7.566 -11.137,12.887c-0.695,1.881 0.774,3.374 2.537,3.68c2.759,0.478 5.501,-0.973 7.15,-3.104c3.98,-5.144 8.191,-9.939 14.896,-11.326c2.138,-0.442 5.356,-4.298 1.619,-4.95Z" style="fill:#010101;fill-rule:nonzero;"/><path d="M257.042,347.995c-5.122,3.648 -9.971,6.75 -15.659,9.434c-3.616,1.707 -3.589,6.621 1.124,5.374c7.276,-1.925 12.4,-7.74 17.741,-12.659c2.395,-2.207 -1.399,-3.438 -3.206,-2.149Z" style="fill:#010101;fill-rule:nonzero;"/><path d="M269.605,344.577c-2.843,2.035 -26.763,19.316 -23.001,22.559c4.186,3.607 11.492,-2.334 14.532,-5.011c4.884,-4.3 7.847,-10.571 12.717,-14.7c3.267,-2.771 -1.847,-4.567 -4.248,-2.848Z" style="fill:#010101;fill-rule:nonzero;"/><path d="M295.061,218.288c2.661,4.44 5.593,9.039 7.789,13.751c2.65,5.685 3.42,11.964 3.766,18.169c0.827,14.813 -2.29,29.448 -6.988,43.42c-4.899,14.57 -11.679,28.465 -20.392,41.135c-3.688,5.363 -7.805,10.37 -12.48,14.9c-2.082,2.017 -3.609,3.291 -5.88,4.902c-2.489,1.766 -2.583,1.719 -5.525,3.028c-2.666,1.187 -6.588,4.368 -5.105,7.784c1.488,3.427 6.479,2.71 9.172,1.589c12.646,-5.263 22.484,-16.579 30.279,-27.439c9.578,-13.344 16.948,-28.646 22.094,-44.217c4.895,-14.81 8.298,-31.243 6.816,-46.9c-0.653,-6.908 -2.556,-13.583 -5.592,-19.82c-3.115,-6.4 -7.25,-10.588 -13.96,-12.949c-1.21,-0.426 -5.149,0.719 -3.994,2.647Z" style="fill:#010101;fill-rule:nonzero;"/><path d="M258.084,350.288c-2.635,1.08 -5.322,2.035 -7.942,3.15c-2.994,1.275 -7.011,3.596 -7.017,7.254c-0.001,1.105 1.016,1.895 2.042,2.015c3.536,0.414 6.521,-1.071 9.47,-2.875c2.373,-1.452 4.807,-2.79 7.21,-4.192c1.352,-0.788 2.808,-2.693 2.095,-4.338c-0.953,-2.195 -4.133,-1.721 -5.858,-1.014Z" style="fill:#010101;fill-rule:nonzero;"/><path d="M72.942,242.582c-23.854,0.179 -42.891,19.876 -51.773,40.405c-8.687,20.078 -7.711,43.15 8.359,59.173c16.485,16.437 41.685,16.661 62.397,9.563c19.309,-6.617 35.223,-23.719 44.46,-41.458c6.873,-13.199 11.064,-29.355 4.526,-43.525c-6.874,-14.898 -25.469,-22.783 -40.656,-25.465c-16.858,-2.976 -35.021,0.348 -50.069,8.344c-7.813,4.152 -14.931,9.417 -20.92,15.955c-5.219,5.699 -12.423,13.994 -11.121,22.17c0.826,5.194 8.172,3.245 10.741,0.624c7.085,-7.226 10.875,-16.659 18.978,-23.127c7.408,-5.913 16,-9.517 25.268,-11.278c17.102,-3.252 41.837,2.701 50.885,18.961c9.168,16.474 -2.236,37.939 -13.048,50.611c-12.72,14.909 -29.825,23.336 -49.866,18.552c-20.419,-4.874 -31.267,-24.801 -29.436,-44.704c1.06,-11.505 6.396,-22.83 13.431,-31.834c7.15,-9.153 17.614,-14.991 27.901,-19.849c1.617,-0.765 2.431,-3.137 -0.057,-3.118Z" style="fill:#010101;fill-rule:nonzero;"/><path d="M273.834,376.216c-8.354,-12.181 -27.774,-11.456 -40.567,-8.125c-15.403,4.011 -29.29,13.892 -39.66,25.776c-18.567,21.28 -31.588,55.621 -11.833,80.354c11.283,14.126 32.828,20.626 50.223,18.568c23.57,-2.789 41.26,-20.006 51.166,-40.676c8.719,-18.189 14.461,-41.681 3.235,-60.064c-10.159,-16.639 -30.152,-22.951 -48.732,-22.703c-11.318,0.15 -22.85,2.543 -31.665,9.903c-3.258,2.721 -1.191,6.991 2.873,6.618c9.472,-0.871 18.359,-3.791 27.961,-3.581c8.037,0.177 16.707,2.667 23.393,7.189c17.593,11.903 17.224,32.813 11.325,51.112c-5.588,17.338 -17.823,37.763 -37.865,39.539c-15.137,1.343 -32.886,-6.764 -40.399,-20.23c-11.188,-20.051 -0.297,-46.355 13.201,-61.984c8.133,-9.416 16.781,-15.794 27.997,-19.859c11.042,-4.003 23.579,-0.668 35.658,1.116c1.107,0.164 4.891,-1.2 3.689,-2.953Z" style="fill:#010101;fill-rule:nonzero;"/><path d="M360.253,155.756c-3.73,3.562 -5.545,9.269 -8.218,13.653c-3.363,5.519 -7.411,10.657 -11.478,15.667c-7.8,9.611 -16.403,18.531 -23.915,28.382c-2.565,3.364 1.907,5.577 4.787,4.726c9.812,-2.9 18.57,-7.746 26.721,-13.889c4.24,-3.195 8.204,-6.737 12.032,-10.409c2.996,-2.874 6.834,-6.581 7.788,-10.761c0.625,-2.739 -2.768,-3.074 -4.603,-2.184c-7.237,3.508 -12.637,10.3 -18.686,15.457c-6.864,5.852 -14.707,11.164 -23.347,13.977c1.596,1.574 3.191,3.15 4.787,4.726c7.258,-10.373 15.727,-19.826 23.32,-29.946c3.783,-5.044 7.172,-10.316 10.04,-15.933c1.79,-3.505 5.438,-9.655 3.404,-13.596c-0.507,-0.987 -2.029,-0.446 -2.632,0.13Z" style="fill:#010101;fill-rule:nonzero;"/><path d="M330.706,203.63c-5.641,4.199 -10.717,9.749 -16.623,13.445c-3.74,2.341 -1.75,6.269 2.339,5.39c11.604,-2.49 22.108,-8.494 31.575,-15.479c4.813,-3.553 9.281,-7.563 13.49,-11.808c2.573,-2.595 7.149,-7.158 5.856,-11.184c-0.349,-1.084 -2.109,-1.218 -2.986,-0.931c-4.029,1.314 -7.085,4.195 -10.061,7.138c-3.935,3.891 -7.898,7.651 -12.237,11.098c-8.117,6.448 -17.176,11.581 -26.889,15.185c1.693,1.155 3.387,2.311 5.08,3.465c3.113,-5.519 8.533,-10.252 12.272,-15.473c0.848,-1.181 -1.148,-1.343 -1.816,-0.846Z" style="fill:#010101;fill-rule:nonzero;"/><path d="M332.36,214.215c8.179,-4.93 16.703,-9.134 24.709,-14.386c3.723,-2.442 7.351,-5.021 10.796,-7.842c3.2,-2.62 7.485,-5.683 8.717,-9.803c0.517,-1.728 -1.781,-1.784 -2.82,-1.338c-3.358,1.441 -6.096,3.904 -8.9,6.221c-3.8,3.139 -7.755,6.095 -11.771,8.952c-7.6,5.406 -15.143,10.844 -22.684,16.324c-2.144,1.56 0.189,2.935 1.953,1.872Z" style="fill:#010101;fill-rule:nonzero;"/><path d="M341.047,209.811c13.344,-5.519 26.438,-11.126 38.904,-18.503c6.375,-3.772 12.606,-7.872 18.349,-12.559c3.845,-3.138 10.021,-7.599 10.431,-13.021c0.112,-1.483 -2.182,-1.318 -2.99,-0.932c-4.987,2.388 -8.904,6.684 -13.185,10.102c-5.474,4.371 -11.295,8.279 -17.247,11.963c-11.501,7.117 -23.445,13.93 -35.59,19.887c-2.791,1.369 -1.577,4.265 1.328,3.063Z" style="fill:#010101;fill-rule:nonzero;"/><path d="M346.87,206.4c6.705,-3.288 13.353,-6.584 19.752,-10.445c5.984,-3.611 12.945,-7.627 17.038,-13.454c0.809,-1.15 -0.894,-1.513 -1.677,-1.143c-6.006,2.833 -11.328,7.142 -16.858,10.789c-6.438,4.246 -13.031,8.318 -19.663,12.25c-1.819,1.078 -0.247,2.813 1.408,2.003Z" style="fill:#010101;fill-rule:nonzero;"/><path d="M334.395,212.312c16.412,-2.71 30.719,-10.229 44.482,-19.378c7.383,-4.906 14.495,-10.217 21.569,-15.553c3.225,-2.432 6.428,-4.917 9.562,-7.465c2.635,-2.141 6.089,-4.432 7.32,-7.721c0.469,-1.25 -1.12,-1.525 -1.963,-1.361c-6.664,1.301 -12.738,7.418 -18.022,11.365c-6.633,4.954 -13.167,10.018 -19.947,14.774c-13.054,9.157 -27.529,18.833 -43.024,23.273c-1.519,0.436 -1.972,2.396 0.023,2.066Z" style="fill:#010101;fill-rule:nonzero;"/><path d="M366.754,195.136c12.979,-6.415 26.702,-11.227 39.729,-17.584c6.469,-3.157 12.769,-6.7 18.728,-10.74c4.78,-3.24 10.878,-7.279 13.356,-12.669c1.346,-2.926 -3.707,-2.279 -4.893,-1.5c-5.271,3.471 -9.617,8.282 -14.91,11.838c-5.84,3.923 -12.104,7.211 -18.367,10.397c-11.753,5.981 -23.594,11.598 -34.719,18.726c-1.355,0.869 -0.195,2.161 1.076,1.532Z" style="fill:#010101;fill-rule:nonzero;"/><path d="M371.784,194.202c12.465,-6.046 25.039,-11.576 37.089,-18.476c5.868,-3.36 11.528,-7.02 17.01,-10.979c4.265,-3.08 10.842,-7.361 12.548,-12.555c0.535,-1.632 -1.695,-1.611 -2.626,-1.246c-5.187,2.039 -9.692,6.469 -14.178,9.726c-5.445,3.954 -11.087,7.628 -16.804,11.177c-11.314,7.023 -22.814,13.8 -34.199,20.704c-1.49,0.903 -0.206,2.311 1.16,1.649Z" style="fill:#010101;fill-rule:nonzero;"/><path d="M318.02,221.383c9.361,0.292 17.615,-3.636 26.067,-7.246c8.809,-3.762 17.166,-8.001 25.55,-12.653c8.494,-4.714 16.848,-9.727 24.911,-15.144c3.882,-2.609 7.654,-5.386 11.29,-8.326c3.484,-2.818 7.831,-5.958 9.989,-9.965c2.665,-4.95 -4.187,-5.228 -7.089,-3.302c-6.557,4.351 -12.027,10.653 -18.366,15.416c-7.313,5.495 -15.047,10.379 -22.916,15.03c-7.391,4.368 -14.88,8.592 -22.64,12.263c-8.599,4.067 -17.228,9.228 -26.446,11.772c-1.202,0.332 -2.224,2.098 -0.35,2.155Z" style="fill:#010101;fill-rule:nonzero;"/><path d="M325.392,217.993c11.126,-2.434 21.994,-7.542 32.173,-12.518c10.79,-5.275 21.391,-10.93 31.912,-16.719c12.923,-7.112 26.127,-13.711 38.922,-21.06c14.066,-8.079 27.84,-17.083 39.65,-28.273c5.158,-4.887 9.867,-10.444 13.453,-16.592c2.761,-4.734 6.867,-12.245 2.692,-17.095c-2.038,-2.368 -6.309,0.058 -7.709,1.868c-3.394,4.39 -3.948,10.313 -6.744,15.144c-3.35,5.789 -8.088,10.643 -12.971,15.148c-11.185,10.318 -24.435,18.429 -37.563,26.006c-11.638,6.717 -23.671,12.697 -35.176,19.639c-10.022,6.047 -20.249,11.748 -30.612,17.188c-9.573,5.025 -19.673,9.868 -28.552,16.058c-0.788,0.549 -0.421,1.413 0.525,1.206Z" style="fill:#010101;fill-rule:nonzero;"/><path d="M216.97,232.384c-16.866,-4.647 -36.287,4.895 -48.982,15.396c-7.124,5.893 -13.073,13.053 -18.802,20.262c-3.162,3.979 -6.22,8.039 -9.297,12.083c-2.436,3.2 -7.184,7.39 -6.097,11.714c0.463,1.838 3.476,1.232 4.614,0.799c4.099,-1.563 6.432,-5.229 8.979,-8.612c2.805,-3.725 5.543,-7.5 8.345,-11.227c4.865,-6.47 9.932,-12.798 15.626,-18.563c5.287,-5.35 11.354,-9.94 18.188,-13.114c8.584,-3.987 17.775,-4.776 26.849,-6.973c0.812,-0.196 1.861,-1.41 0.577,-1.765Z" style="fill:#010101;fill-rule:nonzero;"/></g></svg>