<?xml version="1.0" encoding="utf-8"?>
<!-- Generator: Adobe Illustrator 17.0.0, SVG Export Plug-In . SVG Version: 6.00 Build 0)  -->
<!DOCTYPE svg PUBLIC "-//W3C//DTD SVG 1.0//EN" "http://www.w3.org/TR/2001/REC-SVG-20010904/DTD/svg10.dtd">
<svg version="1.0" id="Layer_1" xmlns="http://www.w3.org/2000/svg" xmlns:xlink="http://www.w3.org/1999/xlink" x="0px" y="0px"
	 width="566.93px" height="566.93px" viewBox="0 0 566.93 566.93" enable-background="new 0 0 566.93 566.93" xml:space="preserve">
<path fill="#231F20" d="M330.311,521.554c38.412-4.337,75.66-17.878,106.484-41.415c32.135-24.537,53.481-59.79,63.871-98.543
	c9.4-35.061,8.978-73.102,3.121-108.703c-6.093-37.032-19.738-74.031-42.7-103.991c-11.466-14.961-25.792-28.264-42.562-37.044
	c-17.398-9.109-36.826-12.417-56.341-11.677c-3.733,0.141-6.349,6.615-1.442,6.73c35.113,0.824,66.115,20.741,86.604,48.432
	c16.512,22.316,26.883,48.671,33.393,75.714c0.225,1.559,0.453,3.111,0.693,4.653c0.873,5.609,1.61,11.24,2.232,16.884
	c-0.186,4.787-0.607,9.615-0.789,14.329c-0.539,14.036-0.313,27.999-1.709,42.013c-2.65,26.619-8.639,52.65-20.068,76.9
	c-5.125,10.875-9.322,17.549-16.898,27.143c-1.609,2.037-3.299,4.01-5.014,5.959c-0.129,0.147-1.144,1.243-1.565,1.707
	c-0.682,0.707-1.367,1.411-2.058,2.108c-3.889,3.913-8.037,7.561-12.314,11.039c-1.977,1.605-4.008,3.143-6.053,4.657
	c-0.133,0.099-0.229,0.169-0.334,0.249c-0.183,0.125-0.425,0.291-0.785,0.542c-1.051,0.732-2.117,1.442-3.184,2.153
	c-4.666,3.109-9.531,5.907-14.459,8.582c-5.553,3.015-10.083,5.247-14.577,7.279c-5.296,1.908-10.698,3.542-16.144,4.805
	c-6.156,1.428-13.504,1.872-19.804,4.079c-1.321,0.068-2.609,0.152-3.833,0.221c-7.639,0.427-15.25,1.33-22.855,2.15
	c-14.831,1.599-28.092,2.387-42.197,0.725c-27.492-3.239-51.777-12.135-75.479-26.425c-20.887-12.594-38.857-28.703-53.834-49.404
	c-7.098-9.808-11.746-19.862-18.924-29.833c-0.81-3.229-2.224-6.31-3.677-9.357c-1.786-4.913-3.602-9.813-5.192-14.794
	c-0.222-0.693-0.427-1.391-0.632-2.088c-0.079-0.27-0.156-0.54-0.239-0.807c-3.889-13.66-4.774-28.029-5.252-42.162
	c-0.936-27.621,4.326-56.441,15.561-81.742c18.953-42.678,58.615-74.721,102.281-89.675c3.409-1.167,6.858-2.238,10.336-3.209
	c0.351,1.446,0.694,2.894,1.059,4.335c0.609,2.403,1.268,4.793,1.936,7.182c0.441,1.581,1.855,4.305,1.822,5.873
	c-0.006,0.267,0.022,0.513,0.064,0.749c0.307,2.106,1.706,2.956,3.435,2.94c-0.412,2.296,1.644,3.869,3.944,2.432
	c6.541-4.08,11.836-10.324,17.486-15.522c6.352-5.842,13.041-11.296,19.273-17.267c11.96-11.454,23.047-24.347,36.361-34.316
	c7.019-2.088,14.481-12.37,6.488-16.236c-17.266-8.353-35.332-14.697-53.518-20.718c-9.172-3.036-18.459-5.715-27.707-8.511
	c-8.172-2.472-17.787-6.248-25.992-2.373c-1.057,0.5-2.295,2.076-2.07,3.329c0.183,1.02,0.53,1.948,0.994,2.807
	c-1.096,7.359,0.791,14.672,2.709,21.786c1.04,3.861,2.079,7.67,3.049,11.49c-9.931,2.216-19.897,5.767-29.02,9.464
	c-11.509,4.665-22.101,10.697-32.268,17.787c-35.284,24.603-63.145,58.577-80.832,97.772
	c-33.896,75.119-27.799,167.126,26.107,231.389c24.934,29.724,58.282,51.012,94.865,63.964c15.479,6.187,31.703,10.53,48.148,12.898
	c8.667,1.248,17.32,1.796,25.982,1.806C301.079,523.601,315.849,523.187,330.311,521.554z"/>
<path fill="#231F20" d="M367.101,192.998c-8.687,11.586-16.899,23.354-24.735,35.531c-7.632,11.86-15.191,23.766-23.113,35.437
	c-3.938,5.799-8.057,11.471-12.355,17.008c-2.126,2.738-4.322,5.424-6.553,8.079c-0.395,0.47-0.872,0.979-1.359,1.521
	c-2.87-1.925-7.969-0.717-10.848,0.729c-5.846,2.937-8.832,9.596-8.762,15.859c0.043,3.912,2.021,7.298,5.143,9.509
	c2.996,2.123,7.17,1.613,10.501,0.903c6.239-1.332,13.137-6.82,15.476-12.825c1.371-3.523,2.044-8.288-1.136-11.167
	c-0.607-0.55-1.269-1.025-1.966-1.431c7.979-8.179,14.774-17.931,21.344-27.047c8.246-11.445,15.756-23.418,23.521-35.19
	c7.646-11.594,15.745-22.773,24.104-33.862c4.166-5.525,8.259-11.103,12.13-16.839c4.133-6.123,7.381-12.988,11.672-18.954
	c5.424-7.542-4.664-11.483-9.495-5.133c-1.617,2.126-3.107,4.001-4.329,6.402c-0.678,1.333-0.532,2.58,0.104,3.461
	c-2.128,3.963-4.911,7.799-7.181,11.182C375.408,181.919,371.25,187.463,367.101,192.998z M295.882,302.392
	C296.349,302.737,296.167,302.641,295.882,302.392L295.882,302.392z M295.737,308.203
	C295.808,308.253,295.823,308.268,295.737,308.203L295.737,308.203z"/>
<path fill="#231F20" d="M290.985,452.96c0.431,0.188,0.588,0.238,0.78,0.244c-0.24-0.051-0.478-0.13-0.715-0.229
	C291.029,452.97,291.007,452.965,290.985,452.96z"/>
<path fill="#231F20" d="M297.567,432.605c-0.922-2.424-4.092-1.577-5.571-0.296c-2.517,2.18-3.442,5.432-3.808,8.604
	c-0.318,2.766-1.008,7.069,0.042,9.724c0.549,1.386,1.555,2.022,2.755,2.322c-0.095-0.042-0.192-0.085-0.319-0.142
	c0.127,0.069,0.257,0.104,0.385,0.157c0.562,0.133,1.16,0.203,1.78,0.229c-0.633-0.028-0.872,0.005-1.065-0.001
	c1.885,0.396,3.836-0.588,5.319-1.721c0.114-0.087,0.207-0.2,0.31-0.301c0.022-0.019,0.039-0.031,0.067-0.054
	c1.193-0.962,2.475-2.751,2.661-4.322c0.238-2.022-0.303-3.769-0.731-5.701c0.055,0.212-0.289-1.55-0.341-1.851
	c-0.145-0.84-0.3-1.677-0.425-2.52c-0.141-0.952-0.29-1.85-0.647-2.747c-0.042-0.111-0.075-0.224-0.113-0.336
	C297.898,433.711,297.664,432.858,297.567,432.605z"/>
<path fill="#231F20" d="M296.901,159.387c-0.02-0.203-0.021-0.402-0.023-0.606c-0.002-0.732-0.229-1.444-0.611-2.059
	c-0.098-0.595-0.185-1.191-0.27-1.788c-0.199-1.377-0.4-2.744-0.654-4.113c-0.375-2.031-0.822-5.49-2.941-6.568
	c-1.73-0.879-3.457,0.299-4.6,1.529c-1.768,1.898-2.225,5.154-2.592,7.614c-0.256,1.716-0.387,3.438-0.531,5.166
	c-0.055,0.663-0.104,1.327-0.148,1.992c-0.007,0.104-0.03,0.314-0.056,0.532c-0.302,1.172-0.292,2.393,0.2,3.709
	C287.165,171.458,297.422,164.802,296.901,159.387z M296.55,157.738C296.625,157.946,296.606,157.899,296.55,157.738L296.55,157.738
	z"/>
<path fill="#231F20" d="M148.36,297.395c-4.607,0.406-10.547,0.926-14.102,4.199c-2.041,1.877-3.658,5.807-0.588,7.609
	c2.936,1.725,7.994,0.674,11.227,0.43c4.783-0.36,8.908,0.805,13.131-1.339c3.447-1.75,5.348-5.999,3.262-9.368
	C159.241,295.615,151.6,297.109,148.36,297.395z"/>
<path fill="#231F20" d="M441.137,304.829c3.457,1.167,7.561,0.74,11.176,0.718c4.049-0.024,8.092-0.17,12.143-0.163
	c3.502,0.006,6.949-3.452,7.646-6.71c0.761-3.546-2.197-6.28-5.516-5.676c-8.176,0.151-17.39,0.714-24.826,4.237
	C438.659,298.704,437.327,303.543,441.137,304.829z"/>
</svg>
