<?xml version="1.0" encoding="utf-8"?>
<!-- Generator: Adobe Illustrator 17.0.0, SVG Export Plug-In . SVG Version: 6.00 Build 0)  -->
<!DOCTYPE svg PUBLIC "-//W3C//DTD SVG 1.0//EN" "http://www.w3.org/TR/2001/REC-SVG-20010904/DTD/svg10.dtd">
<svg version="1.0" id="Layer_1" xmlns="http://www.w3.org/2000/svg" xmlns:xlink="http://www.w3.org/1999/xlink" x="0px" y="0px"
	 width="566.93px" height="566.93px" viewBox="0 0 566.93 566.93" enable-background="new 0 0 566.93 566.93" xml:space="preserve">
<path d="M484.543,150.679c-0.723-9.117-2.547-18.452-6.493-26.75c-3.421-7.195-8.899-15.126-16.519-18.152
	c-1.15-0.457-2.34-0.829-3.52-1.201c-6.594-2.082-16.237,10.942-8.507,13.979c7.565,2.972,12.928,7.197,16.29,14.671
	c3.729,8.289,4.878,17.501,5.337,26.491c0.834,16.345-0.477,34.922-6.384,50.345c-5.199,13.573-14.415,23.777-26.163,30.722
	c-12.278,7.258-26.896,10.546-41.396,11.259c-30.062,1.479-62.657-8.841-84.627-29.796c-10.5-10.016-18.465-22.921-21.372-37.245
	c-4.078-20.091,0.244-41.643,10.401-59.258c14.722-25.533,42.462-38.641,70.937-40.748c13.31-0.985,26.932-1.043,40.136,1.069
	c10.25,1.64,23.179,4.798,27.356,15.679c0.666,1.735,3.347,0.009,3.203-1.417c-1.47-14.476-21.045-19.347-32.801-21.558
	c-16.165-3.041-33.269-3.361-49.571-1.175c-43.862,5.881-78.205,43.098-82.919,86.561c-1.846,17.018,0.784,33.978,9.284,48.957
	c7.667,13.512,18.979,24.289,32,32.622c26.499,16.957,60.851,23.303,91.698,17.429c32.346-6.16,59.25-26.773,68.835-58.933
	C484.768,187.38,485.924,168.106,484.543,150.679z"/>
<path d="M376.857,17.157c-3.582,7.64-8.268,14.811-12.329,22.205c-3.437,6.257-7.622,13.98-8.185,21.207
	c-0.179,2.298,3.175,1.292,3.917,0.19c0.905-1.343,1.753-2.736,2.575-4.152c1.725,0.905,3.648,0.592,5.734,0.046
	c2.977-0.778,5.9-1.132,8.972-1.289c6.304-0.319,12.611,0.577,18.905,0.784c4.396,0.145,8.192-5.648,5.757-9.354
	c-6.766-10.294-10.366-22.348-18.135-32.004C381.985,12.204,377.886,14.963,376.857,17.157z M369.257,44.591
	c0.708-1.331,1.425-2.652,2.171-3.943c2.787-4.82,5.512-9.699,8.326-14.517c2.867,5.862,5.333,11.903,7.95,17.877
	c-2.539-0.217-5.083-0.384-7.634-0.446C376.985,43.487,372.894,43.602,369.257,44.591z"/>
<path d="M299.06,40.622c1.765,15.25,1.978,30.787,1.615,46.124c-0.122,5.121,6.686,4.043,9.139,1.789
	c3.021-2.775,6.348-4.987,9.913-7.006c3.342-1.892,6.716-2.094,10.136-3.487c2.952-1.202,7.846-6.003,4.501-9.387
	c-0.357-0.361-0.742-0.646-1.139-0.898c1.605-0.264,3.408-2.087,2.101-3.435c-4.302-4.434-7.824-10.448-11.612-15.376
	c-4.437-5.771-9.226-11.071-15.471-14.926C304.465,31.688,298.596,36.613,299.06,40.622z M316.908,56.785
	c2.086,2.236,4.171,4.618,6.572,6.52c2.096,1.659,4.112,2.536,6.337,3.419c-3.446-0.17-7.346,1.619-10.187,2.98
	c-2.525,1.21-4.976,2.608-7.324,4.163c-0.138-7.525-0.304-15.028-0.793-22.524C313.361,53.06,315.136,54.886,316.908,56.785z"/>
<path d="M278.98,108.908c0.523,0.041,1.049,0.091,1.571,0.129c1.974,0.145,4.788-2.598,2.556-4.199
	c-12.013-8.618-28.982-9.191-43.035-12.271c-3.746-0.821-8.418,3.221-8.054,7.068c1.236,13.073,7.261,27.439,15.658,37.521
	c2.445,2.936,7.59,0.688,9.296-1.932c3.187-4.893,6.983-9.368,11.14-13.461c3.391-3.338,10.293-7.276,10.843-12.348
	C278.972,109.252,278.975,109.079,278.98,108.908z M261.54,114.274c-2.754,2.909-5.48,5.863-8.024,8.961
	c-3.674-5.566-6.587-11.996-8.473-18.469c7.538,1.185,15.147,2.244,22.739,3.082C265.485,109.781,263.462,112.244,261.54,114.274z"
	/>
<path d="M217.682,200.881c4.25,0.902,8.548,1.373,12.855,1.909c4.488,0.558,9.858,0.905,13.261,4.259
	c3.05,3.006,7.083,0.787,9.184-2.27c2.558,0.773,6.232-1.437,7.129-3.832c2.143-5.718-0.953-12.334-2.784-17.817
	c-2.19-6.556-3.721-13.344-5.98-19.855c-0.625-1.8-2.3-1.506-3.666-0.573c0.384-1.891-1.849-2.438-3.29-1.206
	c-10.837,9.266-19.963,21.938-27.993,33.635C215.053,197.09,214.74,200.257,217.682,200.881z M245.279,167.787
	c-0.56,5.436,0.988,11.034,2.126,16.294c0.778,3.597,1.631,7.176,2.277,10.801c0.122,0.681,0.192,1.39,0.25,2.107
	c-7.712-2.496-15.729-2.453-23.699-3.434c3.015-4.229,6.177-8.348,9.39-12.435C238.976,176.858,242.563,172.544,245.279,167.787z"/>
<path d="M268.9,274.3c5.954-3.872,13.762-5.983,20.761-6.912c3.39-0.451,5.628-3.293,6.2-5.95c4.66-0.947,9.589-6.103,5.896-10.129
	c-4.484-4.888-9.551-8.929-14.958-12.745c-4.959-3.499-10.242-8.303-16.074-10.138c-2.094-0.659-3.974,2.013-3.578,3.813
	c0.155,0.704,0.379,1.385,0.661,2.046c-2.977,3.485-3.851,9.275-4.117,13.435c-0.497,7.766,0.709,15.764-0.35,23.475
	C262.885,274.512,266.198,276.058,268.9,274.3z M278.081,245.656c3.632,3.251,7.584,6.618,10.593,10.571
	c-0.004,0.39,0.037,0.784,0.155,1.18c-5.735,1.639-11.66,3.281-16.925,6.088c-0.056-4.649-0.203-9.292-0.246-13.949
	c-0.029-3.149,0.083-6.298,0.307-9.438C273.94,242.135,276.18,243.955,278.081,245.656z"/>
<path d="M339.489,311.165c3.934-4.192,7.672-8.396,12.016-12.189c3.93-3.432,10.8-6.324,12.847-11.234
	c0.013-0.032,0.023-0.065,0.036-0.097c4.063-2.009,7.704-7.709,2.994-9.81c-12.617-5.628-26.303-6.187-39.517-9.707
	c-1.649-0.439-4.444,1.824-4.313,3.658c-0.439,0.583-0.704,1.264-0.651,1.926c0.461,5.758,2.348,11.384,3.733,16.975
	c1.654,6.679,3.211,13.379,4.877,20.055C332.384,314.232,337.75,313.018,339.489,311.165z M346.25,290.598
	c-2.43,2.155-4.931,4.484-7.262,6.965c-1.09-3.351-2.085-6.737-3.142-10.089c-1.012-3.21-2.037-6.622-3.493-9.774
	c6.861,2.709,14.543,3.611,21.298,6.575C350.832,286.226,348.239,288.834,346.25,290.598z"/>
<path d="M450.194,269.308c-8.213-0.508-16.451,1.518-24.379,3.48c-7.646,1.892-16.212,3.826-23.281,7.326
	c-0.702,0.348-1.34,1.022-1.777,1.798c-1.489,0.389-3.215,2.182-1.947,3.493c10.55,10.9,21.504,21.715,32.875,31.742
	c3.218,2.838,8.706,0.497,10.124-3.32c2.874-7.736,5.02-16.012,6.843-24.063c0.58-2.563,1.085-5.143,1.631-7.713
	c0.254-1.192,0.521-2.382,0.818-3.565c0.043-0.172,0.11-0.45,0.181-0.759C453.916,274.486,454.506,269.575,450.194,269.308z
	 M438.083,281.317c-0.536,2.284-0.829,4.688-1.254,6.991c-0.238,1.288-0.487,2.574-0.756,3.856
	c-0.111,0.526-0.173,0.828-0.208,1.004c0.047-0.273,0.071-0.54-0.383,1.177c-0.796,3.014-1.504,6.05-2.211,9.086
	c-7.207-5.375-13.341-12.801-20.863-17.462c3.706-0.647,7.402-1.678,10.777-2.345C428.196,282.634,433.112,281.903,438.083,281.317z
	"/>
<path d="M422.074,60.497c-1.164,1.712-1.082,4.988,1.819,4.566c0.625-0.091,1.238-0.248,1.846-0.431
	c3.379,3.578,7.621,6.366,11.708,9.04c3.701,2.422,8.946,4.931,12.313,8.259c0.505,1.221,1.361,2.115,2.597,2.81
	c1.702,0.956,3.665,0.653,5.369-0.3c0.996,0.238,2.108,0.188,3.149-0.142c14.551-4.618,5.832-29.403,13.555-39.367
	c2.693-3.475,0.512-8.18-4.103-6.747c-8.787,2.729-17.472,5.676-25.976,9.203C437.363,50.286,426.5,53.986,422.074,60.497z
	 M461.684,50.178c-1.144,3.62-1.74,7.454-2.217,11.227c-0.463,3.663-0.92,7.281-1.787,10.877c-0.028,0.113-0.066,0.224-0.096,0.337
	c-3.148-1.874-7.237-3.128-9.473-4.172c-5.121-2.392-10.287-4.895-15.585-6.955c0.223-0.116,0.445-0.234,0.667-0.346
	c4.248-2.143,8.7-3.886,13.126-5.618C451.36,53.555,456.5,51.786,461.684,50.178z"/>
<path d="M486.903,126.69c0.151,1.283,0.657,2.465,1.792,3.45c1.479,1.284,3.284,1.503,4.985,1.043
	c1.937,2.209,5.671,1.598,8.195-0.578c1.164-1.003,2.199-2.069,2.863-3.482c0.314-0.646,0.508-1.319,0.605-2.011
	c0.031-0.055,0.061-0.108,0.098-0.182c1.802-2.843,4.339-5.101,6.82-7.333c4.917-4.425,10.327-8.083,15.906-11.599
	c1.973-1.243,3.762-3.329,3.619-5.815c-0.019-0.328-0.038-0.655-0.057-0.982c-0.129-2.252-1.996-3.38-4.088-3.298
	c-15.19,0.601-31.285-1.175-46.211,2.167c-2.263,0.507-4.211,4.365-1.716,5.506C479.066,110.98,483.619,119.948,486.903,126.69z
	 M512.791,105.535c-1.473,1.105-2.923,2.229-4.349,3.355c-2.549,2.013-4.964,4.185-7.26,6.48c-1.315,1.315-2.522,3.03-3.795,4.545
	c-2.359-3.597-4.577-7.267-6.61-11.065c-0.637-1.19-1.241-2.48-1.884-3.76c4.426,0.332,8.937,0.281,13.229,0.345
	C505.674,105.487,509.232,105.504,512.791,105.535z"/>
<path d="M541.423,174.78c-11.712-5.931-23.687-11.478-35.29-17.618c-1.651-0.874-3.591-0.479-5.252,0.546
	c-0.308-1.045-0.684-2.073-1.165-3.073c-0.886-1.842-3.553-0.656-4.139,0.843c-3.067,7.846-3.174,16.304-4.145,24.596
	c-0.608,0.788-1.051,1.658-1.232,2.509c-0.563,2.643-0.229,4.494,1.315,6.714c1.183,1.701,3.09,1.919,4.997,1.294
	c-0.521,1.067-0.803,2.234-0.739,3.443c0.249,4.684,5.618,5.154,8.883,3.242c10.376-6.078,21.574-9.574,33.211-12.153
	C541.554,184.306,546.264,177.231,541.423,174.78z M502.246,185.658c-0.031,0.011-0.062,0.024-0.093,0.035
	c0.444-0.936,0.64-1.893,0.471-2.779c-0.901-4.729-0.548-9.797-0.558-14.78c6.475,3.297,13.339,6.172,19.859,9.537
	C515.269,180.16,508.806,183.469,502.246,185.658z"/>
<path d="M520.819,259.258c-6.978-3.728-10.218-11.799-13.384-19.018c-2.502-5.706-6.399-17.033-13.555-18.143
	c-0.11-0.017-0.22-0.004-0.331-0.009c-0.003-0.063-0.001-0.124-0.005-0.187c-0.158-2.902-4.091-1.964-5.187-0.252
	c-3.368,5.265-5.91,11.054-9.278,16.356c-3.483,5.484-8.067,10.654-10.906,16.503c-1.445,2.978,0.138,7.04,3.957,6.473
	c3.316-0.492,5.931-2.713,7.143-5.813c0.224-0.574,0.349-1.09,0.427-1.578c3.424-7.024,9.054-13.907,11.979-21.368
	c0.631,1.294,1.299,2.551,1.82,3.724c1.821,4.098,3.277,8.361,4.889,12.544c1.455,3.775,3.133,7.471,5.151,10.952
	c-3.436,0.067-6.872,0.09-10.298,0.131c-7.249,0.087-17.515-1.231-23.006,4.465c-2.432,2.523-4.364,6.718-0.708,9.164
	c2.814,1.882,5.905,1.117,9.065,0.787c3.894-0.407,7.816-0.573,11.725-0.772c8.345-0.425,16.721-0.65,24.947-2.224
	C519.422,270.199,527.289,262.714,520.819,259.258z"/>
<path d="M166.801,375.988c8.248,0.784,20.563,3.041,25.797,10.183c2.297,3.133,6.153,1.794,8.844-0.843
	c0.656-0.032,1.313-0.385,1.67-0.94c2.055-3.197,1.618-7.801,2.991-11.397c1.096-2.87,3.206-5.185,5.563-6.719
	c6.782-4.416,15.7-5.292,23.59-5.6c8.413-0.328,17.034,0.706,25.131,3.015c2.306,0.658,4.903,1.658,7.419,3.31
	c0.082,0.053,0.137,0.087,0.182,0.113c0.066,0.065,0.147,0.143,0.26,0.25c0.404,0.378,1.057,1.711,0.216,0.115
	c0.572,1.087,1.197,2.11,1.842,3.153c1.559,2.52,4.238,1.974,6.594,0.536c3.846,0.316,9.493-2.807,10.741-5.901
	c0.357-0.886,0.659-1.792,0.932-2.708c0.398-1.339,0.177-2.872-0.503-4.13c-2.175-16.521-8.317-30.886-18.955-44.034
	c-11.526-14.246-27.044-25.405-43.008-34.165c-13.667-7.5-28.778-11.587-44.23-13.348c-14.477-1.649-32.355-1.216-43.447,9.575
	c-2.281,2.22-0.806,5.957,2.443,4.073c11.524-6.681,26.353-5.227,38.889-2.978c13.884,2.491,26.904,7.601,39.072,14.658
	c21.834,12.664,47.848,34.419,53.406,60.887c-1.454-0.589-2.852-1.064-4.026-1.427c-9.958-3.078-20.979-3.485-31.299-2.65
	c-10.657,0.863-21.663,3.868-30.059,10.742c-1.063-4.835-4.795-10.329-6.691-13.695c-3.935-6.986-8.651-13.597-13.252-20.158
	c-11.02-15.712-28.219-30.501-47.866-32.716c-0.951-0.107-2.615,1.542-1.33,2.186c7.934,3.98,15.942,7.949,23.042,13.321
	c7.705,5.831,13.776,13.493,18.849,21.646c3.746,6.019,6.769,12.601,9.79,19.002c2.812,5.961,5.31,10.948,4.883,17.523
	c-0.165,2.542,2.369,4.057,4.601,4.081c-0.131,0.345-0.267,0.687-0.386,1.039c-0.188,0.553-0.361,1.254-0.505,2.032
	c-3.315-1.664-6.556-3.418-10.162-4.621c-5.791-1.93-11.689-3.009-17.772-3.442c-11.531-0.822-23.285,0.699-34.19,4.54
	c-10.685,3.763-19.919,10.475-26.067,20.054c-2.592,4.039-4.869,8.924-6.226,14.011c-0.085-0.404-0.217-0.809-0.416-1.21
	c-3.516-7.095-5.178-15.375-6.939-23.049c-2.168-9.445-3.66-19.082-4.262-28.755c-1.094-17.572,0.151-39.522,16.988-49.521
	c0.994-0.59,0.655-2.031-0.557-1.457c-18.497,8.767-25.477,28.969-26.347,48.228c-0.5,11.063,0.632,22.191,2.44,33.094
	c1.402,8.461,3.947,16.78,5.307,25.234c-2.71-0.899-5.491-1.422-8.357-1.602c-7.342-0.46-14.357,1.365-20.98,4.423
	c-6.011,2.775-11.549,7.347-15.442,12.691c-1.239,1.701-2.283,3.553-3.161,5.474c-1.125-1.47-2.332-2.914-3.046-4.537
	c-3.378-7.684-4.147-16.96-4.353-25.239c-0.438-17.668,4.407-35.229,11.477-51.279c6.663-15.125,16.141-30.087,27.849-41.836
	c6.001-6.022,13.058-11.138,20.511-15.209c4.062-2.219,8.877-3.412,13.431-4.018c4.15-0.552,8.311,0.188,12.457-0.232
	c1.152-0.117,3.491-2.161,2.074-3.369c-5.835-4.974-15.642-2.897-22.374-1.13c-8.987,2.358-17.419,6.55-24.906,11.994
	c-15.263,11.099-26.687,26.951-35.78,43.292c-9.67,17.377-16.086,36.975-17.661,56.832c-0.767,9.674-0.349,19.335,1.581,28.856
	c0.908,4.478,1.937,8.858,4.122,12.9c0.843,1.561,1.858,3.011,2.758,4.533c0.423,1.08,1.143,1.9,2.159,2.459
	c0.704,0.546,1.083,1.26,0.365,0.176c1.87,2.823,6.501,0.949,8.384-0.679c0.138-0.12,0.266-0.256,0.399-0.384
	c0.739,0.223,1.838-0.53,2.043-1.361c2.416-9.791,9.452-18.36,18.694-22.32c4.663-1.998,9.82-2.907,14.876-2.438
	c4.002,0.372,11.252,2.143,13.122,6.117c3.176,6.75,11.163,0.654,12.4-4.413c0.157,1.464,0.422,2.905,0.84,4.301
	c0.334,1.114,1.936,0.217,2.215-0.451c3.55-8.49,5.263-17.391,9.852-25.488c4.823-8.511,13.157-13.539,22.243-16.4
	C146.92,375.846,157.082,375.065,166.801,375.988z M100.27,412.25c-0.287-0.117-0.565-0.247-0.845-0.375
	c1.318-0.813,2.483-1.901,3.261-3.138c-0.278,1.778-0.42,3.557-0.41,5.315C101.932,413.298,101.292,412.667,100.27,412.25z"/>
<path d="M134.16,265.773c-4.795-5.725-10.017-14.099-17.311-16.75c-2.806-1.02-5.764,0.938-6.48,3.766
	c-1.028,4.06-0.791,7.876,0.072,11.938c1.066,5.021,3.986,7.938,6.884,11.807c1.227,1.638,3.877-0.845,3.389-2.419
	c-1.048-3.384-1.441-7.059-2.421-10.492c-0.27-0.946-0.485-1.895-0.639-2.846c2.952,3.868,4.793,8.849,8.049,12.417
	C129.479,277.33,137.756,270.066,134.16,265.773z"/>
<path d="M435.903,497.458c-5.286-1.89-10.754-3.165-16.257-4.238c-12.239-2.387-24.938-2.891-37.362-2.089
	c-18.827,1.215-44.952,6.43-55.169,24.284c-11.021-2.998-22.268-4.801-33.836-5.183c-16.414-0.542-32.66,3.052-47.927,8.913
	c-3.015,1.158-6.058,2.392-9.092,3.712c-6.373-12-12.92-23.898-19.67-35.693c-6.413-11.206-13.248-22.155-19.419-33.495
	c-6.768-12.437-13.247-25.025-19.78-37.586c-3.219-6.189-6.473-12.361-9.748-18.521c-2.729-5.134-5.902-13.033-11.204-15.84
	c-1.013-0.537-2.09,0.602-2.149,1.545c-0.356,5.646,3.065,11.646,5.384,16.665c2.933,6.349,5.807,12.725,8.681,19.1
	c5.565,12.342,11.188,24.669,17.083,36.858c5.624,11.627,11.862,22.876,18.003,34.232c6.921,12.798,13.719,25.673,20.114,38.743
	c0.02,0.041,0.039,0.082,0.058,0.123c-8.881,4.817-17.224,10.603-24.03,17.725c-1.411,1.476-0.584,3.687,1.557,2.596
	c8.69-4.424,16.892-9.51,25.422-13.979c1.332,2.994,2.594,6.02,3.755,9.076c0.624,1.642,0.935,1.658,0.749,4.053
	c-0.077,0.998,0.361,1.902,0.906,2.721c0.038,0.125,0.069,0.249,0.117,0.374c0.689,1.799,2.358,2.687,4.159,2.844
	c3.775,0.665,7.627-3.046,9.085-6.137c0.396-0.839,0.795-1.9,0.896-2.865c0.218-2.073,0.068-3.268-1.083-5.027
	c1.176,1.798,0.294,0.448-0.263-0.44c0.067,0.088-0.583-1.049-0.759-1.41c-0.533-1.095-0.99-2.232-1.511-3.334
	c-0.941-1.993-1.946-3.955-2.964-5.909c2.006-0.781,4.047-1.503,6.135-2.146c14.375-4.43,29.833-5.651,44.802-4.552
	c15.118,1.109,30.11,4.919,44.221,10.358c8.073,3.112,15.918,6.828,23.593,10.813c7.967,4.137,16.268,9.816,25.304,11.086
	c2.643,0.371,7.765-3.104,5.875-6.262c-4.764-7.962-14.042-12.691-22.027-16.907c-8.159-4.306-16.575-8.082-25.212-11.321
	c-3.273-1.228-6.564-2.35-9.873-3.371c11.199-13.289,31.83-16.667,48.078-17.73c10.701-0.7,21.469-0.083,32.041,1.682
	c5.87,0.98,15.049,2.376,20.869,6.174c-0.301,0.991-0.215,2.005,0.612,2.836c1.504,1.511,2.604,2.397,4.774,2.729
	c4.103,0.627,10.986-4.45,8.578-9.141C445.562,499.906,439.644,498.796,435.903,497.458z"/>
</svg>
