<?xml version="1.0" encoding="UTF-8" standalone="no"?><!DOCTYPE svg PUBLIC "-//W3C//DTD SVG 1.1//EN" "http://www.w3.org/Graphics/SVG/1.1/DTD/svg11.dtd"><svg width="100%" height="100%" viewBox="0 0 538 464" version="1.1" xmlns="http://www.w3.org/2000/svg" xmlns:xlink="http://www.w3.org/1999/xlink" xml:space="preserve" style="fill-rule:evenodd;clip-rule:evenodd;stroke-linejoin:round;stroke-miterlimit:1.41421;"><g id="sun"><path d="M302.373,123.935c-17.978,-7.229 -37.907,-7.43 -56.921,-5.271c-20.711,2.352 -41.183,8.784 -59.887,17.894c-36.993,18.015 -68.725,48.707 -80.158,89.056c-6.052,21.358 -5.31,44.442 3.646,64.854c8.575,19.542 23.771,34.885 41.221,46.768c32.502,22.131 71.683,29.742 110.425,29.381c37.572,-0.351 77.813,-8.188 108.162,-31.6c14.326,-11.052 25.055,-25.879 30.455,-43.16c7.367,-23.577 7.082,-49.829 2.373,-73.88c-2.553,-13.044 -7.021,-25.777 -13.489,-37.396c-5.875,-10.552 -14.315,-19.737 -23.063,-27.965c-17.543,-16.502 -43.021,-34.917 -68.417,-30.619c-2.928,0.495 -5.784,2.775 -7.439,5.153c-1.349,1.936 -2.278,5.532 1.148,5.744c23.136,1.435 44.122,13.775 61.386,28.502c8.237,7.027 15.855,14.939 22.021,23.859c6.993,10.117 11.416,21.889 14.561,33.703c6.553,24.626 6.404,50.913 -0.129,75.499c-4.203,15.821 -14.789,29.142 -28.233,38.215c-30.854,20.819 -72.022,25.245 -108.308,23.64c-39.725,-1.757 -79.77,-14.083 -109.557,-41.404c-15.872,-14.558 -26.912,-33.483 -30.029,-54.904c-3.154,-21.667 2.475,-44.062 12.997,-63.002c20.229,-36.412 60.342,-59.049 99.844,-68.237c24.854,-5.781 50.356,-5.695 75.559,-2.589c0.752,0.089 2.969,-1.783 1.832,-2.241Z" style="fill:#010101;fill-rule:nonzero;"/><path d="M342.528,64.455c-7.137,5.551 -13.322,12.211 -17.941,20.003c-4.162,7.021 -8.058,17.083 -2.929,24.666c6.282,9.289 23.161,3.656 31.288,0.993c15.637,-5.124 30.399,-13.253 44.435,-21.732c6.063,-3.663 11.99,-7.548 17.774,-11.635c4.012,-2.834 9.045,-5.908 10.598,-10.795c0.688,-2.161 -2.232,-1.99 -3.373,-1.527c-3.687,1.493 -6.691,4.313 -9.879,6.654c-4.441,3.265 -9.066,6.273 -13.73,9.211c-12.146,7.646 -24.809,14.652 -38.063,20.186c-8.066,3.367 -21.239,9.253 -29.754,4.24c-6.061,-3.568 -3.738,-13.333 -1.703,-18.458c3.041,-7.661 8.528,-15.216 14.391,-20.977c1.106,-1.09 -0.163,-1.57 -1.114,-0.829Z" style="fill:#010101;fill-rule:nonzero;"/><path d="M433.102,69.205c-14.922,8.185 -28.705,18.563 -38.868,32.366c-6.13,8.324 -14.286,23.709 -8.659,34.11c4.368,8.074 17.109,6.998 24.615,6.321c10.99,-0.992 21.713,-3.944 32.451,-6.332c2.859,-0.637 5.733,-2.841 6.955,-5.529c1.082,-2.38 -0.313,-4.014 -2.826,-3.555c-19.345,3.528 -41.395,19.106 -47.416,38.339c-4.215,13.463 5.828,21.784 17.777,24.26c15.397,3.19 31.865,0.896 47.219,-1.44c15.857,-2.411 31.363,-6.096 46.945,-9.813c5.044,-1.203 9.502,-2.858 14.254,-4.315c1.672,-0.512 7.187,-6.192 2.951,-6.49c-11.545,-0.813 -23.65,3.273 -34.914,5.543c-16.758,3.376 -33.517,6.744 -50.635,7.581c-10.047,0.49 -27.039,1.331 -32.557,-9.34c-3.771,-7.295 1.774,-15.901 6.638,-20.986c6.602,-6.905 16.178,-12.501 25.608,-14.254c1.375,-3.028 2.752,-6.057 4.129,-9.084c-9.252,2.088 -18.426,4.531 -27.803,6.024c-6.787,1.081 -17.257,2.757 -23.135,-1.986c-7.854,-6.34 0.037,-21.201 3.813,-27.515c8.02,-13.403 21.479,-23.62 34.114,-32.4c1.236,-0.856 0.903,-2.36 -0.656,-1.505Z" style="fill:#010101;fill-rule:nonzero;"/><path d="M96.973,45.679c0.163,22.448 12.649,45.194 28.561,60.526c9.645,9.294 23.959,21.219 37.265,11.844c10.502,-7.399 10.694,-22.217 9.845,-33.689c-0.537,-7.25 -1.886,-14.367 -3.875,-21.354c-1.595,-5.598 -4.064,-12.979 -8.407,-17.025c-2.249,-2.096 -6.478,2.133 -6.444,4.434c0.078,5.588 1.693,11.161 2.633,16.653c1.076,6.291 2.494,12.506 3.41,18.832c0.821,5.672 1.298,11.463 0.875,17.189c-0.175,2.379 -0.498,4.719 -1.104,7.027c-0.197,0.752 -0.53,1.464 -0.89,2.226c-0.468,0.993 0.158,0.003 -0.391,0.599c0.641,-0.694 1.863,-0.577 -0.076,-0.48c-2.407,0.12 -4.7,-0.641 -6.911,-1.499c-7.779,-3.026 -14.854,-8.813 -20.913,-14.404c-15.115,-13.95 -24.771,-33.302 -30.039,-52.96c-0.47,-1.763 -3.549,0.864 -3.539,2.081Z" style="fill:#010101;fill-rule:nonzero;"/><path d="M158.763,52.876c4.835,16.538 13.338,37.81 30.591,44.801c13.726,5.563 26.479,-4.689 32.507,-16.372c6.757,-13.098 7.728,-29.163 8.201,-43.603c0.24,-7.376 0.161,-14.714 -0.282,-22.078c-0.266,-4.433 -1.354,-10.083 -3.361,-14.097c-1.113,-2.226 -5.643,1.811 -6.038,3.015c-3.472,10.568 -2.781,22.381 -2.858,33.36c-0.095,13.295 -0.8,27.121 -4.563,39.945c-0.72,2.454 -1.766,4.826 -2.945,7.09c-0.384,0.734 -1.047,1.641 -1.604,2.397c-0.081,0.108 -1.484,1.521 -0.801,0.926c-0.609,0.53 -1.446,1.024 -3.57,1.419c-2.956,0.548 -6.198,-0.161 -8.988,-1.077c-15.836,-5.2 -25.737,-24.042 -34.292,-37.103c-0.461,-0.697 -2.197,0.695 -1.997,1.377Z" style="fill:#010101;fill-rule:nonzero;"/><path d="M227.451,9.436c-3.825,21.579 -3.602,46.516 4.884,67.065c3.063,7.418 8.575,15.063 17.612,13.829c13.152,-1.799 23.122,-15.1 30.115,-25.131c-3.391,0.685 -6.779,1.368 -10.169,2.053c-1.67,12.757 -1.149,28.88 14.477,31.218c6.427,0.961 13.479,-1.37 19.336,-3.752c8.016,-3.261 16.244,-8.049 22.73,-13.789c-2.236,0.91 -4.475,1.82 -6.711,2.729c0.102,0.004 0.202,0.008 0.305,0.011c-0.86,-0.652 -1.721,-1.305 -2.581,-1.956c0.539,-2.69 0.516,-3.021 -0.068,-0.989c-0.063,1.729 -0.012,1.522 0.151,-0.621c-0.535,0.929 -0.567,2.224 0.167,3.035c1.282,1.417 4.032,-0.066 5.108,-1.031c-4.311,0.53 -5.662,0.975 -4.055,1.333c1.067,0.259 1.639,0.358 2.764,0.1c3.237,-0.746 13.364,-7.762 7.957,-11.385c-0.066,-0.045 -0.135,-0.09 -0.201,-0.135c-1.588,-1.063 -4.891,0.358 -6.19,1.249c-8.931,6.115 -18.491,14.075 -29.96,13.858c-12.352,-0.234 -12.977,-15.334 -11.934,-24.403c0.725,-6.298 -8.8,0.041 -10.169,2.052c-3.354,4.931 -6.91,9.925 -11.544,13.747c-2.266,1.868 -4.147,2.834 -7.454,2.398c-6.743,-0.89 -10.792,-10.411 -12.871,-15.773c-3.655,-9.428 -5.475,-19.596 -6.751,-29.587c-1.146,-8.95 -2.637,-18.119 -2.885,-27.144c-0.027,-0.934 -1.959,0.432 -2.063,1.019Z" style="fill:#010101;fill-rule:nonzero;"/><path d="M4.407,204.809c12.896,9.698 30.535,14.146 46.172,16.705c13.712,2.245 34.89,3.168 42.354,-11.636c5.159,-10.235 -8.909,-22.539 -15.255,-28.479c-12.527,-11.726 -26.846,-21.743 -41.475,-30.655c-8.195,-4.991 -17.477,-11.098 -27.119,-12.747c-2.538,-0.435 -11.309,5.865 -8.041,8.433c12.46,9.787 26.908,16.057 41.849,21.049c13.855,4.63 29.044,9.319 43.698,10.191c9.097,0.541 20.843,-3.082 22.937,-13.271c2.04,-9.927 -10.455,-20.575 -16.703,-26.217c-3.686,2.929 -7.371,5.859 -11.057,8.788c11.927,10.148 30.27,20.624 45.784,12.091c18.771,-10.323 7.776,-34.221 -5.677,-43.651c-3.349,-2.347 -10.318,4.594 -8.787,8.034c3.254,7.307 8.496,13.526 10.916,21.25c0.643,2.049 1.026,4.288 0.752,6.426c-0.023,0.188 -0.623,1.72 -0.158,0.959c0.271,-0.325 0.578,-0.611 0.924,-0.858c1.398,-1.255 -0.824,0.298 0.339,-0.211c-3.825,1.673 -9.925,0.068 -13.92,-1.317c-7.064,-2.451 -13.472,-6.682 -19.118,-11.51c-3.982,-3.405 -14.535,5.632 -11.057,8.788c5.951,5.399 14.428,12.46 16.037,20.829c0.313,1.62 -0.845,2.445 0.94,0.282c1.06,-1.285 2.015,-1.137 -0.298,-0.706c-4.614,0.858 -9.748,-0.076 -14.311,-0.811c-25.154,-4.045 -53.071,-11.933 -73.395,-27.844c-2.68,2.811 -5.361,5.622 -8.041,8.433c3.939,0.668 9.382,3.541 13.447,5.645c7.007,3.623 13.752,7.76 20.358,12.061c14,9.113 27.995,19.247 39.26,31.678c3.458,3.817 7.124,8.231 8.124,13.42c0.152,0.796 0.135,1.152 -0.046,2.009c0.183,-0.863 -0.499,0.773 0.152,-0.28c0.771,-1.247 -0.381,0.439 -0.555,0.621c-1.518,1.591 -5.802,2.134 -8.119,2.504c-9.271,1.478 -19.174,0.14 -28.353,-1.369c-9.634,-1.583 -19.235,-3.85 -28.539,-6.815c-3.821,-1.219 -7.683,-2.521 -11.267,-4.339c-0.988,-0.506 -3.721,1.793 -2.752,2.52Z" style="fill:#010101;fill-rule:nonzero;"/><path d="M6.894,296.69c12.124,-3.875 24.477,-7.288 37.037,-9.413c11.133,-1.884 28.087,-3.895 35.558,6.866c8.334,12.003 -4.366,26.429 -12.265,34.596c-10.302,10.648 -22.723,19.095 -32.806,29.935c-1.11,1.193 -3.602,4.771 -0.987,5.893c2.606,1.119 5.835,-1.438 7.533,-3.09c10.711,-10.413 26.266,-18.076 40.815,-21.029c10.47,-2.124 23.204,0.78 25.013,12.843c1.606,10.715 -4.432,22.262 -9.43,31.282c-5.05,9.115 -11.499,17.95 -17.272,26.221c-3.141,4.5 2.468,4.064 5.001,2.186c10.831,-8.035 18.702,-20.092 25.087,-31.83c5.826,-10.71 12.372,-25.152 8.815,-37.578c-4.158,-14.523 -21.869,-15.429 -34.051,-12.656c-18.342,4.173 -37.122,14.587 -50.524,27.762c2.183,0.935 4.364,1.868 6.546,2.803c11.109,-12.079 24.88,-21.43 35.907,-33.672c9.382,-10.416 20.245,-25.893 11.854,-39.975c-7.28,-12.216 -26.999,-9.555 -38.52,-7.528c-14.785,2.6 -28.861,7.94 -42.769,13.421c-1.521,0.594 -3.394,3.875 -0.542,2.963Z" style="fill:#010101;fill-rule:nonzero;"/><path d="M135.437,440.534c3.508,-17.011 15.637,-34.45 29.521,-44.637c6.916,-5.073 14.452,-6.185 22.339,-2.677c8.577,3.813 13.346,12.298 12.074,21.492c4.143,-1.659 8.284,-3.319 12.426,-4.979c0.067,-3.615 0.315,-7.375 1.622,-10.782c0.288,-0.75 1.577,-2.729 1.251,-2.363c0.677,-0.761 -1.293,0.559 0.181,-0.054c1.259,-0.521 4.311,-0.457 6.684,-0.079c3.036,0.481 6.023,1.91 8.72,3.323c6.438,3.374 11.719,8.81 15.734,14.798c4.051,6.04 4.172,13.502 8.089,19.37c2.333,3.495 8.924,-2.823 9.825,-4.903c7.646,-17.66 -12.822,-36.674 -27.875,-42.3c-7.869,-2.94 -16.867,-2.671 -23.942,2.168c-9.375,6.413 -12.675,15.972 -12.736,26.979c-0.016,2.594 4.081,1.736 5.34,1.23c2.854,-1.142 6.685,-4.065 7.107,-7.389c1.465,-11.513 -6.018,-20.891 -16.27,-25.186c-10.158,-4.254 -20.758,-1.524 -29.737,4.043c-17.564,10.895 -33.566,32.805 -35.059,53.83c-0.194,2.76 4.377,-0.286 4.706,-1.884Z" style="fill:#010101;fill-rule:nonzero;"/><path d="M375.35,460.341c-10.551,-11.221 -18.707,-25.037 -25.522,-38.756c-7.125,-14.342 -15.066,-32.545 -11.651,-48.916c3.725,-17.851 24.305,-10.692 35.602,-5.27c14.671,7.043 27.345,17.413 39.785,27.735c3.53,-3.229 7.062,-6.456 10.591,-9.685c-8.172,-3.863 -15.429,-10.415 -19.899,-18.286c-1.527,-2.689 -2.896,-6.997 -1,-9.799c-1.096,1.617 -0.247,0.607 1.133,0.316c1.776,-0.375 3.629,-0.223 5.422,-0.07c8.668,0.737 17.147,5.402 24.358,9.963c6.364,4.025 11.61,9.419 18.24,12.981c3.076,1.652 8.927,-3.567 8.438,-6.708c-1.485,-9.567 -12.669,-15.398 -20.377,-19.682c-9.451,-5.252 -21.101,-9.563 -32.021,-7.222c-10.914,2.34 -21.224,12.822 -18.085,24.521c2.894,10.781 14.291,19.844 24.021,24.281c3.729,1.699 14.386,-6.627 10.591,-9.685c-20.617,-16.603 -69.351,-53.247 -91.131,-19.729c-9.208,14.171 -2.485,33.135 3.662,47.066c7.276,16.488 18.022,32.323 30.051,45.72c1.299,1.446 2.651,2.844 4.053,4.191c1.254,1.219 4.873,-1.761 3.739,-2.966Z" style="fill:#010101;fill-rule:nonzero;"/><path d="M536.921,227.055c-21.81,-4.761 -45.562,-1.637 -65.541,8.672c-13.377,6.902 -25.569,16.765 -36.259,27.28c-9.153,9.006 -20.291,21.628 -20.801,35.211c-0.584,15.563 17.27,21.928 30.316,20.288c1.793,-0.227 6.726,-4.032 4.073,-5.829c-5.432,-3.684 -12.21,-4.647 -17.378,-8.972c-3.55,-2.973 -5.417,-6.518 -5.561,-11.152c-0.32,-10.429 9.776,-20.764 16.445,-27.568c8.478,-8.648 18.335,-16.227 28.893,-22.163c18.375,-10.334 41.783,-12.24 62.434,-11.649c1.382,0.038 5.445,-3.668 3.379,-4.118Z" style="fill:#010101;fill-rule:nonzero;"/><path d="M490.147,191.419c-15.033,3.722 -29.92,7.611 -44.172,13.806c-13.426,5.834 -27.854,14.124 -33.323,28.479c-0.322,0.845 -0.724,2.504 0.564,2.873c10.832,3.113 22.138,1.549 32.977,-0.742c6.005,-1.27 11.916,-2.997 17.829,-4.623c6.153,-1.692 12.628,-3.137 18.375,-5.954c0.687,-0.336 5.965,-4.622 3.059,-5.283c-4.281,-0.973 -8.533,0.293 -12.729,1.229c-5.946,1.326 -11.783,3.261 -17.687,4.778c-11.729,3.018 -23.549,5.158 -35.621,3.031c0.562,0.705 1.12,1.409 1.681,2.113c0.694,-5.364 5.493,-9.274 9.547,-12.302c5.709,-4.262 12.354,-7.345 18.869,-10.143c12.521,-5.378 25.69,-9.462 38.783,-13.198c1.622,-0.461 4.96,-4.835 1.848,-4.064Z" style="fill:#010101;fill-rule:nonzero;"/><path d="M163.277,187.827c-16.264,4.676 -18.058,40.04 2.077,38.554c2.696,-0.198 5.218,-2.172 6.349,-4.576c1.051,-2.234 0.658,-6.274 -2.581,-6.438c-9.594,-0.483 -10.645,-17.513 -3.928,-22.61c2.481,-1.884 1.491,-5.91 -1.917,-4.93Z" style="fill:#010101;fill-rule:nonzero;"/><path d="M156.584,263.22c-2.531,4.545 -3.942,9.712 -1.238,14.512c2.69,4.775 8.177,7.367 13.484,7.86c3.476,0.322 6.789,-1.65 8.284,-4.828c1.753,-3.728 -0.304,-6.829 -4.253,-6.957c-4.949,-0.159 -12.959,-3.105 -10.576,-9.524c1.67,-4.494 -3.995,-4.127 -5.701,-1.063Z" style="fill:#010101;fill-rule:nonzero;"/><path d="M240.05,317.22c5.613,3.196 13.715,2.679 19.026,-0.951c1.954,-1.336 3.762,-3.269 3.625,-5.826c-0.122,-2.299 -2.029,-3.4 -4.141,-3.34c-4.399,0.125 -8.434,2.24 -12.839,0.798c-4.402,-1.442 -10.555,6.538 -5.671,9.319Z" style="fill:#010101;fill-rule:nonzero;"/><path d="M322.904,297.414c7.631,2.777 16.795,0.341 20.575,-7.32c1.397,-2.832 -0.934,-5.492 -3.925,-4.473c-2.984,1.019 -6.291,3.617 -9.588,2.469c-2.857,-0.995 -5.693,0.08 -7.528,2.502c-1.287,1.696 -2.37,5.789 0.466,6.822Z" style="fill:#010101;fill-rule:nonzero;"/><path d="M346.366,253.253c-0.098,0.095 -0.202,0.18 -0.315,0.256c0.454,-0.324 0.908,-0.649 1.362,-0.974c-0.18,0.111 -0.356,0.204 -0.55,0.29c0.479,-0.211 0.959,-0.423 1.438,-0.635c-0.664,0.25 -1.385,0.426 -2.079,0.57c0.465,-0.094 0.929,-0.188 1.394,-0.281c-0.068,0.014 -0.136,0.026 -0.204,0.039c-0.988,0.096 -1.913,0.394 -2.772,0.893c-1.37,0.782 -2.535,1.987 -3.209,3.42c-1.043,2.217 -0.58,5.752 2.432,6.064c1.595,0.165 2.827,0.143 4.385,-0.253c1.513,-0.386 3.127,-1.334 4.259,-2.394c1.931,-1.807 3.738,-5.228 1.634,-7.626c-2.06,-2.343 -5.798,-1.123 -7.775,0.631Z" style="fill:#010101;fill-rule:nonzero;"/><path d="M296.485,200.617c-0.354,0.441 -1.458,1.57 0.136,-0.067c-1.363,1.4 -2.418,2.939 -2.28,4.983c0.688,-1.434 1.376,-2.868 2.064,-4.303c-0.326,0.32 -1.133,0.797 0.227,-0.09c-1.133,0.739 -2.068,1.511 -2.671,2.756c-0.164,0.33 -0.04,0.129 0.369,-0.604c-0.395,0.513 -0.664,1.084 -0.81,1.713c-0.132,0.618 -0.103,1.298 0.196,1.864c0.7,1.331 1.666,1.728 3.129,1.747c0.768,0.009 1.547,-0.183 2.277,-0.398c-1.082,-0.053 -2.164,-0.104 -3.246,-0.157c0.05,0.036 0.102,0.067 0.156,0.097c1.459,0.809 3.56,0.486 4.912,-0.398c0.818,-0.535 1.607,-1.115 2.37,-1.727c1.938,-1.551 3.417,-5.007 1.533,-7.154c-2.39,-2.725 -6.584,-0.483 -8.362,1.738Z" style="fill:#010101;fill-rule:nonzero;"/><path d="M213.409,190.208c-0.628,0.045 -1.25,0.086 -1.875,0.159c-0.277,0.032 -0.555,0.041 -0.833,0.048c1.064,-0.025 0.097,-0.009 -0.142,-0.038c-1.717,-0.219 -3.187,0.234 -4.508,1.35c-1.217,1.028 -1.619,2.257 -1.713,3.772c-0.06,0.964 0.629,1.775 1.373,2.26c1.391,0.904 2.967,1.36 4.607,1.484c2.676,0.202 5.19,-1.233 6.352,-3.702c1.235,-2.626 -0.138,-5.557 -3.261,-5.333Z" style="fill:#010101;fill-rule:nonzero;"/><path d="M193.196,317.335c-0.055,0.012 -0.11,0.023 -0.165,0.034c0.41,-0.083 0.82,-0.165 1.229,-0.247c-0.289,0.057 -0.578,0.107 -0.872,0.141c-1.879,0.219 -3.437,1.106 -4.601,2.609c0.3,-0.32 0.599,-0.642 0.898,-0.962c-0.077,0.056 -0.154,0.11 -0.231,0.166c0.985,-0.441 1.97,-0.883 2.955,-1.324c-1.583,0.081 -3.07,0.69 -4.057,1.991c-0.564,0.744 -0.958,1.775 -0.908,2.709c0.041,0.762 0.412,1.372 0.867,1.957c-0.211,-0.543 -0.423,-1.086 -0.634,-1.629c0.002,0.1 0.005,0.199 0.008,0.299c0.03,-0.355 0.06,-0.711 0.09,-1.065c-0.002,0.015 -0.005,0.028 -0.007,0.043c-0.217,1.27 0.032,3.108 1.455,3.655c0.671,0.259 1.341,0.485 2.039,0.65c1.208,0.285 2.612,-0.15 3.652,-0.744c1.576,-0.898 2.891,-2.452 3.276,-4.252c0.237,-1.104 0.082,-2.312 -0.686,-3.187c-0.514,-0.562 -1.146,-0.908 -1.896,-1.04c-0.819,-0.132 -1.623,-0.066 -2.412,0.196Z" style="fill:#010101;fill-rule:nonzero;"/></g></svg>