<?xml version="1.0" encoding="UTF-8" standalone="no"?><!DOCTYPE svg PUBLIC "-//W3C//DTD SVG 1.1//EN" "http://www.w3.org/Graphics/SVG/1.1/DTD/svg11.dtd"><svg width="100%" height="100%" viewBox="0 0 334 554" version="1.1" xmlns="http://www.w3.org/2000/svg" xmlns:xlink="http://www.w3.org/1999/xlink" xml:space="preserve" style="fill-rule:evenodd;clip-rule:evenodd;stroke-linejoin:round;stroke-miterlimit:1.41421;"><g id="teacher"><path d="M135.792,80.622c-22.026,0.287 -38.691,22.331 -48.979,39.424c-14.03,23.309 -17.924,50.23 -19.928,76.931c-1.683,22.421 -2.73,45.603 7.211,66.433c10.128,21.221 31.192,36.232 52.71,44.316c25.672,9.646 54.632,8.875 78.881,-4.321c20.635,-11.229 36.899,-28.33 45.383,-50.375c4.351,-11.304 5.862,-23.352 6.754,-35.351c1.035,-13.951 1.15,-27.979 -0.102,-41.919c-1.227,-13.662 -4.155,-27.302 -9.41,-39.993c-4.921,-11.888 -12.21,-23.126 -19.774,-33.477c-11.887,-16.266 -28.273,-31.012 -48.412,-35.494c-8.642,-1.924 -17.604,-0.357 -26.185,1.157c-7.549,1.333 -16.35,3.97 -20.734,10.772c-1.91,2.963 -0.568,6.153 2.934,6.76c3.729,0.646 8.239,-1.272 10.297,-4.469c-0.07,0.109 -0.362,0.092 -0.453,0.141c0.653,-0.354 1.446,-0.705 2.152,-0.93c2.322,-0.736 4.745,-1.173 7.14,-1.598c5.288,-0.937 10.458,-1.672 15.818,-0.93c13.417,1.855 25.218,11.568 34.373,20.935c18.531,18.958 32.167,44.333 36.67,70.45c2.388,13.848 2.698,27.992 2.206,42.005c-0.445,12.645 -1.377,25.233 -5.079,37.389c-6.69,21.964 -22.862,39.356 -43.542,49.021c-24.792,11.583 -54.045,5.734 -76.909,-7.457c-19.298,-11.135 -33.669,-28.677 -38.103,-50.72c-2.271,-11.29 -2.225,-22.943 -1.609,-34.392c0.723,-13.456 1.637,-26.907 3.648,-40.242c3.725,-24.675 14.061,-48.278 31.294,-66.558c5.318,-5.641 12.076,-11.745 20.116,-12.552c3,-0.3 6.277,-5.017 1.632,-4.956Z" style="fill-rule:nonzero;"/><path d="M138.347,74.572c-2.156,-2.343 -3.83,-6.083 -5.523,-8.854c-2.057,-3.367 -3.462,-7.001 -4.549,-10.782c-2.123,-7.384 -2.975,-15.575 -1.3,-23.137c2.952,-13.33 14.706,-21.533 28.155,-19.83c14.234,1.801 22.364,13.271 26.946,25.891c2.323,6.401 3.115,13.232 2.29,19.99c-0.79,6.464 -5.067,9.838 -8.261,15.019c-2.769,4.492 2.096,7.545 6.302,6.222c20.023,-6.297 21.721,-30.115 16.224,-47.131c-5.904,-18.277 -20.786,-31.096 -40.263,-31.762c-19.369,-0.664 -38.446,10.852 -44.374,29.718c-2.985,9.501 -1.694,19.897 1.256,29.219c1.429,4.515 4.014,8.664 6.845,12.418c3.258,4.318 7.653,5.545 12.654,6.539c1.559,0.309 5.339,-1.628 3.598,-3.52Z" style="fill-rule:nonzero;"/><path d="M76.859,181.27c9.964,-1.985 18.33,-7.04 26.877,-12.447c8.594,-5.436 16.66,-11.642 24.46,-18.153c16.04,-13.389 29.495,-29.268 43.739,-44.456c2.215,-2.361 3.484,-6.335 -0.237,-8.055c-4.371,-2.02 -9.779,0.677 -12.445,4.193c-11.654,15.376 -24.848,29.773 -38.754,43.135c-6.896,6.625 -14.242,12.745 -22.031,18.29c-7.603,5.412 -15.693,9.733 -22.907,15.619c-1.308,1.066 0.112,2.11 1.298,1.874Z" style="fill-rule:nonzero;"/><path d="M166.208,102.821c-0.476,4.437 1.772,9.021 3.385,13.081c1.985,4.999 4.684,9.747 7.283,14.448c5.057,9.145 11.395,17.715 17.97,25.82c6.593,8.126 14.533,13.941 23.427,19.289c4.233,2.546 8.741,4.64 13.182,6.791c4.029,1.952 8.114,4.854 12.357,6.182c3.364,1.054 11.749,-2.145 8.194,-6.619c-2.241,-2.823 -6.433,-4.432 -9.572,-6.092c-4.314,-2.281 -8.687,-4.442 -12.938,-6.843c-8.42,-4.757 -15.012,-12.333 -21.297,-19.544c-6.688,-7.675 -12.526,-16.186 -17.916,-24.803c-2.879,-4.602 -5.332,-9.467 -8.309,-14.003c-2.667,-4.063 -5.143,-8.629 -9.41,-11.14c-2.321,-1.364 -6.091,0.958 -6.356,3.433Z" style="fill-rule:nonzero;"/><path d="M125.447,251.149c3.33,-2.443 6.185,-5.521 9.933,-6.924c-2.065,-1.409 -4.132,-2.818 -6.198,-4.228c-0.461,0.714 -0.899,1.348 -1.217,2.155c-1.234,3.135 2.889,3.964 5.011,3.478c2.345,-0.537 4.44,-1.892 5.644,-3.998c0.934,-1.633 0.961,-3.588 -0.98,-4.484c-2.602,-1.202 -5.648,0.149 -7.638,1.86c-1.879,1.617 -3.578,3.199 -5.175,5.102c-1.547,1.844 -3.121,3.921 -2.987,6.414c0.093,1.759 2.674,1.309 3.607,0.625Z" style="fill-rule:nonzero;"/><path d="M126.998,243.595c-4.15,5.844 -0.884,12.358 5.05,15.141c5.285,2.479 12.066,2.703 17.803,3.173c-1.018,-1.004 -2.035,-2.008 -3.054,-3.013c-0.018,0.211 -0.036,0.421 -0.055,0.632c-0.222,2.539 3.527,3.077 5.235,2.518c0.271,-0.089 0.542,-0.178 0.813,-0.266c3.663,-1.199 9.419,-6.913 2.839,-8.684c-4.715,-1.269 -9.971,-0.513 -14.802,-1.332c-2.053,-0.349 -3.725,-1.127 -5.209,-2.582c-1.798,-1.763 -1.977,-4.793 -3.482,-6.832c-1.214,-1.642 -4.315,0.085 -5.138,1.245Z" style="fill-rule:nonzero;"/><path d="M118.716,187.58c-2.862,4.382 -3.557,11.987 -1.258,16.71c2.036,4.186 9.164,0.83 10.315,-2.453c1.811,-5.164 2.454,-11.544 0.254,-16.667c-0.873,-2.035 -3.66,-2.136 -5.479,-1.708c-2.699,0.635 -5.244,2.516 -5.6,5.389c-0.558,4.508 -2.036,11.557 0.667,15.604c2.645,3.959 11.584,1.19 11.258,-3.74c-0.147,-2.224 -0.868,-4.332 -1.003,-6.585c-0.158,-2.643 0.123,-5.3 0.375,-7.927c-3.693,1.227 -7.387,2.454 -11.079,3.681c2.033,4.373 0.7,8.899 0.086,13.431c3.304,-1.434 6.607,-2.867 9.911,-4.302c-2.955,-3.667 -0.63,-8.458 -2.56,-12.285c-1.145,-2.274 -4.858,-0.724 -5.887,0.852Z" style="fill-rule:nonzero;"/><path d="M73.24,177.576c-1.186,0.989 -1.09,1.443 0.287,1.361c-0.623,-0.612 -1.062,-1.424 -1.573,-2.124c-1.258,-1.721 -2.562,-3.023 -4.506,-3.943c-4.364,-2.065 -10.35,0.846 -13.524,3.826c-7.837,7.355 -11.541,17.746 -13.226,28.105c-1.607,9.879 -0.496,22.993 7.56,30.007c5.744,5 21.442,3.386 23.555,-5.21c0.262,-1.068 0.31,-2.473 -0.699,-3.236c-3.111,-2.354 -8.286,-1.538 -10.503,1.842c-0.265,0.459 -0.483,0.939 -0.655,1.439c-1.31,3.459 2.854,-1.974 1.429,-1.32c-1.669,0.766 -2.63,0.021 -3.972,-1.088c-7.883,-6.517 -6.64,-21.445 -4.636,-30.122c1.085,-4.697 2.956,-8.858 5.528,-12.903c0.33,-0.52 2.811,-4.077 2.979,-4.018c1.419,0.511 2.649,2.503 3.625,3.584c2.383,2.64 5.891,1.806 8.81,0.631c3.351,-1.35 3.769,-4.308 2.682,-7.289c-0.484,-1.321 -2.665,-0.276 -3.161,0.458Z" style="fill-rule:nonzero;"/><path d="M248.996,188.712c3.539,9.15 12.768,-0.358 16.439,-4.2c1.672,-1.748 -1.229,-0.062 -1.372,-0.115c0.605,0.225 0.951,0.643 1.404,1.079c1.244,1.196 1.992,2.844 2.724,4.376c1.869,3.913 2.997,8.254 4.043,12.445c1.986,7.961 3.382,16.449 3.55,24.649c0.101,4.897 -0.654,10.447 -4.987,13.4c-5.766,3.93 -10.699,-2.141 -15.453,-4.682c-3.07,-1.641 -12.709,2.214 -9.922,6.577c8.379,13.111 27.647,10.663 36.557,-0.541c7.603,-9.561 5.043,-22.944 3.021,-34.005c-1.723,-9.425 -3.66,-21.028 -10.659,-28.143c-3.37,-3.427 -8.55,-3.537 -12.546,-1.227c-2.227,1.287 -3.875,3.222 -5.478,5.192c-0.735,0.905 -1.473,1.785 -2.288,2.621c-1.49,1.528 1.271,0.438 -0.331,-0.546c-1.659,-1.015 -5.534,0.969 -4.702,3.12Z" style="fill-rule:nonzero;"/><path d="M89.708,176.928c9.501,-0.217 18.828,1.884 28.313,1.859c4.814,-0.013 9.639,-0.76 14.44,-1.074c2.186,-0.143 4.382,-0.17 6.56,0.059c2.448,0.258 4.409,1.327 6.934,1.094c2.813,-0.26 8.384,-2.824 6.82,-6.609c-1.678,-4.063 -8.21,-3.648 -11.874,-3.584c-5.815,0.104 -11.662,1.378 -17.399,2.233c-5.802,0.864 -11.51,0.939 -17.359,0.644c-5.629,-0.285 -11.156,-0.528 -16.504,1.488c-2.169,0.817 -2.929,3.959 0.069,3.89Z" style="fill-rule:nonzero;"/><path d="M174.643,177.783c5.093,1.513 11.813,-0.059 16.949,-0.721c6.146,-0.792 12.767,-1.407 18.706,-3.248c2.565,-0.795 6.09,-2.631 6.049,-5.821c-0.038,-3.039 -3.901,-3.561 -6.152,-2.959c-5.291,1.412 -10.543,2.545 -15.959,3.408c-5.701,0.909 -11.571,1.004 -17.225,2.099c-3.532,0.683 -7.455,5.731 -2.368,7.242Z" style="fill-rule:nonzero;"/><path d="M171.483,174.569c-3.151,4.595 -1.002,9.678 -0.108,14.623c0.87,4.813 1.524,9.641 2.834,14.365c1.168,4.214 3.415,8.697 7.356,10.93c5.035,2.852 10.923,1.701 16.097,-0.133c2.875,-1.019 5.622,-2.297 8.692,-2.533c4.203,-0.324 8.472,0.021 12.677,0.141c6.073,0.173 11.921,-1.237 17.253,-4.138c4.858,-2.644 8.99,-6.558 11.507,-11.513c1.381,-2.718 2.032,-5.456 2.402,-8.467c0.322,-2.618 -0.879,-5.14 -0.705,-7.622c0.222,-3.153 -4.15,-3.488 -6.234,-2.999c-2.544,0.597 -5.074,2.209 -6.014,4.747c0.872,-1.049 1.744,-2.098 2.617,-3.146c-1.541,1.118 -2.773,2.296 -2.802,4.309c-0.033,2.342 2.673,3.406 4.64,3.219c0.024,-0.003 0.049,-0.006 0.072,-0.008c-1.548,-1.074 -3.096,-2.147 -4.645,-3.222c-0.247,3.534 1.199,6.513 0.242,10.198c-0.953,3.669 -3.664,6.571 -7.019,8.196c-4.2,2.034 -9.136,1.356 -13.633,1.219c-5.679,-0.174 -11.091,0.041 -16.479,1.956c-3.465,1.23 -7.71,3.983 -11.051,1.29c-2.713,-2.187 -3.838,-6.146 -4.806,-9.332c-1.087,-3.576 -1.729,-7.276 -2.666,-10.894c-1.001,-3.869 -2.439,-7.525 -3.093,-11.505c-0.587,-3.587 -5.769,-1.673 -7.134,0.319Z" style="fill-rule:nonzero;"/><path d="M147.008,175.612c-5.087,6.494 -4.714,15.599 -5.544,23.473c-0.381,3.616 -0.822,7.742 -2.616,10.977c-0.962,1.735 1.591,0.173 -0.078,0.358c-2.585,0.288 -5.213,0.19 -7.806,0.09c-4.838,-0.188 -9.67,-0.802 -14.479,-1.331c-4.417,-0.486 -9.238,-0.555 -13.02,-3.203c-3.698,-2.59 -5.368,-6.946 -6.771,-11.05c-2.108,-6.162 -4.542,-13.167 -4.899,-19.651c-0.357,-6.458 -12.925,-2.605 -12.678,2.973c0.023,0.512 0.046,1.024 0.068,1.536c0.049,1.107 0.736,2.301 1.849,2.667c4.905,1.615 8.866,-1.319 10.561,-5.953c-4.159,0.583 -8.318,1.167 -12.478,1.75c0.422,7.364 3.152,14.953 5.429,21.95c1.602,4.922 4.063,9.684 8.188,12.941c4.513,3.563 10.192,4.525 15.749,5.078c6.466,0.644 12.912,1.338 19.406,1.636c10.949,0.503 20.862,-2.194 23.459,-14.062c1.128,-5.155 1.203,-10.576 1.203,-15.83c0,-4.185 -0.718,-9.989 0.514,-13.988c1.151,-3.747 -4.848,-1.904 -6.057,-0.361Z" style="fill-rule:nonzero;"/><path d="M196.86,183.108c-7.161,2.123 -7.005,13.554 -2.969,18.256c2.396,2.791 9.198,-0.042 9.82,-3.297c0.914,-4.777 0.882,-9.57 -1.339,-14c-2.492,-4.971 -10.566,-0.372 -11.203,3.723c-0.352,2.253 -1.186,5.705 -0.115,7.769c2.016,3.883 8.369,1.284 10.16,-1.472c1.701,-2.619 2.59,-7.108 1.158,-10.02c-3.662,1.588 -7.322,3.178 -10.984,4.766c1.982,3.531 1.873,6.792 1.718,10.723c3.33,-1.445 6.66,-2.891 9.99,-4.336c-2.316,-1.791 -2.747,-4.205 -3.192,-6.945c-0.309,-1.899 0.334,-6.17 -3.044,-5.167Z" style="fill-rule:nonzero;"/><path d="M149.183,201.096c5.822,-2.389 13.69,-10.826 19.093,-2.835c3.268,4.833 15.038,-0.382 12.021,-5.217c-4.245,-6.803 -12.61,-7.608 -19.799,-5.819c-3.826,0.951 -7.71,2.811 -10.682,5.414c-1.848,1.62 -5.36,5.135 -4.018,7.871c0.612,1.244 2.341,1.016 3.385,0.586Z" style="fill-rule:nonzero;"/><path d="M60.035,201.668c-1.637,0.663 -2.834,1.814 -3.717,3.326c-0.883,1.51 -2.072,4.198 -0.29,5.488c2.171,1.572 5.73,0.512 7.104,-1.722c0.467,-0.759 0.866,-1.483 0.693,-2.396c-0.088,-0.464 -0.142,-0.9 -0.141,-1.374c0.038,-0.361 0.037,-0.431 -0.001,-0.21c0.049,-0.197 0.098,-0.396 0.144,-0.593c0.169,-0.714 0.063,-1.184 -0.091,-1.879c-0.329,-1.468 -2.822,-0.995 -3.701,-0.64Z" style="fill-rule:nonzero;"/><path d="M262.822,208.797c-0.042,0.216 -0.057,0.434 -0.044,0.652c0.111,-0.34 0.223,-0.679 0.334,-1.019c-0.53,0.837 -0.638,1.876 -0.692,2.854c-0.01,0.169 -0.228,0.734 -0.343,1.016c-0.271,0.659 -0.472,1.191 -0.485,1.936c-0.017,0.887 0.603,1.648 1.382,1.994c3.407,1.514 8.574,-1.747 7.62,-5.638c-0.523,-2.134 -2.299,-3.76 -4.52,-3.757c0.39,0.067 0.78,0.135 1.17,0.203c-0.388,-0.15 -0.806,-0.23 -1.188,-0.387c-1.284,-0.527 -3.664,0.523 -3.234,2.146Z" style="fill-rule:nonzero;"/><path d="M21.604,255.655c1.658,3.788 2.719,7.656 4.585,11.4c1.815,3.645 4.13,7.07 6.326,10.493c4.233,6.595 8.865,12.932 13.505,19.244c9.984,13.584 19.867,27.205 29.708,40.892c9.502,13.216 19.555,26.025 29.024,39.266c4.893,6.839 9.584,13.82 13.866,21.059c4.092,6.917 8.803,14.595 10.787,22.439c2.904,-2.325 5.809,-4.649 8.713,-6.974c-0.252,-0.041 -0.504,-0.081 -0.756,-0.122c-3.369,-0.543 -7.863,1.419 -8.994,4.842c-1.309,3.962 3.352,4.572 6.041,4.191c0.278,-0.039 0.557,-0.079 0.835,-0.118c2.212,-0.313 7.698,-3.884 5.735,-6.843c-4.279,-6.447 -7.572,-13.62 -11.715,-20.19c-4.182,-6.632 -8.68,-13.077 -13.262,-19.437c-9.898,-13.738 -20.608,-26.87 -30.848,-40.352c-9.825,-12.936 -19.355,-26.014 -29.543,-38.68c-5.179,-6.438 -10.297,-12.91 -15.304,-19.483c-2.743,-3.601 -5.384,-7.274 -7.939,-11.011c-2.718,-3.975 -6.255,-7.438 -8.859,-11.445c-0.491,-0.755 -2.287,-0.044 -1.905,0.829Z" style="fill-rule:nonzero;"/><path d="M24.642,256.184c-1.357,-0.641 -1.26,-0.476 0.292,0.494c0.708,0.418 1.328,0.938 1.861,1.561c1.161,1.166 2.336,2.319 3.476,3.507c2.631,2.737 4.989,5.775 7.271,8.804c4.792,6.362 8.983,13.148 13.601,19.635c5.43,7.628 11.775,14.636 17.619,21.951c6.393,8 12.627,16.124 18.84,24.264c6.218,8.145 12.395,16.322 18.607,24.471c5.652,7.414 11.037,15.563 17.461,22.322c7.221,7.598 16.771,13.379 20.923,23.25c1.101,2.617 5.345,1.057 6.737,-0.331c4.693,-4.674 0.441,-8.759 -3.004,-12.601c-4.732,-5.278 -10.435,-9.629 -15.633,-14.424c-7.208,-6.648 -12.936,-15.527 -19.02,-23.198c-7.572,-9.545 -15.094,-19.13 -22.682,-28.662c-13.639,-17.132 -28.272,-33.451 -40.829,-51.394c-4.999,-7.143 -10.218,-15.113 -17.508,-20.131c-2.783,-1.915 -10.884,-5.912 -10.694,0.602c0.042,1.407 2.241,0.534 2.682,-0.12Z" style="fill-rule:nonzero;"/><path d="M117.384,447.627c10.725,-5.93 16.623,-20.225 23.34,-29.885c3.172,-4.561 7.01,-10.27 12.175,-12.756c3.865,-1.862 7.952,3.944 10.031,6.387c8.015,9.416 13.805,21.295 18.876,32.506c0.922,2.038 3.132,5.511 2.716,7.889c-0.348,1.989 -3.96,3.686 -5.399,4.689c-5.775,4.026 -12.673,8.831 -18.133,11.709c-2.205,1.162 -5.671,3.624 -4.359,6.646c1.223,2.817 5.602,2.471 7.832,1.357c7.998,-3.992 15.117,-9.181 22.385,-14.31c5.996,-4.231 11.336,-8.749 9.479,-16.639c-1.51,-6.416 -5.679,-12.987 -8.788,-18.742c-4.147,-7.675 -8.818,-15.208 -14.488,-21.86c-24.724,-29.003 -48.658,24.785 -59.372,41.281c-1.709,2.629 2.344,2.481 3.705,1.728Z" style="fill-rule:nonzero;"/><path d="M113.482,438.109c-5.594,0.841 -10.68,4.487 -15.542,7.183c-5.842,3.237 -11.768,6.308 -17.751,9.273c-7.877,3.904 -15.436,6.832 -23.818,9.373c-8.768,2.656 -17.434,5.49 -25.446,9.994c-4.825,2.713 -15.441,11.503 -11.678,18.169c3.395,6.011 12.989,1.242 15.019,-3.571c1.242,-2.944 0.052,-3.322 1.688,-5.038c1.826,-1.914 4.654,-3.346 7.359,-4.64c7.109,-3.402 14.729,-5.686 22.146,-8.303c8.494,-2.996 16.244,-7.484 24.099,-11.852c5.196,-2.89 10.332,-5.889 15.324,-9.119c3.882,-2.512 8.952,-5.513 10.665,-10.037c0.507,-1.342 -1.193,-1.563 -2.065,-1.432Z" style="fill-rule:nonzero;"/><path d="M3.394,517.521c1.027,5.71 1.101,11.079 3.363,16.545c1.891,4.569 4.653,8.861 8.437,12.079c9.462,8.05 24.054,7.654 35.672,7.382c16.128,-0.378 31.02,-5.173 44.318,-14.256c14.842,-10.138 29.405,-20.9 45.657,-28.72c-2.199,-2.132 -4.397,-4.265 -6.597,-6.397c-1.392,1.536 -2.478,3.104 -3.605,4.823c-1.556,2.371 0.386,4.643 3.016,4.377c4.064,-0.41 7.123,-2.08 10.154,-4.769c5.427,-4.813 -1.911,-8.68 -6.597,-6.397c-14.107,6.869 -27.098,15.598 -39.934,24.566c-6.069,4.241 -11.951,8.938 -18.665,12.126c-6.22,2.954 -13.047,4.39 -19.852,5.165c-11.309,1.289 -24.852,2.02 -35.261,-3.396c-8.449,-4.396 -14.758,-15.158 -17.549,-23.978c-0.334,-1.061 -2.737,-0.153 -2.557,0.85Z" style="fill-rule:nonzero;"/><path d="M111.8,334.901c-1.306,23.4 32.739,30.275 49.907,31.153c13.749,0.703 27.338,-4.431 38.524,-12.153c4.396,-3.034 7.94,-6.653 11.292,-10.754c1.93,-2.361 7.321,-7.331 5.558,-10.794c-1.598,-3.136 -6.24,-1.276 -8.155,0.401c-2.121,1.858 -3.566,4.752 -5.31,6.966c-2.681,3.402 -5.39,6.304 -8.898,8.899c-9.474,7.013 -21.058,10.399 -32.791,9.665c-18.254,-1.143 -38.164,-7.094 -46.794,-24.491c-0.696,-1.404 -3.26,-0.186 -3.333,1.108Z" style="fill-rule:nonzero;"/><path d="M216.919,321.776c0.476,1.664 2.744,3.061 3.953,4.218c2.44,2.334 4.813,4.718 7.366,6.937c5.891,5.119 12.378,9.469 19.027,13.533c7.195,4.399 14.621,8.41 21.859,12.737c3.792,2.267 7.509,4.631 11.09,7.219c1.687,1.218 3.331,2.416 4.674,4.008c1.161,1.378 3.105,1.121 4.637,1.552c-1.174,-0.801 -2.349,-1.602 -3.522,-2.401c-0.148,-0.73 -0.161,-0.726 -0.035,0.014c1.044,6.834 10.539,2.788 13.153,-0.584c2.103,-2.713 2.111,-6.421 -1.476,-7.784c-1.053,-0.449 -2.153,-0.641 -3.299,-0.571c0.92,-0.5 0.67,-0.96 -0.752,-1.378c-2.08,-1.546 -4.257,-2.964 -6.423,-4.384c-8.432,-5.525 -17.513,-10.018 -26.343,-14.854c-8.066,-4.419 -15.963,-9.186 -23.248,-14.814c-4.895,-3.782 -11.836,-9.287 -18.371,-6.938c-1.392,0.498 -2.729,1.947 -2.29,3.49Z" style="fill-rule:nonzero;"/><path d="M75.107,339.563c-12.379,13.961 -29.969,21.354 -42.482,35.136c2.552,-0.126 5.103,-0.251 7.654,-0.377c-1.841,-4.856 -4.428,-10.518 -9.814,-12.153c-4.637,-1.408 -9.219,0.906 -12.605,3.963c-9.861,8.899 -9.765,26.797 -11.071,38.798c-2.036,18.692 -4.09,37.226 -4.597,56.038c-0.266,9.842 -0.393,19.686 -0.764,29.524c-0.174,4.607 -0.399,9.215 -0.685,13.816c-0.271,4.38 -0.826,9.636 0.494,13.841c0.516,1.643 3.546,0.433 4.069,-0.59c3.192,-6.245 3.527,-14.215 4.072,-21.117c0.623,-7.896 0.846,-15.827 1.105,-23.742c0.514,-15.675 0.955,-31.354 2.732,-46.949c1.723,-15.111 2.603,-30.65 5.898,-45.52c0.848,-3.822 2.503,-8.915 5.756,-11.41c1.963,-1.505 6.021,7.629 6.664,9.296c1.335,3.462 7,0.757 8.344,-1.21c10.125,-14.812 32.086,-19.343 39.166,-36.662c0.925,-2.26 -3.084,-1.643 -3.936,-0.682Z" style="fill-rule:nonzero;"/><path d="M91.583,333.272c5.29,-0.004 10.05,-5.292 13.632,-8.602c1.527,-1.41 3.737,-3.675 4.696,-4.282c2.259,-1.432 5.453,-4.233 5.451,-7.063c-0.002,-3.485 -4.219,-3.532 -6.624,-3.187c-5.442,0.783 -8.463,6.591 -11.597,9.987c-2.685,2.909 -7.326,6.212 -8.728,10.002c-0.792,2.147 1.442,3.147 3.17,3.145Z" style="fill-rule:nonzero;"/><path d="M168.792,364.116c2.545,-3.282 0.633,-0.817 0,0c-0.837,1.078 -0.978,1.775 -1.19,3.104c-0.55,3.438 0.55,7.267 1.365,10.576c0.981,3.989 2.638,7.898 4.39,11.601c1.164,2.461 3.315,7.674 6.474,7.963c18.686,1.706 34.553,-9.722 44.813,-24.458c6.514,-9.356 9.464,-20.375 11.596,-31.437c0.899,-4.664 2.098,-10.068 1.274,-14.826c-1.061,-6.125 -7.322,-5.914 -11.83,-3.312c-4.182,2.415 -3.042,6.856 1.541,7.129c-2.251,-0.134 -2.658,-1.097 -2.384,-0.571c0.386,0.738 0.36,1.139 0.439,2.02c0.244,2.684 -0.137,5.455 -0.57,8.101c-1.058,6.47 -2.729,12.882 -4.763,19.11c-4.717,14.444 -18.252,29.98 -35.702,29.252c1.213,0.372 2.425,0.743 3.637,1.114c-3.881,-4.196 -6.485,-9.4 -8.781,-14.59c-1.521,-3.439 -2.845,-10.176 -6.179,-12.167c-1.362,-0.813 -3.31,0.334 -4.13,1.391Z" style="fill-rule:nonzero;"/><path d="M156.791,364.089c-3.276,4.678 -4.467,10.306 -5.983,15.734c-1.263,4.52 -2.633,11.404 -4.581,14.805c2.789,-1.21 5.577,-2.42 8.365,-3.63c-0.121,-0.022 -0.242,-0.045 -0.363,-0.068c-3.324,-0.623 -10.459,2.536 -8.653,6.926c0.037,0.09 0.074,0.18 0.111,0.27c1.384,3.365 6.942,2.124 9.111,0.496c4.741,-3.56 3.558,-8.967 4.854,-14.206c1.568,-6.344 3.26,-14.054 2.71,-20.573c-0.244,-2.906 -4.585,-1.162 -5.571,0.246Z" style="fill-rule:nonzero;"/><path d="M98.888,323.906c-0.812,0.912 -1.767,1.483 -2.543,2.528c-0.93,1.252 -1.252,2.927 -1.56,4.411c-0.76,3.672 -0.501,7.708 -0.035,11.403c0.59,4.685 9.744,1.785 9.131,-2.141c-0.489,-3.129 -1.157,-6.183 -1.401,-9.349c-0.097,-1.264 -0.166,-2.49 -0.143,-3.759c0.013,-0.645 -0.58,-2.16 -0.494,-2.582c0.35,-1.738 -2.207,-1.351 -2.955,-0.511Z" style="fill-rule:nonzero;"/><path d="M114.042,440.512c-4.162,12.962 1.766,29.336 10.865,39.082c3.851,4.123 8.265,7.677 11.964,11.947c3.854,4.45 3.369,7.654 0.494,12.288c-0.968,1.561 -0.889,3.51 0.954,4.36c2.566,1.187 5.447,-0.18 7.427,-1.809c4.283,-3.525 6.2,-8.727 4.752,-14.071c-1.384,-5.109 -7.539,-9.402 -11.363,-12.555c-4.835,-3.983 -10.102,-8.021 -13.397,-13.448c-4.879,-8.032 -7.378,-17.296 -9.451,-26.329c-0.232,-1.002 -2.049,-0.076 -2.245,0.535Z" style="fill-rule:nonzero;"/><path d="M138.931,485.041c3.533,-4.742 5.242,-5.957 11.082,-6.713c5.202,-0.674 10.631,-1.041 14.982,-4.296c3.583,-2.681 1.932,-6.172 -2.38,-5.485c-7.961,1.269 -32.917,3.386 -28.034,17.125c0.664,1.864 3.643,0.319 4.35,-0.631Z" style="fill-rule:nonzero;"/><path d="M57.83,441.431c-2.367,5.495 -1.748,12.016 -2.412,17.869c-0.306,2.698 -2.157,7.509 -0.012,9.637c2.375,2.356 6.96,0.635 8.956,-1.339c2.728,-2.697 2.095,-6.724 2.05,-10.263c-0.067,-5.325 0.169,-12.613 -2.39,-17.377c-1.359,-2.531 -5.36,-0.459 -6.192,1.473Z" style="fill-rule:nonzero;"/><path d="M114.867,297.878c-0.71,3.278 -0.196,6.842 -0.238,10.181c-0.055,4.333 -0.341,8.667 -0.683,12.984c-0.328,4.145 -0.896,8.271 -1.765,12.336c-0.606,2.841 -2.113,5.619 -2.272,8.502c-0.242,4.387 6.601,1.724 8.135,0.473c5.193,-4.238 4.36,-14.798 4.368,-20.748c0.006,-4.644 -0.208,-9.334 -0.858,-13.935c-0.505,-3.569 -0.72,-8.075 -2.978,-11.038c-0.864,-1.133 -3.457,0.084 -3.709,1.245Z" style="fill-rule:nonzero;"/><path d="M205.007,297.077c-3.023,9.952 -2.61,21.083 -1.262,31.307c0.417,3.162 0.434,7.767 2.38,10.421c0.81,1.104 2.406,1.449 3.699,1.372c1.357,-0.08 2.673,-0.521 3.805,-1.276c0.333,-0.27 0.667,-0.539 1.001,-0.809c2.085,-1.904 0.88,-3.644 -3.617,-5.219c1.456,1.438 2.912,2.874 4.368,4.312c1.223,-1.783 0.749,-3.652 0.203,-5.58c-0.921,-3.254 -1.653,-6.572 -2.287,-9.893c-1.614,-8.465 -0.09,-17.808 -2.767,-25.948c-0.78,-2.377 -5.03,-0.312 -5.523,1.313Z" style="fill-rule:nonzero;"/><path d="M117.433,314.872c0.154,-0.246 0.115,-0.229 -0.114,0.053c-0.689,0.372 -1.378,0.744 -2.067,1.116c0.943,-0.146 1.697,-0.73 2.402,-1.319c-0.983,0.821 -1.531,0.932 -0.874,0.617c-0.245,0.082 -0.491,0.164 -0.737,0.245c0.404,-0.069 0.795,-0.193 1.172,-0.37c-0.471,0.214 -0.964,0.334 -1.48,0.358c0.638,-0.065 -0.983,-0.132 -0.34,-0.003c-0.328,-0.065 2.381,0.153 0.59,0.025c0.798,0.057 1.394,0.035 2.185,-0.126c1.024,-0.208 2.048,-0.777 2.791,-1.507c0.719,-0.706 1.433,-1.907 0.938,-2.941c-0.632,-1.32 -2.279,-1.76 -3.637,-1.647c-1.486,0.122 -2.735,0.616 -4.028,1.339c-0.649,0.363 -1.147,0.938 -1.575,1.53c-0.224,0.312 -0.7,1.271 -0.607,1.726c0.029,0.145 0.037,0.286 0.057,0.432c0.005,0.25 0.063,0.48 0.175,0.693c0.111,0.159 0.223,0.317 0.333,0.477c-0.056,-0.196 -0.036,-0.199 0.059,-0.008c1.013,1.646 3.946,0.784 4.757,-0.69Z" style="fill-rule:nonzero;"/><path d="M207.898,315.873c0.465,2.165 2.734,4.156 4.001,5.912c0.384,0.531 0.784,1.048 1.197,1.557c0.171,0.17 0.339,0.343 0.505,0.519c0.715,0.747 -0.256,-0.483 0.234,0.27c1.477,2.265 4.797,2.012 6.836,0.652c1.519,-1.012 2.934,-2.955 2.045,-4.81c-0.598,-1.246 -1.332,-2.377 -2.234,-3.427c-1.556,-1.811 -3.766,-4.195 -6.063,-4.995c-2.71,-0.943 -7.246,0.948 -6.521,4.322Z" style="fill-rule:nonzero;"/><path d="M258.796,447.786c-0.721,2.287 -0.991,4.506 -0.386,6.889c0.604,2.375 2.817,4.831 2.956,7.221c0.422,7.254 0.332,14.538 0.875,21.785c0.563,7.506 1.146,15.005 2.129,22.469c0.443,3.369 1.011,6.72 1.649,10.058c0.558,2.915 2.434,6.815 2.259,9.697c-0.277,4.559 8.293,1.539 8.84,-2.073c1.2,-7.909 -10.035,-5.246 -8.84,2.073c0.734,4.502 9.083,1.798 8.84,-2.073c-0.145,-2.325 -1.363,-4.914 -1.927,-7.189c-0.881,-3.556 -1.507,-7.17 -2.097,-10.781c-1.206,-7.396 -1.994,-14.867 -2.785,-22.317c-0.704,-6.646 -1.823,-13.209 -3.143,-19.759c-0.487,-2.419 -0.613,-4.646 -2.4,-6.406c-2.662,-2.623 -2.781,-6.767 -4.173,-10.02c-0.316,-0.744 -1.619,-0.137 -1.797,0.426Z" style="fill-rule:nonzero;"/><path d="M300.991,374.648c0.55,-3.141 1.198,-6.304 2.79,-9.106c1.739,-3.063 4.225,0.57 5.042,2.219c2.507,5.054 3.077,11.172 3.716,16.691c1.259,10.873 0.89,21.876 2.199,32.729c2.135,17.7 4.396,35.385 6.257,53.115c0.889,8.466 1.657,16.944 2.251,25.436c0.271,3.867 0.477,7.738 0.635,11.611c0.146,3.553 -0.48,7.754 1.056,11.037c1.469,3.14 6.672,0.526 7.553,-1.796c1.354,-3.571 0.702,-7.639 0.527,-11.384c-0.228,-4.88 -0.596,-9.753 -1,-14.621c-0.85,-10.217 -2,-20.41 -3.218,-30.589c-2.116,-17.693 -5.418,-35.418 -6.476,-53.21c-0.792,-13.313 -0.948,-28.061 -5.901,-40.622c-2.06,-5.222 -6.358,-7.991 -12.064,-6.579c-6.782,1.68 -8.88,9.669 -8.024,15.723c0.316,2.25 4.347,1.117 4.657,-0.654Z" style="fill-rule:nonzero;"/><path d="M128.046,29.196c0.018,-0.746 0.036,-1.493 0.054,-2.24c0.058,-2.4 -4.752,-1.002 -4.803,1.127c-0.325,13.553 0.309,26.952 4.119,40.088c0.87,3 6.624,0.236 6.695,-2.225c0.391,-13.35 0.13,-26.813 -1.82,-40.042c-0.503,-3.412 -6.592,-1.701 -7.072,0.992c-2.817,15.79 1.711,31.011 5.061,46.334c0.671,3.068 6.976,0.304 6.975,-2.317c-0.007,-17.985 -0.162,-36.018 -4.149,-53.645c-0.709,-3.137 -6.836,-0.212 -6.949,2.31c-0.819,18.378 3.994,36.179 9.121,53.654c0.903,3.081 6.981,0.296 6.98,-2.32c-0.001,-17.729 -0.178,-35.454 -3,-53c-0.589,-3.664 -7.118,-1.422 -7.117,1.67c0.002,18.122 0.256,36.31 6.131,53.652c1.038,3.064 6.989,0.312 6.992,-2.323c0.023,-18.715 0.026,-37.485 -2.938,-56.015c-0.608,-3.802 -7.063,-1.378 -7.252,1.701c-0.871,14.197 2.985,28.232 7.061,41.696c1.003,3.313 7.11,0.198 7.273,-2.416c0.858,-13.81 -2.867,-27.314 -3.985,-41.004c-2.434,0.809 -4.868,1.617 -7.303,2.427c2.031,7.789 4.853,15.29 5.854,23.32c0.48,3.855 7.445,1.475 7.453,-1.748c0.021,-8.005 0.041,-16.01 0.062,-24.015c-2.477,0.823 -4.954,1.646 -7.431,2.469c2.555,8.27 2.816,16.791 3.788,25.324c0.454,3.989 7.701,1.523 7.709,-1.809c0.022,-8.672 0.044,-17.344 0.066,-26.016c-2.614,0.613 -5.228,1.227 -7.842,1.84c0.108,5.09 0.983,10.024 1.962,15.009c0.83,4.234 7.485,1.404 7.918,-1.857c1.058,-7.958 1.039,-16.001 1.062,-24.015c0.011,-4.056 -7.989,-1.658 -8.041,1.887c-0.099,6.685 -0.938,13.326 -1.044,20.01c2.657,-0.883 5.314,-1.766 7.973,-2.649c-1.428,-4.422 -2.363,-11.455 -7.92,-12.336c0.657,0.954 1.314,1.908 1.973,2.862c0.336,-1.961 0.925,-3.8 1.139,-5.791c-2.733,0.641 -5.466,1.281 -8.199,1.922c1.946,12.759 4.109,25.473 8.089,37.779c1.06,3.277 7.59,0.67 8.051,-1.914c1.066,-5.976 1.054,-11.809 0.164,-17.813c-0.608,-4.107 -7.483,-1.854 -8.276,1.162c-2.127,8.102 -2.133,16.49 -2.135,24.811c2.805,-0.657 5.609,-1.315 8.414,-1.973c-0.23,-5.052 -1.898,-9.909 -3.165,-14.768c-1.017,-3.902 -7.905,-0.048 -8.246,2.74c-1.046,8.557 -1.995,17.53 1.167,25.766c1.337,3.482 7.259,0.455 8.104,-1.927c3.057,-8.623 4.174,-18.549 -1.035,-26.575c-1.672,-2.576 -6.396,-1.352 -7.694,1.115c-5.443,10.351 -8.571,27.487 0.087,37.021c1.787,1.967 6.179,0.245 7.232,-1.754c6.264,-11.875 9.199,-31.465 0.912,-43.014c-1.642,-2.288 -6.129,0.086 -7.217,1.749c-6.218,9.497 -5.972,26.034 1.086,35.009c1.478,1.879 5.321,0.354 6.572,-0.982c12.176,-13.006 9.549,-36.224 5.989,-52.13c-0.76,-3.394 -7.534,-0.517 -8.026,1.909c-3.188,15.698 -3.262,37.75 8.483,50.191c1.997,2.116 6.92,-0.011 7.562,-2.538c4.359,-17.176 4.16,-39.897 -5.039,-55.554c-1.64,-2.789 -7.427,-1.077 -7.985,1.898c-3.304,17.608 -1.241,40.298 9.455,55.198c1.743,2.428 6.997,-0.272 7.578,-2.544c4.371,-17.074 5.237,-39.483 -3.012,-55.568c-1.534,-2.99 -7.478,-0.937 -8.058,1.916c-3.991,19.605 2.568,39.232 9.022,57.57c1.216,3.453 7.32,0.477 8.069,-1.918c4.036,-12.889 3.26,-26.641 1.137,-39.808c-0.64,-3.964 -7.647,-1.994 -8.239,1.156c-2.252,11.993 -2.253,25.334 3.026,36.573c1.607,3.422 8.2,0.498 8.217,-2.73c0.053,-10.682 0.924,-21.425 -0.997,-32.001c-0.779,-4.291 -8.4,-1.694 -8.385,1.967c0.049,11.432 0.955,22.753 2.919,34.019c0.766,4.389 8.538,1.716 8.547,-2.004c0.017,-7.355 -0.008,-14.706 -0.944,-22.014c-0.509,-3.969 -6.766,-2.059 -8.111,0.36c-3.929,7.064 -32.521,23.262 -12.367,28.933c2.469,0.695 6.563,-1.545 6.569,-4.314c0.006,-2.001 0.011,-4.002 0.016,-6.003c0.006,-2.289 -2.855,-2.477 -4.474,-2.152c-5.707,1.146 -8.892,2.002 -11.867,7.517c-2.416,4.479 3.696,4.359 6.229,2.9c3.846,-2.215 5.988,-5.545 8.945,-8.71c4.25,-4.55 -3.542,-6.286 -6.537,-3.029c-2.319,2.521 -4.051,5.531 -7.055,7.29c2.076,0.967 4.152,1.934 6.229,2.9c0.255,-0.482 0.51,-0.965 0.765,-1.447c1.078,-1.303 0.918,-1.469 -0.479,-0.5c1.298,-0.107 2.57,-0.275 3.848,-0.536c-1.491,-0.718 -2.982,-1.435 -4.474,-2.152c0.005,1.999 0.01,3.998 0.016,5.997c2.189,-1.438 4.379,-2.877 6.569,-4.314c-6.366,-1.762 0.845,-6.631 3.433,-8.891c4.205,-3.672 9.449,-7.181 12.2,-12.177c-2.704,0.12 -5.407,0.24 -8.111,0.36c0.974,7.295 1.035,14.639 1.056,21.986c2.85,-0.668 5.697,-1.336 8.547,-2.004c-2.02,-11.238 -3.029,-22.563 -3.081,-33.981c-2.795,0.655 -5.59,1.312 -8.385,1.967c1.923,10.575 1.055,21.317 1.003,31.999c2.739,-0.91 5.479,-1.82 8.217,-2.73c-4.785,-10.184 -5.022,-22.507 -2.974,-33.427c-2.747,0.386 -5.493,0.771 -8.239,1.156c2.034,12.594 2.998,25.852 -0.863,38.192c2.689,-0.639 5.379,-1.279 8.069,-1.918c-6.044,-17.161 -12.719,-36.03 -8.978,-54.43c-2.686,0.639 -5.371,1.277 -8.058,1.916c7.745,15.092 7.088,36.371 2.988,52.432c2.526,-0.849 5.052,-1.696 7.578,-2.544c-4.95,-6.885 -7.089,-15.746 -8.404,-23.978c-1.397,-8.745 -1.774,-18.086 -0.141,-26.824c-2.661,0.633 -5.323,1.266 -7.985,1.898c8.662,14.714 9.08,36.244 4.961,52.446c2.521,-0.846 5.041,-1.692 7.562,-2.538c-10.481,-11.111 -10.369,-31.783 -7.517,-45.809c-2.675,0.637 -5.351,1.273 -8.026,1.909c1.719,7.695 2.38,15.65 2.253,23.524c-0.119,7.374 -0.961,16.685 -6.264,22.346c2.19,-0.328 4.381,-0.655 6.572,-0.982c-5.533,-7.043 -5.775,-21.57 -0.914,-28.991c-2.405,0.583 -4.811,1.167 -7.217,1.749c3.603,5.025 3.676,12.023 3.427,17.936c-0.269,6.351 -1.518,13.372 -4.515,19.051c2.41,-0.585 4.821,-1.169 7.232,-1.754c-6.903,-7.607 -4.254,-22.732 0.087,-30.979c-2.565,0.371 -5.13,0.743 -7.694,1.115c4.687,7.229 3.727,15.646 0.965,23.425c2.701,-0.642 5.402,-1.284 8.104,-1.927c-2.942,-7.674 -1.811,-16.274 -0.833,-24.234c-2.749,0.914 -5.497,1.827 -8.246,2.74c1.136,4.369 2.63,8.691 2.835,13.232c0.195,4.311 8.412,1.697 8.414,-1.973c0.005,-7.756 -0.092,-15.63 1.865,-23.189c-2.759,0.388 -5.518,0.774 -8.276,1.162c0.817,5.375 1.104,10.806 0.164,16.188c2.684,-0.639 5.367,-1.276 8.051,-1.914c-3.868,-11.805 -5.995,-23.976 -7.911,-36.221c-0.685,-4.372 -7.848,-1.475 -8.199,1.922c-0.15,1.455 -0.622,2.783 -0.861,4.209c-0.249,1.488 0.373,2.613 1.973,2.862c2.127,0.33 3.544,8.024 4.08,9.664c1.152,3.521 7.937,0.33 7.973,-2.649c0.081,-6.676 0.892,-13.313 0.956,-19.99c-2.681,0.629 -5.36,1.258 -8.041,1.887c0.019,8.002 0.077,16.033 -0.938,23.985c2.639,-0.619 5.279,-1.238 7.918,-1.857c-1.003,-4.977 -1.903,-9.904 -2.038,-14.991c-0.105,-3.988 -7.851,-1.604 -7.842,1.84c0.022,8.661 0.044,17.322 0.066,25.984c2.569,-0.604 5.14,-1.205 7.709,-1.809c-1.071,-8.999 -1.472,-17.97 -4.212,-26.676c-1.028,-3.267 -7.438,-0.326 -7.431,2.469c0.021,7.995 0.041,15.99 0.062,23.985c2.484,-0.583 4.969,-1.165 7.453,-1.748c-1.102,-8.481 -4.014,-16.439 -6.146,-24.68c-0.807,-3.116 -7.53,-0.413 -7.303,2.427c1.093,13.682 4.803,27.203 4.015,40.996c2.425,-0.805 4.849,-1.61 7.273,-2.416c-4.026,-13.055 -7.769,-26.513 -6.939,-40.304c-2.417,0.567 -4.835,1.134 -7.252,1.701c2.987,18.515 3.036,37.28 3.062,55.985c2.33,-0.774 4.661,-1.549 6.992,-2.323c-5.771,-16.891 -5.866,-34.696 -5.869,-52.348c-2.372,0.557 -4.745,1.113 -7.117,1.67c2.82,17.546 2.998,35.271 3,53c2.326,-0.773 4.653,-1.547 6.98,-2.32c-5.012,-17.083 -9.666,-34.384 -8.879,-52.346c-2.316,0.77 -4.633,1.54 -6.949,2.31c3.894,17.144 3.854,34.868 3.851,52.355c2.325,-0.772 4.649,-1.545 6.975,-2.317c-3.113,-14.286 -7.596,-28.934 -4.939,-43.666c-2.357,0.331 -4.715,0.661 -7.072,0.992c1.93,13.264 1.78,26.598 2.18,39.958c2.231,-0.742 4.464,-1.483 6.695,-2.225c-4.36,-12.457 -5.563,-25.304 -5.881,-38.367c-0.059,-2.431 -4.854,-0.998 -4.803,1.127c0.018,0.738 0.036,1.477 0.054,2.215c0.05,2.409 4.638,0.945 4.686,-1.096Z" style="fill-rule:nonzero;"/><path d="M77.109,158.354c-0.09,6.108 0.627,12.257 3.61,17.686c1.326,2.413 6.066,0.457 6.078,-2.02c0.042,-9.083 -0.063,-18.096 -1.862,-27.032c-0.662,-3.289 -6.498,-1.325 -6.473,1.518c0.059,6.436 0.876,12.927 3.938,18.673c1.525,2.863 6.438,0.34 6.729,-2.236c1.055,-9.312 -0.163,-18.523 -2.124,-27.63c-0.634,-2.942 -6.785,-0.319 -6.745,2.241c0.167,10.838 2.927,21.121 8.02,30.677c1.573,2.95 6.698,0.37 6.975,-2.317c1.076,-10.453 -0.343,-20.856 -4.095,-30.668c-1.063,-2.78 -6.493,-0.624 -6.947,1.652c-1.9,9.519 -1.201,18.95 1.045,28.344c0.74,3.097 7.023,0.299 7.021,-2.334c-0.004,-3 -0.002,-6 -0.002,-8.999c-2.386,0.56 -4.771,1.118 -7.156,1.678c0.436,2.646 0.895,5.319 1,8c0.143,3.596 6.376,1.422 7.043,-0.988c3.355,-12.116 2.091,-25.313 -1.022,-37.345c-0.841,-3.25 -6.815,-0.129 -7.022,2.334c-0.979,11.629 -0.286,24.535 6.063,34.687c1.523,2.436 6.489,0.978 7.06,-1.679c2.901,-13.525 1.393,-27.211 -0.847,-40.715c-0.575,-3.473 -6.806,-1.791 -7.276,1.021c-2.104,12.576 -1.487,26.701 4.026,38.388c1.29,2.733 6.606,0.751 7.134,-1.696c3.177,-14.753 1.188,-29.939 -0.97,-44.692c-0.544,-3.722 -7.235,-1.439 -7.221,1.693c0.065,13.968 -0.109,28.482 5.071,41.689c1.105,2.817 6.652,0.661 7.104,-1.689c3.033,-15.813 2.175,-31.822 0.055,-47.695c-0.499,-3.737 -7.25,-1.438 -7.238,1.697c0.053,14.937 -0.092,30.479 4.996,44.724c1.154,3.234 7.369,0.332 7.392,-2.456c0.123,-15.667 0.032,-31.337 0.021,-47.005c-0.002,-3.817 -7.571,-1.576 -7.578,1.777c-0.03,13.624 -1.035,27.539 3.04,40.738c1.073,3.474 7.485,0.218 7.647,-2.541c0.965,-16.328 -0.84,-32.716 1.002,-49.001c-2.6,0.61 -5.201,1.22 -7.801,1.83c-0.988,16.626 0.016,33.791 5.072,49.746c1.01,3.187 7.169,0.574 7.684,-1.827c3.89,-18.128 2.222,-36.392 2.09,-54.76c-0.028,-4.061 -7.682,-1.526 -7.891,1.852c-0.932,15.029 0.157,30.175 4.127,44.731c0.973,3.566 7.604,0.188 7.789,-2.589c0.996,-14.984 1.07,-30.008 1.985,-44.996c-2.638,0.618 -5.274,1.237 -7.912,1.855c1.916,11.262 1.078,22.75 2.909,34.021c0.684,4.208 6.857,1.454 7.966,-1.118c5.594,-12.981 4.156,-27.989 5.111,-41.776c-2.687,0.63 -5.374,1.261 -8.061,1.891c-0.069,11.887 -1.999,24.579 3.125,35.749c1.514,3.3 6.903,0.501 7.839,-1.864c5.336,-13.497 4.178,-28.565 4.117,-42.78c-0.018,-4.083 -8.107,-1.686 -8.102,1.9c0.021,11.664 -0.189,23.498 1.949,35.012c0.756,4.068 7.1,1.728 8.074,-1.133c3.938,-11.562 3.309,-23.843 5.117,-35.788c-2.727,0.639 -5.453,1.279 -8.18,1.918c-0.028,10.009 -0.757,20.033 2.161,29.746c1.105,3.68 6.974,0.08 7.886,-1.875c3.288,-7.045 4.122,-15.109 4.199,-22.805c0.021,-2.036 -2.701,-2.473 -4.191,-2.017c-7.057,2.159 -13.697,5.722 -21,6.993c1.4,0.674 2.801,1.348 4.201,2.021c0,-1.334 0.001,-2.668 0.001,-4.001c0.002,-3.796 -5.716,-1.674 -7.175,-0.416c-4.63,3.989 -6.11,9.434 -5.166,15.372c0.257,1.611 1.581,2.24 3.136,2.175c8.026,-0.333 14.398,-4.295 20.056,-9.755c-2.399,-0.139 -4.799,-0.278 -7.199,-0.418c-1.49,13.758 -13.219,25.127 -21.487,35.384c-3.19,3.958 4.554,4.159 6.7,2.04c7.891,-7.787 16.607,-14.719 24.012,-22.994c-2.375,-0.412 -4.75,-0.823 -7.126,-1.234c-3.508,12.49 -14.358,21.154 -20.629,32.182c-2.313,4.069 3.555,4.416 5.921,2.758c10.803,-7.572 17.846,-19.369 24.519,-30.47c2.81,-4.675 -5.507,-4.495 -7.455,-1.291c-6.009,9.88 -12.991,19.12 -19.001,29c2.621,0.155 5.241,0.312 7.861,0.468c4.304,-12.16 13.081,-21.925 20.604,-32.175c-2.491,-0.432 -4.983,-0.863 -7.475,-1.295c-4.995,9.962 -10.282,19.767 -16.492,29.032c-6.177,9.217 -13.796,18.878 -23.948,23.902c1.138,1.617 2.274,3.234 3.412,4.853c7.398,-5.524 12.912,-12.541 17.523,-20.489c2.801,-4.828 -5.493,-4.374 -7.516,-1.301c-4.899,7.447 -12.322,12.428 -19.46,17.526c1.981,0.923 3.964,1.847 5.945,2.77c4.926,-6.89 9.897,-13.745 15.385,-20.203c-2.293,-0.698 -4.586,-1.396 -6.879,-2.095c-6.935,11.6 -15.91,21.685 -26.399,30.186c2.518,0.146 5.035,0.292 7.553,0.438c-0.65,-14.498 8.644,-30.993 19.918,-39.764c4.826,-3.753 -0.638,-7.504 -4.609,-4.414c-13.434,10.448 -24.932,28.667 -24.082,46.236c0.194,3.994 5.896,1.788 7.553,0.438c10.945,-8.916 20.389,-19.667 27.601,-31.814c2.643,-4.45 -4.745,-4.621 -6.879,-2.095c-5.908,6.994 -11.298,14.351 -16.615,21.797c-2.794,3.911 3.767,4.315 5.945,2.77c8.325,-5.904 16.829,-11.828 22.54,-20.474c-2.506,-0.434 -5.01,-0.867 -7.516,-1.301c-3.864,6.632 -8.266,12.87 -14.477,17.511c-3.995,2.985 -0.735,6.907 3.412,4.853c22.209,-11.002 34.942,-35.867 45.56,-57.065c2.556,-5.101 -5.394,-4.133 -7.475,-1.295c-7.911,10.788 -16.874,21.028 -21.396,33.825c-1.594,4.51 6.377,2.908 7.861,0.468c6.008,-9.88 12.99,-19.12 18.999,-29c-2.485,-0.431 -4.97,-0.86 -7.455,-1.291c-5.866,9.759 -11.974,20.851 -21.481,27.53c1.974,0.92 3.947,1.839 5.921,2.758c6.58,-11.611 17.689,-20.631 21.371,-33.818c1.176,-4.213 -5.448,-3.114 -7.126,-1.234c-7.391,8.283 -16.105,15.216 -23.988,23.006c2.233,0.68 4.467,1.359 6.7,2.04c9.186,-11.411 20.871,-23.359 22.513,-38.616c0.404,-3.769 -5.949,-1.627 -7.199,-0.418c-3.474,3.355 -6.957,6.034 -11.944,6.245c1.045,0.725 2.09,1.449 3.136,2.175c-0.653,-4.079 -0.492,-7.757 2.834,-10.628c-2.392,-0.139 -4.783,-0.277 -7.175,-0.416c0,1.333 0.001,2.666 0.001,3.999c0.002,2.178 2.677,2.287 4.201,2.021c7.355,-1.285 13.918,-4.836 21,-7.007c-1.396,-0.673 -2.794,-1.345 -4.191,-2.017c-0.066,7.23 -0.748,14.554 -3.801,21.195c2.629,-0.625 5.257,-1.25 7.886,-1.875c-2.827,-9.178 -1.918,-18.793 -1.839,-28.254c0.037,-4.368 -7.67,-1.33 -8.18,1.918c-1.788,11.396 -1.164,23.177 -4.883,34.212c2.691,-0.378 5.383,-0.755 8.074,-1.133c-2.18,-11.488 -2.069,-23.339 -2.051,-34.988c-2.7,0.634 -5.401,1.267 -8.102,1.9c0.012,13.673 1.181,28.224 -3.883,41.22c2.613,-0.622 5.226,-1.243 7.839,-1.864c-4.966,-10.659 -2.976,-22.886 -2.875,-34.251c0.036,-4.132 -7.812,-1.557 -8.061,1.891c-0.959,13.289 0.396,27.688 -4.889,40.224c2.655,-0.373 5.311,-0.745 7.966,-1.118c-1.934,-11.242 -1.242,-22.726 -3.091,-33.979c-0.682,-4.152 -7.688,-1.498 -7.912,1.855c-0.999,14.987 -1.097,30.014 -2.015,45.004c2.596,-0.863 5.192,-1.726 7.789,-2.589c-3.921,-14.074 -4.87,-28.731 -3.873,-43.269c-2.63,0.617 -5.261,1.234 -7.891,1.852c0.007,17.753 1.709,35.708 -1.91,53.24c2.561,-0.609 5.122,-1.219 7.684,-1.827c-5.053,-15.479 -5.959,-32.095 -4.928,-48.254c0.252,-3.94 -7.413,-1.475 -7.801,1.83c-1.915,16.289 -0.154,32.667 -0.998,48.999c2.549,-0.847 5.098,-1.693 7.647,-2.541c-4.009,-12.631 -3.007,-26.196 -2.96,-39.262c-2.525,0.592 -5.053,1.186 -7.578,1.777c-0.012,15.664 -0.103,31.331 0.021,46.995c2.464,-0.818 4.928,-1.638 7.392,-2.456c-5.18,-13.781 -5.05,-28.762 -5.004,-43.276c-2.412,0.565 -4.826,1.132 -7.238,1.697c1.936,15.305 2.892,31.048 0.055,46.305c2.367,-0.563 4.735,-1.126 7.104,-1.689c-5.079,-12.713 -4.987,-26.826 -4.929,-40.311c-2.407,0.564 -4.813,1.129 -7.221,1.693c1.937,14.151 4.03,29.163 1.03,43.308c2.378,-0.565 4.756,-1.131 7.134,-1.696c-5.118,-10.749 -5.947,-23.971 -3.974,-35.612c-2.426,0.341 -4.852,0.681 -7.276,1.021c2.112,12.926 3.894,26.316 1.153,39.285c2.354,-0.56 4.707,-1.119 7.06,-1.679c-6.191,-9.823 -6.835,-22.028 -5.937,-33.313c-2.341,0.778 -4.682,1.556 -7.022,2.334c2.895,11.02 4.051,23.554 0.978,34.655c2.348,-0.329 4.695,-0.659 7.043,-0.988c-0.106,-2.682 -0.564,-5.355 -1,-8c-0.606,-3.681 -7.156,-1.432 -7.156,1.678c0,3.001 0.002,6.001 -0.002,9.001c2.341,-0.778 4.682,-1.556 7.021,-2.334c-1.991,-8.389 -2.664,-17.158 -0.955,-25.656c-2.315,0.551 -4.632,1.102 -6.947,1.652c3.576,9.398 4.825,19.329 3.905,29.332c2.325,-0.772 4.649,-1.545 6.975,-2.317c-5.022,-9.162 -7.842,-18.843 -7.98,-29.323c-2.248,0.747 -4.496,1.494 -6.745,2.241c1.867,8.767 2.568,17.432 1.876,26.37c2.243,-0.745 4.486,-1.49 6.729,-2.236c-3.029,-5.348 -3.946,-11.25 -4.063,-17.327c-2.116,0.703 -4.232,1.406 -6.348,2.109c1.844,8.688 1.965,17.531 2.013,26.376c2.026,-0.673 4.052,-1.346 6.078,-2.02c-2.888,-5.163 -4.116,-10.42 -4.39,-16.314c-0.121,-2.667 -5.145,-1.035 -5.178,1.212Z" style="fill-rule:nonzero;"/><path d="M121.882,134.295c0.568,-0.636 -1.098,0.763 0.392,-0.23c0.433,-0.289 0.714,-0.69 1.032,-1.089c0.918,-1.146 1.504,-2.479 2.135,-3.795c1.447,-3.019 2.503,-6.323 3.315,-9.566c-2.038,0.088 -4.077,0.176 -6.115,0.264c-1.058,4.645 -1.667,9.376 -2.671,14.028c-0.947,4.389 6.506,2.753 7.457,-0.32c0.643,-2.072 1.939,-3.858 3.332,-5.5c1.167,-1.376 2.996,-2.828 2.666,-4.834c-0.24,-1.463 -1.682,-1.669 -2.941,-1.414c-4.969,1.004 -9.206,7.475 -10.514,12.068c2.525,-0.354 5.053,-0.709 7.578,-1.063c0.739,-4.56 0.619,-9.255 1.307,-13.837c0.426,-2.837 -5.803,-1.506 -6.214,0.872c-0.519,3.007 -1.353,5.934 -2.27,8.84c-0.37,1.172 -0.793,2.378 -1.029,3.583c-0.075,0.382 -0.263,0.818 -0.258,1.211c0.018,1.391 0.226,-0.07 0.182,-0.014c-1.191,1.533 1.785,1.724 2.616,0.796Z" style="fill-rule:nonzero;"/><path d="M150.289,79.139c0.008,-0.21 0.01,-0.42 0.034,-0.628c-1.292,0.849 -2.583,1.696 -3.875,2.545c0.005,0.001 0.009,0.001 0.013,0.002c-0.446,-0.44 -0.893,-0.882 -1.34,-1.321c1.277,8.969 -0.494,18.655 2.359,27.406c0.813,2.492 5.32,0.639 6.144,-0.89c6.447,-11.98 4.751,-25.353 6.756,-38.37c-2.454,0.575 -4.907,1.151 -7.361,1.727c-0.025,11.007 -0.039,22.014 -0.089,33.021c-0.016,3.602 6.013,1.54 7.063,-0.313c6.646,-11.73 5.882,-26.639 3.606,-39.484c-0.669,-3.771 -6.913,-1.764 -7.676,1.076c-4.167,15.522 -3.1,31.844 -3.103,47.748c0,4.123 6.707,1.176 7.635,-1.072c3.293,-7.975 6.771,-21.191 -0.388,-28.086c-1.872,-1.803 -5.63,-0.249 -6.813,1.651c-6.29,10.106 -5.604,22.103 -5.597,33.544c0.002,3.866 6.436,1.648 7.571,-0.336c7.317,-12.785 9.187,-32.398 4.464,-46.345c-1.229,-3.627 -7.106,-0.229 -8.018,1.906c-4.497,10.542 -7.386,24.558 -2.967,35.559c1.188,2.955 6.55,0.947 7.615,-1.104c5.271,-10.142 5.518,-21.406 5.521,-32.601c0.001,-4.351 -7.896,-1.472 -8.291,1.945c-1.104,9.559 -2.709,19.262 3.606,27.389c1.667,2.145 6.11,0.049 7.158,-1.734c5.15,-8.768 6.452,-18.575 6.52,-28.598c-2.759,0.647 -5.519,1.294 -8.277,1.941c0.003,7.683 0.004,15.369 1.002,23c0.563,4.297 7.088,1.49 8.143,-1.143c3.258,-8.132 4.063,-17.109 4.131,-25.799c0.033,-4.154 -8.244,-1.726 -8.273,1.941c-0.066,8.307 -0.887,16.609 1.159,24.756c0.885,3.521 7.304,0.338 7.983,-1.898c1.969,-6.478 2.125,-13.076 2.131,-19.799c-2.758,0.647 -5.516,1.294 -8.273,1.941c0,8 0,16 0,24c0,4.36 7.179,1.309 8.143,-1.143c3.222,-8.189 3.125,-17.131 3.128,-25.798c0.001,-4.163 -8.254,-1.719 -8.268,1.939c-0.045,12.06 -0.765,24.153 3.166,35.752c1.132,3.341 7.335,0.552 7.965,-1.894c2.933,-11.399 3.122,-23.092 3.123,-34.795c0,-4.148 -8.229,-1.713 -8.24,1.934c-0.04,13.318 -0.912,26.684 2.122,39.768c0.773,3.335 7.604,0.587 8.024,-1.908c1.946,-11.558 1.218,-23.15 1.166,-34.81c-2.795,0.655 -5.59,1.312 -8.385,1.967c1.083,13.612 -0.956,27.506 3.161,40.767c1.024,3.298 7.647,0.667 8.092,-1.925c2.086,-12.174 2.131,-24.491 2.132,-36.809c0.001,-4.225 -8.364,-1.74 -8.385,1.967c-0.081,14.321 -1.857,28.789 2.15,42.771c1.14,3.977 7.817,-0.038 8.246,-2.74c2.042,-12.896 1.994,-25.969 1.956,-38.989c-0.012,-4.192 -8.323,-1.731 -8.32,1.951c0.011,16.013 -0.762,32.089 3.166,47.758c0.905,3.608 8.131,0.332 8.147,-2.708c0.073,-13.676 1.019,-27.328 1.027,-41.006c-2.787,0.653 -5.574,1.308 -8.361,1.961c0.001,14.997 -0.937,30.196 2.012,44.997c0.889,4.46 7.872,1.477 8.338,-1.955c1.982,-14.602 1.054,-29.315 0.979,-43.995c-0.021,-4.183 -8.305,-1.726 -8.297,1.945c0.042,17.346 0.093,34.742 1.985,52.004c0.44,4.019 7.612,1.896 8.195,-1.15c3.208,-16.775 1.184,-33.854 1.046,-50.782c-0.034,-4.118 -8.163,-1.691 -8.156,1.912c0.042,19.714 -0.719,39.494 4.063,58.786c0.833,3.358 7.607,0.581 8.059,-1.916c3.104,-17.169 1.228,-34.492 1.102,-51.799c-0.03,-4.183 -8.302,-1.722 -8.291,1.945c0.061,19.371 0.123,38.925 5.106,57.78c0.885,3.349 7.677,0.62 8.107,-1.928c3.074,-18.18 1.207,-36.483 1.072,-54.796c-0.03,-4.177 -8.304,-1.725 -8.281,1.941c0.102,17.119 1.208,34.287 6.122,50.773c1.115,3.74 8.007,0.213 8.197,-2.725c0.977,-15.047 -0.108,-30.051 -2.116,-44.973c-0.529,-3.937 -7.328,-1.833 -7.997,1.123c-4.032,17.814 0.716,36.222 4.969,53.551c0.878,3.574 8.087,0.339 8.09,-2.688c0.018,-14.678 -0.896,-29.329 -0.991,-44.002c-0.027,-4.169 -8.279,-1.719 -8.266,1.938c0.059,16.076 0.402,32.051 4.136,47.766c0.886,3.728 7.967,0.198 8.153,-2.709c0.93,-14.432 -0.918,-28.752 -2.951,-43.012c-0.631,-4.417 -8.198,-1.589 -8.41,1.973c-0.975,16.426 0.948,33.809 8.178,48.762c1.688,3.49 8.03,0.435 8.216,-2.73c0.803,-13.737 -1.868,-27.287 -2.015,-40.996c-0.045,-4.223 -8.348,-1.725 -8.348,1.957c-0.002,15.047 -0.067,30.758 6.085,44.796c1.539,3.512 8.36,0.479 8.341,-2.771c-0.051,-8.718 -0.898,-17.365 -1.952,-26.012c-0.536,-4.394 -8.985,-1.73 -8.6,2.018c1.11,10.765 3.087,21.413 6.113,31.808c1.042,3.579 7.769,0.521 8.403,-1.998c2.159,-8.563 1.015,-17.173 -0.995,-25.65c-0.275,-1.162 -2.162,-1.603 -3.13,-1.486c-4.482,0.542 -6.514,2.564 -8.351,6.502c-0.961,2.059 1.566,3.207 3.165,3.14c2.309,-0.098 4.384,-1.43 5.353,-3.507c1.144,-1.898 0.36,-1.73 -2.351,0.502c-1.044,-0.496 -2.087,-0.991 -3.13,-1.486c1.744,7.258 2.835,15.003 1.005,22.35c2.801,-0.666 5.603,-1.332 8.403,-1.998c-2.909,-9.875 -4.794,-19.961 -5.887,-30.192c-2.866,0.673 -5.733,1.345 -8.6,2.018c1.085,8.638 1.964,17.276 2.048,25.988c2.78,-0.924 5.561,-1.848 8.341,-2.771c-5.984,-13.517 -5.908,-28.689 -5.915,-43.204c-2.782,0.652 -5.565,1.305 -8.348,1.957c0.13,13.713 2.798,27.265 1.985,41.004c2.739,-0.91 5.478,-1.82 8.216,-2.73c-7.027,-14.559 -8.781,-31.253 -7.822,-47.238c-2.804,0.658 -5.606,1.314 -8.41,1.973c2.021,14.241 3.909,28.576 3.049,42.988c2.717,-0.902 5.436,-1.806 8.153,-2.709c-3.683,-15.174 -3.917,-30.707 -3.864,-46.234c-2.755,0.646 -5.511,1.292 -8.266,1.938c-0.008,14.675 0.908,29.327 1.009,43.998c2.696,-0.896 5.394,-1.792 8.09,-2.688c-4.12,-16.205 -8.946,-33.732 -5.031,-50.449c-2.666,0.375 -5.331,0.749 -7.997,1.123c1.889,14.961 2.742,29.958 1.884,45.027c2.732,-0.908 5.465,-1.816 8.197,-2.725c-4.918,-16.007 -5.901,-32.579 -5.878,-49.227c-2.76,0.646 -5.521,1.295 -8.281,1.941c0,17.982 1.842,36.162 -1.061,54.015c2.747,-0.913 5.494,-1.825 8.24,-2.738c-4.976,-18.313 -4.949,-37.385 -4.894,-56.22c-2.764,0.648 -5.527,1.297 -8.291,1.945c0.021,16.672 1.952,33.656 -0.898,50.201c2.687,-0.639 5.372,-1.277 8.059,-1.916c-4.819,-18.719 -4.037,-38.062 -3.937,-57.214c-2.719,0.638 -5.438,1.274 -8.156,1.912c0.014,16.317 2.027,33.048 -0.954,49.218c2.731,-0.384 5.464,-0.767 8.195,-1.15c-2.019,-17.272 -2.055,-34.631 -2.015,-51.996c-2.766,0.648 -5.531,1.297 -8.297,1.945c0.006,14.668 0.889,29.414 -1.021,44.005c2.779,-0.651 5.559,-1.304 8.338,-1.955c-3.033,-14.823 -2.063,-29.979 -1.988,-45.003c0.021,-4.203 -8.341,-1.743 -8.361,1.961c-0.077,13.67 -0.954,27.322 -0.973,40.994c2.716,-0.902 5.432,-1.805 8.147,-2.708c-3.857,-15.119 -2.916,-30.791 -2.834,-46.242c-2.773,0.65 -5.547,1.301 -8.32,1.951c-0.041,13.019 -0.011,26.119 -2.044,39.011c2.749,-0.914 5.497,-1.827 8.246,-2.74c-3.844,-13.374 -1.927,-27.529 -1.85,-41.229c-2.795,0.655 -5.59,1.312 -8.385,1.967c-0.002,11.727 0.119,23.595 -1.868,35.191c2.697,-0.642 5.395,-1.282 8.092,-1.925c-3.937,-12.677 -1.802,-26.206 -2.839,-39.233c-0.344,-4.321 -8.401,-1.673 -8.385,1.967c0.049,11.049 0.982,22.228 -0.834,33.19c2.675,-0.637 5.349,-1.272 8.024,-1.908c-2.933,-12.484 -1.922,-25.522 -1.878,-38.232c-2.747,0.645 -5.493,1.289 -8.24,1.934c-0.005,11.153 -0.076,22.336 -2.877,33.205c2.655,-0.631 5.31,-1.263 7.965,-1.894c-3.745,-11.067 -2.882,-22.748 -2.834,-34.248c-2.756,0.646 -5.512,1.293 -8.268,1.939c-0.006,8.155 0.159,16.495 -2.872,24.202c2.714,-0.381 5.428,-0.762 8.143,-1.143c0,-8 0,-16 0,-24c0,-4.164 -8.271,-1.724 -8.273,1.941c-0.005,6.185 -0.057,12.232 -1.869,18.201c2.66,-0.633 5.322,-1.266 7.983,-1.898c-1.896,-7.547 -0.902,-15.553 -0.841,-23.244c-2.758,0.647 -5.516,1.294 -8.273,1.941c-0.064,8.209 -0.793,16.52 -3.869,24.201c2.714,-0.381 5.428,-0.762 8.143,-1.143c-0.998,-7.631 -0.997,-15.316 -0.998,-23c0,-4.173 -8.252,-1.716 -8.277,1.941c-0.062,8.801 -0.935,17.67 -5.48,25.402c2.387,-0.578 4.772,-1.156 7.158,-1.734c-5.423,-6.982 -3.328,-16.529 -2.394,-24.611c-2.764,0.648 -5.527,1.297 -8.291,1.945c-0.005,9.845 0.183,20.433 -4.479,29.399c2.538,-0.368 5.076,-0.735 7.615,-1.104c-4.033,-10.046 -1.059,-22.856 3.033,-32.441c-2.673,0.636 -5.346,1.271 -8.018,1.906c2.177,6.433 2.146,13.505 1.736,20.212c-0.438,7.17 -1.69,15.104 -5.272,21.443c2.523,-0.112 5.048,-0.225 7.571,-0.336c-0.074,-10.158 -1.167,-21.429 4.403,-30.456c-2.271,0.55 -4.542,1.101 -6.813,1.651c5.923,5.65 2.246,17.459 -0.388,23.914c2.545,-0.357 5.09,-0.715 7.635,-1.072c-0.07,-15.382 -1.19,-31.248 2.897,-46.252c-2.559,0.358 -5.117,0.718 -7.676,1.076c1.997,11.55 3.543,25.849 -2.394,36.516c2.354,-0.104 4.708,-0.209 7.063,-0.313c-0.05,-10.993 -0.063,-21.986 -0.089,-32.979c-0.009,-3.935 -6.923,-1.209 -7.361,1.727c-1.808,12.096 -0.134,24.95 -5.562,36.276c2.153,-0.513 4.308,-1.024 6.461,-1.536c-3.163,-8.088 -1.898,-17.443 -3.581,-25.837c-0.145,-0.722 -0.552,-1.23 -1.34,-1.322c-0.005,0 -0.009,-0.001 -0.014,-0.001c-1.57,-0.183 -3.755,0.748 -3.874,2.545c-0.015,0.206 -0.005,0.412 0,0.619c0.065,2.655 5.112,1.027 5.187,-1.216Z" style="fill-rule:nonzero;"/><path d="M158.732,418.549c3.256,-0.605 6.604,-0.879 9.515,-2.57c0.999,-0.581 1.988,-1.797 1.974,-3.009c-0.021,-1.631 -1.743,-2.165 -3.087,-2.141c-1.593,0.029 -3.173,0.53 -4.722,0.878c-1.625,0.366 -3.266,0.887 -4.779,1.58c-1.296,0.594 -2.849,1.775 -2.828,3.372c0.025,2.023 2.482,2.159 3.927,1.89Z" style="fill-rule:nonzero;"/><path d="M170.291,433.49c-0.057,-0.086 -0.113,-0.172 -0.169,-0.258c-0.054,0.169 -0.108,0.339 -0.162,0.508c0.658,-0.595 1.297,-1.202 1.198,-2.162c-0.023,0.313 0.006,0.158 0.088,-0.466c-0.004,-0.07 -0.007,-0.139 -0.01,-0.208c-0.094,0.438 -0.076,0.302 0.053,-0.407c-0.008,-0.12 -0.008,-0.24 0.002,-0.36c-0.028,0.669 0.162,-0.202 -0.216,0.559c0.183,-0.281 0.094,-0.187 -0.266,0.286c-0.166,0.131 -0.332,0.261 -0.498,0.392c0.337,-0.218 0.177,-0.134 -0.481,0.254c0.92,-0.435 -0.99,0.2 0.118,-0.021c-1.285,0.256 0.19,0.029 0.5,-0.001c1.779,-0.173 3.299,-0.112 5.052,-0.715c1.418,-0.487 3.768,-2.87 2.104,-4.356c-1.698,-1.518 -4.647,-1.223 -6.737,-0.873c-1.77,0.295 -3.822,1.183 -5.05,2.516c-1.095,1.188 -1.656,2.568 -1.127,4.153c0.189,0.567 0.859,1.315 1.436,1.547c0.398,0.16 0.747,0.401 1.18,0.477c0.832,0.145 1.396,-0.229 2.173,-0.353c-0.194,-0.034 -0.389,-0.068 -0.583,-0.102c0.094,0.066 0.187,0.132 0.279,0.198c0.328,0.234 1.439,-0.112 1.116,-0.608Z" style="fill-rule:nonzero;"/><path d="M178.668,449.087c0.488,-0.815 1.267,-1.629 1.966,-2.276c-0.119,0.11 0.719,-0.508 0.651,-0.463c0.408,-0.25 0.466,-0.286 0.174,-0.107c0.237,-0.109 0.479,-0.213 0.723,-0.31c1.134,-0.469 -0.703,0.16 0.445,-0.12c0.933,-0.228 1.848,-0.506 2.656,-1.045c2.043,-1.363 3.217,-4.914 -1.366,-4.74c-2.566,0.098 -5.132,1.761 -6.996,3.396c-0.782,0.687 -1.408,1.56 -1.875,2.482c-0.32,0.631 -0.576,1.184 -0.672,1.889c-0.076,0.561 0.043,0.94 0.069,1.482c0.106,2.155 3.551,0.94 4.225,-0.188Z" style="fill-rule:nonzero;"/></g></svg>