<?xml version="1.0" encoding="utf-8"?>
<!-- Generator: Adobe Illustrator 17.0.0, SVG Export Plug-In . SVG Version: 6.00 Build 0)  -->
<!DOCTYPE svg PUBLIC "-//W3C//DTD SVG 1.0//EN" "http://www.w3.org/TR/2001/REC-SVG-20010904/DTD/svg10.dtd">
<svg version="1.0" id="Layer_1" xmlns="http://www.w3.org/2000/svg" xmlns:xlink="http://www.w3.org/1999/xlink" x="0px" y="0px"
	 width="566.93px" height="566.93px" viewBox="0 0 566.93 566.93" enable-background="new 0 0 566.93 566.93" xml:space="preserve">
<path d="M507.434,273.356c-2.06-7.68-4.861-15.164-7.295-22.73c-1.154-3.586-2.507-7.08-3.836-10.601
	c-0.281-0.744-0.526-1.527-0.745-2.315c2.193-2.023,3.608-4.753,3.289-7.842c-0.018-0.171-0.035-0.342-0.053-0.513
	c-0.294-2.852-1.996-4.98-4.873-5.553c-0.18-0.031-0.357-0.071-0.535-0.108c-4.941-2.241-10.967-2.857-16.052-4.448
	c-7.168-2.242-14.438-4.152-21.745-5.883c-14.266-3.379-28.757-5.763-43.297-7.593c-29.479-3.709-59.342-4.573-89.026-4.815
	c-28.108-0.229-56.226,0.249-84.329,0.692c-27.588,0.436-55.315,1.701-82.542,6.407c-28.699,4.96-56.526,12.899-81.881,27.556
	c-2.458,1.421-3.051,4.106-2.205,5.758c-6.852,3.705-9.139,12.073-10.997,19.102c-2.373,8.978-3.251,18.419-4.327,27.619
	c-2.811,24.028-5.59,47.886-6.319,72.099c-0.782,25.982-0.569,52.021,0.526,77.989c1.103,26.166,4.791,51.916,8,77.83
	c0.551,4.446,4.325,6.35,8.351,5.517c-0.859,1.918-0.501,3.867,2.276,4.517c29.663,6.947,59.859,10.028,90.151,12.872
	c31.051,2.916,62.192,5.335,93.331,7.093c32.24,1.819,64.471-0.193,96.617-2.675c32.177-2.484,64.422-4.506,96.456-8.518
	c10.19-1.276,20.812-2.277,30.729-5.038c3.274-0.911,6.503-1.974,9.781-2.872c0.482-0.132,0.964-0.242,1.446-0.358
	c0.487,0.248,1.033,0.437,1.657,0.538c1.425,0.231,2.846,0.461,4.277,0.652c0.518,0.069,1.036,0.082,1.553,0.069
	c1.234,0.008,2.48-0.257,3.673-0.737c0.017-0.006,0.033-0.015,0.05-0.021c0.25-0.102,0.498-0.207,0.742-0.326
	c3.298-1.557,5.959-4.613,6.721-8.17c0.325-1.516,0.214-2.804-0.183-3.885c1.025-1.602,1.607-3.393,1.481-5.257
	c0-0.021-0.003-0.038-0.003-0.058c0.837-4.099,0.513-8.45,0.402-12.792c-0.147-5.746,2.073-11.856,3.373-17.432
	c3.174-13.615,3.446-26.79,3.593-40.697c0.317-29.904,3.151-59.62,2.13-89.559C516.938,323.646,513.986,297.784,507.434,273.356z
	 M475.127,516.805c1.189-0.344-3.859,0.743-3.476,0.674c-1.834,0.328-3.674,0.625-5.513,0.924c-3.697,0.6-7.407,1.123-11.118,1.632
	c-8.274,1.134-16.571,2.105-24.877,2.967c-32.071,3.33-64.321,5.555-96.485,7.795c-32.2,2.243-64.016,2.333-96.22,0.288
	c-31.301-1.988-62.596-4.177-93.817-7.184c-23.033-2.218-46.015-4.753-69.064-6.799c1.883-2.44,2.746-5.572,2.074-8.81
	c-0.181-0.87-0.484-1.623-0.873-2.3c-1.726-4.498-3.434-8.805-4.399-13.665c-1.228-6.181-2.238-12.404-3.148-18.638
	c-1.828-12.527-2.981-25.152-3.895-37.775c-1.822-25.159-1.539-50.637-1.045-75.84c0.462-23.611,2.818-46.827,4.969-70.306
	c0.801-8.744,1.511-17.487,2.964-26.153c1.174-7.002,3.891-13.854,4.25-20.935c0.476-0.1,0.986-0.27,1.547-0.567
	c48.523-25.738,105.815-29.089,159.663-29.856c27.969-0.399,56.025,0.159,83.984,0.918c29.61,0.804,59.157,2.825,88.46,7.267
	c13.251,2.008,26.402,4.656,39.388,7.97c6.139,1.566,12.221,3.349,18.258,5.271c3.172,1.01,6.512,1.905,9.438,3.506
	c3.165,1.732,5.958,3.796,9.64,4.1c0.464,0.039,0.94,0.033,1.42,0.006c0.21,2.604,0.792,5.217,1.221,7.385
	c1.663,8.407,4.354,16.591,6.74,24.814c6.433,22.173,8.833,46.711,10.066,70.25c1.522,29.046-0.51,57.95-1.945,86.948
	c-0.708,14.314-0.25,28.941-3.088,43.025c-1.198,5.945-2.744,11.836-4.257,17.707c-1.309,5.077-2.907,9.95-4.028,15.009
	c-0.128,0.245-0.248,0.492-0.348,0.744c-0.724,1.817-1.328,3.481-1.64,5.269C484.962,513.688,479.966,515.515,475.127,516.805z
	 M491.214,526.224C491.829,526.78,492.198,527.132,491.214,526.224L491.214,526.224z"/>
<path d="M475.336,308.589c-2.049-10.19-4.204-20.362-6.775-30.435c-1.237-4.845-2.658-9.647-4.099-14.435
	c-0.813-2.701-1.557-5.637-2.612-8.4c1.301-2.132,1.846-4.58,0.635-7.027c-2.042-4.124-6.881-4.873-10.938-5.904
	c-10.871-2.762-22.547-5.972-34.201-7.682c-26.895-3.948-53.824-6.791-80.994-7.903c-27.28-1.117-54.545-0.506-81.641,2.954
	c-13.63,1.741-27.195,3.973-40.773,6.073c-13.958,2.159-28.371,3.179-42.156,6.196c-1.275,0.279-2.631,1.564-3.555,3.085
	c-0.869,0.468-1.629,1.103-1.922,1.657c-9.155,17.342-12.545,37.651-15.922,56.856c-3.661,20.822-5.294,41.959-5.938,63.078
	c-0.632,20.706-0.471,41.798,3.058,62.253c1.903,11.027,4.528,21.934,6.883,32.87c1.999,9.283,2.586,18.518,3.616,27.831
	c-0.098,0.541-0.138,1.08-0.1,1.608c0.083,1.147,0.545,2.232,0.692,3.325c1.184,8.763,10.541,6.159,15.147,0.581
	c6.675,3.018,14.682,4.012,21.528,5.185c11.585,1.985,23.283,2.854,35.015,3.37c24.394,1.073,48.86,0.789,73.272,1.146
	c26.006,0.38,52.023,0.585,77.998-0.954c12.899-0.765,25.598-2.241,38.264-4.812c6.175-1.254,12.325-2.629,18.486-3.949
	c5.406-1.158,12.064-3.428,17.607-3.004c3.748,0.287,7.33-1.08,9.902-3.644c1.613-0.806,3.03-1.955,3.947-3.389
	c2.975-4.65,2.017-7.689,1.749-12.742c-0.222-4.176,0.267-8.351,0.901-12.467c1.444-9.371,4.06-18.491,5.35-27.904
	c2.819-20.556,4.015-41.362,3.76-62.104C481.27,349.316,479.395,328.776,475.336,308.589z M467.267,473.014
	c1.498,0.287,0.68,0.301,0.017,0.006C467.278,473.017,467.272,473.016,467.267,473.014z M424.516,482.263
	c-12.42,2.711-24.848,4.116-37.505,5.14c-25.354,2.052-50.836,2.198-76.258,2.244c-24.037,0.043-48.091,0.473-72.126,0.192
	c-11.313-0.132-22.631-0.683-33.898-1.714c-9.422-0.863-19.127-3.563-28.665-3.825c-0.779-8.614-3.5-17.365-5.349-25.654
	c-2.441-10.943-5.393-21.766-7.54-32.775c-3.866-19.832-4.135-40.314-3.921-60.461c0.217-20.441,1.903-40.826,4.156-61.134
	c1.97-17.761,6.479-35.306,8.141-53.024c11.29,0.407,22.949-1.613,34.096-3.019c12.236-1.542,24.449-3.252,36.694-4.722
	c25.121-3.015,50.222-4.019,75.51-3.35c24.564,0.65,49.079,2.962,73.39,6.491c11.988,1.74,24.021,3.589,35.812,6.383
	c5.112,1.212,10.069,2.838,15.095,4.327c1.739,0.515,3.5,0.954,5.24,1.468c0.143,0.042,0.283,0.088,0.421,0.136
	c0.154,0.26,0.328,0.515,0.542,0.759c1.167,1.33,2.955,1.834,4.736,1.737c0.506,1.941,1.084,3.861,1.572,5.733
	c1.278,4.903,2.438,9.836,3.541,14.78c2.241,10.039,4.229,20.125,5.542,30.33c2.559,19.881,4.253,39.926,4.47,59.975
	c0.22,20.374-1.309,40.695-4.28,60.845c-1.306,8.857-3.393,17.576-5.45,26.284c-1.033,4.375-2.141,8.732-2.995,13.146
	c-0.216,1.115-0.482,2.333-0.731,3.595c-3.895,0.811-7.914,1.313-11.758,2.088C436.818,479.487,430.675,480.919,424.516,482.263z"/>
<path d="M136.461,429.577c-6.19-3.959-14.821-6.029-21.487-2.752c-4.83-1.511-10.99-0.489-15.249,1.283
	c-8.786,3.656-15.228,11.205-19.088,19.745c-7.934,17.552-1.045,38.885,17.918,45.07c16.243,5.298,34.49-6.147,43.885-18.675
	C153.524,459.47,152.772,440.009,136.461,429.577z M134.424,462.304c-3.429,9.622-12.734,17.144-23.601,18.186
	c-13.989,1.341-23.918-12.777-22.117-25.729c0.979-7.041,4.693-13.327,10.196-17.755c3.106-2.5,6.4-2.993,9.794-2.842
	c-0.344,1.91,0.165,3.812,2.164,5.06c4.18,2.611,9.586,0.709,14.161,2.848c3.084,1.441,6.159,3.998,7.933,6.957
	C135.527,453.324,135.755,458.568,134.424,462.304z"/>
<path d="M102.646,291.629c9.966,2.558,20.624-5.221,21.339-15.315c0.78-11.012-11.476-19.013-20.668-12.054
	c-0.01,0.007-0.019,0.017-0.029,0.024c-0.687,0.238-1.366,0.533-2.049,0.865c-3.337,1.623-5.924,5.093-7.115,8.534
	C91.462,281.372,94.339,289.497,102.646,291.629z M112.603,280.374c-0.136,1.035,0.174,0.455-0.392,0.973
	c-1.039,0.951-3.95,1.094-5.773,0.736c-3.421-0.672-4.587-4.495-4.022-7.477c0.119-0.626,0.382-1.231,0.65-1.719
	c1.985,1.058,4.196,1.093,6.105,1.986c1.737,0.813,2.679,2.187,3.301,4.042C112.418,278.754,112.559,280.71,112.603,280.374z"/>
<path d="M109.323,341.706c8.094-2.847,13.293-11.957,11.673-20.385c-0.833-4.331-2.844-7.773-6.579-10.223
	c-2.082-1.365-4.62-1.811-7.048-1.911c-3.207-0.132-6.438,1.803-8.039,2.734c-1.327,0.771-2.614,2.334-3.312,3.996
	c-4.76,2.927-7.25,7.849-7.667,13.292C87.547,339.722,100.957,344.648,109.323,341.706z M106.529,330.804
	c-0.012-0.026-0.148-0.071-0.655-0.141c-2.113-0.292-4.671-1.196-5.719-3.206c-1.325-2.542-0.478-3.777,1.156-4.728
	c0.038,0.007,0.081,0.016,0.118,0.023c0.605,0.121,1.224,0.173,1.832,0.3c0.107,0.022,0.718,0.221,0.992,0.295
	c0.5,0.301,1.259,0.839,1.338,0.843c0.485,0.545,1.278,1.558,1.291,1.45c0.349,0.672,0.612,1.388,0.83,2.111
	c0.009,0.028,0.014,0.045,0.022,0.071c0.004,0.085,0.016,0.221,0.041,0.423c0.062,0.506,0.06,1.018,0.057,1.527
	c0.006-1.091-0.352,0.279-0.417,0.904c-0.178,0.039-0.337,0.072-0.403,0.077C106.759,330.775,106.613,330.791,106.529,330.804z
	 M107.181,331.259C107.005,331.441,106.919,331.517,107.181,331.259L107.181,331.259z"/>
<path d="M418.891,58.229c-2.743,2.463-5.473,4.941-8.194,7.429c-10.914,9.981-21.112,20.549-31.393,31.165
	c-9.906,10.228-20.451,19.813-30.566,29.831c-4.927,4.88-9.841,9.82-14.418,15.034c-2.175,2.478-6.168,6.168-7.575,9.884
	c-2.924-0.727-5.945-1.178-8.954-1.385c-13.566-0.931-28.083-0.086-39.894,7.264c-5.756,3.583-10.491,8.554-14.512,13.962
	c-2.668,3.588-8.133,11.572-6.353,16.25c0.209,0.55,0.885,0.698,1.394,0.509c3.964-1.475,6.57-5.55,9.143-8.704
	c2.831-3.471,5.87-6.856,9.276-9.77c7.561-6.469,17.331-7.411,26.873-7.457c8.226-0.04,16.899,0.554,24.002,5.082
	c3.418,2.179,5.449,5.809,6.789,9.51c0.821,2.268,0.988,4.568,1.138,6.953c0.015,0.237,0.006,0.476-0.018,0.715
	c-2.574,2.105-4.291,5.357-3.206,8.643c3.272,9.905,16.222,1.28,17.873-5.34c1.397-5.604-0.389-13.371-2.256-18.684
	c-2.633-7.495-8.073-12.34-14.638-15.277c2.637-2.19,4.956-5.322,6.998-7.332c5.032-4.954,9.948-10.009,15.07-14.875
	c10.315-9.799,20.812-19.41,30.779-29.569c9.934-10.126,19.828-20.154,30.344-29.689c2.731-2.476,5.485-4.927,8.241-7.375
	c1.769-1.572,3.614-3.734,5.701-5.014c0.201-0.059,0.424-0.116,0.639-0.152c0.593-0.1,1.261-0.197,1.9-0.318
	c6.3,3.681,16.367-0.109,19.974-5.947c2.09-3.382,3.057-7.064,1.515-10.901c-1.137-2.831-3.512-5.041-6.009-6.663
	c-2.796-1.815-6.467-2.392-9.731-2.131c-6.779,0.54-12.517,9.432-10.41,16.028c-0.531,0.495-1.003,0.907-1.388,1.126
	C424.044,52.736,421.448,55.933,418.891,58.229z"/>
<path d="M212.425,21.056c-5.539-2.615-11.84-2.122-17.121,0.881c-4.857,2.762-9.37,8.44-8.837,14.324
	c0.256,2.823,1.729,5.288,4.219,6.685c0.961,0.54,2.106,0.891,3.21,1.017c2.398,3.579,6.046,5.315,10.514,5.395
	c1.365,0.024,2.703-0.188,3.995-0.58c1.067,1.806,2.219,3.563,3.312,5.292c3.866,6.113,7.99,12.062,12.151,17.976
	c8.328,11.833,17.061,23.375,25.084,35.423c4.081,6.127,7.973,12.327,11.733,18.658c2.218,3.734,4.423,7.477,6.639,11.213
	c1.026,1.729,2.058,3.455,3.095,5.178c0.424,0.705,0.85,1.409,1.276,2.112c0.013,0.021,0.02,0.034,0.031,0.053
	c-0.406,2.618,0.733,5.082,3.883,6.104c1.355,0.44,3.102,0.432,4.397-0.102c-0.025-0.001-0.05-0.002-0.075-0.003
	c3.807-1.28,7.185-5.682,6.275-8.888c0.003-0.118,0.005-0.226,0.004-0.31c-0.018-2.574-1.95-4.162-4.188-4.594
	c-0.351-0.478-0.669-1-0.993-1.48c-1.008-1.49-2.003-2.989-2.999-4.488c-2.376-3.579-4.736-7.17-7.105-10.753
	c-4.13-6.246-8.438-12.37-12.586-18.6c-7.663-11.508-16.077-22.516-24.369-33.572c-4.338-5.785-8.603-11.624-12.717-17.571
	c-1.571-2.271-3.05-4.771-4.641-7.192c1.968-2.251,3.456-4.888,4.22-7.505C222.677,29.425,217.752,23.57,212.425,21.056z"/>
</svg>
