<?xml version="1.0" encoding="UTF-8" standalone="no"?><!DOCTYPE svg PUBLIC "-//W3C//DTD SVG 1.1//EN" "http://www.w3.org/Graphics/SVG/1.1/DTD/svg11.dtd"><svg width="100%" height="100%" viewBox="0 0 407 540" version="1.1" xmlns="http://www.w3.org/2000/svg" xmlns:xlink="http://www.w3.org/1999/xlink" xml:space="preserve" style="fill-rule:evenodd;clip-rule:evenodd;stroke-linejoin:round;stroke-miterlimit:1.41421;"><g id="coat"><path d="M147.737,25.425c-0.978,4.225 -1.962,7.362 -1.367,11.8c0.544,4.065 1.849,7.925 3.447,11.685c3.648,8.583 9.214,16.372 15.118,23.53c5.899,7.152 12.554,13.676 19.44,19.869c2.753,2.476 5.579,4.87 8.435,7.226c2.857,2.357 4.774,7.1 9.361,5.405c3.291,-1.216 7.336,-5.525 4.386,-9.146c-1.171,-1.438 -2.447,-1.736 -4.075,-2.442c-1.787,-0.775 -3.404,-2.278 -4.937,-3.451c-7.046,-5.39 -13.763,-11.209 -20.089,-17.428c-6.948,-6.832 -13.436,-14.363 -18.438,-22.754c-2.208,-3.701 -3.946,-7.639 -5.457,-11.668c-1.461,-3.896 -3.586,-8.863 -4.217,-12.95c-0.154,-1.006 -1.448,-0.363 -1.607,0.324Z" style="fill:#010101;fill-rule:nonzero;"/><path d="M248.161,16.472c-1.46,6.357 -1.073,12.761 -2.894,19.094c-1.492,5.193 -4.303,10.058 -6.969,14.725c-3.623,6.344 -7.416,12.599 -11.383,18.732c-4.511,6.975 -9.268,13.842 -14.694,20.14c-0.792,0.921 -1.554,1.709 -2.441,2.528c-0.548,0.506 -1.126,0.975 -1.708,1.44c1.324,-1.06 -1.334,0.57 0.589,-0.261c-4.216,1.822 -8.273,4.688 -7.102,9.882c0.429,1.9 3.063,2.974 4.796,2.677c6.923,-1.188 11.896,-7.772 15.985,-13.002c5.719,-7.316 10.575,-15.345 15.303,-23.322c3.653,-6.164 7.191,-12.418 10.15,-18.949c4.111,-9.074 10.978,-26.261 2.913,-34.825c-0.862,-0.917 -2.326,0.183 -2.545,1.141Z" style="fill:#010101;fill-rule:nonzero;"/><path d="M175.352,132.503c8.376,-4.03 15.997,-11.462 23.033,-17.462c7.134,-6.083 14.866,-13.136 19.274,-21.531c0.713,-1.356 0.594,-2.825 -0.257,-4.057c-0.088,-0.127 -0.175,-0.254 -0.263,-0.381c-0.396,-0.572 -1.328,-0.772 -1.967,-0.7c-4.477,0.501 -6.426,4.587 -8.924,7.846c-3.407,4.444 -7.313,8.473 -11.359,12.331c-7.154,6.823 -16.694,12.576 -22.376,20.721c-1.664,2.388 0.316,4.448 2.839,3.233Z" style="fill:#010101;fill-rule:nonzero;"/><path d="M248.886,14.495c-1.896,6.449 4.296,15.442 7.393,20.616c2.27,3.793 4.652,7.515 7.182,11.141c1.541,2.209 3.501,6.622 5.873,7.801c3.987,1.98 12.001,-3.515 9.282,-8.146c-1.754,-2.987 -3.788,-3.271 -6.196,-6.093c-2.583,-3.025 -4.98,-6.211 -7.324,-9.423c-2.441,-3.344 -4.854,-6.729 -7.197,-10.143c-1.62,-2.362 -3.61,-6.018 -6.251,-7.357c-1.176,-0.598 -2.447,0.53 -2.762,1.604Z" style="fill:#010101;fill-rule:nonzero;"/><path d="M148.628,18.873c-4.55,6.1 -8.702,12.103 -12.587,18.706c-1.979,3.365 -3.915,6.733 -6.123,9.958c-0.357,0.533 -0.741,1.047 -1.153,1.541c-1.219,1.539 -2.195,1.294 0.662,0.05c-2.612,1.138 -4.134,2.713 -5.562,5.106c-1.786,2.995 0.395,6.707 3.884,6.353c7.237,-0.735 11.068,-11.345 13.905,-17.098c2.014,-4.085 3.737,-8.274 5.442,-12.495c1.508,-3.735 2.145,-7.714 3.515,-11.432c0.547,-1.481 -1.227,-1.702 -1.983,-0.689Z" style="fill:#010101;fill-rule:nonzero;"/><path d="M124.043,61.399c3.186,1.031 6.431,1.638 9.692,2.362c3.624,0.805 9.928,1.664 12.521,4.475c4.377,4.746 10.995,-6.968 4.081,-6.631c-4.499,0.219 -9.707,-2.289 -14.24,-2.853c-3.967,-0.493 -7.734,-0.339 -11.618,0.614c-0.893,0.219 -1.554,1.671 -0.436,2.033Z" style="fill:#010101;fill-rule:nonzero;"/><path d="M151.445,64.773c-3.045,4.005 -4.887,8.906 -7.398,13.263c-2.809,4.868 -5.5,10.053 -9.094,14.391c-1.708,2.062 -1.724,5.878 1.444,6.466c3.214,0.596 5.911,-2.107 6.809,-4.91c1.636,-5.107 4.838,-9.875 6.961,-14.805c1.827,-4.244 4.376,-9.571 3.816,-14.281c-0.171,-1.439 -1.921,-0.937 -2.538,-0.124Z" style="fill:#010101;fill-rule:nonzero;"/><path d="M134.31,95.132c-3.234,7.974 10.063,16.726 15.312,20.678c8.808,6.631 18.438,11.955 27.978,17.424c3.555,2.037 9.753,-3.773 6.644,-7.129c-2.185,-2.357 -4.926,-2.202 -7.864,-1.592c-1.774,0.368 -3.524,2.752 -2.832,4.55c0.778,2.021 2.169,3.142 4.053,4.171c1.955,-2.582 3.912,-5.164 5.867,-7.746c-8.921,-3.884 -17.586,-8.568 -25.871,-13.658c-4.727,-2.904 -9.314,-6.08 -13.412,-9.828c-2.6,-2.379 -4.646,-6.364 -7.745,-7.836c-0.785,-0.373 -1.82,0.202 -2.13,0.966Z" style="fill:#010101;fill-rule:nonzero;"/><path d="M218.693,85.405c-3.533,3.089 -6.363,7.045 -9.371,10.631c-3.616,4.309 -7.491,8.378 -11.568,12.25c-7.939,7.542 -16.515,14.118 -26.52,18.679c0.865,2.264 1.732,4.529 2.598,6.793c3.216,-1.927 5.66,-4.08 5.635,-8.017c-0.009,-1.366 -1.634,-1.413 -2.522,-0.92c-1.341,0.743 -3.166,1.043 -4.621,1.662c-5.412,2.301 -4.658,10.483 1.509,7.274c10.321,-5.369 19.615,-12.847 27.647,-21.227c6.955,-7.258 16.021,-16.247 19.428,-25.914c0.563,-1.601 -1.071,-2.212 -2.215,-1.211Z" style="fill:#010101;fill-rule:nonzero;"/><path d="M216.818,90.228c-4.934,8.454 -12.789,15.68 -20.095,22.054c-7.268,6.343 -15.107,12.799 -23.546,17.535c1.935,0.706 3.869,1.412 5.804,2.118c-0.16,2.153 0.845,-2.032 0.939,-2.768c0.165,-1.269 -0.54,-2.225 -1.886,-2.149c-4.037,0.225 -7.164,2.526 -7.859,6.696c-0.754,4.515 4.188,4.479 6.791,2.42c8.405,-6.648 16.92,-12.928 24.632,-20.422c7.103,-6.9 15.286,-15.158 16.717,-25.415c0.151,-1.086 -1.151,-0.663 -1.497,-0.069Z" style="fill:#010101;fill-rule:nonzero;"/><path d="M249.5,66.982c-3.819,7.26 -3.075,17.102 -1.978,24.96c0.535,3.827 1.313,7.618 2.03,11.414c0.533,2.821 0.219,6.641 3.073,8.229c2.059,1.146 4.934,-0.28 6.15,-2.043c3.488,-5.057 -0.256,-12.094 -1.697,-17.4c-1.158,-4.266 -2.166,-8.6 -2.826,-12.971c-0.634,-4.195 -0.221,-8.337 -0.451,-12.538c-0.147,-2.695 -3.568,-1.045 -4.301,0.349Z" style="fill:#010101;fill-rule:nonzero;"/><path d="M247.507,70.537c10.357,1.649 21.516,-0.749 31.708,1.74c3.345,0.816 8.015,-3.054 7.492,-6.575c-0.957,-6.46 -5.085,-18.71 -13.521,-17.39c-2.143,0.335 -3.656,1.911 -3.826,4.066c-0.233,2.957 1.587,4.992 3.145,7.402c2.07,3.202 3.201,6.723 4.093,10.394c1.56,-2.507 3.12,-5.014 4.681,-7.521c-5.32,1.082 -11.646,0.137 -17.079,0.309c-5.624,0.177 -11.295,1.036 -16.364,3.573c-1.349,0.675 -2.597,3.64 -0.329,4.002Z" style="fill:#010101;fill-rule:nonzero;"/><path d="M179.879,124.653c-16.269,9.188 -18.192,32.866 -19.085,49.37c-1.262,23.329 0.043,47.01 0.289,70.359c0.342,32.582 1.253,65.156 1.16,97.742c-0.092,32.301 -1.901,64.555 -2.205,96.854c-0.15,15.907 0.257,31.865 -0.444,47.76c3.292,-1.056 6.585,-2.11 9.877,-3.166c-0.128,-4.222 -1.114,-7.97 -2.13,-12.023c-1.037,-4.136 -7.33,-0.244 -7.72,2.487c-0.612,4.288 -0.157,8.4 -0.027,12.702c0.19,6.296 10.11,1.999 9.877,-3.166c-0.718,-15.821 -0.292,-31.733 -0.161,-47.566c0.131,-15.919 0.283,-31.863 1.041,-47.767c1.551,-32.601 1.225,-65.258 0.693,-97.88c-0.472,-28.949 -0.453,-57.927 -1.182,-86.868c-0.523,-20.771 -1.606,-42.346 4.293,-62.516c1.463,-5.004 3.769,-9.626 7.55,-13.279c1.722,-1.663 0.607,-4.417 -1.826,-3.043Z" style="fill:#010101;fill-rule:nonzero;"/><path d="M154.07,39.236c2.195,-6.635 -0.447,-14.588 5.543,-19.621c3.174,-2.666 5.882,-3.32 10.191,-4.437c10.377,-2.689 21.375,-3.541 32.056,-3.847c11.067,-0.317 22.373,0.41 32.971,3.814c3.401,1.094 6.592,2.854 8.802,5.475c2.05,2.43 0.993,5.713 2.832,9.06c1.328,2.419 4.574,2.2 6.402,0.34c9.4,-9.564 0.368,-20.739 -9.512,-24.65c-12.518,-4.955 -27.105,-4.756 -40.332,-4.044c-12.486,0.672 -25.525,2.309 -37.391,6.425c-12.816,4.446 -22.979,19.832 -14.415,32.765c0.846,1.276 2.577,-0.446 2.853,-1.28Z" style="fill:#010101;fill-rule:nonzero;"/><path d="M78.028,76.716c8.417,-0.039 16.748,-2.064 24.943,-3.877c9.436,-2.086 18.871,-4.138 28.37,-5.918c3.188,-0.598 6.14,-2.662 6.859,-6.02c0.836,-3.903 -2.605,-5.677 -5.953,-4.804c-8.704,2.27 -17.355,4.733 -26.021,7.145c-9.368,2.607 -18.892,4.99 -27.814,8.888c-1.916,0.838 -3.77,4.603 -0.384,4.586Z" style="fill:#010101;fill-rule:nonzero;"/><path d="M67.846,76.417c-2.087,7.261 -0.758,15.466 0.383,22.798c1.13,7.261 3.267,14.346 5.693,21.268c5.263,15.011 13.65,28.49 19.638,43.143c1.57,3.842 6.426,0.754 7.702,-1.568c1.54,-2.802 0.757,-5.49 -1.744,-7.316c-1.661,-1.212 -3.923,0.807 -4.667,2.121c-0.465,0.652 -0.797,1.365 -0.994,2.138c-0.051,0.237 -0.604,2.66 -0.054,1.667c2.407,-0.79 4.813,-1.579 7.221,-2.369c-8.279,-12.154 -14.996,-26.063 -20.69,-39.604c-2.752,-6.543 -4.835,-13.268 -6.702,-20.106c-2.005,-7.344 -1.843,-15.493 -4.431,-22.606c-0.27,-0.746 -1.224,-0.02 -1.355,0.434Z" style="fill:#010101;fill-rule:nonzero;"/><path d="M332.865,82.891c-3.931,7.075 -4.951,16.235 -7.446,23.931c-2.36,7.279 -5.083,14.437 -8.142,21.451c-1.979,4.541 -3.963,9.078 -6.107,13.544c-0.852,1.772 -1.646,3.658 -2.694,5.325c-0.482,0.769 -0.996,1.465 -1.606,2.133c-3.242,3.549 5.378,-2.949 7.186,-0.843c-3.693,-4.304 -9.68,1.779 -9.915,5.696c-0.161,2.689 2.175,4.561 4.752,4.316c3.501,-0.332 6.143,-2.797 7.726,-5.778c2.826,-5.326 4.852,-11.259 6.962,-16.893c2.528,-6.751 4.42,-13.671 6.587,-20.541c1.876,-5.948 3.518,-11.966 4.931,-18.041c1.09,-4.688 2.675,-10.26 1.214,-15.002c-0.563,-1.817 -2.934,-0.225 -3.448,0.702Z" style="fill:#010101;fill-rule:nonzero;"/><path d="M96.259,161.464c-4.201,18.055 -1.959,36.535 1.494,54.542c1.705,8.895 3.868,17.7 6.32,26.417c2.66,9.453 6.407,18.633 8.866,28.125c0.333,1.287 1.759,2.154 2.968,2.383c0.306,0.056 0.61,0.115 0.915,0.179c4.635,0.937 10.021,-4.404 8.482,-9.039c-1.098,-3.308 -3.646,-4.002 -6.828,-4.116c-2.972,-0.105 -5.459,3.184 -5.528,5.876c-0.045,1.708 0.381,3.179 0.812,4.82c2.339,-3.035 4.679,-6.071 7.019,-9.106c-0.346,0.064 -0.691,0.124 -1.039,0.182c1.463,0.815 2.924,1.631 4.386,2.447c-4.013,-7.395 -6.675,-15.716 -9.425,-23.646c-3.027,-8.728 -5.639,-17.597 -7.813,-26.574c-4.227,-17.451 -5.411,-35.306 -8.057,-53.009c-0.24,-1.612 -2.317,-0.575 -2.572,0.519Z" style="fill:#010101;fill-rule:nonzero;"/><path d="M309.851,150.498c-2.145,9.518 -2.358,19.467 -3.919,29.123c-1.597,9.885 -3.778,19.635 -6.421,29.292c-2.673,9.765 -5.987,19.334 -9.71,28.745c-1.896,4.789 -3.922,9.523 -6.04,14.217c-0.924,2.046 -1.887,4.073 -2.855,6.097c-0.482,0.999 -0.97,1.996 -1.463,2.99c-0.043,0.087 -2.773,4.239 -1.005,2.369c1.522,-0.683 3.045,-1.365 4.567,-2.048c-0.051,-0.001 -0.103,-0.003 -0.154,-0.004c1.604,1.292 3.205,2.585 4.808,3.877c0.016,-0.928 -0.234,-1.78 -0.515,-2.656c-0.352,-1.099 -1.642,-2.203 -2.82,-2.264c-4.247,-0.222 -6.503,2.104 -8.141,5.85c-1.174,2.686 -0.623,6.139 2.711,6.763c5.42,1.013 8.621,-4.284 10.361,-8.439c2.151,-5.136 4.564,-10.155 6.654,-15.322c4.279,-10.581 7.854,-21.457 10.877,-32.46c3.087,-11.23 5.322,-22.658 6.752,-34.215c1.303,-10.528 2.782,-22.718 -0.369,-32.983c-0.556,-1.817 -3.064,-0.057 -3.318,1.068Z" style="fill:#010101;fill-rule:nonzero;"/><path d="M283.116,264.476c-1.151,8.492 -0.958,16.289 0.854,24.721c2.082,9.688 5.013,19.127 8.125,28.526c2.82,8.521 6.058,16.891 8.73,25.463c3.16,10.136 5.191,20.685 7.287,31.081c4.183,20.746 7.197,41.716 9.399,62.759c2.136,20.41 2.649,40.993 4.769,61.339c4.168,-1.336 8.336,-2.672 12.504,-4.008c-0.404,-3.474 -1.154,-5.297 -4.392,-6.771c-2.173,-0.991 -4.763,0.18 -6.099,2.025c-2.201,3.045 -2.433,5.148 -2.014,8.754c0.936,8.04 13.178,2.47 12.504,-4.008c-2.049,-19.66 -3.062,-39.5 -5.305,-59.193c-2.365,-20.752 -5.648,-41.413 -9.923,-61.858c-4.031,-19.282 -9.328,-37.615 -16.425,-55.979c-6.731,-17.419 -13.978,-34.914 -17.153,-53.43c-0.291,-1.709 -2.683,-0.739 -2.861,0.579Z" style="fill:#010101;fill-rule:nonzero;"/><path d="M68.49,78.558c-10.998,2.952 -17.126,16.96 -21.084,26.495c-5.593,13.475 -9.146,27.786 -13.331,41.733c-10.839,36.129 -24.29,71.47 -33.79,108c-1.715,6.595 6.729,4.51 9.268,1.747c1.955,-2.127 3.137,-4.747 2.562,-7.642c-0.972,-4.886 -7.172,-2.83 -8.684,0.703c-0.113,0.584 -0.39,1.059 -0.828,1.426c2.726,0.972 5.452,1.943 8.179,2.914c8.684,-33.857 20.021,-66.935 29.813,-100.472c4.014,-13.747 7.136,-27.76 11.503,-41.401c3.872,-12.094 9.658,-22.17 17.098,-32.344c0.454,-0.62 0.096,-1.375 -0.706,-1.159Z" style="fill:#010101;fill-rule:nonzero;"/><path d="M3.686,252.203c-2.308,4.568 -2.3,10.039 -2.603,15.062c-0.357,5.911 -0.494,11.782 -0.428,17.702c0.139,12.409 0.664,24.813 1.744,37.176c2.055,23.511 6.752,47.338 16.056,69.112c2.357,5.517 10.907,0.103 10.399,-4.6c-0.348,-3.227 -1.265,-5.506 -3.996,-7.365c-2.015,-1.372 -4.537,0.912 -5.469,2.485c-1.632,2.754 -1.49,5.199 -1.18,8.292c3.466,-1.533 6.933,-3.066 10.399,-4.6c-9.131,-21.85 -14.047,-44.688 -16.841,-68.144c-1.387,-11.643 -2.146,-23.354 -2.669,-35.064c-0.257,-5.759 -0.593,-11.487 -1.022,-17.237c-0.324,-4.335 -0.181,-9.669 -2.752,-13.356c-0.442,-0.637 -1.41,0.085 -1.638,0.537Z" style="fill:#010101;fill-rule:nonzero;"/><path d="M18.167,388.708c4.422,8.23 20.439,5.807 27.753,4.513c11.247,-1.989 21.854,-6.222 32.872,-9.065c4.823,-1.245 7.612,-9.92 0.826,-9.861c-3.188,0.028 -5.553,0.455 -8.143,2.304c-1.592,1.138 -3.393,3.365 -1.85,5.313c2.046,2.586 4.708,2.488 7.82,2.516c0.275,-3.287 0.551,-6.574 0.826,-9.861c-9.471,3.222 -18.898,6.686 -28.589,9.195c-5.005,1.297 -10.037,1.994 -15.193,2.266c-4.515,0.237 -9.047,-1.494 -13.447,-1.049c-1.436,0.144 -3.778,2.048 -2.875,3.729Z" style="fill:#010101;fill-rule:nonzero;"/><path d="M96.291,162.129c-4.475,8.073 -7.741,16.883 -12.117,25.063c-4.367,8.162 -8.145,16.256 -11.122,25.035c-3.103,9.146 -5.423,18.567 -7.63,27.963c-1.104,4.703 -2.198,9.408 -3.35,14.101c-0.967,3.938 -2.834,8.261 -2.875,12.321c-0.068,6.777 10.639,2.109 10.672,-3.421c0.012,-1.985 -0.467,-4.106 -2.516,-4.846c-1.848,-0.666 -3.664,-0.259 -5.147,1.071c-2.228,1.997 -3.026,4.25 -3.009,7.195c0.041,6.799 10.728,2.119 10.672,-3.421c-0.035,-3.446 2.056,-8.063 2.827,-11.485c1.056,-4.685 2.037,-9.387 3.046,-14.082c2.011,-9.354 4.059,-18.679 6.854,-27.837c2.764,-9.058 6.865,-17.445 10.777,-26.036c2.966,-6.51 7.01,-14.849 5.482,-22.145c-0.295,-1.408 -2.224,-0.091 -2.564,0.524Z" style="fill:#010101;fill-rule:nonzero;"/><path d="M64.338,263.458c-2.611,9.067 -2.97,18.417 -2.972,27.816c-0.002,9.867 0.336,19.758 1.529,29.558c2.371,19.468 7.921,38.475 7.31,58.237c3.47,-1.535 6.938,-3.069 10.409,-4.604c-1.236,-2.359 -2.809,-4.197 -4.541,-6.211c-3.083,-3.582 -8.4,1.87 -7.569,5.404c0.533,2.271 0.94,4.487 1.946,6.6c2.738,5.744 10.258,-0.126 10.409,-4.604c0.646,-19.006 -4.981,-37.489 -7.994,-56.091c-1.565,-9.662 -2.06,-19.512 -2.618,-29.274c-0.531,-9.281 -0.507,-18.722 -3.553,-27.589c-0.447,-1.308 -2.132,-0.017 -2.356,0.758Z" style="fill:#010101;fill-rule:nonzero;"/><path d="M308.649,157.435c1.001,4.344 3.345,8.256 5.218,12.277c2.119,4.55 4.15,9.136 6.018,13.795c3.771,9.408 6.716,19.208 9.39,28.977c2.729,9.97 4.935,20.083 6.941,30.22c1.794,9.063 3.958,18.313 5.079,27.481c3.41,-1.508 6.819,-3.017 10.229,-4.524c-0.119,-0.575 -0.267,-1.133 -0.427,-1.698c-0.286,-1.015 -1.487,-1.929 -2.521,-2.023c-0.348,-0.012 -0.666,-0.125 -0.953,-0.337c-2.345,-1.123 -5.33,1.321 -5.242,3.77c-0.074,-2.063 -0.817,1.245 -0.913,1.693c-0.214,1 -0.1,2.1 -0.173,3.12c-0.444,6.213 9.67,2.463 10.364,-2.094c0.57,-3.741 -1.204,-8.366 -1.967,-12.038c-1.11,-5.345 -2.247,-10.685 -3.436,-16.013c-2.311,-10.358 -4.911,-20.646 -7.942,-30.816c-3.048,-10.227 -6.754,-20.15 -11.106,-29.891c-3.684,-8.242 -8.059,-19.033 -15.365,-24.701c-1.556,-1.208 -3.517,1.398 -3.194,2.802Z" style="fill:#010101;fill-rule:nonzero;"/><path d="M321.592,82.189c23.689,8.538 33.857,38.941 41.095,60.619c13.107,39.256 21.93,79.793 33.28,119.562c3.132,-2.236 6.265,-4.472 9.396,-6.708c-2.063,-2.449 -3.95,-3.239 -7.121,-3.09c-2.061,0.098 -4.345,2.27 -4.156,4.417c0.227,2.587 1.128,4.201 2.486,6.388c2.96,4.764 10.74,-2.401 9.396,-6.708c-12.491,-40.029 -21.362,-81.123 -35.082,-120.783c-4.543,-13.134 -10.104,-25.936 -17.695,-37.616c-6.647,-10.229 -16.505,-20.547 -29.628,-20.248c-1.533,0.034 -4.261,3.341 -1.971,4.167Z" style="fill:#010101;fill-rule:nonzero;"/><path d="M343.071,267.479c-2.33,8.659 -2.297,18.017 -2.87,26.928c-0.662,10.301 -1.592,20.581 -2.5,30.862c-1.612,18.259 -4.231,36.492 -5.429,54.778c3.507,-1.124 7.015,-2.249 10.521,-3.373c-0.212,-2.204 -0.573,-3.475 -2.107,-5.081c-1.66,-1.737 -4.843,-0.581 -5.976,1.242c-1.247,2.006 -2.113,3.548 -2.331,5.943c-0.664,7.295 9.681,4.797 10.307,-0.836c2.007,-18.044 2.821,-36.344 3.884,-54.465c0.578,-9.869 0.914,-19.749 1.118,-29.632c0.185,-8.917 0.952,-18.687 -1.732,-27.296c-0.501,-1.607 -2.632,-0.009 -2.885,0.93Z" style="fill:#010101;fill-rule:nonzero;"/><path d="M334.841,380.845c6.24,8.674 20.736,11.801 30.553,13.583c5.461,0.991 11.437,1.692 16.9,0.378c4.666,-1.122 10.093,-5.048 8.574,-10.486c-1.112,-3.985 -6.325,-1.073 -7.89,0.639c0.884,-0.967 -1.729,0.809 0.038,0.104c-1.419,0.566 -3.021,0.566 -4.525,0.621c-4.737,0.176 -9.522,-0.77 -14.153,-1.645c-9.063,-1.715 -18.007,-4.197 -26.902,-6.594c-1.69,-0.455 -3.666,1.911 -2.595,3.4Z" style="fill:#010101;fill-rule:nonzero;"/><path d="M401.417,261.945c-1.505,2.81 -1.502,6.52 -1.966,9.669c-0.787,5.334 -1.251,10.742 -1.768,16.108c-1.29,13.399 -3.037,26.773 -5.009,40.089c-1.846,12.464 -3.998,24.996 -7.478,37.121c-1.086,3.781 -2.389,7.532 -4.313,10.976c0.588,-1.053 -0.564,0.764 -0.772,1.028c-0.439,0.512 -0.344,0.415 0.287,-0.288c-0.341,0.344 -1.316,0.927 0.218,-0.077c-3.696,2.419 1.114,-1.091 -2.235,1.55c-1.393,1.099 -1.642,1.521 -0.758,0.774c-1.395,1.179 -1.974,2.809 -1.59,4.562c1.143,5.205 8.234,1.769 10.402,-0.494c3.061,-3.194 4.924,-7.13 6.402,-11.258c4.402,-12.288 6.376,-25.43 8.146,-38.311c2.026,-14.743 3.249,-29.559 4.032,-44.416c0.304,-5.743 0.381,-11.441 0.22,-17.191c-0.083,-2.937 0.048,-8.22 -2.069,-10.416c-0.568,-0.589 -1.45,0.013 -1.749,0.574Z" style="fill:#010101;fill-rule:nonzero;"/><path d="M71.969,497.062c-2.45,5.573 2.485,10.194 6.538,13.368c6.907,5.409 15.191,8.784 23.27,12.021c19.153,7.673 38.636,12.412 59.147,14.904c29.761,3.616 59.341,1.924 89.007,-1.508c25.205,-2.914 51.545,-7.615 73.124,-21.772c2.96,-1.942 5.782,-4.104 8.487,-6.386c5.703,-4.811 -0.113,-11.287 -5.84,-6.656c-0.647,0.524 -1.699,1.018 -2.387,1.478c-3.889,2.602 -4.719,10.046 1.711,8.247c2.498,-0.699 4.453,-1.4 6.516,-3.068c-1.946,-2.219 -3.894,-4.438 -5.84,-6.656c-18.686,15.752 -44.037,20.693 -67.609,23.802c-28.335,3.737 -56.533,5.481 -85.072,3.147c-20.484,-1.676 -40.299,-5.619 -59.772,-12.043c-8.388,-2.768 -16.563,-5.955 -24.638,-9.529c-4.249,-1.882 -11.932,-4.947 -13.338,-10.02c-0.47,-1.695 -2.883,-0.285 -3.304,0.671Z" style="fill:#010101;fill-rule:nonzero;"/><path d="M175.125,155.222c3.776,-5.669 7.221,-10.416 12.944,-14.356c6.919,-4.764 14.61,-8.393 22.334,-11.632c13.409,-5.625 27.735,-10.054 42.035,-12.768c-0.176,-3.112 -0.35,-6.226 -0.525,-9.339c-2.479,1.207 -4.881,2.615 -6.875,4.53c-1.381,1.325 -1.888,3.549 0.271,4.298c2.878,1 5.568,1.218 8.484,0.238c5.713,-1.92 7.149,-11.329 -0.523,-9.666c-16.055,3.479 -31.958,9.054 -46.707,16.275c-8.208,4.02 -16.118,8.681 -23.051,14.677c-4.778,4.132 -11.453,10.324 -12.06,17.049c-0.209,2.339 2.604,2.3 3.673,0.694Z" style="fill:#010101;fill-rule:nonzero;"/><path d="M187.957,195.854c-6.041,2.801 -9.522,10.623 -5.85,16.469c2.713,4.317 8.69,4.375 12.702,2.267c4.043,-2.125 6.722,-6.637 6.832,-11.143c0.131,-5.299 -5.793,-9.389 -10.683,-7.602c-2.039,0.746 -5.409,4.212 -3.099,6.462c1.101,1.071 2.741,1.491 3.832,1.942c1.194,0.495 1.235,0.669 1.549,1.463c0.169,0.429 0.126,0.809 -0.034,1.489c0.194,-0.825 -0.223,0.487 -0.326,0.689c0.521,-1.028 -1.125,1.158 -0.202,0.252c-0.183,0.172 -0.374,0.334 -0.572,0.487c0.438,-0.311 0.439,-0.33 0.005,-0.059c-0.305,0.178 -0.305,0.131 -0.167,0.105c-1.101,0.208 -1.733,0.038 -2.805,-0.519c-4.524,-2.351 -1.339,-7.283 0.813,-10.03c1.307,-1.668 -0.294,-3.06 -1.995,-2.272Z" style="fill:#010101;fill-rule:nonzero;"/><path d="M236.871,196.786c-5.266,-0.108 -9.605,7.358 -10.247,11.841c-0.771,5.387 3.624,9.783 8.833,10.017c8.298,0.371 17.313,-10.567 12.633,-18.309c-2.948,-4.876 -11.609,-5.89 -15.143,-1.371c-2.731,3.492 1.07,5.645 4.137,6.096c0.952,0.14 1.702,0.408 2.541,0.872c0.609,0.336 0.67,0.326 0.965,1.068c0.132,0.331 0.096,0.5 0.044,0.816c-0.023,0.141 -0.409,1.264 -0.081,0.407c-0.143,0.374 -0.336,0.728 -0.526,1.08c0.237,-0.438 -0.753,0.809 -0.588,0.649c-0.11,0.105 -1.191,0.924 -0.3,0.308c-0.151,0.104 -1.592,0.838 -0.761,0.477c-0.997,0.433 -1.581,0.536 -2.997,-0.383c-2.582,-1.675 -2.083,-4.172 -0.873,-6.606c0.859,-1.728 2.159,-3.156 3.256,-4.722c0.689,-0.987 0.447,-2.213 -0.893,-2.24Z" style="fill:#010101;fill-rule:nonzero;"/><path d="M189.695,280.699c-0.013,-0.023 -0.026,-0.047 -0.039,-0.07c-0.338,-0.595 -0.84,-0.958 -1.563,-0.872c-5.742,0.683 -11.455,8.62 -7.338,13.805c1.82,2.291 5.506,3.065 8.274,3.075c2.901,0.011 5.47,-1.687 7.362,-3.726c2.827,-3.047 3.708,-8.562 1.568,-12.226c-1.354,-2.317 -3.138,-3.614 -5.66,-4.484c-1.226,-0.422 -2.624,-0.425 -3.896,-0.299c-0.813,0.082 -1.623,0.258 -2.378,0.568c-0.53,0.168 -1.042,0.381 -1.537,0.638c-0.267,0.175 -1.991,1.481 -1.155,0.891c-1.396,0.987 -2.708,2.334 -2.609,4.194c0.091,1.699 1.462,2.387 2.98,2.403c0.141,0.001 0.282,0.003 0.423,0.005c-0.597,-0.112 -1.194,-0.225 -1.791,-0.337c0.503,0.195 0.991,0.394 1.528,0.464c2.428,0.32 -0.651,0.078 1.865,0.022c0.39,-0.009 0.777,-0.036 1.168,-0.048c0.166,-0.005 1.363,0.105 0.322,0.015c0.332,0.028 0.658,0.104 0.981,0.179c1.013,0.235 -0.729,-0.329 0.185,0.085c0.27,0.122 0.52,0.283 0.768,0.443c0.542,0.35 -0.454,-0.47 0.287,0.31c0.193,0.203 0.359,0.432 0.523,0.659c0.558,0.77 -0.382,-0.735 0.069,0.099c0.132,0.244 0.234,0.503 0.336,0.761c0.386,0.975 0.036,-0.237 0.137,0.372c0.057,0.341 -0.002,2.002 0.112,0.879c-0.027,0.267 -0.086,0.528 -0.145,0.789c-0.158,0.7 0.395,-0.846 -0.1,0.204c-0.4,0.85 0.602,-0.859 0.046,-0.104c-0.565,0.771 0.827,-0.775 0.106,-0.136c0.933,-0.828 0.449,-0.306 0.083,-0.104c1.354,-0.747 -0.812,0.101 0.358,-0.119c-0.906,0.17 -2.947,0.146 -4.125,-0.816c-1.019,-0.832 -0.689,-1.736 0.027,-2.841c0.683,-1.045 3.658,-3.218 2.828,-4.678Z" style="fill:#010101;fill-rule:nonzero;"/><path d="M237.633,275.908c-4.658,-1.971 -9.458,1.656 -12.359,5.014c-3.168,3.666 -3.865,8.852 -1.72,13.162c3.104,6.232 9.743,5.297 14.413,1.351c3.838,-3.243 7.244,-9.223 6.646,-14.405c-0.339,-2.928 -2.058,-4.981 -4.86,-5.834c-1.327,-0.404 -2.834,-0.393 -4.193,-0.174c-1.467,0.235 -2.567,0.595 -3.918,1.211c-0.673,0.307 -1.242,0.779 -1.816,1.239c0.879,-0.704 -0.451,0.219 -0.541,0.273c-3.548,2.171 -3.78,7.94 1.419,6.838c1.446,-0.307 -2.22,0.378 1.028,0.061c0.503,-0.049 0.981,-0.11 1.478,-0.208c0.433,-0.086 0.873,-0.127 1.313,-0.168c1.271,-0.118 -0.469,-0.1 0.203,-0.023c0.391,0.045 1.32,0.449 0.057,-0.062c0.363,0.146 1.035,0.751 -0.011,-0.137c0.193,0.164 0.346,0.37 0.489,0.576c-0.768,-1.103 -0.223,-0.304 -0.096,0.146c-0.485,-1.718 -0.189,1.75 -0.016,-0.026c-0.052,0.527 -0.711,2.803 -0.197,1.313c-0.24,0.696 -0.554,1.365 -0.892,2.018c-0.636,1.225 0.447,-0.66 -0.029,0.089c-0.249,0.392 -0.524,0.765 -0.808,1.132c-0.22,0.285 -0.452,0.563 -0.688,0.834c1.156,-1.333 0.336,-0.368 0.021,-0.079c-0.314,0.288 -1.352,0.994 0.13,-0.029c-0.368,0.254 -1.64,0.783 -0.071,0.138c-0.368,0.151 -1.359,0.281 0.099,0.045c-1.04,0.168 0.688,0.123 0.028,0.047c-0.996,-0.116 0.509,0.273 -0.082,0.016c-0.137,-0.064 -0.271,-0.138 -0.399,-0.218c-0.714,-0.415 0.632,0.587 -0.022,-0.005c-0.279,-0.253 -0.516,-0.552 -0.745,-0.85c-0.541,-0.698 -0.106,-0.09 -0.384,-0.617c-0.627,-1.191 -1.184,-2.409 -0.948,-3.77c0.479,-2.763 4.123,-4.969 6.456,-5.934c0.83,-0.345 2.596,-2.294 1.015,-2.964Z" style="fill:#010101;fill-rule:nonzero;"/><path d="M189.434,374.544c-5.915,1.297 -10.637,7.541 -9.624,13.688c0.542,3.293 3.487,6.821 6.528,8.24c5.889,2.748 11.642,-2.257 13.75,-7.505c1.685,-4.192 2.657,-10.111 0.38,-14.287c-3.702,-6.789 -12.285,-3.219 -16.273,1.436c-1.524,1.779 -2.916,3.93 -2.295,6.356c0.176,0.687 1.063,1.382 1.765,1.416c1.383,0.067 2.249,-0.186 3.491,-0.74c0.264,-0.103 0.516,-0.23 0.755,-0.383c-0.638,0.363 2.722,-1.632 1.004,-0.694c0.508,-0.326 1.001,-0.672 1.479,-1.039c0.256,-0.202 1.343,-0.978 0.01,-0.045c0.428,-0.299 0.872,-0.578 1.324,-0.84c1.235,-0.717 -1.051,0.333 0.18,-0.081c1.169,-0.395 -1.125,0.088 0.009,0.024c-1.415,0.08 -0.604,-0.058 -0.095,0.084c-1.341,-0.373 -0.526,-0.176 -0.133,0.1c-1.145,-0.798 -0.387,-0.291 -0.102,0.066c0.638,0.798 -0.438,-0.902 0.028,0.054c0.15,0.308 0.262,0.634 0.366,0.96c0.043,0.137 0.081,0.275 0.117,0.416c0.217,0.809 -0.186,-1.027 -0.035,-0.183c0.141,0.79 0.179,1.598 0.18,2.399c0,0.326 -0.111,1.826 0.018,0.377c-0.038,0.426 -0.101,0.85 -0.169,1.271c-0.068,0.421 -0.161,0.837 -0.261,1.251c-0.085,0.357 -0.563,1.823 -0.035,0.287c-0.196,0.572 -1.418,2.845 -0.431,1.23c-0.188,0.309 -0.407,0.598 -0.634,0.879c-0.788,0.974 1.02,-0.936 0.098,-0.135c-0.439,0.383 1.348,-0.772 0.15,-0.173c0.885,-0.366 1.097,-0.47 0.638,-0.311c-0.744,0.248 1.198,-0.18 0.41,-0.086c-1.032,0.123 0.95,0.172 -0.122,-0.021c-1.012,-0.184 0.651,0.342 -0.358,-0.128c-0.414,-0.192 -0.797,-0.446 -1.171,-0.706c-0.33,-0.247 -0.322,-0.238 0.025,0.028c-0.266,-0.22 -0.514,-0.46 -0.765,-0.697c-1.221,-1.154 -2.265,-2.356 -2.395,-4.106c-0.143,-1.912 2.112,-4.169 3.382,-5.344c1.427,-1.314 1.011,-3.539 -1.189,-3.058Z" style="fill:#010101;fill-rule:nonzero;"/><path d="M231.14,372.101c-1.967,3.496 -3.732,6.221 -4.206,10.362c-0.471,4.114 0.573,7.669 4.201,9.894c5.902,3.62 12.46,-0.133 15.541,-5.467c2.401,-4.158 2.373,-10.646 -1.198,-14.146c-5.561,-5.45 -16.453,-1.875 -19.39,4.589c-0.694,1.528 -0.353,3.59 1.571,3.918c2.735,0.467 4.73,-0.379 7.289,-1.158c1.148,-0.35 1.407,-0.319 2.475,0.312c0.402,0.28 0.375,0.254 -0.082,-0.078c0.249,0.222 0.455,0.485 0.66,0.747c0.669,0.853 -0.375,-0.783 0.101,0.202c0.148,0.308 0.251,0.634 0.354,0.958c0.343,1.077 -0.108,-0.866 0.049,0.268c0.049,0.35 0.056,0.704 0.063,1.057c0.024,1.177 0.146,-0.924 -0.006,0.247c-0.046,0.353 -0.13,0.697 -0.216,1.041c-0.151,0.513 -0.127,0.451 0.073,-0.183c-0.122,0.324 -0.282,0.631 -0.443,0.937c0.634,-1.202 0.147,-0.296 -0.073,-0.018c0.912,-1.146 0.351,-0.366 0.025,-0.088c1.329,-1.137 -0.526,0.093 0.859,-0.491c-0.244,0.103 -1.255,0.241 -0.213,0.095c-1.098,0.154 0.711,0.148 -0.477,0.021c-0.436,-0.047 -0.86,-0.168 -1.281,-0.285c-2.152,-0.6 -2.693,-2.352 -2.967,-4.469c-0.26,-2.008 -0.664,-5.834 0.076,-7.744c0.848,-2.19 -1.95,-2.005 -2.785,-0.521Z" style="fill:#010101;fill-rule:nonzero;"/><path d="M77.669,506.119c8.185,8.021 23.283,7.51 33.896,7.032c7.681,-0.347 15.372,-4.242 22.262,-7.296c7.846,-3.479 15.955,-7.239 22.979,-12.22c2.799,-1.984 6.402,-4.578 6.197,-8.452c-0.181,-3.395 -3.168,-4.012 -5.645,-3.033c-2.052,0.811 -3.854,2.793 -3.193,5.13c-0.221,-0.78 -0.09,-0.353 -0.091,-0.05c0.35,-1.018 0.699,-2.035 1.049,-3.052c0.979,-1.317 -1.462,1.315 -1.704,1.536c-1.857,1.697 -4.02,3.05 -6.133,4.397c-6.318,4.029 -13.02,7.465 -19.808,10.627c-5.504,2.563 -10.813,4.686 -16.859,5.339c-10.612,1.146 -21.202,0.498 -31.626,-1.695c-0.749,-0.157 -2.052,1.023 -1.324,1.737Z" style="fill:#010101;fill-rule:nonzero;"/><path d="M160.642,479.967c-0.137,13.458 10.408,22.714 21.556,28.676c14.688,7.856 31.566,11.399 47.951,13.487c16.999,2.167 34.358,2.507 51.427,0.998c12.506,-1.106 27.68,-2.704 38.539,-9.633c5.471,-3.49 3.777,-11.57 -3.164,-8.27c-8.541,4.061 -21.959,6.684 -33.201,7.757c-15.893,1.519 -31.981,1.183 -47.832,-0.645c-25.188,-2.903 -58.067,-9.81 -71.581,-34.006c-1.068,-1.911 -3.678,-0.058 -3.695,1.636Z" style="fill:#010101;fill-rule:nonzero;"/><path d="M61.664,86.769c5.435,-1.943 10.244,-5.704 15.677,-7.859c5.166,-2.051 12.781,-2.759 15.63,-8.095c0.396,-0.743 0.425,-1.797 -0.156,-2.456c-3.613,-4.1 -13.512,1.544 -17.386,3.229c-5.753,2.501 -13.73,6.105 -16.267,12.331c-0.726,1.78 0.486,3.571 2.502,2.85Z" style="fill:#010101;fill-rule:nonzero;"/><path d="M280.119,66.227c4.773,2.738 10.354,3.937 15.46,5.915c5.175,2.005 10.421,3.79 15.546,5.93c5.224,2.18 10.346,4.748 15.307,7.469c4.595,2.521 9.115,6.647 14.506,6.601c2.129,-0.019 3.826,-2.382 3.355,-4.353c-1.156,-4.84 -7.858,-7.855 -11.924,-10.086c-5.063,-2.777 -10.345,-4.916 -15.774,-6.852c-5.067,-1.806 -10.228,-3.438 -15.448,-4.741c-6.052,-1.511 -12.423,-3.399 -18.658,-3.774c-1.681,-0.102 -4.644,2.587 -2.37,3.891Z" style="fill:#010101;fill-rule:nonzero;"/><path d="M23.227,246.009c3.417,0.33 7.239,1.906 10.671,2.641c5.015,1.071 9.945,2.686 14.586,4.869c2.584,1.215 6.747,3.059 7.385,6.214c0.326,1.613 1.376,3.023 3.195,2.876c0.308,-0.025 2.855,-0.812 0.765,-0.154c1.009,-0.316 1.982,-1.063 2.611,-1.893c5.611,-7.401 -8.133,-13.043 -12.956,-14.577c-8.614,-2.74 -17.321,-3.389 -25.984,-1.245c-0.471,0.116 -1.049,1.195 -0.273,1.269Z" style="fill:#010101;fill-rule:nonzero;"/><path d="M27.381,263.068c6.861,-1.139 14.616,0.083 21.065,2.577c3.451,1.334 6.596,3.222 9.103,5.963c2.138,2.339 2.324,6.618 5.808,7.248c1.192,0.216 2.453,-0.49 3.146,-1.43c5.614,-7.601 -6.535,-14.878 -12.408,-16.851c-8.547,-2.87 -18.196,-1.432 -26.599,1.116c-0.627,0.191 -1.063,1.534 -0.115,1.377Z" style="fill:#010101;fill-rule:nonzero;"/><path d="M374.709,245.537c-8.622,1.176 -16.685,2.386 -22.359,9.645c-1.265,1.618 -0.772,4.083 1.584,3.975c10.425,-0.48 21.843,-3.763 31.339,2.188c-0.383,-0.63 -0.766,-1.261 -1.148,-1.891c-0.001,0.336 -0.009,0.671 -0.022,1.007c1.379,-1.465 2.758,-2.931 4.138,-4.396c-12.738,2.087 -30.998,4.063 -35.464,18.602c-0.599,1.949 1.104,3.531 2.967,3.381c2.286,-0.186 3.856,-1.95 4.547,-3.99c3.068,-9.067 19.659,-9.814 27.412,-11.574c1.78,-0.404 3.319,-2.417 3.262,-4.221c-0.177,-5.507 -10.188,-6.308 -14.293,-6.567c-7.157,-0.452 -14.493,0.711 -21.539,1.872c0.669,1.094 1.337,2.188 2.006,3.28c3.083,-6.048 11.702,-7.339 17.438,-9.705c0.64,-0.267 1.307,-1.767 0.132,-1.606Z" style="fill:#010101;fill-rule:nonzero;"/><path d="M21.578,386.189c3.348,-0.772 6.936,-3.325 10.183,-4.609c5.66,-2.238 11.585,-3.868 17.512,-5.224c5.254,-1.202 10.684,-2.083 16.079,-2.224c1.644,-0.044 3.559,-0.013 5.077,0.686c0.934,0.43 1.04,1.872 2.578,2.412c1.946,0.682 4.136,-0.009 5.331,-1.771c-2.009,1.664 -2.264,1.938 -0.767,0.822c0.599,-0.526 1.206,-1.35 1.545,-2.07c0.771,-1.641 0.597,-3.093 -0.386,-4.574c-1.132,-1.706 -3.386,-2.361 -5.255,-2.792c-6.224,-1.435 -13.426,0.381 -19.447,1.895c-7.384,1.856 -14.551,4.535 -21.466,7.704c-3.09,1.417 -11.484,4.835 -11.922,8.99c-0.064,0.618 0.36,0.888 0.938,0.755Z" style="fill:#010101;fill-rule:nonzero;"/><path d="M337.788,371.941c8.712,0.479 16.467,1.051 24.763,4.186c8.411,3.179 16.85,8.178 22.319,15.449c-0.083,-1.314 -0.167,-2.63 -0.25,-3.944c2.2,-1.164 2.648,-1.562 1.345,-1.192c-0.458,0.166 -0.894,0.378 -1.307,0.634c-1.012,0.578 -2.201,1.927 -1.997,3.209c0.177,1.107 0.385,1.964 1.097,2.864c1.157,1.463 3.484,1.059 4.875,0.261c1.903,-1.093 2.816,-2.404 3.813,-4.316c0.646,-1.239 0.657,-2.835 -0.25,-3.944c-6.362,-7.785 -15.957,-12.912 -25.343,-16.09c-8.568,-2.9 -20.682,-5.495 -28.827,-0.021c-0.734,0.492 -2.058,2.804 -0.238,2.904Z" style="fill:#010101;fill-rule:nonzero;"/><path d="M15.324,366.337c3.164,-0.442 6.518,-2.547 9.491,-3.697c5.382,-2.083 10.799,-4.05 16.332,-5.695c8.724,-2.594 16.981,-4.348 25.825,-2.273c2.413,0.565 5.173,-2.05 5.045,-4.428c-0.537,-10.004 -23.199,-2.197 -27.946,-0.697c-6.322,1.997 -12.54,4.397 -18.485,7.334c-3.323,1.642 -9.629,4.433 -10.962,8.311c-0.184,0.532 -0.031,1.247 0.7,1.145Z" style="fill:#010101;fill-rule:nonzero;"/><path d="M341.441,345.801c3.187,1.365 6.865,1.367 10.262,1.928c4.092,0.676 8.048,1.55 12.055,2.625c8.936,2.396 17.352,6.915 24.15,13.188c1.506,-2.445 3.01,-4.891 4.516,-7.336c-3.025,0.09 -5.133,0.487 -7.723,1.979c-1.109,0.639 -2.88,2.956 -1.458,4.187c2.308,1.996 4.391,2.055 7.399,2.146c2.725,0.082 7.375,-4.853 4.516,-7.336c-7.316,-6.356 -15.604,-10.634 -24.85,-13.462c-8.098,-2.477 -19.803,-4.327 -27.856,-0.854c-0.818,0.35 -2.584,2.26 -1.011,2.935Z" style="fill:#010101;fill-rule:nonzero;"/><path d="M161.164,50.666c7.14,-14.261 28.555,-15.981 42.766,-16.367c8.112,-0.221 16.845,0.077 24.305,3.502c2.64,1.211 5.227,2.54 7.781,3.923c0.937,0.507 1.799,1.104 2.665,1.722c1.311,0.934 1.649,1.726 0.924,0.09c0.268,-1.25 0.535,-2.5 0.804,-3.75c1.609,-1.212 1.976,-1.579 1.101,-1.103c-1.904,0.961 -2.931,3.298 -1.794,5.152c0.275,0.449 0.547,0.713 1.038,1.009c1.429,0.861 3.704,0.123 4.78,-0.994c0.02,-0.021 0.04,-0.041 0.061,-0.063c1.13,-1.174 2.381,-2.945 1.631,-4.68c-0.915,-2.115 -3.22,-3.027 -5.172,-3.914c-3.204,-1.455 -6.303,-3.117 -9.545,-4.504c-9.379,-4.016 -20.591,-3.683 -30.588,-2.91c-9.313,0.721 -19.183,2.969 -27.795,6.617c-6.655,2.819 -15.671,8.013 -16.376,16.109c-0.208,2.378 2.65,1.686 3.414,0.161Z" style="fill:#010101;fill-rule:nonzero;"/><path d="M115.581,266.624c-3.4,8.966 -3.247,19.231 -5.566,28.571c-2.537,10.215 -6.636,19.983 -10.727,29.652c-8.535,20.172 -15.956,40.187 -20.454,61.688c-4.415,21.101 -6.477,42.638 -7.944,64.118c-0.744,10.888 -1.177,21.785 -1.771,32.679c-0.289,5.288 -0.403,10.688 -1.095,15.938c-0.646,4.91 1.029,9.492 6.825,9.195c5.561,-0.286 10.596,-6.293 9.065,-11.763c-0.165,-0.592 -0.497,-1.089 -0.724,-1.665c0.063,1.127 0.125,2.253 0.188,3.379c0.023,-0.205 0.048,-0.411 0.071,-0.617c0.944,-8.253 -8.451,-6.931 -12.216,-2.303c-1.952,2.4 -2.463,4.973 -2.592,7.962c3.142,-3.34 6.284,-6.679 9.426,-10.019c-0.076,0.012 -0.152,0.023 -0.229,0.035c1.645,0.586 3.29,1.172 4.936,1.759c-0.24,-0.199 -0.479,-0.399 -0.719,-0.599c0.419,1.077 0.838,2.153 1.258,3.23c-1.095,-19.513 0.631,-39.609 2.09,-59.084c1.57,-20.97 4.291,-41.89 9.103,-62.375c4.706,-20.033 12.946,-38.408 20.562,-57.42c3.68,-9.186 6.939,-18.576 9.123,-28.235c1.842,-8.151 3.912,-19.237 -0.959,-26.638c-1.898,-2.88 -6.805,0.282 -7.651,2.512Z" style="fill:#010101;fill-rule:nonzero;"/></g></svg>