<?xml version="1.0" encoding="utf-8"?>
<!-- Generator: Adobe Illustrator 17.0.0, SVG Export Plug-In . SVG Version: 6.00 Build 0)  -->
<!DOCTYPE svg PUBLIC "-//W3C//DTD SVG 1.0//EN" "http://www.w3.org/TR/2001/REC-SVG-20010904/DTD/svg10.dtd">
<svg version="1.0" id="Layer_1" xmlns="http://www.w3.org/2000/svg" xmlns:xlink="http://www.w3.org/1999/xlink" x="0px" y="0px"
	 width="566.93px" height="566.93px" viewBox="0 0 566.93 566.93" enable-background="new 0 0 566.93 566.93" xml:space="preserve">
<path fill="#010101" d="M87.302,161.123C87.573,160.927,87.74,160.804,87.302,161.123L87.302,161.123z"/>
<path fill="#010101" d="M148.655,119.395c-13.032,8.813-26.034,17.682-38.965,26.644c-4.938,3.422-9.891,6.827-14.905,10.136
	c-1.913,1.264-3.899,2.431-5.786,3.73c-0.797,0.55-1.572,1.127-2.355,1.697c0.302-0.22,0.511-0.372,0.657-0.479
	c-0.171,0.123-0.38,0.274-0.504,0.36c-1.066,0.742-1.877,1.415-2.793,2.273c-2.786,2.615-4.081,10.035,1.959,9.102
	c0.132-0.021,0.264-0.055,0.396-0.078c0.024,0.661,0.39,1.239,1.284,1.478c7.124,1.906,14.747,2.42,22.361,2.5
	c-0.115,2.775,0.514,5.725,0.778,8.308c0.274,2.701,0.424,5.411,0.593,8.119c0.085,1.354,0.921,4.277,0.35,5.498
	c0.034-0.037,0.069-0.073,0.104-0.11c-0.836,1.586-1.325,3.33-1.307,4.897c-0.03,0.017-0.063,0.029-0.093,0.046
	c-0.677,0.374-1.809,1.868-0.907,2.604c3.13,2.552,8.01,2.976,12.744,3.011c-1.21,7.781-0.572,16.233-0.701,23.939
	c-0.173,10.274-0.34,20.549-0.48,30.823c-0.283,20.634-0.479,41.249-0.047,61.882c0.43,20.474,1.217,40.939,2.503,61.377
	c0.637,10.112,1.435,20.214,2.367,30.302c0.464,5.007,0.983,10.009,1.53,15.007c0.303,2.769-0.603,5.169,0.276,7.984
	c-18.4,1.908-36.927,5.274-54.705,10.272c-12.569,3.535-29.494,9.262-36.978,21.187c-3.797,0.241-7.555,0.685-11.227,1.492
	c-0.349,0.077-0.691,0.217-1.026,0.382c-1.706,0.363-3.703,2.203-4.013,3.498c-1.99,8.346-1.662,17.643-1.529,26.181
	c0.132,8.513,0.75,17.08,0.527,25.598c-0.259,0.52-0.473,1.066-0.598,1.65c-0.333,1.558,0.117,3.062,1.076,4.072
	c1.253,1.816,4.241,1.855,6.966,0.741c8.884-1.195,17.7-2.349,26.696-2.672c10.924-0.392,21.866-0.105,32.785,0.298
	c22.03,0.813,43.896,1.026,65.939,0.881c22.6-0.15,45.21,0.103,67.796-0.884c24.035-1.051,47.947-4.565,72.02-4.67
	c1.307-0.005,2.549-0.373,3.676-0.988c0.661,0.586,1.524,0.981,2.621,1.074c17.701,1.493,13.568-24.205,12.963-34.738
	c-0.938-16.303-2.953-32.525-4.016-48.819c-0.693-10.617-0.348-21.312-0.393-31.944c-0.068-16.354-0.18-32.707-0.309-49.061
	c-0.065-8.301-0.13-16.602-0.196-24.903c5.007,4.323,10.234,8.414,14.801,13.266c6.361,6.761,11.777,14.553,16.436,22.565
	c1.775,3.053,3.449,6.159,5.05,9.303c-0.113,0.34-0.133,0.698-0.016,1.045c1.39,4.122,2.201,8.373,3.082,12.598
	c-0.994,7.533-0.497,15.008,0.038,22.713c0.697,10.01,1.471,20.035,1.863,30.063c0.711,18.109,0.52,38.435-10.203,53.943
	c-2.682,3.881-1.898,9.1,3.604,9.045c5.344-0.052,10.641-0.838,15.982-0.915c4.006-0.058,7.02-3.56,7.867-7.205
	c0.224-0.315,0.409-0.632,0.547-0.94c1.643-3.671,0.4-8.562,0.113-12.404c-0.48-6.436-0.719-12.854-0.857-19.306
	c-0.209-9.633-0.182-19.288-0.887-28.901c-0.359-4.885-0.927-9.756-1.384-14.634c7.471,17.261,16.169,34.265,28.46,48.626
	c14.463,16.898,33.303,27.016,54.637,32.555c26.842,6.97,56.51,7.591,83.355,0.384c1.532-0.411,3.088-1.533,4.262-2.96
	c1.459,3.413,6.794,1.703,8.928-1.481c0.207,0.426,0.434,0.884,0.59,1.298c0.158,0.7,0.311,1.4,0.477,2.098
	c1.646,6.925,13.838,0.169,12.848-5.684c-0.091-0.539-0.204-1.01-0.329-1.455c0.009-0.004,0.018-0.008,0.027-0.012
	c-4.547-18.306-6.084-37.221-7.947-55.962c-1.934-19.435-3.473-38.919-4.48-58.424c-1.006-19.489-1.314-38.993-2.027-58.492
	c-0.354-9.645-0.758-19.254-0.818-28.908c-0.022-3.6,0.138-7.412,0.162-11.241c1.072-5.926,2.001-11.884,3.061-17.81
	c2.025-5.035,4.487-9.884,7.412-14.473c0.199-0.041,0.397-0.083,0.596-0.123c4.404-0.892,7.175-6.683,5.359-9.879
	c1.629-2.1,2.548-4.697,1.952-6.836c-0.652-2.338-1.318-4.672-1.992-7.004c-0.956-3.307-3.841-3.657-6.694-2.511
	c-0.775-0.781-1.99-1.273-3.745-1.28c-0.029,0-0.055-0.004-0.085-0.004c-0.626-0.004-1.237,0.015-1.843,0.047
	c-7.408,0.219-14.886,1.428-22.259,2.064c-8.813,0.761-17.633,1.428-26.455,2.043c-18.07,1.262-36.16,2.224-54.258,3.008
	c-17.932,0.777-35.875,1.339-53.818,1.785c-16.895,0.422-34.061-0.061-50.883,1.629c-0.643,0.065-1.33,0.39-1.981,0.865
	c-2.175,0.654-4.54,2.738-4.755,4.425c-0.621,4.87,0.096,8.647,1.963,13.103c-1.178,1.841-1.465,4.026,0.476,4.534
	c0.015,0.577,0.236,1.151,0.758,1.678c1.591,1.609,3.312,3.151,5.024,4.71c0.114,1.828,0.327,3.667,0.48,5.515
	c0.471,5.703,1.01,11.396,1.523,17.096c0.604,6.69,1.004,13.705,1.923,20.536c-8.263-5.129-17.012-9.296-25.982-12.125
	c-3.425-1.08-6.754-1.631-10.251-1.988c-0.074-10.685-0.153-21.369-0.207-32.054c-0.053-10.366-0.164-20.724-0.391-31.089
	c-0.19-8.636,0.236-17.758-0.981-26.403c3.832-0.189,7.647-0.47,11.373-1.011c3.535-0.512,6.834-3.004,7.754-6.559
	c2.79-1.657,4.923-4.492,4.465-7.878c-0.51-3.778-0.977-7.529-1.213-11.336c-0.088-1.428-0.067-3.186-0.135-4.999
	c1.866,0.088,3.732,0.164,5.599,0.225c4.936,0.161,10.879,1.137,15.467-3.126c0.347-0.322,0.656-0.678,0.944-1.046
	c3.733-1.652,9.057-6.591,6.672-11.161c-1.795-3.445-3.803-4.146-7.324-4.573c-2.098-0.254-4.529-1.8-6.424-2.688
	c-5.631-2.638-10.98-6.001-16.139-9.459c-11.871-7.955-23.1-16.85-34.564-25.365c-11.701-8.691-24.168-16.201-36.607-23.77
	c-6.314-3.844-12.578-7.767-18.613-12.039c-2.033-1.44-4.318-3.406-6.758-5.087c-0.593-0.845-1.364-1.58-2.344-2.15
	c-1.218-0.71-2.579-0.993-3.972-0.964c-1.16-0.287-2.335-0.392-3.518-0.237c-1.146,0.149-2.143,0.969-2.453,2.092
	c-1.227,0.73-2.331,1.623-3.221,2.592c-1.013,0.438-2.314,1.004-2.323,1.008c-2.15,0.968-4.26,2.039-6.369,3.092
	c-5.43,2.708-10.674,5.794-15.867,8.925C174.84,101.761,161.721,110.559,148.655,119.395z M246.124,115.837
	c0.245,0.022,0.497,0.04,0.76,0.047c3.064,0.081,5.871-1.131,8.069-3.093c3.446,2.217,6.874,4.453,10.269,6.739
	c-0.559,0.023-1.118,0.048-1.675,0.068c-13.564,0.475-27.115,1.252-40.668,1.943c-15.068,0.771-30.131,1.629-45.208,2.201
	c-4.96,0.189-9.958,0.212-14.949,0.334c5.438-3.615,10.899-7.195,16.405-10.704c3.177-0.09,6.393-0.383,9.276-0.241
	c7.066,0.347,14.09,1.042,21.125,1.803C221.837,116.266,233.832,116.873,246.124,115.837z M286.211,135.097
	c-2.558,0.068-5.114,0.164-7.668,0.29c1.586-0.624,3.126-1.646,4.382-2.91C284.021,133.348,285.118,134.221,286.211,135.097z
	 M148.698,133.485c6.636,2.575,15.512,2.096,21.802,2.282c14.653,0.432,29.347,0.25,44-0.084
	c13.717-0.311,27.434-0.693,41.154-0.791c2.475-0.018,4.949,0.01,7.422,0.048c0.954,0.015,1.906,0.038,2.859,0.063
	c-1.203-0.018,1.581,0.178,2.075,0.234c1.322,0.149,2.643,0.402,3.97,0.525c-23.887,1.571-47.674,5.104-71.554,6.657
	c-15.003,0.977-30.041,1.211-45.055,2.187c-8.286,0.538-16.576,0.965-24.866,1.291C136.566,141.755,142.62,137.601,148.698,133.485z
	 M277.436,350.69c-0.062,1.736-0.129,3.473-0.195,5.209c-20.244,0.084-40.222,1.87-60.306,4.392
	c-11.434,1.437-22.824,3.104-34.296,4.216c-9.8,0.949-20.288,0.5-30.026,2.331c-0.301-3.342-0.599-6.683-0.912-10.023
	c14.086,0.462,28.371-0.421,42.481-0.48c14.508-0.063,28.859-1.671,43.256-3.304c8.619-0.977,16.959-1.433,25.6-1.39
	C267.934,351.666,273.172,352.751,277.436,350.69z M154.233,385.996c-0.29-3.692-0.579-7.383-0.895-11.073
	c8.125,1.51,17.437,0.511,25.188,0.058c11.393-0.667,22.745-1.94,34.088-3.165c11.383-1.229,22.732-2.62,34.16-3.4
	c5.686-0.389,11.383-0.579,17.08-0.617c1.935-0.013,3.859,0.065,5.784,0.188c1.663,0.497,3.221,0.385,5.231,0.408
	c0.374,0.016,0.867,0.032,1.17,0.032c0.008,0,0.015-0.001,0.023-0.001c0.236,0.01,0.468,0.003,0.698-0.016
	c-0.13,3.322-0.261,6.645-0.389,9.967c-3.448-0.046-7.044,0.437-10.376,0.473c-5.258,0.059-10.518,0.161-15.775,0.281
	c-11.182,0.255-22.363,0.634-33.533,1.207c-10.537,0.541-21.07,1.2-31.595,1.926C175.313,382.938,163.715,382.703,154.233,385.996z
	 M275.337,308.73c0.823,0.226,1.666,0.366,2.5,0.408c0.164,0.008,0.323-0.008,0.486-0.008c-0.008,3.308-0.032,6.616-0.076,9.924
	c-0.028,0.005-0.056,0.009-0.084,0.014c-20.736,1.694-41.498,2.909-62.285,3.761c-22.294,0.913-44.983,0.227-67.195,2.336
	c-0.441-4.648-0.874-9.297-1.292-13.946c8.78,0.676,17.922-0.045,26.558-0.352c11.406-0.407,22.804-0.976,34.207-1.484
	c11.367-0.506,22.725-1.048,34.104-1.255C252.984,307.933,264.606,307.159,275.337,308.73z M211.684,333.42
	c22.121-0.342,44.247-1.059,66.344-2.188c-0.065,2.718-0.143,5.436-0.224,8.153c-4.065-0.754-9.82,0.158-12.176,0.17
	c-8.666,0.043-17.02,0.601-25.654,1.647c-14.445,1.751-28.838,3.425-43.393,3.938c-15.042,0.531-30.975-0.599-45.481,3.973
	c-0.042,0.013-0.082,0.036-0.124,0.051c-0.509-5.33-1.019-10.659-1.532-15.986C169.997,334.88,191.146,333.738,211.684,333.42z
	 M157.264,436.267c0.418-1.752,0.027-3.508-0.23-5.27c-0.479-3.284-0.59-6.56-0.734-9.876c-0.388-8.924-0.826-17.833-1.437-26.742
	c3.361,0.339,6.932,0.071,10.137,0.016c5.239-0.092,10.457-0.384,15.688-0.663c10.487-0.561,20.981-1.021,31.475-1.4
	c10.502-0.38,21.004-0.723,31.508-0.952c5.254-0.115,10.506-0.19,15.76-0.245c5.238-0.055,11.113,0.895,16.26,0.11
	c0.067,0,0.134-0.009,0.201-0.012c-0.527,14.334-0.996,28.668-1.279,43.018c-0.143,7.323-0.479,14.641-0.477,21.967
	c0,1.132-0.106,2.416-0.188,3.738c-17.775-8.087-36.987-12.605-56.344-16.117c-20.145-3.654-40.748-5.356-61.279-5.083
	C156.813,437.969,157.148,437.125,157.264,436.267z M293.863,229.303c-0.16,8.515-0.488,17.033-0.525,25.55
	c-0.068,16.275-0.143,32.551-0.27,48.825c-0.256,32.693-0.613,65.389-0.748,98.083c-0.086,20.805-0.305,41.437,0.998,62.19
	c0.052,0.836,0.105,1.674,0.158,2.511c-0.282-0.021-0.57-0.035-0.878-0.033l0,0h0c0,0,0,0-0.001,0
	c-1.995,0.017-3.992,0.051-5.989,0.089c-0.327-0.192-0.653-0.389-0.982-0.578c0.855-1.7,1.063-3.569,0.192-4.997
	c-0.014-0.127-0.032-0.285-0.054-0.505c-0.129-1.283-0.887-2.37-0.967-3.621c-0.234-3.582-0.248-7.182-0.271-10.77
	c-0.045-7.019,0.064-14.037,0.027-21.057c-0.125-24.385,0.822-48.754,1.629-73.119c0.277-8.388,0.49-16.77,0.619-25.15
	c1.402-2.386,1.696-5.156,0.08-6.744c0.056-6.072,0.056-12.144-0.008-18.217c0.004-0.131,0.002-0.26-0.004-0.389
	c-0.085-7.789-0.267-15.579-0.6-23.374c-0.521-12.229-1.377-24.435-1.662-36.676c-0.246-10.493,0.23-20.966-0.047-31.426
	c1.725-0.075,3.451-0.134,5.175-0.218c1.717-0.083,3.451-0.146,5.192-0.205C293.917,215.957,293.987,222.78,293.863,229.303z
	 M277.92,282.634c0.173,4.867,0.271,9.732,0.335,14.597c-9.888,0.132-19.887-0.739-29.779-0.622
	c-11.367,0.135-22.729,0.646-34.08,1.224c-11.447,0.582-22.881,1.388-34.325,2.024c-11.058,0.616-22.507,0.394-33.52,1.842
	c-1.008-11.589-1.957-23.182-2.839-34.787c-0.772-10.17-1.408-20.343-1.787-30.535c-0.188-5.071-0.234-10.15-0.256-15.225
	c-0.016-3.832,0.285-7.732,0.009-11.563c4.629,0.113,9.26,0.178,13.885,0.28c17.842,0.394,35.687,1.022,53.535,1.149
	c18.064,0.129,36.127-0.005,54.188-0.401c5.594-0.122,11.186-0.311,16.777-0.53c-2.494,11-2.793,22.298-2.887,33.62
	C277.068,256.678,277.459,269.672,277.92,282.634z M135.217,236.603c0.021,10.288,0.267,20.569,0.691,30.849
	c0.545,13.163,1.636,26.316,2.848,39.452c-0.326,0.948-0.312,1.854,0.236,2.528c0.617,6.612,1.256,13.219,1.867,19.821
	c1.914,20.68,3.767,41.327,4.66,62.08c0.446,10.355,0.678,20.72,0.687,31.085c0.003,3.642-0.03,7.261-0.519,10.87
	c-0.257,1.908-0.728,3.9-0.423,5.809c-1.618,0.078-3.234,0.167-4.85,0.27c0.333-0.457,0.601-0.922,0.779-1.382
	c0.015-0.038,0.029-0.077,0.044-0.115c0.81-2.101,0.818-3.767,0.307-5.02c0.023-0.005,0.047-0.01,0.07-0.014
	c-0.2-0.659-0.209-1.469-0.44-2.074c-0.333-0.627-0.718-1.22-1.132-1.793c-0.012-0.14-0.029-0.308-0.056-0.529
	c-0.256-4.988-1.098-10.015-1.587-14.988c-0.991-10.074-1.79-20.167-2.48-30.266c-1.397-20.409-2.206-40.855-2.731-61.304
	c-0.51-19.833-1.004-39.67-1.361-59.507c-0.184-10.176-0.332-20.353-0.479-30.529c-0.103-7.16,0.609-15.24-0.315-22.659
	c1.669,0.093,3.339,0.167,5.01,0.23C134.312,218.101,135.199,227.905,135.217,236.603z M78.171,455.023
	c18.327-4.344,38.07-6.537,56.813-7.753c26.928-1.746,53.843,0.78,80.3,5.806c16.934,3.217,33.678,7.363,49.351,14.148
	c-9.812,0.404-19.624,0.863-29.42,1.143c-23.736,0.68-47.477,1.25-71.218,1.727c-22.969,0.46-45.939,0.939-68.91,1.245
	c-11.783,0.156-23.568,0.281-35.353,0.386c-6.027,0.053-12.219-0.167-18.372-0.038C50.564,461.941,65.739,457.969,78.171,455.023z
	 M290.478,513.42c-22.651,0.447-45.187,3.57-67.816,4.615c-22.627,1.046-45.28,1.119-67.923,1.48
	c-22.086,0.353-44,0.412-66.084-0.21c-18.751-0.529-39.461-1.588-57.989,3.33c-0.851-6.873-1.171-13.847-1.663-20.732
	c-0.417-5.844-0.512-12.042-1.236-18.038c8.901,1.245,18.556,0.363,27.327,0.37c11.761,0.01,23.521-0.01,35.281-0.053
	c23.573-0.084,47.144-0.191,70.714-0.519c40.134-0.557,80.293-2.102,120.433-2.243c1.115,0.523,2.639,0.596,4.606-0.016
	c1.088-0.001,2.176-0.013,3.263-0.011c0.004-0.02,0.008-0.039,0.012-0.059c1.799-0.182,3.456-0.961,4.853-2.075
	c0.653,11.373,1.127,22.784,0.906,34.129c-0.16-0.007-0.312-0.021-0.48-0.021C293.326,513.366,291.885,513.309,290.478,513.42z
	 M303.094,513.283c0.064-0.037,0.128-0.074,0.192-0.111c0.553,0.034,1.107,0.068,1.66,0.104
	C304.321,513.223,303.703,513.23,303.094,513.283z M405.721,336.678c-1.986-13.297-4.111-26.575-5.898-39.901
	c-0.934-6.962-1.756-13.941-2.463-20.93c-0.433-4.289-0.607-8.869-1.326-13.255c14.69-0.762,29.362-1.734,43.955-2.521
	c18.158-0.978,36.321-1.924,54.494-2.56c-0.661,8.785-0.807,17.591-1.412,26.391c-0.781,11.312-2.43,22.558-3.344,33.862
	c-1.693,20.945-1.018,41.879-0.998,62.863c0.008,7.882,0.066,15.761-0.04,23.642c-0.42,0.074-0.845,0.174-1.274,0.304
	c-0.887-0.501-1.93-0.646-3.039-0.521c-0.342-0.187-0.71-0.319-1.099-0.359c-0.688-0.069-1.384-0.023-2.068,0.107
	c1.07-0.271-2.032,0.302-2.377,0.333c-1.895,0.169-3.791,0.301-5.689,0.434c-4.596,0.319-9.189,0.311-13.797,0.364
	c-12.911,0.149-27.581-1.445-39.946,3.153c-1.889-1.816-4.958,1.058-5.906,3.281C412.772,386.321,409.416,361.435,405.721,336.678z
	 M354.649,264.123c-0.054-0.096-0.109-0.191-0.163-0.286c0.081,0,0.162,0,0.242,0C354.697,263.931,354.678,264.028,354.649,264.123z
	 M364.918,327.57c-0.101-0.514-0.281-0.949-0.512-1.324c-0.146-1.195-0.155-0.956-0.139-0.59c-0.007-0.108-0.015-0.229-0.026-0.384
	c-0.141-2.067-0.135-4.148-0.145-6.22c-0.018-3.746,0.107-7.491,0.076-11.236c-0.068-8.117-1.127-16.396-1.426-24.539
	c-0.237-6.528-1.855-12.98-2.05-19.473c9.576-0.105,19.164-0.438,28.749-0.887c-1.455,11.256,0.563,23.752,1.525,34.715
	c1.182,13.482,2.77,26.925,4.471,40.35c2.196,17.322,4.46,34.649,5.848,52.043c-5.822-15.262-11.993-30.373-22.116-43.419
	c-4.358-5.616-9.271-11.042-14.618-16.122C364.951,329.558,365.112,328.564,364.918,327.57z M413.258,417.975
	c0.032,0.534,0.066,1.067,0.104,1.6c-0.144-0.294-0.288-0.589-0.43-0.884C413.059,418.458,413.165,418.218,413.258,417.975z
	 M432.727,439.664c6.148,0.006,12.301-0.044,18.447-0.185c10.213-0.233,21.119,0.585,31.225-0.95
	c0.938-0.143,1.99-0.711,2.966-1.505c0.048,2.01,1.079,2.961,2.496,3.146c3.243,0.554,8.475-2.965,8.406-6.896
	c0-0.02-0.001-0.04-0.001-0.06c1.039-2.3,1.374-4.983,1.655-7.407c0.643-5.54,0.844-11.15,1-16.722
	c0.289-10.428,0.109-20.859-0.018-31.287c-0.238-19.648-0.977-39.281-0.527-58.931c0.252-11.055,0.844-22.099,1.098-33.153
	c0.218-9.498,1.083-18.933,0.049-28.347c7.359-0.186,14.701-0.224,22.041-0.175c-1.493,10.561-0.927,21.691-0.959,32.309
	c-0.037,11.621,0.035,23.238,0.287,34.857c0.516,23.96,1.48,47.899,2.67,71.834c1.182,23.788,2.605,47.563,4.16,71.33
	c0.276,4.231,0.639,8.422,1.058,12.608c-1.776-2.626-4.174-4.585-7.466-4.92c-0.297-0.03-0.589-0.047-0.875-0.055
	c-0.074-0.061-0.136-0.126-0.215-0.185c-0.498-0.365-1.156-0.53-1.846-0.61c-0.07,0.039-0.343,0.073-0.756,0.018
	c0.167-0.028,0.307-0.047,0.417-0.056c-0.488-0.037-0.977-0.037-1.435-0.035c-0.699-0.03-1.427-0.007-2.096-0.028
	c-1.65-0.05-3.301-0.145-4.951-0.224c-6.469-0.308-12.869-0.541-19.307-1.366c-14.436-1.852-29.055-7.715-41.936-14.37
	c-9.202-4.755-16.496-11.156-22.503-18.63C428.193,439.758,430.587,439.662,432.727,439.664z M514.527,496.277
	c0.061-2.669,0.467-5.31,1.055-7.909c0.171-0.749,0.406-1.464,0.667-2.171c0.575-0.178,1.147-0.388,1.71-0.672
	c0.173-0.087,0.34-0.191,0.507-0.293c1.115,1.654,2.192,4.563,2.594,5.811c0.756,2.355,1.125,4.777,1.305,7.238
	c0.034,0.467,0.056,0.917,0.045,1.364c-0.377,0.241-0.761,0.537-1.137,0.872c-2.217,0.469-4.448,0.881-6.692,1.233
	C514.661,499.844,514.491,497.88,514.527,496.277z M365.183,349.37c14.732,17.473,21.537,39.074,29.334,60.159
	c7.691,20.803,17.426,40.753,35.699,54.213c11.326,8.345,25.23,13.258,38.49,17.549c12.482,4.04,24.855,4.664,37.855,5.291
	c0.512,0.025,1.024,0.056,1.534,0.088c-0.45,1.449-0.781,2.906-1.004,4.284c-0.619,3.836-0.803,7.919-0.279,11.787
	c-19.277,1.899-39.159-0.149-57.672-4.803c-21.115-5.31-38.555-16.53-52.158-33.482c-24.26-30.235-32.875-69.796-54.383-101.794
	c-8.593-12.784-21.407-27.016-36.869-31.472c-0.068-8.599-0.127-17.199-0.189-25.799
	C328.812,314.719,349.021,330.199,365.183,349.37z M313.809,183.612c-0.243,4.078-0.624,8.104-1.115,12.152
	c-6.217,0.533-12.451,1.429-18.66,1.876c-8.83,0.634-17.67,1.103-26.512,1.493c-18.088,0.798-36.201,1.024-54.305,1.127
	c-17.969,0.102-35.933,0.309-53.903,0.298c-8.642-0.005-17.312-0.192-25.948,0.167c-2.437,0.101-5.057,0.041-7.711,0.047
	c0.083-0.264,0.154-0.53,0.212-0.8c0.538-2.507-0.515-5.046-2.491-6.273c-0.024-0.157-0.063-0.33-0.132-0.534
	c-0.237-1.197-0.491-2.391-0.743-3.584c-0.527-2.497-1.295-4.957-1.912-7.433c-0.393-1.578-0.6-3.531-0.959-5.448
	c2.553-0.04,5.08-0.082,7.561-0.09c14.492-0.05,28.984-0.566,43.469-1.025c28.275-0.896,56.443-1.607,84.732-0.984
	c19.197,0.424,36.295,0.515,54.502,1.764c1.489,0.102,2.978,0.201,4.467,0.299C314.018,178.934,313.948,181.276,313.809,183.612z
	 M323.689,163.879c-3.549-0.175-7.096-0.381-10.643-0.583c-18.979-1.077-37.969-0.899-56.975-1.088
	c-27.764-0.274-55.381,1.459-83.103,2.614c-13.869,0.578-27.745,0.964-41.612,1.551c-11.157,0.473-22.674,0.374-33.844,1.881
	c5.047-2.997,9.848-6.808,14.208-9.687c1.832-1.21,3.651-2.439,5.475-3.662c10.013,3.664,21.732,3.498,32.02,3.292
	c14.746-0.297,29.537-0.394,44.273-0.92c33.85-1.209,67.526-7.939,101.45-5.969c1.036,0.095,2.083,0.101,3.12,0.146
	c2.202,0.095,4.229-0.787,5.879-2.178c3.418,2.684,6.86,5.337,10.357,7.92C317.389,159.484,320.513,161.719,323.689,163.879z
	 M219.716,94.777c-0.181,0.039-0.355,0.071-0.513,0.091C219.374,94.845,219.545,94.807,219.716,94.777z M206.734,96.989
	c0.994-0.518,1.996-1.016,3.002-1.508c0.148-0.072,0.701-0.306,0.996-0.433c0.327-0.127,0.654-0.257,0.983-0.381
	c0.244-0.092,0.495-0.164,0.74-0.251c2.14,1.248,5.039,1.223,7.475,0.554c0.782-0.214,1.537-0.524,2.256-0.901
	c0.981-0.395,1.928-0.912,2.804-1.532c3.901,3.035,7.934,5.883,12.037,8.634c-0.413,0.033-0.827,0.068-1.239,0.099
	c-7.229,0.559-14.506,0.51-21.748,0.471c-5.311-0.029-10.624-0.093-15.934,0C200.95,100.1,203.822,98.506,206.734,96.989z"/>
<path fill="#010101" d="M518.037,474.323c0.114,0.009,0.226,0.025,0.339,0.038C518.437,474.327,518.337,474.298,518.037,474.323z"/>
<path fill="#010101" d="M102.401,251.221c5.168,0.572,11.354-7.783,4.676-9.922c-11.449-3.666-21.692-7.896-30.893-15.887
	c-8.887-7.719-15.814-17.516-20.928-28.063c-9.229-19.036-12.398-40.938-6.716-61.439c9.821-35.438,44.771-62,79.92-68.8
	c24.644-4.768,47.425,0.913,68.379,14.239c2.481,1.578,6.774-2.661,4.673-5.011c-26.05-29.135-71.72-24.247-103.492-8.638
	c-34.116,16.762-61.609,50.219-63.482,89.109c-0.99,20.574,6.037,41.575,16.979,58.767
	C62.42,232.706,81.554,248.907,102.401,251.221z"/>
<path fill="#010101" d="M317.574,124.633c-0.045-16.939,0.332-32.903,11.15-46.869c9.527-12.299,23.947-19.912,38.412-24.84
	c31.127-10.602,69.342-11.275,99.582,2.586c30.998,14.21,54.469,44.416,62.256,77.372c3.457,14.635,5.281,30.1,4.721,45.131
	c-0.035,0.955-0.09,1.913-0.158,2.872c-2.331-6.494-10.942-10.638-16.877-12.616c-8.379-2.792-21.666-5.252-28.854,1.505
	c-1,0.94-0.807,2.862,0.908,2.334c1.35-0.416,2.765-0.703,4.217-0.892c0.354,16.968,29.559,37.961,38.977,20.775
	c-2.134,9.284-6.335,17.976-13.731,24.329c-6.895,5.921,0.271,14.046,7.146,8.143c17.941-15.408,22.293-39.073,21.408-61.655
	c-0.908-23.217-5.896-47.135-17.34-67.48c-12.344-21.943-31.23-40.436-54.154-51.063c-15.768-7.311-33.039-9.965-50.281-10.441
	c-28.637-0.792-59.805,5.289-83.912,21.382c-22.223,14.833-39.736,44.289-26.873,70.936
	C315.059,127.975,317.578,126.137,317.574,124.633z M524.381,193.987c-4.004,1.691-8.951-0.578-12.438-2.467
	c-7.116-3.854-16.226-11.73-17.186-20.486c5.25-0.378,10.842,0.43,15.62,1.513c6.631,1.504,16.064,4.666,18.5,11.804
	C530.053,187.795,527.633,192.612,524.381,193.987z"/>
<path fill="#010101" d="M375.15,85.555c-5.13-6.805-13.986-7.199-21.004-3.816c-8.654,1.844-18.055,7.811-18.207,16.804
	c-0.096,5.609,6.332,7.952,10.76,8.96c7.146,1.628,16.137,1.47,22.9-1.641C377.936,102.029,380.807,93.054,375.15,85.555z
	 M369.896,102.309c-5.043,2.923-11.949,2.912-17.559,2.457c-4.221-0.343-12.092-1.454-13.111-6.665
	c-0.958-4.891,3.427-8.966,8.663-11.756c-1.055,1.163,0.279,2.266,1.479,1.672c6.934-3.429,14.01-5.438,20.752-0.545
	C375.617,91.462,375.912,98.822,369.896,102.309z"/>
<path fill="#010101" d="M453.498,97.778c8.35,5.43,19.754,1.87,24.326-6.809c8.895-16.884-21.186-27.898-32.404-18.42
	c-0.208,0.175-0.345,0.376-0.448,0.581c-0.027-0.752-1.411-0.35-1.636,0.389C440.484,82.915,445.57,92.623,453.498,97.778z
	 M444.823,73.933c0.083,0.582,0.585,1.022,1.462,0.841c7.941-1.646,29.98,1.44,28.059,13.447
	c-1.52,9.485-13.283,10.165-19.953,6.544C447.045,90.775,442.823,82.046,444.823,73.933z"/>
<path fill="#010101" d="M346.043,199.246c-12.09,17.831,29.27,39.636,37.938,17.327c6.383-16.424-27.328-32.578-35.316-16.087
	c-0.789,1.63,1.109,1.882,2.117,1.16c9.387-6.721,27.482-0.093,29.084,12.011c1.26,9.527-12.732,8.802-18.166,6.615
	c-7.133-2.871-17.961-11.514-13.83-20.391C348.486,198.557,346.684,198.3,346.043,199.246z"/>
<path fill="#010101" d="M428.334,145.162c1.395-0.243,2.539-2.925,0.574-2.685c-5.746,0.699-11.777,4.119-12.066,10.557
	c-0.264,5.872,4.32,10.104,9.904,10.8c6.391,0.796,15.063-2.999,17.088-9.538c2.424-7.824-7.332-9.425-12.543-6.444
	c-0.807,0.461-1.652,2.247-0.205,2.503c2.658,0.47,9.854-0.502,8.732,4.267c-1.145,4.869-8.799,6.416-12.854,5.717
	c-3.658-0.631-6.463-3.671-6.785-7.339C419.768,148.28,424.357,145.853,428.334,145.162z"/>
<path fill="#010101" d="M475.928,227.296c-1.006,0.245-2.156,0.078-3.156-0.091c-1.262-0.21-3.357,2.225-1.711,2.812
	c2.578,0.919,5.41,1.257,7.842-0.267c2.178-1.364,3.383-3.852,2.756-6.382c-0.646-2.614-3.125-4.342-5.498-5.26
	c-4.619-1.786-10.605-1.339-14.852,1.169c-0.848,0.502-1.555,2.084-0.199,2.439c4.762,1.251,12.18-0.817,15.768,3.342
	c0.279,0.322,0.521,0.953,0.543,1.165c0.028,0.265-0.045,0.428-0.059,0.471C477.066,226.969,476.738,227.098,475.928,227.296z"/>
<path fill="#010101" d="M148.152,79.818c-3.579,1.392-7.623,3.39-8.981,7.271c-1.156,3.304,0.61,6.344,3.033,8.501
	c7.514,6.692,19.735,5.161,27.488-0.078c6.126-4.14,8.078-11.858,1.346-16.421c-6.069-4.115-16.238-2.791-22.196,1.937
	C149.248,80.354,149.144,79.433,148.152,79.818z M147.249,86.384c3.242-0.977,6.141-2.738,9.449-3.649
	c2.852-0.785,5.933-0.608,8.756,0.181c4.119,1.15,6.982,5.061,3.38,8.475c-5.446,5.161-14.224,5.746-20.878,2.953
	c-2.365-0.992-4.885-2.516-6.042-4.894c-1.905-3.916,3.203-6.505,6.151-7.791c-0.839,0.757-1.574,1.588-2.176,2.489
	C145.104,85.322,145.646,86.869,147.249,86.384z"/>
<path fill="#010101" d="M77.552,111.46c0.102,1.08,0.961,1.404,1.819,1.785c3.137,1.394,6.854,2.64,10.334,2.012
	c2.936-0.529,5.455-2.25,6.736-4.993c1.056-2.258,1.012-4.773,0.441-7.146c-0.823-3.43-3.174-6.731-6.713-7.618
	c-2.144-0.537-4.51,0.134-6.353,1.25c-2.426,1.469-5.045,4.199-5.461,7.129c-0.397,0.987-0.792,2.027-0.741,3.092
	c0.015,0.313,0.145,0.509,0.325,0.63c-0.193,0.488-0.333,0.997-0.39,1.502C77.459,109.894,77.479,110.669,77.552,111.46z
	 M82.677,104.023c0.042-0.048,0.061-0.07,0.085-0.098c0.187-0.194,0.379-0.383,0.573-0.568c0.259-0.247,0.495-0.52,0.732-0.789
	c0.017-0.017,0.022-0.022,0.046-0.046c0.244-0.25,0.503-0.485,0.767-0.714c0.203-0.175,0.416-0.34,0.627-0.505
	c0.132-0.085,0.266-0.166,0.402-0.245c0.067-0.038,0.136-0.072,0.204-0.107c0.165-0.062,0.334-0.115,0.504-0.162
	c0.062-0.007,0.123-0.017,0.185-0.023c0.1-0.01,0.202-0.013,0.302-0.017c0.184,0.02,0.368,0.049,0.549,0.087
	c0.075,0.016,0.15,0.037,0.224,0.058c0.405,0.161,0.788,0.373,1.149,0.617c0.099,0.067,0.194,0.138,0.291,0.208
	c0.099,0.081,0.303,0.245,0.381,0.318c0.372,0.346,0.705,0.733,1.014,1.136c0.124,0.161,0.236,0.33,0.348,0.499c0,0,0,0,0,0.001
	c0.058,0.106,0.111,0.215,0.165,0.324c0.233,0.473,0.424,0.965,0.588,1.467c0.074,0.23,0.138,0.464,0.197,0.699
	c0.01,0.042,0.016,0.059,0.022,0.084c0.006,0.042,0.014,0.089,0.026,0.165c0.084,0.503,0.12,1.015,0.121,1.524
	c0,0.076-0.01,0.238-0.019,0.37c-0.021,0.161-0.043,0.322-0.073,0.483c-0.033,0.174-0.082,0.344-0.13,0.514
	c-0.043,0.106-0.087,0.211-0.136,0.313c-0.015,0.033-0.038,0.075-0.062,0.119c-0.071,0.101-0.141,0.201-0.218,0.297
	c-0.044,0.042-0.093,0.08-0.14,0.119c-0.123,0.076-0.246,0.151-0.373,0.217c-0.043,0.013-0.089,0.028-0.167,0.055
	c-0.12,0.042-0.245,0.071-0.369,0.104c-0.135,0.022-0.503,0.095-0.626,0.108c-0.258,0.028-0.517,0.038-0.776,0.045
	c-0.098,0.003-0.197,0-0.296-0.001c-0.091-0.004-0.249-0.009-0.299-0.013c-0.711-0.055-1.415-0.18-2.11-0.33
	c-1.595-0.344-2.907-0.874-4.373-1.467c-0.075-0.35-0.127-0.699-0.125-0.954c1.064-0.44,2.172-0.799,3.257-1.178
	c1.406-0.49,1.761-2.946-0.129-2.41c-0.895,0.254-1.745,0.062-2.657,0.162c-0.042,0.005-0.081,0.016-0.122,0.021
	C82.386,104.353,82.532,104.188,82.677,104.023z"/>
<path fill="#010101" d="M83.401,210.905c1.533,7.371,10.356,17.624,18.447,11.608c6.057-4.503,5.268-14.218,2.763-20.38
	c-2.002-4.925-5.933-8.405-10.457-9.656c0.896-0.321,1.891-0.506,2.999-0.51c1.463-0.006,3.033-3.004,1.08-3.148
	c-4.177-0.311-7.498,1.027-9.967,3.334c-1.928,0.308-3.862,1.009-5.717,2.206c-0.992,0.641-1.68,2.721,0.149,2.644
	c0.74-0.031,1.463-0.055,2.174-0.065C82.929,201.103,82.434,206.255,83.401,210.905z M98.289,202.576
	c2.767,3.983,4.023,10.443,2.133,15.017c-2.211,5.348-9.637-2.395-10.893-4.852c-2.126-4.161-2.513-10.919-0.265-15.593
	C92.771,197.621,95.812,199.01,98.289,202.576z"/>
<path fill="#010101" d="M59.891,148.58c-0.893-0.164-1.622,0.491-2.044,1.193c-0.49,0.815-0.953,1.627-1.298,2.517
	c-0.321,0.83-0.61,1.679-0.835,2.541c-0.302,1.155-0.521,2.454-0.343,3.646c0.149,0.992,0.478,1.994,1.208,2.721
	c0.674,0.67,1.531,1.084,2.467,1.24c1.992,0.334,4.083-0.361,5.811-1.313c1.75-0.963,3.476-2.465,4.289-4.328
	c0.466-1.065,0.597-2.14,0.291-3.265c-0.26-0.956-1.05-1.679-1.838-2.21c-0.975-0.656-2.199-0.988-3.335-1.229
	c-0.899-0.189-1.79-0.266-2.707-0.305c-0.203-0.009-0.406-0.016-0.609-0.021c-0.079-0.002-0.16,0.012-0.24,0.024
	C60.792,149.231,60.469,148.688,59.891,148.58z M61.932,157.903C62.118,157.865,62.081,157.877,61.932,157.903L61.932,157.903z
	 M64.765,156.381C64.771,156.41,64.771,156.411,64.765,156.381L64.765,156.381z M64.759,156.165
	C64.841,156.289,64.902,156.405,64.759,156.165L64.759,156.165z M64.323,155.677C64.07,155.482,64.193,155.57,64.323,155.677
	L64.323,155.677z M61.014,154.739c0.648,0.078,1.293,0.193,1.924,0.357c0.119,0.031,0.239,0.065,0.356,0.101
	c0.194,0.073,0.386,0.151,0.573,0.243c0.176,0.085,0.346,0.183,0.509,0.29c0.011,0.008,0.022,0.016,0.033,0.024
	c0.092,0.089,0.175,0.187,0.254,0.287c0.006,0.014,0.011,0.03,0.017,0.046c0.001,0.012,0.002,0.025,0.003,0.037
	c-0.019,0.041-0.038,0.083-0.059,0.123c-0.07,0.096-0.146,0.187-0.222,0.278c-0.215,0.206-0.448,0.39-0.685,0.569
	c-0.017,0.011-0.036,0.023-0.05,0.032c-0.168,0.106-0.341,0.206-0.516,0.302c-0.116,0.063-0.235,0.12-0.353,0.177
	c-0.041,0.016-0.081,0.033-0.122,0.048c-0.304,0.115-0.617,0.202-0.933,0.278c-0.025,0.003-0.049,0.007-0.075,0.01
	c-0.178,0.022-0.358,0.035-0.537,0.044c-0.027,0.001-0.053,0-0.08,0.001c-0.124-0.013-0.248-0.027-0.371-0.052
	c-0.027-0.006-0.053-0.013-0.08-0.02c-0.075-0.033-0.151-0.063-0.223-0.103c-0.052-0.029-0.099-0.066-0.149-0.099
	c-0.044-0.04-0.087-0.08-0.119-0.114c-0.068-0.074-0.125-0.158-0.183-0.241c-0.018-0.038-0.039-0.076-0.055-0.115
	c-0.068-0.153-0.122-0.313-0.169-0.473c-0.015-0.05-0.026-0.1-0.039-0.15c-0.07-0.411-0.092-0.829-0.087-1.246
	c0.002-0.111,0.006-0.223,0.012-0.333c0.001-0.024,0.003-0.048,0.005-0.072c0.014-0.138,0.035-0.275,0.054-0.413
	c0.058,0.009,0.107,0.021,0.171,0.029C60.215,154.636,60.615,154.69,61.014,154.739z"/>
<path fill="#010101" d="M37.396,438.134c3.45,2.355,7.051,4.487,10.596,6.694c2.766,1.723,4.396,3.448,7.298,4.283
	c4.728,2.063,10.663-3.602,10.732-8.427c0.082-5.702-8.023-8.941-12.154-11.464c-6.607-4.034-12.498-7.94-17.275-14.115
	c-11.27-14.567-13.883-34.208-9.699-51.786c4.092-17.195,16.381-29.894,31.406-38.437c7.909-4.496,16.691-7.308,25.543-9.254
	c9.133-2.009,18.549-1.312,27.679-3.06c1.701-0.325,3.934-2.651,1.944-4.111c-7.419-5.448-18.399-5.086-27.192-4.325
	c-10.306,0.891-20.092,4.092-29.416,8.445c-18.799,8.775-34.711,24.648-41.855,44.24c-7.229,19.819-6.254,42.541,3.951,61.148
	C23.583,426.405,29.497,432.741,37.396,438.134z"/>
<path fill="#010101" d="M53.649,354.635c4.102,7.846,11.449,5.791,16.346-0.04c4.467-5.317,8.234-14.144,7.116-21.205
	c-0.106-0.668-0.257-1.256-0.444-1.78c-0.017-0.065-0.033-0.131-0.074-0.183c-2.766-7.142-12.99-0.742-16.862,2.801
	c-0.509,0.466-0.914,1.08-1.354,1.607c-0.791,0.946,0.188,1.829,1.171,1.335c1.771-0.892,7.184-4.812,10.493-4.682
	C60.263,335.806,48.636,345.044,53.649,354.635z M72.468,334.323c0.051,0.159,0.095,0.33,0.131,0.513
	c1.01,5.156-1.797,11.444-4.514,15.658c-2.292,3.554-5.755,7.307-9.229,2.896C52.699,345.573,64.555,337.789,72.468,334.323z"/>
<path fill="#010101" d="M104.37,387.606c-4.938,2.077-9.576-6.103-10.854-9.577c-0.496-1.349-2.529,0.013-2.449,1.085
	c0.451,6.055,5.664,12.629,12.134,12.301c5.101-0.259,10.046-7.112,8.679-12.054c-2.339-8.46-19.352-10.83-25.33-5.469
	c-0.594,0.532-0.742,1.817,0.373,1.73c5.973-0.468,12.987-0.185,18.291,2.9C108.923,380.679,108.478,385.879,104.37,387.606z"/>
<path fill="#010101" d="M44.539,418.272c1.018,1.81,2.635,2.866,4.586,3.469c1.863,0.574,3.916,0.622,5.844,0.458
	c2.016-0.172,4.046-0.614,5.941-1.318c1.754-0.651,3.584-1.511,4.955-2.815c1.388-1.318,2.561-3.305,1.788-5.257
	c-0.692-1.753-2.631-2.73-4.292-3.343c-3.477-1.281-7.252-1.799-10.941-1.947c-1.001-0.041-2.102-0.186-3.088,0.002
	c-1.393,0.264-2.737,0.428-4.023,1.064c-0.881,0.437-1.35,1.614-0.64,2.334c-0.276,0.295-0.485,0.653-0.579,1.039
	C43.594,413.998,43.477,416.38,44.539,418.272z M63.075,415.563C62.971,415.686,62.936,415.714,63.075,415.563L63.075,415.563z
	 M63.281,415.661C63.306,415.746,63.307,415.771,63.281,415.661L63.281,415.661z M51.904,412.633
	c1.857,0.154,3.714,0.373,5.548,0.715c1.219,0.227,2.436,0.458,3.619,0.836c0.143,0.052,0.333,0.121,0.424,0.159
	c0.216,0.088,0.428,0.186,0.636,0.291c0.171,0.086,0.337,0.18,0.5,0.28c0.056,0.035,0.14,0.094,0.219,0.151
	c0.119,0.109,0.229,0.228,0.329,0.355c-0.176,0.168-0.354,0.335-0.545,0.485c-0.139,0.093-0.28,0.184-0.423,0.27
	c-0.347,0.21-0.703,0.401-1.069,0.575c-0.031,0.015-0.062,0.029-0.093,0.043c-0.198,0.083-0.397,0.163-0.597,0.24
	c-0.427,0.162-0.859,0.309-1.296,0.441c-0.45,0.137-0.906,0.258-1.364,0.365c-0.099,0.022-0.201,0.045-0.301,0.067
	c-0.208,0.04-0.416,0.078-0.624,0.112c-0.941,0.152-1.894,0.237-2.848,0.248c-0.212,0.003-0.423-0.001-0.635-0.008
	c-0.102-0.006-0.202-0.014-0.304-0.021c-0.444-0.037-0.886-0.099-1.323-0.183c-0.397-0.076-0.788-0.181-1.172-0.304
	c-0.076-0.029-0.152-0.059-0.226-0.09c-0.193-0.081-0.385-0.167-0.572-0.26c-0.338-0.166-0.657-0.365-0.959-0.587
	c-0.052-0.045-0.104-0.091-0.154-0.138c-0.145-0.137-0.281-0.283-0.41-0.436c-0.119-0.142-0.229-0.291-0.332-0.444
	c-0.039-0.07-0.077-0.14-0.114-0.212c-0.184-0.371-0.319-0.764-0.418-1.167c-0.018-0.099-0.033-0.199-0.045-0.298
	c-0.034-0.249-0.051-0.5-0.061-0.751c-0.008-0.247-0.002-0.495,0.01-0.743c0.002-0.038,0.005-0.075,0.007-0.113
	c0.014-0.134,0.03-0.268,0.048-0.402c0.002-0.015,0.005-0.03,0.007-0.046c0.358,0.109,0.717,0.211,1.088,0.244
	C49.604,412.408,50.752,412.537,51.904,412.633z"/>
</svg>
