<?xml version="1.0" encoding="UTF-8" standalone="no"?><!DOCTYPE svg PUBLIC "-//W3C//DTD SVG 1.1//EN" "http://www.w3.org/Graphics/SVG/1.1/DTD/svg11.dtd"><svg width="100%" height="100%" viewBox="0 0 220 537" version="1.1" xmlns="http://www.w3.org/2000/svg" xmlns:xlink="http://www.w3.org/1999/xlink" xml:space="preserve" style="fill-rule:evenodd;clip-rule:evenodd;stroke-linejoin:round;stroke-miterlimit:1.41421;"><g id="the_trousers"><path d="M20.829,22.552c11.817,15.364 36.484,17.615 54.289,18.852c15.258,1.06 30.683,1.159 45.963,0.433c17.084,-0.813 34.338,-2.453 51.049,-6.201c7.347,-1.647 14.808,-3.835 21.427,-7.488c4.313,-2.38 10.55,-6.808 10.514,-12.399c-0.005,-0.769 -0.267,-1.581 -0.457,-2.315c-1.063,-4.096 -9.138,-0.665 -9.748,2.318c-0.851,4.158 -2.223,5.848 -6.163,7.898c-6.102,3.176 -12.957,4.785 -19.635,6.234c-15.293,3.318 -31.009,4.791 -46.609,5.731c-14.053,0.847 -28.229,0.879 -42.287,0.26c-18.102,-0.798 -40.701,-2.492 -54.334,-15.996c-1.459,-1.444 -5.491,0.746 -4.009,2.673Z" style="fill-rule:nonzero;"/><path d="M24.574,22.022c8.517,-7.492 20.733,-9.904 31.583,-11.716c11.866,-1.98 23.97,-2.458 35.973,-2.883c34.742,-1.229 70.215,0.923 102.961,13.583c0.733,-2.299 1.467,-4.599 2.2,-6.897c-2.617,1.363 -4.654,2.929 -7.062,4.566c-2.542,1.729 -1.362,4.651 1.691,3.897c2.829,-0.698 5.433,-0.765 8.255,-1.817c2.141,-0.798 6.217,-5.519 2.2,-6.897c-35.314,-12.127 -72.076,-14.961 -109.178,-12.841c-13.34,0.762 -26.679,1.85 -39.806,4.433c-11.351,2.233 -24.366,5.989 -32.301,14.959c-2.27,2.567 1.815,3.082 3.484,1.613Z" style="fill-rule:nonzero;"/><path d="M20.045,20.922c-0.656,4.704 -0.267,9.557 -0.114,14.291c0.117,3.646 1.392,10.489 -0.388,13.842c-3.766,7.091 11.743,4.719 9.105,-1.32c-1.513,-3.464 -1.035,-9.049 -1.39,-12.819c-0.479,-5.09 -0.796,-10.26 -1.64,-15.3c-0.502,-3.013 -5.256,-0.953 -5.573,1.306Z" style="fill-rule:nonzero;"/><path d="M198.869,15.657c-1.162,5.271 -1.128,10.811 -1.404,16.186c-0.147,2.861 -0.332,5.713 -0.562,8.568c-0.157,1.954 -0.862,4.271 -0.106,6.11c0.366,0.891 1.438,1.54 2.372,1.617c2.811,0.234 6.236,-0.954 7.259,-3.907c0.825,-2.386 -0.114,-5.702 -0.323,-8.206c-0.598,-7.142 -0.097,-14.675 -1.805,-21.659c-0.564,-2.307 -5.071,-0.34 -5.431,1.291Z" style="fill-rule:nonzero;"/><path d="M20.014,45.672c2.194,9.333 17.615,13.499 25.381,15.602c14.977,4.055 30.783,5.093 46.229,5.609c30.129,1.008 62.253,-0.525 91.373,-8.943c4.892,-1.414 22.473,-6.793 18.316,-15.011c-1.974,-3.9 -8.722,-0.43 -9.076,3.016c0.055,-0.534 -0.234,0.285 0.003,-0.096c-1.354,2.174 -0.077,0.414 -0.701,1.31c0.567,-0.814 -0.435,0.283 -0.024,-0.031c-0.381,0.292 -2.534,1.568 -1.482,1.006c-4.258,2.28 -8.236,3.382 -12.86,4.548c-14.095,3.554 -28.691,5.184 -43.155,6.3c-30.783,2.376 -64.395,3.224 -94.155,-6.252c-6.271,-1.996 -11.06,-5.218 -16.31,-8.98c-1.279,-0.917 -3.953,0.163 -3.539,1.922Z" style="fill-rule:nonzero;"/><path d="M97.794,175.106c2.571,-0.292 4.979,-1.297 7.568,-1.525c0.452,-0.04 1.467,0.256 1.152,0.015c1.116,0.854 1.633,1.846 3.033,2.482c3.923,1.784 11.704,-1.24 11.538,-6.229c-0.179,-5.342 -7.075,-5.982 -11.167,-5.592c-4.796,0.457 -10.802,2.511 -14.204,6.059c-1.97,2.056 -1.142,5.155 2.08,4.79Z" style="fill-rule:nonzero;"/><path d="M92.483,77.803c-2.463,9.209 -1.127,18.894 -0.939,28.305c0.207,10.433 -0.137,20.857 0.08,31.289c0.146,7.035 0.219,14.06 0.035,21.094c-0.09,3.422 -1.248,8.093 -0.36,11.329c1.137,4.147 10.376,0.388 9.178,-3.983c-0.318,-1.162 -1.13,-1.918 -2.206,-2.389c-1.66,-0.726 -3.606,0.055 -4.868,1.186c-1.026,0.92 -1.805,2.033 -2.137,3.395c-1.295,5.302 8.271,3.591 9.244,-0.398c0.753,-3.083 -0.288,-7.159 -0.374,-10.384c-0.19,-7.209 -0.574,-14.4 -1.063,-21.596c-0.656,-9.651 -0.794,-19.358 -1.757,-28.983c-0.957,-9.574 -1.09,-19.841 -4.026,-29.055c-0.111,-0.344 -0.743,-0.052 -0.807,0.19Z" style="fill-rule:nonzero;"/><path d="M122.021,72.823c-3.161,10.119 -1.326,21.161 -0.843,31.585c0.448,9.677 0.572,19.57 -0.004,29.25c-0.307,5.144 -1.19,10.691 -4.916,14.526c-4.35,4.478 -11.108,6.27 -16.725,8.482c-5.954,2.345 -3.182,8.57 2.707,6.238c11.994,-4.748 24.065,-11.389 26.029,-25.262c1.265,-8.932 0.41,-18.293 -0.313,-27.232c-0.546,-6.743 -1.501,-13.447 -2.154,-20.181c-0.583,-6.003 -0.719,-11.927 -2.055,-17.817c-0.174,-0.768 -1.579,-0.062 -1.726,0.411Z" style="fill-rule:nonzero;"/><path d="M19.902,49.829c-4.735,15.244 -5.694,31.68 -7.37,47.483c-1.731,16.323 -3.289,32.654 -4.698,49.009c-2.771,32.175 -4.483,64.416 -5.539,96.69c-2.071,63.335 -2.083,126.816 2.353,190.056c1.048,14.939 2.398,29.856 4.038,44.742c0.763,6.924 1.533,13.831 2.657,20.707c1.131,6.922 1.806,13.999 -1.742,20.354c3.779,-0.168 7.56,-0.336 11.34,-0.504c-0.024,-1.66 -0.051,-3.32 -0.078,-4.981c-0.101,-6.083 -11.863,-2.422 -11.949,2.803c-0.027,1.673 -0.054,3.346 -0.078,5.019c-0.089,6.288 10.571,2.019 11.914,-1.672c4.913,-13.504 0.216,-26.76 -1.369,-40.456c-1.791,-15.478 -3.182,-31 -4.318,-46.539c-2.319,-31.688 -3.357,-63.462 -3.664,-95.229c-0.616,-63.878 1.899,-127.65 6.24,-191.367c1.106,-16.242 2.33,-32.476 3.418,-48.72c1.048,-15.636 3.344,-32.108 0.85,-47.675c-0.164,-1.009 -1.783,-0.433 -2.005,0.28Z" style="fill-rule:nonzero;"/><path d="M101.426,172.36c-12.502,22.139 -13.137,49.443 -14.245,74.202c-1.357,30.307 -3.647,60.554 -5.31,90.847c-1.251,22.799 -3.395,45.785 -2.976,68.631c0.294,16.055 0.992,32.099 1.233,48.155c0.207,13.702 0.319,27.431 -0.28,41.125c-0.21,4.778 -0.272,9.81 -1.281,14.497c-0.355,1.654 -0.795,3.292 -1.378,4.881c-0.128,0.351 -1.033,2.184 -0.291,0.807c-0.093,0.166 -0.194,0.325 -0.304,0.479c0.716,-1.065 0.623,-0.972 2.634,-2.019c-2.11,1.099 -5.41,3.467 -4.161,6.346c1.155,2.663 5.366,2.395 7.478,1.295c4.714,-2.454 6.113,-6.232 6.814,-11.199c0.821,-5.818 1.11,-11.758 1.307,-17.624c0.578,-17.269 -0.077,-34.585 -0.707,-51.843c-0.528,-14.485 -1.18,-29.006 -1.213,-43.504c-0.024,-10.854 0.913,-21.746 1.448,-32.584c0.816,-16.533 1.677,-33.063 2.629,-49.59c1.454,-25.24 3.341,-50.406 4.079,-75.68c0.656,-22.494 1.745,-45.637 9.713,-66.914c1.087,-2.899 -4.232,-2.003 -5.189,-0.308Z" style="fill-rule:nonzero;"/><path d="M12.436,520.891c-1.699,4.391 8.548,7.646 11.286,8.453c7.101,2.094 14.415,3.047 21.798,3.353c10.001,0.415 30.938,-0.04 34.196,-12.653c1.086,-4.203 -4.081,-5.284 -7.022,-4.008c-1.484,0.644 -2.709,1.653 -3.707,2.912c-0.662,0.836 -1.416,3.217 -1.11,2.68c-0.22,0.387 -1.121,0.85 -3.22,1.461c-3.056,0.889 -6.217,1.27 -9.377,1.518c-7.484,0.587 -15.113,0.154 -22.519,-1.023c-3.2,-0.51 -6.448,-1.199 -9.516,-2.254c-2.282,-0.784 -5.313,-2.705 -7.729,-2.455c-1.272,0.13 -2.591,0.752 -3.08,2.016Z" style="fill-rule:nonzero;"/><path d="M117.131,171.547c9.356,18.946 10.527,41.272 11.088,62.016c0.765,28.292 0.659,56.492 2.32,84.773c1.899,32.328 3.757,64.592 4.646,96.968c0.446,16.236 0.743,32.477 0.787,48.72c0.042,15.359 0.945,30.827 0.721,46.164c-0.058,3.957 -1.074,8.176 -0.541,12.076c0.801,5.864 12.146,2.271 11.469,-2.69c-0.094,-0.688 -0.188,-1.378 -0.282,-2.067c-0.805,-5.893 -10.338,-1.86 -10.904,2.559c-0.095,0.732 -0.188,1.466 -0.282,2.199c-0.705,5.49 10.824,2.335 11.469,-2.69c0.298,-2.319 -0.123,-4.639 -0.35,-6.962c-0.409,-4.183 -0.484,-8.458 -0.759,-12.653c-1.046,-15.976 -0.639,-32.015 -0.791,-48.015c-0.309,-32.289 -1.239,-64.628 -3.226,-96.858c-2.002,-32.472 -4.593,-64.921 -5.038,-97.466c-0.304,-22.16 -0.009,-44.394 -4.917,-66.148c-1.808,-8.011 -5.406,-16.66 -12.094,-21.727c-1.022,-0.776 -4.091,0.233 -3.316,1.801Z" style="fill-rule:nonzero;"/><path d="M200.852,36.263c-3.39,31.831 3.342,63.788 4.554,95.594c1.26,33.081 1.438,66.195 1.948,99.294c0.508,32.939 1.74,65.851 1.804,98.801c0.063,32.707 -0.488,65.434 -1.839,98.113c-1.269,30.712 -2.787,61.514 -5.215,92.15c-0.449,5.666 11.161,2.396 11.566,-2.713c0.029,-0.365 0.058,-0.729 0.086,-1.094c0.441,-5.559 -12.194,-2.777 -11.738,2.754c0.028,0.351 0.057,0.701 0.086,1.053c0.486,5.902 11.983,2.359 11.566,-2.713c-0.691,-8.395 -0.224,-16.374 0.309,-24.802c1.039,-16.427 1.915,-32.862 2.653,-49.305c1.469,-32.698 2.44,-65.431 2.683,-98.161c0.243,-32.896 -0.599,-65.74 -1.389,-98.621c-0.794,-33.059 -1.044,-66.126 -2.162,-99.176c-1.272,-37.632 -6.364,-74.79 -10.842,-112.13c-0.261,-2.18 -3.892,-0.714 -4.07,0.956Z" style="fill-rule:nonzero;"/><path d="M140.144,519.861c-2.271,5.908 9.218,9.805 13.015,11.159c7.444,2.654 15.126,4.499 23.001,5.209c7.36,0.664 13.768,-0.074 20.192,-3.722c4.79,-2.72 11.88,-6.857 14.484,-11.942c1.268,-2.473 0.501,-4.27 -2.182,-5.027c-0.367,-0.158 -0.748,-0.234 -1.145,-0.228c-2.165,-0.13 -4.609,0.896 -4.962,3.259c-0.033,-0.008 -0.065,-0.015 -0.099,-0.021c0.918,-0.89 1.836,-1.779 2.754,-2.668c-3.799,1.277 -6.621,5.828 -9.853,8.258c-4.796,3.604 -7.9,4.609 -13.974,4.636c-6.868,0.028 -13.625,-1.433 -20.289,-2.925c-3.698,-0.829 -7.351,-1.842 -10.855,-3.29c-2.525,-1.043 -4.561,-3.183 -7.1,-3.994c-1.113,-0.357 -2.545,0.143 -2.987,1.296Z" style="fill-rule:nonzero;"/><path d="M27.091,502.317c14.901,13.756 42.673,8.66 57.183,-3.375c1.223,-1.014 1.576,-2.677 0.574,-3.92c-2.531,-3.142 -7.317,1.594 -9.305,2.994c-4.107,2.893 -9.063,4.451 -13.906,5.566c-10.463,2.408 -23.156,1.826 -33.105,-2.43c-0.558,-0.237 -2.153,0.508 -1.441,1.165Z" style="fill-rule:nonzero;"/><path d="M148.043,497.348c12.543,16.087 46.046,17.013 59.431,1.629c3.926,-4.512 -3.531,-6.192 -6.29,-2.914c-5.676,6.743 -15.538,7.584 -23.785,7.494c-9.397,-0.102 -19.875,-1.719 -27.668,-7.334c-0.658,-0.474 -2.35,0.277 -1.688,1.125Z" style="fill-rule:nonzero;"/><path d="M149.436,62.891c-4.003,8.954 -2.449,22.204 -0.224,31.485c1.865,7.773 6.184,14.661 13.101,18.797c5.335,3.189 12.224,3.411 18.242,3.051c3.133,-0.188 6.25,-0.605 9.376,-0.874c2.9,-0.249 6.682,0.577 9.423,-0.258c3.02,-0.919 9.264,-4.027 5.375,-8.197c-2.038,-2.186 -7.154,-1.435 -9.837,-1.263c-6.097,0.392 -12.235,1.929 -18.364,1.276c-7.455,-0.793 -11.94,-6.15 -15.093,-12.52c-2.596,-5.246 -3.597,-11.112 -4.304,-16.871c-0.617,-5.029 -0.276,-11.294 -2.811,-15.788c-1.115,-1.979 -4.196,-0.375 -4.884,1.162Z" style="fill-rule:nonzero;"/><path d="M12.253,120.928c3.313,6.461 18.285,2.786 23.438,1.195c9.733,-3.006 17.74,-10.104 22.017,-19.333c3.674,-7.929 5.012,-16.828 6.161,-25.434c0.722,-5.402 3.075,-16.994 -6.179,-14.929c-1.946,0.435 -4.461,1.892 -5.017,3.979c-0.19,0.713 -0.266,1.496 0.175,2.131c0.713,1.026 1.697,1.541 2.994,1.422c0.014,-0.001 -4.568,-5.56 -3.711,-1.025c0.188,0.996 0.194,1.979 0.194,2.992c0,2.764 -0.303,5.537 -0.604,8.28c-0.672,6.122 -1.704,12.297 -3.505,18.189c-2.057,6.73 -6.303,12.936 -12.941,15.772c-6.621,2.83 -13.632,2.018 -20.412,3.646c-1.106,0.268 -3.374,1.626 -2.61,3.115Z" style="fill-rule:nonzero;"/><path d="M90.304,69.547c-0.308,0.875 0.364,-0.96 -0.225,0.581c-0.145,0.38 -0.165,0.816 -0.229,1.22c-0.107,0.662 -0.18,1.316 -0.231,1.984c-0.056,0.73 -0.156,1.631 0.211,2.293c0.292,0.526 0.375,0.898 0.973,1.205c-0.491,-0.576 -0.656,-0.709 -0.495,-0.398c0.095,0.202 0.24,0.372 0.369,0.555c0.958,1.364 3.885,0.015 4.473,-1.084c0.105,-0.195 0.204,-0.394 0.296,-0.596c0.191,-0.496 0.222,-0.1 -0.383,0.485c0.458,-0.443 0.777,-1.006 0.905,-1.626c0.17,-0.826 0.256,-1.524 0.188,-2.366c-0.097,-1.201 -0.239,-2.367 -0.704,-3.478c-0.909,-2.17 -4.601,-0.332 -5.148,1.225Z" style="fill-rule:nonzero;"/><path d="M16.887,109.767c11.39,5.118 20.305,-2.932 24.88,-12.968c5.435,-11.923 5.557,-24.951 7.013,-37.691c-1.929,0.451 -3.856,0.904 -5.785,1.355c0.129,1.909 0.379,3.353 1.115,5.094c0.636,1.503 3.185,0.231 3.567,-0.849c0.684,-1.929 0.97,-3.58 1.103,-5.601c0.181,-2.773 -6.09,-1.344 -5.785,1.355c1.103,9.741 -0.906,20.736 -3.527,30.071c-2.936,10.462 -8.567,20.41 -20.877,17.179c-0.978,-0.254 -3.154,1.404 -1.704,2.055Z" style="fill-rule:nonzero;"/><path d="M163.372,58.851c-2.486,10.796 -1.867,26.167 4.696,35.55c7.276,10.402 21.562,10.369 32.848,8.756c3.71,-0.53 4.428,-5.377 -0.057,-4.742c-10.446,1.479 -22.441,1.501 -28.621,-8.536c-5.902,-9.586 -3.88,-20.949 -5.785,-31.46c-0.271,-1.49 -2.813,-0.737 -3.081,0.432Z" style="fill-rule:nonzero;"/><path d="M38.598,32.562c-3.434,6.551 -3.928,17.871 0.57,24.05c0.42,0.578 1.611,0.551 2.196,0.381c0.739,-0.215 1.288,-0.4 1.815,-0.98c0.396,-0.436 1.01,-1.276 0.609,-1.913c-4.179,-6.64 -2.346,-14.33 -2.427,-21.659c-0.013,-1.388 -2.362,-0.643 -2.763,0.121Z" style="fill-rule:nonzero;"/><path d="M44.285,36.855c-1.058,5.14 -4.463,25.328 3.958,25.914c0.787,0.056 1.606,-0.272 1.93,-1.039c0.76,-1.804 0.232,-2.466 -0.586,-4.249c-1.042,-2.271 -1.315,-4.869 -1.534,-7.327c-0.406,-4.553 0.387,-9.263 -0.511,-13.757c-0.309,-1.547 -2.997,-0.808 -3.257,0.458Z" style="fill-rule:nonzero;"/><path d="M155.217,34.177c0.783,4.609 1.704,9.089 2.018,13.768c0.321,4.79 -0.179,9.63 0.282,14.396c0.244,2.524 4.561,0.85 4.74,-1.111c0.81,-8.823 0.068,-20.021 -3.765,-28.142c-0.603,-1.277 -3.499,-0.234 -3.275,1.089Z" style="fill-rule:nonzero;"/><path d="M162.784,32.264c1.655,5.268 2.316,10.559 2.182,16.061c-0.131,5.367 -2.67,10.482 -2.494,15.793c0.048,1.438 2.193,0.465 2.653,-0.117c6.89,-8.73 5.534,-23.78 -0.134,-32.693c-0.573,-0.901 -2.537,-0.092 -2.207,0.956Z" style="fill-rule:nonzero;"/><path d="M174.258,146.219c-11.703,-2.545 -25.294,2.33 -35.395,8.09c-4.065,2.318 -8.081,4.732 -11.988,7.309c-2.596,1.713 -7.048,4.028 -8.111,7.149c-0.247,0.727 -0.109,1.495 0.441,2.043c1.197,1.19 2.859,1.142 4.32,0.446c1.044,-0.498 2.244,-1.635 1.352,-2.799c0.646,0.844 -4.733,4.074 -1.311,2.589c0.645,-0.28 1.675,-0.884 2.148,-1.421c0.848,-0.965 1.812,-1.794 2.816,-2.592c3.392,-2.689 6.993,-5.137 10.568,-7.575c10.291,-7.021 22.107,-11.287 34.598,-12.096c0.537,-0.033 1.5,-0.94 0.562,-1.143Z" style="fill-rule:nonzero;"/><path d="M157.161,163.955c-12.104,-0.507 -24.705,6.265 -35.401,11.232c1.089,1.55 2.179,3.099 3.268,4.647c1.976,-1.186 4.515,-3.076 4.432,-5.652c-0.024,-0.775 -0.644,-1.145 -1.321,-1.303c-3.029,-0.711 -5.052,1.304 -7.39,2.857c-4.774,3.173 0.435,6.609 4.279,4.098c10.105,-6.601 20.087,-11.406 31.87,-14.258c0.937,-0.226 1.648,-1.563 0.263,-1.621Z" style="fill-rule:nonzero;"/><path d="M35.614,153.617c9.965,-0.976 21.011,3.984 29.89,7.885c5.267,2.313 10.498,4.938 15.188,8.288c1.398,0.999 3.053,2.151 3.997,3.614c0.349,0.538 0.705,1.509 1.203,1.904c0.302,0.239 2.422,1.479 1.798,0.943c1.09,0.937 3.181,0.424 4.054,-0.605c3.466,-4.089 0.443,-6.525 -3.286,-9.235c-5.266,-3.826 -11.369,-6.521 -17.381,-8.929c-6.637,-2.658 -13.732,-4.926 -20.804,-6.056c-4.623,-0.738 -10.327,-1.538 -14.687,0.665c-0.71,0.359 -1.238,1.65 0.028,1.526Z" style="fill-rule:nonzero;"/><path d="M52.627,168.575c9.037,0.354 18.656,1.519 27.229,4.445c3.669,1.252 8.418,3.083 9.975,6.959c1.463,3.645 6.645,2.117 8.296,-0.401c4.279,-6.524 -14.067,-11.626 -17.644,-12.269c-9.074,-1.631 -18.218,-0.657 -27.336,-0.313c-0.997,0.039 -1.973,1.521 -0.52,1.579Z" style="fill-rule:nonzero;"/><path d="M16.172,316.188c0.758,6.462 6.08,12.401 9.754,17.574c-0.022,-0.834 -0.045,-1.668 -0.066,-2.501c-2.622,4.395 -12.404,15.802 -7.867,20.789c0.884,0.971 2.742,0.199 3.495,-0.522c2.695,-2.587 3.398,-6.045 5.079,-9.317c1.832,-3.565 4.024,-6.908 5.677,-10.569c0.289,-0.64 0.04,-1.346 -0.396,-1.832c-4.244,-4.74 -7.824,-10.786 -12.496,-15.001c-0.883,-0.797 -3.336,0.038 -3.18,1.379Z" style="fill-rule:nonzero;"/><path d="M68.111,323.819c-2.077,8.682 -9.699,13.914 -9.1,23.462c0.228,3.612 2.377,6.816 4.146,9.84c1.008,1.721 1.968,3.561 2.354,5.534c0.434,2.219 -0.549,3.936 1.496,5.385c1.133,0.803 2.489,0.287 3.466,-0.519c6.07,-5.005 -1.851,-13.985 -4.354,-18.979c-2.269,-4.526 -1.746,-9.141 0.628,-13.459c2.072,-3.771 3.578,-7.119 2.94,-11.485c-0.112,-0.777 -1.437,-0.361 -1.576,0.221Z" style="fill-rule:nonzero;"/><path d="M145.938,342.198c3.609,5.16 5.834,10.797 5.41,17.17c-0.206,3.095 -1.013,6.188 -1.652,9.215c-0.613,2.896 -2.309,6.319 0.297,8.468c1.036,0.854 2.618,0.285 3.495,-0.522c4.22,-3.887 3.479,-12.973 3.001,-18.365c-0.609,-6.879 -4.186,-11.997 -8.758,-16.939c-0.516,-0.56 -2.275,0.283 -1.793,0.973Z" style="fill-rule:nonzero;"/><path d="M194.602,348.087c-0.6,8.164 -7.981,27.346 1.15,32.812c0.863,0.517 2.459,-0.266 2.723,-1.182c1.383,-4.804 -0.986,-10.438 -0.799,-15.531c0.213,-5.801 0.625,-10.943 -0.504,-16.702c-0.262,-1.342 -2.49,-0.493 -2.57,0.603Z" style="fill-rule:nonzero;"/><path d="M39.901,29.979c13.455,-2.428 26.446,-5.885 40.123,-7.221c14.094,-1.378 28.484,-1.301 42.595,-0.197c11.218,0.876 22.106,3.419 33.115,5.569c3.671,0.717 7.325,1.528 10.948,2.458c1.456,0.374 2.885,0.895 4.286,1.435c0.598,0.229 1.173,0.515 1.76,0.77c2.205,0.958 -0.52,-0.585 0.953,-2.029c-2.063,2.022 0.076,3.537 2.232,3.222c2.296,-0.336 5.101,-2.461 3.99,-5.03c-1.178,-2.722 -6.089,-3.182 -8.552,-3.748c-11.364,-2.612 -22.969,-4.692 -34.519,-6.246c-16.405,-2.207 -33.382,-2.095 -49.854,-0.757c-15.788,1.283 -32.763,3.664 -47.547,9.535c-1.647,0.654 -1.436,2.583 0.47,2.239Z" style="fill-rule:nonzero;"/></g></svg>