<?xml version="1.0" encoding="UTF-8" standalone="no"?><!DOCTYPE svg PUBLIC "-//W3C//DTD SVG 1.1//EN" "http://www.w3.org/Graphics/SVG/1.1/DTD/svg11.dtd"><svg width="100%" height="100%" viewBox="0 0 523 488" version="1.1" xmlns="http://www.w3.org/2000/svg" xmlns:xlink="http://www.w3.org/1999/xlink" xml:space="preserve" style="fill-rule:evenodd;clip-rule:evenodd;stroke-linejoin:round;stroke-miterlimit:1.41421;"><g id="shirt"><path d="M193.5,26.175c2.796,16.208 16.331,29.574 26.588,41.622c5.956,6.996 12.231,13.727 18.321,20.607c2.185,2.47 4.484,4.909 6.429,7.574c1.366,1.872 1.321,3.758 4.028,5.385c4.324,2.6 10.388,-2.869 10.116,-7.273c-0.186,-3.005 -2.645,-4.623 -3.689,-5.719c-2.155,-2.256 -4.272,-4.548 -6.42,-6.813c-6.204,-6.542 -12.537,-12.963 -18.757,-19.491c-6.757,-7.09 -13.371,-14.27 -19.962,-21.512c-4.584,-5.038 -10.143,-10.259 -13.699,-16.079c-0.8,-1.308 -3.159,0.523 -2.955,1.699Z" style="fill-rule:nonzero;"/><path d="M322.556,16.922c-4.429,5.514 -7.725,12.08 -11.729,17.916c-5.584,8.14 -11.851,15.86 -18.587,23.071c-6.699,7.171 -13.747,14.28 -21.622,20.171c-2.715,2.03 -5.797,3.854 -8.89,5.396c-2.41,1.201 1.29,-0.479 -1.067,0.454c-0.697,0.275 -1.413,0.498 -2.13,0.718c-0.273,0.083 -2.473,0.432 -0.7,0.179c-1.304,0.186 -2.604,0.392 -3.882,0.737c-5.303,1.433 -11.825,13.103 -3.064,14.302c8.626,1.18 17.687,-5.604 24.104,-10.528c8.732,-6.703 16.55,-14.805 23.631,-23.2c6.985,-8.283 13.429,-17.103 19.212,-26.265c3.822,-6.058 10.316,-15.081 9.304,-22.729c-0.347,-2.613 -3.426,-1.66 -4.58,-0.222Z" style="fill-rule:nonzero;"/><path d="M187.02,24.282c6.209,-0.61 12.2,-3.627 18.09,-5.536c7.504,-2.432 15.181,-4.108 22.992,-5.158c15.281,-2.055 30.961,-1.39 46.271,-0.026c11.212,0.998 17.567,1.6 27.908,3.812c3.674,0.785 7.326,1.686 10.937,2.725c1.941,0.559 2.17,0.741 4.096,1.352c0.496,0.157 0.984,0.247 1.491,0.358c4.97,1.086 -0.436,-0.678 -0.894,-1.176c-0.272,-1.265 -0.545,-2.529 -0.816,-3.794c2.259,-3.024 2.777,-3.985 1.558,-2.886c-2.148,1.832 -3.126,5.206 -0.546,7.054c3.971,2.843 9.923,-1.176 10.548,-5.558c0.793,-5.557 -4.081,-7.055 -8.453,-8.27c-8.896,-2.469 -17.968,-3.673 -27.106,-4.621c-18.932,-1.964 -38.298,-2.717 -57.249,-0.627c-9.467,1.045 -18.917,3.368 -27.855,6.633c-7.783,2.844 -16.635,6.477 -22.053,13c-0.868,1.042 -0.528,2.876 1.081,2.718Z" style="fill-rule:nonzero;"/><path d="M186.002,21.389c-1.766,6.062 -3.723,12.205 -5.975,18.101c-1.031,2.702 -2.08,5.673 -3.613,8.139c-1.873,3.017 -4.697,4.544 -3.897,8.609c2.095,10.647 5.55,20.931 10.036,30.803c9.211,20.267 23.844,41.383 45.17,50.071c3.454,1.407 7.941,-0.076 9.961,-3.309c3.917,-6.276 7.495,-12.74 10.842,-19.338c2.305,-4.543 8.636,-13.374 5.985,-18.555c-1.49,-2.912 -4.846,-3.033 -7.476,-1.503c-5.762,3.353 -7.772,10.649 -10.613,16.327c-2.929,5.854 -5.905,11.759 -9.315,17.352c3.32,-1.103 6.64,-2.205 9.96,-3.309c-20.173,-7.91 -33.533,-27.291 -42.441,-46.204c-2.283,-4.849 -4.25,-9.849 -6.002,-14.912c-0.82,-2.372 -1.543,-4.776 -2.226,-7.192c-0.326,-1.152 -0.617,-2.313 -0.908,-3.475c-0.173,-0.689 -0.083,-3.381 -0.426,-1.427c1.875,-10.672 7.069,-20.029 3.756,-31.087c-0.478,-1.593 -2.559,0.02 -2.818,0.909Z" style="fill-rule:nonzero;"/><path d="M254.492,89.331c4.395,16.908 15.139,32.02 22.882,47.551c1.437,2.882 4.03,3.149 6.907,2.52c15.559,-3.406 28.283,-16.811 37.553,-28.937c9.018,-11.796 16.901,-25.496 22.33,-39.338c4.41,-11.243 6.66,-23.903 5.812,-35.97c-0.722,-10.264 -7.806,-28.581 -21.358,-23.598c-3.867,1.423 -7.084,5.699 -4.62,9.635c2.118,3.384 6.45,4.23 8.866,7.782c2.414,3.553 2.799,8.721 3.006,12.852c0.459,9.228 -1.435,19.233 -4.751,27.687c-4.534,11.563 -11.037,22.741 -18.23,32.828c-7.646,10.721 -16.751,19.972 -29.286,24.533c2.037,0.398 4.075,0.798 6.112,1.197c-11.353,-13.118 -19.591,-28.822 -31.406,-41.467c-1.594,-1.704 -4.296,0.884 -3.817,2.725Z" style="fill-rule:nonzero;"/><path d="M99.583,86.827c4.887,2.152 12.938,-1.133 17.763,-2.592c7.07,-2.136 14.073,-4.424 21.043,-6.867c6.522,-2.285 13.015,-4.66 19.454,-7.173c5.277,-2.059 12.784,-3.883 16.215,-8.613c2.048,-2.823 2.602,-8.174 -1.981,-8.875c-4.868,-0.745 -10.464,3.233 -14.904,5.102c-6.418,2.701 -12.916,5.213 -19.427,7.68c-6.989,2.647 -13.988,5.271 -20.987,7.896c-5.743,2.154 -13.323,4.293 -17.479,8.993c-1.001,1.13 -1.41,3.694 0.303,4.449Z" style="fill-rule:nonzero;"/><path d="M339.67,58.471c8.956,8.82 23.038,11.811 34.636,15.698c12.799,4.291 27.944,8.526 38.811,16.814c2.581,-4.241 5.162,-8.482 7.744,-12.724c-4.799,-0.506 -7.402,-0.863 -11.533,2.189c-1.784,1.318 -2.955,4.098 -2.177,6.246c1.184,3.264 4.242,4.398 7.466,4.81c3.265,0.415 6.394,-1.21 8.354,-3.795c1.736,-2.29 3.052,-7.478 -0.609,-8.929c-6.261,-2.48 -12.205,-5.701 -18.498,-8.156c-6.818,-2.66 -13.799,-4.92 -20.78,-7.108c-13.038,-4.086 -26.688,-9.306 -40.428,-9.896c-1.912,-0.08 -4.731,3.131 -2.986,4.851Z" style="fill-rule:nonzero;"/><path d="M116.95,197.381c-8.063,15.979 -8.157,35.471 -8.357,53.03c-0.222,19.388 0.485,38.907 1.853,58.244c1.591,22.486 3.274,44.992 3.375,67.545c0.052,11.404 -0.308,22.81 -1.157,34.183c-0.884,11.824 -3.138,23.162 -5.365,34.76c4.481,-0.905 8.963,-1.811 13.443,-2.716c-0.165,-1.78 -0.55,-3.494 -0.991,-5.225c-1.671,-6.546 -10.891,-0.061 -11.755,3.788c-0.313,1.391 -0.572,2.729 -0.697,4.152c-0.84,9.568 11.777,5.914 13.306,-1.078c4.664,-21.343 4.974,-44.366 4.706,-66.116c-0.277,-22.582 -1.885,-45.137 -3.577,-67.647c-2.823,-37.532 -5.646,-75.343 0.419,-112.678c0.594,-3.666 -4.094,-2.441 -5.203,-0.242Z" style="fill-rule:nonzero;"/><path d="M395.228,200.173c-3.977,19.353 -3.477,39.563 -3.918,59.239c-0.465,20.659 -0.342,41.346 -0.374,62.009c-0.031,20.03 -0.17,40.061 -0.19,60.092c-0.01,10.014 -0.047,20.026 -0.104,30.04c-0.063,10.698 0.719,21.86 -0.47,32.499c4.533,-0.916 9.067,-1.832 13.601,-2.747c-0.388,-3.81 -1.593,-5.514 -4.549,-7.793c-2.763,-2.13 -6.846,1.407 -8.034,3.65c-1.594,3.006 -1.586,5.273 -1.157,8.547c1.153,8.823 14.594,2.71 13.74,-4.404c-1.169,-9.746 -0.588,-19.908 -0.759,-29.72c-0.172,-9.942 -0.37,-19.885 -0.551,-29.826c-0.37,-20.549 -0.761,-41.096 -1.223,-61.642c-0.446,-19.9 -0.503,-39.82 -0.556,-59.726c-0.055,-20.095 1.287,-41.037 -2.073,-60.902c-0.352,-2.076 -3.077,-0.805 -3.383,0.684Z" style="fill-rule:nonzero;"/><path d="M255.452,99.227c-1.705,13.348 -1.285,26.693 -1.505,40.137c-0.237,14.521 -0.056,29.047 0.036,43.569c0.181,28.333 0.787,56.666 1.084,84.999c0.293,27.997 0.574,56.017 0.293,84.015c-0.144,14.25 -1.303,28.206 -3.991,42.205c-0.765,3.981 -1.458,7.973 -2.324,11.934c-0.375,1.715 -0.645,3.538 -1.293,5.173c-0.379,0.954 -0.864,1.843 -1.124,2.846c-0.464,1.795 0.15,-0.702 2.086,-1.818c1.212,-0.247 2.425,-0.494 3.637,-0.74c-0.081,-0.016 -0.162,-0.031 -0.244,-0.047c-4.943,-0.946 -10.434,8.013 -4.328,9.182c8.669,1.659 9.453,-11.054 10.147,-16.47c1.426,-11.123 3.121,-22.22 3.784,-33.421c1.752,-29.588 0.396,-59.567 0.119,-89.195c-0.284,-30.284 -0.802,-60.566 -1.254,-90.849c-0.225,-15.108 -0.523,-30.219 -0.852,-45.325c-0.337,-15.502 0.013,-31.277 -2.107,-46.631c-0.181,-1.306 -2.038,-0.545 -2.164,0.436Z" style="fill-rule:nonzero;"/><path d="M107.075,453.501c3.438,3.285 8.542,3.961 13.094,4.518c6.666,0.814 13.497,0.886 20.202,0.711c16.089,-0.42 32.077,-2.662 47.763,-6.209c14.791,-3.344 29.478,-8.126 42.797,-15.467c9.023,-4.974 24.049,-14.605 23.45,-26.423c-0.179,-3.529 -4.475,-1.858 -5.849,-0.284c-3.073,3.522 -5.689,7.514 -9.115,10.729c-4.172,3.914 -9.091,6.891 -14.123,9.555c-12.434,6.582 -26.29,10.592 -39.939,13.738c-14.168,3.267 -28.711,5.308 -43.225,6.15c-6.204,0.361 -12.383,0.422 -18.594,0.253c-4.917,-0.134 -9.841,-0.813 -14.727,-0.087c-0.993,0.148 -2.874,1.728 -1.734,2.816Z" style="fill-rule:nonzero;"/><path d="M252.621,408.551c-2.919,9.454 10.537,17.813 17.168,21.688c11.051,6.459 23.049,11.891 34.904,16.637c29.608,11.852 61.432,17.549 93.302,14.926c4.476,-0.369 8.954,-6.422 4.643,-9.811c-3.796,-2.983 -6.296,-1.573 -10.565,-1.662c-2.145,-0.046 -5.22,3.422 -3.313,5.383c0.828,0.852 1.362,1.829 2.168,2.699c1.209,1.307 3.223,1.82 4.627,2.932c1.548,-3.271 3.095,-6.54 4.643,-9.811c-29.82,2.366 -59.274,-2.422 -87.358,-12.531c-11.567,-4.164 -22.903,-9.223 -34.104,-14.294c-4.64,-2.101 -9.181,-4.436 -13.399,-7.3c-4.224,-2.866 -5.968,-7.01 -9.542,-10.278c-1.189,-1.084 -2.795,0.195 -3.174,1.422Z" style="fill-rule:nonzero;"/><path d="M417.041,84.122c-4.737,-0.152 -9.578,3.742 -12.99,6.651c-4.912,4.188 -8.631,9.633 -12.046,15.049c-7.517,11.924 -12.823,26.153 -16.246,39.771c-3.386,13.472 -2.92,28.218 4.718,40.116c2.97,4.627 6.737,8.689 9.792,13.26c2.896,4.333 3.11,7.803 0.992,12.423c-0.587,1.28 -0.843,3.17 0.271,4.285c0.571,0.571 1.091,0.796 1.854,1.017c1.498,0.434 3.695,-0.474 4.722,-1.55c7.78,-8.157 5.589,-17.231 -0.437,-25.627c-3.001,-4.181 -6.47,-7.985 -9.305,-12.292c-3.634,-5.52 -4.545,-12.615 -4.783,-19.057c-0.534,-14.373 5.528,-29.394 11.259,-42.346c2.56,-5.784 5.383,-11.336 9.174,-16.419c3.921,-5.259 8.857,-8.077 13.684,-12.219c1.21,-1.037 1.198,-3.003 -0.659,-3.062Z" style="fill-rule:nonzero;"/><path d="M94.666,84.776c1.077,2.819 6.744,5.118 9.191,6.938c3.757,2.792 6.792,6.817 9.397,10.652c6.09,8.963 9.236,20.233 10.985,30.808c3.035,18.351 3.399,44.439 -9.853,58.653c-2.157,2.314 -2.51,6.935 0.589,8.611c3.402,1.843 7.339,-0.574 9.503,-3.157c14.871,-17.739 15.039,-46.201 10.984,-67.705c-2.266,-12.015 -6.373,-23.598 -13.438,-33.655c-3.152,-4.49 -7.19,-8.24 -11.873,-11.094c-3.722,-2.268 -10.18,-4.695 -14.305,-2.491c-0.799,0.426 -1.537,1.508 -1.18,2.44Z" style="fill-rule:nonzero;"/><path d="M95.592,79.471c-3.01,1.388 -5.332,4.508 -7.873,6.619c-3.129,2.6 -6.605,4.81 -10.015,7.016c-8.136,5.265 -15.545,11.467 -23.255,17.326c-16.613,12.629 -33.212,25.173 -49.559,38.146c-2.93,2.325 -5.291,10.502 0.686,10.853c2.662,0.157 4.881,0.066 7.436,-0.791c3.021,-1.013 5.686,-3.589 6.366,-6.767c0.693,-3.237 -1.706,-6.672 -5.294,-6.033c-1.336,0.238 -2.646,0.301 -3.998,0.409c0.784,3.644 1.568,7.286 2.354,10.93c15.242,-14.964 33.155,-27.345 49.783,-40.7c7.449,-5.983 14.69,-12.098 22.323,-17.843c4.444,-3.345 15.837,-11.21 14.519,-17.897c-0.365,-1.851 -1.974,-1.958 -3.473,-1.268Z" style="fill-rule:nonzero;"/><path d="M417.261,80.78c2.896,4.794 8.06,8.521 12.258,12.15c5.023,4.344 9.979,8.768 14.993,13.122c9.89,8.589 19.953,16.95 30.326,24.95c8.167,6.299 17.056,13.074 24.533,19.357c2.656,2.231 5.241,4.551 7.78,6.914c0.914,0.85 1.672,1.875 2.44,2.854c0.539,0.688 1.144,1.251 1.971,1.576c3.193,1.254 0.201,0.097 -0.293,-0.525c0.181,-2.345 0.361,-4.688 0.542,-7.033c2.076,-2.918 -0.611,0.811 -0.781,1.219c1.103,-2.654 10.436,8.235 11.513,0.701c0.228,-1.591 0.085,-2.686 -0.372,-4.235c-0.706,-2.392 -6.007,-5.499 -7.895,-7.089c-7.725,-6.509 -15.919,-12.493 -24.124,-18.373c-11.905,-8.531 -23.694,-17.182 -35.211,-26.232c-5.726,-4.5 -11.399,-9.029 -17.349,-13.231c-5.337,-3.768 -11.347,-8.189 -17.917,-9.288c-1.656,-0.279 -3.322,1.659 -2.414,3.163Z" style="fill-rule:nonzero;"/><path d="M0.542,156.665c1.432,8.947 9.115,17.684 14.046,25.025c6.255,9.313 12.63,18.557 18.991,27.796c4.116,5.98 8.564,11.66 13.394,17.07c1.787,2.002 3.573,4.005 5.38,5.989c1.097,1.204 2.079,2.945 3.588,3.677c2.99,1.45 6.809,-0.278 8.607,-2.859c0.007,-0.01 0.014,-0.02 0.021,-0.029c1.537,-2.206 2.102,-4.621 0.535,-6.946c-0.807,-1.197 -2.245,-1.684 -3.618,-1.769c-3.25,-0.201 -7.021,1.941 -7.559,5.45c-0.23,1.508 -0.283,2.674 0.27,4.105c0.824,-2.368 1.65,-4.736 2.475,-7.104c-0.008,0.008 -0.017,0.017 -0.025,0.025c2.813,-0.229 5.625,-0.456 8.438,-0.684c-8.57,-6.839 -16.156,-15.792 -22.942,-24.44c-3.047,-3.884 -5.909,-7.908 -8.657,-12.008c-3.063,-4.569 -7.252,-8.682 -10.686,-13.001c-3.078,-3.871 -6.079,-7.802 -9.085,-11.729c-2.911,-3.804 -6.229,-8.272 -10.603,-10.418c-1.055,-0.514 -2.765,0.637 -2.57,1.85Z" style="fill-rule:nonzero;"/><path d="M60.686,236.934c13.25,-2.267 21.4,-15.155 31.98,-22.021c3.36,-2.18 6.708,-4.378 10.047,-6.589c3.576,-2.369 6.799,-4.803 9.777,-6.227c2.313,-1.105 5.512,-5.328 3.902,-8.058c-0.053,-0.089 -0.105,-0.179 -0.158,-0.269c-0.811,-1.375 -1.848,-2.089 -3.519,-1.963c-1.528,0.114 -2.702,0.865 -3.864,1.781c-2.893,2.279 -2.797,7.245 1.553,7.211c-0.867,-0.336 -1.734,-0.673 -2.602,-1.009c2.354,-2.526 4.709,-5.054 7.063,-7.579c-0.074,-0.056 -0.148,-0.11 -0.222,-0.166c-2.79,-2.074 -6.73,0.883 -8.497,2.823c-0.591,0.649 -1.591,1.187 0.411,-0.232c-0.638,0.451 -1.279,0.895 -1.92,1.339c-1.748,1.213 -3.51,2.405 -5.273,3.596c-3.324,2.247 -6.67,4.464 -10.006,6.694c-4.668,3.122 -8.632,7.044 -12.793,10.806c-5.766,5.212 -12.346,9.952 -17.522,15.74c-1.304,1.462 -0.789,4.539 1.643,4.123Z" style="fill-rule:nonzero;"/><path d="M383.458,183.277c5.476,9.595 16.178,16.962 24.303,24.211c4.407,3.932 9.018,7.794 13.006,12.157c1.838,2.01 2.776,4.59 4.521,6.562c1.763,1.993 3.421,4.045 4.989,6.195c1.136,1.558 3.635,1.571 5.258,1.03c2.457,-0.819 3.707,-2.249 5.013,-4.398c0.97,-1.597 0.83,-3.915 -0.339,-5.348c-3.245,-3.979 -6.677,-6.452 -10.976,-9.134c-4.86,-3.032 -9.231,-7.305 -13.765,-10.814c-4.913,-3.804 -9.879,-7.537 -14.786,-11.348c-4.831,-3.752 -9.532,-8.172 -14.885,-11.166c-1.01,-0.565 -2.988,0.913 -2.339,2.053Z" style="fill-rule:nonzero;"/><path d="M445.282,239.676c5.3,-6.126 9.429,-12.646 15.516,-18.16c6.019,-5.454 12.383,-10.484 18.346,-16.006c14.854,-13.758 28.645,-29.363 41.86,-44.684c1.858,-2.154 2.339,-6.229 -0.531,-7.782c-2.963,-1.604 -6.784,0.42 -8.59,2.853c-1.398,1.885 -2.424,3.729 -2.739,6.08c-0.261,1.931 0.903,4.003 3.167,3.609c2.971,-0.516 5.047,-1.635 7.457,-3.436c-2.216,-2.525 -4.433,-5.052 -6.648,-7.577c-7.391,7.555 -13.998,16.014 -20.987,23.948c-7.079,8.037 -14.462,15.717 -22.188,23.132c-6.237,5.985 -13.12,11.237 -19.18,17.421c-4.929,5.029 -12.194,12.639 -10.89,20.338c0.523,3.089 3.949,1.948 5.407,0.264Z" style="fill-rule:nonzero;"/><path d="M168.542,296.167c-0.133,-0.081 -0.266,-0.162 -0.398,-0.243c-1.017,-0.398 -0.978,-0.328 0.118,0.21c-0.516,-0.836 -1.922,-1.073 -2.79,-0.994c-9.698,0.889 -16.384,13.498 -11.958,22.111c2.166,4.215 6.443,7.765 11.266,8.211c6.526,0.605 12.14,-2.561 16.264,-7.426c6.9,-8.142 4.071,-21.412 -6.18,-24.735c-4.939,-1.602 -9.693,0.562 -13.646,3.403c-4.874,3.506 -7.713,11.992 -3.866,16.994c3.984,5.181 12.77,-0.253 14.574,-4.779c0.801,-2.012 1.158,-3.557 1.269,-5.701c-0.095,1.859 -1.143,3.099 -2.422,4.375c-0.804,0.714 -1.712,1.248 -2.724,1.602c-1.448,0.23 -1.714,0.307 -0.797,0.229c-1.256,-0.091 -1.452,-0.069 -0.588,0.066c-1.716,-0.324 -0.464,-0.177 0.14,0.14c0.678,0.448 0.638,0.383 -0.12,-0.194c0.292,0.264 0.564,0.548 0.816,0.851c0.48,0.664 0.492,0.64 0.037,-0.074c0.197,0.391 0.365,0.794 0.502,1.21c0.153,0.414 0.117,0.962 0.157,0.576c-0.222,0.968 -0.198,1.008 0.074,0.122c0.165,-0.24 0.329,-0.48 0.493,-0.721c-0.644,0.825 -0.558,0.742 0.26,-0.25c0.471,-0.458 1.02,-0.777 1.648,-0.957c-0.883,0.263 -0.88,0.277 0.008,0.045c-0.864,0.035 -0.939,0.047 -0.225,0.033c-0.495,-0.057 -0.98,-0.155 -1.46,-0.295c-0.906,-0.223 -2.602,-2.115 -3.123,-3.322c-0.416,-0.961 -0.081,-2.283 0.202,-2.992c0.504,-1.267 2.57,-2.858 2.841,-4.855c-0.544,0.885 -1.088,1.769 -1.632,2.652c0.305,-0.296 0.61,-0.59 0.918,-0.883c1.177,-1.124 2.118,-3.326 0.342,-4.409Z" style="fill-rule:nonzero;"/><path d="M317.391,191.061c-6.355,-0.668 -11.07,6.209 -11.645,12.01c-0.583,5.89 1.985,11.453 7.496,14.053c8.686,4.098 18.432,-2.928 21.374,-11.141c2.283,-6.369 2.896,-15.683 -4.103,-19.478c-4.601,-2.495 -9.807,-0.809 -14.202,1.163c-4.081,1.83 -8.302,5.264 -9.27,9.784c-1.003,4.678 1.869,9.194 6.705,9.726c5.846,0.643 12.31,-4.369 12.039,-10.564c-0.064,-1.46 -0.315,-3.148 -1.439,-4.231c-1.34,-1.292 0.102,-0.389 0.281,1.518c-1.342,2.795 -2.683,5.591 -4.023,8.386c-2.6,1.934 0.342,-0.133 1.099,-0.519c-2.561,1.307 -1.386,0.595 -0.644,0.347c1.433,-0.479 -2.486,0.283 -0.476,0.117c1.377,-0.113 -2.202,-0.225 -0.899,-0.023c1.18,0.183 -2.065,-0.957 -0.589,-0.188c0.585,0.305 1.279,1.024 -0.654,-0.609c0.278,0.235 0.507,0.525 0.726,0.814c0.741,0.981 -0.99,-1.81 -0.432,-0.686c0.133,0.268 0.232,0.55 0.332,0.83c0.73,2.051 -0.113,-1.683 0.082,0.567c0.029,0.331 0.03,0.665 0.031,0.997c0.011,1.91 0.212,-1.66 0.05,-0.355c-0.104,0.845 -0.994,3.617 0.06,0.576c-0.289,0.832 -1.592,3.019 0.195,0.096c-0.166,0.271 -0.359,0.525 -0.555,0.776c-0.871,1.128 2.089,-1.963 0.585,-0.694c2.228,-1.88 1.755,-1.188 0.965,-0.754c1.629,-0.671 2.039,-0.86 1.23,-0.567c-0.771,0.214 -0.387,0.145 1.149,-0.208c-0.577,0.098 -1.81,-0.021 0.619,0.123c-0.503,-0.03 -0.983,-0.094 -1.477,-0.197c-1.419,-0.297 1.53,0.635 0.078,0.054c-0.445,-0.179 -0.868,-0.407 -1.29,-0.634c-0.923,-0.494 -1.27,-1.458 -1.696,-2.704c0.277,0.811 -0.057,-0.969 -0.058,-1.011c-0.026,-0.393 -0.042,-0.786 -0.048,-1.18c-0.084,0.516 -0.072,0.443 0.033,-0.218c0.08,-0.497 0.263,-0.978 0.397,-1.462c0.135,-0.525 0.157,-1.049 0.067,-1.57c-0.263,-1.533 -0.311,-1.447 -0.141,0.258c0.341,-1.362 -0.424,-3.042 -1.952,-3.202Z" style="fill-rule:nonzero;"/><path d="M170.62,138.55c-6.237,3.442 -9.314,11.192 -5.268,17.429c1.983,3.057 5.281,5.459 8.894,6.11c8.251,1.488 15.81,-4.863 19.451,-11.668c3.124,-5.841 2.419,-14.634 -4.596,-17.258c-5.083,-1.901 -11.558,-1.92 -16.438,0.582c-4.338,2.223 -10.085,8.056 -7.68,13.526c0.653,1.486 1.69,2.861 3.247,3.494c1.549,0.63 2.577,0.941 4.284,0.803c0.739,-0.149 1.479,-0.299 2.22,-0.447c-1.724,0.26 -2.183,0.358 -1.379,0.296c5.721,-0.369 11.091,-6.497 9.424,-12.227c-0.198,-0.702 -0.123,-0.293 0.225,1.229c-0.059,-1.364 -0.527,-2.567 -1.406,-3.611c-0.854,-0.92 -0.246,-0.596 0.262,0.844c0.076,1.369 0.152,2.738 0.229,4.107c-0.198,0.587 -0.397,1.174 -0.597,1.762c-1.029,1.348 -2.059,2.696 -3.087,4.045c0.08,-0.082 0.161,-0.164 0.242,-0.245c-1.112,1.047 -2.452,1.647 -4.019,1.805c0.659,-0.125 1.326,-0.207 1.993,-0.278c0.584,-0.063 1.171,-0.08 1.758,-0.086c1.464,-0.016 -2.226,-0.232 -0.237,0.041c0.328,0.045 0.649,0.122 0.971,0.201c1.226,0.303 -2.047,-0.875 -0.516,-0.14c0.621,0.299 1.668,1.25 -0.466,-0.507c0.241,0.199 0.445,0.438 0.641,0.682c0.696,0.869 -1.034,-1.881 -0.532,-0.894c0.135,0.266 0.223,0.553 0.304,0.839c-0.706,-2.485 -0.283,-1.579 -0.233,-0.802c0.1,1.577 0.256,-2.063 0.117,-0.896c-0.105,0.883 -0.896,3.064 0.243,-0.182c-0.335,0.953 -1.815,3.172 0.166,0.075c-0.546,0.853 -2.341,2.608 0.355,-0.166c-0.247,0.255 -0.518,0.486 -0.79,0.712c-1.051,0.871 2.486,-1.633 0.919,-0.681c-0.61,0.371 -1.853,0.874 1.161,-0.457c-0.316,0.14 -0.647,0.241 -0.98,0.334c2.684,-0.752 1.617,-0.279 0.795,-0.217c-1.139,0.086 2.266,0.247 0.629,0.021c-0.272,-0.037 -0.539,-0.11 -0.804,-0.184c2.246,0.616 0.986,0.353 0.368,0.031c-0.381,-0.197 -0.73,-0.447 -1.074,-0.7c2.607,1.92 -1.418,-1.177 -1.057,-0.938c-1.729,-1.15 0.531,0.717 -0.646,-0.583c0.34,0.687 0.362,0.708 0.068,0.066c0.181,1.223 0.1,0.912 -0.242,-0.932c0.155,0.855 0.196,0.943 0.123,0.266c-0.119,0.885 -0.129,0.984 -0.031,0.298c-0.089,0.606 0.303,-3.837 0.039,-1.565c0.51,-4.396 -3.505,-5.89 -7.05,-3.934Z" style="fill-rule:nonzero;"/><path d="M336.409,335.011c-7.341,0.093 -11.76,9.85 -11.488,16.08c0.312,7.166 6.729,11.926 13.424,12.575c3.768,0.366 7.793,-1.289 9.959,-4.524c5.116,-7.641 7.454,-18.746 -1.135,-24.922c-3.446,-2.479 -8.062,-2.932 -12.167,-2.497c-7.231,0.767 -15.259,8.901 -11.4,16.563c3.013,5.981 10.877,3.208 14.086,-1.142c1.643,-2.226 2.229,-4.3 2.829,-6.88c-0.679,1.436 -1.358,2.873 -2.037,4.31c0.127,-0.186 0.254,-0.371 0.38,-0.557c-2.83,1.645 -5.661,3.288 -8.492,4.933c0.948,-0.174 1.873,-0.299 2.834,-0.373c-1.267,0.099 0.947,0.126 1.123,0.158c-1.318,-0.246 0.413,0.197 0.738,0.374c0.734,0.487 0.735,0.485 0.002,-0.007c0.296,0.305 0.563,0.633 0.802,0.983c-0.952,-1.276 -0.056,0.288 0.065,0.672c-0.474,-1.498 -0.085,0.476 -0.081,0.803c-0.017,-1.619 -0.237,0.697 -0.298,0.936c0.354,-1.406 -0.752,1.54 -0.93,1.886c3.052,-2.199 6.104,-4.399 9.155,-6.6c-2.144,0.067 -3.58,-0.888 -4.319,-2.419c-1.158,-2.397 0.984,-4.021 0.51,-7.481c-0.272,-1.982 -1.618,-2.895 -3.56,-2.871Z" style="fill-rule:nonzero;"/><path d="M201.884,442.04c0.146,-1.345 0.196,-2.328 0.3,-3.498c0.025,-0.296 0.479,-1.788 -0.028,-0.405c0.149,-0.406 0.945,-1.636 -0.083,-0.041c0.789,-1.225 -1.25,1.121 -0.164,0.175c-1.459,1.272 -0.749,0.532 -0.163,0.23c-1.702,0.876 -0.595,0.305 -0.083,0.16c-1.694,0.479 -0.467,0.103 -0.004,0.049c0.423,-0.048 0.847,-0.056 1.271,-0.061c-1.646,0.019 -0.32,0.005 0.067,0.056c0.404,0.054 0.8,0.15 1.194,0.247c1.335,0.329 -1.212,-0.517 -0.016,0.024c0.326,0.148 0.629,0.34 0.929,0.534c-1.309,-0.847 -0.606,-0.503 -0.236,-0.097c1.078,1.184 2.052,1.611 3.558,2.133c4.015,1.391 8.631,-3.303 9.426,-6.797c2.046,-8.993 -10.783,-9.673 -16.42,-7.938c-7.064,2.174 -15.255,12.45 -8.055,19.042c2.825,2.586 8.116,-0.199 8.507,-3.813Z" style="fill-rule:nonzero;"/><path d="M450.483,129.857c-5.138,3.427 -8.057,9.562 -6.171,15.653c1.293,4.178 5.813,7.643 10.024,8.469c7.786,1.526 15.523,-5.968 16.202,-13.436c0.325,-3.577 -0.231,-6.799 -2.494,-9.693c-2.593,-3.318 -6.935,-4.086 -10.862,-4.189c-2.305,-0.06 -4.688,0.521 -6.894,1.094c-4.694,1.219 -9.247,7.867 -7.359,12.732c1.601,4.125 5.826,5.492 9.683,3.291c2.074,-1.184 4.431,-3.591 4.67,-6.067c0.125,-1.292 0.356,-2.419 -0.145,-3.68c-0.991,-2.497 0.251,1.397 -1.151,3.094c-1.665,1.196 -3.33,2.394 -4.994,3.591c0.201,-0.055 2.303,-0.531 0.619,-0.203c0.545,-0.106 1.098,-0.166 1.648,-0.223c0.498,-0.052 0.998,-0.056 1.496,-0.057c-1.711,0.004 -0.334,0.022 0.067,0.084c0.395,0.062 0.779,0.171 1.162,0.283c-1.635,-0.477 -0.578,-0.169 -0.169,0.041c0.382,0.195 1.338,0.941 -0.118,-0.222c0.249,0.198 0.466,0.434 0.682,0.667c0.21,0.228 0.385,0.484 0.559,0.74c-0.997,-1.464 -0.44,-0.715 -0.239,-0.254c0.121,0.277 0.206,0.569 0.29,0.859c-0.5,-1.722 -0.164,-0.865 -0.101,-0.35c0.037,0.301 0.04,0.605 0.043,0.908c0.012,1.198 0.203,-1.638 0.044,-0.45c-0.041,0.299 -0.112,0.592 -0.184,0.885c-0.29,1.192 0.64,-1.693 0.194,-0.558c-0.765,1.954 0.939,-1.149 -0.014,0.131c-0.751,1.01 1.521,-1.503 0.607,-0.649c-0.908,0.849 1.788,-1.162 0.73,-0.513c-1.02,0.625 1.826,-0.697 0.687,-0.308c-1.102,0.377 1.747,-0.247 0.563,-0.131c-1.154,0.114 1.56,0.172 0.36,0.017c-0.371,-0.048 -1.476,-0.411 0.081,0.133c-1.715,-0.6 -3.7,-1.797 -4.365,-3.202c-0.846,-1.79 -0.289,-3.438 0.137,-5.534c0.648,-3.187 -2.863,-4.571 -5.288,-2.953Z" style="fill-rule:nonzero;"/><path d="M53.065,126.274c-2.587,0.299 -4.585,2.646 -5.987,4.663c-2.041,2.937 -2.301,6.562 -0.705,9.77c2.229,4.481 7.721,7.694 12.638,8.38c8.926,1.245 16.049,-5.604 16.383,-14.307c0.199,-5.201 -2.573,-11.211 -6.265,-14.78c-5.833,-5.642 -14.067,-4.86 -19.876,0.552c-3.585,3.34 -7.346,8.385 -6.038,13.485c0.888,3.46 5.951,3.168 8.246,1.658c1.646,-1.082 2.774,-2.118 4.035,-3.639c0.449,-0.688 0.87,-1.392 1.263,-2.112c0.804,-1.447 -0.989,1.533 -0.119,0.227c0.355,-0.533 0.756,-1.035 1.172,-1.521c-2.535,2.965 2.089,-1.334 -1.277,1.066c0.617,-0.439 2.285,-1.076 -0.385,0.033c1.648,-0.686 -1.077,0.1 -0.391,-0.003c1.65,-0.249 -0.986,-0.151 -0.316,-0.086c0.635,0.063 2.254,0.689 0.063,-0.126c0.778,0.289 1.487,0.745 2.147,1.241c-1.783,-1.34 -0.458,-0.331 -0.062,0.061c0.392,0.388 0.748,0.809 1.093,1.237c0.295,0.367 0.563,0.754 0.826,1.145c0.825,1.226 -0.699,-1.332 0.194,0.37c0.486,0.926 0.875,1.899 1.2,2.893c0.143,0.438 0.258,0.883 0.364,1.33c-0.519,-2.173 -0.122,-0.551 -0.054,-0.009c0.053,0.417 0.071,0.836 0.079,1.256c0.034,1.835 0.239,-1.438 0.01,-0.063c-0.278,1.671 0.505,-1.183 0.235,-0.485c-0.643,1.671 1.173,-1.563 0.301,-0.451c1.228,-1.262 1.566,-1.627 1.014,-1.097c-0.805,0.765 1.997,-1.331 1.047,-0.733c-0.918,0.576 2.05,-0.826 1.014,-0.429c-0.524,0.201 -1.595,0.344 0.885,-0.127c-0.434,0.082 -0.878,0.091 -1.318,0.09c2.355,0.007 0.412,-0.026 -0.182,-0.112c-0.62,-0.09 -1.229,-0.244 -1.833,-0.406c-0.285,-0.075 -1.636,-0.529 -0.171,-0.016c-0.576,-0.201 -1.131,-0.441 -1.69,-0.683c-1.162,-0.501 -2.239,-1.11 -3.266,-1.849c-1.396,-1.003 0.326,0.442 -0.752,-0.674c-0.005,-0.006 -0.983,-1.368 -0.509,-0.563c-0.146,-0.276 -0.266,-0.563 -0.357,-0.861c-0.201,-0.334 -0.402,-0.669 -0.604,-1.003c0.152,0.438 0.165,0.403 0.035,-0.102c-0.053,-0.261 0.162,-1.471 -0.16,-2.143c-0.361,-0.756 -1.078,-1.176 -1.927,-1.077Z" style="fill-rule:nonzero;"/><path d="M396.921,249.015c-7.076,-3.538 -14.995,5.224 -15.881,11.613c-0.906,6.546 3.536,17.562 11.654,16.366c3.389,-0.499 8.424,-3.971 7.6,-8.077c-0.812,-4.045 -4.503,-5.7 -5.949,-9.135c-0.625,-1.486 -0.521,-1.326 -0.146,-2.684c-0.156,0.564 -1.278,1.564 -0.152,0.594c0.766,-0.661 1.628,-1.178 2.351,-1.905c1.598,-1.61 3.456,-5.305 0.523,-6.772Z" style="fill-rule:nonzero;"/><path d="M361.059,455.344c0.939,-1.044 1.673,-2.226 2.396,-3.428c-0.161,0.431 -0.427,0.786 -0.798,1.067c1.254,-1.253 -1.364,0.834 0.13,-0.082c-0.907,0.352 -0.987,0.391 -0.242,0.117c1.611,-0.576 -1.318,0.121 0.406,-0.072c0.221,-0.025 1.951,0.063 0.573,-0.05c0.558,0.046 1.11,0.163 1.659,0.272c0.363,0.081 0.724,0.178 1.082,0.289c-1.213,-0.352 0.387,0.242 0.539,0.317c0.313,0.163 0.618,0.342 0.913,0.534c1.385,0.857 -0.777,-0.786 0.33,0.308c1.139,1.125 0.11,-0.429 0.6,1.019c-0.525,-1.554 -0.252,0.76 -0.078,-0.987c-0.145,1.448 -0.069,2.243 0.271,3.645c1.377,5.663 9.629,1.898 11.656,-0.944c5.955,-8.354 -1.777,-16.46 -10.309,-17.345c-4.686,-0.485 -9.832,0.671 -13.44,3.845c-3.265,2.871 -7.109,9.124 -3.392,13.096c2.355,2.513 5.903,0.396 7.704,-1.601Z" style="fill-rule:nonzero;"/><path d="M118.112,220.753c1.148,1.399 1.924,1.345 2.47,2.158c-0.729,-1.089 0.141,1.222 -0.066,-0.162c0.219,1.465 0.142,-0.113 -0.032,0.763c-0.075,0.317 -0.161,0.632 -0.258,0.943c0.276,-0.793 0.275,-0.85 -0.003,-0.172c-0.366,0.693 -0.3,0.625 0.198,-0.205c-0.191,0.297 -0.396,0.586 -0.614,0.864c-0.224,0.281 -0.452,0.558 -0.688,0.829c0.786,-0.828 0.865,-0.949 0.238,-0.365c-0.685,0.541 -0.558,0.451 0.381,-0.271c-0.451,0.288 -0.948,0.505 -1.435,0.721c-3.193,1.414 -5.897,6.019 -4.58,9.456c1.461,3.809 5.961,3.234 8.879,1.785c5.904,-2.932 10.279,-9.458 10.289,-16.092c0.01,-6.494 -6.858,-10.314 -12.435,-6.986c-2.108,1.26 -4.252,4.409 -2.344,6.734Z" style="fill-rule:nonzero;"/><path d="M379.996,67.636c-0.386,0.069 -2.878,0.511 -1.294,0.234c-1.692,0.296 -2.896,0.812 -4.214,1.945c-1.677,1.442 -3.132,3.104 -4.21,5.034c-1.423,2.549 -2.251,5.643 -1.928,8.567c0.603,5.45 4.13,9.441 9.222,11.16c6.945,2.345 13.705,-3.354 15.656,-9.672c0.971,-3.145 0.389,-6.44 -0.308,-9.559c-1.003,-4.486 -6.161,-4.949 -9.642,-2.964c-3.205,1.828 -5.552,5.477 -4.871,9.22c0.764,4.198 4.946,5.14 8.412,3.07c1.434,-0.856 2.371,-1.799 3.473,-3.032c0.745,-0.835 2.68,-3.775 0.463,-0.739c-2.259,1.312 -4.518,2.624 -6.776,3.936c0.035,-0.006 0.07,-0.012 0.105,-0.018c-1.08,-0.203 -2.159,-0.406 -3.239,-0.608c-1.829,-0.979 -1.734,-2.447 -1.332,-0.736c-0.408,-1.738 -0.036,0.007 0.013,0.394c0.087,0.695 -0.089,3.339 0.165,0.882c-0.027,0.268 -0.083,0.531 -0.139,0.795c-0.233,1.092 0.808,-1.957 0.206,-0.613c-0.451,1.01 1.209,-1.833 0.589,-0.955c-0.641,0.905 1.854,-1.75 0.756,-0.837c2.055,-1.708 1.742,-1.18 1.077,-0.814c2.222,-1.222 1.684,-0.671 0.915,-0.468c2.25,-0.596 1.673,-0.302 1.021,-0.245c-1.305,0.112 1.643,0.146 0.679,0.047c-0.639,-0.065 -2.356,-0.714 -0.175,0.093c-0.576,-0.213 -1.116,-0.516 -1.631,-0.846c-0.382,-0.245 -1.153,-0.881 0.426,0.383c-0.254,-0.204 -0.49,-0.431 -0.723,-0.659c-0.416,-0.411 -0.807,-0.832 -1.162,-1.298c-0.261,-0.343 -0.764,-1.215 0.211,0.424c-0.176,-0.296 -0.32,-0.608 -0.46,-0.922c-0.141,-0.318 -0.247,-0.65 -0.347,-0.983c-0.266,-0.89 0.223,1.545 0.04,0.109c-0.082,-0.651 -0.124,-1.29 -0.092,-1.946c-0.096,1.94 0.198,-0.395 0.354,-0.966c0.085,-0.311 0.155,-0.624 0.246,-0.933c-0.467,1.57 0.057,-0.012 0.212,-0.35c0.426,-0.926 0.847,-1.912 0.646,-2.96c-0.063,0.595 -0.069,0.656 -0.022,0.186c0.053,-0.994 0.08,-1.198 0.082,-0.613c0.31,-1.469 -0.769,-3.037 -2.404,-2.743Z" style="fill-rule:nonzero;"/><path d="M108.731,455.444c0.999,6.366 7.103,10.023 12.417,12.756c8.156,4.192 17.175,6.868 25.992,9.263c19.229,5.223 38.951,7.212 58.768,8.593c30.666,2.136 61.551,2.076 92.193,-0.397c26.949,-2.176 55.193,-4.977 81.014,-13.342c7.876,-2.551 15.667,-5.918 22.703,-10.301c-1.084,-2.833 -2.168,-5.667 -3.252,-8.5c-2.178,1.48 -4.203,2.64 -5.805,4.799c-2.224,2.998 -0.364,6.075 3.244,5.334c1.123,-0.231 3.912,-0.434 5.813,-1.633c2.26,-1.425 4.559,-4.293 3.463,-7.15c-1.058,-2.76 -4.574,-2.61 -6.715,-1.35c-23.274,13.708 -50.662,16.6 -76.966,19.909c-30.622,3.854 -61.375,5.366 -92.228,4.468c-22.274,-0.648 -44.759,-2.125 -66.669,-6.385c-16.218,-3.153 -34.34,-6.544 -47.134,-17.537c-0.344,-0.295 -0.697,-0.747 -0.927,-1.141c-1.625,-2.788 -6.365,-0.276 -5.911,2.614Z" style="fill-rule:nonzero;"/><path d="M57.744,223.426c2.033,-3.467 1.682,-6.464 6.433,-7.168c4.52,-0.671 7.685,2.052 8.79,6.251c2.348,-2.501 4.694,-5.003 7.042,-7.504c-2.897,-0.411 -6.446,-1.642 -9.354,-0.667c-3.068,1.029 -5.337,3.508 -7.763,5.535c2.217,1.758 4.433,3.516 6.648,5.273c1.325,-1.696 2.02,-3.793 3.326,-5.465c-2.838,-0.987 -5.675,-1.975 -8.512,-2.961c-1.282,2.949 -4.201,4.799 -5.875,7.516c3.052,0.148 6.104,0.296 9.156,0.444c-0.121,-2.601 -0.852,-5.104 -1.059,-7.689c-1.221,1.963 -2.442,3.925 -3.664,5.888c2.497,-1.681 -0.336,-1.14 0.449,-0.749c2.197,1.093 4.523,0.079 6.298,-1.31c0.407,-0.319 0.728,-0.737 1.058,-1.135c1.21,-1.451 2.051,-4.41 0.458,-5.939c-3.418,-3.282 -8.015,-1.634 -11.474,0.736c-1.911,1.31 -3.893,3.335 -3.664,5.888c0.232,2.577 0.988,5.07 1.135,7.665c0.361,6.393 8.126,2.158 9.917,-0.804c1.921,-3.177 5.017,-5.185 6.526,-8.784c2.669,-6.362 -5.326,-7.142 -8.512,-2.961c-1.303,1.713 -1.97,3.816 -3.254,5.504c-3.982,5.229 2.229,9.06 6.648,5.271c0.86,-0.736 1.712,-1.482 2.555,-2.239c1.574,-1.413 0.98,-0.561 -0.814,-0.255c-0.902,0.153 0.854,0.139 0.953,0.154c1.438,0.228 2.873,0.445 4.317,0.628c3.867,0.49 8.323,-3.453 7.042,-7.504c-2.648,-8.376 -11.236,-11.064 -19.145,-8.91c-3.721,1.014 -7.209,3.601 -9.236,6.872c-1.659,2.678 -3.191,7.963 0.232,9.936c1.293,0.745 2.734,-0.479 3.343,-1.517Z" style="fill-rule:nonzero;"/><path d="M121.047,404.539c1.343,-0.198 3.653,-0.707 4.399,-0.424c1.196,0.453 1.847,1.471 2.019,2.319c0.395,1.937 0.117,2.823 -0.695,4.384c0.434,-0.833 -0.501,0.581 -0.521,0.605c0.756,-0.929 -0.812,0.587 0.103,-0.065c-0.967,0.689 -1.452,0.802 -2.785,1.15c1.371,2.255 2.742,4.509 4.112,6.764c2.427,-3.93 3.337,-7.95 3.607,-12.521c0.175,-2.961 -3.347,-3.82 -5.551,-3.115c-2.847,0.91 -4.948,3.52 -5.029,6.508c-0.06,2.186 -0.384,4.273 -1.491,6.184c-2.085,3.595 1.379,6.555 4.858,5.536c8.082,-2.365 14.419,-10.389 12.544,-18.995c-1.904,-8.742 -12.344,-8.249 -17.104,-2.178c-1.114,1.422 -0.815,4.194 1.534,3.848Z" style="fill-rule:nonzero;"/><path d="M216.518,56.624c8.889,-1.014 17.351,-4.898 26.203,-6.403c9.187,-1.563 18.854,-1.649 28.138,-1.21c6.055,0.286 10.901,0.781 16.778,1.391c2.189,0.227 4.376,0.489 6.558,0.777c0.889,0.118 1.771,0.275 2.662,0.363c0.628,0.063 3.241,0.062 1.217,-0.059c-0.724,-1.807 -1.447,-3.612 -2.172,-5.419c0.996,-2.081 2.123,-2.684 1.022,-1.549c-1.144,1.179 -2.305,2.876 -1.606,4.61c0.631,1.569 2.151,2.708 3.93,2.411c3.03,-0.507 7.091,-3.751 5.626,-7.3c-1.482,-3.592 -7.511,-3.121 -10.645,-3.41c-6.09,-0.56 -12.22,-0.857 -18.328,-1.123c-19.651,-0.854 -42.58,1.395 -59.654,12.081c-1.733,1.086 -3.104,5.224 0.271,4.84Z" style="fill-rule:nonzero;"/><path d="M436.425,224.703c1.275,-1.455 1.197,-3.449 2.127,-5.238c0.688,-1.322 1.998,-2.638 2.977,-3.282c3.333,-2.195 5.519,0.117 6.027,4.248c2.95,-1.305 5.899,-2.609 8.85,-3.914c-1.649,-4.867 -5.087,-7.942 -10.185,-5.148c-4.496,2.464 -6.421,8.434 -7.81,12.989c-1.412,4.636 4.904,4.954 7.283,2.595c2.547,-2.523 4.979,-5.055 7.012,-8.017c2.199,-3.204 0.673,-7.925 -3.859,-6.347c-3.639,1.268 -7.452,2.842 -10.431,5.348c1.968,-0.409 3.936,-0.818 5.903,-1.228c-1.308,-0.554 -2.688,-1.212 -3.042,-2.159c0.226,0.604 -0.114,0.991 -0.414,1.484c0.385,-0.631 -0.475,0.193 0.284,-0.249c-1.019,0.595 1.235,-0.281 0.398,-0.145c0.822,-0.135 0.83,-0.047 1.396,0.065c1.164,0.231 1.948,1.795 2.386,2.984c2.33,-2.483 4.66,-4.967 6.989,-7.449c-2.153,-0.246 -4.025,-1.654 -5.908,-2.651c-3.335,-1.767 -7.517,1.548 -8.237,4.786c-0.603,2.713 -1.303,5.993 0.667,8.328c3.617,4.287 12.123,-3.148 8.492,-7.451c0.797,0.945 0.436,0.435 0.527,1.075c-0.15,-1.043 -0.087,-1.693 0.14,-2.747c-2.746,1.595 -5.492,3.19 -8.237,4.786c2.573,1.338 5.145,3.032 8.092,3.349c3.657,0.393 8.513,-3.408 6.989,-7.449c-2.809,-7.45 -11.185,-9.132 -17.546,-4.82c-3.063,2.077 -5.726,5.242 -5.766,9.123c-0.041,3.839 3.054,6.345 6.32,7.679c2.1,0.858 4.217,0.221 5.903,-1.228c0.658,-0.565 3.842,-2.03 5.569,-2.652c-1.287,-2.115 -2.573,-4.231 -3.859,-6.347c-1.481,2.205 -3.125,4.099 -4.988,5.983c2.428,0.865 4.855,1.729 7.283,2.595c0.51,-1.74 1.152,-3.384 1.982,-4.997c0.572,-1.111 -1.664,1.781 -3.256,0.364c0.682,0.607 0.96,1.668 1.28,2.474c1.847,4.656 9.545,0.108 8.849,-3.914c-0.66,-3.807 -1.887,-7.38 -5.367,-9.459c-2.734,-1.634 -6.469,-1.158 -9.254,0.033c-5.761,2.465 -12.688,9.548 -9.863,16.41c0.386,0.938 1.2,1.156 2.122,1.184c0.908,0.028 1.58,-0.311 2.175,-0.991Z" style="fill-rule:nonzero;"/></g></svg>