<?xml version="1.0" encoding="utf-8"?>
<!-- Generator: Adobe Illustrator 17.0.0, SVG Export Plug-In . SVG Version: 6.00 Build 0)  -->
<!DOCTYPE svg PUBLIC "-//W3C//DTD SVG 1.0//EN" "http://www.w3.org/TR/2001/REC-SVG-20010904/DTD/svg10.dtd">
<svg version="1.0" id="Layer_1" xmlns="http://www.w3.org/2000/svg" xmlns:xlink="http://www.w3.org/1999/xlink" x="0px" y="0px"
	 width="566.93px" height="566.93px" viewBox="0 0 566.93 566.93" enable-background="new 0 0 566.93 566.93" xml:space="preserve">
<path fill="#010101" d="M37.318,385.911c0.904-10.218,6.648-19.923,12.504-28.086c7.111-9.913,15.857-18.49,25.35-26.107
	c9.02-7.237,19.105-13.386,30.186-16.825c11.859-3.68,24.525-3.775,36.713-1.917c24.391,3.72,47.594,15.992,67.627,29.947
	c8.307,5.785,16.357,12.046,22.908,19.809c6.611,7.837,11.52,16.89,15.469,26.311c10.115,24.132,15.813,58.408-1.5,80.264
	c-0.894,1.128-1.561,2.604-1.82,4.107c-5.35,1.902-10.808,3.682-16.337,5.309c5.521-8.178,7.851-19.159,8.993-28.486
	c1.934-15.788,1.516-32.391-0.846-48.127c-5.188-34.569-30.547-59.994-62.828-71.116c-44.639-15.381-108.031-0.997-129.594,44.601
	c-0.454,0.962,0.84,1.11,1.314,0.457c10.51-14.443,23.111-26.241,39.246-34.128c15.393-7.524,32.742-10.599,49.785-10.256
	c32.93,0.662,67.455,16.103,84.209,45.491c9.428,16.536,11.063,35.223,10.977,53.872c-0.047,10.606-0.906,21.287-3.594,31.574
	c-1.813,6.938-5.25,15.371-12.801,17.413c-1.948,0.527-3.362,1.986-4.121,3.629c-9.776,2.111-19.643,3.634-29.417,4.362
	c-26.297,1.958-52.92-2.347-77.867-10.565c-10.635-3.504-22-8.025-31.027-14.768c-8.285-6.187-15.621-14.258-21.426-22.781
	c-6.203-9.113-9.625-19.14-5.57-29.833c1.041-2.751-2.117-2.81-3.529-1.229c-13.541,15.164,2.229,39.954,12.469,52.248
	c14.893,17.876,36.117,27.623,58.057,34.05c48.471,14.199,99.982,6.647,146.285-11.864c21.662-8.661,44.744-21.508,56.68-42.403
	c0.9-1.575,1.074-3.594,0.491-5.306c1.371-0.115,2.864-0.783,3.534-1.763c12.092-17.69,26.391-33.047,46.576-41.462
	c16.336-6.811,33.717-6.651,51.086-7.768c18.402-1.182,36.982-2.656,54.691-8.125c8.375-2.587,16.57-6.318,23.727-11.402
	c7.711-5.48,13.145-12.676,19.707-19.302c3.235-3.266,5.171-8.725,1.518-11.494c4.121-6.876,6.828-14.569,8.613-22.543
	c0.145,0.005,0.286,0.013,0.453,0c2.083-0.167,4.032,0.25,5.951,0.905c-1.828,10.754-1.262,22.22-1.734,33.032
	c-0.26,5.975-0.707,11.951-1.859,17.826c-0.436,2.224-0.871,3.709-1.502,5.172c-0.314,0.731-0.648,1.457-0.977,2.184
	c-0.299,0.686-0.551,1.389-0.756,2.109c0.359-2.101-0.098,0.185-0.227,0.963c-0.316,1.88,0.331,4.1,2.162,4.834
	c-2.055,4.551-3.607,9.039-6.703,13.207c-3.184,4.288-7.299,7.979-11.658,11.044c-10.309,7.246-22.203,11.875-34.078,15.842
	c-12.598,4.207-25.449,7.994-38.238,11.576c-7.246,2.029-14.547,3.693-21.986,4.828c-1.229,0.188-2.461,0.336-3.695,0.473
	c0.018-0.156,0.04-0.311,0.048-0.469c0.461-9.218,3.115-23.343-5.26-29.89c-8.131-6.355-20.178-1.265-28.258,2.393
	c-22.268,10.078-36.65,29.506-51.648,47.938c-12.945,15.909-27.096,26.82-45.055,36.031c-16.193,8.306-33.586,14.259-51.174,18.817
	c-35.68,9.248-74.297,12.255-110.48,4.161c-16.367-3.661-32.059-10.267-45.432-20.479c-6.355-4.854-11.908-10.871-16.619-17.308
	c-2.996-4.091-5.57-8.403-7.057-13.242c-1.963-6.392-4.994-12.593-9.855-17.192c-1.188-1.121-3.602,0.356-3.35,1.924
	c1.139,7.08,4.301,13.505,5.352,20.62c0.537,3.625-2.52,6.443-0.531,9.939c1.271,2.236,2.643,4.417,4.074,6.554
	c4.744,7.088,10.664,13.34,17.266,18.72c13.949,11.371,30.537,18.508,47.881,22.941c38.064,9.731,79.42,5.861,117.156-3.423
	c33.66-8.282,69.18-22.324,94.385-46.904c16.246-15.843,28.346-38.265,46.646-50.773c6.07-4.148,15.941-10.941,23.715-10.097
	c5.471,0.595,5.374,8.652,4.757,15.522c-0.939,1.595-1.309,3.472-0.841,5.421c0.003,0.191,0.008,0.361,0.013,0.518
	c-0.587,0.113-1.173,0.223-1.757,0.357c-1.131,0.261-2.592,2.15-1.547,3.228c4.555,4.691,11.449,4.598,17.537,4.596
	c8.297-0.001,16.766-1.91,24.785-3.871c14.227-3.479,28.547-7.529,42.475-12.059c13.604-4.423,27.039-10.097,38.623-18.602
	c5.631-4.134,10.656-8.978,14.895-14.538c3.982-5.226,8.553-12.611,9.248-19.275c0.264-2.525-0.435-4.111-1.628-4.96
	c3.727-7.427,3.754-19.098,3.847-24.969c0.203-12.92-0.57-26.635-3.572-39.248c-0.199-0.837-1.09-1.262-1.822-1.463
	c-3.77-1.031-7.216-1.526-10.927-0.154c1.506-8.632,2.086-17.447,2.339-25.787c0.729-24.07-2.066-48.065-9.053-71.119
	c-7.422-24.487-18.174-47.983-20.355-73.771c-1.217-14.396,0.541-29.023,0.043-43.483c-0.258-7.49-0.879-14.957-1.527-22.421
	c-0.591-6.79-0.483-14.637-3.108-21.103c0.25-1.259,0.201-2.598-0.259-4.015c-0.391-1.201-1.277-1.897-2.238-2.602
	c-0.508-0.371-3.031-1.393-1.256-0.554c-1.586-0.75-3.372-0.579-5.035,0.137c0.054-0.469-0.143-0.89-0.776-1.022
	c-15.436-3.227-31.709-4.078-47.4-5.831c-15.582-1.741-31.092-1.966-46.729-0.851c-14.316,1.021-28.557,2.991-42.895,3.756
	c-6.939,0.371-13.869,0.797-20.787,1.494c-14.867,1.5-36.543,3.314-46.215,16.512c-1.632,2.225-2.722,4.795-2.968,7.313
	c-1.782,1.676-3.464,3.343-4.356,5.822c-0.755,2.097-0.695,3.64-0.127,4.701c-5.82,18.239-1.25,39.287-3.681,58.019
	c-3.598,27.698-9.086,55.362-22.217,80.231c-5.574,10.561-12.756,20.407-22.031,28.002c-10.402,8.517-25.223,12.51-37.631,17.072
	c-26.051,9.577-52.746,20.82-76.055,36.017c-7.182,4.682-13.533,10.591-19.484,16.716c-0.28,0.288-0.44,0.585-0.513,0.866
	c-9.858,5.669-18.899,12.933-27.116,20.951c-8.457,8.254-16.039,17.383-22.096,27.539c-4.906,8.226-8.443,17.76-6.76,27.432
	C34.799,388.127,37.203,387.23,37.318,385.911z M480.84,52.882c-0.176-0.083-0.31-0.152-0.422-0.23
	C480.554,52.73,480.688,52.81,480.84,52.882z M291.604,58.994c2.564-1.615,5.367-2.614,8.246-3.577
	c12.793-4.279,26.662-5.713,40.043-6.844c21.592-1.825,42.902-6.015,64.578-7.031c13.342-0.626,26.604,0.661,39.865,1.964
	c12.304,1.21,24.822,2.735,37.019,0.224c-1.258,1.174-2.235,2.609-2.676,4.026c-2.199,1.19-4.09,1.934-6.497,2.912
	c-7.482,3.04-15.193,5.562-22.943,7.822c-2.56,0.747-5.138,1.445-7.739,2.029c-0.1,0.019-0.193,0.037-0.261,0.048
	c-1.287,0.209-2.588,0.36-3.881,0.531c-4.229,0.558-8.482,0.933-12.734,1.266c-15.643,1.226-31.355,1.273-47.025,1.907
	c-13.297,0.537-26.555,1.195-39.873,1.2c-14.809,0.006-31.086,0.478-45.424-3.814c-0.553-0.165-0.404-0.111-1.584-0.662
	c-0.167-0.079-0.547-0.331-0.87-0.543C290.2,60.02,290.768,59.52,291.604,58.994z M289.405,60.237
	c0.006,0.006,0.008,0.009,0.015,0.015c0.003,0.007,0.004,0.01,0.007,0.018c-0.013-0.011-0.019-0.016-0.031-0.026
	C289.404,60.247,289.402,60.24,289.405,60.237z M289.438,61.127c0.04-0.112,0.104-0.236,0.187-0.367
	C289.816,61.233,289.587,60.706,289.438,61.127z M128.955,290.052c12.785-5.867,26.314-9.658,39.293-14.982
	c7.182-2.946,14.609-5.402,22.006-7.888c4.542,0.094,9.086,0.225,13.644,0.861c6.264,0.874,12.26,3.116,18.1,5.47
	c9.818,3.958,19.346,8.862,28.465,14.221c10.008,5.881,19.885,12.519,27.746,21.143c1.629,1.788,3.082,3.642,4.297,5.643
	c-0.837-0.03-1.675-0.023-2.497,0.042c-3.715,0.295-7.643,2.387-10.189,5.058c-3.291,3.452-4.693,7.135-5.5,10.497
	c-0.908,3.787-0.334,7.878,0.518,11.604c1.621,7.098,7.664,13.255,14.727,14.877c10.686,2.454,23.064-6.443,27.016-15.922
	c2.586-6.205-4.043-7.427-8.102-4.438c-1.379,1.016-3.297,2.675-4.898,4.054c-0.695,0.6-1.418,1.178-2.133,1.757
	c-0.053,0.04-0.093,0.07-0.137,0.104c-0.41,0.271-0.828,0.531-1.251,0.779c-0.178,0.104-0.798,0.391-1.17,0.569
	c-0.51,0.156-1.215,0.356-1.311,0.412c-0.364,0.043-0.729,0.074-1.095,0.094c-0.075,0-0.137,0.001-0.193,0.001
	c-0.247-0.031-0.494-0.068-0.739-0.107c-1.387-0.226-3.316-1.315-4.566-2.553c-0.808-0.801-1.496-1.713-2.136-2.653
	c-0.115-0.206-0.536-0.894-0.618-1.053c-0.34-0.656-0.627-1.34-0.947-2.005c-0.508-1.052-0.904-2.154-1.242-3.271
	c-0.044-0.149-0.226-0.945-0.283-1.156c-0.094-0.564-0.163-1.132-0.211-1.702c-0.047-0.547-0.045-1.097-0.063-1.646
	c-0.007-0.256,0.091-1.39,0.07-1.458c0.068-0.356,0.149-0.709,0.242-1.06c0.125-0.318,0.27-0.628,0.42-0.934
	c0.02-0.041,0.034-0.072,0.047-0.101c0.06-0.074,0.144-0.182,0.266-0.346c0.044-0.053,0.062-0.075,0.094-0.115
	c0.08-0.075,0.161-0.149,0.244-0.221c-0.009,0.052,0.549-0.321,0.866-0.516c-0.087,0.095,1.331-0.441,1.604-0.52
	c1.564-0.449,3.821-0.733,6.018-0.787c0.045,0.535,0.038,1.002-0.008,1.342c-0.074,0.47-0.172,0.936-0.293,1.396
	c0.314-0.775,0.299-0.73-0.047,0.134c-0.764,1.918-1.295,3.561-0.998,5.631c0.648,4.527,5.639,5.802,9.252,3.377
	c11.762-7.891,7.648-22.817,0.498-32.321c-7.818-10.393-19.738-18.095-30.848-24.512c-10.674-6.165-21.91-11.439-33.611-15.328
	c-5.259-1.747-10.672-2.52-16.156-2.893c7.985-3.556,15.554-7.86,22.302-13.68c11.219,1.579,22.524,3.199,33.341,6.526
	c7.449,2.293,13.131,5.751,19.322,10.378c6.791,5.076,13.256,10.546,19.313,16.483c2.785,2.73,5.684,5.655,8.297,8.75
	c-0.373,0.082-0.729,0.165-1.038,0.237c-3.793,0.882-7.146,3.49-9.529,6.476c-4.469,5.595-5.102,13.912-2.25,20.347
	c3.166,7.143,9.68,11.523,17.479,11.648c4.777,0.076,9.482-1.709,13.58-4.035c5.316-3.018,12.596-8.685,12.229-15.48
	c-0.107-1.95-1.861-3.309-3.785-3.053c-1.665,0.221-3.364,0.876-4.751,1.597c0.573-1.028,1.032-2.062,1.346-3.016
	c1.102-3.354,0.641-6.813-0.234-10.148c-1.859-7.084-7.525-13.47-12.395-18.693c-6.217-6.67-13.445-12.461-20.707-17.944
	c-6.373-4.813-13.303-9.888-20.793-12.838c-12.773-5.03-27.267-6.197-41.284-5.526c6.956-8.118,12.895-17.386,17.788-27.225
	c5.803,0.081,11.553-0.857,17.39-0.456c6.643,0.456,13.242,1.851,19.693,3.438c5.693,1.402,11.256,3.287,16.967,4.606
	c5.939,1.372,11.689,2.863,17.205,5.514c7.611,3.659,12.465,9.247,17.406,15.853c0.101,0.135,0.2,0.272,0.301,0.407
	c-0.833,0.085-1.664,0.213-2.506,0.394c-3.398,0.731-6.4,2.637-8.555,5.357c-3.82,4.828-3.428,11.438-1.133,16.82
	c2.277,5.342,6.848,10.02,11.855,12.868c6.58,3.741,13.852,2.632,19.762-1.743c2.551-1.889,4.521-4.89,5.805-7.747
	c0.736-1.642,1.387-3.428,1.678-5.208c0.176-1.075,0.42-2.439,0.359-3.486c-0.039-0.648-0.314-3.202-0.238-1.315
	c-0.033-0.802-0.256-1.579-0.439-2.356c-0.469-1.986-2.977-2.781-4.73-2.639c-0.067,0.005-0.133,0.025-0.2,0.032
	c2.575-4.452,0.326-9.131-2.153-13.232c-4.52-7.474-10.447-15.526-17.531-20.782c-13.221-9.806-29.352-11.433-45.066-14.336
	c-13.091-2.418-30.117-5.078-42.72,1.3c4.406-10.034,7.77-20.494,10.038-30.801c0.055-0.25,0.107-0.499,0.162-0.749
	c7.733-1.509,15.086-2.514,23.057-2.271c9.855,0.299,19.791,2.284,29.381,4.44c14.272,3.209,28.324,7.808,41.954,13.259
	c-2.75,2.299-4.683,5.708-5.278,9.119c-1.014,5.825,2.201,10.866,6.875,14.034c4.973,3.369,12.002,3.587,17.428,1.297
	c4.164-1.758,7.441-4.492,10.293-7.975c2.654-3.238,5.896-8.77,5.107-13.084c-1.215-6.654-8.631-4.392-11.832-0.575
	c-1.602,1.907-2.969,5.669-3.824,6.991c-0.298,0.439-0.617,0.861-0.951,1.273c-0.059,0.057-0.122,0.117-0.195,0.188
	c-0.205,0.194-0.29,0.292-0.319,0.341c-0.117,0.048-0.362,0.172-0.849,0.449c-0.173,0.099-0.266,0.159-0.316,0.196
	c-0.072-0.005-0.306,0.033-0.942,0.211c1.149-0.321-0.36-0.08-1.074,0.011c-0.002-0.055-1.523-0.153-1.747-0.191
	c-1.154-0.197-0.832-0.125-1.508-0.391c-2.662-1.049-4.676-2.804-5.635-4.605c-0.911-1.712-0.164-3.151,0.948-4.75
	c0.982,0.415,1.96,0.835,2.937,1.258c0.806,1.045,2.011,1.812,3.263,2.002c0.102,0.016,0.203,0.03,0.303,0.046
	c4.016,0.613,9.111-2.169,10.49-6.113c0.088-0.255,0.178-0.509,0.268-0.764c0.924-2.642,1.57-6.928-1.854-8.305
	c-18.986-7.638-38.676-13.614-58.854-17.118c-10.889-1.892-22.033-2.729-33.064-1.853c-7.544,0.6-16.027,2.276-22.67,6.406
	c2.78-13.145,5.229-26.364,6.824-39.709c0.05-0.418,0.089-0.837,0.132-1.256c3.837,2.809,8.581,3.967,13.146,5.179
	c6.266,1.665,12.729,2.57,19.135,3.508c11.848,1.734,23.893,3.392,35.838,4.243c9.926,0.708,19.893,0.609,29.83,0.3
	c0.019,0,0.039-0.001,0.058-0.002c-0.108,0.699-0.146,1.411-0.06,2.137c0.703,5.955,6.752,8.742,11.771,10.404
	c5.139,1.701,11.877,2.043,16.947-0.06c7.816-3.241,11.777-11.204,7.146-18.79c-1.266-2.075-2.955-4.101-5.578-4.278
	c-1.788-0.121-3.417,0.342-4.752,1.217c0.222-2.286-0.854-4.509-3.189-5.81c-3.316-1.847-9.037-0.617-12.691-0.471
	c-10.107,0.405-20.238,0.773-30.355,0.609c-11.719-0.189-23.48-1.507-35.186-2.166c-6.709-0.378-13.4-0.924-20.082-1.64
	c-6.084-0.652-12.592-1.928-18.705-1.37c-0.796,0.073-1.912,0.661-2.874,1.483c0.405-9.406-0.384-18.917-0.06-28.302
	c0.008-0.232,0.017-0.47,0.026-0.705c6.474,4.503,15.076,7.242,21.623,9.359c11.811,3.819,24.51,5.541,36.865,6.271
	c20.608,1.218,41.57-0.038,61.976-3.639c0.235,0.403,0.495,0.795,0.778,1.174c2.32,3.104,6.477,4.432,10.158,4.588
	c5.344,0.229,11.885-3.725,13.822-8.767c0.834-2.174,1.01-4.89-1.381-6.185c-1.405-0.761-2.959-0.657-4.393-0.129
	c0.301-0.888,0.453-1.844,0.398-2.874c-0.168-3.159-3.145-5.714-6.359-5.129c-22.639,4.118-45.324,6.761-68.383,6.165
	c-11.611-0.299-23.07-1.621-34.467-3.827c-5.746-1.112-11.418-2.586-17.045-4.196c-4.072-1.166-8.284-3.052-12.506-4.094
	c0.242-1.272,0.54-2.526,0.907-3.746c3.479,1.229,7.321,1.824,10.738,2.367c16.764,2.662,34.244,2.32,51.164,2.08
	c16.668-0.238,33.324-1.164,49.986-1.604c13.857-0.366,28.094-0.527,41.777-2.979c6.719-1.204,13.295-3.298,19.777-5.396
	c7.811-2.528,15.566-5.371,22.961-8.957c1.57-0.761,3.356-1.742,5.043-2.923c-0.192,4.045,0.049,8.139,0.128,12.17
	c0.148,7.669,0.109,15.332,0.055,23.002c-0.105,14.907-2.309,29.725-2.262,44.602c0.08,25.414,9.568,49.304,17.314,73.104
	c3.844,11.805,7.205,23.729,8.828,36.061c1.41,10.716,1.939,21.635,2.014,32.435c0.133,19.106-0.955,42.835-14.098,58.023
	c-0.664,0.767-1.174,1.743-1.474,2.78c-1.065,1.907-1.347,3.944-0.476,5.51c-3.025,3.377-6.162,6.613-9.826,9.109
	c-6.84,4.658-14.58,7.48-22.514,9.641c-17.779,4.84-36.51,5.336-54.766,6.93c-8.24,0.719-16.482,1.521-24.633,2.959
	c-10.645,1.879-20.535,5.856-29.951,11.123c-18.572,10.387-36.818,27.702-43.523,48.35c-3.754-1.772-8.501,0.749-10.748,3.809
	c-9.273,12.624-21.402,21.426-34.943,28.182c7.023-13.885,8.278-30.888,6.922-45.957c-1.951-21.671-9.65-42.979-21.854-60.96
	c-12.107-17.84-31.906-30.717-50.484-40.97c-22.08-12.185-47.947-20.145-73.363-18.047c-9.277,0.766-18.045,3.135-26.304,6.684
	C109.75,299.383,119.415,294.429,128.955,290.052z M327.334,311.587c-0.536,0.201-1.087,0.355-1.641,0.498
	c0.509-0.154-1.074,0.126-1.404,0.148c-0.124,0.008-0.426-0.002-0.673-0.011c-0.5-0.061-0.996-0.15-1.485-0.258
	c-0.187-0.041-0.323-0.07-0.43-0.091c-0.033-0.022-0.102-0.056-0.236-0.112c-0.555-0.229-1.082-0.524-1.6-0.826
	c-0.35-0.203-0.685-0.43-1.016-0.663c0.286,0.18-0.726-0.648-0.922-0.844c-0.761-0.756-1.404-1.62-1.996-2.512
	c0.195,0.207-0.82-1.721-1-2.183c-0.211-0.544-0.404-1.099-0.59-1.652c-0.058-0.169-0.233-0.884-0.304-1.131
	c-0.157-0.934-0.25-1.88-0.256-2.824c-0.001-0.096-0.004-0.156-0.007-0.199c0.015-0.092,0.033-0.201,0.056-0.352
	c0.063-0.412,0.168-0.816,0.275-1.219c-0.244,0.948,0.167-0.407,0.332-0.741c0.002-0.004,0.002-0.006,0.005-0.01
	c0.067-0.077,0.162-0.193,0.302-0.374c0.01-0.014,0.016-0.022,0.025-0.034c0.085-0.062,0.212-0.162,0.411-0.328
	c-0.926,0.779,0.043,0.07,0.531-0.251c0.035,0.024,1.174-0.47,1.346-0.525c0.602-0.191,2.072-0.772,2.594-1.125
	c0.187-0.126,0.489-0.258,0.839-0.384c0.545,0.888,1.055,1.786,1.512,2.696c0.652,1.295,1.15,2.655,1.551,4.047
	c-0.305-1.061-0.197,1.773,0.002,1.721c-0.542,1.346-0.828,2.447-0.926,3.981c-0.172,2.698,1.602,4.513,4.004,5.27
	c0.304,0.096,0.604,0.155,0.902,0.207C327.473,311.532,327.41,311.557,327.334,311.587z M323.673,301.748
	c-0.01,0.024-0.018,0.045-0.027,0.069c0.019-0.09,0.039-0.201,0.058-0.353C323.689,301.578,323.679,301.671,323.673,301.748z
	 M364.594,256.464c-0.771,1.573-1.246,3.273-1.748,4.967c0.158-0.569-0.379,0.995-0.607,1.495c-0.536-0.062-1.064-0.177-1.589-0.305
	c-0.167-0.041-0.331-0.093-0.495-0.143c-0.594-0.235-1.178-0.503-1.751-0.784c-1.102-0.54-2.143-1.196-3.143-1.902
	c-0.178-0.125-0.35-0.257-0.522-0.387c-0.011-0.01-0.026-0.021-0.036-0.03c-0.568-0.475-1.107-0.981-1.635-1.5
	c-0.891-0.875-1.707-1.824-2.467-2.815c-0.367-0.478-0.74-0.95-1.098-1.437c-0.174-0.235-0.338-0.479-0.5-0.722
	c-0.028-0.042-0.049-0.071-0.072-0.106c-0.525-0.927-0.95-1.906-1.272-2.923c-0.039-0.121-0.068-0.211-0.095-0.288
	c-0.005-0.045-0.012-0.093-0.021-0.156c-0.044-0.301-0.064-0.604-0.072-0.907c0.009-0.055,0.02-0.134,0.033-0.229
	c0.058-0.029,0.191-0.321,0.246-0.521c0.293-0.192,0.979-0.86,0.648-0.718c0.341-0.204,0.689-0.395,1.045-0.57
	c-0.269,0.157,1.348-0.506,1.667-0.609c1.116-0.362,2.27-0.745,3.43-1.08c0.537,0.845,1.056,1.701,1.539,2.575
	c0.65,1.176,1.168,2.396,1.613,3.662c0.127,0.357,0.359,0.747,0.535,1.088c0.006,0.01,0.012,0.021,0.019,0.031
	c0.008,0.035,0.009,0.068,0.019,0.104c0.929,3.656,3.901,3.904,6.825,2.871C364.905,255.562,364.743,256.01,364.594,256.464z
	 M362.19,263.033c-0.004,0.009-0.007,0.015-0.011,0.023c-0.365,0.078-0.646,0.104,0.004-0.023
	C362.186,263.033,362.188,263.033,362.19,263.033z M354.835,259.482C355.636,260.094,355.161,259.741,354.835,259.482
	L354.835,259.482z M347.738,247.605c-0.006,0.003-0.014,0.006-0.023,0.013c0.046-0.058,0.094-0.115,0.141-0.172
	C347.806,247.51,347.771,247.559,347.738,247.605z M358.515,248.445c0.375-1.04,1.068-2.029,2.108-2.961
	C359.687,246.377,358.954,247.365,358.515,248.445z M406.194,141.233C406.136,141.434,406.098,141.525,406.194,141.233
	L406.194,141.233z M404.273,137.561c0.157,0.233,0.899,1.422,0.871,1.34c0.037,0.065,0.075,0.129,0.111,0.194
	c-0.792,0.066-1.586,0.087-2.38,0.078c-0.31-0.016-0.862-0.041-1.063-0.059c-0.648-0.059-1.293-0.147-1.938-0.246
	c-1.17-0.179-2.33-0.377-3.48-0.657c-0.496-0.121-0.985-0.265-1.473-0.416c-0.256-0.096-0.508-0.2-0.759-0.306
	c-0.63-0.264-1.234-0.588-1.826-0.931c0.502-0.018,1.004-0.038,1.506-0.056c2.408-0.085,4.467-0.482,6.691-1.517
	c1.016-0.472,1.834-1.088,2.597-1.795c-0.018,0.135-0.041,0.269-0.052,0.406C402.957,135.045,403.475,136.38,404.273,137.561z"/>
</svg>
