<?xml version="1.0" encoding="utf-8"?>
<!-- Generator: Adobe Illustrator 17.0.0, SVG Export Plug-In . SVG Version: 6.00 Build 0)  -->
<!DOCTYPE svg PUBLIC "-//W3C//DTD SVG 1.0//EN" "http://www.w3.org/TR/2001/REC-SVG-20010904/DTD/svg10.dtd">
<svg version="1.0" id="Layer_1" xmlns="http://www.w3.org/2000/svg" xmlns:xlink="http://www.w3.org/1999/xlink" x="0px" y="0px"
	 width="566.93px" height="566.93px" viewBox="0 0 566.93 566.93" enable-background="new 0 0 566.93 566.93" xml:space="preserve">
<path d="M321.515,143.824c-0.18,0.042-0.371,0.074-0.566,0.097C320.842,143.969,320.962,143.955,321.515,143.824z"/>
<path d="M353.983,166.417c-6.327,2.988-12.873,9.896-11.299,17.418c0.58,2.771,4.414,0.211,5.078-1.035
	c2.258-4.234,3.755-7.626,8.617-9.177c4.117-1.313,6.637,2.02,10.366,2.169c3.953,0.158,7.556-4.742,6.466-8.389
	C371.172,160.583,358.208,164.421,353.983,166.417z"/>
<path d="M399.597,132.63c0.043-0.07,0.089-0.137,0.133-0.205c0.025-0.064,0.05-0.142,0.072-0.237
	C399.606,132.472,399.566,132.622,399.597,132.63z"/>
<path d="M518.453,318.661c-7.61,0.114-15.189,1.341-22.585,3.071c-1.949,0.456-3.994,0.955-6.032,1.545
	c5.573-17.282,6.911-35.041,4.685-53.358c-5.375-44.233-27.742-90.106-61.703-119.325c-6.854-5.897-14.744-11.713-23.513-14.401
	c0.614-1.083,0.97-2.28,0.935-3.487c0.084,2.847,0.071,0.22,0.366-0.883c0.252-0.942,0.326-2.124,0.351-3.083
	c0.054-2.067-0.227-4.076-0.71-6.086c-1.126-4.687-3.19-8.995-5.51-13.197c-2.42-4.383-5.189-8.577-8.029-12.695
	c-2.398-3.479-4.344-7.912-9.075-7.682c-3.075,0.149-5.434,2.694-6.086,5.53c-6.53,8.43-13.221,19.846-9.34,30.18
	c-0.358,0.112-0.705,0.315-0.854,0.497c-8.816,10.641-17.504,23.303-32.128,26.04c-10.677,1.999-21.756,1.688-32.565,2.169
	c-11.123,0.496-22.655,1.233-33.3,4.737c-2.324,0.765-4.604,1.745-6.749,2.952c0.555-1.324,1.254-2.586,2.111-3.766
	c2.823-3.887,7.721-5.928,12.071-7.565c9.517-3.583,23.751-4.095,30.232-12.909c0.882-1.2,0.153-2.447-1.301-2.141
	c-5.789,1.219-11.302,3.786-17.106,5.168c-5.829,1.388-11.805,2.407-17.438,4.492c-2.828,1.046-5.506,2.531-7.912,4.367
	c0.291-0.861,0.65-1.704,1.141-2.507c2.449-4.008,6.556-6.554,10.475-8.924c8.022-4.852,17.928-7.739,24.293-14.942
	c0.788-0.891,0.097-2.287-1.118-1.839c-7.421,2.731-15.229,5.326-22.507,8.748c1.24-2.793,2.461-5.644,4.61-7.889
	c4.602-4.809,10.912-6.939,16.089-10.918c0.163-0.125,0.307-0.313,0.433-0.521c2.708,5.936,5.416,11.876,7.962,17.879
	c1.408,3.319,2.96,6.742,3.699,10.282c0.431,2.064,1.455,3.565,3.114,4.488c0.793,0.595,1.759,0.81,2.77,0.731
	c0.746,0.49,1.794,0.615,2.724,0.503c0.286-0.126,2.234-0.699,2.295-0.734c0.884-0.504,1.891-1.347,2.504-2.156
	c1.027-1.354,1.51-3.089,2.038-4.677c1.373-4.132,2.386-8.408,3.438-12.63c1.727-6.927,3.254-13.883,4.663-20.86
	c7.034,7.44,13.533,15.339,19.467,23.486c0.33,0.983,0.986,1.833,1.988,2.519c0.637,0.436,1.321,0.622,2.066,0.861
	c5.917,1.899,11.711-6.454,8.657-11.347c-1.241-1.988-3.842-1.463-5.434-2.915c-4.107-3.744-7.572-8.433-11.389-12.488
	c-7.734-8.219-16.059-15.783-24.874-22.824c-7.985-6.378-16.421-12.168-24.697-18.156c-4.193-3.034-8.333-6.14-12.338-9.419
	c-3.655-2.992-7.029-6.698-11.109-9.088c-2.229-1.305-6.137,1.919-4.964,4.356c0.13,0.271,0.283,0.535,0.426,0.801
	c-1.705,10.566,4.457,21.595,9.53,30.519c5.09,8.954,11.295,17.308,15.566,26.705c0.269,0.591,0.539,1.183,0.808,1.774
	c-7.201-0.562-14.761,4.158-20.04,8.578c-3.494,2.925-11.696,12.805-9.899,18.707c-3.954,2.797-7.254,6.231-9.765,10.45
	c-1.937,3.255-4.313,10.541-1.04,13.523c-2.278,4.408-4.563,10.733-3.498,14.844c-0.375,1.488-0.355,2.965,0.311,4.293
	c1.699,3.392,5.706,1.505,7.583-0.614c2.658-3,2.614-5.641,5.871-7.675c3.763-2.35,8.372-3.464,12.682-4.29
	c4.111-0.787,8.27-1.312,12.448-1.704c-2.931,3.264-4.687,7.442-4.65,11.863c0.006,0.722,0.362,1.663,0.948,2.251
	c-15.609,11.113-30.354,26.019-37.954,43.508c-5.22,12.013-4.54,26.468,5.807,35.479c8.854,7.712,21.85,9.301,32.792,5.732
	c6.343-2.068,11.802-6.157,15.967-11.312c3.026-3.746,6.531-10.215,6.942-15.824c8.911-0.749,17.45-0.272,26.569,0.368
	c4.334,0.304,8.62,0.37,12.865,0.078c-1.301,2.805-1.047,5.935,3.112,5.948c4.569,8.588,1.333,19.094-2.64,27.456
	c-4.605,9.694-11.638,17.57-21.125,22.614c-10.68,5.68-23.438,7.136-35.345,7.367c-12.004,0.233-24.319-1.407-35.807-4.895
	c-21.098-6.405-39.447-19.604-61.059-24.729c-13.875-3.291-28.546-2.227-42.013,2.378c-2.194-9.748,2.931-20.11,4.963-29.489
	c2.261-10.432,0.8-22.242-3.08-32.111c-7.51-19.101-28.047-31.981-45.984-40.07c-17.187-7.75-36.03-10.943-54.566-6.758
	c-19.522,4.408-34.55,18.753-43.712,36.026C8.49,214.32,5.244,230.909,5.928,247.427c0.357,8.621,1.948,17.334,4.388,25.603
	c2.473,8.38,6.221,14.709,11.923,21.241c2.491,2.853,7-1.481,6.197-4.424c-1.722-6.308-2.931-12.611-4.935-18.86
	c-2.193-6.841-3.685-13.885-4.545-21.012c-1.619-13.422-0.163-26.83,4.607-39.483c6.697-17.768,19.168-31.555,38.042-35.875
	c17.583-4.024,37.083,1.634,52.838,9.308c9.393,4.574,18.42,10.434,26.334,17.256c8.642,7.45,13.212,17.244,14.995,28.378
	c1.516,9.468-0.509,17.558-2.712,26.701c-1.297,5.385-3.215,12.883-0.5,18.146c-1.042,0.452-2.072,0.93-3.093,1.425
	c-0.011-0.01-0.017-0.021-0.028-0.031c-5.405-4.939-3.935-16.639-3.529-23.051c0.545-8.621,2.2-17.477,0.988-26.103
	c-2.37-16.859-23.521-27.029-37.92-31.418c-15.119-4.609-32.848-5.404-47.62,0.845c-16.643,7.041-25.965,21.689-27.207,39.469
	c-0.337,4.831-0.085,10.324,1.378,14.957c1.466,4.641,3.008,10.505,8.158,11.936c2.189,0.608,4.55-1.655,5.009-3.611
	c0.74-3.157-0.356-5.541-0.593-8.661c-0.264-3.471-0.67-6.908-1.073-10.366c-0.545-4.679-0.175-9.592,0.784-14.186
	c0.65-3.111,1.831-6.249,3.539-8.889c1.737-2.686,4.006-5.008,6.208-6.527c12.263-8.461,29.279-7.589,43.171-4.294
	c14.555,3.452,35.206,12.127,37.917,28.826c1.4,8.625-0.23,17.438-0.327,26.095c-0.063,5.588-0.181,15.213,5.768,17.88
	c-3.565,2.079-6.969,4.424-10.154,7.031c-8.761,7.167-16.823,18.792-17.909,30.626c-3.562,4.555-4.727,11.297-5.127,16.721
	c-0.787,10.642,0.333,21.234,1.933,31.752c2.272,14.927,7.444,30.413,1,45.021c-2.351,5.33-7.479,9.164-12.325,12.042
	c-4.81,2.856-9.53,5.77-14.275,8.718c-2.039,1.267-4.299,3.915-4.466,6.521c-9.007,10.171-8.572,26.419,1.933,35.677
	c4.299,3.789,9.759,6.164,15.552,5.833c6.692-0.383,12.928-5.853,13.17-12.666c0.09-2.516-2.373-3.985-4.606-3.917
	c10.187-1.953,19.224-7.63,25.485-16.284c4.489-6.205,8.716-16.641,8.496-25.733c5.016,1.697,10.211,2.895,15.439,3.513
	c0.774,3.988,3.605,7.667,6.448,10.716c5.369,5.759,12.705,10.09,19.766,13.796c-1.572,3.871-2.546,7.997-4.447,11.786
	c-2.352,4.688-5.774,8.831-9.486,12.499c-6.745,6.664-15.216,12.965-24.019,16.607c-2.851,1.18-5.643,3.684-5.463,7.069
	c0.175,3.292,3.352,4.052,6.029,3.384c2.218-0.553,4.174-1.837,5.44-3.629c8.429-6.439,16.946-12.375,24.21-20.295
	c3.95-4.308,7.276-9.162,9.835-14.415c1.364-2.8,2.798-6.729,3.034-10.399c4.337,2.138,8.745,4.081,13.221,5.815
	c-3.86,7.216-8.804,12.865-14.486,18.999c-5.786,6.245-8.241,13.598-7.771,22.009c0.13,2.326,0.762,5.249-0.038,7.509
	c-1.371,3.871-7.149,5.517-10.6,6.447c-4.804,1.296-9.429-0.803-13.321-3.411c-4.375-2.934-6.621-7.438-12.242-7.598
	c-3.387-0.097-6.726,3.774-6.595,7.009c0.21,5.219,6.503,8.88,10.482,11.618c4.828,3.323,10.468,4.659,16.264,4.495
	c11.23-0.318,24.636-8.335,27.464-19.669c2.176-8.721-2.308-16.55,3.042-24.796c4.191-6.46,11.834-13.02,12.192-20.987
	c13.938,4.954,28.471,8.04,43.353,9.405c28.933,2.653,58.424-1.44,86.098-9.977c14.08-4.344,27.84-10.081,41.475-15.644
	c13.822-5.639,27.419-11.862,40.428-19.198c5.833-3.29,11.486-6.889,17.001-10.686c1.535-1.058,2.937-2.927,3.687-4.848
	c3.255,1.831,6.271,4.066,8.895,6.797c5.6,5.83,7.793,12.907,8.399,20.454c-12.484,2.642-20.837,14.985-21.422,28.157
	c-0.283,6.375,2.049,12.446,7.606,15.817c4.308,2.613,10.053,2.899,15.347,2.864c0.325,0.188,0.683,0.341,1.104,0.417
	c2.623,0.475,4.887-0.022,7.085-1.542c1.4-0.968,2.647-2.501,3.427-4.131c3.111,2.211,6.919,0.109,9.219-2.492
	c4.358-4.93,5.993-13.067,7.405-19.299c1.827-8.059,2.579-16.416,2.752-24.665c0.316-15.044-3.085-29.2-15.678-38.589
	c-5.294-3.947-11.795-6.503-18.665-8.218c9.655-8.937,17.373-20.541,23.597-32.548c12.043-4,26.162-6.041,37.743-0.663
	c12.119,5.628,10.863,18.958,11.315,30.881c-5.429,0.854-10.51,3.588-14.38,7.743c-5.668,6.085-7.691,16.418-2.216,23.397
	c3.928,5.006,11.101,7.118,16.987,8.642c4.363,1.13,9.638,2.315,13.988,0.965c2.614,2.698,8.895,0.564,10.708-3.636
	c5.609-12.997,8.51-27.731,9.797-41.757c1.34-14.607,0.68-30.145-7.228-42.935C547.474,320.623,531.559,318.464,518.453,318.661z
	 M331.89,98.75c-3.265,6.576-5.214,13.725-7.323,20.794c-0.969,3.248-1.883,6.528-2.964,9.747c-1.268-1.773-2.352-3.675-3.407-5.593
	c-2.5-4.547-4.91-9.146-7.317-13.745c0.009-0.015,0.023-0.03,0.032-0.045c2.662-4.64,2.973-10.569,3.563-15.773
	c0.375-3.307,0.937-6.53,1.584-9.743c0.949,0.77,1.893,1.545,2.827,2.333C323.398,90.529,327.721,94.565,331.89,98.75z
	 M282.048,63.146c-1.111-2.356-1.953-4.798-2.707-7.267c4.378,4.277,9.816,7.937,14.188,11.321c0.114,0.089,0.23,0.176,0.344,0.264
	c-1.347,2.825-2.072,5.951-2.855,8.982c-0.104,0.403-0.233,0.845-0.374,1.313C287.459,73.075,284.468,68.278,282.048,63.146z
	 M295.744,85.047c1.051-2.345,1.192-4.969,1.745-7.747c0.379-1.905,1.017-3.917,1.506-5.945c4.145,3.111,8.314,6.19,12.413,9.36
	c-1.86,3.37-2.84,7.153-3.595,11.05c-0.589,3.042-1.171,6.016-1.825,8.973C302.943,95.27,299.361,90.15,295.744,85.047z
	 M102.334,467.041C102.761,466.792,102.716,466.949,102.334,467.041L102.334,467.041z M253.301,414.871
	C253.166,414.834,253.159,414.822,253.301,414.871L253.301,414.871z M254.239,431.289c0.007,0.361,0.015,0.723,0.049,1.101
	c0.213,2.372,3.507,0.606,3.56-1.141c0.278-9.201,13.8-5.9,17.661-1.57c3.239,3.632,1.833,7.833-1.542,10.646
	c-1.504,1.253-3.569,2.008-5.482,2.269c-2.033,0.277-3.716-1.282-5.661-1.495c-3.281-0.358-6.312,2.376-6.235,5.575
	c-0.606,0.06-1.277,0.089-1.928,0.094c-3.866,0.027-7.893-1.631-11.158-3.554c-2.647-1.559-5.877-4.581-5.583-7.984
	C238.611,427.207,249.101,429.603,254.239,431.289z M450.711,371.84c-2.226,2.5-4.818,4.979-7.569,6.897
	c-0.653,0.455-1.319,0.995-1.932,1.601c-5.108-0.61-10.133-0.95-14.751-1.22c-11.163-0.652-22.346-0.379-33.516-0.086
	c-10.932,0.288-22.61,0.112-33.318,2.509c-1.154,0.258-2.151,2.344-0.587,2.742c8.387,2.138,18.11,1.535,26.711,1.542
	c10.424,0.008,20.823,0.256,31.216,1.113c14.871,1.227,31.983,3.51,45.294,10.776c12.474,6.81,15.213,19.796,15.18,32.888
	c-0.03,11.992-1.816,24.546-6.802,35.556c-1.086,0.773-1.987,1.853-2.53,3.049c-0.67-0.25-1.493-0.394-2.494-0.402
	c-5.841-0.049-15.143,1.256-17.625-5.532c-2.982-8.154,2.457-19.321,11.842-18.394c4.099,0.405,8.234-2.951,8.205-7.201
	c-0.072-10.575-3.624-21.414-10.893-29.198c-6.999-7.494-17.014-11.443-26.833-13.573c-11.056-2.399-22.68-2.491-33.914-1.657
	c-10.518,0.781-21.883,1.869-31.283,6.973c-0.576,0.313-1.326,1.875-0.16,1.954c9.31,0.633,18.633-1.753,27.916-2.396
	c10.35-0.717,20.847-0.441,31.012,1.758c1.228,0.266,2.451,0.569,3.667,0.905c-1.135,0.622-2.207,1.42-3.211,2.47
	c-0.649,0.679-1.264,1.635-1.648,2.636c-21.542,13.323-45.008,22.821-68.683,31.86c-26.994,10.307-54.609,16.513-83.615,16.563
	c-3.516,0.006-7.028-0.103-10.533-0.3c0.637-0.233,1.271-0.495,1.902-0.797c1.272-0.61,2.866-1.852,4.112-3.353
	c4.634-1.054,9.653-3.861,11.662-5.45c5.893-4.662,9.67-13.437,4.893-20.15c-5.587-7.852-19.264-8.979-25.278-2.637
	c-0.226-2.585-0.701-5.113-0.303-7.789c2.41-0.327,4.347-2.28,5.218-4.889c0.315-0.942,0.062-2.476-0.685-3.181
	c-2.599-2.454-7.357-1.913-9.356,1.245c-0.043,0.068-0.086,0.136-0.129,0.205c0.753-0.8,0.614-0.649-0.419,0.454
	c-0.459,0.623-0.86,1.295-1.201,1.99c-0.568,1.162-0.905,2.563-1.162,3.83c-0.426,2.105-0.605,5.147-0.077,7.852
	c-5.94-1.921-13.028,0.271-17.038,5.933c-4.465,6.304-4.208,13.906,1.033,19.595c1.818,1.974,4.042,3.593,6.478,4.862
	c-12.862-2.182-25.454-5.726-37.482-10.569c-8.373-3.372-16.693-7.211-24.418-11.894c-2.923-1.771-6.866-4.021-9.748-6.91
	c13.99-0.325,27.552-5.155,37.803-16.017c17.126-18.146,18.289-47.862,2.032-66.865c-0.428-0.5-1.496,0.298-1.185,0.846
	c4.87,8.565,5.382,20.701,5.084,30.345c-0.333,10.813-3.971,21.381-11.615,29.198c-13.957,14.274-36.497,12.671-53.525,5.496
	c-5.366-2.261-12.791,5.494-10.511,9.548c-0.319,3.417-0.403,6.876-1.098,10.254c-0.986,4.794-3.027,9.303-5.832,13.297
	c-5.579,7.946-14.656,11.764-24.226,10.656c-7.638-0.884-13.471,12.01-4.122,12.05c2.214,0.009,4.392-0.167,6.528-0.49
	c-2.333,0.669-4.154,2.462-5.34,4.578c-0.043,0.078-0.078,0.139-0.116,0.208c-0.544,0.053-0.702,0.009-1.261-0.056
	c-3.333-0.383-6.633-2.127-9.151-4.289c-7.088-6.085-6.742-13.35-4.874-20.995c2.69,0.413,5.759-1.703,7.458-3.558
	c3.098-3.382,8.287-5.569,12.075-8.1c5.018-3.353,9.473-7.146,13.118-11.987c9.151-12.151,8.261-27.797,5.507-41.925
	c-2.216-11.366-4.522-22.59-6.269-34.037c-0.682-4.47-1.421-9.884-1.208-15.121c0.488,1.377,2.435,0.005,2.639-0.893
	c2.412-10.615,5.096-20.431,12.363-28.846c7.605-8.807,18.874-13.958,29.845-17.044c23.131-6.509,44.262,3.158,64.421,13.575
	c9.998,5.167,20.083,9.896,30.877,13.176c11.584,3.521,24.025,4.597,36.083,4.66c24.262,0.126,48.82-7.327,64.125-27.058
	c10.084-13.001,20.194-35.648,10.683-51.389c0.13-0.041,0.261-0.077,0.391-0.119c8.217-2.627,15.587-7.716,20.619-14.74
	c2.42-3.377,12.033-21.119,0.861-19.539c-3.239,0.458-7.9,3.75-7.174,7.624c0.13,0.698,0.275,1.394,0.435,2.085
	c-0.502-2.173-1.126,2.098-1.46,2.946c-1.268,3.212-3.583,5.711-6.198,7.875c-4.841,4.006-11.719,5.678-17.782,6.592
	c-14.44,2.177-31.999-2.563-45.8,3.357c-1.634-0.779-3.98-0.386-5.403,0.492c-5.791,3.572-4.335,9.979-7.59,15.174
	c-2.112,3.371-4.778,5.487-8.459,6.879c-8.041,3.039-17.088,1.068-23.821-4.002c-8.681-6.537-8.668-18.691-5.068-27.891
	c6.548-16.736,20.427-28.34,32.195-41.296c1.648-0.182,3.121-1.105,4.278-2.632c1.447-1.908,1.378-4.415,1.981-6.636
	c0.791-2.914,4.006-3.824,5.652-6.474c3.702-0.209,7.402-0.398,11.08-0.642c9.644-0.638,20.186-0.973,29.133-5.012
	c11.553-5.215,25.149-17.131,27.067-30.486c0.297,0.57,0.618,1.137,0.988,1.697c0.666,1.01,2.082-0.449,2.103-1.208
	c0.273-9.828,3.532-18.386,9.078-26.04c0.786,1.16,1.6,2.304,2.384,3.462c2.115,3.123,4.138,6.304,6.004,9.582
	c1.85,3.249,3.461,6.626,4.773,10.127c0.614,1.64,1.074,3.317,1.32,5.049c0.076,0.638,0.115,1.279,0.117,1.921
	c0.011,0.339-0.022,0.604-0.068,0.804c0.202-0.292,0.567-0.72,1.21-1.288c-0.468,0.413-0.903,0.939-1.282,1.525
	c-0.057,0.144-0.111,0.211-0.133,0.205c-1.711,2.81-2.051,6.9,2.008,7.653c1.603,0.297,3.251-0.12,4.673-0.979
	c7.16,6.417,15.035,11.944,21.92,18.735c7.917,7.809,14.85,16.68,21.176,25.805c13.419,19.355,23.172,41.381,29.284,64.089
	c5.554,20.635,7.658,42.726,3.221,63.763C477.315,333.335,465.349,355.402,450.711,371.84z M537.619,408.791
	c-4.063-0.673-8.086-1.81-11.833-3.519c-3.744-1.707-6.254-4.589-5.456-9.021c0.875-4.855,7.829-4.617,11.271-3.737
	c4.864,1.244,9.771-4.602,8.547-9.108c-2.189-8.062-1.906-16.516-3.744-24.651c-1.893-8.382-8.561-14.982-16.767-17.33
	c-10.997-3.147-26.389-3.605-37.817,1.647c1.804-3.853,3.466-7.702,4.997-11.47c0.185-0.454,0.35-0.91,0.528-1.364
	c2.158-0.668,4.313-1.346,6.491-1.847c6.687-1.539,13.599-2.226,20.451-2.326c12.126-0.177,26.26,2.416,32.636,13.885
	c6.245,11.233,5.718,25.717,4.162,38.045c-1.356,10.75-4.163,21.058-7.689,31.209C541.396,408.939,539.153,409.045,537.619,408.791z
	"/>
<path d="M114.291,228.131c5.859,3.057,12.551,10.298,13.509,17.094c0.305,2.162,3.117,0.517,3.204-1.027
	c0.282-5.033,0.751-9.487-1.525-14.191c-2.022-4.18-5.26-7.381-8.947-10.113c-7.693-5.701-18.129-7.475-27.488-6.507
	c-10.74,1.111-20.473,5.964-27.721,13.927c-7.006,7.698-12.103,22.5-4.224,31.064c1.863,2.025,4.726-0.503,5.316-2.383
	c2.578-8.214,2.303-17.181,7.962-23.787c3.678-4.293,11.026-7.164,17.882-7.909C99.76,223.483,107.563,224.622,114.291,228.131z"/>
<path d="M80.059,260.657c5.076-2.663,8.029-8.144,13.223-10.925c5.171-2.77,12.606-3.534,18.234-2.001
	c2.703,0.736,6.771-4.43,3.53-5.8c-7.962-3.367-15.328-4.24-23.526-0.695c-6.29,2.72-17.728,10.375-15.428,18.624
	C76.577,261.604,78.885,261.272,80.059,260.657z"/>
<path d="M286.163,340.331c-3.73,1.71-7.185,4.78-8.205,8.386c-0.386-1.885-0.587-3.571-1.613-5.319
	c-1.137-1.934-2.614-3.209-4.355-4.593c-1.436-1.142-3.019-2.1-4.632-2.967c-0.646-0.347-1.32-0.638-1.974-0.972
	c-0.69-0.35-1.421-0.487-2.192-0.412c-0.521,0.011-2.542,0.353-0.957,0.166c-2.432,0.287-7.81,4.823-4.57,7.425
	c-1.25-1.004,1.086,1.015,1.358,1.219c0.531,0.399,1.632,0.461,2.295,0.619c1.417,0.338,2.783,0.802,4.13,1.351
	c1.586,0.646,4.231,1.745,6.263,3.153c-3.583,0.273-7.263,1.468-9.236,2.628c-6.319,3.717-10.162,12.58-6.443,19.307
	c6.908,12.493,26.847,11.274,34.699,0.537c13.329-1.487,28.938-16.941,16.847-28.142
	C301.778,337.346,293.108,337.146,286.163,340.331z M298.238,358.867c-4.329,2.533-8.847,0.082-13.196,2.147
	c-2.177,1.034-3.548,3.482-3.33,5.826c-4.084,3.527-10.904,2.214-15.121-1.249c-2.734-2.245-3.102-4.932-1.516-7.974
	c2.462-4.723,9.546-2.868,13.867-2.479c0.104,0.17,0.187,0.341,0.304,0.512c1.217,1.776,3.93-0.746,3.879-2.229
	c-0.353-10.416,14.905-9.36,18.692-1.949C303.501,354.764,300.906,357.306,298.238,358.867z"/>
<path d="M458.513,283.7c-8.021-6.571-21.526-3.629-25.854,5.182c-0.466-3.152-1.086-6.271-1.245-9.48
	c-0.112-2.258,0.012-4.768,0.792-6.915c0.225-0.62,0.482-1.104,0.825-1.609c0.022,0.008,0.038,0.015,0.062,0.023
	c8.169,2.749,10.474-13.532,2.145-10.007c-6.945,2.939-10.89,7.27-11.802,14.952c-0.508,4.278-0.294,9.955,1.801,14.262
	c-5.67-0.234-12.191,4.1-14.561,9.198c-3.563,7.667-2.89,15.534,4.143,20.729c5.845,4.318,14.264,4.381,21.046,2.99
	c3.3-0.677,9.636-4.257,12.239-8.443c6.027-1.547,11.811-4.766,14.691-10.318C466.318,297.471,464.435,288.55,458.513,283.7z
	 M456.109,300.968c-1.498,4.024-7.498,3.876-10.956,3.515c-4.739-0.495-8.435,4.515-8.219,7.994
	c-0.408,0.146-0.931,0.306-1.614,0.492c-3.447,0.94-7.392,0.396-10.769-0.598c-3.058-0.9-5.794-3.301-6.211-6.542
	c-1.006-7.826,6.602-9.535,12.788-9.127c0.548,0.036,1.427-0.41,1.696-1.015c0.532-0.261,1.021-0.727,1.118-1.187
	c1.916-9.037,11.791-11.022,18.624-5.581C455.939,291.605,457.634,296.873,456.109,300.968z"/>
<path d="M170.722,334.587c-3.887-1.468-8.09-1.575-11.752,0.585c-1.492,0.88-2.719,2.108-3.728,3.497
	c0.445-2.493,0.118-5.097-0.891-7.712c-1.823-4.729-5.657-7.418-9.716-10.061c-3.562-2.319-8.57,2.498-8.392,6.034
	c0.115,2.278,0.719,4.422,2.855,5.519c1.479,0.76,3.28,0.393,4.729-0.528c1.166,1.033,2.17,2.326,2.878,3.319
	c0.703,0.986,1.234,2.181,1.649,3.441c-0.345-0.036-0.695-0.055-1.055-0.035c-4.698,0.267-8.263,3.773-10.717,7.509
	c-4.896,7.451-5.758,17.237-1.046,24.917c6.152,10.028,23.193,9.418,30.81,1.297c1.499,0.038,2.87-0.05,3.741-0.157
	c10.052-1.233,19.388-8.086,16.985-19.171C185.342,345.059,178.29,337.445,170.722,334.587z M170.88,361.527
	c-3.948-0.259-7.382-0.319-10.006,2.292c-0.131,0.095-0.261,0.19-0.381,0.288c-0.757,0.533-1.423,1.169-1.993,1.914
	c-0.087,0.115-0.148,0.198-0.223,0.299c-0.34,0.105-1.362,0.532-1.553,0.588c-2.267,0.67-5.903,0.466-8.545-0.719
	c-3.788-1.699-5.334-5.323-5.644-9.264c-0.228-2.897,0.301-5.547,1.509-8.175c1.775-3.861,4.303-0.914,7.298-0.373
	c0.466,0.084,0.904,0,1.299-0.178c0.357,1.147,2.588,0.353,2.923-0.938c0.729-2.812,3.634-7.279,6.118-7.641
	c2.953-0.43,6.085,1.616,8.252,3.511c2.914,2.549,5.294,5.76,6.86,9.294c0.736,1.66,1.158,3.092,1.335,4.57
	c0.044,0.363,0.018,1.964,0.064,1.844c-0.044,0.334-0.113,0.664-0.188,0.992c-0.016,0.068-0.024,0.115-0.031,0.153
	c-0.039,0.065-0.102,0.186-0.196,0.379c-0.028,0.035-0.063,0.082-0.103,0.134c-0.029,0.025-0.053,0.046-0.088,0.078
	c-0.013,0.012-0.02,0.019-0.032,0.03c-0.032,0.019-0.058,0.033-0.096,0.057c-0.102,0.063-0.5,0.239-0.696,0.329
	C174.948,361.643,173.267,361.684,170.88,361.527z"/>
<path d="M275.06,231.717c0.102-0.514,0.158-1.035,0.168-1.561c-0.153-0.582-0.237-0.934-0.255-1.063
	c0.004-0.01,0.011-0.026,0.016-0.037c0.003,0.004,0.005,0.006,0.008,0.012c-0.009,0.038-0.002,0.049,0.016,0.037
	c0.023,0.052,0.054,0.126,0.097,0.245c-0.011-0.107-0.015-0.214-0.023-0.321c0.229-0.288,0.767-1.185,0.505-0.91
	c0.72-0.758,1.526-1.375,2.203-2.187c1.565-1.879,0.83-4.713-1.841-4.622c-3.228,0.11-6.281,2.687-8.274,5.001
	c-2.18,2.53-3.699,7.746-0.096,9.75C270.5,237.683,274.548,234.654,275.06,231.717z"/>
<path d="M287.636,227.297c-2.661-1.44-6.425,0.318-7.978,2.65c-2.125,3.193-5.274,6.442-6.534,10.071
	c-0.489,1.411-1.064,3.521,0.3,4.727c5.74,5.076,12.017-6.259,14.706-10.219C289.595,232.369,290.497,228.847,287.636,227.297z"/>
</svg>
