<?xml version="1.0" encoding="utf-8"?>
<!-- Generator: Adobe Illustrator 17.0.0, SVG Export Plug-In . SVG Version: 6.00 Build 0)  -->
<!DOCTYPE svg PUBLIC "-//W3C//DTD SVG 1.0//EN" "http://www.w3.org/TR/2001/REC-SVG-20010904/DTD/svg10.dtd">
<svg version="1.0" id="Layer_1" xmlns="http://www.w3.org/2000/svg" xmlns:xlink="http://www.w3.org/1999/xlink" x="0px" y="0px"
	 width="566.93px" height="566.93px" viewBox="0 0 566.93 566.93" enable-background="new 0 0 566.93 566.93" xml:space="preserve">
<path d="M172.807,226.663c6.21,25.185,23.171,44.707,44.897,58.131c23.568,14.563,51.579,19.412,78.873,16.153
	c14.106-1.684,27.943-5.54,41.19-10.593c11.386-4.343,21.936-9.778,30.489-18.628c15.391-15.926,21.978-37.551,24.387-59.116
	c0.741-6.632,1.201-13.322,1.406-20.033c9.253-0.08,19.371-5.304,25.953-10.827c8.038-6.745,12.298-17.215,10.416-27.59
	c-1.893-10.435-9.686-22.266-20.589-24.615c-8.626-1.858-16.441,4.584-19.531,12.23c-1.519-8.305-3.48-16.511-5.92-24.543
	c-9.027-29.716-27.48-64.956-59.33-74.625c-6.293-1.911-15.346,9.571-8.157,13.403c18.843,10.043,32.289,24.738,41.887,43.762
	c9.775,19.373,15.413,40.889,17.83,62.39c2.287,20.34,2.421,41.756-1.034,61.956c-3.275,19.146-11.132,37.952-28.865,47.693
	c-11.666,6.408-25.776,10.398-38.784,12.915c-13.217,2.557-26.757,3.113-40.094,1.258c-26.525-3.69-52.465-17.845-68.511-39.466
	c-14.338-19.318-17.197-44.307-15.681-67.638c1.595-24.55,8.642-48.587,20.887-69.925c11.249-19.603,27.821-35.891,48.396-45.361
	c4.223-1.943,8.521-3.76,12.883-5.406c0.761,0.375,1.532,0.728,2.318,1.037c2.364,0.929,5.693-1.596,5.77-3.859
	c2.413-0.765,4.845-1.468,7.293-2.099c3.555-0.916,7.463-1.727,11.375-1.99c0.342,0.444,0.691,0.879,1.052,1.299
	c1.571,1.823,4.536,0.812,6.273-1.009c3.045,0.506,5.952,1.554,8.533,3.41c2.281,1.641,6.164-2.458,4.354-4.671
	c-3.503-4.281-8.39-6.06-13.57-6.652c-1.408-3.97-1.849-8.332-1.954-12.466c-0.066-2.602,0.307-5.319,1.303-7.731
	c0.893-2.163,2.879-3.843,4.038-5.886c1.114-1.964,0.45-5.557-2.292-5.716c-9.887-0.575-14.24,10.343-14.588,18.56
	c-0.188,4.444,0.744,9.073,2.51,13.324c-7.024,0.644-13.896,2.164-20.642,4.181c-0.79-1.119-1.523-2.234-2.198-3.201
	c-2.9-4.159-5.234-8.869-7.063-13.585c-1.533-3.952-2.989-8.583-2.459-12.876c0.219-1.776,0.555-2.426,1.519-3.689
	c-0.59,0.774,1.216-1.294,1.142-1.252c0.798-0.712,1.433-1.548,1.899-2.513c0.016-0.047,0.028-0.079,0.043-0.124
	c1.421-1.897,1.483-5.381-1.43-5.84c-6.283-0.991-11.697,3.664-14.238,9.574c-2.496,5.804-1.544,12.315,0.238,18.159
	c2.111,6.922,6.2,13.774,11.599,19.034c-5.196,1.96-10.168,4.202-14.931,6.732c-1.799-2.522-2.983-5.562-4.526-8.21
	c-2.708-4.648-5.403-9.304-7.763-14.141c-2.034-4.167-3.977-8.7-4.534-13.34c-0.066-0.548-0.121-1.555-0.093-1.966
	c1.162-0.34,2.246-0.655,3.364-1.33c3.006-1.813,5.02-5.885,1.807-8.432c-5.166-4.094-13.502,2.747-15.35,7.462
	c-2.206,5.63-0.432,11.795,1.738,17.152c4.168,10.291,10.488,19.622,19.283,26.27c-10.936,6.649-20.705,14.977-29.443,25.178
	c-11.775,13.749-20.493,30.21-26.564,47.416c-0.863-1.157-1.901-2.16-2.986-2.863c-5.249-3.404-11.473-4.325-17.518-3.076
	c-10.595,2.189-17.525,12.405-20.692,21.984c-2.947,8.915-2.57,20.03,2.036,28.321c5.534,9.961,15.987,12.415,26.517,9.692
	c0.818-0.211,1.553-0.566,2.205-1.016C168.621,200.658,169.667,213.927,172.807,226.663z M392.67,145.516
	c4.474-5.592,9.241-10.902,16.461-6.38c6.751,4.228,10.713,14.701,10.929,22.305c0.164,5.773-3.292,10.976-7.94,14.116
	c-5.614,3.793-11.681,4.175-17.989,5.265c-0.195-11.518-1.182-23.042-3.021-34.401C391.721,146.276,392.33,145.94,392.67,145.516z
	 M166.362,177.125c-14.022,3.724-19.372-12.338-17.785-23.449c0.824-5.774,3.351-11.835,8.516-14.945
	c3.401-2.047,7.155-2.652,11.062-1.935c2.384,0.438,4.701,1.586,6.462,3.242c1.027,0.966,1.356,2.387,2.036,3.513
	c-1.007,3.409-1.927,6.831-2.738,10.255c-1.798,7.589-3.15,15.375-3.974,23.231C169.011,176.748,167.829,176.735,166.362,177.125z"
	/>
<path d="M265.142,116.856c-2.812-0.879-5.992,1.874-7.125,4.152c-4.603,9.256-6.434,26.085-0.148,35.538
	c0.213,0.694,0.439,1.367,0.678,2.007c0.55,1.47,1.912,1.804,3.309,1.846c0.565,0.017,1.126,0.096,1.688,0.157
	c2.427,0.264,5.366-1.217,6.234-3.633C273.615,146.233,280.2,121.563,265.142,116.856z"/>
<path d="M303.64,114.071c-3.446-2.625-8.658,2.251-9.329,5.421c-0.584,2.763-0.982,5.566-1.25,8.384
	c-3.82,13.165-4.371,41.901,12.456,34.928C323.17,155.487,315.723,123.275,303.64,114.071z"/>
<path d="M333.358,194.364c0.411-1.548-0.966-2.825-2.509-2.299c-5.878,2.003-10.403,6.565-16.789,7.349
	c-3.984,0.489-4.418-5.389-8.304-6.045c-2.786-0.471-5.735,0.624-7.524,2.862c-1.618,2.024-2.489,4.391-1.543,6.898
	c0.902,2.39,2.591,3.138,4.42,2.899c0.906,0.813,1.848,1.577,2.872,2.248c3.127,2.05,6.679,1.439,10.118,0.749
	C321.348,207.569,331.33,202.003,333.358,194.364z"/>
<path d="M458.539,496.477c4.065-4.796,5.98-10.896,3.758-17.74c-2.049-6.311-7.271-11.126-13.146-14.461
	c4.737-3.958,8.896-8.69,9.832-14.416c1.129-6.899-4.325-11.031-10.059-13.316c-6.799-2.709-14.06-4.04-21.124-5.846
	c-4.046-1.035-10.247-1.947-11.643-5.531c-0.669-1.718-2.977-0.733-3.76,0.305c-0.229,0.303-0.424,0.601-0.605,0.896
	c-0.123-6.048-11.797-5.218-15.79-5.178c-7.191,0.074-13.771-0.246-20.141-3.822c-1.623-0.911-4.224,0.791-4.389,2.55
	c-0.088,0.936-0.041,1.789,0.089,2.588c-1.806,2.052-2.876,4.861-3.772,7.359c-1.805,5.032-3.322,10.194-4.658,15.368
	c-1.622,6.282-4.019,14.993-1.71,21.664c-8.033,0.507-16.072,1.271-24.045,1.961c0.066-0.112,0.141-0.22,0.203-0.334
	c1.28-2.352,1.606-5.198,2.087-7.981c0.098-0.004,0.198-0.011,0.297-0.017c4.493,0.378,9.166-0.466,13.534-2.185
	c1.721-0.677,3.425-1.838,4.667-3.312c2.183-1.815,3.555-4.645,2.61-7.183c-4.843-13.004-24.193-14.852-35.743-14.138
	c-6.988,0.432-14.42,2.247-20.272,6.211c-4.166,2.822-10.578,9.724-7.226,15.143c0.127,0.205,0.281,0.359,0.454,0.471
	c1.35,7.034,10.863,7.56,18.276,6.203c0.432,2.91,0.902,5.83,1.155,8.744c-11.359,0.906-22.72,1.794-34.083,2.632
	c-7.807,0.575-15.631,1.136-23.46,1.599c0.846-2.484,0.713-5.288,0.37-8.146c4.151-0.002,8.378-1.011,12.03-2.882
	c0.147,0.046,0.295,0.091,0.442,0.137c3.277,1.016,7.03-1.718,8.929-4.057c0.041-0.05,0.081-0.099,0.121-0.149
	c2.239-2.757,2.93-7.627-0.658-9.631c-0.751-0.419-1.504-0.678-2.258-0.814c-3.257-3.335-6.48-5.938-11.364-7.526
	c-6.818-2.218-14.1-2.524-21.203-1.889c-7.24,0.647-14.375,2.605-20.881,5.84c-4.354,2.165-11.884,7.254-10.511,13.017
	c0.189,0.794,0.76,1.157,1.437,1.284c3.878,5.918,11.6,4.858,18.207,4.214c1.064,3.234,1.837,6.492,2.246,9.912
	c0.078,0.654,0.246,1.202,0.473,1.671c-0.773,0.019-1.546,0.045-2.319,0.06c-7.56,0.152-15.107-0.041-22.652-0.283
	c2.047-1.511,3.668-4.013,3.394-6.371c-1.463-12.604-2.843-26.449-9.018-37.751c-9.083-16.624-28.21-2.839-42.1-7.517
	c-0.644-0.217-1.532,0.294-2.054,0.976c-6.64-1.582-13.072-0.258-17.999,5.228c-3.101,3.453-4.925,8.412-6.324,12.743
	c-0.952,2.946-0.622,6.272-2.427,8.879c-5.347,7.721-16.24,13.364-16.013,24.036c0.071,3.341,2.333,6.297,4.367,8.74
	c2.591,3.111,5.262,6.104,7.784,9.245c-6.624,8.157-6.499,18.554,0.048,27.946c3.471,4.979,8.535,8.958,13.613,12.181
	c2.455,1.559,5.091,2.813,7.8,3.858c1.369,0.528,2.775,0.973,4.185,1.375c0.289,0.083,1.111,0.314,1.866,0.475
	c0.307,0.179,0.64,0.341,1.031,0.466c0.919,0.293,1.78,0.571,2.739,0.697c2.605,0.344,6.478-1.778,8.31-4.504
	c0.199,0.681,0.397,1.362,0.598,2.046c1.651,5.625,11.957,7.164,16.77,8.152c12.919,2.652,32.719,4.143,41.332-8.234
	c4.652-6.686,4.64-15.662,3.509-23.396c-0.349-2.387-1.093-7.21-2.628-11.382c5.901,0.537,11.932,0.382,17.746,0.317
	c10.299-0.114,20.564-0.788,30.834-1.524c20.473-1.469,40.856-3.044,61.389-3.264c-2.926,8.833-3.889,19.206-3.143,27.758
	c0.486,5.564,2.724,10.779,6.295,14.846c0.111,0.47,0.223,0.935,0.336,1.394c0.527,2.139,2.213,2.846,4.156,2.618
	c1.406,0.966,2.928,1.792,4.554,2.449c5.326,2.152,11.209,2.593,17.042,1.735c0.546,0.002,1.075-0.001,1.578-0.009
	c5.835-0.094,11.871-1.754,17.375-3.563c4.049-1.33,8.376-3.144,11.7-5.984c9.473,2.896,20.41,4.125,30.17,3.062
	c10.958-1.193,19.583-8.821,17.455-18.958c5.365-3.274,10.065-7.475,13.374-12.993C465.808,504.773,463.218,499.763,458.539,496.477
	z M447.423,450.909C447.454,451.076,447.417,451.074,447.423,450.909L447.423,450.909z M383.021,524.535
	c0.01,0.014,0.015,0.023,0.02,0.034C383.035,524.558,383.028,524.546,383.021,524.535z M366.231,484.284
	c-0.011,0.006-0.027,0.019-0.043,0.033c0.035-0.176,0.074-0.351,0.115-0.525C366.247,484.061,366.23,484.208,366.231,484.284z
	 M212.086,465.626C212.765,465.927,212.927,466.209,212.086,465.626L212.086,465.626z M159.662,525.996
	c-4.78-1.99-9.163-4.971-12.923-8.505c-3.304-3.106-5.968-6.708-7.37-11.042c-1.376-4.253,0.819-7.139,4.048-9.616
	c2.529-1.94,3.731-5.726,1.805-8.422c-2.494-3.49-5.183-6.793-8.025-10.004c-1.714-1.937-3.904-3.927-4.947-6.283
	c-0.096-0.217-0.164-0.322-0.212-0.37c0.032-0.066,0.07-0.187,0.112-0.403c0.043-0.226,1.082-1.71,1.549-2.33
	c3.097-4.107,7.08-7.468,10.316-11.463c4.564-5.635,3.831-11.439,5.587-17.949c0.674-2.499,1.392-5.479,3.732-6.871
	c2.994-1.783,7.601-1.4,10.912-2.041c0.546-0.105,1.371-0.625,2.048-1.291c4.789,2.646,10.026,2.93,15.936,2.534
	c3.299-0.221,6.587-0.573,9.839,0.176c2.146,0.494,3.352,3.419,4.219,5.146c4.305,8.572,5.574,18.931,6.42,28.741
	c-2.699-1.436-5.934-2.419-8.104-3.743c-7.39-4.509-4.756-11.585-5.989-18.75c-0.385-2.234-3.088-2.38-4.514-0.884
	c-7.829,8.22-7.593,22.573,1.774,29.405c1.485,1.083,3.05,2.008,4.651,2.87c-1.654-0.016-3.307-0.029-4.962-0.021
	c-2.322,0.013-4.697,2.738-4.771,4.96c-0.025,0.011-0.05,0.021-0.074,0.032c-0.798,0.212-1.559,0.539-2.283,0.962
	c-1.038-1.774-2.466-3.334-4.113-4.674c3.487-2.813,6.208-6.522,5.331-11.031c-1.384-7.106-10.992-9.62-17.112-9.357
	c-2.043,0.087-5.779,4.472-2.663,5.626c3.747,1.389,7.969,1.99,10.998,4.805c3.489,3.242-1.833,5.628-4.418,6.736
	c-2.484,1.064-6.282,5.393-2.601,7.566c2.347,1.385,8.429,4.853,6.484,8.378c-0.651,1.179-0.701,2.435-0.308,3.484
	c-0.123,0.317-0.24,0.63-0.346,0.932c-2.63,7.438-2.888,15.62-2.298,23.416c0.317,4.194,1.111,8.224,2.11,12.215
	C166.599,527.303,162.757,527.285,159.662,525.996z M450.763,509.148c-2.332,3.403-6.66,6.052-10.376,7.662
	c-2.884,1.25-7.679,5.23-5.623,9.035c0.792,1.464,1.652,3.027,1.911,4.689c-0.681,0.237-1.535,0.49-2.229,0.6
	c-2.2,0.348-4.448,0.396-6.671,0.392c-4.557-0.008-9.327-0.498-13.966-1.405c-0.276-1.148-1.174-2.072-2.983-2.452
	c-1.452-0.305-2.723-0.252-4.014-0.112c-0.108-7.97-0.15-16.004-1.064-23.926c0.064,0.008,0.122,0.022,0.188,0.027
	c3.929,0.272,6.261-1.688,8.8-4.457c1.843-2.01,2.31-6.246-0.523-7.659c-6.61-3.297-0.755-9.178,2.208-13.391
	c1.569-2.23,2.421-7.457-1.722-7.712c-10.935-0.675-12.674-14.672-2.452-18.524c2.015-0.759,2.632-4.179-0.191-3.523
	c-14.978,3.478-18.914,21.47-7.608,30.107c-1.172,1.832-2.265,3.75-3.136,5.688c-2.675-7.344-6.912-14.62-13.568-16.51
	c0.746-0.661,1.399-1.337,1.92-2.013c2.939-3.811,3.971-8.096,3.973-12.836c0.001-1.746-0.212-3.497-0.341-5.236
	c-0.06-0.811-0.076-1.618-0.076-2.43c0-0.165,0.005-0.286,0.011-0.386c4.862-7.198-4.977-11.077-9.54-4.76
	c-3.986,5.519-2.507,11.393-2.509,17.69c-0.001,4.192-7.359,6.35-8.167,1.982c-0.545-2.946-1.202-5.367-0.923-8.372
	c0.367-3.957,1.126-7.877,1.875-11.776c0.686-3.57,1.605-7.115,2.208-10.699c2.934,1.754,6.766,2.58,10.143,2.914
	c3.763,0.372,7.554,0.342,11.32,0.665c2.727,0.234,4.59,1.686,7.542,1.513c2.43-0.143,4.338-1.735,5.487-3.744
	c0.364,7.915,18.282,12.031,23.487,13.611c2.853,0.866,5.66,1.818,8.362,3.087c1.127,0.529,2.204,1.154,3.231,1.856
	c-0.106-0.072,1.694,1.955,1.302,1.254c0.248,0.443,0.34,0.732,0.373,0.894c-0.143,1.096-0.015,0.531-1.012,1.873
	c-2.283,3.073-6.748,6.218-10.435,8.689c-3.795,2.544-6.693,8.685-0.875,10.69c5.734,1.977,10.804,5.892,14.222,10.868
	c3.52,5.125,0.89,8.313-3.858,10.721c-3.982,2.02-6.752,9.378-0.888,10.846C446.946,505.17,452.553,506.536,450.763,509.148z
	 M393.238,444.653C393.263,444.417,393.291,444.472,393.238,444.653L393.238,444.653z"/>
<path d="M485.401,453.668c-3.26-22.521-6.436-45.363-14.57-66.744c-8.474-22.272-22.924-40.469-41.315-55.393
	c-10.63-8.626-22.428-16.122-34.353-22.821c-5.962-3.35-11.895-6.771-17.917-10.01c-6.008-3.231-11.706-6.99-18.13-9.333
	c-2.864-1.044-6.839,2.302-4.874,5.229c4.292,6.395,10.844,11.581,17.594,16.231c-0.171,1.298-0.319,2.528-0.542,3.74
	c-1.68-1.63-4.05-2.589-6.205-3.51c-3.638-1.556-7.723-2.646-11.65-3.202c1.555-4.064,1.878-8.246-2.202-11.455
	c-2.012-1.583-5.556-0.425-7.472,0.605c-2.313,1.244-4.472,3.505-5.037,6.144c-0.027,0.124-0.051,0.237-0.073,0.346
	c-0.025,0.061-0.058,0.148-0.101,0.276c-0.074,0.322-0.121,0.642-0.146,0.96c-0.026,0.156-0.023,0.183-0.002,0.123
	c-0.052,0.844,0.058,1.679,0.348,2.502c0.02,0.052,0.034,0.088,0.053,0.137c-0.02,0.095-0.041,0.202-0.064,0.325
	c-0.042,0.216-0.537,1.92-0.491,1.882c-0.893,2.373-2.53,4.408-3.997,6.46c-1.455,2.035-3.099,4.17-4.752,5.938
	c-1.694,1.813-4.397,4.238-5.432,4.917c-0.725,0.475-0.904,0.628-0.941,0.669c-0.005-0.025-0.143-0.041-1.151,0.337
	c-2.161,0.811-4.446,1.441-6.71,1.887c-4.607,0.906-9.344,1.208-14.029,1.334c-16.532,0.445-33.938-3.224-49.267-9.361
	c-6.299-2.522-12.835-5.864-17.78-10.563c-5.433-5.163-6.948-13.75-8.131-20.802c-0.496-2.956-3.962-0.882-4.555,0.92
	c-0.936,2.843-1.367,5.679-1.375,8.465c-3.313,0.163-6.381,1.817-9.174,3.487c-1.162,0.695-2.476,1.441-3.747,2.283
	c-0.097-0.877-0.174-1.765-0.218-2.67c4.674-3.196,8.461-7.28,8.597-12.788c0.067-2.716-3.718-2.359-5.023-0.983
	c-6.759,7.127-15.674,10.468-24.435,14.487c-10.856,4.98-21.264,11.418-30.958,18.363C133.25,337.785,117.854,361,106.1,384.904
	c-11.97,24.343-19.425,50.942-24.803,77.443c-2.832,13.956-5.13,28.056-6.546,42.227c-1.197,11.982-1.798,24.023-2.938,36.01
	c-1.69,1.774-2.793,4.014-2.595,6.029c0.169,1.72,1.438,4.639,1.229,5.976c-1.494,10.963,14.014,7.024,15.468-1.254
	c0.165-0.938,0.256-1.795,0.283-2.599c1.583-14.452,2.323-28.964,3.584-43.445c1.245-14.285,3.543-28.465,6.242-42.542
	c4.977-25.954,12.331-51.344,23.474-75.346c10.862-23.396,25.767-44.467,46.427-60.143c9.083-6.893,18.975-12.83,29.199-17.846
	c2.185-1.072,4.74-2.263,7.289-3.646c-0.035,1.442,0.025,2.857,0.165,4.247c-0.183,0.294-0.353,0.594-0.494,0.908
	c-0.456,1.011-0.038,1.888,0.929,2.084c2.692,14.041,13.938,25.137,26.187,32.313c15.724,9.211,34.511,14.1,52.541,15.901
	c17.951,1.793,35.936-1.808,52.617-8.433c17.831-7.081,34.057-18.258,42.661-35.829c0.294-0.601,0.651-1.274,1.014-1.987
	c1.849,1.213,3.666,2.402,5.405,3.579c10.938,7.402,22.212,14.297,32.481,22.642c18.133,14.736,31.951,32.146,40.237,54.096
	c7.841,20.769,10.743,43.054,13.726,64.923c3.385,24.823,5.535,50.051,10.363,74.688c-2.443,2.794-3.54,6.524-1.071,9.065
	c1.693,1.742,3.722,3.122,5.72,4.492c5.148,3.531,14.215-3.89,13.229-9.512C493.153,510.6,489.522,482.143,485.401,453.668z
	 M318.547,342.31c0.27,1.857,0.932,3.655,1.954,5.282c0.691,1.101,1.838,2.489,3.175,3.487c-1.939,0.598-3.896,1.145-5.868,1.639
	c-0.622-1.53-1.778-2.764-2.785-4.211c-1.09-1.565-1.956-3.18-2.48-4.942C314.555,343.229,316.557,342.816,318.547,342.31z
	 M308.689,344.11c0.286,3.235,1.484,7.319,3.721,9.826c-3.977,0.785-7.994,1.339-12.016,1.648c-0.066-0.516-0.17-1.03-0.305-1.522
	c-0.855-3.105-1.739-6.405-3.141-9.372C300.883,344.74,304.801,344.563,308.689,344.11z M279.253,354.897
	c-2.719-0.337-5.519-0.756-8.367-1.264c0.72-2.042,0.593-4.245,0.562-6.545c-0.023-1.71-0.029-3.436-0.172-5.141
	c2.925,0.579,5.858,1.052,8.779,1.443c-0.235,2.369-0.462,4.733-0.544,7.116C279.465,351.843,279.238,353.4,279.253,354.897z
	 M256.904,343.544c-0.024-1.876-0.261-3.714-0.549-5.546c3.162,1.07,6.39,1.995,9.655,2.785c-0.401,2.331-0.46,4.713-0.491,7.084
	c-0.018,1.37-0.232,3.089-0.112,4.686c-3.124-0.674-6.275-1.458-9.409-2.361C257.191,348.157,256.935,345.993,256.904,343.544z
	 M252.456,336.592c-0.345,2.504-0.677,4.986-0.882,7.535c-0.118,1.477-0.372,3.161-0.158,4.655c-2.9-0.954-5.764-2.018-8.56-3.195
	c1.805-2.074,2.182-5.186,2.769-7.885c0.274-1.26,0.468-2.519,0.606-3.779C248.259,334.886,250.337,335.775,252.456,336.592z
	 M242.033,331.783c-0.483,2.123-1.034,4.233-1.569,6.336c-0.394,1.55-1.476,3.704-1.716,5.631c-2.415-1.149-4.758-2.394-7.007-3.737
	c1.936-2.068,2.513-5.066,3.314-7.754c0.418-1.401,0.733-2.817,0.975-4.243c1.1,0.81,2.233,1.57,3.394,2.272
	C240.28,330.804,241.153,331.299,242.033,331.783z M232.915,325.502c-0.678,1.963-1.342,3.929-2.006,5.899
	c-0.636,1.886-1.942,4.474-2.111,6.761c-3.084-2.046-5.949-4.303-8.524-6.782c0.581-0.25,1.121-0.66,1.481-1.089
	c1.597-1.902,1.942-4.902,2.935-7.184c0.604-1.389,1.416-2.717,2.32-3.972C228.738,321.439,230.731,323.576,232.915,325.502z
	 M211.799,308.801c2.775-1.922,5.779-3.501,8.545-5.428c0.162,1.306,0.411,2.596,0.748,3.865c-1.867,0.978-3.58,2.316-5.262,3.531
	c-2.16,1.561-4.176,3.336-6.112,5.174c-0.582-1.484-1.08-3.018-1.486-4.604C209.497,310.525,210.692,309.567,211.799,308.801z
	 M212.061,320.882c0.028-0.026,0.064-0.049,0.091-0.076c1.991-1.991,4.08-3.86,6.266-5.634c1.385-1.124,2.9-2.147,4.327-3.256
	c0.616,1.395,1.327,2.756,2.127,4.074c-1.85,1.499-3.285,3.397-4.532,5.515c-0.97,1.647-2.656,4.461-2.952,6.858
	C215.352,326.048,213.561,323.558,212.061,320.882z M286.356,355.616c-0.741-0.058-1.495-0.124-2.256-0.194
	c0.264-1.705,0.083-3.496,0.021-5.273c-0.075-2.12-0.241-4.217-0.441-6.318c2.754,0.301,5.488,0.536,8.175,0.692
	c0.167,0.01,0.335,0.012,0.502,0.021c-0.358,3.541-0.209,7.695,0.818,11.328C290.895,355.873,288.619,355.792,286.356,355.616z
	 M330.363,348.788c-0.269-1.529-2.158-2.697-3.155-3.698c-1.448-1.457-2.342-2.932-3.024-4.56c2.263-0.933,4.376-2.104,6.358-3.479
	c0.702,1.385,1.585,2.669,2.682,3.883c1.434,1.587,3.837,3.447,6.235,3.98c-0.535,0.253-1.067,0.514-1.604,0.76
	C335.411,346.795,332.906,347.829,330.363,348.788z M361.215,330.564c-4.899,4.77-10.64,8.581-16.673,11.802
	c0.162-0.776-0.003-1.632-0.651-2.445c-1.003-1.259-3.213-1.886-4.54-2.789c-1.569-1.067-2.957-2.372-4.184-3.816
	c1.028-0.941,2.033-1.917,3.004-2.94c0.647-0.683,1.283-1.373,1.909-2.072c2.409,4.26,7.266,7.328,11.8,8.503
	c2.688,0.697,6.723-4.226,3.522-5.788c-2.217-1.082-4.509-1.868-6.661-3.104c-1.911-1.098-3.521-2.397-5.152-3.779
	c1.375-1.739,2.67-3.537,3.899-5.383c2.866,1.892,5.886,3.512,8.697,5.493c2.13,1.501,4.195,3.682,6.604,4.727
	C362.271,329.513,361.747,330.045,361.215,330.564z M367.393,323.411c-1.717-2.12-4.754-3.556-6.939-4.8
	c-3.361-1.913-6.944-3.081-10.753-3.367c0.487-0.826,0.962-1.662,1.419-2.51c0.276-0.512,0.55-1.037,0.82-1.566
	c2.799,1.347,5.628,2.598,8.386,4.048c2.969,1.561,5.997,3.845,9.379,4.292c-0.045,0.092-0.078,0.181-0.125,0.274
	C368.94,321.042,368.198,322.246,367.393,323.411z M373.337,312.082c-0.015-0.038-0.03-0.075-0.044-0.112
	C373.663,312.197,373.843,312.308,373.337,312.082z"/>
<path d="M326.108,40.134c0.83-0.889,1.665-1.766,2.572-2.577c0.406-0.363,0.839-0.691,1.279-1.009c0.53-0.49,1.01-1.021,1.442-1.594
	c0.043-0.055,0.074-0.096,0.103-0.135c1.229-1.259,2.236-2.79,2.138-4.636c-0.122-2.295-1.986-3.263-4.05-3.266
	c-4.199-0.007-7.37,2.761-10.279,5.474c-2.14,1.996-4.135,5.788-1.808,8.439C319.652,43.278,324.106,42.277,326.108,40.134z"/>
</svg>
