<?xml version="1.0" encoding="UTF-8" standalone="no"?><!DOCTYPE svg PUBLIC "-//W3C//DTD SVG 1.1//EN" "http://www.w3.org/Graphics/SVG/1.1/DTD/svg11.dtd"><svg width="100%" height="100%" viewBox="0 0 549 363" version="1.1" xmlns="http://www.w3.org/2000/svg" xmlns:xlink="http://www.w3.org/1999/xlink" xml:space="preserve" style="fill-rule:evenodd;clip-rule:evenodd;stroke-linejoin:round;stroke-miterlimit:1.41421;"><g id="hat"><path d="M255.504,38.683c13.979,15.464 33.967,3.29 46.309,-7.381c6.828,-5.903 13.309,-12.372 21.447,-16.472c8.318,-4.189 18.725,-4.074 27.553,-1.912c19.105,4.68 33.939,21.362 44.834,36.764c11.373,16.078 18.881,33.902 25.352,52.379c4.836,13.805 9.629,27.639 13.615,41.718c4.064,14.347 6.592,28.649 8.359,43.426c3.416,-2.997 6.83,-5.994 10.244,-8.99c-3.51,-0.809 -6.693,-0.897 -10.254,-0.632c-3.564,0.268 -7.807,4.926 -5.148,8.367c2.072,2.684 4.336,4.06 7.543,5.179c5.402,1.887 11.928,-2.491 11.768,-8.461c-0.359,-13.375 -3.975,-26.94 -7.533,-39.762c-3.795,-13.665 -8.422,-27.097 -13.172,-40.453c-6.873,-19.324 -14.215,-37.611 -25.422,-54.899c-10.828,-16.709 -24.99,-32.558 -43.395,-40.952c-17.873,-8.153 -38.928,-6.587 -54.809,5.137c-8.629,6.37 -15.809,14.444 -24.318,20.965c-3.924,3.007 -8.572,5.356 -13.479,6.161c-6.076,0.997 -11.971,-1.021 -17.765,-2.447c-1.032,-0.256 -2.592,1.309 -1.729,2.265Z" style="fill-rule:nonzero;"/><path d="M142.249,211.792c3.77,-14.51 5.166,-29.652 8.387,-44.331c3.227,-14.712 5.846,-29.51 8.596,-44.314c5.037,-27.133 10.48,-54.851 20.037,-80.822c2.604,-7.08 6.128,-14.889 12.475,-19.416c8.357,-5.963 19.238,-6.3 29.072,-7.479c23.832,-2.857 50.699,-4.084 71.158,10.598c2.068,-4.373 4.139,-8.746 6.207,-13.119c-2.256,0.025 -4.297,0.621 -6.469,1.184c-4.977,1.289 -9.008,9.629 -2.49,11.618c2.098,0.64 3.813,0.906 6.016,0.931c5.992,0.068 11.975,-8.979 6.209,-13.118c-20.995,-15.066 -48.725,-14.624 -73.297,-11.936c-11.777,1.289 -23.732,2.596 -34.615,7.523c-9.021,4.086 -15.725,11.518 -20.635,19.921c-5.014,8.584 -7.578,18.602 -10.18,28.112c-3.997,14.602 -7.393,29.33 -10.205,44.206c-2.963,15.672 -5.367,31.445 -7.789,47.209c-2.277,14.808 -6.537,29.517 -7.203,44.542c-0.309,6.939 -0.887,13.104 1.043,19.879c0.587,2.066 3.374,-0.001 3.683,-1.188Z" style="fill-rule:nonzero;"/><path d="M140.333,207.445c0.1,-1.275 0.252,-2.509 0.264,-3.787c0.008,-1.085 0.182,-2.277 -0.285,-3.283c-0.172,-0.369 -0.718,-0.132 -0.828,0.169c-0.807,2.19 -0.234,4.923 -0.047,7.188c0.049,0.61 0.862,0.136 0.896,-0.287Z" style="fill-rule:nonzero;"/><path d="M137.249,199.089c-4.328,15.838 4.102,31.637 16.615,41.1c13.348,10.093 30.824,14.185 47.094,16.41c39.49,5.4 80.934,-0.583 119.326,-9.899c44.92,-10.899 88.457,-29.775 127.58,-54.347c2.711,-1.703 5.135,-4.555 4.953,-7.959c-0.156,-2.937 -2.781,-4.916 -5.656,-4.563c-4.354,0.534 -7.297,2.361 -10.586,5.147c-2.361,2.001 -4.229,8.185 0.549,8.685c2.492,0.261 4.662,0.012 7.104,-0.141c-0.236,-4.174 -0.471,-8.348 -0.705,-12.521c-50.012,30.041 -103.838,51.697 -161.834,59.964c-33.037,4.709 -68.695,7.011 -100.9,-3.487c-9.289,-3.028 -18.244,-7.715 -25.25,-14.606c-7.332,-7.21 -9.824,-16.055 -13.088,-25.458c-0.993,-2.859 -4.728,-0.064 -5.202,1.675Z" style="fill-rule:nonzero;"/><path d="M150.278,144.252c-5.766,-1.176 -10.567,-4.216 -15.42,-7.387c-6.043,-3.948 -12.603,-7.209 -19.344,-9.769c-12.025,-4.568 -25.182,-6.765 -37.979,-4.806c-23.014,3.521 -43.474,20.03 -56.004,39.002c-12.763,19.321 -18.964,42.31 -20.793,65.212c-1.973,24.686 5.172,48.209 19.072,68.553c19.043,27.866 49.071,45.168 80.67,55.072c31.011,9.719 67.166,15.793 99.282,8.285c8.046,-1.881 9.437,-15.369 -0.704,-12.998c-21.977,5.138 -46.145,1.8 -67.931,-2.639c-22.597,-4.603 -44.677,-12.029 -64.193,-24.496c-20.144,-12.869 -36.866,-31.56 -45.864,-53.807c-8.984,-22.215 -7.425,-46.266 -1.221,-68.982c6.555,-24.001 21.34,-46.511 44.904,-56.45c13.569,-5.724 27.893,-4.516 41.748,-0.3c7.49,2.279 14.426,6.124 21.188,9.994c6.883,3.938 12.957,6.111 20.813,3.799c3.163,-0.929 6.778,-7.262 1.776,-8.283Z" style="fill-rule:nonzero;"/><path d="M439.268,144.021c16.305,3.659 29.449,-9.449 40.043,-19.876c2.461,-2.42 4.955,-4.801 7.605,-7.015c1.605,-1.343 1.508,-1.261 2.928,-2.187c1.43,-0.931 3.088,-1.725 3.723,-1.964c5.92,-2.229 12.521,0.944 18.16,5.063c39.139,28.599 19.828,85.383 -5.355,116.156c-15.313,18.71 -32.943,35.405 -53.117,48.798c-21.125,14.023 -44.223,23.626 -68.266,31.369c-28.891,9.305 -57.748,18.818 -87.373,25.552c-14.74,3.352 -29.688,5.759 -44.74,7.174c-10.949,1.03 -24.563,3.914 -35.182,-0.11c-3.695,-1.4 -7.507,0.172 -9.86,3.275c-1.829,2.412 -2.961,7.314 0.61,8.936c11.116,5.047 24.328,3.203 36.1,2.105c14.992,-1.397 29.805,-3.387 44.564,-6.41c30.975,-6.345 61.078,-16.059 91.127,-25.762c25.719,-8.306 50.566,-17.855 73.557,-32.28c22.16,-13.903 41.643,-31.448 58.631,-51.283c27.705,-32.346 50.209,-82.988 24.814,-123.024c-9.23,-14.551 -27.826,-29.06 -45.729,-21.293c-13.77,5.974 -22.16,19.729 -33.723,27.929c-4.566,3.239 -9.953,5.271 -15.496,6.013c-3.728,0.499 -8.828,7.531 -3.021,8.834Z" style="fill-rule:nonzero;"/><path d="M148.166,166.046c2.032,33.412 46.626,41.577 72.708,43.665c32.602,2.61 66.342,-0.2 98.24,-7.387c47.561,-10.714 91.232,-36.01 122.32,-73.862c2.176,-2.65 1.482,-7.909 -2.887,-7.245c-2.895,0.439 -4.738,1.703 -7.309,2.914c-2.736,1.289 -4.184,5.921 -0.57,6.973c1.91,0.557 3.727,0.46 5.695,0.303c-0.961,-2.415 -1.924,-4.83 -2.887,-7.245c-16.715,18.033 -34.209,34.189 -55.773,46.313c-19.68,11.063 -41.619,18.551 -63.697,23.086c-32.609,6.698 -67.401,9.073 -100.486,5.237c-24.291,-2.816 -50.346,-10.553 -60.879,-34.731c-1.051,-2.411 -4.597,-0.014 -4.475,1.979Z" style="fill-rule:nonzero;"/><path d="M305.801,46.706c10.5,-8.84 21.674,-13.358 34.941,-7.775c13.582,5.715 24.258,17.238 33.152,28.619c10.299,13.174 18.752,27.747 25.697,42.938c3.01,6.585 5.672,13.338 7.869,20.238c0.881,2.76 1.656,5.554 2.324,8.372c0.307,1.295 0.551,2.601 0.768,3.914c0.102,0.615 0.184,1.233 0.262,1.852c0.17,1.313 -0.891,3.279 0.543,1.294c1.383,-0.628 2.766,-1.257 4.148,-1.884c0.582,0.611 0.873,0.735 0.875,0.37c-1.301,-2.936 -5.541,-0.418 -5.932,1.911c-0.215,1.288 -0.229,2.472 0.604,3.554c0.953,1.241 2.805,0.79 3.957,0.212c5.76,-2.885 2.088,-13.357 0.861,-18.023c-1.891,-7.194 -4.625,-14.173 -7.582,-20.986c-7.07,-16.295 -16.16,-31.892 -26.928,-46.018c-15.676,-20.561 -47.641,-48.801 -72.486,-24.108c-1.508,1.499 -2.68,3.131 -3.893,4.871c-0.457,0.656 0.264,1.116 0.82,0.649Z" style="fill-rule:nonzero;"/><path d="M262.081,72.884c-16.624,14.649 -21.455,37.585 -24.078,58.729c-2.867,23.121 -2.297,46.591 -2.109,69.841c0.035,4.49 8.014,1.448 6.963,-3.08c-0.32,-1.379 -0.76,-2.007 -1.235,-3.297c-0.894,-2.419 -3.944,-0.036 -4.388,1.414c-0.466,1.523 -0.941,2.521 -1.268,4.104c2.352,-0.476 4.703,-0.951 7.055,-1.426c0.141,-21.81 -0.475,-43.556 1.565,-65.31c1.913,-20.404 6.153,-43.25 18.386,-60.27c0.505,-0.704 -0.296,-1.23 -0.891,-0.705Z" style="fill-rule:nonzero;"/><path d="M191.004,54.27c9.947,2.427 14.591,15.103 17.357,23.698c4.709,14.626 6.372,30.214 7.443,45.474c1.066,15.207 1.07,30.642 -0.617,45.804c-0.623,5.602 -1.506,11.226 -3.107,16.639c-0.484,1.636 -1.135,3.223 -1.953,4.72c0.371,-0.681 -1.293,1.542 -0.342,0.548c-0.66,0.69 -2.23,3.447 -1.338,2.075c-0.773,1.188 -1.107,3.311 0.811,3.627c8.685,1.431 11.092,-15.919 12.006,-21.42c2.417,-14.559 2.648,-29.557 2.131,-44.272c-0.563,-16.015 -2.449,-32.064 -6.646,-47.557c-2.797,-10.323 -7.197,-23.613 -17.096,-29.293c-2.443,-1.401 -5.189,-2.016 -7.988,-1.97c-0.895,0.015 -1.856,1.635 -0.661,1.927Z" style="fill-rule:nonzero;"/></g></svg>