<?xml version="1.0" encoding="UTF-8" standalone="no"?><!DOCTYPE svg PUBLIC "-//W3C//DTD SVG 1.1//EN" "http://www.w3.org/Graphics/SVG/1.1/DTD/svg11.dtd"><svg width="100%" height="100%" viewBox="0 0 553 516" version="1.1" xmlns="http://www.w3.org/2000/svg" xmlns:xlink="http://www.w3.org/1999/xlink" xml:space="preserve" style="fill-rule:evenodd;clip-rule:evenodd;stroke-linejoin:round;stroke-miterlimit:1.41421;"><g id="tiger"><path d="M178.342,15.194c-32.374,-5.487 -60.498,17.369 -75.936,43.753c-18.108,30.948 -25.367,67.671 -28.871,102.95c-1.639,16.496 -2.241,33.116 -1.748,49.687c0.5,16.809 2.095,33.599 10.746,48.426c19.057,32.659 60.576,41.457 95.537,41.912c38.8,0.505 81.861,-7.593 104.034,-42.754c21.226,-33.659 17.76,-76.821 11.638,-114.249c-5.23,-31.979 -12.279,-64.984 -28.121,-93.575c-7.61,-13.733 -17.663,-26.097 -31.228,-34.262c-14.545,-8.754 -32.227,-10.376 -48.06,-4.638c-3.883,1.407 -5.074,6.873 0.124,6.822c16.498,-0.158 31.407,1.318 44.702,12.014c13.217,10.633 21.814,25.965 28.408,41.313c7.156,16.655 11.907,34.307 15.704,51.996c3.563,16.605 6.487,33.586 8.075,50.496c3.479,37.016 -0.754,83.101 -36.075,104.042c-15.533,9.209 -35.717,11.12 -53.409,12.093c-18.259,1.002 -37.114,-0.259 -54.684,-5.603c-16.449,-5.003 -32.243,-14.066 -42.094,-28.521c-9.716,-14.26 -11.458,-30.951 -12.151,-47.706c-1.427,-34.494 1.71,-69.734 10.339,-103.189c5.733,-22.224 14.048,-43.926 28.389,-62.087c5.95,-7.534 13.49,-14.167 22.109,-18.454c9.636,-4.793 20.258,-6.533 30.928,-7.117c1.561,-0.086 4.398,-2.882 1.644,-3.349Z" style="fill-rule:nonzero;"/><path d="M143.151,201.637c10.312,1.944 22.299,0.546 32.666,-0.558c11.518,-1.226 23.066,-2.185 34.594,-3.317c7.113,-0.699 28.219,3.423 29.378,-7.25c0.138,-1.268 -0.941,-2.223 -1.911,-2.758c-2.5,-1.379 -6.347,-0.349 -8.454,1.279c-1.427,1.103 -2.157,2.086 -2.411,3.873c-0.057,0.396 1.205,3.908 0.604,1.65c0.496,-1.555 0.991,-3.11 1.487,-4.665c-0.022,0.021 -0.046,0.044 -0.069,0.065c1.484,-0.801 2.969,-1.603 4.452,-2.403c5.673,-0.979 -1.128,-0.073 -2.602,0.02c-2.631,0.167 -5.27,0.233 -7.904,0.302c-5.654,0.147 -11.05,0.551 -16.69,1.217c-10.377,1.224 -20.75,2.484 -31.129,3.677c-10.348,1.189 -21.522,0.753 -31.346,4.571c-1.829,0.71 -3.566,3.75 -0.665,4.297Z" style="fill-rule:nonzero;"/><path d="M140.178,204.932c-0.234,11.863 5.781,25.646 16.039,32.037c11.045,6.883 24.124,10.029 36.918,6.775c22.919,-5.829 35.461,-29.06 45.954,-48.182c1.473,-2.682 0.673,-5.417 -2.597,-5.983c-3.434,-0.595 -7.12,1.192 -9.114,3.956c-1.449,2.007 -2.27,4.267 -2.462,6.736c-0.229,2.947 4.26,2.5 5.84,1.818c2.826,-1.22 5.082,-3.204 7.316,-5.299c-3.565,-1.086 -7.13,-2.171 -10.694,-3.256c-7.738,14.695 -16.558,33.916 -32.947,40.582c-9.497,3.864 -20.092,-0.436 -28.671,-4.573c-10.815,-5.215 -13.992,-16.997 -19.113,-26.762c-1.379,-2.628 -6.418,-0.439 -6.469,2.151Z" style="fill-rule:nonzero;"/><path d="M153.379,198.497c0.003,-0.025 0.006,-0.052 0.009,-0.077c-2.331,0.546 -4.661,1.093 -6.992,1.64c1.099,5.896 0.572,12.564 0.4,18.533c-0.129,4.473 7.745,1.576 8.648,-1.213c2.083,-6.43 5.248,-12.283 5.627,-19.158c-3.112,0.729 -6.226,1.46 -9.338,2.189c-0.04,5.241 -0.149,10.474 -0.306,15.712c-0.148,5.012 8.82,1.859 9.793,-1.374c1.715,-5.703 4.119,-11.115 5.416,-16.952c-3.402,0.478 -6.805,0.954 -10.206,1.432c-0.011,8.725 -0.158,17.434 -0.378,26.155c-0.134,5.336 10.287,2.487 10.949,-1.537c1.305,-7.921 2.694,-15.8 5.162,-23.456c-3.615,0.507 -7.23,1.015 -10.846,1.521c-0.019,10.003 -0.068,20.005 -0.134,30.007c-0.039,6.002 10.619,1.875 11.287,-2.646c1.438,-9.746 2.589,-19.668 6.254,-28.884c-3.646,0.511 -7.29,1.022 -10.935,1.534c0.104,10.442 -0.119,20.891 -0.229,31.333c-0.06,5.704 10.437,2.383 11.385,-1.598c2.805,-11.78 6.31,-23.379 9.022,-35.185c-3.728,0.522 -7.454,1.045 -11.181,1.568c-0.021,11.75 -0.131,23.497 -0.24,35.246c-0.056,5.888 10.615,2.369 11.654,-1.636c2.729,-10.526 5.375,-21.051 9.106,-31.278c-3.874,0.543 -7.747,1.087 -11.621,1.631c-0.099,11.81 -2.532,23.422 -2.754,35.224c-0.115,6.131 10.703,2.234 11.909,-1.671c3.893,-12.603 7.955,-25.15 11.707,-37.796c-3.954,0.555 -7.908,1.109 -11.862,1.664c-1.421,12.239 -5.084,24.136 -5.321,36.52c-0.111,5.847 9.82,2.505 11.494,-0.511c5.388,-9.707 8.067,-20.755 14.334,-29.977c-3.83,0.17 -7.66,0.341 -11.49,0.511c-0.111,9.573 -2.672,18.711 -6.364,27.491c-2.592,6.163 9.247,4.427 11.373,0.677c5.086,-8.969 9.328,-18.376 14.378,-27.362c-3.819,-0.228 -7.639,-0.455 -11.458,-0.682c-1.281,4.988 -2.952,9.697 -5.2,14.335c4.007,-0.173 8.015,-0.345 12.021,-0.518c1.418,-5.821 2.681,-11.695 1.169,-17.611c-1.536,-6.009 -8.181,-7.456 -13.461,-7.655c0.052,2.859 0.104,5.718 0.155,8.576c4.061,-1.868 8.376,-2.371 12.695,-3.373c-1.814,-1.791 -3.629,-3.583 -5.443,-5.374c-1.364,2.187 -3.705,3.647 -5.574,5.39c-1.479,1.376 -2.529,3.932 -0.816,5.574c2.25,2.159 6.205,1.014 8.468,-0.446c4.259,-2.749 8.768,-5.077 13.026,-7.827c-3.051,-0.935 -6.102,-1.869 -9.152,-2.805c-2.465,8.156 -6.511,15.207 -11.209,22.263c3.623,0.628 7.248,1.255 10.871,1.883c3.742,-6.368 6.656,-13.169 10.355,-19.562c-3.771,-0.225 -7.542,-0.449 -11.313,-0.674c-3.785,14.4 -15.49,21.012 -29.236,24.451c-4.874,1.22 -8.717,0.493 -13.033,-1.875c-4.986,-2.734 -9.589,-5.22 -15.129,-6.742c-2.978,-0.817 -12.107,3.229 -9.301,7.444c1.113,1.671 2.269,3.751 4.205,4.571c3.967,1.681 9.093,-0.839 10.722,-4.652c0.37,-0.867 1.743,-4.172 2.726,-5.651c3.826,-5.76 -6.206,-5.808 -9.053,-2.756c-2.258,2.419 -4.881,5.905 -6.18,8.945c3.574,-1.551 7.147,-3.102 10.721,-4.652c0.943,0.364 -1.545,-2.269 -0.785,-1.166c-3.101,2.481 -6.201,4.963 -9.301,7.444c5.967,1.559 10.688,5.443 16.325,7.715c7.394,2.979 15.548,1.521 22.9,-0.781c16.862,-5.279 31.467,-15.031 36.313,-32.807c1.815,-6.658 -9.176,-4.297 -11.313,-0.674c-3.758,6.375 -6.778,13.141 -10.496,19.538c-4.06,6.983 7.943,6.323 10.871,1.883c5.119,-7.763 9.587,-15.702 12.25,-24.657c1.666,-5.606 -6.485,-4.521 -9.152,-2.805c-4.264,2.745 -8.775,5.068 -13.04,7.813c2.551,1.71 5.101,3.419 7.651,5.128c2.666,-2.477 5.501,-4.515 7.459,-7.644c2.543,-4.063 -1.897,-6.192 -5.443,-5.374c-5.475,1.263 -10.821,2.082 -15.977,4.447c-4.7,2.155 -6.502,8.316 0.155,8.576c7.833,0.305 4.472,11.846 3.347,16.438c-0.731,2.981 1.718,4.548 4.467,4.432c3.3,-0.14 6.135,-2.03 7.555,-4.949c2.258,-4.638 3.937,-9.347 5.228,-14.337c1.736,-6.715 -9.327,-4.46 -11.458,-0.682c-5.061,8.974 -9.273,18.385 -14.298,27.376c3.791,0.226 7.582,0.452 11.373,0.677c3.915,-9.481 6.45,-19.563 6.671,-29.853c0.132,-6.11 -9.679,-2.11 -11.49,0.511c-6.398,9.252 -8.994,20.206 -14.338,29.977c3.832,-0.171 7.662,-0.341 11.494,-0.511c0.143,-12.323 3.579,-24.292 5.104,-36.469c0.731,-5.837 -10.653,-2.288 -11.862,1.664c-3.862,12.618 -8.032,25.137 -11.754,37.798c3.97,-0.557 7.939,-1.113 11.909,-1.671c0.045,-11.772 2.293,-23.391 2.461,-35.155c0.088,-6.152 -10.296,-1.941 -11.621,1.631c-3.786,10.209 -6.593,20.704 -9.14,31.28c3.885,-0.546 7.77,-1.091 11.654,-1.636c-0.109,-11.711 -0.219,-23.421 -0.24,-35.133c-0.011,-5.588 -10.288,-2.379 -11.181,1.568c-2.677,11.838 -6.643,23.328 -9.224,35.194c3.795,-0.532 7.59,-1.065 11.385,-1.598c-0.109,-10.406 -0.332,-20.819 -0.229,-31.226c0.059,-5.915 -9.602,-1.652 -10.935,1.534c-4.137,9.894 -5.36,20.53 -6.781,31.067c3.763,-0.882 7.524,-1.765 11.287,-2.646c-0.065,-9.982 -0.115,-19.963 -0.134,-29.944c-0.011,-5.625 -9.718,-2.013 -10.846,1.521c-2.449,7.677 -3.92,15.529 -5.264,23.462c3.649,-0.513 7.299,-1.025 10.949,-1.537c-0.221,-8.662 -0.367,-17.313 -0.378,-25.978c-0.006,-5.089 -9.411,-2.188 -10.206,1.432c-1.268,5.773 -3.624,11.196 -5.01,16.935c3.265,-0.458 6.529,-0.916 9.793,-1.374c-0.156,-5.19 -0.267,-10.375 -0.306,-15.567c-0.035,-4.771 -9.175,-1.858 -9.338,2.189c-0.248,6.145 -3.377,11.458 -4.799,17.334c2.883,-0.404 5.766,-0.809 8.648,-1.213c-0.325,-6.045 -0.853,-12.871 -2.33,-18.752c-0.784,-3.122 -6.719,-0.184 -6.857,2.279c-0.002,0.025 -0.003,0.051 -0.005,0.076c-0.191,3.549 6.656,1.319 6.996,-1.634Z" style="fill-rule:nonzero;"/><path d="M183.401,235.937c-2.215,7.054 -2.664,14.329 -3.345,21.663c-0.326,3.52 -0.497,7.116 -1.1,10.602c-0.501,2.894 -0.842,5.703 2.256,7.183c2.681,1.28 5.893,-0.175 7.938,-1.934c4.402,-3.785 2.411,-12.163 2.361,-17.331c-0.07,-7.252 0.297,-14.688 -2.178,-21.594c-0.906,-2.533 -5.377,-0.357 -5.932,1.411Z" style="fill-rule:nonzero;"/><path d="M128.089,251.544c-1.557,6.245 -0.326,11.565 5.036,15.489c4.748,3.474 10.688,4.993 16.467,5.561c5.864,0.574 11.755,0.353 17.634,0.287c5.074,-0.057 8.225,1.756 13.589,-0.296c2.164,-0.828 3.998,-2.853 4.033,-5.254c0.046,-3.167 -3.12,-4.026 -5.688,-4.396c-5.377,-0.774 -10.979,-0.125 -16.377,0.021c-5.411,0.146 -11.227,0.147 -16.419,-1.579c-5.706,-1.897 -10.146,-6.897 -14.046,-11.251c-1.088,-1.216 -3.883,0.031 -4.229,1.418Z" style="fill-rule:nonzero;"/><path d="M185.27,266.09c2.306,2.594 8.644,3.953 12.978,4.375c7.134,0.695 14.393,0.72 21.501,-0.238c6.334,-0.854 12.92,-2.37 18.209,-6.145c4.244,-3.029 9.776,-10.905 3.689,-14.823c-2.756,-1.774 -8.211,0.571 -9.6,3.235c-0.995,1.908 -0.771,3.954 -1.228,5.359c0.046,-0.142 -0.622,0.583 -1.05,0.803c-3.951,2.031 -8.685,2.681 -13.071,3.181c-5.473,0.624 -10.949,0.582 -16.444,0.557c-2.351,-0.011 -4.703,-0.019 -7.053,-0.099c-2.178,-0.073 -3.392,-0.052 -4.817,0.053c-1.501,0.11 -4.762,1.889 -3.114,3.742Z" style="fill-rule:nonzero;"/><path d="M149.379,92.578c-2.699,8.99 -2.292,18.987 -2.55,28.279c-0.28,10.122 -0.298,20.254 -0.3,30.38c-0.002,9.278 0.144,18.552 0.481,27.824c0.148,4.063 0.354,8.125 0.628,12.182c0.248,3.693 0.303,7.028 3.979,8.883c2.75,1.387 6.182,-0.527 7.877,-2.654c2.328,-2.921 2.026,-5.913 1.705,-9.409c-0.372,-4.034 -0.633,-8.079 -0.873,-12.124c-0.545,-9.211 -0.863,-18.438 -1.192,-27.658c-0.356,-10.031 -0.535,-20.066 -0.9,-30.098c-0.321,-8.802 0.28,-18.648 -2.65,-27.08c-0.919,-2.645 -5.648,-0.38 -6.205,1.475Z" style="fill-rule:nonzero;"/><path d="M211.917,85.611c-4.007,6.548 -3.601,16.604 -3.776,24.051c-0.229,9.747 -0.006,19.492 0.418,29.231c0.791,18.151 2.763,36.358 6.162,54.21c1.407,7.394 14.939,2.376 13.432,-4.464c-3.816,-17.316 -5.884,-34.943 -7.499,-52.583c-0.83,-9.058 -1.351,-18.143 -1.809,-27.226c-0.219,-4.334 -0.517,-8.654 -0.804,-12.983c-0.248,-3.739 -0.279,-7.983 -2.502,-11.114c-0.805,-1.135 -3.1,0.025 -3.622,0.878Z" style="fill-rule:nonzero;"/><path d="M153.491,213.553c1.121,-4.115 -2.68,-8.573 -5.625,-11.082c-3.441,-2.931 -7.862,-3.979 -12.264,-4.221c-10.703,-0.59 -21.086,5.631 -28.895,12.303c-8.803,7.521 -15.434,18.004 -18.541,29.133c-1.524,5.456 -2.028,11.226 -1.473,16.855c0.51,5.179 2.276,14.34 7.849,16.303c2.66,0.937 6.841,-0.354 7.704,-3.344c1.235,-4.274 -1.887,-9.491 -2.678,-13.795c-0.81,-4.401 -0.739,-9.083 0.068,-13.478c1.647,-8.964 6.24,-17.388 12.379,-24.059c4.688,-5.094 11.271,-10.313 18.384,-11.197c3.197,-0.397 6.172,0.112 9.138,1.296c3.896,1.554 6.214,5.662 10.008,6.998c1.346,0.474 3.528,-0.174 3.946,-1.712Z" style="fill-rule:nonzero;"/><path d="M224.022,214.186c5.623,-4.858 12.446,-9.991 20.303,-9.227c6.813,0.662 12.523,5.277 16.9,10.191c5.066,5.689 8.275,12.823 10.328,20.096c1.107,3.926 1.588,7.955 1.973,12.006c0.361,3.807 -0.258,8.399 2.309,11.466c1.33,1.591 4.563,0.336 5.683,-0.85c6.923,-7.329 4.413,-20.432 1.798,-29.153c-2.797,-9.327 -8.33,-18.285 -15.865,-24.498c-15.146,-12.491 -36.59,-7.78 -45.97,9.194c-0.982,1.777 1.707,1.495 2.541,0.775Z" style="fill-rule:nonzero;"/><path d="M210.216,89.327c16.532,2.97 30.302,-11.625 44.407,-17.552c2.35,-0.987 5.738,-3.85 4.459,-6.8c-1.297,-2.987 -5.662,-2.375 -8.012,-1.388c-6.697,2.814 -12.646,7.075 -18.714,11.005c-6.321,4.094 -12.596,6.521 -19.951,8.037c-2.905,0.6 -7.235,5.791 -2.189,6.698Z" style="fill-rule:nonzero;"/><path d="M107.82,63.99c-8.028,6.248 2.354,15.983 7.757,19.577c4.396,2.924 9.167,5.156 13.984,7.288c2.155,0.954 10.465,3.688 10.975,5.177c0.193,-1.244 0.385,-2.489 0.578,-3.734c-0.066,0.102 -0.132,0.204 -0.197,0.306c1.31,-1.048 2.619,-2.096 3.929,-3.145c1.837,-0.68 -1.366,0.437 -1.85,0.614c-1.237,0.456 -2.22,1.34 -3.179,2.201c-2.467,2.217 -1.865,5.395 1.354,6.18c4.644,1.134 16.336,-3.454 11.101,-9.42c-3.29,-3.749 -10.912,-4.966 -15.431,-6.769c-5.538,-2.209 -11.275,-4.61 -16.18,-8.047c-2.087,-1.462 -3.904,-3.218 -5.518,-5.183c-1.483,-1.806 -1.383,-4.627 -3.726,-5.584c-1.122,-0.458 -2.641,-0.206 -3.597,0.539Z" style="fill-rule:nonzero;"/><path d="M125.045,292.479c-3.381,30.594 2.194,62.845 8.496,92.745c3.194,15.15 5.701,30.604 9.768,45.546c1.665,6.116 3.68,12.479 6.673,18.09c2.196,4.115 5.142,7.874 7.708,11.761c2.513,3.805 4.929,7.753 6.398,12.09c0.332,0.979 0.07,3.278 0.375,2.739c0.705,-1.252 -0.709,0.37 0.48,-0.494c-0.686,0.419 -0.672,0.437 0.041,0.054c-0.403,0.208 -0.813,0.405 -1.226,0.593c-6.128,2.867 -13.155,4.336 -17.898,9.548c-5.8,6.373 -2.991,15.434 3.469,20.353c8.151,6.205 20.556,4.472 29.933,3.024c11.855,-1.83 24.32,-5.21 33.403,-13.419c3.58,-3.234 6.691,-8.481 5.109,-13.426c-1.968,-6.15 -9.213,-9.102 -14.812,-10.827c-3.506,-1.081 -7.256,-0.2 -9.919,2.416c-1.882,1.85 -3.178,5.891 0.21,7.109c2.811,1.012 10.02,2.891 10.726,6.623c0.495,2.616 -2.856,4.46 -4.87,5.698c-6.821,4.197 -16.725,5.56 -24.517,6.313c-4.281,0.414 -8.897,0.558 -12.915,-1.181c-2.338,-1.013 -6.015,-5.636 -5.611,-8.06c0.119,-0.713 0.467,-0.909 0.153,-0.67c1.262,-0.964 0.878,-0.67 2.778,-1.528c2.986,-1.35 6.118,-2.348 9.08,-3.757c7.658,-3.644 11.211,-9.154 8.229,-17.48c-3.114,-8.694 -10.158,-15.438 -14.591,-23.41c-7.169,-12.896 -9.709,-28.689 -12.436,-42.987c-2.929,-15.357 -7.632,-30.431 -10.675,-45.801c-4.129,-20.858 -5.61,-41.866 -8.193,-62.92c-0.352,-2.881 -5.122,-0.938 -5.366,1.258Z" style="fill-rule:nonzero;"/><path d="M178.844,373.557c-6.212,11.802 -5.474,27.904 -4.526,40.803c0.566,7.705 2.075,15.37 3.58,22.937c1.796,9.028 3.9,18.022 6.541,26.843c1.744,5.826 3.072,12.644 9.662,14.3c3.57,0.897 10.558,-3.274 7.456,-7.296c1.005,1.303 0.687,-0.192 0.154,-1.174c-0.568,-1.049 -1.066,-2.141 -1.584,-3.217c-1.396,-2.898 -2.471,-5.957 -3.506,-8.998c-2.72,-8 -4.862,-16.193 -6.893,-24.39c-1.712,-6.911 -3.327,-13.899 -4.248,-20.967c-0.809,-6.211 -1.215,-12.458 -1.526,-18.71c-0.335,-6.713 0.743,-13.711 -0.135,-20.352c-0.317,-2.404 -4.172,-1.302 -4.975,0.221Z" style="fill-rule:nonzero;"/><path d="M182.418,384.143c5.143,-8.717 16.931,-7.651 25.76,-8.184c16.546,-0.996 31.549,5.748 46.642,11.581c-0.675,-0.973 -1.349,-1.945 -2.022,-2.918c1.041,16.333 3.507,32.522 3.74,48.912c0.105,7.393 0.697,14.786 0.481,22.18c-0.1,3.435 -0.572,6.616 -0.247,10.056c0.25,2.645 0.799,5.265 -0.795,6.752c-3.387,3.159 -7.825,5.324 -8.544,10.396c-0.549,3.874 -1.871,7.553 -2.124,11.529c-0.35,5.479 1.029,11.004 4.722,15.15c7.429,8.342 21.419,6.151 30.671,2.959c9.621,-3.32 20.321,-10.1 23.912,-20.133c4.228,-11.814 -8.763,-20.848 -19.109,-20.988c-3.036,-0.042 -9.248,3.86 -6.105,7.337c3.44,3.806 9.486,5.629 11.442,9.653c0.505,1.04 0.532,1.578 0.545,1.68c0.06,0.475 -0.157,2.749 0.054,1.631c-0.482,2.568 -0.559,2.29 -2.174,4.449c-1.017,1.358 0.897,-0.996 -0.27,0.292c-0.357,0.396 -0.74,0.767 -1.121,1.139c-0.393,0.383 -0.808,0.742 -1.221,1.102c-1.415,1.229 1.162,-0.881 -0.361,0.268c-0.932,0.702 -1.913,1.334 -2.906,1.944c-0.254,0.156 -2.004,1.123 -0.371,0.247c-0.709,0.381 -1.438,0.726 -2.168,1.064c-1.1,0.512 -2.231,0.952 -3.371,1.367c1.636,-0.596 -1.636,0.454 -2.195,0.594c-0.536,0.134 -3.749,0.677 -2.258,0.484c-1.304,0.168 -2.617,0.218 -3.931,0.206c-2.111,-0.02 -6.104,-1.217 -7.808,-3.659c-3.097,-4.44 -2.605,-10.369 -1.524,-15.483c0.206,-0.973 0.465,-1.934 0.722,-2.893c0.214,-0.801 1.492,-3.034 0.177,-1.532c1.434,-1.636 3.497,-2.858 5.154,-4.246c4.584,-3.837 5.091,-8.921 4.541,-14.496c-0.696,-7.058 0.349,-14.297 -0.011,-21.437c-0.411,-8.15 -0.42,-16.301 -1.009,-24.443c-0.849,-11.739 -2.282,-23.445 -3.405,-35.161c-0.118,-1.238 -0.758,-2.48 -2.022,-2.918c-9.683,-3.352 -19.315,-6.883 -29.313,-9.196c-8.967,-2.074 -17.614,-2.004 -26.682,-0.919c-9.133,1.093 -28.063,3.364 -28.427,15.765c-0.045,1.51 2.497,0.607 2.931,-0.131Z" style="fill-rule:nonzero;"/><path d="M302.133,376.631c-3.365,11.602 -5.034,23.863 -6.661,35.818c-1.548,11.373 -4.68,22.787 -7.926,33.779c-2.093,7.085 -4.271,14.154 -6.727,21.122c-0.869,2.465 -1.95,4.635 -2.143,7.27c-0.075,1.029 0.156,2.067 0.973,2.794c0.606,0.536 1.311,0.864 2.114,0.982c0.455,0.027 0.909,0.055 1.363,0.082c2.421,-0.291 1.967,-0.318 -1.363,-0.082c7.607,1.439 10.918,-7.041 12.687,-12.619c2.198,-6.936 4.067,-13.981 5.899,-21.02c2.813,-10.805 4.849,-21.965 6.128,-33.053c1.337,-11.592 2.323,-24.545 -1.27,-35.806c-0.419,-1.317 -2.81,-0.176 -3.074,0.733Z" style="fill-rule:nonzero;"/><path d="M292.727,210.536c5.108,20.091 26.554,26.919 44.801,30.052c10.355,1.778 20.918,2.318 31.393,2.907c10.428,0.586 20.855,1.572 31.296,1.838c12.197,0.311 24.408,-0.262 36.489,1.794c12.618,2.147 22.839,8.54 31.072,18.226c16.099,18.938 22.838,45.183 23.348,69.571c0.25,11.909 -1.466,23.735 -4.442,35.247c-3.039,11.754 -8.403,21.924 -18.277,29.205c-6.232,4.596 -1.139,10.146 5.191,7.385c22.303,-9.731 28.786,-38.58 31.06,-60.364c2.557,-24.502 -2.295,-50.533 -13.844,-72.3c-5.696,-10.734 -13.5,-21.072 -23.679,-27.875c-10.078,-6.734 -21.786,-9.479 -33.739,-10.379c-12.474,-0.938 -24.996,-0.207 -37.483,-0.797c-9.983,-0.471 -19.959,-1.082 -29.948,-1.513c-25.244,-1.089 -52.41,-4.452 -69.784,-24.874c-1.057,-1.242 -3.837,0.368 -3.454,1.877Z" style="fill-rule:nonzero;"/><path d="M309.632,232.036c-1.62,5.609 -1.527,11.908 -1.983,17.71c-0.49,6.25 -0.607,12.513 -0.434,18.778c0.344,12.441 2.307,24.922 7.649,36.251c1.481,3.142 6.683,2.217 8.866,0.482c9.798,-7.784 14.557,-18.872 17.977,-30.626c3.488,-11.991 4.886,-25.309 10.555,-36.554c-3.92,-0.233 -7.839,-0.467 -11.758,-0.7c-0.679,1.959 -0.954,4.205 -0.768,6.271c0.513,5.657 10.016,2.301 11.115,-1.56c0.515,-1.81 1.462,-3.448 2.016,-5.243c0.942,-3.056 -1.917,-4.671 -4.594,-4.558c-3.348,0.142 -6.369,2.073 -7.77,5.089c-4.778,10.291 -6.721,21.629 -9.437,32.572c-2.672,10.765 -5.801,23.018 -14.769,30.326c3.358,-0.165 6.717,-0.33 10.075,-0.495c-5.249,-10.624 -7.245,-22.124 -8.077,-33.856c-0.436,-6.153 -0.489,-12.33 -0.801,-18.488c-0.276,-5.486 0.162,-11.641 -1.553,-16.901c-0.877,-2.7 -5.767,-0.375 -6.309,1.502Z" style="fill-rule:nonzero;"/><path d="M371.24,241.143c-2.233,8.119 0.601,18.212 2.93,26.072c2.734,9.223 7.339,17.717 13.087,25.396c2.792,3.731 9.449,-0.725 10.765,-3.613c3.635,-7.986 6.058,-16.507 8.412,-24.94c1.227,-4.393 2.358,-8.812 3.415,-13.248c0.631,-2.646 2.834,-7.786 0.17,-9.771c-2.176,-1.621 -5.59,-1.256 -7.697,0.405c-3.241,2.554 -3.537,5.084 -4.357,8.865c-0.942,4.343 -2.016,8.658 -3.129,12.961c-2.287,8.839 -4.757,17.771 -8.253,26.221c3.589,-1.204 7.177,-2.408 10.765,-3.613c-5.3,-6.508 -9.184,-13.806 -12.504,-21.484c-1.75,-4.047 -3.082,-8.254 -4.389,-12.458c-1.228,-3.95 -1.658,-8.479 -3.604,-12.126c-1.138,-2.132 -5.079,-0.602 -5.611,1.333Z" style="fill-rule:nonzero;"/><path d="M436.352,245.055c-2.132,6.886 -2.277,14.804 -2.63,21.967c-0.39,7.906 -0.394,15.78 0.88,23.612c0.904,5.565 8.994,2.628 11.1,-0.493c4.449,-6.6 7.703,-14.1 10.735,-21.432c1.17,-2.828 2.476,-5.782 3.13,-8.783c0.397,-1.825 -0.078,-3.529 -1.832,-4.426c-0.474,-0.242 -2.289,-0.953 -0.809,-0.315c-0.412,-0.178 -0.857,-0.317 -1.304,-0.37c-2.069,-0.24 -4.664,0.612 -5.776,2.508c0.839,-1.43 3.711,-2.781 0.534,-0.723c-1.612,1.044 -2.78,2.678 -3.327,4.498c-0.828,2.751 -1.712,5.447 -2.74,8.133c-2.495,6.522 -5.268,13.172 -8.963,19.117c3.624,-0.525 7.248,-1.051 10.872,-1.575c-1.529,-7.251 -1.857,-14.796 -2.142,-22.181c-0.26,-6.734 0.249,-14.476 -2.011,-20.896c-0.859,-2.444 -5.191,-0.342 -5.717,1.359Z" style="fill-rule:nonzero;"/><path d="M316.298,239.124c-2.472,17.245 -2.927,35.145 -3.104,52.555c-0.049,4.776 8.665,1.951 9.488,-1.332c4.162,-16.591 5.44,-33.663 8.182,-50.504c-3.354,0.786 -6.708,1.573 -10.063,2.359c1.234,16.635 -1.576,33.125 -3.108,49.644c-0.521,5.614 9.675,1.831 10.894,-1.528c5.455,-15.028 8.5,-30.804 14.57,-45.625c-3.79,0.531 -7.58,1.063 -11.369,1.595c-1.403,9.235 -3.521,18.667 -6.398,27.563c3.771,-0.162 7.541,-0.324 11.313,-0.486c2.887,-11.173 6.548,-22.077 6.774,-33.728c0.056,-2.917 -3.86,-3.488 -5.964,-2.868c-12.646,3.728 -20.608,17.05 -11.744,28.63c3.277,4.283 14.217,-1.844 10.555,-7.043c-2.283,-3.242 -3.855,-11.543 1.291,-13.077c-1.988,-0.956 -3.976,-1.912 -5.964,-2.868c-0.163,10.87 -3.609,21.01 -6.261,31.44c-1.666,6.56 9.825,4.173 11.313,-0.486c3.072,-9.63 5.162,-19.798 6.637,-29.785c0.332,-2.249 -2.738,-3.077 -4.339,-3.01c-2.914,0.123 -5.913,1.847 -7.03,4.604c-6,14.813 -8.859,30.552 -14.102,45.605c3.631,-0.51 7.262,-1.019 10.894,-1.528c1.287,-16.405 3.324,-32.936 2.103,-49.407c-0.41,-5.525 -9.424,-1.566 -10.063,2.359c-2.629,16.155 -3.709,32.586 -7.455,48.547c3.162,-0.444 6.325,-0.888 9.488,-1.332c-0.105,-17 1.983,-34.855 -0.499,-51.709c-0.485,-3.282 -5.691,-1.011 -6.039,1.415Z" style="fill-rule:nonzero;"/><path d="M380.489,243.84c0.028,-0.042 0.056,-0.084 0.084,-0.125c0.969,-1.447 -1.335,-1.496 -2.121,-0.988c-2.393,1.543 -3.07,4.182 -3.908,6.76c-1.123,3.455 -1.404,5.708 0.665,8.58c1.543,2.143 6.202,0.423 7.489,-1.119c5.133,-6.154 7.896,-12.982 8.156,-21.024c-3.379,0.792 -6.758,1.585 -10.137,2.377c-0.166,9.202 -1.732,18.319 -1.977,27.527c-0.146,5.552 9.152,2.217 10.758,-0.478c4.212,-7.065 7.104,-14.798 7.328,-23.089c-3.886,0.911 -7.771,1.823 -11.656,2.734c-0.069,10.449 -1.231,20.848 -1.363,31.294c-0.078,6.274 10.177,1.74 11.592,-1.626c4.347,-10.345 6.65,-21.353 8.112,-32.441c-3.997,0.938 -7.993,1.875 -11.99,2.813c-0.722,5.896 -1.985,11.688 -3.338,17.467c-1.379,5.89 -3.845,12.918 -2.998,18.983c0.819,5.875 10.11,2.316 11.444,-1.605c2.097,-6.167 2.399,-13.196 3.669,-19.605c1.19,-6.006 2.479,-11.967 3.213,-18.052c0.698,-5.792 -11.313,-2.401 -11.99,2.813c-1.335,10.277 -3.59,20.508 -7.528,30.119c3.864,-0.542 7.728,-1.084 11.592,-1.626c0.024,-10.439 1.155,-20.83 1.242,-31.267c0.049,-5.886 -11.51,-2.383 -11.656,2.734c-0.189,6.604 -2.505,12.892 -5.703,18.616c3.586,-0.159 7.172,-0.318 10.758,-0.478c-0.065,-9.072 0.616,-18.135 0.629,-27.211c0.007,-5.117 -10.066,-2.087 -10.137,2.377c-0.101,6.401 -2.252,11.036 -5.601,16.339c2.737,-0.664 5.474,-1.327 8.211,-1.99c-2.422,-1.781 -0.272,-7.102 -2.784,-10.032c-0.785,0.634 -1.57,1.269 -2.354,1.901c0.037,0.02 0.075,0.039 0.112,0.059c0.716,0.376 1.775,-0.121 2.187,-0.737Z" style="fill-rule:nonzero;"/><path d="M440.969,245.799c3.271,-2.667 -0.939,0.629 -1.231,1.617c-0.663,2.244 -0.839,4.493 -1.09,6.813c-0.609,5.653 -0.694,11.423 -1.94,16.989c-1.373,6.134 8.729,3.545 10.242,-0.441c2.743,-7.226 5.343,-14.563 6.794,-22.168c1.205,-6.316 -9.716,-4.176 -10.799,0.465c-1.306,5.597 -1.542,11.376 -2.904,16.956c-1.63,6.676 8.622,3.716 10.838,0.646c3.136,-4.346 6.7,-8.271 9.273,-13.008c-3.783,0.169 -7.566,0.337 -11.35,0.505c-0.179,3.304 -1.433,6.191 -2.558,9.264c-2.359,6.44 10.336,4.659 12.02,-0.518c1.254,-3.854 2.487,-7.504 2.653,-11.588c0.232,-5.726 -9.758,-2.506 -11.35,0.505c-2.495,4.717 -6.008,8.652 -8.969,13.059c3.612,0.215 7.226,0.431 10.838,0.646c1.139,-5.6 1.112,-11.354 2.307,-16.931c-3.6,0.155 -7.199,0.31 -10.799,0.465c-1.312,7.635 -4.059,14.748 -6.237,22.145c3.47,-0.487 6.939,-0.975 10.409,-1.461c0.803,-5.789 0.625,-11.774 0.35,-17.597c-0.178,-3.782 -1.2,-10.682 -6.497,-6.363Z" style="fill-rule:nonzero;"/><path d="M81.787,149.175c-0.372,6.689 6.346,10.45 11.459,13.139c6.927,3.643 14.628,5.464 21.247,9.758c1.354,-2.771 2.709,-5.542 4.063,-8.313c-10.372,2.587 -20.258,7.309 -30.943,8.577c1.531,1.52 3.063,3.038 4.594,4.557c1.555,-6.262 2.657,-13.013 2.803,-19.476c0.146,-6.479 -11.263,-2.322 -12.555,1.762c-1.049,3.312 -0.186,5.871 -0.174,9.213c0.021,6.396 12.721,2.647 12.701,-2.979c-0.008,-2.227 -0.016,-4.453 -0.023,-6.68c-3.135,2.059 -6.269,4.117 -9.403,6.176c4.681,1.281 8.995,3.483 13.071,6.084c1.43,-2.926 2.859,-5.85 4.288,-8.774c-4.626,1.282 -9.182,3.422 -14.019,3.664c-0.505,3.099 -1.009,6.196 -1.514,9.294c1.797,-0.328 4.514,1.738 6.404,2.135c3.497,0.734 10.443,-3.146 7.345,-7.186c-3.514,-4.578 -8.482,-5.025 -13.856,-4.016c-5.383,1.01 -9.411,9.727 -1.514,9.294c6.066,-0.333 11.467,-2.579 17.261,-4.156c3.577,-0.974 9.149,-5.629 4.288,-8.774c-4.886,-3.16 -10.007,-5.381 -15.603,-6.947c-3.537,-0.99 -9.391,2.209 -9.403,6.176c-0.008,2.23 -0.016,4.46 -0.023,6.69c-0.021,6.386 12.682,2.649 12.701,-2.979c0.008,-2.34 -0.924,-4.444 -0.174,-6.765c-4.185,0.587 -8.37,1.175 -12.555,1.762c-0.166,5.676 -1.176,11.486 -2.41,17.017c-0.64,2.868 1.687,4.956 4.594,4.557c11.939,-1.64 22.69,-6.504 34.221,-9.669c3.089,-0.849 8.986,-5.59 4.063,-8.313c-11.802,-6.524 -24.982,-8.233 -35.49,-17.188c-1.732,-1.476 -5.32,0.111 -5.444,2.36Z" style="fill-rule:nonzero;"/><path d="M78.585,200.194c6.999,2.15 14.536,1.345 21.751,1.831c-0.928,-0.914 -1.854,-1.829 -2.781,-2.743c-0.063,0.448 -0.148,0.887 -0.155,1.34c0.517,-1.056 1.032,-2.111 1.549,-3.168c-7.909,6.529 -14.616,14.216 -21.315,21.942c3.497,0.605 6.995,1.212 10.492,1.817c1.904,-7.635 5.338,-14.744 7.904,-22.16c1.701,-4.917 -5.122,-4.686 -7.82,-3.71c-3.938,1.424 -7.238,3.717 -10.679,6.046c-3.631,2.458 -4.122,8.688 1.71,7.908c0.693,-0.088 1.386,-0.182 2.077,-0.283c-0.229,-0.017 -2.816,-3.13 -1.396,-0.04c0.507,1.099 1.176,1.726 2.244,2.271c1.119,0.57 2.705,0.532 3.894,0.253c0.779,-0.187 1.504,-0.501 2.172,-0.942c-0.103,0.068 2.466,-2.207 1.226,-1.086c2.16,-1.953 2.938,-4.176 2.314,-6.979c-0.787,-3.548 -6.982,-3.057 -9.393,-2.729c0.57,2.636 1.141,5.272 1.71,7.908c2.499,-1.699 4.718,-3.344 7.569,-4.382c-2.607,-1.236 -5.214,-2.474 -7.82,-3.71c-2.525,7.363 -6.207,14.486 -7.736,22.152c-1.441,7.224 8.959,3.771 11.435,0.681c3.911,-4.884 7.879,-9.698 12.162,-14.263c2.886,-3.075 9.39,-6.672 8.681,-11.406c-0.309,-2.061 -2.069,-2.949 -4.065,-2.82c-7.821,0.504 -15.86,-0.131 -23.531,1.776c-1.301,0.324 -5.226,3.566 -2.199,4.496Z" style="fill-rule:nonzero;"/><path d="M280.198,138.997c-5.529,1.407 -9.965,7.15 -14.273,10.631c-5.176,4.182 -10.431,8.201 -16.245,11.465c-4.307,2.418 -3.427,7.659 1.651,7.64c8.613,-0.032 17.244,-1.043 25.823,0.065c4.16,0.538 10.162,-2.427 9.122,-7.3c-1.199,-5.612 -0.959,-11.419 -2.549,-16.968c-1.489,-5.204 -9.881,-0.593 -11.676,1.691c-3.123,3.976 -7.14,7.065 -10.747,10.572c-1.874,1.821 -2.696,5.091 0.189,6.424c2.934,1.355 6.782,-0.066 8.963,-2.184c3.627,-3.521 7.575,-6.547 11.735,-9.408c-3.194,-0.554 -6.388,-1.106 -9.582,-1.66c0.113,2.023 -0.606,3.164 0.202,5.25c0.915,2.361 4.934,0.988 6.117,-0.301c-1.763,0.857 -1.692,0.922 0.211,0.193c0.936,-0.4 1.769,-0.953 2.501,-1.657c1.54,-1.61 2.614,-3.129 3.379,-5.227c2.076,-5.691 -6.858,-4.562 -9.383,-2.876c-5.085,3.396 -9.935,7.192 -14.333,11.445c3.051,1.413 6.102,2.827 9.152,4.24c4.388,-4.247 8.907,-8.067 12.712,-12.887c-3.893,0.564 -7.784,1.128 -11.676,1.691c1.545,5.459 1.391,11.363 2.666,16.917c3.041,-2.434 6.081,-4.866 9.122,-7.3c-9.661,-1.132 -19.239,-0.081 -28.917,0.065c0.55,2.546 1.101,5.093 1.651,7.64c5.957,-3.668 11.601,-8.156 16.598,-13.05c2.821,-2.764 11.481,-9.793 9.835,-14.412c-0.298,-0.839 -1.551,-0.876 -2.248,-0.699Z" style="fill-rule:nonzero;"/><path d="M270.15,157.707c-0.268,0.588 -0.617,1.123 -0.874,1.721c0.685,-0.663 1.369,-1.326 2.054,-1.989c-1.433,0.649 -2.157,1.58 -2.612,3.014c0.301,-0.457 0.601,-0.916 0.901,-1.373c-1.097,0.931 -1.537,2.445 -1.007,3.784c0.332,0.836 1.222,1.438 1.969,1.833c1.772,0.937 4.305,1.051 6.206,0.621c2.049,-0.463 4.327,-1.886 5.019,-3.98c0.592,-1.791 -0.681,-3.473 -2.521,-3.658c-1.277,-0.128 -2.44,0.044 -3.678,0.271c-0.242,0.044 -0.48,0.119 -0.72,0.172c-1.054,0.233 1.107,-0.112 0.356,-0.037c-0.969,0.098 0.895,0.123 0.256,0.05c-0.572,-0.065 0.94,0.417 0.179,0.044c-0.819,-0.4 -1.548,-0.682 -2.514,-0.639c0.737,0.226 1.476,0.452 2.212,0.678c0.177,0.33 0.189,0.367 0.039,0.111c-0.134,-0.242 -0.297,-0.461 -0.491,-0.654c-0.235,-0.252 -0.208,-0.206 -0.206,-0.608c0.003,-0.908 -0.996,-1.241 -1.743,-1.209c-1.211,0.049 -2.325,0.749 -2.825,1.848Z" style="fill-rule:nonzero;"/><path d="M285.4,177.192c-6.151,1.645 -11.57,3.328 -18.016,3.219c-2.573,-0.044 -9.575,3.479 -7.318,7.093c4.841,7.748 13.136,10.9 20.982,14.808c2.383,1.187 5.603,0.234 7.673,-1.146c1.704,-1.137 4.76,-4.854 2.119,-6.763c-4.496,-3.251 -7.831,-7.816 -11.662,-11.775c-2.357,2.834 -4.716,5.668 -7.074,8.502c2.987,-0.362 6.043,-0.907 9.062,-0.807c3.116,0.104 -2.694,-0.957 0.684,-0.034c0.502,0.158 1.021,0.209 1.558,0.153c0.929,-0.063 -1.061,-0.167 0.148,0.005c1.878,0.268 4.23,-0.592 5.244,-2.275c0.824,-1.367 -1.809,2.444 0.509,-0.785c0.573,-0.799 0.792,-1.576 0.836,-2.544c0.066,-1.453 -1.149,-2.84 -2.294,-3.491c-3.379,-1.922 -8.99,-0.37 -12.555,0.087c-3.078,0.395 -11.176,4.346 -7.074,8.502c3.877,3.93 7.264,8.469 11.799,11.684c3.264,-2.637 6.528,-5.272 9.792,-7.909c-6.114,-2.977 -14.134,-5.332 -18.117,-11.257c-2.439,2.364 -4.879,4.729 -7.318,7.093c8.286,-0.362 17.67,-2.432 23.636,-8.587c2.153,-2.225 0.092,-4.498 -2.614,-3.773Z" style="fill-rule:nonzero;"/><path d="M301.418,388.211c12.252,2.99 25.835,2.392 38.177,0.23c11.231,-1.966 21.017,-6.599 30.748,-12.288c8.424,-4.925 16.626,-10.147 25.782,-13.647c3.886,-1.484 8.256,-2.49 12.435,-2.134c2.174,0.186 4.155,0.808 6.131,1.697c1.05,0.473 2.02,1.087 2.949,1.761c0.937,0.678 1.325,2.197 1.479,1.193c1.611,-1.92 3.222,-3.84 4.832,-5.761c2.571,-0.536 2.718,-0.619 0.438,-0.251c-0.776,0.254 -1.55,0.514 -2.323,0.777c-1.5,0.511 -2.861,1.779 -3.646,3.126c-1.261,2.167 -0.391,3.995 1.993,4.591c-2.725,-0.681 -0.602,-0.009 0.297,0.524c0.974,0.577 2.33,0.537 3.408,0.462c3.363,-0.236 6.802,-2.064 8.1,-5.307c0.107,-0.267 0.214,-0.534 0.321,-0.801c0.453,-1.133 0.213,-2.765 -0.771,-3.571c-17.929,-14.699 -39.026,-5.445 -56.591,4.972c-8.834,5.239 -17.028,11.457 -26.742,14.999c-14.633,5.335 -29.961,3.947 -45.128,5.577c-1.755,0.191 -5.076,3.074 -1.889,3.851Z" style="fill-rule:nonzero;"/><path d="M421.542,369.777c-7.423,8.034 -9.857,18.555 -7.469,29.141c2.243,9.939 8.1,18.714 12.752,27.642c2.286,4.385 4.324,8.899 5.789,13.628c1.366,4.41 1.349,8.957 1.74,13.511c0.424,4.928 0.874,9.848 0.936,14.797c0.026,2.065 -0.004,4.208 -0.408,6.239c-0.191,0.966 -1.23,2.063 -0.023,0.812c0.281,-0.291 -0.332,0.189 -0.755,0.393c-7.021,3.377 -14.419,4.343 -19.563,10.818c-5.216,6.566 0.671,16.861 5.988,21.353c14.405,12.165 38.057,0.934 47.969,-11.749c3.716,-4.755 5.985,-10.163 6.554,-16.176c0.768,-8.105 -5.809,-13.823 -6.28,-21.479c-0.274,-4.451 1.677,-9.197 2.826,-13.43c1.165,-4.294 1.588,-8.665 2.105,-13.069c0.964,-8.196 2.114,-16.64 1.253,-24.892c-0.729,-6.972 -14.266,-2.753 -13.641,3.199c0.599,5.696 0.126,11.439 -0.398,17.123c-0.615,6.664 -1.202,13.385 -2.954,19.854c-1.577,5.821 -3.892,12.383 -2.205,18.429c1.583,5.675 5.719,10.405 5.745,16.461c0.058,13.503 -19.888,27.439 -31.133,17.013c-2.51,-2.327 -4.799,-6.541 -4.752,-9.999c0.01,-0.715 0.043,-0.381 0.594,-0.756c0.84,-0.574 2.741,-1.244 4.332,-1.826c7.058,-2.585 15.425,-5.152 17.062,-13.527c1.813,-9.275 -0.392,-18.89 -0.778,-28.2c-0.423,-10.214 -5.305,-19.511 -10.273,-28.185c-4.053,-7.078 -8.177,-14.035 -10.712,-21.832c-2.745,-8.441 -0.897,-16.045 1.322,-24.318c0.897,-3.351 -4.279,-2.432 -5.623,-0.975Z" style="fill-rule:nonzero;"/><path d="M131.875,32.681c1.142,-3.334 -2.275,-7.598 -3.748,-10.533c-2.269,-4.522 -4.767,-8.854 -8.661,-12.168c-2.475,-2.106 -6.983,-0.895 -8.994,1.345c-5.969,6.648 -9.564,15.171 -11.646,23.786c-1.791,7.415 -2.942,17.813 3.564,23.367c4.267,3.642 15.439,-3.234 10.696,-7.139c-4.956,-4.078 -3.462,-12.483 -2.242,-17.938c1.525,-6.818 4.315,-13.829 8.732,-19.304c-3.287,0.797 -6.574,1.594 -9.86,2.391c3.98,2.808 6.723,6.569 9.502,10.505c2.451,3.472 5.64,7.696 10.31,7.226c0.937,-0.095 2.015,-0.572 2.347,-1.538Z" style="fill-rule:nonzero;"/><path d="M246.659,30.595c3.109,-7.609 5.46,-18.11 12.027,-23.581c-3.146,0.471 -6.292,0.941 -9.438,1.412c5.605,5.515 8.203,14.557 9.566,22.076c1.17,6.453 2.125,15.096 -2.598,20.031c-4.642,4.85 1.57,8.42 6.282,6.093c10.018,-4.947 10.67,-17.067 9.329,-26.847c-1.347,-9.816 -4.805,-21.281 -12.35,-28.182c-3.065,-2.803 -9.912,-0.188 -10.914,3.664c-1.068,4.108 -3.874,7.988 -5.356,12.018c-1.653,4.496 -2.59,9.3 -1.777,14.049c0.468,2.727 4.52,1.001 5.229,-0.733Z" style="fill-rule:nonzero;"/><path d="M162.649,20.572c-1.834,9.468 -1.069,19.351 0.653,28.794c1.627,8.917 4.853,18.006 11.418,24.504c2.877,2.848 8.645,-0.129 9.854,-3.308c6.495,-17.076 7.581,-35.558 9.739,-53.532c0.454,-3.778 -5.433,-2.949 -7.293,-2.271c-4.114,1.501 -8.677,1.938 -12.988,1.226c-3.663,-0.604 -8.552,1.854 -8.91,5.851c-1.073,11.971 0.695,24.258 2.947,36.002c1.133,5.905 10.833,2.799 12.068,-1.693c3.251,-11.815 6.27,-23.82 6.434,-36.143c-4.137,0.97 -8.273,1.94 -12.41,2.91c-0.002,3.51 -0.035,7.013 -0.207,10.519c-0.208,4.212 -1.702,8.792 -1.037,12.931c0.794,4.938 8.311,2.569 10.107,-0.449c4.375,-7.352 3.542,-17.612 3.547,-25.91c0.004,-6.264 -12.337,-2.56 -12.41,2.91c-0.153,11.515 -2.938,22.68 -5.898,33.744c4.022,-0.564 8.045,-1.129 12.068,-1.693c-2.34,-11.714 -4.203,-23.975 -3.219,-35.939c-2.971,1.95 -5.939,3.9 -8.91,5.851c7.477,1.188 14.942,-0.237 21.955,-2.886c-2.432,-0.758 -4.862,-1.515 -7.293,-2.271c-1.922,17.303 -3.023,34.719 -8.761,51.298c3.284,-1.103 6.569,-2.205 9.854,-3.308c-12.686,-11.731 -13.211,-32.117 -14.54,-48.084c-0.279,-3.343 -6.288,-1.54 -6.768,0.947Z" style="fill-rule:nonzero;"/><path d="M134.267,31.394c-0.55,8.326 4.007,14.824 7.669,21.825c2.015,3.854 8.952,0.533 9.211,-3.061c0.567,-7.918 0.634,-15.903 0.855,-23.838c0.061,-2.131 -2.425,-3.027 -4.171,-2.895c-2.216,0.17 -4.405,0.645 -6.567,1.142c-2.409,0.554 -5.66,2.577 -5.624,5.412c0.036,2.884 3.62,3.229 5.72,2.752c0.371,-0.084 0.74,-0.169 1.111,-0.253c-1.331,-0.077 -2.662,-0.154 -3.992,-0.231c1.952,0.771 2.363,2.489 4.963,2.379c2.077,-0.088 4.35,-1.585 5.473,-3.298c3.516,-5.36 -3.689,-7.795 -7.65,-6.761c0.031,2.722 0.064,5.442 0.096,8.164c1.199,-0.316 2.487,-0.778 3.71,-0.913c-1.391,-0.965 -2.781,-1.93 -4.171,-2.895c0.221,7.801 0.278,15.655 0.855,23.438c2.903,-1.26 5.806,-2.52 8.708,-3.779c-5.754,-4.952 -7.591,-12.408 -10.438,-19.102c-1.077,-2.527 -5.616,-0.235 -5.758,1.914Z" style="fill-rule:nonzero;"/><path d="M203.813,17.441c-1.446,5.671 -1.786,11.672 -2.632,17.461c-0.954,6.533 -1.435,13.083 -0.196,19.604c0.885,4.656 7.696,2.396 9.509,-0.423c6.57,-10.22 10.88,-22.959 12.438,-34.961c0.196,-1.518 -1.576,-2.681 -2.86,-2.821c-2.461,-0.269 -4.924,-0.292 -7.396,-0.354c-3.048,-0.076 -7.349,2.508 -7.405,5.871c-0.06,3.513 0.196,6.981 0.462,10.481c0.248,3.267 -0.101,6.061 2.674,8.149c2.521,1.898 5.984,0.324 7.729,-1.873c4.098,-5.165 1.296,-13.395 0.995,-19.539c-2.468,1.957 -4.937,3.914 -7.405,5.871c2.093,-0.051 4.174,-0.065 6.257,-0.274c-1.394,-0.967 -2.788,-1.934 -4.182,-2.9c-1.17,11.382 -6.043,21.511 -10.653,31.794c3.265,-0.777 6.529,-1.553 9.795,-2.33c-1.753,-5.973 -1.518,-12.146 -1.223,-18.299c0.26,-5.427 0.832,-11.441 -1.427,-16.522c-0.793,-1.778 -4.103,-0.41 -4.48,1.065Z" style="fill-rule:nonzero;"/><path d="M3.073,255.918c18.615,-8.679 36.337,-18.492 56.717,-22.512c9.728,-1.919 19.634,-1.967 29.388,-0.265c10.818,1.888 19.304,6.581 28.404,12.376c1.384,-2.832 2.769,-5.665 4.152,-8.497c-2.683,0.46 -4.386,1.573 -6.384,3.173c-1.494,1.197 -3.548,4.052 -0.771,5.263c1.817,0.792 3.756,0.647 5.694,0.528c3.459,-0.215 11.446,-5.622 5.716,-8.717c-40.804,-22.035 -88.415,-8.664 -124.382,16.567c-1.785,1.254 -0.297,2.905 1.466,2.084Z" style="fill-rule:nonzero;"/><path d="M27.598,303.702c7.866,-7.631 16.13,-14.889 24.909,-21.456c7.345,-5.495 15.399,-11.447 24.004,-14.771c5.856,-2.261 11.823,-4.214 17.927,-5.694c2.434,-0.591 4.904,-0.921 7.41,-0.904c-1.469,-0.01 0.861,0.59 0.434,0.243c0.235,0.19 0.675,0.71 1.246,1.355c1.762,1.986 5.644,0.414 7.138,-1.067c1.945,-1.929 3.113,-4.7 0.915,-6.94c-2.121,-2.162 -5.977,-1.616 -8.666,-1.245c-8.14,1.124 -16.119,4.188 -23.77,7.081c-9.57,3.618 -17.893,9.07 -26.152,15.096c-10.675,7.785 -20.719,16.606 -28.472,27.366c-1.396,1.936 2.106,1.878 3.077,0.936Z" style="fill-rule:nonzero;"/><path d="M104.988,70.891c-3.706,8.763 3.231,20.722 9.081,26.927c7.648,8.116 18.061,10.244 28.719,10.741c3.301,0.153 8.029,-2.785 8.07,-6.399c0.008,-0.688 0.016,-1.374 0.022,-2.062c0.014,-1.162 -0.846,-2.529 -1.997,-2.882c-5.041,-1.539 -14.212,-3.733 -15.885,-9.537c-1.622,-5.626 -12.152,-0.356 -12.391,4.117c-0.486,9.122 14.033,12.754 20.634,14.632c-1.11,-1.096 -2.222,-2.191 -3.332,-3.287c0.007,0.684 0.015,1.366 0.022,2.05c2.69,-2.133 5.381,-4.267 8.07,-6.399c-8.563,0.903 -16.813,-2.712 -23.101,-8.35c-3.236,-2.901 -5.888,-6.512 -7.973,-10.302c-1.903,-3.462 -2.698,-7.853 -5.407,-10.771c-1.3,-1.403 -3.951,0.147 -4.532,1.522Z" style="fill-rule:nonzero;"/><path d="M211.007,86.3c-1.668,4.379 0.823,9.654 5.261,11.1c5.622,1.831 11.609,-0.79 16.387,-3.685c9.551,-5.785 17.561,-15.092 24.082,-24.038c-3.836,-0.229 -7.671,-0.456 -11.507,-0.685c-3.524,7.428 -9.579,12.844 -18.069,12.428c-4.897,-0.239 -12.055,8.734 -4.651,9.477c9.7,0.971 20.409,-4.623 26.487,-12.014c1.414,-1.72 0.857,-4.276 -1.138,-5.198c-2.712,-1.253 -6.943,-0.082 -8.852,2.157c-2.083,2.443 -6.91,6.017 -10.344,5.668c-1.55,3.159 -3.101,6.318 -4.651,9.477c15.014,0.754 27.295,-9.447 33.317,-22.516c1.007,-2.184 -1.062,-4.032 -3.013,-4.37c-3.187,-0.552 -6.652,1.104 -8.494,3.686c-4.413,6.188 -9.598,11.897 -15.229,16.992c-2.322,2.101 -5.384,4.602 -8.242,5.256c-2.806,0.642 -5.453,-4.077 -7.491,-5.406c-1.262,-0.824 -3.391,0.46 -3.853,1.671Z" style="fill-rule:nonzero;"/><path d="M130.791,129.332c-5.556,4.771 -5.968,14.864 0.102,19.319c2.684,1.97 8.233,0.445 9.074,-3.045c1.476,-6.13 2.367,-12.357 0.304,-18.461c-0.513,-1.515 -2.475,-1.788 -3.799,-1.804c-0.34,-0.004 -0.68,-0.012 -1.02,-0.026c-2.712,-0.114 -5.477,1.886 -6.529,4.277c-2.448,5.563 -3.847,11.632 -2.53,17.654c1.06,4.846 12.127,0.738 11.568,-3.844c-0.624,-5.115 -0.261,-9.337 1.353,-14.258c-2.177,1.426 -4.354,2.852 -6.529,4.277c0.345,-0.015 0.69,-0.022 1.035,-0.026c-1.266,-0.601 -2.532,-1.202 -3.799,-1.804c1.865,4.969 0.925,10.285 0.147,15.389c2.808,-1.516 5.614,-3.031 8.422,-4.547c-4.847,-2.953 -2.403,-8.434 -2.313,-12.784c0.06,-2.915 -4.402,-1.249 -5.486,-0.317Z" style="fill-rule:nonzero;"/><path d="M226.131,127.659c2.974,-2.439 3.521,-3.097 1.641,-1.972c-0.516,0.336 -0.947,0.759 -1.293,1.267c-0.467,0.711 -0.592,1.519 -0.744,2.332c-0.39,2.068 -0.455,4.203 -0.384,6.302c0.149,4.379 2.269,8.317 6,10.562c2.833,1.703 7.287,-0.941 8.364,-3.63c2.428,-6.061 2.421,-12.684 -0.651,-18.514c-0.796,-1.512 -2.317,-1.824 -3.896,-1.85c0.074,0.001 -1.129,-0.203 -1.978,-0.237c-2.646,-0.109 -6.259,1.97 -7.035,4.608c-1.469,4.991 -3.722,13.354 0.511,17.542c3.154,3.12 11.188,-0.336 11.041,-4.791c-0.076,-2.281 -0.918,-4.407 -0.992,-6.725c-0.068,-2.166 0.236,-4.385 0.636,-6.509c-2.345,1.536 -4.69,3.073 -7.035,4.608c0.571,-0.016 1.139,-0.088 1.7,-0.216c1.606,-0.254 -0.402,-0.008 0.434,-0.021c-1.299,-0.616 -2.598,-1.233 -3.896,-1.85c2.661,4.542 3.095,9.397 1.403,14.373c2.788,-1.21 5.576,-2.42 8.364,-3.63c-4.813,-2.54 -3.581,-9.026 -5.134,-13.328c-1.108,-3.071 -6.324,-0.349 -7.056,1.679Z" style="fill-rule:nonzero;"/><path d="M217.27,93.523c-0.279,-0.176 -0.564,-0.341 -0.856,-0.497c-1.858,-1.034 -5.431,0.503 -5.937,2.576c-1.088,4.465 4.493,7.2 8.524,7.973c5.584,1.069 11.372,-1.541 15.979,-4.422c5.274,-3.3 9.58,-8.207 13.327,-13.095c2.99,-3.9 7.646,-10.092 7.574,-15.245c-0.079,-5.608 -9.193,-2.314 -10.887,0.483c-1.592,2.629 -2.43,5.663 -3.943,8.36c-1.982,3.533 -4.414,6.812 -7.171,9.772c-2.446,2.628 -5.26,4.989 -8.602,6.361c-1.044,0.429 -2.203,0.457 -3.297,0.31c-0.805,-0.108 -4.39,-1.352 -4.604,-2.139c-0.104,0.678 -0.209,1.355 -0.314,2.033c-0.254,0.189 -0.509,0.379 -0.763,0.568c1.136,-0.544 2.532,-2.095 0.97,-3.038Z" style="fill-rule:nonzero;"/><path d="M114.866,81.323c-1.72,2.666 -2.223,5.331 -0.158,7.957c1.909,2.428 4.826,4.005 7.609,5.238c2.477,1.098 8.371,-0.809 7.914,-4.273c-0.459,-3.479 -1.43,-7.07 -4.772,-8.799c-3.084,-1.596 -7.463,-0.373 -10.028,1.668c-2.294,1.826 -4.715,4.549 -4.283,7.74c0.518,3.831 4.217,5.402 7.65,5.895c3.151,0.451 7.998,-1.613 8.088,-5.312c0.033,-1.357 0.187,-2.772 0.061,-4.126c-3.401,1.477 -6.803,2.952 -10.204,4.429c1.768,1.718 5.007,3.472 7.495,1.651c1.256,-0.918 2.574,-2.007 3.083,-3.546c0.503,-1.524 -0.338,-3.189 -1.176,-4.381c-1.224,-1.737 -4.688,-0.996 -6.208,-0.336c-2.01,0.872 -3.791,2.489 -3.996,4.765c-0.12,1.345 0.027,2.747 0.061,4.097c2.696,-1.771 5.393,-3.541 8.088,-5.312c-0.487,-0.051 -0.965,-0.116 -1.447,-0.204c-0.537,-0.134 -0.565,-0.131 -0.084,0.007c-0.226,-0.085 -0.449,-0.176 -0.672,-0.271c-0.231,-0.098 -0.999,-0.679 -0.206,-0.072c-0.788,-0.603 -0.024,0.215 -0.262,-0.198c-0.13,-0.226 -0.296,-0.967 -0.095,0.048c-0.061,-0.304 -0.039,-0.618 -0.011,-0.924c-0.101,1.075 0.041,0.137 0.169,-0.17c-0.595,1.434 0.709,-0.733 -0.406,0.604c0.248,-0.297 0.936,-0.749 -0.217,0.112c0.692,-0.518 -1.294,0.541 -0.07,0.051c-0.489,0.236 -1.004,0.36 -1.546,0.37c0.461,-0.02 0.329,-0.041 -0.395,-0.066c0.595,0.044 -0.731,-0.391 0.243,0.085c-0.727,-0.354 -0.037,0.001 0.154,0.179c0.49,0.455 0.29,0.288 0.524,0.701c0.608,1.07 0.915,2.306 1.106,3.512c2.639,-1.425 5.276,-2.85 7.914,-4.273c-2.264,-0.943 -10.129,-2.848 -8.724,-6.533c0.384,-1.008 -0.424,-1.813 -1.362,-1.976c-1.39,-0.243 -3.07,0.472 -3.837,1.663Z" style="fill-rule:nonzero;"/><path d="M441.406,103.778c-15.882,2.631 -36.689,21.542 -27.915,39.108c6.463,12.938 25.825,16.265 38.465,18.769c7.441,1.474 14.962,2.538 22.381,4.125c8.199,1.754 15.964,5.389 23.395,9.183c20.129,10.279 36.679,26.979 41.011,49.792c2.983,15.715 -0.103,33.088 -6.473,47.587c-2.936,6.683 -7.34,13.212 -13.316,17.513c-5.461,3.93 -16.015,6.565 -21.601,1.714c-4.735,-4.113 -17.086,3.66 -11.844,7.904c8.621,6.981 21.641,5.169 31.33,1.536c8.707,-3.264 15.838,-9.975 21.158,-17.426c10.531,-14.746 14.615,-34.753 14.063,-52.607c-1.314,-42.478 -41.662,-68.31 -79.824,-74.669c-14.427,-2.403 -30.51,-3.751 -43.215,-11.63c-17.529,-10.869 -2.266,-34.816 12.615,-39.804c0.837,-0.282 0.684,-1.248 -0.23,-1.095Z" style="fill-rule:nonzero;"/><path d="M413.081,109.413c-4.516,3.777 -7.015,9.251 -9.37,14.543c-2.345,5.27 -4.378,10.51 -4.854,16.308c-0.783,9.543 5.741,16.567 13.176,21.492c23.199,15.368 52.106,17.118 76.261,30.399c9.538,5.244 19.55,12.711 25.81,21.758c6.17,8.918 7.533,19.595 7.261,30.187c-0.198,7.729 -2.932,15.479 -6.153,22.426c-1.941,4.188 -6.864,13.76 -12.357,11.979c-0.978,-0.317 -1.93,-0.64 -2.881,-1.03c-4.773,-1.955 -15.389,4.758 -8.859,8.691c7.872,4.742 17.941,1.758 24.457,-3.938c6.586,-5.757 10.641,-14.066 13.506,-22.184c6.081,-17.229 5.096,-37.326 -5.689,-52.459c-6.273,-8.8 -15.885,-15.313 -24.974,-20.881c-11.575,-7.092 -24.91,-10.836 -37.891,-14.406c-13.779,-3.791 -27.542,-7.451 -40.177,-14.313c-10.087,-5.478 -15.979,-12.711 -14.027,-24.479c1.437,-8.666 5.408,-15.84 8.937,-23.718c0.587,-1.318 -1.733,-0.747 -2.176,-0.375Z" style="fill-rule:nonzero;"/><path d="M489.877,49.809c-3.285,1.747 -6.393,3.803 -9.97,4.94c-4.27,1.356 -9.024,1.551 -13.456,2.004c-8.731,0.892 -16.938,3.356 -24.752,7.366c-8.346,4.283 -15.988,10.12 -21.875,17.457c-2.945,3.671 -5.275,7.598 -7.121,11.926c-1.407,3.3 -3.591,9.334 -1.439,12.552c2.352,3.518 8.598,1.813 10.464,-1.517c1.987,-3.547 1.75,-7.686 3.048,-11.555c1.318,-3.928 3.721,-7.584 6.374,-10.735c5.703,-6.771 13.267,-11.874 21.34,-15.374c7.561,-3.277 15.789,-4.101 23.668,-6.291c4.847,-1.347 14.39,-4.146 14.574,-10.507c0.012,-0.412 -0.611,-0.395 -0.855,-0.266Z" style="fill-rule:nonzero;"/><path d="M501.39,37.161c-4.837,8.74 -6.389,19.006 -10.466,28.148c-3.385,7.592 -7.803,15.129 -13.656,21.084c-4.348,4.424 -9.631,7.19 -15.346,9.438c-6.541,2.573 -16.193,3.057 -21.117,8.348c-1.233,1.326 -2.095,3.776 0.139,4.702c4.041,1.675 8.502,-0.121 12.449,-1.336c3.99,-1.227 7.952,-2.563 11.83,-4.109c7.18,-2.86 13.936,-7.012 19.382,-12.521c5.822,-5.89 9.536,-13.376 12.532,-20.999c2.151,-5.471 3.346,-11.225 4.311,-17.007c0.883,-5.291 1.748,-10.552 0.609,-15.845c-0.061,-0.284 -0.585,-0.052 -0.667,0.097Z" style="fill-rule:nonzero;"/><path d="M125.387,309.583c-0.015,0.206 -0.029,0.411 -0.045,0.617c-0.045,0.643 0.445,1.02 0.915,1.319c3.866,2.465 9.115,2.548 13.517,3.372c5.495,1.028 10.68,2.72 15.389,5.771c1.08,-2.209 2.159,-4.418 3.238,-6.627c-8.844,2.579 -17.163,6.984 -26.048,9.303c1.483,2.141 2.967,4.281 4.45,6.423c3.713,-3.776 7.204,-7.874 11.713,-10.724c5.008,-3.166 2.365,-8.422 -3.145,-7.246c-5,1.067 -9.754,3.025 -14.577,4.684c1.556,2.213 3.11,4.425 4.666,6.638c2.462,-1.373 4.569,-3.161 6.856,-4.79c3.573,-2.547 3.751,-7.564 -1.596,-7.381c-4.758,0.163 -9.149,1.213 -13.357,3.467c-3.94,2.109 -6.599,8.313 0.148,8.18c2.267,-0.045 4.09,-0.7 6.164,-1.528c2.362,-0.943 4.996,-4.294 1.939,-6.079c-1.757,-1.025 -3.115,-1.265 -5.17,-1.307c0.05,2.727 0.1,5.453 0.148,8.18c2.422,-1.297 4.448,-1.914 7.197,-2.014c-0.531,-2.46 -1.063,-4.92 -1.596,-7.381c-2.283,1.633 -4.388,3.424 -6.847,4.8c-1.69,0.946 -3.472,3.364 -2.597,5.38c1.217,2.805 5.078,2.013 7.263,1.258c3.803,-1.314 7.491,-2.783 11.458,-3.539c-1.048,-2.415 -2.096,-4.83 -3.145,-7.246c-5.52,3.324 -9.825,8.037 -14.322,12.573c-4.707,4.749 1.606,7.827 6.067,5.884c8.529,-3.713 16.886,-8.045 25.666,-11.132c2.451,-0.862 5.079,-4.46 1.981,-6.208c-6.949,-3.92 -14.585,-5.443 -22.41,-6.508c-2.286,-0.312 -13.609,-2.472 -13.92,1.861Z" style="fill-rule:nonzero;"/><path d="M133.606,344.719c5.977,0.022 12.27,-2.225 18.177,-3.217c7.249,-1.219 14.63,-1.512 21.968,-1.425c-1.142,-0.792 -2.283,-1.585 -3.426,-2.377c-0.006,0.23 -0.011,0.46 -0.017,0.689c0.733,-1.117 1.466,-2.234 2.198,-3.352c-14.484,8.433 -28.677,18.837 -41.437,29.683c3.271,0.996 6.54,1.991 9.81,2.987c8.066,-9.765 19.467,-16.254 25.943,-27.423c1.802,-3.109 -0.373,-5.652 -3.772,-5.477c-10.404,0.54 -18.308,6.649 -26.911,11.795c2.119,2.029 4.24,4.061 6.359,6.09c3.209,-1.965 6.618,-3.559 9.946,-5.307c5.607,-2.945 5.706,-9.623 -1.747,-8.355c-6.264,1.065 -23.218,9.561 -15.305,17.772c2.596,2.694 8.894,0.011 9.73,-3.267c0.955,-3.733 1.723,-4.901 5.68,-5.604c-0.582,-2.785 -1.165,-5.57 -1.747,-8.355c-4.323,2.309 -8.755,4.429 -12.917,7.025c-1.983,1.236 -4.246,4.424 -2.047,6.533c2.266,2.174 6.119,0.958 8.406,-0.443c5.424,-3.32 10.916,-8.496 17.548,-8.76c-1.257,-1.826 -2.515,-3.65 -3.772,-5.477c-6.485,10.848 -18.184,17.662 -26.137,27.39c-1.385,1.692 -0.847,4.198 1.116,5.105c2.964,1.369 6.427,-0.173 8.693,-2.118c7.497,-6.434 15.396,-12.354 23.35,-18.208c3.837,-2.824 7.601,-5.756 11.35,-8.694c2.129,-1.669 4.87,-3.393 4.8,-6.37c-0.043,-1.805 -1.918,-2.413 -3.426,-2.377c-7.594,0.182 -15.104,0.915 -22.59,2.197c-6.775,1.159 -14.575,2.562 -20.514,6.149c-1.747,1.059 -1.463,3.183 0.691,3.191Z" style="fill-rule:nonzero;"/><path d="M143.208,384.786c4.69,-4.111 11.024,-8.867 17.494,-8.992c-0.975,-1.414 -1.949,-2.828 -2.923,-4.243c-5.932,7.931 -12.968,14.915 -17.557,23.788c-3.514,6.793 7.856,6.389 10.398,1.801c3.895,-7.026 8.625,-13.513 11.604,-21.021c1.792,-4.517 -5.023,-4.702 -7.492,-3.555c-6.096,2.834 -11.461,6.988 -15.995,11.938c3.411,1.039 6.822,2.077 10.233,3.116c1.172,-1.845 3.447,-3.104 4.908,-4.895c2.91,-3.568 -2.151,-5.805 -5.079,-5.015c-4.627,1.249 -8.587,3.78 -11.036,7.968c-1.49,2.547 -0.582,5.195 2.484,5.727c3.434,0.595 6.625,-1.227 8.723,-3.785c2.519,-3.07 5.463,-5.725 9.066,-7.441c-2.498,-1.186 -4.995,-2.37 -7.492,-3.555c-2.711,7.089 -7.573,13.063 -10.887,19.865c3.842,-0.165 7.686,-0.331 11.527,-0.496c3.755,-8.317 10.003,-15.291 14.768,-23.024c1.453,-2.358 -0.331,-4.436 -2.923,-4.243c-10.069,0.744 -18.362,6.678 -24.014,14.786c-1.911,2.743 2.886,2.421 4.193,1.276Z" style="fill-rule:nonzero;"/><path d="M306.977,314.085c-3.306,8.085 -2.481,18.192 -3.004,26.79c-0.548,9.023 -1.115,18.063 -1.953,27.063c-0.856,9.199 -2.227,18.343 -3.947,27.419c-0.908,4.791 -2.122,9.51 -3.163,14.271c-0.798,3.646 -2.228,8.253 -0.968,11.85c0.704,2.012 4.12,0.758 5.081,-0.25c5.938,-6.229 7.516,-16.393 9.201,-24.545c1.882,-9.107 2.985,-18.33 3.724,-27.594c0.756,-9.479 1.006,-18.963 0.797,-28.468c-0.183,-8.341 1.094,-19.624 -2.747,-27.256c-0.628,-1.245 -2.64,-0.213 -3.021,0.72Z" style="fill-rule:nonzero;"/><path d="M308.099,313.074c-3.319,-1.644 -7.444,-1.17 -11.013,-0.65c-5.363,0.782 -10.681,1.826 -16.045,2.614c-2.453,0.36 -8.28,5.783 -3.589,7.345c8.233,2.74 16.981,3.391 25.122,6.389c4.114,1.515 13.468,-4.034 7.723,-7.576c-1.134,-0.698 -1.994,-1.465 -2.887,-2.435c-1.224,-1.332 -5.463,2.122 -1.689,2.253c-0.508,-2.352 -1.017,-4.703 -1.525,-7.055c-2.182,1.761 -4.595,2.952 -5.659,5.705c-0.351,0.908 0.085,2.188 1.082,2.493c3.8,1.166 7.396,-0.176 10.429,-2.595c3.407,-2.718 3.58,-6.847 -1.525,-7.055c-4.163,-0.17 -11.173,1.165 -12.428,6.1c-1.229,4.834 2.752,7.927 6.48,10.164c2.574,-2.525 5.148,-5.051 7.723,-7.576c-8.69,-3.089 -17.854,-3.7 -26.658,-6.271c-0.836,2.558 -1.672,5.115 -2.508,7.673c4.169,-0.87 8.272,-2.078 12.412,-3.085c4.508,-1.097 9.227,-1.579 13.551,-3.288c1.13,-0.448 2.687,-2.317 1.004,-3.15Z" style="fill-rule:nonzero;"/><path d="M307.22,337.244c-6.238,-2.146 -13.126,-2.27 -19.676,-2.577c-8.104,-0.381 -16.398,0.359 -24.321,2.064c-1.987,0.428 -8.315,4.722 -4.713,7.188c12.831,8.78 28.658,13.984 43.652,17.695c3.427,0.849 10.283,-2.643 8.646,-6.92c-1.833,-4.792 -2.342,-9.593 -2.421,-14.689c-0.025,-1.625 -1.524,-2.969 -3.114,-3.072c-3.301,-0.214 -6.323,-0.009 -9.577,0.609c-2.866,0.545 -5.894,2.059 -8.827,2.061c-5.883,0.006 -11.322,9.137 -3.005,9.129c3.272,-0.003 6.543,-0.133 9.035,-2.582c4.059,-3.988 -2.073,-6.543 -6.03,-6.547c-5.886,-0.006 -11.322,9.121 -3.005,9.129c5.278,0.005 10.243,-3.163 15.515,-2.811c-1.038,-1.024 -2.076,-2.049 -3.114,-3.072c0.077,5.797 0.897,11.427 3.06,16.83c2.882,-2.307 5.764,-4.613 8.646,-6.92c-14.059,-3.301 -28.487,-8.219 -40.844,-15.801c-1.27,2.598 -2.539,5.195 -3.809,7.793c13.939,-3.541 28.654,-0.896 42.449,-4.536c0.88,-0.232 3.436,-2.289 1.453,-2.971Z" style="fill-rule:nonzero;"/><path d="M277.272,342.493c-3.958,6.866 16.395,11.213 20.227,12.602c2.918,1.058 11.606,-2.561 7.725,-6.238c-2.133,-2.021 -2.325,-4.606 -5.41,-5.429c-1.802,-0.48 -4.479,0.539 -5.673,1.911c-3.099,3.557 -0.882,6.832 2.548,9.213c2.232,-2.184 4.464,-4.367 6.696,-6.551c-4.201,-0.623 -8.28,-1.537 -12.398,-2.631c-3.751,-0.996 -7.247,-3.294 -10.978,-4.064c-0.943,-0.195 -2.251,0.342 -2.737,1.187Z" style="fill-rule:nonzero;"/><path d="M305.09,372.928c-5.674,-6.213 -16.055,-9.276 -24.175,-10.068c-2.818,-0.275 -10.816,3.127 -7.084,6.932c6.362,6.484 13.788,11.693 20.812,17.413c3.774,3.075 14.001,-2.073 9.883,-6.596c-3.125,-3.433 -5.367,-7.393 -7.476,-11.504c-1.879,2.241 -3.757,4.482 -5.636,6.724c3.604,-0.602 7.16,-1.088 10.816,-1.177c5.663,-0.138 11.092,-8.796 2.93,-8.896c-4.872,-0.06 -9.666,-0.709 -14.378,-1.944c-0.932,2.85 -1.863,5.699 -2.795,8.549c3.302,-0.48 6.081,0.133 8.939,1.796c-0.536,-1.236 -1.073,-2.473 -1.609,-3.71c-1.453,4.699 -2.987,10.322 -0.84,14.991c1.792,3.894 9.603,1.113 10.25,-2.438c0.806,-4.413 0.499,-8.685 1.865,-13.038c0.521,-1.658 -0.194,-2.879 -1.609,-3.71c-5.362,-3.149 -11.107,-3.164 -17.096,-2.313c-4.197,0.597 -8.793,6.952 -2.795,8.549c5.605,1.492 11.349,2.074 17.138,2.165c0.977,-2.966 1.953,-5.931 2.93,-8.896c-4.666,0.099 -9.25,0.81 -13.848,1.562c-2.467,0.404 -7.213,3.613 -5.636,6.724c2.427,4.786 5.221,9.291 8.966,13.164c3.294,-2.198 6.589,-4.397 9.883,-6.596c-7.255,-5.569 -14.953,-10.6 -21.665,-16.845c-1.942,2.336 -3.886,4.672 -5.829,7.007c8.797,-0.247 16.66,4.896 25.375,5.382c1.35,0.073 4.048,-1.733 2.684,-3.227Z" style="fill-rule:nonzero;"/><path d="M388.776,359.304c-16.302,6.562 -16.391,31.639 -12.802,45.87c2.923,11.589 10.498,20.398 16.601,30.359c7.717,12.598 7.455,27.168 7.191,41.435c2.643,-1.735 5.285,-3.471 7.928,-5.206c-10.761,-0.666 -33.53,5.827 -30.695,20.528c3.649,18.919 30.834,12.317 41.809,5.212c1.837,-1.189 3.938,-3.684 2.916,-6.039c-1.374,-3.166 -5.693,-2.234 -8.153,-1.412c-2.44,0.815 -5.396,3.165 -5.959,5.783c-1.329,6.175 7.376,4.041 9.969,1.727c0.161,-0.144 0.321,-0.286 0.481,-0.43c-1.455,0.786 -2.91,1.571 -4.365,2.357c1.17,-0.358 2.348,-0.648 3.489,-1.105c-1.746,-2.484 -3.491,-4.967 -5.237,-7.451c-6.613,4.873 -19.43,7.977 -23.639,-1.354c-3.258,-7.222 11.037,-9.995 15.464,-9.83c2.668,0.099 6.702,-2.282 6.661,-5.282c-0.17,-12.459 0.164,-24.732 -4.453,-36.542c-4.123,-10.545 -12.671,-18.83 -17.635,-28.977c-3.737,-7.639 -5.244,-16.145 -5.351,-24.591c-0.095,-7.481 1.021,-17.714 7.422,-22.718c1.931,-1.509 0.391,-3.152 -1.642,-2.334Z" style="fill-rule:nonzero;"/><path d="M139.629,198.508c3.546,1.497 7.986,1.175 11.755,1.106c5.31,-0.097 10.592,-0.335 15.905,-0.2c5.412,0.139 10.795,0.721 16.115,1.709c4.748,0.881 9.168,3.191 13.894,3.909c2.979,0.453 10.657,-3.164 7.099,-6.944c-3.276,-3.48 -9.563,-4.331 -14.046,-5.197c-5.702,-1.103 -11.565,-1.434 -17.359,-1.623c-10.372,-0.34 -23.613,-0.899 -32.943,4.379c-0.955,0.54 -1.823,2.27 -0.42,2.861Z" style="fill-rule:nonzero;"/><path d="M246.777,230.524c6.112,-2.545 11.856,-6.103 17.946,-8.768c7.141,-3.125 14.618,-5.381 22.267,-6.858c7.554,-1.459 15.341,-1.6 22.903,-0.183c7.289,1.367 13.009,6.407 20.026,7.926c1.524,0.33 4.015,-1.031 3.521,-2.817c-1.844,-6.66 -12.491,-9.388 -18.335,-10.771c-8.292,-1.965 -17.014,-1.483 -25.364,-0.244c-8.406,1.248 -16.588,3.962 -24.41,7.224c-7.117,2.967 -15.341,6.726 -20.864,12.252c-1.818,1.817 0.623,2.94 2.31,2.239Z" style="fill-rule:nonzero;"/><path d="M250.095,242.678c9.889,1.775 19.802,2.279 29.331,5.805c5.028,1.86 9.688,4.342 13.945,7.607c4.222,3.236 7.498,7.453 11.971,10.344c1.646,1.064 4.711,-0.912 4.252,-2.819c-2.475,-10.286 -15.667,-17.091 -24.795,-20.404c-10.539,-3.825 -22.832,-4.699 -33.876,-3.064c-1.156,0.17 -2.689,2.196 -0.828,2.531Z" style="fill-rule:nonzero;"/><path d="M316.047,238.266c-1.629,-0.607 -1.97,-0.632 -1.02,-0.072c0.548,0.253 0.771,0.175 1.367,0.225c1.054,0.087 2.058,0.211 3.094,0.447c1.981,0.451 4.039,1.344 5.597,2.658c1.714,-1.677 3.427,-3.354 5.141,-5.029c-2.265,-0.577 -4.846,-0.119 -7.031,-0.84c-1.844,-0.608 -3.728,-0.283 -5.351,0.8c-1.383,0.922 -3.108,3.183 -1.479,4.716c1.507,1.418 2.977,2.661 4.381,4.211c2.059,2.274 6.094,2.019 8.182,-0.033c3.859,-3.792 -3.185,-9.416 -6.642,-9.97c-1.432,2.183 -2.863,4.366 -4.295,6.549c2.831,0.559 5.686,-0.181 8.506,0.253c2.639,0.406 8.154,-3.025 4.518,-5.446c-3.582,-2.384 -14.315,-5.827 -17.014,-0.489c-0.737,1.457 0.566,2.498 2.046,2.02Z" style="fill-rule:nonzero;"/></g></svg>