<?xml version="1.0" encoding="UTF-8" standalone="no"?><!DOCTYPE svg PUBLIC "-//W3C//DTD SVG 1.1//EN" "http://www.w3.org/Graphics/SVG/1.1/DTD/svg11.dtd"><svg width="100%" height="100%" viewBox="0 0 301 534" version="1.1" xmlns="http://www.w3.org/2000/svg" xmlns:xlink="http://www.w3.org/1999/xlink" xml:space="preserve" style="fill-rule:evenodd;clip-rule:evenodd;stroke-linejoin:round;stroke-miterlimit:1.41421;"><g id="toilet"><path d="M147.279,3.548c-22.252,1.475 -46.5,3.82 -65.004,17.576c-18.925,14.068 -27.659,35.738 -31.72,58.276c-4.147,23.017 -3.885,46.588 -3.897,69.885c-0.011,20.784 6.394,40.957 20.577,56.411c25.919,28.24 69.501,33.974 105.872,33.045c17.814,-0.456 36.32,-3.333 52.133,-11.961c7.223,-3.941 13.598,-9.458 18.342,-16.187c5.594,-7.93 7.666,-17.008 9.012,-26.455c4.194,-29.493 1.769,-59.632 -0.737,-89.159c-1.948,-22.958 -2.644,-45.873 -17.341,-64.834c-26.65,-34.382 -81.743,-33.717 -119.411,-22.552c-1.758,0.521 -2.991,4.187 -0.321,3.837c40.951,-5.349 97.018,-10.22 120.702,32.349c5.662,10.176 7.953,21.488 8.911,32.978c1.281,15.371 2.756,30.726 3.727,46.12c0.971,15.417 1.338,30.882 0.442,46.313c-0.688,11.825 -1.497,24.739 -7.008,35.461c-8.292,16.131 -27.091,23.197 -43.871,26.309c-17.78,3.296 -36.232,2.885 -54.136,0.895c-20.421,-2.271 -40.605,-7.267 -57.98,-18.628c-17.595,-11.507 -28.96,-29.637 -32.405,-50.286c-2.657,-15.931 -1.407,-33.144 -0.854,-49.224c0.629,-18.246 2.372,-36.696 7.87,-54.188c5.563,-17.695 16.625,-32.944 33.161,-41.732c16.289,-8.656 35.655,-10.199 53.61,-12.717c0.804,-0.115 1.458,-1.607 0.326,-1.532Z" style="fill:#010101;fill-rule:nonzero;"/><path d="M160.019,46.382c-20.258,-2.875 -40.266,3.933 -53.299,19.976c-7.568,9.314 -11.322,21.317 -14.1,32.802c-3.605,14.911 -3.536,30.502 -1.792,45.657c1.235,10.726 2.648,20.886 8.818,30.021c5.306,7.856 13.789,13.008 22.393,16.526c19.478,7.964 41.611,9.484 60.46,-0.873c32.033,-17.604 41.642,-62.491 34.429,-95.806c-3.291,-15.208 -11.057,-28.849 -24.367,-37.346c-15.032,-9.595 -33.966,-9.962 -50.704,-5.675c-2.026,0.519 -3.289,4.46 -0.355,4.241c19.267,-1.442 39.89,-0.607 54.466,13.71c13.675,13.431 17.049,33.898 16.438,52.26c-0.71,21.365 -7.496,43.757 -24.068,58.16c-17.491,15.204 -41.795,13.852 -62.228,5.955c-12.119,-4.684 -21.766,-12.839 -26.104,-25.307c-2.752,-7.909 -3.188,-17.013 -3.884,-25.292c-0.871,-10.374 -0.541,-20.81 1.126,-31.085c2.572,-15.863 8.125,-32.386 20.688,-43.066c11.34,-9.643 26.836,-12.341 41.279,-12.511c1.068,-0.013 2.282,-2.137 0.804,-2.347Z" style="fill:#010101;fill-rule:nonzero;"/><path d="M91.805,39.046c-3.261,0.43 -6.163,2.636 -7.993,5.29c-1.05,1.522 -1.672,3.285 -2,5.093c-0.25,1.38 -0.782,4.768 0.784,5.545c4.9,2.438 10.753,2.57 14.941,-1.34c3.161,-2.95 4.616,-7.752 2.123,-11.542c-1.093,-1.662 -3.28,-2.449 -5.168,-2.62c-1.585,-0.143 -3.046,0.19 -4.553,0.646c-1.173,0.354 -2.563,1.078 -3.714,2.672c-0.413,0.569 -0.667,1.627 0.138,2.022c0.505,0.247 1.115,0.501 1.693,0.427c0.619,0 0.681,-0.063 0.187,-0.186c0.582,0.271 1.116,0.25 1.736,0.195c1.038,-0.092 2.167,-0.004 3.18,0.246c1.379,0.34 1.835,1.481 1.835,2.8c0,1.119 -0.797,2.077 -1.757,2.631c-1.947,1.122 -5.026,0.359 -7.188,-0.51c0.293,0.481 0.585,0.963 0.878,1.444c-0.438,-2.189 -0.493,-4.227 0.495,-6.271c0.973,-2.014 3.135,-3.134 4.845,-4.406c0.792,-0.588 0.867,-2.31 -0.462,-2.136Z" style="fill:#010101;fill-rule:nonzero;"/><path d="M215.001,40.367c-3.911,0.893 -7.475,2.69 -9.446,6.428c-1.879,3.563 -1.187,7.481 1.979,9.969c3.897,3.064 9.267,1.094 12.584,-1.863c3.147,-2.807 6.075,-7.769 4.403,-12.074c-2.148,-5.534 -12.069,-5.068 -15.557,-1.5c-0.718,0.734 -1.198,1.867 -0.201,2.588c1.717,1.239 4.434,0.471 6.471,0.862c1.547,0.297 2.476,0.553 3.148,1.382c-0.168,-0.209 0.316,0.896 0.23,0.439c0.055,0.29 0.061,0.588 0.063,0.882c0.002,0.452 0.082,-0.403 -0.066,0.393c-0.029,0.156 -0.346,1.157 -0.08,0.41c-0.115,0.324 -0.262,0.636 -0.411,0.946c-0.399,0.827 0.084,-0.055 -0.218,0.414c-0.197,0.307 -0.419,0.597 -0.645,0.884c-0.092,0.119 -0.711,0.809 -0.102,0.16c-0.253,0.269 -0.527,0.516 -0.8,0.764c-0.128,0.116 -1.083,0.836 -0.345,0.317c-0.293,0.206 -0.605,0.385 -0.92,0.559c-0.455,0.25 0.373,-0.106 -0.444,0.188c-0.13,0.048 -1.146,0.262 -0.495,0.153c-0.795,0.132 -0.656,0.133 -1.566,-0.08c-1.199,-0.282 -2.802,-1.878 -3.012,-3.544c-0.337,-2.664 3.251,-5.896 5.538,-6.664c1.19,-0.399 1.489,-2.379 -0.108,-2.013Z" style="fill:#010101;fill-rule:nonzero;"/><path d="M87.352,187.524c-7.063,1.428 -8.87,13.614 -1.409,15.598c4.559,1.212 8.981,-3.403 10.961,-6.916c2.205,-3.912 1.238,-8.899 -3.738,-9.56c-3.015,-0.4 -8.972,0.594 -9.732,4.146c-0.502,2.343 2.49,2.072 3.889,1.992c0.696,-0.04 1.392,-0.102 2.087,-0.142c0.299,-0.018 0.601,-0.014 0.898,-0.02c0.357,0.005 0.371,0.005 0.041,0.001c0.161,0.015 0.32,0.037 0.479,0.064c0.217,0.033 0.43,0.093 0.641,0.152c-0.659,-0.188 -0.114,-0.012 0.038,0.067c0.176,0.092 0.579,0.462 0.009,-0.035c0.162,0.141 0.291,0.313 0.412,0.489c-0.538,-0.777 0.064,0.829 -0.082,-0.105c0.025,0.166 0.028,0.334 0.031,0.502c0.01,0.479 0.112,-0.666 -0.021,0.136c-0.031,0.186 -0.08,0.367 -0.128,0.55c-0.177,0.668 0.26,-0.677 0.006,-0.017c-0.173,0.451 -0.399,0.883 -0.635,1.304c0.485,-0.865 -0.345,0.449 -0.536,0.689c-0.13,0.164 -0.654,0.729 0.037,-0.005c-0.196,0.209 -0.408,0.403 -0.621,0.595c-0.157,0.142 -0.323,0.271 -0.489,0.4c0.773,-0.603 0.229,-0.169 0.037,-0.048c-0.169,0.105 -0.347,0.198 -0.524,0.289c0.832,-0.426 0.082,-0.049 -0.145,0.021c-0.625,0.197 0.659,-0.09 0.021,0.002c-0.189,0.027 -0.964,-0.025 -0.197,0.039c-0.18,-0.015 -0.354,-0.058 -0.527,-0.101c0.624,0.154 -0.074,-0.061 -0.24,-0.152c-0.445,-0.251 -0.129,-0.02 -0.612,-0.576c-0.547,-0.628 -0.896,-1.355 -1.196,-2.127c-0.912,-2.349 1.021,-3.954 2.176,-5.712c0.57,-0.866 0.146,-1.739 -0.931,-1.52Z" style="fill:#010101;fill-rule:nonzero;"/><path d="M219.438,190.436c-4.642,0.647 -8.439,3.033 -10.622,7.287c-1.485,2.894 -1.25,6.905 0.995,9.35c3.348,3.644 9.403,1.825 12.895,-0.57c3.896,-2.671 7.753,-7.535 5.83,-12.522c-0.981,-2.548 -3.497,-4.174 -5.91,-5.158c-4.278,-1.746 -10.028,-2.697 -14.338,-0.761c-0.854,0.384 -1.995,2.144 -1.037,2.978c1.427,1.242 3.127,0.994 4.671,1.857c1.293,0.724 3.258,0.816 4.694,1.224c1.942,0.55 3.985,1.499 5.136,2.78c0.697,0.775 0.739,1.578 0.617,2.154c-0.109,0.525 0.251,-0.52 -0.113,0.336c-0.08,0.189 -0.651,1.143 -0.136,0.327c-0.188,0.296 -0.405,0.573 -0.625,0.847c-0.27,0.31 -0.229,0.274 0.124,-0.105c-0.188,0.2 -0.39,0.387 -0.591,0.573c-0.856,0.794 -1.609,1.241 -2.64,1.608c-0.33,0.119 -0.672,0.208 -1.014,0.291c0.776,-0.188 -0.27,0.013 -0.435,0.026c-0.804,0.071 0.017,0.057 -0.435,0.015c-0.184,-0.017 -1.274,-0.308 -0.656,-0.091c-1.286,-0.451 -1.597,-1.068 -2.069,-2.54c-0.996,-3.097 3.003,-6.479 5.457,-7.508c0.953,-0.399 1.961,-2.645 0.202,-2.398Z" style="fill:#010101;fill-rule:nonzero;"/><path d="M48.049,270.995c0.777,-6.494 7.314,-9.957 12.607,-12.548c7.841,-3.839 16.6,-6.069 25.063,-8.037c15.643,-3.636 31.655,-5.625 47.648,-6.872c26.987,-2.103 54.243,-3.672 81.229,-0.773c12.324,1.325 25.335,3.446 36.688,8.619c9.142,4.165 18.851,11.26 22.308,21.068c4.455,12.642 -12.37,18.887 -21.343,22.104c-12.866,4.612 -26.545,6.664 -40.051,8.365c-29.604,3.729 -59.762,7.591 -89.646,6.188c-16.437,-0.772 -32.592,-4.143 -48.455,-8.364c-3.354,-0.895 -34.355,-9.113 -31.313,-15.147c0.035,-0.029 0.069,-0.062 0.104,-0.092c2.722,-3.021 -1.857,-4.791 -4.151,-2.244c-9.387,10.418 10.787,17.136 17.809,19.568c14.063,4.874 28.787,8.354 43.47,10.775c27.584,4.549 56.854,2.467 84.447,-1.049c25.523,-3.251 52.396,-4.225 76.207,-14.968c9.09,-4.101 19.309,-10.426 20.366,-21.368c0.896,-9.257 -5.819,-17.21 -12.491,-22.719c-18.277,-15.093 -45.205,-17.327 -67.939,-18.264c-25.294,-1.043 -51.005,0.31 -76.154,3.185c-15.655,1.791 -31.318,4.383 -46.507,8.631c-11.222,3.139 -33.565,9.64 -33.423,24.653c0.02,2.151 3.339,0.848 3.527,-0.711Z" style="fill:#010101;fill-rule:nonzero;"/><path d="M195.939,260.732c-26.98,-2.503 -55.917,-0.856 -82.183,5.912c-6.383,1.645 -12.617,3.881 -18.824,6.077c-3.933,1.392 -8.439,3.215 -10.979,6.702c-6.379,8.771 12.306,11.042 16.623,11.837c14.029,2.583 28.567,1.531 42.744,1.495c11.286,-0.027 22.562,-0.251 33.825,-0.983c21.396,-1.394 47.563,-3.604 65.209,-17.2c4.261,-3.283 4.161,-8.052 -0.854,-10.182c-8.69,-3.688 -19.256,-4.096 -28.546,-4.619c-21.659,-1.222 -44.084,-0.05 -65.399,3.951c-2.089,0.393 -4.034,4.046 -0.884,4.124c28.937,0.729 57.908,-5.119 86.596,1.489c1.728,0.398 4.144,0.775 5.536,1.991c-1.002,-0.875 1.181,-1.943 -0.969,-0.462c-1.078,0.743 -2.25,1.359 -3.394,1.994c-5.144,2.851 -10.632,4.81 -16.272,6.41c-11.892,3.371 -24.348,4.741 -36.634,5.701c-11.467,0.896 -22.979,1.152 -34.479,1.194c-14.48,0.052 -29.083,0.884 -43.451,-1.336c-3.296,-0.509 -6.606,-1.152 -9.834,-1.992c-1.215,-0.315 -2.298,-0.768 -3.41,-1.326c-1.489,-0.749 -0.355,-1.02 -1.13,0.084c1.077,-1.536 4.412,-2.443 6.011,-3.085c3.555,-1.423 7.221,-2.675 10.838,-3.929c13.796,-4.784 28.385,-7.224 42.857,-8.813c15.41,-1.691 30.927,-1.775 46.354,-3.154c0.812,-0.07 1.87,-1.767 0.649,-1.88Z" style="fill:#010101;fill-rule:nonzero;"/><path d="M43.721,301.182c8.624,10.486 15.223,22.147 21.485,34.146c5.721,10.957 11.656,21.41 20.53,30.161c16.171,15.946 39.021,22.897 61.165,24.627c22.943,1.79 47.239,-0.565 68.251,-10.345c20.446,-9.517 36.719,-26.309 48.082,-45.53c8.125,-13.745 13.446,-29.304 15.922,-45.051c0.24,-1.526 -0.382,-2.52 -1.827,-2.99c-3.312,-1.083 -5.596,-0.563 -8.438,1.37c-1.445,0.981 -2.725,4.438 0.233,4.175c1.521,-0.124 2.982,0.117 4.389,0.724c-0.362,-0.911 -0.727,-1.821 -1.088,-2.732c-3.834,23.214 -13.586,44.87 -29.4,62.396c-16.338,18.104 -38.316,27.984 -62.279,30.688c-23.465,2.646 -48.236,1.352 -69.83,-8.971c-10.601,-5.066 -19.765,-12.592 -27.188,-21.655c-8.212,-10.026 -13.627,-22.131 -20.892,-32.826c-5.031,-7.407 -10.622,-14.305 -18.305,-19.053c-0.439,-0.274 -1.156,0.445 -0.81,0.866Z" style="fill:#010101;fill-rule:nonzero;"/><path d="M106.375,384.505c10.19,17.342 16.52,36.71 16.4,56.932c-0.06,10.179 -1.897,20.366 -5.442,29.904c-1.856,4.999 -4.292,9.819 -7.124,14.334c-2.477,3.948 -6.871,7.57 -8.65,11.788c-1.07,2.537 0.69,4.285 3.242,3.695c2.652,-0.613 3.871,-3.621 4.32,-5.989c0.264,-1.381 -0.963,-2.303 -2.263,-1.826c-1.911,0.701 -3.31,1.787 -4.674,3.28c1.092,-0.635 2.185,-1.269 3.276,-1.903c-0.04,0.006 -0.081,0.014 -0.122,0.02c0.788,1.29 1.577,2.581 2.366,3.871c0.844,-1.875 3.138,-3.766 4.401,-5.424c1.641,-2.153 3.128,-4.433 4.526,-6.75c2.932,-4.864 5.333,-9.941 7.272,-15.278c3.54,-9.732 5.256,-20.064 5.352,-30.406c0.188,-20.753 -6.697,-42.485 -21.769,-57.041c-0.426,-0.415 -1.422,0.263 -1.111,0.793Z" style="fill:#010101;fill-rule:nonzero;"/><path d="M214.377,380.713c-11.358,18.566 -13.699,42.267 -10.664,63.457c3.274,22.867 13.875,44.451 30.088,60.902c2.443,2.479 7.382,-1.335 6.144,-4.388c-1.019,-2.511 -2.228,-4.254 -4.604,-5.598c-1.897,-1.073 -4.519,1.205 -4.397,3.162c0.149,2.449 1.562,3.938 2.464,6.164c2.048,-1.463 4.096,-2.925 6.145,-4.387c-15.265,-15.502 -24.985,-35.233 -28.813,-56.602c-3.828,-21.361 -0.43,-41.783 5.207,-62.419c0.27,-1.004 -1.185,-0.918 -1.57,-0.291Z" style="fill:#010101;fill-rule:nonzero;"/><path d="M99.143,505.667c0.953,5.138 2.073,9.111 5.889,13.018c3.97,4.063 9.185,6.771 14.432,8.787c13.445,5.168 28.337,6.114 42.605,5.893c15.065,-0.234 30.257,-2.315 44.771,-6.383c10.534,-2.95 22.238,-7.307 29.439,-15.968c1.854,-2.229 1.168,-6.342 -2.359,-5.923c-3.703,0.439 -6.711,1.727 -9.526,4.18c-1.83,1.595 -2.195,5.438 1.118,5.196c2.261,-0.165 4.369,-0.848 6.623,-1.046c-0.785,-1.975 -1.572,-3.947 -2.358,-5.923c-5.16,6.21 -16.138,9.583 -24.263,11.861c-13.168,3.692 -26.955,5.299 -40.603,5.678c-13.207,0.366 -26.592,-0.746 -39.327,-4.386c-8.143,-2.327 -20.054,-7.709 -23.221,-16.409c-0.622,-1.709 -3.491,-0.033 -3.22,1.425Z" style="fill:#010101;fill-rule:nonzero;"/><path d="M4.609,80.36c1.56,-5.191 2.218,-9.631 6.331,-13.559c3.882,-3.706 9.174,-5.723 14.212,-7.271c10.136,-3.112 21.321,-4.144 31.892,-3.567c0.75,-2.191 1.5,-4.384 2.249,-6.575c-2.633,0.281 -5.066,0.672 -7.455,1.813c-1.118,0.534 -1.896,2.319 -0.673,3.136c1.733,1.158 3.824,1.394 5.879,1.627c3.687,0.42 7.255,-6.316 3.081,-6.537c-13.167,-0.694 -26.941,0.637 -39.322,5.36c-6.028,2.3 -11.731,5.678 -15.905,10.666c-3.35,4.003 -6.118,10.923 -3.471,15.933c0.84,1.59 2.817,0.19 3.182,-1.026Z" style="fill:#010101;fill-rule:nonzero;"/><path d="M245.008,59.072c3.045,2.216 8.506,1.712 12.109,1.898c4.663,0.242 9.319,0.731 13.889,1.702c10.396,2.21 18.032,8.326 21.065,18.657c1.073,3.659 7.149,0.035 6.718,-2.971c-0.431,-2.999 -1.605,-4.275 -4.495,-5.145c-1.282,-0.385 -3.059,1.047 -3.196,2.307c-0.241,2.189 0.515,2.976 0.814,5.042c2.239,-0.99 4.479,-1.981 6.719,-2.972c-3.156,-10.673 -10.783,-17.377 -21.293,-20.497c-5.094,-1.512 -10.485,-1.945 -15.77,-2.149c-5.08,-0.196 -11.409,-0.602 -16.059,1.779c-0.849,0.438 -1.395,1.697 -0.501,2.349Z" style="fill:#010101;fill-rule:nonzero;"/><path d="M5.044,92.976c12.127,-10.604 30.746,-7.206 45.627,-7.119c0.472,-2.205 0.944,-4.409 1.417,-6.613c-3.217,0.23 -6.188,0.966 -7.754,3.982c-0.66,1.274 0.15,2.339 1.462,2.39c1.349,0.052 2.695,0.132 4.043,0.203c4.093,0.216 7.402,-6.556 2.249,-6.575c-9.703,-0.037 -19.394,-0.835 -29.062,0.384c-7.507,0.947 -18.698,3.781 -20.825,12.335c-0.463,1.865 1.852,1.879 2.843,1.013Z" style="fill:#010101;fill-rule:nonzero;"/><path d="M249.168,88.551c3.037,0.939 6.68,0.61 9.823,0.706c4.921,0.15 9.847,0.147 14.769,0.258c4.537,0.104 9.076,0.131 13.612,0.232c2.435,0.055 5.478,0.646 7.771,-0.365c1.938,-0.854 4.252,-3.624 1.843,-5.359c-1.821,-1.313 -5.231,-0.763 -7.361,-0.812c-4.435,-0.101 -8.868,-0.172 -13.305,-0.22c-4.974,-0.055 -10.005,-0.084 -14.972,0.212c-3.703,0.222 -7.911,0.196 -11.39,1.659c-1.394,0.588 -3.012,3.003 -0.79,3.689Z" style="fill:#010101;fill-rule:nonzero;"/><path d="M5.363,99.937c-3.161,7.114 -1.316,16.5 -0.354,23.951c1.199,9.293 3.362,18.471 5.392,27.608c3.375,15.204 7.55,30.649 14.515,44.64c6.122,12.3 14.757,22.658 28.182,26.734c10.703,3.25 23.899,1.893 33.132,8.884c2.594,1.965 6.328,-2.623 4.74,-5.086c-2.252,-3.495 -6.876,-4.678 -10.685,-5.638c-5.882,-1.482 -11.987,-2.043 -17.938,-3.191c-6.222,-1.201 -12.66,-3.038 -17.475,-7.354c-5.659,-5.075 -9.937,-11.363 -13.417,-18.076c-6.898,-13.308 -10.742,-28.369 -14.138,-42.89c-2.146,-9.183 -4.354,-18.35 -6.122,-27.614c-0.78,-4.092 -1.474,-8.188 -2.136,-12.299c-0.549,-3.411 -0.698,-7.059 -2.525,-10.055c-0.285,-0.464 -1.032,0.073 -1.171,0.386Z" style="fill:#010101;fill-rule:nonzero;"/><path d="M296.193,93.241c0.472,0.065 -1.973,6.287 -2.191,6.89c-1.363,3.753 -1.733,7.489 -2.248,11.438c-1.226,9.381 -2.531,18.75 -3.5,28.163c-1.203,11.692 -2.726,23.281 -5.602,34.7c-2.782,11.049 -6.936,22.023 -13.852,31.175c-3.213,4.25 -7.196,7.782 -11.817,10.425c-5.312,3.037 -11.564,3.821 -17.331,5.512c-1.66,0.487 -3.346,3.547 -0.893,4.166c12.275,3.096 25.347,-6.078 33.159,-14.838c9.126,-10.233 14.05,-23.919 17.438,-36.982c3.771,-14.539 4.878,-29.323 6.378,-44.207c1.004,-9.947 0.845,-20.929 3.476,-30.57c0.576,-2.11 1.711,-5.006 0.244,-6.961c-0.947,-1.265 -2.479,-0.369 -3.304,0.435c-0.167,0.161 -0.327,0.602 0.043,0.654Z" style="fill:#010101;fill-rule:nonzero;"/><path d="M84.123,233.344c1.079,2.264 2.25,4.398 2.991,6.819c0.346,1.13 0.551,2.432 0.373,3.606c-0.137,0.902 -1.084,1.696 -1.449,2.54c-0.778,1.804 0.031,3.981 2.293,3.75c4.959,-0.509 7.097,-5.951 5.99,-10.292c-0.896,-3.524 -3.553,-7.74 -7.009,-9.223c-1.447,-0.618 -3.997,1.106 -3.189,2.8Z" style="fill:#010101;fill-rule:nonzero;"/><path d="M235.029,226.807c-1.979,2.724 -4.167,6.344 -3.412,9.806c0.292,1.34 2.135,1.477 3.154,1.15c1.406,-0.449 2.589,-1.662 2.925,-3.109c0.29,-1.247 0.081,-2.49 0.196,-3.753c0.104,-1.138 0.611,-2.287 0.93,-3.377c0.74,-2.536 -2.812,-2.066 -3.793,-0.717Z" style="fill:#010101;fill-rule:nonzero;"/></g></svg>