<?xml version="1.0" encoding="UTF-8" standalone="no"?><!DOCTYPE svg PUBLIC "-//W3C//DTD SVG 1.1//EN" "http://www.w3.org/Graphics/SVG/1.1/DTD/svg11.dtd"><svg width="100%" height="100%" viewBox="0 0 558 490" version="1.1" xmlns="http://www.w3.org/2000/svg" xmlns:xlink="http://www.w3.org/1999/xlink" xml:space="preserve" style="fill-rule:evenodd;clip-rule:evenodd;stroke-linejoin:round;stroke-miterlimit:1.41421;"><g id="tomato"><path d="M143.925,210.608c5.608,-7.444 10.797,-15.12 17.072,-22.051c7.038,-7.775 15.437,-14.368 24.198,-20.077c16.075,-10.476 35.348,-20.265 54.691,-22.437c3.344,-0.376 6.49,-2.977 7.207,-6.325c0.639,-2.978 -1.521,-5.789 -4.703,-5.36c-4.457,0.602 -7.76,2.79 -9.196,7.144c-0.732,2.221 1.267,3.649 3.206,3.652c-2.772,-0.004 1.281,0.733 2.017,0.821c0.808,-3.768 1.614,-7.536 2.422,-11.305c-21.592,5.566 -41.606,13.749 -59.787,26.9c-9.123,6.599 -17.431,14.324 -24.804,22.824c-6.352,7.322 -12.586,16.117 -14.359,25.829c-0.25,1.373 1.462,1.148 2.036,0.385Z" style="fill-rule:nonzero;"/><path d="M143.672,209.877c13.035,-9.508 25.967,-21.273 40.823,-26.772c11.507,-4.26 23.379,-7.559 35.04,-11.366c12.525,-4.091 25.123,-8.438 36.807,-14.602c5.97,-3.147 22.186,-13.246 15.501,-21.84c-2.673,-3.436 -7.894,0.338 -9.267,3.039c-0.318,0.611 -0.256,0.518 0.187,-0.281c-0.439,0.57 -0.789,1.186 -1.051,1.848c-1.608,3.744 0.44,-0.529 -0.655,1.703c0.745,-1.518 -0.311,0.336 -0.593,0.681c1.011,-1.23 -1.057,0.935 -1.425,1.247c-2.718,2.3 -7.97,5.043 -12.123,7.043c-11.725,5.647 -24.205,9.861 -36.465,14.171c-10.354,3.64 -20.825,7.083 -30.866,11.54c-14.938,6.632 -27.919,19.401 -37.407,32.404c-0.903,1.237 0.475,1.931 1.494,1.185Z" style="fill-rule:nonzero;"/><path d="M268.981,141.006c13.777,3.624 20.539,14.588 26.875,26.485c6.129,11.509 11.157,22.636 21.781,30.781c10.506,8.056 25.307,10.132 38.063,7.899c11.975,-2.096 27.223,-8.731 31.951,-20.778c1.063,-2.706 -1.305,-4.256 -3.708,-2.977c-4.909,2.612 -9.271,6.06 -14.218,8.661c-5.355,2.817 -11.22,4.297 -17.225,4.779c-12.751,1.026 -25.088,-3.906 -33.497,-13.489c-14.341,-16.344 -20.933,-47.981 -48.132,-46.891c-2.55,0.105 -5.326,4.626 -1.89,5.53Z" style="fill-rule:nonzero;"/><path d="M300.27,128.194c2.773,5.191 6.448,9.631 8.763,15.117c2.452,5.811 3.846,12.053 5.92,18.001c3.251,9.327 8.024,18.537 15.437,25.233c6.442,5.82 14.591,8.929 23.196,9.541c4.976,0.354 9.915,-0.091 14.815,-0.963c5.941,-1.057 12.574,-2.252 17.131,-6.458c1.305,-1.204 2.233,-4.191 -0.294,-4.655c-5.008,-0.922 -10.121,1.581 -14.999,2.537c-4.484,0.878 -9.146,1.319 -13.711,0.997c-8.028,-0.565 -15.194,-3.951 -20.862,-9.619c-6.856,-6.857 -11.136,-15.953 -14.552,-24.898c-3.788,-9.918 -8.488,-21.903 -19.003,-26.448c-0.809,-0.35 -2.356,0.651 -1.841,1.615Z" style="fill-rule:nonzero;"/><path d="M305.239,115.264c5.962,2.946 14.035,2.969 20.505,4.542c8.14,1.979 15.914,4.792 23.44,8.474c7.451,3.646 14.451,8.324 20.766,13.691c5.818,4.945 10.836,11.744 17.368,15.686c1.82,1.098 3.94,-1.4 3.539,-3.105c-1.863,-7.93 -9.069,-14.641 -15.048,-19.723c-6.449,-5.481 -13.597,-10.001 -21.18,-13.736c-7.601,-3.743 -15.744,-6.341 -24.008,-8.142c-7.429,-1.619 -17.177,-2.996 -24.48,-0.312c-0.828,0.304 -2.224,1.973 -0.902,2.625Z" style="fill-rule:nonzero;"/><path d="M304.478,134.073c3.503,4.157 12.961,3.132 17.905,3.506c7.034,0.532 14.065,1.427 21.008,2.674c7.179,1.289 14.238,3.231 21.105,5.678c7.506,2.674 14.463,6.595 22.416,7.806c1.585,0.241 3.731,-1.793 2.545,-3.336c-4.819,-6.263 -12.227,-9.091 -19.419,-11.785c-6.937,-2.598 -14.111,-4.468 -21.377,-5.876c-7.287,-1.413 -14.673,-2.137 -22.082,-2.473c-6.679,-0.303 -15.808,-1.578 -21.615,2.41c-0.411,0.282 -0.902,0.901 -0.486,1.396Z" style="fill-rule:nonzero;"/><path d="M179.706,125.218c-20.545,-7.841 -45.363,-1.482 -65.082,6.196c-22.889,8.913 -43.736,22.67 -61.337,39.76c-17.269,16.769 -31.365,36.891 -39.66,59.563c-9.424,25.758 -14.078,53.166 -12.55,80.6c1.484,26.648 9.491,52.809 23.354,75.604c13.709,22.546 32.479,41.757 53.449,57.621c40.961,30.985 92.471,45.94 143.526,45.39c27.78,-0.3 54.716,-7.488 82.188,-10.657c6.809,-0.785 14.953,-12.513 5.233,-15.3c-2.833,-0.812 -5.782,-0.569 -8.695,-0.947c-5.577,-0.723 -15.291,9.228 -7.771,12.771c2.967,1.398 6.145,2.482 9.297,3.387c1.744,-5.1 3.489,-10.2 5.233,-15.3c-30.635,3.529 -60.365,11.272 -91.415,10.593c-25.08,-0.549 -50.372,-5.682 -73.794,-14.608c-47.609,-18.145 -91.778,-54.45 -112.368,-101.804c-10.494,-24.135 -14.123,-50.98 -11.873,-77.125c2.129,-24.75 8.822,-50.58 21.905,-71.892c24.342,-39.656 67.351,-68.519 113.313,-75.71c8.242,-1.29 16.462,-2.134 24.72,-3.224c1.64,-0.215 5.168,-3.833 2.327,-4.918Z" style="fill-rule:nonzero;"/><path d="M103.094,189.335c-15.017,5.716 -39.129,23.271 -27.555,41.988c7.571,12.245 21.57,17.396 33.648,8.268c9.12,-6.892 14.279,-19.575 13.202,-30.875c-1.247,-13.08 -15.532,-23.565 -27.451,-14.979c-1.544,1.112 -3.063,4.506 -1.307,6.098c3.427,3.102 7.707,2.266 11.511,4.457c2.438,1.406 4.142,4.498 4.645,7.133c0.763,4.004 0.243,7.306 -0.891,11.147c-0.25,0.849 -1.422,3.395 -2.19,4.821c-0.419,0.775 -0.1,0.226 -0.911,1.377c-0.262,0.373 -2.18,2.552 -1.3,1.654c-1.722,1.756 -1.206,1.285 -3.018,2.256c1.071,-0.574 -0.976,0.325 -1.262,0.409c0.639,-0.188 -1.558,0.145 -2.065,0.15c-3.432,0.037 -7.639,-3.507 -10.2,-6.228c-5.864,-6.227 -5.495,-12.187 -0.466,-18.725c4.497,-5.847 11.218,-10.683 17.145,-15.006c1.93,-1.405 1.18,-4.977 -1.535,-3.945Z" style="fill-rule:nonzero;"/><path d="M59.784,244.231c-10.797,4.997 -17.667,16.372 -22.016,26.956c-4.377,10.65 -7.367,22.12 -9.259,33.468c-2.657,15.939 -0.125,32.156 16.951,37.877c9.614,3.222 20.292,3.078 30.3,2.475c9.912,-0.597 19.832,-2.574 28.74,-7.07c19.798,-9.993 21.358,-32.913 12.358,-51.093c-5.592,-11.293 -14.431,-21.153 -24.325,-28.848c-8.685,-6.755 -20.912,-14.282 -32.318,-11.096c-4.189,1.17 -8.092,8.602 -2.188,10.211c4.306,1.175 8.588,1.65 12.738,3.439c5.271,2.272 10.152,5.608 14.549,9.268c8.454,7.038 15.997,15.945 20.678,25.941c3.51,7.498 6.527,18.998 1.551,26.543c-4.315,6.545 -13.473,8.68 -20.704,9.842c-10.071,1.618 -20.919,1.917 -30.946,-0.071c-6.507,-1.29 -12.265,-4.445 -14.722,-10.852c-2.758,-7.188 -1.125,-16.059 0.198,-23.365c2.127,-11.735 4.979,-23.595 9.871,-34.502c2.77,-6.175 6.498,-11.346 10.975,-16.353c1.764,-1.971 -0.446,-3.689 -2.431,-2.77Z" style="fill-rule:nonzero;"/><path d="M253.795,119.22c6.888,1.36 6.418,-9.854 5.07,-13.625c-3.129,-8.756 -10.411,-16.312 -16.919,-22.665c-8.094,-7.9 -16.976,-15.045 -26.132,-21.672c-5.853,-4.235 -12.292,-9.232 -19.177,-11.684c0.546,1.371 1.092,2.743 1.638,4.115c-0.221,0.433 -0.441,0.865 -0.663,1.299c-1.23,0.884 -2.461,1.769 -3.691,2.653c0.933,-0.297 1.792,-0.702 2.636,-1.192c2.829,-1.645 5.624,-7.601 0.704,-8.601c-5.023,-1.021 -9.132,3.076 -9.225,7.909c-0.033,1.739 1.339,2.842 2.856,3.256c4.535,1.235 11.461,5.809 16.317,8.971c8.275,5.391 16.213,11.331 23.724,17.742c6.823,5.825 13.681,12.141 18.884,19.495c1.714,2.423 3.29,5.302 3.721,8.278c0.232,1.608 -0.174,4.99 -0.149,5.257c0.023,0.239 0.168,0.417 0.406,0.464Z" style="fill-rule:nonzero;"/><path d="M257.696,12.754c-2.958,-0.405 -5.373,-1.46 -8.416,-1.69c-4.311,-0.327 -8.474,-0.281 -12.774,0.154c-8.963,0.908 -17.92,2.688 -26.484,5.492c-7.955,2.604 -15.693,6.484 -22.036,11.999c-5.857,5.092 -12.898,15.596 -7.807,23.271c4.425,6.669 15.894,4.917 22.521,4.075c7.431,-0.945 14.742,-3.722 21.552,-6.721c13.155,-5.795 35.048,-17.5 32.619,-35.034c-0.393,-2.829 -1.768,-4.135 -4.396,-5.009c-5.701,-1.896 -11.021,-1.232 -15.53,2.914c-2.374,2.184 -4.238,6.734 -0.683,8.834c2.789,1.646 6.016,2.402 9.085,3.373c-1.466,-1.669 -2.931,-3.339 -4.396,-5.009c0.328,2.143 0.303,2.135 -0.68,4.021c0.452,-0.867 -1.301,1.586 -1.564,1.896c0.412,-0.487 -1.729,1.567 -2.11,1.9c-4.367,3.807 -9.777,6.57 -15.051,9.07c-4.704,2.229 -9.727,3.963 -14.77,5.238c-1.141,0.289 -5.271,0.807 -7.866,0.999c-1.686,0.124 -5.438,0.194 -6.294,-0.556c-0.281,-0.247 0.348,-2.546 1.077,-3.688c1.351,-2.114 3.145,-3.731 5.076,-5.301c4.982,-4.05 11.889,-6.281 17.91,-8.181c6.621,-2.089 13.43,-3.476 20.297,-4.451c3.23,-0.459 6.431,-1.036 9.654,-1.538c3.198,-0.499 6.383,-1.585 9.582,-1.725c1.931,-0.081 4.253,-3.954 1.484,-4.333Z" style="fill-rule:nonzero;"/><path d="M248.431,23.38c-6.643,16.22 -2.882,34.396 4.031,49.899c3.597,8.065 8.669,15.468 14.017,22.459c2.784,3.64 5.758,7.132 8.781,10.573c1.352,1.538 2.727,3.059 4.099,4.579c1.261,1.397 4.322,3.616 4.741,5.494c0.119,-1.455 0.238,-2.91 0.358,-4.364c-0.052,0.094 -0.104,0.188 -0.156,0.281c2.754,-1.604 5.507,-3.21 8.261,-4.814c0.195,0.067 -1.979,-0.731 -2.205,-0.794c-4.115,-1.126 -11.887,6.252 -7.504,9.836c0.921,0.753 1.82,1.631 2.879,2.182c3.635,1.891 7.988,-1.126 9.584,-4.354c1.873,-3.792 -0.049,-6.393 -2.729,-8.94c-3.348,-3.185 -6.613,-6.445 -9.792,-9.799c-6.224,-6.566 -11.994,-13.557 -16.999,-21.1c-4.943,-7.448 -8.828,-15.348 -11.229,-23.972c-2.497,-8.965 -2.35,-18.219 -3.069,-27.414c-0.143,-1.821 -2.603,-0.886 -3.068,0.248Z" style="fill-rule:nonzero;"/><path d="M299.573,431.677c22.449,13.984 51.113,4.406 73.78,-4.466c12.021,-4.704 24.116,-9.3 35.731,-14.952c11.529,-5.611 22.336,-12.551 32.658,-20.132c20.548,-15.092 38.139,-34.188 52.562,-55.148c15.386,-22.36 24.161,-47.325 26.156,-74.399c0.938,-12.728 -0.278,-25.354 -2.89,-37.814c-2.508,-11.963 -7.73,-26.178 -17.296,-34.271c-4.507,-3.814 -11.292,1.915 -9.979,7.123c1.559,6.183 4.221,12.028 6.244,18.076c2.164,6.469 4.06,12.957 5.541,19.617c2.764,12.422 3.071,25.732 1.701,38.347c-2.842,26.162 -13.866,49.049 -29.343,69.999c-14.823,20.065 -33.288,37.294 -54.323,50.697c-10.931,6.966 -22.483,12.742 -34.352,17.911c-12.398,5.4 -24.598,11.424 -37.501,15.541c-15.255,4.868 -31.842,6.677 -47.329,1.635c-1.07,-0.35 -2.499,1.527 -1.36,2.236Z" style="fill-rule:nonzero;"/><path d="M374.512,9.93c-2.24,4.687 -1.74,10.099 -4.41,14.836c-2.682,4.756 -7.348,8.616 -11.881,11.518c-11.68,7.476 -25.229,11.828 -38.047,16.891c-18.031,7.122 -55.078,20.337 -47.258,46.662c1.382,4.653 9.028,0.03 8.52,-3.769c-0.646,-4.82 -0.642,-8.774 1.814,-13.098c2.28,-4.013 6.537,-7.024 10.299,-9.511c11.549,-7.634 24.816,-12.265 37.398,-17.838c12.021,-5.326 24.175,-11.006 34.366,-19.454c4.103,-3.401 7.638,-7.552 9.951,-12.37c1.74,-3.624 4.091,-11.117 0.522,-14.285c-0.426,-0.381 -1.056,-0.036 -1.274,0.418Z" style="fill-rule:nonzero;"/><path d="M371.29,1.864c4.641,13.777 2.297,25.65 -4.495,38.159c-5.058,9.316 -12.836,16.927 -20.54,24.055c-7.195,6.658 -14.442,13.294 -20.5,21.04c-2.938,3.758 -5.432,7.885 -7.561,12.147c-1.988,3.978 -5.447,10.415 -3.834,14.826c1.091,2.981 4.932,1.076 6.268,-0.508c3.397,-4.029 4.267,-10.474 6.763,-15.22c2.406,-4.577 5.688,-8.678 9.09,-12.546c6.786,-7.716 14.827,-14.276 21.874,-21.755c14.275,-15.152 31.322,-42.297 14.756,-61.498c-0.706,-0.816 -2.115,0.427 -1.821,1.3Z" style="fill-rule:nonzero;"/><path d="M352.908,114.333c5.222,-4.567 16.037,-3.813 22.405,-3.449c9.447,0.54 18.891,2.274 28.205,3.879c10.667,1.837 21.35,2.985 31.872,5.664c12.048,3.067 23.683,7.715 34.658,13.535c21.915,11.621 40.809,29.345 54.019,50.331c11.968,19.013 16.669,42.012 17.217,64.192c1.121,45.38 -15.725,92.682 -43.613,128.283c-31.631,40.379 -77.542,64.127 -126.232,77.479c-16.431,4.505 -33.154,7.797 -49.979,10.427c1.996,1.114 3.992,2.228 5.988,3.342c-0.635,-1.477 -0.583,-1.5 -0.602,-3.07c-0.052,-4.436 -4.831,-5.857 -8.4,-4.716c-4.181,1.336 -7.663,5.353 -7.611,9.849c0.026,2.338 0.415,4.491 1.34,6.643c0.989,2.302 3.464,3.736 5.988,3.342c51.001,-7.966 102.204,-22.228 144.786,-52.456c40.87,-29.013 69.508,-70.133 84.524,-117.76c13.843,-43.901 15.517,-95.799 -9.229,-136.223c-13.074,-21.358 -32.074,-38.985 -53.799,-51.3c-10.992,-6.23 -22.838,-10.863 -34.99,-14.261c-11.685,-3.267 -23.444,-4.321 -35.396,-5.955c-11.968,-1.636 -23.817,-3.129 -35.929,-3.009c-11.142,0.109 -24.417,1.737 -30.543,12.318c-2.197,3.795 2.924,5.012 5.321,2.915Z" style="fill-rule:nonzero;"/><path d="M126.768,110.711c14.453,-10.326 36.348,0.399 49.879,7.23c9.39,4.74 18.448,10.146 27.04,16.212c5.982,4.224 12.193,8.776 16.641,14.677c2.956,3.922 9.981,-1.51 9.429,-5.418c-0.359,-2.537 -1.359,-3.784 -3.395,-5.272c-2.904,-2.125 -7.883,2.272 -7.435,5.346c0.216,1.47 0.462,2.915 0.809,4.359c3.063,-2.187 6.128,-4.374 9.191,-6.562c-5.444,-5.953 -12.479,-10.733 -19.204,-15.098c-9.863,-6.401 -20.342,-11.915 -31.256,-16.291c-10.073,-4.038 -20.64,-7.253 -31.541,-7.729c-7.842,-0.343 -16.199,0.821 -20.979,7.611c-0.434,0.619 0.114,1.44 0.821,0.935Z" style="fill-rule:nonzero;"/><path d="M126.57,109.828c3.671,-1.272 6.192,-5.255 9.674,-7.157c4.301,-2.35 9.005,-3.123 13.855,-3.281c12.027,-0.391 24.285,3.392 35.657,6.864c12.25,3.741 24.229,8.304 36.381,12.343c9.637,3.204 20.225,6.803 30.529,6.337c5.748,-0.26 9.562,-10.783 2.197,-10.257c-3.152,0.225 -6.662,1.475 -8.107,4.546c-1.552,3.299 1.724,5.437 4.619,5.651c1.163,-3.398 2.326,-6.798 3.488,-10.197c-10.671,-0.068 -21.232,-3.639 -31.326,-6.768c-13.45,-4.168 -26.751,-8.807 -40.407,-12.283c-11.827,-3.011 -24.789,-5.102 -36.912,-2.737c-5.099,0.994 -9.954,2.877 -14.071,6.088c-2.49,1.94 -7.918,6.95 -6.357,10.567c0.132,0.306 0.482,0.387 0.78,0.284Z" style="fill-rule:nonzero;"/><path d="M319.999,117.102c0.993,1.008 1.824,1.301 3.145,1.744c-0.442,-0.153 -0.885,-0.307 -1.326,-0.461c1.573,0.793 3.035,0.907 4.785,0.857c-1.443,-0.514 -2.887,-1.028 -4.329,-1.542c1.843,2.382 4.922,2.727 7.657,1.853c4.175,-1.335 8.103,-5.563 7.858,-10.168c-0.241,-4.541 -4.848,-6.092 -8.673,-4.869c-4.015,1.283 -6.87,4.656 -7.811,8.691c1.541,-1.999 3.08,-3.998 4.621,-5.997c-0.238,0.133 -0.476,0.255 -0.723,0.37c0.564,-0.25 1.129,-0.5 1.693,-0.749c-0.885,0.369 -1.788,0.677 -2.635,1.141c1.165,-0.487 1.418,-0.62 0.759,-0.397c-0.777,0.246 -1.396,0.58 -2.052,0.994c-1.397,0.887 -2.574,1.986 -3.289,3.507c-0.706,1.503 -0.973,3.716 0.32,5.026Z" style="fill-rule:nonzero;"/></g></svg>