<?xml version="1.0" encoding="utf-8"?>
<!-- Generator: Adobe Illustrator 17.0.0, SVG Export Plug-In . SVG Version: 6.00 Build 0)  -->
<!DOCTYPE svg PUBLIC "-//W3C//DTD SVG 1.0//EN" "http://www.w3.org/TR/2001/REC-SVG-20010904/DTD/svg10.dtd">
<svg version="1.0" id="Layer_1" xmlns="http://www.w3.org/2000/svg" xmlns:xlink="http://www.w3.org/1999/xlink" x="0px" y="0px"
	 width="566.93px" height="566.93px" viewBox="0 0 566.93 566.93" enable-background="new 0 0 566.93 566.93" xml:space="preserve">
<g>
	<g>
		<path fill="#220000" d="M45.053,82.86c4.707,16.594,19.499,25.781,34.02,33.259c18.132,9.337,37.553,16.147,56.855,22.605
			c19.823,6.632,39.664,13.263,60.335,16.709c27.49,4.582,55.594,5.599,83.409,4.646c49.269-1.689,98.004-10.061,145.153-24.336
			c25.722-7.788,50.025-18.25,73.664-30.996c10.658-5.746,20.618-13.15,31.55-18.289c4.862-2.286,9.522-5.004,11.836-10.164
			c1.372-3.058,1.647-6.922-0.832-9.533c-2.281-2.403-5.38-2.443-8.457-2.551c-6.971-0.243-16.705,12.773-8.092,17.101
			c1.601,0.946,1.3,0.395-0.902-1.653c-0.085-1.529-0.17-3.057-0.255-4.586c-0.039,0.116-0.078,0.233-0.118,0.349
			c1.434-2.331,2.869-4.661,4.303-6.992c2.091-2.109,1.712-1.19,0.214-0.468c-0.97,0.467-1.909,1.048-2.868,1.543
			c-2.268,1.171-4.507,2.35-6.642,3.753c-6.134,4.03-12.677,8.313-19.258,12.158c-12.744,7.446-25.87,14.497-39.472,20.251
			c-26.539,11.227-54.896,19.447-83.055,25.449c-53.755,11.458-110.377,16.654-165.142,10.538
			c-31.111-3.474-61.862-11.794-91.752-20.963c-14.692-4.507-29.211-9.751-42.867-16.855c-6.026-3.135-11.991-6.492-17.251-10.827
			c-4.443-3.662-8.917-6.424-11.417-11.837C47.215,79.441,44.62,81.334,45.053,82.86L45.053,82.86z"/>
	</g>
	<g>
		<path fill="#220000" d="M73.67,111.77c-16.378,16.705-24.251,40.471-30.554,62.519c-6.553,22.923-11.414,46.647-15.2,70.182
			c-9.47,58.863,5.008,120.119,33.822,171.699c22.664,40.573,60.845,67.127,105.482,78.549
			c44.153,11.298,91.802,7.065,135.099-5.883c23.118-6.913,44.701-18.223,63.126-33.846c17.003-14.416,30.352-32.604,40.835-52.166
			c20.59-38.426,28.837-82.508,36.504-124.976c2.544-14.093,5.171-27.804,9.01-41.578c4.253-15.256,8.293-30.578,11.641-46.061
			c3.364-15.559,6.456-31.769,6.053-47.756c-0.144-5.696-0.665-13.738-4.75-18.143c-4.89-5.272-14.173-7.887-20.492-3.447
			c1.789-0.576,3.578-1.151,5.368-1.727c-0.304-0.013-0.609-0.01-0.913,0.007c-11.259,0.358-18.974,20.67-4.329,20.204
			c0.304-0.017,0.608-0.02,0.913-0.007c-2.621-1.462-5.241-2.925-7.862-4.387c1.177,2.085,2.293,3.188,4.308,4.299
			c1.434,0.791-1.987-1.766-0.801-0.675c0.283,0.26,0.516,0.569,0.748,0.872c-0.106-0.139-0.961-2.237-0.125,0.322
			c0.36,1.101,0.709,2.167,1.099,3.262c0.183,0.513,0.324,1.039,0.466,1.564c0.579,2.129-0.518-2.839-0.104-0.583
			c0.235,1.281,0.365,2.58,0.476,3.876c0.283,3.298,0.211,6.625,0.055,9.927c-0.04,0.849-0.099,1.697-0.158,2.545
			c-0.207,2.998,0.252-2.656-0.037,0.402c-0.174,1.842-0.395,3.68-0.626,5.516c-0.537,4.25-1.23,8.48-1.981,12.698
			c-1.529,8.589-3.419,17.112-5.443,25.596c-3.398,14.247-7.339,28.352-11.282,42.455c-4.646,16.619-6.696,34.004-9.925,50.946
			c-4.058,21.297-8.723,42.516-15.323,63.185c-1.231,3.855-2.347,7.041-4.382,12.367c-1.936,5.068-4.066,10.06-6.339,14.986
			c-2.074,4.495-4.339,8.9-6.733,13.232c-0.595,1.077-1.212,2.142-1.828,3.207c-0.184,0.317-2.306,3.803-0.653,1.12
			c-1.5,2.435-3.085,4.817-4.705,7.174c-2.778,4.04-5.782,7.921-8.925,11.683c-0.788,0.944-1.599,1.868-2.411,2.791
			c-0.342,0.389-3.144,3.42-0.697,0.815c-1.983,2.111-4.055,4.135-6.161,6.122c-3.674,3.465-7.575,6.681-11.596,9.733
			c-0.344,0.261-3.819,2.735-1.029,0.773c-1.064,0.748-2.148,1.467-3.232,2.186c-2.573,1.707-5.222,3.295-7.897,4.836
			c-2.352,1.354-4.758,2.612-7.178,3.838c-1.234,0.625-2.485,1.217-3.735,1.809c-4.13,1.956,2.419-0.999-1.825,0.832
			c-5.586,2.411-11.322,4.402-17.131,6.199c-10.363,3.206-21.71,5.875-30.49,7.422c-42.449,7.478-86.897,5.276-125.773-13.143
			c-19.589-9.281-35.975-22.141-49.661-38.885c-16.888-20.662-28.177-46.523-36.909-71.53c-7.454-21.349-11.972-43.54-13.76-66.071
			c-1.633-20.581,0.152-40.853,2.975-61.227c4.978-35.924,11.22-73.834,30.63-105.175C82.065,111.831,77.406,107.959,73.67,111.77
			L73.67,111.77z"/>
	</g>
	<g>
		<path fill="#220000" d="M188.635,395.282c2.053-5.839,3.606-11.112,3.958-17.381c0.36-6.427,0.595-12.839,0.778-19.273
			c0.384-13.483,1.041-26.967,2.292-40.4c2.349-25.227,7.759-50.495,14.003-75.025c3.002-11.792,6.532-23.43,10.958-34.768
			c1.182-3.028,2.669-5.981,3.593-9.102c0.01-0.033-0.93,2.397,0.08,0.021c1.05-2.471,2.267-4.874,3.451-7.282
			c2.888-5.87,5.894-11.682,8.77-17.558c1.441-2.946-0.948,0.794,0.973-1.502c1.108-1.324,2.268-3.367,3.011-4.761
			c1.461-2.743,2.89-7.865,1.407-10.763c-5.02-9.814-17.01-2.623-20.866,4.25c0.58-0.923,1.161-1.846,1.741-2.769
			c1.653-1.451,3.306-2.902,4.96-4.352c-3.103,1.463-5.185,4.419-6.798,7.295c-0.434,0.985-0.772,1.998-1.013,3.039
			c-0.371,1.548,1.175-3.204,0.476-1.438c-0.627,1.582-1.136,3.141-1.493,4.789c-0.13,0.6-0.213,1.178-0.271,1.79
			c-0.204,2.184,1.063-2.089,0.013,0.269c-2.633,5.913-5.436,11.75-8.135,17.633c-7.698,16.781-12.83,34.242-17.065,52.994
			c-5.651,25.022-9.26,50.717-11.309,76.269c-1.061,13.231-1.449,26.51-1.591,39.779c-0.074,6.953-0.129,13.906,0.208,20.853
			c0.325,6.703,1.315,12.095,3.989,18.182C185.522,397.816,188.144,396.677,188.635,395.282L188.635,395.282z"/>
	</g>
</g>
</svg>
