<?xml version="1.0" encoding="UTF-8" standalone="no"?><!DOCTYPE svg PUBLIC "-//W3C//DTD SVG 1.1//EN" "http://www.w3.org/Graphics/SVG/1.1/DTD/svg11.dtd"><svg width="100%" height="100%" viewBox="0 0 479 523" version="1.1" xmlns="http://www.w3.org/2000/svg" xmlns:xlink="http://www.w3.org/1999/xlink" xml:space="preserve" style="fill-rule:evenodd;clip-rule:evenodd;stroke-linejoin:round;stroke-miterlimit:1.41421;"><g id="tree"><path d="M51.575,293.628c-18.053,-13.257 -29.958,-37.867 -32.374,-59.783c-2.166,-19.646 2.657,-38.988 18.287,-51.869c15.003,-12.364 36.042,-15.488 54.874,-14.874c13.238,0.432 26.598,3.198 39.158,7.274c12.54,4.07 25.029,10.126 33.849,20.131c6.856,7.777 10.507,17.673 12.728,27.66c2.386,10.724 1.596,22.293 5.208,32.699c2.071,5.965 9.767,0.083 10.787,-3.477c3.338,-11.632 2.042,-24.866 -0.472,-36.555c-2.427,-11.283 -6.875,-21.831 -14.169,-30.856c-8.394,-10.386 -20.54,-16.61 -32.752,-21.35c-13.325,-5.171 -27.198,-8.062 -41.384,-9.515c-41.258,-4.227 -88.574,12.704 -99.048,56.994c-4.105,17.362 -0.871,35.597 6.26,51.688c7.186,16.215 18.485,31.734 36.491,36.031c2.099,0.503 4.595,-2.701 2.557,-4.198Z" style="fill-rule:nonzero;"/><path d="M49.745,295.286c-8.154,-2.44 -18.619,2.535 -25.566,6.519c-8.66,4.967 -15.228,13.168 -19.211,22.205c-7.122,16.158 -5.54,38.64 9.224,50.011c15.265,11.758 37.468,13.401 54.872,5.874c9.341,-4.04 17.263,-10.133 24.015,-17.707c5.044,-5.66 12.431,-16.508 9.377,-24.579c-1.364,-3.607 -5.878,-0.062 -6.555,2.112c-0.507,1.625 -4.368,5.047 -5.785,6.936c-2.22,2.959 -4.322,5.974 -6.742,8.778c-4.38,5.077 -10.039,9.378 -16.21,12.034c-14.137,6.083 -30.391,4.233 -43.148,-4.316c-11.58,-7.759 -12.396,-24.188 -8.934,-36.284c2.201,-7.693 6.726,-13.687 13.043,-18.485c6.524,-4.955 14.604,-6.514 21.433,-10.797c0.805,-0.507 1.453,-1.921 0.187,-2.301Z" style="fill-rule:nonzero;"/><path d="M100.021,341.318c-1.292,5.533 -2.341,9.375 -1.058,15.13c1.023,4.591 3.347,8.945 6.251,12.613c6.015,7.597 15.173,11.978 24.599,13.438c10.088,1.563 20.631,-0.509 29.289,-5.929c4.718,-2.954 8.814,-6.88 11.807,-11.58c2.796,-4.393 6.5,-11.867 3.055,-16.742c-1.237,-1.749 -4.09,-0.642 -5.318,0.431c-3.434,3 -4.874,7.424 -7.56,11.002c-2.011,2.679 -4.335,5.207 -6.774,6.78c-5.883,3.796 -13.592,4.866 -20.69,3.985c-7.503,-0.931 -15.222,-4.061 -20.857,-9.157c-2.799,-2.532 -5.087,-5.475 -6.722,-8.876c-1.519,-3.157 -3.704,-8.017 -4.023,-11.499c-0.119,-1.271 -1.807,-0.416 -1.999,0.404Z" style="fill-rule:nonzero;"/><path d="M191.65,250.323c13.082,2.366 24.968,11.715 31.452,23.108c6.467,11.365 10.964,27.219 8.196,40.245c-2.684,12.631 -16.576,19.604 -27.666,23.315c-6.194,2.072 -12.608,3.074 -19.124,3.297c-3.068,0.104 -6.134,-0.191 -9.181,-0.513c-1.771,-0.187 -3.553,-0.392 -5.319,-0.623c-2.164,-0.283 -3.601,0.93 -5.613,1.024c-2.729,0.13 -6.279,3.997 -4.067,6.608c1.094,1.291 0.82,3.112 2.639,3.938c1.61,0.73 3.222,1.339 4.896,1.904c3.866,1.307 8.314,1.258 12.34,1.291c8.604,0.072 17.353,-1.8 25.474,-4.531c16.553,-5.566 32.07,-17.117 37.775,-34.094c5.064,-15.066 -1.504,-34.963 -9.838,-47.678c-4.396,-6.707 -10.584,-12.387 -17.604,-16.24c-7.39,-4.058 -15.376,-4.476 -23.555,-3.409c-0.977,0.129 -2.368,2.076 -0.805,2.358Z" style="fill-rule:nonzero;"/><path d="M177.172,194.979c2.741,-7.463 3.447,-15.335 6.807,-22.647c3.238,-7.048 8.293,-12.707 14.742,-16.991c15.844,-10.524 37.229,-15.473 56.079,-14.339c15.467,0.931 29.691,7.679 42.282,16.376c6.299,4.352 11.984,9.703 16.28,16.061c1.711,2.532 2.806,5.521 3.549,8.465c0.817,3.239 -0.202,6.397 1.505,9.424c1.715,3.041 5.866,2.879 8.2,0.436c13.863,-14.514 -4.27,-34.783 -15.957,-43.812c-14.789,-11.426 -32.464,-19.51 -51.292,-20.303c-23.021,-0.969 -48.429,5.813 -67.153,19.5c-7.81,5.709 -13.964,13.297 -17.858,22.158c-3.313,7.541 -5.331,19.03 -1.225,26.496c0.931,1.692 3.465,0.743 4.041,-0.824Z" style="fill-rule:nonzero;"/><path d="M327.199,193.576c1.375,-7.249 7.282,-10.592 13.69,-13.105c7.708,-3.023 16.133,-4.799 24.315,-5.921c18.457,-2.532 36.959,3.109 53.108,11.883c18.704,10.16 35.328,26.215 42.594,46.537c7.42,20.755 1.06,43.298 -14.657,58.312c-13.839,13.22 -32.179,19.653 -47.17,31.209c-2.313,1.783 -2.82,7.602 1.453,6.748c22.439,-4.482 44.379,-18.731 59.729,-35.525c15.67,-17.144 21.388,-41.357 15.68,-63.71c-5.397,-21.14 -21.563,-38.399 -39.351,-50.107c-17.088,-11.247 -39.006,-19.105 -59.688,-17.98c-12.248,0.666 -24.843,3.836 -35.965,8.916c-8.023,3.665 -22.512,13.132 -17.261,23.88c0.837,1.707 3.255,0.272 3.523,-1.137Z" style="fill-rule:nonzero;"/><path d="M201.585,342.242c-1.226,7.713 4.069,14.114 10.388,17.887c7.158,4.275 16.233,4.91 24.35,4.433c16.96,-0.999 34.304,-7.487 48.193,-17.16c2.729,-1.901 5.688,-5.22 4.291,-8.863c-1.608,-4.198 -7.364,-2.966 -9.924,-0.527c-8.483,8.077 -24.78,13.647 -37.221,16.017c-7.192,1.368 -14.713,1.832 -21.847,-0.047c-7.578,-1.995 -10.479,-7.909 -15.734,-12.857c-0.848,-0.801 -2.332,0.089 -2.496,1.117Z" style="fill-rule:nonzero;"/><path d="M282.643,336.007c-1.956,13.497 8.666,24.406 18.596,31.843c12.03,9.011 27.976,11.335 42.579,11.005c15.686,-0.355 31.65,-5.722 42.971,-16.75c8.303,-8.088 20.309,-22.441 17.831,-35.105c-1.778,-9.086 -15.753,-2.718 -14.29,4.581c1.634,8.144 -6.936,17.444 -12.206,22.616c-8.796,8.631 -21.247,11.028 -33.159,11.769c-12.312,0.765 -24.125,-1.601 -34.979,-7.4c-10.248,-5.478 -20.009,-12.272 -24.093,-23.605c-0.602,-1.671 -3.073,-0.176 -3.25,1.046Z" style="fill-rule:nonzero;"/><path d="M67.105,160.871c-10.148,-5.999 -13.743,-15.901 -14.821,-27.319c-1.156,-12.247 1.328,-23.956 10.762,-32.434c8.926,-8.021 20.83,-10.406 32.41,-9.965c5.065,0.194 10.131,0.842 15.132,1.652c2.183,0.354 4.353,0.797 6.479,1.406c-1.146,-0.328 1.841,0.546 2.191,0.615c2.452,0.49 -0.517,0.357 -1.295,-1.738c1.326,3.574 6.358,2.569 8.495,0.451c4.832,-4.791 3.004,-10.535 -3.39,-12.061c-6.407,-1.528 -13.356,-1.514 -19.901,-1.688c-5.486,-0.146 -11.208,-0.711 -16.633,0.358c-9.45,1.864 -18.622,5.489 -26.325,11.354c-13.302,10.125 -19.12,25.243 -17.675,41.629c1.063,12.063 7.119,31.063 21.459,32.853c2.318,0.29 5.974,-3.421 3.112,-5.113Z" style="fill-rule:nonzero;"/><path d="M125.63,89.284c0.253,-3.929 0.815,-7.75 1.035,-11.71c0.206,-3.727 0.637,-7.358 1.473,-11.001c1.458,-6.35 4.097,-12.153 7.597,-17.624c7.296,-11.405 18.254,-19.363 30.365,-25.191c26.636,-12.819 59.616,-13.937 87.688,-5.554c13.125,3.918 25.642,10.867 35.254,20.683c11.945,12.198 20.857,31.845 16.966,49.001c-0.814,3.591 1.813,6.494 5.441,6.2c4.103,-0.333 7.194,-3.56 8.338,-7.317c3.534,-11.61 0.135,-25.346 -4.38,-36.231c-2.835,-6.835 -6.918,-13.241 -11.713,-18.863c-9.533,-11.181 -22.594,-19.065 -36.297,-24.029c-29.556,-10.708 -63.417,-9.652 -92.773,1.253c-17.208,6.394 -33.399,16.725 -44.464,31.587c-5.211,7 -8.752,15.119 -10.704,23.608c-1.017,4.421 -1.35,9.067 -1.384,13.593c-0.038,5.139 1.141,8.934 3.123,13.558c1.095,2.548 4.319,-0.151 4.435,-1.963Z" style="fill-rule:nonzero;"/><path d="M309.425,93.685c6.21,-1.625 11.591,-3.811 18.121,-4.357c6.71,-0.562 13.215,0.325 19.673,2.163c13.216,3.761 24.022,12.828 32.246,23.57c6.579,8.594 10.018,17.885 12.313,28.294c0.995,4.515 1.691,9.126 1.999,13.739c0.102,1.516 0.143,3.105 -0.041,4.408c-0.051,0.359 -0.785,2.201 -0.131,0.699c0.625,-0.921 0.702,-1.074 0.23,-0.459c-1.526,2.41 -1.335,2.234 0.579,-0.527c-2.328,1.877 -4.73,7.705 -0.724,9.363c6.618,2.738 11.808,-3.102 13.669,-8.865c1.642,-5.086 0.408,-11.492 -0.451,-16.601c-2.22,-13.193 -5.917,-24.947 -13.489,-36.104c-9.586,-14.126 -24.319,-24.656 -40.778,-29.018c-7.743,-2.052 -16.365,-2.601 -24.231,-0.981c-7.365,1.517 -16.363,5.423 -20.643,11.948c-0.972,1.483 -0.295,3.239 1.658,2.728Z" style="fill-rule:nonzero;"/><path d="M113.897,373.181c1.878,8.09 8.46,15.512 13.966,21.436c5.429,5.841 11.749,10.931 18.528,15.119c5.773,3.566 11.835,6.667 17.756,9.978c4.107,2.297 9.116,7.325 13.985,6.9c2.747,-0.239 5.169,-2.454 5.813,-5.101c1.412,-5.811 -5.037,-7.921 -9.2,-9.934c-6.2,-2.997 -12.55,-5.674 -18.774,-8.617c-6.791,-3.213 -13.104,-7.13 -18.908,-11.915c-7.47,-6.157 -12.495,-13.878 -18.948,-20.877c-1.777,-1.926 -4.684,1.003 -4.218,3.011Z" style="fill-rule:nonzero;"/><path d="M175.692,419.1c-0.459,2.963 0.459,5.206 1.23,8.083c0.992,3.703 1.899,7.467 2.394,11.27c0.962,7.405 -0.01,14.925 -1.7,22.142c-1.774,7.58 -4.689,14.87 -7.801,21.985c-2.895,6.619 -5.859,13.595 -9.581,19.795c3.245,-1.474 6.489,-2.948 9.733,-4.422c-0.042,-0.019 -0.084,-0.037 -0.127,-0.056c0.701,1.153 1.402,2.307 2.104,3.46c-0.01,-0.601 0.048,-2.963 -1.37,-4.115c-2.433,-1.979 -5.302,-1.305 -7.612,0.616c-1.882,1.564 -3.152,3.527 -3.368,5.994c-0.177,2.022 0.026,3.846 1.976,4.964c0.039,0.022 0.078,0.045 0.118,0.068c2.838,1.628 7.23,-0.359 8.827,-2.934c8.559,-13.8 15.403,-30.514 19.028,-46.322c1.858,-8.104 2.467,-16.573 1.003,-24.776c-1.123,-6.291 -4.143,-16.662 -11.283,-18.325c-1.5,-0.35 -3.344,1.107 -3.571,2.573Z" style="fill-rule:nonzero;"/><path d="M327.245,368.056c-1.819,8.729 -3.893,16.736 -8.777,24.354c-4.661,7.268 -10.858,13.496 -17.255,19.233c-11.547,10.354 -26.071,17.899 -33.229,32.258c-5.414,10.859 -3.567,24.224 -3.018,35.911c0.299,6.35 0.654,12.697 0.841,19.053c0.076,2.578 0.104,5.158 0.024,7.735c-0.038,1.237 -0.03,0.924 -0.103,1.525c-0.219,1.812 -1.046,2.426 0.889,-0.67c-1.272,2.036 -2.387,4.769 -0.53,6.883c2.13,2.428 6.345,1.337 8.355,-0.677c3.556,-3.563 3.832,-7.762 3.923,-12.559c0.116,-6.078 -0.28,-12.176 -0.582,-18.244c-0.34,-6.853 -0.717,-13.704 -0.867,-20.564c-0.129,-5.898 -0.237,-10.858 2.192,-16.318c3.071,-6.902 9.819,-11.591 15.557,-16.135c6.759,-5.353 13.183,-11.157 19.104,-17.428c9.779,-10.357 25.741,-30.354 17.222,-45.564c-0.98,-1.746 -3.421,-0.354 -3.746,1.207Z" style="fill-rule:nonzero;"/><path d="M138.706,378.72c3.376,6.242 10.68,10.637 16.363,14.602c6.839,4.771 14.353,8.669 22.209,11.454c9.982,3.539 21.587,5.548 30.648,-1.187c9.228,-6.855 8.008,-21.574 4.897,-31.099c-2.188,-6.701 -5.946,-12.989 -10.142,-18.612c-3.481,-4.668 -8.732,-10.65 -14.689,-11.902c-2.916,-0.612 -8.396,4.226 -5.315,6.966c3.599,3.201 7.468,5.532 10.704,9.233c3.972,4.543 7.026,9.824 9.469,15.318c2.541,5.719 6.946,20.234 -0.029,24.711c-7.174,4.603 -20.799,-0.998 -27.506,-3.792c-6.303,-2.624 -12.27,-6.063 -18.191,-9.436c-5.256,-2.994 -10.353,-7.065 -16.307,-8.506c-1.008,-0.242 -2.7,1.161 -2.111,2.25Z" style="fill-rule:nonzero;"/><path d="M224.37,359.572c-4.996,11.643 3.327,24.955 16.192,24.169c5.791,-0.354 11.094,-4.181 13.875,-9.152c3.689,-6.595 2.526,-14.351 -0.035,-21.114c-1.873,-4.942 -10.23,0.432 -8.52,4.855c2.478,6.404 4.141,16.582 -4.78,17.296c-3.407,0.272 -6.683,-1.469 -8.906,-3.928c-3.258,-3.603 -3.22,-8.394 -4.166,-12.872c-0.406,-1.919 -3.23,-0.258 -3.66,0.746Z" style="fill-rule:nonzero;"/><path d="M269.138,348.714c-3.486,8.836 -4.406,18.94 -6.735,28.155c-2.54,10.049 -4.836,20.073 -5.622,30.431c-0.107,1.414 1.182,2.461 2.408,2.745c12.313,2.855 25.436,-6.608 34.158,-14.155c4.988,-4.314 9.605,-9.354 13.096,-14.964c1.924,-3.093 6.48,-10.453 2.592,-13.563c-1.725,-1.378 -4.271,-0.698 -5.481,1.139c-1.967,2.985 -2.396,6.538 -4.303,9.615c-2.665,4.3 -6.176,8.029 -9.877,11.443c-6.476,5.972 -16.793,14.079 -26.278,12.197c0.803,0.915 1.605,1.83 2.408,2.745c0.46,-10.166 2.85,-19.994 4.852,-29.93c1.594,-7.911 4.471,-18.578 0.855,-26.281c-0.437,-0.93 -1.78,-0.319 -2.073,0.423Z" style="fill-rule:nonzero;"/><path d="M141.198,521.937c2.57,-0.613 4.777,-3.235 7.154,-4.445c3.35,-1.704 6.793,-3.012 10.411,-4.037c9.401,-2.665 19.407,-3.355 29.135,-3.43c10.237,-0.078 20.505,0.886 30.536,2.93c4.063,0.827 8.111,1.885 11.998,3.334c3.349,1.247 6.122,3.213 9.266,4.777c4.18,2.079 10.408,-4.82 5.92,-7.814c-1.488,-0.993 -3.139,-1.547 -4.915,-1.66c-2.871,-0.182 -5.521,2.253 -4.884,5.205c0.479,2.224 2.132,3.105 3.879,4.27c1.974,-2.605 3.947,-5.21 5.92,-7.814c-3.417,-1.697 -6.453,-3.725 -10.09,-5.076c-4.592,-1.707 -9.338,-2.924 -14.134,-3.897c-11.143,-2.262 -22.663,-2.993 -34.014,-2.687c-10.702,0.289 -21.667,1.7 -31.719,5.521c-4.101,1.56 -8.09,3.654 -11.315,6.66c-1.688,1.572 -5.48,5.086 -4.29,7.748c0.214,0.478 0.687,0.524 1.142,0.415Z" style="fill-rule:nonzero;"/><path d="M241.51,522.36c1.568,-0.393 2.911,-1.813 4.343,-2.571c2.167,-1.145 4.461,-1.898 6.824,-2.533c6.096,-1.638 12.535,-2.121 18.82,-2.245c5.752,-0.114 11.512,0.198 17.174,1.254c2.001,0.374 3.984,0.862 5.827,1.738c1.324,0.629 1.403,1.565 2.983,2.271c2.3,1.026 5.532,-0.522 6.377,-2.897c4.151,-11.673 -24.891,-10.96 -30.563,-10.759c-7.617,0.269 -15.445,1.272 -22.616,3.941c-3.197,1.189 -13.524,6.057 -11.309,11.021c0.399,0.889 1.29,0.993 2.14,0.78Z" style="fill-rule:nonzero;"/></g></svg>