<?xml version="1.0" encoding="UTF-8" standalone="no"?><!DOCTYPE svg PUBLIC "-//W3C//DTD SVG 1.1//EN" "http://www.w3.org/Graphics/SVG/1.1/DTD/svg11.dtd"><svg width="100%" height="100%" viewBox="0 0 567 352" version="1.1" xmlns="http://www.w3.org/2000/svg" xmlns:xlink="http://www.w3.org/1999/xlink" xml:space="preserve" style="fill-rule:evenodd;clip-rule:evenodd;stroke-linejoin:round;stroke-miterlimit:1.41421;"><g id="triangle"><path d="M270.07,2.254c-21.509,9.73 -36.87,30.521 -50.231,49.213c-14.313,20.02 -27.686,40.465 -43.031,59.734c-39.77,49.941 -84.079,96.277 -122.881,146.971c-8.219,10.738 -16.152,21.691 -24.26,32.512c-8.316,11.102 -17.516,21.48 -25.916,32.484c-3.511,4.6 -0.563,9.941 4.711,10.854c6.422,1.113 12.664,-2.272 16.533,-7.174c3.362,-4.26 3.274,-8.23 -0.338,-12.031c-2.176,-2.289 -6.662,-1.738 -9.184,-0.498c-3.684,1.815 -6.917,3.703 -9.877,6.623c5.852,2.711 11.701,5.422 17.553,8.133c10.656,-10.838 19.519,-23.98 28.428,-36.256c8.957,-12.34 17.709,-24.828 26.892,-37.004c18.887,-25.045 39.786,-48.637 60.036,-72.575c20.858,-24.659 41.614,-49.419 61.467,-74.899c14.591,-18.727 26.379,-39.412 39.873,-58.91c10.11,-14.607 21.083,-29.036 35.494,-39.683c6.283,-4.642 1.153,-10.4 -5.269,-7.494Z" style="fill:#010101;fill-rule:nonzero;"/><path d="M270.467,6.286c6.79,14.455 16.812,26.418 26.918,38.717c10.333,12.574 20.658,25.153 30.965,37.748c20.746,25.351 41.637,50.58 62.426,75.896c20.802,25.329 41.508,50.753 61.779,76.509c10.199,12.957 20.307,25.985 30.551,38.905c9.401,11.855 17.525,24.644 27.075,36.373c5.056,6.209 10.464,11.998 16.201,17.573c2.408,2.34 4.829,4.669 7.124,7.12c0.6,0.64 5.189,3.426 2.885,1.853c0.11,0.087 0.221,0.173 0.33,0.259c-1.227,-1.845 -1.113,-1.711 0.342,0.402c1.278,1.227 2.436,1.461 4.109,1.9c-0.121,-4.463 -0.242,-8.926 -0.363,-13.389c-0.045,0.035 -0.09,0.068 -0.136,0.104c1.841,-0.8 3.683,-1.599 5.522,-2.397c-0.078,0.012 -0.156,0.022 -0.234,0.034c-4.609,0.684 -10.776,5.17 -10.711,10.31c0.072,5.715 6.884,5.836 10.896,5.241c0.727,-0.108 10.447,-3.836 3.336,-1.13c4.221,-1.606 7.355,-5.095 7.992,-9.53c1.062,-7.392 -10,-14.105 -14.588,-18.27c-8.867,-8.047 -16.43,-17.229 -23.284,-27.027c-18.569,-26.543 -39.657,-51.606 -59.993,-76.834c-41.146,-51.045 -83.652,-100.955 -126.887,-150.236c-16.734,-19.076 -32.584,-40.132 -53.283,-55.01c-2.796,-2.012 -11.013,0.537 -8.972,4.879Z" style="fill:#010101;fill-rule:nonzero;"/><path d="M4.56,335.95c16.377,1.15 32.858,0.507 49.269,0.599c16.518,0.093 33.033,0.12 49.55,0.339c33.088,0.44 66.169,1.027 99.261,1.192c32.98,0.163 65.951,-0.94 98.927,-0.74c31.646,0.19 63.267,1.913 94.776,4.804c28.94,2.654 57.924,4.17 86.954,5.436c10.967,0.479 21.825,-0.55 32.767,-1.182c9.593,-0.553 20.148,-1.214 29.212,2.537c2.814,-5.759 5.629,-11.518 8.443,-17.277c-5.247,1.068 -10.315,2.713 -15.521,3.93c-3.914,0.914 -8.254,3.58 -9.581,7.598c-1.233,3.731 1.423,6.21 4.813,6.983c6.965,1.59 13.579,0.679 20.499,-0.729c4.131,-0.841 8.359,-3.472 10.688,-7.021c2.294,-3.498 2.111,-8.453 -2.244,-10.256c-12.186,-5.045 -25.616,-5.128 -38.591,-4.518c-12.836,0.604 -25.404,1.654 -38.267,1.093c-32.113,-1.403 -64.017,-4.024 -96.052,-6.515c-65.569,-5.096 -131.07,-2.105 -196.74,-2.408c-29.872,-0.137 -59.737,-0.41 -89.609,-0.261c-15.289,0.077 -30.587,0.161 -45.869,0.604c-15.403,0.447 -30.955,0.578 -46.239,2.664c-3.827,0.523 -7.616,1.905 -9.843,5.301c-2.064,3.145 -0.801,7.532 3.397,7.827Z" style="fill:#010101;fill-rule:nonzero;"/></g></svg>