<?xml version="1.0" encoding="UTF-8" standalone="no"?><!DOCTYPE svg PUBLIC "-//W3C//DTD SVG 1.1//EN" "http://www.w3.org/Graphics/SVG/1.1/DTD/svg11.dtd"><svg width="100%" height="100%" viewBox="0 0 536 511" version="1.1" xmlns="http://www.w3.org/2000/svg" xmlns:xlink="http://www.w3.org/1999/xlink" xml:space="preserve" style="fill-rule:evenodd;clip-rule:evenodd;stroke-linejoin:round;stroke-miterlimit:1.41421;"><g id="voice"><path d="M279.607,207.49c-4.099,4.96 -4.192,13.433 -5.554,19.549c-1.465,6.585 -4.054,12.848 -7.64,18.55c-5.367,8.533 -14.882,13.664 -22.679,19.657c-8.801,6.764 -18.853,15.654 -17.469,27.826c1.291,11.356 10.338,20.815 18.98,27.444c4.117,3.158 9.904,1.975 13.97,-0.736c2.626,-1.751 7.754,-7.918 3.401,-10.857c-7.832,-5.289 -17.033,-14.135 -16.76,-24.318c0.105,-3.884 3.693,-6.896 6.269,-9.326c3.471,-3.273 7.39,-6.047 11.122,-9.007c8.512,-6.751 16.222,-14.474 20.038,-24.868c2.109,-5.744 2.971,-11.635 3.089,-17.732c0.094,-4.794 0.023,-13.694 -4.147,-16.816c-0.867,-0.65 -2.013,-0.101 -2.62,0.634Z" style="fill:#010101;fill-rule:nonzero;"/><path d="M257.113,317.798c-2.547,6.814 1.329,20.843 -6.226,25.049c-1.596,0.888 -4.162,3.604 -3.736,5.698c1.401,6.896 5.295,12.192 8.065,18.523c1.241,2.836 5.208,3.107 7.784,2.426c16.651,-4.402 39.273,-0.07 42.576,19.727c0.587,3.518 0.218,6.886 -1.805,9.845c-1.604,2.348 -4.322,3.312 -7.528,4.516c-6.53,2.453 -15.696,2.915 -23.267,2.928c-4.672,0.009 -9.619,3.414 -10.264,8.139c-1.297,9.521 -3.046,21.854 9.125,24.314c4.123,0.833 9.175,-1.502 11.448,-4.969c2.177,-3.319 0.585,-6.795 -3.261,-7.516c-3.75,-0.702 -1.172,-13.197 -0.875,-15.686c-3.421,2.713 -6.842,5.426 -10.264,8.139c19.574,-0.112 53.771,-5.248 53.163,-31.295c-0.688,-29.475 -36.607,-35.715 -59.187,-29.69c2.595,0.809 5.189,1.617 7.784,2.426c-2.55,-5.772 -6.762,-10.663 -8.233,-16.898c0.018,0.975 0.036,1.948 0.054,2.923c1.836,-5.305 3.995,-9.16 3.658,-15.021c-0.293,-5.093 -1.896,-11.101 -5.59,-14.727c-0.996,-0.982 -3.005,0.037 -3.421,1.149Z" style="fill:#010101;fill-rule:nonzero;"/><path d="M275.405,435.785c-2.252,6.236 -1.59,13.089 -3.092,19.53c-1.032,4.428 -3.422,8.254 -4.41,12.73c-1.618,7.333 0.747,14.053 5.172,19.867c9.159,12.037 27.146,17.286 41.232,20.222c21.518,4.483 44.598,2.616 66.056,-1.119c26.577,-4.627 52.171,-14.413 76.912,-24.896c2.862,-1.213 6.254,-3.964 6.21,-7.405c-0.057,-4.479 -5.45,-4.684 -8.626,-4.149c-1.771,0.299 -3.369,0.843 -5.015,1.557c-2.697,1.17 -5.906,3.726 -5.864,6.993c0.04,3.121 3.427,4.376 6.067,4.209c0.918,-0.068 1.837,-0.115 2.757,-0.141c-0.071,-3.954 -0.144,-7.908 -0.215,-11.862c-22.346,9.469 -45.057,17.933 -68.908,22.73c-19.973,4.018 -41.111,5.436 -60.278,1.926c-12.957,-2.373 -27.58,-7.015 -36.399,-17.358c-3.631,-4.26 -4.339,-9.844 -2.856,-15.096c0.499,-1.77 1.346,-3.407 2.012,-5.113c0.844,-2.166 -0.525,-5.715 -1.135,-7.87c-1.59,-5.628 -1.764,-11.903 -6.745,-15.718c-0.91,-0.698 -2.5,-0.075 -2.875,0.963Z" style="fill:#010101;fill-rule:nonzero;"/><path d="M284.823,210.466c1.502,-5.414 1.044,-9.555 -1.829,-14.358c-3.457,-5.779 -5.669,-12.104 -7.978,-18.43c-4.762,-13.048 -7.453,-26.516 -7.739,-40.41c-0.465,-22.589 6.634,-42.758 20.638,-60.398c12.256,-15.438 30.228,-27.92 46.666,-36.542c9.023,-4.732 18.424,-8.748 27.998,-12.223c4.236,-1.538 6.208,-2.156 11.249,-3.621c5.297,-1.539 10.64,-2.762 16.058,-3.795c43.461,-8.286 88.055,-3.076 126.225,20.081c0.649,-4.434 1.299,-8.867 1.947,-13.3c2.029,-0.688 2.039,-0.802 0.029,-0.346c-1.418,0.248 -2.817,0.645 -4.242,0.891c-6.768,1.169 -16.034,12.93 -4.913,15.028c7.538,1.423 14.444,-0.153 20.876,-4.321c4.838,-3.134 7.977,-9.728 1.947,-13.3c-48.348,-28.638 -109.354,-31.37 -162.335,-14.649c-40.527,12.789 -81.78,35.791 -105.42,72.222c-12.079,18.616 -17.162,40.175 -15.954,62.241c0.724,13.207 4.006,26.253 8.541,38.634c2.188,5.977 4.562,12.415 8.191,17.678c2.843,4.122 6.369,6.952 8.307,11.711c1.957,4.809 10.707,0.924 11.738,-2.793Z" style="fill:#010101;fill-rule:nonzero;"/><path d="M300.12,209.232c-3.297,6.583 -4.164,13.922 -3.993,21.211c0.766,-1.566 1.531,-3.132 2.297,-4.698c-1.99,2.131 -4.356,4.959 -2.994,8.099c1.964,4.524 8.646,3.661 12.21,2.115c3.302,-1.433 7.227,-4.558 7.176,-8.558c-0.057,-4.471 -4.951,-5.19 -8.377,-5.135c1.667,0.511 3.334,1.021 5.001,1.531c-3.507,-4.334 -2.496,-10.762 -5.411,-15.422c-1.242,-1.983 -4.961,-1.037 -5.909,0.857Z" style="fill:#010101;fill-rule:nonzero;"/><path d="M1.043,399.9c6.024,0.149 12.001,1.21 17.96,2.025c4.902,0.671 11.235,2.427 16.175,1.266c12.067,-2.835 17.16,-17.92 24.814,-26.135c-2.682,0.132 -5.363,0.264 -8.045,0.396c4.34,10.543 2.956,22.063 2.592,33.17c-0.371,11.283 0.874,22.467 7.473,31.949c2.706,3.889 8.914,1.141 10.495,-2.496c6.857,-15.77 10.399,-32.8 15.787,-49.087c5.159,-15.598 12.075,-32.685 26.27,-42.163c-2.811,-0.487 -5.621,-0.974 -8.432,-1.461c2.31,48.081 -6.808,96.589 6.701,143.712c1.296,4.522 10.245,0.813 10.9,-2.592c5.457,-28.349 8.282,-57.129 13.669,-85.492c5.247,-27.635 12.637,-56.344 29.435,-79.414c-3.543,0.157 -7.086,0.315 -10.63,0.472c1.338,25.52 -0.305,51.094 1.603,76.6c1.872,25.029 7.329,50.917 23.918,70.551c3,3.551 10.187,-0.757 10.507,-4.56c1.398,-16.604 1.792,-33.272 3.538,-49.853c1.688,-16.031 4.286,-33.495 13.024,-47.39c-3.536,0.157 -7.072,0.314 -10.607,0.472c0.189,11.282 4.015,21.808 5.762,32.853c1.863,11.778 0.503,23.465 5.157,34.753c1.953,4.735 9.64,0.549 10.921,-2.598c2.285,-5.615 3.416,-11.528 4.761,-17.417c1.224,-5.362 3.585,-10.035 5.266,-15.207c0.825,-2.536 1.388,-2.03 -0.875,-0.398c-1.162,0.839 1.1,-0.45 1.081,-0.441c1.321,-0.599 2.527,-1.171 3.934,-1.58c5.98,-1.738 12.275,-1.765 18.239,-3.693c2.576,-0.833 5.437,-5.809 0.843,-5.179c-6.933,0.949 -13.902,0.073 -20.768,1.807c-3.83,0.968 -9.149,2.957 -11.517,6.336c-0.889,1.268 -1.212,3.068 -1.722,4.499c-1.173,3.292 -2.981,6.3 -4.109,9.634c-2.461,7.274 -3.182,14.961 -6.094,22.113c3.641,-0.866 7.281,-1.731 10.921,-2.598c-4.316,-10.47 -3.353,-21.66 -4.718,-32.685c-1.379,-11.122 -5.57,-21.531 -5.76,-32.854c-0.092,-5.503 -8.927,-2.199 -10.607,0.472c-9.133,14.522 -12.105,32.04 -14.125,48.798c-2.115,17.541 -2.394,35.224 -3.877,52.815c3.502,-1.521 7.005,-3.04 10.507,-4.56c-15.969,-18.903 -20.579,-44.235 -22.37,-68.217c-1.867,-25.01 -0.176,-50.107 -1.484,-75.133c-0.295,-5.641 -8.788,-2.058 -10.63,0.472c-17.007,23.354 -24.737,52.149 -30.229,80.101c-5.665,28.831 -8.393,58.141 -13.901,86.993c3.634,-0.864 7.267,-1.728 10.9,-2.592c-13.346,-46.267 -4.153,-94.36 -6.467,-141.601c-0.206,-4.199 -6.233,-2.931 -8.432,-1.461c-31.694,21.197 -33.372,64.96 -46.822,97.227c3.304,-1.109 6.608,-2.218 9.913,-3.327c-13.607,-18.826 -1.724,-43.411 -10.748,-63.737c-1.334,-3.002 -6.424,-1.415 -8.045,0.396c-3.439,3.841 -6.229,8.138 -9.084,12.414c-1.53,2.293 -3.12,4.541 -4.793,6.731c-0.994,1.302 -3.966,4.823 -4.935,5.142c-10.079,3.309 -22.136,-0.41 -32.517,-0.443c-1.413,-0.006 -2.728,2.146 -0.723,2.195Z" style="fill:#010101;fill-rule:nonzero;"/></g></svg>