<?xml version="1.0" encoding="UTF-8" standalone="no"?><!DOCTYPE svg PUBLIC "-//W3C//DTD SVG 1.1//EN" "http://www.w3.org/Graphics/SVG/1.1/DTD/svg11.dtd"><svg width="100%" height="100%" viewBox="0 0 406 507" version="1.1" xmlns="http://www.w3.org/2000/svg" xmlns:xlink="http://www.w3.org/1999/xlink" xml:space="preserve" style="fill-rule:evenodd;clip-rule:evenodd;stroke-linejoin:round;stroke-miterlimit:1.41421;"><g id="washing_machine"><path d="M30.571,486.618c20.415,-6.772 43.996,-4.518 65.07,-3.229c11.78,0.72 23.551,1.681 35.349,2.077c14.984,0.502 30.044,0.045 45.03,-0.195c32.783,-0.527 65.548,-1.77 98.326,-2.479c32.465,-0.701 64.993,-1.88 97.465,-1.992c2.602,-0.009 5.202,0.023 7.803,-0.002c5.409,-0.055 12.074,-3.708 13.846,-9.07c1.816,-5.497 -3.527,-8.229 -8.186,-8.121c-6.191,0.145 -12.282,0.17 -17.053,4.857c-0.961,0.944 -2.298,2.653 -2.759,4.049c-2.306,6.979 9.24,8.168 14.151,8.285c1.887,-5.73 3.773,-11.461 5.66,-17.191c-16.351,-0.105 -32.732,1.113 -49.053,1.948c-16.319,0.835 -32.643,1.059 -48.971,1.597c-32.832,1.082 -65.66,2.362 -98.5,3.194c-27.341,0.692 -54.425,0.76 -81.719,-0.876c-12.379,-0.741 -24.753,-1.273 -37.156,-0.896c-11.201,0.342 -23.816,1.345 -34.279,5.742c-2.912,1.224 -5.732,2.819 -8.432,4.452c-5.223,3.158 -2.6,9.843 3.408,7.85Z" style="fill:#010101;fill-rule:nonzero;"/><path d="M3.873,48.117c-2.401,15.673 -1.168,31.784 -0.139,47.539c1.041,15.944 2.444,31.942 2.111,47.931c-0.688,32.956 -1.95,65.89 -1.523,98.859c0.429,33.152 1.452,66.214 1.288,99.379c-0.082,16.421 0.295,32.797 0.728,49.209c0.383,14.489 -1.98,28.965 -3.534,43.328c-1.796,16.604 -2.875,33.362 1.157,49.718c1.3,5.267 10.219,3.751 13.482,2.335c4.288,-1.861 9.233,-6.259 7.504,-11.442c-9.206,-27.587 0.437,-56.954 0.797,-85.112c0.207,-16.165 -0.855,-32.393 -0.839,-48.575c0.017,-16.612 0.218,-33.225 0.012,-49.837c-0.408,-32.953 -1.783,-65.859 -1.805,-98.828c-0.021,-32.447 1.49,-64.682 -3.211,-96.891c-2.425,-16.611 -4.44,-33.205 -6.378,-49.876c-0.614,-5.284 -9.065,-1.555 -9.65,2.263Z" style="fill:#010101;fill-rule:nonzero;"/><path d="M379.384,36.196c-3.019,15.662 -2.276,32.572 -2.226,48.498c0.053,16.351 0.441,32.684 1.023,49.023c1.166,32.721 2.699,65.425 3.81,98.148c1.087,32.063 0.208,64.023 0.369,96.079c0.151,30.002 2.333,59.947 2.553,89.948c0.13,17.853 -0.312,35.588 -2.745,53.287c-0.791,5.754 7.868,6.291 11.37,5.469c5.088,-1.196 10.859,-5.051 11.177,-10.758c1.613,-28.979 0.201,-57.982 -1.027,-86.943c-1.281,-30.244 -1.721,-60.287 -1.465,-90.551c0.553,-65.348 -4.908,-130.611 -8.378,-195.823c-0.516,-9.699 -0.988,-19.401 -1.437,-29.104c-0.441,-9.575 -0.114,-19.417 -1.84,-28.845c-0.976,-5.332 -10.351,-2.751 -11.184,1.572Z" style="fill:#010101;fill-rule:nonzero;"/><path d="M12.147,51.635c0.546,-2.869 1.078,-5.801 1.794,-8.63c0.798,-3.154 1.829,-4.521 3.338,-6.976c0.68,-1.106 1.486,-2.131 2.302,-3.139c1.356,-1.676 -1.151,1.277 0.271,-0.345c0.424,-0.483 0.878,-0.938 1.331,-1.394c0.46,-0.463 0.948,-0.898 1.435,-1.333c1.694,-1.514 -1.598,1.21 0.215,-0.183c1.268,-0.975 2.624,-1.83 3.982,-2.671c0.447,-0.278 2.586,-1.469 0.159,-0.153c0.64,-0.346 1.292,-0.666 1.945,-0.986c1.353,-0.664 2.741,-1.25 4.137,-1.815c0.709,-0.286 5.188,-1.826 2.645,-1.003c1.835,-0.594 3.696,-1.102 5.563,-1.584c3.403,-0.877 6.853,-1.589 10.31,-2.215c1.818,-0.329 3.645,-0.609 5.473,-0.877c-2.066,0.303 1.033,-0.121 1.178,-0.139c1.27,-0.16 2.542,-0.299 3.814,-0.435c16.91,-1.806 33.983,-1.667 50.954,-1.002c16.54,0.648 29.422,1.511 45.949,2.665c15.936,1.113 31.695,1.421 47.673,1.586c31.469,0.327 62.947,1.441 94.419,1.246c8.442,-0.053 16.876,-0.566 25.316,-0.714c9.215,-0.16 15.296,-0.105 24.267,1.759c6.31,1.311 11.949,3.924 16.62,9.627c1.459,1.78 3.366,6.063 4.419,9.166c0.713,2.099 1.424,4.051 2.307,6.088c0.508,1.172 1.512,2.258 2.355,3.199c1.045,1.164 1.173,2.706 1.537,4.209c1.246,5.133 10.695,0.507 11.663,-2.773c1.546,-5.244 4.749,-10.147 4.219,-15.826c-0.427,-4.563 -1.993,-9.186 -4.462,-13.025c-4.54,-7.064 -11.34,-11.887 -19.215,-14.656c-17.303,-6.082 -36.327,-4.57 -54.331,-3.9c-29.22,1.086 -58.584,-0.193 -87.812,-0.566c-13.156,-0.168 -26.333,0.033 -39.484,-0.287c-2.456,-0.061 -4.911,-0.177 -7.364,-0.304c-0.704,-0.036 -5.062,-0.289 -2.358,-0.126c-1.772,-0.106 -3.544,-0.221 -5.316,-0.336c-33.129,-2.154 -66.331,-4.678 -99.509,-1.872c-15.897,1.345 -32.064,3.874 -46.77,10.333c-11.433,5.021 -23.9,13.813 -26.328,26.913c-0.917,4.948 -0.429,10.213 1.7,14.771c1.711,3.669 9.022,1.051 9.659,-2.297Z" style="fill:#010101;fill-rule:nonzero;"/><path d="M22.128,102.975c27.413,3.73 55.765,2.139 83.356,1.688c28.897,-0.472 57.792,-1.096 86.688,-1.604c56.55,-0.993 113.106,-1.011 169.661,-0.3c4.336,0.055 9.751,-3.056 11.156,-7.308c1.498,-4.535 -2.88,-6.484 -6.598,-6.544c-5.088,-0.082 -9.275,0.425 -13.985,2.478c-3.723,1.622 -7.421,6.284 -2.946,9.232c3.786,2.494 7.958,2.212 12.373,2.142c4.362,-0.069 9.723,-2.97 11.156,-7.308c1.473,-4.459 -2.854,-6.591 -6.598,-6.544c-56.063,0.699 -112.121,0.606 -168.181,1.76c-28.271,0.581 -56.54,1.283 -84.812,1.859c-29.183,0.594 -58.825,-0.129 -87.828,3.433c-2.04,0.251 -4.081,1.034 -5.26,2.832c-1.161,1.777 -0.369,3.887 1.818,4.184Z" style="fill:#010101;fill-rule:nonzero;"/><path d="M294.446,45.612c-0.892,0.221 -1.576,0.011 -2.553,0.232c-0.889,0.201 -1.668,0.041 0.235,0.26c-0.913,-0.105 -1.734,-0.02 -2.615,0.227c-3.532,0.988 -6.593,3.513 -8.838,6.336c-3.359,4.224 -3.096,9.246 -1.619,14.136c2.017,6.681 9.395,8.772 15.545,7.016c6.769,-1.934 12.259,-6.556 16.381,-12.146c2.807,-3.808 5.806,-9.769 3.669,-14.536c-1.705,-3.806 -5.975,-4.685 -9.699,-4.896c-6.35,-0.361 -14.347,2.209 -16.987,8.267c-0.775,1.78 0.37,3.265 1.794,4.135c-1.958,-1.196 -0.139,-0.056 0.526,0.386c0.784,0.521 3.015,0.713 3.846,0.66c1.487,-0.095 2.799,-0.43 4.21,-0.791c0.734,-0.188 1.479,-0.322 2.225,-0.455c-2.993,0.534 -0.495,0.084 0.342,0.088c-2.7,-0.011 -1.014,-0.088 -0.242,0.093c-2.109,-0.494 -1.441,-0.472 -0.879,-0.237c0.457,0.189 1.207,0.75 -0.654,-0.506c0.287,0.194 0.527,0.449 0.741,0.72c-1.291,-1.631 -0.482,-0.719 -0.269,0.004c-0.589,-1.988 -0.156,-0.858 -0.135,-0.173c0.012,0.408 -0.032,0.817 -0.088,1.221c0.311,-2.271 0.063,-0.557 -0.103,0.012c-0.16,0.552 -0.37,1.088 -0.593,1.616c-0.736,1.749 0.654,-1.194 -0.069,0.151c-0.262,0.488 -0.551,0.961 -0.847,1.428c-0.305,0.48 -0.633,0.945 -0.969,1.404c-0.17,0.232 -0.347,0.459 -0.523,0.686c-0.711,0.912 1.344,-1.563 0.237,-0.295c-0.754,0.865 -1.577,1.666 -2.445,2.416c-0.942,0.813 1.638,-1.291 0.658,-0.532c-0.217,0.168 -0.44,0.326 -0.664,0.484c-0.668,0.474 -2.855,1.609 0.036,0.094c-0.441,0.231 -0.902,0.425 -1.368,0.601c2.877,-1.083 1.197,-0.38 0.382,-0.229c3.49,-0.644 -1.336,-0.322 1.871,-0.083c-0.217,-0.017 -0.432,-0.057 -0.645,-0.096c-0.921,-0.172 1.713,0.631 0.464,0.135c-0.208,-0.083 -0.404,-0.19 -0.601,-0.297c-0.836,-0.454 1.187,0.861 0.412,0.27c-0.402,-0.308 -0.748,-0.683 -1.074,-1.067c-0.667,-0.786 0.706,1.092 0.116,0.189c-0.168,-0.256 -0.313,-0.526 -0.458,-0.795c-0.385,-0.711 -0.72,-1.454 -1.023,-2.202c-0.663,-1.635 -1.131,-3.261 -1.056,-4.804c0.014,-0.288 0.493,-1.414 0.7,-1.767c0.604,-1.033 1.422,-1.957 1.982,-3.005c0.349,-0.649 0.563,-1.139 0.541,-1.886c-0.162,0.494 -0.324,0.988 -0.486,1.482c0.238,-0.351 0.577,-0.616 0.813,-0.975c1.081,-1.649 -0.705,0.021 0.303,-0.45c1.717,-0.802 1.686,-3.078 -0.527,-2.526Z" style="fill:#010101;fill-rule:nonzero;"/><path d="M348.913,42.642c-1.91,-0.965 -5.161,-0.449 -7.117,0.113c-3.155,0.907 -6.368,2.234 -8.974,4.262c-5.288,4.114 -7.551,9.452 -5.402,15.935c2.955,8.918 13.431,9.002 20.778,6.535c7.154,-2.402 13.485,-8.105 16.588,-14.953c1.192,-2.629 1.421,-6.057 0.105,-8.684c-1.848,-3.693 -5.781,-5.285 -9.568,-6.191c-5.259,-1.259 -11.092,-0.31 -16.066,1.551c-4.289,1.604 -7.643,8.029 -1.467,9.486c3.504,0.828 7.166,0.615 10.658,1.546c-2.14,-0.57 -0.238,-0.013 0.284,0.238c1.388,0.668 -1.021,-0.974 0.352,0.264c1.16,1.045 -0.167,-0.452 0.069,-0.063c0.317,0.521 0.695,2.182 0.258,0.074c0.082,0.396 0.092,0.806 0.088,1.209c-0.021,1.778 0.334,-1.17 -0.029,0.207c-0.117,0.445 -0.287,0.875 -0.465,1.299c-0.46,1.093 0.823,-1.58 0.251,-0.516c-0.144,0.266 -0.304,0.521 -0.463,0.778c-0.275,0.442 -0.586,0.861 -0.903,1.274c-0.8,1.045 1.27,-1.477 0.387,-0.479c-0.219,0.247 -0.449,0.482 -0.68,0.719c-0.39,0.398 -0.806,0.771 -1.227,1.137c-1.06,0.922 1.674,-1.309 0.553,-0.454c-0.27,0.205 -0.549,0.397 -0.828,0.59c-0.463,0.317 -0.946,0.605 -1.434,0.883c2.739,-1.56 0.852,-0.482 0.147,-0.179c-2.061,0.888 1.146,-0.313 0.249,-0.055c-0.304,0.087 -0.613,0.153 -0.922,0.219c-1.308,0.278 2.104,-0.261 0.782,-0.096c-0.505,0.063 -1.013,0.075 -1.521,0.066c2.521,0.044 0.482,-0.016 -0.235,-0.203c2.073,0.543 0.428,0.072 -0.107,-0.209c-1.016,-0.533 1.115,0.829 0.172,0.129c-0.262,-0.195 -0.502,-0.421 -0.74,-0.645c-0.269,-0.251 -1.418,-1.75 -0.561,-0.51c-0.261,-0.373 -0.522,-0.746 -0.783,-1.119c0.409,0.595 0.45,0.643 0.124,0.143c-0.226,-0.354 -0.419,-0.728 -0.613,-1.099c-0.845,-1.616 -0.882,-2.969 -0.546,-3.589c0.748,-1.377 2.033,-2.38 3.654,-3.416c1.723,-1.1 3.72,-2.039 5.234,-3.406c0.879,-0.793 1.112,-2.187 -0.082,-2.791Z" style="fill:#010101;fill-rule:nonzero;"/><path d="M40.685,47c18.951,3.804 39.29,1.394 58.468,0.161c19.952,-1.282 39.893,-2.843 59.89,-3.231c3.447,-0.067 7.675,-2.337 8.809,-5.771c1.132,-3.424 -2.223,-5.34 -5.208,-5.166c-19.621,1.137 -39.172,3.271 -58.729,5.171c-20.765,2.019 -41.881,2.716 -62.414,6.344c-1.13,0.2 -2.653,2.122 -0.816,2.492Z" style="fill:#010101;fill-rule:nonzero;"/><path d="M44.352,47.097c-1.028,3.354 -1.471,6.655 -1.789,10.144c-0.318,3.506 0.379,7.344 -0.184,10.769c-0.384,2.336 0.58,4.389 3.221,4.673c6.262,0.672 13.12,-1.571 19.414,-2.101c7.47,-0.63 14.984,-0.691 22.475,-0.692c11.953,-0.003 23.906,0.263 35.85,-0.333c7.827,-0.39 15.64,-1.038 23.477,-1.23c2.838,-0.07 5.855,1.131 9.807,0.203c0.719,-0.239 1.438,-0.479 2.155,-0.718c-1.501,0.444 -1.868,0.584 -1.104,0.418c5.851,-1.165 -2.117,0.145 -2.75,0.07c2.762,0.324 6.028,-0.599 7.956,-2.726c2.313,-2.554 3.084,-6.65 -0.707,-8.402c-3.113,-1.438 -7.308,-0.888 -10.605,-0.556c-7.845,0.79 -15.832,1.004 -23.705,1.558c-11.623,0.815 -23.287,0.775 -34.932,0.891c-7.541,0.075 -15.075,0.295 -22.595,0.881c-6.677,0.52 -13.199,2.084 -19.828,2.74c1.587,0.753 3.173,1.507 4.759,2.26c-3.348,-5.411 -2.243,-13.371 -4.395,-19.397c-0.991,-2.777 -5.922,-0.404 -6.52,1.548Z" style="fill:#010101;fill-rule:nonzero;"/><path d="M158.459,39.139c-2.479,3.356 -2.908,7.609 -3.443,11.633c-0.521,3.917 -1.713,7.756 -2.146,11.654c-0.325,2.926 3.468,3.996 5.629,3.904c3.51,-0.148 8.024,-2.354 9.121,-5.975c1.055,-3.482 0.219,-7.697 -0.113,-11.252c-0.35,-3.74 -0.494,-8.627 -3.493,-11.311c-1.655,-1.479 -4.442,-0.16 -5.555,1.347Z" style="fill:#010101;fill-rule:nonzero;"/><path d="M240.467,157.764c-6.756,-2.018 -13.424,-3.965 -20.434,-4.83c-7.589,-0.938 -15.168,-1.203 -22.809,-1.078c-13.844,0.227 -27.956,1.996 -41.35,5.531c-19.031,5.024 -36.954,14.438 -50.551,28.832c-13.271,14.051 -21.303,31.965 -26.02,50.521c-5.02,19.748 -7.776,41.449 -5.848,61.805c2.977,31.41 20.044,59.139 45.559,77.363c25.692,18.351 57.316,26.885 88.689,26.833c31.848,-0.053 63.645,-10.087 88.358,-30.397c12.214,-10.038 21.637,-22.979 28.304,-37.244c11.251,-24.076 18.182,-52.64 16.051,-79.265c-2.308,-28.848 -19.654,-52.373 -41.61,-70.051c-19.829,-15.965 -45.572,-30.167 -71.63,-30.115c-5.18,0.011 -13.66,9.016 -5.182,10.556c20.987,3.813 40.905,12.987 58.053,25.563c18.268,13.397 34.438,31.164 41.069,53.205c8.235,27.373 0.066,58.225 -9.96,83.958c-5.563,14.277 -13.782,26.151 -25.047,36.128c-9.714,8.604 -23.169,15.561 -35.056,19.32c-14.698,4.648 -28.479,6.264 -43.904,5.945c-29.177,-0.6 -59.643,-10.607 -82.54,-29.387c-24.618,-20.189 -37.324,-49.82 -36.551,-81.482c0.92,-37.641 10.159,-81.008 44.298,-102.345c11.761,-7.352 25.505,-11.155 39.071,-13.398c21.768,-3.598 44.67,-3.699 66.646,-2.319c1.93,0.12 5.612,-2.687 2.394,-3.649Z" style="fill:#010101;fill-rule:nonzero;"/><path d="M117.26,282.756c-1.329,8.361 -2.322,15.252 -0.363,23.629c1.648,7.051 4.978,13.249 9.141,19.115c8.253,11.628 20.763,19.882 33.788,25.274c29.207,12.092 63.741,11.018 92.825,-0.777c14.392,-5.836 27.523,-14.961 37.39,-26.991c4.88,-5.951 8.704,-12.592 11.606,-19.715c1.81,-4.438 2.457,-9.031 3.385,-13.708c1.044,-5.265 1.572,-10.386 -4.966,-11.458c-3.368,-0.553 -6.917,1.404 -8.302,4.469c-0.448,0.994 -2.186,3.021 -1.959,5.404c0.242,2.541 0.091,5.289 -0.33,7.799c-0.725,4.314 -2.252,8.311 -4.087,12.266c-2.861,6.167 -7.106,11.733 -11.847,16.539c-9.853,9.988 -22.654,16.41 -35.953,20.131c-27.823,7.784 -61.295,5.326 -85.708,-11.083c-8.265,-5.556 -15.444,-12.868 -20.356,-21.552c-2.54,-4.489 -4.653,-9.186 -6.202,-14.107c-1.647,-5.231 -3.99,-10.582 -4.651,-16.035c-0.227,-1.872 -3.198,-0.543 -3.411,0.8Z" style="fill:#010101;fill-rule:nonzero;"/><path d="M115.344,271.301c-0.43,22.066 29.197,33.174 46.848,36.521c11.522,2.185 23.388,1.832 34.671,-1.391c11.541,-3.296 22.081,-9.355 32.351,-15.416c2.483,-1.466 4.952,-2.953 7.426,-4.435c-2.144,1.284 -0.089,0.127 0.518,-0.123c2.819,-1.159 2.76,-1.058 5.612,-1.93c6.501,-1.987 13.133,-3.566 19.8,-4.884c6.979,-1.379 14.047,-2.341 21.168,-2.449c4.64,-0.07 10.19,0.293 13.017,2.969c1.901,1.8 1.134,5.014 -0.188,8.092c2.535,-1.661 5.07,-3.321 7.605,-4.982c-0.139,0 -0.278,0.001 -0.417,0.001c-6.083,0.006 -11.714,9.434 -3.108,9.441c0.139,0 0.277,0.001 0.416,0.001c3.18,0.003 6.361,-2.104 7.605,-4.982c13.369,-30.921 -48.297,-16.724 -60.384,-13.394c-5.062,1.395 -10.21,2.882 -15.03,4.984c-9.35,4.076 -17.604,10.771 -26.839,15.225c-22.28,10.745 -46.004,6.289 -67.704,-3.829c-9.537,-4.446 -16.392,-10.895 -21.484,-20.044c-0.418,-0.749 -1.868,-0.139 -1.883,0.625Z" style="fill:#010101;fill-rule:nonzero;"/><path d="M125.131,292.963c-0.271,2.248 -1.404,3.896 -2.429,5.806c-1.145,2.132 0.866,3.519 2.943,2.906c2.71,-0.8 4.447,-2.083 6.464,-4.064c-1.941,0.096 -3.884,0.191 -5.825,0.286c0.11,0.264 -2.614,3.609 -2.844,4.347c-1.048,3.364 3.854,2.551 5.392,1.652c2.836,-1.657 5.271,-3.854 8.076,-5.551c-1.572,-1.054 -3.145,-2.108 -4.718,-3.163c-2.656,3.037 -4.556,6.265 -6.296,9.891c-1.093,2.276 2.286,2.998 3.75,2.602c1.762,-0.477 4.738,-2.646 5.322,-2.804c-1.136,-1.12 -2.271,-2.241 -3.406,-3.362c-1.881,2.352 -3.096,5.093 -4.387,7.795c-1.347,2.816 3.36,3.076 4.834,2.294c3.592,-1.909 6.815,-3.933 9.746,-6.782c-1.885,-0.873 -3.771,-1.748 -5.656,-2.621c-1.95,2.301 -3.418,6.104 -5.879,7.802c-3.83,2.642 -0.613,6.298 3.135,4.459c3.065,-1.504 6.275,-2.667 9.35,-4.15c-1.352,-1.312 -2.703,-2.622 -4.056,-3.934c-2.434,2.779 -4.396,5.902 -6.091,9.179c-1.882,3.639 2.275,4.209 4.871,3.322c4.647,-1.589 8.998,-3.404 13.111,-6.119c4.41,-2.911 0.67,-6.883 -3.508,-4.988c-6.166,2.797 -10.902,-5.92 -13.081,-10.373c-2.731,1.485 -5.463,2.971 -8.194,4.455c9.137,10.58 24.371,9.166 36.563,13.279c3.538,1.193 11.424,-4.289 6.449,-6.328c-6.532,-2.676 -13.383,-4.425 -19.918,-7.092c-3.039,-1.24 -10.414,2.102 -7.306,5.9c6.788,8.297 18.559,10.609 28.319,13.552c1.176,-2.394 2.35,-4.786 3.525,-7.18c-12.029,-0.166 -23.87,-2.72 -35.91,-2.886c-2.889,-0.039 -9.114,4.67 -4.592,7.004c11.107,5.732 23.217,8.687 35.563,10.238c2.507,0.314 5.337,-0.77 6.755,-2.932c1.24,-1.892 0.39,-4.106 -1.925,-4.436c-10.274,-1.458 -20.331,-4.051 -30.572,-5.693c-3.047,-0.488 -9.854,2.881 -6.759,6.613c7.641,9.212 19.601,13.327 31.116,14.989c3.336,0.481 11.035,-4.218 5.985,-7.216c-9.77,-5.797 -20.375,-9.956 -31.646,-11.61c-2.796,-0.41 -10.361,3.097 -6.835,6.688c14.147,14.403 34.915,14.903 53.765,16.406c2.286,0.183 4.522,-0.442 6.197,-2.088c1.008,-0.99 2.348,-3.503 0.68,-4.642c-9.412,-6.424 -19.695,-9.259 -31.05,-9.425c-3.834,-0.056 -9.938,6.835 -3.785,7.71c9.672,1.374 19.414,1.491 29.166,1.499c3.308,0.003 9.343,-4.607 4.864,-7.418c-7.171,-4.501 -14.652,-8.378 -22.61,-11.292c-1.183,2.42 -2.365,4.839 -3.548,7.259c9.536,-2.695 19.514,-2.835 29.279,-4.215c3.77,-0.532 7.801,-6.155 2.489,-7.616c-10.481,-2.882 -21.283,-1.477 -31.857,0.098c-3.413,0.509 -8.192,6.834 -2.501,7.649c9.826,1.407 19.391,1.294 29.207,-0.1c3.408,-0.484 8.238,-7.001 2.51,-7.679c-11.549,-1.368 -23.038,-0.186 -34.512,1.316c-2.303,0.301 -4.592,1.154 -5.927,3.191c-0.915,1.395 -0.975,3.751 0.959,4.384c9.42,3.084 19.126,3.231 28.952,3.241c-0.479,-2.215 -0.958,-4.43 -1.438,-6.645c-8.789,5.937 -20.534,8.729 -25.851,18.749c-1.105,2.084 -0.591,4.376 2.063,4.753c10.975,1.562 22.129,1.504 33.19,1.529c3.978,0.01 10.396,-7.282 3.953,-8.053c-11.961,-1.431 -23.936,-2.745 -35.88,-4.309c-2.857,-0.375 -9.865,2.271 -7.94,6.355c5.701,12.101 21.145,14.05 33.021,13.659c12.809,-0.421 27.677,-3.911 37.42,-12.707c1.654,-1.493 2.313,-4.473 -0.163,-5.548c-14.113,-6.129 -30.47,-2.17 -42.562,6.635c-2.463,1.794 -4.16,6.078 0.184,6.777c17.549,2.822 34.088,-7.591 48.082,-16.846c2.463,-1.629 4.161,-6.293 -0.183,-6.768c-11.879,-1.298 -23.221,1.33 -34.642,4.35c0.515,2.459 1.028,4.918 1.543,7.377c8.427,-3.082 16.37,-7.251 23.965,-12.009c2.615,-1.638 4.041,-6.188 -0.184,-6.767c-9.854,-1.349 -18.911,1.596 -28.104,4.83c-5.527,1.945 -4.683,8.593 1.543,7.377c10.305,-2.014 19.746,-6.771 27.848,-13.381c3.164,-2.58 0.882,-5.979 -2.583,-5.953c-11.132,0.083 -21.891,1.837 -32.133,6.315c-5.11,2.234 -4.845,9.106 1.544,7.384c12.103,-3.264 23.906,-7.518 34.736,-13.897c3.739,-2.203 3.174,-6.94 -1.482,-6.858c-11.119,0.197 -21.63,3.629 -30.822,9.866c-4.574,3.104 -2.197,7.529 2.893,6.666c10.328,-1.752 19.925,-6.05 29.401,-10.351c2.806,-1.272 6.552,-6.85 1.163,-7.522c-11.073,-1.382 -22.469,1.292 -30.578,9.278c-2.109,2.077 -1.998,5.293 1.293,5.9c14.513,2.678 27.742,-2.77 41.307,-7.156c-0.518,-2.477 -1.036,-4.955 -1.554,-7.432c-17.907,6.512 -38.303,19.716 -46.434,37.539c-0.821,1.802 0.872,3.755 2.667,3.868c18.803,1.191 34.836,-8.993 50.785,-17.51c3.73,-1.992 6.197,-7.798 -0.141,-7.7c-15.693,0.239 -37.523,8.472 -41.364,25.575c-0.485,2.163 0.646,3.366 2.681,3.89c18.24,4.695 40.324,-6.972 51.964,-20.592c1.85,-2.164 2.254,-5.389 -1.31,-5.98c-18.217,-3.026 -42.229,8.619 -48.013,26.911c-0.625,1.977 0.727,3.599 2.681,3.89c11.424,1.702 23.027,-2.901 32.81,-8.413c10.194,-5.743 19.999,-13.32 26.659,-23.063c1.352,-1.978 0.476,-4.796 -2.157,-4.969c-19.243,-1.264 -40.956,14.16 -46.696,32.557c-0.795,2.545 1.652,4.25 4.01,3.979c18.263,-2.101 39.714,-13.688 48.844,-30.154c1.256,-2.264 0.531,-4.463 -2.161,-4.979c-15.599,-2.993 -32.029,9.204 -36.064,24.106c-0.733,2.711 1.607,4.044 4.019,3.986c20.908,-0.499 47.572,-19.963 48.211,-42.181c0.084,-2.945 -3.645,-3 -5.614,-2.7c-14.503,2.21 -24.487,14.56 -27.915,28.202c-0.843,3.354 2.738,4.382 5.385,3.737c16.823,-4.098 29.981,-19.124 32.025,-36.262c0.339,-2.844 -3.772,-2.97 -5.502,-2.646c-12.756,2.386 -22.826,12.272 -27.854,23.891c-1.471,3.398 3.194,4.066 5.324,3.694c14.818,-2.588 25.895,-16.945 29.177,-30.937c0.584,-2.49 -1.464,-4.163 -3.917,-3.886c-18.325,2.072 -39.816,13.694 -45.218,32.536c-0.968,3.375 2.806,4.222 5.319,3.691c17.236,-3.637 35.74,-16.334 41.175,-33.751c0.612,-1.962 -0.715,-3.513 -2.636,-3.823c-10.328,-1.672 -20.42,2.394 -29.295,7.299c-9.3,5.142 -18.59,13.079 -23.4,22.707c-1.008,2.018 -0.72,4.703 2.125,4.898c19.192,1.316 43.383,-13.788 49.257,-32.493c0.584,-1.86 -0.685,-3.7 -2.657,-3.854c-10.808,-0.846 -21.508,3.705 -30.801,8.796c-9.23,5.057 -19.352,11.812 -24.601,21.241c-1.63,2.929 0.332,5.037 3.442,4.998c9.044,-0.117 15.466,-3.04 20.825,-10.379c1.625,-2.227 0.2,-4.326 -2.135,-4.919c-18.845,-4.786 -38.466,9.992 -45.276,26.871c-1.01,2.501 1.808,4.18 3.965,3.935c17.877,-2.035 38.469,-12.518 47.464,-28.703c1.167,-2.1 0.606,-4.639 -2.146,-4.944c-12.125,-1.35 -23.75,1.345 -34.824,6.235c-5.404,2.387 -4.903,8.607 1.571,7.515c10.679,-1.801 20.59,-6.391 29.47,-12.504c2.433,-1.675 4.321,-6.471 -0.188,-6.921c-13.286,-1.326 -25.473,4.23 -37.521,9.063c1.024,2.359 2.048,4.719 3.072,7.078c15.104,-7.148 31.265,-11.671 46.575,-18.334c5.214,-2.269 4.912,-9.527 -1.581,-7.562c-9.316,2.82 -18.633,5.642 -27.949,8.463c-2.354,0.713 -5.581,2.423 -5.544,5.336c0.035,2.823 3.571,3.211 5.64,2.713c11.913,-2.87 23.608,-6.841 35.827,-8.263c0.446,-2.747 0.894,-5.493 1.341,-8.24c-8.413,1.365 -16.599,3.847 -25.171,4.005c-0.449,2.762 -0.898,5.522 -1.349,8.284c7.734,-1.573 15.188,-4.299 22.772,-6.438c7.038,-1.983 15.617,-4.478 22.479,-0.784c-0.525,-1.21 -1.05,-2.42 -1.575,-3.63c-3.593,8.271 -10.568,14.901 -18.658,18.748c-6.546,3.112 -3.519,10.289 3.1,7.143c11.63,-5.53 21.442,-14.424 26.592,-26.365c0.649,-1.506 -0.278,-2.937 -1.575,-3.63c-7.609,-4.066 -16.71,-2.813 -24.789,-1.063c-9.631,2.086 -18.785,5.951 -28.44,7.938c-4.771,0.982 -8.43,8.432 -1.349,8.284c9.557,-0.2 18.683,-2.935 28.06,-4.452c4.88,-0.791 8.192,-9.035 1.341,-8.24c-13.233,1.537 -25.798,5.551 -38.7,8.655c0.032,2.683 0.063,5.366 0.096,8.049c9.316,-2.819 18.632,-5.638 27.949,-8.455c-0.527,-2.521 -1.054,-5.041 -1.581,-7.562c-15.313,6.658 -31.475,11.177 -46.581,18.322c-6.526,3.086 -3.641,9.769 3.072,7.078c9.062,-3.631 18.969,-8.851 29.019,-7.859c-0.063,-2.307 -0.125,-4.613 -0.188,-6.921c-7.267,5.014 -15.023,8.575 -23.761,10.059c0.524,2.505 1.048,5.01 1.571,7.515c8.382,-3.712 17.164,-6.062 26.391,-5.046c-0.715,-1.648 -1.43,-3.296 -2.146,-4.944c-6.595,11.901 -21.701,20.533 -35.044,22.051c1.321,1.312 2.644,2.623 3.965,3.935c4.523,-11.212 16.602,-21.454 29.247,-18.242c-0.712,-1.64 -1.423,-3.279 -2.135,-4.919c-2.552,3.494 -4.138,3.664 -8.456,3.719c1.146,1.666 2.295,3.332 3.442,4.998c3.995,-7.179 11.419,-12.043 18.331,-16.103c6.13,-3.601 14.714,-8.007 22.088,-7.435c-0.886,-1.285 -1.771,-2.569 -2.657,-3.854c-3.775,12.055 -20.281,24.78 -33.251,23.897c0.708,1.633 1.416,3.266 2.125,4.898c3.52,-7.057 9.421,-12.363 15.888,-16.705c6.167,-4.139 14.282,-8.088 21.909,-6.859c-0.879,-1.274 -1.758,-2.549 -2.636,-3.823c-4.085,13.128 -17.638,22.7 -30.685,25.46c1.773,1.23 3.547,2.461 5.319,3.691c3.815,-13.344 18.718,-22.364 31.966,-23.858c-1.306,-1.296 -2.611,-2.591 -3.917,-3.886c-2.178,9.272 -8.444,20.848 -18.729,22.642c1.775,1.231 3.55,2.462 5.324,3.694c3.187,-7.358 9.256,-14.067 17.393,-15.586c-1.834,-0.883 -3.668,-1.765 -5.502,-2.646c-1.359,11.364 -9.737,23.041 -21.209,25.77c1.795,1.246 3.59,2.491 5.385,3.737c2.322,-8.976 7.409,-18.224 17.335,-19.731c-1.872,-0.9 -3.743,-1.801 -5.614,-2.7c-0.46,15.665 -19.227,30.77 -34.301,31.132c1.34,1.328 2.679,2.657 4.019,3.986c2.304,-8.516 10.296,-17.196 19.826,-15.37c-0.721,-1.66 -1.441,-3.319 -2.161,-4.979c-6.709,12.105 -22.667,21.847 -36.324,23.42c1.336,1.326 2.673,2.652 4.01,3.979c3.585,-11.497 17.698,-24.676 30.491,-23.838c-0.719,-1.656 -1.438,-3.313 -2.157,-4.969c-5.116,7.488 -12.589,13.137 -20.262,17.8c-6.874,4.178 -15.82,8.347 -24.074,7.118c0.894,1.296 1.787,2.593 2.681,3.89c3.848,-12.175 19.582,-20.242 31.839,-18.206c-0.437,-1.993 -0.873,-3.986 -1.31,-5.98c-8.793,10.29 -24.605,19.653 -38.532,16.068c0.894,1.296 1.787,2.593 2.681,3.89c2.649,-11.798 17.046,-16.549 27.835,-16.722c-0.047,-2.566 -0.094,-5.133 -0.141,-7.7c-12.74,6.814 -27.225,17.271 -42.367,16.322c0.889,1.289 1.777,2.579 2.667,3.868c6.552,-14.395 24.429,-24.918 38.738,-30.133c5.388,-1.963 4.659,-9.445 -1.554,-7.432c-11.633,3.77 -23.404,9.24 -35.881,6.941c0.432,1.967 0.862,3.934 1.293,5.9c4.638,-4.569 11.057,-5.602 17.332,-4.819c0.388,-2.508 0.775,-5.016 1.163,-7.522c-8.584,3.896 -17.136,7.799 -26.493,9.388c0.965,2.222 1.929,4.444 2.893,6.666c6.809,-4.622 14.189,-6.901 22.408,-7.048c-0.494,-2.286 -0.988,-4.572 -1.482,-6.858c-9.028,5.322 -19.064,8.758 -29.143,11.478c0.515,2.461 1.029,4.923 1.544,7.384c8.478,-3.709 17.226,-4.892 26.422,-4.962c-0.861,-1.984 -1.722,-3.969 -2.583,-5.953c-5.77,4.708 -12.785,7.753 -20.059,9.174c0.515,2.459 1.028,4.918 1.543,7.377c6.411,-2.257 12.915,-4.57 19.803,-3.627c-0.062,-2.256 -0.123,-4.512 -0.184,-6.767c-6.756,4.231 -13.789,7.811 -21.281,10.55c-5.369,1.963 -4.715,9.031 1.543,7.377c9.558,-2.527 19.263,-5.206 29.237,-4.111c-0.062,-2.256 -0.122,-4.512 -0.183,-6.768c-10.603,7.008 -23.681,16.334 -37.09,14.174c0.062,2.259 0.123,4.518 0.184,6.777c8.527,-6.207 19.312,-8.988 29.302,-4.646c-0.055,-1.85 -0.109,-3.699 -0.163,-5.548c-6.757,6.097 -18.107,7.657 -26.791,8.087c-8.84,0.438 -20.939,-0.91 -25.201,-9.955c-2.646,2.119 -5.293,4.237 -7.94,6.355c11.972,1.567 23.989,2.773 35.983,4.152c1.317,-2.685 2.636,-5.369 3.953,-8.053c-10.237,0.021 -20.528,0.138 -30.688,-1.295c0.688,1.584 1.375,3.168 2.063,4.753c4.18,-7.902 15.034,-10.327 22.06,-15.083c3.421,-2.315 3.223,-6.646 -1.438,-6.645c-8.118,0.001 -16.47,0.146 -24.28,-2.399c-1.656,2.524 -3.312,5.05 -4.968,7.575c10.591,-1.396 21.356,-2.755 32.029,-1.504c0.836,-2.56 1.673,-5.119 2.51,-7.679c-8.036,1.15 -15.999,1.04 -24.025,-0.1c-0.834,2.55 -1.668,5.1 -2.501,7.649c8.925,-1.339 17.87,-2.318 26.699,0.098c0.83,-2.539 1.659,-5.078 2.489,-7.616c-9.79,1.394 -19.705,1.53 -29.277,4.246c-2.149,0.61 -8.381,5.497 -3.548,7.259c7.967,2.904 15.456,6.773 22.638,11.267c1.621,-2.473 3.243,-4.945 4.864,-7.418c-8.947,0.003 -17.854,-0.07 -26.73,-1.321c-1.262,2.57 -2.523,5.14 -3.785,7.71c8.905,0.12 17.444,2.452 24.847,7.493c2.292,-2.244 4.585,-4.486 6.877,-6.729c-17.387,-1.37 -36.943,-1.31 -50.04,-14.613c-2.278,2.229 -4.558,4.458 -6.835,6.688c10.604,1.546 20.384,5.508 29.572,10.948c1.995,-2.405 3.99,-4.811 5.985,-7.216c-10.322,-1.479 -20.561,-4.993 -27.44,-13.206c-2.253,2.205 -4.506,4.409 -6.759,6.613c10.264,1.605 20.348,4.162 30.645,5.584c1.61,-2.456 3.22,-4.911 4.83,-7.367c-11.726,-1.428 -23.065,-4.102 -33.638,-9.5c-1.531,2.335 -3.062,4.669 -4.592,7.004c12.041,0.122 23.901,2.633 35.951,2.755c3.721,0.038 9.06,-5.536 3.525,-7.18c-8.607,-2.557 -18.91,-4.565 -24.911,-11.827c-2.435,1.967 -4.87,3.934 -7.306,5.9c6.563,2.647 13.441,4.367 20.008,7.006c2.149,-2.109 4.3,-4.219 6.449,-6.328c-11.397,-3.761 -26.814,-2.421 -35.301,-12.096c-2.307,-2.629 -9.951,0.936 -8.194,4.455c4.823,9.659 13.016,17.319 24.181,12.186c-1.17,-1.663 -2.338,-3.326 -3.508,-4.988c-3.398,2.27 -7.027,3.753 -10.844,5.158c1.758,0.834 3.517,1.668 5.274,2.503c1.133,-2.356 2.473,-4.897 4.152,-6.92c2.652,-3.194 -0.834,-5.583 -4.056,-3.934c-3.04,1.556 -6.234,2.771 -9.283,4.307c1.045,1.486 2.09,2.973 3.135,4.459c3.448,-2.399 4.806,-5.986 7.43,-9.112c3.518,-4.189 -2.984,-5.241 -5.656,-2.621c-1.888,1.851 -3.899,3.245 -6.223,4.491c1.611,0.765 3.223,1.529 4.834,2.294c1.055,-2.23 2.067,-4.365 3.598,-6.303c1.896,-2.401 -1.405,-3.916 -3.406,-3.362c-1.77,0.488 -4.705,2.666 -5.322,2.837c1.25,0.867 2.5,1.734 3.75,2.602c1.208,-2.558 2.486,-4.874 4.349,-7.027c3.182,-3.681 -1.936,-4.865 -4.718,-3.163c-2.79,1.707 -5.135,3.985 -7.893,5.727c1.797,0.551 3.595,1.102 5.392,1.652c0.659,-2.513 3.926,-3.955 2.48,-6.931c-1.048,-2.159 -4.58,-1.032 -5.825,0.286c-0.465,0.57 -0.973,1.096 -1.524,1.576c1.087,0.754 2.173,1.508 3.261,2.263c1.266,-2.618 2.367,-4.721 2.578,-7.648c0.23,-3.166 -5.972,-1.196 -6.295,1.475Z" style="fill:#010101;fill-rule:nonzero;"/><path d="M240.796,316.992c-7.538,-3.889 -13.832,-5.142 -21.971,-1.957c-5.257,2.057 -17.055,11.002 -13.323,17.804c0.82,1.496 2.89,0.9 4.044,0.221c4.557,-2.686 7.1,-7.656 11.427,-10.666c4.313,-2.999 10.935,-3.145 15.704,-1.36c2.213,0.827 7.257,-2.423 4.119,-4.042Z" style="fill:#010101;fill-rule:nonzero;"/><path d="M122.782,255.297c-0.066,-11.09 4.408,-23.131 11.182,-31.79c6.539,-8.358 16.193,-14.158 25.839,-18.204c9.692,-4.065 20.258,-6.285 30.698,-7.216c5.098,-0.455 10.218,-0.48 15.33,-0.342c4.72,0.128 10.701,1.208 15.057,-0.998c1.196,-0.605 2.297,-1.538 1.962,-2.991c-0.919,-3.999 -9.706,-4.304 -12.847,-4.508c-5.928,-0.386 -11.836,-0.185 -17.746,0.396c-12.867,1.265 -25.555,4.456 -37.314,9.866c-10.818,4.978 -20.625,12.143 -27.508,21.95c-3.202,4.563 -5.566,9.834 -6.936,15.229c-1.703,6.71 -0.887,12.465 -0.029,19.15c0.153,1.195 2.318,0.46 2.312,-0.542Z" style="fill:#010101;fill-rule:nonzero;"/><path d="M30.877,483.688c-0.619,7.005 -0.535,14.041 -1.165,21.047c-0.108,1.204 1.479,1.824 2.44,1.692c23.447,-3.212 47.1,-2.031 70.68,-1.856c2.055,0.016 5.013,-1.679 5.029,-3.987c0.028,-3.92 0.031,-7.839 -0.16,-11.755c-0.125,-2.545 0,-5.603 -2.684,-6.767c-2.191,-0.95 -5.694,0.653 -5.882,3.176c-0.413,5.559 0.627,11.578 0.671,17.234c1.677,-1.329 3.353,-2.658 5.029,-3.987c-24.016,0.113 -48.118,-0.831 -71.904,3.15c1.093,0.525 2.185,1.051 3.276,1.576c-0.64,-6.822 -0.536,-13.679 -1.165,-20.5c-0.204,-2.214 -4.011,-0.75 -4.165,0.977Z" style="fill:#010101;fill-rule:nonzero;"/><path d="M302.442,483.277c-1.182,6.276 -0.264,12.737 -0.563,19.091c-0.083,1.748 2.379,2.135 3.61,1.736c21.412,-6.92 44.103,-3.358 66.165,-4.383c2.075,-0.096 5.08,-1.621 5.09,-4.036c0.03,-7.146 0.309,-14.522 -1.395,-21.512c-0.704,-2.892 -5.646,-0.769 -6.836,0.336c-1.817,1.687 -3.754,2.83 -4.8,5.146c-1.018,2.255 2.542,2.146 3.646,1.73c2.203,-0.829 4.343,-2.047 6.195,-3.497c-2.057,-0.356 -4.114,-0.713 -6.171,-1.069c0.836,6.946 1.172,13.779 1.207,20.777c1.697,-1.346 3.394,-2.69 5.09,-4.036c-23.146,1.235 -46.892,-2.165 -69.203,5.707c1.52,0.473 3.041,0.946 4.561,1.42c-0.526,-6.084 -1.55,-12.332 -3.021,-18.262c-0.37,-1.494 -3.367,-0.251 -3.575,0.852Z" style="fill:#010101;fill-rule:nonzero;"/><path d="M130.543,295.897c-0.507,-2.898 -1.49,-5.75 -1.875,-8.658c-0.816,-6.172 -10.922,-1.99 -11.471,2.691c-0.14,1.19 -0.397,2.366 -0.619,3.543c-0.455,2.412 0.643,4.159 3.164,4.592c0.866,0.148 1.74,0.176 2.617,0.184c-1.587,-0.754 -3.174,-1.508 -4.762,-2.262c7.912,13.027 22.836,18.184 37.103,20.898c14.729,2.803 29.882,2.625 44.814,2.646c3.492,0.005 7.824,-2.428 8.962,-5.87c1.193,-3.614 -2.303,-5.25 -5.3,-5.257c-8.729,-0.021 -17.72,-0.158 -26.087,-2.952c-2.922,3.523 -5.845,7.047 -8.768,10.57c14.745,2.004 29.508,1.499 43.738,-3.096c14.67,-4.736 27.932,-12.781 41.135,-20.576c6.479,-3.824 2.935,-10.84 -3.996,-9.209c-4.657,1.096 -9.461,1.374 -14.158,2.275c1.339,3.087 2.679,6.174 4.019,9.262c2.719,-1.73 5.999,-2.547 9.03,-3.577c-1.396,-3.217 -2.792,-6.434 -4.188,-9.65c-6.396,2.827 -12.345,6.495 -18.246,10.222c-6.28,3.965 -3.158,11.326 4.07,9.377c7.583,-2.045 13.275,-6.572 18.6,-12.18c3.39,-3.568 2.076,-9.232 -3.668,-8.454c-9.398,1.272 -16.262,5.924 -21.668,13.624c-4.299,6.123 -7.052,15.005 -14.076,18.686c-3.619,1.896 -7.738,2.767 -11.576,4.096c-4.567,1.581 -8.907,3.7 -12.888,6.457c-4.089,2.832 -9.707,7.787 -9.007,13.41c1.313,10.546 18.574,11.126 26.322,11.083c11.216,-0.062 26.228,-3.157 31.238,-14.521c0.809,-1.835 -0.251,-4.438 -2.198,-5.065c-15.094,-4.868 -37.11,-0.646 -46.168,13.429c-2.052,3.188 -0.531,6.29 3.062,7.057c16.129,3.443 37.774,-2.619 48.715,-15.277c4.58,-5.299 -1.46,-7.861 -6.313,-6.122c-11.863,4.253 -21.342,12.588 -34.715,9.679c1.021,2.353 2.041,4.704 3.062,7.057c3.815,-5.88 15.232,-7.003 21.355,-5.028c-0.732,-1.688 -1.465,-3.377 -2.198,-5.065c0.777,-1.761 -0.92,0.941 0.539,-0.761c-1.399,1.633 0.471,-0.191 -0.658,0.564c-0.805,0.48 -0.721,0.441 0.252,-0.116c-0.413,0.2 -0.832,0.387 -1.257,0.56c-1.146,0.487 0.799,-0.153 -1.393,0.453c-3.793,1.049 -6.54,1.197 -11.064,1.16c-2.528,-0.021 -7.353,-0.717 -9.317,-1.391c-1.832,-0.628 -2.405,-0.979 -3.08,-1.565c-1.148,-0.996 -0.101,0.137 -0.417,-0.522c-0.147,-0.311 0.016,-0.058 -0.104,0.543c0.286,-1.43 -0.781,1.134 0.086,-0.297c0.403,-0.668 -0.263,0.152 1.041,-1.057c-0.597,0.553 2.296,-1.57 2.563,-1.743c1.368,-0.883 2.916,-1.471 4.419,-2.082c6.587,-2.678 13.208,-4.043 19.254,-8.027c5.953,-3.925 10.261,-9.864 13.777,-15.947c1.594,-2.757 4.841,-11.032 8.553,-11.547c-1.223,-2.817 -2.445,-5.636 -3.668,-8.454c-2.072,2.195 -4.492,5.443 -7.537,6.281c1.357,3.125 2.714,6.252 4.07,9.377c4.688,-2.992 9.339,-5.966 14.426,-8.239c2.743,-1.226 6.783,-4.494 5.256,-8.015c-1.584,-3.649 -6.603,-2.613 -9.443,-1.636c-4.478,1.542 -8.737,3.075 -12.751,5.653c-6.421,4.124 -3.011,10.642 4.019,9.262c4.699,-0.922 9.497,-1.22 14.158,-2.338c-1.332,-3.069 -2.664,-6.139 -3.996,-9.209c-10.616,6.327 -21.191,12.754 -32.803,17.112c-11.84,4.444 -24.572,4.694 -36.971,3.056c-3.242,-0.43 -6.652,0.73 -8.99,3.028c-1.937,1.903 -3.43,6.341 0.223,7.542c10.639,3.498 21.605,3.992 32.724,3.974c1.221,-3.709 2.441,-7.418 3.662,-11.127c-14.31,0.038 -28.628,0.103 -42.781,-2.317c-7.384,-1.262 -14.54,-3.416 -21.042,-7.19c-2.717,-1.577 -5.068,-3.749 -7.142,-6.089c-1.172,-1.324 -1.91,-3.377 -3.567,-4.143c-1.842,-0.852 -3.861,-0.473 -5.768,-0.187c2.205,1.061 4.411,2.122 6.617,3.183c-0.303,-1.471 -0.641,-2.931 -0.826,-4.422c-3.545,1.539 -7.09,3.077 -10.636,4.616c2.195,2.169 4.368,4.406 6.478,6.661c1.539,1.641 6.456,-0.198 6.033,-2.623Z" style="fill:#010101;fill-rule:nonzero;"/><path d="M248.916,291.208c4.452,-3.682 11.97,-3.905 17.386,-5.107c3.579,-0.794 9.096,-7.238 2.74,-8.379c-8.362,-1.502 -15.281,1.499 -21.407,7.112c-1.547,1.417 -2.616,4.091 -0.848,5.788c1.94,1.861 4.999,1.2 7.219,0.391c2.548,-0.93 5.435,-0.895 8.055,-1.874c-1.746,-2.483 -3.491,-4.966 -5.237,-7.449c-9.821,7.729 -19.264,19.332 -22.974,31.437c-1.322,4.314 -1.21,10.138 3.909,11.819c8.249,2.71 17.28,-2.53 24.266,-6.36c-3.003,-2.013 -6.006,-4.025 -9.009,-6.038c-8.24,9.02 -20.12,14.224 -26.119,25.325c-1.431,2.648 -0.882,6.262 2.819,6.496c5.012,0.318 9.682,-0.107 14.535,-1.448c4.72,-1.305 9.297,-3.724 14.178,-4.406c-1.155,-2.664 -2.312,-5.328 -3.468,-7.992c-3.435,3.271 -7.275,5.232 -11.727,6.8c-2.733,0.963 -6.474,4.485 -5.067,7.728c1.522,3.507 6.371,2.536 9.104,1.577c5.515,-1.937 10.624,-4.74 16.011,-6.977c-2.459,-2.385 -4.917,-4.769 -7.376,-7.153c-1.604,1.892 -4.691,5.251 -5.743,6.065c-1.553,1.202 -0.785,0.469 0.244,0.193c1.218,-0.326 3.404,0.269 3.398,0.263c0.889,0.86 -0.164,-0.41 -0.396,-1.061c-0.403,-1.127 -0.201,-0.559 -0.364,-1.854c-0.288,-2.296 -0.229,-4.641 -0.14,-6.947c0.333,-8.695 2.719,-17.278 2.877,-25.947c0.042,-2.332 -1.99,-3.271 -3.869,-3.816c-12.535,-3.634 -27.092,3.159 -33.289,14.434c-2.699,4.911 2.031,7.881 6.693,6.608c6.503,-1.774 10.543,-5.015 14.584,-10.309c3.701,-4.851 -2.748,-7.585 -6.713,-6.628c-9.484,2.291 -24.355,11.451 -16.416,22.96c7.211,10.455 21.775,7.962 28.697,-1.511c3.117,-4.264 4.911,-11.541 3.255,-16.642c-1.985,-6.114 -10.971,-4.595 -15.336,-2.896c-10.071,3.919 -22.46,14.881 -22.995,26.409c-0.102,2.192 2.086,3.735 4.038,3.983c2.022,0.257 3.96,0.835 6.002,0.997c4.025,0.322 8.366,-1.104 10.683,-4.636c2.063,-3.146 0.512,-6.273 -3.044,-7.013c-16.949,-3.527 -36.265,1.478 -51.965,7.88c-3.427,1.397 -7.697,5.754 -4.546,9.41c6.796,7.886 19.564,9.295 29.275,9.18c10.93,-0.13 24.053,-3.726 30.27,-13.458c1.471,-2.304 1.311,-5.269 -1.425,-6.514c-11.815,-5.377 -24.854,-1.945 -34.124,6.688c-1.305,1.214 -3.096,4.07 -1.892,5.932c11.438,17.666 39.934,0.631 49.184,-11.323c1.389,-1.795 0.924,-4.354 -1.163,-5.319c-2.563,-1.184 -5.502,-0.174 -7.764,1.16c-4.605,2.717 -9.093,5.842 -13.848,8.282c-3.137,1.61 -8.635,4.599 -11.235,0.614c-0.631,1.978 -1.261,3.955 -1.892,5.932c3.564,-3.336 7.54,-3.269 11.876,-1.313c-0.475,-2.172 -0.95,-4.342 -1.425,-6.514c-0.874,1.379 -1.96,2.11 -3.706,2.67c-3.664,1.173 -7.454,1.39 -11.275,1.345c-5.979,-0.07 -13.401,-1.559 -17.474,-6.293c-1.516,3.137 -3.03,6.273 -4.546,9.41c12.071,-4.913 27.019,-8.839 40.035,-6.12c2.546,-3.883 5.093,-7.766 7.639,-11.648c-2.04,-0.165 -3.977,-0.744 -5.998,-1.003c1.346,1.328 2.692,2.655 4.038,3.983c0.202,-4.273 5.313,-8.845 8.48,-11.107c1.747,-1.247 0.629,-0.611 2.433,-1.411c-0.968,0.272 -1.011,0.29 -0.128,0.054c-0.742,0.193 -1.699,0.176 -2.414,-0.133c-1.32,-0.57 -0.853,-1.42 -0.882,0.502c-0.03,1.933 -0.724,3.912 -1.402,5.695c-0.413,1.087 -1.658,1.787 -0.193,0.713c0.528,-0.344 1.101,-0.586 1.714,-0.728c1.896,-0.55 -0.717,-0.243 0.862,-0.059c-0.869,-0.101 -2.071,-0.78 -3.466,-2.308c-0.421,-0.462 -0.637,-0.965 -1.021,-1.947c-0.093,-0.235 -0.114,-1.528 -0.184,-1.18c0.182,-0.915 -0.199,-0.259 0.581,-1.002c-0.968,0.922 1.996,-0.566 2.825,-0.77c-2.237,-2.21 -4.475,-4.419 -6.713,-6.628c-0.678,0.896 -1.212,1.635 -1.416,1.691c2.23,2.202 4.462,4.405 6.693,6.608c2.874,-5.275 6.887,-7.232 12.711,-5.566c-1.29,-1.272 -2.579,-2.544 -3.869,-3.816c-0.148,10.809 -3.57,21.332 -2.658,32.245c0.491,5.888 2.889,10.588 9.366,10.832c7.901,0.297 14.546,-6.882 19.168,-12.365c5.089,-6.038 -1.568,-9.584 -7.376,-7.153c-5.38,2.252 -10.48,5.071 -15.989,7.023c1.346,3.102 2.691,6.203 4.037,9.305c6.866,-2.441 13.01,-6.154 18.273,-11.2c5.037,-4.829 -0.249,-8.458 -5.354,-7.728c-7.797,1.115 -15.442,6.379 -23.4,5.881c0.94,2.165 1.88,4.33 2.819,6.496c5.304,-9.839 16.521,-14.605 23.881,-22.675c1.597,-1.752 3.078,-4.532 0.961,-6.563c-2.764,-2.651 -7.164,-1.016 -9.97,0.525c-2.177,1.196 -4.819,2.502 -6.844,3.098c-1.678,0.494 -0.808,0.248 -1.55,0.273c1.276,-0.043 0.917,0.014 1.415,0.407c-0.487,-0.386 0.185,0.652 -0.202,-0.585c0.331,1.057 0.12,-0.75 0.142,-1.076c0.07,-1.07 0.95,-3.375 1.605,-4.953c3.31,-7.973 9.312,-15.869 15.968,-21.346c1.675,-1.379 2.638,-4.277 0.874,-5.969c-1.966,-1.886 -5.195,-1.297 -7.444,-0.403c-2.524,1.004 -5.371,1.08 -7.945,2.126c2.124,2.06 4.247,4.119 6.371,6.179c2.048,-2.028 3.574,-3.112 6.593,-2.888c0.914,-2.793 1.827,-5.586 2.74,-8.379c-8.104,2.629 -18.191,3.808 -23.174,11.568c-2.58,4.02 4.046,3.315 5.887,1.794Z" style="fill:#010101;fill-rule:nonzero;"/></g></svg>