<?xml version="1.0" encoding="utf-8"?>
<!-- Generator: Adobe Illustrator 17.0.0, SVG Export Plug-In . SVG Version: 6.00 Build 0)  -->
<!DOCTYPE svg PUBLIC "-//W3C//DTD SVG 1.0//EN" "http://www.w3.org/TR/2001/REC-SVG-20010904/DTD/svg10.dtd">
<svg version="1.0" id="Layer_1" xmlns="http://www.w3.org/2000/svg" xmlns:xlink="http://www.w3.org/1999/xlink" x="0px" y="0px"
	 width="566.93px" height="566.93px" viewBox="0 0 566.93 566.93" enable-background="new 0 0 566.93 566.93" xml:space="preserve">
<path fill="#010101" d="M487.506,130.15c-17.854,1.69-35.844,3.073-53.74,4.17c-32.596,1.996-65.281,2.908-97.898,4.559
	c-33.127,1.676-66.271,2.327-99.432,2.968c-31.814,0.615-63.635,0.785-95.455,0.894c-15.977,0.054-31.947,0.542-47.922,0.791
	c-15.99,0.249-32.02,0.102-47.996,0.828c-1.989,0.09-4.11,2.256-5.004,4.394c-2.027,0.559-3.447,2.299-4.109,4.275
	c-3.633,10.853-3.199,22.657-2.258,33.908c1.082,12.954,3.545,25.729,5.189,38.616c1.648,12.904,2.174,25.86,4.178,38.744
	c2.096,13.455,5.262,26.765,9.598,39.674c17,50.601,59.348,88.75,106.66,111.182c45.977,21.8,97.699,27.629,148.008,23.514
	c25.344-2.072,51.668-5.882,75.572-14.811c17.026-6.359,33.226-15.077,48.228-25.459c1.136-0.295,2.125-1.05,2.854-2.006
	c6.474-4.619,12.722-9.539,18.698-14.722c20.799-18.044,36.838-40.232,48.449-65.146c11.885-25.496,18.508-53.098,23.84-80.594
	c3.025-15.603,5.207-31.01,6.467-46.871c1.15-14.473,3.049-30.453,0.311-44.858c-0.279-1.466-0.642-2.874-1.195-4.129
	c2.844-2.699,4.921-6.571,3.443-10.427c-1.313-3.423-4.937-4.322-8.23-3.681c-0.08,0.004-0.146,0.005-0.244,0.012
	c-0.885,0.062-1.77,0.086-2.654,0.115c-3.141,0.101-6.42,1.002-9.525,1.487C504.824,128.907,496.08,129.338,487.506,130.15z
	 M512.566,144.819c-0.355,1.615-0.243,3.179,0.507,4.461c-3.767,0.144-7.512,0.718-10.868,1.821
	c0.016-1.969,0.029-3.935,0.039-5.899c3.293-0.185,6.587-0.33,9.879-0.377C512.269,144.822,512.418,144.821,512.566,144.819z
	 M512.159,220.713c-2.22-3.293-5.364-5.72-9.113-7.963c0.413-0.528,0.846-1.038,1.324-1.511c1.248-1.305,3.645-1.523,5.313-1.806
	c1.395-0.236,2.825-0.391,4.25-0.577C513.51,212.863,512.948,216.835,512.159,220.713z M501.217,271.887
	c-0.777-2.073-1.688-4.125-2.641-6.196c-0.641-1.394-1.941-3.585-2.291-5.342c0.196-0.02,0.393-0.038,0.591-0.058
	c2.366-0.24,4.78,0.024,7.146,0.316c-0.511,2.166-1.032,4.329-1.57,6.488C502.052,268.696,501.64,270.293,501.217,271.887z
	 M491.117,302.775c-1.107-4.155-2.457-8.224-3.479-12.436c-0.014-0.057-0.023-0.145-0.032-0.243c2.56-0.622,5.522-0.49,8.259-0.338
	C494.399,294.136,492.821,298.477,491.117,302.775z M115.55,330.984c3.224,4.24,6.586,8.37,10.099,12.361
	c0.088,0.1,0.182,0.196,0.271,0.296c-8.112,2.366-14.874,7.478-21.261,12.895c-0.006-0.006-0.012-0.012-0.018-0.018
	C101.432,348.262,110.159,338.461,115.55,330.984z M63.788,290.284c-1.788-5.105-3.342-10.289-4.716-15.52
	c6.519-2.483,13.112-3.973,20.038-2.905c-3.563,8.724-9.437,16.085-13.049,24.592C65.277,294.408,64.513,292.355,63.788,290.284z
	 M42.803,162.407c2.211-0.369,4.583-0.686,6.271-0.268c-0.071,0.117-0.202,0.338-0.5,0.754c-0.719,1.002-1.545,1.933-2.346,2.868
	c-1.136,1.325-2.306,2.653-3.418,4.025C42.687,167.323,42.672,164.857,42.803,162.407z M84.343,276.902
	c2.867,6.691,6.001,13.291,9.411,19.756c-7.538,0.539-14.602,2.781-21.76,5.371C74.077,292.924,79.918,285.191,84.343,276.902z
	 M69.924,254.87c1.313-1.823,2.759-3.722,3.998-5.722c1.618,4.913,3.331,9.794,5.153,14.634c-5.975-0.34-11.852,0.81-17.569,2.75
	C63.911,262.374,67.308,258.501,69.924,254.87z M51.345,226.704c2.786-5.138,7.294-9.564,10.503-14.451
	c2.141,6.355,4.433,12.643,6.493,19.025c-5.043-0.854-11.384,0.004-16.422,0.851C51.738,230.32,51.546,228.511,51.345,226.704z
	 M54.727,187.45c0.96,4.388,2.126,8.746,3.4,13.047c-2.837-0.756-6.164-1.006-8.904-1.09
	C50.505,195.279,52.963,191.474,54.727,187.45z M52.691,175.128c-2.398-0.529-5.514-0.087-8.29,0.59
	c2.15-4.024,5.897-7.252,8.352-11.126C52.3,168.073,52.352,171.65,52.691,175.128z M49.957,181.041
	c1.195,1.09-0.889,4.891-1.354,5.944c-0.823,1.86-1.824,3.702-2.812,5.563c-0.521-3.001-1.02-6.006-1.473-9.019
	c-0.12-0.795-0.236-1.595-0.349-2.397C46.258,180.472,48.83,180.015,49.957,181.041z M48.187,205.951
	c3.519-0.012,8.106,0.256,8.971,2.112c0.512,1.097-3.668,5.369-4.305,6.155c-0.914,1.129-1.82,2.27-2.703,3.426
	C49.549,213.738,48.881,209.843,48.187,205.951z M54.53,253.763c-0.848-4.889-1.413-9.808-1.919-14.733
	c8.167-0.982,18.876-1.339,16.58,4.65c-1.936,5.045-6.232,9.536-9.363,13.863c-1.208,1.669-2.439,3.377-3.599,5.136
	C55.613,259.716,55.047,256.743,54.53,253.763z M93.478,304.687c-1.375,5.794-6.121,11.024-9.05,15.926
	c-1.358,2.274-2.41,4.649-3.059,7.085c-3.557-5.735-6.743-11.699-9.618-17.837C78.802,307.25,85.937,304.765,93.478,304.687z
	 M89.517,331.474c-0.306-5.258,2.939-9.846,5.923-14.417c1.858-2.844,3.592-5.696,4.871-8.714
	c3.192,5.361,6.576,10.606,10.162,15.702C103.046,325.08,96,327.743,89.517,331.474z M130.576,348.561
	c3.83,3.793,7.944,7.295,12.263,10.541c-5.299,2.727-9.707,7.107-13.62,11.842C129.472,363.473,129.997,356.019,130.576,348.561z
	 M123.136,351.419c-0.592,6.706-1.157,13.413-1.524,20.132c-4.348-3.494-8.569-7.15-12.666-10.95
	C113.329,356.967,117.895,353.554,123.136,351.419z M144.385,365.888c0.187,7.058-0.55,14.104-0.972,21.158
	c-4.131-2.578-8.176-5.289-12.125-8.13C134.953,373.94,139.098,368.731,144.385,365.888z M152.341,365.638
	c3.542,2.234,7.175,4.323,10.87,6.277c-4.216,3.876-7.85,8.343-11.822,12.452C151.752,378.122,152.356,371.883,152.341,365.638z
	 M303.42,406.435c-1.531-2.559-3.264-4.879-5.391-6.618c1.865-0.045,3.729-0.1,5.587-0.174c0.544-0.022,1.089-0.05,1.634-0.075
	C304.249,401.594,303.693,403.943,303.42,406.435z M276.018,410.225c-0.509-1.394-1.032-2.756-1.613-4.037
	c-0.967-2.127-2.167-4.634-3.739-6.768c3.428,0.188,6.854,0.316,10.275,0.399C278.384,402.355,276.92,406.146,276.018,410.225z
	 M249.949,407.426c-1.388-3.999-3.185-7.778-5.868-10.574c3.615,0.505,7.238,0.946,10.868,1.323
	C252.786,400.539,251.179,403.863,249.949,407.426z M224.284,402.722c-1.257-3.794-2.995-7.371-5.469-10.544
	c3.718,0.865,7.456,1.656,11.212,2.368C227.7,396.412,225.81,399.396,224.284,402.722z M201.577,399.096
	c-0.843-2.301-1.706-4.595-2.651-6.855c-1.003-2.4-2.235-5.017-4.139-6.887c4.322,1.464,8.69,2.808,13.097,4.035
	C205.686,392.61,203.456,395.773,201.577,399.096z M175.187,391.78c-0.797-5.327-1.877-10.572-3.577-15.691
	c0.823,0.385,1.646,0.769,2.473,1.142c4.6,2.074,9.278,3.983,14.017,5.748C183.584,383.545,178.949,387.65,175.187,391.78z
	 M175.174,402.334c1.67-1.972,10.041-14.093,13.363-10.715c2.035,2.068,2.977,5.386,3.979,8.023
	c1.469,3.875,2.793,7.805,4.197,11.705c-7.573-2.382-15.035-5.125-22.357-8.241C174.668,402.862,174.947,402.601,175.174,402.334z
	 M205.104,410.37c0.833-5.096,3.232-9.323,5.962-13.463c4.87,5.679,6.736,12.794,7.694,20.312
	c-5.251-1.158-10.464-2.479-15.632-3.957C204.151,412.432,204.941,411.362,205.104,410.37z M227.107,418.369
	c0.943-3.756,1.949-7.49,3.316-11.119c0.832-2.212,1.797-4.43,3.186-6.351c0.615-0.853,1.789-0.017,2.869,0.907
	c5.278,4.52,6.867,12.853,8.604,19.886c-6.084-0.742-12.142-1.675-18.16-2.81C226.997,418.711,227.064,418.54,227.107,418.369z
	 M256.961,410.969c0.686-2.408,1.607-4.727,2.768-6.943c0.9-1.721,0.801-1.745,2.16-0.558c5.667,4.948,6.954,13.308,9.983,20.263
	c-5.873-0.186-11.739-0.54-17.589-1.066C255.068,418.738,255.86,414.825,256.961,410.969z M289.891,405.029
	c4.168,1.819,6.674,7.288,8.613,11.067c1.218,2.371,2.331,4.797,3.569,7.155c-6.569,0.412-13.159,0.625-19.752,0.636
	C282.68,417.731,282.568,401.831,289.891,405.029z M311.664,410.846c-0.076-2.186-0.08-4.389,0.197-6.561
	c0.104-0.816,0.299-1.612,0.508-2.406c0.105-0.402,0.505-0.846,0.59-0.989c1.481-0.489,4.385,0.939,5.458,1.386
	c2.688,1.119,4.604,3.865,6.191,6.172c2.568,3.734,3.991,8.102,5.779,12.24c-6.07,0.753-12.146,1.351-18.174,1.837
	C312.144,418.628,311.802,414.74,311.664,410.846z M366.476,389.982c-1.121,5.667-1.318,11.404-0.873,17.11
	c-1.898-1.842-3.862-3.615-5.924-5.278c-3.373-2.72-7.268-5.467-11.754-5.624c-8.09-0.283-10.864,7.209-11.664,14.685
	c-1.903-4.076-3.938-8.045-6.982-11.534c-0.504-0.577-1.06-1.131-1.658-1.655c11.77-1.477,23.441-3.754,34.813-7.034
	c1.42-0.41,2.832-0.851,4.239-1.306C366.597,389.554,366.519,389.762,366.476,389.982z M362.816,414.731
	c-7.42,1.904-14.997,3.403-22.63,4.592c0.388-5.111,0.799-10.842,2.876-15.535c1.188-2.682,3.104-2.469,5.488-1.344
	C354.063,405.042,358.691,409.824,362.816,414.731z M395.94,398.811c-6.486-5.365-13.136-10.513-21.478-12.241
	c6.779-2.62,13.388-5.718,19.799-9.213c-0.025,0.197-0.032,0.389-0.014,0.576C394.913,384.886,395.555,391.841,395.94,398.811z
	 M403.168,387.763c3.071,2.298,6.437,4.218,9.974,5.796c-3.058,1.828-6.167,3.568-9.314,5.231
	C403.688,395.108,403.457,391.435,403.168,387.763z M421.844,388.053c-8.001-2.817-15.396-7.322-20.446-14.228
	c-0.105-0.143-0.222-0.255-0.339-0.367c4.431-2.656,8.76-5.482,12.982-8.448c0.398,0.467,0.808,0.932,1.236,1.391
	c4.408,5.036,9.587,11.4,11.688,18.109C425.275,385.714,423.571,386.9,421.844,388.053z M493.13,253.485
	c0.552-2.532,1.073-5.071,1.56-7.618c2.372,1.771,4.477,3.796,5.982,6.246C498.007,252.185,495.347,252.556,493.13,253.485z
	 M498.573,220.518c0.356,0.202,0.711,0.399,1.054,0.592c3.383,1.906,5.139,4.708,6.503,8.083c-0.001,0-0.003,0-0.005,0
	c-3.221-0.142-6.19,0.387-8.894,1.517C497.722,227.321,498.174,223.924,498.573,220.518z M500.013,206.172
	c0.405-4.817,0.74-9.642,1.013-14.471c2.611,4.317,7.779,6.785,11.73,10.157C508.257,202.557,503.868,202.971,500.013,206.172z
	 M506.777,187.206C506.679,187.262,506.658,187.262,506.777,187.206L506.777,187.206z M501.444,183.216
	c0.126-2.936,0.233-5.872,0.324-8.806c0.221,0.113,0.443,0.222,0.666,0.327c2.892,1.353,5.695,2.436,7.652,4.439
	C506.824,179.969,503.453,181.222,501.444,183.216z M502.114,158.993c0.014-0.946,0.031-1.894,0.043-2.839
	c2.799-0.633,5.93-0.907,9.073-0.895C507.926,156.198,504.708,157.304,502.114,158.993z M489.228,268.836
	c1.724,4.171,4.349,8.151,5.324,12.547c-3.65,0.026-7.439,0.417-10.44,1.957C486.053,278.61,487.745,273.776,489.228,268.836z
	 M479.031,294.352c0.315,1.433,0.787,2.842,1.172,4.096c0.761,2.482,1.518,4.946,2.172,7.437c-2.973-0.438-5.901-1.119-8.808-1.982
	C475.539,300.769,477.358,297.587,479.031,294.352z M465.765,315.239c1.122,6.098,4.959,11.319,8.642,16.726
	c0.017,0.025,0.036,0.044,0.053,0.068c-6.361,1.684-13.691-0.738-19.682-3.225C458.627,324.434,462.302,319.908,465.765,315.239z
	 M448.047,336.109c3.912,3.722,9.013,9.186,8.083,14.601c-1.026,0.323-2.284-0.054-3.271-0.265c-4.189-0.895-8.1-4.117-11.221-6.832
	c0,0,0,0,0,0l0,0c-0.222-0.193-0.458-0.349-0.706-0.471C443.355,340.855,445.729,338.51,448.047,336.109z M456.112,350.812
	C456.007,351.354,455.968,351.036,456.112,350.812L456.112,350.812z M434.206,349.235c0.119,0.181,0.255,0.358,0.426,0.527
	c2.121,2.1,15.633,16.387,8.324,19.178c-7.6,2.902-16.595-3.887-21.584-9.287c3.62-2.753,7.159-5.589,10.6-8.496
	C432.721,350.523,433.464,349.879,434.206,349.235z M433.345,377.174c0.953,0.18,1.912,0.302,2.874,0.353
	c-0.683,0.546-1.367,1.09-2.057,1.627C433.911,378.49,433.639,377.83,433.345,377.174z M451.938,358.814
	c1.734,0.137,3.451-0.042,5.101-0.643c-1.351,1.481-2.728,2.943-4.138,4.38C452.717,361.314,452.382,360.062,451.938,358.814z
	 M462.673,340.187c2.822,0.451,5.662,0.586,8.467,0.297c-2.097,3.026-4.294,5.981-6.584,8.867
	C465.011,346.359,464.171,343.201,462.673,340.187z M481.099,324.31c-2.313-3.315-4.943-6.814-6.145-10.649
	c3.588,0.715,7.213,1.112,10.926,1.236C484.369,318.089,482.776,321.229,481.099,324.31z M507.357,245.342
	c-2.119-2.951-4.881-5.411-8.032-7.59c2.714-0.781,5.784-0.3,8.856-0.437c0.2-0.009,0.387-0.037,0.579-0.058
	C508.319,239.969,507.882,242.678,507.357,245.342z M511.808,190.024c-1.183-0.958-2.64-2.053-3.604-3.359
	c2.29-0.763,4.763-0.998,7.143-1.288c0.038-0.005,0.075-0.014,0.113-0.02c-0.125,2.374-0.24,4.778-0.362,7.201
	C513.976,191.712,512.86,190.878,511.808,190.024z M515.99,172.986c-0.951-0.892-2.028-1.687-3.231-2.389
	c-2.668-1.556-6.545-2.056-8.67-4.386c-1.65-1.812,8.051-4.612,9.068-4.958c0.921-0.313,1.854-0.612,2.789-0.912
	C516.113,164.55,516.101,168.769,515.99,172.986z M140.193,155.689c32.994,0.565,65.992,1.042,98.992,1.054
	c33.107,0.012,66.262-0.976,99.326-2.617c32.527-1.615,65.125-2.265,97.627-4.316c17.066-1.078,34.087-2.756,51.166-3.687
	c-0.076,2.011,0.789,3.792,2.776,4.314c0.171,12.245,0.248,24.309-0.493,36.597c-0.729,12.094-1.646,24.172-3.014,36.212
	c-2.67,23.539-6.539,48.387-18.158,69.374c-12.951,23.396-32.521,43.116-53.682,59.173c-19.545,14.831-41.643,25.479-65.607,30.737
	c-41.404,9.084-86.582,6.875-127.676-2.653c-20.787-4.819-40.967-12.214-59.359-23.106c-19.676-11.651-34.154-28.438-46.895-47.213
	c-9.199-13.555-16.693-28.186-23.102-43.241c-6.242-14.668-10.473-29.916-16-44.814c-4.135-11.143-8.668-22.169-12.16-33.538
	c-1.863-6.065-3.268-12.299-3.912-18.616c-0.529-5.183-1.123-10.478,1.506-15.208c0.104-0.188,0.184-0.367,0.244-0.537
	c5.133,0.111,10.267,0.198,15.4,0.292c-9.912,8.513-4.768,28.585-2.131,39.173c5.723,22.996,14.852,45.048,25.252,66.277
	c6.482,13.228,13.305,26.307,20.094,39.379c5.848,11.259,12.744,22.188,22.607,30.35c10.123,8.374,22.346,13.841,33.801,20.088
	c12.057,6.577,24.16,12.325,37.402,16.118c22.43,6.424,46.488,8.612,69.719,9.582c24.893,1.039,50.354-1.431,74.381-8.177
	c3.666-1.028,4.244-7.419-0.324-5.988c-28.973,9.067-60.393,11.031-90.551,8.438c-28.656-2.464-56.598-6.802-82.367-20.323
	c-11.928-6.259-24.322-12.229-35.443-19.861c-11.785-8.086-19.09-19.853-25.607-32.287c-13.994-26.695-28.424-53.642-38.051-82.281
	c-3.42-10.18-6.627-20.521-8.656-31.075c-1.564-8.134-4.717-24.198,4.727-28.832c0.236-0.116,0.433-0.282,0.598-0.474
	c2.718,0.056,5.436,0.117,8.152,0.192C107.25,154.647,123.713,155.407,140.193,155.689z M56.566,153.477
	c-1.055,1.675-1.873,3.447-2.491,5.287c-1.598-1.938-7.058-0.843-10.994,0.313c0.229-2.028,0.578-4.038,1.068-6.021
	C48.286,153.234,52.425,153.37,56.566,153.477z M89.427,339.456c0.752-0.945,1.216-2.051,1.15-3.154
	c5.969-3.124,12.407-5.367,19.058-6.173c-4.189,5.974-9.681,12.588-11.779,19.429C94.878,346.304,92.066,342.937,89.427,339.456z
	 M157.69,395.229c-1.721-0.899-3.423-1.83-5.116-2.774c4.105-3.722,7.638-8.029,11.449-12.062
	c2.113,6.434,3.105,13.061,3.865,19.837C164.456,398.646,161.052,396.986,157.69,395.229z M377.759,410.232
	c-1.355,0.477-2.72,0.932-4.091,1.374c-0.838-5.771-1.198-11.593-0.601-17.384c6.629,2.021,12.15,6.418,17.495,10.958
	C386.349,407.018,382.079,408.711,377.759,410.232z"/>
<path fill="#010101" d="M115.301,204.546c7.939-3.884,15.365-10.092,21.123-16.772c2.959-3.435,1.391-8.384-3.32-8.334
	c-2.194,0.023-4.466,0.146-6.77,0.368c-2.574-0.365-5.2-0.51-7.617-0.773c-5.49-0.597-10.574-0.655-15.834,1.237
	c-10.307,3.709-19.668,13.353-11.473,23.845C97.26,211.604,108.371,207.935,115.301,204.546z"/>
<path fill="#010101" d="M127.869,264.048c2.791,4.135,8.773,6.145,13.527,5.95c5.379-0.221,10.561-3.42,14.785-6.465
	c8.736-6.293,16.941-15.256,21.553-25.068c1.715-3.649-0.205-6.19-3.25-6.628c-0.168-0.536-0.683-0.907-1.714-0.883
	c-11.326,0.266-24.416,1.769-34.156,8.029C130.488,244.207,121.248,254.237,127.869,264.048z M151.36,254.654
	c0.801-0.584,1.597-1.179,2.388-1.783c-0.889,0.81-1.817,1.619-2.776,2.361C151.104,255.043,151.233,254.849,151.36,254.654z"/>
<path fill="#010101" d="M213.759,283.838c-0.416-0.197-0.935-0.234-1.526-0.004c-9.412,3.667-19.098,8.657-26.449,15.705
	c-7.256,6.956-11.518,20.611-2.84,28.321c8.719,7.747,22.84,1.798,28.387-6.799c6.109-9.47,8.195-22.317,7.037-33.409
	C218.081,284.915,216.006,283.782,213.759,283.838z M197.037,320.196c0.443-0.608,0.877-1.225,1.306-1.847
	c0.004,0.532,0.028,1.065,0.075,1.6c-0.493,0.167-0.984,0.291-1.472,0.36C196.976,320.271,197.008,320.236,197.037,320.196z
	 M196.893,300.484c0.569-0.466,1.154-0.91,1.74-1.353c-2.271,3.381-4.45,6.828-6.72,10.23c-1.18,1.291-2.274,2.659-3.241,4.159
	C188.318,308.52,193.368,303.37,196.893,300.484z"/>
<path fill="#010101" d="M280.085,308.313c-4.731,7.653-8.719,16.053-7.409,25.157c1.543,10.726,9.271,19.408,20.559,15.979
	c10.543-3.204,14.92-13.633,12.568-23.668c-2.035-8.684-8.801-16.532-14.443-23.165c-0.911-1.071-1.981-1.566-3.094-1.642
	c-0.708-1.072-2.997-0.63-3.793,0.572c-0.246,0.371-0.496,0.748-0.744,1.123C281.874,304.142,280.42,306.336,280.085,308.313z
	 M292.598,338.806c-1.198,0.722-2.305,0.762-3.313,0.339c1.8-1.511,3.132-3.655,3.127-5.857h0l0,0c0,0,0,0,0-0.001
	c-0.002-1.079-0.004-2.158-0.006-3.238c0.415-0.156,0.812-0.367,1.179-0.626C295.318,333.422,295.602,336.993,292.598,338.806z"/>
<path fill="#010101" d="M380.736,333.159c9.578-5.51,13.441-16.535,7.316-25.932c-5.137-7.881-14.691-11.655-21.672-17.519
	c-1.653-1.388-3.785-1.5-5.767-0.836c-1.148-0.978-3.367,0.166-3.858,1.492c-0.21,0.566-0.407,1.146-0.593,1.735
	c-1.057,1.425-1.588,3.103-1.194,4.725c-1.517,7.647-1.333,16.303,0.65,23.264C358.361,329.719,371.109,338.696,380.736,333.159z
	 M363.535,310.345c-0.103-0.502-0.184-1.016-0.256-1.534c0.643,0.973,1.279,1.95,1.906,2.936c1.929,3.033,3.744,7.079,6.26,10.07
	c-1.225-0.907-2.25-1.821-2.682-2.239C365.932,316.837,364.34,314.281,363.535,310.345z"/>
<path fill="#010101" d="M407.217,245.54c-2.914,2.492-4.342,6.429-0.674,9.088c0.678,0.492,1.337,1.008,2.002,1.517
	c1.004,7.417,1.971,14.784,6.876,21.027c5.098,6.489,15.975,6.495,20.979,0.048c4.516-5.815,3.498-13.76-0.004-19.785
	c-4.828-8.307-13.438-13.243-22.91-14.215c-1.456-0.149-3.049,0.289-4.493,1.088C408.299,244.31,407.596,244.857,407.217,245.54z"/>
<path fill="#010101" d="M428.93,206.686c1.744,1.349,3.755,2.3,5.888,3.026c6.978,9.512,23.912,13.399,29.536,0.63
	c2.393-5.436-0.143-10.625-4.912-13.609c-7.643-4.781-18.514-2.777-26.709-1.104C427.953,196.604,424.695,203.41,428.93,206.686z"/>
<path fill="#010101" d="M431.06,167.548c0.136,0.724,0.449,1.439,1.008,2.116c5.625,6.812,16.996,7.677,25.059,6.16
	c9.24-1.738,19.736-9.566,15.137-20.078c-0.729-1.665-2.293-2.377-4.053-2.262c-13.027,0.846-28.707-0.351-38.131,10.569
	C428.959,165.354,429.564,167.4,431.06,167.548z M456.527,164.522c0.141-0.362,0.245-0.725,0.297-1.085
	c1.5,0.034,3.01,0.099,4.529,0.186C459.968,164.207,458.138,164.401,456.527,164.522z"/>
<path fill="#010101" d="M175.145,191.211c7.086-1.518,13.541-5.295,19.707-8.964c3.031-1.804,4.49-7.329-0.414-7.354
	c-0.195-0.001-0.39-0.001-0.585-0.002c-0.084-0.244-0.31-0.423-0.729-0.467c-4.068-0.429-7.93-1.702-12.096-1.844
	c-3.285-0.112-5.893,0.721-9.025,1.286c-5.234,0.945-11.877,3.231-11.348,9.789C161.25,191.028,169.383,192.445,175.145,191.211z"/>
<path fill="#010101" d="M189.061,224.591c2.877,5.259,11.34,2.542,15.512,0.8c3.726-1.555,7.155-3.686,10.153-6.298
	c1.802-0.455,3.882-2.631,4.426-4.614c1.002-1.254,1.92-2.58,2.746-3.973c0.167-0.067,0.334-0.129,0.5-0.2
	c0.896-0.387,2.584-2.685,1.104-3.174c0.601-3.056-2.917-4.433-5.726-2.996c-1.55,0.793-3.081,1.631-4.609,2.475
	c-5.137,0.086-10.349,0.798-14.45,2.953C194.684,211.685,186.039,219.073,189.061,224.591z"/>
<path fill="#010101" d="M233.838,256.456c4.564,3.306,11.828,1.047,15.941-1.833c6.803-4.766,9.889-12.541,8.875-20.718
	c-0.178-1.433-0.864-2.223-1.769-2.563c-0.199-0.585-0.786-0.989-1.665-0.743c-7.33,2.051-16.057,4.374-21.609,9.918
	C229.27,244.85,228.609,252.668,233.838,256.456z M241.136,242.36c1.176-0.804,2.386-1.553,3.61-2.278
	c-1.444,1.239-2.979,2.38-4.629,3.41c-0.681,0.425-1.293,1.058-1.786,1.775C238.647,243.969,239.596,243.413,241.136,242.36z"/>
<path fill="#010101" d="M295.645,270.535c0.382-0.098,0.751-0.225,1.112-0.368c0.682-0.163,1.332-0.515,1.861-0.981
	c3.606-2.395,5.917-7.004,6.862-10.92c1.73-7.16-1.633-14.234-7.148-18.7c-1.005-0.814-2.235-1.006-3.428-0.78
	c0.007-0.232,0.029-0.461,0.029-0.696c-0.007-1.499-2.14-0.676-2.491,0.202c-0.412,1.031-0.887,2.066-1.391,3.106
	c-0.192,0.299-0.342,0.617-0.464,0.945c-3.136,6.281-7.123,12.781-5.766,19.854C285.902,267.833,289.625,272.073,295.645,270.535z
	 M292.275,255.241c-0.091,0.12-0.188,0.238-0.268,0.361c-0.009-1.124,0.05-2.046,0.117-2.476
	C292.187,253.83,292.238,254.534,292.275,255.241z"/>
<path fill="#010101" d="M339.216,244.32c-0.921,4.787-0.817,10.235,0.391,14.15c1.557,5.049,8.369,8.761,13.164,5.95
	c4.584-2.688,6.096-8.061,5.166-13.066c-1.26-6.785-6.188-11.956-12.455-14.55c-3.791-1.568-9.33,3.255-6.584,7.063
	C339.006,244.017,339.109,244.169,339.216,244.32z"/>
<path fill="#010101" d="M378.982,236.607c3.771,3.235,8.955,3.162,12.881,0.229c4.064-3.035,5.172-9.498,1.803-13.42
	c-1.908-2.219-4.949-3.889-7.553-5.119c-2.436-1.152-4.896-2.513-7.42-3.449c-1.096-0.41-2.613,0.536-2.504,1.798
	c0.112,1.299,0.827,2.521,1.798,3.639c-0.476,0.491-0.844,1.02-1.026,1.533C375.209,226.741,374.57,232.821,378.982,236.607z"/>
<path fill="#010101" d="M385.074,172.784c-0.097,0.392-0.143,0.785-0.121,1.168c0.393,6.906,2.865,13.585,9.84,15.979
	c5.5,1.887,11.832-1.164,15.326-5.358c4.041-4.85,2.721-11.208-1.82-15.112c-3.34-2.873-6.195-3.272-10.484-2.866
	c-4.334,0.41-8.551,1.217-12.748,2.323c-1.045,0.276-2.025,1.691-1.285,2.68C384.142,172.08,384.581,172.466,385.074,172.784z"/>
<path fill="#010101" d="M240.15,176.488c0.713-0.158,1.38-0.414,2.021-0.719c0.453-0.153,0.888-0.402,1.276-0.721
	c1.935-1.291,3.457-3.201,4.48-5.301c0.288-0.589,0.307-1.163,0.133-1.64c0.699-0.406,1.43-1.634,0.277-1.928
	c-3.832-0.975-9.557,0.081-12.848,2.366c-2.096,1.455-3.752,4.066-1.992,6.43C234.938,176.911,238.053,176.952,240.15,176.488z"/>
<path fill="#010101" d="M241.438,200.374c-0.215,0.946,0.285,1.655,1.172,1.919c4.218,1.253,8.397,0.778,11.725-1.116
	c1.653-0.313,3.235-0.878,4.667-1.785c0.904-0.572,1.936-2.566,0.238-2.899c-0.043-0.009-0.087-0.011-0.131-0.02
	c0.872-1.454,1.521-3.116,1.859-4.99c0.253-1.404-0.573-2.068-1.606-2.142c0.045-0.395-0.132-0.735-0.677-0.664
	C250.986,189.682,243.389,191.778,241.438,200.374z M250.528,193.394c-0.137,0.039-0.272,0.084-0.409,0.124
	c0.827-0.54,1.726-1.001,2.665-1.398C252.019,192.524,251.264,192.943,250.528,193.394z"/>
<path fill="#010101" d="M260.623,221.619c4.416,0.561,9.094-0.255,12.096-3.833c3.027-3.61,3.061-8.217,2.07-12.602
	c-0.36-1.6-2.691-1.149-3.667-0.368c-0.138-0.293-0.445-0.46-0.972-0.279c-6.73,2.323-10.539,8.71-10.844,15.583
	C259.275,220.842,259.926,221.53,260.623,221.619z M268.056,216.384c0,0.005-0.001,0.011-0.002,0.016
	c-0.045,0.025-0.087,0.052-0.133,0.075C267.967,216.445,268.011,216.414,268.056,216.384z M266.02,211.642
	c0.341-0.547,0.723-1.074,1.134-1.591C266.786,210.59,266.41,211.122,266.02,211.642z"/>
<path fill="#010101" d="M294.629,227.05c1.496,0.478,3.305-1.208,3.564-2.57c1.139-5.993,0.904-10.958-3.463-15.548
	c-0.38-0.4-0.82-0.586-1.274-0.624c-0.088-0.605-1.241-0.451-1.565,0.048c-0.132,0.203-0.263,0.407-0.392,0.613
	c-0.729,0.542-1.31,1.333-1.489,2.079c-0.081,0.334-0.144,0.66-0.211,0.987C286.917,218.012,286.488,224.453,294.629,227.05z"/>
<path fill="#010101" d="M322.051,226.522c0.219,1.075,0.822,1.56,1.932,1.559c4.977-0.005,9.926-2.104,11.432-7.199
	c1.564-5.301-3.965-9.509-8.105-11.299c-2.012-0.869-4.663,1.158-4.394,3.315C321.118,217.091,321.159,222.165,322.051,226.522z"/>
<path fill="#010101" d="M353.627,213.305c2.131,0.703,4.321,0.174,6.091-1.035c2.176,0.18,4.858-2.724,3.161-4.433h0h0c0,0,0,0,0,0
	c-0.011-0.01-0.021-0.02-0.031-0.031c0.304-1.702-0.119-3.501-1.253-4.916c-2.676-3.333-8.574-4.183-12.48-3.399
	c-0.238,0.048-0.603,0.309-0.796,0.601c-1.229,0.752-2.149,2.443-1.815,3.637C347.58,207.585,349.521,211.952,353.627,213.305z"/>
<path fill="#010101" d="M353.783,173.585c0.569,0.062,1.159,0.098,1.76,0.12c-1.488,0.931-2.559,3.096-0.855,4.29
	c4.555,3.191,9.553,4.39,15.068,4.274c1.449-0.03,2.971-1.595,2.875-3.056c-0.164-2.442-0.793-4.791-2.244-6.487
	c-0.029-0.034-0.058-0.066-0.09-0.096c-0.85-0.956-1.967-1.698-3.428-2.112c-4.002-1.135-8.799-0.441-12.643,0.996
	C353.555,171.766,352.445,173.441,353.783,173.585z"/>
<path fill="#010101" d="M480.742,177.667c0.135,12.586-0.156,24.891-2.313,37.335c-3.82,22.037-11.846,43.372-22.006,63.237
	c-9.752,19.066-22.32,36.917-37.963,51.61c-15.814,14.854-34.277,24.351-55.094,30.009c-1.767,0.48-2.897,4.144-0.313,3.767
	c45.148-6.597,78.498-46.256,98.236-84.479c11.006-21.312,19.137-44.493,22.996-68.181c2.029-12.451,2.072-24.969,1.92-37.544
	c-0.092-7.562,0.734-20.069-5.922-25.233c-2.412-1.87-7.141,2.912-4.863,5.219C481.268,159.332,480.662,170.018,480.742,177.667z"/>
</svg>
