<?xml version="1.0" encoding="UTF-8" standalone="no"?><!DOCTYPE svg PUBLIC "-//W3C//DTD SVG 1.1//EN" "http://www.w3.org/Graphics/SVG/1.1/DTD/svg11.dtd"><svg width="100%" height="100%" viewBox="0 0 502 441" version="1.1" xmlns="http://www.w3.org/2000/svg" xmlns:xlink="http://www.w3.org/1999/xlink" xml:space="preserve" style="fill-rule:evenodd;clip-rule:evenodd;stroke-linejoin:round;stroke-miterlimit:1.41421;"><g id="window"><g><path d="M123.914,88.559c-0.468,26.035 3.341,51.813 6.006,77.646c2.745,26.608 2.684,53.339 2.002,80.054c-0.688,26.958 -2.196,53.888 -3.145,80.837c-0.948,27.007 -0.81,54.016 -0.81,81.033c1.517,-0.87 3.034,-1.74 4.552,-2.611c-1.259,-0.701 -2.407,-1.555 -3.442,-2.561c-2.813,-2.703 -7.096,1.569 -4.278,4.277c1.436,1.381 2.983,2.438 4.668,3.507c1.959,1.244 4.552,-0.384 4.552,-2.612c0,-26.359 -0.128,-52.709 0.743,-79.059c0.891,-26.953 2.395,-53.882 3.158,-80.839c0.757,-26.721 0.846,-53.479 -1.756,-80.105c-2.589,-26.496 -6.68,-52.872 -6.2,-79.567c0.07,-3.905 -5.981,-3.898 -6.05,0Z" style="fill:#010101;fill-rule:nonzero;"/><path d="M124.504,85.095c40.982,-0.077 81.736,-4.798 122.566,-7.721c40.718,-2.915 81.583,-2.823 122.384,-2.824c-0.269,-1.98 -0.536,-3.961 -0.805,-5.942c-2.957,0.654 -5.966,0.969 -8.923,1.623c-3.81,0.842 -2.192,6.674 1.607,5.834c2.956,-0.654 5.967,-0.968 8.923,-1.623c3.388,-0.75 2.559,-5.941 -0.805,-5.941c-40.807,0 -81.655,-0.031 -122.383,2.823c-40.841,2.862 -81.576,7.645 -122.566,7.722c-3.899,0.006 -3.9,6.056 0.002,6.049Z" style="fill:#010101;fill-rule:nonzero;"/><path d="M372.182,66.953c-5.563,5.496 -4.399,15.767 -4.001,22.818c0.697,12.355 0.781,24.699 1.188,37.07c1.006,30.705 1.229,61.318 0.676,92.038c-0.556,30.77 -1.724,61.525 -3.543,92.247c-0.93,15.681 -2.288,31.328 -2.603,47.039c-0.312,15.569 0.083,31.146 0.099,46.719c1.722,-0.713 3.442,-1.426 5.164,-2.139c-0.994,-0.84 -2.021,-1.53 -2.771,-2.633c-2.184,-3.201 -7.429,-0.18 -5.225,3.053c1.073,1.575 2.269,2.634 3.719,3.856c1.943,1.642 5.166,0.668 5.164,-2.139c-0.016,-14.275 -0.301,-28.55 -0.156,-42.825c0.15,-15.048 1.352,-30.018 2.298,-45.027c1.897,-30.067 3.085,-60.18 3.748,-90.301c0.661,-30.057 0.892,-60.107 -0.178,-90.156c-0.472,-13.22 -0.218,-26.547 -1.048,-39.74c-0.281,-4.455 -0.648,-8.897 -0.719,-13.363c-0.058,-3.693 -0.395,-9.413 2.467,-12.239c2.779,-2.745 -1.502,-7.021 -4.279,-4.278Z" style="fill:#010101;fill-rule:nonzero;"/><path d="M137.198,410.514c7.274,-0.227 14.512,-1.299 21.789,-1.664c8.382,-0.422 16.788,-0.225 25.176,-0.153c18.021,0.152 36.004,-0.496 54.02,-0.897c19.424,-0.435 38.845,-1.017 58.272,-1.304c9.772,-0.145 19.547,-0.206 29.318,-0.194c8.985,0.01 18.252,-0.479 27.197,0.369c1.914,-3.314 3.828,-6.631 5.742,-9.946c-2.346,0.403 -4.303,1.216 -6.459,2.213c-1.328,0.613 -7.997,5.731 -4.217,7.283c1.729,0.709 3.078,0.608 4.934,0.45c3.257,-0.277 6.189,-2.125 8.063,-4.814c1.008,-1.447 2.223,-5.518 -1.05,-5.243c-9.155,0.769 -18.534,0.325 -27.721,0.38c-9.831,0.061 -19.661,0.225 -29.489,0.44c-20.285,0.448 -40.558,1.179 -60.819,2.225c-18.152,0.938 -36.225,1.712 -54.401,1.729c-15.906,0.016 -34.272,-0.723 -49.003,6.152c-0.546,0.253 -3.387,3.036 -1.352,2.974Z" style="fill:#010101;fill-rule:nonzero;"/><path d="M140.333,93.26c-0.536,-1.208 -1.917,-0.634 -2.729,0.011c-1.604,1.276 -2.038,3.107 -2.174,5.067c-0.457,6.589 0.431,13.246 0.859,19.813c1.576,24.184 2.513,48.357 7.567,72.146c0.208,0.982 1.229,1.057 2.043,0.917c19.356,-3.314 39.095,-2.999 58.662,-2.94c8.311,0.025 17.606,-1.119 25.793,0.298c3.849,0.667 7.712,2.04 11.084,-0.669c1.15,-0.924 3.285,-3.126 2.168,-4.77c-0.896,-1.317 -3.311,-0.527 -4.53,-0.297c-1.281,0.241 -4.143,2.104 -3.622,3.771c0.229,0.738 0.367,1.7 0.849,2.33c0.723,-1.59 1.445,-3.18 2.168,-4.77c2.523,-2.112 4.28,-1.321 1.822,-1.553c-1.056,-0.099 -2.105,-0.263 -3.153,-0.414c-1.809,-0.259 -3.382,-0.447 -5.22,-0.422c-9.462,0.138 -18.93,0.087 -28.393,0.117c-18.396,0.057 -36.84,0.275 -55,3.532c0.682,0.306 1.362,0.611 2.043,0.917c-4.565,-20.5 -6.306,-41.508 -8.126,-62.391c-0.486,-5.591 -0.972,-11.165 -1.56,-16.745c-0.306,-2.905 -0.619,-5.805 -0.848,-8.718c-0.08,-1.021 -0.121,-2.041 -0.124,-3.063c-0.032,-0.407 -0.023,-0.814 0.025,-1.219c0.169,-2.053 -0.755,1.451 -1.889,1.133c0.968,0.274 2.758,-1.015 2.285,-2.081Z" style="fill:#010101;fill-rule:nonzero;"/><path d="M136.203,93.151c6.917,1.979 15.466,0.734 22.621,0.723c8.967,-0.017 17.934,-0.115 26.9,-0.176c17.882,-0.12 35.774,-0.073 53.636,0.889c-0.406,-0.309 -0.813,-0.616 -1.22,-0.926c2.096,13.74 -3.199,27.582 -4.242,41.222c-0.583,7.625 -0.527,15.398 -0.744,23.048c-0.092,3.26 -0.099,6.52 -0.028,9.78c0.038,1.786 0.158,3.566 0.285,5.349c0.132,1.855 1.229,5.013 0.709,6.788c2.45,-1.449 4.901,-2.899 7.354,-4.349c-0.653,-0.893 -1.562,-1.453 -2.49,-2.026c-1.93,-1.19 -6.248,2.499 -5.736,4.561c0.277,1.123 0.307,2.248 1.117,3.117c2.255,2.416 6.888,-2.202 7.354,-4.349c0.531,-2.441 -0.608,-5.626 -0.875,-8.113c-0.443,-4.148 -0.483,-8.341 -0.488,-12.508c-0.009,-8.456 -0.019,-17.1 0.509,-25.54c0.849,-13.564 5.952,-27.022 3.601,-40.696c-0.104,-0.605 -0.65,-0.902 -1.22,-0.925c-17.366,-0.659 -34.74,-0.617 -52.112,-0.317c-9.074,0.156 -18.146,0.368 -27.218,0.606c-8.409,0.221 -17.556,-0.616 -25.803,1.114c-0.571,0.119 -3.392,2.306 -1.91,2.728Z" style="fill:#010101;fill-rule:nonzero;"/><path d="M258.765,87.987c-3.188,7.289 -3.915,15.739 -4.765,23.575c-0.944,8.702 -1.257,17.451 -1.379,26.199c-0.247,17.66 1.277,35.254 1.75,52.892c0.044,1.637 2.556,1.13 3.396,0.784c0.229,-0.095 0.458,-0.188 0.688,-0.284c1.726,-0.712 5.082,-3.1 4.508,-5.416c-0.315,-1.271 -0.999,-1.854 -2.092,-2.52c-2.035,-1.239 -5.3,2.232 -5.698,3.938c-0.268,1.145 -0.101,2.063 -0.095,3.218c1.502,-1.806 3.005,-3.61 4.508,-5.416c-0.228,0.083 -0.454,0.166 -0.682,0.249c1.133,0.261 2.265,0.521 3.396,0.783c-2.086,-16.605 -2.988,-33.41 -3.302,-50.14c-0.166,-8.841 0.008,-17.682 0.541,-26.508c0.438,-7.272 2.414,-15.101 1.705,-22.352c-0.121,-1.229 -2.281,0.546 -2.479,0.998Z" style="fill:#010101;fill-rule:nonzero;"/><path d="M258.461,90.135c7.251,1.858 15.275,1.243 22.7,1.123c8.325,-0.135 16.633,-0.665 24.938,-1.232c16.525,-1.129 33.177,-2.857 49.757,-2.305c3.054,0.102 8.083,-6.606 4.486,-6.437c-1.826,0.088 -3.374,0.335 -5.083,0.998c-0.807,0.313 -4.611,3.086 -3.04,4.314c1.174,0.917 2.145,1.047 3.637,1.124c1.495,-2.146 2.991,-4.29 4.486,-6.437c-16.813,0.646 -33.544,1.791 -50.317,3.11c-8.404,0.661 -16.82,1.243 -25.241,1.668c-8.004,0.403 -16.135,-0.061 -24.094,0.883c-0.773,0.094 -3.878,2.768 -2.229,3.191Z" style="fill:#010101;fill-rule:nonzero;"/><path d="M357.804,84.136c-1.585,6.779 -1.716,13.95 -2.624,20.85c-0.974,7.393 -2.16,14.739 -2.742,22.179c-0.446,5.71 -0.819,11.422 -1.168,17.14c-0.828,13.548 -1.348,27.12 -3.063,40.582c-0.1,0.771 0.067,1.286 0.754,1.684c0.105,0.063 0.218,0.12 0.318,0.19c0.744,0.515 2.199,-0.204 2.825,-0.57c4.929,-2.887 4.279,-8.931 4.609,-13.901c0.588,-8.86 0.917,-17.739 1.278,-26.61c0.277,-6.769 0.425,-13.547 0.849,-20.309c0.437,-6.954 1.145,-13.877 1.815,-20.812c0.646,-6.676 2.133,-15.17 -0.634,-21.519c-0.456,-1.049 -2.066,0.452 -2.217,1.096Z" style="fill:#010101;fill-rule:nonzero;"/><path d="M255.348,190.278c17.068,1.818 34.675,-0.902 51.74,-1.848c8.765,-0.485 17.534,-0.729 26.31,-0.479c4.359,0.124 8.708,0.457 13.044,0.904c3.47,0.357 7.14,1.451 10.614,1.138c3.25,-0.293 7.803,-7.61 2.994,-6.585c-1.432,0.306 -2.607,0.79 -3.899,1.47c-1.125,0.591 -3.105,2.444 -2.264,3.882c0.427,0.728 0.812,0.921 1.613,1.158c3.618,1.069 9.391,-6.173 5.399,-6.583c-8.288,-0.854 -16.369,-1.949 -24.736,-2.085c-8.859,-0.146 -17.729,0.343 -26.561,0.98c-17.328,1.252 -34.735,2.45 -52.021,4.179c-1.275,0.127 -4.718,3.606 -2.233,3.869Z" style="fill:#010101;fill-rule:nonzero;"/><path d="M148.439,206.167c5.334,0.654 11.465,-0.6 16.83,-0.851c9.333,-0.437 18.665,-0.917 27.997,-1.364c14.583,-0.699 29.648,-0.501 44.118,-2.63c2.819,-0.415 8.196,-7.009 2.97,-6.532c-1.628,0.147 -2.853,0.874 -4.385,1.384c-1.005,0.334 -4.037,2.845 -2.257,3.898c1.271,0.754 1.217,1.156 2.829,1.324c1.271,-2.202 2.543,-4.405 3.813,-6.606c-14.48,2.13 -29.409,2.317 -43.999,3.266c-9.416,0.611 -18.834,1.189 -28.237,1.977c-5.759,0.482 -12.35,0.297 -17.87,2.158c-1.03,0.344 -4.414,3.656 -1.809,3.976Z" style="fill:#010101;fill-rule:nonzero;"/><path d="M256.054,201.228c6.44,3.296 14.318,2.653 21.325,2.193c7.887,-0.518 15.704,-1.412 23.618,-1.415c18.236,-0.007 36.464,-2.41 54.703,-1.319c1.6,-2.294 3.198,-4.588 4.799,-6.882c-3.502,0.004 -6.278,0.489 -9.629,1.5c-0.86,0.26 -4.715,2.808 -2.682,3.837c2.583,1.308 4.566,1.541 7.512,1.544c2.924,0.004 9.002,-6.813 4.799,-6.882c-17.788,-0.292 -35.469,1.465 -53.235,1.878c-7.754,0.181 -15.346,0.78 -23.059,1.596c-8.561,0.906 -16.967,0.81 -25.55,0.778c-0.968,-0.002 -4.287,2.307 -2.601,3.172Z" style="fill:#010101;fill-rule:nonzero;"/><path d="M148.351,206.266c-2.87,5.03 -1.336,12.904 -1.491,18.52c-0.192,6.996 -0.759,13.977 -1.307,20.95c-1.104,14.08 -2.141,28.134 -2.907,42.236c2.505,-1.004 5.011,-2.008 7.516,-3.012c0.08,-1.899 0.237,-3.21 -1.152,-4.62c-1.581,-1.604 -4.538,1.265 -5.195,2.593c-1.003,2.027 -1.277,3.508 -1.18,5.751c0.137,3.116 7.696,-1.299 7.541,-4.436c-0.701,-14.197 0.847,-28.529 1.54,-42.707c0.314,-6.451 0.464,-12.915 0.438,-19.374c-0.015,-3.819 1.251,-14.68 -2.896,-16.44c-0.349,-0.148 -0.758,0.279 -0.907,0.539Z" style="fill:#010101;fill-rule:nonzero;"/><path d="M239.255,196.684c-2.15,5.315 -1.447,12.279 -1.594,17.901c-0.23,8.754 -0.294,17.513 -0.42,26.27c-0.125,8.607 -0.343,17.226 -0.944,25.814c-0.215,3.081 -0.499,6.165 -0.998,9.215c-0.29,1.77 -1.452,3.262 -0.979,4.927c0.493,1.734 2.832,0.87 3.872,0.238c4.969,-3.021 4.892,-8.954 5.294,-14.126c0.669,-8.565 0.696,-17.194 0.728,-25.78c0.033,-9.21 -0.041,-18.442 -0.468,-27.643c-0.171,-3.672 -0.358,-7.336 -0.626,-11.001c-0.159,-2.168 -0.109,-5.201 -1.385,-7.054c-0.596,-0.864 -2.26,0.694 -2.48,1.239Z" style="fill:#010101;fill-rule:nonzero;"/><path d="M149.091,285.292c-0.703,-0.042 -1.396,-0.15 -2.075,-0.325c-1.063,-0.237 -2.288,0.541 -2.844,1.433c-0.267,0.428 -0.506,0.839 -0.701,1.307c-0.327,0.783 -0.184,1.442 0.717,1.587c14.963,2.382 30.717,0.302 45.701,-1.098c15.5,-1.445 31.014,-3.253 46.606,-3.106c2.197,0.021 4.388,-1.607 5.594,-3.341c0.739,-1.063 1.521,-3.741 -0.729,-3.639c-1.612,0.074 -3.011,0.568 -4.501,1.17c-0.889,0.358 -4.773,3.15 -3.177,4.509c0.88,0.746 1.638,1.242 2.813,1.301c3.217,0.158 8.914,-7.018 4.865,-6.979c-15.657,0.146 -31.239,1.997 -46.777,3.769c-8.7,0.99 -17.401,1.852 -26.136,2.47c-3.844,0.271 -7.694,0.423 -11.546,0.513c-2.465,0.058 -7.855,1.313 -9.885,0.107c-0.25,0.782 -0.499,1.564 -0.748,2.349c0.604,-0.44 1.992,-1.003 2.617,-1.39c0.122,-0.077 0.631,-0.62 0.206,-0.637Z" style="fill:#010101;fill-rule:nonzero;"/><path d="M257.275,202.535c-0.176,5.702 1.781,11.578 2.416,17.257c0.824,7.377 0.924,14.852 0.827,22.265c-0.187,14.473 -0.979,29.108 -2.036,43.543c2.61,-1.292 5.222,-2.583 7.832,-3.874c0.007,-1.674 0.028,-2.835 -0.682,-4.324c-1.352,-2.835 -6.287,2.666 -6.705,3.965c-0.535,1.663 -0.467,3.24 -0.459,4.974c0.014,3.016 8.093,-1.145 7.845,-4.613c-0.993,-13.86 0.77,-28.016 0.623,-41.92c-0.077,-7.313 -0.438,-14.639 -1.553,-21.872c-0.796,-5.174 -1.717,-13.067 -6.057,-16.61c-0.634,-0.521 -2.028,0.484 -2.051,1.209Z" style="fill:#010101;fill-rule:nonzero;"/><path d="M260.363,286.938c6.395,2.201 14.349,1.087 20.983,0.787c8.114,-0.367 16.218,-0.938 24.332,-1.311c7.968,-0.364 15.938,-0.456 23.906,-0.088c3.78,0.176 7.547,0.546 11.298,1.047c3.531,0.471 6.746,1.612 10.29,1.028c1.416,-0.232 5.887,-3.222 4.224,-5.11c-1.949,-2.216 -5.371,-2.122 -8.165,-2.556c-3.733,-0.577 -7.511,-0.862 -11.28,-1.08c-8.007,-0.46 -16.058,-0.148 -24.059,0.272c-8.247,0.435 -16.48,1.108 -24.71,1.8c-8.241,0.69 -16.953,0.657 -25.006,2.614c-0.53,0.131 -3.234,2.106 -1.813,2.597Z" style="fill:#010101;fill-rule:nonzero;"/><path d="M356.834,196.13c-1.693,6.793 -1.067,14.445 -1.234,21.417c-0.176,7.354 -0.526,14.711 -1.069,22.049c-0.526,7.152 -1.308,14.291 -2.316,21.392c-0.505,3.556 -1.125,7.092 -1.812,10.615c-0.545,2.807 -1.857,5.906 -1.393,8.759c0.554,3.391 5.978,-1.559 6.576,-2.646c2.831,-5.141 3.075,-12.413 3.862,-18.156c1.035,-7.545 1.629,-15.142 2.018,-22.744c0.38,-7.438 0.492,-14.891 0.336,-22.336c-0.13,-6.159 0.352,-14.192 -2.52,-19.797c-0.509,-0.996 -2.315,0.918 -2.448,1.447Z" style="fill:#010101;fill-rule:nonzero;"/><path d="M146.587,306.062c7.341,-3.778 17.438,-2.137 25.327,-1.605c10.609,0.715 21.189,0.323 31.813,0.055c7.763,-0.196 15.426,-0.152 23.157,-0.877c4.727,-0.443 11.157,-0.09 15.083,-3.203c1.208,-0.957 3.857,-4.411 0.841,-4.854c-0.894,-0.132 -1.893,0.354 -2.696,0.688c-1.018,0.421 -4.765,3.082 -3.244,4.604c0.353,0.354 0.246,0.51 0.169,-0.038c1.052,-1.484 2.104,-2.969 3.155,-4.451c2.335,-1.334 3.125,-0.95 0.569,-0.685c-1.143,0.119 -2.278,0.373 -3.42,0.526c-3.128,0.421 -6.268,0.764 -9.408,1.085c-9.737,0.998 -19.622,0.815 -29.399,1.19c-10.227,0.392 -20.279,-0.122 -30.488,-0.268c-7.622,-0.107 -16.451,0.126 -22.609,5.207c-1.984,1.635 -1.653,4.069 1.15,2.626Z" style="fill:#010101;fill-rule:nonzero;"/><path d="M145.424,304.702c-1.899,7.801 -1.99,15.896 -2.567,23.875c-0.553,7.641 -1.093,15.279 -1.632,22.921c-0.539,7.634 -1.033,15.27 -1.411,22.912c-0.19,3.86 -0.327,7.725 -0.435,11.588c-0.071,2.528 -0.935,6.065 0.929,8.01c2.301,2.399 8.132,-2.479 7.59,-5.221c-0.371,-1.878 -0.905,-2.379 -2.311,-3.677c-1.72,-1.589 -4.543,1.472 -5.021,2.97c-0.609,1.913 -0.724,3.358 -0.522,5.325c2.53,-1.739 5.06,-3.479 7.59,-5.221c-1.416,-1.36 -0.596,-6.015 -0.588,-7.894c0.017,-4.213 0.119,-8.425 0.24,-12.636c0.216,-7.551 0.565,-15.099 0.894,-22.646c0.28,-6.461 0.544,-12.917 0.646,-19.385c0.112,-7.21 0.756,-14.941 -1.437,-21.896c-0.308,-0.973 -1.84,0.461 -1.965,0.975Z" style="fill:#010101;fill-rule:nonzero;"/><path d="M237.494,298.373c-1.841,7.087 -1.486,14.834 -1.757,22.115c-0.272,7.34 -0.227,14.707 -0.338,22.053c-0.237,15.598 -0.368,31.2 -0.441,46.801c2.521,-1.733 5.041,-3.469 7.562,-5.201c-1.46,-1.525 -1.802,-1.897 -3.887,-2.328c-1.23,-0.254 -3.103,1.328 -3.474,2.406c-0.788,2.281 -1.081,3.527 0.063,5.723c1.646,3.16 7.572,-3.017 7.563,-5.201c-0.071,-14.788 -0.184,-29.581 -0.413,-44.367c-0.109,-7.022 -0.219,-14.046 -0.327,-21.067c-0.109,-7.038 0.557,-15.601 -1.792,-22.295c-0.482,-1.366 -2.571,0.632 -2.759,1.361Z" style="fill:#010101;fill-rule:nonzero;"/><path d="M257.076,301.895c-2.69,10.46 -1.43,22.527 -1.904,33.284c-0.271,6.125 -0.526,12.196 -0.586,18.323c-0.062,6.24 -0.173,12.479 -0.407,18.717c-0.092,2.442 -0.196,4.892 -0.413,7.328c-0.133,1.498 -0.722,3.389 -0.126,4.845c1.127,2.753 5.248,-0.513 6.188,-1.896c-3.658,2.536 -4.438,3.246 -2.342,2.131c0.632,-0.373 1.199,-0.825 1.706,-1.355c0.766,-0.805 1.338,-1.787 1.71,-2.828c0.732,-2.048 0.633,-4.318 0.743,-6.47c0.338,-6.574 0.36,-13.172 0.396,-19.753c0.036,-6.688 0.096,-13.339 0.29,-20.023c0.154,-5.334 0.188,-10.672 0.194,-16.009c0.005,-5.827 0.628,-12.79 -1.296,-18.347c-0.715,-2.056 -3.872,0.956 -4.153,2.053Z" style="fill:#010101;fill-rule:nonzero;"/><path d="M257.764,301.562c15.395,0.487 30.854,-2.649 46.118,-4.239c8.579,-0.894 17.205,-1.487 25.833,-1.239c3.448,0.099 6.885,0.428 10.288,0.982c3.182,0.521 6.433,2.485 9.611,1.744c1.646,-0.384 4.621,-2.325 4.217,-4.393c-0.852,-4.358 -13.854,-4.329 -17.33,-4.495c-8.612,-0.411 -17.286,0.364 -25.848,1.244c-16.662,1.712 -33.209,5.018 -49.928,6.146c-1.608,0.11 -5.704,4.163 -2.961,4.25Z" style="fill:#010101;fill-rule:nonzero;"/><path d="M350.967,295.158c-3.007,14.97 -1.123,31.389 -0.679,46.555c0.472,16.138 1.073,32.393 -0.139,48.511c2.514,-1.485 5.024,-2.972 7.537,-4.457c-0.984,-1.779 -1.896,-2.774 -3.516,-4.005c-1.926,-1.465 -5.428,1.566 -5.307,3.648c0.139,2.383 0.576,4.016 1.534,6.148c1.248,2.779 7.496,-2.471 7.537,-4.457c0.313,-15.225 0.232,-30.387 -0.502,-45.602c-0.374,-7.752 -0.797,-15.5 -1.269,-23.247c-0.494,-8.103 -0.256,-16.645 -2.285,-24.536c-0.366,-1.44 -2.755,0.67 -2.911,1.442Z" style="fill:#010101;fill-rule:nonzero;"/><path d="M142.666,393.853c10.05,1.896 20.901,0.676 31.049,0.101c10.483,-0.595 20.957,-1.388 31.405,-2.427c7.683,-0.764 15.287,-1.771 23.009,-1.438c4.599,0.199 9.353,1.117 12.877,-2.561c0.791,-0.826 2.252,-2.986 0.637,-3.796c-0.714,-0.356 -1.604,-0.147 -2.352,-0.052c-1.722,0.221 -4.88,2.703 -3.866,4.68c0.016,-0.121 0.031,-0.241 0.046,-0.361c1.007,-1.211 2.015,-2.42 3.022,-3.632c-0.043,0.024 -0.086,0.048 -0.129,0.072c1.061,-0.215 2.122,-0.429 3.184,-0.644c-1.175,-0.62 -2.702,-0.271 -3.97,-0.232c-2.562,0.078 -5.123,-0.039 -7.683,-0.111c-7.917,-0.227 -15.995,1.323 -23.849,2.211c-10.101,1.143 -20.231,2.012 -30.368,2.758c-10.27,0.758 -20.646,0.569 -30.875,1.729c-1.22,0.135 -4.532,3.25 -2.137,3.703Z" style="fill:#010101;fill-rule:nonzero;"/><path d="M253.458,382.504c-2.046,7.449 27.493,3.053 31.096,2.78c21.39,-1.616 43.328,0.979 64.623,2.815c0.311,-1.795 0.622,-3.589 0.933,-5.384c-1.51,1.344 -3.008,2.5 -4.109,4.213c-1.229,1.907 -0.188,3.2 1.941,2.442c1.911,-0.68 3.526,-1.707 5.174,-2.875c1.268,-0.896 4.328,-5.152 0.934,-5.384c-21.816,-1.479 -44.216,-3.704 -66.068,-1.764c-7.417,0.657 -14.748,2.071 -22.19,2.483c-3.124,0.175 -6.04,-0.548 -9.101,-0.617c-1.035,-0.021 -2.88,0 -3.233,1.291Z" style="fill:#010101;fill-rule:nonzero;"/><path d="M103.49,54.303c-2.372,9.393 -1.685,20.238 -1.187,29.853c0.033,0.639 0.801,1.072 1.369,1.038c9.488,-0.57 21.46,1.685 30.09,-2.87c0.872,-0.46 3.968,-3.385 1.946,-4.279c-3.646,-1.612 -8.891,0.048 -12.83,0.188c-5.226,0.188 -10.433,0.275 -15.639,0.782c0.72,0.323 1.438,0.646 2.158,0.969c-0.5,-4.214 -0.84,-8.438 -1.144,-12.671c-0.343,-4.782 -0.112,-9.97 -1.66,-14.546c-0.519,-1.538 -2.897,0.715 -3.103,1.536Z" style="fill:#010101;fill-rule:nonzero;"/><path d="M102.208,55.415c13.083,1.953 26.449,4.489 39.541,0.98c10.335,-2.77 18.849,-9.543 27.233,-15.87c22.639,-17.082 47.688,-28.142 75.938,-31.773c13.762,-1.77 28.986,-2.079 42.604,0.926c11.729,2.588 21.037,10.078 29.733,17.938c7.979,7.211 15.972,15.17 26.225,18.985c10.472,3.896 22.265,4.811 33.341,4.543c5.719,-0.138 11.482,-0.771 17.035,-2.161c-0.8,-0.609 -1.599,-1.22 -2.396,-1.83c-2.459,7.643 -3.945,15.474 -2.452,23.461c1.512,-1.816 3.024,-3.633 4.536,-5.449c-13.508,4.21 -28.149,0.959 -41.586,5.265c-1.082,0.347 -4.469,3.687 -1.84,4.046c6.725,0.918 13.752,0.487 20.531,0.229c7.389,-0.282 14.682,-1.099 21.756,-3.307c1.875,-0.585 4.961,-3.183 4.535,-5.45c-1.41,-7.525 0.107,-14.777 2.415,-21.961c0.49,-1.523 -1.247,-2.117 -2.396,-1.83c-10.939,2.741 -22.554,2.518 -33.663,1.004c-12.055,-1.641 -21.257,-6.215 -30.5,-14.001c-8.487,-7.149 -16.186,-15.178 -25.871,-20.768c-11.112,-6.413 -24.267,-7.24 -36.81,-7.396c-26.825,-0.333 -53.522,6.516 -77.278,18.823c-11.561,5.99 -21.789,13.932 -32.173,21.7c-4.245,3.176 -8.618,6.119 -13.524,8.174c-6.44,2.698 -13.311,2.84 -20.178,2.895c-7.403,0.057 -14.953,-0.236 -22.339,-0.641c-1.404,-0.075 -4.657,3.133 -2.417,3.468Z" style="fill:#010101;fill-rule:nonzero;"/><path d="M113.967,403.383c0.84,11.854 1.574,24.252 4.565,35.785c0.176,0.677 0.659,0.959 1.333,1.011c21.521,1.614 42.878,-2.177 64.342,-3.035c22.663,-0.907 45.375,0.591 68.046,0.324c45.324,-0.532 90.615,-4.872 135.904,-6.606c2.551,-0.098 6.063,-2.389 6.438,-5.117c1.534,-11.112 0.238,-22.365 1.666,-33.487c0.282,-2.195 -1.959,-2.107 -3.438,-1.558c-2.324,0.865 -4.503,1.624 -6.628,2.934c-0.716,0.439 -4.357,4.547 -1.409,4.367c2.486,-0.152 4.463,-0.138 6.882,-0.969c-1.146,-0.519 -2.292,-1.037 -3.438,-1.557c-1.62,11.094 -0.088,22.357 -1.602,33.463c2.146,-1.705 4.292,-3.411 6.438,-5.117c-44.711,1.778 -89.365,5.825 -134.104,6.783c-22.748,0.487 -45.497,-0.699 -68.245,-0.064c-22.258,0.623 -44.292,4.97 -66.615,3.561c0.444,0.337 0.889,0.674 1.333,1.01c-3.179,-11.249 -2.943,-23.447 -6.866,-34.433c-0.792,-2.223 -4.719,1.049 -4.602,2.705Z" style="fill:#010101;fill-rule:nonzero;"/><path d="M113.292,406.407c5.188,0.045 10.545,0.313 15.509,-1.464c1.631,-0.584 3.253,-2.025 3.972,-3.607c0.71,-1.563 -0.191,-2.98 -1.986,-2.5c-2.396,0.642 -4.294,1.588 -6.166,3.217c-0.431,0.374 -1.215,1.1 -1.035,1.772c0.382,1.429 2.3,1.302 3.472,1.472c0.938,-2.062 1.873,-4.121 2.811,-6.182c-4.633,1.743 -9.631,2.088 -14.372,3.479c-1.046,0.307 -1.973,0.896 -2.605,1.804c-0.442,0.631 -0.823,1.998 0.4,2.009Z" style="fill:#010101;fill-rule:nonzero;"/><path d="M363.676,396.209c3.563,1.313 8.268,0.697 11.985,0.774c2.241,0.047 4.482,0.092 6.725,0.149c0.884,0.021 1.672,0.287 2.568,0.096c0.33,-0.07 2.078,-0.557 0.94,-0.251c0.091,-0.023 0.196,-0.035 0.29,-0.052c2.684,-0.481 7.505,-6.969 2.782,-6.121c-1.187,0.213 -8.104,5.146 -4.229,6.051c2.865,0.669 8.465,-5.331 5.676,-5.98c-3.038,-0.709 -6.461,-0.207 -9.629,-0.144c-4.464,0.09 -9.427,-0.349 -13.795,0.733c-0.98,0.247 -5.905,3.792 -3.313,4.745Z" style="fill:#010101;fill-rule:nonzero;"/><path d="M382.289,73.617c-1.359,13.847 -0.133,28.239 0.033,42.144c0.181,15.102 0.219,30.206 0.191,45.309c-0.053,29.693 -0.421,59.386 -0.732,89.076c-0.289,27.42 0.66,55.131 -1.402,82.483c-0.776,10.289 -1.691,20.565 -1.699,30.895c-0.004,4.943 0.327,9.883 1.127,14.763c0.387,2.358 1.004,4.665 1.757,6.932c0.356,1.071 1.984,3.978 1.778,4.929c2.767,-2.199 5.533,-4.396 8.3,-6.598c2.44,0.498 -1.31,-1.941 -1.963,-2.41c-2.409,-1.729 -9.091,3.636 -8.006,6.363c0.809,2.035 0.795,5.067 3.64,5.123c3.006,0.061 8.192,-3.236 8.3,-6.597c0.063,-1.91 -0.461,-2.595 -1.505,-4.162c-1.326,-1.993 -1.974,-4.299 -2.598,-6.584c-1.251,-4.582 -1.697,-9.382 -1.993,-14.105c-0.688,-11.003 0.238,-22.056 0.822,-33.04c0.61,-11.516 0.257,-23.048 0.223,-34.573c-0.046,-15.198 0.146,-30.397 0.278,-45.596c0.263,-29.669 0.579,-59.337 0.613,-89.006c0.017,-14.438 -0.049,-28.875 -0.213,-43.313c-0.08,-7.184 -0.207,-14.366 -0.408,-21.548c-0.211,-7.629 0.021,-15.541 -1.314,-23.069c-0.436,-2.453 -5.079,1.052 -5.229,2.584Z" style="fill:#010101;fill-rule:nonzero;"/><path d="M113.729,83.061c-1.978,27.454 -0.708,55.199 0.108,82.697c0.834,28.11 1.907,56.214 2.801,84.323c0.901,28.355 1.596,56.721 1.732,85.091c0.104,21.895 -2.311,44.916 2.069,66.519c0.64,3.152 7.962,-1.327 7.173,-4.219c-5.567,-20.396 -2.779,-43.142 -2.869,-64.054c-0.121,-28.354 -0.874,-56.702 -1.798,-85.039c-0.915,-28.094 -2.027,-56.18 -2.923,-84.272c-0.878,-27.551 -0.67,-55.285 -2.84,-82.754c-0.12,-1.527 -3.375,0.621 -3.453,1.708Z" style="fill:#010101;fill-rule:nonzero;"/></g><path d="M389.203,80.092c12.884,-5.199 25.32,-11.692 38.008,-17.359c8.158,-3.644 16.37,-7.174 24.67,-10.481c5.76,-2.294 11.839,-4.849 17.862,-6.051c1.441,-0.288 -1.073,-0.526 -0.145,-0.156c0.859,0.343 1.54,0.642 2.501,0.535c1.631,-0.182 3.236,-0.719 4.49,-1.82c4.739,-4.158 -0.123,-9.289 -5.287,-6.67c-3.728,1.891 -10.62,3.523 -15.389,5.368c-16.38,6.339 -32.354,13.804 -48.227,21.307c-6.568,3.105 -13.383,6.107 -19.621,9.848c-2.67,1.6 -2.903,7.11 1.138,5.479Z" style="fill:#010101;fill-rule:nonzero;"/><path d="M385.947,394.5c3.404,0.341 6.576,-1.152 9.753,-2.223c4.515,-1.521 8.972,-3.196 13.51,-4.653c8.96,-2.877 18.087,-5.293 27.21,-7.592c17.938,-4.518 36.176,-8.127 53.923,-13.358c-1.612,-2.652 -3.225,-5.305 -4.837,-7.956c-1.455,1.724 -2.62,3.57 -3.207,5.757c-0.533,1.983 1.054,3.48 2.959,3.372c2.416,-0.139 4.512,-0.669 6.631,-1.855c5.29,-2.965 5.568,-12.82 -2.142,-10.323c-17.724,5.741 -35.851,9.931 -53.849,14.735c-9.164,2.447 -18.245,5.123 -27.17,8.344c-7.535,2.72 -18.508,5.764 -23.523,12.43c-0.747,0.992 -0.991,3.148 0.742,3.322Z" style="fill:#010101;fill-rule:nonzero;"/><path d="M486.893,31.77c-2.519,5.918 -2.565,12.549 -2.865,18.927c-0.368,7.813 -0.136,15.678 0.117,23.491c0.484,14.948 1.86,29.863 2.64,44.798c1.689,32.378 2.039,64.903 3.098,97.313c1.163,35.572 1.969,71.348 0.447,106.928c-0.337,7.867 -0.731,15.748 -1.591,23.577c-0.302,2.753 -1.018,5.371 -1.724,8.044c-0.105,0.398 -0.229,0.793 -0.341,1.19c-0.757,2.695 -0.097,1.104 -0.115,1.232c-0.219,1.522 1.941,-4.354 -0.048,-0.048c1.508,-1.322 3.016,-2.646 4.522,-3.969c0.37,-0.072 0.741,-0.146 1.111,-0.219c-5.626,0.626 -9.57,11.092 -2.201,10.273c3.667,-0.408 -0.33,0.048 -0.958,-0.098c1.401,0.324 2.871,-0.2 4.092,-0.833c1.203,-0.624 2.158,-1.588 3.023,-2.607c1.537,-1.812 2.45,-3.999 2.824,-6.321c0.915,-5.68 0.895,-11.529 1.204,-17.435c0.888,-16.927 0.987,-33.928 1.071,-50.875c0.227,-45.661 -1.943,-91.25 -3.438,-136.879c-0.666,-20.312 -1.523,-40.474 -3.19,-60.731c-0.79,-9.605 -1.589,-19.216 -2.063,-28.842c-0.23,-4.691 -0.274,-9.386 -0.369,-14.081c-0.095,-4.686 0.449,-9.202 -0.806,-13.741c-0.624,-2.265 -3.886,-0.396 -4.44,0.906Z" style="fill:#010101;fill-rule:nonzero;"/><path d="M485.574,37.289c0.002,-0.035 0.004,-0.069 0.006,-0.104c-0.029,0.346 -0.059,0.691 -0.088,1.036c0.007,-0.06 0.021,-0.118 0.044,-0.175c-0.124,0.361 -0.247,0.723 -0.37,1.085c0.012,-0.024 0.023,-0.049 0.036,-0.073c-0.876,0.934 -1.753,1.868 -2.63,2.803c0.481,-0.247 0.9,-0.596 1.327,-0.927c-0.38,0.271 -0.759,0.543 -1.139,0.814c0.049,-0.033 0.101,-0.06 0.156,-0.081c-0.407,0.18 -0.813,0.359 -1.22,0.539c0.059,-0.022 0.119,-0.04 0.181,-0.052c-0.414,0.083 -0.827,0.166 -1.241,0.25c0.142,-0.024 0.279,-0.032 0.422,-0.032c-0.408,-0.019 -0.816,-0.038 -1.226,-0.056c0.036,0.002 0.073,0.005 0.109,0.008c-0.368,-0.128 -0.736,-0.256 -1.104,-0.384c0.539,0.292 1.029,0.396 1.592,0.471c-0.387,-0.134 -0.773,-0.269 -1.16,-0.403c0.798,0.604 1.959,0.665 2.912,0.631c1.242,-0.043 2.275,-0.534 3.366,-1.075c1.803,-0.894 3.301,-2.872 3.72,-4.828c0.362,-1.692 -0.154,-3.514 -1.745,-4.386c-1.383,-0.758 -2.981,-0.736 -4.455,-0.278c-1.11,0.345 -2.089,0.891 -2.964,1.659c-0.828,0.722 -1.48,1.576 -1.957,2.563c-0.165,0.463 -0.324,0.929 -0.477,1.396c1.227,-1.591 2.452,-3.183 3.678,-4.774c-1.155,0.599 -2.153,1.424 -2.958,2.453c0.348,-0.372 0.695,-0.745 1.043,-1.117c-1.259,1.066 -2.403,2.538 -2.718,4.197c-0.293,1.543 0.156,2.835 1.477,3.709c0.024,0.017 0.05,0.033 0.074,0.05c-0.26,-0.207 -0.52,-0.414 -0.78,-0.621c0.765,0.734 0.97,0.744 1.956,1.083c0.715,0.116 1.416,0.06 2.105,-0.17c0.785,-0.259 1.488,-0.664 2.108,-1.212c0.625,-0.544 1.117,-1.188 1.477,-1.934c0.318,-0.653 0.464,-1.341 0.443,-2.065Z" style="fill:#010101;fill-rule:nonzero;"/><path d="M6.615,370.922c-0.024,0.188 -0.048,0.374 -0.071,0.562c-0.182,1.424 0.112,2.363 1.283,3.225c8.197,6.023 19.513,8.232 29.133,10.931c8.906,2.498 17.754,5.188 26.672,7.642c9.839,2.707 19.7,5.34 29.438,8.397c4.2,1.318 8.359,2.758 12.414,4.474c2.926,1.238 5.508,3.592 8.539,4.311c3.569,0.848 7.302,-3.364 6.333,-6.747c-0.845,-2.945 -4.244,-4.146 -6.828,-5.293c-4.139,-1.836 -8.402,-3.335 -12.7,-4.755c-10.467,-3.456 -21.169,-6.199 -31.81,-9.061c-9.325,-2.508 -18.571,-5.284 -27.896,-7.797c-6.028,-1.624 -12.044,-3.301 -17.958,-5.308c-3.715,-1.261 -9.708,-5.263 -13.574,-3.74c-1.312,0.514 -2.782,1.638 -2.975,3.159Z" style="fill:#010101;fill-rule:nonzero;"/><path d="M4.482,50.88c-4.823,11.897 -4.741,24.92 -4.271,37.563c0.538,14.476 2.342,28.875 3.525,43.304c2.538,30.95 0.142,62.432 -0.036,93.453c-0.183,32.105 2.161,64.073 2.419,96.152c0.08,10.037 0.012,20.074 -0.029,30.11c-0.023,5.645 -1.015,12.127 0.383,17.467c1.407,5.378 10.424,-0.315 9.143,-5.211c-0.094,-0.359 -0.188,-0.719 -0.282,-1.078c-1.268,-4.845 -8.042,-0.043 -8.694,2.801c-0.097,0.422 -0.193,0.842 -0.29,1.264c-1.489,6.489 8.252,4.2 9.391,-0.762c1.202,-5.237 0.285,-11.32 0.263,-16.695c-0.04,-9.697 -0.049,-19.395 -0.128,-29.09c-0.255,-31.396 -2.743,-62.688 -2.773,-94.104c-0.03,-30.553 2.108,-61.56 -0.321,-92.037c-1.141,-14.314 -3.401,-28.51 -4.753,-42.802c-1.287,-13.598 -0.701,-26.993 -0.238,-40.603c0.066,-2.003 -2.848,-0.868 -3.309,0.268Z" style="fill:#010101;fill-rule:nonzero;"/><path d="M4.186,51.661c1.22,0.628 1.913,2.286 3.405,3.095c3.384,1.836 7.204,3.107 10.79,4.502c7.513,2.923 15.184,5.294 22.819,7.854c13.235,4.436 26.744,8.539 39.76,13.578c5.743,2.223 11.669,3.948 17.469,6.012c2.199,0.782 4.336,1.707 6.559,2.419c1.888,0.604 4.07,0.669 5.82,1.635c-0.356,-0.585 -0.712,-1.171 -1.068,-1.756c0.154,-0.496 0.307,-0.992 0.46,-1.487c-1.856,1.773 -1.375,4.727 1.587,4.08c2.873,-0.627 5.515,-3.467 3.522,-6.299c-0.855,-1.216 -3.639,-1.446 -4.917,-1.739c-3.234,-0.743 -6.271,-2.068 -9.393,-3.175c-14.609,-5.182 -29.345,-10.019 -44.016,-15.03c-10.707,-3.657 -21.515,-7.003 -32.193,-10.739c-6.593,-2.308 -13.334,-5.573 -20.262,-3.948c-0.354,0.082 -0.81,0.757 -0.342,0.998Z" style="fill:#010101;fill-rule:nonzero;"/><path d="M385.789,107.362c6.9,-0.078 14.565,-3.762 20.949,-6c11.518,-4.038 22.889,-8.481 34.217,-13.02c10.229,-4.098 20.424,-8.333 30.392,-13.038c2.903,-1.371 12.408,-4.749 12.064,-8.572c-0.158,-1.755 -2.86,-0.543 -2.732,0.876c-0.088,-0.982 0.75,-1.096 -0.466,-0.28c-0.896,0.602 -1.801,1.171 -2.738,1.708c-3.196,1.833 -6.543,3.415 -9.874,4.984c-9.765,4.604 -19.739,8.776 -29.737,12.843c-10.329,4.2 -20.757,8.184 -31.265,11.913c-6.608,2.345 -13.376,4.935 -20.298,6.202c-1.204,0.222 -2.329,2.405 -0.512,2.384Z" style="fill:#010101;fill-rule:nonzero;"/><path d="M385.086,148.945c11.987,-4.777 23.718,-10.115 35.793,-14.701c12.05,-4.577 24.04,-9.225 35.986,-14.066c9.169,-3.716 18.146,-7.607 27.497,-10.79c1.595,-0.543 3.789,-0.826 4.219,-2.834c0.525,-2.452 -2.859,-1.99 -4.217,-1.876c-1.278,0.106 -2.949,2.71 -1.017,2.971c0.639,0.047 1.265,0.164 1.877,0.348c0.824,-2.107 0.805,-2.782 -0.059,-2.022c-1.001,0.732 -2.416,0.998 -3.579,1.358c-3.309,1.026 -6.25,2.136 -9.449,3.537c-9.729,4.261 -19.635,8.108 -29.45,12.162c-19.206,7.931 -39.974,13.765 -57.903,24.463c-0.708,0.422 -0.77,1.877 0.302,1.45Z" style="fill:#010101;fill-rule:nonzero;"/><path d="M389.644,186.399c1.583,3.221 35.492,-15.05 39.067,-16.776c11.485,-5.549 23.335,-10.354 34.948,-15.632c5.265,-2.393 10.438,-4.992 15.896,-6.912c1.896,-0.667 3.801,-1.305 5.708,-1.935c0.86,-0.284 1.708,-0.562 2.596,-0.744c0.833,-0.172 1.502,-0.029 0.382,-0.274c0.09,-1.088 0.179,-2.176 0.268,-3.264c-0.609,0.412 -1.299,0.716 -1.92,1.121c-0.907,0.591 -1.7,2.848 0.148,2.622c1.02,-0.124 1.98,-0.316 2.91,-0.766c1.289,-0.623 1.948,-2.746 0.268,-3.264c-1.826,-0.563 -5.576,1.618 -7.231,2.185c-3.351,1.147 -6.647,2.331 -9.859,3.824c-13.61,6.325 -27.461,12.17 -41.021,18.592c-8.186,3.877 -16.244,8.026 -24.373,12.022c-3.934,1.934 -7.893,3.812 -11.856,5.685c-1.395,0.659 -4.214,2.688 -5.444,2.884c-0.247,0.039 -0.634,0.334 -0.487,0.632Z" style="fill:#010101;fill-rule:nonzero;"/><path d="M385.839,223.13c18.404,-1.75 36.104,-11.092 52.223,-19.517c17.502,-9.148 34.826,-19.654 54.079,-24.655c1.795,-0.466 2.839,-3.7 0.308,-3.675c-2.352,0.023 -4.342,0.48 -6.141,2.05c-0.895,0.781 -0.679,2.621 0.803,2.062c1.367,-0.517 3.09,-0.321 4.529,-0.335c0.103,-1.225 0.205,-2.45 0.308,-3.675c-17.692,5.788 -34.054,14.62 -50.425,23.336c-17.953,9.56 -35.729,17.684 -55.527,22.542c-0.897,0.22 -1.442,1.989 -0.157,1.867Z" style="fill:#010101;fill-rule:nonzero;"/><path d="M387.099,260.185c17.756,-6.326 34.942,-14.461 52.322,-21.737c8.616,-3.607 17.266,-7.136 25.971,-10.522c8.484,-3.3 17.291,-5.85 25.74,-9.139c1.82,-0.709 2.406,-3.906 -0.176,-3.23c-8.165,2.137 -16.27,5.74 -24.145,8.791c-9.248,3.582 -18.408,7.389 -27.545,11.241c-17.557,7.401 -35.316,14.595 -52.563,22.695c-1.039,0.488 -0.976,2.389 0.396,1.901Z" style="fill:#010101;fill-rule:nonzero;"/><path d="M385.88,292.938c13.955,-0.979 28.051,-7.841 40.843,-13.045c8.649,-3.519 17.352,-6.888 25.919,-10.603c8.107,-3.515 16.184,-7.103 24.313,-10.568c3.04,-1.296 6.088,-2.575 9.172,-3.763c1.699,-0.654 3.525,-0.916 4.661,-1.892c-0.602,0.125 -1.203,0.25 -1.806,0.376c0.025,0.01 0.049,0.021 0.073,0.032c1.44,0.648 3.57,-1.896 1.979,-2.611c1.097,0.493 -0.444,-0.274 -0.782,-0.384c-0.802,-0.262 -1.529,0.01 -2.272,0.311c-2.862,1.159 -5.712,2.407 -8.563,3.609c-8.117,3.421 -16.156,7.029 -24.217,10.582c-7.763,3.421 -15.613,6.559 -23.46,9.78c-7.536,3.095 -15.062,6.197 -22.684,9.075c-7.585,2.865 -15.449,4.838 -23.05,7.605c-0.648,0.239 -1.205,1.572 -0.126,1.496Z" style="fill:#010101;fill-rule:nonzero;"/><path d="M387.104,325.271c19.608,-4.858 38.822,-12.491 57.901,-19.076c10.711,-3.696 21.419,-7.415 32.024,-11.405c2.254,-0.848 13.252,-3.358 12.622,-7.134c-0.343,-2.054 -3.491,-0.625 -3.215,1.031c0.002,0.016 0.005,0.03 0.008,0.046c0.372,-0.599 0.745,-1.197 1.117,-1.796c0.734,-0.474 -0.648,0.135 -1.218,0.391c-0.893,0.402 -1.862,1.061 -2.85,1.491c-3.548,1.552 -7.222,2.851 -10.851,4.195c-10.552,3.912 -21.184,7.61 -31.817,11.294c-17.884,6.194 -36.386,11.438 -53.842,18.764c-1.205,0.507 -1.661,2.64 0.121,2.199Z" style="fill:#010101;fill-rule:nonzero;"/><path d="M382.597,358.119c11.964,1.337 24.789,-3.367 35.781,-7.521c11.79,-4.456 24.016,-9.505 35.1,-15.519c7.021,-3.809 14.456,-6.942 21.734,-10.218c3.873,-1.743 7.739,-3.51 11.663,-5.135c1.092,-0.452 2.222,-0.64 3.239,-1.275c0.473,-0.297 2.676,-1.539 1.01,-0.81c1.65,-0.723 1.997,-3.888 -0.16,-2.943c-11.033,4.829 -25.089,10.766 -36.856,16.688c-22.581,11.364 -45.653,21.529 -70.858,24.824c-0.78,0.103 -1.921,1.768 -0.653,1.909Z" style="fill:#010101;fill-rule:nonzero;"/><path d="M3.494,80.897c8.848,6.261 20.075,9.475 30.315,12.675c11.771,3.678 23.534,7.051 35.056,11.484c11.234,4.323 22.621,8.282 33.823,12.675c4.153,1.628 8.764,2.587 12.756,4.332c0.064,-0.829 0.128,-1.658 0.192,-2.487c1.41,-1.178 0.271,-0.493 -1.345,-0.557c-0.87,-0.034 -2.185,1.704 -1.041,2.199c1.396,0.604 2.821,1.58 4.202,0.427c0.521,-0.435 1.178,-1.663 0.483,-2.256c-1.134,-0.967 -2.807,-1.123 -4.204,-1.448c-2.834,-0.661 -5.634,-1.651 -8.394,-2.569c-11.063,-3.678 -21.947,-8.058 -32.836,-12.219c-22.496,-8.594 -45.959,-13.688 -67.907,-23.709c-0.784,-0.358 -1.925,0.869 -1.1,1.453Z" style="fill:#010101;fill-rule:nonzero;"/><path d="M4.767,118.76c8.954,1.517 17.871,2.746 26.71,4.906c10.11,2.471 20.021,5.751 29.79,9.321c18.704,6.834 36.58,15.358 54.626,23.704c1.634,0.756 4.134,-2.022 2.303,-3.039c-1.68,-0.934 -3.049,-0.827 -4.92,-0.561c-0.886,0.126 -2.164,1.87 -0.735,2.148c1.271,0.248 2.309,0.692 3.352,1.452c0.768,-1.013 1.535,-2.026 2.303,-3.039c-18.463,-8.753 -37.472,-16.765 -56.721,-23.614c-17.571,-6.253 -37.405,-13.111 -56.303,-12.462c-0.532,0.018 -1.158,1.056 -0.405,1.184Z" style="fill:#010101;fill-rule:nonzero;"/><path d="M5.397,150.026c8.854,4.096 18.184,7.271 27.205,10.994c9.854,4.066 19.643,8.291 29.474,12.412c18.45,7.732 37.096,14.418 56.154,20.465c0.542,-1.151 1.085,-2.302 1.628,-3.453c-1.88,-0.202 -3.642,-0.563 -5.539,-0.556c-1.192,0.004 -2.445,2.158 -0.873,2.55c1.745,0.435 3.008,1.236 4.784,1.459c1.802,0.226 3.978,-2.938 1.628,-3.453c-19.845,-4.348 -38.898,-12.516 -57.597,-20.283c-18.223,-7.568 -36.612,-17.006 -55.779,-21.919c-0.827,-0.211 -2.08,1.324 -1.085,1.784Z" style="fill:#010101;fill-rule:nonzero;"/><path d="M6.62,192.731c19.606,6.989 40.09,11.747 59.863,18.328c10.163,3.383 20.185,7.385 30.116,11.39c3.99,1.609 7.94,3.057 12.023,4.412c0.889,0.294 8.175,3.294 8.119,2.728c0.125,1.273 1.759,0.866 2.28,0.11c2.725,-3.946 -8.292,-5.874 -10.202,-6.499c-10.84,-3.544 -21.37,-8.14 -32.099,-12.032c-10.829,-3.928 -21.832,-7.31 -32.892,-10.529c-11.944,-3.476 -24.187,-7.175 -36.498,-9.077c-0.518,-0.081 -1.401,0.923 -0.71,1.169Z" style="fill:#010101;fill-rule:nonzero;"/><path d="M10.815,226.475c5.205,2.058 11.224,3.542 16.712,5.415c10.435,3.559 20.779,7.369 31.077,11.306c11.412,4.362 22.505,9.314 33.614,14.405c5.81,2.662 11.556,5.515 17.723,7.23c2.066,0.575 4.125,1.17 6.168,1.823c1.096,0.351 2.163,0.759 3.208,1.237c1.431,0.656 2.197,-1.497 0.659,-0.992c-1.197,0.394 -2.073,2.668 -0.219,2.614c1.813,-0.052 5.684,-2.478 2.725,-4.165c-3.963,-2.261 -8.858,-3.142 -13.21,-4.354c-9.202,-2.564 -18.142,-7.874 -26.838,-11.795c-5.766,-2.599 -11.585,-5.006 -17.486,-7.272c-11.273,-4.33 -22.614,-8.505 -34.058,-12.364c-2.811,-0.948 -18.059,-7.676 -20.155,-3.449c-0.055,0.108 -0.059,0.305 0.08,0.361Z" style="fill:#010101;fill-rule:nonzero;"/><path d="M6.501,261.888c7.855,4.85 17.168,7.607 25.899,10.459c9.647,3.15 19.41,5.939 29.118,8.893c19.191,5.839 40.186,12.098 56.313,24.531c1.503,1.159 4.296,-2.02 2.424,-3.199c-16.989,-10.711 -35.043,-17.657 -54.222,-23.445c-9.742,-2.939 -19.551,-5.655 -29.281,-8.636c-9.903,-3.033 -19.469,-7.032 -29.342,-10.098c-0.715,-0.223 -1.675,1.022 -0.909,1.495Z" style="fill:#010101;fill-rule:nonzero;"/><path d="M14.625,303.306c0.404,2.177 2.748,2.962 4.543,3.913c3.937,2.085 8.107,3.789 12.221,5.489c11.89,4.916 23.932,9.463 35.945,14.065c11.9,4.56 23.824,9.065 35.649,13.816c4.011,1.611 8.019,3.245 11.949,5.047c1.186,0.543 2.322,1.205 3.513,1.729c1.612,0.71 0.835,0.804 1.358,-0.426c-0.794,1.864 1.859,1.931 2.484,0.463c1.607,-3.772 -10.135,-7.06 -12.165,-7.887c-11.512,-4.692 -23.192,-8.979 -34.833,-13.339c-12.708,-4.758 -25.424,-9.502 -38.035,-14.513c-4.787,-1.901 -9.576,-3.82 -14.289,-5.901c-2.461,-1.086 -5.038,-2.835 -7.732,-2.991c-0.262,-0.014 -0.669,0.213 -0.608,0.535Z" style="fill:#010101;fill-rule:nonzero;"/><path d="M10.833,339.62c18.711,3.771 37.338,9.027 55.733,14.076c11.329,3.108 22.659,6.369 33.729,10.315c4.435,1.581 12.863,3.659 15.367,7.947c0.786,1.347 2.468,0.216 2.803,-0.903c1.264,-4.221 -9.839,-7.376 -12.468,-8.387c-10.728,-4.123 -21.855,-7.234 -32.932,-10.256c-20.1,-5.481 -40.987,-11.709 -61.809,-13.691c-0.462,-0.043 -1.041,0.774 -0.423,0.899Z" style="fill:#010101;fill-rule:nonzero;"/></g></svg>