<?xml version="1.0" encoding="utf-8"?>
<!-- Generator: Adobe Illustrator 17.0.0, SVG Export Plug-In . SVG Version: 6.00 Build 0)  -->
<!DOCTYPE svg PUBLIC "-//W3C//DTD SVG 1.0//EN" "http://www.w3.org/TR/2001/REC-SVG-20010904/DTD/svg10.dtd">
<svg version="1.0" id="Layer_1" xmlns="http://www.w3.org/2000/svg" xmlns:xlink="http://www.w3.org/1999/xlink" x="0px" y="0px"
	 width="566.93px" height="566.93px" viewBox="0 0 566.93 566.93" enable-background="new 0 0 566.93 566.93" xml:space="preserve">
<path fill="#010101" d="M510.684,75.338c-2.095-4.594-6.826-7.699-11.404-9.387c-4.26-1.571-10.704-1.652-15.962,0.221
	c-0.896-28.441-28.811-45.095-55.151-44.383c-13.071,0.354-26.298,5.08-36.044,13.893c-4.757,4.302-8.453,10.011-10.777,15.963
	c-0.537,1.374-1.065,2.901-1.515,4.503c-1.757-2.416-4.161-4.469-6.996-5.915c-9.173-4.678-20.579-4.137-30.316-1.86
	c-9.969,2.332-20.038,7.604-26.229,15.944c-6.238,8.403-5.804,18.099-1.106,26.72c-6.533-1.662-13.714,1.669-19.094,6.445
	c-2.993,2.656-10.522,12.316-8.925,18.042c-6.447,1.429-10.815,7.94-11.083,15.226c-0.278,7.547,6.656,21.418,15.981,16.199
	c0.367-0.206,0.732-0.463,1.083-0.755c7.99,0.727,16.209,0.323,24.172,0.33c9.756,0.008,19.51-0.107,29.263-0.272
	c19.575-0.333,39.14-0.99,58.706-1.644c19.658-0.656,39.314-1.261,58.982-1.445c9.863-0.092,19.729-0.078,29.593,0.036
	c4.612,0.054,9.225,0.137,13.835,0.291c1.524,0.051,3.046,0.214,4.569,0.421c0.134,0.073,0.277,0.143,0.43,0.208
	c4.091,1.742,8.163,1.483,12.517,1.438c2.704-0.028,5.117-1.672,6.734-3.837c3.246-1.232,6.361-3.264,8.68-5.005
	c4.361-3.275,7.594-7.756,9.241-12.952c2.903-9.159-0.259-18.656-5.104-26.503c-4.581-7.417-12.369-13.889-20.988-15.782
	c-3.752-0.824-8.283-0.242-12.191,1.522C512.153,80.51,511.772,77.723,510.684,75.338z M521.524,90.169
	c6.071,2.663,10.747,8.042,14.003,13.684c3.224,5.589,5.351,12.327,3.842,18.758c-0.617,2.626-1.89,4.092-3.885,5.734
	c-1.658,1.365-3.893,2.087-6.135,2.887c-0.333-0.035-0.68-0.057-1.053-0.057c-4.691,0.005-9.594,0.275-14.213,1.1
	c-4.95,0.882-10.857-0.016-15.894-0.019c-9.897-0.007-19.795,0.135-29.69,0.346c-19.701,0.42-39.398,1.129-59.09,1.866
	c-19.607,0.734-39.212,1.549-58.822,2.172c-9.781,0.311-19.564,0.542-29.348,0.689c-9.057,0.136-18.306-0.393-27.353,0.339
	c-1.362-0.768-2.958-0.687-4.128-1.729c-1.921-1.709-3.023-3.989-3.807-6.39c-2.034-6.233,1.144-8.882,6.648-10.339
	c4.142-0.418,8.505-5.382,5.555-9.043c-0.233-0.289-0.507-0.699-0.692-0.951c0.038-0.303,0.093-0.803,0.175-1.039
	c0.785-2.251,2.208-4.317,3.853-6.025c4.838-5.027,11.738-6.476,18.499-5.52c0.753,0.105,2.119-0.927,1.738-1.754
	c3.561-1.404,6.934-6.124,4.568-9.573c-4.197-6.116-4.761-12.607-0.94-17.571c3.771-4.899,11.483-8.278,18.452-10.075
	c7.473-1.928,15.556-2.295,22.982,0.007c7.332,2.272,9.885,7.937,12.85,14.331c0.36,0.78,1.349,0.264,1.676-0.285
	c0.568-0.05,1.157-0.457,1.374-1.005c2.289-5.785,2.633-12.104,5.114-17.858c2.144-4.971,5.519-8.888,9.636-12.329
	c8.107-6.776,19.17-9.15,29.498-9.056c10.854,0.1,21.776,3.937,30.381,10.498c9.79,7.466,13.469,18.607,14.396,30.391
	c0.183,2.328,1.308,3.428,2.787,3.679c-0.024,0.264-0.048,0.53-0.054,0.804c-0.018,0.724,0.937,0.839,1.406,0.513
	c2.749-1.912,5.074-4.341,8.489-5.001c3.421-0.66,6.911,0.215,10.028,1.6c2.715,1.207,5.466,3.223,6.932,5.867
	c1.543,2.787-0.807,4.662,0.188,7.559c0.456,1.326,1.541,1.851,2.737,1.915c-0.609,1.051-1.081,2.184-1.344,3.415
	c-0.6,2.816,2.608,2.578,4.117,1.466c2.312-1.7,4.039-4.178,6.917-4.989C516.422,88.476,519.221,89.159,521.524,90.169z"/>
<path fill="#010101" d="M39.436,315.691c0.034,0.004,0.062,0.018,0.095,0.022C39.593,315.713,39.581,315.707,39.436,315.691z"/>
<path fill="#010101" d="M210.484,539.338c3.027-0.347,5.874-2.689,6.525-5.726c0.505-2.364-0.918-4.567-3.197-4.855
	c-0.076-2.686-0.948-5.655-0.724-7.92c0.836-8.48,1.694-16.959,1.836-25.485c0.329-19.911-0.06-39.744-0.286-59.656
	c-0.174-15.322-1.351-30.583-2.228-45.869c3.884-13.044,11.633-24.218,25.218-27.956c12.291-3.383,26.467,0.145,38.178,4.09
	c11.607,3.91,23.201,9.98,32.256,18.308c3.504,3.222,6.271,6.474,7.783,10.432c0.592,1.551,0.658,3.001,0.61,3.373
	c-0.026,0.208-0.066,0.413-0.112,0.618c-0.054,0.177-0.179,0.594-0.26,0.773c-0.437,0.97-0.809,2.255-0.751,3.336
	c0.232,4.383-0.025-0.526,0.158,0.893c0.166,1.288,0.904,2.319,1.911,2.887c-3.853,3.672-7.331,7.583-10.324,11.344
	c-9.28,11.659-17.142,29.015-8.818,42.487c-5.597,2.029-10.35,5.48-13.086,11.335c-3.109,6.651-2.542,15.158-1.224,22.434
	c-9.122,7.256-20.777,27.875-5.143,31.589c1.37,0.326,3.534-1.779,2.333-3.058c-7.635-8.116-1.686-20.729,7.484-25.034
	c1.313-0.617,2.354-2.236,2.296-3.689c-0.249-6.113-1.38-12.174-0.192-18.263c1.307-6.704,6.942-9.177,13.148-10.216
	c2.238-0.375,6.127-3.639,3.763-6.113c-11.124-11.644-3.688-27.756,4.521-38.727c4.9-6.548,10.947-12.393,17.611-17.132
	c4.999-3.555,10.874-7.158,17.171-7.334c3.621-0.102,5.796-6.796,1.354-6.314c-7.035,0.762-13.798,3.753-20.004,7.885
	c1.089-6.244-2.332-13.756-6.541-18.666c-8.344-9.733-20.662-16.154-32.461-20.633c-23.297-8.841-60.806-11.303-74.443,14.881
	c-1.337,2.567-2.258,5.257-2.884,8.02c-0.007-0.151-0.016-0.302-0.023-0.453c-0.41-8.813-0.607-17.638-0.299-26.455
	c0.326-9.328,1.938-18.406,3.282-27.608c0.436-2.984-3.617-2.296-4.413-0.206c-5.869,15.403-6.078,33.128-5.997,49.429
	c0.088,17.813,1.743,35.589,2.065,53.399c0.347,19.051,0.527,38.209,0.1,57.26c-0.207,9.19-0.552,18.384-1.424,27.538
	c-0.361,3.793-1.217,7.767-0.935,11.576c0.047,0.635,0.192,1.373,0.329,2.135c-0.468,0.771-0.765,1.58-0.781,2.257
	c-0.004,0.179-0.006,0.36-0.007,0.541c-21.319,4.414-43.842,4.121-65.447,3.861c-12.091-0.146-24.179-0.499-36.267-0.737
	c-10.526-0.208-21.255-0.76-31.754,0.333c0.188-0.564,0.287-1.169,0.263-1.815c-0.826-21.907-0.623-43.818-0.624-65.749
	c-0.001-19.161-0.824-38.314-0.724-57.473c0.088-16.658,0.51-33.336-0.826-49.961c-0.621-7.72-1.77-15.393-3.568-22.926
	c-0.884-3.701-2.106-7.258-3.611-10.751c-0.885-2.053-2.193-6.125-4.467-7.071c-3.951-1.646-6.61,4.438-4.015,5.588
	c1.49,0.978,2.812,7.156,3.279,8.638c1.094,3.476,1.988,7.029,2.705,10.6c1.5,7.472,2.162,15.102,2.627,22.698
	c0.982,16.093,0.398,32.239,0.242,48.347c-0.104,10.648,0.069,21.298,0.221,31.948c-6.361-2.127-11.492-6.813-16.271-11.854
	c-6.974-7.357-12.782-15.332-15.499-25.19c-3.428-12.435-2.792-26.935,2.612-38.679c5.329-11.581,15.542-19.418,25.33-27.04
	c0.604-0.469,0.391-1.553-0.488-1.255c-28.404,9.619-42.01,41.317-36.645,69.396c2.313,12.104,9.1,21.977,17.317,30.917
	c5.549,6.036,15.001,15.742,23.758,12.619c0.058,5.312,0.092,10.625,0.061,15.938c-0.128,21.287-0.667,42.557-1.465,63.82
	c-0.206,1.914,0.625,3.016,1.891,3.453c0.157,0.333,0.508,0.586,1.146,0.675c11.594,1.616,23.504,1.294,35.211,1.766
	c12.635,0.508,25.262,1.148,37.901,1.522C161.482,543.14,185.916,542.156,210.484,539.338z"/>
<path fill="#010101" d="M148.271,280.133c-6.177-2.281-14.554-0.505-18.968,4.659c-3.603,1.508-6.976,3.885-9.541,6.051
	c-6.595,5.567-11.108,13.495-11.323,22.203c-0.478,19.443,21.783,24.133,36.621,20.488c7.424-1.823,15.277-6.403,18.954-13.337
	c3.807-7.18,2.94-15.604,0.12-22.96C161.346,289.965,155.733,282.887,148.271,280.133z M157.417,318.079
	c-2.139,4.793-8.066,7.127-12.734,8.457c-11.66,3.321-25.925-0.078-29.814-12.754c-2.07-6.746,2.068-14.442,6.535-19.199
	c1.677-1.787,3.527-3.161,5.498-4.263c0.343,1.323,1.924,1.773,3.587,1.002c5.558-2.575,8.809-6.172,15.127-3.052
	c5.223,2.579,8.764,8.09,10.969,13.271C158.752,306.633,159.735,312.881,157.417,318.079z"/>
<path fill="#010101" d="M81.035,368.469c-0.999,6.437-1.229,13.052-1.03,19.553c0.111,3.579-0.286,11.847,4.041,13.237
	c0.207,0.066,0.429,0.04,0.644-0.035c4.343,2.186,9.479,2.173,14.247,2.313c6.188,0.184,12.524-1.456,18.618-1.115
	c4.217,0.235,6.081-3.288,5.805-5.862c0.172-0.895,0.289-1.775-0.051-2.663c-0.228-0.594-0.374-0.907-0.468-1.064
	c0.002-0.097,0.001-0.214-0.006-0.38c-0.223-4.68-0.356-9.363-0.705-14.036c-0.749-10.028-5.496-20.6-15.462-24.363
	C96.485,350.207,82.7,357.746,81.035,368.469z M114.317,385.608c0.038,1.992,0.047,3.985,0.053,5.978
	c0.002,0.919-0.016,1.837-0.034,2.756c-0.016,0.76-0.608,2.299,0.098,0.867c-0.111,0.225-0.199,0.461-0.286,0.698
	c-8.884,1.893-18.96,0.243-27.74,1.02c0.04-2.637-0.704-5.513-0.836-7.929c-0.316-5.779,0.099-11.616,0.842-17.347
	c0.254-1.964,0.592-3.919,1.025-5.851c0.523-2.332,5.25-4.828,7.279-5.627c4.82-1.898,9.73,0.496,13.132,3.896
	C113.796,370.015,114.168,377.87,114.317,385.608z"/>
<path fill="#010101" d="M192.418,373.824c-1.375-10.834-6.643-21.339-18.869-21.504c-10.652-0.145-16.955,9.091-19.904,18.254
	c-1.715,5.333-2.644,10.841-3.205,16.405c-0.408,4.047-0.946,8.796,0.631,12.626c-0.452,0.827-0.404,1.812,0.722,2.189
	c7.168,2.406,15.277,2.21,22.801,2.015c2.589-0.067,5.177-0.159,7.764-0.269c0.48-0.021,0.959-0.044,1.44-0.069
	c0.146,0.031,0.319,0.066,0.532,0.106c0.264,0.049,0.54,0.071,0.82,0.077c1.139,0.159,2.514-0.204,3.772-0.888
	c-0.248,0.461,0.229,0.224,1.447-0.73c0.73-0.636,1.306-1.389,1.726-2.26c0.015-0.031,0.023-0.067,0.037-0.099
	c0.184-0.367,0.316-0.743,0.379-1.121c-0.007,0.008-0.013,0.015-0.021,0.022c0.176-0.739,0.257-1.511,0.29-2.24
	c0.081-1.871,0.167-3.742,0.229-5.613C193.199,385.087,193.129,379.423,192.418,373.824z M154.445,397.889
	c2.035-6.718,1.807-14.268,3.34-21.139c1.479-6.641,4.427-17.117,12.607-17.738c17.099-1.299,13.44,23.163,12.488,36.485
	c-2.201,0.181-4.406,0.342-6.608,0.495C168.929,396.498,161.615,396.24,154.445,397.889z"/>
<path fill="#010101" d="M126.388,404.81c-7.513,2.093-15.077,2.698-22.841,2.911c-7.352,0.201-14.892-0.068-21.998,2.055
	c-0.74,0.223-2.166,2.016-0.857,2.495c6.695,2.456,14.304,2.338,21.367,2.396c7.827,0.065,15.852,0.059,23.6-1.143
	C131.602,412.602,133.42,402.851,126.388,404.81z"/>
<path fill="#010101" d="M184.61,408.348c-4.141,0.484-8.148,0.807-12.32,0.981c-7.082,0.296-14.815-0.191-21.753,1.226
	c-0.974,0.198-2.144,1.802-1.296,2.702c5.039,5.348,16.516,3.69,23.143,3.661c2.641-0.011,5.201-0.068,7.834-0.249
	c1.108-0.075,2.235-0.043,3.347-0.032c0.169,0.211,0.368,0.416,0.63,0.609c3.52,2.594,8.809-2.327,8.86-5.82
	C193.123,406.999,187.353,408.027,184.61,408.348z M185.059,416.762C186.043,416.946,185.703,417.276,185.059,416.762
	L185.059,416.762z"/>
<path fill="#010101" d="M112.024,475.207c-11.858,0.807-23.969-0.007-35.508,2.968c-1.631,0.42-2.978,3.187-0.82,3.829
	c7.438,2.217,15.791,1.494,23.468,1.413c3.961-0.041,7.917-0.063,11.878-0.013c3.841,0.05,6.859,0.68,10.112-1.759
	c1.661-1.244,2.563-3.908,1.212-5.658c-0.107-0.14-0.215-0.279-0.323-0.42c-0.168-0.218-0.386-0.403-0.631-0.558
	c0.486-3.29-0.658-7.273-0.448-10.374c0.468-6.884,0.825-13.791-0.452-20.613c-2.128-11.359-11.899-20.021-23.818-17.523
	c-9.373,1.964-13.902,12.856-15.829,21.094c-1.116,4.77-1.437,9.815-1.324,14.701c0.067,2.903-0.018,9.426,3.171,10.919
	c1.646,0.77,3.331-0.698,3.792-2.207c0.697-2.274-0.25-5.297-0.435-7.629c-0.289-3.663-0.073-7.363,0.411-10.999
	c0.819-6.127,2.537-15.018,8.187-18.648c2.981-1.916,6.71-0.933,9.708,0.385c5.269,2.314,7.693,6.825,8.639,12.311
	c0.934,5.421,0.475,11.104-0.086,16.538c-0.219,2.126-0.575,4.249-0.595,6.39c-0.01,1.097,0.033,2.195,0.036,3.292
	c0.001,0.267-0.067,1.184-0.088,1.85C112.184,474.729,112.098,474.966,112.024,475.207z"/>
<path fill="#010101" d="M180.017,468.101c0.324,1.187,1.743,1.655,2.824,1.576c9.778-0.72,6.969-16.766,5.757-22.708
	c-2.103-10.304-6.874-19.239-18.493-19.276c-9.9-0.031-15.796,7.688-18.26,16.498c-1.938,6.925-3.521,19.969,1.479,25.994
	c0.88,1.061,2.618-0.24,2.807-1.26c1.721-9.259-3.518-34.044,11.598-34.548c8.623-0.287,11.225,9.758,12.199,16.47
	c0.491,3.383,0.684,6.957,0.369,10.367C180.075,463.62,179.365,465.71,180.017,468.101z"/>
<path fill="#010101" d="M144.204,478.915c4.566,1.61,9.82,0.808,14.58,0.649c5.096-0.169,10.126-0.354,15.221-0.091
	c6.335,0.327,15.086,2.411,17.636-5.409c0.479-1.467-0.22-3.551-1.677-4.213c-1.365-0.62-2.585-0.579-3.802-0.228
	c-0.437,0.075-0.9,0.16-1.039,0.187c-1.16,0.211-2.318,0.355-3.493,0.448c-2.356,0.184-4.718,0.315-7.078,0.444
	c-9.455,0.515-20.96,0.273-29.582,4.646C144.021,475.83,142.495,478.312,144.204,478.915z"/>
<path fill="#010101" d="M493.047,264.758c-31.256-7.365-65.914-1.503-94.365,12.785c-6.478,3.253-12.829,7.273-18.655,11.957
	c-1.464-8.701-10.555-18.669-15-23.357c-11.969-12.62-25.699-23.726-39.849-33.8c-4.577-3.26-9.301-6.884-14.644-8.766
	c-8.313-2.928-17.515-2.949-26.163-1.791c-19.354,2.592-38.545,12.01-51.764,26.441c-3.309,3.613-6.384,8.019-8.17,12.765
	c-14.437-12.619-32.444-23.75-51.234-28.116c-3.499-5.623-7.965-10.421-14.312-12.852c-6.621-2.536-13.937-2.229-20.799-0.999
	c-15.183,2.721-29.434,10.356-43.337,16.762c-30.854,14.216-66.268,40.582-63.145,78.906c0.023,0.29,0.098,0.522,0.209,0.708
	c-0.103,0.414-0.175,0.823-0.222,1.236c-0.542,1.69,0.317,3.522,1.816,4.534c1.844,1.246,4.156,1.395,6.089,0.489
	c-0.236,0.338-0.458,0.69-0.661,1.058c-0.707,1.278,0.49,2.724,1.875,2.138c3.078-1.303,5.609-3.393,8.305-5.341
	c4.347-3.145,8.735-6.235,13.122-9.324c11.972-8.429,24.052-16.705,36.124-24.99c10.664-7.319,21.35-14.608,31.951-22.019
	c3.111-2.176,6.171-4.072,9.524-5.839c0.865-0.455,1.661-0.958,2.388-1.559c5.014,5.967,11.752,11.055,17.544,15.968
	c7.497,6.359,15.139,12.543,22.402,19.171c7.176,6.548,13.91,13.384,20.563,20.459c3.117,3.315,6.295,6.568,9.582,9.715
	c1.613,1.544,3.289,3.02,4.981,4.476c0.431,0.371,2.452,1.773,3.967,2.931c0.023,0.154,0.057,0.306,0.107,0.452
	c1.141,3.34,3.623,4.468,6.83,3.027c0.593-0.267,1.13-0.698,1.57-1.22c2.133-0.204,4.32-1.303,6.099-2.362
	c1.871-1.113,3.938-2.626,4.971-4.633c3.229-0.398,6.394-2.956,6.258-6.443c-0.017-0.426-0.109-0.805-0.244-1.157
	c1.003-0.973,1.759-2.206,2.096-3.543c1.483-5.903,1.306-11.608-0.028-17.044c18.667,3.733,37.69,4.797,56.704,3.367
	c10.215-0.768,20.595-2.454,30.322-5.725c3.994-1.343,7.905-3.111,11.461-5.377c0.773-0.493,1.506-1.045,2.247-1.581
	c-0.075,0.086,0.166-0.027,1.219-0.673c2.318-1.422,3.667-3.031,3.786-5.81c0.07-1.655-1.662-2.691-3.138-2.53
	c-1.841,0.202-3.649,0.953-4.741,2.543c-0.259,0.378-1.376,1.538-1.167,1.457c-0.427,0.316-0.863,0.616-1.312,0.909
	c-3.316,2.163-7.025,3.601-10.765,4.841c-9.361,3.107-19.26,4.33-29.036,5.263c-18.477,1.762-37.709,2.279-56.256,0.871
	c-3.32-10.614-10.935-20.113-19.067-27.91c7.782-17.077,22.941-27.601,40.708-33.413c8.795-2.878,18.444-4.462,27.683-3.314
	c6.635,0.824,11.768,3.528,17.164,7.206c13.572,9.251,26.398,19.916,38.012,31.523c5.302,5.3,10.545,11.193,14.314,17.708
	c1.263,2.181,2.533,4.68,2.969,7.185c0.084,0.484,0.111,0.974,0.132,1.465c-0.356,0.735-0.705,1.193-0.904,2.122
	c-0.459,2.144,0.016,1.045-0.101,1.711c-0.165,0.949-0.081,1.697,0.169,2.28c-11.282,12.601-18.443,28.32-16.699,46.008
	c0.412,4.185,1.346,8.339,2.538,12.365c1.155,3.902,7.897,0.071,7.266-3.215c-12.904-67.336,77.771-91.284,127.818-77.692
	c12.074,3.279,23.662,9.231,32.478,18.203c11.665,11.872,17.188,29.053,19.562,45.17c5.42,36.793-4.817,82.52-34.129,107.464
	c-6.885,5.859,0.25,13.934,7.105,8.096c33.317-28.375,45.982-78.925,39.763-121.017c-2.696-18.247-9.382-37.123-22.833-50.24
	C521.405,274.411,507.44,268.15,493.047,264.758z M136.41,252.452c0.028-0.036,0.055-0.072,0.083-0.108
	c-0.029,0.108-0.05,0.218-0.07,0.327C136.418,252.598,136.414,252.525,136.41,252.452z M238.916,311.559
	c-0.279-0.127-0.548-0.258-0.79-0.399c-2.906-1.696-5.395-4.964-7.854-7.253c-2.721-2.533-5.492-5.01-8.27-7.48
	c-5.474-4.87-11.029-9.648-16.535-14.482c-10.002-8.781-20.827-16.48-31.483-24.436c-11.208-8.367-21.423-17.461-31.64-26.975
	c-1.695-1.579-4.73,1.137-3.453,3.029c0.13,0.193,0.268,0.38,0.4,0.571c-0.565-0.112-1.2-0.092-1.882,0.101
	c-3.666,1.042-5.723,4.446-8.648,6.652c-4.254,3.209-8.42,6.535-12.605,9.831c-8.224,6.475-16.441,12.902-25.316,18.469
	c-9.922,6.223-20.176,11.893-29.959,18.342c-8.325,5.486-18.581,12.053-23.327,21.135c-1.24,2.371,1.797,3.228,3.323,1.821
	c7.868-7.252,15.379-13.931,24.463-19.735c9.778-6.25,20.009-11.759,29.851-17.906c8.212-5.131,15.857-11.127,23.494-17.063
	c3.955-3.075,7.898-6.167,11.881-9.207c3.313-2.527,7.404-3.713,10.197-6.825c0.642-0.715,0.969-1.487,1.047-2.224
	c5.918,7.458,13.431,13.813,20.734,19.78c9.207,7.524,18.8,14.562,28.032,22.052c9.21,7.472,17.844,15.764,26.559,23.803
	c4.501,4.152,8.92,8.392,13.227,12.746c1.349,1.364,2.986,2.44,4.622,3.422c0.331,0.199,1.358,0.562,1.896,0.979
	c-0.004,0.02-0.01,0.04-0.014,0.061c-1.301,0.828-2.348,2.003-3.654,2.833c-1.158,0.738-2.416,1.31-3.594,2.01
	c-0.973-0.896-2.247-1.385-3.432-2.032c-2.164-1.183-4.125-3.059-6.016-4.614c-3.946-3.249-7.639-6.808-11.298-10.372
	c-6.943-6.763-13.609-13.826-20.951-20.166c-7.435-6.42-14.883-12.79-22.448-19.061c-7.062-5.854-13.522-12.573-20.579-18.399
	c-0.038-0.299-0.101-0.592-0.186-0.851c-0.82-2.515-3.418-2.296-5.501-0.897c0.033-0.042,0.065-0.085,0.098-0.127
	c-0.243,0.158-0.436,0.283-0.606,0.395c-0.548,0.327-1.089,0.651-1.561,1.1c-2.631,2.512,0.241-0.229-1.03,1.1
	c-0.461,0.482-0.93,0.957-1.398,1.432c-3.031,3.07-6.651,5.372-10.174,7.841c-10.821,7.586-21.709,15.079-32.572,22.604
	c-11.322,7.843-22.641,15.691-33.859,23.682c-4.141,2.948-8.259,5.922-12.295,9.013c-1.254,0.961-2.538,1.909-3.714,2.957
	c0.113-0.462,0.106-0.928-0.105-1.334c-0.512-0.985-1.355-1.616-2.461-1.769c-0.253,0.002-1.801-0.097-1.037-0.051
	c-0.366-0.021-0.728-0.083-1.085-0.157c-0.06-0.012-0.089-0.016-0.126-0.023c-0.029-0.014-0.047-0.024-0.093-0.043
	c-0.18-0.078-0.76-0.318-0.927-0.378c-0.062-0.034-0.124-0.069-0.183-0.108c-0.021-0.019-0.038-0.034-0.068-0.06
	c-0.142-0.129-0.281-0.226-0.42-0.305c-0.045-0.076-0.091-0.155-0.135-0.237c0.064-0.151,0.114-0.304,0.13-0.463
	c1.154-11.925,3.539-22.952,9.621-33.404c5.863-10.073,14.8-18.313,24.209-25.021c16.799-11.976,36.952-20.618,56.599-26.705
	c8.632-2.675,18.754-4.976,27.553-1.712c3.851,1.429,7.657,4.321,9.628,7.983c0.983,1.829,1.322,5.127,3.269,6.181
	c1.771,0.959,4.284,1.181,6.214,1.787c18.693,5.881,36.689,18.212,50.32,32.08C232.062,284.297,242.167,297.91,238.916,311.559z"/>
<path fill="#010101" d="M427.245,355.199c-9.647-7.03-19.625-15.538-25.852-25.831c-0.475-0.783-2.079,0.421-1.657,1.183
	c5.8,10.487,11.944,19.454,20.693,27.728c4.154,3.93,8.558,7.585,12.849,11.361c3.892,3.424,7.76,9.101,12.405,11.282
	c0.533,0.25,1.156,0.328,1.808,0.282c0.966,17.276,3.329,34.393,4.667,51.636c1.276,16.457,2.265,32.93,3.302,49.402
	c0.51,8.099,0.98,16.197,1.6,24.289c0.508,6.614,0.208,14.525,2.604,20.771c1.832,4.778,7.867-0.38,8.102-3.583
	c0.475-6.482-1.284-13.53-1.928-20.003c-0.797-8.036-1.47-16.089-2.049-24.145c-0.868-12.054-1.609-24.125-2.596-36.173
	c1.749-0.488,3.451-1.774,4.525-2.947c11.117-12.162,19.375-26.863,25.617-42.044c3.213-7.817,5.876-15.888,8.17-24.019
	c1.209-4.289,2.309-8.63,3.105-13.016c0.74-4.079,0.294-8.291,0.804-12.389c0.141-1.138-1.419-0.708-1.592,0.13
	c-1.57,7.627-4.758,15.309-6.988,22.8c-2.435,8.177-5.444,16.161-8.921,23.949c-6.134,13.741-13.88,27.747-25.615,37.486
	c-0.097-1.009-0.188-2.018-0.29-3.025c-1.72-17.004-4.617-33.855-6.514-50.839c-0.104-0.935-0.198-1.871-0.289-2.806
	c0.08-0.492,0.035-0.996-0.138-1.498c-1.451-16.127-1.109-32.31-2.635-48.393c-0.097-1.015-1.465-0.347-1.609,0.326
	c-2.917,13.567-2.656,27.694-1.987,41.631c-1.841-1.257-3.776-2.403-5.475-3.608C436.667,361.807,431.897,358.588,427.245,355.199z"
	/>
<path fill="#010101" d="M365.585,400.435c4.281,2.429,7.901,5.864,11.219,9.457c3.324,3.602,6.187,7.666,8.617,11.914
	c2.129,3.72,2.677,7.686,4.339,11.441c1.799,4.063,8.556,0.145,7.903-3.496c-0.725-4.048-3.584-8.148-5.666-11.693
	c-2.748-4.682-6.066-8.965-9.789-12.908c-5.85-6.198-15.979-14.627-25.201-12.916c-1.303,0.242-3.469,2.368-1.641,3.467
	C358.548,397.611,362.315,398.58,365.585,400.435z"/>
<path fill="#010101" d="M440.464,521.873c2.966-10.435-0.021-21.999-5.716-30.988c-2.772-4.376-6.21-8.334-11.003-10.523
	c-0.448-0.204-1.003-0.402-1.612-0.571c1.699-15.716-9.19-35.136-25.989-36.858c-0.787-0.083-2.438,1.153-1.513,1.981
	c5.415,4.844,11.213,8.489,15.464,14.562c4.827,6.898,5.202,14.988,3.271,22.918c-0.78,3.207,1.694,4.076,4.18,3.408
	c1.579,0.828,3.326,1.53,4.14,2.217c3.124,2.637,5.51,6.178,7.377,9.771c3.269,6.288,6.485,16.052,3.24,22.97
	c-0.749-0.997-1.452-1.897-1.954-2.601c-3.748-5.25-8.1-10.093-12.447-14.847c-4.172-4.564-8.561-8.941-13.164-13.071
	c-0.767-0.689-1.776-1.628-2.913-2.557c0.209-0.204,0.407-0.427,0.591-0.671c0.698,0.483,1.765,0.694,2.466,0.566
	c2.514-0.458,4.156-1.252,5.174-3.729c0.544-1.324,0.848-3.079-0.269-4.24c-4.895-5.091-9.448-10.436-14.575-15.317
	c-4.908-4.672-10.85-10.763-17.781-11.967c-1.601-0.28-3.209,1.609-2.334,3.057c3.344,5.528,9.332,9.782,13.663,14.572
	c3.15,3.484,6.295,7.133,9.176,10.933c-1.046,0.368-2.298,0.316-3.379,0.394c-2.369,0.17-4.754-0.028-7.128-0.014
	c-4.423,0.027-8.888,0.309-13.304,0.55c-3.109,0.17-7.077-0.312-9.834,1.369c-0.415,0.255-0.775,0.695-0.75,1.207
	c0.321,6.851,18.604,4.319,22.741,4.447c2,0.062,4.451,0.496,6.886,0.708c1.681,2.194,4.645,4.371,5.921,5.648
	c4.081,4.087,8.025,8.267,11.794,12.647c3.826,4.448,7.402,9.094,10.697,13.949c1.009,1.487,1.959,3.005,2.841,4.566
	c-0.25-0.024-0.504-0.044-0.789-0.032c-23.434,0.96-46.938,2.478-70.33,4.245c-11.725,0.887-23.459,1.63-35.203,2.207
	c-10.041,0.492-20.231,0.363-30.276,1.193c1.426-3.285,2.57-6.694,4.182-9.929c2.354-4.728,4.963-9.333,7.744-13.821
	c4.593-7.414,10.415-15.629,17.095-21.502c3.642-0.016,7.294-0.121,10.84,0.337c1.838,0.237,3.709-0.679,4.789-2.175
	c0.076-0.105,0.152-0.211,0.229-0.316c0.913-1.268,1.152-2.617,0.305-3.957c-0.061-0.096-0.121-0.191-0.183-0.287
	c-0.673-1.063-2.532-1.066-3.547-0.695c-3.579,1.309-8.569,0.889-12.341,1.118c-2.793,0.171-5.562,0.262-8.323,0.462
	c2.446-4.25,5.274-8.31,7.832-12.479c3.41-5.559,5.906-11.312,8.778-17.109c5.167-0.316,10.382-1.175,15.431-1.245
	c4.912-0.067,7.959-9.146,1.846-8.613c-7.214,0.63-14.615,1.93-21.767,3.74c0.129-0.236,0.249-0.483,0.348-0.753
	c3.024-8.245,7.978-15.89,12.597-23.312c2.576-4.142,5.367-8.145,7.948-12.28c1.729-2.77,3.154-5.885,4.812-8.754
	c11.855,12.926,20.961,28.427,33.212,40.94c-7.99-0.364-19.696,0.101-19.309,4.115c0.299,3.096,6.036,2.84,8.271,3.054
	c4.691,0.448,9.406,1.312,14.105,1.567c1.831,0.099,3.951-1.266,5.185-2.918c4.247-0.47,8.189-6.954,4.057-8.915
	c-8.733-4.144-14.765-13.74-20.887-20.891c-6.626-7.738-13.47-15.694-23.384-18.966c0.212-0.32,0.423-0.642,0.646-0.951
	c0.833-1.151-0.672-1.684-1.435-0.776c-2.982,3.551-6.635,6.532-9.641,10.134c-3.133,3.752-5.875,7.884-8.666,11.893
	c-5.311,7.625-9.981,15.598-14.816,23.519c-1.51,2.474-1.044,4.256,0.205,5.182c-0.476,0.146-0.958,0.283-1.43,0.433
	c-0.69,0.219-2.11,1.958-0.829,2.406c3.709,1.298,7.558,1.594,11.45,1.483c-3.654,4.924-7.852,9.481-11.482,14.448
	c-3.798,5.199-7.439,10.664-11.836,15.386c-3.951,4.246,2.274,7.552,5.9,4.224c2.265,0.56,4.585,0.796,6.929,0.892
	c-7.094,4.286-12.236,10.74-17.334,17.536c-3.387,4.514-6.401,9.283-9.312,14.112c-2.648,4.395-5.928,9.14-7.77,13.928
	c-2.085,5.425,3.332,6.365,6.743,3.906c9.229,1.101,18.747,0.593,27.978,0.44c12.324-0.203,24.64-0.854,36.955-1.347
	c21.804-0.872,43.471-2.113,65.258-1.64c0.514,0.507,1.328,0.763,2.534,0.573c1.391-0.219,2.552-0.224,3.734-0.406
	c0.045,0.002,0.091,0.002,0.136,0.004c0-0.008-0.001-0.015-0.001-0.023c0.797-0.132,1.608-0.351,2.51-0.784
	c1.029-0.494,1.867-1.384,2.443-2.404c0.09,0.21,0.198,0.433,0.343,0.682c2.87,4.962,9.309,0.111,9.521-4.211
	c0.038-0.765-0.183-1.63-0.555-2.536C438.06,525.989,439.865,523.982,440.464,521.873z M421.125,527.184
	c-0.001-0.017-0.002-0.034-0.003-0.05C422.254,526.954,422.246,526.972,421.125,527.184z"/>
<path fill="#010101" d="M352.056,538.737c-3.414,0.244-7.539,0.061-10.783,1.293c-1.842,0.699-5.04,4.448-2.037,5.924
	c2.556,1.255,6.134,1.079,8.909,1.284c3.831,0.283,8.106,0.884,11.922,0.268c3.557-0.575,9.004-7.79,3.031-8.861
	C359.592,538.015,355.583,538.486,352.056,538.737z"/>
<path fill="#010101" d="M16.127,189.606c0.604,1.454,1.598,2.09,2.717,2.166c0.232,0.489,0.684,0.894,1.432,1.124
	c4.248,1.305,9.232,0.904,13.652,0.961c5.039,0.065,10.076,0.096,15.115-0.004c10.751-0.213,21.498-0.565,32.244-0.941
	c10.088-0.353,20.123-1.308,30.199-1.866c5.046-0.28,10.098-0.411,15.15-0.421c3.67-0.008,6.869,1.638,9.994-0.926
	c4.974,0.304,8.726-3.792,9.725-8.442c0.818-3.811-0.775-7.527-2.768-10.666c-2.152-3.391-5.584-5.912-9.316-7.28
	c-2.84-1.041-5.383-1.233-7.884-0.723c-0.008-0.127-0.009-0.251-0.026-0.381c-0.943-7.341-3.137-13.393-9.143-18.064
	c-5.508-4.285-12.479-6.336-19.373-6.827c-6.217-0.443-13.266,0.357-18.5,4.034c-0.49,0.344-1.07,0.829-1.676,1.412
	c-4.978-7.171-10.958-13.199-20.28-13.968c-8.877-0.733-17.128,3.266-23.965,8.588c-6.462,5.031-11.714,12.32-13.655,20.326
	c-0.802,3.306-0.611,8.243,1.119,11.996c-2.378,0.824-4.492,3.179-5.64,5.233c-1.257,2.249-1.739,4.795-1.604,7.355
	C13.791,185.062,15.11,187.157,16.127,189.606z M26.808,157.137c1.426-6.082,6.099-11.169,10.891-14.886
	c11.915-9.242,27.413-4.988,31.708,9.769c0.643,2.207,2.658,2.698,4.763,2.136c0.115,0.108,0.236,0.213,0.369,0.315
	c0.702,0.534,1.889-0.196,2.296-0.763c0.405-0.562,0.733-1.109,1.024-1.639c1.071-1.003,1.872-2.258,2.099-3.611
	c0.684-0.827,1.598-1.542,3.052-2.108c4.236-1.647,9.163-1.36,13.542-0.562c8.355,1.524,20.717,8.495,18.438,18.717
	c-1.21,5.43,4.783,5.867,8.547,3.315c4.465,0.572,8.455,3.336,11.196,6.804c1.292,1.635,2.269,3.705,2.501,5.785
	c-0.088,0.058-0.177,0.114-0.263,0.175c-0.151-0.046-0.302-0.093-0.456-0.119c-3.309-0.554-6.473,0.999-9.813,1.021
	c-5.06,0.034-10.116,0.291-15.166,0.595c-10.085,0.608-20.132,1.508-30.226,2.004c-10.148,0.498-20.299,0.949-30.454,1.308
	c-8.15,0.288-17.25-0.271-25.483,1.107c0.366-1.412-0.006-2.768-1.635-3.572c-2.11-1.042-2.555-4.113-2.086-6.16
	c0.305-1.334,1.764-2.134,3.24-2.584c0.834,0.425,1.77,0.703,2.823,0.783c1.587,0.119,3.295-1.327,2.828-3.014
	c-0.66-2.38-2.68-4.512-3.591-6.899C25.988,162.527,26.205,159.71,26.808,157.137z"/>
<path fill="#010101" d="M247.742,513.611c-0.125,2.082,2.078,3.268,3.871,3.123c2.453-0.199,4.172-1.878,5.369-3.871
	c2.358-3.922,3.061-9.212,4.203-13.65c1.367-5.312,2.459-10.69,3.409-16.091c1.208-6.867,2.061-13.828,2.562-20.802
	c3.863-2.226,6.196-7.247,8.358-10.912c2.829-4.797,5.258-9.813,7.467-14.923c2.184-5.052,3.805-10.462,5.051-15.814
	c1.373-5.896,0.987-11.727,1.574-17.702c0.139-1.411-1.779-0.894-1.978,0.159c-1.107,5.924-3.667,11.57-5.619,17.261
	c-1.736,5.061-3.811,9.958-6.146,14.769c-2.277,4.695-5.049,8.986-8.18,13.147c0.09-19.563-2.422-38.971-8.371-57.653
	c-0.254-0.796-1.466,0.015-1.424,0.63c0.765,11.167,1.531,22.375,1.862,33.585c-3.041-1.311-5.885-4.638-8.178-6.801
	c-3.061-2.888-5.735-6.181-8.264-9.534c-2.723-3.609-4.992-7.51-6.907-11.6c-1.583-3.381-3.673-6.937-4.636-10.538
	c-0.357-1.346-2.388,0.048-2.352,1.041c0.158,4.433,0.216,8.222,1.865,12.416c1.615,4.104,3.882,7.935,6.257,11.635
	c2.57,4.006,5.64,7.632,8.747,11.223c2.738,3.164,6.707,5.832,8.883,9.37c1.018,1.654,3.026,1.331,4.735,0.187
	c0.075,7.253-0.069,14.503-0.563,21.74c-0.54,7.911-1.479,15.784-2.798,23.597c-3.63-2.247-7.785-4.108-9.013-5.107
	c-10.661-8.673-19.085-19.07-26.147-30.881c-0.484-0.81-1.855,0.076-1.523,0.867c4.789,11.421,10.139,22.582,18.568,31.832
	c3.654,4.009,7.654,8.027,12.109,11.141c1.252,0.874,2.602,1.847,4.023,2.448c-0.765,3.455-1.625,6.89-2.542,10.308
	C250.648,503.305,248.056,508.375,247.742,513.611z"/>
<path fill="#010101" d="M141.211,300.282c-2.12,0.271-3.8,2.189-3.339,4.332c0.79,3.664,6.676,5.604,5.801,9.322
	c-0.014-0.051-0.244,0.403-0.723,0.968c0.245-0.289-0.988,0.708-1.08,0.766c-1.377,0.864-2.928,1.44-4.67,1.747
	c-3.438,0.607-7.51,0.353-10.045-2.338c-1.691-1.795-1.802-4.65-1.306-6.907c0.899-4.086,6.384-5.567,9.806-6.434
	c0.568-0.146,1.125-1.218,0.302-1.408c-9.068-2.092-18.122,6.426-15.931,15.659c1.576,6.64,7.832,9.071,14.078,8.876
	c6.465-0.203,13.234-3.742,16.43-9.421C153.886,309.49,148.438,299.357,141.211,300.282z"/>
<path fill="#010101" d="M379.643,180.374c1.825,0,3.323-1.78,3.611-3.399c4.948,3.202,9.87,6.449,14.796,9.69
	c-6.902,5.792-13.466,11.97-19.438,18.787c-3.016,3.441,2.121,5.438,4.672,2.525c0.556-0.635,1.126-1.256,1.693-1.88
	c-0.794,1.671-0.472,3.61,1.999,3.61c3.346,0,5.622-5.984,1.281-5.984c-0.512,0-0.993,0.152-1.436,0.389
	c4.903-5.178,10.181-9.979,15.682-14.529c0.215,0.14,0.43,0.28,0.645,0.42c0.41,9.038,1.382,18.06,2.688,27.042
	c0.436,2.996,3.992,2.18,5.539,0.225c0.38,0.266,0.895,0.436,1.602,0.436c3.346,0,5.622-5.984,1.281-5.984
	c-0.967,0-1.837,0.507-2.491,1.218c-0.868-6.205-1.583-12.442-2.052-18.695c5.598,3.582,11.245,7.083,17.004,10.399
	c-1.861,1.678-2.341,5.062,0.924,5.062c1.541,0,2.845-1.271,3.391-2.64c0.619,0.343,1.229,0.701,1.851,1.039
	c2.901,1.577,7.373-3.687,4.129-5.449c-9.52-5.174-18.692-10.922-27.771-16.821c-0.019-0.532-0.035-1.065-0.051-1.597
	c6.123-4.74,12.424-9.255,18.706-13.71c2.566-1.819,2.159-5.749-0.117-5.669c-0.303-0.667-0.984-1.136-2.19-1.136
	c-2.331-0.001-4.136,2.903-3.551,4.665c-4.345,3.104-8.668,6.247-12.921,9.477c0.022-3.613,0.158-7.225,0.42-10.833
	c0.038,0.001,0.066,0.01,0.105,0.01c3.346,0,5.622-5.984,1.281-5.984c-0.317,0-0.62,0.068-0.913,0.165
	c-0.114-2.761-3.482-2.504-5.175-0.78c-0.181-0.027-0.365-0.052-0.577-0.052c-3.345-0.001-5.622,5.984-1.281,5.984
	c0.185,0,0.365-0.025,0.543-0.059c-0.425,5.135-0.603,10.271-0.578,15.404c-4.774-3.139-9.542-6.286-14.332-9.397
	c0.169-0.024,0.335-0.058,0.494-0.109c1.622-0.518,2.918-2.039,2.954-3.763c0.278-0.385,0.501-0.8,0.612-1.315
	c0.15-0.707,0.052-1.482-0.44-2.043c-1.08-1.229-3.312-0.725-4.315,0.348c-0.33,0.353-0.684,0.683-0.959,1.079
	c-0.459,0.659-0.668,1.153-0.912,1.909c-0.199,0.622-0.206,1.302-0.207,1.951c0,0.058,0.018,0.104,0.022,0.159
	c-0.282-0.182-0.563-0.367-0.846-0.548c-2.418-1.553-6.151,2.232-4.968,4.554C377.224,175.443,375.697,180.374,379.643,180.374z
	 M391.78,168.813c-0.129,0.188-0.275,0.362-0.458,0.51C391.482,169.152,391.635,168.984,391.78,168.813z"/>
<path fill="#010101" d="M378.309,203.707c3.346,0,5.622-5.984,1.281-5.984C376.245,197.722,373.968,203.707,378.309,203.707z"/>
<path fill="#010101" d="M428.924,173.723c-3.345-0.001-5.622,5.984-1.281,5.984C430.989,179.707,433.265,173.723,428.924,173.723z"
	/>
<path fill="#010101" d="M400.977,215.041c3.346,0,5.622-5.984,1.281-5.984C398.913,209.056,396.636,215.041,400.977,215.041z"/>
<path fill="#010101" d="M433.643,198.374c3.346,0,5.622-5.984,1.281-5.984C431.579,192.389,429.302,198.374,433.643,198.374z"/>
<path fill="#010101" d="M215.561,188.423c-0.821-0.934-2.268-0.86-3.371-0.318c-0.393-0.259-0.782-0.524-1.176-0.781
	c-2.751-1.798-7.243,3.414-4.127,5.449c0.216,0.141,0.43,0.287,0.646,0.429c-0.876,1.07-1.574,2.606-0.524,3.803
	c1.091,1.243,3.289,0.703,4.313-0.35c0.185-0.19,0.357-0.387,0.536-0.58c3.467,2.336,6.91,4.714,10.358,7.085
	c-2.941,2.83-5.823,5.721-8.684,8.613c-0.201-0.234-0.416-0.461-0.637-0.682c-1.229-1.23-3.144-0.678-4.313,0.349
	c-1.039,0.909-2.135,3.004-0.909,4.231c0.302,0.303,0.594,0.614,0.857,0.95c0.011,0.026,0.026,0.051,0.036,0.078
	c0.005,0.024,0.008,0.049,0.014,0.072c-0.221,0.223-0.443,0.447-0.665,0.668c-3.023,3.028,0.328,6.966,3.406,3.883
	c4.281-4.289,8.545-8.723,12.942-13.03c0.081,3.498,0.269,6.99,0.629,10.474c-0.594,0.629-1.134,1.312-1.612,2.017
	c-0.807,1.191-1.308,3.132,0.271,3.987c0.661,0.358,1.435,0.347,2.17,0.125c0.04,0.238,0.074,0.477,0.116,0.715
	c0.587,3.29,4.857,1.951,5.983-0.423c0.173,0.161,0.353,0.315,0.52,0.482c1.23,1.229,3.143,0.679,4.314-0.349
	c1.034-0.908,2.135-3.005,0.906-4.231c-0.873-0.872-1.907-1.915-3.217-2c-0.444-0.03-0.849-0.015-1.243,0.063
	c0.1-0.226,0.183-0.455,0.233-0.687c0.347-1.623-0.762-2.743-2.324-2.74c-0.214-2.292-0.351-4.588-0.44-6.886
	c3.093,2.072,6.214,4.097,9.374,6.06c-0.062,0.264-0.106,0.534-0.106,0.811c0,0.889,0,1.778,0,2.667
	c0,1.729,1.894,2.272,3.267,1.834c1.013-0.323,1.9-1.041,2.433-1.953c0.673,0.391,1.337,0.796,2.016,1.178
	c2.876,1.62,7.352-3.634,4.129-5.449c-0.636-0.358-1.258-0.739-1.889-1.104c-0.136-0.313-0.359-0.578-0.677-0.778
	c1.314-1.773,1.346-4.385-1.524-4.385c-1.297,0-2.428,0.901-3.08,2.003c-4.345-2.686-8.613-5.499-12.843-8.372
	c3.354-2.983,6.824-5.814,10.467-8.392c1.348,1.833,2.917,3.495,4.204,5.377c0.98,1.432,3.335,0.509,4.314-0.35
	c1.227-1.078,1.89-2.795,0.906-4.232c-1.103-1.611-2.418-3.057-3.621-4.59c3.312-2.024,1.972-7.261-1.936-4.933
	c-0.647,0.385-1.283,0.788-1.92,1.19c-0.008-0.105-0.014-0.222-0.019-0.374c-0.058-1.718-1.851-2.287-3.267-1.834
	c-1.597,0.511-3.019,2.089-2.96,3.83c0.027,0.801,0.209,1.582,0.394,2.359c-2.66,1.953-5.233,4.026-7.741,6.183
	c0.058-3.495,0.146-6.992,0.199-10.487c0.74-1.207,0.897-2.673,0.038-3.466c0.001-0.195,0.004-0.39,0.005-0.585
	c0.015-3.709-5.43-1.551-6.147,1.377c-3.151,0.386-5.132,5.947-0.941,5.947c0.277,0,0.542-0.053,0.801-0.128
	c-0.047,2.683-0.11,5.367-0.16,8.051c-2.771-1.907-5.543-3.813-8.331-5.691C216.183,189.865,216.147,189.091,215.561,188.423z"/>
<path fill="#010101" d="M500.653,242.656c0.043-0.032,0.088-0.061,0.131-0.093c0.302,0.671,0.983,1.144,2.193,1.144
	c2.497,0,4.394-3.329,3.395-5.021c2.035-1.346,4.1-2.646,6.198-3.896c0.129,3.664,0.359,7.32,0.76,10.961
	c-3.197,0.3-5.247,5.956-1.021,5.956c0.634,0,1.228-0.216,1.747-0.563c0.138,0.857,0.286,1.714,0.448,2.569
	c0.658,3.487,5.439,1.763,6.171-0.875c2.724-1.025,4.124-5.78,0.249-5.78c-0.321,0-0.628,0.069-0.925,0.169
	c-0.465-3.286-0.777-6.585-0.981-9.894c2.906,1.665,5.872,3.252,8.862,4.823c-1.71,1.726-2.061,4.886,1.097,4.886
	c1.51,0,2.794-1.218,3.359-2.555c0.183,0.096,0.366,0.191,0.549,0.287c2.926,1.532,7.392-3.74,4.129-5.449
	c-1.112-0.582-2.223-1.161-3.333-1.739c1.418-1.771,1.525-4.528-1.423-4.528c-1.344,0-2.507,0.97-3.146,2.126
	c-2.923-1.554-5.811-3.146-8.626-4.838c3.83-2.034,7.717-3.96,11.64-5.787c-0.529,1.546-0.063,3.148,2.183,3.148
	c2.794,0,4.826-4.16,2.899-5.537c2.796-1.912,1.311-6.327-2.54-4.602c-0.272,0.122-0.542,0.25-0.813,0.373
	c0.388-1.459-0.147-2.884-2.266-2.884c-2.689-0.001-4.681,3.863-3.105,5.379c-3.314,1.58-6.593,3.231-9.829,4.961
	c-0.019-3.3,0.009-6.602,0.036-9.9c2.712-1.038,4.098-5.774,0.232-5.774c-0.067,0-0.13,0.017-0.196,0.021
	c0-0.231,0.002-0.463,0.003-0.694c0.006-3.109-3.809-2.091-5.466,0.042c-3.16,0.37-5.153,5.948-0.956,5.948
	c0.059,0,0.116-0.015,0.174-0.019c-0.024,3.319-0.059,6.642-0.061,9.966c-2.424-1.805-4.746-3.764-6.948-5.91
	c2.157-1.532,2.923-5.355-0.55-5.355c-1.312,0-2.452,0.923-3.1,2.042c-2.521-0.698-6.156,3.03-4.151,5.24
	c0.144,0.159,0.295,0.307,0.44,0.464c-2.416,1.34-3.459,5.572,0.196,5.572c1.366,0,2.544-1,3.176-2.18
	c2.373,2.208,4.881,4.209,7.48,6.075c-2.172,1.327-4.318,2.697-6.43,4.122c-0.25-0.774-0.952-1.335-2.277-1.335
	c-2.61-0.001-4.554,3.635-3.226,5.235C493.919,241.541,497.305,245.127,500.653,242.656z"/>
<path fill="#010101" d="M8.84,256.555c-2.078,2.522,0.104,5.429,2.698,4.21c0.344,0.565,1.015,0.942,2.105,0.942
	c2.691,0,4.682-3.864,3.104-5.38c2.148-1.825,4.364-3.559,6.631-5.221c0.376,3.554,0.763,7.107,1.15,10.66
	c-3.119,0.443-5.052,5.941-0.885,5.941c0.53,0,1.027-0.162,1.482-0.415c0.015,0.14,0.03,0.28,0.045,0.42
	c0.381,3.444,4.977,1.87,6.022-0.695c3.224-0.251,5.312-5.96,1.065-5.96c-0.47,0-0.915,0.127-1.328,0.33
	c-0.37-3.381-0.734-6.763-1.094-10.145c4.008,1.841,8.024,3.669,11.943,5.685c-1.621,1.746-1.896,4.78,1.198,4.78
	c1.433,0,2.665-1.099,3.27-2.355c0.436,0.25,0.874,0.496,1.306,0.754c2.832,1.689,7.314-3.549,4.129-5.449
	c-1.123-0.67-2.263-1.306-3.41-1.928c2.546-1.22,3.733-5.671-0.014-5.671c-1.961-0.001-3.542,2.053-3.651,3.755
	c-4.035-2.023-8.161-3.87-12.26-5.764c3.651-2.284,7.392-4.435,11.182-6.5c-1.391,1.772-1.48,4.492,1.448,4.492
	c3.336,0,5.604-5.944,1.317-5.981c0.756-0.402,1.514-0.802,2.273-1.198c3.297-1.724,2.278-6.452-1.208-5.258
	c0.01-1.016-0.499-1.961-1.681-2.181c-1.703-0.314-3.489,0.942-4.183,2.438c-0.483,1.042-0.761,2.137-0.789,3.235
	c-4.047,2.225-8.041,4.554-11.933,7.036c-0.249-2.403-0.495-4.806-0.74-7.209c0.426-0.397,0.787-0.862,1.039-1.354
	c0.037-0.072,0.117-0.213,0.186-0.334c0.103-0.15,0.204-0.302,0.315-0.446c0.059-0.076,0.16-0.194,0.25-0.297
	c0.055-0.055,0.109-0.112,0.164-0.167c1.037-1.039,2.099-2.874,0.907-4.231c-0.912-1.039-2.551-0.825-3.679-0.134
	c-0.58-1.513-2.345-1.483-3.826-0.663c-0.385-0.353-0.969-0.573-1.797-0.573c-3.346-0.001-5.623,5.984-1.283,5.984
	c0.365,0,0.712-0.082,1.044-0.208c0.288,2.859,0.586,5.718,0.88,8.576c-2.206-1.186-4.37-2.449-6.477-3.823
	c0.555-1.561,0.104-3.195-2.164-3.195c-1.962-0.001-3.545,2.054-3.653,3.757c-0.318,0.446-0.559,0.93-0.674,1.42
	c-2.287,1.443-3.188,5.473,0.377,5.473c1.095,0,2.069-0.645,2.741-1.507c2.63,1.67,5.35,3.168,8.117,4.579
	c-2.181,1.601-4.312,3.269-6.387,5.009c-0.182-0.13-0.367-0.258-0.564-0.364c-0.305-0.165-0.61-0.311-0.895-0.51
	c-1.254-0.934-2.94-0.468-4.073,0.526c-0.65,0.57-1.164,1.335-1.348,2.188c-0.138,0.647-0.084,1.553,0.44,2.043
	C8.03,256.006,8.42,256.305,8.84,256.555z"/>
</svg>
