<?xml version="1.0" encoding="UTF-8" standalone="no"?><!DOCTYPE svg PUBLIC "-//W3C//DTD SVG 1.1//EN" "http://www.w3.org/Graphics/SVG/1.1/DTD/svg11.dtd"><svg width="100%" height="100%" viewBox="0 0 532 434" version="1.1" xmlns="http://www.w3.org/2000/svg" xmlns:xlink="http://www.w3.org/1999/xlink" xml:space="preserve" style="fill-rule:evenodd;clip-rule:evenodd;stroke-linejoin:round;stroke-miterlimit:1.41421;"><g id="wolf"><path d="M5.274,132.225c6.263,-1.514 12.193,-3.784 18.593,-4.912c7.897,-1.392 16.163,-1.976 24.118,-0.78c5.747,0.864 12.458,2.951 15.095,8.629c2.594,5.583 0.711,14.523 -2.396,19.587c-6.339,10.327 -19.83,11.311 -30.405,8.067c-5.608,-1.72 -10.585,-5.378 -14.259,-9.884c-1.955,-2.397 -3.261,-5.151 -4.259,-8.063c-1.074,-3.137 -1.005,-7.754 -4.441,-9.274c-1.756,-0.778 -3.404,0.219 -4.569,1.518c-5.529,6.167 -0.421,16.451 3.538,22.129c4.018,5.763 10.309,9.878 16.854,12.188c13.381,4.722 29.441,2.528 39.772,-7.685c9.71,-9.6 14.904,-29.973 2.11,-39.104c-6.14,-4.383 -14.641,-4.896 -21.905,-4.974c-8.604,-0.094 -17.415,1.293 -25.683,3.63c-4.604,1.301 -9.632,2.758 -13.345,5.893c-1.478,1.247 -0.956,3.551 1.182,3.035Z" style="fill:#010101;fill-rule:nonzero;"/><path d="M40.302,118.374c16.908,-2.066 33.391,-6.411 50.393,-8.155c18.522,-1.9 37.019,-2.284 55.619,-2.589c4.036,-0.066 7.419,-4.166 7.503,-7.975c0.69,-31.359 8.703,-61.281 21.121,-89.972c-3.75,1.229 -7.499,2.459 -11.248,3.688c17.931,26.513 28.206,57.37 35.078,88.405c0.327,1.477 2.167,2.68 3.563,2.861c0.208,0.026 0.417,0.054 0.625,0.081c5.271,0.683 9.789,-3.771 10.08,-8.847c0.003,-0.048 0.005,-0.097 0.008,-0.146c0.09,-1.544 -1.028,-3.101 -2.319,-3.816c-1.283,-0.712 -4.405,-2.593 -1.556,-0.127c-4.87,-4.214 -14.426,4.404 -9.688,8.503c-0.74,-2.229 -0.87,-2.364 -0.39,-0.404c0.228,0.788 0.29,0.874 0.188,0.258c1.039,-2.166 2.078,-4.331 3.117,-6.497c-0.044,0.041 -0.088,0.081 -0.132,0.121c2.809,-0.584 5.617,-1.168 8.425,-1.752c-0.179,-0.076 -0.357,-0.151 -0.536,-0.228c0.683,0.778 1.366,1.557 2.048,2.334c-8.375,-31.755 -19.077,-62.919 -37.635,-90.292c-2.905,-4.283 -9.861,0.479 -11.248,3.689c-12.902,29.882 -23.396,63.208 -21.946,96.128c2.501,-2.658 5.002,-5.316 7.503,-7.974c-18.729,1.692 -37.547,2.911 -56.201,5.311c-17.833,2.292 -37.18,5.631 -52.476,15.565c-0.634,0.413 -1.184,1.987 0.104,1.83Z" style="fill:#010101;fill-rule:nonzero;"/><path d="M208.912,96.667c3.597,-13.911 2.276,-28.322 3.734,-42.512c0.988,-9.609 1.66,-19.266 3.635,-28.744c0.875,-4.2 1.983,-8.347 3.856,-12.22c0.519,-1.072 1.292,-1.941 1.63,-2.222c-0.945,0.786 -0.787,0.675 -1.869,0.61c1.15,0.068 1.933,0.692 2.943,1.648c1.988,1.881 3.576,4.234 5.07,6.51c8.534,13 13.471,28.916 18.349,43.55c4.216,12.649 8.006,25.434 11.271,38.359c0.12,0.473 0.249,0.94 0.391,1.407c1.167,3.868 6.342,3.357 9.042,1.817c3.5,-1.998 5.575,-5.661 4.663,-9.63c-1.138,-4.947 -5.912,-6.639 -10.3,-4.578c-4.393,2.063 -4.52,6.726 -3.735,10.787c4.679,-2.069 9.356,-4.139 14.037,-6.209c-3.205,-11.892 -7.322,-23.697 -11.302,-35.348c-5.233,-15.326 -10.83,-30.975 -19.086,-44.974c-5.492,-9.313 -14.792,-20.275 -25.887,-11.262c-6.69,5.436 -8.603,15.853 -9.971,23.824c-1.634,9.509 -2.454,19.149 -3.119,28.77c-0.962,13.915 -0.313,27.909 -0.444,41.847c-0.044,4.577 6.38,1.324 7.092,-1.43Z" style="fill:#010101;fill-rule:nonzero;"/><path d="M42.135,176.078c1.122,10.569 6.933,20.91 11.864,30.156c1.522,2.854 5.004,0.817 6.16,-1.255c5.866,-10.509 11.675,-21.034 19.627,-30.146c-2.029,-0.099 -4.059,-0.196 -6.089,-0.296c1.215,11.956 6.886,21.78 12.858,31.949c1.811,3.083 5.708,1.106 7.02,-1.43c5.473,-10.575 11.891,-21.094 20.756,-29.178c-1.971,-0.105 -3.941,-0.209 -5.913,-0.314c2.435,11.676 7.356,24.631 16.297,32.896c1.668,1.542 4.149,0.982 5.721,-0.464c10.234,-9.427 16.455,-22.086 23.487,-33.875c-2.579,0.525 -5.157,1.051 -7.736,1.576c5.305,9.91 8.126,21.091 15.369,29.904c1.763,2.145 5.662,0.54 6.862,-1.426c3.681,-6.019 7.579,-11.911 10.971,-18.101c1.529,-2.791 6.046,-13.508 -1.436,-12.279c-2.628,0.432 -6.925,4.781 -3.279,6.933c-1.662,-0.981 -0.193,-3.835 -1.279,-1.514c-0.411,0.879 -0.668,1.901 -1.05,2.803c-1.044,2.465 -2.346,4.828 -3.627,7.175c-2.325,4.258 -4.92,8.35 -7.41,12.51c2.497,-0.818 4.994,-1.638 7.49,-2.457c-6.914,-8.197 -9.614,-18.792 -14.632,-28.096c-1.952,-3.621 -6.224,-0.974 -7.735,1.576c-6.149,10.364 -11.546,21.828 -20.514,30.125c1.907,-0.154 3.814,-0.309 5.722,-0.463c-8.556,-7.86 -13.313,-19.947 -15.704,-31.104c-0.584,-2.725 -4.614,-1.509 -5.913,-0.313c-9.916,9.123 -17.3,20.817 -23.244,32.822c2.194,-0.721 4.388,-1.439 6.582,-2.159c-5.682,-9.201 -11.532,-18.324 -12.704,-29.323c-0.382,-3.586 -4.561,-2.06 -6.089,-0.296c-8.3,9.584 -14.435,20.718 -20.373,31.854c2.053,-0.418 4.107,-0.836 6.16,-1.255c-5.255,-9.3 -8.74,-19.717 -14.465,-28.69c-1.083,-1.698 -3.91,0.689 -3.754,2.155Z" style="fill:#010101;fill-rule:nonzero;"/><path d="M55.834,210.782c1.338,12.217 13.623,18.91 23.86,22.992c13.92,5.551 29.202,7.65 44.097,7.979c18.601,0.408 37.669,-2.143 55.965,-5.332c16.443,-2.867 34.023,-8.32 50.809,-5.376c0.616,-2.874 1.23,-5.748 1.848,-8.623c-2.602,1.063 -4.735,1.903 -6.829,3.786c-1.477,1.328 -2.339,4.432 0.316,5.005c2.47,0.532 4.535,0.23 6.97,-0.354c3.268,-0.786 7.076,-7.965 1.849,-8.624c-15.792,-1.988 -31.282,1.348 -46.705,4.447c-16.834,3.383 -34.065,5.744 -51.207,6.771c-15.703,0.939 -31.437,-0.563 -46.678,-4.443c-11.662,-2.97 -25.383,-8.438 -31.672,-19.386c-0.728,-1.269 -2.762,-0.11 -2.623,1.158Z" style="fill:#010101;fill-rule:nonzero;"/><path d="M168.44,116.726c-0.48,1.91 -0.975,3.813 -1.323,5.752c-0.379,2.111 -0.264,4.309 -0.701,6.412c-0.624,3.003 1.474,5.433 4.55,5.184c3.139,-0.254 6.411,-2.95 6.971,-6.118c0.725,-4.109 0.537,-8.423 0.653,-12.589c0.1,-3.575 -3.975,-4.658 -6.729,-3.776c-3.583,1.145 -5.817,4.247 -6.097,7.89c-0.188,2.435 -0.277,4.825 -0.212,7.268c0.034,1.32 0.866,3.195 2.232,3.675c0.181,0.063 0.359,0.125 0.539,0.188c2.55,0.895 4.978,0.357 7.034,-1.463c2.432,-2.152 3.386,-4.364 3.469,-7.556c0.055,-2.093 -0.066,-4.142 -0.235,-6.226c-0.283,-3.501 -3.688,-4.75 -6.729,-3.776c-3.305,1.056 -6.199,4.299 -6.097,7.89c0.101,3.558 -0.146,7.332 0.533,10.829c0.604,3.107 3.116,4.438 6.169,3.464c3.627,-1.16 6.196,-4.774 5.318,-8.545c0.212,0.911 -0.063,-1.263 -0.083,-1.457c-0.12,-1.119 -0.24,-2.238 -0.359,-3.357c-0.221,-2.045 -0.953,-4.094 -1.527,-6.063c-0.465,-1.598 -2.505,-1.818 -3.826,-1.396c-1.731,0.551 -3.108,2.013 -3.55,3.77Z" style="fill:#010101;fill-rule:nonzero;"/><path d="M189.669,120.786c-1.625,4.265 -2.481,8.622 -2.937,13.159c-0.915,9.117 12.151,6 12.889,-1.044c0.517,-4.923 1.496,-9.767 1.619,-14.742c-4.709,1.51 -9.418,3.02 -14.127,4.528c0.053,2.738 0.679,5.405 0.876,8.131c0.663,9.159 15.042,2.896 14.318,-4.59c-0.262,-2.708 -0.951,-5.347 -1.068,-8.069c-0.167,-3.889 -4.172,-5.196 -7.412,-4.161c-3.726,1.191 -6.71,4.715 -6.715,8.689c-0.005,4.305 -0.877,8.52 -0.515,12.845c4.385,-1.406 8.771,-2.812 13.156,-4.218c-0.335,-3.784 -0.05,-7.544 -0.813,-11.28c-1.039,-5.093 -7.776,-3.172 -9.271,0.752Z" style="fill:#010101;fill-rule:nonzero;"/><path d="M180.24,178.613c2.149,-0.885 3.896,-2.312 6.159,-3.014c2.924,-0.907 6.021,-1.139 9.07,-0.985c6.113,0.31 12.484,2.351 17.541,5.816c2.979,2.043 5.712,5.682 2.754,8.823c-7.8,8.283 -21.582,9.347 -31.224,14.512c-1.066,0.572 -2.466,3.509 -0.298,3.633c12.384,0.712 28.452,-5.413 36.971,-14.653c5.044,-5.472 3.792,-12.651 -1.853,-16.948c-6.243,-4.754 -14.477,-6.154 -22.13,-6.337c-5.368,-0.128 -16.976,1.306 -18.337,8.066c-0.159,0.799 0.584,1.402 1.347,1.087Z" style="fill:#010101;fill-rule:nonzero;"/><path d="M284.656,111.43c19.307,9.19 43.042,7.798 63.834,6.354c23.741,-1.647 47.373,-5.076 71.186,-5.641c22.156,-0.526 44.843,2.25 63.971,14.198c22.865,14.283 31.179,38.569 31.531,64.436c0.384,28.229 4.854,56.328 3.994,84.571c2.896,-2.543 5.795,-5.086 8.692,-7.629c-1.182,-0.117 -1.935,-0.599 -3.067,-1.075c-4.229,-1.779 -12.722,4.865 -8.198,8.797c1.979,1.721 3.211,3.172 5.89,3.688c4.434,0.852 8.563,-3.441 8.693,-7.63c0.503,-16.12 -0.846,-32.17 -2.16,-48.222c-1.247,-15.21 -1.145,-30.459 -2.28,-45.649c-0.933,-12.457 -4.012,-24.871 -10.166,-35.796c-6.01,-10.669 -15.069,-19.008 -25.373,-25.464c-18.925,-11.858 -41.928,-14.569 -63.801,-14.327c-24.002,0.268 -47.695,4.494 -71.498,7.082c-23.231,2.525 -45.711,2.585 -68.7,-1.877c-1.9,-0.37 -4.932,3.049 -2.548,4.184Z" style="fill:#010101;fill-rule:nonzero;"/><path d="M480.364,165.136c2.079,3.282 2.812,8.301 3.685,12.056c1.353,5.807 2.013,11.745 2.522,17.676c1.183,13.724 2.351,27.49 4.19,41.143c2.201,16.341 5.966,52.517 30.198,49.085c5.979,-0.848 10.935,-11.072 2.433,-11.345c-1.227,-0.038 -2.622,0.696 -3.756,0.573c-2.181,-0.236 -5.862,2.3 -4.571,4.872c0.58,1.157 1.019,2.228 1.481,3.437c2.281,-2.961 4.563,-5.921 6.846,-8.882c-3.401,0.596 -5.947,0.125 -8.373,-1.98c-3.221,-2.798 -5.131,-6.711 -6.713,-10.586c-4.586,-11.238 -6.213,-23.682 -7.896,-35.616c-1.819,-12.925 -3.485,-25.978 -6.706,-38.644c-2.251,-8.854 -4.408,-17.598 -11.886,-23.35c-0.795,-0.612 -1.933,0.806 -1.454,1.561Z" style="fill:#010101;fill-rule:nonzero;"/><path d="M219.255,254.719c0.822,12.001 1.928,23.938 2.195,35.977c0.277,12.445 -0.222,24.907 -0.509,37.35c-0.55,23.743 -0.317,48.746 8.175,71.264c1.601,-2.57 3.199,-5.142 4.799,-7.711c-12.805,4.702 -31.034,17.993 -20.184,33.247c3.333,4.685 9.617,6.853 15.167,6.273c7.963,-0.828 13.862,-6.976 17.321,-13.755c-3.473,0.707 -6.943,1.414 -10.415,2.121c2.954,6.728 8.844,11.616 16.13,12.894c8.438,1.478 15.496,-4.024 19.381,-10.996c-3.317,1.089 -6.635,2.177 -9.952,3.265c5.663,5.965 13.622,5.638 19.931,0.653c5.1,-4.028 12.107,-12.24 10.294,-19.34c-0.58,-2.271 -2.191,-4.02 -3.795,-5.646c-2.381,-2.418 -4.13,-5.11 -6.11,-7.846c-1.626,-2.244 -3.677,-4.221 -5.074,-6.627c-2.554,-4.395 -3.434,-9.605 -4.408,-14.516c-7.679,-38.691 -16.401,-76.98 -14.229,-116.76c0.383,-7.01 -10.605,-2.582 -11.472,2.317c-0.28,1.593 -1.613,3.165 -1.932,4.913c-0.99,5.451 5.858,4.634 8.139,1.534c1.927,-2.616 4.479,-3.653 5.146,-7.367c-3.824,0.771 -7.647,1.545 -11.471,2.316c-1.936,33.365 3.26,66.799 10.025,99.374c1.688,8.122 3.467,16.229 5.175,24.35c1.335,6.348 3.781,11.604 7.959,16.534c3.478,4.104 6.684,8.289 10.248,12.318c0.587,0.663 0.427,1.049 0.494,0.271c-0.123,1.391 -1.687,2.92 -2.466,3.94c-2.194,2.873 -3.932,4.14 -6.83,1.133c-3.249,-3.371 -8.213,0.101 -9.952,3.265c-3.581,6.513 -12.712,-2.138 -14.487,-6.104c-2.23,-4.98 -8.714,-1.263 -10.415,2.121c-2.781,5.531 -8.189,6.808 -12.751,1.762c-6.887,-7.613 5.363,-13.828 11.056,-15.995c2.833,-1.079 6.124,-4.352 4.799,-7.711c-8.833,-22.407 -9.291,-46.208 -9.604,-69.977c-0.163,-12.284 -0.207,-24.561 -1.093,-36.819c-0.804,-11.129 -2.443,-22.752 -7.483,-32.819c-0.467,-0.933 -1.86,-0.033 -1.802,0.797Z" style="fill:#010101;fill-rule:nonzero;"/><path d="M411.544,241.626c-1.903,12.924 -1.426,26.324 -1.476,39.368c-0.052,13.303 0.443,26.487 1.859,39.722c2.625,24.541 7.463,49.393 5.343,74.164c2.276,-1.998 4.552,-3.994 6.827,-5.991c-14.088,2.4 -29.283,20.047 -23.428,34.669c7.262,18.126 32.063,2.566 38.732,-7.758c-3.42,-0.166 -6.84,-0.332 -10.26,-0.498c0.466,6.733 2.633,14.112 9.307,17.104c5.729,2.566 12.332,0.943 17.586,-1.97c11.963,-6.632 16.508,-21.882 3.832,-30.165c-4.531,-2.961 -11.086,3.802 -9.52,8.354c4.107,11.936 18.354,23.95 29.91,12.451c13.379,-13.312 1.281,-33.615 -7.479,-45.574c-6.009,-8.203 -12.102,-16.188 -14.901,-26.125c-3.543,-12.571 -6.376,-25.316 -7.952,-38.289c-1.496,-12.303 -1.381,-24.581 -0.737,-36.931c0.631,-12.118 1.792,-25.012 -1.422,-36.873c-1.264,-4.662 -8.119,-1.756 -9.841,0.798c-0.711,1.053 -1.42,2.104 -2.131,3.155c-3.662,5.431 2.532,10.231 6.994,5.547c0.876,-0.92 1.752,-1.84 2.628,-2.76c-2.978,-0.583 -5.956,-1.166 -8.934,-1.749c1.305,10.146 1.666,19.934 1.184,30.165c-0.485,10.298 -1.247,20.573 -0.519,30.88c0.763,10.801 2.091,21.397 4.348,31.999c2.186,10.267 4.234,21.111 9.063,30.51c7.16,13.933 21.778,25.358 23.473,41.628c0.254,2.44 0.141,4.881 -0.962,7.09c0.18,-0.359 1.183,-0.862 -0.049,-0.158c0.807,-0.461 -0.496,-0.118 -0.985,-0.188c-5.563,-0.787 -8.849,-7.323 -10.456,-11.978c-3.173,2.785 -6.347,5.568 -9.521,8.354c2.556,1.666 4.351,4.113 3.969,6.262c-0.332,1.871 -1.785,3.243 -4.17,4.568c-1.476,0.819 -4.02,1.446 -6.204,0.471c-3.802,-1.698 -4.531,-6.658 -4.789,-10.332c-0.401,-5.711 -8.05,-3.926 -10.26,-0.498c-3.167,4.914 -12.94,13.482 -18.263,7.074c-4.67,-5.624 3.258,-17.083 9.383,-18.162c3.884,-0.687 6.629,-3.416 6.943,-7.381c1.903,-23.977 -2.671,-48.221 -6.074,-71.868c-1.854,-12.895 -2.451,-25.777 -3.638,-38.729c-1.257,-13.725 -0.184,-27.766 -2.36,-41.375c-0.483,-3.048 -4.711,-1.277 -5.05,1.019Z" style="fill:#010101;fill-rule:nonzero;"/><path d="M255.393,314.988c6.512,10.413 21.511,4.446 29.758,-0.438c10.523,-6.236 19.105,-15.78 26.972,-24.993c10.333,-12.103 23.25,-22.465 36.583,-31.058c6.186,-3.984 12.654,-7.482 19.285,-10.663c6.663,-3.195 13.746,-5.185 20.471,-8.145c2.856,-1.257 5.69,-3.664 5.508,-7.125c-0.179,-3.345 -3.377,-4.052 -6.077,-3.412c-6.119,1.448 -12.119,4.536 -17.828,7.122c-6.124,2.773 -12.033,5.972 -17.835,9.36c-12.939,7.557 -24.962,16.706 -35.844,26.992c-9.438,8.921 -17.159,19.438 -26.85,28.093c-4.217,3.766 -8.943,7.33 -14.208,9.483c-5.481,2.245 -11.438,1.658 -17.199,1.195c-1.817,-0.143 -3.858,1.795 -2.736,3.589Z" style="fill:#010101;fill-rule:nonzero;"/><path d="M392.967,235.34c3.623,2.196 8.084,2.104 11.475,4.905c3.949,3.264 2.468,6.864 3.791,11.142c1.666,5.382 8.484,0.548 10.046,-2.046c3.578,-5.94 0.117,-13.634 -4.831,-17.535c-5.273,-4.161 -13.359,-5.506 -19.286,-2.038c-1.771,1.035 -3.568,4.134 -1.195,5.572Z" style="fill:#010101;fill-rule:nonzero;"/><path d="M204.884,303.609c-1.314,8.206 8.102,12.829 14.646,14.429c6.346,1.552 12.485,-10.444 5.292,-11.229c-2.829,-0.309 -5.563,-0.604 -8.306,-1.403c-2.843,-0.83 -5.094,-3.058 -7.788,-4.03c-1.562,-0.565 -3.569,0.512 -3.844,2.233Z" style="fill:#010101;fill-rule:nonzero;"/><path d="M206.25,326.498c-2.912,23.922 -8.098,49.406 -0.678,73.119c2.745,-2.925 5.49,-5.851 8.234,-8.775c-12.764,-1.617 -22.149,8.422 -23.654,20.521c-1.081,8.689 2.855,24.514 15.057,19.811c4.729,-1.822 8.86,-11.191 0.916,-10.938c-1.35,0.043 -1.805,0.154 -2.683,-1.415c-1.422,-2.542 -1.617,-5.458 -1.541,-8.309c0.059,-2.171 0.957,-5.23 1.792,-6.537c0.894,-1.397 0.642,-1.085 1.52,-1.615c0.514,-0.312 2.15,-0.491 3.333,-0.354c4.479,0.514 9.794,-4.006 8.233,-8.775c-7.063,-21.595 -5.876,-44.707 -8.658,-67.108c-0.14,-1.136 -1.767,-0.471 -1.871,0.375Z" style="fill:#010101;fill-rule:nonzero;"/><path d="M476.717,164.541c-2.755,8.465 -3.894,17.367 -6.315,25.939c-2.256,7.979 -4.87,16.284 -8.416,23.785c-4.783,10.117 -11.958,17.656 -19.474,24.532c-2.078,1.902 -3.971,5.59 -1.741,8.129c2.75,3.134 7.434,0.498 9.502,-1.975c0.354,-0.425 0.684,-0.871 1.038,-1.296c3.902,-4.687 -0.93,-9.104 -5.813,-6.623c-2.213,1.125 0.604,-0.186 -0.008,0.053c1.188,3.057 2.378,6.112 3.565,9.17c9.024,-8.26 16.531,-17.525 21.849,-28.745c3.84,-8.103 5.891,-17.252 7.854,-25.956c1.984,-8.797 4.062,-19.232 0.838,-27.942c-0.592,-1.6 -2.575,-0.005 -2.879,0.929Z" style="fill:#010101;fill-rule:nonzero;"/><path d="M173.285,240.029c-0.031,3.409 1.537,6.875 2.398,10.146c0.984,3.745 1.823,7.535 2.642,11.318c1.747,8.076 3.771,16.233 6.813,23.926c2.792,7.057 6.649,13.821 11.884,19.352c5.268,5.565 14.438,12.145 22.221,8.438c1.749,-0.832 2.698,-2.858 2.271,-4.688c-0.794,-3.404 -4.942,-4.987 -7.74,-6.521c-3.383,-1.854 -6.221,-4.368 -8.861,-7.152c-4.984,-5.256 -8.192,-11.836 -10.863,-18.49c-2.748,-6.846 -5.001,-13.873 -7.712,-20.73c-2.156,-5.458 -4.697,-14.539 -9.907,-17.856c-1.391,-0.889 -3.133,0.947 -3.146,2.257Z" style="fill:#010101;fill-rule:nonzero;"/><path d="M35.74,128.678c-4.512,-2.568 -13.154,-3.084 -16.88,1.216c-3.103,3.581 0.674,7.588 3.553,9.616c3.879,2.731 9.191,4.147 13.901,3.569c6.6,-0.811 10.882,-5.836 12.814,-11.896c0.19,-0.597 0.041,-1.53 -0.426,-1.979c-2.21,-2.125 -5.097,-3.255 -8.128,-2.645c-1.23,0.248 -2.801,1.457 -2.249,2.917c0.929,2.45 3.475,2.59 5.322,4.164c-0.142,-0.659 -0.284,-1.319 -0.426,-1.979c-0.234,1.149 -0.522,2.1 -1.029,3.139c-0.348,0.713 -0.757,1.12 -1.385,1.673c-0.87,0.768 -2.368,1.359 -3.963,1.544c-3.506,0.405 -7.242,-0.765 -10.363,-2.584c-1.405,-0.818 -2.317,-1.466 -3.337,-2.727c-0.387,-0.478 -0.335,-0.383 -0.672,-1.154c-0.099,-0.225 -0.02,-0.109 -0.277,0.313c0.102,-0.165 0.04,-0.11 0.339,-0.233c0.818,-0.336 1.683,-0.482 2.555,-0.592c3.279,-0.408 6.666,-0.18 9.91,-0.8c0.572,-0.108 1.585,-1.082 0.741,-1.562Z" style="fill:#010101;fill-rule:nonzero;"/><path d="M390.143,243.507c-1.329,11.788 -0.896,23.819 -1.48,35.666c-0.636,12.893 -1.306,25.783 -1.9,38.678c-0.491,10.643 -0.573,21.055 0.032,31.695c0.62,10.887 1.363,21.974 -1.18,32.679c-2.147,9.043 -10.147,14.707 -15.106,22.159c-4.021,6.046 -6.164,15.383 -1.459,21.732c4.28,5.773 11.754,5.632 17.871,3.15c5.892,-2.391 15.207,-8.604 14.473,-15.875c-0.314,-3.114 -4.355,-2.178 -5.629,-0.273c-3.433,5.135 -8.034,9.959 -14.61,10.41c-8.515,0.584 -7.872,-10.989 -5.3,-15.949c3.503,-6.755 9.916,-11.783 13.791,-18.394c3.943,-6.726 4.152,-15.996 4.229,-23.562c0.094,-9.292 -1.031,-18.57 -1.613,-27.832c-0.614,-9.756 0.01,-19.537 0.198,-29.301c0.212,-10.855 0.356,-21.708 0.322,-32.566c-0.034,-10.875 0.738,-22.024 -0.548,-32.843c-0.152,-1.26 -1.986,-0.521 -2.091,0.426Z" style="fill:#010101;fill-rule:nonzero;"/><path d="M209.878,311.181c-3.114,8.653 -4.03,20.512 -2.836,29.604c0.192,1.46 1.979,0.435 2.247,-0.453c1.332,-4.428 1.657,-9.018 1.935,-13.609c0.316,-5.27 1.14,-10.501 1.403,-15.766c0.081,-1.632 -2.395,-0.76 -2.749,0.224Z" style="fill:#010101;fill-rule:nonzero;"/><path d="M210.598,313.316c-3.189,7.979 -3.918,17.427 -5.139,25.892c-1.267,8.798 -2.198,17.609 -1.103,26.479c0.122,0.984 1.527,0.402 1.622,-0.328c1.148,-8.821 2.132,-17.664 3.414,-26.469c1.171,-8.049 3.925,-17.558 2.43,-25.673c-0.126,-0.689 -1.023,-0.404 -1.224,0.099Z" style="fill:#010101;fill-rule:nonzero;"/><path d="M210.514,322.299c-5.228,12.988 -5.66,27.525 -5.109,41.372c0.038,0.953 1.415,0.34 1.529,-0.311c2.391,-13.625 0.632,-27.647 4.969,-40.997c0.291,-0.897 -1.133,-0.701 -1.389,-0.064Z" style="fill:#010101;fill-rule:nonzero;"/><path d="M249.203,256.502c-2.526,9.688 -2.787,21.383 -0.847,31.184c0.192,0.972 1.489,0.413 1.622,-0.328c1.79,-9.948 2.048,-21.198 1.189,-31.253c-0.105,-1.27 -1.759,-0.388 -1.964,0.397Z" style="fill:#010101;fill-rule:nonzero;"/><path d="M288.132,131.802c3.619,2.535 9.266,2.264 13.518,2.404c5.631,0.188 12.25,0.729 17.608,-1.278c0.9,-0.338 2.53,-2.246 1.016,-2.954c-4.194,-1.958 -9.817,-1.033 -14.3,-0.905c-5.438,0.155 -11.094,-0.744 -16.474,-0.161c-1.233,0.134 -2.741,1.933 -1.368,2.894Z" style="fill:#010101;fill-rule:nonzero;"/><path d="M291.014,146.444c2.939,3.553 9.992,3.229 14.174,3.354c5.451,0.164 13.681,0.859 18.527,-1.969c0.699,-0.408 1.877,-1.921 0.94,-2.705c-3.244,-2.719 -9.779,-1.181 -13.683,-0.974c-3.043,0.16 -6.092,0.277 -9.14,0.257c-3.086,-0.02 -6.335,-0.712 -9.373,-0.316c-0.944,0.123 -2.257,1.372 -1.445,2.353Z" style="fill:#010101;fill-rule:nonzero;"/><path d="M294.828,164.606c2.602,2.728 7.688,2.268 11.18,2.252c4.513,-0.02 9.511,-0.241 13.619,-2.254c0.855,-0.419 1.524,-1.846 0.531,-2.477c-2.843,-1.805 -6.909,-1.171 -10.082,-0.836c-4.468,0.472 -9.2,-0.091 -13.568,0.588c-1.008,0.155 -2.727,1.628 -1.68,2.727Z" style="fill:#010101;fill-rule:nonzero;"/><path d="M299.463,183.935c4.243,0.498 10.922,2.225 13.979,-1.828c0.376,-0.5 0.671,-1.403 0.147,-1.925c-1.482,-1.479 -3.641,-0.665 -5.51,-0.419c-2.527,0.333 -5.048,0.851 -7.576,1.13c-1.27,0.141 -3.044,2.807 -1.04,3.042Z" style="fill:#010101;fill-rule:nonzero;"/><path d="M343.838,132.186c1.557,3.569 7.053,3.884 10.389,4.174c4.41,0.383 10.728,1.187 14.521,-1.441c0.832,-0.576 1.876,-1.865 1.001,-2.874c-2.334,-2.693 -7.589,-1.464 -10.771,-1.405c-4.452,0.08 -9.144,-0.923 -13.513,-0.563c-0.883,0.071 -2.05,1.138 -1.627,2.109Z" style="fill:#010101;fill-rule:nonzero;"/><path d="M342.344,149.19c4.142,0.387 8.203,0.795 12.369,0.854c4.684,0.065 10.031,0.609 14.055,-2.077c0.983,-0.657 2.104,-2.364 0.693,-3.241c-3.312,-2.057 -8.067,-0.619 -11.779,-0.308c-4.713,0.395 -9.416,0.797 -14.122,1.217c-1.523,0.137 -3.524,3.339 -1.216,3.555Z" style="fill:#010101;fill-rule:nonzero;"/><path d="M345.329,166.219c6.236,1.816 15.343,2.27 19.97,-3.189c0.6,-0.706 0.481,-1.755 -0.453,-2.03c-2.537,-0.743 -5.025,0.138 -7.53,0.6c-3.5,0.645 -7.192,1.055 -10.749,1.006c-1.735,-0.024 -3.412,2.98 -1.238,3.613Z" style="fill:#010101;fill-rule:nonzero;"/><path d="M388.143,131.788c3.606,1.263 7.063,1.91 10.879,2.192c3.393,0.251 6.313,0.64 9.13,-1.447c0.723,-0.536 1.082,-1.666 0.519,-2.42c-1.701,-2.279 -5.309,-1.45 -7.85,-1.392c-3.771,0.086 -7.551,0.146 -11.322,0.203c-1.06,0.016 -2.93,2.314 -1.356,2.864Z" style="fill:#010101;fill-rule:nonzero;"/><path d="M388.498,145.86c4.827,1.291 14.766,3.159 18.191,-1.619c0.51,-0.71 0.706,-1.552 0.178,-2.302c-1.474,-2.093 -5.313,-0.817 -7.434,-0.577c-3.471,0.393 -6.93,0.899 -10.332,1.686c-1.19,0.273 -2.199,2.385 -0.603,2.812Z" style="fill:#010101;fill-rule:nonzero;"/><path d="M429.006,135.968c3.905,2.672 11.69,3.125 15.213,-0.356c0.742,-0.732 1.39,-2.158 0.223,-2.857c-1.712,-1.026 -3.939,-0.573 -5.822,-0.388c-2.683,0.266 -5.398,0.111 -8.079,0.359c-1.383,0.129 -3.078,2.186 -1.535,3.242Z" style="fill:#010101;fill-rule:nonzero;"/></g></svg>