<?xml version="1.0" encoding="UTF-8" standalone="no"?><!DOCTYPE svg PUBLIC "-//W3C//DTD SVG 1.1//EN" "http://www.w3.org/Graphics/SVG/1.1/DTD/svg11.dtd"><svg width="100%" height="100%" viewBox="0 0 523 498" version="1.1" xmlns="http://www.w3.org/2000/svg" xmlns:xlink="http://www.w3.org/1999/xlink" xml:space="preserve" style="fill-rule:evenodd;clip-rule:evenodd;stroke-linejoin:round;stroke-miterlimit:1.41421;"><g id="camel"><path d="M106.434,96.067c5.878,7.548 10.978,14.556 14.494,23.571c3.766,9.651 5.813,19.919 7.433,30.116c2.958,18.638 4.351,37.361 8.83,55.754c3.876,15.91 10.366,31.185 19.733,44.645c4.752,6.828 10.46,12.932 16.698,18.417c6.527,5.74 14.206,11.912 22.245,15.336c1.906,-3.132 3.814,-6.265 5.72,-9.397c-0.757,-0.118 -1.892,-0.081 -2.537,-0.495c-2.838,-1.825 -6.52,1.959 -6.499,4.673c0.018,2.373 1.346,4.03 3.316,5.22c4.678,2.824 11.839,-5.467 6.828,-9.012c-7.131,-5.046 -14.705,-9.014 -21.395,-14.758c-6.291,-5.401 -11.836,-11.634 -16.699,-18.338c-9.736,-13.422 -15.519,-29.24 -19.832,-45.118c-4.992,-18.375 -6.694,-37.361 -10.727,-55.932c-3.521,-16.221 -10.195,-37.901 -25.622,-46.813c-1.103,-0.639 -2.809,1.076 -1.986,2.131Z" style="fill:#010101;fill-rule:nonzero;"/><path d="M199.577,280.021c4.406,6.886 6.859,15.875 8.905,23.727c2.429,9.319 3.762,18.944 5.288,28.44c3.441,21.411 6.877,43.056 12.129,64.111c2.15,8.617 5.571,18.219 3.982,27.172c-0.135,0.759 -0.4,1.945 -0.806,2.563c-0.57,0.866 -0.472,0.557 -1.38,1.152c-3.15,2.069 -6.199,4.144 -8.848,6.847c-6.585,6.724 -10.645,14.973 -12.115,24.22c-0.566,3.552 -0.68,6.448 0.071,9.958c0.333,1.557 0.878,3.075 1.392,4.578c0.181,0.518 0.361,1.035 0.541,1.553c0.598,1.715 -0.145,1.475 0.363,-0.802c2.975,-2.145 5.949,-4.29 8.923,-6.435c2.287,0.152 2.614,1.724 0.411,-0.43c-4.139,-4.045 -13.435,2.417 -10.676,7.621c1,1.889 2.151,4.52 4.667,4.685c4.04,0.267 8.01,-2.331 8.923,-6.434c0.503,-2.261 -0.498,-4.462 -1.23,-6.554c-1.164,-3.33 -1.62,-5.407 -1.151,-8.732c1.131,-8.02 4.889,-15.211 11.811,-19.687c6.311,-4.081 10.229,-8.794 11.376,-16.412c1.42,-9.431 -1.966,-19.284 -4.492,-28.259c-5.97,-21.209 -10.68,-42.828 -15.971,-64.219c-4.285,-17.324 -7.903,-36.779 -20.387,-50.18c-0.803,-0.859 -2.327,0.579 -1.726,1.517Z" style="fill:#010101;fill-rule:nonzero;"/><path d="M252.091,286.387c3.018,1.39 5.656,3.595 8.791,4.697c3.337,1.174 7.018,1.633 10.515,2.08c8.219,1.052 16.478,1.053 24.748,0.865c16.49,-0.371 32.429,-3.793 47.795,-9.816c7.436,-2.914 14.592,-6.537 21.486,-10.557c5.684,-3.313 11.993,-7.748 18.391,-8.799c4.86,-0.799 9.829,-1.081 14.746,-1.266c1.938,-0.072 3.912,-0.148 5.852,-0.053c1.116,0.056 2.254,0.313 3.373,0.248c6.076,-0.354 -2.4,-1.078 -2.594,-3.5c0.305,3.814 4.199,3.689 6.845,2.498c3.948,-1.777 5.789,-8.347 1.181,-10.477c-4.206,-1.944 -10.871,-0.814 -15.352,-0.58c-5.413,0.283 -10.843,0.815 -16.132,2.036c-8.181,1.889 -15.778,7.476 -22.956,11.592c-15.009,8.607 -33.164,15.335 -50.57,16.353c-8.828,0.516 -17.622,0.858 -26.46,1.119c-4.661,0.139 -9.351,0.066 -14.008,-0.183c-4.461,-0.237 -8.966,0.727 -13.391,0.027c-1.649,-0.259 -4.422,2.72 -2.26,3.716Z" style="fill:#010101;fill-rule:nonzero;"/><path d="M428.432,225.688c-2.852,9.504 -6.143,18.563 -8.063,28.363c-1.804,9.203 -3.007,18.538 -3.381,27.912c-0.795,19.908 2.839,39.885 8.536,58.896c0.841,-2.413 1.682,-4.826 2.522,-7.239c-7.497,5.736 -11.491,13.824 -11.096,23.268c0.372,8.867 4.576,17.433 7.786,25.535c8.538,21.549 4.676,46.377 3.477,68.941c3.815,-2.192 7.631,-4.385 11.447,-6.577c-1.391,-1.751 -2.144,-2.96 -4.328,-3.804c-3.225,-1.246 -6.193,1.158 -7.168,4.165c-0.857,2.65 -1.101,5.118 0.336,7.604c3.671,6.356 11.876,0.128 12.166,-5.381c1.088,-20.613 4.184,-42.834 -1.097,-63.104c-3.202,-12.292 -18.22,-32.591 -4.736,-42.914c2.107,-1.613 3.354,-4.674 2.522,-7.239c-5.697,-17.568 -9.254,-35.373 -9.917,-53.855c-0.313,-8.706 -0.123,-17.421 0.511,-26.108c0.688,-9.461 1.136,-19.272 2.499,-28.627c0.217,-1.48 -1.721,-0.825 -2.016,0.164Z" style="fill:#010101;fill-rule:nonzero;"/><path d="M436.112,445.093c-8.699,0.794 -15.281,9.856 -19.191,16.823c-4.501,8.021 -6.179,17.449 -7.4,26.441c-1.166,8.582 11.436,5.674 12.188,-0.987c0.804,-7.108 1.633,-14.509 4.165,-21.244c1.194,-3.176 2.874,-6.001 4.973,-8.652c2.188,-2.763 5.113,-4.979 7.041,-7.925c1.159,-1.773 1.05,-4.714 -1.776,-4.456Z" style="fill:#010101;fill-rule:nonzero;"/><path d="M463.593,355.594c-3.563,9.258 -2.925,20.66 -2.927,30.397c-0.003,15.673 0.494,31.337 0.531,47.009c0.033,14.112 0.112,28.441 -2.133,42.412c-0.415,2.584 -0.951,5.152 -1.658,7.672c-0.34,1.217 -0.232,0.9 -0.789,2.264c-0.181,0.441 -1.507,2.853 -0.693,1.56c-0.213,0.339 -0.458,0.655 -0.704,0.971c-0.833,1.064 1.03,-0.979 0.077,-0.114c-0.502,0.456 1.758,-0.697 0.383,-0.305c2.013,-0.574 -1.57,-0.22 -0.045,-0.117c-1.142,-0.077 -2.16,-0.039 -3.287,0.026c-2.502,0.147 -6.805,3.765 -5.117,6.641c2.605,4.439 8.017,4.464 12.089,1.778c4.45,-2.936 6.627,-7.544 8.226,-12.456c4.122,-12.662 3.704,-27.267 3.721,-40.417c0.035,-28.684 -2.557,-57.271 -5.62,-85.729c-0.063,-0.582 -0.176,-1.156 -0.261,-1.735c-0.15,-1.023 -1.516,-0.575 -1.793,0.143Z" style="fill:#010101;fill-rule:nonzero;"/><path d="M257.443,291.635c-2.843,4.816 -5.646,9.41 -7.38,14.796c-1.881,5.848 -2.976,11.827 -3.804,17.907c-1.509,11.089 -1.096,23.105 0.691,34.141c2.289,14.13 6.444,27.952 9.522,41.922c3.537,16.059 6.447,32.74 5.43,49.241c-0.373,6.049 -1.596,12.839 -4.918,18.026c-1.287,2.008 -2.83,3.708 -4.784,4.975c-3.242,2.104 -7.796,2.883 -9.396,6.89c3.164,-0.257 6.328,-0.513 9.492,-0.769c-0.001,-1.459 -0.839,-2.722 -2.153,-3.28c-2.797,-1.188 -6.069,1.063 -6.697,3.891c1.199,-1.187 2.397,-2.374 3.596,-3.561c-3.316,0.948 -7.788,8.749 -1.995,9.312c3.31,0.322 6.912,-1.979 9.731,-3.55c3.227,-1.8 5.915,-4.323 8.334,-7.078c4.666,-5.313 7.082,-12.525 8.365,-19.356c3.109,-16.539 0.296,-34.086 -2.87,-50.389c-3,-15.45 -7.087,-30.652 -10.987,-45.891c-2.319,-9.061 -3.146,-18.423 -3.354,-27.757c-0.279,-12.559 0.133,-27.355 5.171,-39.099c0.668,-1.557 -1.386,-1.403 -1.994,-0.371Z" style="fill:#010101;fill-rule:nonzero;"/><path d="M461.385,124.943c0.459,7.633 5.498,13.65 10.831,18.73c6.561,6.25 13.843,11.565 19.856,18.399c13.004,14.78 13.217,36.69 8.204,54.689c-5.271,18.926 -15.989,36.015 -23.726,53.961c-8.869,20.569 -13.163,43.472 -10.979,65.802c0.307,3.141 4.669,1.688 5.437,-0.441c4.469,-12.389 6.215,-25.254 8.643,-38.168c1.911,-10.166 5.404,-19.696 9.618,-29.113c8.259,-18.457 18.585,-35.995 23.708,-55.712c4.886,-18.808 3.229,-40.684 -8.727,-56.602c-5.423,-7.22 -13.188,-12.587 -20.335,-17.953c-6.793,-5.102 -13.925,-9.906 -20.776,-14.854c-0.722,-0.52 -1.796,0.551 -1.754,1.262Z" style="fill:#010101;fill-rule:nonzero;"/><path d="M209.692,161.592c9.025,6.75 23.391,2.111 32.053,-3.225c11.056,-6.813 17.46,-17.666 23.785,-28.574c3.273,-5.646 7.453,-9.873 14.093,-10.999c6.819,-1.156 13.608,-0.757 20.043,-3.743c9.326,-4.327 14.859,-12.901 19.541,-21.684c4.957,-9.299 8.856,-19.195 15.47,-27.507c6.96,-8.748 19.056,-13.597 29.883,-14.83c26.064,-2.97 44.928,16.353 56.307,37.46c9.043,16.775 17.641,36.281 35.674,45.265c4.624,2.304 13.594,-5.486 8.833,-9.478c-4.815,-4.038 -9.763,-7.709 -14.031,-12.364c-4.046,-4.413 -7.372,-9.464 -10.323,-14.655c-5.68,-9.99 -10.351,-20.466 -16.91,-29.951c-14.109,-20.404 -37.826,-32.227 -62.643,-27.342c-11.873,2.337 -23.796,8.127 -32.374,16.767c-7.796,7.852 -12.681,17.983 -17.504,27.798c-3.551,7.225 -7.454,17.748 -15.532,21.004c-5.77,2.325 -12.623,1.852 -18.657,3.356c-6.782,1.692 -12.351,6.38 -16.608,11.729c-3.35,4.206 -5.661,9.269 -8.183,13.984c-2.667,4.987 -6.121,9.626 -10.073,13.675c-3.963,4.062 -8.887,7.036 -14.215,8.928c-5.692,2.022 -11.764,1.611 -17.646,2.316c-0.907,0.108 -1.938,1.356 -0.983,2.07Z" style="fill:#010101;fill-rule:nonzero;"/><path d="M115.172,32.465c1.139,-5.352 1.194,-10.322 3.776,-15.317c2.13,-4.118 6.424,-6.902 10.925,-7.708c4.141,-0.74 6.387,1.299 6.758,5.318c0.408,4.407 -1.031,9.011 -2.992,12.904c-0.402,0.798 -0.657,1.173 -1.168,1.883c-0.457,0.637 -1.138,1.146 -0.654,0.831c0.109,-0.071 1.283,-0.065 0.327,-0.188c-1.142,-0.147 -1.565,0.146 -2.521,-0.094c-1.949,-0.49 -3.753,1.602 -3.828,3.359c-0.415,9.74 10.572,3.479 13.553,-0.797c4.1,-5.881 6.438,-14.028 5.647,-21.184c-0.932,-8.433 -7.726,-11.275 -15.304,-8.952c-6.155,1.888 -11.604,5.716 -14.858,11.324c-3.155,5.437 -5.729,13.637 -3.081,19.722c0.758,1.741 3.145,0.192 3.42,-1.101Z" style="fill:#010101;fill-rule:nonzero;"/><path d="M113.655,24.185c-7.102,-7.897 -20.567,-6.663 -29.978,-4.608c-12.083,2.639 -22.388,8.551 -33.604,13.479c-9.842,4.326 -20.654,5.542 -30.341,10.297c-7.272,3.57 -15.649,11.076 -18.977,18.518c-2.017,4.511 3.197,6.007 6.187,3.391c5.615,-4.912 8.633,-11.193 15.5,-14.821c8.23,-4.349 17.971,-5.251 26.567,-8.735c9.841,-3.989 18.897,-9.707 29.073,-12.878c10.646,-3.317 22.228,-3.62 33.102,-1.403c1.465,0.296 3.727,-1.843 2.471,-3.24Z" style="fill:#010101;fill-rule:nonzero;"/><path d="M74.561,44.373c1.849,10.147 21.198,7.971 24.484,-0.16c1.68,-4.155 -3.333,-4.434 -5.44,-1.893c-4.07,4.905 -12.389,3.34 -17.18,0.713c-0.745,-0.409 -2.019,0.488 -1.864,1.34Z" style="fill:#010101;fill-rule:nonzero;"/><path d="M0.893,67.7c-3.523,11.396 6.276,14.294 15.928,13.604c5.997,-0.43 12.012,-1.97 17.805,-3.5c4.086,-1.079 9.605,-1.58 13.288,-3.681c1.324,-0.756 3.516,-4.108 1.083,-5.056c-3.084,-1.201 -7.39,0.714 -10.422,1.529c-4.862,1.31 -9.72,2.651 -14.647,3.697c-7.384,1.567 -20.21,3.639 -21.678,-6.869c-0.125,-0.88 -1.191,-0.259 -1.357,0.276Z" style="fill:#010101;fill-rule:nonzero;"/><path d="M16.206,79.979c-4.771,2.618 -6.91,6.79 -8.021,11.957c-0.647,3.013 -0.481,4.573 2.108,6.203c3.216,2.023 6.993,3.172 10.693,3.884c14.271,2.745 28.505,-3.621 40.369,-10.854c4.101,-2.5 7.876,-4.64 12.794,-4.29c6.902,0.49 13.684,2.089 20.604,2.548c11.17,0.741 28.32,-1.253 33.547,-13.095c0.985,-2.229 -1.203,-3.793 -3.188,-2.561c-4.153,2.579 -7.386,5.729 -12.123,7.359c-5.224,1.799 -11.072,1.808 -16.521,1.46c-8.222,-0.525 -16.901,-3.546 -25.147,-2.306c-8.545,1.286 -15.546,8.067 -23.291,11.443c-11.143,4.856 -24.046,6.271 -34.961,0.15c0.349,0.572 0.696,1.146 1.044,1.718c-0.759,-5.061 0.063,-8.162 3.467,-12.054c0.934,-1.068 -0.234,-2.187 -1.374,-1.562Z" style="fill:#010101;fill-rule:nonzero;"/><path d="M139.688,31.932c2.865,8.67 8.779,16.773 13.183,24.809c4.146,7.564 6.517,15.736 8.657,24.039c3.457,13.411 5.907,27.092 10.195,40.28c3.762,11.577 9.563,22.93 19.018,30.868c11.43,9.595 27.299,13.946 42.014,11.319c1.479,-0.264 4.986,-3.632 2.216,-4.682c-12.991,-4.924 -26.663,-6.992 -37.253,-16.753c-8.849,-8.156 -13.432,-19.567 -16.846,-30.843c-3.949,-13.038 -6.377,-26.492 -9.916,-39.642c-4.442,-16.508 -13.74,-33.009 -29.722,-40.753c-0.767,-0.37 -1.813,0.551 -1.546,1.358Z" style="fill:#010101;fill-rule:nonzero;"/><path d="M518.095,214.037c0.407,4.212 -0.917,8.848 -1.433,13.02c-0.491,3.986 -1.402,7.928 -2.396,11.813c-2.084,8.146 -5.055,16.062 -7.941,23.948c-4.931,13.477 -8.704,27.271 -11.854,41.271c-3.169,14.086 -5.363,28.434 -5.659,42.887c-0.141,6.897 0.442,13.797 1.725,20.573c1.118,5.905 2.583,14.935 7.277,19.116c3.698,3.295 10.811,-0.985 10.146,-5.83c-0.855,-6.234 -4.4,-12.187 -5.815,-18.421c-1.522,-6.713 -1.804,-13.777 -1.861,-20.634c-0.122,-14.432 2.231,-28.845 5.089,-42.947c2.794,-13.788 6.244,-27.141 10.568,-40.524c2.481,-7.679 4.676,-15.409 6.008,-23.376c0.596,-3.564 0.867,-7.166 0.969,-10.775c0.109,-3.908 -1.499,-7.23 -2.132,-10.984c-0.292,-1.725 -2.826,-0.528 -2.691,0.863Z" style="fill:#010101;fill-rule:nonzero;"/><path d="M112.294,1.855c-3.135,-3.056 -8.42,-1.399 -11.759,0.443c-4.575,2.527 -7.438,7.489 -8.363,12.49c1.102,-0.794 2.203,-1.588 3.304,-2.383c-2.07,-0.454 -3.435,-0.6 -5.392,0.27c-0.654,0.291 -1.032,1.181 -0.622,1.787c1.034,1.533 2.12,2.109 3.941,2.342c1.373,0.175 3.132,-0.913 3.304,-2.383c0.423,-3.607 1.834,-6.451 4.624,-8.805c2.98,-2.515 6.345,-2.013 9.898,-2.032c0.666,-0.003 1.708,-1.102 1.065,-1.729Z" style="fill:#010101;fill-rule:nonzero;"/></g></svg>