<?xml version="1.0" encoding="UTF-8" standalone="no"?><!DOCTYPE svg PUBLIC "-//W3C//DTD SVG 1.1//EN" "http://www.w3.org/Graphics/SVG/1.1/DTD/svg11.dtd"><svg width="100%" height="100%" viewBox="0 0 338 506" version="1.1" xmlns="http://www.w3.org/2000/svg" xmlns:xlink="http://www.w3.org/1999/xlink" xml:space="preserve" style="fill-rule:evenodd;clip-rule:evenodd;stroke-linejoin:round;stroke-miterlimit:1.41421;"><g id="cat"><path d="M84.697,100.712c6.009,-7.148 10.492,-14.273 17.931,-20.258c8.131,-6.538 17.317,-11.679 26.547,-16.478c9.993,-5.196 19.72,-10.112 30.579,-13.319c6.222,-1.841 12.542,-3.322 18.863,-4.792c3.479,-0.807 6.21,1.985 9.833,-0.362c3.089,-2.002 7.365,-8.964 1.171,-10.353c-1.378,-0.311 -2.984,-0.249 -4.383,-0.313c-3.101,-0.144 -8.228,4.896 -5.24,7.891c1.226,1.642 1.494,1.496 0.799,-0.438c3.363,-2.211 6.726,-4.422 10.085,-6.634c-2.964,-2.137 -7.877,-0.927 -11.133,-0.297c-6.751,1.313 -13.609,3.831 -20.217,5.772c-12.902,3.802 -24.521,10.043 -36.289,16.411c-10.098,5.468 -19.951,11.634 -28.537,19.292c-6.256,5.584 -15.399,14.813 -13.763,23.998c0.337,1.888 3.057,0.71 3.754,-0.12Z" style="fill:#020202;fill-rule:nonzero;"/><path d="M36.655,88.663c5.357,0.926 10.437,1.373 15.619,3.188c5.647,1.976 11.292,7.529 17.05,8.604c4.887,0.91 8.16,7.601 13.535,6.829c3.642,-0.52 6.186,-2.524 7.428,-6.01c0.015,-0.041 0.028,-0.082 0.041,-0.124c0.412,-1.152 0.194,-3.13 -0.73,-4.024c-1.604,-1.551 -3.114,-2.253 -5.386,-1.975c-2.614,0.321 -5.248,2.001 -5.857,4.742c-0.208,0.926 -0.021,3.502 -0.077,3.101c0.97,-1.866 1.943,-3.73 2.917,-5.597c-0.039,0.031 -0.078,0.063 -0.116,0.095c2.476,-0.393 4.95,-0.788 7.426,-1.181c-4.907,-2.512 -10.296,-4.029 -15.297,-6.295c-10.771,-4.877 -23.085,-10.848 -35.103,-7.218c-2.069,0.625 -5.173,5.22 -1.45,5.865Z" style="fill:#020202;fill-rule:nonzero;"/><path d="M192.353,0.957c-5.779,4.824 -6.917,16.781 -8.274,23.665c-1.166,5.904 -4.683,17.574 2.713,20.497c3.791,1.497 9.364,-3.365 8.924,-7.224c-0.636,-5.573 -0.847,-10.754 -0.404,-16.415c0.301,-3.859 0.712,-7.715 1.286,-11.541c0.354,-2.371 1.385,-6.279 0.253,-8.523c-0.912,-1.797 -3.087,-1.636 -4.498,-0.459Z" style="fill:#020202;fill-rule:nonzero;"/><path d="M34.809,86.645c-6.427,14.944 2.048,35.352 9.28,48.513c8.813,16.039 21.504,29.825 36.581,40.167c13.58,9.316 30.513,15.239 47.1,13.521c8.601,-0.892 16.716,-4.027 23.884,-8.811c6.827,-4.554 17.504,-13.2 19.167,-21.563c1.259,-6.341 -5.851,-7.098 -9.775,-4.017c-3.294,2.59 -4.909,6.243 -7.547,9.438c-2.487,3.013 -5.457,5.5 -8.636,7.753c-5.224,3.704 -11.921,5.353 -18.206,5.789c-14.663,1.013 -28.87,-5.466 -40.859,-13.28c-13.478,-8.786 -24.68,-20.973 -33.145,-34.587c-4.156,-6.688 -7.288,-13.99 -9.624,-21.495c-2.244,-7.207 -1.838,-14.962 -4.13,-22.059c-0.636,-1.971 -3.511,-0.708 -4.09,0.631Z" style="fill:#020202;fill-rule:nonzero;"/><path d="M194.313,4.877c9.379,9.409 18.265,18.443 25.592,29.65c8.092,12.379 13.692,26.516 16.541,41.016c2.327,11.851 1.948,24.979 -4.104,35.676c-2.738,4.837 -7.22,8.323 -12.089,10.808c-7.2,3.67 -16.239,2.461 -22.671,7.229c-2.99,2.217 -4.503,7.098 -1.035,9.56c6.375,4.522 20.185,-1.813 26.469,-4.784c6.989,-3.305 13.24,-8.419 17.898,-14.583c9.104,-12.048 11.043,-27.687 9.153,-42.299c-2.125,-16.406 -8.77,-31.831 -17.513,-45.755c-7.947,-12.658 -19.684,-26.507 -34.469,-31.108c-2.048,-0.639 -5.71,2.648 -3.772,4.59Z" style="fill:#020202;fill-rule:nonzero;"/><path d="M172.32,84.072c-18.305,-3.771 -45.596,-0.039 -56.66,16.949c-3.678,5.649 -3.506,14.437 0.336,19.918c3.584,5.117 10.9,5.953 16.591,5.701c15.185,-0.674 31.112,-8.523 43.052,-17.528c4.323,-3.262 9.164,-7.709 10.41,-13.216c1.47,-6.504 -5.069,-9.341 -10.439,-8.106c-2.149,0.496 -5.355,4.024 -3.241,6.223c1.063,1.104 2.147,1.811 2.771,2.828c-0.597,-0.971 -0.279,0.015 -0.19,-0.181c-1.059,2.373 -4.917,5.287 -8.028,7.512c-8.636,6.182 -19.596,11.248 -30.167,12.761c-8.917,1.275 -18.287,-3.467 -13.386,-14.079c3.536,-7.661 15.318,-10.323 22.639,-11.992c7.917,-1.803 16.918,-3.294 25.063,-3.476c1.493,-0.037 3.395,-2.873 1.249,-3.314Z" style="fill:#020202;fill-rule:nonzero;"/><path d="M178.011,76.768c2.62,-4.697 7.296,-5.887 12.402,-6.21c2.156,-0.138 4.284,0.011 6.4,0.417c1.323,0.256 2.338,0.848 2.48,1.042c2.848,3.765 9.335,-0.27 9.973,-3.942c1.516,-8.751 -12.026,-8.062 -17.461,-7.444c-8.669,0.991 -20.122,5.55 -21.62,15.385c-0.837,5.46 5.944,4.119 7.826,0.752Z" style="fill:#020202;fill-rule:nonzero;"/><path d="M89.466,129.726c0.819,-2.156 1.106,-5.084 2.611,-6.878c0.035,-0.043 1.168,-0.504 2.622,-0.303c1.7,0.239 3.488,0.815 4.397,1.317c0.366,0.201 0.998,0.918 0.211,0.028c0.833,0.942 2.215,1.623 3.505,1.44c1.171,-0.165 2.038,-0.304 3.127,-0.805c-2.618,1.203 -2.84,0.844 -0.715,0.416c3.142,-0.631 5.149,-3.873 4.616,-6.875c-0.094,-0.528 -0.427,-0.965 -0.725,-1.401c0.253,0.729 0.509,1.456 0.767,2.184c0.017,-0.568 -0.077,-1.141 -0.313,-1.657c-0.822,-1.805 -2.188,-2.478 -4.118,-2.552c1.428,0.057 -1.14,-0.291 -1.578,-0.38c-1.392,-0.287 -2.815,-0.406 -4.229,-0.515c-2.884,-0.219 -5.916,0.22 -8.576,1.353c-5.896,2.511 -9.703,10.12 -5.896,15.816c1.037,1.55 3.787,0.144 4.294,-1.188Z" style="fill:#020202;fill-rule:nonzero;"/><path d="M116.598,145.445c3.452,13.234 22.676,9.625 31.374,5.303c12.409,-6.172 22.327,-20.03 20.689,-34.28c-3.141,2.067 -6.286,4.135 -9.426,6.203c16.171,8.106 30.552,4.553 45.511,-4.096c4.733,-2.737 11.844,-6.577 13.5,-12.266c1.494,-5.14 -2.917,-8.082 -7.569,-6.458c-2.192,0.765 -5.581,3.555 -4.25,6.331c0.478,1.349 0.77,0.82 0.886,-1.581c-0.672,0.944 -2.017,1.682 -2.924,2.354c-2.871,2.129 -6.107,3.813 -9.25,5.497c-9.583,5.137 -18.304,5.108 -28.251,0.84c-4.771,-2.045 -10.146,2.419 -9.212,7.456c1.739,9.384 -4.743,17.548 -12.404,22.165c-4.048,2.439 -8.739,3.732 -13.447,3.812c-4.752,0.082 -8.506,-2.29 -12.899,-3.575c-1.258,-0.369 -2.646,1.082 -2.328,2.295Z" style="fill:#020202;fill-rule:nonzero;"/><path d="M102.478,74.644c0.581,2.337 0.915,4.772 1.67,7.065c0.916,2.771 3.523,4.847 6.109,5.65c3.292,1.025 7.174,-2.548 7.126,-5.77c-0.054,-3.538 -1.75,-7.5 -4.233,-10.045c-2.04,-2.09 -4.825,-1.267 -6.945,0.226c-0.407,0.282 -0.714,0.687 -1.054,1.042c-1.394,1.461 -1.886,4.036 -0.614,5.704c1.35,1.773 3.007,3.404 3.166,5.688c2.374,-1.922 4.754,-3.847 7.127,-5.77c-0.348,-0.088 -2.67,-0.719 -1.266,-0.12c0.062,0.025 -1.119,-0.72 -0.716,-0.356c-0.75,-0.674 -0.96,-1.208 -1.302,-1.946c-1.021,-2.226 -1.91,-4.026 -3.852,-5.595c-2.367,-1.913 -5.802,1.875 -5.216,4.227Z" style="fill:#020202;fill-rule:nonzero;"/><path d="M127.001,63.33c-0.438,3.6 -0.927,7.013 0.039,10.588c1.002,3.69 5.1,5.659 8.48,6.419c3.425,0.77 7.024,-2.357 7.111,-5.759c0.135,-5.061 -0.436,-10.661 -4.561,-14.085c-2.031,-1.686 -5.271,-1.082 -7.388,-0.028c-2.33,1.163 -5.901,4.936 -4.354,7.803c-0.014,-0.615 -0.026,-1.232 -0.045,-1.848c-0.035,0.181 -0.07,0.361 -0.104,0.54c-0.53,2.707 2.336,4.354 4.621,2.865c-0.433,0.087 -0.863,0.177 -1.296,0.264c0.817,-0.038 1.586,-0.247 2.312,-0.626c0.439,-0.187 0.878,-0.37 1.31,-0.588c-0.824,0.421 -1.517,0.421 -2.419,0.038c0.853,0.359 -0.313,-0.479 0.38,0.34c1.484,1.762 1.754,5.515 1.884,7.935c2.369,-1.919 4.739,-3.838 7.111,-5.758c-1.2,-0.172 -2.774,-0.282 -3.822,-0.778c-0.737,-0.349 -1.315,-0.988 -1.618,-1.576c-0.561,-1.091 -0.856,-2.33 -1.178,-3.509c-0.403,-1.48 -1.216,-2.699 -1.995,-4.004c-1.084,-1.815 -4.278,0.225 -4.468,1.767Z" style="fill:#020202;fill-rule:nonzero;"/><path d="M145.376,54.038c-0.115,2.354 -1.035,4.824 -0.704,7.292c0.443,3.307 2.984,4.813 5.858,5.956c-0.571,-0.349 -1.14,-0.696 -1.713,-1.044c0.104,0.112 0.209,0.223 0.315,0.336c2.202,2.35 5.846,0.957 7.629,-1.208c2.172,-2.641 4.377,-6.404 2.155,-9.685c-1.024,-1.51 -3.15,-2.362 -4.733,-3.157c-3.731,-1.877 -9.89,2.322 -8.258,6.685c0.688,1.832 2.214,2.74 3.877,3.556c0.229,0.114 0.463,0.221 0.686,0.346c0.502,0.281 -0.561,-0.692 -0.685,-0.953c-0.121,-0.246 0.132,-1.879 -0.105,-0.965c0.28,-1.076 -0.541,0.79 -0.705,1.051c1.38,-1.121 2.763,-2.238 4.146,-3.355c-0.193,0.05 -0.381,0.102 -0.573,0.152c0.742,-0.023 1.484,-0.046 2.224,-0.071c-1.479,-0.166 -2.048,-0.205 -2.755,-0.644c0.569,0.354 -0.1,-0.131 -0.269,-0.386c0.433,0.647 -0.031,-0.312 -0.089,-0.51c-0.235,-0.828 -0.343,-1.692 -0.553,-2.528c-0.271,-1.093 -1,-2.047 -1.582,-3.027c-1.195,-2.023 -4.093,0.655 -4.166,2.159Z" style="fill:#020202;fill-rule:nonzero;"/><path d="M52.431,103.668c-2.215,5.667 -0.914,10.844 1.936,15.971c0.517,0.928 1.979,0.601 2.711,0.277c4.713,-2.083 13.197,-3.978 9.53,-10.995c-1.949,-3.726 -9.07,-5.619 -12.467,-3.242c-0.42,0.293 -0.87,0.983 -0.794,1.522c0.636,4.592 8.477,1.804 8.897,7.268c0.41,-0.79 0.824,-1.58 1.236,-2.368c-2.236,2.118 -5.025,2.659 -7.732,3.945c0.904,0.093 1.808,0.186 2.712,0.276c-2.972,-3.978 -3.78,-7.863 -3.518,-12.735c0.077,-1.474 -2.152,-0.839 -2.511,0.081Z" style="fill:#020202;fill-rule:nonzero;"/><path d="M200.953,26.436c-2.346,4.684 -1.175,10.065 -1.313,15.096c-0.023,0.92 0.637,1.498 1.435,1.771c4.358,1.479 8.138,1.304 12.573,0.3c1.616,-0.368 3.002,-1.971 3.023,-3.636c0.062,-4.639 -2.149,-12.916 -7.563,-14.021c-1.498,-0.303 -3.816,1.141 -3.558,2.879c0.292,1.917 1.521,3.423 2.527,5.057c1.472,2.387 2.207,4.969 2.41,7.753c0.745,-1.108 1.49,-2.218 2.234,-3.326c-3.068,1.232 -5.997,0.885 -9.09,-0.009c0.48,0.59 0.955,1.18 1.436,1.769c-0.313,-4.623 -1.479,-9.063 -1.125,-13.731c0.139,-1.837 -2.503,-0.869 -2.989,0.098Z" style="fill:#020202;fill-rule:nonzero;"/><path d="M98.826,143.37c-19.919,1.409 -38.713,14.013 -53.993,25.93c-8.734,6.815 -16.821,14.462 -24.509,22.427c-6.801,7.046 -15.226,14.901 -19.126,24.036c-0.929,2.172 1.411,3.131 3.009,1.832c6.815,-5.54 11.963,-13.187 17.853,-19.673c7,-7.711 14.507,-14.938 22.418,-21.706c16.219,-13.881 33.927,-23.518 54.062,-30.351c1.068,-0.364 2.102,-2.624 0.286,-2.495Z" style="fill:#020202;fill-rule:nonzero;"/><path d="M90.924,161.23c-12.441,5.808 -23.41,15.971 -33.309,25.287c-9.871,9.287 -22.856,20.756 -27.997,33.541c-0.708,1.763 1.119,2.55 2.443,1.486c4.736,-3.809 8.391,-8.771 12.325,-13.366c5.243,-6.125 10.703,-12.026 16.434,-17.699c9.878,-9.779 21.118,-17.446 31.747,-26.266c1.811,-1.503 0.676,-4.063 -1.643,-2.983Z" style="fill:#020202;fill-rule:nonzero;"/><path d="M95.554,168.967c-6.299,7.124 -12.411,14.434 -18.454,21.775c-4.997,6.071 -12.063,13.5 -14.002,21.314c-0.415,1.666 1.672,2.021 2.666,1.096c6.007,-5.584 10.374,-13.471 15.371,-19.986c5.761,-7.508 11.952,-14.686 17.527,-22.33c1.825,-2.497 -1.359,-3.846 -3.108,-1.869Z" style="fill:#020202;fill-rule:nonzero;"/><path d="M215.304,76.813c18.998,-9.367 38.536,-17.979 58.504,-25.058c9.949,-3.528 20.037,-6.626 30.265,-9.243c10.391,-2.659 21.487,-3.557 31.632,-6.947c1.175,-0.393 3.23,-3.3 0.886,-3.589c-9.177,-1.14 -19.143,1.607 -28.024,3.696c-11.038,2.596 -21.891,6.005 -32.563,9.812c-21.462,7.647 -41.991,17.453 -61.339,29.47c-1.189,0.735 -0.887,2.614 0.639,1.859Z" style="fill:#020202;fill-rule:nonzero;"/><path d="M227.638,82.515c15.146,-2.661 29.998,-7.224 44.847,-11.168c14.104,-3.745 29.218,-6.438 42.635,-12.245c1.366,-0.59 1.991,-3.271 -0.079,-3.177c-14.355,0.652 -28.969,6.113 -42.679,10.077c-15.121,4.37 -30.427,8.771 -45.063,14.588c-1.128,0.449 -1.04,2.165 0.339,1.925Z" style="fill:#020202;fill-rule:nonzero;"/><path d="M231.425,91.53c14.696,0.744 29.336,-1.11 43.86,-3.251c14.146,-2.083 28.337,-4.421 42.172,-8.082c1.437,-0.381 2.523,-3.162 0.354,-3.079c-13.247,0.5 -26.307,3.293 -39.321,5.6c-15.338,2.72 -30.728,4.591 -46.267,5.583c-1.772,0.115 -3.198,3.107 -0.798,3.229Z" style="fill:#020202;fill-rule:nonzero;"/><path d="M163.718,159.256c-0.3,6.683 2.474,11.617 5.31,17.491c3.494,7.243 3.639,15.26 3.446,23.149c-0.367,15.052 -6.313,29.587 -12.662,42.986c-13.403,28.271 -30.647,54.174 -46.647,80.973c-7.674,12.854 -14.143,25.571 -18.682,39.862c-4.495,14.143 -7.037,28.852 -8.979,43.532c-1.686,12.704 -3.56,25.355 -0.433,37.995c1.112,4.505 2.57,8.922 3.822,13.388c1.04,3.715 1.563,5.197 5.295,7.045c4.92,2.436 14.406,-4.623 9.723,-9.666c-2.869,-3.087 -5.706,-5.535 -8.75,-8.42c-3.065,-2.903 -9.257,1.027 -7.793,5.088c1.71,4.752 2.229,8.218 5.75,12.069c3.242,-3.225 6.479,-6.446 9.718,-9.665c-0.932,-0.474 -1.862,-0.943 -2.796,-1.415c0.668,1.199 1.338,2.396 2.006,3.597c-0.612,-7.448 -4.494,-14.287 -5.597,-21.642c-2.269,-15.18 1.058,-31.358 3.59,-46.339c2.335,-13.819 5.923,-27.452 11.125,-40.477c5.588,-14.002 14.806,-27.16 22.641,-39.99c15.14,-24.793 30.445,-49.725 41.016,-76.901c4.633,-11.907 7.353,-24.233 7.288,-37.042c-0.034,-6.807 -1.181,-14.033 -4.207,-20.136c-2.93,-5.902 -6.828,-11.329 -9.965,-17.123c-1.166,-2.154 -4.128,-0.327 -4.219,1.641Z" style="fill:#020202;fill-rule:nonzero;"/><path d="M188.727,140.265c5.088,14.068 11.091,26.227 12.063,41.489c0.944,14.897 -2.492,29.877 -7.266,43.89c-9.465,27.8 -26.46,52.501 -36.543,80.113c-4.532,12.41 -8.242,25.425 -7.751,38.754c0.497,13.411 5.853,26.33 10.962,38.525c11.247,26.813 21.207,57.236 9.884,85.834c3.998,-0.129 7.993,-0.258 11.989,-0.385c-0.06,-2.343 -0.435,-4.42 -0.896,-6.706c-1.195,-5.93 -10.304,-0.879 -11.015,2.99c-0.447,2.428 -0.77,4.683 -0.832,7.158c-0.177,7.043 10.23,4.047 11.988,-0.39c10.942,-27.634 6.049,-57.649 -4.946,-84.485c-5.23,-12.765 -11.264,-25.173 -14.12,-38.753c-3.244,-15.451 1.812,-31.633 7.263,-45.982c10.821,-28.502 27.782,-54.403 36.471,-83.747c7.468,-25.21 8.286,-61.791 -12.718,-81.263c-1.792,-1.661 -5.391,0.58 -4.533,2.958Z" style="fill:#020202;fill-rule:nonzero;"/><path d="M199.965,130.315c-0.173,-0.011 -0.349,-0.021 -0.522,-0.031c0.382,0.157 0.762,0.315 1.145,0.471c-2.384,-2.458 -6.976,-0.862 -9.156,1.305c-2.905,2.878 -4.236,6.491 -3.979,10.58c0.136,2.193 1.734,3.268 3.804,3.345c2.02,0.076 3.453,-1.154 4.776,-2.506c1.119,-1.146 1.62,-3.103 1.142,-4.626c-0.263,-0.833 -0.313,-0.969 -0.358,-1.813c-0.027,-0.432 0.02,-0.868 0.055,-1.296c-0.06,0.747 0.355,-0.638 0.016,0.103c0.038,-0.083 0.742,-1.095 0.259,-0.438c-0.007,0.008 0.871,-0.931 0.385,-0.45c0.518,-0.51 1.77,-1.121 2.45,-1.737c-0.466,0.184 -0.931,0.368 -1.396,0.553c0.183,-0.021 0.364,-0.038 0.548,-0.059c1.813,-0.192 3.396,-3.251 0.831,-3.401Z" style="fill:#020202;fill-rule:nonzero;"/><path d="M110.406,386.586c0.129,11.897 9.59,21.585 19.878,25.93c2.98,1.256 6.049,-0.304 7.577,-3.041c2.189,-3.928 9.85,-10.262 9.454,-15.612c-0.268,-3.652 -4.875,-3.94 -7.116,-1.757c-4.101,4 -8.106,10.306 -10.877,15.343c1.802,-1.187 3.6,-2.372 5.4,-3.558c-11.086,0.494 -15.24,-11.957 -20.355,-19.356c-1.217,-1.765 -3.977,0.479 -3.961,2.051Z" style="fill:#020202;fill-rule:nonzero;"/><path d="M132.377,406.77c-5.104,9.096 -5.232,21.482 -6.042,31.67c-0.439,5.563 -0.661,11.147 -0.465,16.729c0.119,3.396 -0.105,7.743 2.107,10.537c0.951,1.197 2.606,1.336 3.983,0.98c3.892,-0.993 4.867,-4.602 3.96,-8.08c-1.314,-5.063 -1.626,-9.986 -1.708,-15.229c-0.101,-6.634 0.328,-13.248 0.658,-19.87c0.28,-5.669 1.385,-11.549 0.047,-17.133c-0.321,-1.34 -2.159,-0.288 -2.54,0.396Z" style="fill:#020202;fill-rule:nonzero;"/><path d="M90.861,457.219c1.386,6.438 1.703,13.106 3.207,19.479c1.842,-2.216 3.682,-4.434 5.521,-6.648c-7.093,0.153 -14.967,1.355 -19.635,7.282c-3.972,5.041 -1.589,10.517 2.917,14.042c6.065,4.741 15.419,5.096 22.648,3.926c4.469,-0.721 8.824,-1.826 13.186,-3.009c1.541,-0.419 3.143,-0.555 4.593,-1.266c3.109,-1.524 2.514,-0.497 -0.419,-0.372c2.077,-0.092 4.108,-1.692 4.604,-3.727c2.13,-8.705 -17.51,-1.104 -20.382,-0.541c-6.09,1.19 -12.512,0.476 -17.812,-2.88c-6.543,-4.136 5.583,-4.657 8.146,-4.724c3.423,-0.092 7.286,-4.243 5.02,-7.557c-3.533,-5.162 -4.12,-11.457 -7.748,-16.516c-1.374,-1.91 -4.223,0.752 -3.846,2.511Z" style="fill:#020202;fill-rule:nonzero;"/><path d="M95.756,475.203c3.335,-1.165 6.022,-3.69 7.097,-7.132c0.781,-2.51 1.623,-8.602 -1.191,-10.27c-2.936,-1.744 -5.996,0.527 -5.922,3.896c0.044,2.048 0.899,3.726 0.471,5.844c-0.324,1.643 -1.271,3.102 -2.273,4.407c-1.143,1.49 -0.436,4.039 1.818,3.255Z" style="fill:#020202;fill-rule:nonzero;"/><path d="M96.992,455.176c0.177,4.9 2.159,9.325 -0.353,13.992c-1.22,2.274 1.191,3.979 3.24,2.834c3.387,-1.892 4.691,-4.624 4.45,-8.486c-0.232,-3.69 -1.874,-7.677 -4.776,-10.02c-0.996,-0.799 -2.598,0.661 -2.561,1.68Z" style="fill:#020202;fill-rule:nonzero;"/><path d="M97.013,456.944c1.48,3.068 3.631,5.768 4.143,9.247c0.389,2.64 -1.317,4.166 -1.959,6.549c-0.42,1.548 0.689,2.476 2.1,2.594c4.867,0.399 7.427,-5.517 7.037,-9.528c-0.48,-4.957 -4.383,-9.595 -9.084,-11.067c-1.04,-0.328 -2.784,1.072 -2.237,2.205Z" style="fill:#020202;fill-rule:nonzero;"/><path d="M98.274,458.018c0.48,4.549 1.563,9.105 1.007,13.699c1.705,-1.121 3.409,-2.248 5.115,-3.369c-0.732,-0.151 -1.447,-0.248 -2.194,-0.311c0.914,0.568 1.833,1.137 2.75,1.705c-0.757,-3.241 -1.608,-6.446 -2.37,-9.68c-0.784,-3.313 -0.755,-6.768 -1.628,-10.038c-0.28,-1.043 -1.675,-0.233 -1.987,0.31c-3.763,6.512 -3.039,16.119 -1.276,23.143c0.286,1.144 1.663,1.787 2.748,1.703c0.796,-0.062 1.576,-0.222 2.36,-0.364c2.268,-0.418 3.712,-2.817 3.327,-4.953c-0.845,-4.705 -2.727,-8.75 -4.632,-13.095c-0.726,-1.644 -3.375,-0.256 -3.22,1.25Z" style="fill:#020202;fill-rule:nonzero;"/><path d="M94.928,437.746c-2.313,4.492 -0.603,10.594 0.046,15.333c0.652,4.727 -0.156,13.445 3.339,17.018c1.058,1.084 2.614,0.156 3.259,-0.901c2.905,-4.777 0.579,-11.354 -0.604,-16.443c-1.059,-4.563 -1.502,-11.7 -4.518,-15.43c-0.431,-0.537 -1.275,-0.055 -1.522,0.423Z" style="fill:#020202;fill-rule:nonzero;"/><path d="M171.463,473.348c18.053,15.104 45.058,-3.357 59.23,-15.236c17.471,-14.651 34.874,-34.616 40.804,-57.109c6.09,-23.13 9.864,-64.434 -16.003,-77.313c-9.672,-4.815 -21.424,-5.763 -31.91,-3.655c-7.892,1.588 -17.303,7.667 -15.507,16.917c0.563,2.896 2.177,5.372 3.999,7.643c3.51,4.375 12.176,-2.642 8.624,-6.979c-5.607,-6.852 -0.35,-8.405 6.668,-9.176c8.936,-0.983 18.645,0.648 26.304,5.468c10.216,6.432 12.784,21.327 13.636,32.313c1.017,13.104 -0.908,26.433 -4.394,39.055c-4.999,18.124 -21.155,34.964 -34.687,47.165c-14.063,12.685 -34.645,26.84 -53.921,17.429c-1.962,-0.958 -4.773,1.863 -2.843,3.478Z" style="fill:#020202;fill-rule:nonzero;"/><path d="M212.867,339.831c-5.743,7.632 -11.691,-2.247 -12.631,-8.276c-0.977,-6.277 3.261,-12.339 8.326,-15.6c9.908,-6.379 23.529,-5.307 34.546,-3.271c25.788,4.767 46.586,20.692 54.901,46.17c9.002,27.567 -3.363,57.33 -20.576,78.817c-20.631,25.757 -54.846,44.54 -87.943,46.054c-5.248,0.244 -9.284,9.406 -2.334,9.443c19.546,0.098 39.262,-8.216 56.379,-17.027c13.236,-6.81 24.896,-16.401 35.084,-27.178c19.671,-20.816 33.714,-49.613 31.72,-78.742c-1.819,-26.559 -19.635,-50.885 -44.396,-60.435c-19.745,-7.619 -50.414,-12.79 -66.617,4.936c-7.518,8.229 -9.516,18.606 -3.966,28.494c5.532,9.851 18.077,8.508 22.182,-1.506c1.393,-3.405 -2.832,-4.333 -4.675,-1.879Z" style="fill:#020202;fill-rule:nonzero;"/><path d="M135.109,469.751c-0.29,0.022 -0.747,0.13 -1.021,0c-0.232,-0.11 -0.197,-0.812 -0.231,-1.019c-0.048,-0.303 -0.476,-0.167 -0.515,0.076c-0.069,0.464 -0.184,1.068 0.105,1.481c0.269,0.39 1.042,0.337 1.44,0.368c0.535,0.043 0.859,-0.951 0.222,-0.906Z" style="fill:#020202;fill-rule:nonzero;"/><path d="M132.518,459.981c-5.579,-4.126 -5.553,15.478 -5.479,16.734c0.596,10.15 7.341,26.045 19.327,26.271c24.158,0.461 9.54,-38.701 6.839,-50.69c-1.133,-5.038 -8.221,-0.027 -8.465,3.299c-0.491,6.638 1.378,12.838 2.908,19.269c1.276,5.358 4.459,14.178 1.933,19.559c0.484,-1.032 0.752,-0.416 -1.08,-0.598c-2.973,-0.293 -5.209,-2.707 -7.038,-4.794c-2.648,-3.021 -5.127,-6.759 -6.442,-10.563c-1.274,-3.682 -1.67,-7.725 -1.93,-11.588c-0.091,-1.307 0.398,-6.322 -0.894,-6.06c0.349,-0.075 0.667,-0.583 0.321,-0.839Z" style="fill:#020202;fill-rule:nonzero;"/><path d="M156.011,477.268c-1.827,9.375 6.269,19.275 13.063,24.664c9.107,7.218 20.07,3.822 27.065,-4.3c1.154,-1.341 2.079,-4.087 0.604,-5.577c-3.206,-3.23 -6.345,-6.052 -10.593,-7.824c-5.474,-2.28 -12.319,6.275 -5.819,8.859c3.198,1.272 5.563,3.42 7.988,5.781c0.204,-1.857 0.398,-3.72 0.604,-5.578c-11.09,14.149 -24.108,-10.195 -30.212,-17.096c-0.838,-0.944 -2.497,0.017 -2.7,1.071Z" style="fill:#020202;fill-rule:nonzero;"/></g></svg>