<?xml version="1.0" encoding="UTF-8" standalone="no"?><!DOCTYPE svg PUBLIC "-//W3C//DTD SVG 1.1//EN" "http://www.w3.org/Graphics/SVG/1.1/DTD/svg11.dtd"><svg width="100%" height="100%" viewBox="0 0 526 444" version="1.1" xmlns="http://www.w3.org/2000/svg" xmlns:xlink="http://www.w3.org/1999/xlink" xml:space="preserve" style="fill-rule:evenodd;clip-rule:evenodd;stroke-linejoin:round;stroke-miterlimit:1.41421;"><g id="chest"><path d="M110.583,188.869c16.281,16.132 11.822,40.587 21.298,59.808c2.154,4.37 5.495,7.824 8.112,11.853c2.842,4.374 8.333,6.46 13.121,7.758c9.358,2.537 22.758,3.083 31.418,-1.612c2.127,-1.152 3.463,-4.165 1.254,-5.849c-3.311,-2.524 -7.883,-2.272 -11.932,-2.202c-5.277,0.093 -10.503,0.023 -15.69,-1.05c-2.181,-0.451 -4.147,-1.27 -6.075,-2.366c-2.187,-1.244 -3.195,-3.87 -5.29,-5.017c-4.157,-2.276 -6.519,-7.648 -8.617,-11.636c-8.8,-16.72 -5.782,-42.745 -25.575,-51.857c-1.071,-0.493 -3.06,1.144 -2.024,2.17Z" style="fill-rule:nonzero;"/><path d="M193.56,267.745c0.96,3.723 7.251,3.896 10.263,4.096c5.311,0.354 10.58,0.232 15.884,-0.17c10.845,-0.822 21.565,-3.159 31.647,-7.26c10.145,-4.128 19.376,-9.996 26.797,-18.1c5.837,-6.374 15.804,-19.539 9.479,-28.196c-1.294,-1.771 -4.133,-0.658 -5.415,0.438c-6.833,5.849 -9.222,15.18 -15.576,21.602c-6.403,6.471 -14.375,10.901 -22.855,14.044c-8.927,3.308 -18.36,5.331 -27.79,6.507c-3.501,0.437 -24.126,0.478 -22.434,7.039Z" style="fill-rule:nonzero;"/><path d="M302.638,232.646c-7.364,14.563 4.789,31.605 17.103,38.629c14.757,8.418 32.813,10.008 49.439,10.404c16.201,0.388 35.088,0.668 50.095,-6.023c16.133,-7.193 23.669,-22.68 26.797,-39.238c1.864,-9.869 2.492,-19.938 3.79,-29.887c0.679,-5.198 1.572,-10.365 2.832,-15.455c1.166,-4.71 3.238,-9.33 3.05,-14.246c-0.135,-3.518 -4.522,-2.894 -6.364,-1.246c-6.786,6.075 -8.59,16.008 -10.131,24.596c-1.551,8.644 -2.248,17.42 -3.285,26.133c-1.68,14.107 -3.882,30.979 -17.597,38.474c-7.298,3.987 -16.03,4.258 -24.137,4.79c-7.858,0.517 -15.742,0.758 -23.617,0.632c-16.063,-0.257 -33.879,-1.874 -47.966,-10.246c-4.578,-2.72 -9,-6.483 -11.749,-11.095c-3.132,-5.253 -3.032,-11.551 -5.725,-16.737c-0.601,-1.161 -2.092,-0.36 -2.535,0.515Z" style="fill-rule:nonzero;"/><path d="M176.127,235.154c-1.774,2.255 -1.219,5.101 0.656,7.076c1.992,2.099 5.242,2.708 8.015,2.469c2.507,-0.216 4.827,-1.992 5.886,-4.243c1.207,-2.566 0.381,-5.147 -2.393,-5.969c-2.588,-0.766 -5.246,-0.826 -7.926,-0.925c-2.547,-0.095 -5.176,2.317 -6.182,4.456c-0.848,1.802 -0.962,4.924 1.305,5.85c1.899,0.774 3.331,2.053 5.441,2.352c3.626,0.515 8.816,-3.592 7.125,-7.592c-1.193,-2.822 -3.567,-4.082 -6.332,-5.003c-1.223,3.575 -2.446,7.149 -3.669,10.725c1.041,-0.036 2.081,-0.067 3.123,-0.053c-1.015,-0.015 0.653,0.079 0.693,0.084c0.548,0.061 1.093,0.162 1.636,0.259c1.164,-3.404 2.328,-6.808 3.493,-10.212c-0.479,0.091 -0.958,0.159 -1.442,0.222c-0.07,0.01 -1.559,-0.008 -0.632,0.062c-0.833,-0.063 -1.699,-0.25 -2.504,-0.468c0.69,0.187 -0.278,-0.163 -0.382,-0.221c-0.27,-0.15 -0.516,-0.309 -0.798,-0.44c-1.839,-0.869 -3.927,0.064 -5.113,1.571Z" style="fill-rule:nonzero;"/><path d="M379.697,240.321c3.698,1.489 7.904,1.292 11.83,1.424c1.185,-3.461 2.368,-6.922 3.552,-10.383c-3.204,-0.892 -7.496,0.268 -10.631,0.98c1.869,2.129 3.738,4.259 5.606,6.389c0.024,-0.071 0.049,-0.142 0.073,-0.213c-1.668,1.464 -3.335,2.927 -5.002,4.391c0.08,-0.021 0.162,-0.043 0.243,-0.064c-0.976,0.079 -1.95,0.158 -2.925,0.237c4.305,0.698 10.531,-3.322 8.686,-8.322c-0.768,-2.081 -2.677,-3.047 -4.839,-2.923c-3.135,0.181 -5.415,2.295 -6.863,4.912c-0.888,1.605 -0.911,3.932 0.339,5.356c1.359,1.55 3.444,1.511 5.268,1.032c2.979,-0.782 4.816,-0.835 7.88,-1.672c2.399,-0.656 4.536,-2.955 5.055,-5.373c0.616,-2.878 -1.394,-4.883 -4.202,-4.791c-3.365,0.111 -6.73,0.11 -10.069,0.566c-2.178,0.297 -4.123,1.642 -5.07,3.655c-0.694,1.473 -0.795,4.049 1.069,4.799Z" style="fill-rule:nonzero;"/><path d="M193.292,43.995c-14.021,17.102 -33.979,26.284 -53.691,35.087c-10.725,4.79 -20.562,9.949 -30.134,16.777c-3.684,2.627 -7.235,5.365 -10.07,8.92c-2.053,2.573 -3.737,4.889 -5.035,6.352c1.329,-0.956 2.659,-1.912 3.988,-2.868c-0.06,0.017 -0.119,0.033 -0.179,0.05c1.664,0.326 3.329,0.652 4.993,0.979c0.13,0.167 0.26,0.333 0.39,0.499c-1.41,-5.14 -8.628,-0.786 -9.925,2.021c-0.535,1.16 -0.727,2.153 -0.807,3.422c-0.074,1.188 0.828,2.625 1.896,3.119c7.259,3.359 12.512,-8.812 16.93,-12.601c9.786,-8.391 21.03,-14.092 32.529,-19.704c19.574,-9.553 43.045,-19.979 52.616,-40.836c1.213,-2.64 -2.181,-2.825 -3.501,-1.217Z" style="fill-rule:nonzero;"/><path d="M97.684,113.778c-3.516,0.9 -6.837,1.244 -10.368,2.43c-3.173,1.066 -6.265,2.564 -9.301,3.967c-7.215,3.333 -13.354,8.524 -18.819,14.218c-10.046,10.469 -17.482,22.84 -22.211,36.542c-4.622,13.394 -6.571,27.32 -7.458,41.413c-0.445,7.073 -0.569,14.158 -0.484,21.243c0.083,6.878 0.132,15.286 2.737,21.735c1.252,3.098 5.047,0.07 5.668,-1.826c2.085,-6.367 2.15,-13.656 2.479,-20.307c0.331,-6.669 0.474,-13.345 0.805,-20.014c0.629,-12.693 2.237,-25.397 5.692,-37.647c3.445,-12.215 9.586,-23.51 17.648,-33.275c4.459,-5.399 9.568,-10.204 15.432,-14.035c2.95,-1.926 6.112,-3.476 9.256,-5.051c3.646,-1.827 6.258,-4.137 9.542,-6.407c1.399,-0.967 1.728,-3.587 -0.618,-2.986Z" style="fill-rule:nonzero;"/><path d="M32.388,252.154c-6.612,3.365 -11.239,11.31 -14.808,17.542c-4.028,7.033 -6.91,14.715 -9.12,22.492c-4.53,15.941 -5.721,32.729 -7.464,49.141c3.711,-1.195 7.422,-2.392 11.133,-3.588c-0.358,-1.3 -0.762,-2.01 -1.77,-2.909c-3.615,-3.229 -10.114,0.982 -9.676,5.56c0.083,0.773 0.148,1.549 0.195,2.326c0.502,6.922 10.884,2.82 11.398,-2.303c1.506,-14.981 2.603,-30.02 5.955,-44.735c1.685,-7.394 4.084,-14.599 7.262,-21.482c3.048,-6.601 8.756,-13.008 10.507,-20.025c0.591,-2.365 -2.003,-2.837 -3.612,-2.019Z" style="fill-rule:nonzero;"/><path d="M127.685,240.59c-2.03,9.971 -3.509,19.342 -8.192,28.531c-4.961,9.731 -12.148,17.497 -19.979,24.963c-7.289,6.951 -13.285,13.452 -16.934,22.991c-3.592,9.393 -4.883,19.508 -8.771,28.789c3.672,-0.748 7.345,-1.495 11.017,-2.243c-0.268,1.567 -0.299,1.46 -0.097,-0.322c-0.127,-0.683 -0.274,-1.359 -0.444,-2.032c-1.114,-4.637 -7.493,-1.261 -9.186,0.744c-0.753,0.892 -1.326,1.85 -1.896,2.865c-1.023,1.828 -0.697,3.722 0.342,5.393c0.202,0.324 0.403,0.648 0.605,0.973c2.482,3.992 9.195,-0.478 10.328,-3.387c3.637,-9.345 5.328,-19.218 8.202,-28.793c3.133,-10.438 11.101,-16.83 18.339,-24.482c13.042,-13.787 24.727,-35.145 20.736,-54.812c-0.497,-2.457 -3.696,-1.015 -4.07,0.822Z" style="fill-rule:nonzero;"/><path d="M420.698,276.848c-1.479,11.413 -7.131,22.463 -10.949,33.231c-5.004,14.114 -9.773,28.301 -14.934,42.36c-4.755,12.952 -7.663,25.696 -8.648,39.477c-0.994,13.882 -0.04,27.858 0.934,41.712c3.998,-1.282 7.996,-2.563 11.995,-3.846c-0.313,-3.992 -2.855,-8.24 -7.521,-6.282c-4.394,1.844 -4.842,5.918 -4.475,10.128c0.67,7.721 12.484,2.376 11.995,-3.846c-1.043,-13.258 -1.923,-26.529 -1.368,-39.832c0.593,-14.223 4.14,-27.328 8.68,-40.721c4.751,-14.012 9.104,-28.199 13.169,-42.425c2.69,-9.412 8.594,-21.363 4.413,-31.017c-0.697,-1.609 -3.12,-0.253 -3.291,1.061Z" style="fill-rule:nonzero;"/><path d="M499.303,236.017c-11.093,22.811 3.36,47.893 8.832,70.341c6.723,27.587 6.729,56.748 4.217,84.876c3.832,-1.234 7.664,-2.469 11.495,-3.704c-0.928,-2.724 -2.058,-4.691 -4.595,-6.144c-3.087,-1.768 -6.892,1.546 -7.609,4.422c-0.752,3.002 -0.209,5.338 0.862,8.187c2.567,6.826 11.335,-0.511 11.616,-5.139c1.654,-27.183 1.804,-54.692 -3.767,-81.471c-2.644,-12.714 -7.323,-24.614 -11.001,-37.015c-3.215,-10.836 -6.135,-23.35 -5.301,-34.738c0.219,-2.973 -4.041,-1.07 -4.749,0.385Z" style="fill-rule:nonzero;"/><path d="M420.512,297.786c-0.854,9.688 -0.369,17.786 3.626,26.834c4.139,9.376 10.642,17.389 15.091,26.563c3.509,7.236 6.459,15.202 8.912,22.87c0.872,2.727 1.661,5.479 2.388,8.246c0.323,1.232 0.625,2.471 0.85,3.724c0.392,2.188 -0.66,2.879 0.707,0.212c1.152,-1.228 2.304,-2.455 3.456,-3.684c-1.179,0.688 3.651,-0.768 1.818,-0.665c-3.232,0.181 -6.148,3.31 -6.13,6.515c0.005,0.674 0.054,1.451 0.373,2.041c1.298,2.403 3.335,2.67 5.833,2.129c13.62,-2.952 0.59,-28.233 -2.313,-35.265c-4.467,-10.82 -10.305,-19.886 -16.96,-29.453c-6.124,-8.802 -12.464,-20.005 -13.86,-30.833c-0.293,-2.267 -3.636,-0.978 -3.791,0.766Z" style="fill-rule:nonzero;"/><path d="M111.356,283.804c-1.155,5.383 -1.02,9.387 0.686,14.732c1.773,5.562 4.799,10.693 7.907,15.596c6.903,10.884 16.41,19.932 25.599,28.857c1.822,1.77 3.63,3.553 5.422,5.353c0.668,0.673 1.33,1.352 1.99,2.031c-0.139,-0.144 -1.021,5.599 -1.081,6.129c-1.049,9.36 -2.498,18.673 -3.789,28.002c-2.511,18.155 -4.206,36.483 -1.761,54.742c3.899,-1.726 7.8,-3.45 11.699,-5.176c-1.173,-3.943 -4.757,-8.97 -9.475,-6.278c-4.9,2.797 -3.308,8.521 -1.949,12.79c2.017,6.335 12.501,0.07 11.701,-5.176c-2.736,-17.923 -0.963,-35.856 1.434,-53.709c1.167,-8.696 2.463,-17.373 3.354,-26.104c0.334,-3.27 1.78,-8.701 0.593,-11.802c-0.752,-1.962 -3.394,-3.644 -4.906,-5.02c-8.902,-8.098 -17.647,-16.35 -25.79,-25.221c-4.169,-4.541 -8.149,-9.269 -11.493,-14.456c-1.555,-2.411 -2.792,-5.029 -3.841,-7.694c-0.979,-2.488 -2.417,-5.681 -2.837,-8.296c-0.344,-2.142 -3.14,-0.805 -3.463,0.7Z" style="fill-rule:nonzero;"/><path d="M332.193,38.674c-4.396,8.984 2.296,18.592 8.419,24.896c7.876,8.108 18.476,14.149 28.295,19.548c12.368,6.798 25.281,12.507 37.866,18.876c11.924,6.034 23.107,13.078 33.786,21.098c34.662,26.027 76.869,71.239 54.258,117.658c3.599,0.671 7.199,1.343 10.797,2.014c0.811,-2.133 1.223,-3.937 1.178,-6.228c-0.063,-3.27 -3.548,-4.33 -6.201,-3.481c-3.263,1.043 -5.414,3.919 -5.619,7.271c-0.051,0.142 -0.103,0.283 -0.154,0.425c-3.515,8.18 7.816,8.136 10.797,2.014c23.132,-47.521 -11.625,-92.998 -47.172,-122.369c-9.405,-7.771 -19.287,-15.032 -29.789,-21.253c-12.662,-7.501 -26.186,-13.539 -39.519,-19.727c-11.539,-5.355 -23.194,-10.978 -33.878,-17.924c-4.589,-2.983 -8.848,-6.339 -12.683,-10.243c-3.81,-3.876 -5.847,-8.233 -8.194,-13.02c-0.497,-1.012 -1.823,-0.3 -2.187,0.445Z" style="fill-rule:nonzero;"/><path d="M283.388,291.142c-2.362,10.881 -0.008,22.126 0.564,33.12c0.325,6.249 -0.003,12.38 -1.36,18.496c-0.604,2.722 -2.837,4.564 -2.039,7.505c0.765,2.819 1.588,5.621 2.309,8.453c5.695,22.39 3.498,45.77 3.15,68.56c3.998,-1.282 7.996,-2.563 11.994,-3.846c-0.092,-2.209 -0.463,-3.345 -1.775,-5.107c-2.479,-3.326 -7.434,0.41 -8.73,2.863c-1.126,2.13 -1.392,3.705 -1.488,6.09c-0.301,7.407 12.071,2.571 11.994,-3.846c-0.268,-22.345 0.51,-45.071 -4.314,-67.024c-1.061,-4.828 -3.508,-9.389 -2.836,-14.316c0.759,-5.568 0.963,-11.02 0.7,-16.637c-0.545,-11.609 -2.03,-23.71 -4.189,-35.114c-0.462,-2.432 -3.597,-0.958 -3.98,0.803Z" style="fill-rule:nonzero;"/><path d="M180.837,342.473c3.963,5.034 9.43,7.783 15.462,9.786c7.307,2.426 14.727,4.551 22.416,5.299c13.795,1.343 29.869,1.566 43.252,-2.581c8.04,-2.491 9.662,-16.449 -0.728,-13.42c-3.681,1.073 -5.849,3.706 -6.862,7.296c2.287,-2.433 4.575,-4.864 6.862,-7.296c-6.11,1.643 -11.919,3.573 -18.207,4.571c-6.901,1.096 -13.866,1.424 -20.844,1.275c-7.062,-0.15 -14.185,-0.457 -21.088,-2.043c-6.253,-1.438 -12.31,-3.62 -18.521,-5.172c-1.095,-0.274 -2.526,1.29 -1.742,2.285Z" style="fill-rule:nonzero;"/><path d="M304.469,345.214c4.756,2.862 8.448,6.213 13.847,8.086c6.133,2.129 12.438,4.02 18.864,5.017c12.42,1.926 26.396,1.207 38.363,-2.805c3.986,-1.336 8.322,-6.07 6.591,-10.589c-1.837,-4.793 -7.996,-3.047 -10.937,-0.582c-0.229,0.192 -0.458,0.385 -0.688,0.576c-3.008,2.522 -4.422,7.378 -0.767,9.92c0.203,0.141 0.406,0.282 0.61,0.424c1.49,-4.335 2.98,-8.67 4.471,-13.005c-11.104,4.188 -22.141,5.293 -34.016,4.667c-5.685,-0.3 -11.267,-0.794 -16.879,-1.77c-5.822,-1.013 -12.184,-1.11 -17.851,-2.585c-1.257,-0.328 -2.997,1.81 -1.608,2.646Z" style="fill-rule:nonzero;"/><path d="M198.151,410.839c6.968,4.917 15.076,7.623 23.535,8.543c4.523,0.492 9.116,0.623 13.664,0.54c2.482,-0.045 4.963,-0.233 7.437,-0.455c1.863,-0.167 4.43,-1.033 6.171,-0.435c5.146,1.771 11.205,-4.844 10.951,-9.61c-0.354,-6.676 -8.169,-5.041 -11.703,-2.292c1.629,-0.804 1.566,-0.921 -0.186,-0.351c-0.933,0.224 -1.868,0.433 -2.807,0.629c-1.939,0.42 -3.92,0.687 -5.882,0.972c-4.203,0.612 -8.441,0.956 -12.683,1.131c-8.847,0.364 -17.977,0.259 -26.643,-1.721c-1.503,-0.344 -3.372,1.979 -1.854,3.049Z" style="fill-rule:nonzero;"/><path d="M312.547,410.156c6.67,4.687 13.39,6.911 21.447,7.991c4.404,0.591 8.887,0.707 13.324,0.84c1.951,0.059 3.904,0.077 5.856,0.098c1.466,0.016 4.497,-0.445 5.804,0.104c2.225,-4.703 4.451,-9.406 6.676,-14.109c-3.43,0.598 -5.703,1.499 -8.446,3.693c-3.136,2.509 -5.2,10.232 0.69,10.931c1.546,0.183 3.036,0.212 4.592,0.146c4.199,-0.182 8.248,-3.975 9.109,-7.994c1.003,-4.681 -3.461,-8.242 -7.906,-6.38c-3.209,1.345 -7.41,1.317 -10.872,1.691c-4.102,0.443 -8.211,0.776 -12.332,0.972c-7.968,0.378 -17.289,0.739 -24.892,-2.009c-2.163,-0.783 -5.419,2.361 -3.05,4.026Z" style="fill-rule:nonzero;"/><path d="M214.471,61.887c4.938,7.232 10.84,13.68 16.561,20.288c5.225,6.033 12.739,14.042 13.148,22.435c2.537,-2.696 5.074,-5.393 7.611,-8.09c-10.98,0.093 -22.621,2.309 -33.156,5.301c-8.434,2.395 -9.975,16.923 0.752,13.877c10.328,-2.934 21.246,-3.989 31.416,-7.369c4.023,-1.338 7.844,-6.345 4.98,-10.386c-10.801,-15.248 -24.25,-26.594 -38.406,-38.607c-1.465,-1.244 -4.009,0.935 -2.906,2.551Z" style="fill-rule:nonzero;"/><path d="M301.034,61.588c-5.695,6.044 -11.367,11.749 -16.334,18.475c-5.12,6.935 -8.795,14.297 -12.554,22c-1.51,3.095 -0.55,6.824 3.063,7.638c6.139,1.383 12.536,1.542 18.811,1.623c6.376,0.082 12.283,0.953 18.521,2.148c-0.983,-0.54 -1.968,-1.079 -2.952,-1.619c2.283,1.819 3.881,1.916 6.71,1.315c4.442,-0.944 11.334,-10.817 4.638,-13.49c-12.346,-4.928 -26.646,-2.324 -39.604,-2.967c1.213,1.984 2.425,3.969 3.638,5.953c1.074,-6.88 5.105,-13.562 8.475,-19.558c3.677,-6.542 7.382,-13.092 11.046,-19.623c1.323,-2.364 -1.943,-3.504 -3.458,-1.895Z" style="fill-rule:nonzero;"/><path d="M185.793,1.667c-2.229,5.756 -1.746,12.231 -1.246,18.265c0.712,8.606 2.693,17.024 3.588,25.593c0.687,6.572 10.868,2.041 10.244,-3.284c-0.21,-1.793 -0.629,-2.817 -1.579,-4.337c-2.713,-4.338 -8.616,1.991 -8.771,5.04c-0.131,0.868 -0.095,1.729 0.105,2.582c3.336,-1.476 6.672,-2.951 10.008,-4.427c-3.196,-7.392 -4.853,-15.62 -6.252,-23.521c-0.939,-5.306 -0.956,-11.575 -3.431,-16.454c-0.588,-1.163 -2.283,-0.445 -2.666,0.543Z" style="fill-rule:nonzero;"/><path d="M335.405,7.788c1.554,5.856 0.69,12.827 -0.127,18.695c-0.52,3.722 -1.25,7.498 -2.104,11.161c-0.625,2.679 -1.614,4.553 -2.335,6.375c-1.295,3.274 0.92,7.219 4.857,5.535c7.45,-3.188 7.034,-12.732 7.562,-19.613c0.677,-8.833 0.128,-16.488 -4.245,-24.209c-1.147,-2.025 -4.11,0.165 -3.608,2.056Z" style="fill-rule:nonzero;"/></g></svg>