<?xml version="1.0" encoding="UTF-8" standalone="no"?><!DOCTYPE svg PUBLIC "-//W3C//DTD SVG 1.1//EN" "http://www.w3.org/Graphics/SVG/1.1/DTD/svg11.dtd"><svg width="100%" height="100%" viewBox="0 0 365 524" version="1.1" xmlns="http://www.w3.org/2000/svg" xmlns:xlink="http://www.w3.org/1999/xlink" xml:space="preserve" style="fill-rule:evenodd;clip-rule:evenodd;stroke-linejoin:round;stroke-miterlimit:1.41421;"><g id="dog"><path d="M199.417,7.296c-16.008,-7.166 -32.071,6.319 -42.291,17.428c-13.136,14.277 -22.773,31.907 -30.917,49.392c-19.25,41.333 -24.27,91.803 -1.384,132.809c11.405,20.437 29.12,37.045 51.081,45.461c20.609,7.897 43.396,8.36 64.55,2.379c21.276,-6.02 41.806,-19.967 53.796,-38.728c12.389,-19.384 13.675,-43.338 10.944,-65.582c-3.332,-27.158 -12.037,-55.23 -23.987,-79.844c-12.474,-25.69 -34.53,-48.461 -62.688,-56.063c-4.325,-1.168 -10.688,6.649 -5.637,9.261c10.468,5.413 21.099,10.604 30.25,18.137c8.847,7.282 16.147,16.246 22.167,25.956c5.986,9.655 10.076,20.375 14.011,30.984c3.957,10.669 7.463,21.502 10.308,32.521c5.727,22.171 8.834,46.493 1.859,68.733c-6.602,21.048 -26.468,36.262 -46.504,43.546c-20.798,7.562 -44.314,7.008 -64.86,-1.086c-22.477,-8.854 -40.042,-26.865 -50.423,-48.457c-20.183,-41.981 -10.953,-90.217 9.235,-130.154c6.686,-13.224 14.416,-26.147 24.273,-37.269c8.765,-9.888 20.005,-17.366 33.71,-15.308c1.818,0.273 4.922,-3.035 2.507,-4.116Z" style="fill:#010101;fill-rule:nonzero;"/><path d="M175.757,99.365c-3.399,4.638 -6.924,9.563 -6.36,15.643c0.39,4.186 3.273,7.204 7.309,8.095c5.021,1.109 9.963,-1.88 13.207,-5.438c3.901,-4.279 5.105,-10.302 4.681,-15.926c-0.499,-6.595 -3.62,-14.426 -11.711,-12.049c-7.305,2.146 -11.941,9.916 -13.411,16.968c-1.222,5.861 -1.308,13.051 5.277,15.312c5.523,1.896 11.854,-3.917 14.783,-7.844c3.394,-4.554 5.206,-10.459 4.726,-16.127c-0.197,-2.325 -1.567,-3.57 -3.698,-4.214c-7.016,-2.117 -13.429,0.563 -17.155,6.804c-2.339,3.915 -1.572,9.377 -0.041,13.41c1.772,4.67 5.392,7.994 10.66,6.523c7.721,-2.154 8.532,-11.045 8.271,-17.613c-0.281,-7.053 -9.852,-4.615 -12.47,-0.605c-3.647,5.584 -5.877,12.676 -0.982,18.125c2.624,2.92 6.692,-0.25 8.144,-2.671c1.18,-1.971 2.049,-3.682 2.732,-5.886c0.344,-1.109 0.185,-2.79 0.797,-3.789c-4.156,-0.202 -8.313,-0.404 -12.47,-0.606c0.071,0.979 0.124,1.956 0.146,2.938c0.007,0.407 0.005,0.815 -0.006,1.225c-0.028,1.826 0.183,-1.255 -0.011,0.299c-0.08,0.648 -0.684,2.293 0.168,-0.016c0.699,-1.894 4.673,-4.804 7.815,-4.322c1.465,0.224 0.674,0.036 1.677,0.887c-0.338,-0.287 -0.613,-0.648 -0.877,-1.002c-0.935,-1.251 0.489,0.934 -0.027,-0.025c-0.277,-0.518 -0.505,-1.061 -0.717,-1.606c-0.177,-0.458 -0.316,-0.93 -0.45,-1.402c-0.154,-0.625 -0.132,-0.478 0.065,0.442c-0.074,-0.36 -0.119,-0.726 -0.164,-1.091c-0.058,-0.474 -0.064,-0.949 -0.062,-1.425c-0.021,2.484 0.629,-1.665 -0.302,1.045c0.556,-1.62 -0.897,1.158 -0.22,0.294c-0.56,0.765 -1.252,1.38 -2.079,1.844c1.074,-0.719 -1.784,0.626 -0.464,0.24c-2.425,0.708 1.012,0.259 -0.787,0.128c0.954,0.069 1.892,0.32 2.809,0.576c-1.231,-1.404 -2.465,-2.81 -3.697,-4.213c0.239,2.271 0.185,2.658 -0.407,4.831c0.334,-1.228 -0.44,0.974 -0.563,1.229c-0.176,0.353 -0.361,0.701 -0.558,1.043c0.813,-1.468 -0.107,0.074 -0.289,0.321c-1.253,1.705 0.427,-0.305 -0.421,0.486c-0.628,0.517 -0.472,0.43 0.469,-0.261c-0.426,0.302 -1.704,0.802 0.183,0.036c-1.105,0.45 2.132,0.104 1.147,-0.056c0.956,0.155 0.863,0.174 1.19,0.792c-1.014,-1.913 -0.157,-7.437 1.301,-9.697c0.262,-0.388 0.542,-0.762 0.841,-1.123c-0.442,0.446 -0.385,0.408 0.172,-0.115c0.831,-0.75 -0.556,0.279 -1.391,0.208c-0.325,-0.026 -0.007,0.009 0.362,0.445c0.65,0.766 0.848,2.121 1.007,3.076c0.32,1.924 0.587,3.908 0.326,5.854c-0.104,0.78 -0.309,1.542 -0.531,2.295c0.208,-0.704 -1.154,1.929 -0.429,0.824c-0.182,0.264 -0.374,0.52 -0.577,0.767c0.505,-0.507 0.527,-0.535 0.068,-0.086c-1.16,1.125 0.449,-0.11 -0.914,0.64c1.146,-0.63 -0.299,0.078 -0.634,0.172c-0.539,0.135 -0.51,0.145 0.086,0.03c-0.38,0.075 -0.769,0.098 -1.154,0.119c0.931,-0.051 -0.472,-0.077 -0.727,-0.13c-0.305,-0.063 -0.255,-0.054 -1.041,-0.497c-0.41,-0.23 -1.079,-1.002 -1.431,-1.834c-1.411,-3.333 0.419,-8.264 1.966,-11.196c1.208,-2.274 -2.022,-2.65 -3.157,-1.101Z" style="fill:#010101;fill-rule:nonzero;"/><path d="M220.821,98.966c-2.904,6.315 -3.129,14.037 -1.526,20.707c1.976,8.225 11.249,10.909 16.829,4.259c8.185,-9.751 2.842,-33.838 -11.513,-34.735c-3.661,-0.229 -8.442,2.269 -8.864,6.394c-1.104,10.772 0.146,26.48 13.395,28.693c4.613,0.771 8.417,-2.949 9.722,-7.009c2.752,-8.562 -0.187,-18.889 -8.351,-23.329c-4.842,-2.633 -10.408,2.323 -11.638,6.763c-2.179,7.87 -1.748,22.47 7.436,25.921c3.378,1.27 8.214,-1.15 8.646,-5.024c0.865,-7.748 -4.243,-14.139 -2.201,-22.021c-3.879,2.254 -7.759,4.508 -11.638,6.762c4.391,2.278 5.655,7.5 4.401,12.011c3.24,-2.336 6.48,-4.673 9.721,-7.009c-7.607,-0.932 -7.543,-12.498 -7.199,-18.241c-2.497,2.653 -4.993,5.306 -7.489,7.959c7.037,-0.675 8.671,13.073 7.649,17.774c-0.217,0.995 1.742,-1.199 1.89,-1.139c-2.002,-0.849 -2.898,-3.59 -3.564,-5.441c-1.396,-3.889 -2.352,-8.959 -1.922,-13.116c0.269,-2.608 -2.989,-1.907 -3.784,-0.179Z" style="fill:#010101;fill-rule:nonzero;"/><path d="M165.039,155.245c7.998,-14.858 31.847,-14.705 46.324,-15.041c7.641,-0.177 15.283,0.169 22.861,1.167c7.172,0.945 15.91,3.527 19.68,10.338c6.791,12.275 -4.847,26.511 -14.021,33.609c-12.26,9.485 -26.971,8.897 -41.266,5.354c-8.481,-2.103 -17.534,-5.589 -24.092,-11.528c-2.901,-2.628 -4.962,-5.654 -6.079,-9.405c-1.163,-3.904 0.436,-7.851 -0.647,-11.828c-0.922,-3.388 -6.032,-2.24 -7.78,-0.413c-6.295,6.58 -6.544,16.168 -2.2,24.017c3.956,7.146 10.844,12.018 18.053,15.533c13.896,6.776 31.955,10.134 47.221,6.882c16.632,-3.543 31.141,-15.489 39.203,-30.261c6.999,-12.824 6.531,-28.722 -6.889,-36.861c-7.58,-4.598 -16.945,-5.182 -25.57,-5.57c-8.93,-0.401 -17.925,-0.078 -26.786,1.086c-9.519,1.25 -18.969,3.094 -27.761,7.063c-6.481,2.926 -13.641,8.168 -14.822,15.647c-0.516,3.26 3.562,2.084 4.571,0.211Z" style="fill:#010101;fill-rule:nonzero;"/><path d="M200.019,149.559c-8.21,-2.099 -30.764,-1.251 -26.91,12.68c3.156,11.409 16.947,11.494 26.115,8.553c7.217,-2.316 19.808,-8.644 19.906,-17.671c0.049,-4.488 -4.5,-6.177 -8.231,-6.604c-8.047,-0.919 -17.411,0.992 -24.048,5.624c-1.267,0.884 -2.708,3.49 -0.333,4.068c5.771,1.404 12.035,-0.052 17.896,-0.391c1.577,-0.091 3.09,-0.024 4.634,0.32c0.63,0.141 1.079,0.82 0.83,0.291c-0.067,-0.143 0.235,-0.916 -0.194,-0.043c-0.28,0.571 0.392,-0.502 -0.432,0.492c-0.371,0.42 -0.364,0.417 0.02,-0.011c-0.32,0.331 -0.665,0.639 -1.007,0.947c-2.134,1.923 -4.689,3.441 -7.771,4.724c-5.612,2.335 -13.375,3.989 -18.224,-0.778c-4.111,-4.044 -2.135,-5.866 2.48,-7.479c4.493,-1.57 9.771,-2.416 14.532,-2.564c0.998,-0.034 2.077,-1.816 0.737,-2.158Z" style="fill:#010101;fill-rule:nonzero;"/><path d="M169.448,217.435c4.06,12.45 16.703,14.848 28.395,12.997c6.541,-1.035 12.154,-2.547 15.953,-8.364c3.58,-5.483 3.984,-12.389 4.094,-18.747c0.107,-6.131 -9.564,-1.887 -9.651,3.095c-0.02,1.103 0.241,2.189 0.803,3.13c1.971,3.301 6.458,1.373 7.801,-1.589c0.682,-1.502 1.078,-2.977 1.049,-4.637c-0.106,-6.17 -9.74,-1.91 -9.651,3.095c0.069,3.981 0.09,8.122 -1.37,11.892c-1.546,3.991 -7.79,4.447 -11.493,5.098c-9.563,1.679 -16.949,-2.05 -24.941,-6.834c-0.485,-0.289 -1.147,0.38 -0.989,0.864Z" style="fill:#010101;fill-rule:nonzero;"/><path d="M212.245,215.684c-0.797,10.578 8.533,15.31 17.936,15.604c10.022,0.314 21.382,-4.229 28.714,-11c5.205,-4.808 -0.184,-10.986 -5.59,-6.37c-1.896,1.62 -3.438,3.364 -3.783,5.919c-0.115,0.859 0.043,1.631 0.84,2.106c1.93,1.155 4.023,0.583 5.99,-0.194c-1.016,-2.61 -2.031,-5.222 -3.047,-7.832c-5.434,4.484 -11.964,7.302 -18.98,8.114c-8.029,0.932 -14.489,-2.296 -20.572,-7.215c-0.646,-0.517 -1.457,0.168 -1.508,0.868Z" style="fill:#010101;fill-rule:nonzero;"/><path d="M150.51,32.614c-5.32,0.324 -11.265,-2.301 -15.978,-4.435c-5.182,-2.346 -9.816,-5.188 -13.851,-9.22c-6.008,-6.006 -11.146,-15.604 -20.005,-17.816c-9.257,-2.312 -19.009,4.291 -26.277,9.256c-9.355,6.392 -18.024,14.28 -24.312,23.764c-5.881,8.872 -7.904,18.046 -5.577,28.444c1.799,8.043 8.384,12.907 16.542,12.253c8.517,-0.682 16.616,-5.815 23.363,-10.67c4.587,-3.301 9.035,-6.766 13.488,-10.243c6.016,-4.697 12.646,-3.708 19.751,-2.723c8.423,1.168 17.031,1.293 24.306,-3.74c1.744,-1.207 3.366,-2.915 3.244,-5.212c-0.133,-2.502 -2.748,-3.52 -4.896,-2.748c-6.298,2.264 -11.426,2.824 -18.059,1.95c-6.271,-0.825 -12.277,-1.507 -18.518,-0.135c-5.781,1.271 -10.673,5.615 -15.146,9.214c-3.814,3.067 -7.816,6.038 -11.912,8.729c-4.889,3.212 -13.128,8.456 -19.072,5.133c-3.615,-2.022 -4.447,-7.563 -4.867,-11.197c-0.545,-4.714 0.896,-8.984 3.015,-13.135c4.844,-9.488 13.88,-17.246 22.519,-23.185c7.069,-4.86 15.812,-11.183 23.697,-4.641c7.313,6.065 12.034,14.41 20.523,19.188c7.89,4.441 19.605,9.737 28.216,4.64c1.349,-0.797 2.174,-3.615 -0.194,-3.471Z" style="fill:#010101;fill-rule:nonzero;"/><path d="M241.812,32.123c11.268,4.617 24.934,2.717 35.293,-3.215c5.17,-2.96 9.865,-6.711 14.756,-10.096c4.606,-3.189 10.22,-7.114 16.104,-6.526c5.26,0.525 10.229,4.551 14.281,7.625c4.54,3.445 9.002,6.985 13.551,10.419c10.308,7.781 18.535,18.603 18.729,31.927c1.2,-1.929 2.399,-3.855 3.6,-5.783c-19.914,11.449 -49.383,-1.872 -58.729,-21.47c-1.217,-2.551 -4.43,-2.781 -6.655,-1.338c-13.502,8.756 -29.775,4.439 -44.738,3.624c-2.588,-0.142 -7.122,3.939 -3.641,5.981c14.959,8.777 37.077,8.223 51.603,-1.18c-2.219,-0.446 -4.437,-0.893 -6.655,-1.338c11.934,25.089 47.358,38.541 71.973,23.967c2.021,-1.198 3.676,-3.336 3.599,-5.783c-0.439,-13.803 -8.068,-24.945 -18.38,-33.581c-4.358,-3.65 -9.191,-6.67 -13.747,-10.061c-5.054,-3.762 -10.213,-7.704 -16.257,-9.718c-11.826,-3.938 -22.372,3.79 -31.446,10.527c-5.297,3.933 -10.533,8.23 -16.688,10.762c-7.746,3.187 -17.334,3.221 -25.58,3.208c-0.786,0.002 -2.066,1.599 -0.973,2.049Z" style="fill:#010101;fill-rule:nonzero;"/><path d="M155.225,240.027c-0.959,10.66 -0.032,21.162 -3.051,31.578c-2.976,10.265 -10.423,19.086 -17.587,26.724c-8.896,9.482 -17.483,18.716 -24.623,29.651c-7.097,10.869 -12.806,22.565 -17.179,34.779c-8.744,24.427 -10.228,49.562 -11.261,75.235c-1.023,25.441 -0.37,52.09 13.453,74.354c3.468,5.584 12.342,-2.827 10.896,-7.778c-1.274,-4.366 -3.24,-7.447 -6.264,-10.797c-2.382,-2.637 -7.354,0.427 -7.666,3.438c-0.547,5.274 0.882,9.002 2.331,13.972c3.633,-2.593 7.265,-5.187 10.896,-7.778c-13.605,-21.771 -12.469,-49.222 -11.582,-73.87c0.911,-25.327 3.107,-49.789 12.467,-73.61c4.59,-11.684 10.722,-22.639 18.108,-32.773c7.466,-10.244 16.875,-18.762 24.651,-28.739c12.089,-15.509 17.664,-36.689 10.059,-55.56c-0.717,-1.788 -3.517,-0.286 -3.648,1.174Z" style="fill:#010101;fill-rule:nonzero;"/><path d="M268.197,235.713c-6.804,17.301 -9.488,38.721 -5.229,56.938c2.713,11.604 9.144,21.581 15.196,31.655c6.417,10.68 11.591,22.04 15.715,33.788c8.133,23.171 11.411,47.646 11.018,72.144c-0.207,12.88 -1.637,25.698 -3.977,38.358c-2.465,13.338 -6.614,26.344 -8.682,39.753c3.61,-1.618 7.221,-3.236 10.83,-4.855c-1.553,-1.469 -3.099,-2.557 -4.841,-3.778c-3.206,-2.25 -8.237,2.402 -7.909,5.687c0.283,2.841 0.825,4.726 2.763,6.858c3.495,3.852 10.136,-0.721 10.829,-4.855c2.14,-12.744 5.563,-25.224 7.649,-37.972c2.038,-12.441 3.525,-24.909 4.031,-37.515c0.989,-24.645 -2.128,-49.595 -9.63,-73.105c-3.592,-11.255 -8.482,-22.097 -14.207,-32.418c-5.979,-10.776 -13.654,-20.417 -18.497,-31.824c-3.79,-8.929 -5.23,-18.189 -5.032,-27.847c0.214,-10.398 2.93,-20.773 1.83,-31.161c-0.114,-1.085 -1.578,-0.564 -1.857,0.149Z" style="fill:#010101;fill-rule:nonzero;"/><path d="M139.322,486.474c5.749,0.92 11.483,0.823 17.196,2.21c4.409,1.07 8.595,2.993 12.388,5.466c8.219,5.359 15.187,12.672 22.932,18.681c7.959,6.174 18.57,8.312 28.347,6.403c11.282,-2.201 19.917,-9.31 26.658,-18.319c1.397,-1.867 2.037,-5.091 -0.438,-6.433c-2.998,-1.623 -6.467,1.001 -7.826,3.558c-4.511,8.467 -13.568,13.209 -22.903,13.899c-10.9,0.808 -19.255,-4.679 -27.659,-10.84c-6.64,-4.868 -13.008,-10.111 -20.523,-13.604c-7.99,-3.714 -18.351,-5.39 -27.071,-4.232c-1.324,0.174 -3.241,2.868 -1.101,3.211Z" style="fill:#010101;fill-rule:nonzero;"/><path d="M244.727,498.067c-1.581,15.955 16.541,23.355 29.689,22.418c7.646,-0.546 15.358,-3.939 20.766,-9.383c3.409,-3.432 12.796,-17.665 4.953,-20.947c-1.303,-0.545 -2.729,-0.158 -3.763,0.783c-4.241,3.871 -3.414,10.232 -7.405,14.366c-3.517,3.643 -8.491,5.231 -13.405,5.8c-5.31,0.614 -11.016,-0.375 -15.807,-2.734c-5.26,-2.591 -7.717,-6.873 -10.396,-11.796c-1.123,-2.062 -4.431,-0.532 -4.632,1.493Z" style="fill:#010101;fill-rule:nonzero;"/><path d="M204.129,393.18c2.746,17.939 21.893,29.841 39.141,30.646c9.234,0.431 18.354,-1.882 26.131,-6.922c4.272,-2.769 7.919,-6.288 11.11,-10.235c2.975,-3.677 6.905,-9.463 5.329,-14.367c-0.653,-2.034 -3.211,-1.06 -4.353,-0.231c-3.342,2.42 -5.296,6.349 -7.671,9.658c-2.245,3.128 -5.085,5.815 -8.309,7.912c-6.215,4.042 -13.776,5.612 -21.117,5.084c-16.413,-1.181 -27.857,-10.964 -38.523,-22.542c-0.594,-0.645 -1.857,0.224 -1.738,0.997Z" style="fill:#010101;fill-rule:nonzero;"/><path d="M243.945,421.667c-2.524,4.332 -1.924,11.211 -1.938,16.051c-0.021,8.139 -0.176,16.281 -0.13,24.421c0.041,7.34 -0.009,14.694 -0.477,22.021c-0.163,2.582 -0.465,5.166 -0.972,7.704c-0.451,2.263 -0.871,1.779 -1.1,4.066c-0.206,2.069 0.919,4.323 3.414,3.891c6.238,-1.085 7.306,-7.387 7.764,-12.667c0.672,-7.751 0.505,-15.564 0.288,-23.333c-0.237,-8.467 -0.929,-16.906 -1.586,-25.349c-0.281,-3.608 -0.401,-7.336 -1.104,-10.893c-0.438,-2.225 -0.425,-4.865 -1.978,-6.631c-0.688,-0.786 -1.802,0.07 -2.181,0.719Z" style="fill:#010101;fill-rule:nonzero;"/><path d="M97.297,508.125c0.11,4.695 5.307,8.217 9.131,10.107c5.451,2.697 11.598,3.895 17.558,4.816c10.188,1.576 20.824,1.273 30.29,-3.125c9.655,-4.485 16.423,-16.863 10.788,-26.855c-5.155,-9.146 -21.553,-13.297 -28.843,-4.734c-1.147,1.35 -1.478,3.902 0.333,4.87c3.255,1.742 6.759,0.229 10.254,0.554c3.973,0.369 7.36,2.22 9.727,5.399c5.757,7.74 -4.017,14.041 -10.153,15.82c-7.406,2.146 -15.569,1.622 -23.134,0.83c-4.839,-0.507 -9.712,-1.373 -14.261,-3.136c-3.746,-1.452 -6.848,-4.314 -10.563,-5.534c-0.543,-0.176 -1.138,0.496 -1.127,0.988Z" style="fill:#010101;fill-rule:nonzero;"/><path d="M83.808,479.32c-5.359,-1.239 -10.933,-3.508 -16.123,-5.417c-5.836,-2.146 -11.461,-5.007 -16.797,-8.184c-10.679,-6.358 -19.926,-15.061 -27.001,-25.26c-9.207,-13.272 -12.152,-29.699 -13.429,-45.492c-1.287,-15.928 -0.816,-33.29 5.829,-48.091c2.673,-5.954 6.667,-11.086 12.455,-14.232c5.213,-2.834 13.577,-4.318 18.922,-1.201c8.57,4.999 5.018,22.144 3.753,29.717c-2.068,12.391 -5.872,24.414 -7.986,36.787c-2.441,14.294 -1.202,30.241 3.331,43.982c5.493,16.651 18.294,28.096 34.923,33.018c5.346,1.581 11.412,-8.188 4.779,-10.141c-22.242,-6.541 -31.712,-26.42 -33.234,-48.169c-1.17,-16.726 3.366,-31.549 6.871,-47.972c2.714,-12.724 7.757,-33.236 -2.538,-43.982c-10.502,-10.962 -31.461,-2.715 -40.479,6.122c-10.3,10.094 -14.51,24.771 -16.124,38.714c-1.75,15.114 -0.683,30.526 2.388,45.399c3.33,16.135 10.048,30.147 21.666,42.112c7.735,7.966 17.141,14.214 27.162,18.91c4.61,2.16 9.505,3.726 14.404,5.079c5.463,1.511 10.563,1.369 16.158,1.431c1.463,0.019 3.004,-2.682 1.07,-3.13Z" style="fill:#010101;fill-rule:nonzero;"/><path d="M116.982,119.835c10.659,15.266 34.75,16.735 51.424,13.896c16.739,-2.852 32.773,-13.713 35.927,-31.333c5.643,-31.545 -35.768,-68.572 -65.754,-52.819c-1.54,0.81 -1.479,3.223 0.576,2.779c15.123,-3.261 29.66,0.542 41.64,10.287c11.183,9.099 19.816,23.084 19.091,37.871c-0.852,17.343 -17.625,26.876 -32.953,29.306c-15.644,2.48 -36.427,0.507 -47.766,-11.903c-0.991,-1.084 -3.002,0.747 -2.185,1.916Z" style="fill:#010101;fill-rule:nonzero;"/><path d="M264.871,515.826c1.063,0 1.783,-1.897 0.406,-1.897c-1.061,-0.001 -1.783,1.897 -0.406,1.897Z" style="fill:#010101;fill-rule:nonzero;"/><path d="M258.861,513.877c1.116,0 1.877,-2 0.428,-2c-1.118,0 -1.879,2 -0.428,2Z" style="fill:#010101;fill-rule:nonzero;"/><path d="M156.764,250.414c-6.434,-0.505 -16.44,0.959 -16.146,9.521c0.251,7.304 10.208,12.449 15.721,15.167c11.328,5.586 25.735,5.939 38.081,7.079c17.183,1.585 34.661,2.4 51.864,0.695c13.324,-1.321 30.241,-4.431 38.396,-16.341c1.895,-2.767 3.506,-5.817 3.932,-9.188c0.25,-1.97 -0.018,-4.362 -2.112,-5.313c-5.63,-2.551 -11.354,-3.035 -16.97,-0.198c-3.094,1.562 -5.028,6.131 -1.817,8.479c2.772,2.025 6.778,2.013 9.938,3.402c-0.704,-1.771 -1.409,-3.541 -2.112,-5.313c-0.115,0.985 -0.26,1.964 -0.485,2.931c-0.132,0.561 -0.211,0.656 -0.502,1.063c-0.886,1.234 -1.575,1.769 -3.521,2.938c-4.301,2.583 -10.133,4.124 -15.606,5.135c-14.914,2.754 -30.355,2.744 -45.46,2.199c-12.176,-0.439 -24.371,-1.497 -36.463,-2.989c-6.351,-0.783 -12.205,-2.985 -17.812,-6.063c-2.762,-1.516 -5.769,-3.317 -7.723,-5.833c-0.9,-1.157 -0.647,-0.869 0.328,-1.47c2.287,-1.405 5.323,-2.229 7.858,-3.036c0.972,-0.31 2.425,-2.723 0.611,-2.865Z" style="fill:#010101;fill-rule:nonzero;"/><path d="M142.37,262.073c-2.092,1.809 -3.539,4.486 -4.645,6.992c-0.886,2.009 -0.576,3.713 1.129,5.063c23.53,18.618 57,20.807 85.932,18.641c12.989,-0.973 26.179,-2.888 38.591,-6.942c10.13,-3.31 21.851,-9.194 25.92,-19.787c1.704,-4.437 -1.205,-9.745 -6.564,-7.48c-3.146,1.331 -6.15,2.971 -7.339,6.413c0.886,-0.943 1.771,-1.887 2.656,-2.83c-0.385,0.219 -0.769,0.438 -1.152,0.657c-1.759,1.002 -4.437,5.168 -1.386,6.464c-0.087,-0.283 -0.175,-0.565 -0.263,-0.849c0.202,0.587 0.546,1.056 1.028,1.406c1.168,1.018 2.209,1.316 3.688,1.657c-1.037,-2.587 -2.074,-5.173 -3.111,-7.76c-0.8,2.118 -0.43,1.466 -1.923,3.239c0.931,-1.104 -1.192,0.973 -1.44,1.177c-0.737,0.605 -0.534,0.412 -1.853,1.218c-4.332,2.649 -9.247,4.197 -14.103,5.569c-11.137,3.146 -22.813,4.43 -34.326,5.206c-11.028,0.744 -21.901,0.809 -32.915,-0.311c-8.979,-0.913 -17.808,-2.796 -26.404,-5.526c-4.387,-1.396 -8.544,-3.402 -12.679,-5.398c-3.438,-1.659 -5.97,-2.81 -6.907,-6.715c-0.215,-0.897 -1.49,-0.487 -1.934,-0.104Z" style="fill:#010101;fill-rule:nonzero;"/></g></svg>