<?xml version="1.0" encoding="UTF-8" standalone="no"?><!DOCTYPE svg PUBLIC "-//W3C//DTD SVG 1.1//EN" "http://www.w3.org/Graphics/SVG/1.1/DTD/svg11.dtd"><svg width="100%" height="100%" viewBox="0 0 335 511" version="1.1" xmlns="http://www.w3.org/2000/svg" xmlns:xlink="http://www.w3.org/1999/xlink" xml:space="preserve" style="fill-rule:evenodd;clip-rule:evenodd;stroke-linejoin:round;stroke-miterlimit:1.41421;"><g id="doors"><path d="M18.459,24.425c11.015,1.999 22.516,1.985 33.691,2.157c12.395,0.19 24.787,0.408 37.182,0.603c24.823,0.39 49.573,1.887 74.378,2.71c24.594,0.816 49.227,0.676 73.793,-0.805c10.593,-0.639 21.143,-1.84 31.741,-2.411c4.953,-0.268 9.918,-0.384 14.871,-0.071c4.232,0.268 8.267,1.82 12.557,1.69c8.295,-0.251 13.977,-15.208 3.189,-14.881c-5.694,0.173 -10.023,3.007 -13.732,7.123c-1.922,2.131 -2.031,7.075 1.66,7.434c2.35,0.229 4.688,0.111 7.011,0.238c4.403,0.24 8.469,-1.956 10.4,-6.062c1.417,-3.014 0.881,-8.41 -3.467,-8.647c-3.896,-0.212 -7.771,0.453 -11.68,0.424c-4.918,-0.037 -9.81,-0.148 -14.729,0.025c-10.687,0.378 -21.328,1.614 -31.982,2.448c-24.274,1.901 -48.732,1.971 -73.059,1.385c-24.834,-0.598 -49.618,-2.14 -74.464,-2.516c-12.434,-0.188 -24.866,-0.163 -37.301,-0.118c-12.449,0.046 -25.103,-0.134 -37.443,1.624c-3.135,0.448 -7.721,6.725 -2.616,7.65Z" style="fill-rule:nonzero;"/><path d="M19.079,490.374c12.341,1.462 24.941,0.334 37.337,-0.217c13.022,-0.58 26.056,-0.869 39.089,-1.075c26.879,-0.425 53.738,0.222 80.615,0.395c25.48,0.163 50.979,-1.131 76.449,-0.571c10.063,0.221 22.329,1.084 31.17,1.504c3.239,0.154 6.476,0.387 9.706,0.668c1.415,0.123 2.827,0.276 4.235,0.458c1.096,0.142 2.057,0.283 3.2,0.267c1.761,-0.025 -1.417,-0.259 -0.417,0.005c-1.004,-0.552 -2.009,-1.103 -3.014,-1.653c0.028,0.025 0.057,0.052 0.085,0.078c-0.146,-2.315 -0.293,-4.63 -0.439,-6.944c-0.015,0.032 -0.028,0.065 -0.043,0.099c1.51,-1.609 3.021,-3.22 4.53,-4.829c-0.527,0.352 -0.221,0.226 0.918,-0.38c-6.308,2.394 -11.104,13.662 -1.165,13.916c2.409,0.061 5.177,-1 6.857,-2.726c2.264,-2.324 4.436,-5.57 3.129,-8.978c-2.147,-5.599 -11.992,-4.672 -16.712,-4.944c-9.853,-0.568 -19.719,-1.139 -29.586,-1.397c-26.672,-0.698 -53.348,0.946 -80.021,1.236c-27.585,0.3 -55.159,-0.143 -82.744,0.531c-13.753,0.336 -27.494,0.948 -41.226,1.797c-13.549,0.838 -27.316,1.719 -40.398,5.494c-2.613,0.752 -6.065,6.731 -1.555,7.266Z" style="fill-rule:nonzero;"/><path d="M303.083,16.213c-2.296,16.047 -2.2,32.453 -2.444,48.644c-0.249,16.536 -0.444,33.073 -0.543,49.61c-0.198,33.196 -0.075,66.377 0.451,99.569c1.034,65.131 -4.003,130.227 -1.917,195.356c0.438,13.652 1.549,27.212 2.839,40.802c0.509,5.354 0.925,10.742 0.732,16.122c-0.073,2.068 -0.329,4.085 -0.827,6.096c-0.608,2.454 0.493,-0.97 -0.404,1.056c-0.42,0.895 -0.331,0.835 0.266,-0.177c0.89,-1.064 2,-1.848 3.333,-2.35c-3.877,1.377 -7.575,5.103 -7.342,9.5c0.229,4.322 4.517,5.586 8.104,4.549c10.004,-2.893 11.58,-13.471 11.626,-22.327c0.047,-8.974 -1.146,-17.921 -2.136,-26.82c-3.425,-30.788 -3.577,-62.103 -3.216,-93.04c0.379,-32.597 1.616,-65.178 1.895,-97.775c0.281,-32.879 -0.643,-65.792 -1.254,-98.664c-0.404,-21.739 -0.646,-43.482 -0.845,-65.226c-0.2,-21.924 1.066,-44.484 -1.766,-66.248c-0.519,-3.985 -6.133,-1.612 -6.552,1.323Z" style="fill-rule:nonzero;"/><path d="M9.693,7.714c24.607,2.687 49.668,2.014 74.376,1.649c25.914,-0.381 51.818,-0.758 77.734,-0.939c55.216,-0.387 110.438,0.098 165.641,1.295c3.79,0.082 7.84,-7.555 2.784,-8.139c-1.894,-0.219 -3.765,-0.236 -5.659,-0.023c-2.185,0.246 -6.816,5.154 -3.073,6.495c1.67,0.599 3.128,1.459 4.918,1.62c0.929,-2.713 1.856,-5.426 2.784,-8.139c-54.61,-0.088 -109.217,-0.861 -163.828,-0.5c-51.32,0.339 -102.495,2.465 -153.822,1.26c-2.532,-0.058 -5.217,5.055 -1.855,5.421Z" style="fill-rule:nonzero;"/><path d="M7.054,509.53c26.06,1.963 52.611,0.044 78.701,-0.627c26.754,-0.688 53.503,-1.714 80.271,-1.512c26.301,0.197 52.502,1.334 78.817,0.85c26.214,-0.482 52.396,-1.303 78.591,-0.162c0.586,-2.738 1.174,-5.477 1.76,-8.215c-0.844,0.086 -1.687,0.172 -2.53,0.258c-3.208,0.326 -7.584,6.928 -2.599,7.596c0.779,0.104 1.557,0.209 2.336,0.313c5.121,0.687 9.18,-7.945 2.793,-8.167c-25.57,-0.885 -51.232,0.143 -76.804,0.729c-26.318,0.603 -52.511,-0.346 -78.817,-0.612c-26.807,-0.271 -53.621,0.726 -80.392,2.014c-26.796,1.289 -53.669,1.219 -80.444,2.617c-2.194,0.113 -4.803,4.682 -1.683,4.918Z" style="fill-rule:nonzero;"/><path d="M60.389,341.581c-2.569,7.595 -1.714,16.563 -1.857,24.491c-0.156,8.558 -0.164,17.109 -0.119,25.668c0.044,8.562 0.035,17.115 -0.104,25.677c-0.15,9.271 0.581,19.357 -1.074,28.5c3.644,-0.736 7.287,-1.473 10.932,-2.209c-0.424,-2.502 -1.02,-4.625 -3.477,-5.756c-2.016,-0.928 -4.451,0.169 -5.684,1.888c-1.746,2.438 -2.087,4.438 -1.885,7.409c0.48,7.029 12.064,2.249 11.045,-3.541c-1.425,-8.087 -0.815,-16.938 -1.128,-25.15c-0.347,-9.098 -0.731,-18.189 -0.997,-27.29c-0.246,-8.459 -0.51,-16.915 -0.82,-25.372c-0.293,-7.94 0.979,-17.767 -1.94,-25.246c-0.625,-1.601 -2.573,-0.016 -2.892,0.931Z" style="fill-rule:nonzero;"/><path d="M261.342,339.354c-1.582,6.97 -1,14.339 -0.76,21.43c0.277,8.175 0.95,16.334 1.514,24.492c1.084,15.666 1.511,31.175 0.416,46.851c3.247,-1.437 6.495,-2.873 9.743,-4.31c-0.45,-1.564 -0.968,-2.25 -2.358,-3.082c-1.786,-1.069 -3.901,0.391 -5.049,1.677c-1.265,1.419 -1.746,2.694 -2.234,4.512c-0.685,2.542 1.365,4.599 3.857,4.397c3.365,-0.273 5.773,-3.188 6.014,-6.392c1.158,-15.424 -0.406,-31.04 -1.84,-46.394c-0.697,-7.468 -1.387,-14.938 -2.078,-22.406c-0.687,-7.407 -0.441,-15.151 -2.187,-22.398c-0.678,-2.82 -4.668,-0.008 -5.038,1.623Z" style="fill-rule:nonzero;"/><path d="M60.674,451.583c46.897,-1.714 93.876,-2.76 140.809,-4.01c15.06,-0.4 29.745,0.962 44.773,1.438c6.048,0.192 12.503,0.284 18.319,-1.631c6.898,-2.271 13.062,-11.243 7.522,-17.656c-3.014,-3.489 -8.97,1.305 -8.691,4.994c0.084,0.958 0.145,1.916 0.181,2.877c0.864,-0.143 0.941,-0.059 0.231,0.253c0.45,-0.262 -1.469,0.416 -1.813,0.502c-2.547,0.64 -5.383,0.621 -7.99,0.715c-6.597,0.239 -13.217,-0.162 -19.801,-0.54c-15.483,-0.888 -30.77,-0.165 -46.268,0.486c-21.752,0.913 -43.513,1.368 -65.268,2.156c-10.634,0.385 -21.23,1.252 -31.85,1.782c-10.012,0.501 -20.208,-0.535 -29.702,3.209c-2.314,0.915 -4.41,5.57 -0.452,5.425Z" style="fill-rule:nonzero;"/><path d="M59.866,343.87c29.693,-5.051 59.489,-1.212 89.356,-0.814c36.549,0.486 73.145,-1.696 109.611,1.793c1.162,-3.397 2.324,-6.795 3.485,-10.191c-2.792,0.064 -5.305,0.629 -7.957,1.492c-2.155,0.7 -5.969,5.421 -2.398,6.975c2.289,0.997 4.368,1.606 6.87,1.725c3.037,0.143 5.826,-1.332 7.163,-4.176c0.999,-2.122 0.592,-5.728 -2.388,-5.957c-37.002,-2.839 -73.938,-0.827 -110.98,-0.674c-15.515,0.064 -31.013,-1.223 -46.519,-1.564c-15.326,-0.337 -31.304,-0.168 -45.74,5.378c-2.492,0.956 -4.8,6.743 -0.503,6.013Z" style="fill-rule:nonzero;"/><path d="M60.541,292.958c0.01,0.384 0.009,0.769 0.034,1.151c0.008,0.109 0.063,0.228 0.168,0.276c0.031,0.015 0.062,0.028 0.092,0.043c0.143,0.066 0.323,0.019 0.433,-0.09c0.443,-0.438 0.339,-1.144 0.366,-1.73c0.031,-0.668 -1.108,-0.241 -1.093,0.35Z" style="fill-rule:nonzero;"/><path d="M56.454,300.177c16.961,2.148 34.868,1.021 51.936,0.808c17.729,-0.223 35.457,-0.61 53.185,-0.992c34.948,-0.753 69.901,-1.492 104.858,-0.996c5.76,0.082 9.667,-10.185 2.206,-10.291c-1.399,-0.02 -2.737,0.056 -4.129,0.191c-4.14,0.402 -9.728,8.936 -3.338,9.758c1.763,0.227 3.483,0.325 5.261,0.342c0.735,-3.43 1.471,-6.86 2.206,-10.291c-34.315,-0.334 -68.634,0.427 -102.938,1.188c-17.731,0.394 -35.462,0.788 -53.195,1.045c-17.604,0.256 -35.714,-0.694 -53.235,1.008c-3.494,0.338 -8.207,7.548 -2.817,8.23Z" style="fill-rule:nonzero;"/><path d="M59.322,121.749c-2.962,5.476 -2.511,12.687 -2.774,18.768c-0.336,7.786 -0.467,15.58 -0.521,23.373c-0.104,14.986 0.404,29.949 0.933,44.924c0.526,14.9 1.06,29.8 1.204,44.709c0.068,7.076 -0.151,14.155 0.036,21.229c0.176,6.604 -0.431,12.629 -1.1,19.144c2.34,-1.688 4.68,-3.375 7.02,-5.063c-1.747,-0.378 -3.28,-0.271 -4.985,0.251c-2.196,0.673 -3.992,3.309 -2.603,5.428c0.251,0.548 0.483,1.104 0.695,1.667c1.713,4.295 7.869,1.197 9.095,-1.853c2.025,-5.037 1.645,-10.719 1.555,-16.063c-0.112,-6.671 -0.33,-13.326 -0.381,-20c-0.117,-15.491 -0.758,-30.978 -1.417,-46.454c-0.662,-15.544 -1.326,-31.09 -1.866,-46.639c-0.268,-7.709 -0.406,-15.423 -0.42,-23.137c-0.012,-6.184 1.877,-15.391 -1.205,-20.948c-0.824,-1.481 -2.654,-0.467 -3.266,0.664Z" style="fill-rule:nonzero;"/><path d="M270.606,126.768c-3.483,12.644 -2.186,27.258 -2.221,40.276c-0.04,14.382 -0.047,28.765 -0.098,43.146c-0.048,13.7 -0.209,27.4 -0.572,41.096c-0.186,7.016 -0.657,14.041 -0.656,21.058c0,6.353 0.766,13.205 -1.362,19.324c3.06,-1.004 6.12,-2.008 9.18,-3.012c-1.684,-2.035 -2.903,-2.262 -5.246,-3.416c-3.039,-1.496 -7.015,2.166 -6.047,5.307c0.846,2.748 0.479,3.685 2.416,5.9c3.312,3.786 8.562,-1.022 9.625,-4.315c1.854,-5.737 1.854,-11.765 1.675,-17.735c-0.205,-6.829 -0.086,-13.586 0.097,-20.416c0.383,-14.31 0.464,-28.626 0.451,-42.94c-0.012,-14.336 -0.194,-28.671 -0.334,-43.005c-0.07,-7.138 -0.194,-14.272 -0.315,-21.409c-0.121,-7.138 0.254,-14.496 -1.797,-21.403c-0.802,-2.697 -4.373,0.011 -4.796,1.544Z" style="fill-rule:nonzero;"/><path d="M62.807,121.204c8.156,4.807 21.676,4.986 30.346,1.289c8.61,-3.672 11.719,-11.806 16.745,-18.969c5.144,-7.331 14.755,-9.879 23.01,-11.893c10.817,-2.639 22.149,-3.421 33.25,-3.563c9.578,-0.123 19.244,0.524 28.636,2.47c6.61,1.369 12.661,4.903 18.1,8.78c5.279,3.764 8.264,8.385 10.988,14.148c4.513,9.548 10.381,14.909 20.892,17.004c10.004,1.994 20.398,0.58 30.501,0.622c0.279,-3.341 0.56,-6.683 0.84,-10.023c-0.998,0.238 -1.694,0.597 -2.657,0.96c-3.956,1.491 -7.567,10.008 -0.784,9.355c0.883,-0.085 1.722,-0.258 2.602,-0.292c5.708,-0.218 9.715,-10.268 2.207,-10.299c-9.748,-0.041 -19.51,1.172 -29.16,-0.752c-11.382,-2.269 -13.367,-12.187 -18.767,-20.894c-5.929,-9.561 -19.327,-16.458 -29.993,-18.725c-9.3,-1.976 -18.991,-2.361 -28.469,-2.377c-19.334,-0.031 -41.547,1.976 -58.556,11.996c-8.188,4.822 -11.663,12.61 -16.747,20.116c-2.608,3.852 -5.988,4.624 -10.475,4.996c-6.087,0.505 -12.58,0.606 -18.634,-0.317c-2.926,-0.445 -7.394,4.294 -3.875,6.368Z" style="fill-rule:nonzero;"/><path d="M51.33,122.749c2.22,1.88 4.523,2.338 7.405,2.398c3.512,0.074 7.064,0.31 10.571,0.119c2.449,-0.132 4.776,-2.016 5.792,-4.175c0.987,-2.099 0.581,-5.639 -2.354,-5.873c-6.209,-0.496 -13.822,-1.198 -19.44,1.862c-1.512,0.825 -3.895,4.04 -1.974,5.669Z" style="fill-rule:nonzero;"/><path d="M27.836,20.506c-5.498,12.723 -4.44,27.761 -3.909,41.322c0.609,15.576 0.297,31.123 0.103,46.706c-0.412,32.979 -0.812,65.954 -1.632,98.926c-0.819,32.937 -1.754,65.868 -2.382,98.81c-0.609,31.967 1.612,63.818 0.51,95.794c-0.453,13.136 -0.387,26.634 0.863,39.722c1.231,12.904 2.131,25.333 -1.912,37.881c3.613,-2.605 7.227,-5.211 10.841,-7.816c-1.151,-0.152 -2.216,-0.463 -3.366,-0.616c-7.519,-0.999 -16.36,12.426 -6.719,14.252c1.099,0.208 2.162,0.581 3.283,0.792c3.9,0.736 8.851,-2.22 10.202,-5.945c2.111,-5.82 2.55,-12.905 3.043,-19.08c0.632,-7.912 -1.089,-15.919 -2.058,-23.735c-1.918,-15.464 -1.904,-31.623 -1.07,-47.163c0.844,-15.73 -0.643,-31.66 -1.529,-47.361c-0.908,-16.07 -0.994,-32.119 -0.783,-48.208c0.863,-65.839 2.521,-131.659 3.231,-197.503c0.146,-13.538 0.214,-27.01 -0.339,-40.539c-0.504,-12.328 -0.115,-24.459 0.136,-36.764c0.082,-3.989 -5.565,-1.665 -6.513,0.525Z" style="fill-rule:nonzero;"/><path d="M52.697,242.497c-2.78,-3.871 -9.631,-2.569 -13.483,-1.33c-5.277,1.698 -10.144,6.248 -11.657,11.646c-3.522,12.559 7.025,20.621 18.557,20.489c10.728,-0.123 23.646,-10.963 20.374,-22.644c-3,-10.713 -18.275,-14.028 -26.927,-8.779c-1.079,0.654 -2.917,3.365 -0.896,4.181c5.258,2.121 12.017,2.262 16.488,6.105c5.239,4.503 0.424,11.274 -5.094,12.378c-6.471,1.292 -13.933,-1.623 -14.909,-8.72c-0.501,-3.638 1.288,-6.49 4.322,-8.263c3.527,-2.061 7.343,-0.898 11.096,-1.606c1.449,-0.273 3.237,-1.914 2.129,-3.457Z" style="fill-rule:nonzero;"/><path d="M3.143,6.255c-0.211,33.079 1.098,66.149 2.057,99.209c0.951,32.772 1,65.522 0.617,98.304c-0.378,32.34 -0.893,64.685 -0.097,97.021c0.745,30.265 2.352,60.461 2.056,90.748c-0.205,21.051 -1.244,42.08 -3.127,63.049c-0.89,9.9 -2.119,19.752 -3.221,29.629c-0.761,6.811 -2.004,14.51 -0.363,21.258c0.919,3.782 7.656,-0.148 6.574,-3.748c-1.299,-4.314 -0.551,-9.499 -0.257,-13.916c0.437,-6.575 1.313,-13.123 1.999,-19.675c1.459,-13.938 2.549,-27.915 3.302,-41.909c1.532,-28.464 1.411,-56.965 0.553,-85.449c-0.966,-32.048 -2.082,-64 -1.887,-96.073c0.198,-32.427 0.917,-64.851 0.647,-97.279c-0.395,-47.601 -3.075,-95.144 -3.979,-142.731c-0.059,-3.148 -4.858,-0.925 -4.874,1.562Z" style="fill-rule:nonzero;"/><path d="M328.407,9.266c-10.219,19.09 -8.328,43.908 -7.148,64.771c0.69,12.198 1.805,24.368 2.598,36.56c0.825,12.69 0.646,25.324 0.497,38.034c-0.759,64.378 -2.039,128.774 -2.017,193.157c0.018,52.288 1.242,104.699 -2.425,156.886c-0.384,5.462 8.535,1.729 8.791,-2.818c3.259,-58.018 1.571,-116.277 1.769,-174.355c0.22,-64.72 1.65,-129.435 2.145,-194.153c0.154,-20.145 -2.544,-40.271 -3.57,-60.372c-0.947,-18.57 -1.713,-39.019 5.508,-56.562c1.954,-4.753 -4.356,-4.497 -6.148,-1.148Z" style="fill-rule:nonzero;"/></g></svg>