<?xml version="1.0" encoding="UTF-8" standalone="no"?><!DOCTYPE svg PUBLIC "-//W3C//DTD SVG 1.1//EN" "http://www.w3.org/Graphics/SVG/1.1/DTD/svg11.dtd"><svg width="100%" height="100%" viewBox="0 0 536 474" version="1.1" xmlns="http://www.w3.org/2000/svg" xmlns:xlink="http://www.w3.org/1999/xlink" xml:space="preserve" style="fill-rule:evenodd;clip-rule:evenodd;stroke-linejoin:round;stroke-miterlimit:1.41421;"><g id="face"><path d="M318.708,60.404c-1.741,5.344 -1.577,11.246 -2.098,16.816c-0.596,6.395 -1.596,12.747 -2.703,19.07c-2.116,12.088 -5.525,24.063 -10.607,35.245c-9.188,20.217 -26.053,33.685 -45.908,42.714c-19.56,8.895 -41.324,13.164 -62.613,15.036c-8.766,0.771 -17.002,0.052 -25.759,-0.361c-11.111,-0.524 -24.244,0.956 -27.776,13.559c-0.709,2.528 0.342,5.476 2.684,6.744c3.559,1.927 7.365,-0.016 10.256,-2.133c-4.918,3.603 -1.412,1.125 0.461,0.102c2.38,-1.302 -1.979,0.558 0.875,-0.364c1.153,-0.373 3.188,-0.509 5.201,-0.637c4.885,-0.312 9.795,0.002 14.678,0.193c9.845,0.387 19.79,-1.188 29.473,-2.821c22.896,-3.862 45.493,-10.704 65.612,-22.487c20.212,-11.838 36.214,-28.513 45.128,-50.326c4.822,-11.802 7.482,-24.274 8.955,-36.901c0.713,-6.116 0.937,-12.281 0.969,-18.435c0.028,-5.373 0.412,-11.642 -1.984,-16.574c-1.225,-2.517 -4.275,-0.189 -4.844,1.56Z" style="fill:#010101;fill-rule:nonzero;"/><path d="M264.38,25.729c8.659,7.919 18.383,-5.363 26.102,-8.577c13.812,-5.751 28.65,-1.419 41.455,4.694c22.14,10.568 42.089,25.565 57.122,45.025c14.213,18.397 22.338,40.117 25.933,62.932c2.106,13.367 4.095,26.755 5.751,40.187c1.468,11.908 1.758,23.78 2.756,35.688c0.418,4.981 5.24,6.767 9.581,5.378c5.075,-1.622 8.315,-6.049 8.681,-11.231c0.817,-11.623 -1.501,-24.106 -2.943,-35.629c-1.679,-13.417 -3.76,-26.784 -5.919,-40.132c-3.853,-23.836 -11.675,-45.914 -25.901,-65.604c-14.136,-19.565 -33.794,-34.929 -55.17,-45.864c-13.111,-6.709 -26.234,-12.006 -41.179,-11.957c-13.584,0.045 -25.798,6.275 -35.341,15.559c-2.371,2.307 -6.484,3.695 -9.406,5.164c-1.246,0.623 -2.925,3.083 -1.522,4.367Z" style="fill:#010101;fill-rule:nonzero;"/><path d="M321.78,59.796c-3.063,7.18 -1.833,15.485 -0.327,22.899c1.804,8.878 4.816,17.351 7.472,25.988c4.198,13.66 10.429,25.891 18.271,37.814c15.967,24.279 37.643,48.114 62.809,63.066c8.107,4.817 20.921,-10.4 11.748,-15.508c-23.901,-13.309 -43.734,-34.846 -60.052,-56.462c-7.749,-10.265 -13.821,-21.237 -19.285,-32.845c-3.605,-7.656 -7.154,-15.249 -9.963,-23.25c-2.559,-7.289 -3.057,-15.616 -6.139,-22.628c-0.928,-2.107 -3.874,-0.622 -4.534,0.926Z" style="fill:#010101;fill-rule:nonzero;"/><path d="M418.738,203.637c1.991,14.383 19.362,13.633 30.557,15.413c12.933,2.058 19.493,14.206 23.226,25.714c3.937,12.134 3.914,28.486 -5.593,38.159c-10.624,10.809 -26.493,4.14 -39.581,3.313c-5.029,-0.317 -9.705,2.269 -11.901,6.938c-1.638,3.482 -0.997,9.577 3.968,9.896c17.926,1.151 35.032,7.13 51.205,-4.211c16.537,-11.597 23.619,-30.872 20.918,-50.581c-2.11,-15.405 -10.443,-34.204 -25.427,-40.975c-6.068,-2.743 -12.766,-2.709 -19.286,-2.933c-7.525,-0.258 -17.225,0.839 -23.484,-4.042c-1.777,-1.385 -4.859,1.454 -4.602,3.309Z" style="fill:#010101;fill-rule:nonzero;"/><path d="M119.894,210.773c0.124,-2.246 0.026,-4.326 -1.522,-6.086c-1.186,-1.348 -3.828,0.979 -2.707,2.375c1.137,1.418 1.532,2.76 1.638,4.543c0.042,0.711 0.757,0.955 1.36,0.763c0.712,-0.227 1.191,-0.859 1.231,-1.595Z" style="fill:#010101;fill-rule:nonzero;"/><path d="M112.182,204.917c-0.594,4.309 -0.638,5.274 -5.261,4.406c-4.829,-0.907 -8.75,-1.61 -13.631,-0.45c-10.92,2.596 -19.579,8.925 -26.851,17.296c-12.572,14.475 -16.835,38.17 -11.642,56.349c3.999,13.998 19.337,21.039 32.288,24.471c6.284,1.666 13.474,2.207 19.689,-0.003c7.271,-2.584 15.848,-11.286 12.204,-19.64c-3.1,-7.104 -13.091,-2.113 -15.286,3.113c-0.587,1.4 -1.137,2.779 -1.591,4.238c0.278,-0.896 2.525,-3.487 1.576,-2.652c1.005,-0.884 3.364,-1.584 0.895,-0.862c1.914,-0.56 -1.678,0.066 -2.378,0.079c-1.115,0.02 -4.003,-0.477 -6.156,-0.952c-2.741,-0.605 -5.355,-1.515 -7.938,-2.599c-4.852,-2.037 -9.504,-4.645 -12.919,-8.166c-2.248,-2.318 -2.283,-3.051 -3.479,-6.663c-1.224,-3.701 -1.47,-7.63 -1.531,-11.501c-0.223,-14.023 5.723,-30.931 19.699,-36.532c7.231,-2.898 15.389,1.765 22.311,-2.642c6.736,-4.288 10.607,-11.912 7.11,-19.581c-1.568,-3.44 -6.713,-0.579 -7.109,2.291Z" style="fill:#010101;fill-rule:nonzero;"/><path d="M112.375,294.853c-3.036,10.848 -2.166,22.32 -0.98,33.417c1.206,11.292 3.395,22.453 6.393,33.402c5.925,21.629 15.695,42.154 29.485,59.886c13.498,17.357 31.347,31.506 51.606,40.111c26.187,11.124 56.109,13.771 84.104,9.712c41.998,-6.088 83.08,-26.505 107.947,-61.603c10.976,-15.491 18.428,-32.918 24.498,-50.808c2.943,-8.674 5.422,-17.502 7.745,-26.358c1.241,-4.731 2.413,-9.481 3.571,-14.233c1.402,-5.759 4.102,-11.104 5.373,-16.933c1.018,-4.661 -2.289,-8.099 -6.901,-7.864c-3.374,0.171 -6.144,1.127 -9.182,2.562c-3.434,1.622 -6.267,5.913 -6.063,9.744c0.244,4.595 5.155,6.688 9.15,5.137c1.873,-0.728 0.516,-0.352 2.421,-0.298c-2.301,-2.621 -4.601,-5.242 -6.901,-7.864c-1.551,6.757 -4.436,13.048 -6.084,19.793c-1.504,6.158 -3.078,12.299 -4.75,18.414c-3.07,11.225 -6.612,22.29 -11.051,33.053c-8.76,21.237 -21.456,40.019 -39.857,54.015c-21.896,16.654 -51.438,25.427 -78.545,27.558c-26.199,2.06 -53.912,-3.063 -77.098,-15.626c-25.424,-13.773 -43.622,-37.064 -56.449,-62.494c-6.641,-13.161 -11.44,-27.133 -15.139,-41.379c-3.65,-14.066 -3.762,-29.212 -8.417,-42.914c-0.916,-2.699 -4.424,-0.04 -4.876,1.57Z" style="fill:#010101;fill-rule:nonzero;"/><path d="M273.323,19.278c-2.182,-0.532 -3.365,-2.731 -4.673,-4.405c-1.822,-2.334 -4.675,-4.196 -7.306,-5.431c-7.233,-3.396 -14.932,-5.85 -22.772,-7.341c-14.588,-2.776 -29.435,-1.297 -43.493,3.224c-23.685,7.614 -43.371,24.014 -58.608,43.293c-15.194,19.225 -26.181,42.167 -34.055,65.273c-9.986,29.304 -12.45,60.265 -12.812,91.035c-0.022,1.866 -0.029,3.733 -0.037,5.6c6.398,-2.83 12.797,-5.66 19.194,-8.49c-0.815,-3.853 -3.261,-5.384 -6.415,-7.2c-4.394,-2.528 -9.674,1.579 -11.648,5.293c-1.999,3.761 -1.669,6.435 -1.131,10.397c1.762,12.96 19.664,3.529 19.648,-6.299c-0.049,-28.633 1.605,-57.183 9.68,-84.811c6.174,-21.125 16.27,-41.895 28.977,-59.845c12.121,-17.126 28.096,-31.438 48.055,-38.585c13.357,-4.783 27.165,-5.5 41.057,-2.863c6.858,1.302 14.835,2.626 20.676,6.628c4.543,3.113 8.526,4.65 13.945,2.55c2.919,-1.131 6.665,-6.815 1.718,-8.023Z" style="fill:#010101;fill-rule:nonzero;"/><path d="M213.579,232.312c-9.118,7.534 -12.116,21.997 -8.508,33.055c3.064,9.388 13.49,11.54 20.442,4.783c11.048,-10.737 12.791,-38.304 -5.407,-42.654c-4.395,-1.051 -9.449,2.65 -11.146,6.496c-4.515,10.237 -5.922,22.569 0.676,32.19c1.705,2.486 5.728,2.403 8.211,1.609c4.275,-1.367 7.421,-4.887 8.605,-9.148c1.598,-5.746 2.402,-11.521 0.868,-17.355c-1.039,-3.949 -6.229,-4.437 -9.391,-3.426c-4.508,1.441 -9.472,6.371 -8.9,11.517c0.421,3.794 0.057,7.004 -0.7,10.733c5.605,-2.514 11.211,-5.026 16.816,-7.539c-3.398,-4.156 -3.072,-10.984 -1.324,-15.81c-3.716,2.165 -7.431,4.331 -11.146,6.496c1.043,0.199 0.131,-0.198 1.559,0.604c0.703,0.473 0.757,0.506 0.16,0.102c0.511,0.461 0.922,1.023 1.33,1.572c-0.659,-0.888 0.553,1.285 0.682,1.613c0.516,1.309 0.584,1.899 0.696,2.658c0.699,4.705 -0.044,8.857 -1.417,11.68c-0.467,0.85 -0.391,0.732 0.226,-0.352c-0.615,0.781 -0.427,0.614 0.566,-0.502c-0.736,0.63 -0.48,0.457 0.767,-0.52c0.989,-0.598 2.168,-0.825 3.304,-0.699c1.767,0.197 -0.591,-0.491 0.037,0.033c-0.923,-0.771 -1.757,-1.781 -2.291,-2.844c-2.812,-5.583 -2.41,-15.986 0.063,-21.676c1.542,-3.539 -2.434,-4.554 -4.778,-2.616Z" style="fill:#010101;fill-rule:nonzero;"/><path d="M297.02,230.096c-5.979,7.182 -8.248,17.803 -8.42,26.91c-0.207,10.942 7.063,19.541 18.147,14.188c8.97,-4.332 12.313,-16.653 12.839,-25.685c0.569,-9.803 -2.549,-18.072 -11.125,-23.146c-4.326,-2.561 -10.348,0.733 -12.942,4.3c-2.892,3.975 -4.611,8.352 -5.317,13.213c-0.686,4.719 0.013,8.245 0.982,12.769c0.783,3.664 5.842,4.03 8.615,3.144c3.604,-1.152 7.41,-4.576 7.992,-8.495c0.769,-5.187 0.521,-10.6 2.801,-15.388c-4.101,2.39 -8.201,4.779 -12.301,7.17c-0.321,-0.065 0.166,0.02 0.617,0.438c1.157,1.073 1.297,1.583 1.622,2.276c1.253,2.672 1.287,4.475 1.317,7.567c0.021,2.112 -0.381,4.2 -1.07,6.856c-0.311,1.019 -0.313,1.094 -0.005,0.225c-0.255,0.736 -0.578,1.445 -0.906,2.151c-0.51,0.95 -0.437,0.87 0.219,-0.24c-0.428,0.678 -1.866,1.933 0.181,-0.024c1.22,-1.168 3.221,-1.902 4.907,-1.67c-0.515,-0.07 0.047,0.215 -0.747,-0.691c-1.361,-1.555 -1.689,-5.505 -1.895,-7.832c-0.484,-5.511 -0.844,-11.504 -0.046,-17.007c0.544,-3.746 -3.819,-3.003 -5.465,-1.029Z" style="fill:#010101;fill-rule:nonzero;"/><path d="M168.963,334.592c1.925,1.135 4.584,0.994 6.736,1.119c2.239,0.131 4.48,0.262 6.719,0.42c4.016,0.286 7.772,-1.835 9.519,-5.547c1.717,-3.65 -0.124,-8.746 -4.887,-7.994c-2.45,0.388 -4.885,0.868 -7.32,1.339c-3.005,0.58 -6.329,0.91 -9.017,2.493c-2.552,1.504 -5.27,6.094 -1.75,8.17Z" style="fill:#010101;fill-rule:nonzero;"/><path d="M329.737,323.88c4.428,2.784 11.338,2.617 16.404,3.393c-1.336,-1.523 -2.673,-3.046 -4.009,-4.568c0.052,-0.296 0.103,-0.592 0.153,-0.888c0.984,-1.599 1.968,-3.197 2.952,-4.796c1.04,-0.788 1.192,-0.938 0.456,-0.45c-2.469,1.56 -4.76,4.52 -3.684,7.605c2.583,7.402 11.646,2.184 13.881,-2.587c1.78,-3.8 -0.136,-8.87 -5.005,-8.188c-6.502,0.912 -13.683,1.041 -19.715,3.787c-2.352,1.071 -4.084,5.026 -1.433,6.692Z" style="fill:#010101;fill-rule:nonzero;"/><path d="M179.523,332.297c1.53,9.935 10.297,17.117 18.099,22.531c9.133,6.339 20.408,10.24 31.206,12.569c14.683,3.167 29.732,2.287 44.507,0.272c17.018,-2.32 33.918,-6.266 49.645,-13.26c11.321,-5.034 30.048,-17.222 26.447,-32.043c-1.695,-6.98 -12.06,-1.193 -13.641,2.778c-0.594,1.492 -1.268,2.939 -1.587,4.528c-0.411,2.045 0.276,-0.02 -0.704,1.879c0.836,-1.621 -0.954,1.263 -1.322,1.717c-0.665,0.758 -0.656,0.761 0.025,0.009c-0.554,0.575 -1.152,1.105 -1.747,1.637c-3.344,2.983 -8.831,5.902 -13.968,8.029c-13.438,5.563 -27.875,8.729 -42.231,10.774c-13.286,1.895 -25.329,2.694 -37.713,0.649c-9.893,-1.634 -19.136,-4.671 -28.19,-8.925c-4.354,-2.046 -8.425,-4.603 -12.325,-7.406c-4.039,-2.902 -7.468,-6.598 -11.73,-9.17c-1.922,-1.158 -5.096,1.321 -4.771,3.432Z" style="fill:#010101;fill-rule:nonzero;"/><path d="M12.87,389.186c0.037,1.556 -0.745,2.563 -0.445,4.162c0.24,1.289 0.61,2.517 1.061,3.746c0.931,2.536 2.936,4.896 4.697,6.891c4.23,4.792 9.786,8.123 15.4,11.033c5.432,2.814 11.131,5.021 16.893,7.054c8.136,2.871 16.119,6.021 24.482,8.22c14.466,3.804 29.264,5.992 44.209,6.127c5.793,0.051 11.588,-0.032 17.379,-0.142c5.543,-0.104 10.29,-0.475 14.123,-5.021c-2.261,1.313 -4.521,2.626 -6.782,3.939c0.015,-0.001 0.029,-0.001 0.044,-0.002c7.594,-0.259 12.801,-13.969 2.922,-13.631c-0.016,0 -0.03,0.001 -0.045,0.001c1.768,0.986 3.536,1.974 5.305,2.96c-1.481,-4.395 -6.85,-3.806 -10.527,-3.686c-5.255,0.171 -10.511,0.296 -15.768,0.361c-13.115,0.163 -25.555,-1.345 -38.921,-3.992c-13.595,-2.693 -27.234,-6.827 -40.337,-11.38c-5.862,-2.038 -11.407,-4.666 -16.84,-7.651c-2.587,-1.422 -4.924,-3.13 -6.992,-5.233c-0.91,-0.925 -1.742,-1.961 -2.531,-2.989c-0.509,-0.663 -2.18,-2.238 -2.399,-2.946c-0.878,-2.821 -4.979,0.113 -4.928,2.179Z" style="fill:#010101;fill-rule:nonzero;"/><path d="M96.293,163.57c-7.549,2.513 -13.352,8.156 -18.64,13.896c-6.396,6.941 -11.698,14.621 -16.423,22.777c-9.906,17.099 -16.459,36.073 -21.873,54.998c-6.453,22.555 -10.48,45.769 -15.555,68.652c-2.527,11.395 -5.35,22.723 -8.679,33.911c-2.717,9.127 -7.518,18.323 -7.87,27.96c3.144,-3.342 6.287,-6.683 9.432,-10.023c-0.07,0 -0.14,-0.001 -0.209,-0.001c1.176,0.222 2.353,0.442 3.528,0.663c0.04,-0.02 0.08,-0.039 0.12,-0.06c-4.324,-4.348 -11.298,0.798 -12.436,5.575c-0.639,2.688 -0.647,4.662 0.828,7.092c2.226,3.662 8.577,1.244 10.836,-0.878c3.499,-3.288 3.805,-6.745 4.525,-11.139c0.832,-5.063 3.332,-10.22 4.827,-15.147c3.187,-10.51 5.72,-21.21 8.043,-31.938c4.81,-22.208 8.499,-44.643 13.666,-66.775c4.372,-18.723 9.892,-36.827 17.701,-54.403c3.574,-8.045 7.776,-15.787 12.659,-23.108c4.853,-7.275 11.185,-13.085 17.105,-19.439c1.196,-1.281 0.104,-3.174 -1.585,-2.613Z" style="fill:#010101;fill-rule:nonzero;"/><path d="M370.171,422.324c7.681,8.526 21.034,12.141 31.937,14.352c13.432,2.724 27.263,3.271 40.92,2.62c14.085,-0.67 28.069,-3.093 41.805,-6.194c12.477,-2.816 25.21,-6.324 36.952,-11.456c5.729,-2.505 12.007,-11.838 3.185,-14.858c-9.046,-3.097 -20.045,9.676 -8.875,14.582c1.635,-4.753 3.269,-9.507 4.903,-14.261c-23.511,8.594 -46.804,15.061 -71.79,17.654c-12.749,1.323 -25.74,1.622 -38.502,0.351c-6.384,-0.636 -12.761,-1.589 -19.023,-2.982c-6.084,-1.354 -11.924,-3.345 -18.105,-4.27c-1.986,-0.297 -5.193,2.48 -3.407,4.462Z" style="fill:#010101;fill-rule:nonzero;"/><path d="M430.383,169.14c6.065,8.054 14.771,14.377 21.818,21.595c7.288,7.464 13.721,15.695 19.581,24.314c13.03,19.163 20.841,41.077 24.931,63.781c4.291,23.816 4.655,48.141 6.994,72.179c1.176,12.074 3.021,24.047 5.732,35.873c2.346,10.229 4.962,21.749 10.285,30.865c3.755,-4.001 7.51,-8.003 11.265,-12.005c-1.371,-0.467 -2.545,-0.969 -3.771,-1.737c-5.757,-3.605 -16.061,6.354 -10.931,11.729c1.704,1.786 3.764,3.255 5.775,4.678c5.42,3.831 16.55,-5.486 12.994,-11.404c-5.313,-8.843 -6.959,-19.235 -10.143,-28.918c-3.9,-11.866 -4.859,-25.28 -6.123,-37.639c-2.516,-24.619 -3.269,-49.419 -8.288,-73.723c-4.737,-22.94 -14.271,-44.153 -27.882,-63.189c-6.363,-8.9 -13.911,-16.937 -22.109,-24.162c-7.741,-6.82 -16.855,-13.815 -27.049,-16.275c-1.967,-0.476 -4.422,2.254 -3.079,4.038Z" style="fill:#010101;fill-rule:nonzero;"/><path d="M194.269,9.219c-8.468,-3.095 -19.052,3.004 -26.199,7.063c-9.644,5.476 -18.972,12.031 -27.163,19.522c-18.772,17.169 -33.043,38.334 -44.852,60.722c-12.02,22.787 -20.934,47.047 -29.463,71.303c-4.997,14.213 -8.386,28.871 -11.485,43.594c-1.528,7.261 -3.072,14.52 -4.563,21.788c-1.43,6.97 -1.61,13.511 -1.534,20.571c0.057,5.35 6.906,1.779 8.305,-0.673c3.586,-6.286 6.457,-12.338 8.386,-19.35c1.802,-6.55 2.951,-13.322 4.333,-19.97c2.915,-14.027 5.988,-28.019 10.368,-41.674c7.343,-22.896 16.512,-45.44 26.9,-67.111c10.074,-21.017 22.395,-41.65 38.913,-58.27c6.835,-6.877 14.035,-13.397 21.703,-19.338c8.079,-6.26 17.147,-10.779 25.876,-15.965c0.554,-0.327 1.562,-1.816 0.475,-2.212Z" style="fill:#010101;fill-rule:nonzero;"/><path d="M337.284,14.839c9.954,6.076 20.321,11.573 29.971,18.143c9.303,6.334 17.975,13.987 25.849,22.009c16.051,16.352 28.815,35.893 39.806,55.9c11.42,20.791 21.256,42.39 31.244,63.888c12.089,26.018 23.123,52.438 29.437,80.526c4.272,19.008 4.023,38.364 6.168,57.558c0.569,5.088 7.474,2.706 8.783,-0.712c10.496,-27.4 2.958,-59.019 -5.266,-86.104c-7.919,-26.08 -19.908,-50.585 -31.494,-75.168c-19.69,-41.778 -41.043,-85.073 -77.624,-114.761c-15.66,-12.71 -34.787,-22.529 -55.018,-24.327c-1.367,-0.122 -3.576,1.998 -1.856,3.048Z" style="fill:#010101;fill-rule:nonzero;"/><path d="M70.38,222.783c11.985,-9.456 21.384,-21.475 31.16,-33.083c2.468,-2.931 3.183,-8.383 -0.717,-10.494c-4.262,-2.308 -8.794,0.809 -11.582,3.848c-8.115,8.845 -16.611,16.819 -21.842,27.833c-1.5,3.158 -1.345,7.447 2.075,9.3c3.668,1.985 7.852,0.068 10.798,-2.246c4.606,-3.618 9.675,-6.632 14.935,-9.2c-2.625,-4.375 -5.249,-8.75 -7.873,-13.125c-3.859,2.973 -6.35,6.955 -8.998,10.948c-3.668,5.53 -2.803,12.942 5.119,12.849c11.191,-0.132 20.043,-5.897 25.599,-15.42c1.91,-3.272 1.249,-8.188 -2.25,-10.081c-4.023,-2.179 -8.452,-0.022 -11.706,2.435c-4.145,3.131 -6.218,6.912 -8.514,11.389c-2.275,4.439 -0.707,9.805 4.403,10.984c20.553,4.744 43.65,-2.692 62.521,-10.5c20.574,-8.512 41.49,-20.568 55.095,-38.637c7.645,-10.152 11.622,-22.918 7.308,-35.258c-3.632,-10.389 -13.804,-15.874 -24.395,-14.926c-11.167,0.999 -21.28,7.787 -29.817,14.536c-7.461,5.896 -14.373,13.07 -19.955,20.769c-2.672,3.684 -4.409,9.282 -1.014,13.151c4.353,4.96 11.73,2.104 15.965,-1.294c17.079,-13.711 33.712,-29.021 42.998,-49.262c4.313,-9.401 -5.372,-16.822 -13.809,-11.088c-17.012,11.563 -36.352,29.753 -39.748,51.078c-1.242,7.801 4.859,11.23 11.82,9.537c16.886,-4.105 26.539,-18.421 39.711,-28.295c-4.963,-3.937 -9.926,-7.872 -14.889,-11.809c-10.692,17.401 -26.345,30.524 -32.639,50.566c-1.729,5.504 3.271,11.03 8.885,10.125c22.787,-3.676 40.984,-23.774 51.66,-43.117c4.123,-7.469 -2.831,-15.658 -10.861,-12.377c-11.328,4.628 -20.846,11.872 -29.508,20.434c-4.472,4.42 -8.691,9.104 -12.904,13.768c-1.662,1.84 -3.319,3.686 -4.986,5.523c-2.025,2.232 -1.854,2.053 -4.332,4.557c-3.815,3.854 -7.768,10.612 -3.353,15.644c4.465,5.088 11.567,1.905 15.946,-1.292c15.725,-11.479 32.571,-25.063 38.99,-44.09c1.384,-4.104 -1.587,-9.686 -6.129,-10.03c-14.646,-1.11 -28.137,5.196 -39.903,13.437c-11.955,8.371 -22.816,18.393 -31.912,29.828c-3.348,4.209 -4.579,11.751 1.009,14.776c5.939,3.215 12.46,-1.079 16.306,-5.417c9.679,-10.918 19.743,-22.816 24.683,-36.752c3.058,-8.623 -1.93,-14.383 -10.909,-12.431c-11.882,2.583 -21.521,11.835 -28.772,21.094c-7.229,9.231 -12.646,20.11 -15.981,31.327c-1.019,3.424 0.505,7.488 3.661,9.197c3.739,2.025 7.631,0.695 11.184,-0.906c14.104,-6.354 23.819,-19.052 37.002,-24.995c-4.067,-4.635 -8.135,-9.27 -12.201,-13.904c-6.528,10.622 -19.902,16.99 -29.649,26.48c5.002,3.967 10.004,7.934 15.005,11.9c6.742,-9.319 13.766,-18.24 16.651,-29.608c1.856,-7.313 -5.399,-11.992 -11.899,-9.602c-11.92,4.385 -20.398,13.156 -29.757,21.31c5.562,3.048 11.122,6.095 16.684,9.142c10.047,-22.591 27.661,-40.713 40,-62c1.784,-3.078 1.74,-7.702 -0.661,-10.439c-3.302,-3.762 -9.336,-3.063 -13.219,-0.706c-22.284,13.532 -38.287,37.438 -49.829,60.283c-2.043,4.042 -1.67,9.688 2.688,12.048c5.896,3.192 12.555,-1.031 16.339,-5.428c8.528,-9.91 15.991,-20.578 22.548,-31.885c6.789,-11.704 12.074,-24.834 12.328,-38.508c0.149,-8.034 -9.941,-8.619 -15.07,-5.5c-21.895,13.316 -37.933,37.649 -46.816,61.275c-1.945,5.175 -1.406,11.672 5.168,12.891c6.561,1.217 12.59,-3.599 15.504,-9.035c10.216,-19.066 24.169,-37.035 27.962,-58.843c0.622,-3.573 -0.222,-7.32 -3.652,-9.178c-4.818,-2.609 -10.05,-0.003 -13.955,2.903c-20.862,15.524 -30.738,41.349 -41.01,64.265c7.202,0.337 14.405,0.674 21.608,1.011c3.129,-10.026 8.586,-19.305 12.973,-28.809c5.12,-11.094 8.957,-22.628 9.15,-34.936c0.15,-9.575 -12.999,-8.263 -17.655,-3.457c-16.514,17.045 -24.738,39.218 -29.891,62.018c-1.312,5.803 2.927,10.495 8.794,10.02c6.614,-0.535 11.646,-5.749 13.474,-11.824c5.189,-17.25 12.741,-33.686 17.825,-50.985c1.284,-4.373 -1.523,-8.917 -5.951,-9.737c-5.707,-1.059 -13.086,3.243 -15.025,8.757c-4.765,13.554 -7.937,27.576 -12.125,41.308c-2,6.555 -4.219,12.72 -7.14,19.102c-0.709,1.549 -1.486,3.063 -2.279,4.57c-0.391,0.728 -0.792,1.449 -1.207,2.164c0.585,-0.936 0.495,-0.803 -0.271,0.398c-0.835,1.295 -1.762,2.525 -2.708,3.739c-0.464,0.58 -0.942,1.147 -1.436,1.701c1.052,-1.116 1.061,-1.16 0.026,-0.13c4.868,3.859 9.735,7.72 14.603,11.58c12.454,-19.766 27.18,-38.617 43.061,-55.518c16.598,-17.662 34.753,-34.196 54.948,-46.015c-3.987,-4.543 -7.974,-9.087 -11.962,-13.63c-5.234,7.1 -9.215,14.313 -9.829,23.232c-0.322,4.684 4.861,7.804 9.003,7.26c11.426,-1.499 20.814,-8.045 31.896,-10.518c-3.99,-2.24 -7.98,-4.48 -11.97,-6.72c-0.229,3.645 -4.2,8.25 -5.867,11.427c-1.656,3.155 -1.802,7.557 0.656,10.356c2.718,3.098 6.577,2.755 10.184,1.996c7.524,-1.582 14.169,-5.824 20.931,-9.295c5.074,-2.604 9.674,-9.571 7.447,-15.379c-2.355,-6.146 -9.718,-5.327 -14.439,-2.904c-4.961,2.547 -9.554,5.545 -15.069,6.705c3.613,4.118 7.227,8.235 10.84,12.353c3.877,-7.515 7.649,-13.899 8.133,-22.573c0.374,-6.7 -7.196,-7.815 -11.97,-6.72c-8.999,2.068 -16.963,8.282 -26.103,9.482c3.001,2.42 6.001,4.84 9.002,7.26c0.139,-2.016 3.015,-5.199 4.171,-6.768c2.653,-3.6 4.319,-9.15 0.996,-12.938c-3.271,-3.729 -9.108,-2.945 -12.958,-0.692c-22.15,12.962 -41.63,30.249 -59.3,48.736c-18.125,18.963 -34.847,39.416 -48.691,61.731c-2.362,3.808 -4.459,8.89 -0.989,12.844c4.005,4.564 11.797,2.449 15.592,-1.264c11.761,-11.507 17.741,-26.607 22.733,-41.974c2.439,-7.51 4.438,-15.155 6.57,-22.755c0.943,-3.363 1.895,-6.725 2.882,-10.075c0.462,-1.565 0.943,-3.125 1.432,-4.682c0.235,-0.744 0.476,-1.486 0.722,-2.227c-0.643,1.963 0.504,-1.389 0.521,-1.436c-6.992,-0.327 -13.984,-0.653 -20.975,-0.98c-5.291,17.272 -12.992,33.69 -18.177,51.015c7.423,-0.602 14.845,-1.203 22.268,-1.805c1.853,-8.256 4.052,-16.406 7.184,-24.274c3.126,-7.856 7.957,-16.632 12.926,-21.708c-5.885,-1.152 -11.771,-2.305 -17.655,-3.457c-0.208,9.511 -4.355,18.381 -8.37,26.811c-4.933,10.359 -10.073,20.456 -13.507,31.445c-1.4,4.487 1.628,9.197 6.13,10.031c6.243,1.158 12.984,-3.461 15.479,-9.021c4.64,-10.344 9.047,-20.788 14.4,-30.792c4.98,-9.307 10.394,-16.846 18.59,-22.943c-5.869,-2.091 -11.738,-4.183 -17.607,-6.274c-3.402,19.532 -16.863,36.046 -26.038,53.157c6.891,1.285 13.781,2.57 20.672,3.855c3.523,-9.366 8.147,-18.232 13.672,-26.326c2.67,-3.909 7.082,-9.512 9.352,-11.887c3.547,-3.709 7.465,-6.874 10.16,-8.512c-5.023,-1.833 -10.047,-3.667 -15.07,-5.5c-0.166,8.781 -5.092,18.706 -9.922,27.242c-5.103,9.014 -12.155,18.181 -19.202,26.365c6.343,2.207 12.685,4.414 19.027,6.62c4.647,-9.192 9.61,-17.099 15.853,-25.463c3.252,-4.356 6.762,-8.54 9.959,-11.761c3.638,-3.663 7.622,-6.831 10.359,-8.493c-4.627,-3.715 -9.253,-7.431 -13.88,-11.146c-12.384,21.365 -29.866,39.215 -40,62c-1.842,4.143 -1.816,9.612 2.69,12.052c4.595,2.488 10.369,0.246 13.993,-2.91c3.409,-2.972 6.665,-6.111 10.058,-9.103c2.861,-2.523 5.219,-4.497 8.186,-5.588c-3.967,-3.201 -7.934,-6.401 -11.899,-9.602c-1.78,7.012 -7.169,12.614 -11.349,18.392c-2.677,3.7 -4.428,9.313 -1.018,13.198c4.123,4.697 12.113,2.508 16.022,-1.298c11.171,-10.878 25.966,-17.873 34.351,-31.52c2.412,-3.925 4.592,-9.124 1.018,-13.198c-3.569,-4.066 -9.021,-2.599 -13.219,-0.706c-14.102,6.357 -23.814,19.057 -36.998,25.004c4.948,2.764 9.896,5.527 14.845,8.291c0.188,-0.659 0.392,-1.315 0.606,-1.968c-0.377,1.132 -0.323,1.032 0.159,-0.299c0.724,-1.909 1.573,-3.77 2.442,-5.616c0.938,-1.993 1.994,-3.929 3.076,-5.846c0.666,-1.181 1.382,-2.212 2.753,-4.177c3.024,-4.334 4.443,-5.813 7.476,-8.465c0.643,-0.546 1.302,-1.071 1.977,-1.576c-2.165,1.671 1.023,-0.464 1.293,-0.615c1.323,-0.665 1.397,-0.705 0.221,-0.12c1.049,-0.412 2.146,-0.659 3.243,-0.897c-3.637,-4.144 -7.272,-8.288 -10.909,-12.431c-4.258,12.025 -12.98,21.837 -21.317,31.248c5.771,3.12 11.543,6.239 17.314,9.359c1.31,-1.648 2.666,-3.254 4.058,-4.833c0.195,-0.221 2.815,-3.026 0.889,-0.991c0.872,-0.922 1.77,-1.82 2.666,-2.718c4.203,-4.21 8.707,-8.114 13.404,-11.76c3.16,-2.452 8.383,-5.72 13.518,-8.184c-1.939,0.931 1.814,-0.664 1.781,-0.651c1.148,-0.427 2.327,-0.762 3.506,-1.09c3.544,-0.992 -1.886,0.194 1.641,-0.296c0.449,-0.063 4.348,-0.09 2.723,-0.212c-2.043,-3.344 -4.086,-6.687 -6.129,-10.03c0.641,-1.9 -1.203,2.131 -1.416,2.52c0.838,-1.531 -1.712,2.293 -2.017,2.695c-2.83,3.734 -4.133,4.863 -7.583,8.104c-5.627,5.289 -11.764,10.039 -17.994,14.591c4.197,4.784 8.396,9.567 12.594,14.352c6.881,-6.955 13.966,-15.322 20.037,-21.643c6.375,-6.635 13.649,-13.383 20.232,-16.076c-3.62,-4.125 -7.241,-8.251 -10.861,-12.377c-1.183,2.145 -2.273,3.766 -4.627,6.934c-2.613,3.521 -4.91,6.064 -7.328,8.436c-1.404,1.377 -2.891,2.664 -4.393,3.931c-0.744,0.615 -1.501,1.214 -2.271,1.796c0.862,-0.596 0.633,-0.449 -0.687,0.438c-1.502,0.995 -3.092,1.841 -4.699,2.647c1.851,-0.929 -4.353,1.027 -2.336,0.701c2.962,3.375 5.924,6.75 8.887,10.125c4.584,-14.621 19.115,-26.035 27.359,-39.434c2.395,-3.893 4.555,-9.055 1.008,-13.096c-4.42,-5.037 -11.569,-1.953 -15.896,1.287c-5.344,4.002 -9.949,8.836 -14.809,13.389c-1.058,0.991 -2.147,1.945 -3.243,2.894c-0.44,0.382 -4.116,3.11 -2.904,2.298c-2.925,1.961 -3.916,2.296 -7.333,3.125c3.941,3.179 7.881,6.358 11.82,9.537c1.016,-6.354 4.318,-11.095 9.145,-16.981c2.66,-3.244 4.361,-4.848 7.85,-8.029c1.348,-1.23 2.75,-2.396 4.16,-3.552c0.668,-0.539 1.344,-1.07 2.027,-1.591c3.201,-2.477 -2.047,1.348 1.07,-0.769c-4.604,-3.695 -9.206,-7.392 -13.809,-11.088c-7.517,16.362 -21.109,27.598 -35.002,38.738c4.984,3.952 9.968,7.904 14.951,11.857c1.832,-2.523 3.83,-4.906 5.917,-7.221c-2.169,2.405 1.734,-1.721 2.297,-2.271c1.396,-1.368 2.852,-2.674 4.321,-3.962c1.492,-1.307 3.047,-2.539 4.62,-3.745c1.242,-0.92 1.267,-0.943 0.073,-0.069c0.949,-0.662 1.931,-1.274 2.913,-1.885c1.573,-0.978 3.218,-1.829 4.888,-2.628c-3.148,1.507 5.154,-1.184 1.772,-0.567c0.61,-0.099 1.225,-0.167 1.843,-0.208c2.863,-0.254 -2.018,-0.337 0.754,0.026c0.572,0.093 1.135,0.222 1.69,0.387c-2.143,-0.563 0.293,0.351 0.695,0.587c1.223,0.718 2.866,3.397 3.838,6.82c1.603,5.648 -3.761,11.969 -7.218,15.452c-10.324,10.403 -25.295,18.722 -38.781,24.343c-8.938,3.725 -18.218,6.905 -27.596,9.314c-6.736,1.729 -14.893,3.084 -21.271,1.611c1.468,3.662 2.936,7.322 4.403,10.984c0.425,-0.975 0.837,-1.95 1.229,-2.938c0.778,-1.64 0.199,-0.978 -1.734,1.983c0.636,-0.585 1.3,-1.137 1.992,-1.656c-4.652,-2.549 -9.305,-5.098 -13.956,-7.646c-0.175,0.318 -3.34,0.537 -4.401,0.58c1.707,4.283 3.413,8.565 5.119,12.849c1.492,-2.38 2.771,-5.309 5.002,-7.052c2.99,-2.336 5.193,-7.045 3.759,-10.787c-1.872,-4.885 -7.864,-4.381 -11.632,-2.338c-6.768,3.669 -13.018,8.047 -19.065,12.8c4.291,2.352 8.582,4.702 12.873,7.054c3.614,-9.501 11.683,-16.596 18.158,-24.167c-4.1,-2.216 -8.199,-4.431 -12.299,-6.646c-8.438,10.768 -15.476,22.91 -24.84,32.917c-5.113,5.466 -0.083,11.598 5.974,6.819Z" style="fill:#010101;fill-rule:nonzero;"/><path d="M192.958,89.809c-23.168,-1.367 -41.795,22.276 -51.093,40.979c-3.23,6.498 2.156,12.571 8.994,10.25c20.115,-6.827 32.049,-26.412 44.175,-42.529c2.413,-3.207 3.862,-8.242 0.896,-11.624c-2.776,-3.163 -8.396,-2.912 -11.643,-0.622c-11.846,8.355 -22.004,18.154 -31.705,28.895c-2.723,3.016 -3.77,8.622 -0.914,11.875c3.063,3.49 8.286,2.602 11.893,0.636c19.849,-10.817 36.665,-31.163 42.34,-53.142c1.906,-7.385 -5.088,-10.279 -11.038,-8.906c-18.296,4.22 -35.653,18.528 -46.66,33.332c-2.567,3.453 -4.15,8.818 -0.96,12.453c4.049,4.613 11.207,2.115 15.118,-1.225c15.837,-13.523 30.966,-35.482 28.866,-57.276c-0.457,-4.747 -4.06,-7.089 -8.604,-6.94c-14.538,0.477 -26.892,12.82 -35.397,23.397c-8.133,10.11 -17.174,24.94 -15.793,38.53c0.97,9.555 11.522,7.449 16.955,3.318c16.937,-12.877 35.353,-34.028 35.943,-56.339c0.115,-4.344 -4.558,-7.774 -8.687,-7.006c-15.329,2.853 -26.701,13.819 -35.339,26.271c-8.2,11.82 -15.105,25.856 -17.652,40.112c-0.606,3.391 0.221,6.964 3.471,8.723c4.602,2.491 9.529,-0.018 13.265,-2.759c9.121,-6.691 16.601,-15.826 22.722,-25.267c6.514,-10.045 12.366,-21.426 13.972,-33.434c0.707,-5.287 -2.406,-10.478 -8.443,-9.621c-14.717,2.089 -26.165,12.657 -34.407,24.441c-8.227,11.763 -14.477,26.022 -14.75,40.544c-0.088,4.655 4.505,7.324 8.663,6.986c5.388,-0.436 9.48,-4.163 12.017,-8.662c12.129,-21.513 34.71,-38.7 39.904,-64.688c1.334,-6.677 -4.832,-11.633 -11.211,-9.045c-18.96,7.69 -37.179,24.326 -42.105,44.772c-2.139,8.877 7.702,11.335 13.953,7.793c14.123,-8.003 22.607,-21.902 34.33,-32.075c11.967,-10.387 28.659,-18.141 43.892,-22.759c-2.146,-5.518 -4.293,-11.035 -6.439,-16.553c2.464,-1.772 -0.359,0.054 -0.783,0.292c-0.604,0.325 -1.216,0.632 -1.838,0.919c1.166,-0.521 1.116,-0.525 -0.148,-0.012c-2.722,1.048 -5.568,1.771 -8.398,2.455c-5.888,1.42 -11.868,2.399 -17.722,3.969c-13.377,3.587 -25.867,11.896 -30.873,25.306c-2.893,7.752 1.854,13.876 10.202,11.625c10.267,-2.77 19.503,-9.097 27.959,-15.307c8.726,-6.408 17.69,-14.668 22.185,-24.711c2.033,-4.543 1.182,-11.286 -4.838,-12.068c-17.172,-2.23 -32.704,7.491 -45.752,17.524c-3.513,2.701 -6.064,8.263 -4.396,12.616c2.201,5.743 9.181,5.084 13.604,2.735c15.391,-8.169 30.582,-16.957 48.479,-17.216c1.485,-6.932 2.97,-13.861 4.455,-20.793c-4.683,0.13 -9.312,0.892 -13.999,0.999c-1.486,6.932 -2.971,13.863 -4.457,20.795c9.761,-0.511 19.479,-0.347 29.178,0.911c8.647,1.121 19.379,3.233 25.974,8.657c5.419,-5.813 10.837,-11.628 16.255,-17.441c-12.208,-8.101 -27.752,-8.884 -41.947,-8.936c-9.537,-0.034 -20.026,18.294 -7.081,20.701c16.163,3.007 31.117,9.939 46.968,14.069c3.255,-6.906 6.511,-13.813 9.766,-20.719c-38.39,-9.848 -81.49,7.446 -108.951,34.445c-2.846,2.798 -5.246,6.274 -5.022,10.47c0.244,4.606 4.326,7.607 8.807,7.104c14.235,-1.603 27.727,-7.8 40.25,-14.44c12.743,-6.759 25.157,-14.891 36.108,-24.297c6.951,-5.97 6.879,-17.238 -3.787,-17.593c-16.782,-0.556 -34.02,6.361 -49.033,13.121c-16.045,7.225 -31.966,17.372 -41.231,32.688c-2.634,4.354 -0.821,11.936 4.989,12.444c37.334,3.275 69.523,-20.938 104.545,-29.317c-1.332,-6.419 -2.664,-12.838 -3.995,-19.258c-1.384,0.654 -2.772,1.296 -4.165,1.93c-1.309,0.583 -1.453,0.65 -0.432,0.201c-0.764,0.336 -1.527,0.67 -2.292,1.002c-3.632,1.583 -7.281,3.133 -10.921,4.702c-8.284,3.573 -16.543,7.223 -24.593,11.303c-14.515,7.358 -30.026,17.036 -38.735,31.219c-2.019,3.287 -3.833,6.915 -2.325,10.849c1.244,3.246 5.089,5.421 8.548,4.771c31.043,-5.832 55.52,-25.296 83.921,-37.512c-2.288,-5.883 -4.577,-11.766 -6.865,-17.648c-1.142,0.962 -2.304,1.89 -3.49,2.796c-1.22,0.897 -1.232,0.914 -0.04,0.047c-0.981,0.689 -1.986,1.346 -2.99,2.004c-3.53,2.313 -7.196,4.418 -10.871,6.491c-7.809,4.404 -15.775,8.521 -23.528,13.026c-15.555,9.04 -31.081,20.254 -39.072,36.894c-3.087,6.427 0.395,13.431 7.924,12.962c15.793,-0.984 30.866,-9.255 44.128,-17.264c14.149,-8.544 27.475,-18.494 40.516,-28.627c3.717,-2.888 6.443,-8.754 4.666,-13.39c-2.185,-5.701 -9.984,-5.927 -14.439,-2.904c-12.672,8.601 -26.054,16.044 -38.476,25.032c-12.194,8.824 -24.737,19.783 -30.269,34.199c-3.006,7.834 1.979,15.234 10.804,12.313c25.614,-8.481 46.763,-26.735 66.666,-44.304c4.023,-3.552 7.513,-10.692 3.316,-15.476c-4.342,-4.947 -11.538,-2.013 -15.775,1.278c-11.235,8.728 -25.845,17.524 -38.751,26.725c-14.084,10.039 -28.01,21.11 -37.597,35.738c-2.487,3.795 -4.475,9.09 -1.005,13.044c3.503,3.992 8.941,2.612 13.064,0.698c26.01,-12.076 49.471,-29.953 70.795,-48.954c3.563,-3.174 6.526,-8.536 4.666,-13.39c-2.396,-6.251 -9.664,-5.183 -14.439,-2.904c-26.514,12.655 -56.692,27.771 -71.778,54.226c-4.677,8.2 3.087,14.378 10.84,12.353c14.271,-3.729 27.254,-11.004 39.678,-18.77c11.77,-7.356 23.677,-15.687 36.324,-20.191c-3.069,-5.049 -6.14,-10.098 -9.209,-15.146c-8.447,9.991 -20.767,17.915 -32.417,25.694c-13.694,9.144 -26.908,18.634 -37.586,31.305c-2.908,3.451 -4.248,9.459 -1.012,13.146c3.499,3.987 9.046,2.688 13.166,0.703c21.71,-10.462 42.265,-23.62 65.058,-31.7c-2.29,-5.886 -4.579,-11.772 -6.869,-17.659c-20.271,18 -45.76,29.389 -69.208,43.004c-4.974,2.889 -9.788,9.41 -7.478,15.44c2.436,6.354 9.665,5.093 14.497,2.915c19.248,-8.676 38.465,-17.658 59.058,-22.7c-2.29,-5.886 -4.579,-11.772 -6.869,-17.659c-20.832,15.01 -44.73,25.727 -68.266,35.704c-5.046,2.139 -9.507,5.743 -10.717,11.392c-1.248,5.824 2.905,10.722 8.912,10.156c25.564,-2.407 50.651,-11.178 72.882,-23.893c4.445,-2.543 8.293,-7.52 8.009,-12.87c-0.262,-4.933 -4.483,-7.705 -9.146,-7.378c-12.317,0.866 -24.545,4.799 -36.125,8.868c-12.557,4.413 -25.099,9.592 -36.738,16.073c-5.312,2.958 -13.061,15.277 -4.104,19.156c16.258,7.039 34.584,3.543 50.387,-3.117c16.977,-7.155 33.102,-17.854 44.736,-32.302c2.798,-3.476 4.238,-9.276 0.998,-12.968c-3.417,-3.895 -8.963,-2.713 -12.987,-0.693c-9.856,4.942 -19.749,10.254 -27.729,17.998c-2.916,2.829 -5.352,6.422 -5.125,10.683c0.178,3.336 2.685,6.822 6.25,7.122c23.237,1.95 39.366,-18.475 50.026,-36.424c9.675,-16.292 18.044,-36.691 18.237,-55.916c0.048,-4.777 -4.592,-7.52 -8.892,-7.171c-5.155,0.418 -10.248,4.175 -12.333,8.891c-6.511,14.728 -14.995,28.015 -25.324,40.356c6.105,2.124 12.212,4.248 18.318,6.372c8.311,-21.792 17.63,-43.215 23.871,-65.736c1.203,-4.341 -1.454,-8.81 -5.885,-9.632c-6.209,-1.15 -12.174,3.414 -14.861,8.662c-3.944,7.707 -8.813,14.919 -12,23c6.916,0.323 13.831,0.646 20.746,0.97c3.162,-9.313 6.899,-18.368 9.035,-28.003c0.977,-4.4 -1.283,-8.807 -5.903,-9.662c-6.205,-1.15 -12.247,3.413 -14.909,8.689c-2.636,5.223 -4.938,10.633 -8.533,15.274c6.512,1.228 13.022,2.455 19.533,3.683c-0.73,2.724 0.805,-2.166 1.029,-3.002c1.194,-4.449 -1.461,-9.009 -6.021,-9.854c-6.348,-1.177 -12.465,3.489 -15.206,8.862c-1.019,1.997 -2.053,3.984 -3.056,5.99c-2.484,4.969 -0.962,11.589 5.097,12.713c6.349,1.176 12.581,-3.494 15.29,-8.912c0.998,-1.996 1.963,-4.006 2.944,-6.01c-7.076,-0.331 -14.151,-0.661 -21.228,-0.992c0.688,-2.748 -0.759,2.148 -0.971,2.998c-1.114,4.453 1.397,8.975 6.005,9.828c5.143,0.954 10.521,-2.137 13.528,-6.146c4.777,-6.367 8.018,-13.604 11.467,-20.726c-6.938,-0.324 -13.875,-0.648 -20.813,-0.973c-1.963,9.64 -5.813,18.712 -8.965,27.997c-1.453,4.28 1.645,8.845 5.885,9.632c5.801,1.075 12.729,-3.256 14.861,-8.662c3.186,-8.081 8.055,-15.293 12,-23c-6.916,-0.323 -13.831,-0.646 -20.746,-0.97c-5.729,20.671 -14.453,40.278 -22.129,60.264c-1.565,4.076 -1.895,9.171 2.589,11.599c5.637,3.052 12.14,-0.956 15.729,-5.227c11.612,-13.812 21.337,-29.149 28.676,-45.644c-7.075,0.573 -14.149,1.146 -21.225,1.72c-0.001,0.464 -0.012,0.929 -0.033,1.393c-0.086,2.539 0.266,-2.342 -0.018,0.341c-0.182,1.722 -0.484,3.43 -0.807,5.13c-0.688,3.639 -1.675,7.219 -2.751,10.76c-1.019,3.35 -1.935,5.75 -3.743,10.137c-1.836,4.452 -3.932,8.794 -6.194,13.043c-2.471,4.638 -2.841,5.167 -5.827,9.429c-1.082,1.544 -2.236,3.034 -3.415,4.505c-0.685,0.854 -1.404,1.678 -2.125,2.5c2.005,-2.287 -0.306,0.271 -0.648,0.61c-1.191,1.18 -2.467,2.269 -3.77,3.323c-2.561,2.07 2.307,-1.499 -0.368,0.265c-0.762,0.501 -1.561,0.939 -2.361,1.374c-2.655,1.443 2.439,-0.911 -0.314,0.147c-0.789,0.304 -1.607,0.521 -2.424,0.733c3.561,-0.93 -4.068,-0.316 -0.938,-0.029c0.375,5.936 0.75,11.87 1.125,17.805c6.305,-6.038 14.188,-9.967 22.271,-14.002c-3.996,-4.554 -7.992,-9.107 -11.989,-13.661c-0.682,0.846 -1.381,1.673 -2.098,2.491c1.963,-2.241 -1.373,1.33 -1.759,1.701c-2.45,2.358 -5.102,4.506 -7.8,6.572c-1.262,0.927 -1.432,1.06 -0.508,0.397c-0.749,0.521 -1.504,1.034 -2.266,1.538c-1.541,1.031 -3.125,1.996 -4.715,2.949c-3.229,1.938 -6.588,3.653 -9.996,5.251c-9.578,4.489 -23.824,8 -33.736,3.681c-1.368,6.386 -2.736,12.771 -4.104,19.156c10.096,-5.6 18.351,-8.893 29.512,-12.926c10.866,-3.928 21.604,-7.429 31.625,-8.133c-0.378,-6.75 -0.759,-13.498 -1.138,-20.248c-18.69,10.69 -39.619,18.084 -61.118,20.107c-0.602,7.183 -1.203,14.365 -1.805,21.548c27.866,-11.813 55.097,-24.544 79.734,-42.296c3.808,-2.744 6.425,-8.906 4.686,-13.444c-1.884,-4.915 -7.165,-5.29 -11.555,-4.215c-22.649,5.544 -43.778,15.761 -64.942,25.3c2.34,6.119 4.68,12.236 7.02,18.355c25.433,-14.768 52.615,-27.304 74.792,-46.996c3.581,-3.18 6.551,-8.576 4.686,-13.444c-1.765,-4.602 -7.302,-5.723 -11.555,-4.215c-24.86,8.813 -47.275,22.896 -70.942,34.3c4.051,4.617 8.103,9.233 12.154,13.85c8.427,-10 20.771,-17.92 32.414,-25.695c13.686,-9.138 26.932,-18.623 37.583,-31.306c6.263,-7.456 0.944,-18.775 -9.209,-15.146c-27.051,9.669 -48.293,31.8 -75.998,39.039c3.613,4.118 7.227,8.235 10.84,12.353c-1.226,2.149 0.84,-1.249 0.914,-1.356c0.718,-1.04 1.515,-2.025 2.306,-3.009c1.723,-2.144 2.234,-2.572 5.144,-5.244c5.271,-4.84 9.265,-7.604 14.88,-11.238c11.134,-7.208 23.023,-13.221 34.979,-18.927c-3.258,-5.432 -6.516,-10.863 -9.773,-16.294c-19.751,17.599 -41.118,33.836 -65.205,45.046c4.02,4.581 8.039,9.161 12.06,13.742c7.785,-11.9 19.607,-21.405 31.164,-29.503c13.446,-9.421 27.497,-17.967 40.488,-28.034c-4.153,-4.732 -8.306,-9.465 -12.459,-14.197c-16.524,14.553 -34.034,30.672 -55.334,37.696c3.602,4.104 7.202,8.208 10.804,12.313c0.407,-1.057 0.846,-2.083 1.324,-3.109c0.336,-0.689 0.694,-1.367 1.073,-2.034c-0.661,1.057 -0.59,0.968 0.214,-0.267c0.901,-1.357 1.923,-2.631 2.949,-3.893c0.537,-0.645 1.088,-1.279 1.65,-1.902c-0.874,0.934 -0.76,0.832 0.342,-0.305c2.203,-2.229 4.584,-4.28 6.995,-6.28c1.426,-1.184 2.898,-2.312 4.372,-3.435c0.75,-0.564 1.504,-1.123 2.263,-1.676c-0.863,0.61 -0.635,0.452 0.686,-0.476c10.837,-7.585 22.448,-13.97 33.388,-21.393c-3.258,-5.432 -6.516,-10.863 -9.773,-16.294c-5.039,3.915 -10.122,7.771 -15.279,11.531c-2.313,1.687 -4.083,2.918 -7.502,5.25c-3.191,2.178 -6.434,4.28 -9.705,6.334c-6.352,3.986 -12.908,7.655 -19.714,10.809c1.403,-0.65 -2.565,1.027 -2.999,1.196c-1.505,0.585 -3.038,1.091 -4.577,1.578c-1.442,0.457 -2.911,0.819 -4.384,1.158c1.168,-0.241 1.099,-0.251 -0.205,-0.027c-0.991,0.151 -1.992,0.219 -2.991,0.28c2.642,4.32 5.282,8.642 7.925,12.962c0.207,-0.432 2.44,-4.345 1.088,-2.214c1.034,-1.629 2.242,-3.143 3.472,-4.625c1.014,-1.141 1.031,-1.184 0.052,-0.128c0.558,-0.577 1.127,-1.144 1.707,-1.698c1.471,-1.436 3.043,-2.764 4.628,-4.069c3.749,-3.09 3.576,-2.829 7.708,-5.499c3.759,-2.428 7.644,-4.66 11.541,-6.855c14.236,-8.018 29.225,-15.06 41.812,-25.653c3.642,-3.065 6.514,-8.657 4.683,-13.436c-1.686,-4.396 -7.404,-5.993 -11.548,-4.213c-13.968,6.002 -27.081,13.53 -40.397,20.818c-11.812,6.465 -24.316,13.119 -37.682,15.67c2.074,5.206 4.148,10.413 6.223,15.619c0.787,-1.289 1.623,-2.525 2.52,-3.74c0.302,-0.408 3.421,-3.947 1.516,-1.945c2.292,-2.408 4.869,-4.538 7.491,-6.571c1.25,-0.923 1.385,-1.035 0.406,-0.336c0.728,-0.509 1.463,-1.008 2.203,-1.497c1.505,-1.008 3.05,-1.952 4.597,-2.892c3.587,-2.176 7.298,-4.145 11.033,-6.051c13.707,-6.994 26.77,-11.789 41.097,-18.611c4.44,-2.115 8.111,-7.643 7.848,-12.61c-0.346,-6.495 -6.581,-7.923 -11.843,-6.647c-16.601,4.021 -32.206,11.438 -48.018,17.736c-14.094,5.613 -30.258,12.237 -45.438,10.946c1.663,4.147 3.326,8.296 4.989,12.444c-1.692,2.811 0.63,-0.635 1.027,-1.139c0.419,-0.515 0.851,-1.019 1.295,-1.511c-1.097,1.169 -1.125,1.227 -0.087,0.174c1.051,-1.041 2.175,-2.005 3.301,-2.962c0.594,-0.495 1.196,-0.98 1.806,-1.457c0.143,-0.113 3.296,-2.41 1.196,-0.934c6.465,-4.549 13.543,-8.227 20.731,-11.482c10.87,-4.924 24.05,-9.324 36.466,-8.88c-1.262,-5.864 -2.524,-11.729 -3.787,-17.593c-8.867,7.582 -17.061,12.771 -28.146,18.945c-5.672,3.159 -11.295,5.955 -16.739,8.129c-2.832,1.131 -5.726,2.1 -8.652,2.956c-3.258,0.954 -2.889,0.86 -6.104,1.232c1.261,5.858 2.522,11.716 3.784,17.573c21.994,-21.743 55.49,-35.467 87.049,-27.555c11.04,2.768 23.438,-17.236 9.766,-20.719c-15.875,-4.044 -30.873,-10.93 -47.032,-13.931c-2.36,6.9 -4.721,13.801 -7.081,20.701c11.007,0.037 22.638,0.822 32.053,7.064c3.992,2.647 9.983,0.011 13.102,-2.726c3.253,-2.854 7.817,-10.882 3.153,-14.716c-18.465,-15.179 -46.079,-15.631 -68.849,-14.432c-5.92,0.312 -11.605,5.556 -12.828,11.256c-1.236,5.771 2.785,9.668 8.371,9.539c4.688,-0.108 9.317,-0.87 14.001,-1.001c11.571,-0.324 19.562,-21.016 4.455,-20.793c-21.728,0.32 -40.826,10.855 -59.521,20.784c3.069,5.117 6.139,10.234 9.208,15.352c5.979,-4.599 15.451,-11.616 24.248,-10.476c-1.612,-4.023 -3.226,-8.046 -4.838,-12.068c-0.232,0.555 -0.492,1.098 -0.776,1.628c1.231,-2.435 -0.325,0.437 -0.595,0.816c-0.451,0.637 -3.614,4.28 -2.328,2.932c-3.021,3.17 -6.412,5.984 -9.869,8.66c-2.186,1.691 -1.693,1.28 -3.98,2.794c-1.788,1.184 -3.633,2.279 -5.494,3.344c-1.697,0.973 -3.447,1.848 -5.217,2.683c2.189,-1.033 -0.768,0.242 -1.046,0.345c-0.835,0.31 -1.691,0.55 -2.551,0.781c3.4,3.875 6.802,7.75 10.202,11.625c0.412,-1.105 0.861,-2.167 1.374,-3.23c0.665,-1.23 0.71,-1.312 0.138,-0.242c0.409,-0.576 0.844,-1.132 1.306,-1.667c-1.795,2.184 0.374,-0.182 0.779,-0.524c-2.21,1.869 1.099,-0.644 1.692,-0.978c0.238,-0.134 3.352,-1.516 1.078,-0.567c1.338,-0.559 2.722,-1.005 4.102,-1.444c2.855,-0.911 5.793,-1.567 8.719,-2.209c11.938,-2.617 22.923,-4.939 33.05,-12.209c8.513,-6.11 4.892,-19.974 -6.439,-16.553c-17.927,5.411 -34.531,14.408 -49.769,25.19c-12.824,9.075 -21.476,24.893 -34.01,31.976c4.651,2.598 9.302,5.195 13.953,7.793c1.163,-4.802 4.621,-9.727 8.109,-13.283c1.978,-2.018 5.142,-4.772 6.811,-5.937c1.193,-0.833 2.444,-1.577 3.695,-2.317c0.57,-0.337 4.091,-2.019 3.279,-1.69c-3.737,-3.015 -7.474,-6.03 -11.211,-9.045c-2.164,10.759 -9.162,19.726 -15.852,28.335c-7.833,10.083 -15.963,19.806 -22.244,30.978c6.893,-0.559 13.786,-1.117 20.68,-1.676c0.111,-6.344 4.034,-16.416 7.77,-22.439c2.952,-4.759 5.556,-7.941 8.664,-10.794c0.895,-0.821 1.854,-1.566 2.814,-2.308c-2.025,1.563 0.982,-0.477 1.222,-0.613c2.999,-1.719 -1.964,0.619 1.165,-0.521c2.957,-1.078 -1.827,0.084 1.208,-0.339c-2.814,-3.207 -5.628,-6.414 -8.443,-9.621c-2.297,16.857 -14.378,33.792 -27.307,43.3c5.579,1.988 11.157,3.977 16.735,5.964c1.625,-9.158 5.73,-18.524 10.381,-26.107c1.404,-2.289 2.943,-4.491 4.537,-6.652c0.778,-1.055 1.606,-2.071 2.436,-3.087c0.547,-0.658 1.106,-1.306 1.678,-1.943c-0.791,0.837 -0.668,0.725 0.369,-0.338c0.852,-0.856 1.76,-1.652 2.67,-2.445c0.594,-0.502 1.201,-0.989 1.82,-1.46c-1.114,0.782 -1.071,0.777 0.127,-0.016c0.904,-0.581 1.864,-1.063 2.826,-1.541c-2.924,1.452 3.076,-0.565 0.165,-0.027c-2.896,-2.335 -5.791,-4.671 -8.687,-7.006c-0.163,5.879 -4.547,12.668 -8.723,18.257c-5.192,6.949 -10.112,11.875 -17.334,17.404c5.652,1.105 11.304,2.212 16.956,3.318c-0.257,-2.429 0.44,-5.433 1.463,-7.986c2.31,-5.771 3.97,-8.2 7.262,-12.72c0.726,-0.996 1.495,-1.96 2.265,-2.923c0.27,-0.338 3.37,-3.88 1.797,-2.199c1.845,-1.971 3.847,-3.784 5.932,-5.495c2.775,-2.278 -2.044,1.29 0.824,-0.634c1.095,-0.735 2.257,-1.362 3.434,-1.958c-2.48,1.258 0.035,0.082 0.59,-0.096c1.766,-0.564 -1.698,0.034 1.243,-0.062c-2.868,-2.313 -5.736,-4.627 -8.604,-6.94c1.276,14.545 -9.44,28.482 -19.134,36.724c4.72,3.742 9.438,7.485 14.158,11.229c7.207,-9.646 18.729,-19.633 31.34,-22.668c-3.679,-2.969 -7.358,-5.938 -11.038,-8.906c-3.576,14.437 -15.371,27.999 -27.66,34.858c3.659,4.17 7.318,8.34 10.979,12.511c7.477,-8.444 15.597,-16.269 24.764,-22.871c-4.404,-3.493 -8.811,-6.987 -13.216,-10.48c-4.904,6.656 -9.503,13.525 -14.662,19.994c-4.233,5.31 -9.634,11.354 -15.163,13.477c2.998,3.417 5.996,6.834 8.994,10.25c3.159,-7.04 7.462,-13.314 12.453,-19.19c4.167,-4.907 9.66,-9.726 16.381,-9.742c7.094,-0.016 14.58,-14.67 5.19,-15.223Z" style="fill:#010101;fill-rule:nonzero;"/><path d="M50.924,243.9c-9.16,41.207 -3.141,85.683 -17.752,125.758c6.504,-0.527 13.01,-1.055 19.513,-1.581c-0.315,-10.962 1.776,-21.633 3.77,-32.362c2.062,-11.098 3.071,-22.211 2.801,-33.5c-0.101,-4.201 -3.935,-6.634 -7.833,-6.318c-5.868,0.476 -9.934,5.015 -11.695,10.264c-8.545,25.473 -9.273,53.777 -22.832,77.445c6.7,-0.542 13.4,-1.085 20.101,-1.628c-2.72,-22.354 9.438,-43.597 10.455,-65.825c0.543,-11.869 -18.976,-4.981 -19.914,4.023c-1.164,11.166 -3.083,22.123 -5.702,33.041c-2.496,10.407 -5.375,21.141 -10.93,30.391c-3.748,6.242 1.079,11.729 7.305,11.95c17.811,0.634 25.592,-20.915 29.324,-34.655c2.146,-7.906 3.627,-15.984 5.27,-24.004c0.686,-3.349 1.404,-6.689 2.242,-10.003c0.377,-1.493 0.808,-2.972 1.281,-4.437c-1.032,3.193 0.318,-0.513 0.715,-1.282c-6.643,1.353 -13.286,2.706 -19.929,4.059c3.255,10.564 1.748,21.78 3.511,32.593c1.619,9.935 14.443,7.896 18.848,0.916c13.267,-21.026 6.594,-45.529 7.673,-68.814c-6.589,3.786 -13.179,7.572 -19.768,11.357c9.491,15.709 10.049,35.654 14.617,53.017c1.21,4.599 7.251,5.167 10.935,3.989c4.385,-1.402 9.665,-5.85 10.143,-10.781c2.021,-20.889 -8.368,-39.186 -9.831,-59.612c-7.065,3.125 -14.131,6.25 -21.196,9.376c9.428,19.068 12.542,40.649 25.11,58.208c2.794,3.904 9.155,2.636 12.595,0.673c4.423,-2.523 7.689,-7.123 7.662,-12.312c-0.074,-14.218 -3.989,-27.983 -6.15,-41.952c-6.66,3.827 -13.32,7.654 -19.981,11.48c2.608,4.29 5.182,8.598 7.754,12.908c4.708,7.889 13.502,3.998 18.508,-1.5c3.722,-4.087 7.11,-10.86 4.87,-16.502c-2.169,-5.461 -6.909,-7.533 -12.143,-9.25c-2.373,6.939 -4.746,13.878 -7.12,20.816c2.08,0.09 4.231,0.771 6.357,0.896c-2.009,-2.289 -4.018,-4.578 -6.026,-6.867c1.957,15.564 2.289,31.258 6.414,46.486c1.255,4.635 7.296,5.225 11.041,4.027c4.765,-1.522 9.291,-5.838 10.24,-10.885c2.796,-14.874 1.011,-30.104 3.635,-44.971c-7.018,1.418 -14.035,2.835 -21.053,4.253c1.387,14.041 3.967,27.79 7.254,41.508c1.106,4.616 7.317,5.134 10.917,3.983c5.375,-1.719 10.833,-7.362 10.348,-13.39c-1.145,-14.207 -3.909,-29.202 -9.819,-42.247c-1.906,-4.206 -6.441,-5.186 -10.584,-3.861c-5.646,1.806 -9.912,7.025 -10.031,12.98c-0.584,29.11 2.586,58.084 2.443,87.178c7.234,-3.199 14.468,-6.399 21.702,-9.6c-6.578,-19.499 -11.798,-39.396 -17.955,-59.025c-3.142,-10.014 -18.286,-2.462 -20.629,4.201c-8.313,23.646 -4.632,49.078 -2.159,73.438c6.832,-3.926 13.663,-7.851 20.494,-11.775c-11.03,-16.549 -12.377,-37.572 -24.018,-53.985c-5.619,-7.922 -19.46,1.922 -20.229,9.069c-1.984,18.437 3.344,35.762 6.791,53.679c6.808,-3.911 13.615,-7.823 20.422,-11.734c-6.597,-9.673 -10.019,-21.219 -14.793,-31.824c-5.416,-12.028 -25.363,1.192 -21.039,11.992c4.076,10.18 7.854,20.475 11.066,30.962c6.969,-3.972 13.938,-7.944 20.906,-11.916c-3.871,-12.612 -9.031,-26.384 -18.305,-36.07c-6.562,-6.854 -18.494,1.155 -19.839,8.895c-0.827,4.761 -0.655,9.556 -0.662,14.361c0,0.205 -0.169,3.38 0.036,1.136c-0.073,0.8 -1.154,4.048 -0.064,1.322c0.854,-2.135 3.489,-3.9 5.424,-4.647c1.617,-0.625 -0.144,-0.224 -1.166,-0.386c-8.723,-1.385 -20.549,9.909 -14.01,18.361c6.573,8.496 17.914,12.863 28.263,14.318c5.066,0.712 10.006,-1.929 13.032,-5.92c2.22,-2.929 4.591,-9.419 0.956,-12.414c-8.67,-7.145 -19.021,-12.655 -30.256,-14.313c-8.938,-1.318 -20.146,9.697 -13.966,18.304c7.972,11.102 21.632,17.017 34.126,21.306c12.952,4.447 27.032,6.307 40.51,3.53c8.229,-1.695 14.128,-13.622 6.628,-19.275c-9.713,-7.322 -21.012,-11.994 -32.025,-16.967c-4.49,-2.027 -9.452,-0.425 -13.022,2.709c-3.49,3.063 -7.481,10.491 -3.134,14.626c7.256,6.901 17.295,10.828 26.588,14.034c11.269,3.888 25.379,4.56 33.446,-5.907c7.589,-9.847 2.754,-20.241 -2.592,-29.727c-2.854,-5.064 -5.946,-9.991 -8.804,-15.055c-1.183,-2.095 -2.292,-4.227 -3.307,-6.407c-0.491,-1.055 -0.912,-2.137 -1.304,-3.231c-0.888,-2.477 -0.162,0.16 -0.313,-1.052c-6.553,3.765 -13.105,7.529 -19.658,11.295c8.393,11.822 13.273,25.857 24.022,35.98c7.312,6.886 20.303,-2.228 19.61,-11.268c-1.262,-16.447 -7.877,-31.71 -10.216,-47.931c-6.405,3.68 -12.81,7.36 -19.215,11.04c10.563,15.531 13.043,34.992 22.674,51.061c6.409,10.692 25.099,-1.285 20.178,-11.5c-6.741,-13.993 -10.534,-29.577 -20.262,-41.996c-6.406,-8.178 -19.959,3.195 -19.356,11.121c1.688,22.183 20.896,36.365 25.356,57.424c4.123,-5.35 8.246,-10.699 12.369,-16.049c-6.174,1.239 -11.995,-0.884 -17.931,-2.467c-6.932,-1.85 -13.868,-2.331 -20.804,-0.215c-5.737,1.75 -12.796,9.357 -9.876,15.867c6.642,14.813 26.145,15.59 40.143,15.666c7.181,0.039 18.506,-12.02 11.52,-18.717c-5.38,-5.158 -11.674,-9.038 -19.293,-9.398c-6.303,-0.298 -12.091,2.765 -14.867,8.665c-2.521,5.362 -0.758,10.601 4.957,12.362c9.121,2.811 18.735,1.953 27.973,4.057c4.989,1.137 10.446,-2.249 13.333,-6.057c2.873,-3.789 4.769,-11.746 -0.974,-14.252c-4.695,-2.049 -9.431,-2.771 -14.383,-3.857c-11.365,-2.494 -24.043,18.108 -9.988,21.191c3.175,0.696 6.617,0.851 9.617,2.143c4.119,-6.77 8.239,-13.539 12.359,-20.309c-9.258,-2.066 -18.883,-1.168 -28.027,-3.943c-2.411,7.051 -4.822,14.101 -7.234,21.15c3.018,0.13 5.959,2.511 8.031,4.479c3.84,-6.238 7.68,-12.478 11.52,-18.717c-4.605,-0.007 -8.608,-0.241 -13.765,-1.193c-2.61,-0.48 -4.565,-1.102 -6.745,-2.181c-1.9,-0.942 -2.744,-1.669 -3.348,-2.96c-3.292,5.289 -6.584,10.578 -9.876,15.867c4.294,-1.367 10.019,0.875 14.471,2.017c7.303,1.872 14.116,2.335 21.517,0.753c6.757,-1.443 11.094,-9.125 9.647,-15.5c-4.353,-19.174 -23.429,-32.596 -24.644,-52.576c-6.452,3.707 -12.904,7.414 -19.356,11.121c8.395,11.091 11.599,25.653 17.738,38.004c6.319,-4.51 12.638,-9.021 18.956,-13.531c-10.228,-16.589 -13.317,-36.472 -24.104,-52.908c-2.489,-3.792 -8.813,-2.427 -11.947,-0.639c-3.785,2.16 -7.874,6.955 -7.268,11.679c2.089,16.262 8.55,31.701 9.786,48.069c6.535,-3.756 13.072,-7.512 19.608,-11.268c-10.701,-10.105 -15.607,-24.195 -23.978,-36.02c-2.69,-3.801 -8.902,-2.548 -12.223,-0.652c-3.889,2.219 -8.033,7.105 -7.436,11.947c1.064,8.617 6.22,16.17 10.549,23.469c2.324,3.92 4.646,7.842 6.738,11.893c0.887,1.717 1.68,3.477 2.386,5.275c0.302,0.767 0.54,1.553 0.772,2.343c-0.627,-2.142 -0.02,0.305 -0.011,0.954c-0.026,-1.865 0.628,-2.998 1.569,-4.531c0.131,-0.213 4.232,-3.171 2.341,-2.115c3.051,-1.703 -0.792,-0.379 2.028,-0.795c-0.812,0.119 -1.641,0.111 -2.457,0.113c2.252,-0.006 -0.754,-0.163 -1.027,-0.2c-0.979,-0.132 -1.945,-0.343 -2.911,-0.547c-1.797,-0.382 -4.948,-1.337 -5.851,-1.665c-3.993,-1.445 -7.855,-3.258 -11.604,-5.248c-1.582,-0.84 -3.121,-1.756 -4.635,-2.713c-0.631,-0.398 -1.24,-0.826 -1.85,-1.256c-1.594,-1.127 1.458,1.381 -0.324,-0.321c-5.385,5.778 -10.77,11.557 -16.156,17.335c10.999,4.996 22.283,9.692 31.975,17.033c2.209,-6.425 4.419,-12.85 6.628,-19.275c2.458,-0.502 -0.788,0.012 -1.07,0.044c-1.403,0.159 -2.819,0.192 -4.229,0.216c-2.317,0.041 -3.951,-0.167 -6.748,-0.522c-6.021,-0.767 -11.939,-2.306 -17.692,-4.207c-9.698,-3.205 -19.716,-8.444 -25.624,-16.694c-4.655,6.101 -9.311,12.202 -13.966,18.304c7.733,1.15 15.702,4.694 21.744,9.687c4.663,-6.111 9.325,-12.223 13.988,-18.334c-7.377,-1.046 -15.042,-3.596 -19.737,-9.682c-4.67,6.12 -9.34,12.24 -14.01,18.361c10.363,1.658 21.171,-2.424 25.309,-12.74c1.604,-4 1.957,-8.092 2.027,-12.372c0.027,-1.67 -0.021,-3.342 -0.03,-5.011c-0.005,-0.996 0.022,-1.99 0.06,-2.984c-0.076,2.028 0.163,-0.881 0.202,-1.106c-6.612,2.965 -13.226,5.93 -19.839,8.895c8.211,8.601 12.321,20.755 15.695,31.93c1.782,5.899 9.674,5.123 13.792,2.773c5.059,-2.887 8.892,-8.788 7.114,-14.689c-3.168,-10.511 -6.9,-20.831 -10.934,-31.038c-7.013,3.998 -14.026,7.994 -21.039,11.992c5.457,12.273 9.631,24.955 17.207,36.177c2.7,4 9.321,2.604 12.697,0.678c3.804,-2.17 8.664,-7.522 7.725,-12.412c-2.994,-15.58 -8.946,-32.272 -7.209,-48.321c-6.742,3.022 -13.486,6.046 -20.229,9.069c5.309,7.498 8.047,16.614 10.954,25.234c3.409,10.105 7.086,19.851 13.028,28.78c2.682,4.03 9.377,2.602 12.742,0.682c4.135,-2.359 8.265,-7.365 7.752,-12.457c-1.072,-10.64 -2.284,-21.263 -2.779,-31.951c-0.459,-9.917 -0.537,-21.633 2.62,-30.611c-6.876,1.4 -13.753,2.801 -20.629,4.201c6.153,19.614 11.136,39.602 18.045,58.975c1.63,4.568 7.081,5.363 11.142,4.064c5.803,-1.855 10.63,-7.426 10.561,-13.664c-0.321,-28.958 -4.748,-57.85 -3.557,-86.822c-6.871,3.04 -13.743,6.08 -20.615,9.119c5.073,11.926 6.952,24.938 8.181,37.753c7.089,-3.136 14.177,-6.271 21.265,-9.406c-3.066,-11.96 -5.901,-24.142 -6.746,-36.492c-0.309,-4.512 -4.089,-7.164 -8.445,-6.812c-5.756,0.467 -11.488,5.337 -12.607,11.064c-2.906,14.877 -1.629,30.144 -4.365,45.029c7.094,-2.285 14.188,-4.571 21.283,-6.857c-3.722,-13.494 -3.788,-27.698 -5.588,-41.514c-0.408,-3.132 -2.406,-6.668 -6.026,-6.867c-3.901,-0.215 -7.718,-0.949 -11.643,-1.104c-10.22,-0.402 -19.327,16.873 -7.12,20.816c0.303,0.098 2.108,1.393 1.502,0.794c-0.197,-1.193 -0.393,-2.388 -0.589,-3.581c1.258,-2.436 1.196,-2.758 -0.186,-0.965c5.751,-1.195 11.503,-2.391 17.254,-3.585c-2.593,-4.299 -5.18,-8.601 -7.737,-12.92c-5.916,-9.992 -22.73,-1.023 -21.236,9.394c2.012,14.03 5.563,27.811 5.85,42.048c6.753,-3.88 13.505,-7.759 20.257,-11.639c-11.718,-15.813 -14.453,-36.319 -22.89,-53.792c-5.368,-11.116 -21.803,-0.276 -21.196,9.376c1.212,19.277 11.588,37.56 9.947,57.017c7.1,-3.14 14.199,-6.281 21.299,-9.421c-5.387,-19.4 -6.771,-39.399 -17.383,-56.983c-2.402,-3.98 -9.188,-2.428 -12.291,-0.657c-4.495,2.565 -7.236,6.887 -7.477,12.015c-0.458,9.797 0.567,19.607 0.829,29.398c0.119,4.432 0.121,8.902 -0.405,13.309c-0.267,2.228 -0.727,4.422 -1.271,6.597c-0.777,3.104 0.429,-0.721 -0.737,2.159c0.017,-0.041 -1.82,3.43 -0.742,1.723c6.282,0.305 12.564,0.61 18.848,0.916c-2.037,-12.535 -0.702,-25.094 -4.489,-37.407c-1.032,-3.354 -4.889,-4.755 -8.06,-4.497c-5.183,0.42 -9.555,4.068 -11.869,8.556c-5.664,10.987 -6.675,24.767 -9.311,36.684c-0.77,3.479 -1.625,6.937 -2.586,10.366c-0.188,0.658 -0.38,1.314 -0.578,1.969c-0.063,0.213 -1.103,3.376 -0.324,1.118c-0.506,1.469 -1.085,2.911 -1.694,4.34c-0.557,1.307 -1.203,2.57 -1.89,3.813c1.625,-2.944 -0.434,0.514 -0.956,1.167c1.434,-1.466 1.696,-1.755 0.788,-0.866c-1.744,1.683 2.576,-1.587 0.576,-0.362c-1.92,1.174 2.648,-0.925 0.511,-0.308c2.745,-0.793 1.283,-0.297 0.296,-0.302c2.436,3.983 4.87,7.967 7.305,11.95c5.86,-10.38 8.795,-22.56 11.34,-34.111c2.502,-11.354 4.469,-22.936 6.028,-34.457c-6.638,1.342 -13.276,2.683 -19.914,4.023c-0.836,10.846 -4.855,21.472 -7.674,31.903c-3.003,11.114 -5.197,22.734 -3.871,34.271c0.515,4.473 3.919,7.156 8.421,6.792c5.279,-0.428 9.154,-4.063 11.68,-8.42c14.506,-25.024 14.581,-55.497 23.168,-82.555c-6.51,1.315 -13.02,2.631 -19.528,3.945c0.46,10.907 -2.289,21.817 -4.184,32.5c-1.97,11.104 -3.669,22.328 -3.246,33.638c0.43,11.483 16.903,5.75 19.513,-1.581c14.947,-41.991 7.129,-86.842 12.248,-130.242c1.095,-9.296 -11.436,-5.704 -12.936,1.044Z" style="fill:#010101;fill-rule:nonzero;"/><path d="M53.101,277.004c-9.391,4.635 -11.601,19.022 -13.528,28.118c-1.295,6.112 -2.26,12.515 -2.764,18.743c-0.327,4.056 -0.719,10.19 1.957,13.694c1.084,1.422 3.636,1.172 4.943,0.265c9.502,-6.6 10.213,-19.334 11.252,-29.794c0.532,-5.352 0.797,-10.715 1.608,-16.036c0.643,-4.212 2.13,-8.71 2.056,-12.974c-0.053,-3.067 -3.538,-2.997 -5.524,-2.016Z" style="fill:#010101;fill-rule:nonzero;"/><path d="M295.559,37.432c0.329,0.883 -0.455,0.992 0.729,-0.203c1.648,-1.667 3.513,-3.123 5.347,-4.577c3.239,-2.567 6.684,-4.949 9.639,-7.851c3.167,-3.11 5.304,-9.754 -0.705,-11.164c-15.9,-3.729 -30.98,8.441 -37.18,22.248c-3.45,7.686 4.06,12.438 10.726,8.612c11.14,-6.392 20.885,-16.191 24.273,-28.849c0.865,-3.229 -1.082,-7.815 -4.885,-7.995c-17.723,-0.837 -27.418,16.637 -33.046,31.058c-2.237,5.735 0.017,11.532 6.88,11.254c15.297,-0.621 29.751,-15.643 32.008,-30.395c0.86,-5.623 -2.403,-8.825 -7.861,-8.958c-16.46,-0.399 -24.758,20.08 -28.694,32.862c-2.318,7.527 -3.484,15.26 -4.143,23.088c-0.458,5.449 -0.698,12.412 2.025,17.354c3.362,6.103 10.622,4.827 15.295,0.813c15.999,-13.746 26.085,-34.391 32.403,-54.162c1.266,-3.959 -1.459,-8.133 -5.418,-8.867c-5.527,-1.024 -11.465,3.063 -13.683,7.975c-9.784,21.665 -26.418,44.234 -19.572,69.227c2.297,8.387 14.141,2.852 17.321,-1.403c13.104,-17.525 18.657,-39.126 31.045,-56.976c-5.609,-1.951 -11.218,-3.902 -16.826,-5.854c-9.29,21.795 -19.737,43.014 -21.264,67.047c-0.576,9.065 12.004,7.033 16.118,3.155c15.593,-14.694 23.31,-35.121 30.653,-54.751c1.754,-4.685 1.279,-10.563 -4.677,-11.666c-5.661,-1.05 -11.767,3.139 -14.03,8.178c-9.281,20.655 -18.604,41.818 -20.932,64.577c-0.546,5.341 2.201,9.736 8.123,9.257c5.928,-0.48 11.009,-5.286 12.447,-10.923c3.116,-12.216 6.74,-24.384 7.871,-36.989c-6.841,1.382 -13.683,2.764 -20.523,4.146c-1.039,15.666 -3.881,32.404 -10.016,46.926c-1.967,4.656 -1.127,10.624 4.691,11.703c5.703,1.057 11.771,-3.158 14.074,-8.203c1.964,-4.302 2.82,-8.432 3.136,-13.122c0.302,-4.491 -4.509,-7.048 -8.353,-6.737c-5.606,0.455 -11.481,5.277 -12.471,10.944c-0.139,0.795 -0.314,1.576 -0.514,2.358c-0.141,0.548 -1.175,3.635 -0.24,0.964c-0.803,2.294 -1.783,4.525 -2.801,6.731c-1.17,2.535 -2.486,5.001 -3.858,7.432c-1.067,1.891 -2.224,3.656 -4.461,6.73c-0.856,1.177 -1.767,2.311 -2.688,3.436c-0.456,0.547 -0.92,1.086 -1.395,1.618c0.993,-1.036 1.004,-1.055 0.033,-0.056c-0.931,0.949 -1.927,1.829 -2.938,2.69c-0.488,0.406 -0.987,0.799 -1.497,1.177c1.35,-0.957 1.46,-1.068 0.331,-0.334c-2.757,1.721 0.586,-0.028 -1.086,0.559c-1.742,0.611 1.926,-0.049 -1.065,0.139c-1.541,0.096 1.505,0.326 -1.202,-0.244c1.787,0.377 -1.492,-0.848 -2.252,-1.358c-9.452,-6.369 -23.959,10.83 -14.125,18.646c14.303,11.371 32.095,-3.24 41.221,-14.176c8.555,-10.253 16.922,-24.595 19.146,-37.982c-6.941,1.402 -13.883,2.805 -20.823,4.207c-0.062,1.071 -0.432,1.909 -0.864,2.878c6.255,1.167 12.511,2.333 18.766,3.5c7.406,-17.973 10.519,-37.789 11.984,-57.074c0.337,-4.426 -4.474,-6.944 -8.232,-6.64c-5.215,0.423 -11.736,5.213 -12.291,10.786c-1.256,12.623 -5.06,24.754 -8.129,37.011c6.857,-0.556 13.713,-1.11 20.57,-1.666c2.063,-21.142 10.438,-40.265 19.068,-59.423c-6.235,-1.162 -12.472,-2.326 -18.707,-3.488c-3.088,8.226 -6.2,16.436 -9.895,24.412c-3.424,7.395 -8.317,15.9 -13.452,20.837c5.373,1.052 10.746,2.104 16.118,3.155c1.045,-20.181 11.041,-38.701 18.736,-56.953c1.559,-3.693 1.657,-8.469 -2.377,-10.653c-4.869,-2.637 -11.567,0.614 -14.449,4.8c-12.331,17.91 -17.932,39.624 -30.955,57.024c5.773,-0.468 11.548,-0.937 17.321,-1.403c-2.456,-8.995 1.037,-18.477 4.591,-26.672c4.156,-9.586 9.532,-18.585 13.837,-28.102c-6.367,-0.298 -12.733,-0.596 -19.101,-0.893c-4.579,14.297 -12.634,30.405 -23.597,39.838c5.099,0.271 10.196,0.542 15.295,0.813c-0.333,-0.603 -0.585,-1.211 -0.808,-1.861c-0.797,-2.327 0.062,0.857 -0.189,-0.827c-0.359,-2.41 -0.336,-4.879 -0.264,-7.307c0.086,-2.829 0.175,-3.104 0.631,-6.341c0.445,-3.175 1.094,-6.318 1.832,-9.437c1.428,-6.03 2.435,-9.156 5.373,-14.874c0.281,-0.534 0.572,-1.062 0.876,-1.582c-0.727,1.178 -0.761,1.261 -0.102,0.251c0.306,-0.445 0.623,-0.88 0.954,-1.305c1.633,-2.161 -1.895,1.796 -0.07,-0.003c2.261,-2.228 -1.369,0.704 0.185,-0.179c-0.813,0.463 -3.35,0.719 -1.229,0.769c-2.621,-2.986 -5.24,-5.972 -7.861,-8.958c-0.756,4.968 -4.236,9.367 -7.992,9.605c2.293,3.752 4.586,7.503 6.88,11.254c1.524,-4.168 3.216,-8.275 5.228,-12.234c1.014,-1.994 1.654,-2.858 3.202,-4.763c-1.228,1.511 1.707,-1.171 -0.161,0.09c1.785,-1.204 -1.195,-0.008 0.906,0.067c-2.369,-2.699 -4.737,-5.398 -7.105,-8.098c-1.474,5.757 -6.853,10.178 -11.727,13.151c3.575,2.871 7.15,5.741 10.726,8.612c2.441,-5.877 7.841,-12.107 14.82,-11.752c-0.716,-3.206 -1.432,-6.412 -2.147,-9.618c-4.592,6.112 -22.078,16.243 -16.844,25.823c3.114,5.699 12.341,-0.507 10.338,-5.886Z" style="fill:#010101;fill-rule:nonzero;"/><path d="M313.949,16.36c-0.301,-0.201 -3.183,-1.432 -1.731,-0.81c0.736,1.851 1.473,3.701 2.21,5.553c0.021,-0.135 0.04,-0.268 0.061,-0.402c-1.009,1.64 -2.019,3.279 -3.027,4.919c0.265,-0.28 0.528,-0.562 0.793,-0.842c-2.341,0.769 -4.683,1.537 -7.023,2.306c8.818,1.19 16.717,5.688 24.213,10.24c8.101,4.92 15.647,11.105 21.366,18.706c5.055,-4.436 10.109,-8.871 15.164,-13.307c-12.659,-13.102 -28.141,-23.042 -40.546,-36.399c-4.797,5.147 -9.594,10.295 -14.392,15.441c27.664,19.045 54.689,39.883 74.769,67.146c5.126,-5.5 10.251,-10.999 15.378,-16.499c-23.813,-16.159 -36.84,-44.681 -63.363,-57.521c-6.271,-3.036 -14.892,2.665 -15.926,9.254c-3.213,20.471 10.195,40.576 21.37,56.469c11.747,16.707 25.396,32.527 40.258,46.546c8.501,8.019 25.094,-6.258 17.74,-15.568c-21.858,-27.677 -41.591,-56.946 -63.312,-84.727c-2.752,-3.521 -8.352,-2.517 -11.669,-0.623c-4.217,2.405 -6.948,6.556 -7.099,11.407c-0.283,9.119 4.23,17.925 8.714,25.571c5.534,9.439 12.043,18.246 18.524,27.046c6.809,9.244 12.655,19.135 19.09,28.647c7.914,11.702 15.821,23.358 21.935,36.131c6.229,-4.446 12.459,-8.894 18.688,-13.341c-23.173,-27.713 -38.283,-61.5 -63.393,-87.655c-6.691,-6.972 -18.758,2.474 -18.309,10.521c0.939,16.88 8.561,32.816 17.092,47.094c8.953,14.986 19.486,29.277 32.039,41.46c7.438,7.216 23.31,-4.093 18.872,-13.472c-12.981,-27.438 -28.721,-54.635 -48.608,-77.679c-6.766,-7.84 -18.336,3.134 -18.498,10.63c-0.249,11.461 4.593,22.28 9.862,32.189c5.739,10.792 12.833,20.783 19.38,31.082c12.15,19.113 24.77,43.151 45.76,53.822c8.691,4.418 19.855,-6.255 17.219,-15.11c-5.51,-18.504 -21.253,-34.444 -34.678,-47.651c-6.016,-5.919 -17.489,0.695 -18.391,8.244c-1.833,15.365 9.038,29.02 19.067,39.479c10.497,10.948 23.552,21.869 38.225,26.516c8.042,2.547 19.567,-10.258 13.265,-17.386c-9.062,-10.248 -19.328,-20.484 -31.857,-26.373c-8.729,-4.103 -18.623,5.868 -16.557,14.528c2.34,9.797 10.471,17.308 17.911,23.5c7.915,6.587 16.542,12.156 25.083,17.874c8.507,5.693 21.039,-8.388 15.339,-16.458c-26.48,-37.486 -56.407,-72.826 -78.719,-113.096c-6.167,4.402 -12.334,8.805 -18.501,13.207c23.84,31.343 45.784,66.054 79.559,87.772c7.443,4.787 21.836,-7.017 17.305,-15.187c-18.743,-33.794 -43.921,-63.429 -62.852,-97.085c-6.904,3.937 -13.811,7.872 -20.715,11.809c15.911,28.281 35.02,57.237 60.24,78.096c8.709,7.203 22.363,-3.615 19.49,-13.912c-8.805,-31.55 -35.347,-53.824 -47.08,-83.954c-6.447,4.602 -12.893,9.203 -19.339,13.805c21.036,27.983 44.139,54.433 62.978,84.02c2.518,3.954 9.164,2.485 12.364,0.66c4.136,-2.36 9.877,-9.271 7.021,-14.499c-14.738,-26.985 -39.283,-49.533 -46.971,-80.017c-6.479,4.626 -12.96,9.252 -19.44,13.878c25.651,21.942 38.983,54.436 53.678,83.956c6.523,-4.656 13.047,-9.313 19.57,-13.97c-11.857,-12.206 -18.348,-28.18 -28.054,-41.953c-2.723,-3.863 -9.044,-2.582 -12.408,-0.663c-3.908,2.23 -8.209,7.236 -7.548,12.13c3.703,27.403 21.631,49.439 29.319,75.525c5.954,-5.225 11.906,-10.448 17.859,-15.673c-9.886,-5.367 -15.944,-15.665 -25.999,-21.001c-8.505,-4.514 -21.389,6.583 -17.861,15.674c5.099,13.144 14.724,24.614 26.256,32.605c7.566,5.244 22.286,-7.344 17.757,-15.582c-4.216,-7.67 -10.46,-12.685 -18.179,-16.662c-7.996,-4.119 -18.809,4.764 -18.304,13.161c0.747,12.431 12.329,21.992 24.064,23.956c6.013,1.007 12.405,-3.24 14.827,-8.641c0.218,-0.487 2.23,-3.718 0.402,-1.365c-5.203,1.729 -10.405,3.457 -15.607,5.186c3.07,1.429 7.469,2.223 10.05,4.472c8.132,7.087 24.227,-3.89 19.818,-14.147c-7.139,-16.613 -11.755,-34.345 -20.939,-50.035c-6.657,-11.375 -25.707,1.05 -21.217,12.094c4.524,11.129 10.417,22.004 18.274,31.144c7.318,8.511 24.568,-4.759 19.953,-14.243c-3.682,-7.566 -8.337,-15.16 -14.817,-20.641c-6.541,-5.532 -13.975,-9.244 -20.916,-14.076c-7.667,-5.337 -20.493,9.468 -11.771,15.539c5.413,3.768 10.354,9.409 14.584,14.424c4.486,5.319 8.671,10.548 11.683,16.859c6.65,-4.748 13.302,-9.496 19.953,-14.243c-6.798,-8.032 -11.75,-17.147 -15.726,-26.856c-7.072,4.031 -14.145,8.063 -21.217,12.094c9.221,15.662 13.881,33.376 21.061,49.965c6.606,-4.715 13.212,-9.432 19.818,-14.147c-4.288,-3.718 -8.901,-5.194 -13.95,-7.528c-5.668,-2.621 -12.041,0.578 -15.607,5.186c-1.615,2.087 -2.545,4.275 -3.598,6.635c4.942,-2.88 9.885,-5.761 14.827,-8.641c-4.854,-0.801 -11.612,-4.875 -11.936,-10.044c-6.102,4.387 -12.202,8.773 -18.304,13.161c4.365,2.234 9.344,4.859 11.821,9.338c5.919,-5.193 11.838,-10.388 17.757,-15.582c-8.772,-6.046 -15.96,-15.475 -19.744,-25.394c-5.953,5.224 -11.907,10.449 -17.861,15.673c9.924,5.34 15.903,15.689 26.001,20.999c8.927,4.693 20.673,-6.571 17.859,-15.672c-7.464,-24.144 -25.338,-45.043 -28.681,-70.475c-6.652,3.822 -13.304,7.645 -19.956,11.467c9.661,13.822 16.046,29.836 27.946,42.047c7.526,7.724 24.326,-4.452 19.57,-13.97c-15.375,-30.769 -29.543,-65.209 -56.322,-88.044c-8.756,-7.467 -22.01,3.756 -19.44,13.878c7.789,30.694 32.22,52.903 47.029,79.983c6.462,-4.613 12.924,-9.226 19.386,-13.839c-18.855,-29.575 -41.972,-56.009 -63.022,-83.98c-2.834,-3.767 -8.888,-2.625 -12.334,-0.659c-4.653,2.656 -9.188,8.857 -7.003,14.464c11.735,30.127 38.203,52.589 46.918,84.046c6.498,-4.638 12.993,-9.275 19.49,-13.912c-23.906,-19.85 -42.611,-47.013 -57.76,-73.904c-2.943,-5.226 -8.672,-5.597 -13.666,-2.748c-4.1,2.339 -9.98,9.351 -7.049,14.557c18.96,33.665 44.001,63.388 63.148,96.915c5.768,-5.063 11.536,-10.124 17.305,-15.187c-32.514,-20.34 -53.841,-54.212 -76.441,-84.228c-6.236,-8.284 -23.156,4.708 -18.501,13.207c22.933,41.864 53.549,78.285 81.281,116.904c5.113,-5.486 10.226,-10.972 15.339,-16.458c-7.308,-4.811 -14.823,-9.405 -21.667,-14.876c-6.405,-5.12 -13.453,-11.444 -15.339,-19.75c-5.52,4.843 -11.037,9.686 -16.557,14.528c11.16,5.4 19.924,14.55 28.143,23.627c4.421,-5.795 8.843,-11.59 13.265,-17.385c-0.946,-0.297 -0.911,-0.277 0.104,0.061c-0.508,-0.193 -1.01,-0.396 -1.509,-0.611c-1.097,-0.457 -2.161,-0.992 -3.222,-1.529c-2.773,-1.403 -5.413,-3.066 -8.002,-4.779c-5.805,-3.841 -11.109,-8.329 -16.126,-13.144c-5.189,-4.98 -9.948,-10.458 -13.892,-16.479c-1.302,-1.987 -2.445,-4.653 -3.32,-7.171c-0.642,-1.851 -0.384,-0.954 -0.556,-2.037c-0.116,-0.729 0.105,-4.44 -0.187,-2.315c-6.131,2.748 -12.261,5.496 -18.391,8.244c12.148,12.459 26.567,27.129 31.322,44.349c5.74,-5.036 11.479,-10.073 17.219,-15.11c-18.849,-10.067 -29.714,-31.274 -41.497,-48.194c-5.964,-8.563 -11.995,-17.263 -17.322,-26.236c-5.454,-9.188 -10.567,-19.541 -10.179,-30.476c-6.166,3.544 -12.332,7.087 -18.498,10.63c18.697,22.364 32.602,48.265 45.392,74.321c6.29,-4.49 12.581,-8.98 18.872,-13.472c-11.448,-10.788 -21.279,-23.333 -29.828,-36.507c-8.15,-12.559 -16.353,-27.673 -17.04,-42.939c-6.104,3.507 -12.206,7.014 -18.31,10.521c24.858,26.511 39.136,60.769 62.607,88.345c6.816,8.007 23.025,-4.479 18.688,-13.341c-6.098,-12.461 -13.75,-24.047 -21.595,-35.46c-6.852,-9.97 -13.129,-20.434 -20.326,-30.141c-5.937,-8.006 -11.971,-15.904 -17.279,-24.352c-4.294,-6.832 -8.826,-15.045 -8.537,-22.652c-6.256,3.596 -12.512,7.189 -18.768,10.784c21.518,27.967 41.033,57.409 62.688,85.273c5.913,-5.189 11.827,-10.379 17.74,-15.568c-13.88,-13.298 -26.999,-27.472 -38.697,-42.735c-6.083,-7.938 -11.747,-16.228 -16.199,-25.197c-2.02,-4.07 -3.693,-8.313 -4.889,-12.697c-0.256,-0.94 -0.503,-2.332 -0.689,-4.121c-0.089,-0.846 -0.106,-1.695 -0.112,-2.545c0.037,-1.063 0.027,-1.103 -0.029,-0.119c0.063,-0.527 0.144,-1.05 0.244,-1.57c-5.309,3.085 -10.617,6.17 -15.926,9.254c25.969,13.184 38.499,42.635 62.637,58.479c8.404,5.516 21.487,-8.469 15.378,-16.499c-21.326,-28.031 -50.23,-49.377 -79.231,-68.854c-7.482,-5.025 -21.066,8.421 -14.392,15.441c12.595,13.246 28.161,23.123 41.454,35.601c7.257,6.813 21.659,-5.5 15.164,-13.307c-8.143,-9.789 -19.386,-17.267 -30.748,-22.799c-8.885,-4.326 -33.785,-13.284 -34.611,3.969c-0.114,2.378 1.868,3.79 3.854,4.392c0.478,0.149 0.6,0.186 0.366,0.108c6.42,3.294 16.005,-7.431 9.12,-12.036Z" style="fill:#010101;fill-rule:nonzero;"/><path d="M427.121,301.966c-6.813,23.602 -6.24,48.339 -11.506,72.203c6.585,-1.33 13.171,-2.661 19.756,-3.991c0.149,-16.026 2.585,-31.937 2.893,-47.966c0.081,-4.213 -4.077,-6.627 -7.839,-6.322c-5.555,0.45 -10.378,4.968 -11.704,10.271c-6.186,24.729 -10.653,49.796 -13.896,75.073c7.117,-1.438 14.235,-2.876 21.353,-4.314c-1.681,-10.274 -0.132,-20.751 -1.974,-31.008c-2.05,-11.408 -17.299,-6.856 -20.495,1.66c-5.592,14.898 -9.896,30.391 -14.245,45.69c7.361,-1.486 14.722,-2.973 22.082,-4.461c0.104,-3.242 1.318,-5.394 3.229,-7.893c-6.13,-2.133 -12.259,-4.265 -18.389,-6.396c-3.254,6.296 -7.431,11.641 -13.123,15.883c-7.334,5.466 -6.728,17.865 3.821,17.746c10.663,-0.119 21.793,-2.911 32.271,-0.081c11.328,3.06 24.008,-17.096 10.07,-21.365c2.887,0.885 -0.55,-0.905 1.698,0.947c-0.509,-0.419 -0.906,-0.966 -1.299,-1.489c1.443,1.924 0.171,0.16 -0.095,-0.44c-0.455,-1.027 -0.755,-2.122 -1.049,-3.202c-0.775,-2.84 0.285,1.894 -0.225,-1.179c-0.224,-1.347 -0.354,-2.709 -0.48,-4.067c-0.238,-2.555 -0.299,-5.125 -0.331,-7.688c-0.11,-8.951 0.936,-17.858 0.971,-26.798c-7.483,2.399 -14.968,4.798 -22.451,7.197c-0.035,16.78 -3.421,39.558 9.95,52.54c6.613,6.421 19.113,-0.719 20.113,-9.017c3.235,-26.831 7.073,-53.642 8.226,-80.669c-7.205,3.188 -14.411,6.375 -21.616,9.562c1.289,6.14 0.988,12.712 0.989,18.945c0.001,7.513 0.464,14.689 2.016,22.052c0.733,3.483 5.272,4.859 8.271,4.616c4.801,-0.389 10.523,-4.086 12.181,-8.781c7.067,-20.023 3.261,-40.688 3.118,-61.38c-7.348,2.355 -14.695,4.711 -22.043,7.066c0.994,6.175 3.295,10.766 9.502,12.81c5.182,1.706 10.834,-0.622 15.463,-2.804c8.712,-4.105 17.813,-12.957 21.913,-21.701c2.1,-4.477 1.188,-11.687 -4.929,-12.293c-8.609,-0.854 -16.268,1.526 -24.663,2.885c0.362,6.444 0.725,12.889 1.087,19.333c2.589,-1.516 4.951,-3.292 7.049,-5.427c1.46,-1.487 2.842,-3.047 4.187,-4.637c-0.159,0.188 2.946,-3.457 1.428,-1.846c4.584,-4.861 8.468,-15.166 -1.093,-17.296c-7.846,-1.748 -14.973,0.679 -21.31,5.262c-6.415,4.64 -8.612,14.961 -2.219,20.383c12.149,10.301 27.358,0.547 38.951,-5.458c-4.774,-1.742 -9.548,-3.484 -14.321,-5.227c-0.002,3.507 -0.03,6.913 -0.771,10.353c-0.939,4.354 1.25,8.701 5.836,9.551c6.403,1.188 11.744,-3.506 14.737,-8.59c5.757,-9.775 10.232,-20.227 15.989,-30.002c-6.851,-0.32 -13.7,-0.641 -20.551,-0.96c-1.194,7.222 -3.921,14.008 -5.992,21c-0.962,3.246 0.476,7.094 3.469,8.714c4.411,2.389 9.745,0.174 13.251,-2.756c19.606,-16.387 23.841,-46.274 23.937,-70.331c0.019,-4.661 -4.459,-7.341 -8.678,-6.999c-6.264,0.508 -11.33,5.513 -12.955,11.369c-4.867,17.535 -1.614,35.599 -3.392,53.408c-2.131,21.346 -5.542,42.804 -5.967,64.271c7.376,-2.365 14.751,-4.729 22.127,-7.094c-0.027,-20.957 0.795,-41.905 0.573,-62.863c-0.048,-4.533 -4.289,-7.148 -8.446,-6.813c-5.874,0.477 -11.331,5.344 -12.61,11.066c-6.813,30.482 -17.213,60.01 -21.569,91.047c7.229,-2.33 14.459,-4.66 21.688,-6.989c-8.088,-21.78 -0.672,-46.976 -0.557,-69.474c0.018,-3.538 -2.809,-6.391 -6.153,-7.012c-5.223,-0.969 -10.188,2.193 -13.351,6.064c-10.527,12.89 -15.583,29.929 -18.902,45.957c-3.32,16.035 -4.898,32.895 -4.301,49.27c0.18,4.92 4.566,7.78 9.184,7.406c6.057,-0.49 12.767,-5.801 13.709,-12.031c4.012,-26.493 1.23,-53.121 1.112,-79.75c-0.058,-13.004 -18.681,-5.995 -21.686,1.758c-10.935,28.213 -10.858,60.181 -5.269,89.602c2.852,15.012 23.163,4.287 23.027,-7.383c-0.102,-8.85 -1.719,-18.016 -7.888,-24.756c-3.242,-3.542 -9.354,-3.275 -13.124,-0.701c-8.746,5.975 -13.976,14.086 -17.225,24.058c-2.447,7.509 -1.889,19.707 6.654,23.312c7.589,3.203 16.652,0.874 24.341,-0.718c6.153,-1.274 12.421,-2.87 18.288,-5.152c5.004,-1.946 9.416,-5.788 10.587,-11.254c0.899,-4.198 -1.214,-9.44 -6.053,-9.905c-11.709,-1.126 -23.42,-0.082 -34.653,3.498c-8.051,2.565 -17.228,18.167 -4.517,21.078c20.655,4.73 43.653,-2.879 59.234,-16.749c3.914,-3.484 7.5,-10.616 3.278,-15.301c-9.713,-10.779 -16.097,-23.743 -17.191,-38.323c-0.462,-6.147 -6.494,-8.32 -11.801,-6.624c-5.937,1.898 -10.676,7.505 -10.691,13.835c-0.037,15.153 -0.928,30.245 -2.771,45.287c-0.554,4.516 0.976,8.861 5.981,9.789c6.578,1.22 12.02,-3.6 15.105,-8.804c3.902,-6.577 5.848,-14.694 6.563,-22.253c0.721,-7.62 0.766,-17.147 -5.205,-22.898c-6.686,-6.439 -15.791,0.107 -19.498,6.396c-6.412,10.876 -9.534,30.443 0.643,40.151c4.791,4.57 10.951,2.172 15.58,-1.263c22.02,-16.339 20.139,-48.286 20.094,-72.616c-7.498,2.404 -14.994,4.807 -22.492,7.211c1.34,16.168 3.403,31.957 7.16,47.738c1.136,4.772 2.693,10.857 6.513,14.234c7.648,6.764 17.399,1.197 22.837,-5.561c9.002,-11.187 8.659,-27.78 7.714,-41.273c-0.964,-13.767 -3.89,-27.443 -4.005,-41.262c-0.051,-6.082 -6.637,-8.022 -11.514,-6.463c-5.773,1.846 -10.441,7.326 -10.432,13.498c0.039,22.752 -2.464,48.981 9.528,69.436c6.521,11.121 20.86,0.266 21.395,-9.463c0.923,-16.813 -1.847,-33.553 -4.937,-50.021c-2.7,-14.385 -22.117,-4.077 -22.027,7.061c0.197,24.319 6.797,47.947 8.593,72.131c4.591,-4.879 9.182,-9.758 13.772,-14.637c-9.281,1.749 -18.54,3.684 -27.923,4.817c-8.493,1.027 -18.033,1.701 -24.792,-1.922c-10.768,-5.772 -27.302,13.713 -15.273,20.16c9.83,5.27 21.633,5.221 32.461,4.307c11.408,-0.962 22.573,-3.6 33.738,-5.998c5.615,-1.205 11.465,-8.17 10.858,-14.05c-2.486,-24.094 -9.26,-47.511 -9.407,-71.869c-7.343,2.354 -14.685,4.707 -22.027,7.061c3.057,16.478 5.938,33.157 5.063,49.979c7.132,-3.154 14.263,-6.309 21.395,-9.463c-11.3,-19.128 -8.591,-43.283 -8.472,-64.564c-7.315,2.345 -14.63,4.69 -21.945,7.035c0.174,20.788 7.753,43.135 2.873,63.307c-0.816,3.378 0.791,-1.71 -0.434,1.375c-0.104,0.263 -1.969,3.351 -0.898,1.795c2.392,-3.481 8.813,-5.12 12.055,-2.227c-0.377,-0.336 -1.338,-2.164 -0.445,-0.472c-1.984,-3.767 -2.816,-8.251 -3.704,-12.374c-2.46,-11.42 -4.147,-26.478 -5.228,-39.527c-0.509,-6.137 -6.459,-8.332 -11.801,-6.624c-5.916,1.892 -10.703,7.509 -10.691,13.835c0.018,9.508 0.373,19.521 -0.648,28.608c-0.287,2.558 -0.721,5.095 -1.228,7.618c-0.247,1.234 -0.561,2.454 -0.876,3.671c-0.543,2.092 -0.478,1.736 -0.978,3.027c-0.427,1.104 -0.942,2.171 -1.463,3.233c-1.615,3.305 1.288,-1.73 -0.724,1.273c-0.629,0.939 -1.361,1.802 -2.096,2.658c1.864,-2.176 -1.396,0.924 -1.895,1.294c5.193,-0.421 10.387,-0.842 15.58,-1.263c-2.381,-2.271 -2.721,-4.758 -2.703,-8.943c0.017,-4.241 1.292,-7.421 3.346,-10.905c-6.499,2.132 -12.998,4.264 -19.498,6.396c0.299,0.287 1.676,2.249 0.731,0.535c0.216,0.392 1.104,3.418 0.883,2.195c0.489,2.708 0.388,5.877 0.149,7.876c-0.342,2.86 -1.002,5.677 -1.777,8.446c-0.418,1.332 -0.461,1.498 -0.131,0.5c-0.246,0.666 -0.51,1.326 -0.791,1.979c-0.48,1.151 -1.072,2.246 -1.707,3.317c7.029,0.328 14.058,0.657 21.087,0.985c2.062,-16.83 3.187,-33.756 3.229,-50.713c-7.498,2.404 -14.994,4.807 -22.492,7.211c1.346,17.906 8.875,34.344 20.809,47.677c1.093,-5.101 2.186,-10.2 3.278,-15.301c-4.425,3.921 -9.69,6.684 -16.17,8.661c-6.721,2.051 -13.776,2.174 -20.596,0.59c-1.505,7.026 -3.011,14.053 -4.517,21.078c7.495,-2.366 15.512,-3.277 23.347,-2.502c1.511,-7.053 3.022,-14.106 4.534,-21.159c-8.826,3.407 -17.011,5.34 -25.286,6.021c-0.918,0.076 -1.837,0.083 -2.757,0.08c2.983,0.01 -2.168,-1.183 1.184,0.245c1.379,0.587 -0.133,-1.098 0.517,0.323c-0.351,-1.099 -0.39,-1.188 -0.118,-0.267c-0.064,-0.695 -0.081,-1.393 -0.05,-2.091c-0.019,1.862 0.472,-1.727 0.47,-1.72c0.322,-1.373 0.205,-0.813 1.161,-2.864c0.72,-1.298 0.762,-1.445 0.126,-0.444c0.425,-0.661 0.877,-1.303 1.355,-1.927c0.994,-1.19 0.955,-1.186 -0.117,0.015c1.162,-0.986 1.021,-0.944 -0.426,0.129c-4.373,-0.234 -8.748,-0.468 -13.123,-0.701c3.837,4.221 4.064,9.778 4.111,15.244c7.676,-2.461 15.352,-4.922 23.027,-7.383c-4.732,-25.344 -6.855,-53.87 2.731,-78.398c-7.229,0.586 -14.457,1.172 -21.686,1.758c0.03,24.706 2.906,49.693 -0.888,74.25c7.631,-1.542 15.262,-3.084 22.893,-4.625c-0.508,-14.182 0.477,-28.256 2.961,-42.23c1.194,-6.717 2.975,-14.369 5.059,-20.184c1.15,-3.212 2.562,-6.333 4.101,-9.376c0.195,-0.388 2.503,-4.29 1.364,-2.494c0.998,-1.573 2.132,-3.052 3.313,-4.489c-6.501,-0.316 -13.002,-0.632 -19.504,-0.947c-0.198,24.479 -7.794,50.841 1.443,74.526c4.24,10.87 20.629,1.437 21.688,-6.989c3.878,-30.851 12.987,-60.84 20.431,-90.953c-7.019,1.418 -14.037,2.836 -21.057,4.254c-0.281,21.049 -1.338,42.084 -1.427,63.137c-0.026,6.146 6.749,8.07 11.608,6.517c5.797,-1.853 10.564,-7.393 10.519,-13.61c-0.068,-9.466 0.745,-18.868 1.717,-28.275c1.052,-10.176 1.646,-20.397 2.653,-30.565c1.764,-17.802 -0.58,-36.071 4.271,-53.479c-7.211,1.457 -14.422,2.914 -21.633,4.37c-0.045,9.413 -1.052,18.323 -3.176,27.623c-1.167,5.112 -2.496,9.058 -4.688,13.715c-1.36,2.893 -1.349,2.739 -2.852,4.838c-0.139,0.193 -2.651,3.142 -0.814,1.196c-0.784,0.83 -1.659,1.566 -2.534,2.297c5.573,1.986 11.146,3.973 16.72,5.959c2.076,-6.992 4.809,-13.777 6.008,-21.001c0.728,-4.38 -1.091,-8.661 -5.829,-9.54c-6.399,-1.187 -11.728,3.503 -14.722,8.58c-5.764,9.773 -10.247,20.225 -16.011,29.998c6.857,0.32 13.716,0.641 20.573,0.961c1.106,-5.113 1.222,-10.432 1.229,-15.647c0.011,-7.904 -9.291,-7.828 -14.321,-5.227c-3.308,1.71 -6.489,3.639 -9.841,5.271c-0.271,0.133 -2.49,0.848 -3.436,0.965c0.462,0.34 0.096,0.309 -1.1,-0.094c-2.939,-0.476 6.872,-6.816 -0.428,5.751c-1.276,1.672 -2.553,3.344 -3.828,5.016c1.863,-1.948 -1.121,0.833 -2.439,1.06c1.36,-0.234 1.17,-0.076 2.494,0.22c-0.364,-5.765 -0.729,-11.53 -1.093,-17.296c-1.698,1.799 -3.38,3.598 -4.963,5.499c-0.624,0.765 -1.257,1.521 -1.899,2.27c0.862,-1.018 -2.054,1.245 -0.475,0.322c-4.23,2.474 -7.92,7.146 -7.646,12.288c0.233,4.407 4.308,7.758 8.733,7.045c6.149,-0.991 13.041,-3.744 19.337,-3.115c-1.644,-4.098 -3.286,-8.195 -4.929,-12.293c-1.294,2.755 1.27,-1.738 -0.122,0.229c-0.668,0.943 -1.433,1.817 -2.193,2.686c2.25,-2.569 -0.738,0.635 -1.229,1.091c-0.999,0.928 -2.064,1.781 -3.14,2.62c2.5,-1.949 -0.837,0.448 -1.416,0.778c-1.883,1.075 1.98,-0.513 -1.127,0.377c0.866,-0.346 1.754,-0.416 2.662,-0.211c-1.04,-0.217 -0.848,-0.142 0.576,0.227c1.048,0.927 1.212,0.984 0.492,0.173c1.495,1.869 0.168,-0.955 0.375,0.337c-2.312,-14.487 -22.104,-4.007 -22.043,7.066c0.051,8.923 0.863,17.82 1.184,26.734c0.279,7.746 0.558,16.482 -2.065,23.886c6.817,-1.389 13.634,-2.777 20.451,-4.165c-1.284,-6.141 -0.983,-12.715 -0.984,-18.948c-0.001,-7.513 -0.465,-14.691 -2.011,-22.055c-0.991,-4.724 -7.541,-5.187 -11.098,-4.049c-6.024,1.926 -10.252,7.349 -10.519,13.61c-1.076,25.24 -4.754,50.275 -7.774,75.331c6.704,-3.006 13.408,-6.012 20.113,-9.017c-9.862,-9.575 -6.167,-30.055 -6.05,-43.46c0.055,-6.24 -6.868,-8.183 -11.778,-6.612c-5.965,1.906 -10.606,7.483 -10.673,13.81c-0.106,10.082 -1.344,20.083 -1.001,30.186c0.369,10.927 2.208,24.264 14.191,27.898c3.356,-7.122 6.714,-14.243 10.07,-21.365c-12.31,-3.288 -25.244,-0.233 -37.729,-0.081c1.273,5.915 2.547,11.831 3.821,17.746c9.023,-6.762 15.759,-16.17 20.877,-26.117c2.003,-3.891 1.593,-9.373 -2.599,-11.643c-5.488,-2.972 -12.41,0.811 -15.79,5.246c-5.521,7.246 -8.499,15.001 -8.771,24.107c-0.143,4.762 4.646,7.485 8.857,7.144c6.422,-0.521 11.526,-5.632 13.225,-11.604c3.834,-13.49 6.742,-27.171 11.755,-40.31c-6.832,0.554 -13.663,1.106 -20.495,1.66c1.779,10.272 0.085,20.738 2.026,30.992c2.368,12.51 20.298,5.752 21.353,-4.314c2.641,-25.196 6.509,-50.212 12.104,-74.927c-6.515,1.315 -13.028,2.632 -19.543,3.948c0.075,16.067 -3.022,31.953 -3.107,48.034c-0.022,4.257 4.076,6.703 7.925,6.392c5.484,-0.444 10.667,-5.012 11.831,-10.383c5.125,-23.648 1.897,-48.093 6.494,-71.796c0.734,-3.792 -1.82,-6.862 -5.742,-6.543c-4.275,0.343 -7.641,3.744 -8.788,7.717Z" style="fill:#010101;fill-rule:nonzero;"/><path d="M60.917,265.102c-4.994,13.58 10.482,24.588 21.394,28.201c5.018,1.662 10.502,2.692 15.785,2.909c3.122,0.128 6.721,1.149 9.954,0.571c-1.782,-0.635 -3.564,-1.271 -5.346,-1.905c0.014,0.015 0.026,0.03 0.04,0.045c-0.394,-1.825 -0.786,-3.651 -1.18,-5.478c0.19,-0.532 0.382,-1.065 0.572,-1.598c-1.198,3.265 -1.071,5.849 1.798,8.054c2.472,1.9 5.998,0.645 8.431,-0.507c3.46,-1.639 5.892,-5.68 5.878,-9.444c0,-0.044 -0.001,-0.088 -0.001,-0.132c-0.007,-1.949 -1.191,-3.836 -2.891,-4.756c-3.367,-1.822 -6.751,-0.47 -10.251,-0.177c-4.76,0.397 -5.457,0.229 -10.271,-0.257c-5.691,-0.574 -11.538,-1.809 -16.56,-4.635c-5.687,-3.199 -9.599,-7.782 -14.499,-11.828c-0.923,-0.762 -2.445,-0.17 -2.853,0.937Z" style="fill:#010101;fill-rule:nonzero;"/><path d="M419.369,297.906c3.883,4.307 12.296,4.586 17.717,5.018c6.974,0.556 14.005,-0.39 20.787,-1.96c6.259,-1.449 12.275,-4.398 17.562,-8.003c6.783,-4.627 14.978,-11.061 17.975,-18.93c2.411,-6.328 -3.389,-11.79 -9.454,-7.592c-5.522,3.822 -9.6,9.205 -14.921,13.317c-3.836,2.965 -8.507,4.634 -13.145,5.9c-10.829,2.957 -23.849,-0.321 -33.96,4.897c-2.296,1.185 -4.692,4.99 -2.561,7.353Z" style="fill:#010101;fill-rule:nonzero;"/><path d="M439.483,246.604c0.243,0.466 1.273,2.722 1.276,2.697c-0.073,0.671 -0.262,1.405 -0.399,2.071c-0.434,2.105 0.49,-1.027 -0.353,0.964c-0.914,2.161 0.92,-1.18 -0.379,0.753c-0.413,0.615 -0.899,1.18 -1.382,1.742c1.574,-1.837 0.17,-0.245 -0.217,0.105c-0.914,0.831 -1.793,1.695 -2.531,2.693c-1.973,2.668 -3.203,6.792 -0.739,9.6c2.448,2.79 6.732,2.149 9.615,0.514c9.595,-5.444 16.374,-27.17 -0.14,-27.305c-2.476,-0.019 -6.122,3.545 -4.751,6.166Z" style="fill:#010101;fill-rule:nonzero;"/><path d="M103.423,245.955c-1.639,-2.945 -4.892,-2.7 -7.766,-1.984c-3.755,0.935 -6.627,3.869 -8.484,7.111c-1.378,2.406 -1.773,5.674 -0.655,8.246c0.791,1.817 1.871,2.949 3.5,4.027c2.182,1.443 4.812,1.008 7.184,0.493c3.547,-0.769 7.608,-5.347 7.071,-9.149c-0.399,-2.826 -1.528,-4.355 -3.7,-6.07c0.846,0.709 1.019,0.808 0.521,0.294c0.846,1.478 0.716,1.282 -0.39,-0.589c0.589,1.111 0.761,1.351 0.514,0.717c0.306,0.776 0.369,1.573 0.188,2.39c-0.329,1.82 -0.51,1.345 -0.067,0.584c-1.271,2.187 -0.211,0.477 0.147,-0.013c1.106,-1.512 3.069,-4.024 1.937,-6.057Z" style="fill:#010101;fill-rule:nonzero;"/><path d="M194.947,16.323c-9.919,-4.55 -23.487,1.611 -32.59,5.862c-11.646,5.439 -22.678,12.935 -32.35,21.379c-20.761,18.125 -37.813,40.468 -52.142,63.894c-29.905,48.895 -48.325,104.083 -48.9,161.634c-0.145,14.537 0.27,29.073 -0.373,43.604c-0.297,6.722 -0.967,13.397 -2.023,20.041c-1.109,6.971 -3.694,13.719 -3.007,20.83c0.671,6.946 9.055,4.175 11.954,0.58c9.019,-11.181 9.53,-28.165 10.531,-41.947c1.055,-14.514 0.682,-29.104 0.695,-43.643c0.027,-28.731 4.078,-56.456 12.564,-83.923c8.076,-26.139 19.656,-51.289 33.934,-74.622c13.904,-22.724 30.374,-44.076 50.614,-61.5c7.391,-6.361 15.32,-12.11 23.752,-17.01c8.323,-4.836 17.071,-7.502 25.899,-10.99c1.245,-0.492 3.619,-3.19 1.442,-4.189Z" style="fill:#010101;fill-rule:nonzero;"/><path d="M83.725,134.478c-15.592,14.938 -24.413,34.044 -30.686,54.461c-3.153,10.265 -5.659,20.734 -7.782,31.257c-1.06,5.254 -1.965,10.51 -2.77,15.809c-0.664,4.377 -1.788,9.998 1.263,13.568c1.545,1.808 4.538,0.893 6.017,-0.488c6.812,-6.359 7.812,-18.354 9.499,-27.143c1.905,-9.922 3.845,-19.849 6.253,-29.662c4.635,-18.885 11.146,-38.461 22.158,-54.666c2.111,-3.106 -1.339,-5.641 -3.952,-3.136Z" style="fill:#010101;fill-rule:nonzero;"/><path d="M38.779,244.508c-1.194,3.936 -3.478,7.522 -4.755,11.486c-1.177,3.654 -1.619,7.68 -2.168,11.466c-1.209,8.335 -1.95,16.742 -2.834,25.115c-1.668,15.805 -3.619,31.713 -7.26,47.198c-1.664,7.079 -3.694,14.048 -6.33,20.826c-2.718,6.992 -6.526,13.387 -9.683,20.162c-5.669,12.17 -0.506,24.018 10.506,30.778c9.065,5.564 20.744,6.415 31.075,7.2c7.526,0.572 14.971,1.5 22.529,1.709c3.486,0.096 7.223,-3.098 8.644,-6.119c3.919,-8.331 -7.517,-10.75 -12.608,-11.325c-10.861,-1.226 -23.023,-1.041 -33.397,-4.83c-4.562,-1.666 -8.112,-4.164 -10.723,-8.277c-3.06,-4.822 1.552,-10.51 3.682,-14.774c9.73,-19.486 13.493,-40.795 15.414,-62.279c1.021,-11.411 1,-22.843 1.169,-34.289c0.083,-5.662 0.275,-11.317 0.541,-16.973c0.116,-2.456 0.161,-4.914 0.265,-7.369c0.138,-3.284 -1.216,-6.729 -0.842,-9.966c0.275,-2.382 -2.746,-1.319 -3.225,0.261Z" style="fill:#010101;fill-rule:nonzero;"/><path d="M2.077,394.667c-6.299,9.158 12.527,19.702 18.596,23.03c11.157,6.119 23.375,9.988 35.453,13.885c16.982,5.479 34.8,8.512 52.463,10.811c9.233,1.202 18.514,1.995 27.806,2.577c9.587,0.601 19.595,1.558 29.187,0.855c4.111,-0.301 7.959,-3.314 9.683,-6.98c1.65,-3.508 0.971,-9.427 -3.937,-9.817c-8.463,-0.674 -17.057,-0.287 -25.549,-0.594c-9.252,-0.334 -18.491,-1.065 -27.703,-1.968c-18.141,-1.776 -36.389,-4.665 -54.041,-9.257c-11.804,-3.071 -23.419,-6.497 -34.864,-10.729c-5.79,-2.142 -11.185,-5.28 -16.376,-8.569c-2.307,-1.463 -7.974,-7.233 -10.718,-3.244Z" style="fill:#010101;fill-rule:nonzero;"/></g></svg>