<?xml version="1.0" encoding="UTF-8" standalone="no"?><!DOCTYPE svg PUBLIC "-//W3C//DTD SVG 1.1//EN" "http://www.w3.org/Graphics/SVG/1.1/DTD/svg11.dtd"><svg width="100%" height="100%" viewBox="0 0 475 510" version="1.1" xmlns="http://www.w3.org/2000/svg" xmlns:xlink="http://www.w3.org/1999/xlink" xml:space="preserve" style="fill-rule:evenodd;clip-rule:evenodd;stroke-linejoin:round;stroke-miterlimit:1.41421;"><g id="farmer"><path d="M112.669,154.499c4.759,-14.155 22.664,-18.07 35.617,-20.394c17.086,-3.064 34.654,-3.528 51.972,-3.88c21.309,-0.434 42.637,-1.794 63.952,-1.166c24.499,0.721 50.162,4.214 71.318,17.41c2.064,1.287 3.923,2.807 5.699,4.462c0.752,0.701 1.434,1.468 2.104,2.245c0.531,0.803 0.693,0.986 0.483,0.551c1.321,3.604 3.122,1.04 5.405,-7.693c-3.236,1.322 -6.094,3.709 -6.862,7.295c-0.847,3.949 1.902,6.569 5.707,6.502c5.704,-0.101 11.886,-5.187 11.618,-11.227c-0.2,-4.539 -3.761,-7.941 -7.007,-10.692c-8.6,-7.286 -19.255,-11.715 -29.887,-15.122c-24.896,-7.979 -52.137,-7.224 -77.953,-6.369c-18.325,0.605 -36.697,1.246 -55.003,2.338c-18.203,1.084 -36.805,3.256 -54.174,9.052c-12.32,4.11 -29.155,12.593 -30.648,27.31c-0.58,5.729 6.431,3.03 7.659,-0.622Z" style="fill:#010101;fill-rule:nonzero;"/><path d="M131.201,155.249c-9.484,4.762 -13.626,15.137 -15.395,25.066c-2.017,11.324 -2.387,23.41 -1.603,34.858c1.454,21.252 8.718,41.673 22.153,58.308c31.493,38.99 89.472,47.256 134.546,30.45c19.532,-7.282 39.354,-19.111 52.411,-35.605c12.677,-16.015 19.166,-36.559 23.146,-56.306c2.658,-13.191 1.302,-27.589 -2.163,-40.496c-3.146,-11.726 -12.597,-28.324 -26.982,-22.004c-2.971,1.305 -6.683,5.696 -2.871,8.351c1.592,1.108 2.452,2.425 4.422,3.086c1.047,0.351 2.333,1.104 3.191,1.794c3.051,2.451 5.025,5.861 6.589,9.377c3.561,8.006 4.747,16.955 5.19,25.63c0.49,9.582 -1.293,18.144 -3.762,27.502c-3.254,12.325 -8.082,24.499 -15.424,34.979c-7.518,10.733 -18.748,18.133 -30.075,24.371c-11.521,6.345 -24.193,10.65 -37.14,12.904c-25.389,4.42 -51.828,0.037 -74.566,-11.989c-21.328,-11.28 -36.709,-30.072 -44.099,-52.958c-3.926,-12.156 -5.08,-24.482 -5.869,-37.156c-0.828,-13.296 -0.88,-28.688 9.111,-38.81c0.758,-0.767 0.296,-1.908 -0.81,-1.352Z" style="fill:#010101;fill-rule:nonzero;"/><path d="M104.565,166.29c-0.78,2.922 -2.161,5.6 -2.858,8.497c2.39,-1.389 4.779,-2.777 7.168,-4.166c-8.152,-6.208 -16.55,0.833 -20.701,7.991c-3.249,5.604 -3.692,12.844 -0.797,18.646c4.641,9.302 17.662,16.087 27.895,12.922c3.066,-0.948 5.936,-3.263 7.287,-6.177c1.5,-3.231 0.324,-7.688 -3.911,-7.344c-1.773,0.144 -3.32,1.096 -4.644,2.22c-1.413,1.2 -0.488,0.492 0.656,0.013c-0.431,0.18 -2.221,0.17 -4.248,-0.271c-4.842,-1.055 -9.259,-4.177 -12.056,-8.216c-1.276,-1.845 -1.64,-4.385 -1.308,-6.547c0.244,-1.596 0.938,-2.958 1.67,-4.376c1.191,-2.31 3.176,-1.437 5.31,-0.896c2.755,0.698 6.849,-2.595 6.318,-5.544c-0.458,-2.547 -1.132,-6.154 -3.151,-7.932c-0.974,-0.856 -2.348,0.119 -2.63,1.18Z" style="fill:#010101;fill-rule:nonzero;"/><path d="M338.767,169.469c6.395,-1.184 11.626,-3.888 18.23,-2.328c4.391,1.037 7.236,4.863 8.535,8.947c4.229,13.311 -11.095,21.224 -21.422,23.688c1.478,0.071 2.955,0.144 4.433,0.215c-0.233,-0.161 -0.467,-0.322 -0.7,-0.483c0.48,2.15 0.96,4.301 1.44,6.451c0.058,-0.124 0.115,-0.248 0.173,-0.371c-1.21,1.289 -2.42,2.579 -3.63,3.869c2.33,-1.406 4.079,-2.719 5.333,-5.214c1.59,-3.161 -0.34,-5.752 -3.601,-5.891c-3.28,-0.139 -6.542,1.408 -8.465,4.062c-1.229,1.696 -2.637,5.337 -0.544,7.065c5.061,4.181 13.121,-0.333 18.313,-2.803c5.076,-2.415 9.387,-6.004 13.135,-10.141c5.534,-6.107 8.71,-15.198 7.115,-23.385c-3.695,-18.962 -28.519,-20.794 -39.627,-6.899c-0.914,1.146 -0.686,3.582 1.282,3.218Z" style="fill:#010101;fill-rule:nonzero;"/><path d="M229.94,100.091c-30.604,1.281 -60.998,2.953 -91.66,2.293c-15.722,-0.339 -31.439,-0.823 -47.162,-1.126c-14.72,-0.285 -29.81,-0.994 -44.481,0.467c-18.327,1.822 -40.303,13.261 -37.413,34.803c2.479,18.479 17.331,27.426 32.046,35.615c10.288,5.725 20.851,10.979 31.509,15.976c3.612,1.694 7.298,3.682 11.122,4.858c1.298,0.4 2.434,0.736 3.801,0.777c-2.254,-0.067 0.114,0.074 0.446,0.041c1.979,-0.191 3.639,-1.315 4.862,-2.836c4.661,-5.793 -3.613,-9.063 -7.602,-4.107c-0.006,0.008 -0.012,0.016 -0.019,0.023c1.614,-0.938 3.229,-1.876 4.844,-2.813c1.063,-0.103 2.62,0.691 0.986,-0.116c-0.764,-0.377 -1.501,-0.785 -2.286,-1.119c-2.783,-1.182 -5.531,-2.449 -8.272,-3.724c-7.66,-3.559 -15.231,-7.313 -22.726,-11.208c-7.525,-3.912 -14.994,-7.986 -22.129,-12.579c-6.972,-4.487 -11.266,-9.58 -14.508,-17.47c-3.426,-8.338 -1.556,-16.222 6.179,-20.994c9.898,-6.109 22.37,-5.782 33.55,-6.033c31.432,-0.706 62.865,0.603 94.299,0.107c24.906,-0.392 50.499,-1.459 74.453,-8.909c0.889,-0.276 1.519,-1.983 0.161,-1.926Z" style="fill:#010101;fill-rule:nonzero;"/><path d="M248.167,102.861c29.748,-1.421 59.559,2.069 89.369,0.816c32.513,-1.367 64.791,-6.077 97.344,-6.88c8.227,-0.202 20.295,-1.638 26.55,5.232c3.983,4.374 2.344,11.158 0.755,16.158c-4.273,13.451 -14.89,26.579 -25.604,35.522c-10.012,8.358 -21.1,15.563 -32.341,22.138c-6.209,3.632 -12.604,7.037 -19.275,9.744c-4.366,1.772 -9.631,3.848 -14.458,3.551c-2.947,-0.182 -5.685,1.324 -6.973,4.063c-1.043,2.218 -0.514,5.364 2.324,5.797c8.306,1.268 16.846,-2.333 24.273,-5.638c10.107,-4.497 19.673,-10.113 28.953,-16.111c14.516,-9.384 28.065,-19.505 38.74,-33.218c8.424,-10.821 19.251,-27.077 16.25,-41.609c-1.441,-6.979 -6.345,-11.541 -13.006,-13.718c-11.735,-3.835 -25.706,-1.749 -37.76,-1.03c-30.67,1.83 -61.107,6.416 -91.795,8.075c-13.961,0.755 -27.886,0.453 -41.857,0.308c-14.079,-0.146 -28.043,0.503 -41.368,5.346c-0.636,0.231 -1.169,1.504 -0.121,1.454Z" style="fill:#010101;fill-rule:nonzero;"/><path d="M116.641,103.638c11.294,-20.688 17.891,-44.022 32.072,-63.112c14.224,-19.148 36.324,-25.618 59.085,-28.39c22.978,-2.798 45.739,-1.103 68.345,3.384c21.658,4.299 32.584,24.391 42.082,42.275c3.437,6.471 7.141,12.787 10.219,19.443c1.424,3.08 2.655,6.254 3.476,9.55c0.211,0.851 0.375,1.995 0.283,2.866c-0.088,0.825 -0.223,1.637 -0.242,2.474c-0.075,3.172 0.27,0.084 0.271,0.079c-1.064,2.746 0.682,4.474 3.436,3.914c18.395,-3.735 -2.666,-35.742 -6.784,-43.323c-9.515,-17.521 -19.321,-36.873 -38.925,-44.732c-9.724,-3.898 -20.85,-5.271 -31.203,-6.376c-11.793,-1.26 -23.724,-1.496 -35.564,-0.926c-22.6,1.089 -46.752,5.336 -65.396,18.922c-26.331,19.188 -35.489,54.088 -46.423,82.97c-1.565,4.132 3.71,3.837 5.268,0.982Z" style="fill:#010101;fill-rule:nonzero;"/><path d="M196.488,161.714c-7.168,4.962 -8.221,13.905 -6.415,21.915c1.544,6.846 6.078,18.49 15.098,13.346c7.185,-4.102 10.331,-16.064 10.6,-23.673c0.257,-7.271 -5.17,-17.62 -13.212,-18.32c-4.885,-0.425 -9.343,3.387 -9.497,8.335c-0.235,7.517 0.683,14.952 0.726,22.459c0.036,6.415 7.803,4.461 10.941,2.142c4.032,-2.979 4.271,-6.76 5.471,-11.158c0.75,-2.751 -0.912,-5.575 -3.727,-6.098c-3.785,-0.702 -7.905,2.101 -9.408,5.483c-0.468,0.955 -0.847,1.943 -1.139,2.968c-0.063,0.399 -0.128,0.798 -0.191,1.198c-0.373,1.979 0.045,1.574 1.256,-1.211c3.646,0.713 7.295,1.427 10.941,2.141c-0.152,-7.421 -1.315,-14.734 -1.751,-22.131c-2.637,2.803 -5.273,5.605 -7.91,8.408c2.913,-0.242 -2.157,-1.187 0.665,0.598c0.941,0.596 1.662,1.545 2.36,2.388c1.295,1.563 1.761,3.701 1.952,5.663c0.471,4.819 -1.797,9.686 -4.428,13.57c1.919,-1.114 3.838,-2.229 5.756,-3.343c-0.83,0.027 -1.662,0.049 -2.492,0.071c1.253,0.446 2.506,0.893 3.76,1.34c-5.141,-6.114 -8.741,-15.045 -5.197,-22.752c1.293,-2.814 -1.626,-5.092 -4.159,-3.339Z" style="fill:#010101;fill-rule:nonzero;"/><path d="M257.201,158.963c-7.658,8.793 -7.455,24.89 -3.901,35.268c0.698,2.039 2.66,2.442 4.526,2.525c9.783,0.438 15.63,-13.051 17.209,-21.42c1.205,-6.383 -0.372,-13.299 -6.045,-16.984c-5.662,-3.678 -13.189,-0.842 -16.672,4.563c-4.962,7.701 -2.47,16.758 1.232,24.446c3.679,7.639 16.813,-0.992 13.523,-7.707c-1.209,-2.468 -2.261,-4.962 -3.048,-7.598c-0.27,-0.902 -0.421,-1.768 -0.532,-2.704c-0.038,-0.318 0.079,-2.81 -0.07,-1.692c0.251,-1.879 -0.149,-0.011 0.246,-0.797c-0.416,0.827 -2.437,2.504 -1.977,2.238c-0.557,0.32 -2.993,0.727 -1.184,0.568c0.939,-0.082 -1.171,-0.264 0.487,0.141c-1.403,-0.342 0.504,0.801 0.579,0.928c0.86,1.467 1.014,2.601 1.093,4.029c0.276,4.979 -3.009,9.818 -5.745,13.671c1.965,-1.142 3.932,-2.283 5.896,-3.425c-0.834,0.036 -1.668,0.072 -2.502,0.109c1.509,0.842 3.018,1.684 4.526,2.525c-2.019,-4.401 -2.979,-9.008 -3.548,-13.798c-0.588,-4.954 0.433,-9.776 0.27,-14.675c-0.087,-2.647 -3.36,-1.362 -4.363,-0.211Z" style="fill:#010101;fill-rule:nonzero;"/><path d="M128.062,74.063c14.359,-1.449 28.133,-0.754 42.458,1c14.411,1.765 28.814,4.289 43.369,4.416c38.599,0.336 77.774,-2.34 114.673,-14.419c3.094,-1.013 5.264,-6.699 0.559,-6.667c-3.793,0.025 -7.12,0.484 -10.483,2.26c-2.036,1.074 -2.934,4.978 0.272,4.851c2.923,-0.116 5.813,-0.253 8.742,-0.261c0.187,-2.222 0.373,-4.444 0.559,-6.667c-36.903,11.922 -75.587,14.679 -114.161,14.507c-15.124,-0.067 -30.264,-2.933 -45.276,-4.498c-12.671,-1.32 -28.348,-3.494 -40.398,1.757c-1.464,0.637 -3.084,4 -0.314,3.721Z" style="fill:#010101;fill-rule:nonzero;"/><path d="M131.66,67.696c-3.793,9.703 -9.21,19.052 -10.585,29.517c-0.622,4.733 5.669,2.784 6.529,-0.528c2.492,-9.605 9.122,-17.467 13.844,-26.033c-2.122,-0.099 -4.243,-0.197 -6.365,-0.297c-3.018,10 -7.987,19.11 -7.415,29.848c0.227,4.253 5.939,1.913 7.024,-0.568c3.384,-7.737 7.004,-15.326 11.076,-22.727c-2.356,0.191 -4.713,0.382 -7.069,0.572c0,6.889 0,13.776 0,20.664c0,3.727 5.223,2.358 6.528,0.317c4.541,-7.098 8.253,-14.388 10.73,-22.459c-2.344,0.474 -4.688,0.947 -7.031,1.421c-0.224,8.008 -1.811,15.675 0.003,23.615c0.686,3.004 5.324,1.133 6.341,-0.515c4.576,-7.419 6.511,-15.948 10.552,-23.625c-2.325,0.188 -4.649,0.377 -6.974,0.565c0.031,7.444 0.781,15.854 6.523,21.246c2.272,2.135 5.335,0.004 6.589,-2.16c2.922,-5.047 5.782,-10.096 7.979,-15.51c-2.357,0.191 -4.716,0.382 -7.073,0.573c0.115,6.778 1.01,13.843 5.568,19.165c1.671,1.951 4.823,0.383 6.04,-1.255c4.193,-5.64 6.592,-12.169 9.561,-18.479c-2.319,0.473 -4.639,0.944 -6.957,1.417c1.804,5.604 4.291,13.951 11.436,13.974c7.075,0.022 11.379,-10.271 13.612,-15.39c-2.319,0.473 -4.64,0.944 -6.96,1.417c2.552,5.681 6.318,13.567 13.752,12.778c7,-0.743 11.434,-8.727 14.383,-14.182c-2.22,0.727 -4.439,1.455 -6.659,2.184c3.952,4.984 8.647,10.066 15.379,10.357c7.949,0.342 11.934,-9.554 13.808,-15.563c-1.557,1.366 -3.113,2.732 -4.671,4.1c0.67,0 1.34,0 2.01,0.002c-0.831,-0.297 -1.662,-0.593 -2.493,-0.889c4.34,5.564 9.021,11.315 15.746,14.01c2.343,0.939 5.239,-0.477 6.194,-2.814c2.362,-5.778 5.063,-11.123 5.46,-17.443c-2.449,1.407 -4.897,2.814 -7.346,4.221c5.979,5.055 12.324,9.58 18.771,14.014c3,2.063 6.523,-2.173 6.692,-4.812c0.269,-4.199 1.755,-8.181 2.025,-12.403c-2.476,1.422 -4.951,2.845 -7.427,4.268c4.068,5.146 8.542,9.568 14.764,11.948c2.765,1.058 6.105,-0.956 6.674,-3.878c1.064,-5.473 1.975,-10.901 2.112,-16.484c-2.502,1.438 -5.004,2.875 -7.506,4.313c4.367,5.422 9.646,9.695 15.772,12.989c2.772,1.49 7.34,-1.772 6.83,-4.911c-0.729,-4.494 0.749,-8.938 0.017,-13.438c-2.686,1.188 -5.372,2.377 -8.058,3.564c2.222,5.434 5.053,10.555 8.336,15.416c0.772,-2.218 1.545,-4.435 2.316,-6.651c-1.663,0.923 -3.01,1.792 -4.884,2.259c-3.356,0.836 -5.134,6.627 -0.563,6.716c2.96,0.058 5.431,-0.853 8.091,-2.059c2.332,-1.058 3.964,-4.438 2.316,-6.651c-3.154,-4.232 -5.733,-8.631 -7.746,-13.514c-1.739,-4.222 -8.666,-0.109 -8.058,3.564c0.742,4.489 -0.726,8.932 0.017,13.426c2.277,-1.637 4.554,-3.273 6.83,-4.911c-5.643,-3.013 -10.343,-6.833 -14.372,-11.808c-2.665,-3.289 -7.44,1.355 -7.506,4.313c-0.108,4.92 -0.981,9.693 -1.907,14.512c2.225,-1.293 4.449,-2.585 6.674,-3.878c-5.734,-2.177 -9.623,-6.059 -13.377,-10.782c-2.668,-3.355 -7.252,1.439 -7.427,4.268c-0.259,4.195 -1.733,8.176 -1.994,12.394c2.231,-1.604 4.462,-3.208 6.692,-4.812c-5.964,-4.077 -11.873,-8.197 -17.408,-12.85c-3.072,-2.583 -7.142,0.845 -7.346,4.221c-0.29,4.81 -2.808,9.171 -4.587,13.553c2.064,-0.938 4.13,-1.877 6.194,-2.814c-4.259,-1.69 -7.375,-4.587 -10.4,-7.949c-1.411,-1.568 -2.703,-3.247 -4.006,-4.904c-1.004,-1.278 -3.107,-0.887 -4.503,-0.887c-2.265,0.002 -4.076,2.125 -4.671,4.1c-0.795,2.633 -2.032,8.581 -5.881,7.169c-3.816,-1.401 -6.709,-5.181 -9.147,-8.241c-1.97,-2.471 -5.621,0.256 -6.659,2.185c-1.225,2.274 -3.646,7.911 -6.724,8.262c-3.414,0.389 -6.438,-7.59 -7.353,-9.666c-1.437,-3.259 -5.919,-0.933 -6.96,1.417c-0.528,1.191 -4.226,9.852 -5.573,9.296c-3.26,-1.345 -4.648,-7.815 -5.559,-10.712c-1.117,-3.556 -5.991,-0.605 -6.957,1.417c-2.693,5.642 -4.828,11.56 -8.527,16.65c2.013,-0.419 4.026,-0.837 6.04,-1.255c-3.882,-4.402 -4.431,-10.323 -4.48,-15.964c-0.038,-4.284 -6.05,-1.897 -7.073,0.573c-2.239,5.409 -5.145,10.445 -8.102,15.486c2.196,-0.721 4.393,-1.44 6.589,-2.16c-5.021,-4.567 -5.438,-11.629 -5.537,-18.016c-0.068,-4.426 -5.822,-1.59 -6.974,0.565c-3.912,7.328 -5.783,15.603 -10.086,22.724c2.294,-0.468 4.588,-0.935 6.881,-1.402c-1.721,-7.16 -0.077,-14.598 0.003,-21.846c0.051,-4.607 -6.269,-1.203 -7.031,1.421c-1.968,6.771 -5.593,12.966 -9.369,18.869c2.177,0.105 4.353,0.211 6.528,0.317c0,-6.889 0,-13.776 0,-20.664c0,-4.528 -5.906,-1.542 -7.069,0.572c-4.06,7.376 -7.854,14.934 -11.033,22.734c2.341,-0.189 4.683,-0.379 7.024,-0.568c-0.785,-9.87 3.815,-18.801 6.653,-28.012c1.365,-4.428 -5.01,-2.725 -6.365,-0.297c-5.064,9.07 -11.881,17.394 -14.293,27.694c2.177,-0.177 4.353,-0.353 6.529,-0.528c1.07,-10.072 4.957,-19.156 7.667,-28.82c0.672,-2.383 -2.961,-1.826 -3.608,-0.168Z" style="fill:#010101;fill-rule:nonzero;"/><path d="M178.005,231.893c0.104,0.262 0.196,0.416 0.416,0.596c0.75,0.615 1.647,0.633 2.492,0.134c1.506,-0.891 2.882,-2.241 4.529,-2.862c-0.99,-0.799 -1.979,-1.598 -2.97,-2.396c-5.742,18.787 22.901,19.702 34.124,19.722c-0.117,-2.084 -0.234,-4.168 -0.352,-6.252c-0.995,0.679 -2.023,1.166 -3.103,1.697c-1.228,0.604 -2.401,2.209 -2.26,3.632c0.371,3.724 5.706,1.486 7.53,0.339c2.484,-1.563 3.885,-6.258 -0.352,-6.252c-6.302,0.008 -12.588,-0.134 -18.75,-1.595c-2.783,-0.66 -5.657,-1.833 -7.842,-3.72c-2.756,-2.38 -2.816,-5.391 -3.284,-8.725c-0.338,-2.405 -3.004,-2.104 -4.465,-0.874c-1.824,1.537 -5.34,3.631 -5.668,6.192c0.666,-0.386 1.333,-0.774 1.999,-1.161c-0.063,-0.035 -0.126,-0.07 -0.189,-0.105c-0.877,-0.483 -2.222,0.694 -1.855,1.63Z" style="fill:#010101;fill-rule:nonzero;"/><path d="M463.23,272.641c0.049,0 0.082,-0.086 0.02,-0.086c-0.049,0 -0.083,0.086 -0.02,0.086Z" style="fill:#010101;fill-rule:nonzero;"/><path d="M70.042,324.495c4.232,12.322 10.276,24.004 15.32,36.014c5.709,13.594 11.111,27.309 15.737,41.313c4.495,13.61 8.222,27.521 10.382,41.702c0.963,6.331 1.507,12.721 1.617,19.123c0.051,2.975 -0.029,5.971 -0.281,8.937c-0.234,2.761 -0.988,5.373 0.031,8.051c1.646,4.322 6.939,0.63 8.355,-1.7c2.819,-4.645 2.104,-11.962 2.017,-17.225c-0.104,-6.327 -0.857,-12.636 -1.854,-18.878c-2.272,-14.227 -6.28,-28.157 -10.931,-41.771c-4.916,-14.392 -10.716,-28.527 -17.125,-42.315c-5.72,-12.306 -11.351,-25.047 -19.089,-36.234c-1.409,-2.041 -4.846,1.041 -4.179,2.983Z" style="fill:#010101;fill-rule:nonzero;"/><path d="M118.457,480.926c7.754,-1.916 15.719,-3.056 23.672,-3.688c7.118,-0.566 13.894,-0.064 20.942,0.018c3.79,0.043 9.021,-6.802 4.383,-9.263c-2.852,-1.514 -6.641,-1.077 -9.767,-1.019c-4.561,0.086 -9.12,0.567 -13.627,1.246c-8.887,1.34 -18.908,2.768 -26.659,7.613c-2.552,1.596 -2.851,6.058 1.056,5.093Z" style="fill:#010101;fill-rule:nonzero;"/><path d="M123.257,297.434c-0.844,3.189 2.758,8.462 4.141,12.157c2.921,7.807 6.677,15.384 9.903,23.072c4.979,11.866 10.239,23.729 14.756,35.777c5.527,14.74 10.354,29.784 14.483,44.974c3.892,14.318 9.096,31.275 6.83,46.277c-0.604,3.997 -1.002,2.934 -2.875,6.485c-1.804,3.42 1.206,6.646 4.758,5.423c13.066,-4.5 8.96,-26.554 7.332,-36.389c-2.93,-17.699 -8.109,-35.064 -13.73,-52.072c-3.641,-11.016 -7.89,-21.609 -12.52,-32.224c-6.59,-15.11 -12.54,-30.697 -20.669,-45.069c-1.679,-2.966 -3.959,-7.34 -6.852,-9.319c-1.56,-1.067 -4.897,-1.581 -5.557,0.908Z" style="fill:#010101;fill-rule:nonzero;"/><path d="M318.816,295.301c-22.443,20.49 -29.27,54.186 -31.816,83.2c-2.742,31.233 -0.883,62.912 -5.884,93.937c3.536,-0.715 7.071,-1.43 10.607,-2.144c-0.044,-3.362 -0.856,-5.351 -3.556,-7.347c-3.134,-2.317 -7.424,2.41 -7.408,5.326c0.01,1.828 0.224,3.627 0.247,5.456c0.085,6.569 9.874,2.407 10.607,-2.144c4.75,-29.463 3.362,-59.467 5.2,-89.161c0.947,-15.301 2.777,-30.513 6.582,-45.386c3.693,-14.438 10.429,-27.584 17.876,-40.394c1.007,-1.727 -1.354,-2.349 -2.455,-1.343Z" style="fill:#010101;fill-rule:nonzero;"/><path d="M373.28,319.676c-9.093,5.285 -12.836,18.927 -15.619,28.317c-3.573,12.061 -6.061,24.499 -8.201,36.882c-5.267,30.462 -8.266,61.357 -9.487,92.24c3.465,-2.491 6.929,-4.982 10.393,-7.473c-1.501,-0.551 -2.77,-2.521 -5.082,-2.964c-4.779,-0.913 -10.169,5.084 -7.221,9.464c1.099,1.63 2.104,3.668 4.018,4.438c4.936,1.988 10.238,-2.441 10.393,-7.473c0.893,-29.231 3.539,-58.283 7.756,-87.222c1.665,-11.427 3.67,-22.864 5.979,-34.181c1.106,-5.42 2.484,-10.797 4.148,-16.072c1.539,-4.883 4.408,-9.597 5.317,-14.621c0.269,-1.494 -1.263,-1.993 -2.394,-1.335Z" style="fill:#010101;fill-rule:nonzero;"/><path d="M282.079,476.7c17.388,7.59 35.354,5.76 53.779,7.814c1.683,-4.92 3.366,-9.838 5.048,-14.758c-5.692,0.211 -11.559,4.144 -12.812,9.932c-0.241,1.116 -0.167,2.83 0.789,3.662c2.791,2.425 5.464,1.892 8.843,1.25c4.254,-0.809 8.193,-3.546 9.155,-8.035c0.827,-3.862 -1.942,-7.244 -5.976,-6.809c-18.146,1.96 -37.284,2.481 -55.501,1.478c-2.221,-0.122 -6.711,3.987 -3.325,5.466Z" style="fill:#010101;fill-rule:nonzero;"/><path d="M149.045,429.44c-2.663,-1.225 -3.589,-1.949 -6.594,-1.959c-2.674,-0.009 -5.84,1.542 -7.807,3.274c-4.667,4.11 -6.872,9.686 -6.539,15.865c0.753,13.976 16.669,20.312 28.132,14.987c11.61,-5.392 15.504,-21.219 5.856,-29.953c-4.089,-3.703 -9.414,-5.855 -14.826,-6.662c-6.676,-0.994 -12.019,1.039 -15.764,6.604c-0.774,1.149 -1.219,3.681 0.86,3.854c0.767,0.064 0.931,0.857 2.479,1.015c1.398,0.142 2.781,0.237 4.189,0.226c2.953,-0.025 5.826,0.477 8.559,1.615c4.213,1.756 9.887,6.037 7.465,11.16c-3.101,6.562 -11.375,1.1 -14.383,-2.487c-5.607,-6.685 -0.736,-14.274 7.137,-14.93c0.961,-0.078 2.659,-1.955 1.236,-2.609Z" style="fill:#010101;fill-rule:nonzero;"/><path d="M323.475,434.281c-9.202,-9.438 -21.485,3.145 -23.659,12.334c-1.262,5.33 0.014,11.395 3.331,15.689c3.944,5.107 11.331,4.852 16.778,2.933c9.526,-3.357 19.403,-14.74 13.897,-25.123c-4.804,-9.059 -22.12,-13.731 -28.309,-3.679c-0.788,1.28 -1.41,2.836 -0.321,4.169c3.228,3.951 9.882,1.75 14.211,4.107c2.729,1.485 4.935,5.046 2.311,7.551c-4.667,4.452 -9.168,2.424 -10.848,-3.149c-0.834,-2.77 -0.395,-6.283 1.313,-8.592c1.856,-2.51 6.336,-2.378 9.068,-2.621c1.372,-0.121 3.589,-2.222 2.228,-3.619Z" style="fill:#010101;fill-rule:nonzero;"/><path d="M165.056,473.994c18.756,3.276 37.835,-0.469 56.505,-2.997c20.896,-2.831 42.04,-4.526 62.813,0.071c0.969,-2.831 1.938,-5.662 2.905,-8.493c-3.161,0.631 -5.745,1.758 -8.646,3.143c-1.245,0.594 -3.115,3.766 -0.972,4.537c2.649,0.954 4.994,0.814 7.788,0.863c3.956,0.07 8.169,-7.393 2.905,-8.493c-20.443,-4.278 -41.071,-2.753 -61.566,0.292c-20.37,3.026 -40.633,6.689 -61.08,9.17c-0.796,0.097 -1.913,1.686 -0.652,1.907Z" style="fill:#010101;fill-rule:nonzero;"/><path d="M158.276,298.075c2.104,6.937 7.985,13.03 12.266,18.691c7.076,9.357 14.47,18.5 21.902,27.573c6.509,7.945 13.056,15.891 20.116,23.356c4.634,4.898 10.933,11.57 17.064,4.205c1.455,-1.749 2.254,-5.739 -0.47,-6.876c0.436,0.182 0.972,0.89 1.276,1.461c-0.6,-1.124 -0.974,-1.535 -2.002,-2.281c1.587,1.151 -1.769,-1.274 -2.314,-1.687c0.4,0.303 -1.764,-1.51 -2.32,-2.02c-1.414,-1.291 -2.785,-2.627 -4.149,-3.969c-7.224,-7.104 -14.135,-14.538 -21.021,-21.967c-7.446,-8.033 -14.791,-16.172 -22.358,-24.09c-4.63,-4.844 -9.608,-11.504 -15.969,-14.172c-1.026,-0.428 -2.354,0.68 -2.021,1.776Z" style="fill:#010101;fill-rule:nonzero;"/><path d="M228.23,372.924c16.458,-2.945 27.783,-20.529 38.15,-32.23c13.032,-14.709 27.773,-27.332 43.172,-39.467c4.471,-3.522 2.941,-11.719 -3.666,-9.424c-2.969,1.031 -5,2.555 -7.05,4.885c-0.997,1.135 -1.704,3.701 -0.377,4.896c1.55,1.396 3.006,1.389 4.978,1.65c-0.204,-3.225 -0.408,-6.448 -0.611,-9.672c-14.514,11.228 -27.902,23.845 -40.171,37.477c-5.792,6.436 -10.905,13.403 -16.577,19.934c-5.702,6.568 -12.332,12.389 -18.617,18.377c-1.053,1.003 -1.62,4.002 0.769,3.574Z" style="fill:#010101;fill-rule:nonzero;"/><path d="M223.43,365.84c-8.14,2.574 -14.587,11.117 -20.21,17.074c-3.25,3.442 -6.531,6.852 -10.048,10.023c-2.86,2.58 -6.876,4.022 -9.274,6.939c-1.844,2.241 -1.478,5.351 1.398,6.267c3.486,1.109 7.349,-2.384 9.85,-4.388c3.746,-3.001 6.951,-6.742 10.145,-10.303c6.606,-7.369 14.124,-14.831 19.736,-22.987c0.935,-1.359 0.271,-3.215 -1.597,-2.625Z" style="fill:#010101;fill-rule:nonzero;"/><path d="M134.408,287.168c-1.218,8.49 3.606,18.903 6.501,26.706c3.788,10.214 8.149,20.269 12.912,30.065c9.369,19.273 19.626,38.076 28.52,57.578c3.147,-2.248 6.296,-4.495 9.444,-6.742c-1.137,-1.83 -2.554,-2.739 -4.641,-3.135c-2.961,-0.562 -5.983,2.341 -5.963,5.232c0.013,1.719 0.48,3.082 1.159,4.645c2.508,5.768 12.509,-0.728 10.053,-5.73c-9.154,-18.645 -19.724,-36.598 -29.427,-54.959c-4.803,-9.088 -9.579,-18.182 -13.887,-27.518c-2.228,-4.828 -4.191,-9.758 -6.238,-14.662c-1.674,-4.008 -3.041,-9.374 -6.027,-12.56c-0.775,-0.827 -2.272,0.137 -2.406,1.08Z" style="fill:#010101;fill-rule:nonzero;"/><path d="M231.401,367.082c-0.253,6.694 8.069,14.632 11.963,19.449c5.843,7.229 12.526,13.728 18.438,20.878c2.47,2.988 7.253,-0.151 8.461,-2.775c4.949,-10.744 15.698,-18.002 23.906,-26.189c1.71,-1.706 3.453,-4.735 1.493,-6.968c-2.404,-2.74 -6.305,-0.352 -8.146,1.692c-1.024,1.137 -1.753,2.411 -1.951,3.944c-0.267,2.069 0.956,4.259 3.381,3.853c2.085,-0.35 3.646,-1.102 5.223,-2.521c5.308,-4.78 -0.591,-11.424 -5.609,-6.393c-9.745,9.769 -22.911,18.561 -27.447,32.154c2.957,-1.325 5.914,-2.65 8.871,-3.977c-7.103,-5.919 -13.526,-12.91 -19.94,-19.559c-2.915,-3.023 -5.85,-6.027 -8.725,-9.09c-2.23,-2.372 -4.604,-5.447 -7.849,-6.314c-1.048,-0.279 -2.034,0.877 -2.069,1.816Z" style="fill:#010101;fill-rule:nonzero;"/><path d="M303.219,282.85c0.362,2.961 1.332,5.586 3.067,8.054c1.598,2.271 5.359,5.329 6.019,8.006c0.546,2.215 3.06,2.697 4.926,2.749c12.442,0.344 25.247,6.611 35.681,13.105c3.758,2.34 7.398,4.879 10.959,7.505c1.439,1.062 2.725,2.437 4.246,3.37c0.697,0.43 1.476,0.813 2.287,0.963c0.638,0.091 1.274,0.108 1.91,0.051c2.49,-0.439 2.138,-0.469 -1.059,-0.088c3.685,1.002 7.551,-2.756 8.356,-6.025c-0.795,3.228 0.376,-1.889 0.353,-2.328c-0.074,-1.405 -0.77,-2.488 -1.586,-3.583c-1.43,-1.919 -4.311,-3.446 -6.248,-4.849c-4.46,-3.23 -9.084,-6.326 -13.908,-8.988c-7.569,-4.177 -15.852,-7.542 -24.151,-9.926c-2.342,-0.673 -4.738,-1.094 -7.145,-1.449c-1.94,-0.287 -5.284,0.269 -6.98,-0.851c-4.193,-2.767 -7.46,-6.714 -11.788,-9.269c-2.036,-1.201 -5.207,1.36 -4.939,3.553Z" style="fill:#010101;fill-rule:nonzero;"/><path d="M376.957,324.705c7.128,12.972 15.988,24.785 22.75,38.019c7.632,14.938 13.425,31.1 18.443,47.072c4.917,15.649 8.927,31.687 11.589,47.875c2.444,14.865 4.586,30.843 2.876,45.896c4.621,-0.934 9.244,-1.867 13.865,-2.8c-0.093,-1.348 -0.271,-2.64 -0.531,-3.963c-1.508,-7.679 -11.771,-3.261 -12.813,2.588c-0.348,1.949 -0.533,3.888 -0.664,5.864c-0.262,3.925 4.452,5.054 7.35,4.126c3.646,-1.166 6.718,-4.686 6.658,-8.615c-0.231,-15.428 -0.859,-30.564 -3.441,-45.813c-2.89,-17.063 -7.307,-33.805 -13.178,-50.078c-5.679,-15.738 -12.559,-31.211 -21.009,-45.662c-7.693,-13.158 -15.08,-28.102 -27.025,-37.985c-1.938,-1.604 -6.23,1.003 -4.87,3.476Z" style="fill:#010101;fill-rule:nonzero;"/><path d="M144.78,273.635c-9.62,2.838 -16.468,12.588 -24.272,18.359c-2.658,1.967 -4.487,6.731 -2.04,9.521c3.108,3.541 8.874,0.754 11.128,-2.313c5.368,-7.304 13.639,-12.248 18.814,-19.598c2.212,-3.141 0.572,-7.208 -3.63,-5.969Z" style="fill:#010101;fill-rule:nonzero;"/><path d="M124.038,294.033c-7.036,-3.396 -16.001,-0.778 -22.921,1.767c-8.699,3.199 -16.72,9.369 -23.677,15.342c-13.956,11.983 -26.353,26.895 -36.512,42.209c-26.053,39.268 -38.177,86.484 -39.255,133.286c4.255,-2.444 8.51,-4.889 12.764,-7.333c-1.005,-1.119 -1.508,-2.63 -2.648,-3.621c-4.823,-4.191 -13.107,2.153 -11.197,7.992c0.719,2.202 0.646,3.7 2.205,5.844c4.287,5.9 12.632,-2.546 12.764,-7.333c1.158,-42.087 11.381,-84.38 33.598,-120.469c8.594,-13.96 19.06,-27.456 30.642,-39.052c5.947,-5.954 12.421,-11.439 19.693,-15.702c7.368,-4.319 14.833,-5.896 22.911,-8.18c1.587,-0.449 3.954,-3.63 1.633,-4.75Z" style="fill:#010101;fill-rule:nonzero;"/><path d="M51.377,354.275c-3.237,24.73 -8.771,49.157 -9.032,74.227c-0.204,19.551 3.819,42.276 -5.274,60.41c2.461,-0.501 4.922,-1.003 7.384,-1.504c-0.818,-2.558 -1.465,-4.961 -2.504,-7.43c-1.08,-2.569 -4.208,-0.079 -4.739,1.527c-1.233,3.73 -1.354,6.425 -0.374,10.244c0.986,3.842 6.446,0.563 7.384,-1.504c8.187,-18.049 4.752,-40.41 4.226,-59.556c-0.706,-25.688 4.85,-50.995 4.213,-76.674c-0.021,-0.786 -1.21,-0.304 -1.284,0.26Z" style="fill:#010101;fill-rule:nonzero;"/><path d="M66.378,336.75c-2.699,24.155 -8.988,47.726 -10.633,72.004c-1.783,26.324 2.232,52.827 -0.597,79.088c2.534,-1.137 5.068,-2.272 7.603,-3.408c-1.348,-1.592 -2.544,-3.007 -4.459,-3.892c-2.731,-1.263 -5.946,1.837 -5.237,4.597c0.532,2.072 1.341,3.785 2.685,5.447c2.738,3.385 7.599,-1.402 7.688,-4.417c0.744,-25.241 -1.921,-50.394 -1.322,-75.618c0.306,-12.895 2.101,-25.549 4.056,-38.273c1.823,-11.87 3.722,-23.957 2.507,-35.99c-0.142,-1.388 -2.175,-0.568 -2.291,0.462Z" style="fill:#010101;fill-rule:nonzero;"/><path d="M96.388,381.436c-2.383,35.811 -10.108,71.355 -9.158,107.371c0.138,5.227 8.09,1.538 8.09,-2.594c0,-2.555 -0.463,-4.047 -1.74,-6.216c-1.117,-1.897 -3.709,-0.782 -4.469,0.91c-1.223,2.726 -1.881,4.897 -1.881,7.899c2.696,-0.864 5.394,-1.729 8.09,-2.594c-2.868,-35.275 5.387,-70.208 3.24,-105.473c-0.09,-1.461 -2.102,-0.342 -2.172,0.697Z" style="fill:#010101;fill-rule:nonzero;"/><path d="M106.332,415.303c-2.677,11.701 -2.313,24.365 -3.735,36.289c-1.491,12.489 -3.385,25.322 -7.327,37.299c2.877,-0.581 5.754,-1.162 8.632,-1.743c-0.03,-2.101 0.041,-4.635 -1.688,-6.115c-1.596,-1.366 -3.914,-0.554 -5.063,1.052c-1.723,2.405 -1.928,4.965 -1.969,7.858c-0.075,5.364 7.969,1.895 8.632,-1.743c2.26,-12.398 4.721,-24.589 5.785,-37.176c0.986,-11.661 2.574,-25.196 -0.354,-36.658c-0.416,-1.625 -2.696,-0.012 -2.913,0.937Z" style="fill:#010101;fill-rule:nonzero;"/><path d="M2.261,470.989c3.142,2.858 8.457,3.117 12.499,3.466c5.385,0.466 10.943,-0.057 16.299,-0.619c12.156,-1.276 24.173,-3.147 36.368,-4.11c12.42,-0.979 24.854,-2.529 37.313,-2.227c3.176,0.078 7.291,0.458 10.171,-1.186c2.282,-1.302 4.356,-4.971 1.841,-7.042c-2.362,-1.944 -7.41,1.159 -5.868,4.189c0.032,-0.138 0.065,-0.275 0.098,-0.413c1.081,-1.148 2.161,-2.298 3.242,-3.446c-1.077,0.46 -4.66,0.688 -6.811,0.704c-3.373,0.025 -6.731,-0.241 -10.095,0.061c-11.873,1.066 -23.737,2.379 -35.625,3.247c-9.842,0.719 -19.569,2.881 -29.341,4.188c-4.723,0.633 -9.464,1.097 -14.227,1.237c-4.763,0.142 -9.689,-0.922 -14.383,-0.456c-0.851,0.085 -2.457,1.518 -1.481,2.407Z" style="fill:#010101;fill-rule:nonzero;"/><path d="M10.658,460.827c10.886,3.189 23.784,2.27 35.008,1.919c10.305,-0.322 20.538,-1.721 30.842,-1.853c8.066,-0.104 16.158,-0.025 24.159,-1.195c5.46,-0.799 15.052,-2.673 16.5,-9.116c0.564,-2.514 -1.688,-3.606 -3.808,-3.073c-2.119,0.533 -3.768,2.203 -5.834,2.976c-3.158,1.181 -6.561,1.617 -9.888,2.009c-7.197,0.848 -14.478,0.838 -21.71,1.103c-9.627,0.353 -19.207,1.845 -28.827,2.457c-11.63,0.739 -23.324,-0.538 -34.897,0.257c-2.084,0.141 -4.347,3.694 -1.545,4.516Z" style="fill:#010101;fill-rule:nonzero;"/><path d="M19.428,422.162c6.786,2.969 15.95,2.193 23.168,1.818c9.443,-0.491 18.749,-1.175 28.215,-0.989c8.299,0.163 16.6,0.304 24.888,-0.263c5.682,-0.389 15.11,-0.375 18.188,-5.955c0.437,-0.792 0.598,-2.334 -0.19,-3.003c-0.113,-0.097 -0.226,-0.192 -0.339,-0.289c-1.074,-0.911 -2.373,-1.254 -3.751,-0.734c-6.255,2.358 -13.368,2.521 -19.978,2.803c-7.216,0.307 -14.447,0.188 -21.668,0.195c-8.681,0.009 -17.24,1.072 -25.876,1.799c-4.885,0.41 -9.817,0.553 -14.711,0.225c-2.866,-0.193 -5.462,-0.635 -7.71,1.354c-0.734,0.647 -1.551,2.463 -0.236,3.039Z" style="fill:#010101;fill-rule:nonzero;"/><path d="M19.073,409.881c6.151,1.389 12.888,0.502 19.122,0.095c7.645,-0.5 15.287,-1.241 22.908,-2.025c7.328,-0.755 14.664,-1.458 22.02,-1.883c6.08,-0.351 11.887,0.425 17.895,0.511c3.752,0.054 7.363,-6.432 2.672,-7.811c-4.913,-1.445 -11.455,-0.439 -16.502,-0.175c-7.732,0.405 -15.441,1.294 -23.131,2.171c-7.719,0.881 -15.423,1.899 -23.135,2.838c-6.991,0.852 -14.143,1.072 -21.039,2.502c-1.572,0.326 -2.983,3.287 -0.81,3.777Z" style="fill:#010101;fill-rule:nonzero;"/><path d="M39.784,364.319c3.444,0.59 6.997,-0.205 10.442,-0.547c4.296,-0.428 8.642,-0.456 12.954,-0.481c4.436,-0.026 8.872,0.132 13.304,0.284c4.237,0.146 8.855,-0.202 13.024,0.595c0.86,-2.513 1.72,-5.025 2.579,-7.538c-3.114,-0.115 -6.074,0.409 -8.669,2.158c-0.911,0.614 -2.052,2.053 -1.094,3.141c2.042,2.317 5.202,2.391 8.138,2.283c4.482,-0.162 6.771,-8.426 1.625,-7.582c-8.764,1.436 -18.569,-0.185 -27.459,-0.098c-7.673,0.075 -18.018,-0.182 -24.569,4.42c-0.956,0.671 -2.315,3.015 -0.275,3.365Z" style="fill:#010101;fill-rule:nonzero;"/><path d="M48.801,352.519c5.772,1.009 12.294,0.191 18.162,0.3c2.865,0.053 5.734,0.074 8.599,-0.024c0.992,-0.034 1.977,-0.126 2.959,-0.271c1.25,-0.186 5.381,-3.104 2.888,-1.377c1.527,-1.058 4.332,-5.847 0.5,-6.099c1.088,0.776 1.135,0.783 0.14,0.02c-0.584,-0.296 -1.202,-0.412 -1.855,-0.349c-0.988,0.169 -1.975,0.267 -2.975,0.343c-3.277,0.25 -6.582,0.194 -9.867,0.257c-5.765,0.107 -13.071,-0.361 -18.185,2.734c-1.393,0.844 -2.981,4.009 -0.366,4.466Z" style="fill:#010101;fill-rule:nonzero;"/><path d="M196.738,392.532c-3.173,11.31 -1.934,24.486 -2.053,36.127c-0.129,12.711 0.499,25.822 -0.625,38.482c-0.458,5.152 6.798,3.382 7.277,-0.59c0.335,-2.771 -0.277,-4.225 -1.774,-6.507c-0.996,-1.521 -3.351,0.222 -3.855,1.265c-1.091,2.25 -2.054,4.174 -1.724,6.728c0.621,4.786 7.79,1.456 7.43,-2.381c-1.144,-12.155 -0.556,-24.765 -0.682,-36.979c-0.066,-6.497 -0.117,-12.993 -0.277,-19.488c-0.139,-5.632 -0.028,-11.879 -1.82,-17.269c-0.351,-1.052 -1.722,-0.01 -1.897,0.612Z" style="fill:#010101;fill-rule:nonzero;"/><path d="M209.878,382.223c-1.598,6.453 -1.636,13.238 -2.19,19.841c-0.651,7.74 -1.083,15.503 -1.413,23.263c-0.299,7.009 -0.367,14.019 -0.117,21.029c0.119,3.361 0.382,6.715 0.717,10.061c0.328,3.274 1.514,6.915 1.256,10.189c-0.395,5.037 7.744,1.518 8.066,-2.586c0.11,-1.41 -0.488,-3.565 -1.537,-4.529c-1.429,-1.313 -3.721,-0.498 -4.73,0.982c-1.14,1.672 -1.97,4.059 -1.799,6.133c0.429,5.183 8.412,1.605 8.066,-2.586c-0.503,-6.086 -2.142,-12.149 -2.6,-18.321c-0.557,-7.505 -0.54,-15.054 -0.453,-22.574c0.083,-7.069 0.313,-14.136 0.426,-21.205c0.108,-6.723 0.597,-13.962 -1.221,-20.493c-0.384,-1.382 -2.272,-0.007 -2.471,0.796Z" style="fill:#010101;fill-rule:nonzero;"/><path d="M254.033,394.644c-2.426,10.919 -1.668,22.841 -1.747,33.968c-0.08,11.447 0.405,22.887 0.38,34.327c-0.011,4.963 7.942,1.606 7.855,-2.518c-0.051,-2.391 0.061,-4.819 -2.418,-5.899c-0.919,-0.4 -2.043,-0.131 -2.755,0.573c-2.362,2.333 -2.615,4.618 -2.683,7.844c2.618,-0.839 5.237,-1.679 7.855,-2.518c-1.082,-11.257 -1.123,-22.686 -1.45,-33.985c-0.31,-10.682 0.601,-22.346 -2.024,-32.764c-0.421,-1.677 -2.794,-0.015 -3.013,0.972Z" style="fill:#010101;fill-rule:nonzero;"/><path d="M264.451,399.803c-2.414,12.594 -2.351,26.52 -1.934,39.318c0.131,4.034 0.272,8.064 0.15,12.101c-0.058,1.903 -0.275,3.753 -0.738,5.601c-0.063,0.251 -0.548,0.958 -0.168,0.417c1.603,-2.28 2.17,-1.014 0.488,-0.948c-1.371,0.054 -3.071,1.585 -2.872,3.053c0.728,5.34 6.097,4.694 8.952,0.953c2.848,-3.732 2.185,-10.041 2.015,-14.408c-0.196,-5.043 -0.901,-10.047 -1.05,-15.091c-0.311,-10.53 0.199,-21.565 -1.999,-31.912c-0.335,-1.573 -2.663,-0.027 -2.844,0.916Z" style="fill:#010101;fill-rule:nonzero;"/><path d="M182.167,456.709c10.77,1.787 22.111,0.81 32.971,0.412c11.344,-0.415 22.628,-1.145 33.93,-2.183c7.951,-0.73 15.904,-1.423 23.859,-2.092c4.041,-0.34 9.562,0.234 13.175,-1.753c-1.117,-1.862 -2.234,-3.726 -3.353,-5.588c2.012,-1.688 -0.512,-0.063 -1.223,0.398c-1.44,0.934 -3.258,3.68 -1.054,4.918c1.508,0.848 1.965,0.672 2.668,0.875c3.394,0.98 8.179,-5.024 4.371,-7.182c-2.978,-1.688 -8.897,0.276 -12.146,0.584c-7.624,0.718 -15.252,1.386 -22.874,2.135c-11.286,1.109 -22.561,1.902 -33.879,2.6c-11.579,0.713 -23.418,0.553 -34.89,2.324c-1.828,0.285 -4.617,4.045 -1.555,4.552Z" style="fill:#010101;fill-rule:nonzero;"/><path d="M180.305,467.643c9.294,2.281 19.983,0.601 29.382,-0.293c10.301,-0.979 20.61,-1.693 30.922,-2.534c8.974,-0.732 17.961,-1.86 26.951,-2.304c2.729,-0.135 5.455,-0.536 8.171,-0.833c1.317,-0.144 2.62,-0.25 3.945,-0.267c0.526,-0.019 1.053,-0.021 1.579,-0.008c3.106,0.036 -1.738,-0.17 -1.127,-2.555c-0.442,1.727 0.913,3.144 2.629,2.995c6.179,-0.534 7.43,-9.218 0.299,-8.845c-8.012,0.42 -16.131,1.7 -24.116,2.512c-12.648,1.286 -25.326,2.317 -37.965,3.682c-13.138,1.418 -27.015,1.964 -39.902,4.867c-1.494,0.337 -2.823,3.078 -0.768,3.583Z" style="fill:#010101;fill-rule:nonzero;"/><path d="M173.566,418.733c0.02,0.152 0.038,0.305 0.057,0.457c0.11,0.898 0.627,1.619 1.565,1.783c8.415,1.471 17.452,0.693 25.949,0.438c9.782,-0.294 19.563,-0.88 29.335,-1.405c20.113,-1.082 40.223,-2.129 60.357,-2.721c4.635,-0.136 7.843,-8.415 1.785,-8.334c-3.202,0.043 -6.285,0.373 -9.305,1.459c-1.626,0.585 -4.553,4.068 -1.827,5.313c2.989,1.365 6.096,1.518 9.347,1.562c0.595,-2.778 1.19,-5.556 1.785,-8.334c-21.944,0.622 -43.854,2.337 -65.764,3.637c-10.791,0.64 -21.588,1.177 -32.385,1.712c-2.941,0.145 -21.565,-0.991 -20.899,4.433Z" style="fill:#010101;fill-rule:nonzero;"/><path d="M172.86,410.231c18.188,2.841 37.838,-0.326 56.079,-1.736c9.563,-0.739 19.132,-1.411 28.716,-1.822c9.534,-0.409 19.541,-1.021 29.023,0.238c0.946,-2.766 1.893,-5.532 2.839,-8.299c-3.373,0.268 -5.91,1.746 -8.928,3.114c-1.238,0.562 -2.987,3.64 -0.94,4.392c2.751,1.011 5.171,1.074 8.079,0.842c4.552,-0.364 7.91,-8.505 1.789,-8.348c-9.434,0.242 -18.855,-0.172 -28.3,0.231c-9.597,0.41 -19.177,1.19 -28.747,1.997c-9.651,0.813 -19.294,1.72 -28.953,2.442c-9.695,0.726 -19.47,0.935 -29.089,2.363c-1.85,0.275 -4.647,4.105 -1.568,4.586Z" style="fill:#010101;fill-rule:nonzero;"/><path d="M352.494,406.414c12.036,1.258 24.744,-1.661 36.695,-2.909c6.088,-0.637 12.22,-1.256 18.348,-1.238c3.377,0.01 7.938,2.215 9.947,-2.057c2.327,-4.946 -3.654,-5.498 -6.952,-5.41c-5.896,0.156 -11.715,0.631 -17.578,1.313c-12.915,1.502 -25.763,3.586 -38.675,5.082c-2.17,0.25 -5.229,4.859 -1.785,5.219Z" style="fill:#010101;fill-rule:nonzero;"/><path d="M349.621,415.23c5.239,1.539 10.914,1.115 16.312,1.015c6.765,-0.126 13.526,-0.572 20.281,-0.944c5.753,-0.317 11.506,-0.643 17.263,-0.895c4.344,-0.189 10.71,1.104 14.019,-2.357c0.969,-1.014 1.854,-2.331 1.324,-3.801c-1.423,-3.95 -7.922,-2.192 -11.064,-2.02c-6.126,0.337 -12.243,0.825 -18.36,1.289c-12.697,0.962 -26.519,0.405 -38.887,3.577c-1.759,0.451 -3.222,3.45 -0.888,4.136Z" style="fill:#010101;fill-rule:nonzero;"/><path d="M345.064,458.357c1.959,4.608 11.219,5.093 15.419,5.462c8.1,0.711 16.235,0.244 24.315,-0.473c16.267,-1.444 32.348,-4.385 48.615,-5.746c-0.144,-2.553 -0.287,-5.104 -0.43,-7.654c-1.262,0.599 -2.678,1.014 -4.005,1.459c-1.71,0.576 -5.228,4.797 -2.052,5.97c2.71,1.001 4.839,0.844 7.598,0.001c3.711,-1.135 6.409,-8.707 0.682,-8.146c-15.363,1.507 -30.583,4.79 -45.929,6.579c-7.944,0.925 -15.952,1.504 -23.954,1.471c-3.441,-0.014 -6.867,-0.275 -10.285,-0.649c-2.863,-0.313 -5.793,-1.21 -8.628,-0.437c-0.804,0.219 -1.719,1.284 -1.346,2.163Z" style="fill:#010101;fill-rule:nonzero;"/><path d="M347.192,475.872c8.102,2.96 17.759,1.014 26.017,-0.346c9.893,-1.629 19.433,-3.201 29.488,-3.201c7.534,0.001 15.019,-0.444 22.539,-0.184c4.388,0.153 11.664,-0.457 11.438,-6.553c-0.034,-0.91 -0.554,-1.964 -1.429,-2.351c-1.144,-0.505 -2.145,-0.604 -3.383,-0.471c-1.744,0.187 -4.189,2.038 -3.822,4.062c0.047,0.258 -0.02,1.584 0.181,0.729c0.616,-1 1.232,-2.003 1.849,-3.004c0.972,-0.895 2.431,-0.994 0.691,-0.768c-0.91,0.119 -1.843,0.116 -2.76,0.139c-2.204,0.055 -4.413,-0.033 -6.617,-0.051c-7.434,-0.057 -15.043,0.498 -22.498,0.68c-8.17,0.199 -16.115,2.073 -24.104,3.631c-8.559,1.666 -17.272,2.293 -25.81,3.926c-1.156,0.221 -4.031,2.939 -1.78,3.762Z" style="fill:#010101;fill-rule:nonzero;"/><path d="M362.953,353.453c7.5,1.349 15.656,-1.078 23.102,-2.036c3.465,-0.445 7.061,-0.293 10.441,-1.073c-0.823,-0.04 -1.646,-0.079 -2.469,-0.118c0.03,0.018 0.061,0.037 0.091,0.057c-0.358,-0.902 -0.718,-1.804 -1.076,-2.705c0.791,-2.66 -0.146,0.066 -0.328,0.637c-0.15,0.472 -0.032,1.207 0.337,1.563c1.021,0.986 2.179,0.982 3.488,0.623c1.439,-0.396 2.925,-1.855 3.163,-3.362c0.853,-5.397 -6.92,-3.117 -9.71,-2.702c-8.473,1.264 -17.037,2.752 -25.437,4.434c-1.799,0.356 -4.822,4.103 -1.602,4.682Z" style="fill:#010101;fill-rule:nonzero;"/><path d="M368.158,344.071c4.561,0.887 9.01,1.116 13.654,1.044c4.086,-0.063 8.301,0.266 10.862,-3.372c0.416,-0.59 0.826,-1.5 0.478,-2.227c-0.092,-0.191 -0.184,-0.383 -0.275,-0.574c-0.537,-1.118 -1.592,-1.729 -2.848,-1.589c-6.78,0.753 -13.602,1.028 -20.326,2.2c-1.801,0.314 -4.599,3.923 -1.545,4.518Z" style="fill:#010101;fill-rule:nonzero;"/><path d="M374.49,324.335c-2.51,26.132 1.212,52.285 1.137,78.497c-0.072,25.624 -1.935,51.305 3.138,76.624c1.015,5.062 7.784,1.444 7.768,-2.49c-0.009,-2.075 -0.148,-3.395 -1.433,-5.039c-1.486,-1.905 -4.281,0.218 -5.07,1.663c-1.078,1.979 -1.255,3.623 -1.265,5.866c2.529,-1.119 5.059,-2.237 7.588,-3.356c-5.863,-23.838 -4.105,-49.159 -4.479,-73.5c-0.402,-26.174 -2.719,-52.654 -5.512,-78.643c-0.122,-1.128 -1.791,-0.473 -1.872,0.378Z" style="fill:#010101;fill-rule:nonzero;"/><path d="M381.121,330.583c-1.928,12.226 -1.224,24.879 -0.771,37.194c0.464,12.662 1.346,25.306 2.184,37.948c1.688,25.476 4.182,51.378 3.174,76.923c-0.213,5.381 8.029,1.456 8.348,-2.676c0.129,-1.67 -0.166,-3.207 -0.649,-4.804c-1.205,-3.979 -6.538,-0.031 -7.144,2.302c-0.444,1.708 -0.697,3.413 -0.555,5.178c2.782,-0.892 5.565,-1.784 8.348,-2.676c-1.101,-24.952 -2.086,-49.791 -4.047,-74.706c-0.99,-12.581 -1.927,-25.165 -2.822,-37.753c-0.885,-12.453 -0.812,-25.241 -2.979,-37.555c-0.328,-1.851 -2.865,-0.782 -3.087,0.625Z" style="fill:#010101;fill-rule:nonzero;"/><path d="M417.577,387.387c-1.852,7.698 -1.485,16.039 -1.563,23.906c-0.091,9.1 0.307,18.223 0.614,27.314c0.308,9.109 0.673,18.216 0.95,27.326c0.281,9.245 1.074,18.898 0.134,28.117c2.829,-0.571 5.658,-1.143 8.487,-1.715c-0.332,-1.759 -0.998,-3.224 -1.563,-4.9c-1.473,-4.377 -7.785,0.156 -7.697,3.406c0.039,1.483 0.46,2.796 0.686,4.244c0.855,5.5 9.076,1.685 8.574,-2.75c-0.998,-8.829 -0.814,-17.902 -1.309,-26.782c-0.504,-9.025 -1.136,-18.044 -1.734,-27.063c-0.599,-9.011 -1.141,-18.025 -1.521,-27.049c-0.342,-8.145 0.066,-16.85 -1.619,-24.84c-0.293,-1.381 -2.255,0.023 -2.439,0.786Z" style="fill:#010101;fill-rule:nonzero;"/><path d="M221.49,23.065c17.373,-4.729 35.71,-3.779 52.371,3.01c7.578,3.088 14.568,7.694 19.955,13.877c2.674,3.069 4.679,6.584 6.209,10.342c0.889,2.182 1.471,4.479 1.882,6.792c0.397,2.232 0.017,4.544 0.991,6.608c1.596,3.378 6.033,0.371 6.67,-2.149c1.004,-3.967 -0.947,-9.113 -2.346,-12.862c-1.582,-4.243 -4.009,-8.15 -6.873,-11.641c-5.68,-6.924 -13.857,-11.833 -22.215,-14.79c-17.786,-6.293 -38.872,-6.19 -56.699,-0.206c-0.6,0.201 -0.744,1.237 0.055,1.019Z" style="fill:#010101;fill-rule:nonzero;"/></g></svg>