<?xml version="1.0" encoding="UTF-8" standalone="no"?><!DOCTYPE svg PUBLIC "-//W3C//DTD SVG 1.1//EN" "http://www.w3.org/Graphics/SVG/1.1/DTD/svg11.dtd"><svg width="100%" height="100%" viewBox="0 0 339 515" version="1.1" xmlns="http://www.w3.org/2000/svg" xmlns:xlink="http://www.w3.org/1999/xlink" xml:space="preserve" style="fill-rule:evenodd;clip-rule:evenodd;stroke-linejoin:round;stroke-miterlimit:1.41421;"><g id="flower"><path d="M210.036,91.009c-3.714,-3.527 -7.043,-5.398 -11.938,-6.924c-5.369,-1.673 -11.139,-1.975 -16.727,-2.003c-11.408,-0.059 -22.942,2.91 -33.381,7.361c-19.855,8.467 -42.384,26.739 -39.831,50.805c2.511,23.667 28.979,33.306 49.376,34.18c23.98,1.028 49.82,-7.458 67.685,-23.62c9.714,-8.789 18.155,-20.807 17.367,-34.453c-0.779,-13.472 -12.046,-24.301 -24.94,-26.169c-3.904,-0.566 -10.082,4.801 -6.645,8.708c6.356,7.224 17.762,14.172 16.658,25.217c-1.066,10.685 -11.443,19.276 -19.955,24.538c-18.748,11.588 -46.299,16.677 -67.066,7.868c-8.709,-3.693 -17.326,-10.783 -18.991,-20.592c-1.823,-10.739 5.319,-19.929 13.055,-26.399c16.863,-14.105 41.531,-20.555 62.99,-15.728c2.974,0.669 5.976,0.972 8.954,1.655c1.911,0.435 5.268,-2.66 3.389,-4.444Z" style="fill-rule:nonzero;"/><path d="M170.627,84.168c1.645,-17.96 7.965,-34.194 18.998,-48.5c9.142,-11.855 24.287,-25.968 40.543,-24.564c17.28,1.491 16.241,25.344 11.305,36.95c-7.251,17.049 -23.967,25.627 -35.627,38.956c-2.533,2.896 -0.162,6.087 3.253,5.351c10.581,-2.282 18.771,-9.158 26.405,-16.585c8.163,-7.941 15.157,-17.319 19.058,-28.094c6.109,-16.875 3.693,-44.227 -18.402,-46.905c-20.076,-2.435 -38.894,13.396 -50.926,27.555c-12.285,14.458 -25.753,37.926 -19.493,57.413c0.802,2.494 4.717,0.284 4.886,-1.577Z" style="fill-rule:nonzero;"/><path d="M161.264,89.593c0.546,-3.935 1.637,-7.725 2.145,-11.679c0.578,-4.503 0.783,-9.119 1.042,-13.65c0.507,-8.879 0.65,-17.848 -0.967,-26.628c-3.476,-18.867 -17.245,-30.856 -36.198,-33.305c-15.025,-1.94 -28.273,5.984 -35.012,19.271c-6.709,13.228 -5.998,29.429 -2.413,43.406c2.373,9.252 6.762,18.142 12.721,25.609c5.688,7.128 14.886,14.881 24.359,15.514c4.667,0.312 12.573,-6.975 6.47,-10.631c-6.312,-3.78 -12.438,-6.267 -17.661,-11.695c-5.155,-5.357 -8.888,-11.776 -11.648,-18.641c-4.934,-12.267 -6.983,-27.701 -1.815,-40.209c2.035,-4.925 5,-8.563 9.173,-10.334c6.849,-2.905 15.194,-1.768 22.006,0.62c18.308,6.417 22.123,24.938 22.522,42.234c0.131,5.639 -0.071,11.285 -0.109,16.924c-0.035,5.075 0.938,9.377 2.05,14.269c0.405,1.793 3.172,0.1 3.335,-1.075Z" style="fill-rule:nonzero;"/><path d="M126.323,108.887c-4.725,-8.39 -14.675,-12.534 -23.408,-15.417c-10.805,-3.566 -22.241,-5.317 -33.582,-5.874c-20.899,-1.026 -40.74,4.644 -56.855,18.327c-6.816,5.788 -13.741,14.795 -11.619,24.278c2.183,9.75 13.629,13.932 22.176,16.215c20.778,5.55 44.564,3.023 65.106,-2.28c9.882,-2.551 21.789,-6.156 27.874,-14.919c2.258,-3.251 0.65,-7.837 -3.859,-6.349c-8.395,2.771 -16.057,6.919 -24.666,9.233c-10.314,2.772 -21.064,3.967 -31.72,4.304c-8.022,0.253 -49.811,-0.935 -41.22,-17.182c3.83,-7.245 13.509,-12.261 20.58,-15.552c8.396,-3.908 17.463,-5.325 26.644,-5.686c11.042,-0.435 22.085,1.159 32.755,3.929c9.913,2.572 19.019,7.066 28.657,10.314c1.486,0.503 3.996,-1.813 3.137,-3.341Z" style="fill-rule:nonzero;"/><path d="M112.357,137.687c-10.581,-3.873 -22.121,0.766 -31.88,5.104c-11.838,5.261 -22.701,13.302 -32.311,21.901c-9.002,8.055 -17.803,17.347 -23.94,27.812c-4.349,7.413 -8.011,17.28 -4.038,25.635c3.738,7.862 12.798,10.438 20.848,10.617c12.15,0.271 23.876,-4.092 34.869,-8.832c12.44,-5.364 24.057,-12.108 34.859,-20.285c9.646,-7.301 21.298,-17.438 25.823,-28.948c0.657,-1.672 1.088,-3.454 1.583,-5.178c1.221,-4.246 -4.533,-4.704 -6.752,-2.406c-7.391,7.656 -13.965,16.072 -21.973,23.127c-8.244,7.265 -17.557,13.135 -27.293,18.176c-9.252,4.791 -19.465,9.292 -29.792,11.033c-6.237,1.052 -14.595,1.476 -19.12,-3.809c-4.134,-4.826 -0.211,-12.507 2.304,-17.02c4.712,-8.456 12.119,-15.955 19.069,-22.576c7.951,-7.575 16.662,-14.305 26.216,-19.732c9.669,-5.493 20.088,-8.37 30.567,-11.827c0.804,-0.265 2.444,-2.249 0.961,-2.792Z" style="fill-rule:nonzero;"/><path d="M223.224,95.879c9.358,-14.183 25.395,-21.108 41.067,-26.129c14.16,-4.537 33.057,-9.403 47.277,-2.818c8.868,4.107 14.563,12.479 14.322,22.288c-0.234,9.635 -7.948,15.839 -15.789,19.918c-9.973,5.189 -21.642,7.294 -32.667,8.817c-5.69,0.786 -11.419,1.294 -17.146,1.712c-5.84,0.426 -11.972,0.244 -17.711,1.457c-2.498,0.528 -4.661,1.709 -7.067,2.506c-2.979,0.985 -5.93,6.151 -1.591,7.422c2.124,0.622 3.856,1.668 6.105,1.985c2.583,0.364 5.365,0.044 7.962,-0.027c6.035,-0.165 12.083,-0.729 18.088,-1.329c11.93,-1.192 23.909,-3.192 35.334,-6.891c19.225,-6.223 40.814,-21.994 36.575,-44.953c-3.478,-18.834 -21.885,-27.161 -39.331,-26.534c-18.688,0.671 -37.915,6.853 -54.311,15.613c-9.384,5.013 -24.51,14.583 -24.517,26.798c0.001,1.954 2.712,1.208 3.4,0.165Z" style="fill-rule:nonzero;"/><path d="M138.973,166.529c-9.11,8.119 -16.543,18.439 -23.267,28.555c-7.071,10.638 -12.923,22.073 -15.667,34.621c-3.859,17.652 0.838,42.188 22.509,43.923c20.828,1.667 37.022,-15.092 46.724,-31.522c6.357,-10.766 10.008,-23.153 12.242,-35.38c1.117,-6.109 1.716,-12.297 2.193,-18.484c0.458,-5.937 1.188,-12.976 -1.352,-18.538c-1.805,-3.951 -7.656,-1.388 -8.827,1.798c-3.452,9.394 -2.508,20.241 -3.757,30.099c-1.371,10.806 -3.975,21.436 -8.422,31.396c-6.104,13.672 -17.39,28.521 -33.784,28.661c-17.642,0.152 -18.097,-23.963 -15.562,-35.902c2.327,-10.964 7.934,-21.314 13.817,-30.742c5.493,-8.802 12.366,-17.074 16.575,-26.608c1.099,-2.485 -1.766,-3.353 -3.422,-1.877Z" style="fill-rule:nonzero;"/><path d="M178.696,171.414c-5.802,19.142 -2.369,40.209 5.685,58.215c7.993,17.871 23.068,34.938 44.089,35.001c23.502,0.07 31.883,-28.581 28.4,-47.359c-2.092,-11.287 -7.074,-21.854 -12.994,-31.61c-6.271,-10.337 -13.787,-20.162 -23.55,-27.433c-3.521,-2.622 -7.72,-3.54 -11.953,-4.374c-2.738,-0.54 -7.041,3.462 -4.647,6.091c3.134,3.443 5.748,7.005 9.151,10.234c3.821,3.627 7.297,7.562 10.61,11.65c6.788,8.376 12.279,17.741 16.425,27.684c3.505,8.407 5.727,17.454 4.449,26.587c-0.979,7.009 -4.176,15.2 -12.08,16.153c-7.836,0.944 -16.616,-4.012 -22.297,-8.977c-6.884,-6.017 -11.884,-13.928 -15.739,-22.132c-7.146,-15.201 -11.838,-33.778 -10.852,-50.68c0.179,-3.059 -4.176,-0.772 -4.697,0.95Z" style="fill-rule:nonzero;"/><path d="M212.453,163.162c8.943,7.674 17.127,15.924 26.556,23.09c9.334,7.095 19.898,13.222 31.024,17.002c20.418,6.936 50.612,7.681 63.163,-13.326c5.338,-8.935 1.49,-19.401 -4.084,-27.063c-6.596,-9.063 -16.917,-15.834 -26.542,-21.257c-10.501,-5.917 -21.938,-10.231 -33.503,-13.544c-11.359,-3.254 -23.055,-5.314 -34.624,-2.189c-3.163,0.854 -5.522,5.87 -1.548,7.221c8.479,2.882 17.301,4.094 26.007,6.22c10.301,2.516 20.243,6.288 29.757,10.949c8.394,4.112 16.49,9.084 23.435,15.372c5.208,4.716 13.457,13.46 10.108,21.277c-2.84,6.629 -13.764,8.193 -19.849,8.776c-10.753,1.03 -21.528,-1.105 -31.579,-4.86c-9.876,-3.688 -18.92,-9.229 -27.851,-14.75c-9.027,-5.58 -18.161,-10.91 -27.231,-16.392c-1.692,-1.023 -4.911,2.039 -3.239,3.474Z" style="fill-rule:nonzero;"/><path d="M134.622,117.662c0.025,0.141 0.051,0.282 0.076,0.422c0.132,-0.617 0.264,-1.233 0.396,-1.85c-0.039,0.07 -0.076,0.141 -0.114,0.211c-0.687,1.272 -0.61,2.81 0.251,3.958c1.645,2.194 3.925,3.146 6.572,3.566c3.952,0.628 7.027,-0.63 10.178,-2.92c3.24,-2.353 3.05,-8.148 -1.711,-7.947c-1.654,0.07 -3.857,0.553 -5.672,0.384c-2.398,-0.224 -5.106,-1.116 -7.262,0.358c0.951,-0.194 1.903,-0.388 2.855,-0.582c-0.165,-0.018 -0.33,-0.037 -0.495,-0.055c-2.209,-0.244 -5.539,1.859 -5.074,4.455Z" style="fill-rule:nonzero;"/><path d="M136.214,129.648c0.636,-0.962 0.604,-0.884 -0.097,0.233c-0.201,0.463 -0.342,0.943 -0.422,1.439c-0.169,0.823 -0.355,2.554 0.059,3.53c0.748,1.763 1.935,3.127 3.72,3.889c5.04,2.152 11.598,-0.406 14.157,-5.086c1.017,-1.859 0.488,-3.789 -1.117,-5.004c-1.234,-0.935 -2.694,-0.78 -3.725,-0.697c-0.484,0.098 -0.969,0.195 -1.453,0.292c0.555,-0.12 0.509,-0.123 -0.137,-0.011c-0.493,0.1 -0.986,0.198 -1.479,0.298c0.621,-0.13 0.61,-0.15 -0.029,-0.06c-0.456,0.049 -0.925,0.031 -1.383,0.048c1.326,-0.049 -0.639,-0.311 0.387,0.049c-0.992,-0.348 -1.953,-0.754 -2.943,-1.094c0.544,0.298 1.088,0.597 1.633,0.895c-0.708,-0.826 -1.51,-1.329 -2.59,-1.497c0.426,0.233 0.852,0.467 1.277,0.7c-0.106,-0.137 -0.213,-0.274 -0.318,-0.411c-1.643,-2.117 -5.253,0.493 -5.54,2.487Z" style="fill-rule:nonzero;"/><path d="M161.36,143.432c2.604,1.513 4.651,2.396 7.707,2.478c3.439,0.092 7.365,-1.789 9.221,-4.723c1.232,-1.949 1.803,-5.317 -1.309,-5.861c-3.885,-0.68 -8.268,1.058 -12.339,1.174c-2.862,0.082 -6.709,4.942 -3.28,6.932Z" style="fill-rule:nonzero;"/><path d="M177.744,120.705c-1.966,3.028 0.594,5.656 3.233,6.131c2.36,0.425 4.383,0.26 6.559,-0.867c1.669,-0.863 3.055,-2.638 3.448,-4.476c0.375,-1.748 -0.239,-3.036 -1.618,-4.065c-1.697,-1.268 -4.699,-0.757 -6.634,-0.313c-0.776,0.179 -1.626,0.555 -2.313,0.911c-0.773,0.401 -1.691,1.1 -2.176,1.844c0.232,-0.245 0.465,-0.49 0.698,-0.735c-0.507,0.443 -0.905,0.966 -1.197,1.57Z" style="fill-rule:nonzero;"/><path d="M195.137,110.899c0.333,0.13 0.615,0.329 0.897,0.547c-0.289,-0.229 -0.577,-0.459 -0.866,-0.688c0.167,0.139 0.327,0.281 0.485,0.43c-0.198,-0.33 -0.397,-0.66 -0.596,-0.99c0.529,0.94 0.751,1.304 1.64,1.934c0.21,0.148 0.414,0.3 0.615,0.458c-0.315,-0.251 -0.631,-0.502 -0.947,-0.753c0.51,0.421 0.992,0.881 1.563,1.218c0.785,0.397 1.616,0.554 2.494,0.469c0.464,-0.093 0.929,-0.187 1.393,-0.28c0.489,-0.1 0.261,-0.047 -0.686,0.159c1.269,0.058 2.762,-0.851 3.664,-1.643c1.14,-1 2.523,-2.945 2.203,-4.593c-0.033,0.281 -0.066,0.562 -0.1,0.843c0.078,-0.491 0.114,-0.983 0.105,-1.479c-0.006,-1.398 -0.811,-2.245 -1.839,-3.025c-0.621,-0.472 -1.648,-0.72 -2.343,-0.949c-0.569,-0.188 -2.596,-0.277 -0.795,-0.089c-0.552,-0.058 -1.171,-0.078 -1.701,-0.088c-0.819,-0.016 -1.566,0.147 -2.374,0.338c-1.653,0.39 -3.178,1.912 -3.88,3.404c-0.68,1.449 -0.795,4.05 1.068,4.777Z" style="fill-rule:nonzero;"/><path d="M201.184,126.054c1.376,-0.643 0.699,-0.306 0.342,-0.19c0.756,-0.062 1.511,-0.123 2.267,-0.184c-1.398,-0.124 -2.977,-0.03 -4.187,0.813c-1.041,0.726 -1.923,1.399 -2.664,2.44c-0.082,0.113 -0.168,0.224 -0.257,0.332c-0.518,0.648 0.89,-0.894 0.283,-0.306c-1.275,1.236 -2.054,2.716 -1.595,4.487c0.551,2.119 4.326,2.07 5.761,1.611c1.515,-0.484 2.91,-1.511 3.868,-2.774c0.236,-0.389 0.473,-0.777 0.709,-1.167c-0.442,0.627 -0.541,0.75 -0.295,0.371c0.282,-0.45 0.572,-0.904 0.816,-1.378c0.598,-1.166 0.666,-2.764 -0.24,-3.797c-1.287,-1.469 -3.292,-0.966 -4.808,-0.258Z" style="fill-rule:nonzero;"/><path d="M169.004,111.773c0.152,0.023 0.304,0.046 0.456,0.069c0.978,0.149 1.751,-0.07 2.638,-0.511c0.944,-0.469 1.729,-1.504 1.948,-2.529c0.207,-0.967 -0.122,-1.741 -0.914,-2.297c-0.669,-0.47 -1.489,-0.352 -2.241,-0.247c-1.366,0.191 -2.584,1.026 -3.179,2.292c-0.58,1.233 -0.286,2.982 1.292,3.223Z" style="fill-rule:nonzero;"/><path d="M142.75,150.009c3.854,0 6.477,-6.894 1.477,-6.894c-3.854,0.001 -6.477,6.894 -1.477,6.894Z" style="fill-rule:nonzero;"/><path d="M132.116,132.438c3.392,0 5.698,-6.064 1.3,-6.064c-3.392,0 -5.699,6.064 -1.3,6.064Z" style="fill-rule:nonzero;"/><path d="M185.732,152.812c3.391,0 5.697,-6.064 1.299,-6.064c-3.391,-0.001 -5.698,6.064 -1.299,6.064Z" style="fill-rule:nonzero;"/><path d="M169.475,226.832c-11.848,20.639 -17.128,44.232 -19.73,67.768c-2.714,24.537 -2.402,49.262 0.42,73.771c5.507,47.839 21.19,95.605 47.682,135.974c3.795,-3.33 7.588,-6.658 11.383,-9.988c-5.203,-5.1 -10.21,-9.678 -17.288,-11.771c-4.659,-1.378 -9.058,4.952 -6.729,8.818c3.188,5.295 8.259,8.667 12.634,12.941c5.509,5.379 15.479,-3.77 11.383,-9.988c-25.539,-38.764 -40.225,-84.188 -46.883,-129.891c-3.387,-23.246 -4.381,-46.96 -2.672,-70.394c1.656,-22.712 6.689,-45.004 11.521,-67.16c0.269,-1.24 -1.344,-0.736 -1.721,-0.08Z" style="fill-rule:nonzero;"/><path d="M36.826,307.221c6.116,-7.835 19.53,-5.742 28.402,-4.234c12.03,2.046 23.827,5.5 34.432,11.635c12.38,7.162 22.253,17.757 29.868,29.758c3.979,6.271 7.168,13.083 9.857,19.992c2.566,6.592 3.709,14.421 8.513,19.743c2.238,2.48 6.146,-0.539 6.717,-3.011c1.829,-7.918 -1.014,-15.814 -3.809,-23.242c-2.938,-7.807 -6.8,-15.21 -11.366,-22.181c-8.994,-13.732 -21.645,-25.155 -36.456,-32.271c-12.468,-5.989 -26.931,-8.91 -40.695,-9.576c-9.264,-0.449 -27.801,0.085 -29.242,12.674c-0.29,2.527 2.629,2.186 3.779,0.713Z" style="fill-rule:nonzero;"/><path d="M32.387,310.465c14.655,-1.598 27.659,5.315 39.578,13.074c10.784,7.02 21.082,15.134 31.323,22.922c11.742,8.93 23.085,18.492 33.124,29.326c8.496,9.171 17.516,20.563 18.563,33.505c0.7,8.642 14.162,2.709 13.484,-4.322c-1.371,-14.216 -10.082,-26.362 -19.414,-36.642c-11.149,-12.281 -24.42,-22.647 -37.736,-32.455c-11.131,-8.198 -22.428,-16.537 -34.445,-23.391c-12.439,-7.095 -30.997,-15.678 -44.792,-7.61c-2.099,1.228 -3.525,6.013 0.315,5.593Z" style="fill-rule:nonzero;"/><path d="M337.219,287.89c-15.065,-9.416 -37.885,-4.267 -53.469,1.22c-19.833,6.982 -37.795,18.867 -53.39,32.822c-30.403,27.205 -56.295,66.238 -59.601,107.808c-0.745,9.377 -2.2,27.519 8.148,31.991c3.499,1.512 8.277,-1.872 7.982,-5.74c-0.4,-5.258 -1.969,-10.35 -2.485,-15.605c-0.455,-4.627 -0.4,-9.295 -0.087,-13.928c0.613,-9.041 2.926,-18.206 5.933,-26.727c6.928,-19.631 18.275,-37.435 31.651,-53.279c13.347,-15.811 29.615,-29.509 47.696,-39.592c8.496,-4.737 17.493,-8.326 26.863,-10.917c9.139,-2.526 17.919,-2.521 27.27,-2.839c3.716,-0.127 7.431,-0.108 11.144,-0.262c2.09,-0.086 4.737,-3.457 2.345,-4.952Z" style="fill-rule:nonzero;"/><path d="M337.022,290.294c-7.878,-4.179 -18.767,-0.292 -26.279,3.14c-9.975,4.557 -18.929,10.783 -27.431,17.66c-7.956,6.435 -15.321,13.531 -22.603,20.707c-8.582,8.456 -17.197,16.632 -24.919,25.924c-14.968,18.012 -26.769,38.952 -34.714,60.956c-4.008,11.101 -7.002,22.508 -8.906,34.153c-0.953,5.832 -1.512,11.722 -1.916,17.615c-0.322,4.701 0.595,9.819 -0.695,14.412c-0.728,2.59 0.875,5.262 3.515,5.752c3.64,0.675 7.362,-2.01 8.875,-5.173c3.786,-7.92 1.758,-18.776 2.754,-27.34c1.294,-11.128 3.827,-22.09 7.178,-32.77c6.623,-21.11 17.63,-40.89 31.017,-58.425c12.088,-15.836 26.791,-29.879 41.244,-43.549c7.536,-7.128 15.614,-14.015 24.563,-19.312c8.584,-5.081 17.464,-6.724 26.846,-9.468c1.479,-0.431 3.512,-3.199 1.471,-4.282Z" style="fill-rule:nonzero;"/><path d="M73.903,436.042c10.017,-3.102 22.049,-1.064 31.961,1.362c13.178,3.226 25.619,9.034 37.367,15.714c11.789,6.703 22.671,14.922 32.114,24.662c4.005,4.129 7.62,8.636 10.722,13.48c2.801,4.374 3.845,9.719 6.91,13.856c2.546,3.438 8.601,-0.794 8.95,-4.013c1.22,-11.233 -9.185,-23.17 -16.302,-30.83c-10.008,-10.772 -22.381,-19.535 -35.137,-26.737c-22.525,-12.72 -52.565,-22.909 -77.404,-11.439c-2.189,1.011 -2.055,4.835 0.819,3.945Z" style="fill-rule:nonzero;"/><path d="M70.036,434.856c2.771,4.693 8.294,7.96 12.712,10.99c6.045,4.146 12.351,7.939 18.519,11.9c11.779,7.563 22.783,15.74 33.621,24.582c10.928,8.914 22.438,16.431 35.006,22.85c4.74,2.421 9.532,4.326 14.628,5.836c1.921,0.569 3.884,1.055 5.774,1.724c0.758,0.268 1.874,0.929 2.645,0.972c1.866,0.104 -2.608,-1.252 -0.841,-4.37c-1.467,2.587 0.378,4.891 3.028,4.954c4.406,0.106 7.41,-4.523 6.445,-8.489c-0.953,-3.912 -7.53,-4.672 -10.693,-5.566c-13.572,-3.835 -26.672,-11.08 -38.244,-19.041c-12.676,-8.722 -24.295,-18.538 -37.648,-26.295c-6.955,-4.04 -14.031,-7.87 -21.057,-11.785c-6.633,-3.696 -14.028,-9.271 -21.53,-10.78c-1.088,-0.22 -3.094,1.287 -2.365,2.518Z" style="fill-rule:nonzero;"/><path d="M207.932,34.854c-0.945,0.197 0.682,0.109 0.99,0.086c0.607,-0.046 1.207,-0.069 1.816,-0.049c-0.644,-0.021 0.525,0.112 0.64,0.128c0.187,0.03 0.37,0.07 0.551,0.12c-0.891,-0.22 -0.192,-0.045 0.039,0.061c0.935,0.429 -0.227,-0.32 0.154,0.104c-0.298,-0.554 -0.356,-0.637 -0.174,-0.247c0.104,0.232 0.271,1.108 0.063,-0.008c0.103,0.554 0.029,1.125 0.033,1.683c0.006,0.853 0.206,1.7 0.424,2.525c0.371,1.407 2.085,1.979 3.361,1.876c2.232,-0.181 3.888,-1.72 4.951,-3.569c2.189,-3.809 0.988,-8.95 -3.459,-10.227c-1.906,-0.547 -4.25,-0.042 -5.978,0.843c-0.683,0.35 -1.344,0.689 -1.987,1.109c-1.041,0.679 -1.767,1.503 -2.707,2.269c-1.686,1.373 -0.988,3.77 1.283,3.296Z" style="fill-rule:nonzero;"/><path d="M287.117,81.336c0.225,0.664 0.139,1.53 0.337,2.226c0.201,0.708 0.467,1.411 0.546,2.138c0.119,1.106 -0.495,2.834 -0.823,3.796c-1.014,2.97 2.889,4.073 4.87,2.72c2.888,-1.972 5.069,-4.425 4.61,-8.162c-0.172,-1.407 -0.81,-2.512 -1.62,-3.646c-1.133,-1.587 -2.551,-1.712 -4.183,-2.351c-1.854,-0.726 -4.434,1.219 -3.737,3.279Z" style="fill-rule:nonzero;"/><path d="M61.259,187.593c-0.823,-0.464 -1.648,-0.574 -2.55,-0.223c0.488,-0.039 0.978,-0.079 1.466,-0.118c-0.034,-0.002 -0.069,-0.004 -0.104,-0.006c-1.12,-0.059 -2.027,0.046 -3.027,0.616c-1.267,0.723 -2.457,2.044 -2.716,3.525c-0.381,2.177 0.588,4.034 2.608,4.934c1.208,0.539 2.397,0.884 3.729,0.837c2.3,-0.082 4.023,-1.035 5.524,-2.771c-1.014,0.729 -2.028,1.458 -3.043,2.188c0.559,-0.2 1.102,-0.437 1.634,-0.698c1.019,-0.501 1.908,-1.529 2.385,-2.542c0.478,-1.014 0.759,-2.784 -0.23,-3.644c-0.358,-0.312 -0.73,-0.6 -1.124,-0.862c0.487,0.802 0.975,1.604 1.463,2.407c-0.064,-0.781 -0.29,-1.501 -0.819,-2.104c-0.612,-0.698 -1.392,-0.87 -2.228,-1.124c-0.611,-0.187 -1.2,-0.24 -1.835,-0.307c-0.47,-0.05 -0.927,-0.167 -1.395,-0.22c-0.598,-0.067 -2.403,-0.197 -0.54,-0.057c-0.35,-0.088 -0.146,-0.016 0.611,0.215c0.191,0.156 0.382,0.313 0.573,0.469c-0.25,-0.251 -0.527,-0.463 -0.831,-0.636c0.086,1.259 0.172,2.519 0.258,3.778c0.486,-0.589 0.714,-1.23 0.863,-1.965c0.136,-0.66 -0.056,-1.345 -0.672,-1.692Z" style="fill-rule:nonzero;"/><path d="M124.754,230.417c-0.025,0.101 -0.052,0.202 -0.078,0.303c0.402,-0.654 0.805,-1.308 1.207,-1.962c-2.055,1.857 -2.279,5.415 -0.426,7.518c1.875,2.129 5.814,2.887 8.188,1.292c1.868,-1.257 3.686,-3.736 2.062,-5.922c-0.731,-0.984 -1.937,-1.078 -3.052,-1.213c-0.332,-0.04 -0.655,-0.108 -0.979,-0.193c-0.601,-0.159 0.66,0.33 -0.21,-0.102c-0.255,-0.126 -0.477,-0.31 -0.706,-0.476c0.732,0.53 0.027,-0.017 -0.136,-0.211c-0.091,-0.108 -0.524,-0.859 -0.277,-0.333c-0.353,-0.748 -0.887,-1.108 -1.687,-1.271c0.471,0.378 0.941,0.756 1.412,1.134c-0.029,-0.083 -0.06,-0.166 -0.089,-0.248c-0.398,-1.112 -1.723,-1.307 -2.713,-0.99c-1.234,0.394 -2.19,1.428 -2.516,2.674Z" style="fill-rule:nonzero;"/></g></svg>