<?xml version="1.0" encoding="UTF-8"?>
<svg width="480px" height="452px" viewBox="0 0 480 452" version="1.1" xmlns="http://www.w3.org/2000/svg" xmlns:xlink="http://www.w3.org/1999/xlink">
    <!-- Generator: Sketch 41 (35326) - http://www.bohemiancoding.com/sketch -->
    <title>anger</title>
    <desc>Created with Sketch.</desc>
    <defs></defs>
    <g id="Page-1" stroke="none" stroke-width="1" fill="none" fill-rule="evenodd">
        <g id="Layer_1" transform="translate(-1679.000000, -4818.000000)" fill="#000000">
            <g id="Layer_1_3_">
                <g id="anger" transform="translate(1679.000000, 4818.000000)">
                    <path d="M43.015,178.1 C54.431,183.99 66.057,189.598 77.357,195.813 C89.616,202.555 101.652,209.69 113.935,216.393 C140.386,230.829 166.904,245.097 193.204,259.811 C196.175,254.93 199.144,250.049 202.115,245.168 C197.73,244.686 194.513,244.175 190.515,246.541 C186.986,248.629 184.589,252.877 186.999,256.636 C188.698,259.283 191.956,260.117 194.93,260.41 C198.727,260.783 202.236,259.086 204.543,256.043 C206.798,253.068 207.78,247.906 203.841,245.768 C177.253,231.338 150.115,217.853 123.03,204.387 C110.413,198.114 97.928,191.588 85.317,185.305 C73.251,179.294 60.55,173.401 47.216,171.197 C44.103,170.682 39.085,176.073 43.015,178.1 L43.015,178.1 Z" id="Shape"></path>
                    <path d="M415.97,164.7 C410.266,165.583 404.996,168.852 400.097,171.737 C393.735,175.483 387.33,179.159 380.914,182.813 C367.862,190.245 354.991,197.991 341.907,205.374 C315.55,220.243 289.061,234.876 263.074,250.391 C259.627,252.449 256.236,256.919 257.86,261.158 C259.56,265.592 264.597,264.704 267.968,263.19 C272.318,261.238 278.187,255.229 275.662,249.861 C273.06,244.33 266.329,248.917 263.074,250.391 C264.705,254.658 266.337,258.923 267.969,263.19 C293.424,247.882 319.202,233.116 344.669,217.828 C357.62,210.055 370.503,202.17 383.252,194.068 C389.584,190.045 395.704,185.647 401.815,181.298 C407.277,177.41 413.494,173.435 417.155,167.673 C417.857,166.565 417.896,164.401 415.97,164.7 L415.97,164.7 Z" id="Shape"></path>
                    <path d="M86.036,198.517 C79.604,202.1 77.351,210.721 76.611,217.485 C75.698,225.822 77.19,234.219 79.949,242.082 C85.755,258.623 99.115,270.948 115.424,276.831 C123.85,279.869 132.681,281.206 141.588,281.795 C150.682,282.398 160.624,282.886 169.561,280.855 C178.714,278.773 185.609,273.046 191.428,265.876 C193.716,263.057 197.101,260.983 197.914,257.189 C198.853,252.805 194.566,251.858 191.303,252.7 C188.226,253.493 185.036,258.505 188.544,260.725 C185.424,258.749 189.774,254.928 186.454,258.257 C185.398,259.316 184.393,260.422 183.387,261.528 C181.173,263.964 178.954,266.608 176.213,268.478 C170.24,272.553 161.342,271.865 154.484,271.764 C140.712,271.563 126.968,270.241 114.414,264.132 C102.454,258.313 93.509,247.727 88.708,235.461 C86.247,229.174 85.081,222.508 85.088,215.772 C85.093,210.029 87.691,204.852 88.121,199.278 C88.208,198.129 86.706,198.144 86.036,198.517 L86.036,198.517 Z" id="Shape"></path>
                    <path d="M274.567,248.948 C271.922,262.876 282.711,273.493 295.012,277.669 C308.177,282.138 323.451,279.249 336.082,274.435 C364.568,263.578 391.504,236.342 387.187,203.676 C386.703,200.013 385.779,196.39 384.612,192.889 C384.078,191.287 382.206,190.458 380.62,190.661 C376.81,191.147 373.529,192.804 371.43,196.12 C370.349,197.827 369.636,201.4 372.677,201.702 C374.859,201.919 376.335,201.186 378.422,200.919 C377.091,200.177 375.761,199.435 374.43,198.691 C384.031,227.462 363.442,252.165 338.361,263.612 C327.387,268.62 314.418,271.063 302.506,268.555 C297.466,267.493 292.594,265.085 288.805,261.583 C284.416,257.526 281.825,251.968 278.195,247.32 C277.089,245.904 274.809,247.672 274.567,248.948 L274.567,248.948 Z" id="Shape"></path>
                    <path d="M307.737,231.27 C301.562,242.842 316.675,250.154 326.299,249.549 C334.705,249.022 341.952,242.578 345.17,235.09 C347.547,229.559 348.586,221.402 342.726,217.67 C334.319,212.316 323.695,224.551 319.304,229.969 C317.584,232.09 316.714,235.651 318.692,237.906 C320.828,240.341 324.129,239.488 326.642,238.331 C330.857,236.39 335.416,235.31 339.647,233.346 C337.668,230.045 335.688,226.743 333.708,223.443 C330.194,226.25 327.337,229.791 323.722,232.459 C320.641,234.732 318.489,243.07 324.412,243.391 C339.229,244.196 345.847,230.751 344.43,217.577 C339.932,219.567 335.434,221.557 330.935,223.547 C332.351,226.672 330.975,225.388 332.334,223.738 C331.294,225 330.463,226.323 329.616,227.725 C328.323,229.868 328.815,233.145 331.101,234.383 C333.8,235.844 336.632,234.352 338.831,232.775 C344.692,228.569 347.142,222.799 344.11,216.037 C340.93,208.944 329.978,215.864 330.615,222.007 C330.843,224.202 330.936,226.341 330.593,228.527 C330.437,229.517 330.246,230.083 329.843,230.984 C330.192,230.203 332.075,230.275 330.633,230.193 C330.863,233.837 331.093,237.48 331.323,241.125 C334.947,238.468 337.814,234.936 341.337,232.141 C343.583,230.358 345.261,226.84 344.173,224.002 C342.706,220.174 338.314,220.895 335.398,222.237 C331.183,224.178 326.633,225.288 322.403,227.252 C324.849,230.039 327.295,232.826 329.741,235.613 C330.55,234.61 331.347,233.576 332.24,232.646 C332.681,232.185 335.475,229.791 334.498,230.478 C334.864,230.23 335.241,230.001 335.63,229.79 C334.737,230.139 334.657,230.179 335.388,229.911 C334.515,230.222 334.468,230.23 333.547,229.791 C332.271,229.181 333.533,230.16 332.922,229.032 C333.663,230.401 333.156,229.43 333.205,229.913 C333.229,230.229 333.238,230.547 333.232,230.864 C333.242,232.511 333.44,229.527 333.17,231.241 C333.106,231.6 333.029,231.957 332.94,232.311 C332.519,234.115 333.494,231.004 332.806,232.787 C332.518,233.532 332.141,234.239 331.753,234.936 C332.87,232.928 329.736,237.07 331.515,235.207 C331.218,235.505 330.908,235.788 330.585,236.057 C329.035,237.411 331.934,235.268 330.127,236.317 C329.922,236.436 329.139,236.651 329.062,236.663 C322.999,237.606 317.203,233.559 313.13,229.504 C311.35,227.729 308.68,229.504 307.737,231.27 L307.737,231.27 Z" id="Shape"></path>
                    <path d="M131.225,218.397 C122.561,223.574 120.308,233.901 129.417,239.757 C136.609,244.381 147.745,245.514 155.869,243.194 C162.348,241.343 166.011,230.315 156.972,230.024 C154.245,229.935 147.219,229.534 145.99,227.89 C144.373,225.727 142.643,223.647 140.762,221.708 C138.909,219.797 136.512,217.648 133.749,217.324 C128.246,216.678 123.753,220.915 122.434,225.972 C120.048,235.117 128.439,243.806 135.454,248.025 C145.177,253.873 156.415,252.023 163.842,243.664 C167.701,239.32 164.33,231.698 158.174,234.342 C155.255,235.594 151.318,237.11 148.472,234.755 C145.458,232.261 145.027,227.865 145.433,224.229 C145.969,219.432 142.621,217.342 138.175,218.374 C126.426,221.099 122.207,232.96 129.12,242.419 C136.703,252.796 150.749,251.413 158.716,242.597 C160.528,240.592 161.223,236.863 159.324,234.699 C156.679,231.685 152.319,233.486 149.736,235.476 C147.508,237.193 144.29,235.628 141.973,233.382 C140.917,232.359 139.609,230.47 139.445,229.517 C139.231,228.274 139.243,229.578 138.768,230.265 C137.358,232.3 136.231,231.788 138.87,231.206 C136.451,229.255 134.032,227.302 131.612,225.351 C130.716,232.592 131.289,240.802 137.336,245.806 C143.513,250.918 151.874,250.242 158.871,247.238 C156.981,244.131 155.092,241.023 153.203,237.916 C151.443,239.897 143.435,234.871 142.102,233.792 C139.81,231.938 137.946,229.654 136.841,226.926 C136.712,226.607 136.431,224.145 136.354,224.846 C133.796,229.942 130.701,231.885 127.068,230.676 C127.399,230.861 127.714,231.069 128.015,231.299 C129.688,232.485 132.519,236.283 134.275,238.637 C137.917,243.517 148.673,243.52 154.072,243.557 C154.439,239.167 154.807,234.778 155.175,230.387 C154.42,230.621 154.872,230.571 153.375,230.742 C152.151,230.882 150.871,230.92 149.642,230.846 C146.711,230.67 143.807,230.086 140.996,229.254 C137.347,228.174 133.595,226.93 135.718,223.519 C137.931,219.961 135.354,215.928 131.225,218.397 L131.225,218.397 Z" id="Shape"></path>
                    <path d="M120.187,358.795 C132.583,368.161 152.5,363.194 166.191,360.053 C182.395,356.332 198.251,350.852 214.049,345.717 C235.105,338.875 256.298,331.479 278.42,329.074 C300.827,326.639 322.224,331.434 340.479,344.896 C342.879,346.666 347.309,344.945 349.114,343.099 C352.286,339.857 356.377,337.917 359.73,334.894 C362.228,332.642 364.458,328.21 361.809,325.192 C359.184,322.201 354.445,323.771 351.918,325.994 C346.959,330.355 341.888,334.311 337.487,339.277 C332.46,344.949 338.804,351.738 345.023,347.864 C349.857,344.851 354.9,342.367 359.525,339.015 C364.857,335.152 362.767,325.054 355.264,328.062 C350.696,329.894 347.66,332.423 345.349,336.794 C343.957,339.425 345.531,343.499 349.02,342.799 C351.385,342.323 353.633,341.614 355.968,341.06 C354.548,337.409 353.128,333.757 351.707,330.107 C348.296,332.58 344.247,334.253 340.67,336.483 C343.182,339.345 345.694,342.208 348.206,345.07 C351.604,341.234 355.896,338.267 359.73,334.894 C357.126,331.927 354.522,328.96 351.918,325.994 C348.584,329.002 344.482,330.951 341.305,334.201 C344.183,333.602 347.062,333.004 349.94,332.404 C311.544,304.114 264.12,315.811 222.669,329.99 C206.274,335.598 189.942,341.572 173.379,346.666 C159.144,351.045 140.778,356.625 126.129,350.949 C121.844,349.29 115.751,355.444 120.187,358.795 L120.187,358.795 Z" id="Shape"></path>
                    <path d="M127.825,347.51 C124.262,343.684 117.8,346.241 114.554,349.297 C112.426,351.301 111.161,353.707 110.413,356.514 C110.088,357.735 110.049,359.06 110.106,360.319 C110.206,362.507 111.388,363.61 113.019,364.854 C114.109,365.684 116.086,365.436 117.265,365.059 C119.445,364.362 121.327,362.694 122.309,360.632 C123.185,358.793 123.482,357.131 123.476,355.112 C123.471,353.336 123.307,355.674 123.459,354.691 C123.636,353.541 122.834,356.187 123.471,354.571 C123.778,353.953 123.645,354.15 123.073,355.162 C123.517,354.609 123.346,354.783 122.562,355.685 C123.306,354.965 121.156,356.503 122.786,355.594 C124.143,354.837 125.369,354.088 126.616,353.145 C128.136,351.997 129.333,349.131 127.825,347.51 L127.825,347.51 Z" id="Shape"></path>
                    <path d="M183.85,248.313 C184.579,251.124 188.915,252.751 191.177,254.095 C195.197,256.485 199.052,259.063 203.184,261.28 C213.053,266.573 224.437,268.282 235.526,268.309 C246.495,268.336 257.408,265.373 267.639,261.651 C272.931,259.725 278.104,257.474 283.261,255.217 C287.159,253.51 296.071,249.026 293.878,243.307 C291.942,238.256 284.23,241.487 280.942,242.926 C275.827,245.164 270.667,247.294 265.42,249.203 C255.276,252.894 244.66,255.193 233.819,254.42 C228.366,254.03 222.243,253.196 217.126,251.201 C212.425,249.369 208.07,246.65 203.458,244.597 C199.537,242.854 194.786,241.74 190.498,242.203 C187.798,242.497 182.952,244.852 183.85,248.313 L183.85,248.313 Z" id="Shape"></path>
                    <path d="M236.234,329.135 C240.317,328.936 244.478,327.396 248.37,326.231 C253.188,324.789 258.108,324.028 263.061,323.219 C273.663,321.49 284.672,321.17 295.385,321.856 C316.619,323.212 338.609,327.763 355.843,340.967 C357.286,336.768 358.731,332.569 360.174,328.368 C357.52,328.963 355.659,329.596 353.533,331.383 C351.248,333.303 350.367,336.237 351.942,338.809 C353.171,340.816 355.263,340.95 357.361,341.495 C363.855,343.179 371.326,333.218 365.201,328.612 C346.658,314.67 322.214,310.155 299.489,309.854 C287.457,309.695 275.536,311.448 263.826,314.078 C254.527,316.166 241.945,319.765 235.471,327.222 C234.81,327.983 235.136,329.19 236.234,329.135 L236.234,329.135 Z" id="Shape"></path>
                    <path d="M254.438,14.846 C230.521,10.557 205.868,11.242 181.847,14.662 C158.153,18.035 134.996,24.636 113.346,34.873 C69.448,55.631 35.114,93.102 16.488,137.755 C-17.8,219.957 5.112,317.611 65.435,381.502 C96.225,414.113 136.798,436.83 180.556,446.461 C223,455.803 267.854,451.846 308.708,437.494 C350.442,422.834 387.644,397.158 417.187,364.373 C432.141,347.777 444.735,329.059 454.887,309.176 C466.725,285.99 475.872,260.022 478.856,234.094 C480.382,220.832 479.851,207.568 477.456,194.446 C474.767,179.714 469.166,165.887 465.431,151.439 C461.806,137.418 458.019,124.491 450.116,112.204 C442.23,99.943 432.044,89.329 423.513,77.535 C394.535,37.472 350.126,13.917 302.464,3.657 C296.348,2.341 290.153,1.485 283.959,0.627 C278.543,-0.123 272.162,8.887 279.092,10.953 C302.393,17.901 326.073,24.278 348.048,34.874 C369.633,45.283 388.523,59.89 403.933,78.239 C412.946,88.971 421.296,100.408 429.983,111.418 C439.137,123.019 445.364,134.812 449.278,149.069 C451.127,155.802 452.7,162.603 454.698,169.296 C456.989,176.966 459.826,184.405 461.803,192.179 C465.128,205.253 466.216,218.81 465.328,232.253 C463.629,257.984 453.858,283.977 442.386,306.845 C432.547,326.458 419.775,344.482 405.041,360.714 C376.404,392.261 338.842,415.718 298.257,428.421 C257.003,441.333 212.636,441.95 171.12,429.884 C128.212,417.413 90.059,391.155 62.177,356.409 C7.368,288.108 -6.313,186.747 40.708,110.718 C62.09,76.146 94.367,50.441 132.198,35.938 C171.09,21.029 212.031,19.948 253.103,18.756 C254.866,18.704 256.915,15.292 254.438,14.846 L254.438,14.846 Z" id="Shape"></path>
                </g>
            </g>
        </g>
    </g>
</svg>