<?xml version="1.0" encoding="UTF-8"?>
<svg width="473px" height="500px" viewBox="0 0 473 500" version="1.1" xmlns="http://www.w3.org/2000/svg" xmlns:xlink="http://www.w3.org/1999/xlink">
    <!-- Generator: Sketch 41 (35326) - http://www.bohemiancoding.com/sketch -->
    <title>apple</title>
    <desc>Created with Sketch.</desc>
    <defs></defs>
    <g id="Page-1" stroke="none" stroke-width="1" fill="none" fill-rule="evenodd">
        <g id="Layer_1" transform="translate(-5474.000000, -762.000000)" fill="#000000">
            <g id="Layer_1_3_">
                <g id="apple" transform="translate(5474.000000, 762.000000)">
                    <path d="M20.25,222.398 C23.264,211.515 28.133,200.112 33.347,190.089 C38.088,180.974 44.523,172.768 52.044,165.792 C67.072,151.854 86.712,143.831 106.854,141.042 C131.143,137.68 156.223,141.618 177.459,153.997 C188.882,160.655 198.259,170.4 210.185,176.17 C220.705,181.26 232.266,182.37 243.79,181.645 C246.978,181.444 250.152,181.044 253.315,180.621 C253.082,176.451 252.847,172.282 252.613,168.112 C251.525,168.865 250.427,169.56 249.284,170.224 C243.451,173.613 243.018,184.119 251.654,181.651 C253.53,181.115 255.3,180.525 256.949,179.452 C259.64,177.7 262.08,174.94 261.898,171.501 C261.743,168.591 259.117,166.559 256.247,166.943 C244.758,168.483 233.084,169.169 222.096,164.805 C209.95,159.982 200.26,150.544 189.134,143.908 C167.338,130.91 141.868,127.39 116.89,129.696 C74.389,133.618 36.475,158.605 21.491,199.385 C18.63,207.175 18.345,214.72 17.921,222.869 C17.842,224.368 20.005,223.283 20.25,222.398 L20.25,222.398 Z" id="Shape"></path>
                    <path d="M30.307,187.812 C20.397,197.413 13.994,211.5 9.311,224.283 C4.428,237.607 1.62,251.439 0.452,265.563 C-1.84,293.295 6.663,320.067 16.897,345.467 C34.934,390.238 62.618,430.558 100.877,460.34 C112.746,469.577 125.627,477.755 139.106,484.435 C141.838,480.828 144.572,477.22 147.304,473.613 C144.267,472.5 141.984,472.333 138.789,472.831 C135.555,473.335 132.31,476.79 134.36,480.027 C135.681,482.114 136.739,483.489 139.105,484.435 C144.914,486.759 153.987,477.146 147.303,473.613 C125.238,461.946 105.099,447.878 87.423,430.184 C70.559,413.301 56.45,393.758 44.959,372.881 C33.009,351.171 23.198,327.587 16.581,303.693 C8.741,275.38 12.079,245.307 21.852,217.933 C25.274,208.347 30.066,198.385 31.953,188.398 C32.15,187.36 30.905,187.233 30.307,187.812 L30.307,187.812 Z" id="Shape"></path>
                    <path d="M160.556,486.135 C163.391,488.291 165.684,490.516 169.038,491.83 C172.172,493.059 175.416,494.009 178.662,494.893 C185.609,496.784 193.603,496.293 200.713,495.804 C208.601,495.261 216.344,493.366 224.039,491.658 C233.787,489.496 242.075,490.233 251.475,493.394 C266.542,498.464 280.25,501.722 295.971,496.985 C303.925,494.588 311.557,491.08 319.018,487.463 C326.831,483.676 335.457,479.999 341.475,473.66 C343.404,471.627 344.362,467.037 340.111,467.328 C332.85,467.826 326.442,471.868 320.024,475.144 C312.567,478.951 304.995,482.425 297.056,485.112 C282.36,490.086 269.472,485.744 255.434,481.021 C247.733,478.429 240.305,477.681 232.237,478.684 C223.975,479.711 216.022,482.388 207.845,483.852 C200.307,485.203 192.702,485.897 185.043,485.863 C177.438,485.829 169.187,486.04 161.781,484.121 C160.762,483.858 159.605,485.412 160.556,486.135 L160.556,486.135 Z" id="Shape"></path>
                    <path d="M230.34,154.22 C238.94,161.162 251.126,159.887 261.351,158.095 C275.435,155.628 289.211,151.082 303.003,147.385 C329.556,140.267 356.908,135.869 384.001,142.624 C425.389,152.942 452.734,189.548 459.976,230.314 C467.92,275.038 453.577,321.926 432.766,361.21 C409.978,404.231 376.313,438.872 340.262,470.964 C337.741,473.208 339.541,477.296 342.821,475.232 C365.156,461.166 383.875,443.136 401.044,423.184 C418.696,402.669 433.89,379.959 446.033,355.773 C467.905,312.209 480.577,259.978 467.307,211.94 C456.662,173.406 427.732,142.661 388.796,132.451 C364.033,125.957 337.942,128.934 313.519,135.373 C298.822,139.248 284.427,144.189 269.85,148.475 C258.018,151.953 244.439,156.597 232.233,152.191 C231.286,151.847 229.237,153.33 230.34,154.22 L230.34,154.22 Z" id="Shape"></path>
                    <path d="M209.448,310.926 C202.763,317.084 193.044,319.757 185.364,324.513 C177.78,329.209 171.532,335.454 171.176,344.784 C170.793,354.784 180.361,356.934 188.229,355.245 C197.573,353.239 204.004,345.163 208.826,337.53 C213.862,329.558 220.223,318.786 220.22,309.046 C220.22,305.087 215.542,304.558 213.173,306.578 C209.454,309.749 209.274,314.912 207.734,319.278 C205.994,324.21 203.665,328.938 201.101,333.488 C199.08,337.075 196.449,341.774 193.014,344.227 C190.063,346.334 186.178,347.79 182.546,347.077 C178.134,346.213 178.991,339.438 180.692,336.66 C184.147,331.016 191.04,327.65 196.435,324.207 C201.617,320.9 207.247,317.12 210.648,311.878 C211.266,310.924 210.261,310.177 209.448,310.926 L209.448,310.926 Z" id="Shape"></path>
                    <path d="M257.733,304.668 C258.423,310.919 258.391,316.953 259.63,323.204 C260.966,329.944 263.039,336.588 266.354,342.623 C271.622,352.215 284.771,364.131 295.776,355.162 C306.859,346.13 301.229,331.709 292.751,323.299 C287.872,318.459 281.94,314.669 276.307,310.788 C273.123,308.595 269.982,306.351 267.033,303.85 C264.316,301.544 261.83,298.825 258.408,297.6 C255.761,296.653 251.915,298.891 252.258,302.022 C252.865,307.575 257.035,310.983 261.17,314.251 C265.649,317.79 270.403,320.944 275.072,324.224 C279.56,327.375 283.801,330.736 287.315,334.974 C289.748,337.909 293.233,343.825 290.811,347.744 C289.396,350.033 282.494,345.069 281.074,343.931 C277.135,340.771 274.366,336.426 271.953,332.066 C269.419,327.488 267.553,322.58 265.791,317.665 C264.125,313.012 261.937,308.103 260.772,303.325 C260.363,301.651 257.583,303.318 257.733,304.668 L257.733,304.668 Z" id="Shape"></path>
                    <path d="M236.662,139.092 C241.527,127.132 237.913,112.32 234.411,100.481 C230.491,87.227 223.677,75.275 216.893,63.355 C214.891,65.952 212.889,68.549 210.888,71.146 C214.882,70.95 220.049,69.52 223.585,71.904 C225.779,73.383 227.422,76.604 228.83,78.747 C231.368,82.612 233.365,86.858 235.168,91.104 C238.61,99.211 240.438,107.81 241.37,116.536 C242.262,124.88 241.346,133.813 243.715,141.826 C244.549,144.647 248.659,142.396 249.35,140.679 C252.989,131.632 252.791,121.139 251.83,111.507 C250.824,101.444 248.123,91.532 243.998,82.314 C240.857,75.294 236.753,67.463 230.634,62.6 C226.024,58.935 218.303,60.84 213.02,61.195 C209.458,61.434 204.593,66.492 207.614,69.98 C215.609,79.213 221.157,90.375 225.777,101.647 C228.359,107.946 230.333,114.503 231.559,121.199 C232.656,127.191 232.601,133.391 233.753,139.33 C234.069,140.954 236.174,140.289 236.662,139.092 L236.662,139.092 Z" id="Shape"></path>
                    <path d="M250.116,113.779 C254.039,109.97 257.942,106.22 261.661,102.169 C263.703,99.944 265.789,97.757 267.977,95.676 C269.499,94.229 271.695,93.514 272.657,90.919 C273.211,89.424 273.467,87.209 271.645,86.387 C266.133,83.898 260.436,93.063 257.616,96.568 C253.583,101.578 249.815,106.85 247.805,112.956 C247.319,114.433 249.373,114.5 250.116,113.779 L250.116,113.779 Z" id="Shape"></path>
                    <path d="M267.333,91.67 C263.971,81.117 265.289,70.716 268.302,60.147 C271.525,48.842 280.173,40.918 290.126,34.728 C314.376,19.645 344.491,15.156 372.189,10.632 C372.468,7.304 372.747,3.976 373.026,0.648 C369.961,1.541 367.489,2.864 364.867,4.657 C363.066,5.888 360.594,10.258 364.356,10.897 C367.624,11.451 370.335,11.104 373.551,10.358 C378.419,9.231 381.089,-0.721 374.388,0.374 C342.811,5.531 308.328,10.917 281.658,29.9 C270.078,38.141 261.757,48.167 258.183,61.992 C256.339,69.129 251.682,94.174 264.329,94.872 C265.957,94.962 267.909,93.48 267.333,91.67 L267.333,91.67 Z" id="Shape"></path>
                    <path d="M376.93,2.282 C373.372,7.103 369.898,11.645 366.739,16.799 C363.329,22.363 360.128,28.052 356.679,33.594 C350.002,44.328 342.787,54.781 334.366,64.229 C326.387,73.178 316.94,80.73 306.137,85.961 C300.471,88.704 294.229,90.467 288.03,91.467 C284.87,91.977 281.67,92.202 278.473,92.324 C276.322,92.406 274.16,92.39 272.02,92.163 C271.355,92.012 270.687,91.876 270.016,91.756 C268.345,91.638 268.351,91.68 270.032,91.88 C268.017,90.593 265.461,92.364 264.181,93.824 C262.24,96.04 261.815,99.242 264.282,101.177 C267.208,103.472 272.788,102.696 276.266,102.623 C283.833,102.465 291.407,101.052 298.625,98.82 C312.451,94.546 324.769,86.158 335.115,76.193 C345.786,65.914 354.521,53.623 361.977,40.87 C365.686,34.525 369.157,28.042 372.394,21.444 C375.422,15.273 377.263,9.181 379.291,2.729 C379.789,1.149 377.536,1.461 376.93,2.282 L376.93,2.282 Z" id="Shape"></path>
                    <path d="M273.094,43.636 C266.894,57.83 265.08,72.183 264.921,87.569 C267.832,86.636 270.742,85.703 273.653,84.77 C273.293,70.481 278.642,56.219 283.271,42.913 C280.49,42.783 277.708,42.653 274.927,42.523 C270.801,57.762 266.997,73.065 267.378,88.969 C267.518,94.833 276.619,90.77 276.528,86.035 C276.198,68.75 282.521,51.507 288.602,35.578 C285.791,35.806 282.981,36.034 280.17,36.262 C279.432,55.617 272.99,74.223 272.66,93.652 C275.744,92.664 278.826,91.675 281.91,90.687 C281.588,71.307 287.728,52.152 294.547,34.235 C291.805,34.107 289.063,33.979 286.32,33.851 C282.972,53.77 277.654,73.311 277.394,93.631 C277.362,96.166 280.191,96.95 282.176,96.316 C284.731,95.5 286.298,93.299 286.509,90.71 C288.265,69.209 296.975,48.808 301.452,27.833 C298.644,28.4 295.837,28.968 293.029,29.535 C292.528,51.597 284.835,72.816 284.646,94.991 C284.598,100.568 293.333,97.2 293.828,93.136 C296.583,70.504 302.563,48.236 310.542,26.903 C307.803,26.775 305.063,26.647 302.323,26.519 C298.94,48.142 292.096,68.987 291.273,91.004 C291.198,93.002 293.233,94.142 294.987,94 C297.753,93.776 299.723,91.626 300.534,89.133 C307.636,67.269 309.087,43.978 316.69,22.264 C313.816,22.496 310.942,22.73 308.068,22.962 C307.952,44.175 300.642,64.555 299.762,85.727 C299.525,91.456 308.937,88.137 309.371,83.786 C311.566,61.828 318.037,40.333 325.369,19.6 C322.517,19.467 319.665,19.333 316.812,19.2 C314.108,40.569 305.325,60.562 305.749,82.398 C305.87,88.694 315.427,84.226 315.481,79.278 C315.719,57.934 324.637,35.748 334.166,16.958 C331.223,16.821 328.279,16.683 325.336,16.546 C320.597,38.989 311.199,60.525 310.992,83.761 C310.938,89.8 320.145,86.011 320.805,81.779 C324.411,58.644 333.393,35.719 343.99,14.926 C341.17,14.794 338.348,14.662 335.528,14.53 C331.809,34.326 321.963,52.433 319.743,72.566 C319.057,78.792 327.45,77.576 329.068,73.002 C336.43,52.19 344.245,31.377 355.462,12.284 C352.675,11.764 349.89,11.245 347.103,10.725 C340.173,28.896 329.014,45.597 326.47,65.228 C325.632,71.692 333.69,69.656 335.682,65.659 C345.25,46.458 358.348,29.305 368.296,10.315 C365.263,10.173 362.228,10.032 359.194,9.89 C354.841,24.748 343.482,36.315 339.045,51.235 C337.267,57.215 345.422,55.622 347.706,52.868 C358.683,39.637 365.175,23.526 374.952,9.488 C372.132,8.957 369.311,8.425 366.491,7.893 C363.44,19.761 353.951,29.718 346.199,38.811 C349.081,39.354 351.963,39.898 354.845,40.441 C355.467,35.23 358.325,30.906 360.759,26.368 C363.214,21.788 364.787,17.087 365.014,11.881 C365.143,8.919 361.847,8.392 359.701,8.898 C347.229,11.837 342.277,27.918 337.34,37.978 C334.023,44.737 343.978,44.961 346.561,39.698 C348.5,35.747 350.335,31.746 352.397,27.856 C354.045,24.747 356.402,19.006 360.2,18.111 C358.43,17.117 356.658,16.123 354.887,15.128 C354.477,24.545 346.102,31.753 345.055,41.235 C344.405,47.118 351,46.082 353.701,42.865 C362.641,32.217 372.426,20.839 376.075,7.116 C377.575,1.478 369.815,2.411 367.614,5.521 C357.733,19.478 351.046,35.525 340.194,48.808 C343.081,49.352 345.967,49.896 348.855,50.441 C353.128,35.622 364.348,23.998 368.706,9.119 C369.263,7.221 368.047,5.25 366.124,4.893 C363.383,4.385 360.807,6.398 359.604,8.693 C349.643,27.706 336.219,44.654 326.884,64.016 C329.955,64.16 333.026,64.303 336.096,64.447 C338.249,45.729 348.53,29.456 355.463,12.283 C357.706,6.727 350.378,5.373 347.781,9.611 C335.912,28.983 327.78,50.015 320.163,71.34 C323.271,71.485 326.379,71.631 329.488,71.776 C331.755,51.809 341.096,33.569 344.371,13.812 C345.352,7.889 337.674,9.777 335.909,13.416 C325.201,35.496 315.029,58.146 311.094,82.563 C314.365,81.902 317.637,81.241 320.907,80.581 C321.226,58.324 329.741,37.274 334.563,15.796 C335.962,9.566 327.595,11.818 325.733,15.384 C315.193,35.573 306.036,59.359 305.75,82.397 C308.994,81.357 312.238,80.317 315.482,79.277 C315.108,58.508 322.748,38.819 325.753,18.475 C326.607,12.699 318.722,14.012 317.196,18.075 C309.132,39.536 302.149,61.646 299.86,84.556 C303.063,83.909 306.266,83.262 309.469,82.615 C310.344,61.555 316.848,41.174 317.163,20.046 C317.24,14.922 309.667,17.613 308.541,20.744 C300.458,43.21 298.753,67.228 291.365,89.875 C294.452,89.251 297.539,88.628 300.626,88.004 C301.441,66.937 307.29,46.495 310.908,25.823 C311.885,20.245 304.188,21.628 302.689,25.439 C294.023,47.46 287.617,70.351 284.737,93.872 C287.798,93.254 290.858,92.636 293.919,92.017 C294.121,70.077 300.296,48.692 301.536,26.807 C301.838,21.48 293.937,25.187 293.113,28.509 C287.732,50.187 279.002,71.167 277.39,93.632 C280.428,92.658 283.468,91.684 286.505,90.71 C286.557,71.154 291.616,52.304 294.911,33.156 C295.87,27.587 288.163,28.928 286.684,32.772 C279.204,52.213 272.045,72.543 272.655,93.654 C272.829,99.647 281.882,95.392 281.905,90.689 C281.997,71.36 288.034,52.674 289.061,33.412 C289.332,28.324 281.781,31.199 280.629,34.096 C273.705,51.508 266.765,69.942 267.371,88.972 C270.421,87.994 273.472,87.016 276.521,86.038 C275.963,70.832 279.648,56.362 283.638,41.818 C285.135,36.36 276.684,37.474 275.294,41.428 C270.1,56.204 264.292,71.66 264.912,87.571 C265.134,93.236 273.659,89.217 273.644,84.772 C273.6,70.96 275.018,57.168 279.074,43.918 C280.297,39.951 274.248,40.996 273.094,43.636 L273.094,43.636 Z" id="Shape"></path>
                    <path d="M69.07,178.267 C31.35,197.359 21.821,248.986 26.043,287.196 C29.024,314.174 40.702,339.265 54.187,362.495 C67.744,385.849 83.79,406.338 104.248,424.04 C133.382,449.251 167.676,474.747 208.371,469.866 C218.053,468.704 226.891,464.721 236.786,465.45 C245.149,466.065 253.258,468.829 261.281,471.074 C268.813,473.182 276.495,474.761 284.348,474.03 C288.068,473.685 291.806,472.604 295.181,471.025 C300.025,468.758 305.079,466.334 309.688,463.625 C312.169,462.166 313.481,457.374 309.342,457.474 C308.448,457.495 307.556,457.517 306.662,457.538 C302.989,457.627 300.45,464.018 305.248,464.136 C306.132,464.157 307.017,464.179 307.9,464.2 C307.785,462.149 307.67,460.098 307.554,458.049 C302.016,460.996 296.047,464.491 290.061,466.365 C284.34,468.157 278.129,467.421 272.367,466.293 C260.973,464.064 250.225,459.482 238.548,458.63 C233.082,458.232 227.724,458.856 222.447,460.291 C214.923,462.338 207.588,463.676 199.769,463.812 C185.238,464.066 170.931,459.63 158.014,453.275 C145.377,447.056 134.097,438.295 122.971,429.751 C112.238,421.509 101.978,412.651 92.55,402.936 C73.048,382.835 58.172,357.824 46.477,332.51 C34.055,305.621 28.948,277.088 32.497,247.635 C35.657,221.41 46.313,194.037 69.506,179.406 C70.258,178.93 70.015,177.789 69.07,178.267 L69.07,178.267 Z" id="Shape"></path>
                    <path d="M443.825,253.994 C445.526,271.659 443.891,288.25 438.523,305.198 C432.817,323.218 424.043,340.225 414.478,356.467 C405.767,371.26 396.203,385.966 385.582,399.472 C378.595,408.358 370.08,415.895 361.487,423.177 C358.358,425.829 355.436,428.473 352.678,431.509 C349.926,434.538 347.077,438.698 343.151,440.32 C339.81,441.699 338.928,447.989 343.475,446.283 C350.803,443.533 355.072,435.234 360.516,430.027 C368.623,422.271 377.275,415.287 384.818,406.925 C397.413,392.964 407.513,375.884 417.137,359.804 C427.266,342.884 436.209,325.085 442.216,306.262 C447.428,289.929 451.479,269.94 445.33,253.328 C445.026,252.506 443.76,253.328 443.825,253.994 L443.825,253.994 Z" id="Shape"></path>
                    <path d="M112.428,135.072 C116.721,134.483 120.887,132.879 125.083,131.814 C130.403,130.464 135.832,129.669 141.283,129.076 C151.592,127.954 162.003,128.146 172.354,128.258 C183.28,128.376 194.206,129.132 205.121,129.212 C210.583,129.252 216.034,129.355 221.479,129.811 C223.775,130.004 227.482,129.222 229.298,129.758 C228.699,128.779 228.102,127.801 227.504,126.823 C228.034,125.58 227.998,125.466 227.394,126.481 C226.584,127.669 226.419,129.497 228.158,129.899 C230.183,130.368 232.079,129.578 233.338,127.923 C234.043,126.996 234.742,125.028 233.635,124.074 C231.657,122.371 229.022,123.29 226.668,123.56 C221.903,124.108 216.565,123.145 211.75,123.115 C199.633,123.037 187.529,122.65 175.406,122.737 C163.736,122.82 152.135,123.149 140.551,124.688 C131.196,125.931 119.716,127.577 112.108,133.585 C111.58,134.001 111.488,135.2 112.428,135.072 L112.428,135.072 Z" id="Shape"></path>
                    <path d="M247.95,126.601 C257.755,132.399 272.21,130.742 283.078,130.246 C297.209,129.601 311.261,128.085 325.405,127.638 C343.073,127.079 360.742,127.876 377.951,132.174 C386.13,134.217 393.856,137.254 401.102,141.561 C407.03,145.084 412.557,151.161 419.126,153.26 C420.549,153.714 422.137,151.807 421.718,150.498 C419.731,144.291 412.412,139.583 407.209,136.197 C400.821,132.039 393.828,129.23 386.592,126.945 C369.744,121.624 351.851,120.518 334.292,120.63 C319.629,120.723 305.111,122.112 290.506,123.155 C276.985,124.121 263.693,123.913 250.191,122.921 C248.573,122.801 245.834,125.35 247.95,126.601 L247.95,126.601 Z" id="Shape"></path>
                    <path d="M219.27,137.355 C224.823,141.9 231.482,142.706 238.437,143.133 C242.448,143.379 246.466,143.477 250.476,143.753 C253.678,143.973 257.057,145.278 260.088,143.975 C261.358,143.429 263.436,141.69 262.547,140.025 C260.106,135.456 249.934,136.752 245.379,136.598 C237.35,136.327 229.312,135.66 221.342,134.639 C220.282,134.503 217.967,136.288 219.27,137.355 L219.27,137.355 Z" id="Shape"></path>
                </g>
            </g>
        </g>
    </g>
</svg>