<?xml version="1.0" encoding="UTF-8"?>
<svg width="411px" height="489px" viewBox="0 0 411 489" version="1.1" xmlns="http://www.w3.org/2000/svg" xmlns:xlink="http://www.w3.org/1999/xlink">
    <!-- Generator: Sketch 41 (35326) - http://www.bohemiancoding.com/sketch -->
    <title>apricot</title>
    <desc>Created with Sketch.</desc>
    <defs></defs>
    <g id="Page-1" stroke="none" stroke-width="1" fill="none" fill-rule="evenodd">
        <g id="Layer_1" transform="translate(-2714.000000, -788.000000)" fill="#010101">
            <g id="Layer_1_3_">
                <g id="apricot" transform="translate(2714.000000, 788.000000)">
                    <path d="M167.097,213.71 C152.32,221.401 137.337,229.774 125.661,241.816 C114.245,253.59 104.565,267.09 96.816,281.532 C81.953,309.229 74.335,341.239 76.393,372.681 C78.363,402.775 89.579,432.038 111.186,453.494 C136.051,478.184 171.254,488.202 205.575,488.401 C252.547,488.672 297.945,471.739 334.352,442.388 C369.5,414.054 394.323,373.159 404.715,329.362 C415.194,285.209 411.655,236.25 390.128,195.886 C370.353,158.808 335.572,132.347 296.738,117.716 C257.294,102.855 212.76,101.483 172.139,112.203 C131.092,123.037 94.119,147.015 66.533,179.132 C13.465,240.912 -8.609,337.903 40.511,408.667 C49.454,421.552 61.954,438.176 77.742,442.791 C76.556,442.102 75.37,441.409 74.184,440.718 C74.531,441.008 74.879,441.298 75.226,441.588 C83.148,448.201 94.62,436.858 86.627,430.186 C82.747,426.949 80.21,421.178 76.866,417.379 C73.187,413.2 69.588,408.983 66.142,404.608 C61.286,398.44 55.263,388.379 51.065,380.076 C46.985,372.008 44.156,364.292 41.484,354.261 C38.695,343.797 37.782,337.308 37.13,327.529 C34.526,288.496 46.157,251.216 67.066,218.067 C72.84,208.91 77.54,202.671 84.128,195.005 C90.778,187.265 98.044,180.066 105.745,173.374 C113.152,166.938 119.87,162.066 128.997,156.402 C133.168,153.814 137.461,151.425 141.822,149.169 C146.35,146.825 151.498,144.498 154.657,143.222 C164.392,139.291 174.299,136.032 184.522,133.618 C195.472,131.034 202.647,130.073 213.286,129.369 C223.52,128.692 233.806,128.91 244.016,129.826 C249.871,130.35 251.126,130.566 256.589,131.505 C261.777,132.398 266.916,133.547 272.013,134.859 C291.665,139.914 307.376,146.898 324.618,158.455 C339.044,168.124 353.868,183.042 363.507,197.529 C386.603,232.239 391.792,277.427 383.695,318.023 C375.155,360.835 352.13,398.555 318.292,426.335 C285.346,453.383 241.655,467.394 198.539,465.824 C194.061,465.662 189.591,465.273 185.139,464.777 C184.949,464.756 181.41,464.283 183.827,464.623 C182.776,464.475 181.729,464.305 180.681,464.134 C178.291,463.745 175.919,463.27 173.555,462.755 C169.665,461.91 165.825,460.848 162.032,459.643 C160.203,459.063 158.395,458.415 156.596,457.747 C155.711,457.418 154.834,457.066 153.958,456.717 C152.802,456.24 152.803,456.243 153.963,456.726 C153.397,456.481 152.83,456.229 152.268,455.973 C145.481,452.924 139.055,449.106 133.07,444.694 C130.737,442.973 134.747,446.039 132.482,444.245 C131.81,443.712 131.149,443.161 130.49,442.61 C129.181,441.517 127.915,440.376 126.663,439.216 C123.985,436.735 121.476,434.073 119.086,431.313 C118.581,430.731 115.586,426.989 117.028,428.866 C116.01,427.542 115.04,426.178 114.09,424.806 C112.028,421.834 110.162,418.733 108.419,415.567 C106.807,412.635 105.345,409.625 103.994,406.565 C102.858,403.996 104.772,408.485 103.707,405.874 C103.389,405.093 103.088,404.305 102.787,403.517 C102.082,401.672 101.444,399.802 100.833,397.924 C96.001,383.095 94.745,372.146 94.906,356.78 C95.175,331.438 102.404,305.101 114.621,281.992 C120.992,269.941 128.814,258.672 137.901,248.515 C147.875,237.369 156.997,226.302 169.502,217.842 C172.054,216.118 169.849,212.278 167.097,213.71 L167.097,213.71 Z" id="Shape"></path>
                    <path d="M257.979,146.303 C246.593,142.322 231.247,142.96 225.569,155.692 C220.802,166.378 225.098,179.267 235.818,184.202 C245.864,188.827 257.272,187.902 267.859,186.011 C272.667,185.154 277.404,183.867 282.022,182.289 C286.207,180.859 292.938,179.059 294.98,174.689 C297.501,169.294 294.428,163.922 288.497,163.391 C286.342,163.199 284.421,164.142 282.559,165.082 C281.987,165.371 281.4,165.632 280.816,165.895 C282.475,165.149 280.213,166.13 280.043,166.198 C276.551,167.573 272.939,168.642 269.307,169.575 C261.819,171.495 254.702,172.448 246.858,171.738 C244.964,171.567 241.905,170.545 240.109,169.407 C238.858,168.614 237.661,167.113 237.345,164.63 C236.07,154.605 249.716,151.537 257.357,150.908 C260.008,150.69 260.529,147.196 257.979,146.303 L257.979,146.303 Z" id="Shape"></path>
                    <path d="M267.316,152.136 C274.069,142.278 281.374,132.704 288.349,122.989 C296.021,112.305 303.088,101.218 311.336,90.947 C318.902,81.525 327.816,72.222 337.242,65.79 C339.551,64.215 341.959,62.797 344.41,61.457 C347.508,59.764 349.135,59.09 351.439,58.236 C357.509,55.987 363.614,54.808 368.252,54.529 C366.263,47.186 364.274,39.841 362.285,32.499 C358.426,34.259 355.096,36.302 351.815,39.03 C349.222,41.187 347.849,46.129 349.103,49.291 C349.001,48.776 348.903,48.262 348.802,47.748 C348.527,50.49 350.499,52.966 352.61,54.386 C352.839,54.541 353.071,54.698 353.3,54.853 C352.231,53.782 351.158,52.71 350.087,51.639 C350.113,51.697 350.14,51.754 350.165,51.812 C351.556,54.884 355.946,57.328 359.271,57.036 C364.629,56.565 369.334,55.309 374.215,52.917 C384.555,47.852 379.872,29.862 368.248,30.887 C338.164,33.539 316.135,53.037 298.788,76.375 C290.459,87.58 283.704,99.703 277.325,112.091 C271.25,123.89 267.066,136.659 260.835,148.355 C258.543,152.661 264.603,156.098 267.316,152.136 L267.316,152.136 Z" id="Shape"></path>
                    <path d="M252.284,42.018 C245.479,60.083 262.399,70.956 278.303,73.642 C287.43,75.184 296.645,74.746 305.765,73.488 C312.378,72.575 322.596,71.039 325.831,64.462 C328.035,59.984 325.366,54.743 320.164,54.587 C319.381,54.549 319.584,54.591 320.772,54.712 C319.167,54.42 317.826,54.354 316.264,54.898 C315.252,55.251 314.307,55.638 313.312,56.068 C315.008,55.336 312.903,56.195 312.683,56.277 C309.98,57.277 307.174,57.952 304.37,58.585 C297.703,60.089 290.98,60.535 283.954,60.237 C271.709,59.716 259.517,55.447 256.984,42.018 C256.496,39.42 253.051,39.984 252.284,42.018 L252.284,42.018 Z" id="Shape"></path>
                    <path d="M6.854,107.416 C12.167,100.428 19.225,94.682 25.448,88.528 C32.366,81.688 39.744,75.262 47.307,69.15 C63.491,56.067 81.345,44.721 99.969,35.456 C132.795,19.123 174.961,6.841 210.405,22.411 C224.626,28.658 236.491,39.124 245.464,51.715 C249.084,48.095 252.703,44.475 256.323,40.856 C252.635,38.209 247.963,38.154 243.891,39.851 C239.514,41.677 236.592,49.04 242.362,51.56 C244.393,52.448 246.535,53.231 248.311,54.564 C254.633,59.306 263.669,50.019 259.169,43.704 C246.95,26.555 231.09,13.472 211.235,6.179 C192.893,-0.558 172.856,-0.668 153.784,2.401 C112.796,8.99 74.509,31.667 43.502,58.481 C35.188,65.671 27.395,73.384 20.165,81.667 C13.703,89.07 9.025,97.385 3.779,105.62 C2.513,107.606 5.506,109.189 6.854,107.416 L6.854,107.416 Z" id="Shape"></path>
                    <path d="M1.889,116.316 C11.096,112.497 21.52,111.253 31.37,110.272 C41.775,109.235 52.233,109.159 62.678,108.891 C84.455,108.334 106.147,108.58 127.854,106.362 C171.631,101.885 213.12,87.611 251.96,67.227 C261.055,62.455 253.013,48.752 243.928,53.486 C237.426,56.873 230.816,60.506 225.199,65.276 C221.98,68.009 224.588,73.638 228.603,73.491 C236.706,73.194 244.818,70.994 251.959,67.227 C249.281,62.647 246.605,58.066 243.926,53.486 C205.935,73.668 165.747,86.884 123.006,92.147 C101.443,94.801 79.698,95.011 58.066,96.859 C37.93,98.578 17.956,102.734 0.829,113.803 C-0.415,114.608 0.389,116.939 1.889,116.316 L1.889,116.316 Z" id="Shape"></path>
                    <path d="M27.574,92.143 C42.683,85.43 58.264,79.71 73.439,73.129 C89.74,66.061 106.287,59.41 123.147,53.792 C139.525,48.334 156.257,44.001 173.31,41.271 C181.757,39.917 190.249,39.161 198.804,39.051 C202.917,38.998 207.03,39.161 211.135,39.439 C213.163,39.576 215.185,39.79 217.204,40.01 C217.102,39.999 221.127,41.763 218.83,40.764 C219.282,37.303 219.734,33.843 220.186,30.382 C222.814,29.883 218.267,30.386 217.79,30.482 C215.811,30.877 214.227,32.756 213.782,34.626 C212.457,40.206 220.154,43.677 223.121,38.564 C223.179,38.464 223.236,38.367 223.293,38.267 C222.266,39.058 221.237,39.848 220.209,40.639 C219.128,40.948 216.94,40.46 220.187,41.338 C225.963,42.901 229.298,36.016 225.712,31.845 C221.201,26.596 211.159,27.869 204.998,27.902 C196.144,27.948 187.302,28.901 178.539,30.116 C160.488,32.619 142.845,37.82 125.696,43.873 C108.273,50.023 91.288,57.317 74.57,65.166 C58.152,72.874 42.758,82.285 26.747,90.727 C25.792,91.229 26.628,92.564 27.574,92.143 L27.574,92.143 Z" id="Shape"></path>
                    <path d="M90.205,63.174 C84.479,67.434 79.782,72.952 76.616,79.356 C74.466,83.705 71.346,93.427 76.941,96.706 C83.187,100.365 81.522,90.196 81.499,87.707 C81.431,79.632 87.976,71.607 92.385,65.355 C93.284,64.083 91.48,62.225 90.205,63.174 L90.205,63.174 Z" id="Shape"></path>
                    <path d="M129.121,49.165 C121.36,51.999 114.155,58.018 109.328,64.674 C105.878,69.432 99.193,80.867 104.715,86.39 C106.643,88.318 109.631,87.9 110.989,85.581 C111.956,83.929 111.651,81.831 111.655,80.018 C111.659,77.793 112.38,75.515 113.239,73.486 C116.908,64.834 124.19,58.56 131.081,52.535 C132.57,51.232 131.005,48.476 129.121,49.165 L129.121,49.165 Z" id="Shape"></path>
                    <path d="M167.356,37.728 C158.364,41.787 151.302,48.145 145.58,56.148 C142.126,60.976 135.197,76.914 143.312,80.502 C144.533,81.043 145.822,81.042 146.833,80.048 C149.147,77.774 148.585,75.173 148.648,72.153 C148.737,67.833 150.398,63.882 152.338,60.097 C156.25,52.471 163.247,46.233 169.628,40.67 C171.355,39.167 169.159,36.914 167.356,37.728 L167.356,37.728 Z" id="Shape"></path>
                    <path d="M196.455,32.815 C182.889,36.936 172.088,50.529 170.831,64.738 C170.692,66.323 171.795,67.711 173.013,68.541 C179.618,73.046 181.059,58.97 182.262,55.622 C185.087,47.746 190.53,40.171 197.647,35.643 C199.095,34.72 198.183,32.29 196.455,32.815 L196.455,32.815 Z" id="Shape"></path>
                    <path d="M166.185,404.401 C160.711,399.225 153.491,407.368 152.138,412.348 C150.087,419.89 154.249,428.213 159.854,433.083 C168.621,440.702 193.005,444.887 198.605,431.079 C202.575,421.288 193.278,410.103 185.351,405.603 C180.524,402.864 174.531,401.859 169.253,403.857 C163.373,406.086 155.693,413.204 157.783,420.131 C158.564,422.718 161.252,423.58 163.568,422.484 C167.423,420.66 168.569,415.859 172.153,413.801 C174.456,412.478 176.918,412.919 179.879,414.017 C184.82,415.85 190.108,422.185 190.204,426.771 C190.224,427.72 189.98,428.279 189.761,428.549 C189.019,429.464 188.003,429.945 186.577,430.364 C181.32,431.916 174.516,430.856 169.421,429.276 C164.019,427.599 159.783,422.11 159.238,416.54 C159.029,414.395 159.142,412.138 160.598,410.418 C162.1,408.644 164.653,408.556 166.184,406.885 C166.817,406.198 166.902,405.082 166.185,404.401 L166.185,404.401 Z" id="Shape"></path>
                    <path d="M222.355,420.059 C218.876,421.783 214.578,423.794 213.975,428.141 C213.399,432.3 216.038,435.382 219.584,437.164 C228.342,441.564 240.576,439.689 247.358,432.611 C250.124,429.724 248.529,425.847 245.208,424.467 C235.813,420.566 225.192,422.269 217.85,429.457 C216.621,430.659 215.879,432.838 216.514,434.515 C218.425,439.576 222.903,438.525 226.574,435.87 C231.498,432.309 236.985,432.063 242.62,433.863 C241.903,431.147 241.186,428.434 240.47,425.718 C236.843,429.832 231.529,430.662 226.285,430.25 C224.667,430.122 222.768,429.612 221.525,428.529 C221.111,428.169 224.606,425.183 225.145,424.83 C228.144,422.874 225.546,418.477 222.355,420.059 L222.355,420.059 Z" id="Shape"></path>
                    <path d="M227.922,382.311 C226.053,385.569 224.247,388.998 224.882,392.858 C225.355,395.731 227.903,397.95 230.59,398.708 C232.96,399.378 235.443,399.039 237.823,398.683 C238.582,398.57 239.299,398.413 240.032,398.189 C240.409,398.075 243.676,396.171 241.707,397.284 C242.45,396.863 243.02,396.381 243.483,395.638 C244.179,394.522 244.253,392.766 243.483,391.659 C242.828,390.717 242.148,390.127 241.045,389.763 C240.13,389.462 241.82,390.22 241.382,389.945 C240.009,389.074 238.185,389.191 236.649,389.519 C235.997,389.659 235.343,389.79 234.687,389.902 C233.446,390.114 235.763,389.798 234.501,389.922 C234.113,389.96 233.724,389.972 233.333,389.974 C233.032,389.975 232.732,389.952 232.432,389.92 C234.037,390.082 232.806,389.934 232.391,389.813 C231.959,389.659 232.129,389.733 232.898,390.037 C232.582,389.889 232.029,389.412 233.128,390.292 C232.306,389.635 233.579,391.163 233.039,390.19 C233.71,391.397 233.13,390.217 232.997,389.794 C232.943,389.606 232.895,389.417 232.857,389.227 C232.627,388.21 232.92,390.127 232.833,388.948 C232.727,387.501 232.998,385.989 233.317,384.592 C234.053,381.374 229.632,379.33 227.922,382.311 L227.922,382.311 Z" id="Shape"></path>
                    <path d="M311.555,368.678 C311.393,376.496 313.606,388.512 307.741,394.907 C300.827,402.445 288.215,399.682 279.442,402.103 C274.615,403.433 273.926,411.673 279.442,412.543 C286.389,413.639 294.551,412.105 301.339,410.364 C306.522,409.036 311.803,406.634 315.35,402.514 C323.402,393.167 321.111,378.538 317.311,367.895 C316.216,364.839 311.626,365.256 311.555,368.678 L311.555,368.678 Z" id="Shape"></path>
                    <path d="M340.022,344.309 C342.326,349.924 342.721,356.1 338.731,361.061 C334.88,365.846 328.062,365.526 323.96,369.751 C322.771,370.979 322.65,373.115 323.96,374.325 C331.026,380.851 342.619,374.034 347.063,367.488 C352.582,359.356 350.797,349.718 345.762,341.887 C343.928,339.039 338.615,340.878 340.022,344.309 L340.022,344.309 Z" id="Shape"></path>
                    <path d="M324.649,309.633 C322.838,312.618 320.997,315.612 318.72,318.273 C316.122,321.308 312.75,323.656 311.343,327.487 C310.738,329.133 312.003,331.084 313.617,331.495 C318.498,332.737 323.156,329.312 326.18,325.733 C329.568,321.721 331.788,316.857 331.723,311.549 C331.676,307.75 326.611,306.396 324.649,309.633 L324.649,309.633 Z" id="Shape"></path>
                    <path d="M251,355.307 C256.657,363.285 266.418,365.356 275.687,363.677 C281.223,362.673 279.958,353.416 274.358,353.862 C267.763,354.383 261.563,354.034 255.747,350.562 C252.901,348.863 248.928,352.384 251,355.307 L251,355.307 Z" id="Shape"></path>
                    <path d="M358.188,297.348 C360.477,305.6 356.422,313.498 355.735,321.63 C355.564,323.645 357.888,324.437 359.403,323.734 C370.572,318.561 368.621,303.796 364.528,294.673 C362.887,291.017 357.163,293.652 358.188,297.348 L358.188,297.348 Z" id="Shape"></path>
                    <path d="M50.857,317.391 C49.043,322.212 47.794,327.862 49.962,332.776 C52.362,338.213 57.24,341.587 63.031,342.297 C67.73,342.873 68.111,336.562 65.177,334.378 C62.846,332.647 59.815,331.421 58.171,328.943 C56.149,325.892 56.376,322.55 57.229,319.15 C58.284,314.947 52.334,313.465 50.857,317.391 L50.857,317.391 Z" id="Shape"></path>
                    <path d="M52.044,370.36 C52.031,372.211 51.855,373.805 52.205,375.677 C52.552,377.522 53.725,379.209 55.021,380.513 C57.77,383.276 63.438,385.356 67.047,383.37 C68.713,382.454 69.324,380.12 68.323,378.504 C66.842,376.113 63.834,375.325 61.479,373.996 C61.26,373.866 61.045,373.726 60.841,373.578 C61.271,373.912 61.296,373.91 60.915,373.574 C60.581,373.198 60.578,373.22 60.906,373.642 C60.747,373.446 60.599,373.243 60.46,373.033 C60.374,372.909 59.721,371.63 59.968,372.228 C59.602,371.339 59.385,370.435 58.951,369.564 C59.119,370.185 59.288,370.808 59.455,371.431 C59.427,371.075 59.41,370.715 59.402,370.357 C59.237,365.629 52.077,365.6 52.044,370.36 L52.044,370.36 Z" id="Shape"></path>
                    <path d="M73.794,298.108 C73.809,298.636 73.774,298.729 73.691,298.382 C73.656,298.639 73.62,298.896 73.579,299.152 C73.496,299.71 73.374,300.256 73.22,300.798 C73.158,300.99 73.094,301.181 73.023,301.369 C73.406,300.505 73.335,300.685 72.808,301.911 C72.728,302.084 72.666,302.263 72.623,302.447 C73.009,301.094 72.444,302.801 72.376,303.259 C71.834,306.975 74.923,309.379 78.387,307.88 C80.041,307.163 81.28,305.124 81.527,303.405 C81.665,302.441 81.738,301.578 81.685,300.615 C81.663,300.224 81.618,299.838 81.577,299.449 C81.529,299.094 81.481,298.738 81.433,298.383 C81.364,298.731 81.331,298.638 81.34,298.109 C81.163,296.059 79.759,294.336 77.568,294.336 C75.375,294.334 73.975,296.059 73.794,298.108 L73.794,298.108 Z" id="Shape"></path>
                    <path d="M163.262,339.174 C163.57,339.19 163.876,339.204 164.185,339.228 C163.818,339.177 163.451,339.128 163.082,339.08 C163.139,339.098 163.194,339.114 163.249,339.132 C162.916,338.991 162.582,338.851 162.249,338.709 C162.291,338.741 162.333,338.772 162.376,338.804 C162.087,338.58 161.798,338.358 161.51,338.134 C162.312,338.975 163.265,339.232 164.296,339.633 C163.936,339.482 163.574,339.328 163.213,339.176 C163.741,339.416 164.265,339.661 164.812,339.864 C166.697,340.563 168.971,339.42 169.931,337.781 C170.91,336.109 170.738,333.62 169.223,332.289 C167.252,330.559 164.556,330.165 162.25,331.476 C162.583,331.335 162.917,331.196 163.25,331.054 C163.195,331.067 163.14,331.077 163.083,331.089 C163.45,331.04 163.817,330.99 164.186,330.943 C163.877,330.948 163.571,330.961 163.263,330.973 C161.03,331.075 159.16,332.762 159.16,335.076 C159.159,337.386 161.029,339.073 163.262,339.174 L163.262,339.174 Z" id="Shape"></path>
                </g>
            </g>
        </g>
    </g>
</svg>