<?xml version="1.0" encoding="UTF-8"?>
<svg width="396px" height="478px" viewBox="0 0 396 478" version="1.1" xmlns="http://www.w3.org/2000/svg" xmlns:xlink="http://www.w3.org/1999/xlink">
    <!-- Generator: Sketch 41 (35326) - http://www.bohemiancoding.com/sketch -->
    <title>back</title>
    <desc>Created with Sketch.</desc>
    <defs></defs>
    <g id="Page-1" stroke="none" stroke-width="1" fill="none" fill-rule="evenodd">
        <g id="Layer_1" transform="translate(-581.000000, -81.000000)" fill="#010101">
            <g id="Layer_1_3_">
                <g id="back" transform="translate(581.000000, 81.000000)">
                    <path d="M170.74,3.393 C169.279,11.947 168.632,20.554 164.817,28.5 C161.825,34.733 157.605,38.809 152.182,42.861 C147.687,46.22 140.71,49.21 134.584,51.492 C127.02,54.309 119.207,56.435 111.417,58.518 C95.008,62.906 78.613,67.227 63.408,75.005 C56.083,78.753 49.064,83.557 43.377,89.526 C39.003,94.117 35.531,99.064 32.68,104.747 C31.241,107.617 30.081,110.757 29.391,113.89 C28.863,116.284 27.196,121.098 28.214,123.448 C28.36,123.783 28.505,124.118 28.65,124.454 C29.516,126.451 31.973,125.774 33.287,124.7 C35.805,122.643 36.931,119.791 38.899,117.267 C40.952,114.634 42.643,111.637 44.496,108.858 C47.419,104.472 50.897,100.471 54.872,97.019 C60.31,92.299 66.018,88.967 73.579,85.535 C79.432,82.878 88.492,80 95.751,77.855 C103.782,75.482 111.828,73.136 119.828,70.659 C134.976,65.968 150.406,60.193 162.216,49.226 C167.799,44.041 172.079,37.522 174.545,30.312 C175.802,26.636 176.676,22.919 176.984,19.04 C177.307,14.962 178.122,9.889 176.726,5.983 C176.244,4.634 175.858,3.248 175.384,1.894 C174.535,-0.533 171.03,1.692 170.74,3.393 L170.74,3.393 Z" id="Shape"></path>
                    <path d="M258.001,2.295 C257.068,6.109 256.171,9.338 255.894,13.263 C255.626,17.057 255.512,20.863 255.753,24.66 C256.204,31.759 258.208,38.773 261.954,44.834 C271.993,61.077 288.549,71.087 305.373,79.068 C321.805,86.863 338.481,93.822 350.683,107.843 C355.609,113.502 359.181,120.055 362.326,126.826 C364.015,130.464 365.542,134.197 366.972,137.944 C368.311,141.448 370.248,145.925 372.632,148.819 C374.872,151.538 379.575,148.243 379.966,145.53 C381.079,137.798 378.856,129.132 376.365,121.816 C373.865,114.47 370.164,107.688 365.608,101.418 C355.17,87.05 339.325,78.117 323.42,71.056 C305.97,63.309 288.988,55.788 275.932,41.328 C271.044,35.916 267.787,29.626 265.838,22.634 C264.873,19.169 264.385,15.572 263.905,12.015 C263.381,8.118 262.503,4.944 261.441,1.185 C260.902,-0.732 258.277,1.171 258.001,2.295 L258.001,2.295 Z" id="Shape"></path>
                    <path d="M61.351,169.005 C58.624,191.503 68.874,213.905 78.327,233.744 C88.409,254.904 100.135,275.268 108.826,297.079 C117.321,318.399 122.581,341.815 119.184,364.797 C117.355,377.165 113.437,389.216 108.865,400.814 C106.525,406.75 103.969,412.601 101.565,418.51 C99.241,424.227 98.13,430.185 95.929,435.913 C94.538,439.533 98.811,439.8 100.665,437.56 C104.484,432.949 108.509,428.72 111.745,423.668 C115.258,418.183 117.942,412.219 120.439,406.221 C125.548,393.95 129.683,381.083 132.191,368.024 C136.821,343.923 132.531,319.377 124.107,296.618 C115.803,274.184 103.509,253.532 92.304,232.489 C86.654,221.879 81.319,211.146 76.263,200.24 C71.436,189.827 68.158,178.783 63.244,168.394 C62.819,167.497 61.446,168.225 61.351,169.005 L61.351,169.005 Z" id="Shape"></path>
                    <path d="M339.745,168.709 C336.818,174.937 334.103,180.909 332.028,187.484 C329.888,194.26 328.01,201.11 326.175,207.973 C322.374,222.195 318.512,236.373 314.967,250.664 C308.321,277.453 298.779,303.4 297.223,331.195 C295.769,357.164 305.512,380.884 318.517,402.824 C331.483,424.699 347.04,446.51 365.5,464.053 C368.002,466.432 372.688,462.8 371.561,459.727 C363.113,436.685 346.552,416.923 333.751,396.172 C320.538,374.752 311.336,351.959 311.974,326.467 C312.624,300.437 321.328,275.017 326.622,249.72 C329.436,236.27 331.241,222.615 334.062,209.169 C335.494,202.345 337.068,195.554 338.612,188.754 C340.13,182.069 341.094,175.567 342.191,168.822 C342.469,167.12 340.248,167.64 339.745,168.709 L339.745,168.709 Z" id="Shape"></path>
                    <path d="M194.101,97.429 C180.62,125.317 177.047,157.648 175.741,188.26 C174.455,218.397 176.413,249.165 181.23,278.944 C184.652,300.102 190.555,320.781 194.297,341.883 C198.001,362.77 200.085,384.812 193.786,405.407 C190.057,417.601 182.246,429.492 172.974,438.153 C171.171,439.837 172.414,442.857 174.87,441.312 C184.099,435.504 191.6,428.577 197.195,419.174 C202.38,410.462 205.149,400.271 206.555,390.305 C209.602,368.715 205.951,346.686 201.586,325.545 C197.173,304.173 191.735,283.134 189.119,261.431 C185.326,229.961 183.892,198.036 186.185,166.396 C187.87,143.157 192.78,120.517 196.049,97.519 C196.241,96.16 194.512,96.58 194.101,97.429 L194.101,97.429 Z" id="Shape"></path>
                    <path d="M211.394,182.943 C212.498,195.072 221.495,202.043 232.044,206.543 C237.739,208.973 243.758,210.525 249.804,211.79 C254.597,212.793 261.779,215.143 266.525,213.497 C268.482,212.818 272.227,209.018 269.702,206.873 C266.458,204.118 260.027,204.604 255.904,204.034 C250.41,203.274 244.98,202.161 239.618,200.748 C229.321,198.035 217.877,192.381 213.713,181.918 C213.213,180.663 211.3,181.911 211.394,182.943 L211.394,182.943 Z" id="Shape"></path>
                    <path d="M155.021,183.743 C153.797,191.369 146.755,197.541 141.31,202.367 C136.238,206.862 128.302,210.624 125.127,216.823 C124.509,218.03 125.237,219.26 126.588,219.213 C134.253,218.952 142.602,210.147 147.584,205.09 C153.808,198.773 157.671,191.903 158.293,183.082 C158.432,181.113 155.25,182.316 155.021,183.743 L155.021,183.743 Z" id="Shape"></path>
                    <path d="M159.486,466.104 C158.374,467.038 157.39,468.101 156.327,469.088 C156.124,469.277 155.92,469.465 155.715,469.651 C155.611,469.745 155.507,469.839 155.403,469.932 C155.932,469.521 155.695,469.685 154.693,470.423 C153.762,471.236 153.055,472.092 152.461,473.184 C151.896,474.222 151.87,475.709 152.679,476.631 C153.776,477.881 155.754,477.633 157.045,476.864 C158.129,476.218 158.991,475.432 159.699,474.392 C160.13,473.831 160.425,473.208 160.583,472.521 C160.37,473.236 160.95,472.092 160.96,472.074 C161.583,470.958 162.238,470.039 163.143,469.002 C163.868,468.172 164.173,466.678 163.391,465.786 C162.339,464.59 160.503,465.25 159.486,466.104 L159.486,466.104 Z" id="Shape"></path>
                    <path d="M24.19,135.965 C19.28,142.888 15.475,149.518 12.918,157.676 C10.048,166.834 8.428,176.404 7.168,185.898 C5.875,195.639 5.045,205.439 4.121,215.219 C3.266,224.275 2.897,233.955 0.413,242.742 C3.687,242.081 6.961,241.419 10.235,240.758 C10.223,237.787 9.944,235.103 7.184,233.534 C5.722,232.703 4.054,233.825 3.111,234.887 C0.763,237.535 0.326,240.497 0.312,243.94 C0.301,246.696 3.338,247.559 5.518,246.863 C8.266,245.984 10.051,243.574 10.235,240.759 C10.769,232.608 11.959,224.483 12.48,216.313 C13.065,207.137 13.508,197.953 14.245,188.786 C14.989,179.53 16.084,170.269 17.988,161.176 C19.682,153.085 21.736,143.741 26.004,136.596 C26.748,135.349 24.833,135.057 24.19,135.965 L24.19,135.965 Z" id="Shape"></path>
                    <path d="M380.771,156.399 C376.972,172.274 379.784,189.36 381.628,205.346 C383.548,221.983 386.1,238.749 385.137,255.534 C388.561,254.436 391.985,253.339 395.408,252.241 C395.024,249.462 394.226,246.803 391.592,245.453 C389.85,244.56 387.464,245.63 386.442,247.164 C384.412,250.211 384.77,252.042 385.137,255.534 C385.836,262.17 395.788,257.538 395.408,252.241 C394.219,235.666 391.833,219.342 389.045,202.969 C386.391,187.382 385.425,171.388 382.204,155.938 C382.036,155.125 380.878,155.95 380.771,156.399 L380.771,156.399 Z" id="Shape"></path>
                </g>
            </g>
        </g>
    </g>
</svg>