<?xml version="1.0" encoding="UTF-8"?>
<svg width="420px" height="467px" viewBox="0 0 420 467" version="1.1" xmlns="http://www.w3.org/2000/svg" xmlns:xlink="http://www.w3.org/1999/xlink">
    <!-- Generator: Sketch 41 (35326) - http://www.bohemiancoding.com/sketch -->
    <title>banana</title>
    <desc>Created with Sketch.</desc>
    <defs></defs>
    <g id="Page-1" stroke="none" stroke-width="1" fill="none" fill-rule="evenodd">
        <g id="Layer_1" transform="translate(-505.000000, -781.000000)" stroke-width="4" stroke="#010101" fill="#010101">
            <g id="Layer_1_3_">
                <g id="banana" transform="translate(507.000000, 783.000000)">
                    <path d="M325.475,116.615 C303.359,117.913 290.196,141.305 281.737,158.984 C275.852,171.285 270.868,183.994 264.919,196.276 C258.598,209.329 251.604,222.062 243.793,234.287 C228.649,257.99 209.591,278.449 188.665,297.141 C171.521,312.454 149.423,328.416 123.729,340.778 C111.377,346.72 98.603,351.543 85.447,355.357 C71.666,359.354 57.752,362.863 44.422,368.25 C35.406,371.894 27.199,375.949 21.478,384.087 C19.163,387.379 16.652,391.253 15.664,395.183 C15.265,396.769 15.033,398.405 14.721,400.009 C14.564,400.817 14.397,401.62 14.216,402.425 C13.572,405.288 14.079,401.853 16.658,401.294 C17.685,401.494 18.712,401.696 19.74,401.898 C19.969,402.229 19.966,402.067 19.73,401.414 C18.946,397.02 12.299,400.063 12.837,403.623 C13.017,404.81 13.119,406.055 13.918,407.008 C14.403,407.586 15.369,407.934 16.114,407.789 C22.859,406.489 21.044,396.239 23.537,391.429 C25.747,387.161 28.373,383.339 32.157,380.338 C37.131,376.392 43.903,374.217 49.743,371.983 C63.669,366.658 78.255,363.272 92.476,358.861 C105.317,354.879 117.767,349.278 129.754,343.225 C152.673,331.653 173.655,316.502 192.772,299.427 C213.276,281.112 231.813,260.916 246.891,237.881 C261.342,215.801 272.912,191.881 283.001,167.539 C291.575,146.851 302.73,125.696 325.328,118.374 C326.123,118.113 326.721,116.542 325.475,116.615 L325.475,116.615 Z" id="Shape"></path>
                    <path d="M10.619,408.158 C9.482,409.965 7.838,411.76 6.287,413.223 C4.402,415.004 1.769,415.772 1.01,418.449 C0.725,419.454 1.354,420.725 2.468,420.837 C5.577,421.144 7.725,417.948 9.438,415.724 C11.206,413.426 12.361,411.135 12.164,408.235 C12.105,407.378 10.947,407.638 10.619,408.158 L10.619,408.158 Z" id="Shape"></path>
                    <path d="M2.682,415.192 C-1.142,420.745 0.927,427.005 7.851,428.55 C7.312,428.116 6.773,427.685 6.234,427.252 C7.719,431.777 11.165,434.772 15.064,437.273 C17.506,438.84 22.928,439.631 22.683,435.026 C22.584,433.156 20.828,432.349 19.432,431.507 C17.262,430.198 15.39,428.681 13.79,426.71 C11.561,423.965 12.394,422.41 8.251,422.156 C5.025,421.959 4.032,417.754 4.08,415.258 C4.095,414.445 2.964,414.783 2.682,415.192 L2.682,415.192 Z" id="Shape"></path>
                    <path d="M25.145,446.808 C33.302,463.207 55.295,463.286 71.14,462.544 C94.091,461.47 117.175,457.752 139.534,452.627 C166.526,446.439 192.888,437.612 218.604,427.399 C244.039,417.297 270.014,406.208 292.848,391.001 C294.29,390.04 294.601,386.866 292.189,387.82 C280.199,392.568 268.798,398.731 257.148,404.258 C245.46,409.801 233.608,414.977 221.628,419.856 C197.146,429.829 172.031,438.307 146.389,444.763 C124.213,450.347 101.634,453.76 78.886,455.922 C61.911,457.534 40.12,458.838 27.277,445.282 C26.466,444.426 24.632,445.776 25.145,446.808 L25.145,446.808 Z" id="Shape"></path>
                    <path d="M385.357,119.25 C403.29,129.901 407.438,152.132 409.173,171.385 C411.308,195.044 409.306,218.587 403.015,241.506 C395.773,267.889 383.095,293.118 365.663,314.233 C346.167,337.85 324.922,360.164 301.657,380.103 C298.96,382.416 296.27,384.736 293.613,387.092 C292.358,388.205 293.265,390.261 294.887,389.216 C319.533,373.336 340.247,350.866 359.423,328.938 C377.534,308.226 392.372,286.238 402.243,260.414 C411.282,236.765 415.938,211.623 415.412,186.303 C415.026,167.763 413.237,147.141 403.4,130.946 C399.574,124.646 393.811,119.206 386.647,117.127 C385.64,116.832 384.248,118.591 385.357,119.25 L385.357,119.25 Z" id="Shape"></path>
                    <path d="M13.224,408.469 C9.025,409.622 6.848,412.206 6.369,416.523 C6.026,419.621 5.625,423.465 9.837,423.131 C13.112,422.87 16.095,419.961 17.422,417.15 C19.657,412.417 15.699,408.536 11.943,406.322 C10.271,405.338 8.225,407.184 7.823,408.718 C5.758,416.599 7.905,424.261 16.086,427.052 C17.451,427.518 19.155,426.1 19.669,424.964 C22.822,417.986 20.162,400.136 9.181,403.775 C3.598,405.626 1.166,411.417 3.185,416.712 C5.226,422.066 11.08,427.08 16.361,429.055 C18.53,429.866 20.436,428.292 21.118,426.29 C24.218,417.188 20.176,406.546 10.615,403.689 C8.666,403.106 6.884,405.167 6.362,406.755 C3.606,415.147 7.728,423.083 15.263,427.183 C17.208,428.242 19.938,426.263 20.264,424.278 C21.182,418.686 21.124,414.413 16.796,410.312 C15.331,408.924 13.099,409.885 12.029,411.302 C11.077,412.564 10.422,413.805 9.744,415.233 C9.011,416.775 10.549,417.503 11.804,416.886 C13.314,416.146 14.584,415.405 15.922,414.389 C14.537,414.501 13.151,414.614 11.766,414.726 C14.737,418.118 14.997,420.35 14.298,424.76 C15.965,423.791 17.632,422.822 19.299,421.855 C13.365,418.675 10.051,412.946 12.2,406.283 C10.782,407.305 9.364,408.328 7.947,409.349 C15.303,411.495 17.658,420.109 15.444,426.748 C17.029,425.826 18.615,424.904 20.201,423.983 C16.659,422.689 13.689,420.254 11.176,417.491 C9.246,415.369 5.727,410.117 10.092,408.629 C12.718,407.733 14.438,413.225 14.898,414.801 C15.71,417.579 16.093,421.353 14.893,424.072 C16.087,423.377 17.281,422.68 18.476,421.984 C12.413,419.988 11.357,413.861 12.739,408.318 C11.366,409.116 9.992,409.914 8.619,410.714 C11.635,412.436 15.397,416.107 10.977,418.582 C9.636,419.334 10.336,416.645 10.313,415.728 C10.245,412.896 11.266,411.839 13.632,410.437 C14.631,409.843 14.717,408.059 13.224,408.469 L13.224,408.469 Z" id="Shape"></path>
                    <path d="M343.054,121.92 C334.788,125.949 326.2,132.295 321.524,140.375 C321.007,141.267 322.194,141.485 322.745,141.043 C329.988,135.234 335.232,127.737 343.511,123.111 C344.338,122.649 344.036,121.441 343.054,121.92 L343.054,121.92 Z" id="Shape"></path>
                    <path d="M309.895,162.308 C298.698,177.691 291.789,195.1 283.951,212.313 C276.317,229.08 267.12,244.824 256.032,259.548 C244.98,274.226 232.243,287.575 218.501,299.749 C204.697,311.979 189.451,321.911 174.598,332.737 C173.379,333.624 174.304,335.175 175.663,334.511 C191.626,326.722 206.198,315.008 219.517,303.387 C233.239,291.416 245.788,278.08 256.964,263.711 C267.984,249.545 277.402,234.119 284.902,217.815 C293.312,199.529 299.961,179.843 310.671,162.722 C311.064,162.092 310.282,161.775 309.895,162.308 L309.895,162.308 Z" id="Shape"></path>
                    <path d="M144.132,354.126 C123.434,365.71 100.93,375.765 77.968,381.825 C58.486,386.969 38.409,390.762 21.378,402.154 C20.303,402.874 19.181,404.045 19.317,405.467 C19.338,405.691 19.36,405.914 19.381,406.138 C19.575,408.167 21.811,408.471 23.311,407.573 C25.214,406.433 26.203,404.478 26.563,402.334 C26.88,400.438 25.008,399.875 23.572,400.663 C22.287,401.366 21.801,402.476 20.746,403.297 C22.253,403.377 23.76,403.457 25.267,403.537 C25.215,403.326 25.162,403.116 25.109,402.906 C24.707,404.059 24.305,405.214 23.903,406.365 C40.022,393.984 62.101,390.788 81.132,385.169 C103.382,378.6 125.288,367.919 144.431,354.908 C144.926,354.571 144.774,353.767 144.132,354.126 L144.132,354.126 Z" id="Shape"></path>
                    <path d="M333.533,23.942 C335.663,31.257 338.73,38.234 340.533,45.666 C342.429,53.475 342.792,61.771 342.039,69.75 C341.297,77.612 339.335,85.285 336.305,92.569 C333.413,99.515 328.695,105.425 325.639,112.209 C324.962,113.709 326.489,114.895 327.842,113.978 C341.248,104.894 347.117,84.429 348.646,69.215 C350.18,53.931 347.847,32.911 334.803,22.83 C334.204,22.369 333.367,23.374 333.533,23.942 L333.533,23.942 Z" id="Shape"></path>
                    <path d="M336.965,23.886 C342.877,14.335 356.155,9.019 366.51,6.503 C372.159,5.13 378.656,4.627 384.01,7.265 C390.262,10.344 389.902,16.208 387.33,21.686 C384.167,28.427 379.506,34.394 375.673,40.752 C371.128,48.292 369.112,55.443 368.361,64.245 C367.561,73.612 368.75,82.81 371.218,91.848 C373.834,101.421 377.412,111.212 383.519,119.062 C384.729,120.618 387.671,118.474 387.381,116.842 C385.424,105.83 379.999,95.914 377.217,85.067 C374.472,74.359 374.133,61.995 377.25,51.335 C379.601,43.298 385.806,36.066 390.103,29 C393.502,23.407 397.179,16.624 395.37,9.9 C391.714,-3.683 371.408,-0.071 362.07,2.953 C355.291,5.148 348.811,8.472 343.106,12.733 C339.66,15.307 335.206,19.097 335.371,23.809 C335.401,24.701 336.64,24.412 336.965,23.886 L336.965,23.886 Z" id="Shape"></path>
                    <path d="M362.974,7.712 C356.34,11.42 348.8,14.473 345.807,22.054 C345.269,23.416 345.547,24.685 347.043,25.14 C359.361,28.887 373.653,27.475 385.254,22.061 C386.794,21.342 387.798,19.411 387.329,17.777 C383.146,3.216 366.035,8.056 358.729,17.136 C357.473,18.697 357.541,21.202 359.757,21.743 C367.966,23.748 376.261,21.666 383.321,17.241 C385.004,16.186 387.441,11.646 383.81,11.264 C372.248,10.05 358.674,10.407 350.686,20.114 C349.805,21.184 349.183,23.891 350.988,24.537 C364.534,29.386 381.379,20.898 385.704,7.237 C386,6.303 385.581,4.845 384.598,4.454 C375.416,0.805 366.528,1.663 359.634,9.085 C357.811,11.049 358.917,13.899 361.554,13.901 C367.563,13.904 373.548,13.888 379.449,12.632 C378.25,11.959 377.053,11.286 375.852,10.613 C375.838,11.462 375.062,12.154 375.178,13.188 C375.367,14.879 377.439,14.806 378.429,13.824 C377.736,14.512 379.966,13.23 380.221,13.021 C381.277,12.156 381.841,11.351 382.349,10.086 C383.103,8.205 382.354,6.003 379.986,6.22 C374.298,6.741 368.723,7.117 363.006,7.127 C363.647,8.732 364.285,10.338 364.925,11.943 C368.881,7.666 375.105,8.658 379.962,10.574 C379.593,9.647 379.225,8.719 378.856,7.791 C376.123,16.492 363.89,21.448 355.572,18.491 C355.673,19.965 355.773,21.44 355.874,22.914 C361.375,16.206 373.016,16.967 380.75,17.764 C380.913,15.772 381.076,13.78 381.239,11.787 C375.565,15.357 369.404,16.881 362.803,15.285 C363.147,16.821 363.49,18.356 363.831,19.892 C368.891,13.581 378.53,12.338 381.231,21.251 C381.921,19.823 382.615,18.395 383.306,16.967 C372.912,21.964 360.628,22.173 349.517,19.888 C350.006,20.69 350.496,21.492 350.987,22.294 C352.84,16.217 359.617,13.394 363.832,9.142 C364.618,8.354 364.134,7.064 362.974,7.712 L362.974,7.712 Z" id="Shape"></path>
                    <path d="M30.718,415.407 C32.055,418.797 32.624,422.043 32.605,425.674 C32.591,428.428 30.98,432.112 32.384,434.599 C33.03,435.742 34.485,435.602 35.37,434.758 C41.13,429.263 37.132,419.394 33.845,413.627 C32.879,411.931 30.075,413.78 30.718,415.407 L30.718,415.407 Z" id="Shape"></path>
                </g>
            </g>
        </g>
    </g>
</svg>