<?xml version="1.0" encoding="UTF-8"?>
<svg width="514px" height="441px" viewBox="0 0 514 441" version="1.1" xmlns="http://www.w3.org/2000/svg" xmlns:xlink="http://www.w3.org/1999/xlink">
    <!-- Generator: Sketch 41 (35326) - http://www.bohemiancoding.com/sketch -->
    <title>bank</title>
    <desc>Created with Sketch.</desc>
    <defs></defs>
    <g id="Page-1" stroke="none" stroke-width="1" fill="none" fill-rule="evenodd">
        <g id="Layer_1" transform="translate(-3254.000000, -4740.000000)" fill="#010101">
            <g id="Layer_1_3_">
                <g id="bank" transform="translate(3254.000000, 4740.000000)">
                    <path d="M461.501,146.502 C459.925,150.619 460.173,155.779 459.883,160.133 C459.742,162.24 459.66,164.68 458.942,166.684 C458.159,168.864 456.843,170.381 457.618,172.854 C458.075,174.315 459.76,174.954 461.153,174.827 C468.114,174.192 468.276,166.823 468.52,161.54 C468.732,156.966 469.173,149.561 466.833,145.417 C465.576,143.19 462.293,144.433 461.501,146.502 L461.501,146.502 Z" id="Shape"></path>
                    <path d="M50.796,183.284 C83.074,183.35 115.4,181.514 147.686,181.05 C180.285,180.581 212.889,180.448 245.491,180.173 C311.074,179.62 376.574,176.7 442.14,175.754 C448.778,175.658 455.399,175.817 462.033,175.825 C466.744,175.829 469.948,167.413 463.838,167.401 C460.27,167.393 456.984,167.546 453.465,168.179 C450.749,168.668 446.511,174.069 451.13,175.006 C454.822,175.754 458.273,175.832 462.033,175.824 C462.635,173.015 463.236,170.207 463.838,167.4 C430.555,167.498 397.263,169.41 364.005,170.603 C331.519,171.767 299.024,172.513 266.52,172.986 C201.411,173.931 136.159,173.691 71.13,177.474 C64.633,177.851 58.175,178.339 51.706,179.042 C49.432,179.29 47.651,183.278 50.796,183.284 L50.796,183.284 Z" id="Shape"></path>
                    <path d="M43.896,155.555 C42.19,159.569 43.008,164.084 43.475,168.282 C43.731,170.581 44.004,172.88 44.224,175.182 C44.436,177.411 43.729,178.194 44.481,180.545 C45.298,183.097 48.46,183.488 50.64,182.791 C53.545,181.862 55.467,179.547 56.352,176.719 C57.247,173.86 55.447,169.301 54.741,165.762 C53.919,161.647 53.764,156.67 51.548,153.045 C49.702,150.026 44.782,153.471 43.896,155.555 L43.896,155.555 Z" id="Shape"></path>
                    <path d="M11.157,128.358 C15.836,126.736 19.991,123.87 24.322,121.503 C29.103,118.89 33.894,116.306 38.753,113.839 C48.781,108.744 59.029,104.061 69.278,99.429 C89.663,90.219 110.319,81.595 130.284,71.482 C151.128,60.923 171.919,50.404 193.031,40.373 C203.267,35.51 213.483,30.603 223.585,25.466 C228.198,23.119 232.807,20.766 237.366,18.317 C241.778,15.946 247.213,14.651 251.287,11.831 C253.786,10.1 256.111,7.653 255.936,4.359 C255.793,1.684 253.317,-0.362 250.626,0.077 C248.66,0.397 246.768,0.839 244.897,1.52 C241.654,2.704 238.547,5.776 238.745,9.483 C238.94,13.159 242.523,14.09 245.536,13.296 C246.347,13.081 247.034,12.983 247.873,12.929 C247.653,9.011 247.433,5.093 247.213,1.175 C243.039,3.584 239.885,7.351 235.683,9.8 C231.236,12.394 226.722,14.886 222.167,17.284 C212.183,22.542 202.006,27.442 191.849,32.352 C170.754,42.547 149.799,52.893 128.999,63.67 C109.166,73.945 88.54,82.643 68.224,91.897 C57.952,96.577 47.779,101.438 37.786,106.692 C28.45,111.601 16.96,116.704 9.637,124.452 C8.168,126.002 8.183,129.389 11.157,128.358 L11.157,128.358 Z" id="Shape"></path>
                    <path d="M255.359,6.116 C263.459,12.225 273.422,16.21 282.455,20.754 C291.82,25.466 301.153,30.239 310.489,35.009 C330.084,45.023 349.645,55.097 369.329,64.937 C388.97,74.755 408.775,84.226 428.788,93.263 C449.808,102.753 471.491,110.728 492.49,120.208 C494.19,117.415 495.889,114.622 497.59,111.828 C494.832,111.474 492.2,111.53 489.44,111.447 C487.01,111.375 484.645,114.7 486.148,116.796 C488.183,119.632 491.246,120.482 494.589,120.603 C498.86,120.755 502.784,113.431 497.59,111.829 C475.929,105.145 454.945,95.264 434.288,86.004 C413.685,76.768 393.325,66.988 373.018,57.126 C353.714,47.75 334.496,38.201 315.228,28.754 C305.78,24.121 296.311,19.533 286.817,14.996 C277.366,10.478 267.732,5.127 257.53,2.551 C255.731,2.094 253.663,4.834 255.359,6.116 L255.359,6.116 Z" id="Shape"></path>
                    <path d="M60.307,182.41 C59.114,190.186 60.024,198.116 58.911,205.868 C58.553,208.359 60.468,209.627 62.777,208.989 C73.269,206.09 83.718,204.493 94.602,203.981 C105.481,203.469 118.144,203.208 128.625,206.659 C131.82,207.71 135.107,203.777 135.135,200.944 C135.202,194.178 135.221,187.423 134.211,180.715 C133.304,174.687 123.961,178.889 124.797,183.733 C125.945,190.381 126.068,197.098 126.141,203.829 C128.312,201.924 130.482,200.019 132.652,198.114 C120.448,196.544 108.643,195.52 96.295,196.081 C84.731,196.606 72.124,197.794 61.447,202.575 C63.081,203.173 64.716,203.768 66.35,204.366 C65.174,196.813 66.19,189.055 64.924,181.477 C64.459,178.697 60.628,180.311 60.307,182.41 L60.307,182.41 Z" id="Shape"></path>
                    <path d="M377.326,175.21 C375.165,183.149 376.019,191.57 376.261,199.699 C376.311,201.392 377.859,202.429 379.456,202.275 C398.959,200.388 422.236,193.695 440.957,202.384 C444.672,204.107 448.31,200.376 448.604,196.885 C448.991,192.303 449.081,187.747 448.799,183.157 C448.573,179.483 448.836,174.382 445.184,172.455 C442.181,170.87 439.131,173.878 438.246,176.487 C437.152,179.71 438.797,182.958 439.187,186.237 C439.723,190.738 439.66,195.317 439.406,199.833 C441.955,198.001 444.504,196.167 447.053,194.335 C437.309,190.073 426.546,189.811 416.079,190.28 C404.391,190.803 392.639,192.598 381.11,194.54 C382.175,195.399 383.241,196.259 384.305,197.118 C383.548,189.499 383.688,181.718 382.524,174.159 C382.016,170.852 377.91,173.065 377.326,175.21 L377.326,175.21 Z" id="Shape"></path>
                    <path d="M48.127,405.87 C63.943,405.681 79.754,404.432 95.568,403.968 C111.596,403.499 127.637,403.337 143.672,403.331 C175.907,403.319 208.137,404.325 240.362,405.04 C305.337,406.485 370.221,405.634 435.2,405.612 C441.121,405.608 447.042,405.618 452.963,405.635 C455.595,405.643 458.227,405.655 460.859,405.668 C464.164,405.684 467.263,406.494 470.579,406.422 C471.531,401.981 472.482,397.539 473.434,393.098 C470.442,393.463 467.797,394.496 464.899,395.215 C460.711,396.256 455.416,406.238 462.443,406.678 C465.22,406.852 467.813,406.623 470.579,406.422 C477.873,405.891 483.218,393.307 473.434,393.098 C469.455,393.014 465.444,393.858 461.404,393.903 C457.443,393.946 453.482,393.997 449.522,394.049 C440.94,394.166 432.359,394.309 423.777,394.459 C407.298,394.746 390.814,394.895 374.333,395.063 C341.997,395.393 309.672,395.426 277.338,394.874 C212.978,393.774 148.541,391.597 84.211,394.985 C72.737,395.589 61.21,396.219 49.836,397.899 C45.686,398.512 42.14,405.94 48.127,405.87 L48.127,405.87 Z" id="Shape"></path>
                    <path d="M40.95,401.002 C40.377,407.051 41.609,413.119 41.365,419.215 C41.222,422.776 41.098,426.336 40.978,429.899 C40.93,431.327 40.811,432.751 40.707,434.176 C41.067,429.285 40.403,434.785 40.503,436.071 C41.12,444.051 53.424,438.546 52.925,432.089 C52.674,428.835 49.594,426.757 46.467,427.757 C42.909,428.896 40.762,432.55 40.503,436.071 C40.246,439.553 44.469,440.544 47.021,439.729 C50.482,438.622 52.666,435.614 52.925,432.088 C53.025,430.742 52.691,429.742 51.956,428.582 C53.755,431.426 52.596,428.922 52.477,427.023 C52.244,423.287 52.217,419.527 52.063,415.785 C51.811,409.666 51.347,403.156 47.97,397.855 C46.151,395 41.176,398.608 40.95,401.002 L40.95,401.002 Z" id="Shape"></path>
                    <path d="M44.893,438.243 C50.129,441.114 55.699,440.466 61.555,440.591 C68.674,440.743 75.801,440.704 82.92,440.732 C97.309,440.791 111.703,440.566 126.091,440.437 C156.243,440.169 186.395,439.828 216.547,439.58 C279.589,439.06 342.647,439.871 405.669,437.877 C428.441,437.158 451.232,435.344 473.991,435.035 C481.417,434.933 486.393,421.441 476.829,421.793 C474.052,421.895 471.424,422.246 468.689,422.732 C465.878,423.232 463.43,424.761 462.177,427.425 C460.939,430.058 461.642,433.392 464.823,434.029 C467.907,434.646 470.849,434.918 473.99,435.035 C474.936,430.621 475.882,426.207 476.828,421.793 C444.434,425.93 411.229,426.244 378.595,427.119 C346.313,427.986 314.026,428.053 281.736,428.221 C221.85,428.535 161.975,429.75 102.094,430.453 C92.533,430.566 82.974,430.697 73.413,430.857 C64.553,431.003 54.856,429.935 46.577,433.343 C45.01,433.989 42.461,436.911 44.893,438.243 L44.893,438.243 Z" id="Shape"></path>
                    <path d="M475.464,397.911 C474.281,402.86 474.47,408.116 474.156,413.177 C473.992,415.823 473.608,418.45 472.994,421.029 C472.074,424.89 477.576,417.291 473.277,421.064 C472.304,421.912 471.539,422.914 470.98,424.074 C470.118,426.416 470.26,426.246 471.408,423.568 C466.993,428.902 472.469,433.232 477.796,430.847 C477.6,430.954 477.404,431.062 477.208,431.169 C479.91,430.366 482.991,427.601 483.341,424.649 C483.179,426.02 483.77,423.088 483.873,422.729 C484.204,421.577 484.279,420.303 484.392,419.118 C484.645,416.434 484.609,413.776 484.451,411.089 C484.15,405.976 483.536,400.696 482.073,395.782 C480.987,392.127 475.989,395.715 475.464,397.911 L475.464,397.911 Z" id="Shape"></path>
                    <path d="M56.843,398.557 C58.143,394.485 58.073,390.5 58.072,386.27 C58.071,382.647 57.182,375.916 59.464,372.862 C57.74,373.645 56.017,374.428 54.292,375.212 C58.716,376.64 63.712,376.435 68.33,376.53 C74.033,376.649 79.733,376.337 85.411,375.831 C96.222,374.866 106.892,372.874 117.532,370.796 C116.157,369.687 114.783,368.577 113.408,367.47 C113.373,376.956 115.102,386.669 111.613,395.699 C109.42,401.375 115.339,402.974 119.217,399.865 C123.959,396.064 124.315,389.513 124.549,383.898 C124.824,377.306 123.939,370.724 123.794,364.14 C123.727,361.091 120.697,360.572 118.345,361.081 C108.165,363.284 97.867,364.974 87.507,366.048 C82.442,366.573 77.35,366.874 72.26,367.013 C67.224,367.148 62.119,366.466 57.114,366.962 C54.111,367.261 51.178,370.347 52.107,373.458 C52.592,375.083 51.736,377.519 51.644,379.2 C51.511,381.634 51.481,384.052 51.532,386.489 C51.626,390.925 51.682,395.518 53.384,399.673 C54.153,401.551 56.469,399.731 56.843,398.557 L56.843,398.557 Z" id="Shape"></path>
                    <path d="M388.504,395.299 C389.902,390.613 389.719,385.682 389.906,380.834 C390.106,375.678 390.306,370.52 390.506,365.361 C387.905,367.232 385.305,369.101 382.704,370.97 C405.645,379.408 431.062,376.937 455.035,377.277 C453.629,376.142 452.222,375.009 450.816,373.875 C450.804,377.162 451.023,380.445 451.136,383.729 C451.188,385.215 451.25,386.747 451.121,388.229 C451.051,389.04 449.829,391.786 450.197,391.112 C448.332,394.52 451.501,398.493 455.243,396.86 C465.527,392.378 461.711,379.346 461.442,370.469 C461.37,368.106 459.333,367.028 457.223,367.065 C434.181,367.487 410.166,369.821 387.913,362.409 C384.685,361.335 381.002,365.397 381.121,368.37 C381.32,373.399 381.52,378.429 381.721,383.46 C381.901,387.995 381.643,392.685 383.194,397.011 C384.248,399.944 387.983,397.049 388.504,395.299 L388.504,395.299 Z" id="Shape"></path>
                    <path d="M68.474,205.398 C65.92,211.501 66.09,217.816 65.922,224.336 C65.72,232.147 65.51,239.957 65.397,247.772 C65.196,261.799 64.766,275.854 65.12,289.881 C65.442,302.652 66.285,315.402 66.4,328.18 C66.516,340.991 66.384,354.782 61.947,366.959 C65.602,366.664 69.259,366.367 72.914,366.072 C72.505,361.547 70.446,358.088 65.638,357.929 C63.984,357.876 62.075,359.47 61.48,360.927 C60.17,364.13 61.229,366.517 61.343,369.781 C61.597,377.043 71.8,372.174 72.796,367.467 C78.113,342.362 75.882,317.135 74.386,291.758 C73.548,277.545 73.659,263.295 73.452,249.065 C73.34,241.364 73.175,233.667 72.973,225.965 C72.793,219.108 73.737,211.215 70.379,205.01 C69.933,204.186 68.772,204.688 68.474,205.398 L68.474,205.398 Z" id="Shape"></path>
                    <path d="M112.071,199.42 C110.636,212.127 110.867,225.035 110.415,237.807 C109.922,251.727 109.351,265.645 108.661,279.557 C107.263,307.758 105.79,336.028 103.268,364.155 C106.522,362.264 109.776,360.374 113.03,358.481 C111.572,357.831 110.606,356.616 109.101,355.993 C104.845,354.229 99.453,358.77 100.778,363.298 C101.473,365.673 102.723,367.974 105.151,368.884 C109.874,370.652 114.874,366.654 115.033,361.779 C115.919,334.691 117.262,307.629 117.871,280.529 C118.181,266.744 118.372,252.953 118.419,239.162 C118.465,225.639 119.117,211.768 117.507,198.324 C117.114,195.038 112.349,196.958 112.071,199.42 L112.071,199.42 Z" id="Shape"></path>
                    <path d="M386.576,197.295 C385.076,211.256 385.665,225.436 385.628,239.469 C385.587,255.073 385.618,270.676 385.608,286.282 C385.598,300.677 385.788,315.075 385.897,329.471 C385.948,336.037 385.979,342.606 385.988,349.174 C385.993,353.434 383.593,364.258 388.854,366.096 C390.597,366.705 392.253,366.34 393.66,365.096 C398.571,360.75 396.973,354.395 396.886,348.557 C396.788,342.108 396.656,335.659 396.513,329.209 C396.185,314.445 395.82,299.674 395.232,284.918 C394.64,270.064 394.084,255.209 393.601,240.35 C393.125,225.69 393.599,210.786 391.915,196.215 C391.542,192.993 386.835,194.872 386.576,197.295 L386.576,197.295 Z" id="Shape"></path>
                    <path d="M436.079,192.067 C427.784,190.692 427.296,210.141 427.186,214.674 C426.897,226.623 429.389,238.483 429.741,250.404 C430.325,270.207 430.025,290.078 430.507,309.896 C431.019,330.966 431.167,352.001 430.721,373.076 C433.185,370.455 435.65,367.836 438.115,365.217 C435.67,365.164 433.426,364.641 430.966,364.699 C427.535,364.783 424.158,369.185 426.307,372.269 C428.186,374.968 430.928,376.3 434.108,376.933 C438.635,377.833 442.844,373.396 442.984,369.144 C444.26,330.257 440.353,291.277 439.489,252.412 C439.249,241.631 437.331,231.031 436.27,220.314 C435.711,214.667 435.34,208.986 435.377,203.312 C435.4,199.736 436.792,195.958 436.527,192.576 C436.505,192.322 436.338,192.11 436.079,192.067 L436.079,192.067 Z" id="Shape"></path>
                    <path d="M296.21,201.608 C287.278,193.024 275.452,190.016 263.412,188.498 C250.441,186.862 237.286,187.806 224.562,190.653 C202.734,195.538 184.535,208.813 172.048,227.198 C159.788,245.249 153.444,266.745 152.058,288.391 C150.76,308.653 154.431,329.321 166.876,345.746 C179.263,362.094 198.462,372.752 217.534,379.299 C236.722,385.887 256.942,388.565 277.159,386.781 C299.193,384.838 319.288,375.168 333.957,358.595 C347.731,343.032 354.478,322.021 356.653,301.677 C358.926,280.429 354.924,260.005 346.556,240.392 C339.698,224.316 324.244,199.435 303.249,208.538 C300.975,209.523 298.963,211.115 298.413,213.678 C297.85,216.31 299.725,218.511 302.434,218.26 C318.531,216.774 327.885,232.455 333.731,245.16 C340.396,259.646 345.195,276.193 344.981,292.248 C344.712,312.484 339.86,333.512 327.53,349.9 C314.899,366.691 295.381,373.728 275.034,375.216 C255.138,376.671 234.463,372.448 216.124,364.841 C197.908,357.286 180.18,345.163 170.983,327.212 C161.736,309.161 162.498,286.189 166.452,266.851 C170.628,246.431 180.533,226.861 196.694,213.398 C209.089,203.073 225.441,198.492 241.22,196.869 C259.484,194.992 276.915,199.203 294.378,204.004 C295.428,204.293 297.195,202.555 296.21,201.608 L296.21,201.608 Z" id="Shape"></path>
                    <path d="M290.042,265.918 C297.199,249.397 277.412,235.113 263.838,230.662 C247.303,225.24 229.604,229.539 220.335,244.898 C215.937,252.187 215.09,262.931 218.186,270.8 C221.249,278.581 228.904,283.243 236.362,286.058 C251.319,291.704 272.628,290.599 280.411,306.863 C283.118,312.519 281.921,318.34 278.848,322.556 C275.475,327.185 269.08,330.294 262.084,330.947 C254.647,331.638 245.738,329.877 239.342,326.043 C236.743,324.484 234.289,321.229 232.993,318.533 C232.277,317.043 231.764,315.465 231.561,313.828 C231.592,312.717 231.556,312.451 231.452,313.031 C231.36,313.22 231.268,313.412 231.176,313.601 C232.322,311.665 231.407,312.492 228.433,316.08 C232.268,313.527 237.906,303.478 229.555,302.379 C223.283,301.553 217.076,305.422 214.899,311.393 C212.85,317.01 213.665,322.815 215.962,328.243 C220.538,339.059 230.942,344.524 241.904,346.764 C264.668,351.414 291.048,341.424 298.243,317.625 C301.45,307.016 298.381,296.33 291.095,288.191 C284.766,281.123 276.608,278.218 267.692,275.951 C259.855,273.959 251.736,272.637 244.291,269.373 C237.457,266.379 233.433,262.531 233.524,255.098 C233.564,251.828 234.298,249.942 235.477,247.721 C234.351,249.842 238.011,245.121 235.875,247.25 C236.171,246.955 238.162,245.4 236.205,246.793 C236.827,246.35 237.499,245.982 238.168,245.615 C239.093,245.162 239.083,245.156 238.136,245.597 C238.863,245.296 239.616,245.07 240.367,244.845 C242.158,244.304 241.462,244.493 243.848,244.265 C247.119,243.954 249.571,244.279 253.125,245.019 C259.307,246.304 265.623,249.343 270.45,253.417 C275.533,257.706 278.251,264.097 283.241,268.147 C285.541,270.014 288.926,268.495 290.042,265.918 L290.042,265.918 Z" id="Shape"></path>
                    <path d="M250.278,207.334 C246.458,214.025 245.835,222.463 245.361,230.022 C244.814,238.749 244.86,247.51 244.983,256.249 C245.223,273.134 246.047,290.036 246.997,306.895 C247.632,318.176 248.643,329.469 248.802,340.77 C248.866,345.374 248.861,349.977 248.538,354.571 C248.411,356.387 247.005,361.083 247.706,364.104 C247.634,362.813 247.562,361.52 247.49,360.229 C249.768,357.772 252.046,355.315 254.323,352.856 C249.945,354.69 246.135,358.731 247.512,363.799 C249.545,371.279 260.229,366.33 262.863,362.219 C265.891,357.49 266.202,352.412 266.522,346.934 C267.126,336.6 266.093,326.373 265.307,316.09 C263.891,297.545 262.332,279.012 260.881,260.471 C260.167,251.336 259.279,242.227 258.872,233.071 C258.657,228.241 258.668,223.405 258.496,218.573 C258.344,214.28 258.653,210.032 257.207,205.923 C255.942,202.329 251.38,205.402 250.278,207.334 L250.278,207.334 Z" id="Shape"></path>
                    <path d="M5.17,125.352 C2.869,130.989 3.605,137.555 2.952,143.51 C3.777,142.17 4.601,140.83 5.427,139.489 C3.136,141.704 0.455,146.438 3.364,149.348 C6.179,152.164 11.26,150.334 13.205,147.303 C14.883,144.69 16.235,139.674 12.35,138.049 C12.993,139.107 13.635,140.164 14.278,141.223 C13.655,135.905 14.706,128.77 12.164,123.926 C10.567,120.881 6.229,122.758 5.17,125.352 L5.17,125.352 Z" id="Shape"></path>
                    <path d="M7.129,132.452 C12.109,136.058 19.033,136.769 24.962,137.348 C34.201,138.252 43.591,137.967 52.851,137.604 C71.968,136.852 90.991,134.684 110.094,133.764 C122.852,133.151 135.713,133.682 148.481,133.795 C164.764,133.938 181.045,134.16 197.329,134.358 C229.948,134.753 262.561,134.848 295.183,134.618 C329.984,134.372 364.79,134.2 399.589,133.763 C416.687,133.547 433.784,133.359 450.883,133.228 C459.425,133.162 467.92,133.402 476.455,133.732 C481.143,133.914 485.865,133.961 490.535,134.41 C491.952,134.547 493.595,134.885 495.017,134.758 C497.805,134.51 498.135,135.41 494.909,133.959 C494.707,131.008 494.506,128.059 494.305,125.109 C496.722,123.08 497.177,122.617 495.668,123.72 C492.851,125.695 489.784,129.111 491.23,132.884 C492.567,136.371 497.121,136.294 499.834,134.614 C501.618,133.509 503.387,132.426 504.675,130.714 C506.604,128.148 507.474,123.706 504.071,121.864 C500.118,119.723 492.976,121.919 488.849,122.094 C480.195,122.461 471.543,122.914 462.888,123.25 C446.478,123.888 429.963,123.516 413.539,123.708 C380.659,124.094 347.793,124.949 314.913,125.303 C249.531,126.004 184.181,124.446 118.806,124.74 C100.308,124.824 81.759,127.617 63.32,128.887 C53.129,129.589 42.898,130.079 32.683,129.775 C26.103,129.578 17.874,129.531 12.109,125.88 C8.739,123.749 3.511,129.832 7.129,132.452 L7.129,132.452 Z" id="Shape"></path>
                    <path d="M100.384,107.93 C108.558,109.1 116.455,105.909 123.926,102.891 C132.684,99.354 141.082,94.981 149.358,90.45 C163.152,82.895 176.993,75.366 190.698,67.661 C202.108,61.246 213.284,54.427 224.724,48.063 C229.861,45.207 235.06,42.456 240.413,40.026 C241.285,39.63 242.18,39.28 243.071,38.928 C243.506,38.76 243.942,38.598 244.382,38.444 C244.916,38.251 243.158,37.85 244.063,38.321 C245.279,38.955 246.918,38.902 248.2,38.493 C249.173,38.171 250.044,37.671 250.811,36.991 C249.635,37.913 250.391,37.288 250.755,37.1 C252.823,36.036 254.97,32.614 253.058,30.488 C249.561,26.598 245.7,30.397 242.674,31.604 C237.383,33.715 232.356,36.463 227.356,39.174 C215.353,45.68 203.672,52.794 191.939,59.77 C179.229,67.325 166.171,74.309 153.345,81.668 C144.859,86.537 136.273,91.239 127.407,95.385 C118.655,99.477 109.3,101.963 100.542,106.002 C99.88,106.307 99.3,107.774 100.384,107.93 L100.384,107.93 Z" id="Shape"></path>
                    <path d="M249.105,34.446 C272.36,46.82 295.715,58.938 318.667,71.909 C330.198,78.425 341.769,84.856 353.451,91.097 C359.546,94.355 365.677,97.544 371.839,100.673 C374.63,102.089 377.435,103.48 380.243,104.862 C383.292,106.362 388.522,107.76 390.525,110.649 C393.088,107.899 395.651,105.149 398.214,102.399 C395.147,101.126 392.42,102.126 389.352,102.856 C387.146,103.381 384.777,107.127 387.352,108.674 C389.331,109.865 390.332,112.25 393.764,111.803 C398.959,111.127 403.208,101.776 395.873,101.959 C393.09,102.029 389.782,99.691 387.336,98.543 C384.496,97.211 381.672,95.846 378.851,94.476 C372.623,91.45 366.448,88.321 360.289,85.157 C348.476,79.086 336.769,72.809 325.007,66.643 C301.045,54.086 277.127,40.608 251.9,30.756 C249.924,29.985 246.819,33.23 249.105,34.446 L249.105,34.446 Z" id="Shape"></path>
                    <path d="M103.14,108.838 C126.284,111.037 149.797,107.922 172.978,106.834 C196.976,105.707 220.791,106.75 244.774,107.602 C293.549,109.332 342.582,109.309 391.232,113.303 C392.461,109.709 393.691,106.115 394.92,102.52 C391.117,102.456 387.668,103.098 383.996,104.041 C380.582,104.916 377.806,110.664 382.286,112.018 C385.789,113.077 388.943,113.428 392.596,113.366 C398.735,113.262 402.674,101.971 394.92,102.52 C371.209,104.202 347.012,101.94 323.283,101.114 C299.033,100.267 274.778,99.667 250.519,99.188 C226.453,98.713 202.32,98.424 178.284,99.868 C153.705,101.344 128.972,102.577 104.485,104.903 C102.811,105.061 100.577,108.594 103.14,108.838 L103.14,108.838 Z" id="Shape"></path>
                    <path d="M2.776,157.895 C17.804,160.801 33.88,159.862 49.124,159.711 C65.222,159.551 81.331,158.676 97.401,157.805 C129.745,156.055 162.053,153.666 194.428,152.529 C226.874,151.389 259.37,152.038 291.83,151.733 C324.357,151.428 356.814,150.416 389.281,148.432 C401.784,147.668 414.3,147.188 426.824,147.647 C435.729,147.973 444.616,149.487 453.444,150.608 C462.721,151.788 471.907,153.085 481.272,153.344 C485.208,153.453 489.142,153.26 493.043,152.729 C495.082,152.452 497.109,151.993 499.102,151.483 C500.79,151.051 502.873,151.762 504.592,151.891 C508.924,152.217 513.444,148.819 513.351,144.205 C513.208,137.117 510.406,130.414 503.79,127.18 C498.252,124.471 490.006,133.553 495.956,137.52 C499.463,139.86 500.996,144.049 501.251,148.084 C503.683,145.5 506.115,142.915 508.547,140.33 C506.018,140.246 503.588,139.826 501.053,140.148 C498.735,140.442 496.513,141.445 494.197,141.851 C488.321,142.884 482.252,142.839 476.31,142.652 C463.942,142.263 451.723,140.197 439.444,138.863 C408.77,135.528 377.333,140.142 346.615,141.17 C281.671,143.344 216.741,141.467 151.843,145.289 C127.269,146.736 102.706,148.415 78.112,149.505 C65.916,150.045 53.711,150.391 41.506,150.627 C29.365,150.861 17.113,150.178 5.022,151.336 C2.195,151.606 -1.493,157.069 2.776,157.895 L2.776,157.895 Z" id="Shape"></path>
                </g>
            </g>
        </g>
    </g>
</svg>