<?xml version="1.0" encoding="UTF-8"?>
<svg width="591px" height="483px" viewBox="0 0 591 483" version="1.1" xmlns="http://www.w3.org/2000/svg" xmlns:xlink="http://www.w3.org/1999/xlink">
    <!-- Generator: Sketch 41 (35326) - http://www.bohemiancoding.com/sketch -->
    <title>bear</title>
    <desc>Created with Sketch.</desc>
    <defs></defs>
    <g id="Page-1" stroke="none" stroke-width="1" fill="none" fill-rule="evenodd">
        <g id="Layer_1" transform="translate(-3293.000000, -67.000000)" fill="#010101">
            <g id="Layer_1_3_">
                <g id="bear" transform="translate(3293.000000, 67.000000)">
                    <path d="M589.926,82.41 C590.645,82.41 590.645,81.297 589.926,81.297 C589.208,81.297 589.208,82.41 589.926,82.41 L589.926,82.41 Z" id="Shape"></path>
                    <path d="M78.087,34.767 C86.032,26.444 94.872,19.353 105.723,15.169 C116.482,11.022 128.122,10.036 139.557,10.593 C162.745,11.722 185.968,20.783 204.79,34.156 L204.79,24.118 C202.066,25.372 203.916,24.271 204.381,24.346 C201.438,23.872 198.844,26.59 200.438,29.477 C201.397,31.211 203.031,33.175 204.792,34.157 C211.392,37.831 216.88,28.223 210.659,24.119 C189.343,10.048 163.901,1.347 138.299,0.66 C113.854,0.004 86.922,9.631 75.07,32.439 C74.087,34.326 76.529,36.399 78.087,34.767 L78.087,34.767 Z" id="Shape"></path>
                    <path d="M75.7,50.157 C59.819,62.36 49.318,80.463 41.801,98.75 C33.831,118.133 29.988,139.132 29.531,160.039 C28.634,201.119 42.585,243.603 73.132,272.011 C103.203,299.98 147.341,311.773 186.89,299.768 C227.306,287.499 253.581,252.247 260.808,211.604 C265.482,185.315 264.004,157.957 257.406,132.131 C251.102,107.465 238.806,80.19 218.474,63.952 C213.39,59.892 206.659,66.219 211.214,71.211 C219.113,79.863 226.369,88.674 232.222,98.867 C238.24,109.348 242.603,120.651 245.897,132.255 C252.501,155.522 254.195,180.558 250.808,204.506 C247.83,225.557 240.282,245.697 226.185,261.852 C213.658,276.208 196.894,286.068 178.502,290.79 C138.708,301.014 95.439,284.193 69.319,253.423 C42.431,221.746 34.283,176.244 40.194,135.985 C42.446,120.644 46.785,105.551 53.314,91.483 C59.767,77.579 68.699,65.327 78.17,53.362 C79.475,51.712 77.693,48.626 75.7,50.157 L75.7,50.157 Z" id="Shape"></path>
                    <path d="M214.416,33.407 C214.2,23.667 219.097,8.313 231.198,8.532 C239.616,8.684 240.242,19.571 239.8,25.576 C239.105,35.017 235.242,44.497 230.304,52.475 C228.353,55.626 225.981,58.852 222.966,61.069 C219.839,63.368 218.237,62.831 214.679,63.414 C210.445,64.108 210.456,69.99 213.566,71.939 C223.412,78.111 234.498,63.103 238.569,56.253 C244.89,45.621 249.204,32.157 248.235,19.693 C247.337,8.108 238.687,-2.104 226.134,1.618 C219.415,3.61 214.819,9.869 212.257,16.035 C210.105,21.221 208.735,29.431 212.716,34.109 C213.288,34.784 214.435,34.234 214.416,33.407 L214.416,33.407 Z" id="Shape"></path>
                    <path d="M95.331,76.77 C95.304,76.831 92.726,78.57 92.078,79.374 C90.152,81.767 89.469,84.513 89.14,87.517 C88.936,89.382 90.781,90.637 92.393,90.77 C93.815,90.885 95.239,90.953 96.664,91.023 C99.084,91.143 100.462,88.707 100.045,86.585 C99.378,83.191 98.787,79.761 97.535,76.525 C96.213,73.109 91.222,72.607 90.097,76.525 C89.431,78.844 88.925,81.212 88.362,83.559 C87.825,85.796 89.04,88.047 91.281,88.7 C93.159,89.246 95.059,89.72 96.951,90.216 C99.659,90.927 102.33,88.894 102.362,86.094 C102.388,83.752 102.521,81.342 101.968,79.043 C101.503,77.115 100.092,75.525 99.043,73.902 C97.635,71.72 94.001,70.7 92.123,73.009 C89.528,76.2 87.125,79.75 87.36,84.054 C87.568,87.86 89.696,91.292 92.9,93.277 C94.742,94.418 97.249,93.677 98.316,91.857 C99.465,89.895 98.526,87.432 97.578,85.602 C96.882,84.257 96.583,83.737 96.568,82.984 C96.54,81.587 98.144,79.584 99.044,78.351 L91.436,78.351 C92.234,79.478 93.16,80.569 93.8,81.797 C93.448,81.123 93.715,82.03 93.731,82.27 C93.814,83.541 93.799,84.822 93.814,86.093 C95.618,84.719 97.42,83.345 99.225,81.972 C97.321,81.519 95.419,81.042 93.503,80.64 C94.477,82.353 95.449,84.067 96.423,85.781 C96.863,83.042 97.352,80.307 97.673,77.551 C95.277,78.2 92.882,78.85 90.485,79.497 C92.063,82.174 92.403,85.496 93.281,88.45 C94.408,86.971 95.535,85.491 96.662,84.012 C95.237,84.082 93.813,84.15 92.391,84.266 C93.475,85.35 94.559,86.434 95.644,87.519 C95.51,85.058 95.827,82.978 97.209,80.92 C97.928,79.853 98.371,78.44 98.149,77.142 C97.932,75.857 95.873,75.592 95.331,76.77 L95.331,76.77 Z" id="Shape"></path>
                    <path d="M177.865,73.892 C175.822,76.925 173.789,79.781 173.68,83.559 C173.534,88.639 180.061,90.499 183.912,91.244 C186.146,91.676 187.865,90.631 188.67,88.543 C190.391,84.086 191.067,78.794 188.902,74.386 C187.092,70.702 183.08,69.511 179.306,70.04 C175.66,70.552 172.838,73.718 171.56,76.957 C169.855,81.277 171.316,86.18 173.789,89.871 C175.799,92.868 179.848,92.878 181.852,89.871 C184.699,85.606 186.693,81.328 186.831,76.123 C186.953,71.623 180.001,69.352 177.998,73.73 C177.09,75.715 176.451,77.691 176.102,79.847 C175.678,82.469 175.979,84.316 176.7,86.79 C177.208,88.527 179.036,89.096 180.575,88.366 C182.545,87.429 183.684,86.259 184.561,84.234 C185.356,82.4 185.381,80.323 186.183,78.515 C183.239,77.717 180.293,76.919 177.35,76.121 C177.294,79.62 175.653,82.288 173.787,85.156 L181.85,85.156 C181.368,84.452 180.93,83.736 180.537,82.977 C180.302,82.459 180.273,82.415 180.46,82.845 C180.302,82.46 180.183,82.062 180.064,81.661 C179.687,80.362 179.955,81.938 179.91,80.673 C179.861,79.338 179.687,81.152 179.973,79.913 C180.258,78.683 179.619,80.376 180.199,79.3 C180.779,78.222 179.717,79.703 180.533,78.831 C181.357,77.951 179.929,79.14 180.925,78.5 C181.928,77.856 180.203,78.653 181.321,78.3 C182.454,77.942 180.503,78.261 181.675,78.24 C182.129,78.264 182.001,78.236 181.291,78.154 C181.532,78.188 181.768,78.262 181.999,78.337 C181.395,78.063 181.288,78.025 181.685,78.226 C182.461,78.635 180.997,77.591 181.679,78.192 C181.969,78.508 181.935,78.442 181.575,77.99 C181.757,78.225 181.892,78.49 182.03,78.75 C181.579,77.897 182.177,79.4 182.245,79.729 C182.118,79.105 182.271,80.874 182.266,81.204 C182.233,83.004 181.666,84.743 181.212,86.483 C182.454,85.537 183.696,84.589 184.941,83.644 C183.311,83.516 181.729,83.29 180.183,82.743 C179.822,82.615 179.656,82.193 179.634,82.108 C179.257,80.543 180.447,77.062 180.787,75.121 C181.109,73.34 178.907,72.339 177.865,73.892 L177.865,73.892 Z" id="Shape"></path>
                    <path d="M145.074,266.113 C104.441,261.629 92.637,212.921 100.224,178.801 C104.862,157.943 119.63,137.716 142.018,134.857 C152.978,133.457 165.146,136.239 174.541,141.984 C183.156,147.252 189.04,156.112 192.747,165.317 C200.858,185.462 201.291,211.424 194.435,231.978 C190.761,242.989 183.466,252.478 173.561,258.539 C162.676,265.199 150.981,264.742 138.845,266.414 C136.766,266.701 137.104,269.766 138.845,270.278 C157.476,275.778 180.168,265.343 191.388,250.347 C203.513,234.142 205.742,212.606 204.565,192.954 C203.425,173.978 197.673,153.551 182.788,140.742 C167.46,127.553 143.322,125.171 125.469,134.165 C97.288,148.361 90.193,184.761 94.231,213.212 C97.918,239.191 114.685,270.343 145.075,267.73 C146.125,267.641 146.105,266.228 145.074,266.113 L145.074,266.113 Z" id="Shape"></path>
                    <path d="M66.248,260.785 C51.186,263.983 46.029,287.674 45.763,300.461 C45.592,308.678 45.009,317.399 45.009,325.112 C45.009,331.133 54.345,331.133 54.345,325.112 C54.345,322.928 53.774,320.113 51.996,318.709 C50.462,317.496 48.891,317.496 47.355,318.709 C45.578,320.113 45.007,322.932 45.007,325.112 C45.007,331.133 54.343,331.133 54.343,325.112 C54.343,317.994 53.785,309.935 53.627,302.326 C53.509,296.634 54.348,290.926 55.558,285.371 C56.465,281.205 57.913,277.235 60.027,273.533 C62.166,269.787 65.364,267.22 68.129,264.016 C69.406,262.539 68.191,260.373 66.248,260.785 L66.248,260.785 Z" id="Shape"></path>
                    <path d="M250.189,257.416 C251.008,262.381 252.483,267.209 253.247,272.201 C254.192,278.396 254.646,284.695 254.812,290.957 C254.963,296.685 254.792,302.496 253.881,308.158 C253.527,310.336 253.079,312.637 252.207,314.674 C251.479,316.369 250.277,317.795 249.783,319.597 C249.017,322.379 251.785,325.653 254.753,324.568 C259.402,322.869 260.531,317.558 261.346,313.186 C262.557,306.698 262.497,299.992 262.144,293.428 C261.749,286.153 260.74,278.895 259.166,271.782 C257.976,266.387 256.562,260.165 253.094,255.726 C251.896,254.192 249.942,255.923 250.189,257.416 L250.189,257.416 Z" id="Shape"></path>
                    <path d="M48.756,328.093 C54.649,341.374 68.656,350.03 81.506,355.428 C97.902,362.321 115.617,365.345 133.292,366.449 C167.813,368.609 207.102,363.706 237.008,345.14 C241.387,342.419 245.529,339.234 249.252,335.665 C252.438,332.614 257.918,327.6 256.732,322.782 C256.054,320.028 253.38,319.094 250.871,319.454 C248.928,319.732 247.342,321.124 245.728,322.107 C242.953,323.801 243.552,327.903 246.61,328.854 C248.792,329.534 250.261,328.954 252.136,328.815 C250.605,327.649 249.073,326.482 247.54,325.316 C246.977,323.107 247.677,323.106 246.711,324.347 C246.24,324.951 245.74,325.534 245.24,326.114 C244.214,327.306 243.102,328.425 241.971,329.517 C239.441,331.965 236.649,334.087 233.733,336.051 C227.268,340.405 220.15,343.766 212.878,346.516 C195.852,352.956 177.633,356.172 159.524,357.436 C140.966,358.732 122.185,357.718 103.984,353.803 C88.775,350.532 73.446,344.768 61.585,334.417 C58.496,331.723 55.938,328.581 53.442,325.348 C51.312,322.589 47.317,324.852 48.756,328.093 L48.756,328.093 Z" id="Shape"></path>
                    <path d="M71.99,280.888 C62.585,283.128 60.823,298.108 60.139,305.771 C59.603,311.771 58.096,327.072 65.41,329.948 C69.008,331.363 70.719,326.512 68.789,324.143 C68.578,323.882 67.579,320.615 67.252,318.96 C66.467,314.981 66.344,310.853 66.383,306.807 C66.466,298.296 68.065,290.328 73.7,283.828 C74.844,282.507 73.764,280.466 71.99,280.888 L71.99,280.888 Z" id="Shape"></path>
                    <path d="M83.906,288.904 C77.839,296.959 74.651,306.729 73.011,316.588 C72.23,321.287 71.811,326.043 71.503,330.793 C71.228,335.061 69.642,340.814 73.756,343.522 C76.003,345.001 79.238,343.542 79.89,341.027 C80.577,338.371 80.057,332.72 76.17,333.166 C74.489,333.357 72.987,334.179 72.526,335.939 C72.285,336.862 72.197,337.926 71.836,338.805 C73.882,337.975 75.926,337.143 77.971,336.311 C77.785,336.184 77.601,336.055 77.415,335.928 C78.105,337.131 78.797,338.334 79.487,339.539 C78.884,322.266 81.213,306.449 86.798,290.125 C87.427,288.287 84.903,287.582 83.906,288.904 L83.906,288.904 Z" id="Shape"></path>
                    <path d="M90.697,300.626 C88.372,315.77 87.124,331.337 86.769,346.655 C86.644,352.073 95.309,352.07 95.166,346.655 C95.117,344.782 95.063,342.804 94.853,340.96 C94.713,339.739 93.834,338.353 92.392,338.499 C88.191,338.933 86.923,342.88 86.769,346.655 L95.166,346.655 C94.926,331.366 96.299,315.798 94.085,300.626 C93.84,298.936 90.955,298.946 90.697,300.626 L90.697,300.626 Z" id="Shape"></path>
                    <path d="M114.703,303.941 C112.776,319.519 111.439,335.238 110.859,350.928 L119.489,350.928 C119.355,347.906 119.306,344.196 116.818,342.164 C115.757,341.299 114.591,341.299 113.531,342.164 C111.042,344.193 110.994,347.903 110.86,350.928 C110.613,356.485 119.655,356.503 119.49,350.928 C119.027,335.282 120.305,319.519 118.493,303.941 C118.208,301.498 115.002,301.513 114.703,303.941 L114.703,303.941 Z" id="Shape"></path>
                    <path d="M132.141,309.637 C130.758,320.087 130.37,330.533 129.861,341.062 C129.666,345.092 128.858,349.569 129.608,353.563 C130.613,358.917 138.761,356.643 137.761,351.315 C137.643,350.686 137.51,350.078 137.331,349.461 C136.288,345.851 131.08,345.851 130.036,349.461 C129.858,350.076 129.725,350.687 129.607,351.315 C128.607,356.643 136.755,358.919 137.76,353.563 C138.51,349.569 137.7,345.092 137.507,341.062 C136.996,330.534 136.61,320.087 135.227,309.637 C134.964,307.654 132.404,307.654 132.141,309.637 L132.141,309.637 Z" id="Shape"></path>
                    <path d="M151.86,311.062 C151.106,317.962 151.847,324.962 152.014,331.884 C152.191,339.192 152.141,346.471 152.168,353.778 C154.838,353.054 157.507,352.333 160.176,351.608 C159.039,349.17 157.905,346.673 156.61,344.317 C155.968,343.148 154.109,343.124 153.473,344.317 C151.655,347.738 151.027,351.217 152.322,354.921 C153.882,359.378 160.781,358.817 160.762,353.777 C160.735,346.471 159.962,339.136 159.137,331.883 C158.327,324.785 157.494,317.406 155.312,310.592 C154.678,308.611 152.071,309.135 151.86,311.062 L151.86,311.062 Z" id="Shape"></path>
                    <path d="M167.711,311.979 C173.229,324.932 171.305,340.122 170.687,353.778 C173.351,353.055 176.015,352.336 178.679,351.613 C177.432,349.17 176.8,346.491 175.34,344.188 C174.499,342.868 172.597,342.835 171.764,344.188 C169.785,347.403 169.743,351.376 170.84,354.917 C172.236,359.43 179.453,358.753 179.265,353.775 C178.682,338.556 179.322,323.469 170.849,310.142 C169.558,308.114 166.816,309.874 167.711,311.979 L167.711,311.979 Z" id="Shape"></path>
                    <path d="M186.34,307.636 C191.569,319.925 192.789,333.824 190.903,346.977 C193.624,347.345 196.342,347.713 199.063,348.081 C199.121,345.049 198.837,342.213 197.354,339.531 C196.333,337.69 193.483,337.69 192.462,339.531 C190.979,342.213 190.695,345.049 190.753,348.081 C190.856,353.452 198.848,353.421 199.063,348.081 C199.666,333.012 197.633,318.744 189.24,305.94 C188.023,304.083 185.509,305.685 186.34,307.636 L186.34,307.636 Z" id="Shape"></path>
                    <path d="M204.817,301.96 C212.732,314.066 212.922,329.835 213.338,343.809 C216.19,343.423 219.039,343.038 221.891,342.653 C220.665,338.905 220.076,334.745 218.276,331.247 C217.501,329.737 215.037,329.726 214.262,331.247 C212.082,335.534 212.241,340.421 213.493,344.969 C215.014,350.491 222.776,348.077 221.889,342.656 C219.398,327.415 219.473,311.273 207.517,299.884 C206.137,298.564 203.719,300.281 204.817,301.96 L204.817,301.96 Z" id="Shape"></path>
                    <path d="M225.99,287.832 C233.352,301.371 230.843,319.084 230.421,333.844 C233.275,333.457 236.13,333.073 238.984,332.686 C237.88,328.914 237.421,324.672 235.331,321.299 C234.419,319.828 232.293,319.818 231.384,321.299 C228.817,325.489 229.173,330.463 230.579,335.002 C232.009,339.614 239.259,338.887 239.142,333.844 C238.774,317.998 240.431,298.129 229.031,285.49 C227.51,283.808 224.967,285.953 225.99,287.832 L225.99,287.832 Z" id="Shape"></path>
                    <path d="M237.863,276.652 C249.628,286.328 251.451,309.048 243.223,321.308 C241.047,324.551 245.516,329.365 248.78,326.865 C256.71,320.791 256.903,308.922 255.569,299.787 C254.104,289.765 249.506,278.662 239.898,274.016 C238.287,273.235 236.299,275.367 237.863,276.652 L237.863,276.652 Z" id="Shape"></path>
                    <path d="M222.647,43.858 C223.131,42.865 223.389,41.702 223.52,40.609 C223.607,39.876 223.413,41.335 223.512,40.656 C223.537,40.477 223.571,40.301 223.603,40.122 C223.685,39.667 223.863,38.269 223.674,39.605 C223.704,39.386 223.744,39.169 223.785,38.954 C223.894,38.378 224.076,37.823 224.245,37.263 C224.281,37.139 224.326,37.018 224.37,36.896 C224.572,36.329 223.919,37.923 224.156,37.391 C224.26,37.157 224.385,36.933 224.523,36.716 C224.936,36.07 223.709,37.661 224.306,36.998 C224.58,36.695 225.287,36.197 223.929,37.231 C224.065,37.127 224.212,37.051 224.359,36.964 C224.944,36.612 223.023,37.421 223.941,37.152 C224.823,36.893 222.996,37.242 223.339,37.207 C223.499,37.191 223.661,37.193 223.82,37.201 C224.56,37.235 222.359,36.945 223.217,37.122 C223.409,37.162 223.598,37.222 223.783,37.288 C224.137,37.415 222.402,36.642 223.262,37.081 C223.422,37.162 223.575,37.256 223.723,37.352 C224.553,37.892 223.016,36.778 223.301,37.013 C223.469,37.151 223.623,37.301 223.775,37.456 C223.908,37.592 224.029,37.737 224.148,37.885 C222.954,36.399 223.544,37.081 223.792,37.471 C223.896,37.634 223.984,37.804 224.072,37.976 C224.43,38.69 223.512,36.465 223.878,37.534 C223.941,37.72 223.988,37.91 224.031,38.101 C224.27,39.178 223.912,37.042 223.96,37.468 C223.982,37.669 223.988,37.871 223.985,38.073 C223.985,38.177 223.977,38.28 223.969,38.383 C223.911,39.242 224.198,36.893 224.081,37.564 C224.045,37.778 223.986,37.989 223.926,38.197 C223.893,38.304 223.854,38.411 223.814,38.517 C223.579,39.155 224.437,37.099 224.147,37.718 C224.043,37.94 223.92,38.151 223.793,38.358 C223.726,38.466 223.65,38.573 223.577,38.677 C223.164,39.269 224.603,37.407 223.975,38.151 C223.586,38.612 223.135,39.018 222.666,39.395 C224.305,38.078 223.202,38.974 222.77,39.255 C222.398,39.498 222.028,39.74 221.646,39.969 C220.896,40.421 220.105,40.803 219.304,41.157 C221.901,40.011 218.2,41.63 218.629,41.439 C218.4,41.542 218.17,41.648 217.941,41.752 C217.378,42.009 216.859,42.374 216.293,42.639 C215.815,42.861 215.285,43.373 214.908,43.806 C215.082,43.678 215.257,43.551 215.429,43.424 C215.265,43.535 215.102,43.645 214.937,43.753 C213.447,44.739 212.863,45.972 212.656,47.696 C212.485,49.118 213.724,50.763 214.937,51.321 C215.815,51.725 216.479,51.884 217.447,51.935 C218.403,51.983 216.251,51.749 217.51,51.948 C218.656,52.128 219.36,52.11 220.498,51.896 C220.891,51.823 221.928,51.674 220.173,51.891 C221.1,51.777 221.954,51.693 222.819,51.375 C224.103,50.905 225.386,50.304 226.587,49.638 C229.824,47.839 232.671,44.87 233.671,41.233 C234.605,37.84 233.615,34.669 231.525,31.979 C229.009,28.74 223.966,27.314 220.337,29.445 C217.919,30.863 216.999,33.351 216.649,35.976 C216.483,37.223 216.763,38.561 217.034,39.774 C217.379,41.332 218.247,43.239 219.512,44.26 C220.441,45.007 222.035,45.113 222.647,43.858 L222.647,43.858 Z" id="Shape"></path>
                    <path d="M163.119,361.355 C158.59,372.211 159.117,385.993 158.83,397.553 C158.515,410.318 158.764,423.087 158.562,435.853 C158.524,438.246 160.577,440.202 162.927,440.217 C175.813,440.31 188.82,438.657 201.641,440.517 C204.717,440.962 207.734,439.289 207.764,435.853 C207.904,420.112 208.946,404.414 208.728,388.658 C208.641,382.455 209.831,347.496 195.797,354.212 C192.151,355.955 193.762,360.74 196.805,361.923 C195.251,361.319 193.719,358.919 195.69,361.61 C196.504,362.723 196.047,362.053 196.432,363.239 C197.203,365.612 197.553,368.137 197.833,370.608 C198.753,378.696 198.824,386.893 198.85,395.022 C198.891,408.637 198.06,422.245 198.088,435.856 C200.131,434.3 202.172,432.747 204.212,431.19 C190.426,429.336 176.742,431.208 162.927,431.491 C164.382,432.946 165.836,434.401 167.291,435.856 C167.053,423.7 166.359,411.559 166.062,399.405 C165.914,393.301 165.916,387.198 166.104,381.096 C166.3,374.725 167.218,368.217 166.799,361.856 C166.656,359.633 163.918,359.438 163.119,361.355 L163.119,361.355 Z" id="Shape"></path>
                    <path d="M170.734,421.896 C174.818,424.353 179.929,424.334 184.552,424.232 C188.449,424.144 193.512,424.034 196.662,421.541 C199.055,419.646 196.998,415.714 194.266,415.761 C191.077,415.817 187.794,417.178 184.549,417.477 C180.332,417.865 176.135,417.319 171.924,417.489 C169.596,417.58 168.667,420.655 170.734,421.896 L170.734,421.896 Z" id="Shape"></path>
                    <path d="M168.7,405.08 C171.629,408.293 176.339,409.271 180.5,409.722 C184.174,410.118 190.073,410.779 192.8,407.616 C194.802,405.295 193.738,400.563 190.026,400.916 C187.175,401.187 184.524,402.19 181.601,402.34 C177.7,402.537 173.815,401.831 169.928,402.122 C168.411,402.232 167.641,403.917 168.7,405.08 L168.7,405.08 Z" id="Shape"></path>
                    <path d="M172.685,389.979 C175.081,391.623 178.523,391.555 181.316,391.875 C184.33,392.22 188.004,392.326 190.952,391.496 C195.684,390.163 194.9,382.373 189.764,382.733 C186.947,382.932 184.133,383.442 181.316,383.712 C178.593,383.973 174.998,384.141 172.685,385.729 C171.107,386.813 171.107,388.895 172.685,389.979 L172.685,389.979 Z" id="Shape"></path>
                    <path d="M175.159,377.633 C180.989,378.589 187.057,377.085 192.968,377.461 C199.192,377.857 198.927,368.614 192.968,367.938 C187.083,367.27 179.577,369.506 174.473,372.365 C172.443,373.499 172.63,377.217 175.159,377.633 L175.159,377.633 Z" id="Shape"></path>
                    <path d="M147.583,364.61 C139.241,365.746 134.617,379.487 132.078,386.025 C128.055,396.392 125.56,407.28 121.518,417.637 C120.459,420.347 123.155,423.575 125.926,423.423 C133.32,423.017 140.838,424.08 148.133,425.194 C153.081,425.951 159.184,428.536 163.76,425.987 C165.563,424.983 165.946,422.753 165.063,421.016 C162.521,416.016 154.384,416.245 149.497,415.552 C141.729,414.453 133.772,413.524 125.927,414.279 C127.396,416.209 128.865,418.135 130.334,420.065 C133.475,410.936 135.584,401.484 138.313,392.229 C139.81,387.152 141.678,382.284 143.796,377.438 C145.38,373.813 148.488,370.085 149.169,366.193 C149.352,365.151 148.596,364.472 147.583,364.61 L147.583,364.61 Z" id="Shape"></path>
                    <path d="M132.367,397.283 C133.587,401.175 138.989,402.915 142.443,404.279 C147.698,406.355 153.421,408.133 159.101,407.154 C163.8,406.342 162.718,398.427 157.975,398.835 C153.258,399.237 148.941,398.411 144.392,397.21 C141.121,396.347 136.846,394.061 133.496,395.295 C132.694,395.589 132.086,396.389 132.367,397.283 L132.367,397.283 Z" id="Shape"></path>
                    <path d="M137.285,386.182 C140.728,387.593 144.416,388.249 148.081,388.813 C151.579,389.352 155.044,390.358 157.85,387.777 C158.928,386.785 158.882,384.929 157.85,383.93 C155.366,381.524 152.257,382.167 149.004,381.994 C145.312,381.799 141.629,381.213 137.928,381.437 C135.073,381.613 134.81,385.166 137.285,386.182 L137.285,386.182 Z" id="Shape"></path>
                    <path d="M145.927,376.548 C147.391,376.649 148.817,376.827 150.271,377.014 C151.948,377.227 153.667,377.977 155.353,377.845 C158.508,377.598 159.658,373.739 156.952,371.942 C154.035,370.005 149.23,370.936 145.928,371.159 C142.454,371.391 142.455,376.313 145.927,376.548 L145.927,376.548 Z" id="Shape"></path>
                    <path d="M48.328,332.917 C38.428,354.911 38.64,380.344 40.765,403.965 C42.453,422.723 41.739,442.967 47.5,461.034 C51.031,472.105 64,490.288 76.406,478.368 C80.996,473.959 83.219,467.01 84.863,461.055 C86.661,454.546 87.738,447.611 87.812,440.852 C85.361,442.258 82.91,443.665 80.458,445.073 C89.858,452.044 102.087,454.768 113.41,456.666 C126.582,458.872 140.006,459.685 153.345,459.922 C184.561,460.478 217.565,465.691 245.523,448.299 C242.942,446.819 240.36,445.336 237.778,443.855 C237.72,454.849 236.061,468.166 243.744,477.168 C248.121,482.299 255.558,481.967 261.297,479.824 C268.245,477.229 271.781,470.237 273.017,463.337 C276.019,446.547 270.389,427.416 266.713,411.187 C261,385.964 252.979,361.353 243.373,337.355 C242.211,334.448 239.67,332.594 236.426,333.412 C233.684,334.1 232.444,335.75 230.301,337.364 C225.057,341.318 229.471,349.555 235.553,346.349 C236.856,345.661 237.987,344.511 239.43,344.302 C237.303,343.438 235.176,342.573 233.051,341.705 C241.84,360.775 248.266,380.792 253.563,401.09 C257.749,417.121 262.045,433.834 263.247,450.428 C263.644,455.943 263.73,462.166 261.001,467.146 C259.312,470.226 253.882,472.756 251.032,469.883 C248.244,467.07 248.201,461.142 248.011,457.493 C247.775,452.947 248.054,448.401 248.077,443.854 C248.097,440.029 243.663,437.335 240.332,439.41 C214.134,455.72 182.575,450.093 153.35,449.655 C141.357,449.475 129.321,448.95 117.437,447.247 C106.447,445.673 94.523,443.34 85.397,436.636 C82.3,434.362 78.066,437.453 78.044,440.857 C77.978,450.754 76.052,462.582 70.29,470.84 C67.66,474.611 64.896,471.599 62.477,468.846 C57.463,463.144 55.52,455.775 54.167,448.492 C52.646,440.304 52.205,431.901 51.594,423.606 C50.98,415.282 49.855,407.028 49.026,398.722 C46.876,377.172 47.348,355.611 51.717,334.346 C52.111,332.405 49.236,330.903 48.328,332.917 L48.328,332.917 Z" id="Shape"></path>
                    <path d="M38.822,324.749 C29.975,331.827 21.335,339.187 13.74,347.624 C7.113,354.984 -1.667,365.992 1.344,376.657 C7.563,398.689 39.004,376.06 47.032,366.958 C49.56,364.091 45.366,359.863 42.822,362.748 C37.752,368.497 6.991,391.588 6.696,372.311 C6.55,362.811 16.228,353.415 22.301,347.202 C28.739,340.614 35.848,334.71 43.031,328.96 C46.03,326.56 41.788,322.374 38.822,324.749 L38.822,324.749 Z" id="Shape"></path>
                    <path d="M255.357,380.355 C260.527,387.851 268.096,393.866 276.973,396.26 C283.911,398.131 291.715,396.091 293.387,388.325 C295.753,377.344 287.4,364.839 280.533,357.176 C271.22,346.783 258.43,340.024 246.429,333.281 C243.078,331.398 240.078,336.541 243.425,338.422 C261.621,348.644 283.511,360.476 287.583,383.045 C288.783,389.696 284.379,391.869 278.556,390.519 C271.259,388.827 264.673,383.406 260.497,377.351 C258.333,374.213 253.17,377.186 255.357,380.355 L255.357,380.355 Z" id="Shape"></path>
                    <path d="M245.926,256.83 C249.766,256.83 249.766,250.877 245.926,250.877 C242.088,250.877 242.088,256.83 245.926,256.83 L245.926,256.83 Z" id="Shape"></path>
                    <path d="M79.797,29.062 C77.167,13.928 59.278,2.011 46.256,14.041 C38.909,20.826 38.555,31.651 42.447,40.207 C46.975,50.154 58.099,57.459 68.926,57.83 C72.767,57.961 72.754,52.008 68.926,51.877 C53.553,51.352 37.745,31.524 50.465,18.251 C54.184,14.37 60.001,14.344 64.567,16.569 C70.073,19.253 73.047,24.833 74.057,30.645 C74.712,34.421 80.449,32.815 79.797,29.062 L79.797,29.062 Z" id="Shape"></path>
                    <path d="M56.057,35.646 C56.797,38.005 56.695,40.727 59.071,42.2 C60.53,43.106 62.208,43.1 63.85,42.866 C66.381,42.506 66.977,40.434 67.705,38.292 C68.452,36.097 68.819,33.019 66.759,31.374 C64.799,29.811 62.319,29.878 59.927,29.878 C56.088,29.877 56.088,35.83 59.927,35.831 C60.77,35.831 61.613,35.83 62.454,35.88 C63.386,35.936 62.131,35.771 62.94,35.952 C63.058,35.981 63.174,36.015 63.288,36.056 C62.457,35.785 63.37,36.24 62.665,35.677 C62.839,35.816 62.349,35.014 62.415,35.29 C62.149,34.197 62.237,35.977 62.366,35.209 C62.185,36.281 61.777,37.355 61.356,38.353 C61.949,37.897 62.542,37.441 63.135,36.985 C62.555,37.089 62.836,37.049 62.317,37.074 C61.406,37.116 62.687,37.227 61.968,37.048 C62.102,37.081 62.766,37.647 62.371,37.257 C62.621,37.601 62.663,37.632 62.496,37.354 C62.65,37.74 62.672,37.773 62.561,37.453 C62.206,36.351 62.144,35.174 61.796,34.065 C60.653,30.412 54.905,31.971 56.057,35.646 L56.057,35.646 Z" id="Shape"></path>
                    <path d="M138.353,203.854 C138.56,202.285 139.024,201.246 139.827,199.83 C141.139,197.517 138.729,200.886 140.435,199.026 C141.405,197.968 139.634,199.297 141.687,198.076 C143.82,196.805 139.952,198.59 142.303,197.824 C144.766,197.02 142.159,197.625 143.663,197.527 C144.149,197.495 147.444,197.818 145.182,197.466 C146.279,197.636 147.346,197.962 148.399,198.303 C150.966,199.134 146.83,197.482 149.269,198.704 C150.304,199.224 151.265,199.874 152.208,200.539 C150.765,199.521 153.323,201.719 153.588,201.992 C154.294,202.829 154.37,202.884 153.814,202.155 C154.168,202.643 154.5,203.144 154.812,203.659 C156.548,206.398 156.997,209.83 156.199,213.118 C156.147,213.333 155.097,215.985 155.923,214.176 C155.748,214.558 153.897,217.362 155.155,215.76 C154.656,216.395 154.072,216.954 153.492,217.511 C152.468,218.496 154.275,217.121 152.205,218.386 C151.91,218.567 149.562,219.635 151.607,218.801 C150.629,219.2 149.604,219.466 148.581,219.712 C147.061,220.078 149.827,219.73 147.176,219.875 C146.128,219.934 145.08,219.858 144.038,219.766 C146.767,220.01 139.799,218.056 142.142,219.153 C141.727,218.959 139.048,217.191 140.852,218.586 C140.046,217.963 139.352,217.212 138.683,216.448 C140.094,218.059 138.62,216.127 138.417,215.77 C137.948,214.809 137.939,214.815 138.394,215.789 C138.207,215.254 138.05,214.711 137.918,214.161 C137.71,213.068 137.682,213.019 137.831,214.015 C137.776,213.38 137.75,212.744 137.755,212.108 C137.723,210.334 137.775,210.604 138.017,209.361 L119.839,209.361 C127.54,229.2 151.452,222.995 164.593,212.52 C159.657,211.883 154.724,211.248 149.788,210.612 C150.191,211.252 150.559,211.91 150.892,212.588 C150.129,211.13 151.018,214.727 150.766,211.872 C150.676,210.852 151.172,209.691 152.936,208.373 C150.994,209.823 153.826,208.351 151.301,209.171 C150.012,209.59 148.673,209.86 147.348,210.133 C141.226,211.393 135.166,211.861 130.262,216.191 C125.072,220.773 127.68,230.501 134.421,231.945 C140.228,233.189 145.625,233.189 151.433,231.945 C163.317,229.399 158.276,211.227 146.421,213.767 C144.021,214.281 141.832,214.281 139.433,213.767 C140.819,219.018 142.205,224.269 143.592,229.521 C141.249,231.586 144.328,229.53 141.734,230.596 C142.351,230.342 143.006,230.176 143.647,229.999 C145.147,229.587 146.696,229.335 148.227,229.061 C151.673,228.446 155.163,227.923 158.415,226.577 C169.649,221.925 172.131,211.33 166.065,201.098 C162.71,195.434 155.959,195.446 151.261,199.19 C153.116,197.711 150.833,199.39 150.557,199.568 C149.749,200.086 148.899,200.534 148.054,200.985 C146.168,201.99 144.811,202.452 142.292,203.16 C140.206,203.747 140.023,203.763 137.535,203.672 C139.419,203.74 136.062,202.971 137.816,203.785 C136.229,203.048 137.706,203.556 138.014,204.349 C136.473,200.379 133.445,197.429 128.925,197.429 C124.977,197.429 120.628,200.277 119.836,204.349 C116.837,219.768 124.129,235.447 140.754,238.182 C155.714,240.643 170.889,232.5 174.591,217.231 C178.579,200.78 168.237,184.928 152.608,179.867 C145.697,177.629 137.718,178.496 131.495,182.201 C123.661,186.865 120.625,195.297 119.498,203.855 C118.826,208.962 124.295,213.281 128.925,213.281 C134.573,213.279 137.682,208.946 138.353,203.854 L138.353,203.854 Z" id="Shape"></path>
                </g>
            </g>
        </g>
    </g>
</svg>