<?xml version="1.0" encoding="UTF-8"?>
<svg width="485px" height="487px" viewBox="0 0 485 487" version="1.1" xmlns="http://www.w3.org/2000/svg" xmlns:xlink="http://www.w3.org/1999/xlink">
    <!-- Generator: Sketch 41 (35326) - http://www.bohemiancoding.com/sketch -->
    <title>bird</title>
    <desc>Created with Sketch.</desc>
    <defs></defs>
    <g id="Page-1" stroke="none" stroke-width="1" fill="none" fill-rule="evenodd">
        <g id="Layer_1" transform="translate(-5496.000000, -1521.000000)" fill="#000000">
            <g id="Layer_1_3_">
                <g id="bird" transform="translate(5496.000000, 1521.000000)">
                    <path d="M51.462,80.103 C60.077,73.429 65.158,62.366 71.228,53.497 C77.421,44.448 84.859,36.228 93.901,29.948 C112.526,17.013 137.332,13.474 159.511,15.17 C182.696,16.942 205.1,24.693 224.929,36.707 C234.285,42.375 242.688,49.172 250.605,56.69 C259.025,64.687 268.12,74.025 270.182,85.89 C273.372,82.5 276.563,79.109 279.752,75.719 C275.337,76.352 273.074,78.511 269.557,80.87 C267.153,82.482 264.891,86.128 267.964,88.301 C270.635,90.189 273.192,91.039 276.485,90.973 C281.403,90.875 286.255,85.669 286.055,80.802 C285.527,67.911 275.826,56.689 267.237,47.954 C258.776,39.35 249.417,31.573 239.26,25.052 C218.404,11.661 193.869,3.433 169.235,1.067 C144.645,-1.295 118.176,2.342 96.401,14.553 C85.063,20.911 75.5,29.883 67.588,40.126 C64.01,44.757 60.842,49.73 57.983,54.831 C55.061,60.041 51.653,65.715 50.135,71.539 C49.417,74.296 48.791,76.754 48.926,79.605 C48.997,81.057 50.702,80.692 51.462,80.103 L51.462,80.103 Z" id="Shape"></path>
                    <path d="M46.096,78.628 C55.532,83.836 63.833,90.61 69.316,100.014 C74.836,109.482 77.552,120.479 78.153,131.353 C78.89,144.724 75.11,157.828 71.37,170.516 C67.113,184.959 63.425,199.091 63.778,214.276 C64.39,240.505 74.296,267.605 88.792,289.283 C99.417,305.171 113.472,318.446 129.019,329.449 C161.476,352.421 201.683,363.888 240.927,367.472 C281.218,371.151 322.753,366.725 360.899,353 C380.961,345.781 402.043,336.011 417.371,320.87 C425.15,313.185 432.846,305.037 438.988,295.958 C441.909,291.64 444.615,287.053 445.041,281.77 C445.166,280.216 444.956,278.46 444.16,277.103 C443.244,275.54 442.906,275.048 441.412,273.995 C440.837,273.59 437.717,272.543 439.795,273.284 C435.801,271.86 431.797,273.416 429.236,276.792 C427.445,279.155 425.902,284.937 429.89,286.359 C430.255,286.489 429.442,285.857 429.362,284.937 C429.15,282.497 428.407,287.182 429.152,285.248 C427.839,288.655 426.841,289.722 424.213,293.241 C419.086,300.106 414.295,305.155 408.576,310.848 C406.658,312.758 404.703,314.636 402.672,316.426 C401.317,317.619 405.018,314.861 402.25,316.801 C401.378,317.413 400.494,318.007 399.609,318.601 C397.528,320 395.402,321.331 393.26,322.635 C385.718,327.229 377.795,331.244 369.655,334.661 C333.537,349.82 293.185,355.214 254.228,352.678 C214.853,350.115 175.574,339.246 142.448,317.389 C104.999,292.68 78.789,250.031 78.435,204.474 C78.314,189.073 83.601,174.003 86.935,159.13 C89.708,146.763 90.724,133.925 88.404,121.411 C84.662,101.223 70.974,76.697 48.164,75.232 C46.709,75.141 44.096,77.524 46.096,78.628 L46.096,78.628 Z" id="Shape"></path>
                    <path d="M219.229,352.293 C212.178,366.274 214.19,383.514 215.848,398.588 C217.615,414.647 220.787,430.817 220.023,447.033 C224.157,445.707 228.292,444.382 232.425,443.056 C232.451,441.211 232.258,439.714 231.565,437.993 C229.182,432.071 221.922,437.864 220.739,441.482 C220.127,443.351 219.995,445.071 220.023,447.032 C220.073,450.465 223.757,451.571 226.53,450.685 C229.844,449.625 232.362,446.555 232.426,443.056 C232.711,427.466 229.253,412.056 226.733,396.753 C224.263,381.759 223.263,367.02 224.388,351.875 C224.628,348.623 220.006,350.75 219.229,352.293 L219.229,352.293 Z" id="Shape"></path>
                    <path d="M373.09,340.408 C370.564,348.051 370.926,356.644 370.597,364.612 C370.221,373.736 370.395,382.919 370.606,392.046 C370.819,401.202 371.241,410.363 372.141,419.479 C372.553,423.66 373.075,427.829 373.653,431.99 C373.979,434.337 374.354,436.676 374.763,439.01 C375.034,440.56 376.297,443.557 376.177,444.957 C378.109,442.903 380.041,440.85 381.973,438.796 C381.93,438.813 381.887,438.829 381.844,438.845 C383.926,439.605 386.009,440.365 388.092,441.125 C386.862,438.947 385.865,437.697 383.362,437.016 C381.376,436.475 378.57,437.982 377.547,439.658 C376.081,442.059 374.673,445.146 376.21,447.898 C377.493,450.197 379.898,451.14 382.458,450.177 C382.501,450.161 382.544,450.145 382.587,450.129 C385.067,449.196 388.12,446.88 388.383,443.968 C388.704,440.41 387.558,436.778 386.96,433.261 C386.16,428.562 385.454,423.855 384.847,419.127 C383.693,410.135 382.839,401.091 382.169,392.051 C381.499,383.037 381.071,374.002 380.726,364.971 C380.406,356.674 381.007,346.669 377.831,338.882 C376.776,336.292 373.616,338.821 373.09,340.408 L373.09,340.408 Z" id="Shape"></path>
                    <path d="M179.688,459.746 C186.868,460.802 195.083,457.946 202.022,456.28 C209.733,454.428 217.776,452.639 225.759,453.145 C224.844,450.863 223.93,448.582 223.015,446.3 C219.971,453.017 215.911,459.135 212.102,465.427 C209.561,469.625 206.407,474.783 205.792,479.337 C206.666,477.916 207.541,476.495 208.416,475.074 C208.379,475.111 208.342,475.148 208.305,475.186 C211.08,474.961 213.856,474.736 216.631,474.511 C216.568,474.45 216.506,474.388 216.444,474.327 C212.267,470.195 205.586,475.799 205.583,480.568 C205.582,480.665 205.582,480.762 205.582,480.86 C205.581,483.243 208.039,485.135 210.354,484.709 C217.486,483.394 217.371,477.423 220.392,472.291 C225.049,464.382 230.276,456.77 233.991,448.348 C235.046,445.958 234.739,441.685 231.247,441.503 C222.809,441.062 214.771,442.339 206.557,444.178 C197.928,446.109 188.431,447.944 180.358,451.57 C177.512,452.846 175.12,459.075 179.688,459.746 L179.688,459.746 Z" id="Shape"></path>
                    <path d="M350.918,457.548 C350.436,457.533 349.951,457.518 349.467,457.503 C350.16,458.062 350.853,458.62 351.545,459.179 C351.503,458.934 351.461,458.688 351.419,458.443 C350.02,460.253 348.621,462.062 347.223,463.872 C354.446,461.799 361.202,457.831 368.371,455.434 C375.809,452.948 383.517,451.49 391.328,450.906 C390.221,448.128 389.114,445.35 388.008,442.572 C383.881,448.865 380.76,455.717 377.526,462.492 C375.897,465.907 374.247,469.366 372.221,472.567 C370.589,475.145 368.468,476.833 366.537,479.131 C363.066,483.265 366.185,488.044 371.223,486.838 C378.504,485.094 383.082,475.502 386.219,469.511 C390,462.291 392.771,454.403 397.16,447.52 C399.283,444.19 399.16,438.712 393.84,439.186 C384.916,439.98 376.252,441.957 367.802,444.919 C359.848,447.707 350.854,451.323 344.592,457.108 C340.078,461.278 345.145,466.977 349.42,462.61 C349.794,462.422 350.168,462.233 350.542,462.045 C352.819,461.499 353.956,457.643 350.918,457.548 L350.918,457.548 Z" id="Shape"></path>
                    <path d="M307.77,166.56 C289.432,159.223 268.086,166.114 253.415,178.289 C236.906,191.989 229.724,214.22 232.645,235.165 C237.704,271.422 275.081,289.431 308.194,291.38 C334.63,292.936 359.089,283.927 380.332,268.358 C391.589,260.108 398.082,249.515 402.572,236.571 C404.187,231.915 406.118,226.585 405.501,221.569 C404.694,215.011 397.874,215.694 393.799,218.783 C392.094,220.075 390.398,224.409 393.277,225.543 C393.979,225.819 392.951,224.924 392.827,224.114 C392.944,224.878 393.033,225.662 393.218,226.431 C393.165,226.213 392.944,228.514 392.813,229.206 C392.002,233.492 390.359,237.614 388.681,241.62 C384.711,251.099 378.518,257.381 369.903,263.059 C354.255,273.374 337.061,279.456 318.317,279.601 C286.46,279.849 248.575,263.236 243.944,228.189 C241.746,211.554 247.083,194.847 259.77,183.666 C272.436,172.505 289.914,169.356 306.301,169.666 C307.497,169.689 309.422,167.221 307.77,166.56 L307.77,166.56 Z" id="Shape"></path>
                    <path d="M105.991,56.63 C103.655,68.163 114.557,80.34 124.973,83.446 C137.578,87.204 151.243,82.715 161.762,75.556 C164.112,73.957 166.166,71.416 165.227,68.4 C165.134,68.101 165.041,67.803 164.948,67.504 C163.841,63.95 159.032,65.408 157.067,67.085 C155.506,68.416 154.735,69.852 154.272,71.821 C153.373,75.648 157.453,76.335 160.069,75.059 C159.665,75.175 159.262,75.29 158.858,75.406 C157.468,74.285 156.079,73.164 154.688,72.043 C154.725,72.367 154.76,72.69 154.797,73.014 C156.033,71.026 157.272,69.037 158.508,67.049 C150.131,72.504 140.766,76.157 130.691,73.934 C126.163,72.935 121.95,70.545 118.598,67.376 C114.847,63.83 113.007,58.493 109.2,55.19 C108.051,54.196 106.262,55.288 105.991,56.63 L105.991,56.63 Z" id="Shape"></path>
                    <path d="M55.399,61.748 C55.124,71 71.085,71.616 77.368,70.882 C81.32,70.421 87.042,69.63 88.671,65.265 C89.904,61.961 88.165,58.579 84.218,60.023 C82.079,60.806 80.732,62.506 80.557,64.761 C80.56,64.615 80.562,64.468 80.565,64.322 C81.548,63.045 82.533,61.769 83.515,60.492 C85.847,59.059 87.013,59.449 84.29,59.941 C83.204,60.137 82.302,60.48 81.261,60.807 C78.964,61.528 76.574,61.933 74.187,62.194 C68.528,62.814 63.826,59.72 58.564,58.971 C56.943,58.741 55.446,60.166 55.399,61.748 L55.399,61.748 Z" id="Shape"></path>
                    <path d="M281.095,97.044 C289.053,139.618 305.364,183.228 342.971,208.037 C358.148,218.049 375.358,221.791 393.234,223.078 C402.397,223.737 411.424,223.465 420.405,221.442 C424.264,220.573 428.012,219.016 431.46,217.094 C433.264,216.089 434.939,214.794 436.53,213.488 C437.567,212.638 438.554,211.524 439.425,210.536 C440.844,208.926 442.629,208.021 439.111,209.793 C436.824,209.979 434.537,210.164 432.25,210.349 C432.275,210.364 432.301,210.379 432.325,210.393 C432.119,207.367 431.912,204.341 431.705,201.315 C431.684,201.342 431.662,201.369 431.642,201.396 C433.901,200.083 436.16,198.771 438.419,197.459 C438.36,197.462 438.301,197.465 438.241,197.468 C439.317,197.67 440.393,197.872 441.47,198.074 C442.14,198.683 442.087,198.518 441.311,197.577 C437.501,192.143 429.312,199.862 429.414,204.413 C429.482,207.532 430.408,210.199 433.787,211.003 C436.988,211.766 440.404,209.527 442.28,207.145 C442.301,207.118 442.322,207.091 442.343,207.064 C444.581,204.223 444.929,200.17 441.723,197.985 C441.7,197.969 441.675,197.953 441.652,197.936 C439.611,196.545 436.732,197.548 434.791,198.492 C431.658,200.015 430.307,203.268 427.932,205.22 C425.919,206.875 422.401,207.776 419.703,208.459 C412.473,210.289 404.435,209.947 397.066,209.359 C389.933,208.789 382.843,207.628 375.834,206.206 C367.003,204.414 358.562,199.709 351.104,194.805 C334.867,184.127 322.506,168.031 312.991,151.326 C307.697,142.032 304.177,131.841 300.499,121.841 C296.857,111.939 292.938,101.972 284.961,94.822 C283.592,93.601 280.75,95.194 281.095,97.044 L281.095,97.044 Z" id="Shape"></path>
                    <path d="M3.009,90.593 C11.58,86.912 18.509,81.515 28.1,80.516 C32.993,80.007 37.846,80.981 42.537,82.295 C47.845,83.782 52.515,86.525 58.153,86.501 C59.864,86.494 62.255,84.131 61.37,82.328 C56.481,72.355 39.918,70.384 30.096,71.203 C19.409,72.095 6.962,78.254 1.077,87.414 C0.11,88.92 0.697,91.586 3.009,90.593 L3.009,90.593 Z" id="Shape"></path>
                    <path d="M1.618,91.652 C5.014,94.376 9.177,96.312 12.927,98.546 C17.113,101.038 21.257,103.668 25.346,106.316 C33.113,111.344 40.085,117.311 46.997,123.422 C51.208,127.145 56,130.291 59.624,134.634 C61.374,136.73 58.573,134.804 60.72,132.099 C60.074,132.912 59.549,134.1 59.605,135.152 C59.753,137.937 62.851,138.275 64.943,137.636 C70.754,135.864 71.053,129.524 67.562,125.626 C63.785,121.411 58.679,118.442 54.462,114.701 C47.413,108.448 39.835,102.74 31.89,97.678 C24.402,92.908 13.937,85.513 4.624,86.767 C3.045,86.979 -0.532,89.928 1.618,91.652 L1.618,91.652 Z" id="Shape"></path>
                    <path d="M39.573,117.143 C36.854,118.478 35.46,122.419 34.015,124.929 C31.507,129.287 28.662,133.468 25.996,137.731 C23.219,142.174 20.458,146.627 17.844,151.169 C15.528,155.194 14.047,159.922 11.562,163.789 C9.577,166.878 10.012,170.802 14.366,170.825 C30.175,170.908 45.388,164.157 58.552,155.877 C62.924,153.127 67.181,150.206 71.374,147.191 C74.835,144.703 79.743,141.617 81.336,137.458 C82.8,133.637 80.401,131.168 76.53,131.982 C76.226,132.021 75.936,132.108 75.661,132.244 C73.573,133.062 71.236,136.102 73.726,137.869 C73.698,137.852 73.67,137.835 73.643,137.818 C74.272,136.01 74.902,134.201 75.532,132.393 C72.743,133.905 70.466,136.765 67.956,138.71 C64.358,141.498 60.54,144.006 56.722,146.479 C44.486,154.404 31.242,160.326 16.486,160.929 C17.849,162.028 19.213,163.127 20.575,164.226 C20.611,160.591 24.076,155.769 25.736,152.64 C28.21,147.974 30.932,143.44 33.614,138.892 C36.07,134.727 38.391,130.504 40.45,126.128 C41.428,124.05 44.072,119.274 42.023,117.273 C41.311,116.579 40.389,116.742 39.573,117.143 L39.573,117.143 Z" id="Shape"></path>
                    <path d="M11.342,169.185 C12.574,174.024 19.449,176.311 23.738,177.442 C30.186,179.144 37.192,178.819 43.735,177.952 C56.133,176.308 70.155,172.178 80.829,165.489 C85.146,162.783 85.811,154.416 78.976,156.559 C75.835,157.544 72.465,160.322 72.062,163.809 C71.944,164.833 72.279,165.973 73.481,166.132 C75.023,166.336 76.604,166.445 78.157,166.348 C78.43,163.085 78.703,159.822 78.976,156.558 C68.497,161.071 58.546,165.727 47.237,167.971 C41.258,169.157 35.064,169.676 28.98,169.245 C23.774,168.877 18.635,166.216 13.536,166.338 C12.161,166.372 11.01,167.883 11.342,169.185 L11.342,169.185 Z" id="Shape"></path>
                    <path d="M401.588,199.885 C403.215,194.174 405.234,188.751 406.533,182.911 C407.795,177.236 409.049,171.562 410.123,165.848 C412.359,153.948 413.243,141.962 414.997,130.031 C412.391,132.318 409.784,134.605 407.178,136.892 C429.172,137.291 452.417,143.227 473.824,135.658 C471.529,134.821 469.234,133.983 466.939,133.146 C473.152,153.062 471.078,175.437 466.832,195.524 C462.986,213.721 456.221,235.225 442.291,248.091 C439.857,250.34 437.615,254.655 440.243,257.649 C442.781,260.542 447.563,259.124 449.986,256.859 C466.799,241.147 475.202,217.695 480.136,195.764 C485.204,173.243 487.052,147.993 480.031,125.681 C479.15,122.882 475.548,122.315 473.146,123.169 C453.263,130.246 430.443,124.111 409.894,124.214 C406.117,124.233 401.365,128.699 401.941,132.666 C403.554,143.798 401.568,155.562 400.095,166.658 C399.345,172.307 398.607,177.958 397.874,183.61 C397.117,189.462 397.292,194.93 397.206,200.768 C397.165,203.631 401.12,201.532 401.588,199.885 L401.588,199.885 Z" id="Shape"></path>
                </g>
            </g>
        </g>
    </g>
</svg>