<?xml version="1.0" encoding="UTF-8"?>
<svg width="554px" height="490px" viewBox="0 0 554 490" version="1.1" xmlns="http://www.w3.org/2000/svg" xmlns:xlink="http://www.w3.org/1999/xlink">
    <!-- Generator: Sketch 41 (35326) - http://www.bohemiancoding.com/sketch -->
    <title>books</title>
    <desc>Created with Sketch.</desc>
    <defs></defs>
    <g id="Page-1" stroke="none" stroke-width="1" fill="none" fill-rule="evenodd">
        <g id="Layer_1" transform="translate(-1005.000000, -4792.000000)" fill="#000000">
            <g id="Layer_1_3_">
                <g id="books" transform="translate(1004.000000, 4792.000000)">
                    <path d="M144.148,76.803 C152.355,73.961 160.252,69.986 168.241,66.58 C176.939,62.872 185.703,59.318 194.485,55.814 C211.569,48.996 228.765,42.465 245.85,35.648 C254.38,32.244 262.955,28.951 271.573,25.774 C277.534,23.576 284.318,21.175 288.565,19.421 C292.452,17.816 296.367,16.278 300.276,14.73 C300.452,14.661 303.55,14.605 304.297,14.366 C307.151,13.454 309.608,11.156 310.912,8.461 C314.41,1.236 305.456,-1.688 300.72,2.876 C300.032,3.537 299.39,4.279 298.751,4.997 C296.142,7.935 296.656,12.741 300.717,13.799 C301.308,13.952 302.372,14.343 299.901,13.464 C301.948,9.14 303.994,4.815 306.041,0.49 C308.125,0.397 308.062,0.644 307.273,0.479 C304.646,-0.074 301.772,1.209 299.843,2.917 C299.501,3.221 299.161,3.525 298.821,3.829 C296.375,6.012 301.351,2.971 298.914,4.011 C294.762,5.782 290.611,7.557 286.484,9.387 C272.412,15.627 257.742,20.74 243.482,26.594 C226.446,33.588 209.289,40.277 192.225,47.202 C175.7,53.909 157.928,60.088 142.588,69.273 C138.884,71.49 138.48,78.766 144.148,76.803 L144.148,76.803 Z" id="Shape"></path>
                    <path d="M140.613,78.381 C145.929,81.205 153.023,81.938 158.814,83.68 C165.775,85.775 172.584,88.349 179.345,91.009 C192.955,96.364 206.206,102.575 219.842,107.865 C234.375,113.504 248.743,119.427 263.091,125.528 C270.143,128.527 277.218,131.473 284.336,134.313 C287.864,135.72 291.42,137.058 294.981,138.379 C298.901,139.832 303.545,140.894 306.952,143.326 C314.139,148.46 325.618,132.454 315.268,129.661 C312.188,128.829 309.203,129.899 306.489,131.374 C304.157,132.642 300.621,137.467 303.495,139.972 C304.3,140.672 304.974,141.451 305.639,142.283 C308.245,138.048 310.852,133.813 313.458,129.578 C309.889,129.485 305.659,127.474 302.288,126.376 C298.498,125.141 294.733,123.83 290.972,122.512 C283.648,119.943 276.375,117.225 269.11,114.494 C254.457,108.986 239.817,103.518 225.068,98.286 C211.133,93.342 197.459,87.701 183.599,82.56 C177.23,80.198 170.795,78.012 164.286,76.07 C157.927,74.172 150.206,71.52 143.518,72.246 C141.193,72.5 137.358,76.653 140.613,78.381 L140.613,78.381 Z" id="Shape"></path>
                    <path d="M299.021,7.422 C307.814,11.137 316.879,13.983 325.95,16.947 C341.424,22.003 356.858,27.168 372.376,32.087 C388.529,37.207 404.731,42.17 420.932,47.139 C427.384,49.118 433.838,51.088 440.299,53.039 C442.698,53.764 445.1,54.484 447.502,55.199 C448.495,55.494 449.489,55.787 450.483,56.08 C451.702,56.437 452.806,56.838 452.28,56.606 C457.035,58.703 464.09,59.265 466.468,52.898 C463.62,54.558 460.773,56.217 457.925,57.877 C460.986,58.19 463.779,56.878 465.677,54.407 C467.48,52.061 468.234,47.946 465.12,46.261 C461.987,44.565 458.066,46.729 456.132,49.247 C456.129,49.25 456.126,49.254 456.124,49.257 C458.151,48.079 460.179,46.903 462.206,45.725 C462.185,45.73 462.163,45.732 462.141,45.729 C463.482,46.207 464.823,46.684 466.163,47.162 C465.751,46.661 465.143,46.331 464.628,45.932 C466.989,47.761 463.361,45.003 462.437,44.854 C460.98,44.617 459.513,44.535 458.084,44.144 C453.389,42.863 448.708,41.525 444.028,40.188 C429.342,35.993 414.68,31.713 400.02,27.432 C370.552,18.828 340.987,10.518 311.315,2.642 C308.575,1.913 305.703,1.515 302.911,1.03 C300.052,0.534 295.298,5.849 299.021,7.422 L299.021,7.422 Z" id="Shape"></path>
                    <path d="M316.345,135.288 C315.447,135.743 314.545,136.193 313.631,136.616 C312.428,137.174 311.038,137.616 309.953,138.366 C309.732,138.518 309.576,138.959 309.986,138.957 C311.114,138.952 312.467,138.378 313.503,137.937 C314.61,137.465 315.691,136.935 316.771,136.404 C317.572,136.01 317.255,134.826 316.345,135.288 L316.345,135.288 Z" id="Shape"></path>
                    <path d="M313.94,135.995 C313.33,136.225 312.847,136.12 312.495,135.679 C311.097,137.95 309.698,140.223 308.3,142.495 C314.935,141.532 321.403,137.055 327.202,133.856 C333.887,130.169 340.517,126.389 347.183,122.67 C360.847,115.045 374.839,108.309 388.901,101.477 C401.797,95.209 413.998,87.576 426.146,79.995 C438.271,72.427 450.421,64.008 463.691,58.573 C462.869,54.608 462.045,50.643 461.223,46.678 C457.867,48.491 454.193,51.353 453.679,55.426 C453.435,57.357 454.105,59.633 456.406,59.89 C459.788,60.266 462.451,59.208 465.471,57.786 C473.519,53.996 470.057,41.635 461.223,46.678 C436.178,60.976 412.375,77.684 386.746,90.908 C372.891,98.057 358.85,104.638 345.245,112.3 C338.572,116.057 331.958,119.91 325.376,123.824 C318.888,127.683 311.183,131.336 306.111,137.004 C301.9,141.709 310.632,144.943 312.723,139.304 C312.968,138.643 313.968,137.675 314.381,137.104 C314.732,136.622 314.6,136.001 313.94,135.995 L313.94,135.995 Z" id="Shape"></path>
                    <path d="M143.13,78.733 C145.637,83.106 150.287,85.417 152.483,90.171 C154.641,94.841 154.685,100.3 153.965,105.296 C152.505,115.425 147.5,126.448 139.926,133.469 C142.477,134.866 145.028,136.264 147.578,137.661 C148.858,135.448 151.523,132.53 149.606,129.905 C149.083,129.189 147.802,128.794 146.957,128.961 C143.199,129.702 140.983,131.415 138.848,134.624 C135.264,140.011 141.217,144.564 145.73,140.082 C155.192,130.686 161.566,117.737 163.378,104.533 C164.269,98.05 163.858,91.276 161.019,85.304 C158.363,79.717 152.766,74.14 146.151,74.812 C144.683,74.961 142.129,76.987 143.13,78.733 L143.13,78.733 Z" id="Shape"></path>
                    <path d="M303.047,140.708 C307.194,145.098 311.308,148.656 313.98,154.233 C316.937,160.409 318.133,167.52 318.117,174.318 C318.103,180.045 316.085,185.813 312.918,190.534 C309.777,195.216 304.826,197.304 301.217,201.399 C297.73,205.356 300.997,209.786 305.687,208.751 C312.001,207.357 317.627,200.011 321.107,194.96 C325.328,188.835 327.901,181.5 328.331,174.072 C329.149,159.922 322.689,139.127 306.675,135.956 C304.567,135.538 301.134,138.684 303.047,140.708 L303.047,140.708 Z" id="Shape"></path>
                    <path d="M459.501,53.366 C460.447,55.825 462.892,57.496 464.854,59.164 C467.339,61.277 469.56,63.849 471.529,66.439 C475.245,71.33 477.772,77.373 478.859,83.401 C481.006,95.323 477.5,107.922 466.261,113.758 C459.39,117.326 462.323,127.894 469.96,123.431 C484.519,114.92 491.659,98.798 489.555,82.235 C488.585,74.598 485.63,67.195 480.988,61.057 C476.773,55.485 468.899,48.639 461.386,50.336 C460.21,50.602 459.035,52.155 459.501,53.366 L459.501,53.366 Z" id="Shape"></path>
                    <path d="M301.154,212.69 C315.106,210.751 327.578,202.101 339.002,194.403 C351.869,185.731 364.267,177.26 378.011,169.999 C409.092,153.575 439.701,136.679 471.684,122.057 C478.82,118.795 475.194,107.659 468.02,112.475 C466.491,113.501 465.32,114.718 464.15,115.933 C462.618,117.525 461.671,119.797 463.73,121.371 C464.38,121.868 465.156,122.119 465.866,122.529 C466.584,119.177 467.302,115.826 468.02,112.475 C437.078,126.158 407.746,143.789 378.165,160.123 C364.965,167.411 352.61,175.014 340.511,184.033 C328.169,193.231 316.005,202.132 301.567,207.784 C299.546,208.573 297.599,213.184 301.154,212.69 L301.154,212.69 Z" id="Shape"></path>
                    <path d="M136.331,136.242 C136.123,135.832 135.914,135.421 135.705,135.011 C133.942,131.546 128.257,135.351 129.514,138.54 C131.609,143.853 139.257,147.194 144.073,149.608 C150.407,152.786 156.96,155.581 163.576,158.111 C177.429,163.409 191.517,168.097 205.019,174.27 C220.37,181.29 236.155,187.311 251.909,193.35 C267.563,199.35 283.748,204.9 298.66,212.613 C303.453,215.092 312.018,207.525 307.634,202.985 C305.262,200.53 302.471,199.924 299.139,200.105 C294.072,200.38 288.873,208.834 295.453,210.88 C296.625,211.244 297.624,211.984 298.66,212.612 C301.303,209.125 303.943,205.638 306.586,202.151 C291.426,196.224 276.475,189.799 261.26,183.993 C245.482,177.972 229.699,171.957 214.268,165.082 C200.623,159.003 186.588,154.069 172.597,148.863 C165.87,146.361 159.143,143.86 152.551,141.016 C146.608,138.453 139.833,133.806 133.278,133.655 C133.647,135.369 134.016,137.084 134.385,138.798 C134.901,138.327 135.417,137.857 135.933,137.386 C136.207,137.136 136.529,136.631 136.331,136.242 L136.331,136.242 Z" id="Shape"></path>
                    <path d="M148.043,131.972 C160.428,139.172 174.365,144.473 187.438,150.315 C200.873,156.32 214.392,162.126 227.955,167.833 C241.523,173.544 255.196,178.983 268.978,184.153 C276.115,186.83 283.286,189.414 290.479,191.934 C293.645,193.041 296.82,194.127 299.998,195.204 C301.642,195.762 309.009,197.758 309.048,198.082 C310.431,196.868 311.815,195.654 313.197,194.44 C312.194,194.216 311.179,194.087 310.153,194.055 C308.225,193.901 305.321,196.704 307.605,198.242 C308.354,198.809 309.157,199.285 310.014,199.671 C311.797,200.599 314.502,198.862 314.721,196.936 C314.784,196.389 314.836,195.853 314.823,195.302 C314.801,194.357 314.108,193.662 313.217,193.471 C299.363,190.503 285.693,184.517 272.425,179.603 C258.597,174.482 244.867,169.083 231.199,163.551 C217.539,158.023 204.002,152.186 190.511,146.258 C177.288,140.448 164.2,133.463 150.619,128.571 C148.819,127.921 145.935,130.747 148.043,131.972 L148.043,131.972 Z" id="Shape"></path>
                    <path d="M155.939,121.141 C168.759,128.466 183.161,133.529 196.813,139.108 C210.749,144.801 224.744,150.352 238.736,155.909 C265.358,166.483 290.75,179.87 317.991,188.887 C320.569,189.741 324.346,184.81 321.349,183.368 C319.418,182.44 317.73,182.606 315.662,182.11 C313.728,181.647 311.312,184.676 313.27,186.042 C314.658,187.009 315.771,188.026 317.338,188.661 C318.458,186.821 319.577,184.981 320.696,183.143 C306.478,179.528 292.988,173.389 279.633,167.416 C266.592,161.584 253.576,155.868 240.207,150.824 C226.058,145.486 211.919,140.124 197.831,134.627 C184.383,129.379 171.099,123.163 157.317,118.871 C156.247,118.538 154.747,120.459 155.939,121.141 L155.939,121.141 Z" id="Shape"></path>
                    <path d="M159.237,108.686 C186.087,118.941 212.779,129.29 239.209,140.613 C266.272,152.208 293.236,164.103 321.059,173.794 C321.934,171.944 322.809,170.096 323.684,168.246 C322.267,168.239 320.824,168.407 319.428,168.075 C317.587,167.636 315.232,170.205 316.523,171.883 C318.053,173.87 320.069,174.016 322.44,174.054 C325.275,174.099 327.803,169.41 324.415,168.281 C296.597,159.002 269.568,147.603 242.595,136.145 C216.039,124.865 189.241,112.787 161.319,105.267 C159.714,104.834 157.32,107.954 159.237,108.686 L159.237,108.686 Z" id="Shape"></path>
                    <path d="M153.907,91.641 C169.597,99.25 186.141,105.292 202.033,112.52 C218.603,120.056 235.257,127.314 251.97,134.523 C265.797,140.487 279.407,147.637 293.675,152.485 C297.75,153.87 301.838,155.215 305.911,156.607 C307.897,157.286 309.817,158.18 311.724,159.055 C312.476,159.401 313.205,159.768 313.979,160.065 C314.245,160.172 314.506,160.287 314.766,160.41 C316.67,161.489 317.489,159.707 317.219,155.063 C314.804,155.449 310.987,160.746 315.124,161.187 C317.924,161.486 323.165,158.413 320.335,155.213 C317.916,152.478 312.831,152.141 309.562,151.154 C295.798,147.004 282.874,141.572 269.69,135.799 C250.633,127.454 231.384,119.6 212.416,111.05 C194.165,102.822 175.303,92.994 155.581,88.893 C154.323,88.631 152.355,90.888 153.907,91.641 L153.907,91.641 Z" id="Shape"></path>
                    <path d="M129.356,138.946 C132.699,138.929 136.337,137.35 139.412,136.185 C142.718,134.934 147.683,134.072 148.803,130.201 C148.376,130.894 147.949,131.589 147.522,132.282 C147.792,132.035 149.273,129.926 148.497,131.15 C149.001,130.354 149.463,129.219 148.709,128.394 C148.52,128.188 148.282,128.032 148.06,127.864 C147.159,127.509 147.242,127.603 148.311,128.149 C147.962,127.645 147.285,127.501 146.734,127.384 C144.781,126.973 142.189,128.579 140.449,129.293 C136.456,130.934 131.925,132.538 128.586,135.366 C127.21,136.532 127.154,138.957 129.356,138.946 L129.356,138.946 Z" id="Shape"></path>
                    <path d="M98.361,170.278 C99.519,173.52 101.934,176.025 104.03,178.698 C106.812,182.247 108.771,186.579 110.374,190.762 C114.035,200.315 115.176,211.138 114.02,221.266 C113.535,225.516 112.777,230.32 110.454,233.985 C108.387,237.245 105.858,240.223 103.357,243.151 C100.496,246.503 92.804,252.32 93.818,257.406 C94.548,261.074 97.79,261.403 100.791,259.951 C98.414,261.101 103.052,258.561 103.576,258.064 C104.813,256.888 105.852,255.492 106.941,254.182 C109.52,251.082 112.141,248.03 114.608,244.838 C121.184,236.332 123.995,228.129 124.881,217.395 C125.767,206.656 123.612,195.457 119.578,185.516 C116.432,177.766 109.886,167.418 100.464,167.548 C99.238,167.565 97.925,169.055 98.361,170.278 L98.361,170.278 Z" id="Shape"></path>
                    <path d="M98.924,164.628 C109.177,177.397 125.648,183.493 140.601,189.137 C157.229,195.411 173.9,200.99 190.117,208.313 C210.432,217.488 230.885,226.364 251.512,234.816 C272.152,243.273 293.316,250.477 313.444,260.102 C315.702,256.39 317.961,252.679 320.219,248.968 C317.219,248.692 314.677,248.636 311.717,249.247 C309.31,249.744 307.354,252.737 308.08,255.09 C309.101,258.399 311.359,260.09 314.756,260.559 C319.614,261.227 328.151,252.148 321.531,249.424 C301.38,241.134 280.786,233.978 260.529,225.942 C239.767,217.707 219.176,209.05 198.706,200.118 C182.293,192.957 165.678,187.251 148.733,181.507 C132.777,176.098 117.007,169.52 102.679,160.601 C100.632,159.327 97.354,162.672 98.924,164.628 L98.924,164.628 Z" id="Shape"></path>
                    <path d="M89.169,263.16 C93.415,268.584 100.083,271.815 106.17,274.718 C114.345,278.616 122.907,281.694 131.424,284.749 C149.45,291.217 167.03,298.169 184.673,305.634 C206.948,315.06 229.323,324.243 251.638,333.574 C272.226,342.182 294.321,349.58 313.306,361.439 C318.647,364.775 327.269,354.631 321.179,351.048 C317.601,348.943 314.679,349.294 310.681,349.278 C308.483,349.269 305.434,352.326 306.559,354.627 C308.214,358.014 310.039,359.623 313.306,361.439 C315.931,357.976 318.554,354.511 321.179,351.048 C301.616,341.007 280.997,333.169 260.69,324.793 C238.274,315.548 215.796,306.459 193.313,297.382 C175.414,290.155 157.755,283.062 139.312,277.336 C123.255,272.351 108.158,266.672 93.402,258.618 C91.04,257.329 87.39,260.887 89.169,263.16 L89.169,263.16 Z" id="Shape"></path>
                    <path d="M314.754,256.214 C331.595,265.122 336.615,284.134 335.528,301.78 C334.45,319.283 327.155,339.934 313.167,351.235 C315.848,353.361 318.528,355.487 321.209,357.613 C322.636,355.93 323.863,354.055 324.073,351.817 C324.296,349.441 323.012,346.737 320.098,347.288 C316.352,347.995 314.319,349.716 311.906,352.586 C310.343,354.444 309.619,357.674 311.361,359.659 C313.692,362.315 317.684,360.809 319.948,358.964 C337.372,344.763 345.659,320.896 347.14,299.109 C347.848,288.7 346.457,277.796 341.696,268.421 C339.436,263.972 336.332,259.625 332.313,256.606 C327.731,253.164 323.306,252.111 317.776,251.25 C315.54,250.9 311.929,254.721 314.754,256.214 L314.754,256.214 Z" id="Shape"></path>
                    <path d="M320.779,259.314 C325.177,254.905 332.342,254.188 337.921,251.971 C346.415,248.594 354.494,243.792 362.51,239.432 C380.024,229.907 397.149,219.648 414.469,209.777 C432.064,199.75 449.403,189.279 466.619,178.618 C474.982,173.44 483.307,168.199 491.615,162.932 C496.033,160.131 500.443,157.319 504.85,154.5 C508.942,151.885 513.097,148.138 517.594,146.271 C516.128,142.501 514.661,138.732 513.196,134.963 C510.695,136.939 508.432,138.842 506.55,141.444 C502.399,147.184 507.42,153.223 513.734,149.631 C516.468,148.074 519.052,146.407 521.267,144.159 C523.706,141.684 526.248,137.363 523.415,134.135 C519.967,130.206 514.328,133.611 511.696,136.57 C510.695,137.696 508.476,138.583 507.205,139.392 C505.016,140.786 502.912,142.308 500.725,143.71 C496.32,146.532 491.909,149.345 487.493,152.15 C478.637,157.778 469.75,163.36 460.831,168.891 C443.075,179.9 425.152,190.642 406.991,200.971 C389.673,210.82 372.565,221.048 355.086,230.616 C347.124,234.973 339.144,239.403 330.774,242.915 C324.145,245.696 317.176,248.643 314.55,255.898 C312.978,260.242 317.684,262.416 320.779,259.314 L320.779,259.314 Z" id="Shape"></path>
                    <path d="M317.66,362.135 C327.514,356.088 336.273,348.373 346.139,342.265 C356.86,335.628 367.92,329.554 379,323.547 C402.634,310.734 424.925,296.056 447.913,282.163 C463.189,272.931 478.907,265.116 494.899,257.29 C502.091,253.77 509.264,250.169 516.172,246.113 C520.803,243.394 527.541,239.726 529.649,234.422 C526.272,236.39 522.895,238.358 519.518,240.326 C520.105,240.406 520.691,240.486 521.277,240.565 C522.968,235.62 524.661,230.673 526.352,225.728 C520.799,225.577 516.698,228.376 513.972,233.061 C512.73,235.196 513.357,237.756 515.321,239.105 C517.744,240.771 520.322,240.7 523.155,240.652 C531.699,240.507 536.896,224.701 526.352,225.728 C525.717,225.791 525.082,225.852 524.449,225.914 C520.476,226.301 516.154,229.649 515.508,233.761 C515.648,232.868 516.458,231.627 517.145,230.984 C516.707,231.395 513.975,233.411 515.306,232.485 C512.602,234.367 509.744,236.036 506.894,237.682 C500.064,241.629 493.041,245.245 486.017,248.828 C469.495,257.261 453.311,266.085 437.515,275.849 C426.101,282.906 414.979,290.428 403.53,297.423 C393.313,303.664 382.749,309.326 372.276,315.119 C361.701,320.97 351.169,326.893 341.139,333.651 C331.368,340.234 320.211,347.503 313.537,357.434 C311.361,360.673 313.97,364.4 317.66,362.135 L317.66,362.135 Z" id="Shape"></path>
                    <path d="M517.27,139.475 C535.576,148.049 541.31,168.929 541.236,187.789 C541.197,197.832 538.628,207.586 533.859,216.397 C531.627,220.523 528.537,224.263 525.243,227.579 C521.246,231.602 515.716,234.725 513.493,240.13 C512.739,241.963 513.018,244.395 515.362,244.793 C521.559,245.844 527.3,240.893 531.624,237.02 C536.28,232.851 540.239,227.914 543.488,222.588 C550.204,211.582 553.4,199.307 554.046,186.491 C554.666,174.178 552.389,161.619 546.849,150.591 C542.049,141.037 532.886,129.686 520.873,131.861 C518.298,132.327 512.937,137.445 517.27,139.475 L517.27,139.475 Z" id="Shape"></path>
                    <path d="M98.48,167.229 C101.594,167.658 103.888,165.438 106.577,164.287 C110.399,162.65 114.323,161.239 118.258,159.904 C126.442,157.128 134.875,154.934 142.873,151.635 C140.72,150.85 138.567,150.065 136.415,149.279 C136.47,149.395 136.523,149.51 136.578,149.627 C137.015,147.589 137.451,145.55 137.889,143.512 C136.296,145.546 133.974,149.218 136.136,151.681 C138.869,154.795 143.829,152.221 146.247,150.141 C148.109,148.539 150.121,145.161 148.867,142.622 C148.81,142.508 148.754,142.393 148.698,142.279 C147.536,139.926 144.731,138.848 142.24,139.923 C133.488,143.697 124.221,146.261 115.314,149.648 C109.825,151.736 93.758,156.968 96.115,165.33 C96.391,166.317 97.503,167.095 98.48,167.229 L98.48,167.229 Z" id="Shape"></path>
                    <path d="M471.953,122.763 C479.489,124.994 486.978,127.313 494.344,130.114 C498.489,131.689 502.577,133.411 506.656,135.149 C510.547,136.807 515.019,138.168 518.368,140.778 C525.135,146.051 534.931,129.727 525.806,128.557 C521.906,128.057 518.179,126.157 514.513,124.779 C509.906,123.048 505.269,121.397 500.605,119.829 C492.374,117.061 483.183,114.161 474.445,115.481 C471.273,115.96 467.27,121.376 471.953,122.763 L471.953,122.763 Z" id="Shape"></path>
                    <path d="M237.855,357.906 C228.273,360.393 222.938,373.994 219.907,382.222 C215.551,394.048 213.224,406.406 212.169,418.941 C211.03,432.454 211.464,446.067 214.653,459.289 C215.962,464.714 218.733,469.584 221.618,474.301 C223.475,477.338 225.258,480.796 227.696,483.438 C227.298,482.416 226.9,481.394 226.502,480.372 C226.501,480.394 226.5,480.415 226.499,480.437 C230.585,477.499 234.672,474.56 238.758,471.622 C237.061,470.834 235.559,470.588 233.691,470.687 C230.541,470.856 226.697,473.871 226.329,477.148 C226.057,479.575 226.052,481.538 227.69,483.497 C231.428,487.972 238.66,483.31 240.472,479.306 C242.335,475.191 240.253,472.533 237.905,469.41 C235.26,465.895 232.938,461.958 230.997,458.015 C225.793,447.445 225.599,434.26 225.733,422.73 C225.867,411.151 227.536,399.751 230.167,388.491 C232.315,379.294 235.324,370.764 241.107,363.256 C243.314,360.386 241.481,356.964 237.855,357.906 L237.855,357.906 Z" id="Shape"></path>
                    <path d="M245.623,478.804 C243.735,479.617 241.847,480.43 239.958,481.243 C240.876,482.526 242.999,482.565 244.322,482.099 C247.283,481.053 250.508,480.494 253.577,479.84 C258.677,478.756 263.446,476.853 268.353,475.09 C281.745,470.279 295.226,465.721 308.609,460.885 C334.6,451.494 360.251,440.987 386.088,431.164 C411.737,421.413 437.055,410.803 462.893,401.549 C475.539,397.02 488.262,392.707 501.041,388.567 C514.128,384.327 527.357,379.813 540.836,376.977 C546.388,375.809 552.502,363.647 543.908,362.642 C538.113,361.963 533.195,363.179 528.957,367.317 C527.003,369.225 524.484,374.239 528.293,375.914 C531.835,377.472 534.994,377.83 538.868,377.374 C539.271,372.566 539.674,367.76 540.076,362.952 C527.64,367.647 514.787,371.332 502.188,375.566 C488.797,380.066 475.491,384.815 462.251,389.743 C436.493,399.327 411.121,409.873 385.467,419.725 C359.603,429.658 333.905,440.068 308.013,449.905 C294.654,454.981 281.179,459.751 267.792,464.753 C262.887,466.586 258.109,468.657 253.04,469.969 C249.396,470.912 245.951,472.011 242.58,473.708 C240.763,474.623 238.897,477.053 239.161,479.202 C239.404,481.183 240.576,482.329 242.656,481.954 C244.079,481.699 245.809,480.469 245.623,478.804 L245.623,478.804 Z" id="Shape"></path>
                    <path d="M546.305,264.639 C543.314,264.876 541.753,264.919 539.079,266.666 C536.144,268.585 533.667,270.78 531.341,273.407 C526.365,279.027 522.615,285.782 520.321,292.923 C515.921,306.617 516.715,322.781 519.255,336.751 C521.03,346.511 525.792,354.827 530.874,363.251 C532.917,366.639 534.007,370.701 538.361,371.763 C544.33,373.217 552.802,364.826 548.102,359.312 C544.999,355.672 539.456,358.745 537.135,361.59 C538.101,360.746 539.068,359.902 540.034,359.059 C542.343,358.872 544.652,358.685 546.961,358.497 C546.94,358.487 546.917,358.477 546.896,358.468 C547.598,359.268 548.3,360.068 549.002,360.868 C548.65,360.223 547.244,357.467 548.352,359.504 C547.456,357.857 546.055,356.793 545.509,356.249 C543.201,353.954 541.568,350.598 539.913,347.811 C535.728,340.762 533.076,334.447 531.771,326.271 C530.052,315.505 529.833,304.21 532.132,293.525 C533.385,287.7 535.79,282.532 539.134,277.62 C540.497,275.617 542.088,273.714 543.609,271.829 C545.055,270.036 545.809,268.306 547.024,266.448 C547.503,265.719 547.45,264.548 546.305,264.639 L546.305,264.639 Z" id="Shape"></path>
                    <path d="M20.991,400.03 C23.357,405.549 30.549,407.874 35.588,410.247 C44,414.209 52.476,417.789 61.02,421.473 C81.144,430.15 100.68,440.189 121.058,448.28 C139.765,455.708 159.058,461.545 177.993,468.343 C187.55,471.775 197.02,475.484 206.222,479.786 C210.705,481.883 215.092,484.176 219.406,486.6 C223.659,488.991 227.092,490.803 231.816,488.119 C235.507,486.021 240.521,475.953 232.86,475.368 C228.545,475.038 224.434,477.309 222.6,481.315 C221.256,484.253 222.049,487.611 225.452,488.426 C225.548,488.449 225.643,488.472 225.739,488.495 C224.866,488.016 223.994,487.538 223.122,487.059 C222.845,486.253 222.568,485.448 222.291,484.642 C226.765,482.071 231.238,479.5 235.712,476.93 C233.718,474.375 229.595,473.032 226.738,471.548 C222.308,469.248 217.756,467.192 213.177,465.209 C204.327,461.375 195.254,458.103 186.142,454.952 C167.557,448.525 148.642,443.085 130.22,436.183 C110.77,428.898 91.95,419.921 72.649,412.237 C63.975,408.784 55.232,405.608 46.615,402.038 C40.373,399.452 33.336,397.789 27.517,394.305 C24.512,392.507 19.618,396.828 20.991,400.03 L20.991,400.03 Z" id="Shape"></path>
                    <path d="M28.652,283.954 C32.681,289.68 40.539,292.924 46.608,296 C54.222,299.859 62.297,302.85 70.28,305.843 C86.328,311.862 102.921,316.712 118.476,323.975 C154.244,340.675 192.004,352.647 227.769,369.366 C230.66,364.616 233.55,359.866 236.441,355.117 C233.826,354.8 231.303,354.446 228.663,354.647 C224.967,354.928 219.173,359.876 221.389,364.085 C223.168,367.465 225.536,369.527 229.451,369.948 C233.134,370.344 236.576,368.638 238.805,365.699 C240.846,363.008 242.125,357.504 238.122,355.699 C202.001,339.423 164.022,327.75 127.846,311.605 C112.658,304.828 96.589,299.925 80.814,294.726 C72.523,291.994 64.389,288.93 56.245,285.801 C48.941,282.994 41.854,278.357 34.207,276.675 C30.575,275.876 26.336,280.664 28.652,283.954 L28.652,283.954 Z" id="Shape"></path>
                    <path d="M33.217,275.601 C22.649,280.717 15.099,287.771 9.33,298.185 C3.495,308.72 1.507,321.039 1.034,332.923 C0.091,356.649 7.12,381.297 17.176,402.604 C20.78,410.242 33.936,401.607 30.645,394.926 C14.191,361.529 -0.025,306.33 35.77,279.859 C38.68,277.707 36.48,274.021 33.217,275.601 L33.217,275.601 Z" id="Shape"></path>
                    <path d="M228.464,365.197 C237.066,366.793 246.258,363.82 254.531,361.692 C259.449,360.427 264.31,358.974 269.162,357.479 C273.763,356.06 278.811,353.638 283.604,353.114 C287.251,352.715 290.687,349.858 291.468,346.213 C292.164,342.962 289.807,339.9 286.336,340.364 C282.963,340.816 280.553,341.877 277.857,343.927 C276.015,345.327 275.139,348.106 276.543,350.058 C277.942,352.003 279.679,352.703 282.001,353.04 C282.317,349.178 282.634,345.316 282.95,341.454 C279.161,343.457 274.435,344.381 270.365,345.7 C265.517,347.27 260.652,348.789 255.78,350.285 C246.866,353.02 237.485,354.624 229.005,358.591 C226.656,359.689 224.817,364.52 228.464,365.197 L228.464,365.197 Z" id="Shape"></path>
                    <path d="M397.586,305.546 C402.654,306.126 407.588,304.169 412.408,302.769 C418.345,301.044 424.221,299.083 430.135,297.282 C442.82,293.419 455.481,289.478 468.2,285.729 C481.031,281.947 493.916,278.349 506.862,274.981 C519.611,271.665 532.844,269.471 545.444,265.71 C548.954,264.663 552.233,260.995 552.03,257.188 C551.83,253.414 547.962,252.038 544.76,253.107 C539.906,254.728 532.446,262.128 540.509,265.472 C542.516,261.232 544.522,256.991 546.529,252.75 C533.59,254.776 520.649,259.108 508.067,262.699 C495.117,266.395 482.254,270.408 469.46,274.606 C456.706,278.792 444.03,283.207 431.444,287.874 C425.524,290.069 419.641,292.368 413.756,294.654 C408.12,296.842 402.001,298.946 397.425,302.989 C396.742,303.593 396.17,305.384 397.586,305.546 L397.586,305.546 Z" id="Shape"></path>
                    <path d="M26.85,283.468 C31.776,284.595 37.422,282.599 42.178,281.361 C47.923,279.865 53.615,278.154 59.26,276.324 C71.081,272.491 82.962,269.167 94.858,265.689 C102.45,263.469 103.928,250.443 94.177,253.128 C92.71,253.532 91.51,254.073 90.266,254.952 C87.711,256.759 84.772,260.409 87.282,263.522 C88.456,264.979 89.699,265.401 91.426,265.965 C92.343,261.686 93.26,257.406 94.177,253.127 C82.736,255.864 71.447,260.792 60.381,264.777 C54.706,266.821 49.04,268.892 43.327,270.826 C38.055,272.608 32.098,273.747 27.394,276.81 C25.274,278.194 22.997,282.585 26.85,283.468 L26.85,283.468 Z" id="Shape"></path>
                    <path d="M511.416,245.345 C514.479,249.25 521.662,250.837 526.055,252.765 C528.887,254.007 531.654,255.418 534.362,256.91 C536.881,258.298 538.656,260.572 541.106,261.852 C545.734,264.269 554.914,257.736 551.84,252.434 C548.829,247.24 540.79,244.63 535.382,242.664 C529.175,240.409 520.872,237.182 514.268,239.398 C512.072,240.135 509.649,243.09 511.416,245.345 L511.416,245.345 Z" id="Shape"></path>
                    <path d="M434.603,343.167 C433.457,356.723 440.326,370.701 446.29,382.441 C447.653,385.126 450.571,384.168 452.523,382.772 C461.849,376.103 469.107,366.64 476.225,357.772 C474.2,358.445 472.173,359.118 470.148,359.791 C474.852,362.557 479.614,365.223 484.334,367.961 C487.853,370.002 491.964,373.809 495.989,374.569 C499.017,375.142 502.31,371.784 501.413,368.79 C500.31,365.11 494.33,362.811 491.29,361.043 C486.172,358.065 480.972,355.235 475.85,352.266 C473.75,351.049 471.076,352.646 469.773,354.285 C463.174,362.587 456.53,371.192 447.979,377.596 C450.057,377.706 452.135,377.817 454.212,377.927 C447.893,366.34 444.083,353.711 438.159,342.024 C437.339,340.405 434.733,341.643 434.603,343.167 L434.603,343.167 Z" id="Shape"></path>
                    <path d="M493.431,326.949 C488.095,339.503 494.288,355.22 497.218,367.724 C497.818,366.003 498.417,364.282 499.017,362.561 C499.166,362.539 499.316,362.517 499.464,362.496 C500.775,362.752 502.085,363.009 503.396,363.266 C503.223,363.123 502.676,362.305 502.437,361.948 C501.652,360.776 499.918,360.97 498.784,361.232 C495.907,361.895 494.58,364.976 494.918,367.67 C495.574,372.899 501.501,370.134 503.859,368.078 C505.4,366.734 506.134,364.905 505.658,362.915 C504.242,356.996 502.445,351.182 500.947,345.283 C499.369,339.071 498.929,332.27 496.54,326.316 C495.945,324.834 493.867,325.921 493.431,326.949 L493.431,326.949 Z" id="Shape"></path>
                    <path d="M220.533,415.191 C244.649,411.823 268.368,402.31 291.072,393.882 C316.29,384.52 341.692,375.776 367.276,367.46 C393.111,359.064 419.351,351.761 445.034,342.938 C469.886,334.4 494.853,323.457 521.156,320.375 C524.742,319.955 527.598,313.577 522.597,313.645 C519.58,313.685 517.123,314.174 514.55,315.785 C512.879,316.831 511.496,320.992 514.818,320.538 C516.887,320.255 519.062,320.374 521.156,320.376 C521.636,318.133 522.117,315.889 522.597,313.646 C496.993,318.689 472.797,327.563 448.271,336.261 C422.703,345.33 396.46,352.464 370.748,361.138 C345.146,369.773 319.565,378.421 294.288,387.968 C282.073,392.581 269.846,397.183 257.491,401.409 C245.39,405.55 233.09,408.715 220.788,412.152 C219.372,412.547 218.438,415.484 220.533,415.191 L220.533,415.191 Z" id="Shape"></path>
                    <path d="M227.1,390.741 C239.213,388.547 250.949,384.136 262.644,380.366 C275.645,376.176 288.589,371.809 301.536,367.451 C326.915,358.908 352.246,350.221 377.672,341.819 C402.774,333.525 427.957,325.334 453.479,318.423 C477.259,311.984 501.681,306.253 524.831,297.769 C527.629,296.745 529.877,291.406 525.358,291.482 C521.624,291.546 518.861,291.92 515.547,293.666 C513.676,294.651 512.939,298.067 515.792,298.024 C518.517,297.983 521.247,297.92 523.973,297.943 C524.149,295.847 524.325,293.752 524.5,291.656 C513.225,295.806 502.102,299.875 490.559,303.258 C478.164,306.89 465.684,310.23 453.218,313.612 C427.694,320.539 402.52,328.779 377.416,337.084 C351.977,345.499 326.646,354.236 301.289,362.892 C288.959,367.1 276.607,371.239 264.259,375.394 C251.816,379.58 238.977,383.089 226.971,388.427 C226.008,388.853 225.595,391.013 227.1,390.741 L227.1,390.741 Z" id="Shape"></path>
                    <path d="M220.919,441.528 C237.949,434.279 254.548,426.15 271.795,419.387 C289.96,412.264 308.489,406.112 327.122,400.34 C345.821,394.548 364.657,389.2 383.477,383.817 C392.638,381.197 401.799,378.574 410.947,375.902 C420.643,373.07 430.415,369.339 440.363,367.594 C443.619,367.023 446.581,360.971 441.736,361.186 C438.944,361.31 437.219,362.022 435.055,363.782 C433.638,364.934 433.436,367.916 435.896,367.689 C437.37,367.552 438.883,367.562 440.363,367.594 C440.537,365.515 440.712,363.436 440.885,361.357 C403.582,373.013 365.817,383.222 328.516,394.929 C309.328,400.95 290.27,407.429 271.544,414.775 C253.992,421.661 236.15,429.037 220.546,439.735 C219.754,440.279 219.567,442.103 220.919,441.528 L220.919,441.528 Z" id="Shape"></path>
                    <path d="M498.737,350.177 C509.43,347.698 519.902,344.36 530.388,341.143 C533.841,340.083 534.072,333.99 530.089,335.613 C519.58,339.894 508.36,342.241 498.121,347.214 C496.451,348.025 496.564,350.681 498.737,350.177 L498.737,350.177 Z" id="Shape"></path>
                    <path d="M220.588,460.458 C230.046,458.79 239.224,455.54 248.357,452.638 C258.772,449.327 269.149,445.886 279.485,442.339 C300.14,435.251 320.672,427.802 341.082,420.034 C360.853,412.509 380.395,404.379 400.498,397.753 C410.395,394.491 420.195,390.969 430.121,387.782 C433.178,386.802 436.295,385.971 439.168,384.516 C440.258,383.965 441.314,383.344 442.382,382.75 C442.901,382.46 443.423,382.178 443.948,381.9 C444.182,381.782 444.417,381.663 444.651,381.545 C446.026,381.132 445.36,380.297 442.653,379.041 C440.424,382.586 444.574,383.964 446.88,381.324 C450.535,377.141 447.156,374.664 442.803,376.709 C440.568,377.76 438.557,379.332 436.258,380.238 C430.876,382.361 425.193,383.867 419.722,385.753 C397.454,393.428 375.359,401.445 353.446,410.109 C331.315,418.86 308.987,427.107 286.539,435.006 C275.587,438.86 264.609,442.644 253.605,446.349 C242.536,450.076 231.126,453.286 220.455,458.068 C219.463,458.514 219.032,460.733 220.588,460.458 L220.588,460.458 Z" id="Shape"></path>
                    <path d="M454.69,377.855 C467.52,377.197 479.024,370.109 491.543,368.146 C496.01,367.446 495.952,360.779 491.252,362.975 C479.695,368.376 466.762,370.556 454.916,375.156 C453.765,375.602 452.722,377.957 454.69,377.855 L454.69,377.855 Z" id="Shape"></path>
                    <path d="M500.237,363.797 C508.36,363.099 515.984,359.464 524.031,358.727 C527.153,358.441 532.361,358.186 534.802,355.988 C536.122,354.799 537.246,351.349 534.488,351.015 C532.684,350.797 531.233,351.619 529.828,352.643 C528.699,353.463 528.181,355.481 529.544,356.316 C529.781,356.462 531.682,357.22 530.979,356.783 C531.357,355.022 531.734,353.261 532.112,351.5 C532.733,351.186 529.214,352.263 528.362,352.474 C526.8,352.861 525.132,352.981 523.594,353.42 C515.777,355.656 507.934,358.157 500.444,361.334 C499.455,361.753 498.412,363.955 500.237,363.797 L500.237,363.797 Z" id="Shape"></path>
                    <path d="M113.196,251.522 C112.568,251.528 111.694,251.385 111.145,251.725 C111.011,251.809 110.82,252.054 110.977,252.208 C111.232,252.456 111.533,252.415 111.871,252.418 C112.248,252.422 112.625,252.426 113.002,252.43 C113.511,252.436 113.854,251.515 113.196,251.522 L113.196,251.522 Z" id="Shape"></path>
                    <path d="M112.845,251.383 C112.538,251.026 112.23,250.673 111.743,250.587 C111.071,250.47 110.362,250.86 109.971,251.393 C106.397,256.256 126.91,262.37 129.867,263.382 C139.373,266.638 148.582,271.237 157.888,275.068 C169.113,279.687 180.237,284.543 191.491,289.089 C214.464,298.369 237.382,307.784 260.376,317.011 C271.755,321.577 283.175,326.036 294.616,330.441 C305.047,334.457 314.841,339.236 324.982,343.836 C326.173,341.318 327.364,338.801 328.555,336.284 C326.184,336.464 323.976,336.843 321.645,337.254 C320.01,337.541 318.391,339.22 319.414,340.879 C320.94,343.354 323.059,343.884 325.867,344.144 C329.136,344.445 334.813,339.016 330.435,336.637 C321.622,331.85 311.685,328.137 302.198,324.914 C290.891,321.072 279.764,316.648 268.625,312.349 C246.071,303.642 223.662,294.577 201.223,285.579 C179.862,277.014 158.413,268.49 137.272,259.393 C132.702,257.425 127.823,256.068 123.155,254.325 C120.709,253.412 118.296,252.43 115.825,251.586 C114.914,251.275 113.901,250.751 112.957,250.576 C110.995,250.212 111.872,252.866 112.415,252.618 C112.822,252.432 113.182,251.777 112.845,251.383 L112.845,251.383 Z" id="Shape"></path>
                    <path d="M118.441,233.069 C135.605,241.968 153.68,249.068 171.553,256.399 C190.208,264.05 208.942,271.502 227.638,279.051 C245.669,286.332 263.659,293.72 281.502,301.45 C290.613,305.397 299.667,309.477 308.678,313.648 C316.752,317.385 325.293,320.905 332.878,325.569 C334.142,323.493 335.405,321.417 336.669,319.34 C334.029,319.21 331.395,318.865 328.787,318.436 C327.141,318.165 323.816,320.892 325.687,322.498 C328.114,324.58 330.4,325.581 333.612,325.825 C336.339,326.031 340.998,321.684 337.403,319.596 C330.244,315.439 322.111,312.317 314.565,308.873 C305.518,304.745 296.404,300.765 287.259,296.857 C268.78,288.961 250.163,281.397 231.497,273.954 C213.32,266.705 195.098,259.568 176.91,252.344 C158.195,244.911 139.689,236.882 120.762,230.003 C119.13,229.411 116.517,232.072 118.441,233.069 L118.441,233.069 Z" id="Shape"></path>
                    <path d="M123.123,201.872 C123.143,202.472 123.11,203.11 123.207,203.703 C123.228,203.837 123.414,203.759 123.429,203.658 C123.522,203.034 123.494,202.376 123.515,201.745 C123.522,201.503 123.115,201.66 123.123,201.872 L123.123,201.872 Z" id="Shape"></path>
                    <path d="M123.22,201.551 C122.736,201.897 121.506,203.515 120.827,202.977 C119.299,201.764 116.41,205.181 118.375,206.213 C154.228,225.041 192.569,239.356 230.015,254.646 C248.624,262.245 267.2,269.927 285.631,277.947 C294.795,281.934 303.907,286.035 312.96,290.27 C321.873,294.441 330.606,298.946 340.086,301.729 C340.843,299.515 341.601,297.302 342.357,295.089 C340.915,295.156 339.708,295.066 338.3,294.732 C335.713,294.118 332.364,298.24 335.064,300.049 C336.75,301.18 338.071,301.583 340.085,301.729 C343.416,301.968 347.785,296.277 343.196,295.127 C333.517,292.703 324.603,287.902 315.56,283.811 C306.435,279.684 297.26,275.665 288.057,271.717 C269.557,263.781 250.897,256.224 232.222,248.71 C194.976,233.725 157.993,218.14 120.826,202.977 C120.755,203.901 120.683,204.825 120.612,205.748 C121.815,204.739 122.288,202.902 123.493,202.009 C123.793,201.788 123.549,201.317 123.22,201.551 L123.22,201.551 Z" id="Shape"></path>
                    <path d="M40.195,290.839 C40.024,288.396 36.648,289.745 35.376,290.316 C32.036,291.812 30.091,295.857 28.781,299.012 C25.135,307.797 24.436,318.022 23.903,327.407 C23.114,341.303 24.473,355.176 27.435,368.756 C28.857,375.275 30.855,381.656 33.238,387.884 C35.413,393.567 38.069,401.557 42.624,405.739 C45.098,408.01 49.102,404.579 48.298,401.689 C46.907,396.689 43.345,391.881 41.225,387.083 C38.771,381.525 36.858,375.74 35.226,369.895 C31.953,358.168 30.575,346 30.206,333.859 C29.92,324.46 30.572,314.979 32.053,305.693 C32.682,301.747 33.557,297.728 35.783,294.35 C36.487,293.283 40.298,292.311 40.195,290.839 L40.195,290.839 Z" id="Shape"></path>
                    <path d="M26.394,307.872 C38.082,318.055 53.094,324.788 67.122,331.101 C82.885,338.195 99.038,344.38 114.999,351.002 C132.74,358.362 150.294,366.181 168.04,373.54 C176.76,377.155 185.487,380.755 194.199,384.39 C198.762,386.293 203.32,388.209 207.873,390.136 C211.569,391.701 214.98,394.269 218.714,395.644 C221.495,396.669 225.846,392.417 222.674,390.417 C222.372,390.226 222.07,390.036 221.769,389.846 C219.332,388.31 216.286,392.068 217.626,394.291 C217.814,394.604 218.002,394.915 218.19,395.228 C219.859,393.763 221.528,392.298 223.198,390.833 C220.953,388.461 217.948,387.74 214.946,386.689 C210.271,385.053 205.723,383.083 201.137,381.213 C192.398,377.65 183.642,374.126 174.896,370.581 C156.867,363.273 139.009,355.59 121.058,348.1 C105.152,341.463 89.026,335.373 73.207,328.526 C57.719,321.821 43.262,313.783 28.603,305.502 C27.444,304.848 25.247,306.873 26.394,307.872 L26.394,307.872 Z" id="Shape"></path>
                    <path d="M27.786,332.893 C35.536,338.234 44.676,341.792 53.187,345.747 C62.494,350.069 71.84,354.304 81.22,358.465 C99.886,366.746 118.709,374.637 137.574,382.448 C155.661,389.937 173.9,397.113 191.559,405.572 C197.737,408.531 203.628,412.132 210.056,414.446 C212.812,415.438 216.636,417.96 219.542,418.146 C220.206,416.205 220.869,414.264 221.533,412.324 C220.859,412.384 220.159,412.338 219.484,412.337 C217.969,412.336 215.62,414.841 217.07,416.259 C217.663,416.84 218.236,417.403 218.885,417.918 C221.162,419.725 225.462,415.269 223.459,413.011 C221.824,411.168 216.928,410.391 214.68,409.577 C208.551,407.357 202.957,404.2 197.067,401.365 C178.814,392.58 159.827,385.426 141.047,377.861 C122.033,370.201 102.995,362.623 84.11,354.647 C74.62,350.639 65.163,346.552 55.761,342.346 C46.962,338.409 38.281,333.673 29.074,330.77 C28.036,330.442 26.749,332.177 27.786,332.893 L27.786,332.893 Z" id="Shape"></path>
                    <path d="M27.776,357.059 C34.993,361.922 43.653,365.053 51.614,368.492 C59.798,372.026 68.05,375.402 76.305,378.764 C93.522,385.779 110.629,393.017 127.764,400.223 C144.558,407.286 161.798,413.296 178.166,421.347 C192.909,428.6 207.142,437.526 223.192,441.666 C223.869,439.687 224.546,437.707 225.224,435.727 C223.953,435.759 222.708,435.876 221.445,436.022 C219.216,436.279 216.076,440.939 219.613,441.376 C221.061,441.555 222.486,441.665 223.943,441.702 C226.769,441.772 229.578,436.721 225.975,435.763 C209.739,431.443 195.385,422.875 180.37,415.618 C163.861,407.64 146.371,401.857 129.417,394.932 C112.733,388.117 96.026,381.425 79.217,374.919 C70.863,371.685 62.524,368.411 54.221,365.048 C45.908,361.68 37.686,357.462 29.082,354.911 C28.034,354.6 26.71,356.34 27.776,357.059 L27.776,357.059 Z" id="Shape"></path>
                    <path d="M31.668,380.981 C63.409,392.353 94.66,404.675 125.637,418.025 C156.858,431.478 188.025,445.108 220.386,455.641 C221.072,453.634 221.759,451.628 222.445,449.621 C220.562,449.698 218.841,449.963 217.033,450.47 C215.106,451.01 213.604,454.098 216.078,454.924 C217.811,455.502 219.335,455.6 221.147,455.676 C224.093,455.8 226.748,450.777 223.206,449.656 C190.545,439.329 159.01,425.856 127.417,412.702 C96.596,399.87 65.343,386.559 32.679,379.318 C31.91,379.148 30.719,380.641 31.668,380.981 L31.668,380.981 Z" id="Shape"></path>
                    <path d="M357.607,242.858 C368.841,251.544 373.03,267.29 374.037,280.787 C374.627,288.698 373.913,296.709 372.216,304.45 C371.481,307.804 370.373,310.993 368.899,314.091 C368.24,315.477 366.848,317.325 366.713,318.862 C366.6,320.154 367.085,322.628 367.09,322.649 C367.498,324.242 369.44,324.212 370.66,323.951 C378.158,322.346 381.134,311.618 382.801,304.658 C384.914,295.834 384.832,286.621 383.81,277.654 C382.148,263.072 377.116,243.247 362.362,236.581 C358.921,235.026 354.169,240.2 357.607,242.858 L357.607,242.858 Z" id="Shape"></path>
                    <path d="M366.72,228.574 C374.17,242.091 382.505,254.503 387.204,269.396 C389.509,276.699 390.813,284.382 390.417,292.049 C390.248,295.316 389.25,298.431 387.997,301.415 C386.642,304.645 383.845,307.772 384.42,311.518 C384.687,313.252 385.868,314.221 387.646,314.12 C396.674,313.605 400.689,301.694 401.89,294.314 C403.294,285.684 401.738,276.824 399.07,268.599 C396.234,259.855 391.838,251.627 387.046,243.815 C382.858,236.985 378.204,229.998 372.096,224.737 C369.968,222.903 365.236,225.879 366.72,228.574 L366.72,228.574 Z" id="Shape"></path>
                    <path d="M468.306,173.746 C470.853,179.819 475.009,185.233 477.856,191.208 C481.322,198.481 483.726,206.275 485.021,214.223 C486.218,221.57 486.259,229.265 484.945,236.591 C484.291,240.241 483.119,243.675 481.521,247.012 C479.925,250.347 477.515,253.048 476.427,256.628 C475.133,260.894 480.251,261.87 483.048,260.326 C490.53,256.196 493.986,246.005 495.776,238.158 C497.728,229.599 497.296,220.741 495.81,212.164 C494.305,203.466 491.455,195.066 487.513,187.179 C484.286,180.722 479.664,172.884 472.836,169.771 C470.708,168.799 467.303,171.351 468.306,173.746 L468.306,173.746 Z" id="Shape"></path>
                    <path d="M478.636,165.717 C483.233,171.295 488.041,176.451 491.722,182.751 C495.873,189.855 499.239,197.321 501.423,205.264 C503.452,212.638 504.023,220.522 502.319,228.004 C501.595,231.179 500.148,234.143 498.283,236.796 C496.297,239.62 493.152,242.398 492.827,246.014 C492.681,247.632 493.144,248.791 494.808,249.258 C499.027,250.44 503.747,246.581 506.288,243.601 C509.416,239.932 511.663,235.789 513.153,231.213 C516.073,222.249 515.434,212.88 513.447,203.803 C511.448,194.676 507.368,185.938 502.33,178.109 C497.93,171.272 491.404,163.462 483.726,160.256 C480.915,159.083 476.289,162.869 478.636,165.717 L478.636,165.717 Z" id="Shape"></path>
                    <path d="M195.869,67.1 C194.481,64.507 190.076,66.457 188.376,67.743 C186.396,69.239 185.234,72.052 185.555,74.517 C186.081,78.565 190.215,79.01 193.488,78.319 C197.023,77.573 200.389,75.15 201.489,71.63 C201.981,70.056 201.486,68.096 200.234,67.006 C199.494,66.361 198.731,65.866 197.835,65.48 C196.985,65.113 196.142,64.792 195.195,64.947 C193.682,65.193 192.379,65.721 191.421,66.986 C190.887,67.689 190.564,68.604 190.657,69.494 C190.739,70.262 191.348,71.515 192.192,71.81 C192.852,72.04 193.49,72.307 194.09,72.666 C194.185,72.724 194.278,72.785 194.368,72.85 C194.876,73.197 193.747,72.314 194.173,72.704 C194.329,72.847 194.476,72.999 194.609,73.164 C194.84,73.45 194.225,72.296 194.487,73.019 C194.601,73.335 194.406,72.04 194.399,72.783 C194.478,72.075 194.491,71.882 194.438,72.202 C194.35,72.709 194.815,71.221 194.607,71.704 C194.307,72.4 195.248,70.782 194.783,71.416 C194.218,72.187 195.38,70.83 195.018,71.18 C194.862,71.331 194.691,71.467 194.518,71.6 C195.831,70.588 194.492,71.57 194.048,71.789 C193.669,71.977 195.069,71.383 194.128,71.742 C193.899,71.83 193.665,71.903 193.429,71.972 C193.139,72.056 192.207,72.223 193.462,71.99 C193.232,72.033 193,72.058 192.768,72.08 C192.488,72.103 191.617,72.065 192.793,72.125 C192.585,72.115 192.378,72.082 192.174,72.043 C191.406,71.893 192.498,72.193 192.235,72.079 C192.065,72.005 191.905,71.914 191.752,71.81 C192.545,72.349 192.072,72.076 191.869,71.816 C191.724,71.632 192.186,72.533 191.931,71.832 C191.695,71.186 191.994,72.513 191.934,71.769 C191.923,71.585 191.918,71.402 191.921,71.218 C191.923,71.847 191.936,71.155 191.962,71.019 C192.048,70.684 192.021,70.736 191.88,71.171 C191.968,70.925 192.335,70.465 191.819,71.209 C192.045,70.932 191.973,71.003 191.603,71.424 C192.11,70.925 190.924,71.843 191.549,71.44 C191.866,71.235 192.218,71.091 192.555,70.923 C192.847,70.786 192.848,70.784 192.557,70.918 C192.946,70.752 193.356,70.625 193.728,70.422 C194.623,69.934 196.572,68.415 195.869,67.1 L195.869,67.1 Z" id="Shape"></path>
                    <path d="M306.606,18.938 C302.249,19.663 299.517,22.774 299.915,27.245 C300.019,28.404 300.719,29.169 301.839,29.437 C304.688,30.12 307.356,29.774 309.975,28.48 C312.927,27.021 314.444,24.088 315.441,21.134 C315.873,19.855 315.185,18.538 314.134,17.851 C311.887,16.381 309.031,16.471 306.56,17.217 C303.57,18.119 299.627,21.221 299.906,24.696 C300.037,24.085 300.168,23.473 300.299,22.862 C300.001,23.692 299.656,24.457 299.828,25.357 C300.158,27.083 301.518,27.727 303.184,27.242 C303.77,27.071 304.305,26.823 304.813,26.487 C304.172,26.693 303.533,26.899 302.892,27.105 C304.237,26.966 305.198,26.491 306.268,25.684 C305.611,26.179 307.168,25.32 307.302,25.244 C306.888,25.478 307.347,25.281 307.653,25.25 C308.239,25.191 308.757,25.271 309.551,25.381 C308.791,24.516 308.032,23.65 307.273,22.784 C307.269,22.859 306.936,23.301 307.356,22.642 C307.73,22.297 307.729,22.296 307.354,22.639 C307.771,22.361 307.76,22.352 307.323,22.615 C308.075,22.189 306.479,22.754 306.899,22.691 C306.268,22.786 305.597,22.859 304.959,22.819 C305.547,23.291 306.134,23.762 306.722,24.234 C306.703,24.163 306.581,23.275 306.547,23.67 C306.514,24.05 305.313,25.26 305.986,24.552 C306.663,23.842 307.45,23.342 308.038,22.528 C308.982,21.215 308.86,18.563 306.606,18.938 L306.606,18.938 Z" id="Shape"></path>
                    <path d="M425.265,53.157 C423.644,51.639 420.132,53.111 418.551,54.212 C416.188,55.856 414.523,58.223 414.107,61.116 C413.886,62.645 414.464,64.423 416.255,64.634 C422.771,65.402 428.492,61.564 429.974,55.092 C430.433,53.087 429.368,51.584 427.49,51.026 C425.937,50.564 424.181,50.72 422.696,51.353 C421.84,51.636 421.073,52.077 420.396,52.675 C420.931,52.283 420.947,52.266 420.443,52.622 C419.73,53.117 419.022,53.618 418.332,54.143 C415.982,55.934 415.758,60.909 419.693,60.466 C420.605,60.363 421.488,60.136 422.37,59.895 C420.862,60.308 424.301,59.549 422.738,59.837 C423.687,59.662 422.23,59.647 423.306,59.899 C422.478,58.544 421.65,57.188 420.822,55.833 C420.788,56.097 420.745,56.359 420.694,56.62 C420.648,56.878 420.223,57.93 420.657,56.854 C420.236,57.897 421.294,56.008 420.66,56.886 C421.416,55.839 421.062,56.485 420.695,56.789 C422.069,55.646 420.115,56.937 421.487,56.331 C421.172,56.47 420.839,56.564 420.508,56.66 C419.386,56.986 421.354,56.549 420.125,56.726 C419.715,56.785 419.308,56.857 418.896,56.912 C419.965,57.774 421.036,58.637 422.105,59.5 C422.077,59.257 422.055,59.014 422.038,58.771 C421.957,57.774 421.894,59.327 422.061,58.417 C422.229,57.504 421.756,59.034 422.165,58.222 C421.668,59.208 422.646,57.831 421.899,58.598 C423.031,57.436 424.761,56.837 425.39,55.168 C425.623,54.559 425.826,53.681 425.265,53.157 L425.265,53.157 Z" id="Shape"></path>
                    <path d="M316.478,114.677 C315.794,113.832 314.442,113.626 313.414,113.401 C312.201,113.135 310.68,113.372 309.522,113.734 C306.322,114.734 304.152,117.888 303.837,121.138 C303.719,122.366 303.808,124.015 305.204,124.572 C308.917,126.053 312.722,126.132 316.327,124.301 C319.141,122.872 321.522,119.788 321.97,116.633 C322.416,113.484 321.054,110.328 317.6,109.813 C315.476,109.496 313.41,110.126 311.537,111.087 C311.301,111.208 311.08,111.363 310.861,111.511 C310.393,111.842 309.927,112.176 309.462,112.511 C308.844,113.147 307.265,114.49 308.991,113.002 C308.153,113.724 307.229,114.668 306.804,115.719 C306.616,116.147 306.733,115.994 307.152,115.261 C306.838,115.748 306.54,116.246 306.251,116.749 C305.599,117.881 305.61,119.574 306.494,120.58 C307.746,122.008 309.87,121.637 311.346,120.84 C311.8,120.595 312.376,120.559 311.113,120.91 C311.759,120.73 312.402,120.457 312.96,120.078 C313.752,119.542 311.662,120.575 312.474,120.25 C313.167,119.973 313.685,119.705 314.302,119.38 C314.469,119.292 314.641,119.217 314.812,119.138 C315.579,118.783 313.251,119.746 314.281,119.397 C315.236,119.074 312.986,119.604 313.679,119.499 C314.105,119.435 314.908,119.535 313.072,119.425 C313.184,119.432 313.295,119.453 313.404,119.476 C313.996,119.597 312.108,118.937 312.803,119.277 C313.639,119.685 311.922,118.368 312.523,119.066 C313.213,119.869 312.063,118.103 312.382,118.759 C312.442,118.88 312.484,119.01 312.523,119.139 C312.693,119.695 312.304,117.79 312.395,118.57 C312.526,119.696 312.615,117.558 312.45,118.311 C312.367,118.691 312.094,119.32 312.705,117.609 C312.648,117.767 312.576,117.92 312.5,118.07 C312.186,118.698 313.307,116.803 312.913,117.397 C312.812,117.548 312.696,117.689 312.579,117.827 C313.855,116.33 313.403,116.974 313.015,117.31 C312.236,117.984 314.181,116.534 313.519,116.95 C313.382,117.036 313.239,117.109 313.096,117.181 C314.66,116.382 313.918,116.833 313.473,116.984 C313.117,117.105 312.152,117.276 313.726,116.975 C313.459,117.026 313.188,117.052 312.917,117.076 C312.7,117.094 312.481,117.097 312.264,117.099 C311.576,117.107 313.315,117.197 312.159,117.079 C311.434,117.006 310.711,116.853 310.001,116.696 C310.795,117.602 311.589,118.507 312.384,119.413 C312.373,119.228 312.408,118.128 312.311,119.176 C312.332,119.001 312.365,118.827 312.408,118.655 C312.168,119.288 312.135,119.41 312.309,119.022 C312.275,119.092 311.008,120.557 311.56,120.071 C310.863,120.535 310.715,120.64 311.118,120.387 C311.497,120.188 311.375,120.236 310.752,120.53 C312.093,119.974 313.746,119.937 314.946,119.09 C316.255,118.162 317.773,116.277 316.478,114.677 L316.478,114.677 Z" id="Shape"></path>
                    <path d="M206.676,62.993 C211.353,63.565 214.496,64.854 213.942,70.255 C213.738,72.234 213.085,74.264 212.023,75.947 C210.944,77.658 209.871,77.64 208.315,78.656 C206.659,79.737 205.417,82.445 207.935,83.294 C213.748,85.251 217.805,73.771 218.26,69.905 C219.054,63.171 214.335,57.741 207.32,59.997 C206.275,60.332 204.792,62.761 206.676,62.993 L206.676,62.993 Z" id="Shape"></path>
                    <path d="M289.759,28.654 C290.705,36.798 301.245,37.6 307.525,36.373 C314.487,35.012 321.948,30.888 322.835,23.246 C322.939,22.35 322.795,21.616 321.983,21.106 C321.838,21.015 321.695,20.924 321.55,20.834 C320.312,20.056 318.561,21.31 318.058,22.422 C317.11,24.517 317.992,26.147 316.161,27.959 C314.197,29.903 311.421,30.916 308.823,31.661 C302.299,33.534 297.056,31.946 292.772,26.923 C291.755,25.731 289.609,27.363 289.759,28.654 L289.759,28.654 Z" id="Shape"></path>
                    <path d="M295.608,116.417 C299.402,109.268 304.94,107.749 312.742,108.407 C318.172,108.866 324.094,110.097 329.242,111.932 C333.151,113.325 335.967,106.673 332.541,106.511 C325.027,106.157 317.948,103.489 310.277,103.765 C302.683,104.037 293.721,107.914 292.377,116.265 C292.006,118.565 294.901,117.749 295.608,116.417 L295.608,116.417 Z" id="Shape"></path>
                    <path d="M413.018,47.135 C406.119,50.262 395.869,69.869 409.491,70.141 C411.444,70.18 414.666,66.024 411.914,65.022 C410.381,64.464 408.779,64.366 408.073,62.709 C407.433,61.208 408.142,59.133 408.652,57.706 C409.88,54.28 412.14,51.473 414.334,48.635 C415.192,47.524 414.143,46.625 413.018,47.135 L413.018,47.135 Z" id="Shape"></path>
                    <path d="M207.906,62.203 C209.443,62.224 210.786,60.979 212.052,60.243 C214.977,58.542 218.156,57.253 221.286,55.991 C227.625,53.436 234.123,51.299 240.485,48.802 C247.205,46.165 253.589,42.711 260.157,39.728 C264.925,37.562 269.754,35.521 274.626,33.601 C279.114,31.832 284.041,29.458 288.837,28.747 C288.342,27.507 287.847,26.265 287.353,25.023 C286.792,25.436 286.281,25.903 285.819,26.422 C284.747,27.519 284.904,29.454 286.813,28.978 C287.625,28.776 288.679,28.785 289.533,28.607 C293.224,27.836 292.564,21.829 288.568,23.958 C280.297,28.364 270.76,31.037 262.163,34.849 C254.006,38.464 246.147,42.699 237.867,46.028 C231.326,48.658 224.658,50.981 218.221,53.863 C215.361,55.144 207.431,57.74 207.295,61.711 C207.282,62.058 207.618,62.199 207.906,62.203 L207.906,62.203 Z" id="Shape"></path>
                    <path d="M332.813,110.978 C342.927,108.324 351.975,101.631 360.55,95.907 C370.031,89.577 379.535,83.628 389.779,78.583 C395.027,75.999 400.758,74.858 406.023,72.354 C409.739,70.588 410.433,64.878 405.294,66.872 C403.981,67.381 402.227,69.548 403.996,70.647 C406.259,72.053 402.211,69.27 405.366,67.571 C404.602,67.982 403.799,68.303 402.994,68.624 C400.849,69.478 398.648,70.199 396.459,70.925 C390.072,73.042 384.139,76.51 378.297,79.806 C370.628,84.133 363.487,89.245 356.218,94.196 C348.502,99.451 340.44,103.749 332.224,108.134 C330.697,108.949 330.694,111.535 332.813,110.978 L332.813,110.978 Z" id="Shape"></path>
                    <path d="M208.883,82.553 C216.449,84.825 224.17,86.029 231.683,88.675 C238.926,91.227 245.954,94.332 253.179,96.925 C266.104,101.564 280.985,105.459 290.312,116.251 C292.449,118.724 297.447,114.134 295.15,112.005 C284.727,102.344 270.376,97.504 257.062,93.345 C249.225,90.897 241.628,87.741 233.858,85.102 C226.352,82.552 217.682,79.221 209.634,80.358 C208.668,80.495 207.482,82.132 208.883,82.553 L208.883,82.553 Z" id="Shape"></path>
                    <path d="M319.183,23.959 C325.986,27.428 333.499,29.739 340.578,32.606 C348.299,35.733 355.971,38.977 363.713,42.05 C378.68,47.989 394.09,53.357 410.11,55.527 C410.737,53.695 411.364,51.863 411.99,50.03 C410.271,50.089 408.925,50.292 407.404,51.064 C406.088,51.733 405.242,53.694 406.626,54.695 C407.871,55.595 409.324,55.508 410.807,55.559 C413.377,55.648 416.094,50.5 412.687,50.062 C396.239,47.944 380.573,43.207 365.075,37.412 C357.788,34.688 350.563,31.803 343.303,29.012 C335.986,26.2 328.412,22.908 320.662,21.532 C319.56,21.336 317.804,23.257 319.183,23.959 L319.183,23.959 Z" id="Shape"></path>
                </g>
            </g>
        </g>
    </g>
</svg>