<?xml version="1.0" encoding="UTF-8"?>
<svg width="496px" height="413px" viewBox="0 0 496 413" version="1.1" xmlns="http://www.w3.org/2000/svg" xmlns:xlink="http://www.w3.org/1999/xlink">
    <!-- Generator: Sketch 41 (35326) - http://www.bohemiancoding.com/sketch -->
    <title>box</title>
    <desc>Created with Sketch.</desc>
    <defs></defs>
    <g id="Page-1" stroke="none" stroke-width="1" fill="none" fill-rule="evenodd">
        <g id="Layer_1" transform="translate(-534.000000, -2169.000000)" fill="#010101">
            <g id="Layer_1_3_">
                <g id="box" transform="translate(534.000000, 2169.000000)">
                    <path d="M248.524,133.755 C256.734,133.743 265.266,130.512 273.126,128.401 C287.159,124.632 301.083,120.433 315.015,116.301 C347.485,106.67 379.864,96.738 412.324,87.075 C421.674,84.291 430.984,81.322 440.383,78.71 C443.664,77.797 446.946,76.88 450.223,75.955 C451.369,75.631 452.522,75.354 453.679,75.078 C454.198,74.954 454.713,74.829 455.232,74.703 C456.349,74.432 452.868,75.151 454.704,74.798 C458.487,74.069 461.757,72.105 463.458,68.486 C464.947,65.32 464.339,59.955 459.899,59.61 C458.149,59.474 456.48,59.38 454.729,59.522 C452.129,59.734 450.35,61.287 448.075,62.263 C444.948,63.607 440.072,69.134 444.772,71.87 C448.41,73.987 450.235,75.131 454.704,74.797 C454.442,70.141 454.182,65.484 453.919,60.827 C452.028,61.725 455.956,59.987 454.184,60.717 C453.537,60.983 452.889,61.247 452.242,61.511 C450.436,62.247 448.599,62.889 446.763,63.543 C441.835,65.296 436.903,67.01 431.931,68.634 C417.931,73.205 403.914,77.731 389.892,82.234 C357.659,92.586 325.171,102.247 292.69,111.79 C278.277,116.023 263.426,119.512 249.296,124.6 C245.15,126.093 241.985,133.765 248.524,133.755 L248.524,133.755 Z" id="Shape"></path>
                    <path d="M53.244,55.246 C61.956,60.594 71.691,64.362 81.077,68.362 C90.605,72.423 100.17,76.402 109.802,80.207 C129.623,88.038 149.268,96.118 168.893,104.413 C184.397,110.966 200.11,117.025 215.732,123.292 C220.434,125.178 225.129,127.082 229.783,129.085 C231.939,130.014 234.049,130.929 236.03,132.194 C236.766,132.665 237.426,133.205 238.249,133.502 C240.583,134.345 239.394,135.031 237.98,132.052 C237.913,130.849 237.846,129.647 237.779,128.444 C237.772,128.483 237.765,128.522 237.758,128.561 C238.876,126.746 239.993,124.928 241.112,123.112 C242.71,122.361 244.307,121.609 245.904,120.858 C242.294,121.467 239.133,123.49 237.532,126.893 C236.068,130.005 236.722,134.935 240.935,135.383 C247.93,136.128 256.856,128.547 251.63,121.558 C248.797,117.769 242.227,116.646 238.033,115.013 C223.464,109.338 208.661,104.268 194.063,98.664 C171.788,90.113 149.853,80.802 127.518,72.391 C115.896,68.015 104.246,63.715 92.622,59.341 C81.286,55.075 70.075,50.07 58.426,46.732 C54.352,45.563 48.842,52.542 53.244,55.246 L53.244,55.246 Z" id="Shape"></path>
                    <path d="M54.069,48.746 C45.887,50.391 38.679,58.187 32.479,63.409 C25.145,69.584 17.887,76.458 9.892,81.77 C6.537,84 3.012,88.163 4.684,92.525 C6.764,97.954 13.393,95.675 16.726,93.166 C15.117,94.378 18.753,91.698 19.096,91.416 C23.758,87.556 23.745,79.615 16.547,79.578 C13.194,79.559 10.502,81.122 7.946,83.162 C11.417,85.914 14.886,88.666 18.357,91.418 C24.835,84.337 32.742,78.251 39.821,71.775 C45.674,66.421 54.655,59.84 56.82,51.88 C57.271,50.225 55.864,48.384 54.069,48.746 L54.069,48.746 Z" id="Shape"></path>
                    <path d="M244.397,127.704 C239.504,130.469 235.948,136.226 232.427,140.512 C228.302,145.531 223.994,150.418 219.639,155.237 C215.332,160.002 210.94,164.697 206.478,169.316 C204.5,171.363 202.534,173.42 200.578,175.487 C199.246,176.894 197.781,178.184 196.94,179.97 C196.958,179.934 195.853,185.185 196.237,182.739 C195.781,185.639 196.94,188.465 200.092,189.05 C204.329,189.835 207.84,186.73 209.826,183.375 C211.015,181.368 211.348,179.275 211.301,176.969 C211.155,170.138 202.355,173.201 199.822,176.411 C199.108,177.315 198.571,178.293 197.898,179.224 C202.127,179.429 206.355,179.635 210.585,179.84 C210.51,179.522 210.476,179.199 210.481,178.873 C209.886,180.602 209.293,182.331 208.698,184.061 C216.052,175.091 223.803,166.469 231.22,157.554 C234.959,153.06 238.496,148.45 241.815,143.637 C244.53,139.699 248.737,134.165 248.423,129.174 C248.289,127.037 245.898,126.854 244.397,127.704 L244.397,127.704 Z" id="Shape"></path>
                    <path d="M0.774,96.413 C14.228,107.377 31.16,114.354 46.698,121.883 C63.049,129.804 79.647,137.159 96.334,144.341 C113.053,151.538 129.865,158.516 146.688,165.465 C163.299,172.326 180.488,178.466 196.627,186.382 C198.685,182.031 200.742,177.684 202.801,173.334 C200.309,173.287 197.957,173.576 195.483,173.816 C191.516,174.206 186.616,179.331 189.675,183.254 C192.27,186.583 195.891,187.017 199.874,186.991 C206.493,186.949 212.547,176.094 204.519,173.412 C187.862,167.849 171.61,160.569 155.27,154.134 C138.26,147.434 121.269,140.684 104.351,133.754 C87.449,126.831 70.629,119.69 53.886,112.393 C37.636,105.311 21.71,96.342 4.705,91.258 C2.537,90.609 -1.499,94.559 0.774,96.413 L0.774,96.413 Z" id="Shape"></path>
                    <path d="M247.484,129.393 C244.409,140.842 254.073,154.017 260.126,162.908 C267.686,174.012 276.603,184.408 281.452,197.087 C284.347,204.651 296.374,197.183 295.556,190.849 C295.009,186.615 292.262,182.568 287.763,182.019 C284.679,181.642 281.847,183.55 280.488,186.259 C279.524,188.179 279.063,189.752 279.435,191.892 C279.664,193.218 280.915,194.458 281.121,195.478 C285.821,193.398 290.522,191.319 295.225,189.24 C289.735,177.501 281.277,167.539 273.1,157.612 C268.978,152.609 265.053,147.471 261.436,142.091 C258.266,137.373 256.631,131.202 252.781,127.023 C250.963,125.05 248.002,127.467 247.484,129.393 L247.484,129.393 Z" id="Shape"></path>
                    <path d="M462.358,64.633 C456.704,72.06 463.844,85.5 467.469,92.393 C472.774,102.477 481.086,111.446 485.177,122.103 C488.408,119.796 491.641,117.489 494.871,115.182 C492.519,112.8 491.422,113.155 488.455,112.788 C486.748,112.577 485.379,113.816 484.889,115.359 C484.91,115.386 484.935,115.413 484.957,115.439 C484.065,116.678 483.088,118.81 483.904,120.347 C484.467,121.404 484.965,122.28 485.8,123.141 C490.083,127.547 498.132,120.105 494.869,115.181 C489.092,106.46 483.276,97.804 477.312,89.199 C474.311,84.869 471.678,80.313 469.458,75.537 C467.853,72.082 467.472,66.248 464.199,64.019 C463.606,63.614 462.717,64.162 462.358,64.633 L462.358,64.633 Z" id="Shape"></path>
                    <path d="M286.562,199.781 C294.397,199.182 302.356,195.366 309.637,192.609 C317.611,189.593 325.531,186.447 333.418,183.216 C349.94,176.449 366.371,169.461 382.903,162.716 C399.42,155.978 416.055,149.542 432.948,143.804 C441.03,141.058 449.184,138.528 457.393,136.188 C466.007,133.731 475.13,130.918 484.069,130.071 C489.111,129.593 495.754,119.691 488.09,118.32 C483.379,117.478 477.846,118.719 473.861,121.304 C471.171,123.05 468.268,128.655 473.169,129.761 C476.436,130.498 480.765,130.618 484.07,130.072 C484.391,126.238 484.714,122.403 485.034,118.569 C476.96,121.157 468.521,122.753 460.355,125.073 C451.549,127.578 442.818,130.307 434.147,133.242 C417.238,138.964 400.612,145.509 384.088,152.254 C367.541,159.01 351.109,166.048 334.597,172.891 C326.689,176.168 318.771,179.424 310.826,182.614 C302.731,185.864 293.531,188.397 286.187,193.165 C283.795,194.716 281.934,200.135 286.562,199.781 L286.562,199.781 Z" id="Shape"></path>
                    <path d="M53.646,50.387 C71.098,49.026 88.464,43.961 105.674,40.756 C123.343,37.466 141.029,34.31 158.747,31.295 C176.467,28.278 194.218,25.457 211.937,22.448 C220.778,20.946 229.608,19.379 238.425,17.741 C246.159,16.303 254.362,13.652 262.21,13.279 C269.119,12.951 273.535,0.23 264.832,1.045 C261.457,1.36 258.898,1.814 255.868,3.325 C252.966,4.773 251.053,9.192 254.142,11.377 C256.233,12.854 258.149,12.96 260.67,13.209 C264.253,13.563 267.685,11.492 269.221,8.226 C270.38,5.763 269.95,1.29 266.369,1.118 C258.822,0.75 250.546,3.913 243.166,5.472 C234.211,7.362 225.231,9.134 216.244,10.863 C197.857,14.4 179.427,17.679 160.977,20.879 C143.424,23.922 125.849,26.93 108.387,30.469 C90.324,34.129 71.234,37.001 54.168,44.113 C51.618,45.173 49.008,50.75 53.646,50.387 L53.646,50.387 Z" id="Shape"></path>
                    <path d="M267.825,5.158 C281.525,11.221 295.888,16.034 309.814,21.597 C324.987,27.66 340.787,31.357 356.452,35.864 C388.757,45.158 420.458,56.401 452.063,67.803 C454.45,63.882 456.836,59.96 459.222,56.039 C455.517,55.837 452.071,54.993 448.344,55.46 C445.065,55.871 440.291,60.356 443.235,63.762 C445.936,66.888 449.392,68.002 453.451,68.285 C459.736,68.724 467.546,58.86 459.222,56.039 C427.478,45.274 395.647,34.711 363.303,25.87 C347.246,21.48 331.217,17.718 315.449,12.335 C300.692,7.297 285.658,0.715 269.804,0.971 C268.201,0.998 265.599,4.172 267.825,5.158 L267.825,5.158 Z" id="Shape"></path>
                    <path d="M38.576,120.386 C35.017,136.189 38.799,153.23 40.606,169.086 C42.589,186.482 42.061,203.896 41.675,221.362 C40.892,256.786 39.407,292.197 39.034,327.63 C43.235,326.283 47.436,324.936 51.638,323.589 C51.297,319.244 49.673,316.83 45.424,315.775 C42.593,315.071 39.253,317.883 38.769,320.575 C38.305,323.157 38.837,325.116 39.035,327.632 C39.682,335.886 51.698,329.954 51.639,323.591 C51.318,288.997 52.269,254.423 52.546,219.833 C52.68,203.083 53.062,186.365 50.87,169.726 C49.797,161.573 48.433,153.459 47.317,145.31 C46.129,136.633 45.697,127.872 44.154,119.261 C43.539,115.82 39.125,117.95 38.576,120.386 L38.576,120.386 Z" id="Shape"></path>
                    <path d="M246.708,133.858 C242.503,142.474 241.464,152.461 240.648,161.908 C239.775,172.018 239.919,182.248 240.216,192.384 C240.82,212.88 242.447,233.283 242.18,253.801 C241.55,302.008 236.004,350.046 235.807,398.256 C240.16,396.86 244.512,395.466 248.865,394.069 C248.38,389.665 246.56,387.502 242.547,385.924 C238.672,384.403 234.68,387.805 234.494,391.713 C234.377,394.207 235.537,395.94 235.807,398.254 C236.81,406.867 248.873,400.599 248.865,394.067 C248.802,347.485 252.632,301.021 252.512,254.449 C252.46,233.923 250.515,213.428 249.544,192.934 C249.054,182.589 248.761,172.222 249.075,161.868 C249.36,152.518 250.679,142.895 250.154,133.577 C250.036,131.452 247.275,132.696 246.708,133.858 L246.708,133.858 Z" id="Shape"></path>
                    <path d="M464.806,129.287 C460.789,145.725 460.433,163.098 459.617,179.947 C458.784,197.12 458.315,214.314 457.733,231.498 C456.549,266.419 455.647,301.344 453.851,336.241 C456.981,333.495 460.112,330.749 463.242,328.001 C461.503,327.784 460.22,326.557 458.649,325.79 C455.557,324.282 450.766,327.118 450.444,330.56 C449.96,335.734 451.778,339.706 457.433,340.326 C462.275,340.854 466.651,336.895 466.824,332.086 C468.048,298.022 468.626,263.93 469.011,229.847 C469.201,212.801 469.468,195.753 469.593,178.707 C469.714,162.168 470.794,144.999 467.902,128.664 C467.559,126.737 465.131,127.957 464.806,129.287 L464.806,129.287 Z" id="Shape"></path>
                    <path d="M236.746,410.92 C245.446,409.617 253.725,404.919 261.833,401.68 C270.892,398.061 279.884,394.32 289.021,390.892 C307.044,384.13 325.294,378.018 343.414,371.517 C380.247,358.3 417.06,343.157 456.002,337.395 C456.342,333.351 456.681,329.307 457.02,325.263 C453.357,326.276 449.999,326.959 446.801,329.142 C444.367,330.801 440.683,337.238 446.078,337.955 C450.141,338.496 453.711,338.144 457.657,337.06 C463.34,335.499 467.002,323.71 458.674,324.928 C419.088,330.712 381.811,345.987 344.511,359.764 C325.825,366.663 307.024,373.231 288.455,380.447 C279.407,383.965 270.44,387.699 261.565,391.631 C252.805,395.511 242.748,399.644 235.768,406.373 C234.401,407.69 233.708,411.375 236.746,410.92 L236.746,410.92 Z" id="Shape"></path>
                    <path d="M38.318,326.725 C46.125,337.985 61.756,343.289 73.953,348.049 C89.248,354.017 104.592,359.596 119.619,366.231 C157.973,383.165 195.343,402.7 236.425,412.342 C238.366,408.222 240.31,404.101 242.252,399.981 C236.685,398.723 230.959,397.002 225.212,397.361 C221.913,397.567 216.905,402.577 219.994,405.838 C224.18,410.253 230.742,411.061 236.424,412.344 C243.034,413.837 250.443,401.906 242.251,399.983 C202.131,390.566 165.217,371.914 127.561,355.752 C112.826,349.427 97.79,344.231 82.712,338.804 C69.301,333.977 55.601,328.855 43.55,321.116 C40.605,319.223 36.394,323.948 38.318,326.725 L38.318,326.725 Z" id="Shape"></path>
                    <path d="M265.258,2.331 C263.212,11.921 263.753,22.293 263.046,32.058 C262.297,42.414 261.317,52.754 260.508,63.106 C258.876,83.937 258.029,104.861 260.723,125.642 C261.515,131.752 269.909,127.27 269.95,122.684 C269.985,118.746 269.846,115.654 266.582,113.198 C264.469,111.607 261.499,114.573 261.019,116.432 C260.227,119.49 260.667,122.506 260.725,125.642 C263.801,124.656 266.876,123.67 269.952,122.684 C266.827,102.071 267.339,81.277 268.55,60.529 C269.15,50.259 269.886,40.003 270.331,29.723 C270.731,20.496 271.984,9.985 269.362,1.009 C268.705,-1.236 265.555,0.938 265.258,2.331 L265.258,2.331 Z" id="Shape"></path>
                </g>
            </g>
        </g>
    </g>
</svg>