<?xml version="1.0" encoding="UTF-8"?>
<svg width="350px" height="532px" viewBox="0 0 350 532" version="1.1" xmlns="http://www.w3.org/2000/svg" xmlns:xlink="http://www.w3.org/1999/xlink">
    <!-- Generator: Sketch 41 (35326) - http://www.bohemiancoding.com/sketch -->
    <title>boy</title>
    <desc>Created with Sketch.</desc>
    <defs></defs>
    <g id="Page-1" stroke="none" stroke-width="1" fill="none" fill-rule="evenodd">
        <g id="Layer_1" transform="translate(-4925.000000, -4786.000000)" fill="#010101">
            <g id="Layer_1_3_">
                <g id="boy" transform="translate(4925.000000, 4786.000000)">
                    <path d="M164.407,4.466 C128.661,-1.484 95.282,24.399 76.189,52.154 C54.655,83.458 44.017,121.584 39.509,158.949 C34.964,196.623 35.35,236.792 55.784,270.079 C78.301,306.758 121.829,319.945 162.816,317.347 C188.428,315.724 214.267,308.473 236.465,295.489 C247.809,288.853 258.512,280.142 266.072,269.313 C273.573,258.569 277.507,245.866 279.084,232.959 C280.661,220.054 280.147,207.032 279.629,194.081 C279.086,180.477 278.136,167.027 276.163,153.544 C272.221,126.612 266.251,98.628 256.172,73.262 C249.454,56.356 238.392,40.462 226.536,26.788 C215.368,13.908 199.846,-1.149 181.469,0.48 C174.394,1.108 165.581,14.263 175.954,16.602 C182.323,18.039 190.764,23.039 196.483,27.765 C204.815,34.649 211.994,42.924 218.527,51.496 C224.547,59.394 229.935,67.778 234.441,76.63 C239.442,86.453 242.528,97.193 245.614,107.734 C253.525,134.756 258.927,162.792 260.285,190.948 C261.378,213.604 265.097,241.609 251.921,261.664 C238.916,281.46 212.313,291.065 190.374,296.292 C169.036,301.375 146.071,301.763 124.765,296.414 C106.529,291.837 90.107,281.761 77.927,267.45 C64.733,251.947 57.895,232.02 55.449,212.034 C51.245,177.669 56.165,141.102 65.788,108.051 C75.208,75.698 90.705,41.771 120.395,23.331 C133.135,15.419 147.668,12.716 162.29,10.65 C164.816,10.293 168.54,5.155 164.407,4.466 L164.407,4.466 Z" id="Shape"></path>
                    <path d="M84.52,186.604 C86.582,186.64 88.626,186.012 90.639,185.589 C92.818,185.13 93.323,184.979 95.73,184.762 C99.639,184.41 103.643,180.696 103.423,176.586 C103.179,171.988 98.213,172.04 95.1,173.548 C93.362,174.391 91.658,175.31 89.93,176.176 C88.83,176.727 87.734,177.284 86.635,177.838 C86.156,178.08 85.677,178.32 85.199,178.565 C86.039,178.134 82.656,180.378 84.111,179.345 C81.377,181.286 79.493,186.517 84.52,186.604 L84.52,186.604 Z" id="Shape"></path>
                    <path d="M95.733,184.395 C96.575,195.981 107.719,202.306 117.557,205.687 C130.033,209.974 144.025,209.914 157.014,208.818 C171.102,207.63 185.15,204.573 198.552,200.106 C209.535,196.446 220.973,191.639 229.902,184.089 C232.511,181.883 233.667,178.771 232.903,175.479 C232.29,172.833 232.34,170.515 231.014,168.021 C226.92,171.613 222.826,175.206 218.734,178.797 C221.631,180.447 224.373,183.578 227.949,183.288 C229.095,183.195 229.468,182.953 230.324,182.752 C231.458,182.377 232.471,181.794 233.368,181.002 C231.391,182.415 231.391,182.415 233.368,181.002 C235.809,178.679 237.47,175.622 236.514,172.176 C235.57,168.776 231.706,166.938 228.805,165.503 C221.919,162.098 213.431,171.269 217.402,177.738 C218.366,179.306 218.312,181.754 218.83,183.5 C219.83,180.63 220.83,177.76 221.831,174.89 C218.808,177.7 217.249,178.725 212.688,181.239 C208.247,183.688 203.596,185.674 198.859,187.47 C186.918,192.001 174.402,195.129 161.759,196.9 C149.576,198.606 137.072,198.974 124.979,196.461 C114.662,194.316 107.459,188.786 99.814,182.052 C98.26,180.684 95.593,182.466 95.733,184.395 L95.733,184.395 Z" id="Shape"></path>
                    <path d="M51.456,129.656 C51.358,125.835 51.246,123.561 49.157,120.177 C47.385,117.304 44.077,116.035 41.028,115.006 C33.863,112.588 25.424,114.592 18.829,117.674 C6.477,123.446 -0.396,136.43 0.843,149.791 C1.94,161.643 8.873,173.003 18.603,179.728 C29.326,187.14 41.658,183.668 49.922,174.525 C52.598,171.564 51.378,165.967 46.734,166.525 C43.006,166.972 37.879,169.274 36.98,173.466 C36.067,177.729 41.529,178.09 44.323,177.776 C43.26,175.11 42.198,172.443 41.135,169.776 C37.052,174.235 30.85,172.645 25.627,169.143 C18.706,164.501 14.342,156.299 12.35,148.419 C10.396,140.692 12.362,132.144 19.143,127.481 C26.307,122.553 45.286,119.028 48.069,131.154 C48.514,133.095 51.492,131.077 51.456,129.656 L51.456,129.656 Z" id="Shape"></path>
                    <path d="M264.977,126.272 C269.222,115.093 284.098,109.845 294.72,114.018 C305.126,118.106 314.324,128.539 314.638,139.956 C314.881,148.837 308.724,157.052 301.735,161.907 C297.413,164.911 292.62,166.842 287.529,168.09 C281.829,169.486 274.482,167.315 269.507,170.473 C267.673,171.638 265.237,174.411 266.432,176.825 C269.499,183.02 281.507,180.132 286.955,179.018 C294.38,177.499 301.499,173.943 307.536,169.423 C318.359,161.319 326.553,148.467 325.31,134.532 C324.005,119.891 309.738,106.012 295.48,103.766 C287.882,102.568 279.687,104.912 273.424,109.212 C267.067,113.577 263.961,118.893 262.115,126.139 C261.632,128.041 264.475,127.596 264.977,126.272 L264.977,126.272 Z" id="Shape"></path>
                    <path d="M283.098,137.475 C284.783,137.371 286.845,135.644 288.175,136.321 C289.088,136.786 289.77,138.767 289.983,140.204 C290.271,142.152 289.98,144.854 289.522,146.108 C289.333,146.628 289.084,147.122 288.834,147.613 C289.415,146.471 287.563,148.989 288.798,147.73 C287.927,148.618 289.118,147.613 289.441,147.475 C288.471,147.889 287.472,148.13 286.548,148.694 C282.532,151.141 280.492,158.513 287.102,158.55 C292.102,158.578 296.667,153.113 298.33,148.848 C299.924,144.759 300.041,140.459 298.961,136.233 C298.083,132.795 295.67,129.855 292.101,129.135 C288.163,128.341 282.258,131.53 281.473,135.62 C281.262,136.711 281.988,137.543 283.098,137.475 L283.098,137.475 Z" id="Shape"></path>
                    <path d="M32.008,135.091 C26.106,133.843 20.349,140.059 18.106,144.815 C14.999,151.4 17.45,158.131 22.948,162.367 C27.731,166.053 36.323,155.391 30.364,152.577 C27.608,151.274 25.484,149.279 25.917,145.988 C26.396,142.339 29.641,141.077 32.267,139.165 C33.624,138.176 34.05,135.523 32.008,135.091 L32.008,135.091 Z" id="Shape"></path>
                    <path d="M129.253,111.577 C126.422,117.473 125.584,124.868 125.074,131.323 C124.511,138.466 124.841,145.814 128.279,152.263 C131.657,158.597 140.333,154.573 142.66,149.334 C146.298,141.146 148.127,132.253 147.954,123.288 C147.873,119.122 146.946,114.752 145.096,111.016 C144.162,109.129 142.932,107.403 141.473,105.895 C140.731,105.228 139.961,104.595 139.162,103.996 C139.011,103.914 133.168,102.423 136.367,103.244 C131.142,101.903 125.164,107.145 124.202,112.015 C122.893,118.64 122.2,127.643 124.426,134.078 C125.643,137.593 129.883,138.182 132.971,137.195 C136.941,135.926 139.76,132.695 140.897,128.77 C142.831,122.098 142.163,113.441 140.681,106.706 C138.111,110.835 135.541,114.963 132.971,119.092 C132.605,119.196 132.239,119.3 131.871,119.404 C130.102,118.774 128.334,118.144 126.565,117.513 C135.281,124.761 131.101,139.517 128.079,148.654 C132.791,146.542 137.504,144.428 142.216,142.316 C135.425,132.625 141.645,120.089 138.23,109.75 C136.726,105.194 130.524,108.93 129.253,111.577 L129.253,111.577 Z" id="Shape"></path>
                    <path d="M170.456,109.129 C164.164,113.862 162.443,123.613 161.478,130.925 C160.35,139.476 160.332,148.559 163.499,156.701 C166.497,164.409 176.214,158.054 178.713,153.602 C186.566,139.617 190.769,118.521 181.06,104.654 C176.839,98.628 167.414,105.378 165.307,109.821 C163.813,112.973 162.365,116.497 163.004,120.022 C164.765,129.715 175.769,124.39 179.038,118.722 C180.111,116.863 180.724,114.825 181.578,112.855 C176.327,114.578 171.077,116.299 165.826,118.021 C169.832,121.399 169.393,128.279 168.845,132.998 C168.125,139.171 166.33,145.13 163.979,150.855 C168.734,149.295 173.488,147.736 178.243,146.176 C175.031,141.315 174.816,133.86 174.654,128.262 C174.48,122.238 176.407,116.125 175.939,110.201 C175.692,107.078 172.17,107.838 170.456,109.129 L170.456,109.129 Z" id="Shape"></path>
                    <path d="M90.294,299.614 C73.822,330.512 80.07,367.977 81.896,401.415 C82.112,405.362 85.288,406.96 88.818,406.998 C116.578,407.3 143.501,415.279 171.295,415.189 C185.306,415.144 199.284,413.71 213.191,412.137 C220.151,411.351 227.104,410.505 234.067,409.739 C241.265,408.947 248.611,408.721 255.687,407.182 C259.069,406.447 262.232,403.212 263.652,400.193 C265.008,397.309 265.334,391.754 261.464,390.383 C258.405,389.301 256.735,389.175 253.538,389.711 C249.103,390.455 244.9,393.969 244.989,398.796 C245.039,401.464 245.784,403.363 247.333,405.545 C251.368,400.256 255.403,394.968 259.438,389.68 C252.334,389.156 245.114,390.354 238.052,391.14 C231.086,391.915 224.129,392.774 217.166,393.584 C203.238,395.204 189.281,396.529 175.252,396.715 C147.481,397.083 120.239,388.261 92.407,390.243 C94.58,391.456 96.754,392.668 98.926,393.881 C89.97,363.904 88.169,330.443 95.351,299.85 C96.191,296.274 91.366,297.603 90.294,299.614 L90.294,299.614 Z" id="Shape"></path>
                    <path d="M242.003,287.999 C241.286,295.349 242.994,303.204 244.066,310.481 C245.826,322.432 247.429,334.404 248.875,346.396 C250.289,358.13 251.538,369.912 252.053,381.724 C252.235,385.905 252.302,390.104 252.02,394.283 C252.17,392.051 251.576,396.096 251.342,396.951 C251.069,397.85 251.207,397.457 251.76,395.769 C251.416,396.714 251.047,397.653 250.787,398.625 C250.53,399.582 250.403,400.749 250.476,401.674 C250.963,407.818 257.542,408.135 261.904,405.844 C271.323,400.896 269.716,388.324 268.947,379.506 C267.931,367.865 265.887,356.3 263.787,344.816 C261.523,332.443 258.936,320.128 256.246,307.841 C254.695,300.758 253.16,290.903 249.957,285.435 C247.95,282.009 242.352,284.424 242.003,287.999 L242.003,287.999 Z" id="Shape"></path>
                    <path d="M95.716,401.154 C88.309,415.3 90.381,433.47 89.467,448.899 C89.314,451.498 92.188,453.35 94.539,452.989 C117.955,449.393 141.212,456.291 164.683,454.527 C168.739,454.222 173.463,450.06 172.999,445.688 C172.512,441.081 172.898,435.952 176.264,432.387 C173.41,432.981 170.558,433.575 167.705,434.167 C175.333,439.041 184.98,444.611 187.458,453.959 C188.326,457.237 192.244,457.138 194.771,456.627 C214.565,452.628 234.778,461.361 254.541,455.694 C257.513,454.842 261.147,451.638 261.442,448.358 C262.633,435.097 266.413,392.998 243.372,397.976 C238.872,398.948 234.412,406.434 239.399,409.527 C240.468,410.19 242.626,412.263 243.715,414.497 C245.379,417.908 246.029,421.732 246.514,425.458 C247.505,433.087 247.45,443.223 246.909,449.536 C249.21,447.091 251.51,444.645 253.81,442.2 C244.858,444.804 235.076,443.451 225.948,442.67 C215.202,441.751 204.677,441.176 194.052,443.365 C196.49,444.254 198.927,445.143 201.365,446.033 C198.266,434.55 186.562,427.605 177.083,421.788 C173.546,419.617 169.374,422.619 167.087,425.109 C160.842,431.908 158.124,440.987 159.207,450.109 C161.979,447.163 164.751,444.216 167.523,441.27 C144.01,443.283 120.65,436.723 97.17,440.712 C98.86,442.075 100.551,443.439 102.242,444.802 C101.176,429.984 99.593,416.221 102.593,401.474 C103.584,396.602 97.179,398.36 95.716,401.154 L95.716,401.154 Z" id="Shape"></path>
                    <path d="M136.394,314.856 C134.163,321.797 134.742,328.269 141.025,332.786 C147.214,337.233 154.639,339.002 162.119,339.639 C169.817,340.294 178.331,340.285 184.468,334.971 C190.233,329.98 194.325,320.742 194.461,313.144 C194.622,304.144 183.898,305.644 181.899,312.842 C181.216,315.302 181.759,318.718 180.912,321.785 C180.48,323.346 179.739,325.005 178.886,326.38 C178.482,326.999 178.04,327.593 177.565,328.159 C177.025,328.841 179.327,327.52 177.144,328.285 C170.588,330.584 161.329,329.465 154.733,327.773 C146.66,325.703 141.073,322.561 139.158,313.965 C138.795,312.34 136.647,314.067 136.394,314.856 L136.394,314.856 Z" id="Shape"></path>
                    <path d="M90.175,298.262 C82.323,298.4 74.654,304.369 68.916,309.16 C61.874,315.04 55.799,322.4 51.445,330.471 C50.595,332.046 50.363,334.772 51.804,336.131 C58.648,342.59 69.533,343.654 75.034,351.548 C76.776,354.047 80.469,352.239 82.234,350.965 C89.261,345.893 84.686,338.965 79.137,335.582 C73.924,332.405 66.885,330.992 62.317,326.904 C62.436,328.791 62.555,330.677 62.675,332.564 C65.793,326.283 69.642,320.636 74.646,315.691 C79.667,310.73 85.852,307.461 91.185,302.962 C92.976,301.454 93.081,298.211 90.175,298.262 L90.175,298.262 Z" id="Shape"></path>
                    <path d="M249.007,281.13 C241.75,287.895 259.043,301.61 263.298,305.194 C272.442,312.896 284.915,320.215 290.871,330.91 C293.421,327.601 295.971,324.294 298.52,320.985 C290.604,321.31 283.05,324.062 275.939,327.371 C268.974,330.612 258.892,335.109 255.2,342.069 C253.363,345.531 255.607,348.653 259.254,348.701 C262.844,348.747 265.408,346.684 268.328,344.868 C271.204,343.078 274.135,341.389 277.12,339.789 C283.052,336.613 289.168,334.662 295.804,333.663 C300.201,333 306.668,327.145 302.692,322.472 C294.465,312.803 283.288,305.891 272.948,298.736 C267.829,295.193 262.73,291.538 258.223,287.225 C256.387,285.467 252.205,278.149 249.007,281.13 L249.007,281.13 Z" id="Shape"></path>
                    <path d="M118.393,447.045 C106.935,464.854 109.625,487.721 114.066,507.284 C116.444,504.75 118.823,502.215 121.201,499.681 C114.874,498.679 107.819,499.113 102.399,502.869 C97.478,506.278 94.837,512.123 98.1,517.613 C104.62,528.584 119.333,528.902 130.102,525.078 C135.344,523.217 140.676,519.678 143.256,514.596 C145.915,509.359 145.026,503.381 143.936,497.85 C140.959,482.728 136.615,465.932 142.803,450.93 C145.95,443.301 135.509,443.34 132.784,449.063 C131.718,451.302 131.351,453.332 132.291,455.68 C133.701,459.2 138.658,457.374 140.249,455.034 C141.181,453.664 142.085,452.438 142.803,450.93 C139.463,450.309 136.124,449.685 132.784,449.063 C128.43,459.751 128.407,471.864 129.267,483.241 C129.976,492.624 134.404,501.469 134.208,510.959 C134.086,516.901 121.46,517.361 117.626,516.946 C113.261,516.473 110.167,514.333 107.485,510.913 C107.434,509.891 107.232,509.588 106.877,510.006 C106.43,511.255 107.197,510.085 108.224,509.72 C110.884,508.773 113.905,508.958 116.642,509.353 C120.147,509.861 125.646,505.71 123.776,501.75 C115.691,484.632 116.227,465.499 122.03,447.732 C122.797,445.385 119.285,445.659 118.393,447.045 L118.393,447.045 Z" id="Shape"></path>
                    <path d="M215.417,453.309 C213.393,462.589 213.876,472.795 214.302,482.235 C214.739,491.903 215.214,501.842 216.483,511.423 C218.569,509.206 220.655,506.989 222.741,504.773 C216.147,504.976 209.567,507.604 206.059,513.452 C202.879,518.756 204.751,524.648 209.554,528.195 C219.628,535.638 235.715,530.652 245.342,524.567 C247.96,522.912 249.535,520.402 248.863,517.296 C245.771,502.99 241.822,489.439 241.949,474.682 C241.986,470.389 242.023,466.096 242.06,461.803 C242.083,459.037 242.599,455.691 241.649,453.03 C239.443,446.849 229.07,453.52 231.051,459.07 C231.179,459.426 231.306,459.783 231.433,460.14 C233.4,465.65 240.423,460.212 241.4,456.928 C241.531,456.489 241.662,456.048 241.793,455.609 C242.633,452.783 240.213,450.491 237.494,450.712 C234.268,450.973 231.792,453.521 230.908,456.491 C230.101,459.207 230.617,462.675 230.64,465.465 C230.679,469.981 230.718,474.496 230.757,479.012 C230.89,494.269 235.232,508.423 238.515,523.196 C239.689,520.772 240.863,518.348 242.036,515.925 C236.663,519.356 229.655,521.807 223.218,521.475 C220.05,521.311 216.639,519.836 215.186,516.84 C214.23,514.869 219.501,514.801 220.603,514.75 C223.451,514.621 227.481,511.28 226.861,508.1 C225.01,498.605 223.239,489.327 222.364,479.655 C221.543,470.575 221.706,460.858 219.484,452.002 C218.917,449.737 215.709,451.971 215.417,453.309 L215.417,453.309 Z" id="Shape"></path>
                    <path d="M57.943,340.737 C55.261,342.782 54.349,347.137 52.995,350.114 C51.032,354.426 48.873,358.654 46.677,362.85 C44.341,367.313 41.851,371.69 39.448,376.117 C37.368,379.949 35.804,384.614 33.318,388.167 C36.114,389.14 38.909,390.112 41.705,391.084 C42.472,389.083 45.008,381.081 39.905,381.881 C35.078,382.639 31.293,386.871 32.047,391.866 C33.082,398.729 41.974,393.527 42.237,388.6 C42.443,384.743 45.854,379.626 47.47,376.175 C49.579,371.668 51.805,367.222 54.012,362.763 C56.069,358.61 58.033,354.431 59.604,350.068 C60.465,347.676 62.81,342.647 60.565,340.524 C59.761,339.765 58.717,340.146 57.943,340.737 L57.943,340.737 Z" id="Shape"></path>
                    <path d="M30.316,399.703 C25.344,397.582 19.399,399.924 14.698,402.038 C11.953,403.273 8.813,405.44 8.201,408.571 C7.561,411.837 9.965,413.531 12.923,413.537 C15.823,413.542 18.431,409.819 16.761,407.302 C17.583,408.541 14.218,411.99 15.619,410.97 C16.058,410.576 16.448,410.142 16.79,409.666 C16.205,410.268 16.148,410.35 16.619,409.913 C17.076,409.556 17.069,409.548 16.597,409.89 C16.888,409.694 17.184,409.504 17.484,409.322 C18.309,408.807 19.179,408.365 20.048,407.929 C21.565,407.17 23.12,406.484 24.681,405.822 C25.369,405.529 26.074,405.282 26.772,405.015 C27.223,404.863 27.644,404.652 28.033,404.382 C30.463,402.869 27.507,404.442 28.871,403.911 C30.085,403.438 32.537,400.65 30.316,399.703 L30.316,399.703 Z" id="Shape"></path>
                    <path d="M34.262,404.964 C29.504,407.298 25.143,410.449 22.287,415.002 C19.885,418.834 18.061,426.494 24.373,427.574 C26.978,428.02 29.503,425.577 29.535,423.045 C29.57,420.192 28.272,418.656 29.981,415.993 C31.732,413.264 34.064,410.787 36.447,408.607 C38.659,406.584 37.164,403.541 34.262,404.964 L34.262,404.964 Z" id="Shape"></path>
                    <path d="M41.471,411.192 C38.993,414.469 37.984,419.239 37.189,423.203 C36.551,426.38 36.108,432.304 39.442,434.103 C42.064,435.517 45.479,432.869 46.006,430.289 C46.565,427.555 45.514,424.349 45.567,421.511 C45.627,418.263 46.403,414.594 46.044,411.415 C45.75,408.821 42.575,409.733 41.471,411.192 L41.471,411.192 Z" id="Shape"></path>
                    <path d="M48.736,407.747 C50.343,409.623 51.465,411.246 52.34,413.575 C53.358,416.282 53.126,419.225 54.418,421.837 C56.301,425.644 61.041,422.204 61.872,419.436 C63.965,412.459 58.692,403.958 51.269,403.628 C49.524,403.55 47.417,406.208 48.736,407.747 L48.736,407.747 Z" id="Shape"></path>
                    <path d="M67.069,354.809 C58.998,367.901 49.504,380.825 47.073,396.401 C46.032,403.075 55.764,400.766 56.566,395.631 C56.809,394.07 56.618,392.76 56.295,391.228 C55.239,386.214 47.795,391.139 47.223,394.152 C47.015,395.245 46.785,396.455 46.974,397.57 C48.027,403.758 57.512,399.45 56.664,394.464 C55.598,388.193 59.4,380.524 61.85,374.96 C64.648,368.603 67.817,362.417 70.416,355.974 C71.394,353.549 68.205,352.965 67.069,354.809 L67.069,354.809 Z" id="Shape"></path>
                    <path d="M275.069,346.837 C280.473,356.65 287.049,365.58 293.1,374.989 C294.908,377.8 296.61,380.673 298.204,383.608 C299.864,386.664 299.28,390.204 299.185,393.537 C299.01,399.674 298.969,405.814 298.886,411.953 C298.795,418.646 309.505,414.705 310.002,409.707 C310.37,406.01 311.981,401.738 307.955,399.639 C306.514,398.887 304.695,399.532 303.564,400.552 C300.227,403.564 299.203,407.589 298.885,411.953 C302.628,410.754 306.372,409.553 310.115,408.353 C310.006,400.362 309.882,392.375 309.65,384.388 C309.617,383.247 308.963,382.044 307.914,381.532 C305.029,380.123 302.896,375.328 301.069,372.81 C298.558,369.35 295.876,366.015 293.178,362.7 C288.17,356.545 282.809,350.906 277.179,345.329 C276.369,344.524 274.508,345.82 275.069,346.837 L275.069,346.837 Z" id="Shape"></path>
                    <path d="M314.706,396.716 C313.404,402.653 315.49,407.988 318.555,413.028 C321.015,417.073 325.227,422.625 330.088,423.753 C333.558,424.56 339.321,419.11 336.107,415.864 C333.14,412.868 329.541,410.819 326.711,407.538 C323.584,403.912 320.992,399.727 319.4,395.205 C318.515,392.696 315.069,395.062 314.706,396.716 L314.706,396.716 Z" id="Shape"></path>
                    <path d="M326.388,396.383 C329.334,400.028 332.258,403.619 335.049,407.393 C337.685,410.955 340.753,417.077 345.745,416.542 C347.519,416.353 349.461,414.883 349.746,413.031 C350.197,410.11 349.401,409.197 347.388,407.148 C345.526,405.252 343.614,403.404 341.739,401.52 C338.344,398.11 334.55,394.541 330.38,392.1 C328.186,390.818 324.692,394.285 326.388,396.383 L326.388,396.383 Z" id="Shape"></path>
                    <path d="M329.301,388.2 C331.322,390.014 333.575,391.5 335.522,393.423 C337.652,395.527 339.529,399.118 342.309,400.29 C345.256,401.534 349.03,398.756 348.881,395.564 C348.706,391.792 345.273,389.325 342.527,387.175 C340.001,385.197 336.271,383.569 333.076,383.25 C331.113,383.056 326.993,386.127 329.301,388.2 L329.301,388.2 Z" id="Shape"></path>
                    <path d="M279.428,334.759 C281.199,338.925 284.322,342.232 287.291,345.578 C291.781,350.638 296.542,355.445 301.178,360.369 C305.605,365.072 309.975,369.855 313.92,374.974 C315.273,376.729 316.547,378.537 317.516,380.532 C317.785,381.087 317.574,382.174 317.899,382.832 C318.121,383.28 319.396,385.508 318.92,384.383 C320.402,387.893 325.223,386.082 326.878,383.738 C330.339,378.837 327.965,375.254 324.841,371.031 C321.088,365.957 316.271,361.616 311.658,357.347 C302.349,348.734 292.728,340.43 283.198,332.068 C281.651,330.71 278.6,332.811 279.428,334.759 L279.428,334.759 Z" id="Shape"></path>
                    <path d="M146.03,7.55 C136.828,7.329 126.694,17.88 122.208,24.949 C116.909,33.301 111.748,46.268 116.63,55.837 C119.703,61.861 128.388,56.948 129.306,51.752 C130.604,44.412 130.449,37.303 133.674,30.4 C135.155,27.229 137.285,24.339 139.541,21.685 C142.175,18.585 145.775,16.588 148.4,13.498 C150.552,10.967 149.355,7.63 146.03,7.55 L146.03,7.55 Z" id="Shape"></path>
                    <path d="M161.715,17.595 C151.584,20.183 144.768,27.553 140.667,37.03 C137.568,44.192 132.643,58.755 139.097,65.313 C142.446,68.716 147.475,65.248 149.268,61.977 C152.637,55.834 152.03,48.01 153.571,41.274 C154.895,35.484 157.997,27.817 163.106,24.301 C166.257,22.132 166.979,16.25 161.715,17.595 L161.715,17.595 Z" id="Shape"></path>
                    <path d="M170.351,31.931 C167.421,39.967 163.307,49.623 164,58.291 C164.715,67.225 177.727,61.797 178.576,55.346 C179.58,47.731 178.138,40.05 179.019,32.336 C179.684,26.528 171.887,27.716 170.351,31.931 L170.351,31.931 Z" id="Shape"></path>
                </g>
            </g>
        </g>
    </g>
</svg>