<?xml version="1.0" encoding="UTF-8"?>
<svg width="370px" height="441px" viewBox="0 0 370 441" version="1.1" xmlns="http://www.w3.org/2000/svg" xmlns:xlink="http://www.w3.org/1999/xlink">
    <!-- Generator: Sketch 41 (35326) - http://www.bohemiancoding.com/sketch -->
    <title>brain</title>
    <desc>Created with Sketch.</desc>
    <defs></defs>
    <g id="Page-1" stroke="none" stroke-width="1" fill="none" fill-rule="evenodd">
        <g id="Layer_1" transform="translate(-3370.000000, -4094.000000)" fill="#000000">
            <g id="Layer_1_3_">
                <g id="brain" transform="translate(3370.000000, 4094.000000)">
                    <path d="M55.122,168.624 C45.28,148.15 48.541,123.925 54.94,102.951 C61.051,82.92 71.844,64.63 87.438,50.573 C119.229,21.916 166.32,10.973 208.14,15.92 C230.205,18.529 252.1,26.607 272.628,34.823 C294.399,43.539 315.032,55.314 330.489,73.25 C339.07,83.206 345.003,94.128 348.428,106.814 C351.884,119.616 352.789,133.554 351.49,146.733 C350.535,156.422 347.494,165.984 344.626,175.251 C343.165,179.97 341.51,184.614 339.679,189.2 C338.752,191.52 337.739,193.804 336.677,196.065 C336.18,197.125 335.643,198.166 335.105,199.205 C334.894,199.613 333.183,202.53 333.686,201.738 C333.004,202.811 332.225,203.816 331.496,204.856 C331.163,205.318 330.812,205.768 330.446,206.205 C331.882,204.429 330.432,206.144 330.028,206.488 C327.346,208.773 325.208,212.874 326.567,216.421 C328.19,220.656 333.969,220.808 337.277,218.574 C345.858,212.782 350.625,203.84 354.634,194.532 C359.002,184.39 362.277,173.719 365.19,163.081 C371.801,138.944 371.256,113.118 362.961,89.399 C354.818,66.112 334.869,47.378 314.291,34.794 C293.895,22.321 270.457,15.266 247.71,8.462 C226.542,2.131 205.387,-0.653 183.272,0.839 C160.646,2.365 138.406,8.23 117.787,17.583 C97.647,26.719 79.402,40.37 65.602,57.695 C51.917,74.876 43.462,96.239 39.36,117.674 C35.879,135.858 35.18,158.741 48.843,173.104 C51.25,175.632 56.588,171.674 55.122,168.624 L55.122,168.624 Z" id="Shape"></path>
                    <path d="M57.264,199.748 C51.965,202.186 47.937,208.695 44.128,212.594 C40.675,216.13 37.014,219.504 33.395,222.868 C29.359,226.621 24.872,231.051 19.45,232.581 C15.052,233.823 12.185,237.952 11.912,242.336 C11.44,249.881 15.06,257.155 20.53,262.21 C24.111,265.519 29.218,264.209 32.612,261.231 C35.199,258.96 38.942,252.423 35.151,249.378 C31.121,246.141 28.559,242.434 27.769,237.252 C25.932,240.205 24.094,243.158 22.256,246.111 C34.083,239.137 42.303,228.898 51.488,218.959 C55.285,214.851 62.939,207.734 62.609,201.699 C62.447,198.713 59.273,198.823 57.264,199.748 L57.264,199.748 Z" id="Shape"></path>
                    <path d="M25.958,261.443 C24.882,264.082 24.823,266.744 24.395,269.534 C24.191,270.863 24.045,272.196 23.821,273.524 C23.659,274.405 23.488,275.284 23.306,276.16 C22.8,277.658 22.841,277.862 23.432,276.772 C19.858,280.049 17.37,288.172 24.233,289.445 C27.115,289.979 30.112,288.688 32.247,286.815 C34.385,284.939 37.324,280.42 35.523,277.415 C34.016,274.901 34.216,270.809 33.442,267.894 C32.735,265.233 31.741,262.081 29.601,260.248 C28.408,259.225 26.516,260.076 25.958,261.443 L25.958,261.443 Z" id="Shape"></path>
                    <path d="M26.071,292.059 C24.717,292.025 23.397,292.805 22.423,293.663 C21.411,294.555 20.874,295.669 20.229,296.809 C18.732,299.455 19.958,303.516 22.611,304.885 C28.216,307.78 36.387,298.597 30.54,294.418 C29.892,293.955 29.062,293.776 28.41,293.3 C28.718,293.544 29.025,293.789 29.333,294.033 C28.893,293.643 27.473,292.544 28.782,293.647 C29.349,294.126 29.192,294.357 28.959,293.843 C28.403,292.624 27.395,292.092 26.071,292.059 L26.071,292.059 Z" id="Shape"></path>
                    <path d="M25.706,307.285 C26.354,306.913 27.001,306.541 27.648,306.169 C26.924,306.407 26.278,306.78 25.706,307.285 C25.032,307.877 24.667,308.513 24.227,309.274 C25.022,308.426 25.817,307.579 26.612,306.732 C25.699,307.219 24.898,307.883 24.271,308.711 C23.938,309.149 23.634,309.757 23.331,310.261 C24.323,309.203 25.315,308.146 26.307,307.089 C25.796,307.408 25.304,307.756 24.831,308.132 C23.884,308.964 23.414,309.784 22.792,310.853 C21.92,312.351 21.945,314.61 23.115,315.943 C24.361,317.363 26.434,317.463 28.119,316.923 C30.174,316.267 31.973,314.687 32.891,312.735 C33.648,311.125 33.806,309.077 32.568,307.645 C31.93,306.907 31.081,306.403 30.096,306.317 C30.752,306.676 31.408,307.036 32.064,307.396 C30.28,305.447 27.645,305.673 25.706,307.285 L25.706,307.285 Z" id="Shape"></path>
                    <path d="M24.885,322.952 C24.358,325.257 25.525,328.447 26.075,330.696 C26.371,331.903 26.41,333.182 26.569,334.413 C26.671,335.189 26.684,335.959 26.704,336.74 C26.708,336.901 26.409,338.829 26.682,337.819 C25.421,342.493 30.086,345.04 34.057,343.77 C36.668,342.935 38.955,340.927 40.123,338.447 C40.957,336.673 41.487,333.471 39.713,331.977 C39.137,331.491 38.281,329.976 37.565,328.711 C36.485,326.809 35.174,325.01 33.746,323.351 C32.019,321.346 25.828,318.823 24.885,322.952 L24.885,322.952 Z" id="Shape"></path>
                    <path d="M18.295,355.657 C18.789,365.702 31.871,371.001 39.824,373.696 C53.208,378.23 67.375,379.753 81.41,380.65 C106.83,382.275 132.892,381.757 158.184,378.517 C162.663,377.943 166.678,374.629 167.712,370.156 C168.15,368.258 168.136,366.736 167.573,364.862 C167.044,363.099 165.202,361.881 163.478,361.575 C161.662,361.254 160.131,361.498 158.371,361.976 C157.482,362.325 156.617,362.72 155.775,363.165 C153.129,364.973 153.379,364.906 156.522,362.963 C153.434,364.036 150.057,367.26 150.429,370.848 C150.572,372.219 150.856,373.51 151.798,374.584 C151.919,374.722 156.422,377.814 154.492,376.34 C153.707,375.445 152.923,374.552 152.138,373.658 C152.206,373.831 152.275,374.004 152.342,374.177 C152.273,372.928 152.203,371.68 152.134,370.431 C152.077,370.764 152.021,371.098 151.964,371.431 C155.14,368.644 158.316,365.857 161.492,363.07 C137.914,367.475 113.13,368.099 89.22,367.69 C75.9,367.462 62.4,366.461 49.351,363.663 C44.222,362.563 39.284,360.994 34.601,358.617 C30.954,356.765 28.688,354.08 25.793,351.347 C22.955,348.665 18.126,352.233 18.295,355.657 L18.295,355.657 Z" id="Shape"></path>
                    <path d="M158.334,369.221 C158.41,369.534 158.977,365.196 158.221,368.725 C158.007,369.724 158.147,370.857 158.617,371.756 C159.329,373.123 159.718,374.738 159.99,376.244 C160.882,381.172 161.649,386.068 162.134,391.058 C162.654,396.398 163.126,401.731 163.388,407.091 C163.575,410.919 162.904,415.541 164.091,419.21 C166.902,427.892 178.437,419.354 179.801,414.147 C180.98,409.646 179.301,403.641 178.632,399.155 C177.662,392.646 176.429,386.18 174.724,379.822 C173.411,374.928 171.711,369.965 168.454,365.997 C166.597,363.732 163.959,363.366 161.389,364.612 C160.939,364.818 160.531,365.095 160.165,365.444 C161.903,364.082 159.346,366.153 159.183,366.35 C158.458,367.223 158.059,368.086 158.334,369.221 L158.334,369.221 Z" id="Shape"></path>
                    <path d="M330.798,219.926 C310.245,247.733 305.053,285.845 304.626,319.626 C304.181,354.949 310.462,389.884 317.159,424.43 C321.083,421.609 325.008,418.787 328.931,415.965 C327.072,414.578 325.269,413.907 323.073,413.217 C321.218,412.633 319.578,414.018 317.819,413.829 C314.447,413.467 309.812,417.56 312.378,420.96 C313.227,422.085 313.463,423.543 314.389,424.598 C315.431,425.786 317.118,426.318 318.304,427.369 C324.08,432.483 332.407,424.776 330.991,418.312 C323.84,385.67 317.97,352.53 317.116,319.05 C316.695,302.515 317.746,285.932 320.647,269.643 C323.635,252.868 329.475,236.824 334.337,220.594 C335.047,218.222 331.712,218.69 330.798,219.926 L330.798,219.926 Z" id="Shape"></path>
                    <path d="M137.697,47.977 C126.262,45.757 114.912,51.863 106.682,59.333 C97.422,67.74 91.713,79.844 91.112,92.309 C93.012,90.289 94.914,88.269 96.814,86.248 C69.284,91.42 58.53,138.068 84.412,152.319 C83.866,150.947 83.32,149.575 82.774,148.203 C81.141,158.702 84.46,167.878 92.292,175.035 C99.828,181.922 109.486,184.859 118.119,189.944 C127.676,195.574 132.298,205.931 140.949,212.541 C146.098,216.474 152.995,218.42 159.12,220.169 C174.553,224.574 191.358,226.515 207.366,225.137 C219.574,224.086 238.046,219.112 239.74,204.397 C240.583,197.075 231.501,200.528 229.941,205.19 C228.722,208.836 226.425,210.528 222.527,212.076 C216.813,214.346 210.551,214.921 204.464,215.175 C190.283,215.767 175.693,213.512 162.105,209.522 C157.116,208.057 152.338,206.121 148.008,203.222 C143.885,200.462 141.009,195.771 138.017,191.919 C135.13,188.204 131.519,185.273 127.795,182.436 C121.101,177.333 112.65,174.982 105.552,170.494 C97.45,165.372 91.487,157.331 92.906,147.385 C93.125,145.854 92.872,144.012 91.268,143.269 C73.619,135.09 76.554,99.183 96.072,95.096 C98.403,94.609 100.813,91.706 100.568,89.28 C98.488,68.634 117.824,54.024 136.446,51.634 C137.974,51.435 140.112,48.446 137.697,47.977 L137.697,47.977 Z" id="Shape"></path>
                    <path d="M138.654,50.774 C151.482,36.702 171.114,36.071 188.477,40.567 C197.102,42.801 205.33,46.725 212.538,51.951 C215.892,54.382 218.609,57.417 220.927,60.834 C222.675,63.411 225.722,62.768 228.46,62.784 C232.225,62.806 235.981,62.9 239.737,63.165 C252.179,64.041 264.856,67.627 273.265,77.311 C280.204,85.303 284.773,94.237 293.327,100.891 C300.159,106.205 307.272,109.89 310.685,118.308 C315.581,130.38 312.451,142.068 305.819,152.621 C301.682,159.205 310.223,162.772 313.862,156.969 C321.858,144.213 325.899,131.676 322.185,116.666 C320.747,110.857 317.79,105.479 313.438,101.367 C309.462,97.611 304.569,94.964 300.325,91.542 C290.45,83.579 285.88,71.018 275.716,63.474 C261.665,53.044 243.655,52.762 226.906,52.824 C227.997,53.213 229.087,53.601 230.177,53.99 C225.205,47.511 217.05,42.493 209.838,38.935 C201.019,34.584 191.255,31.983 181.494,30.992 C164.421,29.259 143.817,33.298 134.676,49.392 C132.996,52.348 137.173,52.397 138.654,50.774 L138.654,50.774 Z" id="Shape"></path>
                    <path d="M236.214,202.925 C235.317,211.124 247.25,214.524 253.404,215.409 C262.255,216.683 271.482,216.213 280.339,215.194 C301.198,212.795 320.873,198.881 321.943,176.604 C322.343,168.249 318.98,159.142 310.234,156.89 C306.914,156.036 300.321,159.573 301.593,163.643 C302.756,167.363 307.519,166.91 309.406,170.328 C313.608,177.939 310.848,187.961 305.791,194.351 C299.454,202.361 287.682,205.061 278.094,206.147 C271.24,206.923 264.234,207.486 257.339,207.061 C253.893,206.849 250.493,206.478 247.138,205.65 C243.936,204.859 241.807,202.682 238.941,201.339 C237.897,200.852 236.34,201.772 236.214,202.925 L236.214,202.925 Z" id="Shape"></path>
                    <path d="M153.166,107.481 C149.458,113.712 152.999,121.738 155.921,127.598 C157.476,125.099 159.031,122.6 160.587,120.101 C154.72,122.287 148.503,123.346 142.606,125.425 C139.925,126.37 137.371,128.957 137.532,131.991 C137.683,134.833 140.68,136.046 143.133,135.135 C149.019,132.948 155.242,131.777 161.096,129.486 C164.339,128.216 167.524,124.435 165.166,120.999 C163.485,118.549 161.941,116.166 160.567,113.518 C159.319,111.113 158.448,108.264 156.41,106.418 C155.265,105.383 153.805,106.407 153.166,107.481 L153.166,107.481 Z" id="Shape"></path>
                    <path d="M161.197,123.73 C165.368,130.735 173.884,134.808 180.694,138.752 C191.266,144.875 202.134,150.44 212.469,156.978 C221.657,162.791 231.176,169.45 237.203,178.701 C239.446,182.143 240.808,186.425 240.24,190.541 C239.507,195.853 235.106,198.628 233.431,203.345 C232.796,205.131 233.857,207.017 235.972,206.241 C245.652,202.69 249.176,188.799 246.303,179.877 C242.972,169.533 232.9,161.927 224.421,155.934 C213.52,148.227 201.6,142.048 189.845,135.774 C181.251,131.188 171.834,127.122 163.982,121.288 C162.831,120.43 160.449,122.473 161.197,123.73 L161.197,123.73 Z" id="Shape"></path>
                    <path d="M135.781,49.454 C137.051,58.832 148.995,67.017 156.005,72.067 C160.493,75.301 165.238,78.237 170.226,80.636 C173.619,82.27 178.073,84.449 181.359,81.523 C182.211,80.764 182.951,79.45 182.487,78.286 C181.524,75.865 177.043,75.448 174.872,74.505 C170.16,72.458 165.727,69.729 161.447,66.908 C152.901,61.275 146.33,54.788 139.568,47.279 C138.274,45.843 135.556,47.791 135.781,49.454 L135.781,49.454 Z" id="Shape"></path>
                    <path d="M167.706,77.18 C166.786,78.416 166.086,79.55 165.649,81.053 C165.389,81.949 165.26,82.871 165.129,83.793 C165.029,84.497 165.065,85.58 164.716,86.211 C163.387,88.613 165.599,90.737 168.012,89.966 C170.132,89.288 172.475,86.374 170.764,84.227 C170.685,84.127 170.606,84.028 170.526,83.928 C170.699,84.371 170.872,84.815 171.044,85.258 C170.845,83.854 170.651,82.496 170.596,81.075 C170.558,80.105 170.236,78.168 170.324,77.673 C170.634,75.917 168.444,76.187 167.706,77.18 L167.706,77.18 Z" id="Shape"></path>
                    <path d="M252.161,90.299 C235.778,90.978 213.275,91.712 205.972,109.471 C200.258,123.366 208.337,140.364 214.454,152.724 C215.363,154.562 217.314,154.411 218.923,153.622 C219.062,153.555 219.2,153.486 219.339,153.418 C220.64,152.78 221.991,151.002 221.793,149.474 C221.034,143.62 214.558,147.171 214.732,151.738 C215.85,150.29 216.969,148.842 218.088,147.395 C217.947,147.451 217.806,147.507 217.665,147.563 C218.853,147.997 220.039,148.43 221.227,148.863 C216.181,137.643 209.053,124.522 211.955,111.821 C215.859,94.734 240.574,99.796 252.314,93.033 C253.411,92.401 254.002,90.223 252.161,90.299 L252.161,90.299 Z" id="Shape"></path>
                    <path d="M252.822,85.668 C249.495,85.179 247.134,89.314 245.561,91.561 C244.457,93.136 244.605,96.059 247.214,95.713 C248.913,95.488 250.332,95.688 251.83,96.522 C253.305,97.343 254.016,98.377 255.965,98.301 C257.862,98.228 259.396,96.393 259.458,94.589 C259.531,92.459 257.536,91.34 255.834,90.581 C253.195,89.404 250.465,89.447 247.69,90.029 C248.753,90.626 249.815,91.222 250.878,91.819 C250.941,90.129 253.017,88.983 253.55,87.486 C253.802,86.781 253.768,85.807 252.822,85.668 L252.822,85.668 Z" id="Shape"></path>
                    <path d="M121.304,56.88 C124.117,51.117 133.555,55.439 136.488,58.858 C137.892,57.351 139.297,55.844 140.701,54.337 C134.295,51.733 127.36,51.123 120.693,53.074 C120.792,54.887 120.889,56.699 120.988,58.512 C127.432,56.023 133.801,56.717 140.479,57.681 C143.606,58.132 147.039,52.441 143.202,51.906 C135.528,50.837 128.065,50.192 120.693,53.075 C117.633,54.271 116.692,59.79 120.988,58.513 C126.585,56.849 132.149,57.59 137.584,59.46 C139.712,60.192 142.991,56.596 141.193,54.73 C137.427,50.823 131.732,48.921 126.372,49.787 C122.745,50.372 118.587,53.075 120.347,57.076 C120.547,57.534 121.152,57.193 121.304,56.88 L121.304,56.88 Z" id="Shape"></path>
                    <path d="M149.085,39.649 C141.393,39.721 138.49,48.337 138.094,54.674 C137.893,57.893 142.539,55.915 143.299,54.252 C145.511,49.408 148.668,45.339 152.381,41.55 C155.081,38.795 152.094,35.24 149.299,38.036 C145.278,42.057 142.219,45.898 140.298,51.318 C138.912,55.228 144.096,55.275 145.382,52.267 C147.229,47.948 149.709,44.496 153.403,41.574 C155.968,39.546 153.946,35.463 150.968,37.515 C142.307,43.488 138.443,58.027 147.725,65.263 C148.782,66.087 150.719,64.39 150.521,63.253 C149.302,56.298 145.408,47.104 152.71,42.069 C151.898,40.715 151.087,39.363 150.275,38.01 C145.775,41.568 142.532,46.049 140.296,51.317 C141.99,51.633 143.686,51.95 145.38,52.266 C146.921,47.881 149.121,44.822 152.379,41.548 C151.352,40.377 150.324,39.205 149.297,38.034 C144.893,42.554 140.816,47.452 138.379,53.332 C140.113,53.191 141.849,53.051 143.584,52.91 C143.507,47.49 145.405,44.822 149.489,41.533 C150.238,40.935 150.232,39.638 149.085,39.649 L149.085,39.649 Z" id="Shape"></path>
                    <path d="M210.641,50.722 C211.68,50.722 212.387,48.865 211.039,48.865 C210,48.865 209.293,50.722 210.641,50.722 L210.641,50.722 Z" id="Shape"></path>
                    <path d="M240.509,174.22 C241.544,182.75 248.979,186.483 256.722,187.734 C260.583,188.358 264.535,188.396 268.431,188.641 C271.64,188.842 274.668,190.185 277.799,190.285 C279.898,190.351 281.871,187.755 281.262,185.792 C279.686,180.718 268.889,181.995 264.939,181.906 C255.892,181.7 249.194,179.535 242.956,172.815 C242.105,171.897 240.378,173.137 240.509,174.22 L240.509,174.22 Z" id="Shape"></path>
                    <path d="M237.435,119.532 C235.645,123.872 239.5,128.905 243.715,130.192 C249.59,131.985 255.045,128.96 258.442,124.2 C256.54,123.538 254.637,122.877 252.736,122.215 C241.571,140.622 251.311,162.432 271.027,169.476 C280.171,172.743 289.677,171.535 297.56,165.856 C301.667,162.897 305.075,159.193 308.271,155.291 C311.143,151.783 315.713,147.199 316.42,142.586 C316.743,140.479 314.678,139.754 313.037,140.696 C309.675,142.629 307.689,146.139 305.412,149.178 C302.985,152.415 300.422,155.531 297.481,158.315 C290.81,164.632 282.744,165.718 274.208,162.669 C257.748,156.788 250.062,138.519 258.944,123.374 C261.251,119.442 255.243,118.491 253.238,121.389 C251.161,124.391 248.69,124.802 245.462,123.276 C243.025,122.125 242.194,119.418 239.88,118.422 C238.962,118.026 237.808,118.627 237.435,119.532 L237.435,119.532 Z" id="Shape"></path>
                    <path d="M279.81,130.161 C282.327,125.789 283.093,121.436 287.239,118.09 C290.693,115.301 295.717,114.657 299.975,115.187 C304.452,115.742 308.512,117.935 311.559,121.222 C315.387,125.351 315.592,131.006 318.103,135.785 C318.885,137.272 320.934,136.322 321.471,135.099 C327.456,121.474 313.528,108.828 300.699,108.224 C294.346,107.925 288.462,109.931 283.393,113.707 C278.839,117.101 273.508,125.069 275.743,130.989 C276.53,133.074 279.141,131.323 279.81,130.161 L279.81,130.161 Z" id="Shape"></path>
                    <path d="M219.477,53.571 C221.692,58.504 223.881,61.619 222.686,67.312 C221.555,72.706 217.739,77.788 213.943,81.631 C215.208,83.072 216.473,84.514 217.738,85.955 C222.311,81.252 225.656,75.883 227.56,69.586 C228.758,65.625 229.201,57.252 223.342,57.45 C221.924,57.498 220.842,58.732 220.452,59.986 C220.006,61.422 220.125,62.179 220.572,63.601 C221.291,65.889 221.129,67.84 220.587,70.151 C219.604,74.339 216.853,78.525 213.942,81.63 C210.713,85.075 214.378,89.484 217.737,85.954 C222.936,80.49 227.138,74.242 228.865,66.809 C230.275,60.745 228.223,53.006 221.479,51.434 C220.467,51.2 219.002,52.511 219.477,53.571 L219.477,53.571 Z" id="Shape"></path>
                    <path d="M232.805,58.615 C230.446,60.545 228.573,63.024 226.428,65.184 C224.481,67.146 225.809,70.819 228.626,68.85 C231.744,66.67 234.528,64.07 237.643,61.893 C240.265,60.06 239.561,55.844 236.038,57.694 C230.944,60.368 226.465,64.11 222.356,68.102 C219.639,70.743 222.342,73.761 225.325,71.485 C229.094,68.607 232.582,65.393 236.333,62.494 C235.338,61.36 234.344,60.227 233.349,59.094 C230.129,62.221 226.589,64.99 223.369,68.116 C224.533,69.039 225.697,69.962 226.861,70.886 C230.928,65.21 237.435,62.614 244.273,62.446 C244.652,60.678 245.031,58.911 245.41,57.143 C238.484,58.464 232.258,61.433 225.983,64.55 C226.555,66.046 227.128,67.542 227.7,69.038 C231.805,66.112 236.309,64.423 241.257,63.523 C241.405,61.752 241.554,59.981 241.702,58.21 C235.598,60.341 228.162,63.472 224.423,69.025 C223.582,70.274 224.148,72.15 225.936,71.513 C231.582,69.498 236.231,65.4 241.982,63.375 C244.281,62.566 246.14,57.378 242.427,58.062 C236.127,59.224 230.524,61.295 225.301,65.036 C222.553,67.004 224.643,70.569 227.7,69.036 C233.019,66.368 238.385,63.6 244.273,62.443 C246.911,61.924 249.467,57.016 245.41,57.14 C236.549,57.41 228.035,61.422 222.822,68.7 C220.873,71.421 224.036,73.663 226.314,71.47 C229.547,68.357 233.099,65.605 236.334,62.492 C239.079,59.848 236.341,56.8 233.35,59.092 C229.586,61.977 226.103,65.195 222.358,68.101 C223.348,69.229 224.337,70.356 225.327,71.484 C229.047,67.811 233.015,64.37 237.645,61.892 C237.11,60.492 236.575,59.093 236.04,57.693 C232.933,59.902 230.161,62.53 227.057,64.736 C227.964,65.771 228.872,66.805 229.78,67.84 C231.787,65.581 233.507,63.018 235.262,60.561 C236.672,58.583 234.473,57.25 232.805,58.615 L232.805,58.615 Z" id="Shape"></path>
                    <path d="M198.486,143.45 C205.084,143.211 209.24,140.156 210.484,133.58 C211.192,129.834 205.859,131.277 205.197,134.008 C204.415,137.236 203.779,140.302 202.35,143.329 C200.779,146.656 205.303,147.251 206.927,144.922 C207.108,144.663 207.996,143.349 207.979,143.355 C206.995,142.802 206.009,142.25 205.025,141.697 C204.84,144.674 204.182,147.435 205.115,150.348 C205.846,152.633 209.059,151.237 209.985,149.953 C211.503,147.849 212.403,145.14 212.667,142.565 C210.764,142.95 208.859,143.334 206.956,143.718 C206.97,146.108 207.142,147.9 208.403,149.933 C210.016,152.535 213.718,148.77 213.749,146.861 C213.624,145.597 213.862,144.405 214.464,143.283 C212.658,143.651 210.853,144.018 209.048,144.386 C210.552,147.968 213.155,150.814 215.374,153.959 C217.135,156.456 220.781,152.893 220.784,150.851 C220.786,149.183 220.788,147.516 220.79,145.849 C218.824,146.479 216.857,147.11 214.892,147.74 C215.121,150.447 215.9,152.931 217.019,155.404 C218.448,158.564 222.831,155.374 222.8,152.845 C222.777,150.829 222.707,148.34 220.807,147.199 C218.701,145.934 215.741,148.595 215.876,150.745 C216.254,156.75 220.114,158.655 225.002,161.222 C227.19,162.37 231.344,158.691 229.166,156.753 C226.18,154.097 222.105,153.402 221.806,148.843 C220.162,150.026 218.519,151.207 216.875,152.389 C216.491,152.16 216.872,154.111 216.882,154.743 C218.809,153.889 220.736,153.038 222.663,152.184 C221.718,150.11 220.991,148.143 220.79,145.848 C220.452,141.967 214.888,144.78 214.892,147.739 C214.894,149.405 214.896,151.071 214.898,152.737 C216.702,151.701 218.505,150.665 220.308,149.629 C218.346,146.864 215.968,144.351 214.634,141.202 C213.556,138.655 209.996,140.483 209.218,142.305 C208.296,144.465 207.95,146.383 207.933,148.727 C209.715,147.703 211.497,146.679 213.279,145.655 C212.827,144.426 212.642,143.164 212.726,141.87 C212.675,138.415 207.255,140.457 207.015,143.023 C206.874,144.523 206.583,146.388 205.697,147.635 C207.32,147.504 208.944,147.372 210.567,147.24 C209.792,144.896 210.546,142.298 210.657,139.891 C210.727,138.383 208.883,137.762 207.703,138.233 C205.515,139.104 204.06,140.739 202.755,142.666 C204.28,143.196 205.807,143.728 207.332,144.259 C208.913,140.786 209.645,137.282 210.485,133.58 C208.722,133.723 206.961,133.865 205.198,134.008 C204.416,138.583 201.203,138.32 197.899,140.72 C196.779,141.532 196.854,143.508 198.486,143.45 L198.486,143.45 Z" id="Shape"></path>
                    <path d="M175.168,47.041 C171.484,44.857 166.089,45.727 163.147,48.864 C162.149,49.927 161.039,51.697 162.245,53.071 C163.398,54.385 165.419,53.664 166.534,52.723 C167.346,52.04 167.942,51.514 168.969,51.185 C170.361,50.739 171.984,50.788 173.429,50.719 C174.942,50.647 176.991,48.12 175.168,47.041 L175.168,47.041 Z" id="Shape"></path>
                    <path d="M181.825,123.373 C185.137,129.638 192.687,130.649 199.001,128.75 C202.573,127.676 203.218,121.443 198.681,122.838 C193.329,124.483 188.666,124.158 183.547,121.862 C182.788,121.521 181.352,122.477 181.825,123.373 L181.825,123.373 Z" id="Shape"></path>
                    <path d="M269.745,146.418 C272.995,155.319 284.614,157.368 292.256,153.066 C296.155,150.871 294.46,144.773 290.114,147.467 C284.381,151.022 276.661,148.218 271.602,144.786 C270.735,144.2 269.423,145.539 269.745,146.418 L269.745,146.418 Z" id="Shape"></path>
                    <path d="M240.627,76.79 C248.248,75.666 255.945,76.019 261.987,81.297 C261.923,80.274 261.857,79.249 261.793,78.226 C262.067,77.671 263.733,76.735 261.928,77.765 C261.201,78.179 260.803,78.807 260.448,79.535 C260.151,80.143 260.262,80.761 260.809,81.156 C261.122,81.337 261.359,81.59 261.516,81.913 C262.218,82.963 264.152,82.711 265.026,82.101 C265.309,81.903 265.593,81.705 265.878,81.506 C267.234,80.559 269.455,77.975 267.693,76.292 C260.658,69.57 248.361,69.778 240.524,74.969 C239.915,75.372 239.335,76.98 240.627,76.79 L240.627,76.79 Z" id="Shape"></path>
                    <path d="M116.341,100.274 C116.292,109.403 111.037,116.876 109.372,125.598 C107.571,135.03 112.579,144.415 118.662,151.264 C131.893,166.162 152.754,168.126 170.886,172.582 C185.268,176.116 200.231,179.736 213.05,187.418 C216.213,189.313 224.996,195.489 222.003,200.395 C218.434,206.243 206.513,204.514 201.245,202.813 C198.903,202.056 195.113,206.037 197.209,208.102 C202.377,213.195 212.801,211.453 218.932,209.266 C226.066,206.721 231.061,200.493 228.829,192.803 C226.871,186.059 219.121,181.682 213.351,178.726 C205.38,174.641 196.67,171.906 188.083,169.45 C170.246,164.348 150.833,162.995 134.414,153.884 C124.332,148.288 115.055,137.532 115.411,125.458 C115.54,121.114 117.515,116.743 118.737,112.63 C120.141,107.911 120.272,103.764 119.268,98.98 C118.913,97.276 116.348,99.077 116.341,100.274 L116.341,100.274 Z" id="Shape"></path>
                    <path d="M299.031,175.356 C297.781,177.248 298.751,178.85 298.991,180.889 C299.263,183.198 297.672,184.526 296.263,186.148 C294.586,188.078 296.04,191.091 298.678,190.12 C302.895,188.567 306.098,184.447 305.379,179.792 C305.127,178.165 304.396,176.786 303.307,175.57 C302.297,174.442 300.04,173.829 299.031,175.356 L299.031,175.356 Z" id="Shape"></path>
                    <path d="M163.597,194.157 C162.489,194.712 161.786,195.358 161.174,196.44 C161.55,196.04 161.926,195.639 162.302,195.239 C158.647,197.048 160.889,201.384 163.14,203.134 C165.963,205.329 170.124,206.241 173.629,206.072 C176.526,205.932 180.044,200.098 175.863,199.54 C173.286,199.196 170.57,199.05 168.111,198.128 C167.276,197.815 166.334,197.363 165.664,196.765 C164.945,196.123 164.862,195.082 163.736,194.948 C164.088,195.347 164.439,195.748 164.79,196.148 C164.715,195.6 164.656,195.095 164.639,194.539 C164.621,193.963 163.977,193.967 163.597,194.157 L163.597,194.157 Z" id="Shape"></path>
                    <path d="M139.47,68.864 C135.737,62.397 129.388,60.834 122.291,62.469 C115.791,63.967 108.141,72.16 110.918,79.214 C111.155,79.816 111.771,80.393 112.446,80.441 C118.256,80.856 116.511,72.337 120.328,69.83 C124.72,66.945 132.42,69.147 136.707,71.29 C137.9,71.885 140.268,70.246 139.47,68.864 L139.47,68.864 Z" id="Shape"></path>
                    <path d="M204.899,63.618 C203.026,67.033 201.92,70.911 200.537,74.566 C199.144,78.249 203.7,78.941 205.534,76.304 C207.128,74.012 212.271,63.216 206.311,62.795 C205.688,62.751 205.196,63.079 204.899,63.618 L204.899,63.618 Z" id="Shape"></path>
                    <path d="M88.48,44.243 C79.036,52.034 71.079,60.747 63.898,70.663 C66.963,70.811 70.029,70.961 73.094,71.11 C73.093,70.775 73.096,70.441 73.101,70.107 C72.663,71.38 72.226,72.654 71.788,73.927 C78.057,65.891 85.195,58.576 92.106,51.099 C96.155,46.718 90.971,40.985 86.107,44.264 C70.711,54.643 59.266,68.804 49.909,84.688 C48.592,86.922 49.061,90.296 51.449,91.589 C54.648,93.32 58.882,91.154 60.809,88.48 C68.062,78.415 76.099,68.957 82.677,58.409 C87.631,50.466 77.84,46.495 73.001,53.179 C62.84,67.211 52.782,81.377 44.473,96.607 C48.717,97.399 52.961,98.19 57.205,98.982 C63.329,87.037 70.373,75.595 78.204,64.694 C74.281,63.33 70.358,61.965 66.436,60.6 C57.076,76.223 47.163,91.533 42.608,109.38 C41.647,113.146 44.59,116.19 48.319,115.888 C52.693,115.534 55.775,112.139 57.069,108.208 C61.232,95.565 68.323,83.964 73.904,71.925 C69.86,71.171 65.817,70.417 61.773,69.663 C55.55,83.797 50.256,98.323 44.315,112.577 C48.918,112.204 53.52,111.832 58.123,111.459 C58.368,103.301 62.534,95.095 64.547,87.251 C65.443,83.758 62.704,80.934 59.249,81.213 C55.322,81.531 52.151,84.668 51.131,88.337 C46.72,104.187 43.329,120.112 41.114,136.42 C46.317,135.368 51.52,134.317 56.723,133.267 C56.16,123.776 58.346,114.603 59.191,105.199 C54.239,106.199 49.286,107.2 44.333,108.201 C45.503,122.903 42.431,137.561 44.081,152.281 C45.232,162.547 59.542,155.03 59.597,147.308 C59.651,139.653 59.558,132.003 59.469,124.349 C59.419,120.122 54.865,118.767 51.463,119.855 C47.465,121.132 44.179,124.953 44.209,129.24 C44.294,141.09 43.646,152.592 47.413,164.027 C48.476,167.256 52.437,167.766 55.223,166.877 C59.351,165.557 62.589,161.685 62.624,157.299 C62.645,154.626 62.667,151.953 62.687,149.279 C62.753,139.887 47.892,145.473 47.152,152.418 C46.166,161.666 48.614,170.184 54.172,177.647 C59.025,184.162 71.509,174.158 68.426,167.471 C66.608,163.528 65.3,159.385 63.468,155.448 C59.323,146.538 45.989,156.281 48.212,164.143 C50.662,172.815 56.438,179.899 62.097,186.713 C67.247,192.914 80.09,183.148 76.512,176.422 C75.249,174.047 73.789,171.788 72.527,169.414 C67.403,172.334 62.278,175.256 57.154,178.176 C63.378,189.268 72.671,198.294 78.823,209.365 C83.754,218.235 99.327,207.682 94.858,200.224 C88.313,189.306 78.805,180.494 72.527,169.413 C67.792,161.055 53.133,170.69 57.154,178.175 C58.426,180.544 59.895,182.798 61.169,185.167 C65.974,181.737 70.779,178.307 75.584,174.876 C70.583,168.904 65.656,163.068 63.469,155.446 C58.384,158.344 53.298,161.243 48.213,164.141 C50.059,168.068 51.395,172.197 53.255,176.118 C58.006,172.726 62.757,169.335 67.509,165.942 C64.425,161.896 62.024,156.378 62.529,151.171 C57.351,152.218 52.173,153.264 46.994,154.31 C47.014,156.97 47.035,159.63 47.057,162.29 C52.127,160.047 57.198,157.804 62.268,155.561 C58.752,145.475 59.303,134.872 59.472,124.348 C54.385,125.978 49.299,127.609 44.212,129.239 C44.124,136.921 44.029,144.598 44.084,152.28 C49.256,150.623 54.428,148.965 59.6,147.307 C57.75,132.745 59.816,118.013 59.348,103.387 C59.055,94.264 45.359,99.876 44.49,106.389 C43.073,117.003 39.96,127.525 40.958,138.321 C41.833,147.787 55.833,142.206 56.567,135.168 C58.244,119.092 60.645,102.948 64.55,87.251 C60.078,87.612 55.606,87.976 51.134,88.337 C48.97,97.862 44.004,106.171 43.558,116.129 C43.179,124.589 55.385,119.591 57.366,115.011 C63.472,100.888 68.084,86.165 73.908,71.925 C77.691,62.676 65.072,62.731 61.777,69.663 C55.428,83.019 47.082,95.161 42.612,109.38 C47.432,108.989 52.253,108.599 57.073,108.208 C61.047,91.688 70.559,77.347 79.245,62.988 C80.694,60.592 80.14,56.921 77.583,55.537 C74.123,53.664 69.567,56.011 67.478,58.894 C58.827,70.831 51.052,83.408 44.477,96.606 C42.93,99.711 43.873,103.844 47.66,104.546 C51.69,105.293 55.43,102.334 57.21,98.981 C64.731,84.812 73.465,71.52 82.682,58.409 C79.145,57.179 75.608,55.948 72.07,54.717 C65.974,64.806 57.615,73.449 50.875,83.108 C54.509,84.373 58.142,85.636 61.775,86.9 C69.245,73.765 78.776,61.416 90.955,52.339 C88.496,50.388 86.037,48.439 83.578,46.488 C79.461,51.389 75.101,56.081 70.911,60.92 C67.614,64.728 62.591,69.148 62.591,74.478 C62.591,80.753 70.961,76.795 72.55,73.671 C77.506,63.923 84.842,55.258 91.711,46.803 C93.748,44.29 90.614,42.483 88.48,44.243 L88.48,44.243 Z" id="Shape"></path>
                    <path d="M101.613,35.588 C85.38,40.987 72.725,57.299 64.589,71.627 C60.075,79.575 72.123,81.591 76.08,75.625 C81.458,67.516 87.972,60.208 93.979,52.57 C95.951,50.063 96.708,45.601 93.379,43.8 C89.875,41.903 85.957,44.421 83.701,47.015 C71.572,60.965 59.933,75.237 51.04,91.525 C55.786,91.746 60.532,91.968 65.279,92.19 C67.055,86.591 70.757,81.655 74.086,76.902 C77.615,71.867 81.236,66.886 85.053,62.07 C89.403,56.584 82.249,51.517 77.768,56.293 C60.541,74.652 49.573,96.429 42.507,120.468 C48.12,119.334 53.733,118.2 59.346,117.067 C58.473,106.087 64.543,95.3 69.853,86.101 C64.958,85.872 60.064,85.644 55.168,85.414 C53.77,97.327 48.957,108.423 45.574,119.848 C42.254,131.064 41.245,143.032 42.936,154.618 C44.41,164.71 48.115,174.112 53.325,182.83 C59.009,192.339 65.151,201.341 74.591,207.403 C79.57,210.6 86.61,203.286 84.953,198.309 C81.761,188.719 75.289,181.179 69.99,172.7 C65.53,165.561 61.834,157.366 60.224,149.076 C55.815,126.362 67.304,106.13 70.511,84.173 C71.772,75.534 60.563,75.726 56.963,81.618 C49.471,93.881 41.716,107.673 42.333,122.52 C42.483,126.138 45.677,128.245 49.087,127.968 C53.904,127.577 57.986,123.684 59.172,119.118 C64.48,98.676 72.713,79.292 85.052,62.07 C82.243,60.551 79.435,59.034 76.626,57.515 C72.946,63.234 67.834,67.866 63.265,72.867 C58.251,78.353 53.823,84.602 51.039,91.525 C49.677,94.913 50.175,99.214 54.438,100.005 C58.761,100.807 62.713,97.634 64.638,94.06 C72.671,79.152 83.271,65.635 93.977,52.57 C90.551,50.718 87.125,48.867 83.7,47.015 C77.891,54.867 70.807,61.656 65.599,69.96 C69.43,71.293 73.26,72.626 77.09,73.958 C80.37,67.816 84.473,62.329 89.057,57.103 C93.704,51.805 99.422,47.653 104.368,42.674 C107.184,39.842 106.927,33.821 101.613,35.588 L101.613,35.588 Z" id="Shape"></path>
                    <path d="M122.145,24.694 C119.444,25.355 116.868,25.373 114.209,26.358 C111.559,27.341 109.085,28.687 106.652,30.109 C101.108,33.348 96.08,37.444 90.99,41.338 C93.89,44.642 96.789,47.946 99.689,51.25 C102.781,48.073 106.116,45.155 109.761,42.628 C113.048,40.35 116.599,36.347 114.922,31.972 C113.359,27.894 108.086,28.037 104.917,29.96 C78.345,46.083 59.909,72.562 50.264,101.82 C45.72,115.602 43.201,130.246 44.319,144.78 C44.98,153.381 47.675,161.532 50.983,169.438 C52.762,173.691 54.693,177.877 56.468,182.132 C57.352,184.252 58.15,186.404 58.912,188.57 C60.062,191.835 62.253,192.389 64.377,194.647 C67.94,198.433 74.361,193.959 75.138,189.823 C76.054,184.937 77.122,182.19 75.378,177.239 C74.04,173.441 72.392,169.749 70.776,166.063 C67.492,158.567 63.802,150.891 62.59,142.724 C60.678,129.847 62.843,116.802 66.48,104.431 C70.16,91.913 76.181,79.839 83.559,69.106 C90.559,58.924 98.951,48.91 109.76,42.627 C108.146,38.404 106.531,34.182 104.916,29.959 C99.187,33.774 93.813,37.767 89.372,43.068 C87.371,45.457 86.435,49.591 88.674,52.141 C91.586,55.46 96.888,53.74 99.688,51.248 C103.528,47.83 107.4,44.457 111.304,41.112 C115.026,37.924 119.294,33.842 123.544,31.445 C127.116,29.433 127.219,23.451 122.145,24.694 L122.145,24.694 Z" id="Shape"></path>
                    <path d="M74.998,67.192 C79.908,65.895 83.742,62.678 87.706,59.635 C92.12,56.248 96.795,53.221 101.511,50.277 C110.482,44.679 119.98,40.01 129.933,36.453 C151.342,28.802 173.876,27.061 196.447,27.916 C220.498,28.827 244.761,33.796 267.338,42.08 C278.934,46.335 290.138,51.61 300.944,57.579 C305.654,60.18 309.756,63.282 313.435,67.204 C317.192,71.209 318.932,76.81 324.105,79.046 C328.904,81.121 334.881,77.2 335.84,72.227 C337.111,65.637 334.157,61.373 330.224,56.308 C326.533,51.556 321.66,47.698 316.689,44.372 C305.781,37.074 292.973,31.806 280.769,27.124 C255.496,17.431 228.886,12.106 201.867,10.896 C176.437,9.757 151.418,12.056 127.654,21.658 C116.088,26.332 105.212,32.29 95.1,39.587 C90.442,42.949 86.018,46.61 81.831,50.543 C77.583,54.534 73.155,58.726 71.719,64.547 C71.188,66.696 73.205,67.667 74.998,67.192 L74.998,67.192 Z" id="Shape"></path>
                    <path d="M321.25,58.364 C316.736,58.147 315.778,65.295 316.708,68.317 C318.922,75.523 323,82.485 327.081,88.787 C331.277,95.266 333.938,99.421 336.405,107.363 C340.071,119.17 339.727,132.287 338.641,144.467 C337.717,154.841 336.67,165.415 333.286,175.327 C329.696,185.839 324.415,195.776 318.2,204.957 C311.929,214.22 304.61,222.697 296.348,230.232 C292.373,233.857 288.045,237.053 283.971,240.559 C283.091,241.456 282.246,242.385 281.437,243.346 C276.831,248.675 283.971,241.406 280.275,244.695 C278.285,246.466 276.559,248.432 276.087,251.138 C275.827,252.616 276.236,253.731 277.462,254.594 C280.712,256.882 287.978,254.125 291.091,252.428 C296.15,249.67 300.586,246.063 304.919,242.288 C313.815,234.538 321.751,225.541 328.75,216.059 C342.909,196.875 352.346,175.265 355.146,151.565 C357.709,129.867 360.361,102.721 346.785,83.903 C342.45,77.894 337.746,72.182 332.67,66.787 C330.705,64.7 328.227,60.854 325.562,59.64 C324.254,59.044 322.947,58.574 321.541,58.514 C321.304,58.503 322.648,58.431 321.25,58.364 L321.25,58.364 Z" id="Shape"></path>
                    <path d="M260.345,32.921 C266.434,41.537 276.672,45.508 285.66,50.567 C294.906,55.77 303.128,62.26 310.52,69.852 C316.778,76.279 322.306,83.172 327.212,90.684 C329.789,94.627 332.1,98.733 334.358,102.866 C335.656,105.243 337.227,107.376 338.717,109.622 C340.113,111.727 343.649,111.568 345.832,112.052 C348.78,112.706 351.469,110.012 352.23,107.439 C353.028,104.743 354.675,101.903 353.529,99.048 C352.553,96.618 351.663,94.287 350.398,91.982 C347.973,87.563 345.388,83.228 342.698,78.966 C337.694,71.038 331.887,63.548 325.173,56.994 C317.585,49.587 308.644,43.161 299.227,38.327 C288.538,32.84 276.953,27.874 264.939,26.9 C262.038,26.665 258.258,29.967 260.345,32.921 L260.345,32.921 Z" id="Shape"></path>
                    <path d="M75.856,192.536 C74.095,198.119 75.53,201.754 79.055,206.214 C83.826,212.253 89.082,217.363 94.897,222.437 C105.764,231.918 117.593,238.464 131.235,243.07 C157.659,251.991 185.158,258.26 213.161,257.369 C240.943,256.484 269.787,249.523 295.257,238.457 C307.159,233.286 318.046,226.5 328.039,218.22 C332.752,214.315 337.114,210 341.3,205.54 C345.726,200.823 349.833,195.41 349.919,188.667 C349.955,185.805 346.808,185.018 344.591,185.676 C334.224,188.75 327.291,199.271 319.415,206.111 C311.519,212.967 302.508,218.677 292.911,222.847 C269.691,232.935 243.89,238.823 218.646,240.128 C193.082,241.449 168.291,235.096 144.028,227.669 C132.059,224.006 121.037,218.492 111.326,210.574 C105.832,206.094 100.463,201.218 94.645,197.161 C90.305,194.135 85.258,192.422 80.86,189.629 C78.807,188.323 76.411,190.775 75.856,192.536 L75.856,192.536 Z" id="Shape"></path>
                    <path d="M133.67,239.727 C119.315,238.097 105.991,235.686 93.441,228.239 C85.035,223.25 72.318,237.962 81.238,244.348 C87.569,248.883 93.267,254.244 100.179,257.926 C108.217,262.207 119.535,250.633 114.129,242.957 C108.336,234.73 100.316,226.718 90.045,224.87 C82.617,223.534 72.198,233.574 77.964,240.703 C82.034,245.735 88.201,246.693 94.304,245.806 C96.658,245.463 98.965,244.891 101.327,244.599 C102.16,244.496 104.007,244.887 102.456,244.338 C103.433,244.684 103.56,245.075 104.372,246.284 C109.128,241.181 113.884,236.079 118.639,230.976 C109.432,226.193 99.372,222.747 92.411,214.708 C89.924,211.837 86.982,209.415 84.177,206.864 C82.63,205.459 81.156,203.988 79.759,202.435 C80.005,202.708 77.986,200.066 78.405,200.799 C77.439,199.109 78.06,201.35 78.046,199.68 C78.009,195.542 74.127,193.157 70.339,193.463 C65.545,193.852 61.906,197.168 59.648,201.17 C56.593,206.585 53.368,212.766 47.887,216.068 C51.295,219.953 54.705,223.838 58.114,227.722 C58.539,227.084 60.348,224.413 60.113,224.721 C62.433,221.692 63.772,216.86 60.966,213.66 C57.498,209.709 50.833,211.579 47.538,214.748 C42.321,219.766 36.492,223.846 31.773,229.405 C29.495,232.089 27.987,235.274 27.211,238.687 C27.01,239.569 26.873,240.469 26.697,241.357 C26.39,242.476 26.403,242.581 26.735,241.669 C28.037,239.695 29.903,238.303 32.332,237.492 C25.816,238.016 18.746,245.223 21.112,252.05 C23.084,257.739 27.512,263.134 31.967,267.079 C39.052,273.354 46.864,273.946 54.469,267.899 C60.778,262.881 62.154,254.484 62.742,247 C63.014,243.54 62.934,240.052 62.961,236.584 C62.972,235.171 63.015,233.761 63.085,232.35 C63.016,233.746 64.265,228.315 63.091,231.422 C57.443,233.275 51.794,235.127 46.146,236.98 C48.369,239.96 48.977,244.125 49.906,247.66 C51.002,251.826 52.709,255.774 55.595,259.025 C59.37,263.276 65.539,260.781 69.219,257.921 C74.427,253.874 77.372,247.759 78.092,241.287 C78.452,238.049 78.479,234.804 78.52,231.55 C78.548,229.32 78.727,227.47 79.21,226.445 C73.104,227.689 66.997,228.932 60.891,230.176 C64.177,238.284 61.768,247.476 67.985,254.621 C71.579,258.751 78.353,256.678 81.792,253.503 C90.099,245.832 92.553,233.209 87.874,222.857 C83.309,212.755 70.579,222.117 68.548,229.084 C67.408,232.993 67.375,237.337 65.905,241.125 C72.209,240.614 78.512,240.104 84.816,239.593 C84.816,239.26 84.815,238.926 84.815,238.593 C78.165,240.725 71.514,242.858 64.864,244.989 C65.504,249.246 65.303,254.08 64.884,257.373 C64.713,258.707 64.448,260.025 64.155,261.338 C64.009,261.954 63.843,262.565 63.658,263.169 C64.011,262.141 63.978,262.141 63.563,263.168 C62.996,264.262 63.086,264.13 63.835,262.774 C64.981,261.324 66.457,260.287 68.263,259.663 C69.617,258.883 70.783,258.882 71.76,259.659 C70.896,259.138 70.8,259.123 71.471,259.613 C69.341,257.738 67.698,255.656 65.381,253.922 C62.099,251.464 57.342,251.774 53.617,252.543 C44.161,254.497 38.751,263.823 35.747,272.189 C34.475,275.734 34.06,280.066 37.978,282.188 C42.417,284.591 49.014,281.71 51.538,277.682 C56.419,269.892 58.233,259.872 51.802,252.304 C47.816,247.614 39.466,251.11 36.712,255.439 C34.354,259.145 32.683,262.725 31.904,267.08 C31.198,271.031 31.567,275.087 31.034,279.046 C37.302,277.779 43.569,276.514 49.837,275.247 C49.767,269.92 49.091,264.527 46.899,259.628 C42.881,250.653 29.612,258.219 28.535,265.546 C26.929,276.473 27.621,287.425 27.588,298.419 C33.94,295.608 40.291,292.8 46.642,289.99 C45.23,286.326 42.984,283.137 40.583,280.057 C34.338,272.046 22.562,283.375 22.507,290.444 C22.467,295.464 22.522,300.455 22.96,305.459 C23.326,309.642 26.697,312.12 30.805,311.787 C36.336,311.339 41.23,306.817 42.519,301.508 C43.582,297.13 43.714,292.612 43.725,288.123 C43.737,282.635 37.703,280.91 33.353,282.301 C28.007,284.01 24.144,288.872 23.956,294.461 C23.448,309.54 27.737,327.036 40.278,336.455 C44.456,339.593 51.925,335.41 54.269,331.808 C68.651,309.702 64.731,283.834 71.545,259.506 C65.008,260.826 58.471,262.148 51.934,263.468 C52.597,272.892 52.192,282.354 52.941,291.781 C53.672,300.994 55.131,313.064 62.557,319.562 C66.487,323 72.624,322.199 76.246,318.453 C86.892,307.439 84.759,293.109 82.005,279.354 C80.208,270.384 77.885,247.971 64.883,248.757 C50.379,249.634 45.818,266.491 44.023,278.179 C42.39,288.819 41.901,299.727 41.881,310.485 C41.871,316.015 47.946,317.754 52.33,316.351 C57.607,314.663 61.758,309.709 61.799,304.1 C61.882,292.528 63.274,279.687 55.707,269.95 C50.599,263.377 41.159,270.782 38.402,275.626 C31.439,287.856 30.461,328.815 54.332,318.888 C67.765,313.302 72.589,298.212 76.769,285.51 C77.538,283.174 78.269,280.827 79.042,278.493 C78.066,281.435 80.469,274.436 80.117,275.501 C80.913,273.089 81.694,270.673 82.466,268.253 C85.274,259.441 87.938,250.593 91.262,241.957 C85.12,243.207 78.979,244.458 72.838,245.709 C73.385,247.788 72.517,243.74 72.984,246.351 C73.183,247.459 73.347,248.576 73.513,249.69 C73.99,252.883 74.403,256.087 74.845,259.286 C75.959,267.352 77.265,275.38 79.06,283.325 C82.013,296.395 89.05,312.861 105.382,305.321 C120.079,298.536 115.888,279.156 112.687,267.038 C109.863,256.343 106.136,245.395 101.118,235.505 C95.86,225.142 78.525,236.609 82.561,246.083 C86.957,256.4 93.743,266.287 100.965,274.812 C108.484,283.685 119.275,293.275 131.783,291.887 C138.003,291.197 144.018,285.629 143.821,279.093 C143.369,264.06 130.829,251.246 120.149,242 C115.955,238.368 110.379,239.633 106.415,243.112 C103.298,245.847 99.411,252.898 103.528,256.586 C111.237,263.494 120.774,268.156 130.253,272.118 C140.407,276.363 151.364,279.594 162.34,277.047 C168.249,275.676 175.748,265.934 170.367,260.309 C157.462,246.82 140.116,239.977 123.005,233.493 C117.68,231.475 112.186,233.741 108.793,238.216 C105.995,241.905 104.702,248.466 109.673,251.095 C129.032,261.332 149.243,270.903 170.789,275.447 C179.649,277.316 191.792,263.093 182.075,256.902 C168.793,248.438 153.18,243.631 137.75,240.937 C129.454,239.488 116.895,253.213 126.808,258.916 C135.643,263.998 145.373,267.145 155.106,270.018 C161.318,271.852 167.476,273.873 173.835,275.127 C179.89,276.32 185.961,277.414 191.991,278.731 C198.162,280.079 203.16,281.062 207.795,283.561 C209.963,284.73 207.43,283.007 208.172,283.778 C207.455,282.365 207.265,282.054 207.599,282.847 C208.159,280.251 208.718,277.656 209.278,275.06 C210.854,273.501 211.173,273.137 210.233,273.965 C213.009,271.596 210.634,273.54 209.661,274.036 C208.578,274.546 208.653,274.517 209.888,273.95 C209.001,274.325 208.095,274.653 207.193,274.986 C201.482,277.087 195.544,278.567 189.673,280.148 C172.094,284.883 157.57,296.556 141.163,303.983 C145.628,306.477 150.093,308.971 154.559,311.465 C154.498,311.649 152.361,315.575 153.679,313.63 C154.147,312.94 154.696,312.301 155.23,311.661 C155.527,311.305 157.645,309.048 155.691,311.105 C156.41,310.349 157.148,309.611 157.878,308.867 C161.321,305.354 164.819,301.861 167.899,298.019 C174.359,289.961 177.324,278.806 167.507,272.215 C159.559,266.879 147.175,269.915 138.711,271.907 C133.873,273.048 129.124,274.559 124.388,276.059 C122.269,276.73 120.152,277.407 118.028,278.061 C117.099,278.347 116.167,278.618 115.232,278.884 C114.677,279.042 110.958,279.891 113.984,279.291 C108.254,280.426 102.951,284.036 101.648,290.117 C100.449,295.713 104.337,299.353 109.699,299.291 C123.771,299.127 137.542,296.141 151.46,294.412 C166.474,292.548 181.668,290.906 196.348,287.132 C205.594,284.755 211.246,267.295 197.957,267.922 C172.42,269.129 147.682,277.114 123.325,284.26 C123.67,290.614 124.013,296.968 124.358,303.323 C133.755,300.362 143.514,299.526 153.152,297.692 C157.026,296.956 160.885,296.197 164.797,295.682 C168.201,295.234 172.032,295.01 173.872,295.993 C173.057,292.341 172.242,288.688 171.427,285.036 C171.738,284.239 172.217,283.559 172.864,282.996 C170.665,285.117 174.936,281.815 172.099,283.483 C170.919,284.056 170.805,284.149 171.757,283.762 C170.662,284.245 169.526,284.631 168.397,285.023 C164.366,286.422 160.124,287.283 156.707,287.893 C145.67,289.866 134.608,291.929 123.475,293.27 C117.757,293.958 111.828,294.505 106.065,294.219 C101.95,294.016 100.115,293.21 98.068,290.611 C97.56,289.967 97.345,289.418 96.593,287.686 C95.782,285.822 95.129,283.885 94.421,281.981 C92.839,277.73 90.791,273.756 88.171,270.043 C85.527,266.297 79.4,267.537 76.134,269.4 C72.286,271.595 68.248,276.388 68.812,281.167 C69.711,288.795 73.484,294.815 76.896,301.518 C80.404,308.411 81.306,316.262 83.792,323.52 C87.527,334.422 102.646,324.133 104.165,316.956 C105.855,308.972 104.773,301.395 102.895,293.561 C101.825,289.09 95.808,288.589 92.323,289.704 C87.245,291.328 81.664,296.877 82.302,302.671 C83.297,311.704 86.504,320.553 95.11,324.863 C103.286,328.958 112.874,327.429 121.411,325.645 C130.422,323.762 138.987,320.299 148.061,318.643 C154.544,317.459 161.115,316.76 167.661,316.024 C174.868,315.214 182.095,314.802 188.544,311.163 C193.108,308.588 197.456,302.537 195.364,297.08 C193.258,291.583 186.392,292.022 182.141,294.421 C179.307,296.021 173.506,295.634 170.179,296.002 C164.234,296.659 158.301,297.387 152.402,298.385 C143.562,299.88 135.152,302.474 126.559,304.906 C125.193,305.293 123.817,305.645 122.438,305.987 C121.75,306.153 121.062,306.311 120.372,306.461 C122.345,306.022 119.035,306.667 118.965,306.678 C117.318,306.942 115.656,307.076 113.991,307.155 C111.438,307.273 113.403,307.301 110.971,306.911 C108.889,306.577 107.596,305.841 106.145,304.212 C104.913,302.828 103.727,299.033 103.382,295.915 C96.518,298.951 89.653,301.987 82.789,305.024 C83.864,309.507 84.479,314.087 83.519,318.629 C90.31,316.441 97.101,314.253 103.892,312.065 C101.747,305.811 100.621,299.28 98.339,293.066 C96.038,286.799 90.669,281.162 89.872,274.418 C83.419,278.126 76.966,281.833 70.513,285.542 C75.345,292.383 75.899,301.962 82.249,308.144 C92.294,317.922 110.415,314.652 122.861,313.032 C135.192,311.428 147.561,309.139 159.755,306.679 C171.933,304.223 183.635,299.628 190.256,288.55 C192.359,285.032 191.599,279.613 187.811,277.593 C179.371,273.09 168.747,275.32 159.845,277.034 C147.658,279.382 135.191,280.459 123.324,284.263 C118.033,285.959 113.053,291.312 113.362,297.154 C113.673,302.983 119.496,304.779 124.357,303.326 C147.047,296.545 169.902,288.917 193.725,287.664 C194.262,281.261 194.798,274.857 195.334,268.454 C182.485,271.826 168.893,273.109 155.711,274.568 C141.772,276.113 128.063,279.182 113.982,279.295 C112.554,285.962 111.125,292.628 109.697,299.295 C117.465,297.785 124.88,295.114 132.451,292.863 C136.553,291.644 140.716,290.564 144.187,290.025 C146.005,289.744 147.838,289.609 149.676,289.552 C152.784,289.455 148.198,289.311 151.077,289.666 C151.275,289.69 154.024,290.449 152.207,289.776 C152.708,289.981 153.189,290.223 153.651,290.505 C152.022,289.6 154.319,291.562 153.193,289.65 C153.547,290.601 153.548,290.445 153.194,289.182 C152.941,287.02 152.715,289.556 153.532,287.526 C152.979,288.598 153.083,288.505 153.841,287.247 C153.353,288.049 152.77,288.794 152.201,289.539 C151.585,290.347 150.909,291.11 150.241,291.876 C147.943,294.513 151.922,290.154 149.45,292.731 C143.448,298.992 136.863,304.644 134.121,313.123 C133.132,316.181 134.628,319.908 137.425,321.423 C140.785,323.242 144.325,322.067 147.517,320.606 C158.076,315.768 167.748,309.295 178.005,303.887 C183.601,300.936 189.146,299.309 195.197,297.641 C202.282,295.689 209.257,293.537 215.894,290.341 C221.982,287.409 231.256,278.613 226.734,271.055 C223.26,265.25 216.634,263.484 210.464,261.721 C203.521,259.739 196.353,258.509 189.253,257.235 C183.409,256.186 177.773,255.048 172.063,253.425 C161.007,250.283 149.811,247.667 139.87,241.674 C136.223,247.666 132.575,253.66 128.928,259.653 C143.021,262.393 156.339,267.155 168.603,274.688 C172.365,268.506 176.126,262.325 179.889,256.143 C159.556,252.18 141.054,243.389 123.005,233.495 C118.562,239.362 114.116,245.229 109.673,251.097 C125.043,257.179 141.31,263.502 153.311,275.281 C155.987,269.701 158.663,264.123 161.338,258.543 C163.538,257.974 159.341,258.647 158.55,258.652 C160.057,258.642 156.553,258.411 156.758,258.436 C155.611,258.296 154.474,258.07 153.339,257.849 C149.027,257.01 144.853,255.607 140.779,253.989 C133.55,251.117 125.128,246.654 120.149,242.004 C114.609,246.865 109.068,251.729 103.528,256.59 C108.049,260.672 112.245,265.065 116.051,269.822 C119.599,274.258 123.581,279.625 123.856,285.497 C127.869,281.232 131.881,276.968 135.894,272.703 C135.651,272.734 133.007,272.733 134.86,272.884 C133.959,272.811 133.075,272.571 132.204,272.343 C133.522,272.688 130.623,271.612 130.731,271.662 C129.46,271.064 128.268,270.302 127.091,269.539 C123.02,266.897 119.637,263.152 116.455,259.533 C110.189,252.405 104.63,244.354 101.116,235.508 C94.93,239.034 88.745,242.56 82.559,246.086 C86.497,254.35 89.51,263.244 92.211,271.973 C93.982,277.699 95.139,282.037 95.823,287.411 C95.959,288.474 96.034,289.542 96.093,290.612 C96.128,291.264 95.857,295.034 96.155,292.414 C96.102,292.817 96.032,293.218 95.946,293.614 C95.545,295.657 96.87,291.468 96.09,293.24 C96.841,291.532 98.674,289.542 101.434,288.598 C103.163,288.316 103.499,288.217 102.443,288.302 C103.93,288.428 104.214,288.412 103.291,288.257 C104.62,288.778 104.866,288.834 104.03,288.428 C102.423,287.59 105.44,289.793 104.053,288.432 C103.447,287.836 102.962,287.12 102.49,286.421 C103.593,288.051 101.785,284.826 101.552,284.291 C99.196,278.892 97.962,272.866 96.976,267.464 C95.01,256.704 94.62,245.473 91.841,234.881 C89.401,225.575 75.548,233.112 73.417,238.633 C68.272,251.965 64.367,265.738 59.769,279.247 C58.456,283.101 57.296,286.972 56.078,290.368 C55.247,292.684 54.316,294.961 53.308,297.206 C52.829,298.274 52.29,299.312 51.745,300.347 C50.121,303.425 52.782,298.953 50.912,301.607 C49.099,304.176 52.545,300.263 50.424,302.209 C50.666,301.987 53.91,300.595 51.915,301.23 C53.232,300.811 54.246,300.823 55.519,301.349 C53.88,300.671 56.766,302.701 55.529,301.303 C54.209,299.814 56.277,302.941 55.375,300.955 C55.063,300.27 54.861,299.536 54.653,298.816 C53.94,296.348 54.874,300.453 54.472,297.747 C54.339,296.847 54.277,295.937 54.21,295.031 C53.894,290.729 54.097,288.756 54.622,285.169 C54.86,283.548 55.206,281.946 55.619,280.362 C56.236,277.996 54.821,282.354 55.602,280.332 C55.787,279.855 56.024,279.408 56.276,278.965 C50.508,280.857 44.74,282.749 38.971,284.641 C44.095,291.212 41.924,302.752 41.879,310.491 C48.519,308.363 55.157,306.234 61.797,304.106 C61.799,297.48 62.1,289.494 62.616,283.924 C63.056,279.165 63.715,274.419 64.758,269.753 C64.957,268.86 65.196,267.979 65.438,267.098 C65.905,265.398 64.935,268.148 65.94,265.659 C66.21,264.994 66.539,264.357 66.875,263.724 C65.973,265.142 65.839,265.404 66.475,264.51 C65.054,265.923 64.765,266.248 65.609,265.487 C63.08,267.709 60.164,268.37 56.976,267.162 C55.853,266.15 55.627,265.989 56.301,266.68 C56.818,267.388 56.784,267.271 56.204,266.328 C57.224,268.043 57.882,269.992 58.534,271.866 C60.141,276.482 61.237,281.291 62.267,286.062 C62.58,287.507 63.357,291.917 63.763,294.559 C64.206,297.439 64.524,300.321 64.631,303.234 C64.662,304.099 64.645,305.093 64.535,305.937 C64.311,307.673 62.889,308.776 65.431,306.138 C69.994,305.769 74.558,305.399 79.12,305.029 C73.843,300.425 73.194,291.585 72.615,284.183 C71.911,275.177 72.365,266.128 71.743,257.122 C71.453,252.92 67.936,250.448 63.877,250.777 C58.185,251.239 53.626,255.777 52.132,261.084 C49.183,271.569 48.511,282.503 47.329,293.284 C46.22,303.405 45.095,315.03 39.408,323.782 C44.072,322.233 48.735,320.684 53.399,319.135 C44.939,312.79 43.403,297.775 43.721,288.129 C37.131,290.241 30.541,292.355 23.951,294.467 C23.947,297.442 23.859,300.182 23.157,303.082 C29.677,301.765 36.196,300.448 42.716,299.131 C42.276,294.143 42.214,289.15 42.169,284.146 C36.144,287.608 30.118,291.07 24.093,294.533 C25.677,296.487 27.083,298.263 28.034,300.6 C32.362,311.238 47.202,300.337 47.088,292.171 C46.958,282.843 45.877,273.328 47.141,264.044 C41.02,266.017 34.899,267.989 28.777,269.962 C30.445,273.688 30.786,277.292 30.839,281.343 C30.99,292.869 48.532,285.775 49.642,277.544 C50.007,274.839 50.183,272.117 50.282,269.391 C50.341,267.773 50.041,264.605 50.965,263.151 C45.936,264.196 40.905,265.241 35.875,266.286 C36.5,267.02 37.569,269.266 37.139,269.908 C42.403,271.738 47.666,273.57 52.93,275.401 C53.54,273.867 54.18,272.355 54.883,270.861 C56.054,268.374 55.159,270.548 52.065,271.078 C50.997,271.261 52.383,271.525 51.836,271.032 C52.913,272.005 53.8,273.199 54.818,274.233 C60.976,280.48 69.41,278.833 75.808,274.005 C85.243,266.886 86.391,249.3 84.813,238.6 C82.872,225.438 64.875,235.024 64.862,244.996 C64.862,245.329 64.861,245.663 64.861,245.996 C64.846,257.36 81.148,251.181 83.772,244.464 C85.941,238.911 86.463,233.17 88.129,227.505 C81.687,229.58 75.245,231.656 68.803,233.732 C69.677,235.679 70.023,237.337 70.168,239.455 C70.279,241.069 69.166,242.687 70.885,241.086 C75.488,240.713 80.089,240.341 84.692,239.968 C82.673,237.674 82.623,234.337 82.295,231.436 C81.836,227.381 81.35,223.211 79.786,219.414 C76.154,210.593 64.224,217.226 61.467,223.145 C59.272,227.857 58.847,232.761 58.758,237.894 C58.723,239.926 58.857,242.037 58.645,244.037 C58.664,243.858 57.877,247.323 58.383,245.955 C58.559,245.482 60.584,244.003 58.458,245.669 C62.999,245.302 67.541,244.934 72.082,244.565 C69.554,241.751 68.842,237.893 67.894,234.304 C66.764,230.027 65.217,226.17 62.532,222.61 C58.003,216.605 47.559,222.87 45.587,228.168 C42.188,237.296 44.566,247.253 42.81,256.284 C42.252,259.154 43.511,255.055 42.444,257.526 C43.566,254.93 48.175,253.768 50.091,253.868 C48.428,253.781 50.702,254.299 48.994,253.354 C48.036,252.823 47.356,252.143 46.509,251.333 C43.491,248.442 40.815,245.152 39.567,241.54 C35.828,246.393 32.088,251.245 28.347,256.098 C37.563,255.365 43.684,248.465 45.661,239.83 C45.924,238.683 46.095,237.515 46.357,236.365 C45.056,238.841 45.038,239.142 46.303,237.269 C46.497,236.726 46.889,236.316 47.475,236.038 C50.847,232.769 54.75,230.098 58.141,226.842 C53.949,223.518 49.757,220.194 45.566,216.869 C45.349,217.151 42.278,221.798 43.565,219.868 C41.43,223.066 39.785,227.595 42.712,230.931 C45.486,234.093 50.527,233.487 53.791,231.523 C64.521,225.069 71.005,215.082 77.03,204.421 C70.897,204.918 64.764,205.415 58.632,205.911 C58.709,215.519 68.988,221.518 75.038,227.519 C79.434,231.88 83.465,235.899 88.853,239.114 C94.333,242.384 100.356,244.723 106.038,247.616 C114.357,251.852 125.749,240.266 120.305,232.308 C116.644,226.957 110.312,225.75 104.239,226.544 C101.874,226.853 99.551,227.467 97.192,227.826 C94.903,228.176 95.027,228.485 93.713,226.888 C89.686,232.165 85.659,237.443 81.632,242.721 C88.964,243.982 94.454,250.924 98.548,256.634 C103.197,251.645 107.848,246.655 112.498,241.665 C105.555,238.04 99.81,232.726 93.439,228.243 C89.372,233.612 85.303,238.983 81.236,244.352 C95.498,252.801 112.693,253.554 128.805,253.946 C135.44,254.104 142.492,240.729 133.67,239.727 L133.67,239.727 Z" id="Shape"></path>
                    <path d="M46.916,247.46 C47.22,246.596 47.501,245.975 47.444,245.043 C47.38,243.98 46.782,243.003 45.802,242.547 C43.247,241.358 40.239,243.223 39.131,245.578 C38.559,246.794 38.43,248.365 39.375,249.442 C40.322,250.521 41.895,250.593 43.175,250.187 C43.235,250.166 43.294,250.148 43.356,250.134 C42.998,250.206 42.639,250.279 42.281,250.351 C42.303,250.348 42.327,250.345 42.349,250.341 C42.011,250.325 41.674,250.31 41.336,250.294 C41.355,250.296 41.373,250.298 41.393,250.299 C41.094,250.195 40.794,250.091 40.496,249.987 C40.512,249.993 40.526,249.999 40.542,250.006 C40.3,249.813 40.057,249.62 39.814,249.427 C39.844,249.448 39.869,249.474 39.887,249.506 C39.729,249.243 39.571,248.98 39.412,248.717 C39.457,248.797 39.494,248.879 39.531,248.963 C40.073,250.172 41.217,250.734 42.517,250.629 C43.244,250.559 43.923,250.34 44.556,249.973 C45.479,249.448 46.551,248.499 46.916,247.46 L46.916,247.46 Z" id="Shape"></path>
                    <path d="M177.44,261.326 C203.859,266.772 232.074,275.241 258.276,263.843 C262.146,262.159 265.573,259.458 266.508,255.092 C267.187,251.923 265.581,247.624 261.802,247.39 C238.969,245.974 217.735,254.421 195.901,259.677 C187.866,261.611 183.068,277.644 194.503,276.37 C223.65,273.128 252.388,266.059 280.295,257.174 C284.363,255.879 287.96,252.293 288.866,248.063 C289.917,243.158 286.497,239.819 281.738,239.941 C273.736,240.145 265.917,243.299 258.717,246.504 C250.972,249.952 242.437,255.641 239.064,263.75 C237.363,267.84 238.042,273.149 243.203,274.074 C254.937,276.176 266.434,270.151 275.894,263.845 C281.498,260.11 286.818,255.95 292.057,251.726 C294.292,249.924 296.511,248.104 298.749,246.305 C299.61,245.614 300.478,244.932 301.349,244.253 C301.66,244.011 304.97,241.61 303.072,242.935 C300.527,238.693 297.983,234.45 295.438,230.206 C286.676,238.744 276.009,244.572 270.893,256.311 C268.833,261.038 270.967,267.068 277.013,266.323 C287.423,265.042 295.988,259.374 303.71,252.584 C310.626,246.502 317.087,238.351 324.502,233.753 C322.023,229.618 319.542,225.483 317.063,221.349 C315.566,222.853 314.07,224.357 312.572,225.86 C309.675,228.771 306.696,233.904 310.034,237.708 C313.226,241.346 319.043,239.463 322.111,236.729 C329.623,230.036 338.712,223.556 342.154,213.658 C345.218,204.847 336.584,202.336 330.375,207.204 C307.29,225.301 297.148,253.631 276.655,273.885 C281.214,276.383 285.773,278.881 290.332,281.378 C292.075,276.783 295.652,273.116 298.607,269.149 C302.394,264.061 304.673,258.797 305.149,252.472 C305.536,247.34 299.519,246.389 295.908,247.284 C285.138,249.951 276.957,258.614 269.291,266.075 C259.521,275.583 248.797,284.191 238.837,293.522 C243.189,296.973 247.541,300.425 251.893,303.876 C261.047,292.398 271.133,281.701 279.768,269.809 C285.098,262.469 280.727,254.973 271.854,256.793 C262.202,258.773 253.18,263.38 244.443,267.786 C236.419,271.834 228.202,276.053 218.993,275.76 C220.888,280.517 222.783,285.274 224.679,290.03 C226.678,287.884 231.819,285.283 235.632,283.414 C240.397,281.078 245.318,279.083 250.041,276.66 C254.144,274.556 257.592,269.652 257.341,264.931 C257.116,260.711 253.231,257.544 249.005,258.207 C233.055,260.709 218.073,266.281 203.612,273.35 C199.451,275.384 195.992,280.494 196.242,285.195 C196.475,289.584 200.378,292.486 204.659,291.984 C209.452,291.423 214.001,289.722 218.552,288.218 C221.177,287.352 223.819,286.562 226.512,285.937 C224.645,286.371 227.793,285.88 227.9,285.871 C229.063,285.766 228.501,286.151 227.714,285.748 C226.681,285.221 226.375,284.453 226.213,283.369 C226.544,285.585 226.626,281.668 226.035,284.139 C226.559,281.942 225.606,285.032 225.483,285.303 C224.874,286.658 224.174,287.976 223.465,289.282 C221.09,293.653 218.43,297.747 216.852,302.495 C217.54,301.042 218.227,299.588 218.914,298.134 C218.808,298.306 218.7,298.478 218.594,298.651 C216.409,302.167 214.714,307.642 219.38,310.17 C223.532,312.417 229.741,309.731 232.092,305.946 C230.045,309.24 233.24,304.579 234.017,303.708 C234.898,302.718 235.792,301.738 236.678,300.752 C239.365,297.757 241.387,294.246 243.46,290.818 C247.085,284.828 249.591,276.251 245.23,270.033 C240.762,263.662 231.924,265.101 225.458,266.478 C221.988,267.217 218.613,268.449 215.264,269.596 C213.881,270.07 212.498,270.539 211.109,270.99 C210.502,271.184 209.891,271.368 209.278,271.541 C206.547,272.337 211.318,271.322 209.028,271.611 C209.377,277.822 209.725,284.033 210.075,290.245 C220.951,284.817 232.636,280.313 244.682,278.388 C244.336,272.237 243.991,266.086 243.646,259.935 C231.108,266.41 218.844,270.947 209.008,281.565 C203.487,287.524 206.989,295.614 214.694,295.835 C236.422,296.456 252.661,279.492 272.833,274.802 C270.194,270.463 267.557,266.124 264.919,261.786 C256.567,273.903 245.86,284.161 236.794,295.719 C234.352,298.832 233.017,303.906 235.909,307.202 C239.52,311.317 246.413,309.345 249.849,306.073 C258.909,297.448 267.831,288.68 276.961,280.132 C280.221,277.079 283.117,273.63 286.254,270.453 C288.216,268.466 291.596,264.304 294.53,263.765 C292.258,261.176 289.986,258.587 287.715,255.999 C287.202,259.626 284.56,262.103 282.176,264.834 C278.636,268.89 275.263,273.118 273.354,278.217 C272.049,281.701 271.719,286.018 275.559,288.097 C279.159,290.046 284.277,288.454 287.031,285.71 C307.488,265.331 317.242,236.168 339.311,217.391 C335.156,215.91 331,214.429 326.844,212.949 C326.136,215.316 322.872,217.455 321.098,218.921 C318.27,221.258 315.328,223.436 312.575,225.866 C315.755,229.489 318.934,233.112 322.114,236.735 C323.616,235.238 325.12,233.742 326.623,232.246 C329.226,229.654 331.644,225.884 330.175,222.053 C328.464,217.586 322.656,217.711 319.184,219.842 C311.651,224.468 305.511,230.718 299.203,236.825 C294.133,241.734 288.041,248.4 280.674,249.271 C282.714,252.608 284.754,255.945 286.794,259.283 C290.282,251.38 299.216,247.174 305.249,241.388 C307.959,238.788 310.383,234.812 308.895,230.927 C307.194,226.489 301.084,226.279 297.616,228.659 C289.321,234.35 281.758,241.01 273.678,246.991 C267.163,251.815 258.477,257.761 251.485,256.519 C252.864,259.96 254.244,263.402 255.624,266.843 C256.597,264.493 254.32,268.321 256.037,266.08 C254.82,267.669 257.567,264.885 258,264.551 C256.677,265.572 260.018,263.409 259.79,263.543 C261.261,262.678 262.804,261.939 264.346,261.214 C268.902,259.068 273.65,257.77 277.95,257.652 C278.431,251.908 278.912,246.163 279.393,240.419 C252.886,248.9 225.892,256.077 198.185,259.223 C197.719,264.787 197.253,270.352 196.787,275.916 C215.361,271.403 234.428,263.044 253.886,264.203 C255.062,258.719 256.237,253.234 257.412,247.75 C245.562,252.935 232.563,253.043 219.845,253.242 C206.642,253.449 193.429,252.993 180.222,253.22 C176.503,253.278 172.348,260.276 177.44,261.326 L177.44,261.326 Z" id="Shape"></path>
                    <path d="M29.391,322.127 C20.635,330.481 14.311,344.136 16.559,356.42 C18.143,365.076 29.316,363.58 33.258,357.231 C38.249,349.194 41.953,340.664 46.126,332.185 C40.182,331.077 34.238,329.967 28.294,328.859 C23.57,339.631 19.06,354.419 26.452,364.957 C30.447,370.651 39.106,365.309 42.161,361.693 C52.912,348.97 60.386,331.331 62.935,314.923 C63.718,309.883 60.66,305.781 55.293,306.216 C49.819,306.659 44.796,311.178 43.583,316.491 C40.188,331.363 29.113,347.614 36.413,363.061 C40.073,370.807 49.139,366.181 53.276,361.695 C66.802,347.029 74.317,326.395 79.682,307.507 C82.439,297.805 69.537,297.126 64.475,302.088 C56.143,310.256 51.619,321.107 48.129,332.047 C44.902,342.163 42.466,354.654 46.231,364.944 C48.62,371.473 57.271,369.151 61.174,365.739 C76.761,352.109 83.936,328.306 88.254,308.747 C89.119,304.826 87.112,300.903 82.994,300.14 C78.248,299.259 74.098,302.156 71.146,305.522 C63.943,313.734 60.301,325.96 57.623,336.289 C55.114,345.961 52.486,359.445 59.16,368.047 C62.485,372.333 69.642,369.938 72.868,366.938 C88.586,352.312 94.801,327.114 95.89,306.355 C96.181,300.808 89.643,299.184 85.484,300.513 C79.957,302.281 76.475,307.082 76.056,312.712 C76.253,310.06 76.015,312.511 75.94,312.997 C75.77,314.098 75.532,315.189 75.299,316.278 C74.729,318.942 74.038,321.582 73.365,324.221 C71.907,329.946 70.442,335.666 69.334,341.472 C67.338,351.915 65.745,364.646 75.05,371.952 C80.359,376.121 88.282,369.182 90.571,364.899 C98.981,349.154 104.077,330.814 105.646,313.059 C106.095,307.977 103.603,303.78 97.909,304.242 C92.299,304.696 87.372,309.273 86.052,314.647 C83.865,323.548 81.029,332.262 79.301,341.278 C77.585,350.23 76.49,360.857 80.753,369.292 C84.021,375.755 91.082,373.458 95.767,370.089 C104.775,363.61 108.584,351.335 111.23,341.121 C113.814,331.137 115.088,320.831 116.145,310.591 C117.576,296.72 97.834,301.494 96.542,312.179 C95.222,323.101 93.34,333.893 92.435,344.875 C91.731,353.419 89.504,372.978 101.804,374.719 C117.725,376.973 121.503,354.988 123.611,343.917 C125.715,332.864 126.632,321.61 128.729,310.571 C122.036,311.113 115.343,311.656 108.65,312.198 C106.971,322.524 104.758,332.625 104.062,343.099 C103.373,353.483 104.82,365.555 114.398,371.542 C119.045,374.447 126.109,370.717 128.81,366.754 C140.301,349.9 141.142,328.959 143.399,309.348 C145.008,295.359 124.936,300.172 123.609,310.952 C121.179,330.687 114.248,354.468 127.516,371.891 C132.582,378.544 142.312,371.061 145.007,366.155 C154.921,348.104 154.95,326.081 158.354,306.251 C159.251,301.02 155.93,296.773 150.428,297.219 C144.728,297.681 139.573,302.368 138.283,307.876 C133.725,327.349 129.177,354.437 142.878,371.336 C148.06,377.727 157.874,370.837 160.513,365.552 C164.964,356.635 165.504,346.614 167.232,336.97 C169.237,325.773 173.332,315.057 174.957,303.787 C168.24,305.143 161.524,306.501 154.808,307.857 C153.854,329.423 147.646,353.924 161.895,372.675 C167.828,380.483 178.856,370.334 180.646,364.269 C186.875,343.167 187.425,321.054 191.004,299.465 C191.864,294.27 188.619,290.049 183.131,290.493 C177.37,290.96 172.483,295.618 171.067,301.08 C165.596,322.199 166.089,348.058 174.919,368.216 C179.324,378.275 193.288,369.402 194.827,361.801 C197.341,349.396 197.175,336.74 197.511,324.149 C197.808,313.087 198.327,300.311 204.486,290.692 C198.733,290.413 192.979,290.133 187.226,289.854 C189.165,312.131 186.523,334.543 190.39,356.694 C192.334,367.835 206.879,363.085 210.103,355.096 C214.475,344.261 213.845,332.885 214.597,321.445 C215.414,309.008 219.422,296.824 221.847,284.653 C215.148,286.007 208.448,287.36 201.747,288.714 C202.371,312.454 190.058,338.798 205.006,360.418 C206.943,363.218 211.456,363.132 214.267,362.233 C219.242,360.642 222.417,356.715 223.974,351.914 C231.38,329.081 233.982,305.046 241.224,282.164 C234.362,283.55 227.499,284.936 220.638,286.323 C219.963,303.046 216.658,319.536 216.229,336.288 C216.111,340.92 216.998,345.497 217.582,350.077 C217.884,352.443 218.106,354.815 218.228,357.196 C218.283,358.254 218.26,359.309 218.224,360.366 C218.302,359.379 218.26,359.411 218.098,360.463 C218.36,359.468 218.789,358.55 219.386,357.706 C216.264,361.538 215.22,368.514 220.312,371.27 C225.625,374.146 231.933,370.407 235.281,366.297 C242.811,357.055 238.266,343.439 237.29,332.841 C236.572,325.045 237.894,316.787 238.754,309.047 C239.842,299.267 241.004,289.491 241.436,279.654 C241.631,275.215 237.057,272.68 233.179,272.995 C227.052,273.491 222.625,278.268 220.85,283.813 C213.534,306.673 210.686,330.661 203.534,353.569 C209.856,350.734 216.179,347.9 222.502,345.065 C216.986,337.312 217.793,325.992 218.657,317.033 C219.773,305.455 222.22,293.874 222.055,282.203 C221.993,277.876 217.972,275.378 213.992,275.7 C208.433,276.15 203.109,280.798 201.955,286.263 C199.389,298.413 195.761,310.332 194.328,322.701 C193.268,331.844 194.803,342.926 191.476,351.623 C198.047,351.09 204.619,350.558 211.189,350.025 C206.884,328.134 208.464,305.68 206.947,283.531 C206.285,273.853 193.444,277.019 189.687,282.693 C173.358,307.354 179.783,335.978 174.654,363.435 C181.29,361.296 187.925,359.158 194.562,357.02 C186.496,339.449 185.978,317.957 191.005,299.464 C184.359,300.002 177.714,300.541 171.067,301.079 C167.223,322.632 166.64,344.808 160.438,365.904 C166.688,363.102 172.938,360.3 179.189,357.498 C173.608,350.175 173.187,340.585 173.199,331.736 C173.213,321.569 174.788,311.479 175.165,301.33 C175.326,296.984 170.901,294.502 167.083,294.811 C161.81,295.238 155.767,299.918 155.017,305.4 C153.543,316.151 149.928,326.565 147.589,337.15 C145.776,345.357 146.11,354.52 142.299,362.153 C148.177,360.225 154.055,358.297 159.933,356.369 C154.782,350.015 154.425,340.985 154.479,333.122 C154.541,324.081 156.262,315.015 158.356,306.249 C151.666,306.79 144.976,307.333 138.286,307.874 C136.584,317.527 135.545,327.284 134.078,336.974 C132.743,345.784 131.194,354.859 126.941,362.785 C132.771,360.873 138.602,358.961 144.432,357.049 C139.531,350.777 139.542,342.379 139.912,334.787 C140.328,326.246 142.318,317.815 143.4,309.348 C136.803,309.882 130.207,310.417 123.61,310.952 C121.81,325.979 121.77,346.434 113.506,358.483 C118.311,356.887 123.115,355.291 127.919,353.695 C125.775,352.344 128.832,354.792 127.092,352.986 C126.972,352.862 125.611,350.694 126.344,352.061 C125.905,351.243 125.608,350.352 125.305,349.477 C125.365,349.65 124.661,346.674 124.868,347.851 C124.16,343.826 124.234,339.272 124.597,335.399 C125.383,327.025 127.369,318.854 128.729,310.571 C129.587,305.339 126.333,301.087 120.8,301.536 C115.268,301.983 109.707,306.678 108.65,312.198 C107.006,320.778 106.257,329.557 104.893,338.188 C104.042,343.569 103.08,348.936 101.837,354.242 C101.573,355.367 101.277,356.484 100.972,357.598 C100.816,358.164 99.679,361.5 100.694,358.654 C100.423,359.415 100.099,360.153 99.751,360.881 C99.206,361.897 99.454,361.505 100.495,359.708 C101.44,358.267 106.993,354.926 110.513,355.406 C111.456,355.535 113.838,357.801 112.646,356.241 C114.202,358.278 113.075,356.796 112.773,355.87 C112.381,354.67 112.947,357.411 112.579,354.903 C112.428,353.87 112.359,352.824 112.292,351.783 C111.972,346.875 112.395,340.445 112.743,336.683 C113.554,327.936 115.134,319.306 116.146,310.59 C109.612,311.119 103.078,311.649 96.543,312.178 C95.697,320.774 94.539,329.34 92.772,337.799 C91.839,342.262 90.636,346.897 89.222,350.551 C88.825,351.576 88.368,352.575 87.907,353.572 C87.829,353.74 86.187,356.749 87.409,354.746 C86.927,355.537 86.363,356.269 85.793,356.998 C87.542,354.767 85.517,357.117 84.822,357.617 C89.827,357.883 94.831,358.148 99.836,358.414 C96.46,351.736 98.02,343.898 99.454,336.891 C101.101,328.84 103.711,321.036 105.647,313.059 C99.116,313.588 92.584,314.118 86.052,314.647 C84.648,330.823 80.384,347.204 72.734,361.573 C77.908,359.221 83.082,356.871 88.255,354.52 C90.256,356.086 87.685,353.179 88.931,355.267 C88.55,354.629 88.319,353.906 88.082,353.206 C87.306,350.911 88.233,354.754 87.902,352.157 C87.743,350.91 87.748,349.642 87.754,348.388 C87.774,344.293 88.956,338.825 90.017,334.053 C92.064,324.845 95.195,315.801 95.89,306.352 C89.279,308.471 82.667,310.59 76.056,312.709 C75.706,319.474 73.74,328.237 71.56,335.589 C70.401,339.499 68.844,343.275 67.092,346.954 C66.226,348.772 65.573,349.952 64.892,351.001 C64.277,351.949 63.584,352.842 62.888,353.73 C60.79,356.404 64.388,352.412 62.041,354.597 C66.61,354.228 71.18,353.857 75.749,353.488 C74.476,351.849 76.461,355.164 75.56,353.111 C75.458,352.879 74.896,350.616 75.221,352.34 C74.88,350.53 74.887,348.655 74.921,346.822 C74.985,343.338 76.192,337.79 77.29,333.548 C78.435,329.12 79.589,325.865 81.4,321.604 C82.182,319.762 83.069,317.969 84.014,316.208 C85.413,313.603 82.843,317.938 84.317,315.693 C84.816,314.932 85.384,314.225 85.985,313.543 C80.283,312.468 74.581,311.393 68.878,310.317 C67.12,318.196 64.769,325.913 61.801,333.419 C60.11,337.698 58.155,341.867 55.949,345.903 C55.253,347.177 54.47,348.339 53.364,349.885 C52.7,350.817 51.965,351.693 51.225,352.565 C52.704,350.823 50.488,353.143 50.278,353.325 C55.259,353.591 60.241,353.854 65.221,354.12 C63.213,348.587 65.049,339.782 66.891,333.012 C68.024,328.843 69.64,324.851 71.491,320.952 C71.837,320.239 72.194,319.532 72.565,318.831 C72.557,318.849 74.447,315.638 73.355,317.375 C73.926,316.466 77.538,312.384 75.372,314.508 C70.304,312.701 65.234,310.895 60.166,309.089 C55.72,324.738 49.594,341.507 38.424,353.667 C44.045,353.212 49.666,352.757 55.287,352.301 C52.636,346.728 54.479,340.845 56.201,335.222 C58.288,328.404 61.34,321.897 62.932,314.922 C56.481,315.444 50.032,315.968 43.58,316.49 C41.534,329.663 36.01,343.468 27.317,353.67 C32.553,352.582 37.79,351.494 43.026,350.406 C40.167,346.283 44.191,336.535 46.122,332.183 C48.076,327.779 47.129,322.077 41.664,321.063 C36.119,320.035 30.649,324.115 28.29,328.857 C24.531,336.415 21.033,344.091 17.552,351.766 C23.433,350.569 29.314,349.371 35.196,348.173 C33.041,342.077 35.094,334.715 39.148,329.867 C45.268,322.555 35.625,316.18 29.391,322.127 L29.391,322.127 Z" id="Shape"></path>
                    <path d="M246.678,286.416 C238.422,295.234 236.584,307.829 235.577,319.437 C234.524,331.574 234.208,344.066 235.814,356.185 C237.2,366.632 252.437,360.651 253.24,352.664 C255.375,331.424 253.021,309.428 252.371,288.137 C252.254,284.311 248.805,282.091 245.233,282.38 C240.066,282.799 235.936,286.916 234.578,291.731 C231.455,302.796 229.528,314.175 228.642,325.63 C227.858,335.762 227.901,350.25 236.484,357.413 C241.715,361.779 247.902,358.76 251.896,354.211 C260.533,344.378 261.323,330.82 263.878,318.608 C266.651,305.352 270.442,291.661 276.889,279.697 C270.669,280.201 264.45,280.705 258.23,281.209 C258.039,285.099 256.368,291.318 255.071,296.028 C253.378,302.177 251.529,308.278 250.049,314.484 C247.135,326.706 245.715,340.23 253.286,351.047 C258.117,357.948 268.62,350.122 271.103,345.203 C276.464,334.586 276.297,322.501 278.353,311.041 C280.847,297.139 286.835,283.962 290.835,270.47 C284.234,271.803 277.634,273.137 271.034,274.471 C271.109,273.435 270.723,276.805 270.663,277.214 C270.442,278.73 270.143,280.233 269.846,281.735 C269.189,285.042 268.37,288.317 267.556,291.588 C265.786,298.696 263.923,305.781 262.445,312.958 C259.593,326.804 258.242,342.523 267.17,354.485 C272.088,361.075 281.748,353.623 284.36,348.846 C291.136,336.457 291.929,321.908 294.511,308.3 C297.493,292.578 304.4,277.867 306.082,261.844 C299.606,263.152 293.131,264.46 286.655,265.768 C285.637,279.235 280.844,292.424 277.933,305.553 C274.898,319.244 273.475,333.475 277.676,347.069 C280.514,356.256 293.867,349.012 296.158,343.304 C302.114,328.467 302.638,312.575 305.568,297.035 C307.162,288.582 310.293,280.464 313.017,272.328 C315.861,263.834 318.823,255.381 321.927,246.978 C323.556,242.57 323.144,237.05 317.531,236.009 C311.959,234.976 306.805,239.067 304.34,243.697 C295.956,259.44 289.995,277.46 290.206,295.446 C290.256,299.693 294.221,302.144 298.119,301.828 C304.056,301.348 308.142,296.762 309.933,291.461 C315.079,276.224 321.45,261.639 322.16,245.334 C322.588,235.497 308.574,239.59 305.28,244.514 C298.58,254.532 293.427,264.588 289.666,276.053 C285.832,287.739 284.217,299.963 283.249,312.178 C281.383,335.72 283.889,359.29 287.622,382.521 C294.187,379.618 300.752,376.713 307.316,373.809 C300.756,345.379 303.357,315.62 311.392,287.789 C305.081,289.063 298.77,290.339 292.459,291.613 C293.472,310.509 288.116,329.027 287.33,347.861 C286.556,366.432 289.875,386.252 295.485,403.91 C301.9,400.253 308.316,396.597 314.731,392.939 C307.077,371.41 305.155,348.878 304.967,326.168 C298.477,328.249 291.987,330.329 285.496,332.41 C285.809,349.5 287.495,366.118 291,382.859 C292.465,389.859 294.565,396.402 297.005,403.102 C298.77,407.95 301.302,414.248 300.17,418.977 C305.69,415.77 311.209,412.562 316.73,409.355 C313.029,406.722 311.086,400.539 309.58,396.166 C307.691,390.683 306.116,385.028 304.511,379.455 C299.789,363.052 296.19,346.336 289.423,330.594 C285.362,321.148 270.732,328.997 269.916,336.88 C266.9,366.013 276.269,393.234 284.923,420.615 C290.993,416.281 297.063,411.949 303.132,407.616 C295.179,396.081 289.533,383.119 284.901,369.943 C280.115,356.332 276.236,342.267 274.316,327.951 C273.598,322.596 268.808,320.515 263.878,322.092 C258.567,323.79 254.515,328.719 254.421,334.33 C253.943,362.832 267.394,388.976 268.75,417.201 C275.143,413.527 281.536,409.854 287.929,406.181 C273.259,382.174 272.668,352.792 266.222,326.126 C265.436,322.875 261.362,321.569 258.476,321.804 C253.906,322.174 248.722,325.637 247.069,330.028 C241.228,345.53 242.412,360.613 246.209,376.447 C249.609,390.629 255.223,404.349 255.691,419.084 C262.143,415.377 268.595,411.67 275.047,407.963 C261.098,385.075 255.097,358.215 250.939,332.05 C248.712,318.039 229.629,328.201 229.65,338.874 C229.678,353.059 229.413,367.607 231.803,381.638 C233.71,392.831 239.405,405.056 237.347,416.548 C243.134,413.186 248.921,409.822 254.708,406.459 C254.162,406.115 253.032,404.932 251.804,403.269 C250.533,401.545 249.521,399.152 248.561,396.96 C246.376,391.972 244.781,386.726 243.193,381.525 C241.394,375.633 239.464,369.8 238.048,363.799 C236.111,355.589 235.108,347.157 233.562,338.868 C231.148,325.915 214.902,334.065 212.673,343.089 C206.502,368.069 214.72,392.216 222.195,415.894 C224.994,424.759 236.508,418.626 240.193,414.436 C240.301,414.313 240.411,414.189 240.519,414.066 C238.95,415.443 237.381,416.82 235.812,418.197 C233.604,419.218 238.276,417.259 239.19,416.715 C243.243,414.304 246.797,409.881 246.534,404.915 C246.299,400.484 242.418,397.729 238.147,398.15 C230.276,398.927 223.972,402.7 217.774,407.338 C215.256,409.222 212.894,411.317 210.439,413.282 C209.321,414.178 207.215,415.51 205.822,415.973 C209.354,417.261 212.887,418.55 216.421,419.839 C210.594,409.782 210.047,398.105 207.965,386.93 C206.672,379.988 204.777,373.291 203.881,366.264 C202.954,358.995 202.479,351.679 201.486,344.415 C200.71,338.726 195.641,336.507 190.389,338.186 C184.686,340.01 180.514,345.22 180.335,351.197 C179.941,364.313 182.365,377.691 185.525,390.364 C188.476,402.198 193.367,417.528 204.88,423.735 C211.554,427.333 221.278,420.607 222.266,413.632 C226.03,387.048 221.374,360.551 221.25,333.918 C221.223,328.045 214.83,326.182 210.141,327.681 C204.555,329.467 200.083,334.747 200.075,340.705 C200.036,367.128 198.687,394.108 209.215,418.988 C211.018,423.248 215.76,424.16 219.826,422.859 C225.601,421.013 229.606,415.836 229.883,409.845 C230.134,404.399 228.167,398.532 226.881,393.313 C224.869,385.147 222.428,377.08 219.761,369.105 C217.199,361.445 214.387,353.811 210.814,346.558 C207.901,340.644 204.807,335.093 198.306,332.889 C189.707,329.974 180.897,339.854 177.828,346.602 C174.359,354.229 173.648,362.883 173.057,371.121 C171.912,387.08 172.595,403.939 176.196,419.572 C176.44,420.629 176.74,421.672 177.135,422.681 C181.399,433.581 199.324,422.913 197.766,413.556 C193.834,389.968 193.996,365.671 186.776,342.686 C183.792,333.185 169.517,340.395 167.264,346.661 C157.533,373.732 165.734,402.098 174.664,428.238 C176.155,432.601 181.442,433.323 185.258,432.103 C191.086,430.24 194.937,425.1 195.298,419.111 C196.454,399.98 190.299,380.169 183.709,362.428 C179.804,351.913 164.49,361.349 163.27,369.014 C160.045,389.253 167.081,408.709 173.41,427.631 C177.264,439.154 194.714,427.454 194.086,418.485 C193.358,408.096 192.032,397.626 188.665,387.727 C187.549,384.448 183.941,383.048 180.746,383.307 C175.417,383.739 171.686,387.385 169.084,391.714 C162.151,403.242 164.968,420.546 169.077,432.575 C170.483,436.692 176.001,438.026 179.705,436.453 C188.41,432.753 198.457,431.74 207.594,429.467 C219.16,426.589 231.667,422.673 239.69,413.341 C249.212,402.266 243.98,383.56 227.863,384.263 C218.823,384.658 211.637,392.268 207.931,399.844 C204.472,406.916 204.044,415.092 202.734,422.72 C209.167,419.836 215.6,416.951 222.033,414.068 C215.83,404.343 206.164,395.821 193.769,399.235 C187.448,400.976 181.627,406.34 180.619,413.021 C179.654,419.402 183.221,425.081 187.751,429.256 C207.397,447.361 235.029,420.108 233.025,398.716 C231.82,385.856 213.189,393.602 211.978,402.968 C210.462,414.691 214.707,428.451 225.217,434.891 C230.852,438.342 239.806,432.902 241.794,427.358 C243.767,421.856 243.819,416.851 244.544,411.157 C238.097,414.048 231.649,416.938 225.202,419.829 C229.443,424.971 232.043,431.257 236.927,435.881 C243.607,442.204 254.804,435.044 256.277,427.206 C257.709,419.587 256.951,412.491 255.388,404.979 C249.028,409.519 242.667,414.059 236.307,418.6 C239.973,423.372 241.81,428.819 247.431,431.815 C255.874,436.315 264.497,426.783 265.141,419.082 C264.904,421.925 259.703,426.278 255.766,425.802 C256.778,426.071 256.861,426.05 256.013,425.739 C256.614,425.973 257.204,426.229 257.785,426.508 C260.385,427.693 262.794,429.273 265.329,430.585 C271.266,433.655 279.694,428.892 281.933,423.04 C282.987,420.668 282.461,421.136 280.357,424.444 C278.588,425.46 276.821,426.476 275.052,427.493 C275.237,427.448 275.421,427.402 275.606,427.357 C273.84,427.5 272.075,427.643 270.309,427.786 C267.778,426.009 267.141,425.753 268.397,427.016 C268.272,426.876 269.972,429.34 269.416,428.404 C270.672,430.517 271.841,432.699 273.334,434.657 C279.096,442.208 291.586,432.814 292.709,425.97 C293.386,421.849 293.538,417.692 293.546,413.523 C287.015,417.276 280.483,421.029 273.95,424.782 C276.905,427.507 280.089,429.573 283.647,431.397 C285.739,432.469 288.86,433.545 289.999,435.701 C296.199,447.442 312.908,434.612 310.341,424.105 C310.024,422.804 310.222,420.623 310.218,419.077 C303.683,422.832 297.148,426.587 290.613,430.343 C293.717,432.962 296.877,434.438 300.507,436.152 C306.631,439.045 314.701,434.585 317.131,428.598 C318.125,426.148 319.014,423.672 319.265,421.032 C313.424,424.427 307.582,427.82 301.742,431.215 C302.241,431.409 302.645,431.736 302.956,432.197 C309.731,438.781 324.345,430.055 322.569,420.928 C320.145,408.468 310.08,401.024 301.096,393.037 C296.633,389.069 290.53,390.53 286.307,394.235 C282.964,397.169 278.75,404.79 283.198,408.744 C286.777,411.926 290.464,414.973 293.915,418.299 C296.392,420.687 300.662,424.848 301.231,427.768 C307.769,424.012 314.306,420.255 320.844,416.499 C319.318,415.017 317.677,413.691 315.886,412.542 C309.56,408.481 298.996,416.03 298.363,422.725 C298.362,422.739 297.736,425.75 298.026,425.036 C303.567,422.517 309.109,420 314.65,417.482 C312.815,416.616 309.996,415.916 308.495,414.65 C300.618,408.01 288.862,416.685 288.89,425.916 C288.9,429.288 289.196,432.411 290.001,435.702 C296.781,431.837 303.563,427.972 310.343,424.106 C308.106,419.874 305.296,417.041 301.205,414.549 C298.142,412.684 294.478,411.544 291.825,409.099 C284.114,401.995 272.243,411.488 272.229,420.358 C272.225,422.823 272.228,425.228 271.83,427.663 C278.288,424.767 284.747,421.872 291.205,418.976 C288.911,415.973 287.013,410.768 282.704,408.439 C274.554,404.032 265.568,412.378 262.853,419.482 C268.387,416.967 273.922,414.453 279.457,411.937 C273.793,409.01 268.56,405.404 261.936,405.351 C250.479,405.259 244.666,416.02 243.843,425.911 C249.746,421.666 255.649,417.422 261.553,413.178 C258.205,411.395 256.478,405.952 254.159,402.936 C251.321,399.245 245.423,400.328 241.989,402.287 C236.717,405.295 233.844,410.637 235.078,416.558 C235.919,420.591 236.183,424.848 235.424,428.898 C241.874,426.006 248.323,423.115 254.774,420.223 C249.888,415.601 247.286,409.317 243.042,404.177 C237.183,397.079 224.617,405.624 223.7,412.849 C223.278,416.173 223.886,420.624 222.745,423.808 C228.27,421.297 233.796,418.787 239.322,416.276 C235.134,413.713 232.327,405.029 232.809,401.284 C225.793,402.701 218.778,404.119 211.762,405.536 C212.095,409.074 211.108,411.387 209.605,413.387 C207.479,416.217 211.084,412.174 208.467,414.435 C210.51,412.67 206.701,415.131 208.923,414.213 C207.814,414.671 207.986,414.699 206.875,414.231 C204.966,413.426 203.855,411.994 202.552,410.449 C201.595,409.315 201.854,409.46 201.405,408.22 C206.336,421.801 187.533,417.967 194.791,419.217 C198.634,419.878 202.366,426.764 204.235,429.691 C206.084,432.587 210.895,432.42 213.658,431.538 C218.195,430.088 222.701,425.898 223.534,421.039 C224.394,416.022 224.927,410.967 226.09,406.005 C226.433,404.544 228.753,401.075 226.471,403.464 C225.721,404.249 224.505,404.495 223.495,404.66 C221.816,404.933 224.115,405.24 222.902,404.638 C221.601,403.992 223.344,405.462 223.022,404.84 C223.432,405.633 223.509,405.989 223.541,406.782 C223.442,404.276 222.983,407.233 224.016,404.596 C223.189,406.711 225.645,402.356 224.215,404.23 C226.259,401.55 225.196,403.196 224.38,403.901 C222.345,405.659 226.786,402.353 224.392,403.875 C223.656,404.342 219.14,406.485 221.501,405.478 C207.802,411.326 192.263,411.399 178.662,417.183 C182.205,418.476 185.747,419.769 189.29,421.061 C187.72,416.47 186.909,411.832 186.505,406.999 C186.118,402.384 186.414,397.977 188.049,395.256 C181.523,396.585 174.995,397.914 168.468,399.243 C171.339,407.669 172.301,416.434 172.924,425.274 C179.816,422.225 186.708,419.176 193.6,416.128 C188.457,400.774 181.361,383.853 183.986,367.339 C177.173,369.534 170.359,371.73 163.547,373.925 C169.653,390.346 175.244,408.16 174.181,425.885 C181.059,422.842 187.937,419.8 194.815,416.758 C191.074,405.822 187.455,394.764 185.405,383.368 C183.486,372.704 182.419,360.601 186.165,350.186 C179.661,351.511 173.157,352.835 166.653,354.161 C173.366,375.547 172.997,398.361 176.651,420.328 C183.528,417.286 190.405,414.244 197.282,411.203 C197.017,410.525 196.803,409.837 196.608,409.136 C196.46,408.605 196.337,408.066 196.214,407.528 C196.813,410.13 196.289,407.856 196.195,407.353 C195.655,404.425 195.299,401.462 194.978,398.503 C194.128,390.668 193.8,382.769 193.824,374.89 C193.846,366.948 194.031,362.242 195.51,354.728 C195.768,353.416 196.101,352.122 196.466,350.836 C197.169,348.363 195.631,353.003 196.504,350.743 C196.734,350.146 197.014,349.571 197.299,348.998 C198.302,346.975 195.719,351.314 196.963,349.602 C198.211,347.881 194.641,351.793 196.177,350.498 C193.353,352.88 189.879,353.667 187.141,352.408 C188.942,353.235 185.504,350.742 187.113,352.449 C187.865,353.248 188.483,354.176 189.085,355.089 C189.605,355.918 189.54,355.806 188.893,354.751 C189.261,355.379 189.602,356.022 189.944,356.665 C190.714,358.109 191.409,359.593 192.092,361.079 C195.303,368.058 197.863,375.346 200.27,382.633 C202.685,389.945 204.841,397.347 206.71,404.817 C207.046,406.158 207.36,407.504 207.667,408.851 C207.752,409.224 208.283,411.754 207.796,409.374 C207.928,410.017 208.047,410.661 208.165,411.306 C208.483,413.044 208.813,414.856 208.731,416.632 C215.62,413.584 222.509,410.536 229.399,407.489 C219.524,384.135 221.212,358.719 221.255,333.921 C214.196,336.183 207.138,338.446 200.079,340.708 C200.188,365.499 205.025,390.601 201.532,415.314 C207.328,411.947 213.123,408.579 218.918,405.211 C218.508,404.99 216.112,403.201 217.637,404.507 C216.778,403.771 216.037,402.903 215.313,402.039 C213.401,399.767 213.152,399.068 211.907,396.575 C209.11,390.979 207.278,384.896 205.714,378.86 C202.841,367.78 201.151,355.882 201.49,344.417 C194.44,346.678 187.389,348.938 180.34,351.198 C181.333,358.459 181.881,365.767 182.739,373.045 C183.569,380.084 185.439,386.791 186.828,393.708 C189.362,406.326 189.663,419.935 196.268,431.329 C198.576,435.308 202.398,436.683 206.867,435.195 C213.401,433.019 218.817,429.078 224.098,424.759 C225.146,423.902 226.185,423.032 227.232,422.175 C227.053,422.321 230.526,419.636 228.907,420.785 C229.953,420.042 231.062,419.409 232.183,418.79 C231.463,419.187 233.274,418.502 233.801,418.45 C233.453,412.262 233.106,406.073 232.758,399.886 C236.269,397.795 229.111,401.492 230.18,400.997 C227.741,402.127 226.093,403.882 224.347,405.869 C230.346,405.383 236.346,404.896 242.345,404.411 C235.897,384.006 228.026,362.991 233.35,341.413 C226.387,342.82 219.424,344.227 212.461,345.634 C215.46,361.701 218.315,377.338 223.058,393.002 C226.449,404.198 230.189,418.315 240.698,424.958 C247.319,429.144 256.893,421.353 258.059,414.869 C260.475,401.428 255.957,388.425 253.075,375.433 C249.992,361.537 250.917,346.191 250.942,332.048 C243.845,334.322 236.75,336.598 229.653,338.872 C234.281,368.729 241.285,397.547 257.396,423.453 C259.803,427.324 266.35,425.854 269.431,424.096 C273.539,421.752 276.95,417.241 276.752,412.332 C276.189,398.294 271.492,384.846 267.636,371.463 C264.155,359.382 260.965,345.705 265.62,333.485 C259.236,334.786 252.851,336.086 246.467,337.386 C253.306,366.218 254.238,395.755 270.44,421.529 C272.844,425.355 279.297,423.917 282.365,422.167 C286.37,419.882 289.908,415.343 289.619,410.51 C287.934,382.33 274.171,356.345 274.319,327.949 C267.688,330.076 261.055,332.201 254.424,334.328 C258.977,365.468 267.95,396.473 286.1,422.563 C288.624,426.193 294.583,424.97 297.713,423.183 C302.335,420.546 306.049,414.995 304.309,409.564 C296.668,385.721 287.077,360.786 289.687,335.276 C283.184,337.371 276.682,339.466 270.18,341.562 C277.189,357.808 280.441,375.362 285.474,392.257 C289.127,404.519 292.261,419.255 303.367,426.997 C309.709,431.418 318.587,423.184 319.927,417.375 C322.982,404.136 314.851,391.813 311.647,379.444 C307.166,362.146 304.793,344.043 304.972,326.165 C305.027,320.752 299.01,319.071 294.757,320.431 C289.611,322.077 285.524,326.926 285.501,332.408 C285.402,356.463 287.059,381.162 295.489,403.908 C299.671,415.187 318.073,402.979 314.735,392.937 C309.305,376.603 306.626,358.82 306.839,341.606 C307.072,322.781 312.438,304.4 311.589,285.48 C311.406,281.414 307.839,279.042 303.995,279.354 C298.441,279.804 294.177,284.19 292.656,289.304 C283.439,320.306 281.293,353.076 288.09,384.767 C289.012,389.066 294.945,389.496 298.201,388.455 C302.916,386.948 308.58,381.544 307.784,376.055 C304.706,354.829 302.39,333.297 302.986,311.823 C303.541,291.788 307.078,268.603 319.755,252.334 C314.129,252.061 308.502,251.787 302.875,251.514 C301.771,265.768 294.604,279.537 290.41,293.041 C296.986,291.713 303.562,290.384 310.138,289.056 C309.557,274.169 314.947,259.89 321.93,246.977 C316.068,245.883 310.204,244.789 304.342,243.696 C297.988,260.545 290.93,277.85 286.643,295.353 C283.069,309.946 283.813,325.893 278.26,339.964 C284.421,338.709 290.582,337.454 296.742,336.199 C293.076,324.623 295.406,312.324 297.978,300.771 C300.861,287.829 304.825,275.094 306.082,261.841 C307.374,248.227 288.157,252.919 286.855,263.398 C284.933,278.868 278.34,293.202 275.156,308.389 C272.579,320.683 272.688,334.271 266.601,345.533 C272.331,343.653 278.061,341.773 283.791,339.894 C277.168,331.136 280.342,317.341 282.512,307.343 C285.361,294.219 290.056,281.53 291.037,268.054 C291.349,263.783 286.731,261.354 283.095,261.648 C277.223,262.125 272.915,266.717 271.237,272.055 C267.123,285.14 261.782,297.859 258.628,311.236 C256.292,321.143 257.224,332.509 252.698,341.767 C258.636,339.82 264.576,337.871 270.515,335.923 C265.606,329.151 268.659,317.206 270.663,308.901 C273.388,297.614 277.312,286.58 277.916,274.896 C278.133,270.692 273.746,268.295 270.1,268.591 C265.296,268.98 261.466,272.328 259.257,276.407 C252.503,288.876 248.861,302.819 245.418,316.491 C243.087,325.742 243.215,339.331 237.336,346.339 C241.906,344.82 246.477,343.302 251.047,341.784 C251.693,342.291 249.851,339.991 249.792,339.879 C248.976,338.298 248.238,336.012 247.968,334.599 C246.954,329.308 247.034,323.8 247.306,318.445 C247.786,308.979 249.625,299.416 252.186,290.302 C246.255,291.499 240.325,292.698 234.393,293.896 C234.721,304.209 235.171,314.518 235.493,324.832 C235.818,335.262 235.289,345.777 235.813,356.184 C241.546,353.648 247.279,351.112 253.012,348.577 C251.415,341.323 250.317,329.253 250.272,320.178 C250.231,311.911 249.874,299.095 254.965,292.99 C260.088,286.847 251.746,281.002 246.678,286.416 L246.678,286.416 Z" id="Shape"></path>
                    <path d="M45,161.888 C44.042,170.222 48.9,177.763 51.859,185.291 C53.423,189.273 54.366,193.32 54.761,197.574 C55.23,202.615 53.136,206.68 51.683,211.333 C49.863,217.16 57.929,215.584 60.139,212.928 C66.795,204.926 66.294,193.506 63.056,184.224 C60.212,176.075 54.785,165.034 46.966,160.745 C46.227,160.339 45.091,161.098 45,161.888 L45,161.888 Z" id="Shape"></path>
                    <path d="M50.391,170.524 C49.014,179.392 51.411,188.351 50.177,197.249 C49.585,201.519 48.041,205.53 46.051,209.322 C44.267,212.719 41.058,216.144 42.188,220.163 C42.446,221.084 43.644,221.619 44.529,221.47 C53.649,219.925 58.571,205.857 59.613,197.837 C60.852,188.292 59.28,176.622 51.843,169.873 C51.345,169.42 50.486,169.916 50.391,170.524 L50.391,170.524 Z" id="Shape"></path>
                    <path d="M42.276,162.97 C43.881,170.083 48.435,176.029 49.711,183.355 C51.053,191.059 49.005,199.063 43.923,204.948 C39.381,210.206 32.079,213.473 26.251,216.984 C23.036,218.922 19.938,220.829 16.378,222.02 C13.342,223.036 10.33,224.194 7.527,225.749 C2.838,228.353 0.244,233.436 0.606,238.74 C0.95,243.774 4.8,247.435 8.554,250.285 C15.637,255.66 25.7,259.03 34.441,260.383 C39.937,261.234 46.017,251.252 39.24,250.203 C31.048,248.935 21.594,245.783 15.124,240.492 C13.716,239.34 12.413,237.959 11.651,236.297 C11.366,235.676 11.198,234.977 11.288,234.291 C11.587,231.983 9.919,234.773 11.732,233.766 C13.891,232.568 16.435,231.926 18.768,231.145 C22.597,229.864 26.082,227.601 29.513,225.515 C41.68,218.117 53.659,210.904 58.218,196.631 C62.367,183.64 56.774,167.758 45.775,159.899 C44.026,158.65 41.918,161.387 42.276,162.97 L42.276,162.97 Z" id="Shape"></path>
                    <path d="M4.184,234.899 C-0.716,241.806 4.078,249.76 8.757,255.371 C11.6,258.78 15.222,261.664 19.06,263.865 C22.506,265.843 26.702,265.17 30.058,267.067 C34.961,269.839 42.169,261.532 37.079,257.798 C34.662,256.025 31.617,255.857 28.741,255.413 C25.315,254.885 22.195,252.05 19.72,249.819 C17.138,247.492 14.792,244.658 12.62,241.953 C10.677,239.534 9.8,236.405 7.688,234.17 C6.684,233.106 4.905,233.883 4.184,234.899 L4.184,234.899 Z" id="Shape"></path>
                    <path d="M21.658,234.999 C19.483,234.728 17.399,234.187 15.262,233.717 C14.326,236.451 13.391,239.185 12.456,241.919 C22.73,240.23 33.195,237.232 41.885,231.335 C45.226,229.067 47.567,222.336 41.385,222.42 C29.344,222.584 18.54,228.588 7.078,231.474 C7.253,234.687 7.427,237.902 7.601,241.115 C15.113,238.853 22.173,235.446 28.968,231.555 C34.882,228.169 32.8,219.792 25.71,223.034 C24.345,223.658 23.071,224.402 21.706,225.026 C17.492,226.953 16.191,234.641 22.235,234.443 C27.315,234.277 33.874,234.474 38.536,232.445 C40.823,231.451 43.8,228.448 41.704,225.841 C37.911,221.126 29.673,223.968 24.442,224.146 C24.618,227.285 24.795,230.423 24.971,233.563 C26.334,232.933 27.604,232.185 28.967,231.555 C27.881,228.714 26.795,225.874 25.709,223.034 C19.748,226.476 13.675,229.46 7.076,231.474 C1.295,233.239 0.052,243.046 7.599,241.115 C18.173,238.41 28.245,232.648 39.292,232.169 C38.716,229.49 38.14,226.812 37.563,224.133 C30.378,229.317 21.496,231.476 13.126,233.891 C9.379,234.972 7.028,242.969 12.453,241.92 C14.877,241.45 17.276,240.908 19.731,240.622 C22.071,240.348 25.375,235.464 21.658,234.999 L21.658,234.999 Z" id="Shape"></path>
                </g>
            </g>
        </g>
    </g>
</svg>