<?xml version="1.0" encoding="UTF-8"?>
<svg width="556px" height="310px" viewBox="0 0 556 310" version="1.1" xmlns="http://www.w3.org/2000/svg" xmlns:xlink="http://www.w3.org/1999/xlink">
    <!-- Generator: Sketch 41 (35326) - http://www.bohemiancoding.com/sketch -->
    <title>breeze</title>
    <desc>Created with Sketch.</desc>
    <defs></defs>
    <g id="Page-1" stroke="none" stroke-width="1" fill="none" fill-rule="evenodd">
        <g id="Layer_1" transform="translate(-5436.000000, -4847.000000)" fill="#010101">
            <g id="Layer_1_3_">
                <g id="breeze" transform="translate(5436.000000, 4847.000000)">
                    <path d="M125.383,146.799 C151.126,135.641 178.793,128.178 206.893,126.861 C236.249,125.484 265.33,132.318 291.37,145.787 C313.927,157.453 332.896,174.67 352.542,190.492 C372.171,206.299 392.989,220.435 417.138,228.295 C449.881,238.953 490.719,244.977 522.394,228.107 C540.185,218.632 552.619,199.886 555.063,179.931 C557.989,156.042 540.297,138.392 518.999,131.449 C507.388,127.665 493.197,127.617 482.557,134.178 C473.285,139.895 468.075,149.616 467.839,160.389 C467.651,168.981 471.781,177.483 478.505,182.705 C486.599,188.992 498.276,187.453 506.462,182.16 C509.871,179.953 514.473,174.806 512.218,170.273 C511.25,168.326 510.345,167.107 508.473,165.947 C507.614,165.509 506.711,165.254 505.766,165.176 C503.484,165.172 502.953,165.123 504.173,165.028 C505.299,165.647 506.426,166.264 507.553,166.882 C507.364,166.724 507.173,166.566 506.984,166.407 C499.852,160.436 485.789,172.022 492.539,179.083 C493.738,180.337 494.739,180.983 496.426,181.466 C496.945,181.616 498.189,182.357 497.488,181.806 C496.633,180.833 495.778,179.859 494.924,178.884 C495.051,179.228 495.177,179.573 495.304,179.917 C497.223,175.954 499.141,171.991 501.06,168.03 C500.268,168.452 499.475,168.868 498.671,169.268 C500.552,168.33 498.227,169.331 497.9,169.434 C495.539,170.182 499.599,169.254 497.263,169.571 C496.948,169.614 494.636,169.639 496.659,169.735 C495.913,169.7 492.596,168.766 494.16,169.368 C493.329,169.048 490.304,166.991 491.41,167.919 C487.208,164.394 485.865,160.183 485.679,155.366 C485.653,154.673 485.688,153.978 485.724,153.286 C485.622,155.245 485.845,153.001 485.901,152.692 C486.024,152.01 486.214,151.344 486.404,150.678 C485.793,152.813 486.467,150.697 486.648,150.29 C486.861,149.816 488.087,147.889 486.732,149.986 C487.119,149.388 487.574,148.84 488.027,148.293 C486.314,150.359 487.831,148.596 488.302,148.186 C489.503,147.143 486.861,148.975 489.353,147.571 C491.652,146.274 487.56,148.194 490.146,147.223 C490.994,146.905 491.874,146.682 492.75,146.459 C492.708,146.469 496.299,146.117 497.596,146.08 C502.172,145.949 507.176,146.978 511.481,148.488 C520.501,151.65 529.36,157.605 534.102,166.105 C539.086,175.037 538.091,184.74 534.485,193.972 C532.821,198.232 531.339,200.769 528.909,204.019 C528.298,204.835 527.636,205.611 526.974,206.386 C524.865,208.859 528.302,205.103 526.012,207.37 C525.305,208.069 524.555,208.725 523.807,209.38 C523.541,209.612 520.545,211.941 522.045,210.87 C515.554,215.497 508.85,218.003 501.417,219.477 C484.032,222.924 465.959,221.122 448.729,217.696 C428.824,213.737 410.366,206.899 393.003,196.272 C371.141,182.889 351.904,165.647 331.15,150.693 C308.503,134.374 283.431,122.157 256.008,116.387 C233.689,111.694 210.172,111.692 187.814,116.096 C176.516,118.323 165.565,121.85 154.869,126.096 C144.002,130.41 134.223,136.086 124.507,142.553 C122.582,143.834 122.222,148.169 125.383,146.799 L125.383,146.799 Z" id="Shape"></path>
                    <path d="M81.209,114.159 C92.855,108.313 103.801,101.188 115.655,95.677 C127.343,90.241 139.595,85.927 152.055,82.657 C176.935,76.127 203.25,74.614 228.781,77.357 C253.482,80.011 278.279,86.574 300.668,97.399 C322.548,107.978 343.225,120.753 366.568,128.047 C389.906,135.342 414.292,133.248 433.799,117.734 C449.601,105.167 457.778,85.338 457.068,65.391 C456.42,47.25 448.027,29.093 434.873,16.66 C420.343,2.927 397.627,-4.732 378.664,4.018 C360.832,12.247 347.496,35.68 356.287,54.813 C364.66,73.038 389.131,72.026 401.805,59.241 C405.664,55.348 408.492,47.059 400.925,45.315 C395.953,44.17 391.569,44.629 386.812,46.46 C383.661,47.673 376.631,55.638 382.857,57.962 C386.335,59.259 389.394,61.028 393,62.132 C392.707,57.489 392.413,52.847 392.12,48.206 C389.358,50.694 387.649,51.644 383.548,51.752 C380.263,51.839 376.84,49.534 374.644,47.023 C368.692,40.222 371.62,28.234 377.526,22.474 C390.156,10.156 412.035,21.757 422.148,32.001 C433.632,43.632 440.619,61.146 439.17,77.364 C437.548,95.524 426.679,109.259 408.651,113.977 C387.069,119.629 362.912,107.51 344.203,98.153 C322.501,87.296 301.78,76.062 278.324,69.307 C227.397,54.637 171.5,58.928 123.187,80.334 C107.04,87.488 90.12,97.614 78.512,111.084 C76.647,113.249 78.967,115.285 81.209,114.159 L81.209,114.159 Z" id="Shape"></path>
                    <path d="M63.92,240.737 C71.828,233.661 79.43,226.165 87.867,219.71 C96.25,213.296 105.583,208.073 115.133,203.62 C134.534,194.571 156.061,189.429 177.271,187.085 C198.772,184.708 220.541,185.282 241.85,189.038 C258.605,191.991 279.708,196.593 292.704,207.065 C306.484,218.17 316.744,234.338 321.908,251.17 C324.243,258.779 324.924,266.936 323.349,273.988 C322.649,277.127 321.425,279.478 320.026,281.447 C319.45,282.258 318.8,283.013 318.153,283.767 C319.752,281.906 317.455,284.343 317.247,284.533 C316.46,285.254 315.609,285.902 314.763,286.551 C316.309,285.369 312.748,287.686 312.383,287.895 C312.292,287.946 308.825,289.508 310.899,288.674 C309.941,289.059 308.944,289.34 307.952,289.623 C306.93,289.914 305.111,290.125 303.005,290.268 C298.47,290.573 293.871,289.692 289.321,288.45 C280.443,286.024 272.469,280.419 267.208,272.909 C264.932,269.661 263.919,265.807 263.762,261.911 C263.71,260.628 263.97,259.065 264.474,257.186 C263.991,258.991 264.954,256.221 265.028,256.067 C265.616,254.987 265.603,254.969 264.99,256.014 C265.328,255.51 265.686,255.022 266.064,254.547 C267.871,252.188 264.384,256.09 266.535,254.07 C266.908,253.718 269.277,252.031 266.981,253.595 C267.716,253.093 268.506,252.677 269.293,252.263 C267.153,253.392 269.647,252.159 270.061,252.013 C270.298,251.929 273.104,251.238 270.984,251.652 C271.852,251.482 272.733,251.408 273.611,251.336 C273.755,251.324 276.576,251.393 274.753,251.268 C275.924,251.348 277.075,251.588 278.215,251.854 C282.542,252.856 285.194,256.94 288.377,261.389 C287.921,259.276 287.466,257.16 287.011,255.045 C286.941,255.305 286.87,255.566 286.801,255.826 C288.946,253.043 291.09,250.26 293.235,247.474 C293.081,247.548 292.926,247.62 292.772,247.693 C295.143,247.211 297.513,246.728 299.884,246.246 C297.349,245.725 295.14,245.373 292.588,246.408 C288.63,248.012 285.138,250.951 284.201,255.324 C283.231,259.845 286.471,263.762 291.176,263.271 C291.396,263.248 291.614,263.226 291.832,263.203 C290.442,262.941 289.052,262.68 287.662,262.42 C295.014,266.19 300.98,262.807 305.138,255.893 C308.464,250.358 303.416,243.567 299.476,239.868 C292.97,233.761 283.765,231.399 275.029,232.78 C253.782,236.135 238.998,257.399 245.991,278.321 C252.84,298.807 276.725,308.954 296.732,309.171 C318.003,309.401 336.753,293.345 342.31,273.37 C347.286,255.485 340.488,235.493 331.495,220.079 C322.632,204.888 310.095,190.526 293.57,183.61 C252.966,166.616 206.82,164.913 164.068,173.596 C142.994,177.875 122.653,185.6 104.092,196.469 C86.878,206.549 68.71,220.199 59.478,238.301 C57.84,241.502 61.857,242.583 63.92,240.737 L63.92,240.737 Z" id="Shape"></path>
                    <path d="M0.723,181.493 C15.369,192.757 36.717,186.067 51.991,179.614 C70.005,172.003 86.28,160.946 103.85,152.457 C109.846,149.56 112.292,137.728 103.059,138.372 C97.454,138.765 93.12,141.273 89.58,145.571 C87.145,148.528 87.227,153.651 91.593,154.587 C94.63,155.237 96.845,154.03 99.759,153.774 C99.495,149.079 99.232,144.383 98.968,139.689 C83.333,147.561 69.172,157.958 53.777,166.266 C45.891,170.522 37.726,174.217 29.056,176.557 C20.541,178.856 11.233,179.039 2.474,178.618 C1.1,178.551 -0.772,180.344 0.723,181.493 L0.723,181.493 Z" id="Shape"></path>
                    <path d="M36.612,132.608 C39.06,133.915 40.914,134.831 43.784,134.799 C47.059,134.764 50.272,133.604 53.237,132.313 C59.502,129.584 67.718,125.417 66.013,117.285 C65.553,115.091 62.617,114.11 60.701,114.321 C55.88,114.85 53.303,118.26 49.8,121.073 C47.699,122.761 42.774,126.254 39.596,126.3 C37.045,126.334 33.42,130.903 36.612,132.608 L36.612,132.608 Z" id="Shape"></path>
                </g>
            </g>
        </g>
    </g>
</svg>