<?xml version="1.0" encoding="UTF-8"?>
<svg width="548px" height="501px" viewBox="0 0 548 501" version="1.1" xmlns="http://www.w3.org/2000/svg" xmlns:xlink="http://www.w3.org/1999/xlink">
    <!-- Generator: Sketch 41 (35326) - http://www.bohemiancoding.com/sketch -->
    <title>broad_bean</title>
    <desc>Created with Sketch.</desc>
    <defs></defs>
    <g id="Page-1" stroke="none" stroke-width="1" fill="none" fill-rule="evenodd">
        <g id="Layer_1" transform="translate(-6063.000000, -9.000000)" fill="#010101">
            <g id="Layer_1_3_">
                <g id="broad_bean" transform="translate(6063.000000, 9.000000)">
                    <path d="M46.374,104.732 C51.636,112.988 57.819,120.746 61.464,129.902 C66.21,141.828 65.738,155.414 65.12,167.986 C64.367,183.29 63.266,198.65 66.259,213.792 C69.146,228.4 74.963,242.272 81.315,255.67 C93.315,280.978 106.655,305 123.919,327.125 C141.34,349.453 161.409,369.821 183.261,387.819 C204.925,405.663 229.134,419.849 253.253,434.07 C279.384,449.476 306.194,463.819 334.304,475.298 C348.622,481.145 363.197,485.928 378.07,490.134 C393.148,494.397 408.389,498.144 424.031,499.546 C438.787,500.869 453.404,499.714 467.65,495.631 C480.797,491.861 493.236,485.988 506.2,481.672 C510.655,480.189 515.207,478.916 519.833,478.096 C525.128,477.156 530.4,477.725 535.671,477.059 C536.638,472.547 537.605,468.036 538.571,463.524 C535.005,464.237 531.723,464.956 529.134,467.712 C527.389,469.57 525.651,472.041 526.686,474.739 C527.923,477.968 531.784,477.53 534.264,476.263 C532.079,476.554 531.981,476.793 533.967,476.981 C541.077,478.413 549.124,466.142 540.274,463.602 C534.388,461.913 527.191,463.302 521.274,464.369 C514.298,465.625 507.539,467.681 500.869,470.05 C487.959,474.637 475.519,480.457 462.252,484.013 C432.08,492.101 399.781,482.011 370.711,474.058 C341.449,466.052 313.473,451.892 286.925,437.473 C261.39,423.603 235.715,408.911 211.785,392.399 C166.295,361.008 127.529,317.538 102.03,268.574 C95.119,255.304 88.217,242.021 82.877,228.021 C77.242,213.25 74.941,198.492 75.203,182.722 C75.446,168.05 76.663,153.415 74.041,138.865 C72.312,129.27 68.153,121.443 61.826,114.113 C58.067,109.759 53.816,105.843 49.807,101.722 C48.173,100.043 45.18,102.86 46.374,104.732 L46.374,104.732 Z" id="Shape"></path>
                    <path d="M83.184,110.196 C86.737,115.981 88.769,122.372 91.24,128.669 C93.792,135.17 95.409,142.035 96.604,148.899 C98.973,162.511 98.509,176.353 100.293,190.02 C103.717,216.243 114.609,240.488 128.597,262.688 C158.722,310.502 200.958,349.788 246.557,382.616 C270.225,399.656 295.402,414.487 320.668,429.007 C345.356,443.195 371.163,455.792 399.003,462.382 C428.292,469.316 459.395,467.562 489.185,465.788 C496.551,465.35 503.971,465.605 511.345,465.771 C518.48,465.933 526.136,465.692 533.11,467.41 C533.676,467.58 533.729,467.585 533.267,467.424 C536.782,468.703 524.372,467.87 535.543,460.309 C533.393,461.765 531.105,464.413 532.187,467.239 C533.172,469.81 536.686,469.907 538.694,468.548 C541.456,466.679 544.275,463.203 541.961,459.874 C540.735,458.11 537.806,457.875 535.869,457.655 C528.052,456.77 520.171,456.548 512.31,456.387 C488.984,455.909 465.769,458.433 442.432,457.811 C427.447,457.411 412.797,455.848 398.251,452.136 C384.174,448.544 370.648,443.091 357.529,436.907 C331.431,424.606 306.358,409.301 281.946,393.969 C233.001,363.231 188.556,325.391 153.073,279.648 C136.643,258.467 122.346,235.514 113.989,209.902 C105.586,184.148 108.337,156.605 99.396,130.998 C96.302,122.138 91.404,115.311 85.706,107.984 C84.657,106.634 82.338,108.82 83.184,110.196 L83.184,110.196 Z" id="Shape"></path>
                    <path d="M98.636,60.174 C96.776,83.695 100.857,111.783 124.52,123.181 C135.231,128.339 147.794,128.739 159.343,130.583 C171.742,132.562 182.803,136.731 192.479,144.86 C201.408,152.361 208.582,161.793 216.04,170.685 C224.469,180.736 234.012,189.716 243,199.255 C263.257,220.753 282.289,243.361 302.269,265.112 C320.662,285.136 339.971,304.744 361.748,321.121 C381.974,336.33 404.425,348.294 426.051,361.327 C436.88,367.852 447.518,374.696 457.658,382.255 C468.039,389.991 477.06,398.868 486.079,408.102 C504.841,427.31 526.027,444.602 541.438,466.812 C542.566,464.979 543.695,463.145 544.824,461.312 C543.08,461.166 541.406,460.758 539.802,460.09 C537.612,459.318 534.553,462.304 536.784,464.072 C538.844,465.705 540.2,466.797 542.705,467.506 C545.456,468.285 548.53,464.428 546.874,462.042 C530.857,438.965 508.659,421.077 489.254,401.023 C470.987,382.145 450.075,367.507 427.609,354.03 C404.853,340.381 381.298,327.755 360.463,311.185 C337.652,293.043 317.579,271.484 298.128,249.873 C279.567,229.252 261.569,208.12 242.298,188.147 C234.218,179.773 226.095,171.669 218.623,162.727 C211.476,154.172 204.371,145.532 195.659,138.498 C187.461,131.88 178.247,128.017 168.002,125.816 C156.397,123.323 144.406,123.204 132.962,119.87 C120.948,116.368 112.173,107.277 107.202,95.999 C102.14,84.519 101.816,71.781 100.745,59.495 C100.621,58.06 98.714,59.18 98.636,60.174 L98.636,60.174 Z" id="Shape"></path>
                    <path d="M123.802,193.316 C124.503,182.716 127.042,171.581 138.081,167.8 C149.472,163.901 162.143,167.033 170.492,175.607 C180.1,185.472 177.785,198.051 179.048,210.502 C180.29,222.748 188.668,229.087 199.242,233.779 C204.129,235.949 209.101,237.846 213.724,240.564 C218.825,243.564 223.286,249.02 226.114,254.172 C229.699,260.702 229.899,267.928 224.068,273.038 C217.943,278.405 208.269,279.679 200.462,279.185 C189.282,278.479 179.728,273.394 170.926,266.773 C158.034,257.075 148.403,243.226 141.9,228.617 C138.487,220.952 135.97,212.819 134.322,204.596 C133.551,200.747 133.034,196.853 132.634,192.95 C132.188,188.598 132.36,184.859 130.142,180.989 C128.499,178.127 124.495,179.802 123.401,182.362 C118.861,192.984 122.925,207.104 125.767,217.868 C128.871,229.627 133.98,240.697 140.474,250.952 C152.284,269.599 171.805,286.835 194.461,289.319 C211.753,291.215 232.618,284.594 238.661,266.741 C241.607,258.035 237.413,248.872 232.294,241.976 C224.886,231.997 214.731,228.324 203.867,223.377 C198.361,220.87 192.668,217.495 190.403,211.594 C187.766,204.724 188.947,196.447 188.198,189.24 C186.834,176.102 177.415,164.674 165.037,160.349 C153.728,156.397 139.419,158.045 129.981,165.736 C121.105,172.969 120.384,183.267 122.488,193.736 C122.666,194.618 123.759,193.955 123.802,193.316 L123.802,193.316 Z" id="Shape"></path>
                    <path d="M263.005,281.229 C253.211,282.867 245.407,290.446 241.417,299.301 C237.146,308.781 238.213,319.832 241.842,329.312 C245.924,339.977 253.654,350.005 260.832,358.756 C268.879,368.566 278.198,377.427 288.746,384.506 C307.588,397.152 334.983,400.241 351.307,381.578 C368.081,362.398 353.051,337.967 332.548,329.806 C323.891,326.359 314.497,325.012 306.695,319.627 C302.671,316.85 299.617,312.404 298.1,307.823 C296.717,303.647 296.794,299.177 295.143,295.048 C288.479,278.383 253.632,272.688 250.442,294.711 C249.745,299.524 255.483,298.774 257.59,296.059 C260.387,292.455 263.104,290.276 267.854,290.553 C273.613,290.89 279.015,293.658 282.881,297.852 C285.996,301.229 286.121,305.967 286.965,310.229 C288.1,315.96 290.839,320.789 294.816,325.051 C301.9,332.645 312.352,334.969 321.865,337.955 C333.304,341.546 343.428,348.719 347.33,360.515 C350.643,370.533 343.684,379.157 334.736,382.694 C323.271,387.227 311.125,384.054 300.695,378.475 C289.325,372.393 279.765,363.238 271.302,353.638 C263.553,344.849 255.671,334.917 250.938,324.127 C247.84,317.064 246.742,309.433 248.41,301.878 C250.268,293.464 256.99,288.457 263.511,283.579 C264.355,282.948 264.478,280.982 263.005,281.229 L263.005,281.229 Z" id="Shape"></path>
                    <path d="M384.554,385.551 C375.679,387.435 368.701,395.373 367.956,404.421 C367.148,414.239 372.092,423.061 378.499,430.131 C393.885,447.113 421.119,455.681 443.475,452.858 C455.641,451.321 467.804,445.548 475.682,436.026 C484.263,425.65 479.477,412.329 468.21,406.403 C463.241,403.791 457.408,404.574 452.176,405.676 C447.595,406.641 442.059,409.698 437.309,408.694 C431.819,407.533 425.216,402.03 420.213,398.819 C412.011,393.555 403.359,387.937 393.691,385.88 C385.115,384.056 372.793,388.529 373.046,398.823 C373.132,402.317 377.517,401.625 379.307,400.05 C381.102,398.471 382.935,396.244 384.171,395.997 C387.28,395.375 390.644,396.403 393.528,397.499 C401.405,400.489 408.563,405.374 415.608,409.907 C420.922,413.328 426.623,417.708 432.936,419.041 C444.049,421.389 455.582,409.4 465.251,418.916 C477.26,430.735 458.738,439.564 448.561,442.016 C436.512,444.917 422.824,442.279 411.444,438.004 C400.915,434.049 390.866,427.845 383.59,419.186 C377.943,412.464 372.911,401.944 378.321,393.749 C380.088,391.072 382.765,389.271 385.236,387.306 C386.145,386.583 385.757,385.296 384.554,385.551 L384.554,385.551 Z" id="Shape"></path>
                    <path d="M94.336,111.813 C97.983,122.661 106.708,128.325 117.103,132.013 C129.057,136.254 141.668,138.466 153.871,141.867 C167.934,145.786 180,152.055 190.851,161.844 C201.399,171.358 210.29,182.638 219.089,193.734 C237.978,217.552 259,239.331 278.919,262.27 C288.868,273.728 298.04,285.999 308.464,297.016 C317.43,306.491 327.754,314.56 338.034,322.537 C353.761,334.739 368.773,347.684 385.456,358.604 C401.844,369.331 419.028,378.776 435.695,389.051 C452.501,399.412 468.746,410.732 482.846,424.625 C494.015,435.628 502.978,448.063 512.796,460.209 C515.56,463.627 522.342,457.244 519.22,454.572 C511.497,447.965 505.813,438.94 499.256,431.225 C491.338,421.907 482.051,413.53 472.519,405.905 C451.565,389.143 427.819,376.371 404.952,362.493 C393.324,355.436 381.912,348.022 371.1,339.758 C360.099,331.349 349.53,322.316 338.633,313.758 C327.822,305.269 317.487,296.28 308.521,285.825 C298.395,274.017 288.694,261.86 278.409,250.171 C263.896,233.675 248.313,218.091 234.471,201.022 C221.443,184.958 209.112,168.705 193.732,154.761 C179.518,141.873 160.966,136.92 142.722,132.812 C125.88,129.018 105.831,126.63 95.58,110.922 C95.178,110.306 94.143,111.237 94.336,111.813 L94.336,111.813 Z" id="Shape"></path>
                    <path d="M174.106,259.763 C179.975,267.528 188.906,271.762 198.175,274.072 C207.057,276.284 220.041,273.022 221.739,262.427 C222.543,257.412 216.415,259.421 214.842,262.105 C212.905,265.407 211.937,267.127 208.112,268.334 C204.445,269.492 200.022,268.953 196.341,268.201 C189.293,266.763 180.805,263.564 175.386,258.639 C174.761,258.073 173.588,259.078 174.106,259.763 L174.106,259.763 Z" id="Shape"></path>
                    <path d="M292.651,364.046 C300.345,371.198 306.67,378.481 317.283,381.36 C322.203,382.695 327.361,381.502 331.768,379.201 C335.658,377.172 342.37,371.463 340.665,366.605 C340.229,365.363 338.708,365.112 337.604,365.488 C333.49,366.888 332.004,371.17 328.325,373.371 C324.993,375.364 320.518,374.988 316.876,374.374 C309.115,373.064 299.694,368.185 293.73,363.099 C293.193,362.64 292.128,363.561 292.651,364.046 L292.651,364.046 Z" id="Shape"></path>
                    <path d="M439.501,436.879 C446.394,438.773 452.002,438.986 458.738,436.311 C460.825,435.481 463.222,433.144 462.265,430.645 C461.039,427.451 457.107,429.556 455.619,431.183 C452.265,434.851 444.564,435.819 439.91,435.681 C439.338,435.664 438.779,436.68 439.501,436.879 L439.501,436.879 Z" id="Shape"></path>
                    <path d="M165.394,248.488 C157.484,236.938 150.373,223.951 145.072,211.011 C142.508,204.751 139.917,197.54 140.809,190.668 C141.164,187.925 142.497,185.627 144.921,184.279 C146.361,183.478 148.114,183.277 149.722,183.13 C149.337,183.165 149.796,180.461 148.709,182.772 C148.489,183.239 148.505,183.737 148.464,184.239 C148.345,185.689 150.436,185.408 151.081,184.752 C152.168,183.647 153.324,183.199 153.973,181.699 C154.267,181.018 154.393,180.127 153.835,179.528 C149.659,175.037 140.551,182.172 138.432,186.136 C135.203,192.171 137.488,200.324 139.497,206.339 C144.756,222.075 154.563,236.153 164.917,248.905 C165.119,249.153 165.569,248.744 165.394,248.488 L165.394,248.488 Z" id="Shape"></path>
                    <path d="M283.396,353.561 C279.343,346.083 273.774,339.786 268.82,332.916 C266.09,329.132 263.734,325.186 262.001,320.848 C260.296,316.581 260.355,312.498 260.268,308.021 C260.217,305.397 256.422,307.118 256.088,308.866 C254.52,317.056 259.058,325.239 263.489,331.768 C269.013,339.906 276.184,346.812 282.945,353.883 C283.116,354.062 283.513,353.775 283.396,353.561 L283.396,353.561 Z" id="Shape"></path>
                    <path d="M386.375,412.143 C388.398,421.822 399.408,429.163 408.767,430.526 C409.496,430.632 410.617,429.456 409.735,428.934 C401.59,424.12 391.204,421.318 387.938,411.252 C387.626,410.295 386.208,411.348 386.375,412.143 L386.375,412.143 Z" id="Shape"></path>
                    <path d="M42.326,108.459 C47.502,110.218 54.016,109.403 59.256,108.379 C66.861,106.894 73.897,104.885 80.935,101.595 C93.12,95.898 107.43,84.467 106.94,69.536 C106.672,61.414 94.123,66.234 93.548,72.242 C93.078,77.158 92.199,80.278 88.909,84.084 C85.332,88.223 80.068,90.99 75.253,93.371 C64.877,98.502 53.726,100.772 43.065,105.011 C41.693,105.556 40.31,107.773 42.326,108.459 L42.326,108.459 Z" id="Shape"></path>
                    <path d="M41.937,96.72 C57.284,97.053 70.563,89.589 81.99,79.81 C84.521,77.643 86.826,75.489 88.958,72.899 C90.041,71.584 92.135,68.117 93.907,67.966 C99.397,67.501 95.436,73.298 95.032,75.174 C95.859,73.831 96.685,72.488 97.512,71.145 C95.766,72.965 94.222,74.498 93.552,76.99 C93.358,77.715 93.469,78.866 94.072,79.404 C97.29,82.275 103.158,79.963 106.02,77.45 C109.445,74.445 111.827,69.653 111.286,65.058 C110.203,55.856 98.676,52.389 91.282,56.755 C83.22,61.516 79.233,71.203 72.298,77.394 C64.176,84.642 52.881,92.409 42.104,94.73 C41.088,94.948 40.596,96.69 41.937,96.72 L41.937,96.72 Z" id="Shape"></path>
                    <path d="M39.322,85.947 C33.674,87.945 31.318,94.312 31.992,99.892 C32.688,105.665 36.552,114.061 43.519,112.039 C45.504,111.463 47.122,109.675 47.608,107.692 C48.641,103.483 44.669,100.792 43.016,97.245 C41.675,94.369 41.641,91.217 42.043,88.141 C42.259,86.485 40.96,85.367 39.322,85.947 L39.322,85.947 Z" id="Shape"></path>
                    <path d="M1.901,15.799 C6.012,20.24 11.812,23.014 16.365,27.013 C22.734,32.608 28.307,39.078 33.551,45.717 C43.219,57.955 51.005,70.839 56.202,85.522 C58.117,90.931 67.172,85.616 66.35,81.033 C65.119,74.173 61.282,67.716 57.717,61.831 C53.072,54.161 47.788,46.922 41.942,40.126 C36.195,33.446 29.84,27.153 22.857,21.765 C17.432,17.577 10.763,12.269 3.464,13.259 C2.501,13.389 0.953,14.775 1.901,15.799 L1.901,15.799 Z" id="Shape"></path>
                    <path d="M2.653,14.997 C5.938,12.67 8.149,9.437 12.172,8.188 C15.17,7.256 19.75,8.875 22.558,10.064 C32.27,14.177 40.018,22.779 46.635,30.695 C54.096,39.62 60.566,49.394 66.314,59.496 C70.273,66.453 73.686,73.848 78.356,80.277 C79.459,81.797 82.102,79.915 82.261,78.527 C83.269,69.724 77.895,60.577 73.678,53.185 C67.074,41.608 59.496,30.49 50.662,20.496 C43.325,12.196 34.373,3.719 23.345,0.907 C15.25,-1.156 2.049,4.815 0.56,13.826 C0.355,15.053 1.669,15.693 2.653,14.997 L2.653,14.997 Z" id="Shape"></path>
                    <path d="M41.231,89.091 C43.8,88.516 46.199,87.252 48.705,86.438 C51.224,85.621 53.87,85.874 56.254,84.715 C57.515,84.101 58.938,81.844 57.695,80.574 C55.512,78.342 51.818,79.835 49.35,80.887 C45.937,82.34 42.537,84.344 40.006,87.076 C39.017,88.145 39.968,89.373 41.231,89.091 L41.231,89.091 Z" id="Shape"></path>
                </g>
            </g>
        </g>
    </g>
</svg>