<?xml version="1.0" encoding="UTF-8"?>
<svg width="720px" height="498px" viewBox="0 0 720 498" version="1.1" xmlns="http://www.w3.org/2000/svg" xmlns:xlink="http://www.w3.org/1999/xlink">
    <!-- Generator: Sketch 41 (35326) - http://www.bohemiancoding.com/sketch -->
    <title>camel</title>
    <desc>Created with Sketch.</desc>
    <defs></defs>
    <g id="Page-1" stroke="none" stroke-width="1" fill="none" fill-rule="evenodd">
        <g id="Layer_1" transform="translate(-6485.000000, -72.000000)" fill="#010101">
            <g id="Layer_1_3_">
                <g id="camel" transform="translate(6485.000000, 72.000000)">
                    <path d="M303.434,96.067 C309.312,103.615 314.412,110.623 317.928,119.638 C321.694,129.289 323.741,139.557 325.361,149.754 C328.319,168.392 329.712,187.115 334.191,205.508 C338.067,221.418 344.557,236.693 353.924,250.153 C358.676,256.981 364.384,263.085 370.622,268.57 C377.149,274.31 384.828,280.482 392.867,283.906 C394.773,280.774 396.681,277.641 398.587,274.509 C397.83,274.391 396.695,274.428 396.05,274.014 C393.212,272.189 389.53,275.973 389.551,278.687 C389.569,281.06 390.897,282.717 392.867,283.907 C397.545,286.731 404.706,278.44 399.695,274.895 C392.564,269.849 384.99,265.881 378.3,260.137 C372.009,254.736 366.464,248.503 361.601,241.799 C351.865,228.377 346.082,212.559 341.769,196.681 C336.777,178.306 335.075,159.32 331.042,140.749 C327.521,124.528 320.847,102.848 305.42,93.936 C304.317,93.297 302.611,95.012 303.434,96.067 L303.434,96.067 Z" id="Shape"></path>
                    <path d="M396.577,280.021 C400.983,286.907 403.436,295.896 405.482,303.748 C407.911,313.067 409.244,322.692 410.77,332.188 C414.211,353.599 417.647,375.244 422.899,396.299 C425.049,404.916 428.47,414.518 426.881,423.471 C426.746,424.23 426.481,425.416 426.075,426.034 C425.505,426.9 425.603,426.591 424.695,427.186 C421.545,429.255 418.496,431.33 415.847,434.033 C409.262,440.757 405.202,449.006 403.732,458.253 C403.166,461.805 403.052,464.701 403.803,468.211 C404.136,469.768 404.681,471.286 405.195,472.789 C405.376,473.307 405.556,473.824 405.736,474.342 C406.334,476.057 405.591,475.817 406.099,473.54 C409.074,471.395 412.048,469.25 415.022,467.105 C417.309,467.257 417.636,468.829 415.433,466.675 C411.294,462.63 401.998,469.092 404.757,474.296 C405.757,476.185 406.908,478.816 409.424,478.981 C413.464,479.248 417.434,476.65 418.347,472.547 C418.85,470.286 417.849,468.085 417.117,465.993 C415.953,462.663 415.497,460.586 415.966,457.261 C417.097,449.241 420.855,442.05 427.777,437.574 C434.088,433.493 438.006,428.78 439.153,421.162 C440.573,411.731 437.187,401.878 434.661,392.903 C428.691,371.694 423.981,350.075 418.69,328.684 C414.405,311.36 410.787,291.905 398.303,278.504 C397.5,277.645 395.976,279.083 396.577,280.021 L396.577,280.021 Z" id="Shape"></path>
                    <path d="M449.091,286.387 C452.109,287.777 454.747,289.982 457.882,291.084 C461.219,292.258 464.9,292.717 468.397,293.164 C476.616,294.216 484.875,294.217 493.145,294.029 C509.635,293.658 525.574,290.236 540.94,284.213 C548.376,281.299 555.532,277.676 562.426,273.656 C568.11,270.343 574.419,265.908 580.817,264.857 C585.677,264.058 590.646,263.776 595.563,263.591 C597.501,263.519 599.475,263.443 601.415,263.538 C602.531,263.594 603.669,263.851 604.788,263.786 C610.864,263.432 602.388,262.708 602.194,260.286 C602.499,264.1 606.393,263.975 609.039,262.784 C612.987,261.007 614.828,254.437 610.22,252.307 C606.014,250.363 599.349,251.493 594.868,251.727 C589.455,252.01 584.025,252.542 578.736,253.763 C570.555,255.652 562.958,261.239 555.78,265.355 C540.771,273.962 522.616,280.69 505.21,281.708 C496.382,282.224 487.588,282.566 478.75,282.827 C474.089,282.966 469.399,282.893 464.742,282.644 C460.281,282.407 455.776,283.371 451.351,282.671 C449.702,282.412 446.929,285.391 449.091,286.387 L449.091,286.387 Z" id="Shape"></path>
                    <path d="M625.432,225.688 C622.58,235.192 619.289,244.251 617.369,254.051 C615.565,263.254 614.362,272.589 613.988,281.963 C613.193,301.871 616.827,321.848 622.524,340.859 C623.365,338.446 624.206,336.033 625.046,333.62 C617.549,339.356 613.555,347.444 613.95,356.888 C614.322,365.755 618.526,374.321 621.736,382.423 C630.274,403.972 626.412,428.8 625.213,451.364 C629.028,449.172 632.844,446.979 636.66,444.787 C635.269,443.036 634.516,441.827 632.332,440.983 C629.107,439.737 626.139,442.141 625.164,445.148 C624.307,447.798 624.063,450.266 625.5,452.752 C629.171,459.108 637.376,452.88 637.666,447.371 C638.754,426.758 641.85,404.537 636.569,384.267 C633.367,371.975 618.349,351.676 631.833,341.353 C633.94,339.74 635.187,336.679 634.355,334.114 C628.658,316.546 625.101,298.741 624.438,280.259 C624.125,271.553 624.315,262.838 624.949,254.151 C625.637,244.69 626.085,234.879 627.448,225.524 C627.665,224.044 625.727,224.699 625.432,225.688 L625.432,225.688 Z" id="Shape"></path>
                    <path d="M633.112,445.093 C624.413,445.887 617.831,454.949 613.921,461.916 C609.42,469.937 607.742,479.365 606.521,488.357 C605.355,496.939 617.957,494.031 618.709,487.37 C619.513,480.262 620.342,472.861 622.874,466.126 C624.068,462.95 625.748,460.125 627.847,457.474 C630.035,454.711 632.96,452.495 634.888,449.549 C636.047,447.776 635.938,444.835 633.112,445.093 L633.112,445.093 Z" id="Shape"></path>
                    <path d="M660.593,355.594 C657.03,364.852 657.668,376.254 657.666,385.991 C657.663,401.664 658.16,417.328 658.197,433 C658.23,447.112 658.309,461.441 656.064,475.412 C655.649,477.996 655.113,480.564 654.406,483.084 C654.066,484.301 654.174,483.984 653.617,485.348 C653.436,485.789 652.11,488.201 652.924,486.908 C652.711,487.247 652.466,487.563 652.22,487.879 C651.387,488.943 653.25,486.9 652.297,487.765 C651.795,488.221 654.055,487.068 652.68,487.46 C654.693,486.886 651.11,487.24 652.635,487.343 C651.493,487.266 650.475,487.304 649.348,487.369 C646.846,487.516 642.543,491.134 644.231,494.01 C646.836,498.449 652.248,498.474 656.32,495.788 C660.77,492.852 662.947,488.244 664.546,483.332 C668.668,470.67 668.25,456.065 668.267,442.915 C668.302,414.231 665.71,385.644 662.647,357.186 C662.584,356.604 662.471,356.03 662.386,355.451 C662.236,354.428 660.87,354.876 660.593,355.594 L660.593,355.594 Z" id="Shape"></path>
                    <path d="M454.443,291.635 C451.6,296.451 448.797,301.045 447.063,306.431 C445.182,312.279 444.087,318.258 443.259,324.338 C441.75,335.427 442.163,347.443 443.95,358.479 C446.239,372.609 450.394,386.431 453.472,400.401 C457.009,416.46 459.919,433.141 458.902,449.642 C458.529,455.691 457.306,462.481 453.984,467.668 C452.697,469.676 451.154,471.376 449.2,472.643 C445.958,474.747 441.404,475.526 439.804,479.533 C442.968,479.276 446.132,479.02 449.296,478.764 C449.295,477.305 448.457,476.042 447.143,475.484 C444.346,474.296 441.074,476.547 440.446,479.375 C441.645,478.188 442.843,477.001 444.042,475.814 C440.726,476.762 436.254,484.563 442.047,485.126 C445.357,485.448 448.959,483.147 451.778,481.576 C455.005,479.776 457.693,477.253 460.112,474.498 C464.778,469.185 467.194,461.973 468.477,455.142 C471.586,438.603 468.773,421.056 465.607,404.753 C462.607,389.303 458.52,374.101 454.62,358.862 C452.301,349.801 451.474,340.439 451.266,331.105 C450.987,318.546 451.399,303.75 456.437,292.006 C457.105,290.449 455.051,290.603 454.443,291.635 L454.443,291.635 Z" id="Shape"></path>
                    <path d="M658.385,124.943 C658.844,132.576 663.883,138.593 669.216,143.673 C675.777,149.923 683.059,155.238 689.072,162.072 C702.076,176.852 702.289,198.762 697.276,216.761 C692.005,235.687 681.287,252.776 673.55,270.722 C664.681,291.291 660.387,314.194 662.571,336.524 C662.878,339.665 667.24,338.212 668.008,336.083 C672.477,323.694 674.223,310.829 676.651,297.915 C678.562,287.749 682.055,278.219 686.269,268.802 C694.528,250.345 704.854,232.807 709.977,213.09 C714.863,194.282 713.206,172.406 701.25,156.488 C695.827,149.268 688.062,143.901 680.915,138.535 C674.122,133.433 666.99,128.629 660.139,123.681 C659.417,123.161 658.343,124.232 658.385,124.943 L658.385,124.943 Z" id="Shape"></path>
                    <path d="M406.692,161.592 C415.717,168.342 430.083,163.703 438.745,158.367 C449.801,151.554 456.205,140.701 462.53,129.793 C465.803,124.147 469.983,119.92 476.623,118.794 C483.442,117.638 490.231,118.037 496.666,115.051 C505.992,110.724 511.525,102.15 516.207,93.367 C521.164,84.068 525.063,74.172 531.677,65.86 C538.637,57.112 550.733,52.263 561.56,51.03 C587.624,48.06 606.488,67.383 617.867,88.49 C626.91,105.265 635.508,124.771 653.541,133.755 C658.165,136.059 667.135,128.269 662.374,124.277 C657.559,120.239 652.611,116.568 648.343,111.913 C644.297,107.5 640.971,102.449 638.02,97.258 C632.34,87.268 627.669,76.792 621.11,67.307 C607.001,46.903 583.284,35.08 558.467,39.965 C546.594,42.302 534.671,48.092 526.093,56.732 C518.297,64.584 513.412,74.715 508.589,84.53 C505.038,91.755 501.135,102.278 493.057,105.534 C487.287,107.859 480.434,107.386 474.4,108.89 C467.618,110.582 462.049,115.27 457.792,120.619 C454.442,124.825 452.131,129.888 449.609,134.603 C446.942,139.59 443.488,144.229 439.536,148.278 C435.573,152.34 430.649,155.314 425.321,157.206 C419.629,159.228 413.557,158.817 407.675,159.522 C406.768,159.63 405.737,160.878 406.692,161.592 L406.692,161.592 Z" id="Shape"></path>
                    <path d="M312.172,32.465 C313.311,27.113 313.366,22.143 315.948,17.148 C318.078,13.03 322.372,10.246 326.873,9.44 C331.014,8.7 333.26,10.739 333.631,14.758 C334.039,19.165 332.6,23.769 330.639,27.662 C330.237,28.46 329.982,28.835 329.471,29.545 C329.014,30.182 328.333,30.691 328.817,30.376 C328.926,30.305 330.1,30.311 329.144,30.188 C328.002,30.041 327.579,30.334 326.623,30.094 C324.674,29.604 322.87,31.696 322.795,33.453 C322.38,43.193 333.367,36.932 336.348,32.656 C340.448,26.775 342.786,18.628 341.995,11.472 C341.063,3.039 334.269,0.197 326.691,2.52 C320.536,4.408 315.087,8.236 311.833,13.844 C308.678,19.281 306.104,27.481 308.752,33.566 C309.51,35.307 311.897,33.758 312.172,32.465 L312.172,32.465 Z" id="Shape"></path>
                    <path d="M310.655,24.185 C303.553,16.288 290.088,17.522 280.677,19.577 C268.594,22.216 258.289,28.128 247.073,33.056 C237.231,37.382 226.419,38.598 216.732,43.353 C209.46,46.923 201.083,54.429 197.755,61.871 C195.738,66.382 200.952,67.878 203.942,65.262 C209.557,60.35 212.575,54.069 219.442,50.441 C227.672,46.092 237.413,45.19 246.009,41.706 C255.85,37.717 264.906,31.999 275.082,28.828 C285.728,25.511 297.31,25.208 308.184,27.425 C309.649,27.721 311.911,25.582 310.655,24.185 L310.655,24.185 Z" id="Shape"></path>
                    <path d="M271.561,44.373 C273.41,54.52 292.759,52.344 296.045,44.213 C297.725,40.058 292.712,39.779 290.605,42.32 C286.535,47.225 278.216,45.66 273.425,43.033 C272.68,42.624 271.406,43.521 271.561,44.373 L271.561,44.373 Z" id="Shape"></path>
                    <path d="M197.893,67.7 C194.37,79.096 204.169,81.994 213.821,81.304 C219.818,80.874 225.833,79.334 231.626,77.804 C235.712,76.725 241.231,76.224 244.914,74.123 C246.238,73.367 248.43,70.015 245.997,69.067 C242.913,67.866 238.607,69.781 235.575,70.596 C230.713,71.906 225.855,73.247 220.928,74.293 C213.544,75.86 200.718,77.932 199.25,67.424 C199.125,66.544 198.059,67.165 197.893,67.7 L197.893,67.7 Z" id="Shape"></path>
                    <path d="M213.206,79.979 C208.435,82.597 206.296,86.769 205.185,91.936 C204.538,94.949 204.704,96.509 207.293,98.139 C210.509,100.162 214.286,101.311 217.986,102.023 C232.257,104.768 246.491,98.402 258.355,91.169 C262.456,88.669 266.231,86.529 271.149,86.879 C278.051,87.369 284.833,88.968 291.753,89.427 C302.923,90.168 320.073,88.174 325.3,76.332 C326.285,74.103 324.097,72.539 322.112,73.771 C317.959,76.35 314.726,79.5 309.989,81.13 C304.765,82.929 298.917,82.938 293.468,82.59 C285.246,82.065 276.567,79.044 268.321,80.284 C259.776,81.57 252.775,88.351 245.03,91.727 C233.887,96.583 220.984,97.998 210.069,91.877 C210.418,92.449 210.765,93.023 211.113,93.595 C210.354,88.534 211.176,85.433 214.58,81.541 C215.514,80.473 214.346,79.354 213.206,79.979 L213.206,79.979 Z" id="Shape"></path>
                    <path d="M336.688,31.932 C339.553,40.602 345.467,48.705 349.871,56.741 C354.017,64.305 356.388,72.477 358.528,80.78 C361.985,94.191 364.435,107.872 368.723,121.06 C372.485,132.637 378.286,143.99 387.741,151.928 C399.171,161.523 415.04,165.874 429.755,163.247 C431.234,162.983 434.741,159.615 431.971,158.565 C418.98,153.641 405.308,151.573 394.718,141.812 C385.869,133.656 381.286,122.245 377.872,110.969 C373.923,97.931 371.495,84.477 367.956,71.327 C363.514,54.819 354.216,38.318 338.234,30.574 C337.467,30.204 336.421,31.125 336.688,31.932 L336.688,31.932 Z" id="Shape"></path>
                    <path d="M715.095,214.037 C715.502,218.249 714.178,222.885 713.662,227.057 C713.171,231.043 712.26,234.985 711.266,238.87 C709.182,247.016 706.211,254.932 703.325,262.818 C698.394,276.295 694.621,290.089 691.471,304.089 C688.302,318.175 686.108,332.523 685.812,346.976 C685.671,353.873 686.254,360.773 687.537,367.549 C688.655,373.454 690.12,382.484 694.814,386.665 C698.512,389.96 705.625,385.68 704.96,380.835 C704.105,374.601 700.56,368.648 699.145,362.414 C697.623,355.701 697.341,348.637 697.284,341.78 C697.162,327.348 699.515,312.935 702.373,298.833 C705.167,285.045 708.617,271.692 712.941,258.309 C715.422,250.63 717.617,242.9 718.949,234.933 C719.545,231.369 719.816,227.767 719.918,224.158 C720.027,220.25 718.419,216.928 717.786,213.174 C717.494,211.449 714.96,212.646 715.095,214.037 L715.095,214.037 Z" id="Shape"></path>
                    <path d="M1.232,308.574 C2.317,308.574 3.053,306.636 1.648,306.636 C0.563,306.637 -0.173,308.574 1.232,308.574 L1.232,308.574 Z" id="Shape"></path>
                    <path d="M309.294,1.855 C306.159,-1.201 300.874,0.456 297.535,2.298 C292.96,4.825 290.097,9.787 289.172,14.788 C290.274,13.994 291.375,13.2 292.476,12.405 C290.406,11.951 289.041,11.805 287.084,12.675 C286.43,12.966 286.052,13.856 286.462,14.462 C287.496,15.995 288.582,16.571 290.403,16.804 C291.776,16.979 293.535,15.891 293.707,14.421 C294.13,10.814 295.541,7.97 298.331,5.616 C301.311,3.101 304.676,3.603 308.229,3.584 C308.895,3.581 309.937,2.482 309.294,1.855 L309.294,1.855 Z" id="Shape"></path>
                </g>
            </g>
        </g>
    </g>
</svg>