<?xml version="1.0" encoding="UTF-8"?>
<svg width="522px" height="542px" viewBox="0 0 522 542" version="1.1" xmlns="http://www.w3.org/2000/svg" xmlns:xlink="http://www.w3.org/1999/xlink">
    <!-- Generator: Sketch 41 (35326) - http://www.bohemiancoding.com/sketch -->
    <title>carpenter</title>
    <desc>Created with Sketch.</desc>
    <defs></defs>
    <g id="Page-1" stroke="none" stroke-width="1" fill="none" fill-rule="evenodd">
        <g id="Layer_1" transform="translate(-6688.000000, -1521.000000)" fill="#010101">
            <g id="Layer_1_3_">
                <g id="carpenter" transform="translate(6688.000000, 1521.000000)">
                    <path d="M170.787,136.846 C173.161,128.199 173.748,119.794 179.054,112.206 C183.822,105.39 190.556,100.459 197.855,96.65 C214.378,88.029 234.146,86.587 252.353,88.878 C271.801,91.327 288.068,100.544 300.665,115.355 C305.988,121.615 310.811,128.425 314.447,135.806 C317.206,141.405 317.754,146.696 317.199,152.298 C316.849,155.821 319.876,156.778 322.705,155.374 C340.144,146.708 318.435,118.958 311.43,110.431 C296.902,92.747 277.587,82.572 254.762,80.249 C233.689,78.106 211.93,80.941 193.25,91.317 C184.831,95.993 177.046,102.623 172.094,110.954 C167.619,118.48 163.739,129.396 168.045,137.729 C168.749,139.092 170.497,137.904 170.787,136.846 L170.787,136.846 Z" id="Shape"></path>
                    <path d="M243.189,70.927 C275.15,66.256 307.919,69.06 335.351,87.396 C342.44,92.133 347.77,99.2 352.571,106.141 C355.024,109.689 357.152,113.442 358.7,117.474 C359.305,119.05 359.6,120.324 359.618,121.99 C359.61,121.222 360.013,120.851 360.396,120.222 C359.208,122.179 359.014,122.495 359.813,121.173 C359.322,121.814 358.926,122.504 358.626,123.244 C357.138,126.665 358.659,131.363 363.172,130.68 C377.081,128.574 374.314,113.392 369.301,104.787 C363.975,95.64 356.776,86.801 348.357,80.311 C335.034,70.04 317.405,64.783 301.005,62.361 C281.262,59.446 262.341,64.301 243.347,69.04 C242.444,69.266 241.906,71.116 243.189,70.927 L243.189,70.927 Z" id="Shape"></path>
                    <path d="M206.66,66.856 C208.617,55.5 211.249,45.953 219.093,37.14 C226.456,28.867 236.769,22.631 247.007,18.64 C271.446,9.113 299.347,9.195 324.472,15.748 C347.512,21.759 370.281,33.731 383.867,53.76 C396.733,72.729 401.572,96.497 400.744,119.091 C403.419,116.249 406.094,113.405 408.768,110.564 C406.172,110.876 403.66,111.377 401.131,112.04 C396.818,113.172 393.343,120.353 398.977,122.096 C400.803,122.66 402.522,123.034 404.418,123.28 C409.513,123.94 413.694,119.667 414.052,114.827 C415.792,91.215 408.619,66.613 396.113,46.717 C382.435,24.956 358.512,12.95 334.535,5.846 C308.097,-1.987 279.46,-1.345 253.365,7.437 C233.132,14.246 211.498,29.859 204.895,51.083 C203.163,56.653 202.325,62.055 204.168,67.661 C204.601,68.976 206.504,67.755 206.66,66.856 L206.66,66.856 Z" id="Shape"></path>
                    <path d="M198.002,103.925 C194.835,124.343 194.824,145.653 197.176,166.171 C199.465,186.135 204.405,206.171 213.531,224.154 C222.138,241.113 234.903,255.573 251.832,264.514 C272.443,275.398 297.373,277.523 319.272,269.498 C341.712,261.276 363.384,244.93 376.232,224.714 C382.384,215.032 386.679,204.475 389.94,193.507 C391.663,187.711 392.887,181.762 393.809,175.789 C394.266,172.824 394.701,169.851 394.747,166.848 C394.792,163.963 393.843,161.152 393.661,158.266 C393.393,154.022 387.856,157.054 387.157,159.579 C386.255,162.844 384.73,165.82 383.768,169.066 C382.882,172.057 382.456,175.199 381.809,178.251 C380.444,184.684 378.86,191.065 376.916,197.35 C373.342,208.907 367.706,219.77 360.086,229.163 C351.957,239.184 340.694,246.797 329.538,253.059 C318.473,259.272 306.435,262.673 293.728,262.628 C273.414,262.555 253.455,253.076 239.341,238.798 C225.73,225.027 217.603,206.893 212.292,188.517 C204.253,160.699 203.415,131.819 201.882,103.139 C201.757,100.737 198.264,102.246 198.002,103.925 L198.002,103.925 Z" id="Shape"></path>
                    <path d="M410.145,124.725 C407.309,132.165 408.6,140.044 408.561,147.871 C408.522,155.633 407.542,162.66 399.442,165.242 C396.489,166.183 393.71,169.18 393.882,172.436 C394.046,175.527 397.337,176.91 400.019,175.881 C410.413,171.893 416.641,163.861 417.27,152.718 C417.54,147.96 416.624,143.12 415.854,138.447 C415.05,133.563 414.383,128.837 412.73,124.199 C412.288,122.958 410.469,123.877 410.145,124.725 L410.145,124.725 Z" id="Shape"></path>
                    <path d="M225.578,430.701 C230.2,416.779 235.286,402.876 244.792,391.385 C249.008,386.288 253.202,381.129 259.011,377.77 C263.207,375.344 267.189,375.986 271.898,377.477 C284.795,381.561 296.412,391.661 306.533,400.245 C316.583,408.769 325.679,418.888 336.304,426.684 C342.81,431.459 354.435,417.934 346.492,413.235 C344.011,411.767 341.458,411.051 338.573,411.477 C334.827,412.029 331.851,414.942 331.693,418.789 C331.572,421.731 333.124,423.518 334.957,425.613 C339.251,421.844 343.546,418.075 347.84,414.306 C336.845,404.285 325.158,394.695 313.418,385.565 C301.721,376.469 287.764,365.827 272.555,364.094 C256.832,362.304 243.444,375.674 235.806,388 C230.953,395.83 226.416,403.617 223.007,412.206 C220.408,418.754 217.795,425.678 219.302,432.725 C220.095,436.441 224.995,432.456 225.578,430.701 L225.578,430.701 Z" id="Shape"></path>
                    <path d="M222.446,439.793 C233.405,452.993 250.386,461.528 266.079,467.753 C269.667,469.177 273.376,470.304 277.084,471.364 C279.343,472.01 281.573,472.737 283.931,472.802 C285.603,472.848 283.392,472.754 284.951,472.853 C286.883,472.975 288.813,473.129 290.74,473.319 C291.743,473.418 292.742,473.548 293.738,473.701 C295.857,474.026 293.687,473.587 292.82,472.695 C292.451,470.98 292.082,469.265 291.713,467.549 C291.7,467.595 291.688,467.64 291.676,467.686 C292.801,465.857 293.926,464.029 295.052,462.2 C294.76,462.484 293.841,463.173 295.253,462.229 C291.675,464.621 287.025,473.047 294.262,474.334 C292.324,473.99 297.172,474.679 297.5,474.659 C300.509,474.486 303.384,472.533 305.179,470.231 C308.232,466.315 307.971,460.58 302.639,459.21 C298.016,458.024 292.451,458.917 287.727,459.089 C283.941,459.227 278.818,457.089 275.112,456.062 C269.163,454.414 263.36,452.193 257.565,450.077 C246.355,445.982 235.636,440.358 223.907,437.879 C223.01,437.692 221.748,438.953 222.446,439.793 L222.446,439.793 Z" id="Shape"></path>
                    <path d="M244.694,343.039 C237.932,351.817 232.175,361.498 225.816,370.586 C219.31,379.883 213.17,389.521 207.994,399.625 C203.094,409.189 198.956,419.873 198.201,430.666 C197.507,440.58 202.983,449.454 209.546,456.35 C215.2,462.289 222.078,467.207 228.706,472.008 C234.433,476.154 240.515,479.879 246.961,482.795 C253.13,485.584 259.894,487.543 266.601,485.668 C273.855,483.639 279.273,475.256 277.982,467.848 C276.591,459.864 266.131,464.726 264.948,470.482 C264.679,471.791 264.456,473.093 264.206,474.403 C264.1,474.962 263.843,474.803 264.763,473.925 C265.099,473.605 265.487,473.376 265.927,473.238 C265.161,473.464 265.069,473.496 265.647,473.334 C264.491,473.502 263.728,473.348 262.567,473.159 C256.819,472.226 251.393,469.172 246.395,466.342 C235.19,459.998 223.262,452.085 215.161,442.039 C203.016,426.983 213.231,407.261 221.103,392.595 C225.79,383.863 231.221,375.529 236.372,367.068 C240.892,359.644 246.043,352.145 248.622,343.78 C249.439,341.125 245.711,341.716 244.694,343.039 L244.694,343.039 Z" id="Shape"></path>
                    <path d="M253.47,341.309 C256.905,340.38 260.837,339.365 264.412,339.636 C268.117,339.917 271.516,342.503 274.447,344.554 C282.134,349.93 289.658,355.397 297.603,360.419 C303.839,364.362 310.722,367.357 316.726,371.632 C318.978,373.236 319.962,375.079 320.063,377.76 C320.093,378.58 319.916,379.713 319.453,380.417 C319.893,379.94 320.428,379.642 321.054,379.519 C320.104,379.709 319.155,379.902 318.205,380.096 C312.555,381.247 308.845,390.34 315.534,392.558 C326.426,396.169 333.636,381.982 333.758,373.37 C333.906,362.849 322.865,358.041 314.792,354.368 C302.623,348.832 291.958,340.239 279.7,334.864 C269.546,330.411 260.983,332.098 252.584,339.032 C251.483,339.942 251.867,341.743 253.47,341.309 L253.47,341.309 Z" id="Shape"></path>
                    <path d="M13.471,212.649 C17.891,218.982 25.575,223.134 32.208,226.759 C41.051,231.592 50.227,235.943 59.483,239.923 C78.964,248.298 98.426,256.294 117.367,265.876 C139.152,276.899 160.556,288.667 181.968,300.393 C192.879,306.369 203.803,312.319 214.796,318.142 C225.412,323.766 235.969,329.837 246.777,335.056 C249.356,330.818 251.936,326.578 254.516,322.339 C252.491,322.225 250.704,321.837 248.798,321.148 C242.617,318.911 232.948,328.265 239.993,332.769 C242.593,334.432 245.188,335.341 248.275,335.578 C251.598,335.832 254.587,334.473 256.625,331.785 C258.306,329.567 259.726,324.208 256.015,322.861 C245.274,318.961 235.082,313.043 224.923,307.83 C213.835,302.141 202.833,296.285 191.839,290.417 C170.261,278.9 148.734,267.282 126.7,256.653 C107.843,247.556 88.538,239.953 69.103,232.223 C59.54,228.419 49.957,224.684 40.591,220.409 C32.642,216.781 25.043,212.119 16.918,208.948 C14.916,208.166 12.053,210.618 13.471,212.649 L13.471,212.649 Z" id="Shape"></path>
                    <path d="M11.837,211.481 C8.505,219.539 7.368,228.837 5.221,237.294 C3.057,245.822 0.619,254.393 0.336,263.223 C0.21,267.161 4.725,268.348 7.744,267.381 C11.46,266.193 14.464,262.667 14.457,258.695 C14.443,250.494 15.459,242.716 16.877,234.636 C18.157,227.334 20.547,217.382 17.122,210.405 C15.963,208.042 12.624,209.581 11.837,211.481 L11.837,211.481 Z" id="Shape"></path>
                    <path d="M7.409,271.604 C11.182,269.444 16.211,268.619 20.372,267.491 C25.737,266.038 31.167,264.818 36.597,263.637 C35.324,262.186 34.05,260.735 32.777,259.283 C29.305,269.221 24.43,278.779 23.781,289.439 C23.624,292.033 26.705,292.759 28.626,292.158 C40.029,288.59 51.384,285.688 63.406,285.587 C62.165,284.172 60.923,282.756 59.68,281.341 C58.683,291.026 59.453,300.957 56.533,310.354 C55.472,313.764 59.017,315.088 61.642,314.477 C74.149,311.566 86.382,307.082 99.347,306.863 C97.996,305.774 96.646,304.684 95.296,303.595 C96.112,314.728 93.648,326.08 88.797,336.102 C87.422,338.943 88.97,342.15 92.34,341.897 C108.585,340.676 123.978,334.186 140.33,333.942 C138.957,332.836 137.585,331.729 136.213,330.622 C136.823,345.318 128.5,358.392 125.275,372.375 C124.684,374.941 126.616,377.343 129.321,376.984 C146.285,374.741 161.969,365.363 179.31,366.032 C177.913,364.905 176.516,363.779 175.119,362.652 C177.868,377 173.304,391.441 166.634,404.071 C164.663,407.801 167.935,410.907 171.659,409.8 C179.919,407.341 187.667,403.64 195.564,400.245 C199.209,398.679 202.914,397.29 206.701,396.11 C210.581,394.902 214.511,394.598 216.341,390.4 C217.716,387.249 216.179,384.518 212.715,384.468 C212.009,384.484 211.31,384.41 210.618,384.248 C206.501,383.415 199.9,391.164 205.11,393.299 C206.536,393.883 207.78,394.222 209.277,394.517 C208.747,392.141 208.215,389.765 207.685,387.389 C207.595,387.529 207.506,387.668 207.416,387.808 C209.107,386.827 210.798,385.844 212.488,384.862 C197.942,387.773 185.261,395.891 171.134,400.12 C172.809,402.03 174.485,403.939 176.159,405.849 C183.514,391.869 188.747,375.14 185.674,359.268 C185.209,356.866 183.871,355.976 181.483,355.888 C163.951,355.242 148.509,364.651 131.472,366.936 C132.821,368.472 134.169,370.009 135.518,371.545 C138.941,356.579 147.269,343.088 146.581,327.298 C146.48,324.992 144.547,323.943 142.464,323.978 C126.084,324.252 110.707,330.773 94.454,332.023 C95.635,333.955 96.816,335.886 97.997,337.818 C103.54,326.318 106.461,313.1 105.498,300.325 C105.328,298.064 103.551,297.017 101.447,297.057 C87.574,297.319 74.495,302.205 61.152,305.443 C62.855,306.818 64.558,308.192 66.261,309.566 C69.102,300.112 68.204,290.283 69.114,280.579 C69.355,277.999 68.107,276.285 65.388,276.333 C52.649,276.557 40.165,279.627 28.168,283.762 C29.782,284.668 31.397,285.575 33.013,286.481 C33.029,277.104 37.416,268.359 40.357,259.64 C41.295,256.862 38.281,255.806 36.197,256.284 C25.998,258.618 13.006,260.194 4.58,266.891 C1.559,269.291 3.795,273.671 7.409,271.604 L7.409,271.604 Z" id="Shape"></path>
                    <path d="M309.993,487.777 C314.134,484.216 317.052,478.421 320.671,474.249 C325.178,469.054 330.011,464.152 334.523,458.962 C338.711,454.147 342.614,448.955 345.29,443.133 C347.082,439.235 350.272,430.136 346.364,426.758 C342.498,423.414 337.417,427.266 336.185,431.321 C335.457,433.713 336.605,435.563 336.335,437.876 C336.025,440.526 334.862,442.878 333.616,445.197 C330.768,450.494 326.509,455.157 322.634,459.711 C318.576,464.48 314.358,469.118 310.753,474.248 C308.367,477.644 304.216,483.127 305.614,487.545 C306.237,489.51 308.898,488.719 309.993,487.777 L309.993,487.777 Z" id="Shape"></path>
                    <path d="M333.854,417.547 C335.766,420.666 337.843,421.63 341.333,422.355 C346.659,423.463 352.083,425.578 357.142,427.539 C367.81,431.674 378.128,436.877 389.477,438.93 C388.435,437.743 387.394,436.555 386.351,435.368 C386.662,447.345 382.996,459.354 378.687,470.405 C374.4,481.396 368.874,492.201 361.335,501.329 C354.794,509.249 346.962,514.329 336.499,512.948 C325.683,511.52 315.319,506.879 304.772,504.225 C305.92,505.534 307.069,506.843 308.217,508.151 C308.229,503.148 309.823,493.422 304.035,491.14 C301.787,490.254 299.086,491.202 297.728,493.235 C293.947,498.902 295.74,505.651 295.74,512.151 C295.739,514.223 297.318,515.612 299.185,516.077 C311.021,519.03 322.792,524.53 335.092,525.111 C348.754,525.757 359.338,518.516 368.327,508.873 C377.85,498.658 384.372,485.281 389.437,472.409 C394.474,459.609 398.339,445.611 397.668,431.738 C397.582,429.969 396.317,428.456 394.542,428.176 C383.924,426.5 374.142,422.013 364.131,418.307 C359.387,416.55 354.588,414.915 349.584,414.11 C345.362,413.43 341.188,415.635 337.018,414.15 C335.102,413.469 332.67,415.616 333.854,417.547 L333.854,417.547 Z" id="Shape"></path>
                    <path d="M346.867,489.767 C345.064,489.895 343.562,489.432 341.751,490.078 C341.322,490.248 340.899,490.431 340.481,490.627 C341.448,490.185 339.797,490.898 339.492,491.059 C338.672,491.486 337.907,492.08 337.215,492.694 C334.369,495.22 333.142,498.932 333.976,502.616 C334.699,505.815 337.692,507.623 340.542,508.602 C344.95,510.118 350.238,508.01 353.726,505.446 C355.426,504.195 356.616,501.462 355.83,499.409 C354.99,497.219 352.605,497.01 350.641,497.516 C349.37,497.843 348.156,498.326 346.881,498.636 C348.177,498.321 346.481,498.614 346.19,498.629 C345.296,498.675 347.028,498.748 345.629,498.599 C345.18,498.551 344.742,498.437 344.311,498.311 C345.506,498.659 344.295,498.227 344.016,498.067 C342.955,497.463 344.284,498.378 343.781,497.893 C343.52,497.641 343.307,497.347 343.104,497.048 C343.813,498.094 343.196,497.145 343.071,496.843 C342.641,495.809 343.083,497.336 343.01,496.66 C342.89,495.527 342.878,497.165 343.01,496.467 C343.233,495.291 342.776,496.939 343.088,496.24 C343.352,495.649 342.559,496.898 343.338,495.938 C342.772,496.552 342.925,496.39 343.797,495.451 C343.693,495.652 343.545,495.811 343.357,495.93 C344.298,495.305 345.229,494.344 346.511,494.034 C348.57,493.534 349.803,489.559 346.867,489.767 L346.867,489.767 Z" id="Shape"></path>
                    <path d="M380.793,253.873 C383.961,266.017 392.901,275.776 401.786,284.328 C411.553,293.727 422.338,301.873 433.103,310.07 C450.761,323.515 467.808,338.239 480.029,356.971 C493.405,377.474 498.379,402.368 498.69,426.527 C498.788,434.101 498.477,441.679 498.397,449.254 C498.31,457.442 499.403,465.724 500.406,473.837 C501.333,481.328 502.496,488.792 503.655,496.25 C504.24,500.016 504.839,503.778 505.412,507.545 C505.899,510.75 505.531,515.814 509.036,517.379 C514.351,519.754 521.169,514.512 520.917,508.837 C520.816,506.564 519.6,504.599 517.986,503.053 C513.302,498.562 503.059,505.677 506.036,511.584 C506.397,512.302 506.637,512.647 506.628,513.418 C510.588,510.57 514.549,507.723 518.509,504.875 C518.384,504.818 518.258,504.763 518.133,504.707 C518.936,506.027 519.738,507.348 520.541,508.669 C518.374,493.668 515.663,478.747 513.864,463.694 C511.983,447.948 512.986,432.34 512.435,416.547 C511.591,392.36 505.063,368.516 492.14,348.011 C480.278,329.194 462.966,314.408 445.273,301.281 C434.372,293.192 423.189,285.475 412.677,276.873 C402.706,268.714 394.107,258.756 383.51,251.489 C382.167,250.566 380.464,252.612 380.793,253.873 L380.793,253.873 Z" id="Shape"></path>
                    <path d="M398.199,446.009 C402.441,450.414 408.612,451.968 414.42,453.305 C422.126,455.078 430.007,456.409 437.439,459.184 C449.045,463.517 460.21,468.653 470.334,475.869 C479.937,482.715 487.138,491.607 491.07,502.715 C493.007,508.184 494.078,513.863 494.207,519.66 C494.257,521.895 493.902,524 493.311,526.148 C492.642,528.586 491.171,530.185 491.262,532.925 C491.376,536.394 494.9,537.32 497.7,536.539 C510.977,532.845 508.671,513.044 506.46,503.1 C503.525,489.902 496.416,478.683 486.134,469.999 C475.377,460.916 462.54,454.671 449.345,449.995 C441.691,447.284 433.982,445.711 425.885,445.103 C417.229,444.454 408.364,443.264 399.692,443.584 C398.744,443.621 397.319,445.095 398.199,446.009 L398.199,446.009 Z" id="Shape"></path>
                    <path d="M220.228,254.707 C217.103,255.855 214.662,258.105 211.981,260.033 C208.395,262.612 204.853,265.232 201.184,267.696 C194.114,272.442 186.781,276.846 179.594,281.418 C176.588,283.33 173.517,287.129 174.98,290.947 C176.35,294.52 181.139,294.563 183.927,292.746 C191.712,287.668 199.242,282.387 206.533,276.615 C212.617,271.8 221.613,265.469 223.978,257.734 C224.686,255.421 222.192,253.985 220.228,254.707 L220.228,254.707 Z" id="Shape"></path>
                    <path d="M135.292,331.021 C130.038,333.3 124.944,334.792 120.246,338.298 C115.206,342.059 110.809,346.73 106.892,351.631 C98.15,362.569 92.298,375.957 86.416,388.558 C80.362,401.529 74.701,415.156 72.735,429.416 C70.99,442.073 71.136,454.844 66.151,466.793 C70.451,465.917 74.751,465.042 79.049,464.166 C78.08,460.825 75.733,459.372 72.371,459.407 C70.328,459.428 67.853,461.264 67.156,463.167 C66.509,464.934 65.966,466.676 65.563,468.512 C64.957,471.279 66.365,474.044 69.273,474.583 C73.375,475.344 76.699,472.338 78.642,469.123 C84.443,459.526 84.63,446.752 85.594,435.912 C86.797,422.367 90.337,410.169 95.484,397.59 C100.712,384.816 106.572,371.896 113.525,359.96 C116.324,355.155 119.746,350.487 123.597,346.478 C127.406,342.514 131.46,337.714 136.044,334.655 C137.688,333.559 138,329.847 135.292,331.021 L135.292,331.021 Z" id="Shape"></path>
                    <path d="M380.659,266.118 C375.753,270.281 374.718,278.178 373.052,284.076 C370.729,292.303 368.839,300.662 366.756,308.952 C362.79,324.734 359.096,340.399 357.073,356.568 C355.59,368.433 354.723,380.224 355.12,392.167 C355.29,397.264 355.423,402.363 355.278,407.462 C355.231,409.16 355.043,410.829 354.626,412.476 C354.468,413.103 354.243,413.668 354.162,414.311 C354.116,414.678 354.434,418.827 354.273,416.602 C354.484,419.511 357.221,420.248 359.649,419.62 C369.038,417.189 366.869,402.899 366.66,395.712 C366.302,383.403 366.08,371.612 367.243,359.29 C368.758,343.259 372.011,327.71 375.53,312.028 C377.384,303.772 378.96,295.448 380.696,287.168 C381.61,282.811 382.385,278.424 383.259,274.059 C383.805,271.33 384.196,268.297 382.528,265.968 C382.085,265.35 381.098,265.746 380.659,266.118 L380.659,266.118 Z" id="Shape"></path>
                    <path d="M427.87,298.133 C424.45,302.709 423.138,308.554 421.598,313.974 C419.873,320.044 418.597,326.239 417.406,332.431 C414.98,345.027 414.102,357.963 413.505,370.755 C412.275,397.116 413.622,423.553 414.304,449.911 C418.039,447.765 421.774,445.62 425.508,443.474 C423.743,440.986 421.252,440.355 418.755,438.846 C416.242,437.328 412.665,440.523 412.844,443.097 C413.044,445.993 413.323,448.625 414.586,451.271 C417.645,457.678 426.574,451.289 426.493,446.004 C426.109,420.971 424.389,395.974 424.441,370.93 C424.468,358.438 425.109,345.936 426.464,333.516 C427.136,327.367 428.017,321.278 429.03,315.176 C429.926,309.783 432.208,303.778 431.432,298.305 C431.151,296.321 428.752,296.953 427.87,298.133 L427.87,298.133 Z" id="Shape"></path>
                    <path d="M221.679,254.571 C218.715,258.011 217.604,262.9 216.141,267.121 C214.295,272.44 212.672,277.768 211.752,283.335 C211.146,287.004 210.761,290.705 210.109,294.365 C209.534,297.602 208.011,301.594 210.065,304.465 C211.753,306.825 215.707,305.401 217.37,303.873 C222.746,298.934 220.361,289.205 221.041,282.583 C221.622,276.922 222.66,271.436 223.729,265.849 C224.399,262.346 225.708,257.252 223.199,254.256 C222.766,253.74 222.007,254.19 221.679,254.571 L221.679,254.571 Z" id="Shape"></path>
                    <path d="M509.844,506.166 C508.102,514.234 505.26,522.02 501.095,529.156 C497.94,534.564 506.293,536.05 509.001,531.907 C513.545,524.957 516.751,517.568 519.002,509.586 C515.899,510.213 512.798,510.84 509.695,511.466 C510.375,516.416 509.261,520.363 505.868,524.052 C508.447,524.949 511.027,525.847 513.607,526.744 C515.474,522.961 517.064,519.033 519.892,515.848 C517.205,515.342 514.519,514.835 511.832,514.328 C510.038,522.068 506.069,529.048 499.61,533.785 C502.235,534.299 504.861,534.812 507.486,535.327 C507.539,532.331 507.708,529.46 508.46,526.549 C509.14,523.912 507.065,521.78 504.46,521.991 C501.465,522.233 499.145,524.603 498.331,527.369 C497.259,531.017 497.254,534.814 497.306,538.591 C497.366,543.136 502.915,541.906 505.181,540.133 C513.625,533.528 518.408,523.812 520.959,513.59 C522.39,507.86 515.128,509.635 512.9,512.07 C509.426,515.865 507.403,520.594 505.184,525.174 C502.305,531.121 509.985,531.106 512.923,527.866 C517.787,522.504 519.858,515.619 519.096,508.452 C518.445,502.33 510.902,506.761 509.789,510.332 C507.864,516.512 505.276,522.545 501.79,528.011 C504.426,528.928 507.061,529.845 509.696,530.762 C513.783,522.894 516.661,514.034 515,505.124 C514.415,501.967 510.336,503.884 509.844,506.166 L509.844,506.166 Z" id="Shape"></path>
                    <path d="M273.696,191.204 C269.809,190.464 265.434,192.943 262.148,194.725 C257.307,197.35 252.751,200.687 248.751,204.463 C243.511,209.41 233.56,222.78 241.827,229.178 C245.241,231.821 249.391,226.454 249.626,223.571 C249.874,220.526 248.753,218.657 250.131,215.618 C251.538,212.513 254.172,209.964 256.642,207.697 C261.857,202.91 268.943,200.544 273.984,195.767 C275.249,194.568 276.182,191.677 273.696,191.204 L273.696,191.204 Z" id="Shape"></path>
                    <path d="M286.337,190.619 C287.545,199.949 299.961,205.242 306.898,209.612 C310.66,211.982 314.367,214.847 316.665,218.741 C318.052,221.092 318.86,223.757 319.258,226.44 C319.752,229.78 318.835,233.295 320.008,236.461 C321.568,240.666 327.28,237.364 328.519,234.728 C331.125,229.178 329.646,221.474 327.41,215.95 C325.348,210.858 321.441,207.03 317.108,203.829 C313.037,200.821 308.378,198.683 303.954,196.263 C301.693,195.025 299.398,193.848 297.141,192.601 C294.711,191.257 292.314,189.128 289.764,188.158 C288.313,187.605 286.115,188.897 286.337,190.619 L286.337,190.619 Z" id="Shape"></path>
                    <path d="M264.338,180.125 C263.119,186.702 271.045,187.948 275.904,188.321 C281.304,188.734 290.326,192.409 292.142,184.82 C292.482,183.395 292.007,181.611 290.593,180.928 C287.013,179.201 282.664,179.711 278.812,179.82 C274.616,179.938 271.344,178.582 267.337,177.962 C266.032,177.76 264.579,178.826 264.338,180.125 L264.338,180.125 Z" id="Shape"></path>
                    <path d="M206.314,66.429 C194.251,70.856 184.342,83.049 177.581,93.466 C173.893,99.149 170.864,105.23 168.437,111.55 C166.745,115.961 162.871,124.099 165.647,128.493 C166.421,129.719 168.374,128.553 168.963,127.805 C172.094,123.828 172.276,117.323 173.9,112.57 C175.83,106.924 178.481,101.54 181.465,96.384 C184.702,90.796 188.734,85.524 193.136,80.807 C197.41,76.227 202.455,72.874 207.317,69.006 C208.519,68.05 208.124,65.765 206.314,66.429 L206.314,66.429 Z" id="Shape"></path>
                    <path d="M168.117,134.082 C171.963,137.926 177.706,135.418 181.916,133.401 C187.522,130.716 194.171,125.769 198.218,121.056 C201.061,117.743 196.674,115.03 193.812,117.562 C192.863,118.402 191.406,119.785 191.285,121.129 C191.017,124.083 195.114,123.477 196.705,122.383 C195.741,120.777 194.777,119.169 193.812,117.562 C186.691,124.048 179.607,130.352 169.712,131.491 C168.757,131.601 167.113,133.079 168.117,134.082 L168.117,134.082 Z" id="Shape"></path>
                    <path d="M321.628,148.021 C320.98,150.384 320.653,152.819 319.947,155.157 C319.679,156.043 320.266,157.27 321.277,157.334 C330.895,157.931 340.125,151.819 347.123,145.836 C354.527,139.505 360.917,131.055 363.811,121.683 C364.117,120.691 363.668,119.376 362.707,118.911 C359.703,117.454 358.098,119.585 356.032,121.405 C355.025,122.293 354.233,124.293 355.743,125.141 C356.681,125.668 357.462,125.893 358.533,125.577 C359.031,125.431 362.231,123.876 360.062,124.822 C359.242,124.782 358.421,124.743 357.602,124.703 C357.763,124.806 357.924,124.907 358.085,125.009 C357.718,124.085 357.35,123.161 356.981,122.237 C352.188,137.741 337.612,149.133 322.272,152.687 C323.108,152.992 323.944,153.296 324.78,153.601 C324.066,151.639 323.788,149.525 323.143,147.534 C322.873,146.689 321.764,147.524 321.628,148.021 L321.628,148.021 Z" id="Shape"></path>
                    <path d="M367.525,120.808 C373.064,121.26 378.797,119.526 384.387,119.464 C390.614,119.396 399.811,121.337 403.25,127.322 C404.62,125.545 405.99,123.766 407.361,121.989 C404.804,122.376 403.229,122.841 401.724,125.054 C401.052,126.042 400.912,127.125 401.919,127.907 C403.129,128.846 404.4,128.881 405.899,128.802 C408.047,128.689 411.189,125.836 410.01,123.469 C406.674,116.771 397.607,113.757 390.718,113.166 C383.467,112.544 374.271,113.971 367.801,117.406 C366.775,117.954 365.513,120.644 367.525,120.808 L367.525,120.808 Z" id="Shape"></path>
                    <path d="M190.999,126.504 C184.494,132.63 182.245,141.579 182.329,150.357 C182.407,158.445 188.03,169.621 197.731,168.069 C199.682,167.756 203.994,163.519 200.543,162.127 C197.498,160.898 194.815,160.7 192.451,158.145 C190.048,155.547 189.153,151.706 188.716,148.311 C187.848,141.588 188.895,133.191 192.05,127.081 C192.434,126.333 191.481,126.05 190.999,126.504 L190.999,126.504 Z" id="Shape"></path>
                    <path d="M397.025,135.07 C397.126,133.875 396.574,135.171 396.401,135.576 C396.13,136.213 395.926,136.86 395.775,137.535 C395.381,139.283 395.174,141.053 394.956,142.828 C394.752,144.484 394.472,146.135 394.138,147.769 C393.837,149.232 393.106,150.748 393.777,152.225 C394.46,153.729 396.232,153.684 397.5,152.973 C401.22,150.888 401.186,145.993 401.332,142.251 C401.42,140.013 401.984,134.397 399.031,133.758 C399.291,134.054 399.551,134.351 399.811,134.648 C399.808,134.601 399.803,134.555 399.798,134.509 C399.651,132.835 397.131,133.81 397.025,135.07 L397.025,135.07 Z" id="Shape"></path>
                    <path d="M248.226,129.785 C244.88,133.836 245.17,140.412 244.522,145.353 C244.271,147.269 244.95,149.382 247.168,149.685 C248.223,149.83 249.268,149.901 250.334,149.917 C252.712,149.953 255.047,147.817 256.018,145.819 C259.253,139.157 259.732,129.899 251.989,126.217 C248.36,124.49 243.844,127.739 243.091,131.387 C242.043,136.45 241.737,141.264 243.944,146.067 C246.234,151.051 252.81,147.428 254.519,143.913 C256.038,140.786 256.984,137.565 257.199,134.099 C253.332,135.338 249.465,136.578 245.597,137.818 C245.667,140.732 246.14,143.738 248.361,145.802 C251.017,148.273 255.386,146.064 256.639,143.087 C257.987,139.886 257.355,137.398 257.199,134.099 C257.05,130.908 253.783,129.828 251.112,130.681 C247.961,131.689 245.727,134.536 245.597,137.818 C245.539,139.256 244.869,140.719 244.277,142.004 C247.802,141.286 251.328,140.568 254.852,139.85 C253.278,136.637 253.091,134.026 253.705,130.53 C250.739,132.254 247.773,133.977 244.807,135.7 C248.459,137.288 248.235,140.872 246.778,144.098 C248.673,142.732 250.567,141.367 252.462,140 C251.775,140.011 251.106,140.091 250.424,140.177 C251.741,141.24 253.06,142.301 254.376,143.364 C254.043,141.001 253.854,138.616 253.743,136.232 C253.643,134.068 254.011,131.401 253.159,129.387 C252.2,127.124 249.33,128.449 248.226,129.785 L248.226,129.785 Z" id="Shape"></path>
                    <path d="M303.838,132.654 C302.134,134.995 301.746,137.627 301.391,140.433 C301.008,143.446 300.667,146.628 301.11,149.654 C301.971,155.54 309.398,152.627 311.131,148.841 C313.904,142.783 314.952,136.308 312.769,129.896 C310.948,124.55 303.92,129.032 302.353,132.018 C300.064,136.381 297.382,142.038 299.081,147 C300.811,152.06 308.101,148.181 309.43,144.893 C310.873,141.324 310.9,137.447 312.442,133.899 C308.97,134.606 305.498,135.313 302.026,136.021 C303.636,140.309 302.541,144.162 301.218,148.378 C304.626,147.279 308.033,146.182 311.441,145.084 C310.327,141.325 311.963,134.878 309.129,131.554 C307.677,129.852 304.889,131.21 303.838,132.654 L303.838,132.654 Z" id="Shape"></path>
                    <path d="M218.944,257.424 C218.331,269.532 234.232,277.952 243.344,282.371 C256.298,288.653 270.726,291.995 284.983,293.392 C321.473,296.969 359.243,286.704 390.757,268.515 C394.014,266.635 395.536,260.641 390.317,260.666 C386.458,260.684 383.497,261.279 380.443,263.73 C378.28,265.464 378.169,269.554 381.662,269.39 C383.929,269.283 386.208,269.259 388.477,269.247 C388.331,266.631 388.184,264.015 388.037,261.398 C358.27,278.578 323.243,287.798 288.811,285.271 C275.382,284.285 262.122,281.11 249.647,276.069 C238.682,271.638 227.952,266.245 221.616,255.886 C220.801,254.559 218.991,256.503 218.944,257.424 L218.944,257.424 Z" id="Shape"></path>
                    <path d="M214.194,284.644 C220.682,296.486 233.682,304.017 245.914,308.74 C260.112,314.222 275.13,316.585 290.275,317.225 C319.672,318.468 352.059,312.151 376.757,295.516 C379.401,293.736 381.762,289.033 377.396,287.716 C373.416,286.517 370.894,287.403 367.485,289.572 C365.35,290.93 364.246,294.748 367.78,294.836 C369.589,294.881 371.686,295.684 373.398,296.2 C373.611,293.599 373.824,291 374.037,288.4 C351.058,303.876 321.988,309.07 294.708,308.885 C280.104,308.786 265.334,306.521 251.462,301.938 C238.441,297.636 227.5,290.429 216.233,282.854 C215.359,282.267 213.672,283.691 214.194,284.644 L214.194,284.644 Z" id="Shape"></path>
                    <path d="M378.409,212.774 C374.581,222.658 371.716,232.842 371.312,243.501 C371.037,250.772 373.606,266.626 382.737,267.039 C384.891,267.136 386.449,264.791 386.602,262.932 C386.919,259.058 383.358,256.132 381.831,252.654 C379.989,248.458 379.556,243.947 379.393,239.423 C379.069,230.436 381.029,221.591 380.5,212.607 C380.427,211.367 378.709,211.998 378.409,212.774 L378.409,212.774 Z" id="Shape"></path>
                </g>
            </g>
        </g>
    </g>
</svg>