<?xml version="1.0" encoding="UTF-8"?>
<svg width="501px" height="527px" viewBox="0 0 501 527" version="1.1" xmlns="http://www.w3.org/2000/svg" xmlns:xlink="http://www.w3.org/1999/xlink">
    <!-- Generator: Sketch 41 (35326) - http://www.bohemiancoding.com/sketch -->
    <title>carrot</title>
    <desc>Created with Sketch.</desc>
    <defs></defs>
    <g id="Page-1" stroke="none" stroke-width="1" fill="none" fill-rule="evenodd">
        <g id="Layer_1" transform="translate(-6698.000000, -801.000000)" fill="#010101">
            <g id="Layer_1_3_">
                <g id="carrot" transform="translate(6698.000000, 801.000000)">
                    <path d="M10.105,500.888 C15.273,495.209 18.891,488.72 22.893,482.182 C27.143,475.234 31.452,468.322 35.784,461.424 C44.12,448.153 52.591,434.968 61.085,421.799 C78.132,395.371 95.19,368.954 111.954,342.345 C143.267,292.644 169.111,239.853 208.124,195.386 C231.721,168.491 263.133,140.979 300.988,139.899 C311.161,139.609 322.423,141.269 332.934,143.217 C338.632,144.273 344.413,145.544 349.82,147.669 C352.026,148.535 354.147,149.61 356.13,150.909 C357.155,151.582 357.652,152.082 358.034,153.481 C359.831,160.065 369.226,155.781 371.707,152.374 C371.755,152.308 371.804,152.241 371.852,152.176 C367.603,153.059 363.353,153.942 359.103,154.824 C359.81,155.505 359.749,155.055 358.922,153.479 C360.136,150.95 361.349,148.42 362.563,145.891 C362.474,145.965 362.384,146.039 362.294,146.115 C364.31,145.212 366.325,144.308 368.34,143.405 C363.806,143.55 359.769,144.277 355.376,145.385 C350.37,146.649 346.269,155.154 352.864,157.108 C359.195,158.984 365.737,160.185 371.356,155.913 C373.336,154.409 375.455,150.942 374.997,148.326 C374.663,146.412 374.172,144.306 372.558,143.017 C368.44,139.731 362.782,141.501 359.81,145.666 C359.761,145.732 359.714,145.799 359.666,145.865 C364.224,145.496 368.781,145.127 373.339,144.758 C371.421,138.047 363.691,134.976 357.753,132.945 C349.482,130.115 340.774,128.703 332.121,127.645 C324.009,126.654 315.8,126.092 307.626,126.046 C297.747,125.991 287.697,128.498 278.312,131.371 C252.071,139.403 230.208,157.028 211.351,176.393 C191.467,196.814 174.607,219.875 159.268,243.838 C146.845,263.245 135.812,283.417 124.437,303.44 C111.607,326.024 98.302,348.367 84.623,370.446 C71.08,392.307 57.357,414.055 43.816,435.917 C37.369,446.325 30.976,456.766 24.655,467.251 C18.301,477.792 10.451,488.455 6.835,500.269 C6.125,502.582 9.243,501.835 10.105,500.888 L10.105,500.888 Z" id="Shape"></path>
                    <path d="M7.487,493.931 C2.305,499.88 -2.294,508.267 1.399,516.167 C4.55,522.904 12.763,525.561 19.602,526.168 C43.519,528.294 64.961,513.611 83.528,500.366 C107.481,483.276 129.401,463.648 153.632,446.905 C166.152,438.255 178.763,429.737 190.888,420.535 C203.409,411.032 215.298,400.73 227.914,391.324 C252.349,373.108 277.679,356.071 303.011,339.138 C325.179,324.321 349.574,309.667 367.446,289.581 C380.967,274.385 390.02,255.018 396.314,235.858 C402.591,216.749 405.658,195.28 399.974,175.659 C397.702,167.817 393.192,160.451 387.198,154.916 C386.729,154.509 386.261,154.099 385.798,153.686 C386.071,153.928 386.175,155.645 386.055,154.266 C385.91,152.594 385.785,150.33 384.429,149.119 C380.021,145.179 374.677,147.55 370.007,149.725 C367.376,150.951 363.762,157.286 368.031,158.947 C369.033,159.338 369.964,159.737 370.895,160.274 C369.154,159.271 370.175,159.448 369.966,158.413 C370.267,159.897 370.251,161.331 370.719,162.827 C371.894,166.583 376.922,169.704 379.26,172.878 C384.244,179.643 386.259,188.415 386.958,196.634 C388.663,216.697 382.471,237.307 374.185,255.352 C370.235,263.953 365.487,272.135 359.752,279.669 C353.358,288.067 344.678,294.901 335.972,301.763 C312.915,319.935 287.868,335.552 263.774,352.287 C237.873,370.276 212.161,388.607 188.138,409.076 C176.642,418.872 163.638,427.103 151.241,435.69 C138.603,444.444 126.069,453.36 114.236,463.186 C92.685,481.082 70.321,500.296 44.384,511.526 C36.375,514.995 4.134,520.571 8.693,503.436 C9.414,500.725 10.946,498.034 12.312,495.609 C14.312,492.059 9.278,491.874 7.487,493.931 L7.487,493.931 Z" id="Shape"></path>
                    <path d="M437.014,0.362 C411.635,12.231 392.107,35.229 375.429,57.085 C366.037,69.394 358.371,82.784 351.209,96.48 C347.726,103.143 344.473,109.924 340.963,116.572 C339.359,119.609 336.932,122.437 335.976,125.746 C335.689,126.742 335.484,127.729 335.302,128.751 C335.197,129.409 335.089,130.067 334.981,130.725 C334.581,132.615 335.065,131.804 336.434,128.292 C340.589,127.429 344.744,126.566 348.899,125.703 C348.311,125.023 347.536,124.536 346.824,123.995 C342.203,120.483 335.807,127.039 334.713,131.033 C334.288,132.584 334.095,134.238 334.839,135.739 C337.302,140.709 343.06,139.158 346.614,136.365 C348.772,134.67 350.018,132.104 350.528,129.465 C350.721,128.465 350.809,127.432 350.963,126.426 C351.47,123.108 348.476,130.319 351.621,125.03 C354.995,119.358 357.634,113.329 360.487,107.388 C367.192,93.429 374.071,79.429 382.731,66.558 C398.736,42.774 417.153,22.176 438.893,3.495 C440.895,1.776 439.473,-0.788 437.014,0.362 L437.014,0.362 Z" id="Shape"></path>
                    <path d="M389.881,4.686 C357.371,39.903 335.992,84.308 316.865,127.849 C321.678,127.458 326.489,127.069 331.302,126.679 C331.24,124.795 331.146,123.061 330.33,121.333 C327.629,115.61 319.199,119.268 317.447,123.957 C316.486,126.529 316.157,128.827 316.069,131.561 C315.965,134.813 319.247,136.671 322.117,136.439 C326.481,136.085 330.015,132.597 331.146,128.515 C337.258,106.453 346.371,85.192 356.857,64.881 C367.392,44.478 380.128,25.137 391.645,5.298 C392.405,3.991 390.538,3.976 389.881,4.686 L389.881,4.686 Z" id="Shape"></path>
                    <path d="M362.497,140.044 C372.308,132.439 378.835,120.158 385.774,110.023 C393.579,98.624 401.487,87.295 409.758,76.228 C426.281,54.119 444.578,33.243 466.613,16.457 C463.935,16.314 461.259,16.172 458.582,16.03 C460.244,21.447 462.944,25.013 467.027,28.719 C467.787,29.409 467.416,29.462 467.287,28.568 C467.228,28.166 466.686,29.843 466.353,30.504 C463.808,35.54 460.195,40.079 457.035,44.732 C446.92,59.622 437.656,75.045 427.9,90.165 C419.82,102.686 411.516,115.108 402.091,126.668 C397.923,131.778 393.509,136.589 388.339,140.702 C386.8,141.927 385.314,142.868 382.863,144.086 C384.143,143.45 381.244,144.56 380.729,144.688 C381.684,144.451 380.09,144.591 380.227,144.607 C370.726,143.503 363.247,159.429 375.055,159.726 C388.853,160.073 400.576,146.179 408.666,136.749 C419.389,124.25 428.344,110.214 436.99,96.237 C447.638,79.023 457.426,61.341 468.76,44.549 C472.394,39.166 480.229,30.242 477.849,23.01 C477.243,21.168 475.272,19.883 474.149,18.957 C471.333,16.634 469.911,13.627 468.788,10.212 C467.582,6.543 462.84,8.149 460.757,9.785 C438.694,27.133 420.393,48.615 403.871,71.178 C395.72,82.309 388.024,93.767 380.377,105.246 C376.458,111.129 372.46,116.972 368.701,122.958 C365.41,128.199 361.887,133.24 360.233,139.238 C359.811,140.773 361.723,140.645 362.497,140.044 L362.497,140.044 Z" id="Shape"></path>
                    <path d="M497.409,73.43 C480.93,91.946 466.009,112.396 447.571,129.069 C430.112,144.857 409.116,156.12 390.289,170.11 C394.154,172.228 398.019,174.345 401.885,176.463 C403.415,173.666 404.829,169.002 401.892,166.553 C399.123,164.243 395.937,165.167 393.289,167.25 C392.193,168.112 391.319,169.211 390.289,170.11 C387.435,172.6 384.996,177.67 387.948,181.034 C391.046,184.564 396.05,182.398 399.084,180.132 C418.335,165.748 439.282,153.548 456.73,136.869 C475.044,119.363 488.802,96.775 500.211,74.405 C501.293,72.28 498.461,72.247 497.409,73.43 L497.409,73.43 Z" id="Shape"></path>
                    <path d="M492.866,109.677 C489.723,113.427 486.236,116.927 482.458,120.038 C478.469,123.324 475.13,127.871 471.47,131.544 C463.758,139.282 455.589,146.773 446.999,153.523 C438.96,159.837 430.69,165.665 421.72,170.589 C417.316,173.006 412.781,175.109 408.087,176.895 C403.347,178.699 398.118,179.386 393.663,181.83 C390.293,183.679 385.767,193.011 392.714,193.429 C402.8,194.035 414.333,187.124 422.88,182.311 C432.738,176.758 441.862,169.784 450.424,162.421 C459.066,154.988 467.005,146.635 474.425,138 C478.23,133.571 481.948,129.071 485.512,124.447 C488.863,120.099 491.291,115.037 494.507,110.564 C495.454,109.245 493.737,108.639 492.866,109.677 L492.866,109.677 Z" id="Shape"></path>
                    <path d="M20.147,506.265 C31.665,509.849 42.778,500.342 51.606,494.072 C63.85,485.376 77.24,478.262 89.865,470.123 C115.982,453.287 140.048,433.223 164.298,413.85 C202.113,383.64 238.183,351.488 275.288,320.455 C300.479,299.387 325.89,278.039 346.186,252.021 C354.955,240.781 363.508,228.094 366.647,213.972 C369.215,202.408 366.09,188.614 354.379,183.565 C350.845,182.042 345.793,186.6 348.279,190.109 C351.518,194.68 354.842,199.132 356.278,204.635 C357.625,209.793 356.525,215.54 355.064,220.535 C350.86,234.913 340.488,247.53 330.876,258.652 C310.024,282.78 285.475,303.465 261.225,324.041 C245.829,337.104 230.979,350.807 215.597,363.894 C194.567,381.787 173.168,399.244 151.571,416.445 C129.749,433.826 108.085,451.512 84.584,466.602 C73.417,473.772 61.579,480.052 50.737,487.7 C41.082,494.512 31.99,500.415 20.627,504.025 C19.703,504.317 18.86,505.864 20.147,506.265 L20.147,506.265 Z" id="Shape"></path>
                    <path d="M189.519,207.595 C198.011,210.191 207.154,210.437 215.45,213.66 C219.257,215.139 222.952,217.549 225.073,221.141 C226.279,223.185 227.153,225.715 229.835,226.212 C232.437,226.693 234.929,225.217 236.454,223.204 C243.686,213.667 227.015,205.526 220.161,203.814 C210.711,201.453 200.831,202.46 191.223,202.615 C188.844,202.654 186.516,206.678 189.519,207.595 L189.519,207.595 Z" id="Shape"></path>
                    <path d="M189.046,301.478 C196.741,303.527 203.768,307.114 210.166,311.832 C213.268,314.117 215.961,316.897 218.368,319.891 C220.642,322.718 221.383,327.13 224.031,329.451 C226.027,331.2 229.403,329.314 229.787,326.871 C230.99,319.212 221.682,312.312 216.095,308.613 C208.475,303.568 199.266,300.437 190.325,298.764 C188.886,298.493 187.238,300.996 189.046,301.478 L189.046,301.478 Z" id="Shape"></path>
                    <path d="M283.909,165.771 C292.589,167.378 300.663,170.952 307.442,176.632 C310.987,179.603 313.283,183.489 316.48,186.714 C318.965,189.221 323.506,187.519 324.973,184.734 C329.036,177.014 315.78,169.968 310.219,167.07 C302.542,163.068 293.612,161.335 285.043,162.451 C283.664,162.631 281.708,165.362 283.909,165.771 L283.909,165.771 Z" id="Shape"></path>
                    <path d="M309.286,264.968 C313.372,267.354 317.256,270.12 321.003,273.006 C323.81,275.167 329.957,279.29 330.502,283.137 C330.813,285.332 332.341,286.52 334.558,286.408 C335.927,286.339 337.031,285.833 338.101,284.982 C333.699,288.482 338.642,284.517 339.441,283.572 C340.697,282.084 341.369,279.328 339.889,277.744 C336.413,274.022 331.778,270.981 327.532,268.231 C322.854,265.203 317.292,261.704 311.633,261.115 C309.911,260.935 307.097,263.69 309.286,264.968 L309.286,264.968 Z" id="Shape"></path>
                    <path d="M99.571,355.485 C107.848,356.902 113.835,363.992 121.742,366.302 C126.354,367.65 131.58,359.246 125.863,357.559 C117.613,355.123 110.057,350.106 101.199,350.727 C99.118,350.873 96.5,354.96 99.571,355.485 L99.571,355.485 Z" id="Shape"></path>
                    <path d="M126.119,423.188 C132.108,426.069 135.45,431.174 139.489,436.199 C140.662,437.658 142.563,437.439 144.155,437.113 C144.402,437.063 144.648,437.012 144.894,436.962 C146.809,436.57 148.366,434.575 148.824,432.785 C148.898,432.495 148.973,432.204 149.048,431.914 C149.3,430.926 149.198,429.175 148.304,428.463 C142.55,423.882 136.087,420.107 128.745,418.874 C126.811,418.55 123.634,421.993 126.119,423.188 L126.119,423.188 Z" id="Shape"></path>
                    <path d="M69.283,441.292 C70.807,441.848 72.311,442.37 73.78,443.064 C75.669,443.958 77.403,445.068 79.516,445.238 C82.669,445.491 86.067,442.184 84.201,439.096 C82.261,435.885 76.643,435.65 73.309,434.676 C71.735,434.217 69.858,435.473 68.965,436.649 C68.09,437.805 67.354,440.59 69.283,441.292 L69.283,441.292 Z" id="Shape"></path>
                    <path d="M47.07,485.253 C49.522,486.943 51.809,488.716 54.072,490.649 C56.111,492.389 57.809,495.28 60.164,496.504 C62.518,497.727 66.006,495.069 65.731,492.5 C65.385,489.266 62.25,487.459 59.726,485.843 C56.771,483.95 53.42,482.594 50.302,480.987 C48.024,479.812 44.655,483.588 47.07,485.253 L47.07,485.253 Z" id="Shape"></path>
                    <path d="M149.708,264.196 C153.091,265.091 156.361,265.85 159.601,267.241 C162.547,268.506 165.72,269.557 168.935,269.717 C170.267,269.782 172.123,268.291 171.096,266.884 C166.941,261.184 157.845,258.818 151.137,260.02 C149.404,260.331 146.944,263.466 149.708,264.196 L149.708,264.196 Z" id="Shape"></path>
                    <path d="M274.848,338.351 C275.095,340.714 275.723,343.401 277.063,345.391 C277.836,346.538 279.706,346.493 280.837,346.13 C282.703,345.534 284.389,343.878 284.792,341.926 C285.379,339.087 284.032,336.166 281.903,334.296 C279.272,331.984 274.495,334.984 274.848,338.351 L274.848,338.351 Z" id="Shape"></path>
                    <path d="M17.961,500.511 C18.708,501.203 19.48,501.86 20.299,502.466 C20.934,502.936 21.725,503.399 22.553,503.252 C21.885,503.37 23.658,503.342 23.321,503.335 C23.995,503.349 24.514,503.101 25.116,502.831 C26.121,502.383 26.671,501.264 26.734,500.231 C26.784,499.43 26.335,498.851 25.857,498.262 C26.014,498.664 26.17,499.068 26.328,499.471 C26.251,498.811 26.122,498.272 25.62,497.805 C25.013,497.318 24.886,497.218 25.238,497.507 C25.06,497.365 24.891,497.213 24.721,497.062 C24.257,496.646 23.834,496.185 23.41,495.729 C22.177,494.399 20.088,495.057 18.907,496.093 C17.869,497.006 16.632,499.28 17.961,500.511 L17.961,500.511 Z" id="Shape"></path>
                </g>
            </g>
        </g>
    </g>
</svg>