<?xml version="1.0" encoding="UTF-8"?>
<svg width="337px" height="506px" viewBox="0 0 337 506" version="1.1" xmlns="http://www.w3.org/2000/svg" xmlns:xlink="http://www.w3.org/1999/xlink">
    <!-- Generator: Sketch 41 (35326) - http://www.bohemiancoding.com/sketch -->
    <title>cat</title>
    <desc>Created with Sketch.</desc>
    <defs></defs>
    <g id="Page-1" stroke="none" stroke-width="1" fill="none" fill-rule="evenodd">
        <g id="Layer_1" transform="translate(-2804.000000, -69.000000)" fill="#020202">
            <g id="Layer_1_3_">
                <g id="cat" transform="translate(2803.000000, 69.000000)">
                    <path d="M84.697,100.712 C90.706,93.564 95.189,86.439 102.628,80.454 C110.759,73.916 119.945,68.775 129.175,63.976 C139.168,58.78 148.895,53.864 159.754,50.657 C165.976,48.816 172.296,47.335 178.617,45.865 C182.096,45.058 184.827,47.85 188.45,45.503 C191.539,43.501 195.815,36.539 189.621,35.15 C188.243,34.839 186.637,34.901 185.238,34.837 C182.137,34.693 177.01,39.733 179.998,42.728 C181.224,44.37 181.492,44.224 180.797,42.29 C184.16,40.079 187.523,37.868 190.882,35.656 C187.918,33.519 183.005,34.729 179.749,35.359 C172.998,36.672 166.14,39.19 159.532,41.131 C146.63,44.933 135.011,51.174 123.243,57.542 C113.145,63.01 103.292,69.176 94.706,76.834 C88.45,82.418 79.307,91.647 80.943,100.832 C81.28,102.72 84,101.542 84.697,100.712 L84.697,100.712 Z" id="Shape"></path>
                    <path d="M36.655,88.663 C42.012,89.589 47.092,90.036 52.274,91.851 C57.921,93.827 63.566,99.38 69.324,100.455 C74.211,101.365 77.484,108.056 82.859,107.284 C86.501,106.764 89.045,104.76 90.287,101.274 C90.302,101.233 90.315,101.192 90.328,101.15 C90.74,99.998 90.522,98.02 89.598,97.126 C87.994,95.575 86.484,94.873 84.212,95.151 C81.598,95.472 78.964,97.152 78.355,99.893 C78.147,100.819 78.334,103.395 78.278,102.994 C79.248,101.128 80.221,99.264 81.195,97.397 C81.156,97.428 81.117,97.46 81.079,97.492 C83.555,97.099 86.029,96.704 88.505,96.311 C83.598,93.799 78.209,92.282 73.208,90.016 C62.437,85.139 50.123,79.168 38.105,82.798 C36.036,83.423 32.932,88.018 36.655,88.663 L36.655,88.663 Z" id="Shape"></path>
                    <path d="M192.353,0.957 C186.574,5.781 185.436,17.738 184.079,24.622 C182.913,30.526 179.396,42.196 186.792,45.119 C190.583,46.616 196.156,41.754 195.716,37.895 C195.08,32.322 194.869,27.141 195.312,21.48 C195.613,17.621 196.024,13.765 196.598,9.939 C196.952,7.568 197.983,3.66 196.851,1.416 C195.939,-0.381 193.764,-0.22 192.353,0.957 L192.353,0.957 Z" id="Shape"></path>
                    <path d="M34.809,86.645 C28.382,101.589 36.857,121.997 44.089,135.158 C52.902,151.197 65.593,164.983 80.67,175.325 C94.25,184.641 111.183,190.564 127.77,188.846 C136.371,187.954 144.486,184.819 151.654,180.035 C158.481,175.481 169.158,166.835 170.821,158.472 C172.08,152.131 164.97,151.374 161.046,154.455 C157.752,157.045 156.137,160.698 153.499,163.893 C151.012,166.906 148.042,169.393 144.863,171.646 C139.639,175.35 132.942,176.999 126.657,177.435 C111.994,178.448 97.787,171.969 85.798,164.155 C72.32,155.369 61.118,143.182 52.653,129.568 C48.497,122.88 45.365,115.578 43.029,108.073 C40.785,100.866 41.191,93.111 38.899,86.014 C38.263,84.043 35.388,85.306 34.809,86.645 L34.809,86.645 Z" id="Shape"></path>
                    <path d="M194.313,4.877 C203.692,14.286 212.578,23.32 219.905,34.527 C227.997,46.906 233.597,61.043 236.446,75.543 C238.773,87.394 238.394,100.522 232.342,111.219 C229.604,116.056 225.122,119.542 220.253,122.027 C213.053,125.697 204.014,124.488 197.582,129.256 C194.592,131.473 193.079,136.354 196.547,138.816 C202.922,143.338 216.732,137.003 223.016,134.032 C230.005,130.727 236.256,125.613 240.914,119.449 C250.018,107.401 251.957,91.762 250.067,77.15 C247.942,60.744 241.297,45.319 232.554,31.395 C224.607,18.737 212.87,4.888 198.085,0.287 C196.037,-0.352 192.375,2.935 194.313,4.877 L194.313,4.877 Z" id="Shape"></path>
                    <path d="M172.32,84.072 C154.015,80.301 126.724,84.033 115.66,101.021 C111.982,106.67 112.154,115.458 115.996,120.939 C119.58,126.056 126.896,126.892 132.587,126.64 C147.772,125.966 163.699,118.117 175.639,109.112 C179.962,105.85 184.803,101.403 186.049,95.896 C187.519,89.392 180.98,86.555 175.61,87.79 C173.461,88.286 170.255,91.814 172.369,94.013 C173.432,95.117 174.516,95.824 175.14,96.841 C174.543,95.87 174.861,96.856 174.95,96.66 C173.891,99.033 170.033,101.947 166.922,104.172 C158.286,110.354 147.326,115.42 136.755,116.933 C127.838,118.208 118.468,113.466 123.369,102.854 C126.905,95.193 138.687,92.531 146.008,90.862 C153.925,89.059 162.926,87.568 171.071,87.386 C172.564,87.349 174.466,84.513 172.32,84.072 L172.32,84.072 Z" id="Shape"></path>
                    <path d="M178.011,76.768 C180.631,72.071 185.307,70.881 190.413,70.558 C192.569,70.42 194.697,70.569 196.813,70.975 C198.136,71.231 199.151,71.823 199.293,72.017 C202.141,75.782 208.628,71.747 209.266,68.075 C210.782,59.324 197.24,60.013 191.805,60.631 C183.136,61.622 171.683,66.181 170.185,76.016 C169.348,81.476 176.129,80.135 178.011,76.768 L178.011,76.768 Z" id="Shape"></path>
                    <path d="M89.466,129.726 C90.285,127.57 90.572,124.642 92.077,122.848 C92.112,122.805 93.245,122.344 94.699,122.545 C96.399,122.784 98.187,123.36 99.096,123.862 C99.462,124.063 100.094,124.78 99.307,123.89 C100.14,124.832 101.522,125.513 102.812,125.33 C103.983,125.165 104.85,125.026 105.939,124.525 C103.321,125.728 103.099,125.369 105.224,124.941 C108.366,124.31 110.373,121.068 109.84,118.066 C109.746,117.538 109.413,117.101 109.115,116.665 C109.368,117.394 109.624,118.121 109.882,118.849 C109.899,118.281 109.805,117.708 109.569,117.192 C108.747,115.387 107.381,114.714 105.451,114.64 C106.879,114.697 104.311,114.349 103.873,114.26 C102.481,113.973 101.058,113.854 99.644,113.745 C96.76,113.526 93.728,113.965 91.068,115.098 C85.172,117.609 81.365,125.218 85.172,130.914 C86.209,132.464 88.959,131.058 89.466,129.726 L89.466,129.726 Z" id="Shape"></path>
                    <path d="M116.598,145.445 C120.05,158.679 139.274,155.07 147.972,150.748 C160.381,144.576 170.299,130.718 168.661,116.468 C165.52,118.535 162.375,120.603 159.235,122.671 C175.406,130.777 189.787,127.224 204.746,118.575 C209.479,115.838 216.59,111.998 218.246,106.309 C219.74,101.169 215.329,98.227 210.677,99.851 C208.485,100.616 205.096,103.406 206.427,106.182 C206.905,107.531 207.197,107.002 207.313,104.601 C206.641,105.545 205.296,106.283 204.389,106.955 C201.518,109.084 198.282,110.768 195.139,112.452 C185.556,117.589 176.835,117.56 166.888,113.292 C162.117,111.247 156.742,115.711 157.676,120.748 C159.415,130.132 152.933,138.296 145.272,142.913 C141.224,145.352 136.533,146.645 131.825,146.725 C127.073,146.807 123.319,144.435 118.926,143.15 C117.668,142.781 116.28,144.232 116.598,145.445 L116.598,145.445 Z" id="Shape"></path>
                    <path d="M102.478,74.644 C103.059,76.981 103.393,79.416 104.148,81.709 C105.064,84.48 107.671,86.556 110.257,87.359 C113.549,88.384 117.431,84.811 117.383,81.589 C117.329,78.051 115.633,74.089 113.15,71.544 C111.11,69.454 108.325,70.277 106.205,71.77 C105.798,72.052 105.491,72.457 105.151,72.812 C103.757,74.273 103.265,76.848 104.537,78.516 C105.887,80.289 107.544,81.92 107.703,84.204 C110.077,82.282 112.457,80.357 114.83,78.434 C114.482,78.346 112.16,77.715 113.564,78.314 C113.626,78.339 112.445,77.594 112.848,77.958 C112.098,77.284 111.888,76.75 111.546,76.012 C110.525,73.786 109.636,71.986 107.694,70.417 C105.327,68.504 101.892,72.292 102.478,74.644 L102.478,74.644 Z" id="Shape"></path>
                    <path d="M127.001,63.33 C126.563,66.93 126.074,70.343 127.04,73.918 C128.042,77.608 132.14,79.577 135.52,80.337 C138.945,81.107 142.544,77.98 142.631,74.578 C142.766,69.517 142.195,63.917 138.07,60.493 C136.039,58.807 132.799,59.411 130.682,60.465 C128.352,61.628 124.781,65.401 126.328,68.268 C126.314,67.653 126.302,67.036 126.283,66.42 C126.248,66.601 126.213,66.781 126.179,66.96 C125.649,69.667 128.515,71.314 130.8,69.825 C130.367,69.912 129.937,70.002 129.504,70.089 C130.321,70.051 131.09,69.842 131.816,69.463 C132.255,69.276 132.694,69.093 133.126,68.875 C132.302,69.296 131.609,69.296 130.707,68.913 C131.56,69.272 130.394,68.434 131.087,69.253 C132.571,71.015 132.841,74.768 132.971,77.188 C135.34,75.269 137.71,73.35 140.082,71.43 C138.882,71.258 137.308,71.148 136.26,70.652 C135.523,70.303 134.945,69.664 134.642,69.076 C134.081,67.985 133.786,66.746 133.464,65.567 C133.061,64.087 132.248,62.868 131.469,61.563 C130.385,59.748 127.191,61.788 127.001,63.33 L127.001,63.33 Z" id="Shape"></path>
                    <path d="M145.376,54.038 C145.261,56.392 144.341,58.862 144.672,61.33 C145.115,64.637 147.656,66.143 150.53,67.286 C149.959,66.937 149.39,66.59 148.817,66.242 C148.921,66.354 149.026,66.465 149.132,66.578 C151.334,68.928 154.978,67.535 156.761,65.37 C158.933,62.729 161.138,58.966 158.916,55.685 C157.892,54.175 155.766,53.323 154.183,52.528 C150.452,50.651 144.293,54.85 145.925,59.213 C146.613,61.045 148.139,61.953 149.802,62.769 C150.031,62.883 150.265,62.99 150.488,63.115 C150.99,63.396 149.927,62.423 149.803,62.162 C149.682,61.916 149.935,60.283 149.698,61.197 C149.978,60.121 149.157,61.987 148.993,62.248 C150.373,61.127 151.756,60.01 153.139,58.893 C152.946,58.943 152.758,58.995 152.566,59.045 C153.308,59.022 154.05,58.999 154.79,58.974 C153.311,58.808 152.742,58.769 152.035,58.33 C152.604,58.684 151.935,58.199 151.766,57.944 C152.199,58.591 151.735,57.632 151.677,57.434 C151.442,56.606 151.334,55.742 151.124,54.906 C150.853,53.813 150.124,52.859 149.542,51.879 C148.347,49.856 145.449,52.534 145.376,54.038 L145.376,54.038 Z" id="Shape"></path>
                    <path d="M52.431,103.668 C50.216,109.335 51.517,114.512 54.367,119.639 C54.884,120.567 56.346,120.24 57.078,119.916 C61.791,117.833 70.275,115.938 66.608,108.921 C64.659,105.195 57.538,103.302 54.141,105.679 C53.721,105.972 53.271,106.662 53.347,107.201 C53.983,111.793 61.824,109.005 62.244,114.469 C62.654,113.679 63.068,112.889 63.48,112.101 C61.244,114.219 58.455,114.76 55.748,116.046 C56.652,116.139 57.556,116.232 58.46,116.322 C55.488,112.344 54.68,108.459 54.942,103.587 C55.019,102.113 52.79,102.748 52.431,103.668 L52.431,103.668 Z" id="Shape"></path>
                    <path d="M200.953,26.436 C198.607,31.12 199.778,36.501 199.64,41.532 C199.617,42.452 200.277,43.03 201.075,43.303 C205.433,44.782 209.213,44.607 213.648,43.603 C215.264,43.235 216.65,41.632 216.671,39.967 C216.733,35.328 214.522,27.051 209.108,25.946 C207.61,25.643 205.292,27.087 205.55,28.825 C205.842,30.742 207.071,32.248 208.077,33.882 C209.549,36.269 210.284,38.851 210.487,41.635 C211.232,40.527 211.977,39.417 212.721,38.309 C209.653,39.541 206.724,39.194 203.631,38.3 C204.111,38.89 204.586,39.48 205.067,40.069 C204.754,35.446 203.588,31.006 203.942,26.338 C204.081,24.501 201.439,25.469 200.953,26.436 L200.953,26.436 Z" id="Shape"></path>
                    <path d="M98.826,143.37 C78.907,144.779 60.113,157.383 44.833,169.3 C36.099,176.115 28.012,183.762 20.324,191.727 C13.523,198.773 5.098,206.628 1.198,215.763 C0.269,217.935 2.609,218.894 4.207,217.595 C11.022,212.055 16.17,204.408 22.06,197.922 C29.06,190.211 36.567,182.984 44.478,176.216 C60.697,162.335 78.405,152.698 98.54,145.865 C99.608,145.501 100.642,143.241 98.826,143.37 L98.826,143.37 Z" id="Shape"></path>
                    <path d="M90.924,161.23 C78.483,167.038 67.514,177.201 57.615,186.517 C47.744,195.804 34.759,207.273 29.618,220.058 C28.91,221.821 30.737,222.608 32.061,221.544 C36.797,217.735 40.452,212.773 44.386,208.178 C49.629,202.053 55.089,196.152 60.82,190.479 C70.698,180.7 81.938,173.033 92.567,164.213 C94.378,162.71 93.243,160.15 90.924,161.23 L90.924,161.23 Z" id="Shape"></path>
                    <path d="M95.554,168.967 C89.255,176.091 83.143,183.401 77.1,190.742 C72.103,196.813 65.037,204.242 63.098,212.056 C62.683,213.722 64.77,214.077 65.764,213.152 C71.771,207.568 76.138,199.681 81.135,193.166 C86.896,185.658 93.087,178.48 98.662,170.836 C100.487,168.339 97.303,166.99 95.554,168.967 L95.554,168.967 Z" id="Shape"></path>
                    <path d="M215.304,76.813 C234.302,67.446 253.84,58.834 273.808,51.755 C283.757,48.227 293.845,45.129 304.073,42.512 C314.464,39.853 325.56,38.955 335.705,35.565 C336.88,35.172 338.935,32.265 336.591,31.976 C327.414,30.836 317.448,33.583 308.567,35.672 C297.529,38.268 286.676,41.677 276.004,45.484 C254.542,53.131 234.013,62.937 214.665,74.954 C213.476,75.689 213.778,77.568 215.304,76.813 L215.304,76.813 Z" id="Shape"></path>
                    <path d="M227.638,82.515 C242.784,79.854 257.636,75.291 272.485,71.347 C286.589,67.602 301.703,64.909 315.12,59.102 C316.486,58.512 317.111,55.831 315.041,55.925 C300.686,56.577 286.072,62.038 272.362,66.002 C257.241,70.372 241.935,74.773 227.299,80.59 C226.171,81.039 226.259,82.755 227.638,82.515 L227.638,82.515 Z" id="Shape"></path>
                    <path d="M231.425,91.53 C246.121,92.274 260.761,90.42 275.285,88.279 C289.431,86.196 303.622,83.858 317.457,80.197 C318.894,79.816 319.98,77.035 317.811,77.118 C304.564,77.618 291.504,80.411 278.49,82.718 C263.152,85.438 247.762,87.309 232.223,88.301 C230.451,88.416 229.025,91.408 231.425,91.53 L231.425,91.53 Z" id="Shape"></path>
                    <path d="M163.718,159.256 C163.418,165.939 166.192,170.873 169.028,176.747 C172.522,183.99 172.667,192.007 172.474,199.896 C172.107,214.948 166.161,229.483 159.812,242.882 C146.409,271.153 129.165,297.056 113.165,323.855 C105.491,336.709 99.022,349.426 94.483,363.717 C89.988,377.86 87.446,392.569 85.504,407.249 C83.818,419.953 81.944,432.604 85.071,445.244 C86.183,449.749 87.641,454.166 88.893,458.632 C89.933,462.347 90.456,463.829 94.188,465.677 C99.108,468.113 108.594,461.054 103.911,456.011 C101.042,452.924 98.205,450.476 95.161,447.591 C92.096,444.688 85.904,448.618 87.368,452.679 C89.078,457.431 89.597,460.897 93.118,464.748 C96.36,461.523 99.597,458.302 102.836,455.083 C101.904,454.609 100.974,454.14 100.04,453.668 C100.708,454.867 101.378,456.064 102.046,457.265 C101.434,449.817 97.552,442.978 96.449,435.623 C94.18,420.443 97.507,404.265 100.039,389.284 C102.374,375.465 105.962,361.832 111.164,348.807 C116.752,334.805 125.97,321.647 133.805,308.817 C148.945,284.024 164.25,259.092 174.821,231.916 C179.454,220.009 182.174,207.683 182.109,194.874 C182.075,188.067 180.928,180.841 177.902,174.738 C174.972,168.836 171.074,163.409 167.937,157.615 C166.771,155.461 163.809,157.288 163.718,159.256 L163.718,159.256 Z" id="Shape"></path>
                    <path d="M188.727,140.265 C193.815,154.333 199.818,166.492 200.79,181.754 C201.734,196.651 198.298,211.631 193.524,225.644 C184.059,253.444 167.064,278.145 156.981,305.757 C152.449,318.167 148.739,331.182 149.23,344.511 C149.727,357.922 155.083,370.841 160.192,383.036 C171.439,409.849 181.399,440.272 170.076,468.87 C174.074,468.741 178.069,468.612 182.065,468.485 C182.005,466.142 181.63,464.065 181.169,461.779 C179.974,455.849 170.865,460.9 170.154,464.769 C169.707,467.197 169.384,469.452 169.322,471.927 C169.145,478.97 179.552,475.974 181.31,471.537 C192.252,443.903 187.359,413.888 176.364,387.052 C171.134,374.287 165.1,361.879 162.244,348.299 C159,332.848 164.056,316.666 169.507,302.317 C180.328,273.815 197.289,247.914 205.978,218.57 C213.446,193.36 214.264,156.779 193.26,137.307 C191.468,135.646 187.869,137.887 188.727,140.265 L188.727,140.265 Z" id="Shape"></path>
                    <path d="M199.965,130.315 C199.792,130.304 199.616,130.294 199.443,130.284 C199.825,130.441 200.205,130.599 200.588,130.755 C198.204,128.297 193.612,129.893 191.432,132.06 C188.527,134.938 187.196,138.551 187.453,142.64 C187.589,144.833 189.187,145.908 191.257,145.985 C193.277,146.061 194.71,144.831 196.033,143.479 C197.152,142.333 197.653,140.376 197.175,138.853 C196.912,138.02 196.862,137.884 196.817,137.04 C196.79,136.608 196.837,136.172 196.872,135.744 C196.812,136.491 197.227,135.106 196.888,135.847 C196.926,135.764 197.63,134.752 197.147,135.409 C197.14,135.417 198.018,134.478 197.532,134.959 C198.05,134.449 199.302,133.838 199.982,133.222 C199.516,133.406 199.051,133.59 198.586,133.775 C198.769,133.754 198.95,133.737 199.134,133.716 C200.947,133.524 202.53,130.465 199.965,130.315 L199.965,130.315 Z" id="Shape"></path>
                    <path d="M110.406,386.586 C110.535,398.483 119.996,408.171 130.284,412.516 C133.264,413.772 136.333,412.212 137.861,409.475 C140.05,405.547 147.711,399.213 147.315,393.863 C147.047,390.211 142.44,389.923 140.199,392.106 C136.098,396.106 132.093,402.412 129.322,407.449 C131.124,406.262 132.922,405.077 134.722,403.891 C123.636,404.385 119.482,391.934 114.367,384.535 C113.15,382.77 110.39,385.014 110.406,386.586 L110.406,386.586 Z" id="Shape"></path>
                    <path d="M132.377,406.77 C127.273,415.866 127.145,428.252 126.335,438.44 C125.896,444.003 125.674,449.587 125.87,455.169 C125.989,458.565 125.765,462.912 127.977,465.706 C128.928,466.903 130.583,467.042 131.96,466.686 C135.852,465.693 136.827,462.084 135.92,458.606 C134.606,453.543 134.294,448.62 134.212,443.377 C134.111,436.743 134.54,430.129 134.87,423.507 C135.15,417.838 136.255,411.958 134.917,406.374 C134.596,405.034 132.758,406.086 132.377,406.77 L132.377,406.77 Z" id="Shape"></path>
                    <path d="M90.861,457.219 C92.247,463.657 92.564,470.325 94.068,476.698 C95.91,474.482 97.75,472.264 99.589,470.05 C92.496,470.203 84.622,471.405 79.954,477.332 C75.982,482.373 78.365,487.849 82.871,491.374 C88.936,496.115 98.29,496.47 105.519,495.3 C109.988,494.579 114.343,493.474 118.705,492.291 C120.246,491.872 121.848,491.736 123.298,491.025 C126.407,489.501 125.812,490.528 122.879,490.653 C124.956,490.561 126.987,488.961 127.483,486.926 C129.613,478.221 109.973,485.822 107.101,486.385 C101.011,487.575 94.589,486.861 89.289,483.505 C82.746,479.369 94.872,478.848 97.435,478.781 C100.858,478.689 104.721,474.538 102.455,471.224 C98.922,466.062 98.335,459.767 94.707,454.708 C93.333,452.798 90.484,455.46 90.861,457.219 L90.861,457.219 Z" id="Shape"></path>
                    <path d="M95.756,475.203 C99.091,474.038 101.778,471.513 102.853,468.071 C103.634,465.561 104.476,459.469 101.662,457.801 C98.726,456.057 95.666,458.328 95.74,461.697 C95.784,463.745 96.639,465.423 96.211,467.541 C95.887,469.184 94.94,470.643 93.938,471.948 C92.795,473.438 93.502,475.987 95.756,475.203 L95.756,475.203 Z" id="Shape"></path>
                    <path d="M96.992,455.176 C97.169,460.076 99.151,464.501 96.639,469.168 C95.419,471.442 97.83,473.147 99.879,472.002 C103.266,470.11 104.57,467.378 104.329,463.516 C104.097,459.826 102.455,455.839 99.553,453.496 C98.557,452.697 96.955,454.157 96.992,455.176 L96.992,455.176 Z" id="Shape"></path>
                    <path d="M97.013,456.944 C98.493,460.012 100.644,462.712 101.156,466.191 C101.545,468.831 99.839,470.357 99.197,472.74 C98.777,474.288 99.886,475.216 101.297,475.334 C106.164,475.733 108.724,469.817 108.334,465.806 C107.854,460.849 103.951,456.211 99.25,454.739 C98.21,454.411 96.466,455.811 97.013,456.944 L97.013,456.944 Z" id="Shape"></path>
                    <path d="M98.274,458.018 C98.754,462.567 99.837,467.123 99.281,471.717 C100.986,470.596 102.69,469.469 104.396,468.348 C103.664,468.197 102.949,468.1 102.202,468.037 C103.116,468.605 104.035,469.174 104.952,469.742 C104.195,466.501 103.344,463.296 102.582,460.062 C101.798,456.749 101.827,453.294 100.954,450.024 C100.674,448.981 99.279,449.791 98.967,450.334 C95.204,456.846 95.928,466.453 97.691,473.477 C97.977,474.621 99.354,475.264 100.439,475.18 C101.235,475.118 102.015,474.958 102.799,474.816 C105.067,474.398 106.511,471.999 106.126,469.863 C105.281,465.158 103.399,461.113 101.494,456.768 C100.768,455.124 98.119,456.512 98.274,458.018 L98.274,458.018 Z" id="Shape"></path>
                    <path d="M94.928,437.746 C92.615,442.238 94.325,448.34 94.974,453.079 C95.626,457.806 94.818,466.524 98.313,470.097 C99.371,471.181 100.927,470.253 101.572,469.196 C104.477,464.419 102.151,457.842 100.968,452.753 C99.909,448.19 99.466,441.053 96.45,437.323 C96.019,436.786 95.175,437.268 94.928,437.746 L94.928,437.746 Z" id="Shape"></path>
                    <path d="M171.463,473.348 C189.516,488.452 216.521,469.991 230.693,458.112 C248.164,443.461 265.567,423.496 271.497,401.003 C277.587,377.873 281.361,336.569 255.494,323.69 C245.822,318.875 234.07,317.927 223.584,320.035 C215.692,321.623 206.281,327.702 208.077,336.952 C208.64,339.848 210.254,342.324 212.076,344.595 C215.586,348.97 224.252,341.953 220.7,337.616 C215.093,330.764 220.35,329.211 227.368,328.44 C236.304,327.457 246.013,329.088 253.672,333.908 C263.888,340.34 266.456,355.235 267.308,366.221 C268.325,379.325 266.4,392.654 262.914,405.276 C257.915,423.4 241.759,440.24 228.227,452.441 C214.164,465.126 193.582,479.281 174.306,469.87 C172.344,468.912 169.533,471.733 171.463,473.348 L171.463,473.348 Z" id="Shape"></path>
                    <path d="M212.867,339.831 C207.124,347.463 201.176,337.584 200.236,331.555 C199.259,325.278 203.497,319.216 208.562,315.955 C218.47,309.576 232.091,310.648 243.108,312.684 C268.896,317.451 289.694,333.376 298.009,358.854 C307.011,386.421 294.646,416.184 277.433,437.671 C256.802,463.428 222.587,482.211 189.49,483.725 C184.242,483.969 180.206,493.131 187.156,493.168 C206.702,493.266 226.418,484.952 243.535,476.141 C256.771,469.331 268.431,459.74 278.619,448.963 C298.29,428.147 312.333,399.35 310.339,370.221 C308.52,343.662 290.704,319.336 265.943,309.786 C246.198,302.167 215.529,296.996 199.326,314.722 C191.808,322.951 189.81,333.328 195.36,343.216 C200.892,353.067 213.437,351.724 217.542,341.71 C218.935,338.305 214.71,337.377 212.867,339.831 L212.867,339.831 Z" id="Shape"></path>
                    <path d="M135.109,469.751 C134.819,469.773 134.362,469.881 134.088,469.751 C133.856,469.641 133.891,468.939 133.857,468.732 C133.809,468.429 133.381,468.565 133.342,468.808 C133.273,469.272 133.158,469.876 133.447,470.289 C133.716,470.679 134.489,470.626 134.887,470.657 C135.422,470.7 135.746,469.706 135.109,469.751 L135.109,469.751 Z" id="Shape"></path>
                    <path d="M132.518,459.981 C126.939,455.855 126.965,475.459 127.039,476.715 C127.635,486.865 134.38,502.76 146.366,502.986 C170.524,503.447 155.906,464.285 153.205,452.296 C152.072,447.258 144.984,452.269 144.74,455.595 C144.249,462.233 146.118,468.433 147.648,474.864 C148.924,480.222 152.107,489.042 149.581,494.423 C150.065,493.391 150.333,494.007 148.501,493.825 C145.528,493.532 143.292,491.118 141.463,489.031 C138.815,486.01 136.336,482.272 135.021,478.468 C133.747,474.786 133.351,470.743 133.091,466.88 C133,465.573 133.489,460.558 132.197,460.82 C132.546,460.745 132.864,460.237 132.518,459.981 L132.518,459.981 Z" id="Shape"></path>
                    <path d="M156.011,477.268 C154.184,486.643 162.28,496.543 169.074,501.932 C178.181,509.15 189.144,505.754 196.139,497.632 C197.293,496.291 198.218,493.545 196.743,492.055 C193.537,488.825 190.398,486.003 186.15,484.231 C180.676,481.951 173.831,490.506 180.331,493.09 C183.529,494.362 185.894,496.51 188.319,498.871 C188.523,497.014 188.717,495.151 188.923,493.293 C177.833,507.442 164.815,483.098 158.711,476.197 C157.873,475.253 156.214,476.214 156.011,477.268 L156.011,477.268 Z" id="Shape"></path>
                </g>
            </g>
        </g>
    </g>
</svg>