<?xml version="1.0" encoding="UTF-8"?>
<svg width="287px" height="511px" viewBox="0 0 287 511" version="1.1" xmlns="http://www.w3.org/2000/svg" xmlns:xlink="http://www.w3.org/1999/xlink">
    <!-- Generator: Sketch 41 (35326) - http://www.bohemiancoding.com/sketch -->
    <title>chair</title>
    <desc>Created with Sketch.</desc>
    <defs></defs>
    <g id="Page-1" stroke="none" stroke-width="1" fill="none" fill-rule="evenodd">
        <g id="Layer_1" transform="translate(-3839.000000, -3399.000000)" fill="#000000">
            <g id="Layer_1_3_">
                <g id="chair" transform="translate(3839.000000, 3399.000000)">
                    <path d="M232.866,225.617 C217.518,222.494 201.677,220.481 186.072,219.114 C172.229,217.902 158.609,218.106 144.849,220.057 C130.783,222.052 116.774,225.02 103.121,228.941 C88.69,233.087 72.199,238.496 61.433,249.511 C56.762,254.29 53.492,260.115 53.594,266.949 C53.712,274.945 59.732,282.31 65.773,286.862 C74.53,293.459 85.593,296.171 96.26,297.778 C108.978,299.696 121.958,300.046 134.792,300.424 C150.694,300.893 166.602,300.426 182.396,298.437 C197.574,296.526 212.849,295.169 227.875,292.217 C240.327,289.769 253.124,286.398 264.052,279.729 C271.779,275.014 279.891,267.695 281.329,258.282 C283.013,247.264 273.181,240.253 264.384,236.182 C251.906,230.409 237.216,226.863 223.499,226.068 C218.484,225.778 213.522,225.483 208.498,225.501 C204.551,225.515 200.93,232.019 205.727,233.606 C219.06,238.017 233.152,239.321 246.6,243.345 C253.438,245.391 271.193,250.873 268.906,260.942 C267.273,268.134 255.764,272.789 249.791,274.918 C235.263,280.096 220.115,282.363 204.862,284.176 C189.319,286.023 173.837,288.127 158.174,288.6 C143.184,289.053 128.031,288.587 113.091,287.308 C102.409,286.393 91.427,285.065 81.56,280.638 C74.802,277.606 66.512,271.489 65.543,263.755 C65.102,260.234 66.746,257.823 68.809,255.752 C72.549,251.995 77.098,249.539 81.944,247.14 C93.583,241.376 106.473,237.91 119.056,234.906 C129.996,232.294 141.137,230.203 152.319,228.958 C178.698,226.02 204.759,232.206 231.055,230.912 C233.427,230.794 236.234,226.302 232.866,225.617 L232.866,225.617 Z" id="Shape"></path>
                    <path d="M57.765,270.975 C56.01,280.134 57.798,289.005 58.37,298.131 C58.7,303.395 68.705,299.102 65.549,294.006 C61.279,287.112 63.003,277.657 60.101,270.222 C59.629,269.014 57.931,270.108 57.765,270.975 L57.765,270.975 Z" id="Shape"></path>
                    <path d="M62.21,295.542 C62.385,308.195 82.767,311.777 92.023,313.285 C98.845,314.396 105.74,315.011 112.625,315.587 C122.163,316.386 131.62,317.752 141.186,318.293 C166.713,319.736 192.151,317.219 217.067,311.621 C238.152,306.885 259.974,300.7 276.704,286.352 C278.21,285.06 279.05,283.128 278.506,281.181 C278.464,281.03 278.421,280.877 278.378,280.725 C277.314,276.913 272.329,279.699 270.833,281.336 C270.353,281.86 270.431,281.778 271.069,281.09 C268.366,282.547 266.739,288.706 271.462,288.077 C273.017,287.87 274.139,287.385 275.505,286.659 C273.648,286.286 271.79,285.912 269.933,285.539 C269.974,285.692 270.014,285.845 270.055,285.999 C270.656,284.274 271.256,282.552 271.857,280.828 C256.879,293.68 236.954,298.89 218.133,303.237 C194.482,308.702 170.222,310.996 145.964,310.128 C136.61,309.794 127.365,308.433 118.043,307.77 C111.68,307.318 105.323,306.852 98.989,306.076 C87.973,304.724 72.818,303.305 66.01,293.359 C64.805,291.601 62.191,294.11 62.21,295.542 L62.21,295.542 Z" id="Shape"></path>
                    <path d="M275.902,261.731 C274.244,267.898 274.349,274.872 273.761,281.224 C273.216,287.124 282.008,284.386 281.546,279.652 C280.947,273.521 281.145,266.527 279.287,260.64 C278.694,258.756 276.2,260.625 275.902,261.731 L275.902,261.731 Z" id="Shape"></path>
                    <path d="M73.372,245.44 C77.498,190.487 32.392,149.948 14.743,101.443 C6.628,79.136 3.059,50.193 20.788,31.287 C35.226,15.891 58.546,10.706 78.72,8.795 C99.956,6.782 120.999,9.087 140.957,16.665 C159.526,23.715 178.446,34.901 187.819,53.132 C198.754,74.402 191.145,97.585 184.054,118.724 C175.691,143.658 165.932,169.189 167.097,195.932 C167.445,203.918 169.19,211.866 172.084,219.305 C174.462,217.218 176.84,215.13 179.219,213.044 C177.18,211.749 175.084,210.551 172.999,209.333 C169.234,207.134 163.728,213.55 167.589,216.474 C169.503,217.924 171.402,219.39 173.367,220.767 C176.635,223.058 181.805,217.859 180.502,214.506 C170.56,188.937 178.436,161.177 186.574,136.253 C193.927,113.735 204.984,90.107 201.661,65.861 C195.992,24.505 148.093,4.186 111.282,0.864 C71.652,-2.711 17.26,6.01 3.089,49.358 C-4.494,72.553 3.676,98.43 13.389,119.659 C24.115,143.1 39.711,163.785 51.577,186.605 C61.459,205.608 67.323,225.573 68.538,246.989 C68.723,250.254 73.199,247.735 73.372,245.44 L73.372,245.44 Z" id="Shape"></path>
                    <path d="M52.188,144.647 C38.482,149.145 34.039,128.127 32.262,118.788 C29.573,104.651 28.012,90.046 34.51,76.81 C43.21,59.088 62.461,49.647 81.044,46.084 C101.023,42.254 122.055,44.245 140.924,51.789 C162.023,60.225 179.205,75.833 180.506,99.602 C181.326,114.592 178.502,139.028 159.203,139.393 C154.549,139.481 151.349,147.557 157.414,147.741 C177.262,148.341 186.571,128.591 188.775,111.687 C191.473,90.998 186.218,71.471 169.918,57.659 C139.291,31.708 88.709,28.734 53.954,47.667 C40.958,54.745 30.351,65.991 24.737,79.729 C20.699,89.611 21.061,99.638 22.156,110.083 C23.562,123.515 31.802,165.628 53.65,148.406 C55.453,146.985 54.823,143.783 52.188,144.647 L52.188,144.647 Z" id="Shape"></path>
                    <path d="M103.76,309.544 C98.049,314.514 100.205,321.818 101.049,328.349 C102.333,338.286 102.406,348.494 102.859,358.495 C103.702,377.155 105.161,395.528 107.207,414.098 C109.167,431.889 110.925,450.03 108.795,467.885 C107.911,475.297 106.075,482.585 103.954,489.732 C103.061,492.74 101.674,499.117 97.677,498.329 C98.819,499.63 99.96,500.932 101.102,502.232 C101.048,501.967 100.994,501.703 100.94,501.438 C100.013,503.37 99.086,505.301 98.16,507.233 C99.391,505.935 100.349,504.744 101.152,503.138 C103.539,498.365 98.517,495.66 94.56,497.846 C94.54,497.837 94.519,497.829 94.498,497.822 C91.332,498.487 88.528,502.189 88.662,505.374 C88.674,505.652 88.685,505.931 88.697,506.209 C88.78,508.205 90.191,509.731 92.122,510.112 C107.306,513.107 114.113,496.588 117.203,484.816 C122.15,465.974 122.536,447.115 120.765,427.777 C118.996,408.474 115.302,389.344 114.278,369.972 C113.719,359.395 113.138,348.833 111.974,338.302 C110.921,328.785 108.168,319.655 107.098,310.198 C106.893,308.394 104.813,308.627 103.76,309.544 L103.76,309.544 Z" id="Shape"></path>
                    <path d="M59.307,291.328 C54.894,297.14 54.939,305.367 54.861,312.359 C54.761,321.334 56.115,330.241 57.389,339.102 C60.299,359.325 62.256,379.621 63.063,400.048 C63.506,411.298 63.813,422.686 63.61,433.95 C63.513,439.314 63.22,444.674 62.311,449.967 C61.944,452.11 61.489,453.945 60.869,455.369 C60.391,456.466 61.503,454.97 60.967,455.441 C62.595,454.009 64.327,453.64 65.124,454.63 C65.415,455.982 65.706,457.332 65.997,458.684 C66.088,458.141 66.179,457.599 66.27,457.056 C67.698,448.553 55.465,451.625 54.213,458.033 C52.719,465.685 60.135,467.694 65.883,464.463 C71.089,461.535 73.145,455.274 74.265,449.793 C76.645,438.146 76.164,425.775 75.82,413.955 C75.175,391.865 73.971,369.672 70.363,347.826 C68.721,337.885 66.413,328.072 64.939,318.097 C64.251,313.432 63.523,308.804 63.235,304.091 C62.978,299.897 63.674,295.664 63.127,291.512 C62.843,289.364 60.25,290.086 59.307,291.328 L59.307,291.328 Z" id="Shape"></path>
                    <path d="M265.197,289.98 C259.946,295.795 258.926,304.177 258.069,311.659 C256.993,321.051 256.628,330.524 255.881,339.945 C254.068,362.858 251.811,385.74 250.795,408.71 C250.314,419.586 249.963,430.454 249.19,441.314 C248.392,452.498 247.668,463.715 248.892,474.896 C250.633,490.79 266.263,504.051 282.124,496.534 C289.282,493.141 286.492,482.79 278.345,486.651 C273.463,488.964 266.859,482.846 264.248,479.525 C259.412,473.37 260.545,462.518 260.645,455.199 C260.91,435.946 262.713,416.61 263.506,397.36 C264.319,377.621 266.08,357.939 266.923,338.202 C267.29,329.626 267.536,321.039 267.776,312.458 C267.975,305.337 267.549,297.704 269.225,290.74 C269.914,287.884 266.319,288.737 265.197,289.98 L265.197,289.98 Z" id="Shape"></path>
                    <path d="M191.829,314.577 C188.005,323.274 187.962,332.992 187.747,342.358 C187.5,353.163 187.973,363.973 187.759,374.779 C187.573,384.175 186.538,393.574 186.164,402.968 C185.709,414.395 185.699,426.1 187.867,437.369 C189.444,445.573 192.678,455.787 202.134,457.468 C205.857,458.13 210.45,454.877 210.988,451.084 C211.653,446.393 208.812,441.822 203.429,443.938 C201.144,444.837 199.244,446.069 198.588,448.592 C198.294,449.724 198.256,450.632 198.55,451.777 C198.609,452.002 198.666,452.226 198.724,452.45 C199.617,454.089 199.654,453.961 198.835,452.068 C201.786,449.94 204.737,447.812 207.689,445.684 C205.71,445.332 204.193,443.855 202.91,441.33 C200.933,437.437 200.105,433.016 199.502,428.732 C197.973,417.891 198.245,406.777 198.564,395.863 C198.805,387.597 199.589,379.308 199.432,371.036 C199.253,361.67 198.301,352.353 197.558,343.022 C196.804,333.543 197.479,323.578 195.594,314.27 C195.163,312.147 192.499,313.053 191.829,314.577 L191.829,314.577 Z" id="Shape"></path>
                    <path d="M67.266,216.748 C73.348,211.481 79.123,207.664 86.82,205.081 C94.156,202.619 101.792,201.167 109.181,198.88 C129.434,192.613 150.865,189.267 172.055,189.162 C172.662,186.323 173.272,183.485 173.879,180.646 C171.091,181.024 169.305,182.257 166.822,183.448 C165.527,184.07 163.836,187.041 165.869,187.898 C167.964,188.782 169.772,189.186 172.055,189.162 C176.809,189.11 180.059,180.616 173.879,180.646 C150.868,180.76 128.259,185.098 106.264,191.657 C92.015,195.905 69.561,198.645 62.947,214.381 C61.62,217.539 65.138,218.59 67.266,216.748 L67.266,216.748 Z" id="Shape"></path>
                    <path d="M106.121,313.818 C105.956,320.36 105.215,326.927 105.054,333.493 C104.995,335.892 108.751,334.209 108.82,332.286 C109.033,326.227 110.666,320.352 110.834,314.283 C109.572,314.687 108.311,315.092 107.049,315.496 C107.005,320.847 106.944,326.196 106.889,331.546 C106.863,334.153 110.965,332.35 110.987,330.233 C111.042,324.915 110.862,319.602 110.825,314.286 C109.57,314.688 108.314,315.091 107.059,315.493 C107.028,324.862 107.555,334.211 108.196,343.555 C109.577,343.113 110.96,342.669 112.341,342.227 C110.852,332.157 111.551,321.744 111.567,311.597 C110.262,312.015 108.958,312.433 107.653,312.851 C107.576,321.542 107.499,330.233 107.422,338.923 C108.878,338.457 110.333,337.99 111.789,337.525 C111.848,330.629 111.817,323.73 111.098,316.865 C110.823,314.237 107.126,315.854 106.83,317.727 C105.908,323.573 105.646,329.426 105.675,335.339 C105.702,340.881 104.939,347.753 106.914,352.995 C107.481,354.498 109.381,353.028 109.657,352.111 C111.215,346.943 110.225,341.041 110.074,335.715 C109.9,329.58 109.941,323.435 111.054,317.384 C109.631,317.671 108.208,317.959 106.786,318.246 C107.317,325.132 107.36,332.02 107.421,338.922 C107.446,341.71 111.807,339.784 111.788,337.524 C111.714,328.881 111.64,320.239 111.566,311.596 C111.545,309.083 107.663,310.842 107.652,312.85 C107.594,323.056 106.642,333.414 108.196,343.554 C108.606,346.231 112.498,344.358 112.341,342.226 C111.656,332.918 110.94,323.622 110.825,314.286 C110.796,311.862 107.074,313.567 107.059,315.493 C107.018,320.846 106.836,326.193 106.889,331.546 C108.255,331.108 109.62,330.671 110.987,330.233 C110.934,324.916 110.875,319.599 110.835,314.283 C110.815,311.824 107.117,313.597 107.05,315.496 C106.837,321.552 105.222,327.429 105.056,333.493 C106.312,333.091 107.566,332.688 108.822,332.286 C108.666,325.944 107.92,319.591 107.762,313.293 C107.733,312.223 106.141,312.996 106.121,313.818 L106.121,313.818 Z" id="Shape"></path>
                    <path d="M190.272,315.335 C190.022,321.621 189.752,327.911 189.643,334.201 C190.949,333.782 192.255,333.364 193.561,332.945 C192.582,326.302 193.332,319.575 192.207,312.952 C191.809,310.601 188.722,312.037 188.377,313.725 C187.077,320.091 187.377,326.459 188.826,332.775 C189.371,335.15 193.359,332.791 193.146,330.864 C192.583,325.761 192.418,320.629 191.824,315.528 C191.484,312.62 187.341,314.709 187.386,316.95 C187.52,323.449 188.707,329.829 189.398,336.279 C189.68,338.91 193.564,337.379 193.759,335.398 C194.527,327.57 196.345,319.898 197.088,312.066 C195.64,312.358 194.192,312.651 192.744,312.943 C193.276,321.425 192.098,329.841 191.952,338.316 C193.495,337.821 195.038,337.327 196.581,336.832 C196.685,328.49 197.176,320.219 199.067,312.068 C197.633,312.358 196.199,312.648 194.764,312.937 C194.709,323.199 193.413,333.396 193.269,343.655 C193.227,346.617 197.892,344.566 197.927,342.161 C198.073,332.161 199.145,322.199 199.163,312.195 C197.68,312.67 196.195,313.146 194.712,313.621 C194.848,326.11 195.92,338.769 193.344,351.091 C194.862,350.784 196.379,350.478 197.897,350.171 C195.534,337.775 199.625,325.523 201.776,313.399 C200.329,313.516 198.881,313.633 197.434,313.751 C196.095,325.539 194.651,337.314 193.27,349.098 C194.837,348.782 196.405,348.464 197.973,348.148 C197.594,336.996 200.33,326.027 199.796,314.873 C199.67,312.239 195.641,313.801 195.455,315.75 C194.156,329.464 193.998,343.233 193.907,356.998 C195.476,356.494 197.047,355.992 198.616,355.488 C196.78,343.136 197.176,330.666 197.09,318.219 C195.654,318.679 194.219,319.14 192.783,319.6 C192.941,330.939 193.298,342.315 192.642,353.642 C194.13,352.984 195.62,352.326 197.109,351.666 C191.181,341.443 194.277,328.809 191.767,317.674 C191.169,315.025 187.415,317.909 187.334,319.635 C186.82,330.486 187.905,341.423 188.942,352.211 C189.202,354.91 192.778,352.82 192.915,350.938 C193.704,339.996 191.311,329.148 191.871,318.18 C190.393,318.833 188.916,319.488 187.438,320.141 C189.921,331.368 186.602,343.831 192.747,354.153 C194.115,356.451 197.116,354.229 197.214,352.177 C197.753,340.849 196.996,329.546 197.089,318.219 C197.112,315.473 192.809,317.38 192.782,319.6 C192.63,332.078 191.901,344.622 193.906,356.997 C194.408,360.09 198.63,357.854 198.615,355.487 C198.533,342.122 198.342,328.711 199.751,315.401 C198.304,315.693 196.856,315.985 195.41,316.278 C195.816,327.48 192.709,338.449 193.22,349.671 C193.351,352.534 197.7,350.819 197.923,348.721 C199.172,336.943 200.482,325.172 201.775,313.4 C202.115,310.31 197.837,311.425 197.433,313.752 C195.255,326.29 190.765,338.816 193.296,351.648 C193.84,354.402 197.433,352.775 197.849,350.728 C200.431,338.003 199.139,325.07 199.162,312.198 C199.167,309.346 194.744,311.343 194.711,313.624 C194.565,323.655 193.286,333.624 193.268,343.658 C194.821,343.16 196.373,342.662 197.926,342.164 C197.941,331.945 199.017,321.767 199.111,311.548 C199.136,308.796 195.219,310.712 194.808,312.417 C192.763,320.884 191.944,329.617 191.951,338.319 C191.953,341.275 196.57,339.222 196.58,336.835 C196.613,328.391 197.637,319.987 197.132,311.54 C196.974,308.902 192.979,310.467 192.788,312.417 C192.023,320.249 190.182,327.916 189.441,335.751 C190.895,335.457 192.348,335.164 193.802,334.87 C193.084,328.415 191.913,322.042 191.822,315.531 C190.343,316.005 188.864,316.479 187.384,316.953 C187.946,322.055 188.128,327.186 188.722,332.285 C190.161,331.647 191.602,331.011 193.042,330.374 C191.708,324.72 191.141,319.181 192.165,313.422 C190.888,313.68 189.611,313.938 188.335,314.195 C189.409,320.841 188.421,327.579 189.64,334.204 C190.11,336.758 193.592,334.935 193.558,332.948 C193.454,326.792 193.186,320.635 192.939,314.482 C192.871,312.716 190.325,314.02 190.272,315.335 L190.272,315.335 Z" id="Shape"></path>
                    <path d="M262.995,296 C262.657,303.924 262.298,311.947 260.849,319.757 C262.224,319.315 263.599,318.871 264.973,318.428 C262.508,310.813 263.636,302.769 263.708,294.916 C263.731,292.385 259.799,293.931 259.557,295.754 C258.355,304.826 259.269,313.883 259.313,322.99 C260.841,322.5 262.371,322.01 263.899,321.519 C263.332,313.765 263.113,305.988 262.392,298.244 C262.174,295.906 258.966,297.026 258.382,298.568 C254.13,309.807 256.5,321.986 256.588,333.674 C256.61,336.685 261.276,334.583 261.285,332.168 C261.321,321.454 261.298,310.747 262.427,300.079 C260.979,300.372 259.53,300.665 258.081,300.958 C258.139,310.744 258.03,320.532 257.987,330.319 C257.974,333.333 261.984,331.022 262.507,329.405 C266.438,317.251 267.384,304.462 270.382,292.085 C271.083,289.187 267.234,290.394 266.356,291.897 C260.019,302.765 262.009,315.843 259.948,327.775 C261.513,327.459 263.078,327.142 264.642,326.827 C264.748,317.919 265.871,309.079 266.517,300.204 C265.024,300.683 263.53,301.161 262.037,301.64 C261.764,309.558 261.31,317.473 260.504,325.356 C259.689,333.329 257.9,341.12 256.795,349.041 C256.522,351.004 259.024,350.414 259.612,349.173 C266.602,334.438 265.68,316.147 266.517,300.205 C266.656,297.58 262.266,299.072 262.081,301.101 C261.256,310.193 259.964,319.204 259.899,328.348 C259.878,331.252 264.256,329.403 264.593,327.4 C266.5,316.051 264.001,302.84 270.2,292.616 C268.857,292.553 267.515,292.491 266.174,292.428 C262.914,304.761 261.873,317.581 258.033,329.77 C259.539,329.465 261.046,329.161 262.553,328.856 C262.514,319.088 262.409,309.319 262.471,299.551 C262.488,296.913 258.352,298.5 258.125,300.43 C256.823,311.481 256.557,322.558 256.587,333.675 C258.152,333.173 259.719,332.671 261.284,332.169 C261.138,321.531 258.088,309.486 262.17,299.275 C260.833,299.382 259.496,299.492 258.16,299.599 C258.738,307.389 258.681,315.202 259.311,322.99 C259.554,325.99 263.925,323.838 263.897,321.519 C263.788,312.826 262.485,304.085 263.665,295.421 C262.281,295.7 260.897,295.98 259.514,296.259 C259.407,304.492 258.336,312.76 260.904,320.747 C261.598,322.909 264.803,320.926 265.028,319.418 C266.232,311.331 265.907,303.312 265.559,295.177 C265.486,293.481 263.049,294.741 262.995,296 L262.995,296 Z" id="Shape"></path>
                    <path d="M57.547,279.659 C55.01,290.265 55.295,301.597 57.406,312.251 C57.96,315.044 62.151,313.119 61.808,310.841 C59.982,298.699 60.368,286.428 59.726,274.202 C59.592,271.666 55.726,273.169 55.546,275.046 C54.334,287.757 54.713,300.331 56.612,312.958 C57.081,316.071 61.175,313.739 61.264,311.466 C61.779,298.276 58.579,285.356 58.418,272.194 C58.385,269.449 54.143,271.367 54.141,273.565 C54.131,288.582 56.549,303.393 57.867,318.317 C58.147,321.49 62.657,319.174 62.674,316.776 C62.737,307.894 63.285,299.024 63.255,290.139 C61.714,290.633 60.173,291.127 58.632,291.621 C58.602,302.519 58.557,313.418 58.531,324.317 C58.524,327.479 63.177,325.122 63.342,322.774 C63.946,314.127 64.425,305.499 64.511,296.829 C63.02,297.307 61.53,297.785 60.038,298.263 C60.026,309.169 60.548,320.067 60.567,330.973 C60.573,333.995 65.297,331.9 65.301,329.455 C65.317,319.256 65.103,309.059 65.079,298.86 C63.653,299.317 62.227,299.774 60.802,300.231 C60.789,312.285 61.91,324.277 62.577,336.301 C62.745,339.326 67.417,337.237 67.288,334.791 C66.667,323.041 66.514,311.289 66.417,299.525 C64.988,299.984 63.559,300.441 62.13,300.9 C62.08,313.818 62.56,326.731 62.529,339.65 C64.131,339.136 65.732,338.623 67.334,338.109 C64.738,325.122 63.311,311.958 61.947,298.795 C61.62,295.638 57.391,298.044 57.267,300.295 C56.742,309.859 57.874,319.397 57.939,328.958 C59.491,328.461 61.043,327.963 62.595,327.466 C61.395,308.196 65.976,288.624 61.143,269.627 C60.487,267.049 57.095,269.731 56.689,271.062 C52.559,284.584 55.219,299.09 55.31,312.947 C56.804,312.286 58.298,311.626 59.792,310.965 C55.936,297.041 58.471,282.365 58.528,268.158 C58.538,265.515 54.917,267.107 54.265,268.503 C46.703,284.711 54.219,302.244 55.194,318.984 C56.799,318.469 58.405,317.954 60.01,317.439 C57.982,304.277 59.067,290.759 59.166,277.499 C59.186,274.843 54.971,276.417 54.766,278.388 C52.828,297.114 55.703,315.651 57.297,334.284 C57.551,337.254 62.051,335.186 61.899,332.809 C60.728,314.555 57.434,296.368 59.122,278.037 C57.655,278.333 56.188,278.629 54.722,278.926 C54.706,292.29 53.169,305.69 55.195,318.986 C55.67,322.108 60.151,319.909 60.011,317.441 C59.126,301.763 51.293,284.45 58.293,269.256 C56.872,269.371 55.451,269.485 54.03,269.601 C53.872,284.25 51.409,299.1 55.415,313.46 C56.14,316.058 59.913,313.325 59.897,311.478 C59.786,297.974 57.113,283.861 61.202,270.699 C59.718,271.178 58.232,271.655 56.748,272.134 C61.362,290.7 56.706,310.12 57.938,328.961 C58.136,332.001 62.618,329.828 62.594,327.469 C62.501,317.9 61.351,308.371 61.946,298.798 C60.385,299.298 58.827,299.798 57.266,300.298 C58.551,313.673 59.876,327.024 62.639,340.189 C63.207,342.899 67.346,340.056 67.332,338.113 C67.245,325.247 66.519,312.396 66.415,299.529 C66.393,296.775 62.146,298.709 62.128,300.904 C62.027,312.697 61.891,324.526 62.575,336.304 C64.145,335.801 65.716,335.297 67.286,334.794 C66.557,322.815 65.221,310.871 65.077,298.862 C65.044,296.115 60.806,298.038 60.8,300.233 C60.772,310.481 60.553,320.726 60.565,330.974 C62.143,330.468 63.721,329.962 65.299,329.456 C65.25,318.576 64.588,307.71 64.508,296.83 C64.487,293.967 60.039,295.961 60.035,298.264 C60.023,306.967 59.259,315.653 58.528,324.319 C60.132,323.804 61.735,323.291 63.339,322.776 C63.318,311.898 63.277,301.019 63.252,290.14 C63.245,287.174 58.66,289.255 58.629,291.622 C58.514,300.526 57.888,309.41 57.864,318.317 C59.467,317.803 61.068,317.29 62.671,316.776 C61.291,301.902 58.631,287.162 58.416,272.194 C56.99,272.651 55.564,273.108 54.139,273.565 C54.276,286.75 57.057,299.753 56.61,312.959 C58.161,312.461 59.712,311.965 61.262,311.467 C59.371,299.274 58.442,287.026 59.68,274.713 C58.286,274.994 56.894,275.276 55.5,275.557 C56.078,287.802 55.458,300.107 57.402,312.252 C58.836,311.618 60.269,310.984 61.703,310.351 C59.622,300.352 58.776,289.56 60.344,279.434 C60.658,277.426 57.893,278.216 57.547,279.659 L57.547,279.659 Z" id="Shape"></path>
                </g>
            </g>
        </g>
    </g>
</svg>