<?xml version="1.0" encoding="UTF-8"?>
<svg width="516px" height="386px" viewBox="0 0 516 386" version="1.1" xmlns="http://www.w3.org/2000/svg" xmlns:xlink="http://www.w3.org/1999/xlink">
    <!-- Generator: Sketch 41 (35326) - http://www.bohemiancoding.com/sketch -->
    <title>cheese</title>
    <desc>Created with Sketch.</desc>
    <defs></defs>
    <g id="Page-1" stroke="none" stroke-width="1" fill="none" fill-rule="evenodd">
        <g id="Layer_1" transform="translate(-510.000000, -3441.000000)" fill="#010101">
            <g id="Layer_1_3_">
                <g id="cheese" transform="translate(510.000000, 3441.000000)">
                    <path d="M262.047,201.508 C267.931,201.607 274.984,205.422 280.087,208.083 C287.073,211.728 293.485,216.313 298.735,222.225 C303.264,227.327 306.716,233.968 305.262,240.928 C303.561,249.07 296.602,250.609 289.362,250.633 C273.735,250.686 254.492,243.915 243.899,232.143 C229.072,215.664 257.688,207.095 268.786,203.668 C270.986,202.987 273.423,198.762 270.007,197.969 C253.683,194.184 227.019,208.841 230.434,228.148 C232.221,238.248 241.802,245.287 250.299,249.78 C258.516,254.126 267.96,256.741 277.095,258.2 C285.672,259.57 295.539,259.8 303.238,255.189 C310.303,250.959 314.176,241.832 313.477,233.813 C312.006,216.906 292.206,204.687 277.821,199.824 C272.729,198.102 268.05,197.653 262.764,198.163 C260.956,198.337 259.575,201.467 262.047,201.508 L262.047,201.508 Z" id="Shape"></path>
                    <path d="M198.546,273.928 C204.329,277.022 207.197,283.559 204.514,289.74 C201.973,295.594 194.515,296.135 189.457,293.661 C184.24,291.11 183.31,284.353 189.174,282.302 C194.987,280.267 201.41,281.435 207.255,279.82 C209.102,279.309 210.734,276.919 209.488,275.165 C203.961,267.384 187.512,271.619 181.488,276.684 C172.659,284.104 172.877,297.622 184.276,302.13 C193.661,305.84 205.583,301.767 210.314,292.701 C215.227,283.292 210.789,274.108 201.445,270.106 C199.384,269.221 196.209,272.679 198.546,273.928 L198.546,273.928 Z" id="Shape"></path>
                    <path d="M392.272,78.92 C428.067,105.358 449.342,149.396 463.386,190.419 C471.182,213.19 476.834,236.726 480.909,260.433 C482.883,271.91 484.414,283.465 485.622,295.046 C486.758,305.927 487.287,316.906 489.018,327.699 C489.279,329.323 489.482,330.959 489.703,332.589 C490.298,336.982 495.873,333.552 496.127,330.529 C498.022,307.913 495.275,285.228 491.693,262.872 C487.925,239.353 482.468,216.109 475.088,193.461 C461.597,152.062 440.592,109.031 405.805,81.398 C402.6,78.852 399.317,76.395 395.979,74.026 C393.576,72.324 389.59,76.939 392.272,78.92 L392.272,78.92 Z" id="Shape"></path>
                    <path d="M384.652,350.604 C397.464,325.601 360.994,313.885 342.646,313.306 C327.221,312.819 312.193,319.047 301.25,329.803 C296.506,334.465 292.183,339.857 288.743,345.537 C286.515,349.215 283.266,359.209 290.225,359.933 C292.579,360.178 294.491,358.546 295.161,356.374 C295.692,354.647 295.407,353.14 295.278,351.378 C295.116,349.118 297.106,346.429 298.268,344.671 C301.366,339.989 305.221,335.516 309.393,331.776 C318.926,323.233 332.096,320.044 344.637,320.799 C360.456,321.753 385.05,330.55 382.121,350.483 C381.863,352.272 384.104,351.674 384.652,350.604 L384.652,350.604 Z" id="Shape"></path>
                    <path d="M386.757,353.84 C380.601,336.017 355.683,335.403 340.3,337.5 C330.299,338.862 320.561,341.76 311.132,345.293 C306.78,346.925 302.518,348.813 298.339,350.841 C294.343,352.779 289.916,354.248 289.092,359.176 C288.748,361.235 289.611,363.657 291.999,363.933 C297.323,364.545 306.301,363.187 304.784,355.961 C304.537,354.78 303.21,354.155 302.196,353.885 C299.952,353.281 297.872,353.241 295.569,353.489 C297.015,354.656 298.464,355.823 299.909,356.989 C299.776,356.266 299.627,355.55 299.468,354.832 C298.754,356.881 298.04,358.93 297.325,360.978 C302.349,356.749 310.123,354.079 316.183,351.756 C324.223,348.676 332.592,346.367 341.114,345.118 C348.854,343.983 356.718,343.873 364.382,345.557 C371.968,347.224 378.253,351.508 384.616,355.715 C385.633,356.39 387.109,354.859 386.757,353.84 L386.757,353.84 Z" id="Shape"></path>
                    <path d="M501.562,333.345 C483.314,331.162 464.455,335.357 446.542,338.776 C427.189,342.469 407.772,345.437 388.21,347.888 C382.239,348.636 377.464,359.512 385.8,359.14 C390.349,358.937 394.349,357.652 397.768,354.593 C398.937,353.547 400.429,350.375 398.164,349.487 C394.935,348.219 391.653,348.019 388.212,347.888 C387.408,351.639 386.605,355.389 385.802,359.14 C405.014,356.061 423.333,350.3 442.291,346.161 C461.638,341.936 481.164,339.439 500.634,336.061 C501.687,335.879 503.415,333.566 501.562,333.345 L501.562,333.345 Z" id="Shape"></path>
                    <path d="M298.5,355.387 C282.767,355.198 266.916,357.075 251.243,358.328 C235.287,359.604 219.344,361.019 203.41,362.557 C187.5,364.09 171.604,365.832 155.759,367.924 C139.583,370.059 123.399,373.487 107.144,374.856 C102.852,375.217 97.353,384.318 103.748,384.784 C108.326,385.118 113.071,384.807 117.444,383.35 C119.507,382.662 123.376,377.955 119.805,376.481 C115.881,374.859 111.357,374.56 107.142,374.856 C106.871,378.096 106.6,381.335 106.329,384.575 C121.762,380.046 138.183,378.14 154.064,375.827 C169.969,373.512 185.915,371.491 201.884,369.676 C217.847,367.86 233.843,366.333 249.842,364.863 C265.705,363.405 281.797,362.673 297.509,360.005 C299.879,359.603 302.003,355.429 298.5,355.387 L298.5,355.387 Z" id="Shape"></path>
                    <path d="M395.613,76.175 C385.794,85.838 377.313,96.84 367.484,106.55 C357.314,116.596 346.626,126.119 336.076,135.762 C315.014,155.012 296.509,177.179 273.658,194.34 C269.19,197.694 271.255,203.928 276.916,202.713 C279.424,202.174 281.395,200.888 283.336,199.253 C285.267,197.627 285.984,194.775 283.81,193.117 C281.882,191.647 279.972,192.374 277.772,192.497 C278.393,195.381 279.014,198.266 279.635,201.149 C290.766,192.274 300.412,181.253 310.205,170.967 C320.048,160.629 330.185,150.682 340.654,140.978 C351.148,131.249 361.677,121.576 371.693,111.345 C381.445,101.381 392.547,90.544 398.725,77.88 C399.796,75.687 397.05,74.762 395.613,76.175 L395.613,76.175 Z" id="Shape"></path>
                    <path d="M238.548,233.505 C230.408,237.393 223.149,244.338 216.106,249.859 C208.086,256.146 200.273,262.657 192.449,269.181 C193.548,268.688 194.646,268.195 195.746,267.702 C193.919,267.947 192.623,268.526 191.184,269.69 C189.687,270.902 188.218,273.578 189.148,275.532 C189.723,276.741 190.426,277.194 191.681,277.565 C193.888,278.218 196.401,276.437 197.678,274.841 C198.468,273.855 198.958,272.811 199.132,271.562 C198.501,272.587 197.869,273.614 197.238,274.639 C210.512,260.529 227.855,250.506 241.03,236.331 C242.865,234.362 240.559,232.544 238.548,233.505 L238.548,233.505 Z" id="Shape"></path>
                    <path d="M183.281,287.78 C175.13,293.79 167.652,300.736 159.721,307.042 C151.476,313.598 143.012,319.873 134.685,326.322 C118.408,338.932 103.449,352.751 90.518,368.818 C88.79,370.965 88.592,373.467 89.983,375.761 C94.425,383.086 104.4,388.734 112.419,383.086 C114.563,381.577 117.141,377.857 113.965,375.873 C111.99,374.641 109.517,374.334 107.382,373.388 C104.146,371.953 102.056,369.767 100.185,366.81 C100.301,368.64 100.417,370.471 100.534,372.301 C109.981,354.98 126.745,341.916 141.677,329.488 C149.348,323.103 157.118,316.841 164.697,310.342 C172.063,304.027 179.799,297.446 185.19,289.291 C186.247,287.694 184.62,286.793 183.281,287.78 L183.281,287.78 Z" id="Shape"></path>
                    <path d="M397.274,77.803 C386.389,69.744 372.256,65.031 359.667,60.364 C347.061,55.692 334.226,51.654 321.41,47.6 C307.983,43.353 294.914,38.287 281.737,33.339 C269.18,28.624 256.509,25.235 243.607,21.698 C242.794,24.079 241.979,26.46 241.165,28.841 C242.687,28.643 244.209,28.443 245.736,28.278 C248.261,28.007 251.757,22.71 247.797,22.256 C246.398,22.095 245.004,21.897 243.609,21.699 C239.638,21.138 235.674,28.413 240.262,28.801 C253.544,29.919 266.817,35.036 279.285,39.465 C291.865,43.933 304.34,48.646 317.098,52.595 C330.118,56.625 343.143,60.639 355.974,65.241 C369.135,69.961 381.495,76.533 394.536,81.422 C396.5,82.156 399.346,79.337 397.274,77.803 L397.274,77.803 Z" id="Shape"></path>
                    <path d="M196.279,101.936 C197.769,113.293 191.925,123.356 184.692,131.609 C181.004,135.819 176.629,139.585 172.044,142.783 C168.267,145.419 164.756,146.572 160.446,147.798 C155.767,149.128 154.831,156.689 160.86,155.465 C165.471,154.528 170.271,150.601 174.011,147.932 C179.618,143.931 184.608,139.21 189.094,133.99 C196.392,125.499 204.39,112.141 198.536,100.938 C197.95,99.814 196.138,100.867 196.279,101.936 L196.279,101.936 Z" id="Shape"></path>
                    <path d="M239.852,21.89 C237.096,28.593 235.039,35.458 231.824,41.993 C228.178,49.403 223.718,56.382 219.095,63.211 C214.946,69.341 210.586,75.327 206.344,81.394 C202.147,87.396 198.682,94.036 194.322,99.884 C190.703,104.738 197.648,107.672 200.548,103.249 C201.739,101.432 202.446,100.343 202.723,98.19 C203.038,95.732 200.785,95.017 198.855,96.029 C196.835,97.09 195.792,98.136 194.324,99.883 C196.716,100.334 199.107,100.784 201.5,101.237 C203.77,94.32 209.293,87.648 213.273,81.626 C217.659,74.992 222.123,68.412 226.32,61.657 C233.371,50.315 242.716,35.586 242.377,21.686 C242.338,20.165 240.22,20.998 239.852,21.89 L239.852,21.89 Z" id="Shape"></path>
                    <path d="M194.265,99.088 C198.581,101.615 201.404,103.396 203.464,108.225 C205.483,112.956 205.615,118.516 205.548,123.581 C205.403,134.659 203.348,145.019 195.138,153.058 C189.219,158.854 181.156,159.837 173.184,160.087 C169.275,160.21 165.358,159.83 161.576,158.835 C158.892,158.13 157.528,156.118 155.175,155.061 C152.797,153.991 150.243,156.022 149.623,158.287 C147.084,167.562 165.105,167.983 170.353,167.953 C181.666,167.888 192.261,165.092 200.385,156.974 C210.532,146.837 212.936,133.786 212.405,119.994 C212.064,111.181 207.13,93.438 194.726,97.744 C194.26,97.906 193.632,98.717 194.265,99.088 L194.265,99.088 Z" id="Shape"></path>
                    <path d="M95.225,374.374 C86.279,359.364 70.963,347.296 57.458,336.589 C50.06,330.724 42.416,325.169 34.684,319.754 C30.758,317.004 26.791,314.312 22.811,311.64 C19.066,309.127 14.333,306.828 11.3,303.452 C9.248,305.654 7.196,307.855 5.145,310.056 C7.497,310.952 9.14,311.381 11.585,310.509 C13.292,309.902 16.127,306.96 14.183,305.093 C12.891,303.852 11.525,302.782 9.7,302.572 C5.618,302.103 0.824,308.611 6.027,310.361 C9.843,311.644 13.513,314.735 16.862,316.921 C20.405,319.234 23.925,321.581 27.431,323.95 C35.222,329.217 42.875,334.683 50.369,340.366 C57.746,345.963 64.932,351.843 71.857,357.989 C78.686,364.052 84.796,370.906 91.617,376.947 C93.03,378.2 96.273,376.129 95.225,374.374 L95.225,374.374 Z" id="Shape"></path>
                    <path d="M153.058,152.963 C131.382,176.056 103.693,191.802 81.334,214.078 C78.293,217.107 80.354,222.716 84.728,219.736 C87.956,217.539 92.265,215.634 93.642,211.729 C94.152,210.281 93.647,209.11 92.012,209.062 C88.135,208.949 84.273,211.812 81.335,214.078 C83.058,215.445 84.781,216.811 86.504,218.179 C107.129,194.761 137.425,180.792 154.877,154.405 C155.81,152.993 154.216,151.731 153.058,152.963 L153.058,152.963 Z" id="Shape"></path>
                    <path d="M80.786,220.667 C86.203,221.807 90.828,223.962 91.283,230.054 C91.744,236.226 88.852,242.59 85.627,247.685 C82.262,252.999 77.854,257.909 72.191,260.792 C70.228,261.792 67.997,262.158 65.836,261.775 C62.687,261.217 61.099,258.198 58.156,257.359 C55.571,256.623 52.182,259.749 52.479,262.34 C53.445,270.784 65.981,271.087 71.872,268.835 C80.266,265.626 86.95,258.379 91.654,250.939 C95.922,244.192 100.02,235.302 98.595,227.092 C97.18,218.938 89.952,215.399 82.17,216.613 C80.511,216.876 78.083,220.098 80.786,220.667 L80.786,220.667 Z" id="Shape"></path>
                    <path d="M55.119,255.148 C55.123,254.553 55.887,253.919 54.464,254.729 C53.797,255.11 53.132,255.678 52.526,256.147 C50.87,257.43 49.319,258.852 47.747,260.234 C42.718,264.652 37.691,269.074 32.714,273.548 C22.232,282.968 10.346,292.423 1.924,303.813 C-0.766,307.45 2.485,310.85 6.356,308.863 C8.214,307.909 9.968,306.684 10.493,304.528 C10.769,303.386 9.995,301.802 9.973,301.512 C9.89,300.399 8.931,299.633 7.818,299.774 C4.614,300.177 1.089,303.353 2.87,306.795 C2.947,305.856 3.023,304.914 3.1,303.975 C3.067,304.043 3.036,304.112 3.002,304.18 C3.788,303.341 4.575,302.503 5.36,301.663 C5.197,301.675 5.032,301.684 4.868,301.696 C5.988,303.537 7.106,305.38 8.226,307.219 C18.361,295.87 28.931,285.092 39.809,274.448 C44.391,269.967 49.17,265.603 53.455,260.83 C54.587,259.569 58.145,256.191 56.599,254.299 C56.077,253.656 55.123,254.557 55.119,255.148 L55.119,255.148 Z" id="Shape"></path>
                    <path d="M414.584,191.292 C427.23,191.876 432.747,203.357 433.286,214.644 C433.922,227.937 429.172,242.01 420.823,252.318 C412.157,263.019 399.177,265.349 386.995,259.135 C374.185,252.6 372.077,237.57 376.405,224.998 C379.959,214.675 386.954,205.32 396.594,200.02 C407.298,194.136 419.448,197.742 430.134,201.771 C433.018,202.859 437.517,199.265 435.249,196.282 C424.556,182.213 405.609,183.149 391.47,191.482 C377.737,199.577 367.915,214.213 364.28,229.583 C360.924,243.772 364.55,259.229 377.469,267.246 C390.614,275.401 406.788,273.665 418.936,264.846 C433.452,254.31 440.938,234.24 441.088,216.812 C441.152,209.301 439.543,201.393 435.139,195.187 C430.642,188.851 423.285,186.956 415.897,187.449 C414.191,187.564 412.158,191.179 414.584,191.292 L414.584,191.292 Z" id="Shape"></path>
                    <path d="M430.744,303.901 C436.777,305.797 441.076,314.451 434.802,318.922 C432.015,320.906 427.728,321.563 425.886,318.099 C424.372,315.25 424.996,311.27 426.63,308.972 C427.372,307.929 428.44,307.257 430.108,306.784 C433.013,305.961 435.857,306.905 438.754,305.678 C440.022,305.14 441.847,303.552 441.082,301.937 C439.088,297.722 433.537,298.343 429.699,299.247 C425.869,300.147 422.373,302.874 420.206,306.098 C416.576,311.495 415.84,319.594 420.488,324.67 C426.283,330.999 436.517,326.046 440.881,320.626 C447.382,312.551 442.379,300.451 431.857,300.658 C430.299,300.687 428.793,303.289 430.744,303.901 L430.744,303.901 Z" id="Shape"></path>
                    <path d="M272.92,96.141 C285.567,88.843 303.47,93.361 311.632,105.266 C316.179,111.898 314.05,119.747 309.594,125.712 C304.76,132.183 296.001,135.418 288.323,136.794 C280.543,138.188 271.145,137.904 264.894,132.433 C259.667,127.857 255.598,118.74 258.507,111.975 C260.912,106.384 267.625,103.144 272.958,101.092 C279.594,98.537 286.826,96.664 293.701,94.877 C296.035,94.271 298.061,90.209 294.892,89.314 C280.164,85.161 260.371,93.652 251.685,105.959 C246.57,113.207 246.347,121.952 249.84,129.931 C253.872,139.14 261.182,144.725 271.004,146.473 C290.073,149.866 312.946,139.962 321.144,122.06 C329.084,104.721 315.172,89.707 298.895,85.695 C289.016,83.26 278.055,85.395 270.892,92.765 C269.086,94.625 270.182,97.721 272.92,96.141 L272.92,96.141 Z" id="Shape"></path>
                    <path d="M137.873,211.532 C143.924,209.767 149.737,212.531 151.93,218.356 C154.377,224.857 151.707,232.415 147.725,237.647 C143.985,242.562 133.246,249.641 128.764,241.793 C125.295,235.719 127.218,227.738 130.391,222.002 C135.468,212.823 144.515,214.473 153.332,213.641 C155.299,213.455 157.403,210.745 155.416,209.236 C150.233,205.298 141.867,206.515 136.359,208.985 C130.927,211.422 126.857,215.703 123.913,220.796 C119.463,228.49 117.88,241.9 124.931,248.66 C134.633,257.965 149.97,244.631 154.891,236.499 C158.899,229.878 160.035,220.711 156.617,213.642 C152.735,205.615 144.811,206.009 137.738,209.049 C136.391,209.626 135.877,212.114 137.873,211.532 L137.873,211.532 Z" id="Shape"></path>
                    <path d="M85.424,318.537 C91.503,319.21 94.341,328.422 90.171,332.822 C87.473,335.672 84.028,334.728 82.061,331.789 C80.548,329.526 80.358,325.258 81.436,323.606 C82.005,322.736 81.818,323.056 82.42,322.714 C82.799,322.499 83.85,322.373 84.524,322.334 C87.241,322.175 89.827,322.432 92.508,321.826 C93.447,321.614 94.896,320.05 94.266,319.002 C89.846,311.647 78.618,315.72 75.169,321.869 C72.316,326.959 73.146,334.074 77.365,338.175 C82.924,343.574 91.925,339.965 95.446,334.005 C99.95,326.381 96.332,315.146 86.532,315.29 C85.054,315.314 83.382,318.312 85.424,318.537 L85.424,318.537 Z" id="Shape"></path>
                    <path d="M162.785,371.34 C167.112,369.686 168.003,363.937 165.346,360.49 C162.306,356.549 155.857,355.965 151.326,356.086 C145.604,356.237 139.506,358.315 135.607,362.631 C132.73,365.816 129.658,376.591 136.403,377.401 C138.101,377.605 139.943,376.547 140.613,374.947 C141.946,371.759 139.061,368.421 141.247,365.679 C143.035,363.437 147.308,362.908 149.918,362.656 C153.205,362.339 156.8,362.632 159.666,364.385 C162.331,366.016 160.672,368.573 161.573,370.901 C161.756,371.372 162.341,371.51 162.785,371.34 L162.785,371.34 Z" id="Shape"></path>
                    <path d="M402.558,63.029 C405.984,66.82 410.029,69.926 413.711,73.462 C417.93,77.51 421.887,81.968 425.683,86.411 C434.244,96.433 441.806,107.245 448.854,118.37 C461.488,138.311 472.267,158.993 480.423,181.168 C489.414,205.613 495.854,231.093 500.088,256.779 C504.226,281.883 507.223,308.836 502.825,334.073 C506.259,332.968 509.691,331.86 513.125,330.755 C512.546,329.536 512.517,327.984 512.045,326.683 C510.127,321.385 501.1,326.578 502.026,331.114 C502.407,332.976 502.095,334.807 502.963,336.549 C505.398,341.445 512.592,337.459 513.263,333.231 C517.262,308.017 514.763,281.686 510.897,256.602 C506.883,230.564 500.422,204.848 491.574,180.035 C483.576,157.61 472.867,136.639 460.097,116.572 C453.057,105.508 445.452,94.78 437.013,84.734 C429.62,75.935 420.678,66.758 410.083,61.883 C408.323,61.072 406.538,60.654 404.639,60.304 C403.415,60.076 401.486,61.841 402.558,63.029 L402.558,63.029 Z" id="Shape"></path>
                    <path d="M410.262,63.387 C406.783,55.181 395.824,52.385 388.154,49.781 C374.603,45.181 361.429,39.351 348.183,33.953 C334.123,28.224 320.005,22.654 305.87,17.114 C294.875,12.804 284.186,7.834 272.944,4.159 C263.622,1.112 251.799,-1.865 242.159,1.477 C234.932,3.983 228.953,10.228 224.982,16.566 C221.336,22.389 218.412,29.564 220.286,36.475 C222.366,44.149 232.26,44.341 237.741,40.79 C239.308,39.773 242.171,35.741 239.089,34.501 C235.115,32.901 230.288,33.864 230.282,28.673 C230.275,23.661 234.205,18.395 237.296,14.806 C241.828,9.544 247.609,9.218 254.205,9.986 C264.391,11.172 274.219,15.06 283.664,18.847 C305.569,27.629 327.616,36.064 349.637,44.562 C360.427,48.727 371.2,53.133 382.207,56.697 C390.062,59.241 398.933,61.135 405.026,67.124 C407.117,69.177 411.371,66.005 410.262,63.387 L410.262,63.387 Z" id="Shape"></path>
                    <path d="M404.887,113.804 C393.899,109.366 381.519,118.991 378.332,129.222 C374.103,142.8 388.059,153.352 400.48,151.524 C412.72,149.722 420.403,136.993 417.437,125.41 C414.709,114.762 399.499,107.876 391.628,117.556 C390.541,118.893 390.384,121.686 392.613,121.971 C395.504,122.34 398.287,121.232 401.205,121.804 C404.144,122.381 406.604,125.015 407.986,127.526 C411.412,133.75 409.007,141.196 402.175,143.63 C393.98,146.55 385.179,139.638 384.423,131.558 C383.444,121.096 395.611,116.824 403.819,116.055 C404.613,115.981 406.151,114.315 404.887,113.804 L404.887,113.804 Z" id="Shape"></path>
                </g>
            </g>
        </g>
    </g>
</svg>