<?xml version="1.0" encoding="UTF-8"?>
<svg width="519px" height="516px" viewBox="0 0 519 516" version="1.1" xmlns="http://www.w3.org/2000/svg" xmlns:xlink="http://www.w3.org/1999/xlink">
    <!-- Generator: Sketch 41 (35326) - http://www.bohemiancoding.com/sketch -->
    <title>cherry</title>
    <desc>Created with Sketch.</desc>
    <defs></defs>
    <g id="Page-1" stroke="none" stroke-width="1" fill="none" fill-rule="evenodd">
        <g id="Layer_1" transform="translate(-5481.000000, -2130.000000)" fill="#000000">
            <g id="Layer_1_3_">
                <g id="cherry" transform="translate(5481.000000, 2130.000000)">
                    <path d="M159.719,280.702 C163.244,299.227 190.067,303.722 205.225,307.204 C224.913,311.727 242.98,321.503 256.244,336.925 C284.516,369.798 273.776,419.508 248.36,450.579 C230.278,472.685 203.755,487.056 176.372,494.611 C162.546,498.426 148.196,500.192 133.865,500.22 C127.1,500.234 120.364,499.636 113.675,498.644 C110.089,498.112 106.488,497.61 102.927,496.938 C99.257,496.246 95.483,496.533 91.761,496.209 C87.337,495.825 80.565,502.397 85.879,505.874 C89.579,508.294 92.86,510.423 97.15,511.642 C101.68,512.929 106.194,513.802 110.866,514.392 C120.391,515.596 130.078,515.818 139.659,515.332 C159.329,514.336 178.99,509.779 197.222,502.384 C234.899,487.102 267.911,458.295 281.414,419.146 C287.881,400.397 290.123,380.523 285.945,361.029 C282.159,343.372 271.424,327.059 257.185,316.055 C243.159,305.215 226.613,299.08 209.232,296.253 C192.65,293.557 175.074,291.917 163.195,278.702 C162.043,277.421 159.426,279.16 159.719,280.702 L159.719,280.702 Z" id="Shape"></path>
                    <path d="M167.864,289.184 C165.235,269.594 148.35,251.507 130.35,244.314 C110.657,236.445 89.399,238.867 70.729,248.309 C35.387,266.183 15.485,308.447 6.288,345.06 C-2.069,378.327 -2.591,415.668 11.329,447.542 C18.028,462.883 28.383,476.003 41.683,486.121 C60.402,500.36 83.871,504.763 106.81,506.398 C110.174,506.638 116.451,500.835 111.664,498.421 C98.767,491.915 84.353,490.375 70.932,485.376 C62.259,482.146 53.992,476.981 47.007,470.943 C33.597,459.349 24.813,443.808 19.665,427.003 C8.808,391.558 14.537,351.096 28.445,317.338 C39.374,290.812 57.244,263.412 86.013,254.503 C100.578,249.992 116.272,251.558 130.023,257.892 C136.931,261.075 143.432,265.526 148.758,270.95 C154.803,277.107 159.24,284.392 164.463,291.137 C165.549,292.539 168.053,290.602 167.864,289.184 L167.864,289.184 Z" id="Shape"></path>
                    <path d="M142.44,295.066 C136.87,298.829 135.86,306.1 139.052,311.87 C142.623,318.322 149.496,322.395 155.989,325.41 C163.59,328.939 172.368,331.104 180.663,332.12 C187.657,332.977 195.94,333.9 202.433,330.622 C207.706,327.957 209.335,318.917 201.77,318.833 C197.066,318.78 192.514,319.439 187.789,319.022 C180.619,318.391 173.492,317.246 166.551,315.328 C160.749,313.724 154.371,311.693 149.767,307.645 C145.671,304.044 146.539,300.268 145.228,295.626 C144.901,294.477 143.23,294.533 142.44,295.066 L142.44,295.066 Z" id="Shape"></path>
                    <path d="M171.301,310.401 C175.777,299.025 178.965,287.324 182.957,275.764 C187.291,263.222 192.396,250.952 197.986,238.922 C209.33,214.509 222.992,191.202 238.527,169.228 C269.745,125.073 308.33,86.064 357.618,62.618 C364.334,59.424 363.859,48.621 355.15,50.723 C350.707,51.796 346.811,53.594 342.94,56.001 C339.439,58.178 337.332,65.118 343.443,64.964 C347.742,64.856 351.65,64.49 355.838,63.404 C355.016,59.439 354.193,55.474 353.37,51.509 C339.801,58.688 326.443,66.068 313.974,75.068 C303.173,82.862 293.039,91.552 283.398,100.733 C264.043,119.163 246.801,139.82 231.564,161.753 C216.001,184.152 202.406,208.008 191.155,232.853 C185.738,244.816 180.986,257.058 176.748,269.486 C172.887,280.807 168.23,293.298 167.578,305.317 C167.481,307.106 167.523,308.919 167.476,310.711 C167.417,313.015 170.776,311.737 171.301,310.401 L171.301,310.401 Z" id="Shape"></path>
                    <path d="M362.837,54.345 C354.026,60.514 347.94,70.724 342.525,79.818 C336.81,89.418 331.575,99.299 326.822,109.409 C317.38,129.492 310.613,151.163 306.597,172.97 C302.363,195.961 300.503,220.711 304.077,243.896 C305.895,255.687 309.4,267.132 313.954,278.137 C318.526,289.184 324.225,300.952 333.181,308.971 C336.388,311.842 341.063,307.513 340.261,303.917 C337.794,292.841 332.181,282.698 327.768,272.234 C323.33,261.713 319.861,250.712 317.96,239.445 C314.24,217.383 316.283,193.772 320.157,171.871 C323.849,150.99 330.493,131.087 338.873,111.657 C343.052,101.969 347.792,92.534 352.862,83.286 C357.466,74.889 364.144,65.51 365.606,55.893 C365.854,54.272 364.155,53.422 362.837,54.345 L362.837,54.345 Z" id="Shape"></path>
                    <path d="M304.7,316.517 C309.038,320.37 315.534,320.704 321.064,320.788 C328.073,320.896 335.057,319.558 341.674,317.306 C348.487,314.987 354.867,311.358 360.244,306.575 C365.139,302.221 370.904,295.584 369.67,288.727 C369.031,285.173 364.914,285.092 362.616,287.346 C359.121,290.775 356.753,295.132 353.2,298.547 C349.445,302.157 344.749,304.682 339.91,306.505 C334.99,308.359 329.774,309.442 324.561,310.012 C319.136,310.606 313.548,309.941 308.18,310.859 C306.297,311.182 302.292,314.379 304.7,316.517 L304.7,316.517 Z" id="Shape"></path>
                    <path d="M331.461,284.476 C337.643,276.647 342.832,268.371 350.476,261.788 C357.43,255.799 365.399,251.331 374.055,248.312 C391.92,242.083 411.116,242.226 429.254,247.231 C448.246,252.471 465.662,263.594 477.621,279.3 C493.921,300.704 504.031,327.675 504.642,354.655 C505.092,374.474 500.343,393.913 491.783,411.717 C487.719,420.17 482.709,428.078 477.193,435.651 C471.191,443.89 464.111,451.357 458.709,460.019 C456.189,464.059 459.233,469.368 464.031,466.082 C474.816,458.696 483.058,448.328 490.525,437.721 C497.796,427.394 504.002,416.269 508.752,404.564 C518.731,379.969 521.406,353.054 516.031,327.067 C510.902,302.269 499.2,276.649 480.742,258.891 C466.474,245.164 447.763,236.544 428.361,233.211 C408.058,229.722 386.73,232.215 368.052,240.951 C359.203,245.09 350.921,250.99 344.21,258.088 C337.452,265.236 330.7,274.111 329.231,284.056 C329.008,285.565 330.803,285.311 331.461,284.476 L331.461,284.476 Z" id="Shape"></path>
                    <path d="M264.549,421.901 C260.588,427.372 262.969,434.625 266.025,440.022 C270.495,447.916 276.793,454.514 283.409,460.639 C289.895,466.644 296.902,472.091 304.184,477.095 C312.317,482.685 321.341,485.906 330.685,489.015 C357.202,497.839 387.239,503.058 414.946,497.358 C438.1,492.594 457.684,477.657 473.417,460.653 C480.334,453.177 485.07,445.279 489.382,436.134 C491.003,432.696 486.87,431.473 484.612,433.521 C479.969,437.734 475.186,441.584 470.907,446.199 C467.059,450.35 463.202,454.495 459.178,458.477 C451.254,466.321 442.483,473.064 432.534,478.13 C409.163,490.034 381.289,486.355 356.642,481.109 C349.369,479.56 342.195,477.562 335.103,475.33 C329.524,473.574 323.644,471.974 318.463,469.213 C311.778,465.65 305.469,461.268 299.387,456.774 C291.841,451.2 284.653,445.372 278.058,438.679 C273.433,433.987 269.267,428.612 268.079,422.074 C267.734,420.164 265.448,420.66 264.549,421.901 L264.549,421.901 Z" id="Shape"></path>
                    <path d="M330.432,277.917 C324.088,279.88 318.488,283.06 311.827,284.365 C303.764,285.945 295.354,286.333 287.19,287.247 C270.737,289.089 253.208,292.663 243.175,307.189 C237.295,315.703 248.916,320.517 253.814,312.939 C261.911,300.413 279.882,299.519 293.228,297.464 C301.138,296.247 308.944,294.634 316.434,291.755 C322.094,289.578 330.018,285.331 331.73,278.964 C331.952,278.136 331.131,277.701 330.432,277.917 L330.432,277.917 Z" id="Shape"></path>
                    <path d="M68.842,38.107 C93.442,39.126 116.362,27.816 139.613,21.377 C163.449,14.774 189.543,13.588 214.162,13.648 C239.659,13.711 265.303,16.673 289.98,23.141 C312.124,28.945 336.151,38.64 351.524,56.303 C353.397,52.397 355.269,48.492 357.142,44.587 C354.071,45.555 351.049,45.787 347.831,45.817 C343.3,45.86 335.774,55.112 342.185,57.753 C347.544,59.961 352.414,59.247 357.845,57.542 C362.008,56.234 367.154,50.077 363.463,45.826 C348.081,28.109 325.099,18.103 303.067,11.576 C277.485,3.999 250.708,0.986 224.093,0.777 C198.176,0.573 170.837,2.433 145.662,8.913 C120.183,15.471 96.467,28.624 70.144,32.021 C66.905,32.44 64.307,37.918 68.842,38.107 L68.842,38.107 Z" id="Shape"></path>
                    <path d="M59.517,32.191 C70.661,52.878 92.663,67.524 114.366,75.002 C138.036,83.156 163.327,85.11 188.216,84.426 C213.116,83.742 237.756,79.722 262.06,74.47 C289.71,68.494 317.639,58.532 346.296,62.851 C347.853,58.3 349.409,53.749 350.966,49.198 C346.407,49.198 342.478,49.503 338.237,51.299 C335.21,52.58 330.424,58.028 335.021,60.65 C339.169,63.016 343.366,62.931 348.024,62.931 C354.284,62.931 361.264,50.57 352.694,49.278 C325.266,45.143 298.339,52.618 271.883,59.03 C248.092,64.796 223.884,68.867 199.432,70.33 C174.976,71.794 150.352,70.153 126.707,63.478 C114.746,60.101 103.432,54.924 92.87,48.423 C82.822,42.239 74.055,33.356 62.869,29.25 C61.415,28.715 58.54,30.376 59.517,32.191 L59.517,32.191 Z" id="Shape"></path>
                    <path d="M352.409,54.499 C358.867,57.428 366.37,58.481 373.119,60.721 C380.525,63.179 387.663,66.664 394.405,70.567 C407.114,77.924 417.953,88.002 427.309,99.244 C446.992,122.893 459.374,152.478 467.546,181.885 C469.083,187.416 478.315,181.937 477.682,177.402 C477.231,174.167 475.891,172.259 472.807,171.012 C470.575,170.11 467.368,171.822 467.078,174.342 C466.821,176.575 467.049,178.504 467.307,180.728 C470.686,179.233 474.064,177.739 477.443,176.245 C467.686,146.39 455.038,117.054 434.579,92.866 C424.729,81.222 412.817,71.285 399.516,63.82 C392.95,60.134 385.986,57.35 378.811,55.099 C371.069,52.668 361.983,50.389 353.832,51.49 C352.78,51.631 350.72,53.733 352.409,54.499 L352.409,54.499 Z" id="Shape"></path>
                    <path d="M353.402,65.415 C353.219,94.145 374.256,119.125 394.787,136.891 C417.04,156.147 442.71,170.842 467.942,185.754 C469.495,182.474 471.046,179.194 472.598,175.915 C469.836,176.262 467.68,177.055 465.494,178.785 C463.986,179.978 463.324,182.117 464.429,183.754 C465.52,185.369 467.232,185.901 469.096,186.154 C473.553,186.759 480.494,179.59 475.047,176.375 C450.859,162.103 426.387,147.986 404.641,130.081 C393.71,121.081 383.768,111.055 375.022,99.916 C366.479,89.036 360.887,77.122 355.538,64.471 C355.032,63.275 353.408,64.505 353.402,65.415 L353.402,65.415 Z" id="Shape"></path>
                    <path d="M109.397,319.394 C102.991,313.981 95.802,310.402 87.929,307.366 C80.053,304.329 71.448,302.526 63.229,305.263 C53.784,308.409 47.574,317.846 45.621,327.223 C43.53,337.26 48.304,347.16 55.251,354.142 C68.507,367.463 92.578,374.988 109.825,365.237 C125.782,356.215 124.202,336.27 113.24,324.075 C109.606,320.032 105.323,317.688 100.048,316.769 C97.277,316.286 93.503,319.955 95.589,322.613 C101.804,330.533 117.747,342.483 109.243,354.346 C105.671,359.327 97.726,359.55 92.284,359.137 C83.845,358.496 75.931,355.022 69.013,350.287 C62.589,345.891 56.779,339.061 55.642,331.162 C54.583,323.802 58.091,315.216 65.477,312.779 C79.166,308.262 93.991,319.452 106.48,323.217 C108.102,323.709 111.057,320.796 109.397,319.394 L109.397,319.394 Z" id="Shape"></path>
                    <path d="M383.303,347.347 C367.565,345.028 349.608,351.897 338.398,363.242 C328.096,373.668 326.333,391.333 340.131,399.617 C349.718,405.373 362.797,402.833 372.641,399.243 C384.301,394.989 395.204,387.946 403.395,378.587 C409.653,371.437 414.112,360.84 407.833,352.339 C404.437,347.739 398.428,345.501 393.177,343.943 C383.586,341.099 372.955,340.431 363.334,343.1 C360.694,343.832 358.689,348.02 362.035,349.157 C370.77,352.124 380.278,351.721 389.181,354.362 C393.439,355.625 398.138,358.293 399.645,361.58 C401.041,364.626 400.195,366.948 398.283,370.363 C398.651,369.706 397.208,371.916 396.865,372.375 C396.138,373.348 395.342,374.266 394.529,375.167 C393.728,376.057 390.625,378.803 388.808,380.237 C380.83,386.533 369.626,391.742 358.899,392.582 C349.14,393.346 337.937,387.249 340.201,375.44 C341.722,367.5 350.134,362.013 356.654,358.421 C360.802,356.135 365.244,354.424 369.783,353.094 C373.318,352.058 377.99,350.537 381.685,350.781 C383.443,350.896 385.671,347.696 383.303,347.347 L383.303,347.347 Z" id="Shape"></path>
                </g>
            </g>
        </g>
    </g>
</svg>