<?xml version="1.0" encoding="UTF-8"?>
<svg width="526px" height="444px" viewBox="0 0 526 444" version="1.1" xmlns="http://www.w3.org/2000/svg" xmlns:xlink="http://www.w3.org/1999/xlink">
    <!-- Generator: Sketch 41 (35326) - http://www.bohemiancoding.com/sketch -->
    <title>chest</title>
    <desc>Created with Sketch.</desc>
    <defs></defs>
    <g id="Page-1" stroke="none" stroke-width="1" fill="none" fill-rule="evenodd">
        <g id="Layer_1" transform="translate(-5485.000000, -44.000000)" fill="#000000">
            <g id="Layer_1_3_">
                <g id="chest" transform="translate(5485.000000, 44.000000)">
                    <path d="M110.583,188.869 C126.864,205.001 122.405,229.456 131.881,248.677 C134.035,253.047 137.376,256.501 139.993,260.53 C142.835,264.904 148.326,266.99 153.114,268.288 C162.472,270.825 175.872,271.371 184.532,266.676 C186.659,265.524 187.995,262.511 185.786,260.827 C182.475,258.303 177.903,258.555 173.854,258.625 C168.577,258.718 163.351,258.648 158.164,257.575 C155.983,257.124 154.017,256.305 152.089,255.209 C149.902,253.965 148.894,251.339 146.799,250.192 C142.642,247.916 140.28,242.544 138.182,238.556 C129.382,221.836 132.4,195.811 112.607,186.699 C111.536,186.206 109.547,187.843 110.583,188.869 L110.583,188.869 Z" id="Shape"></path>
                    <path d="M193.56,267.745 C194.52,271.468 200.811,271.641 203.823,271.841 C209.134,272.195 214.403,272.073 219.707,271.671 C230.552,270.849 241.272,268.512 251.354,264.411 C261.499,260.283 270.73,254.415 278.151,246.311 C283.988,239.937 293.955,226.772 287.63,218.115 C286.336,216.344 283.497,217.457 282.215,218.553 C275.382,224.402 272.993,233.733 266.639,240.155 C260.236,246.626 252.264,251.056 243.784,254.199 C234.857,257.507 225.424,259.53 215.994,260.706 C212.493,261.143 191.868,261.184 193.56,267.745 L193.56,267.745 Z" id="Shape"></path>
                    <path d="M302.638,232.646 C295.274,247.209 307.427,264.251 319.741,271.275 C334.498,279.693 352.554,281.283 369.18,281.679 C385.381,282.067 404.268,282.347 419.275,275.656 C435.408,268.463 442.944,252.976 446.072,236.418 C447.936,226.549 448.564,216.48 449.862,206.531 C450.541,201.333 451.434,196.166 452.694,191.076 C453.86,186.366 455.932,181.746 455.744,176.83 C455.609,173.312 451.222,173.936 449.38,175.584 C442.594,181.659 440.79,191.592 439.249,200.18 C437.698,208.824 437.001,217.6 435.964,226.313 C434.284,240.42 432.082,257.292 418.367,264.787 C411.069,268.774 402.337,269.045 394.23,269.577 C386.372,270.094 378.488,270.335 370.613,270.209 C354.55,269.952 336.734,268.335 322.647,259.963 C318.069,257.243 313.647,253.48 310.898,248.868 C307.766,243.615 307.866,237.317 305.173,232.131 C304.572,230.97 303.081,231.771 302.638,232.646 L302.638,232.646 Z" id="Shape"></path>
                    <path d="M176.127,235.154 C174.353,237.409 174.908,240.255 176.783,242.23 C178.775,244.329 182.025,244.938 184.798,244.699 C187.305,244.483 189.625,242.707 190.684,240.456 C191.891,237.89 191.065,235.309 188.291,234.487 C185.703,233.721 183.045,233.661 180.365,233.562 C177.818,233.467 175.189,235.879 174.183,238.018 C173.335,239.82 173.221,242.942 175.488,243.868 C177.387,244.642 178.819,245.921 180.929,246.22 C184.555,246.735 189.745,242.628 188.054,238.628 C186.861,235.806 184.487,234.546 181.722,233.625 C180.499,237.2 179.276,240.774 178.053,244.35 C179.094,244.314 180.134,244.283 181.176,244.297 C180.161,244.282 181.829,244.376 181.869,244.381 C182.417,244.442 182.962,244.543 183.505,244.64 C184.669,241.236 185.833,237.832 186.998,234.428 C186.519,234.519 186.04,234.587 185.556,234.65 C185.486,234.66 183.997,234.642 184.924,234.712 C184.091,234.649 183.225,234.462 182.42,234.244 C183.11,234.431 182.142,234.081 182.038,234.023 C181.768,233.873 181.522,233.714 181.24,233.583 C179.401,232.714 177.313,233.647 176.127,235.154 L176.127,235.154 Z" id="Shape"></path>
                    <path d="M379.697,240.321 C383.395,241.81 387.601,241.613 391.527,241.745 C392.712,238.284 393.895,234.823 395.079,231.362 C391.875,230.47 387.583,231.63 384.448,232.342 C386.317,234.471 388.186,236.601 390.054,238.731 C390.078,238.66 390.103,238.589 390.127,238.518 C388.459,239.982 386.792,241.445 385.125,242.909 C385.205,242.888 385.287,242.866 385.368,242.845 C384.392,242.924 383.418,243.003 382.443,243.082 C386.748,243.78 392.974,239.76 391.129,234.76 C390.361,232.679 388.452,231.713 386.29,231.837 C383.155,232.018 380.875,234.132 379.427,236.749 C378.539,238.354 378.516,240.681 379.766,242.105 C381.125,243.655 383.21,243.616 385.034,243.137 C388.013,242.355 389.85,242.302 392.914,241.465 C395.313,240.809 397.45,238.51 397.969,236.092 C398.585,233.214 396.575,231.209 393.767,231.301 C390.402,231.412 387.037,231.411 383.698,231.867 C381.52,232.164 379.575,233.509 378.628,235.522 C377.934,236.995 377.833,239.571 379.697,240.321 L379.697,240.321 Z" id="Shape"></path>
                    <path d="M193.292,43.995 C179.271,61.097 159.313,70.279 139.601,79.082 C128.876,83.872 119.039,89.031 109.467,95.859 C105.783,98.486 102.232,101.224 99.397,104.779 C97.344,107.352 95.66,109.668 94.362,111.131 C95.691,110.175 97.021,109.219 98.35,108.263 C98.29,108.28 98.231,108.296 98.171,108.313 C99.835,108.639 101.5,108.965 103.164,109.292 C103.294,109.459 103.424,109.625 103.554,109.791 C102.144,104.651 94.926,109.005 93.629,111.812 C93.094,112.972 92.902,113.965 92.822,115.234 C92.748,116.422 93.65,117.859 94.718,118.353 C101.977,121.712 107.23,109.541 111.648,105.752 C121.434,97.361 132.678,91.66 144.177,86.048 C163.751,76.495 187.222,66.069 196.793,45.212 C198.006,42.572 194.612,42.387 193.292,43.995 L193.292,43.995 Z" id="Shape"></path>
                    <path d="M97.684,113.778 C94.168,114.678 90.847,115.022 87.316,116.208 C84.143,117.274 81.051,118.772 78.015,120.175 C70.8,123.508 64.661,128.699 59.196,134.393 C49.15,144.862 41.714,157.233 36.985,170.935 C32.363,184.329 30.414,198.255 29.527,212.348 C29.082,219.421 28.958,226.506 29.043,233.591 C29.126,240.469 29.175,248.877 31.78,255.326 C33.032,258.424 36.827,255.396 37.448,253.5 C39.533,247.133 39.598,239.844 39.927,233.193 C40.258,226.524 40.401,219.848 40.732,213.179 C41.361,200.486 42.969,187.782 46.424,175.532 C49.869,163.317 56.01,152.022 64.072,142.257 C68.531,136.858 73.64,132.053 79.504,128.222 C82.454,126.296 85.616,124.746 88.76,123.171 C92.406,121.344 95.018,119.034 98.302,116.764 C99.701,115.797 100.03,113.177 97.684,113.778 L97.684,113.778 Z" id="Shape"></path>
                    <path d="M32.388,252.154 C25.776,255.519 21.149,263.464 17.58,269.696 C13.552,276.729 10.67,284.411 8.46,292.188 C3.93,308.129 2.739,324.917 0.996,341.329 C4.707,340.134 8.418,338.937 12.129,337.741 C11.771,336.441 11.367,335.731 10.359,334.832 C6.744,331.603 0.245,335.814 0.683,340.392 C0.766,341.165 0.831,341.941 0.878,342.718 C1.38,349.64 11.762,345.538 12.276,340.415 C13.782,325.434 14.879,310.395 18.231,295.68 C19.916,288.286 22.315,281.081 25.493,274.198 C28.541,267.597 34.249,261.19 36,254.173 C36.591,251.808 33.997,251.336 32.388,252.154 L32.388,252.154 Z" id="Shape"></path>
                    <path d="M127.685,240.59 C125.655,250.561 124.176,259.932 119.493,269.121 C114.532,278.852 107.345,286.618 99.514,294.084 C92.225,301.035 86.229,307.536 82.58,317.075 C78.988,326.468 77.697,336.583 73.809,345.864 C77.481,345.116 81.154,344.369 84.826,343.621 C84.558,345.188 84.527,345.081 84.729,343.299 C84.602,342.616 84.455,341.94 84.285,341.267 C83.171,336.63 76.792,340.006 75.099,342.011 C74.346,342.903 73.773,343.861 73.203,344.876 C72.18,346.704 72.506,348.598 73.545,350.269 C73.747,350.593 73.948,350.917 74.15,351.242 C76.632,355.234 83.345,350.764 84.478,347.855 C88.115,338.51 89.806,328.637 92.68,319.062 C95.813,308.624 103.781,302.232 111.019,294.58 C124.061,280.793 135.746,259.435 131.755,239.768 C131.258,237.311 128.059,238.753 127.685,240.59 L127.685,240.59 Z" id="Shape"></path>
                    <path d="M420.698,276.848 C419.219,288.261 413.567,299.311 409.749,310.079 C404.745,324.193 399.976,338.38 394.815,352.439 C390.06,365.391 387.152,378.135 386.167,391.916 C385.173,405.798 386.127,419.774 387.101,433.628 C391.099,432.346 395.097,431.065 399.096,429.782 C398.783,425.79 396.241,421.542 391.575,423.5 C387.181,425.344 386.733,429.418 387.1,433.628 C387.77,441.349 399.584,436.004 399.095,429.782 C398.052,416.524 397.172,403.253 397.727,389.95 C398.32,375.727 401.867,362.622 406.407,349.229 C411.158,335.217 415.511,321.03 419.576,306.804 C422.266,297.392 428.17,285.441 423.989,275.787 C423.292,274.178 420.869,275.534 420.698,276.848 L420.698,276.848 Z" id="Shape"></path>
                    <path d="M499.303,236.017 C488.21,258.828 502.663,283.91 508.135,306.358 C514.858,333.945 514.864,363.106 512.352,391.234 C516.184,390 520.016,388.765 523.847,387.53 C522.919,384.806 521.789,382.839 519.252,381.386 C516.165,379.618 512.36,382.932 511.643,385.808 C510.891,388.81 511.434,391.146 512.505,393.995 C515.072,400.821 523.84,393.484 524.121,388.856 C525.775,361.673 525.925,334.164 520.354,307.385 C517.71,294.671 513.031,282.771 509.353,270.37 C506.138,259.534 503.218,247.02 504.052,235.632 C504.271,232.659 500.011,234.562 499.303,236.017 L499.303,236.017 Z" id="Shape"></path>
                    <path d="M420.512,297.786 C419.658,307.474 420.143,315.572 424.138,324.62 C428.277,333.996 434.78,342.009 439.229,351.183 C442.738,358.419 445.688,366.385 448.141,374.053 C449.013,376.78 449.802,379.532 450.529,382.299 C450.852,383.531 451.154,384.77 451.379,386.023 C451.771,388.211 450.719,388.902 452.086,386.235 C453.238,385.007 454.39,383.78 455.542,382.551 C454.363,383.239 459.193,381.783 457.36,381.886 C454.128,382.067 451.212,385.196 451.23,388.401 C451.235,389.075 451.284,389.852 451.603,390.442 C452.901,392.845 454.938,393.112 457.436,392.571 C471.056,389.619 458.026,364.338 455.123,357.306 C450.656,346.486 444.818,337.42 438.163,327.853 C432.039,319.051 425.699,307.848 424.303,297.02 C424.01,294.753 420.667,296.042 420.512,297.786 L420.512,297.786 Z" id="Shape"></path>
                    <path d="M111.356,283.804 C110.201,289.187 110.336,293.191 112.042,298.536 C113.815,304.098 116.841,309.229 119.949,314.132 C126.852,325.016 136.359,334.064 145.548,342.989 C147.37,344.759 149.178,346.542 150.97,348.342 C151.638,349.015 152.3,349.694 152.96,350.373 C152.821,350.229 151.939,355.972 151.879,356.502 C150.83,365.862 149.381,375.175 148.09,384.504 C145.579,402.659 143.884,420.987 146.329,439.246 C150.228,437.52 154.129,435.796 158.028,434.07 C156.855,430.127 153.271,425.1 148.553,427.792 C143.653,430.589 145.245,436.313 146.604,440.582 C148.621,446.917 159.105,440.652 158.305,435.406 C155.569,417.483 157.342,399.55 159.739,381.697 C160.906,373.001 162.202,364.324 163.093,355.593 C163.427,352.323 164.873,346.892 163.686,343.791 C162.934,341.829 160.292,340.147 158.78,338.771 C149.878,330.673 141.133,322.421 132.99,313.55 C128.821,309.009 124.841,304.281 121.497,299.094 C119.942,296.683 118.705,294.065 117.656,291.4 C116.677,288.912 115.239,285.719 114.819,283.104 C114.475,280.962 111.679,282.299 111.356,283.804 L111.356,283.804 Z" id="Shape"></path>
                    <path d="M332.193,38.674 C327.797,47.658 334.489,57.266 340.612,63.57 C348.488,71.678 359.088,77.719 368.907,83.118 C381.275,89.916 394.188,95.625 406.773,101.994 C418.697,108.028 429.88,115.072 440.559,123.092 C475.221,149.119 517.428,194.331 494.817,240.75 C498.416,241.421 502.016,242.093 505.614,242.764 C506.425,240.631 506.837,238.827 506.792,236.536 C506.729,233.266 503.244,232.206 500.591,233.055 C497.328,234.098 495.177,236.974 494.972,240.326 C494.921,240.468 494.869,240.609 494.818,240.751 C491.303,248.931 502.634,248.887 505.615,242.765 C528.747,195.244 493.99,149.767 458.443,120.396 C449.038,112.625 439.156,105.364 428.654,99.143 C415.992,91.642 402.468,85.604 389.135,79.416 C377.596,74.061 365.941,68.438 355.257,61.492 C350.668,58.509 346.409,55.153 342.574,51.249 C338.764,47.373 336.727,43.016 334.38,38.229 C333.883,37.217 332.557,37.929 332.193,38.674 L332.193,38.674 Z" id="Shape"></path>
                    <path d="M283.388,291.142 C281.026,302.023 283.38,313.268 283.952,324.262 C284.277,330.511 283.949,336.642 282.592,342.758 C281.988,345.48 279.755,347.322 280.553,350.263 C281.318,353.082 282.141,355.884 282.862,358.716 C288.557,381.106 286.36,404.486 286.012,427.276 C290.01,425.994 294.008,424.713 298.006,423.43 C297.914,421.221 297.543,420.085 296.231,418.323 C293.752,414.997 288.797,418.733 287.501,421.186 C286.375,423.316 286.109,424.891 286.013,427.276 C285.712,434.683 298.084,429.847 298.007,423.43 C297.739,401.085 298.517,378.359 293.693,356.406 C292.632,351.578 290.185,347.017 290.857,342.09 C291.616,336.522 291.82,331.07 291.557,325.453 C291.012,313.844 289.527,301.743 287.368,290.339 C286.906,287.907 283.771,289.381 283.388,291.142 L283.388,291.142 Z" id="Shape"></path>
                    <path d="M180.837,342.473 C184.8,347.507 190.267,350.256 196.299,352.259 C203.606,354.685 211.026,356.81 218.715,357.558 C232.51,358.901 248.584,359.124 261.967,354.977 C270.007,352.486 271.629,338.528 261.239,341.557 C257.558,342.63 255.39,345.263 254.377,348.853 C256.664,346.42 258.952,343.989 261.239,341.557 C255.129,343.2 249.32,345.13 243.032,346.128 C236.131,347.224 229.166,347.552 222.188,347.403 C215.126,347.253 208.003,346.946 201.1,345.36 C194.847,343.922 188.79,341.74 182.579,340.188 C181.484,339.914 180.053,341.478 180.837,342.473 L180.837,342.473 Z" id="Shape"></path>
                    <path d="M304.469,345.214 C309.225,348.076 312.917,351.427 318.316,353.3 C324.449,355.429 330.754,357.32 337.18,358.317 C349.6,360.243 363.576,359.524 375.543,355.512 C379.529,354.176 383.865,349.442 382.134,344.923 C380.297,340.13 374.138,341.876 371.197,344.341 C370.968,344.533 370.739,344.726 370.509,344.917 C367.501,347.439 366.087,352.295 369.742,354.837 C369.945,354.978 370.148,355.119 370.352,355.261 C371.842,350.926 373.332,346.591 374.823,342.256 C363.719,346.444 352.682,347.549 340.807,346.923 C335.122,346.623 329.54,346.129 323.928,345.153 C318.106,344.14 311.744,344.043 306.077,342.568 C304.82,342.24 303.08,344.378 304.469,345.214 L304.469,345.214 Z" id="Shape"></path>
                    <path d="M198.151,410.839 C205.119,415.756 213.227,418.462 221.686,419.382 C226.209,419.874 230.802,420.005 235.35,419.922 C237.832,419.877 240.313,419.689 242.787,419.467 C244.65,419.3 247.217,418.434 248.958,419.032 C254.104,420.803 260.163,414.188 259.909,409.422 C259.555,402.746 251.74,404.381 248.206,407.13 C249.835,406.326 249.772,406.209 248.02,406.779 C247.087,407.003 246.152,407.212 245.213,407.408 C243.274,407.828 241.293,408.095 239.331,408.38 C235.128,408.992 230.89,409.336 226.648,409.511 C217.801,409.875 208.671,409.77 200.005,407.79 C198.502,407.446 196.633,409.769 198.151,410.839 L198.151,410.839 Z" id="Shape"></path>
                    <path d="M312.547,410.156 C319.217,414.843 325.937,417.067 333.994,418.147 C338.398,418.738 342.881,418.854 347.318,418.987 C349.269,419.046 351.222,419.064 353.174,419.085 C354.64,419.101 357.671,418.64 358.978,419.189 C361.203,414.486 363.429,409.783 365.654,405.08 C362.224,405.678 359.951,406.579 357.208,408.773 C354.072,411.282 352.008,419.005 357.898,419.704 C359.444,419.887 360.934,419.916 362.49,419.85 C366.689,419.668 370.738,415.875 371.599,411.856 C372.602,407.175 368.138,403.614 363.693,405.476 C360.484,406.821 356.283,406.793 352.821,407.167 C348.719,407.61 344.61,407.943 340.489,408.139 C332.521,408.517 323.2,408.878 315.597,406.13 C313.434,405.347 310.178,408.491 312.547,410.156 L312.547,410.156 Z" id="Shape"></path>
                    <path d="M214.471,61.887 C219.409,69.119 225.311,75.567 231.032,82.175 C236.257,88.208 243.771,96.217 244.18,104.61 C246.717,101.914 249.254,99.217 251.791,96.52 C240.811,96.613 229.17,98.829 218.635,101.821 C210.201,104.216 208.66,118.744 219.387,115.698 C229.715,112.764 240.633,111.709 250.803,108.329 C254.826,106.991 258.647,101.984 255.783,97.943 C244.982,82.695 231.533,71.349 217.377,59.336 C215.912,58.092 213.368,60.271 214.471,61.887 L214.471,61.887 Z" id="Shape"></path>
                    <path d="M301.034,61.588 C295.339,67.632 289.667,73.337 284.7,80.063 C279.58,86.998 275.905,94.36 272.146,102.063 C270.636,105.158 271.596,108.887 275.209,109.701 C281.348,111.084 287.745,111.243 294.02,111.324 C300.396,111.406 306.303,112.277 312.541,113.472 C311.558,112.932 310.573,112.393 309.589,111.853 C311.872,113.672 313.47,113.769 316.299,113.168 C320.741,112.224 327.633,102.351 320.937,99.678 C308.591,94.75 294.291,97.354 281.333,96.711 C282.546,98.695 283.758,100.68 284.971,102.664 C286.045,95.784 290.076,89.102 293.446,83.106 C297.123,76.564 300.828,70.014 304.492,63.483 C305.815,61.119 302.549,59.979 301.034,61.588 L301.034,61.588 Z" id="Shape"></path>
                    <path d="M185.793,1.667 C183.564,7.423 184.047,13.898 184.547,19.932 C185.259,28.538 187.24,36.956 188.135,45.525 C188.822,52.097 199.003,47.566 198.379,42.241 C198.169,40.448 197.75,39.424 196.8,37.904 C194.087,33.566 188.184,39.895 188.029,42.944 C187.898,43.812 187.934,44.673 188.134,45.526 C191.47,44.05 194.806,42.575 198.142,41.099 C194.946,33.707 193.289,25.479 191.89,17.578 C190.951,12.272 190.934,6.003 188.459,1.124 C187.871,-0.039 186.176,0.679 185.793,1.667 L185.793,1.667 Z" id="Shape"></path>
                    <path d="M335.405,7.788 C336.959,13.644 336.095,20.615 335.278,26.483 C334.758,30.205 334.028,33.981 333.174,37.644 C332.549,40.323 331.56,42.197 330.839,44.019 C329.544,47.293 331.759,51.238 335.696,49.554 C343.146,46.366 342.73,36.822 343.258,29.941 C343.935,21.108 343.386,13.453 339.013,5.732 C337.866,3.707 334.903,5.897 335.405,7.788 L335.405,7.788 Z" id="Shape"></path>
                </g>
            </g>
        </g>
    </g>
</svg>