<?xml version="1.0" encoding="UTF-8"?>
<svg width="477px" height="444px" viewBox="0 0 477 444" version="1.1" xmlns="http://www.w3.org/2000/svg" xmlns:xlink="http://www.w3.org/1999/xlink">
    <!-- Generator: Sketch 41 (35326) - http://www.bohemiancoding.com/sketch -->
    <title>chickpea</title>
    <desc>Created with Sketch.</desc>
    <defs></defs>
    <g id="Page-1" stroke="none" stroke-width="1" fill="none" fill-rule="evenodd">
        <g id="Layer_1" transform="translate(-6094.000000, -1559.000000)" fill="#010101">
            <g id="Layer_1_3_">
                <g id="chickpea" transform="translate(6094.000000, 1559.000000)">
                    <path d="M191.702,64.22 C207.912,57.852 211.307,38.35 218.824,24.486 C221.612,19.343 226.63,12.045 232.366,12.362 C237.85,12.666 242.809,18.646 246.161,22.908 C254.976,34.111 263.266,50.612 264.99,63.549 C265.132,64.608 265.192,65.672 265.182,66.738 C265.17,67.702 265.297,68.443 265.602,69.458 C265.633,69.562 265.665,69.664 265.696,69.768 C265.302,67.897 265.339,68.079 265.803,70.315 C267.453,77.351 265.477,63.02 265.818,69.427 C265.949,71.885 267.63,73.262 269.838,73.837 C274.577,75.07 279.384,70.49 281.146,66.621 C282.824,62.936 282.088,59.507 281.082,55.781 C277.898,44.004 271.489,32.465 264.904,22.303 C258.889,13.022 249.229,0.613 236.968,0.726 C222.892,0.858 213.782,14.463 208.329,25.666 C205.144,32.207 202.62,39.05 199.596,45.664 C197.288,50.712 195.168,58.309 190.829,61.976 C189.838,62.812 190.106,64.847 191.702,64.22 L191.702,64.22 Z" id="Shape"></path>
                    <path d="M182.924,66.339 C173.967,74.309 164.674,81.994 154.538,88.431 C143.976,95.138 133.354,101.767 122.777,108.443 C101.623,121.795 81.08,136.427 63.045,153.832 C23.524,191.971 1.122,244.044 0.679,299.027 C0.458,326.317 6.192,355.433 19.786,379.315 C31.637,400.132 49.887,416.189 71.207,426.868 C91.882,437.224 114.232,441.415 137.103,442.96 C155.695,444.216 174.484,444.473 193.003,442.157 C221.442,438.601 255.223,426.594 261.339,394.728 C262.302,389.709 258.938,385.645 253.738,386.066 C248.443,386.496 243.093,390.996 242.091,396.287 C241.905,397.267 241.696,398.234 241.459,399.203 C241.434,399.307 240.444,402.295 241.117,400.449 C240.478,402.201 239.627,403.868 238.712,405.488 C239.887,403.409 238.313,405.949 238.123,406.215 C237.59,406.96 237,407.663 236.412,408.365 C234.447,410.71 238.064,406.749 235.87,408.905 C234.982,409.778 234.025,410.579 233.064,411.369 C232.775,411.605 230.23,413.421 232.376,411.932 C231.58,412.485 230.753,412.991 229.927,413.497 C228.232,414.538 226.455,415.443 224.666,416.31 C221.681,417.756 226.517,415.568 223.41,416.858 C222.444,417.259 221.463,417.621 220.482,417.984 C218.131,418.854 215.729,419.579 213.318,420.258 C196.38,425.032 176.756,425.56 158.446,425.153 C139.225,424.726 118.061,422.919 98.647,416.676 C76.872,409.675 56.994,396.392 42.732,378.501 C26.185,357.744 19.326,330.14 17.563,304.114 C15.637,275.682 20.991,247.137 31.661,220.805 C40.913,197.973 55.35,177.798 72.86,160.576 C90.599,143.128 111.075,129.497 131.265,115.158 C141.715,107.737 152.614,100.986 162.839,93.242 C172.083,86.242 181.969,78.736 185.451,67.239 C185.956,65.584 183.763,65.593 182.924,66.339 L182.924,66.339 Z" id="Shape"></path>
                    <path d="M283.249,66.925 C285.446,88.645 310.036,97.673 326.923,106.036 C348.381,116.663 369.45,129.71 387.728,145.221 C406.664,161.291 422.383,180.769 434.154,202.624 C448.214,228.73 453.92,256.632 456.25,285.971 C457.352,299.842 458.485,314.02 458.263,327.94 C458.097,338.269 455.218,348.669 451.371,358.19 C443.206,378.4 428.875,397.741 411.219,409.469 C402.889,415.004 394.719,418.045 384.899,420.112 C386.913,419.688 383.77,420.299 383.663,420.318 C382.672,420.497 381.677,420.654 380.682,420.81 C378.566,421.145 376.441,421.415 374.314,421.67 C369.235,422.278 364.128,422.646 359.02,422.902 C338.103,423.95 316.631,422.639 296.365,417.109 C288.666,415.008 279.338,411.019 274.241,406.549 C270.109,402.924 264.539,404.222 260.631,407.651 C257.576,410.333 253.653,417.391 257.771,421.003 C272.531,433.95 293.302,438.161 312.263,440.414 C333.16,442.898 354.771,442.861 375.612,439.847 C397.739,436.648 416.929,427.499 433.381,412.264 C451.593,395.398 464.98,373.564 472.368,349.935 C475.669,339.38 477.245,328.105 476.718,317.052 C476.021,302.415 475.214,287.75 473.812,273.163 C472.415,258.649 470.053,244.214 466.285,230.121 C462.504,215.978 456.522,202.992 449.243,190.34 C424.183,146.781 384.489,114.448 338.921,93.984 C329.467,89.738 319.623,86.452 310.354,81.776 C301.927,77.525 293.141,72.402 288.07,64.158 C286.707,61.953 283.06,65.065 283.249,66.925 L283.249,66.925 Z" id="Shape"></path>
                    <path d="M185.086,110.32 C160.78,117.244 141.785,135.353 130.277,157.537 C125.76,166.242 122.219,177.708 129.14,186.14 C131.562,189.091 135.53,189.42 139.043,189.474 C144.948,189.564 150.833,189.397 156.751,189.557 C168.975,189.887 181.429,188.636 192.108,182.213 C200.794,176.988 207.117,168.465 212.486,160.051 C218.395,150.79 222.977,140.675 226.178,130.177 C228.846,121.426 230.356,110.523 225.2,102.418 C224.062,100.63 222.652,99.579 220.704,98.804 C216.684,97.204 210.296,100.941 211.03,105.76 C212.013,112.214 213.634,117.8 212.57,124.444 C211.231,132.8 207.951,140.732 204.235,148.28 C201.083,154.683 197.48,160.991 193.054,166.607 C186.867,174.456 177.919,176.688 168.335,177.47 C163.282,177.883 158.187,177.796 153.123,177.712 C148.913,177.643 144.522,178.494 140.345,178.126 C137.96,177.916 136.796,174.776 136.518,172.736 C135.907,168.256 138.128,163.318 139.879,159.328 C148.312,140.11 165.652,122.797 185.353,115.297 C188.18,114.221 189.023,109.199 185.086,110.32 L185.086,110.32 Z" id="Shape"></path>
                    <path d="M55.512,325.394 C56.02,344.066 66.398,360.443 79.151,373.475 C92.698,387.32 109.709,397.065 127.888,403.489 C146.407,410.031 166.729,412.013 186.077,408.443 C195.863,406.637 205.161,403.376 214.029,398.874 C223.363,394.136 230.61,387.386 236.398,378.811 C238.023,376.405 236.06,373.542 233.306,375.286 C226.221,379.77 218.781,383.894 211.415,387.936 C203.958,392.028 195.665,394.777 187.31,396.309 C169.622,399.551 151.838,397.15 134.706,392.284 C117.811,387.486 101.919,379.032 88.027,368.351 C74.356,357.84 59.728,342.658 57.401,324.789 C57.242,323.551 55.486,324.437 55.512,325.394 L55.512,325.394 Z" id="Shape"></path>
                    <path d="M291.458,391.404 C306.491,402.123 325.823,402.83 343.748,401.495 C361.418,400.18 378.506,396.817 394.5,388.949 C408.738,381.946 421.086,370.824 429.136,357.125 C436.758,344.153 442.879,324.939 437.63,310.072 C436.614,307.194 432.696,309.924 432.268,311.801 C430.519,319.449 430.086,327.362 428.333,335.036 C426.781,341.834 424.074,348.342 420.65,354.402 C414.04,366.107 403.171,374.808 391.485,381.068 C377.703,388.45 362.19,391.558 346.87,393.848 C329.375,396.463 308.892,398.512 292.503,390.025 C291.766,389.642 290.688,390.854 291.458,391.404 L291.458,391.404 Z" id="Shape"></path>
                </g>
            </g>
        </g>
    </g>
</svg>