<?xml version="1.0" encoding="UTF-8"?>
<svg width="455px" height="485px" viewBox="0 0 455 485" version="1.1" xmlns="http://www.w3.org/2000/svg" xmlns:xlink="http://www.w3.org/1999/xlink">
    <!-- Generator: Sketch 41 (35326) - http://www.bohemiancoding.com/sketch -->
    <title>cucumber</title>
    <desc>Created with Sketch.</desc>
    <defs></defs>
    <g id="Page-1" stroke="none" stroke-width="1" fill="none" fill-rule="evenodd">
        <g id="Layer_1" transform="translate(-508.000000, -4769.000000)" fill="#000000">
            <g id="Layer_1_3_">
                <g id="cucumber" transform="translate(508.000000, 4769.000000)">
                    <path d="M181.702,167.852 C188.332,162.083 193.979,155.154 199.789,148.583 C206.797,140.658 213.788,132.72 220.877,124.867 C236.115,107.991 251.924,91.525 269.378,76.914 C285.357,63.537 303.162,51.641 323.141,45.234 C343.871,38.588 365.353,40.174 384.609,50.276 C384.445,47.86 384.279,45.445 384.115,43.029 C386.426,40.099 386.215,41.232 384.157,42.175 C381.982,43.172 380.611,46.176 382.048,48.233 C382.457,48.819 382.77,49.417 383.285,49.913 C386.045,52.568 390.258,50.684 392.283,48.044 C392.39,47.903 392.5,47.762 392.607,47.62 C394.166,45.588 394.931,41.798 392.113,40.373 C372.357,30.39 351.009,28.546 329.575,33.852 C308.951,38.957 290.285,50.532 273.6,63.337 C238.984,89.904 211.902,124.636 184.152,157.916 C182.163,160.301 180.284,162.774 178.522,165.33 C176.771,167.871 179.548,169.726 181.702,167.852 L181.702,167.852 Z" id="Shape"></path>
                    <path d="M190.384,170.672 C183.216,163.698 172.838,163.911 164.988,169.734 C161.479,172.337 158.821,176.291 158.632,180.737 C158.421,185.661 161.978,189.222 165.825,191.698 C170.765,194.877 178.856,185.366 173.176,181.994 C171.448,180.969 169.518,179.475 169.383,177.811 C169.41,178.157 169.626,177.195 169.31,177.692 C169.381,177.581 170.572,176.317 169.78,177.082 C171.032,175.874 169.009,177.458 170.539,176.476 C174.598,173.867 180.639,174.167 184.971,176.482 C187.835,178.01 193.1,173.313 190.384,170.672 L190.384,170.672 Z" id="Shape"></path>
                    <path d="M169.009,190.968 C173.494,190.703 177.981,187.375 181.609,184.988 C185.288,182.566 190.201,179.831 192.852,176.228 C195.164,173.087 192.329,169.498 188.831,171.645 C185.187,173.883 181.952,177.284 178.584,179.944 C175.056,182.731 171.082,185.269 168.078,188.632 C167.26,189.546 167.676,191.047 169.009,190.968 L169.009,190.968 Z" id="Shape"></path>
                    <path d="M163.124,187.513 C154.646,196.516 147.857,207.068 139.779,216.456 C131.091,226.553 121.635,235.942 112.137,245.269 C93.072,263.989 73.098,281.79 54.896,301.376 C36.723,320.93 19.494,342.876 8.923,367.574 C-1.759,392.533 -3.664,423.396 11.251,447.045 C14.848,452.748 19.224,457.836 24.437,462.12 C26.291,463.643 28.27,465.008 30.218,466.404 C31.063,467.009 31.923,467.609 32.733,468.261 C33.689,469.032 33.784,469.529 33.631,468.829 C33.957,467.308 34.283,465.788 34.608,464.267 C34.572,464.309 34.536,464.352 34.499,464.394 C35.62,463.588 36.741,462.782 37.862,461.977 C38.188,461.892 38.515,461.808 38.842,461.723 C34.127,461.003 28.592,469.057 34.615,470.69 C38.204,471.662 43.456,468.987 43.019,464.675 C42.689,461.42 39.115,459.529 36.729,457.805 C27.916,451.438 20.469,443.477 15.94,433.449 C3.68,406.302 12.232,375.563 26.481,351.143 C53.704,304.485 97.972,271.661 133.844,232.27 C140.101,225.399 146.163,218.304 151.718,210.85 C156.943,203.838 162.37,196.613 164.975,188.171 C165.334,187.015 163.719,186.88 163.124,187.513 L163.124,187.513 Z" id="Shape"></path>
                    <path d="M394.968,148.065 C392.864,153.452 390.964,158.63 388.207,163.748 C386.249,167.383 382.764,171.262 382.684,175.504 C382.668,176.365 383.217,177.118 383.924,177.544 C396.581,185.17 409.65,177.608 413.025,164.015 C414.154,159.468 414.025,153.461 410.506,149.937 C405.932,145.357 397.909,147.944 394.933,152.873 C394.267,153.977 394.754,155.717 396.147,155.902 C398.651,156.237 402.283,153.971 404.319,155.975 C406.301,157.926 406.075,161.507 405.638,163.993 C405.059,167.295 403.486,170.33 400.857,172.431 C397.378,175.211 392.083,172.905 388.799,171.107 C389.213,171.787 389.626,172.467 390.039,173.147 C390.018,172.013 391.207,170.444 391.707,169.383 C392.905,166.841 394.074,164.292 395.158,161.698 C396.924,157.469 398.534,152.432 397.918,147.826 C397.691,146.129 395.422,146.901 394.968,148.065 L394.968,148.065 Z" id="Shape"></path>
                    <path d="M164.911,356.146 C163.464,356.99 161.999,357.474 160.619,358.505 C158.752,359.9 157.118,361.553 155.716,363.413 C153.392,366.498 151.732,371.144 153.8,374.69 C157.048,380.259 163.342,380.003 168.547,377.476 C173.462,375.089 177.892,369.962 178.047,364.332 C178.122,361.592 176.374,359.398 174.234,357.933 C170.888,355.64 166.152,354.995 162.996,357.767 C162.153,358.507 161.672,359.575 161.981,360.681 C162.789,363.578 165.755,363.181 168.029,364.189 C168.953,364.598 169.219,364.812 169.687,365.302 C170.264,365.906 169.863,365.402 170.054,365.79 C170.151,365.987 170.363,367.053 170.246,366.265 C170.287,366.542 170.28,366.826 170.274,367.105 C170.293,366.207 170.162,367.388 170.106,367.598 C170.361,366.646 169.957,367.871 169.856,368.077 C169.568,368.667 170.222,367.604 169.558,368.554 C168.664,369.831 168.037,370.31 166.834,371.027 C164.994,372.126 162.838,372.725 160.986,370.474 C160.538,369.929 160.314,368.626 159.659,367.995 C159.289,367.552 159.242,367.604 159.518,368.155 C159.496,367.839 159.534,367.529 159.632,367.224 C159.781,366.469 160.212,365.769 160.578,365.103 C161.291,363.805 162.391,362.604 163.355,361.489 C164.223,360.485 165.136,359.063 166.171,358.245 C167.517,357.182 166.515,355.21 164.911,356.146 L164.911,356.146 Z" id="Shape"></path>
                    <path d="M294.669,76.888 C290.92,77.226 287.88,78.141 285.055,80.774 C282.004,83.618 280.401,87.495 279.965,91.6 C279.858,92.621 279.958,93.868 281.063,94.359 C288.08,97.479 295.943,95.137 300.85,89.436 C305.022,84.59 303.972,77.696 297.152,76.573 C295.05,76.227 292.797,76.328 291.01,77.581 C289.102,78.919 287.524,81.399 289.809,83.185 C291.123,84.211 292.981,83.814 294.541,84.165 C295.42,84.362 295.52,84.615 295.705,85.15 C295.425,84.341 295.558,85.968 295.681,85.081 C295.547,86.05 295.807,85.065 295.327,85.991 C295.848,84.989 294.257,87.137 295.03,86.351 C294.831,86.546 294.624,86.734 294.41,86.914 C293.407,87.789 295.078,86.529 293.918,87.274 C291.39,88.898 288.054,88.773 284.915,88.031 C285.553,88.758 286.19,89.485 286.829,90.213 C286.452,84.902 289.126,80.947 294.436,79.684 C295.785,79.363 296.59,76.715 294.669,76.888 L294.669,76.888 Z" id="Shape"></path>
                    <path d="M387.289,45.741 C405.573,56.161 414.611,75.507 417.789,95.756 C419.525,106.821 419.419,118.24 416.991,129.188 C415.947,133.898 414.293,138.394 412.034,142.655 C409.872,146.734 405.465,149.801 404.048,154.098 C403.123,156.901 406.116,157.906 408.21,157.455 C413.12,156.399 416.828,149.738 419.207,145.752 C422.002,141.066 423.771,135.73 425.096,130.464 C428.046,118.724 427.933,106.139 426.114,94.238 C423.156,74.895 412.518,44.592 389.087,42.788 C387.799,42.689 385.575,44.764 387.289,45.741 L387.289,45.741 Z" id="Shape"></path>
                    <path d="M38.293,472.017 C46.074,479.574 57.522,482.618 68.052,483.913 C80.058,485.392 92.338,484.634 104.251,482.765 C129.254,478.841 152.321,468.775 172.754,453.944 C194.101,438.45 212.265,419.239 230.795,400.599 C252.553,378.711 273.709,356.283 293.742,332.796 C308.244,315.794 322.482,298.396 335.103,279.939 C343.696,267.373 352.119,254.688 360.309,241.856 C369.486,227.48 378.547,212.923 386.309,197.722 C389.026,192.402 391.56,186.938 393.261,181.199 C394.193,178.053 395.046,173.38 392.413,170.769 C388.586,166.973 380.533,174.139 384.308,177.882 C383.974,177.552 384.421,178.233 384.32,177.622 C384.371,177.931 384.369,178.247 384.371,178.558 C384.381,179.716 384.514,177.581 384.341,178.846 C384.059,180.906 383.387,182.905 382.764,184.562 C380.443,190.732 377.322,196.617 374.191,202.403 C365.948,217.637 356.63,232.295 347.204,246.814 C339.839,258.158 332.298,269.39 324.63,280.531 C309.492,302.526 291.733,323.044 274.089,343.043 C256.358,363.142 237.61,382.219 218.782,401.277 C202.534,417.726 186.224,434.465 167.347,447.951 C149.036,461.031 128.421,469.808 106.221,473.575 C84.928,477.188 63.129,476.373 43.788,466.123 C40.881,464.582 35.531,469.334 38.293,472.017 L38.293,472.017 Z" id="Shape"></path>
                    <path d="M391.052,1.514 C384.324,6.219 380.805,13.6 378.731,21.463 C377.275,26.982 376.037,40.852 383.906,42.413 C386.419,42.911 389.26,40.055 388.464,37.557 C387.646,34.991 385.485,33.453 384.902,30.585 C384.255,27.406 384.659,24.083 385.243,20.936 C386.376,14.839 388.848,8.036 392.126,2.737 C392.625,1.928 392.018,0.838 391.052,1.514 L391.052,1.514 Z" id="Shape"></path>
                    <path d="M391.258,1.119 C388.578,7.513 390.058,16.662 390.305,23.39 C390.423,26.6 389.514,40.502 395.935,38.45 C398.657,37.58 399.316,34.791 398.647,32.963 C397.507,29.852 396.883,26.905 396.432,23.594 C395.846,19.305 395.502,14.987 395.121,10.676 C394.849,7.598 395.07,3.444 393.537,0.656 C392.998,-0.326 391.615,0.263 391.258,1.119 L391.258,1.119 Z" id="Shape"></path>
                    <path d="M398.383,38.515 C402.513,28.94 412.48,23.674 421.413,19.135 C423.508,18.071 425.627,17.084 427.836,16.282 C429.572,15.652 431.918,15.424 433.482,14.445 C435.899,12.934 432.958,14.507 434.708,13.702 C435.059,13.556 435.373,13.348 435.651,13.078 C436.816,11.915 436.429,12.125 434.491,13.707 C436.137,13.18 436.915,11.782 437.042,10.181 C437.097,9.485 436.568,8.809 436.007,8.479 C433.37,6.929 429.645,8.958 426.621,10.424 C421.429,12.945 416.363,15.667 411.526,18.823 C407.13,21.692 391.659,32.093 396.406,39.163 C396.913,39.919 398.141,39.077 398.383,38.515 L398.383,38.515 Z" id="Shape"></path>
                    <path d="M417.442,45.825 C422.725,43.616 426.005,36.692 428.691,32.009 C431.444,27.208 435.52,20.556 436.155,14.923 C436.273,13.876 436.173,12.389 434.965,11.933 C434.99,11.943 433.709,11.136 432.727,11.215 C430.938,11.361 428.97,13.121 429.071,15.015 C429.096,15.482 429.272,15.979 429.576,16.336 C431.035,12.801 431.061,11.921 429.654,13.697 C429.233,14.242 428.946,14.85 428.792,15.519 C428.619,17.214 428.479,18.493 427.896,20.12 C424.843,28.62 420.244,36.222 415.886,44.05 C415.292,45.114 416.293,46.305 417.442,45.825 L417.442,45.825 Z" id="Shape"></path>
                    <path d="M407.669,61.81 C414.561,69.919 430.844,66.398 439.564,64.081 C444.086,62.88 449.112,61.083 452.327,57.525 C455.471,54.047 454.168,50.679 449.721,50.651 C448.704,50.645 447.495,51.84 447.621,52.883 C447.732,53.807 448.404,51.796 447.879,52.549 C447.388,53.253 447.148,53.771 446.886,54.582 C447.195,53.627 446.695,54.436 446.079,54.811 C442.858,56.78 438.942,57.727 435.309,58.585 C427.559,60.416 418.354,61.224 410.7,58.558 C409.063,57.988 406.191,60.071 407.669,61.81 L407.669,61.81 Z" id="Shape"></path>
                    <path d="M416.441,49.796 C422.087,47.538 427.866,48.003 433.739,49.059 C436.227,49.506 438.705,50.113 441.027,51.122 C441.677,51.404 442.221,51.686 442.682,52.218 C442.39,51.239 442.372,51.29 442.63,52.374 C443.571,54.362 442.499,52.435 442.719,51.539 C442.531,52.307 442.788,53.332 443.573,53.685 C443.899,53.831 444.232,53.942 444.575,54.051 C446.208,54.574 448.002,53.176 448.967,52.056 C454.104,46.098 442.481,43.519 438.94,42.858 C431.542,41.478 421.285,41.889 415.477,47.316 C414.47,48.256 414.63,50.521 416.441,49.796 L416.441,49.796 Z" id="Shape"></path>
                    <path d="M20.548,460.944 C20.329,459.591 20.9,457.843 19.744,456.718 C18.127,455.143 16.148,455.147 14.001,455.338 C11.867,455.529 9.693,457.797 10.398,460.014 C13.211,468.86 23.877,474.061 32.808,472.822 C36.376,472.327 39.359,466.01 34.265,466.022 C26.849,466.041 19.549,463.991 16.325,456.635 C15.388,458.141 14.451,459.646 13.515,461.151 C15.513,460.692 16.928,461.866 18.83,462.452 C19.585,462.684 20.673,461.718 20.548,460.944 L20.548,460.944 Z" id="Shape"></path>
                    <path d="M275.928,347.784 C276.371,351.784 281.237,353.351 284.644,353.477 C289.07,353.643 293.58,350.736 296.435,347.59 C299.325,344.407 301.002,340.406 300.939,336.09 C300.875,331.649 297.341,325.245 292.226,326.816 C291.067,327.171 289.846,328.295 289.66,329.544 C289.149,332.951 292.324,334.384 293.421,337.33 C294.234,339.517 293.404,341.953 292.132,343.768 C290.712,345.794 288.712,346.985 286.377,347.664 C283.164,348.601 280.924,346.424 278.004,345.963 C277.047,345.813 275.813,346.75 275.928,347.784 L275.928,347.784 Z" id="Shape"></path>
                    <path d="M55.008,308.386 C51.581,299.583 37.654,300.741 32.54,307.285 C28.498,312.457 28.064,322.067 30.063,328.216 C30.316,328.993 31.094,329.529 31.869,329.666 C39.162,330.948 36.881,319.686 36.753,315.916 C36.682,313.832 36.718,310.895 38.681,309.641 C42.852,306.977 48.106,309.401 52.217,310.835 C53.55,311.299 55.619,309.958 55.008,308.386 L55.008,308.386 Z" id="Shape"></path>
                    <path d="M148.343,248.463 C147.834,247.752 147.814,247.299 146.788,246.955 C145.889,246.654 144.975,246.775 144.063,246.955 C141.548,247.453 139.399,248.613 137.414,250.217 C133.718,253.2 132.584,257.869 132.992,262.395 C133.462,267.618 136.946,271.266 142.362,269.512 C146.977,268.018 150.871,263.905 153.443,259.94 C155.843,256.238 158.378,250.945 155.594,246.803 C154.396,245.022 151.986,244.612 150.026,244.532 C148.631,244.474 146.685,244.673 145.528,245.478 C144.916,245.905 142.524,246.957 141.639,248.393 C141.22,249.074 140.642,250.324 141.437,251.014 C142.069,251.563 142.687,251.746 143.494,251.926 C143.915,252.02 144.513,251.973 144.962,251.961 C142.841,252.016 145.611,252.123 145.901,252.117 C146.484,252.107 147.061,252.06 147.644,252.074 C148.659,252.098 147.177,251.939 148.353,252.142 C149.228,252.292 147.809,251.789 148.753,252.281 C149.458,252.648 148.274,251.686 148.927,252.448 C149.416,253.018 148.65,251.695 148.984,252.649 C149.194,253.249 148.844,251.769 148.948,252.413 C148.976,252.584 148.983,252.758 148.991,252.93 C149.046,254.075 149.114,252.387 148.968,253.299 C148.902,253.713 148.791,254.118 148.673,254.52 C148.44,255.306 149.002,253.621 148.708,254.407 C148.625,254.628 148.533,254.843 148.441,255.059 C148.249,255.509 148.027,255.947 147.798,256.38 C147.68,256.605 147.553,256.824 147.427,257.045 C146.965,257.851 147.953,256.205 147.454,256.999 C147.173,257.445 146.871,257.879 146.562,258.307 C146.251,258.738 145.92,259.154 145.583,259.565 C145.415,259.768 145.241,259.967 145.067,260.167 C144.545,260.764 145.822,259.397 144.959,260.281 C144.265,260.991 143.513,261.643 142.716,262.235 C143.935,261.329 142.642,262.245 142.316,262.43 C141.166,263.086 142.886,262.265 141.985,262.6 C141.807,262.666 141.625,262.717 141.442,262.767 C140.747,262.958 142.401,262.604 141.704,262.709 C140.632,262.87 142.224,262.854 141.445,262.732 C140.708,262.617 142.064,263.111 141.191,262.609 C140.646,262.295 141.783,263.143 141.298,262.709 C141.16,262.585 141.042,262.441 140.924,262.301 C140.799,262.151 140.461,261.576 140.898,262.327 C140.784,262.131 140.692,261.922 140.6,261.715 C140.387,261.236 140.242,260.726 140.111,260.219 C139.969,259.672 139.681,257.587 139.851,256.424 C140.08,254.865 141.295,253.561 142.568,252.732 C143.34,252.229 144.105,251.894 144.986,251.643 C145.427,251.518 145.849,251.309 146.268,251.126 C146.666,250.994 147.022,250.789 147.337,250.512 C147.895,249.93 147.921,249.889 147.415,250.39 C148.147,250.119 148.891,249.227 148.343,248.463 L148.343,248.463 Z" id="Shape"></path>
                    <path d="M88.459,440.297 C84.992,443.849 82.61,448.101 82.256,453.121 C81.997,456.789 85.336,459.5 88.638,460.213 C94.811,461.546 100.019,455.547 102.417,450.654 C104.442,446.521 106.262,439.55 101.883,436.266 C99.694,434.624 96.395,435.285 94.084,436.253 C92.033,437.111 90.208,438.212 88.435,439.558 C86.564,440.975 83.974,443.466 84.173,446.025 C84.229,446.744 84.683,447.248 85.382,447.402 C88.521,448.1 91.86,444.842 94.458,443.431 C94.684,443.312 94.912,443.198 95.143,443.088 C94.686,443.284 94.672,443.296 95.1,443.122 C95.378,443.013 96.92,442.674 95.774,442.869 C95.936,442.845 96.098,442.828 96.262,442.817 C97.071,442.752 95.442,442.716 96.191,442.81 C97.108,442.925 95.66,442.475 96.418,442.891 C96.898,443.156 95.819,442.273 96.409,442.917 C96.996,443.56 96.165,442.288 96.527,443.119 C96.638,443.373 96.84,444.462 96.666,443.443 C96.73,443.82 96.745,444.205 96.753,444.586 C96.757,444.799 96.668,445.914 96.767,444.895 C96.724,445.338 96.644,445.778 96.559,446.213 C96.469,446.674 96.346,447.126 96.217,447.576 C95.91,448.649 96.382,447.22 95.969,448.273 C95.644,449.103 95.244,449.902 94.807,450.677 C94.575,451.073 94.608,451.018 94.908,450.513 C94.752,450.759 94.584,450.997 94.415,451.236 C94.141,451.623 93.842,451.993 93.538,452.355 C93.03,452.959 94.263,451.662 93.366,452.508 C93.236,452.628 93.102,452.744 92.966,452.858 C92.246,453.47 93.826,452.296 93.052,452.812 C92.911,452.904 92.767,452.99 92.621,453.07 C91.853,453.513 93.505,452.736 92.692,453.056 C92.542,453.113 92.389,453.161 92.235,453.205 C91.433,453.448 93.083,453.09 92.252,453.187 C91.301,453.298 92.522,453.267 91.945,453.196 C91.78,453.173 91.617,453.139 91.456,453.1 C90.642,452.918 92.058,453.371 91.256,453.026 C90.331,452.63 89.708,452.318 89.387,451.566 C88.445,449.354 89.038,443.825 90.599,441.99 C91.942,440.415 89.79,438.934 88.459,440.297 L88.459,440.297 Z" id="Shape"></path>
                    <path d="M363.682,85.958 C353.906,98.222 345.165,111.323 335.762,123.881 C326.382,136.408 316.883,148.838 307.725,161.53 C298.812,173.882 289.942,186.01 280.006,197.577 C270.234,208.952 259.833,219.927 250.962,232.038 C241.908,244.399 233.175,256.995 223.997,269.265 C214.541,281.908 204.061,293.617 193.7,305.509 C172.971,329.303 152.615,353.436 131.19,376.613 C123.432,385.006 115.311,393.047 107.775,401.642 C100.905,409.478 94.16,417.425 86.993,424.996 C79.562,432.846 71.697,440.394 62.657,446.376 C58.919,448.85 54.974,450.874 50.732,452.324 C48.878,452.959 46.992,453.369 45.056,453.644 C44.104,453.779 43.142,453.818 42.182,453.855 C41.617,453.878 41.054,453.863 40.492,453.807 C41.524,454.716 41.684,454.68 40.973,453.697 C37.835,448.287 29.068,454.941 32.308,459.883 C34.677,463.495 38.07,463.16 42.183,462.662 C46.762,462.107 51.061,460.432 55.205,458.486 C64.316,454.211 72.205,447.386 79.585,440.674 C94.41,427.193 106.348,411.106 120.161,396.685 C141.367,374.545 161.604,351.598 181.495,328.274 C201.875,304.375 222.593,281.053 240.723,255.355 C250.51,241.483 260.257,227.901 271.348,215.025 C282.748,201.791 294.442,188.793 304.516,174.491 C314.93,159.706 325.65,145.155 336.233,130.492 C346.431,116.361 357.482,102.17 365.171,86.477 C365.714,85.37 364.233,85.265 363.682,85.958 L363.682,85.958 Z" id="Shape"></path>
                    <path d="M401.494,122.856 C383.154,145.165 368.509,170.575 352.978,194.852 C337.263,219.417 321.064,243.706 303.148,266.734 C285.084,289.953 264.397,310.878 246.354,334.137 C228.329,357.374 211.244,381.377 191.309,403.061 C175.718,420.019 158.736,436.52 140.346,450.424 C131.322,457.247 121.412,463.426 110.842,467.545 C106.018,469.424 100.98,470.825 95.939,471.982 C91.524,472.994 86.156,473.225 82.654,476.379 C80.672,478.164 81.07,482.607 84.515,481.162 C86.495,480.333 89.984,480.898 92.192,480.528 C95.148,480.033 98.043,479.156 100.904,478.282 C107.225,476.351 113.336,473.521 119.254,470.603 C130.972,464.825 141.698,457.08 151.766,448.81 C173.025,431.347 192.717,411.063 210.33,389.966 C229.236,367.321 246.072,343.042 264.774,320.233 C274.113,308.844 284.349,298.277 293.937,287.109 C303.423,276.058 312.33,264.517 320.91,252.752 C336.031,232.02 349.887,210.383 363.599,188.705 C377.176,167.238 391.248,145.834 403.396,123.517 C404.154,122.125 402.196,122.001 401.494,122.856 L401.494,122.856 Z" id="Shape"></path>
                    <path d="M276.95,119.856 C271.421,124.43 265.762,128.581 260.667,133.669 C255.436,138.895 250.375,144.272 245.447,149.782 C235.476,160.929 226.116,172.595 216.628,184.148 C212.154,189.596 207.679,195.045 203.783,200.927 C199.828,206.9 196.304,213.133 191.694,218.644 C188.395,222.589 182.174,221.142 178.175,224.357 C173.098,228.439 173.459,234.398 172.182,240.149 C171.495,243.242 168.953,246.621 167.363,249.337 C165.749,252.096 163.883,254.714 161.983,257.28 C158.204,262.386 153.815,266.972 149.159,271.279 C139.697,280.031 128.875,287.133 119.079,295.488 C96.533,314.72 76.654,337.048 57.32,359.431 C52.341,365.195 46.731,370.754 43.031,377.446 C41.228,380.707 40.012,384.3 38.465,387.683 C36.614,391.729 33.568,395.233 30.97,398.814 C26.691,404.714 23.024,410.675 20.793,417.634 C18.513,424.747 17.171,432.298 16.059,439.672 C15.149,445.706 24.165,443.693 24.664,438.975 C25.29,433.05 26.035,427.157 27.313,421.333 C28.942,413.912 32.362,408.087 36.752,401.939 C40.478,396.721 44.129,391.909 46.691,385.99 C48.03,382.898 49.218,379.744 51.004,376.871 C53.055,373.573 56.1,370.716 58.621,367.768 C78.13,344.968 98.158,322.463 120.664,302.551 C130.474,293.873 141.334,286.547 151.193,277.938 C160.256,270.024 167.916,260.891 174.131,250.598 C177.377,245.223 179.678,240.301 180.255,234.028 C180.629,229.965 182.409,228.906 186.041,228.149 C188.648,227.605 191.402,226.985 193.518,225.257 C198.13,221.493 201.395,215.986 204.53,211.015 C208.559,204.623 212.612,198.455 217.323,192.539 C226.969,180.426 236.303,168.07 246.136,156.105 C251.023,150.16 256.054,144.324 261.218,138.619 C266.608,132.664 271.958,126.313 277.772,120.791 C278.527,120.076 277.756,119.19 276.95,119.856 L276.95,119.856 Z" id="Shape"></path>
                    <path d="M234.111,99.015 C223.734,95.119 213.582,107.45 213.343,117.021 C213.299,118.777 215.05,119.782 216.61,119.656 C219.041,119.459 220.776,117.568 221.487,115.376 C222.382,112.619 222.579,110.152 224.104,107.56 C225.768,104.73 228.875,104.383 231.817,103.862 C233.346,103.59 236.98,100.092 234.111,99.015 L234.111,99.015 Z" id="Shape"></path>
                    <path d="M296.252,226.31 C288.569,228.934 284.146,240.831 291.881,245.974 C296.402,248.98 302.15,245.696 305.249,242.246 C308.129,239.043 310.042,233.834 308.165,229.678 C305.357,223.464 296.065,223.349 291.121,226.731 C289.71,227.696 287.573,230.694 290.007,231.93 C291.942,232.913 294.194,233.085 296.314,233.401 C297.481,233.576 297.244,233.514 298.009,233.862 C298.317,234.002 298.61,234.18 298.9,234.351 C299.792,234.876 298.333,233.791 299.047,234.461 C299.256,234.657 299.43,234.887 299.6,235.115 C299.008,234.324 299.47,234.914 299.591,235.191 C299.688,235.412 299.897,236.298 299.676,235.211 C299.731,235.481 299.745,235.758 299.761,236.031 C299.776,236.297 299.664,237.211 299.796,236.053 C299.764,236.339 299.698,236.62 299.634,236.901 C299.571,237.179 299.207,238.089 299.654,236.908 C299.512,237.281 299.331,237.637 299.145,237.99 C299.832,236.691 298.877,238.312 298.594,238.649 C299.974,237.005 297.06,239.737 298.816,238.493 C298.585,238.657 298.336,238.795 298.087,238.931 C299.21,238.318 298.521,238.747 298.17,238.865 C297.264,239.17 299.146,238.745 298.2,238.86 C297.289,238.97 299.065,238.983 298.141,238.886 C297.961,238.867 297.096,238.615 297.954,238.918 C297.67,238.817 297.405,238.668 297.143,238.52 C296.294,238.043 297.599,238.993 296.812,238.296 C296.21,237.765 295.957,236.948 295.678,236.231 C294.811,233.996 296.695,230.916 298.023,229.223 C299.173,227.759 298.245,225.629 296.252,226.31 L296.252,226.31 Z" id="Shape"></path>
                    <path d="M148.156,469.582 C149.023,473.707 153.547,476.478 157.588,475.884 C161.758,475.269 165.261,472.353 167.658,469.02 C169.779,466.072 171.528,462.133 171.087,458.42 C170.544,453.849 166.706,452.22 162.577,453.237 C159.972,453.878 157.632,458.575 161.233,459.507 C161.933,459.688 162.85,460.106 163.36,460.431 C162.587,459.937 163.806,461.26 163.363,460.455 C163.484,460.675 163.562,460.916 163.641,461.153 C163.905,461.951 163.564,460.488 163.666,461.358 C163.862,463.021 162.967,465.146 162.113,466.432 C161.195,467.815 161.337,467.624 160.218,468.586 C159.854,468.867 159.859,468.877 160.233,468.613 C159.958,468.809 159.665,468.978 159.371,469.145 C158.453,469.669 160.018,468.929 159.044,469.3 C158.987,469.321 157.982,469.575 158.662,469.449 C156.02,469.941 154.298,467.78 151.892,466.3 C149.948,465.106 147.783,467.803 148.156,469.582 L148.156,469.582 Z" id="Shape"></path>
                    <path d="M50.732,378.592 C46.917,379.227 44.875,382.968 44.279,386.49 C43.574,390.654 47.101,394.138 50.706,395.508 C58.789,398.578 67.917,393.086 70.331,385.203 C72.516,378.065 66.908,372.752 60.057,372.759 C53.601,372.766 44.262,377.588 45.45,383.937 C45.682,385.178 46.912,385.464 47.943,384.847 C48.532,384.494 49.131,384.173 49.669,383.743 C48.608,384.592 51.225,382.806 51.548,382.527 C52.77,381.474 54.517,380.835 56.047,380.429 C58.415,379.8 61.793,380.449 62.868,382.859 C64.591,386.718 60.234,389.027 57.154,389.371 C55.024,389.608 53.177,388.714 51.555,387.43 C48.696,385.165 50.804,383.03 51.976,380.625 C52.425,379.706 51.935,378.393 50.732,378.592 L50.732,378.592 Z" id="Shape"></path>
                    <path d="M394.891,30.067 C402.178,24.631 407.204,17.379 415.897,13.975 C420.143,12.311 423.481,4.692 416.69,4.51 C411.456,4.37 405.774,9.5 402.291,12.894 C398.005,17.07 392.942,22.131 390.859,27.858 C389.742,30.926 392.783,31.639 394.891,30.067 L394.891,30.067 Z" id="Shape"></path>
                    <path d="M414.518,70.375 C416.834,77.695 426.427,78.102 433.006,78.209 C438.728,78.303 447.25,78.181 450.834,72.854 C453.635,68.692 450.34,64.803 445.809,67.127 C448.358,65.819 443.525,67.606 442.801,67.802 C440.276,68.488 437.596,68.695 434.998,68.908 C429.242,69.381 422.905,68.503 417.227,67.488 C415.732,67.221 414.041,68.871 414.518,70.375 L414.518,70.375 Z" id="Shape"></path>
                </g>
            </g>
        </g>
    </g>
</svg>