<?xml version="1.0" encoding="UTF-8"?>
<svg width="483px" height="533px" viewBox="0 0 483 533" version="1.1" xmlns="http://www.w3.org/2000/svg" xmlns:xlink="http://www.w3.org/1999/xlink">
    <!-- Generator: Sketch 41 (35326) - http://www.bohemiancoding.com/sketch -->
    <title>cupboard</title>
    <desc>Created with Sketch.</desc>
    <defs></defs>
    <g id="Page-1" stroke="none" stroke-width="1" fill="none" fill-rule="evenodd">
        <g id="Layer_1" transform="translate(-1032.000000, -5449.000000)" fill="#010101">
            <g id="Layer_1_3_">
                <g id="cupboard" transform="translate(1032.000000, 5449.000000)">
                    <path d="M126.854,19.471 C153.389,20.803 180.212,20.464 206.786,20.675 C234.4,20.894 262.034,20.559 289.641,19.96 C316.678,19.374 343.707,18.347 370.703,16.718 C383.943,15.919 397.182,15.137 410.423,14.338 C416.611,13.965 422.799,13.617 428.991,13.334 C432.007,13.195 435.018,13.112 438.037,13.087 C441.632,13.056 444.703,14.26 448.284,14.225 C455.79,14.149 460.911,0.705 451.163,0.787 C449.47,0.801 447.804,0.906 446.114,1.016 C442.962,1.221 439.993,3.579 438.676,6.377 C437.424,9.04 437.919,13.664 441.699,13.919 C443.896,14.067 446.08,14.206 448.283,14.225 C449.242,9.746 450.203,5.265 451.162,0.787 C448.035,0.772 445.301,2.02 442.152,2.16 C439.134,2.293 436.121,2.472 433.103,2.596 C426.922,2.851 420.746,3.213 414.571,3.583 C401.366,4.375 388.16,5.149 374.958,5.988 C347.958,7.703 320.918,8.728 293.873,9.377 C266.898,10.024 239.912,10.269 212.931,10.418 C199.051,10.494 185.175,10.931 171.297,11.036 C157.415,11.14 143.448,10.815 129.582,11.494 C125.982,11.669 121.851,19.22 126.854,19.471 L126.854,19.471 Z" id="Shape"></path>
                    <path d="M123.202,17.314 C122.967,20.398 123.408,23.475 123.297,26.556 C123.568,25.768 123.839,24.981 124.11,24.193 C121.791,26.689 122.888,30.999 126.834,29.738 C129.983,28.73 132.598,23.29 128.008,22.423 C128.557,22.863 129.106,23.304 129.654,23.744 C128.883,21.207 128.531,18.342 128.246,15.697 C128.099,14.33 126.823,13.821 125.6,14.212 C124.191,14.662 123.312,15.882 123.202,17.314 L123.202,17.314 Z" id="Shape"></path>
                    <path d="M451.525,3.858 C449.876,6.452 449.799,9.482 449.367,12.455 C448.999,14.986 448.024,17.336 448.591,19.816 C449.29,22.879 453.948,20.923 454.996,19.296 C455.737,18.147 456.562,17.044 456.485,15.594 C456.421,14.375 456.159,13.123 456.08,11.881 C455.915,9.286 456.001,5.297 454.062,3.33 C453.343,2.601 452.021,3.079 451.525,3.858 L451.525,3.858 Z" id="Shape"></path>
                    <path d="M124.51,37.081 C138.286,38.362 152.337,37.918 166.164,38.067 C180.566,38.222 194.97,38.312 209.372,38.346 C238.911,38.415 268.45,37.822 297.961,36.516 C324.994,35.319 351.868,32.581 378.855,30.812 C402.48,29.261 425.997,29.409 449.631,29.606 C455.339,29.654 459.212,19.616 451.817,19.405 C447.793,19.291 444.362,19.916 440.378,20.457 C437.825,20.803 434.314,25.627 438.304,26.52 C440.369,26.983 441.769,28.351 443.718,28.903 C445.697,29.462 447.588,29.529 449.632,29.607 C450.361,26.207 451.089,22.806 451.818,19.406 C401.639,19.891 351.756,25.88 301.676,28.276 C272.796,29.657 243.887,30.088 214.982,30.534 C200.526,30.757 186.069,30.866 171.612,30.999 C156.565,31.138 141.281,30.578 126.284,31.901 C124.062,32.096 121.149,36.767 124.51,37.081 L124.51,37.081 Z" id="Shape"></path>
                    <path d="M134.384,49.094 C161.578,48.827 188.769,47.413 215.971,47.043 C243.365,46.67 270.762,46.633 298.156,46.288 C324.728,45.953 351.283,44.475 377.842,44.157 C400.495,43.886 423.636,45.954 445.897,40.667 C447.82,40.211 449.099,38.25 449.202,36.391 C449.386,33.063 450.148,29.834 449.116,26.573 C448.754,25.428 447.52,25.059 446.458,25.09 C444.066,25.16 441.715,25.362 439.34,25.639 C436.97,25.914 433.62,30.87 437.39,31.34 C439.925,31.656 442.441,31.846 444.994,31.922 C444.108,31.428 443.223,30.933 442.336,30.439 C443.193,32.985 442.35,35.996 442.25,38.621 C443.352,37.196 444.453,35.77 445.555,34.345 C423.619,40.626 400.011,38.113 377.487,38.479 C350.77,38.914 324.07,40.614 297.339,41.024 C270.572,41.436 243.804,41.599 217.038,42.085 C189.759,42.58 162.192,42.787 135.067,45.919 C133.369,46.113 132.023,49.117 134.384,49.094 L134.384,49.094 Z" id="Shape"></path>
                    <path d="M134.65,35.283 C131.545,38.342 129.285,43.494 133.381,46.735 C135.519,48.425 139.788,44.111 137.733,42.066 C137.063,41.399 136.57,40.992 136.53,40.021 C136.49,39.022 137.155,37.751 137.479,36.833 C138.179,34.855 136.072,33.882 134.65,35.283 L134.65,35.283 Z" id="Shape"></path>
                    <path d="M147.681,47.589 C146.281,57.61 146.362,67.761 146.167,77.86 C145.95,89.116 145.765,100.369 145.76,111.628 C145.751,134.093 145.95,156.559 146.056,179.023 C146.161,201.495 146.111,223.962 145.56,246.428 C145.296,257.202 144.684,267.954 144.667,278.735 C144.651,289.324 145.084,299.908 144.649,310.491 C144.494,314.245 150.96,311.877 150.797,308.52 C150.664,305.727 149.565,304.685 147.209,303.299 C145.567,302.334 142.76,304.697 143.585,306.48 C144.223,307.857 144.721,308.937 144.648,310.491 C146.697,309.834 148.748,309.178 150.796,308.52 C148.803,265.574 150.943,222.494 150.732,179.507 C150.625,157.721 150.359,135.936 150.261,114.15 C150.211,102.949 150.119,91.746 150.114,80.545 C150.109,69.441 150.795,58.233 149.787,47.164 C149.671,45.871 147.811,46.659 147.681,47.589 L147.681,47.589 Z" id="Shape"></path>
                    <path d="M1.519,498.461 C2.588,498.461 3.316,496.549 1.929,496.549 C0.859,496.549 0.132,498.461 1.519,498.461 L1.519,498.461 Z" id="Shape"></path>
                    <path d="M432.344,40.248 C428.298,48.031 429.62,58.211 430.041,66.664 C430.59,77.677 429.987,88.428 429.362,99.429 C427.842,126.2 428.186,153.002 427.318,179.794 C426.468,206.011 425.256,232.213 424.916,258.444 C424.802,267.181 424.774,275.923 424.82,284.66 C424.852,290.688 423.818,298.334 425.958,304.082 C427.118,307.199 431.809,304.061 431.624,301.576 C428.618,261.237 431.264,220.407 432.595,180.045 C433.437,154.543 433.238,129.032 434.232,103.535 C434.67,92.285 435.656,81.062 434.978,69.809 C434.379,59.86 433.78,50.288 435.234,40.383 C435.534,38.335 432.976,39.033 432.344,40.248 L432.344,40.248 Z" id="Shape"></path>
                    <path d="M135.745,316.582 C146.949,317.54 158.332,317.195 169.57,317.255 C182.363,317.322 195.153,317.314 207.946,317.26 C234.151,317.149 260.355,316.965 286.56,316.853 C312.959,316.74 339.368,316.942 365.763,316.433 C393.172,315.905 420.571,314.861 447.989,314.935 C448.478,312.649 448.968,310.364 449.458,308.079 C445.247,308.218 441.521,309.391 437.576,310.78 C435.156,311.632 433.147,317.026 437.106,316.387 C440.733,315.803 444.309,315.072 447.989,314.935 C451.79,314.791 454.451,308.055 449.458,308.079 C422.673,308.203 395.907,309.317 369.131,309.913 C342.692,310.5 316.237,310.294 289.793,310.47 C264.186,310.643 238.578,310.874 212.971,311.117 C200.112,311.239 187.253,311.366 174.394,311.549 C162.025,311.725 149.507,311.396 137.174,312.406 C135.369,312.553 133.049,316.351 135.745,316.582 L135.745,316.582 Z" id="Shape"></path>
                    <path d="M122.204,329.929 C179.673,323.174 237.26,327.241 294.9,328.548 C354.286,329.896 413.635,324.483 473.004,325.858 C473.483,323.623 473.962,321.388 474.442,319.153 C471.052,319.293 467.757,320.035 464.392,320.382 C461.025,320.73 458.428,326.525 463.054,326.628 C466.41,326.704 469.662,325.995 473.004,325.857 C476.724,325.704 479.316,319.034 474.442,319.152 C444.888,319.868 415.329,320.313 385.776,321.2 C356.561,322.077 327.362,323.05 298.132,322.5 C239.979,321.405 181.028,315.899 123.242,325.081 C120.69,325.488 118.673,330.343 122.204,329.929 L122.204,329.929 Z" id="Shape"></path>
                    <path d="M120.19,348.996 C149.824,350.018 179.547,348.824 209.169,347.802 C239.408,346.758 269.634,345.295 299.869,344.127 C358.907,341.846 417.931,342.316 476.999,342.883 C477.481,340.632 477.964,338.38 478.446,336.129 C474.525,336.086 471.328,336.349 467.62,337.608 C466.496,337.989 464.408,340.517 466.339,341.333 C469.951,342.863 473.079,342.927 476.999,342.884 C480.771,342.843 483.346,336.086 478.446,336.13 C419.336,336.658 360.351,335.364 301.254,337.663 C271.672,338.814 242.101,340.189 212.519,341.328 C182.104,342.499 151.672,342.946 121.256,344.017 C118.489,344.112 116.563,348.871 120.19,348.996 L120.19,348.996 Z" id="Shape"></path>
                    <path d="M121.241,327.705 C115.854,333.502 116.985,341.748 121.022,347.876 C122.96,350.818 129.46,345.536 125.859,342.686 C121.823,339.493 122.272,332.844 124.492,328.836 C125.849,326.386 122.454,326.399 121.241,327.705 L121.241,327.705 Z" id="Shape"></path>
                    <path d="M473.933,324.526 C474.672,327.187 479.214,335.647 475.405,337.531 C474.108,338.172 472.941,339.812 473.058,341.302 C473.464,346.478 479.812,341.337 480.882,339.73 C482.011,338.036 482.368,336.144 482.429,334.142 C482.548,330.132 480.393,324.694 477.298,322.125 C475.794,320.876 473.44,322.751 473.933,324.526 L473.933,324.526 Z" id="Shape"></path>
                    <path d="M132.589,314.212 C131.192,315.415 130.167,316.821 129.366,318.479 C128.557,320.151 128.311,322 127.745,323.747 C127.103,325.73 129.265,326.785 130.874,326.271 C132.597,325.72 134.274,323.746 133.623,321.853 C133.02,320.1 134.253,317.696 135.279,316.346 C136.889,314.232 134.376,312.675 132.589,314.212 L132.589,314.212 Z" id="Shape"></path>
                    <path d="M448.185,309.65 C449.651,310.146 451.29,310.894 452.178,312.212 C452.497,312.687 452.666,313.241 452.73,313.803 C452.764,314.101 452.763,314.412 452.728,314.709 C452.698,314.959 452.301,316.146 452.564,315.794 C451.537,317.17 451.376,319.611 453.503,320.006 C455.644,320.402 458.148,318.256 458.001,316.06 C457.921,314.856 458.326,313.695 458.131,312.457 C457.919,311.118 457.382,309.918 456.488,308.894 C454.555,306.68 451.232,306.78 448.664,307.41 C447.668,307.654 446.964,309.238 448.185,309.65 L448.185,309.65 Z" id="Shape"></path>
                    <path d="M271.2,51.628 C266.889,100.954 269.22,150.418 271.136,199.799 C271.615,212.18 272.033,224.562 272.318,236.949 C272.578,248.244 272.123,259.627 272.721,270.903 C273.077,277.604 273.875,284.274 274.19,290.98 C274.37,294.812 274.388,298.633 273.655,302.414 C273.297,304.26 272.902,307.704 271.529,309.143 C270.292,310.437 270.298,313.467 272.832,312.494 C277.811,310.58 278.663,305.242 278.677,300.47 C278.699,292.637 278.221,284.848 277.533,277.047 C275.584,254.946 276.214,232.493 275.381,210.313 C273.386,157.258 270.141,104.043 274.279,51.008 C274.419,49.212 271.325,50.203 271.2,51.628 L271.2,51.628 Z" id="Shape"></path>
                    <path d="M295.099,46.027 C293.373,69.98 294.632,94.402 294.744,118.407 C294.858,143.195 294.928,167.985 294.687,192.773 C294.453,217.119 293.422,241.436 292.972,265.772 C292.771,276.576 292.025,287.357 292.021,298.167 C292.02,302.372 291.233,306.826 292.248,310.927 C292.969,313.84 297.859,310.761 297.201,308.104 C297.129,307.81 297.055,307.514 296.982,307.219 C296.352,304.672 292.733,307.193 292.405,308.694 C292.33,309.037 292.256,309.38 292.18,309.721 C291.409,313.248 296.677,312.008 297.268,309.31 C298.142,305.311 297.428,301.083 297.427,297.012 C297.423,286.616 298.015,276.241 298.312,265.851 C299.005,241.584 299.75,217.329 299.892,193.047 C300.037,168.307 299.816,143.567 299.551,118.828 C299.419,106.463 299.271,94.098 299.107,81.732 C298.944,69.509 299.277,57.177 298.349,44.984 C298.181,42.782 295.21,44.483 295.099,46.027 L295.099,46.027 Z" id="Shape"></path>
                    <path d="M162.936,67.758 C163.073,70.845 180.486,69.359 182.798,69.314 C195.079,69.08 207.292,67.893 219.594,67.821 C227.169,67.777 234.713,67.836 242.283,67.582 C245.333,67.479 254.427,68.751 255.401,64.372 C255.7,63.029 254.753,62.221 253.502,62.207 C252.49,62.195 251.586,62.796 250.647,63.082 C249.815,63.336 248.225,65.325 249.686,65.876 C250.06,66.017 251.81,66.895 251.369,66.716 C251.298,65.667 251.225,64.619 251.154,63.57 C251.15,63.577 251.146,63.583 251.142,63.59 C251.926,63.134 252.71,62.679 253.495,62.223 C241.537,62.709 226.199,63.077 213.236,63.442 C202.471,63.746 191.779,64.943 181.019,65.315 C178.955,65.386 162.781,64.267 162.936,67.758 L162.936,67.758 Z" id="Shape"></path>
                    <path d="M312.061,65.913 C328.236,68.572 345.498,66.288 361.708,64.945 C378.976,63.514 396.226,62.05 413.562,62.968 C414.127,61.317 414.692,59.665 415.257,58.013 C413.281,58.079 411.545,58.346 409.63,58.794 C408.149,59.143 406.9,61.751 408.881,62.291 C410.709,62.789 412.309,62.934 414.189,62.997 C416.559,63.078 418.897,58.214 415.884,58.042 C399.394,57.101 382.904,58.549 366.49,60.049 C348.642,61.681 330.902,62.193 313.027,63.081 C311.771,63.144 310.248,65.615 312.061,65.913 L312.061,65.913 Z" id="Shape"></path>
                    <path d="M166.839,294.381 C180.553,295.398 194.532,294.646 208.263,294.236 C223.245,293.79 238.227,293.074 253.18,292.044 C255.962,291.852 257.985,286.898 254.268,286.966 C250.651,287.033 247.499,287.687 244.324,289.458 C243.332,290.013 242.943,291.744 244.454,291.767 C247.366,291.811 250.267,292.016 253.181,292.044 C253.543,290.351 253.907,288.659 254.269,286.966 C239.935,287.935 225.6,288.779 211.244,289.335 C196.902,289.891 182.443,289.564 168.132,290.606 C166.479,290.727 164.421,294.203 166.839,294.381 L166.839,294.381 Z" id="Shape"></path>
                    <path d="M312.112,292.802 C319.744,294.075 327.757,293.665 335.471,293.779 C343.959,293.904 352.45,293.929 360.938,293.864 C377.048,293.739 393.196,293.143 409.181,291.036 C411.85,290.684 414.046,285.947 410.265,285.975 C406.982,285.999 403.854,286.416 400.645,287.072 C399.416,287.323 398.341,289.61 400.018,290.003 C403.075,290.719 406.049,291.013 409.181,291.036 C409.542,289.35 409.904,287.662 410.265,285.975 C394.851,288.082 379.3,288.788 363.759,289.137 C355.249,289.327 346.738,289.337 338.228,289.396 C329.884,289.455 321.274,288.949 313.004,290.193 C311.95,290.351 310.359,292.51 312.112,292.802 L312.112,292.802 Z" id="Shape"></path>
                    <path d="M165.841,66.789 C164.682,85.614 164.978,104.621 164.377,123.478 C163.743,143.348 163.151,163.223 162.825,183.101 C162.501,202.864 162.464,222.634 163.024,242.394 C163.297,252.062 162.42,261.674 162.107,271.331 C161.992,274.892 162.141,278.392 162.415,281.937 C162.54,283.542 162.665,285.147 162.767,286.754 C162.807,287.444 162.836,288.136 162.855,288.828 C162.933,291.128 162.307,289.767 164.433,290.001 C162.879,289.83 160.962,292.461 163.015,293.009 C166.832,294.027 166.37,287.527 166.255,285.636 C165.72,276.828 165.408,268.341 165.823,259.492 C166.827,238.105 165.624,216.621 165.798,195.204 C165.974,173.436 166.529,151.671 167.044,129.909 C167.542,108.821 168.925,87.289 167.607,66.221 C167.532,65.036 165.894,65.94 165.841,66.789 L165.841,66.789 Z" id="Shape"></path>
                    <path d="M252.969,63.566 C251.281,82.722 252.57,102.448 252.74,121.665 C252.922,142.179 253.124,162.694 253.013,183.209 C252.904,203.615 252.428,224.02 251.345,244.398 C250.588,258.654 249.835,272.77 250.015,287.053 C250.042,289.258 253.411,287.699 253.433,285.957 C253.603,272.343 253.763,258.921 254.519,245.312 C255.648,224.954 256.06,204.559 256.167,184.172 C256.271,164.346 256.036,144.518 255.732,124.693 C255.58,114.765 255.413,104.838 255.253,94.91 C255.083,84.398 255.482,73.728 254.494,63.257 C254.407,62.338 253.03,62.874 252.969,63.566 L252.969,63.566 Z" id="Shape"></path>
                    <path d="M314.904,63.768 C314.263,103.287 312.841,142.697 311.289,182.191 C310.526,201.604 310.069,221.027 310.317,240.455 C310.44,250.118 310.796,259.775 311.38,269.422 C311.643,273.771 311.693,278.256 312.484,282.545 C312.73,283.877 313.081,285.19 313.418,286.501 C313.641,287.32 313.835,288.146 314.002,288.979 C314.071,290.263 314.65,289.992 315.74,288.164 C314.3,287.598 312.117,289.792 313.707,290.85 C316.735,292.865 317.747,288.858 317.256,286.643 C315.204,277.381 314.562,268.263 314.075,258.758 C312.956,236.822 313.239,214.839 313.903,192.895 C315.208,149.846 319.587,106.283 316.543,63.245 C316.467,62.161 314.917,62.953 314.904,63.768 L314.904,63.768 Z" id="Shape"></path>
                    <path d="M412.783,60.582 C411.691,72.976 411.747,85.516 410.946,97.942 C410.115,110.86 408.991,123.757 407.952,136.66 C405.872,162.497 405.165,188.266 405.118,214.181 C405.093,227.779 406.22,241.25 406.782,254.829 C407.075,261.933 407.277,269.093 406.677,276.185 C406.48,278.504 406.219,280.948 405.439,283.157 C404.892,284.704 403.965,285.28 404.031,287.048 C405.16,286.686 406.289,286.324 407.418,285.962 C407.298,284.545 406.781,283.565 405.84,282.526 C404.935,281.526 402.942,283.073 403.455,284.228 C403.904,285.238 404.019,286.015 404.031,287.047 C404.054,289.253 407.357,287.656 407.418,285.961 C407.497,283.779 406.271,287.559 407.715,285.381 C408.144,284.735 408.438,284.038 408.687,283.308 C409.41,281.188 409.69,278.969 409.91,276.748 C410.552,270.265 410.36,263.676 410.161,257.174 C409.753,243.794 408.339,230.472 408.338,217.082 C408.335,191.174 408.857,165.386 410.768,139.542 C411.721,126.649 412.789,113.766 413.64,100.865 C414.522,87.495 415.87,73.572 414.686,60.196 C414.581,59.05 412.859,59.719 412.783,60.582 L412.783,60.582 Z" id="Shape"></path>
                    <path d="M207.267,81.258 C198.183,92.523 187.273,101.67 177.441,112.182 C176.953,112.703 177.427,113.268 178.007,112.828 C189.228,104.338 200.254,93.412 208.181,81.752 C208.687,81.008 207.746,80.664 207.267,81.258 L207.267,81.258 Z" id="Shape"></path>
                    <path d="M221.401,85.138 C205.147,102.144 185.156,116.244 172.397,136.329 C172.056,136.866 172.708,137.112 173.049,136.681 C187.768,118.08 205.842,103.062 222.045,85.872 C222.596,85.289 221.973,84.542 221.401,85.138 L221.401,85.138 Z" id="Shape"></path>
                    <path d="M226.379,180.113 C215.761,190.717 204.335,201.478 196.408,214.336 C196.086,214.858 196.707,215.095 197.039,214.676 C206.477,202.764 216.321,191.662 227.068,180.899 C227.681,180.286 227.003,179.489 226.379,180.113 L226.379,180.113 Z" id="Shape"></path>
                    <path d="M231.325,194.051 C216.402,206.95 201.987,220.837 188.432,235.173 C187.934,235.7 188.434,236.318 189.014,235.837 C204.24,223.21 217.272,208.036 232.121,194.959 C232.882,194.291 232.091,193.391 231.325,194.051 L231.325,194.051 Z" id="Shape"></path>
                    <path d="M369.421,91.161 C364.53,95.559 360.314,100.896 355.922,105.78 C350.857,111.412 345.644,117.038 341.398,123.33 C341.103,123.768 341.602,124.154 341.961,123.776 C346.902,118.587 351.537,113.106 356.279,107.736 C360.889,102.515 366.2,97.488 370.138,91.73 C370.528,91.16 369.904,90.726 369.421,91.161 L369.421,91.161 Z" id="Shape"></path>
                    <path d="M379.502,101.925 C366.685,110.945 356.639,123.325 345.409,134.147 C344.829,134.707 345.404,135.336 346.038,134.864 C358.559,125.511 367.368,112.113 380.122,102.96 C380.808,102.468 380.249,101.4 379.502,101.925 L379.502,101.925 Z" id="Shape"></path>
                    <path d="M378.235,231.242 C370.344,242.274 359.024,250.284 351.176,261.211 C350.638,261.96 351.488,262.514 352.121,261.96 C362.008,253.332 372.526,242.923 379.306,231.615 C379.749,230.876 378.616,230.707 378.235,231.242 L378.235,231.242 Z" id="Shape"></path>
                    <path d="M386.298,240.021 C375.028,251.046 363.042,261.86 353.214,274.23 C352.679,274.903 353.527,275.464 354.096,274.929 C365.558,264.121 376.131,252.253 387.15,240.99 C387.892,240.231 387.08,239.255 386.298,240.021 L386.298,240.021 Z" id="Shape"></path>
                    <path d="M130.304,349.621 C129.812,352.848 128.741,356.512 129.009,359.788 C129.189,359.267 129.368,358.743 129.547,358.221 C129.509,358.269 129.471,358.316 129.433,358.363 C128.995,358.903 128.576,359.96 128.944,360.644 C130.051,362.706 131.974,362.194 133.591,361.002 C134.804,360.107 134.965,357.286 132.867,357.645 C133.066,357.611 133.443,357.815 133.527,358.032 C133.215,357.228 132.498,357.061 131.73,357.029 C131.69,357.027 131.65,357.025 131.61,357.024 C132.148,357.324 132.686,357.624 133.223,357.924 C132.456,355.147 133.567,351.911 133.173,349.041 C132.935,347.292 130.499,348.336 130.304,349.621 L130.304,349.621 Z" id="Shape"></path>
                    <path d="M461.122,343.118 C460.35,344.927 460.07,346.944 459.677,348.861 C459.403,350.197 457.786,354.299 460.587,354.071 C463.438,353.841 463.855,350.718 464.148,348.499 C464.405,346.555 464.697,344.413 464.233,342.484 C463.846,340.872 461.497,342.238 461.122,343.118 L461.122,343.118 Z" id="Shape"></path>
                    <path d="M130.373,363.141 C160.562,358.957 190.518,358.733 220.945,358.796 C253.005,358.863 285.07,357.395 317.104,356.277 C333.51,355.705 349.917,355.162 366.327,354.744 C382.584,354.331 398.79,353.14 415.064,353.268 C429.907,353.384 444.804,354.314 459.567,355.765 C460.215,355.883 459.874,355.567 458.544,354.813 C459.298,353.6 460.052,352.39 460.806,351.177 C461.767,350.897 460.476,351.14 460.228,351.152 C457.622,351.276 455.789,355.728 459.22,355.857 C459.886,355.882 460.394,355.866 461.053,355.728 C462.206,355.489 463.663,353.909 463.431,352.651 C462.791,349.188 452.481,350.456 450.132,350.312 C443.396,349.903 436.645,349.472 429.896,349.318 C398.488,348.6 367.067,350.456 335.67,351.501 C303.143,352.583 270.615,354.059 238.072,354.587 C207.664,355.08 177.125,353.435 146.852,357.116 C141.407,357.778 135.973,358.676 130.639,359.956 C129.104,360.326 128.209,363.441 130.373,363.141 L130.373,363.141 Z" id="Shape"></path>
                    <path d="M146.574,360.115 C142.023,362.203 142.777,370.836 142.548,374.867 C142.103,382.709 142.562,390.574 141.909,398.408 C139.667,425.319 139.228,451.848 143.277,478.61 C143.961,483.129 150.226,479.878 150.17,476.401 C150.136,474.324 150.155,472.929 149.209,471.089 C148.126,468.982 145.105,470.29 144.39,472.069 C143.462,474.384 143.318,476.094 143.278,478.609 C145.522,477.617 147.767,476.624 150.011,475.631 C144.686,451.738 145.696,426.322 147.178,402.058 C147.667,394.049 147.755,386.198 147.542,378.172 C147.387,372.349 148.156,366.043 147.214,360.347 C147.157,360.003 146.843,359.992 146.574,360.115 L146.574,360.115 Z" id="Shape"></path>
                    <path d="M437.31,351.62 C434.704,360.173 435.841,370.586 435.567,379.466 C435.246,389.873 435.06,400.285 434.756,410.694 C434.163,431.009 432.318,451.435 432.237,471.745 C432.219,476.185 439.198,473.117 439.21,469.51 C439.216,467.9 439.087,466.398 438.637,464.847 C437.681,461.556 433.216,464.822 432.732,466.749 C432.317,468.405 432.232,470.044 432.238,471.745 C432.254,476.191 439.225,473.12 439.211,469.51 C439.133,449.908 440.769,430.179 441.199,410.568 C441.428,400.205 441.516,389.839 441.573,379.473 C441.601,374.348 441.482,369.22 441.417,364.095 C441.361,359.743 441.614,354.845 440.101,350.723 C439.535,349.181 437.591,350.699 437.31,351.62 L437.31,351.62 Z" id="Shape"></path>
                    <path d="M138.979,481.79 C136.324,482.525 135.729,483.061 137.197,483.397 C137.891,483.526 138.653,483.311 139.344,483.244 C140.927,483.092 142.542,483.158 144.129,483.192 C148.379,483.285 152.419,483.285 156.671,482.972 C170.496,481.956 184.365,481.625 198.217,481.207 C226.62,480.35 254.963,480.079 283.379,480.545 C311.346,481.003 339.33,482.56 367.295,481.454 C395.897,480.324 424.477,477.477 453.124,478.896 C453.902,476.622 454.68,474.347 455.458,472.073 C451.649,472.099 448,472.642 444.23,473.136 C442.297,473.388 439.48,477.403 442.619,477.847 C446.45,478.391 450.112,478.911 453.987,478.937 C457.213,478.958 460.49,472.307 456.321,472.114 C426.424,470.728 396.628,473.643 366.779,474.861 C335.552,476.134 304.219,474.35 272.981,474.046 C242.15,473.746 211.384,474.543 180.58,475.733 C168.461,476.201 156.426,477.342 144.314,477.522 C141.24,477.569 137.822,477.45 135.793,480.124 C134.512,481.814 135.19,483.307 137.132,483.758 C138.138,483.99 139.314,482.778 138.979,481.79 L138.979,481.79 Z" id="Shape"></path>
                    <path d="M132.073,480.613 C130.473,482.475 129.355,484.536 128.925,486.965 C128.708,488.19 128.805,489.429 129.039,490.638 C129.296,491.966 130.276,493.273 130.417,494.566 C131.079,500.61 140.674,492.8 135.915,490.613 C134.616,490.017 134.244,487.879 134.14,486.652 C133.994,484.951 134.892,483.298 135.694,481.874 C136.116,481.123 135.987,480.018 135.182,479.582 C134.061,478.973 132.792,479.777 132.073,480.613 L132.073,480.613 Z" id="Shape"></path>
                    <path d="M134.285,497.552 C159.893,493.544 185.919,493.689 211.763,494.083 C238.906,494.497 266.046,494.278 293.19,494.004 C347.446,493.456 401.746,492.682 456.003,492.869 C459.766,492.882 462.324,486.161 457.444,486.14 C454.683,486.129 452.276,486.428 449.589,487.006 C447.44,487.469 445.583,491.39 448.494,492.112 C451.074,492.753 453.345,492.879 456.003,492.868 C456.483,490.625 456.964,488.383 457.444,486.139 C403.122,486.396 348.765,487.411 294.445,488.144 C267.278,488.511 240.123,488.709 212.954,488.519 C186.752,488.335 160.384,488.196 134.618,493.566 C132.646,493.98 131.622,497.968 134.285,497.552 L134.285,497.552 Z" id="Shape"></path>
                    <path d="M455.939,474.65 C454.898,478.736 454.952,483.421 455.305,487.601 C455.714,492.443 464.015,488.234 461.983,484.647 C460.045,481.225 460.555,477.206 459.461,473.516 C458.878,471.554 456.232,473.5 455.939,474.65 L455.939,474.65 Z" id="Shape"></path>
                    <path d="M137.72,495.667 C136.381,507.153 139.276,519.064 139.213,530.63 C139.194,534.184 144.11,532.784 145.359,530.929 C146.39,529.396 147.013,527.993 147.312,526.154 C148.03,521.726 142.61,523.504 141.222,525.869 C140.761,526.564 140.384,527.302 140.089,528.082 C142.138,528.183 144.186,528.281 146.235,528.381 C145.985,517.367 145.292,504.885 141.675,494.394 C140.978,492.373 137.896,494.167 137.72,495.667 L137.72,495.667 Z" id="Shape"></path>
                    <path d="M448.583,490.679 C447.312,496.399 448.782,503.111 449.064,508.903 C449.348,514.709 449.01,519.84 447.936,525.462 C447.451,528.002 450.101,528.858 452.006,527.735 C457.157,524.701 456.344,516.613 456.178,511.523 C456.048,507.501 455.535,503.476 455.051,499.484 C454.666,496.307 454.366,492.166 452.807,489.317 C451.713,487.315 448.967,488.949 448.583,490.679 L448.583,490.679 Z" id="Shape"></path>
                    <path d="M143.615,531.848 C144.87,533.417 147.961,532.495 149.685,532.337 C153.534,531.983 157.402,531.749 161.26,531.541 C168.145,531.169 175.535,531.826 182.335,530.796 C184.959,530.399 188.975,524.904 184.572,524.257 C177.618,523.234 169.575,524.637 162.613,525.222 C158.693,525.552 154.787,525.949 150.91,526.618 C148.503,527.033 145.258,527.314 143.794,529.516 C143.327,530.22 143.026,531.112 143.615,531.848 L143.615,531.848 Z" id="Shape"></path>
                    <path d="M402.303,529.381 C409.081,531.914 417.841,530.513 424.945,530.38 C432.627,530.237 440.304,529.937 447.989,529.937 C451.896,529.937 454.351,522.708 449.46,523.074 C446.929,523.262 444.931,523.578 442.62,524.582 C441.386,525.118 439.482,527.27 441.322,528.357 C443.257,529.501 444.86,529.721 447.126,529.898 C447.904,527.623 448.682,525.348 449.46,523.074 C442.327,523.114 435.191,523.347 428.066,523.662 C420.182,524.011 411.205,523.188 403.619,525.558 C402.49,525.908 400.293,528.63 402.303,529.381 L402.303,529.381 Z" id="Shape"></path>
                    <path d="M187.975,526.323 C189.973,510.777 206.483,508.039 219.49,506.785 C238.499,504.951 257.83,505.267 276.896,504.502 C302.953,503.454 329.014,502.338 355.099,502.636 C366.698,502.769 379.236,501.672 389.661,507.653 C393.249,509.712 395.794,513.172 398.085,516.522 C399.217,518.177 400.153,519.945 401.009,521.754 C401.408,522.601 401.706,523.483 401.985,524.374 C402.725,526.748 400.37,524.033 404.415,523.288 C401.17,523.886 398.128,529.783 403.036,529.724 C412.486,529.61 408.462,518.551 405.729,513.971 C399.789,504.014 391.439,498.619 379.922,496.899 C373.518,495.941 366.914,496.27 360.462,496.145 C352.573,495.992 344.682,496.012 336.792,496.104 C320.516,496.293 304.247,496.953 287.985,497.639 C264.644,498.623 240.817,498.101 217.585,500.799 C202.352,502.57 183.313,508.912 183.428,527.242 C183.443,530.02 187.718,528.324 187.975,526.323 L187.975,526.323 Z" id="Shape"></path>
                    <path d="M290.847,357.107 C290.22,366.749 291.556,376.577 291.96,386.219 C292.391,396.501 292.553,406.796 292.645,417.086 C292.737,427.437 292.675,437.788 292.599,448.139 C292.562,453.352 292.516,458.566 292.478,463.779 C292.451,467.429 291.068,473.818 292.777,477.055 C294.66,480.619 299.605,477.137 299.584,474.044 C299.572,472.2 298.143,470.8 296.712,469.882 C294.334,468.356 291.177,471.818 291.865,474.135 C292.021,474.662 292.582,475.784 292.617,476.278 C294.752,475.051 296.887,473.826 299.021,472.6 C298.569,471.871 299.044,468.466 299.025,467.555 C298.968,464.949 299.017,462.334 299.017,459.727 C299.016,454.531 299.021,449.333 299.019,444.137 C299.015,433.816 298.966,423.495 298.795,413.177 C298.636,403.564 298.287,393.96 297.753,384.362 C297.223,374.826 297.174,364.715 294.515,355.485 C293.877,353.273 290.938,355.701 290.847,357.107 L290.847,357.107 Z" id="Shape"></path>
                    <path d="M164.106,371.555 C162.128,377.7 162.502,384.869 162.375,391.263 C162.221,398.984 162.057,406.703 161.955,414.424 C161.751,429.863 162.708,445.163 163.407,460.568 C163.587,464.51 168.636,462.086 169.693,460.059 C170.696,458.133 170.842,456.191 170.129,454.134 C169.179,451.396 165.753,454.151 165.253,455.705 C165.021,456.565 164.682,457.384 164.235,458.16 C166.17,458.254 168.104,458.348 170.04,458.442 C167.773,444.044 167.661,429.192 167.263,414.651 C167.052,407.008 166.957,399.366 166.904,391.721 C166.859,385.222 167.733,377.305 165.326,371.161 C165.063,370.494 164.236,371.15 164.106,371.555 L164.106,371.555 Z" id="Shape"></path>
                    <path d="M162.996,376.049 C180.724,378.364 199.324,377.251 217.154,376.755 C235.849,376.234 254.521,374.975 273.071,372.551 C272.232,371.874 271.393,371.197 270.554,370.521 C270.564,386.162 271.642,401.794 271.688,417.441 C271.715,426.441 271.593,435.488 270.602,444.441 C270.247,447.657 269.738,450.87 268.87,453.99 C268.617,454.901 268.249,455.761 267.818,456.602 C268.159,455.937 266.677,458.725 267.145,457.66 C266.764,458.526 267.789,457.191 267.152,457.716 C265.618,458.978 265.212,462.739 268.131,462.267 C274.1,461.299 275.575,454.528 276.487,449.49 C278.116,440.494 278.166,431.131 278.247,422.018 C278.407,404.154 276.986,386.34 276.892,368.491 C276.885,367.189 275.607,366.295 274.375,366.461 C256.429,368.884 238.384,370.262 220.294,370.998 C201.651,371.757 182.586,370.698 164.058,372.945 C162.773,373.1 160.938,375.78 162.996,376.049 L162.996,376.049 Z" id="Shape"></path>
                    <path d="M162.995,460.144 C165.601,464.246 173.671,464.271 177.92,464.517 C184.332,464.887 190.765,464.664 197.181,464.52 C204.869,464.347 212.528,464.274 220.213,463.917 C229.435,463.489 238.657,463.028 247.887,462.805 C251.409,462.72 254.954,462.629 258.476,462.796 C259.613,462.851 260.757,462.936 261.882,463.103 C262.382,463.177 262.811,463.291 263.338,463.249 C265.766,463.053 263.049,462.968 262.457,462.495 C263.606,463.412 265.132,463.215 266.203,462.191 C267.594,460.863 268.512,457.732 266.089,456.789 C263.615,455.826 260.636,456.064 258.034,456.049 C248.335,455.991 238.613,456.704 228.936,457.28 C221.088,457.747 213.218,458.426 205.356,458.554 C198.374,458.668 191.406,459.188 184.424,459.318 C180.528,459.391 176.617,459.261 172.732,458.993 C169.705,458.784 166.678,458.065 163.68,458.716 C163.075,458.847 162.658,459.613 162.995,460.144 L162.995,460.144 Z" id="Shape"></path>
                    <path d="M316.379,369.615 C314.836,375.777 315.329,382.519 315.31,388.828 C315.287,396.402 315.35,403.975 315.501,411.547 C315.801,426.583 316.572,441.592 317.274,456.611 C319.387,455.397 321.502,454.182 323.615,452.968 C322.437,451.943 322.493,451.578 321.887,450.271 C320.953,448.253 318.416,449.783 317.691,451.126 C316.258,453.778 316.141,455.506 317.832,458.042 C319.724,460.884 324.409,456.888 324.173,454.399 C322.824,440.158 322.087,425.851 321.405,411.565 C321.048,404.062 320.747,396.556 320.483,389.049 C320.252,382.454 320.895,375.137 319.033,368.758 C318.602,367.281 316.596,368.747 316.379,369.615 L316.379,369.615 Z" id="Shape"></path>
                    <path d="M318.628,370.952 C323.919,374.712 332.874,374.893 339.107,375.511 C347.823,376.376 356.599,376.512 365.349,376.324 C382.633,375.954 399.883,374.236 417,371.881 C420.55,371.394 423.503,365.178 418.445,365.131 C416.316,365.111 414.601,365.449 412.592,366.11 C411.184,366.573 408.529,369.814 410.976,370.81 C413.063,371.66 414.743,371.902 416.999,371.88 C417.48,369.63 417.963,367.38 418.444,365.13 C402.34,367.639 386.079,369.257 369.796,369.969 C361.175,370.346 352.526,370.399 343.904,370.073 C336.073,369.778 327.834,367.474 320.061,367.916 C318.724,367.994 317.237,369.964 318.628,370.952 L318.628,370.952 Z" id="Shape"></path>
                    <path d="M411.987,374.554 C412.204,374.083 413.478,371.165 413.808,371.073 C413.217,370.596 412.625,370.119 412.036,369.643 C410.511,375.873 411.239,382.986 411.582,389.323 C412.044,397.885 412.571,406.441 412.879,415.01 C413.156,422.752 413.307,430.503 412.836,438.24 C412.483,444.045 410.124,449.715 409.978,455.386 C409.917,457.775 413.086,457.254 414.226,456.218 C418.502,452.33 418.968,445.674 419.478,440.231 C420.242,432.051 420.027,423.798 419.658,415.603 C419.273,407.042 418.484,398.496 417.793,389.956 C417.232,383.024 417.332,375.279 415.368,368.57 C414.814,366.676 411.396,368.685 412.081,370.443 C412.236,371.878 412.021,373.239 411.436,374.53 C411.313,374.891 411.877,374.792 411.987,374.554 L411.987,374.554 Z" id="Shape"></path>
                    <path d="M319.665,456.903 C333.566,462.58 350.298,462.141 365.058,461.697 C380.781,461.225 396.54,459.104 411.9,455.742 C415.168,455.027 417.009,448.769 412.457,449.086 C410.394,449.23 408.519,449.466 406.602,450.226 C405.19,450.785 402.818,453.534 405.063,454.701 C406.717,455.561 408.263,455.752 410.131,455.887 C410.604,453.681 411.076,451.477 411.549,449.271 C396.67,452.527 381.613,454.521 366.409,455.395 C351.16,456.27 336.246,454.542 321.054,453.972 C319.905,453.927 318.122,456.273 319.665,456.903 L319.665,456.903 Z" id="Shape"></path>
                    <path d="M187.72,406.318 C186.716,409.222 185.656,414.271 189.632,415.457 C193.454,416.598 197.146,412.51 198.895,409.68 C199.992,407.905 199.778,405.784 197.32,405.726 C194.665,405.663 192.015,405.557 189.358,405.549 C187.466,405.543 185.55,407.638 185.647,409.492 C185.68,410.133 185.819,410.766 185.943,411.393 C186.039,411.883 186.162,412.337 186.3,412.814 C186.346,412.973 186.953,414.604 186.797,413.722 C187.169,415.821 189.718,415.294 190.695,413.911 C191.495,412.78 192.049,411.669 192.081,410.256 C192.102,409.318 191.855,408.446 191.801,407.519 C190.564,408.833 189.327,410.148 188.09,411.462 C190.772,411.454 193.447,411.35 196.128,411.285 C195.463,410.197 194.798,409.109 194.133,408.021 C193.695,408.801 192.993,409.841 192.511,410.317 C192.345,410.474 192.172,410.623 191.991,410.762 C192.194,410.606 192.15,410.62 191.858,410.805 C192.094,410.704 192.063,410.705 191.766,410.809 C191.915,410.763 192.315,410.825 191.85,410.747 C191.948,410.763 191.667,410.618 191.378,410.411 C191.23,410.304 191.009,409.89 190.877,409.644 C190.299,408.571 190.02,407.337 189.844,406.144 C189.669,404.956 188.022,405.442 187.72,406.318 L187.72,406.318 Z" id="Shape"></path>
                    <path d="M243.606,406.341 C242.368,405.759 241.081,405.525 239.733,405.364 C238.395,405.204 236.681,406.244 236.515,407.683 C236.257,409.916 236.034,412.148 235.946,414.395 C235.911,415.295 236.673,415.962 237.479,416.143 C240.74,416.869 244.66,417.006 247.555,415.053 C249.89,413.479 251.791,410.728 251.233,407.777 C250.732,405.133 249.05,403.403 246.514,402.588 C243.165,401.511 238.327,403.56 236.834,406.687 C237.151,406.271 237.47,405.855 237.787,405.439 C236.964,406.311 236.025,407.204 235.905,408.475 C235.804,409.536 236.332,410.361 237.497,410.288 C238.485,410.225 239.266,409.769 240.117,409.324 C239.651,409.475 239.185,409.624 238.721,409.774 C239.383,409.707 239.975,409.562 240.572,409.245 C241.406,408.802 240.259,409.338 240.749,409.141 C241.218,408.952 241.684,408.766 242.172,408.634 C242.505,408.556 242.4,408.573 241.854,408.69 C242.845,408.49 242.956,408.468 242.184,408.626 C242.395,408.588 242.609,408.57 242.823,408.557 C243.612,408.506 242.302,408.497 242.799,408.538 C242.989,408.554 243.178,408.59 243.365,408.629 C243.591,408.675 244.231,408.921 243.334,408.588 C243.501,408.651 243.66,408.73 243.818,408.811 C243.973,408.892 244.119,408.986 244.263,409.083 C244.652,409.346 243.684,408.57 244.197,409.039 C244.443,409.262 244.655,409.524 244.848,409.793 C245.117,410.166 244.481,409.106 244.795,409.708 C244.888,409.887 244.96,410.075 245.026,410.265 C245.102,410.484 245.204,411.089 245.026,410.144 C245.055,410.299 245.068,410.457 245.077,410.615 C245.093,410.863 245.014,411.474 245.119,410.456 C245.102,410.614 245.067,410.77 245.03,410.924 C244.915,411.4 245.374,410.077 245.085,410.736 C244.786,411.416 245.511,410.112 245.218,410.549 C245.05,410.798 244.547,411.295 245.41,410.396 C245.279,410.532 245.133,410.652 244.985,410.769 C245.909,410.034 245.348,410.508 245.074,410.664 C244.342,411.08 245.608,410.467 245.068,410.679 C244.837,410.77 244.598,410.838 244.359,410.905 C243.558,411.129 244.641,410.874 244.1,410.96 C242.455,411.221 241.594,411.099 239.967,410.87 C240.478,411.453 240.988,412.036 241.5,412.618 C241.422,410.663 241.217,408.728 240.977,406.786 C240.071,407.749 239.164,408.712 238.259,409.675 C239.807,409.503 241.321,409.259 242.788,408.72 C243.521,408.448 244.819,406.911 243.606,406.341 L243.606,406.341 Z" id="Shape"></path>
                    <path d="M191.416,412.158 C195.507,412.676 199.591,413.094 203.662,413.758 C203.242,413.07 202.821,412.382 202.401,411.695 C200.854,419.596 204.734,427.389 213.574,427.413 C222.325,427.437 228.28,419.904 227.059,411.437 C225.718,412.862 224.377,414.288 223.036,415.712 C226.95,415.096 230.589,414.428 234.481,415.142 C236.079,415.435 237.48,414.269 238.208,412.969 C238.289,412.824 238.37,412.679 238.451,412.534 C238.948,411.646 238.933,410.401 238.265,409.609 C235.385,406.194 228.001,408.675 224.411,409.299 C222.565,409.619 220.025,411.347 220.388,413.574 C221.124,418.106 219.74,421.239 214.873,421.349 C209.461,421.469 206.61,416.036 207.046,411.316 C207.155,410.129 206.559,409.093 205.212,409.226 C200.495,409.693 195.909,408.852 191.515,410.957 C191.116,411.15 190.732,412.071 191.416,412.158 L191.416,412.158 Z" id="Shape"></path>
                    <path d="M344.865,404.527 C342.108,407.06 340.586,410.632 341.003,414.378 C341.095,415.192 341.612,415.997 342.506,416.09 C345.021,416.351 347.81,416.722 350.129,415.499 C353.066,413.95 353.895,410.144 354.78,407.258 C355.046,406.395 354.665,405.161 353.792,404.776 C351.249,403.651 348.478,402.715 345.873,404.201 C344.722,404.858 343.745,406.015 343.298,407.261 C343.095,407.825 342.976,408.279 342.903,408.855 C342.794,409.326 342.82,409.789 342.98,410.243 C342.665,408.92 342.904,409.801 342.872,410.422 C342.845,410.949 343.259,411.738 343.783,411.922 C343.812,411.932 343.842,411.942 343.871,411.952 C343.595,411.497 343.318,411.042 343.042,410.587 C343.063,410.854 342.993,411.363 343.063,411.85 C343.233,413.038 344.487,413.288 345.424,412.712 C346.256,412.2 346.779,411.563 347.349,410.797 C346.774,411.21 346.199,411.623 345.623,412.037 C346.883,411.708 347.706,410.676 348.22,409.546 C347.835,410.394 348.473,409.197 348.6,408.903 C348.714,408.636 348.852,408.382 348.975,408.121 C348.656,408.799 349.082,408.247 348.434,408.823 C348.002,409.247 347.504,409.477 346.938,409.515 C347.249,409.501 347.256,409.487 346.961,409.474 C347.892,409.535 348.797,409.903 349.654,410.238 C349.324,409.411 348.995,408.583 348.666,407.756 C348.514,408.328 348.359,408.9 348.2,409.47 C348.132,409.711 348.062,409.951 347.99,410.192 C347.99,410.192 347.634,411.242 347.85,410.639 C347.766,410.873 347.15,412.057 347.688,411.182 C347.293,411.825 347.957,410.988 348.179,410.85 C349.136,410.257 347.818,410.854 348.685,410.692 C348.319,410.76 347.941,410.774 347.57,410.793 C346.475,410.847 345.375,410.795 344.283,410.895 C344.961,411.274 345.638,411.652 346.317,412.031 C345.882,410.751 345.775,409.537 346.272,408.261 C346.699,407.166 347.209,406.193 347.292,405.006 C347.389,403.626 345.483,403.959 344.865,404.527 L344.865,404.527 Z" id="Shape"></path>
                    <path d="M386.569,406.68 C386.158,408.327 385.078,409.872 384.911,411.733 C384.835,412.588 384.898,413.597 385.821,414.017 C388.935,415.435 392.363,415.877 395.493,414.279 C398.006,412.996 399.757,410.16 399.613,407.33 C399.49,404.892 397.881,403.047 395.577,402.402 C394.263,402.034 392.663,402.31 391.411,402.76 C389.055,403.609 386.53,405.281 385.789,407.775 C386.022,407.283 386.255,406.791 386.487,406.298 C386.161,406.755 385.788,407.148 385.587,407.693 C385.277,408.529 385.094,409.464 385.746,410.207 C386.366,410.914 387.38,410.947 388.217,410.691 C388.775,410.519 389.2,410.216 389.702,409.961 C389.183,410.129 388.665,410.295 388.146,410.462 C389.222,410.358 390.053,409.846 390.936,409.295 C391.143,409.166 391.356,409.047 391.565,408.922 C391.83,408.764 392.801,408.326 391.596,408.853 C391.777,408.774 391.963,408.709 392.15,408.649 C392.996,408.37 391.772,408.688 392.082,408.638 C392.279,408.606 392.479,408.597 392.679,408.594 C391.587,408.607 392.229,408.567 392.534,408.622 C392.784,408.668 393.312,408.882 392.315,408.518 C392.467,408.575 392.612,408.65 392.753,408.731 C392.97,408.854 393.375,409.213 392.564,408.548 C392.684,408.647 392.792,408.76 392.894,408.877 C392.976,408.969 393.048,409.07 393.118,409.172 C393.301,409.438 392.719,408.401 393.01,409.037 C393.074,409.18 393.123,409.328 393.167,409.478 C393.343,410.07 393.048,408.695 393.127,409.311 C393.143,409.438 393.148,409.565 393.15,409.693 C393.167,410.431 393.223,409.141 393.174,409.49 C393.156,409.619 393.126,409.746 393.095,409.872 C392.932,410.523 393.434,409.015 393.175,409.639 C393.124,409.762 393.061,409.879 392.995,409.996 C393.623,408.871 393.323,409.472 393.104,409.739 C392.846,410.053 393.946,408.943 393.288,409.504 C392.987,409.76 394.25,408.9 393.481,409.349 C392.84,409.723 394.219,409.058 393.718,409.262 C393.511,409.346 393.295,409.407 393.08,409.463 C392.594,409.589 393.937,409.33 393.146,409.435 C392.88,409.469 392.612,409.479 392.345,409.485 C391.558,409.499 392.714,409.522 392.19,409.479 C391.864,409.453 391.541,409.401 391.218,409.344 C390.47,409.213 389.732,409 389.007,408.78 C389.535,409.382 390.064,409.984 390.592,410.587 C390.568,409.872 390.729,409.255 390.905,408.401 C391.136,407.292 391.055,406.403 390.819,405.311 C390.616,404.373 389.325,404.278 388.613,404.505 C387.619,404.824 386.821,405.667 386.569,406.68 L386.569,406.68 Z" id="Shape"></path>
                    <path d="M348.115,411.796 C352.288,412.04 356.31,412.634 360.431,413.246 C359.9,412.641 359.368,412.035 358.837,411.43 C358.609,414.153 358.385,416.857 358.343,419.589 C358.332,420.275 358.809,421.203 359.483,421.463 C366.508,424.175 370.987,423.726 377.8,420.321 C379.853,419.296 381.279,417.423 382.601,415.606 C383.325,414.612 384.023,413.606 384.792,412.645 C382.685,413.04 382.367,413.225 383.84,413.202 C382.636,413.227 384.776,413.485 384.788,413.487 C385.961,413.658 387.088,412.882 387.592,411.853 C388.292,410.426 388.296,409.398 387.95,407.87 C387.779,407.112 386.864,406.54 386.156,406.43 C382.332,405.835 379.813,409.191 377.843,411.953 C374.37,416.824 369.359,417.429 363.962,415.547 C364.343,416.172 364.722,416.797 365.102,417.421 C365.061,414.796 364.839,412.195 364.608,409.58 C364.501,408.363 363.517,407.628 362.316,407.731 C357.726,408.128 352.993,407.45 348.656,409.268 C347.914,409.581 346.438,411.698 348.115,411.796 L348.115,411.796 Z" id="Shape"></path>
                </g>
            </g>
        </g>
    </g>
</svg>