<?xml version="1.0" encoding="UTF-8"?>
<svg width="464px" height="550px" viewBox="0 0 464 550" version="1.1" xmlns="http://www.w3.org/2000/svg" xmlns:xlink="http://www.w3.org/1999/xlink">
    <!-- Generator: Sketch 41 (35326) - http://www.bohemiancoding.com/sketch -->
    <title>doctor</title>
    <desc>Created with Sketch.</desc>
    <defs></defs>
    <g id="Page-1" stroke="none" stroke-width="1" fill="none" fill-rule="evenodd">
        <g id="Layer_1" transform="translate(-6094.000000, -2807.000000)" fill="#010101">
            <g id="Layer_1_3_">
                <g id="doctor" transform="translate(6094.000000, 2807.000000)">
                    <path d="M107.446,36.465 C129.384,26.797 151.012,18.695 174.739,14.519 C199.391,10.18 224.743,9.163 249.711,10.575 C274.223,11.961 298.587,15.977 322.299,22.311 C334.144,25.475 345.777,29.315 357.384,33.243 C365.463,35.977 375.222,39.935 381.755,43.1 C381.101,41.455 380.444,39.809 379.79,38.164 C379.784,38.198 379.778,38.232 379.772,38.267 C381.157,36.471 382.54,34.674 383.924,32.878 C385.617,31.783 383.61,32.893 383.029,33.055 C379.547,34.023 375.91,39.592 379.896,42.168 C383.148,44.27 386.115,43.954 389.258,41.539 C391.536,39.788 392.361,36.99 391.781,34.299 C391.118,31.221 386.278,30.888 383.833,30.035 C378.933,28.326 374.181,26.228 369.297,24.461 C356.536,19.843 343.497,15.656 330.382,12.16 C305.724,5.588 280.079,2.122 254.611,1 C228.4,-0.153 202.205,1.483 176.444,6.55 C152.548,11.249 127.196,18.434 106.418,31.517 C104.083,32.989 103.826,38.061 107.446,36.465 L107.446,36.465 Z" id="Shape"></path>
                    <path d="M126.934,170.659 C142.143,158.167 159.049,148.937 178.011,143.573 C197.557,138.043 218.35,136.584 238.583,136.834 C258.223,137.076 277.996,139.707 297.241,143.554 C318.701,147.844 338.993,157.624 355.623,171.919 C355.506,170.069 355.389,168.219 355.271,166.368 C355.161,166.633 355.05,166.897 354.94,167.162 C357.714,165.546 360.488,163.929 363.262,162.311 C362.748,162.131 362.272,161.876 361.832,161.547 C357.857,159.183 350.558,165.078 352.817,169.458 C353.688,171.146 354.477,172.947 356.38,173.617 C360.948,175.225 365.215,172.108 366.558,167.704 C366.638,167.438 366.719,167.172 366.8,166.906 C367.403,164.93 366.433,163.113 364.853,162.013 C355.572,155.55 346.609,148.931 336.474,143.818 C326.261,138.665 315.23,135.231 304.072,132.838 C283.388,128.402 261.896,126.822 240.78,126.58 C200.227,126.115 150.862,134.757 124.171,168.467 C122.452,170.638 125.098,172.167 126.934,170.659 L126.934,170.659 Z" id="Shape"></path>
                    <path d="M139.37,153.713 C135.728,159.476 135.537,167.891 135.182,174.531 C134.977,178.356 134.846,182.174 134.559,185.995 C134.365,188.596 133.395,191.343 133.552,193.916 C133.689,196.175 135.182,197.758 137.35,198.243 C142.823,199.469 147.204,193.794 147.315,188.946 C147.342,187.788 146.6,186.474 146.391,185.309 C146.014,183.205 145.832,181.064 145.6,178.941 C145.091,174.28 145.151,169.51 144.873,164.829 C144.652,161.107 145.269,156.891 143.988,153.339 C143.249,151.284 140.225,152.359 139.37,153.713 L139.37,153.713 Z" id="Shape"></path>
                    <path d="M342.739,156.391 C340.614,160.095 341.52,165.719 341.671,169.818 C341.775,172.672 341.81,175.528 341.831,178.383 C341.839,179.461 341.839,180.538 341.837,181.615 C341.837,182.172 341.371,183.937 341.678,183.423 C340.459,185.469 340.747,189.141 343.194,190.216 C343.29,190.258 343.385,190.3 343.481,190.342 C346.802,191.802 349.928,189.942 352.127,187.47 C352.22,187.366 352.314,187.26 352.407,187.156 C353.923,185.452 354.999,181.513 352.979,179.717 C353.568,180.241 352.866,179.071 352.757,178.647 C352.463,177.499 352.432,176.211 352.273,175.037 C351.901,172.291 351.485,169.552 351.038,166.816 C350.475,163.38 349.925,156.298 346.08,154.874 C344.68,154.354 343.435,155.178 342.739,156.391 L342.739,156.391 Z" id="Shape"></path>
                    <path d="M127.424,171.09 C121.145,169.295 116.657,177.175 115.131,182.023 C112.329,190.922 111.466,201.181 111.812,210.436 C112.144,219.31 115.294,225.754 120.659,232.631 C123.697,236.526 129.141,244.465 134.893,243.554 C139.046,242.897 144.063,238.634 142.321,233.918 C141.068,230.53 136.682,228.107 134.133,225.523 C130.307,221.642 126.095,217.207 124.693,211.813 C122.621,203.843 123.387,195.448 123.355,187.327 C123.343,184.578 123.127,181.987 123.712,179.269 C124.293,176.566 126.609,174.76 127.964,172.435 C128.288,171.881 128.012,171.258 127.424,171.09 L127.424,171.09 Z" id="Shape"></path>
                    <path d="M362.644,171.377 C362.272,173.664 361.184,175.697 360.896,178.029 C360.592,180.495 360.369,182.971 360.17,185.448 C359.746,190.762 359.773,196.099 359.225,201.413 C358.742,206.092 357.834,210.858 355.873,215.153 C353.91,219.452 352.477,218.577 348.201,220.37 C345.278,221.596 342.695,223.703 341.997,226.965 C341.463,229.456 342.715,232.456 345.544,232.77 C359.569,234.327 368.017,218.753 369.485,207.047 C370.274,200.758 370.02,194.41 369.398,188.124 C369.08,184.913 368.626,181.777 367.983,178.616 C367.429,175.894 365.912,173.437 365.416,170.816 C365.103,169.159 362.85,170.106 362.644,171.377 L362.644,171.377 Z" id="Shape"></path>
                    <path d="M141.404,222.643 C137.514,238.135 140.059,255.009 144.041,270.243 C148.205,286.172 155.133,301.313 164.44,314.889 C173.484,328.08 185.333,339.44 199.085,347.63 C214.425,356.766 232.011,360.199 249.68,360.274 C255.399,360.297 259.277,350.037 251.869,350.055 C218.547,350.14 190.665,333.773 171.746,306.775 C162.998,294.291 156.642,280.146 152.171,265.608 C147.769,251.29 146.479,236.581 143.315,222.028 C143.077,220.941 141.553,222.05 141.404,222.643 L141.404,222.643 Z" id="Shape"></path>
                    <path d="M344.92,208.181 C342.812,217.759 341.887,227.528 339.945,237.145 C338.027,246.648 335.236,255.842 332.148,265.019 C327.342,279.297 321.724,293.072 312.831,305.344 C305.462,315.513 296.016,323.926 285.49,330.715 C279.713,334.442 273.625,337.674 267.445,340.674 C261.441,343.588 253.173,346.619 249.006,349.574 C246.353,351.457 243.317,355.223 245.911,358.462 C250.498,364.186 261.917,356.493 266.822,354.174 C273.934,350.811 280.856,347.051 287.5,342.836 C300.313,334.707 311.767,324.627 320.94,312.512 C331.07,299.133 337.361,283.699 342.093,267.721 C345.103,257.558 347.197,246.95 348.572,236.446 C349.85,226.685 350.507,216.753 348.223,207.116 C347.788,205.272 345.157,207.106 344.92,208.181 L344.92,208.181 Z" id="Shape"></path>
                    <path d="M152.076,199.565 C162.524,202.743 175.014,201.557 185.81,201.233 C197.094,200.893 209.022,200.615 220.159,198.794 C218.709,197.624 217.259,196.454 215.809,195.284 C215.804,201.595 216.264,207.975 216.525,214.268 C216.774,220.253 216.1,225.122 214.506,230.791 C212.856,236.666 220.297,236.36 223.281,233.918 C228.892,229.325 228.771,220.723 228.638,214.127 C228.488,206.644 226.931,199.272 226.765,191.772 C226.716,189.606 224.562,187.866 222.413,188.262 C211.33,190.315 200.644,192.442 189.353,193.289 C177.551,194.176 165.195,193.066 153.564,195.207 C151.71,195.549 149.241,198.703 152.076,199.565 L152.076,199.565 Z" id="Shape"></path>
                    <path d="M259.914,191.088 C256.851,198.181 256.846,207.53 256.549,215.143 C256.29,221.77 255.956,230.536 260.26,236.097 C264.264,241.271 274.162,232.642 270.203,227.371 C266.829,222.879 267.214,215.815 267.107,210.456 C266.987,204.443 268.455,195.425 265.49,189.952 C264.175,187.526 260.804,189.027 259.914,191.088 L259.914,191.088 Z" id="Shape"></path>
                    <path d="M263.069,191.477 C263.05,191.52 263.032,191.562 263.012,191.604 C262.658,192.383 262.522,193.463 263.173,194.147 C265.987,197.101 271.334,197.266 275.115,197.735 C281.064,198.47 287.015,199.196 292.974,199.842 C301.064,200.719 309.169,201.353 317.308,201.55 C318.699,201.584 320.09,201.602 321.482,201.627 C323.738,201.669 320.687,201.121 321.812,201.53 C322.902,201.926 323.552,202.172 324.752,202.043 C330.903,201.379 335.213,189.951 327.156,190.82 C326.195,190.924 325.262,191.122 324.337,191.396 C321.427,192.257 315.741,199.424 320.94,201.275 C321.736,201.559 322.498,201.88 323.34,201.977 C326.611,202.354 329.791,200.365 331.183,197.406 C332.317,194.996 331.797,191.257 328.569,190.885 C325.595,190.542 323.03,191.247 319.765,191.308 C310.971,191.469 302.202,190.926 293.436,190.29 C287.393,189.852 281.425,189.405 275.359,189.372 C272.258,189.356 264.772,187.719 263.069,191.477 L263.069,191.477 Z" id="Shape"></path>
                    <path d="M153.049,197.499 C146.269,199.484 147.934,211.145 148.97,216.014 C150.905,225.109 157.112,231.98 165.317,236.055 C174.815,240.772 185.934,241.805 196.327,241.703 C200.679,241.661 205.134,241.397 209.412,240.564 C211.108,240.233 212.786,239.848 214.463,239.432 C215.355,239.21 217.207,238.774 216.165,238.971 C214.644,238.121 213.12,237.271 211.597,236.421 C211.603,236.436 211.608,236.449 211.613,236.464 C212.441,234.09 213.268,231.716 214.095,229.342 C214.383,229.126 214.67,228.911 214.958,228.696 C212.675,230.13 210.635,232.53 210.787,235.397 C210.963,238.708 214.302,239.797 217.081,238.93 C217.847,238.691 218.561,238.337 219.293,238.008 C221.659,236.946 223.739,233.813 223.536,231.19 C223.535,231.174 223.534,231.158 223.532,231.142 C223.321,228.404 221.204,227.223 218.682,227.229 C216.865,227.233 214.746,228.098 213.003,228.561 C210.041,229.346 207.046,229.665 203.996,229.985 C193.871,231.044 183.6,230.458 173.926,227.057 C165.869,224.225 160.502,219.085 157.516,211.142 C156.943,209.62 155.182,196.874 153.049,197.499 L153.049,197.499 Z" id="Shape"></path>
                    <path d="M259.809,234.582 C264.603,237.739 271.264,238.759 276.85,239.69 C283.721,240.837 290.679,240.795 297.601,240.255 C309.543,239.323 321.186,236.059 329.868,227.396 C336.233,221.043 340.716,211.965 340.649,202.858 C340.622,199.258 338.797,195.6 335.387,194.168 C330.832,192.255 324.028,195.919 324.539,201.296 C324.663,202.595 325.268,204.062 326.564,204.626 C330.09,206.161 328.384,210.53 327.154,213.689 C324.83,219.648 320.216,224.011 314.3,226.407 C307.096,229.323 298.752,229.879 291.072,230.144 C281.597,230.471 271.451,228.061 262.131,229.675 C260.184,230.012 257.333,232.95 259.809,234.582 L259.809,234.582 Z" id="Shape"></path>
                    <path d="M222.809,220.27 C228.587,220.495 234.327,219.682 240.095,219.414 C246.34,219.123 252.654,219.657 258.809,220.702 C260.158,216.759 261.506,212.815 262.856,208.871 C259.427,209.004 256.812,209.857 254.25,212.175 C252.16,214.064 250.851,217.659 253.683,219.519 C255.726,220.861 257.936,220.725 260.306,220.772 C265.805,220.878 271.714,209.829 264.353,208.941 C250.842,207.311 234.101,207.452 222.547,215.617 C220.746,216.888 219.62,220.145 222.809,220.27 L222.809,220.27 Z" id="Shape"></path>
                    <path d="M223.952,267.339 C232.575,272.345 243.774,271.516 253.393,271.113 C260.462,270.818 263.565,257.907 255.893,259.451 C246.139,261.414 236.02,261.929 226.124,262.747 C224.291,262.899 221.62,265.985 223.952,267.339 L223.952,267.339 Z" id="Shape"></path>
                    <path d="M200.314,206.929 C197.706,210.769 196.817,215.45 197.188,220.047 C197.292,221.342 198.164,222.526 199.521,222.705 C200.131,222.785 200.741,222.861 201.353,222.925 C203.97,223.197 207.422,221.217 207.713,218.339 C208.12,214.307 207.737,210.494 207.18,206.506 C206.388,200.842 198.066,204.035 197.676,208.426 C197.476,210.689 197.399,212.933 197.346,215.203 C197.283,217.879 197.032,219.998 199.503,221.641 C201.998,223.3 205.735,221.224 207.247,219.19 C208.364,217.686 208.902,215.964 208.891,214.104 C208.879,212.368 207.595,211.301 206.059,210.875 C205.99,210.856 205.921,210.838 205.853,210.818 C206.602,211.42 207.35,212.02 208.098,212.621 C208.068,212.565 208.039,212.509 208.012,212.451 C207.223,210.822 205.449,210.313 203.775,210.905 C202.908,211.212 202.248,211.555 201.551,212.168 C203.545,210.416 199.967,213.596 199.912,213.667 C199.264,214.521 198.92,215.396 198.67,216.427 C198.35,217.752 198.736,216.198 199.538,215.024 C200.301,214.354 201.064,213.684 201.828,213.014 C201.784,213.045 201.74,213.076 201.697,213.107 C202.57,212.826 203.444,212.544 204.318,212.263 C205.099,212.508 205.88,212.753 206.661,212.998 C206.936,213.705 207.212,214.411 207.487,215.118 C207.419,212.25 207.447,209.363 207.179,206.506 C204.052,207.889 200.926,209.272 197.799,210.654 C198.854,213.715 198.548,216.953 198.892,220.121 C200.683,218.217 202.474,216.313 204.265,214.41 C203.602,214.475 202.942,214.552 202.282,214.633 C203.335,215.221 204.388,215.808 205.441,216.396 C204.298,213.326 205.205,210.32 205.131,207.163 C205.069,204.396 201.325,205.44 200.314,206.929 L200.314,206.929 Z" id="Shape"></path>
                    <path d="M280.012,206.141 C281.008,204.809 279.139,206.99 279.08,207.066 C278.646,207.639 278.399,208.318 278.122,208.972 C277.606,210.188 277.176,211.417 276.955,212.721 C276.412,215.918 277.793,218.766 279.639,221.273 C282.141,224.672 288.029,220.466 288.407,217.342 C288.94,212.941 287.502,209.18 285.643,205.272 C283.659,201.101 277.487,203.741 276.21,207.194 C274.759,211.118 274.359,215.295 274.59,219.473 C274.748,222.34 277.648,223.323 280.069,222.549 C282.949,221.628 284.855,219.086 285.033,216.125 C285.204,213.26 285.124,210.459 285.775,207.641 C282.487,208.7 279.2,209.759 275.913,210.819 C277.415,213.691 278.322,216.112 278.859,219.271 C281.815,217.573 284.77,215.875 287.725,214.177 C286.307,212.998 285.322,211.958 284.74,210.213 C284.559,209.67 284.577,209.019 284.54,208.451 C284.47,207.388 284.212,206.806 283.952,205.821 C283.446,203.906 280.727,205.185 280.012,206.141 L280.012,206.141 Z" id="Shape"></path>
                    <path d="M105.825,34.398 C99.291,42.716 100.059,53.391 101.772,63.203 C103.787,74.745 105.676,86.229 107.259,97.847 C110.689,123.023 113.807,148.318 118.754,173.253 C120.313,181.111 132.209,175.675 131.145,169.28 C130.832,167.391 130.582,166.124 129.225,164.709 C128.298,163.745 126.975,163.724 126.118,162.736 C123.835,160.109 120.087,163.424 119.388,165.754 C118.699,168.057 118.622,170.869 118.755,173.253 C122.79,171.468 126.825,169.683 130.859,167.899 C125.452,144.942 121.487,121.766 117.593,98.514 C115.795,87.775 114.211,76.953 111.784,66.335 C110.566,61.006 109.22,55.735 108.478,50.312 C107.746,44.955 107.687,39.867 107.54,34.482 C107.513,33.462 106.206,33.913 105.825,34.398 L105.825,34.398 Z" id="Shape"></path>
                    <path d="M382.943,36.034 C382.08,40.731 382.499,45.337 382.033,50.062 C381.559,54.878 380.579,59.62 379.776,64.386 C378.628,71.2 377.235,77.965 376.19,84.798 C374.739,94.301 373.422,103.824 372.013,113.333 C370.307,124.848 368.518,136.355 366.207,147.767 C365.282,152.336 364.274,156.896 362.999,161.38 C362.773,162.175 362.524,162.963 362.27,163.748 C362.966,161.607 362.229,163.75 362.048,164.188 C361.617,165.235 361.186,166.109 360.886,167.262 C361.307,165.646 363.888,162.128 368.426,161.333 C362.356,162.396 354.67,172.442 363.646,175.308 C368.717,176.927 373.875,171.496 375.977,167.62 C377.951,163.978 378.71,159.18 379.557,155.163 C382.177,142.736 383.803,130.059 385.498,117.479 C386.965,106.596 388.236,95.693 389.561,84.792 C390.434,77.614 391.633,70.489 392.695,63.339 C394.018,54.414 395.706,40.491 389.132,33.257 C387.116,31.04 383.374,33.688 382.943,36.034 L382.943,36.034 Z" id="Shape"></path>
                    <path d="M251.037,16.701 C228.743,11.597 206.847,25.085 195.926,43.992 C185.003,62.902 187.834,86.523 201.759,102.967 C215.062,118.675 237.187,126.06 257.296,122.746 C275.099,119.813 287.925,109.454 296.366,93.829 C304.923,77.99 308.209,57.949 303.628,40.434 C299.064,22.976 281.758,11.886 264.044,17.985 C259.176,19.662 255.546,28.765 263.149,28.671 C269.951,28.587 276.045,27.95 282.108,31.641 C287.075,34.663 289.948,40.102 291.686,45.462 C295.98,58.712 293.314,74.424 287.973,86.958 C281.554,102.024 271.283,110.366 254.682,111.95 C234.598,113.864 213.723,103.235 204.416,85.162 C197.372,71.481 198.814,54.911 207.302,42.216 C216.774,28.046 233.055,23.095 249.241,21.948 C251.579,21.782 254.382,17.467 251.037,16.701 L251.037,16.701 Z" id="Shape"></path>
                    <path d="M165.071,306.927 C162.301,309.953 160.881,314.341 158.867,317.908 C156.468,322.16 153.878,326.303 151.491,330.562 C146.918,338.724 143.944,347.412 143.932,356.835 C147.328,355.333 150.725,353.83 154.121,352.327 C152.308,349.189 149.688,347.203 146.058,349.274 C142.919,351.065 142.458,355.115 144.171,357.999 C147.116,362.956 154.669,358.411 154.361,353.491 C153.782,344.232 157.035,336.286 161.089,328.151 C163.87,322.571 170.353,313.124 168.472,306.65 C167.976,304.941 165.755,306.179 165.071,306.927 L165.071,306.927 Z" id="Shape"></path>
                    <path d="M318.818,305.771 C320.197,311.612 324.105,316.379 327.469,321.238 C331.274,326.733 334.493,332.348 337.255,338.436 C339.2,342.723 341.291,346.976 342.261,351.563 C342.783,354.036 343.036,359.131 346.517,359.314 C349.383,359.464 351.768,358.051 353.1,355.477 C354.588,352.598 352.817,349.71 352.027,346.936 C350.662,342.145 348.478,337.801 346.25,333.31 C340.733,322.194 332.241,310.064 321.604,303.327 C320.184,302.427 318.506,304.451 318.818,305.771 L318.818,305.771 Z" id="Shape"></path>
                    <path d="M147.093,348.146 C141.409,349.768 136.063,353.091 130.77,355.676 C124.995,358.495 119.273,361.408 113.45,364.128 C101.589,369.666 89.52,374.741 77.4,379.679 C52.847,389.68 28.081,399.203 4.279,410.931 C-0.829,413.448 -0.505,421.535 6.164,420.014 C12.348,418.604 17.952,415.639 21.204,410.053 C22.97,407.021 20.033,405.04 17.312,405.619 C13.133,406.508 9.843,409.336 5.638,410.33 C6.266,413.357 6.895,416.385 7.523,419.413 C30.947,407.656 55.37,398.135 79.53,388.035 C91.375,383.083 103.184,378.005 114.727,372.38 C126.024,366.875 139.719,361.045 148.522,351.817 C149.985,350.286 149.873,347.352 147.093,348.146 L147.093,348.146 Z" id="Shape"></path>
                    <path d="M343.441,355.146 C348.328,363.182 359.975,368.243 368.087,372.239 C377.803,377.024 387.517,381.588 396.953,386.926 C416.749,398.124 435.224,411.462 454.348,423.734 C456.717,420.608 459.084,417.481 461.453,414.355 C458.606,412.933 456.148,411.941 452.962,412.084 C450.512,412.192 446.516,415.686 448.064,418.439 C449.585,421.147 451.571,422.345 454.348,423.734 C459.354,426.235 466.9,417.85 461.453,414.355 C442.828,402.404 424.577,389.826 405.322,378.89 C395.818,373.493 385.902,369.162 375.938,364.712 C371.136,362.567 366.346,360.381 361.654,358.004 C356.806,355.548 352.009,352.306 346.792,350.755 C344.479,350.067 342.272,353.223 343.441,355.146 L343.441,355.146 Z" id="Shape"></path>
                    <path d="M143.104,347.139 C145.243,353.115 149.125,358.04 152.925,363.07 C157.347,368.924 161.788,374.762 166.201,380.622 C174.726,391.938 183.093,403.375 191.306,414.919 C208.099,438.523 224.474,462.419 241.441,485.898 C244.436,483.27 247.431,480.641 250.425,478.013 C249.366,477.008 248.289,475.883 247.06,475.078 C245.31,473.933 243.981,474.209 242.203,473.408 C239.854,472.351 235.961,475.175 237.14,477.85 C237.828,479.408 237.412,480.642 238.344,482.073 C239.271,483.496 240.273,484.667 241.441,485.897 C245.582,490.257 253.885,482.8 250.425,478.012 C233.837,455.058 217.657,431.805 200.765,409.072 C192.327,397.72 183.781,386.441 174.843,375.478 C170.213,369.798 165.518,364.191 160.579,358.778 C155.944,353.697 151.335,348.498 145.141,345.349 C144.152,344.846 142.729,346.088 143.104,347.139 L143.104,347.139 Z" id="Shape"></path>
                    <path d="M343.307,351.007 C326.526,372.492 307.942,392.613 291.651,414.475 C275.465,436.194 262.682,460.26 244.818,480.751 C243.169,482.643 242.764,486.247 245.287,487.612 C248.056,489.111 251.059,487.101 252.859,485.096 C254.952,482.766 258.318,477.087 254.139,474.92 C250.125,472.839 246.911,478.416 244.818,480.75 C247.499,482.198 250.178,483.647 252.859,485.096 C270.68,464.634 283.789,440.729 299.495,418.712 C315.327,396.519 335.966,377.222 348.393,352.774 C350.289,349.043 345.172,348.62 343.307,351.007 L343.307,351.007 Z" id="Shape"></path>
                    <path d="M237.552,403.235 C234.953,395.863 229.994,389.254 233.116,381.042 C235.029,376.009 241.38,370.646 246.988,372.826 C258.758,377.403 257.493,394.042 251.734,402.43 C247.39,408.758 255.367,411.555 259.492,406.623 C269.8,394.3 268.165,366.102 248.647,363.649 C238.999,362.438 230.356,370.52 226.134,378.369 C221.437,387.102 224.926,401.636 233.712,406.604 C235.57,407.654 238.229,405.154 237.552,403.235 L237.552,403.235 Z" id="Shape"></path>
                    <path d="M232.287,403.426 C228.038,410.057 227.454,420.06 225.876,427.614 C224.914,432.216 223.897,436.809 222.677,441.35 C221.998,443.872 219.478,447.684 220.851,450.178 C221.535,451.42 222.613,452.173 224.104,451.993 C232.542,450.975 233.033,436.756 234.117,430.345 C235.012,425.053 235.762,419.744 236.461,414.423 C236.912,410.987 237.9,406.446 236.908,403.051 C236.281,400.912 233.093,402.167 232.287,403.426 L232.287,403.426 Z" id="Shape"></path>
                    <path d="M254.254,404.714 C252.654,412.59 255.244,421.212 256.697,428.926 C257.504,433.204 258.372,437.459 258.917,441.782 C259.127,443.44 259.19,445.102 259.313,446.767 C259.598,450.66 259.702,444.205 259.494,448.156 C259.443,449.135 259.746,449.96 260.39,450.704 C261.656,452.168 264.206,452.005 265.694,450.987 C267.695,449.617 269.558,447.592 269.416,444.975 C269.563,447.705 269.753,443.85 269.758,443.419 C269.766,442.543 269.657,441.702 269.524,440.837 C268.854,436.521 267.645,432.27 266.516,428.057 C264.272,419.681 261.189,411.562 258.847,403.234 C258.139,400.725 254.572,403.153 254.254,404.714 L254.254,404.714 Z" id="Shape"></path>
                    <path d="M249.923,308.911 C255.368,306.974 260.762,304.879 266.032,302.498 C268.265,301.489 271.524,300.573 273.355,298.967 C274.621,297.856 275.722,296.019 275.629,294.271 C275.441,290.74 275.417,297.347 275.649,293.861 C275.679,293.412 275.575,292.971 275.402,292.556 C273.934,289.046 269.07,291.604 267.994,294.065 C268.323,293.643 268.652,293.221 268.98,292.798 C270.05,292.319 271.121,291.839 272.19,291.36 C269.63,291.265 267.737,293.425 266.394,295.3 C267.668,293.521 266.104,295.235 265.23,295.744 C263.975,296.476 262.687,297.153 261.402,297.831 C257.084,300.107 252.281,302.144 248.519,305.304 C246.888,306.672 247.353,309.825 249.923,308.911 L249.923,308.911 Z" id="Shape"></path>
                    <path d="M266.641,291.987 C267.679,293.143 269.285,294.126 270.574,295.008 C271.228,295.455 271.878,295.911 272.516,296.38 C272.838,296.617 273.448,297.121 272.048,296 C272.417,296.295 272.748,296.687 273.182,296.874 C274.248,297.335 272.909,297.322 272.086,295.389 C272.186,294.17 272.285,292.951 272.385,291.733 C272.384,291.736 272.383,291.739 272.381,291.742 C273.832,290.469 275.283,289.195 276.735,287.922 C277.534,287.655 278.35,287.588 279.179,287.72 C278.945,287.7 278.252,287.608 277.822,287.675 C277.661,287.701 277.497,287.714 277.335,287.729 C273.88,288.051 269.552,292.578 272.251,295.99 C272.886,296.793 273.654,297.225 274.652,297.487 C277.995,298.365 282.633,294.429 282.135,290.932 C281.85,288.926 280.697,287.97 278.907,287.297 C276.463,286.38 273.482,285.026 270.801,285.228 C268.118,285.429 264.247,289.321 266.641,291.987 L266.641,291.987 Z" id="Shape"></path>
                    <path d="M41.212,460.495 C42.801,455.261 41.704,449.415 43.272,443.997 C45.03,437.923 49.481,432.672 53.986,428.431 C63.302,419.66 75.568,415.413 88.299,416.013 C100.877,416.605 111.183,422.185 118.442,432.31 C123.287,439.069 129.971,449.5 127.358,458.14 C126.239,461.839 130.936,463.41 133.511,461.577 C145.107,453.318 134.991,436.368 129.343,427.422 C120.844,413.96 107.653,406.676 91.673,406.152 C75.027,405.607 59.64,411.836 47.68,423.365 C41.964,428.874 37.122,435.853 34.793,443.492 C33.14,448.91 31.555,459.21 37.727,462.521 C39.202,463.312 40.811,461.817 41.212,460.495 L41.212,460.495 Z" id="Shape"></path>
                    <path d="M110.975,366.952 C111.218,361.932 106.073,358.344 101.868,356.886 C97.837,355.488 93.467,357.253 90.359,359.824 C83.316,365.652 81.856,376.553 81.192,385.042 C80.54,393.371 80.739,402.78 83.692,410.703 C84.662,413.307 86.507,416.165 89.514,416.544 C94.31,417.148 99.205,412.876 100.18,408.337 C100.526,406.722 100.012,405.159 98.569,404.289 C96.434,403.001 93.727,404.444 92.091,405.845 C91.388,406.449 90.82,407.173 90.249,407.894 C90.913,407.056 91.113,406.91 92.261,406.511 C93.077,406.228 94.603,406.493 94.684,406.532 C94.549,406.467 95.315,407.256 94.538,406.274 C94.122,405.749 94.934,407.109 94.34,405.926 C94.047,405.346 93.824,404.731 93.608,404.118 C91.549,398.303 91.418,390.913 91.632,384.33 C91.746,380.833 92.206,377.384 92.852,373.947 C93.09,372.681 93.761,370.108 93.916,369.67 C94.369,368.393 95.406,366.476 95.386,366.504 C96.282,365.191 95.138,366.588 95.761,365.978 C96.616,365.137 96,365.732 95.594,365.907 C96.47,365.53 95.98,365.553 97.599,365.943 C101.017,366.765 103.973,370.028 107.986,370.13 C109.619,370.17 110.905,368.418 110.975,366.952 L110.975,366.952 Z" id="Shape"></path>
                    <path d="M37.496,471.512 C33.636,481.329 38.686,494.539 43.934,502.99 C49.645,512.188 57.465,519.557 66.573,525.352 C86.007,537.719 110.981,540.621 133.464,538.484 C138.387,538.016 142.979,533.011 141.562,527.978 C141.117,526.399 141.804,524.139 141.931,522.52 C142.179,519.355 138.874,518.03 136.349,518.018 C135.017,518.012 133.685,518.006 132.353,517.999 C128.503,517.98 122.992,522.859 123.853,527.033 C124.777,531.51 126.23,533.506 128.958,536.989 C133.134,542.319 140.542,535.4 141.847,531.211 C142.749,528.313 142.996,525.519 143.027,522.489 C143.099,515.22 133.105,518.207 130.555,521.884 C128.743,524.496 127.79,527.352 127.14,530.439 C131.618,528.996 136.096,527.553 140.575,526.11 C140.56,526.072 140.545,526.034 140.53,525.997 C137.488,518.327 124.558,526.703 127.274,533.552 C127.29,533.59 127.304,533.628 127.319,533.665 C129.886,540.14 138.048,534.848 140.17,531.048 C140.458,530.532 142.082,526.441 141.249,527.664 C137.092,527.462 132.936,527.261 128.777,527.059 C128.777,529.003 128.521,530.464 127.957,532.337 C132.253,530.411 136.55,528.485 140.846,526.559 C138.506,523.638 138.38,524.413 137.626,520.943 C134.9,524.478 132.176,528.013 129.451,531.549 C130.785,531.542 132.12,531.536 133.455,531.53 C131.594,530.029 129.733,528.528 127.873,527.028 C127.662,530.098 127.318,532.563 128.242,535.57 C130.941,532.068 133.64,528.566 136.34,525.064 C115.711,527.46 94.294,525.186 75.828,515.186 C67.445,510.647 60.303,504.547 54.586,496.917 C51.529,492.839 49.02,488.446 46.868,483.834 C44.869,479.549 43.678,474.004 40.218,470.619 C39.372,469.793 37.877,470.542 37.496,471.512 L37.496,471.512 Z" id="Shape"></path>
                    <path d="M41.67,535.109 C41.391,535.493 41.153,535.886 40.921,536.299 C41.312,535.883 41.701,535.467 42.092,535.051 C39.106,536.574 39.045,541.221 39.811,544.012 C40.395,546.144 42.346,547.766 44.429,548.287 C48.159,549.22 51.536,545.627 51.788,542.189 C51.984,539.521 49.51,537.056 47.759,535.387 C44.502,532.284 39.23,536.443 39.298,540.248 C39.319,541.427 39.75,542.661 40.113,543.778 C40.328,544.437 40.599,545.083 40.832,545.736 C40.912,545.965 40.988,546.194 41.061,546.426 C41.382,547.428 40.997,545.594 41.044,546.328 C41.218,548.989 43.867,549.916 46.141,549.189 C48.745,548.356 50.696,545.956 50.757,543.214 C50.767,542.804 50.779,542.395 50.796,541.985 C50.807,541.729 50.925,539.963 50.857,540.754 C50.92,540.012 51.024,539.275 51.151,538.54 C51.202,538.266 51.26,537.993 51.328,537.722 C51.618,536.466 50.913,538.615 51.382,537.607 C52.771,534.62 51.165,532.013 47.933,531.963 C46.936,531.947 45.939,531.943 44.944,531.907 C42.054,531.801 39.691,534.716 38.944,537.172 C38.062,540.073 38.915,544.081 41.748,545.647 C43.208,546.455 45.385,546.165 46.73,545.244 C47.689,544.588 48.31,544.164 49.025,543.23 C49.97,541.994 50.827,539.887 50.072,538.342 C49.687,537.554 49.177,536.961 48.677,536.271 C48.949,536.718 48.976,536.701 48.753,536.22 C48.868,536.513 48.615,537.435 48.859,536.369 C46.859,538.124 44.859,539.879 42.859,541.634 C43.862,541.598 44.867,541.594 45.871,541.578 C44.722,539.697 43.571,537.816 42.421,535.934 C41.026,539.17 40.97,542.853 41.045,546.327 C44.282,545.29 47.521,544.251 50.758,543.214 C50.621,541.982 50.191,540.879 49.716,539.75 C49.448,539.114 49.173,538.483 48.878,537.859 C48.693,537.468 48.274,535.876 48.504,537.295 C45.952,539.13 43.401,540.964 40.851,542.798 C41.605,543.322 41.9,543.545 42.646,544.289 C42.919,544.561 43.164,544.861 43.397,545.169 C43.839,545.755 43.058,544.384 43.41,545.263 C43.656,545.88 43.3,544.313 43.325,544.9 C43.257,543.29 44.422,541.838 45.746,541.045 C45.859,540.977 47.935,540.507 47.084,540.53 C48.295,540.497 47.655,540.557 47.263,540.455 C48.616,540.807 46.378,539.759 47.223,540.433 C46.731,540.041 46.295,539.534 45.928,539.027 C46.287,539.523 45.733,538.61 45.672,538.469 C45.511,538.095 45.412,537.698 45.303,537.307 C45.055,536.43 44.996,535.267 44.012,534.894 C44.235,535.26 44.457,535.627 44.68,535.993 C44.627,535.617 44.553,535.251 44.466,534.882 C44.143,533.514 42.157,534.444 41.67,535.109 L41.67,535.109 Z" id="Shape"></path>
                    <path d="M44.646,543.752 C51.845,549.67 61.458,546.276 69.16,543.552 C72.016,542.541 75.174,539.209 73.912,535.918 C72.548,532.356 68.214,533.863 66.027,535.498 C60.96,539.286 53.339,538.512 47.455,539.188 C45.939,539.364 42.679,542.136 44.646,543.752 L44.646,543.752 Z" id="Shape"></path>
                    <path d="M101.354,516.815 C104.929,519.529 111.684,515.528 114.794,513.627 C120,510.446 124.359,505.606 127.952,500.742 C131.454,496.001 134.115,490.693 135.778,485.045 C136.856,481.383 137.813,474.554 134.465,471.731 C133.224,470.685 131.64,470.21 130.044,470.865 C125.059,472.914 125.455,476.303 126.142,480.757 C126.78,484.901 124.85,489.205 123.067,492.816 C120.789,497.427 117.487,501.623 113.748,505.13 C110.085,508.566 105.234,510.081 101.624,513.32 C100.561,514.275 100.087,515.853 101.354,516.815 L101.354,516.815 Z" id="Shape"></path>
                    <path d="M401.862,461.505 C394.455,458.834 384.792,459.149 377.199,460.945 C367.865,463.155 361.48,470.981 358.122,479.557 C354.426,488.999 354.947,498.607 360.598,507.101 C366.071,515.328 376.686,519.552 386.159,520.413 C404.742,522.101 420.765,508.841 423.527,490.501 C424.724,482.564 422.819,474.359 417.341,468.365 C411.738,462.233 397.441,456.347 390.683,463.245 C388.967,464.996 387.906,467.592 390.213,469.322 C392.568,471.089 396.904,470.798 399.776,471.455 C403.099,472.217 405.988,473.797 408.412,476.202 C412.286,480.044 413.394,485.421 413.155,490.687 C412.572,503.523 401.701,511.121 389.63,510.153 C382.499,509.582 375.67,506.531 370.777,501.297 C365.088,495.21 364.788,487.623 366.988,479.972 C371.552,464.104 388.601,467.767 400.974,464.092 C401.737,463.866 403.221,461.995 401.862,461.505 L401.862,461.505 Z" id="Shape"></path>
                    <path d="M390.437,484.839 C390.912,482.447 387.602,481.731 386.026,481.805 C383.955,481.905 382.073,482.779 380.468,484.065 C376.776,487.024 375.527,492.08 376.393,496.604 C377.182,500.735 379.993,504.15 384.418,504.455 C388.958,504.768 393.884,502.505 397.1,499.331 C402.194,494.305 402.087,486.304 395.275,482.911 C387.609,479.093 379.997,485.716 378.663,493.198 C378.252,495.507 379.27,497.203 381.507,497.853 C385.243,498.939 388.909,498.269 391.999,495.935 C394.258,494.228 395.295,490.299 392.568,488.568 C390.628,487.336 388.4,488.296 386.296,487.695 C387.243,489.247 388.192,490.799 389.14,492.35 C389.234,491.807 389.347,491.283 389.491,490.751 C389.139,492.047 390.179,489.693 389.192,491.298 C389.9,490.147 388.158,492.191 389.091,491.341 C387.896,492.428 389.287,491.512 387.881,492.048 C388.941,491.644 386.656,492.18 387.782,492.082 C388.889,491.985 386.679,491.937 387.788,492.109 C388.06,492.151 389.058,492.516 387.916,492.085 C388.231,492.204 388.528,492.368 388.822,492.53 C389.035,492.647 389.917,493.327 388.992,492.571 C389.252,492.784 389.481,493.031 389.708,493.277 C389.878,493.461 390.491,494.381 389.857,493.326 C390.023,493.602 390.141,493.902 390.256,494.202 C390.639,495.199 390.159,493.196 390.266,494.254 C390.375,495.328 390.483,493.17 390.264,494.25 C390.564,492.766 389.906,494.6 390.747,493.275 C390.031,494.402 391.783,492.363 390.7,493.359 C389.581,494.389 391.778,492.732 390.306,493.604 C390.53,493.471 388.531,494.614 389.229,494.315 C389.216,494.32 387.513,494.694 388.308,494.593 C387.11,494.744 388.642,494.729 387.542,494.488 C388.241,494.641 386.948,494.047 387.449,494.453 C387.059,494.137 386.762,493.721 386.47,493.319 C386.12,492.839 385.808,491.737 385.699,490.95 C385.552,489.892 385.626,489.212 385.948,488.595 C385.759,488.958 385.615,489.184 385.259,489.415 C385.237,489.43 386.497,488.734 385.824,489.029 C387.965,488.092 389.893,487.583 390.437,484.839 L390.437,484.839 Z" id="Shape"></path>
                    <path d="M380.718,373.448 C384.674,381.234 388.767,387.343 389.975,396.236 C390.954,403.44 390.809,410.433 390.186,417.645 C389.528,425.267 388.377,432.876 386.891,440.379 C385.739,446.185 383.504,451.309 381.84,456.876 C380.354,461.845 387.184,462.384 389.755,459.697 C394.417,454.826 395.695,447.15 396.888,440.74 C398.418,432.514 399.111,424.13 399.43,415.776 C399.976,401.484 398.819,376.976 382.455,371.595 C381.607,371.317 380.282,372.588 380.718,373.448 L380.718,373.448 Z" id="Shape"></path>
                    <path d="M344.547,357.528 C345.195,365.923 349.473,374.251 352.503,382.001 C355.784,390.392 358.921,398.778 361.026,407.553 C363.002,404.99 364.977,402.427 366.953,399.864 C357.025,401.654 347.051,401.654 337,401.646 C332.68,401.642 329.139,407.007 331.426,410.702 C331.461,410.758 331.495,410.814 331.53,410.87 C333.842,414.603 339.596,410.249 340.785,407.835 C341.852,405.666 341.92,403.372 340.332,401.466 C338.79,399.615 335.998,400.722 334.491,401.94 C333.081,403.078 332.025,404.427 331.225,406.052 C334.31,405.04 337.395,404.029 340.479,403.017 C340.445,402.961 340.411,402.905 340.375,402.849 C338.518,405.868 336.659,408.887 334.801,411.905 C344.876,411.892 354.934,411.623 364.848,409.687 C368.371,408.999 371.877,405.926 370.775,401.998 C368.364,393.404 364.854,385.188 361.073,377.119 C357.659,369.835 354.229,361.132 348.874,355.045 C347.364,353.326 344.405,355.677 344.547,357.528 L344.547,357.528 Z" id="Shape"></path>
                    <path d="M332.577,404.058 C329.595,408.398 329.33,413.2 330.149,418.336 C330.634,421.384 331.399,424.386 332.174,427.369 C332.766,429.642 334.25,432.957 333.897,435.334 C332.69,443.454 346.501,438.764 343.705,432.174 C341.905,427.931 340.86,423.076 339.39,418.679 C337.825,413.998 336.313,409.114 335.667,404.207 C335.443,402.513 333.307,402.996 332.577,404.058 L332.577,404.058 Z" id="Shape"></path>
                    <path d="M251.497,496.331 C254.89,494.63 257.601,491.888 260.537,489.526 C263.849,486.862 267.294,484.318 270.78,481.89 C277.731,477.047 285.071,472.75 292.424,468.552 C307.173,460.13 322.376,452.438 336.505,442.968 C340.741,440.129 341.65,432.035 334.642,433.985 C331.933,434.739 329.665,435.983 327.811,438.104 C326.765,439.3 326.288,441.521 327.449,442.804 C329.337,444.889 331.386,443.989 333.818,443.833 C333.219,441.053 332.621,438.271 332.021,435.491 C317.749,445.832 301.96,453.867 286.858,462.894 C279.654,467.201 272.673,471.849 265.984,476.918 C260.084,481.39 251.945,487.329 249.152,494.446 C248.467,496.19 249.975,497.094 251.497,496.331 L251.497,496.331 Z" id="Shape"></path>
                    <path d="M143.057,352.43 C138.541,360.174 136.383,369.924 133.481,378.393 C131.995,382.725 124.453,398.062 130.633,401.173 C133.266,402.498 136.311,400.385 137.486,398.059 C136.731,399.555 138.575,395.655 138.705,394.998 C139.011,393.455 139.186,391.884 139.51,390.338 C140.472,385.735 141.761,381.196 142.967,376.653 C144.274,371.729 145.601,366.82 146.685,361.841 C147.37,358.695 148.205,354.658 146.866,351.653 C146.027,349.772 143.733,351.27 143.057,352.43 L143.057,352.43 Z" id="Shape"></path>
                    <path d="M129.751,400.66 C133.549,403.754 140.896,403.289 145.568,404.068 C151.455,405.05 158.714,406.6 162.513,411.624 C165.975,416.201 175.207,408.292 171.286,403.925 C166.481,398.573 159.181,396.762 152.325,395.743 C146.041,394.808 136.929,393.549 131.118,396.731 C130.096,397.292 128.394,399.554 129.751,400.66 L129.751,400.66 Z" id="Shape"></path>
                    <path d="M163.028,407.926 C160.829,416.494 158.399,424.804 157.053,433.605 C156.248,438.872 153.579,449.857 159.627,453.095 C163.583,455.214 170.638,448.867 167.04,445.141 C164.494,442.503 166.512,432.085 166.857,428.163 C167.5,420.887 168.587,413.874 166.724,406.734 C166.18,404.647 163.329,406.751 163.028,407.926 L163.028,407.926 Z" id="Shape"></path>
                    <path d="M157.297,448.18 C160.047,451.194 163.865,453.39 167.137,455.818 C171.36,458.95 175.92,461.702 180.371,464.494 C187.125,468.731 194.029,472.43 201.245,475.818 C214.75,482.16 231.695,487.789 241.413,499.713 C243.707,496.705 246.002,493.697 248.297,490.69 C245.049,490.481 241.951,489.353 238.71,489.999 C236.235,490.491 233.004,492.967 234.152,495.912 C235.666,499.793 239.673,500.628 243.504,500.86 C247.534,501.104 253.943,496.162 250.388,491.837 C240.292,479.555 223.418,473.615 209.325,467.391 C202.108,464.203 195.16,460.675 188.246,456.887 C179.41,452.047 169.745,445.131 159.295,444.938 C157.966,444.912 156.195,446.972 157.297,448.18 L157.297,448.18 Z" id="Shape"></path>
                </g>
            </g>
        </g>
    </g>
</svg>