<?xml version="1.0" encoding="UTF-8"?>
<svg width="365px" height="524px" viewBox="0 0 365 524" version="1.1" xmlns="http://www.w3.org/2000/svg" xmlns:xlink="http://www.w3.org/1999/xlink">
    <!-- Generator: Sketch 41 (35326) - http://www.bohemiancoding.com/sketch -->
    <title>dog</title>
    <desc>Created with Sketch.</desc>
    <defs></defs>
    <g id="Page-1" stroke="none" stroke-width="1" fill="none" fill-rule="evenodd">
        <g id="Layer_1" transform="translate(-1176.000000, -3392.000000)" fill="#010101">
            <g id="Layer_1_3_">
                <g id="dog" transform="translate(1176.000000, 3392.000000)">
                    <path d="M199.417,7.296 C183.409,0.13 167.346,13.615 157.126,24.724 C143.99,39.001 134.353,56.631 126.209,74.116 C106.959,115.449 101.939,165.919 124.825,206.925 C136.23,227.362 153.945,243.97 175.906,252.386 C196.515,260.283 219.302,260.746 240.456,254.765 C261.732,248.745 282.262,234.798 294.252,216.037 C306.641,196.653 307.927,172.699 305.196,150.455 C301.864,123.297 293.159,95.225 281.209,70.611 C268.735,44.921 246.679,22.15 218.521,14.548 C214.196,13.38 207.833,21.197 212.884,23.809 C223.352,29.222 233.983,34.413 243.134,41.946 C251.981,49.228 259.281,58.192 265.301,67.902 C271.287,77.557 275.377,88.277 279.312,98.886 C283.269,109.555 286.775,120.388 289.62,131.407 C295.347,153.578 298.454,177.9 291.479,200.14 C284.877,221.188 265.011,236.402 244.975,243.686 C224.177,251.248 200.661,250.694 180.115,242.6 C157.638,233.746 140.073,215.735 129.692,194.143 C109.509,152.162 118.739,103.926 138.927,63.989 C145.613,50.765 153.343,37.842 163.2,26.72 C171.965,16.832 183.205,9.354 196.91,11.412 C198.728,11.685 201.832,8.377 199.417,7.296 L199.417,7.296 Z" id="Shape"></path>
                    <path d="M175.757,99.365 C172.358,104.003 168.833,108.928 169.397,115.008 C169.787,119.194 172.67,122.212 176.706,123.103 C181.727,124.212 186.669,121.223 189.913,117.665 C193.814,113.386 195.018,107.363 194.594,101.739 C194.095,95.144 190.974,87.313 182.883,89.69 C175.578,91.836 170.942,99.606 169.472,106.658 C168.25,112.519 168.164,119.709 174.749,121.97 C180.272,123.866 186.603,118.053 189.532,114.126 C192.926,109.572 194.738,103.667 194.258,97.999 C194.061,95.674 192.691,94.429 190.56,93.785 C183.544,91.668 177.131,94.348 173.405,100.589 C171.066,104.504 171.833,109.966 173.364,113.999 C175.136,118.669 178.756,121.993 184.024,120.522 C191.745,118.368 192.556,109.477 192.295,102.909 C192.014,95.856 182.443,98.294 179.825,102.304 C176.178,107.888 173.948,114.98 178.843,120.429 C181.467,123.349 185.535,120.179 186.987,117.758 C188.167,115.787 189.036,114.076 189.719,111.872 C190.063,110.763 189.904,109.082 190.516,108.083 C186.36,107.881 182.203,107.679 178.046,107.477 C178.117,108.456 178.17,109.433 178.192,110.415 C178.199,110.822 178.197,111.23 178.186,111.64 C178.158,113.466 178.369,110.385 178.175,111.939 C178.095,112.587 177.491,114.232 178.343,111.923 C179.042,110.029 183.016,107.119 186.158,107.601 C187.623,107.825 186.832,107.637 187.835,108.488 C187.497,108.201 187.222,107.84 186.958,107.486 C186.023,106.235 187.447,108.42 186.931,107.461 C186.654,106.943 186.426,106.4 186.214,105.855 C186.037,105.397 185.898,104.925 185.764,104.453 C185.61,103.828 185.632,103.975 185.829,104.895 C185.755,104.535 185.71,104.169 185.665,103.804 C185.607,103.33 185.601,102.855 185.603,102.379 C185.582,104.863 186.232,100.714 185.301,103.424 C185.857,101.804 184.404,104.582 185.081,103.718 C184.521,104.483 183.829,105.098 183.002,105.562 C184.076,104.843 181.218,106.188 182.538,105.802 C180.113,106.51 183.55,106.061 181.751,105.93 C182.705,105.999 183.643,106.25 184.56,106.506 C183.329,105.102 182.095,103.696 180.863,102.293 C181.102,104.564 181.048,104.951 180.456,107.124 C180.79,105.896 180.016,108.098 179.893,108.353 C179.717,108.706 179.532,109.054 179.335,109.396 C180.148,107.928 179.228,109.47 179.046,109.717 C177.793,111.422 179.473,109.412 178.625,110.203 C177.997,110.72 178.153,110.633 179.094,109.942 C178.668,110.244 177.39,110.744 179.277,109.978 C178.172,110.428 181.409,110.082 180.424,109.922 C181.38,110.077 181.287,110.096 181.614,110.714 C180.6,108.801 181.457,103.277 182.915,101.017 C183.177,100.629 183.457,100.255 183.756,99.894 C183.314,100.34 183.371,100.302 183.928,99.779 C184.759,99.029 183.372,100.058 182.537,99.987 C182.212,99.961 182.53,99.996 182.899,100.432 C183.549,101.198 183.747,102.553 183.906,103.508 C184.226,105.432 184.493,107.416 184.232,109.362 C184.128,110.142 183.923,110.904 183.701,111.657 C183.909,110.953 182.547,113.586 183.272,112.481 C183.09,112.745 182.898,113.001 182.695,113.248 C183.2,112.741 183.222,112.713 182.763,113.162 C181.603,114.287 183.212,113.052 181.849,113.802 C182.995,113.172 181.55,113.88 181.215,113.974 C180.676,114.109 180.705,114.119 181.301,114.004 C180.921,114.079 180.532,114.102 180.147,114.123 C181.078,114.072 179.675,114.046 179.42,113.993 C179.115,113.93 179.165,113.939 178.379,113.496 C177.969,113.266 177.3,112.494 176.948,111.662 C175.537,108.329 177.367,103.398 178.914,100.466 C180.122,98.192 176.892,97.816 175.757,99.365 L175.757,99.365 Z" id="Shape"></path>
                    <path d="M220.821,98.966 C217.917,105.281 217.692,113.003 219.295,119.673 C221.271,127.898 230.544,130.582 236.124,123.932 C244.309,114.181 238.966,90.094 224.611,89.197 C220.95,88.968 216.169,91.466 215.747,95.591 C214.643,106.363 215.893,122.071 229.142,124.284 C233.755,125.055 237.559,121.335 238.864,117.275 C241.616,108.713 238.677,98.386 230.513,93.946 C225.671,91.313 220.105,96.269 218.875,100.709 C216.696,108.579 217.127,123.179 226.311,126.63 C229.689,127.9 234.525,125.48 234.957,121.606 C235.822,113.858 230.714,107.467 232.756,99.585 C228.877,101.839 224.997,104.093 221.118,106.347 C225.509,108.625 226.773,113.847 225.519,118.358 C228.759,116.022 231.999,113.685 235.24,111.349 C227.633,110.417 227.697,98.851 228.041,93.108 C225.544,95.761 223.048,98.414 220.552,101.067 C227.589,100.392 229.223,114.14 228.201,118.841 C227.984,119.836 229.943,117.642 230.091,117.702 C228.089,116.853 227.193,114.112 226.527,112.261 C225.131,108.372 224.175,103.302 224.605,99.145 C224.874,96.537 221.616,97.238 220.821,98.966 L220.821,98.966 Z" id="Shape"></path>
                    <path d="M165.039,155.245 C173.037,140.387 196.886,140.54 211.363,140.204 C219.004,140.027 226.646,140.373 234.224,141.371 C241.396,142.316 250.134,144.898 253.904,151.709 C260.695,163.984 249.057,178.22 239.883,185.318 C227.623,194.803 212.912,194.215 198.617,190.672 C190.136,188.569 181.083,185.083 174.525,179.144 C171.624,176.516 169.563,173.49 168.446,169.739 C167.283,165.835 168.882,161.888 167.799,157.911 C166.877,154.523 161.767,155.671 160.019,157.498 C153.724,164.078 153.475,173.666 157.819,181.515 C161.775,188.661 168.663,193.533 175.872,197.048 C189.768,203.824 207.827,207.182 223.093,203.93 C239.725,200.387 254.234,188.441 262.296,173.669 C269.295,160.845 268.827,144.947 255.407,136.808 C247.827,132.21 238.462,131.626 229.837,131.238 C220.907,130.837 211.912,131.16 203.051,132.324 C193.532,133.574 184.082,135.418 175.29,139.387 C168.809,142.313 161.649,147.555 160.468,155.034 C159.952,158.294 164.03,157.118 165.039,155.245 L165.039,155.245 Z" id="Shape"></path>
                    <path d="M200.019,149.559 C191.809,147.46 169.255,148.308 173.109,162.239 C176.265,173.648 190.056,173.733 199.224,170.792 C206.441,168.476 219.032,162.148 219.13,153.121 C219.179,148.633 214.63,146.944 210.899,146.517 C202.852,145.598 193.488,147.509 186.851,152.141 C185.584,153.025 184.143,155.631 186.518,156.209 C192.289,157.613 198.553,156.157 204.414,155.818 C205.991,155.727 207.504,155.794 209.048,156.138 C209.678,156.279 210.127,156.958 209.878,156.429 C209.811,156.286 210.113,155.513 209.684,156.386 C209.404,156.957 210.076,155.884 209.252,156.878 C208.881,157.298 208.888,157.295 209.272,156.867 C208.952,157.198 208.607,157.506 208.265,157.814 C206.131,159.737 203.576,161.255 200.494,162.538 C194.882,164.873 187.119,166.527 182.27,161.76 C178.159,157.716 180.135,155.894 184.75,154.281 C189.243,152.711 194.521,151.865 199.282,151.717 C200.28,151.683 201.359,149.901 200.019,149.559 L200.019,149.559 Z" id="Shape"></path>
                    <path d="M169.448,217.435 C173.508,229.885 186.151,232.283 197.843,230.432 C204.384,229.397 209.997,227.885 213.796,222.068 C217.376,216.585 217.78,209.679 217.89,203.321 C217.997,197.19 208.326,201.434 208.239,206.416 C208.219,207.519 208.48,208.605 209.042,209.546 C211.013,212.847 215.5,210.919 216.843,207.957 C217.525,206.455 217.921,204.98 217.892,203.32 C217.786,197.15 208.152,201.41 208.241,206.415 C208.31,210.396 208.331,214.537 206.871,218.307 C205.325,222.298 199.081,222.754 195.378,223.405 C185.815,225.084 178.429,221.355 170.437,216.571 C169.952,216.282 169.29,216.951 169.448,217.435 L169.448,217.435 Z" id="Shape"></path>
                    <path d="M212.245,215.684 C211.448,226.262 220.778,230.994 230.181,231.288 C240.203,231.602 251.563,227.059 258.895,220.288 C264.1,215.48 258.711,209.302 253.305,213.918 C251.409,215.538 249.867,217.282 249.522,219.837 C249.407,220.696 249.565,221.468 250.362,221.943 C252.292,223.098 254.385,222.526 256.352,221.749 C255.336,219.139 254.321,216.527 253.305,213.917 C247.871,218.401 241.341,221.219 234.325,222.031 C226.296,222.963 219.836,219.735 213.753,214.816 C213.107,214.299 212.296,214.984 212.245,215.684 L212.245,215.684 Z" id="Shape"></path>
                    <path d="M150.51,32.614 C145.19,32.938 139.245,30.313 134.532,28.179 C129.35,25.833 124.716,22.991 120.681,18.959 C114.673,12.953 109.535,3.355 100.676,1.143 C91.419,-1.169 81.667,5.434 74.399,10.399 C65.044,16.791 56.375,24.679 50.087,34.163 C44.206,43.035 42.183,52.209 44.51,62.607 C46.309,70.65 52.894,75.514 61.052,74.86 C69.569,74.178 77.668,69.045 84.415,64.19 C89.002,60.889 93.45,57.424 97.903,53.947 C103.919,49.25 110.549,50.239 117.654,51.224 C126.077,52.392 134.685,52.517 141.96,47.484 C143.704,46.277 145.326,44.569 145.204,42.272 C145.071,39.77 142.456,38.752 140.308,39.524 C134.01,41.788 128.882,42.348 122.249,41.474 C115.978,40.649 109.972,39.967 103.731,41.339 C97.95,42.61 93.058,46.954 88.585,50.553 C84.771,53.62 80.769,56.591 76.673,59.282 C71.784,62.494 63.545,67.738 57.601,64.415 C53.986,62.393 53.154,56.852 52.734,53.218 C52.189,48.504 53.63,44.234 55.749,40.083 C60.593,30.595 69.629,22.837 78.268,16.898 C85.337,12.038 94.08,5.715 101.965,12.257 C109.278,18.322 113.999,26.667 122.488,31.445 C130.378,35.886 142.093,41.182 150.704,36.085 C152.053,35.288 152.878,32.47 150.51,32.614 L150.51,32.614 Z" id="Shape"></path>
                    <path d="M241.812,32.123 C253.08,36.74 266.746,34.84 277.105,28.908 C282.275,25.948 286.97,22.197 291.861,18.812 C296.467,15.623 302.081,11.698 307.965,12.286 C313.225,12.811 318.194,16.837 322.246,19.911 C326.786,23.356 331.248,26.896 335.797,30.33 C346.105,38.111 354.332,48.933 354.526,62.257 C355.726,60.328 356.925,58.402 358.126,56.474 C338.212,67.923 308.743,54.602 299.397,35.004 C298.18,32.453 294.967,32.223 292.742,33.666 C279.24,42.422 262.967,38.105 248.004,37.29 C245.416,37.148 240.882,41.229 244.363,43.271 C259.322,52.048 281.44,51.494 295.966,42.091 C293.747,41.645 291.529,41.198 289.311,40.753 C301.245,65.842 336.669,79.294 361.284,64.72 C363.305,63.522 364.96,61.384 364.883,58.937 C364.444,45.134 356.815,33.992 346.503,25.356 C342.145,21.706 337.312,18.686 332.756,15.295 C327.702,11.533 322.543,7.591 316.499,5.577 C304.673,1.639 294.127,9.367 285.053,16.104 C279.756,20.037 274.52,24.334 268.365,26.866 C260.619,30.053 251.031,30.087 242.785,30.074 C241.999,30.076 240.719,31.673 241.812,32.123 L241.812,32.123 Z" id="Shape"></path>
                    <path d="M155.225,240.027 C154.266,250.687 155.193,261.189 152.174,271.605 C149.198,281.87 141.751,290.691 134.587,298.329 C125.691,307.811 117.104,317.045 109.964,327.98 C102.867,338.849 97.158,350.545 92.785,362.759 C84.041,387.186 82.557,412.321 81.524,437.994 C80.501,463.435 81.154,490.084 94.977,512.348 C98.445,517.932 107.319,509.521 105.873,504.57 C104.599,500.204 102.633,497.123 99.609,493.773 C97.227,491.136 92.255,494.2 91.943,497.211 C91.396,502.485 92.825,506.213 94.274,511.183 C97.907,508.59 101.539,505.996 105.17,503.405 C91.565,481.634 92.701,454.183 93.588,429.535 C94.499,404.208 96.695,379.746 106.055,355.925 C110.645,344.241 116.777,333.286 124.163,323.152 C131.629,312.908 141.038,304.39 148.814,294.413 C160.903,278.904 166.478,257.724 158.873,238.853 C158.156,237.065 155.356,238.567 155.225,240.027 L155.225,240.027 Z" id="Shape"></path>
                    <path d="M268.197,235.713 C261.393,253.014 258.709,274.434 262.968,292.651 C265.681,304.255 272.112,314.232 278.164,324.306 C284.581,334.986 289.755,346.346 293.879,358.094 C302.012,381.265 305.29,405.74 304.897,430.238 C304.69,443.118 303.26,455.936 300.92,468.596 C298.455,481.934 294.306,494.94 292.238,508.349 C295.848,506.731 299.459,505.113 303.068,503.494 C301.515,502.025 299.969,500.937 298.227,499.716 C295.021,497.466 289.99,502.118 290.318,505.403 C290.601,508.244 291.143,510.129 293.081,512.261 C296.576,516.113 303.217,511.54 303.91,507.406 C306.05,494.662 309.473,482.182 311.559,469.434 C313.597,456.993 315.084,444.525 315.59,431.919 C316.579,407.274 313.462,382.324 305.96,358.814 C302.368,347.559 297.478,336.717 291.753,326.396 C285.774,315.62 278.099,305.979 273.256,294.572 C269.466,285.643 268.026,276.383 268.224,266.725 C268.438,256.327 271.154,245.952 270.054,235.564 C269.94,234.479 268.476,235 268.197,235.713 L268.197,235.713 Z" id="Shape"></path>
                    <path d="M139.322,486.474 C145.071,487.394 150.805,487.297 156.518,488.684 C160.927,489.754 165.113,491.677 168.906,494.15 C177.125,499.509 184.093,506.822 191.838,512.831 C199.797,519.005 210.408,521.143 220.185,519.234 C231.467,517.033 240.102,509.924 246.843,500.915 C248.24,499.048 248.88,495.824 246.405,494.482 C243.407,492.859 239.938,495.483 238.579,498.04 C234.068,506.507 225.011,511.249 215.676,511.939 C204.776,512.747 196.421,507.26 188.017,501.099 C181.377,496.231 175.009,490.988 167.494,487.495 C159.504,483.781 149.143,482.105 140.423,483.263 C139.099,483.437 137.182,486.131 139.322,486.474 L139.322,486.474 Z" id="Shape"></path>
                    <path d="M244.727,498.067 C243.146,514.022 261.268,521.422 274.416,520.485 C282.062,519.939 289.774,516.546 295.182,511.102 C298.591,507.67 307.978,493.437 300.135,490.155 C298.832,489.61 297.406,489.997 296.372,490.938 C292.131,494.809 292.958,501.17 288.967,505.304 C285.45,508.947 280.476,510.535 275.562,511.104 C270.252,511.718 264.546,510.729 259.755,508.37 C254.495,505.779 252.038,501.497 249.359,496.574 C248.236,494.512 244.928,496.042 244.727,498.067 L244.727,498.067 Z" id="Shape"></path>
                    <path d="M204.129,393.18 C206.875,411.119 226.022,423.021 243.27,423.826 C252.504,424.257 261.624,421.944 269.401,416.904 C273.673,414.135 277.32,410.616 280.511,406.669 C283.486,402.992 287.416,397.206 285.84,392.302 C285.187,390.268 282.629,391.242 281.487,392.071 C278.145,394.491 276.191,398.42 273.816,401.729 C271.571,404.857 268.731,407.544 265.507,409.641 C259.292,413.683 251.731,415.253 244.39,414.725 C227.977,413.544 216.533,403.761 205.867,392.183 C205.273,391.538 204.01,392.407 204.129,393.18 L204.129,393.18 Z" id="Shape"></path>
                    <path d="M243.945,421.667 C241.421,425.999 242.021,432.878 242.007,437.718 C241.986,445.857 241.831,453.999 241.877,462.139 C241.918,469.479 241.868,476.833 241.4,484.16 C241.237,486.742 240.935,489.326 240.428,491.864 C239.977,494.127 239.557,493.643 239.328,495.93 C239.122,497.999 240.247,500.253 242.742,499.821 C248.98,498.736 250.048,492.434 250.506,487.154 C251.178,479.403 251.011,471.59 250.794,463.821 C250.557,455.354 249.865,446.915 249.208,438.472 C248.927,434.864 248.807,431.136 248.104,427.579 C247.666,425.354 247.679,422.714 246.126,420.948 C245.438,420.162 244.324,421.018 243.945,421.667 L243.945,421.667 Z" id="Shape"></path>
                    <path d="M97.297,508.125 C97.407,512.82 102.604,516.342 106.428,518.232 C111.879,520.929 118.026,522.127 123.986,523.048 C134.174,524.624 144.81,524.321 154.276,519.923 C163.931,515.438 170.699,503.06 165.064,493.068 C159.909,483.922 143.511,479.771 136.221,488.334 C135.074,489.684 134.743,492.236 136.554,493.204 C139.809,494.946 143.313,493.433 146.808,493.758 C150.781,494.127 154.168,495.978 156.535,499.157 C162.292,506.897 152.518,513.198 146.382,514.977 C138.976,517.123 130.813,516.599 123.248,515.807 C118.409,515.3 113.536,514.434 108.987,512.671 C105.241,511.219 102.139,508.357 98.424,507.137 C97.881,506.961 97.286,507.633 97.297,508.125 L97.297,508.125 Z" id="Shape"></path>
                    <path d="M83.808,479.32 C78.449,478.081 72.875,475.812 67.685,473.903 C61.849,471.757 56.224,468.896 50.888,465.719 C40.209,459.361 30.962,450.658 23.887,440.459 C14.68,427.187 11.735,410.76 10.458,394.967 C9.171,379.039 9.642,361.677 16.287,346.876 C18.96,340.922 22.954,335.79 28.742,332.644 C33.955,329.81 42.319,328.326 47.664,331.443 C56.234,336.442 52.682,353.587 51.417,361.16 C49.349,373.551 45.545,385.574 43.431,397.947 C40.99,412.241 42.229,428.188 46.762,441.929 C52.255,458.58 65.056,470.025 81.685,474.947 C87.031,476.528 93.097,466.759 86.464,464.806 C64.222,458.265 54.752,438.386 53.23,416.637 C52.06,399.911 56.596,385.088 60.101,368.665 C62.815,355.941 67.858,335.429 57.563,324.683 C47.061,313.721 26.102,321.968 17.084,330.805 C6.784,340.899 2.574,355.576 0.96,369.519 C-0.79,384.633 0.277,400.045 3.348,414.918 C6.678,431.053 13.396,445.065 25.014,457.03 C32.749,464.996 42.155,471.244 52.176,475.94 C56.786,478.1 61.681,479.666 66.58,481.019 C72.043,482.53 77.143,482.388 82.738,482.45 C84.201,482.469 85.742,479.768 83.808,479.32 L83.808,479.32 Z" id="Shape"></path>
                    <path d="M116.982,119.835 C127.641,135.101 151.732,136.57 168.406,133.731 C185.145,130.879 201.179,120.018 204.333,102.398 C209.976,70.853 168.565,33.826 138.579,49.579 C137.039,50.389 137.1,52.802 139.155,52.358 C154.278,49.097 168.815,52.9 180.795,62.645 C191.978,71.744 200.611,85.729 199.886,100.516 C199.034,117.859 182.261,127.392 166.933,129.822 C151.289,132.302 130.506,130.329 119.167,117.919 C118.176,116.835 116.165,118.666 116.982,119.835 L116.982,119.835 Z" id="Shape"></path>
                    <path d="M264.871,515.826 C265.934,515.826 266.654,513.929 265.277,513.929 C264.216,513.928 263.494,515.826 264.871,515.826 L264.871,515.826 Z" id="Shape"></path>
                    <path d="M258.861,513.877 C259.977,513.877 260.738,511.877 259.289,511.877 C258.171,511.877 257.41,513.877 258.861,513.877 L258.861,513.877 Z" id="Shape"></path>
                    <path d="M156.764,250.414 C150.33,249.909 140.324,251.373 140.618,259.935 C140.869,267.239 150.826,272.384 156.339,275.102 C167.667,280.688 182.074,281.041 194.42,282.181 C211.603,283.766 229.081,284.581 246.284,282.876 C259.608,281.555 276.525,278.445 284.68,266.535 C286.575,263.768 288.186,260.718 288.612,257.347 C288.862,255.377 288.594,252.985 286.5,252.034 C280.87,249.483 275.146,248.999 269.53,251.836 C266.436,253.398 264.502,257.967 267.713,260.315 C270.485,262.34 274.491,262.328 277.651,263.717 C276.947,261.946 276.242,260.176 275.539,258.404 C275.424,259.389 275.279,260.368 275.054,261.335 C274.922,261.896 274.843,261.991 274.552,262.398 C273.666,263.632 272.977,264.167 271.031,265.336 C266.73,267.919 260.898,269.46 255.425,270.471 C240.511,273.225 225.07,273.215 209.965,272.67 C197.789,272.231 185.594,271.173 173.502,269.681 C167.151,268.898 161.297,266.696 155.69,263.618 C152.928,262.102 149.921,260.301 147.967,257.785 C147.067,256.628 147.32,256.916 148.295,256.315 C150.582,254.91 153.618,254.086 156.153,253.279 C157.125,252.969 158.578,250.556 156.764,250.414 L156.764,250.414 Z" id="Shape"></path>
                    <path d="M142.37,262.073 C140.278,263.882 138.831,266.559 137.725,269.065 C136.839,271.074 137.149,272.778 138.854,274.128 C162.384,292.746 195.854,294.935 224.786,292.769 C237.775,291.796 250.965,289.881 263.377,285.827 C273.507,282.517 285.228,276.633 289.297,266.04 C291.001,261.603 288.092,256.295 282.733,258.56 C279.587,259.891 276.583,261.531 275.394,264.973 C276.28,264.03 277.165,263.086 278.05,262.143 C277.665,262.362 277.281,262.581 276.898,262.8 C275.139,263.802 272.461,267.968 275.512,269.264 C275.425,268.981 275.337,268.699 275.249,268.415 C275.451,269.002 275.795,269.471 276.277,269.821 C277.445,270.839 278.486,271.137 279.965,271.478 C278.928,268.891 277.891,266.305 276.854,263.718 C276.054,265.836 276.424,265.184 274.931,266.957 C275.862,265.853 273.739,267.93 273.491,268.134 C272.754,268.739 272.957,268.546 271.638,269.352 C267.306,272.001 262.391,273.549 257.535,274.921 C246.398,278.067 234.722,279.351 223.209,280.127 C212.181,280.871 201.308,280.936 190.294,279.816 C181.315,278.903 172.486,277.02 163.89,274.29 C159.503,272.894 155.346,270.888 151.211,268.892 C147.773,267.233 145.241,266.082 144.304,262.177 C144.089,261.28 142.814,261.69 142.37,262.073 L142.37,262.073 Z" id="Shape"></path>
                </g>
            </g>
        </g>
    </g>
</svg>