<?xml version="1.0" encoding="UTF-8"?>
<svg width="309px" height="500px" viewBox="0 0 309 500" version="1.1" xmlns="http://www.w3.org/2000/svg" xmlns:xlink="http://www.w3.org/1999/xlink">
    <!-- Generator: Sketch 41 (35326) - http://www.bohemiancoding.com/sketch -->
    <title>eagle</title>
    <desc>Created with Sketch.</desc>
    <defs></defs>
    <g id="Page-1" stroke="none" stroke-width="1" fill="none" fill-rule="evenodd">
        <g id="Layer_1" transform="translate(-2288.000000, -73.000000)" fill="#010101">
            <g id="Layer_1_3_">
                <g id="eagle" transform="translate(2288.000000, 73.000000)">
                    <path d="M52.713,23.193 C54.346,15.157 58.611,10.274 66.45,7.903 C72.472,6.082 78.784,6.06 85.012,6.173 C95.739,6.366 106.45,6.853 117.067,8.492 C127.741,10.141 138.614,12.987 147.626,19.15 C156.836,25.449 160.574,35.528 159.916,46.395 C161.796,45.042 163.676,43.691 165.557,42.339 C163.811,41.658 162.119,41.624 160.38,41.033 C158.282,40.32 156.223,43.347 157.301,45.068 C158.248,46.578 159.488,47.476 161.061,48.275 C163.727,49.629 166.549,46.737 166.701,44.22 C167.438,31.845 162.763,21.243 152.856,13.782 C142.698,6.132 129.155,3.387 116.815,1.864 C104.445,0.336 91.607,-0.082 79.159,0.648 C65.816,1.43 49.485,8.096 49.872,23.768 C49.915,25.562 52.475,24.369 52.713,23.193 L52.713,23.193 Z" id="Shape"></path>
                    <path d="M45.863,25.574 C40.963,21.687 32.421,22.451 26.717,23.738 C20.961,25.036 15.669,28.463 11.742,32.806 C2.64,42.874 -0.462,58.109 0.075,71.344 C0.249,75.64 6.374,72.421 6.539,69.272 C7.132,57.945 7.898,46.2 15.057,36.826 C18.06,32.893 22.331,30.407 27,28.977 C33.03,27.13 39.311,28.338 45.349,27.07 C46,26.932 46.429,26.023 45.863,25.574 L45.863,25.574 Z" id="Shape"></path>
                    <path d="M6.666,73.5 C9.575,68.847 10.381,64.439 15.331,61.202 C20.487,57.829 26.941,56.732 32.964,56.219 C39.475,55.663 46.084,56.164 52.505,57.299 C55.152,57.768 57.762,58.433 60.322,59.244 C62.373,59.895 64.615,61.58 66.789,61.507 C70.568,61.38 72.517,54.407 68.161,55.107 C66.487,55.375 65.187,55.913 63.667,56.632 C62.418,57.225 61.541,59.236 62.914,60.146 C63.953,60.834 64.736,61.249 65.984,61.471 C69.966,62.179 73.14,55.277 68.161,55.107 C70.078,55.171 66.815,54.103 66.305,53.902 C64.806,53.315 63.259,52.836 61.713,52.391 C58.407,51.438 54.997,50.862 51.589,50.427 C44.16,49.479 36.535,49.617 29.164,50.944 C22.6,52.125 16.095,54.501 11.045,58.973 C7.73,61.911 2.836,69.207 5.906,73.659 C6.083,73.917 6.542,73.7 6.666,73.5 L6.666,73.5 Z" id="Shape"></path>
                    <path d="M65.978,82.128 C63.924,84.747 63.632,88.683 62.457,91.764 C60.874,95.909 58.866,99.839 56.5,103.592 C51.621,111.332 45.656,118.391 40.096,125.639 C29.388,139.596 18.648,155.941 21.953,174.381 C22.156,175.514 22.654,176.197 23.807,176.492 C38.534,180.27 51.595,171.714 58.333,158.869 C60.627,154.496 54.062,154.358 52.283,157.741 C47.137,167.528 37.825,172.856 26.81,170.118 C27.428,170.822 28.044,171.526 28.663,172.229 C25.121,153.301 37.717,137.447 48.479,123.294 C53.834,116.251 59.15,109.18 63.322,101.35 C65.323,97.594 71.136,85.589 66.676,81.981 C66.444,81.796 66.149,81.911 65.978,82.128 L65.978,82.128 Z" id="Shape"></path>
                    <path d="M160.447,46.376 C156.292,64.927 160.12,85.878 163.212,104.355 C166.598,124.585 171.229,144.584 174.917,164.76 C177.125,163.782 179.333,162.806 181.542,161.829 C180.143,158.833 178.094,158.351 175.612,156.491 C174.091,155.351 172.024,157.845 172.429,159.284 C173.046,161.476 174.11,163.463 175.073,165.516 C176.644,168.865 182.272,165.665 181.698,162.585 C178.056,143.066 173.635,123.701 170.023,104.177 C168.279,94.748 166.78,85.278 165.575,75.765 C164.324,65.889 164.179,55.773 162.185,46.024 C161.968,44.969 160.62,45.602 160.447,46.376 L160.447,46.376 Z" id="Shape"></path>
                    <path d="M59.228,156.103 C55.395,166.385 58.239,178.115 69.674,181.401 C82.177,184.994 93.028,173.102 97.291,162.869 C95.164,163.041 93.038,163.214 90.911,163.387 C91.102,176.696 98.284,188.419 113.004,185.794 C126.596,183.371 137.74,171.867 141.824,159.039 C139.598,159.489 137.374,159.938 135.148,160.389 C135.919,175.562 148.748,186.805 163.919,185.725 C179.898,184.587 186.642,167.083 177.401,154.693 C176.167,153.038 173.062,155.326 173.367,157.011 C174.352,162.451 176.412,169.203 173.888,174.479 C172.017,178.387 167.078,179.292 163.201,179.318 C151.513,179.398 142.464,169.437 141.892,158.226 C141.664,153.779 135.997,157.117 135.215,159.575 C132.188,169.093 124.024,176.888 114.334,179.32 C102.449,182.305 97.784,171.061 97.642,161.228 C97.584,157.363 92.192,159.513 91.262,161.745 C88.022,169.525 81.846,177.043 72.555,175.287 C63.719,173.618 61.629,163.417 61.544,155.915 C61.532,154.534 59.542,155.257 59.228,156.103 L59.228,156.103 Z" id="Shape"></path>
                    <path d="M69.958,26.087 C75.115,28.123 82.168,27.223 87.614,27.41 C92.504,27.578 98.081,27.506 102.788,28.789 C104.978,29.387 108.553,25.829 106.565,23.838 C103.531,20.798 96.41,21.714 92.396,21.598 C85.768,21.405 77.618,20.396 71.208,22.454 C70.124,22.804 68.062,25.338 69.958,26.087 L69.958,26.087 Z" id="Shape"></path>
                    <path d="M91.76,21.875 C86.99,24.506 84.473,33.205 89.597,36.795 C92.058,38.52 94.963,36.967 96.701,35.022 C99.151,32.281 98.896,27.62 98.561,24.263 C98.463,23.288 97.824,22.323 96.763,22.213 C95.384,22.072 94.159,21.318 92.78,21.178 C90.417,20.936 87.97,22.898 88.012,25.362 C88.064,28.362 88.671,31.376 89.046,34.351 C89.269,36.109 90.86,36.783 92.465,36.27 C94.274,35.692 95.439,34.111 95.564,32.262 C95.768,29.241 94.706,26.271 94.599,23.25 C93.01,24.646 91.419,26.039 89.83,27.435 C91.216,27.552 92.461,28.283 93.848,28.399 C93.248,27.715 92.649,27.033 92.049,26.35 C92.218,27.769 92.319,29.182 92.277,30.611 C92.265,31.007 92.195,31.382 92.124,31.774 C92.082,31.986 92.032,32.196 91.975,32.404 C91.738,33.314 92.206,31.894 91.866,32.644 C92.026,32.292 92.887,31.606 93.514,31.555 C93.81,31.531 94.158,31.683 93.976,31.602 C93.349,31.323 94.14,31.874 93.614,31.354 C92.812,30.559 92.584,29.669 92.525,28.238 C92.459,26.623 93.511,24.798 94.067,23.163 C94.571,21.679 92.702,21.357 91.76,21.875 L91.76,21.875 Z" id="Shape"></path>
                    <path d="M70.125,29.465 C71.104,30.97 73.312,31.938 74.784,33.089 C77.959,35.573 81.056,38.172 84.428,40.395 C89.379,43.661 98.574,48.686 103.643,43.029 C104.481,42.094 104.07,40.487 102.673,40.597 C98.433,40.932 95.975,41.201 91.898,39.254 C87.772,37.284 84.064,34.459 80.23,31.996 C77.872,30.481 75.001,28.243 72.071,28.112 C71.683,28.095 69.624,28.694 70.125,29.465 L70.125,29.465 Z" id="Shape"></path>
                    <path d="M45.453,34.057 C45.516,34.125 45.578,34.195 45.641,34.264 C45.62,33.938 45.599,33.612 45.578,33.285 C45.547,33.352 45.515,33.419 45.484,33.487 C45.16,34.18 45.289,34.8 45.88,35.262 C47.693,36.679 49.56,37.999 51.479,39.268 C53.211,40.414 55.693,42.244 57.416,39.972 C59.141,37.698 55.668,36.53 54.183,35.701 C52.162,34.573 50.17,33.394 48.141,32.28 C47.66,32.016 46.936,32.106 46.493,32.414 C46.402,32.477 46.311,32.54 46.222,32.603 C46.572,32.575 46.92,32.545 47.27,32.518 C47.174,32.483 47.081,32.449 46.986,32.414 C46.167,32.115 44.685,33.205 45.453,34.057 L45.453,34.057 Z" id="Shape"></path>
                    <path d="M58.432,61.344 C56.015,64.44 60.044,73.266 60.873,76.455 C61.938,80.555 62.665,84.75 62.973,88.975 C63.268,93.034 62.143,96.951 62.338,100.938 C62.417,102.542 64.528,102.433 65.383,101.534 C71.928,94.658 69.046,82.515 66.762,74.4 C66.378,73.041 61.528,57.377 58.432,61.344 L58.432,61.344 Z" id="Shape"></path>
                    <path d="M25.544,183.165 C17.987,195.695 17.659,212.99 18.49,227.161 C19.411,242.866 23.226,258.438 28.964,273.052 C40.363,302.079 60.385,328.725 87.059,345.276 C86.701,344.377 86.343,343.477 85.985,342.578 C83.012,358.505 87.267,376.069 94.755,390.191 C101.164,402.277 113.488,415.05 128.463,410.187 C131.102,409.331 133.081,403.587 128.958,404.265 C115.068,406.549 105.934,395.796 100.154,384.444 C93.761,371.882 90.008,356.074 92.629,342.039 C92.834,340.941 92.531,339.946 91.556,339.341 C66.034,323.504 47.303,298.22 35.868,270.743 C30.008,256.664 26.167,241.757 24.747,226.571 C24.065,219.281 24.229,212.028 24.67,204.733 C25.108,197.476 26.972,190.247 27.159,183.035 C27.186,181.977 25.811,182.723 25.544,183.165 L25.544,183.165 Z" id="Shape"></path>
                    <path d="M106.671,347.145 C120.349,357.474 135.206,365.01 151.874,369.343 C151.286,368.672 150.697,368.001 150.109,367.33 C149.344,381.803 154.541,397.657 162.573,409.57 C166.282,415.072 171.507,419.743 178.094,421.246 C185.221,422.871 193.022,419.139 198.094,414.346 C201.463,411.162 198.137,407.671 194.514,410.266 C189.396,413.934 184.234,416.575 178.039,413.785 C172.649,411.356 168.796,405.956 165.965,400.977 C160.028,390.539 156.205,377.346 156.5,365.283 C156.525,364.239 155.675,363.486 154.735,363.271 C138.414,359.537 123.313,351.849 107.938,345.469 C107.026,345.087 105.734,346.436 106.671,347.145 L106.671,347.145 Z" id="Shape"></path>
                    <path d="M151.997,199.841 C143.206,198.71 134.632,192.389 125.439,194.47 C118.005,196.154 115.616,203.427 114.829,210.173 C112.67,228.666 117.028,249.728 123.992,266.789 C129.384,280 136.905,292.284 144.547,304.288 C150.547,313.713 156.371,323.377 163.133,332.283 C166.879,337.217 183.586,360.27 191.048,348.751 C193.813,344.485 192.17,338.649 191.087,334.112 C188.41,322.907 184.608,311.809 179.532,301.466 C177.747,297.829 171.763,301.827 173.081,305.145 C176.708,314.283 182.842,321.871 191.062,327.269 C193.058,328.579 196.425,326.144 196.623,324.038 C198.391,305.021 191.019,287.523 183.533,270.469 C181.868,266.677 176.127,270.823 177.08,274.147 C179.534,282.706 186.014,288.062 194.082,291.245 C196.732,292.29 199.584,289.95 199.662,287.233 C200.029,274.469 194.757,261.939 189.339,250.653 C183.62,238.739 176.9,226.64 168.393,216.479 C166.78,214.552 162.91,217.551 163.936,219.661 C169.475,231.054 176.6,241.622 182.272,252.965 C187.839,264.103 193.346,276.69 192.953,289.385 C194.813,288.047 196.673,286.71 198.533,285.372 C191.316,282.506 185.723,278.177 183.535,270.471 C181.384,271.697 179.233,272.922 177.082,274.149 C184.003,290.021 191.638,306.83 189.992,324.579 C191.846,323.502 193.699,322.425 195.554,321.349 C188.187,316.516 182.78,309.641 179.534,301.473 C177.384,302.699 175.233,303.924 173.083,305.151 C176.349,311.797 179.073,318.616 181.168,325.72 C182.782,331.196 184.709,336.692 185.548,342.358 C185.744,343.682 185.879,345.082 185.652,346.409 C185.738,345.902 188.038,345.457 186.923,345.196 C184.45,344.619 182.027,342.017 180.258,340.367 C174.349,334.856 169.294,328.318 164.694,321.702 C157.122,310.811 150.005,299.429 143.187,288.054 C136.049,276.147 129.67,263.745 125.671,250.408 C123.192,242.14 121.977,233.371 121.102,224.808 C120.636,220.247 120.436,215.662 120.579,211.079 C120.677,207.926 120.851,202.766 123.295,200.367 C126.356,197.365 133.699,199.892 137.233,200.704 C141.758,201.743 146.299,203.009 150.993,202.795 C152.299,202.73 153.88,200.083 151.997,199.841 L151.997,199.841 Z" id="Shape"></path>
                    <path d="M26.549,181.599 C25.334,176.885 20.803,177.382 17.93,180.504 C14.046,184.725 12.539,191.155 11.115,196.537 C7.293,210.964 6.191,225.902 6.914,240.769 C7.897,260.972 13.382,280.858 23.905,298.194 C29.133,306.808 35.359,314.673 42.31,321.958 C49.957,329.975 58.658,338.69 68.878,343.192 C70.667,343.98 73.59,341.51 72.112,339.721 C65.968,332.279 57.795,326.666 50.893,319.903 C44.562,313.699 38.813,306.916 33.741,299.646 C23.395,284.818 17.195,267.583 14.673,249.745 C12.723,235.944 12.782,221.766 14.854,207.987 C15.766,201.924 16.92,195.843 18.622,189.95 C19.253,187.762 20.012,185.385 21.241,183.444 C22.129,182.044 22.741,182.596 24.444,183.447 C25.536,183.994 26.829,182.683 26.549,181.599 L26.549,181.599 Z" id="Shape"></path>
                    <path d="M125.478,396.035 C128.365,398.711 130.882,400.397 134.946,399.996 C136.061,399.886 137.072,398.888 137.064,397.744 C137.01,389.388 133.125,382.621 126.64,377.548 C125.233,376.446 123.315,378.681 123.295,379.952 C123.246,383.219 128.584,386.111 131.544,386.63 C134.54,387.156 136.785,384.562 137.234,381.863 C138.45,374.566 131.846,362.325 124.885,360.079 C123.982,359.788 122.642,361.105 123.072,362.012 C125.531,367.185 129.593,371.158 131.685,376.626 C132.188,377.941 133.663,381.548 132.801,382.949 C133.403,381.971 132.736,382.502 131.332,381.836 C130.245,381.319 127.332,379.812 127.314,378.663 C126.2,379.465 125.085,380.267 123.97,381.067 C130.158,385.111 133.109,391.651 133.545,398.871 C134.103,398.15 134.658,397.431 135.216,396.71 C131.736,397.464 129.717,395.814 126.958,394.441 C126.181,394.051 124.705,395.32 125.478,396.035 L125.478,396.035 Z" id="Shape"></path>
                    <path d="M190.995,398.58 C193.374,401.749 195.508,406.099 200.032,406.399 C202.437,406.557 204.263,404.719 205.065,402.618 C208.384,393.909 198.689,384.086 192.586,379.619 C191.126,378.552 188.305,381.374 189.691,382.723 C195.685,388.564 205.679,392.518 210.508,383.148 C215.378,373.698 206.476,363.56 198.822,359.304 C196.7,358.123 193.575,361.706 195.789,363.308 C199.908,366.287 204.477,368.079 209.34,365.877 C213.201,364.13 215.091,359.474 215.652,355.568 C216.798,347.569 210.797,332.488 200.215,336.62 C199.245,336.999 197.349,339.159 199.078,339.926 C202.242,341.326 205.057,341.165 207.602,343.914 C210.004,346.509 210.95,350.224 211.135,353.658 C211.28,356.327 210.781,359.692 208.762,361.631 C205.994,364.285 201.137,360.959 198.822,359.304 C197.811,360.639 196.8,361.973 195.789,363.308 C201.843,366.635 207.941,372.66 207.181,380.196 C206.302,388.898 196.542,382.946 192.922,379.887 C191.957,380.922 190.992,381.957 190.027,382.992 C195.447,386.603 199.778,391.805 201.521,398.145 C201.919,399.597 202.69,403.695 200.227,403.431 C197.451,403.136 193.43,399.866 191.618,398.031 C191.328,397.738 190.746,398.25 190.995,398.58 L190.995,398.58 Z" id="Shape"></path>
                    <path d="M172.911,182.655 C180.284,191.667 185.639,203.291 190.051,213.985 C195.216,226.505 198.79,239.647 201.617,252.87 C206.955,277.835 209.706,305.266 204.721,330.517 C206.166,329.676 207.614,328.834 209.059,327.996 C207.694,327.144 207.121,325.902 206.203,324.645 C204.717,322.611 201.694,325.703 202.155,327.536 C202.758,329.934 203.43,331.315 205.557,332.619 C207.235,333.647 209.583,331.731 209.897,330.098 C214.714,304.893 211.971,277.902 206.751,252.992 C201.394,227.432 192.853,200.48 173.706,181.961 C173.328,181.596 172.576,182.245 172.911,182.655 L172.911,182.655 Z" id="Shape"></path>
                    <path d="M112.642,415.52 C112.502,418.432 113.991,423.189 112.776,425.834 C114.244,425.167 115.712,424.499 117.18,423.832 C103.323,418.269 84.6,410.635 72.764,424.083 C68.769,428.621 66.345,434.651 67.201,440.742 C67.605,443.621 68.95,446.181 70.862,448.338 C71.888,449.495 73.264,450.405 74.57,451.206 C75.446,451.743 79.372,452.569 79.703,453.029 C81.373,451.237 83.043,449.445 84.714,447.653 C83.211,447.065 81.98,446.382 80.361,446.069 C78.509,445.71 76.528,447.769 77.062,449.585 C77.543,451.231 78.629,452.837 80.289,453.495 C83.162,454.635 87.424,451.038 85.299,448.119 C84.1,446.471 80.783,446.321 78.977,445.389 C76.879,444.307 75.331,442.504 74.369,440.384 C72.385,436.016 74.245,430.961 77.014,427.438 C85.288,416.898 103.601,425.318 113.436,428.781 C115.834,429.626 119.552,426.746 117.679,424.227 C116.882,423.159 116.804,421.024 116.445,419.803 C115.862,417.823 115.181,416.395 113.867,414.818 C113.417,414.282 112.665,415.04 112.642,415.52 L112.642,415.52 Z" id="Shape"></path>
                    <path d="M109.651,431.852 C101.047,426.17 89.616,430.254 87.861,440.669 C87.247,444.316 87.765,448.426 89.502,451.709 C91.231,454.977 95.257,457.141 98.045,453.44 C98.506,452.829 99.001,451.701 98.582,450.933 C97.84,449.575 96.524,449.486 95.535,447.816 C94.31,445.746 93.808,443.328 93.752,440.95 C93.549,432.32 102.986,433.048 109.201,432.804 C109.612,432.789 110.099,432.149 109.651,431.852 L109.651,431.852 Z" id="Shape"></path>
                    <path d="M78.73,414.411 C69.42,413.313 60.516,414.147 53.067,420.439 C44.577,427.611 46.284,438.255 51.484,446.785 C52.492,448.437 55.105,447.216 56.149,446.407 C58.584,444.518 59.262,441.654 57.806,438.884 C56.998,437.349 55.004,437.588 53.872,438.674 C53.183,439.337 52.453,439.956 52.037,440.841 C51.788,441.353 51.673,441.894 51.69,442.46 C51.594,443.775 51.852,443.691 52.463,442.208 C54.019,442.082 55.573,441.956 57.128,441.83 C53.095,435.412 51.421,428.097 57.84,422.751 C62.998,418.456 71.562,416.394 78.111,416.215 C78.927,416.193 79.872,414.543 78.73,414.411 L78.73,414.411 Z" id="Shape"></path>
                    <path d="M175.082,428.407 C174.023,434.27 173.603,440.316 173.324,446.262 C174.976,445.074 176.631,443.885 178.284,442.697 C167.947,436.846 153.721,432.634 144.803,443.124 C139.631,449.207 138.49,466.245 149.692,466.185 C151.82,466.172 155.192,461.988 152.292,460.69 C146.437,458.07 146.054,450.671 149.529,445.679 C154.787,438.124 168.462,444.685 174.331,447.918 C176.497,449.111 179.399,446.571 179.291,444.353 C179.025,438.888 178.627,433.279 177.56,427.909 C177.261,426.423 175.286,427.276 175.082,428.407 L175.082,428.407 Z" id="Shape"></path>
                    <path d="M182.877,454.094 C177.663,452.71 173.402,449.988 167.765,450.604 C163.179,451.106 160.019,454.469 157.927,458.311 C155.031,463.631 155.05,479.219 164.699,476.803 C166.665,476.311 168.172,473.834 166.984,472.039 C165.743,470.163 163.791,469.93 162.866,467.547 C161.983,465.275 162.261,462.366 163.041,460.109 C165.511,452.971 175.955,455.561 181.734,456.52 C183.015,456.732 184.502,454.525 182.877,454.094 L182.877,454.094 Z" id="Shape"></path>
                    <path d="M196.056,464.318 C189.817,462.125 182.831,464.336 178.496,469.252 C173.791,474.586 174.742,481.731 181.138,485.171 C184.191,486.814 188.651,481.738 185.476,479.444 C182.431,477.246 180.14,474.446 183.253,471.149 C186.232,467.997 190.849,466.497 195.073,466.393 C195.834,466.375 197.201,464.719 196.056,464.318 L196.056,464.318 Z" id="Shape"></path>
                    <path d="M213.726,312.816 C229.196,332.81 242.205,355.09 255.376,376.641 C268.741,398.506 283.397,419.753 292.898,443.689 C297.469,455.203 300.538,467.313 300.932,479.727 C301.049,483.448 301.608,488.198 300.316,491.766 C299.33,494.49 292.192,491.707 290.42,490.723 C283.56,486.907 280.31,477.328 277.802,470.436 C275.153,463.15 272.647,456.221 268.855,449.424 C267.882,447.684 265.321,449.57 265.758,451.189 C266.804,455.043 266.946,459.066 267.946,462.902 C269.24,467.852 270.768,472.691 272.612,477.466 C275.551,485.082 279.76,493.787 287.512,497.473 C294.426,500.76 304.647,499.79 306.911,491.311 C309.644,481.08 307.286,468.488 305.014,458.434 C298.684,430.423 281.979,406.569 266.694,382.842 C258.706,370.444 250.85,357.959 242.438,345.841 C234.018,333.714 224.891,322.627 214.884,311.797 C214.364,311.232 213.257,312.209 213.726,312.816 L213.726,312.816 Z" id="Shape"></path>
                    <path d="M227.565,450.368 C226.202,464.645 234.128,477.891 244.08,487.552 C249.287,492.606 258.861,498.362 265.225,491.865 C270.747,486.227 269.88,476.459 269.166,469.293 C268.712,464.742 267.857,460.246 266.869,455.784 C266.056,452.117 265.289,447.907 262.924,444.888 C261.907,443.591 259.538,445.159 259.419,446.46 C258.841,452.773 261.159,459.503 262.109,465.73 C263.138,472.48 264.319,479.974 262.363,486.661 C260.459,493.167 249.849,484.818 247.48,482.758 C238.585,475.026 229.122,462.346 229.065,450.067 C229.06,449.158 227.627,449.693 227.565,450.368 L227.565,450.368 Z" id="Shape"></path>
                    <path d="M199.323,435.622 C199.466,444.75 201.183,453.193 204.851,461.563 C206.677,465.727 208.925,469.664 211.327,473.516 C213.68,477.291 216.181,481.614 220.126,483.866 C221.573,484.692 223.418,482.766 223.008,481.338 C222.029,477.939 219.654,475.187 217.615,472.343 C214.878,468.529 212.3,464.582 210.019,460.476 C205.679,452.662 202.408,443.876 201.29,434.993 C201.128,433.7 199.306,434.63 199.323,435.622 L199.323,435.622 Z" id="Shape"></path>
                </g>
            </g>
        </g>
    </g>
</svg>