<?xml version="1.0" encoding="UTF-8"?>
<svg width="355px" height="497px" viewBox="0 0 355 497" version="1.1" xmlns="http://www.w3.org/2000/svg" xmlns:xlink="http://www.w3.org/1999/xlink">
    <!-- Generator: Sketch 41 (35326) - http://www.bohemiancoding.com/sketch -->
    <title>ear</title>
    <desc>Created with Sketch.</desc>
    <defs></defs>
    <g id="Page-1" stroke="none" stroke-width="1" fill="none" fill-rule="evenodd">
        <g id="Layer_1" transform="translate(-1168.000000, -4107.000000)" fill="#010101">
            <g id="Layer_1_3_">
                <g id="ear" transform="translate(1168.000000, 4107.000000)">
                    <path d="M32.565,113.432 C37.474,104.786 41.507,95.699 46.88,87.295 C51.963,79.346 57.662,71.839 64.145,64.976 C77.459,50.878 93.669,40.01 111.157,31.777 C146.524,15.126 188.318,10.746 226.391,19.251 C267.767,28.494 305.829,56.881 325.136,94.816 C344.421,132.708 341.952,177.068 325.025,215.298 C321.508,223.24 317.273,230.847 313.039,238.421 C311.093,241.902 309.162,245.497 307.017,248.855 C304.416,252.919 302.602,257.304 299.976,261.345 C297.357,265.373 301.689,268.714 305.097,265.407 C309.358,261.272 313.853,257.598 317.586,252.949 C321.473,248.111 325.221,243.327 328.535,238.054 C334.716,228.221 339.734,217.663 343.843,206.812 C351.581,186.37 355.576,164.709 354.766,142.83 C353.096,97.779 328.828,58.596 293.172,32.125 C226.836,-17.123 126.301,-6.561 66.011,47.745 C56.327,56.469 47.892,66.467 41.032,77.545 C34.427,88.213 28.453,101.063 28.238,113.782 C28.189,116.579 31.856,114.68 32.565,113.432 L32.565,113.432 Z" id="Shape"></path>
                    <path d="M310.14,252.208 C298.954,260.109 290.949,271.653 283.204,282.776 C274.883,294.729 266.546,306.913 258.862,319.282 C241.967,346.481 226.368,374.585 213.14,403.76 C204.015,423.887 199.597,447.744 183.108,463.592 C169.062,477.09 148.971,482.359 129.874,480.86 C85.908,477.407 41.445,439.674 46.425,392.631 C41.906,395.257 37.387,397.884 32.868,400.509 C33.242,400.718 33.616,400.925 33.99,401.132 C33.207,400.24 32.425,399.349 31.641,398.457 C31.72,398.696 31.799,398.936 31.878,399.175 C31.81,397.946 31.741,396.713 31.672,395.483 C32.143,394.028 31.003,397.337 30.925,397.797 C29.241,407.683 42.21,404.631 45.117,398.46 C46.521,395.48 49.015,391.272 45.258,387.214 C40.549,382.13 30.876,387.987 30.254,393.943 C25.914,435.448 52.105,471.534 89.366,487.808 C129.154,505.185 179.252,497.019 204.283,459.175 C213.074,445.884 217.728,430.636 223.381,415.883 C230.922,396.199 240.857,377.273 250.841,358.738 C260.809,340.235 271.935,322.557 282.968,304.693 C288.208,296.21 293.253,287.619 298.391,279.074 C303.321,270.875 308.549,262.849 312.568,254.158 C313.324,252.525 311.613,251.168 310.14,252.208 L310.14,252.208 Z" id="Shape"></path>
                    <path d="M67.32,158.971 C73.696,147.738 75.454,134.249 80.123,122.228 C84.671,110.514 91.005,100.036 100.123,91.32 C114.891,77.205 135.207,68.935 155.014,65.003 C195.47,56.972 247.642,64.017 270.623,102.582 C279.959,118.248 282.977,136.474 281.962,154.482 C280.915,173.051 273.99,191.07 268.324,208.577 C266.498,214.22 274.382,212.648 276.508,210.12 C304.531,176.787 306.244,121.098 281.141,85.724 C254.667,48.42 201.543,41.462 159.661,49.269 C134.764,53.909 110.226,64.06 91.803,81.838 C81.102,92.165 73.199,104.65 68.448,118.728 C66.167,125.485 64.786,132.426 63.857,139.481 C62.959,146.307 62.12,152.955 64.004,159.648 C64.502,161.426 66.833,159.826 67.32,158.971 L67.32,158.971 Z" id="Shape"></path>
                    <path d="M67.152,158.453 C61.35,170.869 60.215,184.157 63.042,197.511 C65.956,211.281 73.05,222.291 79.316,234.65 C83.859,243.61 88.218,254.489 82.143,263.786 C78.737,269 73.546,273.116 68.624,276.826 C64.807,279.703 60.868,282.401 58.816,286.915 C56.689,291.598 58.246,295.745 60.813,299.807 C64.044,304.914 68.687,309.69 73.031,313.873 C76.148,316.876 79.514,319.583 82.384,322.839 C86.13,327.091 87.764,332.382 89.437,337.69 C91.823,345.253 94.648,353.702 100.714,359.165 C107.58,365.351 116.848,366.088 125.673,365.209 C150.169,362.769 170.546,348.64 186.713,330.856 C201.608,314.474 214.584,293.048 216.167,270.639 C216.553,265.175 209.016,268.959 207.694,271.326 C196.289,291.753 186.125,313.269 168.888,329.614 C160.844,337.243 151.531,343.367 140.961,346.834 C133.322,349.34 122.52,351.373 115.7,347.615 C110.324,344.653 107.721,336.19 105.634,329.784 C103.821,324.224 102.01,319.163 98.943,314.154 C96.507,310.177 92.943,307.075 89.516,303.986 C85.369,300.246 81.766,296.09 78.031,291.954 C76.639,290.413 75.058,288.784 74.162,286.895 C74.08,286.666 73.998,286.437 73.916,286.207 C74.29,287.811 73.921,289.251 72.811,290.532 C73.415,289.77 73.346,289.835 72.608,290.724 C73.046,290.331 73.497,289.955 73.959,289.592 C84.107,281.351 94.631,272.943 98.897,260.056 C104.536,243.027 94.032,227.502 85.229,213.769 C79.694,205.133 74.203,197.182 71.702,187.072 C69.373,177.658 68.879,167.91 69.628,158.255 C69.744,156.718 67.512,157.678 67.152,158.453 L67.152,158.453 Z" id="Shape"></path>
                    <path d="M74.69,205.395 C76.604,198.178 77.531,190.769 79.5,183.573 C81.048,177.913 83.882,172.004 86.771,167.866 C90.704,162.234 93.159,159.868 98.781,155.512 C98.968,155.367 100.971,153.917 99.385,155.038 C99.991,154.609 100.612,154.201 101.231,153.791 C102.47,152.975 103.749,152.215 105.036,151.478 C106.323,150.74 107.642,150.062 108.973,149.404 C109.637,149.075 110.311,148.767 110.984,148.458 C109.391,149.188 112.16,147.991 112.441,147.878 C118.545,145.437 123.31,144.303 128.702,143.604 C134.911,142.797 139.615,142.875 144.728,143.573 C150.768,144.395 153.935,145.38 158.913,147.979 C163.707,150.482 166.038,152.424 169.55,157.109 C173.237,162.028 174.993,169.019 175.267,176.198 C175.64,185.983 171.948,195.616 172.203,205.671 C172.318,210.257 178.025,208.006 179.741,206.037 C190.179,194.05 193.173,174.915 189.765,159.77 C187.256,148.615 179.453,139.36 169.503,133.998 C147.412,122.095 118.125,128.107 97.935,141.094 C86.85,148.224 77.689,157.867 71.821,169.719 C66.189,181.091 62.998,196.133 70.129,207.443 C71.4,209.465 74.327,206.767 74.69,205.395 L74.69,205.395 Z" id="Shape"></path>
                    <path d="M2.096,105.034 C-2.447,115.144 4.886,124.923 15.884,123.683 C21.86,123.01 27.21,120.043 31.748,116.233 C36.308,112.404 41.839,105.374 40.57,99.008 C39.32,92.74 32.448,94.798 29.347,98.462 C27.53,100.611 25.43,104.477 24.027,105.904 C21.98,107.985 20.505,108.699 17.929,109.467 C12.569,111.063 8.265,107.573 3.926,104.201 C3.321,103.732 2.334,104.503 2.096,105.034 L2.096,105.034 Z" id="Shape"></path>
                </g>
            </g>
        </g>
    </g>
</svg>