<?xml version="1.0" encoding="UTF-8"?>
<svg width="431px" height="338px" viewBox="0 0 431 338" version="1.1" xmlns="http://www.w3.org/2000/svg" xmlns:xlink="http://www.w3.org/1999/xlink">
    <!-- Generator: Sketch 41 (35326) - http://www.bohemiancoding.com/sketch -->
    <title>elephant</title>
    <desc>Created with Sketch.</desc>
    <defs></defs>
    <g id="Page-1" stroke="none" stroke-width="1" fill="none" fill-rule="evenodd">
        <g id="Layer_1" transform="translate(-1658.000000, -2152.000000)" fill="#010101">
            <g id="Layer_1_3_">
                <g id="elephant" transform="translate(1658.000000, 2152.000000)">
                    <path d="M101.411,62.458 C102.698,58.101 99.864,53.162 96.193,50.799 C90.86,47.365 84.116,46.834 77.969,47.882 C65.296,50.045 55.497,59.953 53.363,72.621 C51.227,85.302 58.231,98.444 69.467,104.327 C74.745,107.09 79.782,107.524 85.373,105.928 C88.568,105.014 93.217,104.086 95.787,101.812 C97.616,100.195 96.235,96.638 93.734,96.855 C92.673,96.947 91.915,97.363 91.034,97.936 C89.008,99.254 89.635,102.885 92.336,102.74 C92.798,102.716 93.272,102.668 93.733,102.663 C93.244,100.859 92.756,99.056 92.267,97.252 C91.391,97.915 88.153,98.767 86.574,99.304 C82.687,100.626 79.837,101.505 75.766,100.47 C65.448,97.845 58.954,87.214 58.648,77.037 C58.361,67.542 64.449,59.115 72.681,54.965 C77.44,52.566 83.62,52.129 88.823,52.89 C94.959,53.787 97.143,57.182 99.261,62.459 C99.657,63.439 101.075,63.593 101.411,62.458 L101.411,62.458 Z" id="Shape"></path>
                    <path d="M103.58,64.505 C107.692,47.109 132.139,44.039 146.526,48.102 C159.241,51.692 168.659,61.264 167.498,74.995 C166.436,87.543 156.644,98.237 146.016,103.945 C131.426,111.781 106.945,111.571 98.909,94.661 C97.553,96.017 96.194,97.376 94.837,98.733 C96.993,100.376 98.108,102.343 100.828,103.016 C102.329,103.388 104.047,101.64 102.998,100.193 C101.381,97.961 100.699,95.87 98.443,94.058 C95.797,91.933 92.272,94.516 93.768,97.665 C102.587,116.241 127.902,117.993 144.883,111.024 C158.235,105.545 169.288,93.866 172.608,79.649 C181.091,43.31 127.847,30.002 106.116,52.433 C103.04,55.608 101.401,59.804 101.051,64.162 C100.93,65.625 103.25,65.904 103.58,64.505 L103.58,64.505 Z" id="Shape"></path>
                    <path d="M76.102,105.493 C63.996,120.024 56.796,139.371 51.613,157.351 C46,176.826 43.3,197.223 43.835,217.481 C44.356,237.226 48.466,256.753 56.32,274.88 C60.522,284.575 66.348,293.225 71.689,302.287 C73.189,304.834 75.016,307.266 76.569,309.801 C77.568,311.433 78.715,313.664 80.695,314.231 C81.906,314.577 83.32,314.027 83.934,312.913 C84.658,311.601 84.317,310.392 83.79,309.101 C82.769,306.601 78.155,306.587 78.588,309.805 C78.847,311.734 78.196,310.734 79.429,309.437 C80.587,309.288 81.745,309.138 82.905,308.989 C83.954,309.609 82.471,307.984 82.195,307.538 C81.528,306.456 80.864,305.372 80.202,304.288 C78.588,301.642 76.787,299.142 75.18,296.497 C69.863,287.749 64.525,279.221 60.545,269.747 C53.192,252.245 50.021,233.239 49.679,214.336 C49.34,195.597 52.095,176.894 57.025,158.844 C62.018,140.563 70.358,124.112 77.833,106.828 C78.285,105.779 76.973,104.446 76.102,105.493 L76.102,105.493 Z" id="Shape"></path>
                    <path d="M89.431,311.034 C94.187,308.424 98.726,304.575 104.486,304.978 C108.241,305.243 108.299,299.126 104.486,299.102 C98.099,299.062 91.059,303.018 86.804,307.628 C85.132,309.441 87.241,312.236 89.431,311.034 L89.431,311.034 Z" id="Shape"></path>
                    <path d="M109.251,300.635 C98.856,275.233 87.278,246.992 99.73,220.013 C107.811,202.503 125.431,191.992 144.428,191.308 C191.518,189.611 219.021,243.621 228.05,282.764 C230.542,293.567 232.896,304.401 235.363,315.209 C236.279,319.228 237.203,323.244 238.223,327.237 C238.747,329.298 239.414,332.305 241.413,333.453 C245.684,335.906 249.523,329.316 245.262,326.869 C246.664,327.676 246.994,329.651 246.48,327.55 C246.232,326.541 246.011,325.529 245.754,324.525 C244.866,321.052 244.069,317.555 243.269,314.062 C241.236,305.214 239.288,296.347 237.291,287.493 C232.768,267.417 226.062,248.355 215.63,230.473 C203.943,210.442 186.401,192.281 163.595,185.77 C145.747,180.675 125.732,183.836 110.717,194.828 C75.959,220.266 85.186,270.574 105.623,302.165 C106.785,303.96 110.139,302.807 109.251,300.635 L109.251,300.635 Z" id="Shape"></path>
                    <path d="M100.724,58.163 C100.709,58.689 101.099,57.501 101.412,56.815 C101.96,55.627 103.395,54.7 104.324,53.825 C107.758,50.59 111.781,47.926 115.691,45.312 C123.761,39.92 132.155,34.922 140.742,30.397 C154.063,23.379 169.362,19.338 184.023,16.284 C203.196,12.289 222.797,11.22 242.336,11.143 L242.336,5.179 C239.402,5.416 236.52,6.032 233.719,6.924 C231.677,7.575 231.335,10.935 233.719,11.399 C236.713,11.981 239.339,11.377 242.336,11.144 C246.121,10.851 246.227,5.179 242.336,5.18 C207.928,5.192 170.14,9.051 139.169,25.256 C130.21,29.944 121.545,35.361 113.234,41.111 C108.298,44.526 98.374,49.96 97.791,56.82 C97.741,57.396 98.156,58.105 98.673,58.358 C99.315,58.672 99.861,58.777 100.53,58.496 C100.655,58.444 100.72,58.286 100.724,58.163 L100.724,58.163 Z" id="Shape"></path>
                    <path d="M133.411,25.458 C136.14,8.737 115.404,3.043 102.804,1.647 C85.049,-0.318 67.778,3.105 51.853,11.026 C31.347,21.224 14.356,38.755 5.824,60.065 C-2.491,80.836 -0.274,106.523 13.614,124.427 C23.965,137.771 42.211,146.848 59.34,144.716 C61.919,144.395 63.13,140.145 60.019,139.698 C48.486,138.042 38.101,137.007 28.16,130.29 C18.234,123.583 12.009,112.533 8.943,101.199 C2.428,77.101 12.352,52.596 29.019,35.139 C43.421,20.054 63.259,9.579 84.061,7.427 C98.273,5.956 121.287,5.614 129.221,20.213 C130.108,21.845 130.737,23.681 131.266,25.457 C131.555,26.436 133.223,26.604 133.411,25.458 L133.411,25.458 Z" id="Shape"></path>
                    <path d="M207.365,56.446 C210.517,35.586 232.067,19.903 249.946,11.725 C269.357,2.848 293.917,6.027 312.196,16.114 C331.3,26.654 344.188,46.201 346.544,67.843 C347.843,79.783 346.184,92.531 341.096,103.442 C335.789,114.817 326.413,123.712 316.195,130.703 C303.806,139.178 289.407,143.403 274.429,141.971 C259.589,140.552 247.05,132.467 234.45,125.262 C232.309,124.038 229.9,126.999 231.78,128.722 C251.498,146.8 280.519,153.41 305.49,143.243 C327.733,134.186 346.607,114.826 351.381,90.935 C355.602,69.808 350.911,47.593 337.782,30.46 C325.19,14.026 306.183,4.189 285.852,1.497 C266.987,-1.001 249.581,3.967 233.936,14.388 C220.854,23.101 203.459,38.661 205.271,56.163 C205.384,57.259 207.172,57.726 207.365,56.446 L207.365,56.446 Z" id="Shape"></path>
                    <path d="M152.066,186.639 C153.509,181.948 155.023,177.775 157.814,173.682 C159.409,171.343 161.502,169.355 163.608,167.489 C164.44,166.754 169.024,162.875 170.222,163.069 C169.644,161.65 169.067,160.231 168.49,158.812 C168.236,159.229 166.85,160.569 166.719,162.164 C166.664,162.835 167.249,163.593 167.907,163.724 C170.202,164.181 172.062,163.611 173.495,161.739 C174.585,160.317 173.474,157.789 171.764,157.482 C166.33,156.509 159.841,163.234 156.563,166.902 C152.048,171.956 148.161,179.217 148.545,186.165 C148.655,188.176 151.459,188.612 152.066,186.639 L152.066,186.639 Z" id="Shape"></path>
                    <path d="M171.153,150.47 C169.152,154.154 170.693,158.29 172.762,161.607 C173.667,163.058 174.802,164.381 175.917,165.673 C176.364,166.192 176.802,166.636 177.355,167.047 C178.014,167.537 177.205,166.62 177.471,167.171 C178.214,168.708 180.162,168.563 181.285,167.663 C183.778,165.665 180.821,162.302 179.341,160.859 C176.24,157.842 175.083,154.787 173.657,150.797 C173.281,149.742 171.758,149.356 171.153,150.47 L171.153,150.47 Z" id="Shape"></path>
                    <path d="M84.823,76.648 C84.033,77.594 83.081,78.101 82.482,79.216 C82.034,80.051 81.981,80.81 82.161,81.722 C82.298,82.412 82.638,83.109 82.849,83.781 C83.172,84.805 83.1,86.105 83.904,86.91 C86.64,89.645 90.659,84.217 91.856,82.289 C92.845,80.696 93.375,78.903 93.023,77.043 C92.543,74.49 90.045,73.755 87.844,73.478 C85.683,73.206 83.527,73.649 81.928,75.186 C80.27,76.778 79.647,79.406 78.816,81.468 C78.162,83.09 79.792,84.76 81.338,84.779 C83.149,84.8 85.515,85.288 87.245,84.559 C89.451,83.631 90.471,81.468 91.654,79.518 C92.721,77.76 91.341,75.496 89.338,75.481 C87.671,75.47 86.005,75.46 84.338,75.447 C83.111,75.439 82.061,76.286 81.718,77.442 C81.204,79.172 81.329,80.906 82.674,82.22 C83.789,83.311 84.98,83.351 86.132,84.228 C88.013,85.662 89.932,83.304 89.644,81.528 C89.436,80.244 88.645,79.329 87.564,78.66 C87.229,78.453 86.851,78.302 86.494,78.136 C85.881,77.849 86.927,79.009 86.959,78.887 C86.086,79.552 85.212,80.217 84.339,80.882 C86.006,80.871 87.672,80.86 89.339,80.848 C88.567,79.502 87.795,78.157 87.022,76.811 C86.541,77.629 86.069,78.456 85.564,79.259 C85.54,79.299 84.996,80.022 85.386,79.545 C84.928,80.105 85.501,79.551 85.203,79.715 C85.893,79.334 84.918,79.663 85.636,79.581 C85.302,79.62 84.96,79.606 84.625,79.603 C83.528,79.593 82.435,79.547 81.339,79.549 C82.18,80.653 83.02,81.756 83.86,82.86 C84.335,81.637 84.723,80.364 85.342,79.205 C85.52,78.872 85.776,78.605 85.62,78.722 C85.834,78.562 86.114,78.462 86.611,78.429 C87.341,78.381 88.084,78.469 88.807,78.55 C88.336,78.497 88.96,78.802 88.708,78.562 C88.557,78.418 88.543,78.303 88.52,78.107 C88.595,78.743 88.223,79.458 87.757,80.251 C87.249,81.116 86.607,81.874 85.903,82.586 C85.625,82.868 85.322,83.133 85.021,83.391 C85.353,83.107 84.956,83.417 84.885,83.46 C85.818,82.899 87.531,85.615 87.387,84.601 C87.189,83.195 86.41,81.852 85.615,80.71 C85.367,80.355 85.386,80.542 85.453,80.163 C85.62,79.242 85.697,78.222 86.036,77.359 C86.301,76.684 85.279,76.103 84.823,76.648 L84.823,76.648 Z" id="Shape"></path>
                    <path d="M141.757,74.17 C138.843,75.778 136.578,78.552 135.756,81.795 C134.583,86.416 139.105,88.311 142.778,88.76 C147.38,89.322 154.32,88.146 153.554,81.959 C153.003,77.514 149.483,73.416 145.376,71.782 C143.406,70.999 141.045,71.02 139.243,72.224 C136.742,73.896 135.992,76.824 135.623,79.634 C135.469,80.801 135.469,81.987 135.496,83.161 C135.533,84.714 136.761,85.993 138.336,86 C141.255,86.014 144.107,85.889 146.793,84.652 C148.966,83.652 150.452,81.465 151.847,79.629 C153.355,77.642 151.217,75.503 149.336,75.253 C146.843,74.922 143.347,74.81 142.124,77.577 C141.224,79.612 141.667,81.995 141.651,84.161 C141.634,86.673 145.522,88.04 146.652,85.515 C147.428,83.78 147.516,82.256 147.446,80.394 C147.404,79.306 147.401,80.619 146.518,80.931 C147.132,80.714 148.531,80.968 149.335,81.069 C148.498,79.61 147.66,78.152 146.823,76.693 C145.963,77.846 145.082,79.017 143.878,79.67 C142.373,80.483 140.005,80.297 138.335,80.322 C139.28,81.268 140.228,82.216 141.174,83.162 C141.124,82.014 141.07,80.745 141.219,79.645 C141.357,78.629 141.645,77.721 141.9,77.255 C142.254,76.609 141.873,77.205 142.126,76.929 C142.641,76.366 141.861,77.012 142.497,76.669 C141.689,77.105 143.309,76.588 142.346,76.698 C142.557,76.674 143.548,76.777 142.762,76.655 C143.028,76.696 143.287,76.772 143.545,76.85 C144.261,77.068 143.395,76.731 144.084,77.08 C144.7,77.392 145.583,78.046 145.647,78.1 C146.972,79.208 147.447,79.812 148.174,81.247 C148.17,81.239 148.473,82.017 148.585,82.627 C148.461,81.956 148.56,82.895 148.548,83.088 C148.602,82.221 148.221,83.768 148.564,83.022 C148.288,83.623 148.698,82.965 148.435,83.262 C148.02,83.731 148.553,83.271 147.967,83.607 C147.759,83.727 146.685,84.012 145.988,84.067 C144.748,84.165 140.066,84.463 139.94,82.721 C139.774,80.429 141.476,77.458 143.148,75.971 C144.151,75.083 142.87,73.556 141.757,74.17 L141.757,74.17 Z" id="Shape"></path>
                    <path d="M350.144,282.506 C340.373,295.52 337.055,315.846 343.105,330.944 C343.639,332.277 344.499,332.958 345.939,333.101 C354.336,333.939 362.898,333.85 371.315,333.381 C376.669,333.082 386.409,333.36 389.948,328.486 C391.39,326.5 389.027,324.141 386.983,324.631 C380.854,326.096 375.189,327.248 368.808,327.565 C361.196,327.94 353.537,327.809 345.939,327.224 C346.785,327.707 347.629,328.194 348.476,328.679 C345.207,321.028 345,312.992 346.486,304.904 C347.833,297.581 351.16,290.788 352.521,283.508 C352.802,282.006 351.028,281.328 350.144,282.506 L350.144,282.506 Z" id="Shape"></path>
                    <path d="M275.65,289.336 C282.739,293.902 287.414,298.611 290.386,306.703 C291.754,310.43 292.625,314.351 293.135,318.285 C293.436,320.6 294.78,327.154 293.489,329.199 C294.825,328.847 296.162,328.498 297.498,328.147 C297.451,328.126 297.403,328.105 297.356,328.084 C297.838,328.928 298.324,329.772 298.808,330.616 C298.649,328.266 298.495,326.004 295.86,325.262 C294.799,324.964 293.756,325.616 293.438,326.637 C293.016,327.99 292.815,329.182 292.944,330.616 C293.075,332.063 293.78,332.895 295.096,333.442 C295.144,333.463 295.192,333.481 295.24,333.503 C296.443,334.003 297.936,333.178 298.55,332.155 C300.491,328.922 299.279,323.092 298.878,319.524 C298.285,314.243 297.04,309.044 295.005,304.13 C291.807,296.406 285.372,287.623 276.337,286.8 C274.903,286.672 274.602,288.661 275.65,289.336 L275.65,289.336 Z" id="Shape"></path>
                    <path d="M240.728,332.204 C248.883,338.398 262.486,337.376 272.184,335.935 C276.457,335.3 280.711,334.523 284.965,333.77 C286.52,333.497 288.086,333.136 289.656,332.973 C290.276,332.909 290.895,332.812 291.506,332.687 C293.92,332.195 291.418,332.508 290.332,331.665 L290.332,327.93 C290.808,327.401 289.449,328.985 289.234,329.583 C288.899,330.516 289.453,331.554 290.235,332.044 C291.2,332.65 292.555,332.736 293.532,332.077 C295.061,331.044 295.155,329.316 294.066,327.93 C292.852,326.383 289.886,327.05 288.266,327.442 C284.111,328.446 279.813,329.078 275.611,329.861 C272.043,330.528 268.425,331.285 264.798,331.545 C256.819,332.113 249.21,330.728 241.335,329.957 C239.997,329.825 239.893,331.57 240.728,332.204 L240.728,332.204 Z" id="Shape"></path>
                    <path d="M274.75,290.165 C298.4,300.682 328.084,293.504 352.121,288.01 C355.905,287.145 354.221,281.752 350.552,282.317 C348.733,282.597 347.006,283.187 345.68,284.506 C344.326,285.853 345.129,287.797 346.713,288.423 C348.414,289.095 349.59,288.258 351.336,288.114 C351.074,286.181 350.814,284.249 350.551,282.315 C337.97,285.447 325.332,288.259 312.405,289.499 C299.867,290.702 287.783,289.319 275.339,288.003 C274.211,287.883 273.715,289.704 274.75,290.165 L274.75,290.165 Z" id="Shape"></path>
                    <path d="M345.793,48.136 C366.526,54.28 379.901,74.439 389.314,92.666 C400.693,114.702 407.145,138.959 409.083,163.629 C411.266,191.401 408.13,218.953 403.429,246.29 C398.811,273.144 394.97,301.295 380.923,325.166 C378.326,329.58 385.053,333.463 387.751,329.156 C389.397,326.529 389.105,324.218 388.306,321.343 C387.479,318.362 383.239,318.448 382.369,321.343 C381.987,322.614 381.639,324.028 380.923,325.165 C383.199,326.495 385.476,327.825 387.751,329.155 C401.628,305.593 406.027,278.097 410.55,251.542 C415.231,224.056 418.802,196.747 417.335,168.787 C416.027,143.879 410.307,119.703 399.742,97.099 C390.971,78.329 378.46,58.062 359.6,48.096 C355.447,45.901 351,44.582 346.336,44.115 C343.968,43.877 343.655,47.502 345.793,48.136 L345.793,48.136 Z" id="Shape"></path>
                    <path d="M413.879,180.564 C415.453,189.339 418.823,197.896 420.602,206.696 C422.414,215.665 423.373,224.797 423.982,233.917 C424.576,242.805 424.68,251.726 424.735,260.63 C424.792,269.75 424.189,279.532 426.208,288.475 C426.462,289.598 428.214,289.595 428.468,288.475 C430.501,279.54 430.106,269.75 430.132,260.63 C430.158,251.131 429.878,241.634 429.187,232.159 C428.529,223.149 427.305,214.2 425.46,205.356 C423.679,196.811 421.412,186.819 416.645,179.399 C415.682,177.903 413.58,178.899 413.879,180.564 L413.879,180.564 Z" id="Shape"></path>
                    <path d="M344.543,325.516 C348.021,323.346 351.758,322.595 355.752,323.702 C357.314,324.134 358.85,325.013 359.715,326.406 C360.502,327.673 359.473,329.374 360.283,330.777 C360.568,331.269 361.125,331.454 361.66,331.338 C364.321,330.762 364.363,327.409 363.439,325.389 C362.344,322.995 360.265,321.653 357.878,320.733 C353.349,318.989 345.679,319.742 343.94,325.054 C343.829,325.394 344.245,325.704 344.543,325.516 L344.543,325.516 Z" id="Shape"></path>
                    <path d="M365.991,328.816 C367.181,327.598 368.387,326.003 370.265,326.529 C372.045,327.029 372.588,328.967 373.829,330.062 C375.217,331.288 377.299,330.109 376.893,328.278 C376.337,325.771 373.189,323.626 370.773,323.232 C367.638,322.722 365.084,324.945 364.442,327.917 C364.254,328.792 365.315,329.51 365.991,328.816 L365.991,328.816 Z" id="Shape"></path>
                    <path d="M244.004,331.346 C245.272,325.681 249.241,324.127 254.5,326.072 C256.086,326.657 258.375,327.926 259.043,329.595 C259.543,330.842 259.488,333.012 261.43,332.866 C262.396,332.795 263.102,332.282 263.414,331.354 C266.551,322.079 240.032,315.247 242.67,331.345 C242.782,332.028 243.86,331.987 244.004,331.346 L244.004,331.346 Z" id="Shape"></path>
                    <path d="M265.853,330.464 C267.317,328.158 270.201,327.311 272.797,327.498 C273.965,327.584 275.193,328.067 276.095,328.812 C277.228,329.75 276.873,330.955 277.297,332.195 C278.006,334.263 280.77,334.256 281.481,332.195 C282.91,328.057 277.795,324.69 274.346,324.237 C269.883,323.652 266.194,325.761 264.761,330.003 C264.536,330.668 265.502,331.017 265.853,330.464 L265.853,330.464 Z" id="Shape"></path>
                    <path d="M82.669,286.306 C85.384,288.244 89.051,288.428 92.203,287.687 C94.803,287.077 98.518,284.754 97.874,281.74 C97.727,281.052 97.015,280.569 96.337,280.569 C94.235,280.568 93.011,282.583 91.204,283.478 C88.66,284.741 85.999,284.069 83.337,283.838 C81.899,283.713 81.705,285.619 82.669,286.306 L82.669,286.306 Z" id="Shape"></path>
                    <path d="M80.392,271.106 C84.592,274.866 92.89,276.092 95.684,269.888 C96.662,267.717 94.287,265.84 92.43,267.376 C90.852,268.682 89.789,269.94 87.608,270.096 C85.5,270.246 83.653,269.496 81.692,268.873 C80.437,268.475 79.396,270.215 80.392,271.106 L80.392,271.106 Z" id="Shape"></path>
                    <path d="M80.364,249.163 C80.116,251.729 80.728,254.341 83.032,255.879 C84.928,257.144 89.422,257.191 90.178,254.44 C90.27,253.805 90.279,253.715 90.202,254.169 C90.334,253.942 90.399,253.699 90.399,253.438 C90.399,253.001 90.253,252.511 89.85,252.285 C89.688,252.183 89.517,252.102 89.336,252.043 C88.059,251.691 90.373,252.371 88.746,251.924 C87.975,251.712 87.276,252.058 86.556,252.268 C84.39,252.901 83.078,250.234 82.176,248.674 C81.657,247.774 80.453,248.247 80.364,249.163 L80.364,249.163 Z" id="Shape"></path>
                    <path d="M81.493,227.163 C81.37,228.381 81.037,229.414 81.314,230.659 C81.571,231.814 82.007,232.925 82.737,233.864 C84.091,235.606 86.145,236.464 88.331,236.347 C88.985,236.313 89.784,236.001 90.071,235.349 C90.128,235.221 90.183,235.093 90.24,234.964 C90.525,234.317 90.471,233.769 90.014,233.219 C88.877,231.848 87.099,232.747 85.762,231.698 C84.445,230.665 83.37,228.57 83.149,226.935 C83.013,225.925 81.581,226.294 81.493,227.163 L81.493,227.163 Z" id="Shape"></path>
                    <path d="M90.699,208.79 C90.507,209.172 90.172,209.36 90.036,209.769 C89.896,210.191 89.784,210.602 89.696,211.039 C89.529,211.857 89.513,212.578 89.566,213.415 C89.673,215.12 90.689,216.703 92.129,217.569 C93.861,218.613 95.967,216.028 94.331,214.715 C93.584,214.113 93.033,213.458 92.636,212.584 C92.42,212.109 92.253,211.465 92.202,210.948 C92.15,210.412 92.016,209.681 92.076,209.165 C92.16,208.427 91.019,208.161 90.699,208.79 L90.699,208.79 Z" id="Shape"></path>
                    <path d="M102.365,195.894 C101.755,197.546 101.046,199.264 101.634,201.062 C102.222,202.862 103.524,204.461 105.441,204.896 C107.69,205.405 108.683,202.623 106.94,201.34 C105.326,200.152 103.762,198.698 104.31,196.429 C104.618,195.148 102.81,194.69 102.365,195.894 L102.365,195.894 Z" id="Shape"></path>
                    <path d="M117.218,187.853 C116.461,190.172 115.554,193.067 117.366,195.131 C117.838,195.667 118.836,195.667 119.305,195.131 C121.118,193.067 120.211,190.172 119.453,187.853 C119.095,186.75 117.579,186.75 117.218,187.853 L117.218,187.853 Z" id="Shape"></path>
                    <path d="M90.337,31.452 C86.135,31.421 82.399,32.007 79.608,35.433 C78.049,37.347 79.49,40.003 81.987,39.52 C86.169,38.71 89.801,37.16 93.661,35.427 C96.363,34.216 94.404,29.551 91.64,30.632 C89.869,31.325 88.221,31.436 86.337,31.416 L86.337,36.907 C87.668,36.741 88.753,36.205 89.913,35.552 C90.472,35.238 91.017,34.901 91.569,34.578 C91.756,34.469 93.277,33.84 92.338,33.965 C95.798,33.507 96.058,28.261 92.338,28.36 C90.494,28.41 88.66,28.702 87.161,29.847 C85.968,30.76 84.323,32.009 83.953,33.505 C83.62,34.848 84.37,36.136 85.681,36.547 C87.234,37.033 88.44,36.271 89.561,35.276 C90.578,34.375 90.874,34.021 92.338,33.965 C92.089,32.13 91.841,30.295 91.593,28.46 C89.446,28.77 87.193,31.273 85.608,31.515 C82.498,31.987 83.308,36.956 86.338,36.909 C88.946,36.868 91.297,36.59 93.661,35.429 C92.778,33.919 91.895,32.409 91.014,30.899 C87.704,32.73 84.385,33.996 80.688,34.806 C81.608,36.003 82.529,37.202 83.449,38.398 C84.419,37.121 85.327,36.335 86.884,35.946 C88.365,35.577 89.822,35.331 91.201,34.641 C92.772,33.854 91.965,31.463 90.337,31.452 L90.337,31.452 Z" id="Shape"></path>
                    <path d="M152.983,34.516 C152.274,33.856 152.884,34.057 152.723,34.978 C152.119,35.138 151.516,35.297 150.912,35.457 C151.514,36.064 150.766,35.108 150.889,35.651 C151.02,36.236 151.483,36.589 151.963,36.88 C152.797,37.384 153.639,37.87 154.502,38.324 C156.329,39.285 158.257,40.205 160.337,40.389 C163.05,40.629 163.062,36.876 160.929,36.015 C157.575,34.663 154.478,32.832 150.975,31.848 C148.399,31.124 146.649,35.006 149.126,36.233 C152.233,37.773 155.876,38.636 159.337,38.77 L159.337,33.552 C157.495,33.529 155.41,33.618 153.695,32.836 C153.005,34.477 152.312,36.117 151.62,37.758 C153.071,37.958 153.879,38.375 155.047,39.227 C156.359,40.182 157.848,40.771 159.378,39.942 C159.978,39.618 160.447,38.854 160.399,38.162 C160.163,34.769 155.357,32.344 152.336,32.469 C149.908,32.57 148.337,36.357 150.977,37.487 C153.671,38.64 156.434,38.801 159.336,38.771 C162.7,38.735 162.698,33.604 159.336,33.553 C156.387,33.508 153.82,32.373 150.974,31.848 C150.549,33.39 150.124,34.932 149.699,36.475 C153.211,37.371 156.298,39.267 159.745,40.308 C159.942,38.85 160.141,37.392 160.338,35.934 C158.676,35.937 156.906,35.048 155.406,34.404 C154.6,34.058 153.521,33.355 152.637,33.355 C152.29,33.355 151.026,33.428 152.087,33.66 C151.833,33.604 151.649,33.592 151.392,33.644 C150.852,33.756 150.436,34.45 150.636,34.976 C150.869,35.595 151.335,35.702 151.876,35.951 C152.767,36.362 153.793,35.269 152.983,34.516 L152.983,34.516 Z" id="Shape"></path>
                    <path d="M184.024,210.346 C188.837,221.508 192.225,232.534 194.852,244.411 C197.944,258.391 202.313,271.747 206.982,285.276 C209.085,291.367 211.295,297.472 212.254,303.856 C213.012,308.899 213.766,314.026 216.127,318.607 C217.826,321.905 221.353,323.351 224.847,323.777 C227.054,324.047 229.243,324.064 231.462,324.01 C232.433,323.987 233.402,323.948 234.373,323.927 C234.886,323.931 235.397,323.926 235.909,323.915 C237.422,323.997 237.046,323.177 234.782,321.456 C233.721,324.353 238.115,325.991 239.623,323.497 C244.102,316.081 226.215,318.202 223.603,317.548 C219.054,316.407 218.556,307.218 217.93,303.512 C216.781,296.71 214.537,290.324 212.228,283.828 C207.27,269.886 202.481,256.127 198.756,241.8 C196.011,231.245 193.11,217.492 184.592,209.904 C184.27,209.617 183.863,209.975 184.024,210.346 L184.024,210.346 Z" id="Shape"></path>
                    <path d="M335.497,287.671 C328.843,298.252 328.38,312.044 328.514,324.162 C328.532,325.776 329.788,326.886 331.337,326.985 C334.266,327.174 337.266,328.015 340.091,326.895 C343.414,325.58 342.208,320.496 338.583,321.426 C336.192,322.038 333.759,321.442 331.337,321.336 C332.278,322.276 333.221,323.219 334.161,324.159 C332.542,311.846 335.891,300.247 337.309,288.16 C337.43,287.14 335.969,286.922 335.497,287.671 L335.497,287.671 Z" id="Shape"></path>
                    <path d="M216.667,308.36 C219.967,307.383 223.322,308.339 225.681,310.761 C226.941,312.057 227.547,313.813 227.933,315.535 C228.371,317.494 227.994,319.469 229.434,321.063 C229.826,321.498 230.495,321.526 230.982,321.262 C236.193,318.452 231.609,309.679 228.64,306.919 C224.782,303.333 219.452,303.06 215.459,306.28 C214.463,307.087 215.536,308.694 216.667,308.36 L216.667,308.36 Z" id="Shape"></path>
                    <path d="M222.033,60.858 C235.363,50.121 255.32,52.45 264.083,67.522 C267.302,73.061 267.901,79.814 264.562,85.416 C259.183,94.437 247.618,94.149 239.273,98.342 C237.624,99.171 238.074,101.763 239.777,102.196 C250.49,104.925 264.131,98.388 270.209,89.509 C275.291,82.086 274.105,72.391 269.941,64.892 C265.616,57.103 257.68,51.387 249.022,49.514 C244.21,48.473 239.242,48.78 234.545,50.191 C228.765,51.928 224.935,55.456 220.641,59.464 C219.694,60.35 221.067,61.636 222.033,60.858 L222.033,60.858 Z" id="Shape"></path>
                </g>
            </g>
        </g>
    </g>
</svg>