<?xml version="1.0" encoding="UTF-8"?>
<svg width="551px" height="557px" viewBox="0 0 551 557" version="1.1" xmlns="http://www.w3.org/2000/svg" xmlns:xlink="http://www.w3.org/1999/xlink">
    <!-- Generator: Sketch 41 (35326) - http://www.bohemiancoding.com/sketch -->
    <title>engineer</title>
    <desc>Created with Sketch.</desc>
    <defs></defs>
    <g id="Page-1" stroke="none" stroke-width="1" fill="none" fill-rule="evenodd">
        <g id="Layer_1" transform="translate(-6081.000000, -771.000000)" fill="#010101">
            <g id="Layer_1_3_">
                <g id="engineer" transform="translate(6081.000000, 771.000000)">
                    <path d="M161.336,144.62 C152.278,128.317 158.472,107.78 164.813,91.605 C168.448,82.333 172.883,73.382 177.965,64.82 C181.315,59.177 185.644,52.543 189.823,48.56 C224.135,15.87 273.489,1.337 318.024,21.287 C338.706,30.552 356.183,45.722 369.706,63.768 C386.127,85.685 394.621,111.355 397.993,138.267 C402.11,135.307 406.227,132.346 410.345,129.386 C407.441,127.813 404.766,128.065 401.643,128.751 C396.783,129.818 391.43,140.295 398.954,141.294 C399.814,141.396 399.894,141.415 399.195,141.351 C403.656,146.976 413.488,139.202 412.85,133.505 C407.744,87.943 383.249,44.974 344.912,19.519 C307.148,-5.556 260.305,-5.433 220.439,15.029 C205.767,22.56 191.616,32.949 180.637,45.304 C172.917,53.992 167.322,64.865 162.473,75.334 C156.576,88.065 151.928,101.675 150.028,115.612 C148.566,126.329 148.844,139.618 156.253,148.248 C158.092,150.393 162.649,146.982 161.336,144.62 L161.336,144.62 Z" id="Shape"></path>
                    <path d="M188.046,40.078 C178.432,45.68 171.762,54.87 165.693,63.964 C158.664,74.497 153.795,87.085 149.931,99.074 C146.823,108.719 145.522,118.235 144.519,128.242 C144.113,132.297 143.704,136.35 143.168,140.389 C142.996,141.695 142.099,143.261 143.732,140.798 C142.768,142.249 142.185,143.532 141.798,145.224 C141.434,146.815 141.316,148.847 142.039,150.396 C144.254,155.137 149.645,153.376 152.914,150.974 C155.902,148.777 158.539,143.403 156.999,139.723 C157.406,140.695 157.242,137.385 157.307,136.583 C157.477,134.437 157.59,132.286 157.704,130.137 C158.161,121.563 158.299,113.226 159.984,104.782 C162.317,93.095 166.497,82.104 171.36,71.268 C176.061,60.794 181.061,49.526 188.742,40.873 C189.218,40.34 188.624,39.741 188.046,40.078 L188.046,40.078 Z" id="Shape"></path>
                    <path d="M401.511,146.499 C408.852,148.525 417.45,147.969 425.001,147.631 C423.399,146.34 421.798,145.048 420.196,143.756 C419.803,149.145 420.247,154.629 420.239,160.031 C420.235,162.62 420.234,165.246 419.965,167.822 C419.691,170.444 418.587,173.185 420.685,175.411 C422.584,177.427 425.877,177.212 428.081,175.807 C434.412,171.77 433.817,164.69 433.565,158.065 C433.335,152.004 432.857,145.917 432.297,139.877 C431.972,136.36 428.879,135.686 425.948,136.313 C418.386,137.93 410.58,137.504 403.055,139.291 C399.999,140.016 397.43,145.373 401.511,146.499 L401.511,146.499 Z" id="Shape"></path>
                    <path d="M152.671,145.617 C150.117,144.531 147.809,144.625 145.068,144.698 C141.308,144.8 137.844,144.457 134.176,143.601 C129.437,142.496 124.754,147.479 124.703,151.914 C124.615,159.749 126.335,167.361 126.193,175.223 C126.122,179.15 130.536,180.356 133.593,179.378 C137.362,178.173 140.226,174.68 140.298,170.701 C140.335,168.674 139.845,167.122 138.689,165.445 C135.668,161.063 128.982,166.047 127.432,169.136 C126.46,171.07 126.154,173.076 126.193,175.222 C126.357,184.241 140.432,178.015 140.298,170.701 C140.155,162.889 138.279,155.494 137.788,147.719 C134.63,150.49 131.474,153.261 128.315,156.032 C135.533,156.391 145.189,155.886 151.359,151.73 C152.893,150.698 155.657,146.886 152.671,145.617 L152.671,145.617 Z" id="Shape"></path>
                    <path d="M127.575,183.039 C140.73,202.876 164.549,214.851 186.277,222.769 C213.087,232.54 241.17,237.419 269.673,238.083 C297.383,238.73 324.506,233.807 351.334,227.359 C371.927,222.411 393.198,216.093 410.956,204.199 C416.036,200.796 420.666,196.975 424.804,192.472 C428.273,188.699 432.98,183.308 433.874,178.197 C434.638,173.838 431.947,171.503 427.851,171.333 C423.949,171.171 420.473,172.237 417,173.938 C410.026,177.354 410.351,188.946 419.61,186.524 C421.175,186.115 423.036,186.382 424.643,186.297 C422.582,184.635 420.522,182.973 418.46,181.311 C418.743,182.782 418.901,180.195 418.66,180.582 C418.086,181.5 417.437,182.371 416.793,183.24 C415.664,184.761 414.411,186.126 413.058,187.443 C409.566,190.841 405.604,193.586 401.435,196.077 C392.372,201.493 382.433,205.249 372.423,208.501 C350.051,215.77 326.327,221.013 302.971,223.547 C272.266,226.878 241.151,224.414 211.278,216.648 C188.007,210.598 163.231,201.733 144.576,186.094 C141.128,183.203 137.896,179.963 134.92,176.593 C131.63,172.867 124.944,179.073 127.575,183.039 L127.575,183.039 Z" id="Shape"></path>
                    <path d="M157.583,157.765 C165.503,172.264 184.272,178.465 199.127,183.08 C218.075,188.968 237.97,192.851 257.694,194.817 C282.507,197.291 307.677,196.196 332.046,190.829 C343.956,188.207 355.093,184.16 365.85,178.436 C371.32,175.527 376.66,172.379 382.107,169.431 C384.499,168.136 386.928,166.918 389.383,165.748 C392.405,164.308 395.402,164.194 398.484,163.179 C402.457,161.869 405.571,153.388 399.236,154.205 C397.007,154.493 395.256,155.216 393.268,156.254 C391.307,157.278 390.088,160.109 392.117,161.629 C393.439,162.62 394.455,163.142 396.1,163.372 C396.737,160.398 397.374,157.425 398.011,154.452 C393.341,155.805 388.572,158.921 384.168,161.101 C379.171,163.576 374.345,166.398 369.489,169.135 C358.931,175.087 348.483,179.672 336.755,182.787 C312.704,189.177 287.286,190.351 262.564,188.399 C243.461,186.89 224.324,183.193 205.847,178.13 C190.305,173.87 171.688,168.127 160.709,155.53 C159.569,154.225 156.786,156.303 157.583,157.765 L157.583,157.765 Z" id="Shape"></path>
                    <path d="M165.493,213.537 C161.853,206.295 153.736,215.783 152.074,219.56 C148.315,228.101 148.031,238.564 148.192,247.73 C148.366,257.58 149.405,267.854 152.554,277.236 C154.805,283.943 162.204,293.897 169.853,285.904 C171.725,283.947 174.733,278.467 170.554,276.832 C169.968,276.603 169.328,276.289 168.74,276.18 C167.893,276.023 162.039,275.741 167.34,276.303 C167.574,276.328 167.026,276.146 166.917,276.045 C165.034,274.297 164.527,272.84 163.523,270.243 C160.779,263.144 159.725,255.392 159.044,247.858 C158.356,240.242 158.017,232.298 159.143,224.711 C159.508,222.25 159.961,219.879 161.008,217.779 C161.029,217.739 162.004,216.953 161.214,217.433 C161.376,217.334 162.318,217.167 163.363,216.956 C164.591,216.709 166.145,214.836 165.493,213.537 L165.493,213.537 Z" id="Shape"></path>
                    <path d="M386.648,221.617 C388.68,221.232 390.398,221.344 392.452,221.627 C391.775,221.083 391.098,220.54 390.422,219.997 C394.57,230.237 393.752,243.8 392.273,254.481 C391.443,260.47 390.186,266.554 387.604,272.05 C387.06,273.21 386.777,273.688 386.055,274.709 C385.77,275.1 385.471,275.48 385.159,275.85 C383.752,277.577 386.159,274.958 384.632,276.364 C383.794,277.135 385.36,276.16 384.371,276.469 C383.63,276.663 383.642,276.657 384.406,276.453 C382.977,276.636 381.718,277.068 380.515,277.865 C378.004,279.528 373.819,284.55 377.135,287.571 C382.915,292.835 391.992,285.565 395.165,280.457 C399.186,273.985 401.012,266.316 402.072,258.843 C403.997,245.269 405.284,226.993 397.61,214.864 C397.146,214.13 395.857,213.854 395.074,213.961 C392.027,214.375 388.99,214.824 386.36,216.494 C384.641,217.586 383.064,222.295 386.648,221.617 L386.648,221.617 Z" id="Shape"></path>
                    <path d="M180.832,282.592 C176.229,291.129 178.106,302.682 180.202,311.709 C182.747,322.671 187.848,333.307 193.805,342.796 C205.663,361.69 223.716,374.137 244.987,380.492 C267.737,387.29 293.106,386.097 315.044,377.012 C337.081,367.884 354.315,349.196 364.445,327.861 C370.59,314.922 372.716,301.227 371.931,287.026 C371.571,280.503 360.756,285.208 362.16,291.348 C367.839,316.199 349.658,343.324 331.636,358.524 C313.296,373.991 287.65,378.802 264.295,376.216 C241.443,373.687 219.411,362.932 205.204,344.623 C198.216,335.619 192.579,325.365 188.46,314.753 C186.473,309.631 184.731,304.153 183.821,298.727 C182.956,293.557 183.695,288.541 183.406,283.388 C183.4,283.053 183.394,282.719 183.388,282.384 C183.359,280.76 181.255,281.805 180.832,282.592 L180.832,282.592 Z" id="Shape"></path>
                    <path d="M193.738,232.235 C189.419,236.491 189.382,243.578 189.202,249.271 C189.093,252.759 189.103,256.622 189.936,260.023 C190.582,262.658 191.581,268.392 194.215,269.818 C196.481,271.045 199.725,271.193 202.213,271.671 C205.585,272.317 208.966,272.908 212.356,273.447 C219.796,274.63 227.353,275.433 234.895,275.181 C240.773,274.986 246.294,273.749 250.403,269.339 C254.092,265.377 255.893,259.824 256.98,254.63 C258.262,248.506 258.709,227.973 246.807,236.046 C243.708,238.147 241.494,244.477 247.273,244.362 C245.545,243.301 245.013,243.147 245.677,243.901 C246.76,245.288 243.629,241.678 246.377,245.024 C246.855,245.605 246.88,246.592 246.981,247.634 C247.327,251.235 246.754,254.852 245.899,258.34 C245.489,260.013 244.851,261.559 244.082,263.096 C243.745,263.769 242.935,264.44 243.119,264.377 C238.83,265.835 233.653,265.535 229.203,265.309 C223.691,265.028 218.203,264.327 212.744,263.535 C210.277,263.178 207.817,262.773 205.359,262.364 C204.406,262.205 200.639,261.939 200.323,261.574 C196.805,257.509 195.686,251.091 195.309,245.889 C194.995,241.556 196.699,236.408 195.136,232.308 C194.913,231.724 194.093,231.885 193.738,232.235 L193.738,232.235 Z" id="Shape"></path>
                    <path d="M298.011,239.809 C294.449,238.271 291.059,242.448 289.535,245.146 C286.766,250.049 285.447,257.143 287.096,262.638 C291.09,275.954 305.529,277.944 317.508,277.78 C329.107,277.621 343.99,277.78 351.884,267.839 C358.721,259.227 355.788,245.077 355.956,234.987 C356.026,230.814 351.087,231.003 348.508,232.268 C348.195,232.421 347.883,232.575 347.57,232.728 C345.354,233.815 343.69,236.413 343.743,238.877 C343.751,239.229 343.759,239.58 343.765,239.933 C343.789,241.052 344.621,241.912 345.688,242.123 C346.854,242.355 347.887,242.426 349.071,242.303 C347.559,241.084 346.049,239.865 344.538,238.647 C344.747,246.2 346.54,254.449 344.698,261.884 C343.146,268.145 330.814,267.07 326.012,267.424 C317.971,268.018 307.039,269.029 300.286,263.599 C294.776,259.168 292.332,246.832 297.877,241.536 C298.273,241.157 298.775,240.138 298.011,239.809 L298.011,239.809 Z" id="Shape"></path>
                    <path d="M254.375,258.18 C263.024,254.589 272.382,249.739 281.69,254.386 C287.102,257.088 295.369,247.607 289.331,244.3 C278.836,238.552 255.597,243.595 251.701,256.023 C251.199,257.625 252.983,258.759 254.375,258.18 L254.375,258.18 Z" id="Shape"></path>
                    <path d="M167.518,240.957 C166.199,245.501 166.939,250.324 167.232,254.982 C167.464,258.654 165.925,264.808 169.729,266.82 C170.664,267.315 171.754,266.857 172.5,266.244 C176.263,263.154 175.762,258.806 175.284,254.307 C174.772,249.488 173.67,243.442 170.726,239.517 C169.721,238.177 167.819,239.922 167.518,240.957 L167.518,240.957 Z" id="Shape"></path>
                    <path d="M201.091,374.191 C198.019,377.917 195.953,382.212 193.045,386.078 C189.929,390.221 185.684,393.509 181.341,396.266 C172.296,402.007 162.036,405.667 151.935,409.059 C128.365,416.971 104.191,421.884 81.485,432.385 C60.447,442.114 41.112,457.531 29.107,477.56 C20.695,491.593 13.887,506.784 7.318,521.742 C5.329,526.27 -4.745,543.851 3.301,547.079 C2.591,546.27 1.882,545.462 1.172,544.653 C1.4,545.212 1.667,545.789 2.11,546.202 C8.086,551.766 20.238,540.885 14.383,535.432 C14.633,535.852 14.884,536.273 15.134,536.694 C14.638,539.009 14.142,541.326 13.645,543.641 C14.736,542.141 14.836,541.649 15.411,539.954 C14.538,542.533 14.831,541.58 15.177,540.959 C13.252,544.421 16.552,538.137 16.878,537.164 C15.997,539.796 17.329,536.013 17.569,535.39 C18.214,533.715 18.9,532.056 19.59,530.4 C22.866,522.538 26.434,514.793 30.069,507.091 C33.625,499.558 37.182,492.028 41.078,484.661 C41.765,483.365 42.47,482.079 43.19,480.802 C43.492,480.27 43.802,479.742 44.115,479.216 C42.856,481.338 43.729,479.867 44.023,479.418 C47.378,474.291 51.378,469.479 55.693,465.135 C90.414,430.175 143.775,431.684 183.711,406.066 C189.915,402.087 195.758,397.262 200.048,391.223 C203.568,386.268 207.173,379.268 203.538,373.683 C202.951,372.777 201.543,373.644 201.091,374.191 L201.091,374.191 Z" id="Shape"></path>
                    <path d="M337.961,375.576 C328.945,394.371 351.262,411.389 365.626,418.594 C385.862,428.742 407.839,435.041 428.877,443.244 C451.667,452.132 474.439,462.681 492.769,479.215 C502.714,488.186 510.96,499.122 518.268,510.29 C526.295,522.557 532.356,535.872 533.617,550.583 C534.563,561.623 552.598,554.014 550.879,545.05 C550.346,542.268 549.537,540.316 548.264,537.819 C544.752,530.932 535.257,536.706 534.043,542.401 C533.451,545.178 533.56,547.776 533.617,550.584 C539.238,548.098 544.859,545.611 550.48,543.125 C544.857,516.907 528.111,491.348 509.428,472.485 C492.027,454.916 469.577,443.303 446.921,434.045 C425.546,425.31 403.346,418.893 381.668,411.002 C372.659,407.723 363.626,403.835 355.829,398.184 C352.216,395.565 348.716,392.361 346.458,388.447 C344.007,384.2 343.096,379.277 340.616,375.037 C339.946,373.888 338.434,374.594 337.961,375.576 L337.961,375.576 Z" id="Shape"></path>
                    <path d="M201.967,376.693 C201.101,379.928 199.837,382.716 199.15,386.023 C198.518,389.059 197.949,391.974 197.827,395.086 C197.548,402.215 198.273,409.269 199.424,416.295 C201.86,431.175 206.727,445.486 212.308,459.455 C218.02,473.758 224.938,487.569 231.964,501.263 C235.237,507.642 238.572,513.991 241.878,520.354 C243.314,523.117 244.739,525.884 246.154,528.658 C246.925,530.17 247.686,531.685 248.445,533.203 C248.969,534.252 249.777,537.898 250.096,535.362 C253.3,533.051 256.505,530.741 259.709,528.43 C253.866,526.452 245.909,534.653 251.048,539.783 C254.809,543.539 260.825,539.883 262.725,535.953 C262.859,535.676 262.994,535.398 263.126,535.122 C264.122,533.06 264.141,530.757 262.732,528.9 C259.268,524.334 256.927,518.386 254.154,513.356 C250.933,507.513 247.686,501.686 244.479,495.836 C237.342,482.821 230.538,469.651 224.272,456.194 C218.081,442.898 213.061,429.23 209.091,415.116 C207.284,408.692 206.183,402.055 205.373,395.439 C205,392.384 204.868,389.3 204.289,386.274 C203.726,383.336 203.237,379.329 203.464,376.389 C203.538,375.441 202.123,376.114 201.967,376.693 L201.967,376.693 Z" id="Shape"></path>
                    <path d="M338.252,376.693 C335.778,406.058 330.462,435.222 320.917,463.132 C316.153,477.061 310.182,490.56 303.448,503.641 C300.206,509.941 296.714,516.124 293.03,522.177 C291.196,525.191 289.359,528.213 287.237,531.032 C285.202,533.734 283.069,536.294 283.624,539.866 C284.991,548.667 297.211,542.353 297.073,535.553 C297.065,535.192 297.058,534.83 297.051,534.469 C296.486,536.114 295.921,537.758 295.356,539.403 C310.615,514.385 323.622,488.272 332.5,460.288 C336.877,446.491 339.604,432.212 341.183,417.841 C341.906,411.264 342.233,404.626 342.313,398.011 C342.404,390.546 341.001,383.526 339.654,376.243 C339.477,375.294 338.309,376.025 338.252,376.693 L338.252,376.693 Z" id="Shape"></path>
                    <path d="M265.5,393.872 C262.68,397.913 259.71,401.606 256.267,405.148 C253.454,408.04 248.219,412.005 247.334,416.133 C246.471,420.162 250.711,424.648 253.017,427.472 C255.832,430.925 261.854,435.728 261.954,440.513 C262.114,448.273 277.041,440.868 271.688,434.92 C268.663,431.558 266.584,427.356 263.467,423.942 C260.295,420.467 257.833,416.16 254.598,412.876 C254.674,414.078 254.75,415.28 254.827,416.482 C258.776,408.722 268.106,403.702 269.53,394.63 C269.946,391.979 266.63,392.253 265.5,393.872 L265.5,393.872 Z" id="Shape"></path>
                    <path d="M266.151,396.656 C269.497,400.985 273.828,404.351 277.883,407.982 C282.457,412.078 285.753,416.385 289.083,421.47 C288.987,419.976 288.894,418.481 288.798,416.986 C286.118,421.429 284.171,426.344 281.985,431.04 C280.629,433.955 274.284,443.034 280.737,444.23 C286.906,445.375 289.371,438.06 291.171,433.798 C293.3,428.755 295.067,423.458 297.696,418.646 C298.485,417.2 298.374,415.468 297.411,414.162 C291.016,405.478 279.73,396.959 269.905,392.628 C267.788,391.695 264.519,394.543 266.151,396.656 L266.151,396.656 Z" id="Shape"></path>
                    <path d="M262.886,437.563 C260.722,443.424 260.125,449.467 259.608,455.655 C258.908,464.02 258.27,472.393 257.326,480.735 C256.428,488.678 255.403,496.657 253.682,504.469 C253.073,507.232 252.287,509.938 251.199,512.549 C250.969,513.102 249.836,515.256 250.061,514.905 C249.718,515.439 247.24,519.006 248.108,517.579 C245.035,522.631 248.517,526.609 253.928,524.211 C259.661,521.67 261.771,513.818 263.073,508.269 C264.957,500.239 265.653,491.905 266.087,483.688 C266.543,475.04 266.664,466.368 266.735,457.709 C266.792,450.867 267.01,444.085 265.767,437.329 C265.475,435.734 263.332,436.355 262.886,437.563 L262.886,437.563 Z" id="Shape"></path>
                    <path d="M279.71,438.941 C277.98,444.774 278.338,450.638 278.852,456.664 C279.6,465.428 280.873,474.174 282.104,482.879 C283.302,491.354 284.761,499.794 286.336,508.207 C286.941,511.442 287.591,514.669 288.281,517.887 C288.733,519.995 288.974,523.14 290.462,524.834 C292.126,526.731 295.509,526.645 297.542,525.457 C298.367,524.975 299.053,524.41 299.632,523.646 C299.8,523.424 301.571,519.816 300.329,522.451 C298.92,525.441 301.338,520.303 301.419,519.922 C301.92,517.585 300.565,514.876 299.944,512.634 C299.083,509.521 298.325,506.377 297.575,503.236 C293.613,486.624 290.265,469.869 286.903,453.129 C285.845,447.859 284.63,442.95 282.743,437.964 C282.117,436.305 280.013,437.921 279.71,438.941 L279.71,438.941 Z" id="Shape"></path>
                    <path d="M252.971,311.691 C255.803,315.634 260.596,315.295 264.584,317.167 C266.778,318.197 269.084,317.92 271.399,318.287 C274.837,318.832 277.336,316.928 279.954,315.041 C283.657,312.374 284.491,305.677 279.281,304.379 C276.156,303.601 273.931,304.537 271.119,305.868 C272.309,305.485 273.5,305.101 274.69,304.719 C272.169,305.227 269.52,305.957 266.959,305.716 C263.608,305.401 260.425,304.429 257.052,305.061 C254.272,305.581 250.845,308.733 252.971,311.691 L252.971,311.691 Z" id="Shape"></path>
                    <path d="M374.61,244.118 C374.013,248.06 376.177,252.085 376.774,255.93 C377.875,254.506 378.976,253.081 380.077,251.657 C377.829,252.47 373.073,253.971 373.532,257.238 C374.064,261.029 379.475,258.616 381.307,257.585 C382.932,256.669 384.097,254.803 383.561,252.929 C382.565,249.449 381.097,245.074 378.685,242.292 C377.406,240.817 374.842,242.582 374.61,244.118 L374.61,244.118 Z" id="Shape"></path>
                </g>
            </g>
        </g>
    </g>
</svg>