<?xml version="1.0" encoding="UTF-8"?>
<svg width="475px" height="510px" viewBox="0 0 475 510" version="1.1" xmlns="http://www.w3.org/2000/svg" xmlns:xlink="http://www.w3.org/1999/xlink">
    <!-- Generator: Sketch 41 (35326) - http://www.bohemiancoding.com/sketch -->
    <title>farmer</title>
    <desc>Created with Sketch.</desc>
    <defs></defs>
    <g id="Page-1" stroke="none" stroke-width="1" fill="none" fill-rule="evenodd">
        <g id="Layer_1" transform="translate(-1663.000000, -5479.000000)" fill="#010101">
            <g id="Layer_1_3_">
                <g id="farmer" transform="translate(1663.000000, 5479.000000)">
                    <path d="M112.669,154.499 C117.428,140.344 135.333,136.429 148.286,134.105 C165.372,131.041 182.94,130.577 200.258,130.225 C221.567,129.791 242.895,128.431 264.21,129.059 C288.709,129.78 314.372,133.273 335.528,146.469 C337.592,147.756 339.451,149.276 341.227,150.931 C341.979,151.632 342.661,152.399 343.331,153.176 C343.862,153.979 344.024,154.162 343.814,153.727 C345.135,157.331 346.936,154.767 349.219,146.034 C345.983,147.356 343.125,149.743 342.357,153.329 C341.51,157.278 344.259,159.898 348.064,159.831 C353.768,159.73 359.95,154.644 359.682,148.604 C359.482,144.065 355.921,140.663 352.675,137.912 C344.075,130.626 333.42,126.197 322.788,122.79 C297.892,114.811 270.651,115.566 244.835,116.421 C226.51,117.026 208.138,117.667 189.832,118.759 C171.629,119.843 153.027,122.015 135.658,127.811 C123.338,131.921 106.503,140.404 105.01,155.121 C104.43,160.85 111.441,158.151 112.669,154.499 L112.669,154.499 Z" id="Shape"></path>
                    <path d="M131.201,155.249 C121.717,160.011 117.575,170.386 115.806,180.315 C113.789,191.639 113.419,203.725 114.203,215.173 C115.657,236.425 122.921,256.846 136.356,273.481 C167.849,312.471 225.828,320.737 270.902,303.931 C290.434,296.649 310.256,284.82 323.313,268.326 C335.99,252.311 342.479,231.767 346.459,212.02 C349.117,198.829 347.761,184.431 344.296,171.524 C341.15,159.798 331.699,143.2 317.314,149.52 C314.343,150.825 310.631,155.216 314.443,157.871 C316.035,158.979 316.895,160.296 318.865,160.957 C319.912,161.308 321.198,162.061 322.056,162.751 C325.107,165.202 327.081,168.612 328.645,172.128 C332.206,180.134 333.392,189.083 333.835,197.758 C334.325,207.34 332.542,215.902 330.073,225.26 C326.819,237.585 321.991,249.759 314.649,260.239 C307.131,270.972 295.901,278.372 284.574,284.61 C273.053,290.955 260.381,295.26 247.434,297.514 C222.045,301.934 195.606,297.551 172.868,285.525 C151.54,274.245 136.159,255.453 128.769,232.567 C124.843,220.411 123.689,208.085 122.9,195.411 C122.072,182.115 122.02,166.723 132.011,156.601 C132.769,155.834 132.307,154.693 131.201,155.249 L131.201,155.249 Z" id="Shape"></path>
                    <path d="M104.565,166.29 C103.785,169.212 102.404,171.89 101.707,174.787 C104.097,173.398 106.486,172.01 108.875,170.621 C100.723,164.413 92.325,171.454 88.174,178.612 C84.925,184.216 84.482,191.456 87.377,197.258 C92.018,206.56 105.039,213.345 115.272,210.18 C118.338,209.232 121.208,206.917 122.559,204.003 C124.059,200.772 122.883,196.315 118.648,196.659 C116.875,196.803 115.328,197.755 114.004,198.879 C112.591,200.079 113.516,199.371 114.66,198.892 C114.229,199.072 112.439,199.062 110.412,198.621 C105.57,197.566 101.153,194.444 98.356,190.405 C97.08,188.56 96.716,186.02 97.048,183.858 C97.292,182.262 97.986,180.9 98.718,179.482 C99.909,177.172 101.894,178.045 104.028,178.586 C106.783,179.284 110.877,175.991 110.346,173.042 C109.888,170.495 109.214,166.888 107.195,165.11 C106.221,164.254 104.847,165.229 104.565,166.29 L104.565,166.29 Z" id="Shape"></path>
                    <path d="M338.767,169.469 C345.162,168.285 350.393,165.581 356.997,167.141 C361.388,168.178 364.233,172.004 365.532,176.088 C369.761,189.399 354.437,197.312 344.11,199.776 C345.588,199.847 347.065,199.92 348.543,199.991 C348.31,199.83 348.076,199.669 347.843,199.508 C348.323,201.658 348.803,203.809 349.283,205.959 C349.341,205.835 349.398,205.711 349.456,205.588 C348.246,206.877 347.036,208.167 345.826,209.457 C348.156,208.051 349.905,206.738 351.159,204.243 C352.749,201.082 350.819,198.491 347.558,198.352 C344.278,198.213 341.016,199.76 339.093,202.414 C337.864,204.11 336.456,207.751 338.549,209.479 C343.61,213.66 351.67,209.146 356.862,206.676 C361.938,204.261 366.249,200.672 369.997,196.535 C375.531,190.428 378.707,181.337 377.112,173.15 C373.417,154.188 348.593,152.356 337.485,166.251 C336.571,167.397 336.799,169.833 338.767,169.469 L338.767,169.469 Z" id="Shape"></path>
                    <path d="M229.94,100.091 C199.336,101.372 168.942,103.044 138.28,102.384 C122.558,102.045 106.841,101.561 91.118,101.258 C76.398,100.973 61.308,100.264 46.637,101.725 C28.31,103.547 6.334,114.986 9.224,136.528 C11.703,155.007 26.555,163.954 41.27,172.143 C51.558,177.868 62.121,183.122 72.779,188.119 C76.391,189.813 80.077,191.801 83.901,192.977 C85.199,193.377 86.335,193.713 87.702,193.754 C85.448,193.687 87.816,193.828 88.148,193.795 C90.127,193.604 91.787,192.48 93.01,190.959 C97.671,185.166 89.397,181.896 85.408,186.852 C85.402,186.86 85.396,186.868 85.389,186.875 C87.003,185.937 88.618,184.999 90.233,184.062 C91.296,183.959 92.853,184.753 91.219,183.946 C90.455,183.569 89.718,183.161 88.933,182.827 C86.15,181.645 83.402,180.378 80.661,179.103 C73.001,175.544 65.43,171.79 57.935,167.895 C50.41,163.983 42.941,159.909 35.806,155.316 C28.834,150.829 24.54,145.736 21.298,137.846 C17.872,129.508 19.742,121.624 27.477,116.852 C37.375,110.743 49.847,111.07 61.027,110.819 C92.459,110.113 123.892,111.422 155.326,110.926 C180.232,110.534 205.825,109.467 229.779,102.017 C230.668,101.741 231.298,100.034 229.94,100.091 L229.94,100.091 Z" id="Shape"></path>
                    <path d="M248.167,102.861 C277.915,101.44 307.726,104.93 337.536,103.677 C370.049,102.31 402.327,97.6 434.88,96.797 C443.107,96.595 455.175,95.159 461.43,102.029 C465.413,106.403 463.774,113.187 462.185,118.187 C457.912,131.638 447.295,144.766 436.581,153.709 C426.569,162.067 415.481,169.272 404.24,175.847 C398.031,179.479 391.636,182.884 384.965,185.591 C380.599,187.363 375.334,189.439 370.507,189.142 C367.56,188.96 364.822,190.466 363.534,193.205 C362.491,195.423 363.02,198.569 365.858,199.002 C374.164,200.27 382.704,196.669 390.131,193.364 C400.238,188.867 409.804,183.251 419.084,177.253 C433.6,167.869 447.149,157.748 457.824,144.035 C466.248,133.214 477.075,116.958 474.074,102.426 C472.633,95.447 467.729,90.885 461.068,88.708 C449.333,84.873 435.362,86.959 423.308,87.678 C392.638,89.508 362.201,94.094 331.513,95.753 C317.552,96.508 303.627,96.206 289.656,96.061 C275.577,95.915 261.613,96.564 248.288,101.407 C247.652,101.638 247.119,102.911 248.167,102.861 L248.167,102.861 Z" id="Shape"></path>
                    <path d="M116.641,103.638 C127.935,82.95 134.532,59.616 148.713,40.526 C162.937,21.378 185.037,14.908 207.798,12.136 C230.776,9.338 253.537,11.033 276.143,15.52 C297.801,19.819 308.727,39.911 318.225,57.795 C321.662,64.266 325.366,70.582 328.444,77.238 C329.868,80.318 331.099,83.492 331.92,86.788 C332.131,87.639 332.295,88.783 332.203,89.654 C332.115,90.479 331.98,91.291 331.961,92.128 C331.886,95.3 332.231,92.212 332.232,92.207 C331.168,94.953 332.914,96.681 335.668,96.121 C354.063,92.386 333.002,60.379 328.884,52.798 C319.369,35.277 309.563,15.925 289.959,8.066 C280.235,4.168 269.109,2.795 258.756,1.69 C246.963,0.43 235.032,0.194 223.192,0.764 C200.592,1.853 176.44,6.1 157.796,19.686 C131.465,38.874 122.307,73.774 111.373,102.656 C109.808,106.788 115.083,106.493 116.641,103.638 L116.641,103.638 Z" id="Shape"></path>
                    <path d="M196.488,161.714 C189.32,166.676 188.267,175.619 190.073,183.629 C191.617,190.475 196.151,202.119 205.171,196.975 C212.356,192.873 215.502,180.911 215.771,173.302 C216.028,166.031 210.601,155.682 202.559,154.982 C197.674,154.557 193.216,158.369 193.062,163.317 C192.827,170.834 193.745,178.269 193.788,185.776 C193.824,192.191 201.591,190.237 204.729,187.918 C208.761,184.939 209,181.158 210.2,176.76 C210.95,174.009 209.288,171.185 206.473,170.662 C202.688,169.96 198.568,172.763 197.065,176.145 C196.597,177.1 196.218,178.088 195.926,179.113 C195.863,179.512 195.798,179.911 195.735,180.311 C195.362,182.29 195.78,181.885 196.991,179.1 C200.637,179.813 204.286,180.527 207.932,181.241 C207.78,173.82 206.617,166.507 206.181,159.11 C203.544,161.913 200.908,164.715 198.271,167.518 C201.184,167.276 196.114,166.331 198.936,168.116 C199.877,168.712 200.598,169.661 201.296,170.504 C202.591,172.067 203.057,174.205 203.248,176.167 C203.719,180.986 201.451,185.853 198.82,189.737 C200.739,188.623 202.658,187.508 204.576,186.394 C203.746,186.421 202.914,186.443 202.084,186.465 C203.337,186.911 204.59,187.358 205.844,187.805 C200.703,181.691 197.103,172.76 200.647,165.053 C201.94,162.239 199.021,159.961 196.488,161.714 L196.488,161.714 Z" id="Shape"></path>
                    <path d="M257.201,158.963 C249.543,167.756 249.746,183.853 253.3,194.231 C253.998,196.27 255.96,196.673 257.826,196.756 C267.609,197.194 273.456,183.705 275.035,175.336 C276.24,168.953 274.663,162.037 268.99,158.352 C263.328,154.674 255.801,157.51 252.318,162.915 C247.356,170.616 249.848,179.673 253.55,187.361 C257.229,195 270.363,186.369 267.073,179.654 C265.864,177.186 264.812,174.692 264.025,172.056 C263.755,171.154 263.604,170.288 263.493,169.352 C263.455,169.034 263.572,166.542 263.423,167.66 C263.674,165.781 263.274,167.649 263.669,166.863 C263.253,167.69 261.232,169.367 261.692,169.101 C261.135,169.421 258.699,169.828 260.508,169.669 C261.447,169.587 259.337,169.405 260.995,169.81 C259.592,169.468 261.499,170.611 261.574,170.738 C262.434,172.205 262.588,173.339 262.667,174.767 C262.943,179.746 259.658,184.585 256.922,188.438 C258.887,187.296 260.854,186.155 262.818,185.013 C261.984,185.049 261.15,185.085 260.316,185.122 C261.825,185.964 263.334,186.806 264.842,187.647 C262.823,183.246 261.863,178.639 261.294,173.849 C260.706,168.895 261.727,164.073 261.564,159.174 C261.477,156.527 258.204,157.812 257.201,158.963 L257.201,158.963 Z" id="Shape"></path>
                    <path d="M128.062,74.063 C142.421,72.614 156.195,73.309 170.52,75.063 C184.931,76.828 199.334,79.352 213.889,79.479 C252.488,79.815 291.663,77.139 328.562,65.06 C331.656,64.047 333.826,58.361 329.121,58.393 C325.328,58.418 322.001,58.877 318.638,60.653 C316.602,61.727 315.704,65.631 318.91,65.504 C321.833,65.388 324.723,65.251 327.652,65.243 C327.839,63.021 328.025,60.799 328.211,58.576 C291.308,70.498 252.624,73.255 214.05,73.083 C198.926,73.016 183.786,70.15 168.774,68.585 C156.103,67.265 140.426,65.091 128.376,70.342 C126.912,70.979 125.292,74.342 128.062,74.063 L128.062,74.063 Z" id="Shape"></path>
                    <path d="M131.66,67.696 C127.867,77.399 122.45,86.748 121.075,97.213 C120.453,101.946 126.744,99.997 127.604,96.685 C130.096,87.08 136.726,79.218 141.448,70.652 C139.326,70.553 137.205,70.455 135.083,70.355 C132.065,80.355 127.096,89.465 127.668,100.203 C127.895,104.456 133.607,102.116 134.692,99.635 C138.076,91.898 141.696,84.309 145.768,76.908 C143.412,77.099 141.055,77.29 138.699,77.48 L138.699,98.144 C138.699,101.871 143.922,100.502 145.227,98.461 C149.768,91.363 153.48,84.073 155.957,76.002 C153.613,76.476 151.269,76.949 148.926,77.423 C148.702,85.431 147.115,93.098 148.929,101.038 C149.615,104.042 154.253,102.171 155.27,100.523 C159.846,93.104 161.781,84.575 165.822,76.898 C163.497,77.086 161.173,77.275 158.848,77.463 C158.879,84.907 159.629,93.317 165.371,98.709 C167.643,100.844 170.706,98.713 171.96,96.549 C174.882,91.502 177.742,86.453 179.939,81.039 C177.582,81.23 175.223,81.421 172.866,81.612 C172.981,88.39 173.876,95.455 178.434,100.777 C180.105,102.728 183.257,101.16 184.474,99.522 C188.667,93.882 191.066,87.353 194.035,81.043 C191.716,81.516 189.396,81.987 187.078,82.46 C188.882,88.064 191.369,96.411 198.514,96.434 C205.589,96.456 209.893,86.163 212.126,81.044 C209.807,81.517 207.486,81.988 205.166,82.461 C207.718,88.142 211.484,96.028 218.918,95.239 C225.918,94.496 230.352,86.512 233.301,81.057 C231.081,81.784 228.862,82.512 226.642,83.241 C230.594,88.225 235.289,93.307 242.021,93.598 C249.97,93.94 253.955,84.044 255.829,78.035 C254.272,79.401 252.716,80.767 251.158,82.135 C251.828,82.135 252.498,82.135 253.168,82.137 C252.337,81.84 251.506,81.544 250.675,81.248 C255.015,86.812 259.696,92.563 266.421,95.258 C268.764,96.197 271.66,94.781 272.615,92.444 C274.977,86.666 277.678,81.321 278.075,75.001 C275.626,76.408 273.178,77.815 270.729,79.222 C276.708,84.277 283.053,88.802 289.5,93.236 C292.5,95.299 296.023,91.063 296.192,88.424 C296.461,84.225 297.947,80.243 298.217,76.021 C295.741,77.443 293.266,78.866 290.79,80.289 C294.858,85.435 299.332,89.857 305.554,92.237 C308.319,93.295 311.659,91.281 312.228,88.359 C313.292,82.886 314.203,77.458 314.34,71.875 C311.838,73.313 309.336,74.75 306.834,76.188 C311.201,81.61 316.48,85.883 322.606,89.177 C325.378,90.667 329.946,87.405 329.436,84.266 C328.707,79.772 330.185,75.328 329.453,70.828 C326.767,72.016 324.081,73.205 321.395,74.392 C323.617,79.826 326.448,84.947 329.731,89.808 C330.503,87.59 331.276,85.373 332.047,83.157 C330.384,84.08 329.037,84.949 327.163,85.416 C323.807,86.252 322.029,92.043 326.6,92.132 C329.56,92.19 332.031,91.279 334.691,90.073 C337.023,89.015 338.655,85.635 337.007,83.422 C333.853,79.19 331.274,74.791 329.261,69.908 C327.522,65.686 320.595,69.799 321.203,73.472 C321.945,77.961 320.477,82.404 321.22,86.898 C323.497,85.261 325.774,83.625 328.05,81.987 C322.407,78.974 317.707,75.154 313.678,70.179 C311.013,66.89 306.238,71.534 306.172,74.492 C306.064,79.412 305.191,84.185 304.265,89.004 C306.49,87.711 308.714,86.419 310.939,85.126 C305.205,82.949 301.316,79.067 297.562,74.344 C294.894,70.989 290.31,75.783 290.135,78.612 C289.876,82.807 288.402,86.788 288.141,91.006 C290.372,89.402 292.603,87.798 294.833,86.194 C288.869,82.117 282.96,77.997 277.425,73.344 C274.353,70.761 270.283,74.189 270.079,77.565 C269.789,82.375 267.271,86.736 265.492,91.118 C267.556,90.18 269.622,89.241 271.686,88.304 C267.427,86.614 264.311,83.717 261.286,80.355 C259.875,78.787 258.583,77.108 257.28,75.451 C256.276,74.173 254.173,74.564 252.777,74.564 C250.512,74.566 248.701,76.689 248.106,78.664 C247.311,81.297 246.074,87.245 242.225,85.833 C238.409,84.432 235.516,80.652 233.078,77.592 C231.108,75.121 227.457,77.848 226.419,79.777 C225.194,82.051 222.773,87.688 219.695,88.039 C216.281,88.428 213.257,80.449 212.342,78.373 C210.905,75.114 206.423,77.44 205.382,79.79 C204.854,80.981 201.156,89.642 199.809,89.086 C196.549,87.741 195.161,81.271 194.25,78.374 C193.133,74.818 188.259,77.769 187.293,79.791 C184.6,85.433 182.465,91.351 178.766,96.441 C180.779,96.022 182.792,95.604 184.806,95.186 C180.924,90.784 180.375,84.863 180.326,79.222 C180.288,74.938 174.276,77.325 173.253,79.795 C171.014,85.204 168.108,90.24 165.151,95.281 C167.347,94.56 169.544,93.841 171.74,93.121 C166.719,88.554 166.302,81.492 166.203,75.105 C166.135,70.679 160.381,73.515 159.229,75.67 C155.317,82.998 153.446,91.273 149.143,98.394 C151.437,97.926 153.731,97.459 156.024,96.992 C154.303,89.832 155.947,82.394 156.027,75.146 C156.078,70.539 149.758,73.943 148.996,76.567 C147.028,83.338 143.403,89.533 139.627,95.436 C141.804,95.541 143.98,95.647 146.155,95.753 L146.155,75.089 C146.155,70.561 140.249,73.547 139.086,75.661 C135.026,83.037 131.232,90.595 128.053,98.395 C130.394,98.206 132.736,98.016 135.077,97.827 C134.292,87.957 138.892,79.026 141.73,69.815 C143.095,65.387 136.72,67.09 135.365,69.518 C130.301,78.588 123.484,86.912 121.072,97.212 C123.249,97.035 125.425,96.859 127.601,96.684 C128.671,86.612 132.558,77.528 135.268,67.864 C135.94,65.481 132.307,66.038 131.66,67.696 L131.66,67.696 Z" id="Shape"></path>
                    <path d="M178.005,231.893 C178.109,232.155 178.201,232.309 178.421,232.489 C179.171,233.104 180.068,233.122 180.913,232.623 C182.419,231.732 183.795,230.382 185.442,229.761 C184.452,228.962 183.463,228.163 182.472,227.365 C176.73,246.152 205.373,247.067 216.596,247.087 C216.479,245.003 216.362,242.919 216.244,240.835 C215.249,241.514 214.221,242.001 213.141,242.532 C211.913,243.136 210.74,244.741 210.881,246.164 C211.252,249.888 216.587,247.65 218.411,246.503 C220.895,244.94 222.296,240.245 218.059,240.251 C211.757,240.259 205.471,240.117 199.309,238.656 C196.526,237.996 193.652,236.823 191.467,234.936 C188.711,232.556 188.651,229.545 188.183,226.211 C187.845,223.806 185.179,224.107 183.718,225.337 C181.894,226.874 178.378,228.968 178.05,231.529 C178.716,231.143 179.383,230.755 180.049,230.368 C179.986,230.333 179.923,230.298 179.86,230.263 C178.983,229.78 177.638,230.957 178.005,231.893 L178.005,231.893 Z" id="Shape"></path>
                    <path d="M463.23,272.641 C463.279,272.641 463.312,272.555 463.25,272.555 C463.201,272.555 463.167,272.641 463.23,272.641 L463.23,272.641 Z" id="Shape"></path>
                    <path d="M70.042,324.495 C74.274,336.817 80.318,348.499 85.362,360.509 C91.071,374.103 96.473,387.818 101.099,401.822 C105.594,415.432 109.321,429.343 111.481,443.524 C112.444,449.855 112.988,456.245 113.098,462.647 C113.149,465.622 113.069,468.618 112.817,471.584 C112.583,474.345 111.829,476.957 112.848,479.635 C114.494,483.957 119.787,480.265 121.203,477.935 C124.022,473.29 123.307,465.973 123.22,460.71 C123.116,454.383 122.363,448.074 121.366,441.832 C119.094,427.605 115.086,413.675 110.435,400.061 C105.519,385.669 99.719,371.534 93.31,357.746 C87.59,345.44 81.959,332.699 74.221,321.512 C72.812,319.471 69.375,322.553 70.042,324.495 L70.042,324.495 Z" id="Shape"></path>
                    <path d="M118.457,480.926 C126.211,479.01 134.176,477.87 142.129,477.238 C149.247,476.672 156.023,477.174 163.071,477.256 C166.861,477.299 172.092,470.454 167.454,467.993 C164.602,466.479 160.813,466.916 157.687,466.974 C153.126,467.06 148.567,467.541 144.06,468.22 C135.173,469.56 125.152,470.988 117.401,475.833 C114.849,477.429 114.55,481.891 118.457,480.926 L118.457,480.926 Z" id="Shape"></path>
                    <path d="M123.257,297.434 C122.413,300.623 126.015,305.896 127.398,309.591 C130.319,317.398 134.075,324.975 137.301,332.663 C142.28,344.529 147.54,356.392 152.057,368.44 C157.584,383.18 162.411,398.224 166.54,413.414 C170.432,427.732 175.636,444.689 173.37,459.691 C172.766,463.688 172.368,462.625 170.495,466.176 C168.691,469.596 171.701,472.822 175.253,471.599 C188.319,467.099 184.213,445.045 182.585,435.21 C179.655,417.511 174.476,400.146 168.855,383.138 C165.214,372.122 160.965,361.529 156.335,350.914 C149.745,335.804 143.795,320.217 135.666,305.845 C133.987,302.879 131.707,298.505 128.814,296.526 C127.254,295.459 123.917,294.945 123.257,297.434 L123.257,297.434 Z" id="Shape"></path>
                    <path d="M318.816,295.301 C296.373,315.791 289.546,349.487 287,378.501 C284.258,409.734 286.117,441.413 281.116,472.438 C284.652,471.723 288.187,471.008 291.723,470.294 C291.679,466.932 290.867,464.943 288.167,462.947 C285.033,460.63 280.743,465.357 280.759,468.273 C280.769,470.101 280.983,471.9 281.006,473.729 C281.091,480.298 290.88,476.136 291.613,471.585 C296.363,442.122 294.975,412.118 296.813,382.424 C297.76,367.123 299.59,351.911 303.395,337.038 C307.088,322.6 313.824,309.454 321.271,296.644 C322.278,294.917 319.917,294.295 318.816,295.301 L318.816,295.301 Z" id="Shape"></path>
                    <path d="M373.28,319.676 C364.187,324.961 360.444,338.603 357.661,347.993 C354.088,360.054 351.6,372.492 349.46,384.875 C344.193,415.337 341.194,446.232 339.973,477.115 C343.438,474.624 346.902,472.133 350.366,469.642 C348.865,469.091 347.596,467.121 345.284,466.678 C340.505,465.765 335.115,471.762 338.063,476.142 C339.162,477.772 340.167,479.81 342.081,480.58 C347.017,482.568 352.319,478.139 352.474,473.107 C353.367,443.876 356.013,414.824 360.23,385.885 C361.895,374.458 363.9,363.021 366.209,351.704 C367.315,346.284 368.693,340.907 370.357,335.632 C371.896,330.749 374.765,326.035 375.674,321.011 C375.943,319.517 374.411,319.018 373.28,319.676 L373.28,319.676 Z" id="Shape"></path>
                    <path d="M282.079,476.7 C299.467,484.29 317.433,482.46 335.858,484.514 C337.541,479.594 339.224,474.676 340.906,469.756 C335.214,469.967 329.347,473.9 328.094,479.688 C327.853,480.804 327.927,482.518 328.883,483.35 C331.674,485.775 334.347,485.242 337.726,484.6 C341.98,483.791 345.919,481.054 346.881,476.565 C347.708,472.703 344.939,469.321 340.905,469.756 C322.759,471.716 303.621,472.237 285.404,471.234 C283.183,471.112 278.693,475.221 282.079,476.7 L282.079,476.7 Z" id="Shape"></path>
                    <path d="M149.045,429.44 C146.382,428.215 145.456,427.491 142.451,427.481 C139.777,427.472 136.611,429.023 134.644,430.755 C129.977,434.865 127.772,440.441 128.105,446.62 C128.858,460.596 144.774,466.932 156.237,461.607 C167.847,456.215 171.741,440.388 162.093,431.654 C158.004,427.951 152.679,425.799 147.267,424.992 C140.591,423.998 135.248,426.031 131.503,431.596 C130.729,432.745 130.284,435.277 132.363,435.45 C133.13,435.514 133.294,436.307 134.842,436.465 C136.24,436.607 137.623,436.702 139.031,436.691 C141.984,436.666 144.857,437.168 147.59,438.306 C151.803,440.062 157.477,444.343 155.055,449.466 C151.954,456.028 143.68,450.566 140.672,446.979 C135.065,440.294 139.936,432.705 147.809,432.049 C148.77,431.971 150.468,430.094 149.045,429.44 L149.045,429.44 Z" id="Shape"></path>
                    <path d="M323.475,434.281 C314.273,424.843 301.99,437.426 299.816,446.615 C298.554,451.945 299.83,458.01 303.147,462.304 C307.091,467.411 314.478,467.156 319.925,465.237 C329.451,461.88 339.328,450.497 333.822,440.114 C329.018,431.055 311.702,426.383 305.513,436.435 C304.725,437.715 304.103,439.271 305.192,440.604 C308.42,444.555 315.074,442.354 319.403,444.711 C322.132,446.196 324.338,449.757 321.714,452.262 C317.047,456.714 312.546,454.686 310.866,449.113 C310.032,446.343 310.471,442.83 312.179,440.521 C314.035,438.011 318.515,438.143 321.247,437.9 C322.619,437.779 324.836,435.678 323.475,434.281 L323.475,434.281 Z" id="Shape"></path>
                    <path d="M165.056,473.994 C183.812,477.27 202.891,473.525 221.561,470.997 C242.457,468.166 263.601,466.471 284.374,471.068 C285.343,468.237 286.312,465.406 287.279,462.575 C284.118,463.206 281.534,464.333 278.633,465.718 C277.388,466.312 275.518,469.484 277.661,470.255 C280.31,471.209 282.655,471.069 285.449,471.118 C289.405,471.188 293.618,463.725 288.354,462.625 C267.911,458.347 247.283,459.872 226.788,462.917 C206.418,465.943 186.155,469.606 165.708,472.087 C164.912,472.184 163.795,473.773 165.056,473.994 L165.056,473.994 Z" id="Shape"></path>
                    <path d="M158.276,298.075 C160.38,305.012 166.261,311.105 170.542,316.766 C177.618,326.123 185.012,335.266 192.444,344.339 C198.953,352.284 205.5,360.23 212.56,367.695 C217.194,372.593 223.493,379.265 229.624,371.9 C231.079,370.151 231.878,366.161 229.154,365.024 C229.59,365.206 230.126,365.914 230.43,366.485 C229.83,365.361 229.456,364.95 228.428,364.204 C230.015,365.355 226.659,362.93 226.114,362.517 C226.514,362.82 224.35,361.007 223.794,360.497 C222.38,359.206 221.009,357.87 219.645,356.528 C212.421,349.424 205.51,341.99 198.624,334.561 C191.178,326.528 183.833,318.389 176.266,310.471 C171.636,305.627 166.658,298.967 160.297,296.299 C159.271,295.871 157.943,296.979 158.276,298.075 L158.276,298.075 Z" id="Shape"></path>
                    <path d="M228.23,372.924 C244.688,369.979 256.013,352.395 266.38,340.694 C279.412,325.985 294.153,313.362 309.552,301.227 C314.023,297.705 312.493,289.508 305.886,291.803 C302.917,292.834 300.886,294.358 298.836,296.688 C297.839,297.823 297.132,300.389 298.459,301.584 C300.009,302.98 301.465,302.973 303.437,303.234 C303.233,300.009 303.029,296.786 302.826,293.562 C288.312,304.79 274.924,317.407 262.655,331.039 C256.863,337.475 251.75,344.442 246.078,350.973 C240.376,357.541 233.746,363.362 227.461,369.35 C226.408,370.353 225.841,373.352 228.23,372.924 L228.23,372.924 Z" id="Shape"></path>
                    <path d="M223.43,365.84 C215.29,368.414 208.843,376.957 203.22,382.914 C199.97,386.356 196.689,389.766 193.172,392.937 C190.312,395.517 186.296,396.959 183.898,399.876 C182.054,402.117 182.42,405.227 185.296,406.143 C188.782,407.252 192.645,403.759 195.146,401.755 C198.892,398.754 202.097,395.013 205.291,391.452 C211.897,384.083 219.415,376.621 225.027,368.465 C225.962,367.106 225.298,365.25 223.43,365.84 L223.43,365.84 Z" id="Shape"></path>
                    <path d="M134.408,287.168 C133.19,295.658 138.014,306.071 140.909,313.874 C144.697,324.088 149.058,334.143 153.821,343.939 C163.19,363.212 173.447,382.015 182.341,401.517 C185.488,399.269 188.637,397.022 191.785,394.775 C190.648,392.945 189.231,392.036 187.144,391.64 C184.183,391.078 181.161,393.981 181.181,396.872 C181.194,398.591 181.661,399.954 182.34,401.517 C184.848,407.285 194.849,400.789 192.393,395.787 C183.239,377.142 172.669,359.189 162.966,340.828 C158.163,331.74 153.387,322.646 149.079,313.31 C146.851,308.482 144.888,303.552 142.841,298.648 C141.167,294.64 139.8,289.274 136.814,286.088 C136.039,285.261 134.542,286.225 134.408,287.168 L134.408,287.168 Z" id="Shape"></path>
                    <path d="M231.401,367.082 C231.148,373.776 239.47,381.714 243.364,386.531 C249.207,393.76 255.89,400.259 261.802,407.409 C264.272,410.397 269.055,407.258 270.263,404.634 C275.212,393.89 285.961,386.632 294.169,378.445 C295.879,376.739 297.622,373.71 295.662,371.477 C293.258,368.737 289.357,371.125 287.516,373.169 C286.492,374.306 285.763,375.58 285.565,377.113 C285.298,379.182 286.521,381.372 288.946,380.966 C291.031,380.616 292.592,379.864 294.169,378.445 C299.477,373.665 293.578,367.021 288.56,372.052 C278.815,381.821 265.649,390.613 261.113,404.206 C264.07,402.881 267.027,401.556 269.984,400.229 C262.881,394.31 256.458,387.319 250.044,380.67 C247.129,377.647 244.194,374.643 241.319,371.58 C239.089,369.208 236.715,366.133 233.47,365.266 C232.422,364.987 231.436,366.143 231.401,367.082 L231.401,367.082 Z" id="Shape"></path>
                    <path d="M303.219,282.85 C303.581,285.811 304.551,288.436 306.286,290.904 C307.884,293.175 311.645,296.233 312.305,298.91 C312.851,301.125 315.365,301.607 317.231,301.659 C329.673,302.003 342.478,308.27 352.912,314.764 C356.67,317.104 360.31,319.643 363.871,322.269 C365.31,323.331 366.596,324.706 368.117,325.639 C368.814,326.069 369.593,326.452 370.404,326.602 C371.042,326.693 371.678,326.71 372.314,326.653 C374.804,326.214 374.452,326.184 371.255,326.565 C374.94,327.567 378.806,323.809 379.611,320.54 C378.816,323.768 379.987,318.651 379.964,318.212 C379.89,316.807 379.194,315.724 378.378,314.629 C376.948,312.71 374.067,311.183 372.13,309.78 C367.67,306.55 363.046,303.454 358.222,300.792 C350.653,296.615 342.37,293.25 334.071,290.866 C331.729,290.193 329.333,289.772 326.926,289.417 C324.986,289.13 321.642,289.686 319.946,288.566 C315.753,285.799 312.486,281.852 308.158,279.297 C306.122,278.096 302.951,280.657 303.219,282.85 L303.219,282.85 Z" id="Shape"></path>
                    <path d="M376.957,324.705 C384.085,337.677 392.945,349.49 399.707,362.724 C407.339,377.662 413.132,393.824 418.15,409.796 C423.067,425.445 427.077,441.483 429.739,457.671 C432.183,472.536 434.325,488.514 432.615,503.567 C437.236,502.633 441.859,501.7 446.48,500.767 C446.387,499.419 446.209,498.127 445.949,496.804 C444.441,489.125 434.178,493.543 433.136,499.392 C432.788,501.341 432.603,503.28 432.472,505.256 C432.21,509.181 436.924,510.31 439.822,509.382 C443.468,508.216 446.54,504.696 446.48,500.767 C446.249,485.339 445.621,470.203 443.039,454.954 C440.149,437.891 435.732,421.149 429.861,404.876 C424.182,389.138 417.302,373.665 408.852,359.214 C401.159,346.056 393.772,331.112 381.827,321.229 C379.889,319.625 375.597,322.232 376.957,324.705 L376.957,324.705 Z" id="Shape"></path>
                    <path d="M144.78,273.635 C135.16,276.473 128.312,286.223 120.508,291.994 C117.85,293.961 116.021,298.725 118.468,301.515 C121.576,305.056 127.342,302.269 129.596,299.202 C134.964,291.898 143.235,286.954 148.41,279.604 C150.622,276.463 148.982,272.396 144.78,273.635 L144.78,273.635 Z" id="Shape"></path>
                    <path d="M124.038,294.033 C117.002,290.637 108.037,293.255 101.117,295.8 C92.418,298.999 84.397,305.169 77.44,311.142 C63.484,323.125 51.087,338.037 40.928,353.351 C14.875,392.619 2.751,439.835 1.673,486.637 C5.928,484.193 10.183,481.748 14.437,479.304 C13.432,478.185 12.929,476.674 11.789,475.683 C6.966,471.492 -1.318,477.836 0.592,483.675 C1.311,485.877 1.238,487.375 2.797,489.519 C7.084,495.419 15.429,486.973 15.561,482.186 C16.719,440.099 26.942,397.806 49.159,361.717 C57.753,347.757 68.219,334.261 79.801,322.665 C85.748,316.711 92.222,311.226 99.494,306.963 C106.862,302.644 114.327,301.067 122.405,298.783 C123.992,298.334 126.359,295.153 124.038,294.033 L124.038,294.033 Z" id="Shape"></path>
                    <path d="M51.377,354.275 C48.14,379.005 42.606,403.432 42.345,428.502 C42.141,448.053 46.164,470.778 37.071,488.912 C39.532,488.411 41.993,487.909 44.455,487.408 C43.637,484.85 42.99,482.447 41.951,479.978 C40.871,477.409 37.743,479.899 37.212,481.505 C35.979,485.235 35.858,487.93 36.838,491.749 C37.824,495.591 43.284,492.312 44.222,490.245 C52.409,472.196 48.974,449.835 48.448,430.689 C47.742,405.001 53.298,379.694 52.661,354.015 C52.64,353.229 51.451,353.711 51.377,354.275 L51.377,354.275 Z" id="Shape"></path>
                    <path d="M66.378,336.75 C63.679,360.905 57.39,384.476 55.745,408.754 C53.962,435.078 57.977,461.581 55.148,487.842 C57.682,486.705 60.216,485.57 62.751,484.434 C61.403,482.842 60.207,481.427 58.292,480.542 C55.561,479.279 52.346,482.379 53.055,485.139 C53.587,487.211 54.396,488.924 55.74,490.586 C58.478,493.971 63.339,489.184 63.428,486.169 C64.172,460.928 61.507,435.775 62.106,410.551 C62.412,397.656 64.207,385.002 66.162,372.278 C67.985,360.408 69.884,348.321 68.669,336.288 C68.527,334.9 66.494,335.72 66.378,336.75 L66.378,336.75 Z" id="Shape"></path>
                    <path d="M96.388,381.436 C94.005,417.247 86.28,452.791 87.23,488.807 C87.368,494.034 95.32,490.345 95.32,486.213 C95.32,483.658 94.857,482.166 93.58,479.997 C92.463,478.1 89.871,479.215 89.111,480.907 C87.888,483.633 87.23,485.804 87.23,488.806 C89.926,487.942 92.624,487.077 95.32,486.212 C92.452,450.937 100.707,416.004 98.56,380.739 C98.47,379.278 96.458,380.397 96.388,381.436 L96.388,381.436 Z" id="Shape"></path>
                    <path d="M106.332,415.303 C103.655,427.004 104.019,439.668 102.597,451.592 C101.106,464.081 99.212,476.914 95.27,488.891 C98.147,488.31 101.024,487.729 103.902,487.148 C103.872,485.047 103.943,482.513 102.214,481.033 C100.618,479.667 98.3,480.479 97.151,482.085 C95.428,484.49 95.223,487.05 95.182,489.943 C95.107,495.307 103.151,491.838 103.814,488.2 C106.074,475.802 108.535,463.611 109.599,451.024 C110.585,439.363 112.173,425.828 109.245,414.366 C108.829,412.741 106.549,414.354 106.332,415.303 L106.332,415.303 Z" id="Shape"></path>
                    <path d="M2.261,470.989 C5.403,473.847 10.718,474.106 14.76,474.455 C20.145,474.921 25.703,474.398 31.059,473.836 C43.215,472.56 55.232,470.689 67.427,469.726 C79.847,468.747 92.281,467.197 104.74,467.499 C107.916,467.577 112.031,467.957 114.911,466.313 C117.193,465.011 119.267,461.342 116.752,459.271 C114.39,457.327 109.342,460.43 110.884,463.46 C110.916,463.322 110.949,463.185 110.982,463.047 C112.063,461.899 113.143,460.749 114.224,459.601 C113.147,460.061 109.564,460.289 107.413,460.305 C104.04,460.33 100.682,460.064 97.318,460.366 C85.445,461.432 73.581,462.745 61.693,463.613 C51.851,464.332 42.124,466.494 32.352,467.801 C27.629,468.434 22.888,468.898 18.125,469.038 C13.362,469.18 8.436,468.116 3.742,468.582 C2.891,468.667 1.285,470.1 2.261,470.989 L2.261,470.989 Z" id="Shape"></path>
                    <path d="M10.658,460.827 C21.544,464.016 34.442,463.097 45.666,462.746 C55.971,462.424 66.204,461.025 76.508,460.893 C84.574,460.789 92.666,460.868 100.667,459.698 C106.127,458.899 115.719,457.025 117.167,450.582 C117.731,448.068 115.479,446.976 113.359,447.509 C111.24,448.042 109.591,449.712 107.525,450.485 C104.367,451.666 100.964,452.102 97.637,452.494 C90.44,453.342 83.159,453.332 75.927,453.597 C66.3,453.95 56.72,455.442 47.1,456.054 C35.47,456.793 23.776,455.516 12.203,456.311 C10.119,456.452 7.856,460.005 10.658,460.827 L10.658,460.827 Z" id="Shape"></path>
                    <path d="M19.428,422.162 C26.214,425.131 35.378,424.355 42.596,423.98 C52.039,423.489 61.345,422.805 70.811,422.991 C79.11,423.154 87.411,423.295 95.699,422.728 C101.381,422.339 110.809,422.353 113.887,416.773 C114.324,415.981 114.485,414.439 113.697,413.77 C113.584,413.673 113.471,413.578 113.358,413.481 C112.284,412.57 110.985,412.227 109.607,412.747 C103.352,415.105 96.239,415.268 89.629,415.55 C82.413,415.857 75.182,415.738 67.961,415.745 C59.28,415.754 50.721,416.817 42.085,417.544 C37.2,417.954 32.268,418.097 27.374,417.769 C24.508,417.576 21.912,417.134 19.664,419.123 C18.93,419.77 18.113,421.586 19.428,422.162 L19.428,422.162 Z" id="Shape"></path>
                    <path d="M19.073,409.881 C25.224,411.27 31.961,410.383 38.195,409.976 C45.84,409.476 53.482,408.735 61.103,407.951 C68.431,407.196 75.767,406.493 83.123,406.068 C89.203,405.717 95.01,406.493 101.018,406.579 C104.77,406.633 108.381,400.147 103.69,398.768 C98.777,397.323 92.235,398.329 87.188,398.593 C79.456,398.998 71.747,399.887 64.057,400.764 C56.338,401.645 48.634,402.663 40.922,403.602 C33.931,404.454 26.779,404.674 19.883,406.104 C18.311,406.43 16.9,409.391 19.073,409.881 L19.073,409.881 Z" id="Shape"></path>
                    <path d="M39.784,364.319 C43.228,364.909 46.781,364.114 50.226,363.772 C54.522,363.344 58.868,363.316 63.18,363.291 C67.616,363.265 72.052,363.423 76.484,363.575 C80.721,363.721 85.339,363.373 89.508,364.17 C90.368,361.657 91.228,359.145 92.087,356.632 C88.973,356.517 86.013,357.041 83.418,358.79 C82.507,359.404 81.366,360.843 82.324,361.931 C84.366,364.248 87.526,364.322 90.462,364.214 C94.944,364.052 97.233,355.788 92.087,356.632 C83.323,358.068 73.518,356.447 64.628,356.534 C56.955,356.609 46.61,356.352 40.059,360.954 C39.103,361.625 37.744,363.969 39.784,364.319 L39.784,364.319 Z" id="Shape"></path>
                    <path d="M48.801,352.519 C54.573,353.528 61.095,352.71 66.963,352.819 C69.828,352.872 72.697,352.893 75.562,352.795 C76.554,352.761 77.539,352.669 78.521,352.524 C79.771,352.338 83.902,349.42 81.409,351.147 C82.936,350.089 85.741,345.3 81.909,345.048 C82.997,345.824 83.044,345.831 82.049,345.068 C81.465,344.772 80.847,344.656 80.194,344.719 C79.206,344.888 78.219,344.986 77.219,345.062 C73.942,345.312 70.637,345.256 67.352,345.319 C61.587,345.426 54.281,344.958 49.167,348.053 C47.774,348.897 46.186,352.062 48.801,352.519 L48.801,352.519 Z" id="Shape"></path>
                    <path d="M196.738,392.532 C193.565,403.842 194.804,417.018 194.685,428.659 C194.556,441.37 195.184,454.481 194.06,467.141 C193.602,472.293 200.858,470.523 201.337,466.551 C201.672,463.78 201.06,462.326 199.563,460.044 C198.567,458.523 196.212,460.266 195.708,461.309 C194.617,463.559 193.654,465.483 193.984,468.037 C194.605,472.823 201.774,469.493 201.414,465.656 C200.27,453.501 200.858,440.891 200.732,428.677 C200.666,422.18 200.615,415.684 200.455,409.189 C200.316,403.557 200.427,397.31 198.635,391.92 C198.284,390.868 196.913,391.91 196.738,392.532 L196.738,392.532 Z" id="Shape"></path>
                    <path d="M209.878,382.223 C208.28,388.676 208.242,395.461 207.688,402.064 C207.037,409.804 206.605,417.567 206.275,425.327 C205.976,432.336 205.908,439.346 206.158,446.356 C206.277,449.717 206.54,453.071 206.875,456.417 C207.203,459.691 208.389,463.332 208.131,466.606 C207.736,471.643 215.875,468.124 216.197,464.02 C216.307,462.61 215.709,460.455 214.66,459.491 C213.231,458.178 210.939,458.993 209.93,460.473 C208.79,462.145 207.96,464.532 208.131,466.606 C208.56,471.789 216.543,468.211 216.197,464.02 C215.694,457.934 214.055,451.871 213.597,445.699 C213.04,438.194 213.057,430.645 213.144,423.125 C213.227,416.056 213.457,408.989 213.57,401.92 C213.678,395.197 214.167,387.958 212.349,381.427 C211.965,380.045 210.077,381.42 209.878,382.223 L209.878,382.223 Z" id="Shape"></path>
                    <path d="M254.033,394.644 C251.607,405.563 252.365,417.485 252.286,428.612 C252.206,440.059 252.691,451.499 252.666,462.939 C252.655,467.902 260.608,464.545 260.521,460.421 C260.47,458.03 260.582,455.602 258.103,454.522 C257.184,454.122 256.06,454.391 255.348,455.095 C252.986,457.428 252.733,459.713 252.665,462.939 C255.283,462.1 257.902,461.26 260.52,460.421 C259.438,449.164 259.397,437.735 259.07,426.436 C258.76,415.754 259.671,404.09 257.046,393.672 C256.625,391.995 254.252,393.657 254.033,394.644 L254.033,394.644 Z" id="Shape"></path>
                    <path d="M264.451,399.803 C262.037,412.397 262.1,426.323 262.517,439.121 C262.648,443.155 262.789,447.185 262.667,451.222 C262.609,453.125 262.392,454.975 261.929,456.823 C261.866,457.074 261.381,457.781 261.761,457.24 C263.364,454.96 263.931,456.226 262.249,456.292 C260.878,456.346 259.178,457.877 259.377,459.345 C260.105,464.685 265.474,464.039 268.329,460.298 C271.177,456.566 270.514,450.257 270.344,445.89 C270.148,440.847 269.443,435.843 269.294,430.799 C268.983,420.269 269.493,409.234 267.295,398.887 C266.96,397.314 264.632,398.86 264.451,399.803 L264.451,399.803 Z" id="Shape"></path>
                    <path d="M182.167,456.709 C192.937,458.496 204.278,457.519 215.138,457.121 C226.482,456.706 237.766,455.976 249.068,454.938 C257.019,454.208 264.972,453.515 272.927,452.846 C276.968,452.506 282.489,453.08 286.102,451.093 C284.985,449.231 283.868,447.367 282.749,445.505 C284.761,443.817 282.237,445.442 281.526,445.903 C280.086,446.837 278.268,449.583 280.472,450.821 C281.98,451.669 282.437,451.493 283.14,451.696 C286.534,452.676 291.319,446.672 287.511,444.514 C284.533,442.826 278.614,444.79 275.365,445.098 C267.741,445.816 260.113,446.484 252.491,447.233 C241.205,448.342 229.93,449.135 218.612,449.833 C207.033,450.546 195.194,450.386 183.722,452.157 C181.894,452.442 179.105,456.202 182.167,456.709 L182.167,456.709 Z" id="Shape"></path>
                    <path d="M180.305,467.643 C189.599,469.924 200.288,468.244 209.687,467.35 C219.988,466.371 230.297,465.657 240.609,464.816 C249.583,464.084 258.57,462.956 267.56,462.512 C270.289,462.377 273.015,461.976 275.731,461.679 C277.048,461.535 278.351,461.429 279.676,461.412 C280.202,461.393 280.729,461.391 281.255,461.404 C284.361,461.44 279.517,461.234 280.128,458.849 C279.686,460.576 281.041,461.993 282.757,461.844 C288.936,461.31 290.187,452.626 283.056,452.999 C275.044,453.419 266.925,454.699 258.94,455.511 C246.292,456.797 233.614,457.828 220.975,459.193 C207.837,460.611 193.96,461.157 181.073,464.06 C179.579,464.397 178.25,467.138 180.305,467.643 L180.305,467.643 Z" id="Shape"></path>
                    <path d="M173.566,418.733 C173.586,418.885 173.604,419.038 173.623,419.19 C173.733,420.088 174.25,420.809 175.188,420.973 C183.603,422.444 192.64,421.666 201.137,421.411 C210.919,421.117 220.7,420.531 230.472,420.006 C250.585,418.924 270.695,417.877 290.829,417.285 C295.464,417.149 298.672,408.87 292.614,408.951 C289.412,408.994 286.329,409.324 283.309,410.41 C281.683,410.995 278.756,414.478 281.482,415.723 C284.471,417.088 287.578,417.241 290.829,417.285 C291.424,414.507 292.019,411.729 292.614,408.951 C270.67,409.573 248.76,411.288 226.85,412.588 C216.059,413.228 205.262,413.765 194.465,414.3 C191.524,414.445 172.9,413.309 173.566,418.733 L173.566,418.733 Z" id="Shape"></path>
                    <path d="M172.86,410.231 C191.048,413.072 210.698,409.905 228.939,408.495 C238.502,407.756 248.071,407.084 257.655,406.673 C267.189,406.264 277.196,405.652 286.678,406.911 C287.624,404.145 288.571,401.379 289.517,398.612 C286.144,398.88 283.607,400.358 280.589,401.726 C279.351,402.288 277.602,405.366 279.649,406.118 C282.4,407.129 284.82,407.192 287.728,406.96 C292.28,406.596 295.638,398.455 289.517,398.612 C280.083,398.854 270.662,398.44 261.217,398.843 C251.62,399.253 242.04,400.033 232.47,400.84 C222.819,401.653 213.176,402.56 203.517,403.282 C193.822,404.008 184.047,404.217 174.428,405.645 C172.578,405.92 169.781,409.75 172.86,410.231 L172.86,410.231 Z" id="Shape"></path>
                    <path d="M352.494,406.414 C364.53,407.672 377.238,404.753 389.189,403.505 C395.277,402.868 401.409,402.249 407.537,402.267 C410.914,402.277 415.475,404.482 417.484,400.21 C419.811,395.264 413.83,394.712 410.532,394.8 C404.636,394.956 398.817,395.431 392.954,396.113 C380.039,397.615 367.191,399.699 354.279,401.195 C352.109,401.445 349.05,406.054 352.494,406.414 L352.494,406.414 Z" id="Shape"></path>
                    <path d="M349.621,415.23 C354.86,416.769 360.535,416.345 365.933,416.245 C372.698,416.119 379.459,415.673 386.214,415.301 C391.967,414.984 397.72,414.658 403.477,414.406 C407.821,414.217 414.187,415.51 417.496,412.049 C418.465,411.035 419.35,409.718 418.82,408.248 C417.397,404.298 410.898,406.056 407.756,406.228 C401.63,406.565 395.513,407.053 389.396,407.517 C376.699,408.479 362.877,407.922 350.509,411.094 C348.75,411.545 347.287,414.544 349.621,415.23 L349.621,415.23 Z" id="Shape"></path>
                    <path d="M345.064,458.357 C347.023,462.965 356.283,463.45 360.483,463.819 C368.583,464.53 376.718,464.063 384.798,463.346 C401.065,461.902 417.146,458.961 433.413,457.6 C433.269,455.047 433.126,452.496 432.983,449.946 C431.721,450.545 430.305,450.96 428.978,451.405 C427.268,451.981 423.75,456.202 426.926,457.375 C429.636,458.376 431.765,458.219 434.524,457.376 C438.235,456.241 440.933,448.669 435.206,449.23 C419.843,450.737 404.623,454.02 389.277,455.809 C381.333,456.734 373.325,457.313 365.323,457.28 C361.882,457.266 358.456,457.005 355.038,456.631 C352.175,456.318 349.245,455.421 346.41,456.194 C345.606,456.413 344.691,457.478 345.064,458.357 L345.064,458.357 Z" id="Shape"></path>
                    <path d="M347.192,475.872 C355.294,478.832 364.951,476.886 373.209,475.526 C383.102,473.897 392.642,472.325 402.697,472.325 C410.231,472.326 417.716,471.881 425.236,472.141 C429.624,472.294 436.9,471.684 436.674,465.588 C436.64,464.678 436.12,463.624 435.245,463.237 C434.101,462.732 433.1,462.633 431.862,462.766 C430.118,462.953 427.673,464.804 428.04,466.828 C428.087,467.086 428.02,468.412 428.221,467.557 C428.837,466.557 429.453,465.554 430.07,464.553 C431.042,463.658 432.501,463.559 430.761,463.785 C429.851,463.904 428.918,463.901 428.001,463.924 C425.797,463.979 423.588,463.891 421.384,463.873 C413.95,463.816 406.341,464.371 398.886,464.553 C390.716,464.752 382.771,466.626 374.782,468.184 C366.223,469.85 357.51,470.477 348.972,472.11 C347.816,472.331 344.941,475.049 347.192,475.872 L347.192,475.872 Z" id="Shape"></path>
                    <path d="M362.953,353.453 C370.453,354.802 378.609,352.375 386.055,351.417 C389.52,350.972 393.116,351.124 396.496,350.344 C395.673,350.304 394.85,350.265 394.027,350.226 C394.057,350.244 394.088,350.263 394.118,350.283 C393.76,349.381 393.4,348.479 393.042,347.578 C393.833,344.918 392.896,347.644 392.714,348.215 C392.564,348.687 392.682,349.422 393.051,349.778 C394.072,350.764 395.23,350.76 396.539,350.401 C397.978,350.005 399.464,348.546 399.702,347.039 C400.555,341.642 392.782,343.922 389.992,344.337 C381.519,345.601 372.955,347.089 364.555,348.771 C362.756,349.127 359.733,352.874 362.953,353.453 L362.953,353.453 Z" id="Shape"></path>
                    <path d="M368.158,344.071 C372.719,344.958 377.168,345.187 381.812,345.115 C385.898,345.052 390.113,345.381 392.674,341.743 C393.09,341.153 393.5,340.243 393.152,339.516 C393.06,339.325 392.968,339.133 392.877,338.942 C392.34,337.824 391.285,337.213 390.029,337.353 C383.249,338.106 376.427,338.381 369.703,339.553 C367.902,339.867 365.104,343.476 368.158,344.071 L368.158,344.071 Z" id="Shape"></path>
                    <path d="M374.49,324.335 C371.98,350.467 375.702,376.62 375.627,402.832 C375.555,428.456 373.692,454.137 378.765,479.456 C379.78,484.518 386.549,480.9 386.533,476.966 C386.524,474.891 386.385,473.571 385.1,471.927 C383.614,470.022 380.819,472.145 380.03,473.59 C378.952,475.569 378.775,477.213 378.765,479.456 C381.294,478.337 383.824,477.219 386.353,476.1 C380.49,452.262 382.248,426.941 381.874,402.6 C381.472,376.426 379.155,349.946 376.362,323.957 C376.24,322.829 374.571,323.484 374.49,324.335 L374.49,324.335 Z" id="Shape"></path>
                    <path d="M381.121,330.583 C379.193,342.809 379.897,355.462 380.35,367.777 C380.814,380.439 381.696,393.083 382.534,405.725 C384.222,431.201 386.716,457.103 385.708,482.648 C385.495,488.029 393.737,484.104 394.056,479.972 C394.185,478.302 393.89,476.765 393.407,475.168 C392.202,471.189 386.869,475.137 386.263,477.47 C385.819,479.178 385.566,480.883 385.708,482.648 C388.49,481.756 391.273,480.864 394.056,479.972 C392.955,455.02 391.97,430.181 390.009,405.266 C389.019,392.685 388.082,380.101 387.187,367.513 C386.302,355.06 386.375,342.272 384.208,329.958 C383.88,328.107 381.343,329.176 381.121,330.583 L381.121,330.583 Z" id="Shape"></path>
                    <path d="M417.577,387.387 C415.725,395.085 416.092,403.426 416.014,411.293 C415.923,420.393 416.321,429.516 416.628,438.607 C416.936,447.716 417.301,456.823 417.578,465.933 C417.859,475.178 418.652,484.831 417.712,494.05 C420.541,493.479 423.37,492.907 426.199,492.335 C425.867,490.576 425.201,489.111 424.636,487.435 C423.163,483.058 416.851,487.591 416.939,490.841 C416.978,492.324 417.399,493.637 417.625,495.085 C418.48,500.585 426.701,496.77 426.199,492.335 C425.201,483.506 425.385,474.433 424.89,465.553 C424.386,456.528 423.754,447.509 423.156,438.49 C422.557,429.479 422.015,420.465 421.635,411.441 C421.293,403.296 421.701,394.591 420.016,386.601 C419.723,385.22 417.761,386.624 417.577,387.387 L417.577,387.387 Z" id="Shape"></path>
                    <path d="M221.49,23.065 C238.863,18.336 257.2,19.286 273.861,26.075 C281.439,29.163 288.429,33.769 293.816,39.952 C296.49,43.021 298.495,46.536 300.025,50.294 C300.914,52.476 301.496,54.773 301.907,57.086 C302.304,59.318 301.924,61.63 302.898,63.694 C304.494,67.072 308.931,64.065 309.568,61.545 C310.572,57.578 308.621,52.432 307.222,48.683 C305.64,44.44 303.213,40.533 300.349,37.042 C294.669,30.118 286.492,25.209 278.134,22.252 C260.348,15.959 239.262,16.062 221.435,22.046 C220.835,22.247 220.691,23.283 221.49,23.065 L221.49,23.065 Z" id="Shape"></path>
                </g>
            </g>
        </g>
    </g>
</svg>