<?xml version="1.0" encoding="UTF-8"?>
<svg width="545px" height="357px" viewBox="0 0 545 357" version="1.1" xmlns="http://www.w3.org/2000/svg" xmlns:xlink="http://www.w3.org/1999/xlink">
    <!-- Generator: Sketch 41 (35326) - http://www.bohemiancoding.com/sketch -->
    <title>field</title>
    <desc>Created with Sketch.</desc>
    <defs></defs>
    <g id="Page-1" stroke="none" stroke-width="1" fill="none" fill-rule="evenodd">
        <g id="Layer_1" transform="translate(-2229.000000, -4825.000000)" fill="#010101">
            <g id="Layer_1_3_">
                <g id="field" transform="translate(2229.000000, 4825.000000)">
                    <path d="M5.531,155.875 C44.469,132.696 92.954,143.861 133.548,156.709 C154.707,163.406 175.489,171.732 195.706,180.875 C223.459,193.427 249.309,209.769 275.227,225.652 C290.54,235.036 305.866,244.41 322.028,252.276 C338.142,260.118 354.985,266.439 372.138,271.595 C388.602,276.543 405.44,280.23 422.422,282.873 C431.074,284.221 439.797,284.948 448.531,285.524 C458.269,286.168 467.602,285.583 477.253,284.481 C480.805,284.076 485.6,277.21 480.114,276.116 C473.397,274.776 466.897,273.487 460.094,272.545 C452.687,271.519 445.262,270.651 437.871,269.501 C423.659,267.288 409.569,264.935 395.596,261.466 C367.586,254.512 340.699,243.227 315.714,228.841 C289.409,213.695 264.048,196.966 237.55,182.152 C215.449,169.797 192.276,159.673 168.621,150.697 C140.46,140.011 110.963,130.841 80.809,128.407 C53.748,126.223 21.677,128.787 1.681,149.459 C-1.718,152.975 0.35,158.959 5.531,155.875 L5.531,155.875 Z" id="Shape"></path>
                    <path d="M214.246,184.206 C224.83,184.875 233.584,178.094 242.07,172.643 C252.594,165.885 264.057,160.638 275.447,155.518 C299.346,144.777 324.047,136.098 349.374,129.416 C375.048,122.644 401.217,118.01 427.642,115.439 C453.913,112.883 480.998,111.843 507.164,115.743 C509.106,110.064 511.049,104.387 512.991,98.709 C509.06,98.685 505.464,99.493 501.809,100.904 C497.9,102.413 491.2,110.235 497.511,113.405 C501.393,115.354 504.996,115.869 509.319,115.842 C517.105,115.795 525.86,100.265 515.146,98.809 C488.652,95.206 461.453,96.327 434.897,98.875 C407.641,101.492 380.584,106.631 354.126,113.631 C327.798,120.598 302.642,130.047 277.946,141.488 C255.189,152.031 232.857,164.234 214.044,181.009 C213.246,181.721 212.438,184.091 214.246,184.206 L214.246,184.206 Z" id="Shape"></path>
                    <path d="M74.493,138.698 C60.699,141.186 49.456,151.919 40.037,161.631 C34.848,166.981 30.037,172.685 25.454,178.556 C23.17,181.483 20.979,184.482 18.826,187.505 C17.197,189.794 14.609,192.276 15.017,195.282 C15.231,196.862 16.785,197.772 18.309,197.131 C23.041,195.14 25.627,189.097 28.559,185.066 C32.651,179.437 37.022,174.017 41.629,168.803 C51.242,157.926 62.539,149.455 74.655,141.585 C75.613,140.962 76.527,138.331 74.493,138.698 L74.493,138.698 Z" id="Shape"></path>
                    <path d="M133.097,147.206 C123.756,150.706 116.125,157.764 109.172,164.696 C101.271,172.575 94.144,181.213 87.629,190.262 C74.323,208.746 64.388,229.129 57.16,250.68 C60.524,250 63.889,249.321 67.255,248.641 C67.376,245.887 67.748,242.93 66.359,240.45 C65.248,238.467 62.852,238.827 61.318,240.182 C57.712,243.369 56.889,247.234 57.056,251.911 C57.289,258.436 66.142,253.848 67.151,249.872 C72.253,229.762 82.208,210.695 93.798,193.597 C99.613,185.02 106.117,176.86 113.24,169.332 C119.945,162.246 127.574,156.065 134.038,148.754 C134.698,148.006 134.12,146.823 133.097,147.206 L133.097,147.206 Z" id="Shape"></path>
                    <path d="M179.149,175.129 C162.449,188.326 152.321,207.207 144.451,226.614 C136.542,246.119 130.394,266.554 124.035,286.609 C123.357,288.745 125.262,290.482 127.289,290.317 C129.798,290.114 131.515,288.177 132.275,285.941 C133.26,283.045 132.848,280.468 132.582,277.497 C132.373,275.161 129.261,275.833 128.334,277.291 C126.61,280.001 125.618,282.621 124.389,285.573 C126.9,286.041 129.411,286.51 131.922,286.977 C145.568,249.516 151.407,206.676 181.161,177.421 C182.98,175.633 181.157,173.543 179.149,175.129 L179.149,175.129 Z" id="Shape"></path>
                    <path d="M235.518,198.391 C222.259,214.878 214.56,235.152 208.139,255.119 C201.532,275.663 197.818,296.758 192.898,317.702 C195.836,315.995 198.775,314.287 201.713,312.579 C200.57,312.122 199.701,311.526 198.593,311.058 C195.694,309.833 192.575,312.538 192.477,315.455 C192.393,317.992 191.918,319.015 193.656,321.225 C197.204,325.737 203.247,319.263 203.522,315.556 C206.548,274.819 221.289,235.926 239.109,199.641 C240.42,196.969 236.85,196.734 235.518,198.391 L235.518,198.391 Z" id="Shape"></path>
                    <path d="M277.12,226.928 C276.58,247.406 275.411,267.844 275.175,288.348 C275.112,293.848 275.151,299.34 274.779,304.832 C274.617,307.225 274.294,309.635 273.744,311.969 C273.713,312.099 272.932,313.696 273.414,313.014 C273.003,313.503 273.033,313.454 273.506,312.868 C272.914,313.312 272.171,314.305 271.925,315.006 C272.716,314.163 273.507,313.32 274.298,312.477 C274.452,312.467 274.607,312.458 274.761,312.449 C272.914,312.725 270.468,314.745 271.349,316.876 C271.521,317.239 271.642,317.62 271.711,318.019 C272.076,319.412 273.757,319.948 275.011,319.861 C287.036,319.027 283.902,297.32 283.438,289.774 C282.878,280.671 282.902,271.545 282.756,262.427 C282.559,250.138 281.519,237.895 281.19,225.624 C281.118,222.965 277.174,224.89 277.12,226.928 L277.12,226.928 Z" id="Shape"></path>
                    <path d="M315.267,250.881 C317.81,267.766 318.043,285.618 317.851,302.678 C317.791,307.972 317.68,313.267 317.363,318.553 C317.229,320.789 316.992,323.016 316.614,325.224 C316.458,326.135 316.455,326.295 316.287,326.738 C315.798,328.176 315.721,328.401 316.055,327.41 C314.365,331.577 320.282,324.52 318.968,324.819 C317.376,325.182 315.671,326.949 315.433,328.578 C315.062,331.118 316.328,333.182 319.132,333.054 C322.716,332.89 324.89,329.819 325.923,326.753 C327.777,321.255 326.944,314.062 326.839,308.367 C326.472,288.343 323.612,268.708 318.956,249.25 C318.477,247.25 315.016,249.211 315.267,250.881 L315.267,250.881 Z" id="Shape"></path>
                    <path d="M352.723,260.663 C361.376,287.835 370.641,316.13 369.85,344.977 C369.663,351.744 383.114,346.946 380.215,340.391 C379.59,338.979 379.014,337.93 377.888,336.877 C376.341,335.43 373.796,336.337 372.707,337.953 C371.739,339.391 370.983,340.748 370.403,342.39 C373.756,342.118 377.107,341.846 380.459,341.575 C379.196,312.054 369.676,284.577 357.586,257.889 C356.309,255.069 351.922,258.147 352.723,260.663 L352.723,260.663 Z" id="Shape"></path>
                    <path d="M401.26,279.356 C405.518,290.265 411.478,300.363 415.971,311.199 C420.575,322.302 423.49,334.044 424.868,345.97 C428.31,344.448 431.754,342.924 435.196,341.402 C433.294,338.198 431.189,336.19 427.449,335.528 C425.58,335.197 423.754,336.766 423.32,338.506 C422.478,341.886 423.407,344.209 425.112,347.151 C427.962,352.065 436.136,347.615 435.44,342.583 C432.201,319.171 422.913,292.825 404.819,276.816 C403.339,275.505 400.542,277.512 401.26,279.356 L401.26,279.356 Z" id="Shape"></path>
                    <path d="M443.237,286.369 C448.175,297.326 456.145,306.39 462.936,316.22 C470.509,327.183 476.632,338.682 480.702,351.385 C484.337,349.313 487.973,347.24 491.608,345.168 C490.225,342.548 489.058,340.06 485.856,339.667 C483.395,339.366 480.999,341.19 480.432,343.578 C479.776,346.346 479.923,348.662 480.702,351.385 C482.497,357.669 493.765,351.034 491.608,345.168 C487.225,333.249 480.225,322.304 472.698,312.147 C465.01,301.773 456.778,291.396 446.488,283.517 C445.076,282.436 442.565,284.876 443.237,286.369 L443.237,286.369 Z" id="Shape"></path>
                    <path d="M482.936,296.885 C487.715,300.47 491.614,304.953 496.071,308.883 C500.819,313.07 505.342,317.561 509.659,322.189 C518.356,331.514 526.695,342.107 530.761,354.35 C533.809,351.676 536.857,349.001 539.905,346.327 C536.098,344.951 532.785,344.482 528.752,344.496 C527.029,344.502 525.1,346.456 525.264,348.204 C525.738,353.255 529.118,355.233 533.624,356.648 C537.438,357.846 543.656,352.134 541.551,348.202 C535.271,336.469 527.961,325.963 518.204,316.818 C513.306,312.227 508.01,308.138 502.603,304.174 C497.159,300.184 491.011,297.371 485.374,293.666 C483.74,292.592 481.19,295.575 482.936,296.885 L482.936,296.885 Z" id="Shape"></path>
                    <path d="M244.871,164.971 C250.444,168.045 255.804,170.26 260.845,174.334 C266.385,178.813 271.39,183.82 276.161,189.098 C278.246,191.406 280.838,193.594 282.395,196.307 C283.213,197.734 283.77,199.938 285.329,200.782 C288.906,202.719 292.696,198.781 292.268,195.278 C291.891,192.178 288.16,193.286 286.819,195.013 C286.74,195.091 286.662,195.17 286.583,195.248 C287.805,194.848 289.025,194.447 290.246,194.047 C290.164,194.02 290.082,193.993 290,193.966 C290.642,194.482 291.284,194.996 291.926,195.512 C290.604,192.385 288.613,189.51 286.206,187.146 C281.552,182.575 277.233,177.77 272.158,173.641 C265.271,168.037 256.118,159.941 246.554,161.414 C245.235,161.618 242.965,163.919 244.871,164.971 L244.871,164.971 Z" id="Shape"></path>
                    <path d="M277.838,151.014 C285.538,155.85 293.24,159.889 300.168,165.926 C307.066,171.938 313.226,178.6 318.932,185.746 C324.712,192.984 329.877,200.678 334.997,208.388 C339.777,215.586 343.959,223.852 349.59,230.404 C351.718,228.121 353.846,225.839 355.973,223.555 C354.039,222.136 352.094,220.885 349.624,221.084 C348.467,221.178 347.057,222.23 346.921,223.456 C346.615,226.206 348.012,228.243 349.59,230.403 C352.118,233.864 359.051,228.487 357.21,224.964 C353.053,217.006 347.166,209.565 342.12,202.137 C336.659,194.097 330.863,186.263 324.611,178.82 C313.465,165.549 297.981,150.198 280.043,147.389 C278.349,147.125 275.882,149.786 277.838,151.014 L277.838,151.014 Z" id="Shape"></path>
                    <path d="M322.497,135.464 C333.445,142.333 342.988,149.851 351.722,159.434 C359.997,168.516 367.579,178.201 375.774,187.355 C392.181,205.684 412.111,225.907 417.197,250.866 C420.236,249.12 423.275,247.374 426.313,245.628 C424.376,242.812 422.331,241.815 419.236,240.53 C416.816,239.525 413.074,242.233 414.163,244.982 C415.145,247.461 416.223,249.6 417.426,251.972 C420.264,257.569 427.894,251.387 426.887,246.579 C421.488,220.81 400.27,199.601 383.103,180.924 C374.434,171.494 366.448,161.447 357.595,152.19 C348.866,143.061 338.212,133.005 325.276,130.901 C323.135,130.552 320.04,133.922 322.497,135.464 L322.497,135.464 Z" id="Shape"></path>
                    <path d="M376.26,118.356 C378.508,123.094 382.838,126.72 386.698,130.145 C391.274,134.204 396.089,137.983 400.808,141.872 C411.246,150.474 421.521,159.466 429.674,170.331 C448.128,194.927 462.264,223.367 474.953,251.241 C477.692,257.258 487.107,250.692 485.355,245.311 C483.896,240.829 481.47,236.79 477.689,233.929 C475.103,231.972 471.17,235.967 471.33,238.502 C471.608,242.948 473.83,246.962 474.953,251.24 C478.421,249.263 481.888,247.287 485.355,245.31 C472.033,217.423 456.015,190.615 437.734,165.705 C429.804,154.9 419.552,145.899 409.099,137.617 C404.241,133.767 399.367,129.92 394.407,126.203 C389.624,122.619 384.91,118.075 379.47,115.537 C378.011,114.857 375.467,116.682 376.26,118.356 L376.26,118.356 Z" id="Shape"></path>
                    <path d="M453.141,108.043 C458.676,115.561 465.59,122.116 471.622,129.262 C477.676,136.434 483.386,143.885 488.716,151.608 C494.168,159.506 499.064,167.764 503.504,176.27 C505.819,180.704 507.906,185.239 509.876,189.835 C511.33,193.229 514.506,198.408 514.323,202.145 C517.896,200.092 521.469,198.04 525.043,195.986 C522.835,193.203 520.36,190.576 516.822,189.736 C514.411,189.165 511.053,191.924 511.427,194.47 C511.886,197.592 513.122,200.662 514.592,203.446 C517.675,209.288 526.251,203.689 525.985,198.407 C525.791,194.553 523.075,190.515 521.44,187.069 C519.302,182.563 516.951,178.162 514.568,173.783 C509.656,164.76 504.085,156.094 498.087,147.757 C492.303,139.716 485.989,132.03 479.269,124.755 C472.454,117.38 465.241,109.604 456.748,104.174 C454.749,102.895 451.741,106.141 453.141,108.043 L453.141,108.043 Z" id="Shape"></path>
                    <path d="M510.997,111.169 C515.978,116.247 520.403,121.792 524.846,127.332 C527.29,130.381 529.493,133.853 531.19,137.375 C532.47,140.035 532.054,143.005 533.218,145.518 C535.001,149.366 540.475,147.672 542.36,144.778 C547.339,137.13 540.114,128.934 534.961,123.473 C529.015,117.172 521.748,112.209 514.863,107.023 C512.924,105.564 509.192,109.329 510.997,111.169 L510.997,111.169 Z" id="Shape"></path>
                    <path d="M177.658,156.957 C176.182,154.508 175.541,150.717 174.528,147.956 C173.603,145.436 172.971,142.958 172.77,140.275 C172.44,135.879 174.193,131.477 175.908,128.821 C181.125,120.738 190.232,116.294 200.301,113.508 C210.056,110.81 221.777,110.619 231.236,114.861 C241.667,119.539 246.857,129.235 247.399,140.665 C247.554,143.932 247.296,147.172 246.832,150.402 C249.384,148.163 251.936,145.923 254.487,143.684 C251.981,143.701 249.787,144.279 247.695,145.673 C243.511,148.462 241.257,155.801 248.28,156.089 C249.466,156.137 250.64,156.119 251.827,156.094 C255.136,156.025 259.052,152.705 259.482,149.376 C261.214,135.95 259.848,121.404 249.83,111.338 C241.421,102.89 229.315,100.088 217.757,100.139 C205.755,100.194 193.484,103.894 183.282,110.162 C174.24,115.717 164.886,124.786 163.631,135.892 C163.157,140.084 163.461,144.246 164.922,148.23 C165.693,150.332 166.796,152.39 168.125,154.189 C170.04,156.782 172.344,157.592 174.654,159.594 C176.197,160.934 178.679,158.652 177.658,156.957 L177.658,156.957 Z" id="Shape"></path>
                    <path d="M231.924,99.353 C236.403,99.545 239.454,89.944 240.725,86.844 C243.736,79.502 245.978,71.851 249.471,64.707 C252.973,57.543 256.093,50.215 259.229,42.885 C260.764,39.296 262.316,35.714 263.933,32.16 C265.101,29.593 267.568,26.461 267.361,23.568 C267.22,21.593 265.013,22.135 263.947,22.9 C261.677,24.526 260.746,27.588 259.607,30.046 C257.998,33.517 256.519,37.049 255.03,40.573 C251.907,47.969 248.88,55.411 245.417,62.659 C242.21,69.37 239.858,76.378 237.266,83.339 C236.01,86.712 234.61,90.027 233.034,93.262 C232.3,94.769 230.201,97.122 231.085,98.884 C231.27,99.251 231.536,99.336 231.924,99.353 L231.924,99.353 Z" id="Shape"></path>
                    <path d="M260.496,107.804 C270.599,98.097 280.336,88.006 290.456,78.309 C300.2,68.972 311.074,59.734 318.982,48.723 C319.837,47.532 318.532,46.88 317.55,47.588 C306.154,55.802 296.187,66.507 286.105,76.246 C276.332,85.685 266.254,95.035 257.314,105.281 C255.272,107.624 258.475,109.747 260.496,107.804 L260.496,107.804 Z" id="Shape"></path>
                    <path d="M202.55,97.536 C205.279,91.059 203.66,84.211 202.75,77.493 C201.558,68.697 200.028,59.94 198.467,51.203 C195.513,34.678 192.854,16.71 185.657,1.419 C184.907,-0.174 182.419,1.364 182.578,2.781 C184.406,19.063 188.977,35.179 192.058,51.264 C195.015,66.697 197.646,82.193 199.595,97.776 C199.813,99.502 202.075,98.664 202.55,97.536 L202.55,97.536 Z" id="Shape"></path>
                    <path d="M123.641,30.727 C134.534,47.583 146.601,63.559 158.575,79.663 C160.87,82.749 163.077,85.908 165.244,89.086 C166.624,91.109 167.963,93.211 169.062,95.402 C169.422,96.12 169.7,96.803 170.156,97.471 C171.281,99.119 170.412,97.376 170.597,96.785 C171.296,96.043 171.995,95.299 172.694,94.556 C172.802,94.52 172.909,94.483 173.017,94.446 C171.713,94.258 169.578,95.834 170.317,97.323 C170.588,97.869 170.814,98.222 171.311,98.581 C171.92,99.019 172.916,98.725 173.493,98.403 C177.053,96.419 174.429,93.07 172.753,90.97 C169.568,86.981 166.295,83.081 163.248,78.981 C150.813,62.255 138.32,45.578 124.669,29.825 C124.211,29.297 123.282,30.17 123.641,30.727 L123.641,30.727 Z" id="Shape"></path>
                    <path d="M90.702,76.874 C100.851,81.859 110.537,87.562 120.099,93.586 C124.936,96.634 129.727,99.754 134.518,102.872 C139.858,106.348 146.56,109.569 151.04,114.132 C153.25,116.382 157.566,111.772 154.826,110.069 C152.81,108.817 150.779,108.631 148.457,108.862 C147.359,108.971 146.174,110.295 146.921,111.358 C148.191,113.166 149.716,113.303 151.483,114.483 C152.417,112.949 153.35,111.415 154.284,109.88 C148.686,108.111 143.287,104.035 138.245,101.085 C133.29,98.186 128.332,95.294 123.349,92.444 C112.969,86.507 102.426,80.775 91.607,75.677 C90.957,75.372 89.977,76.517 90.702,76.874 L90.702,76.874 Z" id="Shape"></path>
                    <path d="M70.88,111.858 C83.206,115.903 96.277,118.025 108.87,121.129 C114.967,122.631 121.028,124.275 127.059,126.018 C130.061,126.886 133.047,127.81 136.027,128.75 C139.114,129.724 145.086,130.883 147.615,133.146 C148.697,131.986 149.778,130.825 150.86,129.665 C149.758,129.076 148.709,128.777 147.465,128.829 C146.187,128.882 144.96,130.666 146.157,131.595 C146.738,132.045 147.134,132.61 147.615,133.147 C149.216,134.935 152.787,131.8 151.24,129.966 C150.17,128.698 148.03,128.584 146.528,128.187 C142.911,127.231 139.357,126.026 135.785,124.917 C128.595,122.685 121.322,120.724 114.024,118.878 C100.159,115.371 85.728,111.725 71.43,110.694 C70.833,110.651 70.086,111.597 70.88,111.858 L70.88,111.858 Z" id="Shape"></path>
                    <path d="M288.989,128.05 C302.456,125.615 315.254,119.365 327.381,113.258 C341.119,106.339 355.018,99.631 368.571,92.363 C369.827,91.69 369.824,89.596 368.088,90.033 C354.821,93.365 342.699,100.477 330.668,106.765 C317.021,113.897 303.266,120.484 289.115,126.542 C288.527,126.795 287.893,128.249 288.989,128.05 L288.989,128.05 Z" id="Shape"></path>
                    <path d="M495.776,280.096 C499.308,281.539 504.887,280.332 508.5,279.746 C510.996,279.34 513.478,278.863 515.964,278.396 C517.36,278.133 518.849,278.081 520.088,277.285 C521.491,276.383 521.889,276.83 518.949,277.315 C517.9,275.599 516.851,273.882 515.802,272.167 C515.99,271.856 516.179,271.546 516.367,271.234 C515.108,272.945 514.497,277.111 517.715,277.27 C518.762,277.322 519.075,277.339 520.114,277.081 C523.116,276.333 525.705,272.35 523.716,269.572 C521.277,266.167 514.447,269.936 511.685,270.951 C506.808,272.742 501.882,274.507 497.053,276.383 C496,276.792 493.797,279.289 495.776,280.096 L495.776,280.096 Z" id="Shape"></path>
                </g>
            </g>
        </g>
    </g>
</svg>