<?xml version="1.0" encoding="UTF-8"?>
<svg width="500px" height="398px" viewBox="0 0 500 398" version="1.1" xmlns="http://www.w3.org/2000/svg" xmlns:xlink="http://www.w3.org/1999/xlink">
    <!-- Generator: Sketch 41 (35326) - http://www.bohemiancoding.com/sketch -->
    <title>figs</title>
    <desc>Created with Sketch.</desc>
    <defs></defs>
    <g id="Page-1" stroke="none" stroke-width="1" fill="none" fill-rule="evenodd">
        <g id="Layer_1" transform="translate(-2182.000000, -2082.000000)" fill="#010101">
            <g id="Layer_1_3_">
                <g id="figs" transform="translate(2182.000000, 2082.000000)">
                    <path d="M137.934,182.701 C131.296,185.451 127.408,193.236 128.141,200.163 C128.243,201.121 128.734,202.038 129.753,202.279 C137.994,204.234 148.178,200.791 149.178,191.222 C150.209,181.362 137.819,179.959 132.549,186.374 C132.005,187.036 132.265,188.379 133.337,188.273 C136.505,187.965 145.448,184.565 144.575,190.985 C143.681,197.559 136.438,199.296 130.921,198.044 C131.459,198.75 131.995,199.455 132.532,200.161 C132.178,197.093 132.636,194.444 134.159,191.747 C135.62,189.16 138.014,187.357 139.645,184.927 C140.342,183.889 139.171,182.187 137.934,182.701 L137.934,182.701 Z" id="Shape"></path>
                    <path d="M130.658,197 C119.922,194.227 106.048,195.053 101.776,207.036 C99.436,213.599 102.794,219.178 109.883,219.062 C115.828,218.966 123.154,215.755 126.861,211.03 C128.47,208.978 129.452,206.154 128.068,203.697 C126.619,201.129 123.226,199.003 120.385,200.533 C119.411,201.056 119.296,202.206 119.708,203.114 C121.113,206.22 125.051,205.345 121.664,208.652 C118.851,211.399 114.668,212.979 110.86,213.635 C106.598,214.369 105.714,212.207 106.852,208.434 C109.677,199.074 122.416,199.54 130.337,199.37 C131.684,199.34 132,197.346 130.658,197 L130.658,197 Z" id="Shape"></path>
                    <path d="M115.402,214.616 C114.872,215.556 114.195,216.47 113.794,217.467 C113.426,218.379 113.091,219.301 112.81,220.243 C112.36,221.748 112.067,223.318 112.068,224.892 C112.07,227.192 112.825,229.704 114.693,231.177 C118.494,234.175 123.782,232.931 127.747,230.916 C131.594,228.963 135.493,225.282 134.747,220.599 C134.369,218.224 132.191,216.418 130.156,215.431 C128.635,214.693 127.022,214.184 125.375,213.818 C124.245,213.567 122.69,213.097 121.579,213.404 C119.574,213.956 118.469,216.606 117.808,218.347 C117.401,219.42 117.493,220.506 117.699,221.615 C117.912,222.763 119.292,223.081 120.199,222.632 C121.286,222.096 122.038,221.415 122.742,220.428 C123.276,219.68 123.835,218.77 124.363,218.186 C123.689,218.465 123.015,218.746 122.342,219.024 C122.448,219.038 123.266,219.146 122.541,219.045 C122.769,219.077 122.996,219.112 123.224,219.149 C123.651,219.216 124.075,219.297 124.497,219.383 C125.294,219.546 126.08,219.753 126.851,220.006 C127.158,220.107 127.459,220.221 127.759,220.341 C126.887,219.989 127.825,220.388 128.028,220.489 C128.261,220.608 128.487,220.742 128.711,220.882 C128.814,220.946 128.913,221.017 129.014,221.086 C129.388,221.348 128.423,220.599 128.916,221.015 C129.077,221.151 129.228,221.301 129.371,221.455 C129.885,222.006 129.049,220.972 129.368,221.445 C129.471,221.595 129.556,221.757 129.635,221.921 C129.19,220.993 129.52,221.647 129.592,221.935 C129.762,222.617 129.543,221.251 129.581,221.812 C129.594,221.982 129.587,222.152 129.575,222.322 C129.567,222.433 129.727,221.532 129.574,222.219 C129.528,222.424 129.463,222.624 129.39,222.822 C129.365,222.89 129.699,222.176 129.387,222.799 C129.299,222.975 129.199,223.145 129.096,223.313 C128.989,223.487 128.871,223.655 128.753,223.82 C128.493,224.178 129.179,223.281 128.9,223.632 C128.81,223.745 128.716,223.854 128.622,223.963 C128.327,224.303 128.008,224.619 127.677,224.923 C127.505,225.081 127.326,225.233 127.147,225.381 C126.542,225.885 127.546,225.1 126.901,225.569 C126.069,226.174 125.173,226.693 124.246,227.139 C124.062,227.228 123.225,227.588 124.038,227.246 C123.809,227.342 123.578,227.431 123.347,227.516 C122.852,227.7 122.347,227.851 121.836,227.98 C121.492,228.067 121.147,228.136 120.798,228.194 C120.178,228.298 121.277,228.138 120.861,228.187 C120.674,228.208 120.486,228.223 120.298,228.235 C119.97,228.256 119.641,228.255 119.314,228.238 C119.172,228.231 119.032,228.218 118.891,228.205 C118.615,228.178 119.557,228.307 118.896,228.196 C118.598,228.147 118.304,228.068 118.017,227.973 C117.841,227.915 117.363,227.702 118.104,228.025 C117.955,227.961 117.81,227.883 117.667,227.804 C117.554,227.741 117.444,227.67 117.337,227.598 C116.878,227.29 117.745,227.952 117.326,227.584 C117.201,227.475 117.087,227.355 116.973,227.231 C116.598,226.824 117.261,227.654 116.934,227.19 C116.746,226.923 116.593,226.632 116.456,226.336 C116.759,226.997 116.346,225.941 116.284,225.702 C116.242,225.532 116.209,225.358 116.178,225.186 C116.069,224.594 116.2,225.518 116.143,224.892 C116.094,224.368 116.101,223.839 116.11,223.313 C116.13,222.062 116.243,221.272 116.459,220.137 C116.754,218.576 116.987,216.985 117.385,215.449 C117.686,214.27 116.013,213.53 115.402,214.616 L115.402,214.616 Z" id="Shape"></path>
                    <path d="M127.282,229.545 C122.244,236.983 121.666,247.62 129.524,253.557 C136.034,258.474 148.653,258.662 153.726,251.443 C157.994,245.369 150.826,238.165 146.09,235.289 C140.527,231.911 127.389,229.985 125.13,238.556 C124.685,240.243 126.25,241.834 127.945,241.372 C130.033,240.803 131.696,239.359 133.803,238.765 C136.116,238.111 138.623,238.692 140.832,239.435 C144.183,240.564 149.124,243.924 149.061,247.918 C149.029,249.961 145.299,250.789 143.914,251.147 C140.134,252.125 136.174,251.902 132.767,249.951 C126.323,246.259 126.369,236.598 129.392,230.781 C130.125,229.372 128.162,228.246 127.282,229.545 L127.282,229.545 Z" id="Shape"></path>
                    <path d="M129.789,249.521 C121.408,246.027 109.488,252.56 108.077,261.603 C106.741,270.167 116.054,276.801 123.866,275.099 C129.926,273.78 135.731,267.542 136.736,261.45 C137.974,253.945 129.603,250.246 124.025,254.849 C122.943,255.743 123.567,257.646 124.844,257.953 C127.92,258.689 131.907,257.391 130.959,261.169 C130.063,264.732 126.781,268.161 123.395,269.465 C119.02,271.15 112.522,267.466 113.248,262.318 C114.2,255.564 123.498,252.191 129.338,252.865 C131.42,253.104 131.386,250.187 129.789,249.521 L129.789,249.521 Z" id="Shape"></path>
                    <path d="M113.719,236.775 C109.089,235.637 104.17,238.653 102.359,242.902 C100.359,247.594 102.693,252.33 106.848,254.872 C112.534,258.351 118.966,256.684 122.763,251.439 C125.842,247.188 126.528,240.836 123.223,236.577 C118.535,230.533 108.247,235.405 105.134,240.46 C104.435,241.596 105.577,242.69 106.705,242.506 C109.647,242.022 112.312,240.739 115.177,239.951 C116.063,239.707 116.746,239.656 117.672,239.716 C117.823,239.725 118.922,240.226 118.69,240.044 C119.557,240.724 119.842,241.648 119.904,242.79 C119.984,244.235 119.654,245.762 119.052,247.065 C117.781,249.821 115.389,251.992 112.272,251.455 C109.637,251.002 106.605,249.228 106.419,246.31 C106.158,242.213 110.608,240.54 113.718,239.548 C115.027,239.133 115.157,237.128 113.719,236.775 L113.719,236.775 Z" id="Shape"></path>
                    <path d="M107.547,213.401 C101.576,212.03 92.859,214.673 89.501,220.029 C86.127,225.411 88.101,231.658 94.004,233.902 C99.501,235.994 106.222,235.509 111.399,232.756 C115.618,230.512 119.116,222.356 112.822,220.402 C111.815,220.089 110.908,220.766 110.576,221.676 C109.388,224.938 110.972,226.456 107.314,228.356 C104.199,229.975 99.995,230.124 96.634,229.385 C91.9,228.347 91.401,224.025 94.696,220.696 C98.012,217.346 103.18,216.147 107.546,214.924 C108.277,214.718 108.324,213.581 107.547,213.401 L107.547,213.401 Z" id="Shape"></path>
                    <path d="M149.561,179.386 C145.89,183.547 146.899,189.571 152.909,190.255 C158.451,190.888 164.18,187.193 165.655,181.801 C165.94,180.759 165.48,179.634 164.551,179.087 C161.643,177.376 158.8,176.517 155.435,177.088 C152.641,177.564 148.641,179.959 148.868,183.162 C148.931,184.028 149.495,184.541 150.339,184.632 C152.293,184.843 153.852,183.448 155.483,182.566 C157.626,181.406 160.147,182.17 162.127,183.238 C161.759,182.335 161.391,181.428 161.023,180.524 C160.307,183.576 157.488,185.642 154.419,185.967 C150.396,186.394 150.674,183.473 151.398,180.454 C151.639,179.442 150.323,178.52 149.561,179.386 L149.561,179.386 Z" id="Shape"></path>
                    <path d="M171.189,174.846 C169.383,179.643 170.902,183.897 175.823,185.753 C179.489,187.135 185.446,187.237 186.045,182.397 C186.464,179.011 183.25,175.139 180.404,173.783 C176.158,171.758 169.966,173.829 169.976,179.164 C169.977,180.024 170.848,180.743 171.699,180.477 C172.972,180.08 174.193,179.508 175.31,178.779 C176.044,178.3 176.865,178.121 177.715,178.32 C179.295,178.692 180.812,180.192 181.361,181.683 C181.661,182.498 181.263,182.392 181.71,182.126 C180.92,182.596 178.41,182.316 177.328,182.115 C174.009,181.494 173.016,178.563 173.485,175.479 C173.715,173.968 171.736,173.391 171.189,174.846 L171.189,174.846 Z" id="Shape"></path>
                    <path d="M165.744,197.147 C162.46,198.983 161.128,203.468 163.523,206.604 C166.762,210.842 173.425,208.931 176.923,205.969 C180.782,202.7 179.192,198.031 175.612,195.398 C173.752,194.028 171.316,193.497 169.054,193.358 C167.792,193.281 166.453,193.472 165.303,194.001 C163.895,194.646 163.585,195.499 163.053,196.81 C162.772,197.502 163.354,198.247 163.982,198.447 C163.708,198.188 163.821,198.268 164.323,198.684 C164.725,198.919 165.426,199.139 165.888,199.115 C166.681,199.072 167.474,199.031 168.267,198.983 C169.382,198.916 170.621,199.081 171.627,199.507 C172.582,199.913 173.463,200.469 173.839,201.026 C174.129,201.457 174.162,201.547 173.864,201.918 C172.888,203.129 171.21,203.709 169.806,204.238 C168.993,204.547 167.864,204.793 167.139,204.173 C165.727,202.965 166.035,200.268 167.164,198.996 C168.045,198.006 166.941,196.477 165.744,197.147 L165.744,197.147 Z" id="Shape"></path>
                    <path d="M147.987,204.894 C141.07,207.331 136.91,214.431 141.608,221.053 C146.653,228.163 156.732,226.418 162.406,221.116 C167.945,215.94 165.181,207.898 159.724,203.989 C154.181,200.018 144.782,199.926 143.054,207.808 C142.814,208.904 143.963,209.954 145.008,209.31 C148.492,207.168 152.22,206.321 155.924,208.361 C159.118,210.121 161.311,213.716 159.088,217.049 C156.241,221.313 149.12,222.381 145.566,218.692 C141.675,214.654 144.795,209.325 149.002,207.298 C150.341,206.651 149.39,204.4 147.987,204.894 L147.987,204.894 Z" id="Shape"></path>
                    <path d="M186.114,214.826 C184.833,219.521 186.554,223.952 191.447,225.358 C196.293,226.754 201.46,223.818 203.653,219.515 C204.224,218.395 204.089,217.201 203.234,216.265 C200.727,213.525 197.58,212.194 193.918,211.914 C191.201,211.707 186.29,212.507 185.652,215.695 C185.483,216.545 185.782,217.164 186.455,217.671 C188.103,218.91 190.413,218.081 192.301,217.853 C194.984,217.528 197.357,218.402 199.442,220.058 C199.213,219.188 198.983,218.319 198.754,217.45 C197.914,220.048 195.588,221.374 192.929,221.327 C189.561,221.267 188.408,218.014 188.609,215.163 C188.708,213.708 186.483,213.472 186.114,214.826 L186.114,214.826 Z" id="Shape"></path>
                    <path d="M86.65,260.986 C80.953,263.514 80.405,270.785 83.536,275.552 C87.316,281.308 95.182,281.241 100.159,277.111 C104.872,273.201 102.138,266.219 98.244,262.95 C95.806,260.9 92.673,259.766 89.482,259.887 C86.525,259.999 82,261.629 81.975,265.162 C81.971,265.758 82.392,266.327 82.975,266.475 C84.804,266.94 86.628,265.969 88.369,265.472 C90.137,264.969 92.076,265.342 93.68,266.159 C95.823,267.251 99.054,270.784 97.084,273.318 C94.618,276.491 89.762,276.089 87.31,273.333 C84.541,270.217 85.582,265.779 88.3,263.127 C89.482,261.971 87.989,260.392 86.65,260.986 L86.65,260.986 Z" id="Shape"></path>
                    <path d="M87.202,245.499 C85.378,248.688 84.359,253.195 86.682,256.459 C89.613,260.575 96.272,258.953 99.197,255.648 C102.408,252.02 100.784,246.681 97.286,243.924 C95.193,242.274 92.671,241.394 89.998,241.427 C87.291,241.461 83.718,242.998 82.846,245.75 C82.521,246.773 83.38,247.628 84.338,247.708 C86.046,247.851 87.823,247.023 89.549,246.869 C90.93,246.744 92.241,246.952 93.466,247.605 C95.166,248.513 96.695,250.554 95.607,252.42 C94.628,254.1 90.937,255.748 89.683,253.649 C88.573,251.792 88.854,248.448 89.606,246.508 C90.154,245.096 87.925,244.234 87.202,245.499 L87.202,245.499 Z" id="Shape"></path>
                    <path d="M180.637,257.074 C176.294,255.546 171.714,256.501 170.157,261.39 C168.68,266.031 170.633,270.685 174.218,273.754 C178.931,277.788 185.573,277.907 190.561,274.287 C195.009,271.058 197.933,265.266 195.609,259.9 C194.367,257.035 191.684,255.151 188.865,254.027 C185.053,252.506 179.023,251.206 175.315,253.411 C174.047,254.166 173.952,256.18 175.315,256.911 C179.939,259.389 186.294,257.136 190.125,261.603 C190.837,262.433 190.939,263.768 190.781,264.666 C190.522,266.141 189.83,267.366 188.811,268.507 C186.602,270.982 183.333,272.164 180.129,271.164 C177.812,270.438 175.735,268.229 174.904,266.018 C173.541,262.393 176.603,258.805 180.338,259.289 C181.671,259.464 181.762,257.469 180.637,257.074 L180.637,257.074 Z" id="Shape"></path>
                    <path d="M213.32,265.144 C209.389,268.299 208.579,273.611 211.853,277.626 C215.824,282.498 222.764,281.439 227.186,277.793 C231.848,273.947 229.878,268.786 225.539,265.776 C222.139,263.418 212.857,260.567 210.722,265.215 C210.26,266.22 210.508,267.125 211.393,267.776 C210.779,267.091 210.75,267.091 211.307,267.778 C211.726,268.198 212.231,268.374 212.783,268.536 C213.668,268.795 214.75,268.731 215.664,268.788 C217.26,268.887 218.887,269.342 220.392,269.853 C221.649,270.284 222.946,270.91 223.928,271.81 C224.137,272.002 224.458,272.538 224.455,272.532 C224.462,272.55 224.458,272.768 224.17,273.224 C222.581,275.74 218.125,276.772 215.865,274.766 C213.76,272.895 213.268,269.231 215.354,267.177 C216.708,265.848 214.733,264.011 213.32,265.144 L213.32,265.144 Z" id="Shape"></path>
                    <path d="M145.728,283.163 C145.819,286.016 146.035,289.008 148.039,291.232 C149.486,292.838 151.766,293.287 153.791,292.685 C155.664,292.13 157.307,290.877 158.624,289.466 C159.942,288.053 161.089,286.329 161.601,284.445 C162.217,282.179 161.62,279.822 159.578,278.507 C157.348,277.072 154.303,277.73 151.966,278.494 C151.107,278.773 150.277,279.126 149.46,279.513 C148.94,279.758 148.449,280 148.057,280.444 C148.471,280.159 148.562,280.087 148.33,280.228 C148.228,280.29 148.128,280.35 148.026,280.413 C147.497,280.733 147.084,281.085 146.735,281.614 C146.251,282.353 146.299,283.404 146.735,284.149 C147.214,284.964 148,285.312 148.904,285.393 C149.465,285.443 149.969,285.213 150.483,285.039 C149.949,285.086 149.818,285.105 150.089,285.102 C150.41,285.102 150.742,285.071 151.046,284.956 C151.216,284.891 151.386,284.825 151.556,284.762 C152.173,284.533 152.792,284.306 153.411,284.084 C154.357,283.745 155.333,283.463 156.329,283.326 C156.076,283.359 155.824,283.392 155.571,283.428 C156.133,283.355 156.715,283.314 157.278,283.384 C157.029,283.35 156.781,283.317 156.533,283.283 C156.696,283.304 156.856,283.337 157.013,283.381 C157.085,283.402 157.156,283.426 157.226,283.452 C157.393,283.515 156.354,283.045 156.822,283.289 C156.883,283.319 156.939,283.354 156.995,283.393 C157.355,283.627 156.334,282.86 156.621,283.101 C156.938,283.367 157.005,283.567 156.493,282.872 C156.567,282.973 156.629,283.082 156.681,283.194 C156.322,282.43 156.452,282.56 156.555,282.976 C156.571,283.04 156.583,283.107 156.594,283.172 C156.637,283.433 156.486,282.215 156.527,282.703 C156.542,282.858 156.541,283.016 156.533,283.175 C156.53,283.25 156.523,283.326 156.516,283.402 C156.471,283.867 156.636,282.575 156.574,282.977 C156.548,283.153 156.511,283.329 156.468,283.501 C156.38,283.856 156.259,284.206 156.12,284.546 C156.037,284.751 156.467,283.75 156.247,284.24 C156.209,284.327 156.168,284.413 156.127,284.498 C156.035,284.686 155.939,284.873 155.837,285.057 C155.636,285.419 155.413,285.769 155.177,286.108 C155.118,286.19 155.06,286.271 155.001,286.352 C154.684,286.783 155.286,285.988 155.162,286.146 C155.026,286.319 154.886,286.489 154.741,286.653 C154.469,286.966 154.168,287.257 153.857,287.532 C153.711,287.661 153.562,287.785 153.409,287.903 C154.222,287.266 153.555,287.787 153.336,287.931 C153.022,288.14 152.69,288.325 152.346,288.476 C152.164,288.556 153.054,288.193 152.601,288.366 C152.521,288.394 152.44,288.423 152.359,288.449 C152.188,288.504 152.013,288.547 151.837,288.581 C151.371,288.669 152.346,288.518 152.143,288.543 C152.063,288.553 151.983,288.558 151.903,288.562 C151.732,288.57 151.56,288.563 151.39,288.544 C152.088,288.619 151.834,288.625 151.464,288.521 C151.387,288.5 151.311,288.473 151.235,288.446 C150.911,288.327 151.89,288.751 151.449,288.532 C151.298,288.456 151.152,288.365 151.013,288.266 C150.715,288.055 151.535,288.692 151.196,288.404 C151.113,288.335 151.033,288.258 150.956,288.18 C150.826,288.051 150.708,287.911 150.595,287.768 C151.161,288.486 150.644,287.808 150.517,287.598 C150.263,287.178 150.035,286.744 149.84,286.292 C150.139,286.983 149.936,286.516 149.872,286.354 C149.816,286.21 149.765,286.065 149.714,285.919 C149.604,285.606 149.508,285.288 149.419,284.968 C149.211,284.224 149.008,283.499 148.89,282.734 C148.783,282.039 147.991,281.553 147.339,281.553 C146.481,281.554 145.7,282.286 145.728,283.163 L145.728,283.163 Z" id="Shape"></path>
                    <path d="M123.123,286.949 C120.326,289.488 117.122,292.314 120.114,296.062 C121.311,297.563 123.417,298.472 125.071,299.33 C126.372,300.003 127.634,300.142 129.063,299.93 C134.174,299.171 135.321,291.97 133.24,288.229 C131.691,285.445 128.556,284.365 125.569,284.095 C123.833,283.94 121.113,284.39 120.14,286.051 C118.869,288.22 121.628,289.394 123.376,289.444 C124.83,289.485 126.216,289.47 127.597,289.971 C127.699,290.007 128.24,290.402 128.307,290.464 C128.344,290.497 128.853,291.116 128.543,290.692 C128.609,290.785 129.043,291.631 128.838,291.13 C129.067,291.691 129.089,291.982 129.095,292.047 C129.149,292.649 129.096,292.923 129.085,292.984 C129.044,293.219 128.647,294.315 128.851,293.874 C128.76,294.073 128.646,294.261 128.533,294.448 C128.323,294.795 128.745,294.262 128.282,294.749 C127.811,295.242 128.334,294.761 128.011,294.958 C128.046,294.937 127.636,295.046 128.003,295.009 C127.346,295.076 128.108,295.134 127.438,294.926 C127.804,295.089 127.666,295.018 127.019,294.712 C126.495,294.456 125.977,294.188 125.461,293.915 C125.12,293.735 123.434,292.614 123.466,292.9 C123.343,291.808 124.875,290.146 125.553,289.379 C127.014,287.719 124.77,285.453 123.123,286.949 L123.123,286.949 Z" id="Shape"></path>
                    <path d="M101.375,289.2 C99.814,290.835 98.139,292.729 98.139,295.132 C98.139,297.094 99.437,298.827 101.196,299.602 C105.718,301.591 110.785,298.85 112.742,294.569 C113.411,293.104 113.089,291.689 111.743,290.759 C109.282,289.058 105.827,288.346 102.972,289.545 C100.681,290.508 100.129,294.015 102.972,294.762 C105.069,295.314 106.93,294.454 108.933,295.568 C108.506,294.52 108.079,293.471 107.653,292.423 C107.278,293.515 106.579,294.366 105.806,294.864 C104.976,295.398 103.91,295.543 103.435,295.46 C103.209,295.421 102.992,295.349 102.776,295.274 C103.273,295.442 102.268,294.879 102.674,295.212 C102.514,295.08 102.378,294.917 102.237,294.765 C102.38,294.919 102.253,294.716 102.212,294.578 C101.844,293.35 102.745,291.867 103.512,290.849 C104.455,289.597 102.422,288.102 101.375,289.2 L101.375,289.2 Z" id="Shape"></path>
                    <path d="M237.994,244.792 C236.365,249.708 237.266,255.93 242.693,258.011 C246.586,259.504 254.899,258.025 255.368,252.824 C255.735,248.752 250.428,246.678 247.364,245.703 C243.607,244.506 236.727,243.128 234.889,247.764 C234.572,248.566 235.235,249.357 235.938,249.61 C238.29,250.457 240.819,249.975 243.31,250.231 C245.484,250.457 248.327,251.122 250.079,252.519 C250.172,252.592 250.529,252.995 250.548,253.021 C250.265,252.562 250.826,251.919 250.315,252.421 C249.08,253.629 246.766,254.053 245.127,253.988 C241.309,253.841 240.18,248.405 240.683,245.532 C240.986,243.78 238.566,243.067 237.994,244.792 L237.994,244.792 Z" id="Shape"></path>
                    <path d="M242.881,269.507 C234.532,271.982 230.471,282.24 236.321,289.177 C240.298,293.889 247.243,293.977 251.63,290.023 C255.151,286.848 256.865,281.003 254.823,276.616 C252.534,271.693 242.295,269.575 239.587,275.14 C239.126,276.088 239.277,277.38 240.315,277.912 C242.461,279.013 244.452,278.214 246.713,278.151 C247.349,278.133 247.858,278.243 248.456,278.431 C248.663,278.495 249.166,278.984 249.065,278.848 C250.198,280.383 249.531,282.911 248.182,284.945 C246.723,287.146 244.33,287.582 242.059,286.35 C236.142,283.145 239.068,275.075 244.202,272.643 C245.985,271.802 244.719,268.962 242.881,269.507 L242.881,269.507 Z" id="Shape"></path>
                    <path d="M253.935,282.775 C251.677,298.929 280.442,299.881 279.286,283.234 C278.226,267.968 246.111,274.117 249.967,283.816 C250.47,285.082 251.584,285.891 252.992,285.535 C254.433,285.169 255.291,284.006 256.464,283.172 C258.1,282.009 259.793,281.376 261.738,280.921 C265.092,280.137 269.902,280.029 272.745,282.314 C276.196,285.086 271.047,289.875 268.331,290.593 C263.406,291.899 257.033,288.519 256.793,283.163 C256.721,281.604 254.172,281.083 253.935,282.775 L253.935,282.775 Z" id="Shape"></path>
                    <path d="M258.967,261.819 C256.636,262.645 253.861,263.092 252.69,265.585 C251.599,267.906 252.684,270.326 253.756,272.436 C254.684,274.261 255.727,276.138 257.881,276.609 C259.693,277.005 261.441,276.463 263.066,275.683 C266.087,274.234 268.937,271.021 268.307,267.484 C267.392,262.341 259.936,262.407 256.304,263.696 C254.212,264.439 253.658,268.057 256.304,268.503 C257.938,268.775 260.043,268.912 261.397,269.111 C261.717,269.159 262.031,269.24 262.343,269.323 C263.203,269.552 261.888,269.052 262.579,269.402 C263.237,269.736 262.148,268.965 262.628,269.419 C262.121,268.94 262.554,269.49 262.292,268.799 C262.373,269.013 262.454,267.799 262.266,268.523 C262.213,268.725 261.938,269.262 262.291,268.517 C262.199,268.707 262.086,268.886 261.974,269.064 C261.578,269.691 262.397,268.578 261.906,269.168 C261.758,269.349 261.593,269.516 261.428,269.683 C261.26,269.853 261.08,270.009 260.901,270.166 C260.301,270.687 261.384,269.829 260.734,270.289 C260.353,270.56 259.943,270.785 259.523,270.988 C260.145,270.685 259.046,271.113 258.801,271.163 C259.551,271.015 259.017,271.118 258.804,271.113 C259.521,271.127 259.137,271.168 258.874,271.085 C259.775,271.37 259.53,271.481 258.889,270.507 C258.309,269.624 257.011,268.064 256.949,267.279 C256.877,266.344 259.157,264.841 260.042,264.368 C261.418,263.627 260.466,261.29 258.967,261.819 L258.967,261.819 Z" id="Shape"></path>
                    <path d="M249.025,235.8 C248.956,236.194 248.171,236.79 247.85,237.203 C247.036,238.253 246.663,239.337 246.297,240.599 C245.942,241.82 246.958,243.42 248.337,243.278 C249.437,243.165 250.532,243.101 251.639,243.114 C252.31,243.122 253.046,243.164 253.682,242.918 C255.596,242.178 256.492,240.075 257.632,238.505 C258.904,236.749 257.152,234.62 255.337,234.506 C253.16,234.368 247.971,234.736 248.324,238.024 C248.52,239.846 250.191,241.123 252.043,240.637 C253.113,240.357 254.236,239.95 255.337,239.821 C254.571,238.488 253.807,237.155 253.042,235.822 C252.648,236.642 252.26,237.463 251.845,238.27 C251.72,238.514 251.587,238.752 251.438,238.982 C251.699,238.665 251.751,238.591 251.596,238.764 C251.4,238.976 252.174,238.44 252.241,238.411 C252.063,238.484 251.401,238.551 252.152,238.465 C251.842,238.5 251.531,238.526 251.22,238.559 C250.061,238.682 248.912,238.875 247.775,239.123 C248.642,239.615 249.51,240.107 250.379,240.601 C250.025,238.986 251.674,237.727 251.699,236.163 C251.724,234.655 249.296,234.266 249.025,235.8 L249.025,235.8 Z" id="Shape"></path>
                    <path d="M265.199,249.024 C264.573,249.61 264.01,250.279 263.352,250.828 C263.979,250.306 263.147,251.013 262.994,251.182 C262.89,251.298 262.791,251.416 262.691,251.536 C262.406,251.879 262.131,252.232 261.878,252.599 C261.103,253.719 260.793,254.909 260.979,256.249 C261.163,257.585 262.403,258.437 263.565,258.853 C264.422,259.162 265.429,259.185 266.334,259.125 C268.374,258.991 270.42,258.498 272.309,257.721 C274.182,256.95 277.111,255.644 276.899,253.145 C276.798,251.957 276.237,250.85 275.128,250.295 C274.232,249.847 273.431,249.725 272.437,249.622 C271.653,249.541 270.858,249.553 270.071,249.58 C269.524,249.6 268.975,249.662 268.43,249.717 C267.197,249.842 265.637,249.976 264.797,251.023 C265.196,250.791 265.598,250.556 265.998,250.324 C265.739,250.411 265.48,250.498 265.227,250.595 C264.143,251.006 263.341,251.847 263.341,253.072 C263.341,254.535 264.513,255.556 265.908,255.639 C266.179,255.656 266.45,255.662 266.721,255.672 C266.263,255.549 265.804,255.425 265.346,255.301 C266.303,255.975 267.557,255.862 268.65,255.706 C268.892,255.671 269.41,255.602 268.315,255.749 C268.427,255.733 268.541,255.721 268.651,255.706 C268.898,255.675 269.144,255.645 269.391,255.619 C270.107,255.541 270.824,255.462 271.543,255.424 C272.023,255.398 272.509,255.392 272.988,255.44 C273.433,255.485 272.026,255.294 272.517,255.378 C272.589,255.391 272.66,255.406 272.73,255.424 C272.791,255.44 272.85,255.458 272.909,255.48 C273.135,255.561 272.017,255.048 272.42,255.284 C272.743,255.472 271.725,254.706 271.966,254.93 C272.226,255.171 271.442,254.185 271.604,254.459 C271.737,254.683 271.284,253.536 271.36,253.896 C271.116,252.745 271.258,252.96 271.266,253.214 C271.275,253.533 271.408,252.267 271.358,252.555 C271.278,253.021 271.778,251.731 271.539,252.134 C271.411,252.347 271.115,252.681 271.875,251.711 C271.834,251.764 271.789,251.813 271.742,251.86 C271.651,251.957 271.554,252.044 271.452,252.129 C271.071,252.448 272.029,251.69 271.807,251.858 C271.732,251.916 271.656,251.969 271.578,252.023 C271.265,252.242 270.932,252.435 270.597,252.62 C270.211,252.83 269.816,253.019 269.414,253.199 C269.312,253.245 269.211,253.289 269.108,253.332 C270.122,252.899 269.607,253.123 269.373,253.218 C269.143,253.311 268.909,253.4 268.676,253.485 C267.801,253.805 266.902,254.068 265.984,254.236 C265.883,254.256 265.781,254.27 265.679,254.288 C265.25,254.353 266.493,254.185 265.985,254.246 C265.78,254.269 265.574,254.286 265.368,254.294 C265.194,254.301 265.019,254.299 264.847,254.289 C264.18,254.251 265.569,254.435 264.939,254.302 C264.67,254.245 264.1,253.989 265.073,254.405 C264.739,254.262 264.575,254.045 265.177,254.546 C264.893,254.31 264.901,254.185 265.284,254.734 C265.25,254.685 265.221,254.632 265.195,254.58 C265.163,254.512 265.455,255.318 265.341,254.889 C265.224,254.436 265.387,255.652 265.376,255.1 C265.374,255.034 265.378,254.967 265.383,254.901 C265.413,254.46 265.278,255.562 265.345,255.177 C265.377,254.993 265.428,254.813 265.485,254.634 C265.514,254.543 265.548,254.453 265.581,254.363 C265.762,253.88 265.365,254.847 265.544,254.444 C265.651,254.2 265.773,253.963 265.898,253.726 C265.961,253.607 266.028,253.49 266.095,253.372 C266.213,253.165 266.273,253.046 266.373,252.775 C266.161,253.346 266.263,253.036 266.323,252.901 C266.471,252.584 266.707,252.302 266.915,252.021 C266.978,251.935 267.348,251.458 267.044,251.848 C267.187,251.664 267.331,251.484 267.478,251.303 C268.029,250.622 268.146,249.697 267.478,249.028 C266.839,248.39 265.839,248.426 265.199,249.024 L265.199,249.024 Z" id="Shape"></path>
                    <path d="M83.344,245.885 C82.302,241.57 76.433,239.857 72.587,240.011 C67.022,240.234 63.391,244.155 62.007,249.258 C60.224,255.832 61.984,262.908 70.065,261.644 C75.482,260.796 81.485,256.51 84.333,251.878 C88.347,245.347 79.609,241.097 74.519,244.76 C73.308,245.631 73.575,247.176 74.907,247.729 C76.538,248.406 79.266,248.276 80.428,248.874 C80.597,248.962 80.25,248.252 80.24,248.622 C80.244,248.432 79.942,249.257 79.575,249.826 C77.643,252.825 73.847,255.244 70.551,256.422 C67,257.691 65.652,256.735 65.899,252.887 C66.154,248.902 67.731,245.463 71.747,244.262 C75.756,243.063 78.623,245.129 81.811,247.066 C82.619,247.555 83.553,246.752 83.344,245.885 L83.344,245.885 Z" id="Shape"></path>
                    <path d="M87.905,282.19 C84.321,280.096 79.494,281.074 76.233,283.314 C72.296,286.02 71.39,290.676 72.71,295.055 C74.559,301.189 80.49,303.554 86.291,301.398 C91.235,299.559 96.394,295.019 97.294,289.585 C97.758,286.782 96.9,284.073 94.765,282.161 C91.773,279.481 87.771,279.021 84.031,280.042 C83.13,280.288 82.809,281.728 83.755,282.163 C86.128,283.255 88.738,284.052 90.984,285.392 C92.391,286.233 92.704,287.276 92.611,288.664 C92.401,291.804 88.815,294.941 86.083,296.47 C83.125,298.122 79.432,298.46 77.441,295.279 C75.798,292.65 75.439,289.314 77.63,286.915 C80.078,284.232 84.003,284.1 87.34,284.286 C88.481,284.351 88.838,282.735 87.905,282.19 L87.905,282.19 Z" id="Shape"></path>
                    <path d="M64.648,273.473 C61.771,277.08 60.68,280.516 61.29,285.162 C61.436,286.267 62.111,287.208 63.338,287.209 C68.75,287.214 73.9,283.414 74.571,277.905 C74.883,275.359 73.158,273.41 70.899,272.589 C68.174,271.598 62.84,272.649 62.028,275.801 C61.877,276.394 62.121,277.022 62.652,277.334 C64.633,278.501 67.196,277.23 69.352,277.215 C70.155,277.21 70.243,277.237 70.205,278.157 C70.085,281.047 65.912,283.003 63.339,283.115 C63.996,283.616 64.654,284.117 65.313,284.618 C64.514,281.229 64.556,277.8 66.181,274.653 C66.661,273.72 65.37,272.568 64.648,273.473 L64.648,273.473 Z" id="Shape"></path>
                    <path d="M218.337,231.997 C213.06,231.652 207.97,238.015 211.048,242.877 C213.509,246.764 218.676,247.659 222.892,247.033 C228.221,246.242 230.685,240.937 229.098,236.087 C227.927,232.51 225.754,230.078 222.299,228.628 C219.283,227.361 215.803,227.971 212.916,229.201 C209.989,230.447 208.284,233.348 208.055,236.417 C207.746,240.518 211.23,243.96 214.2,246.202 C217.182,248.454 220.227,248.278 223.133,246.022 C225,244.572 226.237,241.745 226.555,239.459 C227.025,236.068 226.312,232.908 223.397,230.822 C220.17,228.511 215.446,229.708 212.223,231.325 C208.021,233.432 207.721,238.42 210.662,241.664 C213.204,244.467 217.718,245.568 221.338,245.657 C223.719,245.715 225.926,243.566 225.834,241.161 C225.731,238.511 224.621,235.487 221.706,234.812 C220.695,234.579 219.65,234.496 218.654,234.859 C218.26,235.005 217.773,235.194 217.381,235.422 C217.352,235.442 217.323,235.46 217.295,235.48 C216.182,236.34 216.156,236.359 217.221,235.538 C215.149,236.507 214.64,239.442 215.716,241.278 C216.948,243.383 219.385,243.753 221.456,242.784 C221.464,242.78 221.472,242.776 221.478,242.772 C220.772,242.963 220.066,243.155 219.36,243.345 C219.757,243.323 220.221,243.399 218.813,243.201 C219.226,243.319 219.048,243.232 218.28,242.939 C217.921,242.765 216.876,241.835 216.842,241.159 C218.341,239.66 219.84,238.162 221.338,236.663 C220.913,236.657 220.495,236.636 220.072,236.6 C221.049,236.684 219.702,236.5 219.593,236.476 C219.186,236.387 218.788,236.261 218.393,236.135 C217.15,235.739 219.13,236.519 218,235.989 C217.672,235.836 217.361,235.646 217.054,235.458 C216.104,234.872 217.7,236.062 216.961,235.364 C216.383,234.817 217.343,236.107 217.402,236.26 C217.724,237.078 217.341,238.258 216.77,238.871 C216.08,239.612 216.711,238.966 217.055,238.789 C216.343,239.155 217.98,238.542 217.909,238.561 C217.97,238.543 219.715,238.243 218.418,238.394 C218.729,238.358 219.041,238.367 219.352,238.378 C218.197,238.332 218.83,238.306 219.211,238.424 C218.076,238.071 219.163,238.624 218.234,237.856 C218.857,238.373 217.643,236.941 218.08,237.62 C218.455,238.2 217.75,236.494 218.033,237.578 C218.255,238.417 217.941,236.435 217.997,237.325 C218.013,237.564 217.997,237.806 217.984,238.048 C217.932,238.967 218.176,236.955 217.997,237.87 C217.949,238.119 217.878,238.362 217.807,238.604 C217.725,238.881 217.371,239.724 217.892,238.507 C217.795,238.735 217.678,238.951 217.56,239.169 C217.447,239.379 217.313,239.576 217.18,239.773 C217.922,238.677 217.408,239.469 217.139,239.731 C216.562,240.294 218.036,239.126 217.381,239.53 C216.734,239.927 218.454,239.173 217.743,239.355 C218.602,239.133 218.321,239.132 219.181,239.33 C220.184,239.559 219.969,239.722 219.521,239.417 C218.795,238.923 218.151,238.354 217.527,237.735 C217.482,237.689 216.591,236.603 217.135,237.339 C216.982,237.132 216.314,235.793 216.76,236.882 C216.65,236.614 216.588,236.332 216.529,236.051 C216.818,237.421 216.717,235.614 216.52,237.056 C216.563,236.74 216.893,235.998 216.38,237.167 C216.498,236.897 217.004,236.229 216.231,237.227 C216.383,237.032 216.563,236.862 216.743,236.691 C215.919,237.469 216.424,236.929 216.712,236.746 C216.939,236.601 217.182,236.487 217.424,236.372 C216.313,236.9 217.447,236.42 217.736,236.343 C217.98,236.28 218.949,236.146 217.759,236.293 C218.049,236.257 218.342,236.251 218.634,236.244 C218.926,236.238 219.219,236.263 219.51,236.287 C218.373,236.19 219.308,236.284 219.566,236.346 C219.777,236.397 220.7,236.744 219.688,236.318 C219.958,236.431 220.209,236.581 220.459,236.728 C221.296,237.225 219.834,236.151 220.563,236.811 C221.358,237.532 220.531,236.634 220.878,237.18 C221.058,237.461 221.851,239.202 221.446,238.191 C221.634,238.661 221.762,239.149 221.856,239.644 C221.555,238.058 221.606,240.921 221.872,239.179 C221.846,239.357 221.794,239.528 221.741,239.7 C221.553,240.31 222.256,238.734 221.768,239.529 C221.414,240.108 222.423,238.761 221.965,239.261 C221.769,239.475 221.234,239.872 222.244,239.095 C221.971,239.306 221.659,239.466 221.347,239.612 C222.589,239.037 221.416,239.533 221.047,239.62 C219.849,239.902 221.779,239.616 220.524,239.677 C220.092,239.698 218.171,239.491 219.534,239.693 C218.951,239.607 218.38,239.458 217.821,239.269 C216.892,238.957 218.416,239.555 217.846,239.29 C217.577,239.165 217.315,239.029 217.059,238.882 C216.795,238.729 216.17,238.191 217.121,238.97 C216.859,238.755 216.308,238.007 217.054,239.016 C216.865,238.76 216.616,238.079 217.069,239.215 C216.725,238.356 217.049,239.611 217.038,239.278 C217.019,238.73 216.809,240.267 217.025,239.403 C217.234,238.563 216.664,240.009 217.138,239.184 C217.588,238.4 216.899,239.41 217.298,238.934 C217.592,238.583 217.919,238.251 218.231,237.916 C219.016,237.072 219.69,236.287 220.21,235.251 C220.968,233.738 220.025,232.106 218.337,231.997 L218.337,231.997 Z" id="Shape"></path>
                    <path d="M136.801,156.739 C133.544,165.192 122.699,170.389 115.259,174.513 C106.029,179.627 96.356,183.952 87.437,189.618 C77.656,195.832 69.376,204.908 61.953,213.688 C53.721,223.429 46.974,234.341 42.481,246.293 C33.418,270.41 39.814,295.558 56.262,314.79 C65.486,325.575 77.743,333.632 90.45,339.723 C120.22,353.992 154.782,358.538 187.495,356.694 C219.317,354.899 252.289,346.462 277.762,326.568 C304.427,305.743 317.241,269.612 303.587,237.605 C294.003,215.136 272.78,199.417 253.47,185.75 C234.616,172.405 213.46,162.865 190.423,159.99 C181.431,158.868 172.401,158.615 163.348,158.852 C152.512,159.138 142.336,161.022 131.697,162.834 C128.996,163.294 129.65,167.696 132.34,167.574 C138.749,167.283 145.132,167.616 151.53,167.29 C157.822,166.971 164.104,166.647 170.407,166.644 C181.505,166.636 192.532,167.729 203.323,170.353 C227.324,176.187 248.36,190.537 267.279,205.92 C286.588,221.622 302.663,242.066 301.446,268.161 C300.774,282.572 294.918,296.726 285.892,307.885 C266.173,332.262 233.785,343.129 203.777,347.475 C170.813,352.248 135.732,349.143 104.466,337.515 C90.857,332.452 77.714,325.298 67.011,315.4 C48.914,298.666 41.109,274.865 48.238,251.039 C52.149,237.97 60.047,226.217 68.663,215.803 C76.097,206.822 84.349,198.303 94.297,192.143 C103.389,186.513 113.076,181.915 122.181,176.301 C128.849,172.189 136.454,166.829 139.336,159.16 C139.547,158.645 139.726,158.122 139.873,157.587 C140.491,155.587 137.524,154.862 136.801,156.739 L136.801,156.739 Z" id="Shape"></path>
                    <path d="M223.079,301.893 C212.904,297.283 196.473,301.138 191.399,311.759 C189.251,316.258 189.87,321.869 193.632,325.275 C197.675,328.933 203.969,329.129 209.077,328.608 C219.999,327.497 233.717,321.754 234.785,309.22 C235.291,303.299 229.344,299.716 224.388,298.637 C217.973,297.24 210.761,298.19 205.827,302.652 C204.43,303.918 205.534,306.317 207.337,306.298 C210.856,306.258 227.087,303.235 227.506,309.222 C228.052,317.017 215.676,320.561 210.151,321.66 C204.346,322.815 192.799,322.035 197.588,313.16 C201.464,305.976 214.585,303.44 221.945,304.581 C223.451,304.812 224.723,302.639 223.079,301.893 L223.079,301.893 Z" id="Shape"></path>
                    <path d="M174.201,303.298 C169.994,299.567 163.93,305.387 162.26,309.118 C159.65,314.949 163.01,320.551 168.001,323.612 C174.09,327.349 181.487,325.879 186.074,320.555 C189.95,316.058 192.302,309.072 190.228,303.264 C187.471,295.535 178.733,294.833 172.024,297.548 C168.892,298.815 167.18,300.364 165.155,302.979 C164.379,303.983 164.7,305.984 166.337,305.833 C168.602,305.621 170.611,305.564 172.848,304.959 C174.556,304.496 176.222,303.98 177.969,303.659 C177.929,303.666 179.087,303.572 179.477,303.566 C179.728,303.566 179.979,303.575 180.23,303.59 C181.385,303.646 179.538,303.436 180.61,303.642 C180.86,303.69 182.331,304.223 181.49,303.849 C181.734,303.957 182.92,304.787 182.175,304.184 C182.38,304.35 183.279,305.422 182.704,304.646 C182.978,305.016 183.191,305.428 183.39,305.843 C182.98,304.983 183.501,306.336 183.562,306.584 C183.816,307.605 183.605,306.312 183.686,307.386 C183.725,307.904 183.709,308.424 183.683,308.942 C183.631,309.957 183.748,308.887 183.562,309.902 C183.461,310.445 183.316,310.979 183.162,311.508 C183.1,311.721 182.593,313.098 182.824,312.552 C181.846,314.857 181.021,315.977 179.264,317.489 C178.222,318.386 176.514,319.002 174.778,318.955 C172.83,318.9 169.493,317.332 168.029,315.073 C166.809,313.189 167.659,310.698 168.69,308.958 C169.95,306.83 171.96,306.339 173.955,305.217 C174.612,304.848 174.789,303.819 174.201,303.298 L174.201,303.298 Z" id="Shape"></path>
                    <path d="M222.885,193.521 C216.462,194.485 212.014,199.381 211.867,205.905 C211.729,212.072 216.801,217.233 221.85,219.984 C229.041,223.901 237.016,221.706 241.171,214.698 C244.506,209.073 245.049,200.685 241.031,195.254 C238.587,191.945 235.148,190.358 231.114,189.969 C225.687,189.445 220.691,191.933 216.583,195.097 C215.54,195.9 214.712,197.125 215.188,198.521 C215.371,199.052 215.599,199.438 215.968,199.859 C216.624,200.607 217.976,200.987 218.918,200.639 C222.015,199.496 225.78,198.005 229.11,197.675 C231.442,197.445 233.225,197.924 234.368,198.975 C236.881,201.287 236.925,205.836 235.607,209.679 C234.446,213.069 231.556,215.658 227.882,214.948 C224.51,214.296 220.979,211.831 219.094,209.028 C215.55,203.757 219.565,199.157 224.192,196.632 C226.022,195.636 224.668,193.254 222.885,193.521 L222.885,193.521 Z" id="Shape"></path>
                    <path d="M162.512,103.163 C161.615,119.506 138.127,127.814 125.603,132.793 C117.409,136.05 109.075,138.936 100.856,142.126 C92.19,145.488 84.114,149.991 76.208,154.859 C55.655,167.515 37.367,184.072 23.59,203.933 C9.722,223.924 2.298,247.382 0.67,271.563 C-0.551,289.682 2.42,308.126 10.286,324.542 C18.984,342.691 34.567,355.19 52.211,364.097 C68.399,372.267 86.034,379.368 104.07,381.818 C112.467,382.959 120.919,383.654 129.315,384.799 C134.725,385.536 141.896,386.028 146.417,389.45 C149.865,392.06 154.286,386.268 151.027,383.472 C145.222,378.493 136.437,377.837 129.176,376.887 C118.766,375.524 108.258,374.809 97.923,372.914 C86.701,370.856 75.679,365.962 65.256,361.482 C52.994,356.213 41.047,349.838 31.301,340.598 C13.409,323.634 7.362,298.29 8.124,274.401 C8.92,249.455 17.385,225.639 31.715,205.312 C50.851,178.168 80.017,157.361 110.813,145.529 C123.902,140.5 137.191,135.553 149.179,128.172 C158.049,122.71 168.075,114.251 166.097,102.677 C165.733,100.55 162.619,101.21 162.512,103.163 L162.512,103.163 Z" id="Shape"></path>
                    <path d="M207.229,81.514 C203.065,89.709 198.678,97.485 197.639,106.797 C196.689,115.304 201.304,122.607 207.199,128.265 C215.393,136.13 225.967,141.758 235.958,146.975 C245.888,152.161 256.105,156.773 266.191,161.642 C285.98,171.196 305.727,182.416 318.355,200.993 C325.454,211.434 329.968,223.888 334.029,235.759 C338.462,248.716 341.571,262.178 342.489,275.858 C343.88,296.568 338.708,316.84 325.8,333.289 C315.122,346.893 300.136,356.222 284.205,362.489 C252.679,374.895 218.298,376.373 185.289,382.359 C180.289,383.266 182.413,390.873 187.388,389.966 C228.613,382.462 273.615,381.729 309.851,358.13 C329.119,345.581 343.249,326.13 348.298,303.623 C354.093,277.782 347.86,250.408 338.747,226.119 C331.958,208.024 323.515,191.71 308.753,178.867 C295.225,167.096 278.876,159.168 262.781,151.578 C245.892,143.613 227.577,136.317 213.105,124.236 C207.327,119.414 203.456,113.577 203.77,105.887 C204.087,98.158 207.469,89.889 209.576,82.502 C209.969,81.122 207.897,80.2 207.229,81.514 L207.229,81.514 Z" id="Shape"></path>
                    <path d="M156.521,383.1 C155.434,385.47 155.237,387.847 155.688,390.405 C156.079,392.622 157.542,395.989 159.729,396.915 C162.013,397.881 165.458,396.28 164.41,393.315 C163.847,391.719 162.636,390.663 161.786,389.229 C160.86,387.668 160.482,385.954 160.441,384.163 C160.396,382.216 157.439,381.098 156.521,383.1 L156.521,383.1 Z" id="Shape"></path>
                    <path d="M165.108,382.443 C163.772,384.732 163.247,386.911 163.689,389.551 C164.145,392.275 166.375,394.528 168.934,395.355 C172.62,396.546 175.22,390.59 171.599,389.036 C170.529,388.577 169.614,388.321 168.947,387.336 C168.19,386.218 167.864,384.483 167.762,383.163 C167.655,381.803 165.862,381.153 165.108,382.443 L165.108,382.443 Z" id="Shape"></path>
                    <path d="M203.708,74.82 C186.227,72.309 158.064,82.86 156.856,103.163 C156.742,105.08 158.526,106.614 160.336,106.642 C169.758,106.789 179.321,103.985 187.858,100.201 C195.898,96.637 204.369,90.363 205.974,81.166 C206.319,79.187 205.475,77.048 203.338,76.522 C197.521,75.095 192.737,74.814 188,78.828 C186.768,79.871 187.738,82.168 189.334,82.05 C193.209,81.763 197.563,82.912 201.33,83.802 C200.452,82.255 199.573,80.707 198.694,79.159 C197.389,87.036 189.729,91.338 183.06,94.374 C176.029,97.574 168.037,99.363 160.333,99.682 C161.492,100.842 162.652,102.002 163.812,103.162 C163.855,85.679 190.394,79.752 203.702,77.504 C205.027,77.283 205.057,75.014 203.708,74.82 L203.708,74.82 Z" id="Shape"></path>
                    <path d="M171.443,105.917 C166.357,127.35 143.668,135.925 125.276,143.221 C104.864,151.319 85.202,161.201 67.266,173.951 C48.352,187.394 31.703,204.568 22.164,225.961 C13.739,244.856 10.597,267.076 14.611,287.429 C21.365,321.667 51.685,346.165 84.024,355.292 C85.524,355.716 85.992,353.6 84.647,353.032 C64.294,344.469 44.527,334.013 31.122,315.885 C18.98,299.463 14.988,279.175 17.084,259.115 C19.681,234.261 31.079,212.126 48.473,194.419 C65.509,177.075 86.957,164.389 108.635,153.747 C130.979,142.778 168.225,135.705 173.229,106.41 C173.428,105.252 171.724,104.736 171.443,105.917 L171.443,105.917 Z" id="Shape"></path>
                    <path d="M314.112,213.294 C319.132,220.993 320.939,230.414 323.055,239.225 C325.114,247.791 328.17,255.956 329.59,264.694 C332.22,280.888 330.035,297.563 321.719,311.83 C312.369,327.862 296.293,337.575 279.85,345.046 C258.986,354.525 236.742,360.023 215.09,367.271 C213.942,367.656 214.416,369.257 215.582,369.058 C238.847,365.079 261.867,357.451 283.336,347.703 C300.431,339.939 316.056,329.259 325.682,312.756 C334.078,298.36 335.715,281.281 333.229,265.059 C331.752,255.43 328.302,246.317 325.539,237.02 C323.072,228.718 320.948,219.238 314.52,212.983 C314.314,212.775 313.947,213.041 314.112,213.294 L314.112,213.294 Z" id="Shape"></path>
                    <path d="M191.931,103.05 C186.032,136.309 222.934,155.129 247.473,166.932 C262.454,174.139 277.928,180.745 291.622,190.29 C298.614,195.165 304.537,200.974 309.121,208.179 C316.483,219.748 320.57,233.359 324.435,246.409 C324.723,247.383 326.398,247.238 326.269,246.161 C323.841,225.781 315.314,204.621 299.206,191.29 C286.768,180.995 271.643,174.22 257.133,167.427 C242.03,160.358 226.443,153.413 213.316,142.951 C207.455,138.279 202.37,132.713 198.677,126.171 C194.677,119.088 193.475,111.144 192.756,103.161 C192.718,102.722 192.02,102.55 191.931,103.05 L191.931,103.05 Z" id="Shape"></path>
                    <path d="M211.646,88.972 C205.43,109.847 231.06,123.666 245.696,131.85 C265.054,142.675 285.278,152.416 302.686,166.335 C321.063,181.028 334.086,200.402 341.324,222.74 C345.289,234.976 347.721,247.726 348.745,260.54 C349.806,273.813 348.421,286.554 346.531,299.664 C346.184,302.069 349.212,302.897 350.144,300.66 C354.672,289.788 355.097,277.123 354.731,265.507 C354.34,253.155 352.18,240.807 349.043,228.875 C343.103,206.269 331.834,185.876 314.959,169.613 C299.395,154.616 280.099,144.189 261.198,134.065 C251.46,128.848 241.51,123.812 232.265,117.745 C221.576,110.729 214.457,102.098 213.052,89.162 C212.969,88.386 211.89,88.152 211.646,88.972 L211.646,88.972 Z" id="Shape"></path>
                    <path d="M213.193,100.642 C208.057,102.181 200.424,105.937 200.047,112.163 C200.027,112.476 200.432,112.519 200.586,112.309 C202.174,110.123 203.202,107.87 205.287,106.038 C207.632,103.978 210.609,102.79 213.479,101.684 C214.115,101.437 213.872,100.439 213.193,100.642 L213.193,100.642 Z" id="Shape"></path>
                    <path d="M216.337,107.795 C209.875,107.257 202.216,113.208 202.935,120.162 C202.971,120.513 203.501,120.768 203.685,120.365 C204.96,117.561 205.537,114.856 207.65,112.475 C209.918,109.921 213.069,108.956 216.338,108.528 C216.8,108.469 216.818,107.835 216.337,107.795 L216.337,107.795 Z" id="Shape"></path>
                    <path d="M221.337,113.685 C218.033,114.06 215.153,115.641 212.859,118.018 C210.921,120.029 209.09,123.444 209.974,126.261 C210.091,126.634 210.568,126.601 210.698,126.261 C211.692,123.654 212.011,121.276 213.875,119.032 C215.814,116.696 218.601,115.405 221.463,114.621 C221.968,114.483 221.883,113.624 221.337,113.685 L221.337,113.685 Z" id="Shape"></path>
                    <path d="M227.09,117.742 C224.066,119.179 221.337,121.07 219.328,123.794 C217.485,126.294 215.455,129.946 215.812,133.164 C215.862,133.619 216.546,133.956 216.788,133.428 C218.06,130.636 218.478,127.73 220.208,125.08 C222,122.332 224.758,120.175 227.583,118.585 C228.139,118.271 227.651,117.474 227.09,117.742 L227.09,117.742 Z" id="Shape"></path>
                    <path d="M236.928,123.753 C234.532,125.995 232.202,128.316 230.168,130.895 C228.672,132.791 226.513,135.595 226.849,138.163 C226.911,138.638 227.468,138.838 227.759,138.41 C229.159,136.343 229.887,133.908 231.373,131.827 C233.243,129.207 235.555,126.918 237.745,124.572 C238.255,124.025 237.474,123.244 236.928,123.753 L236.928,123.753 Z" id="Shape"></path>
                    <path d="M245.089,127.737 C241.121,130.746 236.257,137.088 238.988,142.366 C239.194,142.762 239.69,142.518 239.738,142.163 C240.037,139.932 239.833,137.83 240.541,135.634 C241.451,132.81 243.534,130.469 245.685,128.511 C246.093,128.138 245.537,127.397 245.089,127.737 L245.089,127.737 Z" id="Shape"></path>
                    <path d="M252.989,134.959 C251.82,137.056 250.75,139.199 249.641,141.329 C248.469,143.585 246.828,145.689 245.876,148.036 C245.679,148.522 246.351,148.769 246.673,148.499 C248.403,147.044 249.417,144.744 250.416,142.753 C251.624,140.344 252.612,137.836 253.684,135.364 C253.885,134.902 253.25,134.496 252.989,134.959 L252.989,134.959 Z" id="Shape"></path>
                    <path d="M268.074,140.9 C264.968,144.625 261.627,151.546 264.041,156.337 C264.213,156.678 264.643,156.466 264.682,156.164 C264.996,153.706 264.86,151.3 265.417,148.852 C266.026,146.179 267.225,143.671 268.657,141.351 C268.876,140.997 268.348,140.572 268.074,140.9 L268.074,140.9 Z" id="Shape"></path>
                    <path d="M278.866,149.033 C277.501,152.975 276.011,158.104 276.903,162.283 C276.997,162.72 277.669,162.706 277.77,162.283 C278.302,160.065 278.299,157.731 278.653,155.478 C278.979,153.404 279.481,151.365 279.807,149.292 C279.904,148.677 279.075,148.428 278.866,149.033 L278.866,149.033 Z" id="Shape"></path>
                    <path d="M289.008,153.072 C287.645,156.76 286.045,161.215 285.906,165.163 C285.891,165.578 286.517,165.767 286.707,165.38 C288.444,161.827 289.131,157.152 289.664,153.254 C289.724,152.825 289.164,152.652 289.008,153.072 L289.008,153.072 Z" id="Shape"></path>
                    <path d="M294.875,161.163 C294.472,164.982 294.157,169.496 294.938,173.272 C295.02,173.668 295.655,173.668 295.737,173.272 C296.516,169.495 296.203,164.981 295.8,161.163 C295.735,160.569 294.939,160.569 294.875,161.163 L294.875,161.163 Z" id="Shape"></path>
                    <path d="M308.013,164.251 C308.894,169.943 308.898,175.436 309.008,181.162 C309.017,181.54 309.538,181.6 309.654,181.249 C311.45,175.758 309.974,169.509 308.662,164.073 C308.557,163.642 307.948,163.834 308.013,164.251 L308.013,164.251 Z" id="Shape"></path>
                    <path d="M318.079,175.163 C318.412,177.714 318.759,180.268 318.955,182.835 C319.194,185.966 318.862,189.043 318.962,192.163 C318.977,192.596 319.564,192.661 319.698,192.263 C321.509,186.95 319.989,180.349 318.587,175.095 C318.513,174.82 318.042,174.869 318.079,175.163 L318.079,175.163 Z" id="Shape"></path>
                    <path d="M328.028,187.163 C328.27,190.372 328.501,193.568 328.583,196.788 C328.673,200.257 328.435,203.821 329.018,207.251 C329.073,207.568 329.604,207.568 329.659,207.251 C330.242,203.82 329.974,200.25 329.844,196.788 C329.721,193.549 329.404,190.236 328.638,187.081 C328.554,186.747 328.002,186.811 328.028,187.163 L328.028,187.163 Z" id="Shape"></path>
                    <path d="M339.013,203.163 C338.9,206.706 338.799,210.243 338.78,213.788 C338.759,217.572 338.453,221.501 339.009,225.253 C339.059,225.579 339.616,225.579 339.665,225.253 C340.179,221.793 339.919,218.188 339.899,214.696 C339.878,210.847 339.784,207.008 339.661,203.163 C339.648,202.745 339.026,202.745 339.013,203.163 L339.013,203.163 Z" id="Shape"></path>
                    <path d="M345.946,220.163 C345.9,224.511 345.777,228.863 345.419,233.196 C345.025,237.934 343.903,242.425 342.96,247.058 C342.878,247.466 343.483,247.786 343.675,247.359 C347.408,239.038 346.821,229.056 346.729,220.163 C346.723,219.659 345.951,219.659 345.946,220.163 L345.946,220.163 Z" id="Shape"></path>
                    <path d="M332.551,33.453 C329.205,27.169 324.268,21.444 319.57,16.147 C314.653,10.604 308.72,4.905 301.684,2.193 C295.399,-0.229 278.627,-0.15 279.215,10.235 C279.691,18.661 291.098,25.521 297.1,29.813 C304.74,35.276 313.435,39.768 320.42,46.08 C320.277,44.984 320.137,43.889 319.994,42.794 C320.012,42.768 318.681,43.451 318.442,43.635 C317.227,44.567 317.366,47.128 319.336,46.932 C319.834,46.883 320.477,47.288 320.916,47.457 C321.791,47.794 322.715,47.351 323.373,46.808 C323.666,46.565 323.959,46.323 324.254,46.08 C325.112,45.371 325.343,43.696 324.679,42.794 C320.738,37.441 312.827,34.011 307.373,30.482 C299.875,25.632 291.681,20.63 285.959,13.642 C284.561,11.933 283.096,9.422 285.304,7.805 C289.615,4.648 295.735,4.784 300.49,6.524 C314.011,11.475 320.152,26.238 330.344,35.157 C331.54,36.205 333.32,34.896 332.551,33.453 L332.551,33.453 Z" id="Shape"></path>
                    <path d="M321.692,41.984 C319.745,52.869 323.105,64.591 323.924,75.491 C324.791,87.008 322.549,97.666 316.07,107.272 C305.77,122.544 288.37,131.835 274.257,143.084 C275.895,144.038 277.532,144.992 279.171,145.944 C279.535,143.671 279.874,141.882 279.403,139.592 C279.049,137.873 276.223,137.379 275.483,139.08 C274.726,140.818 273.835,142.502 273.499,144.381 C272.975,147.319 276.106,149.214 278.415,147.242 C293.013,134.776 310.353,125.156 320.835,108.533 C326.464,99.602 328.499,89.458 328.176,79.007 C327.987,72.922 326.921,66.88 325.928,60.887 C324.887,54.608 324.266,48.218 322.981,41.986 C322.851,41.353 321.809,41.335 321.692,41.984 L321.692,41.984 Z" id="Shape"></path>
                    <path d="M331.508,36.58 C340.309,41.721 347.756,46.469 353.385,55.258 C358.491,63.232 361.5,72.383 364.698,81.229 C367.878,90.028 371.253,98.812 376.448,106.647 C382.669,116.027 392.013,122.784 401.322,128.841 C412.276,135.971 423.902,141.991 434.574,149.568 C445.978,157.667 455.225,168.557 463.722,179.565 C472.492,190.925 480.469,203.341 485.396,216.881 C488.219,224.64 489.245,233.187 489.735,241.381 C492.26,283.596 472.349,343.214 420.337,337.2 C421.934,338.413 423.527,339.629 425.124,340.844 C424.292,338.627 423.511,336.468 422.634,334.255 C421.363,331.044 417.294,330.983 416.042,334.255 C414.765,337.593 414.27,340.049 415.552,343.483 C416.406,345.774 417.946,346.846 420.337,347.128 C438.301,349.232 455.389,344.011 468.851,331.91 C481.874,320.205 489.712,303.339 494.296,286.725 C499.059,269.475 500.401,250.954 498.237,233.201 C495.29,209.026 482.583,188.713 467.595,169.993 C461.131,161.92 454.246,153.993 446.252,147.398 C438.651,141.129 430.187,136.026 421.694,131.076 C406.414,122.167 389.752,113.612 380.502,97.879 C373.219,85.485 369.612,71.303 363.043,58.549 C356.911,46.651 346.384,34.824 332.336,33.523 C330.653,33.367 330.178,35.801 331.508,36.58 L331.508,36.58 Z" id="Shape"></path>
                    <path d="M325.336,344.374 C329.775,344.429 333.896,342.025 337.905,340.358 C342.43,338.477 347.038,336.571 351.817,335.45 C362.948,332.841 374.609,333.167 385.954,334.034 C392.266,334.514 398.429,335.956 404.556,337.497 C407.513,338.239 410.447,339.081 413.326,340.09 C414.112,340.364 414.841,340.686 415.58,341.069 C415.894,341.233 416.204,341.405 416.509,341.586 C420.027,343.605 415.596,340.615 415.648,339.164 C415.575,341.226 417.384,342.791 419.339,342.855 C421.999,342.943 424.363,340.635 424.143,337.923 C423.827,334.038 420.683,332.556 417.455,331.319 C410.428,328.627 402.599,327.462 395.194,326.298 C383.529,324.465 369.957,324.317 358.338,326.527 C351.92,327.751 345.939,330.135 340.002,332.823 C334.898,335.134 328.142,337.946 324.483,342.306 C323.82,343.094 324.215,344.359 325.336,344.374 L325.336,344.374 Z" id="Shape"></path>
                    <path d="M387.336,313.564 C391.572,313.351 395.695,313.168 399.937,313.463 C404.741,313.797 409.605,316.447 414.336,315.875 C416.481,315.615 418.195,313.012 416.256,311.241 C412.819,308.105 408.01,307.843 403.536,307.256 C397.957,306.523 392.006,306.939 386.697,308.845 C384.274,309.717 384.48,313.708 387.336,313.564 L387.336,313.564 Z" id="Shape"></path>
                    <path d="M389.994,298.405 C394.243,299.081 398.663,298.947 402.962,299.111 C407.693,299.293 413.202,300.379 417.521,298.185 C419.048,297.411 419.05,294.914 417.521,294.138 C413.597,292.147 409.132,293.057 404.845,293.329 C399.979,293.638 394.532,294.068 389.994,295.918 C388.969,296.337 388.579,298.181 389.994,298.405 L389.994,298.405 Z" id="Shape"></path>
                    <path d="M391.911,284.707 C400.933,286.355 412.013,287.928 419.604,281.561 C420.496,280.813 420.859,279.259 420.499,278.175 C418.887,273.316 413.853,277.102 410.95,278.288 C404.99,280.724 398.175,280.543 391.911,281.619 C390.368,281.883 390.385,284.428 391.911,284.707 L391.911,284.707 Z" id="Shape"></path>
                    <path d="M394.246,267.253 C400.841,272.482 414.761,270.83 420.583,265.149 C421.345,264.408 421.755,263.111 421.395,262.079 C419.787,257.479 414.347,261.372 411.517,262.378 C405.964,264.353 400.544,263.706 394.928,264.674 C393.842,264.861 393.369,266.558 394.246,267.253 L394.246,267.253 Z" id="Shape"></path>
                    <path d="M396.927,248.65 C401.939,249.504 406.834,249.342 411.739,247.969 C416.035,246.766 421.931,244.249 422.154,239.161 C422.198,238.155 421.294,237.365 420.339,237.345 C416.724,237.269 413.708,240.152 410.606,241.714 C406.418,243.823 401.492,244.762 396.929,245.673 C395.471,245.965 395.427,248.394 396.927,248.65 L396.927,248.65 Z" id="Shape"></path>
                    <path d="M395.336,226.116 C399.281,226.539 403.461,224.799 406.873,222.987 C409.652,221.512 414.06,218.435 412.824,214.753 C412.668,214.289 412.278,213.748 411.746,213.675 C408.475,213.228 406.306,216.08 403.864,217.842 C400.931,219.96 397.513,220.861 394.35,222.477 C392.45,223.447 393.581,225.927 395.336,226.116 L395.336,226.116 Z" id="Shape"></path>
                    <path d="M392.336,208.096 C396.683,208.024 400.95,205.781 403.774,202.538 C406.114,199.85 402.659,196.611 399.952,198.717 C397.148,200.896 394.473,202.776 391.361,204.492 C389.676,205.423 390.428,208.127 392.336,208.096 L392.336,208.096 Z" id="Shape"></path>
                    <path d="M388.903,189.215 C390.238,188.786 391.49,188.203 392.753,187.594 C394.097,186.947 395.804,186.222 396.823,185.113 C398.657,183.12 396.8,180.497 394.355,180.874 C393.026,181.08 391.596,182.142 390.526,182.922 C389.434,183.718 388.35,184.524 387.262,185.325 C385.441,186.664 386.439,190.007 388.903,189.215 L388.903,189.215 Z" id="Shape"></path>
                    <path d="M384.801,174.626 C384.633,174.762 385.179,174.414 385.254,174.374 C385.368,174.316 385.484,174.263 385.603,174.212 C385.367,174.313 385.364,174.315 385.594,174.219 C386.416,173.879 387.086,173.517 387.721,172.869 C388.409,172.164 388.566,171.07 388.064,170.213 C387.497,169.245 386.045,168.74 385.064,169.427 C383.986,170.18 382.776,170.705 381.874,171.698 C381.115,172.532 381.048,173.801 381.874,174.627 C382.732,175.484 383.927,175.338 384.801,174.626 L384.801,174.626 Z" id="Shape"></path>
                    <path d="M377.944,164.367 C378.178,164.322 378.414,164.281 378.648,164.233 C380.705,163.812 380.705,160.513 378.648,160.092 C378.414,160.044 378.178,160.003 377.944,159.959 C376.503,159.688 375.051,160.584 375.051,162.163 C375.051,163.742 376.502,164.636 377.944,164.367 L377.944,164.367 Z" id="Shape"></path>
                    <path d="M443.471,312.401 C443.92,313.839 443.617,314.407 444.994,315.424 C446.521,316.554 448.78,316.654 450.598,316.813 C454.821,317.178 460.59,316.655 464.148,314.178 C467.086,312.133 465.245,307.914 461.769,308.534 C458.353,309.141 455.09,310.436 451.639,311.009 C450.247,311.239 448.797,311.294 447.391,311.261 C446.787,311.246 446.194,311.271 445.592,311.23 C444.413,311.149 444.84,311.334 445.113,311.709 C444.547,310.933 443.147,311.363 443.471,312.401 L443.471,312.401 Z" id="Shape"></path>
                    <path d="M447.79,300.709 C455.033,306.749 471.74,305.351 474.609,294.905 C474.963,293.611 474.262,291.666 472.856,291.277 C470.537,290.639 468.779,292.843 467.283,294.215 C462.556,298.549 455.757,298.632 449.919,297.053 C447.92,296.512 446.043,299.252 447.79,300.709 L447.79,300.709 Z" id="Shape"></path>
                    <path d="M451.08,283.419 C456.026,287.814 462.732,287.464 468.576,285.154 C473.991,283.015 481.053,278.314 479.958,271.716 C479.812,270.845 478.693,270.276 477.892,270.542 C473.615,271.967 470.89,275.896 467.118,278.287 C462.828,281.007 457.665,281.873 452.811,280.447 C451.149,279.961 449.731,282.22 451.08,283.419 L451.08,283.419 Z" id="Shape"></path>
                    <path d="M453.177,259.322 C456.702,262.674 461.717,262.451 466.008,260.432 C469.948,258.579 476.432,253.292 473.821,248.294 C473.477,247.635 472.584,247.278 471.881,247.504 C468.752,248.501 467.038,252.324 464.409,254.236 C461.547,256.318 457.781,256.802 454.338,256.519 C452.891,256.402 452.191,258.385 453.177,259.322 L453.177,259.322 Z" id="Shape"></path>
                    <path d="M454.336,241.252 C460.98,241.355 468.661,234.695 468.504,227.824 C468.457,225.814 465.877,224.54 464.41,226.129 C462.573,228.118 461.66,230.617 459.995,232.736 C458.379,234.795 456.166,236.148 453.78,237.145 C451.711,238.013 451.812,241.213 454.336,241.252 L454.336,241.252 Z" id="Shape"></path>
                    <path d="M452.49,219.136 C455.82,217.294 458.725,213.606 458.279,209.613 C458.091,207.914 456.091,206.695 454.708,208.134 C452.591,210.336 452.052,213.487 449.722,215.548 C447.722,217.315 450.277,220.358 452.49,219.136 L452.49,219.136 Z" id="Shape"></path>
                    <path d="M444.484,194.754 C444.683,193.919 444.78,193.085 444.859,192.232 C444.88,192.002 444.892,191.785 444.88,191.552 C444.851,191.326 444.819,191.101 444.789,190.876 C444.522,190.215 444.455,190.063 444.587,190.419 C444.22,189.385 443.562,188.47 442.337,188.47 C441.36,188.47 440.392,189.211 440.152,190.159 C440.131,190.245 440.108,190.332 440.087,190.418 C440.22,190.062 440.151,190.214 439.886,190.875 C439.787,191.23 439.774,191.643 439.794,192.015 C439.849,192.939 439.976,193.854 440.19,194.753 C440.699,196.884 443.975,196.884 444.484,194.754 L444.484,194.754 Z" id="Shape"></path>
                    <path d="M431.201,178.676 C431.239,178.47 431.276,178.264 431.314,178.059 C431.001,178.468 430.685,178.876 430.372,179.286 C430.387,179.278 430.399,179.271 430.413,179.265 C429.771,179.54 429.806,179.528 430.516,179.226 C431.037,178.921 431.427,178.415 431.587,177.832 C431.988,176.369 430.855,174.879 429.337,174.879 C428.066,174.879 427.005,175.94 427.005,177.212 C427.005,177.828 427.253,178.426 427.689,178.86 C427.98,179.15 428.323,179.349 428.718,179.461 C428.251,179.248 428.114,179.19 428.303,179.286 C427.99,178.877 427.675,178.469 427.361,178.059 C427.399,178.265 427.436,178.471 427.474,178.676 C427.811,180.529 430.863,180.529 431.201,178.676 L431.201,178.676 Z" id="Shape"></path>
                    <path d="M115.311,301.498 C109.388,298.542 101.575,300.889 97.281,305.628 C92.987,310.367 93.231,317.253 95.271,322.942 C98.158,330.995 105.93,333.354 113.432,330.122 C120.194,327.208 125.889,320.95 128.333,314.036 C131.166,306.023 126.369,299.19 118.528,297.158 C114.924,296.222 110.407,296.186 107.16,298.15 C105.745,299.005 105.548,301.37 107.16,302.173 C110.635,303.906 115.025,303.593 118.371,305.005 C119.782,305.601 120.154,305.872 121.051,306.884 C120.448,306.204 121.675,308.16 121.281,307.227 C121.423,307.561 121.73,309.211 121.657,308.478 C121.875,310.649 121.082,312.661 119.873,314.793 C118.451,317.301 116.615,319.285 114.328,321.207 C112.439,322.795 110.226,323.965 107.798,324.506 C106.104,324.883 104.604,324.528 103.277,323.183 C101.206,321.082 99.929,315.96 100.485,312.837 C101.65,306.294 109.059,305.509 114.338,305.09 C116.093,304.952 117.168,302.424 115.311,301.498 L115.311,301.498 Z" id="Shape"></path>
                </g>
            </g>
        </g>
    </g>
</svg>