<?xml version="1.0" encoding="UTF-8"?>
<svg width="481px" height="493px" viewBox="0 0 481 493" version="1.1" xmlns="http://www.w3.org/2000/svg" xmlns:xlink="http://www.w3.org/1999/xlink">
    <!-- Generator: Sketch 41 (35326) - http://www.bohemiancoding.com/sketch -->
    <title>flag</title>
    <desc>Created with Sketch.</desc>
    <defs></defs>
    <g id="Page-1" stroke="none" stroke-width="1" fill="none" fill-rule="evenodd">
        <g id="Layer_1" transform="translate(-6728.000000, -2799.000000)" fill="#010101">
            <g id="Layer_1_3_">
                <g id="flag" transform="translate(6728.000000, 2799.000000)">
                    <path d="M20.492,35.832 C17.882,34.162 13.673,35.031 10.871,35.784 C7.96,36.567 5.362,38.169 3.393,40.439 C0.05,44.292 1.033,48.965 4.868,51.791 C8.542,54.496 13.951,54.288 18.153,53.42 C20.777,52.877 23.305,51.774 25.59,50.384 C27.078,49.479 28.458,48.383 29.808,47.285 C30.449,46.764 31.035,46.181 31.612,45.595 C32.197,44.97 32.78,44.344 33.363,43.717 C32.811,44.334 32.838,44.328 33.444,43.699 C35.174,41.969 36.651,39.878 36.514,37.3 C36.406,35.267 34.906,33.258 32.77,33.033 C29.452,32.685 26.679,33.07 23.735,34.762 C21.338,36.14 17.5,41.164 20.58,43.823 C22.944,45.862 25.241,46.295 28.339,45.988 C26.781,43.439 25.223,40.89 23.665,38.342 C23.294,39.075 23.301,39.124 23.686,38.488 C23.327,39.007 22.925,39.495 22.524,39.981 C21.977,40.603 21.994,40.59 22.575,39.942 C22.177,40.35 21.717,40.704 21.272,41.06 C22.644,39.958 20.483,41.524 20.07,41.751 C19.8,41.9 18.258,42.545 19.801,41.909 C19.362,42.09 18.907,42.234 18.454,42.379 C18.161,42.467 17.865,42.547 17.568,42.619 C19.023,42.245 17.647,42.594 17.341,42.637 C16.657,42.735 15.963,42.762 15.274,42.771 C14.668,42.759 14.747,42.764 15.509,42.787 C15.139,42.761 14.772,42.705 14.405,42.648 C14.06,42.594 13.72,42.511 13.382,42.428 C12.252,42.149 14.421,42.85 13.382,42.447 C12.935,42.273 12.516,42.041 12.109,41.786 C11.665,41.507 12.856,42.611 12.007,41.6 C11.72,41.199 11.821,41.376 12.312,42.133 C12.103,41.74 12.127,41.09 12.351,42.619 C12.287,42.18 11.981,44.15 11.916,44.339 C12.22,43.453 10.975,45.669 11.591,44.872 C10.754,45.721 10.577,45.927 11.061,45.49 C9.698,46.683 10.338,45.989 10.841,45.698 C11.38,45.427 11.282,45.457 10.548,45.789 C10.975,45.602 11.417,45.458 11.858,45.31 C14.244,44.513 16.861,44.164 19.002,42.787 C21.182,41.385 23.46,37.728 20.492,35.832 L20.492,35.832 Z" id="Shape"></path>
                    <path d="M1.646,45.722 C-0.643,58.317 1.46,72.22 1.999,84.978 C2.606,99.373 3.209,113.768 3.839,128.162 C5.152,158.177 6.235,188.199 7.535,218.215 C8.886,249.425 10.154,280.603 12.501,311.76 C14.955,344.34 17.931,376.88 19.855,409.499 C20.624,422.514 21.119,435.545 21.394,448.58 C21.67,461.646 20.994,474.621 20.877,487.671 C25.343,485.695 29.809,483.721 34.273,481.745 C33.958,480.551 33.643,479.356 33.326,478.162 C31.656,471.846 22.85,478.108 21.991,481.814 C21.666,483.215 21.342,484.616 21.017,486.016 C20.206,489.517 22.797,492.347 26.322,492.061 C30.83,491.696 34.418,487.681 34.591,483.274 C35.219,467.224 34.263,450.864 33.62,434.818 C32.969,418.55 31.918,402.297 30.732,386.061 C28.356,353.511 25.205,321.023 22.878,288.469 C18.57,228.211 16.416,167.752 12.855,107.441 C12.192,96.214 11.525,84.988 10.856,73.762 C10.271,63.954 10.776,53.138 7.741,43.758 C6.691,40.515 2.041,43.549 1.646,45.722 L1.646,45.722 Z" id="Shape"></path>
                    <path d="M34.542,44.212 C34.579,42.997 34.742,41.847 34.962,40.651 C35.164,39.555 35.509,38.179 34.941,37.146 C34.386,36.136 32.971,36.747 32.6,37.623 C31.671,39.814 32.855,42.441 32.925,44.731 C32.958,45.792 34.519,45.019 34.542,44.212 L34.542,44.212 Z" id="Shape"></path>
                    <path d="M31.156,36.6 C28.206,51.935 29.641,68.069 30.19,83.591 C30.766,99.886 31.452,116.114 31.146,132.426 C30.533,165.182 27.878,197.966 30.975,230.677 C33.915,261.745 33.159,293.256 32.99,324.42 C32.814,356.527 34.517,388.391 36.1,420.443 C37.161,441.899 37.095,463.38 36.439,484.848 C36.274,490.226 44.158,486.546 44.942,483.13 C45.859,479.133 44.239,477.618 41.641,474.92 C39.124,472.308 34.37,476.287 35.427,479.356 C35.95,480.877 36.809,482.143 36.526,483.812 C39.361,483.24 42.195,482.666 45.029,482.094 C44.543,466.487 44.886,450.874 44.455,435.264 C44.012,419.229 42.952,403.215 42.062,387.201 C40.296,355.413 40.763,323.693 40.695,291.876 C40.662,276.182 40.408,260.485 39.603,244.811 C38.787,228.891 37.083,213.088 36.884,197.132 C36.475,164.261 39.383,131.451 37.969,98.579 C37.503,87.752 37.103,76.924 36.682,66.095 C36.285,55.853 36.444,45.657 34.271,35.595 C33.898,33.875 31.355,35.566 31.156,36.6 L31.156,36.6 Z" id="Shape"></path>
                    <path d="M31.462,47.767 C33.423,55.893 41.301,59.56 48.383,62.469 C57.818,66.345 67.759,69.039 77.794,70.779 C101.952,74.966 125.853,71.016 148.859,63.123 C175.995,53.812 201.095,39.064 228.521,30.613 C257.576,21.66 287.999,16.945 318.393,16.582 C336.942,16.359 355.741,18.211 374.217,21.854 C389.893,24.946 412.453,30.546 420.287,44.286 C423.71,39.846 427.133,35.404 430.556,30.964 C429.1,31.007 427.733,31.162 426.292,30.921 C419.364,29.764 409.851,40.36 417.462,45.43 C419.703,46.923 422.075,47.744 424.768,47.883 C430.697,48.19 440.643,41.916 437.178,34.659 C429.387,18.343 408.89,11.839 392.713,7.721 C373.809,2.909 354.111,1.153 334.662,0.507 C307.552,-0.393 280.461,3.108 254.049,9.056 C239.591,12.313 225.455,16.548 211.742,22.169 C198.395,27.641 185.375,33.868 172.168,39.66 C147.135,50.639 119.887,60.56 92.49,58.242 C81.988,57.352 71.384,55.295 61.155,52.801 C56.201,51.593 51.514,49.823 46.664,48.323 C42.931,47.167 38.794,46.181 35.311,44.387 C33.3,43.351 30.99,45.808 31.462,47.767 L31.462,47.767 Z" id="Shape"></path>
                    <path d="M426.607,33.782 C417.523,46.88 412.177,61.861 406.87,76.87 C400.742,94.198 394.511,111.48 388.204,128.744 C373.561,168.827 357.042,208.152 341.775,247.988 C347.391,247.533 353.005,247.078 358.621,246.623 C358.639,243.306 357.231,240.982 354.424,239.281 C350.937,237.168 346.64,240.033 344.426,242.603 C341.96,245.465 340.828,248.562 340.848,252.322 C340.898,262.364 355.415,257.065 357.694,250.957 C372.314,211.752 386.974,172.516 400.936,133.071 C412.3,100.964 422.06,68.176 433.467,36.169 C435.267,31.117 429.15,30.114 426.607,33.782 L426.607,33.782 Z" id="Shape"></path>
                    <path d="M33.96,236.483 C36.296,246.962 48.126,252.257 57.429,255.181 C68.777,258.749 81.492,259.228 93.275,258.835 C120.995,257.911 147.492,247.521 173.917,240.172 C199.426,233.078 226.199,230.161 252.657,230.933 C278.092,231.675 303.729,237.665 325.408,251.299 C328.372,253.163 331.262,255.198 333.996,257.384 C336.11,252.977 338.225,248.57 340.338,244.161 C336.196,245.055 332.531,246.653 328.482,247.798 C324.359,248.964 321.116,255.583 326.435,257.353 C328.343,257.988 330.123,259.281 332.12,259.651 C335.09,260.202 338.255,259.405 341.132,258.783 C345.24,257.894 352.374,249.472 347.475,245.56 C305.829,212.311 248.186,210.831 197.921,220.454 C170.545,225.694 144.779,236.786 117.594,242.762 C104.411,245.658 90.818,246.744 77.352,246.044 C66.186,245.463 54.186,244.424 44.345,238.723 C41.816,237.257 39.42,235.444 36.968,233.846 C35.43,232.843 33.647,235.078 33.96,236.483 L33.96,236.483 Z" id="Shape"></path>
                    <path d="M275.818,254.276 C278.629,256.772 283.507,257.589 287.042,258.18 C293.608,259.279 300.187,260.192 306.818,260.79 C312.597,261.311 318.79,261.358 324.134,261.331 C330.297,261.298 337.775,256.657 335.802,249.601 C334.393,244.558 326.936,247.624 325.059,250.471 C325.207,250.244 328.319,247.868 326.625,248.941 C321.699,252.063 327.835,248.48 325.084,249.885 C326.862,248.977 324.156,250.239 324.613,250.157 C323.587,250.34 322.548,250.454 321.512,250.571 C315.975,251.197 310.371,251.286 304.806,251.314 C296.004,251.36 285.158,249.464 276.679,252.477 C276.138,252.671 275.145,253.679 275.818,254.276 L275.818,254.276 Z" id="Shape"></path>
                    <path d="M265.84,228.625 C263.85,236.097 263.032,243.709 261.861,251.345 C261.316,254.897 259.419,257.956 259.475,261.554 C259.51,263.835 261.291,266.485 262.342,268.441 C266.265,275.742 271.758,281.602 278.502,286.368 C292.433,296.211 310.752,298.369 327.339,298.477 C362.696,298.709 398.397,288.15 431.235,275.843 C433.489,274.999 435.709,274.126 437.863,273.044 C442.354,270.789 445.465,262.462 438.864,260.828 C435.267,259.938 432.346,260.556 429.187,262.431 C427.015,263.72 423.973,267.767 426.48,270.202 C427.897,271.578 429.458,272.517 431.095,273.593 C432.526,269.432 433.956,265.271 435.387,261.111 C429.047,263.001 422.911,265.831 416.648,267.993 C408.871,270.677 401.008,273.109 393.084,275.317 C375.434,280.236 357.363,283.851 339.044,284.92 C322.925,285.859 305.933,284.581 291.481,276.811 C285.062,273.359 279.862,268.399 275.82,262.357 C273.227,258.483 271.018,254.107 271.169,249.465 C271.411,241.988 271.722,234.649 269.576,227.422 C268.957,225.328 266.162,227.419 265.84,228.625 L265.84,228.625 Z" id="Shape"></path>
                    <path d="M393.143,135.601 C391.872,141.079 398.3,144.691 402.718,146.015 C408.794,147.836 414.977,148.007 421.218,148.808 C430.778,150.035 440.771,150.07 450.331,148.945 C454.393,148.466 458.102,146.986 462.141,147.722 C466.282,148.477 471.019,146.093 472.618,142.089 C474.137,138.283 472.592,134.32 468.011,134.552 C465.349,134.687 463.138,136.359 462.496,136.921 C461.617,137.693 461.013,138.663 460.726,139.796 C461.453,136.918 461.562,137.874 460.651,139.857 C462.536,138.204 464.42,136.549 466.304,134.896 C467.226,134.799 468.148,134.703 469.07,134.606 C468.246,134.466 467.428,134.476 466.618,134.635 C464.97,134.863 463.355,135.019 461.722,135.366 C458.179,136.12 454.719,137.04 451.126,137.567 C442.922,138.771 434.502,138.661 426.25,138.135 C421.023,137.801 415.791,137.725 410.562,137.45 C407.811,137.305 405.084,136.898 402.382,136.383 C399.903,135.911 397.901,134.44 395.462,133.927 C394.432,133.712 393.364,134.646 393.143,135.601 L393.143,135.601 Z" id="Shape"></path>
                    <path d="M472.621,133.643 C468.67,159.971 470.598,186.904 464.87,213.115 C462.318,224.791 457.896,236.092 450.775,245.754 C442.45,257.053 429.935,262.227 419.787,271.254 C417.596,273.204 417.559,276.753 421.002,276.893 C435.644,277.485 449.965,264.448 458.783,253.963 C467.743,243.311 473.111,230.118 476.357,216.709 C482.872,189.793 481.36,159.808 476.891,132.781 C476.466,130.21 472.912,131.701 472.621,133.643 L472.621,133.643 Z" id="Shape"></path>
                    <path d="M40.176,477.412 C34.277,476.698 28.207,478.23 22.79,480.774 C20.185,481.998 18.037,485.264 18.19,488.164 C18.382,491.772 22.074,493.073 25.13,492.06 C30.833,490.169 36.315,486.705 40.495,482.481 C41.732,481.233 43.071,477.761 40.176,477.412 L40.176,477.412 Z" id="Shape"></path>
                    <path d="M31.83,50.557 C33.796,54.97 36.651,58.961 38.957,63.199 C41.537,67.941 43.665,72.915 45.551,77.969 C49.468,88.467 51.935,99.495 53.661,110.545 C56.133,126.353 56.905,142.309 56.368,158.278 C55.859,173.427 54.532,188.658 51.56,203.535 C50.216,210.262 48.456,216.947 45.621,223.211 C43.417,228.08 40.611,230.673 37.147,233.525 C34.678,235.557 33.937,241.921 38.76,241.016 C51.714,238.585 56.736,221.337 59.517,210.39 C63.612,194.279 64.793,177.328 65.236,160.764 C65.694,143.603 64.595,126.644 61.533,109.727 C59.546,98.754 56.748,87.972 52.74,77.558 C48.92,67.633 43.693,55.046 35.408,48.003 C33.942,46.757 31.001,48.697 31.83,50.557 L31.83,50.557 Z" id="Shape"></path>
                </g>
            </g>
        </g>
    </g>
</svg>