<?xml version="1.0" encoding="UTF-8"?>
<svg width="410px" height="433px" viewBox="0 0 410 433" version="1.1" xmlns="http://www.w3.org/2000/svg" xmlns:xlink="http://www.w3.org/1999/xlink">
    <!-- Generator: Sketch 41 (35326) - http://www.bohemiancoding.com/sketch -->
    <title>foot</title>
    <desc>Created with Sketch.</desc>
    <defs></defs>
    <g id="Page-1" stroke="none" stroke-width="1" fill="none" fill-rule="evenodd">
        <g id="Layer_1" transform="translate(-2240.000000, -4159.000000)" fill="#000000">
            <g id="Layer_1_3_">
                <g id="foot" transform="translate(2240.000000, 4159.000000)">
                    <path d="M181.068,390.7 C184.802,415.017 207.114,429.228 230.194,431.979 C254.7,434.899 285.478,422.616 293.588,397.453 C296.357,388.862 283.55,389.863 280.282,394.944 C274.591,403.792 270.884,409.272 261.434,413.902 C253.455,417.811 243.432,418.955 234.375,418.463 C214.471,417.381 194.39,407.06 184.947,388.984 C183.948,387.069 180.785,388.858 181.068,390.7 L181.068,390.7 Z" id="Shape"></path>
                    <path d="M155.517,315.232 C144.232,331.235 124.181,338.108 114.353,355.376 C107.523,367.376 110.524,381.701 119.166,391.823 C127.19,401.223 139.997,407.887 152.366,408.579 C158.998,408.95 165.602,407.685 171.335,404.207 C177.482,400.478 184.562,393.114 182.519,385.379 C181.257,380.604 174.807,382.912 172.348,384.839 C170.23,386.497 168.87,388.587 167.271,390.683 C166.367,391.869 168.173,389.978 166.292,391.582 C165.472,392.22 165.528,392.181 166.463,391.465 C165.858,391.862 165.208,392.184 164.561,392.505 C166.366,391.609 163.578,392.733 163.174,392.848 C162.585,393.015 162.56,393.011 160.755,393.167 C158.095,393.398 157.356,393.249 154.69,392.831 C145.072,391.32 135.948,385.622 129.927,377.825 C124.157,370.353 123.65,361.889 129.173,354.235 C133.94,347.628 140.685,342.547 146.539,336.964 C149.586,334.058 152.488,330.913 154.794,327.384 C157.306,323.54 158.062,320.238 159.062,315.902 C159.605,313.539 156.458,313.896 155.517,315.232 L155.517,315.232 Z" id="Shape"></path>
                    <path d="M115.228,304.903 C109.509,308.83 102.293,311.164 96.157,314.427 C89.523,317.955 83.083,321.772 77.278,326.573 C66.812,335.228 61.587,347.407 64.595,360.766 C70.337,386.26 108.662,394.378 122.405,371.247 C126.151,364.942 118.655,362.1 113.893,364.412 C110.293,366.16 107.401,368.56 103.46,369.565 C100.447,370.335 96.623,369.474 93.813,368.345 C86.458,365.394 81.075,358.994 78.995,351.425 C76.523,342.431 83.76,335.181 90.054,330.066 C94.63,326.348 99.772,323.402 104.567,319.988 C109.408,316.542 113.283,312.816 117.538,308.752 C119.679,306.708 118.163,302.888 115.228,304.903 L115.228,304.903 Z" id="Shape"></path>
                    <path d="M68.515,293.913 C58.443,294.162 45.4,300.114 38.433,307.417 C31.906,314.259 28.534,322.983 28.627,332.43 C28.705,340.304 32.442,347.885 39.163,352.083 C46.737,356.813 62.514,355.009 65.89,345.782 C66.936,342.923 66.818,340.698 64.323,338.761 C61.388,336.483 57.999,338.496 54.878,339.005 C52.535,339.388 51.016,338.916 49.022,337.686 C45.765,335.676 44.409,330.374 44.158,326.462 C43.842,321.535 45.516,316.616 49.303,313.442 C56.036,307.801 63.854,303.558 69.735,296.971 C70.835,295.737 70.233,293.87 68.515,293.913 L68.515,293.913 Z" id="Shape"></path>
                    <path d="M33.55,319.889 C24.129,319.065 17.228,315.955 16.176,306.561 C15.891,304.016 16.076,302.71 16.542,300.493 C16.859,298.981 16.756,299.417 17.109,298.5 C17.327,297.933 18.911,295.004 18.291,295.97 C18.479,295.677 20.566,293.091 19.333,294.408 C19.765,293.947 22.539,291.648 21.424,292.415 C23.609,290.913 25.336,290.227 28.399,289.786 C26.272,288.071 24.145,286.355 22.018,284.64 C22.088,285.198 22.159,285.755 22.228,286.314 C22.569,289.032 23.978,290.47 26.55,291.238 C32.39,292.982 37.337,286.456 37.926,281.426 C38.378,277.568 36.204,273.664 31.709,274.341 C13.859,277.029 -0.642,291.855 1.053,310.615 C2.611,327.864 20.095,335.602 33.883,325.146 C35.39,324.001 36.382,320.137 33.55,319.889 L33.55,319.889 Z" id="Shape"></path>
                    <path d="M295.029,391.431 C304.102,375.487 314.278,353.566 332.182,345.88 C336.094,344.201 339.954,340.848 339.704,336.147 C339.421,330.827 333.135,329.993 329.381,332.38 C309.693,344.901 291.316,367.489 290.846,391.77 C290.795,394.475 294.346,392.633 295.029,391.431 L295.029,391.431 Z" id="Shape"></path>
                    <path d="M223.974,13.73 C223.628,21.118 221.593,28.589 221.022,36.014 C220.413,43.939 219.762,51.861 219.173,59.787 C218.027,75.228 217.603,90.971 218.834,106.416 C221.163,135.652 229.944,163.86 235.021,192.638 C240.253,190.324 245.485,188.01 250.716,185.696 C249.718,181.506 246.05,178.632 242.158,177.476 C236.427,175.775 231.395,182.883 232.439,187.832 C232.957,190.288 234.806,192.034 235.391,194.43 C237.452,202.866 252.392,194.645 251.086,187.488 C245.849,158.789 236.501,130.884 232.993,101.878 C231.229,87.295 231.33,72.612 230.917,57.958 C230.701,50.284 230.587,42.606 230.428,34.931 C230.348,31.127 230.025,27.341 229.727,23.548 C229.435,19.828 228.297,16.106 228.133,12.397 C228.012,9.634 224.068,11.694 223.974,13.73 L223.974,13.73 Z" id="Shape"></path>
                    <path d="M315.856,2.447 C314.44,29.366 317.463,56.436 320.915,83.121 C324.428,110.284 329.565,137.459 337.321,163.747 C341.109,176.589 345.643,189.208 350.987,201.485 C353.507,207.274 356.278,212.95 359.223,218.534 C360.684,221.305 362.229,224.032 363.803,226.74 C364.627,228.159 365.48,229.561 366.329,230.965 C365.153,229.02 366.264,230.873 366.498,231.276 C372.967,242.37 378.489,254.083 383.281,265.987 C388.781,279.646 393.975,294.438 393.359,309.326 C393.259,311.732 393.539,307.978 393.271,310.309 C393.19,311.01 393.068,311.705 392.943,312.401 C392.824,313.074 392.658,313.737 392.492,314.399 C392.379,314.829 392.254,315.254 392.119,315.677 C392.445,314.73 392.447,314.68 392.125,315.527 C391.89,316.116 391.603,316.682 391.315,317.247 C390.347,319.147 392.378,315.703 391.178,317.44 C390.829,317.947 390.427,318.414 390.027,318.879 C391.766,316.86 389.89,318.835 389.392,319.232 C392.006,317.148 386.353,320.456 388.806,319.468 C388.141,319.736 387.451,319.935 386.764,320.135 C385.86,320.349 385.802,320.378 386.591,320.224 C386.064,320.319 385.534,320.399 385.003,320.464 C379.921,321.161 376.047,321.314 371.659,324.422 C369.825,325.721 367.663,328.053 368.692,330.548 C372.04,338.663 383.589,336.509 390.238,333.833 C397.358,330.967 402.99,325.761 406.265,318.796 C412.445,305.653 408.91,289.456 405.171,276.177 C401.074,261.624 394.924,247.608 388.102,234.146 C380.069,218.293 370.553,203.47 363.616,187.014 C350.993,157.074 343.368,125.043 337.527,93.168 C334.598,77.184 331.753,61.189 328.904,45.19 C326.276,30.433 323.3,15.519 318.194,1.412 C317.698,0.036 315.905,1.514 315.856,2.447 L315.856,2.447 Z" id="Shape"></path>
                    <path d="M324.194,346.518 C327.329,348.744 333.464,346.184 336.737,345.248 C342.361,343.641 347.944,341.996 353.616,340.557 C359.343,339.103 365.212,338.303 371.083,337.707 C377.532,337.053 384.343,337.561 390.596,335.797 C396.394,334.16 401.337,324.43 393.543,322.045 C387.756,320.274 380.34,321.68 374.393,322.261 C367.666,322.918 360.98,324.217 354.412,325.783 C347.923,327.331 341.736,329.862 335.744,332.766 C331.381,334.881 324.299,339.11 323.306,344.285 C323.123,345.237 323.414,345.964 324.194,346.518 L324.194,346.518 Z" id="Shape"></path>
                    <path d="M214.163,322.71 C208.355,337.246 195.216,347.979 184.675,359.011 C179.36,364.574 173.326,370.575 170.535,377.914 C168.052,384.442 169.414,397.951 179.937,394.587 C185.732,392.734 189.208,386.21 185.337,381.039 C185.861,381.739 185.068,379.939 185.136,380.516 C184.936,378.809 184.822,382.105 185.108,380.32 C185.452,378.171 184.822,380.713 185.37,379.411 C185.636,378.779 185.97,378.176 186.296,377.573 C185.332,379.351 186.582,377.134 186.728,376.91 C187.656,375.487 188.702,374.139 189.753,372.806 C192.395,369.457 195.301,366.316 198.18,363.173 C204.083,356.73 209.947,350.294 214.585,342.849 C218.152,337.12 222.491,328.828 218.477,322.478 C218.278,322.144 218.061,321.821 217.826,321.51 C216.864,320.162 214.6,321.616 214.163,322.71 L214.163,322.71 Z" id="Shape"></path>
                    <path d="M199.342,386.385 C202.744,385.966 206.025,384.976 209.498,385.285 C212.95,385.594 216.038,387.023 219.031,388.667 C225.445,392.188 231.018,396.436 238.139,398.545 C249.177,401.815 260.846,398.078 264.638,386.457 C267.595,377.395 263.644,366.999 257.559,360.173 C250.73,352.511 233.031,345.805 225.54,356.163 C224.507,357.592 223.677,360.017 225.128,361.508 C228.169,364.63 234.381,362.89 238.433,363.865 C242.079,364.743 245.197,367.21 247.644,369.944 C250.137,372.731 251.703,376.08 252.691,379.662 C253.067,381.023 253.128,382.48 253.148,383.888 C253.163,384.884 252.695,386.655 252.53,387.032 C251.789,388.72 253.279,386.097 252.201,387.558 C253.343,386.01 250.756,388.431 252.31,387.453 C251.759,387.8 250.684,387.939 248.775,387.965 C243.546,388.033 238.166,385.275 233.692,382.898 C222.365,376.877 209.459,370.998 198.163,380.909 C196.337,382.509 195.792,386.822 199.342,386.385 L199.342,386.385 Z" id="Shape"></path>
                    <path d="M146.614,353.113 C148.494,352.829 153.603,354.88 154.776,355.86 C156.319,357.149 156.624,357.768 157.205,359.372 C157.656,360.614 157.664,361.051 157.311,362.429 C157.575,361.702 157.58,361.646 157.325,362.258 C156.703,363.669 158.136,361.171 157.193,362.446 C156.208,363.781 158.293,361.434 157.014,362.603 C155.715,363.791 158.251,361.879 156.647,362.846 C155.766,363.377 152.686,364.008 150.407,364.285 C146.603,364.747 141.233,365.935 140.283,370.368 C138.972,376.485 147.93,376.2 151.354,375.599 C161.051,373.899 172.576,365.313 168.188,354.124 C166.648,350.197 163.134,347.414 159.207,346.157 C156.868,345.409 154.577,345.466 152.203,346.031 C149.839,346.594 147.696,348.531 146.403,349.362 C145.123,350.186 143.978,353.51 146.614,353.113 L146.614,353.113 Z" id="Shape"></path>
                    <path d="M99.084,334.755 C99.822,336.826 101.298,338.601 102.069,340.712 C102.812,342.747 102.279,344.264 102.349,346.367 C102.53,351.808 109.778,349.735 111.805,346.826 C116.833,339.608 111.469,329.933 102.695,330.07 C100.588,330.104 98.335,332.655 99.084,334.755 L99.084,334.755 Z" id="Shape"></path>
                    <path d="M58.218,320.552 C58.409,320.793 58.614,321.008 58.849,321.207 C58.684,320.441 58.519,319.677 58.354,318.911 C57.913,320.227 58.371,321.639 59.385,322.547 C59.859,322.97 60.328,323.396 60.864,323.742 C61.755,324.318 62.808,324.365 63.837,324.303 C65.547,324.199 67.181,323.108 68.192,321.774 C68.701,321.113 69.049,320.377 69.236,319.565 C69.491,318.376 69.2,317.57 68.592,316.577 C67.86,315.381 66.458,315.044 65.157,314.981 C64.524,314.951 63.906,314.912 63.275,314.954 C61.91,315.044 60.933,315.652 59.867,316.454 C61.278,316.16 62.689,315.867 64.1,315.573 C63.813,315.441 63.552,315.288 63.296,315.102 C62.092,314.233 60.14,315.13 59.202,315.954 C57.949,317.054 57.043,319.073 58.218,320.552 L58.218,320.552 Z" id="Shape"></path>
                    <path d="M32.245,282.177 C39.028,278.279 48.554,278.125 56.131,278.254 C65.169,278.409 74.253,280.137 82.82,282.955 C87.273,284.42 92.612,283.357 97.189,282.695 C102.15,281.977 107.071,280.828 111.875,279.404 C121.499,276.55 130.676,272.025 139.28,266.904 C156.356,256.742 171.427,243.55 187.15,231.495 C202.953,219.379 219.27,209.886 238.448,204.32 C241.973,203.297 245.101,200.023 245.872,196.429 C246.67,192.704 243.884,188.58 239.698,189.394 C235.154,190.278 232.074,192.142 228.434,194.935 C223.201,198.951 225.414,206.785 232.381,205.083 C233.719,204.756 235.042,204.772 236.412,204.729 C236.828,199.753 237.245,194.779 237.662,189.803 C197.286,198.168 169.181,232.63 135.472,253.434 C127.408,258.413 118.93,262.448 109.858,265.209 C105.479,266.542 101.035,267.397 96.496,267.948 C91.869,268.51 88.03,267.828 83.466,267.225 C65.947,264.914 40.502,261.747 28.123,277.475 C25.562,280.729 28.716,284.206 32.245,282.177 L32.245,282.177 Z" id="Shape"></path>
                </g>
            </g>
        </g>
    </g>
</svg>