<?xml version="1.0" encoding="UTF-8"?>
<svg width="347px" height="528px" viewBox="0 0 347 528" version="1.1" xmlns="http://www.w3.org/2000/svg" xmlns:xlink="http://www.w3.org/1999/xlink">
    <!-- Generator: Sketch 41 (35326) - http://www.bohemiancoding.com/sketch -->
    <title>football</title>
    <desc>Created with Sketch.</desc>
    <defs></defs>
    <g id="Page-1" stroke="none" stroke-width="1" fill="none" fill-rule="evenodd">
        <g id="Layer_1" transform="translate(-6697.000000, -3355.000000)" fill="#010101">
            <g id="Layer_1_3_">
                <g id="football" transform="translate(6697.000000, 3355.000000)">
                    <path d="M93.326,237.217 C95.68,247.843 105.866,253.291 115.286,256.873 C125.173,260.634 135.549,262.624 145.922,264.484 C175.898,269.858 206.853,267.16 234.092,253.213 C237.486,251.475 240.558,246.813 239.071,242.932 C237.443,238.684 232.644,239.565 229.419,240.991 C224.74,243.06 221.231,248.36 225.326,252.745 C226.07,249.27 226.815,245.796 227.56,242.321 C217.689,250.029 204.046,252.685 191.908,254.12 C178.353,255.722 164.565,255.183 151.034,253.641 C141.647,252.573 132.157,251.095 123.019,248.686 C114.366,246.405 103.54,242.315 98.805,234.094 C97.012,230.983 92.694,234.366 93.326,237.217 L93.326,237.217 Z" id="Shape"></path>
                    <path d="M93.553,216.684 C91.723,219.569 90.999,222.443 90.449,225.798 C89.913,229.063 89.258,232.555 89.451,235.862 C89.834,242.414 98.852,238.029 99.769,233.777 C100.396,230.878 100.168,228.018 100.006,225.081 C99.844,222.137 99.825,218.9 98.327,216.297 C97.261,214.444 94.608,215.023 93.553,216.684 L93.553,216.684 Z" id="Shape"></path>
                    <path d="M100.903,198.731 C103.49,185.756 115.315,178.449 126.757,173.977 C138.267,169.479 150.939,166.817 163.308,166.722 C189.768,166.521 227.43,176.964 233.356,207.198 C237.012,203.989 240.669,200.78 244.326,197.571 C243.803,197.577 243.296,197.478 242.805,197.276 C235.941,194.364 225.331,205.68 233.11,210.075 C234.561,210.894 235.942,211.476 237.542,211.966 C243.346,213.742 249.942,206.064 248.162,200.65 C236.36,164.758 197.744,153.564 163.319,155.514 C148.484,156.354 132.971,161.527 119.829,168.241 C108.046,174.26 94.532,185.079 97.614,199.793 C97.995,201.619 100.687,199.812 100.903,198.731 L100.903,198.731 Z" id="Shape"></path>
                    <path d="M241.366,242.327 C252.012,235.104 258.475,222.655 266.809,213.025 C275.486,202.999 286.195,195.481 299.471,193.169 C302.797,192.589 305.7,190.757 307.18,187.611 C308.723,184.333 307.726,180.762 304.046,179.794 C299.913,178.706 297.152,179.906 293.817,182.255 C292.419,183.239 290.784,185.016 291.562,186.911 C292.726,189.747 293.422,191.009 296.273,192.567 C297.705,188.403 299.136,184.239 300.568,180.076 C285.795,184.68 272.702,191.949 262.91,204.175 C258.542,209.63 254.919,215.693 251.207,221.601 C247.198,227.98 242.471,233.911 239.55,240.87 C239.033,242.101 240.227,243.099 241.366,242.327 L241.366,242.327 Z" id="Shape"></path>
                    <path d="M123.617,163.808 C128.542,161.512 134.29,160.114 139.419,158.243 C145.203,156.134 150.937,153.797 156.562,151.296 C167.049,146.631 178.458,140.485 185.205,130.852 C186.341,129.23 187.817,126.228 186.627,124.215 C186.532,124.056 186.438,123.896 186.343,123.736 C185.028,121.513 182.679,120.423 180.104,121.46 C174.385,123.762 173.261,129.293 169.114,133.293 C164.708,137.543 158.872,140.49 153.518,143.335 C147.991,146.273 142.326,148.964 136.836,151.969 C131.52,154.879 127.169,158.179 122.496,161.94 C121.255,162.936 122.167,164.485 123.617,163.808 L123.617,163.808 Z" id="Shape"></path>
                    <path d="M186.498,110.639 C186.574,99.117 182.769,87.636 181.034,76.273 C179.201,64.27 178.057,51.835 180.059,39.786 C180.736,35.71 182.114,30.662 184.062,27.526 C185.918,24.539 187.657,23.088 190.066,21.504 C196.321,17.39 203.993,15.733 211.424,14.788 C230.013,12.424 249.242,14.797 267.492,18.51 C275.177,20.073 282.806,22.025 290.232,24.548 C297.92,27.159 304.875,31.378 304.918,40.523 C304.941,45.542 302.805,50.723 300.973,55.303 C298.384,61.765 295.489,68.087 292.996,74.591 C289.871,82.749 287.136,91.062 284.519,99.395 C283.22,103.533 281.979,107.689 280.74,111.845 C280.025,114.243 279.316,116.646 278.605,119.046 C278.246,120.259 277.886,121.471 277.526,122.683 C276.706,124.871 276.755,125.101 277.672,123.372 C281.012,122.263 284.351,121.152 287.691,120.043 C289.315,120.731 286.485,118.921 285.825,118.689 C282.1,117.383 278.395,118.799 276.005,121.952 C274.117,124.441 273.127,129.116 276.612,130.851 C275.667,129.495 275.718,129.644 276.766,131.297 C277.224,131.758 277.732,132.142 278.292,132.449 C280.952,133.998 284.824,132.635 286.869,130.665 C291.845,125.873 292.798,117.158 294.693,110.713 C296.964,102.992 299.303,95.294 301.839,87.656 C305.882,75.467 311.591,63.957 315.755,51.839 C318.925,42.61 321.089,31.843 315.303,23.149 C310.347,15.702 301.545,12.844 293.426,10.274 C276.5,4.919 258.529,1.935 240.822,1.005 C222.946,0.066 203.408,0.809 187.455,9.866 C171.658,18.836 167.187,36.124 167.16,53.219 C167.142,64.029 169.056,74.782 171.545,85.264 C173.779,94.682 176.35,105.282 182.686,112.828 C184.051,114.455 186.488,112.177 186.498,110.639 L186.498,110.639 Z" id="Shape"></path>
                    <path d="M290.719,96.33 C291.726,100.116 295.643,103.599 297.513,107.116 C299.832,111.477 301.386,116.302 302.864,121.001 C305.669,129.917 307.368,139.163 309.407,148.272 C310.489,153.105 311.957,157.846 312.895,162.713 C313.432,165.505 314.845,170.609 313.049,173.187 C311.208,175.83 306.145,176.738 303.299,177.496 C297.742,178.975 292.846,179.403 288.434,183.348 C286.954,184.672 285.356,187.661 287.129,189.441 C287.164,189.403 287.199,189.364 287.234,189.326 C288.351,191.318 289.726,191.972 291.991,191.98 C303.487,192.025 316.164,188.109 323.659,178.922 C331.334,169.516 326.515,156.12 323.442,145.941 C320.298,135.532 317.605,125.064 313.375,115.011 C310.263,107.616 303.104,92.566 293.383,92.874 C291.729,92.925 290.296,94.741 290.719,96.33 L290.719,96.33 Z" id="Shape"></path>
                    <path d="M102.471,245.997 C98.824,248.167 98.452,253.212 98.321,257.041 C98.187,260.936 98.321,265.495 100.82,268.692 C104.232,273.057 110.674,272.314 114.965,270.174 C120.012,267.654 123.001,262.148 123.308,256.716 C123.476,253.743 121.592,250.933 118.62,250.382 C114.775,249.669 111.77,252.421 109.958,255.431 C109.079,256.891 109.022,259.248 109.517,260.8 C109.972,262.229 109.886,259.882 109.564,261.328 C109.761,260.442 110.22,260.128 110.933,259.629 C111.947,258.919 110.311,259.719 111.04,259.763 C109.968,259.698 110.007,259.219 109.404,257.754 C108.692,256.026 108.288,254.164 107.968,252.33 C107.537,249.853 106.357,243.685 102.471,245.997 L102.471,245.997 Z" id="Shape"></path>
                    <path d="M193.557,259.627 C189.834,263.152 186.865,268.781 187.94,274.057 C188.727,277.919 191.196,281.316 195.399,281.79 C207.581,283.163 214.926,267.156 209.076,257.563 C208.305,256.3 206.087,255.865 204.77,256.029 C201.017,256.495 197.513,259.308 196.698,263.113 C196.296,264.995 196.981,266.653 197.411,268.435 C196.964,266.581 197.327,268.101 197.387,268.54 C197.442,268.944 197.466,269.352 197.485,269.759 C197.502,270.138 197.489,270.519 197.47,270.898 C197.58,268.653 197.511,270.253 197.395,270.822 C197.332,271.138 197.24,271.45 197.147,271.759 C197.837,269.453 197.555,270.6 197.298,271.16 C197.027,271.75 196.267,272.771 197.737,270.499 C197.348,271.099 196.249,272.215 198.324,270.001 C198.147,270.189 197.951,270.359 197.753,270.525 C196.947,271.199 199.752,269.209 198.577,269.918 C198.37,270.043 198.149,270.145 197.929,270.242 C197.163,270.581 200.065,269.441 198.589,269.912 C197.425,270.284 200.244,269.64 199.344,269.771 C199.115,269.804 198.881,269.811 198.65,269.813 C200.685,269.793 199.826,269.891 199.273,269.799 C197.998,269.587 200.107,270.166 199.556,269.945 C199.334,269.856 199.125,269.739 198.919,269.62 C197.966,269.065 199.794,270.393 199.19,269.876 C198.75,269.497 197.737,267.876 198.581,269.35 C198.268,268.805 198.056,268.208 197.88,267.609 C197.785,267.283 197.669,266.964 197.568,266.64 C197.944,267.863 197.575,266.369 197.546,266 C197.378,263.945 197.105,262.136 196.767,260.255 C196.471,258.622 194.614,258.627 193.557,259.627 L193.557,259.627 Z" id="Shape"></path>
                    <path d="M297.146,182.735 C291.514,186.902 288.983,194.692 289.932,201.547 C290.923,208.72 298.721,212.757 305.073,209.202 C311.132,205.81 314.026,199.241 315.677,192.806 C317.092,187.292 318.747,177.561 311.861,175.412 C309.441,174.656 305.984,177.068 305.21,179.289 C303.949,182.902 304.578,185.914 304.45,189.628 C304.328,193.199 303.217,196.856 301.483,199.958 C300.838,201.11 301.184,199.904 302.047,199.802 C301.01,199.925 299.693,198.174 299.29,197.406 C297.497,193.986 298.402,187.657 299.656,184.11 C300.333,182.198 298.469,181.754 297.146,182.735 L297.146,182.735 Z" id="Shape"></path>
                    <path d="M164.209,146.94 C169.112,146.545 173.971,145.314 178.934,144.945 C185.641,144.446 192.34,144.78 198.997,145.678 C205.254,146.523 211.435,148.061 217.282,150.448 C221.568,152.198 228.972,155.333 230.546,160.155 C232.753,157.293 234.959,154.43 237.166,151.567 C235.377,151.829 233.815,152.378 232.079,152.8 C230.54,153.174 228.526,155.227 228.863,156.961 C229.337,159.405 229.835,160.906 232.206,162.047 C237.597,164.64 245.801,155.226 239.774,152.057 C234.429,149.247 230.058,145.373 224.311,143.056 C217.421,140.279 210.058,138.702 202.704,137.813 C191.043,136.405 172.963,135.774 163.707,144.609 C162.948,145.334 162.682,147.062 164.209,146.94 L164.209,146.94 Z" id="Shape"></path>
                    <path d="M184.532,130.163 C195.452,129.722 205.588,128.984 216.428,131.138 C227.148,133.269 238.927,137.724 247.554,144.585 C250.076,141.278 252.6,137.973 255.121,134.667 C251.99,134.308 249.943,134.701 247.047,135.817 C245.334,136.477 243.72,138.03 243.807,140.009 C243.977,143.84 246.153,145.419 249.852,145.844 C252.621,146.162 255.232,144.845 256.902,142.642 C258.321,140.77 259.521,136.243 256.387,135.106 C233.63,126.856 208.289,115.127 184.348,126.888 C182.93,127.584 182.397,130.25 184.532,130.163 L184.532,130.163 Z" id="Shape"></path>
                    <path d="M186.704,109.704 C200.831,109.089 213.935,109.007 227.722,112.745 C240.64,116.247 254.773,121.675 265.66,129.595 C267.897,125.918 270.136,122.241 272.373,118.565 C269.743,117.959 267.311,118.66 265.151,120.169 C263.269,121.484 260.919,124.011 262.048,126.577 C263.311,129.446 265.413,130.13 268.422,130.114 C274.042,130.087 279.215,120.822 272.372,118.564 C265.408,116.266 258.777,112.836 251.932,110.192 C244.834,107.453 237.548,105.164 230.118,103.536 C215.86,100.413 199.987,99.796 186.501,106.085 C184.905,106.828 184.363,109.806 186.704,109.704 L186.704,109.704 Z" id="Shape"></path>
                    <path d="M99.59,227.102 C103.519,238.127 115.884,241.657 126.221,243.932 C139.716,246.903 154.043,248.249 167.832,248.344 C183.531,248.451 199.706,246.483 214.807,242.095 C221.223,240.231 227.506,237.867 233.563,235.051 C236.52,233.677 239.354,232.06 242.028,230.195 C243.211,229.37 244.339,228.494 245.428,227.548 C245.842,227.189 248.252,225.244 247.343,225.725 C246.316,225.934 245.287,226.143 244.26,226.353 C244.359,226.374 244.457,226.398 244.557,226.419 C244.147,224.585 243.737,222.75 243.328,220.915 C243.239,221.035 243.149,221.154 243.059,221.274 C243.991,220.604 244.921,219.935 245.852,219.266 C245.56,219.352 245.268,219.438 244.975,219.524 C241.489,220.549 239.42,226.581 244.374,226.698 C246.111,226.739 247.235,226.128 248.596,225.094 C250.32,223.782 251.471,220.282 249.067,219.009 C248.981,218.964 248.897,218.919 248.811,218.874 C247.62,218.243 245.95,218.464 244.846,219.195 C242.794,220.555 241.41,222.397 239.563,223.994 C237.436,225.833 234.936,227.229 232.489,228.587 C226.791,231.748 220.669,234.071 214.479,236.062 C200.503,240.557 185.533,242.279 170.913,242.689 C157.69,243.059 144.028,241.611 130.933,239.699 C120.39,238.16 107.619,235.041 100.564,226.409 C100.2,225.963 99.425,226.639 99.59,227.102 L99.59,227.102 Z" id="Shape"></path>
                    <path d="M310.99,166.072 C306.591,170.674 300.188,171.633 294.395,173.596 C288.05,175.747 282.061,179.352 276.645,183.235 C270.867,187.379 265.62,192.134 260.823,197.381 C258.34,200.098 255.951,202.888 253.703,205.803 C251.754,208.332 249.239,211.041 249.324,214.369 C249.366,216.023 251.198,215.942 252.271,215.444 C255.228,214.071 256.919,211.117 258.865,208.592 C261.106,205.684 263.438,202.857 265.878,200.113 C270.961,194.394 276.87,189.279 283.177,184.959 C289.067,180.924 295.159,178.105 301.806,175.624 C306.219,173.977 311.135,171.435 312.514,166.614 C312.787,165.659 311.49,165.548 310.99,166.072 L310.99,166.072 Z" id="Shape"></path>
                    <path d="M96.165,235.837 C84.8,235.927 74.996,242.043 65.821,248.233 C55.301,255.331 46.171,263.904 37.577,273.193 C19.916,292.283 9.723,316.521 4.946,341.853 C0.462,365.64 -0.904,392.103 3.385,416.022 C6.822,435.185 15.018,452.912 27.168,468.11 C51.476,498.513 89.533,515.486 126.906,523.024 C167.094,531.131 209.314,528.16 247.607,513.368 C270.958,504.348 292.516,490.854 309.607,472.463 C328.125,452.535 339.347,427.119 344.191,400.492 C349.549,371.046 346.183,340.117 334.783,312.445 C325.213,289.211 307.085,270.832 286.253,257.341 C275.359,250.285 263.692,244.507 251.107,241.282 C244.263,239.528 234.09,251.849 242.161,255.982 C252.993,261.531 264.117,266.421 274.432,272.945 C284.641,279.402 293.789,287.264 301.726,296.367 C319.709,316.995 327.503,344.903 329.108,371.786 C330.743,399.182 323.856,428.311 308.385,451.17 C295.302,470.502 276.23,484.37 255.322,494.234 C219.01,511.366 177.219,514.571 137.958,507.645 C101.145,501.151 64.171,484.744 40.114,455.282 C14.689,424.144 13.493,381.885 19.447,343.764 C22.986,321.105 30.946,299.858 45.423,281.932 C58.915,265.226 74.42,248.16 95.659,241.864 C98.527,241.015 100.368,235.804 96.165,235.837 L96.165,235.837 Z" id="Shape"></path>
                    <path d="M118.141,407.821 C120.232,404.707 121.233,400.925 122.803,397.525 C124.984,392.804 127.676,388.323 130.507,383.971 C132.976,380.177 135.664,376.524 138.411,372.929 C140.71,369.92 143.678,364.865 146.991,362.912 C148.469,362.042 150.018,360.246 149.806,358.389 C149.787,358.223 149.769,358.058 149.749,357.892 C149.58,356.411 148.551,355.846 147.168,355.811 C146.976,355.805 146.783,355.801 146.591,355.795 C144.694,355.747 142.937,357.468 142.131,359.01 C140.308,362.504 136.385,365.747 133.96,368.905 C130.727,373.113 127.765,377.524 125.009,382.058 C122.417,386.323 120.027,390.678 117.931,395.207 C116.288,398.753 113.71,403.618 114.314,407.635 C114.625,409.699 117.229,409.177 118.141,407.821 L118.141,407.821 Z" id="Shape"></path>
                    <path d="M115.165,409.696 C117.614,416.926 121.808,423.286 126.167,429.497 C128.509,432.833 131.023,436.042 133.429,439.33 C135.21,441.765 139.242,445.434 139.851,448.426 C141.644,457.235 153.746,445.393 147.584,442.864 C144.628,441.651 142.275,437.967 140.188,435.662 C137.472,432.663 134.875,429.567 132.308,426.442 C127.308,420.355 122.663,413.998 117.675,407.904 C116.729,406.749 114.76,408.504 115.165,409.696 L115.165,409.696 Z" id="Shape"></path>
                    <path d="M146.861,359.292 C156.103,361.74 165.489,361.661 175.051,362.133 C180.686,362.411 186.324,362.724 191.934,363.346 C193.818,363.556 195.696,363.749 197.516,364.298 C198.262,364.524 196.036,363.781 198.344,365.03 C199.716,365.774 201.627,365.647 203.039,365.074 C206.115,363.827 208.854,360.886 207.85,357.345 C206.707,353.32 199.831,354.784 196.579,354.637 C190.672,354.369 184.751,354.308 178.838,354.294 C168.162,354.269 157.825,354.262 147.431,356.635 C146.307,356.891 145.352,358.891 146.861,359.292 L146.861,359.292 Z" id="Shape"></path>
                    <path d="M204.922,364.76 C204.889,371.154 208.164,377.664 210.658,383.424 C213.406,389.767 216.474,395.962 219.132,402.344 C220.981,406.783 222.374,411.367 223.809,415.949 C224.377,417.767 224.921,419.594 225.436,421.428 C225.645,422.168 225.497,423.171 225.489,423.934 C225.458,426.771 224.462,425.65 226.647,422.688 C228.365,421.69 230.083,420.692 231.801,419.695 C232.756,419.782 232.888,419.745 232.197,419.584 C228.35,418.454 223.774,423.521 225.062,427.188 C227.434,433.942 236.129,427.865 236.263,422.725 C236.316,420.696 235.027,419.012 234.006,417.371 C232.702,415.276 232.118,412.187 231.211,409.866 C228.193,402.14 225.035,394.659 221.287,387.246 C219.224,383.161 217.144,379.09 215.238,374.927 C213.296,370.686 212.091,366.017 209.66,362.037 C208.254,359.735 204.932,363.062 204.922,364.76 L204.922,364.76 Z" id="Shape"></path>
                    <path d="M208.789,356.63 C216.958,347.108 224.143,336.254 231.11,325.826 C233.87,321.696 237.492,318.728 240.712,315.152 C238.952,315.952 237.192,316.752 235.433,317.55 C235.445,317.555 235.458,317.56 235.47,317.564 C234.691,316.288 233.91,315.011 233.13,313.734 C233.503,312.07 232.99,314.169 232.866,314.63 C231.769,318.72 237.026,318.859 239.177,316.879 C239.741,316.358 240.339,315.829 240.741,315.169 C241.548,313.846 242.641,311.494 241.128,310.148 C241.118,310.139 241.108,310.131 241.099,310.123 C239.64,308.827 237.719,308.876 236.063,309.853 C233.495,311.369 233.037,313.629 231.461,315.863 C229.72,318.332 227.579,320.488 225.958,323.04 C219.21,333.664 209.447,343.815 205.819,356.069 C205.208,358.139 208.002,357.546 208.789,356.63 L208.789,356.63 Z" id="Shape"></path>
                    <path d="M123.03,300.406 C123.581,309.062 127.338,317.746 130.382,325.774 C133.708,334.544 138.222,342.968 141.017,351.92 C142.331,356.128 150.624,351.052 147.564,347.246 C141.949,340.266 138.421,331.359 134.946,323.173 C131.614,315.325 129.622,306.774 125.905,299.134 C125.172,297.631 122.946,299.094 123.03,300.406 L123.03,300.406 Z" id="Shape"></path>
                    <path d="M58.71,410.611 C70.077,413.952 82.951,410.969 94.596,410.957 C97.69,410.954 100.785,410.773 103.879,410.705 C105.185,410.677 106.586,410.544 107.867,410.786 C108.43,410.892 108.985,411.109 109.536,411.263 C112.015,411.957 107.309,407.638 108.616,405.781 C106.7,408.505 107.315,412.133 111.14,412.115 C115.087,412.095 121.812,404.771 116.245,402.211 C112.757,400.606 107.5,401.945 103.792,402.233 C98.463,402.647 93.156,403.175 87.845,403.776 C78.419,404.843 68.613,404.95 59.412,407.33 C58.021,407.689 56.855,410.066 58.71,410.611 L58.71,410.611 Z" id="Shape"></path>
                    <path d="M146.065,465.753 C146.045,463.107 145.885,460.52 145.648,457.887 C145.631,457.711 145.368,457.813 145.356,457.946 C145.124,460.681 144.956,463.369 144.936,466.115 C144.932,466.829 146.069,466.342 146.065,465.753 L146.065,465.753 Z" id="Shape"></path>
                    <path d="M145.991,454.777 C146.005,454.502 146.017,454.227 146.03,453.952 C146.062,453.284 144.997,453.748 144.971,454.292 C144.999,453.685 145.134,453.651 144.139,454.524 C143.494,455.09 142.895,456.026 142.716,456.864 C142.288,458.87 142.235,461.02 142.148,463.065 C141.916,468.495 141.891,473.93 141.813,479.364 C141.75,483.724 141.723,488.087 141.639,492.447 C141.582,495.325 141.561,498.204 141.614,501.082 C141.66,503.539 140.589,505.876 143.43,507.255 C145.938,508.472 148.805,506.54 149.925,504.304 C147.593,508.959 149.555,505.041 150.092,503.971 C150.705,502.746 150.97,501.475 150.559,500.145 C149.856,497.865 149.739,495.697 149.606,493.292 C149.346,488.596 149.288,483.896 149.219,479.194 C149.15,474.35 149.08,469.506 149.01,464.664 C148.977,462.332 148.846,459.985 148.615,457.665 C148.527,456.786 148.417,455.953 148.211,455.094 C148.085,454.571 145.99,453.139 146.029,453.952 C145.996,453.272 144.943,453.741 144.97,454.292 C144.983,454.558 144.995,454.825 145.009,455.092 C145.042,455.744 145.968,455.255 145.991,454.777 L145.991,454.777 Z" id="Shape"></path>
                    <path d="M217.617,267.709 C223.005,273.034 225.504,281.691 228.559,288.45 C230.123,291.912 231.668,295.396 233.469,298.744 C234.351,300.384 234.636,302.717 237.478,303.269 C240.09,303.779 244.496,299.814 242.036,297.296 C233.196,288.247 229.261,274.491 219.385,266.157 C218.509,265.42 216.775,266.877 217.617,267.709 L217.617,267.709 Z" id="Shape"></path>
                    <path d="M124.555,288.938 C131.267,287.003 136.596,282.868 141.865,278.417 C144.818,275.922 147.661,273.302 150.626,270.821 C152.98,268.852 155.397,267.776 156.358,264.703 C156.721,263.544 155.937,262.405 154.807,262.163 C150.028,261.14 144.592,268.284 141.578,271.224 C135.98,276.681 130.611,282.562 124.164,287.056 C123.305,287.654 123.073,289.365 124.555,288.938 L124.555,288.938 Z" id="Shape"></path>
                    <path d="M150.296,456.709 C147.504,463.69 161.427,460.131 164.122,459.488 C173.092,457.35 181.802,454.07 190.418,450.827 C199.402,447.445 208.297,443.827 217.162,440.144 C220.435,438.785 223.702,437.409 226.971,436.04 C230.634,434.505 234.014,434.055 235.248,429.549 C235.637,428.133 235.074,426.379 233.713,425.692 C229.557,423.593 224.363,427.317 222.938,431.27 C222.462,432.586 222.164,434.729 223.863,435.416 C227.234,436.78 230.544,435.293 233.153,432.956 C230.653,432.467 228.153,431.977 225.653,431.488 C225.753,430.953 225.852,430.417 225.951,429.882 C226.887,428.885 227.822,427.888 228.758,426.892 C215.271,433.398 200.956,439.15 186.837,444.551 C178.994,447.552 171.051,450.433 162.942,452.639 C160.477,453.31 157.959,453.819 155.434,454.203 C154.233,454.386 153.139,454.374 152.04,455.001 C152.019,455.013 150.071,456.855 150.92,455.976 C151.268,455.617 150.376,456.508 150.296,456.709 L150.296,456.709 Z" id="Shape"></path>
                    <path d="M29.868,330.067 C27.648,342.623 31.902,356.022 36.466,367.593 C39.036,374.112 42.054,380.451 44.976,386.818 C47.49,392.297 49.436,400.157 54.083,404.178 C55.379,405.3 57.099,403.798 57.192,402.392 C57.596,396.359 53.876,390.336 51.351,385.039 C48.57,379.204 45.708,373.41 43.075,367.506 C40.465,361.652 38.24,355.645 36.44,349.492 C34.505,342.883 34.123,336.169 33.168,329.399 C32.881,327.374 30.125,328.61 29.868,330.067 L29.868,330.067 Z" id="Shape"></path>
                    <path d="M244.633,310.774 C250.761,311.757 257.239,311.41 263.434,311.772 C270.51,312.187 277.543,312.92 284.552,313.976 C291.546,315.03 298.466,316.53 305.304,318.327 C312.007,320.089 318.762,323.161 325.721,323.588 C326.859,323.657 329.354,321.909 327.959,320.654 C323.469,316.61 317.106,315.085 311.43,313.446 C304.069,311.32 296.512,309.837 288.951,308.638 C275.209,306.459 259.173,304.319 245.404,307.172 C243.973,307.469 242.502,310.432 244.633,310.774 L244.633,310.774 Z" id="Shape"></path>
                    <path d="M54.092,416.33 C49.029,420.743 45.016,426.3 41.516,431.994 C38.32,437.19 35.171,443.343 35.416,449.602 C35.496,451.637 38.319,450.991 39.063,449.78 C41.868,445.218 44.015,440.273 46.536,435.548 C49.673,429.669 53.799,424.529 57.432,418.979 C59.188,416.295 56.385,414.331 54.092,416.33 L54.092,416.33 Z" id="Shape"></path>
                    <path d="M46.206,300.071 C46.378,299.508 46.413,299.548 46.311,300.192 C46.325,300.526 46.44,300.821 46.656,301.077 C47.126,301.808 47.718,302.076 48.495,302.432 C50.346,303.285 52.399,303.587 54.411,303.72 C60.102,304.096 65.757,303.389 71.366,302.487 C81.862,300.798 93.725,298.796 103.054,293.38 C104.423,292.585 104.962,290.26 102.874,290.192 C93.322,289.878 83.272,293.711 73.999,295.554 C68.835,296.581 63.578,297.412 58.323,297.786 C56.266,297.933 54.155,297.945 52.1,297.769 C51.245,297.696 50.343,297.361 49.489,297.417 C49.098,297.416 48.716,297.466 48.339,297.566 C47.554,297.888 47.615,297.894 48.525,297.582 C47.307,296.926 44.973,299.044 46.206,300.071 L46.206,300.071 Z" id="Shape"></path>
                    <path d="M241.882,430.453 C241.61,434.056 246.483,436.19 249.093,437.497 C254.225,440.063 259.761,441.806 265.247,443.428 C276.06,446.624 288.728,450.62 300.156,449.536 C301.281,449.43 303.271,447.265 301.605,446.475 C292.459,442.144 281.331,441.041 271.585,438.574 C265.843,437.12 260.095,435.478 254.554,433.376 C251.081,432.06 247.789,429.245 244.224,428.397 C243.003,428.106 241.964,429.373 241.882,430.453 L241.882,430.453 Z" id="Shape"></path>
                </g>
            </g>
        </g>
    </g>
</svg>