<?xml version="1.0" encoding="UTF-8"?>
<svg width="486px" height="450px" viewBox="0 0 486 450" version="1.1" xmlns="http://www.w3.org/2000/svg" xmlns:xlink="http://www.w3.org/1999/xlink">
    <!-- Generator: Sketch 41 (35326) - http://www.bohemiancoding.com/sketch -->
    <title>fridge</title>
    <desc>Created with Sketch.</desc>
    <defs></defs>
    <g id="Page-1" stroke="none" stroke-width="1" fill="none" fill-rule="evenodd">
        <g id="Layer_1" transform="translate(-6639.000000, -4032.000000)" fill="#010101">
            <g id="Layer_1_3_">
                <g id="fridge" transform="translate(6639.000000, 4032.000000)">
                    <path d="M100.074,6.443 C90.91,0.781 79.718,-0.415 70.077,4.818 C60.639,9.942 54.825,20.163 51.186,29.886 C46.318,42.893 44.637,56.871 43.645,70.643 C42.52,86.266 42.747,101.98 43.473,117.616 C44.671,143.446 47.869,169.116 51.039,194.76 C53.881,217.741 55.362,240.937 57.149,264.018 C59.175,290.197 62.134,316.937 61.137,343.218 C60.347,364.013 57.468,385.192 61.886,405.771 C63.739,414.402 67.266,423.21 74.064,429.143 C82.513,436.516 93.72,438.511 104.397,435.664 C109.683,434.254 116.174,422.571 107.45,421.417 C100.534,420.501 92.976,420.037 88.559,416.423 C83.173,412.016 81.062,406.657 79.212,399.91 C75.072,384.809 76.423,367.048 77.089,351.193 C78,329.468 76.331,308.163 74.411,286.496 C71.739,256.349 68.468,226.223 64.827,196.178 C62.024,173.048 58.507,150.057 56.549,126.823 C54.091,97.638 52.007,66.798 58.618,37.998 C60.792,28.529 63.981,18.896 70.782,13.141 C73.193,11.1 76.881,9.567 80.807,9.011 C86.345,8.227 92.18,9.397 97.586,10.528 C99.524,10.931 102.24,7.782 100.074,6.443 L100.074,6.443 Z" id="Shape"></path>
                    <path d="M108.385,15.852 C116,26.288 128.522,32.717 139.18,39.677 C149.684,46.536 159.182,54.733 166.344,65.096 C179.293,83.834 182.955,108.08 184.598,130.27 C186.451,155.295 185.883,180.493 186.858,205.56 C188.128,238.225 190.047,270.875 188.918,303.577 C188.413,318.198 187.351,332.89 186.013,347.461 C184.87,359.908 183.098,372.376 179.308,384.321 C172.227,406.64 153.239,422.463 129.249,422.463 C122.28,422.463 117.54,434.926 126.579,434.926 C146.767,434.926 167.061,424.337 179.388,408.53 C191.222,393.354 195.367,373.561 197.534,354.877 C204.212,297.304 199.638,239.739 197.979,182.051 C197.028,148.959 198.58,114.994 188.252,83.073 C183.425,68.153 174.789,53.743 162.475,43.854 C154.791,37.684 146.216,32.816 137.613,28.065 C128.649,23.117 119.498,18.271 110.294,13.804 C109.2,13.273 107.608,14.787 108.385,15.852 L108.385,15.852 Z" id="Shape"></path>
                    <path d="M204.618,101.656 C205.874,95.139 206.781,88.467 210.085,82.61 C212.8,77.797 217.86,74.317 222.627,71.821 C235.601,65.026 250.693,63.338 265.083,62.387 C295.601,60.372 325.84,64.729 356.237,66.422 C379.606,67.725 402.655,67.7 425.952,71.096 C438.828,72.973 452.49,75.301 464.091,81.5 C468.085,83.635 471.247,86.185 472.573,89.389 C473.157,90.8 473.165,91.831 472.969,92.981 C472.765,94.17 471.454,97.061 470.768,98.187 C466.021,105.975 475.142,109.382 480.118,103.24 C487.238,94.45 488.414,82.561 479.346,74.743 C469.638,66.374 455.768,63.25 443.528,60.794 C417.99,55.671 391.49,54.449 365.49,54.413 C355.071,54.399 342.84,53 331.477,52.161 C314.604,50.915 297.686,50.047 280.762,50.468 C253.845,51.136 215.596,54.603 202.68,82.63 C199.763,88.959 198.755,96.149 201.129,102.781 C201.785,104.618 204.375,102.919 204.618,101.656 L204.618,101.656 Z" id="Shape"></path>
                    <path d="M199.476,118.824 C196.866,151.753 199.241,185.251 200.498,218.204 C201.756,251.174 203.387,284.133 203.723,317.131 C203.87,331.523 203.047,345.301 201.322,359.571 C199.809,372.089 198.735,385.303 203.514,397.277 C211.886,418.249 236.274,423.606 256.373,425.389 C277.416,427.256 298.74,426.864 319.85,427.138 C343.692,427.448 367.536,427.69 391.376,428.183 C408.272,428.534 424.421,428.492 439.707,420.248 C454.199,412.433 463.041,397.697 464.418,381.479 C465.182,372.488 452.307,375.547 451.715,382.508 C450.842,392.792 447.351,401.493 439.059,407.89 C431.543,413.687 421.038,415.401 411.846,415.919 C396.739,416.77 381.287,415.456 366.158,415.234 C349.638,414.992 333.118,414.817 316.597,414.596 C300.922,414.385 285.159,414.537 269.503,413.725 C258.925,413.177 248.309,412.168 238.124,409.114 C228.328,406.175 219.585,400.024 215.217,390.605 C209.798,378.921 211.979,364.571 213.366,352.247 C215.338,334.741 214.898,317.413 214.325,299.825 C213.662,279.475 212.493,259.143 211.277,238.819 C210.063,218.518 208.485,198.242 207.339,177.936 C206.201,157.758 205.775,137.491 204.051,117.355 C203.786,114.239 199.647,116.667 199.476,118.824 L199.476,118.824 Z" id="Shape"></path>
                    <path d="M473,111.77 C471.002,124.392 470.8,137.514 469.934,150.26 C468.989,164.158 467.906,178.055 466.721,191.935 C464.475,218.278 462.072,244.611 460.06,270.973 C458.419,292.476 457.312,313.923 457.167,335.481 C457.112,343.563 456.92,351.66 456.309,359.721 C456.063,362.967 455.609,366.213 454.968,369.405 C454.826,370.11 454.171,372.499 454.244,372.301 C453.751,373.643 452.008,376.724 453.716,374.214 C450.414,379.066 454.363,384.42 459.833,381.185 C465.812,377.648 467.341,371.07 468.323,364.662 C469.58,356.467 469.818,348.074 469.931,339.799 C470.218,318.76 470.277,297.869 471.492,276.833 C473.097,249.071 475.586,221.37 477.279,193.615 C478.103,180.107 478.853,166.594 479.156,153.063 C479.467,139.209 480.261,124.486 477.933,110.775 C477.429,107.802 473.355,109.531 473,111.77 L473,111.77 Z" id="Shape"></path>
                    <path d="M220.165,182.428 C238.323,184.135 257.127,182.833 275.317,182.136 C294.585,181.398 313.84,180.389 333.111,179.717 C352.315,179.047 371.54,178.778 390.749,179.427 C400.151,179.745 409.542,180.384 418.906,181.293 C428.428,182.217 437.716,184.318 447.143,185.82 C448.23,182.64 449.318,179.46 450.406,176.279 C448.001,176.442 446.014,176.814 443.762,177.647 C441.685,178.415 438.014,182.751 441.448,184.378 C443.403,185.305 444.963,185.667 447.143,185.819 C451.944,186.156 458.209,177.607 451.613,176.335 C433.579,172.855 414.438,172.277 396.115,171.685 C376.879,171.062 357.62,171.565 338.397,172.375 C319.065,173.19 299.751,174.414 280.428,175.416 C260.93,176.427 241.307,176.279 221.84,177.527 C219.689,177.667 217.023,182.132 220.165,182.428 L220.165,182.428 Z" id="Shape"></path>
                    <path d="M216.71,181.712 C215.498,184.272 215.009,187.009 215.619,189.787 C216.554,194.049 222.739,193.308 223.42,189.227 C223.618,188.041 223.297,187.212 222.338,186.506 C222.723,186.777 222.576,186.656 221.901,186.142 C222.152,186.314 222.153,186.274 221.905,186.022 C222.142,186.317 221.683,185.294 221.684,185.299 C221.496,184.194 221.618,183.046 221.795,181.948 C221.97,180.864 221.528,179.805 220.353,179.588 C218.863,179.313 217.327,180.413 216.71,181.712 L216.71,181.712 Z" id="Shape"></path>
                    <path d="M219.37,191.985 C224.241,193.882 230.048,193.239 235.191,193.221 C242.347,193.196 249.506,192.969 256.659,192.762 C270.47,192.365 284.276,191.826 298.089,191.469 C326.247,190.739 354.447,191.533 382.611,191.717 C395.065,191.798 408.632,193.791 421.539,195.065 C428.171,195.719 434.804,196.398 441.457,196.792 C445.867,197.053 450.438,197.689 454.203,194.962 C452.986,195.507 451.77,196.053 450.554,196.598 C450.518,196.595 450.482,196.592 450.445,196.589 C453.7,196.845 456.591,194.714 457.431,191.552 C458.04,189.256 458.376,186.624 456.457,184.837 C454.156,182.695 451.789,183.757 449.213,184.552 C447.3,185.142 445.484,187.343 446.185,189.417 C446.375,189.981 446.599,190.501 446.848,191.04 C447.041,191.363 447.236,191.686 447.429,192.008 C448.468,192.838 448.606,192.946 447.841,192.329 C449.776,190.632 451.71,188.934 453.644,187.237 C451.738,187.381 450.459,187.748 448.901,188.919 C450.101,188.017 452.638,187.55 450.5,187.708 C448.282,187.872 446.029,187.748 443.811,187.662 C437.016,187.398 430.223,186.796 423.45,186.214 C411.157,185.159 398.727,183.382 386.37,183.463 C358.754,183.643 331.099,183.526 303.501,184.64 C289.599,185.201 275.711,186.065 261.821,186.87 C254.617,187.289 247.41,187.65 240.2,187.951 C233.648,188.223 226.456,187.658 220.165,189.679 C219.478,189.898 218.162,191.515 219.37,191.985 L219.37,191.985 Z" id="Shape"></path>
                    <path d="M225.641,259.435 C241.136,263.417 258.983,261.686 274.764,260.707 C293.41,259.549 312,257.625 330.662,256.714 C349.101,255.813 367.563,254.645 386.016,254.061 C404.568,253.475 423.77,253.278 441.708,258.594 C442.798,255.408 443.888,252.224 444.977,249.038 C441.508,249.038 438.418,249.772 435.088,250.664 C432.292,251.412 430.061,256.015 433.694,257.165 C436.851,258.164 439.601,258.649 442.918,258.649 C447.305,258.649 452.178,250.139 446.187,249.093 C409.491,242.69 372.196,247.639 335.309,249.149 C316.676,249.912 298.13,252.171 279.554,253.695 C261.996,255.136 244.823,255.21 227.247,254.737 C225.02,254.678 222.783,258.7 225.641,259.435 L225.641,259.435 Z" id="Shape"></path>
                    <path d="M225.774,268.928 C233.497,271.563 242.145,272.097 250.226,272.887 C258.502,273.698 266.997,273.449 275.294,273.219 C293.354,272.719 311.357,270.619 329.301,268.652 C365.83,264.647 403.234,260.564 439.565,268.307 C442.343,268.899 444.978,266.715 446.197,264.442 C447.538,261.941 448.647,259.506 449.06,256.686 C449.522,253.532 446.87,251.049 443.691,252.353 C441.338,253.318 439.73,254.556 437.76,256.087 C436.336,257.195 435.373,260.062 437.37,261.136 C438.844,261.928 440.004,261.93 441.61,262.057 C440.65,260.962 439.689,259.868 438.728,258.773 C438.474,260.186 438.016,261.526 437.354,262.794 C439.564,261.505 441.775,260.217 443.986,258.929 C408.248,252.389 371.704,256.731 335.966,260.997 C317.903,263.153 299.831,265.371 281.662,266.439 C272.943,266.952 264.224,267.192 255.491,266.969 C246.141,266.731 237.01,265.422 227.708,264.823 C225.607,264.687 222.979,267.975 225.774,268.928 L225.774,268.928 Z" id="Shape"></path>
                    <path d="M227.294,258.376 C224.619,259.32 223.223,262.375 223.274,265.073 C223.298,266.286 223.845,267.658 224.664,268.537 C226.095,270.074 227.788,270.006 229.687,269.56 C231.185,269.207 233.482,266.746 232.486,265.063 C231.903,264.08 231.486,263.431 230.465,262.834 C230.161,262.657 229.872,262.482 229.583,262.282 C229.973,262.552 229.37,261.878 229.583,262.283 C229.127,261.416 229.682,260.109 229.082,259.027 C228.711,258.36 228.032,258.116 227.294,258.376 L227.294,258.376 Z" id="Shape"></path>
                    <path d="M229.194,335.92 C245.903,338.016 262.945,336.421 279.709,335.679 C297.364,334.897 314.996,333.375 332.633,332.257 C367.909,330.022 404.577,327.277 439.579,333.442 C439.813,330.585 440.047,327.727 440.281,324.87 C439.081,325.564 437.449,325.753 436.149,326.224 C434.026,326.994 429.965,331.771 433.692,333.371 C436.975,334.781 440.246,334.741 443.271,332.69 C445.475,331.196 449.322,324.514 443.973,324.118 C408.539,321.491 373.504,321.685 338.069,324.32 C320.35,325.637 302.655,327.253 284.94,328.625 C266.781,330.032 248.45,330.306 230.372,332.479 C228.947,332.65 226.915,335.634 229.194,335.92 L229.194,335.92 Z" id="Shape"></path>
                    <path d="M231.778,332.674 C231.612,332.82 231.446,332.967 231.28,333.114 C231.544,333.027 231.809,332.94 232.074,332.853 C229.499,332.619 227.98,335.423 227.626,337.631 C227.426,338.873 227.674,340.06 228.109,341.223 C228.755,342.949 229.54,344.02 231.326,344.574 C233.507,345.25 237.143,341.97 235.897,339.704 C235.421,338.84 235.044,338.313 234.155,337.848 C233.512,337.512 233.162,337.034 232.872,336.393 C232.36,335.258 233.226,334.112 232.386,333.025 C232.363,333.329 232.339,333.632 232.316,333.936 C232.449,333.762 232.582,333.589 232.714,333.415 C233.272,332.686 232.395,332.13 231.778,332.674 L231.778,332.674 Z" id="Shape"></path>
                    <path d="M231.161,342.06 C237.039,345.692 244.201,346.393 250.94,347.073 C258.649,347.849 266.541,347.516 274.264,347.177 C290.275,346.473 306.185,344.271 322.202,343.615 C341.419,342.829 360.624,341.786 379.845,341.112 C399.972,340.407 420.481,339.332 440.546,341.296 C443.944,341.628 447.101,339.273 447.93,335.972 C448.44,333.947 448.833,331.573 447.313,329.84 C445.753,328.064 443.771,328.755 441.787,328.495 C437.724,327.963 431.437,334.423 436.375,337.389 C436.912,337.777 437.506,338.042 438.157,338.185 C440.952,339.085 437.632,337.994 437.796,336.792 C439.84,334.998 441.885,333.204 443.929,331.41 C424.491,332.228 405.01,331.853 385.556,332.528 C366.103,333.203 346.679,334.361 327.255,335.591 C311.17,336.61 295.184,338.556 279.115,339.783 C270.994,340.404 262.867,340.814 254.72,340.628 C247.279,340.458 239.918,339.448 232.488,339.26 C231.273,339.228 229.845,341.247 231.161,342.06 L231.161,342.06 Z" id="Shape"></path>
                    <path d="M257.387,176.54 C258.733,170.534 258.53,164.158 258.996,158.034 C259.529,151.038 260.486,144.204 261.579,137.28 C260.928,138.339 260.275,139.398 259.624,140.457 C273.429,126.565 292.709,123.098 311.555,122.022 C331.966,120.858 352.412,122.82 372.832,122.706 C384.794,122.64 396.756,122.438 408.627,124.151 C414.2,124.955 419.588,126.51 424.932,128.247 C427.964,129.232 431,130.623 433.094,133.08 C437.124,137.81 436.935,146.956 437.527,152.841 C437.963,157.173 438.167,161.528 438.126,165.88 C438.103,168.387 438.18,172.885 436.738,174.6 C439.811,174.749 442.884,174.898 445.957,175.047 C445.717,172.928 445.038,171.034 442.989,170.095 C438.199,167.897 430.956,175.716 436.219,179.033 C435.621,177.894 435.357,177.691 435.423,178.425 C435.361,184.092 442.638,181.174 444.643,178.872 C450.231,172.451 448.63,160.666 447.95,152.934 C447.264,145.139 446.68,135.739 443.118,128.678 C439.091,120.699 428.818,118.553 420.953,116.476 C407.666,112.967 393.393,113.274 379.763,113.388 C356.292,113.584 332.722,111.432 309.285,113.178 C298.172,114.007 286.972,115.978 276.585,120.106 C271.871,121.979 267.396,124.355 263.243,127.266 C259.741,129.722 252.66,134.31 252.63,139.089 C252.591,145.516 252.462,151.89 252.16,158.31 C251.856,164.767 251.089,171.748 252.635,178.073 C253.284,180.724 257.041,178.086 257.387,176.54 L257.387,176.54 Z" id="Shape"></path>
                    <path d="M251.422,188.882 C249.943,193.753 250.69,199.723 251.004,204.722 C251.404,211.083 251.921,217.438 252.305,223.8 C252.665,229.781 252.862,235.778 252.61,241.767 C252.511,244.115 252.228,246.436 251.768,248.74 C251.36,250.79 249.649,252.418 250.898,254.63 C252.102,256.762 254.606,257.086 256.658,255.788 C261.35,252.823 261.223,247.151 261.523,242.127 C261.885,236.052 261.315,229.911 260.788,223.864 C260.197,217.102 259.378,210.361 258.621,203.616 C258.043,198.456 258.172,192.192 256.299,187.311 C255.275,184.646 251.919,187.246 251.422,188.882 L251.422,188.882 Z" id="Shape"></path>
                    <path d="M252.502,268.075 C251.092,278.831 250.753,289.489 250.353,300.331 C250.121,306.621 249.877,312.907 249.527,319.192 C249.331,322.71 247.188,329.157 249.371,332.136 C251.364,334.858 255.315,332.276 256.859,330.58 C259.638,327.529 258.508,321.822 258.517,318.035 C258.532,312.056 258.313,306.055 258.06,300.08 C257.593,289.095 256.877,278.372 255.313,267.506 C255.069,265.812 252.669,266.797 252.502,268.075 L252.502,268.075 Z" id="Shape"></path>
                    <path d="M438.716,193.744 C434.27,201.217 434.571,211.506 434.443,219.925 C434.292,229.789 434.465,239.68 434.443,249.542 C434.428,255.925 445.557,251.853 444.766,246.233 C444.563,244.795 444.087,243.738 443.643,242.403 C442.127,237.859 436.211,242.357 435.456,245.042 C438.887,241.328 439.498,240.336 437.287,242.066 C436.357,242.881 435.787,243.862 435.456,245.042 C435.143,246.16 434.701,247.116 434.547,248.297 C433.56,255.866 444.779,252.564 444.766,246.234 C444.745,237.123 443.772,227.976 443.423,218.871 C443.241,214.138 443.261,209.4 443.299,204.665 C443.329,200.807 443.77,196.67 442.791,192.915 C442.211,190.687 439.31,192.747 438.716,193.744 L438.716,193.744 Z" id="Shape"></path>
                    <path d="M434.159,264.535 C431.422,267.439 431.462,272.513 431.057,276.263 C430.429,282.097 429.913,287.948 429.434,293.796 C428.967,299.476 428.387,305.152 427.612,310.799 C427.322,312.91 427,315.026 426.533,317.106 C426.362,317.867 426.153,318.618 425.927,319.363 C424.935,322.624 426.195,319.119 425.818,320.086 C423.789,325.295 429.384,327.179 432.988,324.014 C433.914,323.201 434.506,322.381 435.084,321.308 C435.348,320.827 435.297,320.905 434.932,321.539 C435.523,320.773 435.926,319.919 436.143,318.976 C436.667,317.169 436.882,315.263 437.138,313.405 C437.963,307.408 438.324,301.332 438.672,295.292 C439.031,289.08 439.316,282.818 439.123,276.595 C439.033,273.704 439.819,265.653 436.596,264.03 C435.832,263.644 434.736,263.922 434.159,264.535 L434.159,264.535 Z" id="Shape"></path>
                    <path d="M248.774,345.309 C241.401,383.851 298.426,373.713 320.307,373.823 C350.973,373.975 383.891,377.699 413.528,367.861 C422.003,365.048 430.487,360.3 434.977,352.284 C436.965,348.731 437.786,344.753 437.703,340.704 C437.64,337.585 436.798,334.408 433.208,333.743 C429.139,332.988 426.778,335.736 424.731,338.058 C423.604,339.335 423.155,342.193 425.072,343.051 C426.284,343.593 427.368,343.533 428.421,344.367 C427.814,343.368 427.207,342.369 426.601,341.371 C426.994,343.901 427.005,346.061 426.3,348.512 C425.882,349.965 424.683,351.4 423.193,352.734 C419.363,356.163 412.853,358.308 407.257,359.773 C391.331,363.943 374.226,364.158 357.863,364.257 C344.367,364.34 330.823,363.497 317.335,364.014 C301.353,364.626 284.772,367.626 269.109,362.951 C260.149,360.277 254.946,353.363 254.73,344.105 C254.643,340.366 249.25,342.819 248.774,345.309 L248.774,345.309 Z" id="Shape"></path>
                    <path d="M218.254,91.021 C225.795,96.677 232.789,103.52 239.68,109.935 C243.805,113.776 247.232,118.118 251.014,122.27 C252.508,123.911 253.917,125.631 255.153,127.476 C255.67,128.246 256.144,130.421 256.026,129.668 C256.913,135.299 263.846,132.464 265.57,128.896 C269.863,120.01 253.817,110.754 248.387,106.762 C239.41,100.161 230.279,93.217 220.024,88.685 C218.75,88.122 216.954,90.045 218.254,91.021 L218.254,91.021 Z" id="Shape"></path>
                    <path d="M75.561,1.139 C62.903,-1.605 49.496,3.608 40.413,12.493 C30.562,22.131 25.782,35.754 23.184,48.986 C16.839,81.306 20.84,115.48 25.03,147.814 C26.668,160.454 28.704,173.053 30.052,185.728 C33.427,217.441 34.708,249.369 35.227,281.242 C35.442,294.514 35.889,307.883 35.182,321.146 C34.673,330.65 33.693,340.127 32.957,349.616 C31.426,369.409 30.031,390.36 35.407,409.713 C37.144,415.968 40.119,421.985 44.523,426.791 C50.884,433.732 60.547,435.5 68.957,438.835 C74.302,440.954 81.839,431.562 76.094,429.415 C66.168,425.708 56.044,424.112 49.637,414.977 C44.67,407.897 42.835,398.673 41.772,390.267 C39.202,369.951 41.809,349.168 43.443,328.879 C45.579,302.361 44.403,275.494 43.386,248.945 C42.424,223.799 40.932,198.536 37.597,173.58 C33.441,142.477 28.553,111.434 28.59,79.965 C28.617,56.175 30.543,17.306 57.518,7.664 C62.852,5.759 68.71,5.386 74.301,4.822 C75.895,4.663 77.952,1.657 75.561,1.139 L75.561,1.139 Z" id="Shape"></path>
                    <path d="M30.18,138.365 C27.559,136.456 22.36,138.934 19.688,139.977 C16.371,141.274 13.318,143.107 10.535,145.318 C5.317,149.464 2.481,155.867 1.409,162.293 C0.21,169.472 0.478,177.014 0.793,184.265 C1.087,191.038 1.978,197.984 4.181,204.418 C6.144,210.147 10.14,215.072 16.66,214.686 C23.92,214.256 28.252,208.279 30.046,201.902 C32.114,194.546 31.874,186.266 31.676,178.703 C31.501,172.037 31.054,165.322 30.144,158.713 C29.416,153.425 23.024,155.141 20.687,158.254 C18.44,161.248 16.923,164.265 17.786,167.984 C18.268,170.064 21.332,169.818 22.666,168.964 C25.373,167.234 26.719,165.001 28.797,162.636 C25.645,162.483 22.492,162.329 19.34,162.177 C20.871,173.157 21.452,184.521 20.752,195.583 C20.6,197.993 20.209,200.397 19.647,202.744 C19.464,203.508 19.198,204.167 18.862,204.878 C18.619,205.396 21.15,203.677 18.901,204.581 C15.686,205.873 13.376,198.406 12.728,196.466 C9.362,186.37 8.984,174.27 9.438,163.738 C9.657,158.668 10.737,153.477 14.577,149.922 C18.948,145.874 26.992,145.276 30.327,140.482 C30.818,139.772 30.94,138.918 30.18,138.365 L30.18,138.365 Z" id="Shape"></path>
                    <path d="M226.818,415.831 C225.908,419.73 224.77,423.495 224.174,427.464 C223.557,431.581 223.453,435.783 222.735,439.88 C222.444,441.537 223.16,443.084 224.911,443.441 C234.903,445.48 245.83,445.407 255.997,446.003 C267.846,446.697 279.718,447.063 291.581,447.42 C315.218,448.134 338.897,449.446 362.542,449.568 C373.464,449.625 384.341,448.999 395.252,448.733 C402.227,448.562 409.224,449.037 416.168,448.174 C431.144,446.313 439.079,435.284 437.369,420.458 C437.121,418.312 435.372,416.684 433.108,417.022 C430.915,417.349 429.407,418.122 427.422,418.927 C423.544,420.502 420.192,427.813 426.675,427.846 C428.096,427.853 429.478,427.455 430.897,427.334 C429.477,426.189 428.057,425.043 426.636,423.898 C427.071,428.175 427.9,434.185 423.524,436.656 C419.097,439.154 412.552,438.67 407.67,438.723 C389.396,438.924 371.173,440.078 352.885,439.767 C331.825,439.409 310.757,438.67 289.696,438.215 C278.82,437.98 267.949,437.623 257.08,437.168 C251.727,436.944 246.379,436.665 241.031,436.332 C236.781,436.067 231.787,434.862 227.586,435.623 C228.668,436.496 229.751,437.369 230.833,438.242 C229.562,430.912 230.689,422.401 231.057,414.973 C231.186,412.307 227.214,414.131 226.818,415.831 L226.818,415.831 Z" id="Shape"></path>
                    <path d="M272.216,293.512 C274.905,298.667 285.748,297.91 290.504,297.744 C297.295,297.508 305.746,295.723 308.766,288.84 C309.291,287.644 309.267,286.161 308.007,285.44 C297.723,279.544 280.378,280.573 272.375,289.754 C268.565,294.124 274.714,298.418 278.373,294.511 C284.861,287.583 296.081,289.439 304.383,291.395 C303.804,290.448 303.226,289.501 302.647,288.554 C302.063,293.222 291.626,293.078 288.268,293.137 C283.289,293.225 278.318,291.717 273.386,291.994 C272.786,292.028 271.867,292.841 272.216,293.512 L272.216,293.512 Z" id="Shape"></path>
                    <path d="M273.264,292.29 C268.236,298.416 268.55,310.253 269.839,317.637 C270.488,321.36 272.089,334.763 278.405,332.054 C281.157,330.872 283.549,328.044 281.747,325.084 C279.53,321.441 277.918,317.882 276.757,313.693 C275.791,310.213 275.649,306.573 275.655,302.982 C275.662,299.533 276.841,295.831 276.17,292.431 C275.852,290.82 274.057,291.325 273.264,292.29 L273.264,292.29 Z" id="Shape"></path>
                    <path d="M305.155,287.376 C299.956,298.717 308.964,314.289 301.376,324.457 C298.545,328.251 302.052,332.766 306.292,330.058 C312.744,325.939 312.187,316.53 311.674,309.851 C311.11,302.511 310.931,293.638 307.954,286.807 C307.377,285.484 305.582,286.448 305.155,287.376 L305.155,287.376 Z" id="Shape"></path>
                    <path d="M392.534,201.882 C393.279,199.725 393.7,198.174 396.225,199.116 C398.598,200.002 400.401,202.584 400.177,205.152 C401.118,204.326 402.059,203.5 403,202.674 C400.834,202.961 398.65,202.987 396.47,203.042 C394.167,203.101 392.008,202.908 390.158,204.494 C389.01,205.477 388.245,207.609 389.843,208.57 C391.479,209.553 394.231,208.474 396.036,208.231 C398.246,207.933 400.453,207.634 402.627,207.127 C403.91,206.828 404.867,205.463 404.891,204.197 C404.973,199.816 402.109,195.547 397.612,194.785 C393.398,194.071 388.957,197.674 389.666,202.112 C389.92,203.709 392.12,203.078 392.534,201.882 L392.534,201.882 Z" id="Shape"></path>
                    <path d="M389.618,206.369 C388.202,210.742 389.776,215.462 388.216,219.869 C388.159,220.026 384.64,221.329 384.249,221.57 C382.817,222.452 381.997,223.726 381.161,225.13 C377.124,231.902 379.76,242.642 379.868,250.026 C379.923,253.732 385.319,251.845 386.143,249.517 C386.848,247.522 387.52,245.514 385.479,244.138 C384.292,243.339 382.75,244.456 381.995,245.296 C381.172,246.21 380.735,247.308 380.214,248.411 C382.306,248.241 384.398,248.072 386.489,247.902 C386.416,243.685 385.881,239.488 385.669,235.277 C385.541,232.719 385.601,230.21 386.064,227.686 C386.476,225.446 387.801,225.268 389.627,224.329 C395.527,221.293 393.674,210.61 391.381,205.802 C390.94,204.881 389.823,205.737 389.618,206.369 L389.618,206.369 Z" id="Shape"></path>
                    <path d="M402.651,205.532 C399.807,210.894 395.478,222.596 401.725,226.809 C407.038,230.393 402.554,239.36 404.58,244.254 C405.447,246.349 408.012,245.568 409.355,244.508 C413.452,241.271 411.037,231.537 410.091,227.336 C409.257,223.622 407.509,223.06 404.789,220.839 C401.911,218.488 403.454,208.869 403.753,205.582 C403.826,204.805 402.905,205.053 402.651,205.532 L402.651,205.532 Z" id="Shape"></path>
                    <path d="M349.217,205.69 C353.149,204.586 356.757,203.347 360.882,203.029 C365.147,202.699 371.817,202.294 375.735,204.415 C375.858,202.825 375.981,201.235 376.103,199.645 C375.707,200.107 375.252,200.5 374.741,200.826 C373.131,201.998 372.858,204.733 375.027,205.347 C375.247,205.41 375.465,205.472 375.685,205.534 C377.108,205.937 378.81,204.826 379.614,203.75 C379.82,203.474 380.026,203.197 380.232,202.921 C381.434,201.311 381.196,198.164 378.5,198.571 C369.411,199.945 354.972,195.37 348.579,204.639 C348.193,205.2 348.475,205.899 349.217,205.69 L349.217,205.69 Z" id="Shape"></path>
                    <path d="M349.796,205.021 C348.961,207.852 349.09,210.643 350.606,213.24 C350.586,212.875 350.566,212.51 350.545,212.144 C350.522,212.268 350.498,212.391 350.475,212.515 C349.954,215.25 353.133,215.381 354.688,214.017 C356.162,212.723 356.573,209.329 353.747,209.644 C353.612,209.659 353.477,209.674 353.344,209.689 C353.841,209.867 354.339,210.043 354.836,210.221 C353.067,208.749 352.032,206.678 351.206,204.567 C350.906,203.803 349.938,204.542 349.796,205.021 L349.796,205.021 Z" id="Shape"></path>
                    <path d="M351.702,211.467 C345.954,214.749 343.853,221.749 343.425,227.956 C343.183,231.457 343.332,234.911 343.628,238.404 C343.869,241.261 343.732,244.698 344.679,247.414 C345.86,250.805 350.615,247.641 351.07,245.355 C351.98,240.789 350.158,235.216 349.848,230.59 C349.433,224.382 349.99,218.864 353.699,213.739 C354.85,212.148 353.456,210.465 351.702,211.467 L351.702,211.467 Z" id="Shape"></path>
                    <path d="M377.848,201.938 C377.045,203.186 376.502,204.293 376.112,205.748 C375.729,207.167 375.542,208.864 374.983,210.165 C375.489,209.627 375.993,209.089 376.498,208.551 C376.436,208.594 376.376,208.637 376.314,208.68 C375.245,209.426 374.062,210.588 374.221,212.042 C374.287,212.649 374.413,213.047 374.784,213.54 C375.955,215.098 378.501,213.758 379.356,212.59 C379.769,212.027 379.988,211.501 380.178,210.839 C380.407,210.04 380.093,208.771 379.225,208.443 C379.142,208.412 379.059,208.381 378.976,208.35 C379.225,208.633 379.474,208.916 379.722,209.2 C379.443,208.173 379.65,206.576 379.658,205.43 C379.665,204.263 379.426,203.141 379.392,202.013 C379.368,201.139 378.167,201.442 377.848,201.938 L377.848,201.938 Z" id="Shape"></path>
                    <path d="M375.557,214.385 C376.687,215.819 378.373,216.825 379.602,218.199 C380.85,219.595 381.768,221.156 382.545,222.843 C383.882,221.109 385.219,219.374 386.557,217.64 C384.432,217.713 382.073,218.785 380.967,220.675 C380.505,221.465 380.934,222.497 381.567,223.035 C382.726,224.021 383.587,224.232 385.132,224.286 C387.709,224.377 390.506,220.671 388.743,218.419 C386.125,215.075 382.33,210.565 377.576,211.106 C376.214,211.26 374.476,213.013 375.557,214.385 L375.557,214.385 Z" id="Shape"></path>
                    <path d="M276.583,139.561 C280.139,139.954 283.768,139.668 287.343,139.678 C292.405,139.691 297.462,140.197 302.515,140.45 C306.124,140.631 308.817,134.6 304.456,134.774 C295.645,135.127 285.505,133.988 277.113,137.085 C276.304,137.384 274.988,139.384 276.583,139.561 L276.583,139.561 Z" id="Shape"></path>
                    <path d="M275.231,137.391 C272.723,144.109 274.549,153.191 275.258,160.119 C275.593,163.393 275.338,177.017 280.104,176.862 C281.958,176.801 283.602,173.926 282.917,172.278 C281.455,168.759 280.973,164.866 280.415,161.118 C279.773,156.802 279.311,152.459 278.954,148.11 C278.659,144.506 278.979,140.313 277.873,136.852 C277.46,135.562 275.545,136.547 275.231,137.391 L275.231,137.391 Z" id="Shape"></path>
                    <path d="M304.067,136.386 C303.047,142.115 303.404,147.907 303.356,153.701 C303.31,159.248 303.955,166.052 301.393,171.168 C299.368,175.209 305.567,175.582 307.008,172.215 C309.337,166.773 308.967,160.475 308.67,154.694 C308.342,148.312 307.6,141.924 306.26,135.679 C306.002,134.475 304.198,135.647 304.067,136.386 L304.067,136.386 Z" id="Shape"></path>
                    <path d="M303.336,137.994 C308.475,142.823 312.209,147.264 313.054,154.407 C313.896,161.525 312.77,168.89 313.11,176.053 C313.321,180.513 319.854,177.279 319.911,173.873 C319.954,171.303 319.346,170.124 316.93,169.327 C315.753,168.938 314.049,170.152 313.675,171.224 C313.06,172.986 312.998,174.186 313.111,176.052 C315.378,175.325 317.645,174.599 319.912,173.872 C319.314,166.278 320.353,158.346 318.8,150.861 C317.325,143.757 311.695,138.799 305.441,135.735 C304.332,135.195 302.246,136.969 303.336,137.994 L303.336,137.994 Z" id="Shape"></path>
                </g>
            </g>
        </g>
    </g>
</svg>