<?xml version="1.0" encoding="UTF-8"?>
<svg width="526px" height="433px" viewBox="0 0 526 433" version="1.1" xmlns="http://www.w3.org/2000/svg" xmlns:xlink="http://www.w3.org/1999/xlink">
    <!-- Generator: Sketch 41 (35326) - http://www.bohemiancoding.com/sketch -->
    <title>garden</title>
    <desc>Created with Sketch.</desc>
    <defs></defs>
    <g id="Page-1" stroke="none" stroke-width="1" fill="none" fill-rule="evenodd">
        <g id="Layer_1" transform="translate(-6097.000000, -4805.000000)" fill="#010101">
            <g id="Layer_1_3_">
                <g id="garden" transform="translate(6097.000000, 4805.000000)">
                    <path d="M213.547,87.454 C216.458,74.759 224.128,65.321 235.82,59.798 C246.855,54.585 260.349,53.917 272.257,55.614 C283.595,57.23 295.38,61.64 303.405,70.086 C306.84,73.7 309.411,78.258 310.301,83.196 C310.804,85.987 310.817,88.868 310.425,91.67 C309.972,94.907 308.509,98.402 309.071,101.675 C309.601,104.77 313.24,104.845 315.216,102.878 C325.013,93.122 321.805,75.224 314.274,65.195 C306.438,54.76 293.072,49.49 280.644,47.218 C254.811,42.498 221.176,51.052 212.192,78.668 C211.197,81.724 211.202,84.77 211.171,87.934 C211.154,89.446 213.329,88.409 213.547,87.454 L213.547,87.454 Z" id="Shape"></path>
                    <path d="M215.335,86.469 C212.6,79.621 202.744,76.799 196.163,75.812 C188.53,74.668 180.768,76.459 174.044,80.108 C167.129,83.858 161.714,90.38 159.114,97.768 C157.726,101.709 157.13,105.758 157.132,109.934 C157.134,113.891 158.071,120.624 162.208,122.275 C164.021,122.999 166.029,121.885 166.831,120.174 C169.712,114.027 166.685,105.914 168.394,99.197 C169.693,94.093 173.393,90.021 177.841,87.409 C182.69,84.562 188.84,83.653 194.384,84.051 C200.975,84.525 206.275,88.308 212.552,89.436 C214,89.696 215.947,88.002 215.335,86.469 L215.335,86.469 Z" id="Shape"></path>
                    <path d="M162.549,121.797 C132.651,116.088 102.044,141.84 91.827,168.41 C86.994,180.98 86.237,195.601 93.056,207.605 C100.886,221.392 119.194,231.308 135.056,230.142 C135.988,229.956 136.922,229.786 137.86,229.627 C139.907,229.268 143.318,225.88 140.438,224.181 C133.507,220.091 125.118,218.689 117.86,215.007 C112.185,212.13 107.36,208.097 103.672,202.909 C96.872,193.341 97.151,181.19 100.414,170.405 C108.586,143.392 135.072,127.247 161.795,123.998 C162.722,123.887 164.001,122.075 162.549,121.797 L162.549,121.797 Z" id="Shape"></path>
                    <path d="M137.748,227.023 C130.53,234.065 128.238,243.901 127.457,253.645 C126.563,264.787 127.686,275.758 131.063,286.42 C136.687,304.18 150.391,317.828 166.776,326.053 C183.281,334.338 202.398,337.026 220.652,334.997 C229.838,333.976 238.922,331.592 247.393,327.905 C251.935,325.928 256.203,323.646 260.196,320.701 C263.648,318.156 268.529,314.498 269.21,310.048 C269.486,308.245 268.427,307.057 266.611,307.087 C263.032,307.147 260.208,309.71 257.125,311.285 C253.476,313.15 249.965,315.236 246.251,316.986 C239.045,320.382 231.036,322.281 223.166,323.265 C207.134,325.272 190.359,322.823 175.628,316.185 C161.183,309.677 148.884,298.465 142.244,283.976 C138.32,275.415 136.653,266.035 136.039,256.696 C135.435,247.498 136.061,236.685 139.658,228.068 C140.221,226.718 138.668,226.125 137.748,227.023 L137.748,227.023 Z" id="Shape"></path>
                    <path d="M314.197,101.917 C327.422,98.898 340.081,107.801 350.617,114.62 C360.729,121.164 369.641,130.371 375.326,141.023 C380.343,150.423 382.164,161.002 379.707,171.412 C376.938,183.137 367.246,190.881 360.082,199.871 C358.461,201.906 359.822,204.532 362.455,203.772 C376.588,199.695 386.172,186.226 390.563,172.742 C394.636,160.232 392.034,146.334 385.971,134.955 C379.242,122.325 368.159,112.596 355.774,105.711 C343.871,99.095 326.534,90.035 313.607,99.072 C312.258,100.015 311.96,102.428 314.197,101.917 L314.197,101.917 Z" id="Shape"></path>
                    <path d="M355.35,201.411 C359.41,207.546 362.185,213.233 363.624,220.537 C365.096,228.007 365.215,235.722 364.807,243.301 C364.036,257.619 360.294,270.733 350.661,281.62 C341.682,291.767 328.239,297.458 315.482,301.024 C308.603,302.948 301.548,304.077 294.455,304.831 C287.002,305.622 279.187,304.74 272.136,307.506 C269.561,308.515 265.875,312.961 269.518,315.119 C275.902,318.901 284.916,317.083 291.987,316.351 C300.512,315.469 308.996,313.774 317.226,311.388 C333.508,306.668 348.685,298.202 359.872,285.328 C370.777,272.78 374.543,256.389 374.633,240.15 C374.705,227.142 373.068,202.957 357.81,198.186 C356.16,197.671 354.429,200.019 355.35,201.411 L355.35,201.411 Z" id="Shape"></path>
                    <path d="M300.073,58.647 C318.533,39.083 340.066,23.796 366.553,17.502 C390.779,11.744 414.986,16.162 435.396,30.331 C454.65,43.696 468.417,64.257 479.168,84.697 C491.327,107.814 501.554,132.594 507.769,157.989 C512.475,177.216 513.885,197.233 513.478,216.978 C513.206,230.17 511.106,242.68 499.019,249.914 C491.245,254.566 482.081,256.738 473.35,258.8 C462.533,261.353 451.445,262.776 440.376,263.632 C429.589,264.467 418.72,264.527 407.932,263.713 C396.718,262.868 385.24,261.587 374.988,256.692 C369.059,253.859 360.186,264.399 366.766,267.547 C379.857,273.813 394.565,275.203 408.886,275.936 C423.225,276.668 437.578,275.999 451.814,274.169 C465.607,272.397 479.845,269.66 492.843,264.609 C502.432,260.882 511.491,255.285 517.479,246.742 C522.904,239.004 524.845,229.689 525.536,220.425 C526.489,207.649 525.949,194.679 524.737,181.941 C522.241,155.702 514.339,130.759 503.775,106.724 C486.785,68.069 462.983,24.981 420.6,10.175 C398.999,2.629 375.117,5.412 354.048,13.362 C332.03,21.669 310.339,36.622 297.814,56.856 C296.726,58.615 298.607,60.201 300.073,58.647 L300.073,58.647 Z" id="Shape"></path>
                    <path d="M237.615,54.074 C232.103,46.727 226.767,39.413 222.114,31.476 C218.02,24.495 213.546,17.558 207.648,11.949 C192.391,-2.567 170.003,-0.623 151.221,4.745 C127.346,11.567 105.56,25.319 86.189,40.528 C66.693,55.835 48.91,74.106 34.822,94.531 C21.539,113.79 12.476,135.955 6.507,158.497 C0.474,181.279 -2.6,206.85 4.892,229.656 C19.211,273.25 69.144,284.706 109.584,279.403 C116.532,278.492 123.433,277.061 130.213,275.304 C137.192,273.496 138.433,261.641 129.596,263.931 C91.128,273.899 41.203,270.297 20.335,231.231 C9.16,210.312 12.32,184.147 17.46,161.985 C22.669,139.524 31.47,117.337 44.485,98.233 C57.321,79.394 73.616,63.006 91.307,48.723 C109.241,34.243 129.6,21.814 151.786,15.157 C168.73,10.071 188.092,9.007 201.418,22.356 C212.88,33.836 219.199,49.796 232.685,59.366 C235.332,61.246 239.53,56.627 237.615,54.074 L237.615,54.074 Z" id="Shape"></path>
                    <path d="M359.769,48.106 C350.429,44.293 333.468,52.343 330.921,62.203 C326.553,79.12 347.394,81.303 358.751,79.684 C364.834,78.817 371.525,77.02 376.192,72.811 C381.255,68.245 383.64,60.369 381.058,53.993 C378.85,48.539 372.677,45.122 366.95,45.234 C359.466,45.38 353.262,50.372 349.96,56.857 C347.46,61.768 354.574,62.969 356.906,59.274 C359.126,55.755 361.479,52.854 366.017,53.281 C369.515,53.61 372.458,55.93 373.809,59.108 C378.142,69.296 363.23,72.403 356.684,73.194 C349.211,74.098 334.02,73.321 336.588,61.744 C338.453,53.335 352.115,51.285 358.885,49.972 C359.477,49.856 360.868,48.554 359.769,48.106 L359.769,48.106 Z" id="Shape"></path>
                    <path d="M458.358,126.211 C450.566,122.533 441.875,124.595 435.453,130.098 C429.475,135.221 426.896,144.473 431.621,151.281 C440.999,164.794 461.715,161.823 474.031,154.402 C480.253,150.653 485.506,144.527 486.36,137.118 C487.194,129.876 483.682,122.752 476.486,120.536 C464.521,116.852 445.171,126.049 446.77,140.378 C447.406,146.069 456.144,142.136 455.631,137.538 C454.766,129.792 466.143,127.101 471.907,128.412 C476.343,129.42 478.106,133.746 478.211,137.866 C478.331,142.606 474.435,146.256 470.751,148.56 C462.804,153.532 450.72,155.432 442.284,150.681 C437.005,147.707 433.589,141.102 437.007,135.571 C441.072,128.992 450.016,127.187 457.132,128.224 C458.021,128.354 459.534,126.766 458.358,126.211 L458.358,126.211 Z" id="Shape"></path>
                    <path d="M402.669,213.047 C394.227,216.997 388.448,224.121 390.791,233.818 C392.978,242.869 402.286,246.151 410.522,245.897 C425.922,245.421 447.608,234.081 442.175,215.884 C436.839,198.011 410.832,207.5 406.418,220.867 C405.313,224.216 407.73,228.29 411.489,226.144 C414.839,224.233 414.203,220.42 416.697,218.014 C421.875,213.018 431.111,213.545 433.889,220.606 C438.17,231.487 422.095,236.899 414.176,237.997 C408.307,238.81 403.265,237.766 399.176,233.22 C393.598,227.017 396.856,218.771 403.339,214.804 C404.529,214.079 404.138,212.36 402.669,213.047 L402.669,213.047 Z" id="Shape"></path>
                    <path d="M183.359,34.757 C183.621,25.592 177.254,20.527 168.773,24.737 C164.652,26.784 161.611,30.638 159.366,34.532 C157.369,37.996 153.865,47.075 157.297,50.331 C158.351,51.331 159.897,50.364 160.449,49.298 C162.076,46.155 161.324,42.062 162.248,38.576 C163.237,34.836 165.558,31.51 168.489,29.044 C174.918,23.636 180.108,28.553 181.406,35.384 C181.651,36.676 183.332,35.728 183.359,34.757 L183.359,34.757 Z" id="Shape"></path>
                    <path d="M159.513,48.562 C153.809,52.764 148.029,60.01 153.296,66.548 C157.351,71.579 165.497,72.684 171.482,72.364 C177.961,72.017 184.358,69.14 187.65,63.374 C191.109,57.315 187.873,44.189 181.027,41.972 C179.809,41.577 178.456,43.084 178.486,44.201 C178.657,50.392 185.968,55.046 183.119,61.933 C181.32,66.283 175.235,67.164 171.164,67.297 C166.671,67.443 161.431,66.259 158.076,63.108 C152.893,58.24 160.581,54.162 160.586,48.771 C160.586,48.143 159.818,48.337 159.513,48.562 L159.513,48.562 Z" id="Shape"></path>
                    <path d="M106.042,92.465 C104.759,86.334 107.112,78.61 101.365,74.199 C97.331,71.104 92.005,69.822 87.596,72.848 C83.457,75.689 81.599,80.755 80.29,85.384 C79.165,89.365 77.252,95.259 79.174,99.093 C79.709,100.16 81.24,99.742 81.788,98.881 C85.758,92.642 83.873,84.218 88.21,77.821 C90.943,73.79 97.07,76.011 99.799,79.051 C102.828,82.425 102.995,89.133 104.498,93.342 C104.837,94.292 106.206,93.244 106.042,92.465 L106.042,92.465 Z" id="Shape"></path>
                    <path d="M80.37,97.557 C74.066,101.655 64.646,109.258 70.356,117.358 C75.293,124.363 88.136,126.104 95.891,125.256 C104.199,124.349 111.685,116.739 111.864,108.24 C112.055,99.185 103.926,93.825 95.513,97.122 C93.633,97.859 91.822,102.016 95.132,101.662 C101.348,101 107.171,102.669 106.486,110.215 C105.822,117.538 99.351,120.376 92.903,120.319 C86.682,120.263 79.035,118.227 74.679,113.564 C69.787,108.328 80.26,102.92 81.502,98.19 C81.686,97.494 80.864,97.236 80.37,97.557 L80.37,97.557 Z" id="Shape"></path>
                    <path d="M82.803,218.931 C82.763,210.862 81.99,193.228 69.441,196.101 C60.041,198.252 56.301,213.7 61.566,220.982 C62.847,222.755 66.12,220.297 65.815,218.541 C64.992,213.794 62.584,200.983 70.411,200.436 C80.043,199.762 77.932,214.346 80.669,219.876 C81.234,221.018 82.809,219.882 82.803,218.931 L82.803,218.931 Z" id="Shape"></path>
                    <path d="M62.802,217.411 C55.814,223.094 44.954,233.107 51.27,242.767 C56.455,250.698 71.749,248.93 79.37,247.379 C88.322,245.556 98.502,238.811 95.348,228.17 C92.65,219.064 76.886,222.143 71.29,225.805 C69.281,227.12 68.905,231.51 72.197,230.18 C76.877,228.289 87.323,224.444 90.237,231.083 C91.639,234.279 89.3,238.26 86.621,239.87 C83.339,241.844 79.253,242.592 75.517,243.074 C69.48,243.855 59.993,244.107 55.707,238.873 C50.467,232.473 62.162,223.767 64.652,218.423 C65.292,217.048 63.692,216.687 62.802,217.411 L62.802,217.411 Z" id="Shape"></path>
                    <path d="M24.742,153.041 C26.482,149.124 30.33,139.478 35.918,144.473 C38.651,146.916 36.012,154.98 35.4,157.924 C34.987,159.919 32.664,166.247 35.55,167.286 C39.083,168.557 39.571,162.63 39.898,160.64 C40.953,154.204 44.296,143.553 37.141,139.738 C29.789,135.818 22.999,147.306 22.91,153.19 C22.893,154.317 24.471,153.651 24.742,153.041 L24.742,153.041 Z" id="Shape"></path>
                    <path d="M23.501,157.255 C16.13,160.531 8.28,172.435 13.191,180.44 C17.663,187.729 29.643,188.985 37.24,187.759 C45.36,186.449 52.161,178.088 49.03,169.795 C45.75,161.11 33.271,160.525 26.758,165.205 C24.245,167.009 26.159,170.203 28.942,168.846 C34.112,166.322 41.06,167.106 43.943,172.696 C47.557,179.702 39.305,182.876 34.194,183.05 C29.15,183.222 22.93,181.941 18.995,178.612 C12.997,173.54 19.397,162.592 24.252,159.215 C25.5,158.344 25.182,156.509 23.501,157.255 L23.501,157.255 Z" id="Shape"></path>
                    <path d="M93.898,274.036 C90.46,278.417 89.714,284.575 89.096,289.943 C88.153,298.131 87.95,306.372 87.784,314.605 C87.62,322.766 87.727,330.932 87.544,339.094 C87.439,343.782 87.572,348.901 86.227,353.451 C84.331,359.863 94.04,358.178 95.881,353.902 C97.804,349.435 97.595,344.169 97.66,339.395 C97.766,331.614 97.493,323.826 97.335,316.046 C97.051,302.044 97.121,288.196 97.943,274.231 C98.088,271.78 94.71,273 93.898,274.036 L93.898,274.036 Z" id="Shape"></path>
                    <path d="M140.635,305.131 C139.005,313.913 139.01,323.084 138.275,331.977 C137.439,342.071 136.791,352.202 136.466,362.324 C139.664,360.487 142.862,358.649 146.06,356.811 C145.193,355.755 144.386,354.671 143.486,353.643 C142.298,352.289 140.605,352.435 139.028,352.77 C132.591,354.135 134.215,360.782 137.31,364.491 C140.676,368.525 147.003,362.907 146.904,358.978 C146.668,349.639 146.932,340.303 147.108,330.965 C147.274,322.131 147.652,312.261 144.82,303.782 C144.078,301.562 140.914,303.633 140.635,305.131 L140.635,305.131 Z" id="Shape"></path>
                    <path d="M66.647,348.661 C63.964,349.546 62.769,352.837 63.282,355.456 C63.953,358.881 66.972,360.834 69.894,362.341 C79.266,367.173 91.644,367.606 101.922,368.23 C114.69,369.005 127.475,368.931 140.249,368.377 C146.506,368.105 162.548,369.478 165.165,361.847 C167.561,354.864 157.987,354.579 156.066,360.151 C155.615,361.459 155.271,362.586 155.164,363.966 C155.045,365.495 156.742,366.458 158.067,366.308 C159.044,366.198 159.948,365.953 160.866,365.62 C160.699,362.539 160.532,359.458 160.365,356.378 C156.604,357.745 162.839,356.362 159.199,356.861 C157.814,357.051 156.423,357.184 155.031,357.312 C150.843,357.701 146.64,357.943 142.44,358.149 C131.376,358.693 120.278,358.811 109.204,358.614 C99.044,358.434 88.766,357.942 78.778,355.955 C75.88,355.378 72.792,354.647 70.309,352.975 C68.533,351.778 69.149,350.497 67.895,348.908 C67.61,348.542 67.046,348.53 66.647,348.661 L66.647,348.661 Z" id="Shape"></path>
                    <path d="M398.005,271.426 C387.071,293.384 393.188,318.937 396.602,342.013 C397.665,349.201 406.987,343.743 407.268,338.593 C407.345,337.182 407.501,335.914 407.239,334.524 C406.446,330.325 401.552,331.493 399.536,334.15 C397.99,336.188 397.103,338.196 396.711,340.727 C400.231,340.016 403.75,339.304 407.269,338.593 C403.853,316.85 397.253,293.665 401.748,271.602 C402.283,268.975 398.783,269.864 398.005,271.426 L398.005,271.426 Z" id="Shape"></path>
                    <path d="M355.376,286.502 C349.081,289.436 348.102,301.601 347.518,307.451 C346.595,316.705 346.914,326.074 345.562,335.283 C344.505,342.482 355.312,340.085 355.816,334.453 C356.587,325.841 356.193,317.198 356.061,308.566 C355.998,304.405 356.068,300.206 356.446,296.059 C356.693,293.35 358.341,289.505 357.467,286.921 C357.153,285.999 356.042,286.192 355.376,286.502 L355.376,286.502 Z" id="Shape"></path>
                    <path d="M326.691,340.005 C326.341,347.149 337.833,349.187 342.989,349.834 C352.857,351.074 363.12,349.858 372.896,348.405 C383.797,346.785 394.6,344.562 405.451,342.653 C413.611,341.217 422.27,339.434 430.597,340.031 C430.853,336.915 431.108,333.799 431.363,330.683 C428.072,332.881 424.73,334.883 421.502,337.187 C420.183,338.13 418.46,341.105 421.135,341.666 C426.079,342.7 430.282,341.751 434.625,339.211 C437.314,337.639 441.021,330.352 435.392,329.863 C427.237,329.157 419.025,330.527 411.008,331.884 C400.623,333.642 390.312,335.811 379.929,337.585 C370.033,339.276 360.119,340.66 350.068,340.777 C346.191,340.823 342.29,340.417 338.53,339.458 C335.464,338.676 332.839,336.876 329.606,336.907 C328.007,336.924 326.762,338.536 326.691,340.005 L326.691,340.005 Z" id="Shape"></path>
                    <path d="M217.054,326.686 C214.321,328.667 213.483,333.249 212.775,336.338 C211.453,342.105 210.832,347.974 210.31,353.858 C209.582,362.075 209.441,370.333 209.414,378.579 C209.391,386.296 209.436,394.069 210.275,401.748 C210.771,406.294 211.568,416.423 218.647,413.111 C223.427,410.876 220.495,407.076 219.708,403.09 C218.2,395.465 218.009,387.452 217.696,379.706 C217.39,372.107 217.272,364.499 217.436,356.895 C217.565,350.963 217.896,345.059 218.25,339.138 C218.434,336.056 220.498,329.585 218.893,326.783 C218.457,326.019 217.657,326.249 217.054,326.686 L217.054,326.686 Z" id="Shape"></path>
                    <path d="M277.093,315.358 C268.482,330.448 266.299,350.01 264.712,367.001 C263.045,384.858 262.923,403.566 268.116,420.896 C270.765,419.005 273.413,417.115 276.06,415.224 C274.3,412.751 272.399,412.786 269.872,411.81 C267.84,411.025 265.204,412.816 265.33,415.077 C265.516,418.401 266.812,419.178 268.629,421.748 C271.414,425.687 277.653,419.723 276.573,416.076 C271.751,399.806 271.78,382.155 272.831,365.362 C273.893,348.406 278.227,332.234 280.606,315.523 C280.967,312.985 277.896,313.95 277.093,315.358 L277.093,315.358 Z" id="Shape"></path>
                    <path d="M192.414,412.201 C190.593,429.958 216.738,431.929 228.801,431.847 C238.528,431.781 248.244,430.461 257.756,428.493 C264.626,427.072 271.732,425.307 277.989,422.044 C281.054,420.445 282.818,413.416 277.549,414.195 C273.995,414.719 270.986,416.039 268.45,418.629 C266.85,420.263 266.17,423.917 269.543,423.707 C271.647,423.576 273.61,422.947 275.709,422.777 C275.563,420.161 275.415,417.545 275.269,414.928 C263.627,421.04 247.05,422.837 233.718,423.59 C220.342,424.345 203.361,424.116 195.867,411.089 C195.001,409.583 192.572,410.663 192.414,412.201 L192.414,412.201 Z" id="Shape"></path>
                    <path d="M295.103,257.882 C297.513,249.57 288.888,246.113 282.173,246.147 C273.619,246.188 265.819,252.189 262.458,259.796 C254.432,277.96 276.393,289.014 291.432,282.975 C298.807,280.013 307.201,273.759 308.33,265.28 C309.208,258.689 305.703,253.533 300.093,250.381 C295.454,247.775 289.185,246.871 284.15,248.769 C277.364,251.327 267.26,262.914 275.154,269.816 C281.228,275.128 289.883,269.113 291.613,262.437 C291.92,261.253 292.76,255.595 292.092,259.174 C291.58,261.907 289.476,264.055 287.211,265.499 C285.188,266.79 286.443,266.106 284.362,266.438 C284.987,266.338 286.699,266.458 284.043,266.299 C284.588,266.332 285.127,266.438 285.662,266.539 C286.135,266.629 287.975,267.228 285.786,266.459 C286.517,266.716 287.213,267.065 287.896,267.428 C288.402,267.696 288.873,268.022 289.34,268.348 C287.57,267.114 288.905,268.059 289.302,268.471 C289.72,268.907 290.512,270.344 289.384,268.325 C289.704,268.898 289.948,270.394 289.538,268.076 C289.842,269.79 289.972,266.025 289.601,267.809 C289.667,267.49 291.572,264.265 290.38,265.906 C292.001,263.674 290.698,265.526 290.046,266.084 C291.735,264.641 288.68,266.881 288.152,267.163 C290.368,265.976 286.742,267.302 288.596,266.958 C287.683,267.127 286.745,267.152 285.819,267.181 C287.045,267.143 284.138,266.93 284.26,266.95 C284.531,266.993 281.711,266.276 282.606,266.602 C279.403,265.434 277.665,263.747 277.546,261.339 C277.468,259.758 278.12,258.981 280.367,258.688 C283.732,258.25 287.027,260.637 290.207,261.412 C292.442,261.956 294.541,259.82 295.103,257.882 L295.103,257.882 Z" id="Shape"></path>
                    <path d="M159.49,256.674 C152.846,257.655 149.759,264.356 149.496,270.434 C149.227,276.635 155.203,282.334 160.185,284.944 C174.354,292.364 192.21,282.143 196.477,267.748 C200.671,253.599 184.469,244.98 172.742,247.222 C165.818,248.545 158.736,252.285 155.677,259.026 C152.502,266.022 154.124,274.318 161.871,276.929 C168.146,279.044 175.348,271.093 175.107,265.314 C175.02,263.239 174.562,261.96 173.486,260.187 C173.225,259.757 173.799,259.444 173.516,261.154 C173.118,262.763 172.307,264.084 171.079,265.113 C169.67,266.026 169.501,266.153 170.573,265.493 C167.942,267.078 172.613,265.183 170.509,265.535 C172.271,265.24 173.71,265.303 175.253,265.965 C176.216,266.378 178.505,267.559 178.298,269.223 C178.3,269.21 177.722,269.977 176.812,270.369 C174.453,271.388 172.328,271.055 169.904,270.119 C167,268.998 164.666,267.549 162.66,265.158 C161.105,263.303 162.462,261.121 162.365,258.995 C162.298,257.527 160.94,256.46 159.49,256.674 L159.49,256.674 Z" id="Shape"></path>
                    <path d="M181.838,261.045 C181.782,261.043 181.727,261.04 181.671,261.037 C182.794,261.437 183.917,261.838 185.04,262.238 C184.481,261.33 183.475,260.782 182.432,260.617 C180.756,260.352 179.26,260.81 177.781,261.564 C176.572,262.179 175.794,263.07 174.92,264.068 C174.116,264.985 173.709,266.214 173.379,267.354 C173.56,266.829 173.738,266.303 173.918,265.778 C173.91,265.799 173.903,265.818 173.897,265.838 C174.21,265.325 174.521,264.812 174.834,264.298 C173.263,266.097 172.78,268.698 173.587,270.918 C174.073,272.26 175.494,273.506 176.957,273.624 C177.741,273.687 178.411,273.755 179.149,273.626 C179.665,273.522 180.18,273.418 180.695,273.314 C181.819,272.943 182.824,272.365 183.712,271.58 C185.011,270.441 185.917,268.998 186.333,267.322 C186.378,267.14 186.447,266.955 186.464,266.768 C186.706,265.719 186.649,264.689 186.292,263.676 C185.912,262.706 185.268,261.971 184.354,261.468 C184.276,261.417 184.2,261.364 184.125,261.308 C184.509,261.614 184.895,261.919 185.278,262.225 C184.28,261.407 183.964,261.009 182.652,260.766 C181.613,260.574 180.348,260.689 179.361,261.042 C180.43,260.956 181.501,260.869 182.57,260.782 C182.549,260.778 182.53,260.774 182.509,260.77 C182.968,260.929 183.426,261.088 183.885,261.249 C183.834,261.226 183.789,261.202 183.743,261.171 C184.109,261.462 184.475,261.753 184.842,262.044 C184.82,262.026 184.801,262.007 184.785,261.984 C185.023,262.38 185.261,262.776 185.499,263.172 C185.486,263.152 185.478,263.132 185.476,263.109 C185.569,263.563 185.663,264.018 185.756,264.472 L185.756,264.439 C185.714,264.927 185.673,265.416 185.632,265.904 C185.634,265.891 185.637,265.879 185.639,265.865 C185.47,266.36 185.301,266.855 185.132,267.351 C185.138,267.335 185.145,267.32 185.151,267.304 C184.862,267.78 184.572,268.256 184.283,268.732 C184.371,268.587 184.468,268.449 184.573,268.315 C182.876,269.301 181.177,270.288 179.479,271.274 C179.536,271.269 179.592,271.265 179.65,271.261 C182.565,271.048 185.343,268.574 185.953,265.73 C186.212,264.522 186.042,263.199 185.202,262.241 C184.892,261.994 184.58,261.747 184.269,261.5 C183.503,261.115 182.694,260.963 181.838,261.045 L181.838,261.045 Z" id="Shape"></path>
                    <path d="M236.452,164.532 C233.221,164.05 231.27,163.564 227.961,164.545 C224.662,165.523 221.385,167.984 219.223,170.614 C214.666,176.158 213.127,182.913 215.276,189.778 C217.348,196.404 224.03,199.712 230.487,200.385 C238.195,201.19 245.013,198.712 251.183,194.249 C257.395,189.756 260.305,181.49 258.696,174.162 C257.424,168.369 252.764,165.094 247.493,163.289 C233.305,158.432 219.417,177.115 230.671,188.24 C238.571,196.05 252.198,182.962 246.819,174.068 C245.089,171.208 247.051,174.745 245.915,172.429 C245.569,171.411 245.548,171.47 245.852,172.602 C245.619,176.045 243.901,178.702 240.697,180.571 C239.824,181.112 238.879,181.445 237.864,181.568 C238.839,181.537 238.691,181.522 237.424,181.525 C237.876,181.59 238.322,181.688 238.762,181.817 C237.78,181.468 237.744,181.492 238.655,181.886 C240.487,182.752 239.069,181.979 239.848,182.839 C240.254,183.289 240.225,183.665 240.163,183.289 C240.413,184.806 240.341,183.571 240.964,182.589 C239.627,184.698 243.094,181.282 240.777,182.632 C242.373,181.702 238.678,183.319 239.504,183.156 C238.498,183.353 237.301,183.512 236.277,183.433 C234.27,183.28 232.006,182.75 230.889,180.877 C228.568,176.981 230.483,172.595 234.934,171.621 C237.708,171.017 240.684,165.165 236.452,164.532 L236.452,164.532 Z" id="Shape"></path>
                    <path d="M156.505,137.032 C151.497,134.703 146.11,139.959 143.526,143.749 C140.21,148.614 139.242,154.886 141.197,160.462 C143.335,166.563 149.678,169.349 155.738,169.288 C162.804,169.216 168.846,165.305 173.35,160.142 C181.237,151.101 179.18,134.896 166.22,132.531 C153.815,130.267 138.978,145.568 147.49,157.248 C149.928,160.594 155.354,159.532 158.343,157.827 C162.397,155.514 164.603,151.771 164.944,147.219 C165.026,146.125 164.794,145.108 164.768,144.012 C164.815,146.089 163.585,147.77 162.134,149.147 C161.243,149.959 160.229,150.553 159.088,150.932 C157.455,151.187 157.152,151.248 158.179,151.118 C159.145,151.091 158.913,151.072 157.487,151.063 C158.112,151.128 159.638,151.813 157.579,150.969 C159.624,151.807 157.344,150.411 158.245,151.289 C159.241,152.258 158.69,152.575 158.445,151.233 C158.534,151.85 158.572,152.471 158.561,153.095 C158.627,152.224 158.571,152.304 158.39,153.335 C158.496,152.674 158.785,152.1 159.252,151.612 C157.875,153.859 161.022,150.123 159.097,151.897 C160.371,151.057 160.485,150.953 159.437,151.584 C160.65,151.088 160.708,151.028 159.614,151.407 C160.688,151.218 160.68,151.185 159.591,151.311 C160.456,151.401 160.37,151.378 159.334,151.242 C157.743,151.01 157.085,150.144 156.633,149.059 C156.402,148.227 156.327,148.121 156.411,148.739 C156.329,148.246 156.28,147.749 156.267,147.249 C156.271,146.383 156.27,146.261 156.263,146.884 C156.379,144.916 156.43,144.441 156.416,145.458 C156.622,144.66 156.628,144.557 156.435,145.147 C156.61,144.727 156.817,144.323 157.055,143.935 C157.799,142.616 158.119,141.386 158.23,139.868 C158.307,138.79 157.468,137.479 156.505,137.032 L156.505,137.032 Z" id="Shape"></path>
                    <path d="M325.882,131.618 C325.654,131.555 325.427,131.493 325.198,131.43 C326.044,132.108 326.888,132.785 327.733,133.464 C325.121,126.063 315.205,132.627 312.273,135.799 C308.342,140.055 307.832,146.517 309.25,151.82 C313.124,166.318 331.747,165.097 341.816,158.765 C347.852,154.969 353.262,149.033 354.516,141.799 C355.774,134.535 351.766,127.768 345.056,124.917 C328.78,118.005 308.594,138.372 318.374,154.093 C320.553,157.596 326.478,156.267 329.267,154.675 C333.134,152.469 335.854,148.531 335.893,144.029 C335.905,142.585 335.614,141.196 335.59,139.748 C335.579,140.46 335.658,140.277 335.826,139.201 C335.578,140.247 335.077,140.618 334.351,141.386 C335.802,139.852 333.511,142.13 332.603,142.226 C331.832,142.188 332.024,142.256 333.176,142.429 C332.818,142.355 334.047,142.809 334.298,143.051 C334.734,143.503 335.127,143.989 335.479,144.51 C335.037,143.893 335.018,144.015 335.423,144.875 C335.246,143.954 335.198,143.979 335.28,144.951 C335.264,144.417 336.155,142.064 335.347,143.847 C336.108,142.685 336.142,142.591 335.447,143.566 C337.022,141.437 335.554,143.412 334.991,143.894 C337.556,141.695 331.837,145.389 334.251,144.335 C333.884,144.496 330.543,145.396 332.186,145.105 C330.235,145.451 330.946,145.525 329.055,145.009 C330.425,145.382 326.971,143.554 328.275,144.591 C327.27,143.792 326.43,142.869 325.674,141.835 C326.475,142.933 325.325,140.757 325.203,140.366 C324.953,139.543 324.925,139.546 325.119,140.376 C325.042,139.934 325.241,138.176 324.996,139.908 C325.203,139.061 325.167,139.154 324.889,140.187 C325.535,138.727 324.289,140.976 324.052,141.198 C325.027,140.283 325.995,139.352 326.713,138.217 C325.542,139.059 324.372,139.9 323.201,140.741 C323.46,140.66 323.718,140.579 323.976,140.499 C327.533,139.388 331.093,133.045 325.882,131.618 L325.882,131.618 Z" id="Shape"></path>
                    <path d="M262.269,78.612 C259.925,75.037 253.541,77.831 250.891,79.425 C246.359,82.15 242.446,87.485 241.902,92.83 C241.402,97.743 243.231,102.056 247.312,104.88 C250.84,107.32 256.292,106.641 260.089,105.476 C269.73,102.515 278.29,90.261 270.719,81.206 C264.343,73.582 250.252,77.938 244.372,83.827 C241.591,86.612 238.991,90.634 240.567,94.745 C241.975,98.42 246.529,99.478 249.952,98.169 C251.234,97.679 252.379,97.208 253.676,96.628 C254.166,96.407 256.516,95.428 253.925,96.484 C254.363,96.305 256.791,95.685 254.319,96.178 C254.791,96.096 255.266,96.045 255.744,96.025 C254.541,95.919 254.43,95.935 255.412,96.075 C253.627,95.779 255.688,96.639 254.429,95.502 C255.001,96.215 255.022,96.191 254.489,95.431 C254.245,94.753 254.206,94.061 254.374,93.353 C254.873,92.318 255.372,91.281 255.871,90.245 C257.222,88.937 257.458,88.68 256.579,89.472 C258.083,88.471 258.324,88.274 257.304,88.88 C258.747,88.289 258.943,88.175 257.89,88.537 C260.449,87.721 256.986,88.271 259.355,88.445 C258.453,88.256 258.537,88.326 259.605,88.656 C258.853,88.203 258.901,88.299 259.75,88.941 C259.519,88.74 258.574,87.079 259.038,88.111 C259.09,88.835 259.086,88.743 259.026,87.837 C259.093,88.2 259.033,88.541 258.844,88.859 C258.868,88.796 260.143,86.504 259.328,87.838 C259.858,86.969 260.528,86.19 261.197,85.428 C262.896,83.493 263.754,80.875 262.269,78.612 L262.269,78.612 Z" id="Shape"></path>
                    <path d="M104.458,275.34 C103.055,289.098 103.159,303.073 102.107,316.883 C100.963,331.895 100.586,346.947 99.502,361.955 C102.481,360.637 105.46,359.319 108.439,358.002 C107.687,355.697 106.391,354.849 104.051,354.38 C101.855,353.94 99.944,356.076 99.822,358.091 C99.743,359.411 99.508,360.618 99.502,361.955 C99.479,367.65 108.991,363.94 108.65,359.021 C107.668,344.839 109.309,330.477 109.863,316.302 C110.397,302.65 111.806,287.879 109.075,274.406 C108.533,271.723 104.684,273.143 104.458,275.34 L104.458,275.34 Z" id="Shape"></path>
                    <path d="M119.035,271.959 C117.635,279.328 117.205,286.901 116.323,294.352 C115.357,302.5 114.187,310.618 113.285,318.774 C111.582,334.17 111.084,349.372 113.072,364.759 C113.902,371.18 123.762,366.734 123.082,361.55 C122.848,359.768 122.685,358.242 121.283,357.007 C119.402,355.348 116.552,356.354 115.207,358.27 C114.006,359.983 113.429,361.478 113.175,363.552 C116.401,362.512 119.625,361.473 122.851,360.434 C119.779,345.673 120.989,330.061 122.091,315.157 C123.145,300.917 125.897,284.915 122.408,270.873 C121.948,269.023 119.251,270.819 119.035,271.959 L119.035,271.959 Z" id="Shape"></path>
                    <path d="M129.393,276.652 C127.814,283.362 127.773,290.385 127.225,297.235 C126.644,304.469 126.081,311.705 125.479,318.937 C124.225,333.993 123.246,349.064 122.837,364.168 C125.741,362.08 128.646,359.991 131.55,357.903 C130.446,357.216 129.937,356.718 128.578,356.595 C125.784,356.343 123.526,358.209 122.729,360.813 C122.144,362.72 122.089,364.913 123.684,366.342 C127.447,369.716 133.413,365.258 133.315,360.808 C132.999,346.548 133.712,332.314 134.171,318.067 C134.4,310.968 134.695,303.863 134.717,296.759 C134.738,289.672 135.189,282.274 133.372,275.368 C132.789,273.145 129.697,275.357 129.393,276.652 L129.393,276.652 Z" id="Shape"></path>
                    <path d="M231.162,328.661 C225.454,336.809 223.666,347.741 222.103,357.356 C220.756,365.653 220.148,374.151 219.492,382.526 C218.823,391.073 218.74,399.744 219.534,408.283 C220.1,414.367 220.947,424.1 226.234,428.014 C229.372,430.337 234.615,425.549 234.201,422.285 C233.832,419.378 232.251,416.729 231.367,413.925 C230.321,410.609 229.848,407.142 229.45,403.698 C228.521,395.663 228.752,387.553 228.97,379.488 C229.168,372.18 229.558,364.86 229.936,357.561 C230.422,348.153 234.422,338.143 233.296,328.764 C233.154,327.581 231.665,327.943 231.162,328.661 L231.162,328.661 Z" id="Shape"></path>
                    <path d="M248.038,323.08 C237.524,337.364 237.758,356.576 235.785,373.464 C233.61,392.081 230.085,411.555 235.068,430.01 C236.691,436.019 246.266,429.552 245.086,424.301 C244.662,422.418 243.743,421.273 242.058,420.327 C239.734,419.024 236.846,421.119 235.835,423.154 C234.917,425.001 234.735,426.798 234.826,428.839 C238.246,427.326 241.666,425.814 245.086,424.301 C240.005,407.833 243.585,389.939 244.894,373.165 C246.166,356.821 245.071,339.685 251.047,324.127 C251.908,321.885 249.167,321.544 248.038,323.08 L248.038,323.08 Z" id="Shape"></path>
                    <path d="M264.626,313.037 C253.88,327.885 253.226,345.936 251.721,363.614 C249.975,384.119 244.85,404.945 248.745,425.53 C252.218,423.995 255.688,422.459 259.161,420.923 C258.069,418.578 257.287,416.659 254.765,415.607 C251.974,414.441 248.737,416.653 248.102,419.478 C247.495,422.188 247.883,424.21 248.991,426.72 C251.363,432.092 260.22,426.905 259.407,422.113 C256.111,402.717 259.749,383.717 260.974,364.342 C261.498,356.021 261.8,347.706 262.536,339.399 C263.259,331.238 264.283,321.637 267.808,314.145 C268.904,311.815 265.773,311.452 264.626,313.037 L264.626,313.037 Z" id="Shape"></path>
                    <path d="M367.435,265.114 C360.831,275.488 360.149,289.111 359.389,301.063 C358.547,314.312 358.055,328.209 358.969,341.459 C361.801,339.423 364.632,337.387 367.464,335.351 C366.171,334.35 364.906,334.394 363.345,334.349 C362.079,334.313 360.57,335.533 360.128,336.667 C359.432,338.46 358.612,339.433 358.969,341.459 C360.178,348.334 368.883,343.125 369.186,338.185 C369.923,326.165 368.288,313.825 368.087,301.782 C367.977,295.189 368.144,288.564 368.754,281.996 C369.273,276.424 370.55,270.88 370.487,265.264 C370.468,263.527 368.05,264.146 367.435,265.114 L367.435,265.114 Z" id="Shape"></path>
                    <path d="M378.975,266.159 C371.513,281.15 373.234,298.264 372.348,314.512 C371.997,320.937 371.19,327.353 370.566,333.756 C370.236,337.138 368.524,343.189 373.164,344.314 C375.172,344.801 377.585,343.388 378.703,341.798 C378.713,341.784 378.724,341.77 378.732,341.756 C381.99,337.125 376.527,333.027 372.74,337.003 C375.215,335.851 375.98,335.41 375.039,335.682 C374.324,335.884 373.21,336.51 372.705,337.04 C374.392,338.962 376.077,340.884 377.764,342.805 C380.939,339.758 380.702,335.723 381.003,331.648 C381.418,326.037 381.851,320.419 382.124,314.799 C382.911,298.631 381.062,282.508 382.68,266.333 C382.937,263.748 379.792,264.516 378.975,266.159 L378.975,266.159 Z" id="Shape"></path>
                    <path d="M389.96,270.218 C384.747,280.748 384.851,294.26 384.096,305.768 C383.271,318.334 383.219,330.948 382.748,343.53 C385.702,341.405 388.656,339.281 391.61,337.157 C389.78,335.936 388.447,335.163 386.205,335.439 C383.946,335.717 382.264,337.327 381.621,339.461 C380.867,341.969 381.6,344.102 383.609,345.741 C387.626,349.017 393.329,344.754 393.406,340.111 C393.602,328.283 393.438,316.459 393.497,304.631 C393.527,298.405 393.614,292.184 393.686,285.959 C393.749,280.598 394.322,274.841 392.952,269.608 C392.54,268.031 390.361,269.409 389.96,270.218 L389.96,270.218 Z" id="Shape"></path>
                    <path d="M288.741,249.047 C289.783,245.111 290.633,241.831 293.28,238.616 C295.588,235.812 300.312,232.153 304.044,231.756 C303.427,230.207 302.811,228.658 302.193,227.11 C301.643,227.814 300.954,228.434 300.371,229.114 C298.748,231.004 300.133,234.343 302.834,233.165 C304.698,232.352 306.061,231.522 307.295,229.868 C310.015,226.225 305.878,224.208 302.885,226.37 C298.125,229.806 293.412,231.923 289.58,236.618 C286.729,240.11 284.417,245.443 286.114,249.893 C286.652,251.307 288.5,249.958 288.741,249.047 L288.741,249.047 Z" id="Shape"></path>
                    <path d="M288.714,239.398 C291.544,233.778 286.866,226.246 282.773,222.529 C279.11,219.203 271.497,217.96 268.73,223.194 C266.555,227.309 271.867,230.493 274.713,232.283 C278.576,234.712 283.484,237.606 288.072,238.285 C290.804,238.689 295.53,233.556 291.853,232.072 C286.289,229.828 279.58,227.926 275.083,223.771 C274.951,223.65 274.322,222.848 274.455,223.106 C275.384,224.895 271.357,226.042 273.773,225.399 C275.794,224.861 277.777,226.512 279.125,227.794 C282.615,231.112 284.142,235.674 286.019,239.947 C286.589,241.243 288.277,240.266 288.714,239.398 L288.714,239.398 Z" id="Shape"></path>
                    <path d="M241.573,160.367 C242.687,152.819 250.445,146.581 255.886,141.882 C254.203,141.283 252.521,140.685 250.838,140.084 C250.611,142.168 250.228,143.612 252.064,144.933 C252.803,145.464 253.939,144.9 254.522,144.422 C256.124,143.109 256.935,141.585 257.317,139.56 C258.071,135.56 253.262,136.568 251.596,138.481 C246.012,144.895 238.11,151.703 238.55,160.978 C238.638,162.844 241.378,161.68 241.573,160.367 L241.573,160.367 Z" id="Shape"></path>
                    <path d="M168.45,136.139 C170.077,132.805 173.024,129.967 175.617,127.373 C176.79,126.2 178.24,125.246 179.328,124.008 C179.65,123.643 179.998,123.218 180.206,122.776 C181.027,121.03 179.461,124.344 180.244,122.681 C180.367,122.419 180.484,122.024 180.431,121.729 C180.298,121.003 179.984,120.568 179.244,120.377 C176.262,119.608 173.27,123.82 171.609,125.688 C169.048,128.565 166.546,131.937 165.038,135.502 C163.941,138.096 167.507,138.071 168.45,136.139 L168.45,136.139 Z" id="Shape"></path>
                    <path d="M87.833,72.356 C90.12,73.829 92.975,69.67 94.096,68.276 C95.944,65.982 97.477,64.712 99.342,62.618 C100.717,61.075 100.175,57.85 97.614,58.28 C94.082,58.874 91.944,62.301 90.202,65.134 C89.471,66.32 85.796,71.045 87.833,72.356 L87.833,72.356 Z" id="Shape"></path>
                    <path d="M69.912,195.899 C69.831,192.723 69.316,189.507 69.061,186.334 C68.929,184.688 68.885,183.003 69.145,181.368 C69.32,180.273 69.986,179.654 69.889,178.513 C69.504,179.315 69.119,180.117 68.736,180.917 C68.827,180.847 68.918,180.776 69.009,180.707 C70.557,179.515 70.486,176.843 68.184,176.876 C68.435,176.931 68.685,176.984 68.935,177.038 C68.179,176.548 66.867,176.776 66.169,177.263 C60.309,181.349 63.236,192.341 66.325,197.487 C67.388,199.254 69.956,197.614 69.912,195.899 L69.912,195.899 Z" id="Shape"></path>
                    <path d="M457.139,123.014 C458.105,118.324 457.255,113.754 456.105,109.182 C455.453,106.592 454.488,104.067 454.065,101.423 C453.771,99.584 452.438,99.221 450.794,99.147 C449.217,99.077 447.591,100.592 446.965,101.907 C446.247,103.418 445.924,104.745 446.808,106.26 C447.464,107.388 448.967,107.327 449.856,106.422 C450.502,105.763 451.287,105.265 451.981,104.655 C451.108,105.047 450.235,105.437 449.363,105.829 C449.898,105.806 450.409,105.704 450.909,105.509 C449.798,105.105 448.687,104.699 447.577,104.294 C450.406,110.815 452.837,116.612 453.645,123.722 C453.894,125.91 456.833,124.501 457.139,123.014 L457.139,123.014 Z" id="Shape"></path>
                    <path d="M417.016,209.691 C418.301,201.327 412.057,195.027 406.803,189.429 C404.752,187.244 400.413,190.186 400.826,192.863 C401.21,195.352 402.489,196.722 405.077,196.704 C405.82,196.698 406.55,196.061 406.851,195.425 C407.601,193.844 407.502,192.497 407.328,190.779 C405.526,192.075 403.724,193.37 401.922,194.666 C407.548,198.778 412.068,203.884 413.846,210.712 C414.29,212.415 416.843,210.806 417.016,209.691 L417.016,209.691 Z" id="Shape"></path>
                    <path d="M414.369,201.299 C413.348,193.362 424.06,190.368 429.885,188.706 C436.596,186.791 444.26,185.264 451.243,186.339 C451.403,184.387 451.562,182.436 451.723,180.484 C449.577,181.457 447.771,182.844 446.56,184.872 C446.105,185.634 446.489,186.551 447.319,186.766 C449.12,187.232 451.149,186.678 452.909,186.204 C455.445,185.522 457.873,180.891 454.245,179.971 C445.505,177.754 433.738,181.304 425.656,184.41 C418.746,187.065 406.935,193.629 411.194,202.705 C411.96,204.338 414.559,202.767 414.369,201.299 L414.369,201.299 Z" id="Shape"></path>
                    <path d="M409.926,202 C413.985,209.74 426.75,204.759 432.413,202.125 C441.334,197.978 450.188,191.189 456.089,183.269 C458.427,180.131 455.6,177.381 452.321,178.975 C449.755,180.223 447.217,182.295 446.904,185.303 C446.808,186.233 447.298,187.078 448.356,186.958 C450.284,186.74 451.792,185.789 453.585,185.068 C452.634,183.503 451.682,181.937 450.73,180.372 C446.31,186.383 439.984,191.108 433.671,194.959 C430.169,197.094 426.424,198.797 422.457,199.846 C418.889,200.789 415.651,200.05 412.105,199.678 C411.084,199.571 409.287,200.779 409.926,202 L409.926,202 Z" id="Shape"></path>
                    <path d="M357.413,43.178 C357.352,38.634 360.041,34.749 362.285,31.024 C361.653,31.698 361.02,32.372 360.389,33.045 C360.065,33.111 359.741,33.177 359.416,33.242 C358.79,33.019 358.164,32.797 357.538,32.573 C356.589,31.007 357.601,32.918 357.873,33.213 C358.949,34.377 360.933,33.527 361.694,32.42 C362.529,31.206 363.225,30.164 362.822,28.629 C362.578,27.699 361.378,27.218 360.512,27.34 C356.804,27.861 355.303,31.585 354.119,34.735 C352.818,38.198 352.756,41.334 353.498,44.91 C353.966,47.16 357.435,44.811 357.413,43.178 L357.413,43.178 Z" id="Shape"></path>
                </g>
            </g>
        </g>
    </g>
</svg>