<?xml version="1.0" encoding="UTF-8" standalone="no"?><!DOCTYPE svg PUBLIC "-//W3C//DTD SVG 1.1//EN" "http://www.w3.org/Graphics/SVG/1.1/DTD/svg11.dtd"><svg width="100%" height="100%" viewBox="0 0 441 434" version="1.1" xmlns="http://www.w3.org/2000/svg" xmlns:xlink="http://www.w3.org/1999/xlink" xml:space="preserve" style="fill-rule:evenodd;clip-rule:evenodd;stroke-linejoin:round;stroke-miterlimit:1.41421;"><g id="garlic"><path d="M194.249,34.425c4.062,-1.137 8.137,-2.119 12.355,-2.423c1.81,-0.13 3.857,-0.171 5.527,0.634c-0.795,-0.383 0.104,0.591 0.563,1.141c0.313,0.344 0.7,0.556 1.158,0.636c-0.979,-0.147 -0.145,0.091 0.239,0.265c0.795,0.36 1.631,0.063 2.27,-0.472c0.428,-0.357 1.708,-2.459 1.045,-1.407c0.726,-1.15 1.122,-2.678 0.111,-3.83c-1.388,-1.582 -4.765,-1.981 -6.696,-2.036c-5.448,-0.154 -12.695,0.771 -17.317,3.906c-1.676,1.135 -2.062,4.371 0.745,3.586Z" style="fill:#010101;fill-rule:nonzero;"/><path d="M193.958,33.147c-4.511,29.906 3.708,59.875 6.52,89.539c1.365,14.397 1.033,28.442 -2.224,42.571c-2.909,12.621 -7.982,24.572 -13.449,36.264c-5.501,11.767 -11.361,23.349 -16.425,35.314c-5.058,11.948 -8,24.709 -9.891,37.51c-3.83,25.949 -2.575,52.954 6.84,77.597c6.596,17.262 19.288,31.903 33.092,43.85c13.786,11.931 30.319,23.063 47.663,29.021c4.158,1.429 9.113,-4.923 6.47,-8.478c-1.688,-2.268 -4.058,-3.508 -6.333,-5.106c-3.436,-2.412 -9.288,3.692 -6.53,7.007c1.22,1.467 2.908,2.865 3.849,4.534c2.711,-2.379 5.422,-4.758 8.133,-7.136c-11.523,-5.6 -22.754,-10.887 -33.38,-18.162c-10.872,-7.444 -20.735,-16.378 -29.184,-26.487c-17.082,-20.438 -23.09,-46.083 -23.471,-72.243c-0.199,-13.719 1.391,-27.427 4.334,-40.813c2.83,-12.876 7.931,-24.981 13.229,-37.007c10.218,-23.186 21.542,-46.142 24.072,-71.707c1.896,-19.172 -1.604,-38.572 -4.791,-57.422c-3.333,-19.717 -5.936,-39.171 -5.738,-59.208c0.017,-1.711 -2.605,-0.645 -2.786,0.562Z" style="fill:#010101;fill-rule:nonzero;"/><path d="M217.621,38.264c-0.449,15.609 2.462,31.072 5.504,46.34c2.898,14.561 6.342,29.173 10.724,43.362c7.463,24.167 23.479,44.309 39.579,63.306c17.359,20.485 33.98,40.706 46.046,64.888c12.961,25.979 20.499,54.563 19.569,83.698c-0.771,24.158 -11.532,47.141 -29.854,63.127c-6.822,5.953 -14.491,10.992 -22.521,15.154c-6.035,3.128 -15.398,7.62 -21.808,3.243c-4.626,-3.16 -12.282,5.692 -7.049,9.305c7.346,5.071 17.468,2.308 25.016,-0.788c9.865,-4.046 18.858,-10.045 27.259,-16.549c18.739,-14.507 33.103,-37.011 37.256,-60.391c4.896,-27.569 -1.006,-57.128 -10.818,-82.943c-9.641,-25.356 -24.42,-48.271 -41.825,-68.949c-17.983,-21.362 -37.87,-41.542 -49.953,-67.069c-6.89,-14.556 -10.589,-30.959 -14.509,-46.508c-4.167,-16.53 -6.876,-33.385 -11.218,-49.844c-0.219,-0.826 -1.381,0.063 -1.398,0.618Z" style="fill:#010101;fill-rule:nonzero;"/><path d="M184.08,59.137c-2.282,14.301 -2.39,28.689 -5.387,42.912c-2.983,14.165 -8.61,27.368 -15.843,39.858c-13.457,23.243 -32.022,42.875 -49.039,63.47c-16.264,19.683 -30.159,40.775 -39.255,64.734c-8.62,22.706 -13.744,47.932 -9.465,72.142c2.38,13.463 8.145,25.925 17.257,36.151c9.689,10.877 22.625,18.89 35.183,26.004c13.485,7.643 27.404,15.44 42.521,19.273c6.824,1.729 14.418,2.284 21.366,0.99c2.896,-0.539 5.729,-1.323 8.559,-2.139c1.408,-0.405 2.815,-0.813 4.211,-1.259c2.183,-0.698 1.704,0.147 -0.249,-0.754c4.931,2.276 12.255,-6.454 6.798,-8.975c-3.122,-1.441 -7.056,0.009 -10.146,0.905c-5.704,1.654 -10.939,2.834 -16.938,2.473c-14.318,-0.863 -27.366,-8.266 -39.753,-14.839c-21.828,-11.587 -44.975,-24.783 -54.667,-48.794c-9.246,-22.904 -5.093,-49.501 1.981,-72.376c7.564,-24.463 20.91,-46.031 36.747,-65.956c17.761,-22.344 38.022,-43.085 52.018,-68.176c7.296,-13.08 12.575,-26.911 15.276,-41.657c2.618,-14.289 3.812,-30.159 1.364,-44.505c-0.262,-1.524 -2.355,-0.634 -2.539,0.518Z" style="fill:#010101;fill-rule:nonzero;"/><path d="M157.669,138.275c-14.897,12.739 -29.943,24.551 -46.357,35.291c-16.038,10.494 -32.602,20.181 -48.222,31.306c-15.323,10.914 -29.679,23.497 -40.679,38.863c-11.979,16.736 -19.021,36.323 -21.601,56.674c-3.945,31.113 7.69,59.842 31.121,80.526c20.795,18.358 50.291,30.429 78.318,27.169c5.454,-0.635 9.581,-10.703 2.172,-10.139c-40.71,3.105 -83.173,-23.216 -97.446,-61.676c-7.601,-20.479 -4.779,-44.008 2.608,-64.164c6.463,-17.635 17.786,-32.702 31.483,-45.379c16.998,-15.733 36.917,-27.839 56.062,-40.703c19.397,-13.035 40.643,-27.03 54.122,-46.516c0.878,-1.265 -0.506,-2.171 -1.581,-1.252Z" style="fill:#010101;fill-rule:nonzero;"/><path d="M171.692,35.972c2.152,5.511 5.208,10.605 7.3,16.164c2.158,5.731 1.516,12.598 4.601,17.893c0.882,1.515 2.722,0.497 3.381,-0.688c6.396,-11.522 -2.697,-28.949 -12.495,-35.813c-1.276,-0.894 -3.298,1.135 -2.787,2.444Z" style="fill:#010101;fill-rule:nonzero;"/><path d="M171.167,36.581c3.381,1.211 6.537,1.896 9.63,3.853c3.093,1.955 5.026,5.458 8.637,6.52c1.17,0.344 2.734,-0.94 2.879,-2.076c1.205,-9.396 -12.974,-13.285 -20.063,-11.445c-0.964,0.247 -2.713,2.564 -1.083,3.148Z" style="fill:#010101;fill-rule:nonzero;"/><path d="M195.391,288.338c-0.258,6.64 -0.968,13.057 -0.721,19.728c0.258,6.944 1.344,13.948 2.521,20.787c2.248,13.07 5.763,25.774 10.414,38.185c9.59,25.59 26.818,46.925 48.323,63.496c3.823,2.947 11.409,-4.69 7.718,-8.278c-1.74,-1.691 -3.027,-2.72 -5.391,-3.291c-3.521,-0.853 -6.736,3.21 -6.009,6.401c0.448,1.968 1.388,3.019 2.779,4.451c2.572,-2.76 5.146,-5.52 7.718,-8.279c-21.582,-14.229 -36.609,-35.775 -47.677,-58.754c-5.546,-11.515 -9.419,-24.011 -12.127,-36.475c-1.425,-6.558 -2.409,-13.207 -3.202,-19.868c-0.739,-6.21 -2.164,-12.466 -2.457,-18.708c-0.057,-1.253 -1.853,-0.325 -1.889,0.605Z" style="fill:#010101;fill-rule:nonzero;"/><path d="M126.327,297.358c-0.403,12.984 -0.435,25.644 2.727,38.328c3.175,12.742 8.645,24.84 15.648,35.919c6.082,9.62 14.095,17.857 22.721,25.206c8.793,7.491 18.499,14.928 28.472,20.768c2.294,-3.028 4.589,-6.059 6.884,-9.086c-1.575,-0.571 -3.105,-0.758 -4.749,-1.051c-2.867,-0.512 -6.313,2.709 -5.301,5.649c0.647,1.88 1.542,3.317 3.166,4.485c4.464,3.213 11.731,-5.287 6.884,-9.086c-8.561,-6.709 -18.106,-12.218 -26.791,-18.811c-8.353,-6.341 -15.94,-13.691 -22.407,-21.95c-15.82,-20.206 -24.208,-45.485 -25.234,-71.02c-0.055,-1.325 -1.989,-0.352 -2.02,0.649Z" style="fill:#010101;fill-rule:nonzero;"/><path d="M118.294,365.629c6.907,17.122 19.982,29.322 35.36,39.117c6.941,4.42 14.497,7.977 22.071,11.158c4.907,2.063 18.291,7.771 17.898,-2.772c-0.041,-1.113 -0.671,-2.351 -1.725,-2.836c-5.079,-2.347 -10.619,-3.819 -15.803,-5.968c-6.806,-2.82 -13.41,-6.114 -19.878,-9.634c-13.348,-7.26 -27.861,-16.941 -35.841,-30.254c-0.662,-1.107 -2.522,0.1 -2.082,1.189Z" style="fill:#010101;fill-rule:nonzero;"/><path d="M281.574,323.47c4.598,12.578 3.316,28.284 1.959,41.343c-0.747,7.184 -1.736,14.487 -4.137,21.335c-0.901,2.569 -2.03,5.106 -3.602,7.336c-1.307,1.854 -3.482,2.536 -4.991,4.644c-2.039,2.848 -1.245,6.318 2.563,6.433c6.472,0.193 11.142,-9.112 13.041,-14.309c2.738,-7.487 3.595,-15.507 3.97,-23.421c0.679,-14.284 -0.993,-31.149 -7.278,-44.229c-0.417,-0.867 -1.812,0.08 -1.525,0.868Z" style="fill:#010101;fill-rule:nonzero;"/><path d="M313.159,349.413c1.201,11.947 -3.677,26.271 -13.542,33.617c-6.19,4.609 1.732,11.449 6.428,5.098c-2.334,0.774 -4.668,1.551 -7,2.326c2.142,1.647 5.736,-0.617 7,-2.326c8.866,-11.998 13.187,-24.942 9.414,-39.731c-0.325,-1.275 -2.401,0.001 -2.3,1.016Z" style="fill:#010101;fill-rule:nonzero;"/><path d="M42.554,335.48c2.29,8.329 4.398,15.931 8.947,23.394c4.195,6.886 9.234,12.912 15.375,18.146c13.074,11.148 28.416,19.596 42.946,28.652c1.535,-3.244 3.069,-6.487 4.604,-9.73c-2.332,0.458 -4.104,1.118 -6.122,2.397c-1.451,0.92 -3.463,3.498 -1.806,5.185c1.36,1.385 2.563,2.118 4.464,2.544c4.606,1.033 10.972,-6.507 5.885,-9.671c-27.245,-16.945 -58.205,-31.086 -72.731,-61.808c-0.43,-0.912 -1.783,0.087 -1.562,0.891Z" style="fill:#010101;fill-rule:nonzero;"/><path d="M370.494,298.514c1.646,6.051 0.051,13.129 -0.945,19.183c-0.984,5.986 -2.655,11.854 -4.342,17.674c-2.121,7.313 -4.57,14.31 -7.936,21.163c-3.489,7.105 -7.653,14.114 -13.229,19.797c-2.281,2.324 -4.727,4.313 -7.576,5.887c-2.995,1.652 -6.233,1.322 -9.371,2.363c-2.779,0.925 -7.396,6.666 -3.006,8.74c7.479,3.531 17.75,-3.33 23.214,-7.955c7.437,-6.295 12.808,-15.057 17.177,-23.645c4.131,-8.119 7.191,-17.083 8.824,-26.045c1.172,-6.442 2.558,-12.778 2.947,-19.334c0.418,-7.008 -1.89,-12.338 -4.073,-18.787c-0.341,-1.004 -1.923,0.084 -1.684,0.959Z" style="fill:#010101;fill-rule:nonzero;"/><path d="M300.611,152.992c22.052,11.229 45.557,19.406 67.209,31.422c20.813,11.548 40.378,28.279 52.151,49.229c9.941,17.69 12.814,37.73 8.104,57.454c-2.483,10.4 -7.182,20.394 -12.804,29.451c-2.992,4.82 -6.303,9.517 -9.729,14.036c-3.721,4.905 -8.732,9.428 -11.354,15.016c-1.104,2.354 1.216,3.431 3.127,2.512c5.539,-2.663 9.971,-8.062 14.005,-12.598c4.196,-4.72 8.045,-9.597 11.518,-14.878c6.473,-9.848 11.435,-20.451 14.634,-31.797c5.752,-20.399 3.401,-42.173 -6.024,-61.073c-11.048,-22.151 -31.102,-39.484 -52.342,-51.529c-23.989,-13.602 -51.282,-19.924 -77.044,-29.157c-1.02,-0.366 -2.655,1.298 -1.451,1.912Z" style="fill:#010101;fill-rule:nonzero;"/><path d="M247.885,121.411c2.354,0 3.956,-4.211 0.901,-4.211c-2.353,0.001 -3.954,4.211 -0.901,4.211Z" style="fill:#010101;fill-rule:nonzero;"/><path d="M199.482,26.861c1.232,-3.693 2.064,-7.463 3.452,-11.124c1.465,-3.862 3.72,-7.492 5.749,-11.078c-1.372,0.988 -2.744,1.979 -4.116,2.968c4.667,-0.025 9.33,-0.214 13.997,-0.238c4.898,-0.025 10.104,0.869 14.884,-0.304c1.229,-0.302 3.06,-2.507 1.778,-3.708c-3.032,-2.839 -7.582,-2.941 -11.567,-3.101c-5.852,-0.231 -11.7,0.124 -17.553,0.166c-1.809,0.014 -3.298,1.518 -4.116,2.969c-3.868,6.86 -9.328,16.69 -6.742,24.814c0.77,2.424 3.801,-0.065 4.234,-1.364Z" style="fill:#010101;fill-rule:nonzero;"/><path d="M242.957,8.603c-18.098,15.059 -18.754,40.357 -14.841,61.836c2.15,11.807 5.968,23.312 10.75,34.3c2.191,5.034 4.742,9.884 7.611,14.564c2.345,3.827 4.735,7.938 8.563,10.442c1.495,0.979 3.692,-1.263 3.159,-2.773c-1.35,-3.823 -3.831,-7.115 -5.778,-10.645c-2.326,-4.217 -4.404,-8.567 -6.418,-12.939c-4.713,-10.231 -8.293,-21 -10.784,-31.98c-4.55,-20.062 -6.188,-45.668 8.638,-62.093c0.605,-0.669 -0.313,-1.202 -0.9,-0.712Z" style="fill:#010101;fill-rule:nonzero;"/><path d="M265.596,135.684c6.59,7.812 15.337,14.017 23.517,20.062c8.079,5.971 16.282,11.771 24.317,17.804c15.594,11.705 30.47,24.041 43.021,39.049c14.222,17.002 24.068,36.905 30.743,57.957c3.895,12.285 7.398,25.225 7.646,38.172c0.23,12.07 -2.974,24.016 -8.075,34.874c-7.302,15.54 -19.563,27.195 -32.109,38.521c-2.723,2.459 -0.844,5.916 2.613,4.357c22.128,-9.969 37.278,-33.328 44.098,-55.896c7.363,-24.373 1.003,-49.098 -7.454,-72.312c-7.307,-20.059 -18.21,-38.834 -32.438,-54.774c-12.807,-14.35 -28.193,-26.385 -43.997,-37.247c-7.968,-5.478 -16.051,-10.792 -24.148,-16.075c-8.54,-5.571 -17.146,-11.613 -26.409,-15.913c-0.73,-0.339 -1.933,0.701 -1.325,1.421Z" style="fill:#010101;fill-rule:nonzero;"/></g></svg>