<?xml version="1.0" encoding="UTF-8"?>
<svg width="295px" height="525px" viewBox="0 0 295 525" version="1.1" xmlns="http://www.w3.org/2000/svg" xmlns:xlink="http://www.w3.org/1999/xlink">
    <!-- Generator: Sketch 41 (35326) - http://www.bohemiancoding.com/sketch -->
    <title>girl</title>
    <desc>Created with Sketch.</desc>
    <defs></defs>
    <g id="Page-1" stroke="none" stroke-width="1" fill="none" fill-rule="evenodd">
        <g id="Layer_1" transform="translate(-2860.000000, -3383.000000)" fill="#010101">
            <g id="Layer_1_3_">
                <g id="girl" transform="translate(2860.000000, 3383.000000)">
                    <path d="M129.439,82.418 C113.486,80.897 98.672,90.63 87.593,101.218 C73.857,114.346 63.902,131.108 56.718,148.579 C43.37,181.039 36.809,223.051 58.97,253.137 C74.009,273.555 98.673,286.901 122.967,292.645 C147.517,298.449 171.104,292.105 191.093,277.326 C200.286,270.526 209.029,262.253 214.961,252.418 C220.137,243.838 223.291,234.189 225.265,224.404 C229.627,202.769 227.903,180.051 223.015,158.676 C219.373,142.758 213.181,127.876 203.58,114.64 C192.07,98.771 175.797,80.948 154.958,79.815 C151.725,79.64 145.882,84.882 150.348,87.389 C171.34,99.172 189.879,115.07 200.853,136.926 C210.331,155.801 214.306,177.482 214.907,198.447 C215.46,217.725 212.742,239.583 200.185,255.032 C185.363,273.268 162.522,284.732 138.956,282.743 C113.683,280.608 88.333,266.903 71.733,247.97 C59.749,234.299 55.488,217.953 55.495,200.04 C55.503,181.128 60.34,162.109 67.741,144.799 C74.881,128.103 85.091,111.966 99.006,100.112 C107.649,92.752 117.909,87.873 128.876,85.038 C129.837,84.791 131.049,82.572 129.439,82.418 L129.439,82.418 Z" id="Shape"></path>
                    <path d="M135.971,55.24 C129.622,57.883 124.421,62.859 122.829,69.738 C121.487,75.535 125.593,80.642 130.293,83.465 C137.538,87.815 145.861,84.044 150.858,78.198 C155.269,73.039 157.47,64.795 153.28,58.915 C147.636,50.995 131.271,53.967 125.895,60.179 C125.169,61.017 124.765,63.085 126.129,63.612 C132.332,66.006 139.499,60.469 145.351,64.63 C147.876,66.425 147.053,70.712 145.414,73.679 C144.862,74.678 143.303,76.181 142.26,76.79 C141.08,77.479 139.638,77.79 137.445,77.278 C134.643,76.627 132.184,74.241 130.424,72.111 C126.58,67.461 132.889,59.208 136.381,56.298 C136.848,55.908 136.716,54.93 135.971,55.24 L135.971,55.24 Z" id="Shape"></path>
                    <path d="M152.81,61.061 C161.456,53.246 169.836,44.999 179.509,38.435 C189.724,31.503 201.129,26.832 212.855,23.119 C224.349,19.476 236.866,17.705 248.924,18.423 C252.735,18.65 256.543,18.952 260.352,19.203 C263.697,19.423 267.457,19.841 270.09,17.29 C271.652,15.775 272.97,13.265 271.377,11.276 C270.603,10.308 269.189,10.124 268.053,10.344 C266.271,10.691 264.377,11.887 264.059,13.849 C264.548,13.14 265.038,12.431 265.526,11.722 C266.922,11.264 268.318,10.806 269.714,10.348 C267.688,9.714 264.686,10.837 262.176,10.902 C258.113,11.008 254.036,10.63 249.975,10.597 C236.749,10.493 223.353,12.898 210.827,17.04 C187.219,24.847 164.801,38.446 151.364,59.912 C150.636,61.07 151.814,61.963 152.81,61.061 L152.81,61.061 Z" id="Shape"></path>
                    <path d="M129.509,58.053 C128.976,52.588 124.415,48.182 121.077,44.094 C116.619,38.632 111.988,33.372 106.75,28.641 C99.57,22.16 91.713,16.584 83.2,11.986 C67.991,3.771 42.439,-6.496 26.559,5.467 C23.214,7.987 24.538,13.538 29.157,12.144 C37.201,9.716 43.837,9.091 52.197,10.787 C61.8,12.733 70.913,16.767 79.487,21.412 C87.676,25.847 95.231,31.092 102.217,37.245 C106.622,41.124 110.655,45.439 114.615,49.765 C118.193,53.672 121.762,58.913 127.189,60.088 C128.267,60.319 129.616,59.163 129.509,58.053 L129.509,58.053 Z" id="Shape"></path>
                    <path d="M29.088,10.923 C16.701,22.876 11.082,38.478 8.642,55.317 C8.068,59.281 7.922,63.271 7.585,67.255 C7.188,71.957 8.301,73.176 12.168,75.655 C18.21,79.531 25.193,81.883 32.072,83.767 C48.277,88.209 65.54,89.063 82.261,88.753 C97.155,88.478 112.232,87.284 125.853,80.946 C127.506,80.177 128.049,77.128 125.644,77.217 C89.024,78.583 47.754,86.378 14.833,65.417 C15.339,66.25 15.846,67.083 16.352,67.916 C14.984,58.405 16.333,48.612 18.518,39.316 C20.67,30.16 24.471,19.436 30.874,12.338 C32.044,11.045 30.221,9.831 29.088,10.923 L29.088,10.923 Z" id="Shape"></path>
                    <path d="M262.715,15.398 C265.584,19.58 267.821,24.877 270.127,29.43 C272.67,34.45 274.584,39.835 276.11,45.243 C279.017,55.526 280.282,67.313 276.698,77.585 C278.776,76.374 280.853,75.164 282.93,73.953 C281.827,73.762 280.722,73.599 279.612,73.467 C277.58,73.194 274.437,75.232 274.896,77.606 C275.386,80.137 275.729,80.862 277.777,82.421 C280.098,84.189 284.197,81.332 285.008,79.135 C289.236,67.687 288.003,55.053 284.737,43.519 C282.948,37.201 280.273,31.193 276.902,25.568 C275.395,23.054 273.751,20.822 271.78,18.655 C269.517,16.168 267.286,15.124 264.585,13.39 C263.53,12.711 262.032,14.403 262.715,15.398 L262.715,15.398 Z" id="Shape"></path>
                    <path d="M151.524,76.944 C154.599,83.867 165.382,86.49 171.994,87.97 C181.89,90.185 192.143,90.71 202.251,90.93 C228.046,91.491 253.264,92.469 278.39,85.371 C282.552,84.194 285.329,76.097 279.133,76.499 C274.854,76.776 270.747,78.269 268.174,81.837 C267.462,82.823 267.179,84.321 268.394,85.055 C271.028,86.643 274.27,85.787 277.18,85.614 C277.428,82.657 277.675,79.7 277.923,76.742 C254.23,83.558 230.652,83.402 206.262,83.767 C196.615,83.913 186.929,83.903 177.337,82.759 C172.969,82.238 168.62,81.405 164.39,80.202 C160.327,79.046 156.555,76.944 152.518,75.885 C152.013,75.755 151.296,76.429 151.524,76.944 L151.524,76.944 Z" id="Shape"></path>
                    <path d="M128.359,82.585 C118.518,88.649 110.976,97.081 106.046,107.572 C103.534,112.917 102.181,118.656 101.777,124.526 C101.446,129.359 101.791,136.298 105.881,139.497 C107.023,140.39 109.06,138.737 109.183,137.578 C109.66,133.092 107.94,128.555 107.853,124.004 C107.752,118.719 109.195,113.384 111.154,108.525 C114.886,99.272 121.694,90.71 129.611,84.671 C130.966,83.642 129.933,81.616 128.359,82.585 L128.359,82.585 Z" id="Shape"></path>
                    <path d="M139.053,86.627 C134.699,86.708 130.657,91.287 128.641,94.764 C125.978,99.352 125.047,104.43 124.953,109.686 C124.794,118.618 128.876,133.092 138.962,135.5 C139.931,135.73 141.517,134.401 140.971,133.358 C139.306,130.176 137.21,127.295 135.615,124.04 C133.585,119.897 132.398,115.464 131.806,110.905 C131.275,106.809 131.633,102.723 132.829,98.78 C134.158,94.396 137.329,92.336 139.975,88.941 C140.73,87.976 140.413,86.602 139.053,86.627 L139.053,86.627 Z" id="Shape"></path>
                    <path d="M148.578,87.757 C143.647,94.784 141.7,103.849 143.474,112.263 C145.243,120.656 150.633,131.543 159.329,134.39 C160.877,134.897 163.01,132.68 162.354,131.165 C160.982,127.987 158.537,125.537 156.417,122.836 C153.746,119.432 151.735,115.704 150.274,111.642 C147.426,103.729 148.622,96.046 150.7,88.157 C151.075,86.746 149.13,86.97 148.578,87.757 L148.578,87.757 Z" id="Shape"></path>
                    <path d="M118.986,163.384 C115.349,168.655 110.842,179.362 114.173,185.639 C115.834,188.769 120.092,188.673 122.73,186.879 C126.314,184.441 127.775,180.191 128.475,176.09 C129.371,170.853 128.758,155.92 119.51,160.689 C111.37,164.886 110.761,178.317 116.226,184.969 C118.175,187.341 121.514,185.176 123.02,183.557 C127.611,178.622 128.925,171.082 125.794,165.043 C124.068,161.719 120.21,163.547 118.317,165.647 C114.14,170.288 109.28,186.815 118.726,188.619 C120.055,188.873 121.427,187.879 121.976,186.724 C124.733,180.931 120.17,174.525 124.9,169.205 C122.408,169.406 119.918,169.608 117.425,169.809 C119.308,173.37 119.274,176.962 116.6,180.085 C118.865,179.613 121.129,179.144 123.394,178.673 C122.119,177.285 121.534,175.227 121.171,173.413 C120.922,172.169 120.865,170.903 120.869,169.64 C120.877,167.869 122.407,167.11 120.367,167.519 C119.59,167.675 119.784,167.173 120.209,168.013 C120.574,168.741 120.767,169.566 120.9,170.362 C121.3,172.716 121.189,175.159 120.819,177.504 C120.674,178.421 120.466,179.362 120.145,180.235 C119.889,180.933 118.874,181.921 120.012,181.129 C120.6,180.719 120.647,181.228 120.427,180.841 C119.859,179.84 119.818,178.593 119.737,177.48 C119.432,173.262 119.832,167.849 120.884,163.742 C121.209,162.483 119.48,162.669 118.986,163.384 L118.986,163.384 Z" id="Shape"></path>
                    <path d="M140.56,163.273 C134.453,168.908 135.576,183.162 141.636,188.376 C143.574,190.042 146.673,189.147 148.015,187.051 C150.591,183.025 151.791,178 152.656,173.352 C153.47,168.977 154.344,161.805 149.482,159.376 C143.472,156.371 137.759,162.88 136.887,168.233 C136.083,173.171 137.152,179.969 139.743,184.307 C141.828,187.797 146.847,185.893 148.193,182.586 C149.822,178.579 151.396,174.829 150.514,170.446 C149.462,165.216 143.589,167.998 141.767,171.154 C139.531,175.029 138.703,179.099 140.733,183.228 C141.804,185.408 144.755,183.926 145.517,182.253 C146.968,179.066 148.214,175.689 150.033,172.694 C147.187,173.274 144.345,173.853 141.5,174.432 C141.994,176.785 140.855,178.929 140.011,181.057 C142.652,180.191 145.292,179.326 147.933,178.459 C146.987,176.91 146.021,173.117 145.644,170.726 C145.398,169.168 145.314,167.594 145.642,166.049 C145.544,166.504 144.056,166.448 144.548,167.695 C146.291,172.112 143.677,180.769 141.406,184.749 C143.491,183.801 145.577,182.853 147.662,181.905 C142.42,177.961 143.784,169.534 143.884,163.922 C143.917,162.066 141.458,162.444 140.56,163.273 L140.56,163.273 Z" id="Shape"></path>
                    <path d="M82.23,210.45 C82.494,209.057 81.625,208.386 80.343,208.332 C79.705,208.305 79.127,208.605 78.565,208.86 C78.486,208.9 78.407,208.939 78.328,208.979 C78.752,208.814 78.585,208.892 77.827,209.212 C77.605,209.355 77.386,209.501 77.163,209.643 C77.881,209.497 78.598,209.351 79.315,209.205 C77.943,208.824 76.743,209.528 75.686,210.315 C73.767,211.746 73.499,216.195 76.832,215.641 C78.309,215.396 79.733,215.026 81.178,214.635 C82.272,214.339 83.666,213.726 84.756,213.753 C84.975,211.131 85.194,208.509 85.415,205.887 C84.475,206.171 83.552,206.442 82.598,206.679 C81.744,206.891 80.928,207.107 80.143,207.532 C79.624,207.789 79.144,208.106 78.702,208.484 C77.895,209.497 77.656,209.722 77.986,209.164 C76.238,210.641 75.542,213.924 78.333,214.636 C80.773,215.26 84.434,214.648 86.903,213.063 C88.677,211.925 90.501,209.69 89.632,207.427 C88.842,205.364 85.952,205.219 84.34,206.363 C83.376,207.047 81.951,207.423 80.811,207.875 C79.351,208.453 77.903,209.025 76.5,209.734 C77.683,211.082 78.864,212.428 80.047,213.776 C80.838,212.722 81.13,211.64 80.762,210.369 C80.568,211.273 80.374,212.179 80.18,213.084 C80.395,212.797 80.634,212.535 80.822,212.23 C81.047,211.966 81.052,211.951 80.843,212.185 C82.684,210.301 79.511,213.408 78.507,212.122 C79.642,213.572 81.982,211.76 82.23,210.45 L82.23,210.45 Z" id="Shape"></path>
                    <path d="M180.875,205.332 C181.082,206.278 181.59,207.064 182.063,207.903 C182.621,208.886 183.201,209.979 183.949,210.842 C185.096,212.166 187.144,211.858 188.5,211.085 C190.17,210.132 191.17,208.538 191.268,206.637 C191.313,205.768 191.135,204.978 190.573,204.288 C189.962,203.538 188.889,203.305 187.97,203.379 C187.238,203.45 186.553,203.67 185.916,204.04 C185.575,204.194 185.801,204.099 186.59,203.748 C184.133,204.416 181.211,208.146 183.325,210.556 C185.388,212.906 189.609,210.619 190.5,208.203 C190.519,208.152 190.536,208.101 190.556,208.052 C190.086,208.666 189.618,209.28 189.15,209.894 C188.889,210.08 188.629,210.264 188.368,210.449 C187.682,210.671 186.999,210.89 186.313,211.11 C186.334,211.109 186.355,211.108 186.376,211.107 C185.528,210.805 184.683,210.503 183.835,210.201 C183.098,209.496 183.246,208.163 183.309,209.19 C185.747,207.789 188.187,206.387 190.626,204.985 C189.124,203.633 187.593,201.955 185.813,201 C184.599,200.349 183.075,200.93 182.119,201.769 C181.038,202.715 180.574,203.942 180.875,205.332 L180.875,205.332 Z" id="Shape"></path>
                    <path d="M81.58,211.943 C81.919,220.255 92.239,226.297 98.981,228.964 C108.567,232.756 119.112,233.185 129.276,232.448 C140.336,231.648 151.33,229.108 161.795,225.505 C170.352,222.559 179.611,218.797 186.669,212.984 C190.101,210.158 187.618,205.332 183.43,207.584 C181.145,208.813 178.962,210.335 176.807,211.783 C175.533,212.639 174.663,215.184 176.995,215.156 C179.585,215.126 182.344,214.997 184.775,214.073 C184.326,211.911 183.878,209.747 183.428,207.584 C168.301,217.502 150.983,223.314 133.032,225.522 C123.469,226.698 113.548,226.624 104.189,224.159 C99.997,223.055 96.062,221.15 92.538,218.64 C89.241,216.294 87.127,212.54 83.815,210.336 C82.865,209.704 81.542,211.012 81.58,211.943 L81.58,211.943 Z" id="Shape"></path>
                    <path d="M54.441,163.292 C49.84,163.91 45.847,161.629 41.546,160.4 C36.56,158.976 31.942,160.416 27.88,163.394 C18.771,170.077 16.428,181.202 22.232,190.847 C27.707,199.945 37.844,200.021 47.012,197.916 C50.278,197.166 54.305,196.032 55.923,192.801 C57.616,189.416 54.066,188.188 51.509,189.564 C50.25,190.242 48.829,192.38 50.066,193.71 C50.466,194.189 50.402,193.935 49.876,192.942 C50.358,191.935 50.842,190.928 51.324,189.921 C53.651,188.984 54.004,188.721 52.383,189.13 C52.068,189.223 51.757,189.328 51.449,189.444 C50.479,189.792 49.491,190.107 48.509,190.413 C45.772,191.261 42.946,191.677 40.092,191.832 C32.964,192.22 27.467,185.934 26.444,179.259 C25.898,175.703 27.129,172.206 29.614,169.652 C32.994,166.182 36.307,166.382 40.595,167.592 C45.769,169.053 51.672,170.629 55.256,165.335 C55.781,164.559 55.739,163.118 54.441,163.292 L54.441,163.292 Z" id="Shape"></path>
                    <path d="M222.344,163.019 C224.953,161.107 226.435,159.226 229.727,158.293 C233.05,157.352 236.787,157.744 240.07,158.596 C247.085,160.416 251.513,168.521 250.89,175.422 C250.293,182.038 246,187.67 240.928,191.63 C238.554,193.484 235.532,194.787 232.574,195.294 C229.321,195.852 226.313,194.416 223.126,195.255 C221.492,195.685 219.605,197.892 220.378,199.669 C222.132,203.69 228.361,203.143 231.964,202.5 C236.844,201.629 241.114,199.246 245.055,196.33 C252.9,190.521 258.445,180.722 258.173,170.874 C257.895,160.69 249.491,152.869 239.777,151.705 C234.93,151.124 230.117,152.174 225.817,154.413 C222.983,155.889 219.148,159.382 219.963,162.892 C220.229,164.042 221.782,163.43 222.344,163.019 L222.344,163.019 Z" id="Shape"></path>
                    <path d="M232.24,173.87 C232.929,175.235 233.357,176.817 233.481,178.348 C233.573,179.491 232.788,179.716 231.994,180.563 C231.223,181.389 230.527,182.282 230.592,183.488 C230.659,184.771 231.801,185.619 233.052,185.472 C236.727,185.044 239.823,181.759 239.913,178.016 C239.994,174.692 238.048,172.695 235.344,171.146 C233.963,170.356 231.469,172.343 232.24,173.87 L232.24,173.87 Z" id="Shape"></path>
                    <path d="M38.366,176.583 C36.874,178.485 35.158,180.479 34.84,182.974 C34.713,183.968 34.871,184.966 35.842,185.492 C38.333,186.841 42.098,187.164 43.956,184.574 C44.71,183.523 44.843,181.8 43.521,181.084 C42.474,180.517 41.146,180.383 40.036,179.955 C40.391,180.54 40.748,181.125 41.102,181.71 C41.022,180.142 41.158,178.711 41.528,177.181 C42.053,175.017 39.226,175.486 38.366,176.583 L38.366,176.583 Z" id="Shape"></path>
                    <path d="M46.219,196.983 C41.517,204.837 19.316,250.648 7.282,229.293 C7.031,230.465 6.78,231.636 6.529,232.808 C6.698,232.62 6.868,232.43 7.038,232.24 C5.529,232.926 4.021,233.611 2.514,234.297 C0.729,233.698 2.986,234.931 3.202,235.059 C4.223,235.658 5.7,235.372 6.65,234.78 C6.861,234.649 7.072,234.518 7.283,234.386 C8.278,233.767 9.322,232.608 9.185,231.33 C9.023,229.819 8.206,228.02 6.707,227.404 C4.848,226.639 2.463,227.457 1.369,229.177 C1.236,229.386 1.103,229.595 0.972,229.804 C0.159,231.083 -0.452,232.696 0.646,234.03 C4.593,238.822 9.197,242.185 15.687,240.851 C21.916,239.57 26.875,234.96 31.046,230.439 C36.068,224.994 40.013,218.531 43.32,211.935 C45.434,207.72 48.523,201.77 47.736,196.861 C47.587,195.925 46.526,196.47 46.219,196.983 L46.219,196.983 Z" id="Shape"></path>
                    <path d="M49.365,217.005 C46.944,228.27 30.912,279.505 13.251,260.884 C12.247,262.979 11.241,265.072 10.237,267.167 C9.855,267.247 11.946,267.633 12.298,267.598 C13.281,267.499 14.337,266.799 14.712,265.859 C15.493,263.891 15.51,262.429 14.309,260.657 C13.567,259.563 11.982,259.761 10.916,259.994 C10.564,260.068 10.213,260.144 9.861,260.222 C7.632,260.704 4.838,264.415 6.848,266.505 C18.683,278.806 32.129,268.276 39.547,256.876 C44.106,249.869 47.477,242.006 49.907,234.024 C51.573,228.554 53.653,221.908 51.674,216.262 C51.241,215.029 49.542,216.189 49.365,217.005 L49.365,217.005 Z" id="Shape"></path>
                    <path d="M221.915,206.55 C220.718,221.438 231.306,231.934 245.409,234.986 C259.837,238.107 274.9,231.812 281.535,218.441 C283.076,215.336 279.714,212.998 277.005,214.803 C274.653,216.372 273.032,217.939 272.234,220.698 C271.777,222.276 273.386,223.04 274.675,222.669 C276.294,222.202 277.78,221.534 279.307,220.818 C277.796,219.605 276.286,218.393 274.777,217.18 C264.387,238.715 225.994,228.629 224.636,205.679 C224.525,203.834 222.018,205.266 221.915,206.55 L221.915,206.55 Z" id="Shape"></path>
                    <path d="M220.158,226.915 C214.935,242.934 234.843,251.663 247.128,254.828 C260.331,258.229 282.118,260.73 292.848,249.889 C294.585,248.131 295.676,244.731 292.467,243.864 C288.452,242.779 284.786,242.913 281.036,244.724 C279.617,245.409 278.673,247.62 280.191,248.665 C282.786,250.451 286.07,250.353 289.036,251.139 C288.909,249.13 288.782,247.122 288.655,245.114 C284.964,248.877 278.842,249.524 273.861,249.941 C266.313,250.571 258.699,249.82 251.306,248.258 C240.283,245.93 223.213,240.127 222.82,226.377 C222.77,224.594 220.472,225.955 220.158,226.915 L220.158,226.915 Z" id="Shape"></path>
                    <path d="M215.318,247.635 C208.092,268.814 247.6,274.562 261.247,271.614 C264.714,270.865 266.544,263.833 261.837,264.58 C259.69,264.921 257.79,265.173 256.156,266.706 C255.477,267.343 254.722,268.515 255.185,269.492 C256.024,271.263 257.549,271.444 259.377,271.765 C260.195,269.369 261.016,266.974 261.834,264.578 C253.274,265.111 244.996,264.708 236.6,262.748 C229.599,261.113 216.834,256.898 218.633,247.364 C219.095,244.924 215.849,246.08 215.318,247.635 L215.318,247.635 Z" id="Shape"></path>
                    <path d="M158.041,66.919 C168.766,62.068 178.27,56.094 190.07,53.766 C195.489,52.697 201.497,52.262 206.796,54.12 C209.282,54.993 214.038,56.255 215.055,59.099 C214.851,58.526 215.226,58.604 214.435,59.26 C213.409,60.111 211.97,60.646 210.747,61.139 C207.133,62.597 203.272,63.513 199.476,64.345 C192.335,65.909 185.007,65.917 177.86,67.182 C176.115,67.491 173.898,69.872 175.89,71.344 C179.29,73.857 183.555,73.395 187.585,73.062 C192.966,72.618 198.352,71.508 203.567,70.149 C209.347,68.644 222.448,64.718 221.626,56.62 C221.219,52.593 216.386,50.66 213.188,49.394 C206.914,46.913 200.637,46.578 193.99,47.498 C186.516,48.534 179.31,51.086 172.471,54.192 C166.906,56.72 160.232,60.127 156.511,65.173 C155.55,66.477 156.709,67.52 158.041,66.919 L158.041,66.919 Z" id="Shape"></path>
                    <path d="M119.023,61.728 C112.365,59.031 106.176,55.876 99.951,52.289 C94.515,49.155 88.994,46.336 82.652,45.98 C75.012,45.553 63.032,46.074 59.822,54.662 C56.02,64.833 67.488,69.5 75.26,70.66 C84.229,71.998 97.24,72.523 105.211,67.582 C106.502,66.781 107.831,64.101 105.537,63.597 C98.914,62.142 91.423,64.033 84.625,63.956 C80.526,63.91 76.385,63.433 72.442,62.295 C69.808,61.535 65.213,58.689 66.475,55.204 C67.214,53.165 72.342,52.952 74.037,52.771 C77.538,52.4 81.272,52.365 84.696,53.229 C95.909,56.057 105.513,66.123 117.696,64.53 C118.647,64.406 120.626,62.378 119.023,61.728 L119.023,61.728 Z" id="Shape"></path>
                    <path d="M88.528,287.303 C80.613,293.221 75.769,304.946 71.924,313.718 C67.267,324.348 63.805,335.484 60.928,346.713 C55.362,368.442 52.668,391.151 52.453,413.567 C56.207,412.364 59.96,411.162 63.713,409.959 C63.71,406.97 63.294,404.541 60.635,402.869 C58.771,401.694 56.367,403.291 55.196,404.676 C52.945,407.337 52.459,410.166 52.454,413.569 C52.446,420.73 63.736,415.804 63.714,409.96 C63.631,388.9 66.209,367.981 70.617,347.406 C72.959,336.481 76.054,325.681 79.983,315.221 C81.818,310.336 83.894,305.527 86.164,300.827 C88.065,296.889 90.682,292.693 91.702,288.432 C92.222,286.265 89.658,286.458 88.528,287.303 L88.528,287.303 Z" id="Shape"></path>
                    <path d="M195.119,281.008 C197.995,291.226 202.848,300.759 207.247,310.377 C212.104,321 216.821,331.684 220.956,342.611 C225.063,353.473 228.56,364.595 231.052,375.942 C232.292,381.591 233.067,387.359 233.622,393.112 C234.122,398.27 233.241,404.084 234.796,409.015 C236.774,406.451 238.749,403.885 240.727,401.321 C240.068,401.332 239.414,401.401 238.765,401.533 C237.026,401.77 235.231,403.095 234.911,404.916 C234.736,405.907 234.634,406.871 234.561,407.875 C234.407,410.059 236.758,411.301 238.623,411.149 C241.636,410.905 243.811,408.555 244.685,405.83 C246.289,400.821 245.283,394.691 244.814,389.525 C244.32,384.069 243.314,378.692 242.197,373.336 C239.725,361.482 235.778,349.968 231.184,338.785 C226.763,328.022 221.687,317.509 216.254,307.223 C211.03,297.334 205.789,287.162 198.73,278.432 C197.338,276.719 194.646,279.323 195.119,281.008 L195.119,281.008 Z" id="Shape"></path>
                    <path d="M52.213,415.538 C52.044,426.997 71.582,431.143 79.91,432.862 C93.923,435.755 108.52,436.15 122.788,436.126 C141.294,436.094 159.423,434.858 177.586,431.102 C199.076,426.657 219.903,419.737 240.739,412.946 C245.582,411.369 249.091,402.199 241.623,402.4 C236.916,402.527 232.041,403.184 228.06,405.873 C225.69,407.474 222.879,412.627 227.427,413.599 C231.303,414.428 235.384,413.346 239.3,413.238 C239.595,409.722 239.889,406.208 240.183,402.692 C221.014,408.952 201.86,415.322 182.174,419.79 C164.252,423.855 146.198,425.258 127.866,425.359 C114.943,425.431 102.053,425.385 89.183,424.046 C82.692,423.369 76.215,422.205 69.975,420.275 C64.704,418.643 60.484,415.01 55.41,413.241 C53.897,412.709 52.236,413.926 52.213,415.538 L52.213,415.538 Z" id="Shape"></path>
                    <path d="M91.007,429.4 C80.198,455.411 95.092,482.585 97.957,508.754 C99.788,507.148 101.618,505.541 103.449,503.935 C93.418,501.211 74.884,505.868 83.711,519.299 C87.989,525.811 96.525,525.464 103.309,524.272 C107.151,523.596 110.907,522.512 114.631,521.368 C117.128,520.598 121.296,520.057 122.777,517.651 C124.448,514.935 123.394,511.665 119.732,512.642 C117.974,513.112 116.71,513.753 115.272,514.852 C114.355,515.553 113.417,517.545 114.484,518.529 C115.936,519.866 117.176,520.008 119.135,519.766 C118.444,518.032 117.753,516.296 117.062,514.562 C117.05,514.579 117.04,514.593 117.028,514.609 C117.92,513.969 118.809,513.329 119.7,512.688 C111.768,515.094 102.708,519.064 94.331,517.045 C92.064,516.498 90.477,514.371 89.435,512.441 C89.211,512.028 89.154,510.473 88.71,511.17 C88.411,511.639 89.457,510.987 89.718,510.902 C92.907,509.857 96.865,510.345 100.054,511.14 C102.535,511.759 105.882,508.893 105.547,506.321 C103.904,493.746 100.072,481.715 96.782,469.508 C93.217,456.279 91.884,442.943 92.584,429.27 C92.631,428.314 91.228,428.87 91.007,429.4 L91.007,429.4 Z" id="Shape"></path>
                    <path d="M108.037,432.153 C103.827,438.749 104.041,446.932 104.639,454.493 C105.335,463.288 106.728,472.145 107.805,480.911 C108.278,484.751 108.922,488.559 109.777,492.335 C110.379,494.984 112.322,497.318 113.841,499.523 C115.668,502.172 117.539,504.791 119.009,507.662 C119.47,508.564 119.907,509.558 120.044,510.568 C121.808,508.957 121.979,508.482 120.558,509.141 C119.604,509.471 118.889,510.052 118.14,510.703 C117.01,511.684 116.306,513.391 117.282,514.709 C121.179,519.972 128.268,511.964 127.649,507.431 C126.809,501.276 121.379,495.717 118.107,490.7 C115.681,486.979 115.566,481.221 114.933,476.926 C114.214,472.053 113.809,467.11 112.744,462.294 C110.532,452.306 110.083,442.401 109.706,432.237 C109.668,431.295 108.382,431.611 108.037,432.153 L108.037,432.153 Z" id="Shape"></path>
                    <path d="M188.625,422.63 C186.819,429.174 187.146,436.138 187.168,442.873 C187.189,449.972 187.471,457.078 187.922,464.162 C188.83,478.447 190.557,492.651 192.914,506.767 C194.767,505.143 196.616,503.518 198.469,501.894 C186.14,498.636 172.028,506.923 173.906,520.77 C174.087,522.104 174.757,522.812 176.029,523.19 C188.398,526.854 200.632,521.342 213.025,523.198 C212.636,521.457 212.249,519.717 211.859,517.975 C212.648,516.994 210.867,518.094 210.514,518.247 C209.31,518.771 208.59,519.479 207.721,520.439 C206.929,521.311 206.633,523.32 207.957,523.903 C211.977,525.674 214.853,524.382 217.642,521.098 C219,519.498 219.057,516.261 216.476,515.875 C204.095,514.026 191.69,519.496 179.472,515.883 C180.179,516.69 180.887,517.496 181.595,518.303 C180.428,509.733 187.849,507.315 195.033,509.179 C197.443,509.804 201.065,506.888 200.587,504.306 C197.989,490.295 196.036,476.177 194.676,461.993 C194.005,455.005 193.444,448.005 193.01,440.997 C192.617,434.684 192.847,427.967 190.848,421.911 C190.439,420.684 188.827,421.9 188.625,422.63 L188.625,422.63 Z" id="Shape"></path>
                    <path d="M209.614,419.327 C202.152,436.683 204.431,457.966 208.216,476.083 C210.501,487.022 213.462,497.587 215.052,508.667 C215.445,511.407 216.29,514.063 216.809,516.776 C216.899,517.276 216.966,517.778 217.009,518.284 C217.259,520.585 221.268,516.839 219.356,516.511 C217.069,516.116 215.148,515.585 212.789,515.344 C210.896,515.151 208.481,517.353 209.814,519.24 C212.041,522.391 214.311,523.931 218.252,524.013 C221.069,524.072 224.067,521.277 224.531,518.572 C225.031,515.656 224.226,512.812 223.547,509.989 C222.381,505.152 222.11,500.194 221.095,495.321 C215.998,470.897 207.023,444.745 211.996,419.438 C212.315,417.808 210.071,418.264 209.614,419.327 L209.614,419.327 Z" id="Shape"></path>
                    <path d="M92.792,280.166 C84.067,274.62 69.679,281.6 62.241,286.557 C52.065,293.34 43.848,303.513 38.815,314.62 C37.998,316.426 37.866,319.411 40.097,320.361 C44.005,322.028 47.985,323.507 51.989,324.925 C55.591,326.199 59.786,328.288 63.625,328.512 C66.07,328.654 68.732,327.749 70.128,325.558 C74.129,319.27 66.503,317.467 62.226,316.101 C57.219,314.5 52.261,312.729 47.405,310.716 C47.833,312.63 48.259,314.544 48.687,316.458 C52.397,307.542 57.479,300.029 65.024,293.912 C68.74,290.898 73.166,288.599 77.639,286.962 C82.26,285.271 87.279,284.82 91.829,282.967 C92.8,282.571 94.105,281 92.792,280.166 L92.792,280.166 Z" id="Shape"></path>
                    <path d="M192.374,274.358 C196.395,276.033 200.531,276.98 204.407,279.051 C209.011,281.512 213.081,284.71 216.815,288.342 C224.078,295.405 230.102,304.631 232.46,314.555 C234.133,311.867 235.806,309.179 237.479,306.492 C232.436,308.536 227.659,311.119 222.708,313.362 C219.439,314.842 217.796,318.999 219.71,321.969 C221.099,324.121 224.376,323.114 226.13,322.312 C230.134,320.483 233.991,318.343 238.026,316.584 C241.233,315.186 244.069,312.289 243.046,308.521 C240.015,297.374 232.468,287.726 223.806,280.317 C216.126,273.75 204.033,266.673 193.652,270.647 C192.583,271.057 190.409,273.541 192.374,274.358 L192.374,274.358 Z" id="Shape"></path>
                    <path d="M51.212,319.13 C42.545,323.859 36.103,332.188 30.71,340.256 C24.486,349.565 20.976,359.36 16.871,369.629 C18.872,368.187 20.873,366.744 22.873,365.302 C21.119,365.341 19.375,365.828 17.67,366.216 C16.875,366.404 16.08,366.594 15.284,366.782 C13.146,367.291 13.396,366.576 15.363,368.189 C14.818,370.73 14.274,373.272 13.729,375.814 C14.229,375.41 14.735,375.015 15.249,374.626 C19.493,371.404 17.562,365.454 12.135,366.622 C10.378,367 8.991,367.637 7.591,368.816 C4.92,371.067 3.989,374.922 6.941,377.224 C10.262,379.814 17.056,376.249 20.629,375.773 C24.025,375.32 27.301,372.414 27.2,368.79 C26.971,360.458 32.754,350.951 36.763,343.987 C41.435,335.873 47.479,328.716 53.078,321.255 C54.208,319.753 52.835,318.245 51.212,319.13 L51.212,319.13 Z" id="Shape"></path>
                    <path d="M17.118,377.234 C15.285,380.549 13.784,384.025 12.474,387.577 C11.652,389.809 8.146,396.173 12.894,396.781 C15.122,397.067 17.503,395.427 18.318,393.361 C19.056,391.491 18.722,390.172 18.833,388.358 C19.053,384.734 19.731,380.93 20.54,377.394 C21.095,374.954 17.854,375.902 17.118,377.234 L17.118,377.234 Z" id="Shape"></path>
                    <path d="M25.801,381.176 C24.138,384.391 23.112,387.39 22.835,391.021 C22.566,394.542 23.1,399.206 27.051,400.146 C29.932,400.833 32.336,397.852 32.549,395.323 C32.738,393.047 30.887,390.874 30.069,388.759 C29.233,386.595 29.377,383.579 29.885,381.368 C30.545,378.493 26.657,379.52 25.801,381.176 L25.801,381.176 Z" id="Shape"></path>
                    <path d="M236.269,323.84 C244.147,335.103 250.571,347.115 259.457,357.705 C266.992,366.684 277.274,376.557 289.982,373.805 C288.594,373.533 287.207,373.261 285.82,372.989 C285.905,373.131 285.99,373.269 286.075,373.41 C287.303,370.85 288.528,368.294 289.757,365.734 C287.643,366.547 286.16,367.714 284.739,369.454 C283.929,370.444 283.709,372.158 284.973,372.887 C286.033,373.494 286.648,374.142 287.896,374.409 C291.152,375.108 296.068,370.924 294.434,367.441 C294.364,367.292 294.292,367.14 294.223,366.991 C293.587,365.637 292.241,364.827 290.716,365.035 C279.749,366.53 270.278,356.209 263.568,348.907 C255.255,339.862 248.008,329.865 239.233,321.239 C237.816,319.845 235.148,322.238 236.269,323.84 L236.269,323.84 Z" id="Shape"></path>
                    <path d="M267.984,378.023 C266.802,381.161 266.1,385.132 267.2,388.386 C267.702,389.871 268.755,390.855 269.95,391.778 C272.173,393.493 275.307,392.195 277.149,390.674 C278.337,389.693 278.963,388.148 278.551,386.652 C278.191,385.347 277.32,384.723 276.168,384.173 C275.092,383.657 275.351,384.041 274.642,383.072 C274.998,383.558 274.395,382.49 274.401,382.506 C274.224,382.108 274.076,381.655 274.012,381.229 C273.828,380.005 273.935,378.775 273.84,377.548 C273.576,374.116 268.822,375.796 267.984,378.023 L267.984,378.023 Z" id="Shape"></path>
                    <path d="M279.887,379.602 C280.2,380.268 280.325,381.122 280.565,381.832 C280.915,382.875 281.331,383.888 281.794,384.889 C282.71,386.869 283.22,389.08 285.169,390.308 C287.426,391.73 290.839,389.086 291.184,386.814 C291.6,384.058 290.184,382.108 288.359,380.204 C287.576,379.387 286.646,378.567 285.65,378.024 C284.789,377.554 283.903,377.26 283.048,376.831 C281.608,376.102 279.125,377.986 279.887,379.602 L279.887,379.602 Z" id="Shape"></path>
                    <path d="M108.354,285.087 C100.974,291.41 105.229,304.064 110.633,310.008 C117.398,317.448 127.945,321.078 137.699,322.112 C147.884,323.19 158.475,321.308 166.68,314.92 C175.98,307.678 177.183,295.757 174.424,285.052 C174.114,283.853 172.628,283.345 171.542,283.444 C168.283,283.744 165.6,284.773 163.096,286.87 C161.23,288.432 161.2,291.652 164.127,291.657 C166.132,291.662 167.963,291.034 169.956,290.85 C168.995,290.314 168.033,289.778 167.073,289.242 C169.015,296.755 168.861,305.754 161.856,310.6 C155.314,315.127 146.465,315.685 138.808,314.768 C130.684,313.795 122.239,310.793 116.19,305.13 C113.599,302.704 111.587,299.632 110.49,296.256 C109.333,292.693 110.742,288.509 109.439,285.147 C109.259,284.671 108.646,284.837 108.354,285.087 L108.354,285.087 Z" id="Shape"></path>
                    <path d="M55.696,332.521 C47.5,335.578 42.146,342.922 37.836,350.214 C35.158,354.74 33.195,359.712 31.415,364.646 C30.143,368.171 28.047,372.708 29.138,376.459 C29.549,377.871 31.464,376.91 32.022,376.226 C34.029,373.766 34.798,370.535 35.759,367.554 C37.147,363.25 38.727,359.045 40.609,354.933 C44.355,346.745 49.609,340.129 56.363,334.237 C57.109,333.585 56.928,332.062 55.696,332.521 L55.696,332.521 Z" id="Shape"></path>
                    <path d="M234.973,333.982 C237.609,341.108 242.349,347.244 246.947,353.208 C251.94,359.686 255.776,366.965 260.79,373.385 C261.475,374.262 262.999,373.048 262.9,372.172 C262.04,364.418 257.165,358.277 252.308,352.484 C246.885,346.015 241.259,339.89 236.435,332.938 C235.946,332.234 234.72,333.3 234.973,333.982 L234.973,333.982 Z" id="Shape"></path>
                    <path d="M128.852,202.408 C130.886,201.864 133.148,201.738 134.792,200.283 C135.461,199.691 135.986,198.817 135.938,197.894 C135.881,196.828 134.952,196.179 133.929,196.273 C133.202,196.339 132.615,196.544 131.964,196.865 C131.777,196.96 131.591,197.051 131.401,197.136 C131.831,196.934 130.974,197.314 130.996,197.305 C129.751,197.83 128.719,198.463 127.627,199.256 C125.98,200.455 126.705,202.983 128.852,202.408 L128.852,202.408 Z" id="Shape"></path>
                </g>
            </g>
        </g>
    </g>
</svg>