<?xml version="1.0" encoding="UTF-8"?>
<svg width="526px" height="437px" viewBox="0 0 526 437" version="1.1" xmlns="http://www.w3.org/2000/svg" xmlns:xlink="http://www.w3.org/1999/xlink">
    <!-- Generator: Sketch 41 (35326) - http://www.bohemiancoding.com/sketch -->
    <title>glue</title>
    <desc>Created with Sketch.</desc>
    <defs></defs>
    <g id="Page-1" stroke="none" stroke-width="1" fill="none" fill-rule="evenodd">
        <g id="Layer_1" transform="translate(-4253.000000, -83.000000)" fill="#000000">
            <g id="Layer_1_3_">
                <g id="glue" transform="translate(4253.000000, 83.000000)">
                    <path d="M137.449,258.497 C138.364,257.259 139.235,256.078 140.305,254.958 C139.295,255.289 138.285,255.62 137.276,255.951 C148.16,259.159 154.244,267.837 157.577,278.329 C158.665,281.756 158.811,285.558 158.807,289.121 C158.805,289.888 159.276,294.526 159.053,291.916 C159.38,295.747 164.052,301.11 169.964,292.29 C170.807,291.032 171.234,289.969 171.626,288.503 C172.506,285.221 169.994,280.809 169.015,277.757 C167.923,274.355 166.379,271.142 164.702,268.007 C160.214,259.622 149.881,248.42 139.266,250.134 C137.604,250.403 136.008,251.566 135.657,253.302 C135.219,255.46 134.518,256.919 135.735,258.853 C136.127,259.477 137.155,258.895 137.449,258.497 L137.449,258.497 Z" id="Shape"></path>
                    <path d="M136.301,252.196 C142.757,250.718 148.645,246.016 154.145,242.515 C158.401,239.806 162.801,237.424 167.228,235.022 C170.411,233.295 173.618,231.195 176.987,229.876 C178.297,229.363 179.615,228.876 180.956,228.456 C182.155,228.08 183.572,227.221 184.509,226.398 C184.655,226.27 188.569,221.474 186.142,224.486 C184.852,225.413 183.563,226.34 182.273,227.266 C182.315,227.248 182.357,227.23 182.398,227.212 C181.11,227.149 179.821,227.087 178.533,227.024 C178.053,226.475 177.573,225.925 177.094,225.376 C178.26,227.93 181.522,228.119 183.698,226.704 C187.2,224.428 189.818,217.69 183.891,216.591 C179.17,215.716 173.699,221.003 169.924,223.242 C165.664,225.77 161.324,228.175 157.096,230.753 C149.491,235.392 140.478,240.652 134.344,247.159 C132.256,249.374 132.514,253.062 136.301,252.196 L136.301,252.196 Z" id="Shape"></path>
                    <path d="M166.048,297.16 C169.111,298.508 173.335,296.966 176.349,296.125 C181.936,294.565 187.307,292.493 192.691,290.349 C198.26,288.13 203.758,285.698 209.211,283.205 C213.819,281.098 216.553,280.643 220.331,277.797 C226.263,273.33 221.688,264.39 214.864,268.682 C214.083,269.174 213.337,269.72 212.61,270.289 C211.987,270.78 211.433,271.344 210.948,271.979 C212.573,270.659 212.841,270.359 211.751,271.079 C209.824,272.263 207.82,273.268 205.79,274.259 C200.843,276.672 195.805,278.889 190.779,281.132 C185.71,283.396 180.619,285.592 175.635,288.045 C172.234,289.72 168.444,291.243 165.838,294.086 C165.131,294.856 164.876,296.644 166.048,297.16 L166.048,297.16 Z" id="Shape"></path>
                    <path d="M176.959,220.897 C188.756,214.568 201.815,227.128 208.477,236.09 C216.715,247.173 220.237,261.548 220.005,275.186 C223.206,272.376 226.407,269.567 229.609,266.757 C229.661,266.901 229.713,267.043 229.765,267.187 C225.334,263.23 215.748,269.536 218.617,275.145 C219.499,276.87 220.378,278.143 222.24,278.865 C227.242,280.803 233.479,276.401 233.272,270.932 C232.608,253.387 226.463,234.709 213.117,222.711 C207.097,217.3 199.203,212.653 191.134,211.384 C185.173,210.446 176.106,213.311 175.587,220.396 C175.532,221.159 176.516,221.135 176.959,220.897 L176.959,220.897 Z" id="Shape"></path>
                    <path d="M178.604,182.866 C176.416,188.351 175.528,193.987 174.901,199.831 C174.534,203.247 174.208,206.66 173.65,210.051 C173.195,212.818 172.053,214.239 171.354,216.777 C169.657,222.936 177.667,220.939 180.004,218.408 C183.35,214.786 182.364,206.616 182.238,201.867 C182.07,195.529 180.499,188.968 180.795,182.689 C180.857,181.366 178.905,182.113 178.604,182.866 L178.604,182.866 Z" id="Shape"></path>
                    <path d="M212.741,277.725 C223.028,286.713 236.288,291.54 247.054,299.791 C249.056,296.501 251.058,293.212 253.06,289.922 C249.213,288.692 245.606,289.079 243.572,292.973 C242.807,294.438 242.902,296.078 243.852,297.405 C244.977,298.973 246.282,299.932 248.218,300.196 C253.601,300.928 259.959,291.98 253.06,289.923 C240.061,286.046 228.968,277.073 215.653,273.907 C214.047,273.526 211.06,276.257 212.741,277.725 L212.741,277.725 Z" id="Shape"></path>
                    <path d="M179.928,184.814 C188.405,179.37 195.64,178.676 204.677,183.738 C216.411,190.311 225.579,201.671 233.011,212.622 C241.282,224.809 247.788,238.586 251.461,252.865 C253.063,259.094 253.815,265.587 253.453,272.013 C253.129,277.781 250.655,281.574 248.795,286.156 C246.495,291.821 252.728,293.858 256.598,290.431 C267.259,280.993 265.585,262.825 262.822,250.434 C259.256,234.446 251.295,219.431 241.921,206.126 C233.551,194.247 222.903,182.436 209.62,176.023 C199.74,171.253 186.466,170.664 180.03,181.148 C179.414,182.15 179.043,183.017 178.711,184.133 C178.487,184.887 179.413,185.146 179.928,184.814 L179.928,184.814 Z" id="Shape"></path>
                    <path d="M184.384,178.048 C212.655,152.946 247.989,137.981 278.478,115.985 C294.545,104.392 309.657,91.543 325.233,79.311 C340.801,67.085 357.342,54.499 375.919,47.22 C375.25,43.992 374.58,40.765 373.911,37.538 C370.223,39.493 366.341,40.365 363.3,43.392 C360.393,46.287 361.039,50.961 365.851,49.948 C369.897,49.095 373.73,48.702 377.369,46.579 C383.543,42.978 381.32,33.7 373.912,37.538 C337.224,56.542 308.082,85.309 275.016,109.52 C259.403,120.951 242.521,130.445 225.973,140.42 C209.619,150.276 193.205,160.564 180.247,174.765 C177.484,177.792 181.706,180.426 184.384,178.048 L184.384,178.048 Z" id="Shape"></path>
                    <path d="M252.187,300.169 C256.257,299.477 259.72,297.414 263.391,295.599 C268.377,293.131 273.252,290.449 278.143,287.801 C288.052,282.436 298.002,277.147 307.937,271.828 C327.27,261.477 346.281,250.643 365.29,239.721 C384.788,228.518 404.065,216.935 423.522,205.661 C442.76,194.515 462.303,182.453 482.906,173.98 C487.199,172.214 491.173,163.706 483.754,163.858 C480.782,163.919 478.191,165.189 475.428,166.147 C472.338,167.219 468.936,172.863 473.715,174.142 C476.392,174.859 478.815,174.664 481.526,174.258 C481.348,171.088 481.17,167.918 480.992,164.748 C461.596,175.839 441.67,185.978 422.355,197.252 C402.908,208.603 383.667,220.303 364.214,231.646 C345.257,242.7 326.249,253.597 306.998,264.134 C297.097,269.553 287.177,274.938 277.289,280.381 C268.608,285.16 257.722,289.741 250.991,297.168 C250.029,298.231 250.423,300.469 252.187,300.169 L252.187,300.169 Z" id="Shape"></path>
                    <path d="M381.677,28.177 C386.921,39.764 396.432,49.518 404.363,59.342 C413.226,70.322 422.005,81.376 430.69,92.496 C447.534,114.064 464.054,135.914 479.827,158.282 C482.7,155.199 485.573,152.117 488.446,149.034 C486.249,147.523 484.301,146.138 481.575,145.952 C478.624,145.752 473.898,148.881 475.516,152.408 C476.789,155.181 478.17,157.488 480.832,159.082 C485.664,161.976 492.848,154.431 489.451,149.834 C473.2,127.838 456.624,106.098 439.388,84.861 C430.904,74.407 422.275,64.08 413.475,53.89 C404.869,43.923 396.276,32.312 385.002,25.257 C383.5,24.318 380.948,26.567 381.677,28.177 L381.677,28.177 Z" id="Shape"></path>
                    <path d="M405.818,7.658 C409.822,14.201 413.816,20.168 418.62,26.203 C423.776,32.679 429.143,38.991 434.423,45.367 C444.267,57.255 454.395,68.855 463.286,81.491 C479.95,105.175 494.054,130.775 514.757,151.345 C517.671,148.218 520.587,145.09 523.501,141.962 C520.105,140.547 517.197,139.966 513.521,139.95 C510.296,139.935 506.918,144.339 509.055,147.205 C510.893,149.671 513.087,150.795 515.779,152.157 C520.391,154.49 529.014,147.023 524.523,142.774 C503.758,123.128 489.457,98.292 473.076,75.149 C464.211,62.622 454.011,51.129 443.909,39.597 C438.459,33.375 432.902,27.188 427.19,21.205 C424.585,18.476 422.005,15.722 419.405,12.989 C416.336,9.763 412.822,7.343 409.462,4.462 C407.588,2.856 404.56,5.602 405.818,7.658 L405.818,7.658 Z" id="Shape"></path>
                    <path d="M409.496,0.41 C401.653,2.846 394.007,6.587 387.144,11.083 C383.265,13.624 379.709,16.491 377.3,20.508 C375.604,23.338 374.094,28.535 377.123,31.021 C380.477,33.773 386.425,30.971 386.915,26.631 C387.197,24.128 386.557,23.467 388.099,21.582 C389.991,19.269 392.741,17.514 395.203,15.878 C400.555,12.322 406.621,9.428 411.232,4.874 C413.066,3.064 412.823,-0.624 409.496,0.41 L409.496,0.41 Z" id="Shape"></path>
                    <path d="M487.434,159.316 C490.127,165.291 497.692,167.965 503.869,166.055 C511.579,163.671 517.234,157.663 522.008,151.42 C526.47,145.584 519.371,140.848 514.455,145.43 C512.559,147.198 511.046,149.148 510.135,151.592 C509.803,152.484 509.585,154.067 510.785,154.507 C513.403,155.465 515.165,155.055 517.927,154.354 C516.375,151.802 514.823,149.25 513.272,146.698 C510.704,150.232 508.059,153.538 504.216,155.726 C499.82,158.229 495.298,156.341 490.675,155.863 C489.072,155.698 486.6,157.465 487.434,159.316 L487.434,159.316 Z" id="Shape"></path>
                    <path d="M412.583,13.022 C407.421,14.855 402.598,18.217 397.891,20.975 C393.943,23.288 388.128,26.024 385.802,30.163 C384.621,32.264 387.07,33.623 388.799,32.57 C392.844,30.106 396.544,26.77 400.537,24.135 C404.913,21.248 410.067,18.573 413.495,14.521 C414.12,13.783 413.586,12.666 412.583,13.022 L412.583,13.022 Z" id="Shape"></path>
                    <path d="M415.555,18.517 C410.547,20.268 406.048,23.816 401.595,26.625 C399.407,28.005 396.545,29.096 394.609,30.796 C393.979,31.349 393.227,31.929 392.792,32.925 C393.834,30.54 392.47,33.65 392.441,34.282 C392.208,39.616 401.743,32.738 402.819,31.966 C407.53,28.582 412.33,25.082 416.567,21.115 C417.651,20.1 417.463,17.85 415.555,18.517 L415.555,18.517 Z" id="Shape"></path>
                    <path d="M440.57,40.784 C436.173,42.072 431.917,44.286 427.957,46.551 C424.449,48.557 419.753,50.871 417.49,54.382 C416.844,55.384 416.092,57.138 417.198,58.165 C420.292,61.034 424.85,54.51 427.104,52.765 C431.676,49.224 436.76,46.377 441.407,42.935 C442.5,42.124 442.049,40.35 440.57,40.784 L440.57,40.784 Z" id="Shape"></path>
                    <path d="M444.542,47.265 C437.024,49.953 429.395,54.156 422.588,58.309 C418.903,60.557 420.192,66.211 424.692,63.809 C431.867,59.98 439.42,55.445 445.719,50.288 C447.109,49.15 446.682,46.5 444.542,47.265 L444.542,47.265 Z" id="Shape"></path>
                    <path d="M470.554,80.489 C468.137,80.988 465.726,82.635 463.579,83.789 C460.302,85.551 457.038,87.337 453.827,89.221 C451.346,90.678 441.703,95.179 444.137,99.237 C445.207,101.02 447.782,100.055 448.468,98.355 C447.564,100.594 445.115,100.285 447.662,99.634 C448.924,99.312 449.833,98.495 450.832,97.719 C453.234,95.855 455.795,94.194 458.304,92.482 C462.685,89.493 468.401,86.776 471.934,82.759 C473.021,81.523 471.995,80.192 470.554,80.489 L470.554,80.489 Z" id="Shape"></path>
                    <path d="M471.542,89.251 C468.015,90.41 464.859,92.665 461.755,94.657 C458.06,97.028 454.259,99.277 450.7,101.849 C447.362,104.263 449.95,109.213 453.72,106.883 C457.066,104.815 460.165,102.3 463.319,99.953 C466.699,97.438 470.332,95.037 473.132,91.866 C474.28,90.564 473.259,88.686 471.542,89.251 L471.542,89.251 Z" id="Shape"></path>
                    <path d="M497.029,121.463 C489.274,126.827 481.295,131.849 473.562,137.242 C470.046,139.694 471.057,145.476 475.716,142.877 C477.12,142.094 478.443,141.27 479.709,140.28 C480.681,139.521 480.932,138.137 479.936,137.347 C478.36,136.096 476.346,136.175 474.465,136.843 C475.168,138.65 475.87,140.457 476.573,142.264 C484.004,136.388 492.076,131.09 498.734,124.308 C500.233,122.783 499.23,119.94 497.029,121.463 L497.029,121.463 Z" id="Shape"></path>
                    <path d="M503.535,129.125 C495.984,132.348 488.579,136.907 481.494,141.063 C477.415,143.457 478.954,149.745 483.785,147.055 C490.982,143.048 499.135,138.433 504.803,132.385 C505.952,131.159 505.998,128.073 503.535,129.125 L503.535,129.125 Z" id="Shape"></path>
                    <path d="M131.199,264.96 C141.154,269.874 149.924,280.733 150.895,292.259 C151.334,297.481 160.332,293.079 158.211,289.023 C155.191,283.249 153.407,277.215 149.62,271.772 C145.984,266.545 140.097,261.735 133.611,260.995 C131.889,260.798 128.863,263.807 131.199,264.96 L131.199,264.96 Z" id="Shape"></path>
                    <path d="M25.221,339.966 C24.106,340.69 23.494,341.154 22.979,342.391 C22.697,343.07 22.622,343.791 23.107,344.4 C23.245,344.573 23.382,344.746 23.52,344.919 C24.785,343.562 26.05,342.204 27.315,340.848 C26.588,340.506 25.852,340.226 25.084,339.995 C25.409,341.453 25.735,342.91 26.061,344.368 C32.039,336.409 38.414,329.743 46.247,323.534 C55.021,316.579 64.486,310.528 73.806,304.344 C82.129,298.821 90.121,292.926 98.044,286.845 C106.926,280.027 118.302,270.179 129.854,268.733 C130.053,266.35 130.253,263.966 130.453,261.584 C126.491,262.851 122.343,263.645 118.973,266.158 C117.577,267.199 116.702,270.728 119.276,270.959 C123.125,271.304 127.191,269.699 130.831,268.537 C135.08,267.179 135.575,259.629 130.454,261.584 C119.047,265.939 109.27,271.204 99.399,278.475 C89.774,285.565 80.436,292.892 70.472,299.517 C60.96,305.84 51.422,312.13 42.411,319.163 C34.435,325.388 25.073,333.11 20.753,342.522 C19.679,344.864 21.454,346.593 23.801,345.996 C24.471,345.825 25.118,345.599 25.767,345.36 C27.906,344.575 29.542,340.659 26.163,340.631 C25.92,340.629 25.678,340.627 25.434,340.625 C25.989,340.936 26.543,341.244 27.098,341.555 C27.06,341.354 27.023,341.153 26.986,340.951 C27.148,339.892 26.065,339.42 25.221,339.966 L25.221,339.966 Z" id="Shape"></path>
                    <path d="M25.236,346.94 C35.922,346.421 46.873,342.763 57.092,339.843 C68.789,336.501 80.299,332.447 91.623,328.009 C113.894,319.28 134.838,308.222 154.781,295.046 C158.635,292.499 157.466,286.483 152.496,289.071 C148.672,291.063 144.692,291.725 142.473,295.654 C141.916,296.637 142.284,298.203 143.556,298.356 C147.256,298.804 151.662,296.967 154.782,295.045 C153.718,293.27 152.653,291.495 151.589,289.72 C133.292,303.171 112.275,313.298 91.284,321.754 C80.501,326.099 69.496,329.796 58.422,333.317 C47.578,336.765 36.088,339.001 25.543,343.277 C24.009,343.901 22.548,347.071 25.236,346.94 L25.236,346.94 Z" id="Shape"></path>
                    <path d="M134.425,253.403 C132.683,255.938 131.192,259.932 133.146,262.738 C134.678,264.938 138.533,261.872 138.249,259.806 C137.977,257.827 136.726,255.982 137.225,253.93 C137.676,252.077 135.156,252.339 134.425,253.403 L134.425,253.403 Z" id="Shape"></path>
                    <path d="M152.375,293.78 C152.619,294.349 152.679,294.85 153.075,295.348 C153.524,295.912 154.138,296.367 154.736,296.757 C156.145,297.677 158.116,297.693 159.713,297.414 C160.986,297.191 162.167,296.34 162.452,295.01 C162.778,293.489 161.414,292.694 160.075,293.092 C158.518,293.556 155.802,293.552 154.75,292.084 C153.956,290.975 151.895,292.666 152.375,293.78 L152.375,293.78 Z" id="Shape"></path>
                    <path d="M148.709,254.348 C160.735,250.843 171.877,243.484 183.18,238.082 C187.493,236.02 191.809,233.971 196.131,231.93 C198.215,230.947 201.513,229.863 202.899,227.825 C201.561,227.36 200.225,226.895 198.887,226.429 C198.851,226.525 198.805,226.617 198.762,226.709 C198.454,227.373 198.395,228.56 199.249,228.893 C199.489,228.987 199.731,229.076 199.978,229.151 C202.099,229.799 204.986,226.092 202.685,224.704 C200.91,223.634 197.337,225.81 195.853,226.53 C191.358,228.712 186.867,230.903 182.38,233.102 C170.67,238.84 158.365,244.404 147.862,252.175 C146.756,252.995 147.213,254.785 148.709,254.348 L148.709,254.348 Z" id="Shape"></path>
                    <path d="M157.714,262.447 C167.924,259.983 177.647,255.169 187.039,250.576 C196.848,245.779 206.66,241.074 216.569,236.493 C215.949,234.87 215.328,233.249 214.708,231.626 C212.883,232.898 211.086,234.198 209.534,235.801 C208.029,237.357 208.967,240.111 211.254,238.668 C212.665,237.777 214.213,237.357 215.789,236.838 C219.175,235.722 219.56,229.687 215.488,231.281 C205.658,235.134 196.32,240.384 186.98,245.272 C177.16,250.411 167.171,255.082 157.173,259.843 C155.706,260.543 155.808,262.907 157.714,262.447 L157.714,262.447 Z" id="Shape"></path>
                    <path d="M162.692,274.041 C172.089,271.595 181.271,267.066 190.291,263.478 C199.792,259.7 209.407,256.104 218.688,251.802 C217.477,250.422 216.266,249.042 215.055,247.662 C214.1,249.176 213.559,250.48 213.039,252.188 C212.715,253.25 213.84,253.831 214.719,253.544 C216.173,253.069 217.393,252.625 218.688,251.801 C221.439,250.05 221.826,244.093 217.469,245.926 C207.684,250.043 197.966,254.363 188.255,258.655 C179.391,262.572 169.801,266.484 162.049,272.385 C161.202,273.032 161.554,274.336 162.692,274.041 L162.692,274.041 Z" id="Shape"></path>
                    <path d="M167.382,285.258 C176.54,285.481 186.182,280.991 194.325,277.258 C204.429,272.627 214.418,268.124 224.807,264.178 C228.35,262.832 229.408,256.545 224.469,257.94 C221.615,258.746 219.058,260.189 216.803,262.108 C215.97,262.817 215.775,264.699 217.324,264.525 C219.313,264.302 221.088,264.058 223.103,264.317 C223.558,262.191 224.013,260.065 224.469,257.94 C214.925,260.545 205.918,265.647 197.111,270.038 C187.433,274.863 177.429,278.573 167.577,282.924 C166.583,283.364 165.669,285.217 167.382,285.258 L167.382,285.258 Z" id="Shape"></path>
                    <path d="M381.896,88.86 C369.684,90.01 360.013,99.85 350.053,106.104 C336.645,114.523 323.018,122.65 309.207,130.394 C296.267,137.65 282.259,143.17 269.748,151.125 C262.596,155.672 249.58,164.534 251.515,174.658 C252.353,179.04 255.73,182.733 258.457,186.076 C262.553,191.096 266.609,196.139 270.654,201.201 C276.243,208.197 282.699,215.409 291.925,217.056 C303.724,219.162 315.149,210.81 324.54,205.026 C338.098,196.677 351.431,187.966 364.715,179.193 C377.754,170.582 390.634,161.69 403.837,153.334 C412.618,147.776 421.845,142.046 424.933,131.504 C430.868,111.236 403.058,89.111 384.463,93.835 C381.305,94.637 379.368,101.055 383.907,100.465 C395.174,99 406.034,106.999 412.725,115.297 C416.206,119.615 418.524,125.315 417.818,130.923 C417.123,136.44 412.287,140.291 408.035,143.258 C396.262,151.472 383.964,159.037 372.005,166.987 C358.749,175.799 345.465,184.57 332.022,193.093 C325.57,197.184 319.066,201.196 312.52,205.136 C307.387,208.226 301.312,210.836 295.204,210.101 C285.573,208.943 278.832,198.42 273.314,191.532 C269.5,186.769 265.464,182.184 261.691,177.391 C257.781,172.425 257.628,169.295 262.042,164.64 C272.323,153.795 286.84,148.988 299.654,142.027 C314.75,133.826 329.357,124.759 343.843,115.536 C356.608,107.409 368.184,97.362 382.019,91.054 C382.959,90.625 383.328,88.725 381.896,88.86 L381.896,88.86 Z" id="Shape"></path>
                    <path d="M30.42,339.081 C30.538,339.073 30.654,339.054 30.768,339.022 C30.586,338.922 30.405,338.823 30.223,338.723 C30.599,339.233 31.119,339.285 31.709,339.26 C31.411,339.203 31.112,339.148 30.814,339.091 C31.513,339.384 32.033,339.239 32.738,339.238 C32.849,339.238 33.507,339.245 32.863,339.203 C33.258,339.228 33.642,339.244 34.035,339.225 C34.213,339.216 34.801,339.258 33.996,339.205 C34.183,339.218 34.366,339.252 34.549,339.293 C35.039,339.404 33.933,339.038 34.361,339.233 C34.617,339.349 34.931,339.671 34.279,339.097 C34.448,339.245 34.627,339.626 34.17,338.83 C34.305,339.064 34.319,339.574 34.185,338.67 C34.205,338.802 34.2,338.94 34.201,339.072 C34.205,339.535 34.335,338.261 34.176,339.074 C34.085,339.537 33.959,339.991 33.855,340.45 C33.834,340.71 33.811,340.97 33.789,341.23 C33.862,340.815 33.861,340.781 33.787,341.127 C33.641,341.76 33.767,342.414 34.023,342.997 C34.002,342.612 33.98,342.228 33.959,341.844 C33.896,342.552 33.779,343.259 34.127,343.919 C34.449,344.53 35.066,344.714 35.719,344.499 C37.489,343.918 38.778,342.519 39.725,340.936 C39.364,341.41 39.002,341.883 38.641,342.356 C40.97,340.081 42.026,334.848 37.985,333.716 C36.741,333.368 35.272,333.743 34.104,334.193 C33.648,334.369 33.296,334.581 32.882,334.808 C32.75,334.876 32.624,334.955 32.506,335.046 C32.313,335.184 32.12,335.321 31.928,335.459 C32.182,335.266 32.175,335.26 31.908,335.443 C31.66,335.604 31.419,335.773 31.183,335.951 C30.706,336.44 30.599,336.56 30.859,336.312 C30.585,336.551 30.368,336.834 30.211,337.162 C29.594,338.475 30.753,336.746 30.059,337.391 C29.528,337.889 29.308,339.231 30.42,339.081 L30.42,339.081 Z" id="Shape"></path>
                    <path d="M23.645,361.874 C17.245,376.035 5.156,387.402 1.329,402.778 C-2.147,416.742 6.822,435.251 22.436,436.239 C36.911,437.155 45.224,423.165 45.595,410.354 C46.102,392.864 30.985,379.899 29.473,362.83 C29.124,358.886 24.391,360.548 22.762,362.505 C21.678,363.807 20.785,365.03 20.127,366.591 C19.38,368.365 20.664,370.545 22.777,369.611 C24.657,368.78 26.147,367.775 27.736,366.451 C25.758,366.064 23.781,365.677 21.804,365.29 C21.32,378.975 31.921,390.477 36.152,402.87 C39.521,412.741 37.481,431.148 23.07,428.499 C16.756,427.338 12.102,421.141 9.703,415.648 C6.676,408.717 7.948,401.504 10.806,394.789 C15.457,383.859 25.331,374.113 25.748,361.705 C25.792,360.405 23.956,361.187 23.645,361.874 L23.645,361.874 Z" id="Shape"></path>
                    <path d="M24.426,392.021 C23.286,391.526 22.514,391.303 21.23,391.25 C20.182,391.206 19.209,391.353 18.19,391.596 C16.608,391.973 14.993,392.884 14.051,394.24 C12.281,396.79 13.3,399.606 15.27,401.678 C19.508,406.138 28.223,408.099 32.262,402.357 C34.162,399.656 34.328,396.212 33.774,393.055 C33.581,391.952 33.11,391.419 32.043,391.082 C29.086,390.148 26.233,391.423 23.839,393.147 C23.287,393.543 22.894,394.567 23.412,395.136 C24.016,395.798 24.901,395.854 25.724,396.066 C26.543,396.277 28.062,396.686 29.237,397.037 C28.66,396.38 28.083,395.722 27.506,395.064 C27.702,396.085 27.852,397.109 27.887,398.148 C27.895,398.367 27.89,398.586 27.885,398.803 C27.869,399.518 27.961,398.192 27.887,398.872 C27.848,399.234 27.774,399.592 27.682,399.945 C27.525,400.553 27.946,399.255 27.729,399.824 C27.674,399.97 27.606,400.109 27.538,400.249 C27.275,400.787 27.998,399.548 27.676,400.039 C27.599,400.157 27.51,400.268 27.421,400.377 C27.052,400.836 28.073,399.723 27.65,400.123 C27.552,400.216 27.446,400.299 27.339,400.381 C28.229,399.691 27.86,400.013 27.612,400.159 C26.955,400.547 28.245,399.916 27.759,400.112 C27.504,400.215 27.238,400.286 26.97,400.347 C28.001,400.11 27.003,400.31 26.73,400.329 C26.505,400.345 25.474,400.299 26.389,400.353 C26.027,400.332 25.667,400.28 25.31,400.218 C24.995,400.164 24.683,400.09 24.374,400.011 C24.19,399.964 23.171,399.633 23.895,399.886 C23.221,399.651 22.571,399.354 21.938,399.026 C21.372,398.731 20.829,398.392 20.307,398.026 C20.182,397.937 20.06,397.844 19.938,397.753 C20.584,398.242 19.804,397.646 19.584,397.477 C20.175,397.929 19.338,397.253 19.188,397.111 C18.819,396.761 18.488,396.371 18.209,395.945 C18.625,396.579 18.229,395.943 18.149,395.751 C17.872,395.074 18.118,395.926 18.086,395.536 C18.044,395.023 17.941,396.126 18.101,395.479 C17.922,396.205 17.93,395.941 18.031,395.726 C18.214,395.332 17.631,396.326 17.89,395.962 C18.232,395.483 17.321,396.441 17.966,395.916 C17.213,396.528 18.091,395.876 18.37,395.742 C17.694,396.065 18.758,395.625 18.955,395.564 C19.367,395.436 19.788,395.335 20.203,395.214 C21.398,394.87 22.531,394.549 23.697,394.136 C24.334,393.913 25.523,392.498 24.426,392.021 L24.426,392.021 Z" id="Shape"></path>
                    <path d="M371.592,108.199 C367.116,110.004 363.06,113.144 358.921,115.627 C354.209,118.454 349.483,121.264 344.567,123.718 C334.121,128.931 323.911,134.712 313.591,140.182 C303.934,145.302 294.333,150.539 284.826,155.934 C279.621,158.888 272.791,160.438 269.262,165.655 C265.795,170.777 266.6,178.456 268.817,183.877 C271.524,190.494 277.706,195.239 284.159,197.817 C290.706,200.433 298.053,200.949 304.858,199.103 C309.31,197.896 313.379,194.813 317.058,192.167 C321.221,189.171 325.356,185.754 328.194,181.439 C329.583,179.328 328.705,175.549 325.471,176.961 C318.25,180.114 313.139,186.43 306.228,190.19 C300.59,193.256 293.11,192.035 287.44,189.733 C281.818,187.451 277.176,183.464 275.025,177.726 C273.952,174.866 273.669,171.16 274.061,168.136 C274.364,165.798 276.763,164.94 278.627,164.029 C294.356,156.339 309.564,147.417 324.894,138.949 C333.002,134.47 341.131,129.891 348.89,124.827 C356.434,119.903 365.711,116.016 372.157,109.648 C372.715,109.097 372.668,107.765 371.592,108.199 L371.592,108.199 Z" id="Shape"></path>
                    <path d="M336.172,171.455 C346.428,165.564 357.115,160.791 367.897,155.968 C378.538,151.207 388.977,146.037 397.551,137.993 C403.521,132.392 409.552,124.011 407.188,115.389 C406.271,112.047 403.245,109.738 400.09,108.721 C394.542,106.932 389.631,107.949 384.887,111.092 C383.531,111.99 382.022,114.839 384.533,115.405 C390.226,116.688 399.877,114.468 400.178,122.78 C400.469,130.851 389.924,138.265 384.145,142.096 C368.551,152.433 348.986,156.742 334.681,168.967 C333.153,170.273 334.245,172.562 336.172,171.455 L336.172,171.455 Z" id="Shape"></path>
                    <path d="M260.036,260.973 C264.157,277.743 325.181,235.137 331.868,230.611 C348.938,219.055 366.132,207.719 383.557,196.698 C395.418,189.196 407.219,182.042 420.004,176.229 C431.356,171.068 443.026,166.354 453.663,159.787 C457.593,157.361 461.345,154.582 464.67,151.374 C468.357,147.817 464.318,143.127 460.607,146.745 C452.535,154.617 441.932,159.597 431.868,164.399 C420.338,169.9 408.586,174.724 397.665,181.412 C377.052,194.036 356.691,207.246 336.801,220.984 C323.409,230.234 309.886,239.342 295.796,247.505 C289.115,251.375 282.238,255.117 274.998,257.843 C271.986,258.976 265.989,261.401 263.048,258.823 C261.694,257.635 259.655,259.422 260.036,260.973 L260.036,260.973 Z" id="Shape"></path>
                    <path d="M44.495,331.735 C63.504,330.22 81.615,322.21 98.442,313.676 C107.418,309.125 116.158,304.104 124.787,298.932 C128.977,296.419 133.132,293.848 137.292,291.284 C140.714,289.175 145.041,287.331 147.813,284.395 C149.051,283.083 149.036,280.256 146.535,281.11 C143.115,282.276 140.105,285.017 137.13,287.04 C133.524,289.492 129.853,291.857 126.167,294.188 C117.699,299.545 109.08,304.65 100.266,309.416 C82.884,318.813 64.379,327.018 44.786,330.384 C44.091,330.502 43.487,331.815 44.495,331.735 L44.495,331.735 Z" id="Shape"></path>
                    <path d="M231.132,263.133 C237.096,264.354 243.444,264.426 249.512,264.467 C253.037,264.491 260.707,265.008 262.313,260.729 C262.813,259.399 262.296,258.318 260.813,258.274 C259.568,258.237 258.285,258.895 257.069,259.122 C254.497,259.601 251.859,259.756 249.252,259.909 C243.485,260.249 237.58,259.973 231.872,260.972 C231.006,261.124 229.674,262.835 231.132,263.133 L231.132,263.133 Z" id="Shape"></path>
                </g>
            </g>
        </g>
    </g>
</svg>