<?xml version="1.0" encoding="UTF-8" standalone="no"?><!DOCTYPE svg PUBLIC "-//W3C//DTD SVG 1.1//EN" "http://www.w3.org/Graphics/SVG/1.1/DTD/svg11.dtd"><svg width="100%" height="100%" viewBox="0 0 526 437" version="1.1" xmlns="http://www.w3.org/2000/svg" xmlns:xlink="http://www.w3.org/1999/xlink" xml:space="preserve" style="fill-rule:evenodd;clip-rule:evenodd;stroke-linejoin:round;stroke-miterlimit:1.41421;"><g id="glue"><path d="M137.449,258.497c0.915,-1.238 1.786,-2.419 2.856,-3.539c-1.01,0.331 -2.02,0.662 -3.029,0.993c10.884,3.208 16.968,11.886 20.301,22.378c1.088,3.427 1.234,7.229 1.23,10.792c-0.002,0.767 0.469,5.405 0.246,2.795c0.327,3.831 4.999,9.194 10.911,0.374c0.843,-1.258 1.27,-2.321 1.662,-3.787c0.88,-3.282 -1.632,-7.694 -2.611,-10.746c-1.092,-3.402 -2.636,-6.615 -4.313,-9.75c-4.488,-8.385 -14.821,-19.587 -25.436,-17.873c-1.662,0.269 -3.258,1.432 -3.609,3.168c-0.438,2.158 -1.139,3.617 0.078,5.551c0.392,0.624 1.42,0.042 1.714,-0.356Z" style="fill-rule:nonzero;"/><path d="M136.301,252.196c6.456,-1.478 12.344,-6.18 17.844,-9.681c4.256,-2.709 8.656,-5.091 13.083,-7.493c3.183,-1.727 6.39,-3.827 9.759,-5.146c1.31,-0.513 2.628,-1 3.969,-1.42c1.199,-0.376 2.616,-1.235 3.553,-2.058c0.146,-0.128 4.06,-4.924 1.633,-1.912c-1.29,0.927 -2.579,1.854 -3.869,2.78c0.042,-0.018 0.084,-0.036 0.125,-0.054c-1.288,-0.063 -2.577,-0.125 -3.865,-0.188c-0.48,-0.549 -0.96,-1.099 -1.439,-1.648c1.166,2.554 4.428,2.743 6.604,1.328c3.502,-2.276 6.12,-9.014 0.193,-10.113c-4.721,-0.875 -10.192,4.412 -13.967,6.651c-4.26,2.528 -8.6,4.933 -12.828,7.511c-7.605,4.639 -16.618,9.899 -22.752,16.406c-2.088,2.215 -1.83,5.903 1.957,5.037Z" style="fill-rule:nonzero;"/><path d="M166.048,297.16c3.063,1.348 7.287,-0.194 10.301,-1.035c5.587,-1.56 10.958,-3.632 16.342,-5.776c5.569,-2.219 11.067,-4.651 16.52,-7.144c4.608,-2.107 7.342,-2.562 11.12,-5.408c5.932,-4.467 1.357,-13.407 -5.467,-9.115c-0.781,0.492 -1.527,1.038 -2.254,1.607c-0.623,0.491 -1.177,1.055 -1.662,1.69c1.625,-1.32 1.893,-1.62 0.803,-0.9c-1.927,1.184 -3.931,2.189 -5.961,3.18c-4.947,2.413 -9.985,4.63 -15.011,6.873c-5.069,2.264 -10.16,4.46 -15.144,6.913c-3.401,1.675 -7.191,3.198 -9.797,6.041c-0.707,0.77 -0.962,2.558 0.21,3.074Z" style="fill-rule:nonzero;"/><path d="M176.959,220.897c11.797,-6.329 24.856,6.231 31.518,15.193c8.238,11.083 11.76,25.458 11.528,39.096c3.201,-2.81 6.402,-5.619 9.604,-8.429c0.052,0.144 0.104,0.286 0.156,0.43c-4.431,-3.957 -14.017,2.349 -11.148,7.958c0.882,1.725 1.761,2.998 3.623,3.72c5.002,1.938 11.239,-2.464 11.032,-7.933c-0.664,-17.545 -6.809,-36.223 -20.155,-48.221c-6.02,-5.411 -13.914,-10.058 -21.983,-11.327c-5.961,-0.938 -15.028,1.927 -15.547,9.012c-0.055,0.763 0.929,0.739 1.372,0.501Z" style="fill-rule:nonzero;"/><path d="M178.604,182.866c-2.188,5.485 -3.076,11.121 -3.703,16.965c-0.367,3.416 -0.693,6.829 -1.251,10.22c-0.455,2.767 -1.597,4.188 -2.296,6.726c-1.697,6.159 6.313,4.162 8.65,1.631c3.346,-3.622 2.36,-11.792 2.234,-16.541c-0.168,-6.338 -1.739,-12.899 -1.443,-19.178c0.062,-1.323 -1.89,-0.576 -2.191,0.177Z" style="fill-rule:nonzero;"/><path d="M212.741,277.725c10.287,8.988 23.547,13.815 34.313,22.066c2.002,-3.29 4.004,-6.579 6.006,-9.869c-3.847,-1.23 -7.454,-0.843 -9.488,3.051c-0.765,1.465 -0.67,3.105 0.28,4.432c1.125,1.568 2.43,2.527 4.366,2.791c5.383,0.732 11.741,-8.216 4.842,-10.273c-12.999,-3.877 -24.092,-12.85 -37.407,-16.016c-1.606,-0.381 -4.593,2.35 -2.912,3.818Z" style="fill-rule:nonzero;"/><path d="M179.928,184.814c8.477,-5.444 15.712,-6.138 24.749,-1.076c11.734,6.573 20.902,17.933 28.334,28.884c8.271,12.187 14.777,25.964 18.45,40.243c1.602,6.229 2.354,12.722 1.992,19.148c-0.324,5.768 -2.798,9.561 -4.658,14.143c-2.3,5.665 3.933,7.702 7.803,4.275c10.661,-9.438 8.987,-27.606 6.224,-39.997c-3.566,-15.988 -11.527,-31.003 -20.901,-44.308c-8.37,-11.879 -19.018,-23.69 -32.301,-30.103c-9.88,-4.77 -23.154,-5.359 -29.59,5.125c-0.616,1.002 -0.987,1.869 -1.319,2.985c-0.224,0.754 0.702,1.013 1.217,0.681Z" style="fill-rule:nonzero;"/><path d="M184.384,178.048c28.271,-25.102 63.605,-40.067 94.094,-62.063c16.067,-11.593 31.179,-24.442 46.755,-36.674c15.568,-12.226 32.109,-24.812 50.686,-32.091c-0.669,-3.228 -1.339,-6.455 -2.008,-9.682c-3.688,1.955 -7.57,2.827 -10.611,5.854c-2.907,2.895 -2.261,7.569 2.551,6.556c4.046,-0.853 7.879,-1.246 11.518,-3.369c6.174,-3.601 3.951,-12.879 -3.457,-9.041c-36.688,19.004 -65.83,47.771 -98.896,71.982c-15.613,11.431 -32.495,20.925 -49.043,30.9c-16.354,9.856 -32.768,20.144 -45.726,34.345c-2.763,3.027 1.459,5.661 4.137,3.283Z" style="fill-rule:nonzero;"/><path d="M252.187,300.169c4.07,-0.692 7.533,-2.755 11.204,-4.57c4.986,-2.468 9.861,-5.15 14.752,-7.798c9.909,-5.365 19.859,-10.654 29.794,-15.973c19.333,-10.351 38.344,-21.185 57.353,-32.107c19.498,-11.203 38.775,-22.786 58.232,-34.06c19.238,-11.146 38.781,-23.208 59.384,-31.681c4.293,-1.766 8.267,-10.274 0.848,-10.122c-2.972,0.061 -5.563,1.331 -8.326,2.289c-3.09,1.072 -6.492,6.716 -1.713,7.995c2.677,0.717 5.1,0.522 7.811,0.116c-0.178,-3.17 -0.356,-6.34 -0.534,-9.51c-19.396,11.091 -39.322,21.23 -58.637,32.504c-19.447,11.351 -38.688,23.051 -58.141,34.394c-18.957,11.054 -37.965,21.951 -57.216,32.488c-9.901,5.419 -19.821,10.804 -29.709,16.247c-8.681,4.779 -19.567,9.36 -26.298,16.787c-0.962,1.063 -0.568,3.301 1.196,3.001Z" style="fill-rule:nonzero;"/><path d="M381.677,28.177c5.244,11.587 14.755,21.341 22.686,31.165c8.863,10.98 17.642,22.034 26.327,33.154c16.844,21.568 33.364,43.418 49.137,65.786c2.873,-3.083 5.746,-6.165 8.619,-9.248c-2.197,-1.511 -4.145,-2.896 -6.871,-3.082c-2.951,-0.2 -7.677,2.929 -6.059,6.456c1.273,2.773 2.654,5.08 5.316,6.674c4.832,2.894 12.016,-4.651 8.619,-9.248c-16.251,-21.996 -32.827,-43.736 -50.063,-64.973c-8.484,-10.454 -17.113,-20.781 -25.913,-30.971c-8.606,-9.967 -17.199,-21.578 -28.473,-28.633c-1.502,-0.939 -4.054,1.31 -3.325,2.92Z" style="fill-rule:nonzero;"/><path d="M405.818,7.658c4.004,6.543 7.998,12.51 12.802,18.545c5.156,6.476 10.523,12.788 15.803,19.164c9.844,11.888 19.972,23.488 28.863,36.124c16.664,23.684 30.768,49.284 51.471,69.854c2.914,-3.127 5.83,-6.255 8.744,-9.383c-3.396,-1.415 -6.304,-1.996 -9.98,-2.012c-3.225,-0.015 -6.603,4.389 -4.466,7.255c1.838,2.466 4.032,3.59 6.724,4.952c4.612,2.333 13.235,-5.134 8.744,-9.383c-20.765,-19.646 -35.066,-44.482 -51.447,-67.625c-8.865,-12.527 -19.065,-24.02 -29.167,-35.552c-5.45,-6.222 -11.007,-12.409 -16.719,-18.392c-2.605,-2.729 -5.185,-5.483 -7.785,-8.216c-3.069,-3.226 -6.583,-5.646 -9.943,-8.527c-1.874,-1.606 -4.902,1.14 -3.644,3.196Z" style="fill-rule:nonzero;"/><path d="M409.496,0.41c-7.843,2.436 -15.489,6.177 -22.352,10.673c-3.879,2.541 -7.435,5.408 -9.844,9.425c-1.696,2.83 -3.206,8.027 -0.177,10.513c3.354,2.752 9.302,-0.05 9.792,-4.39c0.282,-2.503 -0.358,-3.164 1.184,-5.049c1.892,-2.313 4.642,-4.068 7.104,-5.704c5.352,-3.556 11.418,-6.45 16.029,-11.004c1.834,-1.81 1.591,-5.498 -1.736,-4.464Z" style="fill-rule:nonzero;"/><path d="M487.434,159.316c2.693,5.975 10.258,8.649 16.435,6.739c7.71,-2.384 13.365,-8.392 18.139,-14.635c4.462,-5.836 -2.637,-10.572 -7.553,-5.99c-1.896,1.768 -3.409,3.718 -4.32,6.162c-0.332,0.892 -0.55,2.475 0.65,2.915c2.618,0.958 4.38,0.548 7.142,-0.153c-1.552,-2.552 -3.104,-5.104 -4.655,-7.656c-2.568,3.534 -5.213,6.84 -9.056,9.028c-4.396,2.503 -8.918,0.615 -13.541,0.137c-1.603,-0.165 -4.075,1.602 -3.241,3.453Z" style="fill-rule:nonzero;"/><path d="M412.583,13.022c-5.162,1.833 -9.985,5.195 -14.692,7.953c-3.948,2.313 -9.763,5.049 -12.089,9.188c-1.181,2.101 1.268,3.46 2.997,2.407c4.045,-2.464 7.745,-5.8 11.738,-8.435c4.376,-2.887 9.53,-5.562 12.958,-9.614c0.625,-0.738 0.091,-1.855 -0.912,-1.499Z" style="fill-rule:nonzero;"/><path d="M415.555,18.517c-5.008,1.751 -9.507,5.299 -13.96,8.108c-2.188,1.38 -5.05,2.471 -6.986,4.171c-0.63,0.553 -1.382,1.133 -1.817,2.129c1.042,-2.385 -0.322,0.725 -0.351,1.357c-0.233,5.334 9.302,-1.544 10.378,-2.316c4.711,-3.384 9.511,-6.884 13.748,-10.851c1.084,-1.015 0.896,-3.265 -1.012,-2.598Z" style="fill-rule:nonzero;"/><path d="M440.57,40.784c-4.397,1.288 -8.653,3.502 -12.613,5.767c-3.508,2.006 -8.204,4.32 -10.467,7.831c-0.646,1.002 -1.398,2.756 -0.292,3.783c3.094,2.869 7.652,-3.655 9.906,-5.4c4.572,-3.541 9.656,-6.388 14.303,-9.83c1.093,-0.811 0.642,-2.585 -0.837,-2.151Z" style="fill-rule:nonzero;"/><path d="M444.542,47.265c-7.518,2.688 -15.147,6.891 -21.954,11.044c-3.685,2.248 -2.396,7.902 2.104,5.5c7.175,-3.829 14.728,-8.364 21.027,-13.521c1.39,-1.138 0.963,-3.788 -1.177,-3.023Z" style="fill-rule:nonzero;"/><path d="M470.554,80.489c-2.417,0.499 -4.828,2.146 -6.975,3.3c-3.277,1.762 -6.541,3.548 -9.752,5.432c-2.481,1.457 -12.124,5.958 -9.69,10.016c1.07,1.783 3.645,0.818 4.331,-0.882c-0.904,2.239 -3.353,1.93 -0.806,1.279c1.262,-0.322 2.171,-1.139 3.17,-1.915c2.402,-1.864 4.963,-3.525 7.472,-5.237c4.381,-2.989 10.097,-5.706 13.63,-9.723c1.087,-1.236 0.061,-2.567 -1.38,-2.27Z" style="fill-rule:nonzero;"/><path d="M471.542,89.251c-3.527,1.159 -6.683,3.414 -9.787,5.406c-3.695,2.371 -7.496,4.62 -11.055,7.192c-3.338,2.414 -0.75,7.364 3.02,5.034c3.346,-2.068 6.445,-4.583 9.599,-6.93c3.38,-2.515 7.013,-4.916 9.813,-8.087c1.148,-1.302 0.127,-3.18 -1.59,-2.615Z" style="fill-rule:nonzero;"/><path d="M497.029,121.463c-7.755,5.364 -15.734,10.386 -23.467,15.779c-3.516,2.452 -2.505,8.234 2.154,5.635c1.404,-0.783 2.727,-1.607 3.993,-2.597c0.972,-0.759 1.223,-2.143 0.227,-2.933c-1.576,-1.251 -3.59,-1.172 -5.471,-0.504c0.703,1.807 1.405,3.614 2.108,5.421c7.431,-5.876 15.503,-11.174 22.161,-17.956c1.499,-1.525 0.496,-4.368 -1.705,-2.845Z" style="fill-rule:nonzero;"/><path d="M503.535,129.125c-7.551,3.223 -14.956,7.782 -22.041,11.938c-4.079,2.394 -2.54,8.682 2.291,5.992c7.197,-4.007 15.35,-8.622 21.018,-14.67c1.149,-1.226 1.195,-4.312 -1.268,-3.26Z" style="fill-rule:nonzero;"/><path d="M131.199,264.96c9.955,4.914 18.725,15.773 19.696,27.299c0.439,5.222 9.437,0.82 7.316,-3.236c-3.02,-5.774 -4.804,-11.808 -8.591,-17.251c-3.636,-5.227 -9.523,-10.037 -16.009,-10.777c-1.722,-0.197 -4.748,2.812 -2.412,3.965Z" style="fill-rule:nonzero;"/><path d="M25.221,339.966c-1.115,0.724 -1.727,1.188 -2.242,2.425c-0.282,0.679 -0.357,1.4 0.128,2.009c0.138,0.173 0.275,0.346 0.413,0.519c1.265,-1.357 2.53,-2.715 3.795,-4.071c-0.727,-0.342 -1.463,-0.622 -2.231,-0.853c0.325,1.458 0.651,2.915 0.977,4.373c5.978,-7.959 12.353,-14.625 20.186,-20.834c8.774,-6.955 18.239,-13.006 27.559,-19.19c8.323,-5.523 16.315,-11.418 24.238,-17.499c8.882,-6.818 20.258,-16.666 31.81,-18.112c0.199,-2.383 0.399,-4.767 0.599,-7.149c-3.962,1.267 -8.11,2.061 -11.48,4.574c-1.396,1.041 -2.271,4.57 0.303,4.801c3.849,0.345 7.915,-1.26 11.555,-2.422c4.249,-1.358 4.744,-8.908 -0.377,-6.953c-11.407,4.355 -21.184,9.62 -31.055,16.891c-9.625,7.09 -18.963,14.417 -28.927,21.042c-9.512,6.323 -19.05,12.613 -28.061,19.646c-7.976,6.225 -17.338,13.947 -21.658,23.359c-1.074,2.342 0.701,4.071 3.048,3.474c0.67,-0.171 1.317,-0.397 1.966,-0.636c2.139,-0.785 3.775,-4.701 0.396,-4.729c-0.243,-0.002 -0.485,-0.004 -0.729,-0.006c0.555,0.311 1.109,0.619 1.664,0.93c-0.038,-0.201 -0.075,-0.402 -0.112,-0.604c0.162,-1.059 -0.921,-1.531 -1.765,-0.985Z" style="fill-rule:nonzero;"/><path d="M25.236,346.94c10.686,-0.519 21.637,-4.177 31.856,-7.097c11.697,-3.342 23.207,-7.396 34.531,-11.834c22.271,-8.729 43.215,-19.787 63.158,-32.963c3.854,-2.547 2.685,-8.563 -2.285,-5.975c-3.824,1.992 -7.804,2.654 -10.023,6.583c-0.557,0.983 -0.189,2.549 1.083,2.702c3.7,0.448 8.106,-1.389 11.226,-3.311c-1.064,-1.775 -2.129,-3.55 -3.193,-5.325c-18.297,13.451 -39.314,23.578 -60.305,32.034c-10.783,4.345 -21.788,8.042 -32.862,11.563c-10.844,3.448 -22.334,5.684 -32.879,9.96c-1.534,0.624 -2.995,3.794 -0.307,3.663Z" style="fill-rule:nonzero;"/><path d="M134.425,253.403c-1.742,2.535 -3.233,6.529 -1.279,9.335c1.532,2.2 5.387,-0.866 5.103,-2.932c-0.272,-1.979 -1.523,-3.824 -1.024,-5.876c0.451,-1.853 -2.069,-1.591 -2.8,-0.527Z" style="fill-rule:nonzero;"/><path d="M152.375,293.78c0.244,0.569 0.304,1.07 0.7,1.568c0.449,0.564 1.063,1.019 1.661,1.409c1.409,0.92 3.38,0.936 4.977,0.657c1.273,-0.223 2.454,-1.074 2.739,-2.404c0.326,-1.521 -1.038,-2.316 -2.377,-1.918c-1.557,0.464 -4.273,0.46 -5.325,-1.008c-0.794,-1.109 -2.855,0.582 -2.375,1.696Z" style="fill-rule:nonzero;"/><path d="M148.709,254.348c12.026,-3.505 23.168,-10.864 34.471,-16.266c4.313,-2.062 8.629,-4.111 12.951,-6.152c2.084,-0.983 5.382,-2.067 6.768,-4.105c-1.338,-0.465 -2.674,-0.93 -4.012,-1.396c-0.036,0.096 -0.082,0.188 -0.125,0.28c-0.308,0.664 -0.367,1.851 0.487,2.184c0.24,0.094 0.482,0.183 0.729,0.258c2.121,0.648 5.008,-3.059 2.707,-4.447c-1.775,-1.07 -5.348,1.106 -6.832,1.826c-4.495,2.182 -8.986,4.373 -13.473,6.572c-11.71,5.738 -24.015,11.302 -34.518,19.073c-1.106,0.82 -0.649,2.61 0.847,2.173Z" style="fill-rule:nonzero;"/><path d="M157.714,262.447c10.21,-2.464 19.933,-7.278 29.325,-11.871c9.809,-4.797 19.621,-9.502 29.53,-14.083c-0.62,-1.623 -1.241,-3.244 -1.861,-4.867c-1.825,1.272 -3.622,2.572 -5.174,4.175c-1.505,1.556 -0.567,4.31 1.72,2.867c1.411,-0.891 2.959,-1.311 4.535,-1.83c3.386,-1.116 3.771,-7.151 -0.301,-5.557c-9.83,3.853 -19.168,9.103 -28.508,13.991c-9.82,5.139 -19.809,9.81 -29.807,14.571c-1.467,0.7 -1.365,3.064 0.541,2.604Z" style="fill-rule:nonzero;"/><path d="M162.692,274.041c9.397,-2.446 18.579,-6.975 27.599,-10.563c9.501,-3.778 19.116,-7.374 28.397,-11.676c-1.211,-1.38 -2.422,-2.76 -3.633,-4.14c-0.955,1.514 -1.496,2.818 -2.016,4.526c-0.324,1.062 0.801,1.643 1.68,1.356c1.454,-0.475 2.674,-0.919 3.969,-1.743c2.751,-1.751 3.138,-7.708 -1.219,-5.875c-9.785,4.117 -19.503,8.437 -29.214,12.729c-8.864,3.917 -18.454,7.829 -26.206,13.73c-0.847,0.647 -0.495,1.951 0.643,1.656Z" style="fill-rule:nonzero;"/><path d="M167.382,285.258c9.158,0.223 18.8,-4.267 26.943,-8c10.104,-4.631 20.093,-9.134 30.482,-13.08c3.543,-1.346 4.601,-7.633 -0.338,-6.238c-2.854,0.806 -5.411,2.249 -7.666,4.168c-0.833,0.709 -1.028,2.591 0.521,2.417c1.989,-0.223 3.764,-0.467 5.779,-0.208c0.455,-2.126 0.91,-4.252 1.366,-6.377c-9.544,2.605 -18.551,7.707 -27.358,12.098c-9.678,4.825 -19.682,8.535 -29.534,12.886c-0.994,0.44 -1.908,2.293 -0.195,2.334Z" style="fill-rule:nonzero;"/><path d="M381.896,88.86c-12.212,1.15 -21.883,10.99 -31.843,17.244c-13.408,8.419 -27.035,16.546 -40.846,24.29c-12.94,7.256 -26.948,12.776 -39.459,20.731c-7.152,4.547 -20.168,13.409 -18.233,23.533c0.838,4.382 4.215,8.075 6.942,11.418c4.096,5.02 8.152,10.063 12.197,15.125c5.589,6.996 12.045,14.208 21.271,15.855c11.799,2.106 23.224,-6.246 32.615,-12.03c13.558,-8.349 26.891,-17.06 40.175,-25.833c13.039,-8.611 25.919,-17.503 39.122,-25.859c8.781,-5.558 18.008,-11.288 21.096,-21.83c5.935,-20.268 -21.875,-42.393 -40.47,-37.669c-3.158,0.802 -5.095,7.22 -0.556,6.63c11.267,-1.465 22.127,6.534 28.818,14.832c3.481,4.318 5.799,10.018 5.093,15.626c-0.695,5.517 -5.531,9.368 -9.783,12.335c-11.773,8.214 -24.071,15.779 -36.03,23.729c-13.256,8.812 -26.54,17.583 -39.983,26.106c-6.452,4.091 -12.956,8.103 -19.502,12.043c-5.133,3.09 -11.208,5.7 -17.316,4.965c-9.631,-1.158 -16.372,-11.681 -21.89,-18.569c-3.814,-4.763 -7.85,-9.348 -11.623,-14.141c-3.91,-4.966 -4.063,-8.096 0.351,-12.751c10.281,-10.845 24.798,-15.652 37.612,-22.613c15.096,-8.201 29.703,-17.268 44.189,-26.491c12.765,-8.127 24.341,-18.174 38.176,-24.482c0.94,-0.429 1.309,-2.329 -0.123,-2.194Z" style="fill-rule:nonzero;"/><path d="M30.42,339.081c0.118,-0.008 0.234,-0.027 0.348,-0.059c-0.182,-0.1 -0.363,-0.199 -0.545,-0.299c0.376,0.51 0.896,0.562 1.486,0.537c-0.298,-0.057 -0.597,-0.112 -0.895,-0.169c0.699,0.293 1.219,0.148 1.924,0.147c0.111,0 0.769,0.007 0.125,-0.035c0.395,0.025 0.779,0.041 1.172,0.022c0.178,-0.009 0.766,0.033 -0.039,-0.02c0.187,0.013 0.37,0.047 0.553,0.088c0.49,0.111 -0.616,-0.255 -0.188,-0.06c0.256,0.116 0.57,0.438 -0.082,-0.136c0.169,0.148 0.348,0.529 -0.109,-0.267c0.135,0.234 0.149,0.744 0.015,-0.16c0.02,0.132 0.015,0.27 0.016,0.402c0.004,0.463 0.134,-0.811 -0.025,0.002c-0.091,0.463 -0.217,0.917 -0.321,1.376c-0.021,0.26 -0.044,0.52 -0.066,0.78c0.073,-0.415 0.072,-0.449 -0.002,-0.103c-0.146,0.633 -0.02,1.287 0.236,1.87c-0.021,-0.385 -0.043,-0.769 -0.064,-1.153c-0.063,0.708 -0.18,1.415 0.168,2.075c0.322,0.611 0.939,0.795 1.592,0.58c1.77,-0.581 3.059,-1.98 4.006,-3.563c-0.361,0.474 -0.723,0.947 -1.084,1.42c2.329,-2.275 3.385,-7.508 -0.656,-8.64c-1.244,-0.348 -2.713,0.027 -3.881,0.477c-0.456,0.176 -0.808,0.388 -1.222,0.615c-0.132,0.068 -0.258,0.147 -0.376,0.238c-0.193,0.138 -0.386,0.275 -0.578,0.413c0.254,-0.193 0.247,-0.199 -0.02,-0.016c-0.248,0.161 -0.489,0.33 -0.725,0.508c-0.477,0.489 -0.584,0.609 -0.324,0.361c-0.274,0.239 -0.491,0.522 -0.648,0.85c-0.617,1.313 0.542,-0.416 -0.152,0.229c-0.531,0.498 -0.751,1.84 0.361,1.69Z" style="fill-rule:nonzero;"/><path d="M23.645,361.874c-6.4,14.161 -18.489,25.528 -22.316,40.904c-3.476,13.964 5.493,32.473 21.107,33.461c14.475,0.916 22.788,-13.074 23.159,-25.885c0.507,-17.49 -14.61,-30.455 -16.122,-47.524c-0.349,-3.944 -5.082,-2.282 -6.711,-0.325c-1.084,1.302 -1.977,2.525 -2.635,4.086c-0.747,1.774 0.537,3.954 2.65,3.02c1.88,-0.831 3.37,-1.836 4.959,-3.16c-1.978,-0.387 -3.955,-0.774 -5.932,-1.161c-0.484,13.685 10.117,25.187 14.348,37.58c3.369,9.871 1.329,28.278 -13.082,25.629c-6.314,-1.161 -10.968,-7.358 -13.367,-12.851c-3.027,-6.931 -1.755,-14.144 1.103,-20.859c4.651,-10.93 14.525,-20.676 14.942,-33.084c0.044,-1.3 -1.792,-0.518 -2.103,0.169Z" style="fill-rule:nonzero;"/><path d="M24.426,392.021c-1.14,-0.495 -1.912,-0.718 -3.196,-0.771c-1.048,-0.044 -2.021,0.103 -3.04,0.346c-1.582,0.377 -3.197,1.288 -4.139,2.644c-1.77,2.55 -0.751,5.366 1.219,7.438c4.238,4.46 12.953,6.421 16.992,0.679c1.9,-2.701 2.066,-6.145 1.512,-9.302c-0.193,-1.103 -0.664,-1.636 -1.731,-1.973c-2.957,-0.934 -5.81,0.341 -8.204,2.065c-0.552,0.396 -0.945,1.42 -0.427,1.989c0.604,0.662 1.489,0.718 2.312,0.93c0.819,0.211 2.338,0.62 3.513,0.971c-0.577,-0.657 -1.154,-1.315 -1.731,-1.973c0.196,1.021 0.346,2.045 0.381,3.084c0.008,0.219 0.003,0.438 -0.002,0.655c-0.016,0.715 0.076,-0.611 0.002,0.069c-0.039,0.362 -0.113,0.72 -0.205,1.073c-0.157,0.608 0.264,-0.69 0.047,-0.121c-0.055,0.146 -0.123,0.285 -0.191,0.425c-0.263,0.538 0.46,-0.701 0.138,-0.21c-0.077,0.118 -0.166,0.229 -0.255,0.338c-0.369,0.459 0.652,-0.654 0.229,-0.254c-0.098,0.093 -0.204,0.176 -0.311,0.258c0.89,-0.69 0.521,-0.368 0.273,-0.222c-0.657,0.388 0.633,-0.243 0.147,-0.047c-0.255,0.103 -0.521,0.174 -0.789,0.235c1.031,-0.237 0.033,-0.037 -0.24,-0.018c-0.225,0.016 -1.256,-0.03 -0.341,0.024c-0.362,-0.021 -0.722,-0.073 -1.079,-0.135c-0.315,-0.054 -0.627,-0.128 -0.936,-0.207c-0.184,-0.047 -1.203,-0.378 -0.479,-0.125c-0.674,-0.235 -1.324,-0.532 -1.957,-0.86c-0.566,-0.295 -1.109,-0.634 -1.631,-1c-0.125,-0.089 -0.247,-0.182 -0.369,-0.273c0.646,0.489 -0.134,-0.107 -0.354,-0.276c0.591,0.452 -0.246,-0.224 -0.396,-0.366c-0.369,-0.35 -0.7,-0.74 -0.979,-1.166c0.416,0.634 0.02,-0.002 -0.06,-0.194c-0.277,-0.677 -0.031,0.175 -0.063,-0.215c-0.042,-0.513 -0.145,0.59 0.015,-0.057c-0.179,0.726 -0.171,0.462 -0.07,0.247c0.183,-0.394 -0.4,0.6 -0.141,0.236c0.342,-0.479 -0.569,0.479 0.076,-0.046c-0.753,0.612 0.125,-0.04 0.404,-0.174c-0.676,0.323 0.388,-0.117 0.585,-0.178c0.412,-0.128 0.833,-0.229 1.248,-0.35c1.195,-0.344 2.328,-0.665 3.494,-1.078c0.637,-0.223 1.826,-1.638 0.729,-2.115Z" style="fill-rule:nonzero;"/><path d="M371.592,108.199c-4.476,1.805 -8.532,4.945 -12.671,7.428c-4.712,2.827 -9.438,5.637 -14.354,8.091c-10.446,5.213 -20.656,10.994 -30.976,16.464c-9.657,5.12 -19.258,10.357 -28.765,15.752c-5.205,2.954 -12.035,4.504 -15.564,9.721c-3.467,5.122 -2.662,12.801 -0.445,18.222c2.707,6.617 8.889,11.362 15.342,13.94c6.547,2.616 13.894,3.132 20.699,1.286c4.452,-1.207 8.521,-4.29 12.2,-6.936c4.163,-2.996 8.298,-6.413 11.136,-10.728c1.389,-2.111 0.511,-5.89 -2.723,-4.478c-7.221,3.153 -12.332,9.469 -19.243,13.229c-5.638,3.066 -13.118,1.845 -18.788,-0.457c-5.622,-2.282 -10.264,-6.269 -12.415,-12.007c-1.073,-2.86 -1.356,-6.566 -0.964,-9.59c0.303,-2.338 2.702,-3.196 4.566,-4.107c15.729,-7.69 30.937,-16.612 46.267,-25.08c8.108,-4.479 16.237,-9.058 23.996,-14.122c7.544,-4.924 16.821,-8.811 23.267,-15.179c0.558,-0.551 0.511,-1.883 -0.565,-1.449Z" style="fill-rule:nonzero;"/><path d="M336.172,171.455c10.256,-5.891 20.943,-10.664 31.725,-15.487c10.641,-4.761 21.08,-9.931 29.654,-17.975c5.97,-5.601 12.001,-13.982 9.637,-22.604c-0.917,-3.342 -3.943,-5.651 -7.098,-6.668c-5.548,-1.789 -10.459,-0.772 -15.203,2.371c-1.356,0.898 -2.865,3.747 -0.354,4.313c5.693,1.283 15.344,-0.937 15.645,7.375c0.291,8.071 -10.254,15.485 -16.033,19.316c-15.594,10.337 -35.159,14.646 -49.464,26.871c-1.528,1.306 -0.436,3.595 1.491,2.488Z" style="fill-rule:nonzero;"/><path d="M260.036,260.973c4.121,16.77 65.145,-25.836 71.832,-30.362c17.07,-11.556 34.264,-22.892 51.689,-33.913c11.861,-7.502 23.662,-14.656 36.447,-20.469c11.352,-5.161 23.022,-9.875 33.659,-16.442c3.93,-2.426 7.682,-5.205 11.007,-8.413c3.687,-3.557 -0.352,-8.247 -4.063,-4.629c-8.072,7.872 -18.675,12.852 -28.739,17.654c-11.53,5.501 -23.282,10.325 -34.203,17.013c-20.613,12.624 -40.974,25.834 -60.864,39.572c-13.392,9.25 -26.915,18.358 -41.005,26.521c-6.681,3.87 -13.558,7.612 -20.798,10.338c-3.012,1.133 -9.009,3.558 -11.95,0.98c-1.354,-1.188 -3.393,0.599 -3.012,2.15Z" style="fill-rule:nonzero;"/><path d="M44.495,331.735c19.009,-1.515 37.12,-9.525 53.947,-18.059c8.976,-4.551 17.716,-9.572 26.345,-14.744c4.19,-2.513 8.345,-5.084 12.505,-7.648c3.422,-2.109 7.749,-3.953 10.521,-6.889c1.238,-1.312 1.223,-4.139 -1.278,-3.285c-3.42,1.166 -6.43,3.907 -9.405,5.93c-3.606,2.452 -7.277,4.817 -10.963,7.148c-8.468,5.357 -17.087,10.462 -25.901,15.228c-17.382,9.397 -35.887,17.602 -55.48,20.968c-0.695,0.118 -1.299,1.431 -0.291,1.351Z" style="fill-rule:nonzero;"/><path d="M231.132,263.133c5.964,1.221 12.312,1.293 18.38,1.334c3.525,0.024 11.195,0.541 12.801,-3.738c0.5,-1.33 -0.017,-2.411 -1.5,-2.455c-1.245,-0.037 -2.528,0.621 -3.744,0.848c-2.572,0.479 -5.21,0.634 -7.817,0.787c-5.767,0.34 -11.672,0.064 -17.38,1.063c-0.866,0.152 -2.198,1.863 -0.74,2.161Z" style="fill-rule:nonzero;"/></g></svg>