<?xml version="1.0" encoding="UTF-8"?>
<svg width="420px" height="493px" viewBox="0 0 420 493" version="1.1" xmlns="http://www.w3.org/2000/svg" xmlns:xlink="http://www.w3.org/1999/xlink">
    <!-- Generator: Sketch 41 (35326) - http://www.bohemiancoding.com/sketch -->
    <title>goose</title>
    <desc>Created with Sketch.</desc>
    <defs></defs>
    <g id="Page-1" stroke="none" stroke-width="1" fill="none" fill-rule="evenodd">
        <g id="Layer_1" transform="translate(-3713.000000, -79.000000)" fill="#010101">
            <g id="Layer_1_3_">
                <g id="goose" transform="translate(3713.000000, 79.000000)">
                    <path d="M148.192,247.218 C152.393,214.816 151.832,181.399 148.563,148.942 C146.437,127.834 141.867,107.189 138.817,86.225 C136.103,67.567 133.444,44.861 142.827,27.581 C151.793,11.07 175.156,7.729 191.706,12.852 C198.869,15.069 203.894,20.047 205.375,27.466 C206.893,35.061 202.742,43.512 196.77,48.075 C192.003,51.718 189.059,54.921 187.558,60.945 C184.841,71.85 184.938,83.952 184.313,95.124 C182.93,119.82 183.002,144.579 182.502,169.302 C182.018,193.297 179.306,217.247 179.294,241.217 C182.932,240.725 186.567,240.233 190.204,239.739 C189.716,236.526 187.449,234.546 185.774,231.922 C182.922,227.454 176.474,230.401 177.462,235.426 C177.949,237.898 179.115,240.228 179.49,242.694 C180.454,249.024 190.4,247.31 190.4,241.217 C190.402,225.69 192.119,210.282 192.809,194.779 C193.536,178.457 193.73,162.114 193.966,145.779 C194.199,129.533 194.5,113.291 195.24,97.059 C195.593,89.348 196.102,81.645 196.758,73.954 C197.111,69.809 196.966,62.595 199.749,59.447 C201.5,57.468 204.44,55.822 206.571,53.718 C210.731,49.609 213.577,44.401 215.155,38.81 C218.168,28.13 214.959,16.158 206.389,9.021 C191.529,-3.354 166.659,-1.481 150.329,6.691 C135.45,14.137 129.536,30.538 127.837,46.056 C125.837,64.331 129.305,83.139 132.79,101.024 C136.665,120.906 140.721,140.537 142.766,160.735 C145.684,189.564 144.239,218.339 143.501,247.218 C143.424,250.325 147.816,250.116 148.192,247.218 L148.192,247.218 Z" id="Shape"></path>
                    <path d="M206.843,19.938 C212.489,24.221 218.538,26.626 225.226,28.789 C232.109,31.015 239.272,33.102 246.417,34.201 C259.626,36.234 274.069,38.991 287.402,36.67 C295.916,35.189 304.205,32.564 312.908,32.344 C315.204,32.285 317.886,32.33 318.759,34.496 C319.048,35.218 318.982,35.509 318.802,36.126 C318.73,36.379 317.772,37.798 317.136,38.475 C312.578,43.326 305.408,46.068 299.323,48.368 C292.709,50.868 285.838,52.861 278.899,54.228 C276.224,54.754 275.052,54.773 271.41,54.837 C264.371,54.962 257.389,54.044 250.527,52.542 C243.748,51.059 237.125,48.792 230.857,45.824 C225.228,43.158 219.705,37.406 213.541,41.271 C210.59,43.122 210.59,47.313 213.541,49.164 C232.773,61.227 258.318,69.065 281.156,64.887 C295.536,62.256 311.676,56.925 323.022,47.462 C328.043,43.276 330.968,36.843 328.062,30.572 C324.429,22.731 316.149,22.067 308.521,22.826 C299.267,23.747 290.31,27.166 281.051,27.595 C265.521,28.312 249.616,25.885 234.549,22.379 C225.797,20.345 217.214,17.934 208.376,16.296 C206.071,15.87 205.046,18.576 206.843,19.938 L206.843,19.938 Z" id="Shape"></path>
                    <path d="M179.077,12.389 C166.316,8.841 156.34,20.949 159.25,32.992 C161.849,43.742 175.073,47.612 184.657,45.681 C196.184,43.359 202.095,30.013 196.698,19.827 C191.593,10.191 174.879,5.218 168.054,15.167 C166.945,16.784 168.761,18.566 170.401,18.221 C177.116,16.802 185.23,16.596 189.827,22.679 C194.665,29.08 189.608,37.14 182.815,38.997 C176.536,40.715 169.015,37.989 165.884,32.241 C163.871,28.548 164.817,23.325 167.322,20.164 C170.177,16.562 174.948,15.438 179.077,14.046 C179.863,13.781 179.928,12.625 179.077,12.389 L179.077,12.389 Z" id="Shape"></path>
                    <path d="M173.963,25.102 C173.761,24.882 173.526,24.704 173.279,24.535 C173.491,24.746 173.703,24.958 173.914,25.17 C173.806,24.97 173.679,24.762 173.497,24.619 C172.64,23.949 171.863,23.845 170.861,24.279 C170.591,24.396 170.37,24.601 170.152,24.796 C169.996,24.971 169.852,25.153 169.718,25.347 C170.07,24.897 170.019,24.962 169.567,25.545 C169.412,25.86 169.276,26.186 169.168,26.52 C169.084,26.787 169.128,26.715 169.3,26.307 C169.15,26.552 169.049,26.813 169,27.091 C168.807,28.015 168.886,29.064 169.059,29.987 C169.301,31.288 170.639,32.043 171.849,32.111 C173.182,32.186 174.514,32.263 175.849,32.302 C177.297,32.345 178.358,31.312 178.824,30.036 C179.4,28.458 179.976,26.89 180.18,25.217 C180.357,23.769 179.032,22.363 177.735,22.005 C175.545,21.398 172.546,21.108 170.923,23.116 C170.051,24.196 169.749,25.152 169.656,26.508 C169.625,26.952 169.453,28.545 169.709,26.977 C169.455,28.537 169.855,30.044 171.304,30.894 C172.948,31.857 175.08,31.269 176.049,29.65 C176.549,28.813 176.628,28.126 176.741,27.186 C176.76,27.036 176.776,26.885 176.793,26.735 C176.63,28.135 176.694,27.369 176.794,27.03 C176.466,28.139 176.465,27.753 176.657,27.409 C176.291,28.062 175.98,28.271 175.344,28.486 C176.196,28.198 174.69,28.508 175.4,28.474 C175.881,28.451 176.369,28.498 176.848,28.548 C175.738,27.438 174.626,26.326 173.517,25.217 C173.53,25.498 173.506,25.777 173.476,26.057 C173.587,25.012 173.387,26.494 173.324,26.758 C173.194,27.308 173.035,27.855 172.873,28.397 C173.865,27.642 174.856,26.887 175.849,26.132 C174.514,26.172 173.182,26.247 171.849,26.322 C172.779,27.03 173.708,27.738 174.639,28.446 C174.499,27.992 174.341,27.552 174.238,27.088 C174.169,26.776 173.811,25.734 174.07,26.659 C174.02,26.482 173.995,26.301 173.968,26.118 C174.025,26.519 174.057,26.885 173.838,27.253 C174.168,26.695 174.146,26.165 174.054,25.552 L174.054,26.657 C174.007,26.757 173.961,26.856 173.915,26.955 C173.562,27.226 173.209,27.497 172.857,27.769 C172.623,27.79 172.62,27.798 172.848,27.792 C174.274,27.818 174.871,26.084 173.963,25.102 L173.963,25.102 Z" id="Shape"></path>
                    <path d="M180.566,239.967 C183.644,246.905 191.431,250.627 198.146,253.184 C206.792,256.475 216.766,257.105 225.917,257.584 C243.533,258.51 261.33,257.784 278.735,254.9 C313.149,249.199 354.607,232.696 369.251,198.205 C371.196,193.623 365.313,189.879 362.446,194.227 C361.597,195.513 360.123,196.368 359.204,197.67 C357.617,199.918 360.225,202.884 362.663,202.168 C365.113,201.45 366.969,201.153 368.635,199.001 C366.572,197.409 364.509,195.818 362.447,194.227 C346.942,226.721 311.672,241.304 278.077,247.556 C262.137,250.523 246.008,250.947 229.836,250.729 C220.955,250.61 212.095,250.151 203.413,248.142 C195.333,246.272 189.181,242.808 182.6,237.935 C181.257,236.945 180.04,238.781 180.566,239.967 L180.566,239.967 Z" id="Shape"></path>
                    <path d="M145.723,239.218 C143.533,264.055 125.595,286.599 134.491,312.118 C139.548,326.626 151.692,336.865 165.215,343.306 C181.065,350.852 198.73,353.996 216.081,355.622 C233.681,357.271 251.483,356.927 269.066,355.255 C305.457,351.792 342.325,340.073 370.878,316.635 C388.93,301.817 399.942,281.979 407.274,260.102 C415.096,236.754 418.932,211.783 419.829,187.218 C419.981,183.048 414.491,182.078 412.415,185.209 C399.333,204.944 388.211,226.208 365.842,236.779 C367.449,238.863 369.058,240.947 370.665,243.031 C386.013,225.086 393.922,199.718 384.29,177.206 C382.845,173.828 377.911,175.192 377.011,178.158 C371.961,194.767 361.907,207.956 352.817,222.442 C350.716,225.787 355.733,229.776 358.338,226.703 C369.876,213.092 379.483,197.424 384.692,180.275 C382.265,180.592 379.838,180.909 377.412,181.227 C385.504,200.135 377.774,222.505 365.037,237.402 C362.04,240.906 365.731,245.605 369.86,243.654 C393.474,232.491 405.47,210.069 419.287,189.224 C416.815,188.555 414.346,187.886 411.873,187.216 C410.887,214.331 406.1,241.698 396.344,267.076 C387.018,291.336 370.343,309.755 348.078,322.909 C315.211,342.329 276.846,348.734 239.178,348.728 C212.422,348.724 182.246,346.138 159.253,331.128 C149.137,324.524 142.024,315.069 139.384,303.212 C136.953,292.285 140.343,281.614 143.197,271.137 C146.019,260.776 148.568,250.02 147.977,239.214 C147.893,237.755 145.849,237.783 145.723,239.218 L145.723,239.218 Z" id="Shape"></path>
                    <path d="M200.795,351.833 C205.296,360.592 209.24,369.215 211.064,378.951 C212.866,388.578 212.207,398.487 212.181,408.219 C213.729,407.039 215.276,405.861 216.824,404.682 C196.817,398.325 175.706,394.404 154.856,392.232 C143.359,391.035 131.635,390.59 120.194,392.523 C112.225,393.869 103.035,397.354 99.621,405.332 C98.595,407.731 99.433,409.838 101.855,410.825 C116.785,416.91 133.249,415.859 148.856,418.82 L148.856,411.619 C130.523,414.634 107.765,409.528 94.212,425.584 C92.665,427.417 92.78,430.122 94.966,431.438 C111.07,441.131 130.544,434.264 147.848,432.941 C147.222,430.628 146.596,428.318 145.97,426.004 C134.624,431.983 117.07,431.335 109.631,443.338 C108.298,445.487 109.649,448.053 111.858,448.811 C129.89,454.989 149.836,453.344 168.316,450.35 C187.612,447.223 206.653,441.621 224.767,434.305 C231.458,431.603 237.62,427.501 240.345,420.538 C243.239,413.151 242.28,404.799 241.808,397.076 C241.306,388.812 239.757,380.665 237.456,372.717 C235.538,366.088 232.862,357.885 226.77,353.927 C222.634,351.239 218.813,357.846 222.921,360.511 C227.723,363.624 229.442,372.227 230.846,377.309 C232.893,384.717 233.918,392.163 234.389,399.815 C234.78,406.165 235.66,413.465 232.603,419.32 C229.282,425.676 220.831,427.875 214.62,430.171 C198.5,436.13 181.765,440.605 164.803,443.367 C148.157,446.08 130.03,447.159 113.837,441.628 C114.579,443.452 115.321,445.275 116.064,447.101 C119.146,442.119 126.427,440.367 131.646,438.74 C137.724,436.844 144.057,435.422 149.727,432.435 C152.915,430.755 151.555,425.216 147.849,425.498 C132.262,426.687 113.209,433.722 98.73,425.001 C98.981,426.952 99.233,428.904 99.484,430.855 C111.627,416.476 134.287,421.538 150.84,418.82 C154.463,418.225 154.374,412.29 150.84,411.619 C135.242,408.656 118.744,409.692 103.841,403.614 C104.586,405.445 105.331,407.276 106.075,409.107 C109.016,402.239 117.248,400.487 123.922,399.458 C134.79,397.781 146.231,398.778 157.092,399.962 C176.493,402.077 196.205,405.993 214.872,411.757 C217.155,412.462 219.528,410.552 219.516,408.22 C219.41,388.827 217.5,364.589 202.709,350.36 C201.688,349.373 200.167,350.612 200.795,351.833 L200.795,351.833 Z" id="Shape"></path>
                    <path d="M252.522,353.583 C255.604,366.208 259.173,378.823 261.388,391.633 C262.511,398.128 263.421,405.049 262.431,411.624 C261.653,416.786 258.306,420.538 254.577,423.952 C244.874,432.834 232.336,438.729 220.968,445.129 C210.51,451.016 198.993,457.203 191.289,466.659 C189.252,469.158 190.555,472.576 193.849,472.837 C214.643,474.484 231.682,461.287 250.817,455.729 C249.635,453.702 248.456,451.672 247.275,449.645 C239.627,456.932 229.437,461.205 221.741,468.612 C215.834,474.297 211.136,485.863 221.492,489.951 C230.162,493.373 241.341,486.74 248.676,482.751 C256.946,478.253 265.545,471.075 273.827,467.767 C272.636,465.718 271.442,463.668 270.249,461.621 C263.987,466.873 249.582,484.191 260.914,491.479 C266.21,494.884 273.95,490.142 278.311,487.368 C286.723,482.015 293.895,475.169 298.791,466.428 C309.836,446.714 299.104,425.324 292.61,406.006 C286.591,388.108 288.738,366.922 276.595,351.475 C274.968,349.407 271.716,350.366 270.491,352.262 C269.219,354.234 268.067,356.295 267.331,358.53 C266.473,361.129 269.872,362.756 271.691,361.068 C273.662,359.242 275.712,358.516 277.202,356.184 C275.168,356.447 273.134,356.707 271.098,356.971 C280.485,368.727 279.568,385.869 282.843,399.856 C286.754,416.547 297.551,433.026 296.197,450.629 C295.064,465.346 280.946,480.075 267.397,484.712 C263.345,486.1 264.173,483.332 265.155,480.313 C266.905,474.928 271.215,470.376 275.447,466.824 C278.19,464.52 275.265,459.317 271.869,460.678 C264.976,463.436 258.791,468.241 252.474,472.074 C245.054,476.576 236.358,482.402 227.516,483.395 C225.037,483.672 222.413,483.27 222.497,480.277 C222.598,476.723 227.611,473.016 229.987,470.986 C236.981,465.009 245.768,461.141 252.419,454.798 C255.06,452.277 252.353,447.701 248.877,448.714 C230.477,454.074 213.787,467.171 193.846,465.605 C194.699,467.666 195.551,469.724 196.405,471.784 C204.814,461.45 217.788,455.173 229.196,448.787 C240.749,442.32 253.341,435.987 262.45,426.142 C271.187,416.703 269.978,404.497 267.89,392.651 C265.435,378.711 260.565,365.492 255.034,352.531 C254.404,351.042 252.166,352.127 252.522,353.583 L252.522,353.583 Z" id="Shape"></path>
                    <path d="M201.902,267.836 C219.823,276.84 242.179,278.525 261.962,277.296 C283.905,275.93 303.774,263.951 325.85,263.666 C324.857,261.937 323.865,260.206 322.871,258.477 C313.092,271.854 293.125,275.144 278.981,282.022 C275.425,283.75 277.461,288.709 280.848,288.92 C295.661,289.845 310.46,287.107 324.844,283.832 C323.264,282.628 321.682,281.423 320.1,280.218 C321.369,292.953 299.787,298.072 290.839,301.558 C286.299,303.326 287.996,309.789 292.858,308.878 C299.905,307.558 307.883,302.345 315.203,303.707 C315.962,303.85 315.742,303.616 315.369,305.239 C314.89,307.327 313.063,308.605 311.374,309.73 C306.629,312.888 300.94,314.639 295.519,316.217 C281.952,320.164 267.511,321.933 253.433,322.155 C243.883,322.306 234.304,321.529 224.853,320.202 C215.077,318.83 205.544,316.262 195.811,314.734 C191.272,314.022 189.413,320.16 193.892,321.695 C204.041,325.174 215.009,326.884 225.626,328.286 C237.361,329.837 249.124,330.467 260.951,329.844 C276.518,329.023 293.157,326.267 307.664,320.317 C312.948,318.15 318.452,315.39 321.642,310.452 C324.412,306.167 323.993,300.216 319.785,297.204 C315.805,294.357 309.13,296.215 304.904,297.306 C300.179,298.525 295.631,300.618 290.842,301.558 C291.515,303.997 292.187,306.438 292.861,308.878 C305.155,303.97 329.363,297.633 327.601,280.218 C327.351,277.746 325.404,276.019 322.855,276.603 C309.074,279.765 295.048,282.329 280.851,281.516 C281.474,283.816 282.097,286.116 282.72,288.413 C298.476,280.65 317.931,276.95 328.829,261.959 C330.395,259.802 328.282,256.73 325.85,256.769 C305.125,257.093 286.361,267.029 266.145,270.26 C255.868,271.903 244.778,271.013 234.444,270.281 C223.948,269.541 213.311,267.87 203.349,264.409 C201.337,263.711 200.007,266.886 201.902,267.836 L201.902,267.836 Z" id="Shape"></path>
                    <path d="M138.848,313.984 C121.665,311.982 106.185,303.048 92.045,293.63 C79.913,285.549 68.424,276.353 57.346,266.892 C35.362,248.119 12.819,224.703 7.025,195.343 C5.19,196.41 3.355,197.479 1.52,198.548 C14.703,212.111 27.612,226.163 45.916,232.601 C49.445,233.842 51.513,229.165 49.329,226.739 C39.563,215.879 29.23,205.199 24.341,191.137 C20.828,181.033 17.396,169.883 17.543,159.095 C17.564,157.502 17.751,155.861 18.581,154.477 C19.452,153.024 20.294,154.635 21.268,155.734 C24.756,159.677 26.882,165.162 29.237,169.812 C36.382,183.926 48.8,195.165 59.282,206.786 C62.215,210.037 66.654,205.911 64.985,202.387 C61.16,194.309 46.511,175.161 58.186,168.209 C75.371,157.977 99.88,175.434 106.535,191.156 C107.98,189.276 109.425,187.396 110.87,185.517 C101.748,183.11 91.171,180.107 85.328,190.048 C81.348,196.82 80.839,207.817 86.075,213.992 C91.846,220.802 100.5,224.926 108.585,219.113 C116.091,213.717 117.418,203.422 114.651,195.169 C112.721,196.653 110.791,198.137 108.861,199.62 C116.37,202.935 122.483,209.059 120.038,217.791 C117.725,226.054 108.598,229.414 100.85,229.252 C98.855,229.21 96.663,231.095 96.885,233.218 C98.642,250.109 114.521,263.248 127.031,273.034 C131.03,276.162 136.712,270.558 132.666,267.399 C127.187,263.12 121.938,258.574 117.084,253.591 C111.801,248.167 105.639,241.08 104.813,233.216 C103.491,234.537 102.169,235.86 100.848,237.181 C112.647,237.417 123.78,231.452 127.66,219.892 C131.621,208.088 123.181,197.369 112.837,192.813 C109.969,191.549 105.825,193.63 107.047,197.264 C108.811,202.506 108.68,208.088 104.63,212.232 C100.132,216.836 94.623,212.178 91.622,208.441 C88.732,204.841 90.251,197.715 92.047,193.974 C95.07,187.674 104.033,191.682 108.827,192.916 C112.379,193.831 114.441,190.252 113.162,187.277 C104.327,166.717 76.738,151.781 55.434,161.356 C36.129,170.031 53.05,194.153 58.71,206.047 C60.611,204.579 62.513,203.113 64.413,201.647 C57.165,193.644 49.664,185.872 42.847,177.49 C38.223,171.805 35.259,165.677 31.857,159.248 C29.611,155.002 26.388,148.462 21.312,147.009 C16.49,145.629 12.834,149.203 11.245,153.434 C9.299,158.613 10.62,165.215 11.5,170.463 C12.631,177.212 14.513,183.853 16.605,190.358 C21.907,206.835 32.93,219.091 44.366,231.694 C45.503,229.74 46.641,227.786 47.779,225.832 C30.672,219.901 18.744,206.201 6.175,193.886 C3.745,191.507 -0.037,193.92 0.669,197.091 C7.486,227.688 30.085,251.326 53.32,270.911 C65.25,280.967 77.768,290.543 90.846,299.052 C104.992,308.253 121.377,317.828 138.845,316.449 C140.458,316.325 140.413,314.166 138.848,313.984 L138.848,313.984 Z" id="Shape"></path>
                </g>
            </g>
        </g>
    </g>
</svg>