<?xml version="1.0" encoding="UTF-8" standalone="no"?><!DOCTYPE svg PUBLIC "-//W3C//DTD SVG 1.1//EN" "http://www.w3.org/Graphics/SVG/1.1/DTD/svg11.dtd"><svg width="100%" height="100%" viewBox="0 0 539 345" version="1.1" xmlns="http://www.w3.org/2000/svg" xmlns:xlink="http://www.w3.org/1999/xlink" xml:space="preserve" style="fill-rule:evenodd;clip-rule:evenodd;stroke-linejoin:round;stroke-miterlimit:1.41421;"><g id="house"><path d="M7.066,321.407c9.101,5.11 20.186,5.615 30.366,5.61c11.535,-0.006 23.062,-1.257 34.544,-2.227c12.976,-1.096 26.015,-0.683 39.024,-0.917c16.172,-0.291 32.338,-0.854 48.507,-1.26c32.869,-0.827 65.741,-0.333 98.612,-1.307c32.979,-0.977 65.938,-2.526 98.906,-3.795c30.132,-1.159 60.309,-1.063 90.428,-2.224c12.379,-0.478 24.727,-1.513 37.118,-1.673c11.106,-0.145 23.356,0.284 33.706,4.403c3.443,-7.275 6.886,-14.551 10.329,-21.826c-1.953,0 -3.896,-0.119 -5.845,-0.004c-9.657,0.573 -20.422,17.578 -7.222,21.111c1.767,0.473 3.468,1.249 5.296,1.607c5.408,1.061 11.078,-2.297 14.242,-6.47c2.965,-3.911 5.198,-12.741 -1.039,-15.224c-24.443,-9.729 -51.856,-6.028 -77.437,-4.479c-14.495,0.878 -29.055,0.742 -43.569,1.151c-16.464,0.465 -32.922,1.13 -49.378,1.822c-32.989,1.389 -65.967,3.045 -98.968,4.143c-32.934,1.096 -65.885,0.996 -98.814,2.066c-15.552,0.506 -31.098,1.176 -46.65,1.651c-13.066,0.398 -26.215,0.029 -39.249,1.056c-10.973,0.863 -21.882,2.354 -32.872,3.023c-8.837,0.538 -19.943,1.274 -27.737,-2.478c-8.71,-4.189 -22.022,10.78 -12.298,16.241Z" style="fill:#010101;fill-rule:nonzero;"/><path d="M4.66,318.695c15.87,2.635 32.088,2.803 48.146,3.191c16.302,0.394 32.607,0.635 48.914,0.725c32.714,0.179 65.426,-0.122 98.133,-0.794c65.779,-1.351 131.516,-4.4 197.297,-5.765c19.064,-0.396 38.133,-0.64 57.201,-0.697c9.816,-0.029 19.631,0.019 29.447,0.105c9.755,0.085 19.691,0.717 29.428,0.118c6.384,-0.393 12.496,-5.945 13.821,-12.13c1.238,-5.779 -2.927,-11.006 -9.021,-10.278c-1.386,0.166 -2.772,0.331 -4.159,0.497c-5.257,0.629 -10.007,4.033 -12.271,8.847c-2.191,4.657 -1.148,11.654 4.988,12.443c1.273,0.163 2.547,0.327 3.821,0.491c6.508,0.836 12.909,-3.28 15.66,-9.127c2.153,-4.579 1.313,-12.607 -5.221,-13.021c-16.562,-1.05 -33.397,0.094 -49.992,0.101c-16.423,0.007 -32.845,0.133 -49.266,0.39c-32.963,0.517 -65.911,1.547 -98.856,2.739c-65.639,2.376 -131.259,4.659 -196.94,5.459c-19.005,0.231 -38.014,0.327 -57.021,0.268c-19.551,-0.062 -39.22,-0.99 -58.717,0.671c-3.869,0.33 -7.455,3.079 -9.088,6.552c-1.676,3.566 -0.797,8.469 3.696,9.215Z" style="fill:#010101;fill-rule:nonzero;"/><path d="M42.723,125.526c-1.393,14.639 -0.174,29.595 -0.396,44.325c-0.243,16.04 -0.114,32.026 0.311,48.064c0.442,16.657 0.944,33.324 0.648,49.988c-0.273,15.369 -2.674,30.793 -1.908,46.166c4.592,-2.639 9.185,-5.277 13.777,-7.916c-1.638,-1.636 -3.281,-2.364 -5.554,-2.716c-3.502,-0.542 -6.566,2.222 -7.494,5.404c-0.355,1.22 -0.388,2.185 -0.577,3.42c-0.587,3.825 1.721,6.938 5.799,6.607c4.961,-0.401 8.803,-4.788 9.037,-9.604c1.527,-31.388 1.852,-62.479 0.271,-93.884c-0.801,-15.907 -1.385,-31.814 -1.806,-47.737c-0.377,-14.245 0.413,-31.076 -6.372,-43.968c-1.361,-2.582 -5.5,-0.631 -5.736,1.851Z" style="fill:#010101;fill-rule:nonzero;"/><path d="M475.499,119.916c-2.062,6.855 -2.121,14.298 -2.67,21.403c-0.634,8.192 -0.874,16.44 -1.087,24.653c-0.426,16.359 -0.427,32.842 0.249,49.193c0.646,15.601 1.701,30.689 -0.584,46.211c-1.104,7.487 -2.128,14.958 -2.431,22.528c-0.218,5.469 -0.515,14.146 3.122,18.663c5.047,6.27 15.334,-3.25 13.365,-9.541c-0.583,-1.866 -1.697,-3.143 -3.396,-4.093c-2.862,-1.605 -6.073,0.557 -7.924,2.632c-1.586,1.776 -2.489,3.821 -3.1,6.107c4.807,-1.549 9.613,-3.098 14.42,-4.646c-2.72,-12.695 -0.556,-25.086 0.841,-37.862c1.693,-15.494 0.015,-30.755 -0.985,-46.229c-0.966,-14.954 -1.056,-30.002 -1.377,-44.982c-0.16,-7.474 -0.266,-14.949 -0.273,-22.425c-0.01,-7.534 0.759,-15.712 -0.77,-23.108c-0.962,-4.652 -6.465,-1.613 -7.4,1.496Z" style="fill:#010101;fill-rule:nonzero;"/><path d="M7.86,136.146c14.829,-2.23 28.896,-10.161 42.287,-16.51c6.211,-2.944 12.393,-5.955 18.641,-8.821c2.634,-1.208 -1.98,0.81 0.812,-0.354c3.481,-1.452 6.952,-2.927 10.409,-4.436c7.169,-3.129 14.271,-6.394 21.326,-9.771c53.267,-25.506 104.737,-54.921 159.513,-77.221c4.251,-1.73 8.004,-4.876 9.012,-9.579c1.125,-5.248 -2.513,-8.548 -7.494,-8.54c-3.318,0.004 -6.428,-0.061 -9.434,1.654c-1.121,0.795 -2.237,1.597 -3.351,2.403c-0.588,0.629 -1.175,1.259 -1.762,1.888c1.838,-1.74 1.883,-1.989 0.133,-0.749c-3.531,2.184 -7.063,9.386 -0.884,10.792c0.813,0.166 1.616,0.369 2.41,0.607c-1.241,-0.996 -2.483,-1.993 -3.726,-2.99c2.861,5.34 7.205,5.022 12.622,5.012c0.506,-6.039 1.012,-12.08 1.518,-18.119c-54.683,22.282 -106.372,51.068 -159.339,76.992c-17.293,8.463 -35.015,15.957 -52.318,24.394c-7.521,3.667 -15.105,7.199 -22.629,10.858c-1.827,0.89 -3.663,1.76 -5.504,2.62c-0.855,0.399 -1.715,0.79 -2.574,1.18c-2.703,1.227 1.645,-0.704 -0.945,0.413c-1.922,0.828 -3.841,1.656 -5.732,2.555c-2.093,0.995 1.75,-0.728 -0.222,0.102c-0.496,0.208 -0.999,0.394 -1.507,0.567c-3.551,1.212 -6.684,4.208 -7.487,7.959c-0.836,3.892 2.01,7.729 6.225,7.094Z" style="fill:#010101;fill-rule:nonzero;"/><path d="M253.729,11.386c6.766,7.936 17.101,13.688 26.029,18.895c10.124,5.901 20.584,11.217 31.119,16.338c21.944,10.667 43.961,21.03 65.643,32.245c22.341,11.555 43.939,24.509 66.262,36.067c20.702,10.719 43.641,16.294 64.019,27.714c2.793,-5.903 5.587,-11.806 8.38,-17.709c-2.821,-0.033 -5.347,0.188 -8.061,1.034c-5.681,1.771 -11.228,10.18 -5.009,14.566c2.229,1.572 3.992,2.436 6.765,2.829c7.879,1.118 20.771,-12.239 10.712,-17.602c-20.108,-10.72 -42.366,-16.483 -62.862,-26.354c-11.209,-5.397 -21.932,-11.943 -32.869,-17.87c-11.132,-6.032 -22.33,-11.939 -33.599,-17.712c-21.385,-10.956 -43.33,-20.445 -65.3,-30.13c-10.782,-4.754 -21.447,-9.771 -31.891,-15.229c-10.152,-5.307 -19.842,-12.249 -30.349,-16.729c-4.921,-2.096 -13.216,4.689 -8.989,9.647Z" style="fill:#010101;fill-rule:nonzero;"/><path d="M81.87,17.831c-2.738,5.383 -2.318,11.854 -2.56,17.759c-0.266,6.509 0.005,13.076 0.247,19.581c0.499,13.369 1.053,26.742 0.676,40.122c4.906,-2.171 9.813,-4.342 14.721,-6.513c-1.18,-3.801 -5.221,-5.81 -9.016,-4.596c-4.396,1.405 -5.801,7.093 -5.705,11.108c0.098,4.164 4.51,5.523 7.905,4.438c4.059,-1.296 7.044,-5.012 7.163,-9.27c0.356,-12.615 -0.789,-25.153 -2.172,-37.678c-0.697,-6.32 -1.561,-12.612 -2.291,-18.927c-0.646,-5.594 -0.446,-13.013 -3.826,-17.713c-1.418,-1.973 -4.412,0.251 -5.142,1.689Z" style="fill:#010101;fill-rule:nonzero;"/><path d="M68.158,20.386c5.108,3.381 13.122,2.464 19.008,2.88c7.685,0.544 15.368,1.093 23.063,1.497c15.207,0.8 30.279,0.744 45.171,-2.797c8.507,-2.023 9.98,-16.333 -0.746,-13.762c-13.431,3.22 -27.567,2.821 -41.262,2.08c-7.133,-0.387 -14.252,-0.905 -21.393,-1.146c-7.424,-0.251 -15.23,-0.883 -22.002,2.668c-2.955,1.55 -5.273,6.307 -1.839,8.58Z" style="fill:#010101;fill-rule:nonzero;"/><path d="M143.03,14.193c-7.622,3.767 -6.842,17.484 -6.844,24.51c-0.002,4.617 0.064,9.244 -0.051,13.857c-0.112,4.465 -0.954,6.374 -2.143,8.918c-3.57,7.641 5.635,10.555 10.676,5.85c7.973,-7.439 6.844,-20.728 5.797,-30.583c-0.34,-3.21 -1.117,-25.674 -7.435,-22.552Z" style="fill:#010101;fill-rule:nonzero;"/><path d="M96.141,166.919c-2.054,10.472 -1.91,21.496 -2.141,32.125c-0.26,12.016 -0.287,24.021 -0.203,36.038c0.168,23.825 0.041,47.768 -2.095,71.514c4.874,-1.571 9.749,-3.142 14.623,-4.712c-0.348,-1.638 -1.306,-2.364 -1.895,-3.784c-2.438,-5.875 -9.569,-0.145 -10.782,3.475c-0.426,1.268 -1.59,3.159 -1.946,5.021c-0.739,3.862 1.848,6.992 5.852,6.668c5.136,-0.417 8.712,-4.836 9.12,-9.693c1.999,-23.72 2.043,-47.52 1.59,-71.304c-0.227,-11.867 -0.743,-23.708 -1.496,-35.554c-0.679,-10.674 -0.81,-21.73 -3.161,-32.2c-0.927,-4.129 -6.98,-0.072 -7.466,2.406Z" style="fill:#010101;fill-rule:nonzero;"/><path d="M92.709,165.122c7.634,2.434 16.646,1.5 24.575,1.526c9.184,0.03 18.376,-0.226 27.558,-0.401c17.733,-0.341 35.46,-0.962 53.195,-1.275c-1.738,-2.843 -3.477,-5.687 -5.215,-8.529c0.191,-0.204 0.384,-0.409 0.575,-0.614c-2.514,2.327 -4.763,8.959 0.608,9.624c3.939,0.488 6.594,-0.63 9.725,-3.033c4.784,-3.672 4.667,-12.195 -2.58,-11.98c-17.772,0.527 -35.544,1.138 -53.312,1.819c-8.563,0.329 -17.126,0.623 -25.692,0.867c-9.037,0.258 -18.567,-0.145 -27.346,2.233c-4.196,1.137 -7.548,8.023 -2.091,9.763Z" style="fill:#010101;fill-rule:nonzero;"/><path d="M199.979,153.271c-3.604,6.525 -3.214,14.822 -3.473,22.082c-0.31,8.713 -0.6,17.428 -0.928,26.14c-0.501,13.305 -1.814,26.423 -1.522,39.752c0.263,11.974 0.874,23.938 0.875,35.917c0.001,5.487 -0.146,10.993 -0.778,16.447c-0.543,4.69 -2.174,9.172 -2.488,13.858c-0.494,7.354 10.054,4.067 12.462,0.605c5.946,-8.549 5.494,-21.527 5.604,-31.507c0.137,-12.379 -0.792,-24.752 -1.38,-37.109c-0.608,-12.789 0.116,-25.412 0.267,-38.197c0.1,-8.551 -0.158,-17.069 -0.602,-25.607c-0.373,-7.187 0.682,-17.737 -4.077,-23.681c-1.181,-1.474 -3.331,0.159 -3.96,1.3Z" style="fill:#010101;fill-rule:nonzero;"/><path d="M295.114,168.709c-7.771,5.763 -4.334,21.997 -3.937,30.059c0.288,5.84 0.607,11.692 0.604,17.541c0,2.235 -0.051,3.565 -0.221,4.861c-0.087,0.666 -0.264,1.312 -0.363,1.974c-0.158,0.71 -0.199,1.42 -0.124,2.129c0.112,0.542 0.224,1.084 0.337,1.627c-0.143,-1.203 -0.223,-1.52 -0.243,-0.951c-0.315,4.932 5.903,4.656 8.779,3.204c10.623,-5.366 6.452,-24.502 5.522,-33.839c-0.388,-3.912 -1.212,-33.385 -10.354,-26.605Z" style="fill:#010101;fill-rule:nonzero;"/><path d="M293.074,173.753c9.509,4.395 20.436,5.188 30.779,5.771c11.051,0.624 22.077,0.479 33.129,-0.003c22.671,-0.991 45.279,-2.505 67.96,-3.266c8.053,-0.27 13.506,-14.889 3.09,-14.414c-3.152,0.144 -5.304,0.328 -8.142,1.858c-3.11,1.679 -5.087,5.572 -3.039,8.728c1.495,2.305 3.784,2.916 6.278,3.745c1.634,-4.777 3.268,-9.555 4.902,-14.331c-21.408,-0.6 -43.023,2.349 -64.364,3.697c-11.162,0.706 -22.362,1.135 -33.548,1.098c-11.069,-0.035 -22.125,-1.452 -33.18,-1.054c-3.12,0.114 -8.211,6.162 -3.865,8.171Z" style="fill:#010101;fill-rule:nonzero;"/><path d="M294.191,230.472c9.521,1.163 19.081,-0.799 28.574,-1.851c11.077,-1.228 22.157,-2.439 33.279,-3.187c21.31,-1.433 42.788,-1.508 63.815,2.66c1.005,-4.689 2.01,-9.378 3.014,-14.066c-2.673,0.671 -5.133,2.66 -6.471,3.7c-2.096,1.628 -3.05,4.685 -1.486,6.935c1.465,2.107 2.321,2.66 4.943,3.432c7.727,2.273 16.229,-12.495 6.773,-14.37c-21.583,-4.279 -43.934,-4.341 -65.792,-2.493c-11.237,0.95 -22.466,2.333 -33.584,4.217c-10.57,1.79 -21.564,3.129 -31.435,7.411c-2.322,1.008 -6.658,6.997 -1.63,7.612Z" style="fill:#010101;fill-rule:nonzero;"/><path d="M424.873,165.741c-4.53,8.713 -2.285,21.313 -2.235,30.737c0.031,5.867 -0.004,11.766 -0.373,17.623c-0.121,1.913 -0.421,3.83 -0.799,5.709c-0.092,0.435 -0.198,0.865 -0.317,1.293c0.339,-0.897 0.36,-0.975 0.065,-0.23c0.142,-0.351 -1.871,4.722 -0.502,1.625c-3.457,7.823 5.191,9.269 10.204,5.591c8.516,-6.249 6.578,-22.428 5.989,-31.515c-0.411,-6.33 -1.051,-12.639 -1.795,-18.938c-0.539,-4.569 -0.981,-10.195 -3.963,-13.952c-1.838,-2.318 -5.32,0.222 -6.274,2.057Z" style="fill:#010101;fill-rule:nonzero;"/><path d="M65.123,16.154c-0.911,6.073 -0.069,11.527 0.49,17.596c0.19,2.065 1.948,3.606 4.079,3.29c28.297,-4.2 56.825,-6.311 85.348,-3.052c3.428,0.392 6.994,-2.128 7.703,-5.556c0.908,-4.39 1.021,-9.063 0.116,-13.46c-0.687,-3.335 -4.16,-4.532 -7.05,-2.572c-1.808,1.227 -3.352,2.464 -4.907,3.997c-1.286,1.269 -2.395,4.399 0.308,4.867c1.926,0.334 3.123,0.796 5.134,0.633c-1.431,-1.153 -2.86,-2.307 -4.291,-3.46c0.74,3.576 0.854,7.268 0.116,10.853c2.568,-1.853 5.136,-3.704 7.703,-5.556c-29.489,-3.34 -60.293,-2.369 -89.374,3.695c1.718,0.626 3.436,1.253 5.153,1.88c-1.178,-5.128 -3.037,-10.084 -4.22,-15.188c-0.789,-3.406 -5.979,-0.167 -6.308,2.033Z" style="fill:#010101;fill-rule:nonzero;"/><path d="M80.415,20.789c-3.502,-0.33 -6.029,-1.916 -9.657,-1.415c-3.335,0.461 -7.444,6.153 -2.595,7.585c6.122,1.807 13.792,1.2 20.147,1.257c6.63,0.059 16.021,1.974 21.728,-1.888c1.755,-1.188 3.94,-3.939 2.103,-6.039c-2.281,-2.604 -4.746,-2.181 -8.036,-2.248c-3.89,-0.08 -7.8,0.068 -11.691,0.104c-7.403,0.064 -15.46,-0.38 -22.668,1.434c0.468,2.258 0.937,4.516 1.404,6.772c2.379,-1.688 5.276,-2.239 8.171,-2.363c1.43,-0.062 3.123,-3.008 1.094,-3.199Z" style="fill:#010101;fill-rule:nonzero;"/><path d="M2.581,333.751c-0.478,2.455 -0.896,5.108 -0.815,7.61c0.058,1.784 1.646,2.776 3.301,2.662c64.359,-4.433 128.944,-2.117 193.381,-3.917c66.08,-1.846 132.164,-3.698 198.269,-4.385c22.248,-0.231 44.631,0.501 66.844,-0.808c20.529,-1.209 41.388,-4.17 61.802,-0.288c1.177,-3.44 2.354,-6.881 3.531,-10.322c-2.975,-0.002 -5.733,0.912 -8.597,1.664c-3.093,0.813 -5.584,5.959 -1.545,7.211c2.752,0.852 5.026,1.51 7.917,1.508c4.748,-0.002 9.993,-9.102 3.531,-10.322c-14.174,-2.681 -28.679,-2.209 -43.003,-1.287c-14.971,0.962 -29.804,2.059 -44.814,2.086c-32.945,0.063 -65.89,0.502 -98.828,1.14c-65.676,1.271 -131.333,4.117 -197.021,4.507c-46.682,0.277 -93.29,0.111 -139.754,5.224c1.101,0.888 2.2,1.775 3.301,2.662c-0.189,-2.474 -1.55,-4.335 -2.501,-6.555c-1.085,-2.53 -4.629,-0.295 -4.999,1.61Z" style="fill:#010101;fill-rule:nonzero;"/><path d="M44.24,116.554c-1.06,5.672 -1.063,11.515 -2.323,17.141c2.476,-0.2 4.95,-0.401 7.426,-0.602c1.29,-6.48 3.747,-12.442 6.373,-18.477c-2.516,-0.117 -5.03,-0.235 -7.545,-0.353c-1.002,7.459 -3.286,14.604 -5.062,21.896c2.761,-0.223 5.522,-0.447 8.283,-0.67c0.966,-6.51 2.452,-12.915 3.263,-19.451c-2.805,0.567 -5.608,1.134 -8.413,1.7c0.134,7.782 0.822,15.608 -0.785,23.29c2.846,-0.574 5.691,-1.149 8.537,-1.725c0.099,-5.141 0.099,-10.275 0.065,-15.417c-0.034,-5.271 -6.942,-1.878 -8.299,0.672c-1.021,1.921 -2.178,3.761 -3.2,5.68c2.737,-0.222 5.475,-0.443 8.212,-0.665c-0.025,-3.773 -0.052,-7.546 -0.078,-11.318c-0.037,-5.346 -7.67,-1.719 -8.421,1.701c-1.956,8.898 -0.604,18.332 -0.103,27.252c0.147,2.631 3.627,1.704 4.636,0.226c2.707,-3.968 3.777,-6.53 3.833,-11.431c0.064,-5.685 -1.353,-11.064 -0.032,-16.723c-2.807,0.567 -5.614,1.135 -8.421,1.701c-0.026,3.79 -0.053,7.58 -0.078,11.369c-0.037,5.26 6.871,1.782 8.212,-0.665c1.05,-1.915 2.233,-3.749 3.282,-5.664c-2.767,0.224 -5.533,0.448 -8.299,0.672c-0.033,5.128 -0.034,10.249 0.065,15.376c0.104,5.339 7.88,1.87 8.537,-1.725c1.53,-8.363 0.799,-16.881 0.836,-25.331c0.022,-5.164 -7.876,-1.952 -8.413,1.7c-0.958,6.504 -2.416,12.914 -3.22,19.445c-0.731,5.941 7.339,3.661 8.283,-0.67c1.589,-7.287 3.746,-14.447 4.661,-21.864c0.636,-5.153 -6.062,-3.856 -7.545,-0.353c-2.771,6.549 -5.821,13.283 -6.592,20.422c-0.566,5.252 6.938,3.446 7.426,-0.602c0.698,-5.783 0.515,-11.743 -0.656,-17.437c-0.546,-2.658 -4.065,-1.132 -4.445,0.9Z" style="fill:#010101;fill-rule:nonzero;"/></g></svg>