<?xml version="1.0" encoding="UTF-8"?>
<svg width="538px" height="345px" viewBox="0 0 538 345" version="1.1" xmlns="http://www.w3.org/2000/svg" xmlns:xlink="http://www.w3.org/1999/xlink">
    <!-- Generator: Sketch 41 (35326) - http://www.bohemiancoding.com/sketch -->
    <title>house</title>
    <desc>Created with Sketch.</desc>
    <defs></defs>
    <g id="Page-1" stroke="none" stroke-width="1" fill="none" fill-rule="evenodd">
        <g id="Layer_1" transform="translate(-3748.000000, -5520.000000)" fill="#010101">
            <g id="Layer_1_3_">
                <g id="house" transform="translate(3748.000000, 5520.000000)">
                    <path d="M7.066,321.407 C16.167,326.517 27.252,327.022 37.432,327.017 C48.967,327.011 60.494,325.76 71.976,324.79 C84.952,323.694 97.991,324.107 111,323.873 C127.172,323.582 143.338,323.019 159.507,322.613 C192.376,321.786 225.248,322.28 258.119,321.306 C291.098,320.329 324.057,318.78 357.025,317.511 C387.157,316.352 417.334,316.448 447.453,315.287 C459.832,314.809 472.18,313.774 484.571,313.614 C495.677,313.469 507.927,313.898 518.277,318.017 C521.72,310.742 525.163,303.466 528.606,296.191 C526.653,296.191 524.71,296.072 522.761,296.187 C513.104,296.76 502.339,313.765 515.539,317.298 C517.306,317.771 519.007,318.547 520.835,318.905 C526.243,319.966 531.913,316.608 535.077,312.435 C538.042,308.524 540.275,299.694 534.038,297.211 C509.595,287.482 482.182,291.183 456.601,292.732 C442.106,293.61 427.546,293.474 413.032,293.883 C396.568,294.348 380.11,295.013 363.654,295.705 C330.665,297.094 297.687,298.75 264.686,299.848 C231.752,300.944 198.801,300.844 165.872,301.914 C150.32,302.42 134.774,303.09 119.222,303.565 C106.156,303.963 93.007,303.594 79.973,304.621 C69,305.484 58.091,306.975 47.101,307.644 C38.264,308.182 27.158,308.918 19.364,305.166 C10.654,300.977 -2.658,315.946 7.066,321.407 L7.066,321.407 Z" id="Shape"></path>
                    <path d="M4.66,318.695 C20.53,321.33 36.748,321.498 52.806,321.886 C69.108,322.28 85.413,322.521 101.72,322.611 C134.434,322.79 167.146,322.489 199.853,321.817 C265.632,320.466 331.369,317.417 397.15,316.052 C416.214,315.656 435.283,315.412 454.351,315.355 C464.167,315.326 473.982,315.374 483.798,315.46 C493.553,315.545 503.489,316.177 513.226,315.578 C519.61,315.185 525.722,309.633 527.047,303.448 C528.285,297.669 524.12,292.442 518.026,293.17 C516.64,293.336 515.254,293.501 513.867,293.667 C508.61,294.296 503.86,297.7 501.596,302.514 C499.405,307.171 500.448,314.168 506.584,314.957 C507.857,315.12 509.131,315.284 510.405,315.448 C516.913,316.284 523.314,312.168 526.065,306.321 C528.218,301.742 527.378,293.714 520.844,293.3 C504.282,292.25 487.447,293.394 470.852,293.401 C454.429,293.408 438.007,293.534 421.586,293.791 C388.623,294.308 355.675,295.338 322.73,296.53 C257.091,298.906 191.471,301.189 125.79,301.989 C106.785,302.22 87.776,302.316 68.769,302.257 C49.218,302.195 29.549,301.267 10.052,302.928 C6.183,303.258 2.597,306.007 0.964,309.48 C-0.712,313.046 0.167,317.949 4.66,318.695 L4.66,318.695 Z" id="Shape"></path>
                    <path d="M42.723,125.526 C41.33,140.165 42.549,155.121 42.327,169.851 C42.084,185.891 42.213,201.877 42.638,217.915 C43.08,234.572 43.582,251.239 43.286,267.903 C43.013,283.272 40.612,298.696 41.378,314.069 C45.97,311.43 50.563,308.792 55.155,306.153 C53.517,304.517 51.874,303.789 49.601,303.437 C46.099,302.895 43.035,305.659 42.107,308.841 C41.752,310.061 41.719,311.026 41.53,312.261 C40.943,316.086 43.251,319.199 47.329,318.868 C52.29,318.467 56.132,314.08 56.366,309.264 C57.893,277.876 58.218,246.785 56.637,215.38 C55.836,199.473 55.252,183.566 54.831,167.643 C54.454,153.398 55.244,136.567 48.459,123.675 C47.098,121.093 42.959,123.044 42.723,125.526 L42.723,125.526 Z" id="Shape"></path>
                    <path d="M475.499,119.916 C473.437,126.771 473.378,134.214 472.829,141.319 C472.195,149.511 471.955,157.759 471.742,165.972 C471.316,182.331 471.315,198.814 471.991,215.165 C472.637,230.766 473.692,245.854 471.407,261.376 C470.303,268.863 469.279,276.334 468.976,283.904 C468.758,289.373 468.461,298.05 472.098,302.567 C477.145,308.837 487.432,299.317 485.463,293.026 C484.88,291.16 483.766,289.883 482.067,288.933 C479.205,287.328 475.994,289.49 474.143,291.565 C472.557,293.341 471.654,295.386 471.043,297.672 C475.85,296.123 480.656,294.574 485.463,293.026 C482.743,280.331 484.907,267.94 486.304,255.164 C487.997,239.67 486.319,224.409 485.319,208.935 C484.353,193.981 484.263,178.933 483.942,163.953 C483.782,156.479 483.676,149.004 483.669,141.528 C483.659,133.994 484.428,125.816 482.899,118.42 C481.937,113.768 476.434,116.807 475.499,119.916 L475.499,119.916 Z" id="Shape"></path>
                    <path d="M7.86,136.146 C22.689,133.916 36.756,125.985 50.147,119.636 C56.358,116.692 62.54,113.681 68.788,110.815 C71.422,109.607 66.808,111.625 69.6,110.461 C73.081,109.009 76.552,107.534 80.009,106.025 C87.178,102.896 94.28,99.631 101.335,96.254 C154.602,70.748 206.072,41.333 260.848,19.033 C265.099,17.303 268.852,14.157 269.86,9.454 C270.985,4.206 267.347,0.906 262.366,0.914 C259.048,0.918 255.938,0.853 252.932,2.568 C251.811,3.363 250.695,4.165 249.581,4.971 C248.993,5.6 248.406,6.23 247.819,6.859 C249.657,5.119 249.702,4.87 247.952,6.11 C244.421,8.294 240.889,15.496 247.068,16.902 C247.881,17.068 248.684,17.271 249.478,17.509 C248.237,16.513 246.995,15.516 245.752,14.519 C248.613,19.859 252.957,19.541 258.374,19.531 C258.88,13.492 259.386,7.451 259.892,1.412 C205.209,23.694 153.52,52.48 100.553,78.404 C83.26,86.867 65.538,94.361 48.235,102.798 C40.714,106.465 33.13,109.997 25.606,113.656 C23.779,114.546 21.943,115.416 20.102,116.276 C19.247,116.675 18.387,117.066 17.528,117.456 C14.825,118.683 19.173,116.752 16.583,117.869 C14.661,118.697 12.742,119.525 10.851,120.424 C8.758,121.419 12.601,119.696 10.629,120.526 C10.133,120.734 9.63,120.92 9.122,121.093 C5.571,122.305 2.438,125.301 1.635,129.052 C0.799,132.944 3.645,136.781 7.86,136.146 L7.86,136.146 Z" id="Shape"></path>
                    <path d="M253.729,11.386 C260.495,19.322 270.83,25.074 279.758,30.281 C289.882,36.182 300.342,41.498 310.877,46.619 C332.821,57.286 354.838,67.649 376.52,78.864 C398.861,90.419 420.459,103.373 442.782,114.931 C463.484,125.65 486.423,131.225 506.801,142.645 C509.594,136.742 512.388,130.839 515.181,124.936 C512.36,124.903 509.834,125.124 507.12,125.97 C501.439,127.741 495.892,136.15 502.111,140.536 C504.34,142.108 506.103,142.972 508.876,143.365 C516.755,144.483 529.647,131.126 519.588,125.763 C499.48,115.043 477.222,109.28 456.726,99.409 C445.517,94.012 434.794,87.466 423.857,81.539 C412.725,75.507 401.527,69.6 390.258,63.827 C368.873,52.871 346.928,43.382 324.958,33.697 C314.176,28.943 303.511,23.926 293.067,18.468 C282.915,13.161 273.225,6.219 262.718,1.739 C257.797,-0.357 249.502,6.428 253.729,11.386 L253.729,11.386 Z" id="Shape"></path>
                    <path d="M81.87,17.831 C79.132,23.214 79.552,29.685 79.31,35.59 C79.044,42.099 79.315,48.666 79.557,55.171 C80.056,68.54 80.61,81.913 80.233,95.293 C85.139,93.122 90.046,90.951 94.954,88.78 C93.774,84.979 89.733,82.97 85.938,84.184 C81.542,85.589 80.137,91.277 80.233,95.292 C80.331,99.456 84.743,100.815 88.138,99.73 C92.197,98.434 95.182,94.718 95.301,90.46 C95.657,77.845 94.512,65.307 93.129,52.782 C92.432,46.462 91.568,40.17 90.838,33.855 C90.192,28.261 90.392,20.842 87.012,16.142 C85.594,14.169 82.6,16.393 81.87,17.831 L81.87,17.831 Z" id="Shape"></path>
                    <path d="M68.158,20.386 C73.266,23.767 81.28,22.85 87.166,23.266 C94.851,23.81 102.534,24.359 110.229,24.763 C125.436,25.563 140.508,25.507 155.4,21.966 C163.907,19.943 165.38,5.633 154.654,8.204 C141.223,11.424 127.087,11.025 113.392,10.284 C106.259,9.897 99.14,9.379 91.999,9.138 C84.575,8.887 76.769,8.255 69.997,11.806 C67.042,13.356 64.724,18.113 68.158,20.386 L68.158,20.386 Z" id="Shape"></path>
                    <path d="M143.03,14.193 C135.408,17.96 136.188,31.677 136.186,38.703 C136.184,43.32 136.25,47.947 136.135,52.56 C136.023,57.025 135.181,58.934 133.992,61.478 C130.422,69.119 139.627,72.033 144.668,67.328 C152.641,59.889 151.512,46.6 150.465,36.745 C150.125,33.535 149.348,11.071 143.03,14.193 L143.03,14.193 Z" id="Shape"></path>
                    <path d="M96.141,166.919 C94.087,177.391 94.231,188.415 94,199.044 C93.74,211.06 93.713,223.065 93.797,235.082 C93.965,258.907 93.838,282.85 91.702,306.596 C96.576,305.025 101.451,303.454 106.325,301.884 C105.977,300.246 105.019,299.52 104.43,298.1 C101.992,292.225 94.861,297.955 93.648,301.575 C93.222,302.843 92.058,304.734 91.702,306.596 C90.963,310.458 93.55,313.588 97.554,313.264 C102.69,312.847 106.266,308.428 106.674,303.571 C108.673,279.851 108.717,256.051 108.264,232.267 C108.037,220.4 107.521,208.559 106.768,196.713 C106.089,186.039 105.958,174.983 103.607,164.513 C102.68,160.384 96.627,164.441 96.141,166.919 L96.141,166.919 Z" id="Shape"></path>
                    <path d="M92.709,165.122 C100.343,167.556 109.355,166.622 117.284,166.648 C126.468,166.678 135.66,166.422 144.842,166.247 C162.575,165.906 180.302,165.285 198.037,164.972 C196.299,162.129 194.56,159.285 192.822,156.443 C193.013,156.239 193.206,156.034 193.397,155.829 C190.883,158.156 188.634,164.788 194.005,165.453 C197.944,165.941 200.599,164.823 203.73,162.42 C208.514,158.748 208.397,150.225 201.15,150.44 C183.378,150.967 165.606,151.578 147.838,152.259 C139.275,152.588 130.712,152.882 122.146,153.126 C113.109,153.384 103.579,152.981 94.8,155.359 C90.604,156.496 87.252,163.382 92.709,165.122 L92.709,165.122 Z" id="Shape"></path>
                    <path d="M199.979,153.271 C196.375,159.796 196.765,168.093 196.506,175.353 C196.196,184.066 195.906,192.781 195.578,201.493 C195.077,214.798 193.764,227.916 194.056,241.245 C194.319,253.219 194.93,265.183 194.931,277.162 C194.932,282.649 194.785,288.155 194.153,293.609 C193.61,298.299 191.979,302.781 191.665,307.467 C191.171,314.821 201.719,311.534 204.127,308.072 C210.073,299.523 209.621,286.545 209.731,276.565 C209.868,264.186 208.939,251.813 208.351,239.456 C207.743,226.667 208.467,214.044 208.618,201.259 C208.718,192.708 208.46,184.19 208.016,175.652 C207.643,168.465 208.698,157.915 203.939,151.971 C202.758,150.497 200.608,152.13 199.979,153.271 L199.979,153.271 Z" id="Shape"></path>
                    <path d="M295.114,168.709 C287.343,174.472 290.78,190.706 291.177,198.768 C291.465,204.608 291.784,210.46 291.781,216.309 C291.781,218.544 291.73,219.874 291.56,221.17 C291.473,221.836 291.296,222.482 291.197,223.144 C291.039,223.854 290.998,224.564 291.073,225.273 C291.185,225.815 291.297,226.357 291.41,226.9 C291.267,225.697 291.187,225.38 291.167,225.949 C290.852,230.881 297.07,230.605 299.946,229.153 C310.569,223.787 306.398,204.651 305.468,195.314 C305.08,191.402 304.256,161.929 295.114,168.709 L295.114,168.709 Z" id="Shape"></path>
                    <path d="M293.074,173.753 C302.583,178.148 313.51,178.941 323.853,179.524 C334.904,180.148 345.93,180.003 356.982,179.521 C379.653,178.53 402.261,177.016 424.942,176.255 C432.995,175.985 438.448,161.366 428.032,161.841 C424.88,161.985 422.728,162.169 419.89,163.699 C416.78,165.378 414.803,169.271 416.851,172.427 C418.346,174.732 420.635,175.343 423.129,176.172 C424.763,171.395 426.397,166.617 428.031,161.841 C406.623,161.241 385.008,164.19 363.667,165.538 C352.505,166.244 341.305,166.673 330.119,166.636 C319.05,166.601 307.994,165.184 296.939,165.582 C293.819,165.696 288.728,171.744 293.074,173.753 L293.074,173.753 Z" id="Shape"></path>
                    <path d="M294.191,230.472 C303.712,231.635 313.272,229.673 322.765,228.621 C333.842,227.393 344.922,226.182 356.044,225.434 C377.354,224.001 398.832,223.926 419.859,228.094 C420.864,223.405 421.869,218.716 422.873,214.028 C420.2,214.699 417.74,216.688 416.402,217.728 C414.306,219.356 413.352,222.413 414.916,224.663 C416.381,226.77 417.237,227.323 419.859,228.095 C427.586,230.368 436.088,215.6 426.632,213.725 C405.049,209.446 382.698,209.384 360.84,211.232 C349.603,212.182 338.374,213.565 327.256,215.449 C316.686,217.239 305.692,218.578 295.821,222.86 C293.499,223.868 289.163,229.857 294.191,230.472 L294.191,230.472 Z" id="Shape"></path>
                    <path d="M424.873,165.741 C420.343,174.454 422.588,187.054 422.638,196.478 C422.669,202.345 422.634,208.244 422.265,214.101 C422.144,216.014 421.844,217.931 421.466,219.81 C421.374,220.245 421.268,220.675 421.149,221.103 C421.488,220.206 421.509,220.128 421.214,220.873 C421.356,220.522 419.343,225.595 420.712,222.498 C417.255,230.321 425.903,231.767 430.916,228.089 C439.432,221.84 437.494,205.661 436.905,196.574 C436.494,190.244 435.854,183.935 435.11,177.636 C434.571,173.067 434.129,167.441 431.147,163.684 C429.309,161.366 425.827,163.906 424.873,165.741 L424.873,165.741 Z" id="Shape"></path>
                    <path d="M65.123,16.154 C64.212,22.227 65.054,27.681 65.613,33.75 C65.803,35.815 67.561,37.356 69.692,37.04 C97.989,32.84 126.517,30.729 155.04,33.988 C158.468,34.38 162.034,31.86 162.743,28.432 C163.651,24.042 163.764,19.369 162.859,14.972 C162.172,11.637 158.699,10.44 155.809,12.4 C154.001,13.627 152.457,14.864 150.902,16.397 C149.616,17.666 148.507,20.796 151.21,21.264 C153.136,21.598 154.333,22.06 156.344,21.897 C154.913,20.744 153.484,19.59 152.053,18.437 C152.793,22.013 152.907,25.705 152.169,29.29 C154.737,27.437 157.305,25.586 159.872,23.734 C130.383,20.394 99.579,21.365 70.498,27.429 C72.216,28.055 73.934,28.682 75.651,29.309 C74.473,24.181 72.614,19.225 71.431,14.121 C70.642,10.715 65.452,13.954 65.123,16.154 L65.123,16.154 Z" id="Shape"></path>
                    <path d="M80.415,20.789 C76.913,20.459 74.386,18.873 70.758,19.374 C67.423,19.835 63.314,25.527 68.163,26.959 C74.285,28.766 81.955,28.159 88.31,28.216 C94.94,28.275 104.331,30.19 110.038,26.328 C111.793,25.14 113.978,22.389 112.141,20.289 C109.86,17.685 107.395,18.108 104.105,18.041 C100.215,17.961 96.305,18.109 92.414,18.145 C85.011,18.209 76.954,17.765 69.746,19.579 C70.214,21.837 70.683,24.095 71.15,26.351 C73.529,24.663 76.426,24.112 79.321,23.988 C80.751,23.926 82.444,20.98 80.415,20.789 L80.415,20.789 Z" id="Shape"></path>
                    <path d="M2.581,333.751 C2.103,336.206 1.685,338.859 1.766,341.361 C1.824,343.145 3.412,344.137 5.067,344.023 C69.426,339.59 134.011,341.906 198.448,340.106 C264.528,338.26 330.612,336.408 396.717,335.721 C418.965,335.49 441.348,336.222 463.561,334.913 C484.09,333.704 504.949,330.743 525.363,334.625 C526.54,331.185 527.717,327.744 528.894,324.303 C525.919,324.301 523.161,325.215 520.297,325.967 C517.204,326.78 514.713,331.926 518.752,333.178 C521.504,334.03 523.778,334.688 526.669,334.686 C531.417,334.684 536.662,325.584 530.2,324.364 C516.026,321.683 501.521,322.155 487.197,323.077 C472.226,324.039 457.393,325.136 442.383,325.163 C409.438,325.226 376.493,325.665 343.555,326.303 C277.879,327.574 212.222,330.42 146.534,330.81 C99.852,331.087 53.244,330.921 6.78,336.034 C7.881,336.922 8.98,337.809 10.081,338.696 C9.892,336.222 8.531,334.361 7.58,332.141 C6.495,329.611 2.951,331.846 2.581,333.751 L2.581,333.751 Z" id="Shape"></path>
                    <path d="M44.24,116.554 C43.18,122.226 43.177,128.069 41.917,133.695 C44.393,133.495 46.867,133.294 49.343,133.093 C50.633,126.613 53.09,120.651 55.716,114.616 C53.2,114.499 50.686,114.381 48.171,114.263 C47.169,121.722 44.885,128.867 43.109,136.159 C45.87,135.936 48.631,135.712 51.392,135.489 C52.358,128.979 53.844,122.574 54.655,116.038 C51.85,116.605 49.047,117.172 46.242,117.738 C46.376,125.52 47.064,133.346 45.457,141.028 C48.303,140.454 51.148,139.879 53.994,139.303 C54.093,134.162 54.093,129.028 54.059,123.886 C54.025,118.615 47.117,122.008 45.76,124.558 C44.739,126.479 43.582,128.319 42.56,130.238 C45.297,130.016 48.035,129.795 50.772,129.573 C50.747,125.8 50.72,122.027 50.694,118.255 C50.657,112.909 43.024,116.536 42.273,119.956 C40.317,128.854 41.669,138.288 42.17,147.208 C42.317,149.839 45.797,148.912 46.806,147.434 C49.513,143.466 50.583,140.904 50.639,136.003 C50.703,130.318 49.286,124.939 50.607,119.28 C47.8,119.847 44.993,120.415 42.186,120.981 C42.16,124.771 42.133,128.561 42.108,132.35 C42.071,137.61 48.979,134.132 50.32,131.685 C51.37,129.77 52.553,127.936 53.602,126.021 C50.835,126.245 48.069,126.469 45.303,126.693 C45.27,131.821 45.269,136.942 45.368,142.069 C45.472,147.408 53.248,143.939 53.905,140.344 C55.435,131.981 54.704,123.463 54.741,115.013 C54.763,109.849 46.865,113.061 46.328,116.713 C45.37,123.217 43.912,129.627 43.108,136.158 C42.377,142.099 50.447,139.819 51.391,135.488 C52.98,128.201 55.137,121.041 56.052,113.624 C56.688,108.471 49.99,109.768 48.507,113.271 C45.736,119.82 42.686,126.554 41.915,133.693 C41.349,138.945 48.853,137.139 49.341,133.091 C50.039,127.308 49.856,121.348 48.685,115.654 C48.139,112.996 44.62,114.522 44.24,116.554 L44.24,116.554 Z" id="Shape"></path>
                </g>
            </g>
        </g>
    </g>
</svg>