<?xml version="1.0" encoding="UTF-8"?>
<svg width="233px" height="551px" viewBox="0 0 233 551" version="1.1" xmlns="http://www.w3.org/2000/svg" xmlns:xlink="http://www.w3.org/1999/xlink">
    <!-- Generator: Sketch 41 (35326) - http://www.bohemiancoding.com/sketch -->
    <title>icecream</title>
    <desc>Created with Sketch.</desc>
    <defs></defs>
    <g id="Page-1" stroke="none" stroke-width="1" fill="none" fill-rule="evenodd">
        <g id="Layer_1" transform="translate(-1794.000000, -4056.000000)" fill="#010101">
            <g id="Layer_1_3_">
                <g id="icecream" transform="translate(1794.000000, 4056.000000)">
                    <path d="M135.916,544.781 C136.932,540.419 133.293,533.907 131.834,530.031 C128.717,521.751 125.469,513.524 122.252,505.283 C112.008,479.041 102.867,452.289 93.839,425.608 C83.408,394.782 73.469,363.793 64.03,332.649 C54.715,301.915 46.188,270.831 35.78,240.447 C35.574,239.846 35.369,239.246 35.164,238.645 C33.99,235.214 28.936,238.994 29.552,241.844 C36.232,272.841 45.21,303.434 54.427,333.761 C63.878,364.859 73.763,395.835 84.409,426.545 C93.761,453.524 103.246,480.581 114.312,506.913 C117.646,514.848 121.07,522.741 124.514,530.626 C126.009,534.049 127.49,537.469 129.05,540.86 C129.573,541.996 131.619,545.441 131.646,545.64 C132.007,548.332 135.497,546.58 135.916,544.781 L135.916,544.781 Z" id="Shape"></path>
                    <path d="M226.962,239.816 C218.313,251.284 213.784,265.867 209.081,279.286 C204.222,293.149 200.157,307.274 195.724,321.276 C191.027,336.104 185.645,350.683 181.189,365.593 C176.676,380.695 172.795,395.973 169.184,411.314 C163.034,437.445 157.483,463.734 151.675,489.943 C148.284,505.247 144.469,521.602 137.279,535.607 C136.55,537.024 135.708,538.315 134.737,539.577 C134.191,540.284 134.742,539.725 133.808,540.534 C134.496,539.938 135.32,539.701 136.224,539.814 C129.329,538.952 125.031,550.754 132.689,550.148 C139.209,549.629 142.608,543.094 145.072,537.878 C148.676,530.249 151.263,522.057 153.705,513.997 C159.1,496.176 162.832,477.85 166.766,459.669 C173.225,429.815 179.515,399.932 187.745,370.501 C191.973,355.386 197.209,340.647 202.028,325.724 C206.606,311.55 210.843,297.259 215.2,283.016 C217.528,275.403 220.066,267.868 222.782,260.385 C225.2,253.719 228.036,247.241 229.727,240.336 C230.182,238.467 227.705,238.832 226.962,239.816 L226.962,239.816 Z" id="Shape"></path>
                    <path d="M33.238,248.896 C40.265,247.459 47.243,245.435 54.092,248.722 C58.5,250.838 60.532,255.756 62.587,259.868 C66.695,268.092 71.557,272.885 80.355,275.554 C88.309,277.967 96.711,278.478 104.66,280.951 C111.827,283.183 120.513,290.291 119.014,298.908 C117.675,306.617 130.393,303.384 129.493,296.791 C129.146,294.268 128.625,292.187 126.199,291.015 C125.037,290.452 123.432,290.85 122.55,291.774 C120.509,293.909 119.392,295.938 119.015,298.91 C122.426,297.81 125.837,296.711 129.248,295.612 C127.422,290.472 127.23,285.92 123.831,281.327 C121.22,277.802 117.183,275.363 113.188,273.731 C104.477,270.17 94.911,269.932 85.8,268.015 C82.017,267.219 78.046,265.998 75.13,263.345 C71.176,259.744 69.085,254.261 66.323,249.787 C59.04,237.992 43.263,239.016 32.465,245.172 C30.457,246.319 30.452,249.464 33.238,248.896 L33.238,248.896 Z" id="Shape"></path>
                    <path d="M20.459,119.662 C11.187,124.308 4.714,134.453 3.283,144.597 C1.713,155.725 5.965,166.194 13.515,174.265 C30.811,192.751 58.649,199.35 82.729,202.506 C109.704,206.042 136.939,206.585 163.896,210.52 C174.38,212.049 185.663,213.287 195.18,218.145 C202.16,221.708 209.032,225.666 215.469,230.144 C216.097,230.581 216.711,231.039 217.323,231.498 C216.571,230.933 218.541,233.481 217.436,231.625 C217.87,232.353 218.265,233.103 218.745,233.803 C219.212,234.347 219.764,234.754 220.398,235.027 C219.502,234.122 219.207,233.902 219.513,234.368 C219.117,233.355 218.724,232.342 218.329,231.329 C223.683,225.189 224.978,222.877 222.22,224.393 C218.644,226.253 215.394,232.52 219.901,235.225 C228.184,240.199 238.482,226.041 229.534,220.41 C227.825,219.335 224.808,217.163 222.216,215.484 C218.629,213.161 214.916,211.031 211.181,208.959 C203.611,204.759 196.814,202.035 188.283,200.183 C173.253,196.918 157.892,195.377 142.607,193.882 C116.968,191.374 90.904,191.905 65.627,186.442 C44.356,181.843 13.575,169.582 12.774,143.901 C12.502,135.125 16.803,127.919 21.643,121.012 C22.331,120.027 21.51,119.136 20.459,119.662 L20.459,119.662 Z" id="Shape"></path>
                    <path d="M27.365,181.618 C22.501,175.416 12.262,185.304 9.172,188.914 C3.034,196.085 0.856,204.944 0.986,214.222 C1.103,222.61 4.089,233.346 10.944,238.623 C16.173,242.65 22.302,246.313 28.431,248.803 C34.615,251.314 44.053,240.75 37.03,237.452 C32.809,235.472 28.622,233.505 24.56,231.202 C22.629,230.107 20.612,228.956 18.896,227.535 C16.46,225.516 15.252,221.328 14.254,218.438 C11.983,211.866 11.628,203.619 14.446,197.203 C15.562,194.66 16.686,192.053 18.675,190.055 C20.946,187.775 24.189,187.24 26.594,185.199 C27.592,184.352 28.262,182.763 27.365,181.618 L27.365,181.618 Z" id="Shape"></path>
                    <path d="M58.758,65.278 C49.536,64.111 41.195,66.176 34.345,72.72 C28.557,78.25 25.578,86.033 26.155,94 C27.815,117.018 54.175,126.125 72.991,130.247 C101.078,136.399 130.294,134.63 158.138,142.289 C170.4,145.662 182.32,151.569 192.671,158.943 C201.958,165.558 209.734,175.143 209.653,186.953 C209.632,190.319 208.938,193.673 208.105,196.92 C207.776,198.203 207.307,199.393 206.776,200.604 C206.137,202.056 205.448,201.965 207.062,201.087 C199.384,205.262 202.225,216.368 211.247,212.025 C220.45,207.595 222.202,194.291 222.69,185.349 C223.334,173.581 217.483,163.709 209.414,155.581 C191.026,137.064 163.217,129.172 138.106,126.123 C110.562,122.778 79.485,124.894 54.085,112.011 C41.086,105.416 26.951,85.605 43.362,74.532 C47.799,71.538 53.131,69.34 58.22,67.78 C59.111,67.505 60.321,65.475 58.758,65.278 L58.758,65.278 Z" id="Shape"></path>
                    <path d="M88.659,30.491 C84.411,30.184 81.1,30.043 76.939,31.237 C72.876,32.403 68.924,35.235 65.869,38.067 C60.188,43.333 56.638,51.218 58.204,58.995 C61.97,77.694 86.549,79.978 101.848,81.703 C120.666,83.824 139.683,84.725 158.15,89.218 C174.741,93.253 191.028,101.409 198.298,117.72 C201.683,125.314 202.242,135.45 196.488,142.033 C191.842,147.347 197.639,152.095 203.051,149.512 C213.479,144.534 214.386,129.784 212.877,119.847 C211.539,111.035 206.248,102.585 200.065,96.332 C187.314,83.432 168.444,78.532 151.102,75.728 C132.684,72.749 113.965,72.425 95.515,69.731 C86.776,68.456 77.279,66.729 71.035,59.925 C65.871,54.298 67.147,46.964 71.792,41.571 C75.491,37.275 82.84,33.914 88.21,32.574 C88.974,32.384 89.936,30.583 88.659,30.491 L88.659,30.491 Z" id="Shape"></path>
                    <path d="M148.583,11.65 C138.856,11.027 129.77,16.16 125.074,24.702 C119.778,34.335 125.976,44.575 134.611,49.213 C143.519,53.999 153.761,54.923 162.582,60.109 C166.505,62.415 170.817,65.638 171.718,70.403 C172.188,72.892 171.68,75.561 170.271,77.671 C169.671,78.568 171.435,77.859 169.217,77.844 C166.814,77.825 164.847,78.341 162.979,79.981 C159.239,83.265 159.718,90.81 166.473,90.65 C169.377,90.581 171.978,89.703 174.475,88.242 C180.149,84.921 183.378,78.318 184.413,72.05 C186.388,60.085 176.686,52.538 167.166,47.946 C158.003,43.527 147.312,43.461 138.393,38.539 C134.127,36.186 131.289,31.018 132.148,26.144 C133.147,20.477 140.368,17.312 144.862,14.924 C145.961,14.389 147.076,13.889 148.207,13.423 C148.721,13.201 149.761,11.725 148.583,11.65 L148.583,11.65 Z" id="Shape"></path>
                    <path d="M92.667,32.351 C93.034,29.593 92.527,26.84 93.574,24.17 C94.633,21.47 96.792,19.554 99.04,17.827 C104.683,13.494 112.575,11.568 119.427,10.323 C127.309,8.891 135.42,8.351 143.402,9.167 C149.426,9.784 155.038,12.879 160.857,13.309 C162.72,13.447 165.392,11.828 165.055,9.624 C163.9,2.061 152.786,1.043 146.577,0.459 C136.763,-0.463 126.789,0.447 117.206,2.664 C108.504,4.679 99.547,8.179 92.857,14.256 C88.133,18.548 82.717,28.57 88.005,34.44 C89.478,36.074 92.427,34.156 92.667,32.351 L92.667,32.351 Z" id="Shape"></path>
                    <path d="M52.252,243.845 C51.82,249.927 66.578,251.095 70.419,251.573 C81.752,252.984 93.137,253.791 104.528,254.602 C117.593,255.533 130.736,255.961 143.83,255.519 C150.244,255.302 156.653,254.769 163.012,253.911 C169.408,253.048 176.42,252.135 181.925,248.565 C183.247,247.707 184.904,244.621 182.284,244.16 C177.161,243.26 171.73,244.796 166.659,245.571 C160.293,246.544 153.871,247.131 147.444,247.519 C134.32,248.311 121.141,247.852 108.024,247.184 C97.622,246.654 87.199,245.813 76.786,245.584 C71.94,245.479 67.107,244.955 62.309,244.291 C59.303,243.875 56.115,242.016 53.111,242.733 C52.606,242.854 52.288,243.36 52.252,243.845 L52.252,243.845 Z" id="Shape"></path>
                    <path d="M24.875,133.818 C17.081,138.232 17.576,148.958 21.934,155.575 C27.582,164.153 38.441,168.866 47.603,172.526 C58.428,176.851 69.791,179.907 81.194,182.266 C88.524,183.783 96.133,185.152 103.642,184.957 C105.423,184.911 108.229,181.514 105.815,180.365 C100.308,177.746 93.928,176.573 88.027,175.194 C77.768,172.797 67.587,170.065 57.604,166.694 C48.513,163.625 38.877,159.655 31.523,153.33 C28.743,150.939 26.419,148.016 25.464,144.434 C24.556,141.023 26.193,137.621 26.082,134.256 C26.059,133.613 25.31,133.571 24.875,133.818 L24.875,133.818 Z" id="Shape"></path>
                    <path d="M19.421,204.791 C19.098,209.017 18.733,212.437 20.795,216.391 C22.791,220.215 25.833,223.061 29.241,225.621 C37.132,231.553 47.386,234.142 56.904,236.013 C74.931,239.557 94.561,240.502 112.745,237.474 C114.269,237.22 116.625,234.132 114.05,233.659 C97.512,230.619 80.332,231.416 63.674,228.817 C54.214,227.339 44.821,224.951 36.225,220.669 C30.041,217.588 22.64,211.193 20.858,204.156 C20.636,203.28 19.462,204.25 19.421,204.791 L19.421,204.791 Z" id="Shape"></path>
                    <path d="M46.195,83.035 C36.197,94.761 53.674,104.845 62.83,108.56 C74.639,113.353 89.817,117.883 102.728,116.555 C104.164,116.407 106.578,113.784 104.536,112.735 C100.658,110.741 96.029,109.881 91.809,108.887 C85.062,107.297 78.345,105.573 71.746,103.444 C61.367,100.095 49.956,95.094 48.437,83.145 C48.272,81.839 46.768,82.362 46.195,83.035 L46.195,83.035 Z" id="Shape"></path>
                    <path d="M80.551,48.685 C79.095,63.346 104.26,67.548 114.763,67.393 C116.35,67.369 117.99,65.004 116.424,63.881 C111.571,60.398 104.395,59.593 98.773,57.895 C92.494,55.998 87.095,52.976 83.531,47.349 C82.759,46.131 80.652,47.673 80.551,48.685 L80.551,48.685 Z" id="Shape"></path>
                    <path d="M146.339,158.657 C145.864,159.5 145.333,160.406 145.216,161.378 C145.106,162.294 145.028,163.218 144.987,164.14 C144.936,165.26 145.222,166.442 145.489,167.505 C145.878,169.065 147.151,170.88 148.704,171.47 C150.058,171.983 151.102,172.288 152.597,172.112 C154.41,171.897 155.334,171.459 156.981,170.72 C158.448,170.063 159.694,168.952 160.923,167.937 C163.883,165.49 166.278,162.188 167.311,158.473 C167.88,156.42 167.546,153.605 165.969,152.02 C164.041,150.082 161.455,149.645 158.82,149.848 C157.091,149.981 155.257,150.495 153.826,151.502 C153.032,152.061 152.223,152.603 151.46,153.2 C149.66,154.607 148.264,156.943 147.788,159.166 C148.545,155.631 147.51,160.649 147.619,161.257 C148.303,159.268 148.987,157.278 149.671,155.286 C149.593,155.372 149.515,155.459 149.438,155.546 C147.737,157.475 146.863,160.732 147.801,163.185 C148.759,165.684 151.303,166.707 153.82,166.542 C153.903,166.537 153.986,166.532 154.069,166.527 C152.823,166.293 151.577,166.059 150.331,165.824 C150.37,165.845 150.409,165.867 150.448,165.888 C149.957,165.496 149.466,165.107 148.973,164.715 C148.978,164.723 148.984,164.73 148.989,164.736 C149.886,165.718 150.993,166.324 152.303,166.554 C153.738,166.785 155.143,166.672 156.523,166.211 C156.717,166.169 156.912,166.123 157.105,166.083 C156.372,166.231 155.636,166.379 154.902,166.527 C156.543,166.203 158.046,166.055 159.465,165.04 C160.235,164.491 160.986,163.957 161.741,163.409 C161.05,163.903 160.356,164.398 159.666,164.892 C160.04,164.624 160.429,164.373 160.85,164.186 C160.158,164.492 159.462,164.799 158.769,165.105 C158.96,165.023 159.156,164.953 159.358,164.91 C158.68,165.047 158.004,165.183 157.327,165.32 C157.452,165.296 157.578,165.281 157.706,165.285 C157.073,165.256 156.439,165.226 155.807,165.198 C155.915,165.203 156.019,165.219 156.121,165.254 C155.563,165.062 155.008,164.867 154.451,164.675 C154.522,164.701 154.594,164.735 154.656,164.779 C154.207,164.422 153.757,164.064 153.306,163.706 C153.362,163.761 153.407,163.82 153.446,163.887 C153.151,163.397 152.856,162.907 152.561,162.416 C152.627,162.534 152.671,162.659 152.701,162.791 C152.584,162.227 152.467,161.661 152.349,161.097 C152.391,161.315 152.395,161.535 152.378,161.757 C152.429,161.154 152.48,160.552 152.53,159.948 C152.49,160.4 152.376,160.842 152.229,161.269 C152.433,160.669 152.638,160.071 152.842,159.473 C152.583,160.215 152.23,160.923 151.821,161.595 C152.157,161.041 152.493,160.49 152.829,159.937 C152.541,160.406 152.234,160.885 151.867,161.295 C152.322,160.808 152.777,160.319 153.232,159.831 C152.814,160.278 152.366,160.696 151.87,161.057 C152.404,160.674 152.937,160.292 153.473,159.911 C153.173,160.125 152.861,160.316 152.524,160.468 C153.083,160.222 153.638,159.975 154.197,159.729 C153.981,159.822 153.76,159.898 153.532,159.947 C154.085,159.836 154.637,159.724 155.191,159.613 C155.007,159.649 154.824,159.666 154.636,159.659 C155.157,159.683 155.679,159.707 156.201,159.731 C156.035,159.721 155.875,159.692 155.717,159.642 C156.179,159.803 156.641,159.962 157.104,160.123 C156.901,160.053 156.717,159.949 156.548,159.815 C156.922,160.113 157.297,160.411 157.672,160.709 C157.439,160.517 157.253,160.281 157.096,160.023 C157.341,160.43 157.586,160.836 157.83,161.243 C157.514,160.701 157.331,160.097 157.201,159.485 C157.297,159.949 157.392,160.414 157.489,160.878 C157.342,160.153 157.189,159.43 157.041,158.705 C157.136,159.163 157.229,159.622 157.325,160.081 C157.244,159.676 157.179,159.267 157.129,158.855 C156.963,157.545 156.821,157.386 156.108,156.287 C156.059,156.212 156.008,156.14 155.961,156.065 C155.858,155.91 155.763,155.752 155.666,155.595 C155.097,154.972 154.395,154.587 153.563,154.443 C152.657,154.296 151.764,154.368 150.89,154.66 C148.825,155.323 147.377,156.813 146.339,158.657 L146.339,158.657 Z" id="Shape"></path>
                    <path d="M175.996,165.965 C175.097,167.539 174.976,169.028 175.521,170.746 C175.472,169.885 175.424,169.023 175.376,168.162 C174.806,170.121 175.64,171.457 176.628,173.012 C177.401,174.23 179.386,174.881 180.653,175.224 C182.362,175.683 184.481,174.981 185.944,174.147 C187.717,173.135 189.225,171.574 190.097,169.72 C190.819,168.189 191.13,166.348 190.507,164.723 C189.677,162.559 187.442,161.617 185.248,161.787 C184.052,161.881 182.943,162.043 181.759,162.308 C184.663,161.663 180.307,162.646 180.833,162.477 C179.568,162.88 178.832,163.451 177.781,164.249 C179.178,163.623 180.576,162.996 181.972,162.37 C180.344,162.629 178.662,162.947 177.451,164.201 C178.53,163.469 178.739,163.314 178.077,163.742 C177.143,164.337 176.542,165.008 175.996,165.965 L175.996,165.965 Z" id="Shape"></path>
                    <path d="M119.748,158.665 C120.159,158.774 120.568,158.899 120.985,158.978 C122.149,159.201 123.631,158.888 124.736,158.568 C127.171,157.864 129.333,155.598 129.864,153.117 C130.063,152.249 130.016,151.396 129.72,150.558 C129.508,150.204 129.296,149.852 129.084,149.498 C128.501,148.86 127.783,148.468 126.931,148.317 C125.261,147.739 123.539,148.281 121.89,148.66 C120.892,148.99 120,149.503 119.212,150.2 C118.089,151.184 117.201,152.506 116.885,153.98 C116.69,154.827 116.737,155.66 117.024,156.478 C117.505,157.731 118.515,158.336 119.748,158.665 L119.748,158.665 Z" id="Shape"></path>
                    <path d="M140.323,99.774 C139.312,104.405 142.55,107.831 146.646,109.153 C149.256,109.995 152.509,108.778 154.752,107.538 C157.48,106.032 159.749,103.537 161.381,100.92 C162.563,99.025 163.575,97.221 163.451,94.897 C163.361,93.206 162.397,90.943 160.655,90.295 C157.708,89.202 155.189,88.931 152.096,89.724 C148.054,90.761 145.233,93.671 143.138,97.141 C141.747,99.445 141.841,103.017 143.64,105.068 C145.472,107.155 148.932,107.623 151.434,106.595 C153.383,105.794 154.755,105.09 156.387,103.719 C157.155,103.115 156.749,103.394 155.171,104.556 C154.692,104.76 154.212,104.962 153.732,105.166 C150.766,105.142 150.003,105.231 151.438,105.437 C150.201,102.349 148.961,99.26 147.723,96.17 C147.479,96.747 147.221,97.305 146.931,97.858 C147.668,96.705 147.785,96.484 147.278,97.196 C148.443,96.031 148.698,95.751 148.044,96.355 C148.487,96.036 148.93,95.717 149.373,95.398 C150.896,94.8 151.273,94.626 150.502,94.874 C152.002,94.641 152.375,94.548 151.623,94.601 C152.989,94.714 153.328,94.71 152.637,94.586 C154.354,94.934 153.841,95.057 153.21,94.747 C152.876,94.583 152.538,94.434 152.2,94.278 C151.28,93.852 150.475,93.33 149.421,93.211 C145.34,92.751 141.206,95.726 140.323,99.774 L140.323,99.774 Z" id="Shape"></path>
                    <path d="M128.47,61.958 C128.503,63.174 129.094,65.265 130.014,66.16 C130.108,66.254 130.205,66.347 130.303,66.435 C131.409,67.463 132.008,67.827 133.468,68.212 C135.031,68.626 136.539,68.494 138.09,68.021 C140.124,67.399 141.963,66.001 143.239,64.32 C144.284,62.942 145.344,60.797 145.072,58.987 C144.86,57.581 144.592,56.395 143.508,55.403 C143.041,54.958 142.54,54.552 142.006,54.186 C141.321,53.938 140.634,53.699 139.943,53.469 C140.489,53.657 141.035,53.848 141.581,54.037 C140.84,53.773 140.134,53.435 139.35,53.358 C139.136,53.337 138.928,53.294 138.722,53.233 C139.229,53.409 139.737,53.586 140.243,53.761 C140.161,53.735 140.084,53.7 140.009,53.658 C137.843,52.582 135.327,53.043 133.295,54.202 C130.558,55.766 128.382,58.71 128.47,61.958 L128.47,61.958 Z" id="Shape"></path>
                    <path d="M152.22,219.348 C152.175,218.724 152.01,218.369 151.886,217.857 C151.583,216.603 150.196,215.837 149.058,215.586 C144.008,214.468 139.503,219.482 138.847,224.065 C138.484,226.6 139.434,229.208 142.272,229.67 C142.599,229.711 142.92,229.775 143.238,229.865 C142.558,229.623 142.525,229.619 143.137,229.854 C143.713,230.082 144.263,230.383 144.814,230.663 C145.371,230.945 145.931,231.204 146.511,231.434 C148.24,232.031 148.532,232.134 147.388,231.743 C148.2,232.041 149.008,232.343 149.832,232.604 C151.566,233.156 153.938,232.31 155.417,231.467 C157.885,230.059 159.747,227.73 160.427,224.963 C160.673,223.962 160.741,222.939 160.918,221.924 C161.472,218.752 160.106,215.666 156.703,215.026 C156.03,214.9 155.363,214.764 154.698,214.603 C153.91,214.373 154.027,214.424 155.05,214.753 C154.718,214.625 154.404,214.462 154.11,214.264 C154.629,214.675 155.144,215.085 155.663,215.496 C155.385,215.272 155.114,215.04 154.85,214.801 C151.773,212.078 147.854,212.246 144.361,214.239 C140.499,216.443 138.225,220.108 137.98,224.492 C137.793,227.83 137.87,231.516 141.314,233.314 C149.293,237.478 161.141,225.724 155.186,218.114 C152.868,215.151 148.024,215.911 145.232,217.582 C143.875,218.395 140.672,220.77 144.791,217.914 C146.349,217.413 147.907,216.912 149.464,216.41 C149.441,216.414 149.417,216.418 149.394,216.424 C151.332,217.114 153.271,217.805 155.209,218.495 C155.194,218.48 155.182,218.466 155.167,218.45 C155.665,219.727 156.162,221.005 156.659,222.28 C156.597,222.94 156.539,223.599 156.477,224.259 C156.693,223.437 156.748,222.615 156.644,221.798 C156.615,221.523 156.548,221.245 156.513,220.97 C156.414,220.188 156.379,219.395 156.332,218.608 C151.903,222.494 147.475,226.38 143.046,230.267 C145.87,230.718 148.714,230.632 151.523,230.164 C149.425,228.473 147.33,226.781 145.231,225.09 C145.519,226.594 145.655,228.102 146.076,229.585 C148.944,225.862 151.814,222.141 154.683,218.416 C154.329,218.499 153.971,218.558 153.609,218.592 C154.489,218.633 154.568,218.596 153.851,218.484 C153.224,218.354 152.61,218.148 151.997,217.963 C150.191,217.416 148.374,217.215 146.479,217.36 C148.184,218.735 149.888,220.11 151.593,221.485 C151.539,220.955 151.505,220.425 151.465,219.894 C150.91,223.072 149.364,225.099 146.827,225.975 C147.863,225.632 148.791,225.099 149.608,224.374 C151,223.164 152.357,221.27 152.22,219.348 L152.22,219.348 Z" id="Shape"></path>
                    <path d="M174.88,225.513 C181.542,225.513 186.073,213.598 177.433,213.598 C170.77,213.597 166.239,225.513 174.88,225.513 L174.88,225.513 Z" id="Shape"></path>
                    <path d="M116.255,221.762 C120.96,221.762 124.161,213.348 118.058,213.348 C113.352,213.348 110.153,221.762 116.255,221.762 L116.255,221.762 Z" id="Shape"></path>
                    <path d="M163.341,114.781 C163.408,114.872 163.476,114.963 163.542,115.054 C164.612,116.51 166.904,116.497 168.428,116.012 C170.497,115.35 172.092,113.821 173.085,111.925 C173.155,111.787 173.229,111.652 173.3,111.515 C174.128,109.934 174.202,107.733 172.972,106.329 C171.702,104.884 169.59,104.781 167.873,105.33 C165.781,105.999 163.947,107.608 163.013,109.596 C162.583,110.482 162.383,111.414 162.412,112.397 C162.452,113.296 162.76,114.092 163.341,114.781 L163.341,114.781 Z" id="Shape"></path>
                    <path d="M184.328,123.426 C188.656,123.426 191.6,115.685 185.986,115.685 C181.658,115.684 178.712,123.426 184.328,123.426 L184.328,123.426 Z" id="Shape"></path>
                    <path d="M124.486,109.685 C127.987,109.685 130.368,103.423 125.828,103.423 C122.327,103.425 119.946,109.685 124.486,109.685 L124.486,109.685 Z" id="Shape"></path>
                    <path d="M112.21,88.875 C112.159,89.063 112.106,89.252 112.045,89.438 C112.162,89.094 112.279,88.75 112.397,88.407 C112.358,88.511 112.315,88.608 112.259,88.704 C112.466,88.364 112.673,88.024 112.879,87.684 C112.865,87.705 112.852,87.725 112.838,87.745 C113.476,87.185 114.114,86.625 114.753,86.065 C114.736,86.072 114.72,86.08 114.704,86.086 C113.609,86.595 112.637,87.755 112.132,88.827 C111.806,89.498 111.655,90.205 111.677,90.95 C111.707,91.633 111.941,92.235 112.381,92.758 C112.757,93.309 113.44,93.61 114.081,93.69 C116.121,93.946 118.07,92.938 119.296,91.321 C119.782,90.69 120.115,89.986 120.294,89.211 C120.532,88.102 120.283,87.274 119.679,86.355 C119.673,86.346 119.667,86.337 119.662,86.329 C119.892,86.923 120.125,87.517 120.355,88.112 C120.397,87.527 120.173,86.924 119.997,86.368 C119.462,84.693 117.385,84.437 115.957,84.894 C114.103,85.484 112.716,87.019 112.21,88.875 L112.21,88.875 Z" id="Shape"></path>
                    <path d="M115.385,50.157 C116.389,50.157 117.48,49.53 118.207,48.892 C118.989,48.205 119.607,47.286 119.828,46.258 C120.011,45.405 119.891,44.473 119.299,43.798 C118.669,43.08 117.828,42.953 116.929,42.953 C115.925,42.953 114.834,43.58 114.107,44.219 C113.326,44.905 112.707,45.824 112.487,46.853 C112.303,47.705 112.424,48.638 113.015,49.312 C113.645,50.03 114.487,50.157 115.385,50.157 L115.385,50.157 Z" id="Shape"></path>
                    <path d="M113.63,29.012 C116.378,29.012 118.247,24.098 114.683,24.098 C111.935,24.098 110.066,29.012 113.63,29.012 L113.63,29.012 Z" id="Shape"></path>
                    <path d="M92.277,159.661 C96.869,159.661 99.993,151.448 94.037,151.448 C89.445,151.449 86.321,159.661 92.277,159.661 L92.277,159.661 Z" id="Shape"></path>
                    <path d="M93.385,143.157 C97.412,143.157 100.153,135.954 94.928,135.954 C90.9,135.953 88.161,143.157 93.385,143.157 L93.385,143.157 Z" id="Shape"></path>
                    <path d="M63.298,145.56 C67.777,145.56 70.824,137.548 65.015,137.548 C60.536,137.55 57.489,145.56 63.298,145.56 L63.298,145.56 Z" id="Shape"></path>
                    <path d="M73.805,369.481 C76.232,361.085 72.05,348.133 82.057,343.772 C89.876,340.364 98.895,341.388 106.747,337.792 C117.182,333.014 120.425,324.209 121.834,313.55 C122.538,308.229 124.417,303.216 129.317,300.463 C133.003,298.394 138.266,298.536 142.333,297.798 C152.017,296.041 161.411,292.194 166.412,283.203 C170.028,276.701 169.638,269.349 172.028,262.507 C176.146,250.724 189.245,255.062 198.932,253.278 C212.192,250.838 218.439,239.322 228.929,232.454 C227.67,229.163 226.412,225.871 225.155,222.58 C222.436,224.477 220.126,226.791 218.717,229.842 C217.779,231.876 218.808,234.167 221.248,233.983 C225.096,233.691 227.092,233.881 230.432,231.38 C236.151,227.097 231.524,218.093 225.155,222.58 C219.967,226.233 215.536,230.419 210.991,234.822 C205.934,239.72 201.413,242.055 194.243,242.207 C187.161,242.356 180.151,241.971 173.793,245.696 C169.057,248.472 165.519,252.424 162.726,257.078 C158.854,263.529 159.449,271.145 157.073,278.025 C154.048,286.783 142.373,286.753 134.719,288.35 C123.723,290.644 115.689,298.218 112.297,308.915 C110.658,314.084 111.579,319.819 109.464,324.855 C107.643,329.191 101.689,330.803 97.633,331.829 C88.309,334.188 79.655,335.295 72.808,342.754 C65.805,350.382 67.498,361.612 70.775,370.459 C71.386,372.118 73.51,370.5 73.805,369.481 L73.805,369.481 Z" id="Shape"></path>
                    <path d="M113.858,494.493 C117.849,491.375 121.154,487.352 124.818,483.861 C128.776,480.09 132.994,476.592 137.2,473.107 C145.729,466.037 154.952,459.387 162.886,451.664 C167.82,446.861 162.348,440.528 157.429,445.445 C149.512,453.36 140.953,460.375 132.335,467.563 C124.419,474.166 113.329,482.163 109.372,492.035 C108.018,495.412 111.589,496.266 113.858,494.493 L113.858,494.493 Z" id="Shape"></path>
                    <path d="M90.25,427.412 C98.854,421.802 106.417,414.299 114.762,408.235 C124.075,401.467 133.656,395.073 143.055,388.43 C151.633,382.367 159.893,375.919 168.14,369.417 C172.35,366.1 176.483,362.689 180.489,359.127 C181.36,358.344 182.223,357.548 183.077,356.743 C183.799,356.071 187.933,353.708 184.343,355.284 C185.044,354.976 188.198,354.415 185.975,354.618 C185.342,351.681 184.71,348.745 184.078,345.808 C183.835,346.057 183.565,346.278 183.273,346.47 C181.902,347.532 180.529,349.814 180.798,351.627 C180.932,352.526 181.087,353.176 181.681,353.896 C183.222,355.765 186.089,355.241 187.926,354.23 C188.241,354.086 188.538,353.913 188.814,353.704 C191.25,351.978 195.716,344.483 189.609,343.993 C186.283,343.726 183.761,345.665 181.441,347.822 C177.693,351.307 174.207,354.952 170.274,358.267 C161.229,365.894 151.801,373.192 142.214,380.121 C132.537,387.115 122.585,393.719 112.922,400.733 C103.968,407.233 93.142,414.14 86.467,423.097 C84.3,426.005 86.993,429.536 90.25,427.412 L90.25,427.412 Z" id="Shape"></path>
                    <path d="M73.122,371.077 C78.972,367.519 84.268,363.092 89.883,359.18 C95.625,355.177 101.558,351.451 107.524,347.793 C119.46,340.48 131.583,333.477 143.377,325.936 C155.931,317.909 167.876,308.896 179.732,299.884 C185.834,295.245 191.882,290.541 197.928,285.832 C200.959,283.473 203.989,281.107 207.019,278.746 C209.448,276.852 212.495,273.425 215.422,272.448 C218.367,271.467 221.566,267.963 220.288,264.63 C218.664,260.394 213.045,262.901 211.119,265.373 C210.44,266.244 209.879,267.144 209.332,268.102 C208.253,269.998 209.095,272.374 211.244,272.873 C212.768,273.226 213.974,272.989 215.422,272.45 C213.988,270.093 212.555,267.733 211.119,265.375 C209.093,268.42 204.798,270.73 201.939,272.962 C198.913,275.327 195.887,277.695 192.861,280.063 C186.824,284.782 180.773,289.484 174.687,294.139 C162.648,303.348 150.467,312.381 137.672,320.519 C125.833,328.047 113.653,335.021 101.835,342.583 C90.763,349.669 78.293,357.099 69.779,367.272 C67.634,369.835 70.32,372.782 73.122,371.077 L73.122,371.077 Z" id="Shape"></path>
                    <path d="M89.671,422.971 C92.368,427.891 97.402,431.292 101.906,434.462 C107.556,438.441 113.694,441.71 119.784,444.949 C125.581,448.032 131.408,451.049 137.062,454.387 C142.633,457.676 150.346,461.748 153.785,467.389 C154.665,468.833 157.077,468.707 158.413,468.296 C158.471,468.278 158.527,468.262 158.584,468.243 C161.313,467.402 165.899,462.41 162.75,459.556 C160.522,457.538 157.797,457.339 154.964,458.009 C152.799,458.522 151.392,460.718 151.262,462.8 C151.12,465.071 152.68,467.253 154.825,468.06 C154.671,465.806 154.516,463.552 154.363,461.298 C154.324,461.345 154.284,461.39 154.244,461.437 C156.701,460.622 159.157,459.804 161.614,458.989 C155.978,456.093 151.046,451.444 145.452,448.281 C139.701,445.029 133.683,442.245 127.715,439.423 C121.824,436.639 115.955,433.819 110.271,430.628 C104.417,427.34 99.601,422.65 93.885,419.274 C92.051,418.192 88.555,420.936 89.671,422.971 L89.671,422.971 Z" id="Shape"></path>
                    <path d="M110.052,495.524 C111.84,498.432 115.28,500.186 118.07,502.045 C121.917,504.608 126.137,506.698 130.166,508.965 C133.139,510.638 136.047,512.404 138.951,514.194 C140.097,514.9 142.511,516.455 142.681,516.753 C143.38,514.746 144.079,512.74 144.779,510.734 C146.993,509.533 147.401,509.248 146.006,509.879 C143.195,511.071 140.692,514.023 142.57,517.042 C143.141,517.962 144.169,518.75 145.291,518.848 C149.019,519.172 152.787,516.197 152.756,512.297 C152.756,512.236 152.755,512.178 152.755,512.118 C152.746,510.961 152.042,509.764 151.003,509.236 C146.449,506.925 141.468,505.161 136.831,502.983 C132.558,500.976 128.224,499.104 123.907,497.193 C120.221,495.562 115.8,493.509 111.746,493.304 C110.624,493.247 109.354,494.389 110.052,495.524 L110.052,495.524 Z" id="Shape"></path>
                    <path d="M79.902,343.534 C85.913,349.013 93.829,352.568 100.869,356.548 C109.01,361.151 117.211,365.645 125.347,370.258 C141.201,379.246 156.475,389.087 171.532,399.345 C173.556,396.017 175.583,392.689 177.607,389.36 C174.763,388.531 172.721,388.293 169.769,388.703 C167.873,388.968 165.473,391.025 166.326,393.172 C167.491,396.107 169.073,397.461 171.532,399.346 C176.04,402.801 184.345,393.365 178.786,389.771 C163.428,379.846 147.182,371.324 131.075,362.701 C123.346,358.564 115.592,354.469 107.782,350.489 C99.884,346.466 91.918,341.452 83.364,339.005 C81.407,338.441 77.993,341.793 79.902,343.534 L79.902,343.534 Z" id="Shape"></path>
                    <path d="M129.372,297.121 C132.554,301.316 138.548,303.975 143.056,306.556 C148.436,309.635 153.784,312.781 159.128,315.918 C169.738,322.148 180.244,328.574 190.441,335.461 C189.811,334.426 189.181,333.39 188.551,332.353 C188.727,334.268 189.58,335.752 191.39,336.53 C193.494,333.073 195.598,329.615 197.703,326.158 C195.389,325.742 193.344,325.348 190.994,325.652 C188.447,325.982 185.056,328.866 186.283,331.765 C187.453,334.534 189.623,336.376 192.612,336.953 C198.356,338.06 204.81,328.371 197.703,326.156 C199.565,329.307 200.166,329.758 199.506,327.507 C198.938,326.027 197.572,325.488 196.275,324.802 C193.03,323.082 189.803,321.348 186.606,319.541 C180.634,316.169 174.635,312.846 168.614,309.562 C162.564,306.262 156.471,303.067 150.265,300.068 C144.529,297.297 138.06,293.753 131.597,293.509 C129.987,293.449 128.314,295.728 129.372,297.121 L129.372,297.121 Z" id="Shape"></path>
                    <path d="M168.347,254.143 C172.9,259.714 179.498,263.226 185.408,267.161 C188.929,269.505 192.717,271.744 195.972,274.449 C198.154,276.262 200.14,279.778 202.968,280.314 C207.284,281.131 211.417,276.496 210.409,272.384 C209.763,269.747 205.069,268.207 202.85,267.067 C199.086,265.132 195.528,262.66 191.866,260.532 C185.207,256.663 178.641,252.451 171.121,250.506 C169.398,250.06 167.07,252.577 168.347,254.143 L168.347,254.143 Z" id="Shape"></path>
                    <path d="M37.292,260.053 C46.372,256.609 52.725,266.679 57.43,272.952 C62.42,279.606 67.311,286.786 75.46,289.713 C83.481,292.596 92.222,292.942 100.471,294.953 C103.933,295.798 107.675,297.013 110.368,299.446 C113.503,302.28 111.205,306.903 113.938,309.379 C115.452,310.748 117.855,310.372 119.256,308.947 C127.123,300.946 117.312,291.336 109.614,288.624 C100.219,285.314 90.09,285.484 80.543,282.842 C65.168,278.585 54.97,241.427 35.653,255.844 C33.623,257.36 34.382,261.157 37.292,260.053 L37.292,260.053 Z" id="Shape"></path>
                </g>
            </g>
        </g>
    </g>
</svg>