<?xml version="1.0" encoding="UTF-8" standalone="no"?><!DOCTYPE svg PUBLIC "-//W3C//DTD SVG 1.1//EN" "http://www.w3.org/Graphics/SVG/1.1/DTD/svg11.dtd"><svg width="100%" height="100%" viewBox="0 0 234 551" version="1.1" xmlns="http://www.w3.org/2000/svg" xmlns:xlink="http://www.w3.org/1999/xlink" xml:space="preserve" style="fill-rule:evenodd;clip-rule:evenodd;stroke-linejoin:round;stroke-miterlimit:1.41421;"><g id="icecream"><path d="M135.916,544.781c1.016,-4.362 -2.623,-10.874 -4.082,-14.75c-3.117,-8.28 -6.365,-16.507 -9.582,-24.748c-10.244,-26.242 -19.385,-52.994 -28.413,-79.675c-10.431,-30.826 -20.37,-61.815 -29.809,-92.959c-9.315,-30.734 -17.842,-61.818 -28.25,-92.202c-0.206,-0.601 -0.411,-1.201 -0.616,-1.802c-1.174,-3.431 -6.228,0.349 -5.612,3.199c6.68,30.997 15.658,61.59 24.875,91.917c9.451,31.098 19.336,62.074 29.982,92.784c9.352,26.979 18.837,54.036 29.903,80.368c3.334,7.935 6.758,15.828 10.202,23.713c1.495,3.423 2.976,6.843 4.536,10.234c0.523,1.136 2.569,4.581 2.596,4.78c0.361,2.692 3.851,0.94 4.27,-0.859Z" style="fill:#010101;fill-rule:nonzero;"/><path d="M226.962,239.816c-8.649,11.468 -13.178,26.051 -17.881,39.47c-4.859,13.863 -8.924,27.988 -13.357,41.99c-4.697,14.828 -10.079,29.407 -14.535,44.317c-4.513,15.102 -8.394,30.38 -12.005,45.721c-6.15,26.131 -11.701,52.42 -17.509,78.629c-3.391,15.304 -7.206,31.659 -14.396,45.664c-0.729,1.417 -1.571,2.708 -2.542,3.97c-0.546,0.707 0.005,0.148 -0.929,0.957c0.688,-0.596 1.512,-0.833 2.416,-0.72c-6.895,-0.862 -11.193,10.94 -3.535,10.334c6.52,-0.519 9.919,-7.054 12.383,-12.27c3.604,-7.629 6.191,-15.821 8.633,-23.881c5.395,-17.821 9.127,-36.147 13.061,-54.328c6.459,-29.854 12.749,-59.737 20.979,-89.168c4.228,-15.115 9.464,-29.854 14.283,-44.777c4.578,-14.174 8.815,-28.465 13.172,-42.708c2.328,-7.613 4.866,-15.148 7.582,-22.631c2.418,-6.666 5.254,-13.144 6.945,-20.049c0.455,-1.869 -2.022,-1.504 -2.765,-0.52Z" style="fill:#010101;fill-rule:nonzero;"/><path d="M33.238,248.896c7.027,-1.437 14.005,-3.461 20.854,-0.174c4.408,2.116 6.44,7.034 8.495,11.146c4.108,8.224 8.97,13.017 17.768,15.686c7.954,2.413 16.356,2.924 24.305,5.397c7.167,2.232 15.853,9.34 14.354,17.957c-1.339,7.709 11.379,4.476 10.479,-2.117c-0.347,-2.523 -0.868,-4.604 -3.294,-5.776c-1.162,-0.563 -2.767,-0.165 -3.649,0.759c-2.041,2.135 -3.158,4.164 -3.535,7.136c3.411,-1.1 6.822,-2.199 10.233,-3.298c-1.826,-5.14 -2.018,-9.692 -5.417,-14.285c-2.611,-3.525 -6.648,-5.964 -10.643,-7.596c-8.711,-3.561 -18.277,-3.799 -27.388,-5.716c-3.783,-0.796 -7.754,-2.017 -10.67,-4.67c-3.954,-3.601 -6.045,-9.084 -8.807,-13.558c-7.283,-11.795 -23.06,-10.771 -33.858,-4.615c-2.008,1.147 -2.013,4.292 0.773,3.724Z" style="fill:#010101;fill-rule:nonzero;"/><path d="M20.459,119.662c-9.272,4.646 -15.745,14.791 -17.176,24.935c-1.57,11.128 2.682,21.597 10.232,29.668c17.296,18.486 45.134,25.085 69.214,28.241c26.975,3.536 54.21,4.079 81.167,8.014c10.484,1.529 21.767,2.767 31.284,7.625c6.98,3.563 13.852,7.521 20.289,11.999c0.628,0.437 1.242,0.895 1.854,1.354c-0.752,-0.565 1.218,1.983 0.113,0.127c0.434,0.728 0.829,1.478 1.309,2.178c0.467,0.544 1.019,0.951 1.653,1.224c-0.896,-0.905 -1.191,-1.125 -0.885,-0.659c-0.396,-1.013 -0.789,-2.026 -1.184,-3.039c5.354,-6.14 6.649,-8.452 3.891,-6.936c-3.576,1.86 -6.826,8.127 -2.319,10.832c8.283,4.974 18.581,-9.184 9.633,-14.815c-1.709,-1.075 -4.726,-3.247 -7.318,-4.926c-3.587,-2.323 -7.3,-4.453 -11.035,-6.525c-7.57,-4.2 -14.367,-6.924 -22.898,-8.776c-15.03,-3.265 -30.391,-4.806 -45.676,-6.301c-25.639,-2.508 -51.703,-1.977 -76.98,-7.44c-21.271,-4.599 -52.052,-16.86 -52.853,-42.541c-0.272,-8.776 4.029,-15.982 8.869,-22.889c0.688,-0.985 -0.133,-1.876 -1.184,-1.35Z" style="fill:#010101;fill-rule:nonzero;"/><path d="M27.365,181.618c-4.864,-6.202 -15.103,3.686 -18.193,7.296c-6.138,7.171 -8.316,16.03 -8.186,25.308c0.117,8.388 3.103,19.124 9.958,24.401c5.229,4.027 11.358,7.69 17.487,10.18c6.184,2.511 15.622,-8.053 8.599,-11.351c-4.221,-1.98 -8.408,-3.947 -12.47,-6.25c-1.931,-1.095 -3.948,-2.246 -5.664,-3.667c-2.436,-2.019 -3.644,-6.207 -4.642,-9.097c-2.271,-6.572 -2.626,-14.819 0.192,-21.235c1.116,-2.543 2.24,-5.15 4.229,-7.148c2.271,-2.28 5.514,-2.815 7.919,-4.856c0.998,-0.847 1.668,-2.436 0.771,-3.581Z" style="fill:#010101;fill-rule:nonzero;"/><path d="M58.758,65.278c-9.222,-1.167 -17.563,0.898 -24.413,7.442c-5.788,5.53 -8.767,13.313 -8.19,21.28c1.66,23.018 28.02,32.125 46.836,36.247c28.087,6.152 57.303,4.383 85.147,12.042c12.262,3.373 24.182,9.28 34.533,16.654c9.287,6.615 17.063,16.2 16.982,28.01c-0.021,3.366 -0.715,6.72 -1.548,9.967c-0.329,1.283 -0.798,2.473 -1.329,3.684c-0.639,1.452 -1.328,1.361 0.286,0.483c-7.678,4.175 -4.837,15.281 4.185,10.938c9.203,-4.43 10.955,-17.734 11.443,-26.676c0.644,-11.768 -5.207,-21.64 -13.276,-29.768c-18.388,-18.517 -46.197,-26.409 -71.308,-29.458c-27.544,-3.345 -58.621,-1.229 -84.021,-14.112c-12.999,-6.595 -27.134,-26.406 -10.723,-37.479c4.437,-2.994 9.769,-5.192 14.858,-6.752c0.891,-0.275 2.101,-2.305 0.538,-2.502Z" style="fill:#010101;fill-rule:nonzero;"/><path d="M88.659,30.491c-4.248,-0.307 -7.559,-0.448 -11.72,0.746c-4.063,1.166 -8.015,3.998 -11.07,6.83c-5.681,5.266 -9.231,13.151 -7.665,20.928c3.766,18.699 28.345,20.983 43.644,22.708c18.818,2.121 37.835,3.022 56.302,7.515c16.591,4.035 32.878,12.191 40.148,28.502c3.385,7.594 3.944,17.73 -1.81,24.313c-4.646,5.314 1.151,10.062 6.563,7.479c10.428,-4.978 11.335,-19.728 9.826,-29.665c-1.338,-8.812 -6.629,-17.262 -12.812,-23.515c-12.751,-12.9 -31.621,-17.8 -48.963,-20.604c-18.418,-2.979 -37.137,-3.303 -55.587,-5.997c-8.739,-1.275 -18.236,-3.002 -24.48,-9.806c-5.164,-5.627 -3.888,-12.961 0.757,-18.354c3.699,-4.296 11.048,-7.657 16.418,-8.997c0.764,-0.19 1.726,-1.991 0.449,-2.083Z" style="fill:#010101;fill-rule:nonzero;"/><path d="M148.583,11.65c-9.727,-0.623 -18.813,4.51 -23.509,13.052c-5.296,9.633 0.902,19.873 9.537,24.511c8.908,4.786 19.15,5.71 27.971,10.896c3.923,2.306 8.235,5.529 9.136,10.294c0.47,2.489 -0.038,5.158 -1.447,7.268c-0.6,0.897 1.164,0.188 -1.054,0.173c-2.403,-0.019 -4.37,0.497 -6.238,2.137c-3.74,3.284 -3.261,10.829 3.494,10.669c2.904,-0.069 5.505,-0.947 8.002,-2.408c5.674,-3.321 8.903,-9.924 9.938,-16.192c1.975,-11.965 -7.727,-19.512 -17.247,-24.104c-9.163,-4.419 -19.854,-4.485 -28.773,-9.407c-4.266,-2.353 -7.104,-7.521 -6.245,-12.395c0.999,-5.667 8.22,-8.832 12.714,-11.22c1.099,-0.535 2.214,-1.035 3.345,-1.501c0.514,-0.222 1.554,-1.698 0.376,-1.773Z" style="fill:#010101;fill-rule:nonzero;"/><path d="M92.667,32.351c0.367,-2.758 -0.14,-5.511 0.907,-8.181c1.059,-2.7 3.218,-4.616 5.466,-6.343c5.643,-4.333 13.535,-6.259 20.387,-7.504c7.882,-1.432 15.993,-1.972 23.975,-1.156c6.024,0.617 11.636,3.712 17.455,4.142c1.863,0.138 4.535,-1.481 4.198,-3.685c-1.155,-7.563 -12.269,-8.581 -18.478,-9.165c-9.814,-0.922 -19.788,-0.012 -29.371,2.205c-8.702,2.015 -17.659,5.515 -24.349,11.592c-4.724,4.292 -10.14,14.314 -4.852,20.184c1.473,1.634 4.422,-0.284 4.662,-2.089Z" style="fill:#010101;fill-rule:nonzero;"/><path d="M52.252,243.845c-0.432,6.082 14.326,7.25 18.167,7.728c11.333,1.411 22.718,2.218 34.109,3.029c13.065,0.931 26.208,1.359 39.302,0.917c6.414,-0.217 12.823,-0.75 19.182,-1.608c6.396,-0.863 13.408,-1.776 18.913,-5.346c1.322,-0.858 2.979,-3.944 0.359,-4.405c-5.123,-0.9 -10.554,0.636 -15.625,1.411c-6.366,0.973 -12.788,1.56 -19.215,1.948c-13.124,0.792 -26.303,0.333 -39.42,-0.335c-10.402,-0.53 -20.825,-1.371 -31.238,-1.6c-4.846,-0.105 -9.679,-0.629 -14.477,-1.293c-3.006,-0.416 -6.194,-2.275 -9.198,-1.558c-0.505,0.121 -0.823,0.627 -0.859,1.112Z" style="fill:#010101;fill-rule:nonzero;"/><path d="M24.875,133.818c-7.794,4.414 -7.299,15.14 -2.941,21.757c5.648,8.578 16.507,13.291 25.669,16.951c10.825,4.325 22.188,7.381 33.591,9.74c7.33,1.517 14.939,2.886 22.448,2.691c1.781,-0.046 4.587,-3.443 2.173,-4.592c-5.507,-2.619 -11.887,-3.792 -17.788,-5.171c-10.259,-2.397 -20.44,-5.129 -30.423,-8.5c-9.091,-3.069 -18.727,-7.039 -26.081,-13.364c-2.78,-2.391 -5.104,-5.314 -6.059,-8.896c-0.908,-3.411 0.729,-6.813 0.618,-10.178c-0.023,-0.643 -0.772,-0.685 -1.207,-0.438Z" style="fill:#010101;fill-rule:nonzero;"/><path d="M19.421,204.791c-0.323,4.226 -0.688,7.646 1.374,11.6c1.996,3.824 5.038,6.67 8.446,9.23c7.891,5.932 18.145,8.521 27.663,10.392c18.027,3.544 37.657,4.489 55.841,1.461c1.524,-0.254 3.88,-3.342 1.305,-3.815c-16.538,-3.04 -33.718,-2.243 -50.376,-4.842c-9.46,-1.478 -18.853,-3.866 -27.449,-8.148c-6.184,-3.081 -13.585,-9.476 -15.367,-16.513c-0.222,-0.876 -1.396,0.094 -1.437,0.635Z" style="fill:#010101;fill-rule:nonzero;"/><path d="M46.195,83.035c-9.998,11.726 7.479,21.81 16.635,25.525c11.809,4.793 26.987,9.323 39.898,7.995c1.436,-0.148 3.85,-2.771 1.808,-3.82c-3.878,-1.994 -8.507,-2.854 -12.727,-3.848c-6.747,-1.59 -13.464,-3.314 -20.063,-5.443c-10.379,-3.349 -21.79,-8.35 -23.309,-20.299c-0.165,-1.306 -1.669,-0.783 -2.242,-0.11Z" style="fill:#010101;fill-rule:nonzero;"/><path d="M80.551,48.685c-1.456,14.661 23.709,18.863 34.212,18.708c1.587,-0.024 3.227,-2.389 1.661,-3.512c-4.853,-3.483 -12.029,-4.288 -17.651,-5.986c-6.279,-1.897 -11.678,-4.919 -15.242,-10.546c-0.772,-1.218 -2.879,0.324 -2.98,1.336Z" style="fill:#010101;fill-rule:nonzero;"/><path d="M146.339,158.657c-0.475,0.843 -1.006,1.749 -1.123,2.721c-0.11,0.916 -0.188,1.84 -0.229,2.762c-0.051,1.12 0.235,2.302 0.502,3.365c0.389,1.56 1.662,3.375 3.215,3.965c1.354,0.513 2.398,0.818 3.893,0.642c1.813,-0.215 2.737,-0.653 4.384,-1.392c1.467,-0.657 2.713,-1.768 3.942,-2.783c2.96,-2.447 5.355,-5.749 6.388,-9.464c0.569,-2.053 0.235,-4.868 -1.342,-6.453c-1.928,-1.938 -4.514,-2.375 -7.149,-2.172c-1.729,0.133 -3.563,0.647 -4.994,1.654c-0.794,0.559 -1.603,1.101 -2.366,1.698c-1.8,1.407 -3.196,3.743 -3.672,5.966c0.757,-3.535 -0.278,1.483 -0.169,2.091c0.684,-1.989 1.368,-3.979 2.052,-5.971c-0.078,0.086 -0.156,0.173 -0.233,0.26c-1.701,1.929 -2.575,5.186 -1.637,7.639c0.958,2.499 3.502,3.522 6.019,3.357c0.083,-0.005 0.166,-0.01 0.249,-0.015c-1.246,-0.234 -2.492,-0.468 -3.738,-0.703c0.039,0.021 0.078,0.043 0.117,0.064c-0.491,-0.392 -0.982,-0.781 -1.475,-1.173c0.005,0.008 0.011,0.015 0.016,0.021c0.897,0.982 2.004,1.588 3.314,1.818c1.435,0.231 2.84,0.118 4.22,-0.343c0.194,-0.042 0.389,-0.088 0.582,-0.128c-0.733,0.148 -1.469,0.296 -2.203,0.444c1.641,-0.324 3.144,-0.472 4.563,-1.487c0.77,-0.549 1.521,-1.083 2.276,-1.631c-0.691,0.494 -1.385,0.989 -2.075,1.483c0.374,-0.268 0.763,-0.519 1.184,-0.706c-0.692,0.306 -1.388,0.613 -2.081,0.919c0.191,-0.082 0.387,-0.152 0.589,-0.195c-0.678,0.137 -1.354,0.273 -2.031,0.41c0.125,-0.024 0.251,-0.039 0.379,-0.035c-0.633,-0.029 -1.267,-0.059 -1.899,-0.087c0.108,0.005 0.212,0.021 0.314,0.056c-0.558,-0.192 -1.113,-0.387 -1.67,-0.579c0.071,0.026 0.143,0.06 0.205,0.104c-0.449,-0.357 -0.899,-0.715 -1.35,-1.073c0.056,0.055 0.101,0.114 0.14,0.181c-0.295,-0.49 -0.59,-0.98 -0.885,-1.471c0.066,0.118 0.11,0.243 0.14,0.375c-0.117,-0.564 -0.234,-1.13 -0.352,-1.694c0.042,0.218 0.046,0.438 0.029,0.66c0.051,-0.603 0.102,-1.205 0.152,-1.809c-0.04,0.452 -0.154,0.894 -0.301,1.321c0.204,-0.6 0.409,-1.198 0.613,-1.796c-0.259,0.742 -0.612,1.45 -1.021,2.122c0.336,-0.554 0.672,-1.105 1.008,-1.658c-0.288,0.469 -0.595,0.948 -0.962,1.358c0.455,-0.487 0.91,-0.976 1.365,-1.464c-0.418,0.447 -0.866,0.865 -1.362,1.226c0.534,-0.383 1.067,-0.765 1.603,-1.146c-0.3,0.214 -0.612,0.405 -0.949,0.557c0.559,-0.246 1.114,-0.493 1.673,-0.739c-0.216,0.093 -0.437,0.169 -0.665,0.218c0.553,-0.111 1.105,-0.223 1.659,-0.334c-0.184,0.036 -0.367,0.053 -0.555,0.046c0.521,0.024 1.043,0.048 1.565,0.072c-0.166,-0.01 -0.326,-0.039 -0.484,-0.089c0.462,0.161 0.924,0.32 1.387,0.481c-0.203,-0.07 -0.387,-0.174 -0.556,-0.308c0.374,0.298 0.749,0.596 1.124,0.894c-0.233,-0.192 -0.419,-0.428 -0.576,-0.686c0.245,0.407 0.49,0.813 0.734,1.22c-0.316,-0.542 -0.499,-1.146 -0.629,-1.758c0.096,0.464 0.191,0.929 0.288,1.393c-0.147,-0.725 -0.3,-1.448 -0.448,-2.173c0.095,0.458 0.188,0.917 0.284,1.376c-0.081,-0.405 -0.146,-0.814 -0.196,-1.226c-0.166,-1.31 -0.308,-1.469 -1.021,-2.568c-0.049,-0.075 -0.1,-0.147 -0.147,-0.222c-0.103,-0.155 -0.198,-0.313 -0.295,-0.47c-0.569,-0.623 -1.271,-1.008 -2.103,-1.152c-0.906,-0.147 -1.799,-0.075 -2.673,0.217c-2.065,0.663 -3.513,2.153 -4.551,3.997Z" style="fill:#010101;fill-rule:nonzero;"/><path d="M175.996,165.965c-0.899,1.574 -1.02,3.063 -0.475,4.781c-0.049,-0.861 -0.097,-1.723 -0.145,-2.584c-0.57,1.959 0.264,3.295 1.252,4.85c0.773,1.218 2.758,1.869 4.025,2.212c1.709,0.459 3.828,-0.243 5.291,-1.077c1.773,-1.012 3.281,-2.573 4.153,-4.427c0.722,-1.531 1.033,-3.372 0.41,-4.997c-0.83,-2.164 -3.065,-3.106 -5.259,-2.936c-1.196,0.094 -2.305,0.256 -3.489,0.521c2.904,-0.645 -1.452,0.338 -0.926,0.169c-1.265,0.403 -2.001,0.974 -3.052,1.772c1.397,-0.626 2.795,-1.253 4.191,-1.879c-1.628,0.259 -3.31,0.577 -4.521,1.831c1.079,-0.732 1.288,-0.887 0.626,-0.459c-0.934,0.595 -1.535,1.266 -2.081,2.223Z" style="fill:#010101;fill-rule:nonzero;"/><path d="M119.748,158.665c0.411,0.109 0.82,0.234 1.237,0.313c1.164,0.223 2.646,-0.09 3.751,-0.41c2.435,-0.704 4.597,-2.97 5.128,-5.451c0.199,-0.868 0.152,-1.721 -0.144,-2.559c-0.212,-0.354 -0.424,-0.706 -0.636,-1.06c-0.583,-0.638 -1.301,-1.03 -2.153,-1.181c-1.67,-0.578 -3.392,-0.036 -5.041,0.343c-0.998,0.33 -1.89,0.843 -2.678,1.54c-1.123,0.984 -2.011,2.306 -2.327,3.78c-0.195,0.847 -0.148,1.68 0.139,2.498c0.481,1.253 1.491,1.858 2.724,2.187Z" style="fill:#010101;fill-rule:nonzero;"/><path d="M140.323,99.774c-1.011,4.631 2.227,8.057 6.323,9.379c2.61,0.842 5.863,-0.375 8.106,-1.615c2.728,-1.506 4.997,-4.001 6.629,-6.618c1.182,-1.895 2.194,-3.699 2.07,-6.023c-0.09,-1.691 -1.054,-3.954 -2.796,-4.602c-2.947,-1.093 -5.466,-1.364 -8.559,-0.571c-4.042,1.037 -6.863,3.947 -8.958,7.417c-1.391,2.304 -1.297,5.876 0.502,7.927c1.832,2.087 5.292,2.555 7.794,1.527c1.949,-0.801 3.321,-1.505 4.953,-2.876c0.768,-0.604 0.362,-0.325 -1.216,0.837c-0.479,0.204 -0.959,0.406 -1.439,0.61c-2.966,-0.024 -3.729,0.065 -2.294,0.271c-1.237,-3.088 -2.477,-6.177 -3.715,-9.267c-0.244,0.577 -0.502,1.135 -0.792,1.688c0.737,-1.153 0.854,-1.374 0.347,-0.662c1.165,-1.165 1.42,-1.445 0.766,-0.841c0.443,-0.319 0.886,-0.638 1.329,-0.957c1.523,-0.598 1.9,-0.772 1.129,-0.524c1.5,-0.233 1.873,-0.326 1.121,-0.273c1.366,0.113 1.705,0.109 1.014,-0.015c1.717,0.348 1.204,0.471 0.573,0.161c-0.334,-0.164 -0.672,-0.313 -1.01,-0.469c-0.92,-0.426 -1.725,-0.948 -2.779,-1.067c-4.081,-0.46 -8.215,2.515 -9.098,6.563Z" style="fill:#010101;fill-rule:nonzero;"/><path d="M128.47,61.958c0.033,1.216 0.624,3.307 1.544,4.202c0.094,0.094 0.191,0.187 0.289,0.275c1.106,1.028 1.705,1.392 3.165,1.777c1.563,0.414 3.071,0.282 4.622,-0.191c2.034,-0.622 3.873,-2.02 5.149,-3.701c1.045,-1.378 2.105,-3.523 1.833,-5.333c-0.212,-1.406 -0.48,-2.592 -1.564,-3.584c-0.467,-0.445 -0.968,-0.851 -1.502,-1.217c-0.685,-0.248 -1.372,-0.487 -2.063,-0.717c0.546,0.188 1.092,0.379 1.638,0.568c-0.741,-0.264 -1.447,-0.602 -2.231,-0.679c-0.214,-0.021 -0.422,-0.064 -0.628,-0.125c0.507,0.176 1.015,0.353 1.521,0.528c-0.082,-0.026 -0.159,-0.061 -0.234,-0.103c-2.166,-1.076 -4.682,-0.615 -6.714,0.544c-2.737,1.564 -4.913,4.508 -4.825,7.756Z" style="fill:#010101;fill-rule:nonzero;"/><path d="M152.22,219.348c-0.045,-0.624 -0.21,-0.979 -0.334,-1.491c-0.303,-1.254 -1.69,-2.02 -2.828,-2.271c-5.05,-1.118 -9.555,3.896 -10.211,8.479c-0.363,2.535 0.587,5.143 3.425,5.605c0.327,0.041 0.648,0.105 0.966,0.195c-0.68,-0.242 -0.713,-0.246 -0.101,-0.011c0.576,0.228 1.126,0.529 1.677,0.809c0.557,0.282 1.117,0.541 1.697,0.771c1.729,0.597 2.021,0.7 0.877,0.309c0.812,0.298 1.62,0.6 2.444,0.861c1.734,0.552 4.106,-0.294 5.585,-1.137c2.468,-1.408 4.33,-3.737 5.01,-6.504c0.246,-1.001 0.314,-2.024 0.491,-3.039c0.554,-3.172 -0.812,-6.258 -4.215,-6.898c-0.673,-0.126 -1.34,-0.262 -2.005,-0.423c-0.788,-0.23 -0.671,-0.179 0.352,0.15c-0.332,-0.128 -0.646,-0.291 -0.94,-0.489c0.519,0.411 1.034,0.821 1.553,1.232c-0.278,-0.224 -0.549,-0.456 -0.813,-0.695c-3.077,-2.723 -6.996,-2.555 -10.489,-0.562c-3.862,2.204 -6.136,5.869 -6.381,10.253c-0.187,3.338 -0.11,7.024 3.334,8.822c7.979,4.164 19.827,-7.59 13.872,-15.2c-2.318,-2.963 -7.162,-2.203 -9.954,-0.532c-1.357,0.813 -4.56,3.188 -0.441,0.332c1.558,-0.501 3.116,-1.002 4.673,-1.504c-0.023,0.004 -0.047,0.008 -0.07,0.014c1.938,0.69 3.877,1.381 5.815,2.071c-0.015,-0.015 -0.027,-0.029 -0.042,-0.045c0.498,1.277 0.995,2.555 1.492,3.83c-0.062,0.66 -0.12,1.319 -0.182,1.979c0.216,-0.822 0.271,-1.644 0.167,-2.461c-0.029,-0.275 -0.096,-0.553 -0.131,-0.828c-0.099,-0.782 -0.134,-1.575 -0.181,-2.362c-4.429,3.886 -8.857,7.772 -13.286,11.659c2.824,0.451 5.668,0.365 8.477,-0.103c-2.098,-1.691 -4.193,-3.383 -6.292,-5.074c0.288,1.504 0.424,3.012 0.845,4.495c2.868,-3.723 5.738,-7.444 8.607,-11.169c-0.354,0.083 -0.712,0.142 -1.074,0.176c0.88,0.041 0.959,0.004 0.242,-0.108c-0.627,-0.13 -1.241,-0.336 -1.854,-0.521c-1.806,-0.547 -3.623,-0.748 -5.518,-0.603c1.705,1.375 3.409,2.75 5.114,4.125c-0.054,-0.53 -0.088,-1.06 -0.128,-1.591c-0.555,3.178 -2.101,5.205 -4.638,6.081c1.036,-0.343 1.964,-0.876 2.781,-1.601c1.392,-1.21 2.749,-3.104 2.612,-5.026Z" style="fill:#010101;fill-rule:nonzero;"/><path d="M174.88,225.513c6.662,0 11.193,-11.915 2.553,-11.915c-6.663,-0.001 -11.194,11.915 -2.553,11.915Z" style="fill:#010101;fill-rule:nonzero;"/><path d="M116.255,221.762c4.705,0 7.906,-8.414 1.803,-8.414c-4.706,0 -7.905,8.414 -1.803,8.414Z" style="fill:#010101;fill-rule:nonzero;"/><path d="M163.341,114.781c0.067,0.091 0.135,0.182 0.201,0.273c1.07,1.456 3.362,1.443 4.886,0.958c2.069,-0.662 3.664,-2.191 4.657,-4.087c0.07,-0.138 0.144,-0.273 0.215,-0.41c0.828,-1.581 0.902,-3.782 -0.328,-5.186c-1.27,-1.445 -3.382,-1.548 -5.099,-0.999c-2.092,0.669 -3.926,2.278 -4.86,4.266c-0.43,0.886 -0.63,1.818 -0.601,2.801c0.04,0.899 0.348,1.695 0.929,2.384Z" style="fill:#010101;fill-rule:nonzero;"/><path d="M184.328,123.426c4.328,0 7.272,-7.741 1.658,-7.741c-4.328,-0.001 -7.274,7.741 -1.658,7.741Z" style="fill:#010101;fill-rule:nonzero;"/><path d="M124.486,109.685c3.501,0 5.882,-6.262 1.342,-6.262c-3.501,0.002 -5.882,6.262 -1.342,6.262Z" style="fill:#010101;fill-rule:nonzero;"/><path d="M112.21,88.875c-0.051,0.188 -0.104,0.377 -0.165,0.563c0.117,-0.344 0.234,-0.688 0.352,-1.031c-0.039,0.104 -0.082,0.201 -0.138,0.297c0.207,-0.34 0.414,-0.68 0.62,-1.02c-0.014,0.021 -0.027,0.041 -0.041,0.061c0.638,-0.56 1.276,-1.12 1.915,-1.68c-0.017,0.007 -0.033,0.015 -0.049,0.021c-1.095,0.509 -2.067,1.669 -2.572,2.741c-0.326,0.671 -0.477,1.378 -0.455,2.123c0.03,0.683 0.264,1.285 0.704,1.808c0.376,0.551 1.059,0.852 1.7,0.932c2.04,0.256 3.989,-0.752 5.215,-2.369c0.486,-0.631 0.819,-1.335 0.998,-2.11c0.238,-1.109 -0.011,-1.937 -0.615,-2.856c-0.006,-0.009 -0.012,-0.018 -0.017,-0.026c0.23,0.594 0.463,1.188 0.693,1.783c0.042,-0.585 -0.182,-1.188 -0.358,-1.744c-0.535,-1.675 -2.612,-1.931 -4.04,-1.474c-1.854,0.59 -3.241,2.125 -3.747,3.981Z" style="fill:#010101;fill-rule:nonzero;"/><path d="M115.385,50.157c1.004,0 2.095,-0.627 2.822,-1.265c0.782,-0.687 1.4,-1.606 1.621,-2.634c0.183,-0.853 0.063,-1.785 -0.529,-2.46c-0.63,-0.718 -1.471,-0.845 -2.37,-0.845c-1.004,0 -2.095,0.627 -2.822,1.266c-0.781,0.686 -1.4,1.605 -1.62,2.634c-0.184,0.852 -0.063,1.785 0.528,2.459c0.63,0.718 1.472,0.845 2.37,0.845Z" style="fill:#010101;fill-rule:nonzero;"/><path d="M113.63,29.012c2.748,0 4.617,-4.914 1.053,-4.914c-2.748,0 -4.617,4.914 -1.053,4.914Z" style="fill:#010101;fill-rule:nonzero;"/><path d="M92.277,159.661c4.592,0 7.716,-8.213 1.76,-8.213c-4.592,0.001 -7.716,8.213 -1.76,8.213Z" style="fill:#010101;fill-rule:nonzero;"/><path d="M93.385,143.157c4.027,0 6.768,-7.203 1.543,-7.203c-4.028,-0.001 -6.767,7.203 -1.543,7.203Z" style="fill:#010101;fill-rule:nonzero;"/><path d="M63.298,145.56c4.479,0 7.526,-8.012 1.717,-8.012c-4.479,0.002 -7.526,8.012 -1.717,8.012Z" style="fill:#010101;fill-rule:nonzero;"/><path d="M73.805,369.481c2.427,-8.396 -1.755,-21.348 8.252,-25.709c7.819,-3.408 16.838,-2.384 24.69,-5.98c10.435,-4.778 13.678,-13.583 15.087,-24.242c0.704,-5.321 2.583,-10.334 7.483,-13.087c3.686,-2.069 8.949,-1.927 13.016,-2.665c9.684,-1.757 19.078,-5.604 24.079,-14.595c3.616,-6.502 3.226,-13.854 5.616,-20.696c4.118,-11.783 17.217,-7.445 26.904,-9.229c13.26,-2.44 19.507,-13.956 29.997,-20.824c-1.259,-3.291 -2.517,-6.583 -3.774,-9.874c-2.719,1.897 -5.029,4.211 -6.438,7.262c-0.938,2.034 0.091,4.325 2.531,4.141c3.848,-0.292 5.844,-0.102 9.184,-2.603c5.719,-4.283 1.092,-13.287 -5.277,-8.8c-5.188,3.653 -9.619,7.839 -14.164,12.242c-5.057,4.898 -9.578,7.233 -16.748,7.385c-7.082,0.149 -14.092,-0.236 -20.45,3.489c-4.736,2.776 -8.274,6.728 -11.067,11.382c-3.872,6.451 -3.277,14.067 -5.653,20.947c-3.025,8.758 -14.7,8.728 -22.354,10.325c-10.996,2.294 -19.03,9.868 -22.422,20.565c-1.639,5.169 -0.718,10.904 -2.833,15.94c-1.821,4.336 -7.775,5.948 -11.831,6.974c-9.324,2.359 -17.978,3.466 -24.825,10.925c-7.003,7.628 -5.31,18.858 -2.033,27.705c0.611,1.659 2.735,0.041 3.03,-0.978Z" style="fill:#010101;fill-rule:nonzero;"/><path d="M113.858,494.493c3.991,-3.118 7.296,-7.141 10.96,-10.632c3.958,-3.771 8.176,-7.269 12.382,-10.754c8.529,-7.07 17.752,-13.72 25.686,-21.443c4.934,-4.803 -0.538,-11.136 -5.457,-6.219c-7.917,7.915 -16.476,14.93 -25.094,22.118c-7.916,6.603 -19.006,14.6 -22.963,24.472c-1.354,3.377 2.217,4.231 4.486,2.458Z" style="fill:#010101;fill-rule:nonzero;"/><path d="M90.25,427.412c8.604,-5.61 16.167,-13.113 24.512,-19.177c9.313,-6.768 18.894,-13.162 28.293,-19.805c8.578,-6.063 16.838,-12.511 25.085,-19.013c4.21,-3.317 8.343,-6.728 12.349,-10.29c0.871,-0.783 1.734,-1.579 2.588,-2.384c0.722,-0.672 4.856,-3.035 1.266,-1.459c0.701,-0.308 3.855,-0.869 1.632,-0.666c-0.633,-2.937 -1.265,-5.873 -1.897,-8.81c-0.243,0.249 -0.513,0.47 -0.805,0.662c-1.371,1.062 -2.744,3.344 -2.475,5.157c0.134,0.899 0.289,1.549 0.883,2.269c1.541,1.869 4.408,1.345 6.245,0.334c0.315,-0.144 0.612,-0.317 0.888,-0.526c2.436,-1.726 6.902,-9.221 0.795,-9.711c-3.326,-0.267 -5.848,1.672 -8.168,3.829c-3.748,3.485 -7.234,7.13 -11.167,10.445c-9.045,7.627 -18.473,14.925 -28.06,21.854c-9.677,6.994 -19.629,13.598 -29.292,20.612c-8.954,6.5 -19.78,13.407 -26.455,22.364c-2.167,2.908 0.526,6.439 3.783,4.315Z" style="fill:#010101;fill-rule:nonzero;"/><path d="M73.122,371.077c5.85,-3.558 11.146,-7.985 16.761,-11.897c5.742,-4.003 11.675,-7.729 17.641,-11.387c11.936,-7.313 24.059,-14.316 35.853,-21.857c12.554,-8.027 24.499,-17.04 36.355,-26.052c6.102,-4.639 12.15,-9.343 18.196,-14.052c3.031,-2.359 6.061,-4.725 9.091,-7.086c2.429,-1.894 5.476,-5.321 8.403,-6.298c2.945,-0.981 6.144,-4.485 4.866,-7.818c-1.624,-4.236 -7.243,-1.729 -9.169,0.743c-0.679,0.871 -1.24,1.771 -1.787,2.729c-1.079,1.896 -0.237,4.272 1.912,4.771c1.524,0.353 2.73,0.116 4.178,-0.423c-1.434,-2.357 -2.867,-4.717 -4.303,-7.075c-2.026,3.045 -6.321,5.355 -9.18,7.587c-3.026,2.365 -6.052,4.733 -9.078,7.101c-6.037,4.719 -12.088,9.421 -18.174,14.076c-12.039,9.209 -24.22,18.242 -37.015,26.38c-11.839,7.528 -24.019,14.502 -35.837,22.064c-11.072,7.086 -23.542,14.516 -32.056,24.689c-2.145,2.563 0.541,5.51 3.343,3.805Z" style="fill:#010101;fill-rule:nonzero;"/><path d="M89.671,422.971c2.697,4.92 7.731,8.321 12.235,11.491c5.65,3.979 11.788,7.248 17.878,10.487c5.797,3.083 11.624,6.1 17.278,9.438c5.571,3.289 13.284,7.361 16.723,13.002c0.88,1.444 3.292,1.318 4.628,0.907c0.058,-0.018 0.114,-0.034 0.171,-0.053c2.729,-0.841 7.315,-5.833 4.166,-8.687c-2.228,-2.018 -4.953,-2.217 -7.786,-1.547c-2.165,0.513 -3.572,2.709 -3.702,4.791c-0.142,2.271 1.418,4.453 3.563,5.26c-0.154,-2.254 -0.309,-4.508 -0.462,-6.762c-0.039,0.047 -0.079,0.092 -0.119,0.139c2.457,-0.815 4.913,-1.633 7.37,-2.448c-5.636,-2.896 -10.568,-7.545 -16.162,-10.708c-5.751,-3.252 -11.769,-6.036 -17.737,-8.858c-5.891,-2.784 -11.76,-5.604 -17.444,-8.795c-5.854,-3.288 -10.67,-7.978 -16.386,-11.354c-1.834,-1.082 -5.33,1.662 -4.214,3.697Z" style="fill:#010101;fill-rule:nonzero;"/><path d="M110.052,495.524c1.788,2.908 5.228,4.662 8.018,6.521c3.847,2.563 8.067,4.653 12.096,6.92c2.973,1.673 5.881,3.439 8.785,5.229c1.146,0.706 3.56,2.261 3.73,2.559c0.699,-2.007 1.398,-4.013 2.098,-6.019c2.214,-1.201 2.622,-1.486 1.227,-0.855c-2.811,1.192 -5.314,4.144 -3.436,7.163c0.571,0.92 1.599,1.708 2.721,1.806c3.728,0.324 7.496,-2.651 7.465,-6.551c0,-0.061 -0.001,-0.119 -0.001,-0.179c-0.009,-1.157 -0.713,-2.354 -1.752,-2.882c-4.554,-2.311 -9.535,-4.075 -14.172,-6.253c-4.273,-2.007 -8.607,-3.879 -12.924,-5.79c-3.686,-1.631 -8.107,-3.684 -12.161,-3.889c-1.122,-0.057 -2.392,1.085 -1.694,2.22Z" style="fill:#010101;fill-rule:nonzero;"/><path d="M79.902,343.534c6.011,5.479 13.927,9.034 20.967,13.014c8.141,4.603 16.342,9.097 24.478,13.71c15.854,8.988 31.128,18.829 46.185,29.087c2.024,-3.328 4.051,-6.656 6.075,-9.985c-2.844,-0.829 -4.886,-1.067 -7.838,-0.657c-1.896,0.265 -4.296,2.322 -3.443,4.469c1.165,2.935 2.747,4.289 5.206,6.174c4.508,3.455 12.813,-5.981 7.254,-9.575c-15.358,-9.925 -31.604,-18.447 -47.711,-27.07c-7.729,-4.137 -15.483,-8.232 -23.293,-12.212c-7.898,-4.023 -15.864,-9.037 -24.418,-11.484c-1.957,-0.564 -5.371,2.788 -3.462,4.529Z" style="fill:#010101;fill-rule:nonzero;"/><path d="M129.372,297.121c3.182,4.195 9.176,6.854 13.684,9.435c5.38,3.079 10.728,6.225 16.072,9.362c10.61,6.23 21.116,12.656 31.313,19.543c-0.63,-1.035 -1.26,-2.071 -1.89,-3.108c0.176,1.915 1.029,3.399 2.839,4.177c2.104,-3.457 4.208,-6.915 6.313,-10.372c-2.314,-0.416 -4.359,-0.81 -6.709,-0.506c-2.547,0.33 -5.938,3.214 -4.711,6.113c1.17,2.769 3.34,4.611 6.329,5.188c5.744,1.107 12.198,-8.582 5.091,-10.797c1.862,3.151 2.463,3.602 1.803,1.351c-0.568,-1.48 -1.934,-2.019 -3.231,-2.705c-3.245,-1.72 -6.472,-3.454 -9.669,-5.261c-5.972,-3.372 -11.971,-6.695 -17.992,-9.979c-6.05,-3.3 -12.143,-6.495 -18.349,-9.494c-5.736,-2.771 -12.205,-6.315 -18.668,-6.559c-1.61,-0.06 -3.283,2.219 -2.225,3.612Z" style="fill:#010101;fill-rule:nonzero;"/><path d="M168.347,254.143c4.553,5.571 11.151,9.083 17.061,13.018c3.521,2.344 7.309,4.583 10.564,7.288c2.182,1.813 4.168,5.329 6.996,5.865c4.316,0.817 8.449,-3.818 7.441,-7.93c-0.646,-2.637 -5.34,-4.177 -7.559,-5.317c-3.764,-1.935 -7.322,-4.407 -10.984,-6.535c-6.659,-3.869 -13.225,-8.081 -20.745,-10.026c-1.723,-0.446 -4.051,2.071 -2.774,3.637Z" style="fill:#010101;fill-rule:nonzero;"/><path d="M37.292,260.053c9.08,-3.444 15.433,6.626 20.138,12.899c4.99,6.654 9.881,13.834 18.03,16.761c8.021,2.883 16.762,3.229 25.011,5.24c3.462,0.845 7.204,2.06 9.897,4.493c3.135,2.834 0.837,7.457 3.57,9.933c1.514,1.369 3.917,0.993 5.318,-0.432c7.867,-8.001 -1.944,-17.611 -9.642,-20.323c-9.395,-3.31 -19.524,-3.14 -29.071,-5.782c-15.375,-4.257 -25.573,-41.415 -44.89,-26.998c-2.03,1.516 -1.271,5.313 1.639,4.209Z" style="fill:#010101;fill-rule:nonzero;"/></g></svg>