<?xml version="1.0" encoding="UTF-8"?>
<svg width="539px" height="411px" viewBox="0 0 539 411" version="1.1" xmlns="http://www.w3.org/2000/svg" xmlns:xlink="http://www.w3.org/1999/xlink">
    <!-- Generator: Sketch 41 (35326) - http://www.bohemiancoding.com/sketch -->
    <title>island</title>
    <desc>Created with Sketch.</desc>
    <defs></defs>
    <g id="Page-1" stroke="none" stroke-width="1" fill="none" fill-rule="evenodd">
        <g id="Layer_1" transform="translate(-4835.000000, -5509.000000)" fill="#010101">
            <g id="Layer_1_3_">
                <g id="island" transform="translate(4835.000000, 5509.000000)">
                    <path d="M75.977,259.825 C79.827,245.805 93.711,236.369 105.543,229.519 C118.246,222.165 132.021,216.548 145.941,211.961 C167.519,204.852 189.527,199.792 212.066,196.897 C234.803,193.976 258.281,192.415 280.98,196.126 C279.869,194.86 278.758,193.594 277.648,192.328 C277.663,192.554 277.673,192.778 277.681,193.004 C277.784,195.469 280.081,197.255 282.509,196.898 C282.736,196.866 282.963,196.832 283.19,196.794 C286.062,196.344 288.595,194.674 289.86,191.986 C291.098,189.353 290.439,185.789 287.148,185.222 C284.598,184.783 282.474,185.083 280.037,185.941 C276.543,187.171 271.672,194.798 277.908,195.879 C279.202,196.104 280.455,196.397 281.726,196.727 C283.045,192.87 284.365,189.012 285.684,185.156 C285.46,185.173 285.237,185.191 285.013,185.213 C286.622,186.511 288.232,187.809 289.841,189.107 C289.795,188.893 289.753,188.677 289.714,188.462 C289.394,186.752 288.455,184.762 286.382,184.664 C274.136,184.09 262.09,183.462 249.823,183.934 C237.285,184.415 224.78,185.638 212.359,187.389 C188.647,190.731 165.455,196.52 142.944,204.655 C127.19,210.347 111.633,217.089 97.524,226.186 C85.256,234.097 71.354,245.291 70.54,260.924 C70.36,264.416 75.409,261.895 75.977,259.825 L75.977,259.825 Z" id="Shape"></path>
                    <path d="M71.18,262.346 C68.071,269.687 84.267,273.868 88.589,275.093 C93.119,276.376 97.765,277.285 102.427,277.929 C104.405,278.201 106.417,278.327 108.411,278.391 C110.965,278.47 109.925,279.132 108.086,277.439 C109.239,278.502 110.464,278.853 112.022,278.664 C119.309,277.779 121.495,265.777 112.909,268.071 C111.758,268.379 110.602,268.959 109.727,269.784 C111.736,267.891 113.559,268.431 111.196,268.538 C109.76,268.602 108.315,268.559 106.882,268.48 C102.416,268.235 97.983,267.723 93.573,266.973 C89.546,266.288 85.483,265.347 81.626,263.989 C79.212,263.139 75.812,260.583 73.232,260.867 C72.379,260.961 71.52,261.542 71.18,262.346 L71.18,262.346 Z" id="Shape"></path>
                    <path d="M114.991,271.291 C108.049,275.405 108.534,283.452 115.522,286.966 C118.864,288.647 122.831,289.323 126.482,289.938 C128.276,290.24 130.081,290.47 131.878,290.741 C132.734,290.87 133.59,291.001 134.444,291.139 C136.023,291.395 133.44,289.895 134.581,290.987 C142.15,298.237 151.297,278.658 139.224,281.307 C138.105,281.552 139.325,281.392 137.795,281.344 C136.395,281.299 134.993,281.297 133.593,281.277 C130.602,281.235 127.602,280.995 124.64,280.579 C122.404,280.266 119.373,279.855 117.541,278.381 C115.741,276.932 116.901,274.411 117.195,272.523 C117.407,271.161 116.056,270.66 114.991,271.291 L114.991,271.291 Z" id="Shape"></path>
                    <path d="M141.432,284.56 C135.67,291.197 139.078,300.378 146.457,303.655 C150.5,305.451 155.227,305.471 159.565,305.661 C166.285,305.954 173.018,305.721 179.712,305.104 C192.126,303.961 204.675,300.851 215.95,295.486 C220.167,293.48 224.22,291.128 228.341,288.938 C229.929,288.094 231.53,287.225 233.19,286.526 C233.048,286.586 238.419,284.677 236.444,285.519 C238.93,284.46 244.091,279.691 240.661,276.726 C235.551,272.31 226.628,279.283 221.918,281.959 C213.213,286.905 204.763,290.769 195.003,293.348 C183.372,296.421 170.994,297.154 159.004,296.891 C155.282,296.809 150.925,296.429 147.654,294.533 C143.917,292.367 145.747,287.574 144.648,284.3 C144.124,282.735 142.102,283.788 141.432,284.56 L141.432,284.56 Z" id="Shape"></path>
                    <path d="M235.026,278.986 C232.863,283.883 238.159,288.3 241.89,290.451 C247.158,293.486 254.016,294.041 259.948,294.18 C265.677,294.315 271.844,293.548 277.155,291.313 C280.009,290.112 282.448,288.55 284.538,286.25 C283.236,287.682 286.388,283.805 286.602,283.368 C287.381,281.785 287.75,280.082 287.016,278.406 C285.122,274.087 279.299,276.31 277.2,279.201 C276.515,280.143 275.741,281.244 275.584,282.439 C275.436,283.562 277.827,279.919 276.459,281.197 C275.922,281.698 276.493,281.254 275.214,281.953 C274.56,282.309 273.915,282.52 273.151,282.794 C268.947,284.296 264.439,284.768 260.004,284.908 C255.34,285.054 250.889,284.334 246.441,282.975 C242.946,281.909 240.957,278.419 237.76,277.393 C236.715,277.057 235.417,278.102 235.026,278.986 L235.026,278.986 Z" id="Shape"></path>
                    <path d="M282.134,277.444 C284.334,287.514 297.092,291.822 305.711,294.74 C319.477,299.4 333.877,301.443 348.35,302.105 C361.119,302.689 374.865,302.18 386.96,297.641 C396.326,294.126 405.632,286.4 404.286,275.369 C403.282,267.143 390.7,273.435 392.359,280.644 C392.509,281.3 392.531,282.113 392.251,283.299 C392.283,283.163 391.74,284.337 392.217,283.557 C391.991,283.927 390.363,285.745 391.412,284.702 C389.176,286.924 385.723,288.295 381.703,289.535 C370.426,293.017 358.035,293.252 346.338,292.88 C333.885,292.483 321.133,290.82 309.108,287.532 C300.733,285.242 291.155,281.665 284.727,275.594 C283.568,274.5 281.853,276.155 282.134,277.444 L282.134,277.444 Z" id="Shape"></path>
                    <path d="M396.548,274.173 C400.811,279.714 407.748,282.014 414.163,284.023 C422.73,286.706 431.843,288.072 440.803,288.386 C457.233,288.963 477.151,286.198 488.127,272.485 C491.653,268.079 488.572,263.166 483.211,264.4 C482.182,264.543 481.213,264.871 480.306,265.382 C480.563,265.236 476.297,268.595 478.147,267.296 C476.608,268.377 474.814,270.61 476.342,272.481 C476.322,272.269 476.303,272.059 476.283,271.846 C476.49,273.812 477.599,274.985 479.478,275.488 C479.906,275.602 480.333,275.717 480.761,275.831 C480.14,273.054 479.521,270.276 478.9,267.499 C469.836,277.22 454.12,278.371 441.661,278.437 C433.649,278.48 425.721,277.611 417.838,276.228 C411.197,275.063 404.718,273.104 398.029,272.231 C397.113,272.112 395.848,273.263 396.548,274.173 L396.548,274.173 Z" id="Shape"></path>
                    <path d="M87.51,275.8 C91.414,287.363 97.369,298.366 101.703,309.814 C106.172,321.62 109.727,333.708 111.158,346.268 C111.926,353.004 122.893,347.835 120.971,341.927 C120.194,339.536 118.768,338.625 116.457,337.912 C114.306,337.248 111.688,339.63 111.327,341.61 C111.031,343.232 111.106,344.631 111.158,346.267 C114.429,344.82 117.7,343.373 120.971,341.926 C118.037,329.53 113.857,317.449 108.794,305.771 C104.023,294.763 98.602,282.685 91.275,273.111 C89.912,271.33 86.914,274.034 87.51,275.8 L87.51,275.8 Z" id="Shape"></path>
                    <path d="M470.974,276.71 C461.879,284.798 458.619,298.72 455.423,309.967 C453.645,316.223 452.21,322.657 451.001,329.046 C450.634,330.985 450.605,333.028 450.457,334.993 C450.422,335.474 450.479,336.571 450.305,336.995 C449.228,339.61 449.521,338.038 450.684,336.749 C452.677,336.087 454.67,335.425 456.663,334.763 C456.481,334.693 456.301,334.622 456.119,334.552 C453.238,333.443 449.337,335.99 449.584,339.251 C449.615,339.158 449.647,339.065 449.678,338.975 C448.625,343.975 454.317,343.592 457.012,341.587 C460.078,339.309 459.741,335.391 459.774,332.006 C459.831,326.211 460.936,320.534 461.958,314.836 C463.125,308.322 464.623,301.83 466.462,295.475 C468.23,289.36 471.266,283.491 472.483,277.247 C472.672,276.271 471.527,276.218 470.974,276.71 L470.974,276.71 Z" id="Shape"></path>
                    <path d="M114.337,346.369 C114.718,351.324 118.946,354.877 122.697,357.71 C122.249,356.583 121.801,355.456 121.351,354.329 C119.578,363.087 125.62,367.252 133.171,369.592 C135.799,370.406 138.504,371.137 141.201,371.702 C142.454,371.964 143.71,372.207 144.961,372.477 C146.053,372.713 146.998,372.713 148.086,372.393 C148.783,372.187 151.116,371.333 148.815,372.114 C147.226,370.832 145.637,369.551 144.047,368.267 C142.342,373.587 156.635,369.305 152.194,363.825 C150.677,361.953 146.3,362.189 144.121,361.871 C141.869,361.543 139.683,361.06 136.348,360.281 C132.899,359.476 129.077,357.799 129.674,353.655 C129.907,352.03 129.295,350.201 127.414,349.957 C122.848,349.363 120.271,346.802 116.292,344.963 C115.441,344.568 114.266,345.438 114.337,346.369 L114.337,346.369 Z" id="Shape"></path>
                    <path d="M147.67,368.376 C149.731,377.087 159.283,380.059 167.108,381.554 C175.91,383.236 185.06,383.05 193.975,382.733 C201.297,382.472 208.596,381.568 215.813,380.327 C219.194,379.746 222.551,379.016 225.89,378.233 C227.63,377.826 229.354,377.35 231.077,376.874 C234.167,376.02 230.292,377.16 232.473,376.308 C235.763,375.023 239.058,373.626 242.422,372.557 C245.644,371.533 249.466,369.908 250.168,366.142 C250.506,364.329 249.684,362.123 247.579,361.905 C244.895,361.626 242.775,362.971 241.184,365.04 C240.229,366.282 239.673,368.284 240.833,369.597 C241.219,370.034 242.605,371.582 241.319,370.109 C241.792,367.904 242.264,365.699 242.737,363.494 C245.119,362.422 245.757,362.015 244.651,362.27 C243.897,362.423 243.167,362.886 242.501,363.27 C241.573,363.803 240.609,364.357 239.621,364.768 C236.931,365.882 234.216,366.942 231.521,368.05 C220.549,372.566 207.473,373.675 195.719,374.584 C181.82,375.659 161.242,377.85 151.133,365.905 C149.737,364.251 147.29,366.766 147.67,368.376 L147.67,368.376 Z" id="Shape"></path>
                    <path d="M242.778,366.125 C244.883,373.24 254.787,373.626 260.855,373.814 C264.886,373.939 268.99,373.384 272.964,372.774 C276.3,372.261 279.883,370.855 283.223,370.768 C290.907,370.569 289.916,358.109 282.753,362.414 C278.054,365.238 270.274,365.625 264.96,366.133 C257.831,366.815 251.699,365.504 244.84,363.927 C243.684,363.663 242.451,365.018 242.778,366.125 L242.778,366.125 Z" id="Shape"></path>
                    <path d="M284.192,366.08 C288.289,380.568 311.359,382.092 323.422,383.2 C344.865,385.171 365.318,382.839 385.771,376.061 C388.221,375.248 391.106,372.519 390.719,369.657 C390.703,369.442 390.673,369.229 390.627,369.018 C390.107,366.497 387.881,364.921 385.262,366.006 C384.367,366.376 383.506,366.895 382.627,367.254 C379.003,368.734 375.829,375.61 381.926,375.627 C382.775,375.629 383.613,375.564 384.461,375.571 C383.143,374.069 381.822,372.565 380.504,371.063 C380.461,371.286 380.431,371.51 380.414,371.738 C382.028,370.022 383.643,368.305 385.257,366.59 C375.647,370.437 365.942,373.627 355.665,375.079 C346.541,376.368 337.353,376.146 328.174,375.874 C314.137,375.459 297.365,374.508 286.676,364.305 C285.608,363.286 283.837,364.83 284.192,366.08 L284.192,366.08 Z" id="Shape"></path>
                    <path d="M388.639,358.206 C392.778,369.449 410.571,366.896 419.25,364.523 C430.946,361.324 442.796,354.623 450.854,345.491 C454.078,341.836 451.131,337.263 446.585,338.47 C445.03,338.883 443.897,339.636 442.628,340.6 C440.842,341.953 439.99,344.654 441.354,346.544 C442.179,347.688 443.163,347.988 444.458,348.396 C443.92,345.984 443.381,343.573 442.842,341.161 C437.033,348.062 428.358,352.836 420.043,355.996 C415.28,357.807 410.275,358.855 405.187,359.082 C400.002,359.311 395.744,357.119 390.907,355.789 C389.696,355.457 388.205,357.027 388.639,358.206 L388.639,358.206 Z" id="Shape"></path>
                    <path d="M137.034,306.932 C141.082,321.54 143.918,336.895 145.952,351.921 C146.428,355.436 147.672,378.983 155.001,374.8 C158.691,372.695 156.267,368.88 155.272,366.014 C153.36,360.505 152.557,354.534 151.466,348.825 C148.637,334.016 142.908,320.551 137.994,306.384 C137.796,305.81 136.895,306.431 137.034,306.932 L137.034,306.932 Z" id="Shape"></path>
                    <path d="M121.046,315.592 C124.014,327.675 127.382,340.332 128.472,352.738 C128.694,355.269 127.241,368.543 132.78,366.301 C133.947,365.828 135.617,364.512 135.319,363.017 C135.012,364.205 134.98,364.454 135.223,363.758 C135.506,363.017 135.572,362.421 135.528,361.638 C135.454,360.312 134.905,358.894 134.681,357.58 C134.208,354.811 133.861,352.037 133.244,349.293 C130.59,337.479 125.936,326.441 121.981,315.06 C121.786,314.495 120.928,315.111 121.046,315.592 L121.046,315.592 Z" id="Shape"></path>
                    <path d="M285.692,296.149 C285.469,308.145 284.74,320.113 284.789,332.143 C284.834,343.344 284.841,354.54 284.71,365.741 C284.701,366.527 285.202,367.297 285.88,367.665 C286.124,367.798 286.368,367.932 286.613,368.064 C287.835,368.728 289.165,367.835 289.959,366.952 C293.063,363.498 291.358,357.658 291.135,353.387 C290.795,346.914 290.308,340.459 289.78,334 C288.746,321.367 286.963,308.486 286.674,295.835 C286.658,295.197 285.701,295.654 285.692,296.149 L285.692,296.149 Z" id="Shape"></path>
                    <path d="M397.702,298.031 C393.851,310.009 393.623,322.886 392.341,335.325 C391.58,342.7 390.808,350.112 389.376,357.391 C388.737,360.634 387.337,367.372 385.18,368.703 C382.38,370.43 382.045,375.478 386.345,374.32 C391.431,372.951 393.46,367.191 394.726,362.661 C396.691,355.625 397.235,348.074 397.702,340.813 C398.236,332.498 398.288,324.134 398.403,315.804 C398.482,310.049 397.673,303.62 398.664,297.952 C398.786,297.248 397.85,297.571 397.702,298.031 L397.702,298.031 Z" id="Shape"></path>
                    <path d="M407.887,57.221 C395.485,64.303 387.19,75.184 379.766,87.178 C371.319,100.827 364.161,115.347 357.282,129.832 C349.593,146.022 342.844,162.607 337.219,179.628 C334.335,188.357 331.885,197.231 329.906,206.208 C328.996,210.335 328.494,214.542 327.973,218.733 C327.55,222.131 326.516,227.358 328.036,230.542 C330.738,236.199 340.13,229.963 338.032,224.844 C337.567,223.71 336.729,222.908 336.074,221.909 C333.853,218.517 327.898,222.778 327.632,225.694 C327.486,227.301 327.327,229.023 328.036,230.542 C331.368,228.643 334.7,226.743 338.032,224.844 C336.68,222.333 338.153,216.99 338.502,214.318 C339.051,210.114 339.748,206.012 340.665,201.871 C342.385,194.102 344.531,186.438 346.898,178.845 C351.952,162.631 358.446,146.849 365.321,131.332 C371.217,118.026 377.421,104.773 384.181,91.883 C390.441,79.948 398.316,67.389 408.71,58.595 C409.561,57.875 408.951,56.615 407.887,57.221 L407.887,57.221 Z" id="Shape"></path>
                    <path d="M406.281,79.685 C402.775,85.01 398.555,89.739 395.243,95.251 C391.468,101.535 388.169,108.087 385.027,114.708 C379.022,127.368 374.192,140.479 370.141,153.885 C362.017,180.773 357.923,208.952 357.562,237.02 C361.086,235.891 364.61,234.761 368.134,233.631 C367.996,231.214 367.541,229.45 366.436,227.28 C364.883,224.233 360.501,226.132 359.48,228.697 C358.356,231.516 357.729,233.986 357.562,237.019 C357.207,243.487 368.174,239.327 368.134,233.63 C367.949,206.971 371.84,180.567 378.539,154.798 C381.974,141.588 386.341,128.569 391.404,115.897 C393.874,109.713 396.717,103.712 399.471,97.655 C402.075,91.931 404.304,85.509 407.525,80.117 C408.031,79.273 406.709,79.034 406.281,79.685 L406.281,79.685 Z" id="Shape"></path>
                    <path d="M286.701,69.175 C288.233,54.792 302.591,44.7 314.081,38.036 C324.703,31.875 336.718,28.946 348.849,27.649 C361.625,26.283 375.238,26.977 387.303,31.702 C392.835,33.867 397.882,37.047 402.099,41.229 C407.269,46.358 409.815,53.212 413.744,59.22 C415.588,56.225 417.431,53.231 419.274,50.236 C417.908,50.174 416.622,49.86 415.302,49.532 C412.335,48.794 408.589,52.54 409.706,55.496 C410.815,58.43 412.698,59.926 415.811,60.355 C420.27,60.969 425.498,55.695 422.622,51.429 C418.339,45.076 415.567,38.277 409.96,32.863 C404.843,27.922 398.449,24.514 391.774,22.208 C377.522,17.282 361.955,17.264 347.185,19.521 C333.232,21.653 320.161,26.133 308.313,33.866 C296.875,41.333 281.01,54.55 282.958,69.931 C283.243,72.185 286.519,70.882 286.701,69.175 L286.701,69.175 Z" id="Shape"></path>
                    <path d="M285.194,71.562 C294.276,66.336 302.731,60.593 312.51,56.615 C323.423,52.176 335.073,49.469 346.768,48.222 C369.215,45.827 393.321,49.241 411.961,62.681 C416.527,65.973 424.253,57.072 419.066,53.302 C416.295,51.289 414.513,52.37 411.492,52.317 C409.15,52.275 406.635,55.56 408.222,57.63 C409.326,59.068 409.458,60.551 411.021,61.935 C413.703,59.057 416.384,56.18 419.066,53.303 C399.04,38.865 372.628,35.998 348.725,39.087 C336.177,40.707 323.848,44.121 312.329,49.356 C302.025,54.038 290.382,60.476 283.996,70.199 C283.367,71.156 284.109,72.186 285.194,71.562 L285.194,71.562 Z" id="Shape"></path>
                    <path d="M422.438,60.662 C433.841,53.784 449.616,54.33 462.249,56.023 C473.001,57.463 482.819,61.092 492.415,66.07 C510.589,75.497 531.729,93.598 527.115,116.402 C529.576,114.628 532.038,112.853 534.499,111.078 C532.849,110.543 531.325,110.444 529.602,110.478 C527.545,110.518 524.823,112.95 525.193,115.164 C525.621,117.726 526.685,118.989 528.754,120.519 C531.919,122.859 536.636,118.509 537.251,115.581 C542.852,88.922 520.118,68.689 498.59,57.919 C487.385,52.313 475.277,49.311 462.825,48.408 C447.964,47.331 432.955,49.089 421.723,59.468 C421.032,60.106 421.504,61.225 422.438,60.662 L422.438,60.662 Z" id="Shape"></path>
                    <path d="M425.389,64.578 C429.765,64.194 434.368,65.59 438.7,66.012 C443.313,66.461 447.866,67.392 452.369,68.471 C462.501,70.9 472.274,74.75 481.525,79.518 C498.567,88.301 514.389,101.142 522.428,118.892 C524.489,116.217 526.551,113.542 528.612,110.868 C527.828,110.754 527.055,110.805 526.294,111.024 C524.108,111.412 520.544,114.013 521.907,116.715 C521.999,117.044 522.091,117.373 522.182,117.701 C522.729,124.838 535.086,119.342 532.6,113.093 C524.835,93.578 506.505,79.547 488.003,70.966 C478.198,66.419 467.692,63.238 457.004,61.637 C451.984,60.884 446.899,60.596 441.826,60.573 C436.136,60.547 431.123,62.368 425.638,63.407 C425.049,63.518 424.51,64.654 425.389,64.578 L425.389,64.578 Z" id="Shape"></path>
                    <path d="M291.397,118.559 C300.677,75.73 355.047,58.378 393.803,63.705 C394.96,60.32 396.118,56.936 397.276,53.552 C394.465,54.091 391.931,54.663 389.859,56.772 C388.962,57.685 388.12,58.964 388.628,60.303 C389.513,62.637 391.532,63.21 393.804,63.705 C399.437,64.934 405.105,54.434 398.562,53.611 C374.424,50.574 349.128,55.696 327.394,66.35 C306.964,76.363 287.635,94.726 288.943,119.055 C289.026,120.615 291.178,119.568 291.397,118.559 L291.397,118.559 Z" id="Shape"></path>
                    <path d="M290.815,124.712 C298.978,118.518 306.212,111.069 314.342,104.775 C322.761,98.256 332.104,92.86 341.554,87.998 C360.838,78.077 381.53,71.088 402.446,65.528 C407.191,64.266 410.236,54.959 403.285,55.511 C399.968,55.775 396.901,56.975 394.56,59.383 C392.707,61.291 391.434,65.045 394.976,65.963 C397.038,66.496 398.987,65.98 401.08,65.802 C401.359,62.463 401.64,59.125 401.919,55.785 C380.056,61.715 358.509,69.26 338.442,79.859 C328.139,85.301 318.408,91.753 309.38,99.119 C301.547,105.511 292.681,114.078 289.147,123.797 C288.688,125.061 289.944,125.373 290.815,124.712 L290.815,124.712 Z" id="Shape"></path>
                    <path d="M417.74,66.264 C422.889,66.53 429.273,69.365 434.067,71.243 C439.322,73.302 444.415,75.769 449.186,78.787 C458.985,84.983 467.512,93.968 473.204,104.065 C478.62,113.674 481.215,124.498 480.584,135.506 C479.835,148.592 472.069,157.96 465.55,168.568 C463.777,171.453 465.853,174.919 469.252,172.788 C492.889,157.97 495.535,123.813 483.721,100.793 C477.653,88.967 468.32,79.374 457.07,72.397 C451.653,69.037 445.537,66.331 439.33,64.862 C436.265,64.136 433.078,63.588 429.928,63.466 C425.97,63.315 422.284,64.257 418.387,64.376 C417.52,64.403 416.566,66.203 417.74,66.264 L417.74,66.264 Z" id="Shape"></path>
                    <path d="M413.477,76.61 C421.609,83.94 430.215,90.374 437.737,98.419 C444.038,105.157 449.65,112.46 454.585,120.25 C459.808,128.495 464.012,137.533 466.392,147.014 C467.441,151.188 467.734,155.686 467.003,159.928 C466.405,163.4 462.757,167.363 464.315,170.864 C464.837,172.038 466.051,172.741 467.348,172.556 C477.604,171.101 478.557,155.217 477.644,147.341 C476.391,136.549 471.43,126.383 465.897,117.188 C460.469,108.168 454.139,100.096 446.804,92.561 C438.113,83.633 427.406,75.125 414.356,75.185 C413.826,75.186 412.923,76.11 413.477,76.61 L413.477,76.61 Z" id="Shape"></path>
                    <path d="M381.075,6.923 C392.527,8.575 401.918,18.319 407.917,27.593 C411.188,32.65 413.771,38.551 414.989,44.458 C415.556,47.208 415.809,50.143 415.539,52.942 C415.298,55.453 414.137,57.792 414.247,60.327 C414.38,63.373 418.349,63.079 419.96,61.445 C429.774,51.496 421.475,32.377 415.133,22.871 C407.894,12.02 395.333,1.577 381.466,5.1 C380.776,5.275 379.968,6.763 381.075,6.923 L381.075,6.923 Z" id="Shape"></path>
                    <path d="M380.427,7.967 C387.459,4.519 396.833,6.458 403.912,8.722 C411.642,11.195 417.767,15.374 422.312,22.176 C426.08,27.814 427.487,35.225 426.499,41.87 C425.264,50.176 419.144,54.349 414.995,60.989 C414.193,62.272 414.15,64.661 416.339,64.364 C426.197,63.024 432.361,52.087 434.671,43.272 C437.052,34.186 434.704,24.786 429.859,16.978 C424.494,8.332 415.676,4.036 406.151,1.691 C398.195,-0.268 384.648,-0.794 379.577,6.999 C379.113,7.713 379.653,8.347 380.427,7.967 L380.427,7.967 Z" id="Shape"></path>
                    <path d="M427.982,48.525 C433.775,43.025 440.5,38.216 447.842,35.024 C451.626,33.378 455.596,32.476 459.698,33.216 C464.545,34.091 466.163,39.063 470.466,40.214 C472.207,40.679 473.759,38.771 473.854,37.241 C474.134,32.702 468.486,29.137 464.544,27.971 C459.591,26.505 454.596,27.269 449.813,28.994 C440.548,32.338 432.61,39.828 426.873,47.643 C426.241,48.507 427.258,49.21 427.982,48.525 L427.982,48.525 Z" id="Shape"></path>
                    <path d="M441.594,47.729 C444.389,44.383 449.133,42.882 453.141,41.591 C456.073,40.647 463.661,38.217 466.581,40.21 C466.479,38.73 466.379,37.249 466.277,35.769 C466.256,35.803 466.233,35.837 466.212,35.873 C467.316,35.231 468.42,34.59 469.524,33.949 C469.35,33.978 469.174,34.008 469.001,34.037 C466.533,34.45 463.203,37.997 466.153,40.055 C466.274,40.139 466.394,40.224 466.515,40.308 C468.073,41.395 470.483,39.932 471.41,38.682 C471.434,38.649 471.46,38.616 471.483,38.582 C472.172,37.653 472.965,35.569 471.789,34.624 C467.478,31.163 458.758,34.587 454.185,36.348 C448.468,38.549 443.628,41.897 440.103,46.923 C439.253,48.131 440.802,48.677 441.594,47.729 L441.594,47.729 Z" id="Shape"></path>
                    <path d="M248.137,211.157 C249.11,216.1 265.391,209.126 267.651,208.356 C274.041,206.179 280.374,204.201 287.026,203.012 C302.508,200.246 318.282,199.187 333.977,200.082 C337.622,200.29 340.995,198.456 342.59,195.061 C344.243,191.547 342.42,187.456 338.168,187.829 C335.189,188.09 332.445,188.903 330.33,191.122 C328.946,192.573 327.735,194.397 328.458,196.493 C329.32,198.992 331.5,199.853 333.977,200.082 C335.374,195.998 336.772,191.913 338.168,187.829 C320.196,188.933 302.012,190.461 284.434,194.524 C276.34,196.395 268.768,199.698 261.085,202.78 C257.872,204.069 247.118,205.977 248.137,211.157 L248.137,211.157 Z" id="Shape"></path>
                    <path d="M364.173,200.17 C372.849,202.66 381.397,204.571 389.674,208.347 C398.465,212.357 407.057,216.763 415.559,221.35 C423.865,225.829 431.712,230.351 439.47,235.725 C448.497,241.975 457.454,248.461 465.737,255.681 C468.956,258.487 472.108,261.412 474.89,264.659 C476.12,266.096 476.395,266.564 476.643,267.337 C476.533,266.996 476.344,264.135 476.525,267.535 C476.557,268.15 476.693,268.735 476.93,269.289 C478.346,272.81 476.824,267.832 476.951,267.136 C476.413,270.098 478.387,272.856 481.608,272.445 C486.71,271.794 492.661,265.773 489.493,260.452 C487.371,256.889 484.431,254.006 481.335,251.282 C472.101,243.162 461.794,236.103 451.582,229.286 C443.043,223.587 434.496,218.306 425.17,214.002 C415.516,209.548 405.813,205.099 395.759,201.61 C386.319,198.334 376.23,194.54 366.132,194.449 C363.397,194.423 360.718,199.178 364.173,200.17 L364.173,200.17 Z" id="Shape"></path>
                    <path d="M324.951,231.48 C323.27,238.863 338.149,241.525 342.78,242.322 C347.744,243.176 352.825,243.427 357.854,243.467 C361.553,243.496 367.176,244.092 370.34,241.903 C376.067,237.94 374.58,229.555 366.918,232.958 C366.059,233.34 365.367,233.943 364.711,234.6 C362.876,236.437 360.513,242.411 365.222,242.691 C365.522,242.697 365.82,242.72 366.116,242.763 C365.278,240.673 364.44,238.583 363.602,236.493 C363.528,236.694 363.454,236.895 363.379,237.097 C364.893,235.77 366.404,234.442 367.918,233.115 C361.346,235.399 353.197,235.158 346.355,234.74 C342.584,234.509 338.854,233.907 335.228,232.844 C332.684,232.098 330.282,229.708 327.715,229.488 C326.461,229.378 325.236,230.228 324.951,231.48 L324.951,231.48 Z" id="Shape"></path>
                    <path d="M370.217,234.546 C372.631,218.781 387.365,206.173 403.274,206.228 C403.504,203.48 403.735,200.73 403.965,197.982 C395.488,200.891 388.337,206.203 382.213,212.668 C379.246,215.801 376.727,219.153 374.279,222.693 C373.247,224.185 372.192,225.66 371.107,227.114 C370.673,227.696 367.97,230.506 368.562,229.964 C364.71,233.49 365.839,239.582 371.779,238.233 C377.844,236.854 381.334,228.235 384.149,223.435 C388.561,215.912 396.42,209.368 404.398,206.002 C407.791,204.572 411.186,197.459 405.089,197.756 C387.325,198.619 361.898,214.953 367.514,235.418 C367.912,236.863 370.071,235.505 370.217,234.546 L370.217,234.546 Z" id="Shape"></path>
                    <path d="M290.042,190.925 C290.435,191.666 290.716,192.396 291.192,193.105 C291.712,193.878 292.301,194.506 293.202,194.841 C294.225,195.222 295.089,195.325 296.158,194.984 C297.311,194.616 298.341,193.853 299.069,192.893 C299.715,192.039 300.163,190.964 300.105,189.876 C300.047,188.796 299.522,188.191 298.706,187.574 C297.241,186.468 295.208,186.421 293.454,186.498 C292.356,186.547 291.286,187.281 290.641,188.132 C290.119,188.821 289.586,190.063 290.042,190.925 L290.042,190.925 Z" id="Shape"></path>
                    <path d="M82.394,339.665 C71.833,339.2 60.744,342.923 51.221,347.12 C43.009,350.741 31.785,356.815 30.515,366.793 C30.424,367.503 30.671,368.099 31.419,368.273 C54.002,373.559 80.736,361.107 101.59,373.652 C101.663,372.705 101.736,371.756 101.81,370.809 C94.262,378.813 81.59,379.744 71.31,381.139 C60.856,382.557 49.747,383.452 40.264,388.464 C39.239,389.007 38.211,390.893 39.577,391.669 C47.075,395.928 55.812,396.606 64.252,397.11 C74.963,397.751 85.54,399.226 96.229,400.132 C119.321,402.088 142.816,402.238 165.915,400.57 C166.998,400.492 168.348,398.212 166.762,398.094 C144.593,396.449 122.341,397.474 100.15,395.986 C90.128,395.314 80.185,393.816 70.152,393.362 C60.732,392.935 50.6,392.989 42.12,388.313 C41.891,389.381 41.662,390.45 41.433,391.518 C51.788,385.912 64.444,385.501 75.868,383.827 C85.535,382.411 96.795,380.541 103.888,373.175 C104.615,372.419 105.275,371.052 104.108,370.331 C82.799,357.165 55.955,370.336 32.945,365.042 C33.247,365.535 33.548,366.028 33.849,366.522 C35.018,357.077 46.995,351.884 54.663,348.719 C63.181,345.204 72.734,342.298 81.97,341.65 C83.061,341.574 83.848,339.729 82.394,339.665 L82.394,339.665 Z" id="Shape"></path>
                    <path d="M224.958,400.727 C238.516,406.951 254.083,408.307 268.733,405.184 C276.562,403.516 285.768,399.381 293.752,402.271 C296.817,403.381 299.619,405.382 302.495,406.893 C306.058,408.763 309.864,409.164 313.811,409.656 C331.981,411.915 350.88,410.336 369.034,408.636 C389.285,406.741 409.7,405.587 429.884,403.388 C431.052,403.261 432.662,400.895 430.833,400.611 C412.876,397.823 393.912,401.277 375.954,403.138 C356.679,405.135 336.911,407.125 317.526,405.829 C313.284,405.546 309.027,405.198 305.138,403.403 C302.126,402.012 299.319,400.249 296.247,398.976 C290.521,396.604 283.818,398.107 278.039,399.423 C269.668,401.328 261.875,403.051 253.242,403.115 C244.478,403.18 234.353,402.359 226.07,399.255 C225.274,398.957 224.036,400.304 224.958,400.727 L224.958,400.727 Z" id="Shape"></path>
                    <path d="M383.331,389.516 C410.52,388.332 437.291,384.624 464.386,388.995 C476.081,390.882 487.958,389.61 499.532,387.545 C511.333,385.441 523.255,383.252 534.959,380.696 C537.025,380.245 538.178,376.35 535.311,376.503 C523.634,377.127 511.965,380.774 500.515,382.962 C487.751,385.4 475.409,385.875 462.503,384.387 C436.232,381.359 409.878,386.169 383.698,387.799 C382.75,387.859 382.083,389.57 383.331,389.516 L383.331,389.516 Z" id="Shape"></path>
                    <path d="M42.661,142.538 C52.766,132.261 68.25,128.425 81.415,123.57 C99.407,116.934 118.083,112.086 137.133,109.775 C156.431,107.435 176.769,108.671 195.921,111.564 C205.767,113.05 214.961,115.5 224.157,119.322 C227.134,120.559 230.061,121.936 233.075,123.075 C234.309,123.541 238.694,124.609 239.111,125.143 C239.198,124.016 239.285,122.889 239.372,121.762 C239.589,121.562 239.805,121.363 240.021,121.163 C238.096,122.321 237.078,125.968 240.29,125.934 C241.115,125.925 241.774,125.73 242.497,125.324 C243.663,124.669 244.601,123.393 244.558,122.014 C244.43,118.048 236.107,116.981 233.266,115.908 C223.633,112.267 213.988,109.412 203.805,107.807 C182.695,104.481 161.114,104.454 139.846,106.052 C119.284,107.597 98.708,113.831 79.479,120.967 C71.774,123.826 63.951,126.648 56.44,129.991 C50.709,132.543 44.312,136.013 41.398,141.845 C40.957,142.728 42.085,143.123 42.661,142.538 L42.661,142.538 Z" id="Shape"></path>
                    <path d="M40.656,140.267 C40.077,149.237 48.335,152.925 55.983,154.65 C62.283,156.07 74.974,157.887 80.088,152.647 C80.492,152.233 80.927,151.119 79.984,150.994 C77.487,150.665 74.791,151.499 72.316,151.807 C68.098,152.332 63.806,152.195 59.599,151.662 C53.013,150.828 42.834,147.866 42.371,139.717 C42.307,138.563 40.709,139.443 40.656,140.267 L40.656,140.267 Z" id="Shape"></path>
                    <path d="M78.779,151.562 C79.379,162.956 94.111,165.833 103.153,167.238 C108.687,168.098 114.424,168.418 120.016,168.063 C122.942,167.878 125.861,167.158 128.537,165.968 C132.642,164.145 136.383,160.843 140.908,160.153 C145.528,159.449 145.101,152.611 140.617,154.982 C134.502,158.215 129.138,163.189 122.044,164.17 C117.411,164.811 112.581,164.534 107.945,164.143 C99.98,163.466 81.621,161.621 80.249,151.089 C80.125,150.134 78.739,150.809 78.779,151.562 L78.779,151.562 Z" id="Shape"></path>
                    <path d="M147.415,150.337 C154.398,153.725 169.131,157.593 174.882,150.064 C175.684,149.014 175.357,147.559 173.89,147.576 C170.487,147.614 166.994,149.607 163.49,150.013 C158.761,150.56 153.356,150.234 148.949,148.315 C147.846,147.834 146.175,149.736 147.415,150.337 L147.415,150.337 Z" id="Shape"></path>
                    <path d="M187.938,143.618 C188.616,152.347 203.352,152.702 209.529,153.098 C215.77,153.497 222.044,153.316 228.279,152.917 C232.449,152.651 237.598,152.763 241.616,151.479 C243.37,150.918 244.806,149.228 244.453,147.363 C243.974,144.83 239.664,146.693 238.28,146.937 C232.676,147.928 226.988,148.498 221.315,148.894 C214.737,149.355 208.065,149.537 201.503,148.793 C197.999,148.397 190.404,147.575 189.758,143.033 C189.591,141.858 187.865,142.68 187.938,143.618 L187.938,143.618 Z" id="Shape"></path>
                    <path d="M246.759,129.654 C249.569,131.208 251.633,133.347 253.528,135.905 C255.682,138.811 256.267,141.535 255.442,144.941 C254.738,147.85 258.62,147.341 259.774,145.757 C265.049,138.518 253.766,130.435 248.269,127.661 C247.202,127.123 245.57,128.996 246.759,129.654 L246.759,129.654 Z" id="Shape"></path>
                    <path d="M57.645,154.677 C59.406,159.376 61.965,163.813 64.147,168.33 C66.397,172.989 68.109,178.089 70.918,182.434 C71.824,183.833 73.925,181.713 73.617,180.507 C72.37,175.622 69.626,170.986 67.382,166.486 C65.113,161.938 62.901,157.185 59.904,153.064 C59.125,151.992 57.249,153.618 57.645,154.677 L57.645,154.677 Z" id="Shape"></path>
                    <path d="M84.78,174.411 C86.556,180.972 87.169,188.899 92.862,193.163 C97.383,196.549 103.63,197.182 109.073,197.295 C115.292,197.424 121.659,196.025 127.58,194.231 C129.32,193.704 139.146,190.523 136.146,187.211 C135.587,186.595 134.69,186.534 133.94,186.779 C125.717,189.461 117.758,191.781 109.024,191.866 C104.571,191.909 100.109,190.959 96.284,188.645 C90.657,185.242 88.1,179.666 86.249,173.573 C85.984,172.701 84.57,173.636 84.78,174.411 L84.78,174.411 Z" id="Shape"></path>
                    <path d="M243.083,150.453 C240.908,154.913 238.272,159.138 236.042,163.573 C234.82,166.002 231.881,170.733 233.163,173.578 C234.176,175.828 237.367,173.887 237.693,172.118 C239.062,164.679 242.363,157.834 245.278,150.863 C245.978,149.19 243.69,149.209 243.083,150.453 L243.083,150.453 Z" id="Shape"></path>
                    <path d="M188.385,151.781 C184.492,159.987 181.083,169.92 180.41,179.011 C180.312,180.339 182.182,179.452 182.502,178.842 C186.768,170.673 187.153,160.757 190.643,152.202 C191.346,150.48 188.998,150.49 188.385,151.781 L188.385,151.781 Z" id="Shape"></path>
                    <path d="M165.5,163.09 C165.242,168.96 163.03,174.333 162.008,180.06 C161.801,181.222 163.259,180.766 163.617,180.135 C166.731,174.656 168.182,168.514 168.197,162.225 C168.201,160.475 165.559,161.741 165.5,163.09 L165.5,163.09 Z" id="Shape"></path>
                    <path d="M163.254,181.401 C160.404,190.836 181.176,188.26 184.465,183.061 C185.254,181.814 184.744,180.233 183.043,180.721 C179.731,181.67 176.82,183.1 173.33,183.524 C170.668,183.848 166.016,184.043 165.082,180.812 C164.782,179.767 163.425,180.836 163.254,181.401 L163.254,181.401 Z" id="Shape"></path>
                    <path d="M174.965,145.822 C178.473,146.429 183.943,147.468 187.104,145.328 C187.432,145.105 188.113,144.182 187.405,143.923 C186.09,143.44 184.711,143.71 183.331,143.815 C180.901,143.999 178.472,143.825 176.063,143.495 C174.825,143.324 173.397,145.55 174.965,145.822 L174.965,145.822 Z" id="Shape"></path>
                    <path d="M132.446,186.334 C133.75,192.996 141.155,193.407 146.774,193.038 C151.541,192.725 162.727,191.219 164.546,185.853 C164.783,185.153 164.275,184.506 163.624,184.344 C161.912,183.916 159.984,185.265 158.467,185.898 C155.719,187.044 152.796,187.851 149.88,188.429 C145.433,189.311 136.661,190.969 134.532,185.409 C134.113,184.313 132.26,185.386 132.446,186.334 L132.446,186.334 Z" id="Shape"></path>
                    <path d="M181.078,181.011 C182.766,189.362 195.015,192.139 202.243,189.804 C202.923,189.585 204.184,188.032 203.017,187.554 C197.368,185.241 185.454,187.792 183.233,180.059 C182.902,178.903 180.88,180.035 181.078,181.011 L181.078,181.011 Z" id="Shape"></path>
                    <path d="M232.84,174.601 C229.27,179.033 224.451,180.695 219.738,183.499 C219.04,183.914 217.98,185.953 219.529,186.038 C225.961,186.391 232.08,181.018 235.521,176.05 C237.024,173.88 234.244,172.86 232.84,174.601 L232.84,174.601 Z" id="Shape"></path>
                    <path d="M70.996,183.333 C72.381,186.288 74.327,187.726 77.539,188.451 C80.489,189.118 85.225,189.618 88.128,188.689 C89.06,188.392 89.992,187.535 90.204,186.547 C90.827,183.64 85.345,184.575 84.1,184.656 C80.526,184.889 75.537,185.057 73.224,181.742 C72.5,180.706 70.507,182.292 70.996,183.333 L70.996,183.333 Z" id="Shape"></path>
                    <path d="M1.318,176.527 C4.709,173.111 10.024,171.605 14.473,170.166 C21.003,168.051 27.828,166.754 34.619,165.829 C41.107,164.945 47.75,164.531 54.281,165.129 C56.776,165.358 59.26,165.83 61.624,166.674 C63.102,167.201 64.379,168.208 66.005,168.151 C66.575,168.131 67.01,167.585 67.04,167.051 C67.276,162.82 58.567,162.112 55.843,161.816 C48.666,161.036 41.312,161.688 34.191,162.67 C26.796,163.69 19.47,165.386 12.443,167.914 C8.023,169.504 3.062,171.748 0.206,175.644 C-0.425,176.502 0.607,177.243 1.318,176.527 L1.318,176.527 Z" id="Shape"></path>
                    <path d="M243.323,164.883 C255.601,165.147 267.884,165.203 280.162,165.475 C292.568,165.747 304.915,167.46 317.302,167.651 C318.262,167.666 319.149,166.047 317.978,165.676 C306.845,162.155 294.402,162.298 282.821,162.185 C269.775,162.059 256.746,162.788 243.707,163.1 C242.712,163.124 242.026,164.856 243.323,164.883 L243.323,164.883 Z" id="Shape"></path>
                    <path d="M63.295,46.497 C67.993,57.105 75.406,66.19 81.882,75.736 C85.492,81.056 88.782,86.566 91.496,92.399 C93.738,97.218 94.332,103.777 97.417,107.996 C97.908,108.668 98.959,107.813 99.072,107.254 C100.102,102.202 97.418,96.426 95.448,91.869 C93.009,86.223 89.725,80.944 86.332,75.832 C79.463,65.482 71.773,55.703 64.959,45.31 C64.44,44.517 62.952,45.718 63.295,46.497 L63.295,46.497 Z" id="Shape"></path>
                    <path d="M69.12,41.179 C83.058,46.898 94.237,59.033 103.394,70.601 C108.666,77.261 113.394,84.41 117.368,91.916 C119.077,95.145 120.526,98.489 121.879,101.878 C123.056,104.827 123.521,108.079 125.433,110.649 C125.919,111.302 126.944,110.475 127.057,109.921 C128.322,103.725 124.166,96.407 121.473,91.044 C117.556,83.245 112.622,75.948 107.188,69.137 C97.636,57.162 84.994,44.282 69.782,40.092 C69.273,39.953 68.512,40.929 69.12,41.179 L69.12,41.179 Z" id="Shape"></path>
                    <path d="M67.584,39.723 C71.202,35.553 74.245,31.852 79.02,28.872 C83.481,26.089 88.45,24.173 93.407,22.488 C98.513,20.753 103.647,20.343 109.022,20.187 C115.48,20 122.176,20.319 128.38,22.256 C130.441,22.9 132.974,24.042 134.125,25.978 C135.563,28.398 133.777,31.446 132.926,33.756 C132.39,35.213 133.919,35.783 134.947,34.863 C139.734,30.578 140.678,24.014 135.183,19.962 C129.413,15.707 120.173,15.787 113.363,15.728 C106.453,15.666 99.721,16.196 93.19,18.493 C84.178,21.661 67.39,28.259 65.886,39.403 C65.729,40.577 67.063,40.324 67.584,39.723 L67.584,39.723 Z" id="Shape"></path>
                    <path d="M76.223,45.422 C85.471,42.197 95.336,40.015 104.883,37.903 C109.113,36.967 128.382,31.575 128.407,39.438 C128.415,41.847 131.506,40.217 132.132,39.136 C138.432,28.246 114.72,31.959 111.018,32.678 C99.21,34.969 86.579,38.218 75.925,43.987 C75.182,44.391 75.165,45.792 76.223,45.422 L76.223,45.422 Z" id="Shape"></path>
                    <path d="M57.729,42.552 C47.051,33.739 30.481,32.654 18.956,40.564 C13.931,44.013 9.255,48.763 6.846,54.428 C4.968,58.843 5.978,65.222 11.641,65.805 C12.455,65.889 13.803,64.96 13.334,64 C11.316,59.873 9.367,58.034 11.719,53.307 C13.845,49.033 18.031,45.536 21.932,42.943 C31.57,36.537 47.089,37.324 56.153,44.246 C56.938,44.845 58.534,43.216 57.729,42.552 L57.729,42.552 Z" id="Shape"></path>
                    <path d="M16.865,61.695 C21.55,54.263 34.648,52.709 42.503,52.156 C47.208,51.825 52.241,52.145 56.583,54.123 C60.425,55.873 61.629,58.982 62.996,62.668 C63.401,63.761 65.007,62.966 65.295,62.199 C69.952,49.841 52.325,47.635 44.312,48.09 C34.916,48.621 20.205,51.976 15.367,61.174 C14.813,62.225 16.362,62.492 16.865,61.695 L16.865,61.695 Z" id="Shape"></path>
                    <path d="M28.224,17.455 C35.265,14.751 43.103,15.447 49.929,18.481 C57.194,21.709 61.01,27.814 63.379,35.115 C63.699,36.103 64.975,35.019 65.022,34.388 C66.415,15.771 41.742,10.197 28.138,15.861 C27.246,16.233 27.016,17.918 28.224,17.455 L28.224,17.455 Z" id="Shape"></path>
                    <path d="M23.075,22.257 C26.905,22.879 30.47,24.167 33.948,25.873 C37.569,27.649 40.472,30.654 44.083,32.337 C44.913,32.725 46.449,31.663 45.951,30.696 C42.382,23.777 31.079,20.883 23.954,20.393 C23.002,20.329 21.787,22.048 23.075,22.257 L23.075,22.257 Z" id="Shape"></path>
                    <path d="M60.652,54.328 C49.145,51.167 38.028,57.119 32.961,67.709 C28.672,76.674 32.36,88.442 43.983,86.918 C44.823,86.808 45.757,85.465 44.612,85.077 C40.917,83.827 37.45,82.614 35.786,78.785 C34.369,75.525 35.246,71.508 36.549,68.378 C40.354,59.237 50.07,53.971 59.711,56.324 C60.773,56.583 61.966,54.689 60.652,54.328 L60.652,54.328 Z" id="Shape"></path>
                    <path d="M57.674,62 C50.143,67.268 38.889,78.185 43.078,88.62 C43.557,89.809 45.102,88.686 45.312,87.899 C46.519,83.388 46.852,79.053 49.054,74.817 C51.302,70.492 55.222,67.181 59.09,64.362 C60.645,63.23 59.385,60.804 57.674,62 L57.674,62 Z" id="Shape"></path>
                    <path d="M103.896,48.656 C106.51,48.621 109.064,50.072 110.993,51.72 C113.194,53.602 114.28,56.408 116.443,58.266 C117.303,59.005 118.522,58.175 118.766,57.225 C120.674,49.787 110.454,43.643 104.113,46.068 C102.977,46.501 102.025,48.68 103.896,48.656 L103.896,48.656 Z" id="Shape"></path>
                    <path d="M72.28,16.475 C73.911,15.835 75.559,15.277 77.247,14.809 C78.99,14.324 80.748,13.925 82.156,12.723 C82.626,12.323 83.01,11.344 82.292,10.964 C80.876,10.216 79.126,10.65 77.651,11.018 C75.753,11.494 73.903,12.128 72.083,12.841 C71.088,13.232 70.124,14.136 70.186,15.297 C70.241,16.347 71.366,16.832 72.28,16.475 L72.28,16.475 Z" id="Shape"></path>
                    <path d="M247.327,146.977 C247.312,146.972 247.299,146.968 247.284,146.964 C246.205,146.632 244.975,148.607 246.315,149.019 C246.344,149.029 246.374,149.038 246.403,149.046 C246.199,148.814 245.995,148.58 245.79,148.347 C246.03,149.888 247.735,149.946 249.009,150.109 C250.745,150.331 252.788,150.456 254.358,149.587 C255.153,149.147 256.489,147.385 255.425,146.52 C254.125,145.463 252.394,145.747 250.808,145.817 C249.163,145.892 247.111,146.13 246.068,147.543 C246.328,147.356 246.587,147.17 246.846,146.983 C246.813,146.991 246.781,147 246.747,147.008 C245.54,147.323 245.324,149.375 246.853,148.977 C246.869,148.973 246.885,148.968 246.901,148.964 C247.752,148.742 248.44,147.32 247.327,146.977 L247.327,146.977 Z" id="Shape"></path>
                    <path d="M268.971,148.468 C271.084,150.248 274.5,149.907 277.092,150.023 C282.208,150.251 287.346,150.023 292.467,150.088 C300.583,150.192 308.707,150.202 316.818,150.576 C324.956,150.951 332.973,152.383 341.098,152.873 C341.793,152.915 343.17,151.651 342.129,151.179 C329.774,145.579 314.059,146.827 300.802,147.07 C290.552,147.258 280.036,148.238 269.804,147.377 C269.386,147.341 268.442,148.022 268.971,148.468 L268.971,148.468 Z" id="Shape"></path>
                    <path d="M394.038,157.999 C404.769,157.831 415.474,157.352 426.199,157.035 C437.725,156.693 449.13,157.465 460.643,157.617 C461.583,157.63 462.409,156.092 461.295,155.71 C450.943,152.163 439.604,152.807 428.836,153.426 C417.299,154.088 405.867,156.061 394.326,156.654 C393.583,156.691 393.056,158.014 394.038,157.999 L394.038,157.999 Z" id="Shape"></path>
                    <path d="M459.131,183.11 C470.445,183.031 482.073,182.588 493.286,181.052 C494.144,180.935 495.416,179.134 494.008,178.944 C482.795,177.428 471.17,179.479 459.897,179.542 C457.902,179.553 456.544,183.127 459.131,183.11 L459.131,183.11 Z" id="Shape"></path>
                    <path d="M233.563,295.678 C237.164,307.57 239.37,320.062 241.354,332.309 C243.219,343.816 244.188,355.769 247.141,367.059 C248.014,370.396 253.94,367.141 253.368,364.304 C251.079,352.936 248.421,341.598 246.036,330.238 C243.454,317.941 240.434,306.243 234.8,294.973 C234.446,294.266 233.37,295.037 233.563,295.678 L233.563,295.678 Z" id="Shape"></path>
                </g>
            </g>
        </g>
    </g>
</svg>