<?xml version="1.0" encoding="UTF-8"?>
<svg width="549px" height="474px" viewBox="0 0 549 474" version="1.1" xmlns="http://www.w3.org/2000/svg" xmlns:xlink="http://www.w3.org/1999/xlink">
    <!-- Generator: Sketch 41 (35326) - http://www.bohemiancoding.com/sketch -->
    <title>lion</title>
    <desc>Created with Sketch.</desc>
    <defs></defs>
    <g id="Page-1" stroke="none" stroke-width="1" fill="none" fill-rule="evenodd">
        <g id="Layer_1" transform="translate(-5477.000000, -5459.000000)" fill="#010101">
            <g id="Layer_1_3_">
                <g id="lion" transform="translate(5477.000000, 5459.000000)">
                    <path d="M173.764,89.431 C156.564,79.237 136.217,99.633 126.146,111.499 C111.326,128.96 100.652,150.553 93.373,172.129 C85.341,195.936 80.5,224.943 91.918,248.533 C100.54,266.344 118.441,276.65 137.409,279.925 C157.243,283.35 178.245,279.356 195.619,269.328 C216.249,257.422 227.357,236.928 231.307,214.014 C233.231,202.853 233.701,191.454 234.275,180.163 C234.958,166.746 236.759,153.473 237.598,140.08 C238.439,126.652 234.888,114.684 226.723,104.062 C219.743,94.98 209.768,86.819 198.894,83.003 C194.314,81.398 190.113,80.937 185.332,81.892 C182.18,82.521 179.465,84.121 178.041,87.148 C176.656,90.091 177.44,93.833 181.005,94.541 C191.979,96.723 201.314,102.371 209.118,110.284 C218.365,119.66 222.437,130.092 222.138,143.299 C221.978,150.342 220.726,157.348 220.051,164.352 C219.43,170.802 219.155,177.297 218.826,183.768 C218.268,194.72 217.78,205.678 215.972,216.511 C214.343,226.275 211.4,235.893 205.645,244.045 C199.85,252.254 191.199,258.261 181.942,261.975 C164.891,268.815 144.848,268.945 127.84,261.965 C87.928,245.588 94.687,196.042 106.861,163.035 C113.011,146.361 121.174,130.206 132.099,116.143 C141.57,103.953 154.948,89.847 171.872,92.537 C173.306,92.765 175.473,90.444 173.764,89.431 L173.764,89.431 Z" id="Shape"></path>
                    <path d="M146.958,95.454 C150.162,82.521 141.746,65.565 129.226,61.249 C118.754,57.639 107.399,62.246 101.178,71.067 C95.317,79.38 94.201,90.63 98.166,99.963 C102.189,109.438 117.031,120.751 127.439,114.768 C130.009,113.29 131.815,110.074 130.016,107.368 C127.827,104.074 121.497,104.097 118.021,102.329 C114.828,100.705 111.971,98.064 110.156,94.962 C106.808,89.241 106.42,82.12 109.333,76.187 C111.971,70.813 118.088,69.41 124.768,70.707 C131.118,71.938 135.153,76 138.073,81.568 C140.623,86.429 140.95,92.175 143.884,96.834 C144.735,98.186 146.726,96.391 146.958,95.454 L146.958,95.454 Z" id="Shape"></path>
                    <path d="M232.332,121.477 C239.976,112.157 254.089,104.375 265.999,109.28 C273.344,112.304 277.587,118.694 275.837,126.577 C274.255,133.706 268.748,139.92 262.674,143.677 C259.648,145.55 256.362,146.717 252.82,147.036 C248.448,147.431 244.635,145.257 240.216,145.99 C237.112,146.505 234.155,149.311 235.07,152.667 C236.777,158.939 244.89,159.269 250.276,158.911 C256.264,158.514 262.172,156.028 267.18,152.841 C277.057,146.556 285.844,135.868 287.547,124.004 C289.321,111.648 281,101.708 268.902,99.542 C253.035,96.701 236.803,106.688 230.072,120.691 C229.257,122.385 231.487,122.507 232.332,121.477 L232.332,121.477 Z" id="Shape"></path>
                    <path d="M133.513,93.084 C133.929,92.273 134.152,91.356 134.369,90.475 C134.449,90.153 134.511,89.894 134.525,89.546 C134.529,89.457 134.534,89.37 134.539,89.282 C134.559,88.928 134.472,89.798 134.537,89.458 C134.635,88.957 134.627,88.475 134.56,87.976 C134.368,86.534 133.938,85.192 133.038,84.032 C131.499,82.049 128.812,81.238 126.388,81.385 C123.88,81.536 121.276,82.473 119.211,83.892 C116.68,85.631 114.461,87.856 113.662,90.914 C113.365,92.05 113.416,93.388 113.866,94.479 C114.381,95.73 115.285,96.588 116.388,97.327 C117.521,98.086 118.919,98.498 120.228,98.818 C120.96,98.997 121.711,99.137 122.461,99.208 C122.883,99.247 123.306,99.273 123.728,99.295 C124.249,99.32 124.772,99.346 125.294,99.362 C125.853,99.38 126.39,99.194 126.925,99.054 C126.604,99.118 126.282,99.184 125.96,99.248 C126.277,99.231 126.595,99.212 126.912,99.189 C128.748,99.06 130.446,97.827 131.217,96.17 C130.321,96.956 129.425,97.742 128.529,98.528 C129.817,98.132 131.274,97.621 132.085,96.464 C132.701,95.585 132.798,94.7 132.183,93.831 C131.805,93.298 130.974,93.034 130.414,92.842 C130.625,92.915 130.836,92.988 131.047,93.062 C130.895,93.009 130.742,92.955 130.591,92.901 C130.894,93.247 131.197,93.592 131.501,93.938 C131.115,92.988 130.396,92.231 129.329,92.125 C129.029,92.095 128.73,92.06 128.433,92.023 C128.704,92.117 128.974,92.211 129.246,92.305 C128.707,92.087 128.197,91.882 127.617,91.836 C127.304,91.812 126.991,91.78 126.679,91.746 C126.112,91.684 125.543,91.61 124.979,91.529 C124.061,91.398 123.15,91.204 122.272,90.906 C122.553,91.004 122.835,91.102 123.118,91.2 C122.407,90.953 121.716,90.636 121.12,90.171 C121.349,90.353 121.577,90.534 121.805,90.716 C121.472,90.449 121.179,90.142 120.958,89.775 C121.107,90.023 121.257,90.272 121.406,90.521 C121.26,90.269 121.154,90.001 121.092,89.718 C121.152,90.005 121.211,90.294 121.271,90.581 C121.215,90.304 121.199,90.023 121.22,89.741 C121.195,90.051 121.167,90.36 121.142,90.671 C121.167,90.39 121.229,90.116 121.318,89.849 C121.211,90.163 121.103,90.478 120.996,90.793 C121.115,90.444 121.277,90.115 121.467,89.8 C121.283,90.103 121.1,90.405 120.916,90.707 C121.174,90.287 121.479,89.899 121.812,89.538 C121.557,89.811 121.302,90.084 121.047,90.357 C121.533,89.836 122.076,89.372 122.655,88.958 C122.356,89.171 122.056,89.386 121.758,89.6 C122.521,89.059 123.347,88.595 124.2,88.212 C123.894,88.349 123.589,88.483 123.282,88.618 C123.653,88.454 124.03,88.308 124.415,88.182 C124.847,88.039 126.363,87.717 124.738,88.042 C124.93,88.004 125.124,87.973 125.319,87.947 C125.861,87.873 127.27,87.649 125.608,87.906 C125.705,87.89 125.801,87.879 125.899,87.867 C126.294,87.82 126.693,87.806 127.09,87.822 C126.829,87.81 126.569,87.799 126.309,87.787 C126.882,87.815 127.448,87.914 127.991,88.1 C127.773,88.025 127.555,87.949 127.338,87.872 C127.882,88.065 128.387,88.34 128.841,88.697 C128.675,88.565 128.508,88.432 128.342,88.301 C128.697,88.587 129.034,88.907 129.33,89.254 C129.481,89.431 129.619,89.619 129.75,89.812 C129.786,89.867 129.821,89.921 129.856,89.977 C130.03,90.249 129.543,89.449 129.71,89.734 C129.781,89.856 129.848,89.982 129.912,90.107 C130.101,90.474 130.252,90.861 130.516,91.185 C130.626,91.322 130.673,91.49 130.434,91.011 C130.468,91.08 130.497,91.154 130.528,91.225 C130.638,91.479 130.805,91.695 130.957,91.923 C130.632,91.435 130.954,91.927 131.023,92.054 C131.103,92.2 131.179,92.351 131.253,92.5 C131.33,92.656 131.361,92.831 131.44,92.988 C131.479,93.067 131.516,93.145 131.561,93.221 C131.427,92.994 131.852,93.702 131.7,93.45 C132.173,94.241 133.173,93.749 133.513,93.084 L133.513,93.084 Z" id="Shape"></path>
                    <path d="M246.116,126.695 C246.684,125.897 247.645,124.842 248.186,124.458 C248.936,123.925 249.206,123.843 250.163,123.817 C250.469,123.809 251.093,123.979 251.803,124.381 C252.847,124.975 252.897,124.938 253.689,125.85 C254.27,126.521 254.335,126.632 254.656,127.748 C254.496,127.191 254.701,128.314 254.701,128.568 C254.699,127.876 254.674,128.529 254.633,128.705 C254.515,129.213 254.882,128.189 254.496,129.012 C254.135,129.779 254.959,128.353 254.466,129.069 C254.334,129.259 253.729,129.925 254.482,129.13 C254.264,129.36 252.893,130.489 253.738,129.889 C252.149,131.018 251.096,131.337 249.462,131.869 C247.127,132.628 244.476,133.073 242.426,134.482 C239.915,136.208 239.53,139.766 243.309,139.88 C248.038,140.024 252.522,138.276 256.318,135.524 C260.655,132.378 262.634,126.228 258.865,121.889 C254.243,116.567 244.972,119.229 244.241,126.34 C244.112,127.563 245.559,127.477 246.116,126.695 L246.116,126.695 Z" id="Shape"></path>
                    <path d="M134.888,209.788 C137.961,213.829 145.844,215.132 150.389,216.63 C153.836,217.767 157.284,218.905 160.67,220.214 C162.931,221.087 164.546,222.569 167.029,222.574 C169.174,222.578 171.959,219.983 171.596,217.72 C171.413,216.581 171.166,215.444 170.037,214.847 C169.248,214.429 168.619,214.291 167.721,214.277 C169.428,214.304 167.806,214.116 167.265,213.918 C163.808,212.645 160.234,211.683 156.683,210.709 C150.413,208.99 143.606,206.439 137.064,206.253 C135.496,206.208 133.846,208.417 134.888,209.788 L134.888,209.788 Z" id="Shape"></path>
                    <path d="M155.456,147.977 C149.291,156.579 145.469,165.904 142.145,175.948 C138.871,185.846 135.449,197.427 135.243,207.924 C135.143,213.077 143.278,209.509 143.36,205.322 C143.378,204.405 143.232,203.61 143.046,202.713 C142.173,198.522 135.932,202.636 135.456,205.158 C135.281,206.092 135.226,206.977 135.243,207.924 C135.347,213.114 143.444,209.531 143.36,205.322 C143.176,196.1 146.017,185.95 148.186,177.057 C150.554,167.345 153.581,157.692 156.637,148.2 C156.889,147.418 155.755,147.559 155.456,147.977 L155.456,147.977 Z" id="Shape"></path>
                    <path d="M181.434,157.686 C178.325,167.075 176.707,176.81 173.26,186.141 C169.776,195.567 165.97,204.932 162.072,214.194 C164.82,213.971 167.569,213.749 170.318,213.526 C170.111,211.213 169.893,210.275 167.894,209.045 C166.472,208.169 164.685,209.358 163.786,210.41 C162.369,212.067 161.89,213.083 161.706,215.266 C161.172,221.561 168.955,218.794 170.229,214.575 C173.271,204.509 177.596,194.86 180.662,184.79 C183.264,176.242 186.34,165.798 183.804,156.923 C183.413,155.549 181.668,156.979 181.434,157.686 L181.434,157.686 Z" id="Shape"></path>
                    <path d="M148.905,215.006 C147.704,220.059 145.371,224.713 144.463,229.872 C145.269,228.827 146.073,227.782 146.878,226.736 C146.717,226.839 146.555,226.941 146.394,227.043 C147.315,226.855 148.236,226.668 149.157,226.48 C149.085,226.468 149.012,226.457 148.94,226.445 C149.576,226.955 150.211,227.465 150.845,227.975 C150.89,228.415 150.88,228.385 150.815,227.883 C150.252,223.984 145.01,225.689 143.965,228.439 C143.353,230.048 143.119,231.27 144.097,232.793 C144.984,234.173 147.278,233.651 148.402,233.022 C152.055,230.976 151.281,228.035 151.3,224.495 C151.319,221.085 151.753,217.958 151.055,214.572 C150.783,213.258 149.13,214.057 148.905,215.006 L148.905,215.006 Z" id="Shape"></path>
                    <path d="M136.656,149.424 C133.064,152.033 131.35,157.109 131.704,161.407 C131.95,164.402 135.595,164.049 137.27,162.497 C141.16,158.893 142.98,154.268 143.151,149.019 C143.209,147.273 141.537,146.572 140.094,146.553 C141.219,146.568 140.13,146.495 139.895,146.46 C139.175,146.355 138.465,146.396 137.771,146.618 C135.609,147.308 134.335,149.335 133.284,151.207 C131.573,154.251 130.284,157.982 130.46,161.513 C130.719,166.675 138.163,163.394 138.757,159.837 C139.219,157.069 139.352,154.278 140.968,151.874 C139.695,152.614 138.42,153.353 137.146,154.094 C137.603,154.081 138.051,153.958 138.509,153.953 C137.49,153.131 136.471,152.309 135.452,151.487 C135.431,154.399 134.462,156.596 132.601,158.794 C134.645,158.628 136.689,158.462 138.733,158.297 C138.085,155.562 139.635,153.263 140.319,150.729 C141,148.203 137.918,148.508 136.656,149.424 L136.656,149.424 Z" id="Shape"></path>
                    <path d="M193.951,166.049 C190.436,169.69 188.556,174.404 188.8,179.484 C188.876,181.066 190.304,182.13 191.846,181.94 C198.453,181.127 202.173,175.29 201.46,168.921 C201.13,165.977 198.189,165.899 196.035,166.942 C194.159,167.85 192.351,169.232 191.048,170.873 C190.406,171.681 189.851,172.52 189.412,173.459 C188.751,174.871 188.825,175.714 188.925,177.207 C189.042,178.953 191.146,179.354 192.412,178.479 C193.737,177.564 194.969,176.894 196.104,175.711 C196.867,174.918 197.626,174.141 198.568,173.566 C196.76,172.906 194.952,172.247 193.143,171.587 C193.285,172.399 193.51,173.798 193.301,174.391 C193.016,175.196 193.1,174.737 193.347,174.497 C193.834,174.024 192.622,174.714 192.446,174.766 C193.729,175.233 195.011,175.702 196.294,176.169 C195.573,173.066 196.927,170.315 197.721,167.393 C198.364,165.025 195.204,164.75 193.951,166.049 L193.951,166.049 Z" id="Shape"></path>
                    <path d="M139.465,212.655 C139.459,212.103 139.389,212.098 139.255,212.638 C138.475,212.701 137.693,212.764 136.913,212.827 C137.138,214.376 138.712,215.627 139.707,216.732 C140.695,217.83 144.528,221.027 144.505,221.602 C145.811,220.852 147.115,220.102 148.42,219.353 C145.756,216.876 143.668,213.913 141.201,211.251 C139.934,212.363 138.667,213.475 137.4,214.587 C140.122,217.24 142.94,219.396 146.425,220.955 C148.03,221.674 149.865,220.313 150.246,218.734 C150.517,218.223 150.788,217.713 151.059,217.204 C149.707,216.948 148.356,216.694 147.004,216.438 C146.743,217.619 146.358,218.758 145.847,219.857 C144.809,221.59 146.535,222.743 148.083,222.407 C152.081,221.538 155.797,220.167 159.371,218.18 C162.048,216.692 161.045,212.698 157.896,214.325 C154.981,215.832 152.142,217.477 149.226,218.983 C147.555,219.845 146.605,223.694 149.466,223.254 C154.594,222.464 159.653,221.308 164.795,220.603 C164.923,219.079 165.051,217.554 165.178,216.029 C159.383,217.248 153.397,217.857 147.845,220.013 C146.275,220.622 143.958,224.053 146.864,224.593 C152.957,225.726 159.397,225.219 165.447,224.011 C167.903,223.52 170.06,218.697 166.486,219.163 C160.637,219.928 154.967,220.997 149.069,219.913 C148.743,221.44 148.415,222.967 148.088,224.493 C153.634,222.33 159.626,221.707 165.421,220.477 C167.672,219.998 168.886,215.475 165.804,215.903 C160.658,216.617 155.599,217.784 150.467,218.584 C150.547,220.008 150.627,221.431 150.707,222.855 C153.621,221.344 156.458,219.693 159.371,218.181 C158.88,216.896 158.388,215.611 157.896,214.326 C154.695,216.113 151.411,217.288 147.85,218.099 C148.595,218.95 149.341,219.799 150.086,220.649 C151.014,219.066 151.147,217.836 151.595,216.068 C152.291,213.32 148.623,213.872 147.54,215.302 C146.635,216.499 146.023,217.637 145.686,219.104 C146.96,218.364 148.234,217.624 149.507,216.883 C146.307,215.497 143.732,213.66 141.198,211.251 C139.385,209.526 135.659,212.759 137.397,214.587 C140.022,217.349 142.174,220.453 145.219,222.783 C146.672,223.895 148.82,221.631 148.761,220.236 C148.667,217.997 145.76,216.687 144.183,215.342 C142.743,214.113 140.68,211.539 138.698,211.256 C137.771,211.123 136.278,212.407 137.109,213.338 C137.389,213.651 137.88,213.649 138.26,213.706 C138.807,213.792 139.545,213.254 139.465,212.655 L139.465,212.655 Z" id="Shape"></path>
                    <path d="M172.132,37.606 C165.607,29.497 161.205,19.932 154.098,12.218 C146.897,4.402 137.04,0.351 126.459,0.364 C118.067,0.375 109.572,5.023 107.704,13.644 C105.754,22.64 113.1,30.642 119.513,35.708 C121.256,32.843 123,29.979 124.743,27.114 C102.889,23.311 77.877,21.092 57.956,32.948 C49.956,37.71 44.193,45.637 43.481,55.019 C42.767,64.425 52.762,67.492 60.247,67.168 C65.773,66.93 69.395,56.796 62.354,57.336 C60.542,57.475 58.825,57.835 57.09,58.372 C54.834,59.069 50.482,64.484 54.472,65.985 C56.003,66.56 57.37,66.98 59.01,67.111 C60.124,63.852 61.239,60.593 62.354,57.336 C56.933,57.483 52.603,55.692 54.044,49.645 C55.605,43.105 62.466,39.608 68.213,37.504 C85.344,31.234 102.935,34.468 120.526,36.059 C124.422,36.412 130.54,30.485 125.756,27.465 C120.823,24.352 114.624,18.77 115.904,12.201 C117.226,5.42 131.149,7.973 135.294,8.962 C150.612,12.614 159.452,29.252 169.137,40.233 C170.451,41.723 173.375,39.15 172.132,37.606 L172.132,37.606 Z" id="Shape"></path>
                    <path d="M171.23,40.27 C174.692,34.931 178.102,30.883 184.072,28.249 C189.91,25.674 196.293,25.048 202.596,25.603 C214.576,26.657 215.239,36.74 214.289,46.662 C213.573,54.15 222.717,50.662 224.312,45.849 C224.769,44.469 224.863,43.472 224.818,42.026 C224.787,41.013 224.179,39.726 223.174,39.323 C222.922,39.221 222.671,39.121 222.419,39.019 C220.847,38.386 219.196,38.825 217.943,39.95 C216.077,41.625 215.565,43.127 214.718,45.401 C217.95,45.139 221.183,44.878 224.414,44.616 C223.754,38.572 223.398,31.39 219.836,26.209 C216.274,21.028 210.381,19.365 204.368,19.061 C196.476,18.663 188.896,20.2 181.815,23.696 C175.691,26.719 168.493,32.759 168.285,40.13 C168.239,41.825 170.654,41.159 171.23,40.27 L171.23,40.27 Z" id="Shape"></path>
                    <path d="M222.25,48.325 C225.021,46.778 227.515,44.857 230.37,43.413 C234.219,41.466 238.663,40.527 242.889,39.872 C250.706,38.661 258.864,39.242 266.43,41.519 C274.452,43.934 281.986,48.666 286.801,55.577 C289.678,59.707 290.779,65.188 290.24,70.11 C290.005,72.264 289.452,74.39 288.925,76.487 C288.629,77.452 288.399,78.432 288.234,79.428 C287.85,81.35 286.36,83.403 289.155,80.418 C290.757,79.893 292.358,79.367 293.96,78.842 C293.73,78.811 293.499,78.779 293.269,78.748 C290.29,78.346 286.622,81.111 286.911,84.328 C286.931,84.545 286.949,84.761 286.969,84.977 C287.065,86.038 287.561,87.183 288.597,87.655 C288.668,87.687 288.739,87.719 288.809,87.752 C291.975,89.197 295.199,86.88 296.702,84.166 C297.639,82.476 297.73,80.726 297.874,78.841 C298.116,75.668 299.048,72.549 299.376,69.369 C299.945,63.849 298.913,58.815 296.526,53.831 C291.927,44.227 281.93,38.931 272.259,35.781 C263.096,32.797 252.718,32.708 243.331,34.615 C235.798,36.144 224.598,39.707 221.142,47.433 C220.782,48.236 221.559,48.71 222.25,48.325 L222.25,48.325 Z" id="Shape"></path>
                    <path d="M59.293,66.191 C44.561,62.134 31.067,75.779 28.158,89.217 C26.455,97.086 29.762,104.391 35.146,109.982 C37.783,112.72 45.496,116.119 48.581,112.91 C50.273,111.149 52.069,107.595 49.119,105.951 C46.486,104.484 43.252,104.857 40.9,102.779 C36.805,99.161 34.407,94.176 34.873,88.674 C35.939,76.081 47.445,70.89 58.332,69.003 C59.514,68.797 61.139,66.7 59.293,66.191 L59.293,66.191 Z" id="Shape"></path>
                    <path d="M293.364,88.067 C303.556,85.042 314.893,93.732 321.935,99.94 C329.723,106.805 338.493,116.031 340.318,126.635 C345.223,155.124 323.488,184.754 299.047,196.768 C294.234,199.134 294.675,208.383 300.893,205.661 C316.434,198.854 329.107,185.475 337.598,171.011 C345.885,156.897 351.309,139.732 347.817,123.319 C345.157,110.82 334.591,100.81 324.924,93.203 C316.276,86.398 302.952,78.711 292.611,86.136 C291.615,86.85 292.042,88.459 293.364,88.067 L293.364,88.067 Z" id="Shape"></path>
                    <path d="M45.293,110.191 C31.64,109.365 19.861,123.385 15.33,134.907 C12.928,141.014 12.316,147.511 13.885,153.891 C15.67,161.152 21.697,165.94 27.954,169.338 C29.823,166.267 31.692,163.195 33.56,160.125 C32.803,160.011 32.042,159.924 31.279,159.862 C27.354,159.48 20.982,165.667 25.942,168.632 C26.982,169.254 27.843,169.517 29.041,169.715 C34.104,170.554 39.967,161.934 33.561,160.125 C22.263,156.936 18.695,145.535 22.27,135.174 C26.072,124.158 34.993,117.607 45.083,112.76 C45.885,112.375 46.793,110.282 45.293,110.191 L45.293,110.191 Z" id="Shape"></path>
                    <path d="M34.228,167.042 C22.759,167.739 15.385,178.709 10.424,187.896 C4.602,198.676 1.063,211.023 0.827,223.282 C0.637,233.259 4.49,242.048 12.744,247.748 C16.728,250.5 21.474,252.102 26.056,253.532 C28.897,254.419 31.796,255.123 34.691,255.807 C36.249,256.175 37.813,256.518 39.376,256.863 C40.3,257.066 42.8,257.745 42.708,257.593 C42.463,256.454 42.218,255.315 41.972,254.176 C41.941,254.275 41.909,254.373 41.877,254.472 C43.478,252.77 45.079,251.068 46.68,249.366 C44.782,249.766 43.217,250.999 42.038,252.491 C40.348,254.628 40.614,257.508 43.354,258.387 C40.291,257.404 43.963,258.843 44.623,258.966 C46.815,259.38 49.644,258.058 50.808,256.156 C52.103,254.042 52.685,252.415 51.659,250.057 C50.472,247.328 46.512,247.485 44.008,247.039 C38.772,246.108 33.548,245.098 28.429,243.645 C20.457,241.383 13.489,237.209 10.631,229.099 C7.126,219.156 10.063,207.282 13.21,197.635 C16.788,186.672 22.715,174.123 34.031,169.4 C34.999,168.998 35.97,166.937 34.228,167.042 L34.228,167.042 Z" id="Shape"></path>
                    <path d="M50.555,250.783 C34.991,254.827 31.844,276.624 30.718,289.987 C30.1,297.331 29.935,305.458 31.854,312.637 C33.505,318.816 38.284,323.631 43.321,327.248 C54.824,335.506 71.118,338.044 84.894,336.008 C97.52,334.143 112.488,325.836 112.437,311.274 C112.426,308.391 109.325,307.569 107.048,308.249 C105.168,308.812 103.838,309.493 102.459,310.909 C101.176,312.225 99.967,314.043 100.694,315.972 C101.528,318.182 104.347,317.851 106.243,317.857 C104.919,316.347 103.594,314.838 102.269,313.329 C101.587,317.073 100.772,320.239 97.591,322.498 C93.423,325.457 88.254,326.643 83.258,327.209 C71.899,328.496 59.575,326.1 49.763,320.189 C39.159,313.801 38.073,303.646 38.005,292.207 C37.933,279.791 39.289,260.927 51.127,253.545 C52.503,252.686 52.674,250.232 50.555,250.783 L50.555,250.783 Z" id="Shape"></path>
                    <path d="M107.194,310.372 C104.903,320.959 108.1,332.575 116.783,339.435 C125.194,346.081 136.554,348.649 147.092,349.075 C156.902,349.471 167.216,347.85 176.081,343.555 C180.239,341.541 184.103,338.25 186.337,334.174 C188.515,330.197 189.794,323.834 186.652,320.064 C184.031,316.918 178.294,320.67 177.942,323.969 C177.643,326.766 179.032,330.105 177.353,332.632 C175.754,335.039 172.748,336.3 170.146,337.283 C163.176,339.918 155.122,340.831 147.7,340.482 C139.201,340.084 130.023,337.787 122.828,333.178 C114.319,327.73 112.512,318.515 110.039,309.453 C109.61,307.885 107.4,309.421 107.194,310.372 L107.194,310.372 Z" id="Shape"></path>
                    <path d="M181.431,321.52 C180.888,331.624 193.976,334.612 201.592,335.111 C211.526,335.761 222.226,333.973 231.528,330.429 C239.721,327.309 246.403,318.022 250.373,310.617 C252.438,306.765 253.607,302.409 252.512,298.11 C251.366,293.618 245.808,291.158 241.736,292.619 C239.121,293.558 235.402,297.576 238.006,300.398 C239.678,302.21 243.091,301.572 243.259,304.29 C243.423,306.95 241.34,310.018 239.963,312.127 C236.765,317.029 232.908,321.565 227.377,323.485 C219.941,326.067 212.055,327.34 204.198,327.496 C200.321,327.573 196.338,327.043 192.732,325.583 C189.356,324.217 187.453,321.926 184.871,319.544 C183.473,318.257 181.512,320 181.431,321.52 L181.431,321.52 Z" id="Shape"></path>
                    <path d="M235.563,297.004 C237.881,298.195 239.19,299.286 241.961,299.437 C244.668,299.584 247.143,298.713 249.576,297.624 C254.202,295.555 257.669,291.355 260.137,287.07 C262.291,283.329 263.244,278.64 261.956,274.467 C260.456,269.609 254.317,267.766 249.889,268.935 C246.381,269.861 242.241,277.373 247.896,278.238 C249.608,278.5 252.244,277.676 253.229,279.442 C254.305,281.369 253.77,283.802 252.999,285.738 C250.672,291.576 243.557,295.101 237.36,294.051 C236.026,293.825 233.883,296.143 235.563,297.004 L235.563,297.004 Z" id="Shape"></path>
                    <path d="M247.738,269.811 C249.153,276.33 259.543,273.401 263.602,271.914 C271.756,268.928 279.236,263.953 286.092,258.705 C293.885,252.739 300.27,244.095 301.775,234.235 C302.568,229.045 301.475,224.037 298.759,219.595 C296.094,215.233 291.893,211.301 291.938,205.888 C291.977,201.416 285.93,202.077 283.734,204.282 C281.715,206.309 280.18,208.35 280.087,211.286 C280.03,213.049 282.088,213.659 283.46,213.18 C285.069,212.617 286.626,212.613 288.251,211.814 C285.945,210.973 283.639,210.131 281.333,209.29 C281.048,217.857 288.39,222.447 291.46,229.679 C294.866,237.702 288.437,246.969 282.755,252.095 C273.713,260.254 262.588,268.146 250.036,267.366 C248.686,267.28 247.436,268.422 247.738,269.811 L247.738,269.811 Z" id="Shape"></path>
                    <path d="M108.789,213.311 C103.638,221.631 112.046,229.239 119.261,232.177 C123.871,234.055 128.782,235.1 133.714,235.654 C137.394,236.068 141.884,236.813 145.169,234.727 C147.649,233.153 149.456,229.082 145.733,227.846 C144.254,227.354 140.504,227.832 138.093,227.774 C134.125,227.679 130.115,226.997 126.261,226.086 C122.571,225.213 119.14,223.709 115.898,221.763 C112.577,219.769 111.514,216.515 109.953,213.218 C109.725,212.737 109.024,212.932 108.789,213.311 L108.789,213.311 Z" id="Shape"></path>
                    <path d="M147.009,227.07 C140.645,236.258 151.638,244.141 159.201,246.587 C164.205,248.204 169.783,248.42 175,248.423 C180.021,248.427 185.361,248.535 188.201,243.796 C189.238,242.066 188.502,239.245 186.27,238.983 C183.593,238.668 181.713,240.013 179.978,241.881 C178.601,243.363 178.545,246.942 181.157,247.161 C182.275,247.255 183.193,247.136 184.285,246.903 C183.269,246.854 182.254,246.805 181.238,246.756 C181.32,246.787 181.402,246.818 181.483,246.849 C181.357,245.009 181.232,243.169 181.106,241.328 C180.965,241.49 180.824,241.651 180.683,241.813 C182.078,241.002 183.474,240.193 184.869,239.382 C177.922,240.726 170.648,240.689 163.718,239.295 C160.264,238.601 157.115,237.467 154.143,235.557 C150.791,233.402 150.962,229.937 149.188,226.893 C148.684,226.03 147.518,226.335 147.009,227.07 L147.009,227.07 Z" id="Shape"></path>
                    <path d="M133.113,132.076 C135.676,137.202 139.7,141.798 143.742,145.817 C145.253,147.32 146.867,148.649 148.539,149.961 C149.194,150.476 149.885,150.948 150.54,151.466 C150.804,151.674 153.063,153.291 151.88,152.052 C152.728,150.285 153.575,148.519 154.423,146.751 C154.364,146.776 154.306,146.8 154.247,146.824 C152.449,147.571 149.544,150.893 152.319,152.431 C152.361,152.454 152.403,152.477 152.445,152.5 C155.131,153.988 158.302,150.521 157.653,147.93 C156.995,145.299 151.714,144.702 149.778,143.2 C144.738,139.287 140.219,133.784 134.563,130.804 C133.914,130.461 132.749,131.346 133.113,132.076 L133.113,132.076 Z" id="Shape"></path>
                    <path d="M180.743,160.105 C190.079,163.326 200.847,158.59 210.431,159.514 C214.647,159.921 217.698,152.805 212.675,152.955 C210.625,153.018 208.996,153.345 207.315,154.546 C206.331,155.25 205.219,156.625 206.171,157.831 C207.5,159.514 209.231,159.49 211.261,159.553 C211.441,157.412 211.619,155.272 211.799,153.132 C201.841,155.368 190.807,153.77 181.239,157.786 C180.331,158.168 179.379,159.634 180.743,160.105 L180.743,160.105 Z" id="Shape"></path>
                    <path d="M287.471,220.057 C301.975,222.46 317.003,221.949 331.649,222.969 C346.801,224.025 361.795,226.124 376.298,230.763 C389.352,234.938 402.472,238.841 414.842,244.832 C427.548,250.986 437.69,259.703 446.088,271.006 C463.886,294.957 469.932,324.66 470.561,353.894 C471.019,375.211 471.05,396.847 470.399,418.176 C470.133,426.857 469.453,435.539 467.696,444.057 C467.022,447.328 466.122,450.512 464.762,453.563 C464.093,455.063 463.673,455.719 462.798,456.872 C462.067,457.834 463.008,457.092 461.403,457.96 C454.458,461.717 457.184,472.217 465.198,467.882 C480.517,459.595 481.58,436.353 482.53,421.223 C483.785,401.261 482.953,381.017 483.076,361.026 C483.261,331.074 479.578,302.365 465.214,275.656 C458.726,263.592 450.389,252.853 439.553,244.424 C428.825,236.078 415.921,231.051 403.166,226.736 C385.395,220.724 367.434,215.562 348.673,214.041 C329.121,212.455 308.702,213.625 289.17,215.093 C287.01,215.253 284.257,219.524 287.471,220.057 L287.471,220.057 Z" id="Shape"></path>
                    <path d="M189.34,364.057 C196.563,371.623 210.203,369.219 219.653,369.737 C234.847,370.57 250.026,369.274 265.174,368.213 C297.561,365.942 330.031,364.872 362.435,362.823 C377.363,361.879 392.346,360.407 407.305,360.157 C419.104,359.961 432.479,362.163 440.346,371.825 C447.083,380.098 446.623,393.699 447.928,403.634 C449.692,417.064 450.85,429.954 449.803,443.462 C449.236,450.786 447.718,469.616 457.922,471.595 C462.138,472.413 468.768,467.054 466.517,462.436 C466.051,461.48 464.585,460.211 464.336,459.836 C460.982,454.779 451.141,462.507 453.572,467.521 C453.798,467.986 455.308,470.58 454.818,469.104 C457.683,466.051 460.547,462.998 463.413,459.945 C465.539,460.642 464.035,459.773 463.55,458.874 C463.029,457.911 462.715,456.84 462.393,455.801 C461.694,453.559 461.723,450.992 461.657,448.667 C461.503,443.219 462.175,437.763 462.564,432.337 C463.618,417.65 460.241,402.852 458.714,388.307 C457.706,378.707 455.742,368.673 449.133,361.265 C441.053,352.208 427.917,349.192 416.334,348.648 C401.879,347.969 387.199,349.756 372.783,350.708 C356.422,351.786 340.056,352.798 323.697,353.93 C307.433,355.056 291.176,356.263 274.925,357.568 C259.254,358.826 243.638,360.733 227.926,361.45 C221.757,361.731 215.608,361.756 209.44,362.146 C203.59,362.514 197.013,363.088 191.327,361.457 C190.156,361.118 188.332,363 189.34,364.057 L189.34,364.057 Z" id="Shape"></path>
                    <path d="M389.135,356.522 C390.653,368.982 393.681,381.163 395.57,393.616 C397.487,406.259 397.999,418.893 397.536,431.665 C397.221,440.361 395.122,449.123 395.444,457.813 C395.806,467.597 406.234,469.852 413.429,465.444 C422.157,460.098 426.9,449.426 429.096,439.883 C431.721,428.482 430.143,416.432 428.609,405.005 C427.419,396.148 426.426,387.201 424.852,378.402 C423.317,369.818 420.965,359.392 414.415,353.099 C411.955,350.736 408.3,351.738 405.963,353.785 C403.751,355.722 402.234,357.889 402.418,360.939 C402.508,362.431 403.439,363.154 404.747,363.593 C404.65,363.574 404.555,363.556 404.459,363.537 C407.09,364.825 409.611,363.564 411.766,362.017 C412.057,361.808 412.348,361.598 412.639,361.389 C409.822,361.618 407.004,361.846 404.187,362.075 C414.018,373.514 413.93,390.212 415.94,404.456 C418.194,420.437 423.391,444.083 409.352,456.379 C407.429,458.064 407.051,452.785 407.049,452.021 C407.04,448.599 407.631,445.162 407.972,441.762 C408.904,432.471 408.752,422.917 407.879,413.634 C406.908,403.325 404.815,393.005 402.309,382.968 C401.016,377.781 399.397,372.727 397.57,367.705 C395.869,363.027 393.58,359.612 390.669,355.64 C390.19,354.989 389.059,355.896 389.135,356.522 L389.135,356.522 Z" id="Shape"></path>
                    <path d="M462.085,283.614 C464.188,292.686 474.913,292.8 482.045,290.15 C491.146,286.77 499.283,279.774 504.695,271.794 C515.33,256.111 508.359,234.807 498.622,220.537 C487.445,204.156 470.391,192.134 454.374,180.907 C446.517,175.399 438.543,170.055 430.84,164.332 C423.093,158.578 414.607,152.256 411.91,142.56 C408.203,129.228 423.392,119.604 433.78,116.16 C441.94,113.455 450.457,113.437 458.66,111.164 C457.345,111.101 456.029,111.037 454.714,110.973 C454.725,110.977 454.736,110.982 454.747,110.986 C455.407,107.904 456.067,104.821 456.728,101.739 C456.6,101.825 456.466,101.898 456.325,101.96 C453.406,103.446 450.031,110.915 455.554,111.38 C456.126,111.429 456.7,111.473 457.275,111.461 C461.705,111.376 465.483,105.95 463.05,102.077 C461.698,99.927 457.037,100.349 455.094,100.582 C451.096,101.061 447.098,101.579 443.117,102.193 C430.175,104.192 416.924,110.712 408.322,120.651 C400.78,129.368 397.228,140.49 401.036,151.662 C404.302,161.244 413.356,167.819 421.083,173.715 C436.684,185.618 453.584,195.702 468.654,208.321 C482.515,219.926 496.291,234.745 497.956,253.598 C498.807,263.233 495.738,269.743 488.578,276.109 C485.039,279.255 481.019,281.51 476.496,282.883 C472.133,284.209 468.029,283.063 463.871,281.711 C462.836,281.373 461.878,282.72 462.085,283.614 L462.085,283.614 Z" id="Shape"></path>
                    <path d="M546.479,111.839 C543.567,111.272 540.418,111.891 537.471,111.973 C533.73,112.078 530.008,111.307 526.397,110.416 C518.336,108.427 510.663,105.062 502.858,102.279 C490.118,97.736 472.253,91.914 460.327,101.623 C457.338,104.057 458.271,109.721 462.844,108.093 C466.021,106.961 468.779,105.501 472.179,105.03 C475.651,104.549 479.149,104.892 482.589,105.425 C490.135,106.591 497.439,109.229 504.656,111.628 C511.977,114.061 519.55,116.149 527.227,117.026 C533.45,117.738 541.627,118.14 546.592,113.63 C547.106,113.164 547.442,112.027 546.479,111.839 L546.479,111.839 Z" id="Shape"></path>
                    <path d="M457.123,108.762 C449.31,129.927 477.481,139.377 493.443,139.991 C503.735,140.387 514.171,138.096 523.906,134.939 C532.675,132.095 542.328,128.506 548.264,121.135 C549.133,120.057 548.885,117.875 547.082,118.167 C539.708,119.359 533.214,123.27 526.277,125.87 C518.183,128.904 509.746,130.849 501.126,131.494 C492.701,132.125 484.062,130.941 476.337,127.46 C469.057,124.179 459.007,117.656 458.914,108.617 C458.904,107.551 457.364,108.108 457.123,108.762 L457.123,108.762 Z" id="Shape"></path>
                    <path d="M544.221,101.077 C538.393,101.346 532.09,101.007 526.48,99.32 C521.231,97.742 516.499,94.674 511.443,92.603 C503.256,89.249 494.303,87.177 485.561,85.977 C469.447,83.765 445.316,86.897 440.466,105.926 C439.253,110.687 446.005,110.283 447.828,107.314 C449.907,103.926 451.441,100.894 454.624,98.379 C457.37,96.21 461.222,95.115 464.598,94.486 C472.877,92.942 481.547,93.856 489.76,95.336 C497.623,96.751 505.291,99.117 512.853,101.653 C517.766,103.299 522.758,104.548 527.926,105.01 C533.591,105.518 538.516,104.572 544.03,103.368 C545.163,103.122 545.79,101.004 544.221,101.077 L544.221,101.077 Z" id="Shape"></path>
                    <path d="M71.379,335.864 C64.922,343.604 64.057,356.126 62.888,365.699 C61.331,378.448 60.03,391.333 59.685,404.175 C59.313,418.051 60.45,431.96 64.309,445.333 C67.191,455.325 71.568,464.672 80.505,470.417 C86.517,474.281 95.884,475.803 100.719,469.199 C107.13,460.442 101.748,448.846 97.451,440.43 C94.741,435.123 91.951,429.923 90.326,424.159 C88.413,417.372 89.071,409.234 89.092,402.247 C89.128,390.581 89.653,378.982 94.703,368.309 C96.163,365.223 99.257,358.552 103.537,358.786 C106.497,358.948 112.309,353.704 107.913,351.596 C99.402,347.517 92.166,357.336 88.405,363.617 C82.998,372.649 81.395,382.559 80.615,392.87 C79.635,405.808 78.677,420.837 83.162,433.216 C85.183,438.792 88.336,443.933 90.909,449.258 C93.037,453.662 96.301,460.476 94.174,465.395 C94.448,464.759 93.851,465.265 92.907,465.169 C91.187,464.995 89.62,464.304 88.091,463.548 C84.471,461.758 81.016,458.765 78.944,455.274 C71.855,443.331 69.422,428.648 68.535,415.012 C67.624,401.006 68.821,386.971 69.615,372.993 C70.237,362.052 70.274,350.526 73.376,339.932 C73.672,338.921 73.956,337.875 74.319,336.887 C75.147,334.634 72.544,334.467 71.379,335.864 L71.379,335.864 Z" id="Shape"></path>
                    <path d="M115.755,355.582 C128.484,354.124 140.359,357.304 149.919,366.223 C157.104,372.924 159.106,383.769 159.863,393.105 C161.371,411.69 157.491,429.584 153.293,447.525 C151.887,453.536 149.88,461.756 152.967,467.561 C156.805,474.779 166.613,471.348 172,468.088 C180.664,462.845 185.438,452.325 188.813,443.23 C191.23,436.713 193.527,429.824 194.209,422.871 C195.773,406.938 195.492,390.44 193.427,374.575 C192.518,367.597 191.319,359.911 187.685,353.761 C183.866,347.297 178.631,346.522 172.266,349.883 C170.369,350.885 168.339,355.36 171.78,355.817 C174.303,356.153 175.692,355.682 177.341,356.669 C179.029,357.677 180.115,360.248 180.879,362.071 C183.659,368.705 184.47,376.182 185.163,383.274 C186.517,397.119 186.925,411.676 185.264,425.522 C184.308,433.486 181.178,441.694 177.873,448.934 C175.916,453.221 173.471,457.404 169.887,460.524 C168.381,461.835 163.516,464.585 161.618,462.766 C157.879,459.18 161.611,448.412 162.619,444.317 C164.509,436.637 166.252,429.006 167.388,421.167 C169.831,404.293 171.314,384.192 163.057,368.591 C155.027,353.418 130.979,344.392 115.655,353.769 C114.994,354.168 114.495,355.725 115.755,355.582 L115.755,355.582 Z" id="Shape"></path>
                </g>
            </g>
        </g>
    </g>
</svg>