<?xml version="1.0" encoding="UTF-8" standalone="no"?><!DOCTYPE svg PUBLIC "-//W3C//DTD SVG 1.1//EN" "http://www.w3.org/Graphics/SVG/1.1/DTD/svg11.dtd"><svg width="100%" height="100%" viewBox="0 0 549 474" version="1.1" xmlns="http://www.w3.org/2000/svg" xmlns:xlink="http://www.w3.org/1999/xlink" xml:space="preserve" style="fill-rule:evenodd;clip-rule:evenodd;stroke-linejoin:round;stroke-miterlimit:1.41421;"><g id="lion"><path d="M173.764,89.431c-17.2,-10.194 -37.547,10.202 -47.618,22.068c-14.82,17.461 -25.494,39.054 -32.773,60.63c-8.032,23.807 -12.873,52.814 -1.455,76.404c8.622,17.811 26.523,28.117 45.491,31.392c19.834,3.425 40.836,-0.569 58.21,-10.597c20.63,-11.906 31.738,-32.4 35.688,-55.314c1.924,-11.161 2.394,-22.56 2.968,-33.851c0.683,-13.417 2.484,-26.69 3.323,-40.083c0.841,-13.428 -2.71,-25.396 -10.875,-36.018c-6.98,-9.082 -16.955,-17.243 -27.829,-21.059c-4.58,-1.605 -8.781,-2.066 -13.562,-1.111c-3.152,0.629 -5.867,2.229 -7.291,5.256c-1.385,2.943 -0.601,6.685 2.964,7.393c10.974,2.182 20.309,7.83 28.113,15.743c9.247,9.376 13.319,19.808 13.02,33.015c-0.16,7.043 -1.412,14.049 -2.087,21.053c-0.621,6.45 -0.896,12.945 -1.225,19.416c-0.558,10.952 -1.046,21.91 -2.854,32.743c-1.629,9.764 -4.572,19.382 -10.327,27.534c-5.795,8.209 -14.446,14.216 -23.703,17.93c-17.051,6.84 -37.094,6.97 -54.102,-0.01c-39.912,-16.377 -33.153,-65.923 -20.979,-98.93c6.15,-16.674 14.313,-32.829 25.238,-46.892c9.471,-12.19 22.849,-26.296 39.773,-23.606c1.434,0.228 3.601,-2.093 1.892,-3.106Z" style="fill:#010101;fill-rule:nonzero;"/><path d="M146.958,95.454c3.204,-12.933 -5.212,-29.889 -17.732,-34.205c-10.472,-3.61 -21.827,0.997 -28.048,9.818c-5.861,8.313 -6.977,19.563 -3.012,28.896c4.023,9.475 18.865,20.788 29.273,14.805c2.57,-1.478 4.376,-4.694 2.577,-7.4c-2.189,-3.294 -8.519,-3.271 -11.995,-5.039c-3.193,-1.624 -6.05,-4.265 -7.865,-7.367c-3.348,-5.721 -3.736,-12.842 -0.823,-18.775c2.638,-5.374 8.755,-6.777 15.435,-5.48c6.35,1.231 10.385,5.293 13.305,10.861c2.55,4.861 2.877,10.607 5.811,15.266c0.851,1.352 2.842,-0.443 3.074,-1.38Z" style="fill:#010101;fill-rule:nonzero;"/><path d="M232.332,121.477c7.644,-9.32 21.757,-17.102 33.667,-12.197c7.345,3.024 11.588,9.414 9.838,17.297c-1.582,7.129 -7.089,13.343 -13.163,17.1c-3.026,1.873 -6.312,3.04 -9.854,3.359c-4.372,0.395 -8.185,-1.779 -12.604,-1.046c-3.104,0.515 -6.061,3.321 -5.146,6.677c1.707,6.272 9.82,6.602 15.206,6.244c5.988,-0.397 11.896,-2.883 16.904,-6.07c9.877,-6.285 18.664,-16.973 20.367,-28.837c1.774,-12.356 -6.547,-22.296 -18.645,-24.462c-15.867,-2.841 -32.099,7.146 -38.83,21.149c-0.815,1.694 1.415,1.816 2.26,0.786Z" style="fill:#010101;fill-rule:nonzero;"/><path d="M133.513,93.084c0.416,-0.811 0.639,-1.728 0.856,-2.609c0.08,-0.322 0.142,-0.581 0.156,-0.929c0.004,-0.089 0.009,-0.176 0.014,-0.264c0.02,-0.354 -0.067,0.516 -0.002,0.176c0.098,-0.501 0.09,-0.983 0.023,-1.482c-0.192,-1.442 -0.622,-2.784 -1.522,-3.944c-1.539,-1.983 -4.226,-2.794 -6.65,-2.647c-2.508,0.151 -5.112,1.088 -7.177,2.507c-2.531,1.739 -4.75,3.964 -5.549,7.022c-0.297,1.136 -0.246,2.474 0.204,3.565c0.515,1.251 1.419,2.109 2.522,2.848c1.133,0.759 2.531,1.171 3.84,1.491c0.732,0.179 1.483,0.319 2.233,0.39c0.422,0.039 0.845,0.065 1.267,0.087c0.521,0.025 1.044,0.051 1.566,0.067c0.559,0.018 1.096,-0.168 1.631,-0.308c-0.321,0.064 -0.643,0.13 -0.965,0.194c0.317,-0.017 0.635,-0.036 0.952,-0.059c1.836,-0.129 3.534,-1.362 4.305,-3.019c-0.896,0.786 -1.792,1.572 -2.688,2.358c1.288,-0.396 2.745,-0.907 3.556,-2.064c0.616,-0.879 0.713,-1.764 0.098,-2.633c-0.378,-0.533 -1.209,-0.797 -1.769,-0.989c0.211,0.073 0.422,0.146 0.633,0.22c-0.152,-0.053 -0.305,-0.107 -0.456,-0.161c0.303,0.346 0.606,0.691 0.91,1.037c-0.386,-0.95 -1.105,-1.707 -2.172,-1.813c-0.3,-0.03 -0.599,-0.065 -0.896,-0.102c0.271,0.094 0.541,0.188 0.813,0.282c-0.539,-0.218 -1.049,-0.423 -1.629,-0.469c-0.313,-0.024 -0.626,-0.056 -0.938,-0.09c-0.567,-0.062 -1.136,-0.136 -1.7,-0.217c-0.918,-0.131 -1.829,-0.325 -2.707,-0.623c0.281,0.098 0.563,0.196 0.846,0.294c-0.711,-0.247 -1.402,-0.564 -1.998,-1.029c0.229,0.182 0.457,0.363 0.685,0.545c-0.333,-0.267 -0.626,-0.574 -0.847,-0.941c0.149,0.248 0.299,0.497 0.448,0.746c-0.146,-0.252 -0.252,-0.52 -0.314,-0.803c0.06,0.287 0.119,0.576 0.179,0.863c-0.056,-0.277 -0.072,-0.558 -0.051,-0.84c-0.025,0.31 -0.053,0.619 -0.078,0.93c0.025,-0.281 0.087,-0.555 0.176,-0.822c-0.107,0.314 -0.215,0.629 -0.322,0.944c0.119,-0.349 0.281,-0.678 0.471,-0.993c-0.184,0.303 -0.367,0.605 -0.551,0.907c0.258,-0.42 0.563,-0.808 0.896,-1.169c-0.255,0.273 -0.51,0.546 -0.765,0.819c0.486,-0.521 1.029,-0.985 1.608,-1.399c-0.299,0.213 -0.599,0.428 -0.897,0.642c0.763,-0.541 1.589,-1.005 2.442,-1.388c-0.306,0.137 -0.611,0.271 -0.918,0.406c0.371,-0.164 0.748,-0.31 1.133,-0.436c0.432,-0.143 1.948,-0.465 0.323,-0.14c0.192,-0.038 0.386,-0.069 0.581,-0.095c0.542,-0.074 1.951,-0.298 0.289,-0.041c0.097,-0.016 0.193,-0.027 0.291,-0.039c0.395,-0.047 0.794,-0.061 1.191,-0.045c-0.261,-0.012 -0.521,-0.023 -0.781,-0.035c0.573,0.028 1.139,0.127 1.682,0.313c-0.218,-0.075 -0.436,-0.151 -0.653,-0.228c0.544,0.193 1.049,0.468 1.503,0.825c-0.166,-0.132 -0.333,-0.265 -0.499,-0.396c0.355,0.286 0.692,0.606 0.988,0.953c0.151,0.177 0.289,0.365 0.42,0.558c0.036,0.055 0.071,0.109 0.106,0.165c0.174,0.272 -0.313,-0.528 -0.146,-0.243c0.071,0.122 0.138,0.248 0.202,0.373c0.189,0.367 0.34,0.754 0.604,1.078c0.11,0.137 0.157,0.305 -0.082,-0.174c0.034,0.069 0.063,0.143 0.094,0.214c0.11,0.254 0.277,0.47 0.429,0.698c-0.325,-0.488 -0.003,0.004 0.066,0.131c0.08,0.146 0.156,0.297 0.23,0.446c0.077,0.156 0.108,0.331 0.187,0.488c0.039,0.079 0.076,0.157 0.121,0.233c-0.134,-0.227 0.291,0.481 0.139,0.229c0.473,0.791 1.473,0.299 1.813,-0.366Z" style="fill:#010101;fill-rule:nonzero;"/><path d="M246.116,126.695c0.568,-0.798 1.529,-1.853 2.07,-2.237c0.75,-0.533 1.02,-0.615 1.977,-0.641c0.306,-0.008 0.93,0.162 1.64,0.564c1.044,0.594 1.094,0.557 1.886,1.469c0.581,0.671 0.646,0.782 0.967,1.898c-0.16,-0.557 0.045,0.566 0.045,0.82c-0.002,-0.692 -0.027,-0.039 -0.068,0.137c-0.118,0.508 0.249,-0.516 -0.137,0.307c-0.361,0.767 0.463,-0.659 -0.03,0.057c-0.132,0.19 -0.737,0.856 0.016,0.061c-0.218,0.23 -1.589,1.359 -0.744,0.759c-1.589,1.129 -2.642,1.448 -4.276,1.98c-2.335,0.759 -4.986,1.204 -7.036,2.613c-2.511,1.726 -2.896,5.284 0.883,5.398c4.729,0.144 9.213,-1.604 13.009,-4.356c4.337,-3.146 6.316,-9.296 2.547,-13.635c-4.622,-5.322 -13.893,-2.66 -14.624,4.451c-0.129,1.223 1.318,1.137 1.875,0.355Z" style="fill:#010101;fill-rule:nonzero;"/><path d="M134.888,209.788c3.073,4.041 10.956,5.344 15.501,6.842c3.447,1.137 6.895,2.275 10.281,3.584c2.261,0.873 3.876,2.355 6.359,2.36c2.145,0.004 4.93,-2.591 4.567,-4.854c-0.183,-1.139 -0.43,-2.276 -1.559,-2.873c-0.789,-0.418 -1.418,-0.556 -2.316,-0.57c1.707,0.027 0.085,-0.161 -0.456,-0.359c-3.457,-1.273 -7.031,-2.235 -10.582,-3.209c-6.27,-1.719 -13.077,-4.27 -19.619,-4.456c-1.568,-0.045 -3.218,2.164 -2.176,3.535Z" style="fill:#010101;fill-rule:nonzero;"/><path d="M155.456,147.977c-6.165,8.602 -9.987,17.927 -13.311,27.971c-3.274,9.898 -6.696,21.479 -6.902,31.976c-0.1,5.153 8.035,1.585 8.117,-2.602c0.018,-0.917 -0.128,-1.712 -0.314,-2.609c-0.873,-4.191 -7.114,-0.077 -7.59,2.445c-0.175,0.934 -0.23,1.819 -0.213,2.766c0.104,5.19 8.201,1.607 8.117,-2.602c-0.184,-9.222 2.657,-19.372 4.826,-28.265c2.368,-9.712 5.395,-19.365 8.451,-28.857c0.252,-0.782 -0.882,-0.641 -1.181,-0.223Z" style="fill:#010101;fill-rule:nonzero;"/><path d="M181.434,157.686c-3.109,9.389 -4.727,19.124 -8.174,28.455c-3.484,9.426 -7.29,18.791 -11.188,28.053c2.748,-0.223 5.497,-0.445 8.246,-0.668c-0.207,-2.313 -0.425,-3.251 -2.424,-4.481c-1.422,-0.876 -3.209,0.313 -4.108,1.365c-1.417,1.657 -1.896,2.673 -2.08,4.856c-0.534,6.295 7.249,3.528 8.523,-0.691c3.042,-10.066 7.367,-19.715 10.433,-29.785c2.602,-8.548 5.678,-18.992 3.142,-27.867c-0.391,-1.374 -2.136,0.056 -2.37,0.763Z" style="fill:#010101;fill-rule:nonzero;"/><path d="M148.905,215.006c-1.201,5.053 -3.534,9.707 -4.442,14.866c0.806,-1.045 1.61,-2.09 2.415,-3.136c-0.161,0.103 -0.323,0.205 -0.484,0.307c0.921,-0.188 1.842,-0.375 2.763,-0.563c-0.072,-0.012 -0.145,-0.023 -0.217,-0.035c0.636,0.51 1.271,1.02 1.905,1.53c0.045,0.44 0.035,0.41 -0.03,-0.092c-0.563,-3.899 -5.805,-2.194 -6.85,0.556c-0.612,1.609 -0.846,2.831 0.132,4.354c0.887,1.38 3.181,0.858 4.305,0.229c3.653,-2.046 2.879,-4.987 2.898,-8.527c0.019,-3.41 0.453,-6.537 -0.245,-9.923c-0.272,-1.314 -1.925,-0.515 -2.15,0.434Z" style="fill:#010101;fill-rule:nonzero;"/><path d="M136.656,149.424c-3.592,2.609 -5.306,7.685 -4.952,11.983c0.246,2.995 3.891,2.642 5.566,1.09c3.89,-3.604 5.71,-8.229 5.881,-13.478c0.058,-1.746 -1.614,-2.447 -3.057,-2.466c1.125,0.015 0.036,-0.058 -0.199,-0.093c-0.72,-0.105 -1.43,-0.064 -2.124,0.158c-2.162,0.69 -3.436,2.717 -4.487,4.589c-1.711,3.044 -3,6.775 -2.824,10.306c0.259,5.162 7.703,1.881 8.297,-1.676c0.462,-2.768 0.595,-5.559 2.211,-7.963c-1.273,0.74 -2.548,1.479 -3.822,2.22c0.457,-0.013 0.905,-0.136 1.363,-0.141c-1.019,-0.822 -2.038,-1.644 -3.057,-2.466c-0.021,2.912 -0.99,5.109 -2.851,7.307c2.044,-0.166 4.088,-0.332 6.132,-0.497c-0.648,-2.735 0.902,-5.034 1.586,-7.568c0.681,-2.526 -2.401,-2.221 -3.663,-1.305Z" style="fill:#010101;fill-rule:nonzero;"/><path d="M193.951,166.049c-3.515,3.641 -5.395,8.355 -5.151,13.435c0.076,1.582 1.504,2.646 3.046,2.456c6.607,-0.813 10.327,-6.65 9.614,-13.019c-0.33,-2.944 -3.271,-3.022 -5.425,-1.979c-1.876,0.908 -3.684,2.29 -4.987,3.931c-0.642,0.808 -1.197,1.647 -1.636,2.586c-0.661,1.412 -0.587,2.255 -0.487,3.748c0.117,1.746 2.221,2.147 3.487,1.272c1.325,-0.915 2.557,-1.585 3.692,-2.768c0.763,-0.793 1.522,-1.57 2.464,-2.145c-1.808,-0.66 -3.616,-1.319 -5.425,-1.979c0.142,0.812 0.367,2.211 0.158,2.804c-0.285,0.805 -0.201,0.346 0.046,0.106c0.487,-0.473 -0.725,0.217 -0.901,0.269c1.283,0.467 2.565,0.936 3.848,1.403c-0.721,-3.103 0.633,-5.854 1.427,-8.776c0.643,-2.368 -2.517,-2.643 -3.77,-1.344Z" style="fill:#010101;fill-rule:nonzero;"/><path d="M139.465,212.655c-0.006,-0.552 -0.076,-0.557 -0.21,-0.017c-0.78,0.063 -1.562,0.126 -2.342,0.189c0.225,1.549 1.799,2.8 2.794,3.905c0.988,1.098 4.821,4.295 4.798,4.87c1.306,-0.75 2.61,-1.5 3.915,-2.249c-2.664,-2.477 -4.752,-5.44 -7.219,-8.102c-1.267,1.112 -2.534,2.224 -3.801,3.336c2.722,2.653 5.54,4.809 9.025,6.368c1.605,0.719 3.44,-0.642 3.821,-2.221c0.271,-0.511 0.542,-1.021 0.813,-1.53c-1.352,-0.256 -2.703,-0.51 -4.055,-0.766c-0.261,1.181 -0.646,2.32 -1.157,3.419c-1.038,1.733 0.688,2.886 2.236,2.55c3.998,-0.869 7.714,-2.24 11.288,-4.227c2.677,-1.488 1.674,-5.482 -1.475,-3.855c-2.915,1.507 -5.754,3.152 -8.67,4.658c-1.671,0.862 -2.621,4.711 0.24,4.271c5.128,-0.79 10.187,-1.946 15.329,-2.651c0.128,-1.524 0.256,-3.049 0.383,-4.574c-5.795,1.219 -11.781,1.828 -17.333,3.984c-1.57,0.609 -3.887,4.04 -0.981,4.58c6.093,1.133 12.533,0.626 18.583,-0.582c2.456,-0.491 4.613,-5.314 1.039,-4.848c-5.849,0.765 -11.519,1.834 -17.417,0.75c-0.326,1.527 -0.654,3.054 -0.981,4.58c5.546,-2.163 11.538,-2.786 17.333,-4.016c2.251,-0.479 3.465,-5.002 0.383,-4.574c-5.146,0.714 -10.205,1.881 -15.337,2.681c0.08,1.424 0.16,2.847 0.24,4.271c2.914,-1.511 5.751,-3.162 8.664,-4.674c-0.491,-1.285 -0.983,-2.57 -1.475,-3.855c-3.201,1.787 -6.485,2.962 -10.046,3.773c0.745,0.851 1.491,1.7 2.236,2.55c0.928,-1.583 1.061,-2.813 1.509,-4.581c0.696,-2.748 -2.972,-2.196 -4.055,-0.766c-0.905,1.197 -1.517,2.335 -1.854,3.802c1.274,-0.74 2.548,-1.48 3.821,-2.221c-3.2,-1.386 -5.775,-3.223 -8.309,-5.632c-1.813,-1.725 -5.539,1.508 -3.801,3.336c2.625,2.762 4.777,5.866 7.822,8.196c1.453,1.112 3.601,-1.152 3.542,-2.547c-0.094,-2.239 -3.001,-3.549 -4.578,-4.894c-1.44,-1.229 -3.503,-3.803 -5.485,-4.086c-0.927,-0.133 -2.42,1.151 -1.589,2.082c0.28,0.313 0.771,0.311 1.151,0.368c0.547,0.086 1.285,-0.452 1.205,-1.051Z" style="fill:#010101;fill-rule:nonzero;"/><path d="M172.132,37.606c-6.525,-8.109 -10.927,-17.674 -18.034,-25.388c-7.201,-7.816 -17.058,-11.867 -27.639,-11.854c-8.392,0.011 -16.887,4.659 -18.755,13.28c-1.95,8.996 5.396,16.998 11.809,22.064c1.743,-2.865 3.487,-5.729 5.23,-8.594c-21.854,-3.803 -46.866,-6.022 -66.787,5.834c-8,4.762 -13.763,12.689 -14.475,22.071c-0.714,9.406 9.281,12.473 16.766,12.149c5.526,-0.238 9.148,-10.372 2.107,-9.832c-1.812,0.139 -3.529,0.499 -5.264,1.036c-2.256,0.697 -6.608,6.112 -2.618,7.613c1.531,0.575 2.898,0.995 4.538,1.126c1.114,-3.259 2.229,-6.518 3.344,-9.775c-5.421,0.147 -9.751,-1.644 -8.31,-7.691c1.561,-6.54 8.422,-10.037 14.169,-12.141c17.131,-6.27 34.722,-3.036 52.313,-1.445c3.896,0.353 10.014,-5.574 5.23,-8.594c-4.933,-3.113 -11.132,-8.695 -9.852,-15.264c1.322,-6.781 15.245,-4.228 19.39,-3.239c15.318,3.652 24.158,20.29 33.843,31.271c1.314,1.49 4.238,-1.083 2.995,-2.627Z" style="fill:#010101;fill-rule:nonzero;"/><path d="M171.23,40.27c3.462,-5.339 6.872,-9.387 12.842,-12.021c5.838,-2.575 12.221,-3.201 18.524,-2.646c11.98,1.054 12.643,11.137 11.693,21.059c-0.716,7.488 8.428,4 10.023,-0.813c0.457,-1.38 0.551,-2.377 0.506,-3.823c-0.031,-1.013 -0.639,-2.3 -1.644,-2.703c-0.252,-0.102 -0.503,-0.202 -0.755,-0.304c-1.572,-0.633 -3.223,-0.194 -4.476,0.931c-1.866,1.675 -2.378,3.177 -3.225,5.451c3.232,-0.262 6.465,-0.523 9.696,-0.785c-0.66,-6.044 -1.016,-13.226 -4.578,-18.407c-3.562,-5.181 -9.455,-6.844 -15.468,-7.148c-7.892,-0.398 -15.472,1.139 -22.553,4.635c-6.124,3.023 -13.322,9.063 -13.53,16.434c-0.046,1.695 2.369,1.029 2.945,0.14Z" style="fill:#010101;fill-rule:nonzero;"/><path d="M222.25,48.325c2.771,-1.547 5.265,-3.468 8.12,-4.912c3.849,-1.947 8.293,-2.886 12.519,-3.541c7.817,-1.211 15.975,-0.63 23.541,1.647c8.022,2.415 15.556,7.147 20.371,14.058c2.877,4.13 3.978,9.611 3.439,14.533c-0.235,2.154 -0.788,4.28 -1.315,6.377c-0.296,0.965 -0.526,1.945 -0.691,2.941c-0.384,1.922 -1.874,3.975 0.921,0.99c1.602,-0.525 3.203,-1.051 4.805,-1.576c-0.23,-0.031 -0.461,-0.063 -0.691,-0.094c-2.979,-0.402 -6.647,2.363 -6.358,5.58c0.02,0.217 0.038,0.433 0.058,0.649c0.096,1.061 0.592,2.206 1.628,2.678c0.071,0.032 0.142,0.064 0.212,0.097c3.166,1.445 6.39,-0.872 7.893,-3.586c0.937,-1.69 1.028,-3.44 1.172,-5.325c0.242,-3.173 1.174,-6.292 1.502,-9.472c0.569,-5.52 -0.463,-10.554 -2.85,-15.538c-4.599,-9.604 -14.596,-14.9 -24.267,-18.05c-9.163,-2.984 -19.541,-3.073 -28.928,-1.166c-7.533,1.529 -18.733,5.092 -22.189,12.818c-0.36,0.803 0.417,1.277 1.108,0.892Z" style="fill:#010101;fill-rule:nonzero;"/><path d="M59.293,66.191c-14.732,-4.057 -28.226,9.588 -31.135,23.026c-1.703,7.869 1.604,15.174 6.988,20.765c2.637,2.738 10.35,6.137 13.435,2.928c1.692,-1.761 3.488,-5.315 0.538,-6.959c-2.633,-1.467 -5.867,-1.094 -8.219,-3.172c-4.095,-3.618 -6.493,-8.603 -6.027,-14.105c1.066,-12.593 12.572,-17.784 23.459,-19.671c1.182,-0.206 2.807,-2.303 0.961,-2.812Z" style="fill:#010101;fill-rule:nonzero;"/><path d="M293.364,88.067c10.192,-3.025 21.529,5.665 28.571,11.873c7.788,6.865 16.558,16.091 18.383,26.695c4.905,28.489 -16.83,58.119 -41.271,70.133c-4.813,2.366 -4.372,11.615 1.846,8.893c15.541,-6.807 28.214,-20.186 36.705,-34.65c8.287,-14.114 13.711,-31.279 10.219,-47.692c-2.66,-12.499 -13.226,-22.509 -22.893,-30.116c-8.648,-6.805 -21.972,-14.492 -32.313,-7.067c-0.996,0.714 -0.569,2.323 0.753,1.931Z" style="fill:#010101;fill-rule:nonzero;"/><path d="M45.293,110.191c-13.653,-0.826 -25.432,13.194 -29.963,24.716c-2.402,6.107 -3.014,12.604 -1.445,18.984c1.785,7.261 7.812,12.049 14.069,15.447c1.869,-3.071 3.738,-6.143 5.606,-9.213c-0.757,-0.114 -1.518,-0.201 -2.281,-0.263c-3.925,-0.382 -10.297,5.805 -5.337,8.77c1.04,0.622 1.901,0.885 3.099,1.083c5.063,0.839 10.926,-7.781 4.52,-9.59c-11.298,-3.189 -14.866,-14.59 -11.291,-24.951c3.802,-11.016 12.723,-17.567 22.813,-22.414c0.802,-0.385 1.71,-2.478 0.21,-2.569Z" style="fill:#010101;fill-rule:nonzero;"/><path d="M34.228,167.042c-11.469,0.697 -18.843,11.667 -23.804,20.854c-5.822,10.78 -9.361,23.127 -9.597,35.386c-0.19,9.977 3.663,18.766 11.917,24.466c3.984,2.752 8.73,4.354 13.312,5.784c2.841,0.887 5.74,1.591 8.635,2.275c1.558,0.368 3.122,0.711 4.685,1.056c0.924,0.203 3.424,0.882 3.332,0.73c-0.245,-1.139 -0.49,-2.278 -0.736,-3.417c-0.031,0.099 -0.063,0.197 -0.095,0.296c1.601,-1.702 3.202,-3.404 4.803,-5.106c-1.898,0.4 -3.463,1.633 -4.642,3.125c-1.69,2.137 -1.424,5.017 1.316,5.896c-3.063,-0.983 0.609,0.456 1.269,0.579c2.192,0.414 5.021,-0.908 6.185,-2.81c1.295,-2.114 1.877,-3.741 0.851,-6.099c-1.187,-2.729 -5.147,-2.572 -7.651,-3.018c-5.236,-0.931 -10.46,-1.941 -15.579,-3.394c-7.972,-2.262 -14.94,-6.436 -17.798,-14.546c-3.505,-9.943 -0.568,-21.817 2.579,-31.464c3.578,-10.963 9.505,-23.512 20.821,-28.235c0.968,-0.402 1.939,-2.463 0.197,-2.358Z" style="fill:#010101;fill-rule:nonzero;"/><path d="M50.555,250.783c-15.564,4.044 -18.711,25.841 -19.837,39.204c-0.618,7.344 -0.783,15.471 1.136,22.65c1.651,6.179 6.43,10.994 11.467,14.611c11.503,8.258 27.797,10.796 41.573,8.76c12.626,-1.865 27.594,-10.172 27.543,-24.734c-0.011,-2.883 -3.112,-3.705 -5.389,-3.025c-1.88,0.563 -3.21,1.244 -4.589,2.66c-1.283,1.316 -2.492,3.134 -1.765,5.063c0.834,2.21 3.653,1.879 5.549,1.885c-1.324,-1.51 -2.649,-3.019 -3.974,-4.528c-0.682,3.744 -1.497,6.91 -4.678,9.169c-4.168,2.959 -9.337,4.145 -14.333,4.711c-11.359,1.287 -23.683,-1.109 -33.495,-7.02c-10.604,-6.388 -11.69,-16.543 -11.758,-27.982c-0.072,-12.416 1.284,-31.28 13.122,-38.662c1.376,-0.859 1.547,-3.313 -0.572,-2.762Z" style="fill:#010101;fill-rule:nonzero;"/><path d="M107.194,310.372c-2.291,10.587 0.906,22.203 9.589,29.063c8.411,6.646 19.771,9.214 30.309,9.64c9.81,0.396 20.124,-1.225 28.989,-5.52c4.158,-2.014 8.022,-5.305 10.256,-9.381c2.178,-3.977 3.457,-10.34 0.315,-14.11c-2.621,-3.146 -8.358,0.606 -8.71,3.905c-0.299,2.797 1.09,6.136 -0.589,8.663c-1.599,2.407 -4.605,3.668 -7.207,4.651c-6.97,2.635 -15.024,3.548 -22.446,3.199c-8.499,-0.398 -17.677,-2.695 -24.872,-7.304c-8.509,-5.448 -10.316,-14.663 -12.789,-23.725c-0.429,-1.568 -2.639,-0.032 -2.845,0.919Z" style="fill:#010101;fill-rule:nonzero;"/><path d="M181.431,321.52c-0.543,10.104 12.545,13.092 20.161,13.591c9.934,0.65 20.634,-1.138 29.936,-4.682c8.193,-3.12 14.875,-12.407 18.845,-19.812c2.065,-3.852 3.234,-8.208 2.139,-12.507c-1.146,-4.492 -6.704,-6.952 -10.776,-5.491c-2.615,0.939 -6.334,4.957 -3.73,7.779c1.672,1.812 5.085,1.174 5.253,3.892c0.164,2.66 -1.919,5.728 -3.296,7.837c-3.198,4.902 -7.055,9.438 -12.586,11.358c-7.436,2.582 -15.322,3.855 -23.179,4.011c-3.877,0.077 -7.86,-0.453 -11.466,-1.913c-3.376,-1.366 -5.279,-3.657 -7.861,-6.039c-1.398,-1.287 -3.359,0.456 -3.44,1.976Z" style="fill:#010101;fill-rule:nonzero;"/><path d="M235.563,297.004c2.318,1.191 3.627,2.282 6.398,2.433c2.707,0.147 5.182,-0.724 7.615,-1.813c4.626,-2.069 8.093,-6.269 10.561,-10.554c2.154,-3.741 3.107,-8.43 1.819,-12.603c-1.5,-4.858 -7.639,-6.701 -12.067,-5.532c-3.508,0.926 -7.648,8.438 -1.993,9.303c1.712,0.262 4.348,-0.562 5.333,1.204c1.076,1.927 0.541,4.36 -0.23,6.296c-2.327,5.838 -9.442,9.363 -15.639,8.313c-1.334,-0.226 -3.477,2.092 -1.797,2.953Z" style="fill:#010101;fill-rule:nonzero;"/><path d="M247.738,269.811c1.415,6.519 11.805,3.59 15.864,2.103c8.154,-2.986 15.634,-7.961 22.49,-13.209c7.793,-5.966 14.178,-14.61 15.683,-24.47c0.793,-5.19 -0.3,-10.198 -3.016,-14.64c-2.665,-4.362 -6.866,-8.294 -6.821,-13.707c0.039,-4.472 -6.008,-3.811 -8.204,-1.606c-2.019,2.027 -3.554,4.068 -3.647,7.004c-0.057,1.763 2.001,2.373 3.373,1.894c1.609,-0.563 3.166,-0.567 4.791,-1.366c-2.306,-0.841 -4.612,-1.683 -6.918,-2.524c-0.285,8.567 7.057,13.157 10.127,20.389c3.406,8.023 -3.023,17.29 -8.705,22.416c-9.042,8.159 -20.167,16.051 -32.719,15.271c-1.35,-0.086 -2.6,1.056 -2.298,2.445Z" style="fill:#010101;fill-rule:nonzero;"/><path d="M108.789,213.311c-5.151,8.32 3.257,15.928 10.472,18.866c4.61,1.878 9.521,2.923 14.453,3.477c3.68,0.414 8.17,1.159 11.455,-0.927c2.48,-1.574 4.287,-5.645 0.564,-6.881c-1.479,-0.492 -5.229,-0.014 -7.64,-0.072c-3.968,-0.095 -7.978,-0.777 -11.832,-1.688c-3.69,-0.873 -7.121,-2.377 -10.363,-4.323c-3.321,-1.994 -4.384,-5.248 -5.945,-8.545c-0.228,-0.481 -0.929,-0.286 -1.164,0.093Z" style="fill:#010101;fill-rule:nonzero;"/><path d="M147.009,227.07c-6.364,9.188 4.629,17.071 12.192,19.517c5.004,1.617 10.582,1.833 15.799,1.836c5.021,0.004 10.361,0.112 13.201,-4.627c1.037,-1.73 0.301,-4.551 -1.931,-4.813c-2.677,-0.315 -4.557,1.03 -6.292,2.898c-1.377,1.482 -1.433,5.061 1.179,5.28c1.118,0.094 2.036,-0.025 3.128,-0.258c-1.016,-0.049 -2.031,-0.098 -3.047,-0.147c0.082,0.031 0.164,0.062 0.245,0.093c-0.126,-1.84 -0.251,-3.68 -0.377,-5.521c-0.141,0.162 -0.282,0.323 -0.423,0.485c1.395,-0.811 2.791,-1.62 4.186,-2.431c-6.947,1.344 -14.221,1.307 -21.151,-0.087c-3.454,-0.694 -6.603,-1.828 -9.575,-3.738c-3.352,-2.155 -3.181,-5.62 -4.955,-8.664c-0.504,-0.863 -1.67,-0.558 -2.179,0.177Z" style="fill:#010101;fill-rule:nonzero;"/><path d="M133.113,132.076c2.563,5.126 6.587,9.722 10.629,13.741c1.511,1.503 3.125,2.832 4.797,4.144c0.655,0.515 1.346,0.987 2.001,1.505c0.264,0.208 2.523,1.825 1.34,0.586c0.848,-1.767 1.695,-3.533 2.543,-5.301c-0.059,0.025 -0.117,0.049 -0.176,0.073c-1.798,0.747 -4.703,4.069 -1.928,5.607c0.042,0.023 0.084,0.046 0.126,0.069c2.686,1.488 5.857,-1.979 5.208,-4.57c-0.658,-2.631 -5.939,-3.228 -7.875,-4.73c-5.04,-3.913 -9.559,-9.416 -15.215,-12.396c-0.649,-0.343 -1.814,0.542 -1.45,1.272Z" style="fill:#010101;fill-rule:nonzero;"/><path d="M180.743,160.105c9.336,3.221 20.104,-1.515 29.688,-0.591c4.216,0.407 7.267,-6.709 2.244,-6.559c-2.05,0.063 -3.679,0.39 -5.36,1.591c-0.984,0.704 -2.096,2.079 -1.144,3.285c1.329,1.683 3.06,1.659 5.09,1.722c0.18,-2.141 0.358,-4.281 0.538,-6.421c-9.958,2.236 -20.992,0.638 -30.56,4.654c-0.908,0.382 -1.86,1.848 -0.496,2.319Z" style="fill:#010101;fill-rule:nonzero;"/><path d="M287.471,220.057c14.504,2.403 29.532,1.892 44.178,2.912c15.152,1.056 30.146,3.155 44.649,7.794c13.054,4.175 26.174,8.078 38.544,14.069c12.706,6.154 22.848,14.871 31.246,26.174c17.798,23.951 23.844,53.654 24.473,82.888c0.458,21.317 0.489,42.953 -0.162,64.282c-0.266,8.681 -0.946,17.363 -2.703,25.881c-0.674,3.271 -1.574,6.455 -2.934,9.506c-0.669,1.5 -1.089,2.156 -1.964,3.309c-0.731,0.962 0.21,0.22 -1.395,1.088c-6.945,3.757 -4.219,14.257 3.795,9.922c15.319,-8.287 16.382,-31.529 17.332,-46.659c1.255,-19.962 0.423,-40.206 0.546,-60.197c0.185,-29.952 -3.498,-58.661 -17.862,-85.37c-6.488,-12.064 -14.825,-22.803 -25.661,-31.232c-10.728,-8.346 -23.632,-13.373 -36.387,-17.688c-17.771,-6.012 -35.732,-11.174 -54.493,-12.695c-19.552,-1.586 -39.971,-0.416 -59.503,1.052c-2.16,0.16 -4.913,4.431 -1.699,4.964Z" style="fill:#010101;fill-rule:nonzero;"/><path d="M189.34,364.057c7.223,7.566 20.863,5.162 30.313,5.68c15.194,0.833 30.373,-0.463 45.521,-1.524c32.387,-2.271 64.857,-3.341 97.261,-5.39c14.928,-0.944 29.911,-2.416 44.87,-2.666c11.799,-0.196 25.174,2.006 33.041,11.668c6.737,8.273 6.277,21.874 7.582,31.809c1.764,13.43 2.922,26.32 1.875,39.828c-0.567,7.324 -2.085,26.154 8.119,28.133c4.216,0.818 10.846,-4.541 8.595,-9.159c-0.466,-0.956 -1.932,-2.225 -2.181,-2.6c-3.354,-5.057 -13.195,2.671 -10.764,7.685c0.226,0.465 1.736,3.059 1.246,1.583c2.865,-3.053 5.729,-6.106 8.595,-9.159c2.126,0.697 0.622,-0.172 0.137,-1.071c-0.521,-0.963 -0.835,-2.034 -1.157,-3.073c-0.699,-2.242 -0.67,-4.809 -0.736,-7.134c-0.154,-5.448 0.518,-10.904 0.907,-16.33c1.054,-14.687 -2.323,-29.485 -3.85,-44.03c-1.008,-9.6 -2.972,-19.634 -9.581,-27.042c-8.08,-9.057 -21.216,-12.073 -32.799,-12.617c-14.455,-0.679 -29.135,1.108 -43.551,2.06c-16.361,1.078 -32.727,2.09 -49.086,3.222c-16.264,1.126 -32.521,2.333 -48.772,3.638c-15.671,1.258 -31.287,3.165 -46.999,3.882c-6.169,0.281 -12.318,0.306 -18.486,0.696c-5.85,0.368 -12.427,0.942 -18.113,-0.689c-1.171,-0.339 -2.995,1.543 -1.987,2.6Z" style="fill:#010101;fill-rule:nonzero;"/><path d="M389.135,356.522c1.518,12.46 4.546,24.641 6.435,37.094c1.917,12.643 2.429,25.277 1.966,38.049c-0.315,8.696 -2.414,17.458 -2.092,26.148c0.362,9.784 10.79,12.039 17.985,7.631c8.728,-5.346 13.471,-16.018 15.667,-25.561c2.625,-11.401 1.047,-23.451 -0.487,-34.878c-1.19,-8.857 -2.183,-17.804 -3.757,-26.603c-1.535,-8.584 -3.887,-19.01 -10.437,-25.303c-2.46,-2.363 -6.115,-1.361 -8.452,0.686c-2.212,1.937 -3.729,4.104 -3.545,7.154c0.09,1.492 1.021,2.215 2.329,2.654c-0.097,-0.019 -0.192,-0.037 -0.288,-0.056c2.631,1.288 5.152,0.027 7.307,-1.52c0.291,-0.209 0.582,-0.419 0.873,-0.628c-2.817,0.229 -5.635,0.457 -8.452,0.686c9.831,11.439 9.743,28.137 11.753,42.381c2.254,15.981 7.451,39.627 -6.588,51.923c-1.923,1.685 -2.301,-3.594 -2.303,-4.358c-0.009,-3.422 0.582,-6.859 0.923,-10.259c0.932,-9.291 0.78,-18.845 -0.093,-28.128c-0.971,-10.309 -3.064,-20.629 -5.57,-30.666c-1.293,-5.187 -2.912,-10.241 -4.739,-15.263c-1.701,-4.678 -3.99,-8.093 -6.901,-12.065c-0.479,-0.651 -1.61,0.256 -1.534,0.882Z" style="fill:#010101;fill-rule:nonzero;"/><path d="M462.085,283.614c2.103,9.072 12.828,9.186 19.96,6.536c9.101,-3.38 17.238,-10.376 22.65,-18.356c10.635,-15.683 3.664,-36.987 -6.073,-51.257c-11.177,-16.381 -28.231,-28.403 -44.248,-39.63c-7.857,-5.508 -15.831,-10.852 -23.534,-16.575c-7.747,-5.754 -16.233,-12.076 -18.93,-21.772c-3.707,-13.332 11.482,-22.956 21.87,-26.4c8.16,-2.705 16.677,-2.723 24.88,-4.996c-1.315,-0.063 -2.631,-0.127 -3.946,-0.191c0.011,0.004 0.022,0.009 0.033,0.013c0.66,-3.082 1.32,-6.165 1.981,-9.247c-0.128,0.086 -0.262,0.159 -0.403,0.221c-2.919,1.486 -6.294,8.955 -0.771,9.42c0.572,0.049 1.146,0.093 1.721,0.081c4.43,-0.085 8.208,-5.511 5.775,-9.384c-1.352,-2.15 -6.013,-1.728 -7.956,-1.495c-3.998,0.479 -7.996,0.997 -11.977,1.611c-12.942,1.999 -26.193,8.519 -34.795,18.458c-7.542,8.717 -11.094,19.839 -7.286,31.011c3.266,9.582 12.32,16.157 20.047,22.053c15.601,11.903 32.501,21.987 47.571,34.606c13.861,11.605 27.637,26.424 29.302,45.277c0.851,9.635 -2.218,16.145 -9.378,22.511c-3.539,3.146 -7.559,5.401 -12.082,6.774c-4.363,1.326 -8.467,0.18 -12.625,-1.172c-1.035,-0.338 -1.993,1.009 -1.786,1.903Z" style="fill:#010101;fill-rule:nonzero;"/><path d="M546.479,111.839c-2.912,-0.567 -6.061,0.052 -9.008,0.134c-3.741,0.105 -7.463,-0.666 -11.074,-1.557c-8.061,-1.989 -15.734,-5.354 -23.539,-8.137c-12.74,-4.543 -30.605,-10.365 -42.531,-0.656c-2.989,2.434 -2.056,8.098 2.517,6.47c3.177,-1.132 5.935,-2.592 9.335,-3.063c3.472,-0.481 6.97,-0.138 10.41,0.395c7.546,1.166 14.85,3.804 22.067,6.203c7.321,2.433 14.894,4.521 22.571,5.398c6.223,0.712 14.4,1.114 19.365,-3.396c0.514,-0.466 0.85,-1.603 -0.113,-1.791Z" style="fill:#010101;fill-rule:nonzero;"/><path d="M457.123,108.762c-7.813,21.165 20.358,30.615 36.32,31.229c10.292,0.396 20.728,-1.895 30.463,-5.052c8.769,-2.844 18.422,-6.433 24.358,-13.804c0.869,-1.078 0.621,-3.26 -1.182,-2.968c-7.374,1.192 -13.868,5.103 -20.805,7.703c-8.094,3.034 -16.531,4.979 -25.151,5.624c-8.425,0.631 -17.064,-0.553 -24.789,-4.034c-7.28,-3.281 -17.33,-9.804 -17.423,-18.843c-0.01,-1.066 -1.55,-0.509 -1.791,0.145Z" style="fill:#010101;fill-rule:nonzero;"/><path d="M544.221,101.077c-5.828,0.269 -12.131,-0.07 -17.741,-1.757c-5.249,-1.578 -9.981,-4.646 -15.037,-6.717c-8.187,-3.354 -17.14,-5.426 -25.882,-6.626c-16.114,-2.212 -40.245,0.92 -45.095,19.949c-1.213,4.761 5.539,4.357 7.362,1.388c2.079,-3.388 3.613,-6.42 6.796,-8.935c2.746,-2.169 6.598,-3.264 9.974,-3.893c8.279,-1.544 16.949,-0.63 25.162,0.85c7.863,1.415 15.531,3.781 23.093,6.317c4.913,1.646 9.905,2.895 15.073,3.357c5.665,0.508 10.59,-0.438 16.104,-1.642c1.133,-0.246 1.76,-2.364 0.191,-2.291Z" style="fill:#010101;fill-rule:nonzero;"/><path d="M71.379,335.864c-6.457,7.74 -7.322,20.262 -8.491,29.835c-1.557,12.749 -2.858,25.634 -3.203,38.476c-0.372,13.876 0.765,27.785 4.624,41.158c2.882,9.992 7.259,19.339 16.196,25.084c6.012,3.864 15.379,5.386 20.214,-1.218c6.411,-8.757 1.029,-20.353 -3.268,-28.769c-2.71,-5.307 -5.5,-10.507 -7.125,-16.271c-1.913,-6.787 -1.255,-14.925 -1.234,-21.912c0.036,-11.666 0.561,-23.265 5.611,-33.938c1.46,-3.086 4.554,-9.757 8.834,-9.523c2.96,0.162 8.772,-5.082 4.376,-7.19c-8.511,-4.079 -15.747,5.74 -19.508,12.021c-5.407,9.032 -7.01,18.942 -7.79,29.253c-0.98,12.938 -1.938,27.967 2.547,40.346c2.021,5.576 5.174,10.717 7.747,16.042c2.128,4.404 5.392,11.218 3.265,16.137c0.274,-0.636 -0.323,-0.13 -1.267,-0.226c-1.72,-0.174 -3.287,-0.865 -4.816,-1.621c-3.62,-1.79 -7.075,-4.783 -9.147,-8.274c-7.089,-11.943 -9.522,-26.626 -10.409,-40.262c-0.911,-14.006 0.286,-28.041 1.08,-42.019c0.622,-10.941 0.659,-22.467 3.761,-33.061c0.296,-1.011 0.58,-2.057 0.943,-3.045c0.828,-2.253 -1.775,-2.42 -2.94,-1.023Z" style="fill:#010101;fill-rule:nonzero;"/><path d="M115.755,355.582c12.729,-1.458 24.604,1.722 34.164,10.641c7.185,6.701 9.187,17.546 9.944,26.882c1.508,18.585 -2.372,36.479 -6.57,54.42c-1.406,6.011 -3.413,14.231 -0.326,20.036c3.838,7.218 13.646,3.787 19.033,0.527c8.664,-5.243 13.438,-15.763 16.813,-24.858c2.417,-6.517 4.714,-13.406 5.396,-20.359c1.564,-15.933 1.283,-32.431 -0.782,-48.296c-0.909,-6.978 -2.108,-14.664 -5.742,-20.814c-3.819,-6.464 -9.054,-7.239 -15.419,-3.878c-1.897,1.002 -3.927,5.477 -0.486,5.934c2.523,0.336 3.912,-0.135 5.561,0.852c1.688,1.008 2.774,3.579 3.538,5.402c2.78,6.634 3.591,14.111 4.284,21.203c1.354,13.845 1.762,28.402 0.101,42.248c-0.956,7.964 -4.086,16.172 -7.391,23.412c-1.957,4.287 -4.402,8.47 -7.986,11.59c-1.506,1.311 -6.371,4.061 -8.269,2.242c-3.739,-3.586 -0.007,-14.354 1.001,-18.449c1.89,-7.68 3.633,-15.311 4.769,-23.15c2.443,-16.874 3.926,-36.975 -4.331,-52.576c-8.03,-15.173 -32.078,-24.199 -47.402,-14.822c-0.661,0.399 -1.16,1.956 0.1,1.813Z" style="fill:#010101;fill-rule:nonzero;"/></g></svg>