<?xml version="1.0" encoding="UTF-8"?>
<svg width="551px" height="434px" viewBox="0 0 551 434" version="1.1" xmlns="http://www.w3.org/2000/svg" xmlns:xlink="http://www.w3.org/1999/xlink">
    <!-- Generator: Sketch 41 (35326) - http://www.bohemiancoding.com/sketch -->
    <title>mountain</title>
    <desc>Created with Sketch.</desc>
    <defs></defs>
    <g id="Page-1" stroke="none" stroke-width="1" fill="none" fill-rule="evenodd">
        <g id="Layer_1" transform="translate(-490.000000, -6209.000000)" fill="#000000">
            <g id="Layer_1_3_">
                <g id="mountain" transform="translate(490.000000, 6209.000000)">
                    <path d="M360.993,241.596 C364.149,238.853 366.824,235.496 369.92,232.653 C373.623,229.253 377.851,226.579 382.172,224.042 C386.13,221.717 390.29,219.738 394.528,217.979 C398.034,216.525 401.615,216.081 404.92,214.079 C407.757,212.361 409.608,206.776 404.712,206.401 C399.831,206.028 394.849,208.171 390.858,210.885 C386.454,213.881 381.672,216.258 377.326,219.401 C372.816,222.662 368.481,226.296 364.432,230.111 C361.483,232.891 357.334,237.067 357.13,241.373 C357.032,243.428 360.259,242.235 360.993,241.596 L360.993,241.596 Z" id="Shape"></path>
                    <path d="M400.521,212.75 C406.318,217.331 409.945,223.796 413.588,230.094 C417.672,237.154 421.289,244.432 425.671,251.321 C427.519,254.226 433.049,254.108 436.155,254.897 C438.886,255.591 441.553,256.801 443.766,258.547 C449.029,262.696 452.13,269.635 455.645,275.163 C461.387,284.197 469.714,291.971 476.444,300.303 C483.326,308.824 488.853,318.106 495.06,327.09 C501.084,335.809 507.511,344.24 513.418,353.04 C516.403,357.487 519.185,362.062 521.692,366.795 C523.997,371.144 524.935,374.504 530.154,375.702 C531.384,375.985 532.872,375.225 533.559,374.224 C536.276,370.269 535.409,367.418 533.474,363.345 C531.2,358.557 528.428,354.006 525.595,349.534 C519.642,340.138 512.948,331.231 506.692,322.041 C500.461,312.887 494.892,303.476 488.044,294.734 C480.935,285.661 472.109,277.416 465.995,267.646 C462.516,262.087 459.369,255.836 454.328,251.496 C452.033,249.52 449.26,248.143 446.433,247.122 C444.653,246.478 442.8,246.001 440.962,245.557 C440.098,245.348 436.176,245.132 435.775,244.624 C430.369,237.771 426.718,229.36 421.884,222.087 C417.945,216.16 412.411,209.546 404.993,208.369 C403.359,208.111 397.914,210.69 400.521,212.75 L400.521,212.75 Z" id="Shape"></path>
                    <path d="M259.323,133.432 C249.192,141.788 240.624,153.084 233.434,164.016 C226.247,174.942 220.202,187.465 216.38,199.973 C218.508,198.285 220.636,196.598 222.764,194.91 C210.358,197.782 199.176,200.703 193.092,212.914 C184.348,230.468 182.156,250.379 173.798,268.059 C175.295,266.608 176.793,265.157 178.291,263.706 C155.75,272.769 144.248,295.267 135.401,316.42 C130.314,328.585 124.924,340.293 118.71,351.941 C115.272,358.384 111.95,364.892 109.043,371.594 C106.111,378.354 104.287,385.486 101.742,392.374 C105.096,390.568 108.45,388.764 111.805,386.957 C111.482,386.907 111.159,386.856 110.836,386.806 C111.981,388.467 113.125,390.128 114.271,391.789 C114.653,389.711 114.548,388.231 114.182,386.165 C113.056,379.81 101.633,382.825 100.779,388.046 C100.473,389.912 99.876,391.875 100.253,393.756 C100.763,396.301 102.899,397.841 105.603,397.468 C105.976,397.416 106.349,397.364 106.722,397.313 C110.017,396.859 115.612,394.752 115.36,390.464 C114.713,379.445 121.534,367.789 126.466,358.279 C131.487,348.599 137.056,339.155 141.305,329.093 C148.288,312.555 154.211,294.568 166.992,281.427 C169.833,278.505 173.169,275.728 176.875,273.991 C179.009,272.992 181.463,272.317 183.427,271.008 C185.711,269.485 186.576,267.065 187.678,264.675 C192.393,254.452 194.994,243.31 198.332,232.599 C200.755,224.826 203.347,216.186 208.288,209.575 C209.277,208.251 209.921,208.166 212.069,207.325 C215.248,206.08 219.336,205.344 222.879,204.48 C225.347,203.88 228.563,202.107 229.263,199.417 C232.413,187.313 236.34,176.351 242.944,165.661 C249.667,154.777 258.843,145.928 266.067,135.484 C269.175,130.99 261.401,131.719 259.323,133.432 L259.323,133.432 Z" id="Shape"></path>
                    <path d="M265.401,137.139 C265.018,137.219 266.766,137.702 267.433,138.03 C268.872,138.737 270.259,139.612 271.565,140.537 C275.347,143.215 278.741,146.509 281.943,149.842 C287.955,156.097 293.973,162.203 299.56,168.852 C300.84,170.376 301.597,172.699 302.857,174.404 C304.274,176.324 305.885,178.107 307.245,180.068 C310.523,184.796 311.825,190.746 313.091,196.272 C315.193,205.439 320.45,210.288 327.937,215.789 C338.187,223.319 346.167,233.107 353.206,243.594 C360.41,254.327 367.592,265.236 374.209,276.333 C377.288,281.496 380.449,286.606 384.195,291.318 C387.935,296.023 392.855,299.574 397.689,303.061 C408.832,311.101 418.317,321.578 426.669,332.451 C435.284,343.666 442.096,356.219 447.879,369.079 C449.649,373.015 448.989,377.502 450.807,381.394 C453.571,387.314 461.637,383.424 464.498,379.908 C466.622,377.298 464.743,374.163 461.782,373.65 C458.041,373.002 454.53,374.984 452.25,377.787 C452.191,377.859 452.133,377.932 452.074,378.003 C454.696,376.591 457.319,375.179 459.942,373.767 C459.878,373.764 459.813,373.761 459.749,373.758 C461.165,374.192 462.581,374.625 463.997,375.059 C464.899,375.954 463.977,374.739 463.808,374.282 C463.46,373.355 462.995,372.571 462.529,371.694 C461.416,369.6 460.349,367.494 459.289,365.375 C456.281,359.372 453.33,353.329 450.056,347.461 C443.141,335.069 434.776,323.296 425.324,312.714 C420.965,307.833 416.327,302.985 411.497,298.571 C407.101,294.554 402.031,291.428 397.752,287.26 C393.392,283.015 390.273,277.589 387.175,272.409 C383.784,266.74 380.134,261.317 376.563,255.774 C369.667,245.071 363.562,233.857 355.914,223.655 C352.361,218.916 348.336,214.425 343.817,210.591 C339.291,206.749 334.119,203.794 330.169,199.288 C328.235,197.082 327.619,193.992 327.002,191.215 C325.777,185.711 324.472,180.193 321.669,175.248 C319.192,170.881 315.611,167.301 313.106,162.928 C311.337,159.84 307.182,157.405 304.603,154.992 C297.575,148.416 290.4,142.068 282.331,136.786 C276.968,133.276 269.918,129.205 263.722,133.262 C261.078,134.989 262.424,137.765 265.401,137.139 L265.401,137.139 Z" id="Shape"></path>
                    <path d="M196.355,214.987 C193.194,206.915 186.623,200.018 181.229,193.356 C175.408,186.167 169.588,178.234 163.129,171.672 C161.52,170.037 158.706,170.613 156.848,171.332 C146.344,175.398 138.568,183.356 132.031,192.289 C127.342,198.696 125.505,206.922 119.123,211.965 C99.518,227.458 84.645,246.92 72.009,268.406 C66.205,278.275 63.154,289.901 55.701,298.758 C52.546,302.508 48.378,303.592 44.685,306.754 C40.726,310.145 40.475,315.755 39.582,320.503 C38.549,326.004 36.252,331.495 34.543,336.826 C32.356,343.648 30.305,350.707 27.309,357.222 C25.114,362.001 22.798,366.723 20.061,371.216 C17.791,374.941 15.191,378.004 13.926,382.036 C13.028,384.901 16.356,385.554 18.412,385.149 C27.147,383.43 32.031,373.049 34.928,365.466 C39.402,353.757 43.117,341.523 46.963,329.582 C48.561,324.621 50.004,319.928 50.926,314.788 C51.235,313.068 51.449,310.624 53.219,309.739 C55.381,308.657 57.503,307.99 59.407,306.407 C68.171,299.118 72.642,287.862 77.072,277.715 C82.054,266.299 89.768,255.561 97.132,245.577 C104.375,235.757 112.616,225.932 122.482,218.64 C128.74,214.015 132.561,209.371 136.03,202.466 C141.047,192.482 149.289,182.559 159.9,178.357 C157.806,178.244 155.712,178.13 153.619,178.017 C156.787,181.169 160.46,183.885 163.7,187.03 C166.888,190.123 169.925,193.383 172.966,196.619 C179.344,203.407 185.076,211.49 192.614,217.018 C193.827,217.912 197.075,216.825 196.355,214.987 L196.355,214.987 Z" id="Shape"></path>
                    <path d="M368.799,240.742 C369.712,238.124 369.891,235.696 371.612,233.407 C369.297,233.511 366.982,233.613 364.668,233.716 C364.399,237.335 364.31,240.936 364.253,244.564 C364.189,248.694 372.439,246.284 372.495,242.63 C372.566,238.089 375.618,233.06 378.156,229.502 C375.498,229.344 372.839,229.186 370.18,229.027 C367.972,236.553 366.051,244.036 365.817,251.915 C365.681,256.526 373.874,253.588 374.786,250.657 C377.641,241.48 380.493,231.917 386.791,224.429 C384.124,223.967 381.456,223.505 378.789,223.043 C374.839,232.523 368.872,241.321 369.466,251.997 C369.749,257.085 379.142,253.908 379.282,249.694 C379.674,238.035 386.529,228.925 393.946,220.501 C391.158,220.018 388.369,219.535 385.581,219.052 C379.61,231.876 372.456,243.408 373.099,258.083 C376.616,257.258 380.133,256.434 383.65,255.608 C382.942,245.485 385.709,235.441 387.919,225.65 C384.84,226.082 381.762,226.513 378.684,226.946 C377.473,234.441 376.151,241.906 375.407,249.467 C375.035,253.238 374.945,257.009 375.085,260.792 C375.201,263.927 376.263,267.146 376.263,270.23 C376.263,275.376 386.49,272.362 386.49,267.832 L386.49,266.646 C383.146,267.757 379.803,268.868 376.461,269.979 C377.135,271.664 377.476,273.449 378.461,274.979 C380.662,278.397 389.372,275.957 388.49,271.646 C384.726,253.255 384.665,232.722 400.068,219.555 C397.348,218.728 394.629,217.9 391.91,217.072 C384.798,230.682 381.856,245.409 382.115,260.722 C382.324,273.074 390.529,283.304 393.385,295.011 C394.434,299.308 404.012,295.63 403.569,291.627 C402.358,280.69 394.751,272.097 393.003,261.321 C390.737,247.354 394.377,230.995 400.845,218.618 C403.854,212.86 395.414,213.804 392.687,216.135 C375.526,230.806 374.009,253.246 378.265,274.044 C381.609,272.933 384.952,271.822 388.294,270.711 C387.31,269.182 386.968,267.396 386.294,265.711 C384.571,261.404 376.265,265.198 376.265,269.044 L376.265,270.23 C376.265,275.376 386.492,272.362 386.492,267.832 C386.492,264.779 385.513,261.489 385.314,258.394 C385.073,254.645 385.225,250.86 385.442,247.115 C385.875,239.623 387.113,232.18 388.07,224.745 C388.627,220.43 379.498,222.6 378.835,226.041 C376.766,236.773 372.268,246.956 373.104,258.083 C373.508,263.477 383.881,260.234 383.655,255.608 C382.988,241.932 389.53,230.613 395.173,218.639 C397.371,213.973 388.591,215.181 386.808,217.19 C377.882,227.247 369.747,237.993 369.472,251.997 C372.743,251.229 376.017,250.462 379.288,249.694 C378.6,239.836 384.344,231.427 387.965,222.648 C389.832,218.121 381.684,219.203 379.963,221.262 C372.642,230.023 369.104,240.207 365.968,251.034 C368.957,250.615 371.947,250.195 374.937,249.776 C374.996,242.497 376.644,235.638 378.574,228.664 C379.914,223.823 372.184,225.901 370.598,228.189 C367.476,232.692 364.17,238.932 364.259,244.561 C364.324,248.725 372.559,246.276 372.501,242.627 C372.445,239.064 372.359,235.528 372.086,231.975 C371.794,228.168 365.607,230.594 364.79,232.998 C363.838,235.803 364.308,238.548 363.876,241.432 C363.503,243.872 368.25,242.316 368.799,240.742 L368.799,240.742 Z" id="Shape"></path>
                    <path d="M245.262,156.894 C243.879,159.984 241.737,162.625 240.263,165.707 C238.885,168.589 237.857,171.376 237.155,174.494 C236.004,179.605 237.007,184.621 238.542,189.512 C239.784,193.474 242.589,198.489 240.505,202.616 C238.452,206.684 235.175,210.271 232.219,213.691 C225.848,221.063 219.352,227.572 214.836,236.351 C210.165,245.433 208.362,255.339 206.507,265.279 C202.029,289.268 189.924,311.326 177.979,332.343 C171.75,343.305 165.939,354.275 160.538,365.672 C157.609,371.851 154.461,377.939 151.046,383.862 C149.572,386.42 147.891,388.819 146.314,391.308 C145.35,392.83 144.022,396.238 143.216,396.961 C145.292,396.061 147.369,395.158 149.445,394.258 C150.175,394.283 150.905,394.309 151.634,394.334 C148.577,390.548 138.301,395.582 140.454,400.412 C142.592,405.208 147.836,404.368 151.677,402 C153.907,400.625 154.93,398.194 155.915,395.9 C157.224,392.855 158.544,390.037 160.209,387.151 C167.12,375.178 172.177,362.213 178.407,349.889 C190.768,325.435 206.623,302.613 214.269,275.961 C217.178,265.822 217.641,255.186 220.696,245.083 C224.008,234.128 230.83,226.304 238.114,217.87 C243.794,211.295 251.167,203.795 249.347,194.464 C248.269,188.935 245.081,184.105 244.219,178.513 C243.7,175.157 244.358,171.648 244.893,168.349 C245.475,164.763 246.131,160.116 247.485,156.795 C247.975,155.596 245.647,156.034 245.262,156.894 L245.262,156.894 Z" id="Shape"></path>
                    <path d="M229.043,180.862 C228.943,189.552 228.844,198.242 228.744,206.932 C228.69,211.587 237.921,208.848 238.002,204.76 C238.156,197.057 238.305,189.353 238.475,181.65 C235.074,182.448 231.673,183.245 228.272,184.043 C229.203,191.356 229.127,198.757 230.137,206.075 C230.882,211.475 240.64,208.161 240.61,203.618 C240.565,196.945 240.479,190.257 241.499,183.644 C238.082,184.446 234.666,185.247 231.249,186.048 C232.261,192.382 233.152,198.735 234.164,205.068 C235.021,210.44 244.559,207.142 244.584,202.625 C244.606,198.61 244.611,194.568 245.46,190.628 C242.015,191.111 238.568,191.595 235.123,192.078 C237.354,206.281 225.653,213.425 217.545,223.072 C220.589,223.249 223.634,223.426 226.679,223.602 C226.966,217.057 230.163,211.361 233.101,205.664 C236.149,199.755 227.335,200.185 224.469,203.036 C214.871,212.584 206.365,223.109 198.3,233.967 C201.683,234.553 205.066,235.139 208.448,235.725 C214.305,225.163 219.683,214.05 227.516,204.766 C224.464,203.836 221.412,202.907 218.36,201.978 C214.289,207.073 210.366,212.179 207.326,217.972 C210.691,218.555 214.056,219.137 217.422,219.72 C220.358,214.122 224.14,209.088 227.461,203.727 C228.882,201.434 227.937,199.002 225.205,198.529 C222.261,198.019 218.97,199.545 217.287,201.966 C215.587,204.411 214.067,206.973 212.411,209.447 C211.798,210.362 211.149,211.139 210.382,211.924 C209.722,212.364 209.764,212.39 210.506,211.999 C209.728,211.922 208.97,211.752 208.233,211.488 C205.087,210.61 200.747,213.107 199.681,216.092 C196.651,224.577 195.672,233.619 192.614,242.095 C190.344,248.384 202.393,246.354 204.135,241.599 C208.263,230.329 212.814,219.185 216.02,207.604 C216.794,204.808 214.337,203.335 211.825,203.442 C208.717,203.574 206.076,205.352 204.729,208.09 C200.448,216.798 196.951,225.53 195.625,235.195 C194.946,240.138 203.901,237.726 205.524,235.769 C211.848,228.139 215.572,219.225 220.501,210.735 C217.083,210.142 213.665,209.55 210.247,208.958 C208.25,212.959 206.254,216.96 204.257,220.96 C201.819,225.845 207.301,227.021 210.979,225.544 C225.441,219.739 237.761,202.051 238.226,186.474 C238.394,180.845 227.458,183.89 226.706,188.091 C224.277,201.679 215.083,212.649 209.695,225.091 C213.481,224.929 217.266,224.765 221.052,224.603 C221.985,221.835 222.963,219.234 224.498,216.735 C221.081,216.143 217.665,215.551 214.248,214.96 C205.925,230.371 195.322,244.975 190.713,262.092 C194.486,261.929 198.26,261.767 202.033,261.604 C205.407,245.311 214.664,231.208 222.354,216.711 C219.033,216.135 215.712,215.561 212.391,214.984 C203.498,232.169 195.742,250.418 190.597,269.095 C188.779,275.699 200.65,273.416 202.148,268.599 C207.252,252.189 214.15,236.272 223.295,221.7 C219.835,221.494 216.374,221.289 212.914,221.082 C207.083,240.224 198.77,258.445 194.583,278.097 C193.149,284.825 204.968,282.572 206.161,277.599 C210.341,260.189 216.69,243.264 219.815,225.614 C220.929,219.325 211.627,221.742 209.461,224.998 C197.781,242.556 191.102,262.904 185.602,283.097 C189.511,282.549 193.419,282 197.329,281.451 C197.666,266.509 202.745,252.433 207.978,238.607 C209.019,235.856 206.092,234.378 203.811,234.474 C200.909,234.596 197.862,236.322 196.765,239.089 C188.825,259.14 179.885,278.793 172.59,299.097 C176.444,298.931 180.298,298.765 184.153,298.599 C187.516,279.742 198.917,263.831 204.178,245.598 C206.123,238.855 195.337,241.892 193.134,244.941 C179.447,263.88 172.385,286.188 162.097,306.934 C165.868,306.767 169.638,306.6 173.409,306.432 C174.877,294.856 184.126,285.292 188.259,274.594 C190.61,268.51 180.239,270.519 177.985,272.815 C164.178,286.876 154.401,304.186 146.496,322.101 C143.887,328.015 155.596,326.578 157.674,322.766 C165.307,308.767 174.67,295.636 180.242,280.595 C182.6,274.228 172.235,276.951 169.999,278.821 C156.479,290.126 141.801,308.898 141.32,327.268 C141.159,333.45 150.832,329.119 152.66,326.764 C164.599,311.383 174.245,293.804 181.135,275.6 C183.36,269.723 173.292,271.442 171.078,273.858 C156.351,289.935 141.347,310.163 137.451,332.103 C136.361,338.236 145.064,336.782 147.787,333.893 C167.21,313.287 178.14,286.765 195.682,264.768 C192.143,264.155 188.604,263.541 185.065,262.928 C173.392,282.881 156.965,300.728 152.504,324.101 C151.658,328.534 156.91,329.218 160.033,327.673 C176.249,319.652 181.324,301.707 193.842,289.918 C190.354,289.314 186.865,288.71 183.378,288.105 C176.337,303.808 165.744,317.583 158.334,333.107 C157.298,335.278 159.419,337.137 161.342,337.47 C164.41,338.001 168.129,336.423 169.821,333.79 C180.477,317.21 189.048,299.018 201.914,283.95 C198.37,283.337 194.826,282.722 191.282,282.108 C186.813,298.96 176.651,313.508 169.238,329.11 C173.329,328.934 177.419,328.758 181.509,328.583 C190.407,309.729 197.92,290.039 209.828,272.792 C205.994,272.563 202.159,272.335 198.325,272.106 C190.765,295.009 182.737,318.354 169.842,338.888 C173.796,338.712 177.75,338.536 181.704,338.362 C180.187,330.51 183.514,323.628 186.566,316.58 C189.206,310.483 178.075,312.007 175.757,314.708 C161.618,331.186 153.755,351.615 140.772,368.877 C144.776,368.698 148.78,368.521 152.784,368.343 C150.982,354.511 161.406,340.729 166.594,328.579 C169.342,322.141 157.01,324.077 154.762,327.875 C145.84,342.949 139.489,359.263 132.14,375.115 C136.364,374.522 140.586,373.929 144.809,373.337 C142.334,351.987 157.552,334.954 163.623,315.577 C164.353,313.243 162.769,311.454 160.51,311.062 C157.163,310.483 153.71,312.233 151.737,314.87 C138.438,332.638 123.783,352.703 120.11,375.116 C118.836,382.891 130.606,379.227 132.637,374.577 C139.379,359.149 146.122,343.712 153.999,328.821 C157.941,321.368 145.766,322.317 142.747,326.872 C129.652,346.63 117.432,368.365 114.97,392.349 C114.306,398.813 126.162,394.476 127.575,390.58 C132.67,376.523 139.292,363.127 145.572,349.58 C146.963,346.581 143.299,344.911 140.965,345.01 C137.608,345.153 134.58,347.09 133.174,350.114 C127.072,363.23 120.259,375.999 114.156,389.115 C118.368,388.524 122.58,387.933 126.792,387.342 C126.094,380.756 127.789,374.849 129.598,368.58 C131.469,362.094 121.293,363.967 118.734,366.698 C113.542,372.238 104.84,385.584 111.875,392.517 C115.891,396.476 123.391,394.32 127.76,392.435 C132.954,390.195 137.282,386.456 141.725,383.056 C138.542,382.883 135.359,382.71 132.176,382.536 C133.864,388.386 132.769,394.458 131.919,400.36 C131.054,406.381 142.378,402.857 144.013,399.823 C151.166,386.549 158.281,373.253 164.643,359.577 C167.491,353.458 156.037,355.047 153.703,357.681 C144.901,367.618 130.243,379.746 130.886,394.368 C131.105,399.358 138.171,397.682 140.748,396.077 C150.238,390.163 157.596,381.264 163.95,372.206 C170.491,362.882 176.173,352.436 179.685,341.575 C181.755,335.175 171.146,336.721 168.671,339.667 C156.874,353.715 146.655,368.922 140.042,386.119 C144.264,385.937 148.484,385.756 152.706,385.574 C156.798,371.882 164.508,359.555 167.723,345.573 C169.078,339.678 161.051,340.51 157.967,342.584 C140.498,354.328 134.44,377.407 115.953,387.571 C111.138,390.217 112.393,395.669 117.737,395.819 C122.082,395.942 126.382,396.701 130.735,396.824 C134.971,396.943 142.619,390.874 136.931,387.375 C132.944,384.922 128.568,384.876 124.013,384.866 C120.481,384.858 111.266,391.882 117.813,394.321 C124.267,396.725 130.872,397.749 137.732,396.833 C140.925,396.405 144.648,394.949 145.764,391.571 C146.832,388.337 143.701,386.861 141.015,386.86 C139.348,386.86 137.682,386.859 136.015,386.859 C129.585,386.859 123.643,396.834 132.732,396.834 C134.399,396.834 136.065,396.833 137.732,396.833 C138.827,393.509 139.92,390.185 141.015,386.86 C136.114,387.518 131.582,387.1 126.934,385.372 C124.868,388.524 122.801,391.676 120.734,394.827 C123.518,394.831 125.423,394.848 127.816,396.318 C129.881,393.169 131.947,390.018 134.012,386.869 C129.666,386.75 125.365,385.993 121.01,385.874 C121.605,388.623 122.199,391.373 122.794,394.122 C132.258,388.912 139.119,380.637 145.289,371.961 C151.08,363.818 156.324,354.802 164.78,349.109 C161.528,348.113 158.276,347.116 155.024,346.12 C151.821,360.1 144.122,372.428 140.041,386.119 C137.865,393.423 150.793,390.557 152.705,385.574 C158.555,370.324 167.611,356.505 178.076,344.026 C174.405,343.389 170.733,342.754 167.062,342.118 C164.116,351.252 159.499,359.707 154.282,367.727 C148.912,375.983 142.457,384.339 134,389.616 C137.287,390.185 140.575,390.755 143.862,391.325 C143.351,379.915 156.178,369.774 163.045,362.012 C159.399,361.38 155.751,360.748 152.105,360.116 C146.144,372.951 139.437,385.412 132.735,397.87 C136.766,397.69 140.798,397.512 144.829,397.333 C145.817,390.421 146.544,383.965 144.572,377.157 C143.508,373.479 137.024,375.103 135.023,376.637 C132.713,378.408 125.192,385.796 122.637,384.92 C119.526,383.852 126.788,372.304 128.013,370.995 C124.391,370.368 120.77,369.741 117.149,369.113 C115.133,376.119 113.17,382.995 113.955,390.351 C114.691,397.242 124.84,392.348 126.591,388.578 C132.681,375.463 139.484,362.694 145.573,349.579 C141.44,349.757 137.307,349.934 133.175,350.112 C126.905,363.663 120.279,377.063 115.172,391.112 C119.374,390.523 123.575,389.933 127.777,389.343 C130.073,367.208 141.925,347.005 154,328.82 C150.249,328.171 146.499,327.52 142.748,326.871 C134.42,342.579 127.24,358.84 120.11,375.115 C124.286,374.935 128.462,374.756 132.637,374.576 C136.203,352.955 150.187,333.971 163.01,316.822 C159.048,316.586 155.086,316.35 151.123,316.115 C144.775,336.411 129.324,353.925 131.937,376.355 C132.739,383.243 142.838,378.394 144.606,374.577 C151.56,359.558 157.539,344.099 165.984,329.817 C162.04,329.583 158.096,329.347 154.152,329.113 C148.597,342.142 138.015,356.472 139.962,371.349 C140.78,377.602 149.672,373.877 151.974,370.815 C164.305,354.407 171.586,334.618 184.989,318.984 C181.386,318.36 177.784,317.736 174.18,317.112 C170.838,324.839 167.301,332.742 169.042,341.33 C170.201,347.05 178.661,344.434 180.904,340.804 C194.082,319.478 202.431,295.22 210.421,271.586 C211.182,269.337 209.555,267.587 207.409,267.216 C204.244,266.668 200.732,268.309 198.918,270.901 C186.357,288.844 178.501,309.404 169.237,329.11 C167.843,332.075 171.501,333.731 173.797,333.633 C177.138,333.492 180.095,331.57 181.509,328.582 C188.903,312.961 199.017,298.467 203.465,281.584 C205.106,275.355 195.341,276.798 192.833,279.742 C179.282,295.654 170.139,314.4 158.926,331.902 C162.754,332.13 166.584,332.357 170.412,332.586 C177.792,317.065 188.343,303.32 195.368,287.588 C196.339,285.415 194.338,283.595 192.383,283.256 C189.699,282.791 186.84,283.947 184.904,285.776 C179.274,291.093 175.077,297.649 170.834,304.069 C167.11,309.704 162.986,316.885 156.713,320.021 C159.223,321.211 161.733,322.403 164.242,323.593 C168.418,301.001 184.369,283.987 195.681,264.766 C197.099,262.355 196.226,259.843 193.327,259.341 C190.1,258.782 187.019,260.487 185.064,262.926 C168.096,284.101 157.509,309.826 138.959,329.801 C142.404,330.398 145.85,330.994 149.295,331.591 C152.705,311.301 165.986,292.651 179.668,277.836 C176.315,277.255 172.963,276.674 169.611,276.094 C162.925,293.51 153.525,310.193 142.086,324.93 C145.865,324.762 149.646,324.594 153.426,324.426 C153.639,316.272 157.739,308.726 162.038,302.012 C166.605,294.879 172.244,288.307 178.747,282.873 C175.333,282.281 171.918,281.689 168.504,281.099 C163.235,295.307 154.289,307.7 147.072,320.928 C150.798,321.15 154.523,321.371 158.25,321.593 C165.395,305.415 174.288,289.572 186.761,276.879 C183.336,276.285 179.911,275.692 176.487,275.1 C171.953,286.827 162.933,296.434 161.337,309.262 C160.644,314.83 171.167,311.762 172.649,308.76 C182.88,288.024 189.913,265.625 203.612,246.753 C199.931,246.533 196.25,246.315 192.568,246.096 C187.261,264.319 175.741,280.174 172.593,299.095 C171.435,306.06 182.544,303.241 184.156,298.597 C191.21,278.251 199.871,258.537 207.981,238.605 C204.244,238.766 200.505,238.926 196.768,239.087 C191.138,253.546 185.538,268.527 185.417,284.243 C185.372,290.164 196.104,286.634 197.144,282.597 C202.121,263.267 207.917,243.341 219.285,226.696 C215.834,226.49 212.383,226.285 208.931,226.08 C205.534,243.796 198.395,260.491 194.585,278.095 C198.444,277.929 202.304,277.763 206.163,277.597 C210.069,258.074 217.54,239.444 223.832,220.612 C225.862,214.533 215.442,216.891 213.451,219.994 C203.69,235.2 196.154,251.921 190.598,269.095 C194.449,268.93 198.298,268.764 202.149,268.599 C207.331,250.562 213.522,233.32 222.355,216.71 C225.786,210.257 214.806,210.554 212.392,214.983 C204.135,230.137 194.125,244.899 190.713,262.09 C189.398,268.721 200.781,266.406 202.033,261.602 C206.301,245.217 216.562,231.446 224.498,216.734 C228.103,210.05 216.906,210.628 214.248,214.959 C212.277,218.169 210.892,221.528 209.694,225.091 C208.753,227.891 211.515,229.379 213.914,229.279 C216.928,229.151 219.847,227.39 221.052,224.603 C226.447,212.128 235.607,201.264 238.041,187.603 C234.201,188.142 230.361,188.681 226.521,189.22 C226.208,199.911 217.967,214.07 207.768,218.15 C210.008,219.677 212.249,221.206 214.49,222.734 C216.493,218.734 218.497,214.735 220.5,210.736 C223.896,203.957 212.825,204.526 210.246,208.959 C205.576,216.986 202.288,225.716 196.35,232.978 C199.941,232.819 203.531,232.659 207.121,232.499 C208.198,224.124 211.725,216.221 215.465,208.729 C211.886,208.516 208.306,208.303 204.727,208.09 C201.436,219.684 196.752,230.793 192.612,242.095 C196.453,241.93 200.293,241.764 204.133,241.599 C207.094,233.104 208.076,224.087 211.066,215.602 C208.215,217.136 205.365,218.671 202.514,220.206 C215.291,223.718 221.38,212.547 227.459,203.728 C224.067,203.141 220.677,202.553 217.285,201.966 C213.99,207.331 210.233,212.372 207.324,217.973 C203.915,224.536 215.053,224.276 217.42,219.721 C220.433,213.927 224.321,208.802 228.386,203.715 C229.657,202.124 229.192,199.804 227.344,198.95 C224.821,197.784 221.029,198.902 219.23,200.927 C210.475,210.777 204.45,222.414 198.298,233.968 C194.679,240.767 205.646,239.626 208.446,235.726 C215.774,225.519 223.496,215.663 232.277,206.657 C229.4,205.781 226.522,204.905 223.645,204.029 C220.151,211.102 216.399,218.041 216.067,226.092 C215.879,230.643 223.546,228.599 225.201,226.622 C234.648,215.336 248.282,206.245 245.623,189.616 C244.821,184.601 236.116,187.163 235.286,191.066 C234.299,195.712 234.147,200.335 234.162,205.069 C237.636,204.255 241.108,203.44 244.582,202.626 C243.515,196.306 242.565,189.966 241.497,183.646 C240.559,178.093 231.85,181.911 231.247,186.05 C230.28,192.694 230.186,199.374 230.136,206.076 C233.627,205.257 237.117,204.438 240.609,203.619 C239.707,196.304 239.736,188.928 238.474,181.651 C237.57,176.438 228.172,179.583 228.271,184.044 C228.441,191.674 228.589,199.304 228.744,206.934 C228.838,211.623 238.05,208.849 238.002,204.762 C237.902,196.118 237.803,187.476 237.703,178.832 C237.653,174.436 229.086,177.059 229.043,180.862 L229.043,180.862 Z" id="Shape"></path>
                    <path d="M147.942,180.183 C143.139,184.69 138.424,190.565 139.571,197.594 C140.569,203.711 144.272,208.836 144.907,215.128 C147.182,213.323 149.458,211.52 151.733,209.715 C143.331,210.662 135.538,212.398 128.229,216.834 C131.039,218.143 133.849,219.452 136.66,220.762 C139.831,214.61 142.946,208.442 144.266,201.592 C145.551,194.933 135.253,197.188 133.058,200.925 C130.621,205.072 129.518,209.752 127.522,214.098 C125.44,218.63 132.738,218.666 135.029,217.661 C138.329,216.211 141.981,216.141 145.425,215.165 C143.661,213.423 141.896,211.681 140.131,209.938 C137.259,213.938 132.712,215.793 128.372,217.786 C123.566,219.993 119.135,222.477 115.044,225.841 C113.521,227.093 112.647,229.73 114.249,231.267 C116.327,233.261 120.44,232.417 122.492,230.833 C126.619,227.647 130.395,224.042 134.519,220.859 C140.236,216.448 135.638,211.692 129.715,214.026 C118.026,218.631 110.528,228.133 102.004,236.822 C100.268,238.593 99.39,241.664 102.186,242.956 C105.078,244.292 108.543,242.81 110.743,240.871 C118.35,234.163 125.55,227.048 132.686,219.845 C129.508,218.878 126.332,217.91 123.155,216.943 C118.541,224.163 110.529,229.129 103.97,234.416 C96.34,240.565 88.774,247.113 84.676,256.219 C83.076,259.773 82.507,264.309 83.651,268.068 C84.558,271.047 86.982,273.006 88.064,275.845 C89.524,279.678 85.227,284.84 83.266,287.66 C80.334,291.879 77.1,295.89 73.89,299.898 C77.729,299.341 81.569,298.785 85.409,298.228 C85.112,298.902 85.128,298.688 85.457,297.585 C86.916,291.054 77.565,293.226 74.84,295.746 C71.701,298.648 67.98,300.827 64.829,303.741 C68.377,304.355 71.925,304.97 75.472,305.584 C77.919,294.583 83.877,284.763 88.912,274.806 C85.22,274.167 81.528,273.527 77.836,272.888 C73.722,281.09 69.423,289.12 67.28,298.109 C65.58,305.242 77.85,302.567 79.468,297.586 C83.551,285.006 92.191,274.67 97.4,262.588 C98.345,260.396 96.387,258.58 94.399,258.235 C91.089,257.662 87.949,259.412 85.94,261.906 C80.228,268.994 75.781,277.312 73.374,286.105 C71.415,293.258 83.457,290.045 85.376,285.589 C88.316,278.765 91.193,271.952 92.437,264.586 C93.527,258.125 84.754,260.077 81.858,262.753 C73.757,270.238 71.849,281.19 68.236,291.11 C65.809,297.775 78.68,295.7 80.515,290.583 C83.329,282.731 84.528,272.87 90.893,266.94 C87.301,266.731 83.709,266.522 80.118,266.314 C78.991,273.209 76.088,279.72 73.375,286.104 C77.376,285.932 81.376,285.76 85.377,285.588 C87.538,277.533 91.575,270.248 96.811,263.787 C92.992,263.559 89.171,263.332 85.351,263.105 C80.086,275.21 71.438,285.445 67.283,298.107 C71.346,297.933 75.408,297.757 79.471,297.584 C81.438,289.457 85.167,282.22 88.915,274.805 C92.574,267.565 80.373,267.849 77.839,272.887 C72.447,283.606 65.883,294.273 63.279,306.109 C61.84,312.649 71.179,310.497 73.922,307.952 C77.053,305.047 80.769,302.864 83.911,299.947 C80.372,299.335 76.833,298.721 73.294,298.108 C72.848,300.126 72.468,301.506 73.342,303.465 C75.485,308.271 82.747,304.444 84.861,301.795 C90.538,294.684 98.051,286.858 100.188,277.776 C101.139,273.734 100.382,270.505 98.039,267.194 C95.835,264.08 94.962,261.539 96.023,257.627 C98.288,249.281 107.174,242.992 113.511,237.824 C120.594,232.049 128.519,226.512 133.596,218.75 C137.651,212.549 127.081,212.86 124.065,215.848 C116.854,222.99 109.624,230.108 102.008,236.822 C104.921,238.172 107.833,239.521 110.746,240.871 C117.617,233.866 123.609,225.381 133.035,221.667 C131.433,219.39 129.832,217.112 128.231,214.834 C124.122,218.038 120.365,221.659 116.258,224.86 C118.741,226.524 121.224,228.188 123.706,229.852 C127.795,226.457 133.134,224.743 137.809,222.338 C142.902,219.721 147.239,216.41 150.62,211.754 C153.368,207.97 148.573,205.623 145.326,206.527 C140.746,207.8 136.145,208.111 131.722,210.031 C134.225,211.219 136.727,212.406 139.229,213.594 C140.872,210.073 141.707,206.107 143.693,202.767 C139.957,202.544 136.221,202.323 132.485,202.1 C131.212,208.494 128.333,214.268 125.517,220.098 C122.916,225.485 132.406,224.205 134.522,222.858 C139.315,219.807 144.96,218.971 150.424,217.78 C152.369,217.356 156.352,215.162 155.844,212.564 C154.666,206.542 152.205,202.112 149.073,196.965 C145.69,191.41 148.856,186.087 151.298,180.763 C152.197,178.794 148.643,179.525 147.942,180.183 L147.942,180.183 Z" id="Shape"></path>
                    <path d="M74.746,300.959 C71.724,308.93 60.614,307.501 53.731,307.723 C50.786,307.818 47.144,309.915 46.918,313.125 C46.775,315.146 46.73,317.154 46.687,319.18 C46.588,323.628 53.263,321.948 55.331,320.677 C61.676,316.781 66.74,311.438 71.429,305.721 C72.734,304.131 72.223,301.771 70.378,300.918 C68.118,299.874 65.346,300.704 63.368,301.966 C60.084,304.061 56.625,305.855 53.328,307.928 C55.754,309.554 58.18,311.18 60.605,312.807 C62.423,310.995 64.31,309.097 65.102,306.6 C66.944,300.792 57.357,302.168 55.106,304.868 C51.027,309.759 47.791,314.82 46.566,321.15 C45.558,326.357 45.921,331.71 44.837,336.904 C43.339,344.081 39.426,351.258 36.126,357.741 C32.291,365.274 28.037,372.58 23.775,379.877 C27.778,379.699 31.78,379.522 35.782,379.344 C36.158,366.326 44.008,354.156 49.12,342.438 C50.733,338.74 52.857,334.828 53.345,330.776 C54.112,324.393 44.286,327.235 41.911,329.779 C36.642,335.425 45.185,338.162 49.588,334.925 C49.244,335.1 48.901,335.276 48.558,335.45 C46.972,335.68 45.387,335.91 43.802,336.139 C43.841,336.151 43.881,336.161 43.921,336.173 C42.927,335.494 41.933,334.817 40.939,334.139 C40.242,331.716 40.62,333.127 40.011,334.833 C39.384,336.594 38.64,338.316 37.913,340.038 C36.519,343.345 35.043,346.616 33.64,349.919 C29.107,360.586 23.293,370.441 22.966,382.349 C22.796,388.517 33.198,384.863 34.973,381.816 C42.747,368.467 50.163,355.055 55.654,340.579 C57.638,335.348 57.807,329.639 58.068,324.122 C58.371,317.697 60.503,312.743 64.541,307.741 C60.91,307.525 57.278,307.309 53.647,307.093 C53.435,307.807 52.638,308.378 52.144,308.886 C46.902,314.271 55.267,316.462 59.421,313.765 C62.679,311.649 66.109,309.822 69.381,307.727 C66.694,306.475 64.007,305.223 61.32,303.972 C57.868,308.198 53.985,312.012 49.418,315.016 C52.299,315.515 55.181,316.014 58.062,316.513 C58.018,314.524 57.975,312.552 57.831,310.568 C56.027,312.302 54.225,314.039 52.422,315.773 C62.93,314.002 79.006,314.16 80.088,300.21 C80.303,297.417 75.357,299.347 74.746,300.959 L74.746,300.959 Z" id="Shape"></path>
                    <path d="M403.338,296.339 C404.104,295.398 404.981,294.278 405.943,293.519 C406.414,293.148 405.162,293.431 405.486,293.567 C407.124,294.255 407.686,296.451 408.25,297.922 C409.752,301.848 410.532,306.149 411.278,310.276 C415.263,308.952 419.248,307.628 423.232,306.303 C421.237,300.777 418.378,295.049 413.751,291.257 C410.131,288.291 400.069,292.047 402.32,297.473 C404.884,303.65 409.715,311.657 417.341,310.981 C419.187,310.817 421.906,309.743 422.39,307.673 C423.199,304.206 421.321,302.39 419.144,299.904 C417.107,297.578 415.634,295.057 414.425,292.218 C410.614,294.29 406.805,296.363 402.994,298.434 C407.144,301.774 409.343,306.645 411.513,311.388 C413.934,316.683 424.707,311.707 423.232,306.302 C421.501,299.956 418.87,294.039 414.148,289.346 C408.162,283.398 399.826,289.331 396.729,295.194 C394.327,299.742 401.465,298.645 403.338,296.339 L403.338,296.339 Z" id="Shape"></path>
                    <path d="M214.976,348.465 C205.872,354.289 199.163,362.461 193.306,371.487 C192.756,372.336 193.084,373.524 194.223,373.599 C196.911,373.779 199.505,374.437 202.183,374.661 C201.867,373.932 201.551,373.204 201.235,372.474 C197.631,378.818 190.893,381.979 187.889,388.953 C187.486,389.89 188.324,390.56 189.126,390.748 C198.998,393.041 189.934,402.182 187.758,407.001 C187.175,408.293 188.376,409.432 189.559,409.613 C190.68,409.785 191.342,411.308 192.465,411.717 C193.839,412.218 195.313,411.729 196.363,410.767 C199.612,407.795 196.625,404.579 193.187,404.078 C193.788,404.949 194.387,405.819 194.988,406.69 C195.839,404.767 195.926,402.677 196.855,400.744 C197.785,398.809 198.772,396.626 198.909,394.45 C199.204,389.743 195.753,387.858 191.62,386.943 C192.032,387.542 192.445,388.14 192.857,388.738 C195.568,382.248 202.168,379.228 205.511,373.217 C206.011,372.318 205.794,371.123 204.563,371.03 C201.675,370.813 198.863,370.201 195.961,370.057 C196.454,370.773 196.946,371.488 197.44,372.203 C202.508,364.067 208.636,355.404 215.924,349.1 C216.667,348.459 215.507,348.126 214.976,348.465 L214.976,348.465 Z" id="Shape"></path>
                    <path d="M213.442,349.25 C214.81,353.032 218.642,355.837 221.31,358.732 C224.983,362.718 227.612,366.902 228.014,372.399 C228.995,371.62 229.978,370.841 230.96,370.062 C228.977,369.973 226.998,369.919 225.013,369.903 C223.67,369.892 220.634,371.734 222.177,373.311 C226.158,377.378 230.482,381.689 231.587,387.499 C232.746,386.58 233.906,385.66 235.066,384.74 C232.048,384.844 229.113,385.466 226.103,385.627 C224.734,385.699 221.609,387.182 222.548,389.071 C224.155,392.302 225.782,395.522 227.34,398.779 C228.361,400.914 229.346,403.065 230.267,405.245 C230.594,406.019 231.059,406.896 231.216,407.727 C231.631,409.924 231.073,408.635 232.27,407.564 C233.226,407.148 234.183,406.733 235.14,406.318 C235.95,406.271 234.382,406.208 234.442,406.215 C233.185,406.054 231.186,406.852 231.173,408.361 C231.151,411.131 234.178,411.247 236.073,409.982 C238.451,408.397 237.511,406.211 236.674,404.054 C234.339,398.044 231.132,392.35 228.196,386.619 C227.01,387.767 225.826,388.916 224.641,390.063 C227.682,389.875 230.643,389.194 233.678,388.95 C235.293,388.82 237.545,387.605 237.051,385.682 C235.43,379.38 231.088,374.828 226.568,370.378 C225.623,371.514 224.677,372.65 223.732,373.786 C225.753,373.769 227.766,373.715 229.785,373.627 C230.761,373.585 233.014,372.642 232.731,371.29 C231.725,366.468 229.405,362.441 226.282,358.676 C223.196,354.953 219.272,350.582 215.042,348.186 C214.464,347.86 213.171,348.502 213.442,349.25 L213.442,349.25 Z" id="Shape"></path>
                    <path d="M182.879,371.374 C173.272,376.923 164.687,384.417 158.169,393.465 C157.527,394.356 157.975,395.639 159.147,395.718 C161.833,395.899 164.424,396.553 167.099,396.79 C166.76,396.01 166.422,395.229 166.083,394.45 C163.076,398.481 160.59,403.138 157.152,406.817 C156.106,407.938 155.917,409.893 157.878,410.127 C160.829,410.48 160.266,413.917 163.766,413.691 C165.097,413.605 166.696,412.741 166.815,411.274 C167.078,408.04 163.677,405.805 160.869,405.566 C161.266,406.481 161.664,407.396 162.061,408.311 C164.524,403.784 167.661,399.433 170.664,395.243 C171.328,394.315 170.866,392.988 169.648,392.903 C166.745,392.7 163.917,392.082 161.002,391.94 C161.527,392.703 162.053,393.465 162.578,394.228 C167.849,385.329 176.8,379.305 184.059,372.165 C184.952,371.287 183.539,370.993 182.879,371.374 L182.879,371.374 Z" id="Shape"></path>
                    <path d="M180.317,375.305 C180.796,376.626 180.89,377.55 181.739,378.787 C182.649,380.115 183.806,381.176 184.999,382.246 C186.3,383.412 187.706,384.451 189.007,385.616 C190.296,386.769 191.065,387.504 192.855,387.423 C193.974,387.372 195.384,386.595 195.461,385.357 C195.549,383.944 194.588,383.545 193.493,382.884 C192.095,382.039 190.765,381.128 189.456,380.153 C188.235,379.245 187.086,378.259 185.919,377.285 C184.83,376.376 183.161,375.351 182.314,374.22 C181.776,373.502 180.002,374.439 180.317,375.305 L180.317,375.305 Z" id="Shape"></path>
                    <path d="M188.03,397.429 C188.891,398.765 189.512,400.24 189.786,401.807 C190.076,403.467 189.449,406.169 191.316,406.883 C192.085,407.177 192.883,406.87 193.477,406.357 C195.247,404.825 194.529,402.427 193.819,400.467 C193.18,398.707 192.067,397.159 190.568,396.049 C189.813,395.491 187.308,396.309 188.03,397.429 L188.03,397.429 Z" id="Shape"></path>
                    <path d="M0.897,384.314 C5.644,387.196 11.655,387.368 17.059,387.563 C24.547,387.834 32.067,387.084 39.516,386.418 C46.297,385.812 53.174,385.408 59.983,385.467 C63.339,385.496 66.7,385.967 69.98,386.655 C72.74,387.234 74.987,388.432 77.845,388.452 C78.793,388.458 81.152,387.262 80.416,385.96 C78.228,382.092 71.327,382.189 67.42,381.956 C60.348,381.535 53.13,382.266 46.114,383.094 C38.526,383.99 30.944,384.852 23.305,385.178 C15.924,385.492 8.964,384.41 1.707,383.335 C1.251,383.267 0.217,383.902 0.897,384.314 L0.897,384.314 Z" id="Shape"></path>
                    <path d="M12.893,385.579 C16.861,386.729 20.605,387.259 24.728,386.819 C27.774,386.496 32.023,385.872 33.79,383.091 C34.176,382.485 33.934,381.733 33.162,381.644 C30.454,381.333 27.922,382.825 25.288,383.386 C21.546,384.185 17.429,384.24 13.62,384.1 C12.846,384.072 11.76,385.25 12.893,385.579 L12.893,385.579 Z" id="Shape"></path>
                    <path d="M97.948,357.438 C93.504,360.834 89.341,364.217 85.706,368.506 C81.818,373.094 79.255,378.373 76.143,383.459 C75.909,383.844 75.654,384.465 75.918,384.911 C76.65,386.14 76.721,387.471 77.134,388.817 C77.713,390.709 81.303,389.123 81.629,387.748 C82.08,385.845 80.791,383.984 81.158,382.33 C81.881,379.076 84.052,375.975 85.833,373.191 C89.375,367.658 93.906,362.322 98.965,358.12 C99.744,357.474 98.524,356.998 97.948,357.438 L97.948,357.438 Z" id="Shape"></path>
                    <path d="M94.311,359.095 C94.188,364.33 97.302,368.956 99.788,373.357 C101.206,375.868 102.557,378.401 103.749,381.027 C105.109,384.02 105.296,387.708 107.048,390.422 C107.659,391.368 109.423,390.763 109.71,389.789 C111.233,384.615 107.241,378.63 104.724,374.313 C101.675,369.085 98.414,364.153 96.396,358.403 C96.072,357.483 94.33,358.318 94.311,359.095 L94.311,359.095 Z" id="Shape"></path>
                    <path d="M422.273,349.893 C420.139,356.296 419.233,363.096 418.454,369.779 C418.053,373.218 417.831,376.683 417.638,380.139 C417.513,382.398 416.89,384.703 418.243,386.6 C418.741,387.297 420.222,386.607 420.53,386.046 C422.721,382.054 421.485,375.041 421.786,370.513 C422.251,363.532 423.182,356.672 424.474,349.799 C424.722,348.484 422.57,349.002 422.273,349.893 L422.273,349.893 Z" id="Shape"></path>
                    <path d="M422.418,351.484 C427.026,356.834 430.326,362.306 432.65,368.99 C433.736,372.113 434.531,375.337 435.264,378.557 C435.964,381.631 435.899,385.944 437.634,388.6 C438.402,389.775 440.847,389.108 441.122,387.771 C441.696,384.998 440.68,382.145 440.08,379.406 C439.181,375.294 437.989,371.25 436.572,367.288 C434.236,360.755 430.69,353.245 424.145,350.088 C423.434,349.743 421.678,350.625 422.418,351.484 L422.418,351.484 Z" id="Shape"></path>
                    <path d="M410.196,362.632 C411.997,363.994 413.763,365.433 415.258,367.135 C416.554,368.611 417.536,371.72 419.677,371.909 C420.415,371.974 421.2,371.701 421.628,371.062 C422.99,369.029 420.488,366.621 419.112,365.192 C417.215,363.223 414.909,361.775 412.328,360.91 C411.559,360.652 409.027,361.749 410.196,362.632 L410.196,362.632 Z" id="Shape"></path>
                    <path d="M409.234,362.649 C405.813,367.104 403.284,372.192 400.887,377.253 C398.68,381.916 394.189,389.005 394.752,394.226 C394.928,395.855 397.205,394.798 397.789,394.091 C401.205,389.959 402.388,383.644 404.398,378.69 C406.591,373.286 409.39,368.164 411.636,362.792 C412.224,361.387 409.703,362.039 409.234,362.649 L409.234,362.649 Z" id="Shape"></path>
                    <path d="M516.808,398.51 C517.271,393.428 516.801,389.219 518.84,384.288 C520.851,379.424 524.332,375.1 528.346,371.76 C526.91,371.975 525.474,372.19 524.037,372.405 C528.146,376.88 531.001,381.772 532.824,387.561 C533.845,390.803 534.227,394.198 534.46,397.573 C534.652,400.358 534.111,403.168 535.385,405.71 C536.083,407.105 538.602,406.262 539.18,405.159 C542.037,399.711 540.305,392.296 538.846,386.575 C537.171,380.008 533.475,374.048 528.709,369.288 C527.562,368.142 525.369,368.997 524.4,369.933 C520.054,374.125 516.573,379.012 514.052,384.496 C512.097,388.75 510.157,396.012 514.147,399.666 C514.996,400.441 516.712,399.566 516.808,398.51 L516.808,398.51 Z" id="Shape"></path>
                    <path d="M531.116,376.686 C534.061,379.344 537.092,381.841 539.876,384.679 C541.489,386.323 542.855,388.162 544.007,390.152 C545.079,392.004 545.386,393.785 547.265,394.934 C548.177,395.492 549.566,394.619 549.926,393.78 C551.581,389.925 547.103,385.341 544.631,382.76 C541.497,379.488 537.436,376.851 533.393,374.846 C532.496,374.403 530.012,375.689 531.116,376.686 L531.116,376.686 Z" id="Shape"></path>
                    <path d="M455.601,395.793 C457.645,385.354 465.765,378.633 471.488,370.212 C470.008,370.426 468.527,370.641 467.048,370.856 C469.048,375.288 472.046,379.239 474.677,383.309 C477.263,387.311 479.081,392.038 482.116,395.686 C482.874,396.596 484.795,395.5 484.846,394.5 C485.311,385.422 476.109,376.227 471.7,368.836 C470.743,367.231 468.07,368.183 467.26,369.48 C462.156,377.65 451.868,385.536 453.107,396.143 C453.25,397.366 455.418,396.721 455.601,395.793 L455.601,395.793 Z" id="Shape"></path>
                    <path d="M243.188,408.987 C248.974,398.8 252.934,387.362 260.844,378.528 C260.024,378.804 259.203,379.081 258.383,379.356 C259.193,379.444 260.006,379.486 260.82,379.529 C260.291,379.278 259.761,379.026 259.233,378.776 C266.041,391.364 275.991,402.327 280.683,416.014 C282.034,414.933 283.383,413.852 284.734,412.772 C278.56,411.796 273.364,414.42 268.55,418.058 C267.299,419.002 267.864,420.231 269.387,419.986 C273.621,419.305 277.7,416.579 282.013,416.921 C283.462,417.036 287.051,415.818 286.064,413.679 C280.004,400.552 271.337,389.007 263.514,376.917 C263.146,376.349 262.608,376.13 261.927,376.164 C256.201,376.455 253.787,382.35 251.187,386.91 C247.204,393.895 244.545,401.489 241.471,408.886 C241.083,409.819 242.867,409.551 243.188,408.987 L243.188,408.987 Z" id="Shape"></path>
                    <path d="M244.613,419.592 C251.152,421.959 259.519,423.163 266.384,421.717 C267.201,421.545 268.251,420.274 266.963,419.947 C264.105,419.223 261.041,419.487 258.112,419.425 C254.007,419.337 249.898,419.036 245.908,418.03 C245.154,417.841 243.502,419.191 244.613,419.592 L244.613,419.592 Z" id="Shape"></path>
                    <path d="M50.269,416.001 C54.545,408.35 56.869,399.416 63.567,393.398 C62.639,393.444 61.712,393.49 60.784,393.535 C62.573,400.523 66.438,406.748 68.509,413.655 C69.125,412.92 69.741,412.184 70.358,411.449 C64.07,413.338 56.652,412.404 50.797,415.516 C49.37,416.275 48.455,418.458 50.851,418.436 C57.16,418.379 64.382,416.126 70.391,414.242 C71.306,413.955 72.613,413.201 72.24,412.036 C70.049,405.185 66.435,398.908 63.965,392.156 C63.553,391.032 61.739,391.772 61.182,392.293 C54.296,398.721 51.844,407.434 48.383,415.889 C47.959,416.917 49.918,416.627 50.269,416.001 L50.269,416.001 Z" id="Shape"></path>
                    <path d="M78.227,404.611 C79.667,406.376 80.795,408.358 81.877,410.356 C82.928,412.295 83.563,414.485 85.483,415.719 C86.254,416.214 87.584,415.371 87.658,414.544 C87.868,412.243 86.147,410.08 84.966,408.226 C83.733,406.289 82.24,404.6 80.52,403.081 C79.657,402.319 77.336,403.52 78.227,404.611 L78.227,404.611 Z" id="Shape"></path>
                    <path d="M394.941,394.802 C400.921,402.566 417.429,402.948 425.051,397.495 C425.891,396.894 425.844,395.896 424.697,395.86 C420.445,395.723 416.117,397.318 411.813,397.478 C406.662,397.669 401.716,396.287 397.805,392.889 C396.718,391.945 393.863,393.403 394.941,394.802 L394.941,394.802 Z" id="Shape"></path>
                    <path d="M419.63,393.979 C423.656,394.447 429.007,395.62 432.797,393.823 C433.298,393.585 434.502,392.578 433.694,391.965 C432.172,390.81 430.15,391.065 428.324,391.125 C425.774,391.211 423.287,391.423 420.753,391.692 C419.759,391.797 417.701,393.754 419.63,393.979 L419.63,393.979 Z" id="Shape"></path>
                    <path d="M449.532,399.211 C451.725,404.496 460.491,404.656 465.22,404.753 C469.131,404.833 473.078,404.351 476.948,403.831 C479.92,403.433 483.499,403.234 486.012,401.458 C486.409,401.178 487.006,400.278 486.225,400.011 C484.505,399.423 482.844,399.866 481.082,400.138 C477.454,400.697 473.838,401.231 470.178,401.528 C463.199,402.093 457.182,401.489 450.979,398.252 C450.471,397.987 449.247,398.527 449.532,399.211 L449.532,399.211 Z" id="Shape"></path>
                    <path d="M505.958,401.46 C508.395,407.431 514.81,408.5 520.664,408.84 C526.222,409.163 535.481,409.24 540.101,405.541 C540.787,404.992 541.104,404.123 540.054,403.81 C535.839,402.549 529.818,404.753 525.485,405.013 C520.275,405.326 512.013,405.289 508.791,400.232 C508.065,399.096 505.424,400.151 505.958,401.46 L505.958,401.46 Z" id="Shape"></path>
                    <path d="M348.659,431.544 C350.583,418.49 352.56,401.02 364.469,392.895 C363.429,392.838 362.389,392.782 361.349,392.725 C367.05,405.344 377.563,416.104 379.028,430.397 C380.006,429.622 380.982,428.848 381.959,428.073 C373.54,428.022 363.908,427.926 355.88,430.706 C354.854,431.06 353.795,432.979 355.496,433.186 C363.646,434.177 372.547,431.81 380.791,431.62 C381.865,431.595 383.869,430.651 383.722,429.296 C382.174,415.147 372.33,402.944 365.401,390.968 C364.765,389.87 363.158,390.203 362.281,390.798 C350.192,398.995 344.193,418.099 346.091,432.149 C346.277,433.549 348.508,432.571 348.659,431.544 L348.659,431.544 Z" id="Shape"></path>
                    <path d="M340.735,390.234 C330.344,396.004 329.021,411.913 328.87,422.434 C328.847,424.035 331.122,423.826 332.059,423.427 C333.258,422.939 334.498,422.679 335.78,422.649 C337.382,422.504 340.49,419.288 337.534,419.078 C335.009,418.898 333.015,419.252 330.688,420.266 C331.751,420.597 332.815,420.929 333.877,421.259 C333.889,410.535 335.465,399.539 342.447,391.032 C343.379,389.898 341.301,389.919 340.735,390.234 L340.735,390.234 Z" id="Shape"></path>
                    <path d="M343.725,392.561 C344.291,393.854 344.747,395.184 345.18,396.526 C345.69,398.11 345.937,399.863 347.484,400.719 C348.221,401.127 349.338,400.5 349.619,399.792 C350.197,398.338 349.533,396.913 348.988,395.522 C348.403,394.027 347.776,392.548 347.022,391.13 C346.271,389.717 343.08,391.09 343.725,392.561 L343.725,392.561 Z" id="Shape"></path>
                    <path d="M239.592,286.711 C235.216,294.055 228.348,299.697 222.022,305.302 C214.895,311.616 207.236,317.304 200.127,323.671 C193.17,329.902 186.396,336.336 179.773,342.922 C176.376,346.302 173.05,349.754 169.757,353.235 C167.198,355.94 163.606,358.755 163.571,362.738 C163.549,365.212 166.972,364.791 168.413,364.246 C172.838,362.573 175.58,358.868 178.709,355.478 C181.93,351.988 185.212,348.553 188.521,345.147 C194.98,338.495 201.658,332.059 208.458,325.756 C220.746,314.367 235.561,303.141 241.239,286.809 C241.568,285.865 239.901,286.192 239.592,286.711 L239.592,286.711 Z" id="Shape"></path>
                    <path d="M410.838,261.334 C402.735,266.262 387.872,272.529 391.134,284.799 C391.399,285.793 392.752,286.365 393.636,286.505 C396.479,286.955 399.16,285.889 400.793,283.4 C402.351,281.024 401.259,277.644 402.199,274.991 C403.87,270.277 408.924,265.94 412.115,262.19 C412.968,261.189 411.596,260.874 410.838,261.334 L410.838,261.334 Z" id="Shape"></path>
                    <path d="M187.75,315.917 C185.801,323.409 193.096,326.61 199.3,327.01 C198.57,326.289 197.838,325.569 197.108,324.848 C197.089,325.185 197.073,325.523 197.055,325.861 C199.195,324.455 201.334,323.05 203.474,321.645 C198.719,320.615 194.244,322.213 189.503,322.417 C187.597,322.499 183.332,324.304 183.836,326.911 C184.153,328.554 184.386,330.286 184.935,331.87 C186.287,335.773 192.821,332.235 193.76,329.771 C193.775,329.733 193.789,329.694 193.804,329.656 C191.949,330.872 190.092,332.087 188.237,333.302 C190.566,333.317 192.894,333.332 195.223,333.343 C198.652,333.36 204.163,327.091 198.624,326.414 C191.24,325.512 183.944,327.421 179.053,333.307 C177.036,335.735 177.815,338.333 181.23,338.323 C185.695,338.309 190.041,338.093 194.414,337.142 C199.439,336.05 200.564,329.265 194.336,330.55 C189.127,331.625 184.089,333.046 179.128,334.973 C175.695,336.307 174.321,341.497 179.243,341.286 C187.211,340.942 194.432,337.406 199.628,331.353 C200.724,330.077 201.75,327.645 199.493,326.788 C196.413,325.616 193.557,323.975 190.477,322.803 C188.716,324.925 186.956,327.048 185.195,329.171 C194.693,329.893 207.785,327.107 213.148,318.327 C214.742,315.719 211.313,315.094 209.504,315.843 C202.669,318.672 197.434,323.146 189.554,322.523 C187.556,322.365 185.602,322.909 184.138,324.347 C182.906,325.557 182.134,328.069 184.272,328.891 C187.342,330.073 190.187,331.724 193.256,332.906 C193.211,331.385 193.166,329.862 193.121,328.341 C189.958,331.999 186.43,334.214 181.506,334.408 C181.544,336.512 181.583,338.617 181.621,340.721 C185.795,339.116 190.037,338.035 194.413,337.144 C194.387,334.947 194.361,332.749 194.335,330.552 C190.747,331.323 187.173,331.369 183.519,331.371 C184.245,333.043 184.97,334.715 185.696,336.387 C188.072,333.542 190.435,332.819 194.125,333.28 C195.259,330.97 196.393,328.661 197.526,326.351 C195.188,326.362 192.85,326.377 190.512,326.392 C188.284,326.406 185.726,327.898 184.945,330.038 C184.931,330.076 184.918,330.115 184.903,330.153 C187.845,329.454 190.787,328.754 193.728,328.054 C193.356,327.036 193.088,325.618 192.913,324.783 C191.024,326.281 189.135,327.779 187.246,329.277 C191.244,329.056 195.27,327.564 199.275,328.049 C201.607,328.332 205.851,326.809 205.694,323.833 C205.676,323.505 205.66,323.175 205.641,322.846 C205.549,321.146 203.887,320.608 202.436,320.622 C197.011,320.678 194.339,318.659 190.807,314.891 C189.999,314.028 188.014,314.9 187.75,315.917 L187.75,315.917 Z" id="Shape"></path>
                    <path d="M255.811,178.576 C251.858,184.317 246.628,187.993 240.719,191.56 C235.866,194.49 226.13,198.254 224.654,204.387 C223.825,207.833 228.012,207.852 230.192,207.015 C233.51,205.743 236.378,203.324 239.364,201.435 C243.063,199.096 246.843,196.917 250.422,194.391 C254.976,191.177 262.554,184.365 259.094,178.1 C258.404,176.851 256.424,177.684 255.811,178.576 L255.811,178.576 Z" id="Shape"></path>
                    <path d="M260.676,337.178 C248.863,344.426 236.844,350.384 227.652,361.121 C230.394,361.956 233.135,362.791 235.878,363.626 C240.603,357.534 246.621,352.938 253.771,350.063 C252.422,348.144 251.074,346.226 249.725,344.308 C239.453,352.507 229.988,362.787 227.309,376.063 C226.112,381.998 236.301,379.917 237.44,375.627 C240.873,362.7 250.781,352.814 260.671,344.372 C258.242,343.633 255.814,342.893 253.384,342.153 C246.074,353.745 233.998,365.414 234.03,380.098 C234.042,385.602 244.399,382.15 244.718,377.59 C245.609,364.844 254.145,353.617 261.364,343.535 C264.308,339.422 257.343,338.773 255,340.57 C243.207,349.618 231.015,361.12 227.309,376.061 C230.686,375.915 234.063,375.771 237.44,375.625 C239.461,364.669 246.446,356.131 255.024,349.38 C259.781,345.636 255.998,341.646 250.978,343.625 C241.417,347.396 232.888,353.7 226.871,362.063 C225.448,364.04 226.579,366.269 228.868,366.666 C231.601,367.14 234.226,365.697 235.879,363.624 C243.442,354.139 253.87,346.943 262.344,338.293 C263.56,337.051 261.622,336.598 260.676,337.178 L260.676,337.178 Z" id="Shape"></path>
                    <path d="M238.988,377.906 C237.559,383.202 235.614,388.446 232.964,393.256 C235.001,392.569 237.038,391.883 239.075,391.196 C236.052,390.154 233.534,391.329 231.288,393.417 C233.741,393.56 236.195,393.701 238.649,393.844 C238.737,389.394 238.281,386.263 241.11,382.494 C238.484,382.338 235.858,382.181 233.231,382.024 C232.527,385.939 231.24,389.14 227.991,391.565 C226.606,392.598 224.735,394.807 226.458,396.46 C228.025,397.964 231.218,397.367 232.757,396.128 C237.669,392.176 240.359,387.897 241.517,381.669 C242.431,376.751 235.344,378.949 233.638,381.199 C230.138,385.815 229.854,390.267 230.099,395.849 C230.262,399.566 235.923,397.846 237.46,396.276 C236.062,396.77 236.057,396.782 237.443,396.311 C238.362,395.913 239.229,395.284 239.784,394.437 C240.845,392.821 241.115,390.172 241.573,388.308 C242.513,384.474 242.71,381.077 241.75,377.248 C241.449,376.049 239.203,377.108 238.988,377.906 L238.988,377.906 Z" id="Shape"></path>
                    <path d="M113.534,311.458 C91.983,336.631 56.845,348.213 42.895,380.083 C40.543,385.456 50.41,384.139 52.457,381.738 C54.87,378.91 59.639,373.091 55.051,370.22 C50.143,367.149 46.384,375.528 44.291,377.954 C47.478,378.506 50.665,379.058 53.853,379.609 C59.861,365.293 72.013,354.839 83.61,345.039 C95.371,335.101 107.216,325.242 115.39,312.021 C116.125,310.833 114.11,310.785 113.534,311.458 L113.534,311.458 Z" id="Shape"></path>
                    <path d="M84.292,341.345 C78.131,347.493 74.106,354.573 70.013,362.221 C68.01,365.96 66.017,369.704 63.872,373.366 C62.304,376.045 58.653,378.864 58.477,381.995 C58.336,384.496 61.737,384.757 63.415,384.37 C70.781,382.676 73.933,372.507 76.292,366.28 C79.274,358.41 81.65,348.928 86.682,342.073 C87.77,340.591 85.047,340.59 84.292,341.345 L84.292,341.345 Z" id="Shape"></path>
                    <path d="M276.479,1.056 C276.475,4.78 276.661,8.492 276.859,12.209 C277.065,16.055 276.658,20.407 277.843,24.076 C277.989,24.527 278.822,24.144 278.907,23.822 C279.806,20.441 279.224,16.863 279.009,13.397 C278.743,9.14 278.355,4.902 278.268,0.635 C278.25,-0.272 276.48,0.27 276.479,1.056 L276.479,1.056 Z" id="Shape"></path>
                    <path d="M278.345,52.087 C277.96,57.483 277.849,62.875 277.653,68.278 C277.461,73.586 276.299,78.836 276.181,84.125 C276.152,85.426 278.227,84.43 278.529,83.796 C283.16,74.055 281.264,61.956 280.402,51.605 C280.312,50.519 278.407,51.225 278.345,52.087 L278.345,52.087 Z" id="Shape"></path>
                    <path d="M317.337,96.013 C319.865,91.901 322.263,87.711 324.871,83.649 C327.605,79.39 331.059,75.497 333.441,71.032 C334.178,69.648 332.136,69.903 331.49,70.437 C324.08,76.572 318.065,86.744 315.304,95.892 C314.945,97.086 316.951,96.642 317.337,96.013 L317.337,96.013 Z" id="Shape"></path>
                    <path d="M352.52,44.044 C356.325,37.416 362.372,31.887 365.312,24.806 C365.71,23.846 364.028,24.16 363.674,24.522 C358.231,30.082 352.606,36.416 350.103,43.901 C349.64,45.285 352.073,44.823 352.52,44.044 L352.52,44.044 Z" id="Shape"></path>
                    <path d="M345.955,131.403 C355.978,125.123 365.632,117.52 373.998,109.135 C374.651,108.481 373.773,107.982 373.138,108.3 C362.397,113.679 354.038,122.832 344.793,130.289 C343.579,131.269 344.896,132.066 345.955,131.403 L345.955,131.403 Z" id="Shape"></path>
                    <path d="M385.362,98.882 C385.409,98.882 385.452,98.81 385.385,98.81 C385.338,98.81 385.295,98.882 385.362,98.882 L385.362,98.882 Z" id="Shape"></path>
                    <path d="M397.965,90.121 C404.319,84.444 411.383,79.46 418.13,74.261 C424.315,69.494 432.115,65.186 437.192,59.226 C437.948,58.337 436.951,57.686 436.063,58.132 C428.959,61.7 422.621,67.696 416.339,72.545 C409.453,77.86 403.162,83.683 396.781,89.572 C395.948,90.342 397.387,90.636 397.965,90.121 L397.965,90.121 Z" id="Shape"></path>
                    <path d="M180.062,3.154 C181.574,10.926 184.294,19.46 188.37,26.282 C188.841,27.068 190.414,26.456 190.417,25.602 C190.448,17.499 185.219,9.768 182.636,2.299 C182.269,1.24 179.866,2.146 180.062,3.154 L180.062,3.154 Z" id="Shape"></path>
                    <path d="M201.041,62.424 C202.235,66.133 203.895,69.532 205.737,72.957 C207.739,76.677 209.294,80.618 211.427,84.256 C211.862,84.996 213.37,84.421 213.358,83.615 C213.228,75.589 207.017,68.293 203.707,61.267 C203.149,60.084 200.645,61.197 201.041,62.424 L201.041,62.424 Z" id="Shape"></path>
                    <path d="M91.38,24.509 C94.625,27.572 97.513,30.928 100.324,34.389 C103.486,38.281 105.918,42.949 109.635,46.339 C110.155,46.813 111.418,46.218 111.204,45.485 C108.69,36.867 100.095,28.687 93.366,23.183 C92.596,22.553 90.509,23.687 91.38,24.509 L91.38,24.509 Z" id="Shape"></path>
                    <path d="M137.125,78.679 C139.795,81.498 142.367,84.407 144.824,87.414 C147.467,90.65 149.461,94.559 152.545,97.398 C153.152,97.957 154.486,97.253 154.305,96.441 C153.463,92.673 150.756,89.507 148.422,86.526 C145.751,83.113 142.736,80.017 139.621,77.012 C138.703,76.127 136.094,77.59 137.125,78.679 L137.125,78.679 Z" id="Shape"></path>
                    <path d="M32.589,86.616 C45.246,93.852 58.152,100.645 70.864,107.787 C84.017,115.177 95.868,124.145 108.354,132.526 C109.137,133.052 111.272,132.143 110.391,131.167 C100.767,120.482 87.32,113.065 74.888,106.149 C61.533,98.719 47.632,92.286 34.157,85.077 C33.305,84.622 31.458,85.968 32.589,86.616 L32.589,86.616 Z" id="Shape"></path>
                    <path d="M27.069,152.31 C44.307,155.611 61.668,158.582 78.982,161.443 C79.656,161.554 80.777,160.554 79.765,160.25 C62.952,155.181 44.967,154.098 27.678,151.383 C27.148,151.299 26.277,152.159 27.069,152.31 L27.069,152.31 Z" id="Shape"></path>
                    <path d="M34.88,204.598 C46.354,206.679 58.479,207.165 70.113,207.635 C70.688,207.657 72.123,206.462 71.095,206.137 C59.949,202.617 47.348,204.853 35.866,203.094 C35.006,202.963 33.598,204.366 34.88,204.598 L34.88,204.598 Z" id="Shape"></path>
                    <path d="M418.994,162.44 C437.937,148.987 457.179,135.913 476.355,122.792 C485.942,116.231 495.557,109.712 505.189,103.218 C514.833,96.718 525.353,90.78 534.213,83.236 C535.175,82.417 533.872,81.691 533.055,82.113 C523.213,87.198 514.17,94.215 505.006,100.42 C495.391,106.93 485.801,113.478 476.234,120.057 C456.581,133.574 437.199,147.446 417.754,161.254 C416.406,162.209 417.898,163.217 418.994,162.44 L418.994,162.44 Z" id="Shape"></path>
                    <path d="M464.684,185.561 C477.231,179.043 490.847,173.29 501.955,164.403 C502.942,163.613 502.153,162.554 501.067,163.14 C488.508,169.918 476.27,177.354 463.785,184.282 C462.611,184.933 463.633,186.107 464.684,185.561 L464.684,185.561 Z" id="Shape"></path>
                    <path d="M484.736,216.819 C494.073,217.414 503.05,216.42 512.233,214.751 C522.952,212.802 533.666,210.869 544.387,208.952 C545.328,208.783 546.826,206.822 545.119,206.708 C525.105,205.375 505.802,215.06 485.699,214.855 C484.7,214.844 483.198,216.721 484.736,216.819 L484.736,216.819 Z" id="Shape"></path>
                    <path d="M74.169,395.369 C77.04,400.781 83.128,402.274 88.795,402.741 C94.589,403.218 102.4,403.282 107.794,400.815 C108.348,400.562 109.662,399.188 108.436,398.803 C104.155,397.461 98.768,399.08 94.363,399.331 C87.74,399.709 81.306,399.032 76.444,394.132 C75.778,393.461 73.646,394.382 74.169,395.369 L74.169,395.369 Z" id="Shape"></path>
                </g>
            </g>
        </g>
    </g>
</svg>