<?xml version="1.0" encoding="UTF-8"?>
<svg width="559px" height="381px" viewBox="0 0 559 381" version="1.1" xmlns="http://www.w3.org/2000/svg" xmlns:xlink="http://www.w3.org/1999/xlink">
    <!-- Generator: Sketch 41 (35326) - http://www.bohemiancoding.com/sketch -->
    <title>mouth</title>
    <desc>Created with Sketch.</desc>
    <defs></defs>
    <g id="Page-1" stroke="none" stroke-width="1" fill="none" fill-rule="evenodd">
        <g id="Layer_1" transform="translate(-6672.000000, -4801.000000)" fill="#010101">
            <g id="Layer_1_3_">
                <g id="mouth" transform="translate(6672.000000, 4801.000000)">
                    <path d="M45.131,117.749 C58.725,116.637 71.825,110.517 84.242,105.22 C97.406,99.605 110.34,93.468 123.545,87.947 C136.973,82.334 150.626,77.293 164.882,74.227 C179.945,70.989 195.193,68.494 210.461,66.45 C241.258,62.328 272.53,61.232 303.434,64.781 C331.549,68.01 359.437,74.377 386.314,83.181 C418.153,93.611 449.965,108.363 476.393,129.165 C479.487,122.629 482.58,116.093 485.672,109.557 C481.403,109.579 477.885,109.87 473.7,110.793 C468.433,111.956 464.65,118.688 467.681,123.343 C470.437,127.577 473.677,129.295 478.691,129.964 C487.998,131.205 500.76,117.55 490.552,110.474 C444.185,78.337 390.747,58.331 335.282,48.763 C304.641,43.476 273.302,43.027 242.37,45.676 C211.53,48.319 179.864,53.617 150.403,63.282 C132.049,69.303 114.7,78.014 97.44,86.585 C88.731,90.909 80.014,95.239 71.104,99.142 C62.361,102.97 53.343,106.025 44.698,110.078 C41.42,111.614 40.114,118.16 45.131,117.749 L45.131,117.749 Z" id="Shape"></path>
                    <path d="M39.446,112.706 C37.929,123.631 46.71,133.718 52.876,141.882 C60.666,152.197 66.249,163.859 72.064,175.339 C84.996,200.868 95.377,227.597 110.237,252.142 C124.269,275.32 141.813,295.935 165.757,309.244 C186.7,320.885 210.855,325.267 234.511,326.761 C243.316,327.317 252.142,327.512 260.961,327.524 C272.577,327.54 280.476,306.774 265.412,306.754 C242.38,306.723 218.505,305.488 196.579,297.778 C172.235,289.217 153.257,273.668 137.78,253.242 C120.608,230.58 109.069,204.373 95.954,179.315 C89.622,167.218 82.971,155.107 74.85,144.098 C67.666,134.362 57.676,126.703 49.88,117.45 C47.92,115.123 46.002,112.907 43.914,110.703 C42.471,109.179 39.691,110.942 39.446,112.706 L39.446,112.706 Z" id="Shape"></path>
                    <path d="M498.35,115.409 C486.783,115.54 476.834,123.636 468.702,131.043 C459.237,139.662 451.112,149.814 443.406,160 C427.821,180.599 415.276,202.925 401.948,224.989 C389.745,245.192 375.569,264.764 356.327,278.05 C334.737,292.957 309.878,303.69 283.646,306.583 C280.684,306.909 277.708,307.072 274.73,307.169 C263.156,307.542 255.225,328.425 270.279,327.939 C297.909,327.046 325.214,317.462 349.104,303.936 C372.641,290.61 391.798,272.134 406.987,249.861 C421.165,229.069 431.997,206.301 445.159,184.903 C451.608,174.418 458.862,164.388 465.913,154.3 C473.065,144.07 480.547,134.476 489.998,126.287 C492.727,123.922 495.521,121.845 498.604,119.953 C500.417,118.84 501.422,115.374 498.35,115.409 L498.35,115.409 Z" id="Shape"></path>
                    <path d="M355.413,345.86 C348.248,344.951 340.009,348.835 333.118,350.563 C324.171,352.809 315.178,354.86 306.168,356.834 C287.933,360.83 268.967,362.453 250.315,361.868 C232.973,361.324 215.053,357.76 199.147,350.776 C190.936,347.171 182.936,342.524 175.937,336.899 C171.956,333.699 168.213,329.917 164.006,327.034 C162.151,325.763 160.72,324.066 158.748,322.908 C156.442,321.554 153.424,320.959 150.991,319.737 C147.819,318.143 142.287,321.722 143.027,325.463 C144.127,331.012 144.463,335.697 147.961,340.359 C151.192,344.665 154.547,348.548 158.744,351.986 C166.64,358.449 175.183,363.858 184.449,368.135 C203.133,376.757 223.254,380.161 243.695,380.575 C264.23,380.992 284.656,377.483 304.441,372.192 C314.27,369.563 323.681,365.966 332.955,361.812 C340.652,358.365 350.414,354.594 355.873,347.926 C356.385,347.303 356.456,345.993 355.413,345.86 L355.413,345.86 Z" id="Shape"></path>
                    <path d="M122.624,51.907 C142.923,39.836 165.849,31.356 188.585,25.252 C211.735,19.036 235.88,16.16 259.819,15.865 C283.968,15.567 308.231,18.148 331.799,23.38 C343.457,25.968 354.977,29.303 366.203,33.372 C380.305,38.483 394.396,43.873 409.464,44.656 C413.223,44.851 418.639,39.745 414.355,36.62 C402.834,28.217 388.813,23.546 375.448,18.7 C363.541,14.384 351.382,10.842 339.034,8.032 C314.123,2.364 288.514,0.039 262.997,1.036 C237.511,2.031 212.224,6.526 188.001,14.48 C176.109,18.385 164.55,23.473 153.419,29.183 C141.919,35.082 131.8,42.327 121.561,50.134 C120.407,51.014 121.28,52.706 122.624,51.907 L122.624,51.907 Z" id="Shape"></path>
                    <path d="M220.002,200.905 C227.446,195.962 233.85,189.706 241.428,184.915 C248.927,180.174 257.291,176.616 265.659,173.737 C284.019,167.419 303.556,165.126 322.888,164.674 C342.787,164.21 362.742,166.193 382.341,169.537 C391.491,171.099 400.574,173.049 409.585,175.28 C413.963,176.364 418.286,177.685 422.677,178.712 C425.298,179.324 427.583,180.882 430.382,180.655 C433.379,180.412 436.458,178.862 438.596,176.798 C442.058,173.454 444.292,166.26 437.834,164.742 C440.112,166.095 440.184,165.997 438.05,164.452 C437.087,163.931 436.095,163.781 435.161,163.431 C432.393,162.396 429.565,161.697 426.727,160.907 C422.088,159.617 417.42,158.439 412.737,157.328 C403.162,155.055 393.49,153.196 383.766,151.681 C363.048,148.451 341.995,147.087 321.047,148.266 C300.346,149.432 279.68,153.691 260.711,162.172 C251.62,166.237 243.418,171.443 235.58,177.571 C228.436,183.157 220.748,190.19 217.378,198.8 C216.682,200.583 218.323,202.02 220.002,200.905 L220.002,200.905 Z" id="Shape"></path>
                    <path d="M91.32,199.762 C95.934,196.144 99.28,191.219 104.051,187.629 C108.984,183.919 114.826,181.065 120.495,178.688 C132.687,173.577 145.677,169.682 158.658,167.22 C192.058,160.887 227.921,161.218 259.945,173.475 C263.765,174.938 267.553,173.947 270.622,171.254 C273.404,168.813 276.845,162.556 273.191,159.264 C269.441,155.884 265.235,155.478 260.818,158.114 C258.231,159.659 255.677,162.665 255.972,165.901 C256.208,168.476 256.75,170.199 258.398,172.245 C262.813,167.509 267.228,162.77 271.644,158.034 C236.04,143.41 195.242,144.934 158.293,153.076 C143.54,156.327 129.09,161.378 115.7,168.397 C108.952,171.934 102.493,176.21 96.981,181.488 C92.863,185.43 86.028,192.67 87.242,198.965 C87.665,201.152 89.893,200.882 91.32,199.762 L91.32,199.762 Z" id="Shape"></path>
                    <path d="M71.459,107.37 C80.158,126.189 104.807,127.891 122.727,127.632 C150.009,127.236 177.268,126.859 204.526,125.435 C235.661,123.806 266.739,122.206 297.922,123.323 C326.176,124.334 354.399,126.264 382.682,124.979 C404.578,123.984 426.726,120.826 447.366,113.214 C451.246,111.782 454.665,108.681 455.56,104.503 C456.573,99.774 453.286,96.674 448.746,96.738 C444.595,96.797 441.044,97.584 437.206,99.115 C433.428,100.623 427.122,107.919 433.101,111.059 C437.093,113.155 440.622,113.602 445.12,113.665 C445.58,108.174 446.04,102.682 446.5,97.189 C420.74,106.673 393.107,108.422 365.885,108.459 C337.971,108.495 310.102,106.357 282.186,106.344 C249.498,106.328 216.901,109.465 184.285,111.226 C169.993,111.997 155.664,112.033 141.381,112.858 C131.029,113.456 120.763,114.453 110.378,114.415 C97.963,114.37 86.517,112.66 78.607,102.269 C76.139,99.029 69.907,104.012 71.459,107.37 L71.459,107.37 Z" id="Shape"></path>
                    <path d="M251.697,55.548 C248.914,61.525 248.753,68.735 248.272,75.235 C247.813,81.439 247.501,87.681 247.393,93.903 C247.278,100.496 244.75,120.515 256.932,116.621 C268.492,112.925 263.429,98.809 262.595,90.211 C262.034,84.439 261.836,78.636 261.534,72.847 C261.212,66.672 261.082,58.912 257.767,53.558 C256.267,51.132 252.449,53.933 251.697,55.548 L251.697,55.548 Z" id="Shape"></path>
                    <path d="M174.684,67.663 C171.055,72.082 170.398,78.13 169.293,83.585 C168.189,89.034 167.576,94.605 167.293,100.154 C166.953,106.801 165.658,122.346 177.074,118.696 C179.767,117.835 182.236,115.728 183.443,113.164 C183.983,112.052 184.234,110.878 184.197,109.644 C184.447,112.75 184.181,109.783 184.27,108.636 C184.531,105.248 182.386,101.195 181.92,97.783 C181.249,92.875 181.091,87.901 180.934,82.956 C180.777,78.002 181.99,70.872 178.594,66.85 C177.493,65.544 175.511,66.657 174.684,67.663 L174.684,67.663 Z" id="Shape"></path>
                    <path d="M336.964,65.924 C331.81,77.749 335.874,91.615 331.106,103.578 C329.576,107.418 330.119,112.287 334.958,113.184 C340.427,114.198 346.062,109.492 347.235,104.331 C348.691,97.933 348.685,91.374 348.24,84.859 C347.802,78.438 347.482,70.144 344.146,64.46 C342.366,61.428 338.158,63.186 336.964,65.924 L336.964,65.924 Z" id="Shape"></path>
                    <path d="M63.194,62.959 C57.276,65.662 50.061,66.928 43.778,68.662 C37.626,70.361 31.476,72.216 25.597,74.724 C15.564,79.004 7.8,86.681 3.836,96.881 C0.193,106.254 0.03,116.475 2.079,126.225 C3.945,135.106 8.001,149.471 18.033,152.028 C21.158,152.825 24.034,149.455 24.162,146.649 C24.357,142.372 22.195,138.159 20.461,134.344 C18.518,130.074 16.891,125.733 15.735,121.184 C13.866,113.821 13.699,105.269 16.434,98.103 C19.464,90.165 25.688,85.874 33.053,82.316 C38.142,79.859 43.438,77.804 48.601,75.509 C54.448,72.91 59.205,69.688 64.361,66.01 C66.272,64.647 65.817,61.761 63.194,62.959 L63.194,62.959 Z" id="Shape"></path>
                    <path d="M496.237,68.2 C501.781,74.15 509.947,78.501 517.001,82.414 C524.522,86.587 532.175,90.015 540.376,92.587 C549.653,95.495 541.619,108.241 538.374,113.429 C531.757,124.01 523.485,133.576 515.229,142.894 C511.651,146.933 508.083,150.949 504.598,155.061 C501.967,158.166 498.494,161.9 497.934,166.107 C497.572,168.82 499.756,170.826 502.484,169.779 C507.004,168.043 510.341,164.42 513.67,161.041 C518.275,156.365 522.71,151.57 527.06,146.646 C536.191,136.311 544.956,125.583 551.889,113.624 C557.036,104.744 562.752,90.096 552.258,82.775 C549.889,81.123 546.456,80.629 543.698,80.002 C538.679,78.861 533.948,76.938 529.139,75.139 C519.424,71.503 509.416,65.993 499.08,64.474 C497.448,64.233 494.708,66.56 496.237,68.2 L496.237,68.2 Z" id="Shape"></path>
                    <path d="M53.579,123.105 C53.596,123.143 53.611,123.18 53.628,123.219 C54.988,126.391 59.118,124.626 60.663,122.649 C62.309,120.542 62.893,117.943 65.089,116.237 C63.228,114.76 61.366,113.285 59.505,111.809 C57.568,114.835 56.066,118.1 54.132,121.122 C51.694,124.931 54.543,129.044 58.889,126.542 C63.812,123.707 67.833,120.858 71.577,116.557 C74.905,112.733 70.693,108.047 66.484,110.753 C62.665,113.208 58.678,115.351 54.969,117.982 C56.846,118.083 58.724,118.183 60.601,118.283 C59.037,116.869 57.33,115.615 55.593,114.42 C53.751,117.447 51.908,120.476 50.066,123.503 C57.956,126.187 65.517,122.372 71.833,117.828 C69.594,116.052 67.354,114.275 65.114,112.5 C61.496,117.445 58.351,122.694 55.955,128.341 C54.106,132.697 58.289,135.908 62.242,133.39 C68.164,129.619 72.788,124.437 78.177,120.007 C75.874,118.181 73.572,116.355 71.269,114.528 C66.786,120.102 62.384,125.733 60.573,132.776 C59.491,136.98 64.485,138.718 67.514,136.654 C74.836,131.667 80.981,125.659 86.706,118.922 C83.95,117.432 81.194,115.943 78.438,114.453 C72.661,122.465 67.209,130.502 64.495,140.105 C62.941,145.605 70.266,146.037 73.142,143.187 C79.82,136.568 86.033,129.941 90.863,121.826 C94.711,115.361 84.668,113.611 81.379,118.526 C76.565,125.718 72.154,132.852 69.553,141.163 C68.842,143.432 70.377,145.815 72.654,146.237 C75.948,146.848 79.04,144.428 80.485,141.674 C83.396,136.123 87.264,131.259 91.179,126.391 C87.94,125.264 84.7,124.137 81.461,123.01 C78.109,131.369 72.898,138.701 70.434,147.442 C68.8,153.228 76.557,153.784 79.589,150.704 C86.438,143.749 92.322,135.987 98.63,128.558 C95.58,126.91 92.531,125.261 89.482,123.613 C81.59,133.934 75.93,145.403 72.386,157.892 C71.704,160.296 73.203,162.78 75.649,163.233 C78.588,163.778 81.175,161.986 83,159.894 C91.347,150.324 97.657,139.208 105.999,129.634 L96.729,124.624 C88.482,135.319 81.082,147.333 79.613,161.031 C78.825,168.381 86.981,167.02 90.37,163.059 C98.493,153.567 104.513,142.418 110.1,131.305 C113.769,124.007 103.26,122.241 99.801,127.723 C91.727,140.525 85.158,153.889 80.598,168.342 C78.366,175.416 88.756,174.463 91.46,170.391 C99.522,158.246 106.957,145.689 115.488,133.861 C112.031,132.659 108.574,131.456 105.116,130.253 C99.991,139.566 95.609,149.365 89.313,157.976 C92.78,159.181 96.248,160.388 99.714,161.594 C104.689,149.794 113.273,140.094 116.968,127.67 C117.846,124.721 115.208,121.448 112.065,122.081 C110.12,122.473 108.027,122.737 106.151,123.404 C102.955,124.54 96.206,132.46 102.259,134.72 C108.591,137.085 116.337,136.16 122.556,133.948 C120.558,131.67 118.558,129.391 116.558,127.112 C111.984,137.715 102.112,145.064 96.705,155.298 C93.341,161.665 101.778,164.566 105.892,160.331 C111.584,154.47 116.24,147.979 120.767,141.2 C117.576,139.475 114.384,137.751 111.193,136.026 C103.514,147.89 94.201,158.587 87.28,170.954 C83.171,178.295 94.157,180.028 97.814,174.618 C101.872,168.616 106.293,162.875 110.351,156.874 C115.626,149.073 105.673,145.268 100.728,151.673 C96.431,157.238 93.06,163.411 90.394,169.905 C87.727,176.395 95.214,179.468 99.658,174.981 C106.068,168.508 112.047,161.627 118.457,155.154 C115.673,152.946 112.89,150.739 110.105,148.531 C104.211,157.759 97.104,166.177 92.454,176.163 C96.307,176.882 100.158,177.601 104.011,178.319 C105.694,174.375 107.795,171.401 111.162,168.742 C108.807,166.056 106.449,163.371 104.094,160.686 C98.6,166.291 93.985,172.317 90.35,179.292 C89.178,181.54 89.436,184.727 91.855,186.036 C95.202,187.849 98.823,185.415 101.001,182.998 C109.972,173.041 118.995,163.158 128.931,154.144 C126.562,151.445 124.195,148.746 121.826,146.047 C117.112,150.754 112.379,155.407 107.203,159.612 C104.823,161.546 102.972,165.787 105.31,168.452 C107.769,171.254 111.927,169.637 114.32,167.722 C125.619,158.68 136.747,149.38 145.935,138.126 C148.626,134.831 147.756,128.446 142.382,129.208 C135.097,130.242 127.828,131.203 120.46,131.285 L121.105,142.775 C129.245,137.078 139.665,136.854 148.669,133.087 C152.976,131.286 158.894,122.758 151.28,120.9 C143.151,118.918 134.952,120.672 126.729,120.816 C119.696,120.938 114.857,133.435 124.026,133.435 C132.393,133.435 140.536,133.165 148.67,131.021 C147.362,127.66 146.055,124.298 144.747,120.937 C132.62,130.673 118.609,137.783 106.105,147.022 C100.841,150.912 103.125,158.954 110.043,157.144 C122.66,153.843 134.276,147.79 146.584,143.59 C145.269,140.205 143.951,136.821 142.635,133.437 C134.27,139.742 124.249,143.35 114.61,147.185 C111.692,148.345 109.119,150.546 108.431,153.753 C107.713,157.101 110.105,159.948 113.57,159.608 C126.442,158.342 138.486,153.531 151.151,151.275 C151.5,147.122 151.847,142.968 152.195,138.815 C135.072,144.451 117.298,148.469 101.424,157.316 C96.843,159.87 94.152,169.743 102.082,169.022 C117.155,167.649 131.32,161.976 145.542,157.194 C144.757,153.407 143.971,149.62 143.187,145.833 C128.171,152.595 112.326,155.951 98.769,165.78 C93.813,169.373 95.753,178.83 102.738,175.985 C115.703,170.706 129.445,167.69 142.41,162.411 C145.331,161.222 147.909,159.061 148.601,155.829 C149.363,152.276 146.887,149.887 143.453,149.962 C133.128,150.187 123.281,153.335 113.566,156.569 C113.785,160.604 114.004,164.639 114.222,168.674 C138.081,158.949 162.377,150.348 185.87,139.732 C190.753,137.525 192.858,126.909 185.213,128.04 C171.356,130.089 156.976,134.165 142.971,131.248 C142.088,135.37 141.204,139.493 140.322,143.615 C155.69,138.311 172.219,137.324 187.302,131.085 C190.219,129.88 192.794,127.751 193.489,124.509 C194.004,122.109 192.79,118.924 189.953,118.722 C176.98,117.793 164.698,119.8 152.195,123.165 C146.349,124.739 142.562,136.61 151.154,135.603 C169.188,133.486 187.265,131.499 205.443,131.425 C212.585,131.396 217.447,118.616 208.181,118.65 C186.687,118.727 158.451,121.175 142.622,137.599 C139.938,140.385 137.425,146.992 143.282,148.053 C165.414,152.061 186.529,142.126 208.574,142.905 C215.725,143.158 220.552,130.494 211.311,130.137 C189.797,129.308 168.75,136.001 149.062,144.052 C143.522,146.318 139.082,156.127 148.022,156.475 C168.542,157.274 188.126,149.413 208.575,149.165 C215.7,149.079 220.567,136.325 211.309,136.405 C186.62,136.617 162.838,144.6 138.227,145.803 C137.881,149.942 137.535,154.079 137.188,158.217 C172.846,148.212 212.764,160.475 246.417,141.805 C250.508,139.535 253.758,131.813 247.365,130.219 C234.542,127.022 221.212,129.006 208.177,129.104 C207.267,133.352 206.357,137.602 205.447,141.85 C219.671,140.848 234.077,141.65 247.855,137.332 C252.105,136 257.376,128.746 251.923,125.498 C238.095,117.263 220.841,120.727 205.603,118.739 C204.159,122.962 202.714,127.184 201.27,131.407 C219.012,129.523 236.812,133.525 254.515,131.405 C260.343,130.708 266.683,121.392 258.848,118.74 C250.199,115.812 240.234,116.547 231.435,118.343 C222.255,120.215 212.857,124.051 207.058,131.744 C205.444,133.886 204.124,138.904 207.638,140.23 C226.898,147.498 248.093,143.009 268.088,142.885 C273.881,142.849 280.373,131.62 272.418,130.226 C257.853,127.675 240.411,126.71 228.243,136.567 C225.658,138.661 223.344,144.562 227.477,146.492 C239.432,152.077 252.813,151.333 265.442,154.294 C266.884,150.076 268.328,145.857 269.77,141.641 C257.854,141.637 246.277,141.182 234.832,137.539 C228.8,135.62 221.772,145.426 227.478,149.622 C235.841,155.773 246.696,157.924 256.832,158.86 C267.149,159.813 277.744,159.456 287.926,157.498 C291.572,156.797 294.947,154.465 295.774,150.611 C296.544,147.021 294.056,144.775 290.653,144.775 C284.388,144.775 278.124,144.775 271.86,144.776 C270.951,149.016 270.043,153.256 269.133,157.497 C279.422,157.405 288.822,155.385 297.086,148.999 C299.576,147.074 302.082,140.773 297.852,139.082 C286.884,134.693 275.944,137.283 264.552,137.469 C265.305,140.964 266.057,144.459 266.811,147.953 C273.133,142.876 282.165,142.074 289.616,139.406 C292.91,138.227 300.027,129.914 293.676,127.598 C282.569,123.55 269.941,126.248 259.222,121.334 C257.307,125.383 255.391,129.432 253.475,133.48 C265.317,133.424 277.131,132.485 288.973,132.435 C294.797,132.41 301.189,120.537 293.296,119.796 C282.348,118.769 271.363,118.68 260.376,118.68 C253.269,118.678 248.433,131.371 257.651,131.39 C275.576,131.424 293.497,132.358 311.386,133.403 C311.701,129.553 312.016,125.705 312.331,121.855 C303.463,128.031 292.356,132.704 286.416,142.19 C284.623,145.055 283.584,150.488 288.417,151.151 C301.292,152.917 313.273,147.283 326.004,148.017 C327.443,143.807 328.884,139.597 330.324,135.387 C320.583,136.462 310.832,137.444 301.092,138.521 C295.65,139.122 288.564,149.303 296.772,151.149 C310.843,154.312 325.043,150.424 339.085,149.132 C345.961,148.499 351.179,136.502 341.806,136.433 C329.539,136.342 315.77,134.309 305.028,141.704 C302.065,143.744 296.89,152.628 304.085,153.225 C318.922,154.457 337.889,153.444 347.478,140.234 C349.237,137.809 350.216,133.512 346.902,131.801 C336.347,126.352 324.494,127.153 313.115,125.055 C311.682,129.243 310.25,133.43 308.818,137.617 C322.576,135.527 336.514,137.29 350.167,134.136 C353.947,133.262 360.074,124.737 354.193,122.425 C345.166,118.877 335.714,118.739 326.136,118.737 C325.237,122.935 324.336,127.134 323.437,131.333 C340.838,131.328 358.24,131.322 375.642,131.317 C375.426,127.487 375.211,123.657 374.996,119.827 C364.526,124.98 354.002,129.216 345.991,138.048 C343.598,140.687 343.661,146.294 347.967,146.895 C355.19,147.903 362.221,146.955 369.381,145.925 C375.945,144.982 381.49,133.435 372.069,133.378 C362.47,133.32 352.419,132.262 343.258,135.799 C339.08,137.412 332.968,146.501 340.656,147.943 C357.386,151.082 374.42,149.14 391.302,149.065 C391.643,144.99 391.985,140.914 392.325,136.838 C379.848,139.548 366.926,138.864 354.322,140.675 C351.225,141.12 348.471,142.992 347.119,145.868 C345.815,148.639 346.462,152.657 350.048,153.173 C364.757,155.285 379.633,154.334 394.433,154.292 C395.331,150.1 396.23,145.906 397.128,141.714 C393.69,141.729 390.358,141.884 387.107,143.094 C381.68,145.115 377.265,155.466 386.082,155.339 C395.812,155.198 406.13,153.205 414.481,148.001 C417.741,145.969 422.34,137.34 415.418,136.563 C406.304,135.541 397.244,134.327 388.275,132.384 C388.492,135.82 388.709,139.255 388.925,142.691 C393.154,138.833 399.118,137.235 404.04,134.432 C408.904,131.661 410.994,122.961 403.394,122.912 C393.333,122.848 383.439,122.074 373.534,124.289 C367.415,125.658 364.149,136.656 372.507,136.556 C383.108,136.428 393.463,134.452 403.826,132.385 C406.951,131.761 409.642,130.175 411.055,127.174 C412.285,124.558 411.78,120.134 408.116,119.845 C400.149,119.217 392.493,120.171 384.876,122.6 C381.191,123.776 377.623,125.482 374.245,127.349 C369.881,129.761 368.335,132.751 368.335,137.58 C368.334,139.724 369.989,141.27 371.961,141.713 C380.749,143.682 389.685,142.907 398.605,142.832 C398.949,138.735 399.292,134.639 399.634,130.541 C397.052,131.391 394.642,132.121 391.915,132.291 C391.013,136.501 390.11,140.712 389.208,144.922 C407.692,143.617 423.487,133.706 441.407,130.315 C445.032,129.628 448.389,127.292 449.209,123.468 C449.87,120.384 447.569,117.014 444.118,117.666 C426.301,121.039 410.132,130.998 391.915,132.291 C384.943,132.785 380.056,145.493 389.208,144.922 C393.047,144.684 396.642,143.693 400.282,142.494 C405.97,140.621 409.996,130.128 401.311,130.203 C393.415,130.271 385.623,130.978 377.841,129.236 C379.05,130.614 380.259,131.992 381.467,133.369 L381.467,131.281 C379.946,133.727 378.423,136.173 376.902,138.619 C384.502,134.056 393.343,131.612 402.241,132.311 C403.671,128.131 405.1,123.951 406.53,119.771 C396.167,121.842 385.81,123.82 375.209,123.952 C374.866,128.041 374.524,132.13 374.182,136.219 C382.769,134.295 391.982,135.454 400.697,135.508 C400.482,131.668 400.265,127.828 400.051,123.988 C393.875,127.506 387.102,129.645 381.76,134.522 C378.745,137.274 376.922,143.641 382.41,144.829 C391.381,146.77 400.441,147.982 409.556,149.002 C409.869,145.189 410.18,141.377 410.493,137.564 C404.053,141.58 396.246,142.647 388.779,142.755 C388.437,146.837 388.095,150.919 387.754,155 C389.924,154.191 392.139,154.301 394.436,154.29 C401.466,154.259 406.256,141.684 397.131,141.712 C383.383,141.753 369.57,142.705 355.906,140.745 C354.482,144.911 353.056,149.077 351.632,153.243 C365.409,151.261 379.315,151.695 392.973,148.726 C399.115,147.391 402.298,136.461 393.996,136.499 C378.158,136.572 362.2,138.473 346.506,135.533 C345.639,139.581 344.772,143.629 343.904,147.678 C351.864,144.602 361.029,145.874 369.383,145.922 C370.279,141.739 371.175,137.558 372.071,133.375 C366.024,134.245 359.919,135.346 353.813,134.493 C354.471,137.441 355.129,140.39 355.789,143.34 C361.639,136.912 371.378,133.979 378.983,130.24 C384.129,127.711 385.708,118.752 378.337,118.75 C360.939,118.745 343.539,118.739 326.14,118.734 C319.097,118.732 314.305,131.322 323.441,131.33 C330.775,131.336 338.558,131.174 345.498,133.906 C346.84,130.003 348.182,126.099 349.525,122.195 C337.103,125.058 324.089,123.078 311.529,124.979 C308.413,125.451 305.656,127.292 304.289,130.199 C302.93,133.088 303.676,136.883 307.232,137.541 C317.462,139.435 328.721,138.435 338.175,143.322 C337.984,140.511 337.791,137.701 337.599,134.889 C332.299,142.184 317.87,141.349 309.995,140.691 C309.681,144.531 309.366,148.372 309.052,152.212 C317.333,146.518 329.632,149.055 339.09,149.129 C339.997,144.896 340.903,140.663 341.811,136.43 C328.903,137.618 315.611,141.495 302.695,138.591 C301.255,142.8 299.816,147.01 298.375,151.219 C308.116,150.144 317.867,149.162 327.607,148.087 C330.721,147.743 333.553,145.675 334.887,142.839 C336.101,140.259 335.636,135.671 331.927,135.457 C319.265,134.727 306.888,140.311 294.342,138.589 C295.009,141.575 295.675,144.563 296.343,147.55 C300.783,140.457 309.708,137.022 316.365,132.387 C318.462,130.927 320.267,129.206 320.827,126.595 C321.333,124.235 320.136,121.004 317.31,120.839 C298.359,119.732 279.368,118.714 260.379,118.677 C259.471,122.913 258.563,127.15 257.654,131.387 C267.579,131.388 277.487,131.429 287.377,132.358 C288.817,128.145 290.259,123.932 291.7,119.719 C279.857,119.769 268.043,120.708 256.202,120.762 C251.469,120.784 244.079,129.985 250.455,132.908 C261.523,137.983 273.752,135.107 284.907,139.174 C286.26,135.237 287.613,131.302 288.967,127.366 C278.702,131.04 268.32,132.677 259.573,139.698 C255.449,143.009 255.447,150.286 261.831,150.182 C270.721,150.036 280.523,147.235 289.082,150.659 C289.337,147.354 289.593,144.048 289.848,140.742 C284.842,144.61 277.904,144.718 271.864,144.771 C264.76,144.834 259.904,157.492 269.137,157.492 C275.402,157.493 281.666,157.493 287.93,157.493 C288.839,153.252 289.747,149.012 290.657,144.77 C273.652,148.04 250.89,148.79 236.262,138.029 C233.811,142.056 231.36,146.085 228.908,150.112 C241.333,154.066 254.122,154.359 267.05,154.363 C272.943,154.365 279.21,143.546 271.378,141.709 C259.879,139.012 247.105,139.96 236.264,134.896 C236.008,138.205 235.753,141.513 235.497,144.821 C239.067,141.929 244.46,141.658 248.844,141.41 C254.749,141.075 260.685,141.791 266.492,142.808 C267.935,138.588 269.379,134.369 270.822,130.149 C253.311,130.255 233.301,134.997 216.428,128.628 C216.621,131.457 216.815,134.285 217.008,137.114 C220.362,132.665 227.635,131.15 232.927,130.301 C239.522,129.244 246.535,129.164 252.917,131.326 C254.361,127.104 255.806,122.883 257.25,118.661 C239.55,120.779 221.748,116.776 204.005,118.659 C200.884,118.99 198.037,121.088 196.703,123.923 C195.396,126.699 196.023,130.852 199.672,131.327 C213.62,133.148 230.555,129.603 243.137,137.098 C244.492,133.153 245.85,129.208 247.205,125.264 C234.64,129.201 221.168,128.184 208.182,129.098 C201.205,129.588 196.105,141.914 205.452,141.844 C217.448,141.755 229.634,139.872 241.431,142.815 C241.747,138.954 242.063,135.091 242.379,131.229 C227.104,139.704 208.661,140.202 191.618,140.76 C173.18,141.364 154.455,141.113 136.539,146.139 C130.674,147.784 126.839,158.976 135.5,158.553 C160.109,157.351 183.892,149.369 208.58,149.158 C209.491,144.905 210.403,140.651 211.314,136.398 C190.866,136.645 171.281,144.503 150.761,143.704 C150.414,147.845 150.068,151.985 149.721,156.127 C168.467,148.462 188.088,142.106 208.578,142.898 C209.49,138.642 210.402,134.386 211.315,130.13 C190.45,129.392 170.073,139.197 149.237,135.423 C149.457,138.907 149.676,142.393 149.897,145.877 C156.469,139.057 165.915,136.36 174.908,134.338 C184.847,132.102 195.282,131.453 205.446,131.418 C206.359,127.159 207.272,122.901 208.184,118.643 C190.005,118.715 171.928,120.702 153.895,122.817 C153.547,126.963 153.201,131.108 152.854,135.255 C163.079,132.502 173.366,130.586 184,131.347 C184.884,127.226 185.767,123.105 186.65,118.984 C171.566,125.221 155.037,126.208 139.668,131.51 C135.147,133.071 129.397,142.289 137.019,143.877 C152.205,147.041 167.458,143.039 182.476,140.819 C182.257,136.922 182.038,133.024 181.819,129.127 C159.465,139.227 136.273,147.311 113.569,156.564 C110.263,157.911 107.036,160.844 107.243,164.75 C107.435,168.377 111.151,169.693 114.225,168.67 C122.903,165.781 131.488,162.949 140.713,162.748 C141.061,158.599 141.408,154.449 141.756,150.299 C128.791,155.577 115.049,158.592 102.084,163.871 C103.407,167.272 104.73,170.674 106.054,174.076 C118.125,165.325 133.808,162.488 147.245,156.437 C153.564,153.591 153.105,142.314 144.889,145.076 C131.795,149.478 118.701,154.955 104.827,156.217 C105.047,160.119 105.265,164.022 105.485,167.923 C120.216,159.713 136.954,156.16 152.853,150.928 C155.793,149.961 158.39,147.421 159.05,144.341 C159.725,141.19 157.39,137.846 153.898,138.468 C141.252,140.72 129.116,145.567 116.306,146.838 C115.959,150.98 115.613,155.121 115.266,159.262 C127.419,154.414 139.364,149.633 149.883,141.69 C154.841,137.946 152.982,129.124 145.934,131.537 C133.626,135.751 122.012,141.814 109.396,145.128 C110.708,148.502 112.021,151.876 113.333,155.25 C125.839,145.991 139.794,138.909 151.947,129.134 C156.928,125.128 155.07,117.185 148.024,119.05 C141.082,120.888 133.865,120.804 126.732,120.812 C125.832,125.018 124.929,129.225 124.029,133.431 C131.179,133.299 138.359,131.634 145.414,133.347 C146.285,129.284 147.155,125.222 148.025,121.16 C137.836,125.432 126.391,125.854 117.125,132.353 C112.902,135.314 109.741,143.94 117.77,143.843 C125.141,143.754 132.411,142.785 139.698,141.744 C138.513,138.771 137.329,135.799 136.145,132.826 C127.809,143.053 117.457,151.389 107.206,159.605 C109.579,162.308 111.95,165.011 114.323,167.714 C119.495,163.505 124.224,158.847 128.934,154.136 C131.096,151.972 133.309,148.14 130.825,145.31 C128.461,142.617 124.095,143.98 121.829,146.039 C110.958,155.921 101.107,166.827 91.294,177.739 C94.844,178.974 98.394,180.21 101.944,181.445 C104.378,176.764 107.477,172.505 111.167,168.732 C113.296,166.555 115.536,162.784 113.05,159.951 C110.599,157.158 106.486,158.787 104.099,160.677 C98.911,164.781 95.042,170.081 92.459,176.154 C88.744,184.886 100.922,184.968 104.016,178.31 C108.144,169.425 114.533,161.959 119.771,153.743 C121.146,151.586 122.306,148.642 120.336,146.397 C118.069,143.814 113.555,144.96 111.419,147.12 C105.014,153.599 99.041,160.486 92.636,166.965 C95.724,168.657 98.814,170.35 101.901,172.041 C104.126,166.609 106.766,161.525 110.357,156.865 C107.15,155.132 103.942,153.397 100.734,151.664 C96.681,157.668 92.265,163.413 88.214,169.418 C91.726,170.64 95.237,171.861 98.748,173.082 C105.056,161.789 113.767,152.039 120.772,141.191 C125.802,133.404 115.718,129.234 111.198,136.017 C107.429,141.671 103.678,147.485 98.929,152.382 C101.991,154.06 105.053,155.737 108.115,157.415 C113.525,147.15 123.277,140.048 127.934,129.224 C129.775,124.946 126.699,120.688 121.936,122.388 C118.892,123.474 113.836,124.792 110.671,123.614 C109.374,127.386 108.077,131.158 106.78,134.93 C108.155,134.441 109.648,134.218 111.076,133.929 C108.902,132.175 106.728,130.421 104.555,128.666 C101.239,139.852 92.892,148.792 88.401,159.473 C85.16,167.181 94.976,168.333 98.802,163.091 C105.789,153.519 110.724,142.697 116.407,132.349 C120.443,124.999 109.726,123.612 106.035,128.741 C97.514,140.576 90.09,153.139 82.04,165.289 C85.661,165.973 89.282,166.654 92.902,167.338 C96.733,155.16 102.401,143.581 109.195,132.789 C105.762,131.596 102.33,130.401 98.896,129.207 C93.807,139.339 88.431,149.339 81.041,158.008 C84.627,158.684 88.213,159.36 91.798,160.036 C93.022,148.392 99.011,138.727 106.002,129.625 C107.752,127.347 108.484,123.352 105.462,121.715 C102.301,120.004 98.768,122.276 96.733,124.615 C88.401,134.193 82.124,145.326 73.796,154.908 C77.334,155.575 80.871,156.242 84.409,156.91 C87.324,146.553 92.119,137.101 98.634,128.549 C100.352,126.294 101.091,122.361 98.101,120.742 C95.006,119.066 91.461,121.271 89.486,123.603 C83.973,130.107 78.984,137.099 73.031,143.218 C76.083,144.305 79.135,145.393 82.188,146.48 C84.284,138.849 89.155,132.308 92.04,124.974 C94.933,117.621 86.06,116.888 82.322,121.593 C77.755,127.344 73.427,133.174 70.048,139.718 C73.693,139.888 77.336,140.059 80.98,140.229 C82.894,134.011 86.472,128.57 90.033,123.192 C86.871,122.092 83.71,120.993 80.549,119.892 C76.942,126.023 71.92,131.096 66.95,136.117 C69.832,137.144 72.715,138.172 75.596,139.199 C77.65,131.62 82.242,125.243 86.711,118.914 C91.433,112.226 82.835,109.205 78.443,114.445 C74.217,119.488 69.661,124.272 64.225,128.033 C66.538,129.326 68.853,130.618 71.166,131.911 C72.414,126.89 76.121,122.806 79.263,118.839 C83.547,113.431 76.935,109.539 72.356,113.36 C67.85,117.119 63.998,121.835 59.055,125.034 C61.151,126.717 63.246,128.4 65.342,130.083 C67.332,125.29 69.825,120.879 72.89,116.691 C76.869,111.252 70.731,107.765 66.171,111.363 C62.65,114.142 58.882,115.425 54.527,114.04 C50.123,112.64 44.47,120.143 49,123.123 C50.144,123.876 51.308,124.626 52.344,125.525 C54.551,127.439 57.045,126.53 59.17,124.971 C62.445,122.57 66.018,120.63 69.43,118.437 C67.733,116.502 66.034,114.568 64.337,112.633 C62.183,115.726 59.306,117.394 56.147,119.351 C57.95,120.799 59.753,122.247 61.557,123.696 C63.384,120.627 64.766,117.336 66.593,114.266 C69.254,109.794 63.168,108.557 60.385,110.865 C58.874,112.119 57.676,113.568 56.623,115.219 C56.021,116.162 55.491,117.139 54.977,118.13 C55.045,117.998 53.665,120.398 54.473,119.292 C56.819,119.103 59.163,118.912 61.508,118.723 C61.49,118.686 61.473,118.649 61.455,118.612 C59.319,114.171 51.86,119.097 53.579,123.105 L53.579,123.105 Z" id="Shape"></path>
                    <path d="M323.455,126.708 C307.279,126.641 296.019,140.673 283.39,148.729 C284.994,151.401 286.597,154.075 288.2,156.747 C293.349,151.799 298.844,147.227 303.956,142.24 C305.705,140.534 307.296,137.983 306.323,135.446 C305.216,132.555 301.257,132.438 298.998,133.973 C290.752,139.577 284.527,146.202 281.347,155.789 C280.546,158.203 282.265,160.434 284.525,160.989 C297.532,164.192 310.174,157.475 322.766,155.337 C330.329,154.053 337.864,155.461 345.37,156.419 C352.224,157.295 358.997,157.291 365.831,156.328 C391.576,152.703 416.603,140.905 439.45,128.997 C446.59,125.275 443.91,115.232 435.624,118.991 C434.3,119.592 432.963,119.922 431.524,120.045 C431.196,123.962 430.868,127.879 430.54,131.796 C435.069,129.801 438.107,126.626 442.016,123.732 C445.784,120.94 446.016,113.108 439.875,113.788 C427.369,115.172 415.834,120.151 403.822,123.548 C404.556,127.092 405.292,130.635 406.027,134.179 C417.47,129.06 429.392,125.075 440.978,120.303 C443.729,119.17 446.159,117.155 446.813,114.101 C447.472,111.021 445.242,108.142 441.96,108.573 C432.469,109.819 424.011,113.463 415.302,117.221 C412.546,118.41 410.107,120.348 409.442,123.45 C408.958,125.712 410.103,128.759 412.793,128.934 C425.481,129.759 436.434,123.129 448.762,121.731 C447.128,119.87 445.493,118.007 443.86,116.145 C444.078,116.053 444.296,115.961 444.513,115.87 C441.046,119.492 440.225,125.659 446.674,125.907 C450.89,126.069 454.557,126.557 458.73,125.575 C457.043,122.802 455.357,120.027 453.669,117.253 C451.323,120.312 449.417,121.646 445.579,122.424 C446.324,126.018 447.07,129.612 447.815,133.204 C451.719,131.247 455.614,129.29 459.298,126.936 C465.948,122.688 463.896,112.868 455.45,116.877 C440.464,123.992 427.387,134.363 412.619,141.864 C414.436,144.893 416.253,147.923 418.07,150.953 C425.617,144.556 433.495,138.564 441.02,132.14 C446.602,127.373 442.626,119.15 435.595,123.095 C425.005,129.038 414.603,135.524 405.869,144.042 C403.96,145.904 402.223,148.69 403.284,151.461 C404.536,154.73 408.746,154.599 411.285,153.069 C414.036,151.412 417.062,150.599 420.1,149.616 C418.835,146.365 417.571,143.114 416.306,139.862 C411.474,143.729 406.655,147.385 401.149,150.255 C403.689,152.295 406.229,154.334 408.769,156.374 C409.511,154.546 410.394,153.353 411.773,151.959 C408.544,150.809 405.316,149.659 402.088,148.509 C401.78,151.816 401.34,154.464 402.256,157.716 C402.961,160.22 406.504,160.944 408.614,160.035 C421.446,154.514 430.198,144.186 439.195,133.891 C436.001,132.164 432.805,130.438 429.611,128.711 C423.279,137.922 415.026,145.58 408.694,154.791 C405.093,160.028 409.494,166.428 415.483,162.526 C427.919,154.426 437.976,143.696 448.383,133.247 C445.271,131.541 442.158,129.836 439.046,128.131 C433.761,138.188 424.463,145.477 418.069,154.78 C415.265,158.861 417.168,165.785 423.236,163.277 C440.227,156.255 450.336,140.477 464.015,129.041 C461.238,126.838 458.459,124.634 455.681,122.432 C444.371,135.915 429.114,145.355 423.906,163.133 C422.388,168.315 428.663,169.943 432.192,167.762 C448.425,157.735 458.687,141.873 472.416,129.094 C469.602,126.862 466.786,124.629 463.971,122.397 C454.234,135.177 442.658,146.33 434.793,160.481 C433.545,162.727 433.911,166.013 436.318,167.316 C438.979,168.757 442.13,167.401 444.254,165.666 C455.33,156.615 463.901,145.089 472.773,133.983 C478.052,127.374 469.809,122.192 464.194,127.179 C459.56,131.295 455.731,136.319 451.809,141.092 C449.924,143.387 448.024,145.7 445.969,147.846 C445.031,148.827 444.032,149.744 443.006,150.632 C442.095,151.42 441.621,151.021 443.106,150.896 C439.391,151.209 435.863,154.286 435.081,157.938 C434.342,161.387 436.792,164.204 440.317,163.906 C447.376,163.311 452.619,157.134 456.987,152.197 C461.845,146.707 465.941,140.319 471.428,135.424 C468.569,133.156 465.709,130.888 462.849,128.62 C454.799,138.743 447.139,149.229 437.078,157.488 C440.231,159.216 443.386,160.944 446.539,162.673 C453.713,149.696 464.832,139.411 473.74,127.677 C478.701,121.142 470.795,115.841 465.295,120.98 C452.68,132.763 443.131,148.259 428.261,157.482 C431.024,159.025 433.785,160.568 436.547,162.111 C440.734,147.719 456.108,138.648 465.322,127.643 C470.681,121.242 462.467,116.445 456.988,121.033 C450.92,126.115 445.615,132.03 440.076,137.665 C435.006,142.821 429.418,148.722 422.599,151.525 C424.322,154.357 426.043,157.19 427.766,160.022 C434.916,149.656 444.714,141.566 450.638,130.294 C454.06,123.78 445.513,120.948 441.3,125.178 C431.884,134.633 422.797,144.918 411.56,152.276 C413.824,154.854 416.086,157.433 418.349,160.011 C424.656,150.788 432.886,143.115 439.194,133.892 C440.86,131.455 441.865,127.462 438.635,125.714 C435.367,123.944 431.713,126.293 429.61,128.712 C423.404,135.85 416.947,144.666 407.988,148.504 C410.107,149.276 412.227,150.05 414.347,150.823 C414.311,149.711 414.367,148.604 414.514,147.501 C415.064,141.663 408.623,140.226 404.829,144.051 C401.776,147.129 399.051,150.192 397.395,154.253 C395.109,159.862 400.129,162.911 405.015,160.372 C411.61,156.944 417.474,152.419 423.264,147.796 C427.92,144.078 426.327,135.831 419.471,138.042 C415.311,139.383 411.172,140.664 407.407,142.94 C409.213,145.949 411.017,148.959 412.823,151.967 C420.696,144.266 429.891,138.563 439.472,133.242 C437.664,130.226 435.856,127.213 434.047,124.197 C426.494,130.589 418.593,136.551 411.064,142.97 C405.348,147.844 409.399,155.699 416.515,152.059 C431.268,144.511 444.321,134.097 459.293,126.933 C458.01,123.58 456.729,120.227 455.445,116.874 C451.769,119.237 447.865,121.181 443.96,123.134 C437.829,126.198 438.309,135.505 446.196,133.914 C453.427,132.456 458.75,128.119 463.161,122.382 C466.661,117.829 463.707,112.747 458.1,114.06 C455.396,114.693 452.036,113.837 449.277,113.728 C449.998,117.074 450.718,120.419 451.438,123.765 C453.898,121.201 455.802,118.759 456.267,115.136 C456.67,111.997 454.88,109.144 451.365,109.55 C445.878,110.183 440.601,111.665 435.345,113.316 C429.956,115.007 424.181,117.327 418.427,116.963 C417.59,120.867 416.753,124.772 415.917,128.676 C423.521,125.378 431.072,121.728 439.372,120.621 C439.699,116.711 440.026,112.801 440.354,108.891 C427.688,114.134 414.733,118.625 402.223,124.247 C396.227,126.942 396.68,137.054 404.428,134.878 C415.346,131.813 425.93,127.075 437.282,125.847 C436.569,122.533 435.855,119.218 435.141,115.903 C433.513,117.104 431.717,119.57 429.913,120.366 C427.168,121.577 424.735,123.468 424.068,126.578 C423.384,129.774 425.656,132.399 428.928,132.117 C432.698,131.792 436.025,130.548 439.442,128.995 C438.167,125.66 436.891,122.324 435.616,118.989 C414.323,130.101 391.067,141.06 367.088,144.506 C353.539,146.453 340.293,141.83 326.733,143.25 C314.652,144.515 302.124,152.343 289.867,149.638 C290.927,151.371 291.985,153.106 293.045,154.838 C294.587,149.833 298.327,146.161 302.538,143.246 C300.886,140.49 299.233,137.735 297.58,134.979 C292.509,140.013 287.049,144.63 282.016,149.705 C280.341,151.393 278.767,153.808 279.72,156.294 C280.798,159.107 284.628,159.199 286.825,157.723 C298.432,149.92 308.725,136.719 322.87,133.617 C326.359,132.855 328.139,126.727 323.455,126.708 L323.455,126.708 Z" id="Shape"></path>
                    <path d="M215.566,310.101 C217.518,304.83 217.079,299.834 216.43,294.351 C215.596,287.303 214.501,280.289 213.987,273.205 C213.516,266.718 213.305,259.68 216.383,253.762 C217.576,251.468 218.154,250.158 220.562,249.228 C223.646,248.036 226.962,247.527 230.227,247.14 C235.955,246.462 241.358,246.818 246.625,249.288 C251.057,251.366 250.895,256.861 251.555,261.065 C253.076,270.754 252.915,280.794 253.262,290.579 C253.442,295.62 253.704,300.654 254.118,305.683 C254.433,309.514 254.219,315.232 256.013,318.672 C257.114,320.782 259.434,321.627 261.705,320.748 C261.748,320.731 261.791,320.715 261.834,320.698 C264.713,319.585 267.363,317.011 267.243,313.698 C267.181,311.99 266.719,310.647 265.906,309.175 C263.31,304.47 257.183,308.423 256.156,312.318 C255.699,314.053 255.799,315.592 255.863,317.347 C257.181,315.228 258.501,313.109 259.819,310.99 C259.778,311.015 259.737,311.041 259.696,311.066 C261.858,311.181 264.02,311.296 266.183,311.413 C265.81,310.887 265.697,306.961 265.553,305.877 C265.144,302.773 264.882,299.652 264.633,296.533 C264.184,290.892 263.959,285.232 263.684,279.581 C263.216,269.994 262.542,260.473 260.576,251.063 C257.648,237.056 241.187,236.551 229.586,238.416 C222.901,239.49 215.898,241.36 211.496,246.819 C207.09,252.281 206.99,259.722 206.859,266.396 C206.705,274.291 207.953,282.204 209.07,289.996 C210.061,296.913 210.349,304.066 212.573,310.71 C213.059,312.158 215.207,311.071 215.566,310.101 L215.566,310.101 Z" id="Shape"></path>
                    <path d="M258.144,250.5 C262.594,243.785 273.344,243.125 280.574,243.141 C287.598,243.157 297.477,243.957 298.99,252.14 C300.874,262.338 299.417,273.028 299.796,283.329 C300.025,289.558 300.858,295.797 301.241,302.024 C301.528,306.674 299.905,316.054 304.432,318.82 C307.119,320.462 310.514,318.246 312.206,316.237 C316.506,311.133 313.87,301.079 313.355,294.978 C312.809,288.526 311.818,282.1 311.623,275.624 C311.426,269.145 311.521,262.664 311.138,256.189 C310.831,251.022 310.382,245.51 307.36,241.147 C301.697,232.97 286.378,233.768 277.991,234.872 C269.61,235.976 254.775,239.476 252.919,249.515 C252.287,252.934 256.743,252.616 258.144,250.5 L258.144,250.5 Z" id="Shape"></path>
                    <path d="M210.217,270.049 C216.952,247.64 187.904,231.145 171.112,245.965 C164.406,251.883 161.35,261.201 160.051,269.778 C159.381,274.21 159.203,278.742 159.364,283.216 C159.511,287.297 159.561,293.143 162.161,296.445 C165.332,300.473 172.498,295.581 172.947,291.609 C173.308,288.405 172.301,285.342 171.884,282.162 C171.46,278.921 171.361,275.643 171.427,272.38 C171.546,266.586 172.524,259.865 175.698,254.88 C178.64,250.257 182.961,249.572 188.266,250.499 C192.716,251.275 197.214,252.898 200.593,255.891 C204.654,259.487 205.573,266.136 207.61,270.89 C208.206,272.278 209.944,270.963 210.217,270.049 L210.217,270.049 Z" id="Shape"></path>
                    <path d="M309.848,262.705 C310.959,258.143 311.36,253.464 312.748,248.973 C314.374,243.717 317.875,241.895 322.821,240.199 C329.808,237.803 337.096,239.656 342.474,244.57 C347.782,249.421 351.048,256.555 352.365,263.543 C352.999,266.91 353.265,270.543 352.902,273.957 C352.531,277.437 350.154,281.437 352.67,284.527 C354.173,286.374 356.977,285.818 358.774,284.853 C367.718,280.052 365.628,264.433 363.625,256.371 C361.255,246.832 355.374,237.927 347.064,232.603 C337.876,226.718 326.82,228.356 317.469,232.781 C307.324,237.582 300.602,253.566 306.355,263.832 C307.285,265.489 309.501,264.128 309.848,262.705 L309.848,262.705 Z" id="Shape"></path>
                    <path d="M358.6,256.467 C359.898,248.476 360.994,240.285 361.577,232.196 C360.173,234.012 358.769,235.829 357.366,237.645 C363.421,236.145 369.743,235.635 375.965,235.528 C381.353,235.434 387.976,235.95 392.101,239.855 C397.203,244.686 407.67,235.597 402.772,230.491 C397.618,225.119 388.496,225.972 381.724,225.938 C373.482,225.897 364.779,227.018 356.929,229.586 C354.736,230.304 352.533,232.568 352.718,235.035 C353.271,242.358 354.382,249.84 355.664,257.059 C355.977,258.825 358.383,257.803 358.6,256.467 L358.6,256.467 Z" id="Shape"></path>
                    <path d="M120.893,253.25 C129.383,246.658 138.922,247.31 148.934,250.036 C153.361,251.243 157.307,253.518 158.955,257.946 C160.73,262.715 158.439,268.112 160.355,272.612 C162.339,277.272 168.187,273.577 169.781,270.693 C172.885,265.079 171.785,255.545 168.262,250.26 C164.546,244.686 157.99,242.403 151.72,241.084 C144.683,239.605 137.374,239.504 130.382,241.266 C125.466,242.504 116.573,246.876 118.867,253.143 C119.203,254.054 120.346,253.674 120.893,253.25 L120.893,253.25 Z" id="Shape"></path>
                    <path d="M173.047,96.095 C167.934,102.378 174.072,113.182 178.666,118.027 C184.536,124.219 196.266,129.151 204.604,125.758 C207.536,124.565 212.674,118.722 207.864,116.278 C204.759,114.698 201.126,114.96 197.757,114.227 C194.174,113.45 190.885,111.919 187.834,109.905 C184.948,107.999 182.374,104.882 180.65,101.913 C179.178,99.379 178.364,95.912 175.277,95.083 C174.44,94.858 173.54,95.491 173.047,96.095 L173.047,96.095 Z" id="Shape"></path>
                    <path d="M252.838,84.399 C251.717,88.019 250.313,91.559 249.244,95.233 C248.498,97.797 247.68,100.537 246.275,102.835 C242.724,108.645 236.667,111.823 232.324,116.903 C229.183,120.577 232.022,124.951 236.534,123.827 C244.82,121.763 252.518,113.866 255.885,106.178 C257.353,102.825 258.07,99.242 258.184,95.601 C258.333,90.839 256.788,87.793 254.715,83.794 C254.225,82.846 253.057,83.693 252.838,84.399 L252.838,84.399 Z" id="Shape"></path>
                    <path d="M256.42,84.532 C254.457,94.042 254.831,102.889 261.725,110.452 C267.834,117.158 276.769,122.155 285.509,123.974 C290.92,125.101 297.526,116.994 292.144,113.073 C281.1,105.027 262.491,100.287 261.652,83.475 C261.487,80.165 256.868,82.363 256.42,84.532 L256.42,84.532 Z" id="Shape"></path>
                    <path d="M334.102,87.221 C329.746,91.472 328.58,97.957 323.993,102.201 C318.691,107.108 310.959,107.443 305.334,111.784 C302.417,114.035 301.442,119.59 305.894,120.629 C313.983,122.518 325.314,115.434 330.76,109.912 C333.907,106.721 336.202,103.022 337.617,98.766 C338.709,95.482 339.805,89.646 336.942,86.99 C336.13,86.239 334.858,86.483 334.102,87.221 L334.102,87.221 Z" id="Shape"></path>
                    <path d="M344.059,83.683 C340.202,86.758 338.823,92.889 338.466,97.574 C338.096,102.43 340.459,107.115 343.244,110.895 C346.089,114.755 350.738,117.452 354.984,119.483 C360.187,121.97 367.424,125.003 373.104,123.226 C376.841,122.057 380.757,117.025 377.871,113.287 C375.376,110.058 369.894,109.897 366.205,108.535 C362.468,107.155 358.629,105.444 355.58,102.829 C352.662,100.326 350.687,97.532 349.244,93.972 C348.013,90.937 347.693,85.89 345.478,83.569 C345.072,83.143 344.452,83.37 344.059,83.683 L344.059,83.683 Z" id="Shape"></path>
                    <path d="M172.294,89.141 C169.348,96.258 166.02,102.434 160.377,107.796 C154.574,113.311 146.422,117.368 142.271,124.3 C139.812,128.406 143.899,131.32 147.646,130.425 C152.326,129.309 156.293,125.362 159.92,122.369 C163.65,119.291 167.004,115.685 169.986,111.886 C175.066,105.414 179.132,96.528 176.732,88.237 C176.084,85.998 172.845,87.809 172.294,89.141 L172.294,89.141 Z" id="Shape"></path>
                    <path d="M170.012,114.163 C167.057,117.025 163.289,119.093 160.701,122.294 C159.794,123.415 160.571,124.81 161.995,124.422 C166.099,123.303 169.655,120.064 172.609,117.122 C173.401,116.333 174.207,114.93 173.299,113.896 C172.454,112.93 170.817,113.383 170.012,114.163 L170.012,114.163 Z" id="Shape"></path>
                    <path d="M76.995,112.664 C76.962,112.452 76.925,112.241 76.884,112.03 C76.642,112.733 76.401,113.436 76.159,114.139 C76.52,113.596 76.833,113.118 76.973,112.469 C76.952,112.566 77.077,110.537 76.926,111.934 C76.999,111.256 77.044,110.759 76.768,110.117 C76.626,109.881 76.485,109.645 76.343,109.409 C76.139,109.149 76.202,109.25 76.531,109.711 C76.113,107.816 73.593,107.725 72.168,108.119 C70.875,108.477 69.441,109.317 68.508,110.27 C67.701,111.093 66.858,112.016 66.361,113.074 C66.191,113.519 66.042,113.97 65.911,114.428 C66.267,113.214 65.768,114.891 65.672,115.294 C64.958,118.254 68.439,119.592 70.62,118.059 C71.036,117.767 71.449,117.472 71.86,117.174 C71.325,117.55 71.266,117.607 71.682,117.345 C72.458,116.877 73.022,116.303 73.661,115.694 C74.76,114.512 74.886,114.381 74.039,115.298 C74.443,114.949 74.272,115.062 73.526,115.635 C74.796,114.814 75.643,114.002 76.356,112.655 C74.948,113.67 73.541,114.685 72.133,115.699 C72.321,115.664 72.485,115.659 72.674,115.667 C71.507,115.423 71.422,115.451 72.419,115.754 C72.744,115.826 73.065,115.826 73.379,115.755 C72.768,115.536 72.154,115.318 71.543,115.1 C71.679,115.252 71.794,115.418 71.889,115.6 C72.512,116.625 74.259,116.228 75.064,115.769 C76.035,115.213 77.204,113.899 76.995,112.664 L76.995,112.664 Z" id="Shape"></path>
                    <path d="M175.91,90.276 C171.931,99.649 173.466,109.344 179.279,117.525 C184.341,124.649 196.688,131.864 205.455,128.488 C210.889,126.395 213.644,120.952 206.869,117.62 C202.324,115.386 197.059,114.999 192.457,112.563 C183.472,107.806 182.08,98.41 179.351,89.575 C178.817,87.848 176.352,89.234 175.91,90.276 L175.91,90.276 Z" id="Shape"></path>
                </g>
            </g>
        </g>
    </g>
</svg>