<?xml version="1.0" encoding="UTF-8"?>
<svg width="533px" height="322px" viewBox="0 0 533 322" version="1.1" xmlns="http://www.w3.org/2000/svg" xmlns:xlink="http://www.w3.org/1999/xlink">
    <!-- Generator: Sketch 41 (35326) - http://www.bohemiancoding.com/sketch -->
    <title>notebook</title>
    <desc>Created with Sketch.</desc>
    <defs></defs>
    <g id="Page-1" stroke="none" stroke-width="1" fill="none" fill-rule="evenodd">
        <g id="Layer_1" transform="translate(-2724.000000, -2795.000000)" fill="#010101">
            <g id="Layer_1_3_">
                <g id="notebook" transform="translate(2724.000000, 2795.000000)">
                    <path d="M280.713,259.655 C269.734,259.123 259.213,267.196 258.564,278.53 C258.303,283.101 259.713,287.656 262.59,291.225 C265.639,295.008 270.034,295.93 274.585,296.494 C277.198,296.818 280.196,294.288 281.563,292.327 C282.932,290.361 282.907,286.919 279.555,287.888 C272.937,289.8 268.201,283.155 267.121,277.445 C265.657,269.722 270.013,266.543 277.098,265.922 C279.233,265.732 284.643,259.846 280.713,259.655 L280.713,259.655 Z" id="Shape"></path>
                    <path d="M281.057,262.567 C284.633,262.688 287.699,261.202 290.932,259.828 C295.618,257.839 300.195,255.587 304.779,253.382 C314.017,248.935 323.26,244.5 332.507,240.07 C352.764,230.367 373.007,220.646 393.403,211.238 C413.776,201.84 434.276,192.712 454.956,184.006 C465.082,179.742 475.264,175.61 485.498,171.607 C490.736,169.556 495.999,167.577 501.292,165.669 C506.23,163.888 511.506,161.346 516.717,160.633 C520.196,160.156 530.077,151.029 522.988,149.77 C519.089,149.077 515.881,151.31 512.247,152.245 C509.539,152.94 499.903,160.864 506.594,162.036 C510.044,162.64 513.398,161.492 516.718,160.635 C517.287,157.48 517.858,154.322 518.427,151.168 C514.099,153.505 509.003,154.838 504.413,156.592 C499.132,158.61 493.865,160.665 488.599,162.716 C478.367,166.697 468.204,170.854 458.079,175.102 C436.825,184.019 415.794,193.46 394.882,203.151 C374.47,212.609 354.188,222.344 333.951,232.173 C324.716,236.658 315.527,241.247 306.324,245.8 C297.796,250.017 287.908,253.771 281.06,260.535 C280.585,260.999 279.796,262.524 281.057,262.567 L281.057,262.567 Z" id="Shape"></path>
                    <path d="M273.463,321.192 C283.099,318.51 292.228,313.672 301.127,309.198 C311.566,303.949 321.844,298.366 332.209,292.974 C352.869,282.228 373.623,271.643 394.625,261.579 C415.611,251.524 436.882,242.045 458.522,233.48 C469.218,229.25 480.024,225.3 490.929,221.641 C496.064,219.917 501.229,218.264 506.431,216.751 C511.369,215.314 517.578,214.842 521.859,211.927 C525.054,209.751 532.875,203.989 531.047,198.967 C531.007,198.858 530.968,198.749 530.928,198.64 C530.198,196.636 529.115,195.772 526.928,195.608 C521.585,195.209 515.501,198.401 512.049,202.259 C513.368,201.181 513.056,201.497 511.107,203.206 C510.18,204.158 509.429,205.233 508.855,206.433 C508.394,207.343 508.22,208.302 508.333,209.31 C513.623,213.033 514.941,214.414 512.291,213.456 C511.595,212.579 510.898,211.704 510.204,210.828 C510.228,211.253 510.332,211.638 510.414,212.055 C513.747,208.052 517.079,204.049 520.411,200.046 C515.912,202.051 510.813,203.106 506.098,204.555 C500.728,206.206 495.392,207.973 490.076,209.793 C479.693,213.348 469.427,217.237 459.233,221.307 C437.558,229.959 416.302,239.646 395.288,249.786 C373.952,260.085 352.89,270.921 331.987,282.068 C312.297,292.569 290.973,302.362 273.508,316.426 C272.222,317.463 269.612,322.263 273.463,321.192 L273.463,321.192 Z" id="Shape"></path>
                    <path d="M523.989,156.282 C514.734,164.345 504.172,186.589 520.522,193.423 C523.711,194.756 529.245,192.077 529.898,188.516 C530.41,185.734 526.844,185.27 525.112,184.515 C523.342,183.744 522.127,182.113 521.168,180.512 C516.943,173.464 521.468,162.857 525.966,157.146 C527.271,155.485 524.961,155.436 523.989,156.282 L523.989,156.282 Z" id="Shape"></path>
                    <path d="M26.066,97.217 C27.345,98.35 28.647,99.467 29.83,100.699 C30.428,101.324 30.952,102.011 31.437,102.723 C32.027,103.588 32.254,104.737 32.861,105.661 C34.252,107.776 38.292,105.292 39.514,104.319 C41.16,103.011 43.585,100.403 42.323,98.14 C41.345,96.386 39.012,95.432 37.234,94.624 C35.254,93.725 33.128,93.199 31.023,92.684 C29.793,92.382 28.607,92.969 27.652,93.728 C27.039,94.219 25.005,96.275 26.066,97.217 L26.066,97.217 Z" id="Shape"></path>
                    <path d="M31.927,101.238 C49.042,95.218 65.451,87.177 82.583,81.078 C100.477,74.708 118.661,69.172 136.842,63.686 C154.842,58.256 172.86,52.874 190.673,46.85 C199.666,43.809 208.586,40.549 217.538,37.392 C221.658,35.939 225.717,34.337 229.761,32.682 C233.963,30.962 238.286,28.322 242.628,27.081 C246.361,26.016 249.681,23.867 251.929,20.641 C253.573,18.281 254.806,13.645 250.49,13.461 C244.198,13.192 237.127,16.381 233.857,21.958 C231.81,25.448 233.32,28.425 237.581,26.643 C235.122,27.672 240.082,27.272 240.889,27.235 C241.502,23.697 242.115,20.159 242.727,16.621 C239.536,18.876 235.249,20.357 231.71,22.016 C227.608,23.936 223.462,25.761 219.327,27.606 C210.495,31.546 201.446,34.812 192.302,37.945 C173.781,44.293 154.999,49.85 136.27,55.546 C118.246,61.027 100.253,66.617 82.549,73.073 C64.949,79.491 46.623,86.452 31.181,97.229 C29.032,98.725 28.265,102.526 31.927,101.238 L31.927,101.238 Z" id="Shape"></path>
                    <path d="M250.864,3.798 C259.67,12.09 269.625,18.225 279.866,24.611 C290.636,31.326 301.532,37.841 312.486,44.255 C334.78,57.308 357.598,69.524 380.418,81.629 C403.3,93.768 426.342,105.6 449.488,117.224 C460.913,122.962 472.357,128.663 483.805,134.357 C495.512,140.178 507.384,145.659 518.415,152.686 C522.555,148.325 526.693,143.963 530.831,139.602 C525.485,137.136 520.492,138.692 514.948,138.07 C512.444,137.789 504.157,143.294 507.173,146.224 C510.703,149.658 513.907,150.912 518.415,152.686 C524.481,155.075 537.139,141.911 530.831,139.602 C506.988,130.872 484.261,118.298 461.441,107.183 C438.045,95.787 414.675,84.332 391.446,72.601 C368.247,60.887 345.206,48.857 322.409,36.381 C311.164,30.228 299.912,24.1 288.737,17.819 C277.525,11.517 266.729,5.04 254.79,0.207 C253.441,-0.341 249.464,2.48 250.864,3.798 L250.864,3.798 Z" id="Shape"></path>
                    <path d="M135.03,169.169 C132.599,166.354 127.324,167.651 124.256,168.567 C119.293,170.05 114.976,172.895 111.23,176.439 C104.484,182.819 100.314,191.61 98.726,200.691 C97.564,207.329 97.66,215.935 102.155,221.436 C108.071,228.673 119.192,225.083 125.225,220.124 C127.54,218.221 132.279,209.724 125.306,211.542 C123.614,211.982 121.95,212.479 120.306,213.076 C121.578,212.613 119.67,213.139 119.514,213.165 C120.603,212.981 118.9,213.113 118.769,213.106 C117.538,213.043 115.978,212.105 114.785,210.717 C111.681,207.108 110.931,201.767 111.131,197.157 C111.381,191.393 113.069,185.758 116.345,180.998 C120.047,175.616 126.308,175.521 132.29,173.058 C133.239,172.669 136.22,170.546 135.03,169.169 L135.03,169.169 Z" id="Shape"></path>
                    <path d="M172.32,186.86 C155.385,188.909 144.013,205.302 141.857,221.247 C141.03,227.361 141.357,233.815 144.146,239.397 C147.614,246.342 155.786,243.804 160.707,240.07 C163.508,237.945 168.117,229.341 160.793,230.913 C160.263,231.026 159.725,231.1 159.189,231.186 C159.913,231.068 160.418,231.367 159.383,230.935 C158.638,230.624 157.972,229.724 157.178,228.37 C155.348,225.258 154.961,220.403 155.102,216.724 C155.512,206.048 160.053,196.55 170.433,192.668 C172.452,191.914 177.053,186.288 172.32,186.86 L172.32,186.86 Z" id="Shape"></path>
                    <path d="M200.088,211.602 C191.06,209.24 181.114,214.52 175.156,221.072 C169.222,227.598 166.79,236.112 167.472,244.804 C168.135,253.225 172.614,261.325 179.12,266.607 C180.767,267.944 182.544,269.095 184.401,270.115 C187.608,271.874 191.3,269.886 194.13,268.199 C197.45,266.222 204.808,258.745 199.865,254.742 C195.91,251.54 190.13,257.27 188.336,260.497 C194.06,255.387 195.732,253.643 193.356,255.268 C191.737,256.354 190.268,257.486 189.139,259.107 C188.436,260.116 187.519,261.655 187.332,262.899 C186.646,267.469 187.305,261.012 192.006,259.097 C193.548,258.964 195.091,258.833 196.633,258.701 C187.296,254.349 181.328,245.483 180.416,235.268 C180.053,231.21 180.953,226.919 183.34,223.596 C183.833,222.908 184.756,222.173 186.171,221.538 C188.87,220.329 191.827,219.971 194.684,219.329 C196.243,218.982 204.307,212.705 200.088,211.602 L200.088,211.602 Z" id="Shape"></path>
                    <path d="M235.242,230.333 C228.647,230.454 222.331,236.259 217.768,240.437 C212.095,245.632 207.644,252.372 204.807,259.498 C199.078,273.889 202.733,288.105 215.989,296.491 C217.826,297.652 221.354,296.098 222.872,295.103 C226.729,292.57 236.538,283.601 229.292,279.225 C227.522,278.157 224.388,280.071 223.117,281.139 C221.629,282.389 220.431,283.729 219.232,285.249 C218.686,286.069 218.233,286.938 217.879,287.856 C216.962,289.764 217.382,289.34 219.141,286.586 C222.09,285.672 225.038,284.759 227.986,283.846 C218.104,278.262 214.114,268.675 216.807,257.743 C217.994,252.929 220.783,248.604 223.761,244.719 C226.688,240.898 230.861,238.609 234.356,235.448 C235.201,234.686 238.681,230.268 235.242,230.333 L235.242,230.333 Z" id="Shape"></path>
                    <path d="M254.08,254.398 C248.022,255.69 244.024,262.903 241.235,267.871 C238.025,273.587 236.027,280.1 235.194,286.589 C233.419,300.413 239.253,312.79 252.049,318.792 C256.529,320.895 262.484,315.494 264.843,312.349 C267.505,308.798 268.424,304.085 264.243,301.415 C261.871,299.901 257.626,303.164 256.196,304.716 C255.032,305.978 253.942,307.194 253.163,308.741 C252.651,309.608 252.278,310.533 252.045,311.515 C251.56,312.928 251.562,313.004 252.053,311.746 C256.318,309.599 260.583,307.449 264.846,305.303 C255.082,301.065 249.609,293.435 249.083,282.799 C248.631,273.688 252.859,265.758 256.445,257.75 C256.772,257.02 257.146,255.734 256.47,255.037 C255.798,254.34 255.03,254.194 254.08,254.398 L254.08,254.398 Z" id="Shape"></path>
                    <path d="M102.459,108.291 C114.718,106.916 126.924,101.387 138.293,96.853 C151.088,91.751 163.663,86.113 176.322,80.693 C188.572,75.449 200.854,70.262 213.363,65.659 C224.512,61.558 235.767,59.096 247.187,56.06 C249.799,55.366 252.151,53.778 253.707,51.545 C254.672,50.158 255.841,46.242 252.698,46.512 C241.303,47.488 229.738,52.105 219.107,56.097 C206.043,61.004 193.304,66.762 180.604,72.533 C167.946,78.284 155.288,84.021 142.459,89.386 C129.754,94.698 116.547,98.694 103.858,103.978 C102.435,104.57 98.894,108.69 102.459,108.291 L102.459,108.291 Z" id="Shape"></path>
                    <path d="M185.212,169.392 C199.575,165.155 213.368,158.962 227.066,152.967 C243.646,145.71 260.17,138.326 276.727,131.016 C291.697,124.404 306.704,117.856 321.877,111.722 C327.875,109.297 333.908,106.844 340.174,105.196 C345.78,103.72 352.185,102.427 356.66,98.576 C357.739,97.647 361.059,94.422 359.328,92.708 C356.074,89.49 347.777,93.385 344.22,95.081 C338.145,97.979 331.757,100.3 325.517,102.812 C310.015,109.054 294.724,115.822 279.458,122.617 C248.284,136.493 216.603,149.743 186.023,164.888 C184.566,165.609 181.749,170.414 185.212,169.392 L185.212,169.392 Z" id="Shape"></path>
                    <path d="M96.653,110.482 C96.611,111.097 96.727,111.033 97.004,110.293 C96.728,110.617 96.461,110.948 96.203,111.288 C95.548,112.133 95.288,113.08 95.724,114.052 C98.53,120.28 105.8,124.602 111.113,128.462 C119.382,134.469 128.028,139.964 136.716,145.34 C144.707,150.284 152.712,155.218 160.732,160.113 C163.457,161.775 166.192,163.418 168.935,165.049 C171.123,166.35 173.303,165.592 175.111,165.407 C176.823,165.233 180.292,162.655 179.727,160.6 C179.467,159.652 179.413,158.162 177.821,156.923 C175.525,155.137 172.465,153.999 169.893,152.647 C161.67,148.322 153.548,143.863 145.585,139.077 C130.44,129.973 115.678,120.417 102.342,108.792 C101.529,108.084 100.485,108.241 99.543,108.634 C98.851,108.922 99.837,109.133 99.286,108.673 C98.347,107.89 96.606,109.487 96.653,110.482 L96.653,110.482 Z" id="Shape"></path>
                    <path d="M258.877,46.692 C259.794,48.828 261.243,49.347 263.382,50.149 C266.631,51.367 269.728,52.917 272.914,54.278 C280.766,57.635 288.398,61.549 295.956,65.519 C303.248,69.351 310.416,73.418 317.465,77.681 C320.607,79.58 323.689,81.552 326.697,83.656 C329.015,85.278 330.838,88.644 333.736,88.615 C337.099,88.582 342.337,84.987 341.907,81.179 C341.88,80.93 341.851,80.681 341.823,80.432 C341.696,79.764 341.322,79.292 340.699,79.018 C334.62,77.165 329.033,72.701 323.551,69.553 C316.322,65.404 308.941,61.523 301.478,57.815 C294.139,54.169 286.661,50.818 279.023,47.839 C273.36,45.629 266.476,42.816 260.474,44.773 C259.947,44.945 258.564,45.966 258.877,46.692 L258.877,46.692 Z" id="Shape"></path>
                    <path d="M337.639,95.538 C340.224,95.538 342.77,93.67 344.196,91.622 C345.119,90.297 345.943,87.359 343.342,87.359 C340.757,87.359 338.211,89.228 336.784,91.275 C335.862,92.6 335.039,95.538 337.639,95.538 L337.639,95.538 Z" id="Shape"></path>
                    <path d="M3.945,134.622 C2.31,131.858 -0.078,135.529 0.299,137.631 C0.58,139.194 3.812,141.316 4.908,142.317 C7.693,144.86 10.741,147.142 13.729,149.436 C27.697,160.155 42.092,170.338 56.468,180.498 C82.187,198.677 109.042,215.853 133.339,235.939 C152.145,251.486 172.783,264.846 192.989,278.464 C203.1,285.278 213.224,292.077 223.151,299.159 C227.411,302.198 231.591,305.309 235.386,308.923 C238.836,312.208 241.586,315.601 246.092,317.286 C249.057,318.395 254.499,313.993 253.119,310.861 C251.33,306.805 247.686,304.94 244.049,302.546 C239.484,299.54 234.978,296.49 230.511,293.339 C220.58,286.335 210.408,279.677 200.234,273.032 C179.296,259.36 158.008,245.962 138.571,230.17 C114.639,210.725 88.116,194.159 62.805,176.592 C47.797,166.175 32.79,155.699 18.217,144.677 C14.7,142.017 11.17,139.373 7.672,136.688 C6.759,135.987 5.681,134.638 4.63,134.187 C2.897,133.443 0.539,136.09 2.902,135.882 C3.346,135.842 4.247,135.129 3.945,134.622 L3.945,134.622 Z" id="Shape"></path>
                    <path d="M279.621,275.317 C319.584,264.03 356.927,243.144 393.655,224.182 C413.292,214.043 432.952,203.948 453.012,194.668 C472.742,185.542 493.127,176.481 514.194,170.91 C515.715,170.51 521.518,165.12 517.572,165.059 C511.509,164.965 506.622,167.496 501.234,169.976 C500.176,170.463 497.194,174.143 500.084,173.513 C504.521,172.546 508.907,171.364 513.447,170.975 C514.296,169.11 515.143,167.244 515.991,165.377 C496.073,172.571 476.356,179.881 457.052,188.628 C437.492,197.489 418.347,207.244 399.244,217.045 C379.643,227.102 360.081,237.233 340.205,246.74 C320.679,256.083 300.658,264.262 280.587,272.339 C279.571,272.75 277.337,275.963 279.621,275.317 L279.621,275.317 Z" id="Shape"></path>
                    <path d="M286.831,284.612 C296.584,281.767 305.842,275.657 315.055,271.382 C325.079,266.729 335.18,262.253 345.343,257.907 C365.053,249.479 385.024,241.592 404.454,232.519 C422.645,224.025 440.054,213.943 457.938,204.837 C475.356,195.969 495.016,185.879 514.803,184.408 C517.146,184.234 519.28,182.859 520.62,180.934 C521.382,179.839 522.204,177.032 519.861,177.152 C514.622,177.421 509.671,179.531 506.225,183.573 C504.091,186.077 505.522,188.556 508.597,186.558 C510.524,185.306 512.493,184.604 514.802,184.408 C516.183,182.016 517.564,179.625 518.945,177.232 C499.208,181.603 480.776,188.648 462.664,197.581 C443.872,206.851 425.759,217.441 406.864,226.508 C387.058,236.011 366.506,243.994 346.307,252.616 C336.14,256.957 326.027,261.422 316.015,266.111 C306.293,270.666 295.211,275.096 286.854,281.913 C286.146,282.493 284.648,285.249 286.831,284.612 L286.831,284.612 Z" id="Shape"></path>
                    <path d="M40.525,107.555 C39.233,106.484 39.178,105.076 37.466,104.408 C36.048,103.853 34.511,103.556 33.01,103.331 C29.776,102.849 25.809,104.072 22.919,105.394 C15.713,108.686 10.163,114.63 6.368,121.487 C0.018,132.961 -2.322,148.591 3.377,160.735 C5.658,165.597 12.251,171.006 18.041,169.425 C22.57,168.189 30.6,164.024 29.539,158.061 C29.007,155.067 23.568,155.268 21.455,154.126 C11.747,148.886 13.023,131.395 16.256,122.712 C17.103,120.439 18.07,118.575 19.385,116.692 C20.309,115.37 21.336,114.531 22.152,114.039 C23.261,113.369 25.579,112.923 27.596,112.711 C30.215,112.437 33.535,111.983 36.09,112.205 C37.428,112.322 42.376,109.088 40.525,107.555 L40.525,107.555 Z" id="Shape"></path>
                    <path d="M59.413,124.502 C57.762,123.697 56.968,122.189 54.92,121.853 C53.018,121.54 50.896,121.73 49.046,122.265 C43.765,123.792 39.472,127.125 36.16,131.453 C30.464,138.894 29.918,149.292 30.618,158.245 C31.322,167.268 33.957,176.555 38.41,184.451 C40.039,187.345 42.202,189.986 45.154,191.604 C46.762,192.485 48.972,192.677 50.744,192.301 C53.3,191.76 55.608,190.642 57.66,189.012 C58.139,188.631 63.805,181.754 61.48,184.689 C63.762,181.807 63.046,177.836 58.768,178.689 C59.892,178.845 61.016,179.002 62.14,179.158 C61.452,178.406 60.593,178.03 59.562,178.03 C59.15,178.05 58.739,178.034 58.328,178.024 C57.114,177.996 59.681,178.437 58.473,178.063 C57.983,177.912 57.529,177.66 57.086,177.409 C56.293,176.961 56.518,177.078 55.357,175.892 C54.322,174.834 53.438,173.63 52.597,172.414 C48.797,166.92 46.502,160.439 44.939,153.992 C43.375,147.544 42.557,140.697 44.3,134.206 C44.366,133.958 45.583,131.414 45.293,131.881 C46.134,130.523 45.382,131.595 45.996,130.913 C46.371,130.497 46.342,130.65 46.023,130.855 C47.911,129.644 53.751,127.903 56.751,127.746 C57.669,127.7 61.198,125.371 59.413,124.502 L59.413,124.502 Z" id="Shape"></path>
                    <path d="M99.363,142.899 C93.84,139.207 85.583,145.36 81.695,148.904 C74.592,155.382 69.833,163.657 66.904,172.757 C62.746,185.679 62.482,207.625 79.778,210.515 C85.235,211.426 99.976,197.913 92.373,195.16 C87.785,193.497 84.343,191.526 82.442,186.716 C80.406,181.565 80.455,175.851 81.296,170.468 C83.028,159.379 88.22,150.455 98.214,145.433 C98.894,145.087 100.409,143.597 99.363,142.899 L99.363,142.899 Z" id="Shape"></path>
                    <path d="M134.035,121.224 C135.481,120.616 136.338,120.362 137.246,119.932 C138.839,119.178 140.47,118.5 142.102,117.834 C147.03,115.821 151.831,113.386 156.673,111.171 C169.271,105.406 182.038,99.976 194.903,94.842 C207.527,89.804 220.225,84.936 233.035,80.387 C237.669,78.741 242.323,77.148 247.019,75.686 C245.332,76.211 248.041,75.388 248.43,75.277 C249.181,75.061 249.937,74.859 250.694,74.664 C254.473,73.69 257.547,72.481 260.439,69.608 C261.745,68.314 263.772,65.61 263.187,63.564 C263.178,63.53 263.168,63.497 263.159,63.463 C262.576,61.421 260.555,61 258.666,61.445 C249.742,63.552 241.071,67.151 232.551,70.47 C219.477,75.564 206.531,80.992 193.655,86.565 C181.004,92.041 168.352,97.509 155.901,103.433 C148.047,107.169 138.391,111.246 132.582,117.984 C131.097,119.707 131.034,122.486 134.035,121.224 L134.035,121.224 Z" id="Shape"></path>
                    <path d="M163.008,138.702 C172.135,135.655 180.762,130.267 189.432,126.123 C198.879,121.605 208.527,117.527 218.184,113.485 C227.625,109.533 237.099,105.662 246.528,101.682 C251.191,99.714 255.833,97.696 260.446,95.616 C264.13,93.957 268.024,91.28 271.988,90.669 C277.135,89.875 283.454,84.641 284.42,79.378 C285.818,71.764 274.631,76.449 272.103,78.687 C269.681,80.831 266.473,82.037 262.602,83.815 C257.993,85.932 253.335,87.948 248.672,89.945 C238.733,94.201 228.717,98.277 218.777,102.53 C208.44,106.954 198.196,111.614 188.137,116.636 C178.613,121.39 168.643,126.584 160.917,134.033 C158.228,136.628 158.96,140.054 163.008,138.702 L163.008,138.702 Z" id="Shape"></path>
                    <path d="M184.46,147.934 C195.29,147.664 205.978,143.913 215.997,140.074 C227.095,135.82 237.85,130.701 248.526,125.498 C259.219,120.284 269.835,114.916 280.643,109.941 C285.723,107.604 290.861,105.396 296.049,103.312 C300.93,101.353 306.463,98.627 311.622,98.333 C315.266,98.125 318.641,95.875 320.707,92.907 C322.88,89.787 322.231,86.725 318.093,87.125 C313.789,87.54 309.734,89.634 305.942,91.601 C304.208,92.5 300.192,96.383 302.946,98.192 C305.131,99.628 309.159,98.412 311.624,98.334 C312.688,95.036 313.755,91.738 314.818,88.441 C309.809,90.945 304.312,92.466 299.096,94.513 C293.877,96.56 288.747,98.829 283.653,101.166 C272.877,106.105 262.322,111.525 251.719,116.823 C241.459,121.95 231.116,126.912 220.513,131.297 C209.373,135.902 197.85,139.322 186.522,143.398 C185.489,143.768 181.479,148.008 184.46,147.934 L184.46,147.934 Z" id="Shape"></path>
                    <path d="M40.587,104.936 C48.233,111.466 57.681,115.782 66.364,120.742 C76.427,126.489 86.424,132.363 96.352,138.341 C116.068,150.211 135.446,162.635 154.681,175.266 C173.899,187.885 192.873,200.869 211.861,213.829 C221.415,220.35 230.968,226.867 240.544,233.355 C245.001,236.376 249.463,239.384 253.931,242.386 C256.388,244.034 258.847,245.68 261.307,247.322 C263.286,248.642 267.537,250.424 268.424,252.774 C269.998,256.945 278.943,250.716 277.647,247.35 C275.835,242.645 269.323,244.441 265.371,245.051 C263.318,245.367 257.431,250.648 261.648,251.496 C264.641,252.1 267.252,253.57 270.206,254.121 C272.094,251.414 273.979,248.708 275.868,246.001 C273.208,245.795 270.717,243.594 268.562,242.206 C266.073,240.602 263.588,238.991 261.104,237.38 C256.583,234.445 252.072,231.496 247.565,228.544 C237.877,222.195 228.216,215.809 218.554,209.422 C199.344,196.723 180.116,184.05 160.82,171.481 C141.51,158.904 122.031,146.583 102.262,134.739 C92.805,129.073 83.275,123.529 73.614,118.221 C63.564,112.7 53.401,106.475 42.282,103.389 C41.731,103.236 39.926,104.371 40.587,104.936 L40.587,104.936 Z" id="Shape"></path>
                </g>
            </g>
        </g>
    </g>
</svg>