<?xml version="1.0" encoding="UTF-8"?>
<svg width="304px" height="530px" viewBox="0 0 304 530" version="1.1" xmlns="http://www.w3.org/2000/svg" xmlns:xlink="http://www.w3.org/1999/xlink">
    <!-- Generator: Sketch 41 (35326) - http://www.bohemiancoding.com/sketch -->
    <title>oil</title>
    <desc>Created with Sketch.</desc>
    <defs></defs>
    <g id="Page-1" stroke="none" stroke-width="1" fill="none" fill-rule="evenodd">
        <g id="Layer_1" transform="translate(-3330.000000, -2695.000000)" fill="#000000">
            <g id="Layer_1_3_">
                <g id="oil" transform="translate(3330.000000, 2695.000000)">
                    <path d="M180.162,405.593 C176.746,398.942 168.124,399.209 161.726,400.321 C152.547,401.917 143.957,406.187 136.493,411.669 C124.81,420.25 109.289,439.827 125.72,451.885 C132.408,456.792 142.78,456.302 150.525,455.246 C158.802,454.118 166.779,451.475 173.933,447.147 C186.216,439.719 203.454,418.045 187.513,405.594 C180.79,400.342 171.516,399.21 163.705,402.391 C161.278,403.379 157.298,407.957 161.087,410.004 C166.969,413.18 177.042,411.246 180.776,418.181 C183.469,423.182 179.471,428.825 176.325,432.518 C168.232,442.013 152.731,445.77 140.767,444.26 C134.985,443.531 129.694,440.679 129.818,434.233 C129.923,428.754 135.889,423.483 139.638,420.259 C149.721,411.587 163.249,405.318 176.451,409.547 C178.259,410.127 181.108,407.436 180.162,405.593 L180.162,405.593 Z" id="Shape"></path>
                    <path d="M213.35,435.656 C207.102,431.983 198.029,438.161 193.499,442.219 C186.867,448.159 182.557,456.282 179.753,464.611 C174.57,480.006 178.057,498.558 195.11,503.777 C207.74,507.641 220.272,498.85 227.446,489.195 C234.701,479.431 239.293,466 237.592,453.781 C236.636,446.909 233.339,440.668 227.17,437.172 C219.362,432.746 208.04,433.863 201.123,439.331 C198.824,441.148 198.054,445.448 201.563,446.312 C207.444,447.759 213.781,445.304 219.028,447.919 C222.671,449.734 224.818,453.677 225.514,457.651 C227.403,468.438 222.857,479.937 216.047,487.758 C213.522,490.658 209.698,493.154 205.365,493.598 C199.747,494.174 193.4,491.253 190.382,486.214 C182.447,472.97 190.367,450.911 202.848,443.155 C205.782,441.333 208.928,440.767 212.039,439.462 C213.296,438.935 215.198,436.742 213.35,435.656 L213.35,435.656 Z" id="Shape"></path>
                    <path d="M186.107,413.974 C203.662,408.016 220.476,403.792 239.147,403.441 C258.232,403.083 277.029,406.381 296.043,406.835 C296.885,402.902 297.729,398.969 298.57,395.036 C295.555,395.328 293.446,396.599 290.85,398.006 C288.582,399.234 287.247,402.357 289.533,404.153 C291.266,405.517 292.228,406.528 294.558,406.766 C298.009,407.12 301.326,405.101 302.803,401.96 C303.987,399.443 303.456,395.47 300.054,395.104 C280.254,392.973 259.581,392.224 239.704,393.378 C220.881,394.471 199.348,397.984 185.053,411.268 C183.911,412.332 184.125,414.647 186.107,413.974 L186.107,413.974 Z" id="Shape"></path>
                    <path d="M239.549,400.917 C233.852,404.95 229.82,410.554 226.247,416.48 C224.171,419.924 222.428,423.522 220.887,427.233 C220.269,428.725 219.737,430.256 219.225,431.788 C218.865,432.822 218.532,433.865 218.225,434.917 C217.592,436.739 217.614,436.965 218.289,435.594 C221.461,434.935 224.633,434.276 227.805,433.616 C228.055,434.245 228.305,434.873 228.554,435.501 C227.807,431.092 222.66,431.047 219.854,433.798 C218.081,435.536 216.721,437.343 216.795,439.943 C216.908,443.957 221.853,444.626 224.609,442.796 C228.236,440.387 229.056,438.061 229.872,433.975 C230.639,430.132 232,426.471 233.412,422.83 C236.092,415.916 239.988,409.451 242.036,402.307 C242.465,400.81 240.604,400.169 239.549,400.917 L239.549,400.917 Z" id="Shape"></path>
                    <path d="M219.625,397.131 C219.059,391.785 214.708,388.952 212.724,384.266 C211.422,381.191 207.355,380.27 204.639,378.776 C197.258,374.718 191.233,368.367 186.029,361.852 C180.413,354.821 175.962,346.928 173,338.429 C171.687,334.662 170.92,330.805 170.685,326.826 C170.581,325.073 170.705,323.365 170.976,321.635 C171.091,320.903 171.25,320.117 171.52,319.424 C172.181,317.719 171.224,319.648 170.601,320.043 C169.006,321.057 168.557,320.157 169.965,320.781 C171.088,321.279 172.096,322.044 173.067,322.783 C175.427,324.579 177.459,326.901 179.421,329.108 C183.633,333.847 187.333,339.027 191.004,344.187 C196.178,351.457 200.884,358.91 203.787,367.394 C205.253,371.677 205.999,376.11 206.594,380.582 C206.924,383.064 206.737,385.931 207.524,388.313 C208.115,390.099 207.976,392.82 208.35,388.774 C212.099,387.093 215.848,385.412 219.598,383.731 C219.534,383.631 219.469,383.531 219.405,383.431 C216.07,378.261 205.461,386.29 208.333,391.334 C208.392,391.438 208.451,391.542 208.511,391.646 C211.553,396.99 219.736,393.002 220.473,387.792 C220.889,384.852 219.548,381.075 219.23,378.107 C218.645,372.628 217.543,367.173 215.916,361.911 C212.912,352.199 206.986,343.507 201.036,335.386 C196.894,329.733 192.691,324.122 187.899,318.996 C183.729,314.534 178.136,309.164 171.518,309.742 C162.896,310.495 160.289,319.933 159.781,327.049 C159.121,336.266 162.732,345.819 166.833,353.876 C171.493,363.034 177.825,371.375 185.278,378.429 C190.57,383.438 201.096,392.993 209.089,390.112 C208.134,390.065 207.179,390.019 206.224,389.973 C209.836,392.43 212.231,396.577 215.303,399.618 C216.862,401.165 219.834,399.103 219.625,397.131 L219.625,397.131 Z" id="Shape"></path>
                    <path d="M254.382,376.126 C239.267,365.607 227.549,353.118 218.893,336.749 C211.936,323.595 207.84,308.742 207.446,293.837 C207.4,292.093 207.532,288.867 207.854,287.928 C208.199,287.209 208.168,287.182 207.764,287.846 C207.014,289.022 205.252,289.927 203.899,289.758 C204.229,289.799 205.702,290.693 206.342,291.215 C214.215,297.645 220.268,307.417 225.572,315.95 C231.533,325.541 236.367,335.846 241.135,346.064 C246.167,356.847 249.756,368.071 249.918,380.063 C250.026,388.019 262.46,382.525 262.373,376.071 C262.188,362.537 257.932,349.834 252.266,337.69 C246.59,325.527 240.501,313.58 233.17,302.32 C229.625,296.875 225.637,291.789 221.374,286.892 C218.667,283.783 215.242,280.168 211.245,278.779 C203.632,276.132 197.495,282.217 196.055,289.361 C194.583,296.661 196.12,304.718 197.555,311.894 C199.435,321.304 202.275,330.197 206.526,338.819 C211.459,348.826 217.907,358.101 225.561,366.21 C232.458,373.518 240.769,380.251 250.952,381.764 C253.663,382.167 257.308,378.163 254.382,376.126 L254.382,376.126 Z" id="Shape"></path>
                    <path d="M252.203,379.727 C251.397,383.852 252.639,387.77 254.37,391.545 C255.847,394.766 258.728,400.876 262.683,401.357 C266.185,401.782 270.845,398.053 269.381,394.218 C268.716,392.475 267.334,391.823 265.922,390.774 C264.539,389.746 263.343,388.4 262.151,387.165 C259.579,384.497 257.279,381.44 255.278,378.349 C254.432,377.042 252.395,378.739 252.203,379.727 L252.203,379.727 Z" id="Shape"></path>
                    <path d="M219.138,448.046 C203.564,446.28 193.638,460.67 191.807,474.609 C190.293,486.135 194.811,502.431 209.752,497.46 C224.476,492.562 244.621,459.827 223.934,450.547 C213.943,446.065 201.69,457.243 198.572,466.086 C196.136,472.994 194.16,483.442 198.006,490.171 C200.613,494.734 205.086,495.245 209.833,494.049 C215.181,492.701 218.802,487.364 221.356,482.901 C225.774,475.179 229.67,462.828 228.037,453.833 C227.531,451.045 225.897,449.922 223.122,449.868 C213.999,449.689 206.694,458.202 202.484,465.358 C198.427,472.254 194.865,481.857 199.088,489.511 C203.572,497.638 212.609,491.435 216.448,486.133 C220.515,480.516 224.007,472.917 224.887,465.995 C225.189,463.627 224.364,460.928 221.58,460.582 C212.931,459.51 205.368,466.793 200.994,473.481 C197.063,479.493 192.999,491.419 203.002,494.026 C219.585,498.348 225.932,469.883 223.206,458.531 C222.702,456.431 220.307,455.992 218.553,455.934 C210.353,455.663 202.701,464.631 198.68,470.764 C194.416,477.268 190.311,487.479 197.328,493.615 C204.612,499.985 213.775,491.57 218.033,485.712 C222.43,479.659 227.678,469.878 225.624,462.117 C222.951,452.018 212.671,453.499 206.393,459.245 C200.133,464.974 194.872,475.055 195.819,483.723 C196.252,487.684 197.827,492.397 201.648,494.27 C205.937,496.372 210.644,493.822 213.991,491.182 C220.753,485.85 225.288,475.293 225.001,466.786 C224.842,462.062 223.52,455.061 218.701,452.804 C213.733,450.475 208.201,453.574 204.579,456.941 C196.638,464.322 190.906,476.257 190.124,487.053 C189.804,491.479 190.991,496.214 195.134,498.506 C200.214,501.316 208.006,498.86 212.527,496.015 C219.641,491.536 224.054,482.855 226.523,475.101 C228.853,467.785 226.16,459.686 217.176,461.08 C204.444,463.058 197.896,476.841 201.753,488.583 C203.427,493.677 208.912,495.745 213.547,492.907 C220.796,488.468 223.403,479.356 223.458,471.364 C223.468,469.926 222.578,468.636 221.373,467.934 C210.568,461.636 204.088,478.954 202.83,486.797 C202.227,490.555 205.463,493.447 209.192,491.931 C215.087,489.533 219.284,485.258 220.777,478.974 C222.073,473.522 219.327,468.199 214.51,465.652 C211.624,464.126 207.425,465.944 205.774,468.554 C203.928,471.472 202.261,474.403 201.067,477.651 C200.052,480.411 200.292,483.919 203.835,484.553 C212.218,486.057 219.011,480.382 222.858,473.465 C225.56,468.606 227.297,459.97 222.649,455.663 C215.577,449.113 203.878,457.383 198.81,462.589 C189.477,472.175 188.26,485.473 188.227,498.194 C192.012,496.019 195.798,493.843 199.584,491.669 C196.479,489.081 194.327,485.758 191.961,482.523 C189.811,486.017 187.66,489.511 185.51,493.005 C192.473,491.888 198.625,489.671 203.882,484.82 C207.236,481.723 208.086,474.664 201.775,475.031 C196.487,475.339 191.624,477.348 186.478,478.397 C180.759,479.563 177.641,490.542 185.51,489.955 C187.565,489.802 189.553,489.347 191.608,489.193 C197.004,488.791 203.022,479.479 195.647,477.387 C193.626,476.814 191.57,476.435 189.549,475.862 C187.704,479.774 185.861,483.686 184.016,487.598 C210.014,492.522 229.104,465.328 219.354,441.785 C216.537,434.981 205.182,442.425 207.569,448.502 C208.408,450.64 209.535,452.582 210.618,454.6 C213.6,460.157 221.701,455.755 222.563,450.751 C222.875,448.938 223.855,447.3 224.086,445.416 C220.01,446.239 215.933,447.063 211.857,447.887 L211.857,454.746 C211.857,459.029 217.119,459.379 219.917,457.687 C221.491,456.737 222.92,455.588 224.491,454.638 C221.899,454.117 219.307,453.596 216.716,453.075 C218.069,456.163 218.66,458.553 217.076,461.643 C215.697,464.331 216.576,467.937 219.843,468.542 C223.312,469.186 226.639,466.636 228.141,463.705 C231.053,458.026 231.047,452.17 228.501,446.357 C227.144,443.258 223.299,443.239 220.726,444.794 C219.153,445.744 217.724,446.894 216.154,447.843 C218.841,448.823 221.527,449.804 224.214,450.784 L224.214,443.925 C224.214,436.477 212.65,440.993 211.985,446.396 C211.755,448.265 210.782,449.861 210.46,451.731 C214.442,450.448 218.424,449.165 222.405,447.882 C221.322,445.863 220.196,443.921 219.356,441.784 C215.427,444.023 211.5,446.262 207.571,448.501 C213.284,462.295 206.339,479.041 189.551,475.861 C183.322,474.681 176.229,485.386 184.018,487.597 C186.039,488.171 188.095,488.549 190.116,489.122 C191.463,485.186 192.808,481.252 194.155,477.316 C192.1,477.469 190.112,477.924 188.057,478.078 C187.735,481.931 187.411,485.783 187.089,489.636 C191.172,488.803 195.049,487.148 199.232,486.905 C198.53,483.642 197.827,480.379 197.125,477.116 C194.472,479.565 191.594,480.561 188.058,481.129 C183.644,481.838 178.251,487.024 181.607,491.611 C183.972,494.846 186.124,498.169 189.228,500.757 C193.82,504.584 200.572,499.593 200.585,494.232 C200.605,487.045 200.784,479.697 203.893,473.079 C205.286,470.113 207.708,468.023 210.445,466.341 C211.29,465.82 212.033,465.503 212.984,465.214 C212.869,465.249 213.664,465.542 212.587,465.116 C212.881,465.232 212.967,465.263 213.073,466.237 C213.179,467.21 212.868,468.931 212.657,469.509 C212.567,469.756 211.527,471.883 211.992,471.123 C211.827,471.393 210.168,473.332 211.095,472.406 C210.573,472.927 211.002,473.103 209.371,472.81 C210.294,475.111 211.217,477.412 212.139,479.712 C212.922,477.582 213.838,475.487 215.055,473.565 C212.143,474.533 209.231,475.5 206.319,476.467 C207.584,477.136 209.553,480.284 208.587,480.678 C210.708,482.39 212.829,484.101 214.949,485.812 C215.632,481.564 216.677,478.292 219.631,475.091 C217.161,476.213 214.691,477.335 212.22,478.458 C212.538,478.558 212.857,478.657 213.176,478.757 C212.481,477.614 211.785,476.47 211.091,475.327 C211.07,478.382 210.509,480.681 209.132,483.371 C208.85,483.921 208.311,484.31 209.099,483.538 C210.044,482.611 212.3,481.815 213.59,482.505 C214.373,482.923 213.825,482.651 213.38,481.292 C213.045,480.272 213.028,478.669 213.057,477.285 C213.073,476.49 213.462,474.874 213.619,474.46 C214.019,473.404 215.069,472.597 214.014,473.311 C214.201,473.185 215.885,472.873 215.201,472.623 C214.957,472.534 214.554,471.285 215.05,472.519 C214.907,472.165 215.018,473.362 214.977,473.643 C214.529,476.758 212.981,479.888 211.319,482.518 C210.697,483.501 209,485.72 208.828,485.895 C208.643,486.083 206.881,487.319 208.256,486.453 C208.961,486.011 206.786,487.04 206.44,487.162 C204.7,487.774 205.14,487.618 203.882,487.715 C203.444,487.749 203.522,487.731 203.358,487.655 C202.692,487.351 202.84,487.235 203.12,487.707 C202.925,487.377 202.794,487.011 202.663,486.652 C202.386,485.897 202.703,487.471 202.524,485.969 C202.079,482.213 203.597,478.084 205.376,474.115 C206.417,471.791 207.763,469.468 208.446,468.432 C209.087,467.462 209.786,466.535 210.512,465.629 C210.723,465.366 211.968,463.982 210.662,465.376 C211.109,464.899 211.59,464.458 212.08,464.026 C213.49,462.783 211.002,464.475 213.008,463.463 C212.055,463.943 211.462,463.973 211.233,463.936 C210.631,463.838 210.363,463.311 210.991,464.036 C211.836,465.01 210.513,463.008 211.176,464.308 C211.501,464.946 211.714,465.639 211.925,466.321 C212.78,469.093 212.752,472.031 212.052,474.866 C211.384,477.568 208.89,482.318 207.458,483.273 C209.062,482.203 209.836,484.222 208.88,481.981 C208.18,480.338 208.009,478.608 208.289,476.871 C208.882,473.196 210.847,469.835 213.175,467.001 C214.142,465.823 214.858,466.501 212.821,466.335 C212.675,466.322 213.655,468.558 213.582,468.067 C214.009,470.918 212.191,474.307 210.982,476.803 C209.798,479.247 207.29,483.008 205.94,483.898 C204.469,484.866 206.175,483.787 206.981,483.862 C207.264,483.888 207.913,484.63 206.666,483.473 C205.925,482.785 205.876,481.873 206.008,480.923 C206.504,477.356 208.975,474.191 211.204,471.516 C212.005,470.555 213.328,469.271 214.151,468.688 C214.044,468.764 216.294,467.517 215.266,467.944 C216.776,467.317 214.649,467.842 215.998,467.887 C214.447,467.022 212.895,466.156 211.345,465.29 C211.032,463.982 211.341,465.85 211.35,465.983 C211.421,466.959 211.375,467.945 211.334,468.921 C211.252,470.88 210.863,472.84 210.484,474.758 C210.082,476.787 209.53,478.762 208.744,480.673 C208.846,480.426 207.787,482.643 208.022,482.263 C207.433,483.211 206.469,483.614 207.732,482.854 C209.699,481.668 209.171,483.035 209.082,482.139 C208.955,480.852 210.086,479.07 210.733,477.893 C211.601,476.314 212.977,474.911 214.295,473.705 C214.973,473.086 216.914,472.498 216.02,472.388 C214.918,470.583 213.816,468.78 212.713,466.975 C212.275,470.437 210.938,473.667 209.485,476.812 C208.679,478.558 207.769,480.211 206.643,481.768 C205.322,483.596 207.369,481.27 205.943,482.57 C207.052,481.559 209.824,480.749 210.593,482.139 C208.336,478.059 210.484,473.319 212.37,469.578 C213.892,466.559 216.771,461.687 220.577,461.759 C218.938,460.438 217.301,459.115 215.662,457.794 C216.789,463.971 214.431,471.264 212.154,476.921 C211.591,478.32 210.962,479.794 210.165,481.078 C209.898,481.51 207.811,483.657 208.903,482.926 C209.773,482.344 208.673,480.713 208.522,479.186 C207.914,472.957 208.992,465.635 214.315,462.055 C217.902,459.641 220.035,465.509 220.057,468.215 C220.089,472.139 217.847,476.611 215.823,479.842 C214.321,482.24 212.493,484.341 210.236,485.746 C208.926,486.562 209.28,486.338 207.93,486.707 C208.727,486.489 207.123,486.482 207.55,486.644 C204.66,485.546 203.466,481.498 203.141,477.476 C202.391,468.21 206.376,456.957 216.419,456.003 C219.799,455.689 224.34,448.636 219.138,448.046 L219.138,448.046 Z" id="Shape"></path>
                    <path d="M170.014,416.753 C151.786,410.779 127.535,419.234 129.51,441.797 C133.645,440.472 137.78,439.146 141.914,437.82 C140.822,432.074 138.85,427.371 134.813,423.05 C131.709,426.38 128.606,429.71 125.502,433.04 C129.03,434.394 132.647,435.495 136.175,436.851 C138.47,433.079 140.766,429.306 143.062,425.535 C136.281,425.051 130.001,425.166 125.108,430.45 C121.064,434.815 123.899,440.035 127.881,442.845 C138.285,450.186 152.228,442.963 153.98,430.933 C154.367,428.281 153.352,426.258 150.683,425.537 C139.226,422.439 128.028,431.01 127.228,442.557 C127.091,444.53 128.889,446.102 130.65,446.457 C143.668,449.089 159.121,439.988 164.127,427.885 C165.611,424.299 164.046,420.77 159.856,420.897 C152.29,421.126 143.749,424.611 137.565,428.802 C130.92,433.306 124.744,442.52 132.808,448.939 C140.119,454.756 150.622,450.299 157.875,446.624 C165.564,442.726 174.645,436.599 178.605,428.648 C179.572,426.708 179.648,423.165 177.166,422.196 C168.825,418.939 158.105,421.717 150.319,425.327 C141.624,429.358 132.966,439.1 139.681,448.642 C145.786,457.319 159.538,449.231 165.544,444.918 C172.66,439.809 181.472,432.201 183.694,423.311 C184.327,420.782 182.897,418.51 180.404,417.926 C167.336,414.863 147.358,422.302 144.134,436.489 C143.638,438.676 144.799,441.745 147.424,441.873 C157.422,442.36 167.001,437.082 172.363,428.597 C174.09,425.866 174.972,420.914 170.492,420.216 C159.856,418.559 148.576,425.727 146.424,436.489 C145.957,438.821 147.069,441.553 149.712,441.871 C157.432,442.796 168.108,439.995 173.084,433.694 C175.738,430.333 176.662,425.973 174.156,422.265 C171.731,418.676 167.385,418.285 163.393,418.667 C155.709,419.403 142.877,424.471 141.853,433.438 C140.577,444.603 153.107,444.856 160.687,442.489 C168.361,440.093 181.166,429.583 175.099,420.59 C168.548,410.879 153.769,420.002 148.368,425.846 C145.596,428.846 144.072,434.616 147.634,437.59 C151.745,441.027 158.22,440.153 163.022,438.894 C170.234,437.002 180.582,427.019 177.595,418.804 C174.252,409.609 158.824,418.468 155.806,423.703 C151.986,430.33 160.114,433.349 165.007,433.872 C170.996,434.511 178.247,434.032 183.361,430.514 C190.956,425.289 191.067,417.407 185.049,410.916 C180.747,406.276 174.021,412.736 173.802,417.379 C173.682,419.93 173.162,422.439 173.041,425 C172.699,432.236 182.896,427.707 184.635,424.061 C188.122,416.746 186.647,409.225 181.233,403.299 C177.34,399.039 171.368,404.379 170.122,408.28 C168.511,413.325 169.261,418.418 171.046,423.31 C173.535,430.13 182.982,423.013 182.981,418.032 C182.98,416.254 182.98,414.474 182.979,412.697 C179.002,414.456 175.025,416.215 171.048,417.974 C171.423,418.815 171.734,419.679 171.979,420.567 C172.256,421.449 171.649,422.278 172.443,421.037 C172.561,420.851 170.599,422.089 170.088,422.356 C166.184,424.398 162.42,426.235 159.011,429.096 C152.421,434.626 159.244,442.347 165.771,436.799 C169.807,433.368 175.123,431.933 179.251,428.546 C184.653,424.117 185.13,417.435 182.697,411.333 C180.013,404.601 170.767,411.565 170.766,416.61 C170.765,418.389 170.765,420.169 170.764,421.947 C174.743,420.187 178.72,418.428 182.699,416.669 C181.519,413.432 181.03,410.643 182.097,407.309 C178.393,408.97 174.69,410.63 170.986,412.29 C173.489,415.031 175.431,418.351 173.681,422.017 C177.546,421.704 181.41,421.391 185.275,421.078 C185.397,418.527 185.918,416.017 186.04,413.455 C182.291,415.609 178.542,417.764 174.793,419.918 C175.515,420.697 176.188,421.491 176.812,422.352 C176.837,422.387 177.564,424.512 177.366,423.375 C177.468,423.953 177.365,423.072 178.102,421.996 C178.454,421.483 179.909,420.691 178.457,421.475 C179.987,420.649 178.06,421.575 177.651,421.7 C176.132,422.168 177.541,421.827 175.915,422.058 C174.256,422.293 171.669,422.327 171.04,422.283 C169.561,422.182 168.09,421.936 166.664,421.528 C167.971,421.902 166.389,421.341 166.038,421.116 C168.176,422.492 167.11,425.842 165.172,427.867 C165.683,427.333 163.795,428.632 165.558,427.708 C164.659,428.179 167.198,427.082 167.769,427.002 C166.793,427.139 165.504,425.258 165.779,424.825 C165.196,425.744 164.451,426.593 163.54,427.2 C162.488,427.9 161.872,427.868 160.569,428.048 C159.756,428.156 158.941,428.185 158.124,428.134 C155.385,427.911 159.733,427.787 157.542,430.804 C158.653,429.275 162.758,427.318 164.429,428.995 C163.605,428.168 164.316,428.411 162.836,429.875 C162.372,430.335 162.236,430.441 160.991,430.938 C158.959,431.751 156.067,432.656 154.01,431.547 C153.969,431.526 154.126,432.328 153.527,433.154 C153.134,433.695 155.573,432.121 155.968,431.924 C158.166,430.831 161.202,430.111 163.622,430.618 C162.927,430.472 163.62,428.765 164.541,427.854 C164.528,427.866 162.813,428.697 162.078,428.955 C160.009,429.679 156.867,430.32 155.25,430.126 C156.347,431.92 157.442,433.714 158.538,435.508 C159.152,432.438 162.097,431.515 164.958,431.961 C164.335,429.167 163.711,426.374 163.087,423.58 C160.937,426.982 157.314,430.336 152.964,430.124 C154.061,431.918 155.157,433.713 156.254,435.508 C156.845,432.904 160.551,431.644 162.783,430.82 C166.602,429.409 170.87,428.742 174.867,429.678 C173.77,427.883 172.673,426.088 171.577,424.293 C171.425,424.9 171.8,423.914 171.051,425.31 C171.253,424.934 169.704,427.12 169.288,427.644 C167.416,430.006 165.184,432.043 162.906,434.004 C160.529,436.049 157.982,437.76 155.206,439.215 C153.736,439.985 151.601,440.539 150.969,440.282 C149.956,439.869 149.729,437.719 149.362,438.31 C150.095,437.128 152.204,435.98 154.312,435.149 C157.16,434.027 160.135,433.354 163.166,432.99 C164.576,432.82 165.996,432.778 167.415,432.796 C167.586,432.798 169.807,433.362 168.959,433.031 C168.48,430.881 167.999,428.73 167.52,426.579 C167.285,427.052 166.096,428.336 164.661,429.63 C162.65,431.443 160.456,432.988 158.173,434.435 C154.17,436.969 148.452,440.459 143.483,439.653 C142.484,439.491 141.385,437.545 141.25,438.364 C141.143,439.007 140.326,439.69 141.46,438.669 C142.353,437.866 143.492,437.304 144.609,436.694 C148.392,434.631 153.087,432.933 157.306,432.805 C155.882,430.475 154.458,428.146 153.035,425.817 C150.484,431.979 142.715,436.001 136.205,434.684 C137.346,435.984 138.486,437.284 139.627,438.584 C139.801,436.079 143.398,436.843 145.137,437.313 C144.037,435.514 142.939,433.716 141.84,431.917 C141.739,432.604 141.201,434.473 141.36,434.24 C141.98,433.327 142.44,433.576 141.592,433.824 C141.609,433.819 139.125,433.514 138.119,433.094 C137.248,432.729 136.441,432.23 135.672,431.686 C136.439,432.228 134.781,429.961 135.477,431.442 C136.483,433.585 133.812,437.055 131.724,437.474 C133.608,437.096 135.613,437.18 137.514,437.315 C140.476,437.527 143.123,436.34 144.944,433.94 C146.471,431.926 147.674,427.256 144.401,425.999 C140.874,424.644 137.257,423.541 133.73,422.186 C128.795,420.291 119.684,427.107 124.419,432.176 C127.066,435.01 128.783,437.953 129.514,441.797 C131.021,449.731 142.48,444.24 141.918,437.82 C141.383,431.698 142.615,428.515 148.503,426.574 C154.567,424.573 161.5,424.35 167.791,423.265 C170.641,422.773 174.172,418.117 170.014,416.753 L170.014,416.753 Z" id="Shape"></path>
                    <path d="M52.521,10.533 C48.238,26.43 53.384,43.929 56.638,59.539 C58.016,66.146 68.405,59.325 68.25,54.402 C68.191,52.536 67.932,51.168 67.456,49.372 C67.131,48.144 65.846,47.446 64.724,47.179 C58.433,45.681 56.504,53.615 56.364,58.212 C60.235,56.5 64.105,54.788 67.976,53.075 C65.705,46.18 63.536,39.25 61.811,32.196 C59.969,24.662 59.639,16.957 58.151,9.395 C57.46,5.888 53.17,8.125 52.521,10.533 L52.521,10.533 Z" id="Shape"></path>
                    <path d="M53.828,13.545 C61.645,13.732 69.538,12.392 77.313,11.687 C86.215,10.879 95.169,10.684 104.103,10.581 C113.131,10.477 122.161,10.675 131.186,10.896 C139.861,11.108 149.193,10.404 157.772,11.687 C156.729,10.499 155.686,9.311 154.644,8.123 C156.434,21.456 156.112,34.89 157.181,48.271 C160.935,46.114 164.689,43.958 168.442,41.8 C166.987,40.538 165.645,39.52 163.825,38.868 C159.692,37.389 153.852,41.504 155.462,46.207 C156.05,47.924 156.983,49.439 158.173,50.813 C162.099,55.349 169.752,49.111 169.434,44.342 C168.546,31.056 168.063,17.655 165.971,4.49 C165.61,2.216 163.943,0.531 161.474,0.863 C152.931,2.012 143.726,1.067 135.109,0.984 C125.452,0.891 115.795,0.86 106.138,1.088 C89.048,1.492 69.24,1.77 53.598,9.449 C51.724,10.372 51.232,13.483 53.828,13.545 L53.828,13.545 Z" id="Shape"></path>
                    <path d="M59.647,59.253 C60.54,61.794 63.786,61.543 66.005,61.655 C70.038,61.86 74.068,61.965 78.106,62.086 C86.91,62.352 95.741,62.332 104.548,62.281 C121.796,62.18 139.754,61.948 156.608,57.859 C164.821,55.867 163.436,42.858 154.448,47.443 C152.438,48.467 150.924,50.105 149.419,51.746 C148.45,52.802 147.971,55.003 149.081,56.138 C150.263,57.346 151.942,57.786 153.574,58.105 C154.386,54.321 155.196,50.538 156.007,46.753 C138.237,51.064 120.09,51.816 101.866,52.319 C97.739,52.434 57.169,52.198 59.647,59.253 L59.647,59.253 Z" id="Shape"></path>
                    <path d="M73.567,60.865 C73.998,73.193 76.139,85.386 76.598,97.736 C76.977,107.937 78.147,122.234 71.967,131.033 C66.746,138.467 57.206,142.661 49.61,147.138 C40.32,152.614 32.169,158.787 25.862,167.632 C17.977,178.689 14.431,192.009 12.395,205.247 C10.165,219.738 8.452,234.462 7.032,249.053 C3.91,281.123 4.012,313.381 4.095,345.569 C4.13,359.179 3.961,372.676 3.005,386.257 C2.063,399.643 0.909,413.013 0.641,426.437 C0.142,451.375 3.258,477.646 19.087,497.888 C23.039,502.942 32.51,495.2 30.245,489.923 C28.306,485.404 25.596,484.628 21.15,483.396 C17.989,482.519 14.393,486.547 15.378,489.547 C16.206,492.069 17.33,494.276 18.368,496.693 C22.088,494.038 25.806,491.382 29.526,488.728 C14.519,469.562 12.625,444.419 13.08,420.959 C13.57,395.755 16.543,370.77 16.472,345.528 C16.381,313.036 16.088,280.465 19.092,248.076 C20.446,233.478 22.205,218.809 24.231,204.289 C26.083,191.019 29.67,178.5 38.15,167.892 C44.278,160.225 54.272,155.794 62.441,150.739 C71.008,145.436 79.307,138.929 83.523,129.516 C88.297,118.853 86.68,104.474 85.691,93.195 C84.68,81.664 83.242,68.896 76.766,59.028 C75.791,57.539 73.524,59.658 73.567,60.865 L73.567,60.865 Z" id="Shape"></path>
                    <path d="M138.726,57.012 C134.942,63.707 134.627,73.169 133.906,80.701 C133.028,89.847 132.462,99.028 132.943,108.215 C133.366,116.293 134.966,124.714 139.057,131.778 C142.761,138.177 148.036,143.013 153.909,147.394 C165.372,155.945 177.529,161.963 183.379,175.881 C187.299,185.206 189.652,195.652 191.586,205.547 C193.562,215.659 194.575,225.985 194.13,236.287 C197.915,234.112 201.701,231.936 205.487,229.762 C204.27,228.569 203.048,227.554 201.972,226.213 C198.315,221.649 190.233,228.599 191.998,233.332 C192.747,235.338 193.648,237.28 195.127,238.852 C199.488,243.488 206.278,237.055 206.484,232.327 C207.355,212.381 202.8,192.376 196.722,173.495 C191.742,158.027 180.817,149.13 167.77,140.457 C162.309,136.827 157.202,132.997 153.009,127.902 C147.839,121.618 145.911,113.79 144.937,105.876 C143.824,96.833 144.249,87.639 144.51,78.56 C144.698,72.02 146.15,61.453 141.785,56.009 C140.87,54.864 139.22,56.138 138.726,57.012 L138.726,57.012 Z" id="Shape"></path>
                    <path d="M26.929,499.07 C26.117,509.228 41.442,512.264 48.751,513.346 C59.098,514.879 69.612,514.299 80.028,514.273 C96.334,514.232 112.64,514.28 128.947,514.284 C135.934,514.286 142.975,514.544 149.955,514.187 C152.207,514.072 154.455,513.875 156.707,513.74 C157.7,513.679 158.693,513.652 159.689,513.638 C163.666,513.583 157.737,514.595 158.407,509.703 C158.031,512.454 159.553,514.071 162.276,514.113 C166.639,514.179 173.094,507.282 168.675,503.463 C165.12,500.391 159.029,501.775 154.739,502.079 C138.634,503.22 122.206,502.332 106.063,502.336 C91.836,502.339 77.557,502.756 63.334,502.385 C57.266,502.227 51.254,501.666 45.313,500.381 C40.067,499.244 35.172,496.249 29.794,496.022 C28.2,495.955 27.04,497.686 26.929,499.07 L26.929,499.07 Z" id="Shape"></path>
                    <path d="M180.913,195.177 C183.673,185.334 176.023,175.682 168.713,169.944 C159.904,163.032 149.893,159.165 139.13,156.43 C118.654,151.229 96.408,152.933 77.63,162.837 C58.609,172.869 45.884,191.279 38.417,210.973 C34.62,220.988 33.705,232.41 32.305,242.936 C28.801,269.274 26.513,295.858 25.292,322.397 C24.819,332.654 24.445,342.989 25.073,353.247 C25.306,357.065 25.336,366.942 30.927,367.357 C33.938,367.581 36.762,365.973 38.069,363.195 C39.062,361.085 38.66,357.478 35.689,357.257 C36.825,357.341 37.395,359.31 36.71,357.303 C36.28,356.045 36.215,355.324 35.966,353.061 C35.37,347.632 35.374,342.125 35.403,336.672 C35.487,320.533 36.571,304.389 37.848,288.307 C39.166,271.699 40.869,255.108 43.095,238.596 C43.92,232.471 44.834,226.353 46.009,220.284 C46.401,218.26 46.839,216.242 47.359,214.246 C47.552,213.503 47.77,212.767 48.007,212.037 C47.54,213.475 47.863,212.489 47.987,212.18 C48.716,210.35 49.405,208.511 50.17,206.696 C60.568,182.03 81.162,165.347 108.158,163.4 C121.628,162.428 136.468,164.834 149.035,169.753 C155.445,172.263 161.412,175.536 166.76,179.892 C172.287,184.396 175.067,189.779 177.743,196.199 C178.446,197.881 180.599,196.295 180.913,195.177 L180.913,195.177 Z" id="Shape"></path>
                    <path d="M28.435,367.28 C50.309,370.553 72.751,371.473 94.815,372.843 C105.872,373.53 116.942,374.024 128.018,374.203 C138.478,374.373 148.896,373.432 159.329,373.436 C165.065,373.438 168.967,363.181 161.527,363.178 C159.175,363.177 157.071,363.798 155.033,364.975 C153.333,365.958 150.63,369.493 152.802,371.383 C154.811,373.131 156.722,373.437 159.329,373.436 C165.065,373.434 168.967,363.175 161.527,363.178 C151.718,363.182 141.906,364.067 132.073,363.991 C120.599,363.904 109.135,363.34 97.684,362.638 C75.623,361.286 53.288,358.283 31.168,359.287 C27.615,359.45 23.327,366.514 28.435,367.28 L28.435,367.28 Z" id="Shape"></path>
                    <path d="M92.564,59.448 C87.793,77.788 92.786,97.375 92.647,116.002 C92.585,124.351 91.886,133.775 86.625,140.617 C82.035,146.583 74.678,150.34 68.32,154.072 C61.909,157.836 55.516,161.693 50.005,166.726 C44.127,172.094 40.705,178.861 38.088,186.282 C35.083,194.802 33.474,203.732 32.401,212.679 C31.877,217.054 31.546,221.45 31.36,225.851 C31.155,230.716 31.946,235.058 32.654,239.836 C32.948,241.813 35.717,240.655 35.926,239.175 C37.203,230.154 38.035,221.212 39.043,212.141 C40.077,202.828 41.864,193.472 45.153,184.677 C48.123,176.736 52.774,171.007 59.67,166.139 C66.139,161.574 73.264,158.021 79.871,153.667 C85.379,150.037 90.717,145.67 94.036,139.868 C97.954,133.018 98.795,124.805 99.073,117.055 C99.774,97.555 94.943,78.295 96.086,58.735 C96.217,56.497 92.92,58.08 92.564,59.448 L92.564,59.448 Z" id="Shape"></path>
                    <path d="M29.221,374.476 C25.35,387.284 25.496,401.379 25.148,414.655 C24.797,428.024 25.676,441.459 28.157,454.608 C31.33,471.428 40.411,484.357 56.348,491.264 C71.606,497.877 88.996,498.394 105.364,497.916 C113.181,497.688 120.981,497.055 128.771,496.391 C137.411,495.655 147.453,492.763 155.793,496.265 C162.371,499.027 171.33,489.508 164.82,484.349 C158.082,479.008 146.326,481.063 138.467,482.019 C130.75,482.957 122.981,483.52 115.22,483.959 C99.798,484.834 84.128,484.665 69.229,480.143 C54.773,475.756 45.289,465.17 41.764,450.626 C38.601,437.568 37.632,424.262 36.904,410.886 C36.232,398.551 37.578,384.937 33.338,373.149 C32.518,370.872 29.63,373.123 29.221,374.476 L29.221,374.476 Z" id="Shape"></path>
                    <path d="M196.421,243.769 C192.793,251.475 193.353,261.267 194.33,269.543 C195.387,278.485 209.472,272.29 208.283,265.07 C207.594,260.882 206.52,256.776 205.718,252.609 C204.987,248.815 204.162,245.197 202.008,241.936 C200.565,239.752 197.143,242.237 196.421,243.769 L196.421,243.769 Z" id="Shape"></path>
                    <path d="M171.872,506.049 C171.897,506.193 171.907,506.336 171.901,506.482 C172.099,505.558 172.297,504.634 172.495,503.711 C171.285,506.454 171.61,509.982 173.749,512.185 C175.315,513.798 177.567,513.999 179.634,513.339 C180.863,512.933 181.964,512.3 182.935,511.441 C184.166,510.361 185.655,508.507 185.803,506.782 C185.981,504.707 185.884,502.447 184.963,500.514 C180.795,503.49 176.626,506.466 172.458,509.442 C173.999,511.084 175.083,513.238 177.329,514.073 C178.304,514.566 179.337,514.761 180.427,514.656 C182.323,514.502 184.118,513.607 185.533,512.367 C187.868,510.317 190.085,505.918 187.508,503.151 C186.333,501.89 185.385,500.405 184.157,499.174 C181.968,496.981 178.706,497.308 176.181,498.748 C174.42,499.753 172.924,501.302 172.058,503.143 C171.412,504.515 170.902,506.643 171.652,508.102 C171.963,508.706 172.346,509.272 172.704,509.851 C172.436,509.408 172.17,508.964 171.903,508.52 C172.324,509.22 172.741,509.946 172.948,510.741 C172.845,510.246 172.743,509.751 172.641,509.256 C172.653,509.316 172.664,509.375 172.677,509.434 C175.876,506.626 179.076,503.819 182.276,501.011 C182.047,500.97 181.824,500.909 181.606,500.829 C182.068,500.99 182.531,501.15 182.994,501.311 C182.756,501.205 182.556,501.097 182.349,500.941 C182.715,501.232 183.081,501.523 183.448,501.815 C183.309,501.68 183.199,501.55 183.092,501.39 C183.327,501.782 183.564,502.173 183.8,502.566 C182.937,501.045 182.194,499.382 180.131,499.261 C180.538,499.404 180.946,499.544 181.355,499.687 C180.822,499.492 180.293,499.28 179.742,499.145 C176.157,498.267 171.425,502.353 171.872,506.049 L171.872,506.049 Z" id="Shape"></path>
                    <path d="M169.652,322.42 C159.7,330.617 163.335,344.645 167.781,354.791 C172.415,365.368 180.128,377.557 190.165,383.774 C193.967,386.128 199.939,381.748 200.429,377.81 C201.745,367.208 197.011,356.354 192.552,346.996 C188.009,337.461 182.325,327.021 174.474,319.773 C169.961,315.608 163.261,321.204 163.146,326.282 C162.599,350.42 182.419,372.907 200.957,386.051 C205.263,389.104 212.518,382.762 211.873,378.202 C210.437,368.067 206.627,358.398 202.065,349.294 C197.611,340.405 192.209,331.252 184.893,324.405 C180.344,320.148 172.159,325.768 172.646,331.442 C174.337,351.125 190.97,364.845 198.555,382.155 C201.812,389.588 212.784,382.212 212.388,376.037 C212.099,371.529 210.386,368.84 206.134,367.256 C201.521,365.536 195.023,370.242 196.803,375.444 C197.366,377.091 198.126,378.867 198.228,380.576 C202.839,378.537 207.45,376.497 212.061,374.458 C208.205,366.295 202.715,359.08 197.473,351.778 C192.222,344.463 186.744,336.395 185.97,327.171 C181.888,329.517 177.805,331.862 173.723,334.208 C180.376,340.463 185.172,348.505 189.301,356.569 C193.413,364.601 197.366,373.428 198.743,382.411 C202.382,379.795 206.02,377.179 209.659,374.562 C193.422,363.345 174.856,343.395 175.47,322.331 C171.694,324.501 167.918,326.67 164.142,328.84 C171.076,335.333 175.861,344.221 180.061,352.617 C183.708,359.912 189.235,370.368 188.187,378.803 C191.608,376.815 195.029,374.826 198.451,372.839 C190.426,367.986 184.433,358.552 180.096,350.495 C177.629,345.915 175.424,341.137 174.144,336.08 C173.268,332.621 172.155,328.085 174.019,324.812 C175.826,321.637 171.63,320.792 169.652,322.42 L169.652,322.42 Z" id="Shape"></path>
                    <path d="M215.154,290.478 C200.682,294.686 210.26,317.938 214.363,327.086 C220.788,341.415 228.868,355.247 237.692,368.234 C241.222,373.43 251.037,366.208 250.005,361.159 C247.321,348.018 242.799,335.328 237.391,323.071 C232.368,311.689 226.157,298.961 216.609,290.654 C212.983,287.501 207.392,290.216 205.644,294.25 C199.452,308.544 205.869,325.37 212.486,338.334 C218.824,350.751 228.424,366.396 241.742,372.333 C246.973,374.665 253.272,369.539 253.193,364.1 C253.037,353.282 248.197,342.812 243.108,333.501 C237.811,323.81 231.526,314.419 224.104,306.22 C220.074,301.767 212.292,307.036 211.533,311.856 C209.378,325.54 215.178,338.499 222.069,349.983 C229.303,362.039 238.224,372.883 247.361,383.525 C251.983,388.909 263.21,380.426 260.073,374.451 C257.326,369.219 254.372,365.143 249.059,362.354 C244.897,360.168 237.733,365.75 239.909,370.384 C241.847,374.509 244.395,378.16 246.542,382.163 C250.779,379.138 255.017,376.113 259.254,373.089 C251.308,364.002 243.538,354.774 236.807,344.735 C230.475,335.292 223.197,322.607 225.082,310.758 C220.892,312.637 216.701,314.516 212.511,316.394 C219.245,323.861 224.912,332.319 229.757,341.113 C234.304,349.367 239.145,358.91 239.422,368.514 C243.238,365.77 247.056,363.026 250.873,360.281 C239.599,355.46 231.369,342.524 225.641,332.274 C220.527,323.123 212.154,307.037 216.971,296.364 C213.316,297.562 209.661,298.76 206.006,299.96 C214.846,307.949 220.068,319.564 224.724,330.293 C229.84,342.078 234.065,354.413 236.919,366.949 C240.92,364.093 244.922,361.236 248.923,358.38 C241.597,348.128 235.048,337.267 228.96,326.244 C225.394,319.788 222.089,313.096 219.401,306.223 C218.463,303.827 217.521,301.363 217.163,298.802 C217.047,297.967 216.901,296.698 216.986,296.122 C217.132,295.127 217.76,294.506 217.008,295.247 C219.002,293.284 218.698,289.448 215.154,290.478 L215.154,290.478 Z" id="Shape"></path>
                    <path d="M56.44,31.621 C54.057,53.618 87.205,52.902 101.585,52.35 C113.659,51.886 125.678,50.128 137.479,47.579 C145.33,45.882 154.476,43.911 161.206,39.268 C158.498,38.28 155.79,37.291 153.082,36.303 C153.108,37.963 153.324,35.25 153.061,36.82 C152.899,37.782 153.52,36.058 152.743,37.553 C153.735,35.645 151.815,38.395 153.394,36.71 C153.136,36.985 151.305,38.389 152.762,37.377 C150.112,39.218 147.725,39.826 143.974,40.754 C134.869,43.009 125.104,43.206 115.775,43.427 C105.601,43.668 95.422,43.41 85.251,43.183 C78.21,43.026 70.952,42.413 64.013,43.822 C58.353,44.971 55.406,55.298 63.068,55.104 C82.231,54.618 101.388,56.03 120.554,55.142 C134.794,54.482 165.872,52.841 165.536,32.312 C165.469,28.168 160.228,27.404 157.412,29.347 C154.55,31.322 154.38,31.164 151.099,32.337 C147.042,33.787 142.851,34.867 138.66,35.847 C128.365,38.252 117.793,39.622 107.25,40.303 C97.646,40.922 87.916,40.799 78.469,38.801 C73.005,37.645 65.555,34.929 64.075,29.162 C63.042,25.145 56.743,28.834 56.44,31.621 L56.44,31.621 Z" id="Shape"></path>
                    <path d="M30.897,504.583 C30.087,507.752 29.377,510.832 29.661,514.117 C29.762,515.278 30.349,516.793 31.564,517.248 C36.768,519.196 42.618,519.518 48.116,520.187 C54.017,520.906 59.97,521.322 65.898,521.733 C78.543,522.61 91.223,522.983 103.895,523.106 C129.285,523.353 154.67,522.332 180.032,521.257 C183.981,521.09 187.511,517.187 187.5,513.32 C187.488,508.932 186.608,506.762 183.5,503.749 C181.644,501.95 178.539,501.895 176.421,503.371 C169.346,508.303 159.79,508.599 151.472,508.899 C140.546,509.295 129.613,508.461 118.712,507.841 C106.806,507.165 94.881,507.314 82.96,507.095 C67.169,506.805 51.381,506.357 35.587,506.337 C31.737,506.332 27.946,510.547 28.098,514.295 C28.8,531.653 49.914,525.642 60.689,523.629 C71.46,521.618 83.259,522.899 94.152,523.16 C100.381,523.309 106.596,523.329 112.822,523.608 C126.92,524.242 141.025,524.996 155.143,524.791 C164.339,524.658 181.186,525.535 185.884,515.345 C188.322,510.059 183.011,506.583 178.41,509.344 C175.261,511.234 172.005,512.664 168.932,514.711 C165.85,516.766 163.956,522.584 169.378,522.64 C174.164,522.69 178.03,521.734 182.204,519.266 C179.713,517.266 177.222,515.266 174.73,513.265 C175.104,512.453 177.253,510.673 176.752,510.967 C175.993,511.413 177.885,510.595 176.077,511.169 C174.292,511.736 173.201,511.824 170.887,512.099 C165.105,512.786 159.24,512.848 153.425,512.867 C141.022,512.909 128.624,512.261 116.237,511.694 C101.294,511.01 86.206,510.547 71.259,511.028 C64.426,511.248 58.055,512.943 51.347,514.008 C47.311,514.649 40.743,515.922 40.515,510.315 C38.019,512.967 35.522,515.62 33.026,518.273 C61.292,518.302 89.835,518.248 118.051,519.905 C129.199,520.559 140.376,521.214 151.545,520.702 C161.186,520.261 172.072,518.903 180.191,513.24 C177.832,513.114 175.472,512.988 173.112,512.862 C175.304,514.985 175.103,514.229 175.112,517.291 C177.601,514.645 180.091,512 182.58,509.354 C158.439,510.381 134.291,511.306 110.125,511.241 C97.818,511.208 85.514,510.87 73.23,510.109 C67.278,509.741 61.335,509.235 55.403,508.634 C49.193,508.006 42.703,506.621 36.467,506.879 C37.657,507.303 38.847,507.727 40.037,508.15 C38.755,506.464 38.237,504.402 37.624,502.412 C36.477,498.681 31.463,502.366 30.897,504.583 L30.897,504.583 Z" id="Shape"></path>
                    <path d="M36.803,526.498 C45.393,529.261 55.602,528.143 64.471,527.75 C74.135,527.322 83.787,526.685 93.442,526.092 C113.272,524.874 132.888,525.743 152.698,526.984 C158.119,527.323 163.097,528.159 169.119,529.062 C174.158,529.817 180.522,530.941 185.205,528.269 C190.636,525.17 194.806,516.382 190.403,510.852 C185.865,505.154 176.218,506.695 173.707,513.636 C173.127,515.24 173.075,516.792 174.642,517.826 C175.911,518.663 178.444,518.491 179.373,519.273 C180.114,519.897 184.856,517.797 180.942,517.883 C176.586,517.978 172.03,516.822 167.751,516.113 C155.598,514.097 142.868,514.151 130.574,513.664 C115.059,513.05 99.725,514.099 84.27,515.408 C76.498,516.066 68.734,516.799 60.954,517.359 C53.39,517.903 45.478,518.216 38.141,520.252 C35.461,520.995 33.309,525.374 36.803,526.498 L36.803,526.498 Z" id="Shape"></path>
                </g>
            </g>
        </g>
    </g>
</svg>