<?xml version="1.0" encoding="UTF-8"?>
<svg width="279px" height="526px" viewBox="0 0 279 526" version="1.1" xmlns="http://www.w3.org/2000/svg" xmlns:xlink="http://www.w3.org/1999/xlink">
    <!-- Generator: Sketch 41 (35326) - http://www.bohemiancoding.com/sketch -->
    <title>parrot</title>
    <desc>Created with Sketch.</desc>
    <defs></defs>
    <g id="Page-1" stroke="none" stroke-width="1" fill="none" fill-rule="evenodd">
        <g id="Layer_1" transform="translate(-2389.000000, -2747.000000)" fill="#010101">
            <g id="Layer_1_3_">
                <g id="parrot" transform="translate(2389.000000, 2747.000000)">
                    <path d="M190.726,35.406 C189.892,40.244 187.205,45.441 185.498,50.036 C183.125,56.425 180.579,62.742 177.61,68.88 C175.802,72.614 173.84,77.395 170.734,80.229 C170.63,80.323 172.547,79.995 172.061,79.87 C170.868,79.56 170.433,79.801 169.435,80.369 C167.798,81.304 166.53,83.907 168.026,85.502 C174.02,91.89 182.678,70.856 183.922,68.027 C188.373,57.897 193.57,46.366 191.973,35.156 C191.863,34.39 190.819,34.853 190.726,35.406 L190.726,35.406 Z" id="Shape"></path>
                    <path d="M187.599,36.417 C200.211,32.896 213.046,41.215 222.078,49.053 C231.181,56.953 238.515,66.543 242.905,77.793 C247.258,88.942 248.65,101.427 246.375,113.194 C245.253,119.003 242.924,124.506 239.461,129.297 C235.747,134.434 230.807,137.267 225.344,140.177 C222.455,141.716 222.431,147.199 226.494,145.723 C254.079,135.692 257.629,100.912 249.389,76.864 C244.752,63.328 235.586,52.199 224.604,43.247 C214.554,35.056 199.455,26.524 187.331,35.126 C186.747,35.541 186.578,36.701 187.599,36.417 L187.599,36.417 Z" id="Shape"></path>
                    <path d="M165.75,77.929 C163.547,85.446 171.792,90.057 177.721,91.923 C186.594,94.715 195.562,95.903 203.982,100.19 C221.078,108.892 224.139,126.367 221.209,143.888 C220.976,145.281 221.557,146.675 223.076,146.943 C227.93,147.802 229.576,144.168 229.19,140.166 C228.962,137.786 226.128,138.069 224.77,139.3 C223.291,140.64 222.993,141.939 222.579,143.795 C223.368,142.769 224.159,141.741 224.95,140.716 C224.808,140.802 224.665,140.888 224.522,140.975 C225.403,140.796 226.284,140.616 227.165,140.437 C226.851,140.383 226.534,140.33 226.22,140.276 C226.843,141.296 227.465,142.313 228.087,143.331 C230.792,126.496 229.095,109.528 214.896,98.395 C207.775,92.812 198.542,89.93 189.798,88.16 C185.408,87.271 180.959,86.57 176.722,85.063 C172.202,83.455 169.934,80.982 167.128,77.313 C166.689,76.742 165.882,77.482 165.75,77.929 L165.75,77.929 Z" id="Shape"></path>
                    <path d="M162.566,85.072 C154.77,89.397 152.338,97.184 150.77,105.466 C150.531,106.726 151.106,108.019 152.473,108.252 C167.653,110.839 182.314,104.495 190.257,91.468 C192.442,87.885 188.756,84.807 185.694,87.849 C184.329,89.206 183.175,90.454 182.379,92.221 C181.958,93.154 182.178,94.325 183.314,94.553 C185.847,95.057 187.705,93.951 189.543,92.234 C188.022,91.027 186.501,89.821 184.98,88.615 C181.773,93.877 178.034,98.12 172.081,100.156 C166.366,102.111 160.395,101.216 154.565,102.136 C155.413,102.819 156.259,103.502 157.106,104.186 C157.578,97.961 159.333,92.044 164.273,87.918 C166.057,86.428 164.772,83.849 162.566,85.072 L162.566,85.072 Z" id="Shape"></path>
                    <path d="M110.238,113.687 C98.546,113.556 88.794,123.905 82.128,132.379 C72.853,144.169 66.92,158.045 61.704,171.979 C56.144,186.83 51.031,202.104 43.158,215.928 C35.446,229.464 25.491,241.572 18.389,255.483 C20.634,255.301 22.879,255.12 25.123,254.938 C25.057,253.577 24.836,252.337 24.55,251.007 C23.83,247.664 18.898,250.951 18.509,252.952 C18.233,254.379 18.086,255.766 18.017,257.215 C17.814,261.476 23.715,258.703 24.751,256.67 C31.168,244.075 39.845,232.864 47.187,220.823 C54.97,208.059 60.167,193.966 65.312,179.982 C70.24,166.589 74.957,153.259 82.489,141.061 C89.651,129.464 98.346,121.505 110.319,115.139 C110.956,114.802 111.181,113.698 110.238,113.687 L110.238,113.687 Z" id="Shape"></path>
                    <path d="M108.24,117.67 C120.685,116.99 130.857,124.135 137.977,133.818 C145.585,144.168 147.492,158.714 148.333,171.175 C150.086,197.122 141.542,222.237 128.455,244.309 C114.586,267.698 95.582,288.042 74.184,304.679 C52.123,321.832 27.348,334.566 2.796,347.661 C4.305,348.505 5.814,349.348 7.323,350.19 C7.909,348.139 7.776,346.461 7.959,344.377 C8.191,341.703 4.932,341.68 3.717,343.576 C2.403,345.629 1.676,347.657 0.715,349.882 C-0.656,353.05 2.286,354.586 4.944,353.278 C55.495,328.435 103.579,296.715 133.485,247.72 C146.814,225.885 155.402,201.231 155.13,175.454 C154.891,152.744 148.156,122.98 123.233,115.824 C118.061,114.34 113.376,114.597 108.347,116.383 C107.783,116.587 107.317,117.72 108.24,117.67 L108.24,117.67 Z" id="Shape"></path>
                    <path d="M84.269,239.125 C79.038,249.171 70.968,258.439 63.387,266.767 C55.119,275.846 46.081,284.197 37.408,292.881 C21.286,309.026 6.114,327.035 1.216,349.913 C3.572,349.437 5.93,348.962 8.287,348.485 C8.274,346.224 8.075,344.393 7.214,342.306 C6.072,339.543 2.716,342.239 2.149,343.938 C1.38,346.241 1.156,348.359 1.144,350.774 C1.122,355.24 7.599,352.234 8.215,349.346 C13.149,326.223 29.753,308.547 45.737,292.135 C53.739,283.92 61.854,275.793 69.216,266.988 C76.364,258.435 81.405,249.67 85.299,239.315 C85.6,238.514 84.565,238.555 84.269,239.125 L84.269,239.125 Z" id="Shape"></path>
                    <path d="M69.287,225.559 C59.686,237.07 47.766,246.82 37.569,257.84 C32.143,263.703 27.046,269.956 22.006,276.153 C19.048,279.793 16.183,283.439 14.024,287.608 C11.896,291.718 -3.388,326.242 11.617,321.401 C13.684,320.734 16.734,315.735 12.912,315.358 C8.415,314.914 19.853,288.926 21.6,286.115 C28.194,275.507 36.925,265.436 45.058,255.981 C53.592,246.06 61.868,236.209 69.936,225.911 C70.334,225.405 69.632,225.144 69.287,225.559 L69.287,225.559 Z" id="Shape"></path>
                    <path d="M29.888,245.645 C30.475,245.645 30.874,244.595 30.113,244.595 C29.524,244.595 29.126,245.645 29.888,245.645 L29.888,245.645 Z" id="Shape"></path>
                    <path d="M159.323,156.91 C160.732,162.306 161.066,168.216 162.047,173.728 C162.934,178.711 163.655,183.717 164.319,188.735 C165.73,199.408 166.463,210.169 166.857,220.923 C167.571,240.359 165.887,260.479 161.022,279.325 C156.457,297.013 147.565,312.652 133.215,324.115 C120.46,334.305 104.876,340.569 90.719,348.49 C91.725,350.169 92.731,351.846 93.739,353.524 C94.915,352.282 95.963,351.134 97.014,349.786 C99.601,346.473 95.625,344.223 92.833,346.472 C91.76,347.257 90.769,348.135 89.859,349.106 C87.019,351.869 88.843,356.395 92.88,354.14 C107.768,345.821 123.543,339.045 137.113,328.559 C152.318,316.81 161.587,300.242 166.958,282.048 C172.589,262.98 173.514,242.484 173.229,222.716 C173.067,211.502 171.417,200.05 169.585,189.006 C168.735,183.895 167.649,178.834 166.446,173.795 C164.975,167.634 162.327,162.251 160.367,156.316 C160.16,155.692 159.184,156.368 159.323,156.91 L159.323,156.91 Z" id="Shape"></path>
                    <path d="M47.189,338.538 C45.988,347.83 46.603,357.514 46.775,366.86 C46.971,377.419 47.211,387.969 47.129,398.531 C47.03,411.448 46.852,424.408 45.533,437.268 C42.59,465.972 32.929,493.623 9.15,511.529 C10.695,512.755 12.241,513.98 13.786,515.206 C15.711,512.141 16.638,509.195 15.323,505.685 C14.209,502.706 10.531,505.666 9.961,507.413 C9.482,508.872 9.218,511.044 8.425,512.309 C5.988,516.189 9.761,518.469 13.06,515.986 C37.194,497.812 48.487,469.87 52.039,440.608 C53.679,427.087 53.84,413.453 53.719,399.853 C53.634,390.207 53.198,380.589 52.651,370.961 C52.029,360.025 52.088,348.701 50.518,337.865 C50.227,335.86 47.386,337.024 47.189,338.538 L47.189,338.538 Z" id="Shape"></path>
                    <path d="M87.751,351.637 C83.659,357.033 83.177,365.075 82.338,371.54 C80.996,381.885 80.502,392.353 79.546,402.738 C78.621,412.78 77.611,422.916 75.188,432.725 C73.65,438.947 71.703,444.876 65.705,447.773 C63.189,448.988 62.309,453.632 66.026,453.51 C73.064,453.278 77.442,445.279 79.537,439.535 C82.919,430.262 83.852,420.173 84.668,410.404 C86.302,390.839 86.354,371.342 88.938,351.857 C89.044,351.068 88.103,351.174 87.751,351.637 L87.751,351.637 Z" id="Shape"></path>
                    <path d="M67.998,449.484 C65.367,465.409 61.733,481.044 54.145,495.433 C46.836,509.297 34.461,521.608 17.658,517.317 C16.881,519.588 16.103,521.859 15.327,524.13 C18.41,524.103 20.97,523.556 22.716,520.828 C23.279,519.95 23.932,518.017 22.487,517.474 C20.487,516.721 18.896,517.247 16.797,517.278 C13.627,517.323 10.251,523.038 14.466,524.091 C33.575,528.865 48.586,515.895 57.76,500.421 C62.677,492.13 65.888,482.903 68.1,473.556 C69.963,465.683 71.073,457.042 69.135,449.118 C68.984,448.5 68.063,449.09 67.998,449.484 L67.998,449.484 Z" id="Shape"></path>
                    <path d="M150.718,106.391 C143.778,109.534 144.763,120.213 145.783,126.229 C147.054,133.712 149.258,143.946 154.478,149.777 C155.521,150.942 157.351,149.333 157.336,148.134 C157.256,141.297 153.641,134.304 151.91,127.766 C149.955,120.382 150.15,114.453 152.301,107.275 C152.622,106.209 151.386,106.089 150.718,106.391 L150.718,106.391 Z" id="Shape"></path>
                    <path d="M127.218,343.658 C131.297,344.134 134.592,344.314 138.197,346.536 C141.787,348.747 144.08,352.573 145.614,356.385 C148.622,363.853 148.58,373.283 145.245,380.62 C147.388,380.447 149.528,380.273 151.672,380.099 C151.804,377.713 151.868,375.372 150.619,373.287 C149.472,371.37 146.869,372.488 146.086,374.212 C144.895,376.829 144.727,379.411 144.89,382.273 C145.108,386.062 150.414,384.163 151.317,381.752 C154.841,372.35 154.556,361.68 150.281,352.555 C146.329,344.117 136.928,338.062 127.603,341.861 C127.039,342.091 126.041,343.522 127.218,343.658 L127.218,343.658 Z" id="Shape"></path>
                    <path d="M121.554,350.303 C126,351.015 129.363,352.311 131.635,356.406 C133.239,359.299 134.094,363.326 134.342,366.585 C134.536,369.143 134.353,371.773 134.138,374.321 C134.017,375.753 133.839,377.177 133.592,378.592 C133.488,379.037 133.372,379.482 133.239,379.92 C132.504,382.521 138.531,378.832 137.69,378.024 C135.5,375.922 132.185,378.77 132.127,381.22 C132.013,386.072 137.714,384.932 139.29,381.547 C141.019,377.829 140.511,372.444 140.429,368.458 C140.214,357.945 134.302,345.336 121.973,348.35 C121.219,348.533 120.379,350.114 121.554,350.303 L121.554,350.303 Z" id="Shape"></path>
                    <path d="M140.872,345.386 C171.709,336.053 204.55,332.799 234.712,321.35 C237.28,320.374 239.666,314.619 235.227,315.201 C232.416,315.569 229.881,316.344 227.295,317.489 C225.645,318.221 225.006,320.795 226.97,321.453 C229.171,322.192 231.588,321.497 233.873,321.519 C234.043,319.469 234.216,317.419 234.388,315.37 C219.139,320.507 203.72,324.371 188.055,328.01 C172.026,331.733 155.828,335.368 140.685,341.972 C138.847,342.772 138.134,346.214 140.872,345.386 L140.872,345.386 Z" id="Shape"></path>
                    <path d="M151.209,377.22 C154.998,380.573 163.869,376.326 167.754,374.948 C176.84,371.719 185.802,368.427 195.027,365.578 C218.587,358.307 242.298,351.709 266.681,347.825 C266.302,346.061 265.922,344.299 265.541,342.534 C263.744,343.934 261.201,344.616 259.234,345.777 C257.716,346.674 257.019,349.395 259.439,349.423 C263.31,349.466 266.081,349.168 269.195,346.698 C271.016,345.255 271.422,340.839 268.055,341.407 C245.658,345.196 223.734,351.061 202.081,357.881 C192.616,360.86 183.094,363.887 173.955,367.777 C170.122,369.409 166.298,371.083 162.382,372.514 C158.984,373.758 155.306,374.243 151.981,375.608 C151.515,375.797 150.59,376.672 151.209,377.22 L151.209,377.22 Z" id="Shape"></path>
                    <path d="M228.98,326.919 C244.303,321.568 270.601,326.901 271.533,346.624 C272.593,345.255 273.65,343.887 274.707,342.518 C272.977,343.276 271.201,343.864 269.487,344.672 C268.171,345.293 267.132,347.542 268.67,348.488 C270.838,349.826 272.752,349.554 275.035,348.59 C276.629,347.916 278.395,346.438 278.21,344.484 C276.041,321.855 245.822,315.447 228.568,324.935 C227.55,325.496 227.513,327.432 228.98,326.919 L228.98,326.919 Z" id="Shape"></path>
                    <path d="M84.051,399.987 C91.628,400.591 100.218,396.174 107.341,393.835 C113.813,391.708 122.686,387.852 129.63,389.522 C130.813,389.807 132.026,388.671 132.289,387.605 C134.477,378.714 115.04,385.835 112.136,386.854 C102.739,390.15 93.76,394.646 84.464,398.061 C83.848,398.286 82.803,399.888 84.051,399.987 L84.051,399.987 Z" id="Shape"></path>
                    <path d="M86.96,164.376 C83.779,168.647 79.627,174.094 80.72,179.8 C81.46,183.661 84.893,185.236 88.511,185.171 C93.798,185.076 98.934,181.629 102.74,178.275 C107.627,173.97 113.781,166.303 113.265,159.388 C113.146,157.795 111.182,158.449 110.54,159.256 C107.287,163.349 105.344,168.32 101.972,172.388 C99.237,175.687 95.595,178.395 91.534,179.781 C80.846,183.428 85.315,169.424 87.766,164.657 C88.067,164.071 87.252,163.984 86.96,164.376 L86.96,164.376 Z" id="Shape"></path>
                    <path d="M107.233,192.57 C104.006,199.695 103.525,206.792 102.778,214.466 C102.661,215.672 103.278,216.736 104.647,216.595 C111.331,215.909 116.722,210.889 120.909,206.025 C124.651,201.677 130.852,193.121 129.391,187.025 C129.016,185.462 126.847,186.587 126.278,187.277 C122.915,191.356 121.395,197.024 118.35,201.431 C114.931,206.379 110.725,210.098 105.025,212.077 C105.871,212.552 106.715,213.026 107.56,213.501 C106.865,206.678 106.562,199.219 108.75,192.644 C109.082,191.647 107.534,191.909 107.233,192.57 L107.233,192.57 Z" id="Shape"></path>
                    <path d="M101.817,47.264 C96.371,59.432 88.998,70.41 82.515,82.013 C75.744,94.133 70.839,107.142 66.663,120.35 C62.417,133.778 59.276,147.549 56.018,161.24 C52.767,174.904 49.124,188.49 46.214,202.222 C45.735,204.476 48.902,203.865 49.524,202.377 C60.05,177.203 63.543,149.395 71.154,123.27 C75.21,109.355 80.239,95.75 86.799,82.812 C92.677,71.218 100.342,60.265 102.894,47.314 C103.041,46.571 102.029,46.791 101.817,47.264 L101.817,47.264 Z" id="Shape"></path>
                    <path d="M106.997,42.602 C109.524,23.735 130.393,12.317 146.989,8.541 C163.114,4.871 184.512,8.334 186.998,27.865 C188.423,26.351 189.847,24.839 191.27,23.324 C188.648,23.323 186.08,23.71 183.468,23.785 C181.722,23.836 179.963,26.365 181.655,27.618 C184.319,29.593 186.512,30.104 189.811,30.135 C191.865,30.154 194.356,27.709 194.082,25.594 C191.056,2.207 167.075,-1.871 147.587,2.479 C128.18,6.811 105.23,20.959 105.276,42.949 C105.278,44.001 106.895,43.356 106.997,42.602 L106.997,42.602 Z" id="Shape"></path>
                    <path d="M103.034,238.526 C102.835,238.759 101.876,238.812 101.504,239.237 C100.438,240.459 99.735,241.839 99.114,243.329 C97.952,246.118 98.598,248.733 100.129,251.174 C102.557,255.046 107.637,253.045 110.433,250.878 C115.457,246.983 119.162,241.473 122.539,236.168 C124.715,232.749 129.512,226.642 128.986,222.285 C128.853,221.186 127.572,221.293 126.923,221.882 C124.805,223.798 123.505,226.796 122.055,229.215 C119.507,233.467 116.943,237.674 113.956,241.638 C112.008,244.222 108.871,248.848 105.32,249.263 C103.532,249.471 102.347,246.625 102.127,245.365 C101.806,243.544 103.028,241.62 103.659,239.988 C103.726,239.81 103.606,238.643 103.509,238.783 C103.773,238.396 103.287,238.229 103.034,238.526 L103.034,238.526 Z" id="Shape"></path>
                    <path d="M84.562,364.231 C94.787,361.08 105.619,358.936 115.506,354.835 C116.196,354.549 116.921,352.939 115.651,353.106 C105.038,354.488 94.332,358.48 84.469,362.511 C83.517,362.899 83.201,364.649 84.562,364.231 L84.562,364.231 Z" id="Shape"></path>
                    <path d="M16.473,260.829 C13.46,265.174 12.083,269.605 12.877,274.97 C13.519,279.31 16.594,283.135 21.313,281.911 C23.332,281.39 25.909,276.664 22.501,276.375 C19.491,276.118 18.418,275.055 17.456,272.098 C16.434,268.958 16.584,264.183 17.395,261.004 C17.55,260.392 16.712,260.484 16.473,260.829 L16.473,260.829 Z" id="Shape"></path>
                    <path d="M162.457,28.962 C161.762,29.292 164.057,28.741 162.597,28.859 C162.055,28.903 161.559,29.148 161.089,29.4 C160.153,29.901 159.37,30.899 158.738,31.719 C157.077,33.878 156.29,36.719 156.916,39.39 C157.444,41.64 158.575,44.408 161.314,43.602 C162.677,43.201 163.864,42.225 164.914,41.306 C167.381,39.15 170.003,36.123 170.269,32.726 C170.631,28.102 164.555,28.279 161.554,28.855 C159.188,29.31 156.296,31.959 158.091,34.482 C157.997,34.351 157.901,35.964 157.864,36.269 C157.71,37.556 157.525,38.835 157.472,40.131 C157.354,43.04 161.365,42.505 162.73,41.16 C164.759,39.164 166.584,37.114 167.98,34.621 C165.81,34.519 163.639,34.419 161.468,34.316 C161.021,35.675 160.655,37.045 160.343,38.441 C160.092,39.563 160.31,40.537 160.232,41.566 C160.159,42.537 161.281,42.676 161.952,42.531 C166.37,41.582 167.126,37.516 168.273,33.765 C168.688,32.411 167.79,30.994 166.425,30.742 C164.452,30.377 162.635,31.825 161.76,33.462 C161.066,34.761 160.035,35.875 159.011,36.923 C160.763,37.266 162.517,37.61 164.269,37.952 C164.318,35.212 165.457,32.011 163.651,29.601 C162.779,31.42 161.907,33.239 161.033,35.058 C162.129,34.824 163.531,34.545 164.416,34.675 C164.704,34.717 164.686,34.827 164.454,34.612 C164.52,34.675 164.36,34.294 164.383,34.123 C164.339,34.478 164.014,35.087 163.831,35.365 C163.544,35.801 163.222,36.21 162.894,36.613 C162.433,37.182 162.404,37.192 162.233,37.367 C161.97,37.638 161.692,37.894 161.413,38.147 C161.237,38.305 160.163,39.094 161,38.52 C160.338,38.974 161.343,38.448 161.04,38.549 C162.638,38.833 163.107,38.528 162.454,37.633 C162.2,37.084 162.091,36.529 162.026,35.935 C161.895,34.689 162.32,33.645 162.984,32.621 C163.38,32.008 163.82,31.457 164.009,30.734 C164.078,30.52 164.108,30.298 164.102,30.071 C164.03,28.71 163.771,30.907 164.086,30.267 C164.697,29.042 163.435,28.5 162.457,28.962 L162.457,28.962 Z" id="Shape"></path>
                </g>
            </g>
        </g>
    </g>
</svg>