<?xml version="1.0" encoding="UTF-8" standalone="no"?><!DOCTYPE svg PUBLIC "-//W3C//DTD SVG 1.1//EN" "http://www.w3.org/Graphics/SVG/1.1/DTD/svg11.dtd"><svg width="100%" height="100%" viewBox="0 0 398 509" version="1.1" xmlns="http://www.w3.org/2000/svg" xmlns:xlink="http://www.w3.org/1999/xlink" xml:space="preserve" style="fill-rule:evenodd;clip-rule:evenodd;stroke-linejoin:round;stroke-miterlimit:1.41421;"><g id="pear"><path d="M199.143,108.198c-16.162,-16.58 -45.545,-4.653 -62.234,5.22c-19.905,11.775 -30.25,31.823 -35.734,53.606c-5.507,21.875 -6.458,44.927 -14.639,66.111c-8.303,21.5 -25.883,38.892 -40.843,55.917c-15.213,17.312 -29.994,35.515 -38.186,57.334c-8.231,21.93 -8.863,46.551 -3.277,69.189c11.976,48.53 57.995,76.67 104.223,86.182c12.269,2.524 24.759,3.639 37.256,4.155c11.689,0.483 23.725,0.69 35.327,-0.987c9.955,-1.439 18.768,-5.207 27.429,-10.138c3.646,-2.076 7.276,-4.183 10.962,-6.19c1.599,-0.869 3.218,-1.695 4.859,-2.481c1.375,-0.659 2.896,-0.356 0.978,-0.709c6.17,1.134 13.017,-10.053 5.397,-11.453c-3.508,-0.646 -6.966,1.146 -10.049,2.556c-4.701,2.152 -9.167,4.862 -13.647,7.43c-4.181,2.396 -8.295,4.892 -12.807,6.613c-6.415,2.447 -13.189,3.312 -20,3.721c-29.672,1.781 -60.722,-1.37 -88.558,-12.133c-21.741,-8.405 -41.525,-21.898 -55.35,-40.84c-13.033,-17.857 -18.354,-39.824 -17.984,-61.689c0.408,-24.304 9.536,-45.429 23.909,-64.677c14.005,-18.753 30.928,-35.104 44.909,-53.887c6.892,-9.256 12.692,-18.966 16.573,-29.862c3.809,-10.696 6.039,-21.825 7.943,-32.992c3.667,-21.505 6.01,-44.552 18.978,-62.853c7.509,-10.597 18.852,-17.463 30.705,-22.299c12.904,-5.265 28.453,-7.518 41.871,-2.71c1.036,0.369 3.039,-1.057 1.989,-2.134Z" style="fill:#010101;fill-rule:nonzero;"/><path d="M205.369,496.083c25.488,2.951 50.104,13.292 75.986,12.795c23.574,-0.454 47.731,-12.345 66.296,-26.17c38.548,-28.709 54.771,-78.149 48.096,-124.884c-2.382,-16.674 -8.151,-32.61 -17.726,-46.504c-7.228,-10.487 -16.955,-17.874 -27.793,-24.303c-12.038,-7.143 -25.055,-12.888 -38.508,-16.765c-10.604,-3.056 -23.895,-5.5 -33.739,0.936c-1.966,1.284 -3.75,3.295 -3.616,5.811c0.148,2.809 3.06,3.9 5.457,3.063c6.936,-2.421 15.025,-1.096 21.993,0.476c9.969,2.246 19.51,6.234 28.67,10.691c8.427,4.101 16.623,8.857 24.116,14.498c8.087,6.085 14.271,14.831 18.922,23.702c11.979,22.86 13.47,49.723 10.033,74.859c-3.014,22.049 -12.763,43.014 -28.061,59.223c-16.826,17.828 -41.02,31.403 -65.431,34.862c-14.403,2.04 -28.763,-0.993 -42.793,-4.005c-6.606,-1.418 -13.25,-2.98 -19.987,-3.612c-7.316,-0.685 -13.926,-0.003 -21.098,1.5c-1.48,0.313 -3.11,3.562 -0.817,3.827Z" style="fill:#010101;fill-rule:nonzero;"/><path d="M177.564,122.573c7.922,5.92 16.994,4.854 26.223,3.467c4.902,-0.735 10.039,-1.336 15,-1.087c5.813,0.291 11.084,2.649 16.266,5.103c16.856,7.98 29.115,22.246 37.195,38.785c8.098,16.569 12.332,34.809 16.422,52.688c4.737,20.707 8.405,42.757 20.514,60.666c2.668,-2.863 5.338,-5.729 8.008,-8.592c-2.221,-0.938 -4.655,-1.178 -6.678,-2.455c-3.636,-2.299 -10.135,4.012 -6.908,7.413c1.923,2.025 3.949,3.306 6.514,4.378c4.699,1.966 11.186,-3.926 8.008,-8.592c-12.027,-17.666 -15.281,-40.582 -20.047,-61.033c-4.26,-18.283 -8.988,-36.679 -17.688,-53.427c-8.467,-16.297 -20.998,-29.668 -37.516,-37.913c-10.229,-5.107 -20.13,-7.221 -31.476,-5.216c-10.636,1.879 -21.523,5.967 -32.343,3.361c-1.233,-0.297 -2.673,1.573 -1.494,2.454Z" style="fill:#010101;fill-rule:nonzero;"/><path d="M194.496,114.493c2.149,-4.525 3.159,-9.39 4.892,-14.088c1.86,-5.052 3.915,-10.006 6.475,-14.749c5.55,-10.283 12.431,-19.709 20.147,-28.465c13.916,-15.786 32.452,-29.948 53.344,-34.505c5.516,-1.203 8.621,-11.773 0.939,-11.232c-6.541,0.46 -9.728,3.632 -13.523,8.534c-1.692,2.185 -0.261,4.653 2.438,4.011c2.658,-0.633 5.866,-0.81 8.613,-1.003c0.313,-3.744 0.627,-7.488 0.939,-11.231c-23.647,5.303 -43.631,22.522 -59.144,40.343c-8.381,9.626 -15.736,20.571 -21.053,32.189c-3.962,8.659 -9.976,21.139 -7.041,30.804c0.465,1.523 2.567,0.248 2.974,-0.608Z" style="fill:#010101;fill-rule:nonzero;"/><path d="M206.464,65.029c0.19,-0.953 0.725,-1.885 0.655,-2.871c-0.079,-1.141 -0.107,-2.28 -0.188,-3.418c-0.136,-1.917 -0.939,-4.031 -1.806,-5.729c-2.654,-5.208 -8.51,-7.282 -13.255,-3.042c-2.021,1.806 -3.072,4.537 -1.484,6.932c0.938,1.416 2.793,1.791 4.335,2.124c-0.877,-0.189 0.896,0.711 0.511,0.379c0.575,0.494 1.052,1.101 1.516,1.695c0.881,1.128 1.52,2.403 2.523,3.43c0.643,0.656 0.854,1.573 1.714,2.039c0.869,0.373 1.041,0.404 0.514,0.094c0.301,0.248 0.61,0.486 0.928,0.713c1.493,1.109 3.76,-0.95 4.037,-2.346Z" style="fill:#010101;fill-rule:nonzero;"/><path d="M17.615,31.162c12.285,2.219 23.742,-0.725 35.786,-3.473c16.48,-3.76 32.8,-8.194 49.333,-11.733c16.002,-3.426 32.409,-6.251 48.83,-5.88c12.179,0.275 25.322,2.984 33.587,12.629c5.265,6.145 7.085,14.358 7.549,22.236c3.49,-1.543 6.979,-3.087 10.47,-4.631c-2.104,-3.548 -4.415,-5.586 -8.559,-6.38c-2.21,-0.424 -5.433,1.964 -5.021,4.404c0.523,3.096 1.781,5.147 3.356,7.803c3.029,5.104 10.766,0.416 10.469,-4.632c-0.817,-13.896 -6.032,-26.752 -18.273,-34.218c-11.882,-7.246 -27.164,-7.699 -40.629,-6.859c-33.659,2.095 -66.093,13.735 -98.493,22.156c-4.967,1.291 -9.985,2.323 -14.974,3.514c-4.222,1.007 -8.489,2.614 -12.784,3.177c-0.785,0.101 -1.899,1.661 -0.647,1.887Z" style="fill:#010101;fill-rule:nonzero;"/><path d="M12.5,29.958c13.406,8.398 26.935,17.236 41.46,23.636c14.91,6.568 31.199,11.215 47.188,14.214c33.023,6.194 66.446,1.974 95.542,-15.316c3.86,-2.294 5.768,-9.427 -0.528,-9.417c-5.071,0.008 -9.885,0.253 -14.339,2.917c-2.256,1.349 -4.692,6.313 -0.58,7.084c4.138,0.775 8.521,0.304 12.713,0.296c-0.177,-3.139 -0.353,-6.277 -0.528,-9.417c-28.037,16.674 -59.386,19.246 -90.946,13.05c-15.317,-3.007 -30.913,-7.198 -45.33,-13.225c-14.228,-5.946 -27.977,-14.352 -43.715,-15.355c-0.687,-0.044 -1.806,0.991 -0.937,1.533Z" style="fill:#010101;fill-rule:nonzero;"/><path d="M44.028,420.306c-2.381,13.549 11.337,24.43 22.34,29.468c10.615,4.859 25.024,6.438 33.622,-2.796c7.628,-8.194 1.799,-17.782 -6.716,-21.564c-8.328,-3.699 -20.66,-6.876 -29.171,-2.684c-1.914,0.941 -3.104,3.803 -1.122,5.233c5.039,3.642 13.18,3.126 19.177,4.707c4.045,1.066 13.753,4.072 11.125,9.907c-1.408,3.128 -7.918,2.625 -10.597,2.439c-4.57,-0.313 -9.04,-1.521 -13.258,-3.263c-10.339,-4.268 -18.432,-12.146 -23.37,-22.104c-0.482,-0.972 -1.886,-0.166 -2.03,0.657Z" style="fill:#010101;fill-rule:nonzero;"/><path d="M136.731,458.412c-3.161,18.334 24.702,6.225 18.891,-3.298c-1.535,-2.517 -5.53,-0.08 -6.709,1.394c-0.554,0.691 -0.888,1.485 -1.322,2.244c-0.679,1.188 0.438,-0.359 -0.486,0.762c1.077,-1.307 -1.375,0.963 -0.188,0.129c-0.342,0.24 -0.709,0.441 -1.075,0.643c-1.132,0.621 0.729,-0.237 -0.479,0.191c-0.733,0.26 -1.609,0.361 -2.116,0.141c-1.307,-0.574 -1.748,-1.719 -1.813,-3.154c-0.136,-2.932 -4.357,-1.056 -4.703,0.948Z" style="fill:#010101;fill-rule:nonzero;"/><path d="M291.942,422.347c-7.567,-1.517 -16.071,3.303 -21.893,7.646c-5.655,4.221 -11.61,10.052 -12.798,17.339c-1.299,7.974 6.584,11.554 13.137,12.632c7.75,1.274 15.688,-0.279 23.161,-2.307c13.653,-3.705 37.157,-14.565 31.615,-32.632c-2.319,-7.563 -11.51,-8.74 -18.163,-8.431c-8.748,0.405 -17.221,3.568 -24.949,7.454c-2.822,1.419 -5.394,3.392 -7.299,5.931c-1.551,2.067 -0.34,4.934 2.454,4.035c10.636,-3.422 22.358,-9.873 33.865,-7.666c5.014,0.961 6.856,6.3 4.185,10.504c-3.393,5.341 -10.235,8.346 -15.892,10.541c-6.158,2.393 -12.709,4.026 -19.289,4.646c-4.455,0.42 -13.556,0.52 -15.549,-4.534c-1.796,-4.552 5.555,-10.364 8.411,-12.657c5.394,-4.332 11.715,-6.754 18.215,-8.828c1.368,-0.437 3.035,-3.223 0.789,-3.673Z" style="fill:#010101;fill-rule:nonzero;"/><path d="M362.237,405.549c3.651,-1.098 6.93,-2.929 8.841,-6.334c1.462,-2.604 0.475,-5.799 -2.177,-7.089c-2.731,-1.328 -6.105,-0.933 -8.854,0.092c-4.229,1.577 -9.406,5.036 -10.206,9.819c-0.521,3.116 2.431,3.662 4.697,2.623c1.386,-0.635 2.313,-1.468 3.661,-2.495c0.154,-0.119 1.771,-1.369 0.826,-0.702c0.484,-0.342 1.003,-0.634 1.523,-0.916c1.213,-0.653 -0.904,0.331 0.313,-0.145c0.46,-0.181 0.937,-0.31 1.414,-0.429c0.808,-0.2 -0.789,0.075 0.477,-0.07c0.285,-0.033 1.568,0.048 0.364,-0.053c0.25,0.021 0.496,0.074 0.74,0.131c0.666,0.15 -0.79,-0.407 0.058,0.087c-0.485,-0.421 -0.593,-0.504 -0.321,-0.247c0.237,0.293 0.172,0.161 -0.199,-0.397c0.135,0.35 0.115,0.193 -0.056,-0.465c0.019,0.388 0.039,0.228 0.063,-0.481c0.275,-0.711 0.326,-0.861 0.152,-0.453c0.422,-0.646 0.493,-0.771 0.215,-0.373c-0.363,0.504 0.755,-0.654 -0.266,0.195c0.863,-0.721 -0.549,0.359 -0.738,0.479c-0.586,0.367 -1.207,0.678 -1.824,0.983c-1.435,0.713 -2.629,2.457 -2.542,4.086c0.109,2.032 2.143,2.665 3.839,2.154Z" style="fill:#010101;fill-rule:nonzero;"/><path d="M61.942,336.102c-8.401,3.32 -10.798,13.193 -8.126,21.132c2.486,7.388 15.104,17.662 22.333,10.375c1.041,-1.051 2.336,-2.881 1.556,-4.465c-0.083,-0.168 -0.166,-0.336 -0.25,-0.506c-0.766,-1.555 -1.955,-1.981 -3.607,-2.014c-5.287,-0.099 -9.834,-3.182 -12.21,-7.85c-2.601,-5.107 -0.75,-9.256 2.17,-13.605c1.002,-1.494 0.342,-3.939 -1.866,-3.067Z" style="fill:#010101;fill-rule:nonzero;"/><path d="M111.256,396.451c-0.348,1.2 -0.969,2.563 -0.699,3.891c0.33,1.626 1.059,2.803 2.388,3.797c2.666,1.992 6.728,1.824 9.785,1.104c3.959,-0.933 6.232,-8.319 0.677,-8.089c-1.999,0.082 -3.712,0.488 -5.225,0.217c-0.954,-0.171 0.417,0.25 -0.389,-0.145c-0.324,-0.207 -0.346,-0.207 -0.063,0c-0.143,-0.137 -0.27,-0.285 -0.38,-0.447c0.453,0.59 -0.331,-0.579 -0.459,-0.762c-0.227,-0.355 -0.227,-0.315 -0.001,0.123c-0.009,-0.278 0,-0.557 0.022,-0.832c0.067,-1.222 -1.214,-1.916 -2.27,-1.83c-1.648,0.134 -2.941,1.442 -3.386,2.973Z" style="fill:#010101;fill-rule:nonzero;"/><path d="M279.627,16.42c-0.294,2.789 -0.2,5.48 -0.097,8.283c0.117,3.174 1.078,7.628 -0.029,10.671c2.277,-1.327 4.555,-2.653 6.832,-3.98c-9.541,-2.197 -19.248,-0.67 -28.277,2.831c-8.623,3.343 -18.384,9.189 -22.769,17.669c-0.674,1.303 0.459,2.673 1.866,2.127c6.894,-2.675 13.09,-6.982 19.918,-9.874c7.845,-3.323 16.303,-4.93 24.707,-3.093c3.493,0.764 8.99,-3.827 7.128,-7.596c-1.33,-2.691 -1.315,-6.379 -1.874,-9.311c-0.602,-3.153 -1.286,-6.343 -2.611,-9.273c-1.035,-2.288 -4.588,-0.418 -4.794,1.546Z" style="fill:#010101;fill-rule:nonzero;"/><path d="M193.723,480.791c2.268,-0.868 4.182,-2.2 6.55,-2.855c2.865,-0.791 5.908,-1.139 8.873,-1.246c2.314,-0.084 4.947,0.29 7.138,-0.602c2.646,-1.076 5.921,-4.143 4.588,-7.369c-1.889,-4.568 -12.578,-0.816 -15.941,-0.064c-4.883,1.092 -12.936,4.33 -13.852,10.004c-0.257,1.586 1.091,2.727 2.644,2.132Z" style="fill:#010101;fill-rule:nonzero;"/></g></svg>