<?xml version="1.0" encoding="UTF-8"?>
<svg width="530px" height="500px" viewBox="0 0 530 500" version="1.1" xmlns="http://www.w3.org/2000/svg" xmlns:xlink="http://www.w3.org/1999/xlink">
    <!-- Generator: Sketch 41 (35326) - http://www.bohemiancoding.com/sketch -->
    <title>pearl</title>
    <desc>Created with Sketch.</desc>
    <defs></defs>
    <g id="Page-1" stroke="none" stroke-width="1" fill="none" fill-rule="evenodd">
        <g id="Layer_1" transform="translate(-4285.000000, -6110.000000)" fill="#010101">
            <g id="Layer_1_3_">
                <g id="pearl" transform="translate(4285.000000, 6110.000000)">
                    <path d="M250.733,4.183 C248.958,17.414 249.477,30.911 249.334,44.252 C249.185,58.199 249.009,72.146 248.791,86.092 C248.358,113.888 248.329,141.663 248.566,169.461 C248.795,196.381 249.304,223.302 249.994,250.215 C250.28,261.385 250.513,272.526 251.148,283.686 C251.703,293.418 254.016,305.108 251.374,314.624 C249.22,322.384 266.73,319.521 264.112,311.595 C261.224,302.848 261.633,292.222 260.738,283.079 C259.663,272.111 258.839,261.202 258.524,250.188 C257.737,222.635 257.27,195.079 256.847,167.519 C256.432,140.51 256.102,113.507 255.516,86.5 C255.215,72.651 254.985,58.804 254.815,44.953 C254.647,31.203 255.324,17.182 253.374,3.563 C253.168,2.134 250.876,3.117 250.733,4.183 L250.733,4.183 Z" id="Shape"></path>
                    <path d="M173.635,34.087 C175.889,45.614 178.52,57.052 180.727,68.6 C183.106,81.048 184.741,93.633 186.656,106.157 C190.469,131.104 196.047,155.555 202.305,179.994 C208.84,205.507 215.824,230.931 221.33,256.692 C223.998,269.173 226.432,281.737 228.879,294.264 C230.02,300.102 230.789,305.981 231.176,311.917 C231.322,314.156 233.074,317.479 233.196,319.028 C237.294,317.25 241.392,315.471 245.49,313.693 C246.136,314.511 246.192,314.513 245.655,313.696 C245.007,312.615 244.081,311.688 243.268,310.735 C240.528,307.524 231.487,311.204 232.2,315.539 C232.636,318.19 232.786,320.467 235.238,321.975 C239.071,324.33 248.204,319.716 246.201,314.707 C245.355,312.594 243.79,310.69 242.686,308.7 C241.477,306.517 241.444,303.116 240.95,300.691 C240.348,297.746 239.733,294.803 239.126,291.86 C236.554,279.405 233.804,266.959 231.014,254.549 C225.246,228.893 217.993,203.616 211.054,178.263 C204.205,153.242 198.193,128.189 193.915,102.597 C190.067,79.576 187.155,53.997 175.043,33.618 C174.745,33.12 173.52,33.495 173.635,34.087 L173.635,34.087 Z" id="Shape"></path>
                    <path d="M109.934,82.453 C114.117,94.542 121.024,105.696 126.563,117.216 C132.563,129.695 138.583,142.165 144.53,154.671 C150.471,167.164 156.392,179.663 162.499,192.077 C168.608,204.495 173.129,217.843 178.276,230.682 C182.583,241.426 187.79,251.986 191.594,262.906 C194.144,270.226 196.064,277.779 198.233,285.218 C200.745,293.834 203.489,302.426 206.964,310.707 C209.378,316.461 212.592,323.433 217.226,327.78 C219.398,329.818 223.291,328.843 225.457,327.346 C225.559,327.276 225.659,327.206 225.76,327.137 C227.903,325.657 229.607,323.139 227.753,320.777 C227.803,321.151 227.853,321.524 227.902,321.898 C228.713,319.148 226.207,317.698 223.771,317.8 C220.713,317.93 218.107,319.68 216.785,322.376 C216.033,323.91 216.183,325.158 216.939,326.656 C218.303,324.575 219.668,322.494 221.033,320.413 C220.924,320.469 220.812,320.525 220.703,320.582 C222.632,320.486 224.56,320.392 226.489,320.296 C220.99,316.985 218.431,309.892 216.043,304.262 C212.52,295.955 209.853,287.299 207.157,278.699 C205.01,271.845 203.035,264.917 200.528,258.182 C196.14,246.391 190.199,235.045 185.434,223.376 C180.445,211.156 175.911,198.595 169.994,186.789 C163.786,174.401 157.558,162.025 151.279,149.674 C145.277,137.871 139.264,126.077 132.914,114.458 C126.701,103.09 121.142,90.896 112.903,80.837 C112.055,79.801 109.483,81.15 109.934,82.453 L109.934,82.453 Z" id="Shape"></path>
                    <path d="M62.274,143.974 C67.565,151.837 73.567,159.049 79.507,166.435 C86.266,174.837 92.674,183.5 99.329,191.981 C112.455,208.704 125.452,225.665 137.258,243.35 C147.83,259.188 159.831,274.021 169.783,290.281 C178.801,305.016 186.49,321.216 197.368,334.743 C201.032,339.3 213.185,331.843 208.468,327.337 C206.911,325.85 205.345,325.12 203.435,324.216 C199.808,322.497 191.895,326.609 195.092,330.954 C195.858,331.994 196.229,332.479 196.672,333.751 C200.604,331.612 204.536,329.475 208.468,327.337 C195.062,316.092 187.583,299.206 178.399,284.655 C168.351,268.738 156.1,254.354 145.216,239.024 C133.09,221.945 120.049,205.508 106.789,189.297 C100.324,181.395 93.46,173.824 86.74,166.141 C79.64,158.022 72.628,149.927 64.618,142.699 C63.922,142.07 61.627,143.014 62.274,143.974 L62.274,143.974 Z" id="Shape"></path>
                    <path d="M44.35,214.785 C68.773,235.438 93.263,255.763 116.365,277.929 C127.805,288.907 139.012,300.124 150.23,311.327 C161.696,322.779 174.19,333.664 184.938,345.78 C188.126,349.374 196.842,345.228 196.685,340.682 C196.546,336.682 193.92,334.943 190.116,334.59 C188.156,334.407 185.356,335.131 184.38,337.078 C182.841,340.149 183.4,341.628 184.26,344.811 C188.094,342.726 191.929,340.64 195.763,338.556 C183.293,328.975 172.163,317.166 160.719,306.398 C148.666,295.058 136.619,283.71 124.361,272.591 C100.212,250.69 74.993,228.655 45.949,213.493 C45.316,213.165 43.567,214.123 44.35,214.785 L44.35,214.785 Z" id="Shape"></path>
                    <path d="M62.701,282.875 C72.595,287.64 81.997,293.578 91.663,298.812 C101.736,304.265 111.752,309.797 121.629,315.6 C131.644,321.484 141.444,327.734 150.775,334.66 C158.764,340.591 165.553,347.381 172.91,353.972 C176.539,351.041 180.168,348.11 183.797,345.179 C181.154,343.747 178.539,343.902 175.625,343.874 C173.491,343.853 168.665,346.081 169.246,348.932 C169.779,351.539 170.827,352.417 172.91,353.972 C177.544,357.431 190.122,351.423 184.939,345.945 C181.93,342.763 177.64,340.614 174.097,338.049 C169.677,334.849 165.146,331.808 160.577,328.823 C150.458,322.211 140.001,316.094 129.376,310.334 C119.122,304.774 108.599,299.73 97.993,294.878 C86.95,289.826 75.432,286.125 64.33,281.278 C63.426,280.883 61.485,282.29 62.701,282.875 L62.701,282.875 Z" id="Shape"></path>
                    <path d="M317.662,28.78 C316.403,40.181 315.577,51.637 314.087,63.024 C312.429,75.683 309.898,88.233 307.635,100.795 C303.24,125.197 300.768,149.805 297.4,174.355 C293.91,199.795 289.958,225.165 285.856,250.512 C283.937,262.375 281.534,274.169 280.092,286.102 C279.425,291.623 278.714,297.082 277.413,302.497 C276.499,306.306 274.46,309.497 273.185,313.168 C275.986,311.333 278.787,309.499 281.587,307.664 C284.572,307.581 284.304,308.243 282.385,307.036 C279.422,305.173 271.893,308.395 272.481,312.384 C272.708,313.924 272.731,315.697 273.973,316.816 C276.631,319.211 280.788,317.928 283.457,316.317 C287.303,313.996 287.419,310.083 288.148,306.136 C289.043,301.304 289.863,296.577 290.277,291.665 C291.231,280.348 292.821,269.181 294.435,257.944 C298.265,231.294 302.681,204.736 306.015,178.013 C309.196,152.521 311.496,126.974 315.072,101.528 C316.77,89.436 318.309,77.342 319.765,65.219 C321.253,52.826 322.608,40.363 321.276,27.932 C321.069,25.991 317.825,27.303 317.662,28.78 L317.662,28.78 Z" id="Shape"></path>
                    <path d="M377.089,77.014 C364.401,92.01 358.369,111.636 352.283,130.034 C349.004,139.948 346.018,149.953 342.787,159.883 C338.792,172.16 333.459,184.051 328.964,196.162 C320.04,220.202 312.152,244.59 304.506,269.06 C301.274,279.402 297.824,289.76 295.002,300.216 C294.134,303.435 293.467,306.708 292.646,309.941 C292.264,311.442 291.836,312.928 291.354,314.4 C290.922,315.714 291.051,315.504 290.545,315.932 C291.905,315.198 293.265,314.463 294.624,313.729 C297.294,314.469 298.217,314.482 297.393,313.77 C294.801,311.748 287.766,313.706 288.27,317.729 C289.327,326.157 299.985,320.961 301.756,315.349 C303.717,309.134 304.046,302.444 306.281,296.325 C308.66,289.813 309.98,282.692 311.845,276.009 C313.727,269.269 315.658,262.542 317.62,255.825 C321.55,242.38 325.905,229.051 330.284,215.747 C338.403,191.078 347.973,167.029 354.911,141.99 C361.055,119.819 367.049,97.602 378.54,77.457 C379.083,76.508 377.542,76.479 377.089,77.014 L377.089,77.014 Z" id="Shape"></path>
                    <path d="M422.12,117.15 C403.025,152.967 381.279,187.232 361.647,222.768 C342.435,257.543 323.96,292.426 300.506,324.567 C304.261,324.401 308.015,324.234 311.77,324.067 C311.889,321.922 312.366,320.413 311.733,318.311 C311.046,316.032 307.314,317.216 306.049,318.002 C303,319.897 300.676,322.112 299.936,325.728 C298.528,332.601 308.666,329.562 311.01,326.387 C334.249,294.891 351.39,258.694 369.454,224.12 C378.808,206.217 388.088,188.253 398.064,170.685 C407.793,153.557 418.482,135.997 424.927,117.316 C425.473,115.737 422.623,116.206 422.12,117.15 L422.12,117.15 Z" id="Shape"></path>
                    <path d="M442.061,189.572 C432.372,202.037 421.446,213.086 410.135,224.057 C399.068,234.792 389.576,246.593 379.944,258.598 C359.335,284.281 338.869,310.626 313.936,332.344 C316.387,331.519 318.836,330.694 321.287,329.867 C321.075,329.817 320.862,329.766 320.65,329.717 C321.619,330.377 322.588,331.038 323.557,331.699 C323.532,331.584 323.506,331.467 323.481,331.351 C323.301,332.513 323.122,333.676 322.942,334.839 C323.65,333.471 324.526,332.251 325.186,330.841 C326.851,327.281 321.083,327.313 319.318,328.057 C315.893,329.501 310.255,332.175 311.793,336.804 C312.176,337.957 313.61,338.622 314.701,338.787 C322.128,339.917 328.058,331.454 332.751,326.766 C338.999,320.527 344.958,313.995 350.741,307.325 C362.361,293.923 373.221,279.876 383.943,265.751 C394.126,252.338 403.78,238.835 415.15,226.379 C425.5,215.041 437.255,203.765 443.783,189.673 C444.236,188.696 442.399,189.137 442.061,189.572 L442.061,189.572 Z" id="Shape"></path>
                    <path d="M450.645,251.809 C438.61,259.586 426.315,266.881 414.421,274.929 C403.301,282.452 392.299,290.088 381.868,298.554 C371.787,306.736 362.302,315.625 352.146,323.715 C347.529,327.395 342.734,330.848 337.742,333.999 C333.009,336.985 326.311,338.567 322.471,342.609 C320.673,344.501 320.31,348.023 323.729,348.351 C329.642,348.918 335.109,345.227 340.06,342.368 C345.521,339.215 350.587,335.387 355.489,331.435 C365.78,323.139 375.288,313.944 384.907,304.894 C395.21,295.201 406.263,286.424 417.589,277.961 C423.524,273.526 429.684,269.399 435.631,264.982 C441.069,260.943 445.971,256.45 451.194,252.176 C451.631,251.821 450.955,251.61 450.645,251.809 L450.645,251.809 Z" id="Shape"></path>
                    <path d="M158.811,41.336 C168.343,31.964 180.088,30.311 192.764,28.601 C205.149,26.93 216.825,24.241 227.425,17.319 C235.242,12.214 244.354,5.618 254.19,7.514 C265.089,9.615 274.721,17.16 284.944,21.152 C294.437,24.86 304.507,26.113 314.282,28.766 C325.305,31.758 331.975,39.372 338.884,47.952 C342.261,52.146 345.803,56.171 349.888,59.692 C354.473,63.646 359.761,66.022 364.988,68.926 C369.952,71.686 375.914,70.727 379.439,76.053 C380.779,78.078 380.996,80.884 381.577,83.184 C382.338,86.196 384.214,88.604 386.173,90.932 C392.151,98.036 400.906,101.811 409.171,105.507 C417.101,109.054 423.525,113.161 425.839,122.012 C429.195,134.85 420.594,149.364 427.788,161.603 C433.243,170.883 444.76,174.995 449.138,185.041 C453.574,195.218 443.187,203.912 440.767,213.072 C439.403,218.238 439.401,223.181 440.955,228.286 C442.625,233.773 446.155,238.635 448.311,243.941 C454.971,260.335 448.828,277.211 437.751,289.927 C423.981,305.736 404.791,316.551 385.808,324.838 C368.829,332.25 350.916,337.878 332.428,339.747 C329.462,340.047 325.961,341.567 324.944,344.649 C324.018,347.451 326.806,349.342 329.37,349.04 C346.268,347.047 363,341.435 378.76,335.194 C396.946,327.992 414.786,318.643 430.178,306.504 C443.304,296.151 455.716,282.732 459.514,265.968 C461.387,257.7 460.525,249.436 457.928,241.431 C456.24,236.23 453.157,231.615 450.925,226.654 C448.318,220.857 449.054,214.845 451.358,209.072 C453.006,204.94 456.089,201.503 457.911,197.437 C459.992,192.791 460.776,187.001 459.062,182.084 C455.451,171.728 444.888,166.716 438.234,158.649 C433.878,153.368 434.748,145.28 435.309,138.93 C435.9,132.252 437.094,125.668 435.651,119.02 C433.777,110.38 428.15,104.893 420.527,100.909 C412.509,96.718 403.971,94.105 397.132,87.913 C392.741,83.936 391.382,79.753 389.881,74.23 C388.409,68.815 383.032,65.581 377.993,64.158 C366.579,60.936 357.66,54.602 349.962,45.657 C342.632,37.14 336.68,28.603 326.068,23.934 C320.423,21.45 314.212,20.348 308.21,19.108 C299.825,17.377 291.851,15.007 284.135,11.248 C272.019,5.345 259.526,-2.513 245.565,1.063 C237.871,3.035 230.859,7.567 224.26,11.816 C215.966,17.157 207.691,19.909 198.025,21.68 C182.103,24.597 165.861,26.587 155.283,40.259 C153.625,42.4 157.689,42.44 158.811,41.336 L158.811,41.336 Z" id="Shape"></path>
                    <path d="M156.254,39.039 C147.91,47.51 139.178,54.004 128.171,58.578 C122.713,60.847 116.944,62.402 111.793,65.362 C106.925,68.158 102.668,71.71 98.964,75.923 C92.111,83.716 87.693,93.277 80.986,101.177 C73.267,110.266 62.306,114.297 52.982,121.256 C43.097,128.634 39.858,139.138 40.716,151.08 C41.161,157.261 41.887,163.19 38.885,168.879 C36.441,173.51 31.803,176.855 28.029,180.335 C20.459,187.315 15.025,196.754 18.463,207.224 C19.878,211.534 23.494,215.097 26.599,218.235 C31.341,223.031 35.269,227.689 37.872,234.02 C42.523,245.329 39.184,257.804 38.999,269.544 C38.816,281.092 43.675,290.92 51.437,299.202 C66.514,315.288 88.931,324.193 108.944,332.271 C121.08,337.169 133.053,342.455 145.255,347.212 C152.104,349.883 158.984,352.514 165.986,354.762 C171.588,356.56 176.972,358.34 182.029,354.153 C185.195,351.531 183.179,347.358 179.244,347.736 C178.079,347.848 176.873,348.077 175.705,348.077 C170.409,348.077 165.515,356.292 173,356.292 C171.827,356.292 174.522,356.507 174.918,356.549 C174.853,354.117 174.787,351.687 174.721,349.255 C176.518,348.257 181.538,348.194 178.518,347.676 C177.521,347.505 176.539,347.238 175.562,346.979 C172.484,346.162 169.465,345.116 166.454,344.088 C158.393,341.341 150.42,338.335 142.469,335.286 C128.797,330.045 115.105,324.684 101.582,319.078 C81.739,310.851 55.608,299.056 49.497,276.294 C46.356,264.597 50.811,251.894 49.513,239.969 C48.124,227.226 40.536,219.021 32.207,210.165 C25.288,202.811 25.467,193.545 32.276,186.118 C38.527,179.299 45.36,174.652 49.287,165.966 C53.921,155.714 47.593,143.861 52.09,133.31 C55.969,124.21 67.471,120.402 75.127,115.295 C83.463,109.733 89.915,102.628 95.376,94.271 C100.327,86.694 104.679,78.5 111.958,72.84 C120.017,66.577 130.755,63.967 139.653,59.008 C147.777,54.48 154.265,48.038 158.374,39.685 C159.088,38.232 156.965,38.317 156.254,39.039 L156.254,39.039 Z" id="Shape"></path>
                    <path d="M263.047,328.167 C234.471,317.249 202.037,338.227 194.497,366.413 C191.013,379.436 192.96,393.421 200.857,404.451 C210.697,418.193 227.838,424.652 244.152,426.235 C260.869,427.857 278.443,423.405 291.841,413.144 C304.29,403.61 313.426,387.651 311.139,371.586 C309.005,356.597 299.038,342.635 287.589,333.189 C276.336,323.904 258.921,317.153 245.636,326.215 C243.011,328.006 242.78,332.135 246.835,331.765 C256.585,330.874 264.509,332.119 272.92,337.376 C281.702,342.866 288.799,351.63 293.642,360.662 C298.435,369.602 300.273,378.779 297.494,388.648 C294.679,398.64 287.32,406.829 278.195,411.567 C249.421,426.507 204.543,410.679 204.871,374.702 C204.986,362.175 211.035,350.255 220.166,341.885 C231.49,331.504 246.626,330.232 261.266,330.884 C262.329,330.932 264.887,328.871 263.047,328.167 L263.047,328.167 Z" id="Shape"></path>
                    <path d="M215.429,378.067 C209.51,392.159 222.069,404.049 234.217,408.747 C248.484,414.264 266.595,414.277 278.806,404.139 C287.463,396.951 293.942,385.827 295.452,374.636 C296.999,363.165 291.28,353.19 279.046,352.642 C279.95,352.919 280.854,353.196 281.757,353.472 C281.539,353.314 281.321,353.155 281.104,352.996 C278.982,351.449 274.339,352.595 273.751,355.464 C272.929,359.476 277.12,360.683 279.782,362.923 C282.72,365.396 283.82,368.916 284.005,372.64 C284.437,381.352 279.579,390.66 273.904,396.976 C266.07,405.697 253.801,404.643 243.186,402.59 C236.666,401.329 230.514,398.839 225.228,394.78 C219.465,390.356 218.065,384.678 216.785,377.876 C216.652,377.17 215.619,377.615 215.429,378.067 L215.429,378.067 Z" id="Shape"></path>
                    <path d="M246.451,338.135 C237.854,335.282 225.568,343.715 221.515,350.85 C219.22,354.891 219.684,359.941 222.948,363.27 C226.75,367.146 233.612,366.469 238.372,365.471 C248.026,363.447 261.079,355.033 259.591,343.655 C258.049,331.869 242.034,333.622 235.834,340.134 C234.559,341.474 235.796,342.631 237.343,342.312 C242.429,341.263 251.257,338.374 252.378,346.141 C253.412,353.307 245.201,358.382 239.384,360.102 C232.882,362.026 223.111,360.048 226.368,351.14 C228.988,343.977 238.686,340.285 245.587,339.452 C245.995,339.403 247.428,338.459 246.451,338.135 L246.451,338.135 Z" id="Shape"></path>
                    <path d="M13.236,416.625 C16.526,411.58 23.55,408.894 28.897,406.79 C37.126,403.552 45.855,401.482 54.472,399.592 C73.11,395.5 92.005,392.518 110.884,389.797 C125.337,387.713 139.833,385.916 154.311,384.013 C163.891,382.753 173.627,383.555 181.828,377.467 C189.02,372.127 191.104,363.3 187.985,355.07 C184.85,346.801 174.997,345.583 168.692,350.886 C167.159,352.176 167.271,354.895 169.615,355.098 C172.511,355.35 175.178,354.966 177.014,357.645 C179.004,360.547 179.393,364.622 178.735,367.997 C176.994,376.927 163.55,375.589 156.885,376.195 C132.355,378.427 107.588,382.976 83.406,387.573 C68.802,390.348 54.248,393.302 40.054,397.782 C29.566,401.093 14.064,405.416 9.044,416.377 C8.002,418.654 12.414,417.887 13.236,416.625 L13.236,416.625 Z" id="Shape"></path>
                    <path d="M343.023,345.138 C334.53,345.591 325.241,349.809 322.566,358.582 C320.84,364.242 322.161,370.25 326.753,374.07 C336.315,382.025 352.514,380.61 364.062,380.169 C386.365,379.317 408.718,377.579 431.041,378.609 C457.581,379.834 481.09,391.074 506.499,397.416 C509.899,398.265 514.94,395.128 514.065,391.36 C513.377,388.397 510.348,387.701 508.042,386.219 C505.148,384.361 497.621,388.784 500.784,392.081 C501.876,393.221 503.648,394.142 504.014,395.721 C506.535,393.702 509.059,391.684 511.58,389.665 C490.296,384.352 470.062,374.528 448.14,371.864 C424.959,369.047 401.479,370.772 378.246,371.851 C367.062,372.371 355.427,373.454 344.344,371.505 C340.09,370.758 335.128,369.217 332.928,365.171 C331.766,363.034 331.626,360.54 332.021,358.174 C332.914,352.815 337.65,350.328 342.422,348.825 C344.305,348.235 346.331,344.961 343.023,345.138 L343.023,345.138 Z" id="Shape"></path>
                    <path d="M14.454,422.142 C20.366,420.868 26.307,420.451 32.134,422.329 C36.708,423.804 40.303,426.601 44.331,429.086 C55.023,435.683 65.779,438.321 78.374,437.789 C93.014,437.171 107.247,432.247 121.994,433.155 C134.182,433.906 144.895,440.091 155.567,445.429 C166.247,450.772 177.255,454.612 189.337,454.304 C204.4,453.92 219.142,448.922 233.8,445.953 C249.255,442.823 263.314,444.553 278.513,448.037 C292.079,451.146 305.666,454.143 319.617,451.847 C338.215,448.785 354.044,437.834 372.299,433.778 C390.467,429.741 409.374,437.161 427.678,437.224 C435.991,437.252 444.036,435.43 451.255,431.286 C454.628,429.349 456.851,425.215 458.625,421.932 C461.057,417.435 462.469,415.575 467.574,414.541 C486.237,410.765 505.56,414.521 521.288,401.485 C524.022,399.219 522.352,395.355 518.825,395.809 C516.538,396.104 514.429,396.744 512.18,397.177 C507.898,398.004 504.827,405.398 510.979,404.556 C512.733,404.316 514.473,403.811 516.235,403.678 C515.414,401.786 514.592,399.894 513.772,398.002 C503.952,406.133 488.95,404.373 477.037,405.747 C471.538,406.381 466.209,407.031 460.957,408.856 C455.395,410.79 452.151,415.396 449.495,420.349 C448.333,422.516 447.124,425.452 444.83,426.62 C442.481,427.816 439.927,428.381 437.354,428.851 C431.096,429.997 424.383,429.244 418.127,428.515 C406.395,427.15 394.756,424.336 382.878,424.836 C356.743,425.935 335.674,445.566 309.25,444.842 C294.791,444.446 280.72,439.056 266.476,436.968 C251.722,434.804 237.327,437.499 222.976,440.861 C212.24,443.375 201.448,446.234 190.364,446.519 C181.532,446.747 173.072,443.353 165.239,439.638 C157.656,436.04 150.373,431.88 142.478,428.967 C133.723,425.736 124.586,424.92 115.319,425.526 C94.839,426.863 75.298,434.752 55.363,426.101 C49.249,423.449 43.451,419.92 37.014,418.036 C29.448,415.821 21.914,416.556 14.412,418.688 C11.887,419.409 11.147,422.855 14.454,422.142 L14.454,422.142 Z" id="Shape"></path>
                    <path d="M1.093,429.575 C-0.972,446.728 19.199,452.581 32.555,454.614 C49.013,457.121 65.71,455.69 81.354,462.103 C92.398,466.631 102.637,472.847 113.957,476.748 C119.803,478.763 125.823,480.058 131.973,480.67 C139.895,481.458 147.855,480.351 155.79,480.849 C169.382,481.703 180.36,489.478 193.106,493.283 C206.741,497.352 221.898,498.212 236.021,499.053 C264.801,500.768 296.061,499.967 322.5,487.235 C326.424,485.344 330.294,483.401 334.585,482.537 C340.27,481.392 346.521,482.03 352.281,481.978 C366.266,481.852 380.251,480.997 394.013,478.397 C407.341,475.879 418.797,470.091 431.092,464.731 C441.863,460.036 453.897,460.415 465.123,457.354 C478.784,453.628 492.25,447.507 504.326,440.156 C513.043,434.848 521.428,427.704 526.567,418.757 C528.691,415.058 531.185,409.752 529.061,405.536 C526.049,399.556 517.533,402.01 512.782,403.689 C508.816,405.092 507.309,411.348 512.914,410.921 C515.346,410.735 517.779,410.081 517.247,412.692 C516.549,416.126 514.299,419.23 512.205,421.946 C504.689,431.694 492.222,437.477 481.266,442.3 C474.867,445.117 468.311,447.534 461.526,449.239 C454.721,450.949 447.639,451.286 440.755,452.635 C429.554,454.828 419.938,460.992 409.446,465.115 C396.636,470.149 382.396,471.439 368.773,472.131 C356.867,472.735 344.254,471.17 332.572,473.924 C327.852,475.037 323.409,477.233 319.062,479.315 C312.208,482.597 305.191,484.788 297.794,486.523 C283.403,489.9 268.368,490.156 253.65,490.051 C239.229,489.949 224.826,488.725 210.609,486.304 C204.047,485.187 197.863,483.782 191.74,481.127 C185.786,478.546 180.082,475.428 173.802,473.66 C159.397,469.606 144.614,473.011 130.11,470.209 C118.131,467.896 107.316,461.791 96.386,456.663 C88.06,452.757 79.493,449.512 70.317,448.515 C62.11,447.623 53.836,447.469 45.613,446.765 C31.148,445.527 12.792,443.639 8.523,427.107 C7.617,423.593 1.397,427.059 1.093,429.575 L1.093,429.575 Z" id="Shape"></path>
                    <path d="M12.733,421.907 C6.85,426.559 4.337,432.261 8.06,439.261 C9.899,442.72 15.206,440.864 17.36,438.804 C21.946,434.419 24.2,430.68 24.399,424.243 C24.553,419.23 16.405,421.686 14.549,423.672 C9.077,429.525 8.094,436.209 13.596,442.416 C15.476,444.537 19.876,443.438 21.77,441.985 C27.262,437.772 29.885,433.162 30.131,426.212 C30.218,423.735 27.427,423.024 25.514,423.01 C22.707,422.988 20.24,423.343 17.565,424.197 C14.945,425.033 11.336,426.872 11.378,430.15 C11.42,433.461 15.354,433.506 17.67,433.177 C22.679,432.464 27.569,432.652 32.553,433.425 C34.119,430.236 35.685,427.046 37.25,423.858 C32.713,423.675 28.314,422.046 24.259,420.12 C22.772,423.164 21.283,426.207 19.796,429.252 C24.691,427.878 28.339,429.09 32.066,432.504 C35.515,429.717 38.965,426.931 42.415,424.144 C33.664,419.934 24.044,417.368 14.374,419.489 C8.366,420.805 3.813,429.76 12.683,429.872 C13.036,429.877 13.388,429.882 13.74,429.886 C12.628,427.322 11.515,424.758 10.402,422.194 C4.651,427.177 2.24,434.89 9.683,439.416 C15.646,443.042 23.863,443.276 30.506,441.887 C37.741,440.373 45.82,434.374 42.773,426.174 C40.433,419.88 34.231,418.588 28.702,422.07 C24.748,424.559 19.111,432.013 22.402,436.849 C25.652,441.625 32.707,438.674 35.557,434.943 C35.582,434.909 35.609,434.876 35.634,434.842 C31.893,436.102 28.152,437.363 24.411,438.623 C23.083,437.915 25.852,440.55 26.397,441.182 C27.362,442.303 28.243,443.273 29.575,443.983 C33.376,446.01 38.472,443.217 40.77,440.211 C40.795,440.178 40.821,440.144 40.846,440.11 C36.728,441.108 32.61,442.106 28.491,443.105 C30.73,446.127 35.745,445.576 38.684,444.099 C42.413,442.225 44.714,439.315 46.293,435.527 C49.647,427.477 43.769,423.012 36.064,424.221 C26.999,425.645 14.119,436.458 23.945,444.832 C31.509,451.277 41.057,448.408 45.047,439.527 C46.315,436.704 46.045,432.872 43.936,430.528 C40.534,426.748 34.848,427.132 30.294,427.779 C24.25,428.636 14.636,434.174 18.91,441.527 C22.395,447.523 29.998,449.807 36.463,450.185 C45.783,450.732 53.822,444.072 56.928,435.718 C57.043,435.346 57.158,434.974 57.274,434.601 C58.935,429.225 51.754,429.24 48.61,430.49 C41.854,433.178 39.581,436.847 37.399,443.453 C36.356,446.613 39.508,448.797 42.419,448.432 C47.573,447.784 58.189,444.993 56.711,437.616 C55.474,431.44 47.726,428.53 42.236,427.655 C36.415,426.726 26.601,435.792 35.455,437.995 C44.618,440.274 53.633,443.071 63.035,444.224 C66.575,444.659 70.559,443.146 72.564,440.089 C74.438,437.232 72.983,434.564 69.849,433.833 C63.623,432.38 56.447,431.116 50.183,433.122 C45.376,434.661 39.703,438.249 40.939,444.058 C41.79,448.052 46.886,449.726 50.241,450.691 C57.105,452.666 65.137,451.254 71.809,449.289 C74.591,448.469 77.622,446.863 78.601,443.902 C79.752,440.417 76.383,438.875 73.508,438.85 C65.408,438.781 57.167,437.728 49.105,438.824 C46.002,439.246 42.929,440.37 41.126,443.121 C39.808,445.131 39.907,447.992 42.417,449.024 C55.669,454.476 70.901,454.615 84.324,449.751 C90.025,447.685 91.675,439.831 84.143,439.818 C78.306,439.809 72.538,439.721 66.752,438.867 C63.154,438.336 58.996,440.029 56.977,443.109 C55.172,445.862 56.423,449.029 59.762,449.527 C66.308,450.503 72.903,450.663 79.511,450.667 C84.18,450.67 92.429,444.319 86.28,440.346 C82.401,437.84 78.643,435.981 74.185,434.729 C71.853,438.285 69.521,441.841 67.189,445.397 C74.809,446.382 82.452,446.53 90.125,446.533 C88.627,444.358 87.128,442.182 85.63,440.008 C85.52,440.159 85.409,440.31 85.298,440.46 C87.989,439.011 90.682,437.562 93.373,436.112 C89.257,436.476 86.034,437.597 83.507,441.041 C80.023,445.789 86.104,448.014 89.854,447.308 C94.044,446.519 98.632,447.478 102.862,447.567 C101.728,444.953 100.593,442.338 99.459,439.724 C100.237,439.222 99.992,439.288 98.723,439.924 C97.679,440.37 96.472,440.552 95.374,440.811 C93.16,441.332 90.905,441.697 88.671,442.121 C85.186,442.784 78.938,447.518 82.586,451.4 C89.281,458.527 99.587,459.571 108.541,462.002 C110.902,458.403 113.262,454.804 115.623,451.205 C104.593,449.802 94.695,444.13 83.877,441.753 C79.969,440.895 68.287,446.928 73.85,451.565 C85.058,460.909 99.767,463.051 113.722,465.296 C116.964,465.817 120.514,464.505 122.834,462.227 C124.95,460.147 126.158,456.032 122.608,454.582 C116.045,451.902 109.141,449.935 104.712,444.043 C101.35,447.333 97.987,450.623 94.624,453.913 C101.389,454.865 107.749,453.317 114.269,451.672 C119.262,450.411 125.884,442.9 117.857,440.696 C113.534,439.509 109.523,437.555 105.116,436.569 C103.278,440.312 101.44,444.055 99.602,447.798 C104.928,447.689 110.199,446.861 115.525,446.757 C118.699,446.695 122.181,444.902 123.932,442.231 C125.799,439.382 124.522,436.033 121.03,435.543 C113.531,434.493 106.075,433.356 98.75,431.395 C97.555,435.052 96.359,438.708 95.164,442.366 C103.361,440.839 117.187,438.681 123.685,445.395 C127.571,442.256 131.456,439.119 135.341,435.98 C132.364,434.865 129.667,433.299 126.855,431.839 C124.49,435.447 122.124,439.056 119.757,442.664 C126.175,442.773 134.48,444.636 136.648,451.49 C140.299,448.567 143.951,445.645 147.602,442.722 C144.194,442.032 141.541,442.045 138.552,440.088 C134.174,437.22 123.842,442.745 126.026,448.392 C126.406,449.375 126.895,450.418 127.103,451.46 C127.957,455.75 123.335,451.094 133.011,447.942 C135.991,446.972 135.176,447.942 134.499,447.732 C133.68,447.478 132.89,447.123 132.103,446.784 C128.448,445.209 125.046,443.054 121.584,441.105 C117.301,438.696 108.578,442.785 108.729,448.045 C108.982,456.9 112.692,464.663 120.61,469.005 C125.322,471.587 133.026,467.206 133.494,462.049 C134.283,453.354 128.47,446.102 120.546,443.151 C116.599,441.681 108.703,443.664 107.875,448.65 C106.454,457.21 112.063,465.857 119.953,469.296 C128.721,473.117 140.907,464.37 135.127,454.969 C130.113,446.815 119.323,443.995 110.675,447.137 C103.508,449.741 99.519,459.435 103.56,466.136 C110.039,476.88 128.055,472.804 137.136,468.403 C141.802,466.141 148.237,462.168 149.195,456.534 C150.293,450.078 144.711,446.652 139.307,444.783 C136.813,443.92 134.243,443.288 131.661,442.754 C126.851,441.758 121.233,445.271 120.478,450.097 C116.627,474.7 170.849,460.563 148.281,438.839 C144.216,434.925 131.218,440.345 134.505,446.33 C140.613,457.45 152.868,463.223 165.346,462.458 C168.97,462.236 179.021,456.865 173.895,452.183 C166.582,445.502 156.233,442.789 146.638,441.541 C143.251,441.1 139.701,442.3 137.258,444.7 C135.728,446.204 133.71,449.993 136.23,451.723 C147.024,459.14 159.92,461.25 172.808,461.323 C177.026,461.346 187.382,453.564 179.975,450.394 C169.781,446.032 159.529,441.895 148.621,439.685 C143.696,438.687 132.265,446.456 139.808,450.308 C150.6,455.818 162.785,458.652 172.577,466.021 C175.319,462.725 178.061,459.429 180.804,456.133 C178.957,456.272 178.74,456.123 176.363,455.712 C173.781,455.264 171.226,454.637 168.679,454.023 C162.398,452.507 156.157,450.836 149.808,449.612 C140.471,447.81 123.002,446.392 119.841,458.735 C115.625,475.194 160.763,472.668 169.367,469.694 C172.929,468.464 177.973,462.102 172.563,459.679 C165.611,456.566 156.893,456.045 149.415,455.777 C141.69,455.499 127.426,457.834 127.631,468.172 C127.82,477.755 142.386,479.07 149.2,479.389 C157.6,479.78 168.168,479.603 175.489,474.875 C178.084,473.199 181.565,467.521 176.804,465.887 C162.418,460.949 146.17,457.82 131.12,461.451 C127.182,462.401 119.543,468.796 125.91,472.113 C130.071,474.282 135.259,474.97 139.843,475.658 C146.195,476.611 152.689,477.074 159.111,476.979 C164.77,476.895 170.836,476.151 175.668,472.982 C181.106,469.415 181.644,463.79 177.021,459.457 C173.062,462.654 169.103,465.853 165.143,469.051 C174.722,474.454 185.509,473.85 196.135,473.801 C199.387,473.785 203.01,471.859 204.794,469.138 C206.733,466.179 205.385,462.793 201.805,462.251 C194.242,461.106 186.888,459.115 179.529,457.063 C172.914,455.218 162.476,465.768 172.002,468.543 C183.565,471.912 195.749,474.923 207.674,471.504 C210.313,470.747 212.855,469.446 214.405,467.082 C215.788,464.973 215.802,461.63 212.992,460.622 C204.191,457.467 195.194,455.141 185.919,453.93 C184.68,457.721 183.44,461.512 182.2,465.304 C189.168,463.786 195.941,464.7 202.761,466.508 C204.668,462.623 206.575,458.738 208.483,454.854 C201.191,454.782 194.062,453.54 186.981,451.864 C185.074,455.749 183.167,459.634 181.259,463.518 C189.964,463.474 199.363,462.372 207.528,466.022 C207.056,463.868 206.585,461.713 206.114,459.559 C203.497,464.467 202.022,468.244 201.946,473.932 C205.186,471.362 208.427,468.792 211.668,466.223 C207.024,466.303 202.194,467.198 197.601,466.325 C193.209,465.491 185.998,468.774 186.013,473.935 C186.022,477.312 186.406,480.391 187.359,483.636 C192.088,481.064 196.819,478.491 201.549,475.919 C196.002,471.583 190.42,467.316 184.386,463.671 C180.101,461.081 170.79,465.488 171.095,470.847 C171.62,480.121 179.382,486.489 188.663,485.307 C193.388,484.704 203.197,478.614 196.088,473.984 C192.643,471.74 189.166,469.617 185.492,467.763 C180.526,465.257 167.012,473.373 173.247,477.655 C189.649,488.913 225.025,495.525 236.915,474.354 C238.188,472.087 238.471,468.805 235.456,467.686 C227.23,464.632 218.685,466.391 210.425,464.125 C210.515,467.42 210.604,470.715 210.693,474.01 C215.199,470.776 219.953,467.91 224.461,464.677 C229.535,461.037 229.288,454.962 222.315,454.754 C218.409,454.638 214.551,453.867 210.629,453.751 C209.998,457.623 209.367,461.496 208.737,465.368 C213.166,464.031 217.096,461.486 221.474,460.164 C224.13,459.362 226.668,458.117 228.243,455.717 C229.603,453.645 229.682,450.168 226.822,449.221 C218.462,446.453 209.486,447.427 201.174,449.989 C201.904,453.479 202.634,456.969 203.363,460.461 C214.782,456.634 227.707,457.933 239.517,456.019 C236.992,455.232 234.467,454.445 231.942,453.659 C232.354,455.108 231.764,456.983 231.619,458.44 C231.314,461.501 235.217,462.618 237.503,462.521 C241.041,462.372 244.17,460.548 246.293,457.789 C247.046,456.81 247.104,456.824 247.972,456.396 C253.846,453.496 256.309,445.948 247.774,445.493 C244.948,445.342 242.153,444.589 239.292,444.436 C237.983,448.412 236.675,452.388 235.366,456.364 C239.279,456.248 243.117,455.479 247.031,455.363 C247.667,451.461 248.302,447.559 248.936,443.657 C244.033,444.491 238.969,444.369 234.011,444.358 C234.077,448.054 234.145,451.751 234.212,455.447 C238.673,453.052 243.036,452.421 248.059,452.358 C247.992,448.63 247.924,444.903 247.856,441.175 C244.592,442.364 241.53,442.846 238.093,442.313 C236.8,446.267 235.507,450.222 234.214,454.177 C239.402,453.355 244.155,452.948 249.266,454.406 C249.175,451.023 249.083,447.64 248.992,444.258 C236.503,453.837 234.683,472.964 233.175,487.516 C238.775,486.202 244.376,484.889 249.976,483.575 C250.141,472.878 252.736,459.939 247.376,450.064 C244.121,444.069 235.274,448.458 232.253,452.255 C227.003,458.856 224.187,466.901 220.78,474.523 C226.239,473.757 231.698,472.991 237.157,472.225 C237.248,466.348 237.434,460.464 237.434,454.587 C237.434,446.54 223.603,450.826 221.328,455.303 C217.88,462.085 215.088,469.176 211.634,475.95 C217.104,475.707 222.573,475.465 228.043,475.221 C228.08,470.049 228.103,464.877 228.103,459.703 C228.103,450.787 210.61,456.086 210.468,463.84 C210.358,469.805 209.589,475.897 208.623,481.778 C208.255,484.015 208.507,486.497 211.061,487.397 C221.524,491.088 232.515,493.179 243.635,492.178 C247.43,491.837 251.327,490.166 253.487,486.873 C255.062,484.472 255.05,480.753 251.893,479.586 C239.524,475.011 226.066,473.661 212.963,474.82 C209.193,475.153 205.317,476.822 203.174,480.091 C201.626,482.451 201.605,486.206 204.758,487.331 C220.379,492.9 236.915,493.239 253.22,491.048 C256.804,490.567 266.954,486.495 263.688,480.902 C260.282,475.071 253.553,472.217 250.331,466.538 C249.222,464.584 251.653,460.862 252.452,459.085 C254.019,455.599 255.224,452.234 255.467,448.387 C249.743,449.73 244.021,451.072 238.297,452.414 C239.406,461.475 239.72,470.987 245.034,478.773 C249.31,485.039 258.925,480.4 261.523,474.852 C265.856,465.6 264.969,455.246 265.887,445.33 C260.4,447.154 254.912,448.977 249.424,450.801 C252.395,459.428 254.471,468.099 255.52,477.166 C256.506,485.697 272.995,480.523 272.208,473.252 C271.177,463.725 272.736,452.194 265.764,444.559 C263.386,448.185 261.008,451.811 258.63,455.437 C266.054,453.375 273.205,458.617 279.286,462.299 C283.155,458.502 287.026,454.705 290.895,450.908 C282.996,447.626 275.092,444.506 266.862,442.142 C264.155,446.27 261.448,450.397 258.741,454.525 C265.692,456.279 272.304,458.978 277.99,463.409 C281.046,459.735 284.102,456.062 287.158,452.388 C276.783,452.249 265.82,450.676 257.845,458.982 C255.678,461.239 254.017,465.936 258.094,467.433 C265.119,470.011 272.362,471.154 279.822,470.172 C280.494,466.05 281.165,461.927 281.837,457.804 C274.672,460.022 267.348,461.587 260.493,464.718 C257.688,465.999 254.328,468.564 254.371,472.018 C254.411,475.139 257.957,476.774 260.705,476.412 C264.908,475.857 269.082,475.697 272.863,477.857 C274.044,474.158 275.223,470.46 276.404,466.76 C267.622,471.282 258.012,471.767 250.284,478.559 C246.782,481.636 247.348,486.872 252.292,487.728 C259.686,489.008 267.177,488.819 274.551,487.54 C282.009,486.246 287.195,474.959 276.598,474.974 C265.99,474.989 256.375,476.495 248.168,483.731 C245.427,486.148 244.746,490.523 248.422,492.358 C258.535,497.407 270.414,495.219 280.92,492.7 C284.258,491.9 287.95,489.663 289.086,486.224 C290.49,481.975 286.398,480.262 282.964,480.151 C279.061,480.025 275.207,479.247 271.287,479.12 C267.751,479.006 263.654,481.345 261.743,484.259 C259.603,487.523 261.093,491.252 265.037,491.851 C280.924,494.262 297.535,492.354 310.735,482.54 C312.873,480.95 317.241,476.045 313.577,473.469 C310.59,471.367 307.611,470.023 304.148,468.892 C300.677,467.76 297.026,466.911 294.467,464.167 C294.092,466.727 293.717,469.286 293.342,471.847 C295.129,469.972 297.217,469.613 299.673,468.937 C303.993,467.746 307.928,466.205 311.789,463.927 C316.449,461.179 317.534,454.901 311.505,453.414 C302.859,451.284 293.882,452.19 285.077,452.265 C286.843,454.828 288.608,457.391 290.374,459.954 C290.422,459.887 292.604,457.592 291.743,458.231 C290.78,458.797 289.723,459.102 288.571,459.142 C288.164,459.197 286.418,458.51 287.744,459.183 C287.176,458.895 288.409,460.147 288.616,460.514 C289.145,461.449 289.651,462.64 289.872,463.691 C291.031,469.236 289.791,474.951 285.349,478.579 C289.339,477.607 293.329,476.635 297.32,475.663 C295.828,474.806 294.617,473.636 293.386,472.45 C289.603,476.15 285.821,479.851 282.037,483.553 C295.645,484.406 308.031,480.654 321.251,478.195 C319.762,474.763 318.272,471.332 316.783,467.899 C313.35,470.385 310.635,473.708 307.231,476.17 C302.212,479.802 301.766,487.133 309.522,486.767 C318.672,486.334 326.975,482.084 333.644,475.968 C335.686,474.095 337.1,470.566 334.764,468.324 C331.551,465.243 326.412,467.13 323.154,468.935 C321.579,469.808 315.559,471.402 312.544,473.073 C316.466,474.9 320.388,476.727 324.31,478.553 C326.335,475 326.816,471.332 328.289,467.621 C329.551,464.443 326.896,462.434 324.22,461.717 C318.298,460.128 313.493,458.863 307.309,459.84 C307.358,463.884 307.405,467.929 307.454,471.973 C312.922,470.705 317.929,468.059 323.376,466.798 C330.651,465.113 335.942,454.878 325.398,454.375 C322.21,454.224 319.055,453.498 315.844,453.345 C317.17,456.403 318.497,459.46 319.824,462.518 C322.902,459.173 329.729,459.345 333.943,458.834 C338.015,458.342 342.785,456.396 344.197,452.117 C345.55,448.026 341.578,446.051 338.134,446.103 C331.327,446.207 324.603,447.196 317.923,448.464 C312.121,449.567 305.026,458.509 313.894,460.788 C322.161,462.912 330.757,462.983 339.244,462.987 C343.253,462.989 348.223,460.204 349.528,456.25 C350.897,452.108 346.887,450.22 343.447,450.218 C336.222,450.215 329.137,450.083 322.097,448.28 C320.753,452.388 319.41,456.496 318.068,460.604 C323.344,459.597 328.564,458.92 333.943,458.833 C335.34,454.59 336.737,450.346 338.134,446.103 C327.532,447.394 315.383,448.564 307.675,456.888 C303.48,461.42 305.823,465.778 311.655,466.061 C314.843,466.216 317.997,466.945 321.207,467.101 C321.882,462.96 322.556,458.819 323.229,454.678 C317.761,455.939 312.753,458.581 307.307,459.839 C303.728,460.665 298.896,463.666 298.95,467.883 C299.006,472.322 304.321,472.464 307.452,471.972 C309.86,471.594 313.687,473.601 316.014,474.228 C314.658,472.26 313.301,470.292 311.945,468.324 C310.957,470.807 310.894,473.657 309.556,475.998 C308.098,478.55 308.055,481.605 311.09,483.008 C314.528,484.598 318.267,483.168 321.321,481.479 C322.903,480.604 328.919,479.019 331.937,477.347 C328.44,475.002 324.944,472.659 321.447,470.315 C319.258,472.319 316.737,473.848 313.729,473.989 C314.493,477.521 315.256,481.053 316.02,484.586 C319.454,482.103 322.17,478.781 325.574,476.318 C332.309,471.443 329.19,464.521 321.106,466.022 C310.941,467.91 300.74,471.66 290.269,471 C286.472,470.761 282.838,471.698 280.042,474.445 C278.06,476.392 276.535,479.802 278.92,482.102 C280.967,484.078 283.131,485.739 285.6,487.159 C289.471,489.386 294.613,486.657 297.571,484.243 C306.297,477.123 309.958,463.764 304.911,453.442 C302.544,448.602 298.055,446.277 292.788,446.333 C285.498,446.411 279.544,451.849 275.561,457.388 C272.414,461.766 276.573,465.113 280.858,465.077 C288.36,465.016 295.89,464.176 303.254,465.994 C303.159,462.489 303.065,458.985 302.97,455.481 C300.143,457.147 296.321,457.583 293.238,458.626 C288.622,460.188 284.463,462.629 281.086,466.167 C279.065,468.286 277.651,471.369 279.961,473.847 C285.251,479.523 293.093,478.952 299.063,483.155 C300.01,480.132 300.958,477.108 301.905,474.084 C293.463,480.356 283.406,480.779 273.306,479.242 C271.222,483.486 269.139,487.729 267.056,491.972 C270.958,492.1 274.812,492.879 278.731,493.007 C279.413,488.824 280.093,484.641 280.775,480.458 C274.099,482.056 266.668,484.03 260.203,480.8 C260.288,483.675 260.373,486.551 260.457,489.427 C263.232,486.982 268.992,487.851 272.359,487.848 C273.042,483.66 273.723,479.47 274.406,475.282 C269.857,476.07 265.109,475.88 260.579,475.094 C261.248,478.151 261.918,481.206 262.587,484.263 C264.173,482.869 267.021,482.441 268.984,481.877 C273.108,480.693 277.226,479.439 281.045,477.456 C284.933,475.437 290.527,469.718 284.586,466.359 C278.777,463.075 271.357,462.797 264.9,463.671 C264.97,467.568 265.042,471.466 265.112,475.364 C270.533,472.866 276.306,471.648 281.979,469.872 C285.276,468.839 288.855,467.037 290.027,463.489 C291.275,459.712 287.496,457.031 283.994,457.504 C279.026,458.175 274.367,457.825 269.636,456.11 C269.719,458.927 269.802,461.745 269.885,464.561 C270.119,464.315 266.902,465.265 270.087,464.583 C271.035,464.381 272.318,464.548 273.286,464.548 C276.534,464.546 279.776,464.899 283.024,464.951 C286.76,465.01 297.945,458.441 292.192,453.93 C284.604,447.981 276.152,444.512 266.863,442.142 C259.727,440.322 248.434,451.536 258.742,454.525 C265.777,456.565 272.541,459.472 279.287,462.298 C285.556,464.923 299.408,456.097 290.896,450.907 C280.775,444.736 270.526,439.981 258.486,443.297 C254.502,444.395 247.013,449.392 251.352,454.175 C256.28,459.607 254.704,470.387 255.521,477.165 C261.084,475.86 266.646,474.556 272.209,473.251 C270.93,463.255 268.68,453.378 265.566,443.796 C264.56,440.698 259.89,440.679 257.423,441.258 C253.46,442.19 249.568,445 249.103,449.267 C248.135,458.138 248.872,467.304 244.975,475.565 C250.471,474.257 255.968,472.951 261.464,471.644 C256.689,464.599 256.441,456.566 255.467,448.386 C254.388,439.329 238.775,445.189 238.297,452.413 C237.866,458.939 230.452,465.75 233.291,472.6 C236.136,479.465 243.502,481.99 247.056,488.121 C250.545,484.739 254.035,481.357 257.524,477.975 C243.967,479.766 229.879,480.183 216.83,475.489 C214.095,479.66 211.36,483.83 208.625,488 C219.049,487.104 229.879,487.823 239.746,491.504 C242.499,487.307 245.251,483.109 248.004,478.912 C239.566,479.651 231.232,478.234 223.266,475.424 C224.079,477.297 224.892,479.17 225.704,481.043 C226.858,474.019 227.973,466.834 228.103,459.703 C222.225,461.082 216.346,462.461 210.468,463.84 C210.468,469.004 210.49,474.166 210.528,479.33 C210.587,487.48 224.642,483.241 226.937,478.601 C230.298,471.803 232.981,464.694 236.348,457.905 C230.98,458.143 225.611,458.382 220.242,458.621 C220.242,464.454 220.429,470.294 220.519,476.128 C220.57,479.384 224.04,480.579 226.769,480.464 C230.994,480.284 235.251,477.796 236.896,473.83 C239.7,467.067 241.921,460.475 246.652,454.75 C241.611,455.48 236.57,456.211 231.529,456.941 C236.043,465.774 233.185,477.97 233.175,487.516 C233.165,496.226 249.342,490.648 249.976,483.575 C250.498,477.75 251.284,471.975 252.541,466.261 C253.202,463.256 254.083,460.302 255.128,457.409 C255.584,456.146 256.12,454.952 256.777,453.784 C256.866,453.626 258.7,451.485 257.506,452.411 C261.526,449.296 263.404,443.983 257.232,442.263 C249.542,440.12 241.814,441.224 234.077,442.492 C228.835,443.35 221.328,453.033 230.198,454.356 C237.923,455.509 245.027,454.039 252.275,451.357 C258.561,449.03 260.648,440.021 252.072,440.174 C243.359,440.33 235.522,442.263 227.867,446.421 C222.138,449.534 223.432,456.466 230.034,456.443 C236.443,456.422 242.748,456.186 249.074,455.078 C252.166,454.536 255.676,452.108 256.69,449.037 C257.948,445.23 254.238,443.258 250.979,443.372 C247.057,443.511 243.215,444.3 239.292,444.437 C235.521,444.57 230.937,446.944 229.686,450.73 C228.372,454.708 232.194,456.213 235.367,456.365 C238.2,456.501 241,457.238 243.865,457.375 C243.799,453.741 243.732,450.106 243.667,446.472 C239.125,448.742 235.695,451.363 232.611,455.419 C237.502,455.202 242.393,454.985 247.285,454.768 C247.546,451.947 247.769,449.905 246.962,447.143 C246.084,444.142 241.645,444.405 239.387,444.783 C226.673,446.909 213.571,445.906 201.176,449.992 C197.927,451.063 193.439,453.292 193.49,457.388 C193.539,461.179 198.46,462.01 201.308,461.148 C205.781,459.794 211.372,458.287 215.994,459.849 C217.777,456.201 219.559,452.553 221.342,448.906 C216.916,450.219 212.982,452.741 208.605,454.038 C205.508,454.956 202.135,456.734 201.045,460.033 C199.743,463.973 203.536,465.543 206.713,465.655 C210.613,465.793 214.462,466.584 218.379,466.722 C217.663,463.414 216.948,460.107 216.233,456.799 C211.706,460.012 206.932,462.857 202.405,466.071 C198.282,469 196.825,474.314 202.673,475.956 C209.725,477.935 217.441,476.061 224.343,478.595 C223.857,476.372 223.37,474.15 222.884,471.927 C221.46,474.484 220.984,474.577 218.594,475.193 C215.21,476.064 211.538,475.898 208.093,475.531 C200.928,474.768 192.825,472.74 186.782,468.627 C182.7,471.925 178.618,475.222 174.537,478.519 C178.222,480.361 181.71,482.472 185.168,484.705 C187.644,480.931 190.118,477.156 192.593,473.382 C188.918,473.861 187.011,470.454 186.81,467.166 C182.38,469.558 177.949,471.95 173.519,474.342 C178.694,477.442 183.439,481.146 188.2,484.836 C193.049,488.595 204.456,484.046 202.39,477.119 C201.702,474.81 201.628,472.675 201.611,470.281 C197.749,472.818 193.886,475.354 190.023,477.891 C195.908,478.988 201.873,478.094 207.799,477.993 C211.794,477.925 217.46,474.817 217.521,470.284 C217.574,466.263 217.99,465.163 219.72,461.919 C220.977,459.563 221.177,456.739 218.306,455.456 C207.866,450.789 196.284,451.7 185.137,451.757 C179.341,451.786 170.153,461.219 179.415,463.411 C187.727,465.379 196.065,466.539 204.614,466.624 C210.545,466.683 219.452,457.388 210.336,454.97 C200.989,452.49 191.546,452.041 182.072,454.104 C179.022,454.768 175.624,456.929 174.598,460.031 C173.698,462.757 175.632,465.123 178.353,465.478 C186.531,466.546 194.455,468.436 202.227,471.192 C204,467.565 205.773,463.937 207.545,460.31 C198.331,462.968 188.423,459.638 179.533,457.068 C177.024,460.895 174.514,464.721 172.006,468.548 C179.373,470.587 186.736,472.565 194.308,473.695 C196.198,469.845 198.088,465.995 199.978,462.145 C191.554,462.199 183.382,462.893 175.779,458.625 C171.055,455.975 158.339,463.03 163.901,468.219 C164.374,468.66 164.812,469.105 165.232,469.596 C165.064,469.4 165.051,469.036 165.059,469.29 C165.018,467.851 166.206,466.328 167.354,465.572 C168.201,465.014 170.598,464.379 168.355,464.928 C167.014,465.257 167.011,465.208 164.599,465.345 C162.253,465.48 159.897,465.43 157.55,465.346 C153.247,465.193 148.938,464.63 144.694,463.929 C141.165,463.346 138.792,462.969 136.467,461.765 C134.731,465.319 132.993,468.873 131.257,472.427 C142.584,469.674 155.445,472.519 166.237,476.261 C166.675,473.265 167.115,470.269 167.552,467.273 C168.148,466.891 169.741,466.392 168.697,466.691 C167.479,467.039 166.219,467.243 164.971,467.445 C162.935,467.776 158.936,467.9 156.168,467.895 C152.606,467.888 144.839,467.472 143.263,464.852 C142.741,463.984 143.531,463.623 142.508,465.609 C141.839,466.543 140.991,467.227 139.964,467.662 C138.266,468.523 140.02,467.673 140.567,467.556 C139.925,467.694 142.982,467.4 143.695,467.382 C145.035,467.351 146.377,467.402 147.712,467.504 C150.87,467.748 154.013,468.228 157.123,468.816 C158.36,469.049 159.587,469.332 160.807,469.639 C161.586,469.857 161.61,469.856 160.878,469.635 C161.258,469.754 161.625,469.902 161.988,470.063 C163.053,466.725 164.119,463.386 165.184,460.048 C167.905,459.099 166.512,459.594 165.816,459.735 C164.14,460.076 167.649,459.529 165.662,459.764 C163.979,459.962 162.282,460.044 160.591,460.116 C156.883,460.273 153.135,460.254 149.432,460.006 C145.55,459.746 141.668,459.254 137.889,458.318 C135.794,457.798 138.524,458.594 136.676,457.917 C136.455,457.836 134.413,456.799 135.276,457.38 C135.065,457.238 134.041,456.127 134.805,457.221 C134.534,456.833 134.713,457.21 134.596,457.677 C134.431,458.332 133.671,458.877 133.168,459.242 C132.889,459.445 130.515,460.199 132.297,459.791 C130.887,460.113 133.397,459.749 133.459,459.746 C134.399,459.706 135.321,459.758 136.256,459.843 C141.389,460.306 146.467,461.521 151.472,462.701 C159.61,464.621 168.612,468.07 177.098,467.409 C180.108,467.175 190.802,461.614 185.325,457.521 C174.618,449.52 161.874,446.254 150.166,440.156 C147.228,443.697 144.291,447.238 141.353,450.779 C151.161,452.842 160.291,456.742 169.437,460.742 C171.826,457.099 174.214,453.457 176.604,449.813 C167.416,449.701 157.209,448.265 149.5,442.874 C146.031,446.269 142.562,449.663 139.092,453.057 C146.529,454.078 154.905,455.882 160.657,461.025 C163.507,457.6 166.356,454.174 169.206,450.75 C161.109,451.311 153.115,447.125 149.1,440.003 C144.507,442.501 139.915,444.997 135.324,447.494 C137.103,449.17 138.717,450.862 138.616,453.079 C138.653,452.24 139.113,452.172 138.628,452.639 C139.148,452.139 139.541,452.01 138.988,452.143 C139.974,451.907 138.245,452.159 138.184,452.152 C136.707,451.982 137.512,452.132 136.254,451.445 C136.467,451.561 135.718,450.646 135.565,450.321 C135.064,449.257 135.336,447.797 135.533,446.573 C131.805,449.021 128.078,451.469 124.35,453.916 C127.86,454.654 131.958,455.658 134.066,457.674 C134.371,457.966 134.264,458.897 134.503,457.523 C134.229,459.11 134.99,456.933 134.45,457.806 C133.898,458.7 135.544,456.748 134.137,458.1 C133.278,458.926 135.419,457.222 133.629,458.437 C131.728,459.726 134.308,458.178 132.991,458.848 C132.258,459.221 131.497,459.537 130.736,459.848 C128.632,460.707 131.028,459.822 129.707,460.22 C128.87,460.473 128.018,460.671 127.165,460.861 C126.847,460.932 124.129,461.325 125.903,461.11 C125.062,461.212 124.216,461.251 123.371,461.278 C122.961,461.286 122.55,461.284 122.139,461.272 C122.938,461.331 122.944,461.324 122.157,461.251 C119.622,460.993 118.427,460.328 117.715,458.93 C117.21,457.938 117.187,457.014 117.347,455.209 C117.267,455.551 117.35,455.275 117.597,454.383 C116.492,456.053 115.003,456.991 113.132,457.197 C113.287,457.18 114.571,457.47 115.04,457.644 C117.353,458.498 119.181,459.954 120.772,461.805 C121.147,462.242 121.407,463.105 121.442,463.564 C122.545,460.789 125.038,459.175 128.922,458.723 C130.719,459.117 131.028,459.092 129.853,458.65 C126.653,457.252 122.041,451.788 122.662,448.019 C118.438,449.852 114.215,451.685 109.991,453.518 C115.442,455.539 118.803,459.668 118.271,465.627 C122.565,463.309 126.86,460.989 131.155,458.671 C125.958,455.833 124.099,450.089 123.93,444.486 C119.645,446.799 115.36,449.113 111.075,451.426 C116.837,454.656 123.222,459.256 130.106,459.211 C134.349,459.185 138.853,457.126 141.131,453.452 C143.358,449.863 142.003,445.687 140.599,442.073 C136.423,444.842 132.248,447.609 128.073,450.377 C131.952,452.909 135.858,453.062 140.25,453.946 C144.825,454.867 152.981,450.767 151.204,445.178 C147.676,434.084 133.606,431.423 123.516,431.262 C119.041,431.191 109.439,438.477 116.418,442.087 C119.232,443.543 121.935,445.105 124.914,446.216 C129.439,447.904 142.166,442.564 136.57,436.801 C126.734,426.671 107.459,429.232 95.039,431.561 C89.82,432.54 83.61,440.443 91.453,442.532 C98.784,444.484 106.245,445.612 113.751,446.653 C115.586,442.915 117.421,439.177 119.256,435.439 C113.933,435.547 108.662,436.361 103.339,436.464 C97.84,436.57 88.818,445.665 97.825,447.693 C102.188,448.675 106.242,450.645 110.556,451.836 C111.752,448.178 112.949,444.52 114.144,440.86 C110.181,441.856 106.074,443.341 101.947,442.756 C97.176,442.078 87.548,446.871 91.859,452.626 C96.829,459.259 104.8,461.802 112.172,464.825 C115.134,461.254 118.097,457.682 121.059,454.111 C109.339,452.211 96.167,450.794 86.634,443.034 C83.292,446.305 79.948,449.575 76.607,452.846 C87.491,455.125 97.414,460.696 108.545,462.003 C112.231,462.437 116.358,460.895 118.447,457.706 C120.431,454.681 118.839,452.043 115.627,451.206 C108.529,449.354 100.18,448.835 94.883,443.198 C92.855,446.291 90.826,449.384 88.798,452.477 C96.399,451.032 103.775,449.656 109.85,444.538 C114.022,441.024 110.995,436.79 106.447,436.695 C100.782,436.577 95.364,435.894 89.736,436.954 C91.852,439.043 93.967,441.132 96.083,443.221 C96.193,443.07 96.304,442.919 96.415,442.769 C93.724,444.218 91.031,445.667 88.34,447.117 C92.456,446.753 95.679,445.632 98.206,442.188 C100.936,438.466 97.298,435.664 93.711,435.663 C87.167,435.661 80.69,435.572 74.191,434.732 C70.565,434.263 66.456,435.854 64.408,438.977 C62.421,442.007 64.054,444.517 67.195,445.4 C70.52,446.335 73.458,448.263 76.329,450.119 C78.585,446.679 80.841,443.238 83.098,439.798 C77.609,439.794 72.201,439.656 66.759,438.871 C64.429,442.425 62.099,445.977 59.769,449.531 C66.673,450.535 73.622,450.65 80.587,450.646 C80.526,447.334 80.467,444.024 80.406,440.713 C71.647,443.906 60.766,442.847 52.262,439.373 C50.033,442.773 47.803,446.173 45.574,449.573 C53.639,448.46 61.889,449.494 69.995,449.547 C70.561,446.068 71.128,442.588 71.694,439.109 C66.891,440.535 58.819,442.304 55.016,439.202 C54.692,438.937 54.698,438.482 54.731,439.129 C54.629,440.09 54.244,440.892 53.575,441.535 C53.254,441.872 49.915,443.303 51.573,442.888 C54.153,442.242 59.651,443.448 63.041,444.229 C65.312,440.766 67.584,437.301 69.855,433.838 C60.445,432.705 51.411,429.942 42.242,427.66 C39.981,431.106 37.721,434.554 35.461,438 C37.496,438.324 39.471,438.911 41.188,440.107 C41.683,440.453 42.435,441.019 42.769,441.541 C43.022,441.936 46.854,437.777 45.894,437.898 C47.568,439.558 49.24,441.217 50.914,442.877 C51.375,441.481 51.8,440.073 52.246,438.672 C52.865,437.241 52.377,437.66 50.783,439.931 C49.648,440.836 52.504,439.274 52.437,439.301 C49.549,437.93 46.662,436.56 43.773,435.19 C43.279,436.789 42.746,438.073 41.782,439.44 C41.683,439.58 40.636,439.882 41.91,439.493 C40.619,439.888 38.543,439.49 36.449,438.589 C34.732,437.851 32.691,436.286 32.107,435.269 C31.394,434.03 32.068,434.916 31.431,436.045 C30.046,438.501 26.837,438.104 31.113,437.931 C32.309,437.883 31.519,439.877 31.517,439.882 C31.076,440.527 31.068,440.559 31.494,439.978 C36.09,435.124 40.935,440.206 36.854,437.402 C35.375,436.386 34.873,434.589 33.851,435.776 C35.281,434.116 37.955,434.912 34.553,434.547 C33.575,434.442 32.756,433.152 33.076,433.958 C32.731,433.089 32.976,434.434 32.964,434.67 C32.981,434.356 32.461,436.18 32.25,436.679 C32.671,435.68 31.863,437.158 31.799,437.25 C33.753,434.458 42.942,437.994 40.716,434.958 C37.755,430.922 30.421,435.275 28.361,437.953 C28.335,437.986 28.308,438.02 28.283,438.054 C32.014,436.797 35.746,435.539 39.478,434.282 C40.801,434.996 38.045,432.34 37.507,431.709 C36.542,430.579 35.672,429.618 34.338,428.898 C30.53,426.846 25.421,429.685 23.114,432.68 C23.089,432.713 23.063,432.747 23.037,432.781 C27.423,432.145 31.808,431.51 36.192,430.875 C35.743,430.207 35.737,430.347 36.359,429.216 C37.315,427.478 26.342,427.675 28.379,431.076 C28.513,431.298 29.233,433.196 29.08,432.411 C29.298,433.524 29.027,433.279 29.44,432.535 C29.633,432.185 30.749,431.393 30.097,431.811 C30.653,431.454 31.66,431.152 30.934,431.356 C30.59,431.453 28.199,431.784 29.92,431.592 C28.885,431.707 27.84,431.709 26.801,431.69 C25.362,431.664 21.149,430.548 20.133,429.777 C18.924,428.859 19.125,428.957 19.101,428.657 C19.075,428.327 19.202,428.296 18.977,428.719 C19.601,427.543 19.467,427.949 20.594,426.924 C24.391,423.468 21.957,419.173 17.256,419.232 C16.901,419.236 16.545,419.241 16.19,419.246 C15.627,422.707 15.063,426.168 14.499,429.629 C20.789,428.095 27.495,430.623 33.159,433.243 C37.195,435.109 48.626,429.416 43.508,424.883 C36.726,418.875 28.343,417.33 19.692,419.865 C16.696,420.744 9.429,426.349 15.229,428.997 C21.221,431.732 27.488,433.348 34.078,433.528 C38.885,433.66 46.372,425.036 38.775,423.961 C31.597,422.945 24.725,423.105 17.572,424.209 C17.607,427.203 17.642,430.195 17.677,433.189 C19.411,432.628 20.677,432.335 22.464,432.309 C20.925,431.242 19.386,430.174 17.847,429.107 C17.833,431.691 17.775,434.327 15.593,436.076 C18.318,435.932 21.042,435.789 23.767,435.645 C21.458,433.194 20.316,430.308 22.814,427.51 C19.531,427.32 16.248,427.129 12.964,426.939 C12.96,430.937 12.162,432.35 9.39,435.121 C12.491,434.969 15.59,434.816 18.69,434.664 C16.789,431.342 16.201,428.932 19.336,426.342 C24.352,422.178 16.458,418.96 12.733,421.907 L12.733,421.907 Z" id="Shape"></path>
                    <path d="M300.603,449.084 C301.746,448.867 301.892,448.807 301.043,448.903 C298.564,449.111 292.58,451.775 294.414,455.327 C296.403,459.178 304.136,459.151 307.915,459.427 C313.902,459.864 319.75,459.057 325.477,457.28 C324.298,454.563 323.12,451.845 321.94,449.129 C318.684,451.122 315.39,453.066 312.18,455.132 C307.982,457.835 307.631,464.919 314.103,464.024 C323.266,462.757 331.516,459.23 340.342,456.705 C339.051,453.729 337.759,450.753 336.467,447.777 C331.461,450.657 326.435,453.465 321.249,456.013 C315.988,458.599 313.076,466.475 321.437,466.38 C333.394,466.245 344.851,463.29 356.263,459.987 C356.22,456.347 356.177,452.709 356.134,449.069 C345.869,452.311 335.394,454.826 325.435,458.979 C319.656,461.389 317.3,469.758 325.628,469.638 C336.163,469.486 346.07,466.498 356.265,464.223 C355.536,460.744 354.81,457.264 354.081,453.785 C344.655,458.724 334.458,461.502 324.29,464.455 C321.02,465.405 316.553,467.841 316.603,471.852 C316.655,475.95 321.543,476.043 324.422,475.613 C338.374,473.522 351.725,467.873 365.937,467.648 C369.643,467.589 374.197,465.125 375.415,461.44 C376.682,457.606 372.976,455.905 369.811,455.88 C355.528,455.771 341.585,454.325 328.789,462.01 C326.32,463.491 323.283,467.774 326.175,470.354 C337.39,480.358 357.956,477.309 371.125,473.609 C374.209,472.743 377.579,470.893 378.654,467.638 C379.527,464.996 377.646,462.367 374.871,462.151 C362.017,461.147 349.565,463.971 337.026,466.436 C337.071,470.211 337.116,473.989 337.161,477.764 C352.807,474.688 368.26,470.738 383.862,467.46 C386.961,466.81 390.425,464.571 391.462,461.434 C392.356,458.729 390.433,456.167 387.644,455.895 C377.034,454.86 366.414,453.914 355.813,452.778 C354.549,456.643 353.286,460.508 352.022,464.375 C362.898,460.909 373.743,458.078 383.681,452.282 C387.369,450.132 389.657,442.869 383.414,442.435 C369.102,441.441 355.182,443.409 341.271,446.735 C341.317,450.552 341.362,454.371 341.408,458.188 C351.682,454.932 362.37,452.77 372.18,448.188 C374.514,447.098 376.868,445.387 377.714,442.827 C378.619,440.087 376.673,437.549 373.871,437.252 C362.524,436.049 351.347,437.369 341.433,443.315 C334.655,447.38 338.298,454.803 345.654,453.041 C355.725,450.626 365.938,448.489 375.377,444.085 C381.145,441.393 384.05,432.85 375.176,432.968 C360.977,433.156 345.697,437.157 333.972,445.353 C327.334,449.993 330.684,456.398 338.225,455.154 C351.254,453.007 363.298,446.361 376.477,445.136 C380.375,444.775 384.99,442.72 386.322,438.688 C387.633,434.722 383.794,432.916 380.501,432.914 C379.381,432.913 378.26,432.912 377.14,432.912 C373.301,432.91 368.542,435.577 367.291,439.363 C365.98,443.329 369.82,445.136 373.114,445.138 C388.143,445.147 402.952,446.923 417.83,443.835 C421.009,443.175 424.565,440.864 425.628,437.65 C426.943,433.669 423.089,431.852 419.781,431.851 C412.326,431.849 404.901,431.929 397.496,432.873 C393.95,433.325 390.415,434.66 388.361,437.792 C386.156,441.154 387.908,444.148 391.514,445.059 C403.332,448.038 415.507,448.19 427.588,449.213 C431.767,449.567 436.293,448.053 438.692,444.394 C440.644,441.417 439.413,437.448 435.529,437.104 C421.701,435.879 408.123,435.197 394.34,437.262 C395.111,440.951 395.883,444.641 396.654,448.33 C399.212,447.454 401.654,446.408 404.086,445.232 C407.246,443.703 413.878,436.934 407.514,434.49 C395.818,429.998 382.618,430.913 370.93,434.867 C364.282,437.117 362.569,446.27 371.137,446.268 C377.211,446.267 383.175,445.98 389.172,444.947 C387.168,442.054 385.164,439.162 383.16,436.27 C378.361,440.844 373.369,445.023 369.163,450.177 C367.445,452.281 367.875,456.038 370.66,457.023 C383.175,461.445 395.456,458.914 408.273,457.674 C408.935,453.608 409.597,449.54 410.259,445.474 C398.388,447.786 386.855,450.477 376.3,456.602 C370.922,459.724 371.279,467.665 378.548,466.996 C392.012,465.757 404.827,461.93 417.83,458.448 C417.782,454.457 417.735,450.465 417.687,446.473 C403.281,451.024 388.096,453.343 375.226,461.757 C370.938,464.562 369.36,470.637 375.505,472.064 C390.291,475.498 405.2,469.808 418.961,464.911 C423.441,463.317 428.645,454.206 420.715,453.568 C404.525,452.267 382.582,452.671 370.455,465.227 C367.38,468.412 367.424,473.052 372.384,474.033 C389.93,477.503 409.826,470.735 425.288,462.754 C427.957,461.376 431.226,459.153 431.183,455.725 C431.131,451.642 425.996,451.043 422.995,451.787 C417.714,453.096 412.863,454.871 408.197,457.69 C403.037,460.809 403.143,468.687 410.416,467.947 C426.586,466.301 443.274,458.84 454.543,446.974 C458.52,442.786 456.536,437.735 450.607,437.904 C438.622,438.244 427.714,443.464 416.533,447.195 C413.711,448.137 410.437,451.231 410.477,454.417 C410.528,458.459 415.831,459.444 418.889,458.463 C429.531,455.051 439.993,451.977 449.692,446.278 C455.057,443.127 454.78,435.107 447.429,435.814 C433.372,437.168 420.39,442.078 407.073,446.447 C403.569,447.595 398.731,450.008 398.787,454.421 C398.843,458.811 404.113,458.98 407.216,458.475 C422.062,456.063 435.932,449.943 449.769,444.305 C454.497,442.379 459.425,434.188 451.545,432.821 C444.78,431.646 438.232,431.832 431.485,433.001 C425.984,433.953 418.43,443.53 427.486,445.23 C440.252,447.626 454.389,444.011 464.563,435.954 C466.76,434.214 469.632,431.456 468.26,428.296 C466.96,425.3 462.838,425.108 460.141,425.765 C458.726,426.11 457.312,426.454 455.897,426.8 C452.348,427.664 447.546,430.568 447.6,434.784 C447.656,439.147 452.933,439.392 456.039,438.843 C462.565,437.689 468.85,435.711 475.143,433.669 C475.095,429.659 475.048,425.648 475,421.638 C461.534,426.079 448.297,431.68 439.124,442.93 C435.737,447.083 440.337,450.606 444.339,450.499 C457.273,450.155 469.54,444.533 480.465,438.002 C482.828,436.59 485.408,433.286 484.146,430.378 C482.435,426.435 476.93,427.477 473.851,428.595 C463.355,432.406 452.517,435.868 443.152,442.117 C437.498,445.891 438.336,452.194 445.407,452.546 C462.147,453.377 478.602,445.019 492.123,435.92 C498.631,431.541 495.672,423.586 487.738,425.815 C475.308,429.306 464.159,435.377 452.644,441.047 C448.391,443.142 442.8,451.05 450.892,452.38 C462.688,454.318 474.747,449.55 484.986,444.112 C495.864,438.335 506.438,431.09 514.955,422.126 C520.978,415.785 512.929,411.246 506.791,414.209 C499.135,417.905 491.358,421.417 484.619,426.683 C482.462,428.369 479.67,431.091 481.006,434.168 C482.232,436.994 486.36,437.432 488.942,436.642 C501.052,432.935 511.534,427.036 521.296,419.011 C523.367,417.308 524.556,413.722 522.376,411.631 C519.925,409.279 515.977,410.063 513.173,411.133 C503.748,414.731 495.038,419.95 486.749,425.654 C484.512,427.194 481.854,430.164 483.142,433.129 C484.81,436.975 490.226,436.003 493.233,434.877 C504.657,430.601 515.62,423.643 520.151,411.807 C521.589,408.05 517.512,405.639 514.258,405.963 C498.627,407.516 483.901,414.124 470.751,422.483 C463.946,426.808 467.347,434.605 475.145,432.605 C486.611,429.665 497.426,424.221 507.051,417.381 C512.26,413.679 512.353,406.688 504.767,406.813 C488.846,407.075 472.023,413.942 460.4,424.79 C454.744,430.069 460.504,435.282 466.657,433.82 C475,431.837 480.282,426.739 484.697,419.651 C487.48,415.182 483.992,411.74 479.333,411.865 C470.318,412.107 462.685,415.573 456.126,421.675 C451.611,425.876 454.37,431.208 460.197,431.057 C470.037,430.801 475.65,425.848 481.548,418.624 C484.864,414.561 480.451,410.315 476.159,410.803 C468.968,411.618 462.463,413.989 457.315,419.243 C453.666,422.969 451.795,428.243 448.33,431.844 C445.746,434.527 444.369,439.122 448.601,441.078 C452.721,442.982 458.477,441.064 461.486,437.939 C464.192,435.128 466.116,431.959 467.963,428.556 C469.195,426.285 470.277,424.019 471.868,423.835 C470.072,421.229 468.276,418.621 466.479,416.014 C465.619,417.073 464.777,418.103 463.825,419.082 C464.855,418.022 467.547,417.964 464.478,418.05 C465.835,421.177 467.193,424.304 468.549,427.432 C470.705,425.418 472.111,424.924 475.061,424.839 C473.273,422.243 471.485,419.649 469.697,417.053 C468.95,418.257 467.124,421.343 466.51,421.49 C468.596,424.501 470.681,427.511 472.767,430.52 C480.017,423.728 490.699,419.773 500.572,419.555 C499.81,416.033 499.049,412.51 498.288,408.987 C491.225,414.064 483.466,418.421 475.003,420.638 C476.468,424.012 477.932,427.386 479.397,430.76 C488.566,424.864 499.192,419.437 510.187,418.334 C508.223,416.387 506.258,414.438 504.294,412.49 C501.727,419.22 495.088,422.188 488.759,424.564 C490.92,427.638 493.08,430.712 495.242,433.787 C502.33,428.9 509.572,424.504 517.642,421.433 C514.935,418.807 512.227,416.181 509.519,413.555 C503.393,418.58 496.393,422.554 488.802,424.869 C490.243,428.188 491.684,431.508 493.124,434.828 C498.711,430.473 504.94,427.613 511.284,424.559 C508.562,421.92 505.842,419.281 503.12,416.642 C497.003,423.068 489.721,428.224 482.128,432.76 C475.634,436.641 466.739,441.439 458.921,440.138 C458.337,443.915 457.753,447.693 457.169,451.471 C467.207,446.548 477.05,440.783 487.88,437.762 C486.419,434.394 484.957,431.025 483.495,427.657 C473.457,434.408 461.987,440.598 449.547,439.972 C450.299,443.449 451.05,446.924 451.802,450.401 C459.79,445.076 469.462,442.361 478.419,439.115 C476.214,435.979 474.009,432.844 471.805,429.708 C464.77,433.907 456.814,437.67 448.493,437.887 C450.231,440.41 451.97,442.934 453.708,445.456 C458.736,439.298 467.855,436.07 475.145,433.67 C478.65,432.517 483.49,430.11 483.433,425.693 C483.382,421.648 478.066,420.646 475.002,421.638 C468.709,423.675 462.424,425.65 455.898,426.8 C455.946,430.814 455.993,434.829 456.041,438.843 C457.456,438.499 458.87,438.155 460.285,437.812 C458.811,434.416 457.337,431.019 455.863,427.623 C449.989,432.269 443.042,434.208 435.628,432.819 C434.295,436.895 432.962,440.972 431.629,445.048 C435.602,444.359 439.456,444.543 443.409,445.228 C444.001,441.4 444.594,437.572 445.185,433.744 C432.733,438.821 420.437,444.272 407.074,446.449 C407.122,450.458 407.169,454.468 407.217,458.476 C418.99,454.611 430.845,449.633 443.279,448.433 C442.525,444.945 441.77,441.456 441.016,437.969 C434.125,442.02 426.301,444.034 418.748,446.46 C419.533,450.216 420.319,453.972 421.104,457.728 C429.368,454.966 437.622,450.744 446.467,450.48 C445.155,447.457 443.844,444.433 442.531,441.41 C435.45,448.888 424.787,454.447 414.486,455.582 C415.226,459.001 415.965,462.42 416.705,465.839 C418.703,464.61 420.876,464.052 423.134,463.473 C422.369,459.818 421.606,456.162 420.841,452.506 C409.081,458.693 393.81,464.619 380.343,461.899 C380.986,464.835 381.629,467.77 382.272,470.705 C388.321,464.489 404.112,465.117 412.68,465.825 C413.265,462.044 413.85,458.262 414.434,454.482 C404.63,457.949 394.098,462.2 383.593,459.735 C383.686,463.171 383.78,466.606 383.872,470.042 C393.916,463.503 406.582,462.016 417.829,458.451 C421.323,457.343 426.133,454.88 426.077,450.513 C426.025,446.372 420.756,445.652 417.686,446.477 C406.142,449.581 394.628,453.354 382.671,454.468 C383.42,457.932 384.169,461.397 384.919,464.862 C392.57,460.41 401.837,459.056 410.398,457.381 C413.63,456.748 417.264,454.331 418.336,451.085 C419.597,447.269 415.821,444.845 412.384,445.181 C402.596,446.138 391.665,449.21 382.068,445.832 C382.567,448.114 383.066,450.395 383.565,452.678 C386.868,448.621 391.271,445.383 395.041,441.781 C400.604,436.466 394.844,432.096 389.029,433.104 C384.49,433.891 379.818,433.843 375.224,433.849 C375.292,437.65 375.362,441.45 375.431,445.25 C381.693,443.124 390.003,443.27 396.163,445.627 C397.306,442.046 398.448,438.466 399.591,434.885 C397.16,436.064 394.719,437.112 392.163,437.99 C389.392,438.941 386.174,441.935 386.214,445.084 C386.269,449.412 391.435,449.518 394.478,449.059 C405.436,447.405 416.609,448.257 427.585,449.217 C430.232,445.18 432.879,441.145 435.526,437.108 C423.436,436.098 411.255,435.96 399.424,432.993 C397.43,437.056 395.436,441.117 393.443,445.179 C400.85,444.227 408.278,444.138 415.736,444.131 C416.386,440.137 417.037,436.143 417.687,432.148 C404.356,434.93 390.618,432.908 377.135,432.916 C373.295,432.918 368.538,435.578 367.286,439.367 C365.976,443.33 369.814,445.144 373.109,445.142 C374.23,445.142 375.351,445.141 376.472,445.14 C377.813,441.066 379.155,436.992 380.495,432.917 C365.759,434.302 352.571,441.162 338.083,443.571 C339.5,446.838 340.918,450.104 342.336,453.372 C350.592,447.585 361.225,445.231 371.183,445.085 C371.116,441.38 371.048,437.674 370.982,433.968 C362.892,437.756 354.147,439.466 345.513,441.547 C346.92,444.789 348.326,448.03 349.734,451.273 C354.442,448.441 360.844,448.515 366.12,449.071 C366.683,445.425 367.248,441.78 367.811,438.134 C359.344,442.091 350.138,443.923 341.267,446.739 C337.925,447.8 333.324,450.153 333.377,454.333 C333.428,458.353 338.459,458.898 341.403,458.192 C352.62,455.505 364.095,453.422 375.682,454.222 C375.593,450.94 375.504,447.658 375.415,444.375 C368.178,448.6 359.792,450.43 351.879,452.954 C348.759,453.95 345.374,455.626 344.26,458.997 C343.358,461.727 345.298,464.253 348.088,464.551 C358.695,465.682 369.322,466.616 379.941,467.637 C381.202,463.782 382.462,459.926 383.722,456.072 C368.119,459.37 352.667,463.342 337.021,466.44 C333.67,467.103 329.168,470.089 329.217,473.95 C329.269,478.012 334.236,478.346 337.155,477.768 C346.958,475.829 357.158,473.008 367.24,473.784 C368.488,469.965 369.737,466.145 370.986,462.326 C362.38,464.754 347.013,468.114 339.518,461.448 C338.647,464.229 337.776,467.011 336.904,469.792 C344.845,465.013 357.14,467.595 365.932,467.652 C367.223,463.729 368.514,459.807 369.805,455.884 C354.161,456.149 339.607,462.146 324.284,464.458 C324.329,468.178 324.372,471.896 324.417,475.616 C335.918,472.262 347.651,469.142 358.31,463.544 C360.844,462.212 363.961,460.132 363.919,456.854 C363.87,452.92 358.988,452.463 356.126,453.106 C347.235,455.1 338.628,457.849 329.446,458.027 C329.51,461.581 329.575,465.133 329.639,468.686 C338.27,465.04 347.355,462.846 356.256,459.991 C359.441,458.97 363.828,456.743 363.777,452.753 C363.729,449.027 358.917,448.252 356.127,449.073 C345.941,452.072 335.837,454.913 325.148,455.087 C325.211,458.542 325.273,461.998 325.336,465.454 C331.739,462.27 337.933,458.726 344.083,455.081 C350.151,451.483 347.011,444.11 340.208,446.153 C332.045,448.604 324.275,452.273 315.798,453.561 C317.047,456.44 318.296,459.319 319.546,462.198 C322.703,460.132 325.78,457.936 328.892,455.799 C330.726,454.538 332.904,452.102 331.849,449.672 C330.478,446.511 326.047,447.329 323.578,448.239 C316.755,450.751 309.683,450.709 302.613,449.419 C303.485,450.014 304.357,450.608 305.228,451.202 C305.132,451.056 305.035,450.909 304.938,450.762 C303.199,452.837 301.459,454.913 299.719,456.989 C301.137,456.764 302.243,456.524 303.526,455.843 C305.383,454.857 308.313,452.789 307.205,450.234 C306.155,447.792 302.525,448.23 300.603,449.084 L300.603,449.084 Z" id="Shape"></path>
                </g>
            </g>
        </g>
    </g>
</svg>