<?xml version="1.0" encoding="UTF-8"?>
<svg width="499px" height="470px" viewBox="0 0 499 470" version="1.1" xmlns="http://www.w3.org/2000/svg" xmlns:xlink="http://www.w3.org/1999/xlink">
    <!-- Generator: Sketch 41 (35326) - http://www.bohemiancoding.com/sketch -->
    <title>pencil</title>
    <desc>Created with Sketch.</desc>
    <defs></defs>
    <g id="Page-1" stroke="none" stroke-width="1" fill="none" fill-rule="evenodd">
        <g id="Layer_1" transform="translate(-4234.000000, -4062.000000)" fill="#000000">
            <g id="Layer_1_3_">
                <g id="pencil" transform="translate(4234.000000, 4062.000000)">
                    <path d="M65.974,280.069 C71.203,272.03 81.593,266.999 89.392,261.867 C101.094,254.167 111.011,243.954 121.315,234.535 C143.815,213.968 167.258,194.47 189.622,173.759 C211.601,153.404 232.591,131.976 252.578,109.663 C262.27,98.845 271.489,87.629 280.954,76.614 C289.704,66.431 298.688,56.216 310.154,49.042 C306.797,47.167 303.439,45.292 300.082,43.416 C301.865,41.331 302.087,40.983 300.75,42.373 C299.937,43.18 299.176,44.032 298.466,44.931 C293.724,50.672 299.645,57.22 305.916,53.419 C310.539,50.618 314.571,48.008 315.447,42.172 C316.66,34.095 308.175,34.43 303.473,37.905 C280.781,54.682 263.986,78.607 245.521,99.614 C225.026,122.928 203.146,145.017 180.386,166.119 C158.029,186.848 134.574,206.36 112.078,226.946 C102.182,236.004 92.671,245.55 81.467,252.989 C72.035,259.252 60.712,265.563 56.739,276.856 C54.373,283.586 62.658,285.168 65.974,280.069 L65.974,280.069 Z" id="Shape"></path>
                    <path d="M241.556,112.731 C245.41,118.116 251.489,121.808 256.619,125.904 C262.432,130.547 268.003,135.504 273.43,140.591 C285.056,151.487 296.576,162.511 308.157,173.458 C320.449,185.077 332.341,197.116 344.02,209.349 C355.66,221.538 367.981,233.662 378.408,246.917 C379.651,243.348 380.894,239.778 382.137,236.21 C381.966,236.316 381.795,236.423 381.623,236.529 C383.865,236.347 386.106,236.166 388.348,235.984 C387.6,235.665 385.473,234.387 383.753,234.11 C379.742,233.464 373.442,238.331 375.585,242.815 C376.287,244.283 376.677,246.035 377.915,247.178 C380.303,249.382 383.135,248.92 385.858,247.602 C386.037,247.516 386.215,247.429 386.394,247.342 C389.543,245.818 393.462,239.813 390.123,236.635 C377.861,224.971 366.861,211.805 355.11,199.616 C342.929,186.981 330.46,174.625 317.63,162.647 C306.012,151.8 294.366,140.907 282.486,130.345 C272.21,121.208 258.951,108.267 244.308,108.261 C242.29,108.262 240.28,110.947 241.556,112.731 L241.556,112.731 Z" id="Shape"></path>
                    <path d="M304.532,46.06 C334.313,59.676 358.903,83.231 383.813,104.005 C408.664,124.73 434.597,147.509 447.959,177.672 C451.804,174.298 455.649,170.923 459.495,167.549 C457.135,166.445 454.879,165.743 452.299,165.417 C447.872,164.857 443.021,169.298 444.366,173.87 C445.247,176.863 447.371,178.588 450.034,180.037 C455.38,182.946 464.084,175.727 461.57,169.914 C448.051,138.646 421.018,115.131 395.32,93.906 C382.303,83.155 369.11,72.573 355.791,62.201 C342.253,51.659 327.118,40.497 309.947,37.162 C305.917,36.379 299.436,43.73 304.532,46.06 L304.532,46.06 Z" id="Shape"></path>
                    <path d="M310.553,44.911 C314.356,36.523 323.253,30.765 330.985,26.376 C339.827,21.356 349.872,17.487 359.858,15.52 C379.86,11.581 402.979,14.978 422.005,21.704 C442.411,28.917 461.305,42.014 472.139,61.113 C484.637,83.144 486.767,110.083 479.393,134.076 C476.438,143.693 471.607,152.869 466.122,161.264 C463.025,166.005 459.602,170.577 456.194,175.095 C453.01,179.317 449.294,184.252 447.433,189.191 C446.192,192.488 448.928,193.982 451.772,192.674 C457.288,190.136 462.359,185.105 466.393,180.609 C470.899,175.588 474.801,170.147 478.444,164.472 C485.31,153.773 490.668,142.361 494.223,130.148 C501.314,105.802 498.357,78.334 486.992,55.742 C466.421,14.852 416.585,-1.444 373.464,0.933 C358.822,1.741 344.592,6.628 331.697,13.448 C319.189,20.064 305.875,29.97 302.619,44.541 C301.401,49.996 308.992,48.354 310.553,44.911 L310.553,44.911 Z" id="Shape"></path>
                    <path d="M211.099,420.789 C214.466,411.882 223.585,406.616 231.086,401.446 C242.498,393.58 252.321,383.596 262.432,374.155 C285.036,353.047 305.191,329.61 327.866,308.571 C350.383,287.678 373.534,267.482 396.052,246.588 C407.034,236.397 418.023,226.127 428.685,215.603 C437.919,206.488 446.113,196.052 457.188,189.042 C460.388,187.017 464.203,182.524 462.35,178.384 C462.248,178.156 462.147,177.93 462.046,177.703 C460.679,174.647 457.236,173.786 454.217,174.847 C453.299,175.169 446.414,178.222 451.792,176.055 C448.581,177.349 445.747,179.745 444.988,183.287 C444.161,187.149 446.862,189.872 450.646,189.734 C451.086,189.717 455.287,189.476 452.994,189.446 C450.929,187.78 448.862,186.114 446.797,184.448 C446.802,184.717 446.808,184.986 446.813,185.256 C448.656,182.294 450.5,179.333 452.342,176.37 C440.909,183.802 432.026,194.231 422.623,203.952 C412.375,214.546 401.339,224.515 390.595,234.607 C368.167,255.677 345.016,275.941 322.374,296.776 C299.617,317.719 279.538,341.18 257.113,362.442 C247.334,371.714 237.702,382.194 226.719,390.028 C217.247,396.783 207.446,403.256 201.595,413.629 C200.172,416.151 199.803,418.851 199.807,421.704 C199.815,428.453 209.562,424.854 211.099,420.789 L211.099,420.789 Z" id="Shape"></path>
                    <path d="M62.993,274.65 C58.895,283.194 60.299,293.342 67.262,300.004 C70.38,302.986 74.346,305.047 78.429,306.345 C83.775,308.044 89.051,307.696 94.441,308.724 C101.865,310.142 105.105,296.982 96.509,299.074 C89.591,300.757 80.131,297.706 74.476,293.801 C67.903,289.262 66.578,281.465 64.587,274.326 C64.355,273.496 63.207,274.204 62.993,274.65 L62.993,274.65 Z" id="Shape"></path>
                    <path d="M102.278,303.516 C96.29,314.334 98.025,329.718 102.74,340.765 C106.944,350.617 114.889,357.981 124.07,363.176 C132.281,367.822 140.894,369.762 150.071,371.315 C156.095,372.335 165.946,375.898 171.133,371.493 C172.15,370.629 173.382,368.85 173.094,367.406 C171.997,361.927 162.937,362.518 158.466,361.796 C150.348,360.483 142.489,359.217 134.902,355.928 C126.148,352.133 118.717,346.331 113.506,338.301 C106.504,327.513 108.443,314.667 105.35,302.892 C104.914,301.239 102.712,302.731 102.278,303.516 L102.278,303.516 Z" id="Shape"></path>
                    <path d="M166.304,368.463 C159.947,378.397 163.118,391.685 171.063,399.734 C179.32,408.101 191.971,411.825 203.372,412.869 C204.536,409.465 205.7,406.061 206.865,402.658 C203.464,402.811 198.508,404.07 197.656,408.045 C196.752,412.266 201.757,412.795 204.664,412.928 C209.482,413.151 214.446,403.405 208.157,402.717 C198.618,401.676 189.452,399.328 181.629,393.547 C178.276,391.069 175.636,387.449 174.038,383.644 C171.981,378.743 173.062,373.756 172.043,368.743 C171.44,365.784 167.708,366.271 166.304,368.463 L166.304,368.463 Z" id="Shape"></path>
                    <path d="M56.831,277.031 C55.188,283.162 54.922,289.645 53.467,295.849 C51.738,303.224 49.375,310.512 46.657,317.577 C41.354,331.36 35.19,344.792 30.094,358.659 C24.84,372.95 21.756,387.985 18.034,402.722 C15.868,411.298 13.781,419.895 11.53,428.449 C9.318,436.847 6.375,445.005 4.202,453.407 C9.296,452.379 14.389,451.349 19.482,450.32 C18.772,446.63 17.822,443.573 13.683,442.853 C10.987,442.385 7.774,443.938 6.287,446.212 C9.575,443.489 9.993,443.041 7.542,444.868 C6.837,445.47 6.255,446.169 5.796,446.964 C3.993,449.725 3.972,452.093 4.044,455.269 C4.26,464.74 18.273,458.743 19.324,452.182 C20.549,444.541 21.161,436.909 22.73,429.322 C24.507,420.73 26.572,412.205 28.608,403.671 C32.287,388.247 35.504,372.699 40.527,357.643 C45.318,343.282 51.036,329.244 55.864,314.888 C58.203,307.932 60.282,300.922 61.733,293.725 C62.917,287.851 64.304,281.049 62.619,275.167 C61.686,271.908 57.327,275.18 56.831,277.031 L56.831,277.031 Z" id="Shape"></path>
                    <path d="M13.277,439.782 C15.056,443.427 17.069,446.956 18.803,450.621 C21.469,456.253 30.743,450.063 28.725,444.967 C26.498,439.345 22.821,434.689 19.158,429.939 C15.613,425.341 6.998,432.939 10.371,437.65 C14.642,443.616 19.835,448.792 24.977,453.995 C29.532,458.602 38.008,450.797 34.551,445.595 C30.302,439.202 25.879,432.932 21.551,426.594 C18.36,429.395 15.168,432.196 11.977,434.996 C16.471,441.381 21.862,447.113 26.733,453.21 C30.536,457.969 39.921,450.597 37.489,445.532 C33.412,437.042 27.676,429.467 24.367,420.601 C20.632,422.73 16.897,424.859 13.162,426.988 C17.739,436.269 25.089,443.439 31.521,451.396 C35.448,456.251 45.709,448.501 42.73,443.394 C37.973,435.239 32.143,427.74 27.538,419.503 C23.688,421.697 19.841,423.891 15.991,426.085 C21.875,436.507 29.724,445.314 38.398,453.503 C43.569,458.384 53.401,449.823 49.13,444.085 C41.556,433.908 32.625,424.271 27.401,412.581 C23.871,415.101 20.34,417.622 16.809,420.142 C25.652,432.554 35.231,444.081 46.289,454.598 C51.55,459.601 61.593,450.837 57.238,444.991 C47.285,431.627 36.824,418.412 27.693,404.47 C24.406,407.354 21.121,410.237 17.834,413.12 C29.563,427.289 42.431,440.426 54.516,454.277 C60.128,460.711 71.26,450.098 67.012,443.312 C65.154,440.342 62.034,439.968 58.911,439.118 C52.799,437.454 44.394,447.908 51.103,451.946 C52.33,452.684 53.611,453.191 54.515,454.277 C58.68,450.623 62.846,446.966 67.011,443.312 C53.127,431.182 40.003,418.197 27.693,404.469 C23.204,399.464 14.429,407.769 17.834,413.119 C26.889,427.348 35.82,441.341 46.289,454.598 C49.939,451.396 53.588,448.193 57.238,444.991 C45.988,435.055 34.867,424.137 26.718,411.447 C23.408,406.294 14.19,414.058 16.126,419.008 C21.052,431.603 29.661,443.292 38.397,453.504 C41.974,450.364 45.552,447.226 49.129,444.086 C40.731,437.165 32.315,429.47 27.536,419.504 C24.408,412.983 13.249,420.311 15.989,426.086 C20.251,435.065 25.917,443.22 31.519,451.397 C35.014,448.329 38.51,445.262 42.005,442.194 C35.627,435.395 28.28,429.256 24.364,420.602 C21.437,414.131 11.21,421.193 13.159,426.989 C16.185,435.991 21.503,443.794 26.037,452.058 C29.623,449.498 33.208,446.94 36.793,444.38 C31.568,438.533 25.971,433.108 21.549,426.594 C18.045,421.434 8.493,429.709 11.975,434.996 C16.197,441.406 20.674,447.639 24.975,453.995 C28.166,451.195 31.358,448.394 34.549,445.595 C29.243,440.491 23.354,436.073 19.155,429.94 C16.226,432.51 13.297,435.081 10.368,437.651 C13.439,441.813 16.546,445.945 18.801,450.623 C21.908,448.405 25.015,446.187 28.122,443.97 C25.353,441.02 22.559,438.09 19.827,435.107 C17.36,432.406 11.738,436.629 13.277,439.782 L13.277,439.782 Z" id="Shape"></path>
                    <path d="M411.425,42.512 C421.642,45.465 431.506,51.416 439.069,58.863 C447.128,66.797 454.554,74.596 458.882,85.255 C467.392,106.22 457.288,128.701 444.825,145.665 C446.052,144.782 447.279,143.901 448.506,143.019 C448.247,143.103 447.988,143.186 447.73,143.269 C449.49,143.912 451.251,144.554 453.011,145.196 C452.679,144.479 452.589,142.754 451.447,141.564 C448.777,138.785 444.053,142.049 443.463,145.143 C443.106,147.02 442.009,149.05 442.968,150.92 C443.994,152.923 446.129,153.607 448.249,152.847 C453.91,150.819 456.83,143.798 459.686,138.873 C463.068,133.04 465.677,126.86 467.772,120.462 C471.522,109.012 471.51,96.707 468.036,85.221 C464.309,72.906 455.414,62.193 445.261,54.558 C435.672,47.346 424.706,38.633 411.923,41.068 C411.315,41.182 410.475,42.237 411.425,42.512 L411.425,42.512 Z" id="Shape"></path>
                    <path d="M256.743,98.142 C266.798,105.516 277.407,112.043 287.244,119.747 C298.282,128.392 308.908,137.607 319.352,146.957 C329.956,156.448 339.674,166.33 349.144,176.905 C359.332,188.281 369.413,199.755 379.373,211.33 C383.219,215.8 387.136,220.252 390.695,224.955 C392.603,227.476 394.098,230.918 396.478,231.514 C395.93,230.889 395.382,230.265 394.834,229.641 C394.934,229.188 395.034,228.737 395.135,228.284 C395.975,227.548 396.814,226.811 397.654,226.074 C397.642,226.078 397.63,226.082 397.617,226.086 C394.376,227.12 393.762,232.825 397.91,231.502 C399.014,231.15 400.012,230.311 400.483,229.243 C400.804,228.516 401.768,226.717 400.514,229.113 C400.76,228.641 400.871,228.038 400.821,227.51 C400.675,225.99 400.168,224.785 399.021,223.786 C395.104,220.373 391.91,215.766 388.51,211.849 C377.917,199.64 367.266,187.488 356.465,175.46 C346.5,164.364 336.433,153.993 325.247,144.076 C314.893,134.896 304.144,126.233 293.026,117.999 C282.163,109.954 271.024,101.292 258.784,95.443 C257.325,94.747 255.24,97.041 256.743,98.142 L256.743,98.142 Z" id="Shape"></path>
                    <path d="M293.461,52.536 C295.359,58.915 301.242,63.252 306.259,67.184 C312.905,72.394 319.843,77.096 326.255,82.616 C340.36,94.76 353.717,107.735 368.354,119.26 C381.31,129.46 393.862,140.46 405.668,151.968 C411.542,157.694 417.176,163.704 422.301,170.114 C427.812,177.007 431.672,184.37 436.038,191.918 C437.863,189.974 439.687,188.029 441.513,186.084 C439.981,185.681 438.745,185.814 437.175,185.877 C436.067,185.92 434.546,187.213 434.768,188.435 C435.013,189.79 435.336,190.716 436.039,191.918 C438.367,195.906 445.195,191.494 443.49,187.672 C440.521,181.016 435.419,174.649 430.937,168.938 C425.904,162.524 420.314,156.535 414.549,150.779 C402.647,138.895 389.548,128.257 376.593,117.56 C362.086,105.582 347.891,93.342 333.631,81.067 C321.329,70.478 307.553,62.149 295.908,50.791 C294.873,49.778 293.096,51.31 293.461,52.536 L293.461,52.536 Z" id="Shape"></path>
                    <path d="M99.202,304.418 C114.877,303.428 128.08,287.402 137.788,276.678 C152.339,260.605 169.308,247.225 185.846,233.233 C204.193,217.71 220.987,200.8 237.985,183.829 C245.855,175.972 253.84,168.215 261.701,160.356 C264.471,157.588 266.963,154.56 269.666,151.731 C271.117,150.211 272.75,148.865 274.35,147.506 C274.801,147.111 275.274,146.744 275.768,146.406 C278.035,144.877 273.022,146.537 275.807,146.265 C274.608,144.898 273.407,143.53 272.206,142.161 C272.155,142.328 272.104,142.494 272.054,142.661 C272.717,141.584 273.379,140.507 274.042,139.43 C272.064,141.431 270.739,143.158 270.794,146.066 C270.881,150.654 277.197,148.054 278.322,145.456 C277.812,146.633 277.398,146.633 279.073,145.163 C279.916,144.424 280.424,143.545 280.933,142.57 C281.915,140.69 281.365,137.631 278.849,137.372 C272.116,136.679 267.828,144.463 263.962,148.922 C257.638,156.216 250.507,162.769 243.691,169.596 C226.274,187.041 209.385,205.261 190.826,221.492 C182.176,229.057 173.378,236.452 164.628,243.901 C156.279,251.007 147.268,257.869 139.959,266.06 C128.804,278.562 116.757,295.156 99.63,299.308 C97.157,299.909 95.681,304.641 99.202,304.418 L99.202,304.418 Z" id="Shape"></path>
                    <path d="M168.241,370.237 C173.297,370.266 178.015,366.083 181.764,363.19 C187.424,358.824 192.598,353.844 197.897,349.057 C205.315,342.356 213.472,336.39 221.233,330.088 C230.661,322.434 240.004,314.676 249.216,306.766 C266.522,291.907 283.378,276.537 299.978,260.896 C308.39,252.969 316.727,244.964 325.11,237.006 C333.778,228.777 342.263,219.234 352.2,212.547 C350.315,211.033 348.429,209.52 346.545,208.006 C345.816,209.211 345.074,210.298 344.241,211.43 C342.117,214.316 344.684,217.119 347.789,215.472 C350.381,214.096 352.565,213.219 354.301,210.704 C358.236,205.003 350.861,202.183 347.229,206.882 C340.615,215.439 331.903,222.578 324.136,230.086 C315.829,238.115 307.478,246.098 299.105,254.058 C283.013,269.36 266.634,284.329 249.945,298.977 C233.199,313.675 215.871,327.702 198.5,341.648 C193.475,345.682 188.887,350.264 184.057,354.529 C181.339,356.93 178.581,359.29 175.709,361.505 C174.017,362.81 171.487,365.027 169.289,365.351 C166.737,365.725 164.566,370.215 168.241,370.237 L168.241,370.237 Z" id="Shape"></path>
                    <path d="M8.422,446.901 C2.966,449.495 2.662,455.976 1.467,461.141 C1.084,462.795 1.963,464.732 3.8,464.96 C11.5,465.918 20.071,463.298 27.522,461.496 C35.49,459.568 44.323,457.37 51.497,453.324 C56.524,450.49 56.778,441.533 49.484,443.619 C42.472,445.625 35.783,448.939 28.753,451.055 C21.187,453.33 12.894,454 5.549,456.803 C7.015,457.338 8.482,457.873 9.948,458.408 C9.165,454.679 10.741,450.911 9.833,447.183 C9.677,446.544 8.831,446.707 8.422,446.901 L8.422,446.901 Z" id="Shape"></path>
                    <path d="M14.448,446.967 C9.479,450.491 6.651,454.86 5.383,460.904 C6.205,459.837 7.028,458.77 7.85,457.703 C7.037,458.101 6.224,458.5 5.412,458.898 C6.953,458.585 8.494,458.27 10.035,457.957 C9.868,457.945 9.701,457.935 9.533,457.923 C6.029,457.682 2.756,459.519 1.23,462.762 C0.073,465.221 0.544,469.402 3.998,469.665 C8.649,470.021 13.375,468.031 17.851,466.901 C24.094,465.324 30.351,463.805 36.577,462.162 C42.317,460.646 48.009,458.962 53.634,457.063 C59.14,455.206 65.997,453.252 68.556,447.5 C69.277,445.877 69.149,444.115 67.572,443.091 C63.724,440.592 58.448,443.501 54.676,444.883 C49.101,446.927 43.392,448.604 37.676,450.202 C32.564,451.633 27.415,452.928 22.271,454.237 C17.738,455.39 12.695,457.509 8.041,457.852 C1.484,458.334 -3.106,470.303 5.494,469.733 C5.67,469.721 5.846,469.71 6.02,469.698 C10.066,469.429 14.772,464.718 13.147,460.452 C11.773,456.846 14.617,451.228 15.783,447.711 C16.045,446.908 14.993,446.582 14.448,446.967 L14.448,446.967 Z" id="Shape"></path>
                    <path d="M6.146,467.227 C20.556,470.309 36.93,466.317 50.931,462.914 C67.399,458.914 83.481,453.473 99.881,449.211 C134.197,440.295 170.149,438.783 204.111,428.201 C207.222,427.232 209.975,424.454 210.666,421.234 C211.369,417.952 208.91,414.294 205.215,415.022 C201.275,415.798 198.129,417.042 195.143,419.806 C193.258,421.55 191.352,426.97 195.619,427.343 C197.348,427.494 198.912,428.144 200.61,428.485 C201.546,424.118 202.481,419.752 203.417,415.384 C170.559,426.719 135.723,429.4 102.306,438.651 C86.501,443.027 71.083,448.698 55.308,453.191 C39.722,457.63 24.652,459.828 8.509,460.319 C5.366,460.416 1.796,466.296 6.146,467.227 L6.146,467.227 Z" id="Shape"></path>
                    <path d="M26.956,445.265 C20.451,444.263 14.616,449.319 12.132,454.929 C10.784,457.971 12.283,460.792 15.699,460.766 C18.533,460.744 21.301,459.923 23.711,458.43 C25.884,457.084 27.458,455.267 29.345,453.602 C28.441,454.123 27.535,454.643 26.63,455.163 C26.77,455.124 26.909,455.084 27.049,455.044 C30.456,454.073 34.571,448.931 31.604,445.548 C28.135,441.596 22.017,446.46 21.111,450.252 C21.081,450.38 21.05,450.508 21.019,450.636 C21.436,449.754 21.853,448.872 22.269,447.991 C22.113,448.18 20.561,449.867 21.523,448.849 C21.044,449.356 20.538,449.831 20.013,450.291 C19.467,450.723 19.483,450.722 20.06,450.285 C19.768,450.471 19.465,450.639 19.154,450.789 C19.673,450.536 19.609,450.526 18.962,450.761 C19.65,450.555 17.705,450.826 17.831,450.821 C19.02,452.766 20.21,454.713 21.398,456.658 C21.621,456.103 21.848,455.554 22.089,455.009 C22.753,453.509 21.537,455.687 22.396,454.433 C22.533,454.232 23.566,453.161 22.625,454.098 C22.951,453.747 23.278,453.398 23.605,453.047 C23.135,453.541 23.123,453.568 23.567,453.129 C25.013,451.739 26.607,450.546 27.762,448.874 C28.562,447.715 28.842,445.555 26.956,445.265 L26.956,445.265 Z" id="Shape"></path>
                    <path d="M379.418,32.929 C375.318,30.41 370.279,31.186 365.693,31.52 C361,31.86 355.816,33.172 351.511,35.047 C348.306,36.443 345.263,38.169 342.218,39.879 C340.869,40.637 339.455,41.255 338.117,42.02 C337.594,42.32 333.839,44.994 335.968,43.695 C337.713,43.788 339.458,43.882 341.204,43.974 C341.354,44.219 341.506,44.463 341.656,44.708 C341.153,43.447 339.737,42.669 338.389,42.885 C336.159,43.243 334.23,44.471 333.26,46.579 C332.52,48.187 332.54,50.425 334.325,51.353 C339.223,53.903 346.015,46.632 349.599,44.206 C353.029,41.883 356.45,40.21 360.349,38.769 C366.407,36.531 372.697,36.451 378.81,34.691 C379.466,34.503 380.211,33.416 379.418,32.929 L379.418,32.929 Z" id="Shape"></path>
                </g>
            </g>
        </g>
    </g>
</svg>