<?xml version="1.0" encoding="UTF-8" standalone="no"?><!DOCTYPE svg PUBLIC "-//W3C//DTD SVG 1.1//EN" "http://www.w3.org/Graphics/SVG/1.1/DTD/svg11.dtd"><svg width="100%" height="100%" viewBox="0 0 525 491" version="1.1" xmlns="http://www.w3.org/2000/svg" xmlns:xlink="http://www.w3.org/1999/xlink" xml:space="preserve" style="fill-rule:evenodd;clip-rule:evenodd;stroke-linejoin:round;stroke-miterlimit:1.41421;"><g id="plum"><path d="M150.405,42.405c1.465,0.137 3.052,1.224 4.558,1.484c3.063,0.53 6.147,-0.926 8.698,-2.411c4.061,-2.365 7.2,-7.573 8.879,-11.862c2.334,-5.965 -0.549,-12.158 -7.274,-12.646c-7.969,-0.578 -15.371,4.278 -19.453,10.912c-1.096,1.78 -1.937,3.751 -2.589,5.731c-0.379,1.148 -0.896,2.653 -0.88,3.865c0.021,1.697 1.7,2.867 2.947,3.734c2.733,1.901 6.268,2.626 9.534,1.796c3.151,-0.801 7.798,-2.787 8.448,-6.434c0.554,-3.104 -2.31,-3.884 -4.875,-3.383c-1.283,0.251 -2.697,1.055 -3.674,1.324c0.734,-0.012 0.845,-0.079 0.33,-0.204c-0.816,-0.31 -1.356,-0.905 -1.972,-1.495c0.22,1.021 0.44,2.041 0.661,3.062c0.394,-2.149 0.961,-4.39 1.987,-6.279c0.272,-0.501 0.589,-0.977 0.905,-1.451c-0.01,0.014 1.088,-1.373 0.476,-0.664c0.334,-0.388 0.704,-0.742 1.072,-1.096c1.159,-1.112 -0.876,0.608 0.374,-0.317c0.252,-0.181 0.51,-0.353 0.773,-0.516c1.285,-0.828 -1.135,0.533 0.206,-0.099c0.304,-0.143 1.661,-0.579 0.108,-0.096c0.38,-0.118 0.771,-0.195 1.16,-0.271c-1.412,0.275 -0.259,0.065 0.085,0.054c1.219,-0.043 -1.061,-0.142 0.107,0.023c0.267,0.037 1.257,0.391 0.159,0.003c0.3,0.105 0.579,0.259 0.855,0.413c-0.859,-0.479 0.284,0.351 0.516,0.623c-0.646,-0.76 0.405,1.335 0.261,0.611c0.36,1.799 -0.135,3.09 -0.815,4.757c-0.885,2.171 -2.458,4.378 -4.113,6.017c-1.371,1.356 -4.785,3.115 -6.711,3.296c-0.671,0.064 -2.012,1.402 -0.743,1.519Z" style="fill-rule:nonzero;"/><path d="M144.132,38.393c2.438,13.785 3.847,27.96 4.939,41.942c0.615,7.868 1.035,15.717 1.229,23.601c0.084,3.393 0.141,6.785 0.175,10.178c0.029,2.958 -0.586,6.14 0.717,8.88c1.728,3.632 8.083,0.761 9.017,-2.144c1.671,-5.195 -0.412,-12.439 -1.007,-17.786c-0.906,-8.148 -1.815,-16.306 -2.787,-24.451c-1.622,-13.599 -2.496,-29.007 -8.506,-41.475c-0.704,-1.463 -4.047,-0.274 -3.777,1.255Z" style="fill-rule:nonzero;"/><path d="M164.541,23.67c-0.852,7.867 -0.015,16.124 0.055,24.034c0.087,9.959 -0.135,19.932 -0.215,29.893c-0.069,8.729 -0.166,17.476 -0.494,26.198c-0.133,3.545 -0.269,7.09 -0.613,10.62c-0.257,2.63 -1.653,5.797 1.081,7.716c2.373,1.666 6.2,1 8.109,-1.213c4.074,-4.722 1.368,-12.493 0.985,-18.296c-0.59,-8.935 -0.92,-17.899 -1.313,-26.845c-0.432,-9.832 -1.076,-19.649 -1.552,-29.479c-0.381,-7.877 -0.09,-16.313 -1.832,-24.027c-0.447,-1.973 -4.055,-0.04 -4.211,1.399Z" style="fill-rule:nonzero;"/><path d="M139.668,121.451c0.489,1.964 0.067,2.931 2.168,4.277c2.358,1.513 4.886,2.362 7.639,2.841c6.773,1.178 13.801,0.275 20.46,-1.116c11.916,-2.489 26.793,-7.534 34.973,-16.985c1.105,-1.277 1.636,-2.49 0.579,-3.957c0.124,0.241 0.247,0.482 0.37,0.723c-0.305,-1.509 -1.738,-1.81 -3.11,-1.496c-4.069,0.93 -8.146,4.292 -12.032,6.536c-5.346,3.086 -11.329,5.284 -17.238,6.994c-5.74,1.661 -11.652,2.811 -17.637,2.966c-2.737,0.071 -5.508,-0.309 -8.186,-0.854c-2.145,-0.436 -4.51,-0.584 -6.575,-1.057c-0.625,-0.144 -1.587,0.417 -1.411,1.128Z" style="fill-rule:nonzero;"/><path d="M139.528,119.96c-6.813,-2.27 -13.968,1.367 -19.843,4.73c-7.092,4.061 -13.117,9.827 -18.265,16.11c-11.808,14.411 -19.543,31.811 -25.663,49.274c-11.748,33.524 -18.18,69.87 -17.283,105.428c0.855,33.925 7.83,68.367 22.298,99.161c7.154,15.227 16.536,29.502 28.011,41.822c5.88,6.313 12.451,11.957 19.481,16.949c3.51,2.492 7.164,4.779 10.901,6.913c4.307,2.46 7.617,3.489 12.562,3.644c1.452,0.045 5.63,-2.07 4.257,-4.126c-1.34,-2.007 -2.179,-3.48 -4.357,-4.642c-2.332,-1.242 -4.638,-2.542 -6.916,-3.881c-4.932,-2.897 -9.559,-6.264 -13.994,-9.867c-8.355,-6.789 -15.691,-14.771 -22.181,-23.34c-13.287,-17.543 -22.255,-38.262 -28.465,-59.261c-10.945,-37.009 -12.771,-76.449 -6.786,-114.476c4.118,-26.16 11.138,-52.415 22.391,-76.442c4.961,-10.593 11.135,-21.052 19.173,-29.608c3.469,-3.693 7.11,-7.041 11.45,-9.689c4.186,-2.556 8.75,-4.301 12.955,-6.821c0.556,-0.333 1.258,-1.549 0.274,-1.878Z" style="fill-rule:nonzero;"/><path d="M146.441,84.986c-43.918,-8 -86.176,20.963 -110.333,55.301c-27.6,39.231 -37.234,89.048 -35.779,136.287c1.406,45.659 14.581,92.04 41.059,129.465c12.796,18.086 28.624,34.024 46.426,47.187c8.659,6.402 18.054,12.831 28.073,16.863c12.761,5.137 26.059,9.59 39.407,12.91c3.874,0.963 12.446,-5.931 6.694,-8.07c-14.465,-5.38 -30.277,-8.484 -43.929,-15.855c-11.582,-6.254 -22.312,-13.945 -32.318,-22.474c-20.178,-17.196 -36.911,-38.397 -49.057,-61.944c-12.806,-24.826 -19.608,-53.141 -23,-80.734c-3.322,-27.026 -2.035,-55.158 3.37,-81.838c6.288,-31.035 19.691,-61.497 41.157,-85.043c10.45,-11.462 22.939,-20.81 37.051,-27.271c15.44,-7.069 32.197,-9.059 48.951,-10.246c2.085,-0.149 5.982,-3.854 2.228,-4.538Z" style="fill-rule:nonzero;"/><path d="M174.479,87.191c27.424,3.623 55.056,2.637 81.604,11.673c25.001,8.51 45.284,24.505 59.878,46.416c26.547,39.86 32.023,89.809 32.496,136.533c0.436,43.104 -5.626,88.154 -28.1,125.727c-11.016,18.417 -26.004,33.976 -43.822,45.896c-10.188,6.816 -21.434,12.793 -33.098,16.627c-14.181,4.661 -29.032,6.176 -43.834,7.332c-13.074,1.021 -26.097,1.454 -38.541,5.901c-4.01,1.433 -5.027,6.771 0.125,6.866c14.481,0.269 29.289,-1.897 43.721,-3.264c15.051,-1.425 29.731,-4.09 44.021,-9.106c22.012,-7.729 42.723,-21.889 59.195,-38.257c30.821,-30.626 45.479,-72.542 50.783,-114.873c2.819,-22.502 2.939,-45.297 1.7,-67.913c-1.29,-23.552 -4.263,-46.865 -10.904,-69.553c-6.717,-22.945 -17.455,-44.969 -33.334,-62.983c-17.667,-20.042 -41.83,-32.054 -67.585,-38.056c-22.981,-5.357 -47.608,-5.84 -71.104,-5.487c-3.16,0.047 -8.468,5.826 -3.201,6.521Z" style="fill-rule:nonzero;"/><path d="M137.64,420.412c12.373,15.685 32.182,22.866 51.639,25.056c21.592,2.43 43.537,-1.281 63.837,-8.702c20.046,-7.327 37.497,-19.666 51.537,-35.608c15.297,-17.37 24.343,-39.866 29.438,-62.201c5.094,-22.327 7.342,-47.107 -2.391,-68.443c-0.898,-1.969 -5.119,-0.345 -4.912,1.633c4.758,45.439 -2.709,96.188 -34.898,130.771c-28.425,30.54 -78.162,42.755 -118.111,32.626c-12.111,-3.071 -24.332,-9.061 -34.572,-16.175c-0.612,-0.427 -2.192,0.252 -1.567,1.043Z" style="fill-rule:nonzero;"/><path d="M74.515,140.265c-5.583,-1.925 -11.971,0.286 -16.755,3.282c-5.521,3.458 -8.115,9.064 -8.776,15.332c-0.861,8.176 4.688,12.556 12.508,10.745c7.223,-1.673 14.213,-7.444 17.707,-13.905c3.67,-6.787 2.027,-15.742 -6.873,-16.725c-2.27,-0.25 -8.235,2.367 -5.473,5.354c3.006,3.248 5.732,4.869 4.067,9.502c-1.364,3.794 -5.479,7.304 -8.098,8.595c-1.624,0.802 -1.945,0.931 -3.155,0.701c0.053,0.01 -0.578,-0.316 -1.131,-0.877c-0.621,-0.627 -0.888,-1.641 -1.127,-2.478c-0.961,-3.354 -0.26,-7.824 1.596,-10.678c2.95,-4.539 8.558,-5.178 13.427,-5.674c1.023,-0.103 4.412,-2.371 2.083,-3.174Z" style="fill-rule:nonzero;"/><path d="M124.577,149.051c-18.026,18.538 -25.289,45.559 -29.339,70.361c-2.367,14.494 -4.668,34.768 12.9,40.09c8.883,2.691 19.09,0.104 26.095,-5.644c6.884,-5.646 9.884,-15.373 12.056,-23.63c2.502,-9.513 3.841,-19.314 6.885,-28.688c1.762,-5.421 2.915,-11.135 4.009,-16.719c2.203,-11.243 4.554,-24.559 0.356,-35.623c-4.839,-12.76 -21.384,-9.787 -29.933,-2.893c-2.789,2.25 -1.949,6.073 2.126,4.9c4.838,-1.392 11.591,-5.169 15.893,-0.88c3.88,3.868 3.846,11.063 3.808,16.097c-0.099,13.121 -3.425,26.117 -7.075,38.633c-2.787,9.552 -4.121,19.466 -6.843,29.04c-1.884,6.623 -5.164,17.292 -13.284,18.369c-8.711,1.155 -15.518,-1.769 -18.103,-10.423c-2.337,-7.828 -0.784,-17.032 0.364,-24.932c1.633,-11.227 3.456,-22.252 6.975,-33.076c3.938,-12.11 10.059,-22.982 14.887,-34.677c0.429,-1.037 -1.393,-0.699 -1.777,-0.305Z" style="fill-rule:nonzero;"/><path d="M170.303,103.629c2.291,-1.906 3.481,-4.66 5.297,-7.012c2.224,-2.881 4.413,-5.618 7.055,-8.133c5.047,-4.806 11.216,-8.971 17.408,-12.147c2.858,-1.466 5.847,-2.655 8.856,-3.768c1.392,-0.515 2.801,-0.955 4.216,-1.399c1.358,-0.395 2.706,-0.826 4.042,-1.295c-0.696,0.37 -1.434,0.574 -2.211,0.613c5.554,-0.701 11.459,0.387 15.694,-4.487c1.504,-1.73 3.719,-4.662 2.278,-7.145c-1.606,-2.767 -4.539,-3.54 -7.571,-3.265c-4.458,0.403 -15.762,6.258 -10.025,12.049c-0.21,-0.328 -0.419,-0.656 -0.629,-0.984c-0.022,-1.184 -0.044,-2.367 -0.066,-3.55c-0.018,0.037 -0.035,0.074 -0.053,0.112c3.856,-2.526 7.713,-5.053 11.569,-7.579c-1.015,0.113 -2.033,0.188 -3.015,0.473c-0.329,0.096 -2.979,0.785 -1.201,0.536c-3.088,0.433 -6.263,0.728 -9.167,1.96c-7.966,3.38 -15.775,6.443 -23.128,11.109c-7.081,4.493 -14.01,9.958 -19.366,16.43c-3.168,3.826 -10.035,13.514 -5.293,18.275c1.47,1.477 4.036,0.267 5.31,-0.793Z" style="fill-rule:nonzero;"/><path d="M209.979,60.178c22.815,0.33 41.72,-18.569 59.396,-30.703c10.025,-6.883 20.218,-11.954 32.081,-14.741c12.513,-2.938 25.293,-4.298 38.131,-4.545c26.065,-0.501 52.403,4.35 76.751,13.571c24.052,9.109 47.508,22.905 64.683,42.287c8.54,9.637 15,20.94 19.292,33.059c4.01,11.318 2.425,24.085 7.726,35.122c4.447,-2.948 8.896,-5.897 13.343,-8.845c-1.657,-0.517 -3.29,-1.097 -4.949,-1.607c-3.054,-0.94 -6.058,-0.488 -8.752,1.309c-2.242,1.494 -5.104,5.222 -2.417,7.713c2.09,1.938 3.64,3.613 6.611,4.046c2.836,0.413 5.747,-0.386 8.117,-1.966c1.809,-1.206 5.335,-4.84 3.564,-7.384c-7.406,-10.637 -5.813,-24.042 -10.166,-35.824c-4.569,-12.367 -11.836,-23.655 -20.467,-33.566c-16.822,-19.317 -40.701,-33.02 -64.228,-42.468c-24.307,-9.76 -50.362,-14.81 -76.521,-15.254c-24.473,-0.415 -52.018,2.624 -73.826,14.443c-23.6,12.79 -41.864,34.457 -67.955,42.813c-1.342,0.429 -2.678,2.507 -0.414,2.54Z" style="fill-rule:nonzero;"/><path d="M231.716,64.826c4.889,3.13 9.585,6.137 14.752,8.908c5.223,2.802 10.951,4.953 16.385,7.317c11.013,4.793 22.073,9.49 33.176,14.069c22.727,9.371 45.854,17.602 69.402,24.663c46.703,14.006 97.262,24.021 146.141,19.465c3.45,-0.322 14.919,-6.151 9.061,-10.891c-4.374,-3.537 -9.405,-2.604 -14.223,-0.442c-2.011,0.902 -7.123,5.265 -3.711,7.682c0.706,0.501 1.807,1.56 2.574,1.806c1.18,0.378 3.328,2.016 1.324,0.322c3.021,-3.631 6.041,-7.261 9.061,-10.891c-48.284,5.055 -97.57,-3.983 -144.204,-16.234c-23.936,-6.289 -47.495,-14.057 -70.813,-22.325c-22.764,-8.073 -44.82,-18.046 -68.066,-24.484c-0.517,-0.144 -1.531,0.605 -0.859,1.035Z" style="fill-rule:nonzero;"/><path d="M282.283,51.575c9.76,0.471 19.627,1.798 29.36,2.738c9.882,0.954 19.724,2.243 29.536,3.745c20.936,3.206 41.688,7.957 61.923,14.212c19.251,5.95 38.016,13.493 55.917,22.748c8.661,4.479 17.067,9.441 25.21,14.802c4.288,2.822 8.377,5.916 12.4,9.102c2.089,1.653 6.786,4.285 7.438,7.028c1.323,5.576 15.263,0.397 12.553,-5.447c-1.412,-3.047 -5.32,-5.135 -7.977,-6.921c-3.919,-2.637 -7.857,-5.246 -11.846,-7.776c-8.712,-5.528 -17.605,-10.659 -26.825,-15.299c-19.375,-9.75 -39.799,-17.315 -60.565,-23.5c-20.764,-6.185 -42.031,-10.574 -63.485,-13.534c-10.222,-1.411 -20.512,-2.357 -30.813,-2.942c-10.984,-0.623 -21.646,-0.093 -32.606,0.379c-0.421,0.016 -0.836,0.635 -0.22,0.665Z" style="fill-rule:nonzero;"/><path d="M381.492,67.75c14.572,9.632 28.24,20.758 41.62,31.943c13.064,10.922 25.696,22.324 40.491,30.949c3.42,1.995 10.738,-3.833 6.227,-6.109c-15.738,-7.941 -30.502,-17.647 -44.622,-28.192c-14.048,-10.489 -27.723,-20.995 -43.411,-28.888c-0.166,-0.083 -0.518,0.157 -0.305,0.297Z" style="fill-rule:nonzero;"/><path d="M324.385,57.059c18.343,12.717 34.104,29.276 50.609,44.192c7.919,7.156 16.192,13.895 25.229,19.598c4.211,2.658 8.644,4.915 13.229,6.849c4.166,1.756 9.486,4.248 13.816,1.982c0.943,-0.493 2.616,-1.535 2.406,-2.869c-0.027,-0.174 -0.055,-0.348 -0.082,-0.522c-0.222,-1.405 -0.998,-1.895 -2.301,-2.27c-9.077,-2.61 -17.161,-5.837 -25.278,-10.761c-9.417,-5.713 -18.166,-12.569 -26.704,-19.504c-16.248,-13.196 -31.563,-27.29 -49.94,-37.49c-0.403,-0.224 -1.475,0.454 -0.984,0.795Z" style="fill-rule:nonzero;"/><path d="M330.617,44.147c11.452,-4.938 20.659,-12.255 30.735,-19.53c5.267,-3.803 10.688,-7.401 16.541,-10.243c2.538,-1.233 5.169,-2.217 7.903,-2.91c2.968,-0.753 6.056,-0.572 8.965,-1.416c1.3,-0.377 5.541,-3.721 2.31,-4.728c-5.113,-1.594 -11.217,0.81 -16.021,2.647c-6.41,2.453 -12.245,6.391 -17.783,10.373c-5.644,4.06 -11.013,8.5 -16.517,12.742c-5.324,4.103 -10.916,8.867 -16.813,12.099c-0.909,0.498 -0.117,1.31 0.68,0.966Z" style="fill-rule:nonzero;"/><path d="M390.802,53.837c3.781,-2.649 8.31,-4.165 12.575,-5.829c6.108,-2.383 12.234,-4.658 18.528,-6.51c5.688,-1.674 11.516,-3.081 17.446,-3.47c1.202,-0.078 4.433,-0.311 5.155,0.225c0.432,0.319 0.855,0.712 1.239,1.087c0.636,0.621 3.397,1.202 2.481,0.898c1.56,0.517 4.003,0.003 4.812,-1.621c0.147,-0.295 0.286,-0.572 0.477,-0.842c0.444,-0.629 0.778,-1.695 0.377,-2.436c-1.949,-3.597 -8.577,-3.019 -11.983,-2.713c-6.817,0.612 -13.563,2.609 -20.054,4.683c-10.728,3.426 -23.941,7.569 -32.089,15.833c-0.74,0.752 0.446,1.108 1.036,0.695Z" style="fill-rule:nonzero;"/><path d="M287.453,39.568c8.023,-9.563 18.375,-17.669 29.766,-22.804c3.346,-1.508 6.734,-3.032 10.229,-4.161c2.744,-0.886 6.131,-1.046 7.911,-3.598c-1.017,0.547 -2.033,1.095 -3.05,1.642c-0.422,-1.918 -0.901,-2.463 -1.439,-1.637c-1.978,2.238 1.207,3.054 2.916,1.954c0.943,-0.606 2.315,-1.526 2.299,-2.81c-0.007,-0.586 -0.358,-1.014 -0.85,-1.286c-1.566,-0.869 1.742,0.633 -0.66,-0.478c-3.656,-1.689 -10.939,3.121 -14.178,4.588c-13.848,6.275 -25.761,15.624 -34.484,28.119c-0.66,0.944 1.063,1.038 1.54,0.471Z" style="fill-rule:nonzero;"/></g></svg>