<?xml version="1.0" encoding="UTF-8"?>
<svg width="524px" height="491px" viewBox="0 0 524 491" version="1.1" xmlns="http://www.w3.org/2000/svg" xmlns:xlink="http://www.w3.org/1999/xlink">
    <!-- Generator: Sketch 41 (35326) - http://www.bohemiancoding.com/sketch -->
    <title>plum</title>
    <desc>Created with Sketch.</desc>
    <defs></defs>
    <g id="Page-1" stroke="none" stroke-width="1" fill="none" fill-rule="evenodd">
        <g id="Layer_1" transform="translate(-1146.000000, -6189.000000)" fill="#000000">
            <g id="Layer_1_3_">
                <g id="plum" transform="translate(1146.000000, 6189.000000)">
                    <path d="M150.405,42.405 C151.87,42.542 153.457,43.629 154.963,43.889 C158.026,44.419 161.11,42.963 163.661,41.478 C167.722,39.113 170.861,33.905 172.54,29.616 C174.874,23.651 171.991,17.458 165.266,16.97 C157.297,16.392 149.895,21.248 145.813,27.882 C144.717,29.662 143.876,31.633 143.224,33.613 C142.845,34.761 142.328,36.266 142.344,37.478 C142.365,39.175 144.044,40.345 145.291,41.212 C148.024,43.113 151.559,43.838 154.825,43.008 C157.976,42.207 162.623,40.221 163.273,36.574 C163.827,33.47 160.963,32.69 158.398,33.191 C157.115,33.442 155.701,34.246 154.724,34.515 C155.458,34.503 155.569,34.436 155.054,34.311 C154.238,34.001 153.698,33.406 153.082,32.816 C153.302,33.837 153.522,34.857 153.743,35.878 C154.137,33.729 154.704,31.488 155.73,29.599 C156.002,29.098 156.319,28.622 156.635,28.148 C156.625,28.162 157.723,26.775 157.111,27.484 C157.445,27.096 157.815,26.742 158.183,26.388 C159.342,25.276 157.307,26.996 158.557,26.071 C158.809,25.89 159.067,25.718 159.33,25.555 C160.615,24.727 158.195,26.088 159.536,25.456 C159.84,25.313 161.197,24.877 159.644,25.36 C160.024,25.242 160.415,25.165 160.804,25.089 C159.392,25.364 160.545,25.154 160.889,25.143 C162.108,25.1 159.828,25.001 160.996,25.166 C161.263,25.203 162.253,25.557 161.155,25.169 C161.455,25.274 161.734,25.428 162.01,25.582 C161.151,25.103 162.294,25.933 162.526,26.205 C161.88,25.445 162.931,27.54 162.787,26.816 C163.147,28.615 162.652,29.906 161.972,31.573 C161.087,33.744 159.514,35.951 157.859,37.59 C156.488,38.946 153.074,40.705 151.148,40.886 C150.477,40.95 149.136,42.288 150.405,42.405 L150.405,42.405 Z" id="Shape"></path>
                    <path d="M144.132,38.393 C146.57,52.178 147.979,66.353 149.071,80.335 C149.686,88.203 150.106,96.052 150.3,103.936 C150.384,107.329 150.441,110.721 150.475,114.114 C150.504,117.072 149.889,120.254 151.192,122.994 C152.92,126.626 159.275,123.755 160.209,120.85 C161.88,115.655 159.797,108.411 159.202,103.064 C158.296,94.916 157.387,86.758 156.415,78.613 C154.793,65.014 153.919,49.606 147.909,37.138 C147.205,35.675 143.862,36.864 144.132,38.393 L144.132,38.393 Z" id="Shape"></path>
                    <path d="M164.541,23.67 C163.689,31.537 164.526,39.794 164.596,47.704 C164.683,57.663 164.461,67.636 164.381,77.597 C164.312,86.326 164.215,95.073 163.887,103.795 C163.754,107.34 163.618,110.885 163.274,114.415 C163.017,117.045 161.621,120.212 164.355,122.131 C166.728,123.797 170.555,123.131 172.464,120.918 C176.538,116.196 173.832,108.425 173.449,102.622 C172.859,93.687 172.529,84.723 172.136,75.777 C171.704,65.945 171.06,56.128 170.584,46.298 C170.203,38.421 170.494,29.985 168.752,22.271 C168.305,20.298 164.697,22.231 164.541,23.67 L164.541,23.67 Z" id="Shape"></path>
                    <path d="M139.668,121.451 C140.157,123.415 139.735,124.382 141.836,125.728 C144.194,127.241 146.722,128.09 149.475,128.569 C156.248,129.747 163.276,128.844 169.935,127.453 C181.851,124.964 196.728,119.919 204.908,110.468 C206.013,109.191 206.544,107.978 205.487,106.511 C205.611,106.752 205.734,106.993 205.857,107.234 C205.552,105.725 204.119,105.424 202.747,105.738 C198.678,106.668 194.601,110.03 190.715,112.274 C185.369,115.36 179.386,117.558 173.477,119.268 C167.737,120.929 161.825,122.079 155.84,122.234 C153.103,122.305 150.332,121.925 147.654,121.38 C145.509,120.944 143.144,120.796 141.079,120.323 C140.454,120.179 139.492,120.74 139.668,121.451 L139.668,121.451 Z" id="Shape"></path>
                    <path d="M139.528,119.96 C132.715,117.69 125.56,121.327 119.685,124.69 C112.593,128.751 106.568,134.517 101.42,140.8 C89.612,155.211 81.877,172.611 75.757,190.074 C64.009,223.598 57.577,259.944 58.474,295.502 C59.329,329.427 66.304,363.869 80.772,394.663 C87.926,409.89 97.308,424.165 108.783,436.485 C114.663,442.798 121.234,448.442 128.264,453.434 C131.774,455.926 135.428,458.213 139.165,460.347 C143.472,462.807 146.782,463.836 151.727,463.991 C153.179,464.036 157.357,461.921 155.984,459.865 C154.644,457.858 153.805,456.385 151.627,455.223 C149.295,453.981 146.989,452.681 144.711,451.342 C139.779,448.445 135.152,445.078 130.717,441.475 C122.362,434.686 115.026,426.704 108.536,418.135 C95.249,400.592 86.281,379.873 80.071,358.874 C69.126,321.865 67.3,282.425 73.285,244.398 C77.403,218.238 84.423,191.983 95.676,167.956 C100.637,157.363 106.811,146.904 114.849,138.348 C118.318,134.655 121.959,131.307 126.299,128.659 C130.485,126.103 135.049,124.358 139.254,121.838 C139.81,121.505 140.512,120.289 139.528,119.96 L139.528,119.96 Z" id="Shape"></path>
                    <path d="M146.441,84.986 C102.523,76.986 60.265,105.949 36.108,140.287 C8.508,179.518 -1.126,229.335 0.329,276.574 C1.735,322.233 14.91,368.614 41.388,406.039 C54.184,424.125 70.012,440.063 87.814,453.226 C96.473,459.628 105.868,466.057 115.887,470.089 C128.648,475.226 141.946,479.679 155.294,482.999 C159.168,483.962 167.74,477.068 161.988,474.929 C147.523,469.549 131.711,466.445 118.059,459.074 C106.477,452.82 95.747,445.129 85.741,436.6 C65.563,419.404 48.83,398.203 36.684,374.656 C23.878,349.83 17.076,321.515 13.684,293.922 C10.362,266.896 11.649,238.764 17.054,212.084 C23.342,181.049 36.745,150.587 58.211,127.041 C68.661,115.579 81.15,106.231 95.262,99.77 C110.702,92.701 127.459,90.711 144.213,89.524 C146.298,89.375 150.195,85.67 146.441,84.986 L146.441,84.986 Z" id="Shape"></path>
                    <path d="M174.479,87.191 C201.903,90.814 229.535,89.828 256.083,98.864 C281.084,107.374 301.367,123.369 315.961,145.28 C342.508,185.14 347.984,235.089 348.457,281.813 C348.893,324.917 342.831,369.967 320.357,407.54 C309.341,425.957 294.353,441.516 276.535,453.436 C266.347,460.252 255.101,466.229 243.437,470.063 C229.256,474.724 214.405,476.239 199.603,477.395 C186.529,478.416 173.506,478.849 161.062,483.296 C157.052,484.729 156.035,490.067 161.187,490.162 C175.668,490.431 190.476,488.265 204.908,486.898 C219.959,485.473 234.639,482.808 248.929,477.792 C270.941,470.063 291.652,455.903 308.124,439.535 C338.945,408.909 353.603,366.993 358.907,324.662 C361.726,302.16 361.846,279.365 360.607,256.749 C359.317,233.197 356.344,209.884 349.703,187.196 C342.986,164.251 332.248,142.227 316.369,124.213 C298.702,104.171 274.539,92.159 248.784,86.157 C225.803,80.8 201.176,80.317 177.68,80.67 C174.52,80.717 169.212,86.496 174.479,87.191 L174.479,87.191 Z" id="Shape"></path>
                    <path d="M137.64,420.412 C150.013,436.097 169.822,443.278 189.279,445.468 C210.871,447.898 232.816,444.187 253.116,436.766 C273.162,429.439 290.613,417.1 304.653,401.158 C319.95,383.788 328.996,361.292 334.091,338.957 C339.185,316.63 341.433,291.85 331.7,270.514 C330.802,268.545 326.581,270.169 326.788,272.147 C331.546,317.586 324.079,368.335 291.89,402.918 C263.465,433.458 213.728,445.673 173.779,435.544 C161.668,432.473 149.447,426.483 139.207,419.369 C138.595,418.942 137.015,419.621 137.64,420.412 L137.64,420.412 Z" id="Shape"></path>
                    <path d="M74.515,140.265 C68.932,138.34 62.544,140.551 57.76,143.547 C52.239,147.005 49.645,152.611 48.984,158.879 C48.123,167.055 53.672,171.435 61.492,169.624 C68.715,167.951 75.705,162.18 79.199,155.719 C82.869,148.932 81.226,139.977 72.326,138.994 C70.056,138.744 64.091,141.361 66.853,144.348 C69.859,147.596 72.585,149.217 70.92,153.85 C69.556,157.644 65.441,161.154 62.822,162.445 C61.198,163.247 60.877,163.376 59.667,163.146 C59.72,163.156 59.089,162.83 58.536,162.269 C57.915,161.642 57.648,160.628 57.409,159.791 C56.448,156.437 57.149,151.967 59.005,149.113 C61.955,144.574 67.563,143.935 72.432,143.439 C73.455,143.336 76.844,141.068 74.515,140.265 L74.515,140.265 Z" id="Shape"></path>
                    <path d="M124.577,149.051 C106.551,167.589 99.288,194.61 95.238,219.412 C92.871,233.906 90.57,254.18 108.138,259.502 C117.021,262.193 127.228,259.606 134.233,253.858 C141.117,248.212 144.117,238.485 146.289,230.228 C148.791,220.715 150.13,210.914 153.174,201.54 C154.936,196.119 156.089,190.405 157.183,184.821 C159.386,173.578 161.737,160.262 157.539,149.198 C152.7,136.438 136.155,139.411 127.606,146.305 C124.817,148.555 125.657,152.378 129.732,151.205 C134.57,149.813 141.323,146.036 145.625,150.325 C149.505,154.193 149.471,161.388 149.433,166.422 C149.334,179.543 146.008,192.539 142.358,205.055 C139.571,214.607 138.237,224.521 135.515,234.095 C133.631,240.718 130.351,251.387 122.231,252.464 C113.52,253.619 106.713,250.695 104.128,242.041 C101.791,234.213 103.344,225.009 104.492,217.109 C106.125,205.882 107.948,194.857 111.467,184.033 C115.405,171.923 121.526,161.051 126.354,149.356 C126.783,148.319 124.961,148.657 124.577,149.051 L124.577,149.051 Z" id="Shape"></path>
                    <path d="M170.303,103.629 C172.594,101.723 173.784,98.969 175.6,96.617 C177.824,93.736 180.013,90.999 182.655,88.484 C187.702,83.678 193.871,79.513 200.063,76.337 C202.921,74.871 205.91,73.682 208.919,72.569 C210.311,72.054 211.72,71.614 213.135,71.17 C214.493,70.775 215.841,70.344 217.177,69.875 C216.481,70.245 215.743,70.449 214.966,70.488 C220.52,69.787 226.425,70.875 230.66,66.001 C232.164,64.271 234.379,61.339 232.938,58.856 C231.332,56.089 228.399,55.316 225.367,55.591 C220.909,55.994 209.605,61.849 215.342,67.64 C215.132,67.312 214.923,66.984 214.713,66.656 C214.691,65.472 214.669,64.289 214.647,63.106 C214.629,63.143 214.612,63.18 214.594,63.218 C218.45,60.692 222.307,58.165 226.163,55.639 C225.148,55.752 224.13,55.827 223.148,56.112 C222.819,56.208 220.169,56.897 221.947,56.648 C218.859,57.081 215.684,57.376 212.78,58.608 C204.814,61.988 197.005,65.051 189.652,69.717 C182.571,74.21 175.642,79.675 170.286,86.147 C167.118,89.973 160.251,99.661 164.993,104.422 C166.463,105.899 169.029,104.689 170.303,103.629 L170.303,103.629 Z" id="Shape"></path>
                    <path d="M209.979,60.178 C232.794,60.508 251.699,41.609 269.375,29.475 C279.4,22.592 289.593,17.521 301.456,14.734 C313.969,11.796 326.749,10.436 339.587,10.189 C365.652,9.688 391.99,14.539 416.338,23.76 C440.39,32.869 463.846,46.665 481.021,66.047 C489.561,75.684 496.021,86.987 500.313,99.106 C504.323,110.424 502.738,123.191 508.039,134.228 C512.486,131.28 516.935,128.331 521.382,125.383 C519.725,124.866 518.092,124.286 516.433,123.776 C513.379,122.836 510.375,123.288 507.681,125.085 C505.439,126.579 502.577,130.307 505.264,132.798 C507.354,134.736 508.904,136.411 511.875,136.844 C514.711,137.257 517.622,136.458 519.992,134.878 C521.801,133.672 525.327,130.038 523.556,127.494 C516.15,116.857 517.743,103.452 513.39,91.67 C508.821,79.303 501.554,68.015 492.923,58.104 C476.101,38.787 452.222,25.084 428.695,15.636 C404.388,5.876 378.333,0.826 352.174,0.382 C327.701,-0.033 300.156,3.006 278.348,14.825 C254.748,27.615 236.484,49.282 210.393,57.638 C209.051,58.067 207.715,60.145 209.979,60.178 L209.979,60.178 Z" id="Shape"></path>
                    <path d="M231.716,64.826 C236.605,67.956 241.301,70.963 246.468,73.734 C251.691,76.536 257.419,78.687 262.853,81.051 C273.866,85.844 284.926,90.541 296.029,95.12 C318.756,104.491 341.883,112.722 365.431,119.783 C412.134,133.789 462.693,143.804 511.572,139.248 C515.022,138.926 526.491,133.097 520.633,128.357 C516.259,124.82 511.228,125.753 506.41,127.915 C504.399,128.817 499.287,133.18 502.699,135.597 C503.405,136.098 504.506,137.157 505.273,137.403 C506.453,137.781 508.601,139.419 506.597,137.725 C509.618,134.094 512.638,130.464 515.658,126.834 C467.374,131.889 418.088,122.851 371.454,110.6 C347.518,104.311 323.959,96.543 300.641,88.275 C277.877,80.202 255.821,70.229 232.575,63.791 C232.058,63.647 231.044,64.396 231.716,64.826 L231.716,64.826 Z" id="Shape"></path>
                    <path d="M282.283,51.575 C292.043,52.046 301.91,53.373 311.643,54.313 C321.525,55.267 331.367,56.556 341.179,58.058 C362.115,61.264 382.867,66.015 403.102,72.27 C422.353,78.22 441.118,85.763 459.019,95.018 C467.68,99.497 476.086,104.459 484.229,109.82 C488.517,112.642 492.606,115.736 496.629,118.922 C498.718,120.575 503.415,123.207 504.067,125.95 C505.39,131.526 519.33,126.347 516.62,120.503 C515.208,117.456 511.3,115.368 508.643,113.582 C504.724,110.945 500.786,108.336 496.797,105.806 C488.085,100.278 479.192,95.147 469.972,90.507 C450.597,80.757 430.173,73.192 409.407,67.007 C388.643,60.822 367.376,56.433 345.922,53.473 C335.7,52.062 325.41,51.116 315.109,50.531 C304.125,49.908 293.463,50.438 282.503,50.91 C282.082,50.926 281.667,51.545 282.283,51.575 L282.283,51.575 Z" id="Shape"></path>
                    <path d="M381.492,67.75 C396.064,77.382 409.732,88.508 423.112,99.693 C436.176,110.615 448.808,122.017 463.603,130.642 C467.023,132.637 474.341,126.809 469.83,124.533 C454.092,116.592 439.328,106.886 425.208,96.341 C411.16,85.852 397.485,75.346 381.797,67.453 C381.631,67.37 381.279,67.61 381.492,67.75 L381.492,67.75 Z" id="Shape"></path>
                    <path d="M324.385,57.059 C342.728,69.776 358.489,86.335 374.994,101.251 C382.913,108.407 391.186,115.146 400.223,120.849 C404.434,123.507 408.867,125.764 413.452,127.698 C417.618,129.454 422.938,131.946 427.268,129.68 C428.211,129.187 429.884,128.145 429.674,126.811 C429.647,126.637 429.619,126.463 429.592,126.289 C429.37,124.884 428.594,124.394 427.291,124.019 C418.214,121.409 410.13,118.182 402.013,113.258 C392.596,107.545 383.847,100.689 375.309,93.754 C359.061,80.558 343.746,66.464 325.369,56.264 C324.966,56.04 323.894,56.718 324.385,57.059 L324.385,57.059 Z" id="Shape"></path>
                    <path d="M330.617,44.147 C342.069,39.209 351.276,31.892 361.352,24.617 C366.619,20.814 372.04,17.216 377.893,14.374 C380.431,13.141 383.062,12.157 385.796,11.464 C388.764,10.711 391.852,10.892 394.761,10.048 C396.061,9.671 400.302,6.327 397.071,5.32 C391.958,3.726 385.854,6.13 381.05,7.967 C374.64,10.42 368.805,14.358 363.267,18.34 C357.623,22.4 352.254,26.84 346.75,31.082 C341.426,35.185 335.834,39.949 329.937,43.181 C329.028,43.679 329.82,44.491 330.617,44.147 L330.617,44.147 Z" id="Shape"></path>
                    <path d="M390.802,53.837 C394.583,51.188 399.112,49.672 403.377,48.008 C409.485,45.625 415.611,43.35 421.905,41.498 C427.593,39.824 433.421,38.417 439.351,38.028 C440.553,37.95 443.784,37.717 444.506,38.253 C444.938,38.572 445.361,38.965 445.745,39.34 C446.381,39.961 449.142,40.542 448.226,40.238 C449.786,40.755 452.229,40.241 453.038,38.617 C453.185,38.322 453.324,38.045 453.515,37.775 C453.959,37.146 454.293,36.08 453.892,35.339 C451.943,31.742 445.315,32.32 441.909,32.626 C435.092,33.238 428.346,35.235 421.855,37.309 C411.127,40.735 397.914,44.878 389.766,53.142 C389.026,53.894 390.212,54.25 390.802,53.837 L390.802,53.837 Z" id="Shape"></path>
                    <path d="M287.453,39.568 C295.476,30.005 305.828,21.899 317.219,16.764 C320.565,15.256 323.953,13.732 327.448,12.603 C330.192,11.717 333.579,11.557 335.359,9.005 C334.342,9.552 333.326,10.1 332.309,10.647 C331.887,8.729 331.408,8.184 330.87,9.01 C328.892,11.248 332.077,12.064 333.786,10.964 C334.729,10.358 336.101,9.438 336.085,8.154 C336.078,7.568 335.727,7.14 335.235,6.868 C333.669,5.999 336.977,7.501 334.575,6.39 C330.919,4.701 323.636,9.511 320.397,10.978 C306.549,17.253 294.636,26.602 285.913,39.097 C285.253,40.041 286.976,40.135 287.453,39.568 L287.453,39.568 Z" id="Shape"></path>
                </g>
            </g>
        </g>
    </g>
</svg>