<?xml version="1.0" encoding="UTF-8" standalone="no"?><!DOCTYPE svg PUBLIC "-//W3C//DTD SVG 1.1//EN" "http://www.w3.org/Graphics/SVG/1.1/DTD/svg11.dtd"><svg width="100%" height="100%" viewBox="0 0 521 548" version="1.1" xmlns="http://www.w3.org/2000/svg" xmlns:xlink="http://www.w3.org/1999/xlink" xml:space="preserve" style="fill-rule:evenodd;clip-rule:evenodd;stroke-linejoin:round;stroke-miterlimit:1.41421;"><g id="policeman"><path d="M104.87,74.37c4.941,-2.116 9.502,-5.205 14.354,-7.557c5.562,-2.697 11.308,-5.004 17.056,-7.269c11.094,-4.37 22.328,-8.384 33.198,-13.303c11.896,-5.384 23.627,-11.146 35.438,-16.716c11.753,-5.543 23.808,-12.101 36.278,-15.842c3.946,-1.185 7.734,-3.538 8.258,-7.947c0.061,-0.271 0.065,-0.543 0.015,-0.816c-3.474,2.754 -6.946,5.508 -10.419,8.262c0.03,-0.002 0.062,-0.004 0.092,-0.006c4.002,-0.256 8.8,-2.569 10.146,-6.646c1.291,-3.908 -2.55,-6.201 -5.999,-5.951c-3.16,0.229 -5.592,1.107 -8.278,2.775c-2.587,1.607 -4.565,4.874 -2.368,7.559c1.19,1.453 2.677,2.004 4.521,2.145c4.275,0.328 8.871,-1.163 11.334,-4.918c1.956,-2.983 0.767,-7.174 -3.229,-7.441c-0.028,-0.002 -0.058,-0.004 -0.086,-0.006c-5.121,-0.343 -11.898,2.226 -12.4,8.143c-0.051,0.271 -0.047,0.54 0.015,0.809c2.017,-2.403 4.032,-4.807 6.048,-7.211c-11.681,6.319 -24.225,11.271 -36.245,16.93c-12.396,5.835 -24.731,11.801 -37.158,17.572c-11.33,5.262 -23.178,9.332 -34.767,13.97c-10.727,4.292 -23.909,8.965 -32.347,17.116c-5.248,5.065 1.817,8.37 6.543,6.348Z" style="fill-rule:nonzero;"/><path d="M241.8,5.002c18.078,15.281 42.997,20.078 63.2,32.051c10.975,6.504 22.369,12.27 33.806,17.91c5.819,2.871 11.618,5.779 17.36,8.804c5.43,2.86 11.516,5.586 16.024,9.796c-0.394,-0.905 -0.786,-1.812 -1.18,-2.718c-0.027,0.281 -0.056,0.563 -0.083,0.844c4.081,-2.681 8.162,-5.36 12.244,-8.041c-4.279,-0.845 -8.68,-0.149 -11.766,3.248c1.465,-0.792 2.931,-1.583 4.396,-2.374c-0.551,0.124 -1.102,0.249 -1.652,0.373c-2.014,0.455 -6.107,2.961 -4.73,5.644c0.016,0.709 0.132,1.403 0.349,2.085c0.693,1.598 2.22,2.125 3.696,2.726c5.46,2.219 15.362,-2.181 13.623,-9.03c-0.533,-2.099 -2.148,-2.782 -4.029,-3.521c-3.201,-1.257 -6.146,-3.151 -9.182,-4.775c-6.234,-3.334 -12.621,-6.386 -19.018,-9.395c-12.346,-5.806 -24.884,-11.195 -37.103,-17.27c-23.097,-11.484 -47.73,-19.702 -71.289,-30.127c-1.801,-0.799 -7.029,1.772 -4.666,3.77Z" style="fill-rule:nonzero;"/><path d="M72,117.794c8.169,-5.865 14.482,-14.81 20.807,-22.538c6.641,-8.112 13.102,-16.36 19.49,-24.672c1.678,-2.184 1.127,-5.282 -1.412,-6.456c-3.447,-1.593 -8.517,-0.042 -10.994,2.679c-0.38,0.418 -0.761,0.836 -1.142,1.253c-2.096,2.302 -3.393,6.099 0.229,7.772c3.623,1.674 8.11,-0.146 10.844,-2.642c0.432,-0.394 0.863,-0.788 1.295,-1.183c-4.136,-1.259 -8.271,-2.518 -12.406,-3.777c-5.574,7.891 -11.193,15.748 -17.013,23.459c-2.966,3.931 -6.062,7.773 -9.214,11.555c-2.915,3.496 -6.366,6.786 -8.634,10.754c-3.183,5.572 4.902,6.128 8.15,3.796Z" style="fill-rule:nonzero;"/><path d="M62.469,115.275c-2.331,4.583 1.072,9.104 3.74,12.847c3.629,5.091 8.384,9.317 13.03,13.46c4.49,4.003 9.046,7.925 13.419,12.058c4.115,3.891 9.232,8.504 11.03,14.036c5,-2.17 10,-4.34 15,-6.51c-1.15,-1.892 -1.957,-2.933 -4.064,-3.754c-4.825,-1.878 -13.685,1.884 -12.09,8.016c0.364,1.401 1.13,2.287 1.99,3.44c4.12,5.526 18.924,-3.215 13.328,-8.895c-3.964,-4.024 -7.4,-8.4 -11.661,-12.176c-4.568,-4.049 -9.512,-7.67 -14.346,-11.393c-4.74,-3.65 -9.377,-7.449 -13.634,-11.661c-3.517,-3.479 -7.058,-9.846 -11.958,-11.112c-1.223,-0.316 -3.202,0.497 -3.784,1.644Z" style="fill-rule:nonzero;"/><path d="M380.6,71.459c1.576,3.339 5.332,6.447 7.803,9.193c3.797,4.221 7.313,8.641 10.699,13.197c3.579,4.815 6.985,9.757 10.429,14.668c3.019,4.307 6.897,8.626 9.239,13.332c0.203,-1.32 0.408,-2.639 0.611,-3.959c-0.145,0.248 -0.295,0.493 -0.451,0.733c3.902,-1.315 7.806,-2.63 11.708,-3.945c-3.749,-2.128 -8.364,-1.661 -11.436,1.522c-1.212,1.257 -2.633,3.422 -1.675,5.253c0.248,0.474 0.496,0.948 0.744,1.423c3.666,7.003 18.932,-1.36 13.581,-7.385c-7.381,-8.312 -14.067,-17.148 -20.983,-25.891c-6.044,-7.64 -14.585,-20.553 -24.996,-22.363c-1.915,-0.331 -6.527,1.564 -5.273,4.222Z" style="fill-rule:nonzero;"/><path d="M379.522,167.901c5.18,-2.377 9.119,-7.516 13.111,-11.472c4.477,-4.435 9.385,-8.476 14.367,-12.324c5.004,-3.864 10.189,-7.491 15.398,-11.072c4.602,-3.163 11.23,-5.834 13.437,-11.182c2.625,-6.364 -6.954,-5.995 -10.179,-4.829c-2.901,1.049 -5.412,2.48 -7.605,4.656c-3.7,3.67 -1.382,7.432 3.312,7.632c3.121,0.134 5.88,-0.917 8.782,-1.946c-3.374,-0.584 -6.747,-1.168 -10.121,-1.753c0.102,0.23 0.227,0.446 0.376,0.648c0.624,-1.954 1.247,-3.909 1.87,-5.864c-3.629,3.41 -8.464,5.971 -12.529,8.855c-5.317,3.771 -10.526,7.698 -15.567,11.832c-4.87,3.995 -9.473,8.211 -13.713,12.875c-2.762,3.038 -7.671,8.62 -6.16,13.039c0.672,1.971 3.832,1.542 5.221,0.905Z" style="fill-rule:nonzero;"/><path d="M119.343,160.852c1.803,-8.688 10.161,-16.055 16.58,-21.525c8.445,-7.199 16.664,-12.642 26.864,-17.193c24.896,-11.111 52.935,-16.357 80.018,-18.343c48.834,-3.58 99.189,16.733 130.387,54.771c4.117,5.02 18.937,-2.244 15.135,-8.229c-1.629,-2.564 -3.414,-3.498 -6.056,-4.873c-5.188,-2.701 -16.169,3.455 -11.825,9.552c0.872,1.225 1.857,2.341 2.746,3.551c4.748,-3.168 9.494,-6.336 14.242,-9.504c-36.451,-39.073 -87.261,-60.327 -140.836,-56.789c-29.225,1.929 -59.171,8.461 -85.936,20.447c-11.418,5.113 -21.424,11.251 -30.537,19.798c-6.717,6.299 -15.061,15.429 -17.639,24.492c-0.448,1.576 -0.652,3.26 -0.604,4.893c0.11,3.713 6.906,1.631 7.461,-1.048Z" style="fill-rule:nonzero;"/><path d="M108.807,161.677c-0.771,3.297 3.102,7.069 4.911,9.516c2.274,3.074 3.839,8.235 7.938,9.024c3.487,0.67 9.513,-1.989 9.4,-6.174c-0.091,-3.389 -6.174,-6.057 -8.747,-7.772c-3.335,-2.224 -6.753,-6.144 -11.003,-6.231c-0.899,-0.02 -2.275,0.682 -2.499,1.637Z" style="fill-rule:nonzero;"/><path d="M129.026,177.318c7.353,-5.7 14.517,-11.414 22.658,-15.988c8.23,-4.624 17.332,-7.949 26.361,-10.617c19.36,-5.723 39.617,-7.77 59.736,-8.161c43.577,-0.85 90.162,7.559 126.133,33.4c3.087,2.218 7.138,1.492 10.178,-0.535c1.933,-1.289 5.63,-5.746 2.479,-7.91c-3.565,-2.449 -6.544,-2.625 -10.738,-2.088c-2.406,0.309 -7.805,2.564 -6.206,6.015c0.999,2.156 2.512,3.046 4.288,4.519c3.818,-3.084 7.636,-6.167 11.453,-9.251c-39.959,-26.676 -88.09,-35.714 -135.525,-34.562c-21.77,0.529 -43.78,3.743 -64.484,10.59c-18.084,5.981 -40,15.878 -50.61,32.596c-1.803,2.838 2.644,3.258 4.277,1.992Z" style="fill-rule:nonzero;"/><path d="M375.057,164.044c-1.485,-0.306 -2.869,0.063 -4.29,0.415c-1.505,0.374 -2.991,1.213 -3.858,2.535c-0.358,0.52 -0.547,1.093 -0.563,1.721c0.011,0.804 0.566,1.734 1.374,1.982c0.285,0.087 0.571,0.175 0.857,0.262c0.421,0.13 0.924,0.332 1.31,0.398c0.968,0.168 1.886,-0.002 2.836,-0.17c1.905,-0.336 4.067,-1.828 4.693,-3.723c0.218,-0.617 0.206,-1.229 -0.034,-1.836c-0.415,-0.955 -1.368,-1.387 -2.325,-1.584Z" style="fill-rule:nonzero;"/><path d="M136.726,166.025c10.22,17.161 31.566,27.481 49.551,34.513c20.594,8.051 42.956,11.681 65.021,11.422c21.512,-0.253 45.194,-4.497 64.326,-14.748c8.734,-4.681 16.945,-10.07 24.602,-16.368c6.442,-5.3 13.62,-12.619 14.038,-21.447c0.357,-7.513 -14.823,-3.153 -15.145,3.553c-0.296,6.153 -8.053,11.53 -12.445,14.85c-6.34,4.794 -13.438,9.186 -19.978,12.072c-17.597,7.767 -36.905,10.739 -56.04,10.612c-19.449,-0.129 -38.832,-4.111 -57.048,-10.816c-8.97,-3.303 -17.524,-7.532 -25.821,-12.259c-8.47,-4.826 -16.255,-10.736 -24.702,-15.599c-2.006,-1.155 -8.029,1.41 -6.359,4.215Z" style="fill-rule:nonzero;"/><path d="M210.417,42.427c3.934,2.05 6.563,3.611 6.34,8.403c-0.177,3.834 -1.706,7.396 -3.809,10.52c-4.142,6.15 -3.193,13.886 2.342,18.9c4.874,4.416 11.687,7.41 17.819,9.572c2.627,0.926 5.063,1.563 7.846,1.111c2.12,-0.344 5.607,-2.665 4.58,-5.223c-0.691,-1.721 -3.322,-1.39 -4.628,-0.802c2.315,-1.043 4.927,0.249 1.806,-0.69c-0.809,-0.244 -1.688,-0.33 -2.51,-0.541c-2.844,-0.73 -5.602,-2.039 -8.253,-3.271c-5.753,-2.672 -12.355,-5.97 -13.185,-12.993c-0.335,-2.841 1.976,-5.744 3.115,-8.201c1.264,-2.725 1.617,-6.048 1.735,-9.019c0.261,-6.529 -4.606,-10.162 -10.696,-10.784c-1.299,-0.132 -4.732,1.855 -2.502,3.018Z" style="fill-rule:nonzero;"/><path d="M273.276,37.084c-5.793,0.232 -10.756,4.553 -13.561,9.365c-2.93,5.028 -1.729,10.865 0.403,15.887c2.514,5.919 0.137,10.73 -4.532,14.813c-4.174,3.649 -9.495,5.053 -13.891,8.147c-2.652,1.867 -2.92,5.955 1.219,5.642c5.064,-0.382 10.286,-4.204 14.361,-6.966c4.846,-3.283 9.336,-7.46 11.588,-12.986c2.112,-5.187 0.847,-9.083 -1.306,-13.955c-1.239,-2.804 -1.748,-5.782 -1.219,-8.828c0.725,-4.174 4.936,-6.475 7.853,-9.006c1.056,-0.915 0.369,-2.163 -0.915,-2.113Z" style="fill-rule:nonzero;"/><path d="M212.836,41.801c0.819,-0.821 2.068,-2.397 3.17,-2.708c-1.555,0.438 3.173,1.653 3.889,1.808c3.502,0.751 7.422,-0.25 10.555,-1.792c5.707,-2.809 10.608,-8.901 13.025,-14.729c1.971,-4.75 -6.642,-2.733 -8.254,-0.491c-4.494,6.252 -6.674,13.031 -15.838,9.648c-1.906,-0.703 -3.893,0.008 -5.359,1.307c-1.981,1.752 -4.417,3.683 -5.313,6.242c-0.867,2.476 3.197,1.647 4.125,0.715Z" style="fill-rule:nonzero;"/><path d="M241.848,24.447c-3.158,5.905 -1.327,12.732 4.513,16.017c6.872,3.866 15.626,-0.687 20.743,-5.284c-1.81,0.61 -3.619,1.22 -5.43,1.829c2.504,0.592 3.693,1.301 5.116,3.44c1.446,-1.726 2.893,-3.45 4.339,-5.176c-2.505,0.602 -5.637,1.77 -5.873,4.713c-0.039,0.474 0.373,1.044 0.82,1.185c0.951,0.298 1.904,0.542 2.878,0.754c2.462,0.537 8.061,-2.004 6.592,-5.274c-1.353,-3.01 -3.655,-4.867 -6.849,-5.698c-4.922,-1.282 -6.526,0.401 -10.338,3.153c-2.938,2.121 -6.507,1.496 -9.1,-0.782c-2.839,-2.496 -2.849,-6.029 -3.822,-9.396c-0.426,-1.479 -3.126,-0.348 -3.589,0.519Z" style="fill-rule:nonzero;"/><path d="M104.333,69.25c0.069,9.203 10.991,15.875 17.938,19.875c7.811,4.498 18.121,9.534 27.303,9.695c1.289,0.022 4.011,-1.681 2.632,-3.162c-2.228,-2.394 -5.708,-3.66 -8.643,-4.969c-4.333,-1.932 -8.613,-4.084 -12.827,-6.265c-4.409,-2.281 -8.597,-4.976 -12.42,-8.145c-3.355,-2.781 -5.738,-6.263 -8.801,-9.279c-1.507,-1.484 -5.197,0.171 -5.182,2.25Z" style="fill-rule:nonzero;"/><path d="M338.921,98.536c8.021,1.162 16.808,-2.85 23.595,-6.719c9.457,-5.389 17.649,-11.031 24.946,-19.203c-1.905,0.642 -3.81,1.283 -5.715,1.926c0.153,0.013 0.306,0.026 0.459,0.04c-0.606,-1.398 -1.214,-2.797 -1.82,-4.195c0.407,-0.47 0.37,-0.426 -0.112,0.131c-1.642,1.899 -1.187,4.841 1.922,4.429c2.199,-0.292 3.994,-0.713 5.688,-2.276c1.918,-1.772 1.619,-4.501 -1.107,-5.056c-0.143,-0.029 -0.285,-0.059 -0.429,-0.088c-1.876,-0.381 -4.454,0.475 -5.715,1.926c-5.038,5.798 -10.708,11.159 -16.394,16.315c-6.865,6.227 -16.149,9.056 -24.863,11.382c-0.549,0.145 -1.542,1.229 -0.455,1.388Z" style="fill-rule:nonzero;"/><path d="M64.534,117.836c5.596,7.327 18.085,9.345 26.591,10.643c9.688,1.478 21.046,2.313 30.64,0.074c1.412,-0.329 3.166,-2.401 0.988,-3.021c-8.317,-2.37 -17.869,-1.277 -26.451,-2.309c-5.005,-0.602 -9.973,-1.535 -14.787,-3.044c-4.588,-1.437 -8.807,-3.819 -13.379,-5.252c-1.507,-0.472 -5.12,0.922 -3.602,2.909Z" style="fill-rule:nonzero;"/><path d="M373.615,128.927c8.205,0.867 15.847,-0.53 23.929,-2.067c4.315,-0.82 8.602,-1.759 12.951,-2.395c3.206,-0.469 6.301,0.295 9.376,-0.047c1.984,-0.22 6.677,-2.223 5.255,-5.092c-2.826,-5.697 -17.226,-0.925 -21.529,0.167c-4.95,1.256 -9.833,2.749 -14.763,4.081c-4.483,1.21 -9.489,3.165 -14.178,3.232c-1.034,0.017 -2.745,1.942 -1.041,2.121Z" style="fill-rule:nonzero;"/><path d="M129.342,175.522c-4.896,14.461 -1.487,30.973 -0.143,45.755c1.194,13.125 1.155,26.375 2.084,39.526c1.8,25.477 6.354,52.475 20.422,74.282c12.134,18.811 32.281,31.065 52.963,38.511c21.045,7.575 46.063,11.986 68.084,6.461c1.722,-0.433 3.368,-1.121 5.002,-1.802c2.539,-1.058 5.909,-6.358 1.051,-6.794c-10.019,-0.896 -20.099,0.135 -30.138,-0.706c-11.044,-0.925 -22.061,-3.14 -32.587,-6.601c-19.953,-6.559 -39.922,-18.104 -51.896,-35.836c-14.244,-21.094 -18.273,-47.147 -21.12,-71.883c-1.437,-12.488 -2.07,-25.074 -3.737,-37.535c-1.001,-7.479 -2.54,-14.859 -3.827,-22.289c-1.248,-7.203 -1.876,-14.32 -2.813,-21.559c-0.222,-1.721 -2.958,-0.669 -3.345,0.47Z" style="fill-rule:nonzero;"/><path d="M285.757,374.408c7.226,1.103 14.154,-3.401 20.001,-7.073c7.948,-4.993 15.294,-11.029 22.11,-17.459c13.444,-12.685 23.743,-27.361 30.355,-44.66c16.202,-42.387 12.669,-90.023 13.065,-134.443c0.026,-2.93 -3.25,-4.065 -5.666,-3.931c-4.493,0.251 -7.991,1.709 -11.805,4.005c-2.307,1.389 -3.813,5.951 0.17,6.243c2.678,0.197 5.143,1.033 7.881,1.152c-1.889,-1.311 -3.777,-2.621 -5.666,-3.931c0.47,41.904 4.3,84.881 -8.103,125.57c-5.017,16.46 -13.044,31 -24.69,43.648c-5.704,6.195 -11.898,12.236 -18.618,17.321c-5.963,4.513 -12.613,7.75 -19.093,11.413c-0.884,0.502 -1.233,1.947 0.059,2.145Z" style="fill-rule:nonzero;"/><path d="M125.862,188.583c-3.944,0.138 -6.768,-2.805 -10.209,-4.428c-6.623,-3.124 -13.88,0.115 -18.931,4.548c-9.488,8.324 -9.817,22.445 -7.411,33.826c2.335,11.039 7.768,22.722 16.924,29.732c4.355,3.334 9.371,5.037 14.862,4.932c6.278,-0.12 14.519,-3.429 17.122,-9.418c1.838,-4.232 -4.039,-5.331 -6.788,-4.71c-2.303,0.521 -4.728,2.006 -5.893,2.542c1.256,-0.578 -0.925,0.22 -1.087,0.252c0.813,-0.164 -0.546,-0.155 -0.832,-0.199c-3.17,-0.489 -6.176,-3.23 -8.459,-5.619c-6.366,-6.658 -10.268,-16.522 -11.88,-25.474c-0.772,-4.289 -1.083,-8.963 -0.237,-13.264c0.342,-1.733 0.88,-3.513 1.738,-5.06c0.578,-1.041 1.308,-1.96 2.116,-2.826c0.808,-0.866 -0.294,-0.006 -0.782,-0.048c3.816,0.33 7.147,2.905 10.99,3.407c3.818,0.5 10.438,-1.222 11.268,-5.704c0.311,-1.683 -0.887,-2.546 -2.511,-2.489Z" style="fill-rule:nonzero;"/><path d="M371.19,187.508c-0.687,6.92 11.743,1.252 14.276,1.028c6.678,-0.588 8.515,13.413 9.138,17.712c1.056,7.292 0.989,15.28 -2.74,21.846c-4.098,7.213 -12.863,9.139 -20.426,10.272c-3.244,0.486 -7.584,3.634 -7.538,7.254c0.051,4.019 4.844,4.111 7.667,3.688c11.102,-1.664 22.51,-5.736 30.067,-14.415c6.922,-7.949 8.8,-18.133 8.005,-28.367c-0.62,-7.995 -3.207,-21.368 -11.259,-25.491c-5.216,-2.672 -10.684,-2.301 -15.903,0.186c-4.345,2.068 -6.65,3.461 -10.205,4.996c-0.549,0.238 -1.022,0.675 -1.082,1.291Z" style="fill-rule:nonzero;"/><path d="M124.698,214.155c0.137,-0.163 0.155,-0.337 0.057,-0.521c-0.253,-0.535 -0.652,-0.923 -1.195,-1.161c-0.476,-0.316 -1.048,-0.432 -1.601,-0.555c-0.597,-0.132 -1.352,-0.158 -1.917,-0.163c-0.577,-0.005 -1.416,-0.206 0.332,0.098c-3.643,-0.632 -7.503,1.77 -9.591,4.586c-1.629,2.198 -1.239,4.718 0.306,6.765c0.696,0.922 1.6,1.474 2.563,2.113c0.465,0.309 0.973,0.463 1.5,0.63c0.923,0.394 1.886,0.561 2.891,0.5c1.906,-0.286 2.234,-0.323 0.983,-0.114c2.047,0.012 4.265,-1.062 5.702,-2.474c0.939,-0.924 2.33,-3.021 1.407,-4.416c0.105,0.949 0.038,0.735 -0.202,-0.644c-0.216,-0.527 -0.552,-0.937 -1.01,-1.229c-0.644,-0.482 -1.301,-0.939 -1.988,-1.363c-0.846,-0.521 0.867,0.69 -0.193,-0.178c-0.347,-0.283 -0.959,-1.205 -0.074,0.124c-0.134,-0.2 -0.23,-0.439 -0.335,-0.656c-0.149,-0.429 -0.105,-0.19 0.132,0.714c-0.005,-0.455 -0.059,-0.2 -0.162,0.764c0.146,-0.461 0.01,-0.209 -0.406,0.756c0.285,-0.436 0.086,-0.206 -0.598,0.687c0.398,-0.386 0.154,-0.198 -0.731,0.563c0.844,-0.655 1.55,-1.176 2.105,-2.111c-0.659,0.646 -1.319,1.292 -1.979,1.938c0.362,-0.28 1.116,-0.657 -0.519,0.215c0.326,-0.175 0.663,-0.325 1.006,-0.465c0.563,-0.231 1.08,-0.569 1.614,-0.862c0.406,-0.271 0.775,-0.584 1.106,-0.938c0.68,-0.835 0.77,-0.936 0.268,-0.3c-0.408,0.271 -0.816,0.541 -1.226,0.812c0.101,-0.035 0.201,-0.069 0.302,-0.104c1.06,-0.373 2.509,-1.919 1.453,-3.011Z" style="fill-rule:nonzero;"/><path d="M373.618,213.79c0.732,0.228 1.459,0.436 2.201,0.63c-0.521,-0.243 -1.043,-0.485 -1.564,-0.728c0.782,0.576 1.16,1.363 0.27,-0.025c0.234,0.344 0.476,0.685 0.723,1.02c-0.262,-0.442 -0.285,-0.473 -0.073,-0.092c0.149,0.275 0.221,1.113 0.097,0.148c0.258,1.263 0.308,1.485 0.15,0.668c0.038,0.24 0.061,0.482 0.066,0.727c0.012,0.19 -0.123,1.435 0.061,0.347c-0.224,1.391 -0.27,1.667 -0.138,0.827c-0.131,0.554 -0.23,1.114 -0.299,1.68c0.015,0.131 0.029,0.26 0.044,0.391c0.186,-0.777 0.152,-0.505 -0.099,0.815c0.018,0.818 0.319,1.513 0.905,2.085c-0.501,-1.162 -0.702,-1.375 -0.604,-0.637c0.082,1.489 1.251,2.362 2.639,2.603c2.306,0.399 4.493,-0.633 6.201,-2.09c0.273,-0.204 0.518,-0.438 0.732,-0.704c-1.433,1.566 1.762,-1.773 1.762,-1.773c0.709,-1.4 1.35,-2.58 1.545,-4.17c0.192,-1.555 -0.159,-3.414 -1.013,-4.74c-1.331,-2.067 -3.745,-3.051 -6.149,-3.088c-0.687,-0.012 -1.355,0.129 -2.031,0.229c1.498,-0.223 -2.163,0.614 -1.964,0.54c1.104,-0.408 -0.896,0.281 -1.201,0.384c-0.575,0.192 -1.189,0.652 -1.686,1.024c-1.003,0.75 -2.762,3.247 -0.575,3.929Z" style="fill-rule:nonzero;"/><path d="M180.976,409.368c2.057,-2.441 -0.56,0.557 -0.905,1.085c-0.854,1.302 -1.142,2.826 -0.984,4.344c0.344,3.316 2.072,6.181 3.967,8.839c5.163,7.238 12.483,12.922 19.423,18.365c7.792,6.111 15.649,11.904 23.903,17.4c8.241,5.488 17.174,9.538 25.569,14.661c3.717,-3.646 7.433,-7.292 11.149,-10.938c-0.504,-0.195 -0.95,-0.371 -1.477,-0.54c-3.969,-1.271 -8.286,-0.202 -11.293,2.751c-2.489,2.445 -3.248,6.21 0.238,8.095c0.482,0.261 0.871,0.468 1.382,0.633c3.999,1.29 8.362,0.2 11.39,-2.774c2.489,-2.445 3.302,-6.293 -0.24,-8.164c-7.161,-3.783 -14.956,-6.411 -22.16,-10.204c-8.663,-4.56 -17.018,-9.557 -25.182,-14.938c-6.632,-4.371 -13.163,-8.931 -19.143,-14.173c-2.703,-2.371 -5.285,-4.965 -7.483,-7.813c-1.722,-2.23 -2.345,-5.164 -4.253,-7.213c-0.939,-1.009 -3.141,-0.319 -3.901,0.584Z" style="fill-rule:nonzero;"/><path d="M265.378,474.464c8.162,-1.25 15.978,-6.541 22.86,-10.788c9.072,-5.597 17.486,-12.578 25.592,-19.463c4.176,-3.547 9.593,-7.437 12.6,-12.064c1.731,-2.664 3.176,-5.539 4.738,-8.303c0.912,-1.614 1.848,-3.215 2.809,-4.801c0.336,-0.549 0.679,-1.092 1.03,-1.63c0.007,-0.011 1.626,-2.156 0.592,-0.958c-1.377,1.093 -1.176,0.925 0.604,-0.504c0.722,-0.709 1.624,-1.867 1.84,-2.898c0.413,-1.973 -3.038,4.655 0.198,-0.28c0.277,-0.422 1.403,-5.011 0.821,-2.004c-5.23,0.734 -10.461,1.468 -15.691,2.202c0.219,3.893 3.898,6.056 7.572,5.192c4.328,-1.017 7.719,-4.605 8.37,-8.932c0.468,-3.103 -3.786,-4.247 -5.988,-4.154c-4.014,0.17 -8.173,2.548 -9.704,6.356c-0.615,1.532 -0.075,3.857 -0.066,3.783c1.176,-1.793 2.352,-3.586 3.527,-5.379c-4.585,3.234 -7.062,9.025 -9.661,13.813c-1.19,2.193 -2.23,4.993 -3.997,6.768c-4.032,4.052 -8.272,7.896 -12.6,11.628c-11.895,10.262 -24.941,17.98 -37.976,26.587c-4.101,2.71 -1.848,6.499 2.53,5.829Z" style="fill-rule:nonzero;"/><path d="M175.105,380.777c-9.085,6.561 -17.175,15.275 -25.236,23.038c-4.194,4.039 -8.219,8.297 -11.885,12.822c-2.37,2.926 -8.146,8.786 -5.823,12.784c2.197,3.783 7.348,2.358 10.384,0.564c4.03,-2.382 5.798,-7.385 8.5,-11.087c3.271,-4.479 7.054,-8.557 10.735,-12.693c3.563,-4.006 7.182,-7.946 10.605,-12.074c2.965,-3.574 6.465,-7.244 7.861,-11.779c0.949,-3.078 -3.663,-2.642 -5.141,-1.575Z" style="fill-rule:nonzero;"/><path d="M260.223,465.934c-11.254,4.006 -17.815,17.98 -22.104,28.176c-5.003,11.897 -7.57,25.198 -14.163,36.357c4.249,-0.189 8.499,-0.378 12.749,-0.566c0.047,-1.145 -0.238,-2.178 -0.688,-3.219c-2.23,-5.163 -10.935,-0.805 -12.278,2.92c5.174,-4.246 6.126,-5.39 2.854,-3.432c-0.897,0.585 -1.648,1.319 -2.251,2.203c-0.888,1.354 -1.314,3.113 -1.247,4.719c0.297,7.021 11.914,2.449 13.395,-1.879c3.797,-11.098 6.965,-22.356 10.562,-33.517c1.886,-5.85 4.144,-11.605 7.127,-16.987c2.612,-4.712 6.771,-8.522 9.118,-13.316c0.932,-1.9 -2.195,-1.771 -3.074,-1.459Z" style="fill-rule:nonzero;"/><path d="M270.862,470.542c-0.039,0.203 -0.078,0.406 -0.116,0.609c-0.597,0.649 -1.361,1.741 -0.854,2.679c12.059,22.273 15.728,48.099 27.19,70.626c4.293,-2.334 8.584,-4.668 12.877,-7.002c-2.616,-2.494 -5.22,-3.69 -8.901,-3.472c-2.286,0.136 -4.841,1.448 -5.662,3.708c-1.193,3.285 0.216,5.509 2.446,7.85c3.714,3.896 16.247,-1.852 12.877,-7.002c-7.303,-11.158 -12.129,-23.276 -17.049,-35.618c-4.569,-11.461 -8.955,-23.3 -17.31,-32.607c-0.72,-0.802 -2.139,-0.742 -3.074,-0.532c-0.288,-0.026 -0.576,-0.053 -0.864,-0.079c-0.544,-0.087 -1.419,0.235 -1.56,0.84Z" style="fill-rule:nonzero;"/><path d="M338.008,374.318c3.801,11.369 14.044,20.981 21.623,29.932c8.254,9.745 18.428,21.458 21.703,34.097c1.51,5.822 15.536,0.536 13.133,-5.699c-2.875,-7.458 -17.805,-3.806 -13.133,5.699c4.378,-1.9 8.755,-3.799 13.133,-5.699c-3.569,-5.29 -6.421,-11.003 -10.157,-16.229c-4.033,-5.64 -8.658,-10.845 -13.373,-15.917c-8.978,-9.657 -18.509,-20.554 -29.354,-28.127c-1.208,-0.843 -4.173,0.151 -3.575,1.943Z" style="fill-rule:nonzero;"/><path d="M306.923,546.406c10.872,-1.843 20.97,-10.171 28.825,-17.416c9.138,-8.427 16.981,-18.212 24.087,-28.379c13.896,-19.881 25.273,-42.188 34.923,-64.409c1.082,-2.494 -1.158,-4.563 -3.415,-4.954c-3.375,-0.585 -7.851,1.142 -9.628,4.178c-1.054,1.802 -2.702,3.246 -3.348,5.267c-0.927,2.899 2.484,3.614 4.573,3.173c4.675,-0.987 8.04,-2.539 11.146,-6.297c-4.348,-0.259 -8.695,-0.518 -13.043,-0.776c-8.373,20.82 -18.007,40.745 -30.484,59.508c-6.33,9.521 -13.386,18.607 -21.361,26.807c-7.469,7.679 -16.402,13.313 -24.212,20.503c-1.844,1.695 0.099,3.106 1.937,2.795Z" style="fill-rule:nonzero;"/><path d="M5.245,469.903c3.428,-4.35 6.513,-8.449 10.969,-11.853c4.441,-3.39 9.34,-6.015 14.426,-8.286c11.594,-5.178 24.033,-8.491 35.979,-12.735c32.575,-11.575 64.565,-24.767 97.322,-35.835c5.939,-2.006 7.631,-10.469 -0.188,-10.32c-4.465,0.084 -8.921,1.281 -11.983,4.709c-1.907,2.133 -2.328,5.673 1.349,6.158c2.303,0.304 4.611,0.384 6.932,0.379c-0.063,-3.439 -0.125,-6.881 -0.188,-10.32c-34.887,12.806 -69.31,26.833 -104.199,39.629c-11.754,4.311 -23.436,7.928 -34.483,13.956c-8.242,4.497 -21.815,13.759 -20.962,24.741c0.208,2.693 4.107,0.944 5.026,-0.223Z" style="fill-rule:nonzero;"/><path d="M341.735,381.622c9.213,6.039 20.472,9.467 30.629,13.59c11.201,4.547 22.479,8.902 33.664,13.487c14.362,5.887 28.756,11.603 43.177,17.341c13.531,5.385 27.228,11.445 38.657,20.625c10.943,8.79 16.87,19.589 17.514,33.598c4.651,-2.02 9.303,-4.038 13.955,-6.057c-2.638,-3.341 -5.796,-2.712 -9.458,-3.715c-1.926,-0.527 -5.497,1.038 -5.898,3.175c-0.646,3.436 -0.087,5.087 1.69,7.972c3.572,5.792 14.361,1.156 14.762,-4.906c2.107,-31.951 -33.602,-49.07 -58.305,-58.826c-14.471,-5.715 -29.198,-10.755 -43.688,-16.433c-12.074,-4.731 -24.288,-9.029 -36.589,-13.128c-11.9,-3.967 -24.059,-8.896 -36.422,-11.169c-2.172,-0.4 -6.64,2.511 -3.688,4.446Z" style="fill-rule:nonzero;"/><path d="M32.563,439.907c-0.902,-2.359 -2.799,-4.712 -1.867,-7.33c0.712,-2.004 3.374,-3.099 5.136,-3.922c6.392,-2.986 13.461,-4.477 20.24,-6.307c10.267,-2.771 19.948,-7.563 29.732,-11.655c13.805,-5.772 27.592,-11.096 42.151,-14.595c-1.839,-0.318 -3.678,-0.638 -5.518,-0.956c1.43,1.967 2.816,4.14 3.747,6.401c1.119,2.719 5.508,1.643 7.265,0.395c6.246,-4.437 4.143,-9.053 -0.086,-14.087c-1.18,-1.403 -3.947,-1.413 -5.518,-0.956c-15.985,4.662 -31.541,10.867 -46.861,17.354c-10.874,4.603 -20.191,8.743 -31.075,11.715c-8.437,2.304 -17.515,4.802 -24.407,10.434c-6.284,5.135 -6.779,13.388 0.763,17.686c2.246,1.279 7.419,-1.245 6.298,-4.177Z" style="fill-rule:nonzero;"/><path d="M379.292,387.605c2.259,-2.095 4.77,-3.76 7.224,-5.604c-1.289,0.433 -2.578,0.865 -3.867,1.298c17.39,0.147 34.24,5.241 50.592,10.714c8.204,2.746 16.211,5.821 24.113,9.348c8.812,3.932 17.748,8.25 25.407,14.183c2.689,2.083 5.45,4.491 6.883,7.634c0.404,0.888 0.328,2.225 0.151,2.778c-0.057,0.177 -1.291,1.3 -2.339,2.483c-4.403,4.972 1.412,7.925 6.131,5.945c4.998,-2.097 9.228,-6.662 9.454,-12.275c0.174,-4.307 -3.413,-8.371 -6.313,-11.113c-8.769,-8.287 -20.888,-13.552 -31.815,-18.287c-12.225,-5.297 -24.861,-9.404 -37.643,-13.141c-10.42,-3.045 -21.194,-5.515 -32.07,-6.045c-4.468,-0.219 -11.417,-1.16 -14.931,2.292c-2.31,2.269 -5.778,5.603 -6.577,8.821c-0.856,3.447 4.203,2.265 5.6,0.969Z" style="fill-rule:nonzero;"/><path d="M145.975,419.271c-0.344,0.03 -0.687,0.061 -1.029,0.091c-0.12,0.01 -0.354,0.246 -0.132,0.268c0.313,0.029 0.628,0.059 0.942,0.088c0.344,0.032 0.631,-0.483 0.219,-0.447Z" style="fill-rule:nonzero;"/><path d="M145.886,418.252c-10.314,2.229 -5.319,19.938 -3.602,26.511c3.201,12.243 8.204,24.562 13.964,35.81c14.3,27.928 36.735,52.687 65.465,66.014c5.816,2.697 18.056,-6.579 10.375,-10.18c-2.431,-1.139 -4.824,-1.717 -7.477,-2.044c-2.773,-0.342 -8.808,1.63 -8.286,5.441c0.48,3.515 2.357,5.135 5.388,6.782c3.458,-3.394 6.917,-6.786 10.375,-10.18c-25.885,-11.105 -46.455,-31.678 -61.104,-55.425c-6.062,-9.828 -10.879,-20.334 -15.416,-30.933c-3.814,-8.909 -9.278,-19.367 -7.309,-29.386c0.108,-0.555 0.195,-1.347 -0.375,-1.733c-0.696,-0.472 -1.065,-0.878 -1.998,-0.677Z" style="fill-rule:nonzero;"/><path d="M250.94,314.805c6.496,5.671 16.664,4.49 24.223,1.899c9.099,-3.118 17.317,-9.014 22.492,-17.197c-1.104,0.883 -2.207,1.767 -3.311,2.649c2.518,-0.93 4.164,-2.382 5.598,-4.613c1.02,-1.589 1.274,-3.54 -0.134,-4.989c-1.515,-1.56 -3.172,-2.716 -5.022,-3.851c-2.772,3.343 -5.545,6.685 -8.316,10.027c-0.776,-0.279 -0.709,-0.249 0.2,0.092c0.961,0.366 1.896,0.806 2.834,1.227c1.77,0.794 3.493,1.684 5.255,2.492c-0.763,-1.101 -1.525,-2.201 -2.288,-3.302c0.219,-0.439 0.438,-0.879 0.656,-1.318c-4.317,3.598 0.224,7.688 4.523,6.527c4.402,-1.188 7.641,-2.836 9.448,-7.262c0.797,-1.954 -0.316,-3.853 -2.055,-4.735c-3.445,-1.75 -7.859,-3.693 -11.711,-4.189c-3.08,-0.396 -6.304,0.688 -8.527,2.873c-2.166,2.129 -2.909,5.534 0.211,7.154c1.197,0.621 2,1.238 2.978,2.149c-0.264,-1.218 -0.526,-2.437 -0.79,-3.654c-0.102,0.362 -0.203,0.726 -0.305,1.089c-0.348,1.239 -0.27,2.624 0.766,3.545c0.15,0.134 0.301,0.268 0.451,0.401c-0.035,-1.328 -0.071,-2.655 -0.106,-3.983c-6.808,12.549 -20.66,16.633 -33.992,13.958c-1.207,-0.242 -4.765,1.539 -3.078,3.011Z" style="fill-rule:nonzero;"/><path d="M220.916,233.43c3.452,-3.971 6.154,-7.111 11.351,-8.812c4.48,-1.467 9.208,-1.646 13.881,-1.539c3.756,0.085 8.661,0.6 11.516,3.107c1.273,1.119 2.365,2.466 3.435,3.774c0.435,0.532 0.864,1.08 1.253,1.647c1.217,1.775 -0.191,0.421 1.262,-1.521c2.927,-1.271 5.854,-2.54 8.78,-3.81c-1.283,-0.09 3.971,0.496 -1.087,-0.323c-1.102,-0.179 -2.103,-0.229 -3.21,-0.085c-2.306,0.298 -5.056,1.375 -5.843,3.827c-3.767,11.732 19.5,4.015 12.584,-2.638c-4.303,-4.139 -7.229,-9.454 -14.04,-11.159c-8.813,-2.206 -18.83,-1.478 -27.442,1.292c-6.104,1.963 -19.586,7.968 -17.137,16.47c0.536,1.87 3.893,0.695 4.697,-0.23Z" style="fill-rule:nonzero;"/><path d="M217.923,214.204c2.851,-1.565 3.431,-2.029 1.741,-1.394c-0.728,0.315 -1.259,0.774 -1.741,1.394c-1.697,2.179 -2.442,4.708 -3.153,7.352c-1.518,5.649 -1.864,11.505 -2.86,17.247c-1.188,6.853 -3.567,15.003 -10.582,17.708c-6.907,2.664 -16.408,1.432 -23.718,1.536c-3.94,0.057 -8.094,-0.058 -11.858,-1.347c-1.966,-0.672 -3.407,-1.785 -4.963,-3.107c-1.573,-1.336 -3.283,-1.927 -4.901,-3.089c-1.908,-1.372 -5.753,-0.321 -6.372,2.139c-0.563,2.241 -1.165,3.948 -0.459,6.217c0.749,2.401 3.156,3.855 5.135,5.113c4.128,2.623 9.648,3.179 14.404,3.437c9.918,0.54 20.846,0.448 30.601,-1.443c9.61,-1.863 16.809,-7.813 20.86,-16.592c2.409,-5.221 3.119,-11.086 3.469,-16.76c0.191,-3.105 0.08,-6.233 0.007,-9.342c-0.072,-3.024 0.36,-6.346 -0.17,-9.311c-0.501,-2.797 -4.323,-1.191 -5.44,0.242Z" style="fill-rule:nonzero;"/><path d="M197.912,198.504c-2.88,-1.551 -6.739,-1.272 -9.947,-1.48c-3.788,-0.245 -7.562,-0.686 -11.347,-0.943c-6.488,-0.443 -13.376,0.807 -19.5,2.928c-9.202,3.188 -17.531,9.898 -19.96,19.677c-2.14,8.613 0.493,17.729 4.483,25.386c4.4,8.444 12.256,19.33 22.396,20.27c2.515,0.232 6.21,-1.415 5.552,-4.443c-0.891,-4.094 -4.031,-6.673 -6.81,-9.719c-2.806,-3.074 -5.304,-6.271 -7.459,-9.836c-3.834,-6.339 -6.488,-13.47 -5.889,-20.963c1.731,-21.64 35.76,-12.189 48.229,-19.155c0.637,-0.358 1.029,-1.303 0.252,-1.722Z" style="fill-rule:nonzero;"/><path d="M270.873,212.145c-3.118,5.083 -2.624,11.607 -1.458,17.262c0.979,4.745 1.73,9.537 2.899,14.244c1.675,6.745 4.685,13.438 9.942,18.145c5.301,4.746 12.545,6.072 19.426,6.163c8.329,0.11 21.579,-1.926 26.908,-8.996c0.629,-0.835 0.483,-2.135 -0.56,-2.556c-6.067,-2.448 -14.642,1.181 -21.003,1.631c-5.263,0.373 -10.322,-0.675 -14.451,-4.077c-4.637,-3.819 -6.982,-9.737 -8.785,-15.29c-1.189,-3.666 -1.641,-7.59 -3.106,-11.146c-2.135,-5.179 -3.208,-11 -5.552,-15.997c-0.775,-1.653 -3.562,-0.521 -4.26,0.617Z" style="fill-rule:nonzero;"/><path d="M307.407,200.25c4.745,1.123 9.81,-0.098 14.643,0.363c5.336,0.51 10.294,4.129 13.858,7.887c6.847,7.216 9.611,19.32 7.264,28.863c-2.086,8.48 -8.779,12.438 -16.688,14.634c-8.857,2.458 -17.974,3.557 -26.101,8.045c-1.518,0.837 -2.067,3.282 0.098,3.62c10.692,1.666 22.153,-0.693 32.292,-4.232c11.154,-3.893 20.272,-12.151 23.025,-23.872c2.785,-11.852 -1.794,-24.966 -9.951,-33.689c-10.575,-11.309 -25.531,-8.423 -38.225,-3.015c-0.605,0.258 -1.146,1.177 -0.215,1.396Z" style="fill-rule:nonzero;"/><path d="M200.382,202.042c-8.511,6.397 -15.392,14.913 -22.13,23.097c-7.086,8.605 -13.555,17.611 -18.932,27.391c3.922,0.233 7.844,0.467 11.767,0.7c1.026,-2.218 1.798,-4.018 1.097,-6.431c-0.642,-2.209 -4.173,-1.538 -5.617,-0.973c3.823,-0.315 4.615,-0.504 2.377,-0.565c-1.274,0.054 -2.421,0.583 -3.587,1.04c-2.74,1.073 -4.675,3.757 -6.036,6.229c-3.929,7.132 8.527,6.992 11.16,1.934c4.824,-9.268 10.686,-17.841 16.925,-26.203c5.938,-7.958 13.592,-15.577 17.325,-24.886c1.027,-2.564 -3.218,-2.183 -4.349,-1.333Z" style="fill-rule:nonzero;"/><path d="M186.825,200.963c-11.042,13.786 -24.905,25.93 -33.385,41.587c-3.553,6.559 6.855,6.792 9.974,3.037c11.66,-14.044 26.615,-24.812 37.958,-39.144c4.33,-5.473 -5.584,-6.419 -8.726,-4.064c-7.534,5.646 -13.461,12.754 -18.955,20.342c-5.018,6.93 -9.413,14.486 -15.423,20.629c-1.838,1.879 -2.775,5.133 0.191,6.504c2.904,1.341 6.952,-0.012 9.074,-2.211c11.592,-12.013 17.94,-29.025 31.622,-39.029c-2.908,-1.355 -5.817,-2.71 -8.726,-4.064c-11.187,13.768 -26.104,23.936 -36.99,38.001c3.641,0.631 7.281,1.262 10.922,1.893c7.671,-15.521 23.745,-26.413 28.95,-43.093c1.258,-4.03 -5.193,-2.003 -6.486,-0.388Z" style="fill-rule:nonzero;"/><path d="M165.491,201.146c-10.133,6.846 -17.4,16.625 -22.925,27.427c3.75,0.223 7.5,0.446 11.249,0.669c2.987,-7.392 7.571,-13.931 11.556,-20.798c3.38,-5.825 -5.293,-6.808 -8.724,-4.064c-5.274,4.219 -10.701,9.707 -12.633,16.371c-1.901,6.557 9.093,4.235 11.197,0.666c2.317,-3.932 4.288,-7.88 7.943,-10.803c-2.908,-1.355 -5.815,-2.71 -8.724,-4.064c-4.421,7.619 -9.267,14.938 -12.444,23.202c-2.398,6.234 10.145,4.634 11.828,-0.51c3.186,-9.725 10.227,-17.706 15.456,-26.335c1.576,-2.6 -2.311,-2.753 -3.779,-1.761Z" style="fill-rule:nonzero;"/><path d="M213.152,212.822c-14.851,8.905 -25.078,23.106 -36.632,35.645c-5.069,5.501 3.258,8.462 7.535,5.052c15.274,-12.179 28.328,-26.228 40.826,-41.177c3.621,-4.331 -1.14,-7.53 -5.491,-5.326c-20.489,10.38 -30.045,31.188 -44.995,47.394c3.32,1.011 6.639,2.021 9.959,3.032c8.503,-14.194 21.856,-24.704 31.52,-38.083c3.67,-5.083 -5.016,-5.992 -7.931,-3.694c-15.999,12.614 -29.854,27.67 -38.854,46.083c-2.691,5.508 7.986,4.361 10.145,1.758c14.446,-17.428 34.439,-33.442 40.327,-56.252c1.706,-6.611 -8.583,-3.669 -10.764,-0.64c-10.501,14.587 -21.119,29.071 -31.182,43.968c3.716,0.222 7.431,0.442 11.146,0.664c4.53,-12.248 16.438,-20.842 25.388,-29.779c-3.316,-0.574 -6.632,-1.148 -9.948,-1.724c-6.291,14.274 -18.364,25.06 -25.576,38.841c-1.271,2.43 -0.648,4.874 2.34,5.392c3.177,0.55 6.308,-1.121 8.213,-3.563c9.894,-12.691 20.273,-24.988 31.116,-36.879c-3.236,-0.985 -6.473,-1.971 -9.709,-2.956c-7.303,13.253 -18.117,24.476 -22.651,39.178c-2.023,6.56 9.258,4.362 11.351,0.676c5.408,-9.524 11.933,-18.517 20.119,-25.847c-3.514,-0.608 -7.028,-1.217 -10.542,-1.826c-3.323,9.329 -9.001,17.57 -12.109,27.005c-2.136,6.483 8.274,4.289 10.732,1.858c2.542,-2.512 5.177,-5.077 7.046,-8.148c-3.956,-0.235 -7.913,-0.471 -11.869,-0.706c3.204,-1.294 3.885,-1.672 2.041,-1.135c-0.859,0.249 -1.701,0.548 -2.523,0.897c-2.294,0.92 -5.553,3.758 -4.322,6.592c1.291,2.975 5.445,2.19 7.768,1.346c4.591,-1.67 7.736,-3.282 9.518,-8.237c2.418,-6.723 -9.664,-4.51 -11.869,-0.706c-1.301,2.242 -3.149,4.014 -4.954,5.852c3.577,0.619 7.155,1.238 10.732,1.858c2.929,-9.459 8.626,-17.675 11.891,-26.995c2.267,-6.474 -8.175,-3.96 -10.542,-1.826c-8.829,7.961 -16.064,17.823 -21.881,28.153c3.783,0.226 7.567,0.45 11.351,0.676c4.188,-13.77 14.477,-24.417 21.349,-36.822c3.579,-6.461 -6.598,-6.354 -9.709,-2.956c-11.512,12.572 -22.527,25.58 -32.884,39.121c3.518,0.609 7.035,1.219 10.553,1.828c7.456,-14.605 19.608,-26.161 26.424,-41.159c0.937,-2.062 -0.991,-3.799 -2.839,-4.118c-2.518,-0.437 -5.313,0.635 -7.109,2.395c-10.525,10.309 -23.477,19.852 -28.612,34.221c-2.321,6.496 8.997,3.914 11.146,0.664c9.878,-14.943 20.111,-29.671 30.818,-44.032c-3.588,-0.213 -7.176,-0.427 -10.764,-0.64c-5.922,21.225 -25.15,36.337 -38.584,52.848c3.686,0.22 7.37,0.438 11.056,0.658c7.486,-15.718 19.637,-29.11 33.146,-39.917c-2.644,-1.231 -5.286,-2.463 -7.931,-3.694c-9.926,13.439 -23.979,23.33 -32.48,37.917c-3.813,6.542 6.807,6.524 9.959,3.032c6.672,-7.395 12.211,-15.676 18.1,-23.684c5.746,-7.813 12.193,-16.239 20.905,-20.923c-1.831,-1.775 -3.661,-3.551 -5.491,-5.326c-12.509,14.16 -25.766,27.839 -40.4,39.814c2.92,1.354 5.842,2.707 8.762,4.061c10.86,-12.109 20.471,-25.461 32.049,-36.905c3.12,-3.094 -1.835,-4.213 -4.184,-2.804Z" style="fill-rule:nonzero;"/><path d="M298.235,202.035c-7.561,9.373 -16.936,17.739 -22.459,28.574c3.602,0.214 7.205,0.429 10.807,0.644c4.32,-9.928 12.439,-17.691 16.12,-28.006c0.767,-2.148 -0.861,-3.84 -2.89,-4.191c-3.216,-0.557 -6.174,1.152 -8.146,3.535c-4.979,6.016 -10.103,11.911 -15.136,17.882c3.219,0.979 6.438,1.96 9.657,2.94c2.32,-3.872 3.503,-8.254 6.071,-11.988c1.223,-1.776 0.968,-4.131 -1.114,-5.093c-2.876,-1.329 -6.515,0.097 -8.673,2.113c-4.046,3.778 -8.455,6.8 -12.006,11.11c3.623,0.628 7.244,1.255 10.867,1.883c1.805,-3.648 3.341,-7.788 6.111,-10.836c5.325,-5.858 -3.285,-8.393 -7.817,-5.239c-2.744,1.908 -5.281,4.08 -8.053,5.949c-3.323,2.24 -4.479,6.724 0.215,7.928c4.178,1.071 14.409,-2.104 12.679,-8.001c-0.668,-2.277 -4.006,-2.049 -5.715,-1.781c-0.318,0.049 -0.637,0.099 -0.955,0.148c-2.297,0.699 -2.227,0.748 0.212,0.147c0.071,2.643 0.144,5.285 0.215,7.928c2.692,-1.964 5.226,-4.126 7.947,-6.051c-2.605,-1.746 -5.212,-3.493 -7.817,-5.239c-3.814,4.268 -6.013,9.262 -8.479,14.365c-1.044,2.16 1.091,4.021 3,4.352c3.313,0.573 6.441,-1.181 8.457,-3.67c2.8,-3.46 6.787,-5.84 9.994,-8.89c-3.262,-0.993 -6.524,-1.986 -9.787,-2.979c-2.541,3.771 -3.659,8.135 -5.929,12.012c-1.407,2.403 -0.548,4.903 2.345,5.404c3.25,0.563 6.239,-1.164 8.231,-3.572c4.97,-6.007 10.013,-11.951 15.036,-17.912c-3.375,-0.585 -6.751,-1.17 -10.126,-1.754c-3.737,10.137 -12.074,17.863 -15.88,27.994c-1.048,2.789 1.905,4.287 4.223,4.189c3.046,-0.129 5.894,-1.897 7.141,-4.678c4.588,-10.224 14.464,-17.861 17.274,-28.883c0.905,-3.543 -4.458,-1.776 -5.62,-0.334Z" style="fill-rule:nonzero;"/><path d="M327.453,197.362c-15.978,15.17 -29.262,33.593 -40.969,52.196c3.611,0.626 7.223,1.251 10.834,1.877c9.405,-16.884 24.194,-29.859 34.611,-46.067c3.81,-5.928 -6.286,-5.857 -9.183,-2.796c-13.29,14.037 -24.838,29.442 -36.288,44.982c-1.751,2.376 -0.327,5.087 2.413,5.562c3.345,0.579 6.421,-1.198 8.472,-3.677c13.054,-15.773 29.832,-28.433 37.254,-48.188c2.021,-5.38 -6.442,-4.114 -8.753,-2.683c-8.794,5.447 -15.605,14.055 -21.91,22.082c-6.875,8.754 -13.163,18.121 -18.49,27.9c-1.363,2.502 -0.634,5.048 2.42,5.576c3.284,0.569 6.526,-1.158 8.494,-3.686c12.93,-16.61 30.574,-28.923 41.699,-47.053c3.992,-6.506 -7.491,-5.969 -10.313,-1.785c-12.089,17.924 -27.005,33.82 -37.304,52.947c-1.35,2.507 -0.646,5.048 2.421,5.579c3.221,0.558 6.615,-1.122 8.499,-3.688c12.909,-17.59 29.04,-32.553 40.794,-51.035c-3.503,-0.607 -7.005,-1.213 -10.508,-1.82c-4.882,9.591 -12.269,18.236 -18.74,26.771c-5.133,6.768 -10.328,13.489 -15.566,20.176c-1.875,2.393 -0.266,5.209 2.466,5.682c3.354,0.582 6.642,-1.185 8.655,-3.756c4.99,-6.369 9.873,-12.826 14.692,-19.324c6.592,-8.888 13.883,-17.871 19.001,-27.729c3.618,-6.97 -7.718,-6.133 -10.508,-1.82c-11.913,18.417 -28.33,33.266 -41.206,50.965c3.64,0.63 7.28,1.261 10.92,1.891c10.146,-19.045 24.71,-35.207 36.696,-53.053c-3.438,-0.595 -6.875,-1.19 -10.313,-1.785c-11.41,17.861 -29.349,30.283 -42.301,46.947c3.638,0.631 7.276,1.26 10.914,1.891c4.656,-8.563 10.143,-16.662 15.815,-24.577c5.452,-7.604 11.614,-16.527 19.784,-21.44c-2.918,-0.895 -5.835,-1.788 -8.753,-2.683c-7.293,18.464 -24.46,30.832 -36.746,45.813c3.628,0.628 7.257,1.257 10.885,1.885c10.739,-14.712 21.538,-29.445 33.712,-43.018c-3.061,-0.932 -6.121,-1.864 -9.183,-2.796c-10.401,16.4 -26.199,28.638 -35.389,45.933c-3.762,7.08 8.053,6.494 10.834,1.877c10.914,-18.117 24.764,-34.284 35.546,-52.425c2.173,-3.65 -3.668,-3.3 -5.408,-1.648Z" style="fill-rule:nonzero;"/><path d="M346.415,216.376c-6.539,2.646 -11.247,10.316 -15.022,15.932c-4.608,6.856 -8.583,14.163 -12.784,21.271c3.721,0.222 7.44,0.443 11.161,0.664c5.014,-10.382 12.381,-19.558 21.325,-26.804c-3.273,-0.567 -6.547,-1.135 -9.82,-1.701c-4.195,9.09 -12.073,15.951 -16.467,25.02c-2.627,5.422 7.102,4.555 9.364,2.87c4.247,-3.161 8.496,-6.341 12.334,-9.998c-3.069,-1.423 -6.14,-2.845 -9.209,-4.268c-4.057,4.101 -8.786,7.917 -12.576,12.196c-4.303,4.86 1.409,7.081 5.767,5.594c6.637,-2.266 11.293,-8.658 16.019,-13.522c1.819,-1.872 2.765,-5.099 -0.19,-6.464c-2.952,-1.365 -6.823,0.066 -9.019,2.196c-3.018,2.929 -6.319,5.466 -9.666,8.002c3.122,0.956 6.243,1.913 9.364,2.87c4.111,-8.934 11.234,-16.083 15.533,-24.98c2.392,-4.949 -6.541,-4.305 -8.646,-2.65c-10.971,8.622 -20.012,19.43 -25.849,32.146c-2.689,5.859 9.041,4.412 11.161,0.664c3.719,-6.575 6.989,-13.396 10.488,-20.089c1.726,-3.303 3.609,-6.526 5.285,-9.852c1.285,-2.55 3.681,-5.475 3.707,-8.393c0.01,-1.142 -1.59,-0.974 -2.26,-0.704Z" style="fill-rule:nonzero;"/><path d="M242.941,54.911c-7.679,-2.264 -15.08,4.281 -15.493,11.887c-0.146,2.688 0.776,5.665 2.996,7.33c2.705,2.029 5.824,2.099 9.041,1.597c5.706,-0.89 11.111,-5.324 13.332,-10.568c0.895,-2.112 0.849,-4.867 -0.344,-6.851c-0.689,-1.148 -1.495,-2.07 -2.593,-2.819c-0.834,-0.57 -1.62,-1.105 -2.572,-1.439c-0.588,-0.215 -1.188,-0.384 -1.799,-0.509c1.329,0.297 -3.072,-0.138 -1.722,-0.041c-2.576,-0.184 -5.068,0.485 -6.96,2.344c-1.883,1.85 -2.239,4.364 0.173,5.838c-1.177,-0.719 2.114,1.543 1.04,0.863c0.37,0.234 0.741,0.438 1.135,0.629c0.191,0.094 1.322,0.816 0.281,0.102c0.37,0.254 0.693,0.565 1.002,0.888c0.729,0.761 -0.503,-0.882 0,-0.019c0.139,0.238 0.232,0.5 0.323,0.758c0.32,0.905 -0.139,-1.066 -0.049,-0.12c0.036,0.379 -0.16,1.572 0.103,0.107c-0.088,0.491 -0.876,2.136 -0.091,0.622c-0.136,0.262 -0.3,0.508 -0.462,0.754c-0.837,1.268 0.662,-0.694 -0.011,0.043c-0.209,0.23 -0.437,0.443 -0.662,0.657c-0.874,0.825 1.243,-0.94 0.276,-0.212c-0.251,0.189 -0.517,0.356 -0.782,0.523c-0.941,0.593 1.64,-0.772 0.116,-0.104c-1.109,0.487 1.606,-0.471 0.452,-0.137c-0.429,0.124 -1.528,0.255 0.379,0.006c-0.285,0.037 -0.572,0.038 -0.858,0.038c1.675,0.001 0.478,0.021 0,-0.088c1.291,0.296 0.497,0.132 0.14,-0.042c-0.883,-0.428 0.742,0.602 -0.043,-0.042c-0.244,-0.199 -0.451,-0.44 -0.656,-0.677c0.395,0.596 0.264,0.416 -0.394,-0.541c0.243,0.361 0.237,0.336 -0.018,-0.074c-2.386,-4.023 -0.118,-6.516 3.697,-7.578c1.421,-0.396 3.305,-2.453 1.023,-3.125Z" style="fill-rule:nonzero;"/><path d="M330.424,332.812c-2.717,2.589 -2.597,5.286 -2.684,8.917c-0.116,4.926 0.037,9.884 0.233,14.808c0.38,9.532 -0.63,19.214 -0.786,28.769c-0.074,4.563 -0.418,9.131 -0.854,13.671c-0.225,2.346 -0.493,4.688 -0.99,6.994c-0.433,2.006 -1.429,3.811 -0.582,5.886c1.461,3.582 6.668,2.683 9.387,1.626c6.933,-2.694 7.342,-9.767 7.901,-16.122c0.508,-5.776 0.63,-11.599 0.534,-17.395c-0.173,-10.488 -0.292,-20.842 -2.602,-31.102c-0.607,-2.707 -3.145,-22.162 -9.557,-16.052Z" style="fill-rule:nonzero;"/><path d="M180.076,353.596c-4.254,2.154 -5.146,7.784 -5.8,12.135c-0.92,6.137 -1.411,12.294 -1.576,18.496c-0.283,10.705 0.014,22.247 3.511,32.485c0.612,1.792 3.128,2.39 4.761,2.26c2.543,-0.202 4.631,-1.024 6.481,-2.813c1.211,-1.17 2.472,-3.29 1.601,-5.021c-4.003,-7.95 -4.093,-18.35 -4.698,-27.037c-0.67,-9.612 -0.305,-19.166 0.153,-28.77c0.038,-0.786 -0.54,-1.365 -1.177,-1.698c-1.005,-0.525 -2.223,-0.56 -3.256,-0.037Z" style="fill-rule:nonzero;"/><path d="M264.908,518.625c-0.708,-1.906 -4.688,-1.792 -6.287,-1.439c-3.023,0.665 -5.539,2.077 -7.924,4.008c-3.461,2.801 -5.027,7.775 -4.593,12.104c0.709,7.066 7.2,9.047 13.387,7.705c6.229,-1.352 12.267,-5.761 14.943,-11.583c2.771,-6.025 -1.666,-11.245 -7.237,-13.187c-2.201,-0.768 -4.497,-1.026 -6.816,-0.8c-2.044,0.199 -3.986,0.912 -5.477,2.377c-1.126,1.105 -2.563,3.827 -0.748,5.104c0.421,0.3 0.847,0.589 1.28,0.869c-1.32,-0.61 2.273,1.169 1.109,0.684c0.654,0.272 1.293,0.573 1.955,0.826c0.594,0.227 1.173,0.499 1.745,0.773c0.345,0.166 1.875,1.202 0.615,0.301c0.38,0.272 0.723,0.591 1.049,0.925c0.89,0.912 -0.43,-0.851 0.174,0.192c0.188,0.324 0.315,0.678 0.426,1.033c0.254,0.822 -0.19,-1.179 -0.088,-0.331c0.026,0.214 0.024,0.429 0.022,0.643c-0.008,1.2 0.299,-1.13 0.015,0.055c-0.088,0.366 -0.226,0.72 -0.37,1.067c-0.199,0.475 0.705,-1.221 -0.068,0.022c-0.219,0.35 -0.469,0.678 -0.725,1.001c1.837,-2.316 -2.532,2.001 -0.002,-0.013c-0.347,0.275 -0.712,0.526 -1.08,0.771c-0.221,0.146 -0.449,0.28 -0.677,0.415c-0.978,0.578 1.611,-0.839 0.598,-0.334c-0.386,0.192 -0.784,0.356 -1.187,0.512c-0.732,0.283 1.894,-0.523 0.199,-0.105c-1.583,0.39 0.806,-0.057 0.162,0.003c-0.525,0.048 -1.938,-0.112 0.092,0.072c-0.471,-0.043 -1.727,-0.456 -0.012,0.102c-0.337,-0.11 -0.657,-0.264 -0.967,-0.435c1.283,0.709 0.306,0.199 -0.044,-0.147c-0.212,-0.208 -0.688,-0.88 0.06,0.19c-0.141,-0.202 -0.255,-0.422 -0.369,-0.639c-0.21,-0.399 -0.354,-0.831 -0.484,-1.261c-0.11,-0.435 -0.104,-0.376 0.018,0.175c-0.065,-0.324 -0.102,-0.654 -0.138,-0.982c-0.151,-1.357 -0.204,-2.801 0.174,-4.109c0.239,-0.828 0.337,-0.934 0.792,-1.642c-0.014,0.021 0.615,-0.562 0.896,-0.743c1.318,-0.849 3.686,-1.331 5.081,-2.61c0.426,-0.391 0.713,-0.997 0.501,-1.569Z" style="fill-rule:nonzero;"/></g></svg>