<?xml version="1.0" encoding="UTF-8"?>
<svg width="521px" height="548px" viewBox="0 0 521 548" version="1.1" xmlns="http://www.w3.org/2000/svg" xmlns:xlink="http://www.w3.org/1999/xlink">
    <!-- Generator: Sketch 41 (35326) - http://www.bohemiancoding.com/sketch -->
    <title>policeman</title>
    <desc>Created with Sketch.</desc>
    <defs></defs>
    <g id="Page-1" stroke="none" stroke-width="1" fill="none" fill-rule="evenodd">
        <g id="Layer_1" transform="translate(-1656.000000, -6147.000000)" fill="#000000">
            <g id="Layer_1_3_">
                <g id="policeman" transform="translate(1656.000000, 6147.000000)">
                    <path d="M104.87,74.37 C109.811,72.254 114.372,69.165 119.224,66.813 C124.786,64.116 130.532,61.809 136.28,59.544 C147.374,55.174 158.608,51.16 169.478,46.241 C181.374,40.857 193.105,35.095 204.916,29.525 C216.669,23.982 228.724,17.424 241.194,13.683 C245.14,12.498 248.928,10.145 249.452,5.736 C249.513,5.465 249.517,5.193 249.467,4.92 C245.993,7.674 242.521,10.428 239.048,13.182 C239.078,13.18 239.11,13.178 239.14,13.176 C243.142,12.92 247.94,10.607 249.286,6.53 C250.577,2.622 246.736,0.329 243.287,0.579 C240.127,0.808 237.695,1.686 235.009,3.354 C232.422,4.961 230.444,8.228 232.641,10.913 C233.831,12.366 235.318,12.917 237.162,13.058 C241.437,13.386 246.033,11.895 248.496,8.14 C250.452,5.157 249.263,0.966 245.267,0.699 C245.239,0.697 245.209,0.695 245.181,0.693 C240.06,0.35 233.283,2.919 232.781,8.836 C232.73,9.107 232.734,9.376 232.796,9.645 C234.813,7.242 236.828,4.838 238.844,2.434 C227.163,8.753 214.619,13.705 202.599,19.364 C190.203,25.199 177.868,31.165 165.441,36.936 C154.111,42.198 142.263,46.268 130.674,50.906 C119.947,55.198 106.765,59.871 98.327,68.022 C93.079,73.087 100.144,76.392 104.87,74.37 L104.87,74.37 Z" id="Shape"></path>
                    <path d="M241.8,5.002 C259.878,20.283 284.797,25.08 305,37.053 C315.975,43.557 327.369,49.323 338.806,54.963 C344.625,57.834 350.424,60.742 356.166,63.767 C361.596,66.627 367.682,69.353 372.19,73.563 C371.796,72.658 371.404,71.751 371.01,70.845 C370.983,71.126 370.954,71.408 370.927,71.689 C375.008,69.008 379.089,66.329 383.171,63.648 C378.892,62.803 374.491,63.499 371.405,66.896 C372.87,66.104 374.336,65.313 375.801,64.522 C375.25,64.646 374.699,64.771 374.149,64.895 C372.135,65.35 368.042,67.856 369.419,70.539 C369.435,71.248 369.551,71.942 369.768,72.624 C370.461,74.222 371.988,74.749 373.464,75.35 C378.924,77.569 388.826,73.169 387.087,66.32 C386.554,64.221 384.939,63.538 383.058,62.799 C379.857,61.542 376.912,59.648 373.876,58.024 C367.642,54.69 361.255,51.638 354.858,48.629 C342.512,42.823 329.974,37.434 317.755,31.359 C294.658,19.875 270.025,11.657 246.466,1.232 C244.665,0.433 239.437,3.004 241.8,5.002 L241.8,5.002 Z" id="Shape"></path>
                    <path d="M72,117.794 C80.169,111.929 86.482,102.984 92.807,95.256 C99.448,87.144 105.909,78.896 112.297,70.584 C113.975,68.4 113.424,65.302 110.885,64.128 C107.438,62.535 102.368,64.086 99.891,66.807 C99.511,67.225 99.13,67.643 98.749,68.06 C96.653,70.362 95.356,74.159 98.978,75.832 C102.601,77.506 107.088,75.686 109.822,73.19 C110.254,72.796 110.685,72.402 111.117,72.007 C106.981,70.748 102.846,69.489 98.711,68.23 C93.137,76.121 87.518,83.978 81.698,91.689 C78.732,95.62 75.636,99.462 72.484,103.244 C69.569,106.74 66.118,110.03 63.85,113.998 C60.667,119.57 68.752,120.126 72,117.794 L72,117.794 Z" id="Shape"></path>
                    <path d="M62.469,115.275 C60.138,119.858 63.541,124.379 66.209,128.122 C69.838,133.213 74.593,137.439 79.239,141.582 C83.729,145.585 88.285,149.507 92.658,153.64 C96.773,157.531 101.89,162.144 103.688,167.676 L118.688,161.166 C117.538,159.274 116.731,158.233 114.624,157.412 C109.799,155.534 100.939,159.296 102.534,165.428 C102.898,166.829 103.664,167.715 104.524,168.868 C108.644,174.394 123.448,165.653 117.852,159.973 C113.888,155.949 110.452,151.573 106.191,147.797 C101.623,143.748 96.679,140.127 91.845,136.404 C87.105,132.754 82.468,128.955 78.211,124.743 C74.694,121.264 71.153,114.897 66.253,113.631 C65.03,113.315 63.051,114.128 62.469,115.275 L62.469,115.275 Z" id="Shape"></path>
                    <path d="M380.6,71.459 C382.176,74.798 385.932,77.906 388.403,80.652 C392.2,84.873 395.716,89.293 399.102,93.849 C402.681,98.664 406.087,103.606 409.531,108.517 C412.55,112.824 416.428,117.143 418.77,121.849 C418.973,120.529 419.178,119.21 419.381,117.89 C419.236,118.138 419.086,118.383 418.93,118.623 C422.832,117.308 426.736,115.993 430.638,114.678 C426.889,112.55 422.274,113.017 419.202,116.2 C417.99,117.457 416.569,119.622 417.527,121.453 C417.775,121.927 418.023,122.401 418.271,122.876 C421.937,129.879 437.203,121.516 431.852,115.491 C424.471,107.179 417.785,98.343 410.869,89.6 C404.825,81.96 396.284,69.047 385.873,67.237 C383.958,66.906 379.346,68.801 380.6,71.459 L380.6,71.459 Z" id="Shape"></path>
                    <path d="M379.522,167.901 C384.702,165.524 388.641,160.385 392.633,156.429 C397.11,151.994 402.018,147.953 407,144.105 C412.004,140.241 417.189,136.614 422.398,133.033 C427,129.87 433.628,127.199 435.835,121.851 C438.46,115.487 428.881,115.856 425.656,117.022 C422.755,118.071 420.244,119.502 418.051,121.678 C414.351,125.348 416.669,129.11 421.363,129.31 C424.484,129.444 427.243,128.393 430.145,127.364 C426.771,126.78 423.398,126.196 420.024,125.611 C420.126,125.841 420.251,126.057 420.4,126.259 C421.024,124.305 421.647,122.35 422.27,120.395 C418.641,123.805 413.806,126.366 409.741,129.25 C404.424,133.021 399.215,136.948 394.174,141.082 C389.304,145.077 384.701,149.293 380.461,153.957 C377.699,156.995 372.79,162.577 374.301,166.996 C374.973,168.967 378.133,168.538 379.522,167.901 L379.522,167.901 Z" id="Shape"></path>
                    <path d="M119.343,160.852 C121.146,152.164 129.504,144.797 135.923,139.327 C144.368,132.128 152.587,126.685 162.787,122.134 C187.683,111.023 215.722,105.777 242.805,103.791 C291.639,100.211 341.994,120.524 373.192,158.562 C377.309,163.582 392.129,156.318 388.327,150.333 C386.698,147.769 384.913,146.835 382.271,145.46 C377.083,142.759 366.102,148.915 370.446,155.012 C371.318,156.237 372.303,157.353 373.192,158.563 C377.94,155.395 382.686,152.227 387.434,149.059 C350.983,109.986 300.173,88.732 246.598,92.27 C217.373,94.199 187.427,100.731 160.662,112.717 C149.244,117.83 139.238,123.968 130.125,132.515 C123.408,138.814 115.064,147.944 112.486,157.007 C112.038,158.583 111.834,160.267 111.882,161.9 C111.992,165.613 118.788,163.531 119.343,160.852 L119.343,160.852 Z" id="Shape"></path>
                    <path d="M108.807,161.677 C108.036,164.974 111.909,168.746 113.718,171.193 C115.992,174.267 117.557,179.428 121.656,180.217 C125.143,180.887 131.169,178.228 131.056,174.043 C130.965,170.654 124.882,167.986 122.309,166.271 C118.974,164.047 115.556,160.127 111.306,160.04 C110.407,160.02 109.031,160.722 108.807,161.677 L108.807,161.677 Z" id="Shape"></path>
                    <path d="M129.026,177.318 C136.379,171.618 143.543,165.904 151.684,161.33 C159.914,156.706 169.016,153.381 178.045,150.713 C197.405,144.99 217.662,142.943 237.781,142.552 C281.358,141.702 327.943,150.111 363.914,175.952 C367.001,178.17 371.052,177.444 374.092,175.417 C376.025,174.128 379.722,169.671 376.571,167.507 C373.006,165.058 370.027,164.882 365.833,165.419 C363.427,165.728 358.028,167.983 359.627,171.434 C360.626,173.59 362.139,174.48 363.915,175.953 C367.733,172.869 371.551,169.786 375.368,166.702 C335.409,140.026 287.278,130.988 239.843,132.14 C218.073,132.669 196.063,135.883 175.359,142.73 C157.275,148.711 135.359,158.608 124.749,175.326 C122.946,178.164 127.393,178.584 129.026,177.318 L129.026,177.318 Z" id="Shape"></path>
                    <path d="M375.057,164.044 C373.572,163.738 372.188,164.107 370.767,164.459 C369.262,164.833 367.776,165.672 366.909,166.994 C366.551,167.514 366.362,168.087 366.346,168.715 C366.357,169.519 366.912,170.449 367.72,170.697 C368.005,170.784 368.291,170.872 368.577,170.959 C368.998,171.089 369.501,171.291 369.887,171.357 C370.855,171.525 371.773,171.355 372.723,171.187 C374.628,170.851 376.79,169.359 377.416,167.464 C377.634,166.847 377.622,166.235 377.382,165.628 C376.967,164.673 376.014,164.241 375.057,164.044 L375.057,164.044 Z" id="Shape"></path>
                    <path d="M136.726,166.025 C146.946,183.186 168.292,193.506 186.277,200.538 C206.871,208.589 229.233,212.219 251.298,211.96 C272.81,211.707 296.492,207.463 315.624,197.212 C324.358,192.531 332.569,187.142 340.226,180.844 C346.668,175.544 353.846,168.225 354.264,159.397 C354.621,151.884 339.441,156.244 339.119,162.95 C338.823,169.103 331.066,174.48 326.674,177.8 C320.334,182.594 313.236,186.986 306.696,189.872 C289.099,197.639 269.791,200.611 250.656,200.484 C231.207,200.355 211.824,196.373 193.608,189.668 C184.638,186.365 176.084,182.136 167.787,177.409 C159.317,172.583 151.532,166.673 143.085,161.81 C141.079,160.655 135.056,163.22 136.726,166.025 L136.726,166.025 Z" id="Shape"></path>
                    <path d="M210.417,42.427 C214.351,44.477 216.98,46.038 216.757,50.83 C216.58,54.664 215.051,58.226 212.948,61.35 C208.806,67.5 209.755,75.236 215.29,80.25 C220.164,84.666 226.977,87.66 233.109,89.822 C235.736,90.748 238.172,91.385 240.955,90.933 C243.075,90.589 246.562,88.268 245.535,85.71 C244.844,83.989 242.213,84.32 240.907,84.908 C243.222,83.865 245.834,85.157 242.713,84.218 C241.904,83.974 241.025,83.888 240.203,83.677 C237.359,82.947 234.601,81.638 231.95,80.406 C226.197,77.734 219.595,74.436 218.765,67.413 C218.43,64.572 220.741,61.669 221.88,59.212 C223.144,56.487 223.497,53.164 223.615,50.193 C223.876,43.664 219.009,40.031 212.919,39.409 C211.62,39.277 208.187,41.264 210.417,42.427 L210.417,42.427 Z" id="Shape"></path>
                    <path d="M273.276,37.084 C267.483,37.316 262.52,41.637 259.715,46.449 C256.785,51.477 257.986,57.314 260.118,62.336 C262.632,68.255 260.255,73.066 255.586,77.149 C251.412,80.798 246.091,82.202 241.695,85.296 C239.043,87.163 238.775,91.251 242.914,90.938 C247.978,90.556 253.2,86.734 257.275,83.972 C262.121,80.689 266.611,76.512 268.863,70.986 C270.975,65.799 269.71,61.903 267.557,57.031 C266.318,54.227 265.809,51.249 266.338,48.203 C267.063,44.029 271.274,41.728 274.191,39.197 C275.247,38.282 274.56,37.034 273.276,37.084 L273.276,37.084 Z" id="Shape"></path>
                    <path d="M212.836,41.801 C213.655,40.98 214.904,39.404 216.006,39.093 C214.451,39.531 219.179,40.746 219.895,40.901 C223.397,41.652 227.317,40.651 230.45,39.109 C236.157,36.3 241.058,30.208 243.475,24.38 C245.446,19.63 236.833,21.647 235.221,23.889 C230.727,30.141 228.547,36.92 219.383,33.537 C217.477,32.834 215.49,33.545 214.024,34.844 C212.043,36.596 209.607,38.527 208.711,41.086 C207.844,43.562 211.908,42.733 212.836,41.801 L212.836,41.801 Z" id="Shape"></path>
                    <path d="M241.848,24.447 C238.69,30.352 240.521,37.179 246.361,40.464 C253.233,44.33 261.987,39.777 267.104,35.18 C265.294,35.79 263.485,36.4 261.674,37.009 C264.178,37.601 265.367,38.31 266.79,40.449 C268.236,38.723 269.683,36.999 271.129,35.273 C268.624,35.875 265.492,37.043 265.256,39.986 C265.217,40.46 265.629,41.03 266.076,41.171 C267.027,41.469 267.98,41.713 268.954,41.925 C271.416,42.462 277.015,39.921 275.546,36.651 C274.193,33.641 271.891,31.784 268.697,30.953 C263.775,29.671 262.171,31.354 258.359,34.106 C255.421,36.227 251.852,35.602 249.259,33.324 C246.42,30.828 246.41,27.295 245.437,23.928 C245.011,22.449 242.311,23.58 241.848,24.447 L241.848,24.447 Z" id="Shape"></path>
                    <path d="M104.333,69.25 C104.402,78.453 115.324,85.125 122.271,89.125 C130.082,93.623 140.392,98.659 149.574,98.82 C150.863,98.842 153.585,97.139 152.206,95.658 C149.978,93.264 146.498,91.998 143.563,90.689 C139.23,88.757 134.95,86.605 130.736,84.424 C126.327,82.143 122.139,79.448 118.316,76.279 C114.961,73.498 112.578,70.016 109.515,67 C108.008,65.516 104.318,67.171 104.333,69.25 L104.333,69.25 Z" id="Shape"></path>
                    <path d="M338.921,98.536 C346.942,99.698 355.729,95.686 362.516,91.817 C371.973,86.428 380.165,80.786 387.462,72.614 C385.557,73.256 383.652,73.897 381.747,74.54 C381.9,74.553 382.053,74.566 382.206,74.58 C381.6,73.182 380.992,71.783 380.386,70.385 C380.793,69.915 380.756,69.959 380.274,70.516 C378.632,72.415 379.087,75.357 382.196,74.945 C384.395,74.653 386.19,74.232 387.884,72.669 C389.802,70.897 389.503,68.168 386.777,67.613 C386.634,67.584 386.492,67.554 386.348,67.525 C384.472,67.144 381.894,68 380.633,69.451 C375.595,75.249 369.925,80.61 364.239,85.766 C357.374,91.993 348.09,94.822 339.376,97.148 C338.827,97.293 337.834,98.377 338.921,98.536 L338.921,98.536 Z" id="Shape"></path>
                    <path d="M64.534,117.836 C70.13,125.163 82.619,127.181 91.125,128.479 C100.813,129.957 112.171,130.792 121.765,128.553 C123.177,128.224 124.931,126.152 122.753,125.532 C114.436,123.162 104.884,124.255 96.302,123.223 C91.297,122.621 86.329,121.688 81.515,120.179 C76.927,118.742 72.708,116.36 68.136,114.927 C66.629,114.455 63.016,115.849 64.534,117.836 L64.534,117.836 Z" id="Shape"></path>
                    <path d="M373.615,128.927 C381.82,129.794 389.462,128.397 397.544,126.86 C401.859,126.04 406.146,125.101 410.495,124.465 C413.701,123.996 416.796,124.76 419.871,124.418 C421.855,124.198 426.548,122.195 425.126,119.326 C422.3,113.629 407.9,118.401 403.597,119.493 C398.647,120.749 393.764,122.242 388.834,123.574 C384.351,124.784 379.345,126.739 374.656,126.806 C373.622,126.823 371.911,128.748 373.615,128.927 L373.615,128.927 Z" id="Shape"></path>
                    <path d="M129.342,175.522 C124.446,189.983 127.855,206.495 129.199,221.277 C130.393,234.402 130.354,247.652 131.283,260.803 C133.083,286.28 137.637,313.278 151.705,335.085 C163.839,353.896 183.986,366.15 204.668,373.596 C225.713,381.171 250.731,385.582 272.752,380.057 C274.474,379.624 276.12,378.936 277.754,378.255 C280.293,377.197 283.663,371.897 278.805,371.461 C268.786,370.565 258.706,371.596 248.667,370.755 C237.623,369.83 226.606,367.615 216.08,364.154 C196.127,357.595 176.158,346.05 164.184,328.318 C149.94,307.224 145.911,281.171 143.064,256.435 C141.627,243.947 140.994,231.361 139.327,218.9 C138.326,211.421 136.787,204.041 135.5,196.611 C134.252,189.408 133.624,182.291 132.687,175.052 C132.465,173.331 129.729,174.383 129.342,175.522 L129.342,175.522 Z" id="Shape"></path>
                    <path d="M285.757,374.408 C292.983,375.511 299.911,371.007 305.758,367.335 C313.706,362.342 321.052,356.306 327.868,349.876 C341.312,337.191 351.611,322.515 358.223,305.216 C374.425,262.829 370.892,215.193 371.288,170.773 C371.314,167.843 368.038,166.708 365.622,166.842 C361.129,167.093 357.631,168.551 353.817,170.847 C351.51,172.236 350.004,176.798 353.987,177.09 C356.665,177.287 359.13,178.123 361.868,178.242 C359.979,176.931 358.091,175.621 356.202,174.311 C356.672,216.215 360.502,259.192 348.099,299.881 C343.082,316.341 335.055,330.881 323.409,343.529 C317.705,349.724 311.511,355.765 304.791,360.85 C298.828,365.363 292.178,368.6 285.698,372.263 C284.814,372.765 284.465,374.21 285.757,374.408 L285.757,374.408 Z" id="Shape"></path>
                    <path d="M125.862,188.583 C121.918,188.721 119.094,185.778 115.653,184.155 C109.03,181.031 101.773,184.27 96.722,188.703 C87.234,197.027 86.905,211.148 89.311,222.529 C91.646,233.568 97.079,245.251 106.235,252.261 C110.59,255.595 115.606,257.298 121.097,257.193 C127.375,257.073 135.616,253.764 138.219,247.775 C140.057,243.543 134.18,242.444 131.431,243.065 C129.128,243.586 126.703,245.071 125.538,245.607 C126.794,245.029 124.613,245.827 124.451,245.859 C125.264,245.695 123.905,245.704 123.619,245.66 C120.449,245.171 117.443,242.43 115.16,240.041 C108.794,233.383 104.892,223.519 103.28,214.567 C102.508,210.278 102.197,205.604 103.043,201.303 C103.385,199.57 103.923,197.79 104.781,196.243 C105.359,195.202 106.089,194.283 106.897,193.417 C107.705,192.551 106.603,193.411 106.115,193.369 C109.931,193.699 113.262,196.274 117.105,196.776 C120.923,197.276 127.543,195.554 128.373,191.072 C128.684,189.389 127.486,188.526 125.862,188.583 L125.862,188.583 Z" id="Shape"></path>
                    <path d="M371.19,187.508 C370.503,194.428 382.933,188.76 385.466,188.536 C392.144,187.948 393.981,201.949 394.604,206.248 C395.66,213.54 395.593,221.528 391.864,228.094 C387.766,235.307 379.001,237.233 371.438,238.366 C368.194,238.852 363.854,242 363.9,245.62 C363.951,249.639 368.744,249.731 371.567,249.308 C382.669,247.644 394.077,243.572 401.634,234.893 C408.556,226.944 410.434,216.76 409.639,206.526 C409.019,198.531 406.432,185.158 398.38,181.035 C393.164,178.363 387.696,178.734 382.477,181.221 C378.132,183.289 375.827,184.682 372.272,186.217 C371.723,186.455 371.25,186.892 371.19,187.508 L371.19,187.508 Z" id="Shape"></path>
                    <path d="M124.698,214.155 C124.835,213.992 124.853,213.818 124.755,213.634 C124.502,213.099 124.103,212.711 123.56,212.473 C123.084,212.157 122.512,212.041 121.959,211.918 C121.362,211.786 120.607,211.76 120.042,211.755 C119.465,211.75 118.626,211.549 120.374,211.853 C116.731,211.221 112.871,213.623 110.783,216.439 C109.154,218.637 109.544,221.157 111.089,223.204 C111.785,224.126 112.689,224.678 113.652,225.317 C114.117,225.626 114.625,225.78 115.152,225.947 C116.075,226.341 117.038,226.508 118.043,226.447 C119.949,226.161 120.277,226.124 119.026,226.333 C121.073,226.345 123.291,225.271 124.728,223.859 C125.667,222.935 127.058,220.838 126.135,219.443 C126.24,220.392 126.173,220.178 125.933,218.799 C125.717,218.272 125.381,217.862 124.923,217.57 C124.279,217.088 123.622,216.631 122.935,216.207 C122.089,215.686 123.802,216.897 122.742,216.029 C122.395,215.746 121.783,214.824 122.668,216.153 C122.534,215.953 122.438,215.714 122.333,215.497 C122.184,215.068 122.228,215.307 122.465,216.211 C122.46,215.756 122.406,216.011 122.303,216.975 C122.449,216.514 122.313,216.766 121.897,217.731 C122.182,217.295 121.983,217.525 121.299,218.418 C121.697,218.032 121.453,218.22 120.568,218.981 C121.412,218.326 122.118,217.805 122.673,216.87 C122.014,217.516 121.354,218.162 120.694,218.808 C121.056,218.528 121.81,218.151 120.175,219.023 C120.501,218.848 120.838,218.698 121.181,218.558 C121.744,218.327 122.261,217.989 122.795,217.696 C123.201,217.425 123.57,217.112 123.901,216.758 C124.581,215.923 124.671,215.822 124.169,216.458 C123.761,216.729 123.353,216.999 122.943,217.27 C123.044,217.235 123.144,217.201 123.245,217.166 C124.305,216.793 125.754,215.247 124.698,214.155 L124.698,214.155 Z" id="Shape"></path>
                    <path d="M373.618,213.79 C374.35,214.018 375.077,214.226 375.819,214.42 C375.298,214.177 374.776,213.935 374.255,213.692 C375.037,214.268 375.415,215.055 374.525,213.667 C374.759,214.011 375.001,214.352 375.248,214.687 C374.986,214.245 374.963,214.214 375.175,214.595 C375.324,214.87 375.396,215.708 375.272,214.743 C375.53,216.006 375.58,216.228 375.422,215.411 C375.46,215.651 375.483,215.893 375.488,216.138 C375.5,216.328 375.365,217.573 375.549,216.485 C375.325,217.876 375.279,218.152 375.411,217.312 C375.28,217.866 375.181,218.426 375.112,218.992 C375.127,219.123 375.141,219.252 375.156,219.383 C375.342,218.606 375.308,218.878 375.057,220.198 C375.075,221.016 375.376,221.711 375.962,222.283 C375.461,221.121 375.26,220.908 375.358,221.646 C375.44,223.135 376.609,224.008 377.997,224.249 C380.303,224.648 382.49,223.616 384.198,222.159 C384.471,221.955 384.716,221.721 384.93,221.455 C383.497,223.021 386.692,219.682 386.692,219.682 C387.401,218.282 388.042,217.102 388.237,215.512 C388.429,213.957 388.078,212.098 387.224,210.772 C385.893,208.705 383.479,207.721 381.075,207.684 C380.388,207.672 379.72,207.813 379.044,207.913 C380.542,207.69 376.881,208.527 377.08,208.453 C378.184,208.045 376.184,208.734 375.879,208.837 C375.304,209.029 374.69,209.489 374.193,209.861 C373.19,210.611 371.431,213.108 373.618,213.79 L373.618,213.79 Z" id="Shape"></path>
                    <path d="M180.976,409.368 C183.033,406.927 180.416,409.925 180.071,410.453 C179.217,411.755 178.929,413.279 179.087,414.797 C179.431,418.113 181.159,420.978 183.054,423.636 C188.217,430.874 195.537,436.558 202.477,442.001 C210.269,448.112 218.126,453.905 226.38,459.401 C234.621,464.889 243.554,468.939 251.949,474.062 C255.666,470.416 259.382,466.77 263.098,463.124 C262.594,462.929 262.148,462.753 261.621,462.584 C257.652,461.313 253.335,462.382 250.328,465.335 C247.839,467.78 247.08,471.545 250.566,473.43 C251.048,473.691 251.437,473.898 251.948,474.063 C255.947,475.353 260.31,474.263 263.338,471.289 C265.827,468.844 266.64,464.996 263.098,463.125 C255.937,459.342 248.142,456.714 240.938,452.921 C232.275,448.361 223.92,443.364 215.756,437.983 C209.124,433.612 202.593,429.052 196.613,423.81 C193.91,421.439 191.328,418.845 189.13,415.997 C187.408,413.767 186.785,410.833 184.877,408.784 C183.938,407.775 181.736,408.465 180.976,409.368 L180.976,409.368 Z" id="Shape"></path>
                    <path d="M265.378,474.464 C273.54,473.214 281.356,467.923 288.238,463.676 C297.31,458.079 305.724,451.098 313.83,444.213 C318.006,440.666 323.423,436.776 326.43,432.149 C328.161,429.485 329.606,426.61 331.168,423.846 C332.08,422.232 333.016,420.631 333.977,419.045 C334.313,418.496 334.656,417.953 335.007,417.415 C335.014,417.404 336.633,415.259 335.599,416.457 C334.222,417.55 334.423,417.382 336.203,415.953 C336.925,415.244 337.827,414.086 338.043,413.055 C338.456,411.082 335.005,417.71 338.241,412.775 C338.518,412.353 339.644,407.764 339.062,410.771 C333.832,411.505 328.601,412.239 323.371,412.973 C323.59,416.866 327.269,419.029 330.943,418.165 C335.271,417.148 338.662,413.56 339.313,409.233 C339.781,406.13 335.527,404.986 333.325,405.079 C329.311,405.249 325.152,407.627 323.621,411.435 C323.006,412.967 323.546,415.292 323.555,415.218 C324.731,413.425 325.907,411.632 327.082,409.839 C322.497,413.073 320.02,418.864 317.421,423.652 C316.231,425.845 315.191,428.645 313.424,430.42 C309.392,434.472 305.152,438.316 300.824,442.048 C288.929,452.31 275.883,460.028 262.848,468.635 C258.747,471.345 261,475.134 265.378,474.464 L265.378,474.464 Z" id="Shape"></path>
                    <path d="M175.105,380.777 C166.02,387.338 157.93,396.052 149.869,403.815 C145.675,407.854 141.65,412.112 137.984,416.637 C135.614,419.563 129.838,425.423 132.161,429.421 C134.358,433.204 139.509,431.779 142.545,429.985 C146.575,427.603 148.343,422.6 151.045,418.898 C154.316,414.419 158.099,410.341 161.78,406.205 C165.343,402.199 168.962,398.259 172.385,394.131 C175.35,390.557 178.85,386.887 180.246,382.352 C181.195,379.274 176.583,379.71 175.105,380.777 L175.105,380.777 Z" id="Shape"></path>
                    <path d="M260.223,465.934 C248.969,469.94 242.408,483.914 238.119,494.11 C233.116,506.007 230.549,519.308 223.956,530.467 C228.205,530.278 232.455,530.089 236.705,529.901 C236.752,528.756 236.467,527.723 236.017,526.682 C233.787,521.519 225.082,525.877 223.739,529.602 C228.913,525.356 229.865,524.212 226.593,526.17 C225.696,526.755 224.945,527.489 224.342,528.373 C223.454,529.727 223.028,531.486 223.095,533.092 C223.392,540.113 235.009,535.541 236.49,531.213 C240.287,520.115 243.455,508.857 247.052,497.696 C248.938,491.846 251.196,486.091 254.179,480.709 C256.791,475.997 260.95,472.187 263.297,467.393 C264.229,465.493 261.102,465.622 260.223,465.934 L260.223,465.934 Z" id="Shape"></path>
                    <path d="M270.862,470.542 C270.823,470.745 270.784,470.948 270.746,471.151 C270.149,471.8 269.385,472.892 269.892,473.83 C281.951,496.103 285.62,521.929 297.082,544.456 C301.375,542.122 305.666,539.788 309.959,537.454 C307.343,534.96 304.739,533.764 301.058,533.982 C298.772,534.118 296.217,535.43 295.396,537.69 C294.203,540.975 295.612,543.199 297.842,545.54 C301.556,549.436 314.089,543.688 310.719,538.538 C303.416,527.38 298.59,515.262 293.67,502.92 C289.101,491.459 284.715,479.62 276.36,470.313 C275.64,469.511 274.221,469.571 273.286,469.781 C272.998,469.755 272.71,469.728 272.422,469.702 C271.878,469.615 271.003,469.937 270.862,470.542 L270.862,470.542 Z" id="Shape"></path>
                    <path d="M338.008,374.318 C341.809,385.687 352.052,395.299 359.631,404.25 C367.885,413.995 378.059,425.708 381.334,438.347 C382.844,444.169 396.87,438.883 394.467,432.648 C391.592,425.19 376.662,428.842 381.334,438.347 C385.712,436.447 390.089,434.548 394.467,432.648 C390.898,427.358 388.046,421.645 384.31,416.419 C380.277,410.779 375.652,405.574 370.937,400.502 C361.959,390.845 352.428,379.948 341.583,372.375 C340.375,371.532 337.41,372.526 338.008,374.318 L338.008,374.318 Z" id="Shape"></path>
                    <path d="M306.923,546.406 C317.795,544.563 327.893,536.235 335.748,528.99 C344.886,520.563 352.729,510.778 359.835,500.611 C373.731,480.73 385.108,458.423 394.758,436.202 C395.84,433.708 393.6,431.639 391.343,431.248 C387.968,430.663 383.492,432.39 381.715,435.426 C380.661,437.228 379.013,438.672 378.367,440.693 C377.44,443.592 380.851,444.307 382.94,443.866 C387.615,442.879 390.98,441.327 394.086,437.569 C389.738,437.31 385.391,437.051 381.043,436.793 C372.67,457.613 363.036,477.538 350.559,496.301 C344.229,505.822 337.173,514.908 329.198,523.108 C321.729,530.787 312.796,536.421 304.986,543.611 C303.142,545.306 305.085,546.717 306.923,546.406 L306.923,546.406 Z" id="Shape"></path>
                    <path d="M5.245,469.903 C8.673,465.553 11.758,461.454 16.214,458.05 C20.655,454.66 25.554,452.035 30.64,449.764 C42.234,444.586 54.673,441.273 66.619,437.029 C99.194,425.454 131.184,412.262 163.941,401.194 C169.88,399.188 171.572,390.725 163.753,390.874 C159.288,390.958 154.832,392.155 151.77,395.583 C149.863,397.716 149.442,401.256 153.119,401.741 C155.422,402.045 157.73,402.125 160.051,402.12 C159.988,398.681 159.926,395.239 159.863,391.8 C124.976,404.606 90.553,418.633 55.664,431.429 C43.91,435.74 32.228,439.357 21.181,445.385 C12.939,449.882 -0.634,459.144 0.219,470.126 C0.427,472.819 4.326,471.07 5.245,469.903 L5.245,469.903 Z" id="Shape"></path>
                    <path d="M341.735,381.622 C350.948,387.661 362.207,391.089 372.364,395.212 C383.565,399.759 394.843,404.114 406.028,408.699 C420.39,414.586 434.784,420.302 449.205,426.04 C462.736,431.425 476.433,437.485 487.862,446.665 C498.805,455.455 504.732,466.254 505.376,480.263 C510.027,478.243 514.679,476.225 519.331,474.206 C516.693,470.865 513.535,471.494 509.873,470.491 C507.947,469.964 504.376,471.529 503.975,473.666 C503.329,477.102 503.888,478.753 505.665,481.638 C509.237,487.43 520.026,482.794 520.427,476.732 C522.534,444.781 486.825,427.662 462.122,417.906 C447.651,412.191 432.924,407.151 418.434,401.473 C406.36,396.742 394.146,392.444 381.845,388.345 C369.945,384.378 357.786,379.449 345.423,377.176 C343.251,376.776 338.783,379.687 341.735,381.622 L341.735,381.622 Z" id="Shape"></path>
                    <path d="M32.563,439.907 C31.661,437.548 29.764,435.195 30.696,432.577 C31.408,430.573 34.07,429.478 35.832,428.655 C42.224,425.669 49.293,424.178 56.072,422.348 C66.339,419.577 76.02,414.785 85.804,410.693 C99.609,404.921 113.396,399.597 127.955,396.098 C126.116,395.78 124.277,395.46 122.437,395.142 C123.867,397.109 125.253,399.282 126.184,401.543 C127.303,404.262 131.692,403.186 133.449,401.938 C139.695,397.501 137.592,392.885 133.363,387.851 C132.183,386.448 129.416,386.438 127.845,386.895 C111.86,391.557 96.304,397.762 80.984,404.249 C70.11,408.852 60.793,412.992 49.909,415.964 C41.472,418.268 32.394,420.766 25.502,426.398 C19.218,431.533 18.723,439.786 26.265,444.084 C28.511,445.363 33.684,442.839 32.563,439.907 L32.563,439.907 Z" id="Shape"></path>
                    <path d="M379.292,387.605 C381.551,385.51 384.062,383.845 386.516,382.001 C385.227,382.434 383.938,382.866 382.649,383.299 C400.039,383.446 416.889,388.54 433.241,394.013 C441.445,396.759 449.452,399.834 457.354,403.361 C466.166,407.293 475.102,411.611 482.761,417.544 C485.45,419.627 488.211,422.035 489.644,425.178 C490.048,426.066 489.972,427.403 489.795,427.956 C489.738,428.133 488.504,429.256 487.456,430.439 C483.053,435.411 488.868,438.364 493.587,436.384 C498.585,434.287 502.815,429.722 503.041,424.109 C503.215,419.802 499.628,415.738 496.728,412.996 C487.959,404.709 475.84,399.444 464.913,394.709 C452.688,389.412 440.052,385.305 427.27,381.568 C416.85,378.523 406.076,376.053 395.2,375.523 C390.732,375.304 383.783,374.363 380.269,377.815 C377.959,380.084 374.491,383.418 373.692,386.636 C372.836,390.083 377.895,388.901 379.292,387.605 L379.292,387.605 Z" id="Shape"></path>
                    <path d="M145.975,419.271 C145.631,419.301 145.288,419.332 144.946,419.362 C144.826,419.372 144.592,419.608 144.814,419.63 C145.127,419.659 145.442,419.689 145.756,419.718 C146.1,419.75 146.387,419.235 145.975,419.271 L145.975,419.271 Z" id="Shape"></path>
                    <path d="M145.886,418.252 C135.572,420.481 140.567,438.19 142.284,444.763 C145.485,457.006 150.488,469.325 156.248,480.573 C170.548,508.501 192.983,533.26 221.713,546.587 C227.529,549.284 239.769,540.008 232.088,536.407 C229.657,535.268 227.264,534.69 224.611,534.363 C221.838,534.021 215.803,535.993 216.325,539.804 C216.805,543.319 218.682,544.939 221.713,546.586 C225.171,543.192 228.63,539.8 232.088,536.406 C206.203,525.301 185.633,504.728 170.984,480.981 C164.922,471.153 160.105,460.647 155.568,450.048 C151.754,441.139 146.29,430.681 148.259,420.662 C148.367,420.107 148.454,419.315 147.884,418.929 C147.188,418.457 146.819,418.051 145.886,418.252 L145.886,418.252 Z" id="Shape"></path>
                    <path d="M250.94,314.805 C257.436,320.476 267.604,319.295 275.163,316.704 C284.262,313.586 292.48,307.69 297.655,299.507 C296.551,300.39 295.448,301.274 294.344,302.156 C296.862,301.226 298.508,299.774 299.942,297.543 C300.962,295.954 301.216,294.003 299.808,292.554 C298.293,290.994 296.636,289.838 294.786,288.703 C292.014,292.046 289.241,295.388 286.47,298.73 C285.694,298.451 285.761,298.481 286.67,298.822 C287.631,299.188 288.566,299.628 289.504,300.049 C291.274,300.843 292.997,301.733 294.759,302.541 C293.996,301.44 293.234,300.34 292.471,299.239 C292.69,298.8 292.909,298.36 293.127,297.921 C288.81,301.519 293.351,305.609 297.65,304.448 C302.052,303.26 305.291,301.612 307.098,297.186 C307.895,295.232 306.782,293.333 305.043,292.451 C301.598,290.701 297.184,288.758 293.332,288.262 C290.252,287.866 287.028,288.95 284.805,291.135 C282.639,293.264 281.896,296.669 285.016,298.289 C286.213,298.91 287.016,299.527 287.994,300.438 C287.73,299.22 287.468,298.001 287.204,296.784 C287.102,297.146 287.001,297.51 286.899,297.873 C286.551,299.112 286.629,300.497 287.665,301.418 C287.815,301.552 287.966,301.686 288.116,301.819 C288.081,300.491 288.045,299.164 288.01,297.836 C281.202,310.385 267.35,314.469 254.018,311.794 C252.811,311.552 249.253,313.333 250.94,314.805 L250.94,314.805 Z" id="Shape"></path>
                    <path d="M220.916,233.43 C224.368,229.459 227.07,226.319 232.267,224.618 C236.747,223.151 241.475,222.972 246.148,223.079 C249.904,223.164 254.809,223.679 257.664,226.186 C258.937,227.305 260.029,228.652 261.099,229.96 C261.534,230.492 261.963,231.04 262.352,231.607 C263.569,233.382 262.161,232.028 263.614,230.086 C266.541,228.815 269.468,227.546 272.394,226.276 C271.111,226.186 276.365,226.772 271.307,225.953 C270.205,225.774 269.204,225.724 268.097,225.868 C265.791,226.166 263.041,227.243 262.254,229.695 C258.487,241.427 281.754,233.71 274.838,227.057 C270.535,222.918 267.609,217.603 260.798,215.898 C251.985,213.692 241.968,214.42 233.356,217.19 C227.252,219.153 213.77,225.158 216.219,233.66 C216.755,235.53 220.112,234.355 220.916,233.43 L220.916,233.43 Z" id="Shape"></path>
                    <path d="M217.923,214.204 C220.774,212.639 221.354,212.175 219.664,212.81 C218.936,213.125 218.405,213.584 217.923,214.204 C216.226,216.383 215.481,218.912 214.77,221.556 C213.252,227.205 212.906,233.061 211.91,238.803 C210.722,245.656 208.343,253.806 201.328,256.511 C194.421,259.175 184.92,257.943 177.61,258.047 C173.67,258.104 169.516,257.989 165.752,256.7 C163.786,256.028 162.345,254.915 160.789,253.593 C159.216,252.257 157.506,251.666 155.888,250.504 C153.98,249.132 150.135,250.183 149.516,252.643 C148.953,254.884 148.351,256.591 149.057,258.86 C149.806,261.261 152.213,262.715 154.192,263.973 C158.32,266.596 163.84,267.152 168.596,267.41 C178.514,267.95 189.442,267.858 199.197,265.967 C208.807,264.104 216.006,258.154 220.057,249.375 C222.466,244.154 223.176,238.289 223.526,232.615 C223.717,229.51 223.606,226.382 223.533,223.273 C223.461,220.249 223.893,216.927 223.363,213.962 C222.862,211.165 219.04,212.771 217.923,214.204 L217.923,214.204 Z" id="Shape"></path>
                    <path d="M197.912,198.504 C195.032,196.953 191.173,197.232 187.965,197.024 C184.177,196.779 180.403,196.338 176.618,196.081 C170.13,195.638 163.242,196.888 157.118,199.009 C147.916,202.197 139.587,208.907 137.158,218.686 C135.018,227.299 137.651,236.415 141.641,244.072 C146.041,252.516 153.897,263.402 164.037,264.342 C166.552,264.574 170.247,262.927 169.589,259.899 C168.698,255.805 165.558,253.226 162.779,250.18 C159.973,247.106 157.475,243.909 155.32,240.344 C151.486,234.005 148.832,226.874 149.431,219.381 C151.162,197.741 185.191,207.192 197.66,200.226 C198.297,199.868 198.689,198.923 197.912,198.504 L197.912,198.504 Z" id="Shape"></path>
                    <path d="M270.873,212.145 C267.755,217.228 268.249,223.752 269.415,229.407 C270.394,234.152 271.145,238.944 272.314,243.651 C273.989,250.396 276.999,257.089 282.256,261.796 C287.557,266.542 294.801,267.868 301.682,267.959 C310.011,268.069 323.261,266.033 328.59,258.963 C329.219,258.128 329.073,256.828 328.03,256.407 C321.963,253.959 313.388,257.588 307.027,258.038 C301.764,258.411 296.705,257.363 292.576,253.961 C287.939,250.142 285.594,244.224 283.791,238.671 C282.602,235.005 282.15,231.081 280.685,227.525 C278.55,222.346 277.477,216.525 275.133,211.528 C274.358,209.875 271.571,211.007 270.873,212.145 L270.873,212.145 Z" id="Shape"></path>
                    <path d="M307.407,200.25 C312.152,201.373 317.217,200.152 322.05,200.613 C327.386,201.123 332.344,204.742 335.908,208.5 C342.755,215.716 345.519,227.82 343.172,237.363 C341.086,245.843 334.393,249.801 326.484,251.997 C317.627,254.455 308.51,255.554 300.383,260.042 C298.865,260.879 298.316,263.324 300.481,263.662 C311.173,265.328 322.634,262.969 332.773,259.43 C343.927,255.537 353.045,247.279 355.798,235.558 C358.583,223.706 354.004,210.592 345.847,201.869 C335.272,190.56 320.316,193.446 307.622,198.854 C307.017,199.112 306.476,200.031 307.407,200.25 L307.407,200.25 Z" id="Shape"></path>
                    <path d="M200.382,202.042 C191.871,208.439 184.99,216.955 178.252,225.139 C171.166,233.744 164.697,242.75 159.32,252.53 C163.242,252.763 167.164,252.997 171.087,253.23 C172.113,251.012 172.885,249.212 172.184,246.799 C171.542,244.59 168.011,245.261 166.567,245.826 C170.39,245.511 171.182,245.322 168.944,245.261 C167.67,245.315 166.523,245.844 165.357,246.301 C162.617,247.374 160.682,250.058 159.321,252.53 C155.392,259.662 167.848,259.522 170.481,254.464 C175.305,245.196 181.167,236.623 187.406,228.261 C193.344,220.303 200.998,212.684 204.731,203.375 C205.758,200.811 201.513,201.192 200.382,202.042 L200.382,202.042 Z" id="Shape"></path>
                    <path d="M186.825,200.963 C175.783,214.749 161.92,226.893 153.44,242.55 C149.887,249.109 160.295,249.342 163.414,245.587 C175.074,231.543 190.029,220.775 201.372,206.443 C205.702,200.97 195.788,200.024 192.646,202.379 C185.112,208.025 179.185,215.133 173.691,222.721 C168.673,229.651 164.278,237.207 158.268,243.35 C156.43,245.229 155.493,248.483 158.459,249.854 C161.363,251.195 165.411,249.842 167.533,247.643 C179.125,235.63 185.473,218.618 199.155,208.614 C196.247,207.259 193.338,205.904 190.429,204.55 C179.242,218.318 164.325,228.486 153.439,242.551 C157.08,243.182 160.72,243.813 164.361,244.444 C172.032,228.923 188.106,218.031 193.311,201.351 C194.569,197.321 188.118,199.348 186.825,200.963 L186.825,200.963 Z" id="Shape"></path>
                    <path d="M165.491,201.146 C155.358,207.992 148.091,217.771 142.566,228.573 C146.316,228.796 150.066,229.019 153.815,229.242 C156.802,221.85 161.386,215.311 165.371,208.444 C168.751,202.619 160.078,201.636 156.647,204.38 C151.373,208.599 145.946,214.087 144.014,220.751 C142.113,227.308 153.107,224.986 155.211,221.417 C157.528,217.485 159.499,213.537 163.154,210.614 C160.246,209.259 157.339,207.904 154.43,206.55 C150.009,214.169 145.163,221.488 141.986,229.752 C139.588,235.986 152.131,234.386 153.814,229.242 C157,219.517 164.041,211.536 169.27,202.907 C170.846,200.307 166.959,200.154 165.491,201.146 L165.491,201.146 Z" id="Shape"></path>
                    <path d="M213.152,212.822 C198.301,221.727 188.074,235.928 176.52,248.467 C171.451,253.968 179.778,256.929 184.055,253.519 C199.329,241.34 212.383,227.291 224.881,212.342 C228.502,208.011 223.741,204.812 219.39,207.016 C198.901,217.396 189.345,238.204 174.395,254.41 C177.715,255.421 181.034,256.431 184.354,257.442 C192.857,243.248 206.21,232.738 215.874,219.359 C219.544,214.276 210.858,213.367 207.943,215.665 C191.944,228.279 178.089,243.335 169.089,261.748 C166.398,267.256 177.075,266.109 179.234,263.506 C193.68,246.078 213.673,230.064 219.561,207.254 C221.267,200.643 210.978,203.585 208.797,206.614 C198.296,221.201 187.678,235.685 177.615,250.582 C181.331,250.804 185.046,251.024 188.761,251.246 C193.291,238.998 205.199,230.404 214.149,221.467 C210.833,220.893 207.517,220.319 204.201,219.743 C197.91,234.017 185.837,244.803 178.625,258.584 C177.354,261.014 177.977,263.458 180.965,263.976 C184.142,264.526 187.273,262.855 189.178,260.413 C199.072,247.722 209.451,235.425 220.294,223.534 C217.058,222.549 213.821,221.563 210.585,220.578 C203.282,233.831 192.468,245.054 187.934,259.756 C185.911,266.316 197.192,264.118 199.285,260.432 C204.693,250.908 211.218,241.915 219.404,234.585 C215.89,233.977 212.376,233.368 208.862,232.759 C205.539,242.088 199.861,250.329 196.753,259.764 C194.617,266.247 205.027,264.053 207.485,261.622 C210.027,259.11 212.662,256.545 214.531,253.474 C210.575,253.239 206.618,253.003 202.662,252.768 C205.866,251.474 206.547,251.096 204.703,251.633 C203.844,251.882 203.002,252.181 202.18,252.53 C199.886,253.45 196.627,256.288 197.858,259.122 C199.149,262.097 203.303,261.312 205.626,260.468 C210.217,258.798 213.362,257.186 215.144,252.231 C217.562,245.508 205.48,247.721 203.275,251.525 C201.974,253.767 200.126,255.539 198.321,257.377 C201.898,257.996 205.476,258.615 209.053,259.235 C211.982,249.776 217.679,241.56 220.944,232.24 C223.211,225.766 212.769,228.28 210.402,230.414 C201.573,238.375 194.338,248.237 188.521,258.567 C192.304,258.793 196.088,259.017 199.872,259.243 C204.06,245.473 214.349,234.826 221.221,222.421 C224.8,215.96 214.623,216.067 211.512,219.465 C200,232.037 188.985,245.045 178.628,258.586 C182.146,259.195 185.663,259.805 189.181,260.414 C196.637,245.809 208.789,234.253 215.605,219.255 C216.542,217.193 214.614,215.456 212.766,215.137 C210.248,214.7 207.453,215.772 205.657,217.532 C195.132,227.841 182.18,237.384 177.045,251.753 C174.724,258.249 186.042,255.667 188.191,252.417 C198.069,237.474 208.302,222.746 219.009,208.385 C215.421,208.172 211.833,207.958 208.245,207.745 C202.323,228.97 183.095,244.082 169.661,260.593 C173.347,260.813 177.031,261.031 180.717,261.251 C188.203,245.533 200.354,232.141 213.863,221.334 C211.219,220.103 208.577,218.871 205.932,217.64 C196.006,231.079 181.953,240.97 173.452,255.557 C169.639,262.099 180.259,262.081 183.411,258.589 C190.083,251.194 195.622,242.913 201.511,234.905 C207.257,227.092 213.704,218.666 222.416,213.982 C220.585,212.207 218.755,210.431 216.925,208.656 C204.416,222.816 191.159,236.495 176.525,248.47 C179.445,249.824 182.367,251.177 185.287,252.531 C196.147,240.422 205.758,227.07 217.336,215.626 C220.456,212.532 215.501,211.413 213.152,212.822 L213.152,212.822 Z" id="Shape"></path>
                    <path d="M298.235,202.035 C290.674,211.408 281.299,219.774 275.776,230.609 C279.378,230.823 282.981,231.038 286.583,231.253 C290.903,221.325 299.022,213.562 302.703,203.247 C303.47,201.099 301.842,199.407 299.813,199.056 C296.597,198.499 293.639,200.208 291.667,202.591 C286.688,208.607 281.564,214.502 276.531,220.473 C279.75,221.452 282.969,222.433 286.188,223.413 C288.508,219.541 289.691,215.159 292.259,211.425 C293.482,209.649 293.227,207.294 291.145,206.332 C288.269,205.003 284.63,206.429 282.472,208.445 C278.426,212.223 274.017,215.245 270.466,219.555 C274.089,220.183 277.71,220.81 281.333,221.438 C283.138,217.79 284.674,213.65 287.444,210.602 C292.769,204.744 284.159,202.209 279.627,205.363 C276.883,207.271 274.346,209.443 271.574,211.312 C268.251,213.552 267.095,218.036 271.789,219.24 C275.967,220.311 286.198,217.136 284.468,211.239 C283.8,208.962 280.462,209.19 278.753,209.458 C278.435,209.507 278.116,209.557 277.798,209.606 C275.501,210.305 275.571,210.354 278.01,209.753 C278.081,212.396 278.154,215.038 278.225,217.681 C280.917,215.717 283.451,213.555 286.172,211.63 C283.567,209.884 280.96,208.137 278.355,206.391 C274.541,210.659 272.342,215.653 269.876,220.756 C268.832,222.916 270.967,224.777 272.876,225.108 C276.189,225.681 279.317,223.927 281.333,221.438 C284.133,217.978 288.12,215.598 291.327,212.548 C288.065,211.555 284.803,210.562 281.54,209.569 C278.999,213.34 277.881,217.704 275.611,221.581 C274.204,223.984 275.063,226.484 277.956,226.985 C281.206,227.548 284.195,225.821 286.187,223.413 C291.157,217.406 296.2,211.462 301.223,205.501 C297.848,204.916 294.472,204.331 291.097,203.747 C287.36,213.884 279.023,221.61 275.217,231.741 C274.169,234.53 277.122,236.028 279.44,235.93 C282.486,235.801 285.334,234.033 286.581,231.252 C291.169,221.028 301.045,213.391 303.855,202.369 C304.76,198.826 299.397,200.593 298.235,202.035 L298.235,202.035 Z" id="Shape"></path>
                    <path d="M327.453,197.362 C311.475,212.532 298.191,230.955 286.484,249.558 C290.095,250.184 293.707,250.809 297.318,251.435 C306.723,234.551 321.512,221.576 331.929,205.368 C335.739,199.44 325.643,199.511 322.746,202.572 C309.456,216.609 297.908,232.014 286.458,247.554 C284.707,249.93 286.131,252.641 288.871,253.116 C292.216,253.695 295.292,251.918 297.343,249.439 C310.397,233.666 327.175,221.006 334.597,201.251 C336.618,195.871 328.155,197.137 325.844,198.568 C317.05,204.015 310.239,212.623 303.934,220.65 C297.059,229.404 290.771,238.771 285.444,248.55 C284.081,251.052 284.81,253.598 287.864,254.126 C291.148,254.695 294.39,252.968 296.358,250.44 C309.288,233.83 326.932,221.517 338.057,203.387 C342.049,196.881 330.566,197.418 327.744,201.602 C315.655,219.526 300.739,235.422 290.44,254.549 C289.09,257.056 289.794,259.597 292.861,260.128 C296.082,260.686 299.476,259.006 301.36,256.44 C314.269,238.85 330.4,223.887 342.154,205.405 C338.651,204.798 335.149,204.192 331.646,203.585 C326.764,213.176 319.377,221.821 312.906,230.356 C307.773,237.124 302.578,243.845 297.34,250.532 C295.465,252.925 297.074,255.741 299.806,256.214 C303.16,256.796 306.448,255.029 308.461,252.458 C313.451,246.089 318.334,239.632 323.153,233.134 C329.745,224.246 337.036,215.263 342.154,205.405 C345.772,198.435 334.436,199.272 331.646,203.585 C319.733,222.002 303.316,236.851 290.44,254.55 C294.08,255.18 297.72,255.811 301.36,256.441 C311.506,237.396 326.07,221.234 338.056,203.388 C334.618,202.793 331.181,202.198 327.743,201.603 C316.333,219.464 298.394,231.886 285.442,248.55 C289.08,249.181 292.718,249.81 296.356,250.441 C301.012,241.878 306.499,233.779 312.171,225.864 C317.623,218.26 323.785,209.337 331.955,204.424 C329.037,203.529 326.12,202.636 323.202,201.741 C315.909,220.205 298.742,232.573 286.456,247.554 C290.084,248.182 293.713,248.811 297.341,249.439 C308.08,234.727 318.879,219.994 331.053,206.421 C327.992,205.489 324.932,204.557 321.87,203.625 C311.469,220.025 295.671,232.263 286.481,249.558 C282.719,256.638 294.534,256.052 297.315,251.435 C308.229,233.318 322.079,217.151 332.861,199.01 C335.034,195.36 329.193,195.71 327.453,197.362 L327.453,197.362 Z" id="Shape"></path>
                    <path d="M346.415,216.376 C339.876,219.022 335.168,226.692 331.393,232.308 C326.785,239.164 322.81,246.471 318.609,253.579 C322.33,253.801 326.049,254.022 329.77,254.243 C334.784,243.861 342.151,234.685 351.095,227.439 C347.822,226.872 344.548,226.304 341.275,225.738 C337.08,234.828 329.202,241.689 324.808,250.758 C322.181,256.18 331.91,255.313 334.172,253.628 C338.419,250.467 342.668,247.287 346.506,243.63 C343.437,242.207 340.366,240.785 337.297,239.362 C333.24,243.463 328.511,247.279 324.721,251.558 C320.418,256.418 326.13,258.639 330.488,257.152 C337.125,254.886 341.781,248.494 346.507,243.63 C348.326,241.758 349.272,238.531 346.317,237.166 C343.365,235.801 339.494,237.232 337.298,239.362 C334.28,242.291 330.979,244.828 327.632,247.364 C330.754,248.32 333.875,249.277 336.996,250.234 C341.107,241.3 348.23,234.151 352.529,225.254 C354.921,220.305 345.988,220.949 343.883,222.604 C332.912,231.226 323.871,242.034 318.034,254.75 C315.345,260.609 327.075,259.162 329.195,255.414 C332.914,248.839 336.184,242.018 339.683,235.325 C341.409,232.022 343.292,228.799 344.968,225.473 C346.253,222.923 348.649,219.998 348.675,217.08 C348.685,215.938 347.085,216.106 346.415,216.376 L346.415,216.376 Z" id="Shape"></path>
                    <path d="M242.941,54.911 C235.262,52.647 227.861,59.192 227.448,66.798 C227.302,69.486 228.224,72.463 230.444,74.128 C233.149,76.157 236.268,76.227 239.485,75.725 C245.191,74.835 250.596,70.401 252.817,65.157 C253.712,63.045 253.666,60.29 252.473,58.306 C251.784,57.158 250.978,56.236 249.88,55.487 C249.046,54.917 248.26,54.382 247.308,54.048 C246.72,53.833 246.12,53.664 245.509,53.539 C246.838,53.836 242.437,53.401 243.787,53.498 C241.211,53.314 238.719,53.983 236.827,55.842 C234.944,57.692 234.588,60.206 237,61.68 C235.823,60.961 239.114,63.223 238.04,62.543 C238.41,62.777 238.781,62.981 239.175,63.172 C239.366,63.266 240.497,63.988 239.456,63.274 C239.826,63.528 240.149,63.839 240.458,64.162 C241.187,64.923 239.955,63.28 240.458,64.143 C240.597,64.381 240.69,64.643 240.781,64.901 C241.101,65.806 240.642,63.835 240.732,64.781 C240.768,65.16 240.572,66.353 240.835,64.888 C240.747,65.379 239.959,67.024 240.744,65.51 C240.608,65.772 240.444,66.018 240.282,66.264 C239.445,67.532 240.944,65.57 240.271,66.307 C240.062,66.537 239.834,66.75 239.609,66.964 C238.735,67.789 240.852,66.024 239.885,66.752 C239.634,66.941 239.368,67.108 239.103,67.275 C238.162,67.868 240.743,66.503 239.219,67.171 C238.11,67.658 240.825,66.7 239.671,67.034 C239.242,67.158 238.143,67.289 240.05,67.04 C239.765,67.077 239.478,67.078 239.192,67.078 C240.867,67.079 239.67,67.099 239.192,66.99 C240.483,67.286 239.689,67.122 239.332,66.948 C238.449,66.52 240.074,67.55 239.289,66.906 C239.045,66.707 238.838,66.466 238.633,66.229 C239.028,66.825 238.897,66.645 238.239,65.688 C238.482,66.049 238.476,66.024 238.221,65.614 C235.835,61.591 238.103,59.098 241.918,58.036 C243.339,57.64 245.223,55.583 242.941,54.911 L242.941,54.911 Z" id="Shape"></path>
                    <path d="M330.424,332.812 C327.707,335.401 327.827,338.098 327.74,341.729 C327.624,346.655 327.777,351.613 327.973,356.537 C328.353,366.069 327.343,375.751 327.187,385.306 C327.113,389.869 326.769,394.437 326.333,398.977 C326.108,401.323 325.84,403.665 325.343,405.971 C324.91,407.977 323.914,409.782 324.761,411.857 C326.222,415.439 331.429,414.54 334.148,413.483 C341.081,410.789 341.49,403.716 342.049,397.361 C342.557,391.585 342.679,385.762 342.583,379.966 C342.41,369.478 342.291,359.124 339.981,348.864 C339.374,346.157 336.836,326.702 330.424,332.812 L330.424,332.812 Z" id="Shape"></path>
                    <path d="M180.076,353.596 C175.822,355.75 174.93,361.38 174.276,365.731 C173.356,371.868 172.865,378.025 172.7,384.227 C172.417,394.932 172.714,406.474 176.211,416.712 C176.823,418.504 179.339,419.102 180.972,418.972 C183.515,418.77 185.603,417.948 187.453,416.159 C188.664,414.989 189.925,412.869 189.054,411.138 C185.051,403.188 184.961,392.788 184.356,384.101 C183.686,374.489 184.051,364.935 184.509,355.331 C184.547,354.545 183.969,353.966 183.332,353.633 C182.327,353.108 181.109,353.073 180.076,353.596 L180.076,353.596 Z" id="Shape"></path>
                    <path d="M264.908,518.625 C264.2,516.719 260.22,516.833 258.621,517.186 C255.598,517.851 253.082,519.263 250.697,521.194 C247.236,523.995 245.67,528.969 246.104,533.298 C246.813,540.364 253.304,542.345 259.491,541.003 C265.72,539.651 271.758,535.242 274.434,529.42 C277.205,523.395 272.768,518.175 267.197,516.233 C264.996,515.465 262.7,515.207 260.381,515.433 C258.337,515.632 256.395,516.345 254.904,517.81 C253.778,518.915 252.341,521.637 254.156,522.914 C254.577,523.214 255.003,523.503 255.436,523.783 C254.116,523.173 257.709,524.952 256.545,524.467 C257.199,524.739 257.838,525.04 258.5,525.293 C259.094,525.52 259.673,525.792 260.245,526.066 C260.59,526.232 262.12,527.268 260.86,526.367 C261.24,526.639 261.583,526.958 261.909,527.292 C262.799,528.204 261.479,526.441 262.083,527.484 C262.271,527.808 262.398,528.162 262.509,528.517 C262.763,529.339 262.319,527.338 262.421,528.186 C262.447,528.4 262.445,528.615 262.443,528.829 C262.435,530.029 262.742,527.699 262.458,528.884 C262.37,529.25 262.232,529.604 262.088,529.951 C261.889,530.426 262.793,528.73 262.02,529.973 C261.801,530.323 261.551,530.651 261.295,530.974 C263.132,528.658 258.763,532.975 261.293,530.961 C260.946,531.236 260.581,531.487 260.213,531.732 C259.992,531.878 259.764,532.012 259.536,532.147 C258.558,532.725 261.147,531.308 260.134,531.813 C259.748,532.005 259.35,532.169 258.947,532.325 C258.215,532.608 260.841,531.802 259.146,532.22 C257.563,532.61 259.952,532.163 259.308,532.223 C258.783,532.271 257.37,532.111 259.4,532.295 C258.929,532.252 257.673,531.839 259.388,532.397 C259.051,532.287 258.731,532.133 258.421,531.962 C259.704,532.671 258.727,532.161 258.377,531.815 C258.165,531.607 257.689,530.935 258.437,532.005 C258.296,531.803 258.182,531.583 258.068,531.366 C257.858,530.967 257.714,530.535 257.584,530.105 C257.474,529.67 257.48,529.729 257.602,530.28 C257.537,529.956 257.5,529.626 257.464,529.298 C257.313,527.941 257.26,526.497 257.638,525.189 C257.877,524.361 257.975,524.255 258.43,523.547 C258.416,523.568 259.045,522.985 259.326,522.804 C260.644,521.955 263.012,521.473 264.407,520.194 C264.833,519.803 265.12,519.197 264.908,518.625 L264.908,518.625 Z" id="Shape"></path>
                </g>
            </g>
        </g>
    </g>
</svg>