<?xml version="1.0" encoding="UTF-8"?>
<svg width="483px" height="536px" viewBox="0 0 483 536" version="1.1" xmlns="http://www.w3.org/2000/svg" xmlns:xlink="http://www.w3.org/1999/xlink">
    <!-- Generator: Sketch 41 (35326) - http://www.bohemiancoding.com/sketch -->
    <title>rice</title>
    <desc>Created with Sketch.</desc>
    <defs></defs>
    <g id="Page-1" stroke="none" stroke-width="1" fill="none" fill-rule="evenodd">
        <g id="Layer_1" transform="translate(-2192.000000, -6133.000000)" fill="#000000">
            <g id="Layer_1_3_">
                <g id="rice" transform="translate(2192.000000, 6133.000000)">
                    <path d="M10.118,284.627 C2.719,300.558 72.445,304.369 80.161,304.953 C126.751,308.482 173.255,308.242 219.904,305.569 C247.337,303.998 274.804,303.096 302.226,301.459 C315.337,300.676 328.442,299.344 341.355,296.898 C347.349,295.763 353.268,294.255 359.07,292.368 C363.849,290.812 369.6,288.236 373.876,287.201 C376.768,286.501 380.679,284.129 380.635,280.695 C380.592,277.257 376.281,276.778 373.759,277.388 C373.363,277.484 372.967,277.58 372.571,277.676 C370.651,278.141 368.286,277.833 372.561,277.833 C366.809,277.833 361.495,286.755 369.623,286.755 C365.393,286.755 369.165,286.951 370.503,287.349 C376.316,289.077 385.496,279.726 377.132,277.24 C372.01,275.718 366.816,280.867 362.422,282.892 C357.028,285.378 351.294,286.826 345.52,288.132 C333.207,290.92 320.586,292.167 308.015,293.063 C282.149,294.904 256.176,295.304 230.287,296.906 C182.588,299.859 134.939,300.472 87.258,297.178 C71.84,296.113 56.358,294.907 41.091,292.449 C35.304,291.517 29.361,290.48 23.869,288.37 C22.299,287.766 20.549,287.099 19.307,286.119 C18.211,285.253 17.867,284.516 17.914,284.291 C18.925,279.453 11.411,281.844 10.118,284.627 L10.118,284.627 Z" id="Shape"></path>
                    <path d="M10.368,283.121 C3.925,294.886 4.254,308.725 5.159,321.78 C6.101,335.372 8.338,349.001 10.909,362.374 C15.192,384.648 22.265,406.14 34.445,425.395 C47.783,446.482 66.035,465.853 87.405,478.819 C99.117,485.924 111.996,490.9 125.035,494.958 C131.928,497.104 138.876,499.069 145.886,500.795 C149.516,501.689 153.17,502.485 156.825,503.268 C158.699,503.669 160.577,504.051 162.455,504.434 C165.4,505.036 162.12,504.339 164.617,504.628 C166.592,504.856 168.589,505.122 170.521,505.592 C171.207,505.758 171.884,505.952 172.57,506.117 C173.282,506.256 173.989,506.262 174.691,506.136 C175.873,506.078 175.28,505.937 172.915,505.71 C172.562,504.102 172.211,502.492 171.859,500.883 C174.923,498.76 175.601,498.081 173.893,498.846 C171.531,499.792 168.446,503.526 171.836,505.291 C173.452,506.132 175.186,506.448 176.987,505.947 C179.215,505.327 183.08,503.318 182.752,500.398 C182.356,496.878 178.737,496.377 175.847,496.047 C171.475,495.548 167.19,494.88 162.9,494.002 C148.149,490.984 133.514,487.106 119.394,481.853 C93.536,472.234 72.574,455.481 54.95,434.49 C40.268,417.004 30.211,396.558 23.92,374.686 C20.35,362.274 18.264,349.53 16.165,336.807 C13.875,322.927 11.296,308.966 12.453,294.843 C12.776,290.896 13.084,286.914 13.552,282.98 C13.742,281.376 10.804,282.325 10.368,283.121 L10.368,283.121 Z" id="Shape"></path>
                    <path d="M389.146,282.379 C386.933,287.921 386.86,293.679 386.493,299.609 C386.096,306.036 385.454,312.445 384.652,318.833 C383.101,331.186 380.629,343.423 377.44,355.455 C371.224,378.915 361.436,401.348 348.038,421.598 C334.304,442.356 316.343,459.964 295.597,473.665 C272.264,489.075 245.032,502.303 216.533,502.561 C214.91,502.576 213.412,502.22 211.84,501.876 C208.245,501.091 203.759,503.231 201.785,506.239 C199.361,509.936 202.408,513.249 206.406,512.946 C220.891,511.846 234.454,510.696 248.387,506.146 C262.128,501.659 275.09,495.249 287.531,487.933 C309.46,475.037 329.323,459.274 345.461,439.514 C376.195,401.881 391.108,354.477 394.439,306.477 C394.992,298.514 396.611,288.795 393.061,281.448 C392.272,279.822 389.625,281.181 389.146,282.379 L389.146,282.379 Z" id="Shape"></path>
                    <path d="M389.146,280.112 C386.933,285.654 386.86,291.412 386.493,297.342 C386.096,303.769 385.454,310.178 384.652,316.566 C383.101,328.919 380.629,341.156 377.44,353.188 C371.224,376.648 361.436,399.081 348.038,419.331 C334.304,440.089 316.343,457.697 295.597,471.398 C272.264,486.808 245.032,500.036 216.533,500.294 C214.91,500.309 213.412,499.953 211.84,499.609 C208.245,498.824 203.759,500.964 201.785,503.972 C199.361,507.669 202.408,510.982 206.406,510.679 C220.891,509.579 234.454,508.429 248.387,503.879 C262.128,499.392 275.09,492.982 287.531,485.666 C309.46,472.77 329.323,457.007 345.461,437.247 C376.195,399.614 391.108,352.21 394.439,304.21 C394.992,296.247 396.611,286.528 393.061,279.181 C392.272,277.554 389.625,278.914 389.146,280.112 L389.146,280.112 Z" id="Shape"></path>
                    <path d="M111.309,502.199 C109.578,505.469 109.388,510.491 110.347,514.053 C110.335,513.419 110.324,512.784 110.311,512.152 C109.937,513.025 109.767,513.979 110.267,514.853 C113.596,520.677 124.516,512.455 120.384,509.351 C119.513,508.696 118.755,508.359 117.677,508.186 C118.48,508.733 119.281,509.281 120.084,509.828 C118.421,507.27 119.703,503.989 118.235,501.196 C116.915,498.682 112.391,500.157 111.309,502.199 L111.309,502.199 Z" id="Shape"></path>
                    <path d="M110.018,514.922 C113.203,520.103 121.409,522.202 126.906,524.106 C134.805,526.84 142.945,528.913 151.139,530.537 C169.35,534.146 188.042,535.516 206.588,535.414 C225.321,535.31 244.164,533.342 262.416,529.074 C270.617,527.157 278.699,524.596 286.494,521.411 C290.388,519.819 294.16,517.957 297.848,515.937 C300.842,514.297 303.76,511.658 306.838,510.316 C309.274,509.253 314.521,503.631 309.512,501.935 C309.244,501.844 308.976,501.753 308.708,501.663 C304.937,500.387 300.295,501.851 298.065,505.25 C295.203,509.615 300.206,512.202 304.062,511.17 C304.421,511.074 304.781,510.978 305.14,510.882 C303.259,509.025 301.378,507.167 299.497,505.311 C301.118,503.139 297.932,506.2 297.045,506.797 C295.607,507.765 294.122,508.657 292.628,509.534 C289.647,511.284 286.493,512.736 283.33,514.121 C276.167,517.258 268.689,519.55 261.113,521.446 C244.131,525.697 226.572,527.394 209.102,527.77 C191.618,528.147 174.091,526.872 156.862,523.869 C149.143,522.523 141.456,520.818 133.96,518.528 C127.354,516.51 120.589,512.592 113.728,511.952 C112.575,511.843 108.877,513.067 110.018,514.922 L110.018,514.922 Z" id="Shape"></path>
                    <path d="M300.641,488.991 C298.428,491.188 298.423,494.296 298.613,497.254 C298.666,498.08 298.646,499.59 298.546,500.051 C298.241,501.459 297.523,502.74 298.306,504.195 C298.29,503.378 298.275,502.56 298.26,501.743 C298.233,501.832 298.205,501.921 298.178,502.01 C296.734,506.71 303.18,507.18 306.058,505.748 C308.984,504.293 311.458,502.518 311.925,499.1 C312.158,497.386 311.528,495.537 310.958,493.94 C309.586,490.085 304.714,484.946 300.641,488.991 L300.641,488.991 Z" id="Shape"></path>
                    <path d="M65.952,196.32 C67.384,193.731 67.511,190.874 68.133,188.012 C68.858,184.683 70.549,181.592 72.799,179.057 C74.369,177.287 76.346,175.915 78.637,175.304 C79.885,174.971 84.735,175.291 85.088,176.983 C86.949,185.883 100.604,173.952 94.29,172.015 C90.039,170.711 87.356,168.376 82.602,168.364 C78.078,168.352 73.49,170.557 70.008,173.289 C66.481,176.057 64.018,179.601 62.204,183.668 C60.518,187.448 58.944,194.038 62.397,197.182 C63.367,198.063 65.371,197.372 65.952,196.32 L65.952,196.32 Z" id="Shape"></path>
                    <path d="M97.594,176.524 C99.271,172.54 98.429,168.073 100.96,164.366 C102.596,161.97 105.847,161.68 108.464,161.525 C114.738,161.152 125.335,163.458 129.093,169.076 C133.442,175.579 145.857,166.305 141.057,162.57 C137.826,160.055 133.764,158.323 129.926,160.882 C126.087,163.442 127.549,167.093 129.799,170.083 C133.195,167.34 136.591,164.597 139.987,161.854 C129.759,156.354 118.892,152.184 107.078,154.419 C101.859,155.406 97.028,158.163 93.856,162.435 C90.808,166.539 90.046,174.186 94.278,177.637 C95.344,178.506 97.115,177.661 97.594,176.524 L97.594,176.524 Z" id="Shape"></path>
                    <path d="M64.871,195.928 C65.922,191.539 62.065,187.935 58.151,186.613 C53.619,185.082 48.726,186.201 44.58,188.319 C34.246,193.601 29.633,203.7 28.182,214.67 C27.424,220.408 42.803,218.217 41.048,210.396 C39.845,205.033 43.776,198.099 47.883,194.929 C53.128,190.88 57.068,196.194 62.096,197.424 C63.046,197.656 64.628,196.945 64.871,195.928 L64.871,195.928 Z" id="Shape"></path>
                    <path d="M35.835,215.485 C32.003,213.948 29.071,213.369 24.894,214.329 C20.73,215.285 16.503,217.847 14,221.346 C11.738,224.509 11.087,227.977 12.211,231.697 C13.578,236.217 18.644,240.385 23.247,239.953 C25.45,239.746 30.432,237.838 29.837,234.726 C29.784,234.454 29.733,234.181 29.68,233.908 C29.454,232.724 29.047,231.583 27.761,231.139 C24.546,230.031 20.655,226.539 22.799,222.87 C24.748,219.533 30.844,218.028 34.348,217.752 C35.133,217.689 37.448,216.131 35.835,215.485 L35.835,215.485 Z" id="Shape"></path>
                    <path d="M25.443,240.324 C20.676,239.572 17.332,238.894 12.75,241.36 C8.289,243.76 4.811,247.374 2.668,251.968 C1.044,255.448 0.178,259.4 1.094,263.194 C1.508,264.91 2.276,266.333 3.492,267.63 C4.117,268.296 5.041,268.79 5.834,269.212 C6.189,269.389 6.558,269.535 6.938,269.651 C8.618,270.217 8.59,270.146 6.856,269.436 C9.965,272.566 16.236,269.736 18.243,266.676 C21.669,261.451 14.342,259.76 10.681,261.52 C13.701,260.068 14.046,261.693 12.849,260.726 C12.171,260.178 11.903,259.43 11.635,258.62 C10.979,256.633 11.647,254.169 12.283,252.277 C13.856,247.596 18.864,242.844 24.107,243.047 C25.483,243.1 27.599,240.664 25.443,240.324 L25.443,240.324 Z" id="Shape"></path>
                    <path d="M11.725,272.161 C11.652,272.296 11.579,272.431 11.506,272.566 C12.046,271.565 10.957,273.472 10.881,273.636 C10.605,274.227 10.394,274.836 10.174,275.449 C10.031,275.81 10.057,275.787 10.248,275.38 C10.028,275.72 9.865,276.082 9.759,276.467 C9.655,276.796 9.552,277.125 9.449,277.453 C9.266,278.034 9.105,278.626 8.894,279.196 C8.535,280.164 8.753,281.268 9.498,281.991 C11.418,283.857 14.751,283.001 16.72,281.688 C18.167,280.722 19.949,278.668 19.103,276.768 C18.946,276.415 18.829,276.042 18.696,275.681 C18.546,275.27 18.395,274.859 18.245,274.449 C18.136,274.15 17.515,272.989 17.923,273.837 C17.795,273.57 17.689,273.291 17.571,273.02 C17.419,272.665 17.243,272.338 17.046,272.006 C17.009,271.945 15.814,270.582 16.474,271.361 C16.395,271.269 16.329,271.16 16.259,271.06 C15.277,269.682 12.326,271.043 11.725,272.161 L11.725,272.161 Z" id="Shape"></path>
                    <path d="M257.548,209.588 C266.401,204.066 273.926,196.774 281.719,189.891 C290.335,182.28 298.859,174.565 307.446,166.92 C324.621,151.631 341.965,136.516 359.956,122.191 C376.652,108.897 393.485,95.784 410.071,82.351 C418.484,75.536 426.76,68.551 434.844,61.348 C438.814,57.811 442.709,54.192 446.554,50.52 C450.282,46.959 453.736,42.506 457.912,39.493 C459.951,38.022 462.615,34.768 460.137,32.39 C457.223,29.594 452.148,31.731 449.655,33.957 C447.759,35.649 446.002,37.168 445.57,39.794 C445.108,42.605 447.624,43.285 449.969,42.846 C452.973,42.283 455.463,41.408 457.912,39.492 C454.823,38.053 451.734,36.614 448.644,35.176 C446.454,39.057 442.577,42.264 439.467,45.432 C435.783,49.186 432.001,52.84 428.183,56.455 C420.409,63.815 412.363,70.888 404.227,77.844 C387.787,91.902 370.645,105.129 353.8,118.695 C336.265,132.817 319.361,147.69 302.612,162.732 C294.085,170.39 285.574,178.071 277.166,185.858 C269.429,193.025 261.07,199.811 254.681,208.254 C253.239,210.159 256.539,210.218 257.548,209.588 L257.548,209.588 Z" id="Shape"></path>
                    <path d="M266.163,220.532 C278.22,212.717 288.94,202.493 300.406,193.794 C312.135,184.894 324.108,176.32 335.98,167.614 C354.746,153.852 373.115,139.607 390.268,123.86 C412.409,103.533 434.203,81.953 458.827,64.608 C461.896,62.445 464.506,60.809 466.928,59.84 C468.832,59.078 466.33,59.974 467.34,59.663 C467.812,59.518 468.293,59.414 468.778,59.324 C468.112,59.447 466.967,59.439 466.948,59.437 C467.541,59.525 468.404,59.968 466.54,59.242 C468.148,55.949 469.757,52.657 471.366,49.365 C469.177,50.083 467.423,51.08 465.366,52.052 C462.489,53.41 458.672,58.953 464.177,59.746 C466.053,60.016 467.8,59.81 469.67,59.784 C473.204,59.734 481.883,54.711 477.461,50.42 C469.92,43.105 453.909,58.133 448.386,62.472 C435.033,72.959 422.302,84.192 409.745,95.613 C400.186,104.306 390.813,113.202 381.281,121.924 C362.231,139.354 341.586,154.741 320.778,169.984 C310.364,177.614 299.921,185.216 289.738,193.155 C279.967,200.772 268.961,208.401 261.428,218.327 C259.061,221.445 264.482,221.622 266.163,220.532 L266.163,220.532 Z" id="Shape"></path>
                    <path d="M455.836,34.195 C450.611,38.24 453.557,44.544 457.507,48.323 C461.154,51.812 469.141,57.077 474.333,54.629 C476.153,53.771 478.047,51.905 476.611,49.913 C475.682,48.622 472.883,48.727 471.393,48.326 C469.062,47.698 466.839,46.511 464.8,45.249 C462.763,43.99 460.855,42.171 459.658,40.093 C458.608,38.269 459.057,36.232 458.351,34.332 C458.005,33.393 456.407,33.751 455.836,34.195 L455.836,34.195 Z" id="Shape"></path>
                    <path d="M455.625,33.831 C457.086,34.565 458.863,34.645 460.445,35.043 C463.115,35.713 465.497,37.371 467.497,39.188 C469.619,41.117 471.123,43.45 472.292,46.046 C473.419,48.551 473.025,51.525 474.371,53.832 C476.134,56.852 481.064,54.539 482.082,51.999 C484.611,45.682 478.062,37.504 473.276,34.024 C468.772,30.75 460.837,28.092 455.897,31.971 C455.326,32.418 454.687,33.358 455.625,33.831 L455.625,33.831 Z" id="Shape"></path>
                    <path d="M251.414,208.686 C249.095,215.421 255.047,220.849 261.501,221.245 C263.975,221.397 266.595,220.599 268.028,218.413 C269.149,216.704 268.473,214.269 266.168,214.128 C264.147,214.004 262.196,213.751 260.564,212.455 C258.852,211.096 257.918,209.292 256.996,207.358 C255.911,205.088 252.024,206.913 251.414,208.686 L251.414,208.686 Z" id="Shape"></path>
                    <path d="M249.583,195.641 C254.163,186.77 259.115,178.693 265.247,170.788 C271.353,162.918 277.981,155.472 284.026,147.553 C290.58,138.967 296.358,129.768 302.768,121.065 C309.847,111.452 317.271,102.086 324.896,92.903 C332.283,84.006 339.122,74.68 346.557,65.813 C353.075,58.041 360.297,50.004 365.726,41.436 C368.719,36.711 372.352,32.305 375.808,27.917 C378.001,25.131 384.438,20.589 381.263,16.635 C380.008,15.072 376.987,15.66 375.478,16.322 C375.389,16.363 375.297,16.398 375.203,16.427 C369.042,18.643 371.928,24.959 377.965,22.788 C378.028,22.766 378.09,22.743 378.153,22.721 C376.077,22.362 374.003,22.002 371.927,21.643 C371.401,20.519 373.332,17.158 371.225,20.372 C370.59,21.341 370.524,22.365 370.413,23.471 C370.267,24.928 366.775,28.591 365.81,29.956 C362.47,34.683 359.206,39.512 355.737,44.135 C342.349,61.973 328.882,79.755 314.663,96.936 C301.168,113.244 289.843,130.986 277.059,147.789 C265.814,162.566 249.615,176.991 244.256,195.324 C243.364,198.375 248.643,197.462 249.583,195.641 L249.583,195.641 Z" id="Shape"></path>
                    <path d="M236.777,186.827 C241.877,169.52 255.974,156.679 266.365,142.522 C278.849,125.515 290.359,107.82 302.551,90.606 C308.147,82.704 313.487,74.715 319.515,67.12 C325.486,59.598 331.898,52.425 338.018,45.024 C343.931,37.873 349.588,30.664 354.484,22.775 C356.783,19.072 359.012,15.427 362.138,12.359 C364.555,9.987 369.371,8.197 369.169,4.073 C368.879,-1.844 360.1,1.069 357.63,3.403 C356.11,4.839 354.915,6.95 355.068,9.098 C355.468,14.688 364.697,11.911 366.408,8.595 C365.457,9.303 365.304,9.431 365.95,8.98 C362.555,8.392 359.16,7.804 355.765,7.216 C356.586,4.85 356.394,4.586 355.187,6.422 C354.633,7.061 354.127,7.735 353.67,8.445 C352.605,9.974 351.665,11.606 350.733,13.218 C348.631,16.85 346.323,20.376 344.22,24.015 C339.595,32.023 333.603,39.232 327.821,46.422 C315.294,62 303.407,77.685 291.967,94.073 C280.259,110.847 269.069,127.975 256.945,144.458 C247.205,157.701 232.754,170.265 231.258,187.6 C231.021,190.361 236.234,188.667 236.777,186.827 L236.777,186.827 Z" id="Shape"></path>
                    <path d="M362.974,4.186 C360.241,14.811 374.153,17.712 381.692,17.008 C383.575,16.832 387.398,15.321 387.037,12.77 C385.612,2.719 374.469,1.335 366.089,0.622 C363.526,0.404 360.749,1.335 359.277,3.578 C357.974,5.564 358.938,7.604 361.217,8.05 C367.448,9.266 376.916,7.468 378.641,15.561 C380,13.939 381.36,12.317 382.719,10.695 C379.607,11.139 376.465,10.957 373.593,9.626 C370.607,8.242 369.733,4.977 367.92,2.527 C366.761,0.961 363.359,2.687 362.974,4.186 L362.974,4.186 Z" id="Shape"></path>
                    <path d="M228.785,185.25 C228.296,192.002 236.566,196.015 242.057,197.266 C244.39,197.797 247.333,196.37 248.611,194.421 C250.261,191.904 248.144,190.019 245.599,190.05 C243.746,190.073 241.79,189.411 239.941,188.492 C237.402,187.229 235.927,184.932 233.982,182.995 C232.395,181.413 228.932,183.233 228.785,185.25 L228.785,185.25 Z" id="Shape"></path>
                    <path d="M138.518,163.91 C139.587,160.482 139.295,156.966 141.434,153.899 C142.96,151.71 145.964,151.042 148.401,150.59 C151.108,150.089 153.987,150.164 156.711,150.473 C158.076,150.628 159.414,150.909 160.743,151.25 C161.944,151.559 161.891,151.545 161.928,151.646 C162.376,152.906 163.848,153.557 165.046,153.771 C165.388,153.833 165.723,153.892 166.058,153.984 C168.984,154.782 175.617,151.91 175.008,148.106 C174.904,147.451 174.803,146.784 174.541,146.171 C173.732,144.276 171.638,144.051 169.866,143.951 C169.268,143.918 170.473,143.959 168.984,143.745 C168.243,143.64 167.482,143.335 166.747,143.172 C164.512,142.676 162.2,142.49 159.919,142.358 C155.244,142.087 150.491,142.485 146.017,143.917 C141.216,145.453 137.088,147.951 133.947,151.932 C131.252,155.346 129.779,161.576 132.362,165.373 C133.829,167.534 137.808,166.183 138.518,163.91 L138.518,163.91 Z" id="Shape"></path>
                    <path d="M176.702,151.122 C179.14,148.332 181.333,145.346 185.045,144.307 C189.149,143.158 193.338,143.469 197.462,144.329 C201.164,145.102 204.924,146.579 207.855,149.003 C211.325,151.873 208.615,152.199 210.286,155.444 C212.328,159.407 218.247,157.112 220.681,154.932 C231.345,145.38 207.504,137.287 201.703,136.334 C195.454,135.308 188.788,135.68 182.901,138.098 C178.073,140.08 171.755,145 172.699,150.889 C172.999,152.77 175.781,152.174 176.702,151.122 L176.702,151.122 Z" id="Shape"></path>
                    <path d="M219.576,154.039 C222.744,150.015 230.26,149.461 234.932,149.65 C237.403,149.751 239.849,150.27 242.085,151.32 C244.411,152.413 243.378,153.864 244.612,155.719 C247.372,159.866 255.972,157.537 256.991,152.776 C259.025,143.277 243.398,141.904 237.294,142.474 C229.895,143.166 219.012,145.865 216.28,153.842 C215.591,155.859 218.928,154.863 219.576,154.039 L219.576,154.039 Z" id="Shape"></path>
                    <path d="M268.506,158.711 C271.172,160.106 273.586,161.332 275.904,163.311 C278.265,165.328 280.323,167.788 282.374,170.112 C282.556,170.318 282.423,170.066 282.66,170.915 C282.854,171.61 282.797,172.516 282.827,173.239 C282.884,174.6 282.245,175.734 282.251,177.179 C285.225,175.226 288.199,173.273 291.174,171.32 C291.166,171.319 291.158,171.317 291.152,171.315 C292.102,171.963 293.053,172.612 294.004,173.26 C293.646,172.406 293.21,171.694 292.554,171.02 C290.158,168.559 285.204,170.797 283.664,173.174 C282.111,175.571 281.435,178.063 284.101,179.847 C287.411,182.062 292.789,178.569 294.071,175.521 C294.748,173.909 293.795,172.25 293.612,170.709 C293.352,168.51 292.972,166.08 291.392,164.413 C286.269,159.01 277.818,153.308 270.035,155.583 C268.925,155.908 266.602,157.715 268.506,158.711 L268.506,158.711 Z" id="Shape"></path>
                    <path d="M309.248,185.809 C316.898,185.239 324.228,188.802 330.143,193.405 C333.324,195.88 336.147,198.932 338.208,202.397 C339.076,203.855 341.687,208.944 339.891,210.553 C337.576,212.626 337.905,216.112 341.235,216.689 C344.245,217.21 350.002,214.937 349.712,211.123 C349.409,207.14 349.707,204.13 347.843,200.31 C345.539,195.586 341.489,191.708 337.354,188.593 C329.558,182.722 317.94,178.378 308.813,183.791 C307.765,184.413 307.838,185.915 309.248,185.809 L309.248,185.809 Z" id="Shape"></path>
                    <path d="M345.571,217.374 C350.504,214.212 354.777,211.828 360.257,214.866 C364.847,217.411 367.469,223.151 369.108,227.855 C370.704,232.438 371.676,237.856 370.253,242.595 C370.08,243.174 369.807,243.607 369.349,244.241 C369.858,243.535 375.184,242.738 371.919,242.877 C368.104,243.038 373.052,242.346 369.427,243.233 C368.247,243.522 367.01,243.882 366.018,244.621 C364.51,245.742 363.421,246.858 363.275,248.805 C363.183,250.029 364.129,250.782 365.035,251.343 C371.506,255.352 379.253,247.54 380.284,241.647 C381.433,235.077 379.746,227.948 377.113,221.928 C374.385,215.694 369.701,209.726 362.925,207.852 C355.429,205.779 347.489,210.271 343.287,216.309 C342.209,217.856 344.737,217.908 345.571,217.374 L345.571,217.374 Z" id="Shape"></path>
                    <path d="M373.427,248.358 C380.18,244.993 384.534,252.586 386.359,258.014 C387.338,260.928 387.92,264.331 387.216,267.368 C387.034,268.149 386.217,269.694 386.412,269.481 C386.638,269.235 388.225,268.48 386.869,269.064 C388.248,268.469 385.153,269.465 384.484,269.783 C381.614,271.146 377.632,275.481 381.916,277.834 C387.904,281.124 395.533,275.163 397.854,269.888 C399.792,265.486 398.367,259.519 396.762,255.266 C392.775,244.696 381.685,239.15 372.196,246.609 C370.799,247.706 371.911,249.113 373.427,248.358 L373.427,248.358 Z" id="Shape"></path>
                    <path d="M89.23,201.004 C82.363,203.957 75.659,210.916 72.553,217.637 C69.447,224.359 75.71,230.261 82.304,228.869 C88.9,227.477 94.273,221.977 97.04,216.033 C99.38,211.008 100.518,198.496 91.71,199.581 C89.983,199.794 88.092,200.595 87.455,202.368 C86.591,204.775 88.023,206.003 89.143,207.945 C90.176,209.737 89.958,211.906 89.463,213.829 C88.57,217.303 86.037,221.32 82.671,222.841 C81.925,223.179 81.061,222.526 80.296,221.716 C78.39,219.697 79.083,217.161 80.282,214.983 C83.038,209.979 88.08,206.983 91.445,202.515 C92.596,200.989 90.219,200.58 89.23,201.004 L89.23,201.004 Z" id="Shape"></path>
                    <path d="M173.7,177.403 C172.903,179.045 172.775,180.63 172.574,182.397 C172.42,183.76 172.439,185.046 172.638,186.405 C173.004,188.911 173.926,191.177 175.473,193.18 C176.658,194.715 178.259,195.892 179.984,196.756 C180.315,196.922 180.647,197.082 180.992,197.219 C181.16,197.285 181.33,197.345 181.501,197.402 C181.831,197.512 182.174,197.61 182.502,197.709 C182.56,197.727 182.617,197.743 182.675,197.76 C181.729,197.472 181.786,197.489 182.846,197.811 C183.866,198.045 184.835,198.171 185.894,198.183 C190.018,198.226 195.045,196.072 197.013,192.257 C197.901,190.536 198.395,188.657 197.993,186.723 C197.474,184.226 196.34,182.253 194.736,180.262 C193.213,178.37 191.333,176.794 189.382,175.362 C187.887,174.264 186.302,173.289 184.692,172.369 C182.745,171.255 180.839,170.332 178.582,170.023 C176.54,169.744 174.38,170.49 172.909,171.934 C171.727,173.094 171.068,174.809 172.286,176.182 C173.765,177.848 175.902,178.703 177.807,179.784 C179.343,180.655 180.855,181.592 182.323,182.574 C182.042,182.386 181.761,182.197 181.48,182.01 C183.892,183.64 186.279,185.518 187.976,187.912 C187.803,187.666 187.631,187.42 187.458,187.174 C188.153,188.175 188.723,189.269 188.978,190.467 C188.917,190.184 188.858,189.901 188.798,189.616 C188.862,189.943 188.903,190.27 188.917,190.603 C188.923,190.759 188.919,190.916 188.911,191.071 C188.907,191.147 188.9,191.222 188.893,191.299 C188.836,191.887 189.065,190.338 188.983,190.789 C188.93,191.076 188.845,191.357 188.742,191.63 C188.612,191.969 188.255,192.604 188.964,191.215 C188.888,191.363 188.801,191.506 188.71,191.646 C188.633,191.765 188.548,191.879 188.46,191.993 C188.239,192.277 189.388,190.94 188.808,191.555 C188.707,191.66 188.601,191.76 188.494,191.857 C187.877,192.415 189.603,191.008 188.928,191.504 C188.282,191.98 187.913,192.09 189.164,191.436 C188.861,191.594 188.545,191.726 188.223,191.84 C187.835,191.98 189.755,191.368 188.828,191.628 C188.669,191.673 188.508,191.71 188.346,191.745 C188.182,191.781 188.016,191.809 187.85,191.837 C189.634,191.553 188.697,191.726 188.266,191.762 C187.913,191.791 187.557,191.801 187.204,191.806 C187.022,191.808 186.842,191.802 186.66,191.794 C186.145,191.773 187.789,191.87 187.269,191.829 C187.145,191.82 187.02,191.807 186.896,191.792 C186.519,191.75 186.146,191.677 185.777,191.591 C185.589,191.548 185.403,191.497 185.218,191.444 C186.507,191.816 185.582,191.558 185.28,191.439 C184.911,191.293 184.554,191.11 184.207,190.918 C184.029,190.819 183.855,190.714 183.683,190.606 C183.491,190.486 183.113,190.219 183.959,190.794 C183.844,190.716 183.73,190.633 183.617,190.551 C182.755,189.916 181.997,189.149 181.338,188.307 C181.166,188.089 180.991,187.874 180.826,187.653 C180.43,187.121 181.117,188.083 180.863,187.706 C180.768,187.567 180.679,187.426 180.59,187.283 C180.242,186.725 179.94,186.139 179.665,185.542 C179.067,184.234 178.652,182.897 178.145,181.559 C177.854,180.792 177.638,180.003 177.449,179.206 C177.295,178.556 177.148,177.526 176.773,176.675 C176.174,175.316 174.112,176.553 173.7,177.403 L173.7,177.403 Z" id="Shape"></path>
                    <path d="M166.184,252.158 C158.699,255.997 152.491,262.742 150.09,270.948 C147.661,279.247 155.178,284.653 162.813,282.055 C169.948,279.628 174.236,271.951 174.868,264.8 C175.645,255.993 166.864,250.096 158.856,253.473 C157.313,254.123 154.005,257.067 156.259,258.846 C159.615,261.496 163.905,260.451 164.608,265.76 C165.085,269.359 163.697,273.68 161.112,276.233 C160.324,277.011 159.569,276.418 158.623,276.051 C155.61,274.886 156.039,271.296 156.772,268.842 C158.219,263.994 162.843,256.436 167.344,253.807 C168.84,252.932 167.541,251.461 166.184,252.158 L166.184,252.158 Z" id="Shape"></path>
                    <path d="M254.907,251.264 C255.668,256.77 257.928,261.739 261.254,266.163 C264.885,270.993 269.449,272.886 275.084,274.324 C277.331,274.898 279.742,273.222 280.676,271.314 C283.886,264.748 282.753,257.566 277.988,252.117 C273.286,246.739 263.956,245.524 257.965,249.216 C256.524,250.104 252.78,252.969 254.984,254.92 C257.172,256.859 261.547,255.197 264.169,255.477 C272.06,256.318 274.986,264.965 273.232,271.635 C274.462,270.659 275.692,269.684 276.921,268.709 C272.619,269.334 268.206,264.807 265.722,261.914 C262.667,258.358 260.447,254.158 257.826,250.295 C257.156,249.31 254.73,249.977 254.907,251.264 L254.907,251.264 Z" id="Shape"></path>
                    <path d="M347.486,238.169 C338.634,242.979 333.236,252.92 332.951,262.815 C332.912,264.156 334.16,264.921 335.312,265.144 C345.204,267.055 354.565,259.962 357.847,250.907 C361.224,241.587 353.992,231.326 343.647,235.94 C341.927,236.708 338.494,239.713 340.851,241.726 C342.549,243.176 344.842,243.19 346.432,244.838 C347.572,246.02 347.648,248.443 347.402,249.94 C346.609,254.753 343.726,258.416 338.69,258.264 C339.84,259.062 340.992,259.861 342.142,260.659 C340.383,251.531 344.921,246.256 349.848,239.27 C351.013,237.62 348.314,237.719 347.486,238.169 L347.486,238.169 Z" id="Shape"></path>
                    <path d="M40.075,260.547 C44.023,261.834 47.692,262.608 50.948,265.379 C54.594,268.482 55.963,273.572 55.084,278.155 C56.131,277.14 57.178,276.127 58.225,275.112 C54.412,276.867 51.114,274.94 48.855,271.605 C46.084,267.514 46.577,263.734 46.331,259.144 C46.013,253.238 36.927,257.495 35.521,260.662 C32.729,266.955 36.394,275.263 41.137,279.551 C47.033,284.88 55.393,283.73 61.814,280.218 C62.871,279.64 64.068,278.192 63.985,276.906 C63.612,271.102 61.958,265.842 57.292,262.11 C52.914,258.609 46.48,257.306 41.058,258.54 C40.448,258.678 38.746,260.113 40.075,260.547 L40.075,260.547 Z" id="Shape"></path>
                    <path d="M73.787,431.086 C80.963,440.217 90.587,446.551 100.4,452.587 C110.851,459.016 121.922,464.287 133.4,468.607 C156.564,477.325 181.281,481.273 206.005,480.199 C255.752,478.038 300.915,451.202 330.723,411.951 C344.062,394.388 353.765,374.039 359.655,352.821 C362.705,341.833 364.74,330.54 365.855,319.196 C366.141,316.284 366.367,313.365 366.556,310.446 C366.72,307.932 367.549,304.467 365.863,302.367 C362.208,297.811 356.387,302.041 353.443,304.868 C354.924,304.069 356.406,303.269 357.886,302.47 C357.581,302.57 357.276,302.671 356.97,302.771 C354.401,303.617 350.851,305.382 350.892,308.621 C350.933,311.823 354.799,311.99 357.076,311.596 C360.022,311.084 361.978,309.554 364.086,307.578 C361.487,308.454 358.889,309.329 356.291,310.205 C356.409,310.218 356.528,310.23 356.646,310.244 C355.618,309.543 354.589,308.841 353.56,308.14 C354.623,309.929 353.793,314.291 353.763,316.329 C353.72,319.214 353.529,322.088 353.302,324.962 C352.808,331.229 351.909,337.454 350.708,343.622 C348.455,355.189 344.599,366.504 339.919,377.3 C330.481,399.074 315.985,418.445 298.317,434.211 C279.995,450.561 257.766,462.656 233.862,468.354 C209.345,474.196 183.558,473.014 159.052,467.786 C143.534,464.475 128.676,459.366 114.267,452.747 C100.477,446.413 88.299,437.543 75.278,429.883 C74.651,429.511 73.207,430.348 73.787,431.086 L73.787,431.086 Z" id="Shape"></path>
                </g>
            </g>
        </g>
    </g>
</svg>