<?xml version="1.0" encoding="UTF-8"?>
<svg width="542px" height="499px" viewBox="0 0 542 499" version="1.1" xmlns="http://www.w3.org/2000/svg" xmlns:xlink="http://www.w3.org/1999/xlink">
    <!-- Generator: Sketch 41 (35326) - http://www.bohemiancoding.com/sketch -->
    <title>river</title>
    <desc>Created with Sketch.</desc>
    <defs></defs>
    <g id="Page-1" stroke="none" stroke-width="1" fill="none" fill-rule="evenodd">
        <g id="Layer_1" transform="translate(-3254.000000, -3420.000000)" fill="#000000">
            <g id="Layer_1_3_">
                <g id="river" transform="translate(3254.000000, 3420.000000)">
                    <path d="M344.501,163.455 C346.653,171.03 341.064,179.172 335.515,183.609 C328.869,188.922 320.513,192.202 312.577,195.03 C301.085,199.128 289.242,202.215 277.547,205.675 C263.258,209.902 249.08,214.528 235.246,220.079 C221.854,225.454 207.754,231.566 196.875,241.288 C190.675,246.829 185.545,254.632 187.999,263.213 C191.343,274.904 207.467,280.565 217.865,281.861 C220.469,282.185 223.885,278.505 221.133,276.492 C216.817,273.334 212.874,270.345 208.195,267.685 C205.345,266.066 202.716,264.186 200.498,261.765 C199.346,260.506 198.061,258.31 197.852,257.273 C197.744,256.741 197.75,254.718 197.692,255.214 C197.88,253.649 197.982,253.712 198.436,252.726 C198.907,251.705 200.645,249.461 201.518,248.581 C203.523,246.56 205.789,244.766 208.132,243.155 C214.142,239.026 220.705,235.703 227.3,232.625 C251.717,221.229 277.855,214.305 303.401,206.014 C315.575,202.063 327.828,197.259 338.041,189.385 C342.23,186.156 345.926,181.914 347.882,176.964 C348.729,174.82 349.189,172.44 349.013,170.137 C348.785,167.153 347.024,165.298 345.866,162.677 C345.51,161.876 344.302,162.752 344.501,163.455 L344.501,163.455 Z" id="Shape"></path>
                    <path d="M366.741,154.004 C386.807,158.892 409.373,183.956 388.411,201.823 C377.959,210.732 363.421,215.716 351.025,221.203 C337.781,227.065 285.279,247.807 308.631,269.31 C316.964,276.983 330.283,282.643 341.43,282.579 C344.605,282.561 347.421,278.093 344.607,275.866 C337.075,269.906 326.933,268.189 318.958,262.563 C317.254,261.36 315.292,259.416 314.484,257.909 C313.453,255.987 313.562,255.279 314.034,253.639 C313.865,254.225 314.712,252.532 314.612,252.678 C315.35,251.582 315.854,251.058 316.138,250.768 C318.089,248.77 320.39,247.04 322.492,245.626 C328.567,241.542 335.151,238.148 341.678,234.855 C364.146,223.52 420.799,205.397 401.016,169.946 C397.9,164.361 393.047,159.96 387.615,156.693 C381.204,152.839 374.745,151.876 367.386,152.115 C366.519,152.145 365.562,153.717 366.741,154.004 L366.741,154.004 Z" id="Shape"></path>
                    <path d="M224.855,286.553 C231.195,291.439 231.278,301.951 228.831,309.04 C227.032,314.25 223.907,318.21 219.983,321.709 C209.56,331.003 195.155,335.909 181.933,339.772 C150.501,348.955 117.824,350.528 85.631,355.342 C78.01,356.482 70.391,357.027 62.835,358.64 C60.495,359.14 59.305,363.279 62.447,363.279 C89.041,363.281 115.437,362.205 141.772,358.142 C158.663,355.537 175.562,352.088 191.752,346.542 C205.119,341.962 218.993,335.655 228.821,325.195 C233.873,319.819 237.704,313.576 239.176,306.274 C241.19,296.294 239.463,283.822 228.166,281.106 C225.405,280.443 222.282,284.571 224.855,286.553 L224.855,286.553 Z" id="Shape"></path>
                    <path d="M346.315,282.382 C368.942,291.009 393.578,302.396 398.358,328.866 C402.955,354.323 384.132,379.138 367.972,396.84 C336.009,431.851 291.137,454.066 247.905,471.762 C238.36,475.669 228.798,479.527 219.282,483.5 C210.303,487.25 200.93,490.013 192.015,493.92 C190.291,494.675 188.381,499.028 191.64,498.401 C202.064,496.391 212.012,492.647 222.244,489.909 C233.373,486.93 244.327,482.661 255.014,478.376 C277.422,469.39 299.232,458.852 319.853,446.275 C339.998,433.989 359.003,419.522 375.072,402.184 C391.547,384.409 407.407,362.176 409.488,337.381 C410.927,320.234 403.116,304.402 390.134,293.649 C378.545,284.048 362.839,276.616 347.629,279.603 C346.77,279.773 344.658,281.75 346.315,282.382 L346.315,282.382 Z" id="Shape"></path>
                    <path d="M299.915,134.563 C317.602,120.321 330.244,100.972 347.252,85.955 C360.518,74.243 383.601,61.142 398.8,76.788 C409.238,87.533 411.935,103.688 422.982,114.033 C428.795,119.477 435.901,121.404 443.655,119.661 C455.965,116.894 466.902,110.981 479.835,113.677 C493.896,116.607 505.014,129.05 514.81,138.781 C519.53,143.469 524.212,148.197 528.792,153.022 C530.917,155.261 535.642,159.031 536.616,161.797 C537.573,164.51 542.126,161.584 541.266,159.147 C539.241,153.403 532.675,148.401 528.573,144.187 C522.383,137.83 516.063,131.596 509.707,125.407 C501.394,117.312 490.888,109.958 479.279,108.045 C467.669,106.132 456.878,111.215 445.938,114.193 C427.373,119.248 419.5,99.853 412.43,86.551 C409.146,80.371 405.414,73.96 399.735,69.674 C393.444,64.925 385.899,63.863 378.234,65.01 C361.248,67.551 347.048,79.674 335.573,91.632 C322.734,105.009 312.009,120.329 299.043,133.567 C298.272,134.352 299.042,135.265 299.915,134.563 L299.915,134.563 Z" id="Shape"></path>
                    <path d="M146.741,19.004 C157.782,21.229 168.386,14.872 179.563,16.32 C190.251,17.704 199.295,24.851 206.704,32.186 C220.589,45.934 231.827,62.707 243.333,78.421 C254.935,94.265 266.722,110.095 280.799,123.859 C287.633,130.541 295.099,136.587 303.114,141.794 C307.05,144.352 311.18,146.592 315.406,148.627 C317.551,149.66 319.748,150.574 321.957,151.456 C323.345,152.01 328.016,154.527 328.36,152.555 C329.615,151.651 330.869,150.745 332.124,149.84 C331.868,149.754 331.611,149.667 331.355,149.58 C329.104,148.819 325.823,153.305 328.449,154.355 C328.698,154.454 328.946,154.553 329.195,154.653 C331.02,155.382 333.108,153.994 333.527,152.136 C334.199,149.154 330.164,148.463 328.211,147.779 C323.278,146.05 318.527,143.836 313.918,141.384 C304.586,136.422 296.145,129.946 288.367,122.828 C272.816,108.599 260.148,91.497 247.679,74.607 C235.509,58.126 223.54,40.702 208.562,26.604 C201.333,19.8 192.74,14.288 182.839,12.557 C170.903,10.471 159.212,16.44 147.387,17.115 C146.545,17.165 145.536,18.761 146.741,19.004 L146.741,19.004 Z" id="Shape"></path>
                    <path d="M254.041,85.733 C258.212,85.157 261.803,83.092 265.534,81.253 C270.762,78.675 276.227,77.361 282.06,77.947 C289.435,78.687 295.446,83.281 300.878,87.934 C310.095,95.83 324.271,105.79 336.125,96.14 C337.232,95.239 337.173,93.45 335.537,93.41 C331.811,93.319 328.265,94.813 324.474,94.616 C321.036,94.436 317.864,93.132 314.917,91.436 C309.364,88.241 304.81,83.483 299.664,79.704 C294.224,75.71 288.231,73.46 281.466,73.35 C270.782,73.175 262.965,79.874 253.972,84.514 C253.491,84.762 253.224,85.845 254.041,85.733 L254.041,85.733 Z" id="Shape"></path>
                    <path d="M148.391,17.096 C141.134,18.072 134.899,14.826 129.757,9.955 C127.159,7.495 124.741,4.985 121.669,3.106 C116.883,0.178 111.313,-0.305 105.95,1.007 C92.458,4.308 82.784,18.568 75.877,29.53 C65.623,45.806 57.892,63.655 50.707,81.448 C44.401,97.063 39.061,113.001 34.508,129.2 C33.9,131.368 37.081,130.723 37.713,129.349 C52.066,98.152 62.058,64.984 79.473,35.202 C85.54,24.824 93.96,10.661 106.271,6.925 C111.489,5.341 116.529,7.474 120.718,10.53 C129.311,16.8 137.038,23.788 148.233,18.981 C148.972,18.667 149.784,16.91 148.391,17.096 L148.391,17.096 Z" id="Shape"></path>
                    <path d="M297.341,274.545 C305.375,298.128 336.684,299.117 353.303,313.662 C369.105,327.491 366.809,348.016 356.634,364.472 C343.838,385.166 321.448,399.39 301.486,412.338 C278.367,427.333 253.664,439.898 228.183,450.355 C202.649,460.833 176.212,468.941 150.118,477.855 C148.69,478.343 148.323,480.683 150.249,480.277 C203.595,469.001 255.958,447.359 301.931,418.06 C321.993,405.275 343.403,391.244 357.703,371.861 C367.952,357.97 375.091,339.277 367.728,322.5 C362.275,310.078 349.701,302.794 337.59,298.17 C330.249,295.367 322.964,292.533 315.983,288.904 C308.813,285.176 303.713,279.797 298.923,273.417 C298.358,272.664 297.089,273.805 297.341,274.545 L297.341,274.545 Z" id="Shape"></path>
                    <path d="M330.749,153.448 C330.821,153.512 330.894,153.577 330.966,153.642 C330.913,154.103 330.987,154.484 331.405,154.746 C334.148,156.463 337.244,157.615 339.591,159.907 C343.517,163.741 342.103,169.189 343.914,173.79 C344.386,174.987 346.012,174.071 346.375,173.288 C348.862,167.94 347.501,160.786 343.263,156.685 C341.562,155.039 339.351,154.028 337.153,153.245 C334.969,152.468 333.411,152.558 331.291,152.568 C330.921,152.57 330.46,153.109 330.749,153.448 L330.749,153.448 Z" id="Shape"></path>
                    <path d="M329.886,155.453 C334.236,154.96 338.482,153.78 342.837,153.243 C348.361,152.561 353.968,152.604 359.509,153.029 C370.47,153.869 379.321,158.388 389.394,162.108 C390.441,162.495 391.906,161.259 391.181,160.19 C385.21,151.374 371.451,149.346 361.656,148.477 C351.565,147.581 338.876,148.043 329.744,152.916 C328.744,153.45 328.177,155.647 329.886,155.453 L329.886,155.453 Z" id="Shape"></path>
                    <path d="M261.225,230.708 C249.115,234.914 235.593,235.664 225.746,244.777 C222.712,247.585 219.801,251.704 219.733,256.006 C219.635,262.224 223.822,266.88 228.231,270.777 C232.461,274.515 237.893,276.184 242.929,278.507 C250.301,281.908 254.179,288.13 254.151,296.234 C254.104,310.06 240.809,320.475 232.307,329.617 C231.531,330.451 232.522,331.533 233.449,330.918 C248.982,320.604 271.674,293.442 250.75,277.025 C246.189,273.449 240.139,272.072 235.096,269.322 C229.587,266.318 223.059,259.84 224.473,253.011 C225.998,245.637 235.494,241.474 241.632,239.078 C248.195,236.516 254.779,234.227 261.267,231.473 C261.686,231.295 261.822,230.501 261.225,230.708 L261.225,230.708 Z" id="Shape"></path>
                    <path d="M370.08,164.286 C377.146,166.685 382.802,173.163 385.129,180.163 C387.15,186.243 383.885,191.829 379.623,195.947 C371.177,204.108 359.266,208.279 348.973,213.513 C348.341,213.834 348.35,214.989 349.218,214.697 C361.889,210.438 376.599,204.536 384.937,193.557 C393.875,181.788 383.469,165.903 370.288,163.846 C370.053,163.81 369.791,164.187 370.08,164.286 L370.08,164.286 Z" id="Shape"></path>
                    <path d="M372.854,177.354 C379.5,187.79 365.114,193.93 358.014,198.625 C357.441,199.004 357.607,199.859 358.352,199.506 C365.658,196.039 384.02,186.608 373.512,176.777 C373.186,176.473 372.623,176.991 372.854,177.354 L372.854,177.354 Z" id="Shape"></path>
                    <path d="M327.947,319.378 C334.37,323.208 340.028,329.077 342.734,336.107 C345.233,342.599 342.887,349.208 339.061,354.588 C331.59,365.093 319.308,371.278 308.931,378.407 C308.093,378.982 308.317,380.261 309.435,379.723 C321.832,373.774 336.499,364.909 343.387,352.523 C346.345,347.204 347.374,341.633 345.784,335.703 C343.458,327.015 336.091,322.156 328.419,318.753 C328.084,318.605 327.572,319.156 327.947,319.378 L327.947,319.378 Z" id="Shape"></path>
                    <path d="M75.458,126.657 C74.913,119.195 68.822,111.089 76.036,104.788 C81.584,99.942 90.75,99.751 97.634,100.558 C104.749,101.392 112.79,103.856 117.515,109.566 C123.334,116.598 116.793,123.472 113.578,129.767 C112.78,131.33 114.448,132.198 115.729,131.496 C124.548,126.668 129.473,114.701 123.922,105.882 C118.989,98.043 107.82,95.104 99.228,94.344 C89.974,93.526 78.947,94.927 72.041,101.762 C68.792,104.977 67.051,109.09 66.916,113.645 C66.775,118.401 69.199,125.555 73.338,128.184 C74.229,128.748 75.524,127.565 75.458,126.657 L75.458,126.657 Z" id="Shape"></path>
                    <path d="M74.005,126.344 C68.303,121.332 59.693,122.869 53.578,126.283 C47.123,129.887 42.701,136.362 40.574,143.313 C38.563,149.888 39.585,157.174 43.94,162.558 C49.373,169.276 61.417,172.2 69.277,168.824 C70.209,168.424 72.34,166.124 70.465,165.373 C63.906,162.75 56.652,164.282 50.88,159.234 C46.769,155.637 45.507,150.05 46.357,144.82 C47.218,139.519 50.369,134.444 54.761,131.344 C60.29,127.442 66.572,128.003 72.981,128.007 C73.594,128.008 74.66,126.919 74.005,126.344 L74.005,126.344 Z" id="Shape"></path>
                    <path d="M120.234,128.008 C131.73,125.383 146.971,131.773 147.016,145.306 C147.051,155.942 134.709,160.672 128.764,167.299 C127.907,168.254 128.288,170.069 129.793,169.883 C136.135,169.1 141.895,163.484 146.051,159.02 C150.304,154.454 153.074,148.528 152.866,142.236 C152.634,135.178 146.862,129.257 141.02,126.114 C134.191,122.441 126.707,123.075 119.867,126.24 C118.854,126.709 118.945,128.303 120.234,128.008 L120.234,128.008 Z" id="Shape"></path>
                    <path d="M68.127,166.046 C63.049,167.631 58.969,171.473 60.794,177.179 C62.406,182.223 70.535,186.989 75.148,183.166 C75.654,182.747 76.22,181.781 75.866,181.105 C75.074,179.594 73.334,179.329 71.79,178.858 C70.061,178.331 68.423,177.447 67.103,176.212 C63.841,173.161 64.487,169.903 68.524,167.957 C69.571,167.455 69.528,165.61 68.127,166.046 L68.127,166.046 Z" id="Shape"></path>
                    <path d="M66.892,179.562 C57.816,177.466 48.329,176.87 40.071,181.94 C34.184,185.555 30.58,191.981 31.064,198.91 C32.347,217.296 58.616,223.972 72.743,217.528 C73.929,216.987 74.735,214.698 73.005,214.323 C65.032,212.593 57.064,213.892 49.328,210.544 C44.033,208.251 39.631,204.149 37.849,198.588 C32.925,183.219 56.132,181.638 65.474,182.57 C67.02,182.724 68.959,180.04 66.892,179.562 L66.892,179.562 Z" id="Shape"></path>
                    <path d="M132.932,168.237 C143.443,168.597 149.193,175.933 148.155,186.301 C147.664,191.201 145.483,195.967 141.998,199.452 C137.433,204.016 131.693,204.055 126.089,206.306 C125.054,206.722 123.119,208.912 124.901,209.757 C131.261,212.769 140.022,208.062 144.783,203.934 C149.82,199.565 152.952,193.16 153.876,186.617 C155.663,173.969 146.562,162.03 133.124,165.957 C132.005,166.284 131.365,168.184 132.932,168.237 L132.932,168.237 Z" id="Shape"></path>
                    <path d="M130.035,209.434 C131.868,218.852 125.586,224.846 117.302,227.721 C109.241,230.519 101.636,229.127 93.441,228.867 C92.558,228.84 91.441,230.193 92.139,230.982 C98.276,237.931 113.275,234.256 120.347,231.198 C129.874,227.078 135.908,218.746 132.28,208.441 C131.859,207.249 129.836,208.419 130.035,209.434 L130.035,209.434 Z" id="Shape"></path>
                    <path d="M63.948,219.167 C59.53,236.632 89.599,236.423 99.572,231.082 C100.229,230.729 101.081,228.938 99.755,228.855 C92.055,228.376 63.803,233.983 66.419,218.965 C66.726,217.2 64.267,217.905 63.948,219.167 L63.948,219.167 Z" id="Shape"></path>
                    <path d="M88.589,242.936 C88.51,242.294 88.43,241.654 88.351,241.012 C88.327,240.811 88.036,240.928 88.018,241.079 C87.941,241.752 87.863,242.425 87.786,243.098 C87.715,243.706 88.65,243.426 88.589,242.936 L88.589,242.936 Z" id="Shape"></path>
                    <path d="M88.547,240.949 C88.757,237.588 89.155,233.444 90.346,230.283 C91.013,228.512 88.555,228.446 88.02,229.849 C83.832,240.825 84.161,254.632 86.112,266.05 C86.295,267.115 86.764,267.674 87.808,267.983 C87.968,268.031 88.129,268.078 88.289,268.125 C90.572,268.8 93.153,265.824 92.456,263.684 C92.2,262.899 92.14,261.895 91.906,261.084 C91.463,259.543 89.438,260.646 88.826,261.334 C87.582,262.731 87.686,263.257 86.957,264.805 C88.676,264.241 90.395,263.677 92.113,263.114 C91.059,262.209 91.127,256.956 90.962,255.573 C90.611,252.63 90.47,249.665 90.373,246.705 C90.188,241.022 90.773,235.31 90.481,229.651 C89.635,230.025 88.79,230.399 87.943,230.773 C89.152,233.909 87.882,237.87 87.818,241.184 C87.809,241.655 88.525,241.31 88.547,240.949 L88.547,240.949 Z" id="Shape"></path>
                    <path d="M96.66,232.19 C95.173,237.368 95.347,243.164 95.139,248.509 C95.008,251.907 93.438,258.925 96.19,261.577 C97.296,262.644 99.196,261.964 99.967,260.792 C102.45,257.025 101.39,251.995 101.272,247.7 C101.126,242.387 101.406,236.303 99.667,231.22 C99.096,229.553 96.944,231.202 96.66,232.19 L96.66,232.19 Z" id="Shape"></path>
                    <path d="M48.465,135.334 C45.035,129.225 34.806,129.294 28.976,131.135 C21.702,133.433 16.213,139.708 12.322,145.969 C2.687,161.469 -1.425,182.116 1.511,200.08 C2.846,208.246 6.118,217.078 12.364,222.78 C17.415,227.392 23.799,230.376 30.225,232.513 C42.331,236.54 59.622,234.229 61.463,218.799 C62.043,213.934 55.907,216.157 54.902,219.33 C53.308,224.364 50.908,226.979 45.525,227.527 C40.365,228.053 34.925,226.431 30.197,224.523 C25.724,222.717 21.326,220.227 17.733,216.991 C12.097,211.913 9.479,203.636 8.25,196.399 C5.756,181.711 9.151,165.905 15.286,152.503 C17.912,146.768 21.614,141.163 27.095,137.832 C33.911,133.689 39.934,137.706 46.907,137.355 C47.685,137.319 48.959,136.214 48.465,135.334 L48.465,135.334 Z" id="Shape"></path>
                    <path d="M26.55,228.198 C25.506,234.173 24.984,240.483 25.226,246.543 C25.399,250.851 26.131,259.022 31.211,260.129 C32.788,260.473 34.334,258.858 34.354,257.37 C34.381,255.269 33.318,253.979 32.465,252.099 C31.225,249.364 30.937,246.26 30.698,243.305 C30.275,238.07 30.749,232.714 29.849,227.533 C29.503,225.534 26.809,226.711 26.55,228.198 L26.55,228.198 Z" id="Shape"></path>
                    <path d="M36.418,232.631 C36.201,238.067 35.761,243.459 36.174,248.902 C36.467,252.769 36.692,257.288 39.873,259.795 C41.023,260.701 42.945,259.024 43.117,257.91 C43.761,253.755 41.844,249.616 41.235,245.482 C40.554,240.861 40.143,236.167 39.947,231.501 C39.85,229.166 36.487,230.893 36.418,232.631 L36.418,232.631 Z" id="Shape"></path>
                </g>
            </g>
        </g>
    </g>
</svg>