<?xml version="1.0" encoding="UTF-8"?>
<svg width="509px" height="470px" viewBox="0 0 509 470" version="1.1" xmlns="http://www.w3.org/2000/svg" xmlns:xlink="http://www.w3.org/1999/xlink">
    <!-- Generator: Sketch 41 (35326) - http://www.bohemiancoding.com/sketch -->
    <title>salt</title>
    <desc>Created with Sketch.</desc>
    <defs></defs>
    <g id="Page-1" stroke="none" stroke-width="1" fill="none" fill-rule="evenodd">
        <g id="Layer_1" transform="translate(-4879.000000, -2734.000000)" fill="#000000">
            <g id="Layer_1_3_">
                <g id="salt" transform="translate(4879.000000, 2734.000000)">
                    <path d="M435.921,197.424 C426.865,184.57 410.254,198.877 403.122,206.418 C392.101,218.068 383.246,231.7 375.265,245.556 C373.215,249.115 370.735,253.399 368.236,258.587 C364.971,265.363 362.104,272.336 359.554,279.409 C353.748,295.512 349.043,312.373 348.503,329.575 C348.098,342.48 351.6,357.857 365.102,362.808 C384.201,369.811 404.4,357.199 417.768,344.47 C433.706,329.297 445.957,309.92 455.338,290.131 C462.559,274.9 468.005,258.548 470.132,241.79 C471.943,227.526 471.721,210.943 462.186,199.24 C451.025,185.543 429.119,186.637 415.145,194.669 C411.574,196.722 410.118,202.923 415.616,203.041 C429.831,203.349 446.324,199.203 453.693,214.583 C460.092,227.937 457.171,244.964 453.802,258.717 C449.657,275.636 442.172,291.952 433.122,306.786 C422.826,323.662 408.757,343.383 389.386,350.405 C382.793,352.796 375.218,353.205 369.118,349.38 C364.796,346.668 362.537,340.918 361.658,335.882 C358.936,320.283 363.442,303.465 367.945,288.633 C375.945,262.279 389.016,236.916 405.851,215.104 C411.437,207.866 421.689,194.687 431.756,201.892 C434.025,203.515 437.45,199.594 435.921,197.424 L435.921,197.424 Z" id="Shape"></path>
                    <path d="M303.388,332.403 C310.784,339.2 321.644,342.669 330.67,346.773 C335.726,349.071 340.768,351.4 345.836,353.672 C350.568,355.793 355.692,358.507 360.836,359.32 C366.143,360.158 373.684,351.948 367.682,348.07 C363.265,345.216 357.427,343.784 352.512,341.891 C347.252,339.866 342.019,337.774 336.77,335.722 C327.158,331.963 316.656,327.35 306.139,327.933 C304.507,328.025 301.624,330.782 303.388,332.403 L303.388,332.403 Z" id="Shape"></path>
                    <path d="M383.426,173.307 C387.854,176.56 394.171,178.198 399.273,180.166 C406.59,182.991 413.789,186.121 420.81,189.616 C427.59,192.991 434.235,196.639 440.522,200.871 C444.883,203.807 454.37,210.716 457.761,202.242 C460.639,195.049 452.619,190.82 447.484,187.633 C440.91,183.552 433.924,180.126 426.824,177.07 C414.964,171.966 398.548,164.3 385.343,167.734 C383.059,168.329 381.161,171.641 383.426,173.307 L383.426,173.307 Z" id="Shape"></path>
                    <path d="M392.026,168.578 C385.054,164.197 375.354,167.973 368.94,171.557 C359.957,176.576 352.45,184.457 345.836,192.198 C334.372,205.611 325.338,220.642 317.913,236.616 C309.676,254.336 303.241,273.372 300.688,292.793 C299.515,301.71 299.248,310.765 300.684,319.663 C301.315,323.568 302.232,327.504 303.724,331.175 C305.538,335.639 308.734,337.908 312.958,339.947 C316.268,341.545 320.309,337.655 319.391,334.302 C318.418,330.746 318.144,327.145 316.926,323.649 C315.83,320.502 314.996,317.298 314.475,314.008 C313.241,306.215 313.508,298.16 314.478,290.358 C316.584,273.413 322.077,256.95 328.88,241.356 C334.845,227.686 342.14,214.805 351.094,202.88 C356.208,196.068 361.718,189.493 368.143,183.877 C374.875,177.991 382.375,175.129 390.703,172.428 C392.11,171.971 393.771,169.673 392.026,168.578 L392.026,168.578 Z" id="Shape"></path>
                    <path d="M343.564,286.387 C346.37,276.802 347.841,267.144 351.535,257.787 C355.547,247.622 360.792,237.871 366.87,228.802 C372.877,219.84 379.898,211.559 387.951,204.374 C391.466,201.238 395.222,198.426 399.218,195.935 C403.355,193.356 407.932,191.868 412.146,189.517 C415.481,187.657 417.729,179.6 411.644,180.579 C401.224,182.255 391.128,190.422 383.457,197.215 C374.354,205.276 366.623,214.92 360.073,225.129 C353.585,235.24 348.401,246.022 344.76,257.472 C341.95,266.31 338.671,277.837 341.654,287.003 C342.002,288.072 343.383,287.001 343.564,286.387 L343.564,286.387 Z" id="Shape"></path>
                    <path d="M358.315,208.729 C348.511,213.59 341.999,222.83 335.973,231.738 C328.5,242.784 323.264,255.251 319.186,267.891 C311.81,290.756 308.128,318.813 318.485,341.378 C320.995,346.845 329.462,341.536 328.955,336.747 C328.744,334.752 328.511,332.928 326.891,331.574 C324.896,329.906 322.095,330.884 320.648,332.871 C319.271,334.764 318.58,336.559 318.348,338.891 C321.801,337.778 325.254,336.664 328.708,335.552 C319.354,315.171 322.696,290.687 328.193,269.725 C331.241,258.105 335.739,246.876 341.196,236.186 C346.079,226.62 352.704,218.229 359.29,209.84 C359.919,209.04 359.149,208.315 358.315,208.729 L358.315,208.729 Z" id="Shape"></path>
                    <path d="M433.207,225.929 C432.075,224.323 429.594,225.558 428.339,226.325 C425.64,227.972 423.716,230.778 422.395,233.584 C420.436,237.747 420.527,242.944 422.951,246.898 C426.222,252.235 432.139,247.152 434.312,243.607 C436.974,239.269 439.472,233.262 438.703,228.053 C437.56,220.315 428.681,224.7 425.822,228.393 C425.267,229.11 425.074,229.768 424.827,230.609 C424.575,231.468 425.328,232.357 426.225,232.202 C427.733,231.942 428.743,231.358 430.071,230.621 C430.2,230.55 431.275,229.947 430.912,230.096 C431.752,229.732 431.938,229.648 431.472,229.843 C434.105,228.688 431.152,229.923 432.241,229.528 C432.885,229.294 432.5,229.46 432.391,229.41 C432.536,229.476 432.156,229.069 432.589,229.626 C432.158,229.073 432.627,229.778 432.711,230.035 C432.83,230.393 432.69,229.701 432.784,230.415 C432.837,230.817 432.843,231.227 432.843,231.631 C432.844,232.465 432.762,232.93 432.557,234.02 C432.167,236.105 431.651,237.607 430.848,239.451 C430.003,241.391 429.575,242.18 428.244,243.733 C428.81,243.07 428.144,243.802 427.998,243.93 C428.061,243.875 427.803,244.035 428.217,243.859 C427.674,244.09 428.194,243.887 428.419,243.908 C428.297,243.897 428.574,244.067 428.034,243.727 C428.464,243.998 427.832,243.485 427.734,243.37 C427.455,243.041 427.372,242.859 427.171,242.456 C426.476,241.061 426.066,239.543 425.976,237.993 C425.825,235.395 427.054,232.847 428.575,230.83 C429.793,229.213 431.556,228.291 432.996,226.922 C433.269,226.659 433.448,226.271 433.207,225.929 L433.207,225.929 Z" id="Shape"></path>
                    <path d="M397.885,272.119 C394.836,272.307 392.025,275.992 390.458,278.268 C388.35,281.333 386.542,285.436 387.33,289.221 C388.019,292.53 391.31,295.372 394.789,295.193 C398.552,295 401.488,292.455 403.719,289.623 C408.36,283.727 410.615,274.569 403.967,269.337 C400.682,266.751 396.032,268.972 393.224,271.057 C390.1,273.376 388.17,277.453 389.233,281.244 C389.635,282.679 391.479,281.363 391.876,280.705 C393.741,277.613 397.593,271.547 401.083,275.959 C403.705,279.273 401.395,284.288 399.315,287.244 C398.416,288.523 397.232,289.862 395.555,289.541 C393.332,289.116 392.346,286.785 392.543,284.782 C392.977,280.386 396.109,277.295 398.647,274.035 C399.247,273.264 399.028,272.049 397.885,272.119 L397.885,272.119 Z" id="Shape"></path>
                    <path d="M431.807,274.483 C429.893,274.679 428.28,276.462 427.093,277.829 C425.055,280.177 423.307,282.722 422.229,285.653 C420.887,289.3 421.563,293.281 424.339,296.101 C429.171,301.008 433.79,293.363 435.07,289.366 C436.626,284.51 437.265,278.291 435.677,273.364 C433.378,266.232 425.439,271.573 423.181,275.833 C421.814,278.409 421.253,279.159 421.054,281.96 C420.954,283.358 422.823,282.917 423.438,282.427 C424.302,281.738 424.964,281.141 425.666,280.275 C424.981,281.121 426.887,279.076 427.208,278.648 C428.079,277.488 428.771,276.79 429.584,276.059 C430.397,275.328 429.281,276.133 430.092,275.658 C430.48,275.431 429.446,275.803 429.752,275.779 C429.092,275.83 428.93,275.277 429.502,276.059 C429.064,275.462 429.6,276.314 429.686,276.529 C429.831,276.892 429.93,277.272 430.024,277.651 C430.029,277.67 430.245,279.341 430.284,280.004 C430.415,282.199 430.263,284.037 429.94,286.118 C429.616,288.21 429.179,289.976 428.526,291.452 C428.435,291.657 427.78,292.779 428.289,291.977 C427.782,292.776 428.268,292.121 428.144,292.239 C428.336,292.052 429.229,291.799 429.55,291.931 C429.033,291.716 428.83,291.407 428.246,290.576 C427.525,289.549 426.84,288.408 426.951,287.11 C427.34,282.551 430.625,279.492 432.512,275.637 C432.783,275.084 432.48,274.414 431.807,274.483 L431.807,274.483 Z" id="Shape"></path>
                    <path d="M399.319,309.74 C390.03,313.971 379.514,331.061 388.772,339.563 C395.143,345.413 400.2,336.447 401.173,330.942 C402.283,324.661 402.58,315.675 398.779,310.173 C396.829,307.35 393.41,308.382 391.115,310.044 C387.627,312.569 386.086,317.852 386.167,321.923 C386.196,323.42 388.113,322.733 388.668,322.045 C390.629,319.611 392.174,316.88 394.104,314.414 C394.815,313.506 394.288,314.568 393.362,314.408 C392.915,314.33 393.426,314.548 393.676,314.996 C395.895,318.983 395.737,324.602 395.467,328.996 C395.343,331.016 395.022,333.207 394.265,335.095 C394.019,335.709 393.276,336.351 394.089,335.809 C394.748,335.37 394.781,335.858 393.845,335.326 C384.766,330.165 395.032,315.569 400.094,311.033 C400.905,310.307 400.343,309.273 399.319,309.74 L399.319,309.74 Z" id="Shape"></path>
                    <path d="M94.462,23.512 C96.607,23.563 98.597,22.315 100.525,21.516 C103.343,20.349 106.173,19.203 109.032,18.139 C115.814,15.613 122.749,13.412 129.873,12.087 C136.956,10.769 144.256,10.206 151.39,11.398 C154.588,11.932 157.541,13.002 160.372,14.567 C163.378,16.229 165.174,18.141 168.83,18.04 C170.702,17.989 173.037,16.097 173.239,14.171 C174.05,6.437 164.486,3.26 158.369,1.679 C150.304,-0.406 141.428,0.238 133.31,1.616 C125.227,2.988 117.153,5.221 109.575,8.361 C103.777,10.763 95.301,13.762 92.004,19.492 C90.799,21.586 92.323,23.461 94.462,23.512 L94.462,23.512 Z" id="Shape"></path>
                    <path d="M95.748,18.205 C77.343,23.201 63.657,39.898 52.634,54.519 C39.749,71.608 27.584,89.89 17.67,108.862 C7.847,127.661 1.214,148.062 0.222,169.334 C-0.266,179.776 1.141,190.173 3.644,200.292 C5.092,206.146 7.171,211.824 9.521,217.368 C10.687,220.12 13.238,221.999 14.703,224.454 C15.836,226.352 16.723,228.048 18.224,229.688 C19.704,231.304 22.463,229.384 22.771,227.65 C24.461,218.092 18.06,208.404 15.259,199.569 C12.141,189.73 10.82,179.46 10.82,169.161 C10.822,149.166 17.582,129.829 26.455,112.159 C35.426,94.296 47.108,77.647 58.658,61.371 C69.554,46.015 82.16,33.238 97.215,21.975 C99.147,20.527 98.337,17.502 95.748,18.205 L95.748,18.205 Z" id="Shape"></path>
                    <path d="M172.906,43.737 C134.88,17.894 89.301,49.604 65.431,79.705 C37.66,114.725 21.079,163.621 38.407,206.929 C43.415,219.447 51.225,232.126 61.192,241.294 C70.608,249.956 82.286,255.698 94.143,260.206 C118.372,269.414 144.122,274.378 169.27,280.28 C171.82,280.879 175.452,276.566 172.561,274.873 C154.013,264.009 131.766,260.925 111.422,254.656 C100.863,251.403 90.52,247.346 80.97,241.752 C71.397,236.145 64.242,228.665 58.02,219.571 C43.613,198.511 38.248,172.95 42.831,147.855 C46.698,126.684 56.386,106.519 68.816,89.084 C80.5,72.695 95.491,58.286 113.811,49.615 C132.087,40.965 151.743,41.806 170.711,47.342 C172.477,47.857 174.691,44.95 172.906,43.737 L172.906,43.737 Z" id="Shape"></path>
                    <path d="M208.914,73.367 C222.485,80.304 235.134,89.407 247.613,98.118 C253.977,102.559 260.363,106.97 266.909,111.142 C273.804,115.538 281.464,118.878 288.647,122.795 C303.04,130.645 317.36,138.764 330.819,148.14 C335.914,151.69 340.484,155.344 344.239,160.28 C345.501,161.937 346.71,163.664 347.757,165.465 C348.19,166.209 348.554,166.984 348.901,167.771 C350.182,170.675 357.158,162.783 353.601,162.781 C349.8,162.78 345.062,169.143 349.365,171.733 C354.318,174.712 359.506,169.894 359.803,164.904 C360.069,160.429 355.009,154.856 352.518,151.598 C348.163,145.903 342.037,141.97 336.108,138.064 C327.647,132.492 318.702,127.783 309.766,123.031 C292.602,113.905 274.841,106.123 258.18,96.086 C242.569,86.683 227.45,77.281 210.059,71.488 C209.178,71.194 207.904,72.85 208.914,73.367 L208.914,73.367 Z" id="Shape"></path>
                    <path d="M187.081,283.146 C195.214,287.813 203.196,292.493 211.638,296.703 C222.287,302.015 232.822,307.682 243.724,312.464 C253.543,316.77 263.786,320.597 274.353,322.571 C282.312,324.059 294.017,325.379 301.134,320.483 C304.046,318.481 306.972,310.762 300.636,311.619 C297.102,312.097 293.904,313.243 290.293,313.419 C285.797,313.638 281.281,312.898 276.886,312.034 C266.342,309.96 256.234,306.388 246.118,302.842 C226.694,296.029 208.214,285.529 187.944,281.728 C187.287,281.604 186.302,282.699 187.081,283.146 L187.081,283.146 Z" id="Shape"></path>
                    <path d="M28.774,237.934 C31.611,248.622 43.176,257.05 51.869,263.026 C62.339,270.223 73.48,276.506 84.917,282.028 C112.922,295.548 142.207,306.153 171.468,316.581 C204.798,328.459 237.964,341.09 272.31,349.817 C282.258,352.344 292.466,354.759 302.762,355.167 C305.937,355.293 309.223,355.187 312.248,354.108 C314.472,353.315 316.023,352.037 317.606,350.335 C318.117,349.786 318.471,349.056 318.809,348.398 C318.936,348.147 319.818,344.271 319.475,346.07 C320.774,339.257 310.714,341.635 309.717,346.861 C309.977,345.502 311.471,344.444 311.309,344.526 C312.133,344.109 310.373,344.749 311.075,344.615 C308.842,345.04 306.499,344.968 304.243,344.798 C297.086,344.255 289.987,342.693 283.011,341.075 C266.302,337.2 249.857,332.132 233.555,326.826 C217.258,321.522 201.699,315.777 185.325,310.022 C155.899,299.682 126.403,289.427 97.755,277.052 C85.218,271.636 72.942,265.49 61.132,258.627 C55.314,255.246 49.606,251.581 44.139,247.658 C39.32,244.2 35.11,239.974 30.169,236.711 C29.475,236.254 28.6,237.279 28.774,237.934 L28.774,237.934 Z" id="Shape"></path>
                    <path d="M41.045,174.826 C48.03,183.651 58.734,189.425 68.947,193.78 C79.706,198.368 90.997,201.494 102.457,203.743 C126.73,208.506 151.801,208.65 176.428,207.598 C226.578,205.455 276.911,195.567 327.198,199.179 C332.206,199.538 337.202,200.056 342.197,200.555 C342.453,197.436 342.708,194.316 342.964,191.196 C341.489,191.967 339.956,192.84 338.375,193.375 C335.503,194.349 331.29,201.053 336.583,201.737 C340.277,202.216 342.896,201.257 346.229,199.735 C349.325,198.321 352.341,190.909 346.996,190.376 C321.069,187.789 295.463,188.007 269.507,189.975 C244.3,191.885 219.176,194.765 193.951,196.471 C168.827,198.171 143.632,198.576 118.591,195.568 C94.601,192.686 72.249,185.195 50.618,174.603 C48.393,173.513 46.132,172.715 43.822,171.848 C42.278,171.267 39.777,173.222 41.045,174.826 L41.045,174.826 Z" id="Shape"></path>
                    <path d="M428.377,379.077 C426.421,380.642 423.995,382.259 422.97,385.179 C421.925,388.155 421.9,391.192 423.476,393.986 C425.758,398.03 430.674,400.609 435.247,401.082 C442.831,401.866 448.008,395.631 447.971,388.454 C447.945,383.215 445.262,377.07 440.557,374.435 C432.834,370.11 424.517,378.574 423.302,385.238 C422.668,388.718 426.845,389.222 428.865,387.22 C429.267,386.831 429.654,386.427 430.025,386.008 C428.648,387.151 428.648,387.205 430.024,386.171 C430.438,385.81 432.119,384.245 431.372,384.827 C431.806,384.384 432.23,383.932 432.647,383.473 C432.167,383.981 432.136,384.025 432.556,383.606 C432.999,383.175 433.449,382.762 433.936,382.382 C432.179,383.75 435.13,381.969 433.135,382.838 C433.309,382.769 433.485,382.705 433.663,382.648 C434.609,382.327 432.504,382.805 433.465,382.684 C434.663,382.532 432.826,382.569 433.555,382.663 C433.719,382.688 433.881,382.722 434.043,382.763 C434.921,382.963 433.117,382.378 433.953,382.738 C434.269,382.873 434.565,383.054 434.855,383.238 C435.834,383.855 434.411,382.773 435.274,383.592 C435.906,384.192 436.431,384.898 436.911,385.621 C437.288,386.19 436.583,384.998 437.121,386.029 C437.361,386.488 437.564,386.965 437.758,387.443 C437.914,387.829 438.045,388.223 438.172,388.618 C438.252,388.864 438.627,390.475 438.405,389.367 C438.58,390.239 438.652,391.129 438.656,392.017 C438.66,393.247 438.742,391.555 438.648,392.282 C438.591,392.717 438.485,393.142 438.361,393.562 C438.774,392.168 438.443,393.223 438.264,393.563 C438.74,392.817 438.832,392.652 438.542,393.067 C437.986,393.843 439.534,392.112 438.835,392.76 C438.221,393.329 440.106,392.028 438.941,392.631 C439.732,392.301 439.882,392.222 439.394,392.394 C438.475,392.699 440.479,392.248 439.467,392.375 C439.228,392.404 437.928,392.332 438.976,392.418 C438.349,392.367 437.731,392.223 437.122,392.07 C436.01,391.792 434.815,391.205 433.555,390.556 C431.786,389.645 430.651,387.749 430.448,385.826 C430.327,384.683 430.7,382.166 431.266,381.368 C432.932,379.024 430.35,377.499 428.377,379.077 L428.377,379.077 Z" id="Shape"></path>
                    <path d="M481.822,322.44 C476.676,325.818 473.093,333.995 478.924,338.596 C484.487,342.987 494.442,336.926 496.668,331.324 C498.976,325.518 495.136,320.509 489.667,318.79 C486.573,317.818 483.057,318.595 480.224,319.958 C478.32,320.874 476.569,322.3 475.373,324.046 C474.416,325.443 472.518,328.132 473.94,330.566 C474.653,331.786 475.711,332.07 477.06,331.705 C478.832,331.224 480.036,330.476 481.292,329.127 C478.964,331.628 483.704,327.632 482.093,328.732 C482.362,328.567 482.631,328.404 482.903,328.246 C484.162,327.499 481.922,328.561 483.257,328.111 C484.553,327.673 482.314,328.197 483.637,328.037 C483.796,328.018 485.098,328.065 484.064,327.987 C484.364,328.009 486.074,328.46 485.288,328.171 C485.987,328.428 486.644,328.82 487.26,329.233 C486.561,328.764 487.729,329.754 487.93,330.004 C488.093,330.206 488.102,330.233 488.127,330.433 C488.197,330.995 488.429,329.875 488.182,330.438 C488.746,329.151 487.686,330.923 488.616,329.939 C488.54,330.02 487.411,330.888 488.202,330.352 C487.61,330.752 486.631,331.356 486.161,331.539 C485.612,331.752 485.257,331.646 485.201,331.623 C484.068,331.152 483.726,330.326 483.359,328.919 C483.055,327.756 483.771,326.376 484.506,325.5 C486.2,323.475 484.053,320.974 481.822,322.44 L481.822,322.44 Z" id="Shape"></path>
                    <path d="M496.198,394.659 C493.184,394.664 490.927,394.921 488.401,396.729 C486.013,398.438 484.507,401.363 483.963,404.196 C482.795,410.262 487.199,415.841 492.956,417.239 C502.649,419.595 511.235,410.86 508.419,401.315 C505.371,390.984 489.105,388.814 482.761,397.057 C480.152,400.446 482.586,403.367 486.384,403.15 C488.991,403.002 491.173,402.125 493.27,402.442 C494.577,402.639 496.226,403.448 496.811,403.963 C498.355,405.323 498.451,405.599 498.98,407.516 C498.672,406.402 498.853,409.753 499.035,408.29 C498.994,408.62 498.906,408.94 498.817,409.259 C499.072,408.545 499.091,408.437 498.878,408.932 C499.348,408.216 499.421,408.095 499.098,408.567 C498.429,409.532 500.108,407.645 499.211,408.429 C499.975,407.916 500.094,407.82 499.569,408.14 C500.304,407.847 500.394,407.806 499.839,408.015 C499.315,408.16 499.353,408.167 499.953,408.04 C499.672,408.085 499.389,408.114 499.103,408.131 C498.575,408.175 498.804,408.175 497.873,408.043 C494.032,407.5 490.218,400.6 494.996,400.272 C498.07,400.062 500.314,394.651 496.198,394.659 L496.198,394.659 Z" id="Shape"></path>
                    <path d="M452.216,449.893 C448.029,453.663 444.853,460.404 447.353,465.969 C450.627,473.258 460.975,469.331 464.983,465.02 C468.942,460.762 468.786,454.135 465.071,449.805 C459.902,443.78 449.611,445.957 446,452.433 C445.229,453.815 445.669,456.378 447.621,456.477 C449.655,456.58 452.107,455.929 453.607,455.704 C454.975,455.498 455.761,455.786 457.005,456.523 C457.791,456.99 458.455,457.894 458.85,458.984 C459.168,459.864 458.971,460.695 458.783,461.093 C459.03,460.571 458.504,461.203 458.865,460.965 C458.317,461.326 457.605,461.489 456.743,461.763 C455.546,462.144 455.119,461.792 454.462,460.894 C452.923,458.79 453.983,454.371 455.489,452.488 C457.499,449.975 454.351,447.971 452.216,449.893 L452.216,449.893 Z" id="Shape"></path>
                    <path d="M181.816,20.496 C189.781,26.785 198.697,31.689 206.623,38.11 C214.808,44.74 222.749,51.678 231.649,57.357 C250.243,69.219 269.504,79.931 288.368,91.345 C307.345,102.828 325.923,115.169 342.176,130.345 C347.599,135.408 352.998,140.421 357.959,145.952 C361.109,149.464 368.335,156.685 367.8,161.854 C367.138,168.255 374.971,166.36 376.982,162.283 C380.07,156.024 375.972,149.868 372.365,144.825 C367.346,137.811 360.957,131.704 354.651,125.867 C338.174,110.617 320.182,97.607 301,85.973 C280.617,73.614 259.467,62.584 238.971,50.422 C229.146,44.592 220.008,37.915 210.656,31.368 C202.385,25.578 193.275,18.814 182.841,18.334 C181.801,18.287 180.934,19.799 181.816,20.496 L181.816,20.496 Z" id="Shape"></path>
                </g>
            </g>
        </g>
    </g>
</svg>