<?xml version="1.0" encoding="UTF-8"?>
<svg width="511px" height="494px" viewBox="0 0 511 494" version="1.1" xmlns="http://www.w3.org/2000/svg" xmlns:xlink="http://www.w3.org/1999/xlink">
    <!-- Generator: Sketch 41 (35326) - http://www.bohemiancoding.com/sketch -->
    <title>scissors</title>
    <desc>Created with Sketch.</desc>
    <defs></defs>
    <g id="Page-1" stroke="none" stroke-width="1" fill="none" fill-rule="evenodd">
        <g id="Layer_1" transform="translate(-5451.000000, -6134.000000)" fill="#010101">
            <g id="Layer_1_3_">
                <g id="scissors" transform="translate(5451.000000, 6134.000000)">
                    <path d="M259.518,356.221 C250.782,354.637 243.12,354.738 234.531,357.33 C224.985,360.212 216.297,364.718 207.828,369.924 C190.874,380.346 177.064,396.868 170.047,415.493 C163.321,433.34 165.327,452.175 176.487,467.641 C182.581,476.087 192.141,483.656 201.94,487.173 C214.454,491.665 228.233,490.839 241.073,488.346 C266.979,483.316 289.041,467.472 295.963,441.222 C301.607,419.821 302.056,394.693 288.701,376.142 C277.295,360.298 255.592,355.016 237.108,357.477 C212.915,360.698 187.966,374.801 175.768,396.461 C171.787,403.53 168.082,412.075 172.719,419.533 C176.038,424.872 184.961,421.831 187.738,417.356 C189.589,414.373 191.301,411.724 192.441,408.369 C193.37,405.632 194.318,402.897 195.493,400.254 C197.699,395.291 201.732,391.098 205.673,387.487 C213.422,380.387 221.181,377.091 229.82,375.109 C236.436,373.591 245.009,373.692 252.154,376.256 C259.77,378.99 266.113,383.909 270.425,390.999 C275.905,400.009 277.114,410.375 276.62,420.716 C276.114,431.275 275.24,442.757 270.391,452.369 C265.614,461.84 257.861,467.09 249.37,469.81 C238.684,473.235 227.486,474.353 216.546,471.498 C209.535,469.668 203.009,463.779 198.141,458.685 C193.576,453.908 190.467,448.142 188.534,441.847 C184.886,429.972 188.21,416.45 193.74,405.734 C199.744,394.098 209.008,382.761 219.542,374.933 C230.2,367.012 244.43,360.761 257.777,359.767 C259.399,359.649 262.46,356.755 259.518,356.221 L259.518,356.221 Z" id="Shape"></path>
                    <path d="M262.246,247.95 C272.092,254.016 275.214,267.526 277.229,278.17 C279.432,289.808 278.211,301.411 273.7,312.326 C269.428,322.663 261.846,331.623 254.119,339.55 C249.729,344.052 244.575,347.933 240.421,352.634 C236.527,357.036 231.18,360.164 228.767,365.736 C227.657,368.299 231.272,369.228 233.027,368.692 C239.884,366.6 244.947,361.772 250.81,357.912 C256.914,353.893 262.353,347.949 267.4,342.715 C276.751,333.022 284.65,321.958 289.265,309.229 C294.005,296.155 293.557,282.254 289.703,269.049 C286.162,256.918 280.211,240.363 264.608,243.119 C262.562,243.479 259.624,246.333 262.246,247.95 L262.246,247.95 Z" id="Shape"></path>
                    <path d="M439.198,0.96 C430.534,7.936 424.081,18.822 417.806,27.918 C410.543,38.448 403.33,49.002 396.173,59.604 C381.724,81.004 367.561,102.597 353.141,124.018 C339.176,144.763 325.629,165.914 311.038,186.223 C297.128,205.584 285.879,226.685 270.943,245.332 C276.183,245.644 281.423,245.955 286.664,246.268 C287.68,243.309 287.612,241.022 286.799,238.041 C285.065,231.682 273.28,237.257 272.105,241.535 C271.591,243.405 270.907,245.201 270.133,246.978 C268.826,249.983 271.529,252.479 274.249,252.95 C278.832,253.744 283.042,251.308 285.853,247.914 C300.69,230.007 311.628,209.28 324.862,190.234 C339.451,169.238 353.527,147.868 367.596,126.521 C381.377,105.611 395.251,84.736 408.586,63.538 C415.267,52.919 421.882,42.274 428.298,31.493 C431.42,26.248 434.329,20.881 437.333,15.566 C439.765,11.262 442.63,6.625 443.223,1.658 C443.462,-0.334 440.022,0.297 439.198,0.96 L439.198,0.96 Z" id="Shape"></path>
                    <path d="M442.955,1.004 C434.069,-1.76 423.917,1.809 415.596,5.053 C405.815,8.866 396.886,14.614 388.614,21.021 C370.901,34.741 356.406,52.12 343.299,70.169 C330.238,88.153 318.786,107.252 307.185,126.19 C293.648,148.286 279.969,170.157 267.085,192.659 C263.354,199.175 259.732,205.733 255.329,211.821 C252.032,216.38 248.1,221.517 247.144,227.196 C246.201,232.799 248.988,236.779 253.732,239.466 C255.814,240.646 258.326,241.205 260.591,241.884 C260.563,241.875 262.07,242.409 262.518,242.6 C263.611,243.066 262.32,239.115 261.79,240.481 C260.656,243.408 263.036,245.76 265.754,246.231 C269.728,246.919 274.791,244.882 276.928,241.381 C279.194,237.67 279.115,233.475 274.903,231.273 C271.924,229.715 268.205,229.713 265.466,227.859 C262.313,225.724 265.048,222.234 266.545,219.808 C269.546,214.948 273.066,210.496 275.931,205.539 C284.082,191.437 291.811,177.097 300.121,163.085 C305.739,153.612 311.886,144.46 317.644,135.07 C340.347,98.052 361.967,58.568 395.27,29.819 C402.218,23.822 409.953,18.995 417.909,14.467 C425.819,9.967 434.691,7.628 442.632,3.215 C443.293,2.846 444.109,1.364 442.955,1.004 L442.955,1.004 Z" id="Shape"></path>
                    <path d="M427.304,7.494 C410.44,18.884 396.453,33 383.375,48.475 C376.762,56.301 388.98,58.32 393.98,53.389 C405.885,41.645 419.165,31.674 428.322,17.396 C432.696,10.577 422.212,10.626 418.547,12.842 C395.18,26.964 376.318,47.67 358.229,67.807 C362.341,69.059 366.454,70.311 370.567,71.563 C382.023,56.172 398.131,44.975 409.424,29.386 C413.826,23.309 404.649,21.619 400.634,23.391 C387.407,29.231 376.28,39.239 366.642,49.827 C356.505,60.961 347.724,73.381 341.148,86.935 C339.838,89.633 342.515,91.959 344.896,92.373 C348.851,93.058 353.185,91.005 355.463,87.787 C371.473,65.18 390.228,44.457 410.171,25.266 C406.283,24.082 402.397,22.899 398.509,21.715 C382.577,50.172 351.845,68.684 342.223,100.99 C339.932,108.681 352.352,106.804 355.37,103.267 C373.08,82.509 392.787,63.621 411.433,43.729 C407.795,42.043 404.159,40.358 400.521,38.672 C382.407,60.332 362.504,80.6 349.542,105.991 C354.252,106.27 358.962,106.552 363.672,106.831 C373.498,83.632 393.191,65.921 410.186,47.976 C406.289,46.789 402.391,45.603 398.494,44.415 C387.756,65.302 369.758,81.171 355.59,99.606 C339.833,120.111 326.551,142.319 311.384,163.238 C316.319,163.532 321.253,163.825 326.188,164.119 C337.243,136.443 355.07,112.15 370.176,86.63 C374.687,79.011 362.232,79.055 358.555,83.092 C335.712,108.174 315.912,135.942 297.428,164.336 C302.375,164.116 307.322,163.897 312.269,163.677 C314.332,148.15 323.182,133.927 331.542,121.052 C340.7,106.948 351.106,93.648 359.571,79.098 C361.309,76.111 360.259,73.009 356.658,72.385 C352.95,71.743 348.482,73.651 346.432,76.823 C323.797,111.851 303.22,148.474 277.79,181.605 C282.777,181.902 287.765,182.198 292.753,182.495 C298.958,157.429 322.079,139.997 337.098,120.223 C332.318,119.939 327.536,119.655 322.755,119.369 C315.836,135.078 302.804,147.565 292.622,161.139 C282.953,174.03 278.801,190.663 268.263,202.846 C272.8,203.632 277.337,204.418 281.874,205.203 C290.949,182.457 309.379,164.648 325.285,146.6 C320.757,145.816 316.227,145.031 311.698,144.246 C299.235,173.27 275.119,195.472 264.048,225.338 C269.292,225.112 274.534,224.886 279.778,224.66 C288.06,199.984 309.062,180.258 327.539,162.86 C323.197,161.538 318.854,160.215 314.513,158.893 C299.289,183.94 283.296,208.506 267.959,233.483 C273.017,233.784 278.075,234.085 283.134,234.385 C290.07,213.656 306.993,198.222 318,179.749 C312.964,179.449 307.928,179.149 302.892,178.85 C298.785,197.679 283.038,212.801 272.253,228.071 C277.419,227.842 282.585,227.612 287.751,227.383 C287.921,223.375 289.243,219.925 292.009,216.987 C287.293,216.171 282.578,215.353 277.863,214.537 C277.462,216.6 276.94,218.586 276.283,220.582 C275.999,221.397 275.678,222.198 275.32,222.983 C273.787,225.122 274.789,224.847 278.327,222.162 C274.724,222.79 269.895,226.14 269.947,230.226 C270.003,234.639 275.334,234.873 278.471,234.326 C288.157,232.637 292.484,222.43 294.072,213.84 C295.62,205.466 283.607,207.418 279.926,211.39 C274.682,217.05 271.446,223.462 271.207,231.265 C270.955,239.513 284.281,234.077 286.705,230.577 C298.007,214.249 314.325,198.126 318.777,178.169 C320.786,169.167 306.608,172.382 303.669,177.27 C291.901,196.833 274.41,212.936 267.176,235.076 C264.299,243.883 279.489,240.708 282.351,235.978 C297.52,210.915 313.495,186.357 328.778,161.367 C330.266,158.933 330.172,155.918 327.296,154.589 C323.472,152.822 318.619,154.714 315.752,157.401 C295.396,176.474 272.944,198.155 264.048,225.341 C262.778,229.221 266.544,231.28 269.894,231.139 C273.87,230.97 278.366,228.565 279.779,224.663 C290.574,194.855 314.685,172.508 327.269,143.579 C328.499,140.749 325.953,138.398 323.392,137.955 C320.128,137.39 315.91,138.72 313.682,141.226 C295.983,161.142 276.075,180.559 266.277,205.877 C263.258,213.679 276.927,211.72 279.888,208.234 C291.23,194.88 296.083,177.616 306.343,163.517 C317.159,148.654 329.999,135.577 337.837,118.722 C339.101,116.002 336.505,113.694 334.081,113.274 C329.97,112.562 325.971,114.729 323.494,117.869 C307.188,138.537 283.45,156.392 277.018,183.175 C276.305,186.147 277.932,188.338 280.936,188.859 C285.168,189.591 289.472,187.375 291.981,184.065 C317.197,150.808 336.563,113.814 359.57,79.101 C355.19,78.342 350.811,77.584 346.431,76.826 C329.145,105.745 300.494,132.445 296.425,167.395 C296.065,170.487 300.104,171.62 302.375,171.523 C305.71,171.381 309.442,169.623 311.266,166.736 C328.661,139.196 347.266,112.236 369.069,87.968 C365.195,86.788 361.322,85.609 357.448,84.43 C341.835,111.258 321.831,135.532 310.62,164.792 C309.522,167.657 311.83,169.953 314.496,170.415 C318.593,171.125 323.059,168.996 325.424,165.673 C340.345,144.702 353.568,122.622 368.874,101.91 C382.677,83.234 400.626,67.539 411.298,46.637 C415.339,38.721 403.45,38.995 399.606,43.076 C380.78,63.055 359.632,81.596 348.815,107.474 C345.674,114.987 360.43,113.295 362.945,108.314 C375.235,83.966 393.884,64.283 411.434,43.731 C418.234,35.768 405.576,33.391 400.522,38.674 C381.647,58.407 361.902,77.287 344.143,98.066 C348.525,98.826 352.908,99.585 357.29,100.343 C366.434,69.755 395.633,50.809 411.281,23.929 C412.562,21.728 412.566,19.068 409.953,17.861 C406.526,16.277 402.191,17.976 399.619,20.379 C378.458,40.143 358.531,61.696 341.886,85.437 C346.657,85.721 351.43,86.004 356.201,86.289 C361.431,75.37 368.749,65.216 376.664,56.1 C384.516,47.055 393.685,37.894 404.832,33.066 C401.901,31.068 398.972,29.069 396.042,27.071 C384.634,42.554 368.305,53.541 357.056,69.226 C355.468,71.441 355.873,74.451 358.461,75.646 C361.831,77.203 367.007,75.732 369.394,72.982 C386.278,53.53 403.7,33.461 425.841,19.83 C422.582,18.312 419.323,16.794 416.066,15.276 C407.725,28.558 394.398,37.607 383.377,48.478 C387.284,49.667 391.19,50.857 395.097,52.046 C404.397,36.691 418.089,23.132 432.222,12.205 C437.416,8.186 431.708,4.519 427.304,7.494 L427.304,7.494 Z" id="Shape"></path>
                    <path d="M239,239.739 C240.076,241.262 242.328,241.643 243.919,242.485 C245.999,243.585 248.024,244.393 249.901,245.87 C254.416,249.421 257.559,254.266 260.403,259.166 C265.989,268.792 268.481,278.616 268.911,289.651 C269.347,300.871 267.917,312.092 264.22,322.708 C262.423,327.868 259.831,332.548 256.488,336.864 C253.396,340.856 249.678,344.313 248.411,348.475 C247.847,350.33 249.077,351.934 250.962,352.175 C266.348,354.142 276.729,337.531 281.967,325.384 C287.35,312.901 288.963,298.523 288.571,285.039 C288.193,272.047 284.816,259.816 277.901,248.753 C274.134,242.728 269.504,237.33 263.562,233.391 C257.296,229.235 247.739,227.52 241.305,232.383 C238.792,234.282 236.948,236.835 239,239.739 L239,239.739 Z" id="Shape"></path>
                    <path d="M249.916,238.223 C254.86,234.089 258.888,228.619 263.528,224.108 C266.249,221.463 274.594,215.136 271.94,210.606 C271.45,209.768 270.493,209.332 269.515,209.455 C262.645,210.319 257.876,216.434 253.365,221.177 C249.405,225.339 242.655,231.511 243.069,237.826 C243.304,241.411 248.383,239.504 249.916,238.223 L249.916,238.223 Z" id="Shape"></path>
                    <path d="M248.049,237.279 C252.272,233.856 255.495,228.98 259.159,224.963 C262.513,221.286 267.23,217.192 268.171,212.094 C268.341,211.17 268.448,210.118 267.597,209.437 C262.249,205.163 254.823,214.54 251.776,217.93 C247.651,222.519 239.768,230.07 240.497,236.841 C240.919,240.769 246.251,238.737 248.049,237.279 L248.049,237.279 Z" id="Shape"></path>
                    <path d="M260.006,215.306 C260.053,215.306 260.096,215.234 260.029,215.234 C259.983,215.234 259.94,215.306 260.006,215.306 L260.006,215.306 Z" id="Shape"></path>
                    <path d="M362.748,155.027 C381.385,148.976 397.84,138.888 414.153,128.138 C422.505,122.635 430.731,116.956 438.819,111.075 C446.604,105.412 453.685,98.829 461.563,93.231 C471.748,85.994 482.377,79.571 492.784,72.692 C496.357,70.33 498.216,69.583 502.058,67.695 C500.423,68.36 498.709,68.58 496.916,68.354 C499.354,68.501 499.422,68.504 497.118,68.364 C499.9,68.806 502.415,67.873 504.786,66.507 C498.215,68.314 496.916,68.877 500.889,68.198 C502.287,67.864 503.586,67.3 504.786,66.507 C505.779,65.935 507.094,64.698 507.68,63.684 C509.578,60.393 508.325,57.472 504.614,56.618 C496.835,54.826 488.46,63.897 482.727,67.899 C472.553,75.002 462.118,81.685 452.233,89.208 C445.043,94.681 438.588,101.012 431.497,106.567 C424.156,112.318 416.676,117.909 408.995,123.199 C393.7,133.734 377.5,142.92 361.731,152.687 C360.187,153.642 360.946,155.612 362.748,155.027 L362.748,155.027 Z" id="Shape"></path>
                    <path d="M504.104,60.243 C500.394,67.105 497.657,74.446 493.952,81.354 C489.884,88.937 485.076,96.227 480.117,103.252 C469.91,117.712 458.093,129.662 443.501,139.748 C427.187,151.024 409.278,159.263 391.941,168.742 C382.831,173.724 373.981,179.17 364.958,184.304 C360.51,186.835 355.996,189.219 351.341,191.348 C347.275,193.208 342.322,193.527 337.829,197.086 C343.131,198.004 348.432,198.922 353.733,199.84 C353.661,199.455 353.694,199.088 353.833,198.736 C355.169,192.953 348.183,192.764 344.442,194.281 C343.193,194.969 342.772,195.131 343.178,194.763 C338.703,196.041 330.612,200.683 333.205,206.661 C336.037,213.185 347.379,209.831 350.821,205.794 C352.587,203.913 351.539,204.379 347.677,207.194 C349.154,206.868 350.529,206.306 351.8,205.507 C354.361,204.125 357.038,202.939 359.614,201.578 C364.613,198.937 369.576,196.242 374.472,193.416 C383.96,187.941 393.23,182.099 402.789,176.744 C420.95,166.571 439.451,157.56 456.274,145.134 C471.179,134.123 483.328,121.061 493.393,105.55 C498.242,98.078 502.429,90.291 505.834,82.059 C508.445,75.748 511.567,66.223 509.188,59.503 C508.47,57.466 504.804,58.948 504.104,60.243 L504.104,60.243 Z" id="Shape"></path>
                    <path d="M496.586,67.042 C479.149,79.723 465.062,95.845 452.756,113.461 C450.511,116.674 452.242,120.252 455.984,120.899 C460.369,121.659 464.686,119.352 467.315,115.982 C477.391,103.069 487.211,89.983 497.174,76.989 C492.598,76.196 488.02,75.403 483.444,74.61 C470.187,97.28 456.016,119.472 440.056,140.35 C445.741,140.688 451.424,141.026 457.109,141.365 C465.208,121.443 482.139,106.524 489.869,86.258 C491.022,83.235 488.597,80.815 485.78,80.326 C482.213,79.708 478.053,81.205 475.54,83.776 C460.674,98.988 447.942,116.129 432.823,131.092 C437.737,132.588 442.651,134.084 447.565,135.58 C458.023,118.944 473.139,105.623 482.105,87.998 C487.138,78.104 472.275,78.39 467.467,83.542 C448.344,104.039 430.514,125.759 414.694,148.913 C420.416,149.904 426.136,150.894 431.858,151.886 C443.008,130.507 460.967,114.259 476.579,96.254 C484.267,87.387 471.731,83.489 464.861,88.4 C439.758,106.345 420.194,130.297 396.273,149.572 C393.251,152.008 388.846,156.823 392.81,160.626 C396.447,164.114 403.422,162.538 407.033,159.877 C430.094,142.877 449.358,122.334 469.015,101.662 C471.143,99.424 472.989,95.729 470.266,93.118 C466.921,89.909 460.62,91.412 457.289,93.802 C430.457,113.059 399.264,126.653 378.342,153.122 C376.012,156.069 376.841,160.334 380.266,161.916 C385.162,164.18 391.604,161.81 395.243,158.268 C399.491,154.133 403.42,149.928 407.27,145.434 C412.526,139.299 405.602,134.952 399.521,137.919 C392.271,141.458 385.744,145.484 379.95,151.182 C385.584,152.897 391.218,154.613 396.85,156.328 C415.077,133.067 443.652,120.222 467.106,103.205 C463.198,100.585 459.29,97.965 455.38,95.345 C437.153,114.726 417.32,133.286 396.273,149.574 C400.557,152.445 404.84,155.317 409.124,158.188 C431.789,139.028 450.187,114.781 474.672,97.796 C470.766,95.179 466.86,92.561 462.954,89.942 C446.099,108.791 426.197,125.976 414.694,148.914 C412.704,152.884 413.579,156.831 418.5,157.684 C423.369,158.528 429.148,156.019 431.858,151.887 C446.354,129.787 462.518,108.862 480.713,89.68 C475.833,88.195 470.954,86.709 466.075,85.224 C456.931,102.792 441.529,115.87 431.42,132.785 C429.767,135.553 429.82,138.941 433.099,140.457 C437.287,142.392 443.098,140.434 446.162,137.273 C460.891,122.087 472.795,104.384 487.777,89.447 C483.001,88.62 478.224,87.793 473.448,86.966 C464.885,107.053 447.381,121.688 439.177,142.138 C437.859,145.425 440.614,148.091 443.642,148.616 C448.342,149.43 453.531,146.992 456.23,143.153 C471.168,121.911 484.483,99.633 497.174,76.991 C498.933,73.853 497.938,70.635 494.13,69.975 C490.07,69.272 485.825,71.391 483.443,74.612 C473.628,87.883 462.464,100.092 452.755,113.463 C457.608,114.304 462.461,115.144 467.314,115.984 C477.851,99.702 490.606,84.93 502.942,70.005 C506.199,66.062 498.852,65.393 496.586,67.042 L496.586,67.042 Z" id="Shape"></path>
                    <path d="M489.784,71.948 C477.93,73.099 467.156,78.747 457.013,84.581 C445.724,91.074 435.016,98.553 424.495,106.212 C413.867,113.948 403.473,121.999 392.886,129.79 C387.528,133.735 382.117,137.606 376.616,141.352 C371.931,144.542 362.69,148.062 363.399,154.942 C364.271,163.388 377.068,160.232 380.862,155.955 C382.346,154.284 383.714,152.786 384.3,150.572 C385.423,146.335 381.781,144.039 377.912,144.235 C374.232,144.421 371.377,145.607 368.269,147.514 C373.407,148.404 378.544,149.294 383.683,150.184 C383.781,149.186 383.592,148.212 383.102,147.332 C382.308,149.824 381.513,152.315 380.718,154.808 C384.275,151.39 388.807,148.635 392.699,145.585 C397.212,142.048 401.672,138.443 406.12,134.825 C415.264,127.388 424.361,119.894 433.638,112.622 C442.933,105.336 452.457,98.339 462.4,91.958 C471.611,86.048 481.44,81.047 490.388,74.751 C491.682,73.84 491.854,71.747 489.784,71.948 L489.784,71.948 Z" id="Shape"></path>
                    <path d="M363.681,153.663 C351.735,164.8 345.405,180.611 337.558,194.633 C342.332,194.917 347.106,195.201 351.88,195.486 C356.013,179.929 366.805,167.461 376.288,154.869 C371.574,154.053 366.859,153.236 362.145,152.42 C352.847,165.252 343.779,178.174 337.785,192.942 C336.487,196.137 339.193,198.738 342.131,199.247 C345.874,199.895 350.409,198.343 353.016,195.58 C367.036,180.726 381.073,165.804 396.589,152.484 C391.558,150.953 386.526,149.421 381.495,147.888 C373.723,159.691 362.814,169.029 354.314,180.297 C352.787,182.321 352.579,185.405 354.5,187.248 C357.359,189.991 362.098,189.159 365.369,187.837 C389.244,178.187 407.574,159.591 429.54,146.717 C425.412,143.949 421.283,141.182 417.154,138.415 C401.506,151.562 382.146,159.569 368.419,175.136 C361.528,182.949 370.689,188.945 378.468,184.881 C405.498,170.762 431.585,154.666 454.453,134.364 C456.966,132.133 458.613,127.788 455.81,125.099 C452.151,121.589 445.39,123.293 441.737,125.84 C430.666,133.557 419.293,140.828 408.221,148.545 C405.037,150.764 401.011,155.853 404.794,159.482 C408.564,163.097 415.071,161.124 418.867,158.741 C429.095,152.321 439.995,145.529 446.707,135.245 C450.294,129.749 442.573,127.727 438.649,129.751 C428.026,135.23 418.338,142.195 408.22,148.546 C411.769,151.944 415.318,155.343 418.866,158.741 C429.937,151.024 441.31,143.753 452.382,136.036 C448.143,133.195 443.904,130.354 439.666,127.513 C419.639,145.294 396.591,159.706 372.937,172.141 C376.287,175.389 379.636,178.638 382.986,181.886 C396.462,166.517 416.069,158.171 431.555,145.087 C434.058,142.973 435.565,138.642 432.876,136.064 C429.144,132.483 422.943,134.56 419.169,136.786 C398.92,148.725 381.922,166.5 360.09,175.674 C363.775,178.188 367.46,180.7 371.145,183.214 C379.45,171.836 390.315,162.618 398.023,150.752 C399.829,147.972 399.576,144.409 396.305,142.898 C391.761,140.798 386.396,143.147 382.929,146.157 C367.529,159.526 353.742,174.518 340.006,189.553 C345.082,190.432 350.16,191.312 355.236,192.191 C360.396,178.756 367.865,166.493 376.286,154.87 C378.531,151.772 376.734,148.265 373.15,147.643 C368.942,146.914 364.63,149.118 362.143,152.42 C352.12,165.727 340.22,179.359 336.817,196.135 C335.129,204.457 348.572,202.065 351.139,196.988 C357.951,183.52 364.913,169.105 369.045,154.594 C369.988,151.293 364.967,152.463 363.681,153.663 L363.681,153.663 Z" id="Shape"></path>
                    <path d="M356.463,161.893 C350.592,168.374 344.956,174.523 340.158,181.886 C334.896,189.959 330.034,198.289 325.221,206.636 C327.252,205.301 329.283,203.967 331.314,202.633 C331.038,202.707 330.76,202.782 330.484,202.858 C332.789,203.577 335.093,204.295 337.398,205.013 C337.791,206.197 336.985,203.236 336.975,203.209 C335.496,199.076 328.833,201.84 326.806,203.709 C330.031,201.687 330.437,201.357 328.027,202.723 C326.773,203.559 325.777,204.666 324.834,205.821 C323.486,207.47 323.105,208.908 323.691,210.962 C324.668,214.392 330.264,213.426 332.497,212.487 C337.139,210.537 338.301,207.153 340.147,202.824 C342.16,198.104 344.153,193.378 346.238,188.688 C350.076,180.059 353.615,170.627 358.366,162.473 C359.095,161.222 357.067,161.228 356.463,161.893 L356.463,161.893 Z" id="Shape"></path>
                    <path d="M332.673,208.945 C337.21,206.368 341.523,203.45 345.689,200.311 C349.899,197.138 354.696,194.222 358.153,190.207 C359.547,188.589 358.342,186.733 356.22,187.418 C345.983,190.725 338.594,200.283 330.077,206.459 C327.198,208.547 330.327,210.277 332.673,208.945 L332.673,208.945 Z" id="Shape"></path>
                    <path d="M111.069,250.319 C113.521,253.197 116.286,254.244 119.468,256.22 C121.905,257.734 124.522,260.476 126.162,262.82 C129.841,268.079 131.492,273.262 131.334,279.664 C130.969,294.378 122.72,308.393 113.901,319.931 C111.838,322.63 109.771,324.937 106.689,328.096 C105.241,329.58 103.73,331.003 102.201,332.403 C101.439,333.1 100.657,333.775 99.876,334.45 C99.355,334.895 98.828,335.336 98.298,335.771 C99.223,335.023 99.174,335.052 98.152,335.858 C94.996,338.316 91.685,340.571 88.252,342.622 C87.841,342.867 84.949,344.432 87.617,343.013 C86.77,343.463 85.906,343.881 85.043,344.298 C83.068,345.25 81.032,346.069 78.973,346.819 C81.957,345.732 76.759,347.403 75.858,347.62 C74.991,347.828 74.115,347.991 73.238,348.152 C70.303,348.694 75.608,347.905 72.665,348.219 C70.942,348.404 69.209,348.434 67.478,348.404 C69.948,348.447 67.149,348.36 66.75,348.318 C65.07,348.139 63.404,347.831 61.745,347.522 C51.888,345.686 42.808,340.858 35.608,333.93 C25.536,324.241 20.916,309.805 24.292,296.163 C28.434,279.424 43.379,266.909 57.12,257.752 C64.553,252.799 72.197,249.164 80.611,247.543 C82.866,247.108 84.932,247.448 86.785,247.624 C90.829,248.008 94.835,248.778 98.797,249.659 C113.845,253.004 127.82,259.798 139.276,269.159 C145.21,274.008 161.424,267.907 157.874,259.047 C154.203,249.891 143.423,244.906 134.929,241.078 C124.671,236.455 113.526,233.242 102.433,231.422 C75.576,227.015 51.593,240.369 31.399,256.912 C13.517,271.56 -2.366,292.506 0.863,316.896 C3.707,338.381 20.477,354.856 40.46,361.6 C60.288,368.292 79.34,365.255 97.407,355.266 C113.123,346.578 126.323,333.136 136.109,318.181 C144.406,305.502 151.103,289.417 148.583,274.04 C147.547,267.714 144.92,260.509 139.998,256.132 C134.094,250.881 126.589,248.361 118.903,247.05 C116.918,246.71 114.546,247.512 112.621,247.955 C111.698,248.167 110.182,249.28 111.069,250.319 L111.069,250.319 Z" id="Shape"></path>
                    <path d="M277.797,242.121 C277.028,247.374 277.852,252.658 278.247,257.915 C278.626,262.964 278.112,268.215 278.849,273.198 C279.114,274.991 280.228,276.031 282.032,276.338 C298.969,279.215 289.749,246.505 285.342,239.614 C283.388,236.56 278.237,239.115 277.797,242.121 L277.797,242.121 Z" id="Shape"></path>
                    <path d="M283.507,229.902 C282.403,238.817 282.7,247.545 282.961,256.501 C283.092,260.965 283.004,265.449 282.843,269.911 C282.695,274.024 281.207,278.749 284.258,282.003 C285.575,283.408 288.287,282.321 289.404,281.233 C295.579,275.214 294.179,263.831 293.577,255.93 C292.855,246.457 290.959,237.401 288.333,228.298 C287.674,226.018 283.71,228.264 283.507,229.902 L283.507,229.902 Z" id="Shape"></path>
                    <path d="M287.333,223.279 C289.337,233.534 289.4,243.921 288.256,254.294 C287.663,259.665 286.613,264.98 285.533,270.27 C284.76,274.056 283.081,279.418 286.065,282.599 C287.05,283.65 289.031,282.819 289.872,282.03 C293.664,278.471 294.488,273.283 295.367,268.376 C296.336,262.972 297.16,257.545 297.697,252.08 C298.738,241.5 298.2,229.903 290.815,221.768 C289.946,220.809 287.062,221.892 287.333,223.279 L287.333,223.279 Z" id="Shape"></path>
                    <path d="M289.598,220.752 C287.103,231.257 288.94,242.991 288.791,253.715 C288.713,259.342 288.467,264.947 287.869,270.544 C287.329,275.599 284.958,281.359 288.305,285.791 C289.137,286.894 291.241,285.919 291.97,285.242 C299.796,277.988 298.767,263.12 298.623,253.272 C298.542,247.754 298.108,242.101 297.244,236.652 C296.36,231.088 295.742,224.979 293.136,219.91 C292.45,218.577 289.89,219.521 289.598,220.752 L289.598,220.752 Z" id="Shape"></path>
                    <path d="M291.434,220.087 C291.93,230.41 292.184,240.705 291.429,251.025 C291.032,256.469 290.229,261.87 289.69,267.298 C289.22,272.038 288.527,276.95 291.17,281.166 C292.166,282.755 294.859,281.874 295.684,280.512 C300.835,271.998 300.559,260.189 301.211,250.513 C301.951,239.548 301.633,228.241 295.557,218.716 C294.602,217.22 291.348,218.311 291.434,220.087 L291.434,220.087 Z" id="Shape"></path>
                    <path d="M293.864,220.024 C293.598,233.803 295.347,247.504 295.101,261.278 C294.975,268.322 294.289,275.31 292.676,282.173 C291.675,286.429 287.66,293.593 290.696,297.531 C291.167,298.141 292.448,297.952 293.017,297.657 C298.991,294.561 301.138,287.909 302.71,281.741 C304.457,274.887 305.216,267.663 305.243,260.602 C305.298,246.274 302.667,232.15 297.46,218.829 C296.849,217.264 293.89,218.663 293.864,220.024 L293.864,220.024 Z" id="Shape"></path>
                    <path d="M294.765,249.257 C294.131,255.204 292.771,261.059 291.956,266.992 C291.07,273.441 290.199,279.806 288.816,286.179 C287.627,291.659 285.893,297.001 283.803,302.2 C282.353,305.809 277.286,312.914 279.577,316.714 C280.141,317.649 281.341,317.537 282.229,317.174 C287.331,315.087 290.167,309.736 292.301,304.902 C295.018,298.751 296.922,292.338 298.329,285.77 C299.558,280.033 300.093,274.176 300.431,268.328 C300.827,261.467 299.515,255.083 298.788,248.314 C298.559,246.156 294.941,247.609 294.765,249.257 L294.765,249.257 Z" id="Shape"></path>
                    <path d="M296.303,269.948 C295.815,279.237 292.772,288.194 289.266,296.741 C287.512,301.016 285.278,305.096 283.162,309.201 C281.433,312.557 279.645,316.135 280.658,319.959 C281.004,321.261 283.155,320.536 283.838,320.132 C292.192,315.194 296.168,305.015 299.359,296.307 C302.675,287.259 302.959,278.158 301.58,268.71 C301.176,265.946 296.421,267.704 296.303,269.948 L296.303,269.948 Z" id="Shape"></path>
                    <path d="M296.473,284.572 C293.861,294.936 290.006,305.01 286.081,314.933 C284.032,320.115 281.641,325.139 278.739,329.899 C277.49,331.948 276.195,334.008 274.62,335.826 C273.158,337.512 271.118,338.809 270.517,341.067 C269.663,344.271 273.101,344.96 275.495,344.52 C280.92,343.527 284.737,337.899 287.537,333.576 C290.826,328.499 293.087,322.634 295.117,316.966 C298.9,306.401 301.025,295.076 301.49,283.868 C301.595,281.359 296.911,282.837 296.473,284.572 L296.473,284.572 Z" id="Shape"></path>
                    <path d="M290.677,309.456 C286.862,325.335 273.983,340 261.316,349.727 C265.32,350.42 269.325,351.114 273.329,351.808 C272.985,349.757 272.782,348.226 271.47,346.587 C270.116,344.897 266.923,345.577 265.294,346.253 C261.54,347.811 259.259,350.255 257.77,353.991 C256.65,356.799 258.992,359.073 261.583,359.521 C265.058,360.124 268.598,358.604 271.132,356.304 C283.71,344.891 297.514,326.487 296.488,308.64 C296.319,305.717 291.17,307.4 290.677,309.456 L290.677,309.456 Z" id="Shape"></path>
                    <path d="M286.55,215.813 C288.119,218.94 290.087,221.878 291.663,225.045 C293.751,229.24 294.793,233.862 295.489,238.463 C296.133,242.711 296.349,246.957 296.138,251.248 C295.98,254.451 294.538,259.7 296.493,262.521 C297.835,264.459 300.732,264.167 302.486,262.847 C310.508,256.813 309.421,244.326 308.015,235.525 C306.638,226.9 302.336,214.424 292.982,211.546 C290.916,210.911 284.909,212.539 286.55,215.813 L286.55,215.813 Z" id="Shape"></path>
                    <path d="M293.461,216.241 C294.572,220.523 297.296,224.381 298.539,228.71 C300.258,234.695 301.185,240.757 301.786,246.949 C302.387,253.128 302.301,259.379 301.664,265.549 C301.277,269.304 299.161,275.903 301.784,279.114 C302.841,280.407 305.327,279.587 306.423,278.87 C311.372,275.628 312.275,269.366 313.135,263.975 C314.22,257.17 313.654,249.86 312.835,243.061 C311.689,233.536 307.861,216.357 296.828,213.545 C295.349,213.168 293.028,214.568 293.461,216.241 L293.461,216.241 Z" id="Shape"></path>
                    <path d="M299.211,240.958 C302.499,251.338 302.009,263.848 301.418,274.606 C301.107,280.275 300.091,285.912 298.599,291.384 C297.465,295.543 295.983,299.356 297.006,303.683 C297.289,304.878 299.385,304.258 299.987,303.845 C309.506,297.321 310.96,284.435 311.457,273.758 C312.045,261.113 308.422,250.504 302.996,239.315 C302.184,237.642 298.659,239.212 299.211,240.958 L299.211,240.958 Z" id="Shape"></path>
                    <path d="M302.512,264.352 C301.898,269.838 300.241,275.356 299.086,280.756 C297.993,285.868 297.013,291 295.628,296.046 C294.267,301.004 292.714,305.84 290.636,310.549 C288.401,315.614 284.889,319.875 282.233,324.69 C278.855,330.81 288.065,329.679 290.905,327.331 C299.641,320.102 303.913,307.748 306.468,297.061 C307.696,291.925 308.393,286.229 308.309,280.957 C308.212,274.982 306.832,269.37 306.181,263.493 C305.961,261.522 302.68,262.855 302.512,264.352 L302.512,264.352 Z" id="Shape"></path>
                    <path d="M298.721,288.892 C296.157,301.863 289.172,313.3 282.892,324.743 C280.883,328.403 278.956,332.097 276.695,335.612 C276.206,336.372 275.685,337.102 275.14,337.823 C275.43,337.438 277.184,335.534 274.249,338.494 C275.395,337.338 273.693,338.972 273.58,339.144 C271.07,342.969 277.913,346.77 281.277,345.309 C288.882,342.009 291.911,331.545 295.053,324.646 C300.401,312.903 305.775,301.44 303.563,288.212 C303.174,285.882 299.087,287.042 298.721,288.892 L298.721,288.892 Z" id="Shape"></path>
                    <path d="M288.874,317.547 C280.281,330.275 271.101,342.922 259.5,353.077 C262.155,351.925 264.812,350.771 267.467,349.619 C267.176,349.609 266.886,349.599 266.595,349.59 C268.225,350.09 269.855,350.589 271.486,351.088 C266.846,346.277 256.295,350.935 256.511,357.586 C256.593,360.113 258.55,361.057 260.659,361.68 C260.918,361.756 261.176,361.832 261.434,361.909 C264.724,362.88 269.056,360.795 271.349,358.568 C282.833,347.42 290.11,333.173 294.145,317.862 C294.987,314.67 289.921,315.996 288.874,317.547 L288.874,317.547 Z" id="Shape"></path>
                    <path d="M252.25,196.628 C247.933,195.435 243.174,196.487 238.832,197.111 C233.122,197.931 227.482,199.138 221.869,200.461 C217.588,201.47 213.565,203.089 209.594,204.953 C198.668,210.085 188.257,216.432 178.002,222.775 C168.396,228.716 158.806,234.851 149.953,241.885 C147.03,244.207 141.755,247.702 140.697,251.572 C139.167,257.167 143.98,259.001 148.718,258.204 C152.339,257.596 156.535,254.131 155.462,250.158 C155.95,251.965 155.188,253.629 153.909,254.922 C154.138,254.69 154.358,254.451 154.599,254.231 C155.344,253.549 157.588,250.827 155.541,253.221 C155.924,252.772 156.348,252.357 156.766,251.942 C160.056,248.682 160.518,248.571 164.038,245.904 C172.605,239.416 181.546,233.399 190.57,227.569 C198.789,222.259 207.162,217.132 215.735,212.412 C214.553,213.062 216.871,211.833 217.089,211.722 C217.789,211.364 218.492,211.013 219.2,210.672 C221.317,209.655 223.548,208.971 225.782,208.253 C234.327,205.508 244.886,204.176 252.307,198.873 C253.241,198.208 253.584,196.997 252.25,196.628 L252.25,196.628 Z" id="Shape"></path>
                    <path d="M248.126,196.936 C241.793,200.451 237.09,206.959 232.279,212.242 C227.095,217.932 222.328,224.135 217.801,230.354 C221.194,228.882 224.585,227.411 227.978,225.938 C198.736,220.973 168.552,232.639 148.91,254.576 C147.281,256.395 146.016,258.424 146.885,260.929 C146.956,261.132 147.027,261.336 147.098,261.54 C148.01,264.168 151.967,264.288 154.125,263.73 C160.779,262.01 164.402,256.292 169.335,251.924 C173.746,248.018 178.902,244.881 184.216,242.379 C195.621,237.01 208.267,235.58 220.701,237.035 C224.301,237.456 228.977,235.972 230.878,232.619 C234.578,226.088 239.017,220.111 243.142,213.857 C246.096,209.378 251.735,203.199 251.288,197.482 C251.161,195.863 249,196.452 248.126,196.936 L248.126,196.936 Z" id="Shape"></path>
                    <path d="M233.161,201.282 C221.368,207.28 212.228,216.436 203.134,225.932 C197.122,232.209 206.809,235.2 211.716,231.685 C220.512,225.387 228.558,218.107 237.648,212.208 C235.264,209.925 232.879,207.642 230.496,205.358 C220.713,211.394 212.005,218.806 203.781,226.811 C202.018,228.527 200.67,231.578 202.786,233.608 C205.426,236.139 210.49,234.997 213.11,233.064 C222.892,225.847 232.478,218.25 240.569,209.128 C245.082,204.04 240.79,200.311 235.09,201.221 C215.874,204.288 201.159,218.151 185.546,228.547 C182.99,230.249 179.893,234.343 182.844,237.173 C185.823,240.03 190.94,238.457 193.943,236.588 C203.327,230.744 212.1,224.081 220.519,216.925 C222.155,215.534 223.397,212.884 222.481,210.773 C221.17,207.753 217.222,207.787 214.542,208.298 C205.409,210.044 197.078,214.567 189.378,219.624 C181.995,224.473 173.413,230.138 169.453,238.242 C167.112,243.034 175.087,243.096 177.454,242.039 C190.762,236.092 199.693,222.941 214.683,220.077 C212.69,217.201 210.698,214.325 208.705,211.45 C201.386,217.671 193.63,223.357 185.547,228.547 C188.346,231.228 191.145,233.907 193.943,236.588 C206.714,227.824 219.324,214.457 235.219,212.018 C233.393,209.382 231.566,206.747 229.74,204.111 C222.443,212.231 213.941,218.966 205.301,225.584 C208.41,227.668 211.521,229.753 214.63,231.837 C221.723,224.666 229.214,217.783 237.65,212.208 C239.834,210.766 242.462,207.267 239.953,204.859 C237.421,202.431 233.048,203.755 230.498,205.358 C221.343,211.108 212.966,218.062 204.533,224.803 C207.744,226.298 210.954,227.794 214.164,229.289 C221.076,220.627 228.285,211.973 236.471,204.486 C239.12,202.063 235.535,200.075 233.161,201.282 L233.161,201.282 Z" id="Shape"></path>
                    <path d="M147.961,254.514 C155.377,249.234 160.875,240.671 167.227,234.117 C174.406,226.71 182.273,219.937 190.623,213.887 C198.88,207.904 207.761,202.95 217.287,199.303 C225.365,196.21 235.595,193.735 244.26,195.216 C243.001,194.357 241.741,193.498 240.483,192.639 C240.984,193.521 241.61,194.275 242.263,195.038 C244.555,191.543 246.846,188.049 249.138,184.554 C245.304,185.285 241.041,187.107 239.054,190.663 C237.762,192.976 238.613,194.863 241.159,195.514 C242.503,195.858 243.871,196.159 245.255,196.43 C249.487,197.261 262.178,190.946 256.151,185.769 C252.127,182.313 246.447,183.152 241.435,183.431 C235.452,183.765 229.476,184.934 223.714,186.54 C211.634,189.909 200.325,195.695 189.878,202.556 C179.48,209.384 170.002,217.648 161.56,226.764 C157.636,230.999 153.824,235.451 150.486,240.164 C147.66,244.155 143.861,248.756 143.678,253.773 C143.601,255.92 146.97,255.219 147.961,254.514 L147.961,254.514 Z" id="Shape"></path>
                    <path d="M190.588,220.462 C197.661,217.684 203.779,212.673 210.601,209.309 C218.305,205.508 225.967,203.72 234.546,204.174 C235.67,200.76 236.795,197.344 237.919,193.93 C234.438,193.928 231.188,194.625 228.347,196.722 C226.266,198.257 223.487,201.576 226.054,204.04 C228.635,206.516 232.856,205.047 235.47,203.544 C241.194,200.254 247.183,197.334 253.304,194.859 C250.379,193.472 247.455,192.084 244.531,190.697 C242.202,196.137 233.69,197.735 233.666,204.486 C233.661,205.883 234.886,206.631 236.097,206.882 C245.289,208.798 255.041,197.778 258.209,190.107 C260.43,184.73 252.249,184.774 249.436,185.945 C242.159,188.972 235.089,192.643 228.348,196.721 C230.722,198.995 233.097,201.269 235.471,203.543 C232.613,204.136 232.305,204.346 234.547,204.173 C241.065,204.019 247.329,194.195 237.92,193.929 C227.868,193.643 217.908,196.997 209.094,201.604 C201.423,205.613 192.153,210.863 187.048,218.046 C185.265,220.554 188.979,221.094 190.588,220.462 L190.588,220.462 Z" id="Shape"></path>
                    <path d="M206.03,208.768 C203.394,208.308 201.475,207.934 198.764,208.397 C195.957,208.877 193.431,210.239 190.965,211.581 C185.953,214.311 181.798,219.147 179.828,224.468 C179.133,226.349 180.602,227.842 182.365,228.148 C185.124,228.626 187.866,227.175 189.515,225.044 C193.495,219.9 197.706,215.105 204.411,213.718 C206.549,213.276 209.767,209.42 206.03,208.768 L206.03,208.768 Z" id="Shape"></path>
                    <path d="M257.042,347.995 C251.92,351.643 247.071,354.745 241.383,357.429 C237.767,359.136 237.794,364.05 242.507,362.803 C249.783,360.878 254.907,355.063 260.248,350.144 C262.643,347.937 258.849,346.706 257.042,347.995 L257.042,347.995 Z" id="Shape"></path>
                    <path d="M269.605,344.577 C266.762,346.612 242.842,363.893 246.604,367.136 C250.79,370.743 258.096,364.802 261.136,362.125 C266.02,357.825 268.983,351.554 273.853,347.425 C277.12,344.654 272.006,342.858 269.605,344.577 L269.605,344.577 Z" id="Shape"></path>
                    <path d="M295.061,218.288 C297.722,222.728 300.654,227.327 302.85,232.039 C305.5,237.724 306.27,244.003 306.616,250.208 C307.443,265.021 304.326,279.656 299.628,293.628 C294.729,308.198 287.949,322.093 279.236,334.763 C275.548,340.126 271.431,345.133 266.756,349.663 C264.674,351.68 263.147,352.954 260.876,354.565 C258.387,356.331 258.293,356.284 255.351,357.593 C252.685,358.78 248.763,361.961 250.246,365.377 C251.734,368.804 256.725,368.087 259.418,366.966 C272.064,361.703 281.902,350.387 289.697,339.527 C299.275,326.183 306.645,310.881 311.791,295.31 C316.686,280.5 320.089,264.067 318.607,248.41 C317.954,241.502 316.051,234.827 313.015,228.59 C309.9,222.19 305.765,218.002 299.055,215.641 C297.845,215.215 293.906,216.36 295.061,218.288 L295.061,218.288 Z" id="Shape"></path>
                    <path d="M258.084,350.288 C255.449,351.368 252.762,352.323 250.142,353.438 C247.148,354.713 243.131,357.034 243.125,360.692 C243.124,361.797 244.141,362.587 245.167,362.707 C248.703,363.121 251.688,361.636 254.637,359.832 C257.01,358.38 259.444,357.042 261.847,355.64 C263.199,354.852 264.655,352.947 263.942,351.302 C262.989,349.107 259.809,349.581 258.084,350.288 L258.084,350.288 Z" id="Shape"></path>
                    <path d="M72.942,242.582 C49.088,242.761 30.051,262.458 21.169,282.987 C12.482,303.065 13.458,326.137 29.528,342.16 C46.013,358.597 71.213,358.821 91.925,351.723 C111.234,345.106 127.148,328.004 136.385,310.265 C143.258,297.066 147.449,280.91 140.911,266.74 C134.037,251.842 115.442,243.957 100.255,241.275 C83.397,238.299 65.234,241.623 50.186,249.619 C42.373,253.771 35.255,259.036 29.266,265.574 C24.047,271.273 16.843,279.568 18.145,287.744 C18.971,292.938 26.317,290.989 28.886,288.368 C35.971,281.142 39.761,271.709 47.864,265.241 C55.272,259.328 63.864,255.724 73.132,253.963 C90.234,250.711 114.969,256.664 124.017,272.924 C133.185,289.398 121.781,310.863 110.969,323.535 C98.249,338.444 81.144,346.871 61.103,342.087 C40.684,337.213 29.836,317.286 31.667,297.383 C32.727,285.878 38.063,274.553 45.098,265.549 C52.248,256.396 62.712,250.558 72.999,245.7 C74.616,244.935 75.43,242.563 72.942,242.582 L72.942,242.582 Z" id="Shape"></path>
                    <path d="M273.834,376.216 C265.48,364.035 246.06,364.76 233.267,368.091 C217.864,372.102 203.977,381.983 193.607,393.867 C175.04,415.147 162.019,449.488 181.774,474.221 C193.057,488.347 214.602,494.847 231.997,492.789 C255.567,490 273.257,472.783 283.163,452.113 C291.882,433.924 297.624,410.432 286.398,392.049 C276.239,375.41 256.246,369.098 237.666,369.346 C226.348,369.496 214.816,371.889 206.001,379.249 C202.743,381.97 204.81,386.24 208.874,385.867 C218.346,384.996 227.233,382.076 236.835,382.286 C244.872,382.463 253.542,384.953 260.228,389.475 C277.821,401.378 277.452,422.288 271.553,440.587 C265.965,457.925 253.73,478.35 233.688,480.126 C218.551,481.469 200.802,473.362 193.289,459.896 C182.101,439.845 192.992,413.541 206.49,397.912 C214.623,388.496 223.271,382.118 234.487,378.053 C245.529,374.05 258.066,377.385 270.145,379.169 C271.252,379.333 275.036,377.969 273.834,376.216 L273.834,376.216 Z" id="Shape"></path>
                    <path d="M360.253,155.756 C356.523,159.318 354.708,165.025 352.035,169.409 C348.672,174.928 344.624,180.066 340.557,185.076 C332.757,194.687 324.154,203.607 316.642,213.458 C314.077,216.822 318.549,219.035 321.429,218.184 C331.241,215.284 339.999,210.438 348.15,204.295 C352.39,201.1 356.354,197.558 360.182,193.886 C363.178,191.012 367.016,187.305 367.97,183.125 C368.595,180.386 365.202,180.051 363.367,180.941 C356.13,184.449 350.73,191.241 344.681,196.398 C337.817,202.25 329.974,207.562 321.334,210.375 C322.93,211.949 324.525,213.525 326.121,215.101 C333.379,204.728 341.848,195.275 349.441,185.155 C353.224,180.111 356.613,174.839 359.481,169.222 C361.271,165.717 364.919,159.567 362.885,155.626 C362.378,154.639 360.856,155.18 360.253,155.756 L360.253,155.756 Z" id="Shape"></path>
                    <path d="M330.706,203.63 C325.065,207.829 319.989,213.379 314.083,217.075 C310.343,219.416 312.333,223.344 316.422,222.465 C328.026,219.975 338.53,213.971 347.997,206.986 C352.81,203.433 357.278,199.423 361.487,195.178 C364.06,192.583 368.636,188.02 367.343,183.994 C366.994,182.91 365.234,182.776 364.357,183.063 C360.328,184.377 357.272,187.258 354.296,190.201 C350.361,194.092 346.398,197.852 342.059,201.299 C333.942,207.747 324.883,212.88 315.17,216.484 C316.863,217.639 318.557,218.795 320.25,219.949 C323.363,214.43 328.783,209.697 332.522,204.476 C333.37,203.295 331.374,203.133 330.706,203.63 L330.706,203.63 Z" id="Shape"></path>
                    <path d="M332.36,214.215 C340.539,209.285 349.063,205.081 357.069,199.829 C360.792,197.387 364.42,194.808 367.865,191.987 C371.065,189.367 375.35,186.304 376.582,182.184 C377.099,180.456 374.801,180.4 373.762,180.846 C370.404,182.287 367.666,184.75 364.862,187.067 C361.062,190.206 357.107,193.162 353.091,196.019 C345.491,201.425 337.948,206.863 330.407,212.343 C328.263,213.903 330.596,215.278 332.36,214.215 L332.36,214.215 Z" id="Shape"></path>
                    <path d="M341.047,209.811 C354.391,204.292 367.485,198.685 379.951,191.308 C386.326,187.536 392.557,183.436 398.3,178.749 C402.145,175.611 408.321,171.15 408.731,165.728 C408.843,164.245 406.549,164.41 405.741,164.796 C400.754,167.184 396.837,171.48 392.556,174.898 C387.082,179.269 381.261,183.177 375.309,186.861 C363.808,193.978 351.864,200.791 339.719,206.748 C336.928,208.117 338.142,211.013 341.047,209.811 L341.047,209.811 Z" id="Shape"></path>
                    <path d="M346.87,206.4 C353.575,203.112 360.223,199.816 366.622,195.955 C372.606,192.344 379.567,188.328 383.66,182.501 C384.469,181.351 382.766,180.988 381.983,181.358 C375.977,184.191 370.655,188.5 365.125,192.147 C358.687,196.393 352.094,200.465 345.462,204.397 C343.643,205.475 345.215,207.21 346.87,206.4 L346.87,206.4 Z" id="Shape"></path>
                    <path d="M334.395,212.312 C350.807,209.602 365.114,202.083 378.877,192.934 C386.26,188.028 393.372,182.717 400.446,177.381 C403.671,174.949 406.874,172.464 410.008,169.916 C412.643,167.775 416.097,165.484 417.328,162.195 C417.797,160.945 416.208,160.67 415.365,160.834 C408.701,162.135 402.627,168.252 397.343,172.199 C390.71,177.153 384.176,182.217 377.396,186.973 C364.342,196.13 349.867,205.806 334.372,210.246 C332.853,210.682 332.4,212.642 334.395,212.312 L334.395,212.312 Z" id="Shape"></path>
                    <path d="M366.754,195.136 C379.733,188.721 393.456,183.909 406.483,177.552 C412.952,174.395 419.252,170.852 425.211,166.812 C429.991,163.572 436.089,159.533 438.567,154.143 C439.913,151.217 434.86,151.864 433.674,152.643 C428.403,156.114 424.057,160.925 418.764,164.481 C412.924,168.404 406.66,171.692 400.397,174.878 C388.644,180.859 376.803,186.476 365.678,193.604 C364.323,194.473 365.483,195.765 366.754,195.136 L366.754,195.136 Z" id="Shape"></path>
                    <path d="M371.784,194.202 C384.249,188.156 396.823,182.626 408.873,175.726 C414.741,172.366 420.401,168.706 425.883,164.747 C430.148,161.667 436.725,157.386 438.431,152.192 C438.966,150.56 436.736,150.581 435.805,150.946 C430.618,152.985 426.113,157.415 421.627,160.672 C416.182,164.626 410.54,168.3 404.823,171.849 C393.509,178.872 382.009,185.649 370.624,192.553 C369.134,193.456 370.418,194.864 371.784,194.202 L371.784,194.202 Z" id="Shape"></path>
                    <path d="M318.02,221.383 C327.381,221.675 335.635,217.747 344.087,214.137 C352.896,210.375 361.253,206.136 369.637,201.484 C378.131,196.77 386.485,191.757 394.548,186.34 C398.43,183.731 402.202,180.954 405.838,178.014 C409.322,175.196 413.669,172.056 415.827,168.049 C418.492,163.099 411.64,162.821 408.738,164.747 C402.181,169.098 396.711,175.4 390.372,180.163 C383.059,185.658 375.325,190.542 367.456,195.193 C360.065,199.561 352.576,203.785 344.816,207.456 C336.217,211.523 327.588,216.684 318.37,219.228 C317.168,219.56 316.146,221.326 318.02,221.383 L318.02,221.383 Z" id="Shape"></path>
                    <path d="M325.392,217.993 C336.518,215.559 347.386,210.451 357.565,205.475 C368.355,200.2 378.956,194.545 389.477,188.756 C402.4,181.644 415.604,175.045 428.399,167.696 C442.465,159.617 456.239,150.613 468.049,139.423 C473.207,134.536 477.916,128.979 481.502,122.831 C484.263,118.097 488.369,110.586 484.194,105.736 C482.156,103.368 477.885,105.794 476.485,107.604 C473.091,111.994 472.537,117.917 469.741,122.748 C466.391,128.537 461.653,133.391 456.77,137.896 C445.585,148.214 432.335,156.325 419.207,163.902 C407.569,170.619 395.536,176.599 384.031,183.541 C374.009,189.588 363.782,195.289 353.419,200.729 C343.846,205.754 333.746,210.597 324.867,216.787 C324.079,217.336 324.446,218.2 325.392,217.993 L325.392,217.993 Z" id="Shape"></path>
                    <path d="M216.97,232.384 C200.104,227.737 180.683,237.279 167.988,247.78 C160.864,253.673 154.915,260.833 149.186,268.042 C146.024,272.021 142.966,276.081 139.889,280.125 C137.453,283.325 132.705,287.515 133.792,291.839 C134.255,293.677 137.268,293.071 138.406,292.638 C142.505,291.075 144.838,287.409 147.385,284.026 C150.19,280.301 152.928,276.526 155.73,272.799 C160.595,266.329 165.662,260.001 171.356,254.236 C176.643,248.886 182.71,244.296 189.544,241.122 C198.128,237.135 207.319,236.346 216.393,234.149 C217.205,233.953 218.254,232.739 216.97,232.384 L216.97,232.384 Z" id="Shape"></path>
                </g>
            </g>
        </g>
    </g>
</svg>