<?xml version="1.0" encoding="UTF-8" standalone="no"?><!DOCTYPE svg PUBLIC "-//W3C//DTD SVG 1.1//EN" "http://www.w3.org/Graphics/SVG/1.1/DTD/svg11.dtd"><svg width="100%" height="100%" viewBox="0 0 555 434" version="1.1" xmlns="http://www.w3.org/2000/svg" xmlns:xlink="http://www.w3.org/1999/xlink" xml:space="preserve" style="fill-rule:evenodd;clip-rule:evenodd;stroke-linejoin:round;stroke-miterlimit:1.41421;"><g id="sister"><path d="M90.37,54.82c-7.906,-5.959 -19.796,0.381 -26.514,5.27c-8.286,6.031 -16.084,16.032 -18.993,25.929c-6.026,20.504 12.263,35.459 31.214,36.844c21.568,1.576 39.979,-13.288 43.266,-34.652c1.505,-9.782 -1.483,-19.425 -7.736,-26.988c-2.968,-3.589 -6.935,-6.447 -10.985,-8.68c-2.321,-1.28 -4.983,-2.108 -7.552,-2.72c-3.194,-0.761 -5.387,-0.049 -8.559,0.274c-2.062,0.21 -5.684,4.119 -2.646,5.595c1.693,0.823 2.589,2.134 4.374,2.786c1.681,0.613 3.315,1.42 4.929,2.189c3.605,1.719 6.897,3.791 9.793,6.55c5.292,5.044 8.085,11.877 8.306,19.118c0.223,7.317 -3.141,15.111 -8.341,20.188c-5.449,5.317 -12.872,6.868 -20.24,6.862c-13.884,-0.011 -30.274,-9.753 -27.932,-25.417c1.223,-8.175 7.078,-15.825 12.797,-21.486c2.973,-2.941 6.445,-5.37 10.273,-7.06c4.28,-1.89 8.779,-1.613 13.324,-2.015c1.151,-0.104 2.39,-1.707 1.222,-2.587Z" style="fill-rule:nonzero;"/><path d="M50.784,136.504c-2.056,6.09 -1.52,13.847 -1.636,20.225c-0.132,7.22 0.468,14.308 2.41,21.275c0.467,1.674 2.857,2.175 4.266,1.557c10.446,-4.583 22.879,-0.952 33.905,-1.17c6.217,-0.123 12.412,-0.62 18.635,-0.553c5.291,0.058 12.078,3.44 16.598,-0.031c2.961,-2.275 2.584,-6.847 -1.505,-6.989c-0.48,-0.065 -0.952,-0.022 -1.416,0.129c-2.982,0.586 -6.796,4.566 -3.378,7.139c0.063,0.072 0.125,0.145 0.188,0.217c1.536,-2.495 3.071,-4.989 4.606,-7.484c-1.599,0.227 -5.277,-1.108 -7.136,-1.297c-3.154,-0.319 -6.356,-0.317 -9.521,-0.286c-6.162,0.062 -12.307,0.625 -18.471,0.69c-11.717,0.122 -22.889,-2.794 -34.01,2.38c1.783,0.358 3.567,0.717 5.352,1.076c-2.418,-6.033 -2.883,-12.577 -3.169,-19.01c-0.266,-5.972 1.105,-13.735 -1.167,-19.333c-1.013,-2.496 -4.041,-0.045 -4.551,1.465Z" style="fill-rule:nonzero;"/><path d="M52.667,136.533c4.75,1.857 10.188,1.561 15.224,1.931c5.817,0.429 11.646,0.755 17.465,1.168c11.919,0.845 23.8,1.44 35.747,1.591c-0.812,-1.327 -1.622,-2.653 -2.434,-3.98c-5.035,9.928 2.326,22.681 -2.218,32.271c-1.525,3.221 1.749,5.195 4.498,3.611c10.944,-6.306 0.535,-25.162 4.04,-34.704c0.741,-2.019 0.031,-4.099 -2.434,-3.98c-12.117,0.58 -24.293,-0.146 -36.394,-0.776c-10.301,-0.536 -22.669,-2.741 -32.636,0.368c-0.748,0.234 -2.161,1.991 -0.858,2.5Z" style="fill-rule:nonzero;"/><path d="M55.625,175.918c-6.341,4.509 -9.521,13.222 -12.354,20.193c-3.674,9.047 -6.507,18.413 -10.013,27.524c-7.853,20.41 -16.813,40.99 -19.065,62.98c2.826,-1.267 5.652,-2.534 8.479,-3.802c-0.276,-0.579 -0.696,-1.03 -1.262,-1.354c-2.688,-2.217 -5.907,0.335 -6.838,3.066c-0.399,1.173 -0.534,1.988 -0.475,3.214c0.275,5.635 8.769,2.24 9.233,-1.865c2.343,-20.676 8.462,-40.208 15.827,-59.604c3.246,-8.551 5.708,-17.381 8.725,-26.012c1.418,-4.061 2.984,-8.072 4.732,-12.002c1.664,-3.744 4.132,-7.169 5.088,-11.179c0.297,-1.236 -1.16,-1.811 -2.077,-1.159Z" style="fill-rule:nonzero;"/><path d="M118.108,173.183c-0.029,10.545 4.431,21.104 7.796,31.057c3.607,10.669 6.779,21.389 9.575,32.297c2.863,11.175 5.82,22.325 8.695,33.497c1.18,4.582 2.347,8.882 2.908,13.582c0.125,1.044 0.584,2.35 1.686,2.773c0.064,0.024 0.128,0.049 0.191,0.073c2.046,0.787 4.038,0.237 5.688,-1.183c4.753,-4.095 0.84,-11.503 -0.597,-16.423c-2.866,-9.815 -5.741,-19.637 -8.586,-29.463c-3.479,-12.018 -6.962,-23.948 -11.243,-35.711c-3.874,-10.643 -7.073,-22.732 -13.139,-32.21c-0.911,-1.422 -2.971,0.627 -2.974,1.711Z" style="fill-rule:nonzero;"/><path d="M14.26,289.942c8.128,6.631 19.555,8.014 29.67,9.074c11.154,1.17 22.437,0.934 33.635,0.953c26.074,0.045 51.434,0.061 76.241,-8.96c5.51,-2.003 7.093,-11.252 -0.517,-9.525c-3.395,0.77 -6.149,2.077 -8.213,4.975c-0.688,0.966 -1.303,2.666 -0.282,3.669c2.616,2.572 5.788,1.763 9.012,0.882c-0.618,-2.978 -1.235,-5.956 -1.854,-8.935c-10.555,5.027 -22.997,6.548 -34.503,7.574c-12.165,1.084 -24.41,0.994 -36.611,1.047c-10.42,0.044 -20.816,0.19 -31.229,-0.326c-10.836,-0.538 -21.069,-2.76 -31.539,-5.422c-2.075,-0.528 -6.059,3.16 -3.81,4.994Z" style="fill-rule:nonzero;"/><path d="M51.635,135.981c-7.971,4.434 -13.381,13.074 -18.444,20.377c-5.211,7.517 -9.901,15.357 -14.601,23.197c-8.57,14.297 -18.706,30.928 -17.957,48.232c0.059,1.357 1.065,2.625 2.458,2.801c12.044,1.527 20.251,-15.433 25.036,-23.908c3.18,-5.631 6.137,-11.269 9.706,-16.672c6.264,-9.482 12.979,-18.625 18.793,-28.403c2.708,-4.554 -3.771,-6.705 -6.697,-3.669c-1.387,1.438 -2.56,2.752 -3.295,4.633c-0.987,2.527 0.661,5.083 3.554,4.05c1.932,-0.689 3.377,-1.392 4.821,-2.895c-2.232,-1.223 -4.465,-2.446 -6.697,-3.669c-7.816,13.191 -17.608,25.118 -24.893,38.631c-2.622,4.864 -5.245,9.728 -8.264,14.36c-1.142,1.75 -5.397,9.371 -8.079,9.087c0.82,0.934 1.639,1.867 2.459,2.801c-1.012,-15.646 8.724,-31.024 16.254,-44.036c4.201,-7.26 8.423,-14.483 13.033,-21.496c4.75,-7.226 11.188,-13.967 14.679,-21.922c0.592,-1.35 -0.697,-2.149 -1.866,-1.499Z" style="fill-rule:nonzero;"/><path d="M42.966,102.894c-6.874,-2.991 -11.963,-11.778 -14.351,-18.61c-0.959,-2.741 -1.288,-5.892 -0.846,-8.762c0.175,-1.138 0.889,-1.575 0.067,-1.439c1.556,-0.257 3.226,1.424 4.333,2.253c3.413,2.557 8.316,-3.438 6.22,-6.674c-4.005,-6.182 -4.475,-16.755 -2.618,-23.688c0.875,-3.268 3.898,-4.737 7.048,-4.336c3.781,0.481 5.851,3.76 6.692,7.149c1.226,4.939 8.283,-0.362 8.364,-3.7c0.109,-4.498 0.739,-8.961 1.8,-13.332c0.546,-2.254 2.413,-9.577 5.789,-9.401c5.691,0.296 7.336,14.833 8.185,18.914c0.984,4.731 8.879,0 8.555,-3.784c-0.641,-7.489 4.577,-16.905 13.049,-12.202c6.796,3.772 8.648,14.637 8.34,21.617c2.944,-1.303 5.889,-2.605 8.833,-3.908c-0.586,-2.619 1.294,-3.899 3.504,-4.619c3.2,-1.042 6.093,1.711 7.371,4.348c2.765,5.699 -1.318,13.265 -4.175,18.113c-1.158,1.966 -0.275,4.72 2.066,5.154c2.718,0.504 4.906,-1.488 6.198,-3.613c0.012,-0.02 1.893,1.337 2.267,1.754c1.648,1.842 0.357,4.821 -0.478,6.656c-1.774,3.9 -4.169,7.29 -5.537,11.391c-0.818,2.448 1.428,4.335 3.684,4.199c4.09,-0.249 4.369,7.304 3.225,9.915c-2.332,5.322 -8.644,9.396 -13.634,11.91c-4.006,2.019 -3.843,8.555 1.502,7.243c9.272,-2.276 19.498,-11.298 21.886,-20.729c1.989,-7.854 -1.717,-18.135 -11.018,-17.492c1.229,1.399 2.456,2.799 3.685,4.199c2.695,-8.292 10.418,-15.232 4.501,-24.149c-5.057,-7.62 -14.885,-2.214 -18.347,3.563c2.755,0.514 5.51,1.027 8.265,1.541c5.795,-9.979 9.671,-23.9 -1.634,-31.49c-4.516,-3.032 -11.249,-1.08 -15.384,1.582c-5.376,3.46 -8.132,9.202 -6.572,15.441c1.303,5.206 8.76,-0.37 8.834,-3.908c0.23,-11.035 -4.561,-25.345 -16.48,-28.242c-13.653,-3.318 -23.792,12.699 -22.707,24.533c2.852,-1.261 5.703,-2.522 8.555,-3.784c-1.942,-9.057 -4.544,-24.949 -17.221,-22.054c-13.024,2.975 -15.521,22.666 -15.468,33.379c2.788,-1.233 5.576,-2.467 8.364,-3.7c-3.641,-13.121 -18.582,-13.226 -26.749,-4.347c-7.844,8.528 -5.447,27.152 0.515,35.973c2.073,-2.225 4.146,-4.449 6.22,-6.674c-4.598,-2.273 -9.099,-3.088 -13.401,0.104c-3.564,2.645 -4.119,8.019 -3.931,12.058c0.488,10.418 8.985,24.365 19.297,27.132c2.55,0.685 6.401,-4.15 3.337,-5.484Z" style="fill-rule:nonzero;"/><path d="M469.519,2.555c-9.579,-4.252 -20.816,-0.764 -29.403,4.246c-9.657,5.635 -17.027,15.043 -21.36,25.228c-7.164,16.835 -3.462,35 12.768,44.54c13.764,8.091 32.506,7.645 46.071,-0.538c15.646,-9.437 18.923,-26.887 14.849,-43.602c-3.995,-16.387 -20.396,-37.463 -38.623,-25.185c-1.639,1.104 -3.343,5.785 0.287,5.11c7.644,-1.423 14.604,0.323 20.06,5.934c5.954,6.124 9.29,14.872 10.618,23.184c1.235,7.731 0.721,16.04 -4.204,22.406c-4.593,5.938 -12.229,8.78 -19.452,9.646c-15.235,1.826 -32.71,-5.376 -37.163,-21.092c-2.922,-10.308 1.813,-22.145 7.794,-30.398c7.648,-10.555 18.312,-14.803 30.74,-16.586c1.888,-0.271 3.882,-0.177 5.787,-0.287c0.967,-0.058 2.643,-1.979 1.231,-2.606Z" style="fill-rule:nonzero;"/><path d="M123.583,139.083c0.088,8.559 4.576,16.132 8.663,23.392c4.192,7.447 7.908,15.002 11.814,22.592c7.523,14.617 18.63,30.924 18.143,48.016c1.722,-1.511 3.442,-3.021 5.164,-4.532c-3.39,-0.641 -4.719,-3.28 -7.346,-5.124c-1.48,-1.039 -4.044,0.888 -4.188,2.434c-0.498,5.347 3.326,8.528 8.34,9.468c2.627,0.492 5.098,-2.034 5.164,-4.532c0.449,-16.772 -9.963,-32.666 -17.676,-46.84c-3.857,-7.087 -7.248,-14.359 -11.464,-21.25c-4.969,-8.122 -10.274,-15.973 -13.385,-25.051c-0.634,-1.851 -3.243,0.077 -3.229,1.427Z" style="fill-rule:nonzero;"/><path d="M117.857,164.055c4.507,13.617 12.577,26.039 20.159,38.162c3.833,6.128 7.675,12.251 11.16,18.586c1.412,2.566 2.688,5.201 3.859,7.886c1.092,2.501 1.158,4.66 4.067,5.314c1.411,0.317 2.747,-0.822 3.368,-1.963c2.47,-4.531 -2.449,-11.055 -4.642,-15.03c-3.219,-5.836 -6.921,-11.395 -10.61,-16.938c-8.356,-12.56 -15.979,-25.628 -25.479,-37.361c-0.706,-0.874 -2.176,0.454 -1.882,1.344Z" style="fill-rule:nonzero;"/><path d="M169.223,243.167c-0.131,-1.577 -0.795,-2.138 -2.118,-3.012c-1.11,-0.733 -2.499,0.481 -3.007,1.366c-5.549,9.669 -1.503,20.361 3.646,29.236c2.955,5.094 6.419,9.878 9.795,14.695c3.19,4.554 5.668,9.183 8.313,14.023c1.878,3.438 7.411,-0.727 5.446,-3.889c-0.2,-0.346 -0.399,-0.691 -0.6,-1.038c-1.415,-2.558 -4.905,-0.073 -4.927,2.18c0.007,0.69 -0.014,1.38 -0.061,2.069c1.979,-0.876 3.959,-1.752 5.938,-2.627c-1.152,-3.857 -4.154,-7.569 -6.432,-10.834c-3.201,-4.59 -6.669,-8.988 -9.887,-13.567c-5.965,-8.488 -12.248,-19.114 -7.776,-29.604c-0.709,0.511 -1.417,1.021 -2.125,1.531c1.049,-0.177 2.083,-0.152 3.104,0.074c0.326,0.057 0.72,-0.262 0.691,-0.603Z" style="fill-rule:nonzero;"/><path d="M165.343,242.885c3.368,2.159 5.287,8.131 7.028,11.533c2.453,4.793 5.039,8.883 8.448,13.104c2.935,3.633 5.605,7.449 8.416,11.173c1.757,2.327 3.738,4.679 4.651,7.448c0.227,-1.058 0.453,-2.116 0.681,-3.174c-0.025,0.038 -0.052,0.076 -0.077,0.115c1.052,-0.611 2.104,-1.222 3.155,-1.832c-1.42,0.185 -3.328,0.544 -4.062,2.428c-0.348,0.891 -0.561,2.008 0.177,2.793c2.892,3.079 8.524,-1.444 6.165,-4.873c-2.441,-3.547 -4.881,-7.013 -7.696,-10.291c-4.882,-5.682 -10.481,-11.446 -14.447,-17.802c-2.777,-4.451 -6.08,-10.937 -11.864,-11.567c-0.435,-0.048 -1.093,0.613 -0.575,0.945Z" style="fill-rule:nonzero;"/><path d="M198.808,283.115c-5.961,-0.677 -8.141,7.322 -8.477,11.838c-0.503,6.774 0.296,13.765 2.005,20.336c0.336,1.294 1.936,1.844 3.109,1.736c9.026,-0.829 18.482,-1.379 27.202,-0.692c5.056,0.398 12.402,2.262 15.311,-3.232c0.539,-1.019 0.681,-2.708 -0.228,-3.59c-0.021,-0.021 -0.043,-0.042 -0.064,-0.063c-0.941,-0.914 -2.217,-1.089 -3.447,-0.676c-0.76,0.255 -1.518,0.633 -2.125,1.166c-0.473,0.412 -0.845,0.899 -1.117,1.463c-1.074,2.283 0.358,-0.492 0.436,-0.578c1.588,-0.722 3.177,-1.443 4.766,-2.165c1.432,0.372 -1.366,-0.232 -1.9,-0.203c-0.955,0.052 -1.916,0.009 -2.871,-0.042c-2.451,-0.13 -4.897,-0.354 -7.346,-0.526c-8.824,-0.624 -18.177,-0.288 -26.902,1.145c1.037,0.579 2.074,1.157 3.111,1.736c-1.551,-4.097 -2.334,-8.47 -2.92,-12.794c-0.465,-3.431 -1.594,-9.793 1.627,-12.186c0.798,-0.594 1.247,-2.512 -0.17,-2.673Z" style="fill-rule:nonzero;"/><path d="M194.803,284.636c5.271,1.585 11.876,0.487 17.301,0.429c3.529,-0.039 7.047,0.021 10.563,0.336c2.229,0.199 6.091,0.339 7.878,1.862c3.54,3.016 4.35,9.091 4.492,13.4c0.063,1.884 -0.039,4.354 -1.217,5.921c-0.881,1.173 -1.658,2.997 -0.586,4.289c0.926,1.114 2.63,0.803 3.731,0.199c8.487,-4.657 5.606,-23.34 -1.22,-28.249c-4.871,-3.503 -12.493,-3.003 -18.18,-2.946c-7.135,0.07 -15.229,0.052 -22.156,1.92c-1.201,0.325 -2.212,2.357 -0.606,2.839Z" style="fill-rule:nonzero;"/><path d="M194.494,314.53c-12.392,10.653 -17.853,29.06 -23.52,43.82c-0.912,2.375 0.584,4.146 3.084,3.515c4.384,-1.108 9.983,-1.224 14.744,-1.577c8.45,-0.629 16.923,-0.995 25.392,-1.248c7.807,-0.234 15.621,-0.365 23.429,-0.186c2.655,0.061 5.31,0.181 7.952,0.459c0.865,0.092 1.725,0.222 2.575,0.402c1.99,0.422 -0.051,0.204 -0.076,-1.389c0.069,4.262 6.724,1.318 6.668,-2.139c-0.067,-4.245 -7.492,-3.82 -10.238,-3.965c-8.194,-0.432 -16.421,-0.276 -24.62,-0.06c-9.292,0.245 -18.584,0.724 -27.854,1.41c-6.051,0.448 -12.414,0.71 -18.293,2.352c1.027,1.172 2.057,2.343 3.084,3.515c2.625,-7.377 5.287,-14.735 8.366,-21.938c3.235,-7.566 7.563,-14.596 10.884,-22.108c0.51,-1.154 -0.811,-1.521 -1.577,-0.863Z" style="fill-rule:nonzero;"/><path d="M232.498,312.159c1.862,8.32 8.695,15.895 12.86,23.18c2.249,3.933 4.246,7.952 5.767,12.225c1.358,3.817 0.725,8.299 2.282,11.861c1.132,2.588 4.699,0.736 5.519,-1.124c3.424,-7.767 -2.731,-18.599 -6.563,-25.173c-4.493,-7.711 -10.314,-17.135 -17.328,-22.779c-1.179,-0.948 -2.837,0.469 -2.537,1.81Z" style="fill-rule:nonzero;"/><path d="M325.234,208.321c-16.604,-8.112 -34.62,12.313 -37.559,27.068c-2.904,14.582 10.767,31.088 25.51,31.421c23.396,0.53 51.353,-35.819 28.378,-54.059c-8.236,-6.539 -20.813,-9.492 -29.756,-2.986c-1.533,1.115 -1.695,4.588 0.898,4.173c9.167,-1.47 18.367,-0.704 25.294,6.122c3.74,3.687 5.248,8.917 4.671,14.068c-1.166,10.408 -9.342,20.382 -18.881,24.394c-12.848,5.403 -23.726,-3.303 -29.063,-14.746c-3.598,-7.714 0.588,-16.766 5.397,-22.863c5.696,-7.22 14.674,-11.849 23.974,-10.725c0.815,0.098 2.235,-1.33 1.137,-1.867Z" style="fill-rule:nonzero;"/><path d="M233.431,283.202c2.948,4.825 7.603,8.636 11.511,12.681c3.356,3.472 7.011,6.609 10.589,9.849c3.746,3.389 7.409,6.914 10.265,11.103c1.227,1.799 1.855,3.885 2.426,5.958c0.651,2.363 2.271,0.377 1.839,0.214c-0.659,-0.248 -1.266,-0.675 -1.854,-1.051c-5.784,-3.696 -10.348,-9.463 -15.285,-14.159c-2.852,-2.712 -11.136,-12.708 -15.737,-9.51c-0.799,0.555 -1.563,1.45 -1.21,2.497c0.907,2.685 5.778,4.951 7.91,6.788c3.583,3.09 7.028,6.373 10.313,9.779c2.875,2.982 11.752,13.401 16.778,10.115c7.401,-4.839 -2.849,-16.229 -6.553,-19.969c-4.207,-4.246 -8.947,-7.935 -13.386,-11.929c-5.255,-4.729 -9.906,-10.34 -15.839,-14.261c-1.024,-0.678 -2.34,0.956 -1.767,1.895Z" style="fill-rule:nonzero;"/><path d="M293.791,272.677c9.256,1.251 19.037,0.208 28.357,-0.011c4.914,-0.115 9.829,-0.223 14.745,-0.294c4.174,-0.061 8.878,1.035 12.324,-1.638c1.095,-0.85 1.609,-2.467 0.78,-3.642c-0.146,-0.208 -0.292,-0.415 -0.438,-0.622c-0.451,-0.641 -1.504,-0.885 -2.23,-0.795c-17.157,2.133 -34.843,0.115 -51.991,2.479c-1.838,0.255 -4.571,4.115 -1.547,4.523Z" style="fill-rule:nonzero;"/><path d="M290.087,271.934c-1.782,5.685 -0.443,12.65 0.499,18.409c1.13,6.911 2.92,13.714 4.753,20.466c1.759,6.477 3.686,12.904 5.349,19.406c0.843,3.298 1.561,6.62 2.15,9.972c0.537,3.055 0.404,5.944 2.065,8.606c1.729,2.773 5.656,-0.954 6.176,-2.769c1.441,-5.035 -1.169,-11.812 -2.482,-16.74c-1.696,-6.365 -3.798,-12.631 -5.866,-18.883c-2.114,-6.386 -4.152,-12.79 -5.808,-19.313c-0.886,-3.49 -1.573,-7.027 -2.131,-10.584c-0.501,-3.195 -0.364,-6.559 -1.421,-9.629c-0.632,-1.839 -2.954,0.006 -3.284,1.059Z" style="fill-rule:nonzero;"/><path d="M347.268,268.399c-2.424,5.798 -3.17,12.592 -4.397,18.729c-1.593,7.967 -3.151,15.938 -4.767,23.9c-1.392,6.861 -2.898,13.718 -4.494,20.533c-1.016,4.342 -2.18,8.743 -4.276,12.698c-2.35,4.433 3.201,5.43 5.957,3.264c3.395,-2.666 4.32,-8.517 5.349,-12.429c1.812,-6.889 2.985,-14.003 4.326,-20.992c1.651,-8.615 3.033,-17.317 4.414,-25.98c1.005,-6.295 2.953,-14.113 1.438,-20.445c-0.441,-1.834 -3.127,-0.288 -3.55,0.722Z" style="fill-rule:nonzero;"/><path d="M304.975,351.358c8.104,2.543 18.644,0.134 26.286,-0.238c2.536,-0.123 4.751,-2.841 4.093,-5.31c-1.038,-3.899 -7.202,-1.901 -9.862,-1.467c-6.638,1.083 -13.346,1.902 -19.825,3.791c-1.36,0.397 -2.517,2.652 -0.692,3.224Z" style="fill-rule:nonzero;"/><path d="M290.035,269.109c-0.967,1.112 -1.18,2.52 -1.524,3.926c-0.631,2.577 -1.779,5.038 -2.899,7.43c-2.364,5.049 -5.257,9.856 -8.084,14.655c-4.288,7.276 -9.232,14.68 -10.375,23.249c-0.329,2.473 -0.06,5.891 2.962,6.451c4.215,0.781 8.49,-3.761 10.977,-6.47c7.645,-8.328 10.809,-20.646 14.298,-31.128c-2.425,0.196 -4.849,0.394 -7.273,0.59c-0.084,0.689 -0.364,1.314 -0.526,1.985c-0.37,1.527 0.772,2.596 2.235,2.547c3.049,-0.101 4.812,-2.406 5.564,-5.122c1.396,-5.028 -6.132,-3.022 -7.273,0.59c-2.794,8.841 -5.395,18.437 -10.958,26.009c-1.157,1.576 -2.771,3.109 -4.396,4.206c-0.795,0.366 -0.395,0.541 1.202,0.524c-0.155,-0.368 -0.016,-1.082 0.026,-1.465c0.363,-3.307 1.619,-6.611 2.855,-9.674c2.133,-5.279 22.101,-35.368 15.314,-39.01c-0.773,-0.412 -1.629,0.136 -2.125,0.707Z" style="fill-rule:nonzero;"/><path d="M43.467,425.515c0.532,-3.427 -0.896,-6.662 -0.373,-10.135c0.767,-5.092 6.224,-8.179 11,-7.508c7.871,1.104 13.299,10.632 15.694,17.306c1.475,-2.369 2.95,-4.739 4.425,-7.109c-9.433,2.049 -18.951,-0.348 -28.346,0.817c-4.005,0.497 -9.732,8.716 -3.311,9.678c10.211,1.53 22.175,1.056 32.139,-1.595c2.653,-0.706 5.644,-4.232 4.425,-7.109c-4.763,-11.25 -14.927,-22.453 -28.208,-19.622c-6.061,1.292 -12.171,7.113 -13.738,13.078c-1.181,4.491 -1.143,12.34 4.674,13.367c0.688,0.121 1.512,-0.475 1.619,-1.168Z" style="fill-rule:nonzero;"/><path d="M99.061,422.968c1.363,-3.714 1.901,-7.839 4.741,-10.815c2.547,-2.67 5.981,-4.003 9.604,-4.299c8.884,-0.727 13.632,6.982 12.724,15.077c2.054,-1.802 4.107,-3.604 6.161,-5.406c-6.688,-0.203 -13.28,-1.168 -19.991,-0.786c-5.199,0.296 -16.9,2.895 -15.781,10.295c0.295,1.945 1.588,2.906 3.537,2.853c2.26,-0.063 3.815,-1.558 5.844,-2.24c2.481,-0.835 5.358,-0.744 7.941,-0.77c5.441,-0.053 10.866,0.664 16.31,0.637c3.496,-0.019 6.029,-3.515 6.267,-6.66c0.989,-13.098 -7.823,-22.859 -21.185,-21.521c-5.922,0.593 -11.733,3.523 -15.799,7.842c-3.91,4.154 -7.648,11.018 -5.347,16.808c0.92,2.312 4.347,0.695 4.974,-1.015Z" style="fill-rule:nonzero;"/><path d="M45.705,294.917c-1.64,9.343 -0.504,19.499 -0.294,28.948c0.24,10.799 -0.154,21.63 0.418,32.415c0.562,10.552 1.833,21.076 2.641,31.612c0.288,3.754 1.053,7.439 1.599,11.158c0.372,2.531 1.056,5.088 4.206,4.787c2.316,-0.222 5.048,-2.529 4.771,-5.07c-0.011,-0.094 -0.021,-0.188 -0.03,-0.281c-0.271,-2.482 -2.981,-2.908 -4.854,-1.771c-0.092,0.057 -0.185,0.113 -0.277,0.17c1.66,0.333 3.319,0.667 4.979,1c-2.221,-4.953 -2.557,-13.476 -3.053,-19.518c-0.777,-9.447 -2.256,-18.808 -2.831,-28.28c-0.572,-9.417 -0.601,-18.87 -1.099,-28.296c-0.478,-9.063 0.008,-18.87 -1.766,-27.765c-0.526,-2.635 -4.056,-1.129 -4.41,0.891Z" style="fill-rule:nonzero;"/><path d="M73.184,296.245c-3.408,9.002 -4.091,18.83 -4.885,28.352c-0.865,10.378 -1.3,20.789 -2.094,31.173c-0.764,9.974 -1.956,19.917 -1.965,29.934c-0.003,3.074 -0.002,6.147 -0.077,9.221c-0.04,1.615 -0.219,3.205 -0.465,4.8c-0.159,1.029 -1.702,4.357 -0.255,1.714c1.194,-1.047 2.388,-2.095 3.581,-3.142c-0.068,0.029 -0.138,0.058 -0.206,0.087c-2.249,0.954 -6.316,5.473 -2.54,7.389c2.513,1.274 5.519,-0.469 6.912,-2.622c1.708,-2.643 1.407,-5.783 1.343,-8.806c-0.187,-8.804 -0.408,-17.594 0.025,-26.395c0.605,-12.27 1.533,-24.517 2.065,-36.793c0.511,-11.776 1.979,-23.476 2.503,-35.23c0.107,-2.364 -3.417,-1.069 -3.942,0.318Z" style="fill-rule:nonzero;"/><path d="M90.306,297.043c1.138,8.66 3.271,17.166 4.466,25.822c1.266,9.158 1.815,18.41 2.213,27.641c0.766,17.826 0.396,35.895 2.367,53.641c0.109,0.977 0.537,2.086 1.526,2.51c0.294,0.126 0.589,0.252 0.883,0.378c1.751,0.75 3.83,-0.104 4.9,-1.628c2.558,-3.643 1.175,-6.718 0.69,-10.853c-0.508,-4.342 -0.851,-8.7 -1.158,-13.06c-0.705,-10.006 -1.138,-20.028 -1.803,-30.036c-0.68,-10.234 -1.737,-20.458 -3.435,-30.575c-1.46,-8.709 -3.241,-17.783 -8.063,-25.326c-0.735,-1.154 -2.721,0.463 -2.586,1.486Z" style="fill-rule:nonzero;"/><path d="M118.319,295.502c-2.076,8.529 -1.287,17.833 -1.209,26.548c0.089,9.866 0.225,19.781 -0.447,29.63c-0.63,9.223 -0.865,18.468 -1.471,27.691c-0.283,4.313 -0.256,8.646 -0.329,12.967c-0.036,2.127 -0.108,4.256 -0.059,6.383c0.077,0.867 0.122,1.735 0.135,2.605c-0.237,1.846 0.083,1.615 0.962,-0.694c1.501,-0.871 3.001,-1.742 4.501,-2.613c-0.214,-0.004 -0.427,-0.008 -0.64,-0.011c-3.063,-0.051 -5.836,3.614 -4.996,6.481c0.059,0.203 0.119,0.407 0.178,0.61c0.312,1.063 1.381,1.686 2.382,1.911c0.076,0.017 0.152,0.034 0.229,0.052c2.465,0.557 5.784,-1.492 6.595,-3.844c0.952,-2.762 0.428,-4.715 0.129,-7.535c-0.469,-4.433 -0.204,-9.05 -0.281,-13.505c-0.166,-9.683 0.228,-19.433 0.447,-29.116c0.223,-9.815 0.27,-19.564 -0.136,-29.379c-0.393,-9.515 0.183,-20.118 -2.455,-29.32c-0.564,-1.965 -3.254,-0.02 -3.535,1.139Z" style="fill-rule:nonzero;"/><path d="M403.916,97.031c7.001,2.998 15.587,2.007 23.064,1.903c8.83,-0.123 17.655,-0.548 26.478,-0.908c18.192,-0.74 37.227,-2.038 55.09,2.07c1.12,-3.276 2.241,-6.553 3.362,-9.83c-2.813,0.559 -4.847,1.571 -6.636,3.882c-1.777,2.296 -1.117,5.831 2.254,5.657c-1.927,0.1 0.429,0.198 1.02,0.291c5.651,0.895 10.731,-9.463 4.605,-9.772c-18.162,-0.919 -36.092,-1.127 -54.262,-0.095c-8.873,0.504 -17.74,1.104 -26.619,1.508c-8.912,0.405 -18.406,-0.609 -27.08,1.582c-1.213,0.305 -3.124,2.92 -1.276,3.712Z" style="fill-rule:nonzero;"/><path d="M400.849,95.468c-2.794,10.2 2.261,21.431 4.146,31.433c2.154,11.445 4.085,22.927 5.987,34.417c3.931,23.739 6.669,47.359 8.019,71.386c0.344,6.117 10.635,1.962 9.625,-3.086c-0.41,-2.047 -0.652,-3.052 -1.924,-4.696c-1.74,-2.251 -5.055,0.261 -5.975,1.96c-0.939,1.734 -1.276,2.721 -1.628,4.661c3.175,-0.642 6.351,-1.283 9.526,-1.925c-2.409,-22.983 -5.861,-45.984 -10.138,-68.691c-2.073,-11.01 -4.103,-22.03 -6.479,-32.98c-2.437,-11.226 -6.141,-22.103 -8.479,-33.342c-0.321,-1.547 -2.46,0.058 -2.68,0.863Z" style="fill-rule:nonzero;"/><path d="M516.284,94.008c-3.422,3.829 -4.984,9.608 -6.663,14.387c-2.001,5.695 -3.752,11.474 -5.371,17.289c-3.449,12.391 -5.942,25.052 -7.97,37.748c-3.913,24.508 -6.229,49.292 -10.809,73.69c0.736,-1.197 1.474,-2.395 2.211,-3.593c-0.215,0.168 -0.429,0.336 -0.643,0.504c1.699,-0.558 3.398,-1.115 5.098,-1.673c-0.893,-0.194 -1.744,-0.236 -2.662,-0.219c-2.445,0.047 -5.212,2.764 -4.967,5.278c0.028,0.028 0.056,0.057 0.083,0.085c-0.282,1.735 0.166,3.009 1.604,4.029c0.083,0.06 0.166,0.119 0.25,0.178c1.873,1.33 4.722,-0.073 6.2,-1.289c4.217,-3.469 3.897,-10.64 4.654,-15.67c0.933,-6.203 1.757,-12.424 2.563,-18.646c1.647,-12.726 3.091,-25.477 4.821,-38.192c1.723,-12.66 3.695,-25.272 6.105,-37.82c1.173,-6.107 2.575,-12.168 4.159,-18.181c1.438,-5.456 4.854,-12.104 4.499,-17.752c-0.119,-1.911 -2.403,-1.002 -3.162,-0.153Z" style="fill-rule:nonzero;"/><path d="M424.362,242.08c4.237,1.449 9.421,0.412 13.807,0.056c5.766,-0.47 11.547,-0.729 17.324,-0.982c10.762,-0.473 22.133,0.692 32.775,-0.819c-1.303,-1.483 -2.604,-2.968 -3.906,-4.451c-0.057,0.186 -0.114,0.371 -0.171,0.556c-0.517,1.685 0.604,3.391 2.274,3.724c0.194,0.038 0.388,0.077 0.582,0.115c5.254,1.047 10.826,-8.623 4.52,-9.59c-10.874,-1.668 -23.021,-0.065 -33.963,0.612c-5.839,0.362 -11.656,0.95 -17.465,1.64c-5.184,0.615 -10.748,1.197 -15.342,3.818c-2.033,1.158 -3.219,4.367 -0.435,5.321Z" style="fill-rule:nonzero;"/><path d="M436,268.185c1.606,1.071 4.918,0.393 6.716,0.275c3.759,-0.246 7.516,-0.592 11.271,-0.891c6.263,-0.498 12.399,-0.247 18.632,-0.205c3.689,0.025 6.771,-4.622 4.784,-7.772c-2.949,-4.678 -16.171,-1.41 -20.438,-0.854c-5.902,0.769 -18.01,1.373 -21.454,7.258c-0.447,0.763 -0.228,1.712 0.489,2.189Z" style="fill-rule:nonzero;"/><path d="M515.329,98.716c-0.069,3.785 1.647,7.667 2.787,11.202c1.965,6.099 3.891,12.242 5.593,18.419c2.75,9.978 4.423,20.232 7.811,30.023c5.341,15.437 11.448,31.016 14.286,47.16c0.456,2.596 0.934,5.451 0.66,8.095c-0.13,1.26 -0.708,1.65 0.357,0.578c0.625,-0.63 1.564,-0.864 2.428,-0.785c-0.415,-0.038 0.487,0.299 -0.334,-0.2c-2.688,-1.633 -5.484,-7.702 -7.161,-11.039c-7.328,-14.581 -12.793,-30.188 -18.147,-45.574c-3.85,-11.063 -7.965,-22.274 -10.717,-33.68c-2.595,1.479 -5.19,2.959 -7.785,4.438c0.378,1.564 0.804,2.627 1.691,3.958c2.017,3.026 6.024,-1.39 6.181,-3.551c0.144,-1.988 0.381,-2.893 -0.087,-4.846c-1.096,-4.578 -8.785,0.257 -7.785,4.438c2.73,11.418 6.838,22.631 10.654,33.715c5.313,15.426 10.861,30.953 18.111,45.594c3.105,6.272 11.875,22.446 19.284,10.228c2.829,-4.666 1.129,-11.597 0.101,-16.524c-1.762,-8.433 -4.392,-16.666 -7.134,-24.822c-3.049,-9.069 -6.716,-17.958 -9.551,-27.095c-3.36,-10.834 -5.679,-21.858 -9.816,-32.462c-1.326,-3.399 -2.445,-6.885 -3.736,-10.304c-1.014,-2.686 -2.543,-5.615 -3.067,-8.448c-0.566,-3.049 -4.581,-0.822 -4.624,1.482Z" style="fill-rule:nonzero;"/><path d="M399.28,97.66c-2.385,6.439 -3.921,13.149 -5.924,19.71c-2.441,8.002 -5.32,15.869 -8.147,23.741c-5.232,14.571 -10.265,29.81 -17.146,43.697c-4.431,8.94 -10.431,18.408 -10.844,28.663c-0.208,5.16 2.362,14.605 9.395,13.297c6.559,-1.22 10.273,-7.91 13.111,-13.315c3.589,-6.837 6.232,-14.18 8.825,-21.437c2.75,-7.694 5.72,-15.07 9.277,-22.459c3.264,-6.778 6.702,-13.409 9.508,-20.395c1.758,-4.376 3.757,-9.229 3.338,-14.071c0.002,-0.121 0.005,-0.242 0.008,-0.363c-0.687,1.43 -1.371,2.859 -2.059,4.289c0.031,-0.03 0.063,-0.06 0.094,-0.09c-2.084,0.169 -4.169,0.338 -6.254,0.507c0,0.032 -0.001,0.064 -0.002,0.097c2.146,4.603 8.25,-0.098 8.335,-3.687c0.06,-0.397 0.048,-0.79 -0.034,-1.179c-0.355,-2.261 -2.506,-3.591 -4.736,-2.659c-3.804,1.588 -4.635,4.538 -5.012,8.285c-0.528,5.261 -3.502,10.912 -5.804,15.604c-4.546,9.268 -9.511,18.423 -13.009,28.158c-2.228,6.199 -4.394,12.415 -6.851,18.528c-1.983,4.933 -4.698,12.095 -8.04,15.309c-0.636,0.611 0.501,-0.119 1.269,-0.076c-0.143,-0.008 -0.335,-0.191 -1.033,-1.158c-2.278,-3.15 -1.463,-7.497 -0.671,-10.974c2.323,-10.198 8.356,-19.732 12.275,-29.375c5.374,-13.223 10.221,-26.549 14.715,-40.092c4.008,-12.079 9.873,-25.896 9,-38.844c-0.141,-2.105 -3.081,-1.071 -3.584,0.289Z" style="fill-rule:nonzero;"/><path d="M409.92,428.12c0.09,-3.516 -0.021,-7.153 2.288,-10.02c2.089,-2.591 6.099,-3.258 9.188,-3.427c8.381,-0.458 16.901,5.237 18.288,13.761c1.269,-1.642 2.538,-3.283 3.807,-4.925c-10.346,2.214 -20.768,-0.023 -31.189,0.104c-4.698,0.058 -7.911,8.218 -1.803,8.414c11.158,0.359 22.43,1.444 33.387,-1.234c2.399,-0.586 4.336,-3.409 3.622,-5.818c-3.553,-11.983 -15.013,-18.339 -27.205,-16.169c-8.551,1.521 -20.66,11.52 -12.508,20.535c0.795,0.878 2.102,-0.344 2.125,-1.221Z" style="fill-rule:nonzero;"/><path d="M432.682,234.6c-8.368,-0.88 -10.985,13.356 -12.238,19.06c-2.531,11.526 -3.235,23.649 -3.715,35.417c-1.629,40.01 6.258,79.18 7.853,118.962c2.706,-0.867 5.411,-1.734 8.117,-2.602c-0.114,-1.907 -0.508,-3.155 -1.989,-4.405c-1.951,-1.646 -5.596,0.037 -5.826,2.611c-0.131,1.467 -0.272,2.923 -0.302,4.396c-0.103,5.2 7.956,1.518 8.117,-2.602c0.338,-8.647 -1.397,-17.61 -2.511,-26.158c-1.289,-9.901 -2.461,-19.821 -3.548,-29.747c-2.136,-19.492 -3.271,-38.938 -3.243,-58.546c0.014,-9.478 0.656,-19.008 1.738,-28.418c0.613,-5.327 1.434,-10.676 2.714,-15.886c0.522,-2.125 1.505,-7.229 3.982,-8.109c1.314,-0.467 3.4,-3.705 0.851,-3.973Z" style="fill-rule:nonzero;"/><path d="M443.104,266.895c-2.881,14.214 -2.191,29.552 -2.476,44.006c-0.308,15.627 -0.38,31.25 0.205,46.871c0.583,15.571 2.159,31.101 4.472,46.508c0.582,3.884 0.762,7.769 0.784,11.694c0.011,1.983 -0.052,3.944 -0.329,5.908c0.014,-0.097 -0.329,1.729 -0.279,1.591c-1.025,2.852 -1.761,-1.904 3.847,-2.346c-3.156,0.249 -7.341,4.594 -4.739,7.701c2.893,3.455 8.706,0.388 10.039,-3.119c1.548,-4.074 1.311,-8.543 1.126,-12.833c-0.609,-14.186 -4.038,-28.198 -5.273,-42.368c-1.516,-17.39 -2.044,-34.849 -2.286,-52.297c-0.125,-9.051 -0.185,-18.103 -0.281,-27.152c-0.089,-8.386 0.167,-16.95 -1.681,-25.172c-0.391,-1.735 -2.92,-0.023 -3.129,1.008Z" style="fill-rule:nonzero;"/><path d="M467.458,266.836c4.682,9.57 5.734,21.102 6.337,31.577c0.728,12.638 2.084,25.202 2.851,37.833c0.93,15.317 0.965,30.688 0.629,46.025c-0.172,7.852 -0.334,15.692 -1.1,23.512c-0.336,3.42 -0.752,6.831 -1.023,10.258c-0.202,2.552 -1.214,6.514 -0.036,8.874c2.231,4.472 8.031,-0.068 8.179,-3.617c0.019,-0.446 -0.021,-2.128 -0.168,-0.72c0.443,-4.235 -4.55,-3.898 -6.482,-1.223c-0.801,1.107 -1.404,2.255 -1.637,3.616c2.537,-1.137 5.073,-2.274 7.61,-3.411c0.016,0.021 0.387,-3.91 0.397,-4.221c0.062,-1.851 0.199,-3.698 0.326,-5.545c0.255,-3.704 0.604,-7.4 0.854,-11.105c0.505,-7.488 0.355,-15.06 0.383,-22.563c0.057,-15.283 -0.255,-30.558 -1.54,-45.793c-1.03,-12.224 -2.306,-24.513 -3.636,-36.711c-1.102,-10.1 -2.536,-20.734 -10.28,-27.975c-0.66,-0.614 -2.071,0.357 -1.664,1.189Z" style="fill-rule:nonzero;"/><path d="M481.201,426.37c2.331,-3.979 3.306,-7.722 7.409,-10.396c4.052,-2.641 9.021,-3.474 13.775,-3.436c9.914,0.078 18.47,6.761 16.186,17.255c1.651,-1.449 3.303,-2.898 4.954,-4.348c-2.901,0.119 -4.823,0.209 -7.248,1.839c-1.177,0.791 -2.294,2.146 -1.773,3.662c0.129,0.376 0.258,0.752 0.387,1.128c0.452,1.316 1.903,1.894 3.192,1.781c1.244,-0.089 2.484,-0.215 3.722,-0.379c2.19,-0.256 4.607,-2.039 4.954,-4.348c2.258,-15.025 -8.742,-23.457 -22.954,-23.212c-6.606,0.114 -13.04,2.427 -18.351,6.288c-3.729,2.711 -9.337,9.717 -6.584,14.639c0.6,1.075 1.871,0.312 2.331,-0.473Z" style="fill-rule:nonzero;"/><path d="M477.734,429.833c4.694,1.484 10.424,0.297 15.385,0.085c6.173,-0.265 13.188,-0.743 19.155,1.184c1.848,0.597 4.012,-0.989 5.077,-2.307c4.025,-4.977 -4.235,-6.293 -7.276,-6.455c-3.875,-0.206 -7.755,-0.101 -11.624,0.152c-6.666,0.437 -15.798,0.764 -20.824,5.633c-0.531,0.513 -0.769,1.43 0.107,1.708Z" style="fill-rule:nonzero;"/><path d="M487.353,233.944c5.804,30.139 10.322,60.257 12.986,90.871c1.277,14.68 2.271,29.43 2.335,44.171c0.022,5.262 -0.152,10.519 -0.52,15.768c-0.255,3.663 -0.637,7.317 -1.173,10.95c-0.216,1.463 -0.528,2.9 -0.903,4.33c-0.036,0.297 -0.127,0.569 -0.272,0.82c-1.369,3.495 -0.181,-0.823 2.296,-1.362c-3.045,0.663 -5.707,6.242 -1.557,7.261c11.229,2.757 9.909,-27.288 10.053,-32.926c0.359,-14.175 -0.529,-28.377 -1.607,-42.504c-1.416,-18.567 -3.478,-37.117 -6.415,-55.508c-2.292,-14.355 -4.201,-30.709 -11.356,-43.582c-1.024,-1.84 -4.226,-0.154 -3.867,1.711Z" style="fill-rule:nonzero;"/><path d="M196.789,357.549c-2.171,8.932 2.474,19.332 3.823,28.145c0.773,5.044 1.281,10.129 2.329,15.129c0.447,2.135 0.492,6.515 1.812,8.333c1.745,2.405 5.243,-0.722 5.734,-2.571c0.259,-0.971 0.11,-1.596 -0.371,-2.453c-1.013,-1.807 -3.119,-0.906 -4.202,0.34c-0.338,0.328 -0.632,0.689 -0.884,1.084c1.67,-0.347 3.341,-0.694 5.012,-1.041c-0.982,-1.316 -1.352,-5.294 -1.722,-6.758c-1.291,-5.105 -1.989,-10.366 -2.995,-15.532c-0.8,-4.103 -1.92,-8.103 -3.053,-12.123c-1.231,-4.372 -1.822,-8.972 -3.316,-13.25c-0.411,-1.174 -1.986,-0.049 -2.167,0.697Z" style="fill-rule:nonzero;"/><path d="M215.84,355.485c-3.145,7.832 -3.228,16.924 -3.424,25.252c-0.221,9.387 0.584,18.672 1.626,27.985c0.34,3.038 4.979,0.935 4.726,-1.516c-0.176,-1.694 -0.5,-2.87 -1.641,-4.157c-0.796,-0.896 -2.433,-0.034 -2.77,0.908c-0.646,1.809 -0.614,2.818 -0.315,4.765c1.539,-0.681 3.077,-1.362 4.616,-2.042c-1.729,-8.327 -2.174,-17.042 -2.408,-25.521c-0.239,-8.618 0.943,-17.185 0.785,-25.771c-0.013,-0.719 -1.024,-0.328 -1.195,0.097Z" style="fill-rule:nonzero;"/><path d="M230.28,354.792c-3.797,8.082 -3.922,18.146 -5.044,26.862c-1.139,8.848 -1.841,18.008 -4.674,26.496c-0.219,0.656 -0.045,1.737 0.479,2.227c0.604,0.596 0.578,-0.14 -0.079,-2.205c-0.249,0.45 -0.407,1.287 -0.146,1.771c0.208,0.383 0.407,0.779 0.849,0.952c2.33,0.916 4.311,-0.828 5.433,-2.743c2.327,-3.974 2.163,-10.773 2.674,-15.184c1.429,-12.35 3.843,-25.909 2.499,-38.338c-0.13,-1.196 -1.654,-0.555 -1.991,0.162Z" style="fill-rule:nonzero;"/><path d="M202.155,421.736c-0.182,-2.792 -0.625,-5.31 2.082,-6.991c2.639,-1.64 6.098,-0.734 8.133,1.364c0.987,1.017 2.681,0.954 3.819,0.204c3.45,-2.273 5.697,-2.396 8.386,0.855c2.028,2.455 2.885,6.089 3.252,9.158c1.936,-1.697 3.871,-3.396 5.807,-5.095c-10.344,-1.071 -27.17,-6.621 -35.184,2.745c-3.011,3.52 0.732,6.939 4.416,5.031c8.002,-4.143 18.621,-0.799 27.176,-0.157c3.32,0.249 6.332,-2.619 5.621,-5.989c-1.153,-5.463 -3.371,-10.57 -8.032,-13.875c-4.591,-3.255 -10.547,-0.534 -14.287,2.581c1.543,-0.125 3.086,-0.25 4.628,-0.375c-4.689,-3.768 -10.259,-3.981 -15.546,-1.186c-5.008,2.649 -8.032,9.303 -4.712,14.28c1.347,2.022 4.553,-0.834 4.441,-2.55Z" style="fill-rule:nonzero;"/><path d="M305.008,346.403c-2.646,5.018 -2.371,11.68 -2.319,17.2c0.065,6.97 0.309,13.95 0.448,20.919c0.123,6.225 0.271,12.415 0.12,18.64c-0.063,2.623 -1.28,8.018 0.019,10.354c1.608,2.892 6.678,-0.474 5.271,-3.004c-1.266,-2.275 -4.264,-0.936 -5.11,1.04c-1.589,3.713 3.699,3.844 4.949,0.924c1.114,-2.604 0.293,-6.423 0.225,-9.197c-0.136,-5.54 -0.474,-11.055 -0.802,-16.588c-0.42,-7.06 -0.442,-14.125 -0.91,-21.187c-0.428,-6.462 0.244,-12.844 0.021,-19.255c-0.042,-1.206 -1.591,-0.452 -1.912,0.154Z" style="fill-rule:nonzero;"/><path d="M334.389,340.92c-1.97,6.761 -1.558,14.209 -1.582,21.185c-0.028,7.9 -0.25,15.689 -1.054,23.556c-0.548,5.361 -1.151,10.718 -1.65,16.083c-0.195,2.09 -0.368,4.181 -0.566,6.271c-0.081,0.852 -0.176,1.701 -0.277,2.551c-0.152,1.27 -0.987,2.237 0.356,0.341c1.5,-0.499 3.001,-0.997 4.502,-1.496c0.086,0.039 0.171,0.078 0.256,0.116c-1.918,-2.631 -5.412,1.178 -5.563,3.196c-0.031,0.426 0.049,0.79 0.156,1.207c0.33,1.288 2.148,1.586 3.195,1.166c3.653,-1.466 3.455,-5.028 3.725,-8.364c0.4,-4.969 0.792,-9.938 1.158,-14.908c0.636,-8.648 1.438,-17.161 1.196,-25.847c-0.227,-8.129 -0.033,-17.673 -2.796,-25.396c-0.208,-0.582 -0.954,-0.01 -1.056,0.339Z" style="fill-rule:nonzero;"/><path d="M301.159,425.191c1.089,-1.979 -1.047,-4.255 -0.751,-6.473c0.271,-2.028 1.97,-3.326 3.657,-4.207c1.843,-0.962 4.061,-1.11 6.054,-0.648c2.651,0.614 3.426,2.826 3.864,5.193c0.718,3.871 6.52,1.197 6.08,-1.949c-1.258,-9.004 -11.322,-9.964 -17.896,-6.122c-3.077,1.799 -5.713,4.938 -5.999,8.59c-0.151,1.931 0.396,3.666 1.514,5.235c0.785,1.104 2.634,1.914 3.477,0.381Z" style="fill-rule:nonzero;"/><path d="M319.752,419.276c0.389,-1.584 0.741,-3.729 2.457,-4.334c1.759,-0.621 3.909,0.063 5.532,0.764c2.034,0.879 3.899,2.433 4.951,4.398c1.562,2.918 -0.071,5.532 0.659,8.436c0.636,2.521 4.075,0.699 5.014,-0.406c2.809,-3.307 1.928,-9.126 -0.332,-12.517c-2.08,-3.123 -5.435,-5.071 -9.073,-5.809c-5.429,-1.1 -15.955,3.495 -10.838,10.198c0.505,0.662 1.497,-0.183 1.63,-0.73Z" style="fill-rule:nonzero;"/><path d="M297.516,425.605c2.615,4.944 11.53,4.474 16.281,4.542c3.705,0.054 7.414,-0.162 11.111,-0.362c3.166,-0.171 6.717,0.167 9.811,-0.442c2.545,-0.502 6.144,-4.967 2.097,-6.131c-5.054,-1.454 -12.269,0.558 -17.453,0.892c-4.037,0.259 -8.104,0.297 -12.144,0.073c-2.942,-0.162 -5.866,-0.752 -8.766,-0.078c-0.526,0.122 -1.243,0.929 -0.937,1.506Z" style="fill-rule:nonzero;"/><path d="M350.288,268.622c3.369,-10.649 5.782,-21.688 8.949,-32.431c1.134,-3.849 2.368,-7.717 4.211,-11.293c0.959,-1.861 -0.307,-1.402 0.225,-0.419c1.118,2.07 1.431,4.694 1.701,6.987c1.223,10.345 -1.276,21.363 -4.113,31.247c-2.614,9.113 -6.52,20.004 -14.243,26.04c-3.751,2.932 0.067,7.243 3.74,4.262c9.279,-7.532 13.473,-20.956 16.47,-32.027c3.197,-11.812 5.688,-25.875 1.825,-37.822c-0.861,-2.663 -3.251,-5.495 -6.261,-3.579c-3.353,2.135 -4.787,6.328 -6.079,9.887c-1.76,4.844 -3.083,9.842 -4.401,14.818c-2.113,7.974 -6.126,16.502 -4.853,24.901c0.278,1.837 2.475,0.547 2.829,-0.571Z" style="fill-rule:nonzero;"/><path d="M317.938,347.915c-0.586,4.439 -0.168,8.994 -0.161,13.467c0.01,5.699 -0.116,11.405 -0.245,17.103c-0.258,11.352 -0.622,22.714 -1.115,34.057c-0.131,3.001 5.027,1.104 4.916,-1.576c-0.436,-10.574 -0.184,-21.183 -0.143,-31.763c0.022,-5.655 0.007,-11.312 -0.188,-16.964c-0.17,-4.914 0.065,-10.146 -1.215,-14.919c-0.263,-0.982 -1.761,-0.071 -1.849,0.595Z" style="fill-rule:nonzero;"/><path d="M223.612,220.364c-8.532,-1.03 -17.134,4.374 -23.162,9.869c-6.733,6.139 -11.231,14.644 -11.781,23.764c-0.98,16.281 14.344,29.484 29.973,26.857c14.324,-2.407 26.219,-14.955 28.608,-29.119c1.313,-7.784 -0.681,-16.186 -5.414,-22.473c-5.715,-7.59 -15.589,-12.468 -24.587,-8.428c-1.24,0.558 -1.727,3.1 0.163,2.899c16.027,-1.699 26.927,15.002 24.537,29.395c-1.856,11.179 -11.252,20.147 -22.029,22.795c-12.855,3.158 -24.362,-7.296 -26.591,-19.531c-1.488,-8.175 2.487,-16.284 7.602,-22.37c5.713,-6.798 13.375,-10.016 21.912,-11.409c0.883,-0.145 2.292,-2.065 0.769,-2.249Z" style="fill-rule:nonzero;"/><path d="M196.915,191.992c-4.545,7.574 -7.147,15.845 -7.649,24.669c-0.208,3.653 -0.104,9.296 3.911,10.985c3.389,1.425 7.506,-0.707 10.508,-2.147c4.888,-2.346 9.497,-5.144 14.864,-6.282c1.22,-0.26 2.751,-1.916 2.51,-3.249c-1.763,-9.765 -7.841,-19.407 -17.53,-22.831c-1.158,-0.409 -2.316,-0.176 -3.242,0.674c-1.485,1.365 -2.398,2.528 -2.91,4.475c-0.356,1.36 1.268,1.912 2.24,1.251c1.201,-0.814 2.431,-1.524 3.602,-2.386c-1.08,0.225 -2.161,0.45 -3.242,0.674c8.444,2.983 14.199,11.197 15.803,19.835c0.836,-1.083 1.674,-2.166 2.51,-3.249c-7.469,1.619 -13.423,6.761 -20.686,8.728c-8.326,2.256 0.178,-27.873 1.065,-31.067c0.348,-1.256 -1.374,-0.715 -1.754,-0.08Z" style="fill-rule:nonzero;"/><path d="M228.242,215.698c3.179,-7.1 14.146,-24.631 22.521,-13.651c5.033,6.599 3.861,18.877 1.704,26.314c1.463,-0.851 2.927,-1.7 4.39,-2.551c-9.394,-5.552 -20.039,-15.854 -31.889,-11.155c-1.855,0.736 -3.624,4.675 -0.372,4.442c5.815,-0.416 10.114,0.027 15.344,2.819c4.669,2.492 8.818,5.883 13.374,8.571c1.808,1.067 3.923,-0.938 4.39,-2.551c2.706,-9.341 3.98,-27.396 -6.226,-32.936c-10.827,-5.878 -25.796,10.766 -25.685,20.895c0.016,1.505 2.079,0.631 2.449,-0.197Z" style="fill-rule:nonzero;"/><path d="M224.246,208.434c-2.207,-0.377 -4.329,0.298 -5.701,2.128c-1.196,1.595 -1.664,4.019 -1.976,5.952c-0.23,1.423 0.178,3.077 1.847,3.313c1.612,0.229 3.034,-0.704 4.27,-1.606c2.188,-1.599 4.233,-4.234 4.452,-6.999c0.103,-1.285 -0.706,-2.566 -1.928,-2.992c-0.902,-0.314 -1.768,-0.423 -2.722,-0.278c-0.204,0.031 -0.411,0.048 -0.614,0.079c0.026,-0.004 -1.798,0.613 -1.064,0.324c-0.709,0.279 -1.367,0.45 -2.005,0.899c-1.046,0.739 -2.147,2.752 -0.268,3.267c0.398,0.109 0.772,0.203 1.196,0.171c0.162,-0.014 0.324,-0.024 0.486,-0.033c-0.159,-0.042 -0.317,-0.085 -0.476,-0.127c0.353,0.178 0.726,0.249 1.12,0.21c0.136,-0.007 0.271,-0.012 0.408,-0.014c-0.287,-0.023 -0.311,-0.016 -0.069,0.021c0.25,0.046 0.509,0.056 0.76,0.104c0.188,0.036 0.746,0.234 0.047,-0.031c0.239,0.09 0.613,0.461 0.054,-0.041c0.408,0.367 -0.068,-0.201 -0.009,-0.062c0.201,0.466 -0.043,-0.574 -0.022,-0.049c0.016,0.367 0.106,-0.691 0.004,-0.126c-0.125,0.68 0.126,-0.27 0.02,0.007c-0.072,0.19 -0.164,0.374 -0.258,0.555c-0.323,0.625 0.359,-0.534 -0.038,0.071c-0.228,0.348 -0.486,0.675 -0.755,0.993c-0.528,0.625 0.149,-0.142 -0.057,0.069c-0.159,0.162 -0.324,0.316 -0.492,0.467c-0.129,0.116 -0.262,0.226 -0.396,0.334c-0.558,0.451 0.594,-0.387 0.021,-0.01c-0.12,0.079 -0.244,0.149 -0.37,0.218c-0.308,0.167 0.754,-0.268 0.121,-0.063c0.244,-0.079 0.686,-0.116 0.971,0.055c0.335,0.298 0.435,0.371 0.299,0.218c0.342,0.399 0.244,0.461 0.16,0.224c0.226,0.638 0.048,0.282 0.049,-0.011c0.002,-0.322 -0.081,0.557 0.025,-0.067c0.07,-0.416 0.132,-0.828 0.172,-1.249c0.076,-0.814 0.145,-1.628 0.339,-2.424c0.034,-0.123 0.069,-0.246 0.106,-0.368c-0.075,0.222 -0.068,0.225 0.021,0.008c-0.239,0.526 0.477,-0.452 0.096,-0.096c0.317,-0.297 1.371,-0.79 2.019,-1.112c0.658,-0.329 1.242,-1.743 0.157,-1.929Z" style="fill-rule:nonzero;"/><path d="M197.644,195.19c-4.707,5.272 -4.805,11.281 -6.91,17.726c3.567,-0.289 7.134,-0.578 10.701,-0.867c0.684,-4.089 2.019,-7.872 2.293,-12.042c0.417,-6.338 -9.333,-2.956 -10.697,0.867c-2.617,7.331 -4.853,14.34 -3.226,22.142c1.08,5.18 8.23,1.215 10.029,-0.813c2.777,-3.132 4.175,-7.106 4.796,-11.196c-3.96,0.8 -7.92,1.601 -11.88,2.4c-0.023,2.228 -0.05,4.456 -0.054,6.685c-0.011,7.018 9.785,2.972 11.477,-0.93c2.579,-5.949 2.187,-12.337 3.87,-18.495c-3.92,1.264 -7.84,2.526 -11.76,3.79c0.592,2.592 1.072,5.17 1.987,7.673c0.914,2.5 3.87,2.948 6.114,2.23c3.408,-1.09 5.522,-4.036 5.794,-7.498c0.246,-3.135 -0.187,-5.994 -0.937,-9.033c-3.883,2.213 -7.767,4.427 -11.65,6.641c1.424,4.387 3.383,8.674 6.095,12.417c3.911,5.396 11.838,-2.281 11.835,-6.8c0.081,-0.932 0.183,-1.862 0.306,-2.79c-3.965,1.778 -7.93,3.555 -11.895,5.333c1.096,1.737 1.896,3.501 2.479,5.468c2.569,-3.334 5.139,-6.668 7.709,-10.002c-6.315,-0.26 -11.48,0.607 -16.501,4.726c-5.19,4.258 -3.338,12.632 4.141,10.646c2.438,-0.647 4.693,-1.533 6.924,-2.724c3.268,-1.743 6.288,-6.165 4.829,-9.971c-1.89,-4.931 -8.138,-3.06 -11.165,-0.594c-0.344,0.365 -0.768,0.583 -1.272,0.655c1.38,3.549 2.761,7.097 4.142,10.646c1.059,-0.915 4.587,-0.562 6.165,-0.608c4.396,-0.131 9.443,-5.499 7.709,-10.001c-1.084,-2.815 -2.54,-5.347 -4.188,-7.867c-3.149,-4.813 -11.465,1.26 -11.895,5.333c-0.209,1.988 -0.537,3.877 -0.361,5.878c3.944,-2.267 7.89,-4.534 11.835,-6.8c-2.5,-2.836 -4.065,-6.011 -5.239,-9.584c-2.297,-7.002 -13.161,0.603 -11.65,6.641c0.529,2.115 0.561,4.14 0.397,6.3c3.97,-1.756 7.938,-3.512 11.908,-5.268c-0.923,-2.498 -1.411,-5.072 -2.013,-7.66c-0.6,-2.584 -4.104,-2.865 -6.101,-2.226c-2.796,0.894 -4.901,3.213 -5.659,6.016c-1.354,5.017 -0.737,10.721 -2.796,15.506c3.825,-0.31 7.651,-0.619 11.477,-0.929c-0.004,-2.217 -0.03,-4.433 -0.054,-6.65c-0.074,-7.271 -11.192,-2.812 -11.88,2.4c-0.272,2.068 -0.528,3.834 -1.87,5.47c3.343,-0.271 6.686,-0.542 10.028,-0.813c-1.202,-4.632 0.605,-9.508 2.107,-13.858c-3.565,0.289 -7.132,0.578 -10.697,0.867c-0.171,3.136 -1.36,6.163 -1.707,9.292c-0.895,8.081 10.894,4.468 10.813,-2.185c-0.063,-5.154 0.541,-10.203 0.235,-15.34c-0.149,-2.507 -3.15,-1.311 -4.138,-0.204Z" style="fill-rule:nonzero;"/><path d="M236.194,208.137c-0.771,-0.594 -1.532,-0.724 -2.482,-0.854c-0.681,3.175 -1.361,6.35 -2.041,9.524c2.922,-0.981 5.228,-2.774 7.465,-4.85c1.928,-1.787 3.711,-5.202 1.625,-7.579c-2.125,-2.421 -5.654,-0.99 -7.727,0.626c-0.686,0.534 -1.371,1.068 -2.057,1.603c2.731,1.497 5.463,2.993 8.193,4.489c-0.807,1.428 0.434,-0.365 0.566,-0.519c-0.406,0.469 1.623,-1.47 1.32,-1.195c1.197,-1.091 2.443,-2.027 3.841,-2.837c-1.802,1.044 -2.313,-1.401 -2.081,0.955c0.189,1.927 -0.078,3.905 -0.201,5.829c-0.186,2.904 2.908,4.559 5.401,4.356c3.721,-0.302 7.296,-3.415 8.064,-7.077c1.239,-5.901 -1.192,-10.629 -7.523,-10.919c-4.821,-0.221 -10.335,2.732 -13.661,6.066c-2.897,2.904 -4.941,7.719 -0.816,10.559c4.084,2.811 9.03,4.275 12.287,8.144c4.261,5.061 14.438,-1.858 13.268,-7.623c-0.929,-4.578 -1.354,-10.918 -7.211,-11.398c-4.867,-0.399 -9.742,3.436 -9.721,8.53c0.014,2.964 1.922,6.218 2.83,9.105c4.312,-3.078 8.623,-6.155 12.935,-9.233c-4.173,-4.729 -9.92,-6.498 -15.046,-9.856c-0.272,3.52 -0.544,7.039 -0.816,10.559c0.863,-0.896 1.02,-1.056 1.441,-1.232c1.747,-0.732 -0.66,-0.128 1.021,-0.283c-1.213,0.111 -2.313,-1.349 -2.314,-1.338c4.488,-0.907 8.977,-1.813 13.466,-2.721c-0.284,-6.579 -1.807,-16.18 -10.921,-13.661c-6.258,1.73 -13.504,8.031 -16.301,13.893c-2.832,5.934 4.316,7.941 8.193,4.489c0.648,-0.577 1.296,-1.154 1.943,-1.731c-2.033,-2.317 -4.068,-4.636 -6.102,-6.953c-0.992,1.048 -1.988,2.229 -3.176,3.063c-2.11,1.481 -4.409,4.037 -3.325,6.866c1.067,2.786 4.316,2.32 6.446,1.296c0.346,-0.167 0.691,-0.333 1.037,-0.499c2.092,-1.005 4.043,-4.033 3.09,-6.38c-0.22,-0.546 -0.437,-0.851 -0.91,-1.214Z" style="fill-rule:nonzero;"/><path d="M222.379,225.32c-7.947,-0.658 -14.391,4.792 -18.854,10.878c-3.562,4.855 0.736,9.499 5.942,6.771c5.174,-2.709 9.16,-7.031 11.811,-12.186c1.214,-2.359 0.545,-6.135 -2.597,-6.478c-6.448,-0.704 -11.794,2.587 -16.112,7.17c-2.076,2.203 -4.371,5.884 -1.871,8.733c2.506,2.855 6.44,1.041 8.902,-0.722c2.964,-2.121 5.611,-4.241 7.91,-7.101c3.148,-3.916 0.602,-10.826 -5.071,-8.342c-7.336,3.214 -14.21,8.206 -17.655,15.656c-3.163,6.842 5.082,9.591 9.613,5.268c0.454,-0.434 0.908,-0.866 1.362,-1.299c-3.229,-1.771 -6.46,-3.541 -9.69,-5.311c-1.934,4.066 -3.538,8.201 -4.182,12.678c-0.403,2.809 0.651,5.529 3.727,6.1c4.119,0.764 7.461,-2.254 9.412,-5.485c2.076,-3.438 4.973,-6.419 7.367,-9.634c3.592,-4.818 0.787,-11.297 -5.657,-9.305c-8.104,2.505 -13.637,9.817 -15.195,17.992c-0.533,2.797 0.749,5.559 3.734,6.111c3.997,0.741 7.649,-2.191 9.43,-5.496c0.884,-1.639 1.626,-3.275 2.326,-5.001c3.472,-8.548 -7.292,-9.91 -11.542,-4.015c-4.643,6.441 -8.596,24.112 3.895,23.946c6.667,-0.089 11.756,-7.102 14.36,-12.397c2.837,-5.768 4.145,-12.347 5.481,-18.591c1.861,-8.69 -10.871,-6.79 -13.03,-0.608c-1.824,5.225 -4.001,10.064 -3.985,15.698c0.012,3.934 4.162,4.861 7.214,4.05c9.432,-2.51 15.562,-14.651 18.418,-23.135c0.91,-2.706 -1.035,-5.466 -3.669,-6.004c-0.904,-0.186 -1.763,-0.479 -2.668,-0.664c1.223,2.001 2.444,4.001 3.667,6.002c-2.057,1.585 -4.114,3.17 -6.171,4.756c-0.695,-3.112 -1.39,-6.225 -2.085,-9.336c-0.305,0.333 -0.61,0.666 -0.915,1c1.609,-1.156 3.219,-2.313 4.828,-3.471c0.384,0.08 0.768,0.161 1.151,0.241c-0.821,3.835 -1.644,7.67 -2.466,11.505c3.439,-2.117 7.575,4.979 7.64,7.886c0.083,3.765 -2.802,8.26 -5.987,10.077c3.214,1.174 6.428,2.347 9.642,3.52c-1.019,-7.458 4.34,-14.399 4.804,-21.938c0.322,-5.258 -6.304,-4.998 -9.386,-3.425c-9.131,4.662 -18.404,15.739 -20.158,25.993c-1.331,7.777 7.057,7.315 11.455,4.082c4.71,-3.463 8.727,-10.579 8.398,-16.47c-0.545,-9.782 -12.058,-6.017 -16.721,-2.344c-5.066,3.991 -7.999,9.914 -9.386,16.056c-0.785,3.475 -0.484,6.523 1.408,9.517c2.526,3.997 9.248,2.049 11.969,-0.386c4.719,-4.221 6.656,-13.334 0.471,-17.354c-7.249,-4.713 -15.201,0.775 -17.576,8.074c-4.812,14.781 14.268,22.174 25.321,15.637c2.929,-1.731 5.491,-4.94 5.301,-8.519c-0.21,-3.964 -4.521,-5.921 -8,-4.491c-2.42,0.995 -4.781,2.018 -6.979,3.444c-4.569,2.967 -8.683,11.36 -1.105,13.498c9.413,2.656 18.407,-2.895 23.489,-10.598c2.309,-3.5 4,-7.269 5.424,-11.198c0.793,-2.188 1.512,-4.405 2.225,-6.62c0.277,-0.861 0.552,-1.724 0.83,-2.585c0.835,-2.58 -0.441,1.197 0.359,-1.059c-4.727,0.963 -9.454,1.925 -14.182,2.888c0.827,2.015 0.887,4.084 0.533,6.223c-0.202,1.22 -0.559,2.272 -1.06,3.387c-0.754,1.681 -0.63,0.071 1.092,-0.17c-4.235,0.593 -8.192,3.683 -9.118,8.002c-0.793,3.702 1.921,7.411 5.95,6.781c14.209,-2.224 22.007,-19.517 17.231,-32.561c-2.489,-6.8 -12.36,-1.767 -14.182,2.888c-1.953,4.99 -3.261,10.179 -5.422,15.094c-0.309,0.699 -1.138,2.435 -1.277,2.663c-0.211,0.344 -2.188,2.827 -1.402,2.027c-0.56,0.569 -0.834,0.619 -0.639,0.548c-0.265,0.097 -1.998,-0.176 -2.933,-0.392c-0.368,4.499 -0.737,8.999 -1.105,13.498c1.583,-1.098 3.212,-1.962 4.969,-2.749c-1.549,-4.049 -3.098,-8.1 -4.646,-12.148c0.873,-0.554 -1.728,-0.16 -2.38,-0.25c-1.004,-0.136 -3.01,-0.427 -3.811,-1.076c-0.809,-0.656 -0.695,-1.496 -0.715,-2.49c-0.066,-3.44 -6.7,6.627 -7.118,4.144c1.798,-3.695 5.604,-5.158 11.419,-4.39c-0.038,-0.798 0.457,-1.917 0.668,-2.68c0.369,-1.332 0.244,-0.725 0.98,-1.725c0.264,-0.285 0.506,-0.587 0.724,-0.905c3.288,-3.373 -7.715,2.331 -5.56,-2.944c-0.365,0.895 -0.59,1.094 -1.147,1.858c-1.634,2.238 0.831,-0.507 -0.509,0.521c3.818,1.361 7.637,2.722 11.455,4.082c0.758,-5.146 5.495,-11.006 9.842,-13.339c-3.129,-1.142 -6.257,-2.284 -9.386,-3.425c-0.118,3.173 -2.041,6.21 -3.21,9.088c-1.681,4.137 -2.676,8.518 -1.986,12.975c0.756,4.887 5.752,5.813 9.642,3.52c9.462,-5.581 17.372,-17.533 15.577,-28.886c-1.824,-11.524 -16.14,-17.819 -25.926,-11.819c-2.905,1.781 -8.082,9.321 -2.465,11.505c5.883,2.286 10.268,0.268 14.397,-4.229c2.655,-2.891 2.346,-8.518 -2.085,-9.336c-6.663,-1.23 -11.694,3.321 -13.504,9.424c-0.812,2.736 0.959,5.441 3.667,6.002c0.904,0.187 1.761,0.481 2.665,0.668c-1.223,-2.001 -2.445,-4.002 -3.669,-6.004c-0.401,1.184 -2.006,4.052 -2.972,5.73c-0.691,1.201 -1.603,2.313 -2.454,3.4c-0.911,1.166 -1.066,0.648 -0.156,0.402c2.404,1.35 4.81,2.7 7.214,4.05c-0.021,-3.13 1.634,-6.089 2.682,-8.97c-4.344,-0.203 -8.688,-0.406 -13.03,-0.608c-1.234,5.407 -2.197,11.637 -5.19,16.414c-1.59,2.537 1.073,-2.612 4.406,0.78c0.791,0.807 0.227,-0.436 0.215,-1.164c-0.015,-0.922 0.271,-1.911 0.47,-2.811c0.12,-0.539 1.358,-2.775 0.503,-1.594c-3.848,-1.338 -7.695,-2.677 -11.542,-4.015c-0.706,1.725 -1.452,3.36 -2.341,4.999c4.388,0.205 8.775,0.41 13.164,0.615c0.344,-1.776 0.829,-3.617 2.138,-4.008c-1.886,-3.102 -3.771,-6.203 -5.657,-9.305c-3.271,4.307 -6.679,8.264 -9.299,13.032c4.379,0.204 8.759,0.409 13.139,0.614c0.324,-3.336 1.204,-6.238 2.484,-9.322c2.794,-6.73 -5.111,-10.11 -9.69,-5.311c-0.435,0.456 -0.869,0.912 -1.304,1.367c3.204,1.756 6.408,3.512 9.613,5.268c1.131,-2.811 3.527,-5.164 6.345,-6.344c-1.69,-2.781 -3.381,-5.562 -5.071,-8.342c-1.066,1.283 -2.509,2.18 -3.866,3.119c2.26,2.576 4.521,5.151 6.78,7.727c1.111,-1.253 2.258,-2.438 3.983,-2.699c-1.496,-1.705 -2.991,-3.409 -4.487,-5.114c-0.383,1.634 -3.113,2.892 -4.367,3.72c1.98,2.257 3.962,4.515 5.942,6.771c1.643,-2.651 4.158,-6.614 7.538,-7.073c3.403,-0.457 8.425,-7.906 2.863,-8.367Z" style="fill-rule:nonzero;"/><path d="M171.722,248.547c0.073,-0.385 0.146,-0.769 0.22,-1.152c1.441,-7.572 -9.963,-4.376 -10.488,2.118c-0.726,8.977 4.012,18.241 8.578,25.649c2.569,4.169 5.391,8.141 8.385,12.015c2.752,3.562 5.536,7.774 9.361,10.203c5.329,3.382 15.08,-4.841 12.129,-10.644c-1.864,-3.666 -5.102,-6.387 -7.857,-9.416c-2.896,-3.184 -5.633,-6.504 -8.229,-9.937c-5.322,-7.042 -8.083,-14.718 -12.016,-22.45c-1.146,2.367 -2.293,4.734 -3.439,7.102c1.498,-0.74 3.015,-1.698 3.356,-3.488Z" style="fill-rule:nonzero;"/><path d="M205.675,282.395c-6.193,-2.473 -10.431,3.428 -11.595,8.847c-1.256,5.851 0.582,11.274 0.632,17.057c0.025,2.858 2.708,4.507 5.325,4.295c3.781,-0.307 7.035,-3.376 7.949,-6.977c1.166,-4.596 0.908,-10.649 3.551,-14.7c-3.98,-0.193 -7.961,-0.387 -11.941,-0.58c0.961,5.947 0.508,11.89 2.305,17.717c2.38,7.715 12.704,0.083 13.887,-4.475c1.008,-3.889 1.602,-8.896 4.142,-12.118c-4.285,-0.208 -8.57,-0.416 -12.855,-0.624c0.487,5.59 2.21,10.872 3.271,16.354c1.909,9.854 14.485,2.538 14.814,-4.75c0.213,-4.726 1.789,-9.404 3.21,-13.881c-4.506,2.02 -9.012,4.04 -13.518,6.061c2.538,3.623 1.98,9.443 3.46,13.58c2.651,7.412 13.625,0.768 14.406,-4.643c0.551,-3.816 0.438,-8.096 2.438,-11.486c-4.638,0.945 -9.275,1.89 -13.912,2.834c0.926,1.92 1.338,3.704 1.445,5.83c0.057,1.105 -0.047,2.035 -0.226,3.121c-0.301,1.833 -0.847,1.447 0.617,0.016c3.662,-0.297 7.324,-0.594 10.986,-0.891c-0.289,-0.386 -0.578,-0.771 -0.867,-1.157c-5.015,-6.697 -15.694,3.457 -13.783,9.84c0.146,0.487 0.292,0.976 0.438,1.463c1.544,5.146 9.132,3.465 11.902,0.632c6.842,-6.994 8.02,-18.197 3.837,-27.033c-3.216,-6.797 -11.34,-1.473 -13.912,2.834c-2.766,4.629 -2.89,9.982 -3.563,15.182c4.802,-1.548 9.604,-3.096 14.406,-4.643c-2.098,-5.57 -1.794,-11.309 -5.207,-16.42c-4.041,-6.052 -12.187,2.115 -13.518,6.061c-1.938,5.744 -3.302,11.365 -3.456,17.451c4.824,-2.135 9.648,-4.268 14.472,-6.402c-1.058,-4.905 -2.616,-9.638 -3.054,-14.66c-0.65,-7.459 -9.795,-4.506 -12.855,-0.624c-4.309,5.464 -5.867,12.536 -7.191,19.216c4.629,-1.492 9.258,-2.983 13.887,-4.475c-1.755,-4.577 -1.621,-9.488 -2.361,-14.283c-0.989,-6.4 -9.109,-4.869 -11.942,-0.58c-4.366,6.613 -5.118,13.688 -6.449,21.3c4.425,-0.894 8.85,-1.788 13.274,-2.682c-0.275,-3.05 -1.267,-6.106 -1.892,-9.1c-0.352,-1.685 -0.771,-3.347 -1.099,-5.038c-0.15,-0.777 -0.199,-1.561 -0.234,-2.35c0.01,0.227 -3.879,2.357 -1.622,1.857c2.281,-0.505 5.876,-5.589 2.398,-6.976Z" style="fill-rule:nonzero;"/><path d="M234.776,291.116c0.543,6.3 6.536,9.264 10.422,13.484c5.848,6.35 12.084,12.825 16.926,19.984c0.91,1.346 3.207,1.379 4.547,0.891c0.115,-0.041 0.229,-0.084 0.344,-0.125c4.092,-1.489 7.671,-10.173 0.799,-9.529c-0.178,0.017 -0.355,0.033 -0.533,0.05c-3.035,0.284 -6.961,3.855 -5.55,7.2c0.059,0.139 0.116,0.277 0.175,0.415c1.536,-2.468 3.072,-4.936 4.607,-7.403c-0.115,0.024 -0.23,0.048 -0.347,0.072c1.516,0.297 3.032,0.594 4.548,0.891c-5.941,-5.519 -11.275,-11.693 -17.07,-17.371c-4.645,-4.552 -10.275,-7.275 -15.582,-10.921c-1.35,-0.927 -3.403,0.992 -3.286,2.362Z" style="fill-rule:nonzero;"/><path d="M200.234,313.752c-8.353,6.553 -12.757,17.535 -15.7,27.404c2.812,-0.228 5.624,-0.456 8.436,-0.684c1.969,-7.444 6.076,-14.119 8.733,-21.316c1.933,-5.234 -3.951,-5.229 -6.65,-2.313c-7.163,7.736 -13.148,17.524 -14.999,28.02c-1.191,6.757 8.115,3.965 9.396,-0.762c1.291,-4.762 3.539,-9.114 5.7,-13.528c-2.71,-0.505 -5.421,-1.011 -8.131,-1.516c-3.706,8.117 -8.666,15.82 -9.96,24.805c-0.9,6.248 7.12,4.386 8.982,0.42c1.688,-3.595 3.445,-7.341 6.322,-10.156c-2.463,-0.481 -4.925,-0.964 -7.388,-1.445c0.42,3.355 -0.184,6.638 -0.323,9.996c-0.25,6.013 8.502,1.788 9.433,-1.905c2.624,-10.41 5.682,-20.701 9.235,-30.832c-2.957,-0.138 -5.914,-0.276 -8.871,-0.415c-2.199,9.744 -5.861,19.009 -5.477,29.156c0.213,5.609 7.598,2.281 9.057,-0.733c2.281,-4.714 3.166,-9.781 4.297,-14.853c1.268,-5.687 3.438,-11.171 4.063,-16.988c-3.124,0.631 -6.249,1.263 -9.374,1.895c-0.938,11.998 -6.582,23.154 -1.84,35.089c1.878,4.724 8.679,0.529 9.273,-2.988c1.855,-10.968 3.014,-21.997 3.314,-33.119c0.155,-5.767 -7.421,-1.773 -8.87,0.719c-3.648,6.274 -5.433,13.437 -6.872,20.493c-0.487,2.392 -0.748,4.681 -0.836,7.114c-0.046,1.299 -0.095,2.596 -0.229,3.889c-0.487,4.703 -1.167,-0.577 3.972,-0.003c0.727,1.812 1.452,3.622 2.179,5.434c7.471,-13.062 12.975,-26.592 14.182,-41.707c-3.248,1.041 -6.495,2.082 -9.743,3.123c-0.137,13.155 -4.204,26.725 0.832,39.454c2.163,5.467 9.608,-0.216 9.64,-4.265c0.097,-12.207 0.76,-24.4 2.595,-36.478c-3.274,0.661 -6.549,1.323 -9.823,1.984c-0.036,12.267 -3.186,28.864 6.158,38.705c2.854,3.006 8.567,-0.436 8.971,-4.021c1.367,-12.175 1.777,-24.343 0.039,-36.504c-0.921,-6.443 -9.718,-1.732 -9.746,3.125c-0.075,12.677 3.895,25.511 10.179,36.446c2.827,4.918 9.575,0.201 9.615,-4.254c0.118,-12.866 -5.747,-24.781 -5.837,-37.61c-3.094,1.368 -6.188,2.736 -9.281,4.104c3.552,12.643 8.049,24.996 12.041,37.5c1.755,5.498 10.227,-0.068 9.881,-4.37c-0.994,-12.343 -4.941,-24.138 -7.257,-36.251c-3.126,1.383 -6.253,2.766 -9.38,4.149c3.433,12.279 9.959,23.345 13.688,35.511c1.645,5.366 10.924,0.1 10.02,-4.432c-2.418,-12.123 -7.171,-23.565 -10.814,-35.338c-3.098,1.766 -6.195,3.531 -9.294,5.297c5.077,12.062 11.818,23.326 17.461,35.117c2.658,5.557 11.396,-0.506 9.705,-5.531c-3.56,-10.59 -8.248,-20.717 -13.588,-30.521c-2.88,2.055 -5.759,4.11 -8.639,6.166c7.316,8.954 15.953,20.391 16.16,32.459c3.396,-1.502 6.791,-3.004 10.187,-4.507c-0.678,-1.591 -1.648,-2.911 -2.551,-4.378c-2.933,-4.771 -12.143,2.783 -8.844,7.76c0.516,0.742 0.998,1.505 1.449,2.288c2.535,5.427 10.408,0.068 10.187,-4.507c-0.664,-13.689 -10.468,-25.818 -18.506,-36.207c-2.978,-3.849 -10.695,2.144 -8.639,6.166c5.099,9.976 9.278,20.283 13.078,30.813c3.235,-1.844 6.47,-3.688 9.705,-5.531c-5.904,-11.667 -13,-22.713 -17.872,-34.883c-2.201,-5.498 -10.689,0.496 -9.294,5.297c3.349,11.521 7.487,22.74 10.089,34.473c3.262,-1.858 6.521,-3.718 9.783,-5.576c-4.01,-12.028 -11.183,-22.824 -14.313,-35.155c-1.286,-5.068 -10.089,-0.103 -9.38,4.149c2.032,12.187 5.389,24.111 6.743,36.415c3.294,-1.457 6.588,-2.913 9.881,-4.37c-4.366,-12.352 -9.35,-24.459 -12.626,-37.166c-1.404,-5.446 -9.231,0.358 -9.28,4.104c-0.17,12.864 5.459,24.903 5.495,37.722c3.205,-1.418 6.41,-2.836 9.615,-4.254c-6.15,-10.383 -10.022,-22.073 -9.821,-34.22c-3.248,1.042 -6.498,2.083 -9.746,3.125c1.492,11.337 1.248,22.81 0.039,34.162c2.99,-1.341 5.98,-2.681 8.971,-4.021c-8.096,-8.413 -4.639,-24.112 -4.508,-34.627c0.076,-6.052 -9.143,-2.233 -9.823,1.984c-2.076,12.873 -2.772,25.826 -2.739,38.854c3.213,-1.422 6.426,-2.843 9.64,-4.265c-4.822,-11.791 -0.722,-24.964 -0.501,-37.212c0.104,-5.777 -9.262,-2.422 -9.644,1.948c-1.204,13.79 -6.624,26.141 -13.251,38.134c-1.07,1.937 -0.418,5.188 2.179,5.434c7.808,0.738 9.683,-7.089 10.054,-13.203c0.545,-9.004 1.879,-18.092 6.647,-25.97c-2.956,0.239 -5.913,0.479 -8.87,0.719c-0.49,10.339 -1.742,20.659 -3.352,30.881c3.091,-0.996 6.182,-1.992 9.273,-2.988c-4.31,-10.446 1.121,-21.184 2.063,-31.769c0.585,-6.568 -8.677,-4.313 -9.277,0.752c-0.623,5.255 -2.384,10.404 -3.829,15.483c-1.338,4.702 -1.671,9.549 -3.811,14.01c3.019,-0.245 6.037,-0.489 9.057,-0.733c-0.387,-9.264 3.154,-17.943 5.189,-26.844c1.349,-5.902 -7.393,-4.606 -8.871,-0.415c-3.85,10.91 -7.25,21.954 -10.098,33.168c3.144,-0.635 6.288,-1.271 9.433,-1.905c0.147,-3.381 0.76,-6.619 0.344,-10.004c-0.473,-3.842 -5.104,-3.673 -7.388,-1.445c-4.262,4.156 -7.153,9.159 -9.678,14.51c2.994,0.14 5.988,0.279 8.982,0.42c1.196,-8.243 5.139,-15.134 8.706,-22.529c2.908,-6.029 -5.792,-6.051 -8.131,-1.516c-2.659,5.156 -5.2,10.264 -6.966,15.806c3.133,-0.254 6.264,-0.508 9.396,-0.762c2.006,-8.992 5.763,-16.886 11.667,-23.98c-2.217,-0.771 -4.434,-1.542 -6.65,-2.313c-3.172,7.91 -7.991,14.959 -9.933,23.35c-1.363,5.893 7.289,3.644 8.436,-0.684c2.009,-7.58 4.7,-17.501 10.3,-23.262c2.669,-2.747 0.024,-5.86 -3.033,-3.462Z" style="fill-rule:nonzero;"/><path d="M198.828,355.193c-0.546,7.188 -1.237,14.213 -0.261,21.404c0.739,5.449 8.334,2.189 8.943,-1.807c1.183,-7.754 0.209,-15.592 1.286,-23.33c-2.881,0.928 -5.761,1.856 -8.642,2.784c2.923,10.834 1.727,22.281 4.734,33.151c1.342,4.849 8.754,0.37 9.18,-2.958c1.336,-10.409 0.797,-20.912 1.945,-31.328c-3.096,0.625 -6.192,1.251 -9.288,1.876c0.041,13.725 -1.624,28.181 4.181,41.067c1.795,3.985 7.525,1.297 8.746,-1.781c5.065,-12.771 0.832,-27.159 6.093,-39.712c-2.818,0.228 -5.636,0.456 -8.454,0.685c1.211,13.218 -5.492,25.77 -3.57,39.076c0.875,6.059 8.139,1.771 9.298,-1.879c3.971,-12.502 4.392,-25.76 8.134,-38.316c-2.965,0.599 -5.93,1.197 -8.894,1.797c1.036,13.076 -2.637,26.291 -5.522,38.939c3.153,-0.638 6.307,-1.275 9.46,-1.912c-1.628,-8.82 1.709,-17.351 2.098,-26.15c0.231,-5.234 -7.576,-1.688 -8.334,1.684c-3.027,13.467 -6.979,26.345 -7.756,40.23c3.179,-1.406 6.356,-2.812 9.534,-4.218c-2.354,-10.95 -1.8,-22.302 -6.846,-32.564c-2.24,-4.558 -8.164,-0.536 -9.071,2.923c-3.114,11.877 -0.405,23.425 1.599,35.23c1.133,6.677 9.793,1.69 9.996,-3.205c0.355,-8.628 -0.785,-17.052 -3.01,-25.384c-1.525,-5.711 -9.354,0.51 -9.535,4.218c-0.362,7.364 -0.689,24.353 8.648,26.724c11.952,3.035 14.868,-17.55 14.99,-25.255c0.095,-6.043 -9.682,-2.529 -10.08,2.037c-0.276,3.154 -0.645,6.287 -1.131,9.417c-0.275,1.774 -0.607,3.539 -0.976,5.296c-0.192,0.916 -0.43,1.818 -0.679,2.72c-0.616,2.237 -1.727,-0.013 3.177,-2.024c-2.65,1.087 -5.241,3.428 -5.075,6.565c0.148,2.776 3.165,4.144 5.601,3.144c8.912,-3.656 8.274,-17.886 9.06,-25.926c-3.36,0.679 -6.721,1.357 -10.081,2.037c-0.074,2.84 -0.676,5.685 -1.302,8.446c-0.356,1.576 -0.783,3.118 -1.405,4.61c-1.127,2.704 -0.254,-1.84 2.879,-0.508c-0.519,-0.221 -0.861,-0.854 -1.179,-1.285c-3.405,-4.616 -3.122,-13.681 -2.688,-19.127c-3.178,1.406 -6.356,2.812 -9.535,4.218c1.768,7.621 2.465,15.466 2.324,23.282c3.332,-1.068 6.664,-2.137 9.996,-3.205c-2.131,-10.926 -5.197,-21.673 -2.402,-32.77c-3.023,0.975 -6.048,1.948 -9.071,2.923c5.035,10.028 3.668,22.08 6.487,32.77c1.475,5.592 9.486,-0.366 9.534,-4.218c0.16,-12.748 2.851,-25.515 6.244,-37.77c-2.749,0.223 -5.499,0.445 -8.248,0.668c-0.791,9.153 -5.184,18.265 -3.321,27.531c1.154,5.746 8.545,2.314 9.461,-1.912c2.914,-13.453 5.908,-27.209 5.144,-41.061c-0.327,-5.931 -7.843,-1.471 -8.894,1.797c-4.024,12.52 -4.736,25.773 -8.533,38.35c3.1,-0.627 6.199,-1.253 9.298,-1.879c-2.101,-13.047 3.878,-25.79 3.097,-38.924c-0.305,-5.139 -7.115,-2.275 -8.454,0.685c-5.743,12.702 -1.629,26.931 -6.575,39.622c2.916,-0.594 5.831,-1.188 8.747,-1.781c-5.573,-12.135 -3.983,-25.966 -3.819,-38.933c0.071,-5.644 -8.773,-2.228 -9.289,1.876c-1.307,10.408 -0.934,20.92 -2.054,31.338c3.06,-0.986 6.12,-1.973 9.18,-2.958c-3.212,-10.662 -2.573,-22.042 -5.266,-32.849c-1.162,-4.663 -8.168,-0.232 -8.642,2.784c-1.217,7.751 -0.27,15.602 -1.381,23.338c2.912,-0.938 5.823,-1.876 8.735,-2.814c-1.526,-6.31 -1.583,-13.13 -2.053,-19.588c-0.321,-4.42 -6.28,-0.994 -6.513,2.089Z" style="fill-rule:nonzero;"/><path d="M210.208,409.985c-0.111,-0.306 -0.252,-0.561 -0.455,-0.816c-0.449,-0.563 -1.41,-0.657 -2.039,-0.399c-4.195,1.716 -6.881,6.929 -7.304,11.29c-0.22,2.271 1.979,3.56 3.944,2.202c3.608,-2.491 5.9,-5.721 7.901,-9.583c-2.002,0.162 -4.004,0.324 -6.006,0.486c-0.173,2.438 -0.722,4.56 -0.337,7.001c0.337,2.135 2.449,2.443 4.139,1.511c2.472,-1.365 3.839,-3.807 5.381,-6.072c1.075,-1.223 0.597,-1.115 -1.436,0.321c0.34,0.565 0.652,1.146 0.938,1.74c0.578,1.14 1.171,2.316 2.152,3.155c1.962,1.674 4.43,0.098 5.512,-1.809c0.51,-0.639 1.023,-1.274 1.539,-1.907c-1.806,0.146 -3.612,0.292 -5.419,0.438c0.3,1.104 0.826,1.979 1.33,3.002c1.293,2.627 5.012,0.922 5.887,-1.199c0.567,-1.374 1.249,-2.666 1.605,-4.117c-2.055,0.662 -4.108,1.324 -6.163,1.985c0.416,1.075 0.228,2.179 0.182,3.291c1.283,-1.364 2.566,-2.728 3.85,-4.091c-3.947,0.376 -7.68,-1.375 -11.664,-0.68c-2.448,0.427 -5.625,3.826 -2.785,5.885c3.874,2.808 10.385,3.723 14.951,2.458c1.644,-0.455 4.492,-3.628 2.54,-5.298c-3.04,-2.6 -6.358,-3.606 -10.218,-4.441c-2.883,-0.624 -6.845,4.039 -3.676,6.04c1.771,1.117 2.864,1.531 4.919,1.611c1.962,0.076 4.909,-3.242 3.087,-5.016c-1.113,-1.082 -2.275,-1.618 -3.617,-2.389c-1.226,2.014 -2.451,4.026 -3.676,6.04c2.777,0.532 5.551,0.993 7.782,2.893c0.847,-1.766 1.693,-3.532 2.54,-5.298c-3.08,0.859 -7.851,-0.384 -10.383,-2.21c-0.929,1.961 -1.856,3.923 -2.785,5.885c3.899,-0.688 7.719,1.039 11.67,0.654c2.098,-0.204 3.769,-2.015 3.85,-4.091c0.064,-1.681 0.131,-3.125 -0.486,-4.709c-1.271,-3.267 -5.629,-0.208 -6.162,1.985c-0.214,0.881 -0.719,1.713 -1.062,2.549c1.962,-0.4 3.925,-0.8 5.887,-1.199c-0.507,-1.023 -1.035,-1.895 -1.336,-2.998c-0.729,-2.674 -4.395,-0.825 -5.419,0.438c-0.92,1.135 -1.739,2.154 -2.461,3.427c1.838,-0.604 3.674,-1.205 5.512,-1.809c-2.327,-1.982 -2.668,-7.037 -6.678,-6.713c-1.614,0.131 -2.962,1.129 -4.006,2.291c-1.148,1.279 -2.145,4.088 -3.615,4.9c1.38,0.504 2.759,1.008 4.139,1.511c-0.371,-2.34 0.166,-4.651 0.33,-6.999c0.268,-3.809 -5.09,-1.285 -6.006,0.486c-1.259,2.435 -2.627,4.614 -4.843,6.281c1.584,0.31 3.167,0.619 4.751,0.93c0.088,-1.523 0.827,-3.039 1.438,-4.407c0.285,-0.64 0.646,-1.624 1.157,-2.132c0.692,-0.691 1.626,-1.12 0.134,-0.26c0.668,-0.384 1.283,-1.24 0.99,-2.044Z" style="fill-rule:nonzero;"/><path d="M222.244,412.179c0.51,0.823 1.843,1.346 2.614,1.933c1.14,0.867 2.208,1.879 3.17,2.939c0.943,1.041 1.754,2.13 2.306,3.424c0.475,1.115 0.383,0.897 -0.091,1.666c-0.709,1.147 -1.344,2.674 -0.299,3.865c0.938,1.067 2.774,0.947 3.872,0.207c4.743,-3.199 3.721,-8.539 0.411,-12.352c-2.478,-2.854 -7.938,-6.193 -11.575,-3.586c-0.616,0.442 -0.794,1.283 -0.408,1.904Z" style="fill-rule:nonzero;"/><path d="M200.211,415.889c-1.285,0.137 -2.144,0.972 -2.815,2.033c-0.464,0.733 -0.81,1.502 -1.072,2.328c-0.201,0.63 -0.16,1.467 -0.376,2.042c-0.7,1.871 0.009,3.523 2.159,3.53c-0.765,-0.002 0.112,0.128 0.249,0.164c0.322,0.086 0.644,0.156 0.963,0.252c0.951,0.285 1.828,0.378 2.798,0.006c1.691,-0.648 3.647,-2.59 2.862,-4.598c-0.842,-2.147 -4.519,-2.499 -6.382,-1.68c0.927,0.182 1.853,0.363 2.778,0.545c-0.353,-0.389 -0.313,-1.53 -0.358,-2.027c-0.075,-0.844 0.079,-1.57 -0.345,-2.338c-0.097,-0.177 -0.248,-0.279 -0.461,-0.257Z" style="fill-rule:nonzero;"/><path d="M173.374,361.73c7.717,0.993 15.619,0.37 23.334,-0.351c7.781,-0.727 17.691,-0.145 24.663,-3.946c1.044,-0.569 2.217,-2.601 0.728,-3.396c-2.858,-1.525 -5.52,-1.172 -8.673,-0.877c-4.544,0.425 -9.075,1.042 -13.61,1.559c-8.235,0.937 -16.445,1.624 -24.726,1.996c-2.231,0.1 -4.92,4.603 -1.716,5.015Z" style="fill-rule:nonzero;"/><path d="M173.37,359.999c12.611,3.155 27.037,2.223 39.967,2.468c13.703,0.26 27.428,0.005 41.018,-1.91c4.455,-0.628 6.061,-7.878 0.556,-6.632c-0.784,0.139 -1.551,0.344 -2.3,0.612c-1.524,0.482 -4.442,4.087 -1.762,5.126c0.887,0.344 1.726,0.612 2.648,0.854c0.773,-2.259 1.545,-4.517 2.318,-6.775c-13.608,1.866 -27.353,2.181 -41.071,2.154c-13.369,-0.026 -27.583,-1.671 -40.737,1.134c-1.255,0.266 -2.327,2.547 -0.637,2.969Z" style="fill-rule:nonzero;"/><path d="M166.019,244.54c0.254,1.175 1.056,2.421 1.584,3.495c0.36,0.731 0.702,1.668 1.224,2.298c0.259,0.312 0.509,0.642 0.9,0.792c-0.125,-0.154 -0.123,-0.165 0.008,-0.032c0.266,0.246 0.466,0.325 0.811,0.42c0.908,0.247 1.995,-0.577 2.339,-1.363c0.669,-1.534 0.113,-3.011 -0.765,-4.688c-0.594,-1.134 -1.676,-3.18 -2.988,-3.653c-1.682,-0.609 -3.491,0.987 -3.113,2.731Z" style="fill-rule:nonzero;"/><path d="M184.496,291.198c1.961,3.721 3.757,7.509 5.965,11.097c1.462,2.376 4.192,8.522 7.823,6.482c4.04,-2.271 -1.608,-6.737 -3.134,-8.71c-2.737,-3.541 -5.465,-7.086 -8.294,-10.554c-0.837,-1.024 -2.94,0.585 -2.36,1.685Z" style="fill-rule:nonzero;"/><path d="M185.434,293.255c-0.463,3.498 1.102,6.894 2.823,9.871c1.481,2.563 4.063,7.249 7.655,5.292c0.948,-0.516 1.717,-1.584 1.676,-2.691c-0.043,-1.163 -0.883,-1.684 -1.638,-2.406c-1.105,-1.058 -2.039,-2.357 -2.942,-3.585c-1.668,-2.265 -3.746,-4.794 -4.975,-7.318c-0.597,-1.229 -2.456,-0.238 -2.599,0.837Z" style="fill-rule:nonzero;"/><path d="M189.673,298.842c0.767,0.73 1.372,1.58 2.216,2.23c0.232,0.179 0.607,-0.247 0.441,-0.475c-0.607,-0.832 -1.14,-1.709 -1.835,-2.477c-0.37,-0.409 -1.208,0.355 -0.822,0.722Z" style="fill-rule:nonzero;"/><path d="M232.81,313.898c3.243,-0.817 5.516,-3.131 7.675,-5.553c1.298,-1.455 2.401,-3.076 3.476,-4.7c0.876,-1.326 2.219,-3.071 1.954,-4.737c-0.294,-1.845 -2.207,-2.259 -3.692,-1.348c-2.521,1.548 -3.634,4.878 -5.092,7.354c-1.42,2.411 -2.948,5.256 -5.03,7.159c-0.835,0.762 -0.609,2.158 0.709,1.825Z" style="fill-rule:nonzero;"/><path d="M238.54,314.753c2.202,-4.419 3.972,-8.469 7.695,-11.908c3.12,-2.882 -0.215,-6.728 -3.356,-3.825c-2.412,2.228 -4.401,4.822 -5.936,7.726c-1.231,2.332 -2.782,6.062 -1.408,8.62c0.726,1.353 2.477,0.445 3.005,-0.613Z" style="fill-rule:nonzero;"/><path d="M226.129,284.695c0.818,1.231 4.992,1.431 6.43,2.114c3.616,1.719 6.713,4.394 9.617,7.101c1.463,1.364 3.907,4.821 6.177,4.637c1.632,-0.132 4.29,-2.265 3.217,-4.173c-2.963,-5.275 -9.216,-10.266 -14.997,-12.098c-2.758,-0.875 -5.352,-1.118 -8.154,-0.339c-0.795,0.221 -3.076,1.577 -2.29,2.758Z" style="fill-rule:nonzero;"/><path d="M234.129,287.028c1.247,1.563 3.301,2.504 4.93,3.635c2.595,1.8 4.986,3.889 7.276,6.057c2.113,2.002 4.102,4.141 5.987,6.357c1.432,1.684 2.676,3.918 4.952,4.416c0.647,0.143 1.412,-0.467 1.52,-1.096c0.81,-4.726 -5.868,-9.985 -8.927,-12.777c-3.624,-3.308 -9.604,-8.879 -14.963,-7.852c-0.5,0.096 -1.212,0.712 -0.775,1.26Z" style="fill-rule:nonzero;"/><path d="M241.702,290.778c3.074,3.474 6.147,6.932 9.284,10.353c3.024,3.298 5.466,8.181 9.021,10.773c1.034,0.754 2.907,-0.817 2.702,-1.942c-0.752,-4.123 -4.625,-7.75 -7.437,-10.691c-3.696,-3.867 -7.81,-6.982 -12.288,-9.869c-0.68,-0.44 -1.855,0.729 -1.282,1.376Z" style="fill-rule:nonzero;"/><path d="M241.79,289.364c1.907,4.466 5.663,7.594 8.834,11.152c1.99,2.234 3.88,4.586 5.828,6.859c1.595,1.863 2.774,4.21 4.653,5.791c2.111,1.775 5.771,-1.341 4.179,-3.667c-5.902,-8.624 -13.905,-14.686 -21.687,-21.427c-0.743,-0.643 -2.208,0.353 -1.807,1.292Z" style="fill-rule:nonzero;"/><path d="M245,293.475c3.921,3.496 7.073,8.079 10.126,12.33c2.723,3.793 5.436,9.534 9.52,11.91c1.705,0.992 4.102,-1.342 3.511,-3.081c-1.498,-4.41 -6.204,-8.657 -9.258,-12.14c-3.733,-4.258 -7.742,-7.532 -12.552,-10.465c-0.704,-0.427 -2.032,0.835 -1.347,1.446Z" style="fill-rule:nonzero;"/></g></svg>