<?xml version="1.0" encoding="UTF-8"?>
<svg width="451px" height="440px" viewBox="0 0 451 440" version="1.1" xmlns="http://www.w3.org/2000/svg" xmlns:xlink="http://www.w3.org/1999/xlink">
    <!-- Generator: Sketch 41 (35326) - http://www.bohemiancoding.com/sketch -->
    <title>snow</title>
    <desc>Created with Sketch.</desc>
    <defs></defs>
    <g id="Page-1" stroke="none" stroke-width="1" fill="none" fill-rule="evenodd">
        <g id="Layer_1" transform="translate(-4262.000000, -2163.000000)" fill="#000000">
            <g id="Layer_1_3_">
                <g id="snow" transform="translate(4262.000000, 2163.000000)">
                    <path d="M160.239,6.411 C156.591,31.675 156.654,56.944 155.067,82.329 C155.598,80.784 156.13,79.239 156.661,77.693 C156.61,77.765 156.559,77.838 156.509,77.91 C159.89,77.207 163.271,76.505 166.652,75.803 C166.265,75.337 165.781,74.974 165.362,74.531 C161.969,70.94 155.919,75.186 155.163,79.103 C154.85,80.728 154.449,82.4 155.212,83.97 C157.449,88.574 163.714,86.485 166.092,83.088 C169.08,78.819 167.486,72.895 167.528,67.976 C167.587,60.989 167.769,54.004 168.04,47.023 C168.578,33.158 169.598,19.288 171.292,5.515 C172.251,-2.301 161.103,0.426 160.239,6.411 L160.239,6.411 Z" id="Shape"></path>
                    <path d="M121.319,64.257 C135.52,58.849 148.779,50.415 162.098,43.144 C169.03,39.359 175.972,35.592 182.916,31.83 C186.4,29.942 189.886,28.058 193.371,26.173 C195.115,25.23 196.86,24.287 198.604,23.345 C200.183,22.492 204.218,21.785 200.167,21.511 C201.002,17.612 201.838,13.712 202.673,9.812 C199.051,11.35 195.673,12.461 193.395,15.884 C192.37,17.425 191.437,20.481 193.779,21.498 C196.981,22.891 200.083,22.47 203.295,21.257 C206.064,20.212 208.504,18.036 209.148,15.035 C209.844,11.784 207.549,9.274 204.281,9.489 C201.315,9.683 199.12,11.055 196.552,12.469 C192.495,14.703 188.439,16.938 184.384,19.174 C176.874,23.314 169.37,27.463 161.872,31.625 C147.343,39.69 131.809,47.205 118.659,57.418 C115.44,59.918 116.549,66.074 121.319,64.257 L121.319,64.257 Z" id="Shape"></path>
                    <path d="M125.922,14.645 C136.247,28.223 149.493,39.538 161.305,51.885 C167.056,57.896 172.805,63.894 178.753,69.713 C181.827,72.72 183.64,75.072 188.156,74.877 C192.268,74.7 195.51,71.47 196.571,67.689 C197.349,64.919 195.618,62.815 193.121,62.042 C192.258,61.775 191.381,61.815 190.495,61.914 C189.937,61.976 185.019,63.162 188.999,62.366 C186.824,62.801 184.02,64.383 183.801,66.927 C183.737,67.691 183.413,68.568 183.529,69.318 C183.898,71.719 182.99,71.867 183.789,68.985 C185.801,66.846 187.812,64.709 189.823,62.57 C189.693,62.539 189.562,62.507 189.432,62.475 C190.798,62.962 192.164,63.449 193.532,63.936 C183.616,54.528 174.061,44.744 164.276,35.2 C159.196,30.245 154.057,25.346 148.623,20.779 C142.942,16.006 137.434,12.504 130.618,9.606 C127.958,8.476 123.889,11.973 125.922,14.645 L125.922,14.645 Z" id="Shape"></path>
                    <path d="M373.238,140.939 C372.189,150.408 374.033,159.963 375.654,169.283 C377.341,178.983 379.032,188.681 380.878,198.352 C384.565,217.668 388.852,236.836 394.953,255.55 C397.582,263.612 408.956,255.15 408.933,249.365 C408.914,244.67 407.147,242.106 402.624,240.881 C399.502,240.035 396.767,243.162 395.903,245.728 C394.951,248.556 394.59,250.954 394.622,253.954 C399.282,251.892 403.942,249.831 408.602,247.769 C402.57,229.713 398.094,211.141 393.93,192.578 C391.792,183.05 389.759,173.497 387.716,163.947 C385.846,155.202 384.218,145.836 379.387,138.181 C377.792,135.652 373.467,138.869 373.238,140.939 L373.238,140.939 Z" id="Shape"></path>
                    <path d="M438.801,152.458 C429.228,154.196 421.313,161.251 414.403,167.806 C406.06,175.72 398.572,184.58 391.217,193.402 C376.762,210.741 363.104,228.392 346.179,243.448 C349.794,244.736 353.409,246.024 357.026,247.313 C357.299,245.328 359.142,243.135 359.789,241.088 C361.632,235.246 353.518,234.741 350.534,237.79 C347.339,241.058 344.015,243.704 343.106,248.439 C341.724,255.64 349.914,255.579 353.953,252.304 C370.746,238.688 384.054,220.637 397.355,203.765 C404.11,195.198 410.971,186.713 418.357,178.677 C425.46,170.949 434.153,164.146 439.983,155.423 C440.7,154.353 440.706,152.112 438.801,152.458 L438.801,152.458 Z" id="Shape"></path>
                    <path d="M323.456,182.092 C330.603,189.342 340.123,193.135 349.394,196.891 C359.359,200.929 369.759,203.962 379.965,207.317 C400.292,213.998 420.599,221.878 437.396,235.487 C439.279,231.559 441.163,227.632 443.046,223.705 C441.491,224.348 439.648,224.574 437.987,224.785 C435.117,225.15 431.829,228.171 432.951,231.318 C433.332,232.384 433.705,233.437 434.174,234.467 C434.807,235.862 436.07,237.159 437.698,237.296 C439.887,237.481 441.626,237.311 443.751,236.732 C447.308,235.764 453.856,228.55 449.401,224.95 C431.994,210.881 412.059,202.204 390.853,195.511 C380.497,192.242 370.023,189.367 359.645,186.17 C349.032,182.9 338.463,178.752 327.517,176.769 C325.208,176.352 321.236,179.84 323.456,182.092 L323.456,182.092 Z" id="Shape"></path>
                    <path d="M150.684,5.158 C150.958,6.262 151.139,7.049 151.781,8.039 C152.455,9.079 153.158,10.087 153.965,11.029 C155.458,12.774 157.2,14.24 159.043,15.603 C160.69,16.821 163.32,15.153 164.304,13.855 C165.415,12.39 165.729,10.19 163.979,9.087 C162.313,8.037 160.757,6.844 159.287,5.536 C158.516,4.851 157.751,4.17 157.016,3.446 C156.256,2.696 155.467,2.294 154.615,1.71 C152.656,0.368 150.235,3.341 150.684,5.158 L150.684,5.158 Z" id="Shape"></path>
                    <path d="M173.872,3.231 C172.538,4.592 171.18,5.797 169.653,6.939 C168.119,8.087 166.381,8.927 164.85,10.09 C163.671,10.986 162.824,12.86 163.379,14.309 C164.099,16.186 166.474,16.068 167.929,15.224 C171.762,13.001 175.873,9.435 177.733,5.347 C178.961,2.644 175.668,1.397 173.872,3.231 L173.872,3.231 Z" id="Shape"></path>
                    <path d="M136.947,3.42 C135.026,8.239 135.335,14.291 135.342,19.416 C135.349,24.314 143.01,20.919 143.016,16.956 C143.023,12.575 143.591,6.472 141.556,2.481 C140.526,0.463 137.625,1.72 136.947,3.42 L136.947,3.42 Z" id="Shape"></path>
                    <path d="M123.434,28.116 C125.867,28.099 128.524,26.951 130.906,26.415 C133.469,25.838 136.105,25.78 138.659,25.206 C141.199,24.635 144.141,18.921 140.093,18.513 C137.214,18.223 134.222,19.146 131.496,20.017 C128.573,20.951 124.851,22.168 122.625,24.352 C121.325,25.627 121.012,28.134 123.434,28.116 L123.434,28.116 Z" id="Shape"></path>
                    <path d="M117.422,48.42 C119.49,49.989 121.8,51.084 124.154,52.193 C126.546,53.32 128.711,55.216 131.494,54.231 C133.229,53.616 134.34,52.198 134.471,50.38 C134.682,47.447 131.059,46.661 128.945,45.871 C125.848,44.714 122.772,43.868 119.454,44.126 C117.522,44.277 115.502,46.963 117.422,48.42 L117.422,48.42 Z" id="Shape"></path>
                    <path d="M130.989,53.965 C130.095,56.957 129.331,59.925 128.655,62.979 C128.234,64.874 126.73,67.438 127.496,69.345 C128.265,71.261 130.397,70.891 131.886,70.228 C134.886,68.89 135.231,65.265 135.496,62.425 C135.81,59.056 135.631,56.017 134.558,52.815 C133.889,50.819 131.333,52.813 130.989,53.965 L130.989,53.965 Z" id="Shape"></path>
                    <path d="M143.979,77.497 C146.823,77.311 149.592,76.376 152.333,75.644 C154.685,75.014 157.054,75.142 159.367,74.545 C161.172,74.08 164.246,70.573 162.133,68.777 C157.552,64.884 147.876,70.473 143.733,73.089 C142.091,74.125 140.926,77.697 143.979,77.497 L143.979,77.497 Z" id="Shape"></path>
                    <path d="M158.655,74.534 C160.797,76.764 163.618,78.165 165.665,80.515 C166.523,81.501 167.12,82.494 168.564,82.643 C168.909,82.679 169.257,82.703 169.604,82.702 C170.114,82.653 170.59,82.499 171.034,82.242 C169.72,83.103 170.641,82.499 171.077,82.214 C172.504,81.28 173.657,79.622 173.563,77.84 C173.476,76.21 172.145,75.167 170.946,74.272 C168.006,72.075 164.579,70.68 160.887,70.907 C159.484,70.992 157.321,73.146 158.655,74.534 L158.655,74.534 Z" id="Shape"></path>
                    <path d="M192.521,5.599 C189.958,10.752 188.017,16.613 186.683,22.207 C185.453,27.366 193.342,25.631 194.217,21.597 C195.344,16.396 197.155,10.629 196.661,5.264 C196.428,2.73 193.233,4.167 192.521,5.599 L192.521,5.599 Z" id="Shape"></path>
                    <path d="M189.502,24.614 C190.154,29.688 193.221,35.093 197.786,37.671 C201.25,39.627 206.629,33.413 202.781,31.077 C200.869,29.916 199.121,28.887 197.506,27.31 C195.932,25.774 194.429,24.195 192.782,22.73 C191.581,21.659 189.301,23.049 189.502,24.614 L189.502,24.614 Z" id="Shape"></path>
                    <path d="M194.627,53.28 C192.412,51.522 188.36,52.684 185.956,53.491 C182.842,54.536 179.785,56.54 177.51,58.893 C176.265,60.18 174.936,62.386 176.404,64.057 C177.794,65.641 180.333,64.825 181.668,63.631 C183.421,62.063 185.173,60.663 187.193,59.452 C189.355,58.157 191.858,57.644 193.971,56.34 C195.054,55.672 195.799,54.21 194.627,53.28 L194.627,53.28 Z" id="Shape"></path>
                    <path d="M174.788,63.088 C173.442,65.469 173.483,68.52 173.402,71.189 C173.374,72.112 173.389,73.031 173.421,73.954 C173.447,74.704 173.805,75.225 174.234,75.798 C174.262,75.836 176.303,77.226 175.287,76.471 C176.943,77.702 179.611,75.698 180.251,74.216 C179.867,74.886 179.974,74.722 180.568,73.721 C180.859,73.104 181.082,72.198 181.045,71.511 C180.998,70.623 180.571,69.621 180.311,68.775 C179.649,66.619 179.418,63.807 177.91,62.066 C176.933,60.94 175.312,62.159 174.788,63.088 L174.788,63.088 Z" id="Shape"></path>
                    <path d="M357.104,148.359 C357.606,153.361 361.918,155.929 365.682,158.787 C367.464,160.14 369.352,161.357 371.081,162.779 C371.818,163.384 372.501,164.044 373.151,164.739 C373.374,164.977 374.731,166.939 373.871,165.399 C377.444,171.795 387.809,165.909 387.027,159.58 C386.391,154.432 381.613,151.946 377.532,149.508 C373.313,146.987 368.263,143.315 363.348,142.879 C360.451,142.622 356.778,145.101 357.104,148.359 L357.104,148.359 Z" id="Shape"></path>
                    <path d="M398.16,141.428 C393.641,140.618 388.665,144.451 385.386,147.157 C381.379,150.464 378.045,154.499 374.004,157.77 C371.451,159.836 369.475,164.385 371.976,167.234 C375.116,170.811 380.724,167.91 383.039,164.935 C385.714,161.499 388.379,158.048 391.144,154.684 C393.836,151.409 397.427,148.615 399.586,144.985 C400.387,143.638 399.775,141.717 398.16,141.428 L398.16,141.428 Z" id="Shape"></path>
                    <path d="M336.065,167.247 C332.788,174.306 338.299,183.421 340.475,190.111 C343.003,197.881 357.405,189.155 353.775,182.53 C352.005,179.3 350.169,176.107 348.437,172.857 C347.127,170.397 345.863,166.551 343.716,164.737 C341.12,162.542 337.368,164.44 336.065,167.247 L336.065,167.247 Z" id="Shape"></path>
                    <path d="M329.561,207.442 C332.361,205.735 334.743,203.462 337.672,201.909 C341.167,200.056 345.729,199.246 348.491,196.337 C350.906,193.793 353.57,187.164 347.861,186.357 C342.15,185.549 335.836,190.237 331.716,193.781 C328.545,196.509 323.612,202.037 325.693,206.666 C326.38,208.194 328.273,208.227 329.561,207.442 L329.561,207.442 Z" id="Shape"></path>
                    <path d="M336.72,235.71 C339.859,236.237 343.056,236.09 346.207,236.516 C349.449,236.954 352.124,238.586 354.683,240.528 C359.896,244.482 370.438,233.667 365.096,229.355 C356.931,222.763 344.659,222.109 336.278,228.702 C334.135,230.386 333.046,235.093 336.72,235.71 L336.72,235.71 Z" id="Shape"></path>
                    <path d="M359.801,235.988 C357.959,239.666 358.178,244.871 358.03,248.893 C357.995,249.867 357.981,250.84 357.991,251.815 C357.972,249.914 357.943,253.462 358.008,253.984 C358.428,257.375 360.891,258.952 364.133,258.869 C369.184,258.741 373.868,252.418 370.874,247.918 C370.848,247.879 370.822,247.84 370.796,247.801 C371.148,248.703 371.5,249.607 371.852,250.51 C371.688,252.309 371.695,252.179 371.873,250.121 C371.826,249.508 371.691,248.921 371.468,248.359 C371.305,247.921 371.07,247.512 370.83,247.11 C369.181,244.335 370.808,247.451 370.142,245.343 C369.857,244.437 369.611,243.517 369.362,242.6 C368.605,239.811 367.676,235.07 364.809,233.712 C362.867,232.792 360.671,234.25 359.801,235.988 L359.801,235.988 Z" id="Shape"></path>
                    <path d="M414.891,145.103 C411.268,152.282 411.911,161.571 412.499,169.379 C413.188,178.516 428.578,171.771 426.05,163.385 C424.08,156.854 425.236,148.748 421.245,143.018 C419.528,140.552 415.774,143.353 414.891,145.103 L414.891,145.103 Z" id="Shape"></path>
                    <path d="M417.496,171.502 C419.669,175.501 427.13,175.934 431.177,176.876 C436.165,178.037 441.251,180.932 446.156,178.228 C448.495,176.939 450.706,174.121 450.465,171.304 C449.939,165.136 441.304,165.551 436.723,165.115 C431.116,164.581 423.461,163.668 418.862,167.588 C417.922,168.386 416.799,170.221 417.496,171.502 L417.496,171.502 Z" id="Shape"></path>
                    <path d="M385.081,257.975 C387.395,256.292 388.988,253.823 390.81,251.65 C390.276,252.197 390.296,252.185 390.873,251.615 C391.308,251.193 391.791,250.818 392.257,250.433 C390.478,251.902 393.395,250.019 391.365,250.907 C391.623,250.795 393.328,250.302 391.728,250.624 C395.423,249.88 398.842,247.572 399.684,243.642 C400.368,240.454 398.01,237.116 394.492,237.725 C389.588,238.575 385.607,241.079 382.589,245.045 C380.124,248.284 377.377,253.529 378.987,257.651 C380.065,260.413 383.367,259.22 385.081,257.975 L385.081,257.975 Z" id="Shape"></path>
                    <path d="M396.34,247.601 C402.238,248.754 407.404,250.362 412.771,252.969 C419.045,256.018 428.312,245.834 421.628,241.278 C418.845,239.381 414.725,239.053 411.462,238.742 C406.815,238.299 402.098,238.842 397.812,240.733 C395.563,241.725 391.907,246.734 396.34,247.601 L396.34,247.601 Z" id="Shape"></path>
                    <path d="M449.668,206.757 C446.262,205.287 442.67,206.442 439.284,207.475 C435.256,208.704 430.806,211.03 427.746,213.947 C425.42,216.165 423.186,220.288 425.76,223.22 C428.305,226.119 432.749,224.52 435.212,222.454 C437.272,220.726 439.107,218.84 441.318,217.282 C443.88,215.479 446.806,214.391 449.233,212.376 C450.63,211.216 452.069,207.792 449.668,206.757 L449.668,206.757 Z" id="Shape"></path>
                    <path d="M424.577,219.442 C422.542,223.053 421.856,227.4 420.276,231.23 C419.415,233.318 418.214,235.301 418.501,237.662 C418.842,240.478 420.931,242.117 423.73,241.88 C429.861,241.36 432.303,235.361 433.069,230.151 C433.678,226.001 434.39,220.686 431.714,217.101 C429.659,214.348 425.682,217.481 424.577,219.442 L424.577,219.442 Z" id="Shape"></path>
                    <path d="M113.446,345.446 C111.166,352.041 111.207,359.279 110.872,366.191 C110.493,374.029 110.732,381.972 111.061,389.808 C111.694,404.921 113.316,420.121 115.575,435.073 C116.843,443.461 128.224,437.332 128.268,431.005 C128.274,430.049 128.23,429.168 128.092,428.22 C127.024,420.849 116.619,425.146 115.876,430.688 C115.68,432.153 115.564,433.597 115.574,435.074 C119.805,433.718 124.036,432.362 128.267,431.006 C125.9,416.735 123.784,402.445 122.309,388.052 C121.522,380.374 120.706,372.71 120.107,365.015 C119.59,358.377 119.897,350.919 117.771,344.567 C117.079,342.494 113.94,344.016 113.446,345.446 L113.446,345.446 Z" id="Shape"></path>
                    <path d="M153.74,352.771 C147.933,354.699 143.369,359.579 139.052,363.708 C135.424,367.178 131.881,370.734 128.282,374.235 C122.904,379.468 117.602,384.78 112.24,390.03 C101.833,400.218 91.187,409.985 80.282,419.602 C75.96,423.414 77.331,430.278 83.831,428.723 C89.335,427.407 94.313,421.517 98.288,417.799 C105.045,411.48 111.601,404.94 118.092,398.349 C123.621,392.736 129.13,387.099 134.572,381.402 C138.01,377.802 141.489,374.238 144.673,370.407 C148.716,365.54 153.675,360.397 155.519,354.207 C155.852,353.087 154.675,352.46 153.74,352.771 L153.74,352.771 Z" id="Shape"></path>
                    <path d="M71.256,365.973 C75.01,382.794 93.502,390.712 107.943,396.591 C124.088,403.163 141.163,408.49 154.85,419.66 C157.588,416.07 160.328,412.481 163.066,408.891 C159.24,408.417 156.487,408.491 153.323,410.9 C151.555,412.246 150.917,414.432 151.368,416.508 C151.931,419.101 155,420.504 157.346,421.028 C161.999,422.068 170.085,414.632 165.562,410.259 C152.907,398.024 134.58,392.778 118.488,386.833 C102.547,380.946 87.646,373.85 74.217,363.375 C72.771,362.249 70.967,364.678 71.256,365.973 L71.256,365.973 Z" id="Shape"></path>
                    <path d="M394.637,8.249 C385.261,14.384 377.961,23.768 370.585,32.08 C361.986,41.77 353.357,51.354 343.979,60.307 C346.026,61.429 348.073,62.551 350.121,63.672 C351.054,62.113 352.2,61.391 352.671,59.514 C353.105,57.785 351.789,56.629 350.166,56.66 C347.131,56.716 344.736,58.86 343.114,61.235 C340.145,65.581 344.971,69.078 348.637,65.616 C357.322,57.412 365.201,48.408 372.962,39.339 C380.919,30.041 390.094,20.903 396.676,10.573 C397.676,9.001 396.477,7.044 394.637,8.249 L394.637,8.249 Z" id="Shape"></path>
                    <path d="M352.325,7.396 C351.884,14.709 356.736,21.589 359.81,27.922 C363.308,35.129 366.808,42.351 370.201,49.622 C372.476,54.499 374.54,59.185 376.32,64.244 C377.219,66.799 378.123,71.406 380.725,72.847 C381.94,73.519 383.663,73.244 384.789,72.517 C387.654,70.669 389.387,66.351 385.585,64.499 C384.076,63.764 382.098,64.633 381.2,65.956 C380.822,66.514 379.548,69.265 379.852,68.42 C381.035,67.383 382.216,66.346 383.398,65.309 C383.366,65.323 383.334,65.335 383.302,65.349 C384.545,65.592 385.788,65.836 387.031,66.079 C387.722,66.712 387.107,66.182 386.87,65.702 C386.563,65.084 386.316,64.432 386.057,63.794 C385.262,61.834 384.569,59.831 383.87,57.835 C382.119,52.836 379.832,48.227 377.499,43.459 C374.236,36.788 370.879,30.141 367.467,23.557 C364.276,17.398 361.123,10.265 356.904,4.764 C355.292,2.661 352.428,5.678 352.325,7.396 L352.325,7.396 Z" id="Shape"></path>
                    <path d="M334.366,31.141 C340.725,39.205 356.275,38.863 365.561,39.696 C378.246,40.833 391.14,41.444 403.01,46.519 C403.524,44.122 404.036,41.726 404.55,39.329 C405.644,38.649 402.979,39.765 402.826,39.804 C401.603,40.122 400.767,41.043 399.937,41.917 C398.504,43.423 397.741,45.886 400.24,46.717 C402.765,47.558 404.814,47.413 407.171,46.182 C409.224,45.11 412.025,40.435 408.711,38.992 C397.273,34.013 384.956,32.886 372.647,31.988 C366.559,31.544 360.474,31.184 354.415,30.43 C348.32,29.672 342.143,27.992 335.995,28.495 C334.881,28.586 333.508,30.054 334.366,31.141 L334.366,31.141 Z" id="Shape"></path>
                    <path d="M357.375,354.482 C354.645,369.765 358.336,385.313 361.674,400.193 C362.721,404.86 363.112,409.424 363.361,414.187 C363.513,417.111 363.039,421.192 366.43,422.296 C368.471,422.961 371.033,420.9 371.79,419.173 C372.521,417.503 372.583,415.268 370.719,414.343 C368.34,413.162 365.878,416.057 365.36,416.823 C366.28,416.163 367.198,415.502 368.118,414.841 C368.086,414.853 368.054,414.865 368.02,414.877 C369.354,415.363 370.689,415.851 372.023,416.337 C372.611,417.338 371.991,414.843 371.91,414.092 C371.717,412.292 371.589,410.486 371.44,408.681 C371.082,404.318 370.244,400.149 369.223,395.89 C367.501,388.7 365.483,381.618 364.147,374.335 C362.871,367.378 362.182,360.328 360.718,353.403 C360.33,351.568 357.576,353.357 357.375,354.482 L357.375,354.482 Z" id="Shape"></path>
                    <path d="M331.537,407.548 C336.393,405.568 340.583,401.724 344.585,398.407 C349.458,394.368 354.218,390.192 359.094,386.155 C368.736,378.174 378.802,370.571 390.122,365.122 C394.082,363.217 393.886,356.542 388.641,357.979 C385.972,358.709 383.946,360.499 382.355,362.704 C381.087,364.46 381.542,366.779 383.979,366.781 C385.583,366.782 386.522,366.065 387.985,365.809 C387.847,363.357 387.71,360.904 387.572,358.452 C376.614,363.824 366.815,371.214 357.422,378.936 C352.501,382.982 347.717,387.192 342.926,391.387 C338.426,395.326 332.996,399.43 329.641,404.426 C328.627,405.932 329.292,408.462 331.537,407.548 L331.537,407.548 Z" id="Shape"></path>
                    <path d="M329.063,366.113 C331.782,370.405 338.428,372.982 342.831,375.159 C348.974,378.196 355.205,381.057 361.401,383.983 C373.172,389.54 384.915,395.743 394.807,404.302 C396.653,401.883 398.498,399.464 400.344,397.045 C398.04,396.75 396.094,396.032 393.758,395.929 C391.129,395.814 389.098,399.209 390.413,401.365 C391.842,403.709 393.785,404.88 396.488,405.225 C399.378,405.595 405.422,400.907 402.025,397.968 C391.982,389.278 380.287,383.055 368.317,377.452 C362.037,374.513 355.629,371.851 349.196,369.266 C343.573,367.006 336.822,363.44 330.673,363.495 C329.438,363.506 328.384,365.042 329.063,366.113 L329.063,366.113 Z" id="Shape"></path>
                    <path d="M99.918,351.73 C99.908,351.751 99.897,351.771 99.887,351.792 C99.755,352.289 99.838,353.009 100.23,353.385 C101.61,354.713 103.083,355.971 104.576,357.17 C106.211,358.483 108.956,359.973 110.06,361.542 C111.637,363.783 115.244,361.767 116.415,360.221 C117.824,358.363 117.864,355.44 115.204,354.799 C114.28,354.576 113.126,353.709 112.237,353.274 C110.942,352.637 109.623,352.056 108.307,351.462 C107.171,350.949 106.008,350.503 104.878,349.975 C104.538,349.816 104.204,349.648 103.872,349.476 C103.489,349.278 101.597,349.362 102.518,349.448 C101.358,349.339 99.721,350.38 99.918,351.73 L99.918,351.73 Z" id="Shape"></path>
                    <path d="M125.09,347.791 C123.307,349.135 121.89,351.016 120.428,352.696 C118.99,354.349 117.211,355.356 115.395,356.502 C113.887,357.453 112.537,359.035 112.637,360.934 C112.745,362.97 114.996,364.049 116.799,363.271 C120.106,361.842 122.712,359.451 124.877,356.596 C126.555,354.385 128.449,351.283 128.158,348.392 C127.984,346.658 126.074,347.048 125.09,347.791 L125.09,347.791 Z" id="Shape"></path>
                    <path d="M82.677,360.134 C81.087,362.536 80.59,365.375 80.218,368.197 C79.891,370.673 78.548,374.899 80.303,376.986 C81.983,378.984 85.467,377.458 86.643,375.67 C88.301,373.146 87.906,370.152 87.95,367.25 C87.99,364.627 88.235,361.548 86.7,359.299 C85.753,357.91 83.354,359.111 82.677,360.134 L82.677,360.134 Z" id="Shape"></path>
                    <path d="M66.129,386.417 C72.238,385.617 78.182,382.712 83.836,380.346 C85.835,379.509 87.798,377.766 87.671,375.383 C87.559,373.266 85.283,372.276 83.438,373.006 C77.396,375.397 71.199,378.47 65.894,382.216 C64.538,383.174 63.108,386.814 66.129,386.417 L66.129,386.417 Z" id="Shape"></path>
                    <path d="M69.595,415.588 C72.914,417.099 76.839,417.314 80.383,418.075 C84.408,418.941 86.916,421.372 90.947,419.517 C91.849,419.102 92.916,417.871 93.007,416.844 C93.026,416.627 93.045,416.411 93.064,416.196 C93.171,414.98 93.09,413.471 91.75,412.891 C85.423,410.158 77.305,409.806 70.781,412.138 C69.725,412.517 67.826,414.783 69.595,415.588 L69.595,415.588 Z" id="Shape"></path>
                    <path d="M92.526,417.826 C91.124,420.83 90.572,423.881 90.055,427.138 C89.809,428.686 89.599,430.237 89.405,431.791 C89.312,432.532 89.149,433.233 89.161,433.993 C89.165,434.298 89.588,436.631 89.341,434.634 C91.862,433.519 94.384,432.404 96.905,431.287 C96.8,431.007 96.646,430.748 96.447,430.514 C95.122,428.887 96.335,430.478 96.506,430.787 C95.789,429.488 94.468,429.016 93.053,429.469 C91.852,429.853 90.611,430.919 90.115,432.089 C90.783,430.511 89.468,433.518 89.42,433.7 C89.025,435.224 89.91,436.779 91.48,437.07 C93.642,437.471 95.756,435.881 96.681,434.039 C98.049,431.315 96.528,434.364 96.86,433.584 C97.22,432.74 97.406,431.77 97.281,430.852 C97.096,429.498 97.034,428.125 96.919,426.764 C96.776,425.086 96.774,423.406 96.61,421.731 C96.497,420.58 96.042,419.068 96.184,417.997 C96.518,415.459 93.287,416.197 92.526,417.826 L92.526,417.826 Z" id="Shape"></path>
                    <path d="M108.554,433.708 C110.641,432.089 112.542,430.327 114.84,428.995 C117.157,427.652 119.88,427.688 122.193,426.399 C123.96,425.415 126.278,421.63 123.5,420.302 C120.245,418.746 116.181,420.774 113.305,422.43 C109.673,424.521 106.404,427.743 104.544,431.51 C103.055,434.525 106.657,435.179 108.554,433.708 L108.554,433.708 Z" id="Shape"></path>
                    <path d="M121.579,424.703 C123.58,426.713 125.802,428.256 128.251,429.668 C130.919,431.206 133.26,433.523 136.227,434.406 C139.382,435.344 142.773,430.9 140.957,428.206 C139.361,425.836 135.502,424.668 132.853,423.934 C129.797,423.086 126.88,422.356 123.738,421.875 C122.528,421.689 120.374,423.493 121.579,424.703 L121.579,424.703 Z" id="Shape"></path>
                    <path d="M138.356,349.16 C137.112,352.999 137.112,356.939 137.413,360.93 C137.679,364.439 137.971,369.004 141.832,369.988 C143.432,370.395 145.294,369.002 145.908,367.613 C147.338,364.381 145.932,362.188 144.915,359.001 C143.768,355.407 143.094,351.583 141.601,348.116 C140.85,346.371 138.717,348.044 138.356,349.16 L138.356,349.16 Z" id="Shape"></path>
                    <path d="M141.865,369.919 C147.624,372.942 155.352,372.942 161.702,373.886 C165.771,374.49 170.27,367.096 165.255,366.351 C158.389,365.33 150.473,365.345 143.603,366.246 C142.243,366.424 139.887,368.88 141.865,369.919 L141.865,369.919 Z" id="Shape"></path>
                    <path d="M142.127,408.751 C141.377,411.502 141.555,414.391 141.67,417.207 C141.763,419.461 141.813,422.073 142.518,424.229 C143.911,428.485 150.666,424.231 150.28,420.796 C150.055,418.799 149.26,416.738 148.649,414.826 C147.857,412.351 147.215,409.837 146.323,407.398 C145.487,405.117 142.517,407.326 142.127,408.751 L142.127,408.751 Z" id="Shape"></path>
                    <path d="M150.227,410.294 C153.839,408.649 157.067,404.948 161.268,406.228 C163.951,407.044 168.283,402.572 165.882,400.179 C160.451,394.767 151.196,403.464 147.955,407.706 C146.49,409.625 148.276,411.183 150.227,410.294 L150.227,410.294 Z" id="Shape"></path>
                    <path d="M366.87,2.621 C364.535,4.231 362.853,6.309 361.187,8.582 C359.493,10.894 357.342,13.9 356.812,16.736 C355.955,21.317 361.469,20.193 363.38,17.975 C364.971,16.128 365.727,13.652 366.769,11.469 C367.886,9.127 369.183,6.805 369.852,4.286 C370.33,2.485 368.161,1.729 366.87,2.621 L366.87,2.621 Z" id="Shape"></path>
                    <path d="M346.135,14.61 C349.598,16.15 353.835,17.68 357.587,18.177 C359.219,18.393 360.793,17.566 361.772,16.276 C362.623,15.153 363.318,12.495 361.466,11.803 C357.125,10.182 351.719,9.869 347.279,11.282 C346.236,11.615 344.447,13.859 346.135,14.61 L346.135,14.61 Z" id="Shape"></path>
                    <path d="M337.085,22.5 C337.184,22.943 336.909,23.249 337.115,23.736 C337.348,24.289 337.621,24.804 337.907,25.332 C338.64,26.686 339.468,27.983 340.29,29.284 C341.106,30.576 341.96,31.844 342.792,33.125 C343.838,34.737 344.605,35.475 346.655,35.46 C348.671,35.445 350.226,33.592 350.775,31.844 C351.724,28.819 348.408,26.556 346.444,24.771 C345.46,23.876 344.453,23.001 343.437,22.143 C342.962,21.743 342.499,21.33 342.039,20.915 C341.404,20.343 340.761,20.278 340.1,19.852 C338.556,18.861 336.768,21.083 337.085,22.5 L337.085,22.5 Z" id="Shape"></path>
                    <path d="M345.186,30.842 C343.962,32.128 342.626,33.328 341.353,34.572 C339.932,35.961 338.274,37.544 336.649,38.68 C334.988,39.841 332.852,42.445 334.631,44.472 C336.281,46.352 339.463,44.92 340.637,43.224 C343.174,39.558 346.266,36.571 348.145,32.463 C349.085,30.406 346.549,29.41 345.186,30.842 L345.186,30.842 Z" id="Shape"></path>
                    <path d="M339.997,52.341 C338.767,51.574 340.132,52.633 340.375,52.804 C340.823,53.117 341.255,53.45 341.696,53.771 C342.74,54.53 343.915,55.098 345.037,55.732 C347.411,57.072 349.57,59.053 352.014,59.447 C354.374,59.827 356.968,57.595 356.87,55.185 C356.798,53.397 356.175,52.375 354.424,51.11 C353.134,50.177 351.515,49.664 350.028,49.143 C348.461,48.593 346.901,48.11 345.245,47.939 C344.534,47.866 343.813,47.875 343.099,47.866 C342.734,47.841 342.375,47.887 342.025,48.005 C341.107,48.397 341.109,48.409 342.032,48.042 C340.209,48.098 337.928,51.052 339.997,52.341 L339.997,52.341 Z" id="Shape"></path>
                    <path d="M352.026,57.783 C352.233,56.908 351.704,58.541 351.698,58.57 C351.602,59.037 351.508,59.505 351.412,59.972 C351.147,61.268 350.774,62.544 350.516,63.849 C350.127,65.828 349.274,69.043 350.143,70.918 C351.588,74.036 356.206,72.032 357.141,69.493 C358.651,65.388 356.514,60.652 355.434,56.685 C354.917,54.785 352.29,56.669 352.026,57.783 L352.026,57.783 Z" id="Shape"></path>
                    <path d="M383.879,6.742 C382.478,11.896 381.854,17.246 381.721,22.584 C381.7,23.445 382.28,24.386 383.047,24.767 C383.272,24.878 383.497,24.99 383.723,25.102 C384.832,25.652 386.411,25.258 387.25,24.368 C389.971,21.482 389.652,19.044 389.247,15.264 C388.892,11.946 388.405,8.8 387.385,5.613 C386.762,3.662 384.191,5.594 383.879,6.742 L383.879,6.742 Z" id="Shape"></path>
                    <path d="M384.752,22.338 C389.051,22.571 393.352,22.718 397.65,23.014 C401.344,23.268 406.504,22.014 405.353,17.215 C405.046,15.936 403.509,15.536 402.404,15.569 C396.776,15.74 390.798,16.423 385.555,18.587 C384.448,19.045 382.268,22.204 384.752,22.338 L384.752,22.338 Z" id="Shape"></path>
                    <path d="M374.177,55.618 C369.956,58.705 368.753,64.786 365.663,68.796 C364.318,70.54 364.172,73.673 366.863,74.173 C369.408,74.645 371.952,72.463 372.525,70.09 C373.097,67.719 374.16,65.402 374.997,63.112 C375.747,61.061 376.928,58.289 376.562,56.086 C376.344,54.762 375.002,55.015 374.177,55.618 L374.177,55.618 Z" id="Shape"></path>
                    <path d="M377.209,60.832 C379.384,61.175 381.659,61.243 383.732,62.041 C385.973,62.904 387.764,64.377 390.218,64.352 C392.662,64.327 395.389,61.295 394.464,58.843 C393.434,56.11 389.605,55.464 386.984,55.261 C383.691,55.005 380.443,55.246 377.529,56.924 C376.301,57.631 374.927,60.472 377.209,60.832 L377.209,60.832 Z" id="Shape"></path>
                    <path d="M391.232,41.343 C390.987,42.017 390.572,42.539 390.385,43.256 C390.187,44.016 390.032,44.764 389.907,45.538 C389.682,46.933 389.528,48.376 389.672,49.79 C389.831,51.363 390.572,53.174 392.413,53.281 C394.588,53.407 397.168,52.274 397.959,50.058 C398.426,48.751 398.572,47.187 397.143,46.399 C394.926,45.177 397.782,47.253 397.821,47.332 C397.467,46.625 397.211,46.318 396.569,45.86 C397.608,46.603 397.438,46.998 397.094,46.2 C396.922,45.8 396.813,45.369 396.696,44.95 C396.218,43.243 396.079,41.301 394.593,40.161 C394.812,40.41 395.031,40.659 395.249,40.908 C395.195,40.791 395.141,40.674 395.088,40.556 C394.298,38.837 391.741,39.946 391.232,41.343 L391.232,41.343 Z" id="Shape"></path>
                    <path d="M392.656,43.76 C394.969,43.76 396.544,39.622 393.543,39.622 C391.229,39.623 389.655,43.76 392.656,43.76 L392.656,43.76 Z" id="Shape"></path>
                    <path d="M395.918,41.577 C396.612,40.675 397.239,40.074 398.232,39.515 C398.068,39.607 399.338,39.287 398.753,39.382 C399.143,39.361 399.184,39.352 398.877,39.352 C399.259,39.389 399.642,39.399 400.023,39.383 C401.593,39.349 403.127,38.045 403.767,36.685 C404.446,35.243 404.108,33.159 402.245,32.888 C397.964,32.268 394.413,36.425 392.405,39.68 C391.841,40.596 391.394,42.017 392.61,42.676 C393.765,43.299 395.206,42.502 395.918,41.577 L395.918,41.577 Z" id="Shape"></path>
                    <path d="M349.405,351.866 C349.554,352.758 349.474,353.511 349.86,354.402 C350.276,355.361 350.902,356.045 351.649,356.757 C353.291,358.323 355.162,359.493 357.3,360.223 C358.971,360.793 361.099,359.304 362.032,358.073 C362.981,356.822 363.793,353.771 361.686,353.015 C360.044,352.425 358.411,351.967 356.843,351.183 C355.484,350.503 354.344,349.631 352.845,349.253 C353.15,349.42 353.454,349.587 353.758,349.754 C353.667,349.676 353.576,349.598 353.486,349.52 C352.015,348.255 349.073,349.883 349.405,351.866 L349.405,351.866 Z" id="Shape"></path>
                    <path d="M363.694,348.078 C363.018,349.101 362.35,350.119 361.647,351.124 C360.778,352.366 359.661,353.428 358.83,354.698 C358.055,355.883 357.433,357.535 358.517,358.769 C359.827,360.261 362.2,359.483 363.459,358.369 C366.365,355.8 366.614,352.285 367.741,348.842 C368.039,347.934 367.401,346.973 366.497,346.806 C365.476,346.616 364.258,347.226 363.694,348.078 L363.694,348.078 Z" id="Shape"></path>
                    <path d="M330.071,362.504 C331.334,363.483 332.394,364.251 332.831,365.851 C333.03,366.579 333.165,366.969 333.173,367.788 C333.178,368.304 333.228,368.999 333.406,369.466 C333.311,369.217 334.173,370.53 334.069,370.345 C335.236,372.421 337.794,371.483 339.024,369.944 C338.614,370.248 338.806,370.025 339.602,369.276 C339.887,368.882 340.147,368.472 340.38,368.046 C340.781,367.192 340.81,366.267 340.797,365.345 C340.778,363.936 339.901,362.462 339.109,361.369 C337.664,359.372 334.101,358.616 331.838,358.77 C330.133,358.886 328.429,361.232 330.071,362.504 L330.071,362.504 Z" id="Shape"></path>
                    <path d="M332.008,375.702 C337.069,375.429 343.168,372.027 346.189,367.951 C348.223,365.207 345.689,361.83 342.605,363.867 C340.776,365.074 339.256,366.641 337.58,368.046 C335.853,369.491 333.787,370.646 331.781,371.65 C330.059,372.511 329.345,375.845 332.008,375.702 L332.008,375.702 Z" id="Shape"></path>
                    <path d="M327.966,396.505 C329.348,397.573 331.023,398.351 332.492,399.321 C334.067,400.362 335.428,401.786 336.801,403.073 C339.572,405.671 344.216,401.284 342.347,398.206 C340.026,394.385 333.985,392.474 329.704,392.831 C328.042,392.971 326.336,395.244 327.966,396.505 L327.966,396.505 Z" id="Shape"></path>
                    <path d="M339.114,400.224 C338.284,404.694 336.569,408.902 335.522,413.321 C335.084,415.173 336.471,416.67 338.329,416.519 C340.351,416.355 342.169,414.695 342.63,412.745 C343.663,408.384 343.653,403.866 342.907,399.458 C342.515,397.148 339.428,398.532 339.114,400.224 L339.114,400.224 Z" id="Shape"></path>
                    <path d="M365.858,405.61 C362.087,406.185 358.083,408.648 355.224,411.117 C353.833,412.318 351.902,414.609 352.252,416.627 C352.76,419.556 354.856,420.352 357.455,419.6 C356.917,419.643 356.379,419.687 355.842,419.731 C357.79,419.904 359.375,419.514 360.671,417.955 C362.021,416.331 360.768,414.802 359.446,413.809 C359.76,414.167 360.075,414.526 360.39,414.884 C360.267,414.353 359.933,413.901 359.62,413.455 C359.819,413.967 360.018,414.477 360.218,414.989 C360.197,414.543 360.108,414.106 359.948,413.688 C360.11,414.116 359.678,415.333 359.921,414.804 C359.525,415.665 360.242,414.458 360.418,414.254 C360.12,414.6 361.175,413.55 361.312,413.424 C363.18,411.71 365.343,410.313 366.937,408.321 C367.734,407.326 367.505,405.359 365.858,405.61 L365.858,405.61 Z" id="Shape"></path>
                    <path d="M369.133,410.013 C369.819,410.78 370.896,411.183 371.754,411.748 C372.528,412.26 373.195,413.16 373.737,413.908 C374.883,415.487 374.839,417.834 376.294,419.201 C378.444,421.222 382.063,418.946 382.527,416.406 C383.597,410.554 375.977,405.319 370.671,406.805 C369.529,407.126 368.12,408.882 369.133,410.013 L369.133,410.013 Z" id="Shape"></path>
                    <path d="M381.015,355.687 C380.116,357.024 379.383,358.112 378.922,359.685 C378.365,361.581 377.766,363.479 377.846,365.48 C377.924,367.439 379.95,368.095 381.577,367.575 C383.517,366.955 384.865,365.214 384.958,363.201 C385.013,362.005 384.701,360.834 384.514,359.657 C384.366,358.726 384.136,357.222 384.358,356.318 C384.901,354.114 381.88,354.402 381.015,355.687 L381.015,355.687 Z" id="Shape"></path>
                    <path d="M384.76,373.259 C384.896,373.298 385.032,373.336 385.168,373.375 C384.894,373.225 384.619,373.074 384.346,372.924 C384.992,373.653 385.996,374.185 386.829,374.685 C387.962,375.365 388.791,376.063 390.14,376.314 C391.61,376.587 393.13,375.702 393.994,374.563 C394.699,373.633 395.293,371.859 394.277,370.892 C392.108,368.828 388.129,368.438 385.469,369.697 C385.828,369.582 386.187,369.467 386.545,369.351 C386.386,369.379 386.227,369.408 386.067,369.437 C385.116,369.608 384.289,370.123 383.864,371.025 C383.417,371.978 383.717,372.96 384.76,373.259 L384.76,373.259 Z" id="Shape"></path>
                    <path d="M395.7,387.481 C394.015,390.169 391.262,393.07 391.256,396.424 C391.25,399.033 394.751,398.65 396.044,397.362 C397.434,395.977 398.153,394.433 398.61,392.545 C398.907,391.32 398.91,389.923 399.327,388.743 C400.254,386.113 396.972,385.449 395.7,387.481 L395.7,387.481 Z" id="Shape"></path>
                    <path d="M385.367,404.224 C385.48,404.144 385.598,404.075 385.724,404.015 C385.277,404.16 384.829,404.303 384.382,404.447 C384.897,404.351 385.36,404.214 385.854,404.065 C386.173,403.98 386.145,403.99 385.769,404.093 C386.176,404.069 386.586,403.942 386.982,403.837 C388.159,403.524 389.264,403.077 390.189,402.256 C391.14,401.411 391.929,399.978 391.434,398.685 C390.788,397.001 388.865,397.326 387.582,397.911 C387.396,397.996 386.281,398.548 387.135,398.172 C386.582,398.415 386.02,398.626 385.477,398.894 C385.131,399.065 384.784,399.285 384.46,399.496 C383.956,399.826 383.424,400.204 383.065,400.7 C383.634,399.911 382.894,400.901 382.683,401.169 C382.066,401.955 381.729,403.238 382.459,404.071 C383.172,404.88 384.532,404.766 385.367,404.224 L385.367,404.224 Z" id="Shape"></path>
                    <path d="M61.979,151.271 C60.309,157.599 60.515,164.437 59.857,170.933 C59.219,177.224 58.592,183.51 58.248,189.826 C57.554,202.587 57.73,215.48 57.636,228.259 C57.589,234.456 57.355,240.893 58.451,247.016 C59.958,255.432 70.352,253.278 71.536,245.66 C72.295,240.782 66.734,240.197 63.819,242.91 C69.756,237.384 71.911,246.81 70.611,242.872 C70.749,243.289 70.35,241.226 70.302,240.87 C69.942,238.244 69.841,235.575 69.729,232.93 C69.423,225.78 69.52,218.613 69.395,211.458 C69.214,201.181 68.855,190.889 68.935,180.61 C68.975,175.477 69.165,170.348 69.178,165.214 C69.192,160.031 69.425,154.374 67.12,149.616 C65.862,147.017 62.494,149.325 61.979,151.271 L61.979,151.271 Z" id="Shape"></path>
                    <path d="M15.765,229.394 C23.778,226.001 30.254,218.941 36.901,213.46 C44.135,207.493 51.596,201.787 59.271,196.397 C75.042,185.322 91.817,175.717 109.446,167.925 C108.205,164.681 106.965,161.437 105.723,158.194 C102.202,160.065 99.503,161.984 97.474,165.48 C96.714,166.789 97.13,168.256 98.282,169.1 C101.803,171.681 105.993,169.523 109.446,167.926 C116.55,164.638 113.788,154.575 105.723,158.195 C88.092,166.11 71.506,176.054 55.77,187.246 C47.674,193.005 39.823,199.083 32.175,205.425 C25.267,211.154 16.475,217.318 12.302,225.448 C11.09,227.809 13.147,230.502 15.765,229.394 L15.765,229.394 Z" id="Shape"></path>
                    <path d="M15.47,158.058 C15.873,169.652 29.433,178.056 38.03,183.865 C46.686,189.714 54.915,195.921 63.199,202.274 C72.139,209.131 81.22,215.843 90.784,221.811 C96.925,225.642 107.239,232.988 114.85,229.962 C118.202,228.63 122.653,223.186 118.158,220.343 C115.799,218.851 112.743,218.434 110.166,217.301 C105.878,215.415 101.832,212.958 97.865,210.484 C88.976,204.937 80.502,198.712 72.13,192.422 C64.604,186.767 57.279,181.099 49.253,176.145 C43.942,172.867 38.614,169.597 33.627,165.835 C28.973,162.326 25.448,157.559 20.649,154.334 C18.445,152.854 15.396,155.914 15.47,158.058 L15.47,158.058 Z" id="Shape"></path>
                    <path d="M64.784,137.645 C64.303,137.734 63.823,137.831 63.345,137.935 C64.31,137.982 65.275,138.029 66.24,138.076 C66.228,138.067 66.216,138.059 66.204,138.051 C66.447,138.244 66.691,138.438 66.934,138.632 C66.271,138.09 66.123,137.866 65.251,137.705 C64.462,137.559 63.788,137.693 63.026,137.905 C62.836,137.958 62.647,138.02 62.462,138.088 C61.247,138.524 60.283,139.18 59.282,139.987 C58.136,140.911 57.065,142.239 56.44,143.58 C55.546,145.5 55.269,148.008 56.311,149.937 C57.196,151.579 58.354,152.826 60.007,153.744 C61.457,154.549 63.475,155.105 65.141,154.798 C65.634,154.707 66.455,154.611 67.018,154.37 C68.506,153.733 68.875,153.575 70.184,152.536 C71.732,151.307 72.525,149.62 73.132,147.806 C73.418,146.952 73.439,145.931 73.312,145.033 C73.208,144.293 73.047,143.551 72.833,142.834 C72.664,142.272 72.352,141.738 71.909,141.354 C71.079,140.633 70.774,140.346 69.674,140.113 C69.197,140.012 68.703,140.038 68.217,140.035 C69.338,140.435 70.459,140.834 71.58,141.234 C71.499,141.159 71.418,141.086 71.336,141.012 C70.786,140.41 70.109,140.039 69.306,139.899 C67.966,139.65 66.56,140.031 65.397,140.695 C63.412,141.828 61.626,144.098 61.784,146.501 C61.792,146.618 61.799,146.734 61.805,146.852 C61.99,145.988 62.175,145.123 62.36,144.259 C61.556,145.602 61.461,147.547 62.016,149.001 C62.128,149.297 62.219,149.602 62.287,149.912 C62.2,149.492 62.114,149.072 62.026,148.653 C62.094,148.987 62.13,149.324 62.106,149.666 C62.144,149.214 62.182,148.763 62.22,148.312 C62.203,148.495 62.168,148.672 62.11,148.846 C62.267,148.387 62.424,147.927 62.581,147.467 C62.542,147.575 62.493,147.678 62.435,147.778 C62.706,147.334 62.976,146.889 63.247,146.445 C63.188,146.538 63.124,146.624 63.05,146.706 C63.428,146.301 63.806,145.896 64.185,145.491 C64.11,145.569 64.03,145.639 63.942,145.703 C64.392,145.382 64.842,145.059 65.293,144.738 C65.189,144.81 65.081,144.871 64.966,144.924 C65.44,144.715 65.912,144.505 66.386,144.296 C66.234,144.361 66.076,144.409 65.914,144.445 C66.387,144.35 66.857,144.255 67.33,144.16 C66.988,144.227 66.636,144.246 66.289,144.231 C66.731,144.252 67.174,144.272 67.616,144.292 C67.075,144.262 66.547,144.146 66.035,143.97 C66.42,144.104 66.806,144.238 67.191,144.372 C66.535,144.139 65.918,143.811 65.373,143.378 C65.678,143.621 65.983,143.864 66.289,144.107 C65.904,143.794 65.562,143.434 65.3,143.012 C65.497,143.34 65.695,143.667 65.891,143.994 C65.709,143.69 65.575,143.367 65.502,143.019 C65.58,143.394 65.657,143.769 65.734,144.144 C65.691,143.909 65.675,143.674 65.691,143.436 C65.657,143.837 65.623,144.238 65.589,144.639 C65.614,144.338 65.689,144.052 65.783,143.766 C65.645,144.169 65.508,144.572 65.37,144.975 C65.46,144.722 65.574,144.482 65.711,144.25 C65.479,144.632 65.246,145.014 65.015,145.396 C65.23,145.044 65.484,144.724 65.765,144.422 C65.451,144.759 65.136,145.096 64.822,145.433 C65.325,144.908 65.823,144.385 66.275,143.817 C66.362,143.708 66.454,143.602 66.546,143.497 C67.342,142.588 67.53,141.482 67.612,140.335 C67.274,141.318 66.935,142.302 66.597,143.285 C66.844,143.01 67.271,142.582 66.111,143.803 C67.086,142.778 67.95,141.64 67.871,140.137 C67.786,138.604 66.342,137.356 64.784,137.645 L64.784,137.645 Z" id="Shape"></path>
                    <path d="M15.438,151.063 C11.542,153.087 8.769,156.888 8.528,161.29 C8.381,163.968 10.289,166.667 12.723,167.643 C16.354,169.097 20.091,168.247 23.119,165.85 C26.297,163.335 27.553,159.204 27.11,155.288 C26.752,152.127 24.033,151.399 21.311,152.033 C17.371,152.95 13.082,156.585 13.428,161.032 C13.567,162.82 14.682,164.001 16.394,164.413 C16.412,164.417 16.43,164.421 16.448,164.426 C15.507,163.353 14.565,162.28 13.623,161.207 C13.642,161.449 13.658,161.686 13.695,161.926 C14.388,166.463 20.204,165.419 22.196,162.339 C22.6,161.715 22.986,161.086 23.319,160.422 C21.876,161.689 20.433,162.954 18.99,164.221 C21.096,163.561 22.811,161.947 23.761,159.974 C23.799,159.894 23.837,159.815 23.875,159.736 C23.358,160.816 22.599,161.641 21.593,162.212 C22.628,161.473 20.232,162.624 21.856,162.088 C20.008,161.414 18.161,160.74 16.312,160.066 C16.021,158.748 16.268,160.113 16.287,160.418 C16.376,161.817 16.517,159.427 16.284,160.688 C16.043,161.988 16.856,159.503 16.285,160.602 C16.913,159.627 17.062,159.368 16.732,159.823 C16.178,160.57 17.977,158.601 17.287,159.206 C18.341,158.488 18.619,158.288 18.122,158.606 C17.713,158.865 16.942,159.051 18.81,158.324 C17.725,158.746 20.237,158.161 19.075,158.29 C17.955,158.414 20.349,158.458 19.226,158.316 C18.797,158.262 17.722,157.845 19.267,158.418 C18.978,158.311 18.708,158.16 18.448,157.998 C17.44,157.372 18.826,158.354 18.491,158.037 C18.175,157.737 17.693,156.815 18.427,158.131 C18.22,157.759 18.043,156.709 18.305,158.158 C18.285,158.026 18.272,157.893 18.266,157.759 C18.209,156.941 18.104,158.918 18.223,158.062 C18.279,157.658 18.419,157.272 18.549,156.888 C18.062,158.334 18.675,156.76 18.85,156.434 C17.993,158.024 20.25,154.239 19.407,155.587 C20.201,154.318 20.894,152.613 19.737,151.295 C18.617,150.016 16.759,150.377 15.438,151.063 L15.438,151.063 Z" id="Shape"></path>
                    <path d="M17.518,218.081 C14.717,217.291 11.326,219.288 9.873,221.641 C8.111,224.493 8.054,227.747 8.748,230.963 C9.346,233.73 12.898,234.039 15.121,234.13 C17.723,234.236 20.849,233.276 22.978,231.806 C26.395,229.448 28.53,226.186 28.179,221.92 C27.886,218.345 25.183,215.55 21.429,216.142 C18.206,216.65 15.378,218.475 13.164,220.825 C10.621,223.524 7.537,227.299 8.931,231.284 C10.12,234.687 14.513,233.299 16.504,231.686 C16.644,231.575 16.781,231.462 16.917,231.347 C17.282,230.955 17.647,230.565 18.013,230.173 C17.242,230.974 17.087,231.143 17.547,230.679 C18.375,229.855 19.122,228.945 19.812,228.001 C20.033,227.699 20.266,227.409 20.503,227.12 C21.384,226.047 19.354,228.278 20.319,227.304 C20.569,227.052 20.837,226.82 21.105,226.589 C22.092,225.742 19.709,227.497 20.751,226.835 C21.321,226.522 21.083,226.61 20.038,227.101 C20.986,226.688 18.556,227.26 19.509,227.182 C18.504,227.265 17.752,227.026 17.016,226.347 C17.658,226.939 16.501,225.211 16.889,226.165 C17.304,227.186 16.771,225.046 16.921,226.392 C16.931,226.55 16.941,226.708 16.95,226.866 C16.937,226.273 17.07,225.715 17.348,225.188 C17.311,225.269 17.273,225.349 17.236,225.429 C17.528,224.781 17.947,224.227 18.493,223.769 C17.685,224.597 19.876,222.898 18.859,223.543 C17.538,224.382 19.979,223.205 18.458,223.731 C18.144,223.839 17.819,223.919 17.497,223.998 C19.005,223.629 17.954,223.898 17.598,223.948 C17.306,223.989 17.011,224.002 16.716,224.013 C15.714,224.052 17.871,224.134 16.968,224.006 C16.138,223.888 17.996,224.481 17.343,224.149 C17.564,224.326 17.783,224.502 18.004,224.678 C18.39,225.503 18.528,225.712 18.419,225.304 C18.22,224.457 17.86,223.636 17.634,222.794 C18.059,224.367 17.226,220.9 17.597,222.693 C17.522,222.328 17.667,221.69 17.504,222.854 C17.427,223.063 17.349,223.271 17.272,223.479 C17.462,223.079 17.385,223.18 17.039,223.784 C17.362,223.266 17.615,222.858 17.855,222.333 C18.21,221.557 18.549,220.747 18.626,219.894 C18.707,218.988 18.449,218.343 17.518,218.081 L17.518,218.081 Z" id="Shape"></path>
                    <path d="M66.426,242.628 C66.325,242.564 66.225,242.499 66.124,242.435 C66.449,242.97 66.773,243.504 67.099,244.039 C67.192,242.585 65.758,241.683 64.584,241.143 C63.11,240.465 61.672,240.374 60.102,240.76 C56.706,241.596 54.523,244.629 52.523,247.237 C50.66,249.667 50.353,252.512 52.005,255.068 C52.95,256.531 55.129,257.217 56.672,257.686 C60.718,258.913 65.385,258.241 68.708,255.614 C71.163,253.674 72.466,250.364 71.463,247.35 C70.69,245.028 68.296,243.329 66.474,241.924 C64.912,240.722 62.285,241.611 60.796,242.384 C56.644,244.539 54.418,249.352 57.031,253.461 C58.024,255.023 60.623,254.931 62.108,254.456 C64.461,253.703 67.108,251.398 67.429,248.799 C67.503,248.233 67.555,247.665 67.585,247.095 C67.305,244.326 67.712,249.581 64.371,251.734 C62.478,251.887 60.586,252.041 58.693,252.194 C59.012,252.383 59.328,252.576 59.641,252.774 C59.932,252.96 61.154,253.888 59.887,252.874 C60.345,253.241 60.756,253.685 61.092,254.166 C60.235,252.935 60.555,253.212 60.726,253.633 C60.872,254.091 60.815,253.797 60.559,252.751 C60.591,253.247 60.628,252.909 60.67,251.736 C60.836,250.124 62.598,248.508 63.617,247.882 C62.828,248.368 65.456,247.276 63.913,247.69 C63.126,247.902 65.622,247.4 64.465,247.571 C64.217,247.608 63.966,247.628 63.716,247.646 C63.223,247.681 61.474,247.594 63.458,247.705 C62.929,247.676 62.402,247.602 61.881,247.508 C61.416,247.423 59.846,246.908 61.61,247.526 C61.208,247.385 60.824,247.196 60.467,246.963 C59.888,246.584 61.487,247.797 60.976,247.363 C60.653,247.09 60.346,246.378 61.214,247.903 C60.815,247.201 61.36,249.12 61.312,248.53 C61.184,249.59 61.16,249.888 61.24,249.429 C60.843,250.49 60.742,250.787 60.938,250.323 C60.96,250.279 60.983,250.234 61.005,250.19 C60.185,251.55 60.241,251.459 61.177,249.918 C61.48,249.34 61.796,248.771 62.107,248.196 C62.228,247.962 62.355,247.73 62.488,247.502 C62.094,248.135 62.049,248.23 62.351,247.785 C62.923,246.971 61.335,248.681 62.342,247.779 C61.574,248.289 61.415,248.414 61.863,248.154 C62.271,247.933 62.129,247.985 61.436,248.308 C62.434,247.906 61.035,248.333 61.794,248.187 C63.289,247.898 64.573,247.906 65.785,246.77 C65.058,247.095 64.332,247.421 63.606,247.747 C63.74,247.742 63.874,247.736 64.007,247.731 C66.185,247.644 68.866,244.187 66.426,242.628 L66.426,242.628 Z" id="Shape"></path>
                    <path d="M114.968,216.125 C114.492,216.02 114.025,216.009 113.546,216.089 C113.08,216.116 112.642,216.234 112.231,216.441 C112.953,216.325 112.712,216.379 111.508,216.604 C109.535,217.235 108.098,218.65 106.759,220.156 C104.47,222.729 103.821,226.473 104.243,229.773 C104.556,232.217 106.186,233.116 108.484,233.194 C112.497,233.329 116.925,232.183 119.754,229.156 C121.593,227.188 122.66,225.249 123.525,222.712 C123.754,222.04 123.875,221.331 123.986,220.631 C124.061,220.154 124.099,219.672 124.14,219.192 C124.178,218.733 124.217,218.274 124.256,217.815 C124.205,218.332 124.211,218.26 124.276,217.601 C124.472,215.54 123.855,212.67 121.186,212.544 C117.382,212.363 114.599,213.349 111.584,215.662 C109.355,217.37 106.346,221.197 106.791,224.132 C107.112,226.246 108.746,227.977 111.076,227.588 C113.992,227.101 115.9,225.566 117.751,223.398 C119.016,221.917 117.183,223.856 118.073,223.057 C117.68,223.423 117.226,223.674 116.711,223.811 C116.854,223.749 118.331,223.528 117.388,223.646 C115.85,222.406 114.313,221.166 112.775,219.925 C112.82,220.446 112.845,220.953 112.835,221.477 C112.8,222.114 112.808,222.132 112.861,221.534 C112.832,221.828 112.794,222.12 112.748,222.411 C112.697,222.765 112.193,224.525 112.735,222.946 C112.567,223.435 111.705,224.695 112.737,223.164 C112.325,223.685 112.482,223.534 113.21,222.712 C112.712,223.142 112.892,223.033 113.751,222.388 C112.446,223.301 114.478,222.203 113.487,222.555 C113.225,222.641 112.961,222.715 112.693,222.779 C113.372,222.65 113.391,222.635 112.753,222.737 C112.065,222.836 111.378,222.892 110.685,222.931 C112.017,223.674 113.348,224.417 114.679,225.16 C114.551,224.601 114.556,223.999 114.503,223.431 C114.507,222.846 114.489,222.789 114.449,223.261 C114.582,222.706 114.555,222.698 114.369,223.238 C114.466,222.984 114.581,222.739 114.713,222.502 C114.28,223.273 114.425,223.049 115.147,221.827 C115.488,221.185 115.738,220.562 115.953,219.858 C115.65,220.501 115.347,221.143 115.043,221.785 C115.656,220.783 116.308,219.985 116.613,218.819 C116.939,217.565 116.208,216.4 114.968,216.125 L114.968,216.125 Z" id="Shape"></path>
                    <path d="M105.134,158.368 C102.751,161.053 102.271,164.818 104.149,167.849 C104.569,168.525 105.11,169.088 105.651,169.666 C105.93,169.964 106.212,170.257 106.462,170.58 C106.061,169.848 105.964,169.698 106.173,170.129 C106.536,170.91 106.071,168.921 106.079,169.826 C106.1,172.173 108.303,173.527 110.451,173.353 C113.208,173.129 116.702,170.583 116.979,167.624 C116.996,167.441 117.036,167.269 117.084,167.092 C117.293,166.331 116.48,168.722 116.943,167.549 C117.179,166.951 117.445,166.363 117.701,165.773 C118.327,164.33 119.089,162.825 119.317,161.261 C119.847,157.63 117.877,155.322 114.186,155.267 C112.762,155.246 111.166,156.043 109.98,156.736 C109.188,157.198 108.371,157.831 107.665,158.357 C107.059,158.778 106.539,159.297 106.108,159.916 C106.081,159.952 103.927,164.535 104.99,162.031 C103.828,164.77 104.98,168.908 108.758,168.195 C110.955,167.781 112.421,167.247 114.239,165.849 C112.621,167.093 113.443,166.412 113.876,166.15 C114.799,165.591 112.248,166.754 113.107,166.486 C111.181,167.086 108.736,166.513 107.858,164.568 C107.376,163.498 107.646,163.124 107.645,163.768 C107.648,161.726 107.698,163.026 107.541,163.68 C107.04,165.768 106.081,167.632 106.078,169.826 C109.748,168.649 113.42,167.472 117.09,166.296 C116.819,163.685 115.357,162.157 113.259,160.754 C112.995,160.577 112.026,159.794 113.108,160.693 C112.835,160.465 112.605,160.198 112.391,159.915 C111.999,159.398 112.696,160.797 112.308,159.674 C112.66,160.693 112.254,159.024 112.204,158.712 C111.555,154.624 107.034,156.227 105.134,158.368 L105.134,158.368 Z" id="Shape"></path>
                    <path d="M1.249,175.241 C7.767,180.492 19.32,181.028 26.787,177.791 C28.813,176.913 30.817,175.187 30.686,172.745 C30.537,169.915 27.304,169.649 25.334,170.791 C18.923,174.51 10.762,171.19 3.91,170.917 C2.346,170.855 -0.493,173.837 1.249,175.241 L1.249,175.241 Z" id="Shape"></path>
                    <path d="M30.092,145.859 C31.081,153.44 33.579,160.405 31.866,168.122 C31.572,169.445 32.018,170.669 33.169,171.395 C33.315,171.487 33.461,171.579 33.607,171.671 C34.464,172.213 35.686,171.885 36.494,171.437 C41.291,168.771 40.475,162.838 39.951,158.113 C39.385,153.019 37.892,147.299 34.674,143.227 C33.194,141.354 29.842,143.938 30.092,145.859 L30.092,145.859 Z" id="Shape"></path>
                    <path d="M4.333,208.717 C8.716,209.451 13.34,209.271 17.777,209.693 C22.092,210.103 26.046,211.839 30.214,212.409 C33.202,212.818 37.894,208.771 35.284,205.763 C32.606,202.675 26.502,202.575 22.747,202.268 C17.134,201.809 10.837,201.688 5.447,203.516 C3.603,204.141 1.08,208.172 4.333,208.717 L4.333,208.717 Z" id="Shape"></path>
                    <path d="M32.692,212.213 C32.028,216.304 31.712,220.353 31.628,224.498 C31.577,227.019 30.175,234.155 33.128,235.416 C35.07,236.245 36.943,235.215 38.218,233.726 C40.519,231.036 38.913,226.41 38.512,223.242 C38.007,219.254 37.268,215.381 36.518,211.441 C36.082,209.156 32.976,210.458 32.692,212.213 L32.692,212.213 Z" id="Shape"></path>
                    <path d="M42.162,249.913 C46.583,245.021 49.317,237.428 56.937,237.014 C61.382,236.773 64.541,229.166 58.661,228.967 C53.237,228.782 48.026,232.592 44.452,236.309 C41.391,239.493 36.876,245.476 38.58,250.204 C39.206,251.94 41.383,250.775 42.162,249.913 L42.162,249.913 Z" id="Shape"></path>
                    <path d="M63.045,234.092 C67.525,237.292 71.492,240.671 75.341,244.611 C76.553,245.851 77.824,247.036 79.059,248.256 C79.688,248.878 80.298,249.518 80.888,250.177 C81.498,250.859 81.493,252.376 81.115,249.957 C81.453,248.974 81.791,247.99 82.129,247.006 C82.099,247.044 82.069,247.081 82.039,247.119 C82.984,246.438 83.931,245.759 84.876,245.079 C86.253,244.733 84.074,245.041 84.096,245.037 C81.48,245.541 78.739,248.23 80.458,250.946 C82.308,253.866 86.458,252.636 88.229,250.302 C90.557,247.231 88.462,244.989 86.164,242.989 C80.032,237.656 73.855,231.45 65.626,229.853 C63.54,229.45 60.918,232.574 63.045,234.092 L63.045,234.092 Z" id="Shape"></path>
                    <path d="M40.592,140.221 C38.784,150.616 48.895,163.671 58.889,165.895 C63.273,166.87 67.538,158.668 62.551,158.127 C53.254,157.118 48.463,146.011 44.525,138.954 C43.518,137.152 40.882,138.551 40.592,140.221 L40.592,140.221 Z" id="Shape"></path>
                    <path d="M77.218,142.805 C75.496,146.148 74.385,149.508 72.005,152.498 C69.819,155.244 66.537,156.91 63.377,158.235 C61.294,159.109 59.248,160.923 59.38,163.407 C59.499,165.638 61.861,166.61 63.791,165.884 C68.979,163.931 73.391,160.611 76.872,156.317 C79.713,152.813 82.624,146.568 80.039,142.231 C79.306,141 77.748,141.778 77.218,142.805 L77.218,142.805 Z" id="Shape"></path>
                    <path d="M98.486,144.241 C89.504,146.88 85.456,158.567 90.095,166.539 C92.587,170.821 100.001,166.032 98.087,161.984 C95.668,156.866 95.578,151.635 99.678,147.308 C100.883,146.035 100.813,143.557 98.486,144.241 L98.486,144.241 Z" id="Shape"></path>
                    <path d="M92.126,168.527 C91.465,178.475 101.839,184.869 110.742,184.985 C115.141,185.043 118.111,177.354 112.426,177.133 C104.569,176.828 99.53,172.909 94.807,166.987 C93.84,165.775 92.194,167.508 92.126,168.527 L92.126,168.527 Z" id="Shape"></path>
                    <path d="M88.233,216.808 C85.512,221.286 84.967,225.487 85.78,230.698 C86.171,233.199 87.035,235.598 88.034,237.912 C88.565,239.142 90.413,241.165 90.439,242.48 C90.543,247.782 98.815,244.122 98.73,239.822 C98.702,238.355 98.171,237.39 97.37,236.199 C95.851,233.943 92.385,236.519 91.609,238.089 C90.882,239.563 90.471,240.825 90.439,242.481 C90.336,247.745 98.647,244.099 98.73,239.823 C98.798,236.337 95.028,233.289 93.543,230.173 C91.737,226.383 90.423,221.177 91.063,216.942 C91.375,214.869 88.891,215.725 88.233,216.808 L88.233,216.808 Z" id="Shape"></path>
                    <path d="M94.586,216.202 C99.608,212.234 105.052,209.28 111.684,209.751 C115.666,210.034 120.774,202.857 115.366,201.938 C109.698,200.974 104.012,202.873 99.186,205.771 C96.04,207.659 91.133,211.468 91.753,215.648 C91.984,217.196 93.638,216.95 94.586,216.202 L94.586,216.202 Z" id="Shape"></path>
                    <path d="M217.469,206.717 C215.74,211.248 215.928,216.694 215.788,221.482 C215.627,227.005 215.501,232.529 215.123,238.044 C214.762,243.328 210.244,265.209 221.097,261.941 C226.178,260.411 227.29,255.592 226.727,251.011 C226.131,246.18 226.18,241.235 226.044,236.376 C225.901,231.307 225.612,226.245 225.462,221.176 C225.321,216.424 226.031,209.806 223.901,205.407 C222.525,202.563 218.367,204.366 217.469,206.717 L217.469,206.717 Z" id="Shape"></path>
                    <path d="M195.179,217.431 C196.416,221.094 199.709,223.317 202.67,225.562 C206.77,228.67 211.299,231.312 215.675,234.003 C223.647,238.906 231.824,243.971 240.321,247.925 C245.002,250.105 252.16,242.104 246.913,239.222 C239.074,234.917 230.978,231.093 223.171,226.708 C219.067,224.403 215.021,222 211.024,219.515 C207.242,217.164 203.258,214.152 198.714,213.664 C196.809,213.46 194.485,215.377 195.179,217.431 L195.179,217.431 Z" id="Shape"></path>
                    <path d="M193.695,250.099 C202.196,246.815 209.751,239.499 217.336,234.515 C225.214,229.337 233.16,223.8 241.348,219.141 C243.743,217.778 246.035,214.614 244.933,211.738 C243.566,208.17 238.828,209.343 236.644,211.298 C229.297,217.873 219.733,222.55 211.601,228.113 C204.434,233.015 193.983,239.36 191.39,248.238 C190.978,249.643 192.473,250.571 193.695,250.099 L193.695,250.099 Z" id="Shape"></path>
                    <path d="M188.648,244.389 C188.784,246.353 190.716,247.985 191.887,249.443 C193.459,251.4 195.106,254.805 197.864,254.998 C201.354,255.24 205.116,252.934 205.79,249.283 C206.182,247.163 205.696,245.445 204.076,244.047 C202.891,243.026 201.6,241.964 200.207,241.234 C197.491,239.81 194.11,238.603 191.226,240.249 C189.813,241.054 188.53,242.678 188.648,244.389 L188.648,244.389 Z" id="Shape"></path>
                    <path d="M198.508,209.248 C197.513,209.691 196.705,210.429 195.89,211.137 C195.316,211.636 194.826,212.22 194.315,212.783 C195.452,211.53 194.536,212.492 194.263,212.733 C192.25,214.511 189.6,216.269 189.247,219.183 C188.983,221.362 189.738,222.669 191.811,223.38 C195.275,224.568 199.429,220.713 201.234,218.262 C202.806,216.124 205.084,211.772 202.543,209.465 C201.294,208.328 199.93,208.614 198.508,209.248 L198.508,209.248 Z" id="Shape"></path>
                    <path d="M214.39,204.863 C215.292,205.893 216.362,206.377 217.6,206.887 C219.081,207.497 220.315,208.44 221.929,208.772 C225.93,209.595 230.675,204.931 229.302,200.915 C228.52,198.628 226.157,197.379 223.863,197.212 C222.346,197.102 221.295,197.262 219.796,197.566 C219.404,197.646 219.024,197.752 218.644,197.874 C218.13,198.093 217.621,198.317 217.112,198.547 C215.918,199.411 215.688,199.571 216.424,199.026 C214.726,200.17 212.614,202.835 214.39,204.863 L214.39,204.863 Z" id="Shape"></path>
                    <path d="M236.554,209.719 C237.785,211.324 239.248,213.547 239.883,214.89 C240.186,215.532 240.634,216.091 241.034,216.672 C240.741,216.144 240.902,216.408 241.52,217.464 C241.843,217.881 242.234,218.228 242.693,218.504 C244.879,219.688 247.591,218.736 249.089,216.99 C251.666,213.983 251.317,210.256 248.893,207.321 C246.865,204.865 244.277,203.923 241.203,203.627 C238.354,203.353 234.321,206.806 236.554,209.719 L236.554,209.719 Z" id="Shape"></path>
                    <path d="M210.356,262.002 C215.797,265.421 221.985,268.646 228.558,266.029 C232.088,264.624 236.709,257.731 230.655,256.246 C225.36,254.947 219.512,256.852 214.091,255.866 C211.193,255.339 207.083,259.946 210.356,262.002 L210.356,262.002 Z" id="Shape"></path>
                    <path d="M245.494,235.39 C246.221,234.807 246.007,235.074 244.853,236.188 C244.288,236.933 244.079,237.558 243.77,238.378 C243.637,238.71 243.485,239.033 243.314,239.348 C244.031,237.933 242.767,240.253 242.536,240.714 C242.205,241.323 242.221,241.302 242.581,240.651 C242.072,241.408 241.598,241.903 241.149,242.783 C240.496,244.063 241.903,241.88 240.881,243.021 C240.252,243.723 239.743,244.911 239.654,245.847 C239.474,247.745 240.025,249.74 242.238,250.076 C243.234,250.226 244.092,250.209 245.063,249.899 C245.218,249.849 249.348,247.384 247.568,248.498 C249.61,247.221 250.959,245.531 252.123,243.463 C253.007,241.893 253.381,240.313 253.482,238.525 C253.518,237.875 253.513,237.253 253.431,236.606 C253.398,235.836 253.134,235.159 252.639,234.571 C251.669,233.876 251.468,233.696 252.036,234.031 C250.323,232.005 246.667,233.5 245.494,235.39 L245.494,235.39 Z" id="Shape"></path>
                </g>
            </g>
        </g>
    </g>
</svg>