<?xml version="1.0" encoding="UTF-8" standalone="no"?><!DOCTYPE svg PUBLIC "-//W3C//DTD SVG 1.1//EN" "http://www.w3.org/Graphics/SVG/1.1/DTD/svg11.dtd"><svg width="100%" height="100%" viewBox="0 0 533 344" version="1.1" xmlns="http://www.w3.org/2000/svg" xmlns:xlink="http://www.w3.org/1999/xlink" xml:space="preserve" style="fill-rule:evenodd;clip-rule:evenodd;stroke-linejoin:round;stroke-miterlimit:1.41421;"><g id="sound"><path d="M1.509,170.127c8.987,1.275 17.894,2.76 26.998,2.523c7.864,-0.205 16.978,-1.512 22.432,-7.758c4.911,-5.626 9.181,-12.944 11.721,-19.95c2.798,-7.716 5.087,-16.308 9.787,-23.136c-3.562,0.288 -7.122,0.576 -10.684,0.865c3.942,8.622 5.044,17.541 5.989,26.9c1.061,10.5 2.242,20.97 3.104,31.492c1.545,18.865 2.663,39.225 11.102,56.516c3.416,6.998 12.034,1.757 14.682,-2.99c28.975,-51.965 24.297,-114.366 41.462,-169.999c-5.592,1.13 -11.184,2.26 -16.775,3.39c1.252,22.267 5.398,44.249 6.483,66.529c0.543,11.143 0.314,22.315 0.372,33.467c0.062,11.887 0.718,23.77 1.17,35.646c0.821,21.559 1.694,43.078 1.249,64.656c-0.395,19.057 -0.108,37.549 5.884,55.828c1.212,3.696 5.755,4.279 8.938,3.262c4.157,-1.33 7.092,-4.708 8.289,-8.813c7.396,-25.349 11.168,-51.549 14.551,-77.682c3.621,-27.979 7.395,-55.763 12.77,-83.472c5.453,-28.111 11.686,-56.063 17.427,-84.116c2.855,-13.951 5.309,-27.902 7.629,-41.946c0.915,-5.544 3.091,-10.337 4.832,-15.661c1.585,-4.844 2.168,-10.024 -2.58,-13.231c-7.801,-5.269 -20.695,9.651 -11.842,15.631c0.138,0.093 0.275,0.186 0.413,0.278c-0.866,-0.986 -1.732,-1.973 -2.598,-2.96c-0.813,-1.422 0.292,-1.711 -0.566,0.698c-0.756,2.123 -1.631,4.205 -2.439,6.308c-2.462,6.408 -3.197,13.241 -4.191,19.997c-2.057,13.978 -5.208,27.838 -8.076,41.668c-5.557,26.8 -11.436,53.532 -16.577,80.416c-5.054,26.422 -8.456,52.967 -11.904,79.631c-3.3,25.522 -7.085,51.103 -14.304,75.855c5.742,-1.851 11.484,-3.701 17.228,-5.551c-5.712,-17.415 -5.409,-35.26 -5.038,-53.396c0.445,-21.694 -0.532,-43.349 -1.361,-65.022c-0.855,-22.395 -0.546,-44.817 -1.478,-67.197c-0.927,-22.256 -5.476,-44.099 -7.332,-66.258c-0.3,-3.589 -3.216,-5.712 -6.729,-5.427c-4.871,0.395 -8.768,4.276 -10.047,8.816c-7.796,27.672 -11.16,56.294 -15.647,84.618c-4.416,27.867 -9.676,56.408 -23.43,81.383c4.895,-0.996 9.787,-1.993 14.682,-2.99c-8.543,-17.21 -9.225,-37.187 -10.679,-55.987c-1.544,-19.961 -4.147,-38.785 -12.701,-57.104c-2.119,-4.537 -8.423,-2.464 -10.684,0.865c-4.241,6.244 -6.804,13.189 -9.22,20.291c-2.313,6.801 -3.62,14.107 -6.541,20.652c-3.145,7.045 -10.324,7.609 -17.35,8.355c-8.979,0.954 -18.134,0.718 -27.137,0.359c-1.755,-0.067 -3.606,3.421 -1.284,3.751Z" style="fill:#010101;fill-rule:nonzero;"/><path d="M200.749,5.637c-1.727,13.377 -0.486,26.705 1.854,39.945c2.523,14.279 4.479,28.354 5.658,42.808c2.452,30.042 5.757,60.013 9.571,89.911c3.548,27.803 5.825,55.582 8.33,83.489c2.347,26.155 5.626,53.477 15.452,78.026c3.405,8.508 14.8,0.62 16.189,-5.217c5.383,-22.627 7.484,-45.765 9.58,-68.877c1.058,-11.67 2.184,-23.326 3.707,-34.947c1.531,-11.672 3.753,-23.226 5.079,-34.93c2.707,-23.899 3.2,-47.979 4.19,-71.99c0.945,-22.912 0.589,-46.648 4.762,-69.244c-5.424,1.096 -10.849,2.191 -16.273,3.287c0.83,35.896 9.827,70.695 15.16,106.033c4.714,31.243 4.684,65.158 19.508,93.828c3.9,7.546 14.855,1.454 15.991,-5.152c2.802,-16.289 4.183,-32.759 5.836,-49.191c1.38,-13.719 3.905,-27.297 5.166,-41.014c1.018,-11.069 1.578,-22.174 2.962,-33.209c0.632,-5.046 1.484,-10.068 2.739,-14.998c0.539,-2.115 0.991,-3.429 1.853,-5.391c0.048,-0.107 1.361,-2.576 0.408,-1.014c0.509,-0.834 1.133,-1.583 1.788,-2.303c-4.517,0.365 -9.032,0.731 -13.549,1.098c3.298,12.674 2.199,26.211 3.456,39.158c0.893,9.198 1.075,18.518 2.957,27.604c0.695,3.353 1.368,7.169 4.733,8.811c2.43,1.185 5.552,0.514 7.846,-0.67c1.183,-0.61 2.232,-1.356 3.301,-2.157c1.216,-0.912 3.596,-0.713 5.076,-0.916c6.763,-0.927 13.361,-1.615 20.063,-3.104c7.833,-1.738 15.589,-3.397 23.653,-3.289c2.58,0.035 5.255,-5.254 1.878,-5.488c-13.185,-0.91 -25.679,3.193 -38.719,4.137c-3.687,0.268 -6.849,-1.111 -10.378,-1.187c-2.074,-0.044 -4.056,0.779 -6.021,1.354c2.109,-0.617 2.789,3.176 1.997,0.561c-0.113,-0.377 -0.221,-1.394 -0.271,-1.774c-0.287,-2.167 -0.395,-4.351 -0.519,-6.529c-0.507,-8.863 -1.03,-17.816 -1.301,-26.677c-0.396,-12.944 0.595,-25.785 -2.586,-38.479c-1.739,-6.94 -10.953,-1.719 -13.549,1.098c-6.378,6.92 -8.363,17.569 -9.845,26.526c-1.904,11.507 -2.537,23.198 -3.524,34.807c-1.153,13.568 -3.733,26.966 -5.229,40.503c-1.956,17.709 -3.387,35.475 -6.427,53.045c5.331,-1.718 10.661,-3.436 15.991,-5.152c-14.251,-27.642 -14.146,-60.063 -18.645,-90.172c-5.278,-35.335 -14.426,-70.087 -15.359,-105.967c-0.266,-10.18 -15.025,-3.577 -16.273,3.287c-4.134,22.729 -3.768,46.426 -4.792,69.451c-1.065,23.936 -1.394,47.925 -3.954,71.768c-1.258,11.706 -3.483,23.263 -5.047,34.927c-1.559,11.618 -2.682,23.3 -3.87,34.96c-2.352,23.076 -4.622,46.289 -9.956,68.906c5.396,-1.738 10.793,-3.478 16.189,-5.217c-9.821,-24.376 -13.621,-49.651 -16.055,-75.682c-2.55,-27.281 -4.904,-54.422 -8.537,-81.59c-3.904,-29.192 -7.24,-58.462 -9.857,-87.799c-1.23,-13.79 -2.807,-27.156 -5.635,-40.723c-2.844,-13.65 -6.259,-27.23 -7.463,-41.158c-0.491,-5.682 -8.756,-2.247 -9.289,1.879Z" style="fill:#010101;fill-rule:nonzero;"/><path d="M187.328,105.604c5.743,-9.533 7.956,-20.444 14.815,-29.392c0.702,-0.917 1.496,-1.718 2.424,-2.591c0.71,-0.667 3.905,-2.69 1.67,-1.709c1.245,-0.547 -1.488,0.277 -2.031,-0.797c1.021,2.021 0.962,4.427 1.041,6.627c4.737,-2.723 9.475,-5.443 14.211,-8.166c-1.716,-2.342 -3.281,-4.3 -5.669,-5.999c-1.946,-1.385 -4.903,-0.391 -6.753,0.548c-7.552,3.827 -4.527,11.766 -0.539,16.826c4.738,6.012 14.607,-2.354 14.211,-8.166c-0.408,-5.997 -1.568,-13.803 -8.654,-15.11c-6.338,-1.169 -11.791,4.103 -15.554,8.428c-8.768,10.076 -14.466,26.688 -13.022,39.813c0.267,2.432 3.11,0.914 3.85,-0.312Z" style="fill:#010101;fill-rule:nonzero;"/><path d="M204.656,40.708c-3.111,6.63 -3.251,14.136 -5.482,21.056c4.158,-0.84 8.315,-1.68 12.474,-2.52c-0.727,-7.727 -0.46,-15.36 -0.435,-23.105c0.025,-7.594 -10.788,-3.382 -12.565,1.018c-3.351,8.297 -4.796,16.901 -6.076,25.71c5.008,-1.012 10.016,-2.023 15.023,-3.035c0.323,-6.341 0.171,-12.712 0.184,-19.06c0.02,-9.384 -14.516,-3.664 -15.387,3.109c-0.851,6.605 -1.625,13.219 -1.72,19.886c5.205,-1.669 10.41,-3.337 15.615,-5.006c0.032,-5.931 2.11,-15.896 -4.209,-19.248c-2.836,-1.504 -5.815,0.517 -7.672,2.55c-5.279,5.776 -3.773,14.496 -3.734,21.704c0.023,4.33 4.731,5.706 8.192,4.599c4.147,-1.325 7.377,-5.205 7.423,-9.604c0.057,-5.416 0.664,-10.745 1.333,-16.114c-5.129,1.037 -10.258,2.072 -15.387,3.109c0.013,6.307 -0.148,12.642 0.184,18.94c0.219,4.171 4.452,5.593 7.963,4.471c4.136,-1.322 7.027,-5.04 7.215,-9.336c0.297,-6.778 0.312,-14.092 2.926,-20.46c-4.188,0.339 -8.377,0.679 -12.565,1.018c-0.079,8.099 -0.983,16.438 1.382,24.301c1.926,6.404 11.578,0.52 12.183,-3.926c0.942,-6.925 1.243,-14.534 -0.71,-21.309c-0.918,-3.176 -5.332,-0.501 -6.155,1.252Z" style="fill:#010101;fill-rule:nonzero;"/><path d="M185.075,104.855c2.06,-3.36 3.676,-6.754 5.336,-10.32c1.768,-3.796 2.808,-8.693 5.914,-11.664c3.782,-3.616 6.776,-1.469 9.286,2.24c3.349,4.946 4.719,11.856 5.712,17.631c0.584,3.398 0.867,7.079 1.851,10.384c0.631,2.125 0.926,5.819 2.63,7.344c1.518,1.357 3.642,0.442 4.764,-0.989c4.697,-5.994 2.921,-16.999 1.508,-23.804c-1.564,-7.533 -3.875,-16.22 -9.801,-21.583c-6.021,-5.45 -13.67,-3.073 -19.36,1.558c-8.895,7.238 -7.47,18.862 -10.358,28.729c-0.477,1.621 1.905,1.475 2.518,0.474Z" style="fill:#010101;fill-rule:nonzero;"/><path d="M199.976,8.423c-3.438,4.503 -4.914,10.12 -6.409,15.501c-1.572,5.658 -3.296,12.052 -2.334,17.951c0.356,2.186 2.903,0.982 3.611,-0.293c2.837,-5.112 3.849,-10.838 5.128,-16.475c1.237,-5.451 3.174,-10.926 3.633,-16.508c0.181,-2.191 -2.922,-1.102 -3.629,-0.176Z" style="fill:#010101;fill-rule:nonzero;"/><path d="M200.153,7.657c-4.995,2.413 -5.89,8.359 -6.625,13.564c-0.551,3.896 -3.536,14.886 0.935,17.323c1.055,0.575 2.313,0.032 3.153,-0.655c4.359,-3.569 3.533,-11.087 3.98,-16.119c0.259,-2.91 0.478,-5.842 0.954,-8.726c0.159,-0.964 0.435,-2.112 0.382,-3.093c-0.126,-2.371 -0.162,-0.584 -0.65,0.131c1.223,-1.791 -0.221,-3.346 -2.129,-2.425Z" style="fill:#010101;fill-rule:nonzero;"/><path d="M196.586,28.108c0.949,-3.47 1.532,-6.999 2.534,-10.462c0.986,-3.409 3.091,-6.311 4.294,-9.608c1.707,-4.684 -3.737,-5.141 -6.16,-2.144c-4.535,5.609 -7.863,16.648 -4.461,23.437c0.956,1.903 3.397,0.222 3.793,-1.223Z" style="fill:#010101;fill-rule:nonzero;"/><path d="M195.873,26.167c0.635,-4.489 1.537,-10.26 4.458,-13.941c-0.354,0.448 -0.911,0.833 -1.502,0.881c-0.804,0.066 -0.755,-0.209 -0.389,0.128c1.027,0.944 1.916,2.282 2.597,3.491c2.151,3.821 3.543,8.113 4.621,12.343c0.64,2.511 1.036,5.076 1.646,7.593c0.554,2.285 0.99,5.824 2.772,7.479c1.206,1.118 3.209,0.436 4.051,-0.842c3.907,-5.925 1.927,-14.641 0.134,-20.985c-1.361,-4.819 -3.514,-11.405 -7.6,-14.672c-3.873,-3.097 -8.082,-2.724 -11.465,0.959c-4.139,4.504 -2.26,12.738 -1.764,18.06c0.139,1.496 2.287,0.584 2.441,-0.494Z" style="fill:#010101;fill-rule:nonzero;"/><path d="M203.657,5.132c2.14,8.509 3.869,16.347 3.925,25.204c0.03,4.713 -0.291,9.42 -0.319,14.13c-0.02,3.183 -0.14,7.915 2.236,10.364c0.954,0.983 2.725,0.327 3.383,-0.703c4.734,-7.404 3.373,-19.48 2.932,-27.855c-0.408,-7.719 -1.321,-19.917 -9.574,-23.405c-1.358,-0.574 -2.934,0.872 -2.583,2.265Z" style="fill:#010101;fill-rule:nonzero;"/><path d="M206.743,2.956c-3.881,9.277 -1.904,20.982 -1.085,30.707c0.831,9.862 1.064,22.467 6.343,31.127c0.982,1.611 3.572,-0.482 3.77,-1.689c1.604,-9.801 -1.003,-20.472 -2.131,-30.239c-0.644,-5.574 -1.115,-11.167 -1.435,-16.769c-0.259,-4.546 -0.2,-9.592 -2.042,-13.834c-0.691,-1.591 -2.931,-0.472 -3.42,0.697Z" style="fill:#010101;fill-rule:nonzero;"/><path d="M283.743,134.634c-0.033,-0.139 -0.065,-0.277 -0.099,-0.417c-0.065,0.8 -0.132,1.6 -0.196,2.398c1.134,-2.623 -0.278,-4.925 -2.754,-5.979c-3.351,-1.427 -6.864,-0.449 -9.771,1.525c-1.932,1.312 -3.714,3.231 -3.58,5.752c0.123,2.3 2.004,3.316 4.088,3.297c3.902,-0.035 7.705,-1.626 11.241,-3.134c2.349,-1.001 5.563,-3.485 5.031,-6.51c-0.646,-3.669 -3.926,-6.424 -6.128,-9.259c-2.355,-3.033 -6.723,-0.223 -8.539,1.775c-2.092,2.298 -3.739,5.508 -4.777,8.811c-0.855,2.721 -1.406,7.646 1.021,9.707c3.563,3.024 10.281,-0.074 10.683,-4.789c0.182,-2.12 -0.428,-3.43 -0.189,-5.148c0.271,-1.949 1.146,-3.795 2.11,-5.503c-3.106,1.02 -6.213,2.038 -9.319,3.058c0.838,1.033 1.746,2.014 2.615,3.022c0.495,0.576 0.979,1.163 1.453,1.757c0.811,1.012 0.804,1.572 0.487,-0.038c1.227,-1.971 2.453,-3.941 3.68,-5.912c1.088,-0.485 -0.938,0.397 -0.895,0.38c-0.682,0.288 -1.372,0.551 -2.064,0.811c-1.399,0.525 -2.797,0.971 -4.288,1.078c0.585,2.719 1.17,5.438 1.756,8.156c0.278,-0.212 1.024,0.094 1.709,0.15c0.727,0.06 1.412,0.133 2.134,0c0.72,-0.069 1.393,-0.285 2.019,-0.649c1.322,-0.921 1.276,-0.915 -0.138,0.017c1.85,-0.552 3.16,-2.46 2.71,-4.356Z" style="fill:#010101;fill-rule:nonzero;"/><path d="M285.889,125.736c-5.322,-0.304 -9.479,3.883 -12.222,8.044c-2.153,3.266 -7.091,11.691 -3.079,15.154c1.005,0.867 2.18,0.483 3.145,-0.255c3.231,-2.474 4.327,-6.897 5.943,-10.463c1.508,-3.327 3.771,-5.903 6.478,-8.293c1.046,-0.923 2.103,-4.052 -0.265,-4.187Z" style="fill:#010101;fill-rule:nonzero;"/><path d="M279.062,46.656c-7.032,-0.346 -10.748,6.303 -13.09,12.008c-3.407,8.301 -3.509,17.586 -3.62,26.407c-0.322,25.306 -3.339,50.591 -5.004,75.857c-1.92,29.127 -4.144,58.122 -7.75,87.093c-1.449,11.647 -2.373,23.198 -2.947,34.91c-0.387,7.882 -0.014,18.094 -3.835,25.21c-4.176,7.775 7.267,9.602 11.067,3.851c4.625,-6.999 5.208,-15.722 5.852,-23.871c0.79,-10 0.84,-20.029 1.916,-30.006c3.011,-27.906 6.156,-55.642 8.033,-83.664c0.975,-14.544 1.863,-29.093 2.866,-43.634c0.886,-12.845 2.601,-25.867 2.717,-38.734c0.071,-7.93 -0.552,-15.836 -0.221,-23.769c0.243,-5.845 -0.641,-13.068 4.288,-17.338c1.084,-0.938 2.166,-4.2 -0.272,-4.32Z" style="fill:#010101;fill-rule:nonzero;"/><path d="M235.292,259.938c0.723,6.332 0.861,12.791 6.081,17.322c5.313,4.611 12.167,1.775 16.909,-2.189c-3.106,-1.107 -6.214,-2.215 -9.32,-3.322c-0.659,2.045 -1.388,2.365 -3.402,2.448c-4.253,0.177 -7.319,4.157 -7.613,8.091c-0.585,7.852 2.242,14.963 3.971,22.486c0.631,2.745 4.361,3.039 6.477,2.363c3.415,-1.092 6.12,-4.308 6.138,-7.943c0.03,-6.027 -0.05,-12.004 -0.773,-17.996c-1.025,-8.494 -12.929,-2.329 -12.893,4.133c0.039,7.001 0.039,13.999 0,21c4.298,-1.377 8.595,-2.756 12.893,-4.133c-0.892,-6.694 -1.999,-14.976 -7.774,-19.229c-4.648,-3.425 -11.127,4.112 -9.784,8.586c1.528,5.094 3.88,9.356 4.666,14.776c1.229,8.488 12.929,2.334 12.893,-4.133c-0.039,-7.001 -0.038,-13.999 0,-21c-4.298,1.378 -8.595,2.755 -12.893,4.133c0.653,5.983 0.719,11.99 0.754,18.004c4.204,-1.86 8.409,-3.721 12.614,-5.58c-1.593,-6.596 -3.988,-12.61 -3.66,-19.514c-2.538,2.696 -5.076,5.394 -7.613,8.091c9.104,-0.617 15.475,-7.106 17.963,-15.552c1.808,-6.132 -6.203,-6.052 -9.32,-3.322c-4.412,3.864 -10.751,-5.772 -12.205,-9.336c-0.899,-2.192 -4.32,-0.033 -4.109,1.816Z" style="fill:#010101;fill-rule:nonzero;"/><path d="M230.51,231.758c-0.65,7.979 -0.829,14.736 1.635,22.526c1.582,5.002 5.037,10.831 10.061,12.993c6.392,2.751 12.904,-1.099 16.688,-6.266c3.648,-4.984 10.203,-19.464 2.726,-23.519c-0.894,-0.485 -2.242,-0.331 -3.063,0.248c-5.972,4.208 -6.379,11.004 -9.243,17.163c-0.385,0.829 -0.626,1.127 -1.293,1.947c0.544,-0.611 0.513,-0.636 -0.093,-0.071c0.361,-0.366 0.783,-0.636 1.269,-0.807c1.013,-0.366 1.398,0.061 0.042,-0.25c0.684,0.156 -1.058,-0.648 -1.32,-0.818c-3.269,-2.119 -5.766,-6.39 -7.646,-9.697c-2.51,-4.416 -5.556,-9.849 -6.75,-14.782c-0.447,-1.839 -2.921,0.21 -3.013,1.333Z" style="fill:#010101;fill-rule:nonzero;"/><path d="M229.641,217.398c-1.185,8.139 -0.868,16.354 0.213,24.482c0.914,6.866 2.684,16.124 8.355,20.771c13.51,11.071 24.508,-17.103 26.478,-26.013c0.659,-2.979 1.416,-6.323 -1.356,-8.391c-2.631,-1.962 -6.389,2.549 -7.61,4.223c-4.516,6.186 -5.445,14.438 -9.854,20.745c-0.853,1.22 -0.566,0.583 0.115,0.323c1.52,-0.578 0.104,-0.559 -1.087,-1.825c-2.874,-3.057 -4.447,-7.069 -5.741,-10.979c-2.641,-7.979 -3.561,-16.424 -6.261,-24.385c-0.574,-1.687 -3.076,-0.156 -3.252,1.049Z" style="fill:#010101;fill-rule:nonzero;"/><path d="M293.112,196.992c-0.486,5.776 3.263,12.585 8.738,14.876c6.794,2.844 13.363,-1.729 17.175,-7.134c5.178,-7.341 -4.39,-10.918 -9.139,-4.939c-2.208,2.778 -4.044,4.874 -7.282,6.413c-2.992,1.424 -5.132,5.275 -4.119,8.507c1.115,3.56 1.399,7.397 2.223,11.038c0.618,2.729 4.34,3.017 6.436,2.348c2.924,-0.936 5.206,-3.391 5.969,-6.346c0.822,-3.191 1.469,-6.26 1.676,-9.553c-4.291,1.375 -8.58,2.75 -12.871,4.125c0.145,6.038 0.627,12.008 0.586,18.057c3.664,-2.635 7.33,-5.27 10.994,-7.905c-2.492,-1.6 -6.29,-3.31 -8.967,-0.961c-3.457,3.034 -3.101,8.134 -0.959,11.611c1.5,2.436 5.631,1.503 7.558,0.403c2.65,-1.512 4.618,-4.275 4.597,-7.387c-0.041,-6.009 -0.826,-11.944 -0.938,-17.943c-0.066,-3.561 -3.865,-4.714 -6.753,-3.791c-3.57,1.142 -5.87,4.265 -6.118,7.916c-0.146,2.159 -0.861,4.356 -1.375,6.447c4.135,-1.333 8.27,-2.665 12.404,-3.998c-0.87,-3.626 -1.19,-7.409 -2.355,-10.962c-1.373,2.835 -2.746,5.671 -4.119,8.507c5.348,-2.612 9.081,-6.875 12.554,-11.587c-3.046,-1.646 -6.093,-3.293 -9.139,-4.939c-0.425,0.651 -1.969,1.97 -1.046,1.784c-1.284,0.258 -2.806,-0.598 -3.89,-1.148c-3.061,-1.556 -5.169,-4.35 -8.064,-6.152c-1.753,-1.09 -3.646,1.171 -3.776,2.713Z" style="fill:#010101;fill-rule:nonzero;"/><path d="M292.917,195.402c-2.062,11.624 -1.794,22.915 -0.849,34.673c0.716,8.912 1.58,18.084 5.85,26.098c2.519,4.728 6.998,10.875 13.25,8.661c8.872,-3.144 9.492,-12.552 7.341,-20.327c-0.745,-2.693 -4.234,-3.045 -6.426,-2.345c-3.49,1.116 -5.931,4.255 -6.09,7.881c1.484,-2.386 2.97,-4.771 4.454,-7.157c-1.118,0.645 -2.07,1.48 -2.855,2.506c-1.494,1.971 -1.438,3.842 -1.702,6.158c-0.158,1.391 -0.134,2.754 -0.15,4.148c-0.037,3.223 -0.738,-4.601 7.411,-3.795c1.453,0.144 -0.117,-0.329 0.388,0.102c-0.77,-0.656 -1.402,-1.476 -2.025,-2.266c-1.457,-1.848 -2.462,-3.977 -3.378,-6.131c-3.134,-7.37 -3.497,-15.602 -5.314,-23.316c-2.044,-8.68 -4.663,-17.277 -6.545,-25.972c-0.402,-1.843 -3.16,-0.051 -3.36,1.082Z" style="fill:#010101;fill-rule:nonzero;"/><path d="M139.436,248.473c-1.065,8.373 3.531,13.761 12.141,13.03c-0.99,-2.483 -1.979,-4.967 -2.969,-7.45c-1.418,1.995 -3.381,4.884 -6.181,4.481c0.608,2.726 1.218,5.45 1.826,8.176c0.784,-0.988 1.569,-1.977 2.354,-2.964c-3.477,0.281 -6.952,0.563 -10.428,0.844c1.1,4.269 1.722,8.779 1.147,13.178c-0.422,3.233 1.399,5.877 4.908,5.593c3.761,-0.305 6.407,-3.222 7.521,-6.601c1.131,-3.43 3.01,-6.452 3.92,-10.008c-4.257,0.859 -8.513,1.72 -12.77,2.58c-0.029,4.834 -0.004,9.665 -0.745,14.453c-1.424,9.192 11.325,5.628 12.863,-1.043c1.017,-4.41 2.529,-8.684 3.865,-13.004c-4.366,0.883 -8.731,1.765 -13.098,2.646c-0.051,2.604 -0.531,5.154 -1.079,7.695c-0.562,2.611 -2.191,5.333 -0.89,7.974c1.536,3.116 5.024,3.041 7.765,1.562c7.044,-3.804 7.264,-14.437 7.437,-21.473c0.069,-2.824 -2.744,-4.44 -5.254,-4.237c-3.885,0.314 -6.733,3.353 -7.844,6.884c-1.356,4.312 -2.893,8.551 -3.766,12.996c4.288,-0.348 8.575,-0.695 12.863,-1.043c0.706,-5.844 0.813,-11.666 0.782,-17.547c-0.015,-2.75 -2.612,-4.334 -5.122,-4.131c-3.607,0.293 -6.811,3.244 -7.647,6.711c-0.833,3.453 -2.659,6.585 -3.711,9.992c4.144,-0.336 8.286,-0.672 12.43,-1.008c0.712,-6.473 0.03,-12.606 -1.905,-18.822c-1.535,-4.935 -8.449,-1.856 -10.428,0.844c-0.741,1.013 -1.482,2.024 -2.224,3.036c-1.791,2.445 -2.473,7.76 1.826,8.176c8.429,0.815 15.485,-4.609 19.763,-11.519c2.528,-4.084 0.812,-8.255 -4.359,-7.17c-3.719,0.78 -6.273,-1.308 -7.902,-4.473c-1.207,-2.352 -4.816,-0.51 -5.089,1.642Z" style="fill:#010101;fill-rule:nonzero;"/><path d="M139.196,216.431c-2.603,8.654 -3.816,17.72 -1.672,26.616c1.146,4.753 3.955,13.239 9.986,13.599c13.757,0.818 17.867,-20.499 18.926,-30.557c0.252,-2.389 1.174,-6.647 -1.666,-8.007c-2.864,-1.372 -5.78,0.739 -7.5,3.008c-3.948,5.206 -5.094,13.554 -7.012,19.695c-0.335,1.075 -0.772,2.115 -1.209,3.152c-0.136,0.321 -1.534,2.808 -0.967,1.95c-1.17,1.407 -0.336,0.899 2.501,-1.524c2.788,0.491 3.518,0.411 2.187,-0.24c-0.837,-0.479 -1.782,-2.439 -2.279,-3.316c-4.571,-8.062 -4.253,-17.133 -7.232,-25.686c-0.788,-2.259 -3.665,-0.014 -4.063,1.31Z" style="fill:#010101;fill-rule:nonzero;"/><path d="M117.37,146.097c0.75,-2.741 4.409,-7.334 6.981,-7.762c1.165,-0.193 1.16,-0.248 1.305,0.007c1.146,2.014 0.751,4.859 0.585,7.044c4.413,-1.415 8.827,-2.829 13.24,-4.244c-0.667,-10.579 -1.047,-21.524 -4.659,-31.605c-2.748,-7.67 -13.397,0.347 -13.396,5.925c0.002,3.667 0.004,7.333 0.006,10.999c0.004,8.233 12.875,3.288 13.562,-2.74c0.75,-6.582 0.888,-13.062 0.131,-19.649c-0.875,-7.617 -10.905,-3.859 -12.969,1.051c-2.53,6.021 -3.614,12.373 -5.148,18.686c4.465,-0.362 8.93,-0.724 13.395,-1.086c0.839,-4.798 2.37,-9.36 3.815,-14c-4.406,1.42 -8.813,2.84 -13.218,4.26c0.79,2.687 1.114,5.477 3.995,6.623c2.058,0.819 4.387,0.311 6.001,-1.248c3.793,-3.66 4.508,-7.833 3.045,-12.809c-0.841,-2.862 -4.483,-3.261 -6.857,-2.502c-3.232,1.033 -5.38,3.613 -6.36,6.762c-1.445,4.639 -2.977,9.201 -3.815,14c-1.669,9.546 11.718,5.811 13.395,-1.086c1.242,-5.109 1.958,-10.447 4.008,-15.314c-4.323,0.351 -8.646,0.701 -12.969,1.051c0.621,5.455 0.758,10.889 0.131,16.351c4.521,-0.913 9.041,-1.827 13.562,-2.74c0.002,-3.667 0.004,-7.334 0.006,-11.001c-4.466,1.975 -8.931,3.949 -13.396,5.925c3.212,8.992 3.52,18.968 4.497,28.395c0.918,8.865 12.998,2.212 13.24,-4.244c0.313,-8.321 -4.443,-17.612 -14.204,-13.86c-8.494,3.264 -11.889,11.224 -12.067,19.656c-0.059,2.693 3.724,0.74 4.158,-0.845Z" style="fill:#010101;fill-rule:nonzero;"/><path d="M111.743,160.809c2.232,-3.581 3.757,-7.662 5.583,-11.466c0.829,-1.726 3.621,-7.839 5.78,-7.699c3.943,0.257 5.787,8.937 6.621,12.302c3.354,13.526 2.105,27.599 6.539,40.857c1.016,3.036 4.966,0.031 5.472,-1.764c2.308,-8.191 3.212,-16.354 2.623,-24.896c-0.614,-8.898 -1.571,-19.095 -5.578,-27.204c-3.222,-6.524 -9.997,-11.458 -17.282,-7.442c-4.744,2.614 -7.732,7.311 -9.854,12.145c-1.846,4.211 -4.266,10.836 -2.197,15.354c0.438,0.957 1.834,0.549 2.293,-0.187Z" style="fill:#010101;fill-rule:nonzero;"/><path d="M79.863,180.662c-4.623,7.021 -3.545,17.735 0.394,24.831c5.83,10.504 16.902,5.822 23.141,-1.596c-3.743,-0.706 -7.486,-1.412 -11.23,-2.117c-0.763,2.295 -3.331,2.95 -5.412,3.47c-4.38,1.094 -8.062,6.836 -5.217,10.879c7.498,10.659 20.164,6.147 23.466,-5.39c1.505,-5.258 -4.859,-7.063 -8.492,-4.743c-3.98,2.542 -8.025,4.94 -11.524,8.145c-4.291,3.932 -3.452,12.772 3.945,10.141c4.757,-1.692 7.093,-4.997 10.928,-7.888c3.667,-2.764 3.368,-9.469 4.658,-13.594c2.578,-8.239 9.815,-17.841 8.332,-26.703c-0.497,-2.966 -3.758,-2.739 -5.635,-1.103c-5.348,4.66 -8.772,11.519 -11.581,17.989c-2.943,6.782 -5.776,13.934 -6.021,21.404c1,-2.084 2,-4.168 3,-6.252c-1.342,1.015 -3.094,3.669 -4.334,4.112c1.315,3.38 2.63,6.761 3.945,10.141c2.54,-2.334 5.421,-4.007 8.315,-5.855c-2.831,-1.581 -5.661,-3.163 -8.492,-4.743c4.366,-0.734 5.395,-1.556 3.086,-2.464c-1.06,-0.573 -1.851,-1.987 -2.511,-2.926c-1.738,3.626 -3.479,7.253 -5.217,10.879c8.557,-2.138 14.985,-8.077 17.479,-16.53c0.748,-2.537 -0.886,-5.174 -3.453,-5.65c-3.006,-0.557 -5.982,1.257 -7.777,3.533c-1.814,2.302 0.066,1.227 -1.057,0.568c-1.629,-0.954 -2.908,-2.89 -3.818,-4.483c-2.598,-4.546 -3.739,-9.806 -6.387,-14.26c-0.583,-0.981 -1.953,-0.673 -2.531,0.205Z" style="fill:#010101;fill-rule:nonzero;"/><path d="M392.441,100.944c6.385,11.299 20.028,6.315 28.109,-0.178c4.315,-3.467 7.813,-7.917 11.711,-11.824c4.653,-4.664 10.192,-7.535 16.426,-9.571c20.927,-6.835 44.429,-1.064 57.731,16.692c11.577,15.453 14.227,37.215 12.235,55.91c-2.743,25.763 -20.271,48.529 -33.906,69.615c-7.686,11.887 -14.061,24.381 -21.236,36.539c-5.062,8.575 -10.851,16.136 -20.798,18.815c-8.168,2.201 -17.988,1.15 -26.09,-0.742c-7.893,-1.843 -13.748,-5.471 -11.578,-13.557c2.596,-9.679 -12.104,-7.499 -14.658,-0.686c-3.556,9.482 -2.02,17.755 6.161,23.979c6.485,4.935 16.021,6.287 23.915,6.801c10.06,0.653 20.361,-0.285 29.623,-4.477c9.781,-4.426 16.963,-12.536 22.579,-21.477c6.653,-10.59 11.629,-22.07 18.192,-32.723c7.165,-11.631 14.854,-22.924 21.865,-34.652c6.818,-11.4 12.536,-23.355 16.251,-36.136c3.006,-10.341 3.542,-21.45 2.881,-32.155c-1.698,-27.536 -15.271,-54.773 -43.128,-63.166c-16.404,-4.943 -36.101,-2.043 -50.977,6.029c-7.267,3.943 -12.529,9.689 -18.017,15.754c-5.724,6.326 -13.91,12.615 -22.299,6.824c-2.115,-1.459 -6.298,2.075 -4.992,4.386Z" style="fill:#010101;fill-rule:nonzero;"/><path d="M496.686,146.506c1.629,-4.417 2.959,-7.876 3.174,-12.693c0.209,-4.695 -1.508,-9.885 -4.094,-13.803c-5.802,-8.786 -15.654,-14.279 -26.113,-15.024c-10.672,-0.761 -21.038,2.578 -30.373,7.517c-4.926,2.606 -9.506,6.047 -13.753,9.632c-3.76,3.173 -9.312,7.519 -8.845,12.959c0.201,2.345 2.168,3.94 4.53,3.653c4.33,-0.524 6.751,-3.271 9.718,-6.126c2.668,-2.566 5.579,-4.891 8.658,-6.94c6.477,-4.313 13.691,-7.407 21.46,-8.242c7.947,-0.855 17.433,1.335 23.688,6.455c6.129,5.018 10.258,14.445 9.231,22.486c-0.234,1.828 2.236,1.435 2.719,0.126Z" style="fill:#010101;fill-rule:nonzero;"/><path d="M421.399,134.08c-4.035,9.317 -2.953,18.286 0.074,27.769c1.57,4.921 3.656,9.659 5.573,14.45c2.17,5.427 3.014,10.146 3.232,15.924c1.416,-2.274 2.831,-4.55 4.247,-6.825c-6.729,3.759 -14.687,5.205 -21.004,9.697c-7.99,5.68 -10.61,14.208 -7.743,23.534c2.185,7.108 9.2,12.231 16.373,13.215c3.905,0.534 7.994,-0.192 11.484,-2.012c3.828,-1.995 9.518,-7.214 7.034,-12.149c-1.075,-2.138 -2.648,-2.676 -4.927,-2.749c-0.972,-0.031 -1.901,0.234 -2.792,0.596c0.056,-0.022 -5.293,3.319 -3.216,1.851c-1.614,1.141 0.827,-0.133 -1.139,0.443c0.401,-0.118 -1.57,-0.085 -1.739,-0.105c-4.481,-0.564 -7.849,-4.291 -8.702,-8.623c-0.869,-4.413 1.133,-5.015 4.811,-6.773c5.096,-2.437 10.53,-4.051 15.282,-7.189c2.713,-1.793 5.024,-4.765 3.965,-8.188c-2.709,-8.753 -7.612,-17.279 -11.756,-25.453c-4.432,-8.744 -6.666,-17.777 -6.967,-27.58c-0.037,-1.274 -1.775,-0.561 -2.09,0.167Z" style="fill:#010101;fill-rule:nonzero;"/><path d="M469.135,139.278c-14.9,-8.159 -46.303,-2.284 -44.994,19.518c0.38,6.324 9.764,2.484 10.33,-2.088c0.337,-2.716 0.414,-5.707 2.425,-7.811c2.419,-2.531 5.837,-3.752 9.116,-4.707c7.047,-2.055 14.857,-2.402 22.143,-2.842c0.821,-0.05 2.043,-1.489 0.98,-2.07Z" style="fill:#010101;fill-rule:nonzero;"/><path d="M492.34,158.349c-1.046,7.391 -2.738,14.216 -6.225,20.866c-3.355,6.401 -8.338,11.841 -12.767,17.488c-0.867,1.105 0.228,2.492 1.46,1.663c12.194,-8.21 23.423,-25.454 19.597,-40.684c-0.277,-1.104 -1.961,-0.064 -2.065,0.667Z" style="fill:#010101;fill-rule:nonzero;"/></g></svg>