<?xml version="1.0" encoding="UTF-8"?>
<svg width="538px" height="464px" viewBox="0 0 538 464" version="1.1" xmlns="http://www.w3.org/2000/svg" xmlns:xlink="http://www.w3.org/1999/xlink">
    <!-- Generator: Sketch 41 (35326) - http://www.bohemiancoding.com/sketch -->
    <title>sun</title>
    <desc>Created with Sketch.</desc>
    <defs></defs>
    <g id="Page-1" stroke="none" stroke-width="1" fill="none" fill-rule="evenodd">
        <g id="Layer_1" transform="translate(-2744.000000, -4109.000000)" fill="#010101">
            <g id="Layer_1_3_">
                <g id="sun" transform="translate(2744.000000, 4109.000000)">
                    <path d="M302.373,123.935 C284.395,116.706 264.466,116.505 245.452,118.664 C224.741,121.016 204.269,127.448 185.565,136.558 C148.572,154.573 116.84,185.265 105.407,225.614 C99.355,246.972 100.097,270.056 109.053,290.468 C117.628,310.01 132.824,325.353 150.274,337.236 C182.776,359.367 221.957,366.978 260.699,366.617 C298.271,366.266 338.512,358.429 368.861,335.017 C383.187,323.965 393.916,309.138 399.316,291.857 C406.683,268.28 406.398,242.028 401.689,217.977 C399.136,204.933 394.668,192.2 388.2,180.581 C382.325,170.029 373.885,160.844 365.137,152.616 C347.594,136.114 322.116,117.699 296.72,121.997 C293.792,122.492 290.936,124.772 289.281,127.15 C287.932,129.086 287.003,132.682 290.429,132.894 C313.565,134.329 334.551,146.669 351.815,161.396 C360.052,168.423 367.67,176.335 373.836,185.255 C380.829,195.372 385.252,207.144 388.397,218.958 C394.95,243.584 394.801,269.871 388.268,294.457 C384.065,310.278 373.479,323.599 360.035,332.672 C329.181,353.491 288.013,357.917 251.727,356.312 C212.002,354.555 171.957,342.229 142.17,314.908 C126.298,300.35 115.258,281.425 112.141,260.004 C108.987,238.337 114.616,215.942 125.138,197.002 C145.367,160.59 185.48,137.953 224.982,128.765 C249.836,122.984 275.338,123.07 300.541,126.176 C301.293,126.265 303.51,124.393 302.373,123.935 L302.373,123.935 Z" id="Shape"></path>
                    <path d="M342.528,64.455 C335.391,70.006 329.206,76.666 324.587,84.458 C320.425,91.479 316.529,101.541 321.658,109.124 C327.94,118.413 344.819,112.78 352.946,110.117 C368.583,104.993 383.345,96.864 397.381,88.385 C403.444,84.722 409.371,80.837 415.155,76.75 C419.167,73.916 424.2,70.842 425.753,65.955 C426.441,63.794 423.521,63.965 422.38,64.428 C418.693,65.921 415.689,68.741 412.501,71.082 C408.06,74.347 403.435,77.355 398.771,80.293 C386.625,87.939 373.962,94.945 360.708,100.479 C352.642,103.846 339.469,109.732 330.954,104.719 C324.893,101.151 327.216,91.386 329.251,86.261 C332.292,78.6 337.779,71.045 343.642,65.284 C344.748,64.194 343.479,63.714 342.528,64.455 L342.528,64.455 Z" id="Shape"></path>
                    <path d="M433.102,69.205 C418.18,77.39 404.397,87.768 394.234,101.571 C388.104,109.895 379.948,125.28 385.575,135.681 C389.943,143.755 402.684,142.679 410.19,142.002 C421.18,141.01 431.903,138.058 442.641,135.67 C445.5,135.033 448.374,132.829 449.596,130.141 C450.678,127.761 449.283,126.127 446.77,126.586 C427.425,130.114 405.375,145.692 399.354,164.925 C395.139,178.388 405.182,186.709 417.131,189.185 C432.528,192.375 448.996,190.081 464.35,187.745 C480.207,185.334 495.713,181.649 511.295,177.932 C516.339,176.729 520.797,175.074 525.549,173.617 C527.221,173.105 532.736,167.425 528.5,167.127 C516.955,166.314 504.85,170.4 493.586,172.67 C476.828,176.046 460.069,179.414 442.951,180.251 C432.904,180.741 415.912,181.582 410.394,170.911 C406.623,163.616 412.168,155.01 417.032,149.925 C423.634,143.02 433.21,137.424 442.64,135.671 C444.015,132.643 445.392,129.614 446.769,126.587 C437.517,128.675 428.343,131.118 418.966,132.611 C412.179,133.692 401.709,135.368 395.831,130.625 C387.977,124.285 395.868,109.424 399.644,103.11 C407.664,89.707 421.123,79.49 433.758,70.71 C434.994,69.854 434.661,68.35 433.102,69.205 L433.102,69.205 Z" id="Shape"></path>
                    <path d="M96.973,45.679 C97.136,68.127 109.622,90.873 125.534,106.205 C135.179,115.499 149.493,127.424 162.799,118.049 C173.301,110.65 173.493,95.832 172.644,84.36 C172.107,77.11 170.758,69.993 168.769,63.006 C167.174,57.408 164.705,50.027 160.362,45.981 C158.113,43.885 153.884,48.114 153.918,50.415 C153.996,56.003 155.611,61.576 156.551,67.068 C157.627,73.359 159.045,79.574 159.961,85.9 C160.782,91.572 161.259,97.363 160.836,103.089 C160.661,105.468 160.338,107.808 159.732,110.116 C159.535,110.868 159.202,111.58 158.842,112.342 C158.374,113.335 159,112.345 158.451,112.941 C159.092,112.247 160.314,112.364 158.375,112.461 C155.968,112.581 153.675,111.82 151.464,110.962 C143.685,107.936 136.61,102.149 130.551,96.558 C115.436,82.608 105.78,63.256 100.512,43.598 C100.042,41.835 96.963,44.462 96.973,45.679 L96.973,45.679 Z" id="Shape"></path>
                    <path d="M158.763,52.876 C163.598,69.414 172.101,90.686 189.354,97.677 C203.08,103.24 215.833,92.988 221.861,81.305 C228.618,68.207 229.589,52.142 230.062,37.702 C230.302,30.326 230.223,22.988 229.78,15.624 C229.514,11.191 228.426,5.541 226.419,1.527 C225.306,-0.699 220.776,3.338 220.381,4.542 C216.909,15.11 217.6,26.923 217.523,37.902 C217.428,51.197 216.723,65.023 212.96,77.847 C212.24,80.301 211.194,82.673 210.015,84.937 C209.631,85.671 208.968,86.578 208.411,87.334 C208.33,87.442 206.927,88.855 207.61,88.26 C207.001,88.79 206.164,89.284 204.04,89.679 C201.084,90.227 197.842,89.518 195.052,88.602 C179.216,83.402 169.315,64.56 160.76,51.499 C160.299,50.802 158.563,52.194 158.763,52.876 L158.763,52.876 Z" id="Shape"></path>
                    <path d="M227.451,9.436 C223.626,31.015 223.849,55.952 232.335,76.501 C235.398,83.919 240.91,91.564 249.947,90.33 C263.099,88.531 273.069,75.23 280.062,65.199 C276.671,65.884 273.283,66.567 269.893,67.252 C268.223,80.009 268.744,96.132 284.37,98.47 C290.797,99.431 297.849,97.1 303.706,94.718 C311.722,91.457 319.95,86.669 326.436,80.929 C324.2,81.839 321.961,82.749 319.725,83.658 C319.827,83.662 319.927,83.666 320.03,83.669 C319.17,83.017 318.309,82.364 317.449,81.713 C317.988,79.023 317.965,78.692 317.381,80.724 C317.318,82.453 317.369,82.246 317.532,80.103 C316.997,81.032 316.965,82.327 317.699,83.138 C318.981,84.555 321.731,83.072 322.807,82.107 C318.496,82.637 317.145,83.082 318.752,83.44 C319.819,83.699 320.391,83.798 321.516,83.54 C324.753,82.794 334.88,75.778 329.473,72.155 C329.407,72.11 329.338,72.065 329.272,72.02 C327.684,70.957 324.381,72.378 323.082,73.269 C314.151,79.384 304.591,87.344 293.122,87.127 C280.77,86.893 280.145,71.793 281.188,62.724 C281.913,56.426 272.388,62.765 271.019,64.776 C267.665,69.707 264.109,74.701 259.475,78.523 C257.209,80.391 255.328,81.357 252.021,80.921 C245.278,80.031 241.229,70.51 239.15,65.148 C235.495,55.72 233.675,45.552 232.399,35.561 C231.253,26.611 229.762,17.442 229.514,8.417 C229.487,7.483 227.555,8.849 227.451,9.436 L227.451,9.436 Z" id="Shape"></path>
                    <path d="M4.407,204.809 C17.303,214.507 34.942,218.955 50.579,221.514 C64.291,223.759 85.469,224.682 92.933,209.878 C98.092,199.643 84.024,187.339 77.678,181.399 C65.151,169.673 50.832,159.656 36.203,150.744 C28.008,145.753 18.726,139.646 9.084,137.997 C6.546,137.562 -2.225,143.862 1.043,146.43 C13.503,156.217 27.951,162.487 42.892,167.479 C56.747,172.109 71.936,176.798 86.59,177.67 C95.687,178.211 107.433,174.588 109.527,164.399 C111.567,154.472 99.072,143.824 92.824,138.182 C89.138,141.111 85.453,144.041 81.767,146.97 C93.694,157.118 112.037,167.594 127.551,159.061 C146.322,148.738 135.327,124.84 121.874,115.41 C118.525,113.063 111.556,120.004 113.087,123.444 C116.341,130.751 121.583,136.97 124.003,144.694 C124.646,146.743 125.029,148.982 124.755,151.12 C124.732,151.308 124.132,152.84 124.597,152.079 C124.868,151.754 125.175,151.468 125.521,151.221 C126.919,149.966 124.697,151.519 125.86,151.01 C122.035,152.683 115.935,151.078 111.94,149.693 C104.876,147.242 98.468,143.011 92.822,138.183 C88.84,134.778 78.287,143.815 81.765,146.971 C87.716,152.37 96.193,159.431 97.802,167.8 C98.115,169.42 96.957,170.245 98.742,168.082 C99.802,166.797 100.757,166.945 98.444,167.376 C93.83,168.234 88.696,167.3 84.133,166.565 C58.979,162.52 31.062,154.632 10.738,138.721 C8.058,141.532 5.377,144.343 2.697,147.154 C6.636,147.822 12.079,150.695 16.144,152.799 C23.151,156.422 29.896,160.559 36.502,164.86 C50.502,173.973 64.497,184.107 75.762,196.538 C79.22,200.355 82.886,204.769 83.886,209.958 C84.038,210.754 84.021,211.11 83.84,211.967 C84.023,211.104 83.341,212.74 83.992,211.687 C84.763,210.44 83.611,212.126 83.437,212.308 C81.919,213.899 77.635,214.442 75.318,214.812 C66.047,216.29 56.144,214.952 46.965,213.443 C37.331,211.86 27.73,209.593 18.426,206.628 C14.605,205.409 10.743,204.107 7.159,202.289 C6.171,201.783 3.438,204.082 4.407,204.809 L4.407,204.809 Z" id="Shape"></path>
                    <path d="M6.894,296.69 C19.018,292.815 31.371,289.402 43.931,287.277 C55.064,285.393 72.018,283.382 79.489,294.143 C87.823,306.146 75.123,320.572 67.224,328.739 C56.922,339.387 44.501,347.834 34.418,358.674 C33.308,359.867 30.816,363.445 33.431,364.567 C36.037,365.686 39.266,363.129 40.964,361.477 C51.675,351.064 67.23,343.401 81.779,340.448 C92.249,338.324 104.983,341.228 106.792,353.291 C108.398,364.006 102.36,375.553 97.362,384.573 C92.312,393.688 85.863,402.523 80.09,410.794 C76.949,415.294 82.558,414.858 85.091,412.98 C95.922,404.945 103.793,392.888 110.178,381.15 C116.004,370.44 122.55,355.998 118.993,343.572 C114.835,329.049 97.124,328.143 84.942,330.916 C66.6,335.089 47.82,345.503 34.418,358.678 C36.601,359.613 38.782,360.546 40.964,361.481 C52.073,349.402 65.844,340.051 76.871,327.809 C86.253,317.393 97.116,301.916 88.725,287.834 C81.445,275.618 61.726,278.279 50.205,280.306 C35.42,282.906 21.344,288.246 7.436,293.727 C5.915,294.321 4.042,297.602 6.894,296.69 L6.894,296.69 Z" id="Shape"></path>
                    <path d="M135.437,440.534 C138.945,423.523 151.074,406.084 164.958,395.897 C171.874,390.824 179.41,389.712 187.297,393.22 C195.874,397.033 200.643,405.518 199.371,414.712 C203.514,413.053 207.655,411.393 211.797,409.733 C211.864,406.118 212.112,402.358 213.419,398.951 C213.707,398.201 214.996,396.222 214.67,396.588 C215.347,395.827 213.377,397.147 214.851,396.534 C216.11,396.013 219.162,396.077 221.535,396.455 C224.571,396.936 227.558,398.365 230.255,399.778 C236.693,403.152 241.974,408.588 245.989,414.576 C250.04,420.616 250.161,428.078 254.078,433.946 C256.411,437.441 263.002,431.123 263.903,429.043 C271.549,411.383 251.081,392.369 236.028,386.743 C228.159,383.803 219.161,384.072 212.086,388.911 C202.711,395.324 199.411,404.883 199.35,415.89 C199.334,418.484 203.431,417.626 204.69,417.12 C207.544,415.978 211.375,413.055 211.797,409.731 C213.262,398.218 205.779,388.84 195.527,384.545 C185.369,380.291 174.769,383.021 165.79,388.588 C148.226,399.483 132.224,421.393 130.731,442.418 C130.537,445.178 135.108,442.132 135.437,440.534 L135.437,440.534 Z" id="Shape"></path>
                    <path d="M375.35,460.341 C364.799,449.12 356.643,435.304 349.828,421.585 C342.703,407.243 334.762,389.04 338.177,372.669 C341.902,354.818 362.482,361.977 373.779,367.399 C388.45,374.442 401.124,384.812 413.564,395.134 C417.094,391.905 420.626,388.678 424.155,385.449 C415.983,381.586 408.726,375.034 404.256,367.163 C402.729,364.474 401.36,360.166 403.256,357.364 C402.16,358.981 403.009,357.971 404.389,357.68 C406.165,357.305 408.018,357.457 409.811,357.61 C418.479,358.347 426.958,363.012 434.169,367.573 C440.533,371.598 445.779,376.992 452.409,380.554 C455.485,382.206 461.336,376.987 460.847,373.846 C459.362,364.279 448.178,358.448 440.47,354.164 C431.019,348.912 419.369,344.601 408.449,346.942 C397.535,349.282 387.225,359.764 390.364,371.463 C393.258,382.244 404.655,391.307 414.385,395.744 C418.114,397.443 428.771,389.117 424.976,386.059 C404.359,369.456 355.625,332.812 333.845,366.33 C324.637,380.501 331.36,399.465 337.507,413.396 C344.783,429.884 355.529,445.719 367.558,459.116 C368.857,460.562 370.209,461.96 371.611,463.307 C372.865,464.526 376.484,461.546 375.35,460.341 L375.35,460.341 Z" id="Shape"></path>
                    <path d="M536.921,227.055 C515.111,222.294 491.359,225.418 471.38,235.727 C458.003,242.629 445.811,252.492 435.121,263.007 C425.968,272.013 414.83,284.635 414.32,298.218 C413.736,313.781 431.59,320.146 444.636,318.506 C446.429,318.279 451.362,314.474 448.709,312.677 C443.277,308.993 436.499,308.03 431.331,303.705 C427.781,300.732 425.914,297.187 425.77,292.553 C425.45,282.124 435.546,271.789 442.215,264.985 C450.693,256.337 460.55,248.758 471.108,242.822 C489.483,232.488 512.891,230.582 533.542,231.173 C534.924,231.211 538.987,227.505 536.921,227.055 L536.921,227.055 Z" id="Shape"></path>
                    <path d="M490.147,191.419 C475.114,195.141 460.227,199.03 445.975,205.225 C432.549,211.059 418.121,219.349 412.652,233.704 C412.33,234.549 411.928,236.208 413.216,236.577 C424.048,239.69 435.354,238.126 446.193,235.835 C452.198,234.565 458.109,232.838 464.022,231.212 C470.175,229.52 476.65,228.075 482.397,225.258 C483.084,224.922 488.362,220.636 485.456,219.975 C481.175,219.002 476.923,220.268 472.727,221.204 C466.781,222.53 460.944,224.465 455.04,225.982 C443.311,229 431.491,231.14 419.419,229.013 C419.981,229.718 420.539,230.422 421.1,231.126 C421.794,225.762 426.593,221.852 430.647,218.824 C436.356,214.562 443.001,211.479 449.516,208.681 C462.037,203.303 475.206,199.219 488.299,195.483 C489.921,195.022 493.259,190.648 490.147,191.419 L490.147,191.419 Z" id="Shape"></path>
                    <path d="M163.277,187.827 C147.013,192.503 145.219,227.867 165.354,226.381 C168.05,226.183 170.572,224.209 171.703,221.805 C172.754,219.571 172.361,215.531 169.122,215.367 C159.528,214.884 158.477,197.854 165.194,192.757 C167.675,190.873 166.685,186.847 163.277,187.827 L163.277,187.827 Z" id="Shape"></path>
                    <path d="M156.584,263.22 C154.053,267.765 152.642,272.932 155.346,277.732 C158.036,282.507 163.523,285.099 168.83,285.592 C172.306,285.914 175.619,283.942 177.114,280.764 C178.867,277.036 176.81,273.935 172.861,273.807 C167.912,273.648 159.902,270.702 162.285,264.283 C163.955,259.789 158.29,260.156 156.584,263.22 L156.584,263.22 Z" id="Shape"></path>
                    <path d="M240.05,317.22 C245.663,320.416 253.765,319.899 259.076,316.269 C261.03,314.933 262.838,313 262.701,310.443 C262.579,308.144 260.672,307.043 258.56,307.103 C254.161,307.228 250.126,309.343 245.721,307.901 C241.319,306.459 235.166,314.439 240.05,317.22 L240.05,317.22 Z" id="Shape"></path>
                    <path d="M322.904,297.414 C330.535,300.191 339.699,297.755 343.479,290.094 C344.876,287.262 342.545,284.602 339.554,285.621 C336.57,286.64 333.263,289.238 329.966,288.09 C327.109,287.095 324.273,288.17 322.438,290.592 C321.151,292.288 320.068,296.381 322.904,297.414 L322.904,297.414 Z" id="Shape"></path>
                    <path d="M346.366,253.253 C346.268,253.348 346.164,253.433 346.051,253.509 C346.505,253.185 346.959,252.86 347.413,252.535 C347.233,252.646 347.057,252.739 346.863,252.825 C347.342,252.614 347.822,252.402 348.301,252.19 C347.637,252.44 346.916,252.616 346.222,252.76 C346.687,252.666 347.151,252.572 347.616,252.479 C347.548,252.493 347.48,252.505 347.412,252.518 C346.424,252.614 345.499,252.912 344.64,253.411 C343.27,254.193 342.105,255.398 341.431,256.831 C340.388,259.048 340.851,262.583 343.863,262.895 C345.458,263.06 346.69,263.038 348.248,262.642 C349.761,262.256 351.375,261.308 352.507,260.248 C354.438,258.441 356.245,255.02 354.141,252.622 C352.081,250.279 348.343,251.499 346.366,253.253 L346.366,253.253 Z" id="Shape"></path>
                    <path d="M296.485,200.617 C296.131,201.058 295.027,202.187 296.621,200.55 C295.258,201.95 294.203,203.489 294.341,205.533 C295.029,204.099 295.717,202.665 296.405,201.23 C296.079,201.55 295.272,202.027 296.632,201.14 C295.499,201.879 294.564,202.651 293.961,203.896 C293.797,204.226 293.921,204.025 294.33,203.292 C293.935,203.805 293.666,204.376 293.52,205.005 C293.388,205.623 293.417,206.303 293.716,206.869 C294.416,208.2 295.382,208.597 296.845,208.616 C297.613,208.625 298.392,208.433 299.122,208.218 C298.04,208.165 296.958,208.114 295.876,208.061 C295.926,208.097 295.978,208.128 296.032,208.158 C297.491,208.967 299.592,208.644 300.944,207.76 C301.762,207.225 302.551,206.645 303.314,206.033 C305.252,204.482 306.731,201.026 304.847,198.879 C302.457,196.154 298.263,198.396 296.485,200.617 L296.485,200.617 Z" id="Shape"></path>
                    <path d="M213.409,190.208 C212.781,190.253 212.159,190.294 211.534,190.367 C211.257,190.399 210.979,190.408 210.701,190.415 C211.765,190.39 210.798,190.406 210.559,190.377 C208.842,190.158 207.372,190.611 206.051,191.727 C204.834,192.755 204.432,193.984 204.338,195.499 C204.278,196.463 204.967,197.274 205.711,197.759 C207.102,198.663 208.678,199.119 210.318,199.243 C212.994,199.445 215.508,198.01 216.67,195.541 C217.905,192.915 216.532,189.984 213.409,190.208 L213.409,190.208 Z" id="Shape"></path>
                    <path d="M193.196,317.335 C193.141,317.347 193.086,317.358 193.031,317.369 C193.441,317.286 193.851,317.204 194.26,317.122 C193.971,317.179 193.682,317.229 193.388,317.263 C191.509,317.482 189.951,318.369 188.787,319.872 C189.087,319.552 189.386,319.23 189.685,318.91 C189.608,318.966 189.531,319.02 189.454,319.076 C190.439,318.635 191.424,318.193 192.409,317.752 C190.826,317.833 189.339,318.442 188.352,319.743 C187.788,320.487 187.394,321.518 187.444,322.452 C187.485,323.214 187.856,323.824 188.311,324.409 C188.1,323.866 187.888,323.323 187.677,322.78 C187.679,322.88 187.682,322.979 187.685,323.079 C187.715,322.724 187.745,322.368 187.775,322.014 C187.773,322.029 187.77,322.042 187.768,322.057 C187.551,323.327 187.8,325.165 189.223,325.712 C189.894,325.971 190.564,326.197 191.262,326.362 C192.47,326.647 193.874,326.212 194.914,325.618 C196.49,324.72 197.805,323.166 198.19,321.366 C198.427,320.262 198.272,319.054 197.504,318.179 C196.99,317.617 196.358,317.271 195.608,317.139 C194.789,317.007 193.985,317.073 193.196,317.335 L193.196,317.335 Z" id="Shape"></path>
                </g>
            </g>
        </g>
    </g>
</svg>