<?xml version="1.0" encoding="UTF-8"?>
<svg width="531px" height="404px" viewBox="0 0 531 404" version="1.1" xmlns="http://www.w3.org/2000/svg" xmlns:xlink="http://www.w3.org/1999/xlink">
    <!-- Generator: Sketch 41 (35326) - http://www.bohemiancoding.com/sketch -->
    <title>table</title>
    <desc>Created with Sketch.</desc>
    <defs></defs>
    <g id="Page-1" stroke="none" stroke-width="1" fill="none" fill-rule="evenodd">
        <g id="Layer_1" transform="translate(-4827.000000, -6141.000000)" fill="#010101">
            <g id="Layer_1_3_">
                <g id="table" transform="translate(4827.000000, 6141.000000)">
                    <path d="M378.842,181.815 C387.852,177.947 396.203,171.169 404.405,165.866 C418.392,156.822 432.37,147.762 446.422,138.818 C460.537,129.835 474.737,121.001 489.218,112.616 C494.957,109.293 500.265,106.301 505.897,103.406 C508.02,102.315 510.157,101.259 512.357,100.332 C512.876,100.113 515.882,99.061 513.747,99.717 C514.415,99.512 517.44,99.075 514.737,99.405 C513.055,98.606 511.373,97.807 509.69,97.009 C509.718,97.113 509.746,97.218 509.774,97.323 C510.834,101.316 517.894,100.546 520.456,99.173 C522.415,98.123 524.601,97.019 525.753,94.984 C524.349,97.466 520.904,99.043 518.016,99.321 C521.378,98.998 525.345,97.246 526.499,93.763 C526.718,93.101 526.797,92.392 526.83,91.695 C526.909,90.006 525.643,88.574 524.204,87.908 C524.16,87.887 524.115,87.867 524.07,87.845 C519.36,85.665 511.105,88.82 509.714,94.075 C509.69,94.167 509.665,94.258 509.642,94.349 C511.281,92.76 512.92,91.172 514.56,89.583 C513.914,89.889 513.273,90.197 512.64,90.531 C511.878,90.934 509.314,92.258 511.523,91.131 C511.111,91.341 510.684,91.526 510.267,91.724 C508.054,92.78 505.877,93.93 503.708,95.071 C497.777,98.192 491.976,101.554 486.222,104.988 C471.808,113.589 457.654,122.651 443.511,131.69 C429.319,140.761 415.21,149.964 401.132,159.212 C392.388,164.955 382.544,170.15 374.511,176.861 C374.372,176.976 374.233,177.091 374.093,177.207 C369.942,180.632 375.576,183.217 378.842,181.815 L378.842,181.815 Z" id="Shape"></path>
                    <path d="M28.163,92.218 C27.244,92.32 26.325,92.42 25.406,92.522 C25.211,92.543 24.802,92.928 25.184,92.974 C26.004,93.074 26.825,93.173 27.645,93.273 C28.001,93.316 28.401,93.165 28.603,92.857 C28.829,92.513 28.547,92.176 28.163,92.218 L28.163,92.218 Z" id="Shape"></path>
                    <path d="M23.177,90.674 C20.327,89.929 17.84,88.398 14.998,87.654 C12.721,87.057 7.668,91.022 11.046,92.418 C17.445,95.062 24.838,95.788 31.582,97.278 C38.953,98.908 46.336,100.465 53.686,102.194 C68.445,105.668 83.103,109.559 97.706,113.635 C127.098,121.838 156.242,130.906 185.474,139.657 C214.68,148.401 244.004,156.785 273.688,163.765 C288.505,167.249 303.264,170.632 317.928,174.739 C332.376,178.784 346.946,182.895 361.56,186.227 C360.146,184.832 358.732,183.438 357.318,182.042 C357.48,184.543 358.754,186.285 361.17,187.033 C363.769,183.071 366.366,179.109 368.964,175.146 C367.54,175.246 366.02,174.999 364.715,174.428 C360.369,172.528 350.923,177.199 354.757,182.472 C356.253,184.529 358.749,186.257 361.17,187.033 C365.286,188.352 369.766,187.243 372.884,184.179 C375.228,181.876 376.517,177.403 372.637,175.783 L371.74,175.408 C372.49,176.136 373.239,176.863 373.988,177.591 C373.716,177.33 373.557,177.02 373.515,176.66 C373.171,175.169 370.917,174.112 369.59,173.984 C354.156,172.489 339.511,168.651 324.529,164.672 C309.741,160.744 294.871,157.516 279.929,154.247 C250.028,147.706 220.514,139.508 191.102,131.073 C161.66,122.629 132.307,113.873 102.698,106.02 C87.971,102.115 73.177,98.462 58.305,95.149 C50.897,93.498 43.463,91.948 36.007,90.527 C28.919,89.176 21.439,87.46 14.201,87.602 C13.645,89.292 13.089,90.982 12.533,92.672 C15.83,92.33 19.11,92.678 22.412,92.227 C23.111,92.136 24.473,91.014 23.177,90.674 L23.177,90.674 Z" id="Shape"></path>
                    <path d="M196.801,8.009 C222.995,18.616 251.393,25.002 278.768,31.802 C307.103,38.84 335.608,45.137 364.109,51.463 C392.723,57.815 421.299,64.357 449.633,71.874 C463.611,75.582 477.516,79.566 491.314,83.894 C497.03,85.686 503.321,88.864 509.328,89.021 C510.322,89.047 511.814,89.18 513.173,89.313 C512.896,89.286 515.292,89.615 514.771,89.435 C516.451,90.015 515.159,90.25 514.401,88.475 C514.984,86.649 515.566,84.822 516.148,82.996 C517.068,81.975 517.868,81.881 516.24,82.61 C512.986,84.069 509.078,90.025 514.949,90.96 C517.735,91.403 520.777,91.643 523.364,90.238 C525.641,89.002 528.926,86.955 528.711,83.862 C528.428,79.793 524.078,79.802 521.347,79.564 C519.661,79.417 517.985,79.233 516.295,79.131 C515.281,79.069 514.27,79.01 513.255,78.967 C512.524,78.936 511.602,78.449 512.92,78.876 C498.226,74.127 483.385,69.834 468.474,65.82 C438.874,57.851 408.94,51.185 378.973,44.761 C349.019,38.341 318.981,32.306 289.078,25.649 C274.529,22.411 260.024,18.978 245.582,15.291 C230.602,11.467 215.822,6.844 200.807,3.182 C198.517,2.624 193.351,6.612 196.801,8.009 L196.801,8.009 Z" id="Shape"></path>
                    <path d="M2.498,86.911 C2.114,93.304 3.408,99.714 2.955,106.082 C2.885,107.071 3.675,107.942 4.509,108.324 C4.606,108.368 4.702,108.413 4.799,108.457 C6.89,109.415 9.885,108.474 11.398,106.849 C14.102,103.947 11.98,100.033 11.359,96.507 C10.703,92.786 10.188,88.298 8.178,85.024 C6.811,82.797 2.637,84.575 2.498,86.911 L2.498,86.911 Z" id="Shape"></path>
                    <path d="M367.489,182.804 C366.101,186.505 366.164,190.799 366.004,194.705 C365.884,197.632 364.032,200.952 367.415,202.72 C369.965,204.053 373.557,202.26 375.059,200.144 C374.083,200.925 373.107,201.707 372.131,202.487 C372.948,202.137 373.677,201.655 374.318,201.039 C374.873,200.493 375.506,199.618 375.749,198.866 C376.424,196.781 375.473,196.044 374.805,194.305 C373.272,190.318 373.446,185.701 371.619,181.823 C370.813,180.113 367.968,181.528 367.489,182.804 L367.489,182.804 Z" id="Shape"></path>
                    <path d="M523.145,83.706 C521.359,88.078 521.174,93.115 520.657,97.757 C520.319,100.798 517.815,107.632 520.53,109.896 C523.384,112.274 527.753,110.197 529.702,107.672 C531.935,104.78 530.076,100.159 529.627,96.827 C529.015,92.29 529.069,86.968 526.972,82.796 C526.177,81.215 523.627,82.522 523.145,83.706 L523.145,83.706 Z" id="Shape"></path>
                    <path d="M368.668,204.582 C382.369,197.991 395.02,189.3 407.895,181.241 C421.528,172.709 435.005,163.937 448.715,155.526 C462.497,147.069 476.451,138.884 490.639,131.127 C497.822,127.2 505.109,123.481 512.484,119.93 C515.83,118.319 519.271,117.22 522.585,115.783 C524.938,114.762 527.214,112.372 526.897,109.639 C526.467,105.947 522.044,106.365 519.484,107.33 C516.189,108.573 513.954,110.56 512.619,113.804 C511.195,117.267 516.499,117.378 518.356,116.527 C517.856,116.756 522.144,114.983 521.127,115.192 C519.171,114.252 517.214,113.31 515.258,112.37 C515.111,113.705 515.584,114.424 516.374,115.447 C516.618,113.787 516.86,112.127 517.104,110.468 C514.967,112.479 510.959,113.637 508.341,114.973 C505.069,116.643 501.827,118.373 498.574,120.081 C492.212,123.422 485.919,126.896 479.664,130.435 C466.691,137.77 453.982,145.564 441.375,153.504 C428.854,161.39 416.366,169.355 404.057,177.567 C391.744,185.783 378.948,193.512 367.406,202.787 C365.986,203.926 367.098,205.336 368.668,204.582 L368.668,204.582 Z" id="Shape"></path>
                    <path d="M3.038,106.051 C17.88,109.45 33.024,111.545 47.897,114.903 C62.956,118.303 77.889,122.223 92.736,126.454 C123.028,135.083 152.867,145.182 182.63,155.463 C211.89,165.571 241.157,175.675 270.78,184.675 C300.833,193.806 331.27,200.357 361.969,206.868 C362.734,207.069 363.498,207.27 364.262,207.472 C366.516,204.755 368.769,202.039 371.022,199.323 C366.782,198.824 362.923,199.485 358.895,200.799 C357.204,201.351 352.762,204.641 356.256,206.198 C359.651,207.711 363.081,208.312 366.805,207.913 C369.295,207.645 371.817,206.624 373.245,204.445 C374.616,202.354 373.752,199.563 371.021,199.323 C355.195,197.927 339.078,193.866 323.553,190.551 C308.162,187.264 292.999,183.139 277.887,178.763 C247.665,170.013 217.817,160.026 187.905,150.286 C129.374,131.229 70.176,111.244 8.914,103.151 C7.641,103.074 6.366,102.997 5.092,102.919 C3.452,102.815 0.245,105.412 3.038,106.051 L3.038,106.051 Z" id="Shape"></path>
                    <path d="M20.62,113.052 C20.501,118.781 21.593,124.66 22.307,130.333 C22.722,133.629 23.142,136.926 23.478,140.23 C23.692,142.341 22.882,146.375 23.91,148.12 C26.352,152.273 33.415,149.215 34.747,145.543 C35.55,143.329 34.142,141.032 33.692,138.821 C32.992,135.371 32.242,131.929 31.484,128.492 C30.184,122.588 28.931,116.644 27.42,110.793 C26.634,107.756 20.671,110.542 20.62,113.052 L20.62,113.052 Z" id="Shape"></path>
                    <path d="M359.035,204.991 C356.44,210.83 357.228,218.766 356.924,225.044 C356.705,229.541 353.263,241.284 361.629,239.319 C369.395,237.494 366.587,229.63 366.304,223.939 C366.008,217.974 367.11,209.129 364.12,203.782 C362.966,201.717 359.745,203.394 359.035,204.991 L359.035,204.991 Z" id="Shape"></path>
                    <path d="M21.124,151.174 C35.327,155.256 49.936,158.061 64.207,161.964 C79.548,166.159 94.791,170.661 109.953,175.463 C139.974,184.973 169.72,195.343 199.483,205.624 C229.08,215.848 258.751,225.871 288.743,234.884 C303.282,239.253 318.097,244.167 333.011,247.076 C337.28,247.91 341.57,248.6 345.831,249.474 C347.728,249.863 349.579,250.53 351.485,250.831 C352.48,250.988 353.518,250.913 354.523,250.899 C356.407,250.871 356.286,251.572 353.719,250.47 C355.021,247.807 356.323,245.143 357.623,242.48 C357.6,242.484 357.575,242.487 357.551,242.491 C351.123,243.425 349.871,251.844 357.649,250.714 C357.673,250.71 357.698,250.707 357.721,250.703 C360.633,250.28 366.485,244.8 361.625,242.714 C363.736,243.619 360.219,242.058 359.753,241.864 C357.7,241.012 355.672,240.977 353.486,240.859 C348.798,240.605 344.04,239.585 339.423,238.762 C324.784,236.155 310.227,231.318 295.963,227.164 C265.357,218.253 235.144,208.049 204.933,197.896 C175.199,187.905 145.486,177.855 115.433,168.852 C100.4,164.348 85.283,160.123 70.074,156.246 C55.066,152.419 39.609,148.314 24.219,146.453 C21.621,146.141 17.048,150.003 21.124,151.174 L21.124,151.174 Z" id="Shape"></path>
                    <path d="M516.169,113.708 C513.354,123.332 516.223,134.104 514.114,143.942 C512.623,150.901 525.916,148.442 525.93,142.284 C525.941,137.331 525.529,132.331 524.808,127.43 C524.113,122.7 523.329,116.651 520.65,112.643 C519.603,111.075 516.656,112.046 516.169,113.708 L516.169,113.708 Z" id="Shape"></path>
                    <path d="M361.608,248.387 C368.649,246.085 375.015,242.189 381.399,238.501 C388.53,234.383 395.629,230.203 402.653,225.902 C416.536,217.402 429.898,208.159 443.555,199.316 C469.885,182.269 498.638,168.175 523.093,148.373 C524.748,147.033 525.674,144.166 523.951,142.515 C521.476,140.141 517.564,141.619 515.052,142.984 C512.535,144.35 510.121,145.948 508.356,148.223 C505.879,151.412 510.955,151.929 512.846,151.286 C513.734,150.983 516.868,151.323 518.474,150.868 C517.333,148.24 516.193,145.612 515.052,142.984 C490.796,161.162 464.864,176.45 439.588,193.137 C426.098,202.043 412.995,211.485 399.358,220.181 C392.442,224.59 385.483,228.93 378.485,233.207 C372.118,237.1 365.306,240.676 359.797,245.774 C358.233,247.223 359.792,248.981 361.608,248.387 L361.608,248.387 Z" id="Shape"></path>
                    <path d="M4.096,90.601 C20.441,87.54 35.967,79.928 51.032,73.143 C67.253,65.835 83.638,59.364 100.129,52.732 C116.029,46.336 131.489,38.894 147.058,31.746 C154.878,28.155 162.739,24.652 170.679,21.335 C178.962,17.874 187.617,13.932 196.462,12.205 C199.031,11.704 202.582,9.592 203.247,6.824 C203.329,6.474 203.415,6.125 203.505,5.777 C200.528,7.726 197.553,9.675 194.577,11.625 C194.351,11.606 194.127,11.588 193.901,11.568 C193.334,8.978 192.766,6.387 192.199,3.797 C193.861,1.997 196.096,0.885 192.595,3.221 C191.613,3.862 190.79,4.665 190.131,5.633 C190.744,4.912 190.831,4.806 190.393,5.314 C189.322,6.547 187.976,8.784 189.678,10.196 C192.853,12.829 197.961,12.304 201.167,9.809 C203.794,7.764 206.689,3.468 202.411,1.31 C201.636,0.918 200.813,0.757 199.968,0.645 C195.425,0.04 187.743,3.507 189.35,9.143 C189.44,9.45 189.525,9.758 189.606,10.068 C191.226,7.598 192.845,5.128 194.465,2.657 C186.722,6.17 178.486,8.712 170.616,11.954 C162.663,15.228 154.831,18.79 147.028,22.403 C130.907,29.87 114.96,37.705 98.581,44.601 C82.778,51.256 66.993,57.53 51.502,64.936 C35.575,72.551 19.52,79.305 3.069,85.688 C-0.556,87.094 -0.081,91.383 4.096,90.601 L4.096,90.601 Z" id="Shape"></path>
                    <path d="M36.702,152.786 C35.915,159.138 36.813,165.694 37.266,172.055 C37.723,178.459 38.256,184.858 38.817,191.253 C40.012,204.885 41.003,218.511 41.713,232.177 C42.374,244.888 43.471,257.534 44.383,270.228 C44.889,277.264 46.069,285.559 45.013,292.645 C48.196,291.587 51.377,290.53 54.559,289.472 C53.754,287.903 52.719,287.045 51.198,286.16 C49.804,285.35 47.575,286.443 46.788,287.647 C45.604,289.454 44.577,291.343 45.201,293.533 C46.388,297.695 53.72,293.914 54.593,291.3 C55.247,289.344 54.312,286.972 53.925,285.052 C52.954,280.224 52.91,275.212 52.42,270.316 C51.093,257.049 49.683,243.828 48.76,230.525 C47.818,216.93 46.268,203.373 44.988,189.806 C44.385,183.426 43.77,177.046 43.201,170.663 C42.629,164.245 42.658,157.597 41.09,151.329 C40.568,149.25 36.885,151.308 36.702,152.786 L36.702,152.786 Z" id="Shape"></path>
                    <path d="M56.655,159.197 C53.423,162.453 54.294,168.241 54.251,172.545 C54.191,178.528 54.444,184.508 54.764,190.482 C55.442,203.142 56.65,215.777 57.996,228.381 C59.368,241.225 60.935,254.064 61.978,266.939 C62.486,273.206 62.88,279.48 63.168,285.76 C63.295,288.535 63.375,291.313 63.439,294.09 C63.483,296.003 63.538,297.798 63.203,299.701 C62.928,301.265 62.144,302.782 63.678,300.805 C66.136,299.739 68.593,298.672 71.051,297.606 C71.74,297.723 71.006,297.555 70.784,297.448 C68.425,296.295 63.884,297.964 63.284,300.703 C63.129,301.413 62.931,302.17 62.993,302.898 C63.347,307.126 68.935,305.586 71.233,304.325 C71.295,304.292 71.356,304.258 71.419,304.223 C72.726,303.506 74.116,301.783 74.05,300.211 C73.955,297.945 73.189,295.765 73.078,293.481 C72.918,290.18 72.681,286.883 72.426,283.588 C71.946,277.354 71.288,271.133 70.579,264.921 C69.119,252.109 67.525,239.319 65.886,226.529 C64.281,214.003 62.642,201.48 61.497,188.901 C60.959,182.987 60.585,177.058 60.292,171.127 C60.116,167.562 61.362,160.99 58.015,158.865 C57.618,158.614 56.944,158.906 56.655,159.197 L56.655,159.197 Z" id="Shape"></path>
                    <path d="M46.362,292.118 C47.333,295.382 52.23,296.813 54.979,298.027 C56.616,298.75 58.259,299.465 59.856,300.277 C60.192,300.448 60.472,300.853 60.707,301.145 C60.824,301.291 62.749,303.038 61.802,301.767 C63.424,303.943 67.738,302.073 69.142,300.669 C70.749,299.064 71.428,296.93 69.781,295.09 C68.663,293.84 65.23,293.354 63.668,292.883 C59.18,291.531 54.287,289.901 49.601,289.526 C48.241,289.417 45.837,290.352 46.362,292.118 L46.362,292.118 Z" id="Shape"></path>
                    <path d="M327.696,246.247 C326.8,255.495 326.565,264.382 326.905,273.698 C327.23,282.607 327.718,291.511 328.25,300.41 C329.008,313.085 330.079,325.747 330.065,338.45 C330.054,348.815 329.953,359.179 330.031,369.544 C330.062,373.722 330.062,377.895 330.239,382.068 C330.358,384.872 330.248,387.725 333.14,389.092 C335.948,390.417 341.602,387.799 340.497,384.214 C339.15,379.84 338.228,371.505 337.977,365.533 C337.547,355.286 337.735,345.008 337.597,334.754 C337.437,322.74 336.063,310.785 334.996,298.826 C333.412,281.071 332.44,263.266 330.558,245.574 C330.396,244.047 327.811,245.066 327.696,246.247 L327.696,246.247 Z" id="Shape"></path>
                    <path d="M352.183,250.542 C348.905,282.096 355.049,314.02 353.631,345.675 C353.125,356.954 352.377,368.226 352.287,379.521 C352.248,384.313 352.338,389.132 352.949,393.891 C353.293,396.576 353.329,400.457 355.389,402.361 C358.315,405.065 365.861,401.043 363.145,397.185 C359.294,391.716 360.136,382.257 360.132,375.436 C360.126,364.234 360.772,353.042 361.109,341.849 C361.481,329.519 360.547,317.212 359.746,304.913 C358.551,286.562 357.796,267.955 355.716,249.714 C355.5,247.821 352.334,249.09 352.183,250.542 L352.183,250.542 Z" id="Shape"></path>
                    <path d="M330.917,386.164 C333.089,389.797 339.306,391.165 342.96,392.695 C344.947,393.528 347.024,394.409 348.661,395.837 C350.124,397.112 349.785,398.484 352.238,398.956 C351.548,398.485 350.858,398.015 350.169,397.544 C350.231,397.641 350.292,397.737 350.355,397.834 C351.602,399.78 354.623,399.448 356.284,398.156 C355.34,398.573 355.562,398.431 356.951,397.729 C357.884,397.106 358.795,396.197 359.14,395.096 C359.497,393.952 359.519,393.012 359.187,391.851 C358.578,389.724 354.492,388.246 352.713,387.546 C347.129,385.351 340.273,383.156 334.245,382.938 C333.04,382.894 329.933,384.519 330.917,386.164 L330.917,386.164 Z" id="Shape"></path>
                    <path d="M69.278,302.305 C72.709,302.168 76.152,301.398 79.478,300.542 C81.325,300.067 83.83,298.596 83.801,296.382 C83.766,293.621 79.933,293.912 78.246,294.653 C74.985,296.082 71.561,297.282 68.635,299.335 C67.19,300.348 67.131,302.391 69.278,302.305 L69.278,302.305 Z" id="Shape"></path>
                    <path d="M70.89,166.19 C69.891,184.325 73.268,202.678 74.525,220.763 C75.1,229.035 75.974,237.249 76.896,245.491 C78.034,255.673 79.176,265.866 79.877,276.088 C80.144,279.981 80.333,283.892 80.198,287.793 C80.158,288.952 79.972,289.894 79.554,290.978 C79.23,291.818 79.75,294.615 79.587,293.224 C79.775,294.831 81.266,295.583 82.796,295.45 C91.679,294.67 90.116,284.941 89.701,278.553 C89.007,267.889 87.428,257.274 85.904,246.704 C81.991,219.556 80.741,191.676 74.661,164.937 C74.272,163.223 70.964,164.833 70.89,166.19 L70.89,166.19 Z" id="Shape"></path>
                    <path d="M375.135,240.685 C372.533,247.65 373.028,255.539 372.839,262.862 C372.624,271.246 372.566,279.638 372.639,288.025 C372.779,304.114 373.803,320.133 374.473,336.203 C374.913,346.774 374.96,357.322 374.864,367.897 C374.828,371.828 374.852,375.757 374.6,379.681 C374.434,382.276 374.185,384.525 377.393,385.226 C381.405,386.102 387.728,379.594 381.92,378.323 C380.153,377.935 378.7,378.471 377.236,379.457 C371.871,383.071 377.749,387.005 382.076,384.092 C384.247,382.631 385.232,380.499 384.815,377.942 C384.212,374.254 384.492,370.35 384.459,366.627 C384.365,356.424 384.271,346.242 383.493,336.061 C382.271,320.079 380.812,304.18 380.265,288.152 C379.982,279.85 379.8,271.546 379.505,263.244 C379.244,255.86 380.177,247.106 377.076,240.225 C376.711,239.411 375.356,240.093 375.135,240.685 L375.135,240.685 Z" id="Shape"></path>
                    <path d="M362.25,401.035 C364.079,398.438 365.876,395.908 368.492,394.032 C370.186,392.816 373.287,391.206 374.834,391.19 C373.811,390.877 372.787,390.563 371.764,390.25 C371.803,390.285 371.843,390.32 371.883,390.355 C374.925,393.059 382.095,390.172 382.041,385.947 C381.975,380.689 373.351,383.725 371.777,386.403 C374.066,384.785 374.554,384.285 373.244,384.902 C372.865,385.066 372.491,385.237 372.119,385.416 C371.14,385.875 370.186,386.375 369.237,386.895 C367.22,387.999 365.408,389.305 363.651,390.788 C360.781,393.208 357.652,397.57 359.706,401.403 C360.233,402.385 361.776,401.709 362.25,401.035 L362.25,401.035 Z" id="Shape"></path>
                    <path d="M513.052,149.565 C511.686,158.788 512.175,168.31 512.074,177.612 C511.961,188.157 511.75,198.7 511.513,209.243 C511.291,219.122 511.034,229.001 510.73,238.879 C510.599,243.103 510.472,247.328 510.353,251.553 C510.263,254.728 508.92,258.818 511.742,261.099 C513.714,262.693 516.606,261.312 517.963,259.591 C520.388,256.516 519.402,253.087 519.342,249.445 C519.274,245.264 519.217,241.083 519.161,236.902 C519.029,227.107 518.968,217.312 518.873,207.517 C518.773,197.052 518.632,186.588 518.414,176.126 C518.223,166.946 518.514,157.419 516.517,148.414 C516.148,146.75 513.22,148.432 513.052,149.565 L513.052,149.565 Z" id="Shape"></path>
                    <path d="M500.936,161.667 C497.654,169.564 496.975,178.992 496.174,187.436 C495.281,196.85 495.147,206.325 495.138,215.775 C495.119,235.091 495.705,254.387 495.584,273.704 C495.56,277.558 501.382,276.283 503.236,275.029 C508.006,271.803 512.625,268.373 516.999,264.627 C521.388,260.867 520.309,255.029 513.766,256.93 C511.452,257.602 506.532,262.987 511.672,263.333 C512.746,263.491 512.395,263.127 510.616,262.24 C510.754,261.35 510.891,260.461 511.029,259.57 C511.275,259.143 510.037,260.576 509.495,261.149 C508.349,262.36 506.978,263.38 505.667,264.404 C503.173,266.353 500.603,268.213 498.002,270.017 C500.553,270.458 503.104,270.9 505.654,271.342 C505.456,252.821 503.5,234.284 502.8,215.771 C502.446,206.389 502.413,197.009 502.649,187.625 C502.868,178.846 504.633,169.921 504.414,161.18 C504.366,159.296 501.366,160.633 500.936,161.667 L500.936,161.667 Z" id="Shape"></path>
                    <path d="M478.37,268.229 C483.454,270.182 488.375,272.488 493.39,274.597 C495.552,275.506 498.26,274.6 499.87,273.018 C501.131,271.78 501.917,269.216 499.733,268.372 C494.011,266.162 487.827,264.66 481.715,264.195 C480.447,264.099 479.214,264.437 478.284,265.351 C477.505,266.118 477.015,267.709 478.37,268.229 L478.37,268.229 Z" id="Shape"></path>
                    <path d="M478.022,175.125 C475.597,181.876 476.215,190.014 476.075,197.083 C475.9,205.875 475.743,214.67 475.679,223.464 C475.619,231.593 475.566,239.724 475.486,247.853 C475.455,251.041 475.47,254.232 475.281,257.416 C475.117,260.195 474.263,263.662 477.535,264.904 C479.592,265.685 481.66,264.855 483.258,263.509 C487.483,259.949 485.149,251.775 484.976,246.904 C484.693,238.945 484.374,230.986 484.063,223.027 C483.722,214.349 483.306,205.674 482.924,196.998 C482.615,189.959 483.454,181.103 480.612,174.511 C480.141,173.42 478.303,174.338 478.022,175.125 L478.022,175.125 Z" id="Shape"></path>
                    <path d="M111.61,131.832 C111.86,137.159 111.872,142.366 111.585,147.695 C111.28,153.354 111.774,158.735 112.065,164.36 C112.251,167.944 119.503,164.772 117.877,162.429 C114.937,158.193 115.64,151.701 115.602,146.752 C115.562,141.56 115.976,135.937 114.169,130.981 C113.772,129.892 111.564,130.841 111.61,131.832 L111.61,131.832 Z" id="Shape"></path>
                    <path d="M254.166,179.549 C253.276,185.464 253.565,191.614 253.253,197.582 C253.095,200.608 253.034,203.658 252.681,206.67 C252.473,208.437 251.37,210.692 253.162,211.934 C254.479,212.846 256.563,212.485 257.626,211.266 C259.194,209.469 258.978,208.541 258.584,206.328 C258.093,203.571 258.136,200.669 257.985,197.879 C257.649,191.614 258,185.083 256.998,178.886 C256.749,177.345 254.336,178.413 254.166,179.549 L254.166,179.549 Z" id="Shape"></path>
                    <path d="M113,163.277 C115.364,165.463 118.434,166.536 121.37,167.742 C126.955,170.035 132.637,172.085 138.325,174.101 C153.849,179.607 169.508,184.738 185.167,189.844 C200.161,194.734 215.215,199.442 230.229,204.27 C235.12,205.843 240.01,207.418 244.876,209.066 C245.993,209.444 247.348,209.678 248.135,210.577 C248.65,211.165 249.543,211.186 250.259,211.262 C250.407,211.278 250.555,211.298 250.702,211.32 C253.203,211.701 249.143,210.775 249.613,209.403 C248.559,212.481 254.406,211.503 255.207,209.163 C255.27,208.982 255.428,206.062 255.264,208.487 C255.299,207.967 254.916,207.56 254.579,207.22 C253.217,205.852 252.228,206.345 250.822,205.921 C246.597,204.649 242.413,203.227 238.201,201.912 C223.656,197.375 209.082,192.936 194.529,188.426 C178.345,183.409 162.148,178.43 146.052,173.133 C139.766,171.064 133.494,168.943 127.271,166.693 C123.447,165.31 119.71,163.422 115.818,162.273 C115.456,162.166 115.103,162.007 114.757,161.858 C114.077,161.564 112.133,162.475 113,163.277 L113,163.277 Z" id="Shape"></path>
                    <path d="M151.804,157.266 C150.638,158.103 149.223,158.423 148.023,159.218 C146.307,160.354 145.583,162.371 145.925,164.35 C146.022,164.905 146.229,165.442 146.824,165.648 C150.221,166.823 153.938,167.335 157.535,167.194 C159.112,167.132 161.025,166.151 161.55,164.564 C162.097,162.908 160.504,162.264 159.176,162.21 C156.117,162.083 153.272,162.296 150.265,161.501 C150.727,161.816 151.19,162.132 151.653,162.447 C151.576,162.159 151.484,161.074 151.329,161.343 C150.976,161.948 150.823,161.778 151.518,161.476 C152.754,160.939 153.93,160.319 154.834,159.298 C156.853,157.02 153.569,155.999 151.804,157.266 L151.804,157.266 Z" id="Shape"></path>
                    <path d="M196.616,170.25 C196.643,170.337 196.669,170.424 196.694,170.512 C196.722,170.331 196.75,170.152 196.778,169.972 C195.946,171.071 196.269,171.789 196.674,173.007 C197.197,174.58 197.693,176.131 197.918,177.778 C199.261,176.896 200.604,176.014 201.945,175.132 C200.163,174.903 198.494,174.224 196.684,174.751 C195.558,175.08 194.474,175.626 193.81,176.639 C193.209,177.556 193.225,178.945 194.414,179.397 C196.31,180.119 198.056,179.412 199.954,179.19 C201.299,179.033 203.991,177.854 203.233,176.011 C202.5,174.226 201.67,172.474 200.548,170.9 C200.204,170.418 199.843,169.779 199.279,169.518 C198.848,169.32 198.31,169.477 198.204,169.385 C197.68,168.933 196.375,169.497 196.616,170.25 L196.616,170.25 Z" id="Shape"></path>
                    <path d="M160.787,165.77 C158.764,172.848 166.976,177.854 172.691,179.588 C176.26,180.67 180.403,179.752 184.006,179.336 C184.532,179.274 185.061,179.248 185.591,179.259 C186.025,179.254 183.945,178.248 185.194,179.445 C185.889,180.112 187.072,180.268 187.969,180.057 C190.121,179.551 191.995,177.877 192.009,175.571 C192.028,172.648 188.061,172.701 186.104,172.964 C181.651,173.564 177.599,174.706 173.165,173.242 C168.34,171.648 165.79,168.533 162.181,165.304 C161.779,164.945 160.927,165.281 160.787,165.77 L160.787,165.77 Z" id="Shape"></path>
                    <path d="M158.798,159.596 C159.713,160.209 160.656,160.891 161.335,161.766 C161.087,161.447 161.437,161.985 161.449,162.01 C161.584,162.261 161.692,162.531 161.804,162.793 C162.083,163.441 162.215,164.099 162.577,164.715 C163.224,165.813 164.524,165.953 165.681,165.682 C166.847,165.409 169.115,164.175 168.854,162.629 C168.229,158.932 164.806,157.375 161.42,157.029 C160.556,156.941 159.685,157.209 159.057,157.826 C158.677,158.201 158.159,159.167 158.798,159.596 L158.798,159.596 Z" id="Shape"></path>
                </g>
            </g>
        </g>
    </g>
</svg>