<?xml version="1.0" encoding="UTF-8" standalone="no"?><!DOCTYPE svg PUBLIC "-//W3C//DTD SVG 1.1//EN" "http://www.w3.org/Graphics/SVG/1.1/DTD/svg11.dtd"><svg width="100%" height="100%" viewBox="0 0 531 404" version="1.1" xmlns="http://www.w3.org/2000/svg" xmlns:xlink="http://www.w3.org/1999/xlink" xml:space="preserve" style="fill-rule:evenodd;clip-rule:evenodd;stroke-linejoin:round;stroke-miterlimit:1.41421;"><g id="table"><path d="M378.842,181.815c9.01,-3.868 17.361,-10.646 25.563,-15.949c13.987,-9.044 27.965,-18.104 42.017,-27.048c14.115,-8.983 28.315,-17.817 42.796,-26.202c5.739,-3.323 11.047,-6.315 16.679,-9.21c2.123,-1.091 4.26,-2.147 6.46,-3.074c0.519,-0.219 3.525,-1.271 1.39,-0.615c0.668,-0.205 3.693,-0.642 0.99,-0.312c-1.682,-0.799 -3.364,-1.598 -5.047,-2.396c0.028,0.104 0.056,0.209 0.084,0.314c1.06,3.993 8.12,3.223 10.682,1.85c1.959,-1.05 4.145,-2.154 5.297,-4.189c-1.404,2.482 -4.849,4.059 -7.737,4.337c3.362,-0.323 7.329,-2.075 8.483,-5.558c0.219,-0.662 0.298,-1.371 0.331,-2.068c0.079,-1.689 -1.187,-3.121 -2.626,-3.787c-0.044,-0.021 -0.089,-0.041 -0.134,-0.063c-4.71,-2.18 -12.965,0.975 -14.356,6.23c-0.024,0.092 -0.049,0.183 -0.072,0.274c1.639,-1.589 3.278,-3.177 4.918,-4.766c-0.646,0.306 -1.287,0.614 -1.92,0.948c-0.762,0.403 -3.326,1.727 -1.117,0.6c-0.412,0.21 -0.839,0.395 -1.256,0.593c-2.213,1.056 -4.39,2.206 -6.559,3.347c-5.931,3.121 -11.732,6.483 -17.486,9.917c-14.414,8.601 -28.568,17.663 -42.711,26.702c-14.192,9.071 -28.301,18.274 -42.379,27.522c-8.744,5.743 -18.588,10.938 -26.621,17.649c-0.139,0.115 -0.278,0.23 -0.418,0.346c-4.151,3.425 1.483,6.01 4.749,4.608Z" style="fill:#010101;fill-rule:nonzero;"/><path d="M28.163,92.218c-0.919,0.102 -1.838,0.202 -2.757,0.304c-0.195,0.021 -0.604,0.406 -0.222,0.452c0.82,0.1 1.641,0.199 2.461,0.299c0.356,0.043 0.756,-0.108 0.958,-0.416c0.226,-0.344 -0.056,-0.681 -0.44,-0.639Z" style="fill:#010101;fill-rule:nonzero;"/><path d="M23.177,90.674c-2.85,-0.745 -5.337,-2.276 -8.179,-3.02c-2.277,-0.597 -7.33,3.368 -3.952,4.764c6.399,2.644 13.792,3.37 20.536,4.86c7.371,1.63 14.754,3.187 22.104,4.916c14.759,3.474 29.417,7.365 44.02,11.441c29.392,8.203 58.536,17.271 87.768,26.022c29.206,8.744 58.53,17.128 88.214,24.108c14.817,3.484 29.576,6.867 44.24,10.974c14.448,4.045 29.018,8.156 43.632,11.488c-1.414,-1.395 -2.828,-2.789 -4.242,-4.185c0.162,2.501 1.436,4.243 3.852,4.991c2.599,-3.962 5.196,-7.924 7.794,-11.887c-1.424,0.1 -2.944,-0.147 -4.249,-0.718c-4.346,-1.9 -13.792,2.771 -9.958,8.044c1.496,2.057 3.992,3.785 6.413,4.561c4.116,1.319 8.596,0.21 11.714,-2.854c2.344,-2.303 3.633,-6.776 -0.247,-8.396c-0.299,-0.125 -0.598,-0.25 -0.897,-0.375c0.75,0.728 1.499,1.455 2.248,2.183c-0.272,-0.261 -0.431,-0.571 -0.473,-0.931c-0.344,-1.491 -2.598,-2.548 -3.925,-2.676c-15.434,-1.495 -30.079,-5.333 -45.061,-9.312c-14.788,-3.928 -29.658,-7.156 -44.6,-10.425c-29.901,-6.541 -59.415,-14.739 -88.827,-23.174c-29.442,-8.444 -58.795,-17.2 -88.404,-25.053c-14.727,-3.905 -29.521,-7.558 -44.393,-10.871c-7.408,-1.651 -14.842,-3.201 -22.298,-4.622c-7.088,-1.351 -14.568,-3.067 -21.806,-2.925c-0.556,1.69 -1.112,3.38 -1.668,5.07c3.297,-0.342 6.577,0.006 9.879,-0.445c0.699,-0.091 2.061,-1.213 0.765,-1.553Z" style="fill:#010101;fill-rule:nonzero;"/><path d="M196.801,8.009c26.194,10.607 54.592,16.993 81.967,23.793c28.335,7.038 56.84,13.335 85.341,19.661c28.614,6.352 57.19,12.894 85.524,20.411c13.978,3.708 27.883,7.692 41.681,12.02c5.716,1.792 12.007,4.97 18.014,5.127c0.994,0.026 2.486,0.159 3.845,0.292c-0.277,-0.027 2.119,0.302 1.598,0.122c1.68,0.58 0.388,0.815 -0.37,-0.96c0.583,-1.826 1.165,-3.653 1.747,-5.479c0.92,-1.021 1.72,-1.115 0.092,-0.386c-3.254,1.459 -7.162,7.415 -1.291,8.35c2.786,0.443 5.828,0.683 8.415,-0.722c2.277,-1.236 5.562,-3.283 5.347,-6.376c-0.283,-4.069 -4.633,-4.06 -7.364,-4.298c-1.686,-0.147 -3.362,-0.331 -5.052,-0.433c-1.014,-0.062 -2.025,-0.121 -3.04,-0.164c-0.731,-0.031 -1.653,-0.518 -0.335,-0.091c-14.694,-4.749 -29.535,-9.042 -44.446,-13.056c-29.6,-7.969 -59.534,-14.635 -89.501,-21.059c-29.954,-6.42 -59.992,-12.455 -89.895,-19.112c-14.549,-3.238 -29.054,-6.671 -43.496,-10.358c-14.98,-3.824 -29.76,-8.447 -44.775,-12.109c-2.29,-0.558 -7.456,3.43 -4.006,4.827Z" style="fill:#010101;fill-rule:nonzero;"/><path d="M2.498,86.911c-0.384,6.393 0.91,12.803 0.457,19.171c-0.07,0.989 0.72,1.86 1.554,2.242c0.097,0.044 0.193,0.089 0.29,0.133c2.091,0.958 5.086,0.017 6.599,-1.608c2.704,-2.902 0.582,-6.816 -0.039,-10.342c-0.656,-3.721 -1.171,-8.209 -3.181,-11.483c-1.367,-2.227 -5.541,-0.449 -5.68,1.887Z" style="fill:#010101;fill-rule:nonzero;"/><path d="M367.489,182.804c-1.388,3.701 -1.325,7.995 -1.485,11.901c-0.12,2.927 -1.972,6.247 1.411,8.015c2.55,1.333 6.142,-0.46 7.644,-2.576c-0.976,0.781 -1.952,1.563 -2.928,2.343c0.817,-0.35 1.546,-0.832 2.187,-1.448c0.555,-0.546 1.188,-1.421 1.431,-2.173c0.675,-2.085 -0.276,-2.822 -0.944,-4.561c-1.533,-3.987 -1.359,-8.604 -3.186,-12.482c-0.806,-1.71 -3.651,-0.295 -4.13,0.981Z" style="fill:#010101;fill-rule:nonzero;"/><path d="M523.145,83.706c-1.786,4.372 -1.971,9.409 -2.488,14.051c-0.338,3.041 -2.842,9.875 -0.127,12.139c2.854,2.378 7.223,0.301 9.172,-2.224c2.233,-2.892 0.374,-7.513 -0.075,-10.845c-0.612,-4.537 -0.558,-9.859 -2.655,-14.031c-0.795,-1.581 -3.345,-0.274 -3.827,0.91Z" style="fill:#010101;fill-rule:nonzero;"/><path d="M368.668,204.582c13.701,-6.591 26.352,-15.282 39.227,-23.341c13.633,-8.532 27.11,-17.304 40.82,-25.715c13.782,-8.457 27.736,-16.642 41.924,-24.399c7.183,-3.927 14.47,-7.646 21.845,-11.197c3.346,-1.611 6.787,-2.71 10.101,-4.147c2.353,-1.021 4.629,-3.411 4.312,-6.144c-0.43,-3.692 -4.853,-3.274 -7.413,-2.309c-3.295,1.243 -5.53,3.23 -6.865,6.474c-1.424,3.463 3.88,3.574 5.737,2.723c-0.5,0.229 3.788,-1.544 2.771,-1.335c-1.956,-0.94 -3.913,-1.882 -5.869,-2.822c-0.147,1.335 0.326,2.054 1.116,3.077c0.244,-1.66 0.486,-3.32 0.73,-4.979c-2.137,2.011 -6.145,3.169 -8.763,4.505c-3.272,1.67 -6.514,3.4 -9.767,5.108c-6.362,3.341 -12.655,6.815 -18.91,10.354c-12.973,7.335 -25.682,15.129 -38.289,23.069c-12.521,7.886 -25.009,15.851 -37.318,24.063c-12.313,8.216 -25.109,15.945 -36.651,25.22c-1.42,1.139 -0.308,2.549 1.262,1.795Z" style="fill:#010101;fill-rule:nonzero;"/><path d="M3.038,106.051c14.842,3.399 29.986,5.494 44.859,8.852c15.059,3.4 29.992,7.32 44.839,11.551c30.292,8.629 60.131,18.728 89.894,29.009c29.26,10.108 58.527,20.212 88.15,29.212c30.053,9.131 60.49,15.682 91.189,22.193c0.765,0.201 1.529,0.402 2.293,0.604c2.254,-2.717 4.507,-5.433 6.76,-8.149c-4.24,-0.499 -8.099,0.162 -12.127,1.476c-1.691,0.552 -6.133,3.842 -2.639,5.399c3.395,1.513 6.825,2.114 10.549,1.715c2.49,-0.268 5.012,-1.289 6.44,-3.468c1.371,-2.091 0.507,-4.882 -2.224,-5.122c-15.826,-1.396 -31.943,-5.457 -47.468,-8.772c-15.391,-3.287 -30.554,-7.412 -45.666,-11.788c-30.222,-8.75 -60.07,-18.737 -89.982,-28.477c-58.531,-19.057 -117.729,-39.042 -178.991,-47.135c-1.273,-0.077 -2.548,-0.154 -3.822,-0.232c-1.64,-0.104 -4.847,2.493 -2.054,3.132Z" style="fill:#010101;fill-rule:nonzero;"/><path d="M20.62,113.052c-0.119,5.729 0.973,11.608 1.687,17.281c0.415,3.296 0.835,6.593 1.171,9.897c0.214,2.111 -0.596,6.145 0.432,7.89c2.442,4.153 9.505,1.095 10.837,-2.577c0.803,-2.214 -0.605,-4.511 -1.055,-6.722c-0.7,-3.45 -1.45,-6.892 -2.208,-10.329c-1.3,-5.904 -2.553,-11.848 -4.064,-17.699c-0.786,-3.037 -6.749,-0.251 -6.8,2.259Z" style="fill:#010101;fill-rule:nonzero;"/><path d="M359.035,204.991c-2.595,5.839 -1.807,13.775 -2.111,20.053c-0.219,4.497 -3.661,16.24 4.705,14.275c7.766,-1.825 4.958,-9.689 4.675,-15.38c-0.296,-5.965 0.806,-14.81 -2.184,-20.157c-1.154,-2.065 -4.375,-0.388 -5.085,1.209Z" style="fill:#010101;fill-rule:nonzero;"/><path d="M21.124,151.174c14.203,4.082 28.812,6.887 43.083,10.79c15.341,4.195 30.584,8.697 45.746,13.499c30.021,9.51 59.767,19.88 89.53,30.161c29.597,10.224 59.268,20.247 89.26,29.26c14.539,4.369 29.354,9.283 44.268,12.192c4.269,0.834 8.559,1.524 12.82,2.398c1.897,0.389 3.748,1.056 5.654,1.357c0.995,0.157 2.033,0.082 3.038,0.068c1.884,-0.028 1.763,0.673 -0.804,-0.429c1.302,-2.663 2.604,-5.327 3.904,-7.99c-0.023,0.004 -0.048,0.007 -0.072,0.011c-6.428,0.934 -7.68,9.353 0.098,8.223c0.024,-0.004 0.049,-0.007 0.072,-0.011c2.912,-0.423 8.764,-5.903 3.904,-7.989c2.111,0.905 -1.406,-0.656 -1.872,-0.85c-2.053,-0.852 -4.081,-0.887 -6.267,-1.005c-4.688,-0.254 -9.446,-1.274 -14.063,-2.097c-14.639,-2.607 -29.196,-7.444 -43.46,-11.598c-30.606,-8.911 -60.819,-19.115 -91.03,-29.268c-29.734,-9.991 -59.447,-20.041 -89.5,-29.044c-15.033,-4.504 -30.15,-8.729 -45.359,-12.606c-15.008,-3.827 -30.465,-7.932 -45.855,-9.793c-2.598,-0.312 -7.171,3.55 -3.095,4.721Z" style="fill:#010101;fill-rule:nonzero;"/><path d="M516.169,113.708c-2.815,9.624 0.054,20.396 -2.055,30.234c-1.491,6.959 11.802,4.5 11.816,-1.658c0.011,-4.953 -0.401,-9.953 -1.122,-14.854c-0.695,-4.73 -1.479,-10.779 -4.158,-14.787c-1.047,-1.568 -3.994,-0.597 -4.481,1.065Z" style="fill:#010101;fill-rule:nonzero;"/><path d="M361.608,248.387c7.041,-2.302 13.407,-6.198 19.791,-9.886c7.131,-4.118 14.23,-8.298 21.254,-12.599c13.883,-8.5 27.245,-17.743 40.902,-26.586c26.33,-17.047 55.083,-31.141 79.538,-50.943c1.655,-1.34 2.581,-4.207 0.858,-5.858c-2.475,-2.374 -6.387,-0.896 -8.899,0.469c-2.517,1.366 -4.931,2.964 -6.696,5.239c-2.477,3.189 2.599,3.706 4.49,3.063c0.888,-0.303 4.022,0.037 5.628,-0.418c-1.141,-2.628 -2.281,-5.256 -3.422,-7.884c-24.256,18.178 -50.188,33.466 -75.464,50.153c-13.49,8.906 -26.593,18.348 -40.23,27.044c-6.916,4.409 -13.875,8.749 -20.873,13.026c-6.367,3.893 -13.179,7.469 -18.688,12.567c-1.564,1.449 -0.005,3.207 1.811,2.613Z" style="fill:#010101;fill-rule:nonzero;"/><path d="M4.096,90.601c16.345,-3.061 31.871,-10.673 46.936,-17.458c16.221,-7.308 32.606,-13.779 49.097,-20.411c15.9,-6.396 31.36,-13.838 46.929,-20.986c7.82,-3.591 15.681,-7.094 23.621,-10.411c8.283,-3.461 16.938,-7.403 25.783,-9.13c2.569,-0.501 6.12,-2.613 6.785,-5.381c0.082,-0.35 0.168,-0.699 0.258,-1.047c-2.977,1.949 -5.952,3.898 -8.928,5.848c-0.226,-0.019 -0.45,-0.037 -0.676,-0.057c-0.567,-2.59 -1.135,-5.181 -1.702,-7.771c1.662,-1.8 3.897,-2.912 0.396,-0.576c-0.982,0.641 -1.805,1.444 -2.464,2.412c0.613,-0.721 0.7,-0.827 0.262,-0.319c-1.071,1.233 -2.417,3.47 -0.715,4.882c3.175,2.633 8.283,2.108 11.489,-0.387c2.627,-2.045 5.522,-6.341 1.244,-8.499c-0.775,-0.392 -1.598,-0.553 -2.443,-0.665c-4.543,-0.605 -12.225,2.862 -10.618,8.498c0.09,0.307 0.175,0.615 0.256,0.925c1.62,-2.47 3.239,-4.94 4.859,-7.411c-7.743,3.513 -15.979,6.055 -23.849,9.297c-7.953,3.274 -15.785,6.836 -23.588,10.449c-16.121,7.467 -32.068,15.302 -48.447,22.198c-15.803,6.655 -31.588,12.929 -47.079,20.335c-15.927,7.615 -31.982,14.369 -48.433,20.752c-3.625,1.406 -3.15,5.695 1.027,4.913Z" style="fill:#010101;fill-rule:nonzero;"/><path d="M36.702,152.786c-0.787,6.352 0.111,12.908 0.564,19.269c0.457,6.404 0.99,12.803 1.551,19.198c1.195,13.632 2.186,27.258 2.896,40.924c0.661,12.711 1.758,25.357 2.67,38.051c0.506,7.036 1.686,15.331 0.63,22.417c3.183,-1.058 6.364,-2.115 9.546,-3.173c-0.805,-1.569 -1.84,-2.427 -3.361,-3.312c-1.394,-0.81 -3.623,0.283 -4.41,1.487c-1.184,1.807 -2.211,3.696 -1.587,5.886c1.187,4.162 8.519,0.381 9.392,-2.233c0.654,-1.956 -0.281,-4.328 -0.668,-6.248c-0.971,-4.828 -1.015,-9.84 -1.505,-14.736c-1.327,-13.267 -2.737,-26.488 -3.66,-39.791c-0.942,-13.595 -2.492,-27.152 -3.772,-40.719c-0.603,-6.38 -1.218,-12.76 -1.787,-19.143c-0.572,-6.418 -0.543,-13.066 -2.111,-19.334c-0.522,-2.079 -4.205,-0.021 -4.388,1.457Z" style="fill:#010101;fill-rule:nonzero;"/><path d="M56.655,159.197c-3.232,3.256 -2.361,9.044 -2.404,13.348c-0.06,5.983 0.193,11.963 0.513,17.937c0.678,12.66 1.886,25.295 3.232,37.899c1.372,12.844 2.939,25.683 3.982,38.558c0.508,6.267 0.902,12.541 1.19,18.821c0.127,2.775 0.207,5.553 0.271,8.33c0.044,1.913 0.099,3.708 -0.236,5.611c-0.275,1.564 -1.059,3.081 0.475,1.104c2.458,-1.066 4.915,-2.133 7.373,-3.199c0.689,0.117 -0.045,-0.051 -0.267,-0.158c-2.359,-1.153 -6.9,0.516 -7.5,3.255c-0.155,0.71 -0.353,1.467 -0.291,2.195c0.354,4.228 5.942,2.688 8.24,1.427c0.062,-0.033 0.123,-0.067 0.186,-0.102c1.307,-0.717 2.697,-2.44 2.631,-4.012c-0.095,-2.266 -0.861,-4.446 -0.972,-6.73c-0.16,-3.301 -0.397,-6.598 -0.652,-9.893c-0.48,-6.234 -1.138,-12.455 -1.847,-18.667c-1.46,-12.812 -3.054,-25.602 -4.693,-38.392c-1.605,-12.526 -3.244,-25.049 -4.389,-37.628c-0.538,-5.914 -0.912,-11.843 -1.205,-17.774c-0.176,-3.565 1.07,-10.137 -2.277,-12.262c-0.397,-0.251 -1.071,0.041 -1.36,0.332Z" style="fill:#010101;fill-rule:nonzero;"/><path d="M46.362,292.118c0.971,3.264 5.868,4.695 8.617,5.909c1.637,0.723 3.28,1.438 4.877,2.25c0.336,0.171 0.616,0.576 0.851,0.868c0.117,0.146 2.042,1.893 1.095,0.622c1.622,2.176 5.936,0.306 7.34,-1.098c1.607,-1.605 2.286,-3.739 0.639,-5.579c-1.118,-1.25 -4.551,-1.736 -6.113,-2.207c-4.488,-1.352 -9.381,-2.982 -14.067,-3.357c-1.36,-0.109 -3.764,0.826 -3.239,2.592Z" style="fill:#010101;fill-rule:nonzero;"/><path d="M327.696,246.247c-0.896,9.248 -1.131,18.135 -0.791,27.451c0.325,8.909 0.813,17.813 1.345,26.712c0.758,12.675 1.829,25.337 1.815,38.04c-0.011,10.365 -0.112,20.729 -0.034,31.094c0.031,4.178 0.031,8.351 0.208,12.524c0.119,2.804 0.009,5.657 2.901,7.024c2.808,1.325 8.462,-1.293 7.357,-4.878c-1.347,-4.374 -2.269,-12.709 -2.52,-18.681c-0.43,-10.247 -0.242,-20.525 -0.38,-30.779c-0.16,-12.014 -1.534,-23.969 -2.601,-35.928c-1.584,-17.755 -2.556,-35.56 -4.438,-53.252c-0.162,-1.527 -2.747,-0.508 -2.862,0.673Z" style="fill:#010101;fill-rule:nonzero;"/><path d="M352.183,250.542c-3.278,31.554 2.866,63.478 1.448,95.133c-0.506,11.279 -1.254,22.551 -1.344,33.846c-0.039,4.792 0.051,9.611 0.662,14.37c0.344,2.685 0.38,6.566 2.44,8.47c2.926,2.704 10.472,-1.318 7.756,-5.176c-3.851,-5.469 -3.009,-14.928 -3.013,-21.749c-0.006,-11.202 0.64,-22.394 0.977,-33.587c0.372,-12.33 -0.562,-24.637 -1.363,-36.936c-1.195,-18.351 -1.95,-36.958 -4.03,-55.199c-0.216,-1.893 -3.382,-0.624 -3.533,0.828Z" style="fill:#010101;fill-rule:nonzero;"/><path d="M330.917,386.164c2.172,3.633 8.389,5.001 12.043,6.531c1.987,0.833 4.064,1.714 5.701,3.142c1.463,1.275 1.124,2.647 3.577,3.119c-0.69,-0.471 -1.38,-0.941 -2.069,-1.412c0.062,0.097 0.123,0.193 0.186,0.29c1.247,1.946 4.268,1.614 5.929,0.322c-0.944,0.417 -0.722,0.275 0.667,-0.427c0.933,-0.623 1.844,-1.532 2.189,-2.633c0.357,-1.144 0.379,-2.084 0.047,-3.245c-0.609,-2.127 -4.695,-3.605 -6.474,-4.305c-5.584,-2.195 -12.44,-4.39 -18.468,-4.608c-1.205,-0.044 -4.312,1.581 -3.328,3.226Z" style="fill:#010101;fill-rule:nonzero;"/><path d="M69.278,302.305c3.431,-0.137 6.874,-0.907 10.2,-1.763c1.847,-0.475 4.352,-1.946 4.323,-4.16c-0.035,-2.761 -3.868,-2.47 -5.555,-1.729c-3.261,1.429 -6.685,2.629 -9.611,4.682c-1.445,1.013 -1.504,3.056 0.643,2.97Z" style="fill:#010101;fill-rule:nonzero;"/><path d="M70.89,166.19c-0.999,18.135 2.378,36.488 3.635,54.573c0.575,8.272 1.449,16.486 2.371,24.728c1.138,10.182 2.28,20.375 2.981,30.597c0.267,3.893 0.456,7.804 0.321,11.705c-0.04,1.159 -0.226,2.101 -0.644,3.185c-0.324,0.84 0.196,3.637 0.033,2.246c0.188,1.607 1.679,2.359 3.209,2.226c8.883,-0.78 7.32,-10.509 6.905,-16.897c-0.694,-10.664 -2.273,-21.279 -3.797,-31.849c-3.913,-27.148 -5.163,-55.028 -11.243,-81.767c-0.389,-1.714 -3.697,-0.104 -3.771,1.253Z" style="fill:#010101;fill-rule:nonzero;"/><path d="M375.135,240.685c-2.602,6.965 -2.107,14.854 -2.296,22.177c-0.215,8.384 -0.273,16.776 -0.2,25.163c0.14,16.089 1.164,32.108 1.834,48.178c0.44,10.571 0.487,21.119 0.391,31.694c-0.036,3.931 -0.012,7.86 -0.264,11.784c-0.166,2.595 -0.415,4.844 2.793,5.545c4.012,0.876 10.335,-5.632 4.527,-6.903c-1.767,-0.388 -3.22,0.148 -4.684,1.134c-5.365,3.614 0.513,7.548 4.84,4.635c2.171,-1.461 3.156,-3.593 2.739,-6.15c-0.603,-3.688 -0.323,-7.592 -0.356,-11.315c-0.094,-10.203 -0.188,-20.385 -0.966,-30.566c-1.222,-15.982 -2.681,-31.881 -3.228,-47.909c-0.283,-8.302 -0.465,-16.606 -0.76,-24.908c-0.261,-7.384 0.672,-16.138 -2.429,-23.019c-0.365,-0.814 -1.72,-0.132 -1.941,0.46Z" style="fill:#010101;fill-rule:nonzero;"/><path d="M362.25,401.035c1.829,-2.597 3.626,-5.127 6.242,-7.003c1.694,-1.216 4.795,-2.826 6.342,-2.842c-1.023,-0.313 -2.047,-0.627 -3.07,-0.94c0.039,0.035 0.079,0.07 0.119,0.105c3.042,2.704 10.212,-0.183 10.158,-4.408c-0.066,-5.258 -8.69,-2.222 -10.264,0.456c2.289,-1.618 2.777,-2.118 1.467,-1.501c-0.379,0.164 -0.753,0.335 -1.125,0.514c-0.979,0.459 -1.933,0.959 -2.882,1.479c-2.017,1.104 -3.829,2.41 -5.586,3.893c-2.87,2.42 -5.999,6.782 -3.945,10.615c0.527,0.982 2.07,0.306 2.544,-0.368Z" style="fill:#010101;fill-rule:nonzero;"/><path d="M513.052,149.565c-1.366,9.223 -0.877,18.745 -0.978,28.047c-0.113,10.545 -0.324,21.088 -0.561,31.631c-0.222,9.879 -0.479,19.758 -0.783,29.636c-0.131,4.224 -0.258,8.449 -0.377,12.674c-0.09,3.175 -1.433,7.265 1.389,9.546c1.972,1.594 4.864,0.213 6.221,-1.508c2.425,-3.075 1.439,-6.504 1.379,-10.146c-0.068,-4.181 -0.125,-8.362 -0.181,-12.543c-0.132,-9.795 -0.193,-19.59 -0.288,-29.385c-0.1,-10.465 -0.241,-20.929 -0.459,-31.391c-0.191,-9.18 0.1,-18.707 -1.897,-27.712c-0.369,-1.664 -3.297,0.018 -3.465,1.151Z" style="fill:#010101;fill-rule:nonzero;"/><path d="M500.936,161.667c-3.282,7.897 -3.961,17.325 -4.762,25.769c-0.893,9.414 -1.027,18.889 -1.036,28.339c-0.019,19.316 0.567,38.612 0.446,57.929c-0.024,3.854 5.798,2.579 7.652,1.325c4.77,-3.226 9.389,-6.656 13.763,-10.402c4.389,-3.76 3.31,-9.598 -3.233,-7.697c-2.314,0.672 -7.234,6.057 -2.094,6.403c1.074,0.158 0.723,-0.206 -1.056,-1.093c0.138,-0.89 0.275,-1.779 0.413,-2.67c0.246,-0.427 -0.992,1.006 -1.534,1.579c-1.146,1.211 -2.517,2.231 -3.828,3.255c-2.494,1.949 -5.064,3.809 -7.665,5.613c2.551,0.441 5.102,0.883 7.652,1.325c-0.198,-18.521 -2.154,-37.058 -2.854,-55.571c-0.354,-9.382 -0.387,-18.762 -0.151,-28.146c0.219,-8.779 1.984,-17.704 1.765,-26.445c-0.048,-1.884 -3.048,-0.547 -3.478,0.487Z" style="fill:#010101;fill-rule:nonzero;"/><path d="M478.37,268.229c5.084,1.953 10.005,4.259 15.02,6.368c2.162,0.909 4.87,0.003 6.48,-1.579c1.261,-1.238 2.047,-3.802 -0.137,-4.646c-5.722,-2.21 -11.906,-3.712 -18.018,-4.177c-1.268,-0.096 -2.501,0.242 -3.431,1.156c-0.779,0.767 -1.269,2.358 0.086,2.878Z" style="fill:#010101;fill-rule:nonzero;"/><path d="M478.022,175.125c-2.425,6.751 -1.807,14.889 -1.947,21.958c-0.175,8.792 -0.332,17.587 -0.396,26.381c-0.06,8.129 -0.113,16.26 -0.193,24.389c-0.031,3.188 -0.016,6.379 -0.205,9.563c-0.164,2.779 -1.018,6.246 2.254,7.488c2.057,0.781 4.125,-0.049 5.723,-1.395c4.225,-3.56 1.891,-11.734 1.718,-16.605c-0.283,-7.959 -0.602,-15.918 -0.913,-23.877c-0.341,-8.678 -0.757,-17.353 -1.139,-26.029c-0.309,-7.039 0.53,-15.895 -2.312,-22.487c-0.471,-1.091 -2.309,-0.173 -2.59,0.614Z" style="fill:#010101;fill-rule:nonzero;"/><path d="M111.61,131.832c0.25,5.327 0.262,10.534 -0.025,15.863c-0.305,5.659 0.189,11.04 0.48,16.665c0.186,3.584 7.438,0.412 5.812,-1.931c-2.94,-4.236 -2.237,-10.728 -2.275,-15.677c-0.04,-5.192 0.374,-10.815 -1.433,-15.771c-0.397,-1.089 -2.605,-0.14 -2.559,0.851Z" style="fill:#010101;fill-rule:nonzero;"/><path d="M254.166,179.549c-0.89,5.915 -0.601,12.065 -0.913,18.033c-0.158,3.026 -0.219,6.076 -0.572,9.088c-0.208,1.767 -1.311,4.022 0.481,5.264c1.317,0.912 3.401,0.551 4.464,-0.668c1.568,-1.797 1.352,-2.725 0.958,-4.938c-0.491,-2.757 -0.448,-5.659 -0.599,-8.449c-0.336,-6.265 0.015,-12.796 -0.987,-18.993c-0.249,-1.541 -2.662,-0.473 -2.832,0.663Z" style="fill:#010101;fill-rule:nonzero;"/><path d="M113,163.277c2.364,2.186 5.434,3.259 8.37,4.465c5.585,2.293 11.267,4.343 16.955,6.359c15.524,5.506 31.183,10.637 46.842,15.743c14.994,4.89 30.048,9.598 45.062,14.426c4.891,1.573 9.781,3.148 14.647,4.796c1.117,0.378 2.472,0.612 3.259,1.511c0.515,0.588 1.408,0.609 2.124,0.685c0.148,0.016 0.296,0.036 0.443,0.058c2.501,0.381 -1.559,-0.545 -1.089,-1.917c-1.054,3.078 4.793,2.1 5.594,-0.24c0.063,-0.181 0.221,-3.101 0.057,-0.676c0.035,-0.52 -0.348,-0.927 -0.685,-1.267c-1.362,-1.368 -2.351,-0.875 -3.757,-1.299c-4.225,-1.272 -8.409,-2.694 -12.621,-4.009c-14.545,-4.537 -29.119,-8.976 -43.672,-13.486c-16.184,-5.017 -32.381,-9.996 -48.477,-15.293c-6.286,-2.069 -12.558,-4.19 -18.781,-6.44c-3.824,-1.383 -7.561,-3.271 -11.453,-4.42c-0.362,-0.107 -0.715,-0.266 -1.061,-0.415c-0.68,-0.294 -2.624,0.617 -1.757,1.419Z" style="fill:#010101;fill-rule:nonzero;"/><path d="M151.804,157.266c-1.166,0.837 -2.581,1.157 -3.781,1.952c-1.716,1.136 -2.44,3.153 -2.098,5.132c0.097,0.555 0.304,1.092 0.899,1.298c3.397,1.175 7.114,1.687 10.711,1.546c1.577,-0.062 3.49,-1.043 4.015,-2.63c0.547,-1.656 -1.046,-2.3 -2.374,-2.354c-3.059,-0.127 -5.904,0.086 -8.911,-0.709c0.462,0.315 0.925,0.631 1.388,0.946c-0.077,-0.288 -0.169,-1.373 -0.324,-1.104c-0.353,0.605 -0.506,0.435 0.189,0.133c1.236,-0.537 2.412,-1.157 3.316,-2.178c2.019,-2.278 -1.265,-3.299 -3.03,-2.032Z" style="fill:#010101;fill-rule:nonzero;"/><path d="M196.616,170.25c0.027,0.087 0.053,0.174 0.078,0.262c0.028,-0.181 0.056,-0.36 0.084,-0.54c-0.832,1.099 -0.509,1.817 -0.104,3.035c0.523,1.573 1.019,3.124 1.244,4.771c1.343,-0.882 2.686,-1.764 4.027,-2.646c-1.782,-0.229 -3.451,-0.908 -5.261,-0.381c-1.126,0.329 -2.21,0.875 -2.874,1.888c-0.601,0.917 -0.585,2.306 0.604,2.758c1.896,0.722 3.642,0.015 5.54,-0.207c1.345,-0.157 4.037,-1.336 3.279,-3.179c-0.733,-1.785 -1.563,-3.537 -2.685,-5.111c-0.344,-0.482 -0.705,-1.121 -1.269,-1.382c-0.431,-0.198 -0.969,-0.041 -1.075,-0.133c-0.524,-0.452 -1.829,0.112 -1.588,0.865Z" style="fill:#010101;fill-rule:nonzero;"/><path d="M160.787,165.77c-2.023,7.078 6.189,12.084 11.904,13.818c3.569,1.082 7.712,0.164 11.315,-0.252c0.526,-0.062 1.055,-0.088 1.585,-0.077c0.434,-0.005 -1.646,-1.011 -0.397,0.186c0.695,0.667 1.878,0.823 2.775,0.612c2.152,-0.506 4.026,-2.18 4.04,-4.486c0.019,-2.923 -3.948,-2.87 -5.905,-2.607c-4.453,0.6 -8.505,1.742 -12.939,0.278c-4.825,-1.594 -7.375,-4.709 -10.984,-7.938c-0.402,-0.359 -1.254,-0.023 -1.394,0.466Z" style="fill:#010101;fill-rule:nonzero;"/><path d="M158.798,159.596c0.915,0.613 1.858,1.295 2.537,2.17c-0.248,-0.319 0.102,0.219 0.114,0.244c0.135,0.251 0.243,0.521 0.355,0.783c0.279,0.648 0.411,1.306 0.773,1.922c0.647,1.098 1.947,1.238 3.104,0.967c1.166,-0.273 3.434,-1.507 3.173,-3.053c-0.625,-3.697 -4.048,-5.254 -7.434,-5.6c-0.864,-0.088 -1.735,0.18 -2.363,0.797c-0.38,0.375 -0.898,1.341 -0.259,1.77Z" style="fill:#010101;fill-rule:nonzero;"/></g></svg>