<?xml version="1.0" encoding="UTF-8" standalone="no"?><!DOCTYPE svg PUBLIC "-//W3C//DTD SVG 1.1//EN" "http://www.w3.org/Graphics/SVG/1.1/DTD/svg11.dtd"><svg width="100%" height="100%" viewBox="0 0 543 503" version="1.1" xmlns="http://www.w3.org/2000/svg" xmlns:xlink="http://www.w3.org/1999/xlink" xml:space="preserve" style="fill-rule:evenodd;clip-rule:evenodd;stroke-linejoin:round;stroke-miterlimit:1.41421;"><g id="tea"><path d="M403.577,147.538c-0.67,8.96 -4.238,15.819 -11.039,21.665c-7.129,6.127 -16.07,10.362 -24.658,14.021c-21.547,9.181 -44.377,15.149 -67.383,19.299c-29.293,5.283 -59.117,7.515 -88.868,7.01c-18.528,-0.314 -37.128,-1.151 -55.647,-1.896c-27.41,-1.103 -55.328,-3.352 -81.76,-11.104c-22.875,-6.71 -44.938,-19.695 -53.557,-43.121c-2.066,-5.615 -10.146,0.601 -9.168,5.225c7.609,35.919 49.302,48.653 80.877,54.337c36.697,6.605 74.603,6.103 111.765,7.133c24.938,0.692 49.944,-0.832 74.655,-4.203c23.494,-3.205 47.48,-7.981 69.811,-16.11c14.336,-5.219 28.797,-11.035 41.303,-19.913c9.9,-7.029 24.055,-20.594 17.311,-33.952c-1.019,-2.019 -3.525,0.061 -3.642,1.609Z" style="fill-rule:nonzero;"/><path d="M407.397,143.299c-3.508,-9.83 -12.08,-16.054 -20.648,-21.334c-9.729,-5.995 -20.539,-10.05 -31.332,-13.676c-28.023,-9.415 -57.281,-14.744 -86.623,-17.889c-26.729,-2.865 -53.701,-3.898 -80.574,-4.038c-21.886,-0.114 -43.814,0.801 -65.507,3.823c-39.333,5.48 -87.707,19.387 -107.837,57.073c-1.9,3.557 2.994,3.712 4.771,1.661c13.807,-15.926 30.404,-28.402 49.926,-36.433c20.502,-8.435 42.582,-12.491 64.54,-14.768c21.341,-2.213 42.847,-2.488 64.28,-2.111c29.637,0.521 59.295,2.248 88.637,6.579c23.016,3.397 46.031,8.492 68.133,15.813c17.529,5.807 36.107,13.85 48.695,27.829c1.387,1.538 4.154,-0.809 3.539,-2.529Z" style="fill-rule:nonzero;"/><path d="M274.231,325.708c-1.322,14.098 0.668,27.041 4.115,40.733c3.68,14.612 9.879,29.593 11.047,44.685c0.459,5.919 9.697,1.86 9.24,-2.962c-0.352,-3.713 -2.197,-6.521 -5.32,-8.553c-2.08,-1.354 -5.443,1.161 -5.695,3.31c-0.396,3.365 1.363,5.069 1.775,8.206c3.01,-1.331 6.018,-2.662 9.027,-3.993c-4.666,-12.832 -8.301,-26.248 -12.578,-39.242c-4.514,-13.71 -8.336,-28.144 -10.029,-42.502c-0.113,-0.952 -1.514,-0.404 -1.582,0.318Z" style="fill-rule:nonzero;"/><path d="M275.754,325.584c-0.232,0.812 -1.914,0.563 -0.32,0.836c0.898,0.154 1.746,-0.291 2.574,-0.561c2.215,-0.723 4.441,-1.404 6.668,-2.083c4.756,-1.449 9.629,-2.797 14.559,-3.498c4.32,-0.613 8.555,-2.207 12.91,-2.882c4.211,-0.652 8.469,-1.02 12.705,-1.459c3.541,-0.368 7.336,-1.409 10.863,-0.937c2.186,0.292 4.471,1.013 6.637,0.255c2.219,-0.778 4.404,-2.963 4.24,-5.488c-0.201,-3.089 -3.422,-3.583 -5.889,-3.334c-2.146,0.217 -4.822,2.67 -3.875,5.027c0.307,0.761 0.771,1.316 1.127,1.948c0.086,-1.046 0.172,-2.092 0.258,-3.138c-0.025,0.06 -0.051,0.121 -0.078,0.181c1.639,-1.181 3.277,-2.362 4.914,-3.542c-2.033,0.389 -4.314,-0.321 -6.373,-0.381c-4.422,-0.129 -9.35,1.272 -13.766,1.836c-8.748,1.119 -16.945,3.457 -25.508,5.316c-2.752,0.597 -27.396,7.368 -23.021,12.519c0.459,0.542 1.239,-0.14 1.375,-0.615Z" style="fill-rule:nonzero;"/><path d="M344.067,309.721c-1.576,13.668 0.535,27.984 2.037,41.584c1.596,14.449 3.91,28.831 7.285,42.975c1.275,5.339 9.713,-0.11 9.473,-4.19c-0.271,-4.596 -2.291,-8.944 -6.869,-10.522c-1.076,-0.371 -2.572,0.764 -2.936,1.711c-1.506,3.922 -0.209,7.871 0.109,11.919c3.156,-1.396 6.314,-2.793 9.471,-4.19c-3.854,-13.176 -6.652,-26.604 -8.979,-40.125c-2.244,-13.047 -2.973,-27.321 -7.723,-39.764c-0.356,-0.936 -1.784,-0.124 -1.868,0.602Z" style="fill-rule:nonzero;"/><path d="M293.122,416.632c4.121,-1.056 8.084,-3.328 12.162,-4.676c5.002,-1.654 10.123,-2.89 15.238,-4.134c10.703,-2.604 21.613,-3.52 32.379,-5.619c2.535,-0.495 4.883,-2.105 5.459,-4.791c0.518,-2.42 -1.178,-4.162 -3.563,-4.06c-11.537,0.497 -23.617,3.893 -34.682,6.987c-5.605,1.568 -11.102,3.576 -16.428,5.92c-4.266,1.877 -9.158,3.967 -12.314,7.499c-1.341,1.502 -0.099,3.348 1.749,2.874Z" style="fill-rule:nonzero;"/><path d="M267.577,204.287c2.699,-2.393 6.287,-5.365 10.164,-4.923c3.467,0.395 6.025,3.676 7.961,6.262c7.229,9.651 10.309,22.942 13.125,34.426c3.385,13.805 5.547,27.921 7.215,42.027c1.09,9.212 2.486,18.914 1.832,28.214c3.15,-1.81 6.301,-3.62 9.451,-5.43c-2.516,-3.468 -5.166,-3.783 -8.965,-5.072c-2.197,-0.745 -5.051,2.39 -4.213,4.488c1.238,3.098 2.527,5.477 4.557,8.148c3.256,4.284 9.352,-1.819 9.451,-5.43c0.279,-10.125 -1.508,-20.508 -3.023,-30.476c-2.318,-15.269 -5.451,-30.498 -9.762,-45.334c-3.291,-11.327 -7.383,-24.655 -15.936,-33.246c-7.15,-7.183 -16.82,-4.231 -22.063,3.479c-0.454,0.667 -0.867,1.361 -1.279,2.054c-0.627,1.048 0.821,1.401 1.485,0.813Z" style="fill-rule:nonzero;"/><path d="M70.301,184.957c-10.661,-5.213 -3.893,-20.612 2.15,-26.624c8.008,-7.967 19.691,-11.561 30.369,-14.217c28.311,-7.042 57.536,-10.14 86.654,-10.743c32.91,-0.682 64.632,0.727 97.359,6.733c18.186,3.337 38.023,7.692 53.357,18.59c4.951,3.518 9.514,8.753 10.172,14.834c0.848,7.835 -4.576,15.845 -8.836,22.068c-2.205,3.219 1.252,5.421 3.98,3.157c9.793,-8.127 17.877,-20.25 14.016,-33.416c-3.176,-10.824 -14.721,-17.516 -24.301,-21.824c-25.709,-11.561 -55.455,-15 -83.285,-17.307c-40.568,-3.361 -82.381,-2.86 -122.467,4.462c-19.613,3.582 -41.105,6.972 -57.375,19.323c-7.164,5.439 -12.264,13.105 -13.713,22.013c-1.277,7.861 1.09,15.046 8.977,17.782c2.259,0.784 5.553,-3.555 2.943,-4.831Z" style="fill-rule:nonzero;"/><path d="M18.59,141.752c1.09,-1.856 2.831,-3.973 3.082,-6.161c0.07,-0.617 -0.637,-0.775 -1.027,-0.366c-1.625,1.707 -2.318,4.171 -3.209,6.312c-0.375,0.905 0.803,0.815 1.154,0.215Z" style="fill-rule:nonzero;"/><path d="M18.593,142.766c-3.718,6.295 -7.294,12.363 -9.698,19.315c-2.213,6.405 -3.906,12.921 -5.265,19.557c-2.78,13.582 -3.716,27.563 -3.13,41.4c1.205,28.532 11.162,56.591 21.213,83.063c10.104,26.607 22.621,52.312 37.064,76.827c14.486,24.585 31.98,46.755 48.639,69.836c2.924,-2.566 5.849,-5.133 8.773,-7.699c-4.691,-3.797 -9.787,-6.968 -15.445,-9.098c-3.065,-1.154 -8.777,3.063 -5.805,6.229c3.992,4.247 8.804,7.715 13.394,11.298c4.079,3.185 10.874,-4.4 7.856,-8.429c-16.123,-21.528 -32.841,-42.28 -46.963,-65.242c-14.715,-23.923 -27.166,-49.268 -37.701,-75.289c-10.377,-25.631 -20.476,-52.719 -23.117,-80.403c-1.314,-13.776 -0.619,-27.672 1.637,-41.309c1.144,-6.904 2.83,-13.73 4.707,-20.468c1.807,-6.481 3.151,-13.114 5.141,-19.528c0.285,-0.916 -1.019,-0.535 -1.3,-0.06Z" style="fill-rule:nonzero;"/><path d="M402.997,147.808c-2.938,17.366 1.1,35.752 1.975,53.185c1.041,20.757 -3.414,40.762 -8.379,60.813c-4.947,19.985 -11.125,39.724 -18.539,58.932c-7.705,19.96 -15.076,40.339 -25.518,59.071c-1.199,2.15 -0.342,5.107 2.238,5.585c2.869,0.532 5.422,-1.572 6.719,-3.916c10.389,-18.769 17.586,-39.154 25.309,-59.11c7.504,-19.392 13.477,-39.35 18.334,-59.559c4.656,-19.377 9.268,-39.418 8.18,-59.445c-1.025,-18.874 -4.533,-37.563 -6.242,-56.381c-0.23,-2.527 -3.779,-0.941 -4.077,0.825Z" style="fill-rule:nonzero;"/><path d="M338.168,401.647c-2.414,2.988 -3.98,6.692 -5.852,10.038c-2.453,4.387 -5.369,8.459 -8.418,12.448c-3.068,4.016 -6.541,7.641 -10.18,11.138c-3.195,3.072 -6.949,5.737 -9.488,9.41c-1.217,1.762 -0.271,3.581 1.9,3.123c9.232,-1.948 17.154,-12.186 22.748,-19.149c3.252,-4.049 6.006,-8.466 8.561,-12.979c2.299,-4.062 5.053,-9.041 5.033,-13.819c-0.011,-2.59 -3.366,-1.37 -4.304,-0.21Z" style="fill-rule:nonzero;"/><path d="M409.448,200.107c2.887,12.277 16.738,4.332 23.936,0.896c10.826,-5.167 20.771,-11.971 32.35,-15.457c20.377,-6.134 43.322,2.257 55.348,19.462c10.58,15.137 12.35,35.712 9.813,53.503c-2.887,20.231 -12.889,38.361 -27.344,52.667c-34.666,34.309 -88.18,46.656 -135.436,48.337c-5.715,0.203 -9.633,10.523 -2.199,10.259c42.693,-1.518 87.461,-11.773 123.352,-35.757c34.549,-23.09 57.42,-61.303 52.057,-103.686c-3.08,-24.342 -16.863,-45.691 -41.041,-53.036c-15.26,-4.636 -31.088,-2.611 -45.379,3.964c-6.943,3.194 -13.426,7.339 -20.104,11.032c-3.459,1.914 -7.014,3.603 -10.596,5.269c-4.17,1.94 -6.895,3.504 -9.936,-0.894c-1.72,-2.487 -5.325,1.295 -4.821,3.441Z" style="fill-rule:nonzero;"/><path d="M193.715,8.835c-2.883,8.9 -9.786,14.83 -16.742,20.607c-9.68,8.042 -20.105,15.146 -29.727,23.264c-8.752,7.384 -17.593,16.524 -20.428,27.963c-2.844,11.475 4.809,25.437 17.367,25.064c2.443,-0.072 5.498,-2.849 5.131,-5.454c-0.793,-5.649 -4.789,-9.994 -6.686,-14.358c-0.994,-2.284 -0.873,-2.179 -0.91,-4.598c0.033,-0.833 0.012,-0.835 -0.064,-0.009c0.055,-0.63 0.178,-1.253 0.3,-1.873c0.09,-0.418 0.194,-0.834 0.312,-1.246c0.552,-2.065 -0.588,1.44 0.227,-0.588c0.342,-0.852 0.766,-1.669 1.191,-2.48c0.469,-0.815 0.459,-0.825 -0.025,-0.028c0.389,-0.634 0.816,-1.244 1.24,-1.854c0.74,-1.065 1.555,-2.078 2.375,-3.081c0.343,-0.417 2.707,-3.029 1.762,-2.032c4.17,-4.398 8.76,-8.419 13.389,-12.324c9.24,-7.795 18.789,-15.183 27.033,-24.07c5.281,-5.691 13.197,-16.191 8.889,-24.398c-1.233,-2.342 -4.071,-0.238 -4.634,1.495Z" style="fill-rule:nonzero;"/><path d="M270.981,1.732c-2.264,10.558 -11.547,18.939 -19.418,25.679c-10.385,8.895 -21.123,17.371 -31.516,26.258c-9.387,8.029 -18.977,16.906 -24.404,28.211c-2.178,4.538 -3.411,9.794 -2.857,14.832c0.756,6.892 5.418,14.769 13.349,10.432c-1.298,0.264 -2.595,0.528 -3.892,0.792c0.248,0.037 0.496,0.073 0.745,0.109c3.468,0.508 6.563,-2.547 6.708,-5.887c0.012,-0.265 0.023,-0.529 0.035,-0.793c-0.432,1.252 -0.861,2.504 -1.291,3.756c2.811,-3.225 2.326,-6.408 1.164,-10.082c-0.273,-0.863 -0.674,-1.688 -0.939,-2.561c-0.172,-0.568 -0.213,-0.516 -0.336,-2.069c-0.025,-0.325 0.133,-2.893 -0.041,-1.33c0.123,-1.102 0.402,-2.182 0.705,-3.246c-0.438,1.537 0.678,-1.549 0.896,-2.013c0.215,-0.459 1.912,-3.375 1.12,-2.12c6.198,-9.824 14.97,-17.008 24.149,-25.149c10.016,-8.885 20.145,-17.554 28.441,-28.141c5.908,-7.541 11.553,-17.179 9.566,-27.121c-0.264,-1.324 -1.973,-0.533 -2.184,0.443Z" style="fill-rule:nonzero;"/><path d="M318.407,11.78c-1.373,12.707 -8.154,27.011 -17.807,35.498c-6.168,5.423 -14.293,9.776 -21.832,15.11c-8.824,6.243 -17.311,13.258 -22.184,23.14c-3.684,7.47 -5.729,27.128 6.768,26.994c2.918,-0.032 5.456,-2.459 6.735,-4.855c2.666,-4.995 -0.474,-9.857 -0.444,-15.068c0.018,-3.358 1.903,-5.892 3.8,-8.33c4.813,-6.188 13.163,-11.484 20.241,-16.239c8.863,-5.954 16.867,-12.154 22.428,-21.472c6.479,-10.853 8.188,-23.251 5.664,-35.458c-0.404,-1.958 -3.195,-0.924 -3.369,0.68Z" style="fill-rule:nonzero;"/><path d="M100.915,143.917c-14.085,6.212 -25.186,17.322 -30.594,31.843c-0.885,2.375 -0.651,5.354 2.371,5.915c3.104,0.575 5.65,-1.699 7.113,-4.146c6.135,-10.269 17.83,-16.199 28.285,-21.077c11.063,-5.162 22.678,-9.051 33.637,-14.454c-1.551,-2.586 -3.102,-5.173 -4.654,-7.759c-19.408,16.031 -43.226,29.416 -52.129,54.452c-2.582,7.26 5.617,7.684 9.408,3.273c21.506,-25.021 52.563,-43.664 83.99,-53.151c-0.67,-3.231 -1.34,-6.462 -2.01,-9.693c-25.072,16.89 -51.352,34.117 -64.365,62.576c-2.62,5.732 4.402,8.415 8.207,4.497c25.129,-25.879 57.516,-46.881 92.174,-57.282c-1.15,-2.958 -2.301,-5.915 -3.452,-8.873c-22.708,19.281 -51.001,33.319 -64.038,61.638c-2.195,4.771 2.711,8.456 6.975,5.601c27.205,-18.218 52.714,-44.782 86.044,-51.096c-0.189,-3.374 -0.38,-6.748 -0.569,-10.123c-26.029,12.72 -50.352,32.689 -65.426,57.622c-2.947,4.873 3.033,7.894 6.944,5.577c31.233,-18.505 62.169,-37.831 95.521,-52.383c-0.678,-3.269 -1.357,-6.538 -2.035,-9.807c-27.813,13.661 -53.555,33.014 -70.694,59.176c-4.153,6.339 2.31,10.313 7.687,6.096c24.127,-18.922 49.703,-38.919 80.049,-46.343c-0.193,-3.567 -0.387,-7.134 -0.58,-10.701c-22.105,9.564 -45.74,25.87 -56.21,48.325c-1.948,4.178 1.302,8.166 5.804,6.613c25.105,-8.664 42.371,-31.656 68.002,-38.955c-1.65,-2.714 -3.301,-5.429 -4.951,-8.144c-9.084,9.945 -20.422,16.292 -24.451,30.006c-1.115,3.789 3.02,6.643 6.404,5.168c14.145,-6.163 25.445,-17.696 40.01,-22.826c-1.711,-2.813 -3.422,-5.626 -5.131,-8.439c-7.191,8.257 -16.508,16.854 -15.891,28.752c0.195,3.771 3.922,4.826 7.035,3.95c7.857,-2.212 14.199,-7.714 22.006,-9.88c-2.344,-1.892 -4.689,-3.784 -7.033,-5.676c-0.357,1.364 0.615,-0.067 0.018,0.337c-1.406,0.949 -3.07,1.447 -4.652,2.003c-3.377,1.19 -6.596,4.45 -6.393,8.272c0.193,3.658 3.949,5.005 7.055,3.961c8.125,-2.731 15.068,-6.894 17.367,-15.659c1.186,-4.524 -3.23,-6.8 -7.035,-5.676c-7.855,2.321 -14.191,7.847 -21.992,10.12c2.344,1.317 4.689,2.633 7.035,3.95c-0.482,-7.74 7.482,-13.935 12.109,-19.248c3.607,-4.144 0.459,-10.408 -5.131,-8.439c-15.389,5.42 -26.914,17.178 -41.58,23.877c2.664,1.488 5.33,2.977 7.994,4.465c2.785,-10.182 14.73,-16.581 21.549,-23.994c3.818,-4.152 0.271,-9.611 -4.951,-8.144c-13.186,3.702 -24.492,11.171 -35.459,19.128c-10.283,7.46 -20.4,15.679 -32.539,19.917c1.934,2.204 3.869,4.408 5.803,6.613c8.336,-18.05 27.953,-32.044 45.789,-39.675c2.91,-1.244 5.779,-3.744 5.594,-7.236c-0.182,-3.39 -3.43,-4.124 -6.174,-3.465c-32.574,7.82 -60.255,29.163 -85.951,49.657c2.563,2.032 5.125,4.064 7.688,6.096c15.775,-24.526 39.256,-42.292 65.305,-54.824c5.344,-2.57 4.848,-12.743 -2.033,-9.807c-34.539,14.735 -66.309,34.436 -98.48,53.617c2.314,1.859 4.631,3.718 6.945,5.577c13.232,-22.024 35.691,-39.345 58.572,-50.378c4.05,-1.953 6.104,-11.348 -0.568,-10.123c-36.278,6.663 -62.467,33.035 -91.957,52.904c2.325,1.867 4.65,3.733 6.975,5.601c11.795,-25.828 39.258,-38.797 59.963,-56.362c4.129,-3.503 2.873,-10.769 -3.451,-8.873c-36.68,10.989 -71.299,33.247 -97.828,60.718c2.736,1.499 5.472,2.998 8.207,4.497c11.515,-25.287 35.225,-40.657 57.637,-55.424c4.592,-3.025 5.516,-11.875 -2.012,-9.693c-34.803,10.093 -68.621,31.063 -92.009,58.849c3.136,1.091 6.272,2.182 9.409,3.273c7.873,-22.941 30.182,-34.938 47.869,-49.548c5.01,-4.138 1.391,-10.739 -4.654,-7.759c-23.846,11.757 -53.561,17.919 -68.076,42.469c3.31,0.155 6.619,0.309 9.93,0.464c3.241,-11.549 11.557,-21.087 21.725,-27.191c2.49,-1.501 2.634,-6.75 -1.066,-5.119Z" style="fill-rule:nonzero;"/><path d="M286.821,336.907c-0.748,4.306 0.32,8.344 1.396,12.5c1.49,5.77 10.879,-0.396 9.691,-5.524c-0.627,-2.708 -1.064,-5.444 -1.762,-8.136c-1.514,-5.854 -10.723,0.104 -10.416,4.607c0.141,2.057 0.643,4.025 0.729,6.087c0.232,5.635 7.684,3.509 9.809,0.476c0.652,-0.933 2.207,-1.6 4.354,-2.273c3.154,-0.99 6.451,-1.423 9.715,-1.875c6.674,-0.924 13.414,-1.291 20.023,-2.644c-1.783,-0.349 -3.566,-0.698 -5.348,-1.048c0.641,0.902 0.875,2.42 0.971,3.517c4.053,-1.3 8.105,-2.599 12.16,-3.898c-0.281,-2.694 -1.059,-4.952 -2.219,-7.392c-2.889,-6.071 -12.967,-0.283 -12.006,5.311c0.473,2.755 -0.516,2.599 0.771,0.31c1.74,-1.526 3.479,-3.052 5.217,-4.578c2.291,-0.753 2.785,-0.54 0.107,-0.323c-1.598,0.129 -3.426,0.895 -4.561,2.044c-1.705,1.728 -2.699,3.237 -2.742,5.716c-0.037,2.072 1.572,3.28 3.344,3.811c6.854,2.055 11.313,-4.932 10.152,-10.919c-4.002,1.77 -8.004,3.54 -12.006,5.311c0.75,1.489 1.57,2.922 1.781,4.608c0.98,7.816 12.844,2.397 12.16,-3.898c-0.33,-3.021 -1.242,-6.008 -3.029,-8.483c-1.232,-1.709 -3.615,-1.414 -5.348,-1.048c-12.516,2.642 -36.043,0.175 -42.721,14.545c3.539,-0.287 7.08,-0.574 10.621,-0.861c-0.338,-1.989 -0.992,-3.92 -1.271,-5.913c-3.473,1.536 -6.945,3.072 -10.418,4.607c0.852,2.601 1.318,5.286 2.24,7.864c3.035,-2.167 6.07,-4.333 9.105,-6.5c-2.49,-2.384 -2.311,-6.069 -4.486,-8.697c-1.869,-2.262 -5.632,0.501 -6.013,2.696Z" style="fill-rule:nonzero;"/><path d="M306.334,339.379c-4.432,4.597 -2.756,11.207 -1.504,16.855c1.49,6.718 3.932,13.299 6.52,19.667c2.273,5.596 9.189,0.991 11.076,-2.256c6.086,-10.471 -2.197,-26.788 -8.191,-35.539c-3.828,-5.59 -12.449,2.874 -11.057,7.894c2.277,8.221 4.236,16.644 6.086,24.951c0.748,3.362 5.539,2.743 7.65,1.539c2.98,-1.7 4.695,-4.784 3.947,-8.15c0.6,2.693 -0.32,-2.119 -0.52,-2.999c-0.529,-2.316 -1.068,-4.631 -1.609,-6.944c-1.186,-5.052 -2.369,-10.112 -3.785,-15.105c-3.686,2.631 -7.371,5.263 -11.057,7.894c2.734,3.941 4.664,8.409 6.285,12.907c1.092,3.026 3.229,8.458 1.523,11.554c3.691,-0.752 7.383,-1.504 11.076,-2.256c-2.432,-5.515 -4.373,-11.19 -6.465,-16.836c-1.467,-3.956 -2.436,-11.672 -6.314,-13.935c-1.106,-0.648 -2.825,-0.107 -3.661,0.759Z" style="fill-rule:nonzero;"/><path d="M45.997,236.434c-9.23,3.301 -13.279,14.152 -7.9,22.493c5.17,8.017 19.201,7.416 25.666,1.654c5.697,-5.077 6.508,-14.271 2.482,-20.572c-4.803,-7.52 -16.055,-7.799 -21.76,-1.216c-1.072,1.238 -0.432,2.801 1.145,2.872c4.881,0.219 9.41,-1.814 13.318,2.236c2.924,3.032 3.852,7.768 2.025,11.582c-2.627,5.491 -12.008,3.902 -16.018,1.475c-7.1,-4.299 -4.34,-14.438 1.512,-18.251c1.056,-0.689 1.266,-2.894 -0.47,-2.273Z" style="fill-rule:nonzero;"/><path d="M191.375,308.181c-13.209,0.479 -20.807,13.381 -14.76,25.205c4.654,9.099 16.775,14.309 25.912,8.837c7.415,-4.441 10.441,-13.792 8.711,-21.945c-2.232,-10.524 -14.23,-14.396 -23.271,-10.401c-1.305,0.577 -3.005,2.981 -0.775,3.614c6.027,1.711 13.299,1.895 16.429,8.255c2.222,4.515 1.204,10.19 -1.935,13.98c-9.395,11.344 -35.938,-17.874 -10.549,-24.696c1.365,-0.367 2.217,-2.922 0.238,-2.849Z" style="fill-rule:nonzero;"/><path d="M353.364,227.848c-10.674,8.211 -8.289,22.489 4.896,26.354c7.939,2.328 16.096,-0.892 20.092,-8.107c3.283,-5.926 1.789,-13.706 -3.037,-18.283c-7.439,-7.054 -20.506,-6.252 -28.277,-0.335c-0.918,0.699 -1.346,2.691 0.186,2.948c6.568,1.1 13.369,-1.116 19.6,2.113c3.57,1.85 6.018,5.873 5.455,9.937c-0.547,3.971 -3.348,5.465 -7.4,5.536c-4.004,0.07 -8.004,-2.05 -10.639,-4.938c-3.707,-4.068 -1.934,-9.879 0.783,-13.909c0.923,-1.372 -0.507,-2.204 -1.659,-1.316Z" style="fill-rule:nonzero;"/><path d="M126.297,409.551c-6.27,0.435 -9.164,7.529 -9.609,12.892c-0.508,6.115 4.148,12.272 9.549,14.567c7.986,3.395 15.882,-1.753 19.914,-8.586c3.656,-6.197 4.693,-14.775 0.02,-20.726c-6.02,-7.666 -22.348,-5.958 -28.053,0.895c-1.061,1.274 -0.801,2.972 0.785,3.513c3.571,1.218 8.337,-0.955 12.084,-1.177c2.416,-0.143 5.279,0.292 7.213,1.886c3.203,2.64 3.51,7.463 2.272,11.071c-1.413,4.122 -3.526,6.7 -7.448,6.801c-3.268,0.085 -6.105,-2.668 -7.887,-5.024c-3.857,-5.098 -1.66,-10.239 1.779,-14.557c0.493,-0.618 0.305,-1.62 -0.619,-1.555Z" style="fill-rule:nonzero;"/><path d="M282.659,406.38c-6.223,-1.502 -13.551,2.83 -14.945,9.083c-1.157,5.185 2.025,10.573 5.841,13.821c4.548,3.872 10.511,5.7 16.147,3.075c7.123,-3.319 10.592,-13.79 8.848,-21.031c-0.373,-1.552 -2.459,-1.727 -3.672,-1.339c-1.658,0.53 -2.982,1.935 -3.404,3.62c-0.748,2.987 -0.809,7.057 -1.686,9.431c-0.223,0.604 -0.506,1.184 -0.807,1.751c0.441,-0.832 -0.404,0.549 -0.576,0.765c-0.328,0.376 -0.277,0.325 0.152,-0.152c-0.211,0.215 -0.445,0.407 -0.678,0.598c0.996,-0.816 -0.191,0.077 -0.518,0.241c1.063,-0.535 -0.273,0.042 -0.586,0.122c1.012,-0.261 -0.395,0.014 -0.672,0.03c-0.98,0.056 0.205,0.078 -0.783,-0.035c-0.48,-0.055 -0.955,-0.16 -1.426,-0.274c-0.9,-0.219 -1.139,-0.334 -2.301,-0.92c-0.934,-0.472 -1.813,-1.041 -2.652,-1.661c-2.516,-1.857 -5.204,-5.368 -5.318,-8.483c-0.023,-0.606 0.092,-1.009 0.326,-1.522c0.168,-0.306 0.16,-0.313 -0.021,-0.021c0.146,-0.238 0.32,-0.458 0.492,-0.677c0.137,-0.172 0.197,-0.222 0.74,-0.668c1.879,-1.543 4.91,-2.312 7.307,-3.428c0.875,-0.408 1.432,-2.026 0.192,-2.326Z" style="fill-rule:nonzero;"/><path d="M39.833,343.715c14.34,-2.396 23.766,11.533 22.711,24.737c1.013,-1.076 2.025,-2.152 3.037,-3.229c-2.49,0.062 -4.758,0.818 -5.854,3.172c-0.275,0.591 -0.17,1.606 0.668,1.666c1.381,0.099 2.764,0.018 4.148,0.004c1.613,-0.016 3.031,-1.694 3.037,-3.229c0.059,-13.931 -12.086,-32.318 -27.857,-25.08c-0.806,0.371 -1.172,2.173 0.11,1.959Z" style="fill-rule:nonzero;"/><path d="M113.715,456.422c13.765,6.799 28.961,9.798 44.088,11.984c16.719,2.416 33.686,3.094 50.559,2.666c33.063,-0.84 65.896,-7.037 96.914,-18.488c3.518,-1.299 6.537,-8.416 0.678,-8.102c-3.752,0.201 -6.803,1.433 -9.895,3.539c-2.117,1.443 -3.719,5.922 0.326,5.787c2.637,-0.088 5.158,-0.796 7.785,-1.002c0.227,-2.7 0.453,-5.401 0.68,-8.102c-29.512,11.658 -61.496,16.919 -93.086,18.254c-16.29,0.688 -32.61,-0.006 -48.806,-1.853c-15.825,-1.804 -31.369,-5.463 -46.987,-8.392c-1.681,-0.314 -4.361,2.669 -2.256,3.709Z" style="fill-rule:nonzero;"/><path d="M108.959,457.273c1.008,2.193 0.762,5.47 0.885,7.843c0.07,1.368 0.047,2.74 0.018,4.109c-0.011,0.499 -0.027,0.998 -0.048,1.497c-0.03,0.794 -0.571,1.812 0.22,0.673c-1.531,2.205 -1.232,5.791 2.197,5.513c2.369,-0.192 7.063,-4.417 4.213,-6.845c-0.022,0.158 -0.045,0.316 -0.066,0.474c-0.051,-0.395 -0.102,-0.79 -0.151,-1.185c-0.089,-0.692 -0.196,-1.381 -0.305,-2.07c-0.235,-1.495 -0.563,-2.979 -0.915,-4.45c-0.703,-2.951 -1.936,-4.907 -3.975,-7.038c-0.801,-0.836 -2.537,0.466 -2.073,1.479Z" style="fill-rule:nonzero;"/><path d="M311.45,446.946c-2.744,2.811 -3.861,5.534 -4.627,9.396c-0.357,1.793 -0.518,3.611 -0.922,5.395c-0.158,0.699 -0.365,1.257 -0.656,1.893c-1.566,3.422 1.797,-1.065 1.111,-0.737c-2.414,1.158 -3.682,5.195 -0.504,6.146c4.738,1.417 7.129,-4.545 7.09,-8.09c-0.023,-2.191 -0.158,-4.391 -0.221,-6.583c-0.051,-1.781 -0.455,-4.915 0.346,-6.534c0.557,-1.128 -0.881,-1.64 -1.617,-0.886Z" style="fill-rule:nonzero;"/><path d="M113.043,483.225c6.734,12.663 25.336,14.938 38.004,16.405c15.256,1.768 30.857,1.974 46.201,2.262c18.59,0.349 37.27,-0.021 55.689,-2.744c9.176,-1.356 18.27,-3.404 27.068,-6.346c3.961,-1.324 7.809,-2.957 11.6,-4.707c3.088,-1.426 7.469,-5.218 10.566,-5.296c2.496,-0.063 4.461,-2.288 5.127,-4.499c0.076,-0.255 0.152,-0.51 0.229,-0.765c0.549,-1.823 -0.656,-3.218 -2.277,-3.727c-2.229,-0.699 -3.619,0.941 -5.275,1.988c-1.68,1.061 -4.352,5.966 -0.512,6.24c1.363,0.097 2.494,-0.067 3.826,-0.376c-1.014,-0.049 -2.027,-0.098 -3.039,-0.147c0.082,0.036 0.164,0.072 0.246,0.108c-0.332,-1.487 -0.664,-2.975 -0.996,-4.461c-0.104,0.253 -0.207,0.507 -0.311,0.761c1.588,-1.145 3.176,-2.289 4.764,-3.434c-3.643,-0.093 -5.779,1.888 -8.799,3.667c-3.676,2.166 -7.563,3.938 -11.525,5.504c-8.342,3.299 -17.145,5.42 -25.965,6.955c-17.936,3.121 -36.27,3.626 -54.436,3.519c-14.903,-0.088 -29.914,-0.34 -44.788,-1.317c-15.31,-1.006 -30.208,-3.469 -43.671,-11.107c-0.757,-0.429 -2.176,0.671 -1.726,1.517Z" style="fill-rule:nonzero;"/><path d="M406.045,236.808c-3.518,15.127 11.951,20.401 24.119,17.913c6.639,-1.358 12.381,-5.457 15.844,-11.221c3.871,-6.443 1.244,-13.966 -2.678,-19.602c0.24,1.114 0.48,2.228 0.721,3.342c0.246,-2.444 0.58,-3.358 1.445,-4.504c-0.166,0.222 1.334,-1.163 0.779,-0.78c1.355,-0.935 1.57,-0.962 2.691,-1.371c4.834,-1.759 10.486,-1.455 15.711,-0.592c13.285,2.195 26.197,9.415 34.168,20.361c9.215,12.658 6.564,28.797 -1.457,41.303c-10.91,17.01 -28.199,30.159 -45.842,39.527c-10.346,5.495 -21.684,9.602 -33.383,10.793c-7.414,0.755 -24.131,0.523 -27.211,-8.122c-2.139,-6.002 -10.811,0.641 -9.781,5.575c1.814,8.71 13.859,11.56 21.471,12.597c9.559,1.303 19.311,-0.23 28.533,-2.765c20.629,-5.669 39.83,-17.874 55.572,-32.136c13.232,-11.988 25.863,-27.51 28.215,-45.794c1.941,-15.084 -4.928,-28.961 -16.617,-38.264c-9.504,-7.565 -21.369,-12.476 -33.494,-13.566c-9.918,-0.892 -21.684,1.014 -27.676,9.894c-1.424,2.11 -2.395,4.432 -2.904,6.926c-0.795,3.903 1.369,5.649 2.877,8.961c1.992,4.373 0.424,7.431 -3.193,9.477c-9.145,5.17 -21.537,1.34 -23.93,-9.238c-0.505,-2.239 -3.685,0.016 -3.98,1.286Z" style="fill-rule:nonzero;"/></g></svg>