<?xml version="1.0" encoding="UTF-8"?>
<svg width="334px" height="554px" viewBox="0 0 334 554" version="1.1" xmlns="http://www.w3.org/2000/svg" xmlns:xlink="http://www.w3.org/1999/xlink">
    <!-- Generator: Sketch 41 (35326) - http://www.bohemiancoding.com/sketch -->
    <title>teacher</title>
    <desc>Created with Sketch.</desc>
    <defs></defs>
    <g id="Page-1" stroke="none" stroke-width="1" fill="none" fill-rule="evenodd">
        <g id="Layer_1" transform="translate(-6813.000000, -5424.000000)" fill="#000000">
            <g id="Layer_1_3_">
                <g id="teacher" transform="translate(6813.000000, 5424.000000)">
                    <path d="M135.792,80.622 C113.766,80.909 97.101,102.953 86.813,120.046 C72.783,143.355 68.889,170.276 66.885,196.977 C65.202,219.398 64.155,242.58 74.096,263.41 C84.224,284.631 105.288,299.642 126.806,307.726 C152.478,317.372 181.438,316.601 205.687,303.405 C226.322,292.176 242.586,275.075 251.07,253.03 C255.421,241.726 256.932,229.678 257.824,217.679 C258.859,203.728 258.974,189.7 257.722,175.76 C256.495,162.098 253.567,148.458 248.312,135.767 C243.391,123.879 236.102,112.641 228.538,102.29 C216.651,86.024 200.265,71.278 180.126,66.796 C171.484,64.872 162.522,66.439 153.941,67.953 C146.392,69.286 137.591,71.923 133.207,78.725 C131.297,81.688 132.639,84.878 136.141,85.485 C139.87,86.131 144.38,84.213 146.438,81.016 C146.368,81.125 146.076,81.108 145.985,81.157 C146.638,80.803 147.431,80.452 148.137,80.227 C150.459,79.491 152.882,79.054 155.277,78.629 C160.565,77.692 165.735,76.957 171.095,77.699 C184.512,79.554 196.313,89.267 205.468,98.634 C223.999,117.592 237.635,142.967 242.138,169.084 C244.526,182.932 244.836,197.076 244.344,211.089 C243.899,223.734 242.967,236.322 239.265,248.478 C232.575,270.442 216.403,287.834 195.723,297.499 C170.931,309.082 141.678,303.233 118.814,290.042 C99.516,278.907 85.145,261.365 80.711,239.322 C78.44,228.032 78.486,216.379 79.102,204.93 C79.825,191.474 80.739,178.023 82.75,164.688 C86.475,140.013 96.811,116.41 114.044,98.13 C119.362,92.489 126.12,86.385 134.16,85.578 C137.16,85.278 140.437,80.561 135.792,80.622 L135.792,80.622 Z" id="Shape"></path>
                    <path d="M138.347,74.572 C136.191,72.229 134.517,68.489 132.824,65.718 C130.767,62.351 129.362,58.717 128.275,54.936 C126.152,47.552 125.3,39.361 126.975,31.799 C129.927,18.469 141.681,10.266 155.13,11.969 C169.364,13.77 177.494,25.24 182.076,37.86 C184.399,44.261 185.191,51.092 184.366,57.85 C183.576,64.314 179.299,67.688 176.105,72.869 C173.336,77.361 178.201,80.414 182.407,79.091 C202.43,72.794 204.128,48.976 198.631,31.96 C192.727,13.683 177.845,0.864 158.368,0.198 C138.999,-0.466 119.922,11.05 113.994,29.916 C111.009,39.417 112.3,49.813 115.25,59.135 C116.679,63.65 119.264,67.799 122.095,71.553 C125.353,75.871 129.748,77.098 134.749,78.092 C136.308,78.401 140.088,76.464 138.347,74.572 L138.347,74.572 Z" id="Shape"></path>
                    <path d="M76.859,181.27 C86.823,179.285 95.189,174.23 103.736,168.823 C112.33,163.387 120.396,157.181 128.196,150.67 C144.236,137.281 157.691,121.402 171.935,106.214 C174.15,103.853 175.419,99.879 171.698,98.159 C167.327,96.139 161.919,98.836 159.253,102.352 C147.599,117.728 134.405,132.125 120.499,145.487 C113.603,152.112 106.257,158.232 98.468,163.777 C90.865,169.189 82.775,173.51 75.561,179.396 C74.253,180.462 75.673,181.506 76.859,181.27 L76.859,181.27 Z" id="Shape"></path>
                    <path d="M166.208,102.821 C165.732,107.258 167.98,111.842 169.593,115.902 C171.578,120.901 174.277,125.649 176.876,130.35 C181.933,139.495 188.271,148.065 194.846,156.17 C201.439,164.296 209.379,170.111 218.273,175.459 C222.506,178.005 227.014,180.099 231.455,182.25 C235.484,184.202 239.569,187.104 243.812,188.432 C247.176,189.486 255.561,186.287 252.006,181.813 C249.765,178.99 245.573,177.381 242.434,175.721 C238.12,173.44 233.747,171.279 229.496,168.878 C221.076,164.121 214.484,156.545 208.199,149.334 C201.511,141.659 195.673,133.148 190.283,124.531 C187.404,119.929 184.951,115.064 181.974,110.528 C179.307,106.465 176.831,101.899 172.564,99.388 C170.243,98.024 166.473,100.346 166.208,102.821 L166.208,102.821 Z" id="Shape"></path>
                    <path d="M125.447,251.149 C128.777,248.706 131.632,245.628 135.38,244.225 C133.315,242.816 131.248,241.407 129.182,239.997 C128.721,240.711 128.283,241.345 127.965,242.152 C126.731,245.287 130.854,246.116 132.976,245.63 C135.321,245.093 137.416,243.738 138.62,241.632 C139.554,239.999 139.581,238.044 137.64,237.148 C135.038,235.946 131.992,237.297 130.002,239.008 C128.123,240.625 126.424,242.207 124.827,244.11 C123.28,245.954 121.706,248.031 121.84,250.524 C121.933,252.283 124.514,251.833 125.447,251.149 L125.447,251.149 Z" id="Shape"></path>
                    <path d="M126.998,243.595 C122.848,249.439 126.114,255.953 132.048,258.736 C137.333,261.215 144.114,261.439 149.851,261.909 C148.833,260.905 147.816,259.901 146.797,258.896 C146.779,259.107 146.761,259.317 146.742,259.528 C146.52,262.067 150.269,262.605 151.977,262.046 C152.248,261.957 152.519,261.868 152.79,261.78 C156.453,260.581 162.209,254.867 155.629,253.096 C150.914,251.827 145.658,252.583 140.827,251.764 C138.774,251.415 137.102,250.637 135.618,249.182 C133.82,247.419 133.641,244.389 132.136,242.35 C130.922,240.708 127.821,242.435 126.998,243.595 L126.998,243.595 Z" id="Shape"></path>
                    <path d="M118.716,187.58 C115.854,191.962 115.159,199.567 117.458,204.29 C119.494,208.476 126.622,205.12 127.773,201.837 C129.584,196.673 130.227,190.293 128.027,185.17 C127.154,183.135 124.367,183.034 122.548,183.462 C119.849,184.097 117.304,185.978 116.948,188.851 C116.39,193.359 114.912,200.408 117.615,204.455 C120.26,208.414 129.199,205.645 128.873,200.715 C128.726,198.491 128.005,196.383 127.87,194.13 C127.712,191.487 127.993,188.83 128.245,186.203 C124.552,187.43 120.858,188.657 117.166,189.884 C119.199,194.257 117.866,198.783 117.252,203.315 C120.556,201.881 123.859,200.448 127.163,199.013 C124.208,195.346 126.533,190.555 124.603,186.728 C123.458,184.454 119.745,186.004 118.716,187.58 L118.716,187.58 Z" id="Shape"></path>
                    <path d="M73.24,177.576 C72.054,178.565 72.15,179.019 73.527,178.937 C72.904,178.325 72.465,177.513 71.954,176.813 C70.696,175.092 69.392,173.79 67.448,172.87 C63.084,170.805 57.098,173.716 53.924,176.696 C46.087,184.051 42.383,194.442 40.698,204.801 C39.091,214.68 40.202,227.794 48.258,234.808 C54.002,239.808 69.7,238.194 71.813,229.598 C72.075,228.53 72.123,227.125 71.114,226.362 C68.003,224.008 62.828,224.824 60.611,228.204 C60.346,228.663 60.128,229.143 59.956,229.643 C58.646,233.102 62.81,227.669 61.385,228.323 C59.716,229.089 58.755,228.344 57.413,227.235 C49.53,220.718 50.773,205.79 52.777,197.113 C53.862,192.416 55.733,188.255 58.305,184.21 C58.635,183.69 61.116,180.133 61.284,180.192 C62.703,180.703 63.933,182.695 64.909,183.776 C67.292,186.416 70.8,185.582 73.719,184.407 C77.07,183.057 77.488,180.099 76.401,177.118 C75.917,175.797 73.736,176.842 73.24,177.576 L73.24,177.576 Z" id="Shape"></path>
                    <path d="M248.996,188.712 C252.535,197.862 261.764,188.354 265.435,184.512 C267.107,182.764 264.206,184.45 264.063,184.397 C264.668,184.622 265.014,185.04 265.467,185.476 C266.711,186.672 267.459,188.32 268.191,189.852 C270.06,193.765 271.188,198.106 272.234,202.297 C274.22,210.258 275.616,218.746 275.784,226.946 C275.885,231.843 275.13,237.393 270.797,240.346 C265.031,244.276 260.098,238.205 255.344,235.664 C252.274,234.023 242.635,237.878 245.422,242.241 C253.801,255.352 273.069,252.904 281.979,241.7 C289.582,232.139 287.022,218.756 285,207.695 C283.277,198.27 281.34,186.667 274.341,179.552 C270.971,176.125 265.791,176.015 261.795,178.325 C259.568,179.612 257.92,181.547 256.317,183.517 C255.582,184.422 254.844,185.302 254.029,186.138 C252.539,187.666 255.3,186.576 253.698,185.592 C252.039,184.577 248.164,186.561 248.996,188.712 L248.996,188.712 Z" id="Shape"></path>
                    <path d="M89.708,176.928 C99.209,176.711 108.536,178.812 118.021,178.787 C122.835,178.774 127.66,178.027 132.461,177.713 C134.647,177.57 136.843,177.543 139.021,177.772 C141.469,178.03 143.43,179.099 145.955,178.866 C148.768,178.606 154.339,176.042 152.775,172.257 C151.097,168.194 144.565,168.609 140.901,168.673 C135.086,168.777 129.239,170.051 123.502,170.906 C117.7,171.77 111.992,171.845 106.143,171.55 C100.514,171.265 94.987,171.022 89.639,173.038 C87.47,173.855 86.71,176.997 89.708,176.928 L89.708,176.928 Z" id="Shape"></path>
                    <path d="M174.643,177.783 C179.736,179.296 186.456,177.724 191.592,177.062 C197.738,176.27 204.359,175.655 210.298,173.814 C212.863,173.019 216.388,171.183 216.347,167.993 C216.309,164.954 212.446,164.432 210.195,165.034 C204.904,166.446 199.652,167.579 194.236,168.442 C188.535,169.351 182.665,169.446 177.011,170.541 C173.479,171.224 169.556,176.272 174.643,177.783 L174.643,177.783 Z" id="Shape"></path>
                    <path d="M171.483,174.569 C168.332,179.164 170.481,184.247 171.375,189.192 C172.245,194.005 172.899,198.833 174.209,203.557 C175.377,207.771 177.624,212.254 181.565,214.487 C186.6,217.339 192.488,216.188 197.662,214.354 C200.537,213.335 203.284,212.057 206.354,211.821 C210.557,211.497 214.826,211.842 219.031,211.962 C225.104,212.135 230.952,210.725 236.284,207.824 C241.142,205.18 245.274,201.266 247.791,196.311 C249.172,193.593 249.823,190.855 250.193,187.844 C250.515,185.226 249.314,182.704 249.488,180.222 C249.71,177.069 245.338,176.734 243.254,177.223 C240.71,177.82 238.18,179.432 237.24,181.97 C238.112,180.921 238.984,179.872 239.857,178.824 C238.316,179.942 237.084,181.12 237.055,183.133 C237.022,185.475 239.728,186.539 241.695,186.352 C241.719,186.349 241.744,186.346 241.767,186.344 C240.219,185.27 238.671,184.197 237.122,183.122 C236.875,186.656 238.321,189.635 237.364,193.32 C236.411,196.989 233.7,199.891 230.345,201.516 C226.145,203.55 221.209,202.872 216.712,202.735 C211.033,202.561 205.621,202.776 200.233,204.691 C196.768,205.921 192.523,208.674 189.182,205.981 C186.469,203.794 185.344,199.835 184.376,196.649 C183.289,193.073 182.647,189.373 181.71,185.755 C180.709,181.886 179.271,178.23 178.617,174.25 C178.03,170.663 172.848,172.577 171.483,174.569 L171.483,174.569 Z" id="Shape"></path>
                    <path d="M147.008,175.612 C141.921,182.106 142.294,191.211 141.464,199.085 C141.083,202.701 140.642,206.827 138.848,210.062 C137.886,211.797 140.439,210.235 138.77,210.42 C136.185,210.708 133.557,210.61 130.964,210.51 C126.126,210.322 121.294,209.708 116.485,209.179 C112.068,208.693 107.247,208.624 103.465,205.976 C99.767,203.386 98.097,199.03 96.694,194.926 C94.586,188.764 92.152,181.759 91.795,175.275 C91.438,168.817 78.87,172.67 79.117,178.248 C79.14,178.76 79.163,179.272 79.185,179.784 C79.234,180.891 79.921,182.085 81.034,182.451 C85.939,184.066 89.9,181.132 91.595,176.498 C87.436,177.081 83.277,177.665 79.117,178.248 C79.539,185.612 82.269,193.201 84.546,200.198 C86.148,205.12 88.609,209.882 92.734,213.139 C97.247,216.702 102.926,217.664 108.483,218.217 C114.949,218.861 121.395,219.555 127.889,219.853 C138.838,220.356 148.751,217.659 151.348,205.791 C152.476,200.636 152.551,195.215 152.551,189.961 C152.551,185.776 151.833,179.972 153.065,175.973 C154.216,172.226 148.217,174.069 147.008,175.612 L147.008,175.612 Z" id="Shape"></path>
                    <path d="M196.86,183.108 C189.699,185.231 189.855,196.662 193.891,201.364 C196.287,204.155 203.089,201.322 203.711,198.067 C204.625,193.29 204.593,188.497 202.372,184.067 C199.88,179.096 191.806,183.695 191.169,187.79 C190.817,190.043 189.983,193.495 191.054,195.559 C193.07,199.442 199.423,196.843 201.214,194.087 C202.915,191.468 203.804,186.979 202.372,184.067 C198.71,185.655 195.05,187.245 191.388,188.833 C193.37,192.364 193.261,195.625 193.106,199.556 C196.436,198.111 199.766,196.665 203.096,195.22 C200.78,193.429 200.349,191.015 199.904,188.275 C199.595,186.376 200.238,182.105 196.86,183.108 L196.86,183.108 Z" id="Shape"></path>
                    <path d="M149.183,201.096 C155.005,198.707 162.873,190.27 168.276,198.261 C171.544,203.094 183.314,197.879 180.297,193.044 C176.052,186.241 167.687,185.436 160.498,187.225 C156.672,188.176 152.788,190.036 149.816,192.639 C147.968,194.259 144.456,197.774 145.798,200.51 C146.41,201.754 148.139,201.526 149.183,201.096 L149.183,201.096 Z" id="Shape"></path>
                    <path d="M60.035,201.668 C58.398,202.331 57.201,203.482 56.318,204.994 C55.435,206.504 54.246,209.192 56.028,210.482 C58.199,212.054 61.758,210.994 63.132,208.76 C63.599,208.001 63.998,207.277 63.825,206.364 C63.737,205.9 63.683,205.464 63.684,204.99 C63.722,204.629 63.721,204.559 63.683,204.78 C63.732,204.583 63.781,204.384 63.827,204.187 C63.996,203.473 63.89,203.003 63.736,202.308 C63.407,200.84 60.914,201.313 60.035,201.668 L60.035,201.668 Z" id="Shape"></path>
                    <path d="M262.822,208.797 C262.78,209.013 262.765,209.231 262.778,209.449 C262.889,209.109 263.001,208.77 263.112,208.43 C262.582,209.267 262.474,210.306 262.42,211.284 C262.41,211.453 262.192,212.018 262.077,212.3 C261.806,212.959 261.605,213.491 261.592,214.236 C261.575,215.123 262.195,215.884 262.974,216.23 C266.381,217.744 271.548,214.483 270.594,210.592 C270.071,208.458 268.295,206.832 266.074,206.835 C266.464,206.902 266.854,206.97 267.244,207.038 C266.856,206.888 266.438,206.808 266.056,206.651 C264.772,206.124 262.392,207.174 262.822,208.797 L262.822,208.797 Z" id="Shape"></path>
                    <path d="M21.604,255.655 C23.262,259.443 24.323,263.311 26.189,267.055 C28.004,270.7 30.319,274.125 32.515,277.548 C36.748,284.143 41.38,290.48 46.02,296.792 C56.004,310.376 65.887,323.997 75.728,337.684 C85.23,350.9 95.283,363.709 104.752,376.95 C109.645,383.789 114.336,390.77 118.618,398.009 C122.71,404.926 127.421,412.604 129.405,420.448 C132.309,418.123 135.214,415.799 138.118,413.474 C137.866,413.433 137.614,413.393 137.362,413.352 C133.993,412.809 129.499,414.771 128.368,418.194 C127.059,422.156 131.72,422.766 134.409,422.385 C134.687,422.346 134.966,422.306 135.244,422.267 C137.456,421.954 142.942,418.383 140.979,415.424 C136.7,408.977 133.407,401.804 129.264,395.234 C125.082,388.602 120.584,382.157 116.002,375.797 C106.104,362.059 95.394,348.927 85.154,335.445 C75.329,322.509 65.799,309.431 55.611,296.765 C50.432,290.327 45.314,283.855 40.307,277.282 C37.564,273.681 34.923,270.008 32.368,266.271 C29.65,262.296 26.113,258.833 23.509,254.826 C23.018,254.071 21.222,254.782 21.604,255.655 L21.604,255.655 Z" id="Shape"></path>
                    <path d="M24.642,256.184 C23.285,255.543 23.382,255.708 24.934,256.678 C25.642,257.096 26.262,257.616 26.795,258.239 C27.956,259.405 29.131,260.558 30.271,261.746 C32.902,264.483 35.26,267.521 37.542,270.55 C42.334,276.912 46.525,283.698 51.143,290.185 C56.573,297.813 62.918,304.821 68.762,312.136 C75.155,320.136 81.389,328.26 87.602,336.4 C93.82,344.545 99.997,352.722 106.209,360.871 C111.861,368.285 117.246,376.434 123.67,383.193 C130.891,390.791 140.441,396.572 144.593,406.443 C145.694,409.06 149.938,407.5 151.33,406.112 C156.023,401.438 151.771,397.353 148.326,393.511 C143.594,388.233 137.891,383.882 132.693,379.087 C125.485,372.439 119.757,363.56 113.673,355.889 C106.101,346.344 98.579,336.759 90.991,327.227 C77.352,310.095 62.719,293.776 50.162,275.833 C45.163,268.69 39.944,260.72 32.654,255.702 C29.871,253.787 21.77,249.79 21.96,256.304 C22.002,257.711 24.201,256.838 24.642,256.184 L24.642,256.184 Z" id="Shape"></path>
                    <path d="M117.384,447.627 C128.109,441.697 134.007,427.402 140.724,417.742 C143.896,413.181 147.734,407.472 152.899,404.986 C156.764,403.124 160.851,408.93 162.93,411.373 C170.945,420.789 176.735,432.668 181.806,443.879 C182.728,445.917 184.938,449.39 184.522,451.768 C184.174,453.757 180.562,455.454 179.123,456.457 C173.348,460.483 166.45,465.288 160.99,468.166 C158.785,469.328 155.319,471.79 156.631,474.812 C157.854,477.629 162.233,477.283 164.463,476.169 C172.461,472.177 179.58,466.988 186.848,461.859 C192.844,457.628 198.184,453.11 196.327,445.22 C194.817,438.804 190.648,432.233 187.539,426.478 C183.392,418.803 178.721,411.27 173.051,404.618 C148.327,375.615 124.393,429.403 113.679,445.899 C111.97,448.528 116.023,448.38 117.384,447.627 L117.384,447.627 Z" id="Shape"></path>
                    <path d="M113.482,438.109 C107.888,438.95 102.802,442.596 97.94,445.292 C92.098,448.529 86.172,451.6 80.189,454.565 C72.312,458.469 64.753,461.397 56.371,463.938 C47.603,466.594 38.937,469.428 30.925,473.932 C26.1,476.645 15.484,485.435 19.247,492.101 C22.642,498.112 32.236,493.343 34.266,488.53 C35.508,485.586 34.318,485.208 35.954,483.492 C37.78,481.578 40.608,480.146 43.313,478.852 C50.422,475.45 58.042,473.166 65.459,470.549 C73.953,467.553 81.703,463.065 89.558,458.697 C94.754,455.807 99.89,452.808 104.882,449.578 C108.764,447.066 113.834,444.065 115.547,439.541 C116.054,438.199 114.354,437.978 113.482,438.109 L113.482,438.109 Z" id="Shape"></path>
                    <path d="M3.394,517.521 C4.421,523.231 4.495,528.6 6.757,534.066 C8.648,538.635 11.41,542.927 15.194,546.145 C24.656,554.195 39.248,553.799 50.866,553.527 C66.994,553.149 81.886,548.354 95.184,539.271 C110.026,529.133 124.589,518.371 140.841,510.551 C138.642,508.419 136.444,506.286 134.244,504.154 C132.852,505.69 131.766,507.258 130.639,508.977 C129.083,511.348 131.025,513.62 133.655,513.354 C137.719,512.944 140.778,511.274 143.809,508.585 C149.236,503.772 141.898,499.905 137.212,502.188 C123.105,509.057 110.114,517.786 97.278,526.754 C91.209,530.995 85.327,535.692 78.613,538.88 C72.393,541.834 65.566,543.27 58.761,544.045 C47.452,545.334 33.909,546.065 23.5,540.649 C15.051,536.253 8.742,525.491 5.951,516.671 C5.617,515.61 3.214,516.518 3.394,517.521 L3.394,517.521 Z" id="Shape"></path>
                    <path d="M111.8,334.901 C110.494,358.301 144.539,365.176 161.707,366.054 C175.456,366.757 189.045,361.623 200.231,353.901 C204.627,350.867 208.171,347.248 211.523,343.147 C213.453,340.786 218.844,335.816 217.081,332.353 C215.483,329.217 210.841,331.077 208.926,332.754 C206.805,334.612 205.36,337.506 203.616,339.72 C200.935,343.122 198.226,346.024 194.718,348.619 C185.244,355.632 173.66,359.018 161.927,358.284 C143.673,357.141 123.763,351.19 115.133,333.793 C114.437,332.389 111.873,333.607 111.8,334.901 L111.8,334.901 Z" id="Shape"></path>
                    <path d="M216.919,321.776 C217.395,323.44 219.663,324.837 220.872,325.994 C223.312,328.328 225.685,330.712 228.238,332.931 C234.129,338.05 240.616,342.4 247.265,346.464 C254.46,350.863 261.886,354.874 269.124,359.201 C272.916,361.468 276.633,363.832 280.214,366.42 C281.901,367.638 283.545,368.836 284.888,370.428 C286.049,371.806 287.993,371.549 289.525,371.98 C288.351,371.179 287.176,370.378 286.003,369.579 C285.855,368.849 285.842,368.853 285.968,369.593 C287.012,376.427 296.507,372.381 299.121,369.009 C301.224,366.296 301.232,362.588 297.645,361.225 C296.592,360.776 295.492,360.584 294.346,360.654 C295.266,360.154 295.016,359.694 293.594,359.276 C291.514,357.73 289.337,356.312 287.171,354.892 C278.739,349.367 269.658,344.874 260.828,340.038 C252.762,335.619 244.865,330.852 237.58,325.224 C232.685,321.442 225.744,315.937 219.209,318.286 C217.817,318.784 216.48,320.233 216.919,321.776 L216.919,321.776 Z" id="Shape"></path>
                    <path d="M75.107,339.563 C62.728,353.524 45.138,360.917 32.625,374.699 C35.177,374.573 37.728,374.448 40.279,374.322 C38.438,369.466 35.851,363.804 30.465,362.169 C25.828,360.761 21.246,363.075 17.86,366.132 C7.999,375.031 8.095,392.929 6.789,404.93 C4.753,423.622 2.699,442.156 2.192,460.968 C1.926,470.81 1.799,480.654 1.428,490.492 C1.254,495.099 1.029,499.707 0.743,504.308 C0.472,508.688 -0.083,513.944 1.237,518.149 C1.753,519.792 4.783,518.582 5.306,517.559 C8.498,511.314 8.833,503.344 9.378,496.442 C10.001,488.546 10.224,480.615 10.483,472.7 C10.997,457.025 11.438,441.346 13.215,425.751 C14.938,410.64 15.818,395.101 19.113,380.231 C19.961,376.409 21.616,371.316 24.869,368.821 C26.832,367.316 30.89,376.45 31.533,378.117 C32.868,381.579 38.533,378.874 39.877,376.907 C50.002,362.095 71.963,357.564 79.043,340.245 C79.968,337.985 75.959,338.602 75.107,339.563 L75.107,339.563 Z" id="Shape"></path>
                    <path d="M91.583,333.272 C96.873,333.268 101.633,327.98 105.215,324.67 C106.742,323.26 108.952,320.995 109.911,320.388 C112.17,318.956 115.364,316.155 115.362,313.325 C115.36,309.84 111.143,309.793 108.738,310.138 C103.296,310.921 100.275,316.729 97.141,320.125 C94.456,323.034 89.815,326.337 88.413,330.127 C87.621,332.274 89.855,333.274 91.583,333.272 L91.583,333.272 Z" id="Shape"></path>
                    <path d="M168.792,364.116 C171.337,360.834 169.425,363.299 168.792,364.116 C167.955,365.194 167.814,365.891 167.602,367.22 C167.052,370.658 168.152,374.487 168.967,377.796 C169.948,381.785 171.605,385.694 173.357,389.397 C174.521,391.858 176.672,397.071 179.831,397.36 C198.517,399.066 214.384,387.638 224.644,372.902 C231.158,363.546 234.108,352.527 236.24,341.465 C237.139,336.801 238.338,331.397 237.514,326.639 C236.453,320.514 230.192,320.725 225.684,323.327 C221.502,325.742 222.642,330.183 227.225,330.456 C224.974,330.322 224.567,329.359 224.841,329.885 C225.227,330.623 225.201,331.024 225.28,331.905 C225.524,334.589 225.143,337.36 224.71,340.006 C223.652,346.476 221.981,352.888 219.947,359.116 C215.23,373.56 201.695,389.096 184.245,388.368 C185.458,388.74 186.67,389.111 187.882,389.482 C184.001,385.286 181.397,380.082 179.101,374.892 C177.58,371.453 176.256,364.716 172.922,362.725 C171.56,361.912 169.612,363.059 168.792,364.116 L168.792,364.116 Z" id="Shape"></path>
                    <path d="M156.791,364.089 C153.515,368.767 152.324,374.395 150.808,379.823 C149.545,384.343 148.175,391.227 146.227,394.628 C149.016,393.418 151.804,392.208 154.592,390.998 C154.471,390.976 154.35,390.953 154.229,390.93 C150.905,390.307 143.77,393.466 145.576,397.856 C145.613,397.946 145.65,398.036 145.687,398.126 C147.071,401.491 152.629,400.25 154.798,398.622 C159.539,395.062 158.356,389.655 159.652,384.416 C161.22,378.072 162.912,370.362 162.362,363.843 C162.118,360.937 157.777,362.681 156.791,364.089 L156.791,364.089 Z" id="Shape"></path>
                    <path d="M98.888,323.906 C98.076,324.818 97.121,325.389 96.345,326.434 C95.415,327.686 95.093,329.361 94.785,330.845 C94.025,334.517 94.284,338.553 94.75,342.248 C95.34,346.933 104.494,344.033 103.881,340.107 C103.392,336.978 102.724,333.924 102.48,330.758 C102.383,329.494 102.314,328.268 102.337,326.999 C102.35,326.354 101.757,324.839 101.843,324.417 C102.193,322.679 99.636,323.066 98.888,323.906 L98.888,323.906 Z" id="Shape"></path>
                    <path d="M114.042,440.512 C109.88,453.474 115.808,469.848 124.907,479.594 C128.758,483.717 133.172,487.271 136.871,491.541 C140.725,495.991 140.24,499.195 137.365,503.829 C136.397,505.39 136.476,507.339 138.319,508.189 C140.885,509.376 143.766,508.009 145.746,506.38 C150.029,502.855 151.946,497.653 150.498,492.309 C149.114,487.2 142.959,482.907 139.135,479.754 C134.3,475.771 129.033,471.733 125.738,466.306 C120.859,458.274 118.36,449.01 116.287,439.977 C116.055,438.975 114.238,439.901 114.042,440.512 L114.042,440.512 Z" id="Shape"></path>
                    <path d="M138.931,485.041 C142.464,480.299 144.173,479.084 150.013,478.328 C155.215,477.654 160.644,477.287 164.995,474.032 C168.578,471.351 166.927,467.86 162.615,468.547 C154.654,469.816 129.698,471.933 134.581,485.672 C135.245,487.536 138.224,485.991 138.931,485.041 L138.931,485.041 Z" id="Shape"></path>
                    <path d="M57.83,441.431 C55.463,446.926 56.082,453.447 55.418,459.3 C55.112,461.998 53.261,466.809 55.406,468.937 C57.781,471.293 62.366,469.572 64.362,467.598 C67.09,464.901 66.457,460.874 66.412,457.335 C66.345,452.01 66.581,444.722 64.022,439.958 C62.663,437.427 58.662,439.499 57.83,441.431 L57.83,441.431 Z" id="Shape"></path>
                    <path d="M114.867,297.878 C114.157,301.156 114.671,304.72 114.629,308.059 C114.574,312.392 114.288,316.726 113.946,321.043 C113.618,325.188 113.05,329.314 112.181,333.379 C111.575,336.22 110.068,338.998 109.909,341.881 C109.667,346.268 116.51,343.605 118.044,342.354 C123.237,338.116 122.404,327.556 122.412,321.606 C122.418,316.962 122.204,312.272 121.554,307.671 C121.049,304.102 120.834,299.596 118.576,296.633 C117.712,295.5 115.119,296.717 114.867,297.878 L114.867,297.878 Z" id="Shape"></path>
                    <path d="M205.007,297.077 C201.984,307.029 202.397,318.16 203.745,328.384 C204.162,331.546 204.179,336.151 206.125,338.805 C206.935,339.909 208.531,340.254 209.824,340.177 C211.181,340.097 212.497,339.656 213.629,338.901 C213.962,338.631 214.296,338.362 214.63,338.092 C216.715,336.188 215.51,334.448 211.013,332.873 C212.469,334.311 213.925,335.747 215.381,337.185 C216.604,335.402 216.13,333.533 215.584,331.605 C214.663,328.351 213.931,325.033 213.297,321.712 C211.683,313.247 213.207,303.904 210.53,295.764 C209.75,293.387 205.5,295.452 205.007,297.077 L205.007,297.077 Z" id="Shape"></path>
                    <path d="M117.433,314.872 C117.587,314.626 117.548,314.643 117.319,314.925 C116.63,315.297 115.941,315.669 115.252,316.041 C116.195,315.895 116.949,315.311 117.654,314.722 C116.671,315.543 116.123,315.654 116.78,315.339 C116.535,315.421 116.289,315.503 116.043,315.584 C116.447,315.515 116.838,315.391 117.215,315.214 C116.744,315.428 116.251,315.548 115.735,315.572 C116.373,315.507 114.752,315.44 115.395,315.569 C115.067,315.504 117.776,315.722 115.985,315.594 C116.783,315.651 117.379,315.629 118.17,315.468 C119.194,315.26 120.218,314.691 120.961,313.961 C121.68,313.255 122.394,312.054 121.899,311.02 C121.267,309.7 119.62,309.26 118.262,309.373 C116.776,309.495 115.527,309.989 114.234,310.712 C113.585,311.075 113.087,311.65 112.659,312.242 C112.435,312.554 111.959,313.513 112.052,313.968 C112.081,314.113 112.089,314.254 112.109,314.4 C112.114,314.65 112.172,314.88 112.284,315.093 C112.395,315.252 112.507,315.41 112.617,315.57 C112.561,315.374 112.581,315.371 112.676,315.562 C113.689,317.208 116.622,316.346 117.433,314.872 L117.433,314.872 Z" id="Shape"></path>
                    <path d="M207.898,315.873 C208.363,318.038 210.632,320.029 211.899,321.785 C212.283,322.316 212.683,322.833 213.096,323.342 C213.267,323.512 213.435,323.685 213.601,323.861 C214.316,324.608 213.345,323.378 213.835,324.131 C215.312,326.396 218.632,326.143 220.671,324.783 C222.19,323.771 223.605,321.828 222.716,319.973 C222.118,318.727 221.384,317.596 220.482,316.546 C218.926,314.735 216.716,312.351 214.419,311.551 C211.709,310.608 207.173,312.499 207.898,315.873 L207.898,315.873 Z" id="Shape"></path>
                    <path d="M258.796,447.786 C258.075,450.073 257.805,452.292 258.41,454.675 C259.014,457.05 261.227,459.506 261.366,461.896 C261.788,469.15 261.698,476.434 262.241,483.681 C262.804,491.187 263.387,498.686 264.37,506.15 C264.813,509.519 265.381,512.87 266.019,516.208 C266.577,519.123 268.453,523.023 268.278,525.905 C268.001,530.464 276.571,527.444 277.118,523.832 C278.318,515.923 267.083,518.586 268.278,525.905 C269.012,530.407 277.361,527.703 277.118,523.832 C276.973,521.507 275.755,518.918 275.191,516.643 C274.31,513.087 273.684,509.473 273.094,505.862 C271.888,498.466 271.1,490.995 270.309,483.545 C269.605,476.899 268.486,470.336 267.166,463.786 C266.679,461.367 266.553,459.14 264.766,457.38 C262.104,454.757 261.985,450.613 260.593,447.36 C260.277,446.616 258.974,447.223 258.796,447.786 L258.796,447.786 Z" id="Shape"></path>
                    <path d="M300.991,374.648 C301.541,371.507 302.189,368.344 303.781,365.542 C305.52,362.479 308.006,366.112 308.823,367.761 C311.33,372.815 311.9,378.933 312.539,384.452 C313.798,395.325 313.429,406.328 314.738,417.181 C316.873,434.881 319.134,452.566 320.995,470.296 C321.884,478.762 322.652,487.24 323.246,495.732 C323.517,499.599 323.723,503.47 323.881,507.343 C324.027,510.896 323.401,515.097 324.937,518.38 C326.406,521.52 331.609,518.906 332.49,516.584 C333.844,513.013 333.192,508.945 333.017,505.2 C332.789,500.32 332.421,495.447 332.017,490.579 C331.167,480.362 330.017,470.169 328.799,459.99 C326.683,442.297 323.381,424.572 322.323,406.78 C321.531,393.467 321.375,378.719 316.422,366.158 C314.362,360.936 310.064,358.167 304.358,359.579 C297.576,361.259 295.478,369.248 296.334,375.302 C296.65,377.552 300.681,376.419 300.991,374.648 L300.991,374.648 Z" id="Shape"></path>
                    <path d="M128.046,29.196 C128.064,28.45 128.082,27.703 128.1,26.956 C128.158,24.556 123.348,25.954 123.297,28.083 C122.972,41.636 123.606,55.035 127.416,68.171 C128.286,71.171 134.04,68.407 134.111,65.946 C134.502,52.596 134.241,39.133 132.291,25.904 C131.788,22.492 125.699,24.203 125.219,26.896 C122.402,42.686 126.93,57.907 130.28,73.23 C130.951,76.298 137.256,73.534 137.255,70.913 C137.248,52.928 137.093,34.895 133.106,17.268 C132.397,14.131 126.27,17.056 126.157,19.578 C125.338,37.956 130.151,55.757 135.278,73.232 C136.181,76.313 142.259,73.528 142.258,70.912 C142.257,53.183 142.08,35.458 139.258,17.912 C138.669,14.248 132.14,16.49 132.141,19.582 C132.143,37.704 132.397,55.892 138.272,73.234 C139.31,76.298 145.261,73.546 145.264,70.911 C145.287,52.196 145.29,33.426 142.326,14.896 C141.718,11.094 135.263,13.518 135.074,16.597 C134.203,30.794 138.059,44.829 142.135,58.293 C143.138,61.606 149.245,58.491 149.408,55.877 C150.266,42.067 146.541,28.563 145.423,14.873 C142.989,15.682 140.555,16.49 138.12,17.3 C140.151,25.089 142.973,32.59 143.974,40.62 C144.454,44.475 151.419,42.095 151.427,38.872 C151.448,30.867 151.468,22.862 151.489,14.857 C149.012,15.68 146.535,16.503 144.058,17.326 C146.613,25.596 146.874,34.117 147.846,42.65 C148.3,46.639 155.547,44.173 155.555,40.841 C155.577,32.169 155.599,23.497 155.621,14.825 C153.007,15.438 150.393,16.052 147.779,16.665 C147.887,21.755 148.762,26.689 149.741,31.674 C150.571,35.908 157.226,33.078 157.659,29.817 C158.717,21.859 158.698,13.816 158.721,5.802 C158.732,1.746 150.732,4.144 150.68,7.689 C150.581,14.374 149.742,21.015 149.636,27.699 C152.293,26.816 154.95,25.933 157.609,25.05 C156.181,20.628 155.246,13.595 149.689,12.714 C150.346,13.668 151.003,14.622 151.662,15.576 C151.998,13.615 152.587,11.776 152.801,9.785 C150.068,10.426 147.335,11.066 144.602,11.707 C146.548,24.466 148.711,37.18 152.691,49.486 C153.751,52.763 160.281,50.156 160.742,47.572 C161.808,41.596 161.796,35.763 160.906,29.759 C160.298,25.652 153.423,27.905 152.63,30.921 C150.503,39.023 150.497,47.411 150.495,55.732 C153.3,55.075 156.104,54.417 158.909,53.759 C158.679,48.707 157.011,43.85 155.744,38.991 C154.727,35.089 147.839,38.943 147.498,41.731 C146.452,50.288 145.503,59.261 148.665,67.497 C150.002,70.979 155.924,67.952 156.769,65.57 C159.826,56.947 160.943,47.021 155.734,38.995 C154.062,36.419 149.338,37.643 148.04,40.11 C142.597,50.461 139.469,67.597 148.127,77.131 C149.914,79.098 154.306,77.376 155.359,75.377 C161.623,63.502 164.558,43.912 156.271,32.363 C154.629,30.075 150.142,32.449 149.054,34.112 C142.836,43.609 143.082,60.146 150.14,69.121 C151.618,71 155.461,69.475 156.712,68.139 C168.888,55.133 166.261,31.915 162.701,16.009 C161.941,12.615 155.167,15.492 154.675,17.918 C151.487,33.616 151.413,55.668 163.158,68.109 C165.155,70.225 170.078,68.098 170.72,65.571 C175.079,48.395 174.88,25.674 165.681,10.017 C164.041,7.228 158.254,8.94 157.696,11.915 C154.392,29.523 156.455,52.213 167.151,67.113 C168.894,69.541 174.148,66.841 174.729,64.569 C179.1,47.495 179.966,25.086 171.717,9.001 C170.183,6.011 164.239,8.064 163.659,10.917 C159.668,30.522 166.227,50.149 172.681,68.487 C173.897,71.94 180.001,68.964 180.75,66.569 C184.786,53.68 184.01,39.928 181.887,26.761 C181.247,22.797 174.24,24.767 173.648,27.917 C171.396,39.91 171.395,53.251 176.674,64.49 C178.281,67.912 184.874,64.988 184.891,61.76 C184.944,51.078 185.815,40.335 183.894,29.759 C183.115,25.468 175.494,28.065 175.509,31.726 C175.558,43.158 176.464,54.479 178.428,65.745 C179.194,70.134 186.966,67.461 186.975,63.741 C186.992,56.386 186.967,49.035 186.031,41.727 C185.522,37.758 179.265,39.668 177.92,42.087 C173.991,49.151 145.399,65.349 165.553,71.02 C168.022,71.715 172.116,69.475 172.122,66.706 C172.128,64.705 172.133,62.704 172.138,60.703 C172.144,58.414 169.283,58.226 167.664,58.551 C161.957,59.697 158.772,60.553 155.797,66.068 C153.381,70.547 159.493,70.427 162.026,68.968 C165.872,66.753 168.014,63.423 170.971,60.258 C175.221,55.708 167.429,53.972 164.434,57.229 C162.115,59.75 160.383,62.76 157.379,64.519 C159.455,65.486 161.531,66.453 163.608,67.419 C163.863,66.937 164.118,66.454 164.373,65.972 C165.451,64.669 165.291,64.503 163.894,65.472 C165.192,65.365 166.464,65.197 167.742,64.936 C166.251,64.218 164.76,63.501 163.268,62.784 C163.273,64.783 163.278,66.782 163.284,68.781 C165.473,67.343 167.663,65.904 169.853,64.467 C163.487,62.705 170.698,57.836 173.286,55.576 C177.491,51.904 182.735,48.395 185.486,43.399 C182.782,43.519 180.079,43.639 177.375,43.759 C178.349,51.054 178.41,58.398 178.431,65.745 C181.281,65.077 184.128,64.409 186.978,63.741 C184.958,52.503 183.949,41.178 183.897,29.76 C181.102,30.415 178.307,31.072 175.512,31.727 C177.435,42.302 176.567,53.044 176.515,63.726 C179.254,62.816 181.994,61.906 184.732,60.996 C179.947,50.812 179.71,38.489 181.758,27.569 C179.011,27.955 176.265,28.34 173.519,28.725 C175.553,41.319 176.517,54.577 172.656,66.917 C175.345,66.278 178.035,65.638 180.725,64.999 C174.681,47.838 168.006,28.969 171.747,10.569 C169.061,11.208 166.376,11.846 163.689,12.485 C171.434,27.577 170.777,48.856 166.677,64.917 C169.203,64.068 171.729,63.221 174.255,62.373 C169.305,55.488 167.166,46.627 165.851,38.395 C164.454,29.65 164.077,20.309 165.71,11.571 C163.049,12.204 160.387,12.837 157.725,13.469 C166.387,28.183 166.805,49.713 162.686,65.915 C165.207,65.069 167.727,64.223 170.248,63.377 C159.767,52.266 159.879,31.594 162.731,17.568 C160.056,18.205 157.38,18.841 154.705,19.477 C156.424,27.172 157.085,35.127 156.958,43.001 C156.839,50.375 155.997,59.686 150.694,65.347 C152.884,65.019 155.075,64.692 157.266,64.365 C151.733,57.322 151.491,42.795 156.352,35.374 C153.947,35.957 151.541,36.541 149.135,37.123 C152.738,42.148 152.811,49.146 152.562,55.059 C152.293,61.41 151.044,68.431 148.047,74.11 C150.457,73.525 152.868,72.941 155.279,72.356 C148.376,64.749 151.025,49.624 155.366,41.377 C152.801,41.748 150.236,42.12 147.672,42.492 C152.359,49.721 151.399,58.138 148.637,65.917 C151.338,65.275 154.039,64.633 156.741,63.99 C153.799,56.316 154.93,47.716 155.908,39.756 C153.159,40.67 150.411,41.583 147.662,42.496 C148.798,46.865 150.292,51.187 150.497,55.728 C150.692,60.039 158.909,57.425 158.911,53.755 C158.916,45.999 158.819,38.125 160.776,30.566 C158.017,30.954 155.258,31.34 152.5,31.728 C153.317,37.103 153.604,42.534 152.664,47.916 C155.348,47.277 158.031,46.64 160.715,46.002 C156.847,34.197 154.72,22.026 152.804,9.781 C152.119,5.409 144.956,8.306 144.605,11.703 C144.455,13.158 143.983,14.486 143.744,15.912 C143.495,17.4 144.117,18.525 145.717,18.774 C147.844,19.104 149.261,26.798 149.797,28.438 C150.949,31.959 157.734,28.768 157.77,25.789 C157.851,19.113 158.662,12.476 158.726,5.799 C156.045,6.428 153.366,7.057 150.685,7.686 C150.704,15.688 150.762,23.719 149.747,31.671 C152.386,31.052 155.026,30.433 157.665,29.814 C156.662,24.837 155.762,19.91 155.627,14.823 C155.522,10.835 147.776,13.219 147.785,16.663 C147.807,25.324 147.829,33.985 147.851,42.647 C150.42,42.043 152.991,41.442 155.56,40.838 C154.489,31.839 154.088,22.868 151.348,14.162 C150.32,10.895 143.91,13.836 143.917,16.631 C143.938,24.626 143.958,32.621 143.979,40.616 C146.463,40.033 148.948,39.451 151.432,38.868 C150.33,30.387 147.418,22.429 145.286,14.188 C144.479,11.072 137.756,13.775 137.983,16.615 C139.076,30.297 142.786,43.818 141.998,57.611 C144.423,56.806 146.847,56.001 149.271,55.195 C145.245,42.14 141.502,28.682 142.332,14.891 C139.915,15.458 137.497,16.025 135.08,16.592 C138.067,35.107 138.116,53.872 138.142,72.577 C140.472,71.803 142.803,71.028 145.134,70.254 C139.363,53.363 139.268,35.558 139.265,17.906 C136.893,18.463 134.52,19.019 132.148,19.576 C134.968,37.122 135.146,54.847 135.148,72.576 C137.474,71.803 139.801,71.029 142.128,70.256 C137.116,53.173 132.462,35.872 133.249,17.91 C130.933,18.68 128.616,19.45 126.3,20.22 C130.194,37.364 130.154,55.088 130.151,72.575 C132.476,71.803 134.8,71.03 137.126,70.258 C134.013,55.972 129.53,41.324 132.187,26.592 C129.83,26.923 127.472,27.253 125.115,27.584 C127.045,40.848 126.895,54.182 127.295,67.542 C129.526,66.8 131.759,66.059 133.99,65.317 C129.63,52.86 128.427,40.013 128.109,26.95 C128.05,24.519 123.255,25.952 123.306,28.077 C123.324,28.815 123.342,29.554 123.36,30.292 C123.41,32.701 127.998,31.237 128.046,29.196 L128.046,29.196 Z" id="Shape"></path>
                    <path d="M77.109,158.354 C77.019,164.462 77.736,170.611 80.719,176.04 C82.045,178.453 86.785,176.497 86.797,174.02 C86.839,164.937 86.734,155.924 84.935,146.988 C84.273,143.699 78.437,145.663 78.462,148.506 C78.521,154.942 79.338,161.433 82.4,167.179 C83.925,170.042 88.838,167.519 89.129,164.943 C90.184,155.631 88.966,146.42 87.005,137.313 C86.371,134.371 80.22,136.994 80.26,139.554 C80.427,150.392 83.187,160.675 88.28,170.231 C89.853,173.181 94.978,170.601 95.255,167.914 C96.331,157.461 94.912,147.058 91.16,137.246 C90.097,134.466 84.667,136.622 84.213,138.898 C82.313,148.417 83.012,157.848 85.258,167.242 C85.998,170.339 92.281,167.541 92.279,164.908 C92.275,161.908 92.277,158.908 92.277,155.909 C89.891,156.469 87.506,157.027 85.121,157.587 C85.557,160.233 86.016,162.906 86.121,165.587 C86.264,169.183 92.497,167.009 93.164,164.599 C96.519,152.483 95.255,139.286 92.142,127.254 C91.301,124.004 85.327,127.125 85.12,129.588 C84.141,141.217 84.834,154.123 91.183,164.275 C92.706,166.711 97.672,165.253 98.243,162.596 C101.144,149.071 99.636,135.385 97.396,121.881 C96.821,118.408 90.59,120.09 90.12,122.902 C88.016,135.478 88.633,149.603 94.146,161.29 C95.436,164.023 100.752,162.041 101.28,159.594 C104.457,144.841 102.468,129.655 100.31,114.902 C99.766,111.18 93.075,113.463 93.089,116.595 C93.154,130.563 92.98,145.077 98.16,158.284 C99.265,161.101 104.812,158.945 105.264,156.595 C108.297,140.782 107.439,124.773 105.319,108.9 C104.82,105.163 98.069,107.462 98.081,110.597 C98.134,125.534 97.989,141.076 103.077,155.321 C104.231,158.555 110.446,155.653 110.469,152.865 C110.592,137.198 110.501,121.528 110.49,105.86 C110.488,102.043 102.919,104.284 102.912,107.637 C102.882,121.261 101.877,135.176 105.952,148.375 C107.025,151.849 113.437,148.593 113.599,145.834 C114.564,129.506 112.759,113.118 114.601,96.833 C112.001,97.443 109.4,98.053 106.8,98.663 C105.812,115.289 106.816,132.454 111.872,148.409 C112.882,151.596 119.041,148.983 119.556,146.582 C123.446,128.454 121.778,110.19 121.646,91.822 C121.618,87.761 113.964,90.296 113.755,93.674 C112.823,108.703 113.912,123.849 117.882,138.405 C118.855,141.971 125.486,138.593 125.671,135.816 C126.667,120.832 126.741,105.808 127.656,90.82 C125.018,91.438 122.382,92.057 119.744,92.675 C121.66,103.937 120.822,115.425 122.653,126.696 C123.337,130.904 129.51,128.15 130.619,125.578 C136.213,112.597 134.775,97.589 135.73,83.802 C133.043,84.432 130.356,85.063 127.669,85.693 C127.6,97.58 125.67,110.272 130.794,121.442 C132.308,124.742 137.697,121.943 138.633,119.578 C143.969,106.081 142.811,91.013 142.75,76.798 C142.732,72.715 134.643,75.112 134.648,78.698 C134.669,90.362 134.459,102.196 136.597,113.71 C137.353,117.778 143.697,115.438 144.671,112.577 C148.609,101.015 147.98,88.734 149.788,76.789 C147.061,77.428 144.335,78.068 141.608,78.707 C141.58,88.716 140.851,98.74 143.769,108.453 C144.874,112.133 150.743,108.533 151.655,106.578 C154.943,99.533 155.777,91.469 155.854,83.773 C155.875,81.737 153.153,81.3 151.663,81.756 C144.606,83.915 137.966,87.478 130.663,88.749 C132.063,89.423 133.464,90.097 134.864,90.77 C134.864,89.436 134.865,88.102 134.865,86.769 C134.867,82.973 129.149,85.095 127.69,86.353 C123.06,90.342 121.58,95.787 122.524,101.725 C122.781,103.336 124.105,103.965 125.66,103.9 C133.686,103.567 140.058,99.605 145.716,94.145 C143.317,94.006 140.917,93.867 138.517,93.727 C137.027,107.485 125.298,118.854 117.03,129.111 C113.84,133.069 121.584,133.27 123.73,131.151 C131.621,123.364 140.337,116.432 147.742,108.157 C145.367,107.745 142.992,107.334 140.616,106.923 C137.108,119.413 126.258,128.077 119.987,139.105 C117.674,143.174 123.542,143.521 125.908,141.863 C136.711,134.291 143.754,122.494 150.427,111.393 C153.237,106.718 144.92,106.898 142.972,110.102 C136.963,119.982 129.981,129.222 123.971,139.102 C126.592,139.257 129.212,139.414 131.832,139.57 C136.136,127.41 144.913,117.645 152.436,107.395 C149.945,106.963 147.453,106.532 144.961,106.1 C139.966,116.062 134.679,125.867 128.469,135.132 C122.292,144.349 114.673,154.01 104.521,159.034 C105.659,160.651 106.795,162.268 107.933,163.887 C115.331,158.363 120.845,151.346 125.456,143.398 C128.257,138.57 119.963,139.024 117.94,142.097 C113.041,149.544 105.618,154.525 98.48,159.623 C100.461,160.546 102.444,161.47 104.425,162.393 C109.351,155.503 114.322,148.648 119.81,142.19 C117.517,141.492 115.224,140.794 112.931,140.095 C105.996,151.695 97.021,161.78 86.532,170.281 C89.05,170.427 91.567,170.573 94.085,170.719 C93.435,156.221 102.729,139.726 114.003,130.955 C118.829,127.202 113.365,123.451 109.394,126.541 C95.96,136.989 84.462,155.208 85.312,172.777 C85.506,176.771 91.208,174.565 92.865,173.215 C103.81,164.299 113.254,153.548 120.466,141.401 C123.109,136.951 115.721,136.78 113.587,139.306 C107.679,146.3 102.289,153.657 96.972,161.103 C94.178,165.014 100.739,165.418 102.917,163.873 C111.242,157.969 119.746,152.045 125.457,143.399 C122.951,142.965 120.447,142.532 117.941,142.098 C114.077,148.73 109.675,154.968 103.464,159.609 C99.469,162.594 102.729,166.516 106.876,164.462 C129.085,153.46 141.818,128.595 152.436,107.397 C154.992,102.296 147.042,103.264 144.961,106.102 C137.05,116.89 128.087,127.13 123.565,139.927 C121.971,144.437 129.942,142.835 131.426,140.395 C137.434,130.515 144.416,121.275 150.425,111.395 C147.94,110.964 145.455,110.535 142.97,110.104 C137.104,119.863 130.996,130.955 121.489,137.634 C123.463,138.554 125.436,139.473 127.41,140.392 C133.99,128.781 145.099,119.761 148.781,106.574 C149.957,102.361 143.333,103.46 141.655,105.34 C134.264,113.623 125.55,120.556 117.667,128.346 C119.9,129.026 122.134,129.705 124.367,130.386 C133.553,118.975 145.238,107.027 146.88,91.77 C147.284,88.001 140.931,90.143 139.681,91.352 C136.207,94.707 132.724,97.386 127.737,97.597 C128.782,98.322 129.827,99.046 130.873,99.772 C130.22,95.693 130.381,92.015 133.707,89.144 C131.315,89.005 128.924,88.867 126.532,88.728 C126.532,90.061 126.533,91.394 126.533,92.727 C126.535,94.905 129.21,95.014 130.734,94.748 C138.089,93.463 144.652,89.912 151.734,87.741 C150.338,87.068 148.94,86.396 147.543,85.724 C147.477,92.954 146.795,100.278 143.742,106.919 C146.371,106.294 148.999,105.669 151.628,105.044 C148.801,95.866 149.71,86.251 149.789,76.79 C149.826,72.422 142.119,75.46 141.609,78.708 C139.821,90.104 140.445,101.885 136.726,112.92 C139.417,112.542 142.109,112.165 144.8,111.787 C142.62,100.299 142.731,88.448 142.749,76.799 C140.049,77.433 137.348,78.066 134.647,78.699 C134.659,92.372 135.828,106.923 130.764,119.919 C133.377,119.297 135.99,118.676 138.603,118.055 C133.637,107.396 135.627,95.169 135.728,83.804 C135.764,79.672 127.916,82.247 127.667,85.695 C126.708,98.984 128.063,113.383 122.778,125.919 C125.433,125.546 128.089,125.174 130.744,124.801 C128.81,113.559 129.502,102.075 127.653,90.822 C126.971,86.67 119.965,89.324 119.741,92.677 C118.742,107.664 118.644,122.691 117.726,137.681 C120.322,136.818 122.918,135.955 125.515,135.092 C121.594,121.018 120.645,106.361 121.642,91.823 C119.012,92.44 116.381,93.057 113.751,93.675 C113.758,111.428 115.46,129.383 111.841,146.915 C114.402,146.306 116.963,145.696 119.525,145.088 C114.472,129.609 113.566,112.993 114.597,96.834 C114.849,92.894 107.184,95.359 106.796,98.664 C104.881,114.953 106.642,131.331 105.798,147.663 C108.347,146.816 110.896,145.97 113.445,145.122 C109.436,132.491 110.438,118.926 110.485,105.86 C107.96,106.452 105.432,107.046 102.907,107.637 C102.895,123.301 102.804,138.968 102.928,154.632 C105.392,153.814 107.856,152.994 110.32,152.176 C105.14,138.395 105.27,123.414 105.316,108.9 C102.904,109.465 100.49,110.032 98.078,110.597 C100.014,125.902 100.97,141.645 98.133,156.902 C100.5,156.339 102.868,155.776 105.237,155.213 C100.158,142.5 100.25,128.387 100.308,114.902 C97.901,115.466 95.495,116.031 93.087,116.595 C95.024,130.746 97.117,145.758 94.117,159.903 C96.495,159.338 98.873,158.772 101.251,158.207 C96.133,147.458 95.304,134.236 97.277,122.595 C94.851,122.936 92.425,123.276 90.001,123.616 C92.113,136.542 93.895,149.932 91.154,162.901 C93.508,162.341 95.861,161.782 98.214,161.222 C92.023,151.399 91.379,139.194 92.277,127.909 C89.936,128.687 87.595,129.465 85.255,130.243 C88.15,141.263 89.306,153.797 86.233,164.898 C88.581,164.569 90.928,164.239 93.276,163.91 C93.17,161.228 92.712,158.555 92.276,155.91 C91.67,152.229 85.12,154.478 85.12,157.588 C85.12,160.589 85.122,163.589 85.118,166.589 C87.459,165.811 89.8,165.033 92.139,164.255 C90.148,155.866 89.475,147.097 91.184,138.599 C88.869,139.15 86.552,139.701 84.237,140.251 C87.813,149.649 89.062,159.58 88.142,169.583 C90.467,168.811 92.791,168.038 95.117,167.266 C90.095,158.104 87.275,148.423 87.137,137.943 C84.889,138.69 82.641,139.437 80.392,140.184 C82.259,148.951 82.96,157.616 82.268,166.554 C84.511,165.809 86.754,165.064 88.997,164.318 C85.968,158.97 85.051,153.068 84.934,146.991 C82.818,147.694 80.702,148.397 78.586,149.1 C80.43,157.788 80.551,166.631 80.599,175.476 C82.625,174.803 84.651,174.13 86.677,173.456 C83.789,168.293 82.561,163.036 82.287,157.142 C82.166,154.475 77.142,156.107 77.109,158.354 L77.109,158.354 Z" id="Shape"></path>
                    <path d="M121.882,134.295 C122.45,133.659 120.784,135.058 122.274,134.065 C122.707,133.776 122.988,133.375 123.306,132.976 C124.224,131.83 124.81,130.497 125.441,129.181 C126.888,126.162 127.944,122.858 128.756,119.615 C126.718,119.703 124.679,119.791 122.641,119.879 C121.583,124.524 120.974,129.255 119.97,133.907 C119.023,138.296 126.476,136.66 127.427,133.587 C128.07,131.515 129.366,129.729 130.759,128.087 C131.926,126.711 133.755,125.259 133.425,123.253 C133.185,121.79 131.743,121.584 130.484,121.839 C125.515,122.843 121.278,129.314 119.97,133.907 C122.495,133.553 125.023,133.198 127.548,132.844 C128.287,128.284 128.167,123.589 128.855,119.007 C129.281,116.17 123.052,117.501 122.641,119.879 C122.122,122.886 121.288,125.813 120.371,128.719 C120.001,129.891 119.578,131.097 119.342,132.302 C119.267,132.684 119.079,133.12 119.084,133.513 C119.102,134.904 119.31,133.443 119.266,133.499 C118.075,135.032 121.051,135.223 121.882,134.295 L121.882,134.295 Z" id="Shape"></path>
                    <path d="M150.289,79.139 C150.297,78.929 150.299,78.719 150.323,78.511 C149.031,79.36 147.74,80.207 146.448,81.056 C146.453,81.057 146.457,81.057 146.461,81.058 C146.015,80.618 145.568,80.176 145.121,79.737 C146.398,88.706 144.627,98.392 147.48,107.143 C148.293,109.635 152.8,107.782 153.624,106.253 C160.071,94.273 158.375,80.9 160.38,67.883 C157.926,68.458 155.473,69.034 153.019,69.61 C152.994,80.617 152.98,91.624 152.93,102.631 C152.914,106.233 158.943,104.171 159.993,102.318 C166.639,90.588 165.875,75.679 163.599,62.834 C162.93,59.063 156.686,61.07 155.923,63.91 C151.756,79.432 152.823,95.754 152.82,111.658 C152.82,115.781 159.527,112.834 160.455,110.586 C163.748,102.611 167.226,89.395 160.067,82.5 C158.195,80.697 154.437,82.251 153.254,84.151 C146.964,94.257 147.65,106.254 147.657,117.695 C147.659,121.561 154.093,119.343 155.228,117.359 C162.545,104.574 164.415,84.961 159.692,71.014 C158.463,67.387 152.586,70.785 151.674,72.92 C147.177,83.462 144.288,97.478 148.707,108.479 C149.895,111.434 155.257,109.426 156.322,107.375 C161.593,97.233 161.84,85.969 161.843,74.774 C161.844,70.423 153.947,73.302 153.552,76.719 C152.448,86.278 150.843,95.981 157.158,104.108 C158.825,106.253 163.268,104.157 164.316,102.374 C169.466,93.606 170.768,83.799 170.836,73.776 C168.077,74.423 165.317,75.07 162.559,75.717 C162.562,83.4 162.563,91.086 163.561,98.717 C164.124,103.014 170.649,100.207 171.704,97.574 C174.962,89.442 175.767,80.465 175.835,71.775 C175.868,67.621 167.591,70.049 167.562,73.716 C167.496,82.023 166.675,90.325 168.721,98.472 C169.606,101.993 176.025,98.81 176.704,96.574 C178.673,90.096 178.829,83.498 178.835,76.775 C176.077,77.422 173.319,78.069 170.562,78.716 L170.562,102.716 C170.562,107.076 177.741,104.025 178.705,101.573 C181.927,93.384 181.83,84.442 181.833,75.775 C181.834,71.612 173.579,74.056 173.565,77.714 C173.52,89.774 172.8,101.867 176.731,113.466 C177.863,116.807 184.066,114.018 184.696,111.572 C187.629,100.173 187.818,88.48 187.819,76.777 C187.819,72.629 179.59,75.064 179.579,78.711 C179.539,92.029 178.667,105.395 181.701,118.479 C182.474,121.814 189.305,119.066 189.725,116.571 C191.671,105.013 190.943,93.421 190.891,81.761 C188.096,82.416 185.301,83.073 182.506,83.728 C183.589,97.34 181.55,111.234 185.667,124.495 C186.691,127.793 193.314,125.162 193.759,122.57 C195.845,110.396 195.89,98.079 195.891,85.761 C195.892,81.536 187.527,84.021 187.506,87.728 C187.425,102.049 185.649,116.517 189.656,130.499 C190.796,134.476 197.473,130.461 197.902,127.759 C199.944,114.863 199.896,101.79 199.858,88.77 C199.846,84.578 191.535,87.039 191.538,90.721 C191.549,106.734 190.776,122.81 194.704,138.479 C195.609,142.087 202.835,138.811 202.851,135.771 C202.924,122.095 203.87,108.443 203.878,94.765 C201.091,95.418 198.304,96.073 195.517,96.726 C195.518,111.723 194.58,126.922 197.529,141.723 C198.418,146.183 205.401,143.2 205.867,139.768 C207.849,125.166 206.921,110.453 206.846,95.773 C206.825,91.59 198.541,94.047 198.549,97.718 C198.591,115.064 198.642,132.46 200.534,149.722 C200.974,153.741 208.146,151.618 208.729,148.572 C211.937,131.797 209.913,114.718 209.775,97.79 C209.741,93.672 201.612,96.099 201.619,99.702 C201.661,119.416 200.9,139.196 205.682,158.488 C206.515,161.846 213.289,159.069 213.741,156.572 C216.845,139.403 214.969,122.08 214.843,104.773 C214.813,100.59 206.541,103.051 206.552,106.718 C206.613,126.089 206.675,145.643 211.658,164.498 C212.543,167.847 219.335,165.118 219.765,162.57 C222.839,144.39 220.972,126.087 220.837,107.774 C220.807,103.597 212.533,106.049 212.556,109.715 C212.658,126.834 213.764,144.002 218.678,160.488 C219.793,164.228 226.685,160.701 226.875,157.763 C227.852,142.716 226.767,127.712 224.759,112.79 C224.23,108.853 217.431,110.957 216.762,113.913 C212.73,131.727 217.478,150.135 221.731,167.464 C222.609,171.038 229.818,167.803 229.821,164.776 C229.839,150.098 228.925,135.447 228.83,120.774 C228.803,116.605 220.551,119.055 220.564,122.712 C220.623,138.788 220.966,154.763 224.7,170.478 C225.586,174.206 232.667,170.676 232.853,167.769 C233.783,153.337 231.935,139.017 229.902,124.757 C229.271,120.34 221.704,123.168 221.492,126.73 C220.517,143.156 222.44,160.539 229.67,175.492 C231.358,178.982 237.7,175.927 237.886,172.762 C238.689,159.025 236.018,145.475 235.871,131.766 C235.826,127.543 227.523,130.041 227.523,133.723 C227.521,148.77 227.456,164.481 233.608,178.519 C235.147,182.031 241.968,178.998 241.949,175.748 C241.898,167.03 241.051,158.383 239.997,149.736 C239.461,145.342 231.012,148.006 231.397,151.754 C232.507,162.519 234.484,173.167 237.51,183.562 C238.552,187.141 245.279,184.083 245.913,181.564 C248.072,173.001 246.928,164.391 244.918,155.914 C244.643,154.752 242.756,154.311 241.788,154.428 C237.306,154.97 235.274,156.992 233.437,160.93 C232.476,162.989 235.003,164.137 236.602,164.07 C238.911,163.972 240.986,162.64 241.955,160.563 C243.099,158.665 242.315,158.833 239.604,161.065 C238.56,160.569 237.517,160.074 236.474,159.579 C238.218,166.837 239.309,174.582 237.479,181.929 C240.28,181.263 243.082,180.597 245.882,179.931 C242.973,170.056 241.088,159.97 239.995,149.739 C237.129,150.412 234.262,151.084 231.395,151.757 C232.48,160.395 233.359,169.033 233.443,177.745 C236.223,176.821 239.004,175.897 241.784,174.974 C235.8,161.457 235.876,146.285 235.869,131.77 C233.087,132.422 230.304,133.075 227.521,133.727 C227.651,147.44 230.319,160.992 229.506,174.731 C232.245,173.821 234.984,172.911 237.722,172.001 C230.695,157.442 228.941,140.748 229.9,124.763 C227.096,125.421 224.294,126.077 221.49,126.736 C223.511,140.977 225.399,155.312 224.539,169.724 C227.256,168.822 229.975,167.918 232.692,167.015 C229.009,151.841 228.775,136.308 228.828,120.781 C226.073,121.427 223.317,122.073 220.562,122.719 C220.554,137.394 221.47,152.046 221.571,166.717 C224.267,165.821 226.965,164.925 229.661,164.029 C225.541,147.824 220.715,130.297 224.63,113.58 C221.964,113.955 219.299,114.329 216.633,114.703 C218.522,129.664 219.375,144.661 218.517,159.73 C221.249,158.822 223.982,157.914 226.714,157.005 C221.796,140.998 220.813,124.426 220.836,107.778 C218.076,108.424 215.315,109.073 212.555,109.719 C212.555,127.701 214.397,145.881 211.494,163.734 C214.241,162.821 216.988,161.909 219.734,160.996 C214.758,142.683 214.785,123.611 214.84,104.776 C212.076,105.424 209.313,106.073 206.549,106.721 C206.57,123.393 208.501,140.377 205.651,156.922 C208.338,156.283 211.023,155.645 213.71,155.006 C208.891,136.287 209.673,116.944 209.773,97.792 C207.054,98.43 204.335,99.066 201.617,99.704 C201.631,116.021 203.644,132.752 200.663,148.922 C203.394,148.538 206.127,148.155 208.858,147.772 C206.839,130.5 206.803,113.141 206.843,95.776 C204.077,96.424 201.312,97.073 198.546,97.721 C198.552,112.389 199.435,127.135 197.525,141.726 C200.304,141.075 203.084,140.422 205.863,139.771 C202.83,124.948 203.8,109.792 203.875,94.768 C203.896,90.565 195.534,93.025 195.514,96.729 C195.437,110.399 194.56,124.051 194.541,137.723 C197.257,136.821 199.973,135.918 202.688,135.015 C198.831,119.896 199.772,104.224 199.854,88.773 C197.081,89.423 194.307,90.074 191.534,90.724 C191.493,103.743 191.523,116.843 189.49,129.735 C192.239,128.821 194.987,127.908 197.736,126.995 C193.892,113.621 195.809,99.466 195.886,85.766 C193.091,86.421 190.296,87.078 187.501,87.733 C187.499,99.46 187.62,111.328 185.633,122.924 C188.33,122.282 191.028,121.642 193.725,120.999 C189.788,108.322 191.923,94.793 190.886,81.766 C190.542,77.445 182.485,80.093 182.501,83.733 C182.55,94.782 183.483,105.961 181.667,116.923 C184.342,116.286 187.016,115.651 189.691,115.015 C186.758,102.531 187.769,89.493 187.813,76.783 C185.066,77.428 182.32,78.072 179.573,78.717 C179.568,89.87 179.497,101.053 176.696,111.922 C179.351,111.291 182.006,110.659 184.661,110.028 C180.916,98.961 181.779,87.28 181.827,75.78 C179.071,76.426 176.315,77.073 173.559,77.719 C173.553,85.874 173.718,94.214 170.687,101.921 C173.401,101.54 176.115,101.159 178.83,100.778 L178.83,76.778 C178.83,72.614 170.559,75.054 170.557,78.719 C170.552,84.904 170.5,90.951 168.688,96.92 C171.348,96.287 174.01,95.654 176.671,95.022 C174.775,87.475 175.769,79.469 175.83,71.778 C173.072,72.425 170.314,73.072 167.557,73.719 C167.493,81.928 166.764,90.239 163.688,97.92 C166.402,97.539 169.116,97.158 171.831,96.777 C170.833,89.146 170.834,81.461 170.833,73.777 C170.833,69.604 162.581,72.061 162.556,75.718 C162.494,84.519 161.621,93.388 157.076,101.12 C159.463,100.542 161.848,99.964 164.234,99.386 C158.811,92.404 160.906,82.857 161.84,74.775 C159.076,75.423 156.313,76.072 153.549,76.72 C153.544,86.565 153.732,97.153 149.07,106.119 C151.608,105.751 154.146,105.384 156.685,105.015 C152.652,94.969 155.626,82.159 159.718,72.574 C157.045,73.21 154.372,73.845 151.7,74.48 C153.877,80.913 153.846,87.985 153.436,94.692 C152.998,101.862 151.746,109.796 148.164,116.135 C150.687,116.023 153.212,115.91 155.735,115.799 C155.661,105.641 154.568,94.37 160.138,85.343 C157.867,85.893 155.596,86.444 153.325,86.994 C159.248,92.644 155.571,104.453 152.937,110.908 C155.482,110.551 158.027,110.193 160.572,109.836 C160.502,94.454 159.382,78.588 163.469,63.584 C160.91,63.942 158.352,64.302 155.793,64.66 C157.79,76.21 159.336,90.509 153.399,101.176 C155.753,101.072 158.107,100.967 160.462,100.863 C160.412,89.87 160.399,78.877 160.373,67.884 C160.364,63.949 153.45,66.675 153.012,69.611 C151.204,81.707 152.878,94.561 147.45,105.887 C149.603,105.374 151.758,104.863 153.911,104.351 C150.748,96.263 152.013,86.908 150.33,78.514 C150.185,77.792 149.778,77.284 148.99,77.192 C148.985,77.192 148.981,77.191 148.976,77.191 C147.406,77.008 145.221,77.939 145.102,79.736 C145.087,79.942 145.097,80.148 145.102,80.355 C145.167,83.01 150.214,81.382 150.289,79.139 L150.289,79.139 Z" id="Shape"></path>
                    <path d="M158.732,418.549 C161.988,417.944 165.336,417.67 168.247,415.979 C169.246,415.398 170.235,414.182 170.221,412.97 C170.2,411.339 168.478,410.805 167.134,410.829 C165.541,410.858 163.961,411.359 162.412,411.707 C160.787,412.073 159.146,412.594 157.633,413.287 C156.337,413.881 154.784,415.062 154.805,416.659 C154.83,418.682 157.287,418.818 158.732,418.549 L158.732,418.549 Z" id="Shape"></path>
                    <path d="M170.291,433.49 C170.234,433.404 170.178,433.318 170.122,433.232 C170.068,433.401 170.014,433.571 169.96,433.74 C170.618,433.145 171.257,432.538 171.158,431.578 C171.135,431.891 171.164,431.736 171.246,431.112 C171.242,431.042 171.239,430.973 171.236,430.904 C171.142,431.342 171.16,431.206 171.289,430.497 C171.281,430.377 171.281,430.257 171.291,430.137 C171.263,430.806 171.453,429.935 171.075,430.696 C171.258,430.415 171.169,430.509 170.809,430.982 C170.643,431.113 170.477,431.243 170.311,431.374 C170.648,431.156 170.488,431.24 169.83,431.628 C170.75,431.193 168.84,431.828 169.948,431.607 C168.663,431.863 170.138,431.636 170.448,431.606 C172.227,431.433 173.747,431.494 175.5,430.891 C176.918,430.404 179.268,428.021 177.604,426.535 C175.906,425.017 172.957,425.312 170.867,425.662 C169.097,425.957 167.045,426.845 165.817,428.178 C164.722,429.366 164.161,430.746 164.69,432.331 C164.879,432.898 165.549,433.646 166.126,433.878 C166.524,434.038 166.873,434.279 167.306,434.355 C168.138,434.5 168.702,434.126 169.479,434.002 C169.285,433.968 169.09,433.934 168.896,433.9 C168.99,433.966 169.083,434.032 169.175,434.098 C169.503,434.332 170.614,433.986 170.291,433.49 L170.291,433.49 Z" id="Shape"></path>
                    <path d="M178.668,449.087 C179.156,448.272 179.935,447.458 180.634,446.811 C180.515,446.921 181.353,446.303 181.285,446.348 C181.693,446.098 181.751,446.062 181.459,446.241 C181.696,446.132 181.938,446.028 182.182,445.931 C183.316,445.462 181.479,446.091 182.627,445.811 C183.56,445.583 184.475,445.305 185.283,444.766 C187.326,443.403 188.5,439.852 183.917,440.026 C181.351,440.124 178.785,441.787 176.921,443.422 C176.139,444.109 175.513,444.982 175.046,445.904 C174.726,446.535 174.47,447.088 174.374,447.793 C174.298,448.354 174.417,448.733 174.443,449.275 C174.549,451.43 177.994,450.215 178.668,449.087 L178.668,449.087 Z" id="Shape"></path>
                </g>
            </g>
        </g>
    </g>
</svg>