<?xml version="1.0" encoding="UTF-8"?>
<svg width="407px" height="540px" viewBox="0 0 407 540" version="1.1" xmlns="http://www.w3.org/2000/svg" xmlns:xlink="http://www.w3.org/1999/xlink">
    <!-- Generator: Sketch 41 (35326) - http://www.bohemiancoding.com/sketch -->
    <title>the_coat</title>
    <desc>Created with Sketch.</desc>
    <defs></defs>
    <g id="Page-1" stroke="none" stroke-width="1" fill="none" fill-rule="evenodd">
        <g id="Layer_1" transform="translate(-3826.000000, -6098.000000)" fill="#010101">
            <g id="Layer_1_3_">
                <g id="the_coat" transform="translate(3826.000000, 6098.000000)">
                    <path d="M147.737,25.425 C146.759,29.65 145.775,32.787 146.37,37.225 C146.914,41.29 148.219,45.15 149.817,48.91 C153.465,57.493 159.031,65.282 164.935,72.44 C170.834,79.592 177.489,86.116 184.375,92.309 C187.128,94.785 189.954,97.179 192.81,99.535 C195.667,101.892 197.584,106.635 202.171,104.94 C205.462,103.724 209.507,99.415 206.557,95.794 C205.386,94.356 204.11,94.058 202.482,93.352 C200.695,92.577 199.078,91.074 197.545,89.901 C190.499,84.511 183.782,78.692 177.456,72.473 C170.508,65.641 164.02,58.11 159.018,49.719 C156.81,46.018 155.072,42.08 153.561,38.051 C152.1,34.155 149.975,29.188 149.344,25.101 C149.19,24.095 147.896,24.738 147.737,25.425 L147.737,25.425 Z" id="Shape"></path>
                    <path d="M248.161,16.472 C246.701,22.829 247.088,29.233 245.267,35.566 C243.775,40.759 240.964,45.624 238.298,50.291 C234.675,56.635 230.882,62.89 226.915,69.023 C222.404,75.998 217.647,82.865 212.221,89.163 C211.429,90.084 210.667,90.872 209.78,91.691 C209.232,92.197 208.654,92.666 208.072,93.131 C209.396,92.071 206.738,93.701 208.661,92.87 C204.445,94.692 200.388,97.558 201.559,102.752 C201.988,104.652 204.622,105.726 206.355,105.429 C213.278,104.241 218.251,97.657 222.34,92.427 C228.059,85.111 232.915,77.082 237.643,69.105 C241.296,62.941 244.834,56.687 247.793,50.156 C251.904,41.082 258.771,23.895 250.706,15.331 C249.844,14.414 248.38,15.514 248.161,16.472 L248.161,16.472 Z" id="Shape"></path>
                    <path d="M175.352,132.503 C183.728,128.473 191.349,121.041 198.385,115.041 C205.519,108.958 213.251,101.905 217.659,93.51 C218.372,92.154 218.253,90.685 217.402,89.453 C217.314,89.326 217.227,89.199 217.139,89.072 C216.743,88.5 215.811,88.3 215.172,88.372 C210.695,88.873 208.746,92.959 206.248,96.218 C202.841,100.662 198.935,104.691 194.889,108.549 C187.735,115.372 178.195,121.125 172.513,129.27 C170.849,131.658 172.829,133.718 175.352,132.503 L175.352,132.503 Z" id="Shape"></path>
                    <path d="M248.886,14.495 C246.99,20.944 253.182,29.937 256.279,35.111 C258.549,38.904 260.931,42.626 263.461,46.252 C265.002,48.461 266.962,52.874 269.334,54.053 C273.321,56.033 281.335,50.538 278.616,45.907 C276.862,42.92 274.828,42.636 272.42,39.814 C269.837,36.789 267.44,33.603 265.096,30.391 C262.655,27.047 260.242,23.662 257.899,20.248 C256.279,17.886 254.289,14.23 251.648,12.891 C250.472,12.293 249.201,13.421 248.886,14.495 L248.886,14.495 Z" id="Shape"></path>
                    <path d="M148.628,18.873 C144.078,24.973 139.926,30.976 136.041,37.579 C134.062,40.944 132.126,44.312 129.918,47.537 C129.561,48.07 129.177,48.584 128.765,49.078 C127.546,50.617 126.57,50.372 129.427,49.128 C126.815,50.266 125.293,51.841 123.865,54.234 C122.079,57.229 124.26,60.941 127.749,60.587 C134.986,59.852 138.817,49.242 141.654,43.489 C143.668,39.404 145.391,35.215 147.096,30.994 C148.604,27.259 149.241,23.28 150.611,19.562 C151.158,18.081 149.384,17.86 148.628,18.873 L148.628,18.873 Z" id="Shape"></path>
                    <path d="M124.043,61.399 C127.229,62.43 130.474,63.037 133.735,63.761 C137.359,64.566 143.663,65.425 146.256,68.236 C150.633,72.982 157.251,61.268 150.337,61.605 C145.838,61.824 140.63,59.316 136.097,58.752 C132.13,58.259 128.363,58.413 124.479,59.366 C123.586,59.585 122.925,61.037 124.043,61.399 L124.043,61.399 Z" id="Shape"></path>
                    <path d="M151.445,64.773 C148.4,68.778 146.558,73.679 144.047,78.036 C141.238,82.904 138.547,88.089 134.953,92.427 C133.245,94.489 133.229,98.305 136.397,98.893 C139.611,99.489 142.308,96.786 143.206,93.983 C144.842,88.876 148.044,84.108 150.167,79.178 C151.994,74.934 154.543,69.607 153.983,64.897 C153.812,63.458 152.062,63.96 151.445,64.773 L151.445,64.773 Z" id="Shape"></path>
                    <path d="M134.31,95.132 C131.076,103.106 144.373,111.858 149.622,115.81 C158.43,122.441 168.06,127.765 177.6,133.234 C181.155,135.271 187.353,129.461 184.244,126.105 C182.059,123.748 179.318,123.903 176.38,124.513 C174.606,124.881 172.856,127.265 173.548,129.063 C174.326,131.084 175.717,132.205 177.601,133.234 C179.556,130.652 181.513,128.07 183.468,125.488 C174.547,121.604 165.882,116.92 157.597,111.83 C152.87,108.926 148.283,105.75 144.185,102.002 C141.585,99.623 139.539,95.638 136.44,94.166 C135.655,93.793 134.62,94.368 134.31,95.132 L134.31,95.132 Z" id="Shape"></path>
                    <path d="M218.693,85.405 C215.16,88.494 212.33,92.45 209.322,96.036 C205.706,100.345 201.831,104.414 197.754,108.286 C189.815,115.828 181.239,122.404 171.234,126.965 C172.099,129.229 172.966,131.494 173.832,133.758 C177.048,131.831 179.492,129.678 179.467,125.741 C179.458,124.375 177.833,124.328 176.945,124.821 C175.604,125.564 173.779,125.864 172.324,126.483 C166.912,128.784 167.666,136.966 173.833,133.757 C184.154,128.388 193.448,120.91 201.48,112.53 C208.435,105.272 217.501,96.283 220.908,86.616 C221.471,85.015 219.837,84.404 218.693,85.405 L218.693,85.405 Z" id="Shape"></path>
                    <path d="M216.818,90.228 C211.884,98.682 204.029,105.908 196.723,112.282 C189.455,118.625 181.616,125.081 173.177,129.817 C175.112,130.523 177.046,131.229 178.981,131.935 C178.821,134.088 179.826,129.903 179.92,129.167 C180.085,127.898 179.38,126.942 178.034,127.018 C173.997,127.243 170.87,129.544 170.175,133.714 C169.421,138.229 174.363,138.193 176.966,136.134 C185.371,129.486 193.886,123.206 201.598,115.712 C208.701,108.812 216.884,100.554 218.315,90.297 C218.466,89.211 217.164,89.634 216.818,90.228 L216.818,90.228 Z" id="Shape"></path>
                    <path d="M249.5,66.982 C245.681,74.242 246.425,84.084 247.522,91.942 C248.057,95.769 248.835,99.56 249.552,103.356 C250.085,106.177 249.771,109.997 252.625,111.585 C254.684,112.731 257.559,111.305 258.775,109.542 C262.263,104.485 258.519,97.448 257.078,92.142 C255.92,87.876 254.912,83.542 254.252,79.171 C253.618,74.976 254.031,70.834 253.801,66.633 C253.654,63.938 250.233,65.588 249.5,66.982 L249.5,66.982 Z" id="Shape"></path>
                    <path d="M247.507,70.537 C257.864,72.186 269.023,69.788 279.215,72.277 C282.56,73.093 287.23,69.223 286.707,65.702 C285.75,59.242 281.622,46.992 273.186,48.312 C271.043,48.647 269.53,50.223 269.36,52.378 C269.127,55.335 270.947,57.37 272.505,59.78 C274.575,62.982 275.706,66.503 276.598,70.174 C278.158,67.667 279.718,65.16 281.279,62.653 C275.959,63.735 269.633,62.79 264.2,62.962 C258.576,63.139 252.905,63.998 247.836,66.535 C246.487,67.21 245.239,70.175 247.507,70.537 L247.507,70.537 Z" id="Shape"></path>
                    <path d="M179.879,124.653 C163.61,133.841 161.687,157.519 160.794,174.023 C159.532,197.352 160.837,221.033 161.083,244.382 C161.425,276.964 162.336,309.538 162.243,342.124 C162.151,374.425 160.342,406.679 160.038,438.978 C159.888,454.885 160.295,470.843 159.594,486.738 C162.886,485.682 166.179,484.628 169.471,483.572 C169.343,479.35 168.357,475.602 167.341,471.549 C166.304,467.413 160.011,471.305 159.621,474.036 C159.009,478.324 159.464,482.436 159.594,486.738 C159.784,493.034 169.704,488.737 169.471,483.572 C168.753,467.751 169.179,451.839 169.31,436.006 C169.441,420.087 169.593,404.143 170.351,388.239 C171.902,355.638 171.576,322.981 171.044,290.359 C170.572,261.41 170.591,232.432 169.862,203.491 C169.339,182.72 168.256,161.145 174.155,140.975 C175.618,135.971 177.924,131.349 181.705,127.696 C183.427,126.033 182.312,123.279 179.879,124.653 L179.879,124.653 Z" id="Shape"></path>
                    <path d="M154.07,39.236 C156.265,32.601 153.623,24.648 159.613,19.615 C162.787,16.949 165.495,16.295 169.804,15.178 C180.181,12.489 191.179,11.637 201.86,11.331 C212.927,11.014 224.233,11.741 234.831,15.145 C238.232,16.239 241.423,17.999 243.633,20.62 C245.683,23.05 244.626,26.333 246.465,29.68 C247.793,32.099 251.039,31.88 252.867,30.02 C262.267,20.456 253.235,9.281 243.355,5.37 C230.837,0.415 216.25,0.614 203.023,1.326 C190.537,1.998 177.498,3.635 165.632,7.751 C152.816,12.197 142.653,27.583 151.217,40.516 C152.063,41.792 153.794,40.07 154.07,39.236 L154.07,39.236 Z" id="Shape"></path>
                    <path d="M78.028,76.716 C86.445,76.677 94.776,74.652 102.971,72.839 C112.407,70.753 121.842,68.701 131.341,66.921 C134.529,66.323 137.481,64.259 138.2,60.901 C139.036,56.998 135.595,55.224 132.247,56.097 C123.543,58.367 114.892,60.83 106.226,63.242 C96.858,65.849 87.334,68.232 78.412,72.13 C76.496,72.968 74.642,76.733 78.028,76.716 L78.028,76.716 Z" id="Shape"></path>
                    <path d="M67.846,76.417 C65.759,83.678 67.088,91.883 68.229,99.215 C69.359,106.476 71.496,113.561 73.922,120.483 C79.185,135.494 87.572,148.973 93.56,163.626 C95.13,167.468 99.986,164.38 101.262,162.058 C102.802,159.256 102.019,156.568 99.518,154.742 C97.857,153.53 95.595,155.549 94.851,156.863 C94.386,157.515 94.054,158.228 93.857,159.001 C93.806,159.238 93.253,161.661 93.803,160.668 C96.21,159.878 98.616,159.089 101.024,158.299 C92.745,146.145 86.028,132.236 80.334,118.695 C77.582,112.152 75.499,105.427 73.632,98.589 C71.627,91.245 71.789,83.096 69.201,75.983 C68.931,75.237 67.977,75.963 67.846,76.417 L67.846,76.417 Z" id="Shape"></path>
                    <path d="M332.865,82.891 C328.934,89.966 327.914,99.126 325.419,106.822 C323.059,114.101 320.336,121.259 317.277,128.273 C315.298,132.814 313.314,137.351 311.17,141.817 C310.318,143.589 309.524,145.475 308.476,147.142 C307.994,147.911 307.48,148.607 306.87,149.275 C303.628,152.824 312.248,146.326 314.056,148.432 C310.363,144.128 304.376,150.211 304.141,154.128 C303.98,156.817 306.316,158.689 308.893,158.444 C312.394,158.112 315.036,155.647 316.619,152.666 C319.445,147.34 321.471,141.407 323.581,135.773 C326.109,129.022 328.001,122.102 330.168,115.232 C332.044,109.284 333.686,103.266 335.099,97.191 C336.189,92.503 337.774,86.931 336.313,82.189 C335.75,80.372 333.379,81.964 332.865,82.891 L332.865,82.891 Z" id="Shape"></path>
                    <path d="M96.259,161.464 C92.058,179.519 94.3,197.999 97.753,216.006 C99.458,224.901 101.621,233.706 104.073,242.423 C106.733,251.876 110.48,261.056 112.939,270.548 C113.272,271.835 114.698,272.702 115.907,272.931 C116.213,272.987 116.517,273.046 116.822,273.11 C121.457,274.047 126.843,268.706 125.304,264.071 C124.206,260.763 121.658,260.069 118.476,259.955 C115.504,259.85 113.017,263.139 112.948,265.831 C112.903,267.539 113.329,269.01 113.76,270.651 C116.099,267.616 118.439,264.58 120.779,261.545 C120.433,261.609 120.088,261.669 119.74,261.727 C121.203,262.542 122.664,263.358 124.126,264.174 C120.113,256.779 117.451,248.458 114.701,240.528 C111.674,231.8 109.062,222.931 106.888,213.954 C102.661,196.503 101.477,178.648 98.831,160.945 C98.591,159.333 96.514,160.37 96.259,161.464 L96.259,161.464 Z" id="Shape"></path>
                    <path d="M309.851,150.498 C307.706,160.016 307.493,169.965 305.932,179.621 C304.335,189.506 302.154,199.256 299.511,208.913 C296.838,218.678 293.524,228.247 289.801,237.658 C287.905,242.447 285.879,247.181 283.761,251.875 C282.837,253.921 281.874,255.948 280.906,257.972 C280.424,258.971 279.936,259.968 279.443,260.962 C279.4,261.049 276.67,265.201 278.438,263.331 C279.96,262.648 281.483,261.966 283.005,261.283 C282.954,261.282 282.902,261.28 282.851,261.279 C284.455,262.571 286.056,263.864 287.659,265.156 C287.675,264.228 287.425,263.376 287.144,262.5 C286.792,261.401 285.502,260.297 284.324,260.236 C280.077,260.014 277.821,262.34 276.183,266.086 C275.009,268.772 275.56,272.225 278.894,272.849 C284.314,273.862 287.515,268.565 289.255,264.41 C291.406,259.274 293.819,254.255 295.909,249.088 C300.188,238.507 303.763,227.631 306.786,216.628 C309.873,205.398 312.108,193.97 313.538,182.413 C314.841,171.885 316.32,159.695 313.169,149.43 C312.613,147.613 310.105,149.373 309.851,150.498 L309.851,150.498 Z" id="Shape"></path>
                    <path d="M283.116,264.476 C281.965,272.968 282.158,280.765 283.97,289.197 C286.052,298.885 288.983,308.324 292.095,317.723 C294.915,326.244 298.153,334.614 300.825,343.186 C303.985,353.322 306.016,363.871 308.112,374.267 C312.295,395.013 315.309,415.983 317.511,437.026 C319.647,457.436 320.16,478.019 322.28,498.365 C326.448,497.029 330.616,495.693 334.784,494.357 C334.38,490.883 333.63,489.06 330.392,487.586 C328.219,486.595 325.629,487.766 324.293,489.611 C322.092,492.656 321.86,494.759 322.279,498.365 C323.215,506.405 335.457,500.835 334.783,494.357 C332.734,474.697 331.721,454.857 329.478,435.164 C327.113,414.412 323.83,393.751 319.555,373.306 C315.524,354.024 310.227,335.691 303.13,317.327 C296.399,299.908 289.152,282.413 285.977,263.897 C285.686,262.188 283.294,263.158 283.116,264.476 L283.116,264.476 Z" id="Shape"></path>
                    <path d="M68.49,78.558 C57.492,81.51 51.364,95.518 47.406,105.053 C41.813,118.528 38.26,132.839 34.075,146.786 C23.236,182.915 9.785,218.256 0.285,254.786 C-1.43,261.381 7.014,259.296 9.553,256.533 C11.508,254.406 12.69,251.786 12.115,248.891 C11.143,244.005 4.943,246.061 3.431,249.594 C3.318,250.178 3.041,250.653 2.603,251.02 C5.329,251.992 8.055,252.963 10.782,253.934 C19.466,220.077 30.803,186.999 40.595,153.462 C44.609,139.715 47.731,125.702 52.098,112.061 C55.97,99.967 61.756,89.891 69.196,79.717 C69.65,79.097 69.292,78.342 68.49,78.558 L68.49,78.558 Z" id="Shape"></path>
                    <path d="M3.686,252.203 C1.378,256.771 1.386,262.242 1.083,267.265 C0.726,273.176 0.589,279.047 0.655,284.967 C0.794,297.376 1.319,309.78 2.399,322.143 C4.454,345.654 9.151,369.481 18.455,391.255 C20.812,396.772 29.362,391.358 28.854,386.655 C28.506,383.428 27.589,381.149 24.858,379.29 C22.843,377.918 20.321,380.202 19.389,381.775 C17.757,384.529 17.899,386.974 18.209,390.067 C21.675,388.534 25.142,387.001 28.608,385.467 C19.477,363.617 14.561,340.779 11.767,317.323 C10.38,305.68 9.621,293.969 9.098,282.259 C8.841,276.5 8.505,270.772 8.076,265.022 C7.752,260.687 7.895,255.353 5.324,251.666 C4.882,251.029 3.914,251.751 3.686,252.203 L3.686,252.203 Z" id="Shape"></path>
                    <path d="M18.167,388.708 C22.589,396.938 38.606,394.515 45.92,393.221 C57.167,391.232 67.774,386.999 78.792,384.156 C83.615,382.911 86.404,374.236 79.618,374.295 C76.43,374.323 74.065,374.75 71.475,376.599 C69.883,377.737 68.082,379.964 69.625,381.912 C71.671,384.498 74.333,384.4 77.445,384.428 C77.72,381.141 77.996,377.854 78.271,374.567 C68.8,377.789 59.373,381.253 49.682,383.762 C44.677,385.059 39.645,385.756 34.489,386.028 C29.974,386.265 25.442,384.534 21.042,384.979 C19.606,385.123 17.264,387.027 18.167,388.708 L18.167,388.708 Z" id="Shape"></path>
                    <path d="M96.291,162.129 C91.816,170.202 88.55,179.012 84.174,187.192 C79.807,195.354 76.029,203.448 73.052,212.227 C69.949,221.373 67.629,230.794 65.422,240.19 C64.318,244.893 63.224,249.598 62.072,254.291 C61.105,258.229 59.238,262.552 59.197,266.612 C59.129,273.389 69.836,268.721 69.869,263.191 C69.881,261.206 69.402,259.085 67.353,258.345 C65.505,257.679 63.689,258.086 62.206,259.416 C59.978,261.413 59.18,263.666 59.197,266.611 C59.238,273.41 69.925,268.73 69.869,263.19 C69.834,259.744 71.925,255.127 72.696,251.705 C73.752,247.02 74.733,242.318 75.742,237.623 C77.753,228.269 79.801,218.944 82.596,209.786 C85.36,200.728 89.461,192.341 93.373,183.75 C96.339,177.24 100.383,168.901 98.855,161.605 C98.56,160.197 96.631,161.514 96.291,162.129 L96.291,162.129 Z" id="Shape"></path>
                    <path d="M64.338,263.458 C61.727,272.525 61.368,281.875 61.366,291.274 C61.364,301.141 61.702,311.032 62.895,320.832 C65.266,340.3 70.816,359.307 70.205,379.069 C73.675,377.534 77.143,376 80.614,374.465 C79.378,372.106 77.805,370.268 76.073,368.254 C72.99,364.672 67.673,370.124 68.504,373.658 C69.037,375.929 69.444,378.145 70.45,380.258 C73.188,386.002 80.708,380.132 80.859,375.654 C81.505,356.648 75.878,338.165 72.865,319.563 C71.3,309.901 70.805,300.051 70.247,290.289 C69.716,281.008 69.74,271.567 66.694,262.7 C66.247,261.392 64.562,262.683 64.338,263.458 L64.338,263.458 Z" id="Shape"></path>
                    <path d="M308.649,157.435 C309.65,161.779 311.994,165.691 313.867,169.712 C315.986,174.262 318.017,178.848 319.885,183.507 C323.656,192.915 326.601,202.715 329.275,212.484 C332.004,222.454 334.21,232.567 336.216,242.704 C338.01,251.767 340.174,261.017 341.295,270.185 C344.705,268.677 348.114,267.168 351.524,265.661 C351.405,265.086 351.257,264.528 351.097,263.963 C350.811,262.948 349.61,262.034 348.576,261.94 C348.228,261.928 347.91,261.815 347.623,261.603 C345.278,260.48 342.293,262.924 342.381,265.373 C342.307,263.31 341.564,266.618 341.468,267.066 C341.254,268.066 341.368,269.166 341.295,270.186 C340.851,276.399 350.965,272.649 351.659,268.092 C352.229,264.351 350.455,259.726 349.692,256.054 C348.582,250.709 347.445,245.369 346.256,240.041 C343.945,229.683 341.345,219.395 338.314,209.225 C335.266,198.998 331.56,189.075 327.208,179.334 C323.524,171.092 319.149,160.301 311.843,154.633 C310.287,153.425 308.326,156.031 308.649,157.435 L308.649,157.435 Z" id="Shape"></path>
                    <path d="M321.592,82.189 C345.281,90.727 355.449,121.13 362.687,142.808 C375.794,182.064 384.617,222.601 395.967,262.37 C399.099,260.134 402.232,257.898 405.363,255.662 C403.3,253.213 401.413,252.423 398.242,252.572 C396.181,252.67 393.897,254.842 394.086,256.989 C394.313,259.576 395.214,261.19 396.572,263.377 C399.532,268.141 407.312,260.976 405.968,256.669 C393.477,216.64 384.606,175.546 370.886,135.886 C366.343,122.752 360.782,109.95 353.191,98.27 C346.544,88.041 336.686,77.723 323.563,78.022 C322.03,78.056 319.302,81.363 321.592,82.189 L321.592,82.189 Z" id="Shape"></path>
                    <path d="M343.071,267.479 C340.741,276.138 340.774,285.496 340.201,294.407 C339.539,304.708 338.609,314.988 337.701,325.269 C336.089,343.528 333.47,361.761 332.272,380.047 C335.779,378.923 339.287,377.798 342.793,376.674 C342.581,374.47 342.22,373.199 340.686,371.593 C339.026,369.856 335.843,371.012 334.71,372.835 C333.463,374.841 332.597,376.383 332.379,378.778 C331.715,386.073 342.06,383.575 342.686,377.942 C344.693,359.898 345.507,341.598 346.57,323.477 C347.148,313.608 347.484,303.728 347.688,293.845 C347.873,284.928 348.64,275.158 345.956,266.549 C345.455,264.942 343.324,266.54 343.071,267.479 L343.071,267.479 Z" id="Shape"></path>
                    <path d="M334.841,380.845 C341.081,389.519 355.577,392.646 365.394,394.428 C370.855,395.419 376.831,396.12 382.294,394.806 C386.96,393.684 392.387,389.758 390.868,384.32 C389.756,380.335 384.543,383.247 382.978,384.959 C383.862,383.992 381.249,385.768 383.016,385.063 C381.597,385.629 379.995,385.629 378.491,385.684 C373.754,385.86 368.969,384.914 364.338,384.039 C355.275,382.324 346.331,379.842 337.436,377.445 C335.746,376.99 333.77,379.356 334.841,380.845 L334.841,380.845 Z" id="Shape"></path>
                    <path d="M401.417,261.945 C399.912,264.755 399.915,268.465 399.451,271.614 C398.664,276.948 398.2,282.356 397.683,287.722 C396.393,301.121 394.646,314.495 392.674,327.811 C390.828,340.275 388.676,352.807 385.196,364.932 C384.11,368.713 382.807,372.464 380.883,375.908 C381.471,374.855 380.319,376.672 380.111,376.936 C379.672,377.448 379.767,377.351 380.398,376.648 C380.057,376.992 379.082,377.575 380.616,376.571 C376.92,378.99 381.73,375.48 378.381,378.121 C376.988,379.22 376.739,379.642 377.623,378.895 C376.228,380.074 375.649,381.704 376.033,383.457 C377.176,388.662 384.267,385.226 386.435,382.963 C389.496,379.769 391.359,375.833 392.837,371.705 C397.239,359.417 399.213,346.275 400.983,333.394 C403.009,318.651 404.232,303.835 405.015,288.978 C405.319,283.235 405.396,277.537 405.235,271.787 C405.152,268.85 405.283,263.567 403.166,261.371 C402.598,260.782 401.716,261.384 401.417,261.945 L401.417,261.945 Z" id="Shape"></path>
                    <path d="M71.969,497.062 C69.519,502.635 74.454,507.256 78.507,510.43 C85.414,515.839 93.698,519.214 101.777,522.451 C120.93,530.124 140.413,534.863 160.924,537.355 C190.685,540.971 220.265,539.279 249.931,535.847 C275.136,532.933 301.476,528.232 323.055,514.075 C326.015,512.133 328.837,509.971 331.542,507.689 C337.245,502.878 331.429,496.402 325.702,501.033 C325.055,501.557 324.003,502.051 323.315,502.511 C319.426,505.113 318.596,512.557 325.026,510.758 C327.524,510.059 329.479,509.358 331.542,507.69 C329.596,505.471 327.648,503.252 325.702,501.034 C307.016,516.786 281.665,521.727 258.093,524.836 C229.758,528.573 201.56,530.317 173.021,527.983 C152.537,526.307 132.722,522.364 113.249,515.94 C104.861,513.172 96.686,509.985 88.611,506.411 C84.362,504.529 76.679,501.464 75.273,496.391 C74.803,494.696 72.39,496.106 71.969,497.062 L71.969,497.062 Z" id="Shape"></path>
                    <path d="M175.125,155.222 C178.901,149.553 182.346,144.806 188.069,140.866 C194.988,136.102 202.679,132.473 210.403,129.234 C223.812,123.609 238.138,119.18 252.438,116.466 C252.262,113.354 252.088,110.24 251.913,107.127 C249.434,108.334 247.032,109.742 245.038,111.657 C243.657,112.982 243.15,115.206 245.309,115.955 C248.187,116.955 250.877,117.173 253.793,116.193 C259.506,114.273 260.942,104.864 253.27,106.527 C237.215,110.006 221.312,115.581 206.563,122.802 C198.355,126.822 190.445,131.483 183.512,137.479 C178.734,141.611 172.059,147.803 171.452,154.528 C171.243,156.867 174.056,156.828 175.125,155.222 L175.125,155.222 Z" id="Shape"></path>
                    <path d="M187.957,195.854 C181.916,198.655 178.435,206.477 182.107,212.323 C184.82,216.64 190.797,216.698 194.809,214.59 C198.852,212.465 201.531,207.953 201.641,203.447 C201.772,198.148 195.848,194.058 190.958,195.845 C188.919,196.591 185.549,200.057 187.859,202.307 C188.96,203.378 190.6,203.798 191.691,204.249 C192.885,204.744 192.926,204.918 193.24,205.712 C193.409,206.141 193.366,206.521 193.206,207.201 C193.4,206.376 192.983,207.688 192.88,207.89 C193.401,206.862 191.755,209.048 192.678,208.142 C192.495,208.314 192.304,208.476 192.106,208.629 C192.544,208.318 192.545,208.299 192.111,208.57 C191.806,208.748 191.806,208.701 191.944,208.675 C190.843,208.883 190.211,208.713 189.139,208.156 C184.615,205.805 187.8,200.873 189.952,198.126 C191.259,196.458 189.658,195.066 187.957,195.854 L187.957,195.854 Z" id="Shape"></path>
                    <path d="M236.871,196.786 C231.605,196.678 227.266,204.144 226.624,208.627 C225.853,214.014 230.248,218.41 235.457,218.644 C243.755,219.015 252.77,208.077 248.09,200.335 C245.142,195.459 236.481,194.445 232.947,198.964 C230.216,202.456 234.017,204.609 237.084,205.06 C238.036,205.2 238.786,205.468 239.625,205.932 C240.234,206.268 240.295,206.258 240.59,207 C240.722,207.331 240.686,207.5 240.634,207.816 C240.611,207.957 240.225,209.08 240.553,208.223 C240.41,208.597 240.217,208.951 240.027,209.303 C240.264,208.865 239.274,210.112 239.439,209.952 C239.329,210.057 238.248,210.876 239.139,210.26 C238.988,210.364 237.547,211.098 238.378,210.737 C237.381,211.17 236.797,211.273 235.381,210.354 C232.799,208.679 233.298,206.182 234.508,203.748 C235.367,202.02 236.667,200.592 237.764,199.026 C238.453,198.039 238.211,196.813 236.871,196.786 L236.871,196.786 Z" id="Shape"></path>
                    <path d="M189.695,280.699 C189.682,280.676 189.669,280.652 189.656,280.629 C189.318,280.034 188.816,279.671 188.093,279.757 C182.351,280.44 176.638,288.377 180.755,293.562 C182.575,295.853 186.261,296.627 189.029,296.637 C191.93,296.648 194.499,294.95 196.391,292.911 C199.218,289.864 200.099,284.349 197.959,280.685 C196.605,278.368 194.821,277.071 192.299,276.201 C191.073,275.779 189.675,275.776 188.403,275.902 C187.59,275.984 186.78,276.16 186.025,276.47 C185.495,276.638 184.983,276.851 184.488,277.108 C184.221,277.283 182.497,278.589 183.333,277.999 C181.937,278.986 180.625,280.333 180.724,282.193 C180.815,283.892 182.186,284.58 183.704,284.596 C183.845,284.597 183.986,284.599 184.127,284.601 C183.53,284.489 182.933,284.376 182.336,284.264 C182.839,284.459 183.327,284.658 183.864,284.728 C186.292,285.048 183.213,284.806 185.729,284.75 C186.119,284.741 186.506,284.714 186.897,284.702 C187.063,284.697 188.26,284.807 187.219,284.717 C187.551,284.745 187.877,284.821 188.2,284.896 C189.213,285.131 187.471,284.567 188.385,284.981 C188.655,285.103 188.905,285.264 189.153,285.424 C189.695,285.774 188.699,284.954 189.44,285.734 C189.633,285.937 189.799,286.166 189.963,286.393 C190.521,287.163 189.581,285.658 190.032,286.492 C190.164,286.736 190.266,286.995 190.368,287.253 C190.754,288.228 190.404,287.016 190.505,287.625 C190.562,287.966 190.503,289.627 190.617,288.504 C190.59,288.771 190.531,289.032 190.472,289.293 C190.314,289.993 190.867,288.447 190.372,289.497 C189.972,290.347 190.974,288.638 190.418,289.393 C189.853,290.164 191.245,288.618 190.524,289.257 C191.457,288.429 190.973,288.951 190.607,289.153 C191.961,288.406 189.795,289.254 190.965,289.034 C190.059,289.204 188.018,289.18 186.84,288.218 C185.821,287.386 186.151,286.482 186.867,285.377 C187.55,284.332 190.525,282.159 189.695,280.699 L189.695,280.699 Z" id="Shape"></path>
                    <path d="M237.633,275.908 C232.975,273.937 228.175,277.564 225.274,280.922 C222.106,284.588 221.409,289.774 223.554,294.084 C226.658,300.316 233.297,299.381 237.967,295.435 C241.805,292.192 245.211,286.212 244.613,281.03 C244.274,278.102 242.555,276.049 239.753,275.196 C238.426,274.792 236.919,274.803 235.56,275.022 C234.093,275.257 232.993,275.617 231.642,276.233 C230.969,276.54 230.4,277.012 229.826,277.472 C230.705,276.768 229.375,277.691 229.285,277.745 C225.737,279.916 225.505,285.685 230.704,284.583 C232.15,284.276 228.484,284.961 231.732,284.644 C232.235,284.595 232.713,284.534 233.21,284.436 C233.643,284.35 234.083,284.309 234.523,284.268 C235.794,284.15 234.054,284.168 234.726,284.245 C235.117,284.29 236.046,284.694 234.783,284.183 C235.146,284.329 235.818,284.934 234.772,284.046 C234.965,284.21 235.118,284.416 235.261,284.622 C234.493,283.519 235.038,284.318 235.165,284.768 C234.68,283.05 234.976,286.518 235.149,284.742 C235.097,285.269 234.438,287.545 234.952,286.055 C234.712,286.751 234.398,287.42 234.06,288.073 C233.424,289.298 234.507,287.413 234.031,288.162 C233.782,288.554 233.507,288.927 233.223,289.294 C233.003,289.579 232.771,289.857 232.535,290.128 C233.691,288.795 232.871,289.76 232.556,290.049 C232.242,290.337 231.204,291.043 232.686,290.02 C232.318,290.274 231.046,290.803 232.615,290.158 C232.247,290.309 231.256,290.439 232.714,290.203 C231.674,290.371 233.402,290.326 232.742,290.25 C231.746,290.134 233.251,290.523 232.66,290.266 C232.523,290.202 232.389,290.128 232.261,290.048 C231.547,289.633 232.893,290.635 232.239,290.043 C231.96,289.79 231.723,289.491 231.494,289.193 C230.953,288.495 231.388,289.103 231.11,288.576 C230.483,287.385 229.926,286.167 230.162,284.806 C230.641,282.043 234.285,279.837 236.618,278.872 C237.448,278.527 239.214,276.578 237.633,275.908 L237.633,275.908 Z" id="Shape"></path>
                    <path d="M189.434,374.544 C183.519,375.841 178.797,382.085 179.81,388.232 C180.352,391.525 183.297,395.053 186.338,396.472 C192.227,399.22 197.98,394.215 200.088,388.967 C201.773,384.775 202.745,378.856 200.468,374.68 C196.766,367.891 188.183,371.461 184.195,376.116 C182.671,377.895 181.279,380.046 181.9,382.472 C182.076,383.159 182.963,383.854 183.665,383.888 C185.048,383.955 185.914,383.702 187.156,383.148 C187.42,383.045 187.672,382.918 187.911,382.765 C187.273,383.128 190.633,381.133 188.915,382.071 C189.423,381.745 189.916,381.399 190.394,381.032 C190.65,380.83 191.737,380.054 190.404,380.987 C190.832,380.688 191.276,380.409 191.728,380.147 C192.963,379.43 190.677,380.48 191.908,380.066 C193.077,379.671 190.783,380.154 191.917,380.09 C190.502,380.17 191.313,380.032 191.822,380.174 C190.481,379.801 191.296,379.998 191.689,380.274 C190.544,379.476 191.302,379.983 191.587,380.34 C192.225,381.138 191.149,379.438 191.615,380.394 C191.765,380.702 191.877,381.028 191.981,381.354 C192.024,381.491 192.062,381.629 192.098,381.77 C192.315,382.579 191.912,380.743 192.063,381.587 C192.204,382.377 192.242,383.185 192.243,383.986 C192.243,384.312 192.132,385.812 192.261,384.363 C192.223,384.789 192.16,385.213 192.092,385.634 C192.024,386.055 191.931,386.471 191.831,386.885 C191.746,387.242 191.268,388.708 191.796,387.172 C191.6,387.744 190.378,390.017 191.365,388.402 C191.177,388.711 190.958,389 190.731,389.281 C189.943,390.255 191.751,388.345 190.829,389.146 C190.39,389.529 192.177,388.374 190.979,388.973 C191.864,388.607 192.076,388.503 191.617,388.662 C190.873,388.91 192.815,388.482 192.027,388.576 C190.995,388.699 192.977,388.748 191.905,388.555 C190.893,388.371 192.556,388.897 191.547,388.427 C191.133,388.235 190.75,387.981 190.376,387.721 C190.046,387.474 190.054,387.483 190.401,387.749 C190.135,387.529 189.887,387.289 189.636,387.052 C188.415,385.898 187.371,384.696 187.241,382.946 C187.098,381.034 189.353,378.777 190.623,377.602 C192.05,376.288 191.634,374.063 189.434,374.544 L189.434,374.544 Z" id="Shape"></path>
                    <path d="M231.14,372.101 C229.173,375.597 227.408,378.322 226.934,382.463 C226.463,386.577 227.507,390.132 231.135,392.357 C237.037,395.977 243.595,392.224 246.676,386.89 C249.077,382.732 249.049,376.244 245.478,372.744 C239.917,367.294 229.025,370.869 226.088,377.333 C225.394,378.861 225.735,380.923 227.659,381.251 C230.394,381.718 232.389,380.872 234.948,380.093 C236.096,379.743 236.355,379.774 237.423,380.405 C237.825,380.685 237.798,380.659 237.341,380.327 C237.59,380.549 237.796,380.812 238.001,381.074 C238.67,381.927 237.626,380.291 238.102,381.276 C238.25,381.584 238.353,381.91 238.456,382.234 C238.799,383.311 238.348,381.368 238.505,382.502 C238.554,382.852 238.561,383.206 238.568,383.559 C238.592,384.736 238.714,382.635 238.562,383.806 C238.516,384.159 238.432,384.503 238.346,384.847 C238.195,385.36 238.219,385.298 238.419,384.664 C238.297,384.988 238.137,385.295 237.976,385.601 C238.61,384.399 238.123,385.305 237.903,385.583 C238.815,384.437 238.254,385.217 237.928,385.495 C239.257,384.358 237.402,385.588 238.787,385.004 C238.543,385.107 237.532,385.245 238.574,385.099 C237.476,385.253 239.285,385.247 238.097,385.12 C237.661,385.073 237.237,384.952 236.816,384.835 C234.664,384.235 234.123,382.483 233.849,380.366 C233.589,378.358 233.185,374.532 233.925,372.622 C234.773,370.432 231.975,370.617 231.14,372.101 L231.14,372.101 Z" id="Shape"></path>
                    <path d="M77.669,506.119 C85.854,514.14 100.952,513.629 111.565,513.151 C119.246,512.804 126.937,508.909 133.827,505.855 C141.673,502.376 149.782,498.616 156.806,493.635 C159.605,491.651 163.208,489.057 163.003,485.183 C162.822,481.788 159.835,481.171 157.358,482.15 C155.306,482.961 153.504,484.943 154.165,487.28 C153.944,486.5 154.075,486.927 154.074,487.23 C154.424,486.212 154.773,485.195 155.123,484.178 C156.102,482.861 153.661,485.493 153.419,485.714 C151.562,487.411 149.399,488.764 147.286,490.111 C140.968,494.14 134.266,497.576 127.478,500.738 C121.974,503.301 116.665,505.424 110.619,506.077 C100.007,507.223 89.417,506.575 78.993,504.382 C78.244,504.225 76.941,505.405 77.669,506.119 L77.669,506.119 Z" id="Shape"></path>
                    <path d="M160.642,479.967 C160.505,493.425 171.05,502.681 182.198,508.643 C196.886,516.499 213.764,520.042 230.149,522.13 C247.148,524.297 264.507,524.637 281.576,523.128 C294.082,522.022 309.256,520.424 320.115,513.495 C325.586,510.005 323.892,501.925 316.951,505.225 C308.41,509.286 294.992,511.909 283.75,512.982 C267.857,514.501 251.769,514.165 235.918,512.337 C210.73,509.434 177.851,502.527 164.337,478.331 C163.269,476.42 160.659,478.273 160.642,479.967 L160.642,479.967 Z" id="Shape"></path>
                    <path d="M61.664,86.769 C67.099,84.826 71.908,81.065 77.341,78.91 C82.507,76.859 90.122,76.151 92.971,70.815 C93.367,70.072 93.396,69.018 92.815,68.359 C89.202,64.259 79.303,69.903 75.429,71.588 C69.676,74.089 61.699,77.693 59.162,83.919 C58.436,85.699 59.648,87.49 61.664,86.769 L61.664,86.769 Z" id="Shape"></path>
                    <path d="M280.119,66.227 C284.892,68.965 290.473,70.164 295.579,72.142 C300.754,74.147 306,75.932 311.125,78.072 C316.349,80.252 321.471,82.82 326.432,85.541 C331.027,88.062 335.547,92.188 340.938,92.142 C343.067,92.123 344.764,89.76 344.293,87.789 C343.137,82.949 336.435,79.934 332.369,77.703 C327.306,74.926 322.024,72.787 316.595,70.851 C311.528,69.045 306.367,67.413 301.147,66.11 C295.095,64.599 288.724,62.711 282.489,62.336 C280.808,62.234 277.845,64.923 280.119,66.227 L280.119,66.227 Z" id="Shape"></path>
                    <path d="M23.227,246.009 C26.644,246.339 30.466,247.915 33.898,248.65 C38.913,249.721 43.843,251.336 48.484,253.519 C51.068,254.734 55.231,256.578 55.869,259.733 C56.195,261.346 57.245,262.756 59.064,262.609 C59.372,262.584 61.919,261.797 59.829,262.455 C60.838,262.139 61.811,261.392 62.44,260.562 C68.051,253.161 54.307,247.519 49.484,245.985 C40.87,243.245 32.163,242.596 23.5,244.74 C23.029,244.856 22.451,245.935 23.227,246.009 L23.227,246.009 Z" id="Shape"></path>
                    <path d="M27.381,263.068 C34.242,261.929 41.997,263.151 48.446,265.645 C51.897,266.979 55.042,268.867 57.549,271.608 C59.687,273.947 59.873,278.226 63.357,278.856 C64.549,279.072 65.81,278.366 66.503,277.426 C72.117,269.825 59.968,262.548 54.095,260.575 C45.548,257.705 35.899,259.143 27.496,261.691 C26.869,261.882 26.433,263.225 27.381,263.068 L27.381,263.068 Z" id="Shape"></path>
                    <path d="M374.709,245.537 C366.087,246.713 358.024,247.923 352.35,255.182 C351.085,256.8 351.578,259.265 353.934,259.157 C364.359,258.677 375.777,255.394 385.273,261.345 C384.89,260.715 384.507,260.084 384.125,259.454 C384.124,259.79 384.116,260.125 384.103,260.461 C385.482,258.996 386.861,257.53 388.241,256.065 C375.503,258.152 357.243,260.128 352.777,274.667 C352.178,276.616 353.881,278.198 355.744,278.048 C358.03,277.862 359.6,276.098 360.291,274.058 C363.359,264.991 379.95,264.244 387.703,262.484 C389.483,262.08 391.022,260.067 390.965,258.263 C390.788,252.756 380.777,251.955 376.672,251.696 C369.515,251.244 362.179,252.407 355.133,253.568 C355.802,254.662 356.47,255.756 357.139,256.848 C360.222,250.8 368.841,249.509 374.577,247.143 C375.217,246.876 375.884,245.376 374.709,245.537 L374.709,245.537 Z" id="Shape"></path>
                    <path d="M21.578,386.189 C24.926,385.417 28.514,382.864 31.761,381.58 C37.421,379.342 43.346,377.712 49.273,376.356 C54.527,375.154 59.957,374.273 65.352,374.132 C66.996,374.088 68.911,374.119 70.429,374.818 C71.363,375.248 71.469,376.69 73.007,377.23 C74.953,377.912 77.143,377.221 78.338,375.459 C76.329,377.123 76.074,377.397 77.571,376.281 C78.17,375.755 78.777,374.931 79.116,374.211 C79.887,372.57 79.713,371.118 78.73,369.637 C77.598,367.931 75.344,367.276 73.475,366.845 C67.251,365.41 60.049,367.226 54.028,368.74 C46.644,370.596 39.477,373.275 32.562,376.444 C29.472,377.861 21.078,381.279 20.64,385.434 C20.576,386.052 21,386.322 21.578,386.189 L21.578,386.189 Z" id="Shape"></path>
                    <path d="M337.788,371.941 C346.5,372.42 354.255,372.992 362.551,376.127 C370.962,379.306 379.401,384.305 384.87,391.576 C384.787,390.262 384.703,388.946 384.62,387.632 C386.82,386.468 387.268,386.07 385.965,386.44 C385.507,386.606 385.071,386.818 384.658,387.074 C383.646,387.652 382.457,389.001 382.661,390.283 C382.838,391.39 383.046,392.247 383.758,393.147 C384.915,394.61 387.242,394.206 388.633,393.408 C390.536,392.315 391.449,391.004 392.446,389.092 C393.092,387.853 393.103,386.257 392.196,385.148 C385.834,377.363 376.239,372.236 366.853,369.058 C358.285,366.158 346.171,363.563 338.026,369.037 C337.292,369.529 335.968,371.841 337.788,371.941 L337.788,371.941 Z" id="Shape"></path>
                    <path d="M15.324,366.337 C18.488,365.895 21.842,363.79 24.815,362.64 C30.197,360.557 35.614,358.59 41.147,356.945 C49.871,354.351 58.128,352.597 66.972,354.672 C69.385,355.237 72.145,352.622 72.017,350.244 C71.48,340.24 48.818,348.047 44.071,349.547 C37.749,351.544 31.531,353.944 25.586,356.881 C22.263,358.523 15.957,361.314 14.624,365.192 C14.44,365.724 14.593,366.439 15.324,366.337 L15.324,366.337 Z" id="Shape"></path>
                    <path d="M341.441,345.801 C344.628,347.166 348.306,347.168 351.703,347.729 C355.795,348.405 359.751,349.279 363.758,350.354 C372.694,352.75 381.11,357.269 387.908,363.542 C389.414,361.097 390.918,358.651 392.424,356.206 C389.399,356.296 387.291,356.693 384.701,358.185 C383.592,358.824 381.821,361.141 383.243,362.372 C385.551,364.368 387.634,364.427 390.642,364.518 C393.367,364.6 398.017,359.665 395.158,357.182 C387.842,350.826 379.554,346.548 370.308,343.72 C362.21,341.243 350.505,339.393 342.452,342.866 C341.634,343.216 339.868,345.126 341.441,345.801 L341.441,345.801 Z" id="Shape"></path>
                    <path d="M161.164,50.666 C168.304,36.405 189.719,34.685 203.93,34.299 C212.042,34.078 220.775,34.376 228.235,37.801 C230.875,39.012 233.462,40.341 236.016,41.724 C236.953,42.231 237.815,42.828 238.681,43.446 C239.992,44.38 240.33,45.172 239.605,43.536 C239.873,42.286 240.14,41.036 240.409,39.786 C242.018,38.574 242.385,38.207 241.51,38.683 C239.606,39.644 238.579,41.981 239.716,43.835 C239.991,44.284 240.263,44.548 240.754,44.844 C242.183,45.705 244.458,44.967 245.534,43.85 C245.554,43.829 245.574,43.809 245.595,43.787 C246.725,42.613 247.976,40.842 247.226,39.107 C246.311,36.992 244.006,36.08 242.054,35.193 C238.85,33.738 235.751,32.076 232.509,30.689 C223.13,26.673 211.918,27.006 201.921,27.779 C192.608,28.5 182.738,30.748 174.126,34.396 C167.471,37.215 158.455,42.409 157.75,50.505 C157.542,52.883 160.4,52.191 161.164,50.666 L161.164,50.666 Z" id="Shape"></path>
                    <path d="M115.581,266.624 C112.181,275.59 112.334,285.855 110.015,295.195 C107.478,305.41 103.379,315.178 99.288,324.847 C90.753,345.019 83.332,365.034 78.834,386.535 C74.419,407.636 72.357,429.173 70.89,450.653 C70.146,461.541 69.713,472.438 69.119,483.332 C68.83,488.62 68.716,494.02 68.024,499.27 C67.378,504.18 69.053,508.762 74.849,508.465 C80.41,508.179 85.445,502.172 83.914,496.702 C83.749,496.11 83.417,495.613 83.19,495.037 C83.253,496.164 83.315,497.29 83.378,498.416 C83.401,498.211 83.426,498.005 83.449,497.799 C84.393,489.546 74.998,490.868 71.233,495.496 C69.281,497.896 68.77,500.469 68.641,503.458 C71.783,500.118 74.925,496.779 78.067,493.439 C77.991,493.451 77.915,493.462 77.838,493.474 C79.483,494.06 81.128,494.646 82.774,495.233 C82.534,495.034 82.295,494.834 82.055,494.634 C82.474,495.711 82.893,496.787 83.313,497.864 C82.218,478.351 83.944,458.255 85.403,438.78 C86.973,417.81 89.694,396.89 94.506,376.405 C99.212,356.372 107.452,337.997 115.068,318.985 C118.748,309.799 122.007,300.409 124.191,290.75 C126.033,282.599 128.103,271.513 123.232,264.112 C121.334,261.232 116.427,264.394 115.581,266.624 L115.581,266.624 Z" id="Shape"></path>
                </g>
            </g>
        </g>
    </g>
</svg>