<?xml version="1.0" encoding="UTF-8"?>
<svg width="553px" height="516px" viewBox="0 0 553 516" version="1.1" xmlns="http://www.w3.org/2000/svg" xmlns:xlink="http://www.w3.org/1999/xlink">
    <!-- Generator: Sketch 41 (35326) - http://www.bohemiancoding.com/sketch -->
    <title>tiger</title>
    <desc>Created with Sketch.</desc>
    <defs></defs>
    <g id="Page-1" stroke="none" stroke-width="1" fill="none" fill-rule="evenodd">
        <g id="Layer_1" transform="translate(-6073.000000, -5493.000000)" fill="#000000">
            <g id="Layer_1_3_">
                <g id="tiger" transform="translate(6073.000000, 5493.000000)">
                    <path d="M178.342,15.194 C145.968,9.707 117.844,32.563 102.406,58.947 C84.298,89.895 77.039,126.618 73.535,161.897 C71.896,178.393 71.294,195.013 71.787,211.584 C72.287,228.393 73.882,245.183 82.533,260.01 C101.59,292.669 143.109,301.467 178.07,301.922 C216.87,302.427 259.931,294.329 282.104,259.168 C303.33,225.509 299.864,182.347 293.742,144.919 C288.512,112.94 281.463,79.935 265.621,51.344 C258.011,37.611 247.958,25.247 234.393,17.082 C219.848,8.328 202.166,6.706 186.333,12.444 C182.45,13.851 181.259,19.317 186.457,19.266 C202.955,19.108 217.864,20.584 231.159,31.28 C244.376,41.913 252.973,57.245 259.567,72.593 C266.723,89.248 271.474,106.9 275.271,124.589 C278.834,141.194 281.758,158.175 283.346,175.085 C286.825,212.101 282.592,258.186 247.271,279.127 C231.738,288.336 211.554,290.247 193.862,291.22 C175.603,292.222 156.748,290.961 139.178,285.617 C122.729,280.614 106.935,271.551 97.084,257.096 C87.368,242.836 85.626,226.145 84.933,209.39 C83.506,174.896 86.643,139.656 95.272,106.201 C101.005,83.977 109.32,62.275 123.661,44.114 C129.611,36.58 137.151,29.947 145.77,25.66 C155.406,20.867 166.028,19.127 176.698,18.543 C178.259,18.457 181.096,15.661 178.342,15.194 L178.342,15.194 Z" id="Shape"></path>
                    <path d="M143.151,201.637 C153.463,203.581 165.45,202.183 175.817,201.079 C187.335,199.853 198.883,198.894 210.411,197.762 C217.524,197.063 238.63,201.185 239.789,190.512 C239.927,189.244 238.848,188.289 237.878,187.754 C235.378,186.375 231.531,187.405 229.424,189.033 C227.997,190.136 227.267,191.119 227.013,192.906 C226.956,193.302 228.218,196.814 227.617,194.556 C228.113,193.001 228.608,191.446 229.104,189.891 C229.082,189.912 229.058,189.935 229.035,189.956 C230.519,189.155 232.004,188.353 233.487,187.553 C239.16,186.574 232.359,187.48 230.885,187.573 C228.254,187.74 225.615,187.806 222.981,187.875 C217.327,188.022 211.931,188.426 206.291,189.092 C195.914,190.316 185.541,191.576 175.162,192.769 C164.814,193.958 153.64,193.522 143.816,197.34 C141.987,198.05 140.25,201.09 143.151,201.637 L143.151,201.637 Z" id="Shape"></path>
                    <path d="M140.178,204.932 C139.944,216.795 145.959,230.578 156.217,236.969 C167.262,243.852 180.341,246.998 193.135,243.744 C216.054,237.915 228.596,214.684 239.089,195.562 C240.562,192.88 239.762,190.145 236.492,189.579 C233.058,188.984 229.372,190.771 227.378,193.535 C225.929,195.542 225.108,197.802 224.916,200.271 C224.687,203.218 229.176,202.771 230.756,202.089 C233.582,200.869 235.838,198.885 238.072,196.79 C234.507,195.704 230.942,194.619 227.378,193.534 C219.64,208.229 210.82,227.45 194.431,234.116 C184.934,237.98 174.339,233.68 165.76,229.543 C154.945,224.328 151.768,212.546 146.647,202.781 C145.268,200.153 140.229,202.342 140.178,204.932 L140.178,204.932 Z" id="Shape"></path>
                    <path d="M153.379,198.497 C153.382,198.472 153.385,198.445 153.388,198.42 C151.057,198.966 148.727,199.513 146.396,200.06 C147.495,205.956 146.968,212.624 146.796,218.593 C146.667,223.066 154.541,220.169 155.444,217.38 C157.527,210.95 160.692,205.097 161.071,198.222 C157.959,198.951 154.845,199.682 151.733,200.411 C151.693,205.652 151.584,210.885 151.427,216.123 C151.279,221.135 160.247,217.982 161.22,214.749 C162.935,209.046 165.339,203.634 166.636,197.797 C163.234,198.275 159.831,198.751 156.43,199.229 C156.419,207.954 156.272,216.663 156.052,225.384 C155.918,230.72 166.339,227.871 167.001,223.847 C168.306,215.926 169.695,208.047 172.163,200.391 C168.548,200.898 164.933,201.406 161.317,201.912 C161.298,211.915 161.249,221.917 161.183,231.919 C161.144,237.921 171.802,233.794 172.47,229.273 C173.908,219.527 175.059,209.605 178.724,200.389 C175.078,200.9 171.434,201.411 167.789,201.923 C167.893,212.365 167.67,222.814 167.56,233.256 C167.5,238.96 177.997,235.639 178.945,231.658 C181.75,219.878 185.255,208.279 187.967,196.473 C184.239,196.995 180.513,197.518 176.786,198.041 C176.765,209.791 176.655,221.538 176.546,233.287 C176.49,239.175 187.161,235.656 188.2,231.651 C190.929,221.125 193.575,210.6 197.306,200.373 C193.432,200.916 189.559,201.46 185.685,202.004 C185.586,213.814 183.153,225.426 182.931,237.228 C182.816,243.359 193.634,239.462 194.84,235.557 C198.733,222.954 202.795,210.407 206.547,197.761 C202.593,198.316 198.639,198.87 194.685,199.425 C193.264,211.664 189.601,223.561 189.364,235.945 C189.253,241.792 199.184,238.45 200.858,235.434 C206.246,225.727 208.925,214.679 215.192,205.457 C211.362,205.627 207.532,205.798 203.702,205.968 C203.591,215.541 201.03,224.679 197.338,233.459 C194.746,239.622 206.585,237.886 208.711,234.136 C213.797,225.167 218.039,215.76 223.089,206.774 C219.27,206.546 215.45,206.319 211.631,206.092 C210.35,211.08 208.679,215.789 206.431,220.427 C210.438,220.254 214.446,220.082 218.452,219.909 C219.87,214.088 221.133,208.214 219.621,202.298 C218.085,196.289 211.44,194.842 206.16,194.643 C206.212,197.502 206.264,200.361 206.315,203.219 C210.376,201.351 214.691,200.848 219.01,199.846 C217.196,198.055 215.381,196.263 213.567,194.472 C212.203,196.659 209.862,198.119 207.993,199.862 C206.514,201.238 205.464,203.794 207.177,205.436 C209.427,207.595 213.382,206.45 215.645,204.99 C219.904,202.241 224.413,199.913 228.671,197.163 C225.62,196.228 222.569,195.294 219.519,194.358 C217.054,202.514 213.008,209.565 208.31,216.621 C211.933,217.249 215.558,217.876 219.181,218.504 C222.923,212.136 225.837,205.335 229.536,198.942 C225.765,198.717 221.994,198.493 218.223,198.268 C214.438,212.668 202.733,219.28 188.987,222.719 C184.113,223.939 180.27,223.212 175.954,220.844 C170.968,218.11 166.365,215.624 160.825,214.102 C157.847,213.285 148.718,217.331 151.524,221.546 C152.637,223.217 153.793,225.297 155.729,226.117 C159.696,227.798 164.822,225.278 166.451,221.465 C166.821,220.598 168.194,217.293 169.177,215.814 C173.003,210.054 162.971,210.006 160.124,213.058 C157.866,215.477 155.243,218.963 153.944,222.003 C157.518,220.452 161.091,218.901 164.665,217.351 C165.608,217.715 163.12,215.082 163.88,216.185 C160.779,218.666 157.679,221.148 154.579,223.629 C160.546,225.188 165.267,229.072 170.904,231.344 C178.298,234.323 186.452,232.865 193.804,230.563 C210.666,225.284 225.271,215.532 230.117,197.756 C231.932,191.098 220.941,193.459 218.804,197.082 C215.046,203.457 212.026,210.223 208.308,216.62 C204.248,223.603 216.251,222.943 219.179,218.503 C224.298,210.74 228.766,202.801 231.429,193.846 C233.095,188.24 224.944,189.325 222.277,191.041 C218.013,193.786 213.502,196.109 209.237,198.854 C211.788,200.564 214.338,202.273 216.888,203.982 C219.554,201.505 222.389,199.467 224.347,196.338 C226.89,192.275 222.45,190.146 218.904,190.964 C213.429,192.227 208.083,193.046 202.927,195.411 C198.227,197.566 196.425,203.727 203.082,203.987 C210.915,204.292 207.554,215.833 206.429,220.425 C205.698,223.406 208.147,224.973 210.896,224.857 C214.196,224.717 217.031,222.827 218.451,219.908 C220.709,215.27 222.388,210.561 223.679,205.571 C225.415,198.856 214.352,201.111 212.221,204.889 C207.16,213.863 202.948,223.274 197.923,232.265 C201.714,232.491 205.505,232.717 209.296,232.942 C213.211,223.461 215.746,213.379 215.967,203.089 C216.099,196.979 206.288,200.979 204.477,203.6 C198.079,212.852 195.483,223.806 190.139,233.577 C193.971,233.406 197.801,233.236 201.633,233.066 C201.776,220.743 205.212,208.774 206.737,196.597 C207.468,190.76 196.084,194.309 194.875,198.261 C191.013,210.879 186.843,223.398 183.121,236.059 C187.091,235.502 191.06,234.946 195.03,234.388 C195.075,222.616 197.323,210.997 197.491,199.233 C197.579,193.081 187.195,197.292 185.87,200.864 C182.084,211.073 179.277,221.568 176.73,232.144 C180.615,231.598 184.5,231.053 188.384,230.508 C188.275,218.797 188.165,207.087 188.144,195.375 C188.133,189.787 177.856,192.996 176.963,196.943 C174.286,208.781 170.32,220.271 167.739,232.137 C171.534,231.605 175.329,231.072 179.124,230.539 C179.015,220.133 178.792,209.72 178.895,199.313 C178.954,193.398 169.293,197.661 167.96,200.847 C163.823,210.741 162.6,221.377 161.179,231.914 C164.942,231.032 168.703,230.149 172.466,229.268 C172.401,219.286 172.351,209.305 172.332,199.324 C172.321,193.699 162.614,197.311 161.486,200.845 C159.037,208.522 157.566,216.374 156.222,224.307 C159.871,223.794 163.521,223.282 167.171,222.77 C166.95,214.108 166.804,205.457 166.793,196.792 C166.787,191.703 157.382,194.604 156.587,198.224 C155.319,203.997 152.963,209.42 151.577,215.159 C154.842,214.701 158.106,214.243 161.37,213.785 C161.214,208.595 161.103,203.41 161.064,198.218 C161.029,193.447 151.889,196.36 151.726,200.407 C151.478,206.552 148.349,211.865 146.927,217.741 C149.81,217.337 152.693,216.932 155.575,216.528 C155.25,210.483 154.722,203.657 153.245,197.776 C152.461,194.654 146.526,197.592 146.388,200.055 C146.386,200.08 146.385,200.106 146.383,200.131 C146.192,203.68 153.039,201.45 153.379,198.497 L153.379,198.497 Z" id="Shape"></path>
                    <path d="M183.401,235.937 C181.186,242.991 180.737,250.266 180.056,257.6 C179.73,261.12 179.559,264.716 178.956,268.202 C178.455,271.096 178.114,273.905 181.212,275.385 C183.893,276.665 187.105,275.21 189.15,273.451 C193.552,269.666 191.561,261.288 191.511,256.12 C191.441,248.868 191.808,241.432 189.333,234.526 C188.427,231.993 183.956,234.169 183.401,235.937 L183.401,235.937 Z" id="Shape"></path>
                    <path d="M128.089,251.544 C126.532,257.789 127.763,263.109 133.125,267.033 C137.873,270.507 143.813,272.026 149.592,272.594 C155.456,273.168 161.347,272.947 167.226,272.881 C172.3,272.824 175.451,274.637 180.815,272.585 C182.979,271.757 184.813,269.732 184.848,267.331 C184.894,264.164 181.728,263.305 179.16,262.935 C173.783,262.161 168.181,262.81 162.783,262.956 C157.372,263.102 151.556,263.103 146.364,261.377 C140.658,259.48 136.218,254.48 132.318,250.126 C131.23,248.91 128.435,250.157 128.089,251.544 L128.089,251.544 Z" id="Shape"></path>
                    <path d="M185.27,266.09 C187.576,268.684 193.914,270.043 198.248,270.465 C205.382,271.16 212.641,271.185 219.749,270.227 C226.083,269.373 232.669,267.857 237.958,264.082 C242.202,261.053 247.734,253.177 241.647,249.259 C238.891,247.485 233.436,249.83 232.047,252.494 C231.052,254.402 231.276,256.448 230.819,257.853 C230.865,257.711 230.197,258.436 229.769,258.656 C225.818,260.687 221.084,261.337 216.698,261.837 C211.225,262.461 205.749,262.419 200.254,262.394 C197.903,262.383 195.551,262.375 193.201,262.295 C191.023,262.222 189.809,262.243 188.384,262.348 C186.883,262.458 183.622,264.237 185.27,266.09 L185.27,266.09 Z" id="Shape"></path>
                    <path d="M149.379,92.578 C146.68,101.568 147.087,111.565 146.829,120.857 C146.549,130.979 146.531,141.111 146.529,151.237 C146.527,160.515 146.673,169.789 147.01,179.061 C147.158,183.124 147.364,187.186 147.638,191.243 C147.886,194.936 147.941,198.271 151.617,200.126 C154.367,201.513 157.799,199.599 159.494,197.472 C161.822,194.551 161.52,191.559 161.199,188.063 C160.827,184.029 160.566,179.984 160.326,175.939 C159.781,166.728 159.463,157.501 159.134,148.281 C158.778,138.25 158.599,128.215 158.234,118.183 C157.913,109.381 158.514,99.535 155.584,91.103 C154.665,88.458 149.936,90.723 149.379,92.578 L149.379,92.578 Z" id="Shape"></path>
                    <path d="M211.917,85.611 C207.91,92.159 208.316,102.215 208.141,109.662 C207.912,119.409 208.135,129.154 208.559,138.893 C209.35,157.044 211.322,175.251 214.721,193.103 C216.128,200.497 229.66,195.479 228.153,188.639 C224.337,171.323 222.269,153.696 220.654,136.056 C219.824,126.998 219.303,117.913 218.845,108.83 C218.626,104.496 218.328,100.176 218.041,95.847 C217.793,92.108 217.762,87.864 215.539,84.733 C214.734,83.598 212.439,84.758 211.917,85.611 L211.917,85.611 Z" id="Shape"></path>
                    <path d="M153.491,213.553 C154.612,209.438 150.811,204.98 147.866,202.471 C144.425,199.54 140.004,198.492 135.602,198.25 C124.899,197.66 114.516,203.881 106.707,210.553 C97.904,218.074 91.273,228.557 88.166,239.686 C86.642,245.142 86.138,250.912 86.693,256.541 C87.203,261.72 88.969,270.881 94.542,272.844 C97.202,273.781 101.383,272.49 102.246,269.5 C103.481,265.226 100.359,260.009 99.568,255.705 C98.758,251.304 98.829,246.622 99.636,242.227 C101.283,233.263 105.876,224.839 112.015,218.168 C116.703,213.074 123.286,207.855 130.399,206.971 C133.596,206.574 136.571,207.083 139.537,208.267 C143.433,209.821 145.751,213.929 149.545,215.265 C150.891,215.739 153.073,215.091 153.491,213.553 L153.491,213.553 Z" id="Shape"></path>
                    <path d="M224.022,214.186 C229.645,209.328 236.468,204.195 244.325,204.959 C251.138,205.621 256.848,210.236 261.225,215.15 C266.291,220.839 269.5,227.973 271.553,235.246 C272.66,239.172 273.141,243.201 273.526,247.252 C273.887,251.059 273.268,255.651 275.835,258.718 C277.165,260.309 280.398,259.054 281.518,257.868 C288.441,250.539 285.931,237.436 283.316,228.715 C280.519,219.388 274.986,210.43 267.451,204.217 C252.305,191.726 230.861,196.437 221.481,213.411 C220.499,215.188 223.188,214.906 224.022,214.186 L224.022,214.186 Z" id="Shape"></path>
                    <path d="M210.216,89.327 C226.748,92.297 240.518,77.702 254.623,71.775 C256.973,70.788 260.361,67.925 259.082,64.975 C257.785,61.988 253.42,62.6 251.07,63.587 C244.373,66.401 238.424,70.662 232.356,74.592 C226.035,78.686 219.76,81.113 212.405,82.629 C209.5,83.229 205.17,88.42 210.216,89.327 L210.216,89.327 Z" id="Shape"></path>
                    <path d="M107.82,63.99 C99.792,70.238 110.174,79.973 115.577,83.567 C119.973,86.491 124.744,88.723 129.561,90.855 C131.716,91.809 140.026,94.543 140.536,96.032 C140.729,94.788 140.921,93.543 141.114,92.298 C141.048,92.4 140.982,92.502 140.917,92.604 C142.227,91.556 143.536,90.508 144.846,89.459 C146.683,88.779 143.48,89.896 142.996,90.073 C141.759,90.529 140.776,91.413 139.817,92.274 C137.35,94.491 137.952,97.669 141.171,98.454 C145.815,99.588 157.507,95 152.272,89.034 C148.982,85.285 141.36,84.068 136.841,82.265 C131.303,80.056 125.566,77.655 120.661,74.218 C118.574,72.756 116.757,71 115.143,69.035 C113.66,67.229 113.76,64.408 111.417,63.451 C110.295,62.993 108.776,63.245 107.82,63.99 L107.82,63.99 Z" id="Shape"></path>
                    <path d="M125.045,292.479 C121.664,323.073 127.239,355.324 133.541,385.224 C136.735,400.374 139.242,415.828 143.309,430.77 C144.974,436.886 146.989,443.249 149.982,448.86 C152.178,452.975 155.124,456.734 157.69,460.621 C160.203,464.426 162.619,468.374 164.088,472.711 C164.42,473.69 164.158,475.989 164.463,475.45 C165.168,474.198 163.754,475.82 164.943,474.956 C164.257,475.375 164.271,475.393 164.984,475.01 C164.581,475.218 164.171,475.415 163.758,475.603 C157.63,478.47 150.603,479.939 145.86,485.151 C140.06,491.524 142.869,500.585 149.329,505.504 C157.48,511.709 169.885,509.976 179.262,508.528 C191.117,506.698 203.582,503.318 212.665,495.109 C216.245,491.875 219.356,486.628 217.774,481.683 C215.806,475.533 208.561,472.581 202.962,470.856 C199.456,469.775 195.706,470.656 193.043,473.272 C191.161,475.122 189.865,479.163 193.253,480.381 C196.064,481.393 203.273,483.272 203.979,487.004 C204.474,489.62 201.123,491.464 199.109,492.702 C192.288,496.899 182.384,498.262 174.592,499.015 C170.311,499.429 165.695,499.573 161.677,497.834 C159.339,496.821 155.662,492.198 156.066,489.774 C156.185,489.061 156.533,488.865 156.219,489.104 C157.481,488.14 157.097,488.434 158.997,487.576 C161.983,486.226 165.115,485.228 168.077,483.819 C175.735,480.175 179.288,474.665 176.306,466.339 C173.192,457.645 166.148,450.901 161.715,442.929 C154.546,430.033 152.006,414.24 149.279,399.942 C146.35,384.585 141.647,369.511 138.604,354.141 C134.475,333.283 132.994,312.275 130.411,291.221 C130.059,288.34 125.289,290.283 125.045,292.479 L125.045,292.479 Z" id="Shape"></path>
                    <path d="M178.844,373.557 C172.632,385.359 173.37,401.461 174.318,414.36 C174.884,422.065 176.393,429.73 177.898,437.297 C179.694,446.325 181.798,455.319 184.439,464.14 C186.183,469.966 187.511,476.784 194.101,478.44 C197.671,479.337 204.659,475.166 201.557,471.144 C202.562,472.447 202.244,470.952 201.711,469.97 C201.143,468.921 200.645,467.829 200.127,466.753 C198.731,463.855 197.656,460.796 196.621,457.755 C193.901,449.755 191.759,441.562 189.728,433.365 C188.016,426.454 186.401,419.466 185.48,412.398 C184.671,406.187 184.265,399.94 183.954,393.688 C183.619,386.975 184.697,379.977 183.819,373.336 C183.502,370.932 179.647,372.034 178.844,373.557 L178.844,373.557 Z" id="Shape"></path>
                    <path d="M182.418,384.143 C187.561,375.426 199.349,376.492 208.178,375.959 C224.724,374.963 239.727,381.707 254.82,387.54 C254.145,386.567 253.471,385.595 252.798,384.622 C253.839,400.955 256.305,417.144 256.538,433.534 C256.643,440.927 257.235,448.32 257.019,455.714 C256.919,459.149 256.447,462.33 256.772,465.77 C257.022,468.415 257.571,471.035 255.977,472.522 C252.59,475.681 248.152,477.846 247.433,482.918 C246.884,486.792 245.562,490.471 245.309,494.447 C244.959,499.926 246.338,505.451 250.031,509.597 C257.46,517.939 271.45,515.748 280.702,512.556 C290.323,509.236 301.023,502.456 304.614,492.423 C308.842,480.609 295.851,471.575 285.505,471.435 C282.469,471.393 276.257,475.295 279.4,478.772 C282.84,482.578 288.886,484.401 290.842,488.425 C291.347,489.465 291.374,490.003 291.387,490.105 C291.447,490.58 291.23,492.854 291.441,491.736 C290.959,494.304 290.882,494.026 289.267,496.185 C288.25,497.543 290.164,495.189 288.997,496.477 C288.64,496.873 288.257,497.244 287.876,497.616 C287.483,497.999 287.068,498.358 286.655,498.718 C285.24,499.947 287.817,497.837 286.294,498.986 C285.362,499.688 284.381,500.32 283.388,500.93 C283.134,501.086 281.384,502.053 283.017,501.177 C282.308,501.558 281.579,501.903 280.849,502.241 C279.749,502.753 278.618,503.193 277.478,503.608 C279.114,503.012 275.842,504.062 275.283,504.202 C274.747,504.336 271.534,504.879 273.025,504.686 C271.721,504.854 270.408,504.904 269.094,504.892 C266.983,504.872 262.99,503.675 261.286,501.233 C258.189,496.793 258.681,490.864 259.762,485.75 C259.968,484.777 260.227,483.816 260.484,482.857 C260.698,482.056 261.976,479.823 260.661,481.325 C262.095,479.689 264.158,478.467 265.815,477.079 C270.399,473.242 270.906,468.158 270.356,462.583 C269.66,455.525 270.705,448.286 270.345,441.146 C269.934,432.996 269.925,424.845 269.336,416.703 C268.487,404.964 267.054,393.258 265.931,381.542 C265.813,380.304 265.173,379.062 263.909,378.624 C254.226,375.272 244.594,371.741 234.596,369.428 C225.629,367.354 216.982,367.424 207.914,368.509 C198.781,369.602 179.851,371.873 179.487,384.274 C179.442,385.784 181.984,384.881 182.418,384.143 L182.418,384.143 Z" id="Shape"></path>
                    <path d="M302.133,376.631 C298.768,388.233 297.099,400.494 295.472,412.449 C293.924,423.822 290.792,435.236 287.546,446.228 C285.453,453.313 283.275,460.382 280.819,467.35 C279.95,469.815 278.869,471.985 278.676,474.62 C278.601,475.649 278.832,476.687 279.649,477.414 C280.255,477.95 280.96,478.278 281.763,478.396 C282.218,478.423 282.672,478.451 283.126,478.478 C285.547,478.187 285.093,478.16 281.763,478.396 C289.37,479.835 292.681,471.355 294.45,465.777 C296.648,458.841 298.517,451.796 300.349,444.757 C303.162,433.952 305.198,422.792 306.477,411.704 C307.814,400.112 308.8,387.159 305.207,375.898 C304.788,374.581 302.397,375.722 302.133,376.631 L302.133,376.631 Z" id="Shape"></path>
                    <path d="M292.727,210.536 C297.835,230.627 319.281,237.455 337.528,240.588 C347.883,242.366 358.446,242.906 368.921,243.495 C379.349,244.081 389.776,245.067 400.217,245.333 C412.414,245.644 424.625,245.071 436.706,247.127 C449.324,249.274 459.545,255.667 467.778,265.353 C483.877,284.291 490.616,310.536 491.126,334.924 C491.376,346.833 489.66,358.659 486.684,370.171 C483.645,381.925 478.281,392.095 468.407,399.376 C462.175,403.972 467.268,409.522 473.598,406.761 C495.901,397.03 502.384,368.181 504.658,346.397 C507.215,321.895 502.363,295.864 490.814,274.097 C485.118,263.363 477.314,253.025 467.135,246.222 C457.057,239.488 445.349,236.743 433.396,235.843 C420.922,234.905 408.4,235.636 395.913,235.046 C385.93,234.575 375.954,233.964 365.965,233.533 C340.721,232.444 313.555,229.081 296.181,208.659 C295.124,207.417 292.344,209.027 292.727,210.536 L292.727,210.536 Z" id="Shape"></path>
                    <path d="M309.632,232.036 C308.012,237.645 308.105,243.944 307.649,249.746 C307.159,255.996 307.042,262.259 307.215,268.524 C307.559,280.965 309.522,293.446 314.864,304.775 C316.345,307.917 321.547,306.992 323.73,305.257 C333.528,297.473 338.287,286.385 341.707,274.631 C345.195,262.64 346.593,249.322 352.262,238.077 C348.342,237.844 344.423,237.61 340.504,237.377 C339.825,239.336 339.55,241.582 339.736,243.648 C340.249,249.305 349.752,245.949 350.851,242.088 C351.366,240.278 352.313,238.64 352.867,236.845 C353.809,233.789 350.95,232.174 348.273,232.287 C344.925,232.429 341.904,234.36 340.503,237.376 C335.725,247.667 333.782,259.005 331.066,269.948 C328.394,280.713 325.265,292.966 316.297,300.274 C319.655,300.109 323.014,299.944 326.372,299.779 C321.123,289.155 319.127,277.655 318.295,265.923 C317.859,259.77 317.806,253.593 317.494,247.435 C317.218,241.949 317.656,235.794 315.941,230.534 C315.064,227.834 310.174,230.159 309.632,232.036 L309.632,232.036 Z" id="Shape"></path>
                    <path d="M371.24,241.143 C369.007,249.262 371.841,259.355 374.17,267.215 C376.904,276.438 381.509,284.932 387.257,292.611 C390.049,296.342 396.706,291.886 398.022,288.998 C401.657,281.012 404.08,272.491 406.434,264.058 C407.661,259.665 408.792,255.246 409.849,250.81 C410.48,248.164 412.683,243.024 410.019,241.039 C407.843,239.418 404.429,239.783 402.322,241.444 C399.081,243.998 398.785,246.528 397.965,250.309 C397.023,254.652 395.949,258.967 394.836,263.27 C392.549,272.109 390.079,281.041 386.583,289.491 C390.172,288.287 393.76,287.083 397.348,285.878 C392.048,279.37 388.164,272.072 384.844,264.394 C383.094,260.347 381.762,256.14 380.455,251.936 C379.227,247.986 378.797,243.457 376.851,239.81 C375.713,237.678 371.772,239.208 371.24,241.143 L371.24,241.143 Z" id="Shape"></path>
                    <path d="M436.352,245.055 C434.22,251.941 434.075,259.859 433.722,267.022 C433.332,274.928 433.328,282.802 434.602,290.634 C435.506,296.199 443.596,293.262 445.702,290.141 C450.151,283.541 453.405,276.041 456.437,268.709 C457.607,265.881 458.913,262.927 459.567,259.926 C459.964,258.101 459.489,256.397 457.735,255.5 C457.261,255.258 455.446,254.547 456.926,255.185 C456.514,255.007 456.069,254.868 455.622,254.815 C453.553,254.575 450.958,255.427 449.846,257.323 C450.685,255.893 453.557,254.542 450.38,256.6 C448.768,257.644 447.6,259.278 447.053,261.098 C446.225,263.849 445.341,266.545 444.313,269.231 C441.818,275.753 439.045,282.403 435.35,288.348 C438.974,287.823 442.598,287.297 446.222,286.773 C444.693,279.522 444.365,271.977 444.08,264.592 C443.82,257.858 444.329,250.116 442.069,243.696 C441.21,241.252 436.878,243.354 436.352,245.055 L436.352,245.055 Z" id="Shape"></path>
                    <path d="M316.298,239.124 C313.826,256.369 313.371,274.269 313.194,291.679 C313.145,296.455 321.859,293.63 322.682,290.347 C326.844,273.756 328.122,256.684 330.864,239.843 C327.51,240.629 324.156,241.416 320.801,242.202 C322.035,258.837 319.225,275.327 317.693,291.846 C317.172,297.46 327.368,293.677 328.587,290.318 C334.042,275.29 337.087,259.514 343.157,244.693 C339.367,245.224 335.577,245.756 331.788,246.288 C330.385,255.523 328.267,264.955 325.39,273.851 C329.161,273.689 332.931,273.527 336.703,273.365 C339.59,262.192 343.251,251.288 343.477,239.637 C343.533,236.72 339.617,236.149 337.513,236.769 C324.867,240.497 316.905,253.819 325.769,265.399 C329.046,269.682 339.986,263.555 336.324,258.356 C334.041,255.114 332.469,246.813 337.615,245.279 C335.627,244.323 333.639,243.367 331.651,242.411 C331.488,253.281 328.042,263.421 325.39,273.851 C323.724,280.411 335.215,278.024 336.703,273.365 C339.775,263.735 341.865,253.567 343.34,243.58 C343.672,241.331 340.602,240.503 339.001,240.57 C336.087,240.693 333.088,242.417 331.971,245.174 C325.971,259.987 323.112,275.726 317.869,290.779 C321.5,290.269 325.131,289.76 328.763,289.251 C330.05,272.846 332.087,256.315 330.866,239.844 C330.456,234.319 321.442,238.278 320.803,242.203 C318.174,258.358 317.094,274.789 313.348,290.75 C316.51,290.306 319.673,289.862 322.836,289.418 C322.731,272.418 324.819,254.563 322.337,237.709 C321.852,234.427 316.646,236.698 316.298,239.124 L316.298,239.124 Z" id="Shape"></path>
                    <path d="M380.489,243.84 C380.517,243.798 380.545,243.756 380.573,243.715 C381.542,242.268 379.238,242.219 378.452,242.727 C376.059,244.27 375.382,246.909 374.544,249.487 C373.421,252.942 373.14,255.195 375.209,258.067 C376.752,260.21 381.411,258.49 382.698,256.948 C387.831,250.794 390.594,243.966 390.854,235.924 C387.475,236.716 384.096,237.509 380.717,238.301 C380.551,247.503 378.985,256.62 378.74,265.828 C378.594,271.38 387.892,268.045 389.498,265.35 C393.71,258.285 396.602,250.552 396.826,242.261 C392.94,243.172 389.055,244.084 385.17,244.995 C385.101,255.444 383.939,265.843 383.807,276.289 C383.729,282.563 393.984,278.029 395.399,274.663 C399.746,264.318 402.049,253.31 403.511,242.222 C399.514,243.16 395.518,244.097 391.521,245.035 C390.799,250.931 389.536,256.723 388.183,262.502 C386.804,268.392 384.338,275.42 385.185,281.485 C386.004,287.36 395.295,283.801 396.629,279.88 C398.726,273.713 399.028,266.684 400.298,260.275 C401.488,254.269 402.777,248.308 403.511,242.223 C404.209,236.431 392.198,239.822 391.521,245.036 C390.186,255.313 387.931,265.544 383.993,275.155 C387.857,274.613 391.721,274.071 395.585,273.529 C395.609,263.09 396.74,252.699 396.827,242.262 C396.876,236.376 385.317,239.879 385.171,244.996 C384.982,251.6 382.666,257.888 379.468,263.612 C383.054,263.453 386.64,263.294 390.226,263.134 C390.161,254.062 390.842,244.999 390.855,235.923 C390.862,230.806 380.789,233.836 380.718,238.3 C380.617,244.701 378.466,249.336 375.117,254.639 C377.854,253.975 380.591,253.312 383.328,252.649 C380.906,250.868 383.056,245.547 380.544,242.617 C379.759,243.251 378.974,243.886 378.19,244.518 C378.227,244.538 378.265,244.557 378.302,244.577 C379.018,244.953 380.077,244.456 380.489,243.84 L380.489,243.84 Z" id="Shape"></path>
                    <path d="M440.969,245.799 C444.24,243.132 440.03,246.428 439.738,247.416 C439.075,249.66 438.899,251.909 438.648,254.229 C438.039,259.882 437.954,265.652 436.708,271.218 C435.335,277.352 445.437,274.763 446.95,270.777 C449.693,263.551 452.293,256.214 453.744,248.609 C454.949,242.293 444.028,244.433 442.945,249.074 C441.639,254.671 441.403,260.45 440.041,266.03 C438.411,272.706 448.663,269.746 450.879,266.676 C454.015,262.33 457.579,258.405 460.152,253.668 C456.369,253.837 452.586,254.005 448.802,254.173 C448.623,257.477 447.369,260.364 446.244,263.437 C443.885,269.877 456.58,268.096 458.264,262.919 C459.518,259.065 460.751,255.415 460.917,251.331 C461.149,245.605 451.159,248.825 449.567,251.836 C447.072,256.553 443.559,260.488 440.598,264.895 C444.21,265.11 447.824,265.326 451.436,265.541 C452.575,259.941 452.548,254.187 453.743,248.61 C450.143,248.765 446.544,248.92 442.944,249.075 C441.632,256.71 438.885,263.823 436.707,271.22 C440.177,270.733 443.646,270.245 447.116,269.759 C447.919,263.97 447.741,257.985 447.466,252.162 C447.288,248.38 446.266,241.48 440.969,245.799 L440.969,245.799 Z" id="Shape"></path>
                    <path d="M81.787,149.175 C81.415,155.864 88.133,159.625 93.246,162.314 C100.173,165.957 107.874,167.778 114.493,172.072 C115.847,169.301 117.202,166.53 118.556,163.759 C108.184,166.346 98.298,171.068 87.613,172.336 C89.144,173.856 90.676,175.374 92.207,176.893 C93.762,170.631 94.864,163.88 95.01,157.417 C95.156,150.938 83.747,155.095 82.455,159.179 C81.406,162.491 82.269,165.05 82.281,168.392 C82.302,174.788 95.002,171.039 94.982,165.413 C94.974,163.186 94.966,160.96 94.959,158.733 C91.824,160.792 88.69,162.85 85.556,164.909 C90.237,166.19 94.551,168.392 98.627,170.993 C100.057,168.067 101.486,165.143 102.915,162.219 C98.289,163.501 93.733,165.641 88.896,165.883 C88.391,168.982 87.887,172.079 87.382,175.177 C89.179,174.849 91.896,176.915 93.786,177.312 C97.283,178.046 104.229,174.166 101.131,170.126 C97.617,165.548 92.649,165.101 87.275,166.11 C81.892,167.12 77.864,175.837 85.761,175.404 C91.827,175.071 97.228,172.825 103.022,171.248 C106.599,170.274 112.171,165.619 107.31,162.474 C102.424,159.314 97.303,157.093 91.707,155.527 C88.17,154.537 82.316,157.736 82.304,161.703 C82.296,163.933 82.288,166.163 82.281,168.393 C82.26,174.779 94.963,171.042 94.982,165.414 C94.99,163.074 94.058,160.97 94.808,158.649 C90.623,159.236 86.438,159.824 82.253,160.411 C82.087,166.087 81.077,171.897 79.843,177.428 C79.203,180.296 81.53,182.384 84.437,181.985 C96.376,180.345 107.127,175.481 118.658,172.316 C121.747,171.467 127.644,166.726 122.721,164.003 C110.919,157.479 97.739,155.77 87.231,146.815 C85.499,145.339 81.911,146.926 81.787,149.175 L81.787,149.175 Z" id="Shape"></path>
                    <path d="M78.585,200.194 C85.584,202.344 93.121,201.539 100.336,202.025 C99.408,201.111 98.482,200.196 97.555,199.282 C97.492,199.73 97.407,200.169 97.4,200.622 C97.917,199.566 98.432,198.511 98.949,197.454 C91.04,203.983 84.333,211.67 77.634,219.396 C81.131,220.001 84.629,220.608 88.126,221.213 C90.03,213.578 93.464,206.469 96.03,199.053 C97.731,194.136 90.908,194.367 88.21,195.343 C84.272,196.767 80.972,199.06 77.531,201.389 C73.9,203.847 73.409,210.077 79.241,209.297 C79.934,209.209 80.627,209.115 81.318,209.014 C81.089,208.997 78.502,205.884 79.922,208.974 C80.429,210.073 81.098,210.7 82.166,211.245 C83.285,211.815 84.871,211.777 86.06,211.498 C86.839,211.311 87.564,210.997 88.232,210.556 C88.129,210.624 90.698,208.349 89.458,209.47 C91.618,207.517 92.396,205.294 91.772,202.491 C90.985,198.943 84.79,199.434 82.379,199.762 C82.949,202.398 83.52,205.034 84.089,207.67 C86.588,205.971 88.807,204.326 91.658,203.288 C89.051,202.052 86.444,200.814 83.838,199.578 C81.313,206.941 77.631,214.064 76.102,221.73 C74.661,228.954 85.061,225.501 87.537,222.411 C91.448,217.527 95.416,212.713 99.699,208.148 C102.585,205.073 109.089,201.476 108.38,196.742 C108.071,194.681 106.311,193.793 104.315,193.922 C96.494,194.426 88.455,193.791 80.784,195.698 C79.483,196.022 75.558,199.264 78.585,200.194 L78.585,200.194 Z" id="Shape"></path>
                    <path d="M280.198,138.997 C274.669,140.404 270.233,146.147 265.925,149.628 C260.749,153.81 255.494,157.829 249.68,161.093 C245.373,163.511 246.253,168.752 251.331,168.733 C259.944,168.701 268.575,167.69 277.154,168.798 C281.314,169.336 287.316,166.371 286.276,161.498 C285.077,155.886 285.317,150.079 283.727,144.53 C282.238,139.326 273.846,143.937 272.051,146.221 C268.928,150.197 264.911,153.286 261.304,156.793 C259.43,158.614 258.608,161.884 261.493,163.217 C264.427,164.572 268.275,163.151 270.456,161.033 C274.083,157.512 278.031,154.486 282.191,151.625 C278.997,151.071 275.803,150.519 272.609,149.965 C272.722,151.988 272.003,153.129 272.811,155.215 C273.726,157.576 277.745,156.203 278.928,154.914 C277.165,155.771 277.236,155.836 279.139,155.107 C280.075,154.707 280.908,154.154 281.64,153.45 C283.18,151.84 284.254,150.321 285.019,148.223 C287.095,142.532 278.161,143.661 275.636,145.347 C270.551,148.743 265.701,152.539 261.303,156.792 C264.354,158.205 267.405,159.619 270.455,161.032 C274.843,156.785 279.362,152.965 283.167,148.145 C279.274,148.709 275.383,149.273 271.491,149.836 C273.036,155.295 272.882,161.199 274.157,166.753 C277.198,164.319 280.238,161.887 283.279,159.453 C273.618,158.321 264.04,159.372 254.362,159.518 C254.912,162.064 255.463,164.611 256.013,167.158 C261.97,163.49 267.614,159.002 272.611,154.108 C275.432,151.344 284.092,144.315 282.446,139.696 C282.148,138.857 280.895,138.82 280.198,138.997 L280.198,138.997 Z" id="Shape"></path>
                    <path d="M270.15,157.707 C269.882,158.295 269.533,158.83 269.276,159.428 C269.961,158.765 270.645,158.102 271.33,157.439 C269.897,158.088 269.173,159.019 268.718,160.453 C269.019,159.996 269.319,159.537 269.619,159.08 C268.522,160.011 268.082,161.525 268.612,162.864 C268.944,163.7 269.834,164.302 270.581,164.697 C272.353,165.634 274.886,165.748 276.787,165.318 C278.836,164.855 281.114,163.432 281.806,161.338 C282.398,159.547 281.125,157.865 279.285,157.68 C278.008,157.552 276.845,157.724 275.607,157.951 C275.365,157.995 275.127,158.07 274.887,158.123 C273.833,158.356 275.994,158.011 275.243,158.086 C274.274,158.184 276.138,158.209 275.499,158.136 C274.927,158.071 276.439,158.553 275.678,158.18 C274.859,157.78 274.13,157.498 273.164,157.541 C273.901,157.767 274.64,157.993 275.376,158.219 C275.553,158.549 275.565,158.586 275.415,158.33 C275.281,158.088 275.118,157.869 274.924,157.676 C274.689,157.424 274.716,157.47 274.718,157.068 C274.721,156.16 273.722,155.827 272.975,155.859 C271.764,155.908 270.65,156.608 270.15,157.707 L270.15,157.707 Z" id="Shape"></path>
                    <path d="M285.4,177.192 C279.249,178.837 273.83,180.52 267.384,180.411 C264.811,180.367 257.809,183.89 260.066,187.504 C264.907,195.252 273.202,198.404 281.048,202.312 C283.431,203.499 286.651,202.546 288.721,201.166 C290.425,200.029 293.481,196.312 290.84,194.403 C286.344,191.152 283.009,186.587 279.178,182.628 C276.821,185.462 274.462,188.296 272.104,191.13 C275.091,190.768 278.147,190.223 281.166,190.323 C284.282,190.427 278.472,189.366 281.85,190.289 C282.352,190.447 282.871,190.498 283.408,190.442 C284.337,190.379 282.347,190.275 283.556,190.447 C285.434,190.715 287.786,189.855 288.8,188.172 C289.624,186.805 286.991,190.616 289.309,187.387 C289.882,186.588 290.101,185.811 290.145,184.843 C290.211,183.39 288.996,182.003 287.851,181.352 C284.472,179.43 278.861,180.982 275.296,181.439 C272.218,181.834 264.12,185.785 268.222,189.941 C272.099,193.871 275.486,198.41 280.021,201.625 C283.285,198.988 286.549,196.353 289.813,193.716 C283.699,190.739 275.679,188.384 271.696,182.459 C269.257,184.823 266.817,187.188 264.378,189.552 C272.664,189.19 282.048,187.12 288.014,180.965 C290.167,178.74 288.106,176.467 285.4,177.192 L285.4,177.192 Z" id="Shape"></path>
                    <path d="M301.418,388.211 C313.67,391.201 327.253,390.603 339.595,388.441 C350.826,386.475 360.612,381.842 370.343,376.153 C378.767,371.228 386.969,366.006 396.125,362.506 C400.011,361.022 404.381,360.016 408.56,360.372 C410.734,360.558 412.715,361.18 414.691,362.069 C415.741,362.542 416.711,363.156 417.64,363.83 C418.577,364.508 418.965,366.027 419.119,365.023 C420.73,363.103 422.341,361.183 423.951,359.262 C426.522,358.726 426.669,358.643 424.389,359.011 C423.613,359.265 422.839,359.525 422.066,359.788 C420.566,360.299 419.205,361.567 418.42,362.914 C417.159,365.081 418.029,366.909 420.413,367.505 C417.688,366.824 419.811,367.496 420.71,368.029 C421.684,368.606 423.04,368.566 424.118,368.491 C427.481,368.255 430.92,366.427 432.218,363.184 C432.325,362.917 432.432,362.65 432.539,362.383 C432.992,361.25 432.752,359.618 431.768,358.812 C413.839,344.113 392.742,353.367 375.177,363.784 C366.343,369.023 358.149,375.241 348.435,378.783 C333.802,384.118 318.474,382.73 303.307,384.36 C301.552,384.551 298.231,387.434 301.418,388.211 L301.418,388.211 Z" id="Shape"></path>
                    <path d="M421.542,369.777 C414.119,377.811 411.685,388.332 414.073,398.918 C416.316,408.857 422.173,417.632 426.825,426.56 C429.111,430.945 431.149,435.459 432.614,440.188 C433.98,444.598 433.963,449.145 434.354,453.699 C434.778,458.627 435.228,463.547 435.29,468.496 C435.316,470.561 435.286,472.704 434.882,474.735 C434.691,475.701 433.652,476.798 434.859,475.547 C435.14,475.256 434.527,475.736 434.104,475.94 C427.083,479.317 419.685,480.283 414.541,486.758 C409.325,493.324 415.212,503.619 420.529,508.111 C434.934,520.276 458.586,509.045 468.498,496.362 C472.214,491.607 474.483,486.199 475.052,480.186 C475.82,472.081 469.243,466.363 468.772,458.707 C468.498,454.256 470.449,449.51 471.598,445.277 C472.763,440.983 473.186,436.612 473.703,432.208 C474.667,424.012 475.817,415.568 474.956,407.316 C474.227,400.344 460.69,404.563 461.315,410.515 C461.914,416.211 461.441,421.954 460.917,427.638 C460.302,434.302 459.715,441.023 457.963,447.492 C456.386,453.313 454.071,459.875 455.758,465.921 C457.341,471.596 461.477,476.326 461.503,482.382 C461.561,495.885 441.615,509.821 430.37,499.395 C427.86,497.068 425.571,492.854 425.618,489.396 C425.628,488.681 425.661,489.015 426.212,488.64 C427.052,488.066 428.953,487.396 430.544,486.814 C437.602,484.229 445.969,481.662 447.606,473.287 C449.419,464.012 447.214,454.397 446.828,445.087 C446.405,434.873 441.523,425.576 436.555,416.902 C432.502,409.824 428.378,402.867 425.843,395.07 C423.098,386.629 424.946,379.025 427.165,370.752 C428.062,367.401 422.886,368.32 421.542,369.777 L421.542,369.777 Z" id="Shape"></path>
                    <path d="M131.875,32.681 C133.017,29.347 129.6,25.083 128.127,22.148 C125.858,17.626 123.36,13.294 119.466,9.98 C116.991,7.874 112.483,9.085 110.472,11.325 C104.503,17.973 100.908,26.496 98.826,35.111 C97.035,42.526 95.884,52.924 102.39,58.478 C106.657,62.12 117.829,55.244 113.086,51.339 C108.13,47.261 109.624,38.856 110.844,33.401 C112.369,26.583 115.159,19.572 119.576,14.097 C116.289,14.894 113.002,15.691 109.716,16.488 C113.696,19.296 116.439,23.057 119.218,26.993 C121.669,30.465 124.858,34.689 129.528,34.219 C130.465,34.124 131.543,33.647 131.875,32.681 L131.875,32.681 Z" id="Shape"></path>
                    <path d="M246.659,30.595 C249.768,22.986 252.119,12.485 258.686,7.014 C255.54,7.485 252.394,7.955 249.248,8.426 C254.853,13.941 257.451,22.983 258.814,30.502 C259.984,36.955 260.939,45.598 256.216,50.533 C251.574,55.383 257.786,58.953 262.498,56.626 C272.516,51.679 273.168,39.559 271.827,29.779 C270.48,19.963 267.022,8.498 259.477,1.597 C256.412,-1.206 249.565,1.409 248.563,5.261 C247.495,9.369 244.689,13.249 243.207,17.279 C241.554,21.775 240.617,26.579 241.43,31.328 C241.898,34.055 245.95,32.329 246.659,30.595 L246.659,30.595 Z" id="Shape"></path>
                    <path d="M162.649,20.572 C160.815,30.04 161.58,39.923 163.302,49.366 C164.929,58.283 168.155,67.372 174.72,73.87 C177.597,76.718 183.365,73.741 184.574,70.562 C191.069,53.486 192.155,35.004 194.313,17.03 C194.767,13.252 188.88,14.081 187.02,14.759 C182.906,16.26 178.343,16.697 174.032,15.985 C170.369,15.381 165.48,17.839 165.122,21.836 C164.049,33.807 165.817,46.094 168.069,57.838 C169.202,63.743 178.902,60.637 180.137,56.145 C183.388,44.33 186.407,32.325 186.571,20.002 C182.434,20.972 178.298,21.942 174.161,22.912 C174.159,26.422 174.126,29.925 173.954,33.431 C173.746,37.643 172.252,42.223 172.917,46.362 C173.711,51.3 181.228,48.931 183.024,45.913 C187.399,38.561 186.566,28.301 186.571,20.003 C186.575,13.739 174.234,17.443 174.161,22.913 C174.008,34.428 171.223,45.593 168.263,56.657 C172.285,56.093 176.308,55.528 180.331,54.964 C177.991,43.25 176.128,30.989 177.112,19.025 C174.141,20.975 171.173,22.925 168.202,24.876 C175.679,26.064 183.144,24.639 190.157,21.99 C187.725,21.232 185.295,20.475 182.864,19.719 C180.942,37.022 179.841,54.438 174.103,71.017 C177.387,69.914 180.672,68.812 183.957,67.709 C171.271,55.978 170.746,35.592 169.417,19.625 C169.138,16.282 163.129,18.085 162.649,20.572 L162.649,20.572 Z" id="Shape"></path>
                    <path d="M134.267,31.394 C133.717,39.72 138.274,46.218 141.936,53.219 C143.951,57.073 150.888,53.752 151.147,50.158 C151.714,42.24 151.781,34.255 152.002,26.32 C152.063,24.189 149.577,23.293 147.831,23.425 C145.615,23.595 143.426,24.07 141.264,24.567 C138.855,25.121 135.604,27.144 135.64,29.979 C135.676,32.863 139.26,33.208 141.36,32.731 C141.731,32.647 142.1,32.562 142.471,32.478 C141.14,32.401 139.809,32.324 138.479,32.247 C140.431,33.018 140.842,34.736 143.442,34.626 C145.519,34.538 147.792,33.041 148.915,31.328 C152.431,25.968 145.226,23.533 141.265,24.567 C141.296,27.289 141.329,30.009 141.361,32.731 C142.56,32.415 143.848,31.953 145.071,31.818 C143.68,30.853 142.29,29.888 140.9,28.923 C141.121,36.724 141.178,44.578 141.755,52.361 C144.658,51.101 147.561,49.841 150.463,48.582 C144.709,43.63 142.872,36.174 140.025,29.48 C138.948,26.953 134.409,29.245 134.267,31.394 L134.267,31.394 Z" id="Shape"></path>
                    <path d="M203.813,17.441 C202.367,23.112 202.027,29.113 201.181,34.902 C200.227,41.435 199.746,47.985 200.985,54.506 C201.87,59.162 208.681,56.902 210.494,54.083 C217.064,43.863 221.374,31.124 222.932,19.122 C223.128,17.604 221.356,16.441 220.072,16.301 C217.611,16.032 215.148,16.009 212.676,15.947 C209.628,15.871 205.327,18.455 205.271,21.818 C205.211,25.331 205.467,28.799 205.733,32.299 C205.981,35.566 205.632,38.36 208.407,40.448 C210.928,42.346 214.391,40.772 216.136,38.575 C220.234,33.41 217.432,25.18 217.131,19.036 C214.663,20.993 212.194,22.95 209.726,24.907 C211.819,24.856 213.9,24.842 215.983,24.633 C214.589,23.666 213.195,22.699 211.801,21.733 C210.631,33.115 205.758,43.244 201.148,53.527 C204.413,52.75 207.677,51.974 210.943,51.197 C209.19,45.224 209.425,39.051 209.72,32.898 C209.98,27.471 210.552,21.457 208.293,16.376 C207.5,14.598 204.19,15.966 203.813,17.441 L203.813,17.441 Z" id="Shape"></path>
                    <path d="M3.073,255.918 C21.688,247.239 39.41,237.426 59.79,233.406 C69.518,231.487 79.424,231.439 89.178,233.141 C99.996,235.029 108.482,239.722 117.582,245.517 C118.966,242.685 120.351,239.852 121.734,237.02 C119.051,237.48 117.348,238.593 115.35,240.193 C113.856,241.39 111.802,244.245 114.579,245.456 C116.396,246.248 118.335,246.103 120.273,245.984 C123.732,245.769 131.719,240.362 125.989,237.267 C85.185,215.232 37.574,228.603 1.607,253.834 C-0.178,255.088 1.31,256.739 3.073,255.918 L3.073,255.918 Z" id="Shape"></path>
                    <path d="M27.598,303.702 C35.464,296.071 43.728,288.813 52.507,282.246 C59.852,276.751 67.906,270.799 76.511,267.475 C82.367,265.214 88.334,263.261 94.438,261.781 C96.872,261.19 99.342,260.86 101.848,260.877 C100.379,260.867 102.709,261.467 102.282,261.12 C102.517,261.31 102.957,261.83 103.528,262.475 C105.29,264.461 109.172,262.889 110.666,261.408 C112.611,259.479 113.779,256.708 111.581,254.468 C109.46,252.306 105.604,252.852 102.915,253.223 C94.775,254.347 86.796,257.411 79.145,260.304 C69.575,263.922 61.252,269.374 52.993,275.4 C42.318,283.185 32.274,292.006 24.521,302.766 C23.125,304.702 26.627,304.644 27.598,303.702 L27.598,303.702 Z" id="Shape"></path>
                    <path d="M104.988,70.891 C101.282,79.654 108.219,91.613 114.069,97.818 C121.717,105.934 132.13,108.062 142.788,108.559 C146.089,108.712 150.817,105.774 150.858,102.16 C150.866,101.472 150.874,100.786 150.88,100.098 C150.894,98.936 150.034,97.569 148.883,97.216 C143.842,95.677 134.671,93.483 132.998,87.679 C131.376,82.053 120.846,87.323 120.607,91.796 C120.121,100.918 134.64,104.55 141.241,106.428 C140.131,105.332 139.019,104.237 137.909,103.141 C137.916,103.825 137.924,104.507 137.931,105.191 C140.621,103.058 143.312,100.924 146.001,98.792 C137.438,99.695 129.188,96.08 122.9,90.442 C119.664,87.541 117.012,83.93 114.927,80.14 C113.024,76.678 112.229,72.287 109.52,69.369 C108.22,67.966 105.569,69.516 104.988,70.891 L104.988,70.891 Z" id="Shape"></path>
                    <path d="M211.007,86.3 C209.339,90.679 211.83,95.954 216.268,97.4 C221.89,99.231 227.877,96.61 232.655,93.715 C242.206,87.93 250.216,78.623 256.737,69.677 C252.901,69.448 249.066,69.221 245.23,68.992 C241.706,76.42 235.651,81.836 227.161,81.42 C222.264,81.181 215.106,90.154 222.51,90.897 C232.21,91.868 242.919,86.274 248.997,78.883 C250.411,77.163 249.854,74.607 247.859,73.685 C245.147,72.432 240.916,73.603 239.007,75.842 C236.924,78.285 232.097,81.859 228.663,81.51 C227.113,84.669 225.562,87.828 224.012,90.987 C239.026,91.741 251.307,81.54 257.329,68.471 C258.336,66.287 256.267,64.439 254.316,64.101 C251.129,63.549 247.664,65.205 245.822,67.787 C241.409,73.975 236.224,79.684 230.593,84.779 C228.271,86.88 225.209,89.381 222.351,90.035 C219.545,90.677 216.898,85.958 214.86,84.629 C213.598,83.805 211.469,85.089 211.007,86.3 L211.007,86.3 Z" id="Shape"></path>
                    <path d="M130.791,129.332 C125.235,134.103 124.823,144.196 130.893,148.651 C133.577,150.621 139.126,149.096 139.967,145.606 C141.443,139.476 142.334,133.249 140.271,127.145 C139.758,125.63 137.796,125.357 136.472,125.341 C136.132,125.337 135.792,125.329 135.452,125.315 C132.74,125.201 129.975,127.201 128.923,129.592 C126.475,135.155 125.076,141.224 126.393,147.246 C127.453,152.092 138.52,147.984 137.961,143.402 C137.337,138.287 137.7,134.065 139.314,129.144 C137.137,130.57 134.96,131.996 132.785,133.421 C133.13,133.406 133.475,133.399 133.82,133.395 C132.554,132.794 131.288,132.193 130.021,131.591 C131.886,136.56 130.946,141.876 130.168,146.98 C132.976,145.464 135.782,143.949 138.59,142.433 C133.743,139.48 136.187,133.999 136.277,129.649 C136.337,126.734 131.875,128.4 130.791,129.332 L130.791,129.332 Z" id="Shape"></path>
                    <path d="M226.131,127.659 C229.105,125.22 229.652,124.562 227.772,125.687 C227.256,126.023 226.825,126.446 226.479,126.954 C226.012,127.665 225.887,128.473 225.735,129.286 C225.345,131.354 225.28,133.489 225.351,135.588 C225.5,139.967 227.62,143.905 231.351,146.15 C234.184,147.853 238.638,145.209 239.715,142.52 C242.143,136.459 242.136,129.836 239.064,124.006 C238.268,122.494 236.747,122.182 235.168,122.156 C235.242,122.157 234.039,121.953 233.19,121.919 C230.544,121.81 226.931,123.889 226.155,126.527 C224.686,131.518 222.433,139.881 226.666,144.069 C229.82,147.189 237.854,143.733 237.707,139.278 C237.631,136.997 236.789,134.871 236.715,132.553 C236.647,130.387 236.951,128.168 237.351,126.044 C235.006,127.58 232.661,129.117 230.316,130.652 C230.887,130.636 231.455,130.564 232.016,130.436 C233.622,130.182 231.614,130.428 232.45,130.415 C231.151,129.799 229.852,129.182 228.554,128.565 C231.215,133.107 231.649,137.962 229.957,142.938 C232.745,141.728 235.533,140.518 238.321,139.308 C233.508,136.768 234.74,130.282 233.187,125.98 C232.079,122.909 226.863,125.631 226.131,127.659 L226.131,127.659 Z" id="Shape"></path>
                    <path d="M217.27,93.523 C216.991,93.347 216.706,93.182 216.414,93.026 C214.556,91.992 210.983,93.529 210.477,95.602 C209.389,100.067 214.97,102.802 219.001,103.575 C224.585,104.644 230.373,102.034 234.98,99.153 C240.254,95.853 244.56,90.946 248.307,86.058 C251.297,82.158 255.953,75.966 255.881,70.813 C255.802,65.205 246.688,68.499 244.994,71.296 C243.402,73.925 242.564,76.959 241.051,79.656 C239.069,83.189 236.637,86.468 233.88,89.428 C231.434,92.056 228.62,94.417 225.278,95.789 C224.234,96.218 223.075,96.246 221.981,96.099 C221.176,95.991 217.591,94.747 217.377,93.96 C217.273,94.638 217.168,95.315 217.063,95.993 C216.809,96.182 216.554,96.372 216.3,96.561 C217.436,96.017 218.832,94.466 217.27,93.523 L217.27,93.523 Z" id="Shape"></path>
                    <path d="M114.866,81.323 C113.146,83.989 112.643,86.654 114.708,89.28 C116.617,91.708 119.534,93.285 122.317,94.518 C124.794,95.616 130.688,93.709 130.231,90.245 C129.772,86.766 128.801,83.175 125.459,81.446 C122.375,79.85 117.996,81.073 115.431,83.114 C113.137,84.94 110.716,87.663 111.148,90.854 C111.666,94.685 115.365,96.256 118.798,96.749 C121.949,97.2 126.796,95.136 126.886,91.437 C126.919,90.08 127.073,88.665 126.947,87.311 C123.546,88.788 120.144,90.263 116.743,91.74 C118.511,93.458 121.75,95.212 124.238,93.391 C125.494,92.473 126.812,91.384 127.321,89.845 C127.824,88.321 126.983,86.656 126.145,85.464 C124.921,83.727 121.457,84.468 119.937,85.128 C117.927,86 116.146,87.617 115.941,89.893 C115.821,91.238 115.968,92.64 116.002,93.99 C118.698,92.219 121.395,90.449 124.09,88.678 C123.603,88.627 123.125,88.562 122.643,88.474 C122.106,88.34 122.078,88.343 122.559,88.481 C122.333,88.396 122.11,88.305 121.887,88.21 C121.656,88.112 120.888,87.531 121.681,88.138 C120.893,87.535 121.657,88.353 121.419,87.94 C121.289,87.714 121.123,86.973 121.324,87.988 C121.263,87.684 121.285,87.37 121.313,87.064 C121.212,88.139 121.354,87.201 121.482,86.894 C120.887,88.328 122.191,86.161 121.076,87.498 C121.324,87.201 122.012,86.749 120.859,87.61 C121.551,87.092 119.565,88.151 120.789,87.661 C120.3,87.897 119.785,88.021 119.243,88.031 C119.704,88.011 119.572,87.99 118.848,87.965 C119.443,88.009 118.117,87.574 119.091,88.05 C118.364,87.696 119.054,88.051 119.245,88.229 C119.735,88.684 119.535,88.517 119.769,88.93 C120.377,90 120.684,91.236 120.875,92.442 C123.514,91.017 126.151,89.592 128.789,88.169 C126.525,87.226 118.66,85.321 120.065,81.636 C120.449,80.628 119.641,79.823 118.703,79.66 C117.313,79.417 115.633,80.132 114.866,81.323 L114.866,81.323 Z" id="Shape"></path>
                    <path d="M441.406,103.778 C425.524,106.409 404.717,125.32 413.491,142.886 C419.954,155.824 439.316,159.151 451.956,161.655 C459.397,163.129 466.918,164.193 474.337,165.78 C482.536,167.534 490.301,171.169 497.732,174.963 C517.861,185.242 534.411,201.942 538.743,224.755 C541.726,240.47 538.64,257.843 532.27,272.342 C529.334,279.025 524.93,285.554 518.954,289.855 C513.493,293.785 502.939,296.42 497.353,291.569 C492.618,287.456 480.267,295.229 485.509,299.473 C494.13,306.454 507.15,304.642 516.839,301.009 C525.546,297.745 532.677,291.034 537.997,283.583 C548.528,268.837 552.612,248.83 552.06,230.976 C550.746,188.498 510.398,162.666 472.236,156.307 C457.809,153.904 441.726,152.556 429.021,144.677 C411.492,133.808 426.755,109.861 441.636,104.873 C442.473,104.591 442.32,103.625 441.406,103.778 L441.406,103.778 Z" id="Shape"></path>
                    <path d="M413.081,109.413 C408.565,113.19 406.066,118.664 403.711,123.956 C401.366,129.226 399.333,134.466 398.857,140.264 C398.074,149.807 404.598,156.831 412.033,161.756 C435.232,177.124 464.139,178.874 488.294,192.155 C497.832,197.399 507.844,204.866 514.104,213.913 C520.274,222.831 521.637,233.508 521.365,244.1 C521.167,251.829 518.433,259.579 515.212,266.526 C513.271,270.714 508.348,280.286 502.855,278.505 C501.877,278.188 500.925,277.865 499.974,277.475 C495.201,275.52 484.585,282.233 491.115,286.166 C498.987,290.908 509.056,287.924 515.572,282.228 C522.158,276.471 526.213,268.162 529.078,260.044 C535.159,242.815 534.174,222.718 523.389,207.585 C517.116,198.785 507.504,192.272 498.415,186.704 C486.84,179.612 473.505,175.868 460.524,172.298 C446.745,168.507 432.982,164.847 420.347,157.985 C410.26,152.507 404.368,145.274 406.32,133.506 C407.757,124.84 411.728,117.666 415.257,109.788 C415.844,108.47 413.524,109.041 413.081,109.413 L413.081,109.413 Z" id="Shape"></path>
                    <path d="M489.877,49.809 C486.592,51.556 483.484,53.612 479.907,54.749 C475.637,56.105 470.883,56.3 466.451,56.753 C457.72,57.645 449.513,60.109 441.699,64.119 C433.353,68.402 425.711,74.239 419.824,81.576 C416.879,85.247 414.549,89.174 412.703,93.502 C411.296,96.802 409.112,102.836 411.264,106.054 C413.616,109.572 419.862,107.867 421.728,104.537 C423.715,100.99 423.478,96.851 424.776,92.982 C426.094,89.054 428.497,85.398 431.15,82.247 C436.853,75.476 444.417,70.373 452.49,66.873 C460.051,63.596 468.279,62.772 476.158,60.582 C481.005,59.235 490.548,56.436 490.732,50.075 C490.744,49.663 490.121,49.68 489.877,49.809 L489.877,49.809 Z" id="Shape"></path>
                    <path d="M501.39,37.161 C496.553,45.901 495.001,56.167 490.924,65.309 C487.539,72.901 483.121,80.438 477.268,86.393 C472.92,90.817 467.637,93.583 461.922,95.831 C455.381,98.404 445.729,98.888 440.805,104.179 C439.572,105.505 438.71,107.955 440.944,108.881 C444.985,110.556 449.446,108.76 453.393,107.545 C457.383,106.318 461.345,104.982 465.223,103.436 C472.403,100.576 479.159,96.424 484.605,90.915 C490.427,85.025 494.141,77.539 497.137,69.916 C499.288,64.445 500.483,58.691 501.448,52.909 C502.331,47.618 503.196,42.357 502.057,37.064 C501.996,36.78 501.472,37.012 501.39,37.161 L501.39,37.161 Z" id="Shape"></path>
                    <path d="M125.387,309.583 C125.372,309.789 125.358,309.994 125.342,310.2 C125.297,310.843 125.787,311.22 126.257,311.519 C130.123,313.984 135.372,314.067 139.774,314.891 C145.269,315.919 150.454,317.611 155.163,320.662 C156.243,318.453 157.322,316.244 158.401,314.035 C149.557,316.614 141.238,321.019 132.353,323.338 C133.836,325.479 135.32,327.619 136.803,329.761 C140.516,325.985 144.007,321.887 148.516,319.037 C153.524,315.871 150.881,310.615 145.371,311.791 C140.371,312.858 135.617,314.816 130.794,316.475 C132.35,318.688 133.904,320.9 135.46,323.113 C137.922,321.74 140.029,319.952 142.316,318.323 C145.889,315.776 146.067,310.759 140.72,310.942 C135.962,311.105 131.571,312.155 127.363,314.409 C123.423,316.518 120.764,322.722 127.511,322.589 C129.778,322.544 131.601,321.889 133.675,321.061 C136.037,320.118 138.671,316.767 135.614,314.982 C133.857,313.957 132.499,313.717 130.444,313.675 C130.494,316.402 130.544,319.128 130.592,321.855 C133.014,320.558 135.04,319.941 137.789,319.841 C137.258,317.381 136.726,314.921 136.193,312.46 C133.91,314.093 131.805,315.884 129.346,317.26 C127.656,318.206 125.874,320.624 126.749,322.64 C127.966,325.445 131.827,324.653 134.012,323.898 C137.815,322.584 141.503,321.115 145.47,320.359 C144.422,317.944 143.374,315.529 142.325,313.113 C136.805,316.437 132.5,321.15 128.003,325.686 C123.296,330.435 129.609,333.513 134.07,331.57 C142.599,327.857 150.956,323.525 159.736,320.438 C162.187,319.576 164.815,315.978 161.717,314.23 C154.768,310.31 147.132,308.787 139.307,307.722 C137.021,307.41 125.698,305.25 125.387,309.583 L125.387,309.583 Z" id="Shape"></path>
                    <path d="M133.606,344.719 C139.583,344.741 145.876,342.494 151.783,341.502 C159.032,340.283 166.413,339.99 173.751,340.077 C172.609,339.285 171.468,338.492 170.325,337.7 C170.319,337.93 170.314,338.16 170.308,338.389 C171.041,337.272 171.774,336.155 172.506,335.037 C158.022,343.47 143.829,353.874 131.069,364.72 C134.34,365.716 137.609,366.711 140.879,367.707 C148.945,357.942 160.346,351.453 166.822,340.284 C168.624,337.175 166.449,334.632 163.05,334.807 C152.646,335.347 144.742,341.456 136.139,346.602 C138.258,348.631 140.379,350.663 142.498,352.692 C145.707,350.727 149.116,349.133 152.444,347.385 C158.051,344.44 158.15,337.762 150.697,339.03 C144.433,340.095 127.479,348.591 135.392,356.802 C137.988,359.496 144.286,356.813 145.122,353.535 C146.077,349.802 146.845,348.634 150.802,347.931 C150.22,345.146 149.637,342.361 149.055,339.576 C144.732,341.885 140.3,344.005 136.138,346.601 C134.155,347.837 131.892,351.025 134.091,353.134 C136.357,355.308 140.21,354.092 142.497,352.691 C147.921,349.371 153.413,344.195 160.045,343.931 C158.788,342.105 157.53,340.281 156.273,338.454 C149.788,349.302 138.089,356.116 130.136,365.844 C128.751,367.536 129.289,370.042 131.252,370.949 C134.216,372.318 137.679,370.776 139.945,368.831 C147.442,362.397 155.341,356.477 163.295,350.623 C167.132,347.799 170.896,344.867 174.645,341.929 C176.774,340.26 179.515,338.536 179.445,335.559 C179.402,333.754 177.527,333.146 176.019,333.182 C168.425,333.364 160.915,334.097 153.429,335.379 C146.654,336.538 138.854,337.941 132.915,341.528 C131.168,342.587 131.452,344.711 133.606,344.719 L133.606,344.719 Z" id="Shape"></path>
                    <path d="M143.208,384.786 C147.898,380.675 154.232,375.919 160.702,375.794 C159.727,374.38 158.753,372.966 157.779,371.551 C151.847,379.482 144.811,386.466 140.222,395.339 C136.708,402.132 148.078,401.728 150.62,397.14 C154.515,390.114 159.245,383.627 162.224,376.119 C164.016,371.602 157.201,371.417 154.732,372.564 C148.636,375.398 143.271,379.552 138.737,384.502 C142.148,385.541 145.559,386.579 148.97,387.618 C150.142,385.773 152.417,384.514 153.878,382.723 C156.788,379.155 151.727,376.918 148.799,377.708 C144.172,378.957 140.212,381.488 137.763,385.676 C136.273,388.223 137.181,390.871 140.247,391.403 C143.681,391.998 146.872,390.176 148.97,387.618 C151.489,384.548 154.433,381.893 158.036,380.177 C155.538,378.991 153.041,377.807 150.544,376.622 C147.833,383.711 142.971,389.685 139.657,396.487 C143.499,396.322 147.343,396.156 151.184,395.991 C154.939,387.674 161.187,380.7 165.952,372.967 C167.405,370.609 165.621,368.531 163.029,368.724 C152.96,369.468 144.667,375.402 139.015,383.51 C137.104,386.253 141.901,385.931 143.208,384.786 L143.208,384.786 Z" id="Shape"></path>
                    <path d="M306.977,314.085 C303.671,322.17 304.496,332.277 303.973,340.875 C303.425,349.898 302.858,358.938 302.02,367.938 C301.164,377.137 299.793,386.281 298.073,395.357 C297.165,400.148 295.951,404.867 294.91,409.628 C294.112,413.274 292.682,417.881 293.942,421.478 C294.646,423.49 298.062,422.236 299.023,421.228 C304.961,414.999 306.539,404.835 308.224,396.683 C310.106,387.576 311.209,378.353 311.948,369.089 C312.704,359.61 312.954,350.126 312.745,340.621 C312.562,332.28 313.839,320.997 309.998,313.365 C309.37,312.12 307.358,313.152 306.977,314.085 L306.977,314.085 Z" id="Shape"></path>
                    <path d="M308.099,313.074 C304.78,311.43 300.655,311.904 297.086,312.424 C291.723,313.206 286.405,314.25 281.041,315.038 C278.588,315.398 272.761,320.821 277.452,322.383 C285.685,325.123 294.433,325.774 302.574,328.772 C306.688,330.287 316.042,324.738 310.297,321.196 C309.163,320.498 308.303,319.731 307.41,318.761 C306.186,317.429 301.947,320.883 305.721,321.014 C305.213,318.662 304.704,316.311 304.196,313.959 C302.014,315.72 299.601,316.911 298.537,319.664 C298.186,320.572 298.622,321.852 299.619,322.157 C303.419,323.323 307.015,321.981 310.048,319.562 C313.455,316.844 313.628,312.715 308.523,312.507 C304.36,312.337 297.35,313.672 296.095,318.607 C294.866,323.441 298.847,326.534 302.575,328.771 C305.149,326.246 307.723,323.72 310.298,321.195 C301.608,318.106 292.444,317.495 283.64,314.924 C282.804,317.482 281.968,320.039 281.132,322.597 C285.301,321.727 289.404,320.519 293.544,319.512 C298.052,318.415 302.771,317.933 307.095,316.224 C308.225,315.776 309.782,313.907 308.099,313.074 L308.099,313.074 Z" id="Shape"></path>
                    <path d="M307.22,337.244 C300.982,335.098 294.094,334.974 287.544,334.667 C279.44,334.286 271.146,335.026 263.223,336.731 C261.236,337.159 254.908,341.453 258.51,343.919 C271.341,352.699 287.168,357.903 302.162,361.614 C305.589,362.463 312.445,358.971 310.808,354.694 C308.975,349.902 308.466,345.101 308.387,340.005 C308.362,338.38 306.863,337.036 305.273,336.933 C301.972,336.719 298.95,336.924 295.696,337.542 C292.83,338.087 289.802,339.601 286.869,339.603 C280.986,339.609 275.547,348.74 283.864,348.732 C287.136,348.729 290.407,348.599 292.899,346.15 C296.958,342.162 290.826,339.607 286.869,339.603 C280.983,339.597 275.547,348.724 283.864,348.732 C289.142,348.737 294.107,345.569 299.379,345.921 C298.341,344.897 297.303,343.872 296.265,342.849 C296.342,348.646 297.162,354.276 299.325,359.679 C302.207,357.372 305.089,355.066 307.971,352.759 C293.912,349.458 279.484,344.54 267.127,336.958 C265.857,339.556 264.588,342.153 263.318,344.751 C277.257,341.21 291.972,343.855 305.767,340.215 C306.647,339.983 309.203,337.926 307.22,337.244 L307.22,337.244 Z" id="Shape"></path>
                    <path d="M277.272,342.493 C273.314,349.359 293.667,353.706 297.499,355.095 C300.417,356.153 309.105,352.534 305.224,348.857 C303.091,346.836 302.899,344.251 299.814,343.428 C298.012,342.948 295.335,343.967 294.141,345.339 C291.042,348.896 293.259,352.171 296.689,354.552 C298.921,352.368 301.153,350.185 303.385,348.001 C299.184,347.378 295.105,346.464 290.987,345.37 C287.236,344.374 283.74,342.076 280.009,341.306 C279.066,341.111 277.758,341.648 277.272,342.493 L277.272,342.493 Z" id="Shape"></path>
                    <path d="M305.09,372.928 C299.416,366.715 289.035,363.652 280.915,362.86 C278.097,362.585 270.099,365.987 273.831,369.792 C280.193,376.276 287.619,381.485 294.643,387.205 C298.417,390.28 308.644,385.132 304.526,380.609 C301.401,377.176 299.159,373.216 297.05,369.105 C295.171,371.346 293.293,373.587 291.414,375.829 C295.018,375.227 298.574,374.741 302.23,374.652 C307.893,374.514 313.322,365.856 305.16,365.756 C300.288,365.696 295.494,365.047 290.782,363.812 C289.85,366.662 288.919,369.511 287.987,372.361 C291.289,371.881 294.068,372.494 296.926,374.157 C296.39,372.921 295.853,371.684 295.317,370.447 C293.864,375.146 292.33,380.769 294.477,385.438 C296.269,389.332 304.08,386.551 304.727,383 C305.533,378.587 305.226,374.315 306.592,369.962 C307.113,368.304 306.398,367.083 304.983,366.252 C299.621,363.103 293.876,363.088 287.887,363.939 C283.69,364.536 279.094,370.891 285.092,372.488 C290.697,373.98 296.441,374.562 302.23,374.653 C303.207,371.687 304.183,368.722 305.16,365.757 C300.494,365.856 295.91,366.567 291.312,367.319 C288.845,367.723 284.099,370.932 285.676,374.043 C288.103,378.829 290.897,383.334 294.642,387.207 C297.936,385.009 301.231,382.81 304.525,380.611 C297.27,375.042 289.572,370.011 282.86,363.766 C280.918,366.102 278.974,368.438 277.031,370.773 C285.828,370.526 293.691,375.669 302.406,376.155 C303.756,376.228 306.454,374.422 305.09,372.928 L305.09,372.928 Z" id="Shape"></path>
                    <path d="M388.776,359.304 C372.474,365.866 372.385,390.943 375.974,405.174 C378.897,416.763 386.472,425.572 392.575,435.533 C400.292,448.131 400.03,462.701 399.766,476.968 C402.409,475.233 405.051,473.497 407.694,471.762 C396.933,471.096 374.164,477.589 376.999,492.29 C380.648,511.209 407.833,504.607 418.808,497.502 C420.645,496.313 422.746,493.818 421.724,491.463 C420.35,488.297 416.031,489.229 413.571,490.051 C411.131,490.866 408.175,493.216 407.612,495.834 C406.283,502.009 414.988,499.875 417.581,497.561 C417.742,497.417 417.902,497.275 418.062,497.131 C416.607,497.917 415.152,498.702 413.697,499.488 C414.867,499.13 416.045,498.84 417.186,498.383 C415.44,495.899 413.695,493.416 411.949,490.932 C405.336,495.805 392.519,498.909 388.31,489.578 C385.052,482.356 399.347,479.583 403.774,479.748 C406.442,479.847 410.476,477.466 410.435,474.466 C410.265,462.007 410.599,449.734 405.982,437.924 C401.859,427.379 393.311,419.094 388.347,408.947 C384.61,401.308 383.103,392.802 382.996,384.356 C382.901,376.875 384.017,366.642 390.418,361.638 C392.349,360.129 390.809,358.486 388.776,359.304 L388.776,359.304 Z" id="Shape"></path>
                    <path d="M139.629,198.508 C143.175,200.005 147.615,199.683 151.384,199.614 C156.694,199.517 161.976,199.279 167.289,199.414 C172.701,199.553 178.084,200.135 183.404,201.123 C188.152,202.004 192.572,204.314 197.298,205.032 C200.277,205.485 207.955,201.868 204.397,198.088 C201.121,194.608 194.834,193.757 190.351,192.891 C184.649,191.788 178.786,191.457 172.992,191.268 C162.62,190.928 149.379,190.369 140.049,195.647 C139.094,196.187 138.226,197.917 139.629,198.508 L139.629,198.508 Z" id="Shape"></path>
                    <path d="M246.777,230.524 C252.889,227.979 258.633,224.421 264.723,221.756 C271.864,218.631 279.341,216.375 286.99,214.898 C294.544,213.439 302.331,213.298 309.893,214.715 C317.182,216.082 322.902,221.122 329.919,222.641 C331.443,222.971 333.934,221.61 333.44,219.824 C331.596,213.164 320.949,210.436 315.105,209.053 C306.813,207.088 298.091,207.57 289.741,208.809 C281.335,210.057 273.153,212.771 265.331,216.033 C258.214,219 249.99,222.759 244.467,228.285 C242.649,230.102 245.09,231.225 246.777,230.524 L246.777,230.524 Z" id="Shape"></path>
                    <path d="M250.095,242.678 C259.984,244.453 269.897,244.957 279.426,248.483 C284.454,250.343 289.114,252.825 293.371,256.09 C297.593,259.326 300.869,263.543 305.342,266.434 C306.988,267.498 310.053,265.522 309.594,263.615 C307.119,253.329 293.927,246.524 284.799,243.211 C274.26,239.386 261.967,238.512 250.923,240.147 C249.767,240.317 248.234,242.343 250.095,242.678 L250.095,242.678 Z" id="Shape"></path>
                    <path d="M316.047,238.266 C314.418,237.659 314.077,237.634 315.027,238.194 C315.575,238.447 315.798,238.369 316.394,238.419 C317.448,238.506 318.452,238.63 319.488,238.866 C321.469,239.317 323.527,240.21 325.085,241.524 C326.799,239.847 328.512,238.17 330.226,236.495 C327.961,235.918 325.38,236.376 323.195,235.655 C321.351,235.047 319.467,235.372 317.844,236.455 C316.461,237.377 314.736,239.638 316.365,241.171 C317.872,242.589 319.342,243.832 320.746,245.382 C322.805,247.656 326.84,247.401 328.928,245.349 C332.787,241.557 325.743,235.933 322.286,235.379 C320.854,237.562 319.423,239.745 317.991,241.928 C320.822,242.487 323.677,241.747 326.497,242.181 C329.136,242.587 334.651,239.156 331.015,236.735 C327.433,234.351 316.7,230.908 314.001,236.246 C313.264,237.703 314.567,238.744 316.047,238.266 L316.047,238.266 Z" id="Shape"></path>
                </g>
            </g>
        </g>
    </g>
</svg>