<?xml version="1.0" encoding="UTF-8"?>
<svg width="301px" height="534px" viewBox="0 0 301 534" version="1.1" xmlns="http://www.w3.org/2000/svg" xmlns:xlink="http://www.w3.org/1999/xlink">
    <!-- Generator: Sketch 41 (35326) - http://www.bohemiancoding.com/sketch -->
    <title>toilet</title>
    <desc>Created with Sketch.</desc>
    <defs></defs>
    <g id="Page-1" stroke="none" stroke-width="1" fill="none" fill-rule="evenodd">
        <g id="Layer_1" transform="translate(-1725.000000, -778.000000)" fill="#010101">
            <g id="Layer_1_3_">
                <g id="toilet" transform="translate(1725.000000, 778.000000)">
                    <path d="M147.279,3.548 C125.027,5.023 100.779,7.368 82.275,21.124 C63.35,35.192 54.616,56.862 50.555,79.4 C46.408,102.417 46.67,125.988 46.658,149.285 C46.647,170.069 53.052,190.242 67.235,205.696 C93.154,233.936 136.736,239.67 173.107,238.741 C190.921,238.285 209.427,235.408 225.24,226.78 C232.463,222.839 238.838,217.322 243.582,210.593 C249.176,202.663 251.248,193.585 252.594,184.138 C256.788,154.645 254.363,124.506 251.857,94.979 C249.909,72.021 249.213,49.106 234.516,30.145 C207.866,-4.237 152.773,-3.572 115.105,7.593 C113.347,8.114 112.114,11.78 114.784,11.43 C155.735,6.081 211.802,1.21 235.486,43.779 C241.148,53.955 243.439,65.267 244.397,76.757 C245.678,92.128 247.153,107.483 248.124,122.877 C249.095,138.294 249.462,153.759 248.566,169.19 C247.878,181.015 247.069,193.929 241.558,204.651 C233.266,220.782 214.467,227.848 197.687,230.96 C179.907,234.256 161.455,233.845 143.551,231.855 C123.13,229.584 102.946,224.588 85.571,213.227 C67.976,201.72 56.611,183.59 53.166,162.941 C50.509,147.01 51.759,129.797 52.312,113.717 C52.941,95.471 54.684,77.021 60.182,59.529 C65.745,41.834 76.807,26.585 93.343,17.797 C109.632,9.141 128.998,7.598 146.953,5.08 C147.757,4.965 148.411,3.473 147.279,3.548 L147.279,3.548 Z" id="Shape"></path>
                    <path d="M160.019,46.382 C139.761,43.507 119.753,50.315 106.72,66.358 C99.152,75.672 95.398,87.675 92.62,99.16 C89.015,114.071 89.084,129.662 90.828,144.817 C92.063,155.543 93.476,165.703 99.646,174.838 C104.952,182.694 113.435,187.846 122.039,191.364 C141.517,199.328 163.65,200.848 182.499,190.491 C214.532,172.887 224.141,128 216.928,94.685 C213.637,79.477 205.871,65.836 192.561,57.339 C177.529,47.744 158.595,47.377 141.857,51.664 C139.831,52.183 138.568,56.124 141.502,55.905 C160.769,54.463 181.392,55.298 195.968,69.615 C209.643,83.046 213.017,103.513 212.406,121.875 C211.696,143.24 204.91,165.632 188.338,180.035 C170.847,195.239 146.543,193.887 126.11,185.99 C113.991,181.306 104.344,173.151 100.006,160.683 C97.254,152.774 96.818,143.67 96.122,135.391 C95.251,125.017 95.581,114.581 97.248,104.306 C99.82,88.443 105.373,71.92 117.936,61.24 C129.276,51.597 144.772,48.899 159.215,48.729 C160.283,48.716 161.497,46.592 160.019,46.382 L160.019,46.382 Z" id="Shape"></path>
                    <path d="M91.805,39.046 C88.544,39.476 85.642,41.682 83.812,44.336 C82.762,45.858 82.14,47.621 81.812,49.429 C81.562,50.809 81.03,54.197 82.596,54.974 C87.496,57.412 93.349,57.544 97.537,53.634 C100.698,50.684 102.153,45.882 99.66,42.092 C98.567,40.43 96.38,39.643 94.492,39.472 C92.907,39.329 91.446,39.662 89.939,40.118 C88.766,40.472 87.376,41.196 86.225,42.79 C85.812,43.359 85.558,44.417 86.363,44.812 C86.868,45.059 87.478,45.313 88.056,45.239 C88.675,45.239 88.737,45.176 88.243,45.053 C88.825,45.324 89.359,45.303 89.979,45.248 C91.017,45.156 92.146,45.244 93.159,45.494 C94.538,45.834 94.994,46.975 94.994,48.294 C94.994,49.413 94.197,50.371 93.237,50.925 C91.29,52.047 88.211,51.284 86.049,50.415 C86.342,50.896 86.634,51.378 86.927,51.859 C86.489,49.67 86.434,47.632 87.422,45.588 C88.395,43.574 90.557,42.454 92.267,41.182 C93.059,40.594 93.134,38.872 91.805,39.046 L91.805,39.046 Z" id="Shape"></path>
                    <path d="M215.001,40.367 C211.09,41.26 207.526,43.057 205.555,46.795 C203.676,50.358 204.368,54.276 207.534,56.764 C211.431,59.828 216.801,57.858 220.118,54.901 C223.265,52.094 226.193,47.132 224.521,42.827 C222.373,37.293 212.452,37.759 208.964,41.327 C208.246,42.061 207.766,43.194 208.763,43.915 C210.48,45.154 213.197,44.386 215.234,44.777 C216.781,45.074 217.71,45.33 218.382,46.159 C218.214,45.95 218.698,47.055 218.612,46.598 C218.667,46.888 218.673,47.186 218.675,47.48 C218.677,47.932 218.757,47.077 218.609,47.873 C218.58,48.029 218.263,49.03 218.529,48.283 C218.414,48.607 218.267,48.919 218.118,49.229 C217.719,50.056 218.202,49.174 217.9,49.643 C217.703,49.95 217.481,50.24 217.255,50.527 C217.163,50.646 216.544,51.336 217.153,50.687 C216.9,50.956 216.626,51.203 216.353,51.451 C216.225,51.567 215.27,52.287 216.008,51.768 C215.715,51.974 215.403,52.153 215.088,52.327 C214.633,52.577 215.461,52.221 214.644,52.515 C214.514,52.563 213.498,52.777 214.149,52.668 C213.354,52.8 213.493,52.801 212.583,52.588 C211.384,52.306 209.781,50.71 209.571,49.044 C209.234,46.38 212.822,43.148 215.109,42.38 C216.299,41.981 216.598,40.001 215.001,40.367 L215.001,40.367 Z" id="Shape"></path>
                    <path d="M87.352,187.524 C80.289,188.952 78.482,201.138 85.943,203.122 C90.502,204.334 94.924,199.719 96.904,196.206 C99.109,192.294 98.142,187.307 93.166,186.646 C90.151,186.246 84.194,187.24 83.434,190.792 C82.932,193.135 85.924,192.864 87.323,192.784 C88.019,192.744 88.715,192.682 89.41,192.642 C89.709,192.624 90.011,192.628 90.308,192.622 C90.665,192.627 90.679,192.627 90.349,192.623 C90.51,192.638 90.669,192.66 90.828,192.687 C91.045,192.72 91.258,192.78 91.469,192.839 C90.81,192.651 91.355,192.827 91.507,192.906 C91.683,192.998 92.086,193.368 91.516,192.871 C91.678,193.012 91.807,193.184 91.928,193.36 C91.39,192.583 91.992,194.189 91.846,193.255 C91.871,193.421 91.874,193.589 91.877,193.757 C91.887,194.236 91.989,193.091 91.856,193.893 C91.825,194.079 91.776,194.26 91.728,194.443 C91.551,195.111 91.988,193.766 91.734,194.426 C91.561,194.877 91.335,195.309 91.099,195.73 C91.584,194.865 90.754,196.179 90.563,196.419 C90.433,196.583 89.909,197.148 90.6,196.414 C90.404,196.623 90.192,196.817 89.979,197.009 C89.822,197.151 89.656,197.28 89.49,197.409 C90.263,196.806 89.719,197.24 89.527,197.361 C89.358,197.466 89.18,197.559 89.003,197.65 C89.835,197.224 89.085,197.601 88.858,197.671 C88.233,197.868 89.517,197.581 88.879,197.673 C88.69,197.7 87.915,197.648 88.682,197.712 C88.502,197.697 88.328,197.654 88.155,197.611 C88.779,197.765 88.081,197.55 87.915,197.459 C87.47,197.208 87.786,197.439 87.303,196.883 C86.756,196.255 86.407,195.528 86.107,194.756 C85.195,192.407 87.128,190.802 88.283,189.044 C88.853,188.178 88.429,187.305 87.352,187.524 L87.352,187.524 Z" id="Shape"></path>
                    <path d="M219.438,190.436 C214.796,191.083 210.999,193.469 208.816,197.723 C207.331,200.617 207.566,204.628 209.811,207.073 C213.159,210.717 219.214,208.898 222.706,206.503 C226.602,203.832 230.459,198.968 228.536,193.981 C227.555,191.433 225.039,189.807 222.626,188.823 C218.348,187.077 212.598,186.126 208.288,188.062 C207.434,188.446 206.293,190.206 207.251,191.04 C208.678,192.282 210.378,192.034 211.922,192.897 C213.215,193.621 215.18,193.713 216.616,194.121 C218.558,194.671 220.601,195.62 221.752,196.901 C222.449,197.676 222.491,198.479 222.369,199.055 C222.26,199.58 222.62,198.535 222.256,199.391 C222.176,199.58 221.605,200.534 222.12,199.718 C221.932,200.014 221.715,200.291 221.495,200.565 C221.225,200.875 221.266,200.839 221.619,200.46 C221.431,200.66 221.229,200.847 221.028,201.033 C220.172,201.827 219.419,202.274 218.388,202.641 C218.058,202.76 217.716,202.849 217.374,202.932 C218.15,202.744 217.104,202.945 216.939,202.958 C216.135,203.029 216.956,203.015 216.504,202.973 C216.32,202.956 215.23,202.665 215.848,202.882 C214.562,202.431 214.251,201.814 213.779,200.342 C212.783,197.245 216.782,193.863 219.236,192.834 C220.189,192.435 221.197,190.189 219.438,190.436 L219.438,190.436 Z" id="Shape"></path>
                    <path d="M48.049,270.995 C48.826,264.501 55.363,261.038 60.656,258.447 C68.497,254.608 77.256,252.378 85.719,250.41 C101.362,246.774 117.374,244.785 133.367,243.538 C160.354,241.435 187.61,239.866 214.596,242.765 C226.92,244.09 239.931,246.211 251.284,251.384 C260.426,255.549 270.135,262.644 273.592,272.452 C278.047,285.094 261.222,291.339 252.249,294.556 C239.383,299.168 225.704,301.22 212.198,302.921 C182.594,306.65 152.436,310.512 122.552,309.109 C106.115,308.337 89.96,304.966 74.097,300.745 C70.743,299.85 39.742,291.632 42.784,285.598 C42.819,285.569 42.853,285.536 42.888,285.506 C45.61,282.485 41.031,280.715 38.737,283.262 C29.35,293.68 49.524,300.398 56.546,302.83 C70.609,307.704 85.333,311.184 100.016,313.605 C127.6,318.154 156.87,316.072 184.463,312.556 C209.986,309.305 236.859,308.331 260.67,297.588 C269.76,293.487 279.979,287.162 281.036,276.22 C281.932,266.963 275.217,259.01 268.545,253.501 C250.268,238.408 223.34,236.174 200.606,235.237 C175.312,234.194 149.601,235.547 124.452,238.422 C108.797,240.213 93.134,242.805 77.945,247.053 C66.723,250.192 44.38,256.693 44.522,271.706 C44.542,273.857 47.861,272.554 48.049,270.995 L48.049,270.995 Z" id="Shape"></path>
                    <path d="M195.939,260.732 C168.959,258.229 140.022,259.876 113.756,266.644 C107.373,268.289 101.139,270.525 94.932,272.721 C90.999,274.113 86.493,275.936 83.953,279.423 C77.574,288.194 96.259,290.465 100.576,291.26 C114.605,293.843 129.143,292.791 143.32,292.755 C154.606,292.728 165.882,292.504 177.145,291.772 C198.541,290.378 224.708,288.168 242.354,274.572 C246.615,271.289 246.515,266.52 241.5,264.39 C232.81,260.702 222.244,260.294 212.954,259.771 C191.295,258.549 168.87,259.721 147.555,263.722 C145.466,264.115 143.521,267.768 146.671,267.846 C175.608,268.575 204.579,262.727 233.267,269.335 C234.995,269.733 237.411,270.11 238.803,271.326 C237.801,270.451 239.984,269.383 237.834,270.864 C236.756,271.607 235.584,272.223 234.44,272.858 C229.296,275.709 223.808,277.668 218.168,279.268 C206.276,282.639 193.82,284.009 181.534,284.969 C170.067,285.865 158.555,286.121 147.055,286.163 C132.575,286.215 117.972,287.047 103.604,284.827 C100.308,284.318 96.998,283.675 93.77,282.835 C92.555,282.52 91.472,282.067 90.36,281.509 C88.871,280.76 90.005,280.489 89.23,281.593 C90.307,280.057 93.642,279.15 95.241,278.508 C98.796,277.085 102.462,275.833 106.079,274.579 C119.875,269.795 134.464,267.355 148.936,265.766 C164.346,264.075 179.863,263.991 195.29,262.612 C196.102,262.542 197.16,260.845 195.939,260.732 L195.939,260.732 Z" id="Shape"></path>
                    <path d="M43.721,301.182 C52.345,311.668 58.944,323.329 65.206,335.328 C70.927,346.285 76.862,356.738 85.736,365.489 C101.907,381.435 124.757,388.386 146.901,390.116 C169.844,391.906 194.14,389.551 215.152,379.771 C235.598,370.254 251.871,353.462 263.234,334.241 C271.359,320.496 276.68,304.937 279.156,289.19 C279.396,287.664 278.774,286.67 277.329,286.2 C274.017,285.117 271.733,285.637 268.891,287.57 C267.446,288.551 266.166,292.008 269.124,291.745 C270.645,291.621 272.106,291.862 273.513,292.469 C273.151,291.558 272.786,290.648 272.425,289.737 C268.591,312.951 258.839,334.607 243.025,352.133 C226.687,370.237 204.709,380.117 180.746,382.821 C157.281,385.467 132.51,384.173 110.916,373.85 C100.315,368.784 91.151,361.258 83.728,352.195 C75.516,342.169 70.101,330.064 62.836,319.369 C57.805,311.962 52.214,305.064 44.531,300.316 C44.092,300.042 43.375,300.761 43.721,301.182 L43.721,301.182 Z" id="Shape"></path>
                    <path d="M106.375,384.505 C116.565,401.847 122.895,421.215 122.775,441.437 C122.715,451.616 120.878,461.803 117.333,471.341 C115.477,476.34 113.041,481.16 110.209,485.675 C107.732,489.623 103.338,493.245 101.559,497.463 C100.489,500 102.249,501.748 104.801,501.158 C107.453,500.545 108.672,497.537 109.121,495.169 C109.385,493.788 108.158,492.866 106.858,493.343 C104.947,494.044 103.548,495.13 102.184,496.623 C103.276,495.988 104.369,495.354 105.46,494.72 C105.42,494.726 105.379,494.734 105.338,494.74 C106.126,496.03 106.915,497.321 107.704,498.611 C108.548,496.736 110.842,494.845 112.105,493.187 C113.746,491.034 115.233,488.754 116.631,486.437 C119.563,481.573 121.964,476.496 123.903,471.159 C127.443,461.427 129.159,451.095 129.255,440.753 C129.443,420 122.558,398.268 107.486,383.712 C107.06,383.297 106.064,383.975 106.375,384.505 L106.375,384.505 Z" id="Shape"></path>
                    <path d="M214.377,380.713 C203.019,399.279 200.678,422.98 203.713,444.17 C206.987,467.037 217.588,488.621 233.801,505.072 C236.244,507.551 241.183,503.737 239.945,500.684 C238.926,498.173 237.717,496.43 235.341,495.086 C233.444,494.013 230.822,496.291 230.944,498.248 C231.093,500.697 232.506,502.186 233.408,504.412 C235.456,502.949 237.504,501.487 239.553,500.025 C224.288,484.523 214.568,464.792 210.74,443.423 C206.912,422.062 210.31,401.64 215.947,381.004 C216.217,380 214.762,380.086 214.377,380.713 L214.377,380.713 Z" id="Shape"></path>
                    <path d="M99.143,505.667 C100.096,510.805 101.216,514.778 105.032,518.685 C109.002,522.748 114.217,525.456 119.464,527.472 C132.909,532.64 147.801,533.586 162.069,533.365 C177.134,533.131 192.326,531.05 206.84,526.982 C217.374,524.032 229.078,519.675 236.279,511.014 C238.133,508.785 237.447,504.672 233.92,505.091 C230.217,505.53 227.209,506.818 224.394,509.271 C222.564,510.866 222.199,514.709 225.512,514.467 C227.773,514.302 229.881,513.619 232.135,513.421 C231.35,511.446 230.563,509.474 229.777,507.498 C224.617,513.708 213.639,517.081 205.514,519.359 C192.346,523.051 178.559,524.658 164.911,525.037 C151.704,525.403 138.319,524.291 125.584,520.651 C117.441,518.324 105.53,512.942 102.363,504.242 C101.741,502.533 98.872,504.209 99.143,505.667 L99.143,505.667 Z" id="Shape"></path>
                    <path d="M4.609,80.36 C6.169,75.169 6.827,70.729 10.94,66.801 C14.822,63.095 20.114,61.078 25.152,59.53 C35.288,56.418 46.473,55.386 57.044,55.963 C57.794,53.772 58.544,51.579 59.293,49.388 C56.66,49.669 54.227,50.06 51.838,51.201 C50.72,51.735 49.942,53.52 51.165,54.337 C52.898,55.495 54.989,55.731 57.044,55.964 C60.731,56.384 64.299,49.648 60.125,49.427 C46.958,48.733 33.184,50.064 20.803,54.787 C14.775,57.087 9.072,60.465 4.898,65.453 C1.548,69.456 -1.22,76.376 1.427,81.386 C2.267,82.976 4.244,81.576 4.609,80.36 L4.609,80.36 Z" id="Shape"></path>
                    <path d="M245.008,59.072 C248.053,61.288 253.514,60.784 257.117,60.97 C261.78,61.212 266.436,61.701 271.006,62.672 C281.402,64.882 289.038,70.998 292.071,81.329 C293.144,84.988 299.22,81.364 298.789,78.358 C298.358,75.359 297.184,74.083 294.294,73.213 C293.012,72.828 291.235,74.26 291.098,75.52 C290.857,77.709 291.613,78.496 291.912,80.562 C294.151,79.572 296.391,78.581 298.631,77.59 C295.475,66.917 287.848,60.213 277.338,57.093 C272.244,55.581 266.853,55.148 261.568,54.944 C256.488,54.748 250.159,54.342 245.509,56.723 C244.66,57.161 244.114,58.42 245.008,59.072 L245.008,59.072 Z" id="Shape"></path>
                    <path d="M5.044,92.976 C17.171,82.372 35.79,85.77 50.671,85.857 C51.143,83.652 51.615,81.448 52.088,79.244 C48.871,79.474 45.9,80.21 44.334,83.226 C43.674,84.5 44.484,85.565 45.796,85.616 C47.145,85.668 48.491,85.748 49.839,85.819 C53.932,86.035 57.241,79.263 52.088,79.244 C42.385,79.207 32.694,78.409 23.026,79.628 C15.519,80.575 4.328,83.409 2.201,91.963 C1.738,93.828 4.053,93.842 5.044,92.976 L5.044,92.976 Z" id="Shape"></path>
                    <path d="M249.168,88.551 C252.205,89.49 255.848,89.161 258.991,89.257 C263.912,89.407 268.838,89.404 273.76,89.515 C278.297,89.619 282.836,89.646 287.372,89.747 C289.807,89.802 292.85,90.393 295.143,89.382 C297.081,88.528 299.395,85.758 296.986,84.023 C295.165,82.71 291.755,83.26 289.625,83.211 C285.19,83.11 280.757,83.039 276.32,82.991 C271.346,82.936 266.315,82.907 261.348,83.203 C257.645,83.425 253.437,83.399 249.958,84.862 C248.564,85.45 246.946,87.865 249.168,88.551 L249.168,88.551 Z" id="Shape"></path>
                    <path d="M5.363,99.937 C2.202,107.051 4.047,116.437 5.009,123.888 C6.208,133.181 8.371,142.359 10.401,151.496 C13.776,166.7 17.951,182.145 24.916,196.136 C31.038,208.436 39.673,218.794 53.098,222.87 C63.801,226.12 76.997,224.763 86.23,231.754 C88.824,233.719 92.558,229.131 90.97,226.668 C88.718,223.173 84.094,221.99 80.285,221.03 C74.403,219.548 68.298,218.987 62.347,217.839 C56.125,216.638 49.687,214.801 44.872,210.485 C39.213,205.41 34.935,199.122 31.455,192.409 C24.557,179.101 20.713,164.04 17.317,149.519 C15.171,140.336 12.963,131.169 11.195,121.905 C10.415,117.813 9.721,113.717 9.059,109.606 C8.51,106.195 8.361,102.547 6.534,99.551 C6.249,99.087 5.502,99.624 5.363,99.937 L5.363,99.937 Z" id="Shape"></path>
                    <path d="M296.193,93.241 C296.665,93.306 294.22,99.528 294.002,100.131 C292.639,103.884 292.269,107.62 291.754,111.569 C290.528,120.95 289.223,130.319 288.254,139.732 C287.051,151.424 285.528,163.013 282.652,174.432 C279.87,185.481 275.716,196.455 268.8,205.607 C265.587,209.857 261.604,213.389 256.983,216.032 C251.671,219.069 245.419,219.853 239.652,221.544 C237.992,222.031 236.306,225.091 238.759,225.71 C251.034,228.806 264.106,219.632 271.918,210.872 C281.044,200.639 285.968,186.953 289.356,173.89 C293.127,159.351 294.234,144.567 295.734,129.683 C296.738,119.736 296.579,108.754 299.21,99.113 C299.786,97.003 300.921,94.107 299.454,92.152 C298.507,90.887 296.975,91.783 296.15,92.587 C295.983,92.748 295.823,93.189 296.193,93.241 L296.193,93.241 Z" id="Shape"></path>
                    <path d="M84.123,233.344 C85.202,235.608 86.373,237.742 87.114,240.163 C87.46,241.293 87.665,242.595 87.487,243.769 C87.35,244.671 86.403,245.465 86.038,246.309 C85.26,248.113 86.069,250.29 88.331,250.059 C93.29,249.55 95.428,244.108 94.321,239.767 C93.425,236.243 90.768,232.027 87.312,230.544 C85.865,229.926 83.315,231.65 84.123,233.344 L84.123,233.344 Z" id="Shape"></path>
                    <path d="M235.029,226.807 C233.05,229.531 230.862,233.151 231.617,236.613 C231.909,237.953 233.752,238.09 234.771,237.763 C236.177,237.314 237.36,236.101 237.696,234.654 C237.986,233.407 237.777,232.164 237.892,230.901 C237.996,229.763 238.503,228.614 238.822,227.524 C239.562,224.988 236.01,225.458 235.029,226.807 L235.029,226.807 Z" id="Shape"></path>
                </g>
            </g>
        </g>
    </g>
</svg>