<?xml version="1.0" encoding="UTF-8"?>
<svg width="558px" height="490px" viewBox="0 0 558 490" version="1.1" xmlns="http://www.w3.org/2000/svg" xmlns:xlink="http://www.w3.org/1999/xlink">
    <!-- Generator: Sketch 41 (35326) - http://www.bohemiancoding.com/sketch -->
    <title>tomato</title>
    <desc>Created with Sketch.</desc>
    <defs></defs>
    <g id="Page-1" stroke="none" stroke-width="1" fill="none" fill-rule="evenodd">
        <g id="Layer_1" transform="translate(-4799.000000, -4051.000000)" fill="#000000">
            <g id="Layer_1_3_">
                <g id="tomato" transform="translate(4799.000000, 4051.000000)">
                    <path d="M143.925,210.608 C149.533,203.164 154.722,195.488 160.997,188.557 C168.035,180.782 176.434,174.189 185.195,168.48 C201.27,158.004 220.543,148.215 239.886,146.043 C243.23,145.667 246.376,143.066 247.093,139.718 C247.732,136.74 245.572,133.929 242.39,134.358 C237.933,134.96 234.63,137.148 233.194,141.502 C232.462,143.723 234.461,145.151 236.4,145.154 C233.628,145.15 237.681,145.887 238.417,145.975 C239.225,142.207 240.031,138.439 240.839,134.67 C219.247,140.236 199.233,148.419 181.052,161.57 C171.929,168.169 163.621,175.894 156.248,184.394 C149.896,191.716 143.662,200.511 141.889,210.223 C141.639,211.596 143.351,211.371 143.925,210.608 L143.925,210.608 Z" id="Shape"></path>
                    <path d="M143.672,209.877 C156.707,200.369 169.639,188.604 184.495,183.105 C196.002,178.845 207.874,175.546 219.535,171.739 C232.06,167.648 244.658,163.301 256.342,157.137 C262.312,153.99 278.528,143.891 271.843,135.297 C269.17,131.861 263.949,135.635 262.576,138.336 C262.258,138.947 262.32,138.854 262.763,138.055 C262.324,138.625 261.974,139.241 261.712,139.903 C260.104,143.647 262.152,139.374 261.057,141.606 C261.802,140.088 260.746,141.942 260.464,142.287 C261.475,141.057 259.407,143.222 259.039,143.534 C256.321,145.834 251.069,148.577 246.916,150.577 C235.191,156.224 222.711,160.438 210.451,164.748 C200.097,168.388 189.626,171.831 179.585,176.288 C164.647,182.92 151.666,195.689 142.178,208.692 C141.275,209.929 142.653,210.623 143.672,209.877 L143.672,209.877 Z" id="Shape"></path>
                    <path d="M268.981,141.006 C282.758,144.63 289.52,155.594 295.856,167.491 C301.985,179 307.013,190.127 317.637,198.272 C328.143,206.328 342.944,208.404 355.7,206.171 C367.675,204.075 382.923,197.44 387.651,185.393 C388.714,182.687 386.346,181.137 383.943,182.416 C379.034,185.028 374.672,188.476 369.725,191.077 C364.37,193.894 358.505,195.374 352.5,195.856 C339.749,196.882 327.412,191.95 319.003,182.367 C304.662,166.023 298.07,134.386 270.871,135.476 C268.321,135.581 265.545,140.102 268.981,141.006 L268.981,141.006 Z" id="Shape"></path>
                    <path d="M300.27,128.194 C303.043,133.385 306.718,137.825 309.033,143.311 C311.485,149.122 312.879,155.364 314.953,161.312 C318.204,170.639 322.977,179.849 330.39,186.545 C336.832,192.365 344.981,195.474 353.586,196.086 C358.562,196.44 363.501,195.995 368.401,195.123 C374.342,194.066 380.975,192.871 385.532,188.665 C386.837,187.461 387.765,184.474 385.238,184.01 C380.23,183.088 375.117,185.591 370.239,186.547 C365.755,187.425 361.093,187.866 356.528,187.544 C348.5,186.979 341.334,183.593 335.666,177.925 C328.81,171.068 324.53,161.972 321.114,153.027 C317.326,143.109 312.626,131.124 302.111,126.579 C301.302,126.229 299.755,127.23 300.27,128.194 L300.27,128.194 Z" id="Shape"></path>
                    <path d="M305.239,115.264 C311.201,118.21 319.274,118.233 325.744,119.806 C333.884,121.785 341.658,124.598 349.184,128.28 C356.635,131.926 363.635,136.604 369.95,141.971 C375.768,146.916 380.786,153.715 387.318,157.657 C389.138,158.755 391.258,156.257 390.857,154.552 C388.994,146.622 381.788,139.911 375.809,134.829 C369.36,129.348 362.212,124.828 354.629,121.093 C347.028,117.35 338.885,114.752 330.621,112.951 C323.192,111.332 313.444,109.955 306.141,112.639 C305.313,112.943 303.917,114.612 305.239,115.264 L305.239,115.264 Z" id="Shape"></path>
                    <path d="M304.478,134.073 C307.981,138.23 317.439,137.205 322.383,137.579 C329.417,138.111 336.448,139.006 343.391,140.253 C350.57,141.542 357.629,143.484 364.496,145.931 C372.002,148.605 378.959,152.526 386.912,153.737 C388.497,153.978 390.643,151.944 389.457,150.401 C384.638,144.138 377.23,141.31 370.038,138.616 C363.101,136.018 355.927,134.148 348.661,132.74 C341.374,131.327 333.988,130.603 326.579,130.267 C319.9,129.964 310.771,128.689 304.964,132.677 C304.553,132.959 304.062,133.578 304.478,134.073 L304.478,134.073 Z" id="Shape"></path>
                    <path d="M179.706,125.218 C159.161,117.377 134.343,123.736 114.624,131.414 C91.735,140.327 70.888,154.084 53.287,171.174 C36.018,187.943 21.922,208.065 13.627,230.737 C4.203,256.495 -0.451,283.903 1.077,311.337 C2.561,337.985 10.568,364.146 24.431,386.941 C38.14,409.487 56.91,428.698 77.88,444.562 C118.841,475.547 170.351,490.502 221.406,489.952 C249.186,489.652 276.122,482.464 303.594,479.295 C310.403,478.51 318.547,466.782 308.827,463.995 C305.994,463.183 303.045,463.426 300.132,463.048 C294.555,462.325 284.841,472.276 292.361,475.819 C295.328,477.217 298.506,478.301 301.658,479.206 C303.402,474.106 305.147,469.006 306.891,463.906 C276.256,467.435 246.526,475.178 215.476,474.499 C190.396,473.95 165.104,468.817 141.682,459.891 C94.073,441.746 49.904,405.441 29.314,358.087 C18.82,333.952 15.191,307.107 17.441,280.962 C19.57,256.212 26.263,230.382 39.346,209.07 C63.688,169.414 106.697,140.551 152.659,133.36 C160.901,132.07 169.121,131.226 177.379,130.136 C179.019,129.921 182.547,126.303 179.706,125.218 L179.706,125.218 Z" id="Shape"></path>
                    <path d="M103.094,189.335 C88.077,195.051 63.965,212.606 75.539,231.323 C83.11,243.568 97.109,248.719 109.187,239.591 C118.307,232.699 123.466,220.016 122.389,208.716 C121.142,195.636 106.857,185.151 94.938,193.737 C93.394,194.849 91.875,198.243 93.631,199.835 C97.058,202.937 101.338,202.101 105.142,204.292 C107.58,205.698 109.284,208.79 109.787,211.425 C110.55,215.429 110.03,218.731 108.896,222.572 C108.646,223.421 107.474,225.967 106.706,227.393 C106.287,228.168 106.606,227.619 105.795,228.77 C105.533,229.143 103.615,231.322 104.495,230.424 C102.773,232.18 103.289,231.709 101.477,232.68 C102.548,232.106 100.501,233.005 100.215,233.089 C100.854,232.901 98.657,233.234 98.15,233.239 C94.718,233.276 90.511,229.732 87.95,227.011 C82.086,220.784 82.455,214.824 87.484,208.286 C91.981,202.439 98.702,197.603 104.629,193.28 C106.559,191.875 105.809,188.303 103.094,189.335 L103.094,189.335 Z" id="Shape"></path>
                    <path d="M59.784,244.231 C48.987,249.228 42.117,260.603 37.768,271.187 C33.391,281.837 30.401,293.307 28.509,304.655 C25.852,320.594 28.384,336.811 45.46,342.532 C55.074,345.754 65.752,345.61 75.76,345.007 C85.672,344.41 95.592,342.433 104.5,337.937 C124.298,327.944 125.858,305.024 116.858,286.844 C111.266,275.551 102.427,265.691 92.533,257.996 C83.848,251.241 71.621,243.714 60.215,246.9 C56.026,248.07 52.123,255.502 58.027,257.111 C62.333,258.286 66.615,258.761 70.765,260.55 C76.036,262.822 80.917,266.158 85.314,269.818 C93.768,276.856 101.311,285.763 105.992,295.759 C109.502,303.257 112.519,314.757 107.543,322.302 C103.228,328.847 94.07,330.982 86.839,332.144 C76.768,333.762 65.92,334.061 55.893,332.073 C49.386,330.783 43.628,327.628 41.171,321.221 C38.413,314.033 40.046,305.162 41.369,297.856 C43.496,286.121 46.348,274.261 51.24,263.354 C54.01,257.179 57.738,252.008 62.215,247.001 C63.979,245.03 61.769,243.312 59.784,244.231 L59.784,244.231 Z" id="Shape"></path>
                    <path d="M253.795,119.22 C260.683,120.58 260.213,109.366 258.865,105.595 C255.736,96.839 248.454,89.283 241.946,82.93 C233.852,75.03 224.97,67.885 215.814,61.258 C209.961,57.023 203.522,52.026 196.637,49.574 C197.183,50.945 197.729,52.317 198.275,53.689 C198.054,54.122 197.834,54.554 197.612,54.988 C196.382,55.872 195.151,56.757 193.921,57.641 C194.854,57.344 195.713,56.939 196.557,56.449 C199.386,54.804 202.181,48.848 197.261,47.848 C192.238,46.827 188.129,50.924 188.036,55.757 C188.003,57.496 189.375,58.599 190.892,59.013 C195.427,60.248 202.353,64.822 207.209,67.984 C215.484,73.375 223.422,79.315 230.933,85.726 C237.756,91.551 244.614,97.867 249.817,105.221 C251.531,107.644 253.107,110.523 253.538,113.499 C253.77,115.107 253.364,118.489 253.389,118.756 C253.412,118.995 253.557,119.173 253.795,119.22 L253.795,119.22 Z" id="Shape"></path>
                    <path d="M257.696,12.754 C254.738,12.349 252.323,11.294 249.28,11.064 C244.969,10.737 240.806,10.783 236.506,11.218 C227.543,12.126 218.586,13.906 210.022,16.71 C202.067,19.314 194.329,23.194 187.986,28.709 C182.129,33.801 175.088,44.305 180.179,51.98 C184.604,58.649 196.073,56.897 202.7,56.055 C210.131,55.11 217.442,52.333 224.252,49.334 C237.407,43.539 259.3,31.834 256.871,14.3 C256.478,11.471 255.103,10.165 252.475,9.291 C246.774,7.395 241.454,8.059 236.945,12.205 C234.571,14.389 232.707,18.939 236.262,21.039 C239.051,22.685 242.278,23.441 245.347,24.412 C243.881,22.743 242.416,21.073 240.951,19.403 C241.279,21.546 241.254,21.538 240.271,23.424 C240.723,22.557 238.97,25.01 238.707,25.32 C239.119,24.833 236.978,26.887 236.597,27.22 C232.23,31.027 226.82,33.79 221.546,36.29 C216.842,38.519 211.819,40.253 206.776,41.528 C205.635,41.817 201.505,42.335 198.91,42.527 C197.224,42.651 193.472,42.721 192.616,41.971 C192.335,41.724 192.964,39.425 193.693,38.283 C195.044,36.169 196.838,34.552 198.769,32.982 C203.751,28.932 210.658,26.701 216.679,24.801 C223.3,22.712 230.109,21.325 236.976,20.35 C240.206,19.891 243.407,19.314 246.63,18.812 C249.828,18.313 253.013,17.227 256.212,17.087 C258.143,17.006 260.465,13.133 257.696,12.754 L257.696,12.754 Z" id="Shape"></path>
                    <path d="M248.431,23.38 C241.788,39.6 245.549,57.776 252.462,73.279 C256.059,81.344 261.131,88.747 266.479,95.738 C269.263,99.378 272.237,102.87 275.26,106.311 C276.612,107.849 277.987,109.37 279.359,110.89 C280.62,112.287 283.681,114.506 284.1,116.384 C284.219,114.929 284.338,113.474 284.458,112.02 C284.406,112.114 284.354,112.208 284.302,112.301 C287.056,110.697 289.809,109.091 292.563,107.487 C292.758,107.554 290.584,106.756 290.358,106.693 C286.243,105.567 278.471,112.945 282.854,116.529 C283.775,117.282 284.674,118.16 285.733,118.711 C289.368,120.602 293.721,117.585 295.317,114.357 C297.19,110.565 295.268,107.964 292.588,105.417 C289.24,102.232 285.975,98.972 282.796,95.618 C276.572,89.052 270.802,82.061 265.797,74.518 C260.854,67.07 256.969,59.17 254.568,50.546 C252.071,41.581 252.218,32.327 251.499,23.132 C251.356,21.311 248.896,22.246 248.431,23.38 L248.431,23.38 Z" id="Shape"></path>
                    <path d="M299.573,431.677 C322.022,445.661 350.686,436.083 373.353,427.211 C385.374,422.507 397.469,417.911 409.084,412.259 C420.613,406.648 431.42,399.708 441.742,392.127 C462.29,377.035 479.881,357.939 494.304,336.979 C509.69,314.619 518.465,289.654 520.46,262.58 C521.398,249.852 520.182,237.226 517.57,224.766 C515.062,212.803 509.84,198.588 500.274,190.495 C495.767,186.681 488.982,192.41 490.295,197.618 C491.854,203.801 494.516,209.646 496.539,215.694 C498.703,222.163 500.599,228.651 502.08,235.311 C504.844,247.733 505.151,261.043 503.781,273.658 C500.939,299.82 489.915,322.707 474.438,343.657 C459.615,363.722 441.15,380.951 420.115,394.354 C409.184,401.32 397.632,407.096 385.763,412.265 C373.365,417.665 361.165,423.689 348.262,427.806 C333.007,432.674 316.42,434.483 300.933,429.441 C299.863,429.091 298.434,430.968 299.573,431.677 L299.573,431.677 Z" id="Shape"></path>
                    <path d="M374.512,9.93 C372.272,14.617 372.772,20.029 370.102,24.766 C367.42,29.522 362.754,33.382 358.221,36.284 C346.541,43.76 332.992,48.112 320.174,53.175 C302.143,60.297 265.096,73.512 272.916,99.837 C274.298,104.49 281.944,99.867 281.436,96.068 C280.79,91.248 280.794,87.294 283.25,82.97 C285.53,78.957 289.787,75.946 293.549,73.459 C305.098,65.825 318.365,61.194 330.947,55.621 C342.968,50.295 355.122,44.615 365.313,36.167 C369.416,32.766 372.951,28.615 375.264,23.797 C377.004,20.173 379.355,12.68 375.786,9.512 C375.36,9.131 374.73,9.476 374.512,9.93 L374.512,9.93 Z" id="Shape"></path>
                    <path d="M371.29,1.864 C375.931,15.641 373.587,27.514 366.795,40.023 C361.737,49.339 353.959,56.95 346.255,64.078 C339.06,70.736 331.813,77.372 325.755,85.118 C322.817,88.876 320.323,93.003 318.194,97.265 C316.206,101.243 312.747,107.68 314.36,112.091 C315.451,115.072 319.292,113.167 320.628,111.583 C324.025,107.554 324.895,101.109 327.391,96.363 C329.797,91.786 333.079,87.685 336.481,83.817 C343.267,76.101 351.308,69.541 358.355,62.062 C372.63,46.91 389.677,19.765 373.111,0.564 C372.405,-0.252 370.996,0.991 371.29,1.864 L371.29,1.864 Z" id="Shape"></path>
                    <path d="M352.908,114.333 C358.13,109.766 368.945,110.52 375.313,110.884 C384.76,111.424 394.204,113.158 403.518,114.763 C414.185,116.6 424.868,117.748 435.39,120.427 C447.438,123.494 459.073,128.142 470.048,133.962 C491.963,145.583 510.857,163.307 524.067,184.293 C536.035,203.306 540.736,226.305 541.284,248.485 C542.405,293.865 525.559,341.167 497.671,376.768 C466.04,417.147 420.129,440.895 371.439,454.247 C355.008,458.752 338.285,462.044 321.46,464.674 C323.456,465.788 325.452,466.902 327.448,468.016 C326.813,466.539 326.865,466.516 326.846,464.946 C326.794,460.51 322.015,459.089 318.446,460.23 C314.265,461.566 310.783,465.583 310.835,470.079 C310.861,472.417 311.25,474.57 312.175,476.722 C313.164,479.024 315.639,480.458 318.163,480.064 C369.164,472.098 420.367,457.836 462.949,427.608 C503.819,398.595 532.457,357.475 547.473,309.848 C561.316,265.947 562.99,214.049 538.244,173.625 C525.17,152.267 506.17,134.64 484.445,122.325 C473.453,116.095 461.607,111.462 449.455,108.064 C437.77,104.797 426.011,103.743 414.059,102.109 C402.091,100.473 390.242,98.98 378.13,99.1 C366.988,99.209 353.713,100.837 347.587,111.418 C345.39,115.213 350.511,116.43 352.908,114.333 L352.908,114.333 Z" id="Shape"></path>
                    <path d="M126.768,110.711 C141.221,100.385 163.116,111.11 176.647,117.941 C186.037,122.681 195.095,128.087 203.687,134.153 C209.669,138.377 215.88,142.929 220.328,148.83 C223.284,152.752 230.309,147.32 229.757,143.412 C229.398,140.875 228.398,139.628 226.362,138.14 C223.458,136.015 218.479,140.412 218.927,143.486 C219.143,144.956 219.389,146.401 219.736,147.845 C222.799,145.658 225.864,143.471 228.927,141.283 C223.483,135.33 216.448,130.55 209.723,126.185 C199.86,119.784 189.381,114.27 178.467,109.894 C168.394,105.856 157.827,102.641 146.926,102.165 C139.084,101.822 130.727,102.986 125.947,109.776 C125.513,110.395 126.061,111.216 126.768,110.711 L126.768,110.711 Z" id="Shape"></path>
                    <path d="M126.57,109.828 C130.241,108.556 132.762,104.573 136.244,102.671 C140.545,100.321 145.249,99.548 150.099,99.39 C162.126,98.999 174.384,102.782 185.756,106.254 C198.006,109.995 209.985,114.558 222.137,118.597 C231.774,121.801 242.362,125.4 252.666,124.934 C258.414,124.674 262.228,114.151 254.863,114.677 C251.711,114.902 248.201,116.152 246.756,119.223 C245.204,122.522 248.48,124.66 251.375,124.874 C252.538,121.476 253.701,118.076 254.863,114.677 C244.192,114.609 233.631,111.038 223.537,107.909 C210.087,103.741 196.786,99.102 183.13,95.626 C171.303,92.615 158.341,90.524 146.218,92.889 C141.119,93.883 136.264,95.766 132.147,98.977 C129.657,100.917 124.229,105.927 125.79,109.544 C125.922,109.85 126.272,109.931 126.57,109.828 L126.57,109.828 Z" id="Shape"></path>
                    <path d="M319.999,117.102 C320.992,118.11 321.823,118.403 323.144,118.846 C322.702,118.693 322.259,118.539 321.818,118.385 C323.391,119.178 324.853,119.292 326.603,119.242 C325.16,118.728 323.716,118.214 322.274,117.7 C324.117,120.082 327.196,120.427 329.931,119.553 C334.106,118.218 338.034,113.99 337.789,109.385 C337.548,104.844 332.941,103.293 329.116,104.516 C325.101,105.799 322.246,109.172 321.305,113.207 C322.846,111.208 324.385,109.209 325.926,107.21 C325.688,107.343 325.45,107.465 325.203,107.58 C325.767,107.33 326.332,107.08 326.896,106.831 C326.011,107.2 325.108,107.508 324.261,107.972 C325.426,107.485 325.679,107.352 325.02,107.575 C324.243,107.821 323.624,108.155 322.968,108.569 C321.571,109.456 320.394,110.555 319.679,112.076 C318.973,113.579 318.706,115.792 319.999,117.102 L319.999,117.102 Z" id="Shape"></path>
                </g>
            </g>
        </g>
    </g>
</svg>