<?xml version="1.0" encoding="UTF-8"?>
<svg width="387px" height="509px" viewBox="0 0 387 509" version="1.1" xmlns="http://www.w3.org/2000/svg" xmlns:xlink="http://www.w3.org/1999/xlink">
    <!-- Generator: Sketch 41 (35326) - http://www.bohemiancoding.com/sketch -->
    <title>tower</title>
    <desc>Created with Sketch.</desc>
    <defs></defs>
    <g id="Page-1" stroke="none" stroke-width="1" fill="none" fill-rule="evenodd">
        <g id="Layer_1" transform="translate(-6806.000000, -6150.000000)" fill="#010101">
            <g id="Layer_1_3_">
                <g id="tower" transform="translate(6805.000000, 6150.000000)">
                    <path d="M23.508,15.866 C20.589,25.962 21.528,36.531 21.244,46.976 C20.945,58.001 20.879,69.034 20.691,80.062 C20.508,90.817 20.721,101.574 20.195,112.322 C19.943,117.478 19.73,122.643 19.139,127.772 C18.597,132.484 17.026,137.694 18.005,142.271 C18.615,145.118 23.37,145.031 25.359,144.563 C28.238,143.886 31.754,141.845 32.636,138.792 C33.878,134.494 32.673,129.159 32.451,124.649 C32.204,119.623 32.104,114.595 31.95,109.564 C31.622,98.904 31.647,88.235 31.294,77.574 C30.935,66.701 30.442,55.821 29.844,44.959 C29.294,34.976 30.254,24.552 27.068,15.019 C26.562,13.5 23.817,14.801 23.508,15.866 L23.508,15.866 Z" id="Shape"></path>
                    <path d="M331.184,4.447 C327.091,14.365 328.681,26.778 328.629,37.287 C328.573,48.517 328.769,59.752 328.877,70.981 C328.984,82.226 328.988,93.471 328.96,104.716 C328.945,110.672 328.908,116.628 328.852,122.583 C328.8,128.176 328.123,133.62 327.854,139.166 C327.464,147.181 343.673,142.534 344.022,135.374 C344.075,134.29 343.755,133.245 343.37,132.246 C340.924,125.919 329.927,131.309 328.453,135.793 C328.097,136.878 327.797,138.013 327.854,139.166 C328.263,147.386 344.376,142.505 344.022,135.374 C343.788,130.677 343.055,126.009 342.93,121.262 C342.776,115.358 342.585,109.454 342.385,103.551 C342.006,92.395 341.523,81.243 341.158,70.087 C340.793,58.917 340.429,47.747 340.119,36.575 C339.954,30.672 339.719,24.77 339.545,18.868 C339.391,13.615 339.387,7.856 336.944,3.075 C335.733,0.704 331.92,2.66 331.184,4.447 L331.184,4.447 Z" id="Shape"></path>
                    <path d="M22.392,20.621 C28.506,21.061 34.607,20.9 40.727,20.627 C43.962,20.482 47.198,20.329 50.434,20.207 C52.71,20.121 56.809,19.281 58.877,20.323 C62.626,22.212 68.684,19.393 69.966,15.51 C71.686,10.308 64.593,10.488 61.668,11.572 C59.912,12.223 56.943,11.866 55.055,12.003 C51.764,12.24 48.479,12.56 45.194,12.865 C38.59,13.479 31.983,14.012 25.373,14.55 C23.624,14.693 21.813,15.489 20.822,17.001 C19.866,18.458 20.453,20.481 22.392,20.621 L22.392,20.621 Z" id="Shape"></path>
                    <path d="M288.15,12.413 C292.872,16.544 301.809,14.914 307.487,14.297 C315.351,13.443 323.146,11.965 330.976,10.858 C330.317,7.701 329.657,4.545 328.997,1.388 C326.498,2.594 324.202,4.117 323.224,6.828 C322.893,7.746 323.09,8.765 323.79,9.453 C324.795,10.439 326.15,10.808 327.509,11.01 C331.341,11.578 336.413,9.436 337.706,5.521 C339.174,1.079 333.922,0.264 330.857,0.768 C324.143,1.873 317.502,3.411 310.829,4.734 C304.008,6.088 296.46,6.005 289.985,8.617 C288.807,9.091 286.647,11.098 288.15,12.413 L288.15,12.413 Z" id="Shape"></path>
                    <path d="M63.637,14.989 C61.387,20.278 62.202,26.835 62.074,32.486 C61.919,39.304 61.694,46.126 61.627,52.945 C61.563,59.464 75.633,55.73 74.686,49.882 C73.621,43.306 72.906,36.728 72.236,30.103 C71.687,24.68 72.014,17.829 68.637,13.31 C67.358,11.599 64.219,13.621 63.637,14.989 L63.637,14.989 Z" id="Shape"></path>
                    <path d="M64.25,53.417 C71.484,56.681 81.398,54.968 89.116,54.808 C93.371,54.72 97.768,55.745 101.894,55.57 C103.972,55.482 105.924,54.533 107.833,53.782 C110.401,52.771 114.027,49.574 112.659,46.422 C110.919,42.411 104.937,44.25 102.261,45.857 C101.943,46.047 101.624,46.238 101.306,46.428 C99.124,47.734 101.365,45.67 101.428,45.672 C97.038,45.567 92.63,45.831 88.253,46.145 C80.702,46.685 72.682,47.086 65.483,49.551 C64.102,50.024 62.169,52.478 64.25,53.417 L64.25,53.417 Z" id="Shape"></path>
                    <path d="M106.478,11.832 C103.87,15.311 103.544,19.617 102.866,23.801 C102.348,26.989 101.596,30.076 101.337,33.295 C100.999,37.483 99.914,42.791 100.457,46.918 C100.724,48.937 102.006,49.994 103.969,50.382 C103.701,50.295 103.434,50.207 103.165,50.119 C107.638,52.636 117.362,45.367 111.419,42.022 C108.734,40.512 104.962,42.068 102.987,44.076 C101.273,45.819 100.413,48.847 103.165,50.119 C105.882,51.375 109.602,50.094 111.597,48.065 C110.39,49.095 110.6,48.941 112.226,47.6 C112.991,46.874 113.553,46.018 113.912,45.03 C114.4,43.553 114.082,42.215 113.77,40.758 C113.267,38.41 113.568,35.449 113.439,33.018 C113.094,26.529 115.218,15.622 109.931,10.997 C108.887,10.083 107.183,10.892 106.478,11.832 L106.478,11.832 Z" id="Shape"></path>
                    <path d="M103.161,13.647 C108.26,17.253 118.209,15.497 124.136,15.606 C130.768,15.729 140.258,14.277 146.385,17.35 C149.443,18.884 153.724,17.23 155.981,15.012 C158.402,12.634 158.625,8.14 154.382,7.71 C146.168,6.876 138.316,6.431 130.036,6.886 C125.4,7.141 120.766,7.768 116.146,8.223 C112.387,8.593 108.157,8.848 104.701,10.459 C103.877,10.843 101.735,12.639 103.161,13.647 L103.161,13.647 Z" id="Shape"></path>
                    <path d="M150.557,11.881 C146.101,17.296 147.556,28.098 147.561,34.637 C147.565,40.319 144.579,56.118 154.558,53.774 C164.572,51.421 159.916,39.029 159.145,31.92 C158.561,26.544 158.916,13.807 153.171,11 C152.242,10.546 151.138,11.176 150.557,11.881 L150.557,11.881 Z" id="Shape"></path>
                    <path d="M147.713,54.626 C163.25,59.284 180.03,53.769 195.845,56.468 C199.328,57.063 203.452,55.283 205.393,52.324 C207.867,48.552 204.646,46.067 201.005,45.956 C183.897,45.433 166.065,47.394 149.194,50.096 C146.928,50.459 144.583,53.688 147.713,54.626 L147.713,54.626 Z" id="Shape"></path>
                    <path d="M198.821,11.688 C195.467,16.735 196.01,23.522 196.2,29.316 C196.409,35.687 197.134,42.037 196.422,48.401 C195.706,54.798 210.413,51.755 210.278,45.151 C210.162,39.449 209.046,33.689 208.083,28.081 C207.195,22.909 207.319,15.305 204.237,10.903 C202.928,9.033 199.918,10.036 198.821,11.688 L198.821,11.688 Z" id="Shape"></path>
                    <path d="M198.262,12.071 C200.612,14.209 204.554,14.342 207.554,14.577 C212.824,14.99 218.15,14.99 223.432,15.139 C228.235,15.274 233.039,15.121 237.835,15.493 C239.551,15.627 241.175,15.994 242.864,16.275 C243.79,16.428 244.707,16.515 245.646,16.449 C246.867,16.363 254.829,14.037 248.525,15.744 C251.238,15.009 253.572,13.342 254.021,10.454 C254.007,10.634 253.993,10.812 253.979,10.991 C254.36,9.728 254.231,8.314 253.198,7.374 C250.328,4.764 245.447,5.336 241.954,5.227 C236.846,5.067 231.67,5.229 226.574,5.593 C217.941,6.21 206.937,6.133 199.127,10.281 C198.602,10.559 197.534,11.41 198.262,12.071 L198.262,12.071 Z" id="Shape"></path>
                    <path d="M243.903,9.709 C238.737,15.556 239.546,26.021 239.631,33.323 C239.685,37.923 240.044,42.618 239.774,47.21 C239.531,51.333 240.052,55.393 245.388,55.167 C257.923,54.636 253.363,40.275 252.651,32.515 C252.189,27.488 251.602,22.542 250.63,17.586 C250.026,14.508 249.479,11.133 246.724,9.288 C245.877,8.722 244.587,8.935 243.903,9.709 L243.903,9.709 Z" id="Shape"></path>
                    <path d="M286.345,10.462 C284.294,16.589 284.811,23.588 284.529,29.97 C284.257,36.117 285.151,43.949 283.219,49.817 C282.291,52.636 284.286,54.882 287.018,55.328 C290.002,55.813 292.419,54.984 294.94,53.409 C297.191,52.002 299.575,49.014 298.419,46.203 C296.388,41.26 296.79,34.132 296.211,28.824 C295.509,22.382 295.904,14.843 293.467,8.769 C292.259,5.762 287.066,8.308 286.345,10.462 L286.345,10.462 Z" id="Shape"></path>
                    <path d="M241.767,56.732 C245.889,59.513 251.338,59.357 256.156,59.644 C260.392,59.897 264.69,60.249 268.936,60.097 C271.788,59.993 274.635,59.812 277.49,59.758 C278.065,59.749 278.639,59.749 279.215,59.757 C281.286,59.772 277.96,59.939 277.514,58.084 C277.766,58.684 278.14,59.169 278.637,59.542 C282.228,62.493 278.438,58.751 278.477,58.931 C279.484,63.603 287.442,60.857 289.714,59.541 C294.393,56.833 296.198,49.706 289.443,48.536 C287.975,48.282 286.385,48.4 284.968,48.839 C286.785,48.276 285.047,48.719 284.438,48.713 C282.386,48.694 280.323,48.927 278.286,49.13 C274.373,49.519 270.535,49.97 266.604,50.147 C259.021,50.489 250.524,50.097 243.461,53.226 C242.569,53.621 240.183,55.663 241.767,56.732 L241.767,56.732 Z" id="Shape"></path>
                    <path d="M19.206,142.22 C28.259,148.331 38.25,152.906 47.369,158.855 C54.837,163.728 67.464,149.273 56.98,147.268 C51.515,146.222 46.151,142.917 41.021,140.824 C35.287,138.483 29.667,137.084 23.459,137.106 C21.883,137.112 16.35,140.292 19.206,142.22 L19.206,142.22 Z" id="Shape"></path>
                    <path d="M334.604,133.95 C329.624,135.31 325.352,138.742 321.069,141.509 C316.659,144.358 312.276,147.229 307.771,149.928 C305.006,151.585 301.96,156.041 304.956,158.914 C307.94,161.776 313.547,160.43 316.519,158.305 C320.867,155.197 325.239,152.105 329.368,148.707 C333.09,145.643 338.889,141.412 339.273,136.195 C339.442,133.876 336.157,133.526 334.604,133.95 L334.604,133.95 Z" id="Shape"></path>
                    <path d="M50.992,155.095 C50.743,155.38 50.452,155.615 50.118,155.798 C48.992,156.521 47.705,157.901 47.783,159.359 C48.168,166.523 47.572,173.845 47.452,181.018 C47.3,190.061 46.96,199.101 46.726,208.142 C46.138,230.955 45.712,253.74 44.358,276.527 C42.805,302.658 39.995,328.826 39.57,355.006 C39.159,380.283 41.728,406.076 36.664,431.022 C42.077,429.735 47.491,428.448 52.903,427.161 C51.969,423.843 48.868,423.293 45.852,422.723 C42.193,422.03 36.161,424.765 36.181,429.074 C36.19,430.936 36.137,432.373 36.723,434.183 C37.727,437.289 42.416,437.307 44.885,436.727 C48.946,435.774 52.647,432.981 53.227,428.699 C56.623,403.635 55.091,378.366 55.183,353.175 C55.278,327.122 57.732,301.023 58.986,275.006 C60.091,252.081 60.264,229.213 60.158,206.271 C60.082,189.868 60.372,173.275 57.51,157.08 C57.163,155.121 55.701,154.592 53.857,154.546 C52.747,154.516 51.922,154.181 50.992,155.095 L50.992,155.095 Z" id="Shape"></path>
                    <path d="M308.006,156.871 C305.721,167.013 306.229,177.725 307.14,188.006 C308.158,199.49 309.691,210.937 311.168,222.368 C314.282,246.47 315.241,270.847 317.57,295.038 C319.992,320.195 322.714,345.323 325.09,370.486 C326.146,381.654 326.627,392.836 327.385,404.024 C328.088,414.407 328.865,426.195 333.044,435.855 C336.629,432.986 340.215,430.117 343.8,427.248 C342.388,426.926 340.971,426.9 339.537,426.706 C336.456,426.289 331.944,428.24 331.782,431.798 C331.698,432.584 331.701,433.369 331.791,434.152 C331.884,435.574 332.675,436.877 334.05,437.412 C334.382,437.541 334.715,437.67 335.047,437.8 C340.049,439.746 348.802,435.883 347.331,429.656 C344.888,419.313 342.915,409.431 342.096,398.789 C341.231,387.543 340.59,376.316 339.426,365.094 C336.888,340.64 334.093,316.213 331.553,291.759 C329.11,268.235 327.686,244.53 324.343,221.114 C322.805,210.34 320.826,199.634 319.268,188.861 C317.683,177.914 317.036,166.758 315.108,155.875 C314.5,152.44 308.614,154.177 308.006,156.871 L308.006,156.871 Z" id="Shape"></path>
                    <path d="M13.922,435.072 C18.961,435.99 24.391,435.084 29.486,435.138 C34.178,435.189 42.043,436.835 44.206,430.289 C46.395,423.66 35.85,425.193 32.669,425.469 C26.826,425.974 20.273,426.348 14.884,428.852 C12.434,429.99 9.571,434.281 13.922,435.072 L13.922,435.072 Z" id="Shape"></path>
                    <path d="M338.626,435.339 C342.541,437.592 349.387,436.209 353.723,436.27 C354.591,436.283 355.445,436.328 356.308,436.412 C356.757,436.461 357.204,436.523 357.649,436.601 C354.484,436.098 358.592,437.171 359.076,437.275 C362.926,438.101 368.204,436.002 369.479,432.015 C370.1,430.075 369.245,428.624 367.588,427.657 C364.321,425.749 358.168,426.884 353.94,427.314 C349.034,427.814 343.674,428.339 339.296,430.763 C337.547,431.732 336.615,434.182 338.626,435.339 L338.626,435.339 Z" id="Shape"></path>
                    <path d="M4.321,508.21 C19.116,508.434 33.957,507.125 48.729,506.403 C64.389,505.637 80.06,505.132 95.734,504.79 C127.241,504.101 158.771,504.169 190.282,504.536 C252.735,505.264 315.178,508.571 377.61,505.164 C378.218,501.425 378.827,497.686 379.436,493.948 C373.645,495.141 368.138,495.959 362.544,498.021 C358.041,499.68 356.977,505.454 362.683,505.67 C368.482,505.891 373.829,506.071 379.565,504.889 C382.54,504.277 385.871,502.107 386.864,499.102 C388.055,495.497 384.527,493.502 381.391,493.673 C318.885,497.085 256.397,494.21 193.86,493.664 C162.262,493.389 130.671,493.621 99.087,494.605 C68.074,495.571 36.07,495.764 5.46,501.215 C1.292,501.959 -1.564,508.122 4.321,508.21 L4.321,508.21 Z" id="Shape"></path>
                    <path d="M150.7,425.636 C156.657,427.861 163.148,427.249 169.382,427.039 C176.951,426.784 184.518,426.462 192.089,426.249 C199.71,426.036 207.328,425.718 214.95,425.538 C221.99,425.372 230.489,424.101 237.362,425.774 C240.941,426.645 245.535,424.354 247.485,421.381 C249.934,417.645 246.851,414.342 242.833,414.628 C240.553,414.79 238.589,415.135 236.519,416.151 C234.347,417.217 229.428,421.275 232.747,423.96 C234.23,425.16 235.458,425.631 237.363,425.773 C238.548,422.148 239.733,418.522 240.919,414.896 C233.751,416.38 225.459,415.525 218.144,415.838 C210.452,416.167 202.754,416.555 195.08,417.167 C187.372,417.781 179.67,418.472 171.97,419.181 C164.963,419.827 157.98,420.499 151.45,423.29 C150.731,423.599 149.331,425.125 150.7,425.636 L150.7,425.636 Z" id="Shape"></path>
                    <path d="M150.168,331.758 C147.216,338.441 147.195,345.868 146.967,353.1 C146.71,361.284 146.516,369.466 146.723,377.654 C146.911,385.025 147.089,392.396 147.202,399.768 C147.257,403.342 147.272,406.917 147.268,410.493 C147.265,414.159 146.341,418.594 148.224,421.852 C151.062,426.763 158.676,422.815 160.423,418.951 C162.98,413.293 160.935,404.55 160.536,398.453 C160.021,390.575 159.366,382.707 158.727,374.839 C158.128,367.464 157.184,360.127 156.371,352.775 C155.587,345.686 155.662,337.605 152.123,331.295 C151.68,330.501 150.44,331.142 150.168,331.758 L150.168,331.758 Z" id="Shape"></path>
                    <path d="M237.822,328.316 C235.06,333.357 235.173,339.332 235.309,345.004 C235.517,353.676 235.791,362.351 236.113,371.019 C236.419,379.278 237.041,387.52 237.259,395.785 C237.397,401.056 237.928,407.018 236.536,411.61 C236.108,413.018 236.333,414.296 237.35,415.381 C237.402,415.437 237.454,415.492 237.506,415.548 C239.714,417.901 244.73,416.819 246.922,415.052 C252.084,410.888 250.805,404.144 250.498,398.114 C250.066,389.648 249.169,381.2 248.301,372.769 C247.368,363.725 245.965,354.739 244.902,345.708 C244.217,339.899 244.18,332.908 241.16,327.833 C240.463,326.664 238.381,327.295 237.822,328.316 L237.822,328.316 Z" id="Shape"></path>
                    <path d="M151.873,340.31 C153.766,337.664 154.384,333.859 155.571,330.822 C156.703,327.926 158.473,325.082 160.56,322.783 C164.555,318.381 169.867,315.475 175.469,313.773 C188.204,309.905 202.932,310.489 215.226,315.621 C220.27,317.726 225.309,320.972 228.236,325.709 C229.532,327.806 230.407,330.174 230.707,332.617 C231.42,338.435 236.57,339.074 241.18,336.279 C248.277,331.975 243.325,322.158 239.724,317.198 C236.086,312.186 230.264,308.736 224.66,306.367 C208.303,299.449 188.649,300.124 172.174,306.141 C164.428,308.97 157.24,313.698 152.139,320.218 C148.705,324.605 143.403,336.307 148.886,341.034 C149.781,341.807 151.276,341.144 151.873,340.31 L151.873,340.31 Z" id="Shape"></path>
                    <path d="M154.665,221.827 C160.063,222.603 165.733,221.886 171.17,221.83 C177.38,221.766 183.583,221.5 189.792,221.351 C195.804,221.206 201.817,221.143 207.831,221.136 C213.886,221.128 220.352,222.397 225.17,217.939 C226.358,216.839 226.958,215.362 226.492,213.793 C226.44,213.618 226.388,213.443 226.336,213.269 C225.774,211.377 223.116,210.936 221.505,210.974 C210.773,211.231 200.05,211.759 189.339,212.476 C178.654,213.191 166.61,213.413 156.346,216.689 C154.446,217.292 150.545,221.234 154.665,221.827 L154.665,221.827 Z" id="Shape"></path>
                    <path d="M158.294,217.478 C158.582,214.395 159.196,211.671 159.107,208.508 C159.008,205.022 158.81,201.538 158.69,198.054 C158.45,191.08 158.017,184.078 159.229,177.161 C160.274,171.199 162.419,165.613 166.834,161.36 C172.386,156.012 181.022,154.758 188.35,155.702 C202.642,157.543 214.466,168.364 217.39,182.346 C218.727,188.738 219.583,195.249 220.098,201.756 C220.502,206.857 219.751,211.212 219.525,215.83 C219.213,222.157 229.603,218.96 231.888,216.548 C236.335,211.851 235.142,204.255 234.524,198.372 C233.736,190.869 232.296,183.379 230.447,176.067 C226.066,158.751 208.824,147.501 191.59,146.213 C173.684,144.874 155.072,154.383 149.962,172.335 C147.838,179.798 148.308,187.943 148.978,195.576 C149.317,199.43 149.849,203.259 150.346,207.095 C150.855,211.033 151.9,215.015 152.331,218.876 C152.687,222.056 158.064,219.945 158.294,217.478 L158.294,217.478 Z" id="Shape"></path>
                    <path d="M9.334,429.74 C3.455,442.952 6.049,459.499 5.711,473.535 C5.465,483.738 3.896,494.646 3.896,504.487 C3.896,511.404 18.621,507.435 17.73,501.242 C17.422,499.104 16.266,497.871 14.279,497.06 C11.798,496.048 9.104,497.13 7.198,498.785 C5.38,500.363 4.219,502.096 3.896,504.487 C3.052,510.748 17.73,507.9 17.73,501.242 C17.73,498.875 17.147,496.449 17.014,494.064 C16.619,486.987 16.455,479.898 15.966,472.829 C14.95,458.183 14.252,443.68 14.498,429.016 C14.546,426.19 9.981,428.287 9.334,429.74 L9.334,429.74 Z" id="Shape"></path>
                    <path d="M364.816,428.67 C363.042,435.11 365.215,442.722 366.233,449.18 C367.473,457.052 368.646,464.855 369.35,472.795 C369.889,478.874 370.361,484.966 371.34,490.967 C371.858,494.136 370.788,498.919 374.246,500.573 C377.994,502.366 385.702,499.801 386.504,495.253 C386.83,493.403 386.76,492.38 385.468,490.936 C382.861,488.023 376.5,490.072 374.388,492.593 C373.881,493.197 373.269,493.741 372.905,494.444 C377.158,493.414 381.41,492.382 385.663,491.352 C385.642,491.331 385.62,491.31 385.599,491.289 C385.958,492.117 386.318,492.944 386.677,493.772 C386.197,490.979 384.984,487.905 384.125,485.146 C382.254,479.132 381.452,472.65 380.33,466.454 C379.086,459.578 377.242,452.874 375.324,446.158 C373.618,440.182 372.514,432.305 368.458,427.448 C367.538,426.347 365.131,427.525 364.816,428.67 L364.816,428.67 Z" id="Shape"></path>
                </g>
            </g>
        </g>
    </g>
</svg>