<?xml version="1.0" encoding="UTF-8"?>
<svg width="479px" height="523px" viewBox="0 0 479 523" version="1.1" xmlns="http://www.w3.org/2000/svg" xmlns:xlink="http://www.w3.org/1999/xlink">
    <!-- Generator: Sketch 41 (35326) - http://www.bohemiancoding.com/sketch -->
    <title>tree</title>
    <desc>Created with Sketch.</desc>
    <defs></defs>
    <g id="Page-1" stroke="none" stroke-width="1" fill="none" fill-rule="evenodd">
        <g id="Layer_1" transform="translate(-5535.000000, -4051.000000)" fill="#000000">
            <g id="Layer_1_3_">
                <g id="tree" transform="translate(5535.000000, 4051.000000)">
                    <path d="M51.575,293.628 C33.522,280.371 21.617,255.761 19.201,233.845 C17.035,214.199 21.858,194.857 37.488,181.976 C52.491,169.612 73.53,166.488 92.362,167.102 C105.6,167.534 118.96,170.3 131.52,174.376 C144.06,178.446 156.549,184.502 165.369,194.507 C172.225,202.284 175.876,212.18 178.097,222.167 C180.483,232.891 179.693,244.46 183.305,254.866 C185.376,260.831 193.072,254.949 194.092,251.389 C197.43,239.757 196.134,226.523 193.62,214.834 C191.193,203.551 186.745,193.003 179.451,183.978 C171.057,173.592 158.911,167.368 146.699,162.628 C133.374,157.457 119.501,154.566 105.315,153.113 C64.057,148.886 16.741,165.817 6.267,210.107 C2.162,227.469 5.396,245.704 12.527,261.795 C19.713,278.01 31.012,293.529 49.018,297.826 C51.117,298.329 53.613,295.125 51.575,293.628 L51.575,293.628 Z" id="Shape"></path>
                    <path d="M49.745,295.286 C41.591,292.846 31.126,297.821 24.179,301.805 C15.519,306.772 8.951,314.973 4.968,324.01 C-2.154,340.168 -0.572,362.65 14.192,374.021 C29.457,385.779 51.66,387.422 69.064,379.895 C78.405,375.855 86.327,369.762 93.079,362.188 C98.123,356.528 105.51,345.68 102.456,337.609 C101.092,334.002 96.578,337.547 95.901,339.721 C95.394,341.346 91.533,344.768 90.116,346.657 C87.896,349.616 85.794,352.631 83.374,355.435 C78.994,360.512 73.335,364.813 67.164,367.469 C53.027,373.552 36.773,371.702 24.016,363.153 C12.436,355.394 11.62,338.965 15.082,326.869 C17.283,319.176 21.808,313.182 28.125,308.384 C34.649,303.429 42.729,301.87 49.558,297.587 C50.363,297.08 51.011,295.666 49.745,295.286 L49.745,295.286 Z" id="Shape"></path>
                    <path d="M100.021,341.318 C98.729,346.851 97.68,350.693 98.963,356.448 C99.986,361.039 102.31,365.393 105.214,369.061 C111.229,376.658 120.387,381.039 129.813,382.499 C139.901,384.062 150.444,381.99 159.102,376.57 C163.82,373.616 167.916,369.69 170.909,364.99 C173.705,360.597 177.409,353.123 173.964,348.248 C172.727,346.499 169.874,347.606 168.646,348.679 C165.212,351.679 163.772,356.103 161.086,359.681 C159.075,362.36 156.751,364.888 154.312,366.461 C148.429,370.257 140.72,371.327 133.622,370.446 C126.119,369.515 118.4,366.385 112.765,361.289 C109.966,358.757 107.678,355.814 106.043,352.413 C104.524,349.256 102.339,344.396 102.02,340.914 C101.901,339.643 100.213,340.498 100.021,341.318 L100.021,341.318 Z" id="Shape"></path>
                    <path d="M191.65,250.323 C204.732,252.689 216.618,262.038 223.102,273.431 C229.569,284.796 234.066,300.65 231.298,313.676 C228.614,326.307 214.722,333.28 203.632,336.991 C197.438,339.063 191.024,340.065 184.508,340.288 C181.44,340.392 178.374,340.097 175.327,339.775 C173.556,339.588 171.774,339.383 170.008,339.152 C167.844,338.869 166.407,340.082 164.395,340.176 C161.666,340.306 158.116,344.173 160.328,346.784 C161.422,348.075 161.148,349.896 162.967,350.722 C164.577,351.452 166.189,352.061 167.863,352.626 C171.729,353.933 176.177,353.884 180.203,353.917 C188.807,353.989 197.556,352.117 205.677,349.386 C222.23,343.82 237.747,332.269 243.452,315.292 C248.516,300.226 241.948,280.329 233.614,267.614 C229.218,260.907 223.03,255.227 216.01,251.374 C208.62,247.316 200.634,246.898 192.455,247.965 C191.478,248.094 190.087,250.041 191.65,250.323 L191.65,250.323 Z" id="Shape"></path>
                    <path d="M177.172,194.979 C179.913,187.516 180.619,179.644 183.979,172.332 C187.217,165.284 192.272,159.625 198.721,155.341 C214.565,144.817 235.95,139.868 254.8,141.002 C270.267,141.933 284.491,148.681 297.082,157.378 C303.381,161.73 309.066,167.081 313.362,173.439 C315.073,175.971 316.168,178.96 316.911,181.904 C317.728,185.143 316.709,188.301 318.416,191.328 C320.131,194.369 324.282,194.207 326.616,191.764 C340.479,177.25 322.346,156.981 310.659,147.952 C295.87,136.526 278.195,128.442 259.367,127.649 C236.346,126.68 210.938,133.462 192.214,147.149 C184.404,152.858 178.25,160.446 174.356,169.307 C171.043,176.848 169.025,188.337 173.131,195.803 C174.062,197.495 176.596,196.546 177.172,194.979 L177.172,194.979 Z" id="Shape"></path>
                    <path d="M327.199,193.576 C328.574,186.327 334.481,182.984 340.889,180.471 C348.597,177.448 357.022,175.672 365.204,174.55 C383.661,172.018 402.163,177.659 418.312,186.433 C437.016,196.593 453.64,212.648 460.906,232.97 C468.326,253.725 461.966,276.268 446.249,291.282 C432.41,304.502 414.07,310.935 399.079,322.491 C396.766,324.274 396.259,330.093 400.532,329.239 C422.971,324.757 444.911,310.508 460.261,293.714 C475.931,276.57 481.649,252.357 475.941,230.004 C470.544,208.864 454.378,191.605 436.59,179.897 C419.502,168.65 397.584,160.792 376.902,161.917 C364.654,162.583 352.059,165.753 340.937,170.833 C332.914,174.498 318.425,183.965 323.676,194.713 C324.513,196.42 326.931,194.985 327.199,193.576 L327.199,193.576 Z" id="Shape"></path>
                    <path d="M201.585,342.242 C200.359,349.955 205.654,356.356 211.973,360.129 C219.131,364.404 228.206,365.039 236.323,364.562 C253.283,363.563 270.627,357.075 284.516,347.402 C287.245,345.501 290.204,342.182 288.807,338.539 C287.199,334.341 281.443,335.573 278.883,338.012 C270.4,346.089 254.103,351.659 241.662,354.029 C234.47,355.397 226.949,355.861 219.815,353.982 C212.237,351.987 209.336,346.073 204.081,341.125 C203.233,340.324 201.749,341.214 201.585,342.242 L201.585,342.242 Z" id="Shape"></path>
                    <path d="M282.643,336.007 C280.687,349.504 291.309,360.413 301.239,367.85 C313.269,376.861 329.215,379.185 343.818,378.855 C359.504,378.5 375.468,373.133 386.789,362.105 C395.092,354.017 407.098,339.664 404.62,327 C402.842,317.914 388.867,324.282 390.33,331.581 C391.964,339.725 383.394,349.025 378.124,354.197 C369.328,362.828 356.877,365.225 344.965,365.966 C332.653,366.731 320.84,364.365 309.986,358.566 C299.738,353.088 289.977,346.294 285.893,334.961 C285.291,333.29 282.82,334.785 282.643,336.007 L282.643,336.007 Z" id="Shape"></path>
                    <path d="M67.105,160.871 C56.957,154.872 53.362,144.97 52.284,133.552 C51.128,121.305 53.612,109.596 63.046,101.118 C71.972,93.097 83.876,90.712 95.456,91.153 C100.521,91.347 105.587,91.995 110.588,92.805 C112.771,93.159 114.941,93.602 117.067,94.211 C115.921,93.883 118.908,94.757 119.258,94.826 C121.71,95.316 118.741,95.183 117.963,93.088 C119.289,96.662 124.321,95.657 126.458,93.539 C131.29,88.748 129.462,83.004 123.068,81.478 C116.661,79.95 109.712,79.964 103.167,79.79 C97.681,79.644 91.959,79.079 86.534,80.148 C77.084,82.012 67.912,85.637 60.209,91.502 C46.907,101.627 41.089,116.745 42.534,133.131 C43.597,145.194 49.653,164.194 63.993,165.984 C66.311,166.274 69.967,162.563 67.105,160.871 L67.105,160.871 Z" id="Shape"></path>
                    <path d="M125.63,89.284 C125.883,85.355 126.445,81.534 126.665,77.574 C126.871,73.847 127.302,70.216 128.138,66.573 C129.596,60.223 132.235,54.42 135.735,48.949 C143.031,37.544 153.989,29.586 166.1,23.758 C192.736,10.939 225.716,9.821 253.788,18.204 C266.913,22.122 279.43,29.071 289.042,38.887 C300.987,51.085 309.899,70.732 306.008,87.888 C305.194,91.479 307.821,94.382 311.449,94.088 C315.552,93.755 318.643,90.528 319.787,86.771 C323.321,75.161 319.922,61.425 315.407,50.54 C312.572,43.705 308.489,37.299 303.694,31.677 C294.161,20.496 281.1,12.612 267.397,7.648 C237.841,-3.06 203.98,-2.004 174.624,8.901 C157.416,15.295 141.225,25.626 130.16,40.488 C124.949,47.488 121.408,55.607 119.456,64.096 C118.439,68.517 118.106,73.163 118.072,77.689 C118.034,82.828 119.213,86.623 121.195,91.247 C122.29,93.795 125.514,91.096 125.63,89.284 L125.63,89.284 Z" id="Shape"></path>
                    <path d="M309.425,93.685 C315.635,92.06 321.016,89.874 327.546,89.328 C334.256,88.766 340.761,89.653 347.219,91.491 C360.435,95.252 371.241,104.319 379.465,115.061 C386.044,123.655 389.483,132.946 391.778,143.355 C392.773,147.87 393.469,152.481 393.777,157.094 C393.879,158.61 393.92,160.199 393.736,161.502 C393.685,161.861 392.951,163.703 393.605,162.201 C394.23,161.28 394.307,161.127 393.835,161.742 C392.309,164.152 392.5,163.976 394.414,161.215 C392.086,163.092 389.684,168.92 393.69,170.578 C400.308,173.316 405.498,167.476 407.359,161.713 C409.001,156.627 407.767,150.221 406.908,145.112 C404.688,131.919 400.991,120.165 393.419,109.008 C383.833,94.882 369.1,84.352 352.641,79.99 C344.898,77.938 336.276,77.389 328.41,79.009 C321.045,80.526 312.047,84.432 307.767,90.957 C306.795,92.44 307.472,94.196 309.425,93.685 L309.425,93.685 Z" id="Shape"></path>
                    <path d="M113.897,373.181 C115.775,381.271 122.357,388.693 127.863,394.617 C133.292,400.458 139.612,405.548 146.391,409.736 C152.164,413.302 158.226,416.403 164.147,419.714 C168.254,422.011 173.263,427.039 178.132,426.614 C180.879,426.375 183.301,424.16 183.945,421.513 C185.357,415.702 178.908,413.592 174.745,411.579 C168.545,408.582 162.195,405.905 155.971,402.962 C149.18,399.749 142.867,395.832 137.063,391.047 C129.593,384.89 124.568,377.169 118.115,370.17 C116.338,368.244 113.431,371.173 113.897,373.181 L113.897,373.181 Z" id="Shape"></path>
                    <path d="M175.692,419.1 C175.233,422.063 176.151,424.306 176.922,427.183 C177.914,430.886 178.821,434.65 179.316,438.453 C180.278,445.858 179.306,453.378 177.616,460.595 C175.842,468.175 172.927,475.465 169.815,482.58 C166.92,489.199 163.956,496.175 160.234,502.375 C163.479,500.901 166.723,499.427 169.967,497.953 C169.925,497.934 169.883,497.916 169.84,497.897 C170.541,499.05 171.242,500.204 171.944,501.357 C171.934,500.756 171.992,498.394 170.574,497.242 C168.141,495.263 165.272,495.937 162.962,497.858 C161.08,499.422 159.81,501.385 159.594,503.852 C159.417,505.874 159.62,507.698 161.57,508.816 C161.609,508.838 161.648,508.861 161.688,508.884 C164.526,510.512 168.918,508.525 170.515,505.95 C179.074,492.15 185.918,475.436 189.543,459.628 C191.401,451.524 192.01,443.055 190.546,434.852 C189.423,428.561 186.403,418.19 179.263,416.527 C177.763,416.177 175.919,417.634 175.692,419.1 L175.692,419.1 Z" id="Shape"></path>
                    <path d="M327.245,368.056 C325.426,376.785 323.352,384.792 318.468,392.41 C313.807,399.678 307.61,405.906 301.213,411.643 C289.666,421.997 275.142,429.542 267.984,443.901 C262.57,454.76 264.417,468.125 264.966,479.812 C265.265,486.162 265.62,492.509 265.807,498.865 C265.883,501.443 265.911,504.023 265.831,506.6 C265.793,507.837 265.801,507.524 265.728,508.125 C265.509,509.937 264.682,510.551 266.617,507.455 C265.345,509.491 264.23,512.224 266.087,514.338 C268.217,516.766 272.432,515.675 274.442,513.661 C277.998,510.098 278.274,505.899 278.365,501.102 C278.481,495.024 278.085,488.926 277.783,482.858 C277.443,476.005 277.066,469.154 276.916,462.294 C276.787,456.396 276.679,451.436 279.108,445.976 C282.179,439.074 288.927,434.385 294.665,429.841 C301.424,424.488 307.848,418.684 313.769,412.413 C323.548,402.056 339.51,382.059 330.991,366.849 C330.011,365.103 327.57,366.495 327.245,368.056 L327.245,368.056 Z" id="Shape"></path>
                    <path d="M138.706,378.72 C142.082,384.962 149.386,389.357 155.069,393.322 C161.908,398.093 169.422,401.991 177.278,404.776 C187.26,408.315 198.865,410.324 207.926,403.589 C217.154,396.734 215.934,382.015 212.823,372.49 C210.635,365.789 206.877,359.501 202.681,353.878 C199.2,349.21 193.949,343.228 187.992,341.976 C185.076,341.364 179.596,346.202 182.677,348.942 C186.276,352.143 190.145,354.474 193.381,358.175 C197.353,362.718 200.407,367.999 202.85,373.493 C205.391,379.212 209.796,393.727 202.821,398.204 C195.647,402.807 182.022,397.206 175.315,394.412 C169.012,391.788 163.045,388.349 157.124,384.976 C151.868,381.982 146.771,377.911 140.817,376.47 C139.809,376.228 138.117,377.631 138.706,378.72 L138.706,378.72 Z" id="Shape"></path>
                    <path d="M224.37,359.572 C219.374,371.215 227.697,384.527 240.562,383.741 C246.353,383.387 251.656,379.56 254.437,374.589 C258.126,367.994 256.963,360.238 254.402,353.475 C252.529,348.533 244.172,353.907 245.882,358.33 C248.36,364.734 250.023,374.912 241.102,375.626 C237.695,375.898 234.419,374.157 232.196,371.698 C228.938,368.095 228.976,363.304 228.03,358.826 C227.624,356.907 224.8,358.568 224.37,359.572 L224.37,359.572 Z" id="Shape"></path>
                    <path d="M269.138,348.714 C265.652,357.55 264.732,367.654 262.403,376.869 C259.863,386.918 257.567,396.942 256.781,407.3 C256.674,408.714 257.963,409.761 259.189,410.045 C271.502,412.9 284.625,403.437 293.347,395.89 C298.335,391.576 302.952,386.536 306.443,380.926 C308.367,377.833 312.923,370.473 309.035,367.363 C307.31,365.985 304.764,366.665 303.554,368.502 C301.587,371.487 301.158,375.04 299.251,378.117 C296.586,382.417 293.075,386.146 289.374,389.56 C282.898,395.532 272.581,403.639 263.096,401.757 C263.899,402.672 264.701,403.587 265.504,404.502 C265.964,394.336 268.354,384.508 270.356,374.572 C271.95,366.661 274.827,355.994 271.211,348.291 C270.774,347.361 269.431,347.972 269.138,348.714 L269.138,348.714 Z" id="Shape"></path>
                    <path d="M141.198,521.937 C143.768,521.324 145.975,518.702 148.352,517.492 C151.702,515.788 155.145,514.48 158.763,513.455 C168.164,510.79 178.17,510.1 187.898,510.025 C198.135,509.947 208.403,510.911 218.434,512.955 C222.497,513.782 226.545,514.84 230.432,516.289 C233.781,517.536 236.554,519.502 239.698,521.066 C243.878,523.145 250.106,516.246 245.618,513.252 C244.13,512.259 242.479,511.705 240.703,511.592 C237.832,511.41 235.182,513.845 235.819,516.797 C236.298,519.021 237.951,519.902 239.698,521.067 C241.672,518.462 243.645,515.857 245.618,513.253 C242.201,511.556 239.165,509.528 235.528,508.177 C230.936,506.47 226.19,505.253 221.394,504.28 C210.251,502.018 198.731,501.287 187.38,501.593 C176.678,501.882 165.713,503.293 155.661,507.114 C151.56,508.674 147.571,510.768 144.346,513.774 C142.658,515.346 138.866,518.86 140.056,521.522 C140.27,522 140.743,522.046 141.198,521.937 L141.198,521.937 Z" id="Shape"></path>
                    <path d="M241.51,522.36 C243.078,521.967 244.421,520.547 245.853,519.789 C248.02,518.644 250.314,517.891 252.677,517.256 C258.773,515.618 265.212,515.135 271.497,515.011 C277.249,514.897 283.009,515.209 288.671,516.265 C290.672,516.639 292.655,517.127 294.498,518.003 C295.822,518.632 295.901,519.568 297.481,520.274 C299.781,521.3 303.013,519.752 303.858,517.377 C308.009,505.704 278.967,506.417 273.295,506.618 C265.678,506.887 257.85,507.89 250.679,510.559 C247.482,511.748 237.155,516.616 239.37,521.58 C239.769,522.469 240.66,522.573 241.51,522.36 L241.51,522.36 Z" id="Shape"></path>
                </g>
            </g>
        </g>
    </g>
</svg>