<?xml version="1.0" encoding="UTF-8" standalone="no"?><!DOCTYPE svg PUBLIC "-//W3C//DTD SVG 1.1//EN" "http://www.w3.org/Graphics/SVG/1.1/DTD/svg11.dtd"><svg width="100%" height="100%" viewBox="0 0 516 435" version="1.1" xmlns="http://www.w3.org/2000/svg" xmlns:xlink="http://www.w3.org/1999/xlink" xml:space="preserve" style="fill-rule:evenodd;clip-rule:evenodd;stroke-linejoin:round;stroke-miterlimit:1.41421;"><g id="whale"><path d="M20.489,289.811c0.016,0 0.045,-0.035 0.023,-0.035c-0.014,0 -0.045,0.035 -0.023,0.035Z" style="fill:#010101;fill-rule:nonzero;"/><path d="M45.416,325.557c-6.343,-20.574 -12.296,-41.017 -13.126,-62.687c-0.765,-19.96 3.271,-40.129 13.253,-57.528c11.306,-19.704 30.313,-33.371 50.981,-41.982c26.463,-11.025 54.897,-15.96 83.513,-13.586c26.288,2.181 55.533,11.233 75.488,29.11c16.547,14.824 23.431,36.297 27.843,57.392c4.618,22.078 6.688,44.908 14.626,66.166c3.988,10.68 9.613,20.647 17.247,29.146c8.003,8.908 18.203,14.325 29.389,18.159c13.299,4.56 26.73,3.73 37.823,-5.26c10.788,-8.744 17.229,-22.248 25.907,-32.873c3.222,-3.944 -2.383,-9.617 -5.635,-5.635c-6.402,7.841 -11.694,16.474 -17.922,24.437c-5.323,6.808 -11.897,13.005 -20.838,14.088c-11.398,1.382 -24.24,-3.946 -33.534,-10.128c-9.862,-6.558 -16.788,-16.713 -21.866,-27.214c-9.934,-20.54 -12.115,-44.341 -16.27,-66.504c-3.931,-20.964 -9.692,-41.697 -23.071,-58.729c-15.494,-19.725 -41.342,-30.479 -65.074,-36.204c-26.874,-6.481 -55.302,-5.394 -82.028,1.196c-23.818,5.873 -47.501,16.337 -65.481,33.333c-14.396,13.606 -23.738,31.553 -27.738,50.854c-6.475,31.249 0.292,67.04 14.857,95.143c0.475,0.92 1.957,0.284 1.656,-0.694Z" style="fill:#010101;fill-rule:nonzero;"/><path d="M424.542,304.392c0.767,0 0.767,-1.188 0,-1.188c-0.766,0 -0.765,1.188 0,1.188Z" style="fill:#010101;fill-rule:nonzero;"/><path d="M44.119,327.94c7.874,12.098 22.99,17.769 36.307,21.508c17.955,5.041 37.001,6.412 55.58,6.043c18.448,-0.367 37.21,-2.936 54.838,-8.478c13.363,-4.202 27.255,-10.574 35.812,-22.104c0.131,-0.187 0.263,-0.372 0.395,-0.558c1.271,-1.8 0.296,-4.376 -1.426,-5.437c-3.133,-1.929 -5.702,-4.169 -9.222,-5.403c-0.705,2.557 -1.41,5.112 -2.114,7.67c5.537,1.253 10.942,3.076 16.561,3.96c0.349,-2.577 0.697,-5.153 1.046,-7.73c-2.759,0.32 -4.93,0.67 -6.872,2.792c-1.955,2.137 -0.082,6.027 2.949,5.066c1.274,-0.404 2.628,-0.112 3.922,0.013c4.436,0.426 5.35,-6.812 1.046,-7.73c-5.557,-1.186 -10.998,-2.792 -16.537,-4.039c-5.039,-1.137 -6.932,5.982 -2.114,7.67c2.734,0.957 4.885,3.095 7.327,4.596c-0.475,-1.813 -0.95,-3.624 -1.425,-5.437c-7.331,10.383 -20.717,15.804 -32.356,19.561c-16.713,5.394 -34.338,7.614 -51.827,8.34c-17.374,0.722 -34.933,-0.474 -51.931,-4.223c-13.674,-3.017 -27.409,-8.229 -38.116,-17.501c-0.962,-0.831 -2.607,0.246 -1.843,1.421Z" style="fill:#010101;fill-rule:nonzero;"/><path d="M42.623,321.873c-7.989,-2.966 -17.334,0.984 -23.871,5.607c-3.572,2.526 -6.804,5.532 -10.047,8.458c-2.92,2.635 -7.858,5.131 -7.906,9.411c-0.017,1.473 1.049,2.954 2.509,3.296c6.993,1.634 14.042,2.587 21.208,3.017c6.283,0.377 13.38,1.143 19.605,0.142c4.515,-0.727 2.643,-7.762 -1.903,-6.906c-1.075,0.202 -2.813,0.336 -3.847,1.607c-0.97,1.194 -0.97,2.495 0,3.689c1.033,1.271 2.771,1.406 3.847,1.607c4.546,0.854 6.418,-6.181 1.903,-6.905c-5.776,-0.93 -12.065,-0.168 -17.923,-0.354c-7.095,-0.226 -14.126,-1.027 -21.073,-2.489c0.837,1.1 1.674,2.197 2.51,3.297c-0.02,-1.665 -0.865,1.305 1.325,-0.688c1.479,-1.343 2.912,-2.734 4.352,-4.118c2.651,-2.55 5.297,-5.093 8.121,-7.453c2.919,-2.439 6.241,-4.467 9.813,-5.772c3.679,-1.344 7.655,-1.398 11.378,-2.491c1.533,-0.453 1.379,-2.444 -0.001,-2.955Z" style="fill:#010101;fill-rule:nonzero;"/><path d="M241.217,334.766c-6.756,9.35 4.551,19.861 11.72,24.31c9.862,6.119 21.958,9.785 33.379,11.536c1.626,0.249 3.885,-0.391 4.161,-2.362c1.293,-9.25 -2.326,-18.823 -7.292,-26.506c-3.729,-5.77 -13.199,-15.099 -20.269,-8.691c-2.132,1.933 -0.443,5.568 2.299,5.549c2.71,-0.021 4.34,-0.382 6.751,1.158c2.734,1.747 4.729,4.79 6.402,7.483c3.592,5.778 6.354,13.222 5.464,20.107c1.428,-1.087 2.854,-2.175 4.281,-3.263c-9.379,-1.339 -18.766,-3.771 -27.438,-7.616c-4.722,-2.094 -9.266,-4.759 -12.854,-8.509c-3.665,-3.83 -3.947,-7.614 -4.451,-12.612c-0.116,-1.172 -1.459,-1.543 -2.153,-0.584Z" style="fill:#010101;fill-rule:nonzero;"/><path d="M145.86,168.67c3.888,1.732 7.858,2.192 12.075,1.745c3.581,-0.38 9.545,-1.277 10.406,-5.479c0.192,-0.942 -0.104,-2.01 -1.014,-2.488c-2.724,-1.434 -5.138,-0.031 -7.881,0.789c-3.776,1.129 -7.655,1.154 -11.516,0.521c-2.76,-0.452 -5.069,3.575 -2.07,4.912Z" style="fill:#010101;fill-rule:nonzero;"/><path d="M174.18,125.616c5.506,-16.626 10.852,-32.74 24.197,-44.9c4.396,-4.006 9.031,-6.112 14.549,-7.995c4.11,-1.403 9.157,-3.146 13.57,-2.496c4.428,0.651 0.238,7.497 -1.561,9.164c-4.49,4.161 -12.191,5.31 -17.758,7.429c-6.746,2.567 -12.676,7.303 -17.847,12.244c-5.708,5.455 -13,13.679 -14.754,21.562c-0.607,2.732 2.504,4.485 4.57,2.661c3.722,-3.287 6.333,-8.271 9.398,-12.195c3.116,-3.987 6.71,-7.561 10.603,-10.784c6.944,-5.751 14.797,-7.577 22.914,-10.938c6.838,-2.831 11.202,-6.865 13.094,-14.135c1.357,-5.214 -0.78,-10.238 -6.188,-11.609c-5.185,-1.313 -11.2,0.646 -16.067,2.312c-6.068,2.078 -11.46,4.684 -16.407,8.794c-13.932,11.577 -24.112,32.487 -24.278,50.622c-0.01,1.162 1.618,1.313 1.965,0.264Z" style="fill:#010101;fill-rule:nonzero;"/><path d="M127.079,128.855c4.51,-8.587 1.515,-15.547 -4.347,-22.64c-3.017,-3.649 -6.265,-7.02 -8.636,-11.154c-1.118,-1.949 -1.754,-4.216 -2.717,-6.255c-0.391,-0.826 -0.812,-1.639 -1.151,-2.487c-0.11,-0.905 -0.324,-0.885 -0.642,0.062c0.594,-0.175 1.195,-0.317 1.806,-0.43c19.902,-4.281 12.009,26.957 15.865,36.939c0.75,1.941 3.155,1.908 3.917,0c3.21,-8.051 2.366,-18.822 0.937,-27.226c-1.605,-9.438 -7.692,-17.056 -17.828,-16.805c-3.986,0.099 -9.921,1.168 -10.524,5.965c-0.497,3.94 3.32,8.715 4.98,12.04c5.542,11.098 19.042,16.917 16.512,31.218c-0.186,1.056 1.268,1.84 1.828,0.773Z" style="fill:#010101;fill-rule:nonzero;"/><path d="M152.985,81.562c3.209,-17.211 -3.904,-33.304 -2.906,-50.444c0.75,-12.884 13.069,-23.352 25.909,-22.887c6.738,0.244 8.697,6.422 8.563,12.189c-0.189,8.123 -8.313,13.577 -13.097,19.183c-6.313,7.396 -11.1,16.098 -14.912,25c-3.369,7.869 -7.174,17.487 -5.981,26.205c0.223,1.63 2.405,1.468 3.141,0.41c2.886,-4.142 4.438,-9.674 6.146,-14.413c2.153,-5.976 4.469,-11.791 7.414,-17.429c2.67,-5.111 5.875,-9.986 9.487,-14.479c2.964,-3.683 6.601,-6.761 9.619,-10.397c9.44,-11.373 6.992,-31.286 -9.522,-33.347c-13.222,-1.649 -27.604,9.531 -31.453,21.666c-2.754,8.678 -0.495,18.693 1.277,27.33c2.053,10.003 5.674,20.898 4.752,31.201c-0.083,0.894 1.398,1.092 1.563,0.212Z" style="fill:#010101;fill-rule:nonzero;"/><path d="M205.117,274.08c-0.087,-0.036 -0.174,-0.073 -0.26,-0.108c0.547,0.317 1.093,0.638 1.64,0.955c-0.017,-0.019 -0.033,-0.035 -0.05,-0.055c-1.244,-1.341 -3.428,-1.55 -4.971,-0.642c-7.813,4.602 -4.629,14.526 1.585,18.889c3.126,2.193 7.563,2.396 10.79,0.338c4.637,-2.957 6.333,-8.982 5.195,-14.131c-1.375,-6.223 -7.778,-9.278 -13.627,-8.003c-4.979,1.086 -9.19,5.69 -8.868,10.908c0.308,4.975 3.644,8.848 8.242,10.476c5.548,1.964 10.763,-1.935 13.664,-6.294c1.751,-2.632 0.655,-6.877 -2.178,-8.305c-3.441,-1.735 -7.054,-2.615 -10.872,-1.669c-3.461,0.856 -6.056,3.537 -7.188,6.832c-1.25,3.632 0.731,7.451 3.771,9.412c3.202,2.065 7.667,1.354 10.973,-0.002c2.193,-0.899 3.923,-2.174 4.586,-4.586c0.618,-2.25 -0.026,-4.746 -1.688,-6.391c-2.749,-2.717 -6.592,-4.531 -10.305,-2.355c-2.906,1.701 -3.53,4.61 -3.773,7.681c-0.257,3.254 3.089,6.817 6.394,6.521c2.996,-0.267 5.335,-1.838 6.282,-4.807c0.083,-0.259 0.155,-0.52 0.229,-0.781c0.205,-0.64 0.067,-0.345 -0.415,0.884c0.563,-1.006 -0.067,-0.39 -1.889,1.849c-1.112,0.301 -2.225,0.602 -3.335,0.902c-0.828,-0.036 -1.614,-0.233 -2.356,-0.594c-0.728,-0.583 -0.768,-0.588 -0.119,-0.013c0.443,-3.438 0.886,-6.876 1.329,-10.313c-0.724,0.33 -0.721,0.334 0.01,0.009c-0.438,0.172 -0.893,0.297 -1.348,0.416c-0.726,0.144 -0.536,0.129 0.57,-0.044c-0.566,0.061 -1.668,-0.167 0.479,0.173c-0.632,-0.168 -0.355,-0.031 0.829,0.411c-0.42,-0.187 1.337,1.348 1.527,1.613c0.597,0.84 0.514,1.292 0.597,2.296c-0.079,-0.957 -0.374,1.827 -0.104,0.871c-0.533,1.15 -0.651,1.449 -0.355,0.896c0.491,-0.893 -1.111,1.265 -0.364,0.507c0.755,-0.767 -1.348,0.908 -0.377,0.336c0.992,-0.584 -1.507,0.521 -0.341,0.174c0.638,-0.138 0.43,-0.123 -0.626,0.045c0.383,-0.044 0.771,-0.022 1.154,-0.005c-1.694,-0.082 -0.348,-0.021 0.103,0.093c0.193,0.049 1.667,0.645 0.498,0.12c-0.726,-2.769 -1.452,-5.535 -2.178,-8.305c-0.055,0.091 -1.221,1.651 -0.403,0.683c-0.222,0.249 -0.459,0.483 -0.711,0.703c0.611,-0.451 0.649,-0.507 0.115,-0.165c1.156,-0.692 0.477,-0.183 -0.057,-0.056c0.965,-0.102 1.125,-0.145 0.482,-0.127c0.973,0.168 1.146,0.187 0.517,0.051c-1.208,-0.273 1.196,0.639 0.104,0.053c-0.833,-0.447 0.906,0.927 -0.195,-0.188c-0.664,-0.671 0.637,1.099 -0.096,-0.266c0.897,1.673 0.012,-1.078 0.228,0.918c-0.053,-0.49 0.216,-1.438 -0.097,0.154c0.176,-0.572 0.109,-0.45 -0.202,0.365c0.312,-0.503 0.231,-0.432 -0.236,0.214c0.2,-0.244 1.175,-0.927 0.176,-0.242c0.321,-0.188 0.641,-0.379 0.959,-0.571c-0.407,0.123 -0.304,0.092 0.311,-0.093c-1.024,0.309 0.868,0.133 -0.297,-0.063c0.599,0.183 0.636,0.174 0.113,-0.027c0.516,0.322 0.561,0.339 0.134,0.046c0.309,0.27 0.314,0.574 0.254,0.399c0.204,0.593 0.154,0.66 0.113,1.616c0.027,-0.62 -0.417,0.91 -0.394,0.848c0.32,-0.872 -0.419,0.601 -0.536,0.775c0.641,-0.958 0.017,-0.121 -0.203,0.078c0.579,-0.429 0.646,-0.502 0.204,-0.224c0.725,-0.271 0.838,-0.321 0.339,-0.151c-1.014,0.333 1.203,-0.053 0.143,-0.009c-0.829,0.034 1.167,0.313 -0.179,-0.038c-0.778,-0.203 0.929,0.524 -0.283,-0.128c-0.274,-0.146 -1.404,-1.047 -0.371,-0.194c-0.264,-0.217 -0.503,-0.462 -0.741,-0.705c-0.196,-0.201 -1.101,-1.405 -0.34,-0.353c-0.266,-0.367 -0.484,-0.767 -0.693,-1.169c-0.369,-0.709 0.247,0.837 -0.108,-0.424c-0.301,-1.066 0.054,1.062 -0.032,-0.031c-0.101,-1.283 -0.179,0.398 -0.019,-0.335c0.057,-0.262 0.597,-1.52 0.09,-0.427c0.439,-0.944 -0.08,-0.08 0.385,-0.533c0.942,-0.92 1.596,-2.7 1.056,-3.99c0.034,0.223 0.069,0.444 0.104,0.668c0.156,-1.614 -1.189,-2.718 -2.494,-3.266Z" style="fill:#010101;fill-rule:nonzero;"/><path d="M45.798,271.355c-3.539,-2.71 -7.689,2.717 -8.604,5.604c-1.309,4.142 1.136,8.464 4.985,10.129c4.354,1.886 10.671,2.19 12.786,-2.872c1.537,-3.679 -0.713,-8.18 -3.186,-10.846c-3.061,-3.301 -8.908,-4.938 -12.814,-2.163c-3.25,2.312 -4.092,6.421 -2.573,10.031c3.116,7.412 12.653,12.213 18.113,4.11c1.312,-1.946 1.874,-4.48 2.188,-6.767c0.801,-5.831 -6.895,-8.234 -8.953,-2.469c-0.022,0.065 -0.046,0.131 -0.069,0.196c0.711,-0.927 1.423,-1.852 2.135,-2.776c0.503,-0.133 1.006,-0.266 1.509,-0.398c-0.527,-0.036 -0.556,-0.02 -0.085,0.052c-0.412,-0.058 -0.819,-0.148 -1.225,-0.236c-0.658,-0.144 -0.533,-0.375 0.286,0.152c-0.785,-0.505 -1.753,-0.657 -2.666,-0.635c-3.252,0.08 -4.989,2.904 -5.978,5.62c1.104,-1.104 2.207,-2.206 3.31,-3.31c-0.027,0.005 -0.057,0.01 -0.084,0.015c-1.496,0.248 -3.018,1.849 -3.311,3.311c-0.703,3.513 1.589,5.322 4.372,6.582c2.588,1.172 5.011,2.332 7.804,0.989c1.372,-0.659 2.552,-2.621 2.384,-4.155c-0.479,-4.36 -4.302,-5.41 -8.107,-5.714c-2.77,-0.223 -5.615,1.746 -6.291,4.438c-1.333,5.303 5.591,7.9 8.532,3.597c-0.492,0.798 -1.162,1.328 -2.012,1.595c-0.779,0.097 -0.856,0.125 -0.229,0.085c0.58,-0.022 1.182,0.251 1.923,0.472c-0.708,-0.412 -1.416,-0.825 -2.125,-1.238c0.029,0.035 0.057,0.069 0.086,0.104c-0.413,-0.708 -0.826,-1.416 -1.238,-2.124c0.003,0.021 0.006,0.044 0.01,0.065c0.736,-1.812 1.474,-3.622 2.211,-5.435c-0.021,0.01 -0.041,0.021 -0.062,0.031c0.811,-0.22 1.619,-0.438 2.429,-0.657c1.653,0.007 0.851,0.129 0.171,-0.089c-0.484,-0.156 -0.958,-0.346 -1.432,-0.532c1.039,0.41 -0.411,-0.189 -0.602,-0.281c-0.696,-0.329 -0.907,-0.866 0.091,0.221c0.406,1.537 0.813,3.073 1.219,4.61c0.003,-0.015 0.005,-0.027 0.008,-0.043c-1.104,1.104 -2.207,2.207 -3.311,3.311c0.028,-0.005 0.056,-0.012 0.084,-0.017c1.648,-0.316 2.809,-1.816 3.31,-3.31c0.034,-0.104 0.069,-0.204 0.108,-0.306c-0.062,0.146 -0.121,0.293 -0.182,0.438c0.438,-0.732 0.201,-0.567 -0.714,0.494c-0.792,0.214 -1.583,0.428 -2.375,0.642c0.099,-0.005 0.195,-0.01 0.293,-0.015c-0.79,-0.214 -1.581,-0.428 -2.372,-0.642c3.576,2.174 9.684,1.818 11.147,-2.639c-3.04,-0.412 -6.079,-0.823 -9.119,-1.233c-0.07,0.636 -0.205,1.256 -0.351,1.879c-0.049,0.21 -0.696,1.866 -0.365,1.177c-0.121,0.237 -0.255,0.468 -0.402,0.688c0.35,-0.422 0.362,-0.453 0.039,-0.096c-0.405,0.433 0.625,-0.273 0.193,-0.161c1.376,-0.358 -0.65,-0.26 0.706,-0.015c-1.189,-0.215 0.333,0.263 -0.342,-0.062c-0.385,-0.184 -0.738,-0.427 -1.085,-0.671c0.94,0.662 -0.373,-0.425 -0.583,-0.648c-0.494,-0.527 0.338,0.563 -0.338,-0.439c-0.245,-0.362 -0.446,-0.751 -0.64,-1.143c0.517,1.049 0,-0.124 -0.073,-0.406c-0.094,-0.483 -0.086,-0.381 0.024,0.309c-0.033,-0.336 0.112,-1.197 -0.095,0.084c0.125,-0.444 0.059,-0.344 -0.197,0.305c0.226,-0.391 0.142,-0.314 -0.254,0.226c0.354,-0.451 -0.756,0.36 0.277,-0.177c-0.776,0.403 0.227,0.221 0.587,0.241c-0.375,-0.07 -0.307,-0.055 0.208,0.051c1.047,0.221 -0.301,-0.283 0.62,0.228c0.567,0.314 0.995,0.867 1.416,1.561c0.134,0.23 0.257,0.469 0.368,0.711c-0.153,-0.359 -0.15,-0.321 0.009,0.115c0.356,1.079 0.157,-0.077 0.141,0.957c0.096,-0.559 0.095,-0.624 -0.002,-0.198c0.09,-0.331 0.259,-0.614 0.508,-0.851c0.393,-0.463 2.083,-0.634 0.586,-0.489c-1.31,0.127 -2.774,0.051 -3.771,-0.479c-0.977,-0.52 -1.104,-1.501 -0.56,-3.125c0.447,-1.326 3.514,-4.099 1.601,-5.564Z" style="fill:#010101;fill-rule:nonzero;"/><path d="M50.348,336.834c-5.52,20.455 -5.058,41.748 9.101,58.567c16.676,19.809 44.56,29.254 69.141,33.968c25.214,4.835 51.551,5.438 77.161,5.15c23.904,-0.268 47.832,-2.597 71.25,-7.438c30.23,-6.251 59.637,-17.426 85.472,-34.45c26.669,-17.572 48.438,-41.552 64.185,-69.271c2.102,-3.698 -1.962,-7.066 -5.451,-5.451c-2.348,1.087 -4.57,2.193 -6.529,3.899c-3.111,2.708 0.916,7.76 4.354,5.645c1.896,-1.168 4.17,-1.725 6.197,-2.663c-1.817,-1.816 -3.635,-3.634 -5.451,-5.451c-23.962,42.193 -61.759,72.725 -107.133,89.405c-45.715,16.807 -94.859,19.328 -143.066,17.073c-30.073,-1.406 -61.242,-5.479 -87.521,-21.194c-11.786,-7.05 -22.521,-16.745 -26.762,-30.157c-3.789,-11.982 -1.618,-24.832 -1.141,-37.115c0.084,-2.213 -3.244,-2.605 -3.807,-0.517Z" style="fill:#010101;fill-rule:nonzero;"/><path d="M350.469,278.269c11.154,-2.251 22.405,0.436 32.164,6.013c9.334,5.337 19.265,15.349 16.902,27.054c1.227,-0.934 2.453,-1.866 3.68,-2.801c-0.5,-0.139 -1,-0.277 -1.5,-0.416c-1.479,-0.664 -2.925,-0.599 -4.162,0.537c-0.189,0.174 -0.371,0.474 -0.537,0.695c-0.96,1.281 -0.391,3.085 0.537,4.162c1.297,1.506 2.692,2.214 4.647,2.517c1.873,0.289 4.332,-0.448 4.694,-2.665c2.379,-14.564 -7.186,-26.231 -19.087,-33.316c-10.308,-6.136 -27.39,-11.434 -38.074,-3.521c-0.861,0.637 -0.364,1.963 0.736,1.741Z" style="fill:#010101;fill-rule:nonzero;"/><path d="M350.547,276.916c5.729,-3.764 9.983,-8.782 16.368,-11.771c8.354,-3.909 17.587,-4.418 26.657,-3.638c13.7,1.181 29.6,9.538 33.046,23.901c1.886,-1.449 3.771,-2.897 5.654,-4.347c2.702,2.027 0.073,-0.515 -0.55,-1.222c-2.495,-2.833 -6.637,0.209 -5.928,3.451c0.27,1.234 0.75,2.964 1.813,3.814c2.99,2.395 7.255,0.224 6.434,-3.745c-1.271,-6.135 -5.479,-11.039 -9.742,-15.369c-7.27,-7.382 -17.059,-11.577 -27.306,-12.64c-10.097,-1.047 -20.851,-0.144 -30.174,4.069c-6.902,3.119 -15.472,8.817 -17.238,16.751c-0.116,0.534 0.456,1.08 0.966,0.746Z" style="fill:#010101;fill-rule:nonzero;"/><path d="M432.87,290.47c3.523,-1.805 6.521,-3.716 10.444,-4.778c4.641,-1.259 9.623,-1.327 14.397,-1.128c9.586,0.397 19.229,4.503 27.202,9.628c16.196,10.409 22.636,28.635 22.353,47.158c1.315,-1.316 2.633,-2.634 3.949,-3.949c-1.39,-0.154 -2.543,-0.877 -4,-0.724c-2.181,0.231 -3.715,2.802 -1.891,4.563c1.794,1.729 2.1,3.168 4.84,3.918c2.545,0.697 4.908,-1.254 4.999,-3.808c0.777,-21.896 -8.966,-42.342 -27.758,-53.961c-9.14,-5.651 -20.167,-8.978 -30.913,-8.971c-7.509,0.004 -22.974,1.654 -25.529,10.586c-0.326,1.147 0.926,1.968 1.907,1.466Z" style="fill:#010101;fill-rule:nonzero;"/><path d="M421.485,324.809c13.669,-10.146 28.766,-14.143 45.777,-12.649c15.99,1.401 33.056,9.47 37.112,26.249c0.134,-1.021 0.269,-2.046 0.401,-3.069c-0.225,0.298 -0.448,0.594 -0.672,0.891c0.775,-0.597 1.551,-1.192 2.326,-1.789c1.11,-0.163 -1.62,0.037 -1.987,0.106c-2.38,0.455 -2.499,3.313 -1.282,4.857c1.031,1.312 1.708,1.893 3.271,2.543c1.258,0.523 2.876,-0.129 3.788,-1.001c0.271,-0.261 0.541,-0.521 0.813,-0.78c1.04,-0.995 1.363,-2.509 1.024,-3.875c-4.87,-19.645 -23.904,-29.222 -42.691,-31.122c-15.762,-1.595 -41.03,2.666 -48.608,18.912c-0.198,0.425 0.253,1.078 0.728,0.727Z" style="fill:#010101;fill-rule:nonzero;"/><path d="M116.508,425.643c11.25,-8.924 26.264,-12.9 40.062,-15.696c14.568,-2.951 29.459,-4.694 44.258,-5.981c34.132,-2.972 71.282,-4.009 103.378,9.82c0.317,-2.424 0.635,-4.85 0.951,-7.271c-2.445,0.824 -5.052,2 -7.568,2.562c-2.246,0.501 -2.272,4.067 0,4.551c3.779,0.804 5.784,1.493 9.685,0.563c3.118,-0.744 4.18,-5.873 0.951,-7.272c-33.859,-14.685 -72.918,-13.806 -108.941,-10.188c-15.36,1.541 -30.835,3.636 -45.896,7.062c-14.157,3.22 -29.754,7.814 -39.464,19.271c-1.549,1.818 0.752,4.032 2.584,2.579Z" style="fill:#010101;fill-rule:nonzero;"/><path d="M142.037,407.703c-0.263,0.036 -0.525,0.072 -0.79,0.108c-0.691,0.097 -1.337,0.848 -1.491,1.492c-1.6,6.655 5.133,11.315 10.145,14.112c5.672,3.166 15.138,7.582 21.76,5.546c1.389,-0.427 1.653,-2.29 0.399,-3.056c-5.75,-3.515 -13.189,-4.386 -19.291,-7.396c-2.983,-1.473 -6.232,-3.413 -8.047,-6.284c-0.673,-1.063 -0.642,-4.808 -2.685,-4.522Z" style="fill:#010101;fill-rule:nonzero;"/><path d="M170.562,404.583c0.214,7.078 5.808,12.886 11.05,17.017c5.038,3.971 14.353,9.73 21.028,7.287c1.018,-0.373 1.704,-1.83 0.703,-2.664c-4.376,-3.649 -10.818,-4.645 -15.741,-7.588c-6.281,-3.755 -9.958,-8.805 -13.487,-15.015c-0.925,-1.624 -3.61,-0.944 -3.553,0.963Z" style="fill:#010101;fill-rule:nonzero;"/><path d="M202.378,400.842c-2.533,9.588 6.313,17.571 13.698,21.853c7.45,4.315 19.885,9.391 28.51,5.996c0.959,-0.378 1.578,-2.016 0.331,-2.542c-7.289,-3.083 -15.396,-3.672 -22.709,-6.92c-8.528,-3.789 -14.216,-9.188 -16.153,-18.387c-0.397,-1.881 -3.211,-1.763 -3.677,0Z" style="fill:#010101;fill-rule:nonzero;"/></g></svg>