<?xml version="1.0" encoding="UTF-8"?>
<svg width="502px" height="440px" viewBox="0 0 502 440" version="1.1" xmlns="http://www.w3.org/2000/svg" xmlns:xlink="http://www.w3.org/1999/xlink">
    <!-- Generator: Sketch 41 (35326) - http://www.bohemiancoding.com/sketch -->
    <title>window</title>
    <desc>Created with Sketch.</desc>
    <defs></defs>
    <g id="Page-1" stroke="none" stroke-width="1" fill="none" fill-rule="evenodd">
        <g id="Layer_1" transform="translate(-1602.000000, -1462.000000)" fill="#010101">
            <g id="Layer_1_3_">
                <g id="window" transform="translate(1602.000000, 1461.000000)">
                    <g id="Group" transform="translate(101.000000, 0.000000)">
                        <path d="M22.914,88.559 C22.446,114.594 26.255,140.372 28.92,166.205 C31.665,192.813 31.604,219.544 30.922,246.259 C30.234,273.217 28.726,300.147 27.777,327.096 C26.829,354.103 26.967,381.112 26.967,408.129 C28.484,407.259 30.001,406.389 31.519,405.518 C30.26,404.817 29.112,403.963 28.077,402.957 C25.264,400.254 20.981,404.526 23.799,407.234 C25.235,408.615 26.782,409.672 28.467,410.741 C30.426,411.985 33.019,410.357 33.019,408.129 C33.019,381.77 32.891,355.42 33.762,329.07 C34.653,302.117 36.157,275.188 36.92,248.231 C37.677,221.51 37.766,194.752 35.164,168.126 C32.575,141.63 28.484,115.254 28.964,88.559 C29.034,84.654 22.983,84.661 22.914,88.559 L22.914,88.559 Z" id="Shape"></path>
                        <path d="M23.504,85.095 C64.486,85.018 105.24,80.297 146.07,77.374 C186.788,74.459 227.653,74.551 268.454,74.55 C268.185,72.57 267.918,70.589 267.649,68.608 C264.692,69.262 261.683,69.577 258.726,70.231 C254.916,71.073 256.534,76.905 260.333,76.065 C263.289,75.411 266.3,75.097 269.256,74.442 C272.644,73.692 271.815,68.501 268.451,68.501 C227.644,68.501 186.796,68.47 146.068,71.324 C105.227,74.186 64.492,78.969 23.502,79.046 C19.603,79.052 19.602,85.102 23.504,85.095 L23.504,85.095 Z" id="Shape"></path>
                        <path d="M271.182,66.953 C265.619,72.449 266.783,82.72 267.181,89.771 C267.878,102.126 267.962,114.47 268.369,126.841 C269.375,157.546 269.598,188.159 269.045,218.879 C268.489,249.649 267.321,280.404 265.502,311.126 C264.572,326.807 263.214,342.454 262.899,358.165 C262.587,373.734 262.982,389.311 262.998,404.884 C264.72,404.171 266.44,403.458 268.162,402.745 C267.168,401.905 266.141,401.215 265.391,400.112 C263.207,396.911 257.962,399.932 260.166,403.165 C261.239,404.74 262.435,405.799 263.885,407.021 C265.828,408.663 269.051,407.689 269.049,404.882 C269.033,390.607 268.748,376.332 268.893,362.057 C269.043,347.009 270.245,332.039 271.191,317.03 C273.088,286.963 274.276,256.85 274.939,226.729 C275.6,196.672 275.831,166.622 274.761,136.573 C274.289,123.353 274.543,110.026 273.713,96.833 C273.432,92.378 273.065,87.936 272.994,83.47 C272.936,79.777 272.599,74.057 275.461,71.231 C278.24,68.486 273.959,64.21 271.182,66.953 L271.182,66.953 Z" id="Shape"></path>
                        <path d="M36.198,410.514 C43.472,410.287 50.71,409.215 57.987,408.85 C66.369,408.428 74.775,408.625 83.163,408.697 C101.184,408.849 119.167,408.201 137.183,407.8 C156.607,407.365 176.028,406.783 195.455,406.496 C205.227,406.351 215.002,406.29 224.773,406.302 C233.758,406.312 243.025,405.823 251.97,406.671 C253.884,403.357 255.798,400.04 257.712,396.725 C255.366,397.128 253.409,397.941 251.253,398.938 C249.925,399.551 243.256,404.669 247.036,406.221 C248.765,406.93 250.114,406.829 251.97,406.671 C255.227,406.394 258.159,404.546 260.033,401.857 C261.041,400.41 262.256,396.339 258.983,396.614 C249.828,397.383 240.449,396.939 231.262,396.994 C221.431,397.055 211.601,397.219 201.773,397.434 C181.488,397.882 161.215,398.613 140.954,399.659 C122.802,400.597 104.729,401.371 86.553,401.388 C70.647,401.404 52.281,400.665 37.55,407.54 C37.004,407.793 34.163,410.576 36.198,410.514 L36.198,410.514 Z" id="Shape"></path>
                        <path d="M39.333,93.26 C38.797,92.052 37.416,92.626 36.604,93.271 C35,94.547 34.566,96.378 34.43,98.338 C33.973,104.927 34.861,111.584 35.289,118.151 C36.865,142.335 37.802,166.508 42.856,190.297 C43.064,191.279 44.085,191.354 44.899,191.214 C64.255,187.9 83.994,188.215 103.561,188.274 C111.872,188.299 121.167,187.155 129.354,188.572 C133.203,189.239 137.066,190.612 140.438,187.903 C141.588,186.979 143.723,184.777 142.606,183.133 C141.71,181.816 139.295,182.606 138.076,182.836 C136.795,183.077 133.933,184.94 134.454,186.607 C134.683,187.345 134.821,188.307 135.303,188.937 C136.026,187.347 136.748,185.757 137.471,184.167 C139.994,182.055 141.751,182.846 139.293,182.614 C138.237,182.515 137.188,182.351 136.14,182.2 C134.331,181.941 132.758,181.753 130.92,181.778 C121.458,181.916 111.99,181.865 102.527,181.895 C84.131,181.952 65.687,182.17 47.527,185.427 C48.209,185.733 48.889,186.038 49.57,186.344 C45.005,165.844 43.264,144.836 41.444,123.953 C40.958,118.362 40.472,112.788 39.884,107.208 C39.578,104.303 39.265,101.403 39.036,98.49 C38.956,97.469 38.915,96.449 38.912,95.427 C38.88,95.02 38.889,94.613 38.937,94.208 C39.106,92.155 38.182,95.659 37.048,95.341 C38.016,95.615 39.806,94.326 39.333,93.26 L39.333,93.26 Z" id="Shape"></path>
                        <path d="M35.203,93.151 C42.12,95.13 50.669,93.885 57.824,93.874 C66.791,93.857 75.758,93.759 84.724,93.698 C102.606,93.578 120.498,93.625 138.36,94.587 C137.954,94.278 137.547,93.971 137.14,93.661 C139.236,107.401 133.941,121.243 132.898,134.883 C132.315,142.508 132.371,150.281 132.154,157.931 C132.062,161.191 132.055,164.451 132.126,167.711 C132.164,169.497 132.284,171.277 132.411,173.06 C132.543,174.915 133.64,178.073 133.12,179.848 C135.57,178.399 138.021,176.949 140.474,175.499 C139.821,174.606 138.912,174.046 137.984,173.473 C136.054,172.283 131.736,175.972 132.248,178.034 C132.525,179.157 132.555,180.282 133.365,181.151 C135.62,183.567 140.253,178.949 140.719,176.802 C141.25,174.361 140.111,171.176 139.844,168.689 C139.401,164.541 139.361,160.348 139.356,156.181 C139.347,147.725 139.337,139.081 139.865,130.641 C140.714,117.077 145.817,103.619 143.466,89.945 C143.362,89.34 142.816,89.043 142.246,89.02 C124.88,88.361 107.506,88.403 90.134,88.703 C81.06,88.859 71.988,89.071 62.916,89.309 C54.507,89.53 45.36,88.693 37.113,90.423 C36.542,90.542 33.721,92.729 35.203,93.151 L35.203,93.151 Z" id="Shape"></path>
                        <path d="M157.765,87.987 C154.577,95.276 153.85,103.726 153,111.562 C152.056,120.264 151.743,129.013 151.621,137.761 C151.374,155.421 152.898,173.015 153.371,190.653 C153.415,192.29 155.927,191.783 156.767,191.437 C156.996,191.342 157.225,191.249 157.455,191.153 C159.181,190.441 162.537,188.053 161.963,185.737 C161.648,184.466 160.964,183.883 159.871,183.217 C157.836,181.978 154.571,185.449 154.173,187.155 C153.905,188.3 154.072,189.218 154.078,190.373 C155.58,188.567 157.083,186.763 158.586,184.957 C158.358,185.04 158.132,185.123 157.904,185.206 C159.037,185.467 160.169,185.727 161.3,185.989 C159.214,169.384 158.312,152.579 157.998,135.849 C157.832,127.008 158.006,118.167 158.539,109.341 C158.977,102.069 160.953,94.24 160.244,86.989 C160.123,85.76 157.963,87.535 157.765,87.987 L157.765,87.987 Z" id="Shape"></path>
                        <path d="M157.461,90.135 C164.712,91.993 172.736,91.378 180.161,91.258 C188.486,91.123 196.794,90.593 205.099,90.026 C221.624,88.897 238.276,87.169 254.856,87.721 C257.91,87.823 262.939,81.115 259.342,81.284 C257.516,81.372 255.968,81.619 254.259,82.282 C253.452,82.595 249.648,85.368 251.219,86.596 C252.393,87.513 253.364,87.643 254.856,87.72 C256.351,85.574 257.847,83.43 259.342,81.283 C242.529,81.929 225.798,83.074 209.025,84.393 C200.621,85.054 192.205,85.636 183.784,86.061 C175.78,86.464 167.649,86 159.69,86.944 C158.917,87.038 155.812,89.712 157.461,90.135 L157.461,90.135 Z" id="Shape"></path>
                        <path d="M256.804,84.136 C255.219,90.915 255.088,98.086 254.18,104.986 C253.206,112.379 252.02,119.725 251.438,127.165 C250.992,132.875 250.619,138.587 250.27,144.305 C249.442,157.853 248.922,171.425 247.207,184.887 C247.107,185.658 247.274,186.173 247.961,186.571 C248.066,186.634 248.179,186.691 248.279,186.761 C249.023,187.276 250.478,186.557 251.104,186.191 C256.033,183.304 255.383,177.26 255.713,172.29 C256.301,163.43 256.63,154.551 256.991,145.68 C257.268,138.911 257.416,132.133 257.84,125.371 C258.277,118.417 258.985,111.494 259.655,104.559 C260.301,97.883 261.788,89.389 259.021,83.04 C258.565,81.991 256.955,83.492 256.804,84.136 L256.804,84.136 Z" id="Shape"></path>
                        <path d="M154.348,190.278 C171.416,192.096 189.023,189.376 206.088,188.43 C214.853,187.945 223.622,187.701 232.398,187.951 C236.757,188.075 241.106,188.408 245.442,188.855 C248.912,189.212 252.582,190.306 256.056,189.993 C259.306,189.7 263.859,182.383 259.05,183.408 C257.618,183.714 256.443,184.198 255.151,184.878 C254.026,185.469 252.046,187.322 252.887,188.76 C253.314,189.488 253.699,189.681 254.5,189.918 C258.118,190.987 263.891,183.745 259.899,183.335 C251.611,182.481 243.53,181.386 235.163,181.25 C226.304,181.104 217.434,181.593 208.602,182.23 C191.274,183.482 173.867,184.68 156.581,186.409 C155.306,186.536 151.863,190.015 154.348,190.278 L154.348,190.278 Z" id="Shape"></path>
                        <path d="M47.439,206.167 C52.773,206.821 58.904,205.567 64.269,205.316 C73.602,204.879 82.934,204.399 92.266,203.952 C106.849,203.253 121.914,203.451 136.384,201.322 C139.203,200.907 144.58,194.313 139.354,194.79 C137.726,194.937 136.501,195.664 134.969,196.174 C133.964,196.508 130.932,199.019 132.712,200.072 C133.983,200.826 133.929,201.228 135.541,201.396 C136.812,199.194 138.084,196.991 139.354,194.79 C124.874,196.92 109.945,197.107 95.355,198.056 C85.939,198.667 76.521,199.245 67.118,200.033 C61.359,200.515 54.768,200.33 49.248,202.191 C48.218,202.535 44.834,205.847 47.439,206.167 L47.439,206.167 Z" id="Shape"></path>
                        <path d="M155.054,201.228 C161.494,204.524 169.372,203.881 176.379,203.421 C184.266,202.903 192.083,202.009 199.997,202.006 C218.233,201.999 236.461,199.596 254.7,200.687 C256.3,198.393 257.898,196.099 259.499,193.805 C255.997,193.809 253.221,194.294 249.87,195.305 C249.01,195.565 245.155,198.113 247.188,199.142 C249.771,200.45 251.754,200.683 254.7,200.686 C257.624,200.69 263.702,193.873 259.499,193.804 C241.711,193.512 224.03,195.269 206.264,195.682 C198.51,195.863 190.918,196.462 183.205,197.278 C174.644,198.184 166.238,198.088 157.655,198.056 C156.687,198.054 153.368,200.363 155.054,201.228 L155.054,201.228 Z" id="Shape"></path>
                        <path d="M47.351,206.266 C44.481,211.296 46.015,219.17 45.86,224.786 C45.668,231.782 45.101,238.763 44.553,245.736 C43.449,259.816 42.412,273.87 41.646,287.972 C44.151,286.968 46.657,285.964 49.162,284.96 C49.242,283.061 49.399,281.75 48.01,280.34 C46.429,278.736 43.472,281.605 42.815,282.933 C41.812,284.96 41.538,286.441 41.635,288.684 C41.772,291.8 49.331,287.385 49.176,284.248 C48.475,270.051 50.023,255.719 50.716,241.541 C51.03,235.09 51.18,228.626 51.154,222.167 C51.139,218.348 52.405,207.487 48.258,205.727 C47.909,205.579 47.5,206.006 47.351,206.266 L47.351,206.266 Z" id="Shape"></path>
                        <path d="M138.255,196.684 C136.105,201.999 136.808,208.963 136.661,214.585 C136.431,223.339 136.367,232.098 136.241,240.855 C136.116,249.462 135.898,258.081 135.297,266.669 C135.082,269.75 134.798,272.834 134.299,275.884 C134.009,277.654 132.847,279.146 133.32,280.811 C133.813,282.545 136.152,281.681 137.192,281.049 C142.161,278.028 142.084,272.095 142.486,266.923 C143.155,258.358 143.182,249.729 143.214,241.143 C143.247,231.933 143.173,222.701 142.746,213.5 C142.575,209.828 142.388,206.164 142.12,202.499 C141.961,200.331 142.011,197.298 140.735,195.445 C140.139,194.581 138.475,196.139 138.255,196.684 L138.255,196.684 Z" id="Shape"></path>
                        <path d="M48.091,285.292 C47.388,285.25 46.695,285.142 46.016,284.967 C44.953,284.73 43.728,285.508 43.172,286.4 C42.905,286.828 42.666,287.239 42.471,287.707 C42.144,288.49 42.287,289.149 43.188,289.294 C58.151,291.676 73.905,289.596 88.889,288.196 C104.389,286.751 119.903,284.943 135.495,285.09 C137.692,285.111 139.883,283.483 141.089,281.749 C141.828,280.686 142.61,278.008 140.36,278.11 C138.748,278.184 137.349,278.678 135.859,279.28 C134.97,279.638 131.086,282.43 132.682,283.789 C133.562,284.535 134.32,285.031 135.495,285.09 C138.712,285.248 144.409,278.072 140.36,278.111 C124.703,278.257 109.121,280.108 93.583,281.88 C84.883,282.87 76.182,283.732 67.447,284.35 C63.603,284.621 59.753,284.773 55.901,284.863 C53.436,284.921 48.046,286.176 46.016,284.97 C45.766,285.752 45.517,286.534 45.268,287.319 C45.872,286.879 47.26,286.316 47.885,285.929 C48.007,285.852 48.516,285.309 48.091,285.292 L48.091,285.292 Z" id="Shape"></path>
                        <path d="M156.275,202.535 C156.099,208.237 158.056,214.113 158.691,219.792 C159.515,227.169 159.615,234.644 159.518,242.057 C159.331,256.53 158.539,271.165 157.482,285.6 C160.092,284.308 162.704,283.017 165.314,281.726 C165.321,280.052 165.342,278.891 164.632,277.402 C163.28,274.567 158.345,280.068 157.927,281.367 C157.392,283.03 157.46,284.607 157.468,286.341 C157.482,289.357 165.561,285.196 165.313,281.728 C164.32,267.868 166.083,253.712 165.936,239.808 C165.859,232.495 165.498,225.169 164.383,217.936 C163.587,212.762 162.666,204.869 158.326,201.326 C157.692,200.805 156.298,201.81 156.275,202.535 L156.275,202.535 Z" id="Shape"></path>
                        <path d="M159.363,286.938 C165.758,289.139 173.712,288.025 180.346,287.725 C188.46,287.358 196.564,286.787 204.678,286.414 C212.646,286.05 220.616,285.958 228.584,286.326 C232.364,286.502 236.131,286.872 239.882,287.373 C243.413,287.844 246.628,288.985 250.172,288.401 C251.588,288.169 256.059,285.179 254.396,283.291 C252.447,281.075 249.025,281.169 246.231,280.735 C242.498,280.158 238.72,279.873 234.951,279.655 C226.944,279.195 218.893,279.507 210.892,279.927 C202.645,280.362 194.412,281.035 186.182,281.727 C177.941,282.417 169.229,282.384 161.176,284.341 C160.646,284.472 157.942,286.447 159.363,286.938 L159.363,286.938 Z" id="Shape"></path>
                        <path d="M255.834,196.13 C254.141,202.923 254.767,210.575 254.6,217.547 C254.424,224.901 254.074,232.258 253.531,239.596 C253.005,246.748 252.223,253.887 251.215,260.988 C250.71,264.544 250.09,268.08 249.403,271.603 C248.858,274.41 247.546,277.509 248.01,280.362 C248.564,283.753 253.988,278.803 254.586,277.716 C257.417,272.575 257.661,265.303 258.448,259.56 C259.483,252.015 260.077,244.418 260.466,236.816 C260.846,229.378 260.958,221.925 260.802,214.48 C260.672,208.321 261.154,200.288 258.282,194.683 C257.773,193.687 255.967,195.601 255.834,196.13 L255.834,196.13 Z" id="Shape"></path>
                        <path d="M45.587,306.062 C52.928,302.284 63.025,303.925 70.914,304.457 C81.523,305.172 92.103,304.78 102.727,304.512 C110.49,304.316 118.153,304.36 125.884,303.635 C130.611,303.192 137.041,303.545 140.967,300.432 C142.175,299.475 144.824,296.021 141.808,295.578 C140.914,295.446 139.915,295.932 139.112,296.266 C138.094,296.687 134.347,299.348 135.868,300.87 C136.221,301.224 136.114,301.38 136.037,300.832 C137.089,299.348 138.141,297.863 139.192,296.381 C141.527,295.047 142.317,295.431 139.761,295.696 C138.618,295.815 137.483,296.069 136.341,296.222 C133.213,296.643 130.073,296.986 126.933,297.307 C117.196,298.305 107.311,298.122 97.534,298.497 C87.307,298.889 77.255,298.375 67.046,298.229 C59.424,298.122 50.595,298.355 44.437,303.436 C42.453,305.071 42.784,307.505 45.587,306.062 L45.587,306.062 Z" id="Shape"></path>
                        <path d="M44.424,304.702 C42.525,312.503 42.434,320.598 41.857,328.577 C41.304,336.218 40.764,343.856 40.225,351.498 C39.686,359.132 39.192,366.768 38.814,374.41 C38.624,378.27 38.487,382.135 38.379,385.998 C38.308,388.526 37.444,392.063 39.308,394.008 C41.609,396.407 47.44,391.529 46.898,388.787 C46.527,386.909 45.993,386.408 44.587,385.11 C42.867,383.521 40.044,386.582 39.566,388.08 C38.957,389.993 38.842,391.438 39.044,393.405 C41.574,391.666 44.104,389.926 46.634,388.184 C45.218,386.824 46.038,382.169 46.046,380.29 C46.063,376.077 46.165,371.865 46.286,367.654 C46.502,360.103 46.851,352.555 47.18,345.008 C47.46,338.547 47.724,332.091 47.826,325.623 C47.938,318.413 48.582,310.682 46.389,303.727 C46.081,302.754 44.549,304.188 44.424,304.702 L44.424,304.702 Z" id="Shape"></path>
                        <path d="M136.494,298.373 C134.653,305.46 135.008,313.207 134.737,320.488 C134.465,327.828 134.51,335.195 134.399,342.541 C134.162,358.139 134.031,373.741 133.958,389.342 C136.479,387.609 138.999,385.873 141.52,384.141 C140.06,382.616 139.718,382.244 137.633,381.813 C136.403,381.559 134.53,383.141 134.159,384.219 C133.371,386.5 133.078,387.746 134.222,389.942 C135.868,393.102 141.794,386.925 141.785,384.741 C141.714,369.953 141.601,355.16 141.372,340.374 C141.263,333.352 141.153,326.328 141.045,319.307 C140.936,312.269 141.602,303.706 139.253,297.012 C138.771,295.646 136.682,297.644 136.494,298.373 L136.494,298.373 Z" id="Shape"></path>
                        <path d="M156.076,301.895 C153.386,312.355 154.646,324.422 154.172,335.179 C153.901,341.304 153.646,347.375 153.586,353.502 C153.524,359.742 153.413,365.981 153.179,372.219 C153.087,374.661 152.983,377.111 152.766,379.547 C152.633,381.045 152.044,382.936 152.64,384.392 C153.767,387.145 157.888,383.879 158.828,382.496 C155.17,385.032 154.39,385.742 156.486,384.627 C157.118,384.254 157.685,383.802 158.192,383.272 C158.958,382.467 159.53,381.485 159.902,380.444 C160.634,378.396 160.535,376.126 160.645,373.974 C160.983,367.4 161.005,360.802 161.041,354.221 C161.077,347.533 161.137,340.882 161.331,334.198 C161.485,328.864 161.519,323.526 161.525,318.189 C161.53,312.362 162.153,305.399 160.229,299.842 C159.514,297.786 156.357,300.798 156.076,301.895 L156.076,301.895 Z" id="Shape"></path>
                        <path d="M156.764,301.562 C172.159,302.049 187.618,298.913 202.882,297.323 C211.461,296.429 220.087,295.836 228.715,296.084 C232.163,296.183 235.6,296.512 239.003,297.066 C242.185,297.587 245.436,299.551 248.614,298.81 C250.26,298.426 253.235,296.485 252.831,294.417 C251.979,290.059 238.977,290.088 235.501,289.922 C226.889,289.511 218.215,290.286 209.653,291.166 C192.991,292.878 176.444,296.184 159.725,297.312 C158.117,297.422 154.021,301.475 156.764,301.562 L156.764,301.562 Z" id="Shape"></path>
                        <path d="M249.967,295.158 C246.96,310.128 248.844,326.547 249.288,341.713 C249.76,357.851 250.361,374.106 249.149,390.224 C251.663,388.739 254.173,387.252 256.686,385.767 C255.702,383.988 254.79,382.993 253.17,381.762 C251.244,380.297 247.742,383.328 247.863,385.41 C248.002,387.793 248.439,389.426 249.397,391.558 C250.645,394.337 256.893,389.087 256.934,387.101 C257.247,371.876 257.166,356.714 256.432,341.499 C256.058,333.747 255.635,325.999 255.163,318.252 C254.669,310.149 254.907,301.607 252.878,293.716 C252.512,292.276 250.123,294.386 249.967,295.158 L249.967,295.158 Z" id="Shape"></path>
                        <path d="M41.666,393.853 C51.716,395.749 62.567,394.529 72.715,393.954 C83.198,393.359 93.672,392.566 104.12,391.527 C111.803,390.763 119.407,389.756 127.129,390.089 C131.728,390.288 136.482,391.206 140.006,387.528 C140.797,386.702 142.258,384.542 140.643,383.732 C139.929,383.376 139.039,383.585 138.291,383.68 C136.569,383.901 133.411,386.383 134.425,388.36 C134.441,388.239 134.456,388.119 134.471,387.999 C135.478,386.788 136.486,385.579 137.493,384.367 C137.45,384.391 137.407,384.415 137.364,384.439 C138.425,384.224 139.486,384.01 140.548,383.795 C139.373,383.175 137.846,383.524 136.578,383.563 C134.016,383.641 131.455,383.524 128.895,383.452 C120.978,383.225 112.9,384.775 105.046,385.663 C94.945,386.806 84.815,387.675 74.678,388.421 C64.408,389.179 54.032,388.99 43.803,390.15 C42.583,390.285 39.271,393.4 41.666,393.853 L41.666,393.853 Z" id="Shape"></path>
                        <path d="M152.458,382.504 C150.412,389.953 179.951,385.557 183.554,385.284 C204.944,383.668 226.882,386.263 248.177,388.099 C248.488,386.304 248.799,384.51 249.11,382.715 C247.6,384.059 246.102,385.215 245.001,386.928 C243.772,388.835 244.813,390.128 246.942,389.37 C248.853,388.69 250.468,387.663 252.116,386.495 C253.384,385.599 256.444,381.343 253.05,381.111 C231.234,379.632 208.834,377.407 186.982,379.347 C179.565,380.004 172.234,381.418 164.792,381.83 C161.668,382.005 158.752,381.282 155.691,381.213 C154.656,381.192 152.811,381.213 152.458,382.504 L152.458,382.504 Z" id="Shape"></path>
                        <path d="M2.49,54.303 C0.118,63.696 0.805,74.541 1.303,84.156 C1.336,84.795 2.104,85.228 2.672,85.194 C12.16,84.624 24.132,86.879 32.762,82.324 C33.634,81.864 36.73,78.939 34.708,78.045 C31.062,76.433 25.817,78.093 21.878,78.233 C16.652,78.421 11.445,78.508 6.239,79.015 C6.959,79.338 7.677,79.661 8.397,79.984 C7.897,75.77 7.557,71.546 7.253,67.313 C6.91,62.531 7.141,57.343 5.593,52.767 C5.074,51.229 2.696,53.482 2.49,54.303 L2.49,54.303 Z" id="Shape"></path>
                        <path d="M1.208,55.415 C14.291,57.368 27.657,59.904 40.749,56.395 C51.084,53.625 59.598,46.852 67.982,40.525 C90.621,23.443 115.67,12.383 143.92,8.752 C157.682,6.982 172.906,6.673 186.524,9.678 C198.253,12.266 207.561,19.756 216.257,27.616 C224.236,34.827 232.229,42.786 242.482,46.601 C252.954,50.497 264.747,51.412 275.823,51.144 C281.542,51.006 287.305,50.373 292.858,48.983 C292.058,48.374 291.259,47.763 290.462,47.153 C288.003,54.796 286.517,62.627 288.01,70.614 C289.522,68.798 291.034,66.981 292.546,65.165 C279.038,69.375 264.397,66.124 250.96,70.43 C249.878,70.777 246.491,74.117 249.12,74.476 C255.845,75.394 262.872,74.963 269.651,74.705 C277.04,74.423 284.333,73.606 291.407,71.398 C293.282,70.813 296.368,68.215 295.942,65.948 C294.532,58.423 296.049,51.171 298.357,43.987 C298.847,42.464 297.11,41.87 295.961,42.157 C285.022,44.898 273.407,44.675 262.298,43.161 C250.243,41.52 241.041,36.946 231.798,29.16 C223.311,22.011 215.612,13.982 205.927,8.392 C194.815,1.979 181.66,1.152 169.117,0.996 C142.292,0.663 115.595,7.512 91.839,19.819 C80.278,25.809 70.05,33.751 59.666,41.519 C55.421,44.695 51.048,47.638 46.142,49.693 C39.702,52.391 32.831,52.533 25.964,52.588 C18.561,52.645 11.011,52.352 3.625,51.947 C2.221,51.872 -1.032,55.08 1.208,55.415 L1.208,55.415 Z" id="Shape"></path>
                        <path d="M12.967,403.383 C13.807,415.237 14.541,427.635 17.532,439.168 C17.708,439.845 18.191,440.127 18.865,440.179 C40.386,441.793 61.743,438.002 83.207,437.144 C105.87,436.237 128.582,437.735 151.253,437.468 C196.577,436.936 241.868,432.596 287.157,430.862 C289.708,430.764 293.22,428.473 293.595,425.745 C295.129,414.633 293.833,403.38 295.261,392.258 C295.543,390.063 293.302,390.151 291.823,390.7 C289.499,391.565 287.32,392.324 285.195,393.634 C284.479,394.073 280.838,398.181 283.786,398.001 C286.272,397.849 288.249,397.863 290.668,397.032 C289.522,396.513 288.376,395.995 287.23,395.475 C285.61,406.569 287.142,417.832 285.628,428.938 C287.774,427.233 289.92,425.527 292.066,423.821 C247.355,425.599 202.701,429.646 157.962,430.604 C135.214,431.091 112.465,429.905 89.717,430.54 C67.459,431.163 45.425,435.51 23.102,434.101 C23.546,434.438 23.991,434.775 24.435,435.111 C21.256,423.862 21.492,411.664 17.569,400.678 C16.777,398.455 12.85,401.727 12.967,403.383 L12.967,403.383 Z" id="Shape"></path>
                        <path d="M12.292,406.407 C17.48,406.452 22.837,406.72 27.801,404.943 C29.432,404.359 31.054,402.918 31.773,401.336 C32.483,399.773 31.582,398.356 29.787,398.836 C27.391,399.478 25.493,400.424 23.621,402.053 C23.19,402.427 22.406,403.153 22.586,403.825 C22.968,405.254 24.886,405.127 26.058,405.297 C26.996,403.235 27.931,401.176 28.869,399.115 C24.236,400.858 19.238,401.203 14.497,402.594 C13.451,402.901 12.524,403.49 11.892,404.398 C11.45,405.029 11.069,406.396 12.292,406.407 L12.292,406.407 Z" id="Shape"></path>
                        <path d="M262.676,396.209 C266.239,397.522 270.944,396.906 274.661,396.983 C276.902,397.03 279.143,397.075 281.386,397.132 C282.27,397.153 283.058,397.419 283.954,397.228 C284.284,397.158 286.032,396.671 284.894,396.977 C284.985,396.954 285.09,396.942 285.184,396.925 C287.868,396.444 292.689,389.956 287.966,390.804 C286.779,391.017 279.862,395.95 283.737,396.855 C286.602,397.524 292.202,391.524 289.413,390.875 C286.375,390.166 282.952,390.668 279.784,390.731 C275.32,390.821 270.357,390.382 265.989,391.464 C265.009,391.711 260.084,395.256 262.676,396.209 L262.676,396.209 Z" id="Shape"></path>
                        <path d="M281.289,73.617 C279.93,87.464 281.156,101.856 281.322,115.761 C281.503,130.863 281.541,145.967 281.513,161.07 C281.46,190.763 281.092,220.456 280.781,250.146 C280.492,277.566 281.441,305.277 279.379,332.629 C278.603,342.918 277.688,353.194 277.68,363.524 C277.676,368.467 278.007,373.407 278.807,378.287 C279.194,380.645 279.811,382.952 280.564,385.219 C280.92,386.29 282.548,389.197 282.342,390.148 C285.109,387.949 287.875,385.752 290.642,383.55 C293.082,384.048 289.332,381.609 288.679,381.14 C286.27,379.411 279.588,384.776 280.673,387.503 C281.482,389.538 281.468,392.57 284.313,392.626 C287.319,392.687 292.505,389.39 292.613,386.029 C292.676,384.119 292.152,383.434 291.108,381.867 C289.782,379.874 289.134,377.568 288.51,375.283 C287.259,370.701 286.813,365.901 286.517,361.178 C285.829,350.175 286.755,339.122 287.339,328.138 C287.949,316.622 287.596,305.09 287.562,293.565 C287.516,278.367 287.708,263.168 287.84,247.969 C288.103,218.3 288.419,188.632 288.453,158.963 C288.47,144.525 288.404,130.088 288.24,115.65 C288.16,108.466 288.033,101.284 287.832,94.102 C287.621,86.473 287.853,78.561 286.518,71.033 C286.082,68.58 281.439,72.085 281.289,73.617 L281.289,73.617 Z" id="Shape"></path>
                        <path d="M12.729,83.061 C10.751,110.515 12.021,138.26 12.837,165.758 C13.671,193.868 14.744,221.972 15.638,250.081 C16.539,278.436 17.234,306.802 17.37,335.172 C17.474,357.067 15.059,380.088 19.439,401.691 C20.079,404.843 27.401,400.364 26.612,397.472 C21.045,377.076 23.833,354.33 23.743,333.418 C23.622,305.064 22.869,276.716 21.945,248.379 C21.03,220.285 19.918,192.199 19.022,164.107 C18.144,136.556 18.352,108.822 16.182,81.353 C16.062,79.826 12.807,81.974 12.729,83.061 L12.729,83.061 Z" id="Shape"></path>
                    </g>
                    <path d="M389.203,80.092 C402.087,74.893 414.523,68.4 427.211,62.733 C435.369,59.089 443.581,55.559 451.881,52.252 C457.641,49.958 463.72,47.403 469.743,46.201 C471.184,45.913 468.67,45.675 469.598,46.045 C470.457,46.388 471.138,46.687 472.099,46.58 C473.73,46.398 475.335,45.861 476.589,44.76 C481.328,40.602 476.466,35.471 471.302,38.09 C467.574,39.981 460.682,41.613 455.913,43.458 C439.533,49.797 423.559,57.262 407.686,64.765 C401.118,67.87 394.303,70.872 388.065,74.613 C385.395,76.213 385.162,81.723 389.203,80.092 L389.203,80.092 Z" id="Shape"></path>
                    <path d="M385.947,394.5 C389.351,394.841 392.523,393.348 395.7,392.277 C400.215,390.756 404.672,389.081 409.21,387.624 C418.17,384.747 427.297,382.331 436.42,380.032 C454.358,375.514 472.596,371.905 490.343,366.674 C488.731,364.022 487.118,361.369 485.506,358.718 C484.051,360.442 482.886,362.288 482.299,364.475 C481.766,366.458 483.353,367.955 485.258,367.847 C487.674,367.708 489.77,367.178 491.889,365.992 C497.179,363.027 497.457,353.172 489.747,355.669 C472.023,361.41 453.896,365.6 435.898,370.404 C426.734,372.851 417.653,375.527 408.728,378.748 C401.193,381.468 390.22,384.512 385.205,391.178 C384.458,392.17 384.214,394.326 385.947,394.5 L385.947,394.5 Z" id="Shape"></path>
                    <path d="M486.893,31.77 C484.374,37.688 484.328,44.319 484.028,50.697 C483.66,58.51 483.892,66.375 484.145,74.188 C484.629,89.136 486.005,104.051 486.785,118.986 C488.474,151.364 488.824,183.889 489.883,216.299 C491.046,251.871 491.852,287.647 490.33,323.227 C489.993,331.094 489.599,338.975 488.739,346.804 C488.437,349.557 487.721,352.175 487.015,354.848 C486.91,355.246 486.786,355.641 486.674,356.038 C485.917,358.733 486.577,357.142 486.559,357.27 C486.34,358.792 488.5,352.916 486.511,357.222 C488.019,355.9 489.527,354.576 491.033,353.253 C491.403,353.181 491.774,353.107 492.144,353.034 C486.518,353.66 482.574,364.126 489.943,363.307 C493.61,362.899 489.613,363.355 488.985,363.209 C490.386,363.533 491.856,363.009 493.077,362.376 C494.28,361.752 495.235,360.788 496.1,359.769 C497.637,357.957 498.55,355.77 498.924,353.448 C499.839,347.768 499.819,341.919 500.128,336.013 C501.016,319.086 501.115,302.085 501.199,285.138 C501.426,239.477 499.256,193.888 497.761,148.259 C497.095,127.947 496.238,107.785 494.571,87.528 C493.781,77.923 492.982,68.312 492.508,58.686 C492.278,53.995 492.234,49.3 492.139,44.605 C492.044,39.919 492.588,35.403 491.333,30.864 C490.709,28.599 487.447,30.468 486.893,31.77 L486.893,31.77 Z" id="Shape"></path>
                    <path d="M485.574,37.289 C485.576,37.254 485.578,37.22 485.58,37.185 C485.551,37.531 485.521,37.876 485.492,38.221 C485.499,38.161 485.513,38.103 485.536,38.046 C485.412,38.407 485.289,38.769 485.166,39.131 C485.178,39.107 485.189,39.082 485.202,39.058 C484.326,39.992 483.449,40.926 482.572,41.861 C483.053,41.614 483.472,41.265 483.899,40.934 C483.519,41.205 483.14,41.477 482.76,41.748 C482.809,41.715 482.861,41.688 482.916,41.667 C482.509,41.847 482.103,42.026 481.696,42.206 C481.755,42.184 481.815,42.166 481.877,42.154 C481.463,42.237 481.05,42.32 480.636,42.404 C480.778,42.38 480.915,42.372 481.058,42.372 C480.65,42.353 480.242,42.334 479.832,42.316 C479.868,42.318 479.905,42.321 479.941,42.324 C479.573,42.196 479.205,42.068 478.837,41.94 C479.376,42.232 479.866,42.336 480.429,42.411 C480.042,42.277 479.656,42.142 479.269,42.008 C480.067,42.612 481.228,42.673 482.181,42.639 C483.423,42.596 484.456,42.105 485.547,41.564 C487.35,40.67 488.848,38.692 489.267,36.736 C489.629,35.044 489.113,33.222 487.522,32.35 C486.139,31.592 484.541,31.614 483.067,32.072 C481.957,32.417 480.978,32.963 480.103,33.731 C479.275,34.453 478.623,35.307 478.146,36.294 C477.981,36.757 477.822,37.223 477.669,37.69 C478.896,36.099 480.121,34.507 481.347,32.916 C480.192,33.515 479.194,34.34 478.389,35.369 C478.737,34.997 479.084,34.624 479.432,34.252 C478.173,35.318 477.029,36.79 476.714,38.449 C476.421,39.992 476.87,41.284 478.191,42.158 C478.215,42.175 478.241,42.191 478.265,42.208 C478.005,42.001 477.745,41.794 477.485,41.587 C478.25,42.321 478.455,42.331 479.441,42.67 C480.156,42.786 480.857,42.73 481.546,42.5 C482.331,42.241 483.034,41.836 483.654,41.288 C484.279,40.744 484.771,40.1 485.131,39.354 C485.449,38.701 485.595,38.013 485.574,37.289 L485.574,37.289 Z" id="Shape"></path>
                    <path d="M6.615,370.922 C6.591,371.11 6.567,371.296 6.544,371.484 C6.362,372.908 6.656,373.847 7.827,374.709 C16.024,380.732 27.34,382.941 36.96,385.64 C45.866,388.138 54.714,390.828 63.632,393.282 C73.471,395.989 83.332,398.622 93.07,401.679 C97.27,402.997 101.429,404.437 105.484,406.153 C108.41,407.391 110.992,409.745 114.023,410.464 C117.592,411.312 121.325,407.1 120.356,403.717 C119.511,400.772 116.112,399.571 113.528,398.424 C109.389,396.588 105.126,395.089 100.828,393.669 C90.361,390.213 79.659,387.47 69.018,384.608 C59.693,382.1 50.447,379.324 41.122,376.811 C35.094,375.187 29.078,373.51 23.164,371.503 C19.449,370.242 13.456,366.24 9.59,367.763 C8.278,368.277 6.808,369.401 6.615,370.922 L6.615,370.922 Z" id="Shape"></path>
                    <path d="M4.482,50.88 C-0.341,62.777 -0.259,75.8 0.211,88.443 C0.749,102.919 2.553,117.318 3.736,131.747 C6.274,162.697 3.878,194.179 3.7,225.2 C3.517,257.305 5.861,289.273 6.119,321.352 C6.199,331.389 6.131,341.426 6.09,351.462 C6.067,357.107 5.075,363.589 6.473,368.929 C7.88,374.307 16.897,368.614 15.616,363.718 C15.522,363.359 15.428,362.999 15.334,362.64 C14.066,357.795 7.292,362.597 6.64,365.441 C6.543,365.863 6.447,366.283 6.35,366.705 C4.861,373.194 14.602,370.905 15.741,365.943 C16.943,360.706 16.026,354.623 16.004,349.248 C15.964,339.551 15.955,329.853 15.876,320.158 C15.621,288.762 13.133,257.47 13.103,226.054 C13.073,195.501 15.211,164.494 12.782,134.017 C11.641,119.703 9.381,105.507 8.029,91.215 C6.742,77.617 7.328,64.222 7.791,50.612 C7.857,48.609 4.943,49.744 4.482,50.88 L4.482,50.88 Z" id="Shape"></path>
                    <path d="M4.186,51.661 C5.406,52.289 6.099,53.947 7.591,54.756 C10.975,56.592 14.795,57.863 18.381,59.258 C25.894,62.181 33.565,64.552 41.2,67.112 C54.435,71.548 67.944,75.651 80.96,80.69 C86.703,82.913 92.629,84.638 98.429,86.702 C100.628,87.484 102.765,88.409 104.988,89.121 C106.876,89.725 109.058,89.79 110.808,90.756 C110.452,90.171 110.096,89.585 109.74,89 C109.894,88.504 110.047,88.008 110.2,87.513 C108.344,89.286 108.825,92.24 111.787,91.593 C114.66,90.966 117.302,88.126 115.309,85.294 C114.454,84.078 111.67,83.848 110.392,83.555 C107.158,82.812 104.121,81.487 100.999,80.38 C86.39,75.198 71.654,70.361 56.983,65.35 C46.276,61.693 35.468,58.347 24.79,54.611 C18.197,52.303 11.456,49.038 4.528,50.663 C4.174,50.745 3.718,51.42 4.186,51.661 L4.186,51.661 Z" id="Shape"></path>
                    <path d="M385.789,107.362 C392.689,107.284 400.354,103.6 406.738,101.362 C418.256,97.324 429.627,92.881 440.955,88.342 C451.184,84.244 461.379,80.009 471.347,75.304 C474.25,73.933 483.755,70.555 483.411,66.732 C483.253,64.977 480.551,66.189 480.679,67.608 C480.591,66.626 481.429,66.512 480.213,67.328 C479.317,67.93 478.412,68.499 477.475,69.036 C474.279,70.869 470.932,72.451 467.601,74.02 C457.836,78.624 447.862,82.796 437.864,86.863 C427.535,91.063 417.107,95.047 406.599,98.776 C399.991,101.121 393.223,103.711 386.301,104.978 C385.097,105.2 383.972,107.383 385.789,107.362 L385.789,107.362 Z" id="Shape"></path>
                    <path d="M385.086,148.945 C397.073,144.168 408.804,138.83 420.879,134.244 C432.929,129.667 444.919,125.019 456.865,120.178 C466.034,116.462 475.011,112.571 484.362,109.388 C485.957,108.845 488.151,108.562 488.581,106.554 C489.106,104.102 485.722,104.564 484.364,104.678 C483.086,104.784 481.415,107.388 483.347,107.649 C483.986,107.696 484.612,107.813 485.224,107.997 C486.048,105.89 486.029,105.215 485.165,105.975 C484.164,106.707 482.749,106.973 481.586,107.333 C478.277,108.359 475.336,109.469 472.137,110.87 C462.408,115.131 452.502,118.978 442.687,123.032 C423.481,130.963 402.713,136.797 384.784,147.495 C384.076,147.917 384.014,149.372 385.086,148.945 L385.086,148.945 Z" id="Shape"></path>
                    <path d="M389.644,186.399 C391.227,189.62 425.136,171.349 428.711,169.623 C440.196,164.074 452.046,159.269 463.659,153.991 C468.924,151.598 474.097,148.999 479.555,147.079 C481.451,146.412 483.356,145.774 485.263,145.144 C486.123,144.86 486.971,144.582 487.859,144.4 C488.692,144.228 489.361,144.371 488.241,144.126 C488.331,143.038 488.42,141.95 488.509,140.862 C487.9,141.274 487.21,141.578 486.589,141.983 C485.682,142.574 484.889,144.831 486.737,144.605 C487.757,144.481 488.717,144.289 489.647,143.839 C490.936,143.216 491.595,141.093 489.915,140.575 C488.089,140.012 484.339,142.193 482.684,142.76 C479.333,143.907 476.037,145.091 472.825,146.584 C459.215,152.909 445.364,158.754 431.804,165.176 C423.618,169.053 415.56,173.202 407.431,177.198 C403.497,179.132 399.538,181.01 395.575,182.883 C394.18,183.542 391.361,185.571 390.131,185.767 C389.884,185.806 389.497,186.101 389.644,186.399 L389.644,186.399 Z" id="Shape"></path>
                    <path d="M385.839,223.13 C404.243,221.38 421.943,212.038 438.062,203.613 C455.564,194.465 472.888,183.959 492.141,178.958 C493.936,178.492 494.98,175.258 492.449,175.283 C490.097,175.306 488.107,175.763 486.308,177.333 C485.413,178.114 485.629,179.954 487.111,179.395 C488.478,178.878 490.201,179.074 491.64,179.06 C491.743,177.835 491.845,176.61 491.948,175.385 C474.256,181.173 457.894,190.005 441.523,198.721 C423.57,208.281 405.794,216.405 385.996,221.263 C385.099,221.483 384.554,223.252 385.839,223.13 L385.839,223.13 Z" id="Shape"></path>
                    <path d="M387.099,260.185 C404.855,253.859 422.041,245.724 439.421,238.448 C448.037,234.841 456.687,231.312 465.392,227.926 C473.876,224.626 482.683,222.076 491.132,218.787 C492.952,218.078 493.538,214.881 490.956,215.557 C482.791,217.694 474.686,221.297 466.811,224.348 C457.563,227.93 448.403,231.737 439.266,235.589 C421.709,242.99 403.95,250.184 386.703,258.284 C385.664,258.772 385.727,260.673 387.099,260.185 L387.099,260.185 Z" id="Shape"></path>
                    <path d="M385.88,292.938 C399.835,291.959 413.931,285.097 426.723,279.893 C435.372,276.374 444.075,273.005 452.642,269.29 C460.749,265.775 468.826,262.187 476.955,258.722 C479.995,257.426 483.043,256.147 486.127,254.959 C487.826,254.305 489.652,254.043 490.788,253.067 C490.186,253.192 489.585,253.317 488.982,253.443 C489.007,253.453 489.031,253.464 489.055,253.475 C490.495,254.123 492.625,251.579 491.034,250.864 C492.131,251.357 490.59,250.59 490.252,250.48 C489.45,250.218 488.723,250.49 487.98,250.791 C485.118,251.95 482.268,253.198 479.417,254.4 C471.3,257.821 463.261,261.429 455.2,264.982 C447.437,268.403 439.587,271.541 431.74,274.762 C424.204,277.857 416.678,280.959 409.056,283.837 C401.471,286.702 393.607,288.675 386.006,291.442 C385.358,291.681 384.801,293.014 385.88,292.938 L385.88,292.938 Z" id="Shape"></path>
                    <path d="M387.104,325.271 C406.712,320.413 425.926,312.78 445.005,306.195 C455.716,302.499 466.424,298.78 477.029,294.79 C479.283,293.942 490.281,291.432 489.651,287.656 C489.308,285.602 486.16,287.031 486.436,288.687 C486.438,288.703 486.441,288.717 486.444,288.733 C486.816,288.134 487.189,287.536 487.561,286.937 C488.295,286.463 486.913,287.072 486.343,287.328 C485.45,287.73 484.481,288.389 483.493,288.819 C479.945,290.371 476.271,291.67 472.642,293.014 C462.09,296.926 451.458,300.624 440.825,304.308 C422.941,310.502 404.439,315.746 386.983,323.072 C385.778,323.579 385.322,325.712 387.104,325.271 L387.104,325.271 Z" id="Shape"></path>
                    <path d="M382.597,358.119 C394.561,359.456 407.386,354.752 418.378,350.598 C430.168,346.142 442.394,341.093 453.478,335.079 C460.499,331.27 467.934,328.137 475.212,324.861 C479.085,323.118 482.951,321.351 486.875,319.726 C487.967,319.274 489.097,319.086 490.114,318.451 C490.587,318.154 492.79,316.912 491.124,317.641 C492.774,316.918 493.121,313.753 490.964,314.698 C479.931,319.527 465.875,325.464 454.108,331.386 C431.527,342.75 408.455,352.915 383.25,356.21 C382.47,356.313 381.329,357.978 382.597,358.119 L382.597,358.119 Z" id="Shape"></path>
                    <path d="M3.494,80.897 C12.342,87.158 23.569,90.372 33.809,93.572 C45.58,97.25 57.343,100.623 68.865,105.056 C80.099,109.379 91.486,113.338 102.688,117.731 C106.841,119.359 111.452,120.318 115.444,122.063 C115.508,121.234 115.572,120.405 115.636,119.576 C117.046,118.398 115.907,119.083 114.291,119.019 C113.421,118.985 112.106,120.723 113.25,121.218 C114.646,121.822 116.071,122.798 117.452,121.645 C117.973,121.21 118.63,119.982 117.935,119.389 C116.801,118.422 115.128,118.266 113.731,117.941 C110.897,117.28 108.097,116.29 105.337,115.372 C94.274,111.694 83.39,107.314 72.501,103.153 C50.005,94.559 26.542,89.465 4.594,79.444 C3.81,79.086 2.669,80.313 3.494,80.897 L3.494,80.897 Z" id="Shape"></path>
                    <path d="M4.767,118.76 C13.721,120.277 22.638,121.506 31.477,123.666 C41.587,126.137 51.498,129.417 61.267,132.987 C79.971,139.821 97.847,148.345 115.893,156.691 C117.527,157.447 120.027,154.669 118.196,153.652 C116.516,152.718 115.147,152.825 113.276,153.091 C112.39,153.217 111.112,154.961 112.541,155.239 C113.812,155.487 114.85,155.931 115.893,156.691 C116.661,155.678 117.428,154.665 118.196,153.652 C99.733,144.899 80.724,136.887 61.475,130.038 C43.904,123.785 24.07,116.927 5.172,117.576 C4.64,117.594 4.014,118.632 4.767,118.76 L4.767,118.76 Z" id="Shape"></path>
                    <path d="M5.397,150.026 C14.251,154.122 23.581,157.297 32.602,161.02 C42.456,165.086 52.245,169.311 62.076,173.432 C80.526,181.164 99.172,187.85 118.23,193.897 C118.772,192.746 119.315,191.595 119.858,190.444 C117.978,190.242 116.216,189.881 114.319,189.888 C113.127,189.892 111.874,192.046 113.446,192.438 C115.191,192.873 116.454,193.674 118.23,193.897 C120.032,194.123 122.208,190.959 119.858,190.444 C100.013,186.096 80.96,177.928 62.261,170.161 C44.038,162.593 25.649,153.155 6.482,148.242 C5.655,148.031 4.402,149.566 5.397,150.026 L5.397,150.026 Z" id="Shape"></path>
                    <path d="M6.62,192.731 C26.226,199.72 46.71,204.478 66.483,211.059 C76.646,214.442 86.668,218.444 96.599,222.449 C100.589,224.058 104.539,225.506 108.622,226.861 C109.511,227.155 116.797,230.155 116.741,229.589 C116.866,230.862 118.5,230.455 119.021,229.699 C121.746,225.753 110.729,223.825 108.819,223.2 C97.979,219.656 87.449,215.06 76.72,211.168 C65.891,207.24 54.888,203.858 43.828,200.639 C31.884,197.163 19.641,193.464 7.33,191.562 C6.812,191.481 5.929,192.485 6.62,192.731 L6.62,192.731 Z" id="Shape"></path>
                    <path d="M10.815,226.475 C16.02,228.533 22.039,230.017 27.527,231.89 C37.962,235.449 48.306,239.259 58.604,243.196 C70.016,247.558 81.109,252.51 92.218,257.601 C98.028,260.263 103.774,263.116 109.941,264.831 C112.007,265.406 114.066,266.001 116.109,266.654 C117.205,267.005 118.272,267.413 119.317,267.891 C120.748,268.547 121.514,266.394 119.976,266.899 C118.779,267.293 117.903,269.567 119.757,269.513 C121.57,269.461 125.441,267.035 122.482,265.348 C118.519,263.087 113.624,262.206 109.272,260.994 C100.07,258.43 91.13,253.12 82.434,249.199 C76.668,246.6 70.849,244.193 64.948,241.927 C53.675,237.597 42.334,233.422 30.89,229.563 C28.079,228.615 12.831,221.887 10.735,226.114 C10.68,226.222 10.676,226.419 10.815,226.475 L10.815,226.475 Z" id="Shape"></path>
                    <path d="M6.501,261.888 C14.356,266.738 23.669,269.495 32.4,272.347 C42.047,275.497 51.81,278.286 61.518,281.24 C80.709,287.079 101.704,293.338 117.831,305.771 C119.334,306.93 122.127,303.751 120.255,302.572 C103.266,291.861 85.212,284.915 66.033,279.127 C56.291,276.188 46.482,273.472 36.752,270.491 C26.849,267.458 17.283,263.459 7.41,260.393 C6.695,260.17 5.735,261.415 6.501,261.888 L6.501,261.888 Z" id="Shape"></path>
                    <path d="M14.625,303.306 C15.029,305.483 17.373,306.268 19.168,307.219 C23.105,309.304 27.275,311.008 31.389,312.708 C43.279,317.624 55.321,322.171 67.334,326.773 C79.234,331.333 91.158,335.838 102.983,340.589 C106.994,342.2 111.002,343.834 114.932,345.636 C116.118,346.179 117.254,346.841 118.445,347.365 C120.057,348.075 119.28,348.169 119.803,346.939 C119.009,348.803 121.662,348.87 122.287,347.402 C123.894,343.63 112.152,340.342 110.122,339.515 C98.61,334.823 86.93,330.536 75.289,326.176 C62.581,321.418 49.865,316.674 37.254,311.663 C32.467,309.762 27.678,307.843 22.965,305.762 C20.504,304.676 17.927,302.927 15.233,302.771 C14.971,302.757 14.564,302.984 14.625,303.306 L14.625,303.306 Z" id="Shape"></path>
                    <path d="M10.833,339.62 C29.544,343.391 48.171,348.647 66.566,353.696 C77.895,356.804 89.225,360.065 100.295,364.011 C104.73,365.592 113.158,367.67 115.662,371.958 C116.448,373.305 118.13,372.174 118.465,371.055 C119.729,366.834 108.626,363.679 105.997,362.668 C95.269,358.545 84.142,355.434 73.065,352.412 C52.965,346.931 32.078,340.703 11.256,338.721 C10.794,338.678 10.215,339.495 10.833,339.62 L10.833,339.62 Z" id="Shape"></path>
                </g>
            </g>
        </g>
    </g>
</svg>