<?xml version="1.0" encoding="UTF-8"?>
<svg width="516px" height="502px" viewBox="0 0 516 502" version="1.1" xmlns="http://www.w3.org/2000/svg" xmlns:xlink="http://www.w3.org/1999/xlink">
    <!-- Generator: Sketch 41 (35326) - http://www.bohemiancoding.com/sketch -->
    <title>yougurt</title>
    <desc>Created with Sketch.</desc>
    <defs></defs>
    <g id="Page-1" stroke="none" stroke-width="1" fill="none" fill-rule="evenodd">
        <g id="Layer_1" transform="translate(-4800.000000, -1.000000)" fill="#010101">
            <g id="Layer_1_3_">
                <g id="yougurt" transform="translate(4799.000000, 0.000000)">
                    <g id="Layer_11_1_" transform="translate(0.000000, 77.000000)">
                        <path d="M101.105,65.659 C93.091,66.189 85.974,65.202 78.565,61.995 C71.071,58.751 64.182,54.195 57.028,50.291 C42.97,42.619 26.889,38.503 12.485,47.9 C-1.993,57.344 -2.306,74.882 8.823,87.147 C14.255,93.134 22.167,96.04 29.743,98.153 C33.753,99.27 37.846,100.089 41.899,101.025 C44.126,101.539 46.337,102.107 48.528,102.762 C49.376,103.041 50.214,103.347 51.04,103.682 C51.95,104.033 53.522,105.606 53.063,104.117 C54.378,101.402 55.692,98.687 57.007,95.972 C56.903,96.024 56.8,96.076 56.695,96.128 C58.218,95.818 59.74,95.508 61.263,95.198 C57.904,94.631 55.383,95.799 52.749,97.797 C49.93,99.936 49.264,104.889 53.265,105.974 C56.161,106.76 57.831,107.015 60.706,105.654 C63.45,104.356 65.78,100.532 64.651,97.509 C62.622,92.076 50.674,91.002 45.635,89.908 C38.447,88.348 31.19,87.071 24.547,83.778 C12.226,77.673 4.83,59.471 20.988,53.485 C49.238,43.018 73.287,85.536 101.344,70.009 C103.095,69.044 104.034,65.464 101.105,65.659 L101.105,65.659 Z" id="Shape"></path>
                        <path d="M98.075,70.464 C110.772,69.873 123.571,64.968 135.634,61.274 C148.568,57.314 161.366,52.946 174.05,48.243 C186.751,43.533 199.346,38.533 211.882,33.4 C224.177,28.365 236.268,22.62 248.895,18.534 C254.025,16.874 257.863,6.781 249.841,7.231 C246.678,7.408 244.134,8.269 241.275,9.581 C238.719,10.753 236.853,15.016 239.72,16.835 C241.699,18.091 243.538,18.642 245.892,18.777 C246.18,15.259 246.468,11.741 246.756,8.224 C235.448,14.507 223.316,19.272 211.389,24.296 C198.867,29.571 186.265,34.656 173.577,39.518 C160.872,44.386 148.095,49.078 135.21,53.443 C122.821,57.64 109.708,60.513 97.827,66.026 C95.872,66.933 95.206,70.598 98.075,70.464 L98.075,70.464 Z" id="Shape"></path>
                        <path d="M54.303,105.344 C62.022,121.253 75.944,132.122 89.644,142.808 C105.872,155.465 122.673,167.163 138.601,180.237 C157.569,195.805 176.266,211.755 195.64,226.819 C212.625,240.026 229.328,252.238 242.46,269.544 C245.525,266.256 248.59,262.968 251.654,259.679 C249.414,258.05 247.086,258.019 244.551,257.134 C241.462,256.056 235.161,259.539 237.337,263.464 C238.717,265.953 240.398,267.609 242.458,269.544 C247.418,274.203 256.805,266.033 252.728,260.532 C240.582,244.141 223.031,232.317 206.826,220.315 C187.137,205.733 168.227,190.039 148.988,174.868 C133.111,162.349 116.828,150.712 100.349,139.021 C85.527,128.504 69.594,117 58.609,102.271 C57.151,100.314 53.327,103.332 54.303,105.344 L54.303,105.344 Z" id="Shape"></path>
                        <path d="M244.217,259.801 C243.725,277.791 264.741,276.106 276.861,272.83 C293.075,268.448 308.085,260.115 322.925,252.469 C347.153,239.988 371.343,227.735 395.113,214.358 C421.705,199.391 448.25,184.315 475.979,171.529 C487.389,166.267 498.608,160.524 510.899,157.641 C516.605,156.303 519.742,146.012 511.865,146.12 C505.922,146.202 501.629,148.386 496.334,150.738 C494.02,151.766 491.565,157.78 495.74,157.974 C500.397,158.19 504.663,158.171 509.328,157.957 C509.649,154.117 509.972,150.277 510.293,146.436 C495.971,150.496 482.613,157.669 469.211,164.032 C455.436,170.572 441.947,177.72 428.565,185.024 C401.758,199.661 375.495,215.268 348.457,229.481 C331.557,238.366 314.362,247.2 297.085,255.35 C289.183,259.079 280.986,262.363 272.471,264.385 C266.48,265.807 259.32,266.652 253.927,263.028 C251.859,261.637 249.939,259.358 248.59,257.289 C247.216,255.182 244.26,258.227 244.217,259.801 L244.217,259.801 Z" id="Shape"></path>
                        <g id="Group" transform="translate(247.000000, 0.000000)">
                            <path d="M266.431,145.021 C265.712,139.768 261.237,135.417 257.555,131.979 C245.969,121.16 232.033,112.651 218.598,104.364 C206.661,97.001 194.559,90.008 182.904,82.193 C177.108,78.307 171.391,74.307 165.703,70.267 C163.353,73.918 161.049,77.598 158.807,81.314 C170.56,89.704 182.472,97.864 194.859,105.3 C208.088,113.241 221.255,121.317 233.795,130.321 C239.938,134.732 246.094,139.403 251.108,145.103 C252.839,147.071 253.53,147.851 254.102,149.811 C254.058,150.006 254.009,150.229 253.948,150.516 C253.828,151.079 253.756,151.471 253.715,151.747 C253.006,153.479 253.774,155.592 255.74,155.973 C261.93,157.174 267.247,150.981 266.431,145.021 Z" id="Shape"></path>
                            <path d="M139.696,51.565 C130.197,44.732 120.645,37.972 110.862,31.543 C93.018,19.815 73.425,7.799 52.57,2.465 C44.63,0.434 36.341,0.144 28.232,1.168 C23.931,1.711 19.701,3.135 15.531,4.266 C10.819,5.545 6.145,6.78 1.899,9.221 C0.724,9.896 -0.804,12.963 1.575,13.203 C6.944,13.745 12.213,12.127 17.521,11.367 C22.783,10.614 28.236,10.211 33.549,10.235 C46.459,10.295 58.934,16.212 70.146,22.001 C92.498,33.542 113.144,48.168 133.486,62.961 C135.268,59.038 137.294,55.223 139.696,51.565 Z" id="Shape"></path>
                        </g>
                        <path d="M85.721,142.189 C84.272,156.076 87.844,169.765 90.953,183.219 C94.466,198.41 97.421,213.561 99.871,228.955 C102.207,243.625 104.691,258.277 106.314,273.048 C107.687,285.527 107.563,298.1 108.744,310.593 C109.822,321.986 112.357,333.15 118.742,342.782 C124.795,351.916 133.463,359.148 142.207,365.587 C160.216,378.85 180.826,387.987 200.449,398.508 C202.763,394.705 205.078,390.904 207.392,387.099 C204.413,386.893 201.46,386.93 198.482,386.891 C195.281,386.848 191.753,391.363 193.976,394.211 C196.005,396.813 198.427,398.629 201.794,398.977 C206.782,399.49 215.378,391.126 208.737,387.568 C189.919,377.479 170.448,368.556 152.858,356.338 C144.18,350.31 136.18,343.223 129.956,334.644 C123.185,325.316 121.471,313.165 120.435,301.989 C119.368,290.447 119.204,278.878 117.815,267.357 C116.044,252.655 113.243,238.103 110.646,223.533 C108.118,209.344 105.243,195.412 101.432,181.504 C97.735,168.008 94.807,153.933 89.414,141.002 C88.667,139.193 85.875,140.708 85.721,142.189 L85.721,142.189 Z" id="Shape"></path>
                        <path d="M217.465,399.03 C223.932,406.312 231.246,410.548 239.931,414.875 C248.866,419.328 257.28,423.146 267.285,424.547 C285.024,427.034 305.77,421.252 320.717,411.612 C322.957,410.168 324.98,407.855 324.828,405.006 C324.661,401.856 321.341,400.518 318.624,401.524 C310.486,404.537 302.958,408.591 294.549,410.967 C286.977,413.107 278.942,413.731 271.135,412.827 C261.914,411.761 253.913,407.86 245.425,404.467 C236.604,400.941 228.673,397.942 219.2,396.757 C218.192,396.631 216.552,398.001 217.465,399.03 L217.465,399.03 Z" id="Shape"></path>
                        <path d="M474.858,169.891 C466.661,174.809 460.474,180.253 454.473,187.815 C447.982,195.996 442.781,205.059 437.967,214.298 C427.186,234.992 416.994,256.26 407.611,277.615 C402.335,289.627 397.353,301.775 392.61,314.008 C388.614,324.318 385.812,335.05 382.358,345.542 C379.035,355.639 374.684,365.41 367.692,373.511 C359.937,382.495 348.232,385.363 339.754,393.209 C337.414,395.376 336.416,401.429 341.368,400.706 C351.821,399.184 362.139,392.207 370.113,385.58 C378.933,378.25 385.175,368.142 389.704,357.742 C394.098,347.653 396.959,336.924 400.243,326.445 C404.11,314.103 409.256,302.148 414.271,290.24 C423.667,267.931 434.259,246.162 444.334,224.16 C448.636,214.765 453.333,205.582 458.34,196.547 C462.954,188.223 469.033,178.502 476.213,172.153 C477.566,170.958 476.612,168.837 474.858,169.891 L474.858,169.891 Z" id="Shape"></path>
                        <path d="M261.617,302.117 C260.688,312.884 259.463,323.509 259.028,334.325 C258.562,345.898 258.382,357.488 258.267,369.07 C258.164,379.535 258.153,390 258.141,400.466 C258.139,402.709 258.966,405.259 259.188,407.526 C259.304,408.714 259.388,409.908 259.464,411.099 C259.496,411.617 259.401,414.258 259.731,412.78 C262.086,411.411 264.443,410.043 266.797,408.674 C269.7,410.737 266.762,408.51 265.974,407.9 C264.146,406.481 261.07,408.796 260.379,410.442 C259.708,412.041 258.938,414.138 260.338,415.605 C262.596,417.966 266.776,415.733 267.797,413.159 C269.409,409.094 268.112,403.483 267.436,399.327 C265.904,389.942 267.053,379.605 266.958,370.069 C266.845,358.675 266.604,347.294 266.313,335.904 C266.022,324.407 264.632,313.146 263.59,301.721 C263.486,300.524 261.695,301.219 261.617,302.117 L261.617,302.117 Z" id="Shape"></path>
                        <path d="M289.905,96.446 C282.99,91.144 273.562,89.425 265.134,88.427 C256.886,87.45 248.494,87.188 240.194,87.328 C221.778,87.641 203.155,89.906 185.386,94.828 C171.487,98.678 154.598,105.184 148.092,119.143 C147.279,119.392 146.526,119.886 146.045,120.66 C138.488,132.826 152.844,145.92 161,153.423 C173.578,164.993 187.809,174.612 201.625,184.605 C217.516,196.099 233.496,214.501 255.176,205.12 C264.53,201.07 267.976,191.31 271.864,182.685 C274.459,176.935 277.718,171.605 281.154,166.381 C282.536,162.643 284.578,159.232 287.675,156.652 C288.856,154.879 290.024,153.096 291.157,151.29 C291.88,150.139 292.581,148.948 293.26,147.73 C294.465,145.253 295.698,142.789 296.883,140.301 C303.24,125.176 304.417,107.572 289.905,96.446 Z M282.455,155.022 C275.818,164.871 269.43,174.43 264.619,185.337 C261.291,192.883 258.19,199.584 249.255,200.963 C239.325,202.494 231.019,198.206 223.243,192.461 C213.782,185.469 204.841,177.871 195.282,170.97 C184.317,163.054 173.411,154.926 163.684,145.499 C158.989,140.948 147.215,130.208 151.637,122.604 C152.572,120.996 152.045,119.871 150.991,119.325 C160.224,105.204 181.351,100.024 196.633,96.952 C213.86,93.489 231.974,91.866 249.545,92.703 C268.814,93.621 292.681,96.084 295.489,119.569 C297.043,132.546 289.37,144.762 282.455,155.022 Z" id="Shape"></path>
                        <path d="M172.434,97.257 C164.27,94.667 155.393,94.255 148.834,88.072 C148.131,89.537 147.429,91.002 146.727,92.467 C155.304,89.903 163.748,90.772 172.368,92.64 C174.254,93.049 177.21,90.581 176.21,88.547 C170.368,76.666 177.894,66.777 188.45,61.269 C187.274,61.033 186.099,60.796 184.925,60.56 C189.133,67.813 193.92,74.627 199.213,81.129 C200.776,83.048 204.126,80.723 204.382,78.812 C205.729,68.788 217.135,64.187 226.256,64.883 C225.704,64.255 225.153,63.626 224.602,62.998 C224.309,68.573 221.691,73.847 220.583,79.282 C220.077,81.771 222.702,82.539 224.534,81.488 C232.335,77.009 255.03,69.767 251.962,86.332 C254.21,85.324 256.459,84.316 258.706,83.308 C257.034,81.753 255.956,81.149 253.726,80.642 C251.633,80.167 249.787,82.511 250.193,84.409 C250.613,86.375 251.125,87.302 252.488,88.767 C255.125,91.602 259.13,87.64 259.307,84.848 C260.7,63.129 234.357,69.637 222.66,76.587 C223.977,77.322 225.295,78.058 226.611,78.793 C227.722,72.813 230.291,67.198 230.592,61.077 C230.635,60.206 229.813,59.256 228.938,59.192 C216.279,58.267 200.436,65.242 198.812,79.263 C200.535,78.491 202.258,77.718 203.982,76.946 C198.902,70.836 194.281,64.377 190.269,57.515 C189.47,56.148 188.074,56.108 186.744,56.806 C173.93,63.535 163.746,76.995 170.984,91.528 C172.264,90.164 173.546,88.799 174.826,87.435 C165.291,85.415 155.895,84.691 146.467,87.608 C145.085,88.036 142.768,90.555 144.36,92.003 C151.329,98.339 161.929,101.16 171.214,100.839 C172.917,100.78 174.595,97.944 172.434,97.257 L172.434,97.257 Z" id="Shape"></path>
                        <path d="M276.958,90.164 C276.51,89.993 276.127,89.777 275.788,89.535 C275.756,89.897 275.733,90.265 275.721,90.639 C275.659,92.502 278.13,91.882 279.075,90.67 C278.357,90.579 277.65,90.428 276.958,90.164 Z" id="Shape"></path>
                        <path d="M287.663,156.661 C287.209,156.253 286.756,155.844 286.285,155.434 C285.722,154.94 284.694,155.578 284.772,156.302 C284.873,157.235 285.078,158.113 285.358,158.949 C286.052,158.13 286.819,157.365 287.663,156.661 Z" id="Shape"></path>
                        <path d="M176.891,123.009 C178.026,124.94 179.565,126.611 181.114,128.219 C182.854,130.028 184.858,132.054 187.095,133.231 C187.932,133.671 189.094,133.518 189.867,133.006 C190.898,132.325 191.482,131.706 191.803,130.495 C192.039,129.594 191.676,128.698 190.895,128.214 C189.03,127.058 187.146,126.045 185.372,124.732 C183.501,123.349 181.788,121.655 179.78,120.474 C178.542,119.747 176.081,121.627 176.891,123.009 L176.891,123.009 Z" id="Shape"></path>
                        <path d="M209.054,117.532 C208.927,120.5 209.802,124.512 212.041,126.615 C214.212,128.653 218.074,125.16 216.463,122.735 C215.709,121.601 214.88,120.529 214.154,119.376 C213.41,118.195 212.832,116.944 211.885,115.904 C210.815,114.726 209.104,116.371 209.054,117.532 L209.054,117.532 Z" id="Shape"></path>
                        <path d="M235.651,113.34 C235.675,113.471 235.702,113.603 235.726,113.736 C235.813,113.483 235.901,113.23 235.987,112.977 C235.22,113.99 235.48,115.418 235.452,116.641 C235.433,117.41 235.714,118.229 235.806,118.997 C235.907,119.82 236.095,120.615 236.491,121.345 C238.239,124.572 243.528,121.042 242.347,118.007 C241.941,116.965 241.282,116.108 240.599,115.236 C240.211,114.74 239.972,114.261 239.491,113.832 C239.06,113.448 238.555,113.143 238.194,112.692 C237.987,112.435 237.573,112.308 237.256,112.358 C237.165,112.372 237.077,112.386 236.987,112.4 C237.208,112.479 237.427,112.557 237.648,112.635 C237.561,112.539 237.475,112.442 237.388,112.345 C236.813,111.702 235.499,112.57 235.651,113.34 L235.651,113.34 Z" id="Shape"></path>
                        <path d="M265.168,111.771 C264.674,113.163 264.081,114.369 263.269,115.604 C262.439,116.863 261.251,117.832 260.665,119.248 C259.745,121.468 261.772,122.771 263.725,121.705 C266.996,119.917 269.341,114.791 268.117,111.171 C267.637,109.759 265.512,110.801 265.168,111.771 L265.168,111.771 Z" id="Shape"></path>
                        <path d="M205.2,150.262 C206.262,151.431 207.27,152.622 208.374,153.743 C209.603,154.994 210.675,156.461 212.001,157.603 C213.989,159.315 218.05,156.638 216.891,154.113 C215.234,150.502 211.175,148.879 207.699,147.583 C206.368,147.085 203.946,148.878 205.2,150.262 L205.2,150.262 Z" id="Shape"></path>
                        <path d="M225.394,146.135 C225.015,148.845 224.889,151.83 226.975,153.972 C229.689,156.76 234.254,150.672 231.21,149.427 C230.371,149.084 229.787,148.669 229.246,147.948 C228.746,147.281 227.986,146.479 227.82,145.644 C227.536,144.213 225.553,145.001 225.394,146.135 L225.394,146.135 Z" id="Shape"></path>
                        <path d="M251.468,145.209 C251.426,145.422 251.383,145.636 251.339,145.849 C251.515,145.477 251.692,145.106 251.865,144.734 C252.386,144.211 252.332,144.278 251.703,144.937 C251.381,145.362 251.227,145.786 251.091,146.292 C251.039,146.48 250.862,146.975 251.154,146.146 C251.063,146.402 250.834,146.698 251.359,145.887 C251.164,146.116 251.017,146.369 250.92,146.645 C250.822,146.902 250.55,147.145 251.143,146.305 C251.481,145.826 251.571,145.806 252.062,145.499 C251.653,145.756 250.625,146.406 251.806,145.671 C250.744,146.332 249.799,147.455 249.869,148.782 C249.902,149.425 250.232,150.015 250.807,150.326 C251.465,150.682 252.1,150.561 252.789,150.422 C254.477,150.082 255.613,148.502 256.121,146.98 C256.267,146.542 256.242,146.079 256.184,145.629 C256.144,145.323 256.069,145.006 256.002,144.71 C255.966,144.483 255.859,144.283 255.687,144.11 C255.157,143.689 255.101,143.644 255.519,143.976 C255.643,144.294 255.767,144.612 255.891,144.931 C255.817,144.573 255.745,144.215 255.664,143.858 C255.463,142.933 254.189,142.838 253.486,143.064 C252.542,143.365 251.663,144.213 251.468,145.209 L251.468,145.209 Z" id="Shape"></path>
                        <path d="M233.845,172.18 C233.776,172.611 233.741,173.042 233.705,173.477 C233.877,173.063 233.849,173.167 233.619,173.79 C233.546,174.138 233.576,174.489 233.607,174.837 C233.699,175.912 233.93,176.72 234.599,177.742 C235.89,179.717 239.171,180.639 241.158,179.233 C242.134,178.541 243.742,176.922 242.951,175.53 C242.371,174.512 241.693,174.282 240.637,173.985 C240.539,173.958 239.593,173.648 240.104,173.845 C239.807,173.73 239.538,173.556 239.253,173.414 C238.65,173.112 238.412,172.932 238.065,172.538 C237.778,172.211 237.655,171.926 237.274,171.666 C237.722,171.973 237.354,171.317 237.298,171.066 C237.127,170.306 236.088,170.227 235.506,170.413 C234.749,170.655 233.977,171.363 233.845,172.18 L233.845,172.18 Z" id="Shape"></path>
                        <path d="M269.524,188.83 C269.756,188.351 270.003,187.881 270.262,187.419 C270.259,187.401 270.258,187.396 270.254,187.375 C270.202,187.123 270.15,186.871 270.096,186.62 C270.057,186.384 269.949,186.176 269.782,185.992 C269.042,183.749 265.709,185.253 265.365,187.22 C265.361,187.241 265.359,187.25 265.356,187.269 C265.179,187.575 265.093,187.925 265.003,188.263 C264.981,188.345 264.941,188.425 264.906,188.487 C264.888,188.539 264.87,188.59 264.852,188.642 C264.813,188.686 264.781,188.736 264.741,188.779 C264.719,188.803 264.691,188.834 264.663,188.865 C264.594,188.926 264.526,188.988 264.461,189.053 C263.605,189.871 262.841,191.128 263.311,192.354 C263.749,193.5 265.097,193.742 266.15,193.391 C266.873,193.149 267.517,192.801 268.076,192.364 C268.508,191.165 268.969,189.971 269.524,188.83 Z" id="Shape"></path>
                        <path d="M294.294,145.611 C295.465,143.233 296.621,140.848 297.731,138.441 C294.562,138.429 290.888,142.643 293.395,144.846 C293.695,145.109 293.995,145.361 294.294,145.611 Z" id="Shape"></path>
                        <path d="M149.573,70.607 C134.116,74.251 119.48,79.813 105.011,86.333 C97.24,89.834 84.896,95.896 84.925,106.051 C84.96,118.435 98.779,121.362 107.712,126.002 C122.412,133.639 134.969,145.45 147.733,155.795 C148.612,156.508 150.122,155.249 149.46,154.28 C141.69,142.919 130.036,134.296 118.655,126.821 C114.301,123.962 110.028,121.391 105.286,119.23 C100.636,117.11 95.058,115.197 91.538,111.334 C82.309,101.209 100.343,92.242 107.218,88.918 C120.974,82.268 135.173,76.437 149.618,71.468 C150.122,71.294 150.254,70.447 149.573,70.607 L149.573,70.607 Z" id="Shape"></path>
                        <path d="M227.626,47.611 C242.345,42.784 255.529,34.546 270.104,29.404 C277.443,26.816 285.124,25.642 292.842,26.892 C302.987,28.536 310.18,35.125 318.446,40.554 C319.884,41.497 322.05,39.129 321.05,37.762 C310.501,23.362 291.328,19.095 274.841,23.696 C257.88,28.428 243.782,39.981 227.566,46.465 C226.921,46.722 226.731,47.905 227.626,47.611 L227.626,47.611 Z" id="Shape"></path>
                    </g>
                    <path d="M318.271,94.462 C319.177,99.392 321.834,103.528 324.326,107.818 C327.51,113.298 330.093,118.644 331.865,124.74 C335.267,136.435 336.127,148.827 336.773,160.931 C338.158,186.882 337.171,212.313 331.698,237.795 C326.75,260.836 318.408,283.242 306.672,303.688 C296.69,321.077 284.167,336.058 265.597,344.426 C262.976,345.607 262.252,350.256 265.921,350.188 C276.004,350.001 284.43,343.719 291.487,337.081 C299.478,329.564 305.95,320.511 311.675,311.204 C324.726,289.991 333.684,266.492 339.491,242.319 C345.864,215.802 347.095,188.704 345.337,161.577 C344.519,148.939 342.99,136.244 339.701,123.994 C338.165,118.27 336.14,112.91 332.761,108.026 C329.162,102.825 324.772,97.903 320.704,93.064 C319.917,92.126 318.078,93.408 318.271,94.462 L318.271,94.462 Z" id="Shape"></path>
                    <path d="M310.712,90.481 C312.542,100.767 319.163,110.087 322.79,119.832 C327.156,131.563 328.064,144.128 325.908,156.426 C321.794,179.884 303.297,195.203 290.21,213.747 C284.126,222.369 279.341,231.875 277.282,242.277 C274.883,254.405 277.132,266.551 279.894,278.391 C282.42,289.215 284.475,299.885 284.926,311.016 C285.297,320.193 284.203,330.301 275.771,335.578 C271.185,338.447 272.716,345.488 278.417,342.498 C297.785,332.339 294.955,305.887 291.563,287.889 C289.116,274.907 284.872,262.402 285.049,249.043 C285.218,236.234 291.115,224.844 298.398,214.665 C305.395,204.884 313.792,196.178 320.62,186.271 C327.224,176.688 331.717,165.82 333.53,154.32 C335.389,142.529 334.002,130.501 330.091,119.274 C326.545,109.1 320.677,96.934 313.255,89.021 C312.393,88.101 310.508,89.338 310.712,90.481 L310.712,90.481 Z" id="Shape"></path>
                    <path d="M315.718,300.312 C320.454,298.562 324.395,294.721 328.339,291.667 C333.044,288.026 337.939,284.646 342.905,281.377 C353.506,274.397 364.582,268.152 375.817,262.26 C397.514,250.882 420.273,242.187 442.471,231.945 C448.327,229.243 447.963,219.161 440.29,221.434 C437.886,222.147 435.8,223.33 433.911,224.981 C431.769,226.852 430.553,230.471 433.344,232.329 C435.229,233.584 437.228,233.052 439.325,232.958 C439.646,229.117 439.969,225.276 440.29,221.435 C417.292,231.031 394.729,242.639 372.889,254.609 C361.717,260.732 350.795,267.318 340.28,274.513 C335.107,278.052 330.059,281.775 325.137,285.656 C320.895,289.003 315.78,292.654 313.355,297.621 C312.54,299.292 313.908,300.981 315.718,300.312 L315.718,300.312 Z" id="Shape"></path>
                    <path d="M346.716,204.268 C356.86,201.166 360.093,189.006 363.997,180.366 C370.289,166.439 376.959,152.635 383.916,139.02 C391.401,124.373 399.404,110.039 407.175,95.547 C414.381,82.109 422.502,68.731 428.846,54.879 C435.874,39.533 440.762,14.204 460.904,11.911 C472.072,10.639 475.256,16.959 473.739,27.18 C471.613,41.509 464.531,55.228 457.967,67.95 C451.556,80.373 444.404,92.39 437.169,104.346 C425.26,124.024 413.743,144.093 402.701,164.269 C394.525,179.207 390.051,195.857 383.825,211.658 C382.413,215.241 380.934,218.806 379.222,222.258 C378.931,222.845 378.618,223.419 378.301,223.992 C379.045,222.646 378.036,224.347 377.835,224.612 C378.282,224.023 381.527,221.202 378.176,224.143 C377.255,224.945 376.529,225.896 375.999,226.995 C375.41,228.806 375.311,229.052 375.701,227.736 C377.464,226.188 379.227,224.641 380.99,223.094 C380.756,223.18 380.521,223.266 380.286,223.352 C382.474,224.58 384.659,225.807 386.847,227.035 C386.759,225.397 386.667,223.759 386.577,222.121 C386.394,218.836 383.073,217.711 380.3,218.598 C377.017,219.648 374.794,222.567 374.612,225.957 C374.522,227.652 374.43,229.348 374.342,231.043 C374.166,234.444 378.288,235.693 380.903,234.726 C384.09,233.546 387.206,231.157 387.716,227.543 C386.311,229.368 384.904,231.193 383.499,233.018 C388.978,229.173 391.394,222.532 393.845,216.543 C397.309,208.08 400.31,199.427 403.379,190.815 C405.704,184.29 407.766,177.517 410.992,171.367 C418.228,157.573 426.201,144.179 434.006,130.704 C449.129,104.592 465.809,78.676 477.417,50.758 C482.237,39.167 487.634,25.274 484.659,12.556 C481.575,-0.635 465.134,-0.481 454.897,2.905 C434.616,9.613 428.199,33.64 421.009,51.202 C418.562,57.18 415.199,62.773 412.231,68.504 C408.424,75.857 404.729,83.267 400.89,90.603 C393.283,105.137 385.254,119.419 377.828,134.053 C371.115,147.284 364.56,160.64 358.852,174.341 C356.966,178.868 354.893,183.345 353,187.882 C351.176,192.256 348.899,197.344 345.251,200.511 C343.541,201.997 344.019,205.092 346.716,204.268 L346.716,204.268 Z" id="Shape"></path>
                    <path d="M339.64,151.753 C342.033,155.172 347.199,157.308 350.668,159.382 C352.91,160.723 355.144,162.097 357.304,163.568 C358.745,164.549 359.423,165.723 361.189,166.22 C364.309,167.098 367.279,163.891 368.068,161.26 C369.57,156.25 361.298,153.918 358.031,152.507 C353.341,150.482 347.357,147.316 342.076,147.796 C340.326,147.955 338.464,150.074 339.64,151.753 L339.64,151.753 Z" id="Shape"></path>
                    <path d="M398.431,183.271 C400.165,187.329 403.907,189.989 407.24,192.682 C411.445,196.079 415.759,199.342 419.902,202.815 C427.082,208.832 436.822,216.856 438.25,226.752 C440.398,224.468 442.548,222.185 444.696,219.901 C442.246,219.893 440.054,220.008 437.654,220.516 C433.768,221.337 430.396,228.477 435.674,229.761 C437.91,230.305 440.202,230.184 442.495,230.176 C445.54,230.166 449.429,226.535 448.941,223.325 C447.239,212.126 438.863,204.044 430.439,197.211 C425.893,193.523 421.056,190.059 416.07,186.99 C411.579,184.227 406.906,180.816 401.611,179.883 C399.99,179.596 397.684,181.524 398.431,183.271 L398.431,183.271 Z" id="Shape"></path>
                    <path d="M340.574,214.934 C345.371,222.067 350.824,227.191 359.132,230.07 C367.465,232.958 376.456,233.566 384.771,230.261 C388.402,228.818 389.627,222.641 384.421,223.814 C382.106,224.335 380.774,225.813 378.823,227.017 C377.294,227.962 375.996,230.764 378.461,231.446 C380.693,232.064 381.78,230.765 383.865,230.444 C384.051,228.234 384.236,226.024 384.421,223.814 C377.539,226.549 370.417,226.263 363.328,224.46 C356.26,222.662 347.611,218.61 342.617,213.141 C341.686,212.121 339.833,213.832 340.574,214.934 L340.574,214.934 Z" id="Shape"></path>
                </g>
            </g>
        </g>
    </g>
</svg>