<?xml version="1.0" encoding="UTF-8" standalone="no"?><!DOCTYPE svg PUBLIC "-//W3C//DTD SVG 1.1//EN" "http://www.w3.org/Graphics/SVG/1.1/DTD/svg11.dtd"><svg width="100%" height="100%" viewBox="0 0 517 503" version="1.1" xmlns="http://www.w3.org/2000/svg" xmlns:xlink="http://www.w3.org/1999/xlink" xml:space="preserve" style="fill-rule:evenodd;clip-rule:evenodd;stroke-linejoin:round;stroke-miterlimit:1.41421;"><g id="yougurt"><g id="Layer_11_1_"><path d="M101.105,142.659c-8.014,0.53 -15.131,-0.457 -22.54,-3.664c-7.494,-3.244 -14.383,-7.8 -21.537,-11.704c-14.058,-7.672 -30.139,-11.788 -44.543,-2.391c-14.478,9.444 -14.791,26.982 -3.662,39.247c5.432,5.987 13.344,8.893 20.92,11.006c4.01,1.117 8.103,1.936 12.156,2.872c2.227,0.514 4.438,1.082 6.629,1.737c0.848,0.279 1.686,0.585 2.512,0.92c0.91,0.351 2.482,1.924 2.023,0.435c1.315,-2.715 2.629,-5.43 3.944,-8.145c-0.104,0.052 -0.207,0.104 -0.312,0.156c1.523,-0.31 3.045,-0.62 4.568,-0.93c-3.359,-0.567 -5.88,0.601 -8.514,2.599c-2.819,2.139 -3.485,7.092 0.516,8.177c2.896,0.786 4.566,1.041 7.441,-0.32c2.744,-1.298 5.074,-5.122 3.945,-8.145c-2.029,-5.433 -13.977,-6.507 -19.016,-7.601c-7.188,-1.56 -14.445,-2.837 -21.088,-6.13c-12.321,-6.105 -19.717,-24.307 -3.559,-30.293c28.25,-10.467 52.299,32.051 80.356,16.524c1.751,-0.965 2.69,-4.545 -0.239,-4.35Z" style="fill:#010101;fill-rule:nonzero;"/><path d="M98.075,147.464c12.697,-0.591 25.496,-5.496 37.559,-9.19c12.934,-3.96 25.732,-8.328 38.416,-13.031c12.701,-4.71 25.296,-9.71 37.832,-14.843c12.295,-5.035 24.386,-10.78 37.013,-14.866c5.13,-1.66 8.968,-11.753 0.946,-11.303c-3.163,0.177 -5.707,1.038 -8.566,2.35c-2.556,1.172 -4.422,5.435 -1.555,7.254c1.979,1.256 3.818,1.807 6.172,1.942c0.288,-3.518 0.576,-7.036 0.864,-10.553c-11.308,6.283 -23.44,11.048 -35.367,16.072c-12.522,5.275 -25.124,10.36 -37.812,15.222c-12.705,4.868 -25.482,9.56 -38.367,13.925c-12.389,4.197 -25.502,7.07 -37.383,12.583c-1.955,0.907 -2.621,4.572 0.248,4.438Z" style="fill:#010101;fill-rule:nonzero;"/><path d="M54.303,182.344c7.719,15.909 21.641,26.778 35.341,37.464c16.228,12.657 33.029,24.355 48.957,37.429c18.968,15.568 37.665,31.518 57.039,46.582c16.985,13.207 33.688,25.419 46.82,42.725c3.065,-3.288 6.13,-6.576 9.194,-9.865c-2.24,-1.629 -4.568,-1.66 -7.103,-2.545c-3.089,-1.078 -9.39,2.405 -7.214,6.33c1.38,2.489 3.061,4.145 5.121,6.08c4.96,4.659 14.347,-3.511 10.27,-9.012c-12.146,-16.391 -29.697,-28.215 -45.902,-40.217c-19.689,-14.582 -38.599,-30.276 -57.838,-45.447c-15.877,-12.519 -32.16,-24.156 -48.639,-35.847c-14.822,-10.517 -30.755,-22.021 -41.74,-36.75c-1.458,-1.957 -5.282,1.061 -4.306,3.073Z" style="fill:#010101;fill-rule:nonzero;"/><path d="M244.217,336.801c-0.492,17.99 20.524,16.305 32.644,13.029c16.214,-4.382 31.224,-12.715 46.064,-20.361c24.228,-12.481 48.418,-24.734 72.188,-38.111c26.592,-14.967 53.137,-30.043 80.866,-42.829c11.41,-5.262 22.629,-11.005 34.92,-13.888c5.706,-1.338 8.843,-11.629 0.966,-11.521c-5.943,0.082 -10.236,2.266 -15.531,4.618c-2.314,1.028 -4.769,7.042 -0.594,7.236c4.657,0.216 8.923,0.197 13.588,-0.017c0.321,-3.84 0.644,-7.68 0.965,-11.521c-14.322,4.06 -27.68,11.233 -41.082,17.596c-13.775,6.54 -27.264,13.688 -40.646,20.992c-26.807,14.637 -53.07,30.244 -80.108,44.457c-16.9,8.885 -34.095,17.719 -51.372,25.869c-7.902,3.729 -16.099,7.013 -24.614,9.035c-5.991,1.422 -13.151,2.267 -18.544,-1.357c-2.068,-1.391 -3.988,-3.67 -5.337,-5.739c-1.374,-2.107 -4.33,0.938 -4.373,2.512Z" style="fill:#010101;fill-rule:nonzero;"/><g><path d="M513.431,222.021c-0.719,-5.253 -5.194,-9.604 -8.876,-13.042c-11.586,-10.819 -25.522,-19.328 -38.957,-27.615c-11.937,-7.363 -24.039,-14.356 -35.694,-22.171c-5.796,-3.886 -11.513,-7.886 -17.201,-11.926c-2.35,3.651 -4.654,7.331 -6.896,11.047c11.753,8.39 23.665,16.55 36.052,23.986c13.229,7.941 26.396,16.017 38.936,25.021c6.143,4.411 12.299,9.082 17.313,14.782c1.731,1.968 2.422,2.748 2.994,4.708c-0.044,0.195 -0.093,0.418 -0.154,0.705c-0.12,0.563 -0.192,0.955 -0.233,1.231c-0.709,1.732 0.059,3.845 2.025,4.226c6.19,1.201 11.507,-4.992 10.691,-10.952Z" style="fill:#010101;fill-rule:nonzero;"/><path d="M386.696,128.565c-9.499,-6.833 -19.051,-13.593 -28.834,-20.022c-17.844,-11.728 -37.437,-23.744 -58.292,-29.078c-7.94,-2.031 -16.229,-2.321 -24.338,-1.297c-4.301,0.543 -8.531,1.967 -12.701,3.098c-4.712,1.279 -9.386,2.514 -13.632,4.955c-1.175,0.675 -2.703,3.742 -0.324,3.982c5.369,0.542 10.638,-1.076 15.946,-1.836c5.262,-0.753 10.715,-1.156 16.028,-1.132c12.91,0.06 25.385,5.977 36.597,11.766c22.352,11.541 42.998,26.167 63.34,40.96c1.782,-3.923 3.808,-7.738 6.21,-11.396Z" style="fill:#010101;fill-rule:nonzero;"/></g><path d="M85.721,219.189c-1.449,13.887 2.123,27.576 5.232,41.03c3.513,15.191 6.468,30.342 8.918,45.736c2.336,14.67 4.82,29.322 6.443,44.093c1.373,12.479 1.249,25.052 2.43,37.545c1.078,11.393 3.613,22.557 9.998,32.189c6.053,9.134 14.721,16.366 23.465,22.805c18.009,13.263 38.619,22.4 58.242,32.921c2.314,-3.803 4.629,-7.604 6.943,-11.409c-2.979,-0.206 -5.932,-0.169 -8.91,-0.208c-3.201,-0.043 -6.729,4.472 -4.506,7.32c2.029,2.602 4.451,4.418 7.818,4.766c4.988,0.513 13.584,-7.851 6.943,-11.409c-18.818,-10.089 -38.289,-19.012 -55.879,-31.23c-8.678,-6.028 -16.678,-13.115 -22.902,-21.694c-6.771,-9.328 -8.485,-21.479 -9.521,-32.655c-1.067,-11.542 -1.231,-23.111 -2.62,-34.632c-1.771,-14.702 -4.572,-29.254 -7.169,-43.824c-2.528,-14.189 -5.403,-28.121 -9.214,-42.029c-3.697,-13.496 -6.625,-27.571 -12.018,-40.502c-0.747,-1.809 -3.539,-0.294 -3.693,1.187Z" style="fill:#010101;fill-rule:nonzero;"/><path d="M217.465,476.03c6.467,7.282 13.781,11.518 22.466,15.845c8.935,4.453 17.349,8.271 27.354,9.672c17.739,2.487 38.485,-3.295 53.432,-12.935c2.24,-1.444 4.263,-3.757 4.111,-6.606c-0.167,-3.15 -3.487,-4.488 -6.204,-3.482c-8.138,3.013 -15.666,7.067 -24.075,9.443c-7.572,2.14 -15.607,2.764 -23.414,1.86c-9.221,-1.066 -17.222,-4.967 -25.71,-8.36c-8.821,-3.526 -16.752,-6.525 -26.225,-7.71c-1.008,-0.126 -2.648,1.244 -1.735,2.273Z" style="fill:#010101;fill-rule:nonzero;"/><path d="M474.858,246.891c-8.197,4.918 -14.384,10.362 -20.385,17.924c-6.491,8.181 -11.692,17.244 -16.506,26.483c-10.781,20.694 -20.973,41.962 -30.356,63.317c-5.276,12.012 -10.258,24.16 -15.001,36.393c-3.996,10.31 -6.798,21.042 -10.252,31.534c-3.323,10.097 -7.674,19.868 -14.666,27.969c-7.755,8.984 -19.46,11.852 -27.938,19.698c-2.34,2.167 -3.338,8.22 1.614,7.497c10.453,-1.522 20.771,-8.499 28.745,-15.126c8.82,-7.33 15.062,-17.438 19.591,-27.838c4.394,-10.089 7.255,-20.818 10.539,-31.297c3.867,-12.342 9.013,-24.297 14.028,-36.205c9.396,-22.309 19.988,-44.078 30.063,-66.08c4.302,-9.395 8.999,-18.578 14.006,-27.613c4.614,-8.324 10.693,-18.045 17.873,-24.394c1.353,-1.195 0.399,-3.316 -1.355,-2.262Z" style="fill:#010101;fill-rule:nonzero;"/><path d="M261.617,379.117c-0.929,10.767 -2.154,21.392 -2.589,32.208c-0.466,11.573 -0.646,23.163 -0.761,34.745c-0.103,10.465 -0.114,20.93 -0.126,31.396c-0.002,2.243 0.825,4.793 1.047,7.06c0.116,1.188 0.2,2.382 0.276,3.573c0.032,0.518 -0.063,3.159 0.267,1.681c2.355,-1.369 4.712,-2.737 7.066,-4.106c2.903,2.063 -0.035,-0.164 -0.823,-0.774c-1.828,-1.419 -4.904,0.896 -5.595,2.542c-0.671,1.599 -1.441,3.696 -0.041,5.163c2.258,2.361 6.438,0.128 7.459,-2.446c1.612,-4.065 0.315,-9.676 -0.361,-13.832c-1.532,-9.385 -0.383,-19.722 -0.478,-29.258c-0.113,-11.394 -0.354,-22.775 -0.645,-34.165c-0.291,-11.497 -1.681,-22.758 -2.723,-34.183c-0.104,-1.197 -1.895,-0.502 -1.973,0.396Z" style="fill:#010101;fill-rule:nonzero;"/><path d="M289.905,173.446c-6.915,-5.302 -16.343,-7.021 -24.771,-8.019c-8.248,-0.977 -16.64,-1.239 -24.94,-1.099c-18.416,0.313 -37.039,2.578 -54.808,7.5c-13.899,3.85 -30.788,10.356 -37.294,24.315c-0.813,0.249 -1.566,0.743 -2.047,1.517c-7.557,12.166 6.799,25.26 14.955,32.763c12.578,11.57 26.809,21.189 40.625,31.182c15.891,11.494 31.871,29.896 53.551,20.515c9.354,-4.05 12.8,-13.81 16.688,-22.435c2.595,-5.75 5.854,-11.08 9.29,-16.304c1.382,-3.738 3.424,-7.149 6.521,-9.729c1.181,-1.773 2.349,-3.556 3.482,-5.362c0.723,-1.151 1.424,-2.342 2.103,-3.56c1.205,-2.477 2.438,-4.941 3.623,-7.429c6.357,-15.125 7.534,-32.729 -6.978,-43.855Zm-7.45,58.576c-6.637,9.849 -13.025,19.408 -17.836,30.315c-3.328,7.546 -6.429,14.247 -15.364,15.626c-9.93,1.531 -18.236,-2.757 -26.012,-8.502c-9.461,-6.992 -18.402,-14.59 -27.961,-21.491c-10.965,-7.916 -21.871,-16.044 -31.598,-25.471c-4.695,-4.551 -16.469,-15.291 -12.047,-22.895c0.935,-1.608 0.408,-2.733 -0.646,-3.279c9.233,-14.121 30.36,-19.301 45.642,-22.373c17.227,-3.463 35.341,-5.086 52.912,-4.249c19.269,0.918 43.136,3.381 45.944,26.866c1.554,12.977 -6.119,25.193 -13.034,35.453Z" style="fill:#010101;fill-rule:nonzero;"/><path d="M172.434,174.257c-8.164,-2.59 -17.041,-3.002 -23.6,-9.185c-0.703,1.465 -1.405,2.93 -2.107,4.395c8.577,-2.564 17.021,-1.695 25.641,0.173c1.886,0.409 4.842,-2.059 3.842,-4.093c-5.842,-11.881 1.684,-21.77 12.24,-27.278c-1.176,-0.236 -2.351,-0.473 -3.525,-0.709c4.208,7.253 8.995,14.067 14.288,20.569c1.563,1.919 4.913,-0.406 5.169,-2.317c1.347,-10.024 12.753,-14.625 21.874,-13.929c-0.552,-0.628 -1.103,-1.257 -1.654,-1.885c-0.293,5.575 -2.911,10.849 -4.019,16.284c-0.506,2.489 2.119,3.257 3.951,2.206c7.801,-4.479 30.496,-11.721 27.428,4.844c2.248,-1.008 4.497,-2.016 6.744,-3.024c-1.672,-1.555 -2.75,-2.159 -4.98,-2.666c-2.093,-0.475 -3.939,1.869 -3.533,3.767c0.42,1.966 0.932,2.893 2.295,4.358c2.637,2.835 6.642,-1.127 6.819,-3.919c1.393,-21.719 -24.95,-15.211 -36.647,-8.261c1.317,0.735 2.635,1.471 3.951,2.206c1.111,-5.98 3.68,-11.595 3.981,-17.716c0.043,-0.871 -0.779,-1.821 -1.654,-1.885c-12.659,-0.925 -28.502,6.05 -30.126,20.071c1.723,-0.772 3.446,-1.545 5.17,-2.317c-5.08,-6.11 -9.701,-12.569 -13.713,-19.431c-0.799,-1.367 -2.195,-1.407 -3.525,-0.709c-12.814,6.729 -22.998,20.189 -15.76,34.722c1.28,-1.364 2.562,-2.729 3.842,-4.093c-9.535,-2.02 -18.931,-2.744 -28.359,0.173c-1.382,0.428 -3.699,2.947 -2.107,4.395c6.969,6.336 17.569,9.157 26.854,8.836c1.703,-0.059 3.381,-2.895 1.22,-3.582Z" style="fill:#010101;fill-rule:nonzero;"/><path d="M276.958,167.164c-0.448,-0.171 -0.831,-0.387 -1.17,-0.629c-0.032,0.362 -0.055,0.73 -0.067,1.104c-0.062,1.863 2.409,1.243 3.354,0.031c-0.718,-0.091 -1.425,-0.242 -2.117,-0.506Z" style="fill:#010101;fill-rule:nonzero;"/><path d="M287.663,233.661c-0.454,-0.408 -0.907,-0.817 -1.378,-1.227c-0.563,-0.494 -1.591,0.144 -1.513,0.868c0.101,0.933 0.306,1.811 0.586,2.647c0.694,-0.819 1.461,-1.584 2.305,-2.288Z" style="fill:#010101;fill-rule:nonzero;"/><path d="M176.891,200.009c1.135,1.931 2.674,3.602 4.223,5.21c1.74,1.809 3.744,3.835 5.981,5.012c0.837,0.44 1.999,0.287 2.772,-0.225c1.031,-0.681 1.615,-1.3 1.936,-2.511c0.236,-0.901 -0.127,-1.797 -0.908,-2.281c-1.865,-1.156 -3.749,-2.169 -5.523,-3.482c-1.871,-1.383 -3.584,-3.077 -5.592,-4.258c-1.238,-0.727 -3.699,1.153 -2.889,2.535Z" style="fill:#010101;fill-rule:nonzero;"/><path d="M209.054,194.532c-0.127,2.968 0.748,6.98 2.987,9.083c2.171,2.038 6.033,-1.455 4.422,-3.88c-0.754,-1.134 -1.583,-2.206 -2.309,-3.359c-0.744,-1.181 -1.322,-2.432 -2.269,-3.472c-1.07,-1.178 -2.781,0.467 -2.831,1.628Z" style="fill:#010101;fill-rule:nonzero;"/><path d="M235.651,190.34c0.024,0.131 0.051,0.263 0.075,0.396c0.087,-0.253 0.175,-0.506 0.261,-0.759c-0.767,1.013 -0.507,2.441 -0.535,3.664c-0.019,0.769 0.262,1.588 0.354,2.356c0.101,0.823 0.289,1.618 0.685,2.348c1.748,3.227 7.037,-0.303 5.856,-3.338c-0.406,-1.042 -1.065,-1.899 -1.748,-2.771c-0.388,-0.496 -0.627,-0.975 -1.108,-1.404c-0.431,-0.384 -0.936,-0.689 -1.297,-1.14c-0.207,-0.257 -0.621,-0.384 -0.938,-0.334c-0.091,0.014 -0.179,0.028 -0.269,0.042c0.221,0.079 0.44,0.157 0.661,0.235c-0.087,-0.096 -0.173,-0.193 -0.26,-0.29c-0.575,-0.643 -1.889,0.225 -1.737,0.995Z" style="fill:#010101;fill-rule:nonzero;"/><path d="M265.168,188.771c-0.494,1.392 -1.087,2.598 -1.899,3.833c-0.83,1.259 -2.018,2.228 -2.604,3.644c-0.92,2.22 1.107,3.523 3.06,2.457c3.271,-1.788 5.616,-6.914 4.392,-10.534c-0.48,-1.412 -2.605,-0.37 -2.949,0.6Z" style="fill:#010101;fill-rule:nonzero;"/><path d="M205.2,227.262c1.062,1.169 2.07,2.36 3.174,3.481c1.229,1.251 2.301,2.718 3.627,3.86c1.988,1.712 6.049,-0.965 4.89,-3.49c-1.657,-3.611 -5.716,-5.234 -9.192,-6.53c-1.331,-0.498 -3.753,1.295 -2.499,2.679Z" style="fill:#010101;fill-rule:nonzero;"/><path d="M225.394,223.135c-0.379,2.71 -0.505,5.695 1.581,7.837c2.714,2.788 7.279,-3.3 4.235,-4.545c-0.839,-0.343 -1.423,-0.758 -1.964,-1.479c-0.5,-0.667 -1.26,-1.469 -1.426,-2.304c-0.284,-1.431 -2.267,-0.643 -2.426,0.491Z" style="fill:#010101;fill-rule:nonzero;"/><path d="M251.468,222.209c-0.042,0.213 -0.085,0.427 -0.129,0.64c0.176,-0.372 0.353,-0.743 0.526,-1.115c0.521,-0.523 0.467,-0.456 -0.162,0.203c-0.322,0.425 -0.476,0.849 -0.612,1.355c-0.052,0.188 -0.229,0.683 0.063,-0.146c-0.091,0.256 -0.32,0.552 0.205,-0.259c-0.195,0.229 -0.342,0.482 -0.439,0.758c-0.098,0.257 -0.37,0.5 0.223,-0.34c0.338,-0.479 0.428,-0.499 0.919,-0.806c-0.409,0.257 -1.437,0.907 -0.256,0.172c-1.062,0.661 -2.007,1.784 -1.937,3.111c0.033,0.643 0.363,1.233 0.938,1.544c0.658,0.356 1.293,0.235 1.982,0.096c1.688,-0.34 2.824,-1.92 3.332,-3.442c0.146,-0.438 0.121,-0.901 0.063,-1.351c-0.04,-0.306 -0.115,-0.623 -0.182,-0.919c-0.036,-0.227 -0.143,-0.427 -0.315,-0.6c-0.53,-0.421 -0.586,-0.466 -0.168,-0.134c0.124,0.318 0.248,0.636 0.372,0.955c-0.074,-0.358 -0.146,-0.716 -0.227,-1.073c-0.201,-0.925 -1.475,-1.02 -2.178,-0.794c-0.944,0.301 -1.823,1.149 -2.018,2.145Z" style="fill:#010101;fill-rule:nonzero;"/><path d="M233.845,249.18c-0.069,0.431 -0.104,0.862 -0.14,1.297c0.172,-0.414 0.144,-0.31 -0.086,0.313c-0.073,0.348 -0.043,0.699 -0.012,1.047c0.092,1.075 0.323,1.883 0.992,2.905c1.291,1.975 4.572,2.897 6.559,1.491c0.976,-0.692 2.584,-2.311 1.793,-3.703c-0.58,-1.018 -1.258,-1.248 -2.314,-1.545c-0.098,-0.027 -1.044,-0.337 -0.533,-0.14c-0.297,-0.115 -0.566,-0.289 -0.851,-0.431c-0.603,-0.302 -0.841,-0.482 -1.188,-0.876c-0.287,-0.327 -0.41,-0.612 -0.791,-0.872c0.448,0.307 0.08,-0.349 0.024,-0.6c-0.171,-0.76 -1.21,-0.839 -1.792,-0.653c-0.757,0.242 -1.529,0.95 -1.661,1.767Z" style="fill:#010101;fill-rule:nonzero;"/><path d="M269.524,265.83c0.232,-0.479 0.479,-0.949 0.738,-1.411c-0.003,-0.018 -0.004,-0.023 -0.008,-0.044c-0.052,-0.252 -0.104,-0.504 -0.158,-0.755c-0.039,-0.236 -0.147,-0.444 -0.314,-0.628c-0.74,-2.243 -4.073,-0.739 -4.417,1.228c-0.004,0.021 -0.006,0.03 -0.009,0.049c-0.177,0.306 -0.263,0.656 -0.353,0.994c-0.022,0.082 -0.062,0.162 -0.097,0.224c-0.018,0.052 -0.036,0.103 -0.054,0.155c-0.039,0.044 -0.071,0.094 -0.111,0.137c-0.022,0.024 -0.05,0.055 -0.078,0.086c-0.069,0.061 -0.137,0.123 -0.202,0.188c-0.856,0.818 -1.62,2.075 -1.15,3.301c0.438,1.146 1.786,1.388 2.839,1.037c0.723,-0.242 1.367,-0.59 1.926,-1.027c0.432,-1.199 0.893,-2.393 1.448,-3.534Z" style="fill:#010101;fill-rule:nonzero;"/><path d="M294.294,222.611c1.171,-2.378 2.327,-4.763 3.437,-7.17c-3.169,-0.012 -6.843,4.202 -4.336,6.405c0.3,0.263 0.6,0.515 0.899,0.765Z" style="fill:#010101;fill-rule:nonzero;"/><path d="M149.573,147.607c-15.457,3.644 -30.093,9.206 -44.562,15.726c-7.771,3.501 -20.115,9.563 -20.086,19.718c0.035,12.384 13.854,15.311 22.787,19.951c14.7,7.637 27.257,19.448 40.021,29.793c0.879,0.713 2.389,-0.546 1.727,-1.515c-7.77,-11.361 -19.424,-19.984 -30.805,-27.459c-4.354,-2.859 -8.627,-5.43 -13.369,-7.591c-4.65,-2.12 -10.228,-4.033 -13.748,-7.896c-9.229,-10.125 8.805,-19.092 15.68,-22.416c13.756,-6.65 27.955,-12.481 42.4,-17.45c0.504,-0.174 0.636,-1.021 -0.045,-0.861Z" style="fill:#010101;fill-rule:nonzero;"/><path d="M227.626,124.611c14.719,-4.827 27.903,-13.065 42.478,-18.207c7.339,-2.588 15.02,-3.762 22.738,-2.512c10.145,1.644 17.338,8.233 25.604,13.662c1.438,0.943 3.604,-1.425 2.604,-2.792c-10.549,-14.4 -29.722,-18.667 -46.209,-14.066c-16.961,4.732 -31.059,16.285 -47.275,22.769c-0.645,0.257 -0.835,1.44 0.06,1.146Z" style="fill:#010101;fill-rule:nonzero;"/></g><path d="M318.271,94.462c0.906,4.93 3.563,9.066 6.055,13.356c3.184,5.48 5.767,10.826 7.539,16.922c3.402,11.695 4.262,24.087 4.908,36.191c1.385,25.951 0.398,51.382 -5.075,76.864c-4.948,23.041 -13.29,45.447 -25.026,65.893c-9.982,17.389 -22.505,32.37 -41.075,40.738c-2.621,1.181 -3.345,5.83 0.324,5.762c10.083,-0.187 18.509,-6.469 25.566,-13.107c7.991,-7.517 14.463,-16.57 20.188,-25.877c13.051,-21.213 22.009,-44.712 27.816,-68.885c6.373,-26.517 7.604,-53.615 5.846,-80.742c-0.818,-12.638 -2.347,-25.333 -5.636,-37.583c-1.536,-5.724 -3.561,-11.084 -6.94,-15.968c-3.599,-5.201 -7.989,-10.123 -12.057,-14.962c-0.787,-0.938 -2.626,0.344 -2.433,1.398Z" style="fill:#010101;fill-rule:nonzero;"/><path d="M310.712,90.481c1.83,10.286 8.451,19.606 12.078,29.351c4.366,11.731 5.274,24.296 3.118,36.594c-4.114,23.458 -22.611,38.777 -35.698,57.321c-6.084,8.622 -10.869,18.128 -12.928,28.53c-2.399,12.128 -0.15,24.274 2.612,36.114c2.526,10.824 4.581,21.494 5.032,32.625c0.371,9.177 -0.723,19.285 -9.155,24.562c-4.586,2.869 -3.055,9.91 2.646,6.92c19.368,-10.159 16.538,-36.611 13.146,-54.609c-2.447,-12.982 -6.691,-25.487 -6.514,-38.846c0.169,-12.809 6.066,-24.199 13.349,-34.378c6.997,-9.781 15.394,-18.487 22.222,-28.394c6.604,-9.583 11.097,-20.451 12.91,-31.951c1.859,-11.791 0.472,-23.819 -3.439,-35.046c-3.546,-10.174 -9.414,-22.34 -16.836,-30.253c-0.862,-0.92 -2.747,0.317 -2.543,1.46Z" style="fill:#010101;fill-rule:nonzero;"/><path d="M315.718,300.312c4.736,-1.75 8.677,-5.591 12.621,-8.645c4.705,-3.641 9.6,-7.021 14.566,-10.29c10.601,-6.98 21.677,-13.225 32.912,-19.117c21.697,-11.378 44.456,-20.073 66.654,-30.315c5.856,-2.702 5.492,-12.784 -2.181,-10.511c-2.404,0.713 -4.49,1.896 -6.379,3.547c-2.142,1.871 -3.358,5.49 -0.567,7.348c1.885,1.255 3.884,0.723 5.981,0.629c0.321,-3.841 0.644,-7.682 0.965,-11.523c-22.998,9.596 -45.561,21.204 -67.401,33.174c-11.172,6.123 -22.094,12.709 -32.609,19.904c-5.173,3.539 -10.221,7.262 -15.143,11.143c-4.242,3.347 -9.357,6.998 -11.782,11.965c-0.815,1.671 0.553,3.36 2.363,2.691Z" style="fill:#010101;fill-rule:nonzero;"/><path d="M346.716,204.268c10.144,-3.102 13.377,-15.262 17.281,-23.902c6.292,-13.927 12.962,-27.731 19.919,-41.346c7.485,-14.647 15.488,-28.981 23.259,-43.473c7.206,-13.438 15.327,-26.816 21.671,-40.668c7.028,-15.346 11.916,-40.675 32.058,-42.968c11.168,-1.272 14.352,5.048 12.835,15.269c-2.126,14.329 -9.208,28.048 -15.772,40.77c-6.411,12.423 -13.563,24.44 -20.798,36.396c-11.909,19.678 -23.426,39.747 -34.468,59.923c-8.176,14.938 -12.65,31.588 -18.876,47.389c-1.412,3.583 -2.891,7.148 -4.603,10.6c-0.291,0.587 -0.604,1.161 -0.921,1.734c0.744,-1.346 -0.265,0.355 -0.466,0.62c0.447,-0.589 3.692,-3.41 0.341,-0.469c-0.921,0.802 -1.647,1.753 -2.177,2.852c-0.589,1.811 -0.688,2.057 -0.298,0.741c1.763,-1.548 3.526,-3.095 5.289,-4.642c-0.234,0.086 -0.469,0.172 -0.704,0.258c2.188,1.228 4.373,2.455 6.561,3.683c-0.088,-1.638 -0.18,-3.276 -0.27,-4.914c-0.183,-3.285 -3.504,-4.41 -6.277,-3.523c-3.283,1.05 -5.506,3.969 -5.688,7.359c-0.09,1.695 -0.182,3.391 -0.27,5.086c-0.176,3.401 3.946,4.65 6.561,3.683c3.187,-1.18 6.303,-3.569 6.813,-7.183c-1.405,1.825 -2.812,3.65 -4.217,5.475c5.479,-3.845 7.895,-10.486 10.346,-16.475c3.464,-8.463 6.465,-17.116 9.534,-25.728c2.325,-6.525 4.387,-13.298 7.613,-19.448c7.236,-13.794 15.209,-27.188 23.014,-40.663c15.123,-26.112 31.803,-52.028 43.411,-79.946c4.82,-11.591 10.217,-25.484 7.242,-38.202c-3.084,-13.191 -19.525,-13.037 -29.762,-9.651c-20.281,6.708 -26.698,30.735 -33.888,48.297c-2.447,5.978 -5.81,11.571 -8.778,17.302c-3.807,7.353 -7.502,14.763 -11.341,22.099c-7.607,14.534 -15.636,28.816 -23.062,43.45c-6.713,13.231 -13.268,26.587 -18.976,40.288c-1.886,4.527 -3.959,9.004 -5.852,13.541c-1.824,4.374 -4.101,9.462 -7.749,12.629c-1.71,1.486 -1.232,4.581 1.465,3.757Z" style="fill:#010101;fill-rule:nonzero;"/><path d="M339.64,151.753c2.393,3.419 7.559,5.555 11.028,7.629c2.242,1.341 4.476,2.715 6.636,4.186c1.441,0.981 2.119,2.155 3.885,2.652c3.12,0.878 6.09,-2.329 6.879,-4.96c1.502,-5.01 -6.77,-7.342 -10.037,-8.753c-4.69,-2.025 -10.674,-5.191 -15.955,-4.711c-1.75,0.159 -3.612,2.278 -2.436,3.957Z" style="fill:#010101;fill-rule:nonzero;"/><path d="M398.431,183.271c1.734,4.058 5.476,6.718 8.809,9.411c4.205,3.397 8.519,6.66 12.662,10.133c7.18,6.017 16.92,14.041 18.348,23.937c2.148,-2.284 4.298,-4.567 6.446,-6.851c-2.45,-0.008 -4.642,0.107 -7.042,0.615c-3.886,0.821 -7.258,7.961 -1.98,9.245c2.236,0.544 4.528,0.423 6.821,0.415c3.045,-0.01 6.934,-3.641 6.446,-6.851c-1.702,-11.199 -10.078,-19.281 -18.502,-26.114c-4.546,-3.688 -9.383,-7.152 -14.369,-10.221c-4.491,-2.763 -9.164,-6.174 -14.459,-7.107c-1.621,-0.287 -3.927,1.641 -3.18,3.388Z" style="fill:#010101;fill-rule:nonzero;"/><path d="M340.574,214.934c4.797,7.133 10.25,12.257 18.558,15.136c8.333,2.888 17.324,3.496 25.639,0.191c3.631,-1.443 4.856,-7.62 -0.35,-6.447c-2.315,0.521 -3.647,1.999 -5.598,3.203c-1.529,0.945 -2.827,3.747 -0.362,4.429c2.232,0.618 3.319,-0.681 5.404,-1.002c0.186,-2.21 0.371,-4.42 0.556,-6.63c-6.882,2.735 -14.004,2.449 -21.093,0.646c-7.068,-1.798 -15.717,-5.85 -20.711,-11.319c-0.931,-1.02 -2.784,0.691 -2.043,1.793Z" style="fill:#010101;fill-rule:nonzero;"/></g></svg>